<?xml version="1.0" encoding="UTF-8" standalone="no"?>
<svg height="40" viewBox="0 0 166.4 40" width="166.4" xmlns="http://www.w3.org/2000/svg">
<defs>
<path d="M 85 0 L 85 -735 L 319 -735 Q 347 -735 375.5 -729.5 Q 404 -724 428.5 -710 Q 453 -696 472 -674 Q 491 -652 502.5 -626 Q 514 -600 518.5 -571.5 Q 523 -543 523 -515 Q 523 -480 515.5 -445 Q 508 -410 489.5 -380 Q 471 -350 441.5 -329 Q 412 -308 377 -300 L 539 0 L 433 0 L 275 -295 L 181 -295 L 181 0 Z M 181 -379 L 319 -379 Q 335 -379 351.5 -383.5 Q 368 -388 381 -397.5 Q 394 -407 403 -421 Q 412 -435 417.5 -450.5 Q 423 -466 425 -482.5 Q 427 -499 427 -515 Q 427 -531 425 -547.5 Q 423 -564 417.5 -579.5 Q 412 -595 403 -609 Q 394 -623 381 -632.5 Q 368 -642 351.5 -646.5 Q 335 -651 319 -651 L 181 -651 Z " id="path1"/>
<path d="M 303 8 Q 273 8 243.5 3 Q 214 -2 187 -14.5 Q 160 -27 138 -48 Q 116 -69 102 -95 Q 88 -121 82.5 -150.5 Q 77 -180 77 -210 L 77 -310 Q 77 -340 82.5 -369 Q 88 -398 101.5 -424.5 Q 115 -451 136.5 -471.5 Q 158 -492 185 -505 Q 212 -518 241 -523 Q 270 -528 300 -528 Q 330 -528 359 -523 Q 388 -518 415 -505 Q 442 -492 463.5 -471.5 Q 485 -451 498.5 -424.5 Q 512 -398 517.5 -369 Q 523 -340 523 -310 L 523 -218 L 173 -218 L 173 -210 Q 173 -192 176 -174.5 Q 179 -157 186.5 -141 Q 194 -125 206.5 -112 Q 219 -99 234.5 -90.5 Q 250 -82 267.5 -79 Q 285 -76 303 -76 Q 322 -76 341.5 -79 Q 361 -82 379 -90 Q 397 -98 410 -114 Q 423 -130 425 -149 L 521 -149 Q 519 -124 509.5 -100.5 Q 500 -77 483.5 -58.5 Q 467 -40 446 -26.5 Q 425 -13 401 -5.5 Q 377 2 352 5 Q 327 8 303 8 Z M 173 -302 L 427 -302 L 427 -310 Q 427 -328 424 -345 Q 421 -362 414 -378 Q 407 -394 395 -407 Q 383 -420 367.5 -428.5 Q 352 -437 335 -440.5 Q 318 -444 300 -444 Q 282 -444 265 -440.5 Q 248 -437 232.5 -428.5 Q 217 -420 205 -407 Q 193 -394 186 -378 Q 179 -362 176 -345 Q 173 -328 173 -310 Z " id="path2"/>
<path d="M 99 0 L 99 -84 L 260 -84 L 260 -651 L 115 -651 L 115 -735 L 356 -735 L 356 -84 L 501 -84 L 501 0 Z " id="path3"/>
<path d="M 247 8 L 246 8 Q 214 8 182.5 0.5 Q 151 -7 126 -27.5 Q 101 -48 89 -79 Q 77 -110 77 -142 Q 77 -170 86 -197 Q 95 -224 114 -244.5 Q 133 -265 158.5 -278 Q 184 -291 211 -298.5 Q 238 -306 265.5 -308.5 Q 293 -311 321 -311 L 419 -311 L 419 -348 Q 419 -370 409.5 -390 Q 400 -410 382 -422.5 Q 364 -435 342 -439.5 Q 320 -444 298 -444 Q 278 -444 258 -440.5 Q 238 -437 220 -427 Q 202 -417 190.5 -399.5 Q 179 -382 179 -362 L 83 -362 Q 83 -387 91.5 -412 Q 100 -437 115.5 -457 Q 131 -477 152.5 -491 Q 174 -505 198 -513.5 Q 222 -522 247.5 -525 Q 273 -528 298 -528 Q 325 -528 351.5 -524.5 Q 378 -521 403 -512 Q 428 -503 450 -487 Q 472 -471 487 -449 Q 502 -427 508.5 -401 Q 515 -375 515 -348 L 515 0 L 419 0 L 419 -87 Q 407 -63 389 -44.5 Q 371 -26 347.5 -14 Q 324 -2 298.5 3 Q 273 8 247 8 Z M 284 -76 Q 309 -76 333.5 -81.5 Q 358 -87 378 -102 Q 398 -117 408.5 -140.5 Q 419 -164 419 -189 L 419 -228 L 321 -228 Q 306 -228 290.5 -227 Q 275 -226 260 -223 Q 245 -220 230 -215.5 Q 215 -211 202 -203 Q 189 -195 181 -181 Q 173 -167 173 -152 Q 173 -133 183.5 -116.5 Q 194 -100 210.5 -91 Q 227 -82 246 -79 Q 265 -76 284 -76 Z " id="path4"/>
<path d="M 299 8 Q 274 8 249 5.5 Q 224 3 200 -4.5 Q 176 -12 154.5 -25 Q 133 -38 117 -57 Q 101 -76 92 -100 Q 83 -124 83 -149 L 83 -151 L 179 -151 L 179 -150 Q 179 -137 185 -125 Q 191 -113 200.5 -104.5 Q 210 -96 222 -90 Q 234 -84 246.5 -81 Q 259 -78 272.5 -77 Q 286 -76 299 -76 Q 311 -76 323.5 -77 Q 336 -78 348.5 -80 Q 361 -82 373 -86.5 Q 385 -91 395.5 -98 Q 406 -105 412.5 -116.5 Q 419 -128 419 -140 Q 419 -156 410 -170 Q 401 -184 387 -192.5 Q 373 -201 357.5 -205 Q 342 -209 326 -211 Q 310 -213 294.5 -214.5 Q 279 -216 263 -218.5 Q 247 -221 231.5 -225.5 Q 216 -230 201.5 -236 Q 187 -242 173 -250.5 Q 159 -259 147 -269.5 Q 135 -280 125 -292.5 Q 115 -305 108 -319.5 Q 101 -334 97 -349.5 Q 93 -365 93 -381 Q 93 -405 101.5 -427.5 Q 110 -450 126 -468 Q 142 -486 163 -497.5 Q 184 -509 207 -516 Q 230 -523 253.5 -525.5 Q 277 -528 301 -528 Q 325 -528 349.5 -525.5 Q 374 -523 397 -515 Q 420 -507 441 -494.5 Q 462 -482 477 -463 Q 492 -444 500.5 -420.5 Q 509 -397 509 -373 L 509 -371 L 413 -371 L 413 -372 Q 413 -390 401.5 -406 Q 390 -422 373.5 -430 Q 357 -438 338.5 -441 Q 320 -444 301 -444 Q 289 -444 277 -443 Q 265 -442 253.5 -439.5 Q 242 -437 231 -433 Q 220 -429 210.5 -421.5 Q 201 -414 195 -403 Q 189 -392 189 -380 Q 189 -364 198 -350.5 Q 207 -337 220.5 -328 Q 234 -319 249.5 -315 Q 265 -311 281 -309 Q 297 -307 313 -305.5 Q 329 -304 344.5 -301.5 Q 360 -299 375.5 -294.5 Q 391 -290 406 -284 Q 421 -278 434.5 -269.5 Q 448 -261 460.5 -250.5 Q 473 -240 483 -227.5 Q 493 -215 500 -201 Q 507 -187 511 -171 Q 515 -155 515 -140 Q 515 -115 505.5 -92 Q 496 -69 479.5 -51 Q 463 -33 441 -21.5 Q 419 -10 395.5 -3.5 Q 372 3 347.5 5.5 Q 323 8 299 8 Z " id="path5"/>
<path d="M 85 0 L 85 -1 Q 85 -29 86 -57.5 Q 87 -86 92 -113.5 Q 97 -141 106 -168 Q 115 -195 129 -219.5 Q 143 -244 161 -265.5 Q 179 -287 200 -306 Q 221 -325 244.5 -340 Q 268 -355 293 -368.5 Q 318 -382 342 -397 Q 366 -412 384.5 -433.5 Q 403 -455 413 -482 Q 423 -509 423 -537 Q 423 -561 415.5 -585.5 Q 408 -610 390.5 -627 Q 373 -644 349 -651.5 Q 325 -659 301 -659 Q 278 -659 256 -653.5 Q 234 -648 216 -634 Q 198 -620 188.5 -599 Q 179 -578 179 -555 L 179 -554 L 83 -554 L 83 -557 Q 83 -583 90.5 -609.5 Q 98 -636 112.5 -658.5 Q 127 -681 148.5 -698 Q 170 -715 195 -725 Q 220 -735 247 -739 Q 274 -743 301 -743 Q 329 -743 357.5 -738.5 Q 386 -734 411.5 -722 Q 437 -710 458.5 -690.5 Q 480 -671 494 -646.5 Q 508 -622 513.5 -593.5 Q 519 -565 519 -537 Q 519 -507 511.5 -478.5 Q 504 -450 489 -424.5 Q 474 -399 453 -378 Q 432 -357 408 -340 Q 384 -323 358.5 -308 Q 333 -293 309 -276 Q 285 -259 264 -238.5 Q 243 -218 226.5 -193.5 Q 210 -169 200 -141 Q 190 -113 185 -84 L 515 -84 L 515 0 Z " id="path6"/>
<path d="M 197 0 L 331 -221 Q 342 -239 353 -257 Q 364 -275 376 -293 Q 357 -286 337 -283.5 Q 317 -281 298 -281 Q 267 -281 237 -287 Q 207 -293 180.5 -307.5 Q 154 -322 133.5 -344.5 Q 113 -367 100 -394.5 Q 87 -422 82 -452 Q 77 -482 77 -512 Q 77 -542 82 -572.5 Q 87 -603 100 -630.5 Q 113 -658 134.5 -680.5 Q 156 -703 182.5 -717.5 Q 209 -732 239.5 -737.5 Q 270 -743 300 -743 Q 332 -743 364 -736 Q 396 -729 423 -711.5 Q 450 -694 470 -668.5 Q 490 -643 502 -613 Q 514 -583 518.5 -551 Q 523 -519 523 -487 Q 523 -445 514.5 -404 Q 506 -363 490.5 -324.5 Q 475 -286 454.5 -249.5 Q 434 -213 413 -178 L 412 -177 L 305 0 Z M 300 -365 Q 327 -365 353.5 -375.5 Q 380 -386 397 -407.5 Q 414 -429 420.5 -456.5 Q 427 -484 427 -512 Q 427 -539 420.5 -566.5 Q 414 -594 397 -616 Q 380 -638 354 -648.5 Q 328 -659 300 -659 Q 272 -659 246 -648.5 Q 220 -638 203 -616 Q 186 -594 179.5 -566.5 Q 173 -539 173 -512 Q 173 -484 179.5 -457 Q 186 -430 203 -408 Q 220 -386 246 -375.5 Q 272 -365 300 -365 Z " id="path7"/>
<path d="M 300 8 Q 283 8 266 3 Q 249 -2 237 -14.5 Q 225 -27 219.5 -44 Q 214 -61 214 -78 Q 214 -95 219.5 -112 Q 225 -129 237 -141 Q 249 -153 266 -158 Q 283 -163 300 -163 Q 317 -163 334 -158 Q 351 -153 363 -141 Q 375 -129 380.5 -112 Q 386 -95 386 -78 Q 386 -61 380.5 -44 Q 375 -27 363 -14.5 Q 351 -2 334 3 Q 317 8 300 8 Z " id="path8"/>
<path d="M 282 0 L 282 -626 L 163 -535 L 106 -601 L 282 -735 L 378 -735 L 378 0 Z " id="path9"/>
<path d="M 300 8 Q 270 8 241 3 Q 212 -2 185 -15 Q 158 -28 136.5 -48.5 Q 115 -69 101.5 -95.5 Q 88 -122 82.5 -151 Q 77 -180 77 -210 L 77 -525 Q 77 -555 82.5 -584 Q 88 -613 101.5 -639.5 Q 115 -666 136.5 -686.5 Q 158 -707 185 -720 Q 212 -733 241 -738 Q 270 -743 300 -743 Q 330 -743 359 -738 Q 388 -733 415 -720 Q 442 -707 463.5 -686.5 Q 485 -666 498.5 -639.5 Q 512 -613 517.5 -584 Q 523 -555 523 -525 L 523 -210 Q 523 -180 517.5 -151 Q 512 -122 498.5 -95.5 Q 485 -69 463.5 -48.5 Q 442 -28 415 -15 Q 388 -2 359 3 Q 330 8 300 8 Z M 173 -332 L 427 -500 L 427 -525 Q 427 -543 424 -560 Q 421 -577 414 -593 Q 407 -609 395 -622 Q 383 -635 367.5 -643.5 Q 352 -652 335 -655.5 Q 318 -659 300 -659 Q 282 -659 265 -655.5 Q 248 -652 232.5 -643.5 Q 217 -635 205 -622 Q 193 -609 186 -593 Q 179 -577 176 -560 Q 173 -543 173 -525 Z M 300 -76 Q 318 -76 335 -79.5 Q 352 -83 367.5 -91.5 Q 383 -100 395 -113 Q 407 -126 414 -142 Q 421 -158 424 -175 Q 427 -192 427 -210 L 427 -403 L 173 -235 L 173 -210 Q 173 -192 176 -175 Q 179 -158 186 -142 Q 193 -126 205 -113 Q 217 -100 232.5 -91.5 Q 248 -83 265 -79.5 Q 282 -76 300 -76 Z " id="path10"/>
</defs>
<g>
<g data-source-text="Release " fill="#dee4e3" transform="translate(16 23.528) rotate(0) scale(0.016)">
<use href="#path1" transform="translate(0 0)"/>
<use href="#path2" transform="translate(600 0)"/>
<use href="#path3" transform="translate(1200 0)"/>
<use href="#path2" transform="translate(1800 0)"/>
<use href="#path4" transform="translate(2400 0)"/>
<use href="#path5" transform="translate(3000 0)"/>
<use href="#path2" transform="translate(3600 0)"/>
</g>
<g data-source-text="29.1.0" fill="#03aee9" transform="translate(92.799995 23.528) rotate(0) scale(0.016)">
<use href="#path6" transform="translate(0 0)"/>
<use href="#path7" transform="translate(600 0)"/>
<use href="#path8" transform="translate(1200 0)"/>
<use href="#path9" transform="translate(1800 0)"/>
<use href="#path8" transform="translate(2400 0)"/>
<use href="#path10" transform="translate(3000 0)"/>
</g>
</g>
</svg>