<?xml version="1.0" encoding="UTF-8" standalone="no"?>
<svg height="40" viewBox="0 0 166.4 40" width="166.4" xmlns="http://www.w3.org/2000/svg">
<defs>
<path d="M 85 0 L 85 -735 L 319 -735 Q 347 -735 375.5 -729.5 Q 404 -724 428.5 -710 Q 453 -696 472 -674 Q 491 -652 502.5 -626 Q 514 -600 518.5 -571.5 Q 523 -543 523 -515 Q 523 -480 515.5 -445 Q 508 -410 489.5 -380 Q 471 -350 441.5 -329 Q 412 -308 377 -300 L 539 0 L 433 0 L 275 -295 L 181 -295 L 181 0 Z M 181 -379 L 319 -379 Q 335 -379 351.5 -383.5 Q 368 -388 381 -397.5 Q 394 -407 403 -421 Q 412 -435 417.5 -450.5 Q 423 -466 425 -482.5 Q 427 -499 427 -515 Q 427 -531 425 -547.5 Q 423 -564 417.5 -579.5 Q 412 -595 403 -609 Q 394 -623 381 -632.5 Q 368 -642 351.5 -646.5 Q 335 -651 319 -651 L 181 -651 Z " id="path1"/>
<path d="M 300 8 Q 271 8 241.5 3 Q 212 -2 185.5 -15 Q 159 -28 137 -48.5 Q 115 -69 101.5 -95.5 Q 88 -122 82.5 -151 Q 77 -180 77 -210 L 77 -310 Q 77 -340 82.5 -369 Q 88 -398 101.5 -424.5 Q 115 -451 136.5 -471.5 Q 158 -492 185 -505 Q 212 -518 241 -523 Q 270 -528 300 -528 Q 330 -528 359 -523 Q 388 -518 415 -505 Q 442 -492 463.5 -471.5 Q 485 -451 498.5 -424.5 Q 512 -398 517.5 -369 Q 523 -340 523 -310 L 523 -218 L 173 -218 L 173 -210 Q 173 -192 176 -175 Q 179 -158 186 -142 Q 193 -126 205 -112.5 Q 217 -99 232.5 -91 Q 248 -83 265.5 -79.5 Q 283 -76 300 -76 Q 313 -76 326.5 -77 Q 340 -78 353 -81 Q 366 -84 378.5 -89 Q 391 -94 401 -102.5 Q 411 -111 417.5 -123 Q 424 -135 425 -149 L 521 -149 Q 520 -123 510.5 -99.5 Q 501 -76 484.5 -57 Q 468 -38 446 -25 Q 424 -12 400 -4.5 Q 376 3 350.5 5.5 Q 325 8 300 8 Z M 173 -302 L 427 -302 L 427 -310 Q 427 -328 424 -345 Q 421 -362 414 -378 Q 407 -394 395 -407 Q 383 -420 367.5 -428.5 Q 352 -437 335 -440.5 Q 318 -444 300 -444 Q 282 -444 265 -440.5 Q 248 -437 232.5 -428.5 Q 217 -420 205 -407 Q 193 -394 186 -378 Q 179 -362 176 -345 Q 173 -328 173 -310 Z " id="path2"/>
<path d="M 99 0 L 99 -84 L 260 -84 L 260 -651 L 115 -651 L 115 -735 L 356 -735 L 356 -84 L 501 -84 L 501 0 Z " id="path3"/>
<path d="M 258 8 Q 236 8 213.5 5 Q 191 2 170.5 -5.5 Q 150 -13 131.5 -26.5 Q 113 -40 100.5 -58.5 Q 88 -77 82.5 -98.5 Q 77 -120 77 -142 Q 77 -170 86 -197 Q 95 -224 114.5 -244.5 Q 134 -265 159 -278 Q 184 -291 211 -298.5 Q 238 -306 266 -308.5 Q 294 -311 321 -311 L 419 -311 L 419 -348 Q 419 -370 409.5 -390 Q 400 -410 382 -422.5 Q 364 -435 342.5 -439.5 Q 321 -444 299 -444 Q 286 -444 273 -443 Q 260 -442 247.5 -439 Q 235 -436 223 -431 Q 211 -426 201 -417.5 Q 191 -409 185 -397 Q 179 -385 179 -372 L 179 -371 L 83 -371 L 83 -374 Q 83 -399 92 -422.5 Q 101 -446 117.5 -464.5 Q 134 -483 155.5 -495.5 Q 177 -508 201 -515.5 Q 225 -523 249.5 -525.5 Q 274 -528 299 -528 Q 325 -528 351.5 -524.5 Q 378 -521 403 -512 Q 428 -503 450 -487 Q 472 -471 487 -449 Q 502 -427 508.5 -401 Q 515 -375 515 -348 L 515 0 L 419 0 L 419 -84 Q 408 -62 391 -43.5 Q 374 -25 352.5 -13 Q 331 -1 306.5 3.5 Q 282 8 258 8 Z M 295 -76 Q 319 -76 342.5 -82 Q 366 -88 384 -103.5 Q 402 -119 410.5 -142 Q 419 -165 419 -189 L 419 -228 L 321 -228 Q 306 -228 290.5 -227 Q 275 -226 260 -223 Q 245 -220 230.5 -215.5 Q 216 -211 202.5 -203 Q 189 -195 181 -181.5 Q 173 -168 173 -152 Q 173 -132 185.5 -115.5 Q 198 -99 216.5 -90.5 Q 235 -82 255 -79 Q 275 -76 295 -76 Z " id="path4"/>
<path d="M 299 8 Q 275 8 251 6 Q 227 4 204 -2.5 Q 181 -9 159 -20 Q 137 -31 120 -47.5 Q 103 -64 93 -86.5 Q 83 -109 83 -133 L 83 -139 L 179 -139 L 179 -137 Q 179 -125 186 -114 Q 193 -103 203.5 -96.5 Q 214 -90 226 -86 Q 238 -82 250 -79.5 Q 262 -77 274.5 -76.5 Q 287 -76 299 -76 Q 312 -76 324.5 -77 Q 337 -78 349 -80 Q 361 -82 373 -86.5 Q 385 -91 395.5 -98 Q 406 -105 412.5 -116.5 Q 419 -128 419 -140 Q 419 -156 410 -170 Q 401 -184 387 -192.5 Q 373 -201 357.5 -205 Q 342 -209 326 -211 Q 310 -213 294.5 -214.5 Q 279 -216 263 -218.5 Q 247 -221 231.5 -225.5 Q 216 -230 201.5 -236 Q 187 -242 173 -250.5 Q 159 -259 147 -269.5 Q 135 -280 125 -292.5 Q 115 -305 108 -319.5 Q 101 -334 97 -349.5 Q 93 -365 93 -381 Q 93 -405 101.5 -427.5 Q 110 -450 126 -468 Q 142 -486 163 -497.5 Q 184 -509 207 -516 Q 230 -523 253.5 -525.5 Q 277 -528 301 -528 Q 324 -528 347.5 -525.5 Q 371 -523 393.5 -517 Q 416 -511 437 -499.5 Q 458 -488 474.5 -471.5 Q 491 -455 500 -432.5 Q 509 -410 509 -387 L 509 -381 L 413 -381 L 413 -383 Q 413 -395 407 -405.5 Q 401 -416 391.5 -423 Q 382 -430 370.5 -434 Q 359 -438 347.5 -440 Q 336 -442 324.5 -443 Q 313 -444 301 -444 Q 283 -444 265 -442 Q 247 -440 230.5 -433 Q 214 -426 201.5 -412 Q 189 -398 189 -380 Q 189 -364 198 -350.5 Q 207 -337 220.5 -328 Q 234 -319 249.5 -315 Q 265 -311 281 -309 Q 297 -307 313 -305.5 Q 329 -304 344.5 -301.5 Q 360 -299 375.5 -294.5 Q 391 -290 406 -284 Q 421 -278 434.5 -269.5 Q 448 -261 460.5 -250.5 Q 473 -240 483 -227.5 Q 493 -215 500 -201 Q 507 -187 511 -171 Q 515 -155 515 -139 Q 515 -115 505.5 -92 Q 496 -69 479.5 -51 Q 463 -33 441 -21.5 Q 419 -10 395.5 -3.5 Q 372 3 347.5 5.5 Q 323 8 299 8 Z " id="path5"/>
<path d="M 303 8 Q 275 8 247.5 4.5 Q 220 1 194 -9 Q 168 -19 145.5 -35.5 Q 123 -52 107.5 -74.5 Q 92 -97 83.5 -124 Q 75 -151 75 -179 L 75 -184 L 171 -184 L 171 -181 Q 171 -157 182 -135 Q 193 -113 212.5 -99.5 Q 232 -86 255.5 -81 Q 279 -76 303 -76 Q 328 -76 353 -82.5 Q 378 -89 397 -106 Q 416 -123 425.5 -147 Q 435 -171 435 -196 Q 435 -218 428.5 -238.5 Q 422 -259 409.5 -276.5 Q 397 -294 379.5 -306.5 Q 362 -319 341.5 -326 Q 321 -333 299.5 -334.5 Q 278 -336 257 -336 L 257 -420 Q 277 -420 296.5 -421.5 Q 316 -423 334.5 -429.5 Q 353 -436 369 -448 Q 385 -460 396 -476 Q 407 -492 413 -511 Q 419 -530 419 -549 Q 419 -572 411 -593.5 Q 403 -615 386.5 -630.5 Q 370 -646 348 -652.5 Q 326 -659 303 -659 Q 281 -659 259.5 -653.5 Q 238 -648 221 -633.5 Q 204 -619 195.5 -598 Q 187 -577 187 -555 L 187 -551 L 91 -551 L 91 -558 Q 91 -585 98 -611 Q 105 -637 119.5 -659 Q 134 -681 154.5 -698 Q 175 -715 199.5 -725 Q 224 -735 250.5 -739 Q 277 -743 303 -743 Q 330 -743 356.5 -739 Q 383 -735 407.5 -724 Q 432 -713 453 -695 Q 474 -677 487.5 -654 Q 501 -631 508 -604.5 Q 515 -578 515 -551 Q 515 -524 507.5 -497.5 Q 500 -471 485 -448.5 Q 470 -426 449 -408.5 Q 428 -391 403 -380 Q 431 -369 455 -350.5 Q 479 -332 496 -307 Q 513 -282 522 -253 Q 531 -224 531 -194 Q 531 -166 523.5 -138 Q 516 -110 501 -85.5 Q 486 -61 463.5 -42 Q 441 -23 415 -12 Q 389 -1 360.5 3.5 Q 332 8 303 8 Z " id="path6"/>
<path d="M 300 8 Q 270 8 241 3 Q 212 -2 185 -15 Q 158 -28 136.5 -48.5 Q 115 -69 101.5 -95.5 Q 88 -122 82.5 -151 Q 77 -180 77 -210 L 77 -525 Q 77 -555 82.5 -584 Q 88 -613 101.5 -639.5 Q 115 -666 136.5 -686.5 Q 158 -707 185 -720 Q 212 -733 241 -738 Q 270 -743 300 -743 Q 330 -743 359 -738 Q 388 -733 415 -720 Q 442 -707 463.5 -686.5 Q 485 -666 498.5 -639.5 Q 512 -613 517.5 -584 Q 523 -555 523 -525 L 523 -210 Q 523 -180 517.5 -151 Q 512 -122 498.5 -95.5 Q 485 -69 463.5 -48.5 Q 442 -28 415 -15 Q 388 -2 359 3 Q 330 8 300 8 Z M 173 -332 L 427 -500 L 427 -525 Q 427 -543 424 -560 Q 421 -577 414 -593 Q 407 -609 395 -622 Q 383 -635 367.5 -643.5 Q 352 -652 335 -655.5 Q 318 -659 300 -659 Q 282 -659 265 -655.5 Q 248 -652 232.5 -643.5 Q 217 -635 205 -622 Q 193 -609 186 -593 Q 179 -577 176 -560 Q 173 -543 173 -525 Z M 300 -76 Q 318 -76 335 -79.5 Q 352 -83 367.5 -91.5 Q 383 -100 395 -113 Q 407 -126 414 -142 Q 421 -158 424 -175 Q 427 -192 427 -210 L 427 -403 L 173 -235 L 173 -210 Q 173 -192 176 -175 Q 179 -158 186 -142 Q 193 -126 205 -113 Q 217 -100 232.5 -91.5 Q 248 -83 265 -79.5 Q 282 -76 300 -76 Z " id="path7"/>
<path d="M 300 8 Q 283 8 266 3 Q 249 -2 237 -14.5 Q 225 -27 219.5 -44 Q 214 -61 214 -78 Q 214 -95 219.5 -112 Q 225 -129 237 -141 Q 249 -153 266 -158 Q 283 -163 300 -163 Q 317 -163 334 -158 Q 351 -153 363 -141 Q 375 -129 380.5 -112 Q 386 -95 386 -78 Q 386 -61 380.5 -44 Q 375 -27 363 -14.5 Q 351 -2 334 3 Q 317 8 300 8 Z " id="path8"/>
</defs>
<g>
<g data-source-text="Release " fill="#dee4e3" transform="translate(16 23.528) rotate(0) scale(0.016)">
<use href="#path1" transform="translate(0 0)"/>
<use href="#path2" transform="translate(600 0)"/>
<use href="#path3" transform="translate(1200 0)"/>
<use href="#path2" transform="translate(1800 0)"/>
<use href="#path4" transform="translate(2400 0)"/>
<use href="#path5" transform="translate(3000 0)"/>
<use href="#path2" transform="translate(3600 0)"/>
</g>
<g data-source-text="30.3.3" fill="#03aee9" transform="translate(92.799995 23.528) rotate(0) scale(0.016)">
<use href="#path6" transform="translate(0 0)"/>
<use href="#path7" transform="translate(600 0)"/>
<use href="#path8" transform="translate(1200 0)"/>
<use href="#path6" transform="translate(1800 0)"/>
<use href="#path8" transform="translate(2400 0)"/>
<use href="#path6" transform="translate(3000 0)"/>
</g>
</g>
</svg>