<svg xmlns="http://www.w3.org/2000/svg" height="40" viewBox="0 0 166.4 40" width="166.4"><defs><path d="" id="path6"/><path d="M 247 8 Q 226 8 204.5 5 Q 183 2 163 -6 Q 143 -14 126 -28 Q 109 -42 98 -60 Q 87 -78 82 -99 Q 77 -120 77 -142 Q 77 -170 86 -197 Q 95 -224 114 -244.5 Q 133 -265 158.5 -278 Q 184 -291 211 -298.5 Q 238 -306 265.5 -308.5 Q 293 -311 321 -311 L 419 -311 L 419 -348 Q 419 -370 409.5 -390.5 Q 400 -411 382 -423 Q 364 -435 342 -439.5 Q 320 -444 298 -444 Q 278 -444 258 -440.5 Q 238 -437 220 -427 Q 202 -417 190.5 -399.5 Q 179 -382 179 -362 L 83 -362 Q 83 -387 91.5 -412 Q 100 -437 115.5 -457 Q 131 -477 152.5 -491 Q 174 -505 198 -513.5 Q 222 -522 247.5 -525 Q 273 -528 298 -528 Q 325 -528 351.5 -524.5 Q 378 -521 403 -512 Q 428 -503 450 -487 Q 472 -471 487 -449 Q 502 -427 508.5 -401 Q 515 -375 515 -348 L 515 0 L 419 0 L 419 -87 Q 407 -63 389 -44.5 Q 371 -26 347.5 -14 Q 324 -2 298.5 3 Q 273 8 247 8 Z M 284 -76 Q 309 -76 333.5 -81.5 Q 358 -87 378 -102 Q 398 -117 408.5 -140.5 Q 419 -164 419 -189 L 419 -228 L 321 -228 Q 306 -228 290.5 -227 Q 275 -226 260 -223 Q 245 -220 230 -215.5 Q 215 -211 202 -203 Q 189 -195 181 -181 Q 173 -167 173 -152 Q 173 -133 183.5 -116.5 Q 194 -100 210.5 -91 Q 227 -82 246 -79 Q 265 -76 284 -76 Z " id="path4"/><path d="M 282 0 L 282 -626 L 163 -535 L 106 -601 L 282 -735 L 378 -735 L 378 0 Z " id="path7"/><path d="M 298 8 Q 273 8 248 5 Q 223 2 199.5 -5.5 Q 176 -13 154.5 -26.5 Q 133 -40 117 -59 Q 101 -78 92 -102 Q 83 -126 83 -151 Q 83 -151 83 -151.5 Q 83 -152 83 -152 L 179 -152 Q 179 -132 191.5 -115.5 Q 204 -99 221.5 -90.5 Q 239 -82 259 -79 Q 279 -76 298 -76 Q 311 -76 324 -77 Q 337 -78 349.5 -81 Q 362 -84 374 -88.5 Q 386 -93 396 -101.5 Q 406 -110 412.5 -121.5 Q 419 -133 419 -146 Q 419 -161 409 -174.5 Q 399 -188 385 -194.5 Q 371 -201 355.5 -203 Q 340 -205 324.5 -207.5 Q 309 -210 293.5 -213 Q 278 -216 263 -219.5 Q 248 -223 233 -227 Q 218 -231 203 -236.5 Q 188 -242 174.5 -249.5 Q 161 -257 148.5 -266.5 Q 136 -276 125.5 -288 Q 115 -300 108 -313.5 Q 101 -327 97 -342.5 Q 93 -358 93 -374 Q 93 -398 101.5 -421 Q 110 -444 125.5 -463 Q 141 -482 162 -495 Q 183 -508 206 -515.5 Q 229 -523 253 -525.5 Q 277 -528 302 -528 Q 326 -528 350 -525 Q 374 -522 397.5 -514.5 Q 421 -507 441.5 -493.5 Q 462 -480 477.5 -461 Q 493 -442 501 -418.5 Q 509 -395 509 -371 Q 509 -371 509 -371 Q 509 -371 509 -370 Q 509 -370 509 -370 Q 509 -370 509 -370 L 413 -370 Q 413 -389 401.5 -405 Q 390 -421 373.5 -429.5 Q 357 -438 338.5 -441 Q 320 -444 302 -444 Q 289 -444 277 -443 Q 265 -442 253 -439 Q 241 -436 229.5 -431 Q 218 -426 209 -417.5 Q 200 -409 194.5 -398 Q 189 -387 189 -375 Q 189 -359 198.5 -346 Q 208 -333 222.5 -326.5 Q 237 -320 252.5 -317.5 Q 268 -315 283.5 -312.5 Q 299 -310 314 -307 Q 329 -304 344.5 -300.5 Q 360 -297 375 -293 Q 390 -289 404.5 -283.5 Q 419 -278 433 -270.5 Q 447 -263 459.5 -253.5 Q 472 -244 482.5 -232.5 Q 493 -221 500 -207 Q 507 -193 511 -177.5 Q 515 -162 515 -147 Q 515 -122 506 -98.5 Q 497 -75 480.5 -56 Q 464 -37 442 -24.5 Q 420 -12 396.5 -4.5 Q 373 3 348 5.5 Q 323 8 298 8 Z " id="path5"/><path d="M 300 8 Q 268 8 236 1 Q 204 -6 177 -23.5 Q 150 -41 130 -66.5 Q 110 -92 98 -122 Q 86 -152 81.5 -184 Q 77 -216 77 -248 Q 77 -290 85.5 -331 Q 94 -372 109.5 -411 Q 125 -450 145.5 -486 Q 166 -522 188 -558 L 295 -735 L 403 -735 L 269 -514 Q 258 -496 247 -478 Q 236 -460 224 -442 Q 243 -449 263 -451.5 Q 283 -454 302 -454 Q 333 -454 363 -448 Q 393 -442 419.5 -427.5 Q 446 -413 466.5 -390.5 Q 487 -368 500 -341 Q 513 -314 518 -283.5 Q 523 -253 523 -223 Q 523 -193 518 -162.5 Q 513 -132 500 -104.5 Q 487 -77 465.5 -54.5 Q 444 -32 417.5 -17.5 Q 391 -3 360.5 2.5 Q 330 8 300 8 Z M 300 -76 Q 328 -76 354 -86.5 Q 380 -97 397 -119 Q 414 -141 420.5 -168.5 Q 427 -196 427 -223 Q 427 -251 420.5 -278 Q 414 -305 397 -327 Q 380 -349 354 -359.5 Q 328 -370 300 -370 Q 273 -370 246.5 -359.5 Q 220 -349 203 -327.5 Q 186 -306 179.5 -278.5 Q 173 -251 173 -223 Q 173 -196 179.5 -168.5 Q 186 -141 203 -119 Q 220 -97 246 -86.5 Q 272 -76 300 -76 Z " id="path10"/><path d="M 300 8 Q 283 8 266 3 Q 249 -2 237 -14.5 Q 225 -27 219.5 -43.5 Q 214 -60 214 -78 Q 214 -95 219.5 -112 Q 225 -129 237 -141 Q 249 -153 266 -158 Q 283 -163 300 -163 Q 317 -163 334 -158 Q 351 -153 363 -141 Q 375 -129 380.5 -112 Q 386 -95 386 -78 Q 386 -60 380.5 -43.5 Q 375 -27 363 -14.5 Q 351 -2 334 3 Q 317 8 300 8 Z " id="path9"/><path d="M 302 8 Q 274 8 246.5 4 Q 219 0 193 -10.5 Q 167 -21 144.5 -38 Q 122 -55 106.5 -78.5 Q 91 -102 83 -129.5 Q 75 -157 75 -185 L 171 -185 Q 171 -161 181.5 -138.5 Q 192 -116 211.5 -101.5 Q 231 -87 254.5 -81.5 Q 278 -76 302 -76 Q 328 -76 353.5 -83 Q 379 -90 397.5 -107.5 Q 416 -125 425.5 -150 Q 435 -175 435 -201 Q 435 -222 429 -242 Q 423 -262 410.5 -279 Q 398 -296 380.5 -308 Q 363 -320 343 -326.5 Q 323 -333 302.5 -334.5 Q 282 -336 261 -336 L 261 -420 Q 280 -420 299 -421.5 Q 318 -423 336 -429 Q 354 -435 370 -446.5 Q 386 -458 397 -473.5 Q 408 -489 413.5 -508 Q 419 -527 419 -546 Q 419 -569 411 -591 Q 403 -613 387 -629 Q 371 -645 348.5 -652 Q 326 -659 303 -659 Q 281 -659 259.5 -653.5 Q 238 -648 221 -634 Q 204 -620 195.5 -599 Q 187 -578 187 -556 Q 187 -556 187 -555.5 Q 187 -555 187 -555 L 91 -555 Q 91 -556 91 -556.5 Q 91 -557 91 -557 Q 91 -584 98 -609.5 Q 105 -635 119 -657.5 Q 133 -680 154 -697 Q 175 -714 199 -724.5 Q 223 -735 249.5 -739 Q 276 -743 303 -743 Q 330 -743 357 -738.5 Q 384 -734 408.5 -723 Q 433 -712 453.5 -693.5 Q 474 -675 487.5 -651 Q 501 -627 508 -600.5 Q 515 -574 515 -547 Q 515 -521 507.5 -495 Q 500 -469 486 -447 Q 472 -425 451.5 -408 Q 431 -391 407 -380 Q 434 -369 457.5 -351 Q 481 -333 497.5 -309 Q 514 -285 522.5 -257 Q 531 -229 531 -199 Q 531 -170 523.5 -142 Q 516 -114 501 -89 Q 486 -64 464 -44.5 Q 442 -25 415.5 -13 Q 389 -1 360 3.5 Q 331 8 302 8 Z " id="path11"/><path d="M 302 8 Q 276 8 250 4 Q 224 -0 200 -10 Q 176 -20 155.5 -36 Q 135 -52 120 -73.5 Q 105 -95 96.5 -119.5 Q 88 -144 85 -170 L 84 -176 L 180 -176 L 182 -167 Q 186 -146 196.5 -128 Q 207 -110 223.5 -98 Q 240 -86 260.5 -81 Q 281 -76 302 -76 Q 321 -76 339.5 -81 Q 358 -86 373.5 -97.5 Q 389 -109 399.5 -125.5 Q 410 -142 416 -160 Q 422 -178 424.5 -197 Q 427 -216 427 -235 Q 427 -254 425 -273 Q 423 -292 417 -310 Q 411 -328 401 -344.5 Q 391 -361 376 -372.5 Q 361 -384 342.5 -389 Q 324 -394 305 -394 Q 284 -394 263.5 -389.5 Q 243 -385 226.5 -372 Q 210 -359 200.5 -340 Q 191 -321 190 -300 L 94 -300 L 94 -735 L 493 -735 L 493 -651 L 190 -651 L 190 -454 Q 216 -468 245.5 -473 Q 275 -478 305 -478 Q 336 -478 366.5 -471.5 Q 397 -465 423.5 -449 Q 450 -433 470 -409 Q 490 -385 502 -356.5 Q 514 -328 518.5 -297 Q 523 -266 523 -235 Q 523 -204 518 -173 Q 513 -142 501 -113.5 Q 489 -85 468.5 -60.5 Q 448 -36 421 -20.5 Q 394 -5 363.5 1.5 Q 333 8 302 8 Z " id="path8"/><path d="M 303 8 Q 273 8 243.5 3 Q 214 -2 187 -14.5 Q 160 -27 138 -48 Q 116 -69 102 -95 Q 88 -121 82.5 -150.5 Q 77 -180 77 -210 L 77 -310 Q 77 -340 82.5 -369 Q 88 -398 101.5 -424.5 Q 115 -451 136.5 -471.5 Q 158 -492 185 -505 Q 212 -518 241 -523 Q 270 -528 300 -528 Q 330 -528 359 -523 Q 388 -518 415 -505 Q 442 -492 463.5 -471.5 Q 485 -451 498.5 -424.5 Q 512 -398 517.5 -369 Q 523 -340 523 -310 L 523 -218 L 173 -218 L 173 -210 Q 173 -192 176 -174.5 Q 179 -157 186.5 -141 Q 194 -125 206.5 -112 Q 219 -99 234.5 -90.5 Q 250 -82 267.5 -79 Q 285 -76 303 -76 Q 322 -76 341.5 -79 Q 361 -82 379 -90 Q 397 -98 410 -114 Q 423 -130 425 -149 L 521 -149 Q 519 -124 509.5 -100.5 Q 500 -77 483.5 -58.5 Q 467 -40 446 -26.5 Q 425 -13 401 -5.5 Q 377 2 352 5 Q 327 8 303 8 Z M 427 -302 L 427 -310 Q 427 -328 424 -345 Q 421 -362 414 -378 Q 407 -394 395 -407 Q 383 -420 367.5 -428.5 Q 352 -437 335 -440.5 Q 318 -444 300 -444 Q 282 -444 265 -440.5 Q 248 -437 232.5 -428.5 Q 217 -420 205 -407 Q 193 -394 186 -378 Q 179 -362 176 -345 Q 173 -328 173 -310 L 173 -302 Z " id="path2"/><path d="M 85 0 L 85 -735 L 319 -735 Q 347 -735 375.5 -729.5 Q 404 -724 428.5 -710 Q 453 -696 472 -674 Q 491 -652 502.5 -626 Q 514 -600 518.5 -571.5 Q 523 -543 523 -515 Q 523 -479 515.5 -443.5 Q 508 -408 488.5 -378 Q 469 -348 438.5 -327.5 Q 408 -307 373 -299 L 542 0 L 439 0 L 272 -295 L 181 -295 L 181 0 Z M 181 -379 L 319 -379 Q 335 -379 351.5 -383.5 Q 368 -388 381 -397.5 Q 394 -407 403 -421 Q 412 -435 417.5 -450.5 Q 423 -466 425 -482.5 Q 427 -499 427 -515 Q 427 -531 425 -547.5 Q 423 -564 417.5 -579.5 Q 412 -595 403 -609 Q 394 -623 381 -632.5 Q 368 -642 351.5 -646.5 Q 335 -651 319 -651 L 181 -651 Z " id="path1"/><path d="M 99 0 L 99 -84 L 260 -84 L 260 -651 L 115 -651 L 115 -735 L 356 -735 L 356 -84 L 501 -84 L 501 0 Z " id="path3"/></defs><g><g fill="#20242e" transform="translate(16 23.5664) rotate(0)"><use href="#path1" transform="translate(0 0) scale(0.016)"/><use href="#path2" transform="translate(9.6 0) scale(0.016)"/><use href="#path3" transform="translate(19.2 0) scale(0.016)"/><use href="#path2" transform="translate(28.800001 0) scale(0.016)"/><use href="#path4" transform="translate(38.4 0) scale(0.016)"/><use href="#path5" transform="translate(48 0) scale(0.016)"/><use href="#path2" transform="translate(57.6 0) scale(0.016)"/><use href="#path6" transform="translate(67.2 0) scale(0.016)"/></g><g fill="#048fbf" transform="translate(92.799995 23.5664) rotate(0)"><use href="#path7" transform="translate(0 0) scale(0.016)"/><use href="#path8" transform="translate(9.6 0) scale(0.016)"/><use href="#path9" transform="translate(19.2 0) scale(0.016)"/><use href="#path10" transform="translate(28.800001 0) scale(0.016)"/><use href="#path9" transform="translate(38.4 0) scale(0.016)"/><use href="#path11" transform="translate(48 0) scale(0.016)"/></g></g></svg>