<?xml version="1.0" encoding="UTF-8" standalone="no"?>
<svg height="40" viewBox="0 0 118.4 40" width="118.4" xmlns="http://www.w3.org/2000/svg">
<defs>
<path d="M 297 8 Q 268 8 239 3 Q 210 -2 184 -14.5 Q 158 -27 136.5 -47.5 Q 115 -68 101.5 -93.5 Q 88 -119 82.5 -148 Q 77 -177 77 -206 L 77 -529 Q 77 -558 82.5 -587 Q 88 -616 101.5 -641.5 Q 115 -667 136.5 -687.5 Q 158 -708 184 -720.5 Q 210 -733 239 -738 Q 268 -743 297 -743 Q 324 -743 351 -739 Q 378 -735 403 -725 Q 428 -715 450 -698 Q 472 -681 487 -658.5 Q 502 -636 509.5 -609.5 Q 517 -583 517 -556 L 517 -551 L 421 -551 L 421 -554 Q 421 -577 411 -598.5 Q 401 -620 383 -634 Q 365 -648 342.5 -653.5 Q 320 -659 297 -659 Q 280 -659 263 -656 Q 246 -653 231 -644.5 Q 216 -636 204.5 -623.5 Q 193 -611 186 -595.5 Q 179 -580 176 -563 Q 173 -546 173 -529 L 173 -206 Q 173 -189 176 -172 Q 179 -155 186 -139.5 Q 193 -124 204.5 -111.5 Q 216 -99 231 -90.5 Q 246 -82 263 -79 Q 280 -76 297 -76 Q 320 -76 342.5 -81.5 Q 365 -87 383 -101 Q 401 -115 411 -136.5 Q 421 -158 421 -181 L 421 -184 L 517 -184 L 517 -179 Q 517 -152 509.5 -125.5 Q 502 -99 487 -76.5 Q 472 -54 450 -37 Q 428 -20 403 -10 Q 378 -0 351 4 Q 324 8 297 8 Z " id="path1"/>
<path d="M 263 8 Q 236 8 210 1.5 Q 184 -5 162.5 -20.5 Q 141 -36 125.5 -58.5 Q 110 -81 101 -106 Q 92 -131 88.5 -157 Q 85 -183 85 -210 L 85 -520 L 181 -520 L 181 -210 Q 181 -193 183.5 -176 Q 186 -159 192.5 -143.5 Q 199 -128 209.5 -114.5 Q 220 -101 234.5 -92 Q 249 -83 266 -79.5 Q 283 -76 300 -76 Q 317 -76 334 -79.5 Q 351 -83 365.5 -92 Q 380 -101 390.5 -114.5 Q 401 -128 407.5 -143.5 Q 414 -159 416.5 -176 Q 419 -193 419 -210 L 419 -520 L 515 -520 L 515 0 L 419 0 L 419 -92 Q 409 -70 393.5 -50 Q 378 -30 357 -16.5 Q 336 -3 311.5 2.5 Q 287 8 263 8 Z " id="path2"/>
<path d="M 299 8 Q 275 8 251 6 Q 227 4 204 -2.5 Q 181 -9 159 -20 Q 137 -31 120 -47.5 Q 103 -64 93 -86.5 Q 83 -109 83 -133 L 83 -139 L 179 -139 L 179 -137 Q 179 -125 186 -114 Q 193 -103 203.5 -96.5 Q 214 -90 226 -86 Q 238 -82 250 -79.5 Q 262 -77 274.5 -76.5 Q 287 -76 299 -76 Q 311 -76 323.5 -77 Q 336 -78 348.5 -80 Q 361 -82 373 -86 Q 385 -90 395 -97 Q 405 -104 412 -115 Q 419 -126 419 -138 Q 419 -154 409 -167 Q 399 -180 385 -187.5 Q 371 -195 355.5 -199 Q 340 -203 325 -206.5 Q 310 -210 294.5 -214 Q 279 -218 264 -222.5 Q 249 -227 234 -232 Q 219 -237 204.5 -243.5 Q 190 -250 176.5 -257.5 Q 163 -265 150.5 -275 Q 138 -285 127.5 -296.5 Q 117 -308 109 -322 Q 101 -336 97 -351 Q 93 -366 93 -382 Q 93 -406 102 -428.5 Q 111 -451 127 -468.5 Q 143 -486 164 -498 Q 185 -510 207.5 -516.5 Q 230 -523 253.5 -525.5 Q 277 -528 301 -528 Q 324 -528 347.5 -525.5 Q 371 -523 393.5 -517 Q 416 -511 437 -499.5 Q 458 -488 474.5 -471.5 Q 491 -455 500 -432.5 Q 509 -410 509 -387 L 509 -381 L 413 -381 L 413 -383 Q 413 -395 407 -405.5 Q 401 -416 391.5 -423 Q 382 -430 370.5 -434 Q 359 -438 347.5 -440 Q 336 -442 324.5 -443 Q 313 -444 301 -444 Q 289 -444 277.5 -443 Q 266 -442 254 -440 Q 242 -438 231 -433.5 Q 220 -429 210.5 -422 Q 201 -415 195 -404.5 Q 189 -394 189 -382 Q 189 -366 199 -353 Q 209 -340 223 -333 Q 237 -326 252.5 -322 Q 268 -318 283 -314 Q 298 -310 313.5 -306 Q 329 -302 344 -297.5 Q 359 -293 374 -288 Q 389 -283 403 -276.5 Q 417 -270 431 -262.5 Q 445 -255 457.5 -245.5 Q 470 -236 480.5 -224 Q 491 -212 498.5 -198.5 Q 506 -185 510.5 -169.5 Q 515 -154 515 -138 Q 515 -114 505.5 -91 Q 496 -68 479 -50.5 Q 462 -33 440.5 -21.5 Q 419 -10 395.5 -3.5 Q 372 3 347.5 5.5 Q 323 8 299 8 Z " id="path3"/>
<path d="M 377 8 Q 351 8 325 1.5 Q 299 -5 278 -20 Q 257 -35 242 -57 Q 227 -79 218 -103.5 Q 209 -128 206 -154 Q 203 -180 203 -206 L 203 -436 L 93 -436 L 93 -520 L 203 -520 L 203 -735 L 298 -735 L 298 -520 L 496 -520 L 496 -436 L 298 -436 L 298 -206 Q 298 -192 299 -178 Q 300 -164 303.5 -150 Q 307 -136 312.5 -123 Q 318 -110 327 -99 Q 336 -88 349.5 -82 Q 363 -76 377 -76 Q 395 -76 411.5 -85.5 Q 428 -95 437.5 -110.5 Q 447 -126 451 -144.5 Q 455 -163 455 -181 L 455 -184 L 550 -184 L 550 -179 Q 550 -155 545.5 -131 Q 541 -107 531 -85.5 Q 521 -64 505.5 -45 Q 490 -26 469 -14 Q 448 -2 424.5 3 Q 401 8 377 8 Z " id="path4"/>
<path d="M 300 8 Q 270 8 241 3 Q 212 -2 185 -15 Q 158 -28 136.5 -48.5 Q 115 -69 101.5 -95.5 Q 88 -122 82.5 -151 Q 77 -180 77 -210 L 77 -310 Q 77 -340 82.5 -369 Q 88 -398 101.5 -424.5 Q 115 -451 136.5 -471.5 Q 158 -492 185 -505 Q 212 -518 241 -523 Q 270 -528 300 -528 Q 330 -528 359 -523 Q 388 -518 415 -505 Q 442 -492 463.5 -471.5 Q 485 -451 498.5 -424.5 Q 512 -398 517.5 -369 Q 523 -340 523 -310 L 523 -210 Q 523 -180 517.5 -151 Q 512 -122 498.5 -95.5 Q 485 -69 463.5 -48.5 Q 442 -28 415 -15 Q 388 -2 359 3 Q 330 8 300 8 Z M 300 -76 Q 318 -76 335 -79.5 Q 352 -83 367.5 -91.5 Q 383 -100 395 -113 Q 407 -126 414 -142 Q 421 -158 424 -175 Q 427 -192 427 -210 L 427 -310 Q 427 -328 424 -345 Q 421 -362 414 -378 Q 407 -394 395 -407 Q 383 -420 367.5 -428.5 Q 352 -437 335 -440.5 Q 318 -444 300 -444 Q 282 -444 265 -440.5 Q 248 -437 232.5 -428.5 Q 217 -420 205 -407 Q 193 -394 186 -378 Q 179 -362 176 -345 Q 173 -328 173 -310 L 173 -210 Q 173 -192 176 -175 Q 179 -158 186 -142 Q 193 -126 205 -113 Q 217 -100 232.5 -91.5 Q 248 -83 265 -79.5 Q 282 -76 300 -76 Z " id="path5"/>
<path d="M 58 0 L 58 -520 L 154 -520 L 154 -475 Q 160 -487 169 -497 Q 178 -507 189 -514.5 Q 200 -522 213.5 -525 Q 227 -528 241 -528 Q 257 -528 273.5 -523 Q 290 -518 303 -507.5 Q 316 -497 325 -482.5 Q 334 -468 339 -452 Q 344 -468 352.5 -482.5 Q 361 -497 373.5 -507.5 Q 386 -518 402 -523 Q 418 -528 435 -528 Q 452 -528 468.5 -523 Q 485 -518 498 -507 Q 511 -496 519.5 -481.5 Q 528 -467 533 -450.5 Q 538 -434 540 -417 Q 542 -400 542 -384 L 542 0 L 446 0 L 446 -384 Q 446 -395 444 -406 Q 442 -417 435.5 -426 Q 429 -435 418.5 -439.5 Q 408 -444 397 -444 Q 386 -444 375.5 -439.5 Q 365 -435 358.5 -426 Q 352 -417 350 -406 Q 348 -395 348 -384 L 348 0 L 252 0 L 252 -384 Q 252 -395 250 -406 Q 248 -417 241.5 -426 Q 235 -435 224.5 -439.5 Q 214 -444 203 -444 Q 192 -444 181.5 -439.5 Q 171 -435 164.5 -426 Q 158 -417 156 -406 Q 154 -395 154 -384 L 154 0 Z " id="path6"/>
<path d="M 99 0 L 99 -84 L 260 -84 L 260 -436 L 115 -436 L 115 -520 L 356 -520 L 356 -84 L 501 -84 L 501 0 Z M 306 -601 Q 292 -601 278.5 -605 Q 265 -609 255 -619 Q 245 -629 241 -642.5 Q 237 -656 237 -670 Q 237 -684 241 -697.5 Q 245 -711 255 -721 Q 265 -731 278.5 -735 Q 292 -739 306 -739 Q 320 -739 333.5 -735 Q 347 -731 357 -721 Q 367 -711 371 -697.5 Q 375 -684 375 -670 Q 375 -656 371 -642.5 Q 367 -629 357 -619 Q 347 -609 333.5 -605 Q 320 -601 306 -601 Z " id="path7"/>
<path d="M 85 0 L 85 -84 L 407 -436 L 85 -436 L 85 -520 L 515 -520 L 515 -436 L 193 -84 L 515 -84 L 515 0 Z " id="path8"/>
<path d="M 300 8 Q 271 8 241.5 3 Q 212 -2 185.5 -15 Q 159 -28 137 -48.5 Q 115 -69 101.5 -95.5 Q 88 -122 82.5 -151 Q 77 -180 77 -210 L 77 -310 Q 77 -340 82.5 -369 Q 88 -398 101.5 -424.5 Q 115 -451 136.5 -471.5 Q 158 -492 185 -505 Q 212 -518 241 -523 Q 270 -528 300 -528 Q 330 -528 359 -523 Q 388 -518 415 -505 Q 442 -492 463.5 -471.5 Q 485 -451 498.5 -424.5 Q 512 -398 517.5 -369 Q 523 -340 523 -310 L 523 -218 L 173 -218 L 173 -210 Q 173 -192 176 -175 Q 179 -158 186 -142 Q 193 -126 205 -112.5 Q 217 -99 232.5 -91 Q 248 -83 265.5 -79.5 Q 283 -76 300 -76 Q 313 -76 326.5 -77 Q 340 -78 353 -81 Q 366 -84 378.5 -89 Q 391 -94 401 -102.5 Q 411 -111 417.5 -123 Q 424 -135 425 -149 L 521 -149 Q 520 -123 510.5 -99.5 Q 501 -76 484.5 -57 Q 468 -38 446 -25 Q 424 -12 400 -4.5 Q 376 3 350.5 5.5 Q 325 8 300 8 Z M 173 -302 L 427 -302 L 427 -310 Q 427 -328 424 -345 Q 421 -362 414 -378 Q 407 -394 395 -407 Q 383 -420 367.5 -428.5 Q 352 -437 335 -440.5 Q 318 -444 300 -444 Q 282 -444 265 -440.5 Q 248 -437 232.5 -428.5 Q 217 -420 205 -407 Q 193 -394 186 -378 Q 179 -362 176 -345 Q 173 -328 173 -310 Z " id="path9"/>
</defs>
<g>
<g data-source-text="Customize" fill="#dee4e3" transform="translate(16.000004 23.528) rotate(0) scale(0.016)">
<use href="#path1" transform="translate(0 0)"/>
<use href="#path2" transform="translate(600 0)"/>
<use href="#path3" transform="translate(1200 0)"/>
<use href="#path4" transform="translate(1800 0)"/>
<use href="#path5" transform="translate(2400 0)"/>
<use href="#path6" transform="translate(3000 0)"/>
<use href="#path7" transform="translate(3600 0)"/>
<use href="#path8" transform="translate(4200 0)"/>
<use href="#path9" transform="translate(4800 0)"/>
</g>
</g>
</svg>