<?xml version="1.0" encoding="UTF-8" standalone="no"?>
<svg height="40" viewBox="0 0 118.4 40" width="118.4" xmlns="http://www.w3.org/2000/svg">
<defs>
<path d="M 298 8 Q 268 8 239 3 Q 210 -2 184 -14.5 Q 158 -27 136.5 -47.5 Q 115 -68 101.5 -93.5 Q 88 -119 82.5 -148 Q 77 -177 77 -206 L 77 -529 Q 77 -558 82.5 -587 Q 88 -616 101.5 -641.5 Q 115 -667 136.5 -687.5 Q 158 -708 184 -720.5 Q 210 -733 239 -738 Q 268 -743 298 -743 Q 325 -743 352 -739 Q 379 -735 404 -724.5 Q 429 -714 450.5 -697 Q 472 -680 487 -657 Q 502 -634 509.5 -607.5 Q 517 -581 517 -554 L 517 -553 L 421 -553 Q 421 -576 411.5 -597.5 Q 402 -619 384 -633.5 Q 366 -648 343 -653.5 Q 320 -659 298 -659 Q 280 -659 263 -656 Q 246 -653 231 -644.5 Q 216 -636 204.5 -623.5 Q 193 -611 186 -595.5 Q 179 -580 176 -563 Q 173 -546 173 -529 L 173 -206 Q 173 -189 176 -172 Q 179 -155 186 -139.5 Q 193 -124 204.5 -111.5 Q 216 -99 231 -90.5 Q 246 -82 263 -79 Q 280 -76 298 -76 Q 320 -76 343 -81.5 Q 366 -87 384 -101.5 Q 402 -116 411.5 -137.5 Q 421 -159 421 -182 L 517 -182 L 517 -181 Q 517 -154 509.5 -127.5 Q 502 -101 487 -78 Q 472 -55 450.5 -38 Q 429 -21 404 -10.5 Q 379 0 352 4 Q 325 8 298 8 Z " id="path1"/>
<path d="M 263 8 Q 236 8 210 1.5 Q 184 -5 162.5 -20.5 Q 141 -36 125.5 -58.5 Q 110 -81 101 -106 Q 92 -131 88.5 -157 Q 85 -183 85 -210 L 85 -520 L 181 -520 L 181 -210 Q 181 -193 183.5 -176 Q 186 -159 192.5 -143.5 Q 199 -128 209.5 -114.5 Q 220 -101 234.5 -92 Q 249 -83 266 -79.5 Q 283 -76 300 -76 Q 317 -76 334 -79.5 Q 351 -83 365.5 -92 Q 380 -101 390.5 -114.5 Q 401 -128 407.5 -143.5 Q 414 -159 416.5 -176 Q 419 -193 419 -210 L 419 -520 L 515 -520 L 515 0 L 419 0 L 419 -92 Q 409 -70 393.5 -50 Q 378 -30 357 -16.5 Q 336 -3 311.5 2.5 Q 287 8 263 8 Z " id="path2"/>
<path d="M 299 8 Q 274 8 249 5.5 Q 224 3 200.5 -4.5 Q 177 -12 155 -25 Q 133 -38 117 -57 Q 101 -76 92 -100 Q 83 -124 83 -149 L 83 -151 L 179 -151 L 179 -150 Q 179 -131 191.5 -114.5 Q 204 -98 222 -90 Q 240 -82 259.5 -79 Q 279 -76 299 -76 Q 311 -76 323.5 -77 Q 336 -78 348.5 -80 Q 361 -82 373 -86.5 Q 385 -91 395.5 -98 Q 406 -105 412.5 -116.5 Q 419 -128 419 -140 Q 419 -152 413.5 -163.5 Q 408 -175 399 -183 Q 390 -191 379 -196.5 Q 368 -202 356.5 -205 Q 345 -208 332.5 -209.5 Q 320 -211 308 -213 Q 283 -215 258.5 -219.5 Q 234 -224 210 -233 Q 186 -242 165 -255.5 Q 144 -269 128 -288.5 Q 112 -308 102.5 -332 Q 93 -356 93 -381 Q 93 -405 102 -427.5 Q 111 -450 126.5 -468 Q 142 -486 163 -497.5 Q 184 -509 207 -516 Q 230 -523 253.5 -525.5 Q 277 -528 301 -528 Q 325 -528 349.5 -525.5 Q 374 -523 397 -515 Q 420 -507 441 -494.5 Q 462 -482 477 -463 Q 492 -444 500.5 -420.5 Q 509 -397 509 -373 L 509 -371 L 413 -371 L 413 -372 Q 413 -390 401.5 -406 Q 390 -422 373.5 -430 Q 357 -438 338.5 -441 Q 320 -444 301 -444 Q 283 -444 265.5 -442 Q 248 -440 231 -433 Q 214 -426 201.5 -412 Q 189 -398 189 -380 Q 189 -362 200.5 -347 Q 212 -332 228.5 -323.5 Q 245 -315 263 -312 Q 281 -309 299 -307 Q 325 -305 349.5 -300.5 Q 374 -296 397.5 -287 Q 421 -278 442.5 -264.5 Q 464 -251 480 -231.5 Q 496 -212 505.5 -188 Q 515 -164 515 -139 Q 515 -115 505.5 -92 Q 496 -69 479 -51 Q 462 -33 440.5 -21.5 Q 419 -10 395.5 -3.5 Q 372 3 347.5 5.5 Q 323 8 299 8 Z " id="path3"/>
<path d="M 377 8 Q 351 8 325 1.5 Q 299 -5 277.5 -20 Q 256 -35 241 -57 Q 226 -79 217.5 -104 Q 209 -129 206 -155 Q 203 -181 203 -207 L 203 -436 L 93 -436 L 93 -520 L 203 -520 L 203 -735 L 298 -735 L 298 -520 L 496 -520 L 496 -436 L 298 -436 L 298 -207 Q 298 -193 299 -179 Q 300 -165 303.5 -151 Q 307 -137 312.5 -123.5 Q 318 -110 327 -99 Q 336 -88 349.5 -82 Q 363 -76 377 -76 Q 395 -76 411.5 -85 Q 428 -94 437.5 -109.5 Q 447 -125 451 -143.5 Q 455 -162 455 -180 L 455 -185 L 550 -185 Q 551 -183 551 -180.5 Q 551 -178 551 -175 Q 551 -151 546 -127.5 Q 541 -104 531.5 -82.5 Q 522 -61 506 -43 Q 490 -25 469 -13 Q 448 -1 424.5 3.5 Q 401 8 377 8 Z " id="path4"/>
<path d="M 300 8 Q 270 8 241 3 Q 212 -2 185 -15 Q 158 -28 136.5 -48.5 Q 115 -69 101.5 -95.5 Q 88 -122 82.5 -151 Q 77 -180 77 -210 L 77 -310 Q 77 -340 82.5 -369 Q 88 -398 101.5 -424.5 Q 115 -451 136.5 -471.5 Q 158 -492 185 -505 Q 212 -518 241 -523 Q 270 -528 300 -528 Q 330 -528 359 -523 Q 388 -518 415 -505 Q 442 -492 463.5 -471.5 Q 485 -451 498.5 -424.5 Q 512 -398 517.5 -369 Q 523 -340 523 -310 L 523 -210 Q 523 -180 517.5 -151 Q 512 -122 498.5 -95.5 Q 485 -69 463.5 -48.5 Q 442 -28 415 -15 Q 388 -2 359 3 Q 330 8 300 8 Z M 300 -76 Q 318 -76 335 -79.5 Q 352 -83 367.5 -91.5 Q 383 -100 395 -113 Q 407 -126 414 -142 Q 421 -158 424 -175 Q 427 -192 427 -210 L 427 -310 Q 427 -328 424 -345 Q 421 -362 414 -378 Q 407 -394 395 -407 Q 383 -420 367.5 -428.5 Q 352 -437 335 -440.5 Q 318 -444 300 -444 Q 282 -444 265 -440.5 Q 248 -437 232.5 -428.5 Q 217 -420 205 -407 Q 193 -394 186 -378 Q 179 -362 176 -345 Q 173 -328 173 -310 L 173 -210 Q 173 -192 176 -175 Q 179 -158 186 -142 Q 193 -126 205 -113 Q 217 -100 232.5 -91.5 Q 248 -83 265 -79.5 Q 282 -76 300 -76 Z " id="path5"/>
<path d="M 58 0 L 58 -520 L 154 -520 L 154 -475 Q 160 -487 169 -497.5 Q 178 -508 189.5 -515 Q 201 -522 214 -525 Q 227 -528 241 -528 Q 257 -528 273.5 -523 Q 290 -518 303 -507.5 Q 316 -497 325 -482.5 Q 334 -468 339 -452 Q 344 -468 352.5 -482.5 Q 361 -497 373.5 -507.5 Q 386 -518 402 -523 Q 418 -528 435 -528 Q 452 -528 468.5 -523 Q 485 -518 498 -507 Q 511 -496 519.5 -481.5 Q 528 -467 533 -450.5 Q 538 -434 540 -417 Q 542 -400 542 -384 L 542 0 L 446 0 L 446 -384 Q 446 -395 444 -406 Q 442 -417 435.5 -426 Q 429 -435 418.5 -439.5 Q 408 -444 397 -444 Q 386 -444 375.5 -439.5 Q 365 -435 358.5 -426 Q 352 -417 350 -406 Q 348 -395 348 -384 L 348 0 L 252 0 L 252 -384 Q 252 -395 250 -406 Q 248 -417 241.5 -426 Q 235 -435 224.5 -439.5 Q 214 -444 203 -444 Q 192 -444 181.5 -439.5 Q 171 -435 164.5 -426 Q 158 -417 156 -406 Q 154 -395 154 -384 L 154 0 Z " id="path6"/>
<path d="M 99 0 L 99 -84 L 260 -84 L 260 -436 L 115 -436 L 115 -520 L 356 -520 L 356 -84 L 501 -84 L 501 0 Z M 308 -601 Q 294 -601 280.5 -605 Q 267 -609 257 -619 Q 247 -629 243 -642.5 Q 239 -656 239 -670 Q 239 -684 243 -697.5 Q 247 -711 257 -721 Q 267 -731 280.5 -735 Q 294 -739 308 -739 Q 322 -739 335.5 -735 Q 349 -731 359 -721 Q 369 -711 373 -697.5 Q 377 -684 377 -670 Q 377 -656 373 -642.5 Q 369 -629 359 -619 Q 349 -609 335.5 -605 Q 322 -601 308 -601 Z " id="path7"/>
<path d="M 85 0 L 85 -84 L 407 -436 L 85 -436 L 85 -520 L 515 -520 L 515 -436 L 193 -84 L 515 -84 L 515 0 Z " id="path8"/>
<path d="M 303 8 Q 273 8 243.5 3 Q 214 -2 187 -14.5 Q 160 -27 138 -48 Q 116 -69 102 -95 Q 88 -121 82.5 -150.5 Q 77 -180 77 -210 L 77 -310 Q 77 -340 82.5 -369 Q 88 -398 101.5 -424.5 Q 115 -451 136.5 -471.5 Q 158 -492 185 -505 Q 212 -518 241 -523 Q 270 -528 300 -528 Q 330 -528 359 -523 Q 388 -518 415 -505 Q 442 -492 463.5 -471.5 Q 485 -451 498.5 -424.5 Q 512 -398 517.5 -369 Q 523 -340 523 -310 L 523 -218 L 173 -218 L 173 -210 Q 173 -192 176 -174.5 Q 179 -157 186.5 -141 Q 194 -125 206.5 -112 Q 219 -99 234.5 -90.5 Q 250 -82 267.5 -79 Q 285 -76 303 -76 Q 322 -76 341.5 -79 Q 361 -82 379 -90 Q 397 -98 410 -114 Q 423 -130 425 -149 L 521 -149 Q 519 -124 509.5 -100.5 Q 500 -77 483.5 -58.5 Q 467 -40 446 -26.5 Q 425 -13 401 -5.5 Q 377 2 352 5 Q 327 8 303 8 Z M 173 -302 L 427 -302 L 427 -310 Q 427 -328 424 -345 Q 421 -362 414 -378 Q 407 -394 395 -407 Q 383 -420 367.5 -428.5 Q 352 -437 335 -440.5 Q 318 -444 300 -444 Q 282 -444 265 -440.5 Q 248 -437 232.5 -428.5 Q 217 -420 205 -407 Q 193 -394 186 -378 Q 179 -362 176 -345 Q 173 -328 173 -310 Z " id="path9"/>
</defs>
<g>
<g data-source-text="Customize" fill="#dee4e3" transform="translate(16.000004 23.528) rotate(0) scale(0.016)">
<use href="#path1" transform="translate(0 0)"/>
<use href="#path2" transform="translate(600 0)"/>
<use href="#path3" transform="translate(1200 0)"/>
<use href="#path4" transform="translate(1800 0)"/>
<use href="#path5" transform="translate(2400 0)"/>
<use href="#path6" transform="translate(3000 0)"/>
<use href="#path7" transform="translate(3600 0)"/>
<use href="#path8" transform="translate(4200 0)"/>
<use href="#path9" transform="translate(4800 0)"/>
</g>
</g>
</svg>