<?xml version="1.0" encoding="UTF-8" standalone="no"?>
<svg xmlns="http://www.w3.org/2000/svg" height="40" viewBox="0 0 166.4 40" width="166.4"><defs><path d="" id="path6"/><path d="M 197 0 L 331 -221 Q 342 -239 353 -257 Q 364 -275 376 -293 Q 357 -286 337 -283.5 Q 317 -281 298 -281 Q 267 -281 237 -287 Q 207 -293 180.5 -307.5 Q 154 -322 133.5 -344.5 Q 113 -367 100 -394 Q 87 -421 82 -451.5 Q 77 -482 77 -512 Q 77 -542 82 -572.5 Q 87 -603 100 -630.5 Q 113 -658 134.5 -680.5 Q 156 -703 182.5 -717.5 Q 209 -732 239.5 -737.5 Q 270 -743 300 -743 Q 332 -743 364 -736 Q 396 -729 423 -711.5 Q 450 -694 470 -668.5 Q 490 -643 502 -613 Q 514 -583 518.5 -551 Q 523 -519 523 -487 Q 523 -445 514.5 -404 Q 506 -363 490.5 -324 Q 475 -285 454.5 -249 Q 434 -213 412 -177 L 305 0 Z M 300 -365 Q 327 -365 353.5 -375.5 Q 380 -386 397 -407.5 Q 414 -429 420.5 -456.5 Q 427 -484 427 -512 Q 427 -539 420.5 -566.5 Q 414 -594 397 -616 Q 380 -638 354 -648.5 Q 328 -659 300 -659 Q 272 -659 246 -648.5 Q 220 -638 203 -616 Q 186 -594 179.5 -566.5 Q 173 -539 173 -512 Q 173 -484 179.5 -457 Q 186 -430 203 -408 Q 220 -386 246 -375.5 Q 272 -365 300 -365 Z " id="path8"/><path d="M 247 8 Q 226 8 204.5 5 Q 183 2 163 -6 Q 143 -14 126 -28 Q 109 -42 98 -60 Q 87 -78 82 -99 Q 77 -120 77 -142 Q 77 -170 86 -197 Q 95 -224 114 -244.5 Q 133 -265 158.5 -278 Q 184 -291 211 -298.5 Q 238 -306 265.5 -308.5 Q 293 -311 321 -311 L 419 -311 L 419 -348 Q 419 -370 409.5 -390.5 Q 400 -411 382 -423 Q 364 -435 342 -439.5 Q 320 -444 298 -444 Q 278 -444 258 -440.5 Q 238 -437 220 -427 Q 202 -417 190.5 -399.5 Q 179 -382 179 -362 L 83 -362 Q 83 -387 91.5 -412 Q 100 -437 115.5 -457 Q 131 -477 152.5 -491 Q 174 -505 198 -513.5 Q 222 -522 247.5 -525 Q 273 -528 298 -528 Q 325 -528 351.5 -524.5 Q 378 -521 403 -512 Q 428 -503 450 -487 Q 472 -471 487 -449 Q 502 -427 508.5 -401 Q 515 -375 515 -348 L 515 0 L 419 0 L 419 -87 Q 407 -63 389 -44.5 Q 371 -26 347.5 -14 Q 324 -2 298.5 3 Q 273 8 247 8 Z M 284 -76 Q 309 -76 333.5 -81.5 Q 358 -87 378 -102 Q 398 -117 408.5 -140.5 Q 419 -164 419 -189 L 419 -228 L 321 -228 Q 306 -228 290.5 -227 Q 275 -226 260 -223 Q 245 -220 230 -215.5 Q 215 -211 202 -203 Q 189 -195 181 -181 Q 173 -167 173 -152 Q 173 -133 183.5 -116.5 Q 194 -100 210.5 -91 Q 227 -82 246 -79 Q 265 -76 284 -76 Z " id="path4"/><path d="M 282 0 L 282 -626 L 163 -535 L 106 -601 L 282 -735 L 378 -735 L 378 0 Z " id="path7"/><path d="M 299 8 Q 274 8 249 5.5 Q 224 3 200.5 -4.5 Q 177 -12 155 -25 Q 133 -38 117 -56.5 Q 101 -75 92 -99 Q 83 -123 83 -148 Q 83 -149 83 -149.5 Q 83 -150 83 -151 L 179 -151 Q 179 -150 179 -150 Q 179 -150 179 -150 Q 179 -137 185 -125 Q 191 -113 200.5 -104 Q 210 -95 222 -89.5 Q 234 -84 247 -81 Q 260 -78 273 -77 Q 286 -76 299 -76 Q 311 -76 323.5 -76.5 Q 336 -77 348 -79.5 Q 360 -82 372 -86 Q 384 -90 394.5 -96.5 Q 405 -103 412 -114 Q 419 -125 419 -137 Q 419 -153 409.5 -167 Q 400 -181 386.5 -189.5 Q 373 -198 357.5 -202.5 Q 342 -207 326 -209.5 Q 310 -212 294 -214 Q 278 -216 262.5 -219.5 Q 247 -223 231.5 -227.5 Q 216 -232 201.5 -238.5 Q 187 -245 173.5 -253.5 Q 160 -262 147.5 -272.5 Q 135 -283 125 -295.5 Q 115 -308 108 -322.5 Q 101 -337 97 -352.5 Q 93 -368 93 -384 Q 93 -408 102 -430.5 Q 111 -453 127 -470 Q 143 -487 164 -498.5 Q 185 -510 207.5 -516.5 Q 230 -523 254 -525.5 Q 278 -528 301 -528 Q 325 -528 349.5 -525.5 Q 374 -523 397 -515.5 Q 420 -508 440.5 -495 Q 461 -482 476.5 -463.5 Q 492 -445 500.5 -421.5 Q 509 -398 509 -374 Q 509 -374 509 -373 Q 509 -372 509 -372 L 413 -372 Q 413 -372 413 -372 Q 413 -372 413 -372 Q 413 -391 401.5 -406.5 Q 390 -422 373.5 -430.5 Q 357 -439 338.5 -441.5 Q 320 -444 301 -444 Q 289 -444 277.5 -443 Q 266 -442 254.5 -440 Q 243 -438 231.5 -434 Q 220 -430 210.5 -423 Q 201 -416 195 -405.5 Q 189 -395 189 -383 Q 189 -367 198.5 -353.5 Q 208 -340 221.5 -331 Q 235 -322 250.5 -317.5 Q 266 -313 281.5 -310.5 Q 297 -308 313 -306 Q 329 -304 344.5 -300.5 Q 360 -297 375.5 -292.5 Q 391 -288 405.5 -281.5 Q 420 -275 434 -266.5 Q 448 -258 460 -247.5 Q 472 -237 482 -224.5 Q 492 -212 499.5 -197.5 Q 507 -183 511 -167.5 Q 515 -152 515 -136 Q 515 -112 505.5 -89 Q 496 -66 479 -49 Q 462 -32 440 -20.5 Q 418 -9 394.5 -3 Q 371 3 347 5.5 Q 323 8 299 8 Z " id="path5"/><path d="M 300 8 Q 270 8 241 3 Q 212 -2 185 -15 Q 158 -28 136.5 -48.5 Q 115 -69 101.5 -95.5 Q 88 -122 82.5 -151 Q 77 -180 77 -210 L 77 -525 Q 77 -555 82.5 -584 Q 88 -613 101.5 -639.5 Q 115 -666 136.5 -686.5 Q 158 -707 185 -720 Q 212 -733 241 -738 Q 270 -743 300 -743 Q 330 -743 359 -738 Q 388 -733 415 -720 Q 442 -707 463.5 -686.5 Q 485 -666 498.5 -639.5 Q 512 -613 517.5 -584 Q 523 -555 523 -525 L 523 -210 Q 523 -180 517.5 -151 Q 512 -122 498.5 -95.5 Q 485 -69 463.5 -48.5 Q 442 -28 415 -15 Q 388 -2 359 3 Q 330 8 300 8 Z M 173 -332 L 427 -500 L 427 -525 Q 427 -543 424 -560 Q 421 -577 414 -593 Q 407 -609 395 -622 Q 383 -635 367.5 -643.5 Q 352 -652 335 -655.5 Q 318 -659 300 -659 Q 282 -659 265 -655.5 Q 248 -652 232.5 -643.5 Q 217 -635 205 -622 Q 193 -609 186 -593 Q 179 -577 176 -560 Q 173 -543 173 -525 Z M 300 -76 Q 318 -76 335 -79.5 Q 352 -83 367.5 -91.5 Q 383 -100 395 -113 Q 407 -126 414 -142 Q 421 -158 424 -175 Q 427 -192 427 -210 L 427 -403 L 173 -235 L 173 -210 Q 173 -192 176 -175 Q 179 -158 186 -142 Q 193 -126 205 -113 Q 217 -100 232.5 -91.5 Q 248 -83 265 -79.5 Q 282 -76 300 -76 Z " id="path10"/><path d="M 300 8 Q 283 8 266 3 Q 249 -2 237 -14.5 Q 225 -27 219.5 -43.5 Q 214 -60 214 -78 Q 214 -95 219.5 -112 Q 225 -129 237 -141 Q 249 -153 266 -158 Q 283 -163 300 -163 Q 317 -163 334 -158 Q 351 -153 363 -141 Q 375 -129 380.5 -112 Q 386 -95 386 -78 Q 386 -60 380.5 -43.5 Q 375 -27 363 -14.5 Q 351 -2 334 3 Q 317 8 300 8 Z " id="path9"/><path d="M 303 8 Q 273 8 243.5 3 Q 214 -2 187 -14.5 Q 160 -27 138 -48 Q 116 -69 102 -95 Q 88 -121 82.5 -150.5 Q 77 -180 77 -210 L 77 -310 Q 77 -340 82.5 -369 Q 88 -398 101.5 -424.5 Q 115 -451 136.5 -471.5 Q 158 -492 185 -505 Q 212 -518 241 -523 Q 270 -528 300 -528 Q 330 -528 359 -523 Q 388 -518 415 -505 Q 442 -492 463.5 -471.5 Q 485 -451 498.5 -424.5 Q 512 -398 517.5 -369 Q 523 -340 523 -310 L 523 -218 L 173 -218 L 173 -210 Q 173 -192 176 -174.5 Q 179 -157 186.5 -141 Q 194 -125 206.5 -112 Q 219 -99 234.5 -90.5 Q 250 -82 267.5 -79 Q 285 -76 303 -76 Q 322 -76 341.5 -79 Q 361 -82 379 -90 Q 397 -98 410 -114 Q 423 -130 425 -149 L 521 -149 Q 519 -124 509.5 -100.5 Q 500 -77 483.5 -58.5 Q 467 -40 446 -26.5 Q 425 -13 401 -5.5 Q 377 2 352 5 Q 327 8 303 8 Z M 173 -302 L 427 -302 L 427 -310 Q 427 -328 424 -345 Q 421 -362 414 -378 Q 407 -394 395 -407 Q 383 -420 367.5 -428.5 Q 352 -437 335 -440.5 Q 318 -444 300 -444 Q 282 -444 265 -440.5 Q 248 -437 232.5 -428.5 Q 217 -420 205 -407 Q 193 -394 186 -378 Q 179 -362 176 -345 Q 173 -328 173 -310 Z " id="path2"/><path d="M 85 0 L 85 -735 L 319 -735 Q 347 -735 375.5 -729.5 Q 404 -724 428.5 -710 Q 453 -696 472 -674 Q 491 -652 502.5 -626 Q 514 -600 518.5 -571.5 Q 523 -543 523 -515 Q 523 -479 515.5 -443.5 Q 508 -408 488.5 -378 Q 469 -348 438.5 -327.5 Q 408 -307 373 -299 L 542 0 L 439 0 L 272 -295 L 181 -295 L 181 0 Z M 181 -379 L 319 -379 Q 335 -379 351.5 -383.5 Q 368 -388 381 -397.5 Q 394 -407 403 -421 Q 412 -435 417.5 -450.5 Q 423 -466 425 -482.5 Q 427 -499 427 -515 Q 427 -531 425 -547.5 Q 423 -564 417.5 -579.5 Q 412 -595 403 -609 Q 394 -623 381 -632.5 Q 368 -642 351.5 -646.5 Q 335 -651 319 -651 L 181 -651 Z " id="path1"/><path d="M 99 0 L 99 -84 L 260 -84 L 260 -651 L 115 -651 L 115 -735 L 356 -735 L 356 -84 L 501 -84 L 501 0 Z " id="path3"/></defs><g><g data-source-text="Release " fill="#dee4e3" transform="translate(16 23.528) rotate(0) scale(0.016)"><use href="#path1" transform="translate(0 0)"/><use href="#path2" transform="translate(600 0)"/><use href="#path3" transform="translate(1200 0)"/><use href="#path2" transform="translate(1800 0)"/><use href="#path4" transform="translate(2400 0)"/><use href="#path5" transform="translate(3000 0)"/><use href="#path2" transform="translate(3600 0)"/><use href="#path6" transform="translate(4200 0)"/></g><g data-source-text="19.0.1" fill="#03aee9" transform="translate(92.799995 23.528) rotate(0) scale(0.016)"><use href="#path7" transform="translate(0 0)"/><use href="#path8" transform="translate(600 0)"/><use href="#path9" transform="translate(1200 0)"/><use href="#path10" transform="translate(1800 0)"/><use href="#path9" transform="translate(2400 0)"/><use href="#path7" transform="translate(3000 0)"/></g></g></svg>