<?xml version="1.0" encoding="UTF-8" standalone="no"?>
<svg height="40" viewBox="0 0 166.4 40" width="166.4" xmlns="http://www.w3.org/2000/svg">
<defs>
<path d="M 433 0 L 275 -295 L 181 -295 L 181 0 L 85 0 L 85 -735 L 319 -735 Q 348 -735 376 -729.5 Q 404 -724 428.5 -710 Q 453 -696 472 -674 Q 491 -652 502.5 -626 Q 514 -600 518.5 -571.5 Q 523 -543 523 -515 Q 523 -480 516 -445 Q 509 -410 490 -380 Q 471 -350 441.5 -329 Q 412 -308 378 -300 L 539 0 Z M 181 -379 L 319 -379 Q 336 -379 352 -383 Q 368 -387 381 -397 Q 394 -407 403.5 -421 Q 413 -435 418 -450.5 Q 423 -466 425 -482.5 Q 427 -499 427 -515 Q 427 -531 425 -547.5 Q 423 -564 418 -579.5 Q 413 -595 403.5 -609 Q 394 -623 381 -632.5 Q 368 -642 352 -646.5 Q 336 -651 319 -651 L 181 -651 Z " id="path1"/>
<path d="M 300 8 Q 271 8 241.5 3 Q 212 -2 185 -15 Q 158 -28 136.5 -48.5 Q 115 -69 101.5 -95.5 Q 88 -122 82.5 -151 Q 77 -180 77 -210 L 77 -310 Q 77 -340 82.5 -369 Q 88 -398 101.5 -424.5 Q 115 -451 136.5 -471.5 Q 158 -492 185 -505 Q 212 -518 241 -523 Q 270 -528 300 -528 Q 330 -528 359 -523 Q 388 -518 415 -505 Q 442 -492 463.5 -471.5 Q 485 -451 498.5 -424.5 Q 512 -398 517.5 -369 Q 523 -340 523 -310 L 523 -218 L 173 -218 L 173 -210 Q 173 -192 175.5 -175 Q 178 -158 185.5 -142 Q 193 -126 205 -112.5 Q 217 -99 232.5 -91 Q 248 -83 265.5 -79.5 Q 283 -76 300 -76 Q 314 -76 327 -77 Q 340 -78 353 -81 Q 366 -84 378.5 -89 Q 391 -94 401.5 -102.5 Q 412 -111 418.5 -123 Q 425 -135 425 -149 L 521 -149 Q 520 -123 511 -99 Q 502 -75 485 -56.5 Q 468 -38 446 -25 Q 424 -12 400 -4.5 Q 376 3 350.5 5.5 Q 325 8 300 8 Z M 173 -302 L 427 -302 L 427 -310 Q 427 -328 424.5 -345 Q 422 -362 414.5 -378 Q 407 -394 395 -407.5 Q 383 -421 367.5 -429 Q 352 -437 335 -440.5 Q 318 -444 300 -444 Q 282 -444 265 -440.5 Q 248 -437 232.5 -429 Q 217 -421 205 -407.5 Q 193 -394 185.5 -378 Q 178 -362 175.5 -345 Q 173 -328 173 -310 Z " id="path2"/>
<path d="M 99 0 L 99 -84 L 260 -84 L 260 -651 L 115 -651 L 115 -735 L 356 -735 L 356 -84 L 501 -84 L 501 0 Z " id="path3"/>
<path d="M 258 8 Q 236 8 213.5 5 Q 191 2 170.5 -5.5 Q 150 -13 131.5 -26.5 Q 113 -40 100.5 -58.5 Q 88 -77 82.5 -98.5 Q 77 -120 77 -142 Q 77 -170 86 -197.5 Q 95 -225 114.5 -245 Q 134 -265 159 -278 Q 184 -291 211 -298.5 Q 238 -306 266 -308.5 Q 294 -311 322 -311 L 419 -311 L 419 -348 Q 419 -370 409.5 -390 Q 400 -410 382 -422.5 Q 364 -435 342.5 -439.5 Q 321 -444 299 -444 Q 286 -444 273 -443 Q 260 -442 247.5 -439 Q 235 -436 223 -431 Q 211 -426 201 -417.5 Q 191 -409 185 -397 Q 179 -385 179 -372 L 179 -371 L 83 -371 L 83 -374 Q 83 -399 92 -422.5 Q 101 -446 117.5 -464.5 Q 134 -483 155.5 -495.5 Q 177 -508 201 -515.5 Q 225 -523 249.5 -525.5 Q 274 -528 299 -528 Q 325 -528 352 -524.5 Q 379 -521 403.5 -512 Q 428 -503 450 -487 Q 472 -471 487 -449 Q 502 -427 508.5 -401 Q 515 -375 515 -348 L 515 0 L 419 0 L 419 -84 Q 409 -62 392 -43.5 Q 375 -25 353 -13 Q 331 -1 306.5 3.5 Q 282 8 258 8 Z M 295 -76 Q 319 -76 342.5 -82 Q 366 -88 384.5 -103.5 Q 403 -119 411 -142 Q 419 -165 419 -189 L 419 -228 L 322 -228 Q 306 -228 290.5 -227 Q 275 -226 260 -223 Q 245 -220 230 -215.5 Q 215 -211 202 -203 Q 189 -195 181 -181.5 Q 173 -168 173 -152 Q 173 -132 185.5 -115.5 Q 198 -99 216.5 -90.5 Q 235 -82 255 -79 Q 275 -76 295 -76 Z " id="path4"/>
<path d="M 299 8 Q 275 8 251 6 Q 227 4 203.5 -2.5 Q 180 -9 158.5 -20 Q 137 -31 120 -47.5 Q 103 -64 93 -86.5 Q 83 -109 83 -133 L 83 -139 L 179 -139 L 179 -137 Q 179 -125 186 -114 Q 193 -103 203.5 -96.5 Q 214 -90 225.5 -86 Q 237 -82 249.5 -79.5 Q 262 -77 274.5 -76.5 Q 287 -76 299 -76 Q 311 -76 323.5 -77 Q 336 -78 348.5 -80 Q 361 -82 373 -86 Q 385 -90 395.5 -97 Q 406 -104 413 -115 Q 420 -126 420 -138 Q 420 -154 409.5 -167 Q 399 -180 385 -187.5 Q 371 -195 355.5 -199 Q 340 -203 325 -206.5 Q 310 -210 294.5 -214 Q 279 -218 264 -222.5 Q 249 -227 234 -232 Q 219 -237 204.5 -243.5 Q 190 -250 176.5 -257.5 Q 163 -265 150.5 -275 Q 138 -285 127 -296.5 Q 116 -308 108.5 -322 Q 101 -336 97 -351 Q 93 -366 93 -382 Q 93 -406 102 -428.5 Q 111 -451 126.5 -468.5 Q 142 -486 163 -498 Q 184 -510 207 -516.5 Q 230 -523 253.5 -525.5 Q 277 -528 301 -528 Q 324 -528 347.5 -525.5 Q 371 -523 394 -517 Q 417 -511 437.5 -499.5 Q 458 -488 474.5 -471.5 Q 491 -455 500 -432.5 Q 509 -410 509 -387 L 509 -381 L 413 -381 L 413 -383 Q 413 -395 407 -405.5 Q 401 -416 391.5 -423 Q 382 -430 370.5 -434 Q 359 -438 347.5 -440 Q 336 -442 324.5 -443 Q 313 -444 301 -444 Q 289 -444 277 -443 Q 265 -442 253.5 -440 Q 242 -438 231 -433.5 Q 220 -429 210.5 -422 Q 201 -415 194.5 -404.5 Q 188 -394 188 -382 Q 188 -366 198.5 -353 Q 209 -340 223 -333 Q 237 -326 252 -322 Q 267 -318 282.5 -314 Q 298 -310 313.5 -306 Q 329 -302 344 -298 Q 359 -294 374 -288.5 Q 389 -283 403.5 -276.5 Q 418 -270 431.5 -262.5 Q 445 -255 457.5 -245.5 Q 470 -236 480.5 -224 Q 491 -212 499 -198.5 Q 507 -185 511 -169.5 Q 515 -154 515 -138 Q 515 -114 505.5 -91 Q 496 -68 479 -50.5 Q 462 -33 440.5 -21.5 Q 419 -10 395.5 -3.5 Q 372 3 347.5 5.5 Q 323 8 299 8 Z " id="path5"/>
<path d="M 303 8 Q 275 8 247.5 4.5 Q 220 1 194 -9 Q 168 -19 145.5 -35.5 Q 123 -52 107 -74.5 Q 91 -97 83 -124 Q 75 -151 75 -179 L 75 -184 L 171 -184 L 171 -181 Q 171 -157 182 -135 Q 193 -113 212.5 -99.5 Q 232 -86 255.5 -81 Q 279 -76 303 -76 Q 328 -76 353 -82.5 Q 378 -89 397 -105.5 Q 416 -122 426 -146.5 Q 436 -171 436 -196 Q 436 -218 429 -238.5 Q 422 -259 409.5 -276.5 Q 397 -294 379.5 -306.5 Q 362 -319 341.5 -326 Q 321 -333 299.5 -334.5 Q 278 -336 257 -336 L 257 -420 Q 277 -420 296.5 -421.5 Q 316 -423 334.5 -429.5 Q 353 -436 369 -448 Q 385 -460 396.5 -476 Q 408 -492 414 -511 Q 420 -530 420 -549 Q 420 -572 411.5 -594 Q 403 -616 386.5 -631 Q 370 -646 348 -652.5 Q 326 -659 303 -659 Q 281 -659 259.5 -653.5 Q 238 -648 221 -633.5 Q 204 -619 195.5 -598 Q 187 -577 187 -555 L 187 -551 L 91 -551 L 91 -558 Q 91 -585 98 -611 Q 105 -637 119 -659 Q 133 -681 154 -698 Q 175 -715 199.5 -725 Q 224 -735 250.5 -739 Q 277 -743 303 -743 Q 330 -743 356.5 -739 Q 383 -735 408 -724 Q 433 -713 453.5 -695 Q 474 -677 487.5 -654 Q 501 -631 508 -604.5 Q 515 -578 515 -551 Q 515 -524 507.5 -497.5 Q 500 -471 485.5 -448.5 Q 471 -426 449.5 -408.5 Q 428 -391 403 -380 Q 431 -369 455.5 -350.5 Q 480 -332 497 -307.5 Q 514 -283 522.5 -253.5 Q 531 -224 531 -194 Q 531 -166 523.5 -137.5 Q 516 -109 501 -85 Q 486 -61 463.5 -42 Q 441 -23 415 -12 Q 389 -1 360.5 3.5 Q 332 8 303 8 Z " id="path6"/>
<path d="M 282 0 L 282 -620 L 166 -523 L 106 -587 L 282 -735 L 378 -735 L 378 0 Z " id="path7"/>
<path d="M 300 8 Q 283 8 266 3 Q 249 -2 237 -14.5 Q 225 -27 219.5 -44 Q 214 -61 214 -78 Q 214 -95 219.5 -112 Q 225 -129 237 -141 Q 249 -153 266 -158 Q 283 -163 300 -163 Q 317 -163 334 -158 Q 351 -153 363 -141 Q 375 -129 380.5 -112 Q 386 -95 386 -78 Q 386 -61 380.5 -44 Q 375 -27 363 -14.5 Q 351 -2 334 3 Q 317 8 300 8 Z " id="path8"/>
<path d="M 197 0 L 331 -221 Q 346 -247 361 -273.5 Q 376 -300 387 -328 Q 363 -304 330 -292.5 Q 297 -281 263 -281 Q 235 -281 207 -288 Q 179 -295 156.5 -311.5 Q 134 -328 118 -351.5 Q 102 -375 93 -401.5 Q 84 -428 80.5 -456 Q 77 -484 77 -512 Q 77 -542 82 -572.5 Q 87 -603 100 -630.5 Q 113 -658 134 -680.5 Q 155 -703 182 -717.5 Q 209 -732 239.5 -737.5 Q 270 -743 300 -743 Q 330 -743 360.5 -737.5 Q 391 -732 418 -717.5 Q 445 -703 466 -680.5 Q 487 -658 500 -630.5 Q 513 -603 518 -572.5 Q 523 -542 523 -512 Q 523 -467 515 -423 Q 507 -379 492 -337 Q 477 -295 456 -255 Q 435 -215 412 -177 L 305 0 Z M 300 -365 Q 326 -365 351.5 -374.5 Q 377 -384 394.5 -404 Q 412 -424 419 -450 Q 426 -476 427 -502 L 427 -512 Q 427 -540 420.5 -567 Q 414 -594 397 -616 Q 380 -638 354 -648.5 Q 328 -659 300 -659 Q 272 -659 246 -648.5 Q 220 -638 203 -616 Q 186 -594 179.5 -567 Q 173 -540 173 -512 Q 173 -484 179.5 -456.5 Q 186 -429 203 -407.5 Q 220 -386 246 -375.5 Q 272 -365 300 -365 Z " id="path9"/>
<path d="M 300 8 Q 270 8 241 3 Q 212 -2 185 -15 Q 158 -28 136.5 -48.5 Q 115 -69 101.5 -95.5 Q 88 -122 82.5 -151 Q 77 -180 77 -210 L 77 -525 Q 77 -555 82.5 -584 Q 88 -613 101.5 -639.5 Q 115 -666 136.5 -686.5 Q 158 -707 185 -720 Q 212 -733 241 -738 Q 270 -743 300 -743 Q 330 -743 359 -738 Q 388 -733 415 -720 Q 442 -707 463.5 -686.5 Q 485 -666 498.5 -639.5 Q 512 -613 517.5 -584 Q 523 -555 523 -525 L 523 -210 Q 523 -180 517.5 -151 Q 512 -122 498.5 -95.5 Q 485 -69 463.5 -48.5 Q 442 -28 415 -15 Q 388 -2 359 3 Q 330 8 300 8 Z M 173 -332 L 427 -500 L 427 -525 Q 427 -543 424.5 -560 Q 422 -577 414.5 -593 Q 407 -609 395 -622.5 Q 383 -636 367.5 -644 Q 352 -652 335 -655.5 Q 318 -659 300 -659 Q 282 -659 265 -655.5 Q 248 -652 232.5 -644 Q 217 -636 205 -622.5 Q 193 -609 185.5 -593 Q 178 -577 175.5 -560 Q 173 -543 173 -525 Z M 300 -76 Q 318 -76 335 -79.5 Q 352 -83 367.5 -91 Q 383 -99 395 -112.5 Q 407 -126 414.5 -142 Q 422 -158 424.5 -175 Q 427 -192 427 -210 L 427 -403 L 173 -235 L 173 -210 Q 173 -192 175.5 -175 Q 178 -158 185.5 -142 Q 193 -126 205 -112.5 Q 217 -99 232.5 -91 Q 248 -83 265 -79.5 Q 282 -76 300 -76 Z " id="path10"/>
</defs>
<g>
<g data-source-text="Release " fill="#20242e" transform="translate(16 23.528) rotate(0) scale(0.016)">
<use href="#path1" transform="translate(0 0)"/>
<use href="#path2" transform="translate(600 0)"/>
<use href="#path3" transform="translate(1200 0)"/>
<use href="#path2" transform="translate(1800 0)"/>
<use href="#path4" transform="translate(2400 0)"/>
<use href="#path5" transform="translate(3000 0)"/>
<use href="#path2" transform="translate(3600 0)"/>
</g>
<g data-source-text="31.9.0" fill="#048fbf" transform="translate(92.799995 23.528) rotate(0) scale(0.016)">
<use href="#path6" transform="translate(0 0)"/>
<use href="#path7" transform="translate(600 0)"/>
<use href="#path8" transform="translate(1200 0)"/>
<use href="#path9" transform="translate(1800 0)"/>
<use href="#path8" transform="translate(2400 0)"/>
<use href="#path10" transform="translate(3000 0)"/>
</g>
</g>
</svg>