<svg xmlns="http://www.w3.org/2000/svg" height="40" viewBox="0 0 118.4 40" width="118.4"><defs><path d="M 298 8 C 281.3333 8 264.6667 7 248.00002 5.0000005 C 231.33334 3 215.16667 -0.5000002 199.50002 -5.5000005 C 183.83334 -10.5 168.83334 -17.5 154.5 -26.500002 C 140.16667 -35.5 127.666664 -46.333336 117.00001 -59.000004 C 106.333336 -71.666664 98.00001 -85.99999 92.00001 -102.00001 C 86 -118 83.00001 -134.33334 83.00001 -151.00002 C 83.00001 -151 83.00001 -151.16666 83.00001 -151.5 C 83.00001 -151.83334 83.00001 -152.00002 83.00001 -152.00002 L 179 -152.00002 C 178.99998 -138.66666 183.16667 -126.49999 191.50002 -115.5 C 199.83333 -104.5 209.83333 -96.16667 221.50002 -90.50001 C 233.16667 -84.83333 245.66667 -81 259 -79 C 272.3333 -77.00001 285.33334 -76.00001 298 -76.00001 C 306.6667 -76.00001 315.33334 -76.333336 324 -77.00001 C 332.66666 -77.66667 341.1667 -79 349.50003 -81 C 357.83334 -83.00001 366 -85.5 374 -88.5 C 381.99997 -91.5 389.3333 -95.83333 396.00003 -101.50001 C 402.6667 -107.166664 408.1667 -113.833336 412.50003 -121.50001 C 416.83334 -129.16666 419 -137.33333 419.00003 -146.00002 C 419 -156 415.66666 -165.5 409 -174.5 C 402.33334 -183.49998 394.33337 -190.16667 385.00003 -194.50002 C 375.6667 -198.83333 365.83334 -201.66666 355.5 -203.00002 C 345.1667 -204.33333 334.8333 -205.83334 324.50003 -207.50002 C 314.16666 -209.16667 303.83334 -211.00002 293.5 -213.00002 C 283.1667 -215 273 -217.16666 263 -219.5 C 253.00002 -221.83333 243 -224.33334 233.00002 -227.00002 C 223 -229.66669 213 -232.83334 203.00002 -236.50002 C 192.99998 -240.16667 183.49998 -244.50002 174.5 -249.5 C 165.5 -254.5 156.83333 -260.1667 148.50002 -266.50003 C 140.16667 -272.83334 132.50002 -280 125.50001 -288.00003 C 118.49999 -296 112.666664 -304.5 108 -313.50003 C 103.333336 -322.5 99.66667 -332.1667 97 -342.50003 C 94.333336 -352.83334 93 -363.33334 93 -374 C 93 -390 95.83333 -405.6667 101.50001 -421.00003 C 107.166664 -436.33334 115.166664 -450.33334 125.50001 -463.00003 C 135.83334 -475.6667 148 -486.33334 162 -495.00003 C 176 -503.66663 190.66667 -510.49994 206.00002 -515.5 C 221.33336 -520.49994 237.00002 -523.83325 253.00002 -525.5 C 269 -527.1666 285.33334 -528 302.00003 -528 C 318 -528 334 -526.99994 350.00003 -525.00006 C 366 -523 381.8333 -519.5 397.5 -514.5 C 413.1667 -509.50003 427.83334 -502.5 441.5 -493.50003 C 455.16666 -484.5 467.16666 -473.66666 477.50003 -461.00003 C 487.8333 -448.33334 495.6667 -434.16666 501.00006 -418.5 C 506.33334 -402.83334 509 -387 509 -371.00003 C 509 -371 509 -371 509 -371.00003 C 509 -371 509 -370.6667 509 -370 C 509 -370 509 -370 509 -370 C 509 -370 509 -370 509 -370 L 413.00003 -370 C 413 -382.6667 409.16666 -394.33337 401.50003 -405.00003 C 393.83334 -415.6667 384.5 -423.83337 373.50003 -429.5 C 362.5 -435.16666 350.83334 -439 338.50003 -441 C 326.1667 -443.00003 314 -444 302.00003 -444.00003 C 293.33334 -444 285 -443.6667 277 -443.00003 C 269 -442.33334 261 -441 253.00002 -439 C 245 -437 237.16667 -434.33334 229.50002 -431.00003 C 221.83334 -427.6667 215 -423.1667 209 -417.50003 C 203 -411.83334 198.16667 -405.33334 194.50002 -398.00003 C 190.83334 -390.66666 189.00002 -383.00003 189.00002 -375.00003 C 189.00002 -364.33334 192.16667 -354.6667 198.5 -346.00003 C 204.83333 -337.3333 212.83333 -330.8333 222.50002 -326.50003 C 232.16667 -322.1667 242.16667 -319.1667 252.5 -317.50003 C 262.8333 -315.83337 273.16666 -314.16666 283.50003 -312.5 C 293.83334 -310.83334 304.00003 -309 314 -307 C 324 -305 334.1667 -302.83334 344.5 -300.5 C 354.83334 -298.16666 365 -295.66666 375.00003 -293 C 385 -290.33334 394.8333 -287.16666 404.5 -283.50003 C 414.16666 -279.83334 423.66666 -275.5 433.00003 -270.5 C 442.33334 -265.5 451.1667 -259.83334 459.5 -253.50002 C 467.83334 -247.16666 475.5 -240.16666 482.50003 -232.50002 C 489.5 -224.83334 495.3333 -216.33334 500 -207.00002 C 504.6667 -197.66666 508.3333 -187.83333 511.00003 -177.50002 C 513.6667 -167.16667 515 -157 515.00006 -147 C 515 -130.33333 512 -114.16667 506.00003 -98.50001 C 500 -82.833336 491.5 -68.666664 480.5 -56 C 469.5 -43.333332 456.6667 -32.833332 442.00003 -24.500002 C 427.33334 -16.166666 412.1667 -9.5 396.50003 -4.5000005 C 380.83334 0.49999973 364.6667 3.8333335 348.00003 5.5000005 C 331.33334 7.166667 314.66666 8 298 8 Z " id="path3"/><path d="M 303 8 C 283 8 263.16666 6.3333335 243.50002 3 C 223.83334 -0.33333328 205.00002 -6.166667 187 -14.500001 C 169 -22.833332 152.66667 -34 138.00002 -48 C 123.333336 -62 111.333336 -77.66667 102.00001 -95.00001 C 92.66667 -112.33334 86.16667 -130.83334 82.5 -150.50002 C 78.833336 -170.16667 77.00001 -190 77.00001 -210.00002 L 77.00001 -310 C 77.00001 -329.99997 78.833336 -349.66666 82.5 -369.00003 C 86.16667 -388.3333 92.5 -406.83334 101.50001 -424.50003 C 110.49999 -442.1667 122.166664 -457.83334 136.5 -471.5 C 150.83334 -485.16666 167 -496.3333 185 -505 C 203 -513.6666 221.66666 -519.6667 241.00002 -523 C 260.33334 -526.3333 280 -528 300 -528 C 320 -528 339.66666 -526.3333 359.00003 -523 C 378.33334 -519.6667 397 -513.6666 415.00003 -505 C 433.00003 -496.3333 449.1667 -485.16666 463.50003 -471.5 C 477.83334 -457.83334 489.5 -442.1667 498.50003 -424.50003 C 507.5 -406.83334 513.8334 -388.3333 517.50006 -369.00003 C 521.1667 -349.66666 523 -329.99997 523 -310 L 523 -218.00002 L 173.00002 -218.00002 L 173.00002 -210.00002 C 173.00002 -198 174.00002 -186.16666 176.00002 -174.5 C 178 -162.83333 181.5 -151.66667 186.50002 -141 C 191.50002 -130.33333 198.16667 -120.666664 206.50002 -112 C 214.83333 -103.333336 224.16666 -96.16667 234.5 -90.50001 C 244.83331 -84.83333 255.83333 -81 267.5 -79 C 279.1667 -77.00001 291 -76.00001 303 -76.00001 C 315.6667 -76.00001 328.5 -77.00001 341.5 -79 C 354.5 -81 367 -84.66667 379 -90 C 390.99997 -95.33333 401.33334 -103.33333 410.00003 -114.00001 C 418.66666 -124.66667 423.66666 -136.33333 425 -149 L 521 -149 C 519.6667 -132.33334 515.8334 -116.166664 509.50003 -100.5 C 503.1667 -84.833336 494.49997 -70.83334 483.50003 -58.500004 C 472.50003 -46.166668 460 -35.5 446 -26.500002 C 432 -17.5 417 -10.5 401.00003 -5.5000005 C 385 -0.5000002 368.6667 3 352.00003 5.0000005 C 335.33334 7 319 8 303 8 Z M 427.00003 -302.00003 L 427.00003 -310 C 427 -322 426 -333.6667 424.00003 -345.00003 C 422.00003 -356.33334 418.6667 -367.33334 414.00003 -378.00003 C 409.3333 -388.6667 403 -398.33334 395 -407 C 387.00003 -415.66666 377.83334 -422.83334 367.5 -428.50003 C 357.1667 -434.16666 346.33334 -438.1667 335 -440.50003 C 323.66666 -442.83337 312 -444 300 -444.00003 C 288 -444 276.33334 -442.83337 265.00003 -440.50003 C 253.66667 -438.1667 242.83334 -434.16666 232.50002 -428.50003 C 222.16666 -422.83334 213 -415.66666 205.00002 -407 C 197 -398.33334 190.66666 -388.6667 186 -378.00003 C 181.33333 -367.33334 178 -356.33334 176.00002 -345.00003 C 174.00002 -333.6667 173.00002 -322 173.00002 -310 L 173.00002 -302.00003 Z " id="path9"/><path d="M 99.00001 0 L 99.00001 -84.00001 L 260.00003 -84.00001 L 260.00003 -436.00003 L 115 -436.00003 L 115 -520.00006 L 356 -520.00006 L 356 -84.00001 L 501.00006 -84.00001 L 501.00006 0 Z M 300 -601 C 290.66666 -601 281.49997 -602.3333 272.5 -605 C 263.49997 -607.6667 255.66667 -612.3333 249.00002 -619 C 242.33334 -625.6666 237.66667 -633.5 235.00002 -642.50006 C 232.33333 -651.5 231 -660.6666 231 -670 C 231 -679.3333 232.33333 -688.5 235.00002 -697.50006 C 237.66667 -706.5 242.33334 -714.3333 249.00002 -721 C 255.66667 -727.6666 263.49997 -732.3333 272.5 -735 C 281.49997 -737.6667 290.66666 -739 300 -739 C 309.3333 -739 318.5 -737.6667 327.50003 -735 C 336.50003 -732.3333 344.33334 -727.6666 351 -721 C 357.66666 -714.3333 362.33334 -706.5 365 -697.50006 C 367.66666 -688.5 369.00003 -679.3333 369.00003 -670 C 369.00003 -660.6666 367.66666 -651.5 365 -642.50006 C 362.33334 -633.5 357.66666 -625.6666 351 -619 C 344.33334 -612.3333 336.50003 -607.6667 327.50003 -605 C 318.5 -602.3333 309.3333 -601 300 -601 Z " id="path7"/><path d="M 298 8 C 278 8 258.3333 6.3333335 239 3 C 219.66667 -0.33333328 201.33334 -6.166667 184.00002 -14.500001 C 166.66667 -22.833332 150.83334 -33.833332 136.5 -47.500004 C 122.166664 -61.166668 110.49999 -76.5 101.50001 -93.5 C 92.5 -110.49999 86.16667 -128.66667 82.5 -148 C 78.833336 -167.33333 77.00001 -186.66667 77.00001 -206.00002 L 77.00001 -529.00006 C 77.00001 -548.3334 78.833336 -567.6666 82.5 -587 C 86.16667 -606.3334 92.5 -624.50006 101.50001 -641.50006 C 110.49999 -658.50006 122.166664 -673.8334 136.5 -687.50006 C 150.83334 -701.1666 166.66667 -712.1667 184.00002 -720.50006 C 201.33334 -728.8333 219.66667 -734.6667 239 -738.00006 C 258.3333 -741.3334 278 -743 298 -743 C 316 -743 334.00003 -741.6667 352.00003 -739 C 370 -736.3333 387.33334 -731.5 404 -724.50006 C 420.66666 -717.50006 436.16666 -708.3334 450.5 -697 C 464.8333 -685.6667 477 -672.3334 487.00003 -657 C 497 -641.6666 504.50003 -625.1666 509.50003 -607.5 C 514.5 -589.8334 517 -572 517 -554 C 517 -553.3333 517 -553.00006 517 -553.00006 C 517 -553.00006 517 -553.00006 517 -553.00006 L 421.00003 -553.00006 C 421.00003 -553.00006 421.00003 -553.00006 421.00003 -553.00006 C 421.00003 -553.00006 421.00003 -553.00006 421.00003 -553.00006 C 421.00003 -568.3334 417.83334 -583.16675 411.5 -597.5 C 405.16666 -611.8333 395.99997 -623.8333 384 -633.50006 C 372 -643.1667 358.33334 -649.8333 343.00003 -653.5 C 327.6667 -657.1667 312.6667 -659.00006 298 -659.00006 C 285.99997 -659.00006 274.3333 -658 263 -656 C 251.66667 -654.00006 241 -650.1667 231 -644.5 C 221 -638.8334 212.16667 -631.8333 204.5 -623.50006 C 196.83333 -615.1667 190.66666 -605.8334 186 -595.50006 C 181.33333 -585.1667 178 -574.3334 176.00002 -563 C 174.00002 -551.6667 173.00002 -540.3333 173.00002 -529.00006 L 173.00002 -206.00002 C 173.00002 -194.66669 174.00002 -183.33334 176.00002 -172 C 178 -160.66667 181.33333 -149.83334 186 -139.5 C 190.66666 -129.16666 196.83333 -119.833336 204.5 -111.5 C 212.16667 -103.16667 221 -96.16667 231 -90.50001 C 241 -84.83333 251.66667 -81 263 -79 C 274.3333 -77.00001 285.99997 -76.00001 298 -76.00001 C 312.6667 -76.00001 327.6667 -77.833336 343.00003 -81.5 C 358.33334 -85.166664 372 -91.833336 384 -101.50001 C 395.99997 -111.16667 405.16666 -123.166664 411.5 -137.5 C 417.83334 -151.83333 421.00003 -166.66667 421.00003 -182.00002 C 421.00003 -182.00002 421.00003 -182.00002 421.00003 -182.00002 C 421.00003 -182.00002 421.00003 -182.00002 421.00003 -182.00002 L 517 -182.00002 C 517 -182.00002 517 -182.00002 517 -182.00002 C 517 -182.00002 517 -181.66667 517 -181.00002 C 517 -163 514.5 -145.16667 509.50003 -127.500015 C 504.50003 -109.833336 497 -93.333336 487.00003 -78 C 477 -62.666668 464.8333 -49.333336 450.5 -38.000004 C 436.16666 -26.666668 420.66666 -17.5 404 -10.500001 C 387.33334 -3.5000002 370 1.3333335 352.00003 4 C 334.00003 6.666667 316 8 298 8 Z " id="path1"/><path d="M 377 8 C 359.6667 8 342.33334 5.8333335 325.00003 1.5 C 307.6667 -2.8333333 291.83334 -10.000001 277.5 -20.000002 C 263.16666 -30 250.99998 -42.333336 241.00002 -57.000004 C 231 -71.666664 223.16667 -87.333336 217.50002 -104 C 211.83333 -120.666664 208 -137.66667 206.00002 -155 C 204 -172.33333 203.00002 -189.66667 203.00002 -207.00002 L 203.00002 -436.00003 L 81 -436.00003 L 81 -520.00006 L 203.00002 -520.00006 L 203.00002 -735 L 298 -735 L 298 -520.00006 L 508.00003 -520.00006 L 508.00003 -436.00003 L 298 -436.00003 L 298 -207.00002 C 298 -197.66666 298.33334 -188.33333 299.00003 -179 C 299.6667 -169.66667 301.1667 -160.33333 303.50003 -151.00002 C 305.83334 -141.66669 308.83334 -132.50002 312.5 -123.50001 C 316.16666 -114.5 321 -106.33333 327.00003 -99.00001 C 333 -91.66667 340.50003 -86 349.50003 -82 C 358.5 -78 367.66666 -76.00001 377 -76.00001 C 389 -76.00001 400.5 -79 411.5 -85 C 422.5 -91 431.1667 -99.166664 437.50003 -109.50001 C 443.83334 -119.833336 448.33334 -131 451.00003 -143 C 453.66666 -155 454.99997 -167.33333 455 -180 C 454.99997 -180.66667 454.99997 -181.5 455 -182.5 C 454.99997 -183.5 454.99997 -184.33334 455 -185 L 550 -185 C 550.6667 -183.66667 551 -182.16667 551 -180.50002 C 551 -178.83333 551 -177 551 -175.00002 C 551 -159.00002 549.3333 -143.16666 546 -127.500015 C 542.6667 -111.833336 537.8333 -96.833336 531.50006 -82.5 C 525.1667 -68.166664 516.6666 -55 506.00003 -43 C 495.33334 -31 482.99997 -21 469 -13 C 454.99997 -5.0000005 440.16666 0.50000006 424.50003 3.5 C 408.8333 6.5 393 8 377 8 Z " id="path4"/><path d="M 300 8 C 280 8 260.33334 6.3333335 241.00002 3 C 221.66666 -0.33333328 203 -6.3333335 185 -15.000001 C 167 -23.666666 150.83334 -34.833336 136.5 -48.5 C 122.166664 -62.166668 110.49999 -77.833336 101.50001 -95.50001 C 92.5 -113.166664 86.16667 -131.66666 82.5 -151.00002 C 78.833336 -170.33333 77.00001 -190 77.00001 -210.00002 L 77.00001 -310 C 77.00001 -329.99997 78.833336 -349.66666 82.5 -369.00003 C 86.16667 -388.3333 92.5 -406.83334 101.50001 -424.50003 C 110.49999 -442.1667 122.333336 -457.83334 137.00002 -471.5 C 151.66667 -485.16666 167.83333 -496.3333 185.50002 -505 C 203.16666 -513.6666 221.66666 -520.1666 241.00002 -524.5 C 260.33334 -528.8333 280 -531 300 -531 C 320 -531 339.66666 -528.8333 359.00003 -524.5 C 378.33334 -520.1666 396.83337 -513.6666 414.50003 -505 C 432.1667 -496.3333 448.33334 -485.16666 463.00003 -471.5 C 477.6667 -457.83334 489.5 -442.1667 498.50003 -424.50003 C 507.5 -406.83334 513.8334 -388.3333 517.50006 -369.00003 C 521.1667 -349.66666 523 -329.99997 523 -310 L 523 -210.00002 C 523 -190 521.1667 -170.33333 517.50006 -151.00002 C 513.8334 -131.66666 507.5 -113.166664 498.50003 -95.50001 C 489.5 -77.833336 477.83334 -62.166668 463.50003 -48.5 C 449.1667 -34.833336 433.00003 -23.666666 415.00003 -15.000001 C 397 -6.3333335 378.33334 -0.33333328 359.00003 3 C 339.66666 6.3333335 320 8 300 8 Z M 300 -76.00001 C 312 -76.00001 323.66666 -77.16667 335 -79.50001 C 346.33334 -81.833336 357.1667 -85.833336 367.5 -91.50001 C 377.83334 -97.166664 387.00003 -104.333336 395 -113.00001 C 403 -121.66667 409.3333 -131.33334 414.00003 -142 C 418.6667 -152.66666 422.00003 -163.66667 424.00003 -175.00002 C 426 -186.33333 427 -198 427.00003 -210.00002 L 427.00003 -310 C 427 -322 426 -333.83334 424.00003 -345.50003 C 422.00003 -357.16666 418.5 -368.33334 413.5 -379 C 408.50003 -389.6667 402 -399.3333 394.00003 -408.00003 C 386 -416.6667 376.8333 -423.6667 366.50003 -429.00003 C 356.16666 -434.3333 345.1667 -438.1667 333.50003 -440.50003 C 321.83334 -442.83337 310 -444 298 -444.00003 C 286.66666 -444 275.33334 -442.83337 264 -440.50003 C 252.66666 -438.1667 241.83334 -434.16666 231.50002 -428.50003 C 221.16667 -422.83334 212.16667 -415.66666 204.5 -407 C 196.83333 -398.33334 190.66666 -388.6667 186 -378.00003 C 181.33333 -367.33334 178 -356.16666 176.00002 -344.5 C 174.00002 -332.83334 173.00002 -321.33334 173.00002 -310 L 173.00002 -210.00002 C 173.00002 -198 174.00002 -186.33333 176.00002 -175.00002 C 178 -163.66667 181.33333 -152.66666 186 -142 C 190.66666 -131.33334 197 -121.66667 205.00002 -113.00001 C 213 -104.333336 222.16666 -97.166664 232.50002 -91.50001 C 242.83334 -85.833336 253.66667 -81.833336 265.00003 -79.50001 C 276.33334 -77.16667 288 -76.00001 300 -76.00001 Z " id="path5"/><path d="M 85 0 L 85 -84.00001 L 400 -436.00003 L 85 -436.00003 L 85 -520.00006 L 515.00006 -520.00006 L 515.00006 -436.00003 L 200 -84.00001 L 515.00006 -84.00001 L 515.00006 0 Z " id="path8"/><path d="M 263 8 C 245 8 227.33334 5.8333335 210.00002 1.5 C 192.66669 -2.8333333 176.83334 -10.166667 162.50002 -20.5 C 148.16667 -30.833334 135.83334 -43.500004 125.50001 -58.500004 C 115.166664 -73.5 107 -89.333336 101 -106.00001 C 95.00001 -122.66667 90.833336 -139.66667 88.5 -157 C 86.166664 -174.33333 85 -192 85 -210.00002 L 85 -520.00006 L 181.00002 -520.00006 L 181.00002 -210.00002 C 181.00002 -198.66666 181.83334 -187.33333 183.5 -176.00002 C 185.16667 -164.66667 188.16667 -153.83333 192.50002 -143.5 C 196.83334 -133.16667 202.5 -123.50001 209.50002 -114.50001 C 216.5 -105.50001 224.83334 -98.00001 234.5 -92.00001 C 244.16667 -86 254.66666 -81.833336 266 -79.50001 C 277.33334 -77.16667 288.66666 -76.00001 300 -76.00001 C 311.33334 -76.00001 322.66666 -77.16667 334.00003 -79.50001 C 345.33334 -81.833336 355.83334 -86 365.5 -92.00001 C 375.16666 -98.00001 383.5 -105.50001 390.5 -114.50001 C 397.5 -123.50001 403.1667 -133.16667 407.50003 -143.5 C 411.83334 -153.83333 414.83334 -164.66667 416.50003 -176.00002 C 418.16666 -187.33333 419 -198.66666 419.00003 -210.00002 L 419.00003 -520.00006 L 515.00006 -520.00006 L 515.00006 0 L 419.00003 0 L 419.00003 -92.00001 C 412.33334 -77.33333 403.83334 -63.333332 393.50003 -50 C 383.16666 -36.666668 371.00003 -25.5 357.00003 -16.5 C 343.00003 -7.5 327.83334 -1.1666664 311.5 2.5000002 C 295.16666 6.166667 278.99997 8 263 8 Z " id="path2"/><path d="M 58.000004 0 L 58.000004 -520.00006 L 154.00002 -520.00006 L 154.00002 -475.00003 C 158 -482.99997 163.00002 -490.3333 169.00002 -497 C 175.00002 -503.66663 181.66667 -509.50003 189.00002 -514.5 C 196.33333 -519.5 204.49998 -523 213.50002 -525.00006 C 222.5 -526.99994 231.66667 -528 241.00002 -528 C 241 -528 241 -528 241.00002 -528 C 241 -528 241 -528 241.00002 -528 C 251.66667 -528 262.5 -526.3333 273.50003 -523 C 284.5 -519.6667 294.33334 -514.5 303 -507.50006 C 311.66666 -500.49997 319 -492.16663 325.00003 -482.50003 C 331 -472.83334 335.66666 -462.6667 339.00003 -452.00003 C 342.3333 -462.6667 346.83334 -472.83334 352.50003 -482.50003 C 358.1667 -492.16663 365.16666 -500.49997 373.50003 -507.50006 C 381.8333 -514.5 391.3333 -519.6667 402 -523 C 412.66666 -526.3333 423.66666 -528 435.00003 -528 C 435 -528 435 -528 435.00003 -528 C 435 -528 435 -528 435.00003 -528 C 446.33334 -528 457.5 -526.3333 468.50003 -523 C 479.5 -519.6667 489.33334 -514.3333 498.00003 -507.00003 C 506.66666 -499.6667 513.8334 -491.1667 519.5 -481.50003 C 525.1666 -471.83334 529.6667 -461.5 533.00006 -450.5 C 536.3334 -439.49997 538.66675 -428.33334 540 -417.00003 C 541.3333 -405.66666 542.00006 -394.6667 542.00006 -384 L 542.00006 0 L 446 0 L 446 -384 C 446 -391.33334 445.33337 -398.6667 444.00003 -406.00003 C 442.66672 -413.33334 439.83334 -420.00003 435.50003 -426.00003 C 431.16666 -432 425.49997 -436.5 418.5 -439.50003 C 411.49997 -442.50003 404.3333 -444 397 -444.00003 C 389.66666 -444 382.5 -442.50003 375.50003 -439.50003 C 368.5 -436.5 362.8333 -432 358.5 -426.00003 C 354.1667 -420.00003 351.33334 -413.33334 350.00003 -406.00003 C 348.66666 -398.6667 348 -391.33334 348.00003 -384 L 348.00003 0 L 252 0 L 252 -384 C 252 -391.33334 251.33333 -398.6667 250 -406.00003 C 248.66667 -413.33334 245.83334 -420.00003 241.5 -426.00003 C 237.16667 -432 231.5 -436.5 224.50002 -439.50003 C 217.5 -442.50003 210.33334 -444 203.00002 -444.00003 C 195.66667 -444 188.49998 -442.50003 181.5 -439.50003 C 174.49998 -436.5 168.83333 -432 164.50002 -426.00003 C 160.16667 -420.00003 157.33333 -413.33334 156 -406.00003 C 154.66666 -398.6667 154.00002 -391.33334 154.00002 -384 L 154.00002 0 Z " id="path6"/></defs><g><g fill="#000000" transform="translate(16.000004 23.5664) rotate(0)"><use href="#path1" transform="translate(0 0) scale(0.016)"/><use href="#path2" transform="translate(9.6 0) scale(0.016)"/><use href="#path3" transform="translate(19.2 0) scale(0.016)"/><use href="#path4" transform="translate(28.800001 0) scale(0.016)"/><use href="#path5" transform="translate(38.4 0) scale(0.016)"/><use href="#path6" transform="translate(48 0) scale(0.016)"/><use href="#path7" transform="translate(57.6 0) scale(0.016)"/><use href="#path8" transform="translate(67.2 0) scale(0.016)"/><use href="#path9" transform="translate(76.799995 0) scale(0.016)"/></g></g></svg>