<?xml version="1.0" encoding="UTF-8" standalone="no"?>
<svg height="40" viewBox="0 0 108.8 40" width="108.8" xmlns="http://www.w3.org/2000/svg">
<defs>
<path d="M 299 8 Q 272 8 244.5 4.5 Q 217 1 192 -9 Q 167 -19 144.5 -35 Q 122 -51 106.5 -73.5 Q 91 -96 83 -122.5 Q 75 -149 75 -176 L 75 -184 L 171 -184 L 171 -179 Q 171 -156 181.5 -134.5 Q 192 -113 211 -99.5 Q 230 -86 253 -81 Q 276 -76 299 -76 Q 322 -76 345.5 -81.5 Q 369 -87 388 -101 Q 407 -115 417 -137 Q 427 -159 427 -183 Q 427 -210 413.5 -234 Q 400 -258 379 -275 Q 358 -292 333.5 -303 Q 309 -314 284 -324 Q 259 -334 235 -346 Q 211 -358 189 -373.5 Q 167 -389 147.5 -408.5 Q 128 -428 114 -451 Q 100 -474 92.5 -500 Q 85 -526 85 -553 Q 85 -580 92.5 -606.5 Q 100 -633 114 -656 Q 128 -679 149 -696.5 Q 170 -714 195 -724.5 Q 220 -735 247 -739 Q 274 -743 301 -743 Q 328 -743 354.5 -739.5 Q 381 -736 405.5 -726 Q 430 -716 451.5 -699 Q 473 -682 487.5 -660 Q 502 -638 509.5 -612 Q 517 -586 517 -559 L 517 -551 L 421 -551 L 421 -556 Q 421 -578 411.5 -599 Q 402 -620 385 -634 Q 368 -648 345.5 -653.5 Q 323 -659 301 -659 Q 278 -659 256 -653.5 Q 234 -648 216.5 -633 Q 199 -618 190 -596.5 Q 181 -575 181 -553 Q 181 -526 194 -501.5 Q 207 -477 228 -460 Q 249 -443 274 -432 Q 299 -421 324 -411 Q 349 -401 373 -389 Q 397 -377 419 -361.5 Q 441 -346 460 -326.5 Q 479 -307 493.5 -284 Q 508 -261 515.5 -235 Q 523 -209 523 -182 Q 523 -155 515 -128 Q 507 -101 492 -78 Q 477 -55 455 -37.5 Q 433 -20 407.5 -10 Q 382 -0 354.5 4 Q 327 8 299 8 Z " id="path1"/>
<path d="M 85 215 L 85 -520 L 181 -520 L 181 -427 Q 191 -450 207 -470 Q 223 -490 244.5 -503.5 Q 266 -517 291 -522.5 Q 316 -528 341 -528 Q 368 -528 394.5 -521.5 Q 421 -515 443 -500 Q 465 -485 481 -462.5 Q 497 -440 506.5 -415 Q 516 -390 519.5 -363.5 Q 523 -337 523 -310 L 523 -210 Q 523 -183 519.5 -156.5 Q 516 -130 506.5 -105 Q 497 -80 481 -57.5 Q 465 -35 443 -20 Q 421 -5 394.5 1.5 Q 368 8 341 8 Q 316 8 291 2.5 Q 266 -3 244.5 -16.5 Q 223 -30 207 -50 Q 191 -70 181 -93 L 181 215 Z M 304 -76 Q 321 -76 338 -79.5 Q 355 -83 370 -91.5 Q 385 -100 396.5 -113.5 Q 408 -127 415 -142.5 Q 422 -158 424.5 -175.5 Q 427 -193 427 -210 L 427 -310 Q 427 -327 424.5 -344.5 Q 422 -362 415 -377.5 Q 408 -393 396.5 -406.5 Q 385 -420 370 -428.5 Q 355 -437 338 -440.5 Q 321 -444 304 -444 Q 287 -444 270 -440.5 Q 253 -437 238 -428.5 Q 223 -420 211.5 -406.5 Q 200 -393 193 -377.5 Q 186 -362 183.5 -344.5 Q 181 -327 181 -310 L 181 -210 Q 181 -193 183.5 -175.5 Q 186 -158 193 -142.5 Q 200 -127 211.5 -113.5 Q 223 -100 238 -91.5 Q 253 -83 270 -79.5 Q 287 -76 304 -76 Z " id="path2"/>
<path d="M 300 8 Q 271 8 241.5 3 Q 212 -2 185.5 -15 Q 159 -28 137 -48.5 Q 115 -69 101.5 -95.5 Q 88 -122 82.5 -151 Q 77 -180 77 -210 L 77 -310 Q 77 -340 82.5 -369 Q 88 -398 101.5 -424.5 Q 115 -451 136.5 -471.5 Q 158 -492 185 -505 Q 212 -518 241 -523 Q 270 -528 300 -528 Q 330 -528 359 -523 Q 388 -518 415 -505 Q 442 -492 463.5 -471.5 Q 485 -451 498.5 -424.5 Q 512 -398 517.5 -369 Q 523 -340 523 -310 L 523 -218 L 173 -218 L 173 -210 Q 173 -192 176 -175 Q 179 -158 186 -142 Q 193 -126 205 -112.5 Q 217 -99 232.5 -91 Q 248 -83 265.5 -79.5 Q 283 -76 300 -76 Q 313 -76 326.5 -77 Q 340 -78 353 -81 Q 366 -84 378.5 -89 Q 391 -94 401 -102.5 Q 411 -111 417.5 -123 Q 424 -135 425 -149 L 521 -149 Q 520 -123 510.5 -99.5 Q 501 -76 484.5 -57 Q 468 -38 446 -25 Q 424 -12 400 -4.5 Q 376 3 350.5 5.5 Q 325 8 300 8 Z M 173 -302 L 427 -302 L 427 -310 Q 427 -328 424 -345 Q 421 -362 414 -378 Q 407 -394 395 -407 Q 383 -420 367.5 -428.5 Q 352 -437 335 -440.5 Q 318 -444 300 -444 Q 282 -444 265 -440.5 Q 248 -437 232.5 -428.5 Q 217 -420 205 -407 Q 193 -394 186 -378 Q 179 -362 176 -345 Q 173 -328 173 -310 Z " id="path3"/>
<path d="M 297 8 Q 268 8 238.5 3 Q 209 -2 183 -15 Q 157 -28 135.5 -49 Q 114 -70 101 -96 Q 88 -122 82.5 -151.5 Q 77 -181 77 -210 L 77 -310 Q 77 -339 82.5 -368.5 Q 88 -398 101 -424 Q 114 -450 135.5 -471 Q 157 -492 183 -505 Q 209 -518 238.5 -523 Q 268 -528 297 -528 Q 324 -528 351 -524 Q 378 -520 403.5 -510 Q 429 -500 450.5 -483 Q 472 -466 487 -443.5 Q 502 -421 509.5 -394.5 Q 517 -368 517 -341 L 517 -336 L 421 -336 L 421 -339 Q 421 -362 411 -383.5 Q 401 -405 383 -419 Q 365 -433 342.5 -438.5 Q 320 -444 297 -444 Q 280 -444 263 -440.5 Q 246 -437 230.5 -428.5 Q 215 -420 203.5 -406.5 Q 192 -393 185 -377.5 Q 178 -362 175.5 -344.5 Q 173 -327 173 -310 L 173 -210 Q 173 -193 175.5 -175.5 Q 178 -158 185 -142.5 Q 192 -127 203.5 -113.5 Q 215 -100 230.5 -91.5 Q 246 -83 263 -79.5 Q 280 -76 297 -76 Q 320 -76 342.5 -81.5 Q 365 -87 383 -101 Q 401 -115 411 -136.5 Q 421 -158 421 -181 L 421 -184 L 517 -184 L 517 -179 Q 517 -152 509.5 -125.5 Q 502 -99 487 -76.5 Q 472 -54 450.5 -37 Q 429 -20 403.5 -10 Q 378 -0 351 4 Q 324 8 297 8 Z " id="path4"/>
<path d="M 99 0 L 99 -84 L 260 -84 L 260 -436 L 115 -436 L 115 -520 L 356 -520 L 356 -84 L 501 -84 L 501 0 Z M 306 -601 Q 292 -601 278.5 -605 Q 265 -609 255 -619 Q 245 -629 241 -642.5 Q 237 -656 237 -670 Q 237 -684 241 -697.5 Q 245 -711 255 -721 Q 265 -731 278.5 -735 Q 292 -739 306 -739 Q 320 -739 333.5 -735 Q 347 -731 357 -721 Q 367 -711 371 -697.5 Q 375 -684 375 -670 Q 375 -656 371 -642.5 Q 367 -629 357 -619 Q 347 -609 333.5 -605 Q 320 -601 306 -601 Z " id="path5"/>
<path d="M 58 0 L 58 -520 L 154 -520 L 154 -475 Q 160 -487 169 -497 Q 178 -507 189 -514.5 Q 200 -522 213.5 -525 Q 227 -528 241 -528 Q 257 -528 273.5 -523 Q 290 -518 303 -507.5 Q 316 -497 325 -482.5 Q 334 -468 339 -452 Q 344 -468 352.5 -482.5 Q 361 -497 373.5 -507.5 Q 386 -518 402 -523 Q 418 -528 435 -528 Q 452 -528 468.5 -523 Q 485 -518 498 -507 Q 511 -496 519.5 -481.5 Q 528 -467 533 -450.5 Q 538 -434 540 -417 Q 542 -400 542 -384 L 542 0 L 446 0 L 446 -384 Q 446 -395 444 -406 Q 442 -417 435.5 -426 Q 429 -435 418.5 -439.5 Q 408 -444 397 -444 Q 386 -444 375.5 -439.5 Q 365 -435 358.5 -426 Q 352 -417 350 -406 Q 348 -395 348 -384 L 348 0 L 252 0 L 252 -384 Q 252 -395 250 -406 Q 248 -417 241.5 -426 Q 235 -435 224.5 -439.5 Q 214 -444 203 -444 Q 192 -444 181.5 -439.5 Q 171 -435 164.5 -426 Q 158 -417 156 -406 Q 154 -395 154 -384 L 154 0 Z " id="path6"/>
<path d="M 85 0 L 85 -520 L 181 -520 L 181 -428 Q 191 -450 206.5 -470 Q 222 -490 243 -503.5 Q 264 -517 288.5 -522.5 Q 313 -528 337 -528 Q 364 -528 390 -521.5 Q 416 -515 437.5 -499.5 Q 459 -484 474.5 -461.5 Q 490 -439 499 -414 Q 508 -389 511.5 -363 Q 515 -337 515 -310 L 515 0 L 419 0 L 419 -310 Q 419 -327 416.5 -344 Q 414 -361 407.5 -376.5 Q 401 -392 390.5 -405.5 Q 380 -419 365.5 -428 Q 351 -437 334 -440.5 Q 317 -444 300 -444 Q 283 -444 266 -440.5 Q 249 -437 234.5 -428 Q 220 -419 209.5 -405.5 Q 199 -392 192.5 -376.5 Q 186 -361 183.5 -344 Q 181 -327 181 -310 L 181 0 Z " id="path7"/>
</defs>
<g>
<g data-source-text="Specimen" fill="#dee4e3" transform="translate(16.000004 23.528) rotate(0) scale(0.016)">
<use href="#path1" transform="translate(0 0)"/>
<use href="#path2" transform="translate(600 0)"/>
<use href="#path3" transform="translate(1200 0)"/>
<use href="#path4" transform="translate(1800 0)"/>
<use href="#path5" transform="translate(2400 0)"/>
<use href="#path6" transform="translate(3000 0)"/>
<use href="#path3" transform="translate(3600 0)"/>
<use href="#path7" transform="translate(4200 0)"/>
</g>
</g>
</svg>