<?xml version="1.0" encoding="UTF-8" standalone="no"?>
<svg height="40" viewBox="0 0 118.4 40" width="118.4" xmlns="http://www.w3.org/2000/svg">
<defs>
<path d="M 297 8 Q 268 8 239 3 Q 210 -2 184 -14.5 Q 158 -27 136.5 -47.5 Q 115 -68 101.5 -93.5 Q 88 -119 82.5 -148 Q 77 -177 77 -206 L 77 -529 Q 77 -558 82.5 -587 Q 88 -616 101.5 -641.5 Q 115 -667 136.5 -687.5 Q 158 -708 184 -720.5 Q 210 -733 239 -738 Q 268 -743 297 -743 Q 324 -743 351 -739 Q 378 -735 403.5 -725 Q 429 -715 450.5 -698.5 Q 472 -682 487 -659 Q 502 -636 509.5 -609.5 Q 517 -583 517 -556 L 517 -551 L 421 -551 L 421 -554 Q 421 -577 411.5 -598.5 Q 402 -620 383.5 -634 Q 365 -648 342.5 -653.5 Q 320 -659 297 -659 Q 280 -659 263 -656 Q 246 -653 231 -644.5 Q 216 -636 204.5 -623.5 Q 193 -611 185.5 -595.5 Q 178 -580 175.5 -563 Q 173 -546 173 -529 L 173 -206 Q 173 -189 175.5 -172 Q 178 -155 185.5 -139.5 Q 193 -124 204.5 -111.5 Q 216 -99 231 -90.5 Q 246 -82 263 -79 Q 280 -76 297 -76 Q 320 -76 342.5 -81.5 Q 365 -87 383.5 -101 Q 402 -115 411.5 -136.5 Q 421 -158 421 -181 L 421 -184 L 517 -184 L 517 -179 Q 517 -152 509.5 -125.5 Q 502 -99 487 -76 Q 472 -53 450.5 -36.5 Q 429 -20 403.5 -10 Q 378 -0 351 4 Q 324 8 297 8 Z " id="path1"/>
<path d="M 261 8 Q 235 8 209 1.5 Q 183 -5 161.5 -20.5 Q 140 -36 124.5 -58.5 Q 109 -81 100 -106 Q 91 -131 88 -157.5 Q 85 -184 85 -210 L 85 -520 L 181 -520 L 181 -210 Q 181 -193 183.5 -176 Q 186 -159 192.5 -143.5 Q 199 -128 209.5 -114.5 Q 220 -101 234.5 -92 Q 249 -83 266 -79.5 Q 283 -76 300 -76 Q 317 -76 334 -79.5 Q 351 -83 365.5 -92 Q 380 -101 390.5 -114.5 Q 401 -128 407.5 -143.5 Q 414 -159 416.5 -176 Q 419 -193 419 -210 L 419 -520 L 515 -520 L 515 0 L 419 0 L 419 -99 Q 410 -75 394.5 -54 Q 379 -33 358 -18.5 Q 337 -4 312 2 Q 287 8 261 8 Z " id="path2"/>
<path d="M 299 8 Q 275 8 251 6 Q 227 4 203.5 -2.5 Q 180 -9 158.5 -19.5 Q 137 -30 120 -47 Q 103 -64 93 -86.5 Q 83 -109 83 -133 L 83 -139 L 177 -139 L 177 -137 Q 177 -125 184.5 -114 Q 192 -103 202.5 -96 Q 213 -89 225 -85 Q 237 -81 249 -78.5 Q 261 -76 273.5 -75.5 Q 286 -75 299 -75 Q 312 -75 324.5 -76 Q 337 -77 349.5 -79 Q 362 -81 374 -85.5 Q 386 -90 396.5 -97 Q 407 -104 414 -115 Q 421 -126 421 -138 Q 421 -154 410.5 -167 Q 400 -180 386 -187.5 Q 372 -195 357 -199 Q 342 -203 326.5 -206.5 Q 311 -210 295.5 -214 Q 280 -218 265 -222.5 Q 250 -227 235 -232 Q 220 -237 205.5 -243.5 Q 191 -250 177 -257.5 Q 163 -265 150.5 -275 Q 138 -285 127.5 -296.5 Q 117 -308 109 -322 Q 101 -336 97 -351 Q 93 -366 93 -382 Q 93 -406 102 -428.5 Q 111 -451 127 -468.5 Q 143 -486 163.5 -498 Q 184 -510 207 -516.5 Q 230 -523 253.5 -525.5 Q 277 -528 301 -528 Q 324 -528 347.5 -525.5 Q 371 -523 393.5 -517 Q 416 -511 437 -499.5 Q 458 -488 474.5 -471.5 Q 491 -455 500 -432.5 Q 509 -410 509 -387 L 509 -381 L 415 -381 L 415 -383 Q 415 -395 408.5 -405.5 Q 402 -416 392.5 -423 Q 383 -430 371.5 -434.5 Q 360 -439 348.5 -441 Q 337 -443 325 -444 Q 313 -445 301 -445 Q 289 -445 277 -444 Q 265 -443 253.5 -441 Q 242 -439 230.5 -434.5 Q 219 -430 209.5 -423 Q 200 -416 193.5 -405 Q 187 -394 187 -382 Q 187 -366 197.5 -353 Q 208 -340 221.5 -332.5 Q 235 -325 250.5 -321 Q 266 -317 281.5 -313.5 Q 297 -310 312.5 -306 Q 328 -302 343 -297.5 Q 358 -293 373 -288 Q 388 -283 402.5 -276.5 Q 417 -270 431 -262.5 Q 445 -255 457.5 -245.5 Q 470 -236 480.5 -224 Q 491 -212 499 -198.5 Q 507 -185 511 -169.5 Q 515 -154 515 -138 Q 515 -114 505.5 -91 Q 496 -68 479 -50.5 Q 462 -33 440.5 -21.5 Q 419 -10 395.5 -3.5 Q 372 3 347.5 5.5 Q 323 8 299 8 Z " id="path3"/>
<path d="M 377 8 Q 351 8 325.5 1.5 Q 300 -5 278.5 -20 Q 257 -35 242 -57 Q 227 -79 218 -103.5 Q 209 -128 206 -154 Q 203 -180 203 -206 L 203 -436 L 93 -436 L 93 -520 L 203 -520 L 203 -735 L 298 -735 L 298 -520 L 496 -520 L 496 -436 L 298 -436 L 298 -206 Q 298 -192 299 -178 Q 300 -164 303.5 -150 Q 307 -136 312.5 -123 Q 318 -110 327 -99 Q 336 -88 349.5 -82 Q 363 -76 377 -76 Q 395 -76 412 -85 Q 429 -94 438.5 -110 Q 448 -126 451.5 -144.5 Q 455 -163 455 -181 L 455 -184 L 551 -184 L 551 -179 Q 551 -155 546.5 -131 Q 542 -107 532 -85.5 Q 522 -64 506 -45 Q 490 -26 469.5 -14 Q 449 -2 425 3 Q 401 8 377 8 Z " id="path4"/>
<path d="M 300 8 Q 270 8 241 3 Q 212 -2 185 -15 Q 158 -28 136.5 -48.5 Q 115 -69 101.5 -95.5 Q 88 -122 82.5 -151 Q 77 -180 77 -210 L 77 -310 Q 77 -340 82.5 -369 Q 88 -398 101.5 -424.5 Q 115 -451 136.5 -471.5 Q 158 -492 185 -505 Q 212 -518 241 -523 Q 270 -528 300 -528 Q 330 -528 359 -523 Q 388 -518 415 -505 Q 442 -492 463.5 -471.5 Q 485 -451 498.5 -424.5 Q 512 -398 517.5 -369 Q 523 -340 523 -310 L 523 -210 Q 523 -180 517.5 -151 Q 512 -122 498.5 -95.5 Q 485 -69 463.5 -48.5 Q 442 -28 415 -15 Q 388 -2 359 3 Q 330 8 300 8 Z M 300 -76 Q 318 -76 335 -79.5 Q 352 -83 367.5 -91 Q 383 -99 395 -112.5 Q 407 -126 414.5 -142 Q 422 -158 424.5 -175 Q 427 -192 427 -210 L 427 -310 Q 427 -328 424.5 -345 Q 422 -362 414.5 -378 Q 407 -394 395 -407.5 Q 383 -421 367.5 -429 Q 352 -437 335 -440.5 Q 318 -444 300 -444 Q 282 -444 265 -440.5 Q 248 -437 232.5 -429 Q 217 -421 205 -407.5 Q 193 -394 185.5 -378 Q 178 -362 175.5 -345 Q 173 -328 173 -310 L 173 -210 Q 173 -192 175.5 -175 Q 178 -158 185.5 -142 Q 193 -126 205 -112.5 Q 217 -99 232.5 -91 Q 248 -83 265 -79.5 Q 282 -76 300 -76 Z " id="path5"/>
<path d="M 61 0 L 61 -520 L 150 -520 L 150 -467 Q 155 -481 164 -492.5 Q 173 -504 184.5 -512.5 Q 196 -521 210 -524.5 Q 224 -528 239 -528 Q 256 -528 273 -522.5 Q 290 -517 302.5 -505.5 Q 315 -494 323.5 -478.5 Q 332 -463 337 -446 Q 341 -463 349.5 -478.5 Q 358 -494 370.5 -505.5 Q 383 -517 399.5 -522.5 Q 416 -528 433 -528 Q 450 -528 466.5 -523 Q 483 -518 495.5 -507 Q 508 -496 516.5 -481 Q 525 -466 530 -450 Q 535 -434 537 -417 Q 539 -400 539 -384 L 539 0 L 450 0 L 450 -384 Q 450 -396 448 -408 Q 446 -420 439 -430 Q 432 -440 420.5 -445.5 Q 409 -451 397 -451 Q 385 -451 374 -445.5 Q 363 -440 356 -430 Q 349 -420 346.5 -408 Q 344 -396 344 -384 L 344 0 L 256 0 L 256 -384 Q 256 -396 253.5 -408 Q 251 -420 244 -430 Q 237 -440 226 -445.5 Q 215 -451 203 -451 Q 191 -451 179.5 -445.5 Q 168 -440 161 -430 Q 154 -420 152 -408 Q 150 -396 150 -384 L 150 0 Z " id="path6"/>
<path d="M 99 0 L 99 -84 L 260 -84 L 260 -436 L 115 -436 L 115 -520 L 356 -520 L 356 -84 L 501 -84 L 501 0 Z M 306 -601 Q 292 -601 278.5 -605 Q 265 -609 255 -619 Q 245 -629 241 -642.5 Q 237 -656 237 -670 Q 237 -684 241 -697.5 Q 245 -711 255 -721 Q 265 -731 278.5 -735 Q 292 -739 306 -739 Q 320 -739 333.5 -735 Q 347 -731 357 -721 Q 367 -711 371 -697.5 Q 375 -684 375 -670 Q 375 -656 371 -642.5 Q 367 -629 357 -619 Q 347 -609 333.5 -605 Q 320 -601 306 -601 Z " id="path7"/>
<path d="M 85 0 L 85 -84 L 408 -436 L 85 -436 L 85 -520 L 515 -520 L 515 -436 L 192 -84 L 515 -84 L 515 0 Z " id="path8"/>
<path d="M 300 8 Q 271 8 241.5 3 Q 212 -2 185 -15 Q 158 -28 136.5 -48.5 Q 115 -69 101.5 -95.5 Q 88 -122 82.5 -151 Q 77 -180 77 -210 L 77 -310 Q 77 -340 82.5 -369 Q 88 -398 101.5 -424.5 Q 115 -451 136.5 -471.5 Q 158 -492 185 -505 Q 212 -518 241 -523 Q 270 -528 300 -528 Q 330 -528 359 -523 Q 388 -518 415 -505 Q 442 -492 463.5 -471.5 Q 485 -451 498.5 -424.5 Q 512 -398 517.5 -369 Q 523 -340 523 -310 L 523 -219 L 171 -219 L 171 -210 Q 171 -192 174 -174.5 Q 177 -157 184.5 -141 Q 192 -125 204 -111.5 Q 216 -98 231.5 -90 Q 247 -82 264.5 -78.5 Q 282 -75 300 -75 Q 314 -75 327.5 -76 Q 341 -77 354 -80 Q 367 -83 379.5 -88.5 Q 392 -94 402.5 -102.5 Q 413 -111 419.5 -123 Q 426 -135 427 -149 L 521 -149 Q 520 -123 511 -99 Q 502 -75 485 -56.5 Q 468 -38 446 -25 Q 424 -12 400 -4.5 Q 376 3 350.5 5.5 Q 325 8 300 8 Z M 429 -301 L 429 -310 Q 429 -328 426 -345.5 Q 423 -363 415.5 -379 Q 408 -395 396 -408 Q 384 -421 368.5 -429.5 Q 353 -438 335.5 -441.5 Q 318 -445 300 -445 Q 282 -445 264.5 -441.5 Q 247 -438 231.5 -429.5 Q 216 -421 204 -408 Q 192 -395 184.5 -379 Q 177 -363 174 -345.5 Q 171 -328 171 -310 L 171 -301 Z " id="path9"/>
</defs>
<g>
<g data-source-text="Customize" fill="#20242e" transform="translate(16.000004 23.528) rotate(0) scale(0.016)">
<use href="#path1" transform="translate(0 0)"/>
<use href="#path2" transform="translate(600 0)"/>
<use href="#path3" transform="translate(1200 0)"/>
<use href="#path4" transform="translate(1800 0)"/>
<use href="#path5" transform="translate(2400 0)"/>
<use href="#path6" transform="translate(3000 0)"/>
<use href="#path7" transform="translate(3600 0)"/>
<use href="#path8" transform="translate(4200 0)"/>
<use href="#path9" transform="translate(4800 0)"/>
</g>
</g>
</svg>