<?xml version="1.0" encoding="UTF-8" standalone="no"?>
<svg height="40" viewBox="0 0 166.4 40" width="166.4" xmlns="http://www.w3.org/2000/svg">
<defs>
<path d="M 85 0 L 85 -735 L 319 -735 Q 347 -735 375.5 -729.5 Q 404 -724 428.5 -710 Q 453 -696 472 -674 Q 491 -652 502.5 -626 Q 514 -600 518.5 -571.5 Q 523 -543 523 -515 Q 523 -480 515.5 -445 Q 508 -410 489.5 -380 Q 471 -350 441.5 -329 Q 412 -308 377 -300 L 539 0 L 433 0 L 275 -295 L 181 -295 L 181 0 Z M 181 -379 L 319 -379 Q 335 -379 351.5 -383.5 Q 368 -388 381 -397.5 Q 394 -407 403 -421 Q 412 -435 417.5 -450.5 Q 423 -466 425 -482.5 Q 427 -499 427 -515 Q 427 -531 425 -547.5 Q 423 -564 417.5 -579.5 Q 412 -595 403 -609 Q 394 -623 381 -632.5 Q 368 -642 351.5 -646.5 Q 335 -651 319 -651 L 181 -651 Z " id="path1"/>
<path d="M 300 8 Q 271 8 241.5 3 Q 212 -2 185.5 -15 Q 159 -28 137 -48.5 Q 115 -69 101.5 -95.5 Q 88 -122 82.5 -151 Q 77 -180 77 -210 L 77 -310 Q 77 -340 82.5 -369 Q 88 -398 101.5 -424.5 Q 115 -451 136.5 -471.5 Q 158 -492 185 -505 Q 212 -518 241 -523 Q 270 -528 300 -528 Q 330 -528 359 -523 Q 388 -518 415 -505 Q 442 -492 463.5 -471.5 Q 485 -451 498.5 -424.5 Q 512 -398 517.5 -369 Q 523 -340 523 -310 L 523 -218 L 173 -218 L 173 -210 Q 173 -192 176 -175 Q 179 -158 186 -142 Q 193 -126 205 -112.5 Q 217 -99 232.5 -91 Q 248 -83 265.5 -79.5 Q 283 -76 300 -76 Q 313 -76 326.5 -77 Q 340 -78 353 -81 Q 366 -84 378.5 -89 Q 391 -94 401 -102.5 Q 411 -111 417.5 -123 Q 424 -135 425 -149 L 521 -149 Q 520 -123 510.5 -99.5 Q 501 -76 484.5 -57 Q 468 -38 446 -25 Q 424 -12 400 -4.5 Q 376 3 350.5 5.5 Q 325 8 300 8 Z M 173 -302 L 427 -302 L 427 -310 Q 427 -328 424 -345 Q 421 -362 414 -378 Q 407 -394 395 -407 Q 383 -420 367.5 -428.5 Q 352 -437 335 -440.5 Q 318 -444 300 -444 Q 282 -444 265 -440.5 Q 248 -437 232.5 -428.5 Q 217 -420 205 -407 Q 193 -394 186 -378 Q 179 -362 176 -345 Q 173 -328 173 -310 Z " id="path2"/>
<path d="M 99 0 L 99 -84 L 260 -84 L 260 -651 L 115 -651 L 115 -735 L 356 -735 L 356 -84 L 501 -84 L 501 0 Z " id="path3"/>
<path d="M 258 8 Q 236 8 213.5 5 Q 191 2 170.5 -5.5 Q 150 -13 131.5 -26.5 Q 113 -40 100.5 -58.5 Q 88 -77 82.5 -98.5 Q 77 -120 77 -142 Q 77 -170 86 -197 Q 95 -224 114.5 -244.5 Q 134 -265 159 -278 Q 184 -291 211 -298.5 Q 238 -306 266 -308.5 Q 294 -311 321 -311 L 419 -311 L 419 -348 Q 419 -370 409.5 -390 Q 400 -410 382 -422.5 Q 364 -435 342.5 -439.5 Q 321 -444 299 -444 Q 286 -444 273 -443 Q 260 -442 247.5 -439 Q 235 -436 223 -431 Q 211 -426 201 -417.5 Q 191 -409 185 -397 Q 179 -385 179 -372 L 179 -371 L 83 -371 L 83 -374 Q 83 -399 92 -422.5 Q 101 -446 117.5 -464.5 Q 134 -483 155.5 -495.5 Q 177 -508 201 -515.5 Q 225 -523 249.5 -525.5 Q 274 -528 299 -528 Q 325 -528 351.5 -524.5 Q 378 -521 403 -512 Q 428 -503 450 -487 Q 472 -471 487 -449 Q 502 -427 508.5 -401 Q 515 -375 515 -348 L 515 0 L 419 0 L 419 -84 Q 408 -62 391 -43.5 Q 374 -25 352.5 -13 Q 331 -1 306.5 3.5 Q 282 8 258 8 Z M 295 -76 Q 319 -76 342.5 -82 Q 366 -88 384 -103.5 Q 402 -119 410.5 -142 Q 419 -165 419 -189 L 419 -228 L 321 -228 Q 306 -228 290.5 -227 Q 275 -226 260 -223 Q 245 -220 230.5 -215.5 Q 216 -211 202.5 -203 Q 189 -195 181 -181.5 Q 173 -168 173 -152 Q 173 -132 185.5 -115.5 Q 198 -99 216.5 -90.5 Q 235 -82 255 -79 Q 275 -76 295 -76 Z " id="path4"/>
<path d="M 299 8 Q 275 8 251 6 Q 227 4 204 -2.5 Q 181 -9 159 -20 Q 137 -31 120 -47.5 Q 103 -64 93 -86.5 Q 83 -109 83 -133 L 83 -139 L 179 -139 L 179 -137 Q 179 -125 186 -114 Q 193 -103 203.5 -96.5 Q 214 -90 226 -86 Q 238 -82 250 -79.5 Q 262 -77 274.5 -76.5 Q 287 -76 299 -76 Q 311 -76 323.5 -77 Q 336 -78 348.5 -80 Q 361 -82 373 -86 Q 385 -90 395 -97 Q 405 -104 412 -115 Q 419 -126 419 -138 Q 419 -154 409 -167 Q 399 -180 385 -187.5 Q 371 -195 355.5 -199 Q 340 -203 325 -206.5 Q 310 -210 294.5 -214 Q 279 -218 264 -222.5 Q 249 -227 234 -232 Q 219 -237 204.5 -243.5 Q 190 -250 176.5 -257.5 Q 163 -265 150.5 -275 Q 138 -285 127.5 -296.5 Q 117 -308 109 -322 Q 101 -336 97 -351 Q 93 -366 93 -382 Q 93 -406 102 -428.5 Q 111 -451 127 -468.5 Q 143 -486 164 -498 Q 185 -510 207.5 -516.5 Q 230 -523 253.5 -525.5 Q 277 -528 301 -528 Q 324 -528 347.5 -525.5 Q 371 -523 393.5 -517 Q 416 -511 437 -499.5 Q 458 -488 474.5 -471.5 Q 491 -455 500 -432.5 Q 509 -410 509 -387 L 509 -381 L 413 -381 L 413 -383 Q 413 -395 407 -405.5 Q 401 -416 391.5 -423 Q 382 -430 370.5 -434 Q 359 -438 347.5 -440 Q 336 -442 324.5 -443 Q 313 -444 301 -444 Q 289 -444 277.5 -443 Q 266 -442 254 -440 Q 242 -438 231 -433.5 Q 220 -429 210.5 -422 Q 201 -415 195 -404.5 Q 189 -394 189 -382 Q 189 -366 199 -353 Q 209 -340 223 -333 Q 237 -326 252.5 -322 Q 268 -318 283 -314 Q 298 -310 313.5 -306 Q 329 -302 344 -297.5 Q 359 -293 374 -288 Q 389 -283 403 -276.5 Q 417 -270 431 -262.5 Q 445 -255 457.5 -245.5 Q 470 -236 480.5 -224 Q 491 -212 498.5 -198.5 Q 506 -185 510.5 -169.5 Q 515 -154 515 -138 Q 515 -114 505.5 -91 Q 496 -68 479 -50.5 Q 462 -33 440.5 -21.5 Q 419 -10 395.5 -3.5 Q 372 3 347.5 5.5 Q 323 8 299 8 Z " id="path5"/>
<path d="M 303 8 Q 275 8 247.5 4.5 Q 220 1 194 -9 Q 168 -19 145.5 -35.5 Q 123 -52 107.5 -74.5 Q 92 -97 83.5 -124 Q 75 -151 75 -179 L 75 -184 L 171 -184 L 171 -181 Q 171 -157 182 -135 Q 193 -113 212.5 -99.5 Q 232 -86 255.5 -81 Q 279 -76 303 -76 Q 328 -76 353 -82.5 Q 378 -89 397 -106 Q 416 -123 425.5 -147 Q 435 -171 435 -196 Q 435 -218 428.5 -238.5 Q 422 -259 409.5 -276.5 Q 397 -294 379.5 -306.5 Q 362 -319 341.5 -326 Q 321 -333 299.5 -334.5 Q 278 -336 257 -336 L 257 -420 Q 277 -420 296.5 -421.5 Q 316 -423 334.5 -429.5 Q 353 -436 369 -448 Q 385 -460 396 -476 Q 407 -492 413 -511 Q 419 -530 419 -549 Q 419 -572 411 -593.5 Q 403 -615 386.5 -630.5 Q 370 -646 348 -652.5 Q 326 -659 303 -659 Q 281 -659 259.5 -653.5 Q 238 -648 221 -633.5 Q 204 -619 195.5 -598 Q 187 -577 187 -555 L 187 -551 L 91 -551 L 91 -558 Q 91 -585 98 -611 Q 105 -637 119.5 -659 Q 134 -681 154.5 -698 Q 175 -715 199.5 -725 Q 224 -735 250.5 -739 Q 277 -743 303 -743 Q 330 -743 356.5 -739 Q 383 -735 407.5 -724 Q 432 -713 453 -695 Q 474 -677 487.5 -654 Q 501 -631 508 -604.5 Q 515 -578 515 -551 Q 515 -524 507.5 -497.5 Q 500 -471 485 -448.5 Q 470 -426 449 -408.5 Q 428 -391 403 -380 Q 431 -369 455 -350.5 Q 479 -332 496 -307 Q 513 -282 522 -253 Q 531 -224 531 -194 Q 531 -166 523.5 -138 Q 516 -110 501 -85.5 Q 486 -61 463.5 -42 Q 441 -23 415 -12 Q 389 -1 360.5 3.5 Q 332 8 303 8 Z " id="path6"/>
<path d="M 282 0 L 282 -621 L 166 -523 L 106 -587 L 282 -735 L 378 -735 L 378 0 Z " id="path7"/>
<path d="M 300 8 Q 283 8 266 3 Q 249 -2 237 -14.5 Q 225 -27 219.5 -44 Q 214 -61 214 -78 Q 214 -95 219.5 -112 Q 225 -129 237 -141 Q 249 -153 266 -158 Q 283 -163 300 -163 Q 317 -163 334 -158 Q 351 -153 363 -141 Q 375 -129 380.5 -112 Q 386 -95 386 -78 Q 386 -61 380.5 -44 Q 375 -27 363 -14.5 Q 351 -2 334 3 Q 317 8 300 8 Z " id="path8"/>
<path d="M 300 8 Q 270 8 239.5 2.5 Q 209 -3 182.5 -17.5 Q 156 -32 134.5 -54.5 Q 113 -77 100 -104.5 Q 87 -132 82 -162.5 Q 77 -193 77 -223 Q 77 -268 85.5 -312 Q 94 -356 108.5 -398 Q 123 -440 143.5 -480 Q 164 -520 188 -558 L 295 -735 L 403 -735 L 269 -514 Q 254 -488 239 -461.5 Q 224 -435 213 -407 Q 237 -431 270 -442.5 Q 303 -454 337 -454 Q 365 -454 392.5 -447 Q 420 -440 443 -423.5 Q 466 -407 481.5 -383.5 Q 497 -360 506.5 -333.5 Q 516 -307 519.5 -279 Q 523 -251 523 -223 Q 523 -193 518 -162.5 Q 513 -132 500 -104.5 Q 487 -77 465.5 -54.5 Q 444 -32 417.5 -17.5 Q 391 -3 360.5 2.5 Q 330 8 300 8 Z M 300 -76 Q 328 -76 354 -86.5 Q 380 -97 397 -119 Q 414 -141 420.5 -168.5 Q 427 -196 427 -223 Q 427 -251 420.5 -278 Q 414 -305 397 -327 Q 380 -349 354 -359.5 Q 328 -370 300 -370 Q 274 -370 248.5 -360.5 Q 223 -351 206 -331 Q 189 -311 181.5 -285 Q 174 -259 173 -233 L 173 -223 Q 173 -196 179.5 -168.5 Q 186 -141 203 -119 Q 220 -97 246 -86.5 Q 272 -76 300 -76 Z " id="path9"/>
</defs>
<g>
<g data-source-text="Release " fill="#dee4e3" transform="translate(16 23.528) rotate(0) scale(0.016)">
<use href="#path1" transform="translate(0 0)"/>
<use href="#path2" transform="translate(600 0)"/>
<use href="#path3" transform="translate(1200 0)"/>
<use href="#path2" transform="translate(1800 0)"/>
<use href="#path4" transform="translate(2400 0)"/>
<use href="#path5" transform="translate(3000 0)"/>
<use href="#path2" transform="translate(3600 0)"/>
</g>
<g data-source-text="31.6.1" fill="#03aee9" transform="translate(92.799995 23.528) rotate(0) scale(0.016)">
<use href="#path6" transform="translate(0 0)"/>
<use href="#path7" transform="translate(600 0)"/>
<use href="#path8" transform="translate(1200 0)"/>
<use href="#path9" transform="translate(1800 0)"/>
<use href="#path8" transform="translate(2400 0)"/>
<use href="#path7" transform="translate(3000 0)"/>
</g>
</g>
</svg>