<?xml version="1.0" encoding="UTF-8" standalone="no"?>
<svg height="40" viewBox="0 0 166.4 40" width="166.4" xmlns="http://www.w3.org/2000/svg">
<defs>
<path d="M 85 0 L 85 -735 L 319 -735 Q 347 -735 375.5 -729.5 Q 404 -724 428.5 -710 Q 453 -696 472 -674 Q 491 -652 502.5 -626 Q 514 -600 518.5 -571.5 Q 523 -543 523 -515 Q 523 -480 515.5 -445 Q 508 -410 489.5 -380 Q 471 -350 441.5 -329 Q 412 -308 377 -300 L 539 0 L 433 0 L 275 -295 L 181 -295 L 181 0 Z M 181 -379 L 319 -379 Q 335 -379 351.5 -383 Q 368 -387 381 -397 Q 394 -407 403 -421 Q 412 -435 417.5 -450.5 Q 423 -466 425 -482.5 Q 427 -499 427 -515 Q 427 -531 425 -547.5 Q 423 -564 417.5 -579.5 Q 412 -595 403 -609 Q 394 -623 381 -632.5 Q 368 -642 351.5 -646.5 Q 335 -651 319 -651 L 181 -651 Z " id="path1"/>
<path d="M 303 8 Q 273 8 243.5 3 Q 214 -2 187 -14.5 Q 160 -27 138 -48 Q 116 -69 102 -95 Q 88 -121 82.5 -150.5 Q 77 -180 77 -210 L 77 -310 Q 77 -340 82.5 -369 Q 88 -398 101.5 -424.5 Q 115 -451 136.5 -471.5 Q 158 -492 185 -505 Q 212 -518 241 -523 Q 270 -528 300 -528 Q 330 -528 359 -523 Q 388 -518 415 -505 Q 442 -492 463.5 -471.5 Q 485 -451 498.5 -424.5 Q 512 -398 517.5 -369 Q 523 -340 523 -310 L 523 -218 L 173 -218 L 173 -210 Q 173 -192 176 -174.5 Q 179 -157 186.5 -141 Q 194 -125 206.5 -112 Q 219 -99 234.5 -90.5 Q 250 -82 267.5 -79 Q 285 -76 303 -76 Q 322 -76 341.5 -79 Q 361 -82 379 -90 Q 397 -98 410 -114 Q 423 -130 425 -149 L 521 -149 Q 519 -124 509.5 -100.5 Q 500 -77 483.5 -58.5 Q 467 -40 446 -26.5 Q 425 -13 401 -5.5 Q 377 2 352 5 Q 327 8 303 8 Z M 173 -302 L 427 -302 L 427 -310 Q 427 -328 424 -345 Q 421 -362 414 -378 Q 407 -394 395 -407 Q 383 -420 367.5 -428.5 Q 352 -437 335 -440.5 Q 318 -444 300 -444 Q 282 -444 265 -440.5 Q 248 -437 232.5 -428.5 Q 217 -420 205 -407 Q 193 -394 186 -378 Q 179 -362 176 -345 Q 173 -328 173 -310 Z " id="path2"/>
<path d="M 99 0 L 99 -84 L 260 -84 L 260 -651 L 115 -651 L 115 -735 L 356 -735 L 356 -84 L 501 -84 L 501 0 Z " id="path3"/>
<path d="M 247 8 Q 226 8 204.5 5 Q 183 2 163 -6 Q 143 -14 126 -28 Q 109 -42 98 -60 Q 87 -78 82 -99 Q 77 -120 77 -142 Q 77 -170 86 -197 Q 95 -224 114.5 -244.5 Q 134 -265 159 -278 Q 184 -291 211 -298.5 Q 238 -306 265.5 -308.5 Q 293 -311 321 -311 L 419 -311 L 419 -348 Q 419 -370 409.5 -390 Q 400 -410 382 -422.5 Q 364 -435 342 -439.5 Q 320 -444 298 -444 Q 278 -444 258 -440.5 Q 238 -437 220 -427 Q 202 -417 190.5 -399.5 Q 179 -382 179 -362 L 83 -362 Q 83 -387 91.5 -412 Q 100 -437 115.5 -457 Q 131 -477 152.5 -491 Q 174 -505 198 -513.5 Q 222 -522 247.5 -525 Q 273 -528 298 -528 Q 325 -528 351.5 -524.5 Q 378 -521 403 -512 Q 428 -503 450 -487 Q 472 -471 487 -449 Q 502 -427 508.5 -401 Q 515 -375 515 -348 L 515 0 L 419 0 L 419 -87 Q 407 -63 389 -44.5 Q 371 -26 347.5 -14 Q 324 -2 298.5 3 Q 273 8 247 8 Z M 284 -76 Q 309 -76 333.5 -81.5 Q 358 -87 378 -102 Q 398 -117 408.5 -140.5 Q 419 -164 419 -189 L 419 -228 L 321 -228 Q 306 -228 290.5 -227 Q 275 -226 260 -223 Q 245 -220 230 -215.5 Q 215 -211 202 -203 Q 189 -195 181 -181 Q 173 -167 173 -152 Q 173 -133 183.5 -116.5 Q 194 -100 210.5 -91 Q 227 -82 246 -79 Q 265 -76 284 -76 Z " id="path4"/>
<path d="M 299 8 Q 274 8 249 5.5 Q 224 3 200.5 -4.5 Q 177 -12 155 -25 Q 133 -38 117 -57 Q 101 -76 92 -100 Q 83 -124 83 -149 L 83 -151 L 179 -151 L 179 -150 Q 179 -131 191.5 -114.5 Q 204 -98 222 -90 Q 240 -82 259.5 -79 Q 279 -76 299 -76 Q 311 -76 323.5 -77 Q 336 -78 348.5 -80 Q 361 -82 373 -86.5 Q 385 -91 395.5 -98 Q 406 -105 412.5 -116.5 Q 419 -128 419 -140 Q 419 -152 413.5 -163.5 Q 408 -175 399 -183 Q 390 -191 379 -196.5 Q 368 -202 356.5 -205 Q 345 -208 332.5 -209.5 Q 320 -211 308 -213 Q 283 -215 258.5 -219.5 Q 234 -224 210 -233 Q 186 -242 165 -255.5 Q 144 -269 128 -288.5 Q 112 -308 102.5 -332 Q 93 -356 93 -381 Q 93 -405 102 -427.5 Q 111 -450 126.5 -468 Q 142 -486 163 -497.5 Q 184 -509 207 -516 Q 230 -523 253.5 -525.5 Q 277 -528 301 -528 Q 325 -528 349.5 -525.5 Q 374 -523 397 -515 Q 420 -507 441 -494.5 Q 462 -482 477 -463 Q 492 -444 500.5 -420.5 Q 509 -397 509 -373 L 509 -371 L 413 -371 L 413 -372 Q 413 -390 401.5 -406 Q 390 -422 373.5 -430 Q 357 -438 338.5 -441 Q 320 -444 301 -444 Q 283 -444 265.5 -442 Q 248 -440 231 -433 Q 214 -426 201.5 -412 Q 189 -398 189 -380 Q 189 -362 200.5 -347 Q 212 -332 228.5 -323.5 Q 245 -315 263 -312 Q 281 -309 299 -307 Q 325 -305 349.5 -300.5 Q 374 -296 397.5 -287 Q 421 -278 442.5 -264.5 Q 464 -251 480 -231.5 Q 496 -212 505.5 -188 Q 515 -164 515 -139 Q 515 -115 505.5 -92 Q 496 -69 479 -51 Q 462 -33 440.5 -21.5 Q 419 -10 395.5 -3.5 Q 372 3 347.5 5.5 Q 323 8 299 8 Z " id="path5"/>
<path d="M 85 0 L 85 -1 Q 85 -29 86 -57.5 Q 87 -86 92 -113.5 Q 97 -141 106 -168 Q 115 -195 129 -219.5 Q 143 -244 161 -265.5 Q 179 -287 200 -306 Q 221 -325 244.5 -340 Q 268 -355 293 -368.5 Q 318 -382 342 -397 Q 366 -412 384.5 -433.5 Q 403 -455 413 -482 Q 423 -509 423 -537 Q 423 -561 415.5 -585.5 Q 408 -610 390.5 -627 Q 373 -644 349 -651.5 Q 325 -659 301 -659 Q 278 -659 256 -653.5 Q 234 -648 216 -634 Q 198 -620 188.5 -599 Q 179 -578 179 -555 L 179 -554 L 83 -554 L 83 -557 Q 83 -583 90.5 -609.5 Q 98 -636 112.5 -658.5 Q 127 -681 148.5 -698 Q 170 -715 195 -725 Q 220 -735 247 -739 Q 274 -743 301 -743 Q 329 -743 357.5 -738.5 Q 386 -734 411.5 -722 Q 437 -710 458.5 -691 Q 480 -672 494 -647 Q 508 -622 513.5 -593.5 Q 519 -565 519 -537 Q 519 -507 511.5 -478.5 Q 504 -450 489 -424.5 Q 474 -399 453 -378 Q 432 -357 408 -340.5 Q 384 -324 358.5 -308.5 Q 333 -293 309 -276 Q 285 -259 264 -238.5 Q 243 -218 226.5 -193.5 Q 210 -169 200 -141 Q 190 -113 185 -84 L 515 -84 L 515 0 Z " id="path6"/>
<path d="M 300 8 Q 273 8 246 4.5 Q 219 1 193.5 -9 Q 168 -19 146 -35.5 Q 124 -52 108.5 -74 Q 93 -96 85 -122.5 Q 77 -149 77 -176 Q 77 -208 88 -238.5 Q 99 -269 117.5 -294.5 Q 136 -320 160.5 -340 Q 185 -360 212 -377 Q 188 -393 166.5 -413 Q 145 -433 129 -457 Q 113 -481 104 -509 Q 95 -537 95 -566 Q 95 -591 102 -616 Q 109 -641 122.5 -662.5 Q 136 -684 156.5 -700 Q 177 -716 200.5 -726 Q 224 -736 249.5 -739.5 Q 275 -743 300 -743 Q 325 -743 350.5 -739.5 Q 376 -736 399.5 -726 Q 423 -716 443.5 -700 Q 464 -684 477.5 -662.5 Q 491 -641 498 -616 Q 505 -591 505 -566 Q 505 -537 496 -509 Q 487 -481 471 -457 Q 455 -433 433.5 -413 Q 412 -393 388 -377 Q 415 -360 439.5 -340 Q 464 -320 482.5 -294.5 Q 501 -269 512 -238.5 Q 523 -208 523 -176 Q 523 -149 515 -122.5 Q 507 -96 491.5 -74 Q 476 -52 454 -35.5 Q 432 -19 406.5 -9 Q 381 1 354 4.5 Q 327 8 300 8 Z M 300 -425 Q 320 -436 339.5 -449.5 Q 359 -463 374.5 -480.5 Q 390 -498 399.5 -519.5 Q 409 -541 409 -565 Q 409 -585 401 -604.5 Q 393 -624 377 -636.5 Q 361 -649 340.5 -654 Q 320 -659 300 -659 Q 280 -659 259.5 -654 Q 239 -649 223 -636.5 Q 207 -624 199 -604.5 Q 191 -585 191 -565 Q 191 -541 200.5 -519.5 Q 210 -498 225.5 -480.5 Q 241 -463 260.5 -449.5 Q 280 -436 300 -425 Z M 300 -76 Q 323 -76 346 -81 Q 369 -86 387.5 -99 Q 406 -112 416.5 -133.5 Q 427 -155 427 -178 Q 427 -204 415.5 -227.5 Q 404 -251 385.5 -269.5 Q 367 -288 345 -301.5 Q 323 -315 300 -327 Q 277 -315 255 -301.5 Q 233 -288 214.5 -269.5 Q 196 -251 184.5 -227.5 Q 173 -204 173 -178 Q 173 -155 183.5 -133.5 Q 194 -112 212.5 -99 Q 231 -86 254 -81 Q 277 -76 300 -76 Z " id="path7"/>
<path d="M 300 8 Q 283 8 266 3 Q 249 -2 237 -14.5 Q 225 -27 219.5 -43.5 Q 214 -60 214 -78 Q 214 -95 219.5 -112 Q 225 -129 237 -141 Q 249 -153 266 -158 Q 283 -163 300 -163 Q 317 -163 334 -158 Q 351 -153 363 -141 Q 375 -129 380.5 -112 Q 386 -95 386 -78 Q 386 -60 380.5 -43.5 Q 375 -27 363 -14.5 Q 351 -2 334 3 Q 317 8 300 8 Z " id="path8"/>
<path d="M 300 8 Q 270 8 241 3 Q 212 -2 185 -15 Q 158 -28 136.5 -48.5 Q 115 -69 101.5 -95.5 Q 88 -122 82.5 -151 Q 77 -180 77 -210 L 77 -525 Q 77 -555 82.5 -584 Q 88 -613 101.5 -639.5 Q 115 -666 136.5 -686.5 Q 158 -707 185 -720 Q 212 -733 241 -738 Q 270 -743 300 -743 Q 330 -743 359 -738 Q 388 -733 415 -720 Q 442 -707 463.5 -686.5 Q 485 -666 498.5 -639.5 Q 512 -613 517.5 -584 Q 523 -555 523 -525 L 523 -210 Q 523 -180 517.5 -151 Q 512 -122 498.5 -95.5 Q 485 -69 463.5 -48.5 Q 442 -28 415 -15 Q 388 -2 359 3 Q 330 8 300 8 Z M 173 -332 L 427 -500 L 427 -525 Q 427 -543 424 -560 Q 421 -577 414 -593 Q 407 -609 395 -622 Q 383 -635 367.5 -643.5 Q 352 -652 335 -655.5 Q 318 -659 300 -659 Q 282 -659 265 -655.5 Q 248 -652 232.5 -643.5 Q 217 -635 205 -622 Q 193 -609 186 -593 Q 179 -577 176 -560 Q 173 -543 173 -525 Z M 300 -76 Q 318 -76 335 -79.5 Q 352 -83 367.5 -91.5 Q 383 -100 395 -113 Q 407 -126 414 -142 Q 421 -158 424 -175 Q 427 -192 427 -210 L 427 -403 L 173 -235 L 173 -210 Q 173 -192 176 -175 Q 179 -158 186 -142 Q 193 -126 205 -113 Q 217 -100 232.5 -91.5 Q 248 -83 265 -79.5 Q 282 -76 300 -76 Z " id="path9"/>
<path d="M 300 8 Q 268 8 236 1 Q 204 -6 177 -23.5 Q 150 -41 130 -66.5 Q 110 -92 98 -122 Q 86 -152 81.5 -184 Q 77 -216 77 -248 Q 77 -290 85.5 -331 Q 94 -372 109.5 -410.5 Q 125 -449 145.5 -485.5 Q 166 -522 187 -557 L 188 -558 L 295 -735 L 403 -735 L 269 -514 Q 258 -496 247 -478 Q 236 -460 224 -442 Q 243 -449 263 -451.5 Q 283 -454 302 -454 Q 333 -454 363 -448 Q 393 -442 419.5 -427.5 Q 446 -413 466.5 -390.5 Q 487 -368 500 -341 Q 513 -314 518 -283.5 Q 523 -253 523 -223 Q 523 -193 518 -162.5 Q 513 -132 500 -104.5 Q 487 -77 465.5 -54.5 Q 444 -32 417.5 -17.5 Q 391 -3 360.5 2.5 Q 330 8 300 8 Z M 300 -76 Q 328 -76 354 -86.5 Q 380 -97 397 -119 Q 414 -141 420.5 -168.5 Q 427 -196 427 -223 Q 427 -251 420.5 -278 Q 414 -305 397 -327 Q 380 -349 354 -359.5 Q 328 -370 300 -370 Q 273 -370 246.5 -359.5 Q 220 -349 203 -327.5 Q 186 -306 179.5 -278.5 Q 173 -251 173 -223 Q 173 -196 179.5 -168.5 Q 186 -141 203 -119 Q 220 -97 246 -86.5 Q 272 -76 300 -76 Z " id="path10"/>
</defs>
<g>
<g data-source-text="Release " fill="#20242e" transform="translate(16 23.528) rotate(0) scale(0.016)">
<use href="#path1" transform="translate(0 0)"/>
<use href="#path2" transform="translate(600 0)"/>
<use href="#path3" transform="translate(1200 0)"/>
<use href="#path2" transform="translate(1800 0)"/>
<use href="#path4" transform="translate(2400 0)"/>
<use href="#path5" transform="translate(3000 0)"/>
<use href="#path2" transform="translate(3600 0)"/>
</g>
<g data-source-text="28.0.6" fill="#048fbf" transform="translate(92.799995 23.528) rotate(0) scale(0.016)">
<use href="#path6" transform="translate(0 0)"/>
<use href="#path7" transform="translate(600 0)"/>
<use href="#path8" transform="translate(1200 0)"/>
<use href="#path9" transform="translate(1800 0)"/>
<use href="#path8" transform="translate(2400 0)"/>
<use href="#path10" transform="translate(3000 0)"/>
</g>
</g>
</svg>