<?xml version="1.0" encoding="UTF-8" standalone="no"?>
<svg height="40" viewBox="0 0 108.8 40" width="108.8" xmlns="http://www.w3.org/2000/svg">
<defs>
<path d="M 299 8 Q 271 8 244 4.5 Q 217 1 191.5 -9 Q 166 -19 144 -35.5 Q 122 -52 106.5 -75 Q 91 -98 83 -124.5 Q 75 -151 75 -178 L 75 -181 L 171 -181 L 171 -180 Q 171 -156 181.5 -134.5 Q 192 -113 211 -99.5 Q 230 -86 253 -81 Q 276 -76 299 -76 Q 322 -76 345.5 -81.5 Q 369 -87 388 -101 Q 407 -115 417 -137 Q 427 -159 427 -183 Q 427 -210 414 -234.5 Q 401 -259 380 -276 Q 359 -293 334 -303.5 Q 309 -314 284 -324 Q 259 -334 234.5 -346 Q 210 -358 188 -373 Q 166 -388 147 -407.5 Q 128 -427 114 -450 Q 100 -473 92.5 -499.5 Q 85 -526 85 -553 Q 85 -580 92.5 -606.5 Q 100 -633 114 -656 Q 128 -679 149 -696.5 Q 170 -714 195 -724.5 Q 220 -735 247 -739 Q 274 -743 301 -743 Q 328 -743 354.5 -739 Q 381 -735 405.5 -725 Q 430 -715 451.5 -698.5 Q 473 -682 487.5 -659.5 Q 502 -637 509.5 -611 Q 517 -585 517 -559 L 517 -555 L 421 -555 L 421 -557 Q 421 -579 411.5 -600 Q 402 -621 384.5 -634.5 Q 367 -648 345 -653.5 Q 323 -659 301 -659 Q 279 -659 256.5 -653 Q 234 -647 216.5 -632.5 Q 199 -618 190 -596.5 Q 181 -575 181 -553 Q 181 -526 194 -501 Q 207 -476 228 -459 Q 249 -442 274 -431.5 Q 299 -421 324 -411 Q 349 -401 373 -389 Q 397 -377 419.5 -362 Q 442 -347 461 -327.5 Q 480 -308 494 -285 Q 508 -262 515.5 -236 Q 523 -210 523 -183 Q 523 -155 515 -128 Q 507 -101 492 -78 Q 477 -55 455 -37.5 Q 433 -20 407.5 -10 Q 382 -0 354 4 Q 326 8 299 8 Z " id="path1"/>
<path d="M 85 215 L 85 -520 L 181 -520 L 181 -428 Q 191 -451 206.5 -470.5 Q 222 -490 243 -503.5 Q 264 -517 288.5 -522.5 Q 313 -528 338 -528 Q 365 -528 392 -521.5 Q 419 -515 441 -500 Q 463 -485 479.5 -463 Q 496 -441 506 -416 Q 516 -391 519.5 -364 Q 523 -337 523 -310 L 523 -210 Q 523 -183 519.5 -156 Q 516 -129 506 -104 Q 496 -79 479.5 -57 Q 463 -35 441 -20 Q 419 -5 392 1.5 Q 365 8 338 8 Q 313 8 288.5 2.5 Q 264 -3 243 -16.5 Q 222 -30 206.5 -49.5 Q 191 -69 181 -92 L 181 215 Z M 301 -76 Q 318 -76 335.5 -79.5 Q 353 -83 368 -91.5 Q 383 -100 395 -113 Q 407 -126 414 -142 Q 421 -158 424 -175.5 Q 427 -193 427 -210 L 427 -310 Q 427 -327 424 -344.5 Q 421 -362 414 -378 Q 407 -394 395 -407 Q 383 -420 368 -428.5 Q 353 -437 335.5 -440.5 Q 318 -444 301 -444 Q 284 -444 267 -440.5 Q 250 -437 235.5 -428 Q 221 -419 210 -406 Q 199 -393 192.5 -377 Q 186 -361 183.5 -344 Q 181 -327 181 -310 L 181 -210 Q 181 -193 183.5 -176 Q 186 -159 192.5 -143 Q 199 -127 210 -114 Q 221 -101 235.5 -92 Q 250 -83 267 -79.5 Q 284 -76 301 -76 Z " id="path2"/>
<path d="M 303 8 Q 273 8 243.5 3 Q 214 -2 187 -14.5 Q 160 -27 138 -48 Q 116 -69 102 -95 Q 88 -121 82.5 -150.5 Q 77 -180 77 -210 L 77 -310 Q 77 -340 82.5 -369 Q 88 -398 101.5 -424.5 Q 115 -451 136.5 -471.5 Q 158 -492 185 -505 Q 212 -518 241 -523 Q 270 -528 300 -528 Q 330 -528 359 -523 Q 388 -518 415 -505 Q 442 -492 463.5 -471.5 Q 485 -451 498.5 -424.5 Q 512 -398 517.5 -369 Q 523 -340 523 -310 L 523 -218 L 173 -218 L 173 -210 Q 173 -192 176 -174.5 Q 179 -157 186.5 -141 Q 194 -125 206.5 -112 Q 219 -99 234.5 -90.5 Q 250 -82 267.5 -79 Q 285 -76 303 -76 Q 322 -76 341.5 -79 Q 361 -82 379 -90 Q 397 -98 410 -114 Q 423 -130 425 -149 L 521 -149 Q 519 -124 509.5 -100.5 Q 500 -77 483.5 -58.5 Q 467 -40 446 -26.5 Q 425 -13 401 -5.5 Q 377 2 352 5 Q 327 8 303 8 Z M 173 -302 L 427 -302 L 427 -310 Q 427 -328 424 -345 Q 421 -362 414 -378 Q 407 -394 395 -407 Q 383 -420 367.5 -428.5 Q 352 -437 335 -440.5 Q 318 -444 300 -444 Q 282 -444 265 -440.5 Q 248 -437 232.5 -428.5 Q 217 -420 205 -407 Q 193 -394 186 -378 Q 179 -362 176 -345 Q 173 -328 173 -310 Z " id="path3"/>
<path d="M 298 8 Q 268 8 239 3 Q 210 -2 183.5 -15 Q 157 -28 136 -49 Q 115 -70 101.5 -96 Q 88 -122 82.5 -151.5 Q 77 -181 77 -210 L 77 -310 Q 77 -339 82.5 -368.5 Q 88 -398 101.5 -424 Q 115 -450 136 -471 Q 157 -492 183.5 -505 Q 210 -518 239 -523 Q 268 -528 298 -528 Q 325 -528 352 -524 Q 379 -520 404.5 -509.5 Q 430 -499 451.5 -481.5 Q 473 -464 487.5 -441 Q 502 -418 509.5 -391.5 Q 517 -365 517 -338 L 517 -337 L 421 -337 Q 421 -360 411.5 -382 Q 402 -404 384 -418.5 Q 366 -433 343.5 -438.5 Q 321 -444 298 -444 Q 280 -444 263 -440.5 Q 246 -437 231 -428.5 Q 216 -420 204.5 -407 Q 193 -394 185.5 -378 Q 178 -362 175.5 -344.5 Q 173 -327 173 -310 L 173 -210 Q 173 -193 175.5 -175.5 Q 178 -158 185.5 -142 Q 193 -126 204.5 -113 Q 216 -100 231 -91.5 Q 246 -83 263 -79.5 Q 280 -76 298 -76 Q 321 -76 343.5 -81.5 Q 366 -87 384 -101.5 Q 402 -116 411.5 -138 Q 421 -160 421 -183 L 517 -183 L 517 -182 Q 517 -155 509.5 -128.5 Q 502 -102 487.5 -79 Q 473 -56 451.5 -38.5 Q 430 -21 404.5 -10.5 Q 379 0 352 4 Q 325 8 298 8 Z " id="path4"/>
<path d="M 99 0 L 99 -84 L 260 -84 L 260 -436 L 115 -436 L 115 -520 L 356 -520 L 356 -84 L 501 -84 L 501 0 Z M 306 -601 Q 292 -601 278.5 -605 Q 265 -609 255 -619 Q 245 -629 241 -642.5 Q 237 -656 237 -670 Q 237 -684 241 -697.5 Q 245 -711 255 -721 Q 265 -731 278.5 -735 Q 292 -739 306 -739 Q 320 -739 333.5 -735 Q 347 -731 357 -721 Q 367 -711 371 -697.5 Q 375 -684 375 -670 Q 375 -656 371 -642.5 Q 367 -629 357 -619 Q 347 -609 333.5 -605 Q 320 -601 306 -601 Z " id="path5"/>
<path d="M 58 0 L 58 -520 L 154 -520 L 154 -475 Q 160 -487 169 -497 Q 178 -507 189 -514.5 Q 200 -522 213.5 -525 Q 227 -528 241 -528 Q 257 -528 273.5 -523 Q 290 -518 303 -507.5 Q 316 -497 325 -482.5 Q 334 -468 339 -452 Q 344 -468 352.5 -482.5 Q 361 -497 373.5 -507.5 Q 386 -518 402 -523 Q 418 -528 435 -528 Q 452 -528 468.5 -523 Q 485 -518 498 -507 Q 511 -496 519.5 -481.5 Q 528 -467 533 -450.5 Q 538 -434 540 -417 Q 542 -400 542 -384 L 542 0 L 446 0 L 446 -384 Q 446 -395 444 -406 Q 442 -417 435.5 -426 Q 429 -435 418.5 -439.5 Q 408 -444 397 -444 Q 386 -444 375.5 -439.5 Q 365 -435 358.5 -426 Q 352 -417 350 -406 Q 348 -395 348 -384 L 348 0 L 252 0 L 252 -384 Q 252 -395 250 -406 Q 248 -417 241.5 -426 Q 235 -435 224.5 -439.5 Q 214 -444 203 -444 Q 192 -444 181.5 -439.5 Q 171 -435 164.5 -426 Q 158 -417 156 -406 Q 154 -395 154 -384 L 154 0 Z " id="path6"/>
<path d="M 85 0 L 85 -520 L 181 -520 L 181 -428 Q 191 -450 206.5 -470 Q 222 -490 243 -503.5 Q 264 -517 288.5 -522.5 Q 313 -528 337 -528 Q 364 -528 390 -521.5 Q 416 -515 437.5 -499.5 Q 459 -484 474.5 -462 Q 490 -440 499 -414.5 Q 508 -389 511.5 -363 Q 515 -337 515 -310 L 515 0 L 419 0 L 419 -310 Q 419 -327 416.5 -344 Q 414 -361 407.5 -376.5 Q 401 -392 390 -405.5 Q 379 -419 365 -428 Q 351 -437 334 -440.5 Q 317 -444 300 -444 Q 283 -444 266 -440.5 Q 249 -437 235 -428 Q 221 -419 210 -405.5 Q 199 -392 192.5 -376.5 Q 186 -361 183.5 -344 Q 181 -327 181 -310 L 181 0 Z " id="path7"/>
</defs>
<g>
<g data-source-text="Specimen" fill="#dee4e3" transform="translate(16.000004 23.528) rotate(0) scale(0.016)">
<use href="#path1" transform="translate(0 0)"/>
<use href="#path2" transform="translate(600 0)"/>
<use href="#path3" transform="translate(1200 0)"/>
<use href="#path4" transform="translate(1800 0)"/>
<use href="#path5" transform="translate(2400 0)"/>
<use href="#path6" transform="translate(3000 0)"/>
<use href="#path3" transform="translate(3600 0)"/>
<use href="#path7" transform="translate(4200 0)"/>
</g>
</g>
</svg>