<svg xmlns="http://www.w3.org/2000/svg" height="40" viewBox="0 0 166.4 40" width="166.4"><defs><path d="M 282 0 L 282 -626.00006 L 163 -535 L 106.00001 -601 L 282 -735 L 378.00003 -735 L 378.00003 0 Z " id="path7"/><path d="M 298 8 C 281.3333 8 264.6667 7 248.00002 5.0000005 C 231.33334 3 215.16667 -0.5000002 199.50002 -5.5000005 C 183.83334 -10.5 168.83334 -17.5 154.5 -26.500002 C 140.16667 -35.5 127.666664 -46.333336 117.00001 -59.000004 C 106.333336 -71.666664 98.00001 -85.99999 92.00001 -102.00001 C 86 -118 83.00001 -134.33334 83.00001 -151.00002 C 83.00001 -151 83.00001 -151.16666 83.00001 -151.5 C 83.00001 -151.83334 83.00001 -152.00002 83.00001 -152.00002 L 179 -152.00002 C 178.99998 -138.66666 183.16667 -126.49999 191.50002 -115.5 C 199.83333 -104.5 209.83333 -96.16667 221.50002 -90.50001 C 233.16667 -84.83333 245.66667 -81 259 -79 C 272.3333 -77.00001 285.33334 -76.00001 298 -76.00001 C 306.6667 -76.00001 315.33334 -76.333336 324 -77.00001 C 332.66666 -77.66667 341.1667 -79 349.50003 -81 C 357.83334 -83.00001 366 -85.5 374 -88.5 C 381.99997 -91.5 389.3333 -95.83333 396.00003 -101.50001 C 402.6667 -107.166664 408.1667 -113.833336 412.50003 -121.50001 C 416.83334 -129.16666 419 -137.33333 419.00003 -146.00002 C 419 -156 415.66666 -165.5 409 -174.5 C 402.33334 -183.49998 394.33337 -190.16667 385.00003 -194.50002 C 375.6667 -198.83333 365.83334 -201.66666 355.5 -203.00002 C 345.1667 -204.33333 334.8333 -205.83334 324.50003 -207.50002 C 314.16666 -209.16667 303.83334 -211.00002 293.5 -213.00002 C 283.1667 -215 273 -217.16666 263 -219.5 C 253.00002 -221.83333 243 -224.33334 233.00002 -227.00002 C 223 -229.66669 213 -232.83334 203.00002 -236.50002 C 192.99998 -240.16667 183.49998 -244.50002 174.5 -249.5 C 165.5 -254.5 156.83333 -260.1667 148.50002 -266.50003 C 140.16667 -272.83334 132.50002 -280 125.50001 -288.00003 C 118.49999 -296 112.666664 -304.5 108 -313.50003 C 103.333336 -322.5 99.66667 -332.1667 97 -342.50003 C 94.333336 -352.83334 93 -363.33334 93 -374 C 93 -390 95.83333 -405.6667 101.50001 -421.00003 C 107.166664 -436.33334 115.166664 -450.33334 125.50001 -463.00003 C 135.83334 -475.6667 148 -486.33334 162 -495.00003 C 176 -503.66663 190.66667 -510.49994 206.00002 -515.5 C 221.33336 -520.49994 237.00002 -523.83325 253.00002 -525.5 C 269 -527.1666 285.33334 -528 302.00003 -528 C 318 -528 334 -526.99994 350.00003 -525.00006 C 366 -523 381.8333 -519.5 397.5 -514.5 C 413.1667 -509.50003 427.83334 -502.5 441.5 -493.50003 C 455.16666 -484.5 467.16666 -473.66666 477.50003 -461.00003 C 487.8333 -448.33334 495.6667 -434.16666 501.00006 -418.5 C 506.33334 -402.83334 509 -387 509 -371.00003 C 509 -371 509 -371 509 -371.00003 C 509 -371 509 -370.6667 509 -370 C 509 -370 509 -370 509 -370 C 509 -370 509 -370 509 -370 L 413.00003 -370 C 413 -382.6667 409.16666 -394.33337 401.50003 -405.00003 C 393.83334 -415.6667 384.5 -423.83337 373.50003 -429.5 C 362.5 -435.16666 350.83334 -439 338.50003 -441 C 326.1667 -443.00003 314 -444 302.00003 -444.00003 C 293.33334 -444 285 -443.6667 277 -443.00003 C 269 -442.33334 261 -441 253.00002 -439 C 245 -437 237.16667 -434.33334 229.50002 -431.00003 C 221.83334 -427.6667 215 -423.1667 209 -417.50003 C 203 -411.83334 198.16667 -405.33334 194.50002 -398.00003 C 190.83334 -390.66666 189.00002 -383.00003 189.00002 -375.00003 C 189.00002 -364.33334 192.16667 -354.6667 198.5 -346.00003 C 204.83333 -337.3333 212.83333 -330.8333 222.50002 -326.50003 C 232.16667 -322.1667 242.16667 -319.1667 252.5 -317.50003 C 262.8333 -315.83337 273.16666 -314.16666 283.50003 -312.5 C 293.83334 -310.83334 304.00003 -309 314 -307 C 324 -305 334.1667 -302.83334 344.5 -300.5 C 354.83334 -298.16666 365 -295.66666 375.00003 -293 C 385 -290.33334 394.8333 -287.16666 404.5 -283.50003 C 414.16666 -279.83334 423.66666 -275.5 433.00003 -270.5 C 442.33334 -265.5 451.1667 -259.83334 459.5 -253.50002 C 467.83334 -247.16666 475.5 -240.16666 482.50003 -232.50002 C 489.5 -224.83334 495.3333 -216.33334 500 -207.00002 C 504.6667 -197.66666 508.3333 -187.83333 511.00003 -177.50002 C 513.6667 -167.16667 515 -157 515.00006 -147 C 515 -130.33333 512 -114.16667 506.00003 -98.50001 C 500 -82.833336 491.5 -68.666664 480.5 -56 C 469.5 -43.333332 456.6667 -32.833332 442.00003 -24.500002 C 427.33334 -16.166666 412.1667 -9.5 396.50003 -4.5000005 C 380.83334 0.49999973 364.6667 3.8333335 348.00003 5.5000005 C 331.33334 7.166667 314.66666 8 298 8 Z " id="path5"/><path d="M 302.00003 8 C 284.66666 8 267.33334 6.666667 250 4 C 232.66667 1.3333335 215.99998 -3.3333337 200 -10.000001 C 184.00002 -16.666668 169.16669 -25.333334 155.50002 -36.000004 C 141.83333 -46.666668 130 -59.166668 120.00001 -73.5 C 110 -87.83333 102.166664 -103.16667 96.5 -119.5 C 90.833336 -135.83334 87.00001 -152.66667 85 -170 L 84.00001 -176.00002 L 180 -176.00002 L 182.00002 -167.00002 C 184.66666 -153 189.5 -140 196.5 -128 C 203.5 -116 212.5 -106 223.50002 -98.00001 C 234.5 -90 246.83334 -84.33333 260.5 -81 C 274.1667 -77.66667 288 -76.00001 302.00003 -76.00001 C 314.66666 -76.00001 327.1667 -77.66667 339.5 -81 C 351.83334 -84.33333 363.16666 -89.833336 373.50003 -97.50001 C 383.83334 -105.16667 392.5 -114.5 399.5 -125.50001 C 406.5 -136.5 412 -148 416 -160.00002 C 420.00003 -172 422.8333 -184.33334 424.50003 -197.00002 C 426.16666 -209.66667 427 -222.33334 427.00003 -235.00002 C 427 -247.66666 426.33334 -260.33334 425 -273 C 423.66666 -285.6667 421 -298 417.00003 -310 C 413 -322 407.6667 -333.5 401.00003 -344.5 C 394.33337 -355.5 386 -364.83334 376.00003 -372.50003 C 366 -380.16666 354.83337 -385.66666 342.50003 -389.00003 C 330.16666 -392.33334 317.66666 -394.00003 305 -394.00003 C 291 -394.00003 277.16666 -392.5 263.5 -389.50003 C 249.83334 -386.5 237.50002 -380.6667 226.5 -372 C 215.5 -363.33334 206.83333 -352.6667 200.50002 -340 C 194.16666 -327.33334 190.66667 -314 190.00002 -300 L 94.00001 -300 L 94.00001 -735 L 493.00003 -735 L 493.00003 -651 L 190.00002 -651 L 190.00002 -454.00003 C 207.33333 -463.33337 225.83333 -469.6667 245.50002 -473.00003 C 265.16666 -476.33334 285 -478 305 -478 C 325.66666 -478 346.16666 -475.83334 366.50003 -471.5 C 386.8333 -467.16666 405.83334 -459.66666 423.50003 -449.00003 C 441.16666 -438.33334 456.66666 -425 470.00003 -409 C 483.33334 -393 494.00003 -375.50003 502.00003 -356.50003 C 510 -337.5 515.5 -317.66666 518.5 -297.00003 C 521.5 -276.33334 523 -255.66667 523 -235.00002 C 523 -214.33333 521.3333 -193.66667 518 -173.00002 C 514.6667 -152.33333 509 -132.50002 501.00006 -113.50001 C 493.00003 -94.50001 482.1667 -76.833336 468.50003 -60.500004 C 454.83334 -44.166668 439 -30.833334 421.00003 -20.5 C 403.00003 -10.166667 383.83334 -2.8333333 363.50003 1.5 C 343.16666 5.8333335 322.66666 8 302.00003 8 Z " id="path8"/><path d="M 300 8 C 288.66666 8 277.33334 6.3333335 266 3 C 254.66666 -0.33333328 245 -6.166667 237.00002 -14.500001 C 229 -22.833332 223.16666 -32.5 219.5 -43.500004 C 215.83334 -54.5 214.00002 -66 214.00002 -78 C 214.00002 -89.333336 215.83334 -100.66667 219.5 -112 C 223.16666 -123.333336 229 -133 237.00002 -141 C 245 -149 254.66666 -154.66667 266 -158 C 277.33334 -161.33333 288.66666 -162.99998 300 -163 C 311.33334 -162.99998 322.66666 -161.33333 334.00003 -158 C 345.33334 -154.66667 355.00003 -149 363 -141 C 371 -133 376.83334 -123.333336 380.50003 -112 C 384.16666 -100.66667 385.99997 -89.333336 386 -78 C 385.99997 -66 384.16666 -54.5 380.50003 -43.500004 C 376.83334 -32.5 371 -22.833332 363 -14.500001 C 355.00003 -6.166667 345.33334 -0.33333328 334.00003 3 C 322.66666 6.3333335 311.33334 8 300 8 Z " id="path9"/><path d="M 300 8 C 280 8 260.33334 6.3333335 241.00002 3 C 221.66666 -0.33333328 203 -6.3333335 185 -15.000001 C 167 -23.666666 150.83334 -34.833336 136.5 -48.5 C 122.166664 -62.166668 110.49999 -77.833336 101.50001 -95.50001 C 92.5 -113.166664 86.16667 -131.66666 82.5 -151.00002 C 78.833336 -170.33333 77.00001 -190 77.00001 -210.00002 L 77.00001 -525.00006 C 77.00001 -544.99994 78.833336 -564.6666 82.5 -584.00006 C 86.16667 -603.3334 92.5 -621.8333 101.50001 -639.5 C 110.49999 -657.1667 122.333336 -672.8333 137.00002 -686.5 C 151.66667 -700.1667 167.83333 -711.3333 185.50002 -720 C 203.16666 -728.6667 221.66666 -735.1667 241.00002 -739.50006 C 260.33334 -743.8334 280 -746.00006 300 -746.00006 C 320 -746.00006 339.66666 -743.8334 359.00003 -739.50006 C 378.33334 -735.1667 396.83337 -728.6667 414.50003 -720 C 432.1667 -711.3333 448.33334 -700.1667 463.00003 -686.5 C 477.6667 -672.8333 489.5 -657.1667 498.50003 -639.5 C 507.5 -621.8333 513.8334 -603.3334 517.50006 -584.00006 C 521.1667 -564.6666 523 -544.99994 523 -525.00006 L 523 -210.00002 C 523 -190 521.1667 -170.33333 517.50006 -151.00002 C 513.8334 -131.66666 507.5 -113.166664 498.50003 -95.50001 C 489.5 -77.833336 477.83334 -62.166668 463.50003 -48.5 C 449.1667 -34.833336 433.00003 -23.666666 415.00003 -15.000001 C 397 -6.3333335 378.33334 -0.33333328 359.00003 3 C 339.66666 6.3333335 320 8 300 8 Z M 173.00002 -332.00003 L 427.00003 -500 L 427.00003 -525.00006 C 427 -537.00006 426 -548.8334 424.00003 -560.5 C 422.00003 -572.1667 418.5 -583.3334 413.5 -594.00006 C 408.50003 -604.6667 402 -614.3333 394.00003 -623 C 386 -631.6667 376.8333 -638.6667 366.50003 -644.00006 C 356.16666 -649.3334 345.1667 -653.1666 333.50003 -655.50006 C 321.83334 -657.8333 310 -659.00006 298 -659.00006 C 286.66666 -659.00006 275.33334 -657.8333 264 -655.50006 C 252.66666 -653.1666 241.83334 -649.1666 231.50002 -643.5 C 221.16667 -637.8334 212.16667 -630.66675 204.5 -622.00006 C 196.83333 -613.3334 190.66666 -603.6667 186 -593.00006 C 181.33333 -582.3333 178 -571.1666 176.00002 -559.50006 C 174.00002 -547.8333 173.00002 -536.3333 173.00002 -525.00006 Z M 300 -76.00001 C 312 -76.00001 323.66666 -77.16667 335 -79.50001 C 346.33334 -81.833336 357.1667 -85.833336 367.5 -91.50001 C 377.83334 -97.166664 387.00003 -104.333336 395 -113.00001 C 403 -121.66667 409.3333 -131.33334 414.00003 -142 C 418.6667 -152.66666 422.00003 -163.66667 424.00003 -175.00002 C 426 -186.33333 427 -198 427.00003 -210.00002 L 427.00003 -403.00003 L 173.00002 -235.00002 L 173.00002 -210.00002 C 173.00002 -198 174.00002 -186.33333 176.00002 -175.00002 C 178 -163.66667 181.33333 -152.66666 186 -142 C 190.66666 -131.33334 197 -121.66667 205.00002 -113.00001 C 213 -104.333336 222.16666 -97.166664 232.50002 -91.50001 C 242.83334 -85.833336 253.66667 -81.833336 265.00003 -79.50001 C 276.33334 -77.16667 288 -76.00001 300 -76.00001 Z " id="path10"/><path d="M 85 0 L 85 -735 L 319 -735 C 337.66666 -735 356.5 -733.1667 375.50003 -729.50006 C 394.50003 -725.8334 412.1667 -719.3334 428.50003 -710.00006 C 444.83334 -700.6667 459.33334 -688.6667 472.00003 -674 C 484.6667 -659.3334 494.83334 -643.3333 502.5 -626.00006 C 510.16666 -608.6667 515.5 -590.5 518.5 -571.5 C 521.5 -552.5 523 -533.66675 523 -515.00006 C 523 -491.00003 520.49994 -467.1667 515.5 -443.5 C 510.49994 -419.83334 501.5 -398 488.50003 -378.00003 C 475.5 -358 458.83334 -341.1667 438.50003 -327.50003 C 418.16666 -313.8333 396.33334 -304.33334 373.00003 -299.00003 L 542.00006 0 L 439 0 L 272 -295.00003 L 181.00002 -295.00003 L 181.00002 0 Z M 181.00002 -379 L 319 -379 C 329.6667 -379 340.5 -380.5 351.5 -383.5 C 362.5 -386.5 372.33334 -391.1667 381 -397.5 C 389.6667 -403.83334 397 -411.66666 403.00003 -421.00003 C 409 -430.33334 413.83334 -440.16666 417.50003 -450.5 C 421.16666 -460.8333 423.66666 -471.49997 425 -482.50003 C 426.33334 -493.5 427 -504.33337 427.00003 -515.00006 C 427 -525.6667 426.33334 -536.5 425 -547.5 C 423.66666 -558.5 421.16666 -569.1667 417.50003 -579.5 C 413.83334 -589.8334 409 -599.6667 403.00003 -609 C 397 -618.3333 389.6667 -626.1667 381 -632.50006 C 372.33334 -638.8334 362.5 -643.5 351.5 -646.50006 C 340.5 -649.5 329.6667 -651 319 -651 L 181.00002 -651 Z " id="path1"/><path d="M 303 8 C 283 8 263.16666 6.3333335 243.50002 3 C 223.83334 -0.33333328 205.00002 -6.166667 187 -14.500001 C 169 -22.833332 152.66667 -34 138.00002 -48 C 123.333336 -62 111.333336 -77.66667 102.00001 -95.00001 C 92.66667 -112.33334 86.16667 -130.83334 82.5 -150.50002 C 78.833336 -170.16667 77.00001 -190 77.00001 -210.00002 L 77.00001 -310 C 77.00001 -329.99997 78.833336 -349.66666 82.5 -369.00003 C 86.16667 -388.3333 92.5 -406.83334 101.50001 -424.50003 C 110.49999 -442.1667 122.166664 -457.83334 136.5 -471.5 C 150.83334 -485.16666 167 -496.3333 185 -505 C 203 -513.6666 221.66666 -519.6667 241.00002 -523 C 260.33334 -526.3333 280 -528 300 -528 C 320 -528 339.66666 -526.3333 359.00003 -523 C 378.33334 -519.6667 397 -513.6666 415.00003 -505 C 433.00003 -496.3333 449.1667 -485.16666 463.50003 -471.5 C 477.83334 -457.83334 489.5 -442.1667 498.50003 -424.50003 C 507.5 -406.83334 513.8334 -388.3333 517.50006 -369.00003 C 521.1667 -349.66666 523 -329.99997 523 -310 L 523 -218.00002 L 173.00002 -218.00002 L 173.00002 -210.00002 C 173.00002 -198 174.00002 -186.16666 176.00002 -174.5 C 178 -162.83333 181.5 -151.66667 186.50002 -141 C 191.50002 -130.33333 198.16667 -120.666664 206.50002 -112 C 214.83333 -103.333336 224.16666 -96.16667 234.5 -90.50001 C 244.83331 -84.83333 255.83333 -81 267.5 -79 C 279.1667 -77.00001 291 -76.00001 303 -76.00001 C 315.6667 -76.00001 328.5 -77.00001 341.5 -79 C 354.5 -81 367 -84.66667 379 -90 C 390.99997 -95.33333 401.33334 -103.33333 410.00003 -114.00001 C 418.66666 -124.66667 423.66666 -136.33333 425 -149 L 521 -149 C 519.6667 -132.33334 515.8334 -116.166664 509.50003 -100.5 C 503.1667 -84.833336 494.49997 -70.83334 483.50003 -58.500004 C 472.50003 -46.166668 460 -35.5 446 -26.500002 C 432 -17.5 417 -10.5 401.00003 -5.5000005 C 385 -0.5000002 368.6667 3 352.00003 5.0000005 C 335.33334 7 319 8 303 8 Z M 427.00003 -302.00003 L 427.00003 -310 C 427 -322 426 -333.6667 424.00003 -345.00003 C 422.00003 -356.33334 418.6667 -367.33334 414.00003 -378.00003 C 409.3333 -388.6667 403 -398.33334 395 -407 C 387.00003 -415.66666 377.83334 -422.83334 367.5 -428.50003 C 357.1667 -434.16666 346.33334 -438.1667 335 -440.50003 C 323.66666 -442.83337 312 -444 300 -444.00003 C 288 -444 276.33334 -442.83337 265.00003 -440.50003 C 253.66667 -438.1667 242.83334 -434.16666 232.50002 -428.50003 C 222.16666 -422.83334 213 -415.66666 205.00002 -407 C 197 -398.33334 190.66666 -388.6667 186 -378.00003 C 181.33333 -367.33334 178 -356.33334 176.00002 -345.00003 C 174.00002 -333.6667 173.00002 -322 173.00002 -310 L 173.00002 -302.00003 Z " id="path2"/><path d="M 99.00001 0 L 99.00001 -84.00001 L 260.00003 -84.00001 L 260.00003 -651 L 115 -651 L 115 -735 L 356 -735 L 356 -84.00001 L 501.00006 -84.00001 L 501.00006 0 Z " id="path3"/><path d="M 247.00002 8 C 233.00002 8 218.83334 7 204.5 5.0000005 C 190.16669 3 176.33334 -0.66666675 163 -6 C 149.66667 -11.333333 137.33333 -18.666666 126 -28 C 114.66667 -37.333336 105.333336 -48 98.00001 -60.000004 C 90.666664 -72 85.333336 -85 82 -99.00001 C 78.66667 -113.00001 77.00001 -127.33334 77.00001 -142 C 77.00001 -160.66667 80 -179 86 -197.00002 C 92 -215 101.333336 -230.83334 114.00001 -244.50002 C 126.666664 -258.16666 141.5 -269.33334 158.5 -278.00003 C 175.5 -286.66666 193.00002 -293.5 211.00002 -298.5 C 229 -303.5 247.16666 -306.83334 265.5 -308.50003 C 283.8333 -310.1667 302.33334 -311.00003 321 -311.00003 L 419.00003 -311.00003 L 419.00003 -348.00003 C 419 -362.66666 415.83334 -376.8333 409.50003 -390.5 C 403.16666 -404.16666 394 -415 382.00003 -423 C 370 -431 356.6667 -436.5 342 -439.50003 C 327.33334 -442.50003 312.6667 -444 298 -444.00003 C 284.6667 -444 271.33334 -442.83337 258.00003 -440.50003 C 244.66667 -438.1667 232 -433.66666 220.00002 -427.00003 C 208 -420.3333 198.16667 -411.16666 190.5 -399.5 C 182.83333 -387.8333 178.99998 -375.33334 179 -362.00003 L 83.00001 -362.00003 C 83.00001 -378.66666 85.833336 -395.33334 91.50001 -412.00003 C 97.166664 -428.66666 105.166664 -443.66666 115.5 -457.00003 C 125.833336 -470.33334 138.16667 -481.6667 152.5 -491.00003 C 166.83334 -500.3333 182.00002 -507.83337 198.00002 -513.50006 C 214.00002 -519.1667 230.50002 -523 247.50002 -525.00006 C 264.50003 -526.99994 281.3333 -528 298 -528 C 316 -528 333.83334 -526.8333 351.5 -524.5 C 369.1667 -522.1667 386.33334 -518 403.00003 -512 C 419.6667 -505.99997 435.33334 -497.66666 450.00003 -487.00003 C 464.66666 -476.3333 477 -463.6667 487.00003 -449.00003 C 497 -434.3333 504.16672 -418.33334 508.50003 -401.00003 C 512.8334 -383.6667 515 -366 515.00006 -348.00003 L 515.00006 0 L 419.00003 0 L 419.00003 -87.00001 C 410.99997 -71 401 -56.833336 389.00003 -44.5 C 377.00003 -32.166668 363.1667 -22 347.50003 -14 C 331.83334 -6 315.5 -0.33333328 298.5 3 C 281.49997 6.3333335 264.33334 8 247.00002 8 Z M 284 -76.00001 C 300.6667 -76.00001 317.1667 -77.833336 333.50003 -81.5 C 349.83334 -85.166664 364.66666 -92 378.00003 -102.00001 C 391.33334 -112 401.5 -124.833336 408.50003 -140.50002 C 415.5 -156.16667 419 -172.33333 419.00003 -189.00002 L 419.00003 -228.00002 L 321 -228.00002 C 311.00003 -228 300.83334 -227.66667 290.5 -227.00002 C 280.16666 -226.33334 269.99997 -225.00002 260.00003 -223 C 250 -221 240 -218.5 230 -215.50002 C 220 -212.5 210.66667 -208.33334 202 -203.00002 C 193.33334 -197.66667 186.33334 -190.33334 181.00002 -181.00002 C 175.66667 -171.66667 173.00002 -162 173.00002 -152.00002 C 173.00002 -139.33334 176.5 -127.5 183.5 -116.50001 C 190.5 -105.5 199.50002 -97 210.50002 -91.00001 C 221.50002 -85 233.33333 -81 246 -79 C 258.66666 -77.00001 271.33334 -76.00001 284 -76.00001 Z " id="path4"/><path d="" id="path6"/></defs><g><g fill="#ffffff" transform="translate(16 23.5664) rotate(0)"><use href="#path1" transform="translate(0 0) scale(0.016)"/><use href="#path2" transform="translate(9.6 0) scale(0.016)"/><use href="#path3" transform="translate(19.2 0) scale(0.016)"/><use href="#path2" transform="translate(28.800001 0) scale(0.016)"/><use href="#path4" transform="translate(38.4 0) scale(0.016)"/><use href="#path5" transform="translate(48 0) scale(0.016)"/><use href="#path2" transform="translate(57.6 0) scale(0.016)"/><use href="#path6" transform="translate(67.2 0) scale(0.016)"/></g><g fill="#03aee9" transform="translate(92.799995 23.5664) rotate(0)"><use href="#path7" transform="translate(0 0) scale(0.016)"/><use href="#path8" transform="translate(9.6 0) scale(0.016)"/><use href="#path9" transform="translate(19.2 0) scale(0.016)"/><use href="#path8" transform="translate(28.800001 0) scale(0.016)"/><use href="#path9" transform="translate(38.4 0) scale(0.016)"/><use href="#path10" transform="translate(48 0) scale(0.016)"/></g></g></svg>