<?xml version="1.0" encoding="UTF-8" standalone="no"?>
<svg height="360" viewBox="0 0 1296 360" width="1296" xmlns="http://www.w3.org/2000/svg">
<defs>
<path d="M 250 8 Q 223 8 196 3 Q 169 -2 145 -15 Q 121 -28 102.5 -48.5 Q 84 -69 72.5 -94 Q 61 -119 56.5 -146 Q 52 -173 52 -200 L 52 -535 Q 52 -562 56.5 -589 Q 61 -616 72.5 -641 Q 84 -666 102.5 -686.5 Q 121 -707 145 -720 Q 169 -733 196 -738 Q 223 -743 250 -743 Q 277 -743 304 -738 Q 331 -733 355 -720 Q 379 -707 397.5 -686.5 Q 416 -666 427.5 -641 Q 439 -616 443.5 -589 Q 448 -562 448 -535 L 448 -200 Q 448 -173 443.5 -146 Q 439 -119 427.5 -94 Q 416 -69 397.5 -48.5 Q 379 -28 355 -15 Q 331 -2 304 3 Q 277 8 250 8 Z M 152 -338 L 348 -493 L 348 -535 Q 348 -557 343 -579 Q 338 -601 325.5 -618.5 Q 313 -636 292.5 -645.5 Q 272 -655 250 -655 Q 228 -655 207.5 -645.5 Q 187 -636 174.5 -618.5 Q 162 -601 157 -579 Q 152 -557 152 -535 Z M 250 -80 Q 272 -80 292.5 -89.5 Q 313 -99 325.5 -116.5 Q 338 -134 343 -156 Q 348 -178 348 -200 L 348 -397 L 152 -242 L 152 -200 Q 152 -178 157 -156 Q 162 -134 174.5 -116.5 Q 187 -99 207.5 -89.5 Q 228 -80 250 -80 Z " id="path1"/>
<path d="M 230 0 L 230 -632 L 110 -528 L 55 -584 L 230 -735 L 330 -735 L 330 0 Z " id="path2"/>
<path d="M 60 0 L 60 -1 Q 60 -27 61 -54 Q 62 -81 65.5 -107 Q 69 -133 77 -158.5 Q 85 -184 96.5 -208 Q 108 -232 123 -253.5 Q 138 -275 156 -294.5 Q 174 -314 194 -331 Q 214 -348 235.5 -364 Q 257 -380 277.5 -397 Q 298 -414 313 -435.5 Q 328 -457 336 -483 Q 344 -509 344 -535 Q 344 -557 339.5 -578 Q 335 -599 323.5 -617 Q 312 -635 292 -645 Q 272 -655 251 -655 Q 231 -655 212.5 -647.5 Q 194 -640 181.5 -625 Q 169 -610 163.5 -591 Q 158 -572 158 -552 L 158 -548 L 58 -548 L 58 -555 Q 58 -581 63.5 -606 Q 69 -631 81 -653 Q 93 -675 111.5 -693 Q 130 -711 152.5 -722.5 Q 175 -734 200.5 -738.5 Q 226 -743 251 -743 Q 278 -743 304.5 -737.5 Q 331 -732 354.5 -719 Q 378 -706 396 -685.5 Q 414 -665 425 -640.5 Q 436 -616 440 -589 Q 444 -562 444 -535 Q 444 -501 435 -468 Q 426 -435 407.5 -406 Q 389 -377 364 -353.5 Q 339 -330 312.5 -308.5 Q 286 -287 261 -264 Q 236 -241 216 -213 Q 196 -185 183 -153.5 Q 170 -122 165 -88 L 440 -88 L 440 0 Z " id="path3"/>
<path d="M 253 8 Q 227 8 201 4 Q 175 -0 151 -11.5 Q 127 -23 107.5 -40.5 Q 88 -58 75.5 -81 Q 63 -104 56.5 -129.5 Q 50 -155 50 -181 L 50 -187 L 150 -187 L 150 -184 Q 150 -163 157 -143 Q 164 -123 178 -108 Q 192 -93 212 -86.5 Q 232 -80 253 -80 Q 275 -80 296 -88.5 Q 317 -97 330.5 -114.5 Q 344 -132 350 -154 Q 356 -176 356 -198 Q 356 -217 352 -235.5 Q 348 -254 339 -271 Q 330 -288 316.5 -301 Q 303 -314 286 -322 Q 269 -330 250 -332 Q 231 -334 212 -334 L 212 -422 Q 229 -422 246 -424 Q 263 -426 278.5 -433 Q 294 -440 306 -452.5 Q 318 -465 325.5 -480.5 Q 333 -496 336.5 -513 Q 340 -530 340 -547 Q 340 -566 335.5 -585.5 Q 331 -605 320 -621.5 Q 309 -638 291 -646.5 Q 273 -655 253 -655 Q 234 -655 216 -647 Q 198 -639 187 -624 Q 176 -609 171 -590 Q 166 -571 166 -553 L 166 -548 L 66 -548 L 66 -556 Q 66 -581 71.5 -605.5 Q 77 -630 88 -652 Q 99 -674 116.5 -692.5 Q 134 -711 156.5 -722.5 Q 179 -734 203.5 -738.5 Q 228 -743 253 -743 Q 278 -743 303.5 -738 Q 329 -733 351 -721 Q 373 -709 390.5 -690 Q 408 -671 419 -648 Q 430 -625 435 -600 Q 440 -575 440 -550 Q 440 -524 434 -498.5 Q 428 -473 416 -450.5 Q 404 -428 385 -409.5 Q 366 -391 343 -379 Q 370 -368 391.5 -348.5 Q 413 -329 427.5 -304.5 Q 442 -280 449 -252 Q 456 -224 456 -196 Q 456 -168 450 -141.5 Q 444 -115 432 -91 Q 420 -67 401 -47 Q 382 -27 358 -14.5 Q 334 -2 307 3 Q 280 8 253 8 Z " id="path4"/>
<path d="M 282 0 L 282 -188 L 52 -188 L 52 -275 L 276 -735 L 377 -735 L 152 -275 L 282 -275 L 282 -435 L 383 -435 L 383 -275 L 440 -275 L 440 -188 L 383 -188 L 383 0 Z " id="path5"/>
<path d="M 252 8 Q 227 8 202.5 3.5 Q 178 -1 155.5 -12 Q 133 -23 114.5 -41 Q 96 -59 84 -80.5 Q 72 -102 65.5 -126.5 Q 59 -151 58 -176 L 159 -176 Q 160 -158 166.5 -139.5 Q 173 -121 185.5 -107 Q 198 -93 216 -86.5 Q 234 -80 252 -80 Q 269 -80 285 -87 Q 301 -94 312.5 -107 Q 324 -120 330.5 -135.5 Q 337 -151 341 -167.5 Q 345 -184 346.5 -201 Q 348 -218 348 -235 Q 348 -252 346.5 -269 Q 345 -286 341.5 -302.5 Q 338 -319 331.5 -334.5 Q 325 -350 314.5 -363 Q 304 -376 288 -383.5 Q 272 -391 256 -391 Q 240 -391 224 -387 Q 208 -383 195.5 -373.5 Q 183 -364 176 -349.5 Q 169 -335 168 -319 L 68 -319 L 68 -735 L 421 -735 L 421 -647 L 168 -647 L 168 -464 Q 189 -472 211 -475 Q 233 -478 256 -478 Q 285 -478 313.5 -470.5 Q 342 -463 365.5 -445.5 Q 389 -428 405.5 -403 Q 422 -378 431.5 -350.5 Q 441 -323 444.5 -294 Q 448 -265 448 -235 Q 448 -206 444.5 -176.5 Q 441 -147 431 -119 Q 421 -91 404.5 -66.5 Q 388 -42 364 -24.5 Q 340 -7 311 0.5 Q 282 8 252 8 Z " id="path6"/>
<path d="M 250 8 Q 221 8 192.5 1.5 Q 164 -5 140 -21 Q 116 -37 98.5 -60.5 Q 81 -84 70.5 -111 Q 60 -138 56 -166.5 Q 52 -195 52 -224 Q 52 -268 59.5 -311 Q 67 -354 81 -395.5 Q 95 -437 113 -477 Q 131 -517 150 -556 L 238 -735 L 347 -735 L 240 -517 Q 228 -492 216 -467 Q 204 -442 194 -416 Q 212 -436 238.5 -446 Q 265 -456 292 -456 Q 318 -456 343.5 -447 Q 369 -438 387.5 -419.5 Q 406 -401 418 -377 Q 430 -353 436.5 -328 Q 443 -303 445.5 -276.5 Q 448 -250 448 -224 Q 448 -195 444 -166.5 Q 440 -138 429.5 -111 Q 419 -84 401.5 -60.5 Q 384 -37 360 -21 Q 336 -5 307.5 1.5 Q 279 8 250 8 Z M 250 -80 Q 266 -80 282 -85.5 Q 298 -91 309.5 -102.5 Q 321 -114 328.5 -129 Q 336 -144 340.5 -159.5 Q 345 -175 346.5 -191.5 Q 348 -208 348 -224 Q 348 -240 346.5 -256.5 Q 345 -273 340.5 -289 Q 336 -305 328.5 -319.5 Q 321 -334 309.5 -345.5 Q 298 -357 282 -362.5 Q 266 -368 250 -368 Q 235 -368 221 -363.5 Q 207 -359 195.5 -349.5 Q 184 -340 176 -327.5 Q 168 -315 163.5 -301 Q 159 -287 156.5 -272.5 Q 154 -258 153 -243 Q 153 -238 152.5 -233.5 Q 152 -229 152 -224 Q 152 -208 153.5 -191.5 Q 155 -175 159.5 -159.5 Q 164 -144 171.5 -129 Q 179 -114 190.5 -102.5 Q 202 -91 218 -85.5 Q 234 -80 250 -80 Z " id="path7"/>
<path d="M 138 0 L 336 -647 L 60 -647 L 60 -735 L 440 -735 L 440 -647 L 242 0 Z " id="path8"/>
<path d="M 250 8 Q 225 8 200 4 Q 175 -0 152 -10 Q 129 -20 109.5 -37 Q 90 -54 77.5 -75.5 Q 65 -97 58.5 -121.5 Q 52 -146 52 -172 Q 52 -203 61.5 -232.5 Q 71 -262 88 -288.5 Q 105 -315 127 -336.5 Q 149 -358 174 -378 Q 152 -396 132.5 -417 Q 113 -438 98.5 -462.5 Q 84 -487 76 -514.5 Q 68 -542 68 -570 Q 68 -594 73.5 -617.5 Q 79 -641 90.5 -661.5 Q 102 -682 119.5 -698.5 Q 137 -715 158 -725 Q 179 -735 202.5 -739 Q 226 -743 250 -743 Q 274 -743 297.5 -739 Q 321 -735 342 -725 Q 363 -715 380.5 -698.5 Q 398 -682 409.5 -661.5 Q 421 -641 426.5 -617.5 Q 432 -594 432 -570 Q 432 -542 424 -514.5 Q 416 -487 401.5 -462.5 Q 387 -438 367.5 -417 Q 348 -396 326 -378 Q 351 -358 373 -336.5 Q 395 -315 412 -288.5 Q 429 -262 438.5 -232.5 Q 448 -203 448 -172 Q 448 -146 441.5 -121.5 Q 435 -97 422.5 -75.5 Q 410 -54 390.5 -37 Q 371 -20 348 -10 Q 325 -0 300 4 Q 275 8 250 8 Z M 250 -434 Q 266 -447 280.5 -461.5 Q 295 -476 306.5 -493 Q 318 -510 325 -529.5 Q 332 -549 332 -569 Q 332 -586 327 -602.5 Q 322 -619 310.5 -631.5 Q 299 -644 283 -649.5 Q 267 -655 250 -655 Q 233 -655 217 -649.5 Q 201 -644 189.5 -631.5 Q 178 -619 173 -602.5 Q 168 -586 168 -569 Q 168 -549 175 -529.5 Q 182 -510 193.5 -493 Q 205 -476 219.5 -461.5 Q 234 -447 250 -434 Z M 250 -80 Q 269 -80 288 -85.5 Q 307 -91 320.5 -104 Q 334 -117 341 -135.5 Q 348 -154 348 -173 Q 348 -196 339.5 -217.5 Q 331 -239 317 -257.5 Q 303 -276 285.5 -291 Q 268 -306 250 -320 Q 232 -306 214.5 -291 Q 197 -276 183 -257.5 Q 169 -239 160.5 -217.5 Q 152 -196 152 -173 Q 152 -154 159 -135.5 Q 166 -117 179.5 -104 Q 193 -91 212 -85.5 Q 231 -80 250 -80 Z " id="path9"/>
<path d="M 262 0 L 153 0 L 260 -218 Q 272 -243 284 -268 Q 296 -293 306 -319 Q 288 -299 261.5 -289 Q 235 -279 208 -279 Q 182 -279 156.5 -288 Q 131 -297 112.5 -315.5 Q 94 -334 82 -358 Q 70 -382 63.5 -407 Q 57 -432 54.5 -458.5 Q 52 -485 52 -511 Q 52 -540 56 -568.5 Q 60 -597 70.5 -624 Q 81 -651 98.5 -674.5 Q 116 -698 140 -714 Q 164 -730 192.5 -736.5 Q 221 -743 250 -743 Q 279 -743 307.5 -736.5 Q 336 -730 360 -714 Q 384 -698 401.5 -674.5 Q 419 -651 429.5 -624 Q 440 -597 444 -568.5 Q 448 -540 448 -511 Q 448 -467 440.5 -424 Q 433 -381 419 -339.5 Q 405 -298 387 -258 Q 369 -218 350 -179 Z M 250 -367 Q 265 -367 279 -371.5 Q 293 -376 304.5 -385.5 Q 316 -395 324 -407.5 Q 332 -420 336.5 -434 Q 341 -448 343.5 -462.5 Q 346 -477 347 -492 Q 347 -497 347.5 -501.5 Q 348 -506 348 -511 Q 348 -527 346.5 -543.5 Q 345 -560 340.5 -575.5 Q 336 -591 328.5 -606 Q 321 -621 309.5 -632.5 Q 298 -644 282 -649.5 Q 266 -655 250 -655 Q 234 -655 218 -649.5 Q 202 -644 190.5 -632.5 Q 179 -621 171.5 -606 Q 164 -591 159.5 -575.5 Q 155 -560 153.5 -543.5 Q 152 -527 152 -511 Q 152 -495 153.5 -478.5 Q 155 -462 159.5 -446 Q 164 -430 171.5 -415.5 Q 179 -401 190.5 -389.5 Q 202 -378 218 -372.5 Q 234 -367 250 -367 Z " id="path10"/>
<path d="M 39 0 L 53 -70 L 192 -735 L 308 -735 L 461 0 L 359 0 L 326 -172 L 174 -172 L 141 0 Z M 310 -260 L 267 -490 Q 263 -513 258.5 -536 Q 254 -559 250 -582 Q 246 -559 241.5 -536 Q 237 -513 233 -490 L 190 -260 Z " id="path11"/>
<path d="M 60 0 L 60 -735 L 235 -735 Q 261 -735 287 -730.5 Q 313 -726 336.5 -714 Q 360 -702 378.5 -682.5 Q 397 -663 408.5 -639.5 Q 420 -616 424.5 -590 Q 429 -564 429 -538 Q 429 -515 425.5 -492 Q 422 -469 411.5 -448.5 Q 401 -428 384.5 -411 Q 368 -394 348 -383 Q 373 -373 394.5 -355.5 Q 416 -338 430.5 -314.5 Q 445 -291 450.5 -264 Q 456 -237 456 -210 Q 456 -181 450.5 -152.5 Q 445 -124 431 -98.5 Q 417 -73 395.5 -53.5 Q 374 -34 347.5 -21.5 Q 321 -9 292.5 -4.5 Q 264 -0 235 0 Z M 160 -424 L 235 -424 Q 256 -424 275.5 -432.5 Q 295 -441 307.5 -457.5 Q 320 -474 324.5 -494.5 Q 329 -515 329 -536 Q 329 -557 324.5 -577.5 Q 320 -598 307.5 -614.5 Q 295 -631 275.5 -639 Q 256 -647 235 -647 L 160 -647 Z M 160 -88 L 235 -88 Q 251 -88 267.5 -91 Q 284 -94 298.5 -101.5 Q 313 -109 324.5 -121 Q 336 -133 343 -148 Q 350 -163 353 -179 Q 356 -195 356 -212 Q 356 -228 353 -244.5 Q 350 -261 343 -276 Q 336 -291 324.5 -303 Q 313 -315 298.5 -322.5 Q 284 -330 267.5 -333 Q 251 -336 235 -336 L 160 -336 Z " id="path12"/>
<path d="M 247 8 Q 220 8 193 3 Q 166 -2 142.5 -15.5 Q 119 -29 101 -49.5 Q 83 -70 71.5 -94.5 Q 60 -119 56 -146 Q 52 -173 52 -200 L 52 -535 Q 52 -562 56 -589 Q 60 -616 71.5 -640.5 Q 83 -665 101 -685.5 Q 119 -706 142.5 -719.5 Q 166 -733 193 -738 Q 220 -743 247 -743 Q 273 -743 298 -738.5 Q 323 -734 346 -723 Q 369 -712 387.5 -694 Q 406 -676 418 -653.5 Q 430 -631 436 -606 Q 442 -581 442 -555 L 442 -548 L 342 -548 L 342 -552 Q 342 -572 336 -591.5 Q 330 -611 317.5 -626 Q 305 -641 286 -648 Q 267 -655 247 -655 Q 225 -655 205 -645.5 Q 185 -636 173 -618 Q 161 -600 156.5 -578.5 Q 152 -557 152 -535 L 152 -200 Q 152 -178 156.5 -156.5 Q 161 -135 173 -117 Q 185 -99 205 -89.5 Q 225 -80 247 -80 Q 267 -80 286 -87 Q 305 -94 317.5 -109 Q 330 -124 336 -143.5 Q 342 -163 342 -183 L 342 -187 L 442 -187 L 442 -180 Q 442 -154 436 -129 Q 430 -104 418 -81.5 Q 406 -59 387.5 -41 Q 369 -23 346 -12 Q 323 -1 298 3.5 Q 273 8 247 8 Z " id="path13"/>
<path d="M 60 0 L 60 -735 L 220 -735 Q 250 -735 280 -730 Q 310 -725 337 -712 Q 364 -699 386.5 -678.5 Q 409 -658 423 -631.5 Q 437 -605 442.5 -575 Q 448 -545 448 -515 L 448 -220 Q 448 -190 442.5 -160 Q 437 -130 423 -103.5 Q 409 -77 386.5 -56.5 Q 364 -36 337 -23 Q 310 -10 280 -5 Q 250 -0 220 0 Z M 160 -88 L 220 -88 Q 237 -88 254.5 -91 Q 272 -94 287.5 -102.5 Q 303 -111 315 -124 Q 327 -137 334.5 -152.5 Q 342 -168 345 -185.5 Q 348 -203 348 -220 L 348 -515 Q 348 -532 345 -549.5 Q 342 -567 334.5 -582.5 Q 327 -598 315 -611 Q 303 -624 287.5 -632.5 Q 272 -641 254.5 -644 Q 237 -647 220 -647 L 160 -647 Z " id="path14"/>
<path d="M 68 0 L 68 -735 L 440 -735 L 440 -647 L 168 -647 L 168 -426 L 383 -426 L 383 -338 L 168 -338 L 168 -88 L 440 -88 L 440 0 Z " id="path15"/>
<path d="M 90 0 L 90 -735 L 440 -735 L 440 -647 L 190 -647 L 190 -426 L 383 -426 L 383 -338 L 190 -338 L 190 0 Z " id="path16"/>
<path d="M 250 8 Q 223 8 196.5 2.5 Q 170 -3 147 -16.5 Q 124 -30 106.5 -50.5 Q 89 -71 78.5 -95.5 Q 68 -120 64 -146.5 Q 60 -173 60 -200 L 60 -735 L 160 -735 L 160 -200 Q 160 -186 161.5 -172 Q 163 -158 167.5 -144.5 Q 172 -131 179.5 -118.5 Q 187 -106 197.5 -97 Q 208 -88 222 -84 Q 236 -80 250 -80 Q 264 -80 278 -84 Q 292 -88 302.5 -97 Q 313 -106 320.5 -118.5 Q 328 -131 332.5 -144.5 Q 337 -158 338.5 -172 Q 340 -186 340 -200 L 340 -735 L 440 -735 L 440 -200 Q 440 -173 436 -146.5 Q 432 -120 421.5 -95.5 Q 411 -71 393.5 -50.5 Q 376 -30 353 -16.5 Q 330 -3 303.5 2.5 Q 277 8 250 8 Z " id="path17"/>
<path d="M 296 -142 L 204 -142 L 204 -300 L 60 -300 L 60 -380 L 204 -380 L 204 -538 L 296 -538 L 296 -380 L 440 -380 L 440 -300 L 296 -300 Z " id="path18"/>
<path d="M 76 -530 L 76 -806 L 129 -806 L 192 -625 Q 189 -642 188 -660 Q 187 -678 187 -695 L 187 -806 L 240 -806 L 240 -530 L 186 -530 L 123 -711 Q 126 -693 127.5 -675.5 Q 129 -658 129 -640 L 129 -530 Z M 250 -199 Q 234 -199 218.5 -203 Q 203 -207 191 -217.5 Q 179 -228 173.5 -243.5 Q 168 -259 168 -275 L 168 -478 L 221 -478 L 221 -275 Q 221 -269 222.5 -263.5 Q 224 -258 228.5 -254 Q 233 -250 238.5 -248.5 Q 244 -247 250 -247 Q 256 -247 261.5 -248.5 Q 267 -250 271 -254 Q 275 -258 277 -263.5 Q 279 -269 279 -275 L 279 -478 L 331 -478 L 331 -275 Q 331 -259 326 -243.5 Q 321 -228 309 -217.5 Q 297 -207 281.5 -203 Q 266 -199 250 -199 Z M 267 125 L 267 -151 L 320 -151 L 320 77 L 427 77 L 427 125 Z " id="path19"/>
<path d="M 157 -527 Q 142 -527 126.5 -530.5 Q 111 -534 98.5 -543 Q 86 -552 79 -566 Q 72 -580 72 -595 L 72 -598 L 125 -598 L 125 -597 Q 125 -591 128 -586.5 Q 131 -582 136 -579 Q 141 -576 146.5 -575.5 Q 152 -575 157 -575 Q 163 -575 169 -576 Q 175 -577 180 -580.5 Q 185 -584 187.5 -589.5 Q 190 -595 190 -601 Q 190 -613 181.5 -622 Q 173 -631 162.5 -636.5 Q 152 -642 141.5 -646.5 Q 131 -651 121 -657.5 Q 111 -664 103 -672.5 Q 95 -681 89 -691 Q 83 -701 79.5 -712 Q 76 -723 76 -735 Q 76 -751 82 -765.5 Q 88 -780 100 -790.5 Q 112 -801 127.5 -805 Q 143 -809 158 -809 Q 173 -809 188 -805.5 Q 203 -802 215 -792.5 Q 227 -783 233.5 -769 Q 240 -755 240 -740 L 240 -738 L 187 -738 L 187 -739 Q 187 -744 184.5 -748.5 Q 182 -753 178 -756 Q 174 -759 168.5 -760 Q 163 -761 158 -761 Q 153 -761 147.5 -759.5 Q 142 -758 137.5 -754.5 Q 133 -751 131 -745.5 Q 129 -740 129 -735 Q 129 -723 137 -713.5 Q 145 -704 155.5 -699 Q 166 -694 177 -689.5 Q 188 -685 197.5 -678.5 Q 207 -672 215 -663.5 Q 223 -655 229.5 -645 Q 236 -635 239.5 -623.5 Q 243 -612 243 -601 Q 243 -585 236 -570 Q 229 -555 217 -545 Q 205 -535 189 -531 Q 173 -527 157 -527 Z M 250 -199 Q 234 -199 217.5 -203 Q 201 -207 189 -217.5 Q 177 -228 171 -243.5 Q 165 -259 165 -275 L 165 -405 Q 165 -421 171 -436.5 Q 177 -452 189 -462.5 Q 201 -473 217.5 -477 Q 234 -481 250 -481 Q 266 -481 282 -477 Q 298 -473 310.5 -462.5 Q 323 -452 329 -436.5 Q 335 -421 335 -405 L 335 -275 Q 335 -259 329 -243.5 Q 323 -228 310.5 -217.5 Q 298 -207 282 -203 Q 266 -199 250 -199 Z M 250 -247 Q 256 -247 262 -248.5 Q 268 -250 272.5 -253.5 Q 277 -257 279.5 -263 Q 282 -269 282 -275 L 282 -405 Q 282 -411 279.5 -416.5 Q 277 -422 272.5 -426 Q 268 -430 262 -431.5 Q 256 -433 250 -433 Q 244 -433 238 -431.5 Q 232 -430 227 -426 Q 222 -422 220 -416.5 Q 218 -411 218 -405 L 218 -275 Q 218 -269 220 -263 Q 222 -257 227 -253.5 Q 232 -250 238 -248.5 Q 244 -247 250 -247 Z M 261 125 L 261 -151 L 314 -151 L 314 -39 L 372 -39 L 372 -151 L 425 -151 L 425 125 L 372 125 L 372 8 L 314 8 L 314 125 Z " id="path20"/>
<path d="M 157 -527 Q 142 -527 126.5 -530.5 Q 111 -534 98.5 -543 Q 86 -552 79 -566 Q 72 -580 72 -595 L 72 -598 L 125 -598 L 125 -597 Q 125 -591 128 -586.5 Q 131 -582 136 -579 Q 141 -576 146.5 -575.5 Q 152 -575 157 -575 Q 163 -575 169 -576 Q 175 -577 180 -580.5 Q 185 -584 187.5 -589.5 Q 190 -595 190 -601 Q 190 -613 181.5 -622 Q 173 -631 162.5 -636.5 Q 152 -642 141.5 -646.5 Q 131 -651 121 -657.5 Q 111 -664 103 -672.5 Q 95 -681 89 -691 Q 83 -701 79.5 -712 Q 76 -723 76 -735 Q 76 -751 82 -765.5 Q 88 -780 100 -790.5 Q 112 -801 127.5 -805 Q 143 -809 158 -809 Q 173 -809 188 -805.5 Q 203 -802 215 -792.5 Q 227 -783 233.5 -769 Q 240 -755 240 -740 L 240 -738 L 187 -738 L 187 -739 Q 187 -744 184.5 -748.5 Q 182 -753 178 -756 Q 174 -759 168.5 -760 Q 163 -761 158 -761 Q 153 -761 147.5 -759.5 Q 142 -758 137.5 -754.5 Q 133 -751 131 -745.5 Q 129 -740 129 -735 Q 129 -723 137 -713.5 Q 145 -704 155.5 -699 Q 166 -694 177 -689.5 Q 188 -685 197.5 -678.5 Q 207 -672 215 -663.5 Q 223 -655 229.5 -645 Q 236 -635 239.5 -623.5 Q 243 -612 243 -601 Q 243 -585 236 -570 Q 229 -555 217 -545 Q 205 -535 189 -531 Q 173 -527 157 -527 Z M 223 -202 L 223 -430 L 166 -430 L 166 -478 L 334 -478 L 334 -430 L 276 -430 L 276 -202 Z M 256 125 L 319 -13 L 256 -151 L 313 -151 L 343 -74 L 372 -151 L 430 -151 L 367 -13 L 430 125 L 372 125 L 343 48 L 313 125 Z " id="path21"/>
<path d="M 79 -530 L 79 -806 L 240 -806 L 240 -758 L 132 -758 L 132 -697 L 215 -697 L 215 -650 L 132 -650 L 132 -578 L 240 -578 L 240 -530 Z M 223 -202 L 223 -430 L 166 -430 L 166 -478 L 334 -478 L 334 -430 L 276 -430 L 276 -202 Z M 256 125 L 319 -13 L 256 -151 L 313 -151 L 343 -74 L 372 -151 L 430 -151 L 367 -13 L 430 125 L 372 125 L 343 48 L 313 125 Z " id="path22"/>
<path d="M 79 -530 L 79 -806 L 240 -806 L 240 -758 L 132 -758 L 132 -697 L 215 -697 L 215 -650 L 132 -650 L 132 -578 L 240 -578 L 240 -530 Z M 250 -199 Q 234 -199 217.5 -203 Q 201 -207 189 -217.5 Q 177 -228 171 -243.5 Q 165 -259 165 -275 L 165 -405 Q 165 -421 171 -436.5 Q 177 -452 189 -462.5 Q 201 -473 217.5 -477 Q 234 -481 250 -481 Q 266 -481 282 -477 Q 298 -473 310.5 -462.5 Q 323 -452 329 -436.5 Q 335 -421 335 -405 L 335 -275 Q 335 -259 329 -243.5 Q 323 -228 310.5 -217.5 Q 298 -207 282 -203 Q 266 -199 250 -199 Z M 250 -247 Q 256 -247 262 -248.5 Q 268 -250 272.5 -253.5 Q 277 -257 279.5 -263 Q 282 -269 282 -275 L 282 -405 Q 282 -411 279.5 -416.5 Q 277 -422 272.5 -426 Q 268 -430 262 -431.5 Q 256 -433 250 -433 Q 244 -433 238 -431.5 Q 232 -430 227 -426 Q 222 -422 220 -416.5 Q 218 -411 218 -405 L 218 -275 Q 218 -269 220 -263 Q 222 -257 227 -253.5 Q 232 -250 238 -248.5 Q 244 -247 250 -247 Z M 316 125 L 316 -103 L 259 -103 L 259 -151 L 427 -151 L 427 -103 L 369 -103 L 369 125 Z " id="path23"/>
<path d="M 79 -530 L 79 -806 L 240 -806 L 240 -758 L 132 -758 L 132 -697 L 215 -697 L 215 -650 L 132 -650 L 132 -578 L 240 -578 L 240 -530 Z M 168 -202 L 168 -478 L 221 -478 L 284 -297 Q 281 -314 280 -332 Q 279 -350 279 -367 L 279 -478 L 332 -478 L 332 -202 L 278 -202 L 215 -383 Q 218 -365 219.5 -347.5 Q 221 -330 221 -312 L 221 -202 Z M 390 192 Q 377 192 364 188.5 Q 351 185 341 175.5 Q 331 166 327 153 Q 323 140 323 127 Q 309 125 296.5 119 Q 284 113 275 102.5 Q 266 92 262 79 Q 258 66 258 52 L 258 -78 Q 258 -94 264 -109.5 Q 270 -125 282 -135.5 Q 294 -146 310.5 -150 Q 327 -154 343 -154 Q 359 -154 375 -150 Q 391 -146 403.5 -135.5 Q 416 -125 422 -109.5 Q 428 -94 428 -78 L 428 52 Q 428 64 425 76 Q 422 88 415 97.5 Q 408 107 397.5 114 Q 387 121 376 124 L 376 125 Q 376 132 379.5 138.5 Q 383 145 390 145 L 407 145 L 407 192 Z M 343 80 Q 349 80 355 78.5 Q 361 77 365.5 73.5 Q 370 70 372.5 64 Q 375 58 375 52 L 375 -78 Q 375 -84 372.5 -89.5 Q 370 -95 365.5 -99 Q 361 -103 355 -104.5 Q 349 -106 343 -106 Q 337 -106 331 -104.5 Q 325 -103 320 -99 Q 315 -95 313 -89.5 Q 311 -84 311 -78 L 311 52 Q 311 58 313 64 Q 315 70 320 73.5 Q 325 77 331 78.5 Q 337 80 343 80 Z " id="path24"/>
<path d="M 71 -530 L 127 -806 L 188 -806 L 245 -530 L 191 -530 L 183 -580 L 132 -580 L 124 -530 Z M 176 -627 L 162 -714 Q 161 -720 160 -726 Q 159 -732 158 -738 Q 157 -732 156 -726 Q 155 -720 154 -714 L 140 -627 Z M 249 -199 Q 233 -199 217 -203 Q 201 -207 188.5 -217.5 Q 176 -228 170.5 -243.5 Q 165 -259 165 -275 L 165 -405 Q 165 -421 170.5 -436.5 Q 176 -452 188.5 -462 Q 201 -472 217 -476.5 Q 233 -481 249 -481 Q 264 -481 279 -477.5 Q 294 -474 306.5 -465 Q 319 -456 325.5 -442 Q 332 -428 332 -412 L 332 -410 L 279 -410 L 279 -411 Q 279 -416 276.5 -421 Q 274 -426 269.5 -428.5 Q 265 -431 259.5 -432 Q 254 -433 249 -433 Q 243 -433 237 -431.5 Q 231 -430 226.5 -426 Q 222 -422 220 -416 Q 218 -410 218 -405 L 218 -275 Q 218 -269 220 -263.5 Q 222 -258 226.5 -254 Q 231 -250 237 -248.5 Q 243 -247 249 -247 Q 254 -247 259.5 -248 Q 265 -249 269.5 -251.5 Q 274 -254 276.5 -258.5 Q 279 -263 279 -269 L 279 -270 L 332 -270 L 332 -267 Q 332 -252 325.5 -238 Q 319 -224 306.5 -215 Q 294 -206 279 -202.5 Q 264 -199 249 -199 Z M 377 125 L 333 24 L 320 48 L 320 125 L 267 125 L 267 -151 L 320 -151 L 320 -42 L 375 -151 L 433 -151 L 361 -25 L 433 125 Z " id="path25"/>
<path d="M 161 -530 L 76 -530 L 76 -806 L 161 -806 Q 176 -806 191 -800.5 Q 206 -795 216 -784 Q 226 -773 230 -758 Q 234 -743 234 -728 Q 234 -713 228.5 -698 Q 223 -683 210 -674 Q 219 -670 226 -663.5 Q 233 -657 237.5 -648.5 Q 242 -640 244 -630.5 Q 246 -621 246 -612 Q 246 -595 240.5 -579 Q 235 -563 223 -551.5 Q 211 -540 194.5 -535 Q 178 -530 161 -530 Z M 129 -696 L 161 -696 Q 167 -696 171 -699 Q 175 -702 177.5 -707 Q 180 -712 180.5 -717 Q 181 -722 181 -727 Q 181 -732 180.5 -737.5 Q 180 -743 177.5 -747.5 Q 175 -752 171 -755 Q 167 -758 161 -758 L 129 -758 Z M 129 -578 L 161 -578 Q 168 -578 174.5 -580 Q 181 -582 185 -587.5 Q 189 -593 191 -599.5 Q 193 -606 193 -613 Q 193 -620 191 -626.5 Q 189 -633 185 -638.5 Q 181 -644 174.5 -646.5 Q 168 -649 161 -649 L 129 -649 Z M 171 -202 L 171 -478 L 332 -478 L 332 -430 L 224 -430 L 224 -369 L 307 -369 L 307 -322 L 224 -322 L 224 -250 L 332 -250 L 332 -202 Z M 267 125 L 267 -151 L 320 -151 L 320 77 L 427 77 L 427 125 Z " id="path26"/>
<path d="M 82 -392 L 82 -796 L 209 -796 Q 230 -796 251 -789 Q 272 -782 286.5 -766 Q 301 -750 307 -729 Q 313 -708 313 -686 Q 313 -674 311.5 -662 Q 310 -650 305 -639 Q 300 -628 292 -619 Q 284 -610 273 -603 Q 287 -597 298 -587.5 Q 309 -578 316.5 -565.5 Q 324 -553 327 -538.5 Q 330 -524 330 -509 Q 330 -493 327 -477 Q 324 -461 316.5 -447 Q 309 -433 297 -422 Q 285 -411 270.5 -404 Q 256 -397 240.5 -394.5 Q 225 -392 209 -392 Z M 144 -629 L 209 -629 Q 218 -629 227.5 -633.5 Q 237 -638 242.5 -646.5 Q 248 -655 249.5 -665 Q 251 -675 251 -685 Q 251 -695 249.5 -705 Q 248 -715 242.5 -723 Q 237 -731 227.5 -735.5 Q 218 -740 209 -740 L 144 -740 Z M 144 -448 L 209 -448 Q 221 -448 233 -452 Q 245 -456 253 -465 Q 261 -474 264.5 -486 Q 268 -498 268 -510 Q 268 -523 264.5 -535 Q 261 -547 253 -556 Q 245 -565 233 -569 Q 221 -573 209 -573 L 144 -573 Z M 298 120 Q 275 120 253 115.5 Q 231 111 212.5 98 Q 194 85 183.5 64 Q 173 43 173 20 L 173 17 L 235 17 L 235 18 Q 235 29 241 39 Q 247 49 256 54.5 Q 265 60 276 62 Q 287 64 298 64 Q 309 64 320.5 62 Q 332 60 341 53 Q 350 46 355.5 35.5 Q 361 25 361 14 Q 361 -4 349 -19 Q 337 -34 321 -42.5 Q 305 -51 288 -57 Q 271 -63 255.5 -72 Q 240 -81 226 -93 Q 212 -105 201 -119.5 Q 190 -134 184 -151.5 Q 178 -169 178 -187 Q 178 -209 187.5 -230.5 Q 197 -252 214.5 -266.5 Q 232 -281 254 -287 Q 276 -293 299 -293 Q 321 -293 343 -288 Q 365 -283 382.5 -269.5 Q 400 -256 410 -235.5 Q 420 -215 420 -193 L 420 -189 L 357 -189 L 357 -191 Q 357 -201 352.5 -210.5 Q 348 -220 339 -226 Q 330 -232 320 -234.5 Q 310 -237 299 -237 Q 288 -237 277.5 -234 Q 267 -231 258.5 -224.5 Q 250 -218 245.5 -207.5 Q 241 -197 241 -186 Q 241 -168 252.5 -153.5 Q 264 -139 280 -130 Q 296 -121 313 -115 Q 330 -109 346 -100 Q 362 -91 376 -79.5 Q 390 -68 400.5 -53.5 Q 411 -39 417 -21.5 Q 423 -4 423 14 Q 423 37 413 59 Q 403 81 385 95 Q 367 109 344 114.5 Q 321 120 298 120 Z " id="path27"/>
<path d="M 82 -392 L 82 -796 L 144 -796 L 144 -627 L 259 -627 L 259 -796 L 321 -796 L 321 -392 L 259 -392 L 259 -571 L 144 -571 L 144 -392 Z M 267 116 L 267 -232 L 175 -232 L 175 -288 L 422 -288 L 422 -232 L 330 -232 L 330 116 Z " id="path28"/>
<path d="M 90 -392 L 90 -796 L 152 -796 L 152 -448 L 325 -448 L 325 -392 Z M 187 116 L 187 -288 L 418 -288 L 418 -232 L 249 -232 L 249 -122 L 382 -122 L 382 -66 L 249 -66 L 249 116 Z " id="path29"/>
<path d="M 166 -392 L 135 -527 L 75 -796 L 138 -796 L 192 -527 Q 195 -515 197 -503.5 Q 199 -492 201 -481 Q 204 -492 206 -503.5 Q 208 -515 211 -527 L 265 -796 L 328 -796 L 237 -392 Z M 267 116 L 267 -232 L 175 -232 L 175 -288 L 422 -288 L 422 -232 L 330 -232 L 330 116 Z " id="path30"/>
<path d="M 90 -392 L 90 -796 L 321 -796 L 321 -740 L 152 -740 L 152 -630 L 285 -630 L 285 -574 L 152 -574 L 152 -392 Z M 187 116 L 187 -288 L 418 -288 L 418 -232 L 249 -232 L 249 -122 L 382 -122 L 382 -66 L 249 -66 L 249 116 Z " id="path31"/>
<path d="M 200 -388 Q 176 -388 153 -394 Q 130 -400 112 -415 Q 94 -430 85.5 -453 Q 77 -476 77 -499 L 77 -689 Q 77 -713 85.5 -735.5 Q 94 -758 112 -773.5 Q 130 -789 153 -795 Q 176 -801 200 -801 Q 222 -801 244 -796 Q 266 -791 284 -777.5 Q 302 -764 312.5 -743.5 Q 323 -723 323 -701 L 323 -697 L 260 -697 L 260 -699 Q 260 -709 255 -719 Q 250 -729 241 -735 Q 232 -741 221.5 -743 Q 211 -745 200 -745 Q 188 -745 176.5 -742 Q 165 -739 156 -731 Q 147 -723 143 -712 Q 139 -701 139 -689 L 139 -499 Q 139 -488 143 -476.5 Q 147 -465 156 -457.5 Q 165 -450 176.5 -447 Q 188 -444 200 -444 Q 211 -444 221.5 -446 Q 232 -448 241 -453.5 Q 250 -459 255 -469 Q 260 -479 260 -490 L 260 -491 L 323 -491 L 323 -488 Q 323 -465 312.5 -444.5 Q 302 -424 284 -410.5 Q 266 -397 244 -392.5 Q 222 -388 200 -388 Z M 363 116 L 282 -40 L 241 -40 L 241 116 L 179 116 L 179 -288 L 309 -288 Q 333 -288 356 -280 Q 379 -272 394.5 -253.5 Q 410 -235 416.5 -211.5 Q 423 -188 423 -164 Q 423 -145 419.5 -126 Q 416 -107 406.5 -90.5 Q 397 -74 381.5 -62 Q 366 -50 348 -45 L 432 116 Z M 241 -96 L 309 -96 Q 321 -96 332 -101.5 Q 343 -107 349.5 -117.5 Q 356 -128 358.5 -140 Q 361 -152 361 -164 Q 361 -176 358.5 -188 Q 356 -200 349.5 -210.5 Q 343 -221 332 -226.5 Q 321 -232 309 -232 L 241 -232 Z " id="path32"/>
<path d="M 201 -388 Q 178 -388 156 -392.5 Q 134 -397 115.5 -410 Q 97 -423 86.5 -444 Q 76 -465 76 -488 L 76 -491 L 138 -491 L 138 -490 Q 138 -479 144 -469 Q 150 -459 159 -453.5 Q 168 -448 179 -446 Q 190 -444 201 -444 Q 212 -444 223.5 -446 Q 235 -448 244 -455 Q 253 -462 258.5 -472.5 Q 264 -483 264 -494 Q 264 -512 252 -527 Q 240 -542 224 -550.5 Q 208 -559 191 -565 Q 174 -571 158.5 -580 Q 143 -589 129 -601 Q 115 -613 104 -627.5 Q 93 -642 87 -659.5 Q 81 -677 81 -695 Q 81 -717 90.5 -738.5 Q 100 -760 117.5 -774.5 Q 135 -789 157 -795 Q 179 -801 202 -801 Q 224 -801 246 -796 Q 268 -791 285.5 -777.5 Q 303 -764 313 -743.5 Q 323 -723 323 -701 L 323 -697 L 260 -697 L 260 -699 Q 260 -709 255.5 -718.5 Q 251 -728 242 -734 Q 233 -740 223 -742.5 Q 213 -745 202 -745 Q 191 -745 180.5 -742 Q 170 -739 161.5 -732.5 Q 153 -726 148.5 -715.5 Q 144 -705 144 -694 Q 144 -676 155.5 -661.5 Q 167 -647 183 -638 Q 199 -629 216 -623 Q 233 -617 249 -608 Q 265 -599 279 -587.5 Q 293 -576 303.5 -561.5 Q 314 -547 320 -529.5 Q 326 -512 326 -494 Q 326 -471 316 -449 Q 306 -427 288 -413 Q 270 -399 247 -393.5 Q 224 -388 201 -388 Z M 299 120 Q 275 120 251.5 114.5 Q 228 109 209.5 93.5 Q 191 78 182.5 55.5 Q 174 33 174 9 L 174 -181 Q 174 -205 182.5 -227.5 Q 191 -250 209.5 -265.5 Q 228 -281 251.5 -287 Q 275 -293 298 -293 Q 322 -293 345.5 -287 Q 369 -281 387.5 -265.5 Q 406 -250 414.5 -227.5 Q 423 -205 423 -181 L 423 9 Q 423 33 414.5 55.5 Q 406 78 387.5 93.5 Q 369 109 345.5 114.5 Q 322 120 299 120 Z M 298 64 Q 310 64 322 61.5 Q 334 59 343 51 Q 352 43 356.5 32 Q 361 21 361 9 L 361 -181 Q 361 -193 356.5 -204.5 Q 352 -216 343 -223.5 Q 334 -231 322 -234 Q 310 -237 299 -237 Q 287 -237 275 -234 Q 263 -231 254 -223.5 Q 245 -216 240.5 -204.5 Q 236 -193 236 -181 L 236 9 Q 236 21 240.5 32 Q 245 43 254 51 Q 263 59 275 61.5 Q 287 64 298 64 Z " id="path33"/>
<path d="M 201 -388 Q 178 -388 156 -392.5 Q 134 -397 115.5 -410 Q 97 -423 86.5 -444 Q 76 -465 76 -488 L 76 -491 L 138 -491 L 138 -490 Q 138 -479 144 -469 Q 150 -459 159 -453.5 Q 168 -448 179 -446 Q 190 -444 201 -444 Q 212 -444 223.5 -446 Q 235 -448 244 -455 Q 253 -462 258.5 -472.5 Q 264 -483 264 -494 Q 264 -512 252 -527 Q 240 -542 224 -550.5 Q 208 -559 191 -565 Q 174 -571 158.5 -580 Q 143 -589 129 -601 Q 115 -613 104 -627.5 Q 93 -642 87 -659.5 Q 81 -677 81 -695 Q 81 -717 90.5 -738.5 Q 100 -760 117.5 -774.5 Q 135 -789 157 -795 Q 179 -801 202 -801 Q 224 -801 246 -796 Q 268 -791 285.5 -777.5 Q 303 -764 313 -743.5 Q 323 -723 323 -701 L 323 -697 L 260 -697 L 260 -699 Q 260 -709 255.5 -718.5 Q 251 -728 242 -734 Q 233 -740 223 -742.5 Q 213 -745 202 -745 Q 191 -745 180.5 -742 Q 170 -739 161.5 -732.5 Q 153 -726 148.5 -715.5 Q 144 -705 144 -694 Q 144 -676 155.5 -661.5 Q 167 -647 183 -638 Q 199 -629 216 -623 Q 233 -617 249 -608 Q 265 -599 279 -587.5 Q 293 -576 303.5 -561.5 Q 314 -547 320 -529.5 Q 326 -512 326 -494 Q 326 -471 316 -449 Q 306 -427 288 -413 Q 270 -399 247 -393.5 Q 224 -388 201 -388 Z M 202 116 L 202 60 L 267 60 L 267 -232 L 202 -232 L 202 -288 L 395 -288 L 395 -232 L 330 -232 L 330 60 L 395 60 L 395 116 Z " id="path34"/>
<path d="M 159 -530 L 76 -530 L 76 -806 L 159 -806 Q 176 -806 192 -801 Q 208 -796 220 -785 Q 232 -774 237.5 -758 Q 243 -742 243 -725 L 243 -610 Q 243 -594 237.5 -578 Q 232 -562 220 -550.5 Q 208 -539 192 -534.5 Q 176 -530 159 -530 Z M 129 -578 L 159 -578 Q 165 -578 171.5 -580 Q 178 -582 182 -586.5 Q 186 -591 188 -597.5 Q 190 -604 190 -610 L 190 -725 Q 190 -732 188 -738 Q 186 -744 182 -749 Q 178 -754 171.5 -756 Q 165 -758 159 -758 L 129 -758 Z M 174 -202 L 174 -478 L 227 -478 L 227 -250 L 334 -250 L 334 -202 Z M 264 125 L 264 -151 L 425 -151 L 425 -103 L 317 -103 L 317 -42 L 400 -42 L 400 5 L 317 5 L 317 77 L 425 77 L 425 125 Z " id="path35"/>
<path d="M 159 -530 L 76 -530 L 76 -806 L 159 -806 Q 176 -806 192 -801 Q 208 -796 220 -785 Q 232 -774 237.5 -758 Q 243 -742 243 -725 L 243 -610 Q 243 -594 237.5 -578 Q 232 -562 220 -550.5 Q 208 -539 192 -534.5 Q 176 -530 159 -530 Z M 129 -578 L 159 -578 Q 165 -578 171.5 -580 Q 178 -582 182 -586.5 Q 186 -591 188 -597.5 Q 190 -604 190 -610 L 190 -725 Q 190 -732 188 -738 Q 186 -744 182 -749 Q 178 -754 171.5 -756 Q 165 -758 159 -758 L 129 -758 Z M 249 -199 Q 233 -199 217 -203 Q 201 -207 188.5 -217.5 Q 176 -228 170.5 -243.5 Q 165 -259 165 -275 L 165 -405 Q 165 -421 170.5 -436.5 Q 176 -452 188.5 -462 Q 201 -472 217 -476.5 Q 233 -481 249 -481 Q 264 -481 279 -477.5 Q 294 -474 306.5 -465 Q 319 -456 325.5 -442 Q 332 -428 332 -412 L 332 -410 L 279 -410 L 279 -411 Q 279 -416 276.5 -421 Q 274 -426 269.5 -428.5 Q 265 -431 259.5 -432 Q 254 -433 249 -433 Q 243 -433 237 -431.5 Q 231 -430 226.5 -426 Q 222 -422 220 -416 Q 218 -410 218 -405 L 218 -275 Q 218 -269 220 -263.5 Q 222 -258 226.5 -254 Q 231 -250 237 -248.5 Q 243 -247 249 -247 Q 254 -247 259.5 -248 Q 265 -249 269.5 -251.5 Q 274 -254 276.5 -258.5 Q 279 -263 279 -269 L 279 -270 L 332 -270 L 332 -267 Q 332 -252 325.5 -238 Q 319 -224 306.5 -215 Q 294 -206 279 -202.5 Q 264 -199 249 -199 Z M 328 125 L 328 -97 L 296 -67 L 268 -94 L 328 -151 L 380 -151 L 380 125 Z " id="path36"/>
<path d="M 159 -530 L 76 -530 L 76 -806 L 159 -806 Q 176 -806 192 -801 Q 208 -796 220 -785 Q 232 -774 237.5 -758 Q 243 -742 243 -725 L 243 -610 Q 243 -594 237.5 -578 Q 232 -562 220 -550.5 Q 208 -539 192 -534.5 Q 176 -530 159 -530 Z M 129 -578 L 159 -578 Q 165 -578 171.5 -580 Q 178 -582 182 -586.5 Q 186 -591 188 -597.5 Q 190 -604 190 -610 L 190 -725 Q 190 -732 188 -738 Q 186 -744 182 -749 Q 178 -754 171.5 -756 Q 165 -758 159 -758 L 129 -758 Z M 249 -199 Q 233 -199 217 -203 Q 201 -207 188.5 -217.5 Q 176 -228 170.5 -243.5 Q 165 -259 165 -275 L 165 -405 Q 165 -421 170.5 -436.5 Q 176 -452 188.5 -462 Q 201 -472 217 -476.5 Q 233 -481 249 -481 Q 264 -481 279 -477.5 Q 294 -474 306.5 -465 Q 319 -456 325.5 -442 Q 332 -428 332 -412 L 332 -410 L 279 -410 L 279 -411 Q 279 -416 276.5 -421 Q 274 -426 269.5 -428.5 Q 265 -431 259.5 -432 Q 254 -433 249 -433 Q 243 -433 237 -431.5 Q 231 -430 226.5 -426 Q 222 -422 220 -416 Q 218 -410 218 -405 L 218 -275 Q 218 -269 220 -263.5 Q 222 -258 226.5 -254 Q 231 -250 237 -248.5 Q 243 -247 249 -247 Q 254 -247 259.5 -248 Q 265 -249 269.5 -251.5 Q 274 -254 276.5 -258.5 Q 279 -263 279 -269 L 279 -270 L 332 -270 L 332 -267 Q 332 -252 325.5 -238 Q 319 -224 306.5 -215 Q 294 -206 279 -202.5 Q 264 -199 249 -199 Z M 261 125 Q 261 110 262 95 Q 263 80 267 65.5 Q 271 51 278.5 38 Q 286 25 296 14 Q 306 3 318.5 -5.5 Q 331 -14 343.5 -22 Q 356 -30 364.5 -42.5 Q 373 -55 373 -70 Q 373 -77 371.5 -83.5 Q 370 -90 366 -95.5 Q 362 -101 356 -103.5 Q 350 -106 343 -106 Q 338 -106 332.5 -105 Q 327 -104 322.5 -101 Q 318 -98 315.5 -93.5 Q 313 -89 313 -83 L 260 -83 L 260 -84 Q 260 -99 266.5 -113.5 Q 273 -128 285.5 -137.5 Q 298 -147 313 -150.5 Q 328 -154 343 -154 Q 360 -154 376 -149 Q 392 -144 404 -132 Q 416 -120 421 -103.5 Q 426 -87 426 -70 Q 426 -55 420.5 -39.5 Q 415 -24 405 -12.5 Q 395 -1 382 8.5 Q 369 18 357 28 Q 345 38 335 50.5 Q 325 63 320 77 L 425 77 L 425 125 Z " id="path37"/>
<path d="M 159 -530 L 76 -530 L 76 -806 L 159 -806 Q 176 -806 192 -801 Q 208 -796 220 -785 Q 232 -774 237.5 -758 Q 243 -742 243 -725 L 243 -610 Q 243 -594 237.5 -578 Q 232 -562 220 -550.5 Q 208 -539 192 -534.5 Q 176 -530 159 -530 Z M 129 -578 L 159 -578 Q 165 -578 171.5 -580 Q 178 -582 182 -586.5 Q 186 -591 188 -597.5 Q 190 -604 190 -610 L 190 -725 Q 190 -732 188 -738 Q 186 -744 182 -749 Q 178 -754 171.5 -756 Q 165 -758 159 -758 L 129 -758 Z M 249 -199 Q 233 -199 217 -203 Q 201 -207 188.5 -217.5 Q 176 -228 170.5 -243.5 Q 165 -259 165 -275 L 165 -405 Q 165 -421 170.5 -436.5 Q 176 -452 188.5 -462 Q 201 -472 217 -476.5 Q 233 -481 249 -481 Q 264 -481 279 -477.5 Q 294 -474 306.5 -465 Q 319 -456 325.5 -442 Q 332 -428 332 -412 L 332 -410 L 279 -410 L 279 -411 Q 279 -416 276.5 -421 Q 274 -426 269.5 -428.5 Q 265 -431 259.5 -432 Q 254 -433 249 -433 Q 243 -433 237 -431.5 Q 231 -430 226.5 -426 Q 222 -422 220 -416 Q 218 -410 218 -405 L 218 -275 Q 218 -269 220 -263.5 Q 222 -258 226.5 -254 Q 231 -250 237 -248.5 Q 243 -247 249 -247 Q 254 -247 259.5 -248 Q 265 -249 269.5 -251.5 Q 274 -254 276.5 -258.5 Q 279 -263 279 -269 L 279 -270 L 332 -270 L 332 -267 Q 332 -252 325.5 -238 Q 319 -224 306.5 -215 Q 294 -206 279 -202.5 Q 264 -199 249 -199 Z M 344 128 Q 328 128 312.5 124.5 Q 297 121 284.5 112 Q 272 103 264.5 88.5 Q 257 74 257 58 L 310 58 Q 310 63 313.5 68 Q 317 73 322 76 Q 327 79 332.5 79.5 Q 338 80 344 80 Q 350 80 356.5 78.5 Q 363 77 368 72.5 Q 373 68 375.5 61.5 Q 378 55 378 48 Q 378 39 373.5 30.5 Q 369 22 361.5 16.5 Q 354 11 345 9.5 Q 336 8 326 8 L 326 -39 Q 335 -39 343 -40.5 Q 351 -42 358 -47.5 Q 365 -53 368.5 -60.5 Q 372 -68 372 -77 Q 372 -82 370 -88 Q 368 -94 364.5 -98 Q 361 -102 355.5 -104 Q 350 -106 344 -106 Q 339 -106 334 -105 Q 329 -104 325 -101 Q 321 -98 318.5 -93.5 Q 316 -89 316 -84 L 316 -83 L 263 -83 L 263 -84 Q 263 -99 269.5 -113.5 Q 276 -128 287.5 -137 Q 299 -146 314 -150 Q 329 -154 344 -154 Q 359 -154 374.5 -149.5 Q 390 -145 401.5 -134 Q 413 -123 419 -108 Q 425 -93 425 -77 Q 425 -59 415.5 -42.5 Q 406 -26 391 -16 Q 409 -7 420 11 Q 431 29 431 49 Q 431 66 424.5 81.5 Q 418 97 405.5 108 Q 393 119 376.5 123.5 Q 360 128 344 128 Z " id="path38"/>
<path d="M 159 -530 L 76 -530 L 76 -806 L 159 -806 Q 176 -806 192 -801 Q 208 -796 220 -785 Q 232 -774 237.5 -758 Q 243 -742 243 -725 L 243 -610 Q 243 -594 237.5 -578 Q 232 -562 220 -550.5 Q 208 -539 192 -534.5 Q 176 -530 159 -530 Z M 129 -578 L 159 -578 Q 165 -578 171.5 -580 Q 178 -582 182 -586.5 Q 186 -591 188 -597.5 Q 190 -604 190 -610 L 190 -725 Q 190 -732 188 -738 Q 186 -744 182 -749 Q 178 -754 171.5 -756 Q 165 -758 159 -758 L 129 -758 Z M 249 -199 Q 233 -199 217 -203 Q 201 -207 188.5 -217.5 Q 176 -228 170.5 -243.5 Q 165 -259 165 -275 L 165 -405 Q 165 -421 170.5 -436.5 Q 176 -452 188.5 -462 Q 201 -472 217 -476.5 Q 233 -481 249 -481 Q 264 -481 279 -477.5 Q 294 -474 306.5 -465 Q 319 -456 325.5 -442 Q 332 -428 332 -412 L 332 -410 L 279 -410 L 279 -411 Q 279 -416 276.5 -421 Q 274 -426 269.5 -428.5 Q 265 -431 259.5 -432 Q 254 -433 249 -433 Q 243 -433 237 -431.5 Q 231 -430 226.5 -426 Q 222 -422 220 -416 Q 218 -410 218 -405 L 218 -275 Q 218 -269 220 -263.5 Q 222 -258 226.5 -254 Q 231 -250 237 -248.5 Q 243 -247 249 -247 Q 254 -247 259.5 -248 Q 265 -249 269.5 -251.5 Q 274 -254 276.5 -258.5 Q 279 -263 279 -269 L 279 -270 L 332 -270 L 332 -267 Q 332 -252 325.5 -238 Q 319 -224 306.5 -215 Q 294 -206 279 -202.5 Q 264 -199 249 -199 Z M 351 125 L 351 60 L 258 60 L 258 13 L 348 -151 L 400 -151 L 310 13 L 351 13 L 351 -31 L 403 -31 L 403 13 L 425 13 L 425 60 L 403 60 L 403 125 Z " id="path39"/>
<path d="M 76 -530 L 76 -806 L 129 -806 L 192 -625 Q 189 -642 188 -660 Q 187 -678 187 -695 L 187 -806 L 240 -806 L 240 -530 L 186 -530 L 123 -711 Q 126 -693 127.5 -675.5 Q 129 -658 129 -640 L 129 -530 Z M 163 -202 L 219 -478 L 280 -478 L 337 -202 L 283 -202 L 275 -252 L 224 -252 L 216 -202 Z M 268 -299 L 254 -386 Q 253 -392 252 -398 Q 251 -404 250 -410 Q 249 -404 248 -398 Q 247 -392 246 -386 L 232 -299 Z M 377 125 L 333 24 L 320 48 L 320 125 L 267 125 L 267 -151 L 320 -151 L 320 -42 L 375 -151 L 433 -151 L 361 -25 L 433 125 Z " id="path40"/>
<path d="M 157 -527 Q 142 -527 126.5 -530.5 Q 111 -534 98.5 -543 Q 86 -552 79 -566 Q 72 -580 72 -595 L 72 -598 L 125 -598 L 125 -597 Q 125 -591 128 -586.5 Q 131 -582 136 -579 Q 141 -576 146.5 -575.5 Q 152 -575 157 -575 Q 163 -575 169 -576 Q 175 -577 180 -580.5 Q 185 -584 187.5 -589.5 Q 190 -595 190 -601 Q 190 -613 181.5 -622 Q 173 -631 162.5 -636.5 Q 152 -642 141.5 -646.5 Q 131 -651 121 -657.5 Q 111 -664 103 -672.5 Q 95 -681 89 -691 Q 83 -701 79.5 -712 Q 76 -723 76 -735 Q 76 -751 82 -765.5 Q 88 -780 100 -790.5 Q 112 -801 127.5 -805 Q 143 -809 158 -809 Q 173 -809 188 -805.5 Q 203 -802 215 -792.5 Q 227 -783 233.5 -769 Q 240 -755 240 -740 L 240 -738 L 187 -738 L 187 -739 Q 187 -744 184.5 -748.5 Q 182 -753 178 -756 Q 174 -759 168.5 -760 Q 163 -761 158 -761 Q 153 -761 147.5 -759.5 Q 142 -758 137.5 -754.5 Q 133 -751 131 -745.5 Q 129 -740 129 -735 Q 129 -723 137 -713.5 Q 145 -704 155.5 -699 Q 166 -694 177 -689.5 Q 188 -685 197.5 -678.5 Q 207 -672 215 -663.5 Q 223 -655 229.5 -645 Q 236 -635 239.5 -623.5 Q 243 -612 243 -601 Q 243 -585 236 -570 Q 229 -555 217 -545 Q 205 -535 189 -531 Q 173 -527 157 -527 Z M 223 -202 L 223 -320 L 163 -478 L 219 -478 L 250 -383 L 281 -478 L 337 -478 L 276 -320 L 276 -202 Z M 261 125 L 261 -151 L 314 -151 L 377 30 Q 374 13 373 -5 Q 372 -23 372 -40 L 372 -151 L 425 -151 L 425 125 L 371 125 L 308 -56 Q 311 -38 312.5 -20.5 Q 314 -3 314 15 L 314 125 Z " id="path41"/>
<path d="M 79 -530 L 79 -806 L 240 -806 L 240 -758 L 132 -758 L 132 -697 L 215 -697 L 215 -650 L 132 -650 L 132 -578 L 240 -578 L 240 -530 Z M 223 -202 L 223 -430 L 166 -430 L 166 -478 L 334 -478 L 334 -430 L 276 -430 L 276 -202 Z M 346 125 L 261 125 L 261 -151 L 346 -151 Q 361 -151 376 -145.5 Q 391 -140 401 -129 Q 411 -118 415 -103 Q 419 -88 419 -73 Q 419 -58 413.5 -43 Q 408 -28 395 -19 Q 404 -15 411 -8.5 Q 418 -2 422.5 6.5 Q 427 15 429 24.5 Q 431 34 431 43 Q 431 60 425.5 76 Q 420 92 408 103.5 Q 396 115 379.5 120 Q 363 125 346 125 Z M 314 -41 L 346 -41 Q 352 -41 356 -44 Q 360 -47 362.5 -52 Q 365 -57 365.5 -62 Q 366 -67 366 -72 Q 366 -77 365.5 -82.5 Q 365 -88 362.5 -92.5 Q 360 -97 356 -100 Q 352 -103 346 -103 L 314 -103 Z M 314 77 L 346 77 Q 353 77 359.5 75 Q 366 73 370 67.5 Q 374 62 376 55.5 Q 378 49 378 42 Q 378 35 376 28.5 Q 374 22 370 16.5 Q 366 11 359.5 8.5 Q 353 6 346 6 L 314 6 Z " id="path42"/>
<path d="M 157 -527 Q 141 -527 125 -531 Q 109 -535 96.5 -545.5 Q 84 -556 78.5 -571.5 Q 73 -587 73 -603 L 73 -733 Q 73 -749 78.5 -764.5 Q 84 -780 96.5 -790 Q 109 -800 125 -804.5 Q 141 -809 157 -809 Q 172 -809 187 -805.5 Q 202 -802 214.5 -793 Q 227 -784 233.5 -770 Q 240 -756 240 -740 L 240 -738 L 187 -738 L 187 -739 Q 187 -744 184.5 -749 Q 182 -754 177.5 -756.5 Q 173 -759 167.5 -760 Q 162 -761 157 -761 Q 151 -761 145 -759.5 Q 139 -758 134.5 -754 Q 130 -750 128 -744 Q 126 -738 126 -733 L 126 -603 Q 126 -597 128 -591.5 Q 130 -586 134.5 -582 Q 139 -578 145 -576.5 Q 151 -575 157 -575 Q 162 -575 167.5 -576 Q 173 -577 177.5 -579.5 Q 182 -582 184.5 -586.5 Q 187 -591 187 -597 L 187 -598 L 240 -598 L 240 -595 Q 240 -580 233.5 -566 Q 227 -552 214.5 -543 Q 202 -534 187 -530.5 Q 172 -527 157 -527 Z M 163 -202 L 219 -478 L 280 -478 L 337 -202 L 283 -202 L 275 -252 L 224 -252 L 216 -202 Z M 268 -299 L 254 -386 Q 253 -392 252 -398 Q 251 -404 250 -410 Q 249 -404 248 -398 Q 247 -392 246 -386 L 232 -299 Z M 261 125 L 261 -151 L 314 -151 L 377 30 Q 374 13 373 -5 Q 372 -23 372 -40 L 372 -151 L 425 -151 L 425 125 L 371 125 L 308 -56 Q 311 -38 312.5 -20.5 Q 314 -3 314 15 L 314 125 Z " id="path43"/>
<path d="M 86 -392 L 86 -796 L 321 -796 L 321 -740 L 148 -740 L 148 -630 L 285 -630 L 285 -574 L 148 -574 L 148 -448 L 321 -448 L 321 -392 Z M 179 116 L 179 -288 L 249 -288 L 299 -95 L 348 -288 L 418 -288 L 418 116 L 359 116 L 359 35 Q 359 -20 362 -75 Q 365 -130 368 -185 L 321 -5 L 276 -5 L 229 -185 Q 232 -130 235 -75 Q 238 -20 238 35 L 238 116 Z " id="path44"/>
<path d="M 157 -527 Q 142 -527 126.5 -530.5 Q 111 -534 98.5 -543 Q 86 -552 79 -566 Q 72 -580 72 -595 L 72 -598 L 125 -598 L 125 -597 Q 125 -591 128 -586.5 Q 131 -582 136 -579 Q 141 -576 146.5 -575.5 Q 152 -575 157 -575 Q 163 -575 169 -576 Q 175 -577 180 -580.5 Q 185 -584 187.5 -589.5 Q 190 -595 190 -601 Q 190 -613 181.5 -622 Q 173 -631 162.5 -636.5 Q 152 -642 141.5 -646.5 Q 131 -651 121 -657.5 Q 111 -664 103 -672.5 Q 95 -681 89 -691 Q 83 -701 79.5 -712 Q 76 -723 76 -735 Q 76 -751 82 -765.5 Q 88 -780 100 -790.5 Q 112 -801 127.5 -805 Q 143 -809 158 -809 Q 173 -809 188 -805.5 Q 203 -802 215 -792.5 Q 227 -783 233.5 -769 Q 240 -755 240 -740 L 240 -738 L 187 -738 L 187 -739 Q 187 -744 184.5 -748.5 Q 182 -753 178 -756 Q 174 -759 168.5 -760 Q 163 -761 158 -761 Q 153 -761 147.5 -759.5 Q 142 -758 137.5 -754.5 Q 133 -751 131 -745.5 Q 129 -740 129 -735 Q 129 -723 137 -713.5 Q 145 -704 155.5 -699 Q 166 -694 177 -689.5 Q 188 -685 197.5 -678.5 Q 207 -672 215 -663.5 Q 223 -655 229.5 -645 Q 236 -635 239.5 -623.5 Q 243 -612 243 -601 Q 243 -585 236 -570 Q 229 -555 217 -545 Q 205 -535 189 -531 Q 173 -527 157 -527 Z M 250 -199 Q 234 -199 218.5 -203 Q 203 -207 191 -217.5 Q 179 -228 173.5 -243.5 Q 168 -259 168 -275 L 168 -478 L 221 -478 L 221 -275 Q 221 -269 222.5 -263.5 Q 224 -258 228.5 -254 Q 233 -250 238.5 -248.5 Q 244 -247 250 -247 Q 256 -247 261.5 -248.5 Q 267 -250 271 -254 Q 275 -258 277 -263.5 Q 279 -269 279 -275 L 279 -478 L 331 -478 L 331 -275 Q 331 -259 326 -243.5 Q 321 -228 309 -217.5 Q 297 -207 281.5 -203 Q 266 -199 250 -199 Z M 346 125 L 261 125 L 261 -151 L 346 -151 Q 361 -151 376 -145.5 Q 391 -140 401 -129 Q 411 -118 415 -103 Q 419 -88 419 -73 Q 419 -58 413.5 -43 Q 408 -28 395 -19 Q 404 -15 411 -8.5 Q 418 -2 422.5 6.5 Q 427 15 429 24.5 Q 431 34 431 43 Q 431 60 425.5 76 Q 420 92 408 103.5 Q 396 115 379.5 120 Q 363 125 346 125 Z M 314 -41 L 346 -41 Q 352 -41 356 -44 Q 360 -47 362.5 -52 Q 365 -57 365.5 -62 Q 366 -67 366 -72 Q 366 -77 365.5 -82.5 Q 365 -88 362.5 -92.5 Q 360 -97 356 -100 Q 352 -103 346 -103 L 314 -103 Z M 314 77 L 346 77 Q 353 77 359.5 75 Q 366 73 370 67.5 Q 374 62 376 55.5 Q 378 49 378 42 Q 378 35 376 28.5 Q 374 22 370 16.5 Q 366 11 359.5 8.5 Q 353 6 346 6 L 314 6 Z " id="path45"/>
<path d="M 79 -530 L 79 -806 L 240 -806 L 240 -758 L 132 -758 L 132 -697 L 215 -697 L 215 -650 L 132 -650 L 132 -578 L 240 -578 L 240 -530 Z M 249 -199 Q 234 -199 218.5 -202.5 Q 203 -206 190.5 -215 Q 178 -224 171 -238 Q 164 -252 164 -267 L 164 -270 L 217 -270 L 217 -269 Q 217 -263 220 -258.5 Q 223 -254 228 -251 Q 233 -248 238.5 -247.5 Q 244 -247 249 -247 Q 255 -247 261 -248 Q 267 -249 272 -252.5 Q 277 -256 279.5 -261.5 Q 282 -267 282 -273 Q 282 -285 273.5 -294 Q 265 -303 254.5 -308.5 Q 244 -314 233.5 -318.5 Q 223 -323 213 -329.5 Q 203 -336 195 -344.5 Q 187 -353 181 -363 Q 175 -373 171.5 -384 Q 168 -395 168 -407 Q 168 -423 174 -437.5 Q 180 -452 192 -462.5 Q 204 -473 219.5 -477 Q 235 -481 250 -481 Q 265 -481 280 -477.5 Q 295 -474 307 -464.5 Q 319 -455 325.5 -441 Q 332 -427 332 -412 L 332 -410 L 279 -410 L 279 -411 Q 279 -416 276.5 -420.5 Q 274 -425 270 -428 Q 266 -431 260.5 -432 Q 255 -433 250 -433 Q 245 -433 239.5 -431.5 Q 234 -430 229.5 -426.5 Q 225 -423 223 -417.5 Q 221 -412 221 -407 Q 221 -395 229 -385.5 Q 237 -376 247.5 -371 Q 258 -366 269 -361.5 Q 280 -357 289.5 -350.5 Q 299 -344 307 -335.5 Q 315 -327 321.5 -317 Q 328 -307 331.5 -295.5 Q 335 -284 335 -273 Q 335 -257 328 -242 Q 321 -227 309 -217 Q 297 -207 281 -203 Q 265 -199 249 -199 Z M 342 128 Q 326 128 310 124 Q 294 120 281.5 109.5 Q 269 99 263.5 83.5 Q 258 68 258 52 L 258 -78 Q 258 -94 263.5 -109.5 Q 269 -125 281.5 -135 Q 294 -145 310 -149.5 Q 326 -154 342 -154 Q 357 -154 372 -150.5 Q 387 -147 399.5 -138 Q 412 -129 418.5 -115 Q 425 -101 425 -85 L 425 -83 L 372 -83 L 372 -84 Q 372 -89 369.5 -94 Q 367 -99 362.5 -101.5 Q 358 -104 352.5 -105 Q 347 -106 342 -106 Q 336 -106 330 -104.5 Q 324 -103 319.5 -99 Q 315 -95 313 -89 Q 311 -83 311 -78 L 311 52 Q 311 58 313 63.5 Q 315 69 319.5 73 Q 324 77 330 78.5 Q 336 80 342 80 Q 347 80 352.5 79 Q 358 78 362.5 75.5 Q 367 73 369.5 68.5 Q 372 64 372 58 L 372 57 L 425 57 L 425 60 Q 425 75 418.5 89 Q 412 103 399.5 112 Q 387 121 372 124.5 Q 357 128 342 128 Z " id="path46"/>
<path d="M 90 -392 L 90 -796 L 321 -796 L 321 -740 L 152 -740 L 152 -630 L 285 -630 L 285 -574 L 152 -574 L 152 -392 Z M 298 120 Q 275 120 253 115.5 Q 231 111 212.5 98 Q 194 85 183.5 64 Q 173 43 173 20 L 173 17 L 235 17 L 235 18 Q 235 29 241 39 Q 247 49 256 54.5 Q 265 60 276 62 Q 287 64 298 64 Q 309 64 320.5 62 Q 332 60 341 53 Q 350 46 355.5 35.5 Q 361 25 361 14 Q 361 -4 349 -19 Q 337 -34 321 -42.5 Q 305 -51 288 -57 Q 271 -63 255.5 -72 Q 240 -81 226 -93 Q 212 -105 201 -119.5 Q 190 -134 184 -151.5 Q 178 -169 178 -187 Q 178 -209 187.5 -230.5 Q 197 -252 214.5 -266.5 Q 232 -281 254 -287 Q 276 -293 299 -293 Q 321 -293 343 -288 Q 365 -283 382.5 -269.5 Q 400 -256 410 -235.5 Q 420 -215 420 -193 L 420 -189 L 357 -189 L 357 -191 Q 357 -201 352.5 -210.5 Q 348 -220 339 -226 Q 330 -232 320 -234.5 Q 310 -237 299 -237 Q 288 -237 277.5 -234 Q 267 -231 258.5 -224.5 Q 250 -218 245.5 -207.5 Q 241 -197 241 -186 Q 241 -168 252.5 -153.5 Q 264 -139 280 -130 Q 296 -121 313 -115 Q 330 -109 346 -100 Q 362 -91 376 -79.5 Q 390 -68 400.5 -53.5 Q 411 -39 417 -21.5 Q 423 -4 423 14 Q 423 37 413 59 Q 403 81 385 95 Q 367 109 344 114.5 Q 321 120 298 120 Z " id="path47"/>
<path d="M 173 -388 Q 152 -388 132 -396 Q 112 -404 99.5 -420.5 Q 87 -437 82 -457.5 Q 77 -478 77 -499 L 77 -689 Q 77 -713 85.5 -735.5 Q 94 -758 112 -773.5 Q 130 -789 153 -795 Q 176 -801 200 -801 Q 222 -801 244 -796 Q 266 -791 284 -777.5 Q 302 -764 312.5 -743.5 Q 323 -723 323 -701 L 323 -697 L 260 -697 L 260 -699 Q 260 -709 255 -719 Q 250 -729 241 -735 Q 232 -741 221.5 -743 Q 211 -745 200 -745 Q 188 -745 176.5 -742 Q 165 -739 156 -731 Q 147 -723 143 -712 Q 139 -701 139 -689 L 139 -499 Q 139 -488 143 -476.5 Q 147 -465 156 -457.5 Q 165 -450 176.5 -447 Q 188 -444 199 -444 Q 211 -444 222.5 -447 Q 234 -450 242.5 -457.5 Q 251 -465 255 -476.5 Q 259 -488 259 -499 L 259 -560 L 202 -560 L 202 -616 L 321 -616 L 321 -392 L 264 -392 L 264 -456 Q 260 -441 252 -427.5 Q 244 -414 231.5 -405 Q 219 -396 204 -392 Q 189 -388 173 -388 Z M 298 120 Q 275 120 253 115.5 Q 231 111 212.5 98 Q 194 85 183.5 64 Q 173 43 173 20 L 173 17 L 235 17 L 235 18 Q 235 29 241 39 Q 247 49 256 54.5 Q 265 60 276 62 Q 287 64 298 64 Q 309 64 320.5 62 Q 332 60 341 53 Q 350 46 355.5 35.5 Q 361 25 361 14 Q 361 -4 349 -19 Q 337 -34 321 -42.5 Q 305 -51 288 -57 Q 271 -63 255.5 -72 Q 240 -81 226 -93 Q 212 -105 201 -119.5 Q 190 -134 184 -151.5 Q 178 -169 178 -187 Q 178 -209 187.5 -230.5 Q 197 -252 214.5 -266.5 Q 232 -281 254 -287 Q 276 -293 299 -293 Q 321 -293 343 -288 Q 365 -283 382.5 -269.5 Q 400 -256 410 -235.5 Q 420 -215 420 -193 L 420 -189 L 357 -189 L 357 -191 Q 357 -201 352.5 -210.5 Q 348 -220 339 -226 Q 330 -232 320 -234.5 Q 310 -237 299 -237 Q 288 -237 277.5 -234 Q 267 -231 258.5 -224.5 Q 250 -218 245.5 -207.5 Q 241 -197 241 -186 Q 241 -168 252.5 -153.5 Q 264 -139 280 -130 Q 296 -121 313 -115 Q 330 -109 346 -100 Q 362 -91 376 -79.5 Q 390 -68 400.5 -53.5 Q 411 -39 417 -21.5 Q 423 -4 423 14 Q 423 37 413 59 Q 403 81 385 95 Q 367 109 344 114.5 Q 321 120 298 120 Z " id="path48"/>
<path d="M 266 -392 L 185 -548 L 144 -548 L 144 -392 L 82 -392 L 82 -796 L 212 -796 Q 236 -796 259 -788 Q 282 -780 297.5 -761.5 Q 313 -743 319.5 -719.5 Q 326 -696 326 -672 Q 326 -653 322.5 -634 Q 319 -615 309.5 -598.5 Q 300 -582 284.5 -570 Q 269 -558 251 -553 L 335 -392 Z M 144 -604 L 212 -604 Q 224 -604 235 -609.5 Q 246 -615 252.5 -625.5 Q 259 -636 261.5 -648 Q 264 -660 264 -672 Q 264 -684 261.5 -696 Q 259 -708 252.5 -718.5 Q 246 -729 235 -734.5 Q 224 -740 212 -740 L 144 -740 Z M 298 120 Q 275 120 253 115.5 Q 231 111 212.5 98 Q 194 85 183.5 64 Q 173 43 173 20 L 173 17 L 235 17 L 235 18 Q 235 29 241 39 Q 247 49 256 54.5 Q 265 60 276 62 Q 287 64 298 64 Q 309 64 320.5 62 Q 332 60 341 53 Q 350 46 355.5 35.5 Q 361 25 361 14 Q 361 -4 349 -19 Q 337 -34 321 -42.5 Q 305 -51 288 -57 Q 271 -63 255.5 -72 Q 240 -81 226 -93 Q 212 -105 201 -119.5 Q 190 -134 184 -151.5 Q 178 -169 178 -187 Q 178 -209 187.5 -230.5 Q 197 -252 214.5 -266.5 Q 232 -281 254 -287 Q 276 -293 299 -293 Q 321 -293 343 -288 Q 365 -283 382.5 -269.5 Q 400 -256 410 -235.5 Q 420 -215 420 -193 L 420 -189 L 357 -189 L 357 -191 Q 357 -201 352.5 -210.5 Q 348 -220 339 -226 Q 330 -232 320 -234.5 Q 310 -237 299 -237 Q 288 -237 277.5 -234 Q 267 -231 258.5 -224.5 Q 250 -218 245.5 -207.5 Q 241 -197 241 -186 Q 241 -168 252.5 -153.5 Q 264 -139 280 -130 Q 296 -121 313 -115 Q 330 -109 346 -100 Q 362 -91 376 -79.5 Q 390 -68 400.5 -53.5 Q 411 -39 417 -21.5 Q 423 -4 423 14 Q 423 37 413 59 Q 403 81 385 95 Q 367 109 344 114.5 Q 321 120 298 120 Z " id="path49"/>
<path d="M 202 -388 Q 178 -388 155 -394 Q 132 -400 114.5 -415.5 Q 97 -431 89.5 -453.5 Q 82 -476 82 -499 L 82 -796 L 144 -796 L 144 -499 Q 144 -488 147.5 -477 Q 151 -466 159.5 -458 Q 168 -450 179 -447 Q 190 -444 201 -444 Q 213 -444 224 -447 Q 235 -450 243.5 -458 Q 252 -466 255.5 -477 Q 259 -488 259 -499 L 259 -796 L 321 -796 L 321 -499 Q 321 -476 313.5 -453.5 Q 306 -431 288.5 -415.5 Q 271 -400 248 -394 Q 225 -388 202 -388 Z M 298 120 Q 275 120 253 115.5 Q 231 111 212.5 98 Q 194 85 183.5 64 Q 173 43 173 20 L 173 17 L 235 17 L 235 18 Q 235 29 241 39 Q 247 49 256 54.5 Q 265 60 276 62 Q 287 64 298 64 Q 309 64 320.5 62 Q 332 60 341 53 Q 350 46 355.5 35.5 Q 361 25 361 14 Q 361 -4 349 -19 Q 337 -34 321 -42.5 Q 305 -51 288 -57 Q 271 -63 255.5 -72 Q 240 -81 226 -93 Q 212 -105 201 -119.5 Q 190 -134 184 -151.5 Q 178 -169 178 -187 Q 178 -209 187.5 -230.5 Q 197 -252 214.5 -266.5 Q 232 -281 254 -287 Q 276 -293 299 -293 Q 321 -293 343 -288 Q 365 -283 382.5 -269.5 Q 400 -256 410 -235.5 Q 420 -215 420 -193 L 420 -189 L 357 -189 L 357 -191 Q 357 -201 352.5 -210.5 Q 348 -220 339 -226 Q 330 -232 320 -234.5 Q 310 -237 299 -237 Q 288 -237 277.5 -234 Q 267 -231 258.5 -224.5 Q 250 -218 245.5 -207.5 Q 241 -197 241 -186 Q 241 -168 252.5 -153.5 Q 264 -139 280 -130 Q 296 -121 313 -115 Q 330 -109 346 -100 Q 362 -91 376 -79.5 Q 390 -68 400.5 -53.5 Q 411 -39 417 -21.5 Q 423 -4 423 14 Q 423 37 413 59 Q 403 81 385 95 Q 367 109 344 114.5 Q 321 120 298 120 Z " id="path50"/>
<path d="M 201 -388 Q 178 -388 156 -392.5 Q 134 -397 115.5 -410 Q 97 -423 86.5 -444 Q 76 -465 76 -488 L 76 -491 L 138 -491 L 138 -490 Q 138 -479 144 -469 Q 150 -459 159 -453.5 Q 168 -448 179 -446 Q 190 -444 201 -444 Q 212 -444 223.5 -446 Q 235 -448 244 -455 Q 253 -462 258.5 -472.5 Q 264 -483 264 -494 Q 264 -512 252 -527 Q 240 -542 224 -550.5 Q 208 -559 191 -565 Q 174 -571 158.5 -580 Q 143 -589 129 -601 Q 115 -613 104 -627.5 Q 93 -642 87 -659.5 Q 81 -677 81 -695 Q 81 -717 90.5 -738.5 Q 100 -760 117.5 -774.5 Q 135 -789 157 -795 Q 179 -801 202 -801 Q 224 -801 246 -796 Q 268 -791 285.5 -777.5 Q 303 -764 313 -743.5 Q 323 -723 323 -701 L 323 -697 L 260 -697 L 260 -699 Q 260 -709 255.5 -718.5 Q 251 -728 242 -734 Q 233 -740 223 -742.5 Q 213 -745 202 -745 Q 191 -745 180.5 -742 Q 170 -739 161.5 -732.5 Q 153 -726 148.5 -715.5 Q 144 -705 144 -694 Q 144 -676 155.5 -661.5 Q 167 -647 183 -638 Q 199 -629 216 -623 Q 233 -617 249 -608 Q 265 -599 279 -587.5 Q 293 -576 303.5 -561.5 Q 314 -547 320 -529.5 Q 326 -512 326 -494 Q 326 -471 316 -449 Q 306 -427 288 -413 Q 270 -399 247 -393.5 Q 224 -388 201 -388 Z M 183 116 L 183 -288 L 309 -288 Q 325 -288 341 -285 Q 357 -282 371.5 -274.5 Q 386 -267 397 -254.5 Q 408 -242 415 -227.5 Q 422 -213 424.5 -196.5 Q 427 -180 427 -164 Q 427 -148 424.5 -131.5 Q 422 -115 415 -100.5 Q 408 -86 397 -73.5 Q 386 -61 371.5 -53.5 Q 357 -46 341 -43 Q 325 -40 309 -40 L 245 -40 L 245 116 Z M 309 -96 Q 321 -96 333 -101 Q 345 -106 352.5 -116 Q 360 -126 362.5 -138.5 Q 365 -151 365 -164 Q 365 -177 362.5 -189.5 Q 360 -202 352.5 -212 Q 345 -222 333 -227 Q 321 -232 309 -232 L 245 -232 L 245 -96 Z " id="path51"/>
<path d="M 159 -530 L 76 -530 L 76 -806 L 159 -806 Q 176 -806 192 -801 Q 208 -796 220 -785 Q 232 -774 237.5 -758 Q 243 -742 243 -725 L 243 -610 Q 243 -594 237.5 -578 Q 232 -562 220 -550.5 Q 208 -539 192 -534.5 Q 176 -530 159 -530 Z M 129 -578 L 159 -578 Q 165 -578 171.5 -580 Q 178 -582 182 -586.5 Q 186 -591 188 -597.5 Q 190 -604 190 -610 L 190 -725 Q 190 -732 188 -738 Q 186 -744 182 -749 Q 178 -754 171.5 -756 Q 165 -758 159 -758 L 129 -758 Z M 171 -202 L 171 -478 L 332 -478 L 332 -430 L 224 -430 L 224 -369 L 307 -369 L 307 -322 L 224 -322 L 224 -250 L 332 -250 L 332 -202 Z M 267 125 L 267 -151 L 320 -151 L 320 77 L 427 77 L 427 125 Z " id="path52"/>
<path d="M 285 8 Q 261 8 238 1.5 Q 215 -5 196 -19 Q 177 -33 163.5 -53 Q 150 -73 142 -96 L 142 0 L 64 0 L 64 -538 L 32 -526 L 7 -582 L 64 -605 L 64 -735 L 142 -735 L 142 -636 L 284 -693 L 309 -636 L 142 -569 L 142 -424 Q 150 -447 163.5 -467 Q 177 -487 196 -501 Q 215 -515 238 -521.5 Q 261 -528 285 -528 Q 310 -528 334 -521 Q 358 -514 377.5 -498.5 Q 397 -483 410 -462 Q 423 -441 431 -417.5 Q 439 -394 441.5 -369.5 Q 444 -345 444 -320 L 444 -200 Q 444 -175 441.5 -150.5 Q 439 -126 431 -102.5 Q 423 -79 410 -58 Q 397 -37 377.5 -21.5 Q 358 -6 334 1 Q 310 8 285 8 Z M 254 -62 Q 271 -62 287.5 -66 Q 304 -70 317.5 -80 Q 331 -90 341 -104 Q 351 -118 356.5 -134 Q 362 -150 364 -166.5 Q 366 -183 366 -200 L 366 -320 Q 366 -337 364 -353.5 Q 362 -370 356.5 -386 Q 351 -402 341 -416 Q 331 -430 317.5 -440 Q 304 -450 287.5 -454 Q 271 -458 254 -458 Q 237 -458 220.5 -454 Q 204 -450 190.5 -440 Q 177 -430 167 -416 Q 157 -402 151.5 -386 Q 146 -370 144 -353.5 Q 142 -337 142 -320 L 142 -200 Q 142 -183 144 -166.5 Q 146 -150 151.5 -134 Q 157 -118 167 -104 Q 177 -90 190.5 -80 Q 204 -70 220.5 -66 Q 237 -62 254 -62 Z " id="path53"/>
<path d="M 436 70 L 64 70 L 64 -95 L 138 -95 L 138 0 L 362 0 L 362 -95 L 436 -95 Z " id="path54"/>
<path d="M 82 -392 L 82 -796 L 152 -796 L 269 -484 Q 265 -521 262 -559 Q 259 -597 259 -635 L 259 -796 L 321 -796 L 321 -392 L 251 -392 L 134 -705 Q 138 -667 141 -629.5 Q 144 -592 144 -554 L 144 -392 Z M 187 116 L 187 -288 L 249 -288 L 249 60 L 422 60 L 422 116 Z " id="path55"/>
<path d="M 66 -130 L 40 -130 L 40 -156 L 434 -550 L 460 -550 L 460 -524 Z M 40 -208 L 40 -259 L 331 -550 L 382 -550 Z M 169 -130 L 118 -130 L 460 -472 L 460 -421 Z " id="path56"/>
<path d="M 211 -221 Q 211 -245 207.5 -269 Q 204 -293 193 -314.5 Q 182 -336 166 -354.5 Q 150 -373 135 -392 Q 120 -411 107 -431.5 Q 94 -452 84.5 -474 Q 75 -496 69.5 -520 Q 64 -544 64 -568 Q 64 -592 69.5 -616 Q 75 -640 87 -661 Q 99 -682 117 -698.5 Q 135 -715 157 -725 Q 179 -735 203 -739 Q 227 -743 251 -743 Q 275 -743 299.5 -739 Q 324 -735 346 -724.5 Q 368 -714 386 -697 Q 404 -680 415.5 -658.5 Q 427 -637 432.5 -613 Q 438 -589 438 -564 L 438 -555 L 360 -555 L 360 -561 Q 360 -583 353 -604.5 Q 346 -626 331 -642.5 Q 316 -659 294.5 -666 Q 273 -673 251 -673 Q 230 -673 209 -666.5 Q 188 -660 172.5 -645.5 Q 157 -631 149.5 -610 Q 142 -589 142 -568 Q 142 -544 150.5 -521 Q 159 -498 173 -478 Q 187 -458 203 -440 Q 219 -422 233.5 -402.5 Q 248 -383 260 -361.5 Q 272 -340 278.5 -316.5 Q 285 -293 287 -269 Q 289 -245 289 -221 Z M 250 8 Q 236 8 222 4 Q 208 0 198 -10.5 Q 188 -21 184 -34.5 Q 180 -48 180 -63 Q 180 -77 184 -90.5 Q 188 -104 198 -114.5 Q 208 -125 222 -129 Q 236 -133 250 -133 Q 264 -133 278 -129 Q 292 -125 302 -114.5 Q 312 -104 316.5 -90.5 Q 321 -77 321 -63 Q 321 -48 316.5 -34.5 Q 312 -21 302 -10.5 Q 292 0 278 4 Q 264 8 250 8 Z " id="path57"/>
<path d="M 40 -466 L 40 -550 L 124 -550 L 124 -466 Z M 376 -466 L 376 -550 L 460 -550 L 460 -466 Z M 208 -466 L 208 -550 L 292 -550 L 292 -466 Z M 292 -382 L 292 -466 L 376 -466 L 376 -382 Z M 124 -382 L 124 -466 L 208 -466 L 208 -382 Z M 208 -298 L 208 -382 L 292 -382 L 292 -298 Z M 376 -298 L 376 -382 L 460 -382 L 460 -298 Z M 40 -298 L 40 -382 L 124 -382 L 124 -298 Z M 124 -214 L 124 -298 L 208 -298 L 208 -214 Z M 292 -214 L 292 -298 L 376 -298 L 376 -214 Z M 40 -130 L 40 -214 L 124 -214 L 124 -130 Z M 376 -130 L 376 -214 L 460 -214 L 460 -130 Z M 208 -130 L 208 -214 L 292 -214 L 292 -130 Z " id="path58"/>
<path d="M 124 -550 L 124 -634 L 208 -634 L 208 -550 Z M 292 -550 L 292 -634 L 376 -634 L 376 -550 Z M 40 -466 L 40 -550 L 124 -550 L 124 -466 Z M 376 -466 L 376 -550 L 460 -550 L 460 -466 Z M 208 -466 L 208 -550 L 292 -550 L 292 -466 Z M 292 -382 L 292 -466 L 376 -466 L 376 -382 Z M 124 -382 L 124 -466 L 208 -466 L 208 -382 Z M 208 -298 L 208 -382 L 292 -382 L 292 -298 Z M 376 -298 L 376 -382 L 460 -382 L 460 -298 Z M 40 -298 L 40 -382 L 124 -382 L 124 -298 Z M 124 -214 L 124 -298 L 208 -298 L 208 -214 Z M 292 -214 L 292 -298 L 376 -298 L 376 -214 Z M 40 -130 L 40 -214 L 124 -214 L 124 -130 Z M 376 -130 L 376 -214 L 460 -214 L 460 -130 Z M 208 -130 L 208 -214 L 292 -214 L 292 -130 Z M 292 -46 L 292 -130 L 376 -130 L 376 -46 Z M 124 -46 L 124 -130 L 208 -130 L 208 -46 Z " id="path59"/>
<path d="M 0 -809 L 0 -965 L 125 -965 L 125 -809 Z M 250 -809 L 250 -965 L 375 -965 L 375 -809 Z M 125 -653 L 125 -809 L 250 -809 L 250 -653 Z M 375 -653 L 375 -809 L 500 -809 L 500 -653 Z M 0 -496 L 0 -653 L 125 -653 L 125 -496 Z M 250 -496 L 250 -653 L 375 -653 L 375 -496 Z M 125 -340 L 125 -496 L 250 -496 L 250 -340 Z M 375 -340 L 375 -496 L 500 -496 L 500 -340 Z M 125 -184 L 0 -184 L 0 -340 L 125 -340 Z M 375 -184 L 250 -184 L 250 -340 L 375 -340 Z M 125 -28 L 125 -184 L 250 -184 L 250 -28 Z M 375 -28 L 375 -184 L 500 -184 L 500 -28 Z M 125 129 L 0 129 L 0 -28 L 125 -28 Z M 375 129 L 250 129 L 250 -28 L 375 -28 Z M 125 285 L 125 129 L 250 129 L 250 285 Z M 375 285 L 375 129 L 500 129 L 500 285 Z " id="path60"/>
<path d="M 64 0 L 64 -735 L 436 -735 L 436 0 Z M 104 -333 L 394 -695 L 300 -695 L 104 -450 Z M 104 -489 L 269 -695 L 175 -695 L 104 -606 Z M 104 -645 L 144 -695 L 104 -695 Z M 104 -176 L 396 -543 L 396 -660 L 104 -294 Z M 104 -40 L 119 -40 L 396 -386 L 396 -504 L 104 -137 Z M 150 -40 L 244 -40 L 396 -230 L 396 -347 Z M 275 -40 L 369 -40 L 396 -74 L 396 -191 Z " id="path61"/>
</defs>
<g>
<g data-source-text="0" fill="#dee4e3" transform="translate(174 41.292) rotate(0) scale(0.023999998)">
<use href="#path1" transform="translate(0 0)"/>
</g>
</g>
<g>
<g data-source-text="1" fill="#dee4e3" transform="translate(246 41.292) rotate(0) scale(0.023999998)">
<use href="#path2" transform="translate(0 0)"/>
</g>
</g>
<g>
<g data-source-text="2" fill="#dee4e3" transform="translate(318 41.292) rotate(0) scale(0.023999998)">
<use href="#path3" transform="translate(0 0)"/>
</g>
</g>
<g>
<g data-source-text="3" fill="#dee4e3" transform="translate(390 41.292) rotate(0) scale(0.023999998)">
<use href="#path4" transform="translate(0 0)"/>
</g>
</g>
<g>
<g data-source-text="4" fill="#dee4e3" transform="translate(462 41.292) rotate(0) scale(0.023999998)">
<use href="#path5" transform="translate(0 0)"/>
</g>
</g>
<g>
<g data-source-text="5" fill="#dee4e3" transform="translate(534 41.292) rotate(0) scale(0.023999998)">
<use href="#path6" transform="translate(0 0)"/>
</g>
</g>
<g>
<g data-source-text="6" fill="#dee4e3" transform="translate(606 41.292) rotate(0) scale(0.023999998)">
<use href="#path7" transform="translate(0 0)"/>
</g>
</g>
<g>
<g data-source-text="7" fill="#dee4e3" transform="translate(678 41.292) rotate(0) scale(0.023999998)">
<use href="#path8" transform="translate(0 0)"/>
</g>
</g>
<g>
<g data-source-text="8" fill="#dee4e3" transform="translate(750 41.292) rotate(0) scale(0.023999998)">
<use href="#path9" transform="translate(0 0)"/>
</g>
</g>
<g>
<g data-source-text="9" fill="#dee4e3" transform="translate(822 41.292) rotate(0) scale(0.023999998)">
<use href="#path10" transform="translate(0 0)"/>
</g>
</g>
<g>
<g data-source-text="A" fill="#dee4e3" transform="translate(894 41.292) rotate(0) scale(0.023999998)">
<use href="#path11" transform="translate(0 0)"/>
</g>
</g>
<g>
<g data-source-text="B" fill="#dee4e3" transform="translate(966 41.292) rotate(0) scale(0.023999998)">
<use href="#path12" transform="translate(0 0)"/>
</g>
</g>
<g>
<g data-source-text="C" fill="#dee4e3" transform="translate(1038 41.292) rotate(0) scale(0.023999998)">
<use href="#path13" transform="translate(0 0)"/>
</g>
</g>
<g>
<g data-source-text="D" fill="#dee4e3" transform="translate(1110 41.292) rotate(0) scale(0.023999998)">
<use href="#path14" transform="translate(0 0)"/>
</g>
</g>
<g>
<g data-source-text="E" fill="#dee4e3" transform="translate(1182 41.292) rotate(0) scale(0.023999998)">
<use href="#path15" transform="translate(0 0)"/>
</g>
</g>
<g>
<g data-source-text="F" fill="#dee4e3" transform="translate(1254 41.292) rotate(0) scale(0.023999998)">
<use href="#path16" transform="translate(0 0)"/>
</g>
</g>
<g>
<g data-source-text="U+2400" fill="#dee4e3" transform="translate(36 113.292) rotate(0) scale(0.023999998)">
<use href="#path17" transform="translate(0 0)"/>
<use href="#path18" transform="translate(500 0)"/>
<use href="#path3" transform="translate(1000 0)"/>
<use href="#path5" transform="translate(1500 0)"/>
<use href="#path1" transform="translate(2000 0)"/>
<use href="#path1" transform="translate(2500 0)"/>
</g>
</g>
<g>
<g data-source-text="" fill="#dee4e3" transform="translate(168 118.584) rotate(0) scale(0.047999997)">
<use href="#path19" transform="translate(0 0)"/>
</g>
</g>
<g>
<g data-source-text="" fill="#dee4e3" transform="translate(240 118.584) rotate(0) scale(0.047999997)">
<use href="#path20" transform="translate(0 0)"/>
</g>
</g>
<g>
<g data-source-text="" fill="#dee4e3" transform="translate(312 118.584) rotate(0) scale(0.047999997)">
<use href="#path21" transform="translate(0 0)"/>
</g>
</g>
<g>
<g data-source-text="" fill="#dee4e3" transform="translate(384 118.584) rotate(0) scale(0.047999997)">
<use href="#path22" transform="translate(0 0)"/>
</g>
</g>
<g>
<g data-source-text="" fill="#dee4e3" transform="translate(456 118.584) rotate(0) scale(0.047999997)">
<use href="#path23" transform="translate(0 0)"/>
</g>
</g>
<g>
<g data-source-text="" fill="#dee4e3" transform="translate(528 118.584) rotate(0) scale(0.047999997)">
<use href="#path24" transform="translate(0 0)"/>
</g>
</g>
<g>
<g data-source-text="" fill="#dee4e3" transform="translate(600 118.584) rotate(0) scale(0.047999997)">
<use href="#path25" transform="translate(0 0)"/>
</g>
</g>
<g>
<g data-source-text="" fill="#dee4e3" transform="translate(672 118.584) rotate(0) scale(0.047999997)">
<use href="#path26" transform="translate(0 0)"/>
</g>
</g>
<g>
<g data-source-text="" fill="#dee4e3" transform="translate(744 118.584) rotate(0) scale(0.047999997)">
<use href="#path27" transform="translate(0 0)"/>
</g>
</g>
<g>
<g data-source-text="" fill="#dee4e3" transform="translate(816 118.584) rotate(0) scale(0.047999997)">
<use href="#path28" transform="translate(0 0)"/>
</g>
</g>
<g>
<g data-source-text="" fill="#dee4e3" transform="translate(888 118.584) rotate(0) scale(0.047999997)">
<use href="#path29" transform="translate(0 0)"/>
</g>
</g>
<g>
<g data-source-text="" fill="#dee4e3" transform="translate(960 118.584) rotate(0) scale(0.047999997)">
<use href="#path30" transform="translate(0 0)"/>
</g>
</g>
<g>
<g data-source-text="" fill="#dee4e3" transform="translate(1032 118.584) rotate(0) scale(0.047999997)">
<use href="#path31" transform="translate(0 0)"/>
</g>
</g>
<g>
<g data-source-text="" fill="#dee4e3" transform="translate(1104 118.584) rotate(0) scale(0.047999997)">
<use href="#path32" transform="translate(0 0)"/>
</g>
</g>
<g>
<g data-source-text="" fill="#dee4e3" transform="translate(1176 118.584) rotate(0) scale(0.047999997)">
<use href="#path33" transform="translate(0 0)"/>
</g>
</g>
<g>
<g data-source-text="" fill="#dee4e3" transform="translate(1248 118.584) rotate(0) scale(0.047999997)">
<use href="#path34" transform="translate(0 0)"/>
</g>
</g>
<g>
<g data-source-text="U+2410" fill="#dee4e3" transform="translate(36 185.292) rotate(0) scale(0.023999998)">
<use href="#path17" transform="translate(0 0)"/>
<use href="#path18" transform="translate(500 0)"/>
<use href="#path3" transform="translate(1000 0)"/>
<use href="#path5" transform="translate(1500 0)"/>
<use href="#path2" transform="translate(2000 0)"/>
<use href="#path1" transform="translate(2500 0)"/>
</g>
</g>
<g>
<g data-source-text="" fill="#dee4e3" transform="translate(168 190.584) rotate(0) scale(0.047999997)">
<use href="#path35" transform="translate(0 0)"/>
</g>
</g>
<g>
<g data-source-text="" fill="#dee4e3" transform="translate(240 190.584) rotate(0) scale(0.047999997)">
<use href="#path36" transform="translate(0 0)"/>
</g>
</g>
<g>
<g data-source-text="" fill="#dee4e3" transform="translate(312 190.584) rotate(0) scale(0.047999997)">
<use href="#path37" transform="translate(0 0)"/>
</g>
</g>
<g>
<g data-source-text="" fill="#dee4e3" transform="translate(384 190.584) rotate(0) scale(0.047999997)">
<use href="#path38" transform="translate(0 0)"/>
</g>
</g>
<g>
<g data-source-text="" fill="#dee4e3" transform="translate(456 190.584) rotate(0) scale(0.047999997)">
<use href="#path39" transform="translate(0 0)"/>
</g>
</g>
<g>
<g data-source-text="" fill="#dee4e3" transform="translate(528 190.584) rotate(0) scale(0.047999997)">
<use href="#path40" transform="translate(0 0)"/>
</g>
</g>
<g>
<g data-source-text="" fill="#dee4e3" transform="translate(600 190.584) rotate(0) scale(0.047999997)">
<use href="#path41" transform="translate(0 0)"/>
</g>
</g>
<g>
<g data-source-text="" fill="#dee4e3" transform="translate(672 190.584) rotate(0) scale(0.047999997)">
<use href="#path42" transform="translate(0 0)"/>
</g>
</g>
<g>
<g data-source-text="" fill="#dee4e3" transform="translate(744 190.584) rotate(0) scale(0.047999997)">
<use href="#path43" transform="translate(0 0)"/>
</g>
</g>
<g>
<g data-source-text="" fill="#dee4e3" transform="translate(816 190.584) rotate(0) scale(0.047999997)">
<use href="#path44" transform="translate(0 0)"/>
</g>
</g>
<g>
<g data-source-text="" fill="#dee4e3" transform="translate(888 190.584) rotate(0) scale(0.047999997)">
<use href="#path45" transform="translate(0 0)"/>
</g>
</g>
<g>
<g data-source-text="" fill="#dee4e3" transform="translate(960 190.584) rotate(0) scale(0.047999997)">
<use href="#path46" transform="translate(0 0)"/>
</g>
</g>
<g>
<g data-source-text="" fill="#dee4e3" transform="translate(1032 190.584) rotate(0) scale(0.047999997)">
<use href="#path47" transform="translate(0 0)"/>
</g>
</g>
<g>
<g data-source-text="" fill="#dee4e3" transform="translate(1104 190.584) rotate(0) scale(0.047999997)">
<use href="#path48" transform="translate(0 0)"/>
</g>
</g>
<g>
<g data-source-text="" fill="#dee4e3" transform="translate(1176 190.584) rotate(0) scale(0.047999997)">
<use href="#path49" transform="translate(0 0)"/>
</g>
</g>
<g>
<g data-source-text="" fill="#dee4e3" transform="translate(1248 190.584) rotate(0) scale(0.047999997)">
<use href="#path50" transform="translate(0 0)"/>
</g>
</g>
<g>
<g data-source-text="U+2420" fill="#dee4e3" transform="translate(36 257.292) rotate(0) scale(0.023999998)">
<use href="#path17" transform="translate(0 0)"/>
<use href="#path18" transform="translate(500 0)"/>
<use href="#path3" transform="translate(1000 0)"/>
<use href="#path5" transform="translate(1500 0)"/>
<use href="#path3" transform="translate(2000 0)"/>
<use href="#path1" transform="translate(2500 0)"/>
</g>
</g>
<g>
<g data-source-text="" fill="#dee4e3" transform="translate(168 262.584) rotate(0) scale(0.047999997)">
<use href="#path51" transform="translate(0 0)"/>
</g>
</g>
<g>
<g data-source-text="" fill="#dee4e3" transform="translate(240 262.584) rotate(0) scale(0.047999997)">
<use href="#path52" transform="translate(0 0)"/>
</g>
</g>
<g>
<g data-source-text="" fill="#dee4e3" transform="translate(312 262.584) rotate(0) scale(0.047999997)">
<use href="#path53" transform="translate(0 0)"/>
</g>
</g>
<g>
<g data-source-text="" fill="#dee4e3" transform="translate(384 262.584) rotate(0) scale(0.047999997)">
<use href="#path54" transform="translate(0 0)"/>
</g>
</g>
<g>
<g data-source-text="" fill="#dee4e3" transform="translate(456 262.584) rotate(0) scale(0.047999997)">
<use href="#path55" transform="translate(0 0)"/>
</g>
</g>
<g>
<g data-source-text="" fill="#dee4e3" transform="translate(528 262.584) rotate(0) scale(0.047999997)">
<use href="#path56" transform="translate(0 0)"/>
</g>
</g>
<g>
<g data-source-text="" fill="#dee4e3" transform="translate(600 262.584) rotate(0) scale(0.047999997)">
<use href="#path57" transform="translate(0 0)"/>
</g>
</g>
<g>
<g data-source-text="" fill="#dee4e3" transform="translate(672 262.584) rotate(0) scale(0.047999997)">
<use href="#path58" transform="translate(0 0)"/>
</g>
</g>
<g>
<g data-source-text="" fill="#dee4e3" transform="translate(744 262.584) rotate(0) scale(0.047999997)">
<use href="#path59" transform="translate(0 0)"/>
</g>
</g>
<g>
<g data-source-text="" fill="#dee4e3" transform="translate(816 262.584) rotate(0) scale(0.047999997)">
<use href="#path60" transform="translate(0 0)"/>
</g>
</g>
<g>
<g data-source-text="" fill="#dee4e340" transform="translate(888 262.584) rotate(0) scale(0.047999997)">
<use href="#path61" transform="translate(0 0)"/>
</g>
</g>
<g>
<g data-source-text="" fill="#dee4e340" transform="translate(960 262.584) rotate(0) scale(0.047999997)">
<use href="#path61" transform="translate(0 0)"/>
</g>
</g>
<g>
<g data-source-text="" fill="#dee4e340" transform="translate(1032 262.584) rotate(0) scale(0.047999997)">
<use href="#path61" transform="translate(0 0)"/>
</g>
</g>
<g>
<g data-source-text="" fill="#dee4e340" transform="translate(1104 262.584) rotate(0) scale(0.047999997)">
<use href="#path61" transform="translate(0 0)"/>
</g>
</g>
<g>
<g data-source-text="" fill="#dee4e340" transform="translate(1176 262.584) rotate(0) scale(0.047999997)">
<use href="#path61" transform="translate(0 0)"/>
</g>
</g>
<g>
<g data-source-text="" fill="#dee4e340" transform="translate(1248 262.584) rotate(0) scale(0.047999997)">
<use href="#path61" transform="translate(0 0)"/>
</g>
</g>
<g>
<g data-source-text="U+2430" fill="#dee4e3" transform="translate(36 329.292) rotate(0) scale(0.023999998)">
<use href="#path17" transform="translate(0 0)"/>
<use href="#path18" transform="translate(500 0)"/>
<use href="#path3" transform="translate(1000 0)"/>
<use href="#path5" transform="translate(1500 0)"/>
<use href="#path4" transform="translate(2000 0)"/>
<use href="#path1" transform="translate(2500 0)"/>
</g>
</g>
<g>
<g data-source-text="" fill="#dee4e340" transform="translate(168 334.584) rotate(0) scale(0.047999997)">
<use href="#path61" transform="translate(0 0)"/>
</g>
</g>
<g>
<g data-source-text="" fill="#dee4e340" transform="translate(240 334.584) rotate(0) scale(0.047999997)">
<use href="#path61" transform="translate(0 0)"/>
</g>
</g>
<g>
<g data-source-text="" fill="#dee4e340" transform="translate(312 334.584) rotate(0) scale(0.047999997)">
<use href="#path61" transform="translate(0 0)"/>
</g>
</g>
<g>
<g data-source-text="" fill="#dee4e340" transform="translate(384 334.584) rotate(0) scale(0.047999997)">
<use href="#path61" transform="translate(0 0)"/>
</g>
</g>
<g>
<g data-source-text="" fill="#dee4e340" transform="translate(456 334.584) rotate(0) scale(0.047999997)">
<use href="#path61" transform="translate(0 0)"/>
</g>
</g>
<g>
<g data-source-text="" fill="#dee4e340" transform="translate(528 334.584) rotate(0) scale(0.047999997)">
<use href="#path61" transform="translate(0 0)"/>
</g>
</g>
<g>
<g data-source-text="" fill="#dee4e340" transform="translate(600 334.584) rotate(0) scale(0.047999997)">
<use href="#path61" transform="translate(0 0)"/>
</g>
</g>
<g>
<g data-source-text="" fill="#dee4e340" transform="translate(672 334.584) rotate(0) scale(0.047999997)">
<use href="#path61" transform="translate(0 0)"/>
</g>
</g>
<g>
<g data-source-text="" fill="#dee4e340" transform="translate(744 334.584) rotate(0) scale(0.047999997)">
<use href="#path61" transform="translate(0 0)"/>
</g>
</g>
<g>
<g data-source-text="" fill="#dee4e340" transform="translate(816 334.584) rotate(0) scale(0.047999997)">
<use href="#path61" transform="translate(0 0)"/>
</g>
</g>
<g>
<g data-source-text="" fill="#dee4e340" transform="translate(888 334.584) rotate(0) scale(0.047999997)">
<use href="#path61" transform="translate(0 0)"/>
</g>
</g>
<g>
<g data-source-text="" fill="#dee4e340" transform="translate(960 334.584) rotate(0) scale(0.047999997)">
<use href="#path61" transform="translate(0 0)"/>
</g>
</g>
<g>
<g data-source-text="" fill="#dee4e340" transform="translate(1032 334.584) rotate(0) scale(0.047999997)">
<use href="#path61" transform="translate(0 0)"/>
</g>
</g>
<g>
<g data-source-text="" fill="#dee4e340" transform="translate(1104 334.584) rotate(0) scale(0.047999997)">
<use href="#path61" transform="translate(0 0)"/>
</g>
</g>
<g>
<g data-source-text="" fill="#dee4e340" transform="translate(1176 334.584) rotate(0) scale(0.047999997)">
<use href="#path61" transform="translate(0 0)"/>
</g>
</g>
<g>
<g data-source-text="" fill="#dee4e340" transform="translate(1248 334.584) rotate(0) scale(0.047999997)">
<use href="#path61" transform="translate(0 0)"/>
</g>
</g>
</svg>