<?xml version="1.0" encoding="UTF-8" standalone="no"?>
<svg height="360" viewBox="0 0 1296 360" width="1296" xmlns="http://www.w3.org/2000/svg">
<defs>
<path d="M 250 8 Q 223 8 196 3 Q 169 -2 145 -15 Q 121 -28 102.5 -48.5 Q 84 -69 72.5 -94 Q 61 -119 56.5 -146 Q 52 -173 52 -200 L 52 -535 Q 52 -562 56.5 -589 Q 61 -616 72.5 -641 Q 84 -666 102.5 -686.5 Q 121 -707 145 -720 Q 169 -733 196 -738 Q 223 -743 250 -743 Q 277 -743 304 -738 Q 331 -733 355 -720 Q 379 -707 397.5 -686.5 Q 416 -666 427.5 -641 Q 439 -616 443.5 -589 Q 448 -562 448 -535 L 448 -200 Q 448 -173 443.5 -146 Q 439 -119 427.5 -94 Q 416 -69 397.5 -48.5 Q 379 -28 355 -15 Q 331 -2 304 3 Q 277 8 250 8 Z M 152 -338 L 348 -493 L 348 -535 Q 348 -557 343 -579 Q 338 -601 325.5 -618.5 Q 313 -636 292.5 -645.5 Q 272 -655 250 -655 Q 228 -655 207.5 -645.5 Q 187 -636 174.5 -618.5 Q 162 -601 157 -579 Q 152 -557 152 -535 Z M 250 -80 Q 272 -80 292.5 -89.5 Q 313 -99 325.5 -116.5 Q 338 -134 343 -156 Q 348 -178 348 -200 L 348 -397 L 152 -242 L 152 -200 Q 152 -178 157 -156 Q 162 -134 174.5 -116.5 Q 187 -99 207.5 -89.5 Q 228 -80 250 -80 Z " id="path1"/>
<path d="M 230 0 L 230 -632 L 110 -528 L 55 -584 L 230 -735 L 330 -735 L 330 0 Z " id="path2"/>
<path d="M 60 0 L 60 -1 Q 60 -27 61 -54 Q 62 -81 65.5 -107 Q 69 -133 77 -158.5 Q 85 -184 96.5 -208 Q 108 -232 123 -253.5 Q 138 -275 156 -294.5 Q 174 -314 194 -331 Q 214 -348 235.5 -364 Q 257 -380 277.5 -397 Q 298 -414 313 -435.5 Q 328 -457 336 -483 Q 344 -509 344 -535 Q 344 -557 339.5 -578 Q 335 -599 323.5 -617 Q 312 -635 292 -645 Q 272 -655 251 -655 Q 231 -655 212.5 -647.5 Q 194 -640 181.5 -625 Q 169 -610 163.5 -591 Q 158 -572 158 -552 L 158 -548 L 58 -548 L 58 -555 Q 58 -581 63.5 -606 Q 69 -631 81 -653 Q 93 -675 111.5 -693 Q 130 -711 152.5 -722.5 Q 175 -734 200.5 -738.5 Q 226 -743 251 -743 Q 278 -743 304.5 -737.5 Q 331 -732 354.5 -719 Q 378 -706 396 -685.5 Q 414 -665 425 -640.5 Q 436 -616 440 -589 Q 444 -562 444 -535 Q 444 -501 435 -468 Q 426 -435 407.5 -406 Q 389 -377 364 -353.5 Q 339 -330 312.5 -308.5 Q 286 -287 261 -264 Q 236 -241 216 -213 Q 196 -185 183 -153.5 Q 170 -122 165 -88 L 440 -88 L 440 0 Z " id="path3"/>
<path d="M 253 8 Q 227 8 201 4 Q 175 -0 151 -11.5 Q 127 -23 107.5 -40.5 Q 88 -58 75.5 -81 Q 63 -104 56.5 -129.5 Q 50 -155 50 -181 L 50 -187 L 150 -187 L 150 -184 Q 150 -163 157 -143 Q 164 -123 178 -108 Q 192 -93 212 -86.5 Q 232 -80 253 -80 Q 275 -80 296 -88.5 Q 317 -97 330.5 -114.5 Q 344 -132 350 -154 Q 356 -176 356 -198 Q 356 -217 352 -235.5 Q 348 -254 339 -271 Q 330 -288 316.5 -301 Q 303 -314 286 -322 Q 269 -330 250 -332 Q 231 -334 212 -334 L 212 -422 Q 229 -422 246 -424 Q 263 -426 278.5 -433 Q 294 -440 306 -452.5 Q 318 -465 325.5 -480.5 Q 333 -496 336.5 -513 Q 340 -530 340 -547 Q 340 -566 335.5 -585.5 Q 331 -605 320 -621.5 Q 309 -638 291 -646.5 Q 273 -655 253 -655 Q 234 -655 216 -647 Q 198 -639 187 -624 Q 176 -609 171 -590 Q 166 -571 166 -553 L 166 -548 L 66 -548 L 66 -556 Q 66 -581 71.5 -605.5 Q 77 -630 88 -652 Q 99 -674 116.5 -692.5 Q 134 -711 156.5 -722.5 Q 179 -734 203.5 -738.5 Q 228 -743 253 -743 Q 278 -743 303.5 -738 Q 329 -733 351 -721 Q 373 -709 390.5 -690 Q 408 -671 419 -648 Q 430 -625 435 -600 Q 440 -575 440 -550 Q 440 -524 434 -498.5 Q 428 -473 416 -450.5 Q 404 -428 385 -409.5 Q 366 -391 343 -379 Q 370 -368 391.5 -348.5 Q 413 -329 427.5 -304.5 Q 442 -280 449 -252 Q 456 -224 456 -196 Q 456 -168 450 -141.5 Q 444 -115 432 -91 Q 420 -67 401 -47 Q 382 -27 358 -14.5 Q 334 -2 307 3 Q 280 8 253 8 Z " id="path4"/>
<path d="M 299 0 L 299 -151 L 52 -151 L 52 -239 L 288 -735 L 388 -735 L 152 -239 L 299 -239 L 299 -417 L 394 -417 L 394 -239 L 440 -239 L 440 -151 L 394 -151 L 394 0 Z " id="path5"/>
<path d="M 252 8 Q 227 8 202.5 3.5 Q 178 -1 155.5 -12 Q 133 -23 114.5 -41 Q 96 -59 84 -80.5 Q 72 -102 65.5 -126.5 Q 59 -151 58 -176 L 159 -176 Q 160 -158 166.5 -139.5 Q 173 -121 185.5 -107 Q 198 -93 216 -86.5 Q 234 -80 252 -80 Q 269 -80 285 -87 Q 301 -94 312.5 -107 Q 324 -120 330.5 -135.5 Q 337 -151 341 -167.5 Q 345 -184 346.5 -201 Q 348 -218 348 -235 Q 348 -252 346.5 -269 Q 345 -286 341.5 -302.5 Q 338 -319 331.5 -334.5 Q 325 -350 314.5 -363 Q 304 -376 288 -383.5 Q 272 -391 256 -391 Q 240 -391 224 -387 Q 208 -383 195.5 -373.5 Q 183 -364 176 -349.5 Q 169 -335 168 -319 L 68 -319 L 68 -735 L 421 -735 L 421 -647 L 168 -647 L 168 -464 Q 189 -472 211 -475 Q 233 -478 256 -478 Q 285 -478 313.5 -470.5 Q 342 -463 365.5 -445.5 Q 389 -428 405.5 -403 Q 422 -378 431.5 -350.5 Q 441 -323 444.5 -294 Q 448 -265 448 -235 Q 448 -206 444.5 -176.5 Q 441 -147 431 -119 Q 421 -91 404.5 -66.5 Q 388 -42 364 -24.5 Q 340 -7 311 0.5 Q 282 8 252 8 Z " id="path6"/>
<path d="M 250 8 Q 221 8 192.5 1.5 Q 164 -5 140 -21 Q 116 -37 98.5 -60.5 Q 81 -84 70.5 -111 Q 60 -138 56 -166.5 Q 52 -195 52 -224 Q 52 -268 59.5 -311 Q 67 -354 81 -395.5 Q 95 -437 113 -477 Q 131 -517 150 -556 L 238 -735 L 347 -735 L 240 -517 Q 228 -492 216 -467 Q 204 -442 194 -416 Q 212 -436 238.5 -446 Q 265 -456 292 -456 Q 318 -456 343.5 -447 Q 369 -438 387.5 -419.5 Q 406 -401 418 -377 Q 430 -353 436.5 -328 Q 443 -303 445.5 -276.5 Q 448 -250 448 -224 Q 448 -195 444 -166.5 Q 440 -138 429.5 -111 Q 419 -84 401.5 -60.5 Q 384 -37 360 -21 Q 336 -5 307.5 1.5 Q 279 8 250 8 Z M 250 -80 Q 266 -80 282 -85.5 Q 298 -91 309.5 -102.5 Q 321 -114 328.5 -129 Q 336 -144 340.5 -159.5 Q 345 -175 346.5 -191.5 Q 348 -208 348 -224 Q 348 -240 346.5 -256.5 Q 345 -273 340.5 -289 Q 336 -305 328.5 -319.5 Q 321 -334 309.5 -345.5 Q 298 -357 282 -362.5 Q 266 -368 250 -368 Q 235 -368 221 -363.5 Q 207 -359 195.5 -349.5 Q 184 -340 176 -327.5 Q 168 -315 163.5 -301 Q 159 -287 156.5 -272.5 Q 154 -258 153 -243 Q 153 -238 152.5 -233.5 Q 152 -229 152 -224 Q 152 -208 153.5 -191.5 Q 155 -175 159.5 -159.5 Q 164 -144 171.5 -129 Q 179 -114 190.5 -102.5 Q 202 -91 218 -85.5 Q 234 -80 250 -80 Z " id="path7"/>
<path d="M 138 0 L 336 -647 L 60 -647 L 60 -735 L 440 -735 L 440 -647 L 242 0 Z " id="path8"/>
<path d="M 250 8 Q 225 8 200 4 Q 175 -0 152 -10 Q 129 -20 109.5 -37 Q 90 -54 77.5 -75.5 Q 65 -97 58.5 -121.5 Q 52 -146 52 -172 Q 52 -203 61.5 -232.5 Q 71 -262 88 -288.5 Q 105 -315 127 -336.5 Q 149 -358 174 -378 Q 152 -396 132.5 -417 Q 113 -438 98.5 -462.5 Q 84 -487 76 -514.5 Q 68 -542 68 -570 Q 68 -594 73.5 -617.5 Q 79 -641 90.5 -661.5 Q 102 -682 119.5 -698.5 Q 137 -715 158 -725 Q 179 -735 202.5 -739 Q 226 -743 250 -743 Q 274 -743 297.5 -739 Q 321 -735 342 -725 Q 363 -715 380.5 -698.5 Q 398 -682 409.5 -661.5 Q 421 -641 426.5 -617.5 Q 432 -594 432 -570 Q 432 -542 424 -514.5 Q 416 -487 401.5 -462.5 Q 387 -438 367.5 -417 Q 348 -396 326 -378 Q 351 -358 373 -336.5 Q 395 -315 412 -288.5 Q 429 -262 438.5 -232.5 Q 448 -203 448 -172 Q 448 -146 441.5 -121.5 Q 435 -97 422.5 -75.5 Q 410 -54 390.5 -37 Q 371 -20 348 -10 Q 325 -0 300 4 Q 275 8 250 8 Z M 250 -434 Q 266 -447 280.5 -461.5 Q 295 -476 306.5 -493 Q 318 -510 325 -529.5 Q 332 -549 332 -569 Q 332 -586 327 -602.5 Q 322 -619 310.5 -631.5 Q 299 -644 283 -649.5 Q 267 -655 250 -655 Q 233 -655 217 -649.5 Q 201 -644 189.5 -631.5 Q 178 -619 173 -602.5 Q 168 -586 168 -569 Q 168 -549 175 -529.5 Q 182 -510 193.5 -493 Q 205 -476 219.5 -461.5 Q 234 -447 250 -434 Z M 250 -80 Q 269 -80 288 -85.5 Q 307 -91 320.5 -104 Q 334 -117 341 -135.5 Q 348 -154 348 -173 Q 348 -196 339.5 -217.5 Q 331 -239 317 -257.5 Q 303 -276 285.5 -291 Q 268 -306 250 -320 Q 232 -306 214.5 -291 Q 197 -276 183 -257.5 Q 169 -239 160.5 -217.5 Q 152 -196 152 -173 Q 152 -154 159 -135.5 Q 166 -117 179.5 -104 Q 193 -91 212 -85.5 Q 231 -80 250 -80 Z " id="path9"/>
<path d="M 262 0 L 153 0 L 260 -218 Q 272 -243 284 -268 Q 296 -293 306 -319 Q 288 -299 261.5 -289 Q 235 -279 208 -279 Q 182 -279 156.5 -288 Q 131 -297 112.5 -315.5 Q 94 -334 82 -358 Q 70 -382 63.5 -407 Q 57 -432 54.5 -458.5 Q 52 -485 52 -511 Q 52 -540 56 -568.5 Q 60 -597 70.5 -624 Q 81 -651 98.5 -674.5 Q 116 -698 140 -714 Q 164 -730 192.5 -736.5 Q 221 -743 250 -743 Q 279 -743 307.5 -736.5 Q 336 -730 360 -714 Q 384 -698 401.5 -674.5 Q 419 -651 429.5 -624 Q 440 -597 444 -568.5 Q 448 -540 448 -511 Q 448 -467 440.5 -424 Q 433 -381 419 -339.5 Q 405 -298 387 -258 Q 369 -218 350 -179 Z M 250 -367 Q 265 -367 279 -371.5 Q 293 -376 304.5 -385.5 Q 316 -395 324 -407.5 Q 332 -420 336.5 -434 Q 341 -448 343.5 -462.5 Q 346 -477 347 -492 Q 347 -497 347.5 -501.5 Q 348 -506 348 -511 Q 348 -527 346.5 -543.5 Q 345 -560 340.5 -575.5 Q 336 -591 328.5 -606 Q 321 -621 309.5 -632.5 Q 298 -644 282 -649.5 Q 266 -655 250 -655 Q 234 -655 218 -649.5 Q 202 -644 190.5 -632.5 Q 179 -621 171.5 -606 Q 164 -591 159.5 -575.5 Q 155 -560 153.5 -543.5 Q 152 -527 152 -511 Q 152 -495 153.5 -478.5 Q 155 -462 159.5 -446 Q 164 -430 171.5 -415.5 Q 179 -401 190.5 -389.5 Q 202 -378 218 -372.5 Q 234 -367 250 -367 Z " id="path10"/>
<path d="M 39 0 L 53 -70 L 192 -735 L 308 -735 L 461 0 L 359 0 L 326 -172 L 174 -172 L 141 0 Z M 310 -260 L 267 -490 Q 263 -513 258.5 -536 Q 254 -559 250 -582 Q 246 -559 241.5 -536 Q 237 -513 233 -490 L 190 -260 Z " id="path11"/>
<path d="M 235 0 L 60 0 L 60 -735 L 235 -735 Q 261 -735 287 -730.5 Q 313 -726 336.5 -714 Q 360 -702 378.5 -682.5 Q 397 -663 408.5 -639.5 Q 420 -616 424.5 -590 Q 429 -564 429 -538 Q 429 -515 425.5 -492 Q 422 -469 411.5 -448.5 Q 401 -428 384.5 -411 Q 368 -394 348 -383 Q 373 -373 394.5 -355.5 Q 416 -338 430.5 -314.5 Q 445 -291 450.5 -264 Q 456 -237 456 -210 Q 456 -181 450.5 -152.5 Q 445 -124 431 -98.5 Q 417 -73 395.5 -53.5 Q 374 -34 347.5 -21.5 Q 321 -9 292.5 -4.5 Q 264 -0 235 0 Z M 160 -424 L 235 -424 Q 256 -424 275.5 -432.5 Q 295 -441 307.5 -457.5 Q 320 -474 324.5 -494.5 Q 329 -515 329 -536 Q 329 -557 324.5 -577.5 Q 320 -598 307.5 -614.5 Q 295 -631 275.5 -639 Q 256 -647 235 -647 L 160 -647 Z M 160 -88 L 235 -88 Q 251 -88 267.5 -91 Q 284 -94 298.5 -101.5 Q 313 -109 324.5 -121 Q 336 -133 343 -148 Q 350 -163 353 -179 Q 356 -195 356 -212 Q 356 -228 353 -244.5 Q 350 -261 343 -276 Q 336 -291 324.5 -303 Q 313 -315 298.5 -322.5 Q 284 -330 267.5 -333 Q 251 -336 235 -336 L 160 -336 Z " id="path12"/>
<path d="M 247 8 Q 220 8 193 3 Q 166 -2 142.5 -15.5 Q 119 -29 101 -49.5 Q 83 -70 71.5 -94.5 Q 60 -119 56 -146 Q 52 -173 52 -200 L 52 -535 Q 52 -562 56 -589 Q 60 -616 71.5 -640.5 Q 83 -665 101 -685.5 Q 119 -706 142.5 -719.5 Q 166 -733 193 -738 Q 220 -743 247 -743 Q 273 -743 298 -738.5 Q 323 -734 346 -723 Q 369 -712 387.5 -694 Q 406 -676 418 -653.5 Q 430 -631 436 -606 Q 442 -581 442 -555 L 442 -548 L 342 -548 L 342 -552 Q 342 -572 336 -591.5 Q 330 -611 317.5 -626 Q 305 -641 286 -648 Q 267 -655 247 -655 Q 225 -655 205 -645.5 Q 185 -636 173 -618 Q 161 -600 156.5 -578.5 Q 152 -557 152 -535 L 152 -200 Q 152 -178 156.5 -156.5 Q 161 -135 173 -117 Q 185 -99 205 -89.5 Q 225 -80 247 -80 Q 267 -80 286 -87 Q 305 -94 317.5 -109 Q 330 -124 336 -143.5 Q 342 -163 342 -183 L 342 -187 L 442 -187 L 442 -180 Q 442 -154 436 -129 Q 430 -104 418 -81.5 Q 406 -59 387.5 -41 Q 369 -23 346 -12 Q 323 -1 298 3.5 Q 273 8 247 8 Z " id="path13"/>
<path d="M 60 0 L 60 -735 L 220 -735 Q 250 -735 280 -730 Q 310 -725 337 -712 Q 364 -699 386.5 -678.5 Q 409 -658 423 -631.5 Q 437 -605 442.5 -575 Q 448 -545 448 -515 L 448 -220 Q 448 -190 442.5 -160 Q 437 -130 423 -103.5 Q 409 -77 386.5 -56.5 Q 364 -36 337 -23 Q 310 -10 280 -5 Q 250 -0 220 0 Z M 160 -88 L 220 -88 Q 237 -88 254.5 -91 Q 272 -94 287.5 -102.5 Q 303 -111 315 -124 Q 327 -137 334.5 -152.5 Q 342 -168 345 -185.5 Q 348 -203 348 -220 L 348 -515 Q 348 -532 345 -549.5 Q 342 -567 334.5 -582.5 Q 327 -598 315 -611 Q 303 -624 287.5 -632.5 Q 272 -641 254.5 -644 Q 237 -647 220 -647 L 160 -647 Z " id="path14"/>
<path d="M 68 0 L 68 -735 L 440 -735 L 440 -647 L 168 -647 L 168 -426 L 383 -426 L 383 -338 L 168 -338 L 168 -88 L 440 -88 L 440 0 Z " id="path15"/>
<path d="M 90 0 L 90 -735 L 440 -735 L 440 -647 L 190 -647 L 190 -426 L 383 -426 L 383 -338 L 190 -338 L 190 0 Z " id="path16"/>
<path d="M 250 8 Q 223 8 196.5 2.5 Q 170 -3 147 -16.5 Q 124 -30 106.5 -50.5 Q 89 -71 78.5 -95.5 Q 68 -120 64 -146.5 Q 60 -173 60 -200 L 60 -735 L 160 -735 L 160 -200 Q 160 -186 161.5 -172 Q 163 -158 167.5 -144.5 Q 172 -131 179.5 -118.5 Q 187 -106 197.5 -97 Q 208 -88 222 -84 Q 236 -80 250 -80 Q 264 -80 278 -84 Q 292 -88 302.5 -97 Q 313 -106 320.5 -118.5 Q 328 -131 332.5 -144.5 Q 337 -158 338.5 -172 Q 340 -186 340 -200 L 340 -735 L 440 -735 L 440 -200 Q 440 -173 436 -146.5 Q 432 -120 421.5 -95.5 Q 411 -71 393.5 -50.5 Q 376 -30 353 -16.5 Q 330 -3 303.5 2.5 Q 277 8 250 8 Z " id="path17"/>
<path d="M 296 -142 L 204 -142 L 204 -300 L 60 -300 L 60 -380 L 204 -380 L 204 -538 L 296 -538 L 296 -380 L 440 -380 L 440 -300 L 296 -300 Z " id="path18"/>
<path d="M 64 0 L 64 -735 L 436 -735 L 436 0 Z M 104 -333 L 394 -695 L 300 -695 L 104 -450 Z M 104 -489 L 269 -695 L 175 -695 L 104 -606 Z M 104 -645 L 144 -695 L 104 -695 Z M 104 -176 L 396 -543 L 396 -660 L 104 -294 Z M 104 -40 L 119 -40 L 396 -386 L 396 -504 L 104 -137 Z M 150 -40 L 244 -40 L 396 -230 L 396 -347 Z M 275 -40 L 369 -40 L 396 -74 L 396 -191 Z " id="path19"/>
<path d="M 250 -517 Q 244 -517 237.5 -519.5 Q 231 -522 226.5 -526.5 Q 222 -531 219.5 -537.5 Q 217 -544 217 -550 Q 217 -556 219.5 -562.5 Q 222 -569 226.5 -573.5 Q 231 -578 237.5 -580.5 Q 244 -583 250 -583 Q 256 -583 262.5 -580.5 Q 269 -578 273.5 -573.5 Q 278 -569 280.5 -562.5 Q 283 -556 283 -550 Q 283 -544 280.5 -537.5 Q 278 -531 273.5 -526.5 Q 269 -522 262.5 -519.5 Q 256 -517 250 -517 Z M 145 -489 Q 139 -489 132.5 -491.5 Q 126 -494 121.5 -498.5 Q 117 -503 114.5 -509 Q 112 -515 112 -522 Q 112 -528 114.5 -534 Q 117 -540 121.5 -545 Q 126 -550 132.5 -552.5 Q 139 -555 145 -555 Q 151 -555 157.5 -552.5 Q 164 -550 168.5 -545 Q 173 -540 175.5 -534 Q 178 -528 178 -522 Q 178 -515 175.5 -509 Q 173 -503 168.5 -498.5 Q 164 -494 157.5 -491.5 Q 151 -489 145 -489 Z M 355 -489 Q 349 -489 342.5 -491.5 Q 336 -494 331.5 -498.5 Q 327 -503 324.5 -509 Q 322 -515 322 -522 Q 322 -528 324.5 -534 Q 327 -540 331.5 -545 Q 336 -550 342.5 -552.5 Q 349 -555 355 -555 Q 361 -555 367.5 -552.5 Q 374 -550 378.5 -545 Q 383 -540 385.5 -534 Q 388 -528 388 -522 Q 388 -515 385.5 -509 Q 383 -503 378.5 -498.5 Q 374 -494 367.5 -491.5 Q 361 -489 355 -489 Z M 68 -412 Q 62 -412 56 -414.5 Q 50 -417 45 -421.5 Q 40 -426 37.5 -432.5 Q 35 -439 35 -445 Q 35 -451 37.5 -457.5 Q 40 -464 45 -468.5 Q 50 -473 56 -475.5 Q 62 -478 68 -478 Q 75 -478 81 -475.5 Q 87 -473 91.5 -468.5 Q 96 -464 98.5 -457.5 Q 101 -451 101 -445 Q 101 -439 98.5 -432.5 Q 96 -426 91.5 -421.5 Q 87 -417 81 -414.5 Q 75 -412 68 -412 Z M 432 -412 Q 425 -412 419 -414.5 Q 413 -417 408.5 -421.5 Q 404 -426 401.5 -432.5 Q 399 -439 399 -445 Q 399 -451 401.5 -457.5 Q 404 -464 408.5 -468.5 Q 413 -473 419 -475.5 Q 425 -478 432 -478 Q 438 -478 444 -475.5 Q 450 -473 455 -468.5 Q 460 -464 462.5 -457.5 Q 465 -451 465 -445 Q 465 -439 462.5 -432.5 Q 460 -426 455 -421.5 Q 450 -417 444 -414.5 Q 438 -412 432 -412 Z M 40 -307 Q 34 -307 27.5 -309.5 Q 21 -312 16.5 -316.5 Q 12 -321 9.5 -327.5 Q 7 -334 7 -340 Q 7 -346 9.5 -352.5 Q 12 -359 16.5 -363.5 Q 21 -368 27.5 -370.5 Q 34 -373 40 -373 Q 46 -373 52.5 -370.5 Q 59 -368 63.5 -363.5 Q 68 -359 70.5 -352.5 Q 73 -346 73 -340 Q 73 -334 70.5 -327.5 Q 68 -321 63.5 -316.5 Q 59 -312 52.5 -309.5 Q 46 -307 40 -307 Z M 460 -307 Q 454 -307 447.5 -309.5 Q 441 -312 436.5 -316.5 Q 432 -321 429.5 -327.5 Q 427 -334 427 -340 Q 427 -346 429.5 -352.5 Q 432 -359 436.5 -363.5 Q 441 -368 447.5 -370.5 Q 454 -373 460 -373 Q 466 -373 472.5 -370.5 Q 479 -368 483.5 -363.5 Q 488 -359 490.5 -352.5 Q 493 -346 493 -340 Q 493 -334 490.5 -327.5 Q 488 -321 483.5 -316.5 Q 479 -312 472.5 -309.5 Q 466 -307 460 -307 Z M 432 -202 Q 425 -202 419 -204.5 Q 413 -207 408.5 -211.5 Q 404 -216 401.5 -222.5 Q 399 -229 399 -235 Q 399 -241 401.5 -247.5 Q 404 -254 408.5 -258.5 Q 413 -263 419 -265.5 Q 425 -268 432 -268 Q 438 -268 444 -265.5 Q 450 -263 455 -258.5 Q 460 -254 462.5 -247.5 Q 465 -241 465 -235 Q 465 -229 462.5 -222.5 Q 460 -216 455 -211.5 Q 450 -207 444 -204.5 Q 438 -202 432 -202 Z M 68 -202 Q 62 -202 56 -204.5 Q 50 -207 45 -211.5 Q 40 -216 37.5 -222.5 Q 35 -229 35 -235 Q 35 -241 37.5 -247.5 Q 40 -254 45 -258.5 Q 50 -263 56 -265.5 Q 62 -268 68 -268 Q 75 -268 81 -265.5 Q 87 -263 91.5 -258.5 Q 96 -254 98.5 -247.5 Q 101 -241 101 -235 Q 101 -229 98.5 -222.5 Q 96 -216 91.5 -211.5 Q 87 -207 81 -204.5 Q 75 -202 68 -202 Z M 355 -125 Q 349 -125 342.5 -127.5 Q 336 -130 331.5 -135 Q 327 -140 324.5 -146 Q 322 -152 322 -158 Q 322 -165 324.5 -171 Q 327 -177 331.5 -181.5 Q 336 -186 342.5 -188.5 Q 349 -191 355 -191 Q 361 -191 367.5 -188.5 Q 374 -186 378.5 -181.5 Q 383 -177 385.5 -171 Q 388 -165 388 -158 Q 388 -152 385.5 -146 Q 383 -140 378.5 -135 Q 374 -130 367.5 -127.5 Q 361 -125 355 -125 Z M 145 -125 Q 139 -125 132.5 -127.5 Q 126 -130 121.5 -135 Q 117 -140 114.5 -146 Q 112 -152 112 -158 Q 112 -165 114.5 -171 Q 117 -177 121.5 -181.5 Q 126 -186 132.5 -188.5 Q 139 -191 145 -191 Q 151 -191 157.5 -188.5 Q 164 -186 168.5 -181.5 Q 173 -177 175.5 -171 Q 178 -165 178 -158 Q 178 -152 175.5 -146 Q 173 -140 168.5 -135 Q 164 -130 157.5 -127.5 Q 151 -125 145 -125 Z M 250 -97 Q 244 -97 237.5 -99.5 Q 231 -102 226.5 -106.5 Q 222 -111 219.5 -117.5 Q 217 -124 217 -130 Q 217 -136 219.5 -142.5 Q 222 -149 226.5 -153.5 Q 231 -158 237.5 -160.5 Q 244 -163 250 -163 Q 256 -163 262.5 -160.5 Q 269 -158 273.5 -153.5 Q 278 -149 280.5 -142.5 Q 283 -136 283 -130 Q 283 -124 280.5 -117.5 Q 278 -111 273.5 -106.5 Q 269 -102 262.5 -99.5 Q 256 -97 250 -97 Z " id="path20"/>
<path d="M -250 -613 Q -280 -613 -309 -620.5 Q -338 -628 -361 -647 Q -384 -666 -394.5 -694.5 Q -405 -723 -405 -753 L -335 -753 Q -335 -737 -329 -721 Q -323 -705 -311 -694.5 Q -299 -684 -282.5 -680 Q -266 -676 -250 -676 Q -232 -676 -214.5 -682 Q -197 -688 -181 -696.5 Q -165 -705 -150 -714.5 Q -135 -724 -119 -732.5 Q -103 -741 -85.5 -747 Q -68 -753 -50 -753 L -50 -690 Q -68 -690 -85.5 -684 Q -103 -678 -119 -669.5 Q -135 -661 -150 -651.5 Q -165 -642 -181 -633.5 Q -197 -625 -214.5 -619 Q -232 -613 -250 -613 Z " id="path21"/>
<path d="M -367 -613 L -367 -670 L -249 -670 L -156 -783 L -109 -750 L -204 -613 Z " id="path22"/>
<path d="M -296 -613 L -391 -750 L -344 -783 L -251 -670 L -133 -670 L -133 -613 Z " id="path23"/>
<path d="M -156 -603 L -249 -716 L -367 -716 L -367 -773 L -204 -773 L -109 -636 Z " id="path24"/>
<path d="M -344 -603 L -391 -636 L -296 -773 L -133 -773 L -133 -716 L -251 -716 Z " id="path25"/>
<path d="M -300 141 L -300 -67 L -252 -67 L -252 -26 Q -250 -34 -246.5 -41.5 Q -243 -49 -238 -55.5 Q -233 -62 -225.5 -66 Q -218 -70 -210 -70 Q -199 -70 -190 -63 Q -181 -56 -176.5 -45.5 Q -172 -35 -171 -23.5 Q -170 -12 -170 -1 L -218 -1 Q -218 -5 -218.5 -9 Q -219 -13 -220.5 -17 Q -222 -21 -225 -23.5 Q -228 -26 -232 -26 Q -237 -26 -240.5 -21.5 Q -244 -17 -246 -12 Q -248 -7 -249 -1.5 Q -250 4 -250.5 9 Q -251 14 -251.5 19.5 Q -252 25 -252 31 L -252 141 Z " id="path26"/>
<path d="M -320 -613 Q -336 -613 -352 -618 Q -368 -623 -380 -633.5 Q -392 -644 -400 -658.5 Q -408 -673 -413 -688.5 Q -418 -704 -419.5 -720.5 Q -421 -737 -421 -753 L -359 -753 Q -359 -740 -357.5 -727.5 Q -356 -715 -352.5 -703 Q -349 -691 -341 -680 Q -333 -669 -320 -669 Q -307 -669 -299 -680 Q -291 -691 -287 -703 Q -283 -715 -282 -727.5 Q -281 -740 -281 -753 L -93 -753 L -93 -697 L -225 -697 Q -229 -680 -236.5 -664.5 Q -244 -649 -256.5 -637 Q -269 -625 -286 -619 Q -303 -613 -320 -613 Z " id="path27"/>
<path d="M -180 -613 Q -197 -613 -214 -619 Q -231 -625 -243.5 -637 Q -256 -649 -263.5 -664.5 Q -271 -680 -275 -697 L -407 -697 L -407 -753 L -219 -753 Q -219 -740 -218 -727.5 Q -217 -715 -213 -703 Q -209 -691 -201 -680 Q -193 -669 -180 -669 Q -167 -669 -159 -680 Q -151 -691 -147.5 -703 Q -144 -715 -142.5 -727.5 Q -141 -740 -141 -753 L -79 -753 Q -79 -737 -80.5 -720.5 Q -82 -704 -87 -688.5 Q -92 -673 -100 -658.5 Q -108 -644 -120 -633.5 Q -132 -623 -148 -618 Q -164 -613 -180 -613 Z " id="path28"/>
<path d="M -366 -970 L -384 -1021 L -14 -1157 L 14 -1157 L 384 -1021 L 366 -970 L 0 -1075 Z " id="path29"/>
<path d="M -299 -525 L -299 -533 Q -285 -543 -274 -556 Q -263 -569 -254.5 -583.5 Q -246 -598 -239 -614 Q -232 -630 -232 -647 Q -232 -657 -237 -666.5 Q -242 -676 -250 -682 Q -258 -688 -268.5 -690.5 Q -279 -693 -289 -693 Q -297 -693 -305.5 -692 Q -314 -691 -322 -689 L -322 -752 Q -311 -754 -301 -755 Q -291 -756 -280 -756 Q -259 -756 -238 -750.5 Q -217 -745 -199.5 -732.5 Q -182 -720 -172 -700 Q -162 -680 -162 -659 Q -162 -639 -169 -619.5 Q -176 -600 -186.5 -583 Q -197 -566 -211 -551.5 Q -225 -537 -242 -525 Z " id="path30"/>
<path d="M -231 73 L -223 31 L -352 31 L -333 -67 L -269 -67 L -277 -25 L -148 -25 L -167 73 Z " id="path31"/>
<path d="M -284 -610 Q -295 -610 -306 -613.5 Q -317 -617 -324.5 -625.5 Q -332 -634 -335 -645 Q -338 -656 -338 -667 L -338 -717 L -297 -717 L -297 -667 Q -297 -660 -294 -653.5 Q -291 -647 -284 -647 Q -277 -647 -273.5 -653.5 Q -270 -660 -270 -667 L -270 -717 L -230 -717 L -230 -667 Q -230 -660 -226.5 -653.5 Q -223 -647 -216 -647 Q -209 -647 -206 -653.5 Q -203 -660 -203 -667 L -203 -717 L -162 -717 L -162 -667 Q -162 -656 -165 -645 Q -168 -634 -175.5 -625.5 Q -183 -617 -194 -613.5 Q -205 -610 -216 -610 Q -225 -610 -234 -612 Q -243 -614 -250 -619 Q -257 -614 -266 -612 Q -275 -610 -284 -610 Z " id="path32"/>
<path d="M -284 -610 Q -295 -610 -306.5 -614 Q -318 -618 -325.5 -627.5 Q -333 -637 -335.5 -648.5 Q -338 -660 -338 -672 Q -338 -685 -335 -697.5 Q -332 -710 -323.5 -720 Q -315 -730 -302.5 -734.5 Q -290 -739 -277 -739 L -270 -739 L -270 -777 Q -270 -781 -274 -784 Q -278 -787 -283 -787 Q -286 -787 -289 -784.5 Q -292 -782 -293 -778.5 Q -294 -775 -294.5 -771.5 Q -295 -768 -295 -764 L -295 -763 L -336 -763 L -336 -766 Q -336 -777 -333 -788 Q -330 -799 -322.5 -807.5 Q -315 -816 -304.5 -820 Q -294 -824 -283 -824 Q -274 -824 -265 -822.5 Q -256 -821 -248 -816 Q -241 -820 -233 -822 Q -225 -824 -216 -824 Q -205 -824 -194 -820.5 Q -183 -817 -175.5 -808.5 Q -168 -800 -165 -789 Q -162 -778 -162 -767 L -162 -699 L -230 -699 L -230 -667 Q -230 -660 -226.5 -653.5 Q -223 -647 -216 -647 Q -213 -647 -210 -649.5 Q -207 -652 -205.5 -655.5 Q -204 -659 -203.5 -662.5 Q -203 -666 -203 -670 L -203 -671 L -162 -671 L -162 -668 Q -162 -657 -165.5 -646 Q -169 -635 -176.5 -626.5 Q -184 -618 -194.5 -614 Q -205 -610 -216 -610 Q -225 -610 -233.5 -612 Q -242 -614 -249 -618 Q -256 -613 -265.5 -611.5 Q -275 -610 -284 -610 Z M -203 -735 L -203 -767 Q -203 -774 -206 -780.5 Q -209 -787 -216 -787 Q -223 -787 -226.5 -780.5 Q -230 -774 -230 -767 L -230 -735 Z M -284 -647 Q -279 -647 -274.5 -649.5 Q -270 -652 -270 -657 L -270 -702 L -277 -702 Q -282 -702 -286.5 -699.5 Q -291 -697 -293.5 -692.5 Q -296 -688 -296.5 -683 Q -297 -678 -297 -674 Q -297 -669 -296.5 -665 Q -296 -661 -295 -657 Q -294 -653 -291 -650 Q -288 -647 -284 -647 Z " id="path33"/>
<path d="M -284 -610 Q -295 -610 -306.5 -614 Q -318 -618 -325.5 -627.5 Q -333 -637 -335.5 -648.5 Q -338 -660 -338 -672 Q -338 -685 -335 -697.5 Q -332 -710 -323.5 -720 Q -315 -730 -302.5 -734.5 Q -290 -739 -277 -739 L -270 -739 L -270 -777 Q -270 -781 -274 -784 Q -278 -787 -283 -787 Q -286 -787 -289 -784.5 Q -292 -782 -293 -778.5 Q -294 -775 -294.5 -771.5 Q -295 -768 -295 -764 L -295 -763 L -336 -763 L -336 -766 Q -336 -777 -333 -788 Q -330 -799 -322.5 -807.5 Q -315 -816 -304.5 -820 Q -294 -824 -283 -824 Q -274 -824 -265 -822.5 Q -256 -821 -248 -816 Q -241 -820 -233 -822 Q -225 -824 -216 -824 Q -205 -824 -194 -820.5 Q -183 -817 -175.5 -808.5 Q -168 -800 -165 -789 Q -162 -778 -162 -767 L -162 -667 Q -162 -656 -165 -645 Q -168 -634 -175.5 -625.5 Q -183 -617 -194 -613.5 Q -205 -610 -216 -610 Q -225 -610 -233.5 -612 Q -242 -614 -249 -619 Q -256 -614 -265.5 -612 Q -275 -610 -284 -610 Z M -216 -647 Q -209 -647 -206 -653.5 Q -203 -660 -203 -667 L -203 -767 Q -203 -774 -206 -780.5 Q -209 -787 -216 -787 Q -223 -787 -226.5 -780.5 Q -230 -774 -230 -767 L -230 -667 Q -230 -660 -226.5 -653.5 Q -223 -647 -216 -647 Z M -284 -647 Q -279 -647 -274.5 -649.5 Q -270 -652 -270 -657 L -270 -702 L -277 -702 Q -282 -702 -286.5 -699.5 Q -291 -697 -293.5 -692.5 Q -296 -688 -296.5 -683 Q -297 -678 -297 -674 Q -297 -669 -296.5 -665 Q -296 -661 -295 -657 Q -294 -653 -291 -650 Q -288 -647 -284 -647 Z " id="path34"/>
<path d="M -250 -607 L -290 -607 L -290 -641 L -250 -641 Q -245 -641 -240 -643 Q -235 -645 -235 -649 Q -235 -655 -240 -658 Q -245 -661 -250 -661 L -269 -661 L -269 -693 Q -283 -696 -295 -703.5 Q -307 -711 -314.5 -722.5 Q -322 -734 -325 -747.5 Q -328 -761 -328 -775 L -328 -823 Q -328 -839 -323.5 -855 Q -319 -871 -308.5 -883 Q -298 -895 -282.5 -900.5 Q -267 -906 -251 -906 Q -236 -906 -221.5 -901.5 Q -207 -897 -196 -887 Q -185 -877 -180 -862.5 Q -175 -848 -175 -833 L -175 -831 L -223 -831 L -223 -832 Q -223 -838 -225 -843.5 Q -227 -849 -230.5 -853.5 Q -234 -858 -239.5 -860 Q -245 -862 -251 -862 Q -258 -862 -264 -858.5 Q -270 -855 -273.5 -849 Q -277 -843 -278 -836.5 Q -279 -830 -279 -823 L -279 -775 Q -279 -768 -278 -761.5 Q -277 -755 -273.5 -749 Q -270 -743 -264 -739.5 Q -258 -736 -251 -736 Q -245 -736 -239.5 -738 Q -234 -740 -230.5 -744.5 Q -227 -749 -225 -754.5 Q -223 -760 -223 -766 L -223 -767 L -175 -767 L -175 -765 Q -175 -753 -178.5 -740.5 Q -182 -728 -189.5 -718.5 Q -197 -709 -208 -702.5 Q -219 -696 -231 -693 L -231 -675 Q -220 -671 -213.5 -662 Q -207 -653 -207 -642 Q -207 -634 -210.5 -626.5 Q -214 -619 -220 -614.5 Q -226 -610 -234 -608.5 Q -242 -607 -250 -607 Z " id="path35"/>
<path d="M -250 -610 Q -267 -610 -283.5 -617 Q -300 -624 -310 -637.5 Q -320 -651 -324 -668.5 Q -328 -686 -328 -703 Q -328 -718 -325.5 -732.5 Q -323 -747 -317 -760.5 Q -311 -774 -298.5 -783.5 Q -286 -793 -271 -793 Q -263 -793 -255 -790.5 Q -247 -788 -241 -782.5 Q -235 -777 -230.5 -770 Q -226 -763 -223 -756 Q -226 -773 -230.5 -789.5 Q -235 -806 -243.5 -821 Q -252 -836 -265 -847.5 Q -278 -859 -293 -866 L -276 -907 Q -248 -897 -226.5 -876 Q -205 -855 -193 -828 Q -181 -801 -176.5 -771.5 Q -172 -742 -172 -712 L -172 -701 Q -172 -684 -176 -667 Q -180 -650 -190.5 -636.5 Q -201 -623 -217 -616.5 Q -233 -610 -250 -610 Z M -250 -654 Q -242 -654 -235.5 -659 Q -229 -664 -226 -671 Q -223 -678 -222 -685.5 Q -221 -693 -221 -701 Q -221 -709 -222 -717 Q -223 -725 -226 -732 Q -229 -739 -235.5 -744 Q -242 -749 -250 -749 Q -258 -749 -264.5 -744 Q -271 -739 -274 -732 Q -277 -725 -278 -717 Q -279 -709 -279 -701 Q -279 -694 -278 -686 Q -277 -678 -274 -671 Q -271 -664 -264.5 -659 Q -258 -654 -250 -654 Z " id="path36"/>
<path d="M -250 -610 Q -267 -610 -283.5 -617 Q -300 -624 -310 -637.5 Q -320 -651 -324 -668.5 Q -328 -686 -328 -703 Q -328 -718 -325.5 -732.5 Q -323 -747 -317 -760.5 Q -311 -774 -298.5 -783.5 Q -286 -793 -271 -793 Q -263 -793 -255 -790.5 Q -247 -788 -241 -782.5 Q -235 -777 -230.5 -770 Q -226 -763 -223 -756 Q -226 -772 -230.5 -788 Q -235 -804 -242 -818 L -305 -801 L -314 -832 L -263 -846 Q -270 -852 -277.5 -857 Q -285 -862 -293 -866 L -276 -907 Q -257 -900 -240.5 -888 Q -224 -876 -212 -860 L -188 -867 L -178 -836 L -195 -831 Q -182 -804 -177 -773.5 Q -172 -743 -172 -712 L -172 -701 Q -172 -684 -176 -667 Q -180 -650 -190.5 -636.5 Q -201 -623 -217 -616.5 Q -233 -610 -250 -610 Z M -250 -654 Q -242 -654 -235.5 -659 Q -229 -664 -226 -671 Q -223 -678 -222 -685.5 Q -221 -693 -221 -701 Q -221 -709 -222 -717 Q -223 -725 -226 -732 Q -229 -739 -235.5 -744 Q -242 -749 -250 -749 Q -258 -749 -264.5 -744 Q -271 -739 -274 -732 Q -277 -725 -278 -717 Q -279 -709 -279 -701 Q -279 -694 -278 -686 Q -277 -678 -274 -671 Q -271 -664 -264.5 -659 Q -258 -654 -250 -654 Z " id="path37"/>
<path d="M -251 -610 Q -264 -610 -277 -612.5 Q -290 -615 -301 -622.5 Q -312 -630 -318.5 -642 Q -325 -654 -325 -667 L -277 -667 Q -276 -663 -273 -660 Q -270 -657 -266.5 -656 Q -263 -655 -259 -654.5 Q -255 -654 -251 -654 Q -244 -654 -238.5 -657.5 Q -233 -661 -229.5 -667 Q -226 -673 -225 -679.5 Q -224 -686 -224 -693 L -224 -735 Q -227 -727 -231.5 -719.5 Q -236 -712 -242 -706.5 Q -248 -701 -256 -698.5 Q -264 -696 -273 -696 Q -287 -696 -299 -704 Q -311 -712 -317 -724.5 Q -323 -737 -325.5 -751 Q -328 -765 -328 -779 L -328 -827 Q -328 -841 -325.5 -855 Q -323 -869 -317 -881.5 Q -311 -894 -299 -902 Q -287 -910 -273 -910 Q -264 -910 -256 -907.5 Q -248 -905 -242 -899.5 Q -236 -894 -231.5 -886.5 Q -227 -879 -224 -871 L -224 -907 L -176 -907 L -176 -693 Q -176 -677 -180 -661 Q -184 -645 -194 -633 Q -204 -621 -219.5 -615.5 Q -235 -610 -251 -610 Z M -252 -740 Q -245 -740 -239 -743.5 Q -233 -747 -229.5 -753 Q -226 -759 -225 -765.5 Q -224 -772 -224 -779 L -224 -827 Q -224 -834 -225 -840.5 Q -226 -847 -229.5 -853 Q -233 -859 -239 -862.5 Q -245 -866 -252 -866 Q -258 -866 -264 -862.5 Q -270 -859 -273.5 -853 Q -277 -847 -278 -840.5 Q -279 -834 -279 -827 L -279 -779 Q -279 -772 -278 -765.5 Q -277 -759 -273.5 -753 Q -270 -747 -264 -743.5 Q -258 -740 -252 -740 Z " id="path38"/>
<path d="M -273 -610 Q -287 -610 -299 -617.5 Q -311 -625 -317 -637.5 Q -323 -650 -325.5 -663.5 Q -328 -677 -328 -691 L -328 -743 Q -328 -759 -323.5 -774.5 Q -319 -790 -308.5 -802 Q -298 -814 -282.5 -819 Q -267 -824 -251 -824 Q -236 -824 -221.5 -820 Q -207 -816 -196 -805.5 Q -185 -795 -180 -780.5 Q -175 -766 -175 -751 L -175 -749 L -223 -749 L -223 -750 Q -223 -756 -225 -761.5 Q -227 -767 -230.5 -771.5 Q -234 -776 -239.5 -778 Q -245 -780 -251 -780 Q -258 -780 -264 -777 Q -270 -774 -273.5 -768.5 Q -277 -763 -278 -756.5 Q -279 -750 -279 -743 L -279 -691 Q -279 -684 -278 -677.5 Q -277 -671 -273.5 -665.5 Q -270 -660 -264 -657 Q -258 -654 -252 -654 Q -245 -654 -239.5 -656.5 Q -234 -659 -230.5 -664.5 Q -227 -670 -225.5 -676 Q -224 -682 -224 -688 L -250 -688 L -250 -732 L -176 -732 L -176 -613 L -221 -613 L -221 -658 Q -223 -649 -227 -640 Q -231 -631 -238 -624 Q -245 -617 -254 -613.5 Q -263 -610 -273 -610 Z " id="path39"/>
<path d="M -221 -613 L -256 -685 L -270 -664 L -270 -613 L -318 -613 L -318 -907 L -270 -907 L -270 -738 L -222 -821 L -168 -821 L -230 -725 L -168 -613 Z " id="path40"/>
<path d="M -320 -613 L -320 -657 L -272 -657 L -272 -863 L -314 -863 L -314 -907 L -223 -907 L -223 -657 L -180 -657 L -180 -613 Z " id="path41"/>
<path d="M -312 -613 L -312 -821 L -263 -821 L -263 -657 L -173 -657 L -173 -613 Z " id="path42"/>
<path d="M -335 -613 L -335 -821 L -287 -821 L -250 -719 L -213 -821 L -165 -821 L -165 -613 L -210 -613 L -210 -655 Q -210 -683 -207 -711.5 Q -204 -740 -201 -768 L -234 -675 L -266 -675 L -299 -768 Q -296 -740 -293 -711.5 Q -290 -683 -290 -655 L -290 -613 Z " id="path43"/>
<path d="M -324 -613 L -324 -821 L -276 -821 L -276 -786 Q -273 -794 -269 -801 Q -265 -808 -259 -813.5 Q -253 -819 -245 -821.5 Q -237 -824 -229 -824 Q -215 -824 -203.5 -816 Q -192 -808 -186 -795.5 Q -180 -783 -178 -769 Q -176 -755 -176 -741 L -176 -613 L -224 -613 L -224 -741 Q -224 -748 -225 -754.5 Q -226 -761 -229 -767 Q -232 -773 -237.5 -776.5 Q -243 -780 -250 -780 Q -257 -780 -262.5 -776.5 Q -268 -773 -271 -767 Q -274 -761 -275 -754.5 Q -276 -748 -276 -741 L -276 -613 Z " id="path44"/>
<path d="M -324 -613 L -324 -821 L -276 -821 L -220 -688 Q -222 -700 -223 -712.5 Q -224 -725 -224 -738 L -224 -821 L -176 -821 L -176 -613 L -224 -613 L -280 -746 Q -278 -734 -277 -721.5 Q -276 -709 -276 -696 L -276 -613 Z " id="path45"/>
<path d="M -324 -613 L -324 -821 L -240 -821 Q -226 -821 -213 -816.5 Q -200 -812 -190 -802.5 Q -180 -793 -176 -779 Q -172 -765 -172 -752 Q -172 -742 -174 -732 Q -176 -722 -180.5 -713.5 Q -185 -705 -193 -698 Q -201 -691 -210 -687 L -166 -613 L -221 -613 L -261 -682 L -276 -682 L -276 -613 Z M -276 -726 L -240 -726 Q -236 -726 -231.5 -728 Q -227 -730 -225 -734 Q -223 -738 -222 -742.5 Q -221 -747 -221 -752 Q -221 -756 -222 -760.5 Q -223 -765 -225 -769 Q -227 -773 -231.5 -775 Q -236 -777 -240 -777 L -276 -777 Z " id="path46"/>
<path d="M -222 -613 L -260 -674 L -276 -674 L -276 -718 L -250 -718 Q -244 -718 -238 -720 Q -232 -722 -228 -726.5 Q -224 -731 -222.5 -736.5 Q -221 -742 -221 -748 Q -221 -754 -222.5 -760 Q -224 -766 -227.5 -770.5 Q -231 -775 -236.5 -777.5 Q -242 -780 -247 -780 Q -256 -780 -264.5 -776 Q -273 -772 -273 -763 L -322 -763 Q -322 -777 -316 -789.5 Q -310 -802 -299 -810 Q -288 -818 -274.5 -821 Q -261 -824 -247 -824 Q -232 -824 -217.5 -819.5 Q -203 -815 -192 -804 Q -181 -793 -176.5 -778.5 Q -172 -764 -172 -748 Q -172 -738 -174 -728 Q -176 -718 -180.5 -709 Q -185 -700 -192.5 -693 Q -200 -686 -210 -682 L -166 -613 Z " id="path47"/>
<path d="M -250 -610 Q -263 -610 -276.5 -612.5 Q -290 -615 -301 -622 Q -312 -629 -318.5 -640.5 Q -325 -652 -325 -665 L -325 -667 L -277 -667 Q -277 -663 -273.5 -660 Q -270 -657 -266.5 -655.5 Q -263 -654 -258.5 -654 Q -254 -654 -250 -654 Q -246 -654 -242 -654.5 Q -238 -655 -234 -656.5 Q -230 -658 -227 -661.5 Q -224 -665 -224 -669 Q -224 -676 -230 -681.5 Q -236 -687 -243 -689.5 Q -250 -692 -257 -694 Q -264 -696 -271 -699 Q -278 -702 -284 -706 Q -290 -710 -295.5 -714.5 Q -301 -719 -306 -725 Q -311 -731 -314.5 -737.5 Q -318 -744 -319.5 -751 Q -321 -758 -321 -766 Q -321 -779 -315.5 -791 Q -310 -803 -299.5 -810.5 Q -289 -818 -276 -821 Q -263 -824 -250 -824 Q -237 -824 -224.5 -821.5 Q -212 -819 -201 -812 Q -190 -805 -184 -793.5 Q -178 -782 -178 -769 L -178 -767 L -227 -767 Q -227 -771 -229.5 -774 Q -232 -777 -235.5 -778 Q -239 -779 -242.5 -779.5 Q -246 -780 -250 -780 Q -257 -780 -265 -776.5 Q -273 -773 -273 -765 Q -273 -758 -267 -753 Q -261 -748 -254 -745 Q -247 -742 -240 -740 Q -233 -738 -226 -735 Q -219 -732 -213 -728 Q -207 -724 -201.5 -719.5 Q -196 -715 -191 -709 Q -186 -703 -182.5 -696.5 Q -179 -690 -177.5 -683 Q -176 -676 -176 -669 Q -176 -655 -182 -643 Q -188 -631 -199 -623 Q -210 -615 -223.5 -612.5 Q -237 -610 -250 -610 Z " id="path48"/>
<path d="M -300 -613 L -300 -829 Q -300 -844 -296.5 -858.5 Q -293 -873 -285 -885 Q -277 -897 -263 -903.5 Q -249 -910 -234 -910 Q -220 -910 -207 -905 Q -194 -900 -185 -889 Q -176 -878 -172.5 -864.5 Q -169 -851 -169 -837 L -169 -835 L -217 -835 L -217 -836 Q -217 -841 -218 -845.5 Q -219 -850 -220.5 -854.5 Q -222 -859 -225.5 -862.5 Q -229 -866 -234 -866 Q -240 -866 -243.5 -861.5 Q -247 -857 -248.5 -851.5 Q -250 -846 -250.5 -840.5 Q -251 -835 -251 -829 L -251 -613 Z " id="path49"/>
<path d="M -324 -613 L -324 -657 L -229 -777 L -324 -777 L -324 -821 L -176 -821 L -176 -777 L -271 -657 L -176 -657 L -176 -613 Z " id="path50"/>
<path d="M -273 -610 Q -287 -610 -299 -618 Q -311 -626 -317 -638.5 Q -323 -651 -325.5 -665 Q -328 -679 -328 -693 L -328 -741 Q -328 -755 -325.5 -769 Q -323 -783 -317 -795.5 Q -311 -808 -299 -816 Q -287 -824 -273 -824 Q -264 -824 -256 -821.5 Q -248 -819 -242 -813.5 Q -236 -808 -231.5 -800.5 Q -227 -793 -224 -785 L -224 -821 L -176 -821 L -176 -613 L -224 -613 L -224 -649 Q -227 -641 -231.5 -633.5 Q -236 -626 -242 -620.5 Q -248 -615 -256 -612.5 Q -264 -610 -273 -610 Z M -252 -654 Q -245 -654 -239 -657.5 Q -233 -661 -229.5 -667 Q -226 -673 -225 -679.5 Q -224 -686 -224 -693 L -224 -741 Q -224 -748 -225 -754.5 Q -226 -761 -229.5 -767 Q -233 -773 -239 -776.5 Q -245 -780 -252 -780 Q -258 -780 -264 -776.5 Q -270 -773 -273.5 -767 Q -277 -761 -278 -754.5 Q -279 -748 -279 -741 L -279 -693 Q -279 -686 -278 -679.5 Q -277 -673 -273.5 -667 Q -270 -661 -264 -657.5 Q -258 -654 -252 -654 Z " id="path51"/>
<path d="M -227 -610 Q -236 -610 -244 -612.5 Q -252 -615 -258 -620.5 Q -264 -626 -268.5 -633.5 Q -273 -641 -276 -649 L -276 -613 L -324 -613 L -324 -907 L -276 -907 L -276 -785 Q -273 -793 -268.5 -800.5 Q -264 -808 -258 -813.5 Q -252 -819 -244 -821.5 Q -236 -824 -227 -824 Q -213 -824 -201 -816 Q -189 -808 -183 -795.5 Q -177 -783 -174.5 -769 Q -172 -755 -172 -741 L -172 -693 Q -172 -679 -174.5 -665 Q -177 -651 -183 -638.5 Q -189 -626 -201 -618 Q -213 -610 -227 -610 Z M -248 -654 Q -242 -654 -236 -657.5 Q -230 -661 -226.5 -667 Q -223 -673 -222 -679.5 Q -221 -686 -221 -693 L -221 -741 Q -221 -748 -222 -754.5 Q -223 -761 -226.5 -767 Q -230 -773 -236 -776.5 Q -242 -780 -248 -780 Q -255 -780 -261 -776.5 Q -267 -773 -270.5 -767 Q -274 -761 -275 -754.5 Q -276 -748 -276 -741 L -276 -693 Q -276 -686 -275 -679.5 Q -274 -673 -270.5 -667 Q -267 -661 -261 -657.5 Q -255 -654 -248 -654 Z " id="path52"/>
<path d="M -324 -613 L -324 -913 Q -324 -929 -320.5 -944 Q -317 -959 -307.5 -971.5 Q -298 -984 -283.5 -990 Q -269 -996 -253 -996 Q -238 -996 -223 -990 Q -208 -984 -198.5 -971.5 Q -189 -959 -185.5 -943.5 Q -182 -928 -182 -913 Q -182 -896 -187.5 -879.5 Q -193 -863 -207 -853 Q -198 -848 -191 -840.5 Q -184 -833 -179.5 -823.5 Q -175 -814 -173.5 -804 Q -172 -794 -172 -784 Q -172 -769 -174.5 -754.5 Q -177 -740 -183 -727 Q -189 -714 -201 -705 Q -213 -696 -228 -696 Q -243 -696 -256.5 -703.5 Q -270 -711 -276 -724 L -276 -613 Z M -249 -740 Q -242 -740 -235.5 -744.5 Q -229 -749 -226 -756 Q -223 -763 -222 -770.5 Q -221 -778 -221 -786 Q -221 -793 -222 -800.5 Q -223 -808 -226.5 -814.5 Q -230 -821 -236.5 -825.5 Q -243 -830 -250 -830 L -260 -830 L -260 -874 L -250 -874 Q -244 -874 -240 -878.5 Q -236 -883 -234 -888.5 Q -232 -894 -231.5 -900 Q -231 -906 -231 -912 Q -231 -918 -231.5 -924.5 Q -232 -931 -234.5 -937 Q -237 -943 -242 -947.5 Q -247 -952 -253 -952 Q -260 -952 -264.5 -948 Q -269 -944 -271.5 -938 Q -274 -932 -275 -925.5 Q -276 -919 -276 -913 L -276 -756 Q -275 -747 -266.5 -743.5 Q -258 -740 -249 -740 Z " id="path53"/>
<path d="M -250 -610 Q -266 -610 -282 -615.5 Q -298 -621 -308.5 -633 Q -319 -645 -323.5 -661 Q -328 -677 -328 -693 L -328 -739 L -221 -739 L -221 -741 Q -221 -748 -222 -755 Q -223 -762 -227 -768 Q -231 -774 -237 -777 Q -243 -780 -250 -780 Q -255 -780 -259.5 -779.5 Q -264 -779 -268 -777 Q -272 -775 -275 -771.5 Q -278 -768 -278 -763 L -327 -763 Q -327 -777 -320.5 -789.5 Q -314 -802 -302.5 -810 Q -291 -818 -277.5 -821 Q -264 -824 -250 -824 Q -234 -824 -218 -818.5 Q -202 -813 -191.5 -801 Q -181 -789 -176.5 -773 Q -172 -757 -172 -741 L -172 -693 Q -172 -677 -176.5 -661 Q -181 -645 -191.5 -633 Q -202 -621 -218 -615.5 Q -234 -610 -250 -610 Z M -250 -654 Q -243 -654 -237 -657 Q -231 -660 -227 -666 Q -223 -672 -222 -679 Q -221 -686 -221 -693 L -221 -695 L -279 -695 L -279 -693 Q -279 -686 -278 -679 Q -277 -672 -273 -666 Q -269 -660 -263 -657 Q -257 -654 -250 -654 Z " id="path54"/>
<path d="M -284 -613 L -284 -762 L -324 -762 L -324 -806 L -284 -806 L -284 -845 Q -284 -857 -281 -869.5 Q -278 -882 -270.5 -891.5 Q -263 -901 -251 -905.5 Q -239 -910 -227 -910 Q -215 -910 -204 -906.5 Q -193 -903 -185 -895 Q -177 -887 -173 -876 Q -169 -865 -169 -854 L -169 -853 L -217 -853 Q -217 -858 -219.5 -862 Q -222 -866 -227 -866 Q -230 -866 -232 -863.5 Q -234 -861 -234.5 -857.5 Q -235 -854 -235.5 -851 Q -236 -848 -236 -845 L -236 -806 L -183 -806 L -183 -762 L -236 -762 L -236 -613 Z " id="path55"/>
<path d="M -320 -613 L -320 -657 L -272 -657 L -272 -741 Q -276 -737 -281.5 -730.5 Q -287 -724 -293 -713 L -320 -727 Q -315 -736 -310 -743 Q -305 -750 -300 -755 Q -295 -760 -287.5 -764.5 Q -280 -769 -272 -770 L -272 -791 Q -276 -788 -281.5 -781 Q -287 -774 -293 -763 L -320 -777 Q -315 -786 -310 -793 Q -305 -800 -300 -805 Q -295 -810 -287.5 -815 Q -280 -820 -272 -820 L -272 -863 L -314 -863 L -314 -907 L -223 -907 L -223 -791 Q -218 -794 -213 -801 Q -208 -808 -201 -819 L -174 -805 Q -180 -796 -184.5 -789 Q -189 -782 -194 -777 Q -199 -772 -206.5 -767.5 Q -214 -763 -223 -762 L -223 -741 Q -218 -744 -213 -751 Q -208 -758 -201 -769 L -174 -755 Q -180 -746 -184.5 -739 Q -189 -732 -194 -727 Q -199 -722 -206.5 -717 Q -214 -712 -223 -712 L -223 -657 L -180 -657 L -180 -613 Z " id="path56"/>
<path d="M -321 -633 L -351 -647 L -310 -721 Q -320 -733 -324 -748.5 Q -328 -764 -328 -779 L -328 -827 Q -328 -843 -323.5 -859 Q -319 -875 -308.5 -887 Q -298 -899 -282 -904.5 Q -266 -910 -250 -910 Q -234 -910 -218 -904.5 Q -202 -899 -191.5 -887 Q -181 -875 -176.5 -859 Q -172 -843 -172 -827 L -172 -779 Q -172 -763 -176.5 -747 Q -181 -731 -191.5 -719 Q -202 -707 -218 -701.5 Q -234 -696 -250 -696 Q -259 -696 -267 -697 Q -275 -698 -283 -701 Z M -250 -740 Q -243 -740 -237 -743 Q -231 -746 -227 -752 Q -223 -758 -222 -765 Q -221 -772 -221 -779 L -221 -827 Q -221 -834 -222 -841 Q -223 -848 -227 -854 Q -231 -860 -237 -863 Q -243 -866 -250 -866 Q -257 -866 -263 -863 Q -269 -860 -273 -854 Q -277 -848 -278 -841 Q -279 -834 -279 -827 L -279 -779 Q -279 -772 -278 -765 Q -277 -758 -273 -752 Q -269 -746 -263 -743 Q -257 -740 -250 -740 Z " id="path57"/>
<path d="M -324 -613 L -324 -907 L -276 -907 L -276 -871 Q -273 -879 -268.5 -886.5 Q -264 -894 -258 -899.5 Q -252 -905 -244 -907.5 Q -236 -910 -227 -910 Q -213 -910 -201 -902 Q -189 -894 -183 -881.5 Q -177 -869 -174.5 -855 Q -172 -841 -172 -827 L -172 -779 Q -172 -765 -174.5 -751 Q -177 -737 -183 -724.5 Q -189 -712 -201 -704 Q -213 -696 -227 -696 Q -236 -696 -244 -698.5 Q -252 -701 -258 -706.5 Q -264 -712 -268.5 -719.5 Q -273 -727 -276 -735 L -276 -613 Z M -248 -740 Q -242 -740 -236 -743.5 Q -230 -747 -226.5 -753 Q -223 -759 -222 -765.5 Q -221 -772 -221 -779 L -221 -827 Q -221 -834 -222 -840.5 Q -223 -847 -226.5 -853 Q -230 -859 -236 -862.5 Q -242 -866 -248 -866 Q -255 -866 -261 -862.5 Q -267 -859 -270.5 -853 Q -274 -847 -275 -840.5 Q -276 -834 -276 -827 L -276 -779 Q -276 -772 -275 -765.5 Q -274 -759 -270.5 -753 Q -267 -747 -261 -743.5 Q -255 -740 -248 -740 Z " id="path58"/>
<path d="M -329 -613 L -329 -657 L -305 -657 Q -298 -657 -291 -661 Q -284 -665 -280.5 -672 Q -277 -679 -275.5 -687 Q -274 -695 -274 -702 L -274 -904 Q -274 -921 -270 -937.5 Q -266 -954 -255.5 -967.5 Q -245 -981 -228.5 -987 Q -212 -993 -195 -993 L -171 -993 L -171 -949 L -195 -949 Q -202 -949 -209 -945 Q -216 -941 -219.5 -934 Q -223 -927 -224.5 -919 Q -226 -911 -226 -904 L -226 -702 Q -226 -685 -230 -668.5 Q -234 -652 -244.5 -638.5 Q -255 -625 -271.5 -619 Q -288 -613 -305 -613 Z " id="path59"/>
<path d="M -319 -639 L -351 -647 L -322 -748 Q -323 -755 -323.5 -763 Q -324 -771 -324 -779 L -324 -907 L -276 -907 L -276 -779 Q -276 -772 -275 -765.5 Q -274 -759 -271 -753 Q -268 -747 -262.5 -743.5 Q -257 -740 -250 -740 Q -243 -740 -237.5 -743.5 Q -232 -747 -229 -753 Q -226 -759 -225 -765.5 Q -224 -772 -224 -779 L -224 -907 L -176 -907 L -176 -699 L -224 -699 L -224 -734 Q -227 -726 -231 -719 Q -235 -712 -241 -706.5 Q -247 -701 -255 -698.5 Q -263 -696 -271 -696 Q -279 -696 -286 -698 Q -293 -700 -299 -705 Z " id="path60"/>
<path d="M -307 -613 L -341 -821 L -296 -821 L -285 -673 L -269 -763 L -231 -763 L -215 -673 L -204 -821 L -159 -821 L -193 -613 L -230 -613 L -250 -715 L -270 -613 Z " id="path61"/>
<path d="M -210 -847 Q -217 -847 -223.5 -849 Q -230 -851 -235 -856 Q -240 -861 -242 -867.5 Q -244 -874 -244 -881 Q -244 -888 -242 -894.5 Q -240 -901 -235 -906 Q -230 -911 -223.5 -913 Q -217 -915 -210 -915 Q -203 -915 -196.5 -913 Q -190 -911 -185 -906 Q -180 -901 -178 -894.5 Q -176 -888 -176 -881 Q -176 -874 -178 -867.5 Q -180 -861 -185 -856 Q -190 -851 -196.5 -849 Q -203 -847 -210 -847 Z M -290 -847 Q -297 -847 -303.5 -849 Q -310 -851 -315 -856 Q -320 -861 -322 -867.5 Q -324 -874 -324 -881 Q -324 -888 -322 -894.5 Q -320 -901 -315 -906 Q -310 -911 -303.5 -913 Q -297 -915 -290 -915 Q -283 -915 -276.5 -913 Q -270 -911 -265 -906 Q -260 -901 -258 -894.5 Q -256 -888 -256 -881 Q -256 -874 -258 -867.5 Q -260 -861 -265 -856 Q -270 -851 -276.5 -849 Q -283 -847 -290 -847 Z M -273 -610 Q -285 -610 -296 -614 Q -307 -618 -314.5 -627 Q -322 -636 -325 -647.5 Q -328 -659 -328 -670 Q -328 -686 -321.5 -701 Q -315 -716 -302.5 -725.5 Q -290 -735 -274 -738.5 Q -258 -742 -243 -742 L -224 -742 L -224 -758 Q -224 -763 -226 -767.5 Q -228 -772 -232 -775 Q -236 -778 -241 -779 Q -246 -780 -250 -780 Q -259 -780 -268 -776 Q -277 -772 -277 -763 L -325 -763 L -325 -765 Q -325 -778 -319 -790.5 Q -313 -803 -302 -811 Q -291 -819 -277.5 -821.5 Q -264 -824 -250 -824 Q -236 -824 -222 -820.5 Q -208 -817 -197 -808 Q -186 -799 -181 -785.5 Q -176 -772 -176 -758 L -176 -613 L -224 -613 L -224 -645 Q -227 -637 -231.5 -630.5 Q -236 -624 -242.5 -619 Q -249 -614 -257 -612 Q -265 -610 -273 -610 Z M -252 -654 Q -246 -654 -240 -656 Q -234 -658 -230.5 -662.5 Q -227 -667 -225.5 -673 Q -224 -679 -224 -685 L -224 -698 L -243 -698 Q -249 -698 -255 -697 Q -261 -696 -266.5 -693.5 Q -272 -691 -275.5 -686 Q -279 -681 -279 -675 Q -279 -670 -277 -665.5 Q -275 -661 -270.5 -658.5 Q -266 -656 -261.5 -655 Q -257 -654 -252 -654 Z " id="path62"/>
<path d="M -210 -847 Q -217 -847 -223.5 -849 Q -230 -851 -235 -856 Q -240 -861 -242 -867.5 Q -244 -874 -244 -881 Q -244 -888 -242 -894.5 Q -240 -901 -235 -906 Q -230 -911 -223.5 -913 Q -217 -915 -210 -915 Q -203 -915 -196.5 -913 Q -190 -911 -185 -906 Q -180 -901 -178 -894.5 Q -176 -888 -176 -881 Q -176 -874 -178 -867.5 Q -180 -861 -185 -856 Q -190 -851 -196.5 -849 Q -203 -847 -210 -847 Z M -290 -847 Q -297 -847 -303.5 -849 Q -310 -851 -315 -856 Q -320 -861 -322 -867.5 Q -324 -874 -324 -881 Q -324 -888 -322 -894.5 Q -320 -901 -315 -906 Q -310 -911 -303.5 -913 Q -297 -915 -290 -915 Q -283 -915 -276.5 -913 Q -270 -911 -265 -906 Q -260 -901 -258 -894.5 Q -256 -888 -256 -881 Q -256 -874 -258 -867.5 Q -260 -861 -265 -856 Q -270 -851 -276.5 -849 Q -283 -847 -290 -847 Z M -250 -610 Q -266 -610 -282 -615.5 Q -298 -621 -308.5 -633 Q -319 -645 -323.5 -661 Q -328 -677 -328 -693 L -328 -741 Q -328 -757 -323.5 -773 Q -319 -789 -308.5 -801 Q -298 -813 -282 -818.5 Q -266 -824 -250 -824 Q -234 -824 -218 -818.5 Q -202 -813 -191.5 -801 Q -181 -789 -176.5 -773 Q -172 -757 -172 -741 L -172 -693 Q -172 -677 -176.5 -661 Q -181 -645 -191.5 -633 Q -202 -621 -218 -615.5 Q -234 -610 -250 -610 Z M -250 -654 Q -243 -654 -237 -657 Q -231 -660 -227 -666 Q -223 -672 -222 -679 Q -221 -686 -221 -693 L -221 -741 Q -221 -748 -222 -755 Q -223 -762 -227 -768 Q -231 -774 -237 -777 Q -243 -780 -250 -780 Q -257 -780 -263 -777 Q -269 -774 -273 -768 Q -277 -762 -278 -755 Q -279 -748 -279 -741 L -279 -693 Q -279 -686 -278 -679 Q -277 -672 -273 -666 Q -269 -660 -263 -657 Q -257 -654 -250 -654 Z " id="path63"/>
<path d="M -210 -847 Q -217 -847 -223.5 -849 Q -230 -851 -235 -856 Q -240 -861 -242 -867.5 Q -244 -874 -244 -881 Q -244 -888 -242 -894.5 Q -240 -901 -235 -906 Q -230 -911 -223.5 -913 Q -217 -915 -210 -915 Q -203 -915 -196.5 -913 Q -190 -911 -185 -906 Q -180 -901 -178 -894.5 Q -176 -888 -176 -881 Q -176 -874 -178 -867.5 Q -180 -861 -185 -856 Q -190 -851 -196.5 -849 Q -203 -847 -210 -847 Z M -290 -847 Q -297 -847 -303.5 -849 Q -310 -851 -315 -856 Q -320 -861 -322 -867.5 Q -324 -874 -324 -881 Q -324 -888 -322 -894.5 Q -320 -901 -315 -906 Q -310 -911 -303.5 -913 Q -297 -915 -290 -915 Q -283 -915 -276.5 -913 Q -270 -911 -265 -906 Q -260 -901 -258 -894.5 Q -256 -888 -256 -881 Q -256 -874 -258 -867.5 Q -260 -861 -265 -856 Q -270 -851 -276.5 -849 Q -283 -847 -290 -847 Z M -271 -610 Q -285 -610 -296.5 -618 Q -308 -626 -314 -638.5 Q -320 -651 -322 -665 Q -324 -679 -324 -693 L -324 -821 L -276 -821 L -276 -693 Q -276 -686 -275 -679.5 Q -274 -673 -271 -667 Q -268 -661 -262.5 -657.5 Q -257 -654 -250 -654 Q -243 -654 -237.5 -657.5 Q -232 -661 -229 -667 Q -226 -673 -225 -679.5 Q -224 -686 -224 -693 L -224 -821 L -176 -821 L -176 -613 L -224 -613 L -224 -648 Q -227 -640 -231 -633 Q -235 -626 -241 -620.5 Q -247 -615 -255 -612.5 Q -263 -610 -271 -610 Z " id="path64"/>
<path d="M -350 -613 L -350 -670 L -282 -670 L -282 -753 L -218 -753 L -218 -670 L -150 -670 L -150 -613 Z " id="path65"/>
<path d="M -64 -613 Q -93 -613 -122 -620.5 Q -151 -628 -172.5 -647.5 Q -194 -667 -204 -695.5 Q -214 -724 -214 -753 L -144 -753 Q -144 -737 -139 -721.5 Q -134 -706 -122.5 -695.5 Q -111 -685 -95.5 -680.5 Q -80 -676 -64 -676 Q -48 -676 -32.5 -680.5 Q -17 -685 -5.5 -695.5 Q 6 -706 11 -721.5 Q 16 -737 16 -753 L 86 -753 Q 86 -724 76 -695.5 Q 66 -667 44.5 -647.5 Q 23 -628 -6 -620.5 Q -35 -613 -64 -613 Z " id="path66"/>
<path d="M -436 -613 Q -465 -613 -494 -620.5 Q -523 -628 -544.5 -647.5 Q -566 -667 -576 -695.5 Q -586 -724 -586 -753 L -516 -753 Q -516 -737 -511 -721.5 Q -506 -706 -494.5 -695.5 Q -483 -685 -467.5 -680.5 Q -452 -676 -436 -676 Q -420 -676 -404.5 -680.5 Q -389 -685 -377.5 -695.5 Q -366 -706 -361 -721.5 Q -356 -737 -356 -753 L -286 -753 Q -286 -724 -296 -695.5 Q -306 -667 -327.5 -647.5 Q -349 -628 -378 -620.5 Q -407 -613 -436 -613 Z " id="path67"/>
<path d="M -477 -572 Q -488 -572 -498.5 -575 Q -509 -578 -517 -586 Q -525 -594 -528.5 -605 Q -532 -616 -532 -627 Q -532 -638 -528.5 -649 Q -525 -660 -517 -668 Q -509 -676 -498.5 -679 Q -488 -682 -477 -682 Q -466 -682 -455 -679 Q -444 -676 -436 -668 Q -428 -660 -424.5 -649 Q -421 -638 -421 -627 Q -421 -616 -424.5 -605 Q -428 -594 -436 -586 Q -444 -578 -455 -575 Q -466 -572 -477 -572 Z " id="path68"/>
<path d="M -500 73 L -500 -67 L -437 -67 L -437 16 L -63 16 L -63 -67 L 0 -67 L 0 73 Z " id="path69"/>
<path d="M -477 2 Q -488 2 -498.5 -1 Q -509 -4 -517 -12 Q -525 -20 -528.5 -31 Q -532 -42 -532 -53 Q -532 -64 -528.5 -75 Q -525 -86 -517 -94 Q -509 -102 -498.5 -105 Q -488 -108 -477 -108 Q -466 -108 -455 -105 Q -444 -102 -436 -94 Q -428 -86 -424.5 -75 Q -421 -64 -421 -53 Q -421 -42 -424.5 -31 Q -428 -20 -436 -12 Q -444 -4 -455 -1 Q -466 2 -477 2 Z " id="path70"/>
<path d="M -228 -613 L -172 -753 L -128 -753 L -192 -613 Z M -298 -613 L -242 -753 L -198 -753 L -261 -613 Z M -368 -613 L -312 -753 L -268 -753 L -331 -613 Z " id="path71"/>
<path d="M -356 556 L -394 504 Q -351 475 -303.5 451.5 Q -256 428 -206.5 411 Q -157 394 -105 385 Q -53 376 0 376 Q 53 376 105 385 Q 157 394 206.5 411 Q 256 428 303.5 451.5 Q 351 475 394 504 L 356 556 Q 316 530 273.5 508.5 Q 231 487 186 471.5 Q 141 456 94 447.5 Q 47 439 0 439 Q -47 439 -94 447.5 Q -141 456 -186 471.5 Q -231 487 -273.5 508.5 Q -316 530 -356 556 Z " id="path72"/>
<path d="M -192 137 Q -197 137 -202.5 136 Q -208 135 -212.5 134 Q -217 133 -221.5 131 Q -226 129 -230.5 127 Q -235 125 -239 122.5 Q -243 120 -247 117 Q -251 114 -255 110.5 Q -259 107 -262.5 104 Q -266 101 -269.5 98 Q -273 95 -277 91 Q -281 87 -284.5 83.5 Q -288 80 -291.5 77.5 Q -295 75 -299.5 72 Q -304 69 -308 69 Q -311 69 -312.5 70 Q -314 71 -317 72.5 Q -320 74 -324.5 77 Q -329 80 -330.5 81.5 Q -332 83 -334 85 Q -336 87 -337.5 89 Q -339 91 -341 93 Q -343 95 -345.5 97.5 Q -348 100 -350 102.5 Q -352 105 -354.5 107.5 Q -357 110 -359 113.5 Q -361 117 -363.5 120 Q -366 123 -368.5 127 Q -371 131 -374 135 L -426 103 Q -417 90 -408.5 79 Q -400 68 -392 59 Q -384 50 -375.5 42 Q -367 34 -355.5 27 Q -344 20 -332.5 16.5 Q -321 13 -308 13 Q -303 13 -297.5 13.5 Q -292 14 -287.5 15.5 Q -283 17 -278.5 18.5 Q -274 20 -269.5 22.5 Q -265 25 -261 27.5 Q -257 30 -253 33 Q -249 36 -245 39 Q -241 42 -237.5 45.5 Q -234 49 -230.5 52 Q -227 55 -223 59 Q -219 63 -215.5 66 Q -212 69 -208.5 72 Q -205 75 -200.5 77.5 Q -196 80 -192 80 Q -189 80 -187.5 79.5 Q -186 79 -183 77.5 Q -180 76 -175.5 72.5 Q -171 69 -169.5 67.5 Q -168 66 -166 64.5 Q -164 63 -162.5 61 Q -161 59 -159 57 Q -157 55 -154.5 52.5 Q -152 50 -150 47.5 Q -148 45 -145.5 42 Q -143 39 -141 36 Q -139 33 -136.5 29.5 Q -134 26 -131.5 22.5 Q -129 19 -126 15 L -74 47 Q -83 60 -91.5 71 Q -100 82 -108 91 Q -116 100 -124.5 107.5 Q -133 115 -144.5 122 Q -156 129 -167.5 133 Q -179 137 -192 137 Z M -192 31 Q -197 31 -202.5 30.5 Q -208 30 -212.5 28.5 Q -217 27 -221.5 25.5 Q -226 24 -230.5 21.5 Q -235 19 -239 16.5 Q -243 14 -247 11 Q -251 8 -255 5 Q -259 2 -262.5 -1.5 Q -266 -5 -269.5 -8 Q -273 -11 -277 -15 Q -281 -19 -284.5 -22 Q -288 -25 -291.5 -28 Q -295 -31 -299.5 -33.5 Q -304 -36 -308 -36 Q -311 -36 -312.5 -35.5 Q -314 -35 -317 -33.5 Q -320 -32 -324.5 -28.5 Q -329 -25 -330.5 -23.5 Q -332 -22 -334 -20.5 Q -336 -19 -337.5 -17 Q -339 -15 -341 -13 Q -343 -11 -345.5 -8.5 Q -348 -6 -350 -3.5 Q -352 -1 -354.5 2 Q -357 5 -359 8 Q -361 11 -363.5 14.5 Q -366 18 -368.5 21.5 Q -371 25 -374 29 L -426 -3 Q -417 -16 -408.5 -27 Q -400 -38 -392 -47 Q -384 -56 -375.5 -63.5 Q -367 -71 -355.5 -78 Q -344 -85 -332.5 -89 Q -321 -93 -308 -93 Q -303 -93 -297.5 -92 Q -292 -91 -287.5 -90 Q -283 -89 -278.5 -87 Q -274 -85 -269.5 -83 Q -265 -81 -261 -78.5 Q -257 -76 -253 -73 Q -249 -70 -245 -66.5 Q -241 -63 -237.5 -60 Q -234 -57 -230.5 -54 Q -227 -51 -223 -47 Q -219 -43 -215.5 -39.5 Q -212 -36 -208.5 -33.5 Q -205 -31 -200.5 -28.5 Q -196 -26 -192 -26 Q -189 -26 -187.5 -26.5 Q -186 -27 -183 -28.5 Q -180 -30 -175.5 -33.5 Q -171 -37 -169.5 -38 Q -168 -39 -166 -41 Q -164 -43 -162.5 -45 Q -161 -47 -159 -49 Q -157 -51 -154.5 -53.5 Q -152 -56 -150 -58.5 Q -148 -61 -145.5 -64 Q -143 -67 -141 -70 Q -139 -73 -136.5 -76.5 Q -134 -80 -131.5 -83.5 Q -129 -87 -126 -91 L -74 -59 Q -83 -46 -91.5 -35 Q -100 -24 -108 -15 Q -116 -6 -124.5 2 Q -133 10 -144.5 17 Q -156 24 -167.5 27.5 Q -179 31 -192 31 Z " id="path73"/>
<path d="M -160 -586 L -350 -659 L -350 -707 L -160 -780 L -140 -726 L -274 -683 L -140 -640 Z " id="path74"/>
<path d="M -440 100 L -460 46 L -326 3 L -460 -40 L -440 -94 L -250 -21 L -250 27 Z M -187 73 L -276 -50 L -224 -84 L -150 21 L -76 -84 L -24 -50 L -113 73 Z " id="path75"/>
</defs>
<g>
<g data-source-text="0" fill="#20242e" transform="translate(174 41.292) rotate(0) scale(0.023999998)">
<use href="#path1" transform="translate(0 0)"/>
</g>
</g>
<g>
<g data-source-text="1" fill="#20242e" transform="translate(246 41.292) rotate(0) scale(0.023999998)">
<use href="#path2" transform="translate(0 0)"/>
</g>
</g>
<g>
<g data-source-text="2" fill="#20242e" transform="translate(318 41.292) rotate(0) scale(0.023999998)">
<use href="#path3" transform="translate(0 0)"/>
</g>
</g>
<g>
<g data-source-text="3" fill="#20242e" transform="translate(390 41.292) rotate(0) scale(0.023999998)">
<use href="#path4" transform="translate(0 0)"/>
</g>
</g>
<g>
<g data-source-text="4" fill="#20242e" transform="translate(462 41.292) rotate(0) scale(0.023999998)">
<use href="#path5" transform="translate(0 0)"/>
</g>
</g>
<g>
<g data-source-text="5" fill="#20242e" transform="translate(534 41.292) rotate(0) scale(0.023999998)">
<use href="#path6" transform="translate(0 0)"/>
</g>
</g>
<g>
<g data-source-text="6" fill="#20242e" transform="translate(606 41.292) rotate(0) scale(0.023999998)">
<use href="#path7" transform="translate(0 0)"/>
</g>
</g>
<g>
<g data-source-text="7" fill="#20242e" transform="translate(678 41.292) rotate(0) scale(0.023999998)">
<use href="#path8" transform="translate(0 0)"/>
</g>
</g>
<g>
<g data-source-text="8" fill="#20242e" transform="translate(750 41.292) rotate(0) scale(0.023999998)">
<use href="#path9" transform="translate(0 0)"/>
</g>
</g>
<g>
<g data-source-text="9" fill="#20242e" transform="translate(822 41.292) rotate(0) scale(0.023999998)">
<use href="#path10" transform="translate(0 0)"/>
</g>
</g>
<g>
<g data-source-text="A" fill="#20242e" transform="translate(894 41.292) rotate(0) scale(0.023999998)">
<use href="#path11" transform="translate(0 0)"/>
</g>
</g>
<g>
<g data-source-text="B" fill="#20242e" transform="translate(966 41.292) rotate(0) scale(0.023999998)">
<use href="#path12" transform="translate(0 0)"/>
</g>
</g>
<g>
<g data-source-text="C" fill="#20242e" transform="translate(1038 41.292) rotate(0) scale(0.023999998)">
<use href="#path13" transform="translate(0 0)"/>
</g>
</g>
<g>
<g data-source-text="D" fill="#20242e" transform="translate(1110 41.292) rotate(0) scale(0.023999998)">
<use href="#path14" transform="translate(0 0)"/>
</g>
</g>
<g>
<g data-source-text="E" fill="#20242e" transform="translate(1182 41.292) rotate(0) scale(0.023999998)">
<use href="#path15" transform="translate(0 0)"/>
</g>
</g>
<g>
<g data-source-text="F" fill="#20242e" transform="translate(1254 41.292) rotate(0) scale(0.023999998)">
<use href="#path16" transform="translate(0 0)"/>
</g>
</g>
<g>
<g data-source-text="U+1DC0" fill="#20242e" transform="translate(36 113.292) rotate(0) scale(0.023999998)">
<use href="#path17" transform="translate(0 0)"/>
<use href="#path18" transform="translate(500 0)"/>
<use href="#path2" transform="translate(1000 0)"/>
<use href="#path14" transform="translate(1500 0)"/>
<use href="#path13" transform="translate(2000 0)"/>
<use href="#path1" transform="translate(2500 0)"/>
</g>
</g>
<g>
<g data-source-text="" fill="#20242e40" transform="translate(168 118.584) rotate(0) scale(0.047999997)">
<use href="#path19" transform="translate(0 0)"/>
</g>
</g>
<g>
<g data-source-text="" fill="#20242e40" transform="translate(240 118.584) rotate(0) scale(0.047999997)">
<use href="#path19" transform="translate(0 0)"/>
</g>
</g>
<g>
<g data-source-text="" fill="#20242e40" transform="translate(312 118.584) rotate(0) scale(0.047999997)">
<use href="#path19" transform="translate(0 0)"/>
</g>
</g>
<g>
<g data-source-text="" fill="#048fbf" transform="translate(384 118.584) rotate(0) scale(0.047999997)">
<use href="#path20" transform="translate(0 0)"/>
</g>
</g>
<g>
<g data-source-text="" fill="#20242e" transform="translate(384 118.584) rotate(0) scale(0.047999997)">
<use href="#path21" transform="translate(500 0)"/>
</g>
</g>
<g>
<g data-source-text="" fill="#048fbf" transform="translate(456 118.584) rotate(0) scale(0.047999997)">
<use href="#path20" transform="translate(0 0)"/>
</g>
</g>
<g>
<g data-source-text="" fill="#20242e" transform="translate(456 118.584) rotate(0) scale(0.047999997)">
<use href="#path22" transform="translate(500 0)"/>
</g>
</g>
<g>
<g data-source-text="" fill="#048fbf" transform="translate(528 118.584) rotate(0) scale(0.047999997)">
<use href="#path20" transform="translate(0 0)"/>
</g>
</g>
<g>
<g data-source-text="" fill="#20242e" transform="translate(528 118.584) rotate(0) scale(0.047999997)">
<use href="#path23" transform="translate(500 0)"/>
</g>
</g>
<g>
<g data-source-text="" fill="#048fbf" transform="translate(600 118.584) rotate(0) scale(0.047999997)">
<use href="#path20" transform="translate(0 0)"/>
</g>
</g>
<g>
<g data-source-text="" fill="#20242e" transform="translate(600 118.584) rotate(0) scale(0.047999997)">
<use href="#path24" transform="translate(500 0)"/>
</g>
</g>
<g>
<g data-source-text="" fill="#048fbf" transform="translate(672 118.584) rotate(0) scale(0.047999997)">
<use href="#path20" transform="translate(0 0)"/>
</g>
</g>
<g>
<g data-source-text="" fill="#20242e" transform="translate(672 118.584) rotate(0) scale(0.047999997)">
<use href="#path25" transform="translate(500 0)"/>
</g>
</g>
<g>
<g data-source-text="" fill="#20242e40" transform="translate(744 118.584) rotate(0) scale(0.047999997)">
<use href="#path19" transform="translate(0 0)"/>
</g>
</g>
<g>
<g data-source-text="" fill="#20242e40" transform="translate(816 118.584) rotate(0) scale(0.047999997)">
<use href="#path19" transform="translate(0 0)"/>
</g>
</g>
<g>
<g data-source-text="" fill="#048fbf" transform="translate(888 118.584) rotate(0) scale(0.047999997)">
<use href="#path20" transform="translate(0 0)"/>
</g>
</g>
<g>
<g data-source-text="" fill="#20242e" transform="translate(888 118.584) rotate(0) scale(0.047999997)">
<use href="#path26" transform="translate(500 0)"/>
</g>
</g>
<g>
<g data-source-text="" fill="#048fbf" transform="translate(960 118.584) rotate(0) scale(0.047999997)">
<use href="#path20" transform="translate(0 0)"/>
</g>
</g>
<g>
<g data-source-text="" fill="#20242e" transform="translate(960 118.584) rotate(0) scale(0.047999997)">
<use href="#path27" transform="translate(500 0)"/>
</g>
</g>
<g>
<g data-source-text="" fill="#048fbf" transform="translate(1032 118.584) rotate(0) scale(0.047999997)">
<use href="#path20" transform="translate(0 0)"/>
</g>
</g>
<g>
<g data-source-text="" fill="#20242e" transform="translate(1032 118.584) rotate(0) scale(0.047999997)">
<use href="#path28" transform="translate(500 0)"/>
</g>
</g>
<g>
<g data-source-text="" fill="#048fbf" transform="translate(1104 118.584) rotate(0) scale(0.047999997)">
<use href="#path20" transform="translate(0 0)"/>
</g>
</g>
<g>
<g data-source-text="" fill="#20242e" transform="translate(1104 118.584) rotate(0) scale(0.047999997)">
<use href="#path29" transform="translate(500 0)"/>
</g>
</g>
<g>
<g data-source-text="" fill="#048fbf" transform="translate(1176 118.584) rotate(0) scale(0.047999997)">
<use href="#path20" transform="translate(0 0)"/>
</g>
</g>
<g>
<g data-source-text="" fill="#20242e" transform="translate(1176 118.584) rotate(0) scale(0.047999997)">
<use href="#path30" transform="translate(500 0)"/>
</g>
</g>
<g>
<g data-source-text="" fill="#048fbf" transform="translate(1248 118.584) rotate(0) scale(0.047999997)">
<use href="#path20" transform="translate(0 0)"/>
</g>
</g>
<g>
<g data-source-text="" fill="#20242e" transform="translate(1248 118.584) rotate(0) scale(0.047999997)">
<use href="#path31" transform="translate(500 0)"/>
</g>
</g>
<g>
<g data-source-text="U+1DD0" fill="#20242e" transform="translate(36 185.292) rotate(0) scale(0.023999998)">
<use href="#path17" transform="translate(0 0)"/>
<use href="#path18" transform="translate(500 0)"/>
<use href="#path2" transform="translate(1000 0)"/>
<use href="#path14" transform="translate(1500 0)"/>
<use href="#path14" transform="translate(2000 0)"/>
<use href="#path1" transform="translate(2500 0)"/>
</g>
</g>
<g>
<g data-source-text="" fill="#20242e40" transform="translate(168 190.584) rotate(0) scale(0.047999997)">
<use href="#path19" transform="translate(0 0)"/>
</g>
</g>
<g>
<g data-source-text="" fill="#20242e40" transform="translate(240 190.584) rotate(0) scale(0.047999997)">
<use href="#path19" transform="translate(0 0)"/>
</g>
</g>
<g>
<g data-source-text="" fill="#20242e40" transform="translate(312 190.584) rotate(0) scale(0.047999997)">
<use href="#path19" transform="translate(0 0)"/>
</g>
</g>
<g>
<g data-source-text="" fill="#048fbf" transform="translate(384 190.584) rotate(0) scale(0.047999997)">
<use href="#path20" transform="translate(0 0)"/>
</g>
</g>
<g>
<g data-source-text="" fill="#20242e" transform="translate(384 190.584) rotate(0) scale(0.047999997)">
<use href="#path32" transform="translate(500 0)"/>
</g>
</g>
<g>
<g data-source-text="" fill="#048fbf" transform="translate(456 190.584) rotate(0) scale(0.047999997)">
<use href="#path20" transform="translate(0 0)"/>
</g>
</g>
<g>
<g data-source-text="" fill="#20242e" transform="translate(456 190.584) rotate(0) scale(0.047999997)">
<use href="#path33" transform="translate(500 0)"/>
</g>
</g>
<g>
<g data-source-text="" fill="#048fbf" transform="translate(528 190.584) rotate(0) scale(0.047999997)">
<use href="#path20" transform="translate(0 0)"/>
</g>
</g>
<g>
<g data-source-text="" fill="#20242e" transform="translate(528 190.584) rotate(0) scale(0.047999997)">
<use href="#path34" transform="translate(500 0)"/>
</g>
</g>
<g>
<g data-source-text="" fill="#20242e40" transform="translate(600 190.584) rotate(0) scale(0.047999997)">
<use href="#path19" transform="translate(0 0)"/>
</g>
</g>
<g>
<g data-source-text="" fill="#048fbf" transform="translate(672 190.584) rotate(0) scale(0.047999997)">
<use href="#path20" transform="translate(0 0)"/>
</g>
</g>
<g>
<g data-source-text="" fill="#20242e" transform="translate(672 190.584) rotate(0) scale(0.047999997)">
<use href="#path35" transform="translate(500 0)"/>
</g>
</g>
<g>
<g data-source-text="" fill="#048fbf" transform="translate(744 190.584) rotate(0) scale(0.047999997)">
<use href="#path20" transform="translate(0 0)"/>
</g>
</g>
<g>
<g data-source-text="" fill="#20242e" transform="translate(744 190.584) rotate(0) scale(0.047999997)">
<use href="#path36" transform="translate(500 0)"/>
</g>
</g>
<g>
<g data-source-text="" fill="#048fbf" transform="translate(816 190.584) rotate(0) scale(0.047999997)">
<use href="#path20" transform="translate(0 0)"/>
</g>
</g>
<g>
<g data-source-text="" fill="#20242e" transform="translate(816 190.584) rotate(0) scale(0.047999997)">
<use href="#path37" transform="translate(500 0)"/>
</g>
</g>
<g>
<g data-source-text="" fill="#048fbf" transform="translate(888 190.584) rotate(0) scale(0.047999997)">
<use href="#path20" transform="translate(0 0)"/>
</g>
</g>
<g>
<g data-source-text="" fill="#20242e" transform="translate(888 190.584) rotate(0) scale(0.047999997)">
<use href="#path38" transform="translate(500 0)"/>
</g>
</g>
<g>
<g data-source-text="" fill="#048fbf" transform="translate(960 190.584) rotate(0) scale(0.047999997)">
<use href="#path20" transform="translate(0 0)"/>
</g>
</g>
<g>
<g data-source-text="" fill="#20242e" transform="translate(960 190.584) rotate(0) scale(0.047999997)">
<use href="#path39" transform="translate(500 0)"/>
</g>
</g>
<g>
<g data-source-text="" fill="#048fbf" transform="translate(1032 190.584) rotate(0) scale(0.047999997)">
<use href="#path20" transform="translate(0 0)"/>
</g>
</g>
<g>
<g data-source-text="" fill="#20242e" transform="translate(1032 190.584) rotate(0) scale(0.047999997)">
<use href="#path40" transform="translate(500 0)"/>
</g>
</g>
<g>
<g data-source-text="" fill="#048fbf" transform="translate(1104 190.584) rotate(0) scale(0.047999997)">
<use href="#path20" transform="translate(0 0)"/>
</g>
</g>
<g>
<g data-source-text="" fill="#20242e" transform="translate(1104 190.584) rotate(0) scale(0.047999997)">
<use href="#path41" transform="translate(500 0)"/>
</g>
</g>
<g>
<g data-source-text="" fill="#048fbf" transform="translate(1176 190.584) rotate(0) scale(0.047999997)">
<use href="#path20" transform="translate(0 0)"/>
</g>
</g>
<g>
<g data-source-text="" fill="#20242e" transform="translate(1176 190.584) rotate(0) scale(0.047999997)">
<use href="#path42" transform="translate(500 0)"/>
</g>
</g>
<g>
<g data-source-text="" fill="#048fbf" transform="translate(1248 190.584) rotate(0) scale(0.047999997)">
<use href="#path20" transform="translate(0 0)"/>
</g>
</g>
<g>
<g data-source-text="" fill="#20242e" transform="translate(1248 190.584) rotate(0) scale(0.047999997)">
<use href="#path43" transform="translate(500 0)"/>
</g>
</g>
<g>
<g data-source-text="U+1DE0" fill="#20242e" transform="translate(36 257.292) rotate(0) scale(0.023999998)">
<use href="#path17" transform="translate(0 0)"/>
<use href="#path18" transform="translate(500 0)"/>
<use href="#path2" transform="translate(1000 0)"/>
<use href="#path14" transform="translate(1500 0)"/>
<use href="#path15" transform="translate(2000 0)"/>
<use href="#path1" transform="translate(2500 0)"/>
</g>
</g>
<g>
<g data-source-text="" fill="#048fbf" transform="translate(168 262.584) rotate(0) scale(0.047999997)">
<use href="#path20" transform="translate(0 0)"/>
</g>
</g>
<g>
<g data-source-text="" fill="#20242e" transform="translate(168 262.584) rotate(0) scale(0.047999997)">
<use href="#path44" transform="translate(500 0)"/>
</g>
</g>
<g>
<g data-source-text="" fill="#048fbf" transform="translate(240 262.584) rotate(0) scale(0.047999997)">
<use href="#path20" transform="translate(0 0)"/>
</g>
</g>
<g>
<g data-source-text="" fill="#20242e" transform="translate(240 262.584) rotate(0) scale(0.047999997)">
<use href="#path45" transform="translate(500 0)"/>
</g>
</g>
<g>
<g data-source-text="" fill="#048fbf" transform="translate(312 262.584) rotate(0) scale(0.047999997)">
<use href="#path20" transform="translate(0 0)"/>
</g>
</g>
<g>
<g data-source-text="" fill="#20242e" transform="translate(312 262.584) rotate(0) scale(0.047999997)">
<use href="#path46" transform="translate(500 0)"/>
</g>
</g>
<g>
<g data-source-text="" fill="#048fbf" transform="translate(384 262.584) rotate(0) scale(0.047999997)">
<use href="#path20" transform="translate(0 0)"/>
</g>
</g>
<g>
<g data-source-text="" fill="#20242e" transform="translate(384 262.584) rotate(0) scale(0.047999997)">
<use href="#path47" transform="translate(500 0)"/>
</g>
</g>
<g>
<g data-source-text="" fill="#048fbf" transform="translate(456 262.584) rotate(0) scale(0.047999997)">
<use href="#path20" transform="translate(0 0)"/>
</g>
</g>
<g>
<g data-source-text="" fill="#20242e" transform="translate(456 262.584) rotate(0) scale(0.047999997)">
<use href="#path48" transform="translate(500 0)"/>
</g>
</g>
<g>
<g data-source-text="" fill="#048fbf" transform="translate(528 262.584) rotate(0) scale(0.047999997)">
<use href="#path20" transform="translate(0 0)"/>
</g>
</g>
<g>
<g data-source-text="" fill="#20242e" transform="translate(528 262.584) rotate(0) scale(0.047999997)">
<use href="#path49" transform="translate(500 0)"/>
</g>
</g>
<g>
<g data-source-text="" fill="#048fbf" transform="translate(600 262.584) rotate(0) scale(0.047999997)">
<use href="#path20" transform="translate(0 0)"/>
</g>
</g>
<g>
<g data-source-text="" fill="#20242e" transform="translate(600 262.584) rotate(0) scale(0.047999997)">
<use href="#path50" transform="translate(500 0)"/>
</g>
</g>
<g>
<g data-source-text="" fill="#048fbf" transform="translate(672 262.584) rotate(0) scale(0.047999997)">
<use href="#path20" transform="translate(0 0)"/>
</g>
</g>
<g>
<g data-source-text="" fill="#20242e" transform="translate(672 262.584) rotate(0) scale(0.047999997)">
<use href="#path51" transform="translate(500 0)"/>
</g>
</g>
<g>
<g data-source-text="" fill="#048fbf" transform="translate(744 262.584) rotate(0) scale(0.047999997)">
<use href="#path20" transform="translate(0 0)"/>
</g>
</g>
<g>
<g data-source-text="" fill="#20242e" transform="translate(744 262.584) rotate(0) scale(0.047999997)">
<use href="#path52" transform="translate(500 0)"/>
</g>
</g>
<g>
<g data-source-text="" fill="#048fbf" transform="translate(816 262.584) rotate(0) scale(0.047999997)">
<use href="#path20" transform="translate(0 0)"/>
</g>
</g>
<g>
<g data-source-text="" fill="#20242e" transform="translate(816 262.584) rotate(0) scale(0.047999997)">
<use href="#path53" transform="translate(500 0)"/>
</g>
</g>
<g>
<g data-source-text="" fill="#048fbf" transform="translate(888 262.584) rotate(0) scale(0.047999997)">
<use href="#path20" transform="translate(0 0)"/>
</g>
</g>
<g>
<g data-source-text="" fill="#20242e" transform="translate(888 262.584) rotate(0) scale(0.047999997)">
<use href="#path54" transform="translate(500 0)"/>
</g>
</g>
<g>
<g data-source-text="" fill="#048fbf" transform="translate(960 262.584) rotate(0) scale(0.047999997)">
<use href="#path20" transform="translate(0 0)"/>
</g>
</g>
<g>
<g data-source-text="" fill="#20242e" transform="translate(960 262.584) rotate(0) scale(0.047999997)">
<use href="#path55" transform="translate(500 0)"/>
</g>
</g>
<g>
<g data-source-text="" fill="#048fbf" transform="translate(1032 262.584) rotate(0) scale(0.047999997)">
<use href="#path20" transform="translate(0 0)"/>
</g>
</g>
<g>
<g data-source-text="" fill="#20242e" transform="translate(1032 262.584) rotate(0) scale(0.047999997)">
<use href="#path56" transform="translate(500 0)"/>
</g>
</g>
<g>
<g data-source-text="" fill="#048fbf" transform="translate(1104 262.584) rotate(0) scale(0.047999997)">
<use href="#path20" transform="translate(0 0)"/>
</g>
</g>
<g>
<g data-source-text="" fill="#20242e" transform="translate(1104 262.584) rotate(0) scale(0.047999997)">
<use href="#path57" transform="translate(500 0)"/>
</g>
</g>
<g>
<g data-source-text="" fill="#048fbf" transform="translate(1176 262.584) rotate(0) scale(0.047999997)">
<use href="#path20" transform="translate(0 0)"/>
</g>
</g>
<g>
<g data-source-text="" fill="#20242e" transform="translate(1176 262.584) rotate(0) scale(0.047999997)">
<use href="#path58" transform="translate(500 0)"/>
</g>
</g>
<g>
<g data-source-text="" fill="#048fbf" transform="translate(1248 262.584) rotate(0) scale(0.047999997)">
<use href="#path20" transform="translate(0 0)"/>
</g>
</g>
<g>
<g data-source-text="" fill="#20242e" transform="translate(1248 262.584) rotate(0) scale(0.047999997)">
<use href="#path59" transform="translate(500 0)"/>
</g>
</g>
<g>
<g data-source-text="U+1DF0" fill="#20242e" transform="translate(36 329.292) rotate(0) scale(0.023999998)">
<use href="#path17" transform="translate(0 0)"/>
<use href="#path18" transform="translate(500 0)"/>
<use href="#path2" transform="translate(1000 0)"/>
<use href="#path14" transform="translate(1500 0)"/>
<use href="#path16" transform="translate(2000 0)"/>
<use href="#path1" transform="translate(2500 0)"/>
</g>
</g>
<g>
<g data-source-text="" fill="#048fbf" transform="translate(168 334.584) rotate(0) scale(0.047999997)">
<use href="#path20" transform="translate(0 0)"/>
</g>
</g>
<g>
<g data-source-text="" fill="#20242e" transform="translate(168 334.584) rotate(0) scale(0.047999997)">
<use href="#path60" transform="translate(500 0)"/>
</g>
</g>
<g>
<g data-source-text="" fill="#048fbf" transform="translate(240 334.584) rotate(0) scale(0.047999997)">
<use href="#path20" transform="translate(0 0)"/>
</g>
</g>
<g>
<g data-source-text="" fill="#20242e" transform="translate(240 334.584) rotate(0) scale(0.047999997)">
<use href="#path61" transform="translate(500 0)"/>
</g>
</g>
<g>
<g data-source-text="" fill="#048fbf" transform="translate(312 334.584) rotate(0) scale(0.047999997)">
<use href="#path20" transform="translate(0 0)"/>
</g>
</g>
<g>
<g data-source-text="" fill="#20242e" transform="translate(312 334.584) rotate(0) scale(0.047999997)">
<use href="#path62" transform="translate(500 0)"/>
</g>
</g>
<g>
<g data-source-text="" fill="#048fbf" transform="translate(384 334.584) rotate(0) scale(0.047999997)">
<use href="#path20" transform="translate(0 0)"/>
</g>
</g>
<g>
<g data-source-text="" fill="#20242e" transform="translate(384 334.584) rotate(0) scale(0.047999997)">
<use href="#path63" transform="translate(500 0)"/>
</g>
</g>
<g>
<g data-source-text="" fill="#048fbf" transform="translate(456 334.584) rotate(0) scale(0.047999997)">
<use href="#path20" transform="translate(0 0)"/>
</g>
</g>
<g>
<g data-source-text="" fill="#20242e" transform="translate(456 334.584) rotate(0) scale(0.047999997)">
<use href="#path64" transform="translate(500 0)"/>
</g>
</g>
<g>
<g data-source-text="" fill="#048fbf" transform="translate(528 334.584) rotate(0) scale(0.047999997)">
<use href="#path20" transform="translate(0 0)"/>
</g>
</g>
<g>
<g data-source-text="" fill="#20242e" transform="translate(528 334.584) rotate(0) scale(0.047999997)">
<use href="#path65" transform="translate(500 0)"/>
</g>
</g>
<g>
<g data-source-text="" fill="#048fbf" transform="translate(600 334.584) rotate(0) scale(0.047999997)">
<use href="#path20" transform="translate(0 0)"/>
</g>
</g>
<g>
<g data-source-text="" fill="#20242e" transform="translate(600 334.584) rotate(0) scale(0.047999997)">
<use href="#path66" transform="translate(500 0)"/>
</g>
</g>
<g>
<g data-source-text="" fill="#048fbf" transform="translate(672 334.584) rotate(0) scale(0.047999997)">
<use href="#path20" transform="translate(0 0)"/>
</g>
</g>
<g>
<g data-source-text="" fill="#20242e" transform="translate(672 334.584) rotate(0) scale(0.047999997)">
<use href="#path67" transform="translate(500 0)"/>
</g>
</g>
<g>
<g data-source-text="" fill="#048fbf" transform="translate(744 334.584) rotate(0) scale(0.047999997)">
<use href="#path20" transform="translate(0 0)"/>
</g>
</g>
<g>
<g data-source-text="" fill="#20242e" transform="translate(744 334.584) rotate(0) scale(0.047999997)">
<use href="#path68" transform="translate(500 0)"/>
</g>
</g>
<g>
<g data-source-text="" fill="#048fbf" transform="translate(816 334.584) rotate(0) scale(0.047999997)">
<use href="#path20" transform="translate(0 0)"/>
</g>
</g>
<g>
<g data-source-text="" fill="#20242e" transform="translate(816 334.584) rotate(0) scale(0.047999997)">
<use href="#path69" transform="translate(500 0)"/>
</g>
</g>
<g>
<g data-source-text="" fill="#048fbf" transform="translate(888 334.584) rotate(0) scale(0.047999997)">
<use href="#path20" transform="translate(0 0)"/>
</g>
</g>
<g>
<g data-source-text="" fill="#20242e" transform="translate(888 334.584) rotate(0) scale(0.047999997)">
<use href="#path70" transform="translate(500 0)"/>
</g>
</g>
<g>
<g data-source-text="" fill="#048fbf" transform="translate(960 334.584) rotate(0) scale(0.047999997)">
<use href="#path20" transform="translate(0 0)"/>
</g>
</g>
<g>
<g data-source-text="" fill="#20242e" transform="translate(960 334.584) rotate(0) scale(0.047999997)">
<use href="#path71" transform="translate(500 0)"/>
</g>
</g>
<g>
<g data-source-text="" fill="#048fbf" transform="translate(1032 334.584) rotate(0) scale(0.047999997)">
<use href="#path20" transform="translate(0 0)"/>
</g>
</g>
<g>
<g data-source-text="" fill="#20242e" transform="translate(1032 334.584) rotate(0) scale(0.047999997)">
<use href="#path72" transform="translate(500 0)"/>
</g>
</g>
<g>
<g data-source-text="" fill="#048fbf" transform="translate(1104 334.584) rotate(0) scale(0.047999997)">
<use href="#path20" transform="translate(0 0)"/>
</g>
</g>
<g>
<g data-source-text="" fill="#20242e" transform="translate(1104 334.584) rotate(0) scale(0.047999997)">
<use href="#path73" transform="translate(500 0)"/>
</g>
</g>
<g>
<g data-source-text="" fill="#048fbf" transform="translate(1176 334.584) rotate(0) scale(0.047999997)">
<use href="#path20" transform="translate(0 0)"/>
</g>
</g>
<g>
<g data-source-text="" fill="#20242e" transform="translate(1176 334.584) rotate(0) scale(0.047999997)">
<use href="#path74" transform="translate(500 0)"/>
</g>
</g>
<g>
<g data-source-text="" fill="#048fbf" transform="translate(1248 334.584) rotate(0) scale(0.047999997)">
<use href="#path20" transform="translate(0 0)"/>
</g>
</g>
<g>
<g data-source-text="" fill="#20242e" transform="translate(1248 334.584) rotate(0) scale(0.047999997)">
<use href="#path75" transform="translate(500 0)"/>
</g>
</g>
</svg>