<?xml version="1.0" encoding="UTF-8" standalone="no"?>
<svg height="648" viewBox="0 0 1296 648" width="1296" xmlns="http://www.w3.org/2000/svg">
<defs>
<path d="M 250 8 Q 223 8 196 3 Q 169 -2 145 -15 Q 121 -28 102.5 -48.5 Q 84 -69 72.5 -94 Q 61 -119 56.5 -146 Q 52 -173 52 -200 L 52 -535 Q 52 -562 56.5 -589 Q 61 -616 72.5 -641 Q 84 -666 102.5 -686.5 Q 121 -707 145 -720 Q 169 -733 196 -738 Q 223 -743 250 -743 Q 277 -743 304 -738 Q 331 -733 355 -720 Q 379 -707 397.5 -686.5 Q 416 -666 427.5 -641 Q 439 -616 443.5 -589 Q 448 -562 448 -535 L 448 -200 Q 448 -173 443.5 -146 Q 439 -119 427.5 -94 Q 416 -69 397.5 -48.5 Q 379 -28 355 -15 Q 331 -2 304 3 Q 277 8 250 8 Z M 153 -337 L 347 -491 L 347 -535 Q 347 -557 342.5 -578.5 Q 338 -600 325.5 -618 Q 313 -636 292.5 -645.5 Q 272 -655 250 -655 Q 228 -655 207.5 -645.5 Q 187 -636 174.5 -618 Q 162 -600 157.5 -578.5 Q 153 -557 153 -535 Z M 250 -80 Q 272 -80 292.5 -89.5 Q 313 -99 325.5 -117 Q 338 -135 342.5 -156.5 Q 347 -178 347 -200 L 347 -398 L 153 -244 L 153 -200 Q 153 -178 157.5 -156.5 Q 162 -135 174.5 -117 Q 187 -99 207.5 -89.5 Q 228 -80 250 -80 Z " id="path1"/>
<path d="M 230 0 L 230 -631 L 110 -528 L 55 -584 L 230 -735 L 330 -735 L 330 0 Z " id="path2"/>
<path d="M 440 0 L 60 0 L 60 -1 Q 60 -27 61 -53.5 Q 62 -80 66 -106.5 Q 70 -133 77.5 -158.5 Q 85 -184 96.5 -207.5 Q 108 -231 123 -253 Q 138 -275 156 -294.5 Q 174 -314 194 -331 Q 214 -348 235.5 -364 Q 257 -380 277.5 -397 Q 298 -414 313 -435.5 Q 328 -457 335.5 -483 Q 343 -509 343 -535 Q 343 -557 339 -578 Q 335 -599 323.5 -617 Q 312 -635 292 -645 Q 272 -655 251 -655 Q 231 -655 212.5 -647.5 Q 194 -640 182 -625 Q 170 -610 164.5 -591 Q 159 -572 159 -552 L 159 -548 L 58 -548 L 58 -555 Q 58 -581 64 -605.5 Q 70 -630 81.5 -652.5 Q 93 -675 111.5 -693 Q 130 -711 152.5 -722.5 Q 175 -734 200.5 -738.5 Q 226 -743 251 -743 Q 278 -743 304.5 -737.5 Q 331 -732 354.5 -719 Q 378 -706 396 -685.5 Q 414 -665 424.5 -640.5 Q 435 -616 439.5 -589 Q 444 -562 444 -535 Q 444 -501 435 -468 Q 426 -435 407.5 -406 Q 389 -377 364 -353.5 Q 339 -330 312.5 -308.5 Q 286 -287 261 -264 Q 236 -241 216.5 -213 Q 197 -185 184 -153.5 Q 171 -122 166 -88 L 440 -88 Z " id="path3"/>
<path d="M 253 8 Q 227 8 201 4 Q 175 -0 151.5 -11.5 Q 128 -23 108.5 -40.5 Q 89 -58 76 -81 Q 63 -104 56.5 -129.5 Q 50 -155 50 -181 L 50 -187 L 151 -187 L 151 -184 Q 151 -163 157.5 -143 Q 164 -123 178 -108 Q 192 -93 212 -86.5 Q 232 -80 253 -80 Q 275 -80 296 -88.5 Q 317 -97 330.5 -114.5 Q 344 -132 349.5 -154 Q 355 -176 355 -198 Q 355 -217 351 -235.5 Q 347 -254 338.5 -271 Q 330 -288 316.5 -301 Q 303 -314 286 -322 Q 269 -330 250 -332 Q 231 -334 212 -334 L 212 -422 Q 229 -422 246 -424 Q 263 -426 278.5 -433 Q 294 -440 306 -452.5 Q 318 -465 325.5 -480.5 Q 333 -496 336 -513 Q 339 -530 339 -547 Q 339 -566 334.5 -585.5 Q 330 -605 319.5 -621 Q 309 -637 291 -646 Q 273 -655 253 -655 Q 234 -655 216.5 -647 Q 199 -639 187.5 -624 Q 176 -609 171.5 -590 Q 167 -571 167 -553 L 167 -548 L 66 -548 L 66 -556 Q 66 -581 71.5 -605.5 Q 77 -630 88 -652 Q 99 -674 117 -692.5 Q 135 -711 157 -722.5 Q 179 -734 203.5 -738.5 Q 228 -743 253 -743 Q 278 -743 303.5 -738 Q 329 -733 351 -721 Q 373 -709 390 -690 Q 407 -671 418 -648 Q 429 -625 434.5 -600 Q 440 -575 440 -550 Q 440 -524 434 -498.5 Q 428 -473 415.5 -450.5 Q 403 -428 384.5 -409.5 Q 366 -391 343 -379 Q 369 -368 390.5 -348.5 Q 412 -329 427 -304.5 Q 442 -280 449 -252 Q 456 -224 456 -196 Q 456 -168 450 -141.5 Q 444 -115 432 -91 Q 420 -67 401 -47 Q 382 -27 358 -14.5 Q 334 -2 307 3 Q 280 8 253 8 Z " id="path4"/>
<path d="M 282 0 L 282 -188 L 52 -188 L 52 -275 L 276 -735 L 385 -735 L 161 -275 L 282 -275 L 282 -435 L 382 -435 L 382 -275 L 440 -275 L 440 -188 L 382 -188 L 382 0 Z " id="path5"/>
<path d="M 252 8 Q 227 8 202.5 3.5 Q 178 -1 155.5 -12 Q 133 -23 115 -41 Q 97 -59 85 -80.5 Q 73 -102 66.5 -126.5 Q 60 -151 59 -176 L 159 -176 Q 161 -158 167 -139.5 Q 173 -121 185.5 -107 Q 198 -93 216 -86.5 Q 234 -80 252 -80 Q 269 -80 285 -87 Q 301 -94 312 -107 Q 323 -120 330 -135.5 Q 337 -151 340.5 -168 Q 344 -185 345.5 -202 Q 347 -219 347 -236 Q 347 -252 346 -269 Q 345 -286 341 -302 Q 337 -318 331 -334 Q 325 -350 314 -363 Q 303 -376 287.5 -383.5 Q 272 -391 256 -391 Q 240 -391 224.5 -387 Q 209 -383 196 -373.5 Q 183 -364 176 -349.5 Q 169 -335 168 -319 L 68 -319 L 68 -735 L 421 -735 L 421 -647 L 168 -647 L 168 -464 Q 189 -472 211 -475 Q 233 -478 256 -478 Q 285 -478 313.5 -470.5 Q 342 -463 365.5 -445.5 Q 389 -428 405.5 -403 Q 422 -378 431.5 -350.5 Q 441 -323 444.5 -294 Q 448 -265 448 -235 Q 448 -206 444 -176.5 Q 440 -147 430.5 -119 Q 421 -91 404 -66.5 Q 387 -42 363.5 -24.5 Q 340 -7 311 0.5 Q 282 8 252 8 Z " id="path6"/>
<path d="M 250 8 Q 221 8 192.5 1.5 Q 164 -5 140 -21 Q 116 -37 98.5 -60.5 Q 81 -84 70.5 -111 Q 60 -138 56 -166.5 Q 52 -195 52 -224 Q 52 -268 60 -311 Q 68 -354 81.5 -395.5 Q 95 -437 113 -477 Q 131 -517 150 -556 L 238 -735 L 347 -735 L 240 -517 Q 228 -493 216.5 -468.5 Q 205 -444 195 -419 Q 214 -438 239 -447 Q 264 -456 291 -456 Q 317 -456 342.5 -447 Q 368 -438 386.5 -419.5 Q 405 -401 417 -377.5 Q 429 -354 436 -328.5 Q 443 -303 445.5 -276.5 Q 448 -250 448 -224 Q 448 -195 444 -166.5 Q 440 -138 429.5 -111 Q 419 -84 401.5 -60.5 Q 384 -37 360 -21 Q 336 -5 307.5 1.5 Q 279 8 250 8 Z M 250 -80 Q 266 -80 282 -85.5 Q 298 -91 309.5 -102.5 Q 321 -114 328.5 -129 Q 336 -144 340 -159.5 Q 344 -175 345.5 -191.5 Q 347 -208 347 -224 Q 347 -240 345.5 -256.5 Q 344 -273 340 -289 Q 336 -305 328.5 -319.5 Q 321 -334 309.5 -345.5 Q 298 -357 282 -362.5 Q 266 -368 250 -368 Q 235 -368 221 -363.5 Q 207 -359 195.5 -349.5 Q 184 -340 176.5 -327.5 Q 169 -315 164 -301 Q 159 -287 156.5 -272.5 Q 154 -258 153 -243 L 153 -224 Q 153 -208 154.5 -191.5 Q 156 -175 160 -159.5 Q 164 -144 171.5 -129 Q 179 -114 190.5 -102.5 Q 202 -91 218 -85.5 Q 234 -80 250 -80 Z " id="path7"/>
<path d="M 242 0 L 138 0 L 336 -647 L 60 -647 L 60 -735 L 440 -735 L 440 -647 Z " id="path8"/>
<path d="M 250 8 Q 225 8 200 4 Q 175 -0 152 -10 Q 129 -20 109.5 -37 Q 90 -54 77.5 -75.5 Q 65 -97 58.5 -121.5 Q 52 -146 52 -172 Q 52 -203 62 -232.5 Q 72 -262 88.5 -288 Q 105 -314 127 -336 Q 149 -358 174 -378 Q 152 -396 132.5 -417 Q 113 -438 98.5 -462.5 Q 84 -487 76 -514.5 Q 68 -542 68 -570 Q 68 -594 73.5 -617 Q 79 -640 90.5 -661 Q 102 -682 119.5 -698.5 Q 137 -715 158 -725 Q 179 -735 202.5 -739 Q 226 -743 250 -743 Q 274 -743 297.5 -739 Q 321 -735 342 -725 Q 363 -715 380.5 -698.5 Q 398 -682 409.5 -661 Q 421 -640 426.5 -617 Q 432 -594 432 -570 Q 432 -542 424 -514.5 Q 416 -487 401.5 -462.5 Q 387 -438 367.5 -417 Q 348 -396 326 -378 Q 351 -358 373 -336 Q 395 -314 411.5 -288 Q 428 -262 438 -232.5 Q 448 -203 448 -172 Q 448 -146 441.5 -121.5 Q 435 -97 422.5 -75.5 Q 410 -54 390.5 -37 Q 371 -20 348 -10 Q 325 -0 300 4 Q 275 8 250 8 Z M 250 -435 Q 266 -447 280.5 -461.5 Q 295 -476 306.5 -493 Q 318 -510 325 -529.5 Q 332 -549 332 -569 Q 332 -586 326.5 -602.5 Q 321 -619 310 -631.5 Q 299 -644 283 -649.5 Q 267 -655 250 -655 Q 233 -655 217 -649.5 Q 201 -644 190 -631.5 Q 179 -619 173.5 -602.5 Q 168 -586 168 -569 Q 168 -549 175 -529.5 Q 182 -510 193.5 -493 Q 205 -476 219.5 -461.5 Q 234 -447 250 -435 Z M 250 -80 Q 269 -80 287.5 -85.5 Q 306 -91 320 -104 Q 334 -117 340.5 -135.5 Q 347 -154 347 -173 Q 347 -196 338.5 -217.5 Q 330 -239 316.5 -257.5 Q 303 -276 285.5 -291 Q 268 -306 250 -320 Q 232 -306 214.5 -291 Q 197 -276 183.5 -257.5 Q 170 -239 161.5 -217.5 Q 153 -196 153 -173 Q 153 -154 159.5 -135.5 Q 166 -117 180 -104 Q 194 -91 212.5 -85.5 Q 231 -80 250 -80 Z " id="path9"/>
<path d="M 262 0 L 153 0 L 260 -218 Q 272 -242 283.5 -266.5 Q 295 -291 305 -316 Q 286 -297 261 -288 Q 236 -279 209 -279 Q 183 -279 157.5 -288 Q 132 -297 113.5 -315.5 Q 95 -334 83 -357.5 Q 71 -381 64 -406.5 Q 57 -432 54.5 -458.5 Q 52 -485 52 -511 Q 52 -540 56 -568.5 Q 60 -597 70.5 -624 Q 81 -651 98.5 -674.5 Q 116 -698 140 -714 Q 164 -730 192.5 -736.5 Q 221 -743 250 -743 Q 279 -743 307.5 -736.5 Q 336 -730 360 -714 Q 384 -698 401.5 -674.5 Q 419 -651 429.5 -624 Q 440 -597 444 -568.5 Q 448 -540 448 -511 Q 448 -467 440 -424 Q 432 -381 418.5 -339.5 Q 405 -298 387 -258 Q 369 -218 350 -179 Z M 250 -367 Q 265 -367 279 -371.5 Q 293 -376 304.5 -385.5 Q 316 -395 323.5 -407.5 Q 331 -420 336 -434 Q 341 -448 343.5 -462.5 Q 346 -477 347 -492 L 347 -511 Q 347 -527 345.5 -543.5 Q 344 -560 340 -575.5 Q 336 -591 328.5 -606 Q 321 -621 309.5 -632.5 Q 298 -644 282 -649.5 Q 266 -655 250 -655 Q 234 -655 218 -649.5 Q 202 -644 190.5 -632.5 Q 179 -621 171.5 -606 Q 164 -591 160 -575.5 Q 156 -560 154.5 -543.5 Q 153 -527 153 -511 Q 153 -495 154.5 -478.5 Q 156 -462 160 -446 Q 164 -430 171.5 -415.5 Q 179 -401 190.5 -389.5 Q 202 -378 218 -372.5 Q 234 -367 250 -367 Z " id="path10"/>
<path d="M 39 0 L 192 -735 L 308 -735 L 461 0 L 358 0 L 326 -172 L 174 -172 L 142 0 Z M 309 -260 L 265 -490 Q 262 -511 258 -531.5 Q 254 -552 250 -572 Q 246 -552 242 -531.5 Q 238 -511 235 -490 L 191 -260 Z " id="path11"/>
<path d="M 60 0 L 60 -735 L 234 -735 Q 261 -735 287 -730.5 Q 313 -726 336 -714 Q 359 -702 377.5 -682.5 Q 396 -663 408 -639.5 Q 420 -616 424.5 -590 Q 429 -564 429 -538 Q 429 -515 425 -492 Q 421 -469 410.5 -448.5 Q 400 -428 383.5 -411 Q 367 -394 347 -383 Q 372 -373 393.5 -355.5 Q 415 -338 429.5 -314.5 Q 444 -291 450 -264 Q 456 -237 456 -210 Q 456 -181 450 -152.5 Q 444 -124 430 -98.5 Q 416 -73 394.5 -53.5 Q 373 -34 347 -21.5 Q 321 -9 292 -4.5 Q 263 -0 234 0 Z M 161 -424 L 234 -424 Q 255 -424 274.5 -432.5 Q 294 -441 306.5 -457.5 Q 319 -474 324 -494.5 Q 329 -515 329 -536 Q 329 -557 324 -577.5 Q 319 -598 306.5 -614.5 Q 294 -631 274.5 -639 Q 255 -647 234 -647 L 161 -647 Z M 161 -88 L 234 -88 Q 251 -88 267 -91 Q 283 -94 297.5 -101.5 Q 312 -109 323.5 -121 Q 335 -133 342.5 -148 Q 350 -163 352.5 -179 Q 355 -195 355 -212 Q 355 -228 352.5 -244.5 Q 350 -261 343 -276 Q 336 -291 324.5 -303 Q 313 -315 298 -322.5 Q 283 -330 267 -333 Q 251 -336 234 -336 L 161 -336 Z " id="path12"/>
<path d="M 247 8 Q 220 8 193 2.5 Q 166 -3 142.5 -16 Q 119 -29 101 -49.5 Q 83 -70 72 -94.5 Q 61 -119 56.5 -146 Q 52 -173 52 -200 L 52 -535 Q 52 -562 56.5 -589 Q 61 -616 72 -640.5 Q 83 -665 101 -685.5 Q 119 -706 142.5 -719 Q 166 -732 193 -737.5 Q 220 -743 247 -743 Q 273 -743 298 -738.5 Q 323 -734 346 -723 Q 369 -712 387.5 -694 Q 406 -676 418 -653.5 Q 430 -631 436 -606 Q 442 -581 442 -555 L 442 -548 L 341 -548 L 341 -552 Q 341 -572 335.5 -591.5 Q 330 -611 317.5 -626 Q 305 -641 286 -648 Q 267 -655 247 -655 Q 225 -655 205 -645.5 Q 185 -636 173 -618 Q 161 -600 157 -578.5 Q 153 -557 153 -535 L 153 -200 Q 153 -178 157 -156.5 Q 161 -135 173 -117 Q 185 -99 205 -89.5 Q 225 -80 247 -80 Q 267 -80 286 -87 Q 305 -94 317.5 -109 Q 330 -124 335.5 -143.5 Q 341 -163 341 -183 L 341 -187 L 442 -187 L 442 -180 Q 442 -154 436 -129 Q 430 -104 418 -81.5 Q 406 -59 387.5 -41 Q 369 -23 346 -12 Q 323 -1 298 3.5 Q 273 8 247 8 Z " id="path13"/>
<path d="M 60 0 L 60 -735 L 219 -735 Q 249 -735 279 -730 Q 309 -725 336.5 -712 Q 364 -699 386 -678.5 Q 408 -658 422 -631.5 Q 436 -605 442 -575 Q 448 -545 448 -515 L 448 -220 Q 448 -190 442 -160 Q 436 -130 422 -103.5 Q 408 -77 386 -56.5 Q 364 -36 336.5 -23 Q 309 -10 279 -5 Q 249 -0 219 0 Z M 161 -88 L 219 -88 Q 237 -88 254 -91 Q 271 -94 286.5 -102.5 Q 302 -111 314 -124 Q 326 -137 333.5 -152.5 Q 341 -168 344 -185.5 Q 347 -203 347 -220 L 347 -515 Q 347 -532 344 -549.5 Q 341 -567 333.5 -582.5 Q 326 -598 314 -611 Q 302 -624 286.5 -632.5 Q 271 -641 254 -644 Q 237 -647 219 -647 L 161 -647 Z " id="path14"/>
<path d="M 68 0 L 68 -735 L 440 -735 L 440 -647 L 169 -647 L 169 -426 L 383 -426 L 383 -338 L 169 -338 L 169 -88 L 440 -88 L 440 0 Z " id="path15"/>
<path d="M 91 0 L 91 -735 L 440 -735 L 440 -647 L 191 -647 L 191 -426 L 383 -426 L 383 -338 L 191 -338 L 191 0 Z " id="path16"/>
<path d="M 250 8 Q 223 8 196.5 2.5 Q 170 -3 147 -16.5 Q 124 -30 106.5 -50.5 Q 89 -71 78.5 -95.5 Q 68 -120 64 -146.5 Q 60 -173 60 -200 L 60 -735 L 161 -735 L 161 -200 Q 161 -186 162.5 -172 Q 164 -158 168 -144.5 Q 172 -131 179.5 -118.5 Q 187 -106 197.5 -97 Q 208 -88 222 -84 Q 236 -80 250 -80 Q 264 -80 278 -84 Q 292 -88 302.5 -97 Q 313 -106 320.5 -118.5 Q 328 -131 332 -144.5 Q 336 -158 337.5 -172 Q 339 -186 339 -200 L 339 -735 L 440 -735 L 440 -200 Q 440 -173 436 -146.5 Q 432 -120 421.5 -95.5 Q 411 -71 393.5 -50.5 Q 376 -30 353 -16.5 Q 330 -3 303.5 2.5 Q 277 8 250 8 Z " id="path17"/>
<path d="M 300 -143 L 200 -143 L 200 -296 L 60 -296 L 60 -384 L 200 -384 L 200 -537 L 300 -537 L 300 -384 L 440 -384 L 440 -296 L 300 -296 Z " id="path18"/>
<path d="M 661 -19 L 339 -340 L 661 -661 Z " id="path19"/>
<path d="M 821 -179 L 179 -179 L 500 -501 Z " id="path20"/>
<path d="M 339 -19 L 339 -661 L 661 -340 Z " id="path21"/>
<path d="M 500 -179 L 179 -501 L 821 -501 Z " id="path22"/>
<path d="M 500 -191 Q 471 -191 443 -202.5 Q 415 -214 394.5 -234.5 Q 374 -255 362.5 -283 Q 351 -311 351 -340 Q 351 -369 362.5 -397 Q 374 -425 394.5 -445.5 Q 415 -466 443 -477.5 Q 471 -489 500 -489 Q 529 -489 557 -477.5 Q 585 -466 605.5 -445.5 Q 626 -425 637.5 -397 Q 649 -369 649 -340 Q 649 -311 637.5 -283 Q 626 -255 605.5 -234.5 Q 585 -214 557 -202.5 Q 529 -191 500 -191 Z " id="path23"/>
<path d="M 500 -19 Q 458 -19 417 -30 Q 376 -41 339.5 -62 Q 303 -83 273 -113 Q 243 -143 222 -179.5 Q 201 -216 190 -257 Q 179 -298 179 -340 Q 179 -382 190 -423 Q 201 -464 222 -500.5 Q 243 -537 273 -567 Q 303 -597 339.5 -618 Q 376 -639 417 -650 Q 458 -661 500 -661 Q 542 -661 583 -650 Q 624 -639 660.5 -618 Q 697 -597 727 -567 Q 757 -537 778 -500.5 Q 799 -464 810 -423 Q 821 -382 821 -340 Q 821 -298 810 -257 Q 799 -216 778 -179.5 Q 757 -143 727 -113 Q 697 -83 660.5 -62 Q 624 -41 583 -30 Q 542 -19 500 -19 Z M 500 -116 Q 529 -116 558 -123.5 Q 587 -131 612 -146 Q 637 -161 658 -182 Q 679 -203 694 -228 Q 709 -253 716.5 -282 Q 724 -311 724 -340 Q 724 -369 716.5 -398 Q 709 -427 694 -452 Q 679 -477 658 -498 Q 637 -519 612 -534 Q 587 -549 558 -556.5 Q 529 -564 500 -564 Q 471 -564 442 -556.5 Q 413 -549 388 -534 Q 363 -519 342 -498 Q 321 -477 306 -452 Q 291 -427 283.5 -398 Q 276 -369 276 -340 Q 276 -311 283.5 -282 Q 291 -253 306 -228 Q 321 -203 342 -182 Q 363 -161 388 -146 Q 413 -131 442 -123.5 Q 471 -116 500 -116 Z " id="path24"/>
<path d="M 500 -19 Q 458 -19 417 -30 Q 376 -41 339.5 -62 Q 303 -83 273 -113 Q 243 -143 222 -179.5 Q 201 -216 190 -257 Q 179 -298 179 -340 Q 179 -382 190 -423 Q 201 -464 222 -500.5 Q 243 -537 273 -567 Q 303 -597 339.5 -618 Q 376 -639 417 -650 Q 458 -661 500 -661 Q 542 -661 583 -650 Q 624 -639 660.5 -618 Q 697 -597 727 -567 Q 757 -537 778 -500.5 Q 799 -464 810 -423 Q 821 -382 821 -340 Q 821 -298 810 -257 Q 799 -216 778 -179.5 Q 757 -143 727 -113 Q 697 -83 660.5 -62 Q 624 -41 583 -30 Q 542 -19 500 -19 Z M 500 -139 Q 539 -139 576.5 -154.5 Q 614 -170 642 -198 Q 670 -226 685.5 -263.5 Q 701 -301 701 -340 Q 701 -379 685.5 -416.5 Q 670 -454 642 -482 Q 614 -510 576.5 -525.5 Q 539 -541 500 -541 Q 461 -541 423.5 -525.5 Q 386 -510 358 -482 Q 330 -454 314.5 -416.5 Q 299 -379 299 -340 Q 299 -301 314.5 -263.5 Q 330 -226 358 -198 Q 386 -170 423.5 -154.5 Q 461 -139 500 -139 Z " id="path25"/>
<path d="M 500 -19 Q 458 -19 417 -30 Q 376 -41 339.5 -62 Q 303 -83 273 -113 Q 243 -143 222 -179.5 Q 201 -216 190 -257 Q 179 -298 179 -340 Q 179 -382 190 -423 Q 201 -464 222 -500.5 Q 243 -537 273 -567 Q 303 -597 339.5 -618 Q 376 -639 417 -650 Q 458 -661 500 -661 Q 542 -661 583 -650 Q 624 -639 660.5 -618 Q 697 -597 727 -567 Q 757 -537 778 -500.5 Q 799 -464 810 -423 Q 821 -382 821 -340 Q 821 -298 810 -257 Q 799 -216 778 -179.5 Q 757 -143 727 -113 Q 697 -83 660.5 -62 Q 624 -41 583 -30 Q 542 -19 500 -19 Z M 500 -204 Q 527 -204 552 -214.5 Q 577 -225 596 -244 Q 615 -263 625.5 -288 Q 636 -313 636 -340 Q 636 -367 625.5 -392 Q 615 -417 596 -436 Q 577 -455 552 -465.5 Q 527 -476 500 -476 Q 473 -476 448 -465.5 Q 423 -455 404 -436 Q 385 -417 374.5 -392 Q 364 -367 364 -340 Q 364 -313 374.5 -288 Q 385 -263 404 -244 Q 423 -225 448 -214.5 Q 473 -204 500 -204 Z " id="path26"/>
<path d="M 500 -19 Q 458 -19 417 -30 Q 376 -41 339.5 -62 Q 303 -83 273 -113 Q 243 -143 222 -179.5 Q 201 -216 190 -257 Q 179 -298 179 -340 Q 179 -382 190 -423 Q 201 -464 222 -500.5 Q 243 -537 273 -567 Q 303 -597 339.5 -618 Q 376 -639 417 -650 Q 458 -661 500 -661 Q 542 -661 583 -650 Q 624 -639 660.5 -618 Q 697 -597 727 -567 Q 757 -537 778 -500.5 Q 799 -464 810 -423 Q 821 -382 821 -340 Q 821 -298 810 -257 Q 799 -216 778 -179.5 Q 757 -143 727 -113 Q 697 -83 660.5 -62 Q 624 -41 583 -30 Q 542 -19 500 -19 Z M 500 -220 Q 524 -220 546 -229.5 Q 568 -239 584.5 -255.5 Q 601 -272 610.5 -294 Q 620 -316 620 -340 Q 620 -364 610.5 -386 Q 601 -408 584.5 -424.5 Q 568 -441 546 -450.5 Q 524 -460 500 -460 Q 476 -460 454 -450.5 Q 432 -441 415.5 -424.5 Q 399 -408 389.5 -386 Q 380 -364 380 -340 Q 380 -316 389.5 -294 Q 399 -272 415.5 -255.5 Q 432 -239 454 -229.5 Q 476 -220 500 -220 Z " id="path27"/>
<path d="M 500 -19 Q 458 -19 417 -30 Q 376 -41 339.5 -62 Q 303 -83 273 -113 Q 243 -143 222 -179.5 Q 201 -216 190 -257 Q 179 -298 179 -340 Q 179 -382 190 -423 Q 201 -464 222 -500.5 Q 243 -537 273 -567 Q 303 -597 339.5 -618 Q 376 -639 417 -650 Q 458 -661 500 -661 Q 542 -661 583 -650 Q 624 -639 660.5 -618 Q 697 -597 727 -567 Q 757 -537 778 -500.5 Q 799 -464 810 -423 Q 821 -382 821 -340 Q 821 -298 810 -257 Q 799 -216 778 -179.5 Q 757 -143 727 -113 Q 697 -83 660.5 -62 Q 624 -41 583 -30 Q 542 -19 500 -19 Z M 500 -234 Q 521 -234 540.5 -242.5 Q 560 -251 574.5 -265.5 Q 589 -280 597.5 -299.5 Q 606 -319 606 -340 Q 606 -361 597.5 -380.5 Q 589 -400 574.5 -414.5 Q 560 -429 540.5 -437.5 Q 521 -446 500 -446 Q 479 -446 459.5 -437.5 Q 440 -429 425.5 -414.5 Q 411 -400 402.5 -380.5 Q 394 -361 394 -340 Q 394 -319 402.5 -299.5 Q 411 -280 425.5 -265.5 Q 440 -251 459.5 -242.5 Q 479 -234 500 -234 Z " id="path28"/>
<path d="M 500 -19 Q 458 -19 417 -30 Q 376 -41 339.5 -62 Q 303 -83 273 -113 Q 243 -143 222 -179.5 Q 201 -216 190 -257 Q 179 -298 179 -340 Q 179 -382 190 -423 Q 201 -464 222 -500.5 Q 243 -537 273 -567 Q 303 -597 339.5 -618 Q 376 -639 417 -650 Q 458 -661 500 -661 Q 542 -661 583 -650 Q 624 -639 660.5 -618 Q 697 -597 727 -567 Q 757 -537 778 -500.5 Q 799 -464 810 -423 Q 821 -382 821 -340 Q 821 -298 810 -257 Q 799 -216 778 -179.5 Q 757 -143 727 -113 Q 697 -83 660.5 -62 Q 624 -41 583 -30 Q 542 -19 500 -19 Z M 500 -79 Q 534 -79 567.5 -88 Q 601 -97 630.5 -114 Q 660 -131 684.5 -155.5 Q 709 -180 726 -209.5 Q 743 -239 752 -272.5 Q 761 -306 761 -340 Q 761 -374 752 -407.5 Q 743 -441 726 -470.5 Q 709 -500 684.5 -524.5 Q 660 -549 630.5 -566 Q 601 -583 567.5 -592 Q 534 -601 500 -601 Q 466 -601 432.5 -592 Q 399 -583 369.5 -566 Q 340 -549 315.5 -524.5 Q 291 -500 274 -470.5 Q 257 -441 248 -407.5 Q 239 -374 239 -340 Q 239 -306 248 -272.5 Q 257 -239 274 -209.5 Q 291 -180 315.5 -155.5 Q 340 -131 369.5 -114 Q 399 -97 432.5 -88 Q 466 -79 500 -79 Z M 500 -253 Q 483 -253 467 -260 Q 451 -267 439 -279 Q 427 -291 420 -307 Q 413 -323 413 -340 Q 413 -357 420 -373 Q 427 -389 439 -401 Q 451 -413 467 -420 Q 483 -427 500 -427 Q 517 -427 533 -420 Q 549 -413 561 -401 Q 573 -389 580 -373 Q 587 -357 587 -340 Q 587 -323 580 -307 Q 573 -291 561 -279 Q 549 -267 533 -260 Q 517 -253 500 -253 Z " id="path29"/>
<path d="M 500 -19 Q 458 -19 417 -30 Q 376 -41 339.5 -62 Q 303 -83 273 -113 Q 243 -143 222 -179.5 Q 201 -216 190 -257 Q 179 -298 179 -340 Q 179 -382 190 -423 Q 201 -464 222 -500.5 Q 243 -537 273 -567 Q 303 -597 339.5 -618 Q 376 -639 417 -650 Q 458 -661 500 -661 Q 542 -661 583 -650 Q 624 -639 660.5 -618 Q 697 -597 727 -567 Q 757 -537 778 -500.5 Q 799 -464 810 -423 Q 821 -382 821 -340 Q 821 -298 810 -257 Q 799 -216 778 -179.5 Q 757 -143 727 -113 Q 697 -83 660.5 -62 Q 624 -41 583 -30 Q 542 -19 500 -19 Z M 500 -79 Q 534 -79 567.5 -88 Q 601 -97 630.5 -114 Q 660 -131 684.5 -155.5 Q 709 -180 726 -209.5 Q 743 -239 752 -272.5 Q 761 -306 761 -340 Q 761 -374 752 -407.5 Q 743 -441 726 -470.5 Q 709 -500 684.5 -524.5 Q 660 -549 630.5 -566 Q 601 -583 567.5 -592 Q 534 -601 500 -601 Q 466 -601 432.5 -592 Q 399 -583 369.5 -566 Q 340 -549 315.5 -524.5 Q 291 -500 274 -470.5 Q 257 -441 248 -407.5 Q 239 -374 239 -340 Q 239 -306 248 -272.5 Q 257 -239 274 -209.5 Q 291 -180 315.5 -155.5 Q 340 -131 369.5 -114 Q 399 -97 432.5 -88 Q 466 -79 500 -79 Z M 500 -139 Q 461 -139 423.5 -154.5 Q 386 -170 358 -198 Q 330 -226 314.5 -263.5 Q 299 -301 299 -340 Q 299 -379 314.5 -416.5 Q 330 -454 358 -482 Q 386 -510 423.5 -525.5 Q 461 -541 500 -541 Q 539 -541 576.5 -525.5 Q 614 -510 642 -482 Q 670 -454 685.5 -416.5 Q 701 -379 701 -340 Q 701 -301 685.5 -263.5 Q 670 -226 642 -198 Q 614 -170 576.5 -154.5 Q 539 -139 500 -139 Z M 500 -200 Q 528 -200 554 -210.5 Q 580 -221 599.5 -240.5 Q 619 -260 629.5 -286 Q 640 -312 640 -340 Q 640 -368 629.5 -394 Q 619 -420 599.5 -439.5 Q 580 -459 554 -469.5 Q 528 -480 500 -480 Q 472 -480 446 -469.5 Q 420 -459 400.5 -439.5 Q 381 -420 370.5 -394 Q 360 -368 360 -340 Q 360 -312 370.5 -286 Q 381 -260 400.5 -240.5 Q 420 -221 446 -210.5 Q 472 -200 500 -200 Z M 500 -290 Q 490 -290 481 -294 Q 472 -298 465 -305 Q 458 -312 454 -321 Q 450 -330 450 -340 Q 450 -350 454 -359 Q 458 -368 465 -375 Q 472 -382 481 -386 Q 490 -390 500 -390 Q 510 -390 519 -386 Q 528 -382 535 -375 Q 542 -368 546 -359 Q 550 -350 550 -340 Q 550 -330 546 -321 Q 542 -312 535 -305 Q 528 -298 519 -294 Q 510 -290 500 -290 Z " id="path30"/>
<path d="M 454 -294 L 454 -386 L 546 -386 L 546 -294 Z " id="path31"/>
<path d="M 351 -191 L 351 -489 L 649 -489 L 649 -191 Z " id="path32"/>
<path d="M 179 -19 L 179 -661 L 821 -661 L 821 -19 Z M 224 -64 L 776 -64 L 776 -616 L 224 -616 Z " id="path33"/>
<path d="M 179 -19 L 179 -661 L 821 -661 L 821 -19 Z M 256 -96 L 744 -96 L 744 -584 L 256 -584 Z " id="path34"/>
<path d="M 179 -19 L 179 -661 L 821 -661 L 821 -19 Z M 299 -139 L 701 -139 L 701 -541 L 299 -541 Z " id="path35"/>
<path d="M 179 -19 L 179 -661 L 821 -661 L 821 -19 Z M 364 -204 L 636 -204 L 636 -476 L 364 -476 Z " id="path36"/>
<path d="M 179 -19 L 179 -661 L 821 -661 L 821 -19 Z M 380 -220 L 620 -220 L 620 -460 L 380 -460 Z " id="path37"/>
<path d="M 179 -19 L 179 -661 L 821 -661 L 821 -19 Z M 606 -234 L 606 -446 L 394 -446 L 394 -234 Z " id="path38"/>
<path d="M 179 -19 L 179 -661 L 821 -661 L 821 -19 Z M 239 -79 L 761 -79 L 761 -601 L 239 -601 Z M 435 -275 L 435 -405 L 565 -405 L 565 -275 Z " id="path39"/>
<path d="M 179 -19 L 179 -661 L 821 -661 L 821 -19 Z M 239 -79 L 761 -79 L 761 -601 L 239 -601 Z M 326 -166 L 326 -514 L 674 -514 L 674 -166 Z " id="path40"/>
<path d="M 179 -19 L 179 -661 L 821 -661 L 821 -19 Z M 239 -79 L 761 -79 L 761 -601 L 239 -601 Z M 299 -139 L 299 -541 L 701 -541 L 701 -139 Z M 640 -200 L 640 -480 L 360 -480 L 360 -200 Z M 550 -290 L 450 -290 L 450 -390 L 550 -390 Z " id="path41"/>
<path d="M 500 -294 L 454 -340 L 500 -386 L 546 -340 Z " id="path42"/>
<path d="M 500 -225 L 385 -340 L 500 -455 L 615 -340 Z " id="path43"/>
<path d="M 500 -122 L 282 -340 L 500 -558 L 718 -340 Z " id="path44"/>
<path d="M 500 -19 L 179 -340 L 500 -661 L 821 -340 Z M 500 -79 L 761 -340 L 500 -601 L 239 -340 Z M 500 -275 L 435 -340 L 500 -405 L 565 -340 Z " id="path45"/>
<path d="M 500 -19 L 179 -340 L 500 -661 L 821 -340 Z M 500 -79 L 761 -340 L 500 -601 L 239 -340 Z M 500 -166 L 326 -340 L 500 -514 L 674 -340 Z " id="path46"/>
<path d="M 500 -19 L 179 -340 L 500 -661 L 821 -340 Z M 500 -79 L 761 -340 L 500 -601 L 239 -340 Z M 500 -139 L 299 -340 L 500 -541 L 701 -340 Z M 500 -200 L 640 -340 L 500 -480 L 360 -340 Z M 500 -290 L 450 -340 L 500 -390 L 550 -340 Z " id="path47"/>
<path d="M 500 -294 L 469 -340 L 500 -386 L 531 -340 Z " id="path48"/>
<path d="M 500 -225 L 424 -340 L 500 -455 L 576 -340 Z " id="path49"/>
<path d="M 500 -122 L 355 -340 L 500 -558 L 645 -340 Z " id="path50"/>
<path d="M 500 -19 L 286 -340 L 500 -661 L 714 -340 Z M 500 -128 L 641 -340 L 500 -552 L 359 -340 Z M 500 -253 L 442 -340 L 500 -427 L 558 -340 Z " id="path51"/>
<path d="M 482 -19 L 482 -324 L 179 -324 L 179 -356 L 482 -356 L 482 -661 L 518 -661 L 518 -356 L 821 -356 L 821 -324 L 518 -324 L 518 -19 Z " id="path52"/>
<path d="M 475 -19 L 475 -317 L 179 -317 L 179 -363 L 475 -363 L 475 -661 L 525 -661 L 525 -363 L 821 -363 L 821 -317 L 525 -317 L 525 -19 Z " id="path53"/>
<path d="M 457 -19 L 457 -301 L 179 -301 L 179 -379 L 457 -379 L 457 -661 L 543 -661 L 543 -379 L 821 -379 L 821 -301 L 543 -301 L 543 -19 Z " id="path54"/>
<path d="M 567 -19 L 433 -19 L 433 -280 L 179 -280 L 179 -400 L 433 -400 L 433 -661 L 567 -661 L 567 -400 L 821 -400 L 821 -280 L 567 -280 Z " id="path55"/>
<path d="M 583 -19 L 417 -19 L 417 -265 L 179 -265 L 179 -415 L 417 -415 L 417 -661 L 583 -661 L 583 -415 L 821 -415 L 821 -265 L 583 -265 Z " id="path56"/>
<path d="M 612 -19 L 388 -19 L 388 -239 L 179 -239 L 179 -441 L 388 -441 L 388 -661 L 612 -661 L 612 -441 L 821 -441 L 821 -239 L 612 -239 Z " id="path57"/>
<path d="M 380 -19 L 380 -232 L 179 -232 L 179 -448 L 380 -448 L 380 -661 L 620 -661 L 620 -448 L 821 -448 L 821 -232 L 620 -232 L 620 -19 Z " id="path58"/>
<path d="M 715 -102 L 500 -316 L 285 -102 L 260 -124 L 476 -340 L 260 -556 L 285 -578 L 500 -364 L 715 -578 L 740 -556 L 524 -340 L 740 -124 Z " id="path59"/>
<path d="M 709 -97 L 500 -306 L 291 -97 L 255 -129 L 466 -340 L 255 -551 L 291 -583 L 500 -374 L 709 -583 L 745 -551 L 534 -340 L 745 -129 Z " id="path60"/>
<path d="M 697 -85 L 500 -282 L 303 -85 L 242 -140 L 442 -340 L 242 -540 L 303 -595 L 500 -398 L 697 -595 L 758 -540 L 558 -340 L 758 -140 Z " id="path61"/>
<path d="M 680 -70 L 500 -250 L 320 -70 L 226 -155 L 410 -340 L 226 -525 L 320 -610 L 500 -430 L 680 -610 L 774 -525 L 590 -340 L 774 -155 Z " id="path62"/>
<path d="M 345 -47 L 200 -178 L 362 -340 L 200 -502 L 345 -633 L 500 -478 L 655 -633 L 800 -502 L 638 -340 L 800 -178 L 655 -47 L 500 -202 Z " id="path63"/>
<path d="M 648 -42 L 500 -190 L 352 -42 L 194 -184 L 350 -340 L 194 -496 L 352 -638 L 500 -490 L 648 -638 L 806 -496 L 650 -340 L 806 -184 Z " id="path64"/>
<path d="M 643 -37 L 500 -179 L 357 -37 L 188 -189 L 339 -340 L 188 -491 L 357 -643 L 500 -501 L 643 -643 L 812 -491 L 661 -340 L 812 -189 Z " id="path65"/>
<path d="M 668 -67 L 500 -298 L 332 -67 L 291 -94 L 461 -328 L 187 -418 L 202 -461 L 475 -373 L 475 -661 L 525 -661 L 525 -373 L 798 -461 L 813 -418 L 539 -328 L 709 -94 Z " id="path66"/>
<path d="M 654 -57 L 500 -269 L 346 -57 L 276 -103 L 434 -320 L 181 -402 L 208 -476 L 457 -395 L 457 -661 L 543 -661 L 543 -395 L 792 -476 L 819 -402 L 566 -320 L 724 -103 Z " id="path67"/>
<path d="M 635 -45 L 500 -230 L 365 -45 L 257 -115 L 398 -309 L 174 -382 L 215 -497 L 433 -426 L 433 -661 L 567 -661 L 567 -426 L 785 -497 L 826 -382 L 602 -309 L 743 -115 Z " id="path68"/>
<path d="M 606 -26 L 500 -171 L 394 -26 L 228 -134 L 343 -293 L 163 -351 L 226 -527 L 397 -472 L 397 -661 L 603 -661 L 603 -472 L 774 -527 L 837 -351 L 657 -293 L 772 -134 Z " id="path69"/>
<path d="M 598 -21 L 500 -156 L 402 -21 L 221 -139 L 329 -289 L 160 -344 L 229 -535 L 388 -483 L 388 -661 L 612 -661 L 612 -483 L 771 -535 L 840 -344 L 671 -289 L 779 -139 Z " id="path70"/>
<path d="M 592 -17 L 500 -144 L 408 -17 L 214 -143 L 317 -285 L 157 -337 L 231 -542 L 380 -493 L 380 -661 L 620 -661 L 620 -493 L 769 -542 L 843 -337 L 683 -285 L 786 -143 Z " id="path71"/>
<path d="M 475 -19 L 477 -302 L 234 -160 L 209 -199 L 457 -340 L 209 -481 L 234 -520 L 477 -378 L 475 -661 L 525 -661 L 523 -378 L 766 -520 L 791 -481 L 543 -340 L 791 -199 L 766 -160 L 523 -302 L 525 -19 Z " id="path72"/>
<path d="M 457 -19 L 460 -275 L 243 -146 L 200 -213 L 427 -340 L 200 -467 L 243 -534 L 460 -405 L 457 -661 L 543 -661 L 540 -405 L 757 -534 L 800 -467 L 573 -340 L 800 -213 L 757 -146 L 540 -275 L 543 -19 Z " id="path73"/>
<path d="M 433 -19 L 438 -237 L 255 -127 L 188 -232 L 385 -340 L 188 -448 L 255 -553 L 438 -443 L 433 -661 L 567 -661 L 562 -443 L 745 -553 L 812 -448 L 615 -340 L 812 -232 L 745 -127 L 562 -237 L 567 -19 Z " id="path74"/>
<path d="M 397 -19 L 402 -179 L 273 -99 L 170 -259 L 320 -340 L 170 -421 L 273 -581 L 402 -501 L 397 -661 L 603 -661 L 598 -501 L 727 -581 L 830 -421 L 680 -340 L 830 -259 L 727 -99 L 598 -179 L 603 -19 Z " id="path75"/>
<path d="M 388 -19 L 393 -164 L 278 -92 L 166 -267 L 303 -340 L 166 -413 L 278 -588 L 393 -516 L 388 -661 L 612 -661 L 607 -516 L 722 -588 L 834 -413 L 697 -340 L 834 -267 L 722 -92 L 607 -164 L 612 -19 Z " id="path76"/>
<path d="M 380 -19 L 385 -151 L 282 -86 L 162 -273 L 288 -340 L 162 -407 L 282 -594 L 385 -529 L 380 -661 L 620 -661 L 615 -529 L 718 -594 L 838 -407 L 712 -340 L 838 -273 L 718 -86 L 615 -151 L 620 -19 Z " id="path77"/>
<path d="M 525 -19 L 475 -19 L 480 -293 L 291 -97 L 255 -129 L 455 -322 L 179 -317 L 179 -363 L 455 -358 L 255 -551 L 291 -583 L 480 -387 L 475 -661 L 525 -661 L 520 -387 L 709 -583 L 745 -551 L 545 -358 L 821 -363 L 821 -317 L 545 -322 L 745 -129 L 709 -97 L 520 -293 Z " id="path78"/>
<path d="M 457 -19 L 465 -258 L 303 -85 L 242 -140 L 422 -309 L 179 -301 L 179 -379 L 422 -371 L 242 -540 L 303 -595 L 465 -422 L 457 -661 L 543 -661 L 535 -422 L 697 -595 L 758 -540 L 578 -371 L 821 -379 L 821 -301 L 578 -309 L 758 -140 L 697 -85 L 535 -258 L 543 -19 Z " id="path79"/>
<path d="M 433 -19 L 443 -206 L 320 -70 L 226 -155 L 373 -289 L 179 -280 L 179 -400 L 373 -391 L 226 -525 L 320 -610 L 443 -474 L 433 -661 L 567 -661 L 557 -474 L 680 -610 L 774 -525 L 627 -391 L 821 -400 L 821 -280 L 627 -289 L 774 -155 L 680 -70 L 557 -206 L 567 -19 Z " id="path80"/>
<path d="M 417 -19 L 427 -168 L 331 -60 L 214 -166 L 338 -275 L 179 -265 L 179 -415 L 338 -405 L 214 -514 L 331 -620 L 427 -512 L 417 -661 L 583 -661 L 573 -512 L 669 -620 L 786 -514 L 662 -405 L 821 -415 L 821 -265 L 662 -275 L 786 -166 L 669 -60 L 573 -168 L 583 -19 Z " id="path81"/>
<path d="M 397 -19 L 405 -117 L 345 -47 L 200 -178 L 290 -255 L 179 -247 L 179 -433 L 290 -425 L 200 -502 L 345 -633 L 405 -563 L 397 -661 L 603 -661 L 595 -563 L 655 -633 L 800 -502 L 710 -425 L 821 -433 L 821 -247 L 710 -255 L 800 -178 L 655 -47 L 595 -117 L 603 -19 Z " id="path82"/>
<path d="M 64 0 L 64 -735 L 436 -735 L 436 0 Z M 94 -321 L 401 -705 L 308 -705 L 94 -438 Z M 94 -478 L 276 -705 L 182 -705 L 94 -595 Z M 94 -634 L 151 -705 L 94 -705 Z M 94 -165 L 406 -554 L 406 -671 L 94 -282 Z M 94 -30 L 111 -30 L 406 -398 L 406 -515 L 94 -126 Z M 143 -30 L 236 -30 L 406 -242 L 406 -359 Z M 268 -30 L 362 -30 L 406 -85 L 406 -202 Z M 393 -30 L 406 -30 L 406 -46 Z " id="path83"/>
</defs>
<g>
<g data-source-text="0" fill="#20242e" transform="translate(174 41.292) rotate(0) scale(0.023999998)">
<use href="#path1" transform="translate(0 0)"/>
</g>
</g>
<g>
<g data-source-text="1" fill="#20242e" transform="translate(246 41.292) rotate(0) scale(0.023999998)">
<use href="#path2" transform="translate(0 0)"/>
</g>
</g>
<g>
<g data-source-text="2" fill="#20242e" transform="translate(318 41.292) rotate(0) scale(0.023999998)">
<use href="#path3" transform="translate(0 0)"/>
</g>
</g>
<g>
<g data-source-text="3" fill="#20242e" transform="translate(390 41.292) rotate(0) scale(0.023999998)">
<use href="#path4" transform="translate(0 0)"/>
</g>
</g>
<g>
<g data-source-text="4" fill="#20242e" transform="translate(462 41.292) rotate(0) scale(0.023999998)">
<use href="#path5" transform="translate(0 0)"/>
</g>
</g>
<g>
<g data-source-text="5" fill="#20242e" transform="translate(534 41.292) rotate(0) scale(0.023999998)">
<use href="#path6" transform="translate(0 0)"/>
</g>
</g>
<g>
<g data-source-text="6" fill="#20242e" transform="translate(606 41.292) rotate(0) scale(0.023999998)">
<use href="#path7" transform="translate(0 0)"/>
</g>
</g>
<g>
<g data-source-text="7" fill="#20242e" transform="translate(678 41.292) rotate(0) scale(0.023999998)">
<use href="#path8" transform="translate(0 0)"/>
</g>
</g>
<g>
<g data-source-text="8" fill="#20242e" transform="translate(750 41.292) rotate(0) scale(0.023999998)">
<use href="#path9" transform="translate(0 0)"/>
</g>
</g>
<g>
<g data-source-text="9" fill="#20242e" transform="translate(822 41.292) rotate(0) scale(0.023999998)">
<use href="#path10" transform="translate(0 0)"/>
</g>
</g>
<g>
<g data-source-text="A" fill="#20242e" transform="translate(894 41.292) rotate(0) scale(0.023999998)">
<use href="#path11" transform="translate(0 0)"/>
</g>
</g>
<g>
<g data-source-text="B" fill="#20242e" transform="translate(966 41.292) rotate(0) scale(0.023999998)">
<use href="#path12" transform="translate(0 0)"/>
</g>
</g>
<g>
<g data-source-text="C" fill="#20242e" transform="translate(1038 41.292) rotate(0) scale(0.023999998)">
<use href="#path13" transform="translate(0 0)"/>
</g>
</g>
<g>
<g data-source-text="D" fill="#20242e" transform="translate(1110 41.292) rotate(0) scale(0.023999998)">
<use href="#path14" transform="translate(0 0)"/>
</g>
</g>
<g>
<g data-source-text="E" fill="#20242e" transform="translate(1182 41.292) rotate(0) scale(0.023999998)">
<use href="#path15" transform="translate(0 0)"/>
</g>
</g>
<g>
<g data-source-text="F" fill="#20242e" transform="translate(1254 41.292) rotate(0) scale(0.023999998)">
<use href="#path16" transform="translate(0 0)"/>
</g>
</g>
<g>
<g data-source-text="U+1F780" fill="#20242e" transform="translate(30 113.292) rotate(0) scale(0.023999998)">
<use href="#path17" transform="translate(0 0)"/>
<use href="#path18" transform="translate(500 0)"/>
<use href="#path2" transform="translate(1000 0)"/>
<use href="#path16" transform="translate(1500 0)"/>
<use href="#path8" transform="translate(2000 0)"/>
<use href="#path9" transform="translate(2500 0)"/>
<use href="#path1" transform="translate(3000 0)"/>
</g>
</g>
<g>
<g data-source-text="ðŸž€" fill="#20242e" transform="translate(156 118.584) rotate(0) scale(0.047999997)">
<use href="#path19" transform="translate(0 0)"/>
</g>
</g>
<g>
<g data-source-text="ðŸž" fill="#20242e" transform="translate(228 118.584) rotate(0) scale(0.047999997)">
<use href="#path20" transform="translate(0 0)"/>
</g>
</g>
<g>
<g data-source-text="ðŸž‚" fill="#20242e" transform="translate(300 118.584) rotate(0) scale(0.047999997)">
<use href="#path21" transform="translate(0 0)"/>
</g>
</g>
<g>
<g data-source-text="ðŸžƒ" fill="#20242e" transform="translate(372 118.584) rotate(0) scale(0.047999997)">
<use href="#path22" transform="translate(0 0)"/>
</g>
</g>
<g>
<g data-source-text="ðŸž„" fill="#20242e" transform="translate(444 118.584) rotate(0) scale(0.047999997)">
<use href="#path23" transform="translate(0 0)"/>
</g>
</g>
<g>
<g data-source-text="ðŸž…" fill="#20242e" transform="translate(516 118.584) rotate(0) scale(0.047999997)">
<use href="#path24" transform="translate(0 0)"/>
</g>
</g>
<g>
<g data-source-text="ðŸž†" fill="#20242e" transform="translate(588 118.584) rotate(0) scale(0.047999997)">
<use href="#path25" transform="translate(0 0)"/>
</g>
</g>
<g>
<g data-source-text="ðŸž‡" fill="#20242e" transform="translate(660 118.584) rotate(0) scale(0.047999997)">
<use href="#path26" transform="translate(0 0)"/>
</g>
</g>
<g>
<g data-source-text="ðŸžˆ" fill="#20242e" transform="translate(732 118.584) rotate(0) scale(0.047999997)">
<use href="#path27" transform="translate(0 0)"/>
</g>
</g>
<g>
<g data-source-text="ðŸž‰" fill="#20242e" transform="translate(804 118.584) rotate(0) scale(0.047999997)">
<use href="#path28" transform="translate(0 0)"/>
</g>
</g>
<g>
<g data-source-text="ðŸžŠ" fill="#20242e" transform="translate(876 118.584) rotate(0) scale(0.047999997)">
<use href="#path29" transform="translate(0 0)"/>
</g>
</g>
<g>
<g data-source-text="ðŸž‹" fill="#20242e" transform="translate(948 118.584) rotate(0) scale(0.047999997)">
<use href="#path30" transform="translate(0 0)"/>
</g>
</g>
<g>
<g data-source-text="ðŸžŒ" fill="#20242e" transform="translate(1020 118.584) rotate(0) scale(0.047999997)">
<use href="#path31" transform="translate(0 0)"/>
</g>
</g>
<g>
<g data-source-text="ðŸž" fill="#20242e" transform="translate(1092 118.584) rotate(0) scale(0.047999997)">
<use href="#path32" transform="translate(0 0)"/>
</g>
</g>
<g>
<g data-source-text="ðŸžŽ" fill="#20242e" transform="translate(1164 118.584) rotate(0) scale(0.047999997)">
<use href="#path33" transform="translate(0 0)"/>
</g>
</g>
<g>
<g data-source-text="ðŸž" fill="#20242e" transform="translate(1236 118.584) rotate(0) scale(0.047999997)">
<use href="#path34" transform="translate(0 0)"/>
</g>
</g>
<g>
<g data-source-text="U+1F790" fill="#20242e" transform="translate(30 185.292) rotate(0) scale(0.023999998)">
<use href="#path17" transform="translate(0 0)"/>
<use href="#path18" transform="translate(500 0)"/>
<use href="#path2" transform="translate(1000 0)"/>
<use href="#path16" transform="translate(1500 0)"/>
<use href="#path8" transform="translate(2000 0)"/>
<use href="#path10" transform="translate(2500 0)"/>
<use href="#path1" transform="translate(3000 0)"/>
</g>
</g>
<g>
<g data-source-text="ðŸž" fill="#20242e" transform="translate(156 190.584) rotate(0) scale(0.047999997)">
<use href="#path35" transform="translate(0 0)"/>
</g>
</g>
<g>
<g data-source-text="ðŸž‘" fill="#20242e" transform="translate(228 190.584) rotate(0) scale(0.047999997)">
<use href="#path36" transform="translate(0 0)"/>
</g>
</g>
<g>
<g data-source-text="ðŸž’" fill="#20242e" transform="translate(300 190.584) rotate(0) scale(0.047999997)">
<use href="#path37" transform="translate(0 0)"/>
</g>
</g>
<g>
<g data-source-text="ðŸž“" fill="#20242e" transform="translate(372 190.584) rotate(0) scale(0.047999997)">
<use href="#path38" transform="translate(0 0)"/>
</g>
</g>
<g>
<g data-source-text="ðŸž”" fill="#20242e" transform="translate(444 190.584) rotate(0) scale(0.047999997)">
<use href="#path39" transform="translate(0 0)"/>
</g>
</g>
<g>
<g data-source-text="ðŸž•" fill="#20242e" transform="translate(516 190.584) rotate(0) scale(0.047999997)">
<use href="#path40" transform="translate(0 0)"/>
</g>
</g>
<g>
<g data-source-text="ðŸž–" fill="#20242e" transform="translate(588 190.584) rotate(0) scale(0.047999997)">
<use href="#path41" transform="translate(0 0)"/>
</g>
</g>
<g>
<g data-source-text="ðŸž—" fill="#20242e" transform="translate(660 190.584) rotate(0) scale(0.047999997)">
<use href="#path42" transform="translate(0 0)"/>
</g>
</g>
<g>
<g data-source-text="ðŸž˜" fill="#20242e" transform="translate(732 190.584) rotate(0) scale(0.047999997)">
<use href="#path43" transform="translate(0 0)"/>
</g>
</g>
<g>
<g data-source-text="ðŸž™" fill="#20242e" transform="translate(804 190.584) rotate(0) scale(0.047999997)">
<use href="#path44" transform="translate(0 0)"/>
</g>
</g>
<g>
<g data-source-text="ðŸžš" fill="#20242e" transform="translate(876 190.584) rotate(0) scale(0.047999997)">
<use href="#path45" transform="translate(0 0)"/>
</g>
</g>
<g>
<g data-source-text="ðŸž›" fill="#20242e" transform="translate(948 190.584) rotate(0) scale(0.047999997)">
<use href="#path46" transform="translate(0 0)"/>
</g>
</g>
<g>
<g data-source-text="ðŸžœ" fill="#20242e" transform="translate(1020 190.584) rotate(0) scale(0.047999997)">
<use href="#path47" transform="translate(0 0)"/>
</g>
</g>
<g>
<g data-source-text="ðŸž" fill="#20242e" transform="translate(1092 190.584) rotate(0) scale(0.047999997)">
<use href="#path48" transform="translate(0 0)"/>
</g>
</g>
<g>
<g data-source-text="ðŸžž" fill="#20242e" transform="translate(1164 190.584) rotate(0) scale(0.047999997)">
<use href="#path49" transform="translate(0 0)"/>
</g>
</g>
<g>
<g data-source-text="ðŸžŸ" fill="#20242e" transform="translate(1236 190.584) rotate(0) scale(0.047999997)">
<use href="#path50" transform="translate(0 0)"/>
</g>
</g>
<g>
<g data-source-text="U+1F7A0" fill="#20242e" transform="translate(30 257.292) rotate(0) scale(0.023999998)">
<use href="#path17" transform="translate(0 0)"/>
<use href="#path18" transform="translate(500 0)"/>
<use href="#path2" transform="translate(1000 0)"/>
<use href="#path16" transform="translate(1500 0)"/>
<use href="#path8" transform="translate(2000 0)"/>
<use href="#path11" transform="translate(2500 0)"/>
<use href="#path1" transform="translate(3000 0)"/>
</g>
</g>
<g>
<g data-source-text="ðŸž " fill="#20242e" transform="translate(156 262.584) rotate(0) scale(0.047999997)">
<use href="#path51" transform="translate(0 0)"/>
</g>
</g>
<g>
<g data-source-text="ðŸž¡" fill="#20242e" transform="translate(228 262.584) rotate(0) scale(0.047999997)">
<use href="#path52" transform="translate(0 0)"/>
</g>
</g>
<g>
<g data-source-text="ðŸž¢" fill="#20242e" transform="translate(300 262.584) rotate(0) scale(0.047999997)">
<use href="#path53" transform="translate(0 0)"/>
</g>
</g>
<g>
<g data-source-text="ðŸž£" fill="#20242e" transform="translate(372 262.584) rotate(0) scale(0.047999997)">
<use href="#path54" transform="translate(0 0)"/>
</g>
</g>
<g>
<g data-source-text="ðŸž¤" fill="#20242e" transform="translate(444 262.584) rotate(0) scale(0.047999997)">
<use href="#path55" transform="translate(0 0)"/>
</g>
</g>
<g>
<g data-source-text="ðŸž¥" fill="#20242e" transform="translate(516 262.584) rotate(0) scale(0.047999997)">
<use href="#path56" transform="translate(0 0)"/>
</g>
</g>
<g>
<g data-source-text="ðŸž¦" fill="#20242e" transform="translate(588 262.584) rotate(0) scale(0.047999997)">
<use href="#path57" transform="translate(0 0)"/>
</g>
</g>
<g>
<g data-source-text="ðŸž§" fill="#20242e" transform="translate(660 262.584) rotate(0) scale(0.047999997)">
<use href="#path58" transform="translate(0 0)"/>
</g>
</g>
<g>
<g data-source-text="ðŸž¨" fill="#20242e" transform="translate(732 262.584) rotate(0) scale(0.047999997)">
<use href="#path59" transform="translate(0 0)"/>
</g>
</g>
<g>
<g data-source-text="ðŸž©" fill="#20242e" transform="translate(804 262.584) rotate(0) scale(0.047999997)">
<use href="#path60" transform="translate(0 0)"/>
</g>
</g>
<g>
<g data-source-text="ðŸžª" fill="#20242e" transform="translate(876 262.584) rotate(0) scale(0.047999997)">
<use href="#path61" transform="translate(0 0)"/>
</g>
</g>
<g>
<g data-source-text="ðŸž«" fill="#20242e" transform="translate(948 262.584) rotate(0) scale(0.047999997)">
<use href="#path62" transform="translate(0 0)"/>
</g>
</g>
<g>
<g data-source-text="ðŸž¬" fill="#20242e" transform="translate(1020 262.584) rotate(0) scale(0.047999997)">
<use href="#path63" transform="translate(0 0)"/>
</g>
</g>
<g>
<g data-source-text="ðŸž­" fill="#20242e" transform="translate(1092 262.584) rotate(0) scale(0.047999997)">
<use href="#path64" transform="translate(0 0)"/>
</g>
</g>
<g>
<g data-source-text="ðŸž®" fill="#20242e" transform="translate(1164 262.584) rotate(0) scale(0.047999997)">
<use href="#path65" transform="translate(0 0)"/>
</g>
</g>
<g>
<g data-source-text="ðŸž¯" fill="#20242e" transform="translate(1236 262.584) rotate(0) scale(0.047999997)">
<use href="#path66" transform="translate(0 0)"/>
</g>
</g>
<g>
<g data-source-text="U+1F7B0" fill="#20242e" transform="translate(30 329.292) rotate(0) scale(0.023999998)">
<use href="#path17" transform="translate(0 0)"/>
<use href="#path18" transform="translate(500 0)"/>
<use href="#path2" transform="translate(1000 0)"/>
<use href="#path16" transform="translate(1500 0)"/>
<use href="#path8" transform="translate(2000 0)"/>
<use href="#path12" transform="translate(2500 0)"/>
<use href="#path1" transform="translate(3000 0)"/>
</g>
</g>
<g>
<g data-source-text="ðŸž°" fill="#20242e" transform="translate(156 334.584) rotate(0) scale(0.047999997)">
<use href="#path67" transform="translate(0 0)"/>
</g>
</g>
<g>
<g data-source-text="ðŸž±" fill="#20242e" transform="translate(228 334.584) rotate(0) scale(0.047999997)">
<use href="#path68" transform="translate(0 0)"/>
</g>
</g>
<g>
<g data-source-text="ðŸž²" fill="#20242e" transform="translate(300 334.584) rotate(0) scale(0.047999997)">
<use href="#path69" transform="translate(0 0)"/>
</g>
</g>
<g>
<g data-source-text="ðŸž³" fill="#20242e" transform="translate(372 334.584) rotate(0) scale(0.047999997)">
<use href="#path70" transform="translate(0 0)"/>
</g>
</g>
<g>
<g data-source-text="ðŸž´" fill="#20242e" transform="translate(444 334.584) rotate(0) scale(0.047999997)">
<use href="#path71" transform="translate(0 0)"/>
</g>
</g>
<g>
<g data-source-text="ðŸžµ" fill="#20242e" transform="translate(516 334.584) rotate(0) scale(0.047999997)">
<use href="#path72" transform="translate(0 0)"/>
</g>
</g>
<g>
<g data-source-text="ðŸž¶" fill="#20242e" transform="translate(588 334.584) rotate(0) scale(0.047999997)">
<use href="#path73" transform="translate(0 0)"/>
</g>
</g>
<g>
<g data-source-text="ðŸž·" fill="#20242e" transform="translate(660 334.584) rotate(0) scale(0.047999997)">
<use href="#path74" transform="translate(0 0)"/>
</g>
</g>
<g>
<g data-source-text="ðŸž¸" fill="#20242e" transform="translate(732 334.584) rotate(0) scale(0.047999997)">
<use href="#path75" transform="translate(0 0)"/>
</g>
</g>
<g>
<g data-source-text="ðŸž¹" fill="#20242e" transform="translate(804 334.584) rotate(0) scale(0.047999997)">
<use href="#path76" transform="translate(0 0)"/>
</g>
</g>
<g>
<g data-source-text="ðŸžº" fill="#20242e" transform="translate(876 334.584) rotate(0) scale(0.047999997)">
<use href="#path77" transform="translate(0 0)"/>
</g>
</g>
<g>
<g data-source-text="ðŸž»" fill="#20242e" transform="translate(948 334.584) rotate(0) scale(0.047999997)">
<use href="#path78" transform="translate(0 0)"/>
</g>
</g>
<g>
<g data-source-text="ðŸž¼" fill="#20242e" transform="translate(1020 334.584) rotate(0) scale(0.047999997)">
<use href="#path79" transform="translate(0 0)"/>
</g>
</g>
<g>
<g data-source-text="ðŸž½" fill="#20242e" transform="translate(1092 334.584) rotate(0) scale(0.047999997)">
<use href="#path80" transform="translate(0 0)"/>
</g>
</g>
<g>
<g data-source-text="ðŸž¾" fill="#20242e" transform="translate(1164 334.584) rotate(0) scale(0.047999997)">
<use href="#path81" transform="translate(0 0)"/>
</g>
</g>
<g>
<g data-source-text="ðŸž¿" fill="#20242e" transform="translate(1236 334.584) rotate(0) scale(0.047999997)">
<use href="#path82" transform="translate(0 0)"/>
</g>
</g>
<g>
<g data-source-text="U+1F7C0" fill="#20242e" transform="translate(30 401.292) rotate(0) scale(0.023999998)">
<use href="#path17" transform="translate(0 0)"/>
<use href="#path18" transform="translate(500 0)"/>
<use href="#path2" transform="translate(1000 0)"/>
<use href="#path16" transform="translate(1500 0)"/>
<use href="#path8" transform="translate(2000 0)"/>
<use href="#path13" transform="translate(2500 0)"/>
<use href="#path1" transform="translate(3000 0)"/>
</g>
</g>
<g>
<g data-source-text="ï€" fill="#20242e40" transform="translate(168 406.584) rotate(0) scale(0.047999997)">
<use href="#path83" transform="translate(0 0)"/>
</g>
</g>
<g>
<g data-source-text="ï€" fill="#20242e40" transform="translate(240 406.584) rotate(0) scale(0.047999997)">
<use href="#path83" transform="translate(0 0)"/>
</g>
</g>
<g>
<g data-source-text="ï€" fill="#20242e40" transform="translate(312 406.584) rotate(0) scale(0.047999997)">
<use href="#path83" transform="translate(0 0)"/>
</g>
</g>
<g>
<g data-source-text="ï€" fill="#20242e40" transform="translate(384 406.584) rotate(0) scale(0.047999997)">
<use href="#path83" transform="translate(0 0)"/>
</g>
</g>
<g>
<g data-source-text="ï€" fill="#20242e40" transform="translate(456 406.584) rotate(0) scale(0.047999997)">
<use href="#path83" transform="translate(0 0)"/>
</g>
</g>
<g>
<g data-source-text="ï€" fill="#20242e40" transform="translate(528 406.584) rotate(0) scale(0.047999997)">
<use href="#path83" transform="translate(0 0)"/>
</g>
</g>
<g>
<g data-source-text="ï€" fill="#20242e40" transform="translate(600 406.584) rotate(0) scale(0.047999997)">
<use href="#path83" transform="translate(0 0)"/>
</g>
</g>
<g>
<g data-source-text="ï€" fill="#20242e40" transform="translate(672 406.584) rotate(0) scale(0.047999997)">
<use href="#path83" transform="translate(0 0)"/>
</g>
</g>
<g>
<g data-source-text="ï€" fill="#20242e40" transform="translate(744 406.584) rotate(0) scale(0.047999997)">
<use href="#path83" transform="translate(0 0)"/>
</g>
</g>
<g>
<g data-source-text="ï€" fill="#20242e40" transform="translate(816 406.584) rotate(0) scale(0.047999997)">
<use href="#path83" transform="translate(0 0)"/>
</g>
</g>
<g>
<g data-source-text="ï€" fill="#20242e40" transform="translate(888 406.584) rotate(0) scale(0.047999997)">
<use href="#path83" transform="translate(0 0)"/>
</g>
</g>
<g>
<g data-source-text="ï€" fill="#20242e40" transform="translate(960 406.584) rotate(0) scale(0.047999997)">
<use href="#path83" transform="translate(0 0)"/>
</g>
</g>
<g>
<g data-source-text="ï€" fill="#20242e40" transform="translate(1032 406.584) rotate(0) scale(0.047999997)">
<use href="#path83" transform="translate(0 0)"/>
</g>
</g>
<g>
<g data-source-text="ï€" fill="#20242e40" transform="translate(1104 406.584) rotate(0) scale(0.047999997)">
<use href="#path83" transform="translate(0 0)"/>
</g>
</g>
<g>
<g data-source-text="ï€" fill="#20242e40" transform="translate(1176 406.584) rotate(0) scale(0.047999997)">
<use href="#path83" transform="translate(0 0)"/>
</g>
</g>
<g>
<g data-source-text="ï€" fill="#20242e40" transform="translate(1248 406.584) rotate(0) scale(0.047999997)">
<use href="#path83" transform="translate(0 0)"/>
</g>
</g>
<g>
<g data-source-text="U+1F7D0" fill="#20242e" transform="translate(30 473.292) rotate(0) scale(0.023999998)">
<use href="#path17" transform="translate(0 0)"/>
<use href="#path18" transform="translate(500 0)"/>
<use href="#path2" transform="translate(1000 0)"/>
<use href="#path16" transform="translate(1500 0)"/>
<use href="#path8" transform="translate(2000 0)"/>
<use href="#path14" transform="translate(2500 0)"/>
<use href="#path1" transform="translate(3000 0)"/>
</g>
</g>
<g>
<g data-source-text="ï€" fill="#20242e40" transform="translate(168 478.584) rotate(0) scale(0.047999997)">
<use href="#path83" transform="translate(0 0)"/>
</g>
</g>
<g>
<g data-source-text="ï€" fill="#20242e40" transform="translate(240 478.584) rotate(0) scale(0.047999997)">
<use href="#path83" transform="translate(0 0)"/>
</g>
</g>
<g>
<g data-source-text="ï€" fill="#20242e40" transform="translate(312 478.584) rotate(0) scale(0.047999997)">
<use href="#path83" transform="translate(0 0)"/>
</g>
</g>
<g>
<g data-source-text="ï€" fill="#20242e40" transform="translate(384 478.584) rotate(0) scale(0.047999997)">
<use href="#path83" transform="translate(0 0)"/>
</g>
</g>
<g>
<g data-source-text="ï€" fill="#20242e40" transform="translate(456 478.584) rotate(0) scale(0.047999997)">
<use href="#path83" transform="translate(0 0)"/>
</g>
</g>
<g>
<g data-source-text="ï€" fill="#20242e40" transform="translate(528 478.584) rotate(0) scale(0.047999997)">
<use href="#path83" transform="translate(0 0)"/>
</g>
</g>
<g>
<g data-source-text="ï€" fill="#20242e40" transform="translate(600 478.584) rotate(0) scale(0.047999997)">
<use href="#path83" transform="translate(0 0)"/>
</g>
</g>
<g>
<g data-source-text="ï€" fill="#20242e40" transform="translate(672 478.584) rotate(0) scale(0.047999997)">
<use href="#path83" transform="translate(0 0)"/>
</g>
</g>
<g>
<g data-source-text="ï€" fill="#20242e40" transform="translate(744 478.584) rotate(0) scale(0.047999997)">
<use href="#path83" transform="translate(0 0)"/>
</g>
</g>
<g>
<g data-source-text="ï€" fill="#20242e40" transform="translate(816 478.584) rotate(0) scale(0.047999997)">
<use href="#path83" transform="translate(0 0)"/>
</g>
</g>
<g>
<g data-source-text="ï€" fill="#20242e40" transform="translate(888 478.584) rotate(0) scale(0.047999997)">
<use href="#path83" transform="translate(0 0)"/>
</g>
</g>
<g>
<g data-source-text="ï€" fill="#20242e40" transform="translate(960 478.584) rotate(0) scale(0.047999997)">
<use href="#path83" transform="translate(0 0)"/>
</g>
</g>
<g>
<g data-source-text="ï€" fill="#20242e40" transform="translate(1032 478.584) rotate(0) scale(0.047999997)">
<use href="#path83" transform="translate(0 0)"/>
</g>
</g>
<g>
<g data-source-text="ï€" fill="#20242e40" transform="translate(1104 478.584) rotate(0) scale(0.047999997)">
<use href="#path83" transform="translate(0 0)"/>
</g>
</g>
<g>
<g data-source-text="ï€" fill="#20242e40" transform="translate(1176 478.584) rotate(0) scale(0.047999997)">
<use href="#path83" transform="translate(0 0)"/>
</g>
</g>
<g>
<g data-source-text="ï€" fill="#20242e40" transform="translate(1248 478.584) rotate(0) scale(0.047999997)">
<use href="#path83" transform="translate(0 0)"/>
</g>
</g>
<g>
<g data-source-text="U+1F7E0" fill="#20242e" transform="translate(30 545.292) rotate(0) scale(0.023999998)">
<use href="#path17" transform="translate(0 0)"/>
<use href="#path18" transform="translate(500 0)"/>
<use href="#path2" transform="translate(1000 0)"/>
<use href="#path16" transform="translate(1500 0)"/>
<use href="#path8" transform="translate(2000 0)"/>
<use href="#path15" transform="translate(2500 0)"/>
<use href="#path1" transform="translate(3000 0)"/>
</g>
</g>
<g>
<g data-source-text="ï€" fill="#20242e40" transform="translate(168 550.584) rotate(0) scale(0.047999997)">
<use href="#path83" transform="translate(0 0)"/>
</g>
</g>
<g>
<g data-source-text="ï€" fill="#20242e40" transform="translate(240 550.584) rotate(0) scale(0.047999997)">
<use href="#path83" transform="translate(0 0)"/>
</g>
</g>
<g>
<g data-source-text="ï€" fill="#20242e40" transform="translate(312 550.584) rotate(0) scale(0.047999997)">
<use href="#path83" transform="translate(0 0)"/>
</g>
</g>
<g>
<g data-source-text="ï€" fill="#20242e40" transform="translate(384 550.584) rotate(0) scale(0.047999997)">
<use href="#path83" transform="translate(0 0)"/>
</g>
</g>
<g>
<g data-source-text="ï€" fill="#20242e40" transform="translate(456 550.584) rotate(0) scale(0.047999997)">
<use href="#path83" transform="translate(0 0)"/>
</g>
</g>
<g>
<g data-source-text="ï€" fill="#20242e40" transform="translate(528 550.584) rotate(0) scale(0.047999997)">
<use href="#path83" transform="translate(0 0)"/>
</g>
</g>
<g>
<g data-source-text="ï€" fill="#20242e40" transform="translate(600 550.584) rotate(0) scale(0.047999997)">
<use href="#path83" transform="translate(0 0)"/>
</g>
</g>
<g>
<g data-source-text="ï€" fill="#20242e40" transform="translate(672 550.584) rotate(0) scale(0.047999997)">
<use href="#path83" transform="translate(0 0)"/>
</g>
</g>
<g>
<g data-source-text="ï€" fill="#20242e40" transform="translate(744 550.584) rotate(0) scale(0.047999997)">
<use href="#path83" transform="translate(0 0)"/>
</g>
</g>
<g>
<g data-source-text="ï€" fill="#20242e40" transform="translate(816 550.584) rotate(0) scale(0.047999997)">
<use href="#path83" transform="translate(0 0)"/>
</g>
</g>
<g>
<g data-source-text="ï€" fill="#20242e40" transform="translate(888 550.584) rotate(0) scale(0.047999997)">
<use href="#path83" transform="translate(0 0)"/>
</g>
</g>
<g>
<g data-source-text="ï€" fill="#20242e40" transform="translate(960 550.584) rotate(0) scale(0.047999997)">
<use href="#path83" transform="translate(0 0)"/>
</g>
</g>
<g>
<g data-source-text="ï€" fill="#20242e40" transform="translate(1032 550.584) rotate(0) scale(0.047999997)">
<use href="#path83" transform="translate(0 0)"/>
</g>
</g>
<g>
<g data-source-text="ï€" fill="#20242e40" transform="translate(1104 550.584) rotate(0) scale(0.047999997)">
<use href="#path83" transform="translate(0 0)"/>
</g>
</g>
<g>
<g data-source-text="ï€" fill="#20242e40" transform="translate(1176 550.584) rotate(0) scale(0.047999997)">
<use href="#path83" transform="translate(0 0)"/>
</g>
</g>
<g>
<g data-source-text="ï€" fill="#20242e40" transform="translate(1248 550.584) rotate(0) scale(0.047999997)">
<use href="#path83" transform="translate(0 0)"/>
</g>
</g>
<g>
<g data-source-text="U+1F7F0" fill="#20242e" transform="translate(30 617.292) rotate(0) scale(0.023999998)">
<use href="#path17" transform="translate(0 0)"/>
<use href="#path18" transform="translate(500 0)"/>
<use href="#path2" transform="translate(1000 0)"/>
<use href="#path16" transform="translate(1500 0)"/>
<use href="#path8" transform="translate(2000 0)"/>
<use href="#path16" transform="translate(2500 0)"/>
<use href="#path1" transform="translate(3000 0)"/>
</g>
</g>
<g>
<g data-source-text="ï€" fill="#20242e40" transform="translate(168 622.584) rotate(0) scale(0.047999997)">
<use href="#path83" transform="translate(0 0)"/>
</g>
</g>
<g>
<g data-source-text="ï€" fill="#20242e40" transform="translate(240 622.584) rotate(0) scale(0.047999997)">
<use href="#path83" transform="translate(0 0)"/>
</g>
</g>
<g>
<g data-source-text="ï€" fill="#20242e40" transform="translate(312 622.584) rotate(0) scale(0.047999997)">
<use href="#path83" transform="translate(0 0)"/>
</g>
</g>
<g>
<g data-source-text="ï€" fill="#20242e40" transform="translate(384 622.584) rotate(0) scale(0.047999997)">
<use href="#path83" transform="translate(0 0)"/>
</g>
</g>
<g>
<g data-source-text="ï€" fill="#20242e40" transform="translate(456 622.584) rotate(0) scale(0.047999997)">
<use href="#path83" transform="translate(0 0)"/>
</g>
</g>
<g>
<g data-source-text="ï€" fill="#20242e40" transform="translate(528 622.584) rotate(0) scale(0.047999997)">
<use href="#path83" transform="translate(0 0)"/>
</g>
</g>
<g>
<g data-source-text="ï€" fill="#20242e40" transform="translate(600 622.584) rotate(0) scale(0.047999997)">
<use href="#path83" transform="translate(0 0)"/>
</g>
</g>
<g>
<g data-source-text="ï€" fill="#20242e40" transform="translate(672 622.584) rotate(0) scale(0.047999997)">
<use href="#path83" transform="translate(0 0)"/>
</g>
</g>
<g>
<g data-source-text="ï€" fill="#20242e40" transform="translate(744 622.584) rotate(0) scale(0.047999997)">
<use href="#path83" transform="translate(0 0)"/>
</g>
</g>
<g>
<g data-source-text="ï€" fill="#20242e40" transform="translate(816 622.584) rotate(0) scale(0.047999997)">
<use href="#path83" transform="translate(0 0)"/>
</g>
</g>
<g>
<g data-source-text="ï€" fill="#20242e40" transform="translate(888 622.584) rotate(0) scale(0.047999997)">
<use href="#path83" transform="translate(0 0)"/>
</g>
</g>
<g>
<g data-source-text="ï€" fill="#20242e40" transform="translate(960 622.584) rotate(0) scale(0.047999997)">
<use href="#path83" transform="translate(0 0)"/>
</g>
</g>
<g>
<g data-source-text="ï€" fill="#20242e40" transform="translate(1032 622.584) rotate(0) scale(0.047999997)">
<use href="#path83" transform="translate(0 0)"/>
</g>
</g>
<g>
<g data-source-text="ï€" fill="#20242e40" transform="translate(1104 622.584) rotate(0) scale(0.047999997)">
<use href="#path83" transform="translate(0 0)"/>
</g>
</g>
<g>
<g data-source-text="ï€" fill="#20242e40" transform="translate(1176 622.584) rotate(0) scale(0.047999997)">
<use href="#path83" transform="translate(0 0)"/>
</g>
</g>
<g>
<g data-source-text="ï€" fill="#20242e40" transform="translate(1248 622.584) rotate(0) scale(0.047999997)">
<use href="#path83" transform="translate(0 0)"/>
</g>
</g>
</svg>