<?xml version="1.0" encoding="UTF-8" standalone="no"?>
<svg height="648" viewBox="0 0 1296 648" width="1296" xmlns="http://www.w3.org/2000/svg">
<defs>
<path d="M 250 8 Q 223 8 196 3 Q 169 -2 145 -15 Q 121 -28 102.5 -48.5 Q 84 -69 72.5 -94 Q 61 -119 56.5 -146 Q 52 -173 52 -200 L 52 -535 Q 52 -562 56.5 -589 Q 61 -616 72.5 -641 Q 84 -666 102.5 -686.5 Q 121 -707 145 -720 Q 169 -733 196 -738 Q 223 -743 250 -743 Q 277 -743 304 -738 Q 331 -733 355 -720 Q 379 -707 397.5 -686.5 Q 416 -666 427.5 -641 Q 439 -616 443.5 -589 Q 448 -562 448 -535 L 448 -200 Q 448 -173 443.5 -146 Q 439 -119 427.5 -94 Q 416 -69 397.5 -48.5 Q 379 -28 355 -15 Q 331 -2 304 3 Q 277 8 250 8 Z M 153 -337 L 347 -491 L 347 -535 Q 347 -557 342.5 -578.5 Q 338 -600 325.5 -618 Q 313 -636 292.5 -645.5 Q 272 -655 250 -655 Q 228 -655 207.5 -645.5 Q 187 -636 174.5 -618 Q 162 -600 157.5 -578.5 Q 153 -557 153 -535 Z M 250 -80 Q 272 -80 292.5 -89.5 Q 313 -99 325.5 -117 Q 338 -135 342.5 -156.5 Q 347 -178 347 -200 L 347 -398 L 153 -244 L 153 -200 Q 153 -178 157.5 -156.5 Q 162 -135 174.5 -117 Q 187 -99 207.5 -89.5 Q 228 -80 250 -80 Z " id="path1"/>
<path d="M 230 0 L 230 -631 L 110 -528 L 55 -584 L 230 -735 L 330 -735 L 330 0 Z " id="path2"/>
<path d="M 440 0 L 60 0 L 60 -1 Q 60 -27 61 -53.5 Q 62 -80 66 -106.5 Q 70 -133 77.5 -158.5 Q 85 -184 96.5 -207.5 Q 108 -231 123 -253 Q 138 -275 156 -294.5 Q 174 -314 194 -331 Q 214 -348 235.5 -364 Q 257 -380 277.5 -397 Q 298 -414 313 -435.5 Q 328 -457 335.5 -483 Q 343 -509 343 -535 Q 343 -557 339 -578 Q 335 -599 323.5 -617 Q 312 -635 292 -645 Q 272 -655 251 -655 Q 231 -655 212.5 -647.5 Q 194 -640 182 -625 Q 170 -610 164.5 -591 Q 159 -572 159 -552 L 159 -548 L 58 -548 L 58 -555 Q 58 -581 64 -605.5 Q 70 -630 81.5 -652.5 Q 93 -675 111.5 -693 Q 130 -711 152.5 -722.5 Q 175 -734 200.5 -738.5 Q 226 -743 251 -743 Q 278 -743 304.5 -737.5 Q 331 -732 354.5 -719 Q 378 -706 396 -685.5 Q 414 -665 424.5 -640.5 Q 435 -616 439.5 -589 Q 444 -562 444 -535 Q 444 -501 435 -468 Q 426 -435 407.5 -406 Q 389 -377 364 -353.5 Q 339 -330 312.5 -308.5 Q 286 -287 261 -264 Q 236 -241 216.5 -213 Q 197 -185 184 -153.5 Q 171 -122 166 -88 L 440 -88 Z " id="path3"/>
<path d="M 253 8 Q 227 8 201 4 Q 175 -0 151.5 -11.5 Q 128 -23 108.5 -40.5 Q 89 -58 76 -81 Q 63 -104 56.5 -129.5 Q 50 -155 50 -181 L 50 -187 L 151 -187 L 151 -184 Q 151 -163 157.5 -143 Q 164 -123 178 -108 Q 192 -93 212 -86.5 Q 232 -80 253 -80 Q 275 -80 296 -88.5 Q 317 -97 330.5 -114.5 Q 344 -132 349.5 -154 Q 355 -176 355 -198 Q 355 -217 351 -235.5 Q 347 -254 338.5 -271 Q 330 -288 316.5 -301 Q 303 -314 286 -322 Q 269 -330 250 -332 Q 231 -334 212 -334 L 212 -422 Q 229 -422 246 -424 Q 263 -426 278.5 -433 Q 294 -440 306 -452.5 Q 318 -465 325.5 -480.5 Q 333 -496 336 -513 Q 339 -530 339 -547 Q 339 -566 334.5 -585.5 Q 330 -605 319.5 -621 Q 309 -637 291 -646 Q 273 -655 253 -655 Q 234 -655 216.5 -647 Q 199 -639 187.5 -624 Q 176 -609 171.5 -590 Q 167 -571 167 -553 L 167 -548 L 66 -548 L 66 -556 Q 66 -581 71.5 -605.5 Q 77 -630 88 -652 Q 99 -674 117 -692.5 Q 135 -711 157 -722.5 Q 179 -734 203.5 -738.5 Q 228 -743 253 -743 Q 278 -743 303.5 -738 Q 329 -733 351 -721 Q 373 -709 390 -690 Q 407 -671 418 -648 Q 429 -625 434.5 -600 Q 440 -575 440 -550 Q 440 -524 434 -498.5 Q 428 -473 415.5 -450.5 Q 403 -428 384.5 -409.5 Q 366 -391 343 -379 Q 369 -368 390.5 -348.5 Q 412 -329 427 -304.5 Q 442 -280 449 -252 Q 456 -224 456 -196 Q 456 -168 450 -141.5 Q 444 -115 432 -91 Q 420 -67 401 -47 Q 382 -27 358 -14.5 Q 334 -2 307 3 Q 280 8 253 8 Z " id="path4"/>
<path d="M 282 0 L 282 -188 L 52 -188 L 52 -275 L 276 -735 L 385 -735 L 161 -275 L 282 -275 L 282 -435 L 382 -435 L 382 -275 L 440 -275 L 440 -188 L 382 -188 L 382 0 Z " id="path5"/>
<path d="M 252 8 Q 227 8 202.5 3.5 Q 178 -1 155.5 -12 Q 133 -23 115 -41 Q 97 -59 85 -80.5 Q 73 -102 66.5 -126.5 Q 60 -151 59 -176 L 159 -176 Q 161 -158 167 -139.5 Q 173 -121 185.5 -107 Q 198 -93 216 -86.5 Q 234 -80 252 -80 Q 269 -80 285 -87 Q 301 -94 312 -107 Q 323 -120 330 -135.5 Q 337 -151 340.5 -168 Q 344 -185 345.5 -202 Q 347 -219 347 -236 Q 347 -252 346 -269 Q 345 -286 341 -302 Q 337 -318 331 -334 Q 325 -350 314 -363 Q 303 -376 287.5 -383.5 Q 272 -391 256 -391 Q 240 -391 224.5 -387 Q 209 -383 196 -373.5 Q 183 -364 176 -349.5 Q 169 -335 168 -319 L 68 -319 L 68 -735 L 421 -735 L 421 -647 L 168 -647 L 168 -464 Q 189 -472 211 -475 Q 233 -478 256 -478 Q 285 -478 313.5 -470.5 Q 342 -463 365.5 -445.5 Q 389 -428 405.5 -403 Q 422 -378 431.5 -350.5 Q 441 -323 444.5 -294 Q 448 -265 448 -235 Q 448 -206 444 -176.5 Q 440 -147 430.5 -119 Q 421 -91 404 -66.5 Q 387 -42 363.5 -24.5 Q 340 -7 311 0.5 Q 282 8 252 8 Z " id="path6"/>
<path d="M 250 8 Q 221 8 192.5 1.5 Q 164 -5 140 -21 Q 116 -37 98.5 -60.5 Q 81 -84 70.5 -111 Q 60 -138 56 -166.5 Q 52 -195 52 -224 Q 52 -268 60 -311 Q 68 -354 81.5 -395.5 Q 95 -437 113 -477 Q 131 -517 150 -556 L 238 -735 L 347 -735 L 240 -517 Q 228 -493 216.5 -468.5 Q 205 -444 195 -419 Q 214 -438 239 -447 Q 264 -456 291 -456 Q 317 -456 342.5 -447 Q 368 -438 386.5 -419.5 Q 405 -401 417 -377.5 Q 429 -354 436 -328.5 Q 443 -303 445.5 -276.5 Q 448 -250 448 -224 Q 448 -195 444 -166.5 Q 440 -138 429.5 -111 Q 419 -84 401.5 -60.5 Q 384 -37 360 -21 Q 336 -5 307.5 1.5 Q 279 8 250 8 Z M 250 -80 Q 266 -80 282 -85.5 Q 298 -91 309.5 -102.5 Q 321 -114 328.5 -129 Q 336 -144 340 -159.5 Q 344 -175 345.5 -191.5 Q 347 -208 347 -224 Q 347 -240 345.5 -256.5 Q 344 -273 340 -289 Q 336 -305 328.5 -319.5 Q 321 -334 309.5 -345.5 Q 298 -357 282 -362.5 Q 266 -368 250 -368 Q 235 -368 221 -363.5 Q 207 -359 195.5 -349.5 Q 184 -340 176.5 -327.5 Q 169 -315 164 -301 Q 159 -287 156.5 -272.5 Q 154 -258 153 -243 L 153 -224 Q 153 -208 154.5 -191.5 Q 156 -175 160 -159.5 Q 164 -144 171.5 -129 Q 179 -114 190.5 -102.5 Q 202 -91 218 -85.5 Q 234 -80 250 -80 Z " id="path7"/>
<path d="M 242 0 L 138 0 L 336 -647 L 60 -647 L 60 -735 L 440 -735 L 440 -647 Z " id="path8"/>
<path d="M 250 8 Q 225 8 200 4 Q 175 -0 152 -10 Q 129 -20 109.5 -37 Q 90 -54 77.5 -75.5 Q 65 -97 58.5 -121.5 Q 52 -146 52 -172 Q 52 -203 62 -232.5 Q 72 -262 88.5 -288 Q 105 -314 127 -336 Q 149 -358 174 -378 Q 152 -396 132.5 -417 Q 113 -438 98.5 -462.5 Q 84 -487 76 -514.5 Q 68 -542 68 -570 Q 68 -594 73.5 -617 Q 79 -640 90.5 -661 Q 102 -682 119.5 -698.5 Q 137 -715 158 -725 Q 179 -735 202.5 -739 Q 226 -743 250 -743 Q 274 -743 297.5 -739 Q 321 -735 342 -725 Q 363 -715 380.5 -698.5 Q 398 -682 409.5 -661 Q 421 -640 426.5 -617 Q 432 -594 432 -570 Q 432 -542 424 -514.5 Q 416 -487 401.5 -462.5 Q 387 -438 367.5 -417 Q 348 -396 326 -378 Q 351 -358 373 -336 Q 395 -314 411.5 -288 Q 428 -262 438 -232.5 Q 448 -203 448 -172 Q 448 -146 441.5 -121.5 Q 435 -97 422.5 -75.5 Q 410 -54 390.5 -37 Q 371 -20 348 -10 Q 325 -0 300 4 Q 275 8 250 8 Z M 250 -435 Q 266 -447 280.5 -461.5 Q 295 -476 306.5 -493 Q 318 -510 325 -529.5 Q 332 -549 332 -569 Q 332 -586 326.5 -602.5 Q 321 -619 310 -631.5 Q 299 -644 283 -649.5 Q 267 -655 250 -655 Q 233 -655 217 -649.5 Q 201 -644 190 -631.5 Q 179 -619 173.5 -602.5 Q 168 -586 168 -569 Q 168 -549 175 -529.5 Q 182 -510 193.5 -493 Q 205 -476 219.5 -461.5 Q 234 -447 250 -435 Z M 250 -80 Q 269 -80 287.5 -85.5 Q 306 -91 320 -104 Q 334 -117 340.5 -135.5 Q 347 -154 347 -173 Q 347 -196 338.5 -217.5 Q 330 -239 316.5 -257.5 Q 303 -276 285.5 -291 Q 268 -306 250 -320 Q 232 -306 214.5 -291 Q 197 -276 183.5 -257.5 Q 170 -239 161.5 -217.5 Q 153 -196 153 -173 Q 153 -154 159.5 -135.5 Q 166 -117 180 -104 Q 194 -91 212.5 -85.5 Q 231 -80 250 -80 Z " id="path9"/>
<path d="M 262 0 L 153 0 L 260 -218 Q 272 -242 283.5 -266.5 Q 295 -291 305 -316 Q 286 -297 261 -288 Q 236 -279 209 -279 Q 183 -279 157.5 -288 Q 132 -297 113.5 -315.5 Q 95 -334 83 -357.5 Q 71 -381 64 -406.5 Q 57 -432 54.5 -458.5 Q 52 -485 52 -511 Q 52 -540 56 -568.5 Q 60 -597 70.5 -624 Q 81 -651 98.5 -674.5 Q 116 -698 140 -714 Q 164 -730 192.5 -736.5 Q 221 -743 250 -743 Q 279 -743 307.5 -736.5 Q 336 -730 360 -714 Q 384 -698 401.5 -674.5 Q 419 -651 429.5 -624 Q 440 -597 444 -568.5 Q 448 -540 448 -511 Q 448 -467 440 -424 Q 432 -381 418.5 -339.5 Q 405 -298 387 -258 Q 369 -218 350 -179 Z M 250 -367 Q 265 -367 279 -371.5 Q 293 -376 304.5 -385.5 Q 316 -395 323.5 -407.5 Q 331 -420 336 -434 Q 341 -448 343.5 -462.5 Q 346 -477 347 -492 L 347 -511 Q 347 -527 345.5 -543.5 Q 344 -560 340 -575.5 Q 336 -591 328.5 -606 Q 321 -621 309.5 -632.5 Q 298 -644 282 -649.5 Q 266 -655 250 -655 Q 234 -655 218 -649.5 Q 202 -644 190.5 -632.5 Q 179 -621 171.5 -606 Q 164 -591 160 -575.5 Q 156 -560 154.5 -543.5 Q 153 -527 153 -511 Q 153 -495 154.5 -478.5 Q 156 -462 160 -446 Q 164 -430 171.5 -415.5 Q 179 -401 190.5 -389.5 Q 202 -378 218 -372.5 Q 234 -367 250 -367 Z " id="path10"/>
<path d="M 39 0 L 192 -735 L 308 -735 L 461 0 L 358 0 L 326 -172 L 174 -172 L 142 0 Z M 309 -260 L 265 -490 Q 262 -511 258 -531.5 Q 254 -552 250 -572 Q 246 -552 242 -531.5 Q 238 -511 235 -490 L 191 -260 Z " id="path11"/>
<path d="M 60 0 L 60 -735 L 234 -735 Q 261 -735 287 -730.5 Q 313 -726 336 -714 Q 359 -702 377.5 -682.5 Q 396 -663 408 -639.5 Q 420 -616 424.5 -590 Q 429 -564 429 -538 Q 429 -515 425 -492 Q 421 -469 410.5 -448.5 Q 400 -428 383.5 -411 Q 367 -394 347 -383 Q 372 -373 393.5 -355.5 Q 415 -338 429.5 -314.5 Q 444 -291 450 -264 Q 456 -237 456 -210 Q 456 -181 450 -152.5 Q 444 -124 430 -98.5 Q 416 -73 394.5 -53.5 Q 373 -34 347 -21.5 Q 321 -9 292 -4.5 Q 263 -0 234 0 Z M 161 -424 L 234 -424 Q 255 -424 274.5 -432.5 Q 294 -441 306.5 -457.5 Q 319 -474 324 -494.5 Q 329 -515 329 -536 Q 329 -557 324 -577.5 Q 319 -598 306.5 -614.5 Q 294 -631 274.5 -639 Q 255 -647 234 -647 L 161 -647 Z M 161 -88 L 234 -88 Q 251 -88 267 -91 Q 283 -94 297.5 -101.5 Q 312 -109 323.5 -121 Q 335 -133 342.5 -148 Q 350 -163 352.5 -179 Q 355 -195 355 -212 Q 355 -228 352.5 -244.5 Q 350 -261 343 -276 Q 336 -291 324.5 -303 Q 313 -315 298 -322.5 Q 283 -330 267 -333 Q 251 -336 234 -336 L 161 -336 Z " id="path12"/>
<path d="M 247 8 Q 220 8 193 2.5 Q 166 -3 142.5 -16 Q 119 -29 101 -49.5 Q 83 -70 72 -94.5 Q 61 -119 56.5 -146 Q 52 -173 52 -200 L 52 -535 Q 52 -562 56.5 -589 Q 61 -616 72 -640.5 Q 83 -665 101 -685.5 Q 119 -706 142.5 -719 Q 166 -732 193 -737.5 Q 220 -743 247 -743 Q 273 -743 298 -738.5 Q 323 -734 346 -723 Q 369 -712 387.5 -694 Q 406 -676 418 -653.5 Q 430 -631 436 -606 Q 442 -581 442 -555 L 442 -548 L 341 -548 L 341 -552 Q 341 -572 335.5 -591.5 Q 330 -611 317.5 -626 Q 305 -641 286 -648 Q 267 -655 247 -655 Q 225 -655 205 -645.5 Q 185 -636 173 -618 Q 161 -600 157 -578.5 Q 153 -557 153 -535 L 153 -200 Q 153 -178 157 -156.5 Q 161 -135 173 -117 Q 185 -99 205 -89.5 Q 225 -80 247 -80 Q 267 -80 286 -87 Q 305 -94 317.5 -109 Q 330 -124 335.5 -143.5 Q 341 -163 341 -183 L 341 -187 L 442 -187 L 442 -180 Q 442 -154 436 -129 Q 430 -104 418 -81.5 Q 406 -59 387.5 -41 Q 369 -23 346 -12 Q 323 -1 298 3.5 Q 273 8 247 8 Z " id="path13"/>
<path d="M 60 0 L 60 -735 L 219 -735 Q 249 -735 279 -730 Q 309 -725 336.5 -712 Q 364 -699 386 -678.5 Q 408 -658 422 -631.5 Q 436 -605 442 -575 Q 448 -545 448 -515 L 448 -220 Q 448 -190 442 -160 Q 436 -130 422 -103.5 Q 408 -77 386 -56.5 Q 364 -36 336.5 -23 Q 309 -10 279 -5 Q 249 -0 219 0 Z M 161 -88 L 219 -88 Q 237 -88 254 -91 Q 271 -94 286.5 -102.5 Q 302 -111 314 -124 Q 326 -137 333.5 -152.5 Q 341 -168 344 -185.5 Q 347 -203 347 -220 L 347 -515 Q 347 -532 344 -549.5 Q 341 -567 333.5 -582.5 Q 326 -598 314 -611 Q 302 -624 286.5 -632.5 Q 271 -641 254 -644 Q 237 -647 219 -647 L 161 -647 Z " id="path14"/>
<path d="M 68 0 L 68 -735 L 440 -735 L 440 -647 L 169 -647 L 169 -426 L 383 -426 L 383 -338 L 169 -338 L 169 -88 L 440 -88 L 440 0 Z " id="path15"/>
<path d="M 91 0 L 91 -735 L 440 -735 L 440 -647 L 191 -647 L 191 -426 L 383 -426 L 383 -338 L 191 -338 L 191 0 Z " id="path16"/>
<path d="M 250 8 Q 223 8 196.5 2.5 Q 170 -3 147 -16.5 Q 124 -30 106.5 -50.5 Q 89 -71 78.5 -95.5 Q 68 -120 64 -146.5 Q 60 -173 60 -200 L 60 -735 L 161 -735 L 161 -200 Q 161 -186 162.5 -172 Q 164 -158 168 -144.5 Q 172 -131 179.5 -118.5 Q 187 -106 197.5 -97 Q 208 -88 222 -84 Q 236 -80 250 -80 Q 264 -80 278 -84 Q 292 -88 302.5 -97 Q 313 -106 320.5 -118.5 Q 328 -131 332 -144.5 Q 336 -158 337.5 -172 Q 339 -186 339 -200 L 339 -735 L 440 -735 L 440 -200 Q 440 -173 436 -146.5 Q 432 -120 421.5 -95.5 Q 411 -71 393.5 -50.5 Q 376 -30 353 -16.5 Q 330 -3 303.5 2.5 Q 277 8 250 8 Z " id="path17"/>
<path d="M 300 -143 L 200 -143 L 200 -296 L 60 -296 L 60 -384 L 200 -384 L 200 -537 L 300 -537 L 300 -384 L 440 -384 L 440 -296 L 300 -296 Z " id="path18"/>
<path d="M 350 143 L 350 -823 L 413 -823 L 413 143 Z M 218 143 L 218 -823 L 282 -823 L 282 143 Z M 87 143 L 87 -823 L 150 -823 L 150 143 Z " id="path19"/>
<path d="M 500 -122 Q 471 -122 443.5 -129.5 Q 416 -137 391 -151 Q 366 -165 345.5 -185.5 Q 325 -206 311 -231 Q 297 -256 289.5 -283.5 Q 282 -311 282 -340 Q 282 -369 289.5 -396.5 Q 297 -424 311 -449 Q 325 -474 345.5 -494.5 Q 366 -515 391 -529 Q 416 -543 443.5 -550.5 Q 471 -558 500 -558 Q 529 -558 556.5 -550.5 Q 584 -543 609 -529 Q 634 -515 654.5 -494.5 Q 675 -474 689 -449 Q 703 -424 710.5 -396.5 Q 718 -369 718 -340 Q 718 -311 710.5 -283.5 Q 703 -256 689 -231 Q 675 -206 654.5 -185.5 Q 634 -165 609 -151 Q 584 -137 556.5 -129.5 Q 529 -122 500 -122 Z " id="path20"/>
<path d="M 250 -348 Q 229 -348 209 -354 Q 189 -360 174.5 -374.5 Q 160 -389 154 -409 Q 148 -429 148 -450 Q 148 -471 154 -491 Q 160 -511 174.5 -525.5 Q 189 -540 209 -546 Q 229 -552 250 -552 Q 271 -552 291 -546 Q 311 -540 325.5 -525.5 Q 340 -511 346 -491 Q 352 -471 352 -450 Q 352 -429 346 -409 Q 340 -389 325.5 -374.5 Q 311 -360 291 -354 Q 271 -348 250 -348 Z M 250 -396 Q 260 -396 270 -400 Q 280 -404 286.5 -411.5 Q 293 -419 295.5 -429.5 Q 298 -440 298 -450 Q 298 -460 295.5 -470.5 Q 293 -481 286.5 -488.5 Q 280 -496 270 -500 Q 260 -504 250 -504 Q 240 -504 230 -500 Q 220 -496 213.5 -488.5 Q 207 -481 204.5 -470.5 Q 202 -460 202 -450 Q 202 -440 204.5 -429.5 Q 207 -419 213.5 -411.5 Q 220 -404 230 -400 Q 240 -396 250 -396 Z M 250 32 Q 229 32 209 26 Q 189 20 174.5 5.5 Q 160 -9 154 -29 Q 148 -49 148 -70 Q 148 -91 154 -111 Q 160 -131 174.5 -145.5 Q 189 -160 209 -166 Q 229 -172 250 -172 Q 271 -172 291 -166 Q 311 -160 325.5 -145.5 Q 340 -131 346 -111 Q 352 -91 352 -70 Q 352 -49 346 -29 Q 340 -9 325.5 5.5 Q 311 20 291 26 Q 271 32 250 32 Z M 250 -16 Q 260 -16 270 -20 Q 280 -24 286.5 -31.5 Q 293 -39 295.5 -49.5 Q 298 -60 298 -70 Q 298 -80 295.5 -90.5 Q 293 -101 286.5 -108.5 Q 280 -116 270 -120 Q 260 -124 250 -124 Q 240 -124 230 -120 Q 220 -116 213.5 -108.5 Q 207 -101 204.5 -90.5 Q 202 -80 202 -70 Q 202 -60 204.5 -49.5 Q 207 -39 213.5 -31.5 Q 220 -24 230 -20 Q 240 -16 250 -16 Z " id="path21"/>
<path d="M 399 153 Q 372 153 345.5 149.5 Q 319 146 294 137 Q 269 128 246.5 113 Q 224 98 207.5 77 Q 191 56 183 30 Q 175 4 175 -22 Q 175 -45 180.5 -67 Q 186 -89 195.5 -110 Q 205 -131 214 -152 Q 223 -173 223 -195 Q 223 -213 218.5 -229.5 Q 214 -246 204 -260 Q 194 -274 180 -284 Q 166 -294 150 -299.5 Q 134 -305 117 -307.5 Q 100 -310 83 -310 L 83 -370 Q 100 -370 117 -372.5 Q 134 -375 150 -380.5 Q 166 -386 180 -396 Q 194 -406 204 -420 Q 214 -434 218.5 -450.5 Q 223 -467 223 -485 Q 223 -507 214 -528 Q 205 -549 195.5 -570 Q 186 -591 180.5 -613 Q 175 -635 175 -658 Q 175 -684 183 -710 Q 191 -736 207.5 -757 Q 224 -778 246.5 -793 Q 269 -808 294 -817 Q 319 -826 345.5 -829.5 Q 372 -833 399 -833 Z M 331 83 L 331 -763 Q 314 -758 297.5 -749 Q 281 -740 268 -726 Q 255 -712 249 -694 Q 243 -676 243 -658 Q 243 -635 252 -614 Q 261 -593 270 -572 Q 279 -551 284.5 -529 Q 290 -507 290 -485 Q 290 -461 284 -437 Q 278 -413 263.5 -394 Q 249 -375 228.5 -361.5 Q 208 -348 186 -340 Q 208 -332 228.5 -318.5 Q 249 -305 263.5 -286 Q 278 -267 284 -243 Q 290 -219 290 -195 Q 290 -173 284.5 -151 Q 279 -129 270 -108 Q 261 -87 252 -66 Q 243 -45 243 -22 Q 243 -4 249 14 Q 255 32 268 46 Q 281 60 297.5 69 Q 314 78 331 83 Z " id="path22"/>
<path d="M 115 153 L 101 153 L 101 -833 Q 116 -833 131.5 -832 Q 147 -831 162 -828.5 Q 177 -826 192 -821.5 Q 207 -817 221 -811 Q 235 -805 248 -797 Q 261 -789 272.5 -778.5 Q 284 -768 293.5 -756 Q 303 -744 309.5 -730 Q 316 -716 320.5 -698.5 Q 325 -681 325 -671 L 325 -658 Q 325 -647 324 -636.5 Q 323 -626 320.5 -615.5 Q 318 -605 314.5 -595 Q 311 -585 307 -575.5 Q 303 -566 298.5 -556 Q 294 -546 289.5 -536.5 Q 285 -527 281 -515 Q 277 -503 277 -496 L 277 -485 Q 277 -475 278.5 -465.5 Q 280 -456 283 -446.5 Q 286 -437 291 -428.5 Q 296 -420 302 -412.5 Q 308 -405 316 -399 Q 324 -393 332.5 -388 Q 341 -383 350.5 -380 Q 360 -377 369.5 -375 Q 379 -373 390.5 -371.5 Q 402 -370 409 -370 L 417 -370 L 417 -310 Q 407 -310 397.5 -309 Q 388 -308 378 -306.5 Q 368 -305 358.5 -302.5 Q 349 -300 340.5 -296 Q 332 -292 323.5 -286.5 Q 315 -281 308 -274 Q 301 -267 295.5 -259 Q 290 -251 286 -242 Q 282 -233 279.5 -222 Q 277 -211 277 -204 L 277 -195 Q 277 -181 281 -167.5 Q 285 -154 291 -141 Q 297 -128 302.5 -115 Q 308 -102 313 -88.5 Q 318 -75 321.5 -59 Q 325 -43 325 -34 L 325 -22 Q 325 -7 322.5 8.5 Q 320 24 314.5 38.5 Q 309 53 300.5 65.5 Q 292 78 281.5 89 Q 271 100 258.5 109 Q 246 118 232.5 125 Q 219 132 204.5 137.5 Q 190 143 175 146 Q 160 149 142.5 151 Q 125 153 115 153 Z M 169 83 Q 180 80 190.5 75 Q 201 70 211 63.5 Q 221 57 229 49 Q 237 41 243 31 Q 249 21 253 8 Q 257 -5 257 -13 L 257 -22 Q 257 -34 255 -45 Q 253 -56 248 -66 L 230 -108 Q 227 -114 225 -120 Q 223 -126 221 -132.5 Q 219 -139 217 -145.5 Q 215 -152 213.5 -160 Q 212 -168 211 -174 Q 210 -180 210 -184 L 210 -195 Q 210 -210 212 -225 Q 214 -240 219 -254.5 Q 224 -269 232.5 -281 Q 241 -293 252 -303.5 Q 263 -314 278.5 -323.5 Q 294 -333 303 -336 L 314 -340 Q 300 -345 286.5 -352 Q 273 -359 261 -368.5 Q 249 -378 239.5 -389.5 Q 230 -401 224 -414.5 Q 218 -428 214 -445.5 Q 210 -463 210 -473 L 210 -485 Q 210 -507 215.5 -529 Q 221 -551 230 -572 L 248 -614 Q 253 -625 255 -633 Q 257 -641 257 -647 L 257 -658 Q 257 -669 254.5 -681 Q 252 -693 247.5 -703.5 Q 243 -714 235 -723 Q 227 -732 218 -739 Q 209 -746 197 -752 Q 185 -758 178 -761 L 169 -763 Z " id="path23"/>
<path d="M 64 0 L 64 -735 L 436 -735 L 436 0 Z M 94 -321 L 401 -705 L 308 -705 L 94 -438 Z M 94 -478 L 276 -705 L 182 -705 L 94 -595 Z M 94 -634 L 151 -705 L 94 -705 Z M 94 -165 L 406 -554 L 406 -671 L 94 -282 Z M 94 -30 L 111 -30 L 406 -398 L 406 -515 L 94 -126 Z M 143 -30 L 236 -30 L 406 -242 L 406 -359 Z M 268 -30 L 362 -30 L 406 -85 L 406 -202 Z M 393 -30 L 406 -30 L 406 -46 Z " id="path24"/>
<path d="M 375 161 Q 332 137 294.5 104.5 Q 257 72 227 32.5 Q 197 -7 175.5 -52 Q 154 -97 141 -144.5 Q 128 -192 122.5 -241.5 Q 117 -291 117 -340 Q 117 -389 122.5 -438.5 Q 128 -488 141 -535.5 Q 154 -583 175.5 -628 Q 197 -673 227 -712.5 Q 257 -752 294.5 -784.5 Q 332 -817 375 -841 Z M 308 27 L 308 -707 Q 274 -671 250 -627 Q 226 -583 211.5 -535.5 Q 197 -488 190.5 -439 Q 184 -390 184 -340 Q 184 -290 190.5 -241 Q 197 -192 211.5 -144.5 Q 226 -97 250 -53 Q 274 -9 308 27 Z " id="path25"/>
<path d="M 147 149 L 125 161 L 125 -841 Q 150 -827 173 -810.5 Q 196 -794 217 -774.5 Q 238 -755 256.5 -733.5 Q 275 -712 290.5 -688 Q 306 -664 319 -638.5 Q 332 -613 342 -586.5 Q 352 -560 359.5 -533 Q 367 -506 372 -478 Q 377 -450 380 -416.5 Q 383 -383 383 -365 L 383 -340 Q 383 -312 381 -283.5 Q 379 -255 375.5 -226.5 Q 372 -198 365.5 -170.5 Q 359 -143 350 -116 Q 341 -89 329.5 -63 Q 318 -37 303.5 -12.5 Q 289 12 271.5 34.5 Q 254 57 234.5 77.5 Q 215 98 189 119 Q 163 140 147 149 Z M 192 27 Q 203 16 212.5 4 Q 222 -8 230.5 -21 Q 239 -34 247 -47.5 Q 255 -61 261.5 -75 Q 268 -89 274 -103.5 Q 280 -118 285 -132.5 Q 290 -147 294 -162 Q 298 -177 301 -192 Q 304 -207 306.5 -222.5 Q 309 -238 311.5 -256.5 Q 314 -275 315 -290 Q 316 -305 316 -315 L 316 -340 Q 316 -356 315.5 -371.5 Q 315 -387 313.5 -402 Q 312 -417 310 -432.5 Q 308 -448 305.5 -463.5 Q 303 -479 299.5 -494 Q 296 -509 292 -524 Q 288 -539 283 -553.5 Q 278 -568 272 -582.5 Q 266 -597 259 -611 Q 252 -625 242.5 -641.5 Q 233 -658 224.5 -670 Q 216 -682 209 -689 L 192 -707 Z " id="path26"/>
<path d="M 250 -565 Q 237 -565 224 -569 Q 211 -573 202 -582 Q 193 -591 189 -604 Q 185 -617 185 -630 Q 185 -643 189 -655.5 Q 193 -668 202 -677.5 Q 211 -687 224 -691 Q 237 -695 250 -695 Q 263 -695 276 -691 Q 289 -687 298 -677.5 Q 307 -668 311 -655.5 Q 315 -643 315 -630 Q 315 -617 311 -604 Q 307 -591 298 -582 Q 289 -573 276 -569 Q 263 -565 250 -565 Z M 250 -372 Q 237 -372 224 -376 Q 211 -380 202 -389 Q 193 -398 189 -411 Q 185 -424 185 -437 Q 185 -450 189 -462.5 Q 193 -475 202 -484.5 Q 211 -494 224 -497.5 Q 237 -501 250 -501 Q 263 -501 276 -497.5 Q 289 -494 298 -484.5 Q 307 -475 311 -462.5 Q 315 -450 315 -437 Q 315 -424 311 -411 Q 307 -398 298 -389 Q 289 -380 276 -376 Q 263 -372 250 -372 Z M 250 -179 Q 237 -179 224 -182.5 Q 211 -186 202 -195.5 Q 193 -205 189 -217.5 Q 185 -230 185 -243 Q 185 -256 189 -269 Q 193 -282 202 -291 Q 211 -300 224 -304 Q 237 -308 250 -308 Q 263 -308 276 -304 Q 289 -300 298 -291 Q 307 -282 311 -269 Q 315 -256 315 -243 Q 315 -230 311 -217.5 Q 307 -205 298 -195.5 Q 289 -186 276 -182.5 Q 263 -179 250 -179 Z M 250 15 Q 237 15 224 11 Q 211 7 202 -2.5 Q 193 -12 189 -24.5 Q 185 -37 185 -50 Q 185 -63 189 -76 Q 193 -89 202 -98 Q 211 -107 224 -111 Q 237 -115 250 -115 Q 263 -115 276 -111 Q 289 -107 298 -98 Q 307 -89 311 -76 Q 315 -63 315 -50 Q 315 -37 311 -24.5 Q 307 -12 298 -2.5 Q 289 7 276 11 Q 263 15 250 15 Z " id="path27"/>
<path d="M 43 -133 L 43 -223 L 306 -487 L 43 -487 L 43 -547 L 457 -547 Z " id="path28"/>
<path d="M 43 -133 L 43 -193 L 306 -193 L 65 -434 L 43 -457 L 43 -547 L 457 -133 Z " id="path29"/>
<path d="M 373 50 L 343 -25 Q 324 -9 299.5 -0.5 Q 275 8 250 8 Q 221 8 193 -3.5 Q 165 -15 145 -36 Q 125 -57 111 -83 Q 97 -109 87.5 -136.5 Q 78 -164 72 -193 Q 66 -222 62.5 -251 Q 59 -280 57.5 -309 Q 56 -338 56 -368 Q 56 -402 58 -436.5 Q 60 -471 65 -505 Q 70 -539 79 -572 Q 88 -605 103 -636 L 55 -759 L 127 -785 L 157 -710 Q 176 -726 200.5 -734.5 Q 225 -743 250 -743 Q 279 -743 307 -731.5 Q 335 -720 355 -699 Q 375 -678 389 -652 Q 403 -626 412.5 -598.5 Q 422 -571 428 -542 Q 434 -513 437.5 -484 Q 441 -455 442.5 -426 Q 444 -397 444 -368 Q 444 -333 442 -298.5 Q 440 -264 435 -230 Q 430 -196 421 -163 Q 412 -130 397 -99 L 445 24 Z M 354 -208 Q 361 -247 363.5 -287 Q 366 -327 366 -368 Q 366 -385 365.5 -403 Q 365 -421 364 -438.5 Q 363 -456 361.5 -473.5 Q 360 -491 357 -508.5 Q 354 -526 350.5 -543.5 Q 347 -561 341.5 -577.5 Q 336 -594 328.5 -610.5 Q 321 -627 310.5 -641 Q 300 -655 284 -664 Q 268 -673 250 -673 Q 231 -673 214 -662.5 Q 197 -652 186 -635 Z M 250 -62 Q 269 -62 286 -72.5 Q 303 -83 314 -100 L 146 -527 Q 139 -488 136.5 -448 Q 134 -408 134 -368 Q 134 -350 134.5 -332 Q 135 -314 136 -296.5 Q 137 -279 138.5 -261.5 Q 140 -244 143 -226.5 Q 146 -209 149.5 -191.5 Q 153 -174 158.5 -157.5 Q 164 -141 171.5 -124.5 Q 179 -108 189.5 -94 Q 200 -80 216 -71 Q 232 -62 250 -62 Z " id="path30"/>
<path d="M 127 50 L 55 24 L 103 -99 Q 88 -130 79 -163 Q 70 -196 65 -230 Q 60 -264 58 -298.5 Q 56 -333 56 -368 Q 56 -397 57.5 -426 Q 59 -455 62.5 -484 Q 66 -513 72 -542 Q 78 -571 87.5 -598.5 Q 97 -626 111 -652 Q 125 -678 145 -699 Q 165 -720 193 -731.5 Q 221 -743 250 -743 Q 275 -743 299.5 -734.5 Q 324 -726 343 -710 L 373 -785 L 445 -759 L 397 -636 Q 412 -605 421 -572 Q 430 -539 435 -505 Q 440 -471 442 -436.5 Q 444 -402 444 -368 Q 444 -338 442.5 -309 Q 441 -280 437.5 -251 Q 434 -222 428 -193 Q 422 -164 412.5 -136.5 Q 403 -109 389 -83 Q 375 -57 355 -36 Q 335 -15 307 -3.5 Q 279 8 250 8 Q 225 8 200.5 -0.5 Q 176 -9 157 -25 Z M 146 -208 L 314 -635 Q 303 -652 286 -662.5 Q 269 -673 250 -673 Q 232 -673 216 -664 Q 200 -655 189.5 -641 Q 179 -627 171.5 -610.5 Q 164 -594 158.5 -577.5 Q 153 -561 149.5 -543.5 Q 146 -526 143 -508.5 Q 140 -491 138.5 -473.5 Q 137 -456 136 -438.5 Q 135 -421 134.5 -403 Q 134 -385 134 -368 Q 134 -327 136.5 -287 Q 139 -247 146 -208 Z M 250 -62 Q 268 -62 284 -71 Q 300 -80 310.5 -94 Q 321 -108 328.5 -124.5 Q 336 -141 341.5 -157.5 Q 347 -174 350.5 -191.5 Q 354 -209 357 -226.5 Q 360 -244 361.5 -261.5 Q 363 -279 364 -296.5 Q 365 -314 365.5 -332 Q 366 -350 366 -368 Q 366 -408 363.5 -448 Q 361 -488 354 -527 L 186 -100 Q 197 -83 214 -72.5 Q 231 -62 250 -62 Z M 64 -851 L 64 -919 L 436 -919 L 436 -851 Z " id="path31"/>
<path d="M 127 50 L 55 24 L 103 -99 Q 88 -130 79 -163 Q 70 -196 65 -230 Q 60 -264 58 -298.5 Q 56 -333 56 -368 Q 56 -397 57.5 -426 Q 59 -455 62.5 -484 Q 66 -513 72 -542 Q 78 -571 87.5 -598.5 Q 97 -626 111 -652 Q 125 -678 145 -699 Q 165 -720 193 -731.5 Q 221 -743 250 -743 Q 275 -743 299.5 -734.5 Q 324 -726 343 -710 L 373 -785 L 445 -759 L 397 -636 Q 412 -605 421 -572 Q 430 -539 435 -505 Q 440 -471 442 -436.5 Q 444 -402 444 -368 Q 444 -338 442.5 -309 Q 441 -280 437.5 -251 Q 434 -222 428 -193 Q 422 -164 412.5 -136.5 Q 403 -109 389 -83 Q 375 -57 355 -36 Q 335 -15 307 -3.5 Q 279 8 250 8 Q 225 8 200.5 -0.5 Q 176 -9 157 -25 Z M 146 -208 L 314 -635 Q 303 -652 286 -662.5 Q 269 -673 250 -673 Q 232 -673 216 -664 Q 200 -655 189.5 -641 Q 179 -627 171.5 -610.5 Q 164 -594 158.5 -577.5 Q 153 -561 149.5 -543.5 Q 146 -526 143 -508.5 Q 140 -491 138.5 -473.5 Q 137 -456 136 -438.5 Q 135 -421 134.5 -403 Q 134 -385 134 -368 Q 134 -327 136.5 -287 Q 139 -247 146 -208 Z M 250 -62 Q 268 -62 284 -71 Q 300 -80 310.5 -94 Q 321 -108 328.5 -124.5 Q 336 -141 341.5 -157.5 Q 347 -174 350.5 -191.5 Q 354 -209 357 -226.5 Q 360 -244 361.5 -261.5 Q 363 -279 364 -296.5 Q 365 -314 365.5 -332 Q 366 -350 366 -368 Q 366 -408 363.5 -448 Q 361 -488 354 -527 L 186 -100 Q 197 -83 214 -72.5 Q 231 -62 250 -62 Z M 250 -791 Q 231 -791 212.5 -796.5 Q 194 -802 180.5 -815.5 Q 167 -829 161.5 -847.5 Q 156 -866 156 -885 Q 156 -904 161.5 -922.5 Q 167 -941 180.5 -954.5 Q 194 -968 212.5 -973.5 Q 231 -979 250 -979 Q 269 -979 287.5 -973.5 Q 306 -968 319.5 -954.5 Q 333 -941 338.5 -922.5 Q 344 -904 344 -885 Q 344 -866 338.5 -847.5 Q 333 -829 319.5 -815.5 Q 306 -802 287.5 -796.5 Q 269 -791 250 -791 Z M 250 -846 Q 258 -846 265.5 -848.5 Q 273 -851 278.5 -856.5 Q 284 -862 286.5 -869.5 Q 289 -877 289 -885 Q 289 -893 286.5 -900.5 Q 284 -908 278.5 -913.5 Q 273 -919 265.5 -921.5 Q 258 -924 250 -924 Q 242 -924 234.5 -921.5 Q 227 -919 221.5 -913.5 Q 216 -908 213.5 -900.5 Q 211 -893 211 -885 Q 211 -877 213.5 -869.5 Q 216 -862 221.5 -856.5 Q 227 -851 234.5 -848.5 Q 242 -846 250 -846 Z " id="path32"/>
<path d="M 127 50 L 55 24 L 103 -99 Q 88 -130 79 -163 Q 70 -196 65 -230 Q 60 -264 58 -298.5 Q 56 -333 56 -368 Q 56 -397 57.5 -426 Q 59 -455 62.5 -484 Q 66 -513 72 -542 Q 78 -571 87.5 -598.5 Q 97 -626 111 -652 Q 125 -678 145 -699 Q 165 -720 193 -731.5 Q 221 -743 250 -743 Q 275 -743 299.5 -734.5 Q 324 -726 343 -710 L 373 -785 L 445 -759 L 397 -636 Q 412 -605 421 -572 Q 430 -539 435 -505 Q 440 -471 442 -436.5 Q 444 -402 444 -368 Q 444 -338 442.5 -309 Q 441 -280 437.5 -251 Q 434 -222 428 -193 Q 422 -164 412.5 -136.5 Q 403 -109 389 -83 Q 375 -57 355 -36 Q 335 -15 307 -3.5 Q 279 8 250 8 Q 225 8 200.5 -0.5 Q 176 -9 157 -25 Z M 146 -208 L 314 -635 Q 303 -652 286 -662.5 Q 269 -673 250 -673 Q 232 -673 216 -664 Q 200 -655 189.5 -641 Q 179 -627 171.5 -610.5 Q 164 -594 158.5 -577.5 Q 153 -561 149.5 -543.5 Q 146 -526 143 -508.5 Q 140 -491 138.5 -473.5 Q 137 -456 136 -438.5 Q 135 -421 134.5 -403 Q 134 -385 134 -368 Q 134 -327 136.5 -287 Q 139 -247 146 -208 Z M 250 -62 Q 268 -62 284 -71 Q 300 -80 310.5 -94 Q 321 -108 328.5 -124.5 Q 336 -141 341.5 -157.5 Q 347 -174 350.5 -191.5 Q 354 -209 357 -226.5 Q 360 -244 361.5 -261.5 Q 363 -279 364 -296.5 Q 365 -314 365.5 -332 Q 366 -350 366 -368 Q 366 -408 363.5 -448 Q 361 -488 354 -527 L 186 -100 Q 197 -83 214 -72.5 Q 231 -62 250 -62 Z M 313 -798 L 287 -832 L 337 -864 L 100 -864 L 100 -906 L 337 -906 L 287 -938 L 313 -972 L 429 -885 Z " id="path33"/>
<path d="M 127 50 L 55 24 L 103 -99 Q 88 -130 79 -163 Q 70 -196 65 -230 Q 60 -264 58 -298.5 Q 56 -333 56 -368 Q 56 -397 57.5 -426 Q 59 -455 62.5 -484 Q 66 -513 72 -542 Q 78 -571 87.5 -598.5 Q 97 -626 111 -652 Q 125 -678 145 -699 Q 165 -720 193 -731.5 Q 221 -743 250 -743 Q 275 -743 299.5 -734.5 Q 324 -726 343 -710 L 373 -785 L 445 -759 L 397 -636 Q 412 -605 421 -572 Q 430 -539 435 -505 Q 440 -471 442 -436.5 Q 444 -402 444 -368 Q 444 -338 442.5 -309 Q 441 -280 437.5 -251 Q 434 -222 428 -193 Q 422 -164 412.5 -136.5 Q 403 -109 389 -83 Q 375 -57 355 -36 Q 335 -15 307 -3.5 Q 279 8 250 8 Q 225 8 200.5 -0.5 Q 176 -9 157 -25 Z M 146 -208 L 314 -635 Q 303 -652 286 -662.5 Q 269 -673 250 -673 Q 232 -673 216 -664 Q 200 -655 189.5 -641 Q 179 -627 171.5 -610.5 Q 164 -594 158.5 -577.5 Q 153 -561 149.5 -543.5 Q 146 -526 143 -508.5 Q 140 -491 138.5 -473.5 Q 137 -456 136 -438.5 Q 135 -421 134.5 -403 Q 134 -385 134 -368 Q 134 -327 136.5 -287 Q 139 -247 146 -208 Z M 250 -62 Q 268 -62 284 -71 Q 300 -80 310.5 -94 Q 321 -108 328.5 -124.5 Q 336 -141 341.5 -157.5 Q 347 -174 350.5 -191.5 Q 354 -209 357 -226.5 Q 360 -244 361.5 -261.5 Q 363 -279 364 -296.5 Q 365 -314 365.5 -332 Q 366 -350 366 -368 Q 366 -408 363.5 -448 Q 361 -488 354 -527 L 186 -100 Q 197 -83 214 -72.5 Q 231 -62 250 -62 Z M 187 -798 L 71 -885 L 187 -972 L 213 -938 L 163 -906 L 400 -906 L 400 -864 L 163 -864 L 213 -832 Z " id="path34"/>
<path d="M 250 -125 Q 212 -125 175 -138.5 Q 138 -152 109 -177.5 Q 80 -203 61 -237.5 Q 42 -272 37 -310 L -13 -310 L -13 -370 L 37 -370 Q 42 -408 61 -442.5 Q 80 -477 109 -502.5 Q 138 -528 175 -541.5 Q 212 -555 250 -555 Q 288 -555 325 -541.5 Q 362 -528 391 -502.5 Q 420 -477 439 -442.5 Q 458 -408 463 -370 L 513 -370 L 513 -310 L 463 -310 Q 458 -272 439 -237.5 Q 420 -203 391 -177.5 Q 362 -152 325 -138.5 Q 288 -125 250 -125 Z M 395 -370 Q 390 -396 377 -419 Q 364 -442 344.5 -459 Q 325 -476 300.5 -485.5 Q 276 -495 250 -495 Q 224 -495 199.5 -485.5 Q 175 -476 155.5 -459 Q 136 -442 123 -419 Q 110 -396 105 -370 Z M 250 -185 Q 276 -185 300.5 -194.5 Q 325 -204 344.5 -221 Q 364 -238 377 -261 Q 390 -284 395 -310 L 105 -310 Q 110 -284 123 -261 Q 136 -238 155.5 -221 Q 175 -204 199.5 -194.5 Q 224 -185 250 -185 Z " id="path35"/>
<path d="M 250 -125 Q 222 -125 194.5 -132 Q 167 -139 142.5 -153.5 Q 118 -168 98 -188 Q 78 -208 63.5 -232.5 Q 49 -257 42 -284.5 Q 35 -312 35 -340 Q 35 -368 42 -395.5 Q 49 -423 63.5 -447.5 Q 78 -472 98 -492 Q 118 -512 142.5 -526.5 Q 167 -541 194.5 -548 Q 222 -555 250 -555 Q 278 -555 305.5 -548 Q 333 -541 357.5 -526.5 Q 382 -512 402 -492 Q 422 -472 436.5 -447.5 Q 451 -423 458 -395.5 Q 465 -368 465 -340 Q 465 -312 458 -284.5 Q 451 -257 436.5 -232.5 Q 422 -208 402 -188 Q 382 -168 357.5 -153.5 Q 333 -139 305.5 -132 Q 278 -125 250 -125 Z M 216 -189 L 216 -491 Q 192 -484 170.5 -469.5 Q 149 -455 133.5 -435 Q 118 -415 110 -390 Q 102 -365 102 -340 Q 102 -315 110 -290 Q 118 -265 133.5 -245 Q 149 -225 170.5 -210.5 Q 192 -196 216 -189 Z M 284 -189 Q 308 -196 329.5 -210.5 Q 351 -225 366.5 -245 Q 382 -265 390 -290 Q 398 -315 398 -340 Q 398 -365 390 -390 Q 382 -415 366.5 -435 Q 351 -455 329.5 -469.5 Q 308 -484 284 -491 Z " id="path36"/>
<path d="M 250 -125 Q 222 -125 194.5 -132 Q 167 -139 142.5 -153.5 Q 118 -168 98 -188 Q 78 -208 63.5 -232.5 Q 49 -257 42 -284.5 Q 35 -312 35 -340 Q 35 -368 42 -395.5 Q 49 -423 63.5 -447.5 Q 78 -472 98 -492 Q 118 -512 142.5 -526.5 Q 167 -541 194.5 -548 Q 222 -555 250 -555 Q 278 -555 305.5 -548 Q 333 -541 357.5 -526.5 Q 382 -512 402 -492 Q 422 -472 436.5 -447.5 Q 451 -423 458 -395.5 Q 465 -368 465 -340 Q 465 -312 458 -284.5 Q 451 -257 436.5 -232.5 Q 422 -208 402 -188 Q 382 -168 357.5 -153.5 Q 333 -139 305.5 -132 Q 278 -125 250 -125 Z M 250 -185 Q 262 -185 273.5 -187 Q 285 -189 296 -193 L 286 -193 L 286 -487 L 296 -487 Q 285 -491 273.5 -493 Q 262 -495 250 -495 Q 238 -495 226.5 -493 Q 215 -491 204 -487 L 214 -487 L 214 -193 L 204 -193 Q 215 -189 226.5 -187 Q 238 -185 250 -185 Z M 162 -216 L 162 -464 Q 148 -454 136.5 -439.5 Q 125 -425 117.5 -409 Q 110 -393 106 -375.5 Q 102 -358 102 -340 Q 102 -322 106 -304.5 Q 110 -287 117.5 -271 Q 125 -255 136.5 -240.5 Q 148 -226 162 -216 Z M 338 -216 Q 352 -226 363.5 -240.5 Q 375 -255 382.5 -271 Q 390 -287 394 -304.5 Q 398 -322 398 -340 Q 398 -358 394 -375.5 Q 390 -393 382.5 -409 Q 375 -425 363.5 -439.5 Q 352 -454 338 -464 Z " id="path37"/>
<path d="M 250 -125 Q 222 -125 194.5 -132 Q 167 -139 142.5 -153.5 Q 118 -168 98 -188 Q 78 -208 63.5 -232.5 Q 49 -257 42 -284.5 Q 35 -312 35 -340 Q 35 -368 42 -395.5 Q 49 -423 63.5 -447.5 Q 78 -472 98 -492 Q 118 -512 142.5 -526.5 Q 167 -541 194.5 -548 Q 222 -555 250 -555 Q 278 -555 305.5 -548 Q 333 -541 357.5 -526.5 Q 382 -512 402 -492 Q 422 -472 436.5 -447.5 Q 451 -423 458 -395.5 Q 465 -368 465 -340 Q 465 -312 458 -284.5 Q 451 -257 436.5 -232.5 Q 422 -208 402 -188 Q 382 -168 357.5 -153.5 Q 333 -139 305.5 -132 Q 278 -125 250 -125 Z M 376 -259 Q 387 -277 392.5 -298 Q 398 -319 398 -340 Q 398 -370 387 -398 Q 376 -426 355.5 -448 Q 335 -470 307.5 -482.5 Q 280 -495 250 -495 Q 228 -495 206.5 -488 Q 185 -481 167 -468 Z M 250 -185 Q 272 -185 293.5 -192 Q 315 -199 333 -212 L 124 -421 Q 113 -403 107.5 -382 Q 102 -361 102 -340 Q 102 -310 113 -282 Q 124 -254 144.5 -232 Q 165 -210 192.5 -197.5 Q 220 -185 250 -185 Z " id="path38"/>
<path d="M 250 -125 Q 222 -125 194.5 -132 Q 167 -139 142.5 -153.5 Q 118 -168 98 -188 Q 78 -208 63.5 -232.5 Q 49 -257 42 -284.5 Q 35 -312 35 -340 Q 35 -368 42 -395.5 Q 49 -423 63.5 -447.5 Q 78 -472 98 -492 Q 118 -512 142.5 -526.5 Q 167 -541 194.5 -548 Q 222 -555 250 -555 Q 278 -555 305.5 -548 Q 333 -541 357.5 -526.5 Q 382 -512 402 -492 Q 422 -472 436.5 -447.5 Q 451 -423 458 -395.5 Q 465 -368 465 -340 Q 465 -312 458 -284.5 Q 451 -257 436.5 -232.5 Q 422 -208 402 -188 Q 382 -168 357.5 -153.5 Q 333 -139 305.5 -132 Q 278 -125 250 -125 Z M 111 -289 L 111 -301 L 224 -301 L 224 -492 Q 198 -487 175 -473 Q 152 -459 135.5 -438 Q 119 -417 110.5 -391.5 Q 102 -366 102 -340 Q 102 -327 104 -314 Q 106 -301 111 -289 Z M 390 -289 Q 394 -301 396 -314 Q 398 -327 398 -340 Q 398 -366 389.5 -391.5 Q 381 -417 364.5 -438 Q 348 -459 325 -473 Q 302 -487 276 -492 L 276 -301 L 390 -301 Z M 250 -185 Q 268 -185 286.5 -190 Q 305 -195 321 -204 Q 337 -213 350.5 -226 Q 364 -239 373 -255 L 127 -255 Q 136 -239 149.5 -226 Q 163 -213 179 -204 Q 195 -195 213.5 -190 Q 232 -185 250 -185 Z " id="path39"/>
<path d="M 250 -125 Q 222 -125 194.5 -132 Q 167 -139 142.5 -153.5 Q 118 -168 98 -188 Q 78 -208 63.5 -232.5 Q 49 -257 42 -284.5 Q 35 -312 35 -340 Q 35 -368 42 -395.5 Q 49 -423 63.5 -447.5 Q 78 -472 98 -492 Q 118 -512 142.5 -526.5 Q 167 -541 194.5 -548 Q 222 -555 250 -555 Q 278 -555 305.5 -548 Q 333 -541 357.5 -526.5 Q 382 -512 402 -492 Q 422 -472 436.5 -447.5 Q 451 -423 458 -395.5 Q 465 -368 465 -340 Q 465 -312 458 -284.5 Q 451 -257 436.5 -232.5 Q 422 -208 402 -188 Q 382 -168 357.5 -153.5 Q 333 -139 305.5 -132 Q 278 -125 250 -125 Z M 105 -370 L 216 -370 L 216 -491 Q 195 -485 176.5 -474 Q 158 -463 143 -447 Q 128 -431 118.5 -411.5 Q 109 -392 105 -370 Z M 284 -370 L 395 -370 Q 391 -392 381.5 -411.5 Q 372 -431 357 -447 Q 342 -463 323.5 -474 Q 305 -485 284 -491 Z M 250 -185 Q 276 -185 300.5 -194.5 Q 325 -204 344.5 -221 Q 364 -238 377 -261 Q 390 -284 395 -310 L 105 -310 Q 110 -284 123 -261 Q 136 -238 155.5 -221 Q 175 -204 199.5 -194.5 Q 224 -185 250 -185 Z " id="path40"/>
<path d="M 72 -117 L 24 -159 L 77 -212 Q 56 -240 45.5 -273 Q 35 -306 35 -340 Q 35 -374 45.5 -407 Q 56 -440 77 -468 L 24 -521 L 72 -563 L 122 -513 Q 150 -534 183 -544.5 Q 216 -555 250 -555 Q 284 -555 317 -544.5 Q 350 -534 378 -513 L 428 -563 L 476 -521 L 423 -468 Q 444 -440 454.5 -407 Q 465 -374 465 -340 Q 465 -306 454.5 -273 Q 444 -240 423 -212 L 476 -159 L 428 -117 L 378 -167 Q 350 -146 317 -135.5 Q 284 -125 250 -125 Q 216 -125 183 -135.5 Q 150 -146 122 -167 Z M 250 -385 L 333 -468 Q 315 -481 293.5 -488 Q 272 -495 250 -495 Q 228 -495 206.5 -488 Q 185 -481 167 -468 Z M 124 -259 L 205 -340 L 124 -421 Q 113 -403 107.5 -382 Q 102 -361 102 -340 Q 102 -319 107.5 -298 Q 113 -277 124 -259 Z M 376 -259 Q 387 -277 392.5 -298 Q 398 -319 398 -340 Q 398 -361 392.5 -382 Q 387 -403 376 -421 L 295 -340 Z M 250 -185 Q 272 -185 293.5 -192 Q 315 -199 333 -212 L 250 -295 L 167 -212 Q 185 -199 206.5 -192 Q 228 -185 250 -185 Z " id="path41"/>
<path d="M 250 -125 Q 222 -125 194.5 -132 Q 167 -139 142.5 -153.5 Q 118 -168 98 -188 Q 78 -208 63.5 -232.5 Q 49 -257 42 -284.5 Q 35 -312 35 -340 Q 35 -368 42 -395.5 Q 49 -423 63.5 -447.5 Q 78 -472 98 -492 Q 118 -512 142.5 -526.5 Q 167 -541 194.5 -548 Q 222 -555 250 -555 Q 278 -555 305.5 -548 Q 333 -541 357.5 -526.5 Q 382 -512 402 -492 Q 422 -472 436.5 -447.5 Q 451 -423 458 -395.5 Q 465 -368 465 -340 Q 465 -312 458 -284.5 Q 451 -257 436.5 -232.5 Q 422 -208 402 -188 Q 382 -168 357.5 -153.5 Q 333 -139 305.5 -132 Q 278 -125 250 -125 Z M 124 -259 L 333 -468 Q 315 -481 293.5 -488 Q 272 -495 250 -495 Q 220 -495 192.5 -482.5 Q 165 -470 144.5 -448 Q 124 -426 113 -398 Q 102 -370 102 -340 Q 102 -319 107.5 -298 Q 113 -277 124 -259 Z M 185 -364 Q 176 -364 167.5 -366.5 Q 159 -369 152.5 -375 Q 146 -381 143.5 -390 Q 141 -399 141 -408 Q 141 -417 143.5 -425.5 Q 146 -434 152.5 -440.5 Q 159 -447 167.5 -449.5 Q 176 -452 185 -452 Q 194 -452 202.5 -449.5 Q 211 -447 217.5 -440.5 Q 224 -434 226.5 -425.5 Q 229 -417 229 -408 Q 229 -399 226.5 -390 Q 224 -381 217.5 -375 Q 211 -369 202.5 -366.5 Q 194 -364 185 -364 Z M 250 -185 Q 280 -185 307.5 -197.5 Q 335 -210 355.5 -232 Q 376 -254 387 -282 Q 398 -310 398 -340 Q 398 -361 392.5 -382 Q 387 -403 376 -421 L 167 -212 Q 185 -199 206.5 -192 Q 228 -185 250 -185 Z M 315 -228 Q 306 -228 297.5 -230.5 Q 289 -233 282.5 -239.5 Q 276 -246 273.5 -254.5 Q 271 -263 271 -272 Q 271 -281 273.5 -290 Q 276 -299 282.5 -305 Q 289 -311 297.5 -313.5 Q 306 -316 315 -316 Q 324 -316 332.5 -313.5 Q 341 -311 347.5 -305 Q 354 -299 356.5 -290 Q 359 -281 359 -272 Q 359 -263 356.5 -254.5 Q 354 -246 347.5 -239.5 Q 341 -233 332.5 -230.5 Q 324 -228 315 -228 Z " id="path42"/>
<path d="M 250 -125 Q 222 -125 194.5 -132 Q 167 -139 142.5 -153.5 Q 118 -168 98 -188 Q 78 -208 63.5 -232.5 Q 49 -257 42 -284.5 Q 35 -312 35 -340 Q 35 -368 42 -395.5 Q 49 -423 63.5 -447.5 Q 78 -472 98 -492 Q 118 -512 142.5 -526.5 Q 167 -541 194.5 -548 Q 222 -555 250 -555 Q 278 -555 305.5 -548 Q 333 -541 357.5 -526.5 Q 382 -512 402 -492 Q 422 -472 436.5 -447.5 Q 451 -423 458 -395.5 Q 465 -368 465 -340 Q 465 -312 458 -284.5 Q 451 -257 436.5 -232.5 Q 422 -208 402 -188 Q 382 -168 357.5 -153.5 Q 333 -139 305.5 -132 Q 278 -125 250 -125 Z M 250 -185 Q 280 -185 307.5 -197.5 Q 335 -210 355.5 -232 Q 376 -254 387 -282 Q 398 -310 398 -340 Q 398 -370 387 -398 Q 376 -426 355.5 -448 Q 335 -470 307.5 -482.5 Q 280 -495 250 -495 Q 220 -495 192.5 -482.5 Q 165 -470 144.5 -448 Q 124 -426 113 -398 Q 102 -370 102 -340 Q 102 -310 113 -282 Q 124 -254 144.5 -232 Q 165 -210 192.5 -197.5 Q 220 -185 250 -185 Z M 250 -265 Q 235 -265 221 -271 Q 207 -277 197 -287 Q 187 -297 181 -311 Q 175 -325 175 -340 Q 175 -355 181 -369 Q 187 -383 197 -393 Q 207 -403 221 -409 Q 235 -415 250 -415 Q 265 -415 279 -409 Q 293 -403 303 -393 Q 313 -383 319 -369 Q 325 -355 325 -340 Q 325 -325 319 -311 Q 313 -297 303 -287 Q 293 -277 279 -271 Q 265 -265 250 -265 Z M 250 -300 Q 258 -300 265.5 -303 Q 273 -306 278.5 -311.5 Q 284 -317 287 -324.5 Q 290 -332 290 -340 Q 290 -348 287 -355.5 Q 284 -363 278.5 -368.5 Q 273 -374 265.5 -377 Q 258 -380 250 -380 Q 242 -380 234.5 -377 Q 227 -374 221.5 -368.5 Q 216 -363 213 -355.5 Q 210 -348 210 -340 Q 210 -332 213 -324.5 Q 216 -317 221.5 -311.5 Q 227 -306 234.5 -303 Q 242 -300 250 -300 Z " id="path43"/>
<path d="M 250 -125 Q 222 -125 194.5 -132 Q 167 -139 142.5 -153.5 Q 118 -168 98 -188 Q 78 -208 63.5 -232.5 Q 49 -257 42 -284.5 Q 35 -312 35 -340 Q 35 -368 42 -395.5 Q 49 -423 63.5 -447.5 Q 78 -472 98 -492 Q 118 -512 142.5 -526.5 Q 167 -541 194.5 -548 Q 222 -555 250 -555 Q 278 -555 305.5 -548 Q 333 -541 357.5 -526.5 Q 382 -512 402 -492 Q 422 -472 436.5 -447.5 Q 451 -423 458 -395.5 Q 465 -368 465 -340 Q 465 -312 458 -284.5 Q 451 -257 436.5 -232.5 Q 422 -208 402 -188 Q 382 -168 357.5 -153.5 Q 333 -139 305.5 -132 Q 278 -125 250 -125 Z M 250 -185 Q 280 -185 307.5 -197.5 Q 335 -210 355.5 -232 Q 376 -254 387 -282 Q 398 -310 398 -340 Q 398 -370 387 -398 Q 376 -426 355.5 -448 Q 335 -470 307.5 -482.5 Q 280 -495 250 -495 Q 220 -495 192.5 -482.5 Q 165 -470 144.5 -448 Q 124 -426 113 -398 Q 102 -370 102 -340 Q 102 -310 113 -282 Q 124 -254 144.5 -232 Q 165 -210 192.5 -197.5 Q 220 -185 250 -185 Z M 250 -265 Q 235 -265 221 -271 Q 207 -277 197 -287 Q 187 -297 181 -311 Q 175 -325 175 -340 Q 175 -355 181 -369 Q 187 -383 197 -393 Q 207 -403 221 -409 Q 235 -415 250 -415 Q 265 -415 279 -409 Q 293 -403 303 -393 Q 313 -383 319 -369 Q 325 -355 325 -340 Q 325 -325 319 -311 Q 313 -297 303 -287 Q 293 -277 279 -271 Q 265 -265 250 -265 Z " id="path44"/>
<path d="M 43 -133 L 43 -547 L 457 -547 L 457 -133 Z M 110 -245 L 351 -487 L 110 -487 Z M 149 -193 L 390 -193 L 390 -435 Z " id="path45"/>
<path d="M 43 -133 L 43 -547 L 457 -547 L 457 -133 Z M 390 -245 L 390 -487 L 149 -487 Z M 110 -193 L 351 -193 L 110 -435 Z " id="path46"/>
<path d="M 43 -133 L 43 -547 L 457 -547 L 457 -133 Z M 222 -376 L 218 -487 L 110 -487 L 110 -416 Z M 278 -376 L 390 -416 L 390 -487 L 282 -487 Z M 110 -202 L 207 -327 L 110 -355 Z M 390 -202 L 390 -355 L 293 -327 Z M 182 -193 L 318 -193 L 250 -294 Z " id="path47"/>
<path d="M 43 -133 L 43 -547 L 457 -547 L 457 -133 Z M 110 -193 L 390 -193 L 390 -487 L 110 -487 Z M 250 -265 Q 235 -265 221 -271 Q 207 -277 197 -287 Q 187 -297 181 -311 Q 175 -325 175 -340 Q 175 -355 181 -369 Q 187 -383 197 -393 Q 207 -403 221 -409 Q 235 -415 250 -415 Q 265 -415 279 -409 Q 293 -403 303 -393 Q 313 -383 319 -369 Q 325 -355 325 -340 Q 325 -325 319 -311 Q 313 -297 303 -287 Q 293 -277 279 -271 Q 265 -265 250 -265 Z M 250 -300 Q 258 -300 265.5 -303 Q 273 -306 278.5 -311.5 Q 284 -317 287 -324.5 Q 290 -332 290 -340 Q 290 -348 287 -355.5 Q 284 -363 278.5 -368.5 Q 273 -374 265.5 -377 Q 258 -380 250 -380 Q 242 -380 234.5 -377 Q 227 -374 221.5 -368.5 Q 216 -363 213 -355.5 Q 210 -348 210 -340 Q 210 -332 213 -324.5 Q 216 -317 221.5 -311.5 Q 227 -306 234.5 -303 Q 242 -300 250 -300 Z " id="path48"/>
<path d="M 43 -133 L 43 -547 L 457 -547 L 457 -133 Z M 110 -193 L 390 -193 L 390 -487 L 110 -487 Z M 175 -265 L 175 -415 L 325 -415 L 325 -265 Z M 210 -300 L 290 -300 L 290 -380 L 210 -380 Z " id="path49"/>
<path d="M 344 8 L 344 -184 L 152 -184 L 152 -688 L 656 -688 L 656 -496 L 848 -496 L 848 8 Z M 212 -244 L 344 -244 L 344 -496 L 596 -496 L 596 -628 L 212 -628 Z M 404 -52 L 788 -52 L 788 -436 L 656 -436 L 656 -184 L 404 -184 Z M 404 -244 L 596 -244 L 596 -436 L 404 -436 Z " id="path50"/>
<path d="M 70 -118 L 48 -138 L 48 -542 L 70 -562 L 250 -383 L 430 -562 L 452 -542 L 452 -138 L 430 -118 L 250 -297 Z M 395 -237 L 395 -443 L 293 -340 Z " id="path51"/>
<path d="M 70 -118 L 48 -138 L 48 -542 L 70 -562 L 250 -383 L 430 -562 L 452 -542 L 452 -138 L 430 -118 L 250 -297 Z M 105 -237 L 207 -340 L 105 -443 Z " id="path52"/>
<path d="M 70 -118 L 48 -138 L 48 -542 L 70 -562 L 250 -383 L 430 -562 L 452 -542 L 452 -138 L 430 -118 L 250 -297 Z " id="path53"/>
<path d="M 70 -118 L 48 -138 L 48 -542 L 70 -562 L 250 -383 L 430 -562 L 474 -522 L 293 -340 L 474 -158 L 430 -118 L 250 -297 Z " id="path54"/>
<path d="M 70 -118 L 26 -158 L 207 -340 L 26 -522 L 70 -562 L 250 -383 L 430 -562 L 452 -542 L 452 -138 L 430 -118 L 250 -297 Z " id="path55"/>
<path d="M 452 -17 L 48 -17 L 21 -32 L 214 -340 L 21 -648 L 48 -663 L 452 -663 L 479 -648 L 286 -340 L 479 -32 Z M 250 -398 L 384 -612 L 116 -612 Z M 116 -68 L 384 -68 L 250 -282 Z " id="path56"/>
<path d="M 48 -17 L 21 -32 L 214 -340 L 21 -648 L 48 -663 L 452 -663 L 479 -648 L 286 -340 L 479 -32 L 452 -17 Z " id="path57"/>
<path d="M 147 -249 Q 128 -249 110.5 -254.5 Q 93 -260 80 -273 Q 67 -286 61.5 -304 Q 56 -322 56 -340 Q 56 -358 61.5 -376 Q 67 -394 80 -407 Q 93 -420 110.5 -425.5 Q 128 -431 147 -431 Q 160 -431 174 -428 Q 188 -425 199.5 -418 Q 211 -411 219.5 -399.5 Q 228 -388 233 -375 L 267 -375 Q 272 -388 280.5 -399.5 Q 289 -411 300.5 -418 Q 312 -425 326 -428 Q 340 -431 353 -431 Q 372 -431 389.5 -425.5 Q 407 -420 420 -407 Q 433 -394 438.5 -376 Q 444 -358 444 -340 Q 444 -322 438.5 -304 Q 433 -286 420 -273 Q 407 -260 389.5 -254.5 Q 372 -249 353 -249 Q 340 -249 326 -252 Q 312 -255 300.5 -262 Q 289 -269 280.5 -280.5 Q 272 -292 267 -305 L 233 -305 Q 228 -292 219.5 -280.5 Q 211 -269 199.5 -262 Q 188 -255 174 -252 Q 160 -249 147 -249 Z M 353 -294 Q 363 -294 372 -296.5 Q 381 -299 387.5 -305.5 Q 394 -312 397 -321.5 Q 400 -331 400 -340 Q 400 -349 397 -358.5 Q 394 -368 387.5 -374.5 Q 381 -381 372 -384 Q 363 -387 353 -387 Q 344 -387 335 -384 Q 326 -381 319 -374.5 Q 312 -368 309.5 -358.5 Q 307 -349 307 -340 Q 307 -331 309.5 -321.5 Q 312 -312 319 -305.5 Q 326 -299 335 -296.5 Q 344 -294 353 -294 Z M 147 -294 Q 156 -294 165 -296.5 Q 174 -299 181 -305.5 Q 188 -312 190.5 -321.5 Q 193 -331 193 -340 Q 193 -349 190.5 -358.5 Q 188 -368 181 -374.5 Q 174 -381 165 -384 Q 156 -387 147 -387 Q 137 -387 128 -384 Q 119 -381 112.5 -374.5 Q 106 -368 103 -358.5 Q 100 -349 100 -340 Q 100 -331 103 -321.5 Q 106 -312 112.5 -305.5 Q 119 -299 128 -296.5 Q 137 -294 147 -294 Z " id="path58"/>
<path d="M 48 -42 L 48 -638 L 126 -638 L 126 -112 L 211 -112 L 211 -638 L 289 -638 L 289 -112 L 374 -112 L 374 -638 L 452 -638 L 452 -42 Z " id="path59"/>
<path d="M 66 -42 L -18 -42 L 70 -216 L 32 -216 L 32 -286 L 105 -286 L 160 -394 L 32 -394 L 32 -464 L 196 -464 L 284 -638 L 368 -638 L 280 -464 L 346 -464 L 434 -638 L 518 -638 L 430 -464 L 468 -464 L 468 -394 L 395 -394 L 340 -286 L 468 -286 L 468 -216 L 304 -216 L 216 -42 L 132 -42 L 220 -216 L 154 -216 Z M 255 -286 L 310 -394 L 245 -394 L 190 -286 Z " id="path60"/>
<path d="M 66 -42 L -18 -42 L 70 -216 L 32 -216 L 32 -286 L 105 -286 L 160 -394 L 32 -394 L 32 -464 L 196 -464 L 284 -638 L 368 -638 L 280 -464 L 346 -464 L 434 -638 L 518 -638 L 430 -464 L 468 -464 L 468 -394 L 395 -394 L 340 -286 L 468 -286 L 468 -216 L 304 -216 L 216 -42 L 132 -42 L 220 -216 L 154 -216 Z M 255 -286 L 310 -394 L 245 -394 L 190 -286 Z M 308 -715 Q 303 -715 298 -716 Q 293 -717 288.5 -718 Q 284 -719 279.5 -721 Q 275 -723 270.5 -725.5 Q 266 -728 262 -730.5 Q 258 -733 254.5 -736 Q 251 -739 247.5 -743 Q 244 -747 240.5 -750.5 Q 237 -754 234 -757.5 Q 231 -761 228 -765 Q 225 -769 222.5 -772.5 Q 220 -776 216.5 -780.5 Q 213 -785 209.5 -789 Q 206 -793 203 -796.5 Q 200 -800 195.5 -803 Q 191 -806 191 -808 L 193 -808 L 190 -806 Q 187 -804 184.5 -801 Q 182 -798 179.5 -795.5 Q 177 -793 176 -791.5 Q 175 -790 173.5 -788 Q 172 -786 170.5 -783.5 Q 169 -781 167.5 -779 Q 166 -777 164 -774 Q 162 -771 160.5 -768.5 Q 159 -766 157 -763 Q 155 -760 153.5 -756.5 Q 152 -753 150 -749.5 Q 148 -746 146 -742.5 Q 144 -739 142 -735 Q 140 -731 138 -727 Q 136 -723 134 -719 L 66 -748 Q 75 -766 83.5 -781 Q 92 -796 100 -808.5 Q 108 -821 116 -831.5 Q 124 -842 136 -852.5 Q 148 -863 162 -869.5 Q 176 -876 192 -876 Q 197 -876 202 -875 Q 207 -874 211.5 -873 Q 216 -872 220.5 -870 Q 225 -868 229.5 -865.5 Q 234 -863 238 -860.5 Q 242 -858 245.5 -855 Q 249 -852 252.5 -848.5 Q 256 -845 259.5 -841 Q 263 -837 266 -833.5 Q 269 -830 272 -826 Q 275 -822 277.5 -818.5 Q 280 -815 283.5 -810.5 Q 287 -806 290.5 -802 Q 294 -798 297 -794.5 Q 300 -791 304.5 -788 Q 309 -785 309 -783 L 307 -783 L 310 -785 Q 313 -787 315.5 -790 Q 318 -793 320.5 -795.5 Q 323 -798 324 -800 Q 325 -802 326.5 -804 Q 328 -806 329.5 -808 Q 331 -810 332.5 -812.5 Q 334 -815 336 -817.5 Q 338 -820 339.5 -822.5 Q 341 -825 343 -828 Q 345 -831 346.5 -834.5 Q 348 -838 350 -841.5 Q 352 -845 354 -848.5 Q 356 -852 358 -856 Q 360 -860 362 -864 Q 364 -868 366 -873 L 434 -843 Q 425 -825 416.5 -810 Q 408 -795 400 -782.5 Q 392 -770 384 -759.5 Q 376 -749 364 -738.5 Q 352 -728 338 -721.5 Q 324 -715 308 -715 Z " id="path61"/>
<path d="M 66 -42 L -18 -42 L 47 -171 L 32 -171 L 32 -241 L 83 -241 L 115 -305 L 32 -305 L 32 -375 L 151 -375 L 183 -439 L 32 -439 L 32 -509 L 219 -509 L 284 -638 L 368 -638 L 303 -509 L 369 -509 L 434 -638 L 518 -638 L 453 -509 L 468 -509 L 468 -439 L 417 -439 L 385 -375 L 468 -375 L 468 -305 L 349 -305 L 317 -241 L 468 -241 L 468 -171 L 281 -171 L 216 -42 L 132 -42 L 197 -171 L 131 -171 Z M 301 -375 L 333 -439 L 267 -439 L 235 -375 Z M 233 -241 L 265 -305 L 199 -305 L 167 -241 Z " id="path62"/>
<path d="M 64 -42 L 64 -638 L 142 -638 L 142 -474 L 358 -474 L 358 -638 L 436 -638 L 436 -42 L 358 -42 L 358 -206 L 142 -206 L 142 -42 Z M 358 -276 L 358 -404 L 142 -404 L 142 -276 Z " id="path63"/>
<path d="M 436 -394 L 64 -394 L 64 -464 L 436 -464 Z M 436 -216 L 64 -216 L 64 -286 L 436 -286 Z M 289 -42 L 211 -42 L 211 -638 L 289 -638 Z " id="path64"/>
<path d="M 500 -19 L 110 -661 L 890 -661 Z M 500 -136 L 782 -601 L 500 -601 Z " id="path65"/>
<path d="M 500 -19 L 110 -661 L 890 -661 Z M 500 -136 L 500 -601 L 218 -601 Z " id="path66"/>
<path d="M 500 -19 L 286 -340 L 500 -661 L 714 -340 Z " id="path67"/>
<path d="M 94 -467 Q 80 -467 66.5 -471 Q 53 -475 42.5 -485.5 Q 32 -496 28 -509.5 Q 24 -523 24 -538 Q 24 -552 28 -565.5 Q 32 -579 42.5 -589.5 Q 53 -600 66.5 -604 Q 80 -608 95 -608 Q 109 -608 122.5 -604 Q 136 -600 146.5 -589.5 Q 157 -579 161 -565.5 Q 165 -552 165 -538 Q 165 -523 161 -509.5 Q 157 -496 146.5 -485.5 Q 136 -475 122.5 -471 Q 109 -467 94 -467 Z M 291 -147 L 252 -181 L 373 -305 L 164 -305 L 164 -375 L 373 -375 L 252 -499 L 291 -533 L 484 -340 Z M 94 -72 Q 80 -72 66.5 -76 Q 53 -80 42.5 -90.5 Q 32 -101 28 -114.5 Q 24 -128 24 -143 Q 24 -157 28 -170.5 Q 32 -184 42.5 -194.5 Q 53 -205 66.5 -209 Q 80 -213 95 -213 Q 109 -213 122.5 -209 Q 136 -205 146.5 -194.5 Q 157 -184 161 -170.5 Q 165 -157 165 -143 Q 165 -128 161 -114.5 Q 157 -101 146.5 -90.5 Q 136 -80 122.5 -76 Q 109 -72 94 -72 Z " id="path68"/>
<path d="M 441 143 L 361 143 L 59 -823 L 139 -823 Z " id="path69"/>
<path d="M 350 -869 L 150 -869 L 150 -937 L 350 -937 Z M 59 143 L 361 -823 L 441 -823 L 139 143 Z " id="path70"/>
<path d="M 361 143 L 220 -308 L 64 -308 L 64 -372 L 200 -372 L 59 -823 L 139 -823 L 280 -372 L 436 -372 L 436 -308 L 300 -308 L 441 143 Z " id="path71"/>
<path d="M 59 285 L 361 -965 L 441 -965 L 139 285 Z " id="path72"/>
<path d="M 361 285 L 59 -965 L 139 -965 L 441 285 Z " id="path73"/>
<path d="M 136 -147 L 136 -305 L 64 -305 L 64 -375 L 136 -375 L 136 -533 L 214 -533 L 214 -375 L 286 -375 L 286 -533 L 364 -533 L 364 -375 L 436 -375 L 436 -305 L 364 -305 L 364 -147 L 286 -147 L 286 -305 L 214 -305 L 214 -147 Z " id="path74"/>
<path d="M 284 -147 L 216 -147 L 216 -305 L 181 -305 L 181 -147 L 114 -147 L 114 -305 L 64 -305 L 64 -375 L 114 -375 L 114 -533 L 181 -533 L 181 -375 L 216 -375 L 216 -533 L 284 -533 L 284 -375 L 319 -375 L 319 -533 L 386 -533 L 386 -375 L 436 -375 L 436 -305 L 386 -305 L 386 -147 L 319 -147 L 319 -305 L 284 -305 Z " id="path75"/>
</defs>
<g>
<g data-source-text="0" fill="#20242e" transform="translate(174 41.292) rotate(0) scale(0.023999998)">
<use href="#path1" transform="translate(0 0)"/>
</g>
</g>
<g>
<g data-source-text="1" fill="#20242e" transform="translate(246 41.292) rotate(0) scale(0.023999998)">
<use href="#path2" transform="translate(0 0)"/>
</g>
</g>
<g>
<g data-source-text="2" fill="#20242e" transform="translate(318 41.292) rotate(0) scale(0.023999998)">
<use href="#path3" transform="translate(0 0)"/>
</g>
</g>
<g>
<g data-source-text="3" fill="#20242e" transform="translate(390 41.292) rotate(0) scale(0.023999998)">
<use href="#path4" transform="translate(0 0)"/>
</g>
</g>
<g>
<g data-source-text="4" fill="#20242e" transform="translate(462 41.292) rotate(0) scale(0.023999998)">
<use href="#path5" transform="translate(0 0)"/>
</g>
</g>
<g>
<g data-source-text="5" fill="#20242e" transform="translate(534 41.292) rotate(0) scale(0.023999998)">
<use href="#path6" transform="translate(0 0)"/>
</g>
</g>
<g>
<g data-source-text="6" fill="#20242e" transform="translate(606 41.292) rotate(0) scale(0.023999998)">
<use href="#path7" transform="translate(0 0)"/>
</g>
</g>
<g>
<g data-source-text="7" fill="#20242e" transform="translate(678 41.292) rotate(0) scale(0.023999998)">
<use href="#path8" transform="translate(0 0)"/>
</g>
</g>
<g>
<g data-source-text="8" fill="#20242e" transform="translate(750 41.292) rotate(0) scale(0.023999998)">
<use href="#path9" transform="translate(0 0)"/>
</g>
</g>
<g>
<g data-source-text="9" fill="#20242e" transform="translate(822 41.292) rotate(0) scale(0.023999998)">
<use href="#path10" transform="translate(0 0)"/>
</g>
</g>
<g>
<g data-source-text="A" fill="#20242e" transform="translate(894 41.292) rotate(0) scale(0.023999998)">
<use href="#path11" transform="translate(0 0)"/>
</g>
</g>
<g>
<g data-source-text="B" fill="#20242e" transform="translate(966 41.292) rotate(0) scale(0.023999998)">
<use href="#path12" transform="translate(0 0)"/>
</g>
</g>
<g>
<g data-source-text="C" fill="#20242e" transform="translate(1038 41.292) rotate(0) scale(0.023999998)">
<use href="#path13" transform="translate(0 0)"/>
</g>
</g>
<g>
<g data-source-text="D" fill="#20242e" transform="translate(1110 41.292) rotate(0) scale(0.023999998)">
<use href="#path14" transform="translate(0 0)"/>
</g>
</g>
<g>
<g data-source-text="E" fill="#20242e" transform="translate(1182 41.292) rotate(0) scale(0.023999998)">
<use href="#path15" transform="translate(0 0)"/>
</g>
</g>
<g>
<g data-source-text="F" fill="#20242e" transform="translate(1254 41.292) rotate(0) scale(0.023999998)">
<use href="#path16" transform="translate(0 0)"/>
</g>
</g>
<g>
<g data-source-text="U+2980" fill="#20242e" transform="translate(36 113.292) rotate(0) scale(0.023999998)">
<use href="#path17" transform="translate(0 0)"/>
<use href="#path18" transform="translate(500 0)"/>
<use href="#path3" transform="translate(1000 0)"/>
<use href="#path10" transform="translate(1500 0)"/>
<use href="#path9" transform="translate(2000 0)"/>
<use href="#path1" transform="translate(2500 0)"/>
</g>
</g>
<g>
<g data-source-text="" fill="#20242e" transform="translate(168 118.584) rotate(0) scale(0.047999997)">
<use href="#path19" transform="translate(0 0)"/>
</g>
</g>
<g>
<g data-source-text="" fill="#20242e" transform="translate(228 118.584) rotate(0) scale(0.047999997)">
<use href="#path20" transform="translate(0 0)"/>
</g>
</g>
<g>
<g data-source-text="" fill="#20242e" transform="translate(312 118.584) rotate(0) scale(0.047999997)">
<use href="#path21" transform="translate(0 0)"/>
</g>
</g>
<g>
<g data-source-text="" fill="#20242e" transform="translate(384 118.584) rotate(0) scale(0.047999997)">
<use href="#path22" transform="translate(0 0)"/>
</g>
</g>
<g>
<g data-source-text="" fill="#20242e" transform="translate(456 118.584) rotate(0) scale(0.047999997)">
<use href="#path23" transform="translate(0 0)"/>
</g>
</g>
<g>
<g data-source-text="" fill="#20242e40" transform="translate(528 118.584) rotate(0) scale(0.047999997)">
<use href="#path24" transform="translate(0 0)"/>
</g>
</g>
<g>
<g data-source-text="" fill="#20242e40" transform="translate(600 118.584) rotate(0) scale(0.047999997)">
<use href="#path24" transform="translate(0 0)"/>
</g>
</g>
<g>
<g data-source-text="" fill="#20242e" transform="translate(672 118.584) rotate(0) scale(0.047999997)">
<use href="#path25" transform="translate(0 0)"/>
</g>
</g>
<g>
<g data-source-text="" fill="#20242e" transform="translate(744 118.584) rotate(0) scale(0.047999997)">
<use href="#path26" transform="translate(0 0)"/>
</g>
</g>
<g>
<g data-source-text="" fill="#20242e40" transform="translate(816 118.584) rotate(0) scale(0.047999997)">
<use href="#path24" transform="translate(0 0)"/>
</g>
</g>
<g>
<g data-source-text="" fill="#20242e40" transform="translate(888 118.584) rotate(0) scale(0.047999997)">
<use href="#path24" transform="translate(0 0)"/>
</g>
</g>
<g>
<g data-source-text="" fill="#20242e40" transform="translate(960 118.584) rotate(0) scale(0.047999997)">
<use href="#path24" transform="translate(0 0)"/>
</g>
</g>
<g>
<g data-source-text="" fill="#20242e40" transform="translate(1032 118.584) rotate(0) scale(0.047999997)">
<use href="#path24" transform="translate(0 0)"/>
</g>
</g>
<g>
<g data-source-text="" fill="#20242e40" transform="translate(1104 118.584) rotate(0) scale(0.047999997)">
<use href="#path24" transform="translate(0 0)"/>
</g>
</g>
<g>
<g data-source-text="" fill="#20242e40" transform="translate(1176 118.584) rotate(0) scale(0.047999997)">
<use href="#path24" transform="translate(0 0)"/>
</g>
</g>
<g>
<g data-source-text="" fill="#20242e40" transform="translate(1248 118.584) rotate(0) scale(0.047999997)">
<use href="#path24" transform="translate(0 0)"/>
</g>
</g>
<g>
<g data-source-text="U+2990" fill="#20242e" transform="translate(36 185.292) rotate(0) scale(0.023999998)">
<use href="#path17" transform="translate(0 0)"/>
<use href="#path18" transform="translate(500 0)"/>
<use href="#path3" transform="translate(1000 0)"/>
<use href="#path10" transform="translate(1500 0)"/>
<use href="#path10" transform="translate(2000 0)"/>
<use href="#path1" transform="translate(2500 0)"/>
</g>
</g>
<g>
<g data-source-text="" fill="#20242e40" transform="translate(168 190.584) rotate(0) scale(0.047999997)">
<use href="#path24" transform="translate(0 0)"/>
</g>
</g>
<g>
<g data-source-text="" fill="#20242e40" transform="translate(240 190.584) rotate(0) scale(0.047999997)">
<use href="#path24" transform="translate(0 0)"/>
</g>
</g>
<g>
<g data-source-text="" fill="#20242e40" transform="translate(312 190.584) rotate(0) scale(0.047999997)">
<use href="#path24" transform="translate(0 0)"/>
</g>
</g>
<g>
<g data-source-text="" fill="#20242e40" transform="translate(384 190.584) rotate(0) scale(0.047999997)">
<use href="#path24" transform="translate(0 0)"/>
</g>
</g>
<g>
<g data-source-text="" fill="#20242e40" transform="translate(456 190.584) rotate(0) scale(0.047999997)">
<use href="#path24" transform="translate(0 0)"/>
</g>
</g>
<g>
<g data-source-text="" fill="#20242e40" transform="translate(528 190.584) rotate(0) scale(0.047999997)">
<use href="#path24" transform="translate(0 0)"/>
</g>
</g>
<g>
<g data-source-text="" fill="#20242e40" transform="translate(600 190.584) rotate(0) scale(0.047999997)">
<use href="#path24" transform="translate(0 0)"/>
</g>
</g>
<g>
<g data-source-text="" fill="#20242e40" transform="translate(672 190.584) rotate(0) scale(0.047999997)">
<use href="#path24" transform="translate(0 0)"/>
</g>
</g>
<g>
<g data-source-text="" fill="#20242e40" transform="translate(744 190.584) rotate(0) scale(0.047999997)">
<use href="#path24" transform="translate(0 0)"/>
</g>
</g>
<g>
<g data-source-text="" fill="#20242e" transform="translate(816 190.584) rotate(0) scale(0.047999997)">
<use href="#path27" transform="translate(0 0)"/>
</g>
</g>
<g>
<g data-source-text="" fill="#20242e40" transform="translate(888 190.584) rotate(0) scale(0.047999997)">
<use href="#path24" transform="translate(0 0)"/>
</g>
</g>
<g>
<g data-source-text="" fill="#20242e40" transform="translate(960 190.584) rotate(0) scale(0.047999997)">
<use href="#path24" transform="translate(0 0)"/>
</g>
</g>
<g>
<g data-source-text="" fill="#20242e40" transform="translate(1032 190.584) rotate(0) scale(0.047999997)">
<use href="#path24" transform="translate(0 0)"/>
</g>
</g>
<g>
<g data-source-text="" fill="#20242e40" transform="translate(1104 190.584) rotate(0) scale(0.047999997)">
<use href="#path24" transform="translate(0 0)"/>
</g>
</g>
<g>
<g data-source-text="" fill="#20242e40" transform="translate(1176 190.584) rotate(0) scale(0.047999997)">
<use href="#path24" transform="translate(0 0)"/>
</g>
</g>
<g>
<g data-source-text="" fill="#20242e40" transform="translate(1248 190.584) rotate(0) scale(0.047999997)">
<use href="#path24" transform="translate(0 0)"/>
</g>
</g>
<g>
<g data-source-text="U+29A0" fill="#20242e" transform="translate(36 257.292) rotate(0) scale(0.023999998)">
<use href="#path17" transform="translate(0 0)"/>
<use href="#path18" transform="translate(500 0)"/>
<use href="#path3" transform="translate(1000 0)"/>
<use href="#path10" transform="translate(1500 0)"/>
<use href="#path11" transform="translate(2000 0)"/>
<use href="#path1" transform="translate(2500 0)"/>
</g>
</g>
<g>
<g data-source-text="" fill="#20242e40" transform="translate(168 262.584) rotate(0) scale(0.047999997)">
<use href="#path24" transform="translate(0 0)"/>
</g>
</g>
<g>
<g data-source-text="" fill="#20242e40" transform="translate(240 262.584) rotate(0) scale(0.047999997)">
<use href="#path24" transform="translate(0 0)"/>
</g>
</g>
<g>
<g data-source-text="" fill="#20242e" transform="translate(312 262.584) rotate(0) scale(0.047999997)">
<use href="#path28" transform="translate(0 0)"/>
</g>
</g>
<g>
<g data-source-text="" fill="#20242e" transform="translate(384 262.584) rotate(0) scale(0.047999997)">
<use href="#path29" transform="translate(0 0)"/>
</g>
</g>
<g>
<g data-source-text="" fill="#20242e40" transform="translate(456 262.584) rotate(0) scale(0.047999997)">
<use href="#path24" transform="translate(0 0)"/>
</g>
</g>
<g>
<g data-source-text="" fill="#20242e40" transform="translate(528 262.584) rotate(0) scale(0.047999997)">
<use href="#path24" transform="translate(0 0)"/>
</g>
</g>
<g>
<g data-source-text="" fill="#20242e40" transform="translate(600 262.584) rotate(0) scale(0.047999997)">
<use href="#path24" transform="translate(0 0)"/>
</g>
</g>
<g>
<g data-source-text="" fill="#20242e40" transform="translate(672 262.584) rotate(0) scale(0.047999997)">
<use href="#path24" transform="translate(0 0)"/>
</g>
</g>
<g>
<g data-source-text="" fill="#20242e40" transform="translate(744 262.584) rotate(0) scale(0.047999997)">
<use href="#path24" transform="translate(0 0)"/>
</g>
</g>
<g>
<g data-source-text="" fill="#20242e40" transform="translate(816 262.584) rotate(0) scale(0.047999997)">
<use href="#path24" transform="translate(0 0)"/>
</g>
</g>
<g>
<g data-source-text="" fill="#20242e40" transform="translate(888 262.584) rotate(0) scale(0.047999997)">
<use href="#path24" transform="translate(0 0)"/>
</g>
</g>
<g>
<g data-source-text="" fill="#20242e40" transform="translate(960 262.584) rotate(0) scale(0.047999997)">
<use href="#path24" transform="translate(0 0)"/>
</g>
</g>
<g>
<g data-source-text="" fill="#20242e40" transform="translate(1032 262.584) rotate(0) scale(0.047999997)">
<use href="#path24" transform="translate(0 0)"/>
</g>
</g>
<g>
<g data-source-text="" fill="#20242e40" transform="translate(1104 262.584) rotate(0) scale(0.047999997)">
<use href="#path24" transform="translate(0 0)"/>
</g>
</g>
<g>
<g data-source-text="" fill="#20242e40" transform="translate(1176 262.584) rotate(0) scale(0.047999997)">
<use href="#path24" transform="translate(0 0)"/>
</g>
</g>
<g>
<g data-source-text="" fill="#20242e40" transform="translate(1248 262.584) rotate(0) scale(0.047999997)">
<use href="#path24" transform="translate(0 0)"/>
</g>
</g>
<g>
<g data-source-text="U+29B0" fill="#20242e" transform="translate(36 329.292) rotate(0) scale(0.023999998)">
<use href="#path17" transform="translate(0 0)"/>
<use href="#path18" transform="translate(500 0)"/>
<use href="#path3" transform="translate(1000 0)"/>
<use href="#path10" transform="translate(1500 0)"/>
<use href="#path12" transform="translate(2000 0)"/>
<use href="#path1" transform="translate(2500 0)"/>
</g>
</g>
<g>
<g data-source-text="" fill="#20242e" transform="translate(168 334.584) rotate(0) scale(0.047999997)">
<use href="#path30" transform="translate(0 0)"/>
</g>
</g>
<g>
<g data-source-text="" fill="#20242e" transform="translate(240 334.584) rotate(0) scale(0.047999997)">
<use href="#path31" transform="translate(0 0)"/>
</g>
</g>
<g>
<g data-source-text="" fill="#20242e" transform="translate(312 334.584) rotate(0) scale(0.047999997)">
<use href="#path32" transform="translate(0 0)"/>
</g>
</g>
<g>
<g data-source-text="" fill="#20242e" transform="translate(384 334.584) rotate(0) scale(0.047999997)">
<use href="#path33" transform="translate(0 0)"/>
</g>
</g>
<g>
<g data-source-text="" fill="#20242e" transform="translate(456 334.584) rotate(0) scale(0.047999997)">
<use href="#path34" transform="translate(0 0)"/>
</g>
</g>
<g>
<g data-source-text="" fill="#20242e" transform="translate(528 334.584) rotate(0) scale(0.047999997)">
<use href="#path35" transform="translate(0 0)"/>
</g>
</g>
<g>
<g data-source-text="" fill="#20242e" transform="translate(600 334.584) rotate(0) scale(0.047999997)">
<use href="#path36" transform="translate(0 0)"/>
</g>
</g>
<g>
<g data-source-text="" fill="#20242e" transform="translate(672 334.584) rotate(0) scale(0.047999997)">
<use href="#path37" transform="translate(0 0)"/>
</g>
</g>
<g>
<g data-source-text="" fill="#20242e" transform="translate(744 334.584) rotate(0) scale(0.047999997)">
<use href="#path38" transform="translate(0 0)"/>
</g>
</g>
<g>
<g data-source-text="" fill="#20242e" transform="translate(816 334.584) rotate(0) scale(0.047999997)">
<use href="#path39" transform="translate(0 0)"/>
</g>
</g>
<g>
<g data-source-text="" fill="#20242e" transform="translate(888 334.584) rotate(0) scale(0.047999997)">
<use href="#path40" transform="translate(0 0)"/>
</g>
</g>
<g>
<g data-source-text="" fill="#20242e" transform="translate(960 334.584) rotate(0) scale(0.047999997)">
<use href="#path41" transform="translate(0 0)"/>
</g>
</g>
<g>
<g data-source-text="" fill="#20242e" transform="translate(1032 334.584) rotate(0) scale(0.047999997)">
<use href="#path42" transform="translate(0 0)"/>
</g>
</g>
<g>
<g data-source-text="" fill="#20242e40" transform="translate(1104 334.584) rotate(0) scale(0.047999997)">
<use href="#path24" transform="translate(0 0)"/>
</g>
</g>
<g>
<g data-source-text="" fill="#20242e" transform="translate(1176 334.584) rotate(0) scale(0.047999997)">
<use href="#path43" transform="translate(0 0)"/>
</g>
</g>
<g>
<g data-source-text="" fill="#20242e" transform="translate(1248 334.584) rotate(0) scale(0.047999997)">
<use href="#path44" transform="translate(0 0)"/>
</g>
</g>
<g>
<g data-source-text="U+29C0" fill="#20242e" transform="translate(36 401.292) rotate(0) scale(0.023999998)">
<use href="#path17" transform="translate(0 0)"/>
<use href="#path18" transform="translate(500 0)"/>
<use href="#path3" transform="translate(1000 0)"/>
<use href="#path10" transform="translate(1500 0)"/>
<use href="#path13" transform="translate(2000 0)"/>
<use href="#path1" transform="translate(2500 0)"/>
</g>
</g>
<g>
<g data-source-text="" fill="#20242e40" transform="translate(168 406.584) rotate(0) scale(0.047999997)">
<use href="#path24" transform="translate(0 0)"/>
</g>
</g>
<g>
<g data-source-text="" fill="#20242e40" transform="translate(240 406.584) rotate(0) scale(0.047999997)">
<use href="#path24" transform="translate(0 0)"/>
</g>
</g>
<g>
<g data-source-text="" fill="#20242e40" transform="translate(312 406.584) rotate(0) scale(0.047999997)">
<use href="#path24" transform="translate(0 0)"/>
</g>
</g>
<g>
<g data-source-text="" fill="#20242e40" transform="translate(384 406.584) rotate(0) scale(0.047999997)">
<use href="#path24" transform="translate(0 0)"/>
</g>
</g>
<g>
<g data-source-text="" fill="#20242e" transform="translate(456 406.584) rotate(0) scale(0.047999997)">
<use href="#path45" transform="translate(0 0)"/>
</g>
</g>
<g>
<g data-source-text="" fill="#20242e" transform="translate(528 406.584) rotate(0) scale(0.047999997)">
<use href="#path46" transform="translate(0 0)"/>
</g>
</g>
<g>
<g data-source-text="" fill="#20242e" transform="translate(600 406.584) rotate(0) scale(0.047999997)">
<use href="#path47" transform="translate(0 0)"/>
</g>
</g>
<g>
<g data-source-text="" fill="#20242e" transform="translate(672 406.584) rotate(0) scale(0.047999997)">
<use href="#path48" transform="translate(0 0)"/>
</g>
</g>
<g>
<g data-source-text="" fill="#20242e" transform="translate(744 406.584) rotate(0) scale(0.047999997)">
<use href="#path49" transform="translate(0 0)"/>
</g>
</g>
<g>
<g data-source-text="" fill="#20242e" transform="translate(804 406.584) rotate(0) scale(0.047999997)">
<use href="#path50" transform="translate(0 0)"/>
</g>
</g>
<g>
<g data-source-text="" fill="#20242e40" transform="translate(888 406.584) rotate(0) scale(0.047999997)">
<use href="#path24" transform="translate(0 0)"/>
</g>
</g>
<g>
<g data-source-text="" fill="#20242e40" transform="translate(960 406.584) rotate(0) scale(0.047999997)">
<use href="#path24" transform="translate(0 0)"/>
</g>
</g>
<g>
<g data-source-text="" fill="#20242e40" transform="translate(1032 406.584) rotate(0) scale(0.047999997)">
<use href="#path24" transform="translate(0 0)"/>
</g>
</g>
<g>
<g data-source-text="" fill="#20242e40" transform="translate(1104 406.584) rotate(0) scale(0.047999997)">
<use href="#path24" transform="translate(0 0)"/>
</g>
</g>
<g>
<g data-source-text="" fill="#20242e40" transform="translate(1176 406.584) rotate(0) scale(0.047999997)">
<use href="#path24" transform="translate(0 0)"/>
</g>
</g>
<g>
<g data-source-text="" fill="#20242e40" transform="translate(1248 406.584) rotate(0) scale(0.047999997)">
<use href="#path24" transform="translate(0 0)"/>
</g>
</g>
<g>
<g data-source-text="U+29D0" fill="#20242e" transform="translate(36 473.292) rotate(0) scale(0.023999998)">
<use href="#path17" transform="translate(0 0)"/>
<use href="#path18" transform="translate(500 0)"/>
<use href="#path3" transform="translate(1000 0)"/>
<use href="#path10" transform="translate(1500 0)"/>
<use href="#path14" transform="translate(2000 0)"/>
<use href="#path1" transform="translate(2500 0)"/>
</g>
</g>
<g>
<g data-source-text="" fill="#20242e40" transform="translate(168 478.584) rotate(0) scale(0.047999997)">
<use href="#path24" transform="translate(0 0)"/>
</g>
</g>
<g>
<g data-source-text="" fill="#20242e" transform="translate(240 478.584) rotate(0) scale(0.047999997)">
<use href="#path51" transform="translate(0 0)"/>
</g>
</g>
<g>
<g data-source-text="" fill="#20242e" transform="translate(312 478.584) rotate(0) scale(0.047999997)">
<use href="#path52" transform="translate(0 0)"/>
</g>
</g>
<g>
<g data-source-text="" fill="#20242e" transform="translate(384 478.584) rotate(0) scale(0.047999997)">
<use href="#path53" transform="translate(0 0)"/>
</g>
</g>
<g>
<g data-source-text="" fill="#20242e" transform="translate(456 478.584) rotate(0) scale(0.047999997)">
<use href="#path54" transform="translate(0 0)"/>
</g>
</g>
<g>
<g data-source-text="" fill="#20242e" transform="translate(528 478.584) rotate(0) scale(0.047999997)">
<use href="#path55" transform="translate(0 0)"/>
</g>
</g>
<g>
<g data-source-text="" fill="#20242e" transform="translate(600 478.584) rotate(0) scale(0.047999997)">
<use href="#path56" transform="translate(0 0)"/>
</g>
</g>
<g>
<g data-source-text="" fill="#20242e" transform="translate(672 478.584) rotate(0) scale(0.047999997)">
<use href="#path57" transform="translate(0 0)"/>
</g>
</g>
<g>
<g data-source-text="" fill="#20242e40" transform="translate(744 478.584) rotate(0) scale(0.047999997)">
<use href="#path24" transform="translate(0 0)"/>
</g>
</g>
<g>
<g data-source-text="" fill="#20242e40" transform="translate(816 478.584) rotate(0) scale(0.047999997)">
<use href="#path24" transform="translate(0 0)"/>
</g>
</g>
<g>
<g data-source-text="" fill="#20242e40" transform="translate(888 478.584) rotate(0) scale(0.047999997)">
<use href="#path24" transform="translate(0 0)"/>
</g>
</g>
<g>
<g data-source-text="" fill="#20242e40" transform="translate(960 478.584) rotate(0) scale(0.047999997)">
<use href="#path24" transform="translate(0 0)"/>
</g>
</g>
<g>
<g data-source-text="" fill="#20242e40" transform="translate(1032 478.584) rotate(0) scale(0.047999997)">
<use href="#path24" transform="translate(0 0)"/>
</g>
</g>
<g>
<g data-source-text="" fill="#20242e40" transform="translate(1104 478.584) rotate(0) scale(0.047999997)">
<use href="#path24" transform="translate(0 0)"/>
</g>
</g>
<g>
<g data-source-text="" fill="#20242e40" transform="translate(1176 478.584) rotate(0) scale(0.047999997)">
<use href="#path24" transform="translate(0 0)"/>
</g>
</g>
<g>
<g data-source-text="" fill="#20242e" transform="translate(1248 478.584) rotate(0) scale(0.047999997)">
<use href="#path58" transform="translate(0 0)"/>
</g>
</g>
<g>
<g data-source-text="U+29E0" fill="#20242e" transform="translate(36 545.292) rotate(0) scale(0.023999998)">
<use href="#path17" transform="translate(0 0)"/>
<use href="#path18" transform="translate(500 0)"/>
<use href="#path3" transform="translate(1000 0)"/>
<use href="#path10" transform="translate(1500 0)"/>
<use href="#path15" transform="translate(2000 0)"/>
<use href="#path1" transform="translate(2500 0)"/>
</g>
</g>
<g>
<g data-source-text="" fill="#20242e40" transform="translate(168 550.584) rotate(0) scale(0.047999997)">
<use href="#path24" transform="translate(0 0)"/>
</g>
</g>
<g>
<g data-source-text="" fill="#20242e40" transform="translate(240 550.584) rotate(0) scale(0.047999997)">
<use href="#path24" transform="translate(0 0)"/>
</g>
</g>
<g>
<g data-source-text="" fill="#20242e" transform="translate(312 550.584) rotate(0) scale(0.047999997)">
<use href="#path59" transform="translate(0 0)"/>
</g>
</g>
<g>
<g data-source-text="" fill="#20242e" transform="translate(384 550.584) rotate(0) scale(0.047999997)">
<use href="#path60" transform="translate(0 0)"/>
</g>
</g>
<g>
<g data-source-text="" fill="#20242e" transform="translate(456 550.584) rotate(0) scale(0.047999997)">
<use href="#path61" transform="translate(0 0)"/>
</g>
</g>
<g>
<g data-source-text="" fill="#20242e" transform="translate(528 550.584) rotate(0) scale(0.047999997)">
<use href="#path62" transform="translate(0 0)"/>
</g>
</g>
<g>
<g data-source-text="" fill="#20242e" transform="translate(600 550.584) rotate(0) scale(0.047999997)">
<use href="#path63" transform="translate(0 0)"/>
</g>
</g>
<g>
<g data-source-text="" fill="#20242e" transform="translate(672 550.584) rotate(0) scale(0.047999997)">
<use href="#path64" transform="translate(0 0)"/>
</g>
</g>
<g>
<g data-source-text="" fill="#20242e" transform="translate(732 550.584) rotate(0) scale(0.047999997)">
<use href="#path65" transform="translate(0 0)"/>
</g>
</g>
<g>
<g data-source-text="" fill="#20242e" transform="translate(804 550.584) rotate(0) scale(0.047999997)">
<use href="#path66" transform="translate(0 0)"/>
</g>
</g>
<g>
<g data-source-text="" fill="#20242e40" transform="translate(888 550.584) rotate(0) scale(0.047999997)">
<use href="#path24" transform="translate(0 0)"/>
</g>
</g>
<g>
<g data-source-text="" fill="#20242e" transform="translate(948 550.584) rotate(0) scale(0.047999997)">
<use href="#path67" transform="translate(0 0)"/>
</g>
</g>
<g>
<g data-source-text="" fill="#20242e40" transform="translate(1032 550.584) rotate(0) scale(0.047999997)">
<use href="#path24" transform="translate(0 0)"/>
</g>
</g>
<g>
<g data-source-text="" fill="#20242e40" transform="translate(1104 550.584) rotate(0) scale(0.047999997)">
<use href="#path24" transform="translate(0 0)"/>
</g>
</g>
<g>
<g data-source-text="" fill="#20242e40" transform="translate(1176 550.584) rotate(0) scale(0.047999997)">
<use href="#path24" transform="translate(0 0)"/>
</g>
</g>
<g>
<g data-source-text="" fill="#20242e40" transform="translate(1248 550.584) rotate(0) scale(0.047999997)">
<use href="#path24" transform="translate(0 0)"/>
</g>
</g>
<g>
<g data-source-text="U+29F0" fill="#20242e" transform="translate(36 617.292) rotate(0) scale(0.023999998)">
<use href="#path17" transform="translate(0 0)"/>
<use href="#path18" transform="translate(500 0)"/>
<use href="#path3" transform="translate(1000 0)"/>
<use href="#path10" transform="translate(1500 0)"/>
<use href="#path16" transform="translate(2000 0)"/>
<use href="#path1" transform="translate(2500 0)"/>
</g>
</g>
<g>
<g data-source-text="" fill="#20242e40" transform="translate(168 622.584) rotate(0) scale(0.047999997)">
<use href="#path24" transform="translate(0 0)"/>
</g>
</g>
<g>
<g data-source-text="" fill="#20242e40" transform="translate(240 622.584) rotate(0) scale(0.047999997)">
<use href="#path24" transform="translate(0 0)"/>
</g>
</g>
<g>
<g data-source-text="" fill="#20242e40" transform="translate(312 622.584) rotate(0) scale(0.047999997)">
<use href="#path24" transform="translate(0 0)"/>
</g>
</g>
<g>
<g data-source-text="" fill="#20242e40" transform="translate(384 622.584) rotate(0) scale(0.047999997)">
<use href="#path24" transform="translate(0 0)"/>
</g>
</g>
<g>
<g data-source-text="" fill="#20242e" transform="translate(456 622.584) rotate(0) scale(0.047999997)">
<use href="#path68" transform="translate(0 0)"/>
</g>
</g>
<g>
<g data-source-text="" fill="#20242e" transform="translate(528 622.584) rotate(0) scale(0.047999997)">
<use href="#path69" transform="translate(0 0)"/>
</g>
</g>
<g>
<g data-source-text="" fill="#20242e" transform="translate(600 622.584) rotate(0) scale(0.047999997)">
<use href="#path70" transform="translate(0 0)"/>
</g>
</g>
<g>
<g data-source-text="" fill="#20242e" transform="translate(672 622.584) rotate(0) scale(0.047999997)">
<use href="#path71" transform="translate(0 0)"/>
</g>
</g>
<g>
<g data-source-text="" fill="#20242e" transform="translate(744 622.584) rotate(0) scale(0.047999997)">
<use href="#path72" transform="translate(0 0)"/>
</g>
</g>
<g>
<g data-source-text="" fill="#20242e" transform="translate(816 622.584) rotate(0) scale(0.047999997)">
<use href="#path73" transform="translate(0 0)"/>
</g>
</g>
<g>
<g data-source-text="" fill="#20242e" transform="translate(888 622.584) rotate(0) scale(0.047999997)">
<use href="#path74" transform="translate(0 0)"/>
</g>
</g>
<g>
<g data-source-text="" fill="#20242e" transform="translate(960 622.584) rotate(0) scale(0.047999997)">
<use href="#path75" transform="translate(0 0)"/>
</g>
</g>
<g>
<g data-source-text="" fill="#20242e40" transform="translate(1032 622.584) rotate(0) scale(0.047999997)">
<use href="#path24" transform="translate(0 0)"/>
</g>
</g>
<g>
<g data-source-text="" fill="#20242e40" transform="translate(1104 622.584) rotate(0) scale(0.047999997)">
<use href="#path24" transform="translate(0 0)"/>
</g>
</g>
<g>
<g data-source-text="" fill="#20242e40" transform="translate(1176 622.584) rotate(0) scale(0.047999997)">
<use href="#path24" transform="translate(0 0)"/>
</g>
</g>
<g>
<g data-source-text="" fill="#20242e40" transform="translate(1248 622.584) rotate(0) scale(0.047999997)">
<use href="#path24" transform="translate(0 0)"/>
</g>
</g>
</svg>