<?xml version="1.0" encoding="UTF-8" standalone="no"?>
<svg height="576" viewBox="0 0 1296 576" width="1296" xmlns="http://www.w3.org/2000/svg">
<defs>
<path d="M 250 8 Q 223 8 196 3 Q 169 -2 145 -15 Q 121 -28 102.5 -48.5 Q 84 -69 72.5 -94 Q 61 -119 56.5 -146 Q 52 -173 52 -200 L 52 -535 Q 52 -562 56.5 -589 Q 61 -616 72.5 -641 Q 84 -666 102.5 -686.5 Q 121 -707 145 -720 Q 169 -733 196 -738 Q 223 -743 250 -743 Q 277 -743 304 -738 Q 331 -733 355 -720 Q 379 -707 397.5 -686.5 Q 416 -666 427.5 -641 Q 439 -616 443.5 -589 Q 448 -562 448 -535 L 448 -200 Q 448 -173 443.5 -146 Q 439 -119 427.5 -94 Q 416 -69 397.5 -48.5 Q 379 -28 355 -15 Q 331 -2 304 3 Q 277 8 250 8 Z M 152 -338 L 348 -493 L 348 -535 Q 348 -557 343 -579 Q 338 -601 325.5 -618.5 Q 313 -636 292.5 -645.5 Q 272 -655 250 -655 Q 228 -655 207.5 -645.5 Q 187 -636 174.5 -618.5 Q 162 -601 157 -579 Q 152 -557 152 -535 Z M 250 -80 Q 272 -80 292.5 -89.5 Q 313 -99 325.5 -116.5 Q 338 -134 343 -156 Q 348 -178 348 -200 L 348 -397 L 152 -242 L 152 -200 Q 152 -178 157 -156 Q 162 -134 174.5 -116.5 Q 187 -99 207.5 -89.5 Q 228 -80 250 -80 Z " id="path1"/>
<path d="M 230 0 L 230 -632 L 110 -528 L 55 -584 L 230 -735 L 330 -735 L 330 0 Z " id="path2"/>
<path d="M 60 0 L 60 -1 Q 60 -27 61 -54 Q 62 -81 65.5 -107 Q 69 -133 77 -158.5 Q 85 -184 96.5 -208 Q 108 -232 123 -253.5 Q 138 -275 156 -294.5 Q 174 -314 194 -331 Q 214 -348 235.5 -364 Q 257 -380 277.5 -397 Q 298 -414 313 -435.5 Q 328 -457 336 -483 Q 344 -509 344 -535 Q 344 -557 339.5 -578 Q 335 -599 323.5 -617 Q 312 -635 292 -645 Q 272 -655 251 -655 Q 231 -655 212.5 -647.5 Q 194 -640 181.5 -625 Q 169 -610 163.5 -591 Q 158 -572 158 -552 L 158 -548 L 58 -548 L 58 -555 Q 58 -581 63.5 -606 Q 69 -631 81 -653 Q 93 -675 111.5 -693 Q 130 -711 152.5 -722.5 Q 175 -734 200.5 -738.5 Q 226 -743 251 -743 Q 278 -743 304.5 -737.5 Q 331 -732 354.5 -719 Q 378 -706 396 -685.5 Q 414 -665 425 -640.5 Q 436 -616 440 -589 Q 444 -562 444 -535 Q 444 -501 435 -468 Q 426 -435 407.5 -406 Q 389 -377 364 -353.5 Q 339 -330 312.5 -308.5 Q 286 -287 261 -264 Q 236 -241 216 -213 Q 196 -185 183 -153.5 Q 170 -122 165 -88 L 440 -88 L 440 0 Z " id="path3"/>
<path d="M 253 8 Q 227 8 201 4 Q 175 -0 151 -11.5 Q 127 -23 107.5 -40.5 Q 88 -58 75.5 -81 Q 63 -104 56.5 -129.5 Q 50 -155 50 -181 L 50 -187 L 150 -187 L 150 -184 Q 150 -163 157 -143 Q 164 -123 178 -108 Q 192 -93 212 -86.5 Q 232 -80 253 -80 Q 275 -80 296 -88.5 Q 317 -97 330.5 -114.5 Q 344 -132 350 -154 Q 356 -176 356 -198 Q 356 -217 352 -235.5 Q 348 -254 339 -271 Q 330 -288 316.5 -301 Q 303 -314 286 -322 Q 269 -330 250 -332 Q 231 -334 212 -334 L 212 -422 Q 229 -422 246 -424 Q 263 -426 278.5 -433 Q 294 -440 306 -452.5 Q 318 -465 325.5 -480.5 Q 333 -496 336.5 -513 Q 340 -530 340 -547 Q 340 -566 335.5 -585.5 Q 331 -605 320 -621.5 Q 309 -638 291 -646.5 Q 273 -655 253 -655 Q 234 -655 216 -647 Q 198 -639 187 -624 Q 176 -609 171 -590 Q 166 -571 166 -553 L 166 -548 L 66 -548 L 66 -556 Q 66 -581 71.5 -605.5 Q 77 -630 88 -652 Q 99 -674 116.5 -692.5 Q 134 -711 156.5 -722.5 Q 179 -734 203.5 -738.5 Q 228 -743 253 -743 Q 278 -743 303.5 -738 Q 329 -733 351 -721 Q 373 -709 390.5 -690 Q 408 -671 419 -648 Q 430 -625 435 -600 Q 440 -575 440 -550 Q 440 -524 434 -498.5 Q 428 -473 416 -450.5 Q 404 -428 385 -409.5 Q 366 -391 343 -379 Q 370 -368 391.5 -348.5 Q 413 -329 427.5 -304.5 Q 442 -280 449 -252 Q 456 -224 456 -196 Q 456 -168 450 -141.5 Q 444 -115 432 -91 Q 420 -67 401 -47 Q 382 -27 358 -14.5 Q 334 -2 307 3 Q 280 8 253 8 Z " id="path4"/>
<path d="M 282 0 L 282 -188 L 52 -188 L 52 -275 L 276 -735 L 377 -735 L 152 -275 L 282 -275 L 282 -435 L 383 -435 L 383 -275 L 440 -275 L 440 -188 L 383 -188 L 383 0 Z " id="path5"/>
<path d="M 252 8 Q 227 8 202.5 3.5 Q 178 -1 155.5 -12 Q 133 -23 114.5 -41 Q 96 -59 84 -80.5 Q 72 -102 65.5 -126.5 Q 59 -151 58 -176 L 159 -176 Q 160 -158 166.5 -139.5 Q 173 -121 185.5 -107 Q 198 -93 216 -86.5 Q 234 -80 252 -80 Q 269 -80 285 -87 Q 301 -94 312.5 -107 Q 324 -120 330.5 -135.5 Q 337 -151 341 -167.5 Q 345 -184 346.5 -201 Q 348 -218 348 -235 Q 348 -252 346.5 -269 Q 345 -286 341.5 -302.5 Q 338 -319 331.5 -334.5 Q 325 -350 314.5 -363 Q 304 -376 288 -383.5 Q 272 -391 256 -391 Q 240 -391 224 -387 Q 208 -383 195.5 -373.5 Q 183 -364 176 -349.5 Q 169 -335 168 -319 L 68 -319 L 68 -735 L 421 -735 L 421 -647 L 168 -647 L 168 -464 Q 189 -472 211 -475 Q 233 -478 256 -478 Q 285 -478 313.5 -470.5 Q 342 -463 365.5 -445.5 Q 389 -428 405.5 -403 Q 422 -378 431.5 -350.5 Q 441 -323 444.5 -294 Q 448 -265 448 -235 Q 448 -206 444.5 -176.5 Q 441 -147 431 -119 Q 421 -91 404.5 -66.5 Q 388 -42 364 -24.5 Q 340 -7 311 0.5 Q 282 8 252 8 Z " id="path6"/>
<path d="M 250 8 Q 221 8 192.5 1.5 Q 164 -5 140 -21 Q 116 -37 98.5 -60.5 Q 81 -84 70.5 -111 Q 60 -138 56 -166.5 Q 52 -195 52 -224 Q 52 -268 59.5 -311 Q 67 -354 81 -395.5 Q 95 -437 113 -477 Q 131 -517 150 -556 L 238 -735 L 347 -735 L 240 -517 Q 228 -492 216 -467 Q 204 -442 194 -416 Q 212 -436 238.5 -446 Q 265 -456 292 -456 Q 318 -456 343.5 -447 Q 369 -438 387.5 -419.5 Q 406 -401 418 -377 Q 430 -353 436.5 -328 Q 443 -303 445.5 -276.5 Q 448 -250 448 -224 Q 448 -195 444 -166.5 Q 440 -138 429.5 -111 Q 419 -84 401.5 -60.5 Q 384 -37 360 -21 Q 336 -5 307.5 1.5 Q 279 8 250 8 Z M 250 -80 Q 266 -80 282 -85.5 Q 298 -91 309.5 -102.5 Q 321 -114 328.5 -129 Q 336 -144 340.5 -159.5 Q 345 -175 346.5 -191.5 Q 348 -208 348 -224 Q 348 -240 346.5 -256.5 Q 345 -273 340.5 -289 Q 336 -305 328.5 -319.5 Q 321 -334 309.5 -345.5 Q 298 -357 282 -362.5 Q 266 -368 250 -368 Q 235 -368 221 -363.5 Q 207 -359 195.5 -349.5 Q 184 -340 176 -327.5 Q 168 -315 163.5 -301 Q 159 -287 156.5 -272.5 Q 154 -258 153 -243 Q 153 -238 152.5 -233.5 Q 152 -229 152 -224 Q 152 -208 153.5 -191.5 Q 155 -175 159.5 -159.5 Q 164 -144 171.5 -129 Q 179 -114 190.5 -102.5 Q 202 -91 218 -85.5 Q 234 -80 250 -80 Z " id="path7"/>
<path d="M 138 0 L 336 -647 L 60 -647 L 60 -735 L 440 -735 L 440 -647 L 242 0 Z " id="path8"/>
<path d="M 250 8 Q 225 8 200 4 Q 175 -0 152 -10 Q 129 -20 109.5 -37 Q 90 -54 77.5 -75.5 Q 65 -97 58.5 -121.5 Q 52 -146 52 -172 Q 52 -203 61.5 -232.5 Q 71 -262 88 -288.5 Q 105 -315 127 -336.5 Q 149 -358 174 -378 Q 152 -396 132.5 -417 Q 113 -438 98.5 -462.5 Q 84 -487 76 -514.5 Q 68 -542 68 -570 Q 68 -594 73.5 -617.5 Q 79 -641 90.5 -661.5 Q 102 -682 119.5 -698.5 Q 137 -715 158 -725 Q 179 -735 202.5 -739 Q 226 -743 250 -743 Q 274 -743 297.5 -739 Q 321 -735 342 -725 Q 363 -715 380.5 -698.5 Q 398 -682 409.5 -661.5 Q 421 -641 426.5 -617.5 Q 432 -594 432 -570 Q 432 -542 424 -514.5 Q 416 -487 401.5 -462.5 Q 387 -438 367.5 -417 Q 348 -396 326 -378 Q 351 -358 373 -336.5 Q 395 -315 412 -288.5 Q 429 -262 438.5 -232.5 Q 448 -203 448 -172 Q 448 -146 441.5 -121.5 Q 435 -97 422.5 -75.5 Q 410 -54 390.5 -37 Q 371 -20 348 -10 Q 325 -0 300 4 Q 275 8 250 8 Z M 250 -434 Q 266 -447 280.5 -461.5 Q 295 -476 306.5 -493 Q 318 -510 325 -529.5 Q 332 -549 332 -569 Q 332 -586 327 -602.5 Q 322 -619 310.5 -631.5 Q 299 -644 283 -649.5 Q 267 -655 250 -655 Q 233 -655 217 -649.5 Q 201 -644 189.5 -631.5 Q 178 -619 173 -602.5 Q 168 -586 168 -569 Q 168 -549 175 -529.5 Q 182 -510 193.5 -493 Q 205 -476 219.5 -461.5 Q 234 -447 250 -434 Z M 250 -80 Q 269 -80 288 -85.5 Q 307 -91 320.5 -104 Q 334 -117 341 -135.5 Q 348 -154 348 -173 Q 348 -196 339.5 -217.5 Q 331 -239 317 -257.5 Q 303 -276 285.5 -291 Q 268 -306 250 -320 Q 232 -306 214.5 -291 Q 197 -276 183 -257.5 Q 169 -239 160.5 -217.5 Q 152 -196 152 -173 Q 152 -154 159 -135.5 Q 166 -117 179.5 -104 Q 193 -91 212 -85.5 Q 231 -80 250 -80 Z " id="path9"/>
<path d="M 262 0 L 153 0 L 260 -218 Q 272 -243 284 -268 Q 296 -293 306 -319 Q 288 -299 261.5 -289 Q 235 -279 208 -279 Q 182 -279 156.5 -288 Q 131 -297 112.5 -315.5 Q 94 -334 82 -358 Q 70 -382 63.5 -407 Q 57 -432 54.5 -458.5 Q 52 -485 52 -511 Q 52 -540 56 -568.5 Q 60 -597 70.5 -624 Q 81 -651 98.5 -674.5 Q 116 -698 140 -714 Q 164 -730 192.5 -736.5 Q 221 -743 250 -743 Q 279 -743 307.5 -736.5 Q 336 -730 360 -714 Q 384 -698 401.5 -674.5 Q 419 -651 429.5 -624 Q 440 -597 444 -568.5 Q 448 -540 448 -511 Q 448 -467 440.5 -424 Q 433 -381 419 -339.5 Q 405 -298 387 -258 Q 369 -218 350 -179 Z M 250 -367 Q 265 -367 279 -371.5 Q 293 -376 304.5 -385.5 Q 316 -395 324 -407.5 Q 332 -420 336.5 -434 Q 341 -448 343.5 -462.5 Q 346 -477 347 -492 Q 347 -497 347.5 -501.5 Q 348 -506 348 -511 Q 348 -527 346.5 -543.5 Q 345 -560 340.5 -575.5 Q 336 -591 328.5 -606 Q 321 -621 309.5 -632.5 Q 298 -644 282 -649.5 Q 266 -655 250 -655 Q 234 -655 218 -649.5 Q 202 -644 190.5 -632.5 Q 179 -621 171.5 -606 Q 164 -591 159.5 -575.5 Q 155 -560 153.5 -543.5 Q 152 -527 152 -511 Q 152 -495 153.5 -478.5 Q 155 -462 159.5 -446 Q 164 -430 171.5 -415.5 Q 179 -401 190.5 -389.5 Q 202 -378 218 -372.5 Q 234 -367 250 -367 Z " id="path10"/>
<path d="M 39 0 L 53 -70 L 192 -735 L 308 -735 L 461 0 L 359 0 L 326 -172 L 174 -172 L 141 0 Z M 310 -260 L 267 -490 Q 263 -513 258.5 -536 Q 254 -559 250 -582 Q 246 -559 241.5 -536 Q 237 -513 233 -490 L 190 -260 Z " id="path11"/>
<path d="M 60 0 L 60 -735 L 235 -735 Q 261 -735 287 -730.5 Q 313 -726 336.5 -714 Q 360 -702 378.5 -682.5 Q 397 -663 408.5 -639.5 Q 420 -616 424.5 -590 Q 429 -564 429 -538 Q 429 -515 425.5 -492 Q 422 -469 411.5 -448.5 Q 401 -428 384.5 -411 Q 368 -394 348 -383 Q 373 -373 394.5 -355.5 Q 416 -338 430.5 -314.5 Q 445 -291 450.5 -264 Q 456 -237 456 -210 Q 456 -181 450.5 -152.5 Q 445 -124 431 -98.5 Q 417 -73 395.5 -53.5 Q 374 -34 347.5 -21.5 Q 321 -9 292.5 -4.5 Q 264 -0 235 0 Z M 160 -424 L 235 -424 Q 256 -424 275.5 -432.5 Q 295 -441 307.5 -457.5 Q 320 -474 324.5 -494.5 Q 329 -515 329 -536 Q 329 -557 324.5 -577.5 Q 320 -598 307.5 -614.5 Q 295 -631 275.5 -639 Q 256 -647 235 -647 L 160 -647 Z M 160 -88 L 235 -88 Q 251 -88 267.5 -91 Q 284 -94 298.5 -101.5 Q 313 -109 324.5 -121 Q 336 -133 343 -148 Q 350 -163 353 -179 Q 356 -195 356 -212 Q 356 -228 353 -244.5 Q 350 -261 343 -276 Q 336 -291 324.5 -303 Q 313 -315 298.5 -322.5 Q 284 -330 267.5 -333 Q 251 -336 235 -336 L 160 -336 Z " id="path12"/>
<path d="M 247 8 Q 220 8 193 3 Q 166 -2 142.5 -15.5 Q 119 -29 101 -49.5 Q 83 -70 71.5 -94.5 Q 60 -119 56 -146 Q 52 -173 52 -200 L 52 -535 Q 52 -562 56 -589 Q 60 -616 71.5 -640.5 Q 83 -665 101 -685.5 Q 119 -706 142.5 -719.5 Q 166 -733 193 -738 Q 220 -743 247 -743 Q 273 -743 298 -738.5 Q 323 -734 346 -723 Q 369 -712 387.5 -694 Q 406 -676 418 -653.5 Q 430 -631 436 -606 Q 442 -581 442 -555 L 442 -548 L 342 -548 L 342 -552 Q 342 -572 336 -591.5 Q 330 -611 317.5 -626 Q 305 -641 286 -648 Q 267 -655 247 -655 Q 225 -655 205 -645.5 Q 185 -636 173 -618 Q 161 -600 156.5 -578.5 Q 152 -557 152 -535 L 152 -200 Q 152 -178 156.5 -156.5 Q 161 -135 173 -117 Q 185 -99 205 -89.5 Q 225 -80 247 -80 Q 267 -80 286 -87 Q 305 -94 317.5 -109 Q 330 -124 336 -143.5 Q 342 -163 342 -183 L 342 -187 L 442 -187 L 442 -180 Q 442 -154 436 -129 Q 430 -104 418 -81.5 Q 406 -59 387.5 -41 Q 369 -23 346 -12 Q 323 -1 298 3.5 Q 273 8 247 8 Z " id="path13"/>
<path d="M 60 0 L 60 -735 L 220 -735 Q 250 -735 280 -730 Q 310 -725 337 -712 Q 364 -699 386.5 -678.5 Q 409 -658 423 -631.5 Q 437 -605 442.5 -575 Q 448 -545 448 -515 L 448 -220 Q 448 -190 442.5 -160 Q 437 -130 423 -103.5 Q 409 -77 386.5 -56.5 Q 364 -36 337 -23 Q 310 -10 280 -5 Q 250 -0 220 0 Z M 160 -88 L 220 -88 Q 237 -88 254.5 -91 Q 272 -94 287.5 -102.5 Q 303 -111 315 -124 Q 327 -137 334.5 -152.5 Q 342 -168 345 -185.5 Q 348 -203 348 -220 L 348 -515 Q 348 -532 345 -549.5 Q 342 -567 334.5 -582.5 Q 327 -598 315 -611 Q 303 -624 287.5 -632.5 Q 272 -641 254.5 -644 Q 237 -647 220 -647 L 160 -647 Z " id="path14"/>
<path d="M 68 0 L 68 -735 L 440 -735 L 440 -647 L 168 -647 L 168 -426 L 383 -426 L 383 -338 L 168 -338 L 168 -88 L 440 -88 L 440 0 Z " id="path15"/>
<path d="M 90 0 L 90 -735 L 440 -735 L 440 -647 L 190 -647 L 190 -426 L 383 -426 L 383 -338 L 190 -338 L 190 0 Z " id="path16"/>
<path d="M 250 8 Q 223 8 196.5 2.5 Q 170 -3 147 -16.5 Q 124 -30 106.5 -50.5 Q 89 -71 78.5 -95.5 Q 68 -120 64 -146.5 Q 60 -173 60 -200 L 60 -735 L 160 -735 L 160 -200 Q 160 -186 161.5 -172 Q 163 -158 167.5 -144.5 Q 172 -131 179.5 -118.5 Q 187 -106 197.5 -97 Q 208 -88 222 -84 Q 236 -80 250 -80 Q 264 -80 278 -84 Q 292 -88 302.5 -97 Q 313 -106 320.5 -118.5 Q 328 -131 332.5 -144.5 Q 337 -158 338.5 -172 Q 340 -186 340 -200 L 340 -735 L 440 -735 L 440 -200 Q 440 -173 436 -146.5 Q 432 -120 421.5 -95.5 Q 411 -71 393.5 -50.5 Q 376 -30 353 -16.5 Q 330 -3 303.5 2.5 Q 277 8 250 8 Z " id="path17"/>
<path d="M 296 -142 L 204 -142 L 204 -300 L 60 -300 L 60 -380 L 204 -380 L 204 -538 L 296 -538 L 296 -380 L 440 -380 L 440 -300 L 296 -300 Z " id="path18"/>
<path d="M 289 -93 L 42 -340 L 289 -587 L 331 -549 L 146 -373 L 942 -373 L 942 -307 L 146 -307 L 331 -131 Z " id="path19"/>
<path d="M 467 102 L 467 -694 L 291 -509 L 253 -551 L 500 -798 L 747 -551 L 709 -509 L 533 -694 L 533 102 Z " id="path20"/>
<path d="M 711 -93 L 669 -131 L 854 -307 L 58 -307 L 58 -373 L 854 -373 L 669 -549 L 711 -587 L 958 -340 Z " id="path21"/>
<path d="M 500 118 L 253 -129 L 291 -171 L 467 14 L 467 -782 L 533 -782 L 533 14 L 709 -171 L 747 -129 Z " id="path22"/>
<path d="M 289 -93 L 42 -340 L 289 -587 L 331 -549 L 146 -373 L 854 -373 L 669 -549 L 711 -587 L 958 -340 L 711 -93 L 669 -131 L 854 -307 L 146 -307 L 331 -131 Z " id="path23"/>
<path d="M 500 118 L 253 -129 L 291 -171 L 467 14 L 467 -694 L 291 -509 L 253 -551 L 500 -798 L 747 -551 L 709 -509 L 533 -694 L 533 14 L 709 -171 L 747 -129 Z " id="path24"/>
<path d="M 848 30 L 167 -651 L 174 -396 L 117 -399 L 117 -749 L 467 -749 L 469 -692 L 214 -698 L 895 -17 Z " id="path25"/>
<path d="M 152 30 L 105 -17 L 786 -698 L 531 -692 L 533 -749 L 883 -749 L 883 -399 L 826 -396 L 833 -651 Z " id="path26"/>
<path d="M 883 18 L 533 18 L 531 -39 L 786 -33 L 105 -714 L 152 -761 L 833 -80 L 826 -335 L 883 -332 Z " id="path27"/>
<path d="M 117 18 L 117 -332 L 174 -335 L 167 -80 L 848 -761 L 895 -714 L 214 -33 L 469 -39 L 467 18 Z " id="path28"/>
<path d="M 289 -93 L 42 -340 L 289 -587 L 331 -549 L 146 -373 L 942 -373 L 942 -307 L 146 -307 L 331 -131 Z M 514 -59 L 464 -76 L 662 -621 L 712 -604 Z " id="path29"/>
<path d="M 711 -93 L 669 -131 L 854 -307 L 58 -307 L 58 -373 L 854 -373 L 669 -549 L 711 -587 L 958 -340 Z M 338 -59 L 288 -76 L 486 -621 L 536 -604 Z " id="path30"/>
<path d="M 289 -93 L 42 -340 L 289 -587 L 331 -549 L 142 -369 Q 191 -366 238 -349 Q 285 -332 328 -307 Q 338 -301 350.5 -299 Q 363 -297 375 -297 Q 390 -297 405 -300.5 Q 420 -304 431.5 -313.5 Q 443 -323 453 -335 Q 463 -347 472 -358 L 472 -359 Q 487 -377 502.5 -394 Q 518 -411 537 -423.5 Q 556 -436 579 -441 Q 602 -446 625 -446 Q 648 -446 671 -441 Q 694 -436 713 -423.5 Q 732 -411 747.5 -393.5 Q 763 -376 778 -358 L 779 -357 Q 789 -345 798.5 -333.5 Q 808 -322 819.5 -313 Q 831 -304 845.5 -300.5 Q 860 -297 875 -297 Q 885 -297 895 -298 Q 905 -299 914.5 -303 Q 924 -307 931.5 -313.5 Q 939 -320 946 -328 L 996 -285 Q 984 -272 970.5 -262 Q 957 -252 941.5 -245.5 Q 926 -239 909 -236.5 Q 892 -234 875 -234 Q 852 -234 829 -239 Q 806 -244 786.5 -256.5 Q 767 -269 751.5 -286.5 Q 736 -304 722 -322 Q 712 -334 702.5 -345.5 Q 693 -357 681.5 -366.5 Q 670 -376 655 -379.5 Q 640 -383 625 -383 Q 610 -383 595.5 -379.5 Q 581 -376 569.5 -367 Q 558 -358 548 -346.5 Q 538 -335 529 -323 L 528 -322 Q 514 -304 498.5 -286.5 Q 483 -269 463.5 -256.5 Q 444 -244 421 -239 Q 398 -234 375 -234 L 374 -234 Q 353 -234 332 -238.5 Q 311 -243 293 -253 Q 259 -272 222.5 -286.5 Q 186 -301 147 -306 L 331 -131 Z " id="path31"/>
<path d="M 711 -93 L 669 -131 L 858 -311 Q 809 -314 762 -331 Q 715 -348 672 -373 Q 662 -379 649.5 -381 Q 637 -383 625 -383 Q 610 -383 595 -379.5 Q 580 -376 568.5 -366.5 Q 557 -357 547 -345 Q 537 -333 528 -322 L 528 -321 Q 513 -303 497.5 -286 Q 482 -269 463 -256.5 Q 444 -244 421 -239 Q 398 -234 375 -234 Q 352 -234 329 -239 Q 306 -244 287 -256.5 Q 268 -269 252.5 -286.5 Q 237 -304 222 -322 L 221 -323 Q 211 -335 201.5 -346.5 Q 192 -358 180.5 -367 Q 169 -376 154.5 -379.5 Q 140 -383 125 -383 Q 115 -383 105 -382 Q 95 -381 85.5 -377 Q 76 -373 68.5 -366.5 Q 61 -360 54 -352 L 4 -395 Q 16 -408 29.5 -418 Q 43 -428 58.5 -434.5 Q 74 -441 91 -443.5 Q 108 -446 125 -446 Q 148 -446 171 -441 Q 194 -436 213.5 -423.5 Q 233 -411 248.5 -393.5 Q 264 -376 278 -358 Q 288 -346 297.5 -334.5 Q 307 -323 318.5 -313.5 Q 330 -304 345 -300.5 Q 360 -297 375 -297 Q 390 -297 404.5 -300.5 Q 419 -304 430.5 -313 Q 442 -322 452 -333.5 Q 462 -345 471 -357 L 472 -358 Q 486 -376 501.5 -393.5 Q 517 -411 536.5 -423.5 Q 556 -436 579 -441 Q 602 -446 625 -446 L 626 -446 Q 647 -446 668 -441.5 Q 689 -437 707 -427 Q 741 -408 777.5 -393.5 Q 814 -379 853 -374 L 669 -549 L 711 -587 L 958 -340 Z " id="path32"/>
<path d="M 289 -93 L 42 -340 L 289 -587 L 331 -549 L 146 -373 L 225 -373 L 439 -587 L 481 -549 L 296 -373 L 942 -373 L 942 -307 L 296 -307 L 481 -131 L 439 -93 L 225 -307 L 146 -307 L 331 -131 Z " id="path33"/>
<path d="M 467 102 L 467 -544 L 291 -359 L 253 -401 L 467 -615 L 467 -694 L 291 -509 L 253 -551 L 500 -798 L 747 -551 L 709 -509 L 533 -694 L 533 -615 L 747 -401 L 709 -359 L 533 -544 L 533 102 Z " id="path34"/>
<path d="M 561 -93 L 519 -131 L 704 -307 L 58 -307 L 58 -373 L 704 -373 L 519 -549 L 561 -587 L 775 -373 L 854 -373 L 669 -549 L 711 -587 L 958 -340 L 711 -93 L 669 -131 L 854 -307 L 775 -307 Z " id="path35"/>
<path d="M 500 118 L 253 -129 L 291 -171 L 467 14 L 467 -65 L 253 -279 L 291 -321 L 467 -136 L 467 -782 L 533 -782 L 533 -136 L 709 -321 L 747 -279 L 533 -65 L 533 14 L 709 -171 L 747 -129 Z " id="path36"/>
<path d="M 289 -93 L 42 -340 L 289 -587 L 331 -549 L 146 -373 L 712 -373 L 926 -587 L 968 -549 L 748 -340 L 968 -131 L 926 -93 L 712 -307 L 146 -307 L 331 -131 Z " id="path37"/>
<path d="M 74 -93 L 32 -131 L 252 -340 L 32 -549 L 74 -587 L 288 -373 L 854 -373 L 669 -549 L 711 -587 L 958 -340 L 711 -93 L 669 -131 L 854 -307 L 288 -307 Z " id="path38"/>
<path d="M 289 -93 L 42 -340 L 289 -587 L 331 -549 L 146 -373 L 873 -373 L 873 -587 L 942 -587 L 942 -93 L 873 -93 L 873 -307 L 146 -307 L 331 -131 Z " id="path39"/>
<path d="M 747 102 L 253 102 L 253 33 L 467 33 L 467 -694 L 291 -509 L 253 -551 L 500 -798 L 747 -551 L 709 -509 L 533 -694 L 533 33 L 747 33 Z " id="path40"/>
<path d="M 127 -93 L 58 -93 L 58 -587 L 127 -587 L 127 -373 L 854 -373 L 669 -549 L 711 -587 L 958 -340 L 711 -93 L 669 -131 L 854 -307 L 127 -307 Z " id="path41"/>
<path d="M 500 118 L 253 -129 L 291 -171 L 467 14 L 467 -713 L 253 -713 L 253 -782 L 747 -782 L 747 -713 L 533 -713 L 533 14 L 709 -171 L 747 -129 Z " id="path42"/>
<path d="M 500 56 L 253 -192 L 291 -233 L 467 -48 L 467 -694 L 291 -509 L 253 -551 L 500 -798 L 747 -551 L 709 -509 L 533 -694 L 533 -48 L 709 -233 L 747 -192 Z M 253 133 L 253 64 L 747 64 L 747 133 Z " id="path43"/>
<path d="M 289 -93 L 42 -340 L 289 -587 L 331 -549 L 146 -373 L 819 -373 Q 837 -373 855.5 -378 Q 874 -383 887.5 -396 Q 901 -409 907 -427 Q 913 -445 913 -464 Q 913 -482 907 -500.5 Q 901 -519 887.5 -531.5 Q 874 -544 855.5 -549 Q 837 -554 818 -554 L 818 -621 Q 840 -621 862 -617.5 Q 884 -614 904 -605 Q 924 -596 940.5 -581.5 Q 957 -567 968 -548 Q 979 -529 983 -507.5 Q 987 -486 987 -464 Q 987 -442 983 -420.5 Q 979 -399 968 -380 Q 957 -361 940.5 -346 Q 924 -331 904 -322.5 Q 884 -314 862 -310.5 Q 840 -307 819 -307 L 146 -307 L 331 -131 Z " id="path44"/>
<path d="M 711 -93 L 669 -131 L 854 -307 L 181 -307 Q 160 -307 138 -310.5 Q 116 -314 96 -322.5 Q 76 -331 59.5 -346 Q 43 -361 32 -380 Q 21 -399 17 -420.5 Q 13 -442 13 -464 Q 13 -486 17 -507.5 Q 21 -529 32 -548 Q 43 -567 59.5 -581.5 Q 76 -596 96 -605 Q 116 -614 138 -617.5 Q 160 -621 182 -621 L 182 -554 Q 163 -554 144.5 -549 Q 126 -544 112.5 -531.5 Q 99 -519 93 -500.5 Q 87 -482 87 -464 Q 87 -445 93 -427 Q 99 -409 112.5 -396 Q 126 -383 144.5 -378 Q 163 -373 181 -373 L 854 -373 L 669 -549 L 711 -587 L 958 -340 Z " id="path45"/>
<path d="M 289 -93 L 42 -340 L 289 -587 L 331 -549 L 146 -373 L 658 -373 L 658 -464 Q 658 -485 660.5 -507 Q 663 -529 673 -548.5 Q 683 -568 700 -582 Q 717 -596 737 -605 Q 757 -614 778.5 -617.5 Q 800 -621 822 -621 Q 854 -621 886 -611.5 Q 918 -602 942 -580.5 Q 966 -559 976.5 -527.5 Q 987 -496 987 -464 Q 987 -442 983 -420.5 Q 979 -399 968 -380 Q 957 -361 940.5 -346 Q 924 -331 904 -322.5 Q 884 -314 862 -310.5 Q 840 -307 819 -307 L 732 -307 L 732 -93 L 658 -93 L 658 -307 L 146 -307 L 331 -131 Z M 732 -373 L 819 -373 Q 837 -373 855.5 -378 Q 874 -383 887.5 -396 Q 901 -409 907 -427 Q 913 -445 913 -464 Q 913 -482 907.5 -500 Q 902 -518 889 -530.5 Q 876 -543 858 -548.5 Q 840 -554 822 -554 Q 803 -554 785 -548.5 Q 767 -543 754 -530.5 Q 741 -518 736.5 -500 Q 732 -482 732 -464 Z " id="path46"/>
<path d="M 342 -93 L 268 -93 L 268 -307 L 181 -307 Q 160 -307 138 -310.5 Q 116 -314 96 -322.5 Q 76 -331 59.5 -346 Q 43 -361 32 -380 Q 21 -399 17 -420.5 Q 13 -442 13 -464 Q 13 -496 23.5 -527.5 Q 34 -559 58 -580.5 Q 82 -602 114 -611.5 Q 146 -621 178 -621 Q 200 -621 221.5 -617.5 Q 243 -614 263 -605 Q 283 -596 300 -582 Q 317 -568 327 -548.5 Q 337 -529 339.5 -507 Q 342 -485 342 -464 L 342 -373 L 854 -373 L 669 -549 L 711 -587 L 958 -340 L 711 -93 L 669 -131 L 854 -307 L 342 -307 Z M 181 -373 L 268 -373 L 268 -464 Q 268 -482 263.5 -500 Q 259 -518 246 -530.5 Q 233 -543 215 -548.5 Q 197 -554 178 -554 Q 160 -554 142 -548.5 Q 124 -543 111 -530.5 Q 98 -518 92.5 -500 Q 87 -482 87 -464 Q 87 -445 93 -427 Q 99 -409 112.5 -396 Q 126 -383 144.5 -378 Q 163 -373 181 -373 Z " id="path47"/>
<path d="M 289 -93 L 42 -340 L 289 -587 L 331 -549 L 142 -369 Q 191 -366 238 -349 Q 285 -332 328 -307 Q 338 -301 350.5 -299 Q 363 -297 375 -297 Q 390 -297 405 -300.5 Q 420 -304 432 -314 Q 444 -324 453.5 -335.5 Q 463 -347 472.5 -359 Q 482 -371 492 -383 Q 502 -395 513.5 -405 Q 525 -415 537.5 -423.5 Q 550 -432 564.5 -437 Q 579 -442 594.5 -444 Q 610 -446 625 -446 Q 646 -446 667.5 -441.5 Q 689 -437 707 -427 Q 741 -408 777.5 -393.5 Q 814 -379 853 -374 L 669 -549 L 711 -587 L 958 -340 L 711 -93 L 669 -131 L 858 -311 Q 809 -314 762 -331 Q 715 -348 672 -373 Q 662 -379 649.5 -381 Q 637 -383 625 -383 Q 610 -383 595 -379.5 Q 580 -376 568 -366 Q 556 -356 546.5 -344.5 Q 537 -333 527.5 -321 Q 518 -309 508 -297 Q 498 -285 486.5 -275 Q 475 -265 462.5 -256.5 Q 450 -248 435.5 -243 Q 421 -238 405.5 -236 Q 390 -234 375 -234 Q 354 -234 332.5 -238.5 Q 311 -243 293 -253 Q 259 -272 222.5 -286.5 Q 186 -301 147 -306 L 331 -131 Z " id="path48"/>
<path d="M 289 -93 L 42 -340 L 289 -587 L 331 -549 L 146 -373 L 854 -373 L 669 -549 L 711 -587 L 958 -340 L 711 -93 L 669 -131 L 854 -307 L 146 -307 L 331 -131 Z M 426 -59 L 376 -76 L 574 -621 L 624 -604 Z " id="path49"/>
<path d="M 587 118 L 563 75 L 562 74 L 562 73 L 418 -189 L 466 -218 L 581 2 L 673 -353 L 226 -229 L 373 -791 L 444 -774 L 328 -327 L 774 -451 L 650 25 L 868 -103 L 893 -52 Z " id="path50"/>
<path d="M 732 102 L 732 -547 L 323 -547 L 463 -417 L 421 -378 L 219 -580 L 421 -782 L 463 -744 L 323 -613 L 799 -613 L 799 102 Z " id="path51"/>
<path d="M 201 102 L 201 -613 L 677 -613 L 625 -662 L 537 -744 L 579 -782 L 781 -580 L 579 -378 L 537 -417 L 677 -547 L 268 -547 L 268 102 Z " id="path52"/>
<path d="M 421 102 L 219 -100 L 421 -302 L 463 -263 L 323 -133 L 732 -133 L 732 -782 L 799 -782 L 799 -67 L 323 -67 L 463 64 Z " id="path53"/>
<path d="M 579 102 L 537 64 L 677 -67 L 201 -67 L 201 -782 L 268 -782 L 268 -133 L 677 -133 L 537 -263 L 579 -302 L 781 -100 Z " id="path54"/>
<path d="M 695 118 L 447 -129 L 486 -171 L 662 14 L 662 -749 L 58 -749 L 58 -815 L 728 -815 L 728 14 L 904 -171 L 942 -129 Z " id="path55"/>
<path d="M 289 102 L 42 -145 L 289 -393 L 331 -354 L 146 -178 L 909 -178 L 909 -782 L 975 -782 L 975 -112 L 146 -112 L 221 -41 L 331 64 Z " id="path56"/>
<path d="M 173 -246 L 16 -403 L 55 -445 L 136 -356 Q 138 -403 147.5 -450 Q 157 -497 180 -538.5 Q 203 -580 238 -613.5 Q 273 -647 315.5 -667.5 Q 358 -688 405.5 -696 Q 453 -704 500 -704 Q 549 -704 597.5 -695.5 Q 646 -687 689.5 -665 Q 733 -643 768 -608 Q 803 -573 825 -529.5 Q 847 -486 855.5 -437.5 Q 864 -389 864 -340 L 790 -340 Q 790 -379 783.5 -418.5 Q 777 -458 760 -493.5 Q 743 -529 715 -557.5 Q 687 -586 652.5 -604.5 Q 618 -623 578.5 -630 Q 539 -637 500 -637 Q 462 -637 424 -630.5 Q 386 -624 352 -607 Q 318 -590 290.5 -563 Q 263 -536 245 -502.5 Q 227 -469 219 -431.5 Q 211 -394 210 -356 L 291 -445 L 330 -403 Z " id="path57"/>
<path d="M 827 -246 L 670 -403 L 709 -445 L 790 -356 Q 789 -394 781 -431.5 Q 773 -469 755 -502.5 Q 737 -536 709.5 -563 Q 682 -590 648 -607 Q 614 -624 576 -630.5 Q 538 -637 500 -637 Q 461 -637 421.5 -630 Q 382 -623 347.5 -604.5 Q 313 -586 285 -557.5 Q 257 -529 240 -493.5 Q 223 -458 216.5 -418.5 Q 210 -379 210 -340 L 136 -340 Q 136 -389 144.5 -437.5 Q 153 -486 175 -529.5 Q 197 -573 232 -608 Q 267 -643 310.5 -665 Q 354 -687 402.5 -695.5 Q 451 -704 500 -704 Q 547 -704 594.5 -696 Q 642 -688 684.5 -667.5 Q 727 -647 762 -613.5 Q 797 -580 820 -538.5 Q 843 -497 852.5 -450 Q 862 -403 864 -356 L 945 -445 L 984 -403 Z " id="path58"/>
<path d="M 235 -625 L 235 -692 L 765 -692 L 765 -625 Z M 742 35 L 274 -433 L 280 -178 L 223 -180 L 223 -530 L 573 -530 L 576 -473 L 321 -480 L 789 -12 Z " id="path59"/>
<path d="M 904 124 L 904 -370 L 973 -370 L 973 124 Z M 648 124 L 607 86 L 792 -90 L 58 -90 L 58 -156 L 792 -156 L 607 -332 L 648 -370 L 896 -123 Z M 96 -310 L 27 -310 L 27 -804 L 96 -804 Z M 352 -310 L 104 -557 L 352 -804 L 393 -766 L 208 -590 L 942 -590 L 942 -524 L 208 -524 L 393 -348 Z " id="path60"/>
<path d="M 500 24 Q 451 24 402.5 15.5 Q 354 7 310.5 -15 Q 267 -37 232 -72 Q 197 -107 175 -150.5 Q 153 -194 144.5 -242.5 Q 136 -291 136 -340 L 210 -340 Q 210 -301 216.5 -261.5 Q 223 -222 240 -186.5 Q 257 -151 285 -122.5 Q 313 -94 347.5 -75.5 Q 382 -57 421.5 -50 Q 461 -43 500 -43 Q 539 -43 578.5 -50 Q 618 -57 652.5 -75.5 Q 687 -94 715 -122.5 Q 743 -151 760 -186.5 Q 777 -222 783.5 -261.5 Q 790 -301 790 -340 Q 790 -378 784 -416.5 Q 778 -455 761.5 -489.5 Q 745 -524 719 -553 Q 693 -582 659.5 -601 Q 626 -620 588.5 -628 Q 551 -636 512 -637 L 605 -552 L 563 -514 L 406 -671 L 563 -827 L 605 -789 L 512 -704 Q 560 -703 607 -693.5 Q 654 -684 696.5 -661.5 Q 739 -639 772.5 -604 Q 806 -569 827 -526 Q 848 -483 856 -435.5 Q 864 -388 864 -340 Q 864 -291 855.5 -242.5 Q 847 -194 825 -150.5 Q 803 -107 768 -72 Q 733 -37 689.5 -15 Q 646 7 597.5 15.5 Q 549 24 500 24 Z " id="path61"/>
<path d="M 500 24 Q 451 24 402.5 15.5 Q 354 7 310.5 -15 Q 267 -37 232 -72 Q 197 -107 175 -150.5 Q 153 -194 144.5 -242.5 Q 136 -291 136 -340 Q 136 -388 144 -435.5 Q 152 -483 173 -526 Q 194 -569 227.5 -604 Q 261 -639 303.5 -661.5 Q 346 -684 393 -693.5 Q 440 -703 488 -704 L 395 -789 L 437 -827 L 594 -671 L 437 -514 L 395 -552 L 488 -637 Q 449 -636 411.5 -628 Q 374 -620 340.5 -601 Q 307 -582 281 -553 Q 255 -524 238.5 -489.5 Q 222 -455 216 -416.5 Q 210 -378 210 -340 Q 210 -301 216.5 -261.5 Q 223 -222 240 -186.5 Q 257 -151 285 -122.5 Q 313 -94 347.5 -75.5 Q 382 -57 421.5 -50 Q 461 -43 500 -43 Q 539 -43 578.5 -50 Q 618 -57 652.5 -75.5 Q 687 -94 715 -122.5 Q 743 -151 760 -186.5 Q 777 -222 783.5 -261.5 Q 790 -301 790 -340 L 864 -340 Q 864 -291 855.5 -242.5 Q 847 -194 825 -150.5 Q 803 -107 768 -72 Q 733 -37 689.5 -15 Q 646 7 597.5 15.5 Q 549 24 500 24 Z " id="path62"/>
<path d="M 942 -307 L 42 -307 L 289 -587 L 334 -551 L 172 -373 L 942 -373 Z " id="path63"/>
<path d="M 289 -93 L 42 -373 L 942 -373 L 942 -307 L 172 -307 L 334 -129 Z " id="path64"/>
<path d="M 467 102 L 467 -798 L 747 -551 L 711 -506 L 533 -668 L 533 102 Z " id="path65"/>
<path d="M 467 102 L 467 -668 L 289 -506 L 253 -551 L 533 -798 L 533 102 Z " id="path66"/>
<path d="M 58 -307 L 58 -373 L 828 -373 L 666 -551 L 711 -587 L 958 -307 Z " id="path67"/>
<path d="M 711 -93 L 666 -129 L 828 -307 L 58 -307 L 58 -373 L 958 -373 Z " id="path68"/>
<path d="M 467 118 L 467 -782 L 533 -782 L 533 -12 L 711 -174 L 747 -129 Z " id="path69"/>
<path d="M 533 118 L 253 -129 L 289 -174 L 467 -12 L 467 -782 L 533 -782 Z " id="path70"/>
<path d="M 289 124 L 42 -123 L 289 -370 L 331 -332 L 146 -156 L 942 -156 L 942 -90 L 146 -90 L 331 86 Z M 711 -310 L 669 -348 L 854 -524 L 58 -524 L 58 -590 L 854 -590 L 669 -766 L 711 -804 L 958 -557 Z " id="path71"/>
<path d="M 246 102 L 246 -694 L 70 -509 L 32 -551 L 279 -798 L 526 -551 L 488 -509 L 312 -694 L 312 102 Z M 721 118 L 474 -129 L 512 -171 L 688 14 L 688 -782 L 754 -782 L 754 14 L 930 -171 L 968 -129 Z " id="path72"/>
<path d="M 711 124 L 669 86 L 854 -90 L 58 -90 L 58 -156 L 854 -156 L 669 -332 L 711 -370 L 958 -123 Z M 289 -310 L 42 -557 L 289 -804 L 331 -766 L 146 -590 L 942 -590 L 942 -524 L 146 -524 L 331 -348 Z " id="path73"/>
<path d="M 289 124 L 42 -123 L 289 -370 L 331 -332 L 146 -156 L 942 -156 L 942 -90 L 146 -90 L 331 86 Z M 289 -310 L 42 -557 L 289 -804 L 331 -766 L 146 -590 L 942 -590 L 942 -524 L 146 -524 L 331 -348 Z " id="path74"/>
<path d="M 246 102 L 246 -694 L 70 -509 L 32 -551 L 279 -798 L 526 -551 L 488 -509 L 312 -694 L 312 102 Z M 688 102 L 688 -694 L 512 -509 L 474 -551 L 721 -798 L 968 -551 L 930 -509 L 754 -694 L 754 102 Z " id="path75"/>
<path d="M 711 124 L 669 86 L 854 -90 L 58 -90 L 58 -156 L 854 -156 L 669 -332 L 711 -370 L 958 -123 Z M 711 -310 L 669 -348 L 854 -524 L 58 -524 L 58 -590 L 854 -590 L 669 -766 L 711 -804 L 958 -557 Z " id="path76"/>
<path d="M 279 118 L 32 -129 L 70 -171 L 246 14 L 246 -782 L 312 -782 L 312 14 L 488 -171 L 526 -129 Z M 721 118 L 474 -129 L 512 -171 L 688 14 L 688 -782 L 754 -782 L 754 14 L 930 -171 L 968 -129 Z " id="path77"/>
<path d="M 711 31 L 666 -5 L 828 -183 L 58 -183 L 58 -249 L 958 -249 Z M 942 -431 L 42 -431 L 289 -711 L 334 -675 L 172 -497 L 942 -497 Z " id="path78"/>
<path d="M 289 31 L 42 -249 L 942 -249 L 942 -183 L 172 -183 L 334 -5 Z M 58 -431 L 58 -497 L 828 -497 L 666 -675 L 711 -711 L 958 -431 Z " id="path79"/>
<path d="M 289 -93 L 42 -340 L 289 -587 L 331 -549 L 254 -476 L 942 -476 L 942 -410 L 184 -410 L 111 -340 L 184 -270 L 942 -270 L 942 -204 L 254 -204 L 331 -131 Z M 514 -59 L 464 -76 L 662 -621 L 712 -604 Z " id="path80"/>
<path d="M 289 -93 L 42 -340 L 289 -587 L 331 -549 L 254 -476 L 746 -476 L 669 -549 L 711 -587 L 958 -340 L 711 -93 L 669 -131 L 746 -204 L 254 -204 L 331 -131 Z M 816 -270 L 889 -340 L 816 -410 L 184 -410 L 111 -340 L 184 -270 Z M 426 -59 L 376 -76 L 574 -621 L 624 -604 Z " id="path81"/>
<path d="M 711 -93 L 669 -131 L 746 -204 L 58 -204 L 58 -270 L 816 -270 L 889 -340 L 816 -410 L 58 -410 L 58 -476 L 746 -476 L 669 -549 L 711 -587 L 958 -340 Z M 338 -59 L 288 -76 L 486 -621 L 536 -604 Z " id="path82"/>
<path d="M 289 -93 L 42 -340 L 289 -587 L 331 -549 L 254 -476 L 942 -476 L 942 -410 L 184 -410 L 111 -340 L 184 -270 L 942 -270 L 942 -204 L 254 -204 L 331 -131 Z " id="path83"/>
<path d="M 364 102 L 364 -586 L 291 -509 L 253 -551 L 500 -798 L 747 -551 L 709 -509 L 636 -586 L 636 102 L 570 102 L 570 -656 L 500 -729 L 430 -656 L 430 102 Z " id="path84"/>
<path d="M 711 -93 L 669 -131 L 746 -204 L 58 -204 L 58 -270 L 816 -270 L 889 -340 L 816 -410 L 58 -410 L 58 -476 L 746 -476 L 669 -549 L 711 -587 L 958 -340 Z " id="path85"/>
<path d="M 500 118 L 253 -129 L 291 -171 L 364 -94 L 364 -782 L 430 -782 L 430 -24 L 500 49 L 570 -24 L 570 -782 L 636 -782 L 636 -94 L 709 -171 L 747 -129 Z " id="path86"/>
<path d="M 289 -93 L 42 -340 L 289 -587 L 331 -549 L 254 -476 L 746 -476 L 669 -549 L 711 -587 L 958 -340 L 711 -93 L 669 -131 L 746 -204 L 254 -204 L 331 -131 Z M 816 -270 L 889 -340 L 816 -410 L 184 -410 L 111 -340 L 184 -270 Z " id="path87"/>
<path d="M 500 49 L 570 -24 L 570 -656 L 500 -729 L 430 -656 L 430 -24 Z M 500 118 L 253 -129 L 291 -171 L 364 -94 L 364 -586 L 291 -509 L 253 -551 L 500 -798 L 747 -551 L 709 -509 L 636 -586 L 636 -94 L 709 -171 L 747 -129 Z " id="path88"/>
<path d="M 776 103 L 171 -502 L 174 -396 L 117 -399 L 117 -749 L 467 -749 L 469 -692 L 363 -695 L 968 -90 L 921 -43 L 267 -697 L 166 -700 L 168 -599 L 823 56 Z " id="path89"/>
<path d="M 224 103 L 177 56 L 832 -599 L 834 -700 L 733 -697 L 79 -43 L 55 -66 L 32 -90 L 637 -695 L 531 -692 L 533 -749 L 883 -749 L 883 -399 L 826 -396 L 829 -502 Z " id="path90"/>
<path d="M 883 18 L 533 18 L 531 -39 L 637 -36 L 32 -641 L 79 -688 L 733 -34 L 834 -31 L 832 -132 L 177 -787 L 224 -834 L 829 -229 L 826 -335 L 883 -332 Z " id="path91"/>
<path d="M 117 18 L 117 -332 L 174 -335 L 171 -229 L 776 -834 L 823 -787 L 168 -132 L 166 -31 L 267 -34 L 921 -688 L 968 -641 L 363 -36 L 469 -39 L 467 18 Z " id="path92"/>
<path d="M 289 -93 L 42 -340 L 289 -587 L 331 -549 L 254 -476 L 942 -476 L 942 -410 L 184 -410 L 146 -373 L 942 -373 L 942 -307 L 146 -307 L 184 -270 L 942 -270 L 942 -204 L 254 -204 L 331 -131 Z " id="path93"/>
<path d="M 711 -93 L 669 -131 L 746 -204 L 58 -204 L 58 -270 L 816 -270 L 854 -307 L 58 -307 L 58 -373 L 854 -373 L 816 -410 L 58 -410 L 58 -476 L 746 -476 L 669 -549 L 711 -587 L 958 -340 Z " id="path94"/>
<path d="M 289 -93 L 42 -340 L 289 -587 L 331 -549 L 146 -373 L 279 -373 L 325 -300 L 417 -462 L 509 -300 L 601 -462 L 693 -300 L 786 -462 L 832 -373 L 942 -373 L 942 -307 L 832 -307 L 786 -380 L 693 -218 L 601 -380 L 509 -218 L 417 -380 L 325 -218 L 279 -307 L 146 -307 L 331 -131 Z " id="path95"/>
<path d="M 711 -93 L 669 -131 L 854 -307 L 721 -307 L 675 -380 L 583 -218 L 491 -380 L 399 -218 L 307 -380 L 214 -218 L 168 -307 L 58 -307 L 58 -373 L 168 -373 L 214 -300 L 307 -462 L 399 -300 L 491 -462 L 583 -300 L 675 -462 L 721 -373 L 854 -373 L 669 -549 L 711 -587 L 958 -340 Z " id="path96"/>
<path d="M 467 102 L 467 -694 L 291 -509 L 253 -551 L 500 -798 L 747 -551 L 709 -509 L 533 -694 L 533 102 Z M 720 -320 L 280 -320 L 280 -369 L 720 -369 Z M 720 -135 L 280 -135 L 280 -184 L 720 -184 Z " id="path97"/>
<path d="M 500 118 L 253 -129 L 291 -171 L 467 14 L 467 -782 L 533 -782 L 533 14 L 709 -171 L 747 -129 Z M 720 -496 L 280 -496 L 280 -545 L 720 -545 Z M 720 -311 L 280 -311 L 280 -360 L 720 -360 Z " id="path98"/>
<path d="M 289 -93 L 42 -340 L 289 -587 L 331 -549 L 146 -373 L 224 -373 L 224 -307 L 146 -307 L 331 -131 Z M 856 -307 L 856 -373 L 942 -373 L 942 -307 Z M 662 -307 L 662 -373 L 808 -373 L 808 -307 Z M 467 -307 L 467 -373 L 613 -373 L 613 -307 Z M 273 -307 L 273 -373 L 419 -373 L 419 -307 Z " id="path99"/>
<path d="M 291 -509 L 253 -551 L 500 -798 L 747 -551 L 709 -509 L 533 -694 L 533 -616 L 467 -616 L 467 -694 Z M 467 -421 L 467 -567 L 533 -567 L 533 -421 Z M 467 -227 L 467 -373 L 533 -373 L 533 -227 Z M 467 -32 L 467 -178 L 533 -178 L 533 -32 Z M 467 102 L 467 16 L 533 16 L 533 102 Z " id="path100"/>
<path d="M 711 -93 L 669 -131 L 854 -307 L 776 -307 L 776 -373 L 854 -373 L 669 -549 L 711 -587 L 958 -340 Z M 144 -307 L 58 -307 L 58 -373 L 144 -373 Z M 192 -307 L 192 -373 L 338 -373 L 338 -307 Z M 387 -307 L 387 -373 L 533 -373 L 533 -307 Z M 581 -307 L 581 -373 L 727 -373 L 727 -307 Z " id="path101"/>
<path d="M 467 -696 L 467 -782 L 533 -782 L 533 -696 Z M 467 -502 L 467 -648 L 533 -648 L 533 -502 Z M 533 -307 L 467 -307 L 467 -453 L 533 -453 Z M 533 -113 L 467 -113 L 467 -259 L 533 -259 Z M 500 118 L 253 -129 L 291 -171 L 467 14 L 467 -64 L 533 -64 L 533 14 L 709 -171 L 747 -129 Z " id="path102"/>
<path d="M 96 -93 L 27 -93 L 27 -587 L 96 -587 Z M 352 -93 L 104 -340 L 352 -587 L 393 -549 L 208 -373 L 942 -373 L 942 -307 L 208 -307 L 393 -131 Z " id="path103"/>
<path d="M 904 -93 L 904 -587 L 973 -587 L 973 -93 Z M 648 -93 L 607 -131 L 792 -307 L 58 -307 L 58 -373 L 792 -373 L 607 -549 L 648 -587 L 896 -340 Z " id="path104"/>
<path d="M 341 -135 L 42 -340 L 341 -545 L 341 -461 L 942 -461 L 942 -219 L 341 -219 Z M 287 -236 L 287 -273 L 888 -273 L 888 -407 L 287 -407 L 287 -444 L 139 -340 Z " id="path105"/>
<path d="M 379 102 L 379 -499 L 295 -499 L 500 -798 L 705 -499 L 621 -499 L 621 102 Z M 433 48 L 567 48 L 567 -553 L 604 -553 L 500 -701 L 396 -553 L 433 -553 Z " id="path106"/>
<path d="M 659 -135 L 659 -219 L 58 -219 L 58 -461 L 659 -461 L 659 -545 L 958 -340 Z M 713 -236 L 861 -340 L 713 -444 L 713 -407 L 112 -407 L 112 -273 L 713 -273 Z " id="path107"/>
<path d="M 500 118 L 295 -181 L 379 -181 L 379 -782 L 621 -782 L 621 -181 L 705 -181 Z M 500 21 L 604 -127 L 567 -127 L 567 -728 L 433 -728 L 433 -127 L 396 -127 Z " id="path108"/>
<path d="M 433 -173 L 567 -173 L 567 -553 L 604 -553 L 500 -701 L 396 -553 L 433 -553 Z M 379 102 L 379 -62 L 621 -62 L 621 102 Z M 433 48 L 567 48 L 567 -8 L 433 -8 Z M 379 -119 L 379 -499 L 295 -499 L 500 -798 L 705 -499 L 621 -499 L 621 -119 Z " id="path109"/>
<path d="M 365 48 L 635 48 L 635 -8 L 567 -8 L 567 -553 L 604 -553 L 500 -701 L 396 -553 L 433 -553 L 433 -8 L 365 -8 Z M 311 102 L 311 -62 L 379 -62 L 379 -499 L 295 -499 L 500 -798 L 705 -499 L 621 -499 L 621 -62 L 689 -62 L 689 102 Z " id="path110"/>
<path d="M 365 48 L 635 48 L 635 -8 L 567 -8 L 567 -553 L 604 -553 L 581 -586 L 419 -586 L 396 -553 L 433 -553 L 433 -8 L 365 -8 Z M 457 -640 L 543 -640 L 500 -701 Z M 311 102 L 311 -62 L 379 -62 L 379 -499 L 295 -499 L 500 -798 L 705 -499 L 621 -499 L 621 -62 L 689 -62 L 689 102 Z " id="path111"/>
<path d="M 473 48 L 473 -663 L 396 -553 L 433 -553 L 433 -8 L 365 -8 L 365 48 Z M 527 48 L 635 48 L 635 -8 L 567 -8 L 567 -553 L 604 -553 L 527 -663 Z M 311 102 L 311 -62 L 379 -62 L 379 -499 L 295 -499 L 500 -798 L 705 -499 L 621 -499 L 621 -62 L 689 -62 L 689 102 Z " id="path112"/>
<path d="M 567 48 L 567 -400 L 604 -400 L 500 -547 L 396 -400 L 433 -400 L 433 48 Z M 396 -553 L 438 -553 L 500 -645 L 562 -553 L 604 -553 L 500 -701 Z M 379 102 L 379 -346 L 295 -346 L 401 -499 L 295 -499 L 500 -798 L 705 -499 L 599 -499 L 705 -346 L 621 -346 L 621 102 Z " id="path113"/>
<path d="M 365 48 L 635 48 L 635 -8 L 567 -8 L 567 -400 L 604 -400 L 500 -547 L 396 -400 L 433 -400 L 433 -8 L 365 -8 Z M 396 -553 L 438 -553 L 500 -645 L 562 -553 L 604 -553 L 500 -701 Z M 311 102 L 311 -62 L 379 -62 L 379 -346 L 295 -346 L 401 -499 L 295 -499 L 500 -798 L 705 -499 L 599 -499 L 705 -346 L 621 -346 L 621 -62 L 689 -62 L 689 102 Z " id="path114"/>
<path d="M 659 -135 L 659 -219 L 222 -219 L 222 -151 L 58 -151 L 58 -529 L 222 -529 L 222 -461 L 659 -461 L 659 -545 L 958 -340 Z M 168 -205 L 168 -273 L 713 -273 L 713 -236 L 861 -340 L 713 -444 L 713 -407 L 168 -407 L 168 -475 L 112 -475 L 112 -205 Z " id="path115"/>
<path d="M 222 12 L 148 12 L 148 -692 L 852 -692 L 852 -625 L 222 -625 Z M 828 35 L 360 -433 L 367 -178 L 310 -180 L 310 -530 L 660 -530 L 662 -473 L 407 -480 L 875 -12 Z " id="path116"/>
<path d="M 340 -150 L 338 -207 L 593 -200 L 125 -668 L 172 -715 L 640 -247 L 633 -502 L 690 -500 L 690 -150 Z M 148 12 L 148 -55 L 778 -55 L 778 -692 L 852 -692 L 852 12 Z " id="path117"/>
<path d="M 500 21 L 604 -127 L 567 -127 L 567 -553 L 604 -553 L 500 -701 L 396 -553 L 433 -553 L 433 -127 L 396 -127 Z M 500 118 L 295 -181 L 379 -181 L 379 -499 L 295 -499 L 500 -798 L 705 -499 L 621 -499 L 621 -181 L 705 -181 Z " id="path118"/>
<path d="M 522 -367 Q 519 -387 510 -405 Q 501 -423 485.5 -435.5 Q 470 -448 450.5 -453 Q 431 -458 412 -458 Q 392 -458 372.5 -453 Q 353 -448 337.5 -435.5 Q 322 -423 313 -405 Q 304 -387 301 -367 Z M 412 -222 Q 431 -222 450.5 -227 Q 470 -232 485.5 -244.5 Q 501 -257 510 -275 Q 519 -293 522 -313 L 301 -313 Q 304 -293 313 -275 Q 322 -257 337.5 -244.5 Q 353 -232 372.5 -227 Q 392 -222 412 -222 Z M 711 -93 L 669 -131 L 854 -307 L 583 -307 Q 579 -276 565 -248 Q 551 -220 527 -201 Q 503 -182 472.5 -174.5 Q 442 -167 412 -167 Q 381 -167 350.5 -174.5 Q 320 -182 296 -201 Q 272 -220 258 -248 Q 244 -276 240 -307 L 58 -307 L 58 -373 L 240 -373 Q 244 -404 258 -432 Q 272 -460 296 -479 Q 320 -498 350.5 -505.5 Q 381 -513 412 -513 Q 442 -513 472.5 -505.5 Q 503 -498 527 -479 Q 551 -460 565 -432 Q 579 -404 583 -373 L 854 -373 L 669 -549 L 711 -587 L 958 -340 Z " id="path119"/>
<path d="M 279 118 L 32 -129 L 70 -171 L 246 14 L 246 -782 L 312 -782 L 312 14 L 488 -171 L 526 -129 Z M 688 102 L 688 -694 L 512 -509 L 474 -551 L 721 -798 L 968 -551 L 930 -509 L 754 -694 L 754 102 Z " id="path120"/>
<path d="M 756 200 L 714 161 L 853 31 L 58 31 L 58 -35 L 853 -35 L 714 -166 L 720 -171 L 714 -177 L 853 -307 L 58 -307 L 58 -373 L 853 -373 L 714 -503 L 720 -509 L 714 -514 L 853 -645 L 58 -645 L 58 -711 L 853 -711 L 714 -841 L 756 -880 L 958 -678 L 789 -509 L 958 -340 L 789 -171 L 958 -2 Z " id="path121"/>
<path d="M 289 -93 L 42 -340 L 289 -587 L 331 -549 L 146 -373 L 942 -373 L 942 -307 L 146 -307 L 331 -131 Z M 615 -120 L 561 -120 L 561 -560 L 615 -560 Z " id="path122"/>
<path d="M 711 -93 L 669 -131 L 854 -307 L 58 -307 L 58 -373 L 854 -373 L 669 -549 L 711 -587 L 958 -340 Z M 439 -120 L 385 -120 L 385 -560 L 439 -560 Z " id="path123"/>
<path d="M 289 -93 L 42 -340 L 289 -587 L 331 -549 L 146 -373 L 854 -373 L 669 -549 L 711 -587 L 958 -340 L 711 -93 L 669 -131 L 854 -307 L 146 -307 L 331 -131 Z M 527 -120 L 473 -120 L 473 -560 L 527 -560 Z " id="path124"/>
<path d="M 289 -93 L 42 -340 L 289 -587 L 331 -549 L 146 -373 L 942 -373 L 942 -307 L 146 -307 L 331 -131 Z M 645 -120 L 645 -560 L 699 -560 L 699 -120 Z M 477 -120 L 477 -560 L 531 -560 L 531 -120 Z " id="path125"/>
<path d="M 711 -93 L 669 -131 L 854 -307 L 58 -307 L 58 -373 L 854 -373 L 669 -549 L 711 -587 L 958 -340 Z M 469 -120 L 469 -560 L 523 -560 L 523 -120 Z M 301 -120 L 301 -560 L 355 -560 L 355 -120 Z " id="path126"/>
<path d="M 289 -93 L 42 -340 L 289 -587 L 331 -549 L 146 -373 L 854 -373 L 669 -549 L 711 -587 L 958 -340 L 711 -93 L 669 -131 L 854 -307 L 146 -307 L 331 -131 Z M 557 -120 L 557 -560 L 611 -560 L 611 -120 Z M 389 -120 L 389 -560 L 443 -560 L 443 -120 Z " id="path127"/>
<path d="M 243 -138 L 42 -340 L 243 -542 L 243 -373 L 942 -373 L 942 -307 L 243 -307 Z M 189 -269 L 189 -411 L 118 -340 Z " id="path128"/>
<path d="M 757 -138 L 757 -307 L 58 -307 L 58 -373 L 757 -373 L 757 -542 L 958 -340 Z M 811 -269 L 882 -340 L 811 -411 Z " id="path129"/>
<path d="M 243 -138 L 42 -340 L 243 -542 L 243 -373 L 757 -373 L 757 -542 L 958 -340 L 757 -138 L 757 -307 L 243 -307 Z M 811 -269 L 882 -340 L 811 -411 Z M 189 -269 L 189 -411 L 118 -340 Z " id="path130"/>
</defs>
<g>
<g data-source-text="0" fill="#dee4e3" transform="translate(174 41.292) rotate(0) scale(0.023999998)">
<use href="#path1" transform="translate(0 0)"/>
</g>
</g>
<g>
<g data-source-text="1" fill="#dee4e3" transform="translate(246 41.292) rotate(0) scale(0.023999998)">
<use href="#path2" transform="translate(0 0)"/>
</g>
</g>
<g>
<g data-source-text="2" fill="#dee4e3" transform="translate(318 41.292) rotate(0) scale(0.023999998)">
<use href="#path3" transform="translate(0 0)"/>
</g>
</g>
<g>
<g data-source-text="3" fill="#dee4e3" transform="translate(390 41.292) rotate(0) scale(0.023999998)">
<use href="#path4" transform="translate(0 0)"/>
</g>
</g>
<g>
<g data-source-text="4" fill="#dee4e3" transform="translate(462 41.292) rotate(0) scale(0.023999998)">
<use href="#path5" transform="translate(0 0)"/>
</g>
</g>
<g>
<g data-source-text="5" fill="#dee4e3" transform="translate(534 41.292) rotate(0) scale(0.023999998)">
<use href="#path6" transform="translate(0 0)"/>
</g>
</g>
<g>
<g data-source-text="6" fill="#dee4e3" transform="translate(606 41.292) rotate(0) scale(0.023999998)">
<use href="#path7" transform="translate(0 0)"/>
</g>
</g>
<g>
<g data-source-text="7" fill="#dee4e3" transform="translate(678 41.292) rotate(0) scale(0.023999998)">
<use href="#path8" transform="translate(0 0)"/>
</g>
</g>
<g>
<g data-source-text="8" fill="#dee4e3" transform="translate(750 41.292) rotate(0) scale(0.023999998)">
<use href="#path9" transform="translate(0 0)"/>
</g>
</g>
<g>
<g data-source-text="9" fill="#dee4e3" transform="translate(822 41.292) rotate(0) scale(0.023999998)">
<use href="#path10" transform="translate(0 0)"/>
</g>
</g>
<g>
<g data-source-text="A" fill="#dee4e3" transform="translate(894 41.292) rotate(0) scale(0.023999998)">
<use href="#path11" transform="translate(0 0)"/>
</g>
</g>
<g>
<g data-source-text="B" fill="#dee4e3" transform="translate(966 41.292) rotate(0) scale(0.023999998)">
<use href="#path12" transform="translate(0 0)"/>
</g>
</g>
<g>
<g data-source-text="C" fill="#dee4e3" transform="translate(1038 41.292) rotate(0) scale(0.023999998)">
<use href="#path13" transform="translate(0 0)"/>
</g>
</g>
<g>
<g data-source-text="D" fill="#dee4e3" transform="translate(1110 41.292) rotate(0) scale(0.023999998)">
<use href="#path14" transform="translate(0 0)"/>
</g>
</g>
<g>
<g data-source-text="E" fill="#dee4e3" transform="translate(1182 41.292) rotate(0) scale(0.023999998)">
<use href="#path15" transform="translate(0 0)"/>
</g>
</g>
<g>
<g data-source-text="F" fill="#dee4e3" transform="translate(1254 41.292) rotate(0) scale(0.023999998)">
<use href="#path16" transform="translate(0 0)"/>
</g>
</g>
<g>
<g data-source-text="U+2190" fill="#dee4e3" transform="translate(36 113.292) rotate(0) scale(0.023999998)">
<use href="#path17" transform="translate(0 0)"/>
<use href="#path18" transform="translate(500 0)"/>
<use href="#path3" transform="translate(1000 0)"/>
<use href="#path2" transform="translate(1500 0)"/>
<use href="#path10" transform="translate(2000 0)"/>
<use href="#path1" transform="translate(2500 0)"/>
</g>
</g>
<g>
<g data-source-text="←" fill="#dee4e3" transform="translate(156 118.584) rotate(0) scale(0.047999997)">
<use href="#path19" transform="translate(0 0)"/>
</g>
</g>
<g>
<g data-source-text="↑" fill="#dee4e3" transform="translate(228 118.584) rotate(0) scale(0.047999997)">
<use href="#path20" transform="translate(0 0)"/>
</g>
</g>
<g>
<g data-source-text="→" fill="#dee4e3" transform="translate(300 118.584) rotate(0) scale(0.047999997)">
<use href="#path21" transform="translate(0 0)"/>
</g>
</g>
<g>
<g data-source-text="↓" fill="#dee4e3" transform="translate(372 118.584) rotate(0) scale(0.047999997)">
<use href="#path22" transform="translate(0 0)"/>
</g>
</g>
<g>
<g data-source-text="↔" fill="#dee4e3" transform="translate(444 118.584) rotate(0) scale(0.047999997)">
<use href="#path23" transform="translate(0 0)"/>
</g>
</g>
<g>
<g data-source-text="↕" fill="#dee4e3" transform="translate(516 118.584) rotate(0) scale(0.047999997)">
<use href="#path24" transform="translate(0 0)"/>
</g>
</g>
<g>
<g data-source-text="↖" fill="#dee4e3" transform="translate(588 118.584) rotate(0) scale(0.047999997)">
<use href="#path25" transform="translate(0 0)"/>
</g>
</g>
<g>
<g data-source-text="↗" fill="#dee4e3" transform="translate(660 118.584) rotate(0) scale(0.047999997)">
<use href="#path26" transform="translate(0 0)"/>
</g>
</g>
<g>
<g data-source-text="↘" fill="#dee4e3" transform="translate(732 118.584) rotate(0) scale(0.047999997)">
<use href="#path27" transform="translate(0 0)"/>
</g>
</g>
<g>
<g data-source-text="↙" fill="#dee4e3" transform="translate(804 118.584) rotate(0) scale(0.047999997)">
<use href="#path28" transform="translate(0 0)"/>
</g>
</g>
<g>
<g data-source-text="↚" fill="#dee4e3" transform="translate(876 118.584) rotate(0) scale(0.047999997)">
<use href="#path29" transform="translate(0 0)"/>
</g>
</g>
<g>
<g data-source-text="↛" fill="#dee4e3" transform="translate(948 118.584) rotate(0) scale(0.047999997)">
<use href="#path30" transform="translate(0 0)"/>
</g>
</g>
<g>
<g data-source-text="↜" fill="#dee4e3" transform="translate(1020 118.584) rotate(0) scale(0.047999997)">
<use href="#path31" transform="translate(0 0)"/>
</g>
</g>
<g>
<g data-source-text="↝" fill="#dee4e3" transform="translate(1092 118.584) rotate(0) scale(0.047999997)">
<use href="#path32" transform="translate(0 0)"/>
</g>
</g>
<g>
<g data-source-text="↞" fill="#dee4e3" transform="translate(1164 118.584) rotate(0) scale(0.047999997)">
<use href="#path33" transform="translate(0 0)"/>
</g>
</g>
<g>
<g data-source-text="↟" fill="#dee4e3" transform="translate(1236 118.584) rotate(0) scale(0.047999997)">
<use href="#path34" transform="translate(0 0)"/>
</g>
</g>
<g>
<g data-source-text="U+21A0" fill="#dee4e3" transform="translate(36 185.292) rotate(0) scale(0.023999998)">
<use href="#path17" transform="translate(0 0)"/>
<use href="#path18" transform="translate(500 0)"/>
<use href="#path3" transform="translate(1000 0)"/>
<use href="#path2" transform="translate(1500 0)"/>
<use href="#path11" transform="translate(2000 0)"/>
<use href="#path1" transform="translate(2500 0)"/>
</g>
</g>
<g>
<g data-source-text="↠" fill="#dee4e3" transform="translate(156 190.584) rotate(0) scale(0.047999997)">
<use href="#path35" transform="translate(0 0)"/>
</g>
</g>
<g>
<g data-source-text="↡" fill="#dee4e3" transform="translate(228 190.584) rotate(0) scale(0.047999997)">
<use href="#path36" transform="translate(0 0)"/>
</g>
</g>
<g>
<g data-source-text="↢" fill="#dee4e3" transform="translate(300 190.584) rotate(0) scale(0.047999997)">
<use href="#path37" transform="translate(0 0)"/>
</g>
</g>
<g>
<g data-source-text="↣" fill="#dee4e3" transform="translate(372 190.584) rotate(0) scale(0.047999997)">
<use href="#path38" transform="translate(0 0)"/>
</g>
</g>
<g>
<g data-source-text="↤" fill="#dee4e3" transform="translate(444 190.584) rotate(0) scale(0.047999997)">
<use href="#path39" transform="translate(0 0)"/>
</g>
</g>
<g>
<g data-source-text="↥" fill="#dee4e3" transform="translate(516 190.584) rotate(0) scale(0.047999997)">
<use href="#path40" transform="translate(0 0)"/>
</g>
</g>
<g>
<g data-source-text="↦" fill="#dee4e3" transform="translate(588 190.584) rotate(0) scale(0.047999997)">
<use href="#path41" transform="translate(0 0)"/>
</g>
</g>
<g>
<g data-source-text="↧" fill="#dee4e3" transform="translate(660 190.584) rotate(0) scale(0.047999997)">
<use href="#path42" transform="translate(0 0)"/>
</g>
</g>
<g>
<g data-source-text="↨" fill="#dee4e3" transform="translate(732 190.584) rotate(0) scale(0.047999997)">
<use href="#path43" transform="translate(0 0)"/>
</g>
</g>
<g>
<g data-source-text="↩" fill="#dee4e3" transform="translate(804 190.584) rotate(0) scale(0.047999997)">
<use href="#path44" transform="translate(0 0)"/>
</g>
</g>
<g>
<g data-source-text="↪" fill="#dee4e3" transform="translate(876 190.584) rotate(0) scale(0.047999997)">
<use href="#path45" transform="translate(0 0)"/>
</g>
</g>
<g>
<g data-source-text="↫" fill="#dee4e3" transform="translate(948 190.584) rotate(0) scale(0.047999997)">
<use href="#path46" transform="translate(0 0)"/>
</g>
</g>
<g>
<g data-source-text="↬" fill="#dee4e3" transform="translate(1020 190.584) rotate(0) scale(0.047999997)">
<use href="#path47" transform="translate(0 0)"/>
</g>
</g>
<g>
<g data-source-text="↭" fill="#dee4e3" transform="translate(1092 190.584) rotate(0) scale(0.047999997)">
<use href="#path48" transform="translate(0 0)"/>
</g>
</g>
<g>
<g data-source-text="↮" fill="#dee4e3" transform="translate(1164 190.584) rotate(0) scale(0.047999997)">
<use href="#path49" transform="translate(0 0)"/>
</g>
</g>
<g>
<g data-source-text="↯" fill="#dee4e3" transform="translate(1236 190.584) rotate(0) scale(0.047999997)">
<use href="#path50" transform="translate(0 0)"/>
</g>
</g>
<g>
<g data-source-text="U+21B0" fill="#dee4e3" transform="translate(36 257.292) rotate(0) scale(0.023999998)">
<use href="#path17" transform="translate(0 0)"/>
<use href="#path18" transform="translate(500 0)"/>
<use href="#path3" transform="translate(1000 0)"/>
<use href="#path2" transform="translate(1500 0)"/>
<use href="#path12" transform="translate(2000 0)"/>
<use href="#path1" transform="translate(2500 0)"/>
</g>
</g>
<g>
<g data-source-text="↰" fill="#dee4e3" transform="translate(156 262.584) rotate(0) scale(0.047999997)">
<use href="#path51" transform="translate(0 0)"/>
</g>
</g>
<g>
<g data-source-text="↱" fill="#dee4e3" transform="translate(228 262.584) rotate(0) scale(0.047999997)">
<use href="#path52" transform="translate(0 0)"/>
</g>
</g>
<g>
<g data-source-text="↲" fill="#dee4e3" transform="translate(300 262.584) rotate(0) scale(0.047999997)">
<use href="#path53" transform="translate(0 0)"/>
</g>
</g>
<g>
<g data-source-text="↳" fill="#dee4e3" transform="translate(372 262.584) rotate(0) scale(0.047999997)">
<use href="#path54" transform="translate(0 0)"/>
</g>
</g>
<g>
<g data-source-text="↴" fill="#dee4e3" transform="translate(444 262.584) rotate(0) scale(0.047999997)">
<use href="#path55" transform="translate(0 0)"/>
</g>
</g>
<g>
<g data-source-text="↵" fill="#dee4e3" transform="translate(516 262.584) rotate(0) scale(0.047999997)">
<use href="#path56" transform="translate(0 0)"/>
</g>
</g>
<g>
<g data-source-text="↶" fill="#dee4e3" transform="translate(588 262.584) rotate(0) scale(0.047999997)">
<use href="#path57" transform="translate(0 0)"/>
</g>
</g>
<g>
<g data-source-text="↷" fill="#dee4e3" transform="translate(660 262.584) rotate(0) scale(0.047999997)">
<use href="#path58" transform="translate(0 0)"/>
</g>
</g>
<g>
<g data-source-text="↸" fill="#dee4e3" transform="translate(732 262.584) rotate(0) scale(0.047999997)">
<use href="#path59" transform="translate(0 0)"/>
</g>
</g>
<g>
<g data-source-text="↹" fill="#dee4e3" transform="translate(804 262.584) rotate(0) scale(0.047999997)">
<use href="#path60" transform="translate(0 0)"/>
</g>
</g>
<g>
<g data-source-text="↺" fill="#dee4e3" transform="translate(876 262.584) rotate(0) scale(0.047999997)">
<use href="#path61" transform="translate(0 0)"/>
</g>
</g>
<g>
<g data-source-text="↻" fill="#dee4e3" transform="translate(948 262.584) rotate(0) scale(0.047999997)">
<use href="#path62" transform="translate(0 0)"/>
</g>
</g>
<g>
<g data-source-text="↼" fill="#dee4e3" transform="translate(1020 262.584) rotate(0) scale(0.047999997)">
<use href="#path63" transform="translate(0 0)"/>
</g>
</g>
<g>
<g data-source-text="↽" fill="#dee4e3" transform="translate(1092 262.584) rotate(0) scale(0.047999997)">
<use href="#path64" transform="translate(0 0)"/>
</g>
</g>
<g>
<g data-source-text="↾" fill="#dee4e3" transform="translate(1164 262.584) rotate(0) scale(0.047999997)">
<use href="#path65" transform="translate(0 0)"/>
</g>
</g>
<g>
<g data-source-text="↿" fill="#dee4e3" transform="translate(1236 262.584) rotate(0) scale(0.047999997)">
<use href="#path66" transform="translate(0 0)"/>
</g>
</g>
<g>
<g data-source-text="U+21C0" fill="#dee4e3" transform="translate(36 329.292) rotate(0) scale(0.023999998)">
<use href="#path17" transform="translate(0 0)"/>
<use href="#path18" transform="translate(500 0)"/>
<use href="#path3" transform="translate(1000 0)"/>
<use href="#path2" transform="translate(1500 0)"/>
<use href="#path13" transform="translate(2000 0)"/>
<use href="#path1" transform="translate(2500 0)"/>
</g>
</g>
<g>
<g data-source-text="⇀" fill="#dee4e3" transform="translate(156 334.584) rotate(0) scale(0.047999997)">
<use href="#path67" transform="translate(0 0)"/>
</g>
</g>
<g>
<g data-source-text="⇁" fill="#dee4e3" transform="translate(228 334.584) rotate(0) scale(0.047999997)">
<use href="#path68" transform="translate(0 0)"/>
</g>
</g>
<g>
<g data-source-text="⇂" fill="#dee4e3" transform="translate(300 334.584) rotate(0) scale(0.047999997)">
<use href="#path69" transform="translate(0 0)"/>
</g>
</g>
<g>
<g data-source-text="⇃" fill="#dee4e3" transform="translate(372 334.584) rotate(0) scale(0.047999997)">
<use href="#path70" transform="translate(0 0)"/>
</g>
</g>
<g>
<g data-source-text="⇄" fill="#dee4e3" transform="translate(444 334.584) rotate(0) scale(0.047999997)">
<use href="#path71" transform="translate(0 0)"/>
</g>
</g>
<g>
<g data-source-text="⇅" fill="#dee4e3" transform="translate(516 334.584) rotate(0) scale(0.047999997)">
<use href="#path72" transform="translate(0 0)"/>
</g>
</g>
<g>
<g data-source-text="⇆" fill="#dee4e3" transform="translate(588 334.584) rotate(0) scale(0.047999997)">
<use href="#path73" transform="translate(0 0)"/>
</g>
</g>
<g>
<g data-source-text="⇇" fill="#dee4e3" transform="translate(660 334.584) rotate(0) scale(0.047999997)">
<use href="#path74" transform="translate(0 0)"/>
</g>
</g>
<g>
<g data-source-text="⇈" fill="#dee4e3" transform="translate(732 334.584) rotate(0) scale(0.047999997)">
<use href="#path75" transform="translate(0 0)"/>
</g>
</g>
<g>
<g data-source-text="⇉" fill="#dee4e3" transform="translate(804 334.584) rotate(0) scale(0.047999997)">
<use href="#path76" transform="translate(0 0)"/>
</g>
</g>
<g>
<g data-source-text="⇊" fill="#dee4e3" transform="translate(876 334.584) rotate(0) scale(0.047999997)">
<use href="#path77" transform="translate(0 0)"/>
</g>
</g>
<g>
<g data-source-text="⇋" fill="#dee4e3" transform="translate(948 334.584) rotate(0) scale(0.047999997)">
<use href="#path78" transform="translate(0 0)"/>
</g>
</g>
<g>
<g data-source-text="⇌" fill="#dee4e3" transform="translate(1020 334.584) rotate(0) scale(0.047999997)">
<use href="#path79" transform="translate(0 0)"/>
</g>
</g>
<g>
<g data-source-text="⇍" fill="#dee4e3" transform="translate(1092 334.584) rotate(0) scale(0.047999997)">
<use href="#path80" transform="translate(0 0)"/>
</g>
</g>
<g>
<g data-source-text="⇎" fill="#dee4e3" transform="translate(1164 334.584) rotate(0) scale(0.047999997)">
<use href="#path81" transform="translate(0 0)"/>
</g>
</g>
<g>
<g data-source-text="⇏" fill="#dee4e3" transform="translate(1236 334.584) rotate(0) scale(0.047999997)">
<use href="#path82" transform="translate(0 0)"/>
</g>
</g>
<g>
<g data-source-text="U+21D0" fill="#dee4e3" transform="translate(36 401.292) rotate(0) scale(0.023999998)">
<use href="#path17" transform="translate(0 0)"/>
<use href="#path18" transform="translate(500 0)"/>
<use href="#path3" transform="translate(1000 0)"/>
<use href="#path2" transform="translate(1500 0)"/>
<use href="#path14" transform="translate(2000 0)"/>
<use href="#path1" transform="translate(2500 0)"/>
</g>
</g>
<g>
<g data-source-text="⇐" fill="#dee4e3" transform="translate(156 406.584) rotate(0) scale(0.047999997)">
<use href="#path83" transform="translate(0 0)"/>
</g>
</g>
<g>
<g data-source-text="⇑" fill="#dee4e3" transform="translate(228 406.584) rotate(0) scale(0.047999997)">
<use href="#path84" transform="translate(0 0)"/>
</g>
</g>
<g>
<g data-source-text="⇒" fill="#dee4e3" transform="translate(300 406.584) rotate(0) scale(0.047999997)">
<use href="#path85" transform="translate(0 0)"/>
</g>
</g>
<g>
<g data-source-text="⇓" fill="#dee4e3" transform="translate(372 406.584) rotate(0) scale(0.047999997)">
<use href="#path86" transform="translate(0 0)"/>
</g>
</g>
<g>
<g data-source-text="⇔" fill="#dee4e3" transform="translate(444 406.584) rotate(0) scale(0.047999997)">
<use href="#path87" transform="translate(0 0)"/>
</g>
</g>
<g>
<g data-source-text="⇕" fill="#dee4e3" transform="translate(516 406.584) rotate(0) scale(0.047999997)">
<use href="#path88" transform="translate(0 0)"/>
</g>
</g>
<g>
<g data-source-text="⇖" fill="#dee4e3" transform="translate(588 406.584) rotate(0) scale(0.047999997)">
<use href="#path89" transform="translate(0 0)"/>
</g>
</g>
<g>
<g data-source-text="⇗" fill="#dee4e3" transform="translate(660 406.584) rotate(0) scale(0.047999997)">
<use href="#path90" transform="translate(0 0)"/>
</g>
</g>
<g>
<g data-source-text="⇘" fill="#dee4e3" transform="translate(732 406.584) rotate(0) scale(0.047999997)">
<use href="#path91" transform="translate(0 0)"/>
</g>
</g>
<g>
<g data-source-text="⇙" fill="#dee4e3" transform="translate(804 406.584) rotate(0) scale(0.047999997)">
<use href="#path92" transform="translate(0 0)"/>
</g>
</g>
<g>
<g data-source-text="⇚" fill="#dee4e3" transform="translate(876 406.584) rotate(0) scale(0.047999997)">
<use href="#path93" transform="translate(0 0)"/>
</g>
</g>
<g>
<g data-source-text="⇛" fill="#dee4e3" transform="translate(948 406.584) rotate(0) scale(0.047999997)">
<use href="#path94" transform="translate(0 0)"/>
</g>
</g>
<g>
<g data-source-text="⇜" fill="#dee4e3" transform="translate(1020 406.584) rotate(0) scale(0.047999997)">
<use href="#path95" transform="translate(0 0)"/>
</g>
</g>
<g>
<g data-source-text="⇝" fill="#dee4e3" transform="translate(1092 406.584) rotate(0) scale(0.047999997)">
<use href="#path96" transform="translate(0 0)"/>
</g>
</g>
<g>
<g data-source-text="⇞" fill="#dee4e3" transform="translate(1164 406.584) rotate(0) scale(0.047999997)">
<use href="#path97" transform="translate(0 0)"/>
</g>
</g>
<g>
<g data-source-text="⇟" fill="#dee4e3" transform="translate(1236 406.584) rotate(0) scale(0.047999997)">
<use href="#path98" transform="translate(0 0)"/>
</g>
</g>
<g>
<g data-source-text="U+21E0" fill="#dee4e3" transform="translate(36 473.292) rotate(0) scale(0.023999998)">
<use href="#path17" transform="translate(0 0)"/>
<use href="#path18" transform="translate(500 0)"/>
<use href="#path3" transform="translate(1000 0)"/>
<use href="#path2" transform="translate(1500 0)"/>
<use href="#path15" transform="translate(2000 0)"/>
<use href="#path1" transform="translate(2500 0)"/>
</g>
</g>
<g>
<g data-source-text="⇠" fill="#dee4e3" transform="translate(156 478.584) rotate(0) scale(0.047999997)">
<use href="#path99" transform="translate(0 0)"/>
</g>
</g>
<g>
<g data-source-text="⇡" fill="#dee4e3" transform="translate(228 478.584) rotate(0) scale(0.047999997)">
<use href="#path100" transform="translate(0 0)"/>
</g>
</g>
<g>
<g data-source-text="⇢" fill="#dee4e3" transform="translate(300 478.584) rotate(0) scale(0.047999997)">
<use href="#path101" transform="translate(0 0)"/>
</g>
</g>
<g>
<g data-source-text="⇣" fill="#dee4e3" transform="translate(372 478.584) rotate(0) scale(0.047999997)">
<use href="#path102" transform="translate(0 0)"/>
</g>
</g>
<g>
<g data-source-text="⇤" fill="#dee4e3" transform="translate(444 478.584) rotate(0) scale(0.047999997)">
<use href="#path103" transform="translate(0 0)"/>
</g>
</g>
<g>
<g data-source-text="⇥" fill="#dee4e3" transform="translate(516 478.584) rotate(0) scale(0.047999997)">
<use href="#path104" transform="translate(0 0)"/>
</g>
</g>
<g>
<g data-source-text="⇦" fill="#dee4e3" transform="translate(588 478.584) rotate(0) scale(0.047999997)">
<use href="#path105" transform="translate(0 0)"/>
</g>
</g>
<g>
<g data-source-text="⇧" fill="#dee4e3" transform="translate(660 478.584) rotate(0) scale(0.047999997)">
<use href="#path106" transform="translate(0 0)"/>
</g>
</g>
<g>
<g data-source-text="⇨" fill="#dee4e3" transform="translate(732 478.584) rotate(0) scale(0.047999997)">
<use href="#path107" transform="translate(0 0)"/>
</g>
</g>
<g>
<g data-source-text="⇩" fill="#dee4e3" transform="translate(804 478.584) rotate(0) scale(0.047999997)">
<use href="#path108" transform="translate(0 0)"/>
</g>
</g>
<g>
<g data-source-text="⇪" fill="#dee4e3" transform="translate(876 478.584) rotate(0) scale(0.047999997)">
<use href="#path109" transform="translate(0 0)"/>
</g>
</g>
<g>
<g data-source-text="⇫" fill="#dee4e3" transform="translate(948 478.584) rotate(0) scale(0.047999997)">
<use href="#path110" transform="translate(0 0)"/>
</g>
</g>
<g>
<g data-source-text="⇬" fill="#dee4e3" transform="translate(1020 478.584) rotate(0) scale(0.047999997)">
<use href="#path111" transform="translate(0 0)"/>
</g>
</g>
<g>
<g data-source-text="⇭" fill="#dee4e3" transform="translate(1092 478.584) rotate(0) scale(0.047999997)">
<use href="#path112" transform="translate(0 0)"/>
</g>
</g>
<g>
<g data-source-text="⇮" fill="#dee4e3" transform="translate(1164 478.584) rotate(0) scale(0.047999997)">
<use href="#path113" transform="translate(0 0)"/>
</g>
</g>
<g>
<g data-source-text="⇯" fill="#dee4e3" transform="translate(1236 478.584) rotate(0) scale(0.047999997)">
<use href="#path114" transform="translate(0 0)"/>
</g>
</g>
<g>
<g data-source-text="U+21F0" fill="#dee4e3" transform="translate(36 545.292) rotate(0) scale(0.023999998)">
<use href="#path17" transform="translate(0 0)"/>
<use href="#path18" transform="translate(500 0)"/>
<use href="#path3" transform="translate(1000 0)"/>
<use href="#path2" transform="translate(1500 0)"/>
<use href="#path16" transform="translate(2000 0)"/>
<use href="#path1" transform="translate(2500 0)"/>
</g>
</g>
<g>
<g data-source-text="⇰" fill="#dee4e3" transform="translate(156 550.584) rotate(0) scale(0.047999997)">
<use href="#path115" transform="translate(0 0)"/>
</g>
</g>
<g>
<g data-source-text="⇱" fill="#dee4e3" transform="translate(228 550.584) rotate(0) scale(0.047999997)">
<use href="#path116" transform="translate(0 0)"/>
</g>
</g>
<g>
<g data-source-text="⇲" fill="#dee4e3" transform="translate(300 550.584) rotate(0) scale(0.047999997)">
<use href="#path117" transform="translate(0 0)"/>
</g>
</g>
<g>
<g data-source-text="⇳" fill="#dee4e3" transform="translate(372 550.584) rotate(0) scale(0.047999997)">
<use href="#path118" transform="translate(0 0)"/>
</g>
</g>
<g>
<g data-source-text="⇴" fill="#dee4e3" transform="translate(444 550.584) rotate(0) scale(0.047999997)">
<use href="#path119" transform="translate(0 0)"/>
</g>
</g>
<g>
<g data-source-text="⇵" fill="#dee4e3" transform="translate(516 550.584) rotate(0) scale(0.047999997)">
<use href="#path120" transform="translate(0 0)"/>
</g>
</g>
<g>
<g data-source-text="⇶" fill="#dee4e3" transform="translate(588 550.584) rotate(0) scale(0.047999997)">
<use href="#path121" transform="translate(0 0)"/>
</g>
</g>
<g>
<g data-source-text="⇷" fill="#dee4e3" transform="translate(660 550.584) rotate(0) scale(0.047999997)">
<use href="#path122" transform="translate(0 0)"/>
</g>
</g>
<g>
<g data-source-text="⇸" fill="#dee4e3" transform="translate(732 550.584) rotate(0) scale(0.047999997)">
<use href="#path123" transform="translate(0 0)"/>
</g>
</g>
<g>
<g data-source-text="⇹" fill="#dee4e3" transform="translate(804 550.584) rotate(0) scale(0.047999997)">
<use href="#path124" transform="translate(0 0)"/>
</g>
</g>
<g>
<g data-source-text="⇺" fill="#dee4e3" transform="translate(876 550.584) rotate(0) scale(0.047999997)">
<use href="#path125" transform="translate(0 0)"/>
</g>
</g>
<g>
<g data-source-text="⇻" fill="#dee4e3" transform="translate(948 550.584) rotate(0) scale(0.047999997)">
<use href="#path126" transform="translate(0 0)"/>
</g>
</g>
<g>
<g data-source-text="⇼" fill="#dee4e3" transform="translate(1020 550.584) rotate(0) scale(0.047999997)">
<use href="#path127" transform="translate(0 0)"/>
</g>
</g>
<g>
<g data-source-text="⇽" fill="#dee4e3" transform="translate(1092 550.584) rotate(0) scale(0.047999997)">
<use href="#path128" transform="translate(0 0)"/>
</g>
</g>
<g>
<g data-source-text="⇾" fill="#dee4e3" transform="translate(1164 550.584) rotate(0) scale(0.047999997)">
<use href="#path129" transform="translate(0 0)"/>
</g>
</g>
<g>
<g data-source-text="⇿" fill="#dee4e3" transform="translate(1236 550.584) rotate(0) scale(0.047999997)">
<use href="#path130" transform="translate(0 0)"/>
</g>
</g>
</svg>