<?xml version="1.0" encoding="UTF-8" standalone="no"?>
<svg height="360" viewBox="0 0 1296 360" width="1296" xmlns="http://www.w3.org/2000/svg">
<defs>
<path d="M 250 8 Q 223 8 196 3 Q 169 -2 145 -15 Q 121 -28 102.5 -48.5 Q 84 -69 72.5 -94 Q 61 -119 56.5 -146 Q 52 -173 52 -200 L 52 -535 Q 52 -562 56.5 -589 Q 61 -616 72.5 -641 Q 84 -666 102.5 -686.5 Q 121 -707 145 -720 Q 169 -733 196 -738 Q 223 -743 250 -743 Q 277 -743 304 -738 Q 331 -733 355 -720 Q 379 -707 397.5 -686.5 Q 416 -666 427.5 -641 Q 439 -616 443.5 -589 Q 448 -562 448 -535 L 448 -200 Q 448 -173 443.5 -146 Q 439 -119 427.5 -94 Q 416 -69 397.5 -48.5 Q 379 -28 355 -15 Q 331 -2 304 3 Q 277 8 250 8 Z M 153 -337 L 347 -491 L 347 -535 Q 347 -557 342.5 -578.5 Q 338 -600 325.5 -618 Q 313 -636 292.5 -645.5 Q 272 -655 250 -655 Q 228 -655 207.5 -645.5 Q 187 -636 174.5 -618 Q 162 -600 157.5 -578.5 Q 153 -557 153 -535 Z M 250 -80 Q 272 -80 292.5 -89.5 Q 313 -99 325.5 -117 Q 338 -135 342.5 -156.5 Q 347 -178 347 -200 L 347 -398 L 153 -244 L 153 -200 Q 153 -178 157.5 -156.5 Q 162 -135 174.5 -117 Q 187 -99 207.5 -89.5 Q 228 -80 250 -80 Z " id="path1"/>
<path d="M 230 0 L 230 -631 L 110 -528 L 55 -584 L 230 -735 L 330 -735 L 330 0 Z " id="path2"/>
<path d="M 440 0 L 60 0 L 60 -1 Q 60 -27 61 -53.5 Q 62 -80 66 -106.5 Q 70 -133 77.5 -158.5 Q 85 -184 96.5 -207.5 Q 108 -231 123 -253 Q 138 -275 156 -294.5 Q 174 -314 194 -331 Q 214 -348 235.5 -364 Q 257 -380 277.5 -397 Q 298 -414 313 -435.5 Q 328 -457 335.5 -483 Q 343 -509 343 -535 Q 343 -557 339 -578 Q 335 -599 323.5 -617 Q 312 -635 292 -645 Q 272 -655 251 -655 Q 231 -655 212.5 -647.5 Q 194 -640 182 -625 Q 170 -610 164.5 -591 Q 159 -572 159 -552 L 159 -548 L 58 -548 L 58 -555 Q 58 -581 64 -605.5 Q 70 -630 81.5 -652.5 Q 93 -675 111.5 -693 Q 130 -711 152.5 -722.5 Q 175 -734 200.5 -738.5 Q 226 -743 251 -743 Q 278 -743 304.5 -737.5 Q 331 -732 354.5 -719 Q 378 -706 396 -685.5 Q 414 -665 424.5 -640.5 Q 435 -616 439.5 -589 Q 444 -562 444 -535 Q 444 -501 435 -468 Q 426 -435 407.5 -406 Q 389 -377 364 -353.5 Q 339 -330 312.5 -308.5 Q 286 -287 261 -264 Q 236 -241 216.5 -213 Q 197 -185 184 -153.5 Q 171 -122 166 -88 L 440 -88 Z " id="path3"/>
<path d="M 253 8 Q 227 8 201 4 Q 175 -0 151.5 -11.5 Q 128 -23 108.5 -40.5 Q 89 -58 76 -81 Q 63 -104 56.5 -129.5 Q 50 -155 50 -181 L 50 -187 L 151 -187 L 151 -184 Q 151 -163 157.5 -143 Q 164 -123 178 -108 Q 192 -93 212 -86.5 Q 232 -80 253 -80 Q 275 -80 296 -88.5 Q 317 -97 330.5 -114.5 Q 344 -132 349.5 -154 Q 355 -176 355 -198 Q 355 -217 351 -235.5 Q 347 -254 338.5 -271 Q 330 -288 316.5 -301 Q 303 -314 286 -322 Q 269 -330 250 -332 Q 231 -334 212 -334 L 212 -422 Q 229 -422 246 -424 Q 263 -426 278.5 -433 Q 294 -440 306 -452.5 Q 318 -465 325.5 -480.5 Q 333 -496 336 -513 Q 339 -530 339 -547 Q 339 -566 334.5 -585.5 Q 330 -605 319.5 -621 Q 309 -637 291 -646 Q 273 -655 253 -655 Q 234 -655 216.5 -647 Q 199 -639 187.5 -624 Q 176 -609 171.5 -590 Q 167 -571 167 -553 L 167 -548 L 66 -548 L 66 -556 Q 66 -581 71.5 -605.5 Q 77 -630 88 -652 Q 99 -674 117 -692.5 Q 135 -711 157 -722.5 Q 179 -734 203.5 -738.5 Q 228 -743 253 -743 Q 278 -743 303.5 -738 Q 329 -733 351 -721 Q 373 -709 390 -690 Q 407 -671 418 -648 Q 429 -625 434.5 -600 Q 440 -575 440 -550 Q 440 -524 434 -498.5 Q 428 -473 415.5 -450.5 Q 403 -428 384.5 -409.5 Q 366 -391 343 -379 Q 369 -368 390.5 -348.5 Q 412 -329 427 -304.5 Q 442 -280 449 -252 Q 456 -224 456 -196 Q 456 -168 450 -141.5 Q 444 -115 432 -91 Q 420 -67 401 -47 Q 382 -27 358 -14.5 Q 334 -2 307 3 Q 280 8 253 8 Z " id="path4"/>
<path d="M 282 0 L 282 -188 L 52 -188 L 52 -275 L 276 -735 L 385 -735 L 161 -275 L 282 -275 L 282 -435 L 382 -435 L 382 -275 L 440 -275 L 440 -188 L 382 -188 L 382 0 Z " id="path5"/>
<path d="M 252 8 Q 227 8 202.5 3.5 Q 178 -1 155.5 -12 Q 133 -23 115 -41 Q 97 -59 85 -80.5 Q 73 -102 66.5 -126.5 Q 60 -151 59 -176 L 159 -176 Q 161 -158 167 -139.5 Q 173 -121 185.5 -107 Q 198 -93 216 -86.5 Q 234 -80 252 -80 Q 269 -80 285 -87 Q 301 -94 312 -107 Q 323 -120 330 -135.5 Q 337 -151 340.5 -168 Q 344 -185 345.5 -202 Q 347 -219 347 -236 Q 347 -252 346 -269 Q 345 -286 341 -302 Q 337 -318 331 -334 Q 325 -350 314 -363 Q 303 -376 287.5 -383.5 Q 272 -391 256 -391 Q 240 -391 224.5 -387 Q 209 -383 196 -373.5 Q 183 -364 176 -349.5 Q 169 -335 168 -319 L 68 -319 L 68 -735 L 421 -735 L 421 -647 L 168 -647 L 168 -464 Q 189 -472 211 -475 Q 233 -478 256 -478 Q 285 -478 313.5 -470.5 Q 342 -463 365.5 -445.5 Q 389 -428 405.5 -403 Q 422 -378 431.5 -350.5 Q 441 -323 444.5 -294 Q 448 -265 448 -235 Q 448 -206 444 -176.5 Q 440 -147 430.5 -119 Q 421 -91 404 -66.5 Q 387 -42 363.5 -24.5 Q 340 -7 311 0.5 Q 282 8 252 8 Z " id="path6"/>
<path d="M 250 8 Q 221 8 192.5 1.5 Q 164 -5 140 -21 Q 116 -37 98.5 -60.5 Q 81 -84 70.5 -111 Q 60 -138 56 -166.5 Q 52 -195 52 -224 Q 52 -268 60 -311 Q 68 -354 81.5 -395.5 Q 95 -437 113 -477 Q 131 -517 150 -556 L 238 -735 L 347 -735 L 240 -517 Q 228 -493 216.5 -468.5 Q 205 -444 195 -419 Q 214 -438 239 -447 Q 264 -456 291 -456 Q 317 -456 342.5 -447 Q 368 -438 386.5 -419.5 Q 405 -401 417 -377.5 Q 429 -354 436 -328.5 Q 443 -303 445.5 -276.5 Q 448 -250 448 -224 Q 448 -195 444 -166.5 Q 440 -138 429.5 -111 Q 419 -84 401.5 -60.5 Q 384 -37 360 -21 Q 336 -5 307.5 1.5 Q 279 8 250 8 Z M 250 -80 Q 266 -80 282 -85.5 Q 298 -91 309.5 -102.5 Q 321 -114 328.5 -129 Q 336 -144 340 -159.5 Q 344 -175 345.5 -191.5 Q 347 -208 347 -224 Q 347 -240 345.5 -256.5 Q 344 -273 340 -289 Q 336 -305 328.5 -319.5 Q 321 -334 309.5 -345.5 Q 298 -357 282 -362.5 Q 266 -368 250 -368 Q 235 -368 221 -363.5 Q 207 -359 195.5 -349.5 Q 184 -340 176.5 -327.5 Q 169 -315 164 -301 Q 159 -287 156.5 -272.5 Q 154 -258 153 -243 L 153 -224 Q 153 -208 154.5 -191.5 Q 156 -175 160 -159.5 Q 164 -144 171.5 -129 Q 179 -114 190.5 -102.5 Q 202 -91 218 -85.5 Q 234 -80 250 -80 Z " id="path7"/>
<path d="M 242 0 L 138 0 L 336 -647 L 60 -647 L 60 -735 L 440 -735 L 440 -647 Z " id="path8"/>
<path d="M 250 8 Q 225 8 200 4 Q 175 -0 152 -10 Q 129 -20 109.5 -37 Q 90 -54 77.5 -75.5 Q 65 -97 58.5 -121.5 Q 52 -146 52 -172 Q 52 -203 62 -232.5 Q 72 -262 88.5 -288 Q 105 -314 127 -336 Q 149 -358 174 -378 Q 152 -396 132.5 -417 Q 113 -438 98.5 -462.5 Q 84 -487 76 -514.5 Q 68 -542 68 -570 Q 68 -594 73.5 -617 Q 79 -640 90.5 -661 Q 102 -682 119.5 -698.5 Q 137 -715 158 -725 Q 179 -735 202.5 -739 Q 226 -743 250 -743 Q 274 -743 297.5 -739 Q 321 -735 342 -725 Q 363 -715 380.5 -698.5 Q 398 -682 409.5 -661 Q 421 -640 426.5 -617 Q 432 -594 432 -570 Q 432 -542 424 -514.5 Q 416 -487 401.5 -462.5 Q 387 -438 367.5 -417 Q 348 -396 326 -378 Q 351 -358 373 -336 Q 395 -314 411.5 -288 Q 428 -262 438 -232.5 Q 448 -203 448 -172 Q 448 -146 441.5 -121.5 Q 435 -97 422.5 -75.5 Q 410 -54 390.5 -37 Q 371 -20 348 -10 Q 325 -0 300 4 Q 275 8 250 8 Z M 250 -435 Q 266 -447 280.5 -461.5 Q 295 -476 306.5 -493 Q 318 -510 325 -529.5 Q 332 -549 332 -569 Q 332 -586 326.5 -602.5 Q 321 -619 310 -631.5 Q 299 -644 283 -649.5 Q 267 -655 250 -655 Q 233 -655 217 -649.5 Q 201 -644 190 -631.5 Q 179 -619 173.5 -602.5 Q 168 -586 168 -569 Q 168 -549 175 -529.5 Q 182 -510 193.5 -493 Q 205 -476 219.5 -461.5 Q 234 -447 250 -435 Z M 250 -80 Q 269 -80 287.5 -85.5 Q 306 -91 320 -104 Q 334 -117 340.5 -135.5 Q 347 -154 347 -173 Q 347 -196 338.5 -217.5 Q 330 -239 316.5 -257.5 Q 303 -276 285.5 -291 Q 268 -306 250 -320 Q 232 -306 214.5 -291 Q 197 -276 183.5 -257.5 Q 170 -239 161.5 -217.5 Q 153 -196 153 -173 Q 153 -154 159.5 -135.5 Q 166 -117 180 -104 Q 194 -91 212.5 -85.5 Q 231 -80 250 -80 Z " id="path9"/>
<path d="M 262 0 L 153 0 L 260 -218 Q 272 -242 283.5 -266.5 Q 295 -291 305 -316 Q 286 -297 261 -288 Q 236 -279 209 -279 Q 183 -279 157.5 -288 Q 132 -297 113.5 -315.5 Q 95 -334 83 -357.5 Q 71 -381 64 -406.5 Q 57 -432 54.5 -458.5 Q 52 -485 52 -511 Q 52 -540 56 -568.5 Q 60 -597 70.5 -624 Q 81 -651 98.5 -674.5 Q 116 -698 140 -714 Q 164 -730 192.5 -736.5 Q 221 -743 250 -743 Q 279 -743 307.5 -736.5 Q 336 -730 360 -714 Q 384 -698 401.5 -674.5 Q 419 -651 429.5 -624 Q 440 -597 444 -568.5 Q 448 -540 448 -511 Q 448 -467 440 -424 Q 432 -381 418.5 -339.5 Q 405 -298 387 -258 Q 369 -218 350 -179 Z M 250 -367 Q 265 -367 279 -371.5 Q 293 -376 304.5 -385.5 Q 316 -395 323.5 -407.5 Q 331 -420 336 -434 Q 341 -448 343.5 -462.5 Q 346 -477 347 -492 L 347 -511 Q 347 -527 345.5 -543.5 Q 344 -560 340 -575.5 Q 336 -591 328.5 -606 Q 321 -621 309.5 -632.5 Q 298 -644 282 -649.5 Q 266 -655 250 -655 Q 234 -655 218 -649.5 Q 202 -644 190.5 -632.5 Q 179 -621 171.5 -606 Q 164 -591 160 -575.5 Q 156 -560 154.5 -543.5 Q 153 -527 153 -511 Q 153 -495 154.5 -478.5 Q 156 -462 160 -446 Q 164 -430 171.5 -415.5 Q 179 -401 190.5 -389.5 Q 202 -378 218 -372.5 Q 234 -367 250 -367 Z " id="path10"/>
<path d="M 39 0 L 192 -735 L 308 -735 L 461 0 L 358 0 L 326 -172 L 174 -172 L 142 0 Z M 309 -260 L 265 -490 Q 262 -511 258 -531.5 Q 254 -552 250 -572 Q 246 -552 242 -531.5 Q 238 -511 235 -490 L 191 -260 Z " id="path11"/>
<path d="M 60 0 L 60 -735 L 234 -735 Q 261 -735 287 -730.5 Q 313 -726 336 -714 Q 359 -702 377.5 -682.5 Q 396 -663 408 -639.5 Q 420 -616 424.5 -590 Q 429 -564 429 -538 Q 429 -515 425 -492 Q 421 -469 410.5 -448.5 Q 400 -428 383.5 -411 Q 367 -394 347 -383 Q 372 -373 393.5 -355.5 Q 415 -338 429.5 -314.5 Q 444 -291 450 -264 Q 456 -237 456 -210 Q 456 -181 450 -152.5 Q 444 -124 430 -98.5 Q 416 -73 394.5 -53.5 Q 373 -34 347 -21.5 Q 321 -9 292 -4.5 Q 263 -0 234 0 Z M 161 -424 L 234 -424 Q 255 -424 274.5 -432.5 Q 294 -441 306.5 -457.5 Q 319 -474 324 -494.5 Q 329 -515 329 -536 Q 329 -557 324 -577.5 Q 319 -598 306.5 -614.5 Q 294 -631 274.5 -639 Q 255 -647 234 -647 L 161 -647 Z M 161 -88 L 234 -88 Q 251 -88 267 -91 Q 283 -94 297.5 -101.5 Q 312 -109 323.5 -121 Q 335 -133 342.5 -148 Q 350 -163 352.5 -179 Q 355 -195 355 -212 Q 355 -228 352.5 -244.5 Q 350 -261 343 -276 Q 336 -291 324.5 -303 Q 313 -315 298 -322.5 Q 283 -330 267 -333 Q 251 -336 234 -336 L 161 -336 Z " id="path12"/>
<path d="M 247 8 Q 220 8 193 2.5 Q 166 -3 142.5 -16 Q 119 -29 101 -49.5 Q 83 -70 72 -94.5 Q 61 -119 56.5 -146 Q 52 -173 52 -200 L 52 -535 Q 52 -562 56.5 -589 Q 61 -616 72 -640.5 Q 83 -665 101 -685.5 Q 119 -706 142.5 -719 Q 166 -732 193 -737.5 Q 220 -743 247 -743 Q 273 -743 298 -738.5 Q 323 -734 346 -723 Q 369 -712 387.5 -694 Q 406 -676 418 -653.5 Q 430 -631 436 -606 Q 442 -581 442 -555 L 442 -548 L 341 -548 L 341 -552 Q 341 -572 335.5 -591.5 Q 330 -611 317.5 -626 Q 305 -641 286 -648 Q 267 -655 247 -655 Q 225 -655 205 -645.5 Q 185 -636 173 -618 Q 161 -600 157 -578.5 Q 153 -557 153 -535 L 153 -200 Q 153 -178 157 -156.5 Q 161 -135 173 -117 Q 185 -99 205 -89.5 Q 225 -80 247 -80 Q 267 -80 286 -87 Q 305 -94 317.5 -109 Q 330 -124 335.5 -143.5 Q 341 -163 341 -183 L 341 -187 L 442 -187 L 442 -180 Q 442 -154 436 -129 Q 430 -104 418 -81.5 Q 406 -59 387.5 -41 Q 369 -23 346 -12 Q 323 -1 298 3.5 Q 273 8 247 8 Z " id="path13"/>
<path d="M 60 0 L 60 -735 L 219 -735 Q 249 -735 279 -730 Q 309 -725 336.5 -712 Q 364 -699 386 -678.5 Q 408 -658 422 -631.5 Q 436 -605 442 -575 Q 448 -545 448 -515 L 448 -220 Q 448 -190 442 -160 Q 436 -130 422 -103.5 Q 408 -77 386 -56.5 Q 364 -36 336.5 -23 Q 309 -10 279 -5 Q 249 -0 219 0 Z M 161 -88 L 219 -88 Q 237 -88 254 -91 Q 271 -94 286.5 -102.5 Q 302 -111 314 -124 Q 326 -137 333.5 -152.5 Q 341 -168 344 -185.5 Q 347 -203 347 -220 L 347 -515 Q 347 -532 344 -549.5 Q 341 -567 333.5 -582.5 Q 326 -598 314 -611 Q 302 -624 286.5 -632.5 Q 271 -641 254 -644 Q 237 -647 219 -647 L 161 -647 Z " id="path14"/>
<path d="M 68 0 L 68 -735 L 440 -735 L 440 -647 L 169 -647 L 169 -426 L 383 -426 L 383 -338 L 169 -338 L 169 -88 L 440 -88 L 440 0 Z " id="path15"/>
<path d="M 91 0 L 91 -735 L 440 -735 L 440 -647 L 191 -647 L 191 -426 L 383 -426 L 383 -338 L 191 -338 L 191 0 Z " id="path16"/>
<path d="M 250 8 Q 223 8 196.5 2.5 Q 170 -3 147 -16.5 Q 124 -30 106.5 -50.5 Q 89 -71 78.5 -95.5 Q 68 -120 64 -146.5 Q 60 -173 60 -200 L 60 -735 L 161 -735 L 161 -200 Q 161 -186 162.5 -172 Q 164 -158 168 -144.5 Q 172 -131 179.5 -118.5 Q 187 -106 197.5 -97 Q 208 -88 222 -84 Q 236 -80 250 -80 Q 264 -80 278 -84 Q 292 -88 302.5 -97 Q 313 -106 320.5 -118.5 Q 328 -131 332 -144.5 Q 336 -158 337.5 -172 Q 339 -186 339 -200 L 339 -735 L 440 -735 L 440 -200 Q 440 -173 436 -146.5 Q 432 -120 421.5 -95.5 Q 411 -71 393.5 -50.5 Q 376 -30 353 -16.5 Q 330 -3 303.5 2.5 Q 277 8 250 8 Z " id="path17"/>
<path d="M 300 -143 L 200 -143 L 200 -296 L 60 -296 L 60 -384 L 200 -384 L 200 -537 L 300 -537 L 300 -384 L 440 -384 L 440 -296 L 300 -296 Z " id="path18"/>
<path d="M 88 -323 L 153 -687 L 225 -687 L 250 -548 L 275 -687 L 347 -687 L 369 -566 L 412 -323 L 345 -323 L 327 -439 L 294 -439 L 283 -363 L 290 -323 L 223 -323 L 206 -439 L 173 -439 L 155 -323 Z M 303 -497 L 319 -497 L 311 -548 Z M 181 -497 L 197 -497 L 189 -548 Z " id="path19"/>
<path d="M 250 -520 L 168 -687 L 332 -687 Z M 168 -323 L 250 -490 L 332 -323 Z " id="path20"/>
<path d="M 250 -520 L 168 -687 L 332 -687 Z " id="path21"/>
<path d="M 191 -317 Q 170 -317 150 -325 Q 130 -333 117 -349.5 Q 104 -366 99.5 -386.5 Q 95 -407 95 -428 Q 95 -451 101 -473.5 Q 107 -496 122 -512.5 Q 137 -529 158.5 -536.5 Q 180 -544 203 -544 L 213 -544 L 213 -610 Q 213 -617 206.5 -621.5 Q 200 -626 193 -626 Q 187 -626 182.5 -621.5 Q 178 -617 176 -611.5 Q 174 -606 173 -600 Q 172 -594 172 -587 L 172 -586 L 99 -586 L 99 -591 Q 99 -610 104.5 -629.5 Q 110 -649 123 -664 Q 136 -679 155 -686 Q 174 -693 193 -693 Q 209 -693 224.5 -689.5 Q 240 -686 253 -678 Q 265 -686 279.5 -689.5 Q 294 -693 309 -693 Q 329 -693 348.5 -686.5 Q 368 -680 381.5 -665.5 Q 395 -651 400 -631.5 Q 405 -612 405 -592 L 405 -472 L 287 -472 L 287 -418 Q 287 -412 287.5 -406.5 Q 288 -401 290.5 -396 Q 293 -391 298 -387.5 Q 303 -384 309 -384 Q 315 -384 319.5 -388.5 Q 324 -393 326.5 -398.5 Q 329 -404 329.5 -410 Q 330 -416 330 -423 L 330 -425 L 404 -425 L 404 -419 Q 404 -399 398 -380 Q 392 -361 379 -346 Q 366 -331 347 -324 Q 328 -317 309 -317 Q 293 -317 277 -321 Q 261 -325 248 -335 Q 236 -325 221 -321 Q 206 -317 191 -317 Z M 287 -538 L 332 -538 L 332 -592 Q 332 -598 331 -603.5 Q 330 -609 327.5 -614.5 Q 325 -620 320 -623 Q 315 -626 309 -626 Q 304 -626 299 -623 Q 294 -620 291.5 -614.5 Q 289 -609 288 -603.5 Q 287 -598 287 -592 Z M 191 -384 Q 198 -384 203 -390.5 Q 208 -397 210 -404 Q 212 -411 212.5 -418.5 Q 213 -426 213 -434 L 213 -478 L 203 -478 Q 195 -478 187.5 -474 Q 180 -470 175.5 -463 Q 171 -456 169.5 -448 Q 168 -440 168 -431 Q 168 -424 169 -417 Q 170 -410 172 -403 Q 174 -396 178.5 -390 Q 183 -384 191 -384 Z " id="path22"/>
<path d="M 109 -323 L 109 -687 L 265 -687 Q 287 -687 309 -681.5 Q 331 -676 348.5 -662 Q 366 -648 374.5 -627 Q 383 -606 383 -583 Q 383 -573 381 -563 Q 379 -553 374.5 -544 Q 370 -535 363 -527 Q 356 -519 348 -514 Q 360 -509 370.5 -501 Q 381 -493 388.5 -482 Q 396 -471 399.5 -458 Q 403 -445 403 -432 Q 403 -407 391.5 -384 Q 380 -361 359.5 -347 Q 339 -333 314.5 -328 Q 290 -323 265 -323 Z M 186 -546 L 265 -546 Q 273 -546 280.5 -547.5 Q 288 -549 294 -554 Q 300 -559 303 -566.5 Q 306 -574 306 -582 Q 306 -590 303 -597.5 Q 300 -605 294 -609.5 Q 288 -614 280 -616 Q 272 -618 265 -618 L 186 -618 Z M 186 -392 L 265 -392 Q 275 -392 285.5 -394 Q 296 -396 305 -400.5 Q 314 -405 320 -414 Q 326 -423 326 -434 Q 326 -444 320 -453.5 Q 314 -463 305 -468 Q 296 -473 285.5 -474.5 Q 275 -476 265 -476 L 186 -476 Z " id="path23"/>
<path d="M 109 -709 Q 109 -727 112 -745 Q 115 -763 123.5 -779.5 Q 132 -796 145.5 -808.5 Q 159 -821 175.5 -829 Q 192 -837 210 -840 Q 228 -843 246 -843 L 249 -843 L 249 -774 L 246 -774 Q 233 -774 221 -769.5 Q 209 -765 200.5 -755.5 Q 192 -746 189 -734 Q 186 -722 186 -709 Z M 284 -317 Q 269 -317 253 -321 Q 237 -325 224 -334 Q 211 -343 201.5 -355.5 Q 192 -368 186 -383 L 186 -323 L 109 -323 L 109 -709 L 186 -709 L 186 -627 Q 192 -642 201.5 -654.5 Q 211 -667 224 -676 Q 237 -685 253 -689 Q 269 -693 284 -693 Q 302 -693 319 -688 Q 336 -683 349.5 -672.5 Q 363 -662 372.5 -647 Q 382 -632 387.5 -615.5 Q 393 -599 395 -581.5 Q 397 -564 397 -547 L 397 -463 Q 397 -446 395 -428.5 Q 393 -411 387.5 -394.5 Q 382 -378 372.5 -363 Q 363 -348 349.5 -337.5 Q 336 -327 319 -322 Q 302 -317 284 -317 Z M 253 -387 Q 267 -387 281 -392 Q 295 -397 304 -408.5 Q 313 -420 316.5 -434.5 Q 320 -449 320 -463 L 320 -547 Q 320 -561 316.5 -575.5 Q 313 -590 304 -601.5 Q 295 -613 281 -618 Q 267 -623 253 -623 Q 238 -623 224.5 -618 Q 211 -613 201.5 -601.5 Q 192 -590 189 -575.5 Q 186 -561 186 -547 L 186 -463 Q 186 -449 189 -434.5 Q 192 -420 201.5 -408.5 Q 211 -397 224.5 -392 Q 238 -387 253 -387 Z " id="path24"/>
<path d="M 64 0 L 64 -735 L 436 -735 L 436 0 Z M 94 -321 L 401 -705 L 308 -705 L 94 -438 Z M 94 -478 L 276 -705 L 182 -705 L 94 -595 Z M 94 -634 L 151 -705 L 94 -705 Z M 94 -165 L 406 -554 L 406 -671 L 94 -282 Z M 94 -30 L 111 -30 L 406 -398 L 406 -515 L 94 -126 Z M 143 -30 L 236 -30 L 406 -242 L 406 -359 Z M 268 -30 L 362 -30 L 406 -85 L 406 -202 Z M 393 -30 L 406 -30 L 406 -46 Z " id="path25"/>
<path d="M 118 -317 Q 103 -317 89 -325 Q 75 -333 66 -345.5 Q 57 -358 52 -372.5 Q 47 -387 44 -402 Q 41 -417 40 -432.5 Q 39 -448 39 -463 L 39 -547 Q 39 -562 40 -577.5 Q 41 -593 44 -608 Q 47 -623 52 -637.5 Q 57 -652 66 -664.5 Q 75 -677 89 -685 Q 103 -693 118 -693 Q 130 -693 141.5 -688.5 Q 153 -684 161 -675.5 Q 169 -667 175 -656.5 Q 181 -646 185 -634 L 185 -838 L 262 -838 L 262 -323 L 185 -323 L 185 -376 Q 181 -364 175 -353.5 Q 169 -343 161 -334.5 Q 153 -326 141.5 -321.5 Q 130 -317 118 -317 Z M 150 -387 Q 162 -387 169.5 -397 Q 177 -407 180 -418 Q 183 -429 184 -440.5 Q 185 -452 185 -463 L 185 -547 Q 185 -558 184 -569.5 Q 183 -581 180 -592 Q 177 -603 169.5 -613 Q 162 -623 151 -623 Q 139 -623 131.5 -613 Q 124 -603 121 -592 Q 118 -581 117 -569.5 Q 116 -558 116 -547 L 116 -463 Q 116 -452 117 -440.5 Q 118 -429 121 -418 Q 124 -407 131.5 -397 Q 139 -387 150 -387 Z M 238 -323 L 238 -392 L 376 -618 L 238 -618 L 238 -687 L 455 -687 L 455 -618 L 317 -392 L 455 -392 L 455 -323 Z " id="path26"/>
<path d="M 118 -317 Q 103 -317 89 -325 Q 75 -333 66 -345.5 Q 57 -358 52 -372.5 Q 47 -387 44 -402 Q 41 -417 40 -432.5 Q 39 -448 39 -463 L 39 -547 Q 39 -562 40 -577.5 Q 41 -593 44 -608 Q 47 -623 52 -637.5 Q 57 -652 66 -664.5 Q 75 -677 89 -685 Q 103 -693 118 -693 Q 130 -693 141.5 -688.5 Q 153 -684 161 -675.5 Q 169 -667 175 -656.5 Q 181 -646 185 -634 L 185 -838 L 262 -838 L 262 -323 L 185 -323 L 185 -376 Q 181 -364 175 -353.5 Q 169 -343 161 -334.5 Q 153 -326 141.5 -321.5 Q 130 -317 118 -317 Z M 150 -387 Q 162 -387 169.5 -397 Q 177 -407 180 -418 Q 183 -429 184 -440.5 Q 185 -452 185 -463 L 185 -547 Q 185 -558 184 -569.5 Q 183 -581 180 -592 Q 177 -603 169.5 -613 Q 162 -623 151 -623 Q 139 -623 131.5 -613 Q 124 -603 121 -592 Q 118 -581 117 -569.5 Q 116 -558 116 -547 L 116 -463 Q 116 -452 117 -440.5 Q 118 -429 121 -418 Q 124 -407 131.5 -397 Q 139 -387 150 -387 Z M 522 -167 Q 505 -167 487 -170 Q 469 -173 453 -180.5 Q 437 -188 424 -200 Q 411 -212 402.5 -228 Q 394 -244 390.5 -261.5 Q 387 -279 387 -297 L 387 -323 L 238 -323 L 238 -392 L 376 -618 L 238 -618 L 238 -687 L 455 -687 L 455 -618 L 317 -392 L 455 -392 L 455 -297 Q 455 -283 459 -269.5 Q 463 -256 472.5 -246 Q 482 -236 495.5 -232 Q 509 -228 522 -228 L 523 -167 Z " id="path27"/>
<path d="M 118 -317 Q 103 -317 89 -325 Q 75 -333 66 -345.5 Q 57 -358 52 -372.5 Q 47 -387 44 -402 Q 41 -417 40 -432.5 Q 39 -448 39 -463 L 39 -547 Q 39 -562 40 -577.5 Q 41 -593 44 -608 Q 47 -623 52 -637.5 Q 57 -652 66 -664.5 Q 75 -677 89 -685 Q 103 -693 118 -693 Q 130 -693 141.5 -688.5 Q 153 -684 161 -675.5 Q 169 -667 175 -656.5 Q 181 -646 185 -634 L 185 -838 L 262 -838 L 262 -323 L 185 -323 L 185 -376 Q 181 -364 175 -353.5 Q 169 -343 161 -334.5 Q 153 -326 141.5 -321.5 Q 130 -317 118 -317 Z M 150 -387 Q 162 -387 169.5 -397 Q 177 -407 180 -418 Q 183 -429 184 -440.5 Q 185 -452 185 -463 L 185 -547 Q 185 -558 184 -569.5 Q 183 -581 180 -592 Q 177 -603 169.5 -613 Q 162 -623 151 -623 Q 139 -623 131.5 -613 Q 124 -603 121 -592 Q 118 -581 117 -569.5 Q 116 -558 116 -547 L 116 -463 Q 116 -452 117 -440.5 Q 118 -429 121 -418 Q 124 -407 131.5 -397 Q 139 -387 150 -387 Z M 351 -250 L 313 -255 Q 316 -272 319.5 -289 Q 323 -306 327 -323 L 238 -323 L 238 -392 L 376 -618 L 238 -618 L 238 -687 L 455 -687 L 455 -618 L 317 -392 L 348 -392 Q 353 -404 359 -415.5 Q 365 -427 373.5 -437.5 Q 382 -448 393 -455 Q 404 -462 417 -462 Q 430 -462 442 -457.5 Q 454 -453 462 -443.5 Q 470 -434 473 -422 Q 476 -410 476 -398 Q 476 -383 472.5 -369 Q 469 -355 460 -344.5 Q 451 -334 437.5 -328.5 Q 424 -323 410 -323 L 363 -323 Q 359 -305 356.5 -286.5 Q 354 -268 351 -250 Z M 382 -392 L 410 -392 Q 415 -392 419.5 -393 Q 424 -394 428 -396 Q 432 -398 434.5 -401.5 Q 437 -405 437 -410 Q 437 -417 431 -422 Q 425 -427 417 -427 Q 411 -427 405.5 -423.5 Q 400 -420 395.5 -415 Q 391 -410 388 -404 Q 385 -398 382 -392 Z " id="path28"/>
<path d="M 118 -317 Q 103 -317 89 -325 Q 75 -333 66 -345.5 Q 57 -358 52 -372.5 Q 47 -387 44 -402 Q 41 -417 40 -432.5 Q 39 -448 39 -463 L 39 -547 Q 39 -562 40 -577.5 Q 41 -593 44 -608 Q 47 -623 52 -637.5 Q 57 -652 66 -664.5 Q 75 -677 89 -685 Q 103 -693 118 -693 Q 130 -693 141.5 -688.5 Q 153 -684 161 -675.5 Q 169 -667 175 -656.5 Q 181 -646 185 -634 L 185 -838 L 262 -838 L 262 -323 L 185 -323 L 185 -376 Q 181 -364 175 -353.5 Q 169 -343 161 -334.5 Q 153 -326 141.5 -321.5 Q 130 -317 118 -317 Z M 150 -387 Q 162 -387 169.5 -397 Q 177 -407 180 -418 Q 183 -429 184 -440.5 Q 185 -452 185 -463 L 185 -547 Q 185 -558 184 -569.5 Q 183 -581 180 -592 Q 177 -603 169.5 -613 Q 162 -623 151 -623 Q 139 -623 131.5 -613 Q 124 -603 121 -592 Q 118 -581 117 -569.5 Q 116 -558 116 -547 L 116 -463 Q 116 -452 117 -440.5 Q 118 -429 121 -418 Q 124 -407 131.5 -397 Q 139 -387 150 -387 Z M 348 -167 Q 324 -167 301 -177 Q 278 -187 263.5 -206.5 Q 249 -226 242.5 -250 Q 236 -274 236 -298 L 313 -298 Q 313 -289 314.5 -279 Q 316 -269 319.5 -260 Q 323 -251 330.5 -243.5 Q 338 -236 348 -236 Q 357 -236 363.5 -243.5 Q 370 -251 373.5 -259 Q 377 -267 378.5 -276 Q 380 -285 381.5 -294 Q 383 -303 383 -312 Q 383 -321 383 -331 Q 383 -339 383 -348 Q 383 -357 381.5 -366 Q 380 -375 378 -383.5 Q 376 -392 372.5 -400 Q 369 -408 362 -414.5 Q 355 -421 346 -421 L 281 -421 L 281 -490 L 359 -618 L 238 -618 L 238 -687 L 439 -687 L 439 -618 L 360 -490 Q 377 -488 393 -480.5 Q 409 -473 421 -460 Q 433 -447 440.5 -431.5 Q 448 -416 452.5 -399 Q 457 -382 458.5 -365 Q 460 -348 460 -330 Q 460 -312 458.5 -293.5 Q 457 -275 452 -257 Q 447 -239 438 -222 Q 429 -205 415.5 -192 Q 402 -179 384.5 -173 Q 367 -167 348 -167 Z " id="path29"/>
<path d="M 452 -167 Q 434 -167 415.5 -170 Q 397 -173 381 -181 Q 365 -189 351.5 -201.5 Q 338 -214 329.5 -230.5 Q 321 -247 317.5 -265 Q 314 -283 314 -301 L 314 -383 Q 308 -368 298.5 -355.5 Q 289 -343 276 -334 Q 263 -325 247 -321 Q 231 -317 216 -317 Q 198 -317 181 -322 Q 164 -327 150.5 -337.5 Q 137 -348 127.5 -363 Q 118 -378 112.5 -394.5 Q 107 -411 105 -428.5 Q 103 -446 103 -463 L 103 -547 Q 103 -564 105 -581.5 Q 107 -599 112.5 -615.5 Q 118 -632 127.5 -647 Q 137 -662 150.5 -672.5 Q 164 -683 181 -688 Q 198 -693 216 -693 Q 231 -693 247 -689 Q 263 -685 276 -676 Q 289 -667 298.5 -654.5 Q 308 -642 314 -627 L 314 -838 L 391 -838 L 391 -301 Q 391 -288 394.5 -276 Q 398 -264 406.5 -254.5 Q 415 -245 427 -240.5 Q 439 -236 452 -236 L 454 -236 L 454 -167 Z M 247 -387 Q 262 -387 275.5 -392 Q 289 -397 298.5 -408.5 Q 308 -420 311 -434.5 Q 314 -449 314 -463 L 314 -547 Q 314 -561 311 -575.5 Q 308 -590 298.5 -601.5 Q 289 -613 275.5 -618 Q 262 -623 247 -623 Q 233 -623 219 -618 Q 205 -613 196 -601.5 Q 187 -590 183.5 -575.5 Q 180 -561 180 -547 L 180 -463 Q 180 -449 183.5 -434.5 Q 187 -420 196 -408.5 Q 205 -397 219 -392 Q 233 -387 247 -387 Z " id="path30"/>
<path d="M 314 -709 Q 314 -727 317.5 -745 Q 321 -763 329.5 -779.5 Q 338 -796 351.5 -808.5 Q 365 -821 381 -829 Q 397 -837 415.5 -840 Q 434 -843 452 -843 L 454 -843 L 454 -774 L 452 -774 Q 439 -774 427 -769.5 Q 415 -765 406.5 -755.5 Q 398 -746 394.5 -734 Q 391 -722 391 -709 Z M 216 -317 Q 198 -317 181 -322 Q 164 -327 150.5 -337.5 Q 137 -348 127.5 -363 Q 118 -378 112.5 -394.5 Q 107 -411 105 -428.5 Q 103 -446 103 -463 L 103 -547 Q 103 -564 105 -581.5 Q 107 -599 112.5 -615.5 Q 118 -632 127.5 -647 Q 137 -662 150.5 -672.5 Q 164 -683 181 -688 Q 198 -693 216 -693 Q 231 -693 247 -689 Q 263 -685 276 -676 Q 289 -667 298.5 -654.5 Q 308 -642 314 -627 L 314 -709 L 391 -709 L 391 -323 L 314 -323 L 314 -383 Q 308 -368 298.5 -355.5 Q 289 -343 276 -334 Q 263 -325 247 -321 Q 231 -317 216 -317 Z M 247 -387 Q 262 -387 275.5 -392 Q 289 -397 298.5 -408.5 Q 308 -420 311 -434.5 Q 314 -449 314 -463 L 314 -547 Q 314 -561 311 -575.5 Q 308 -590 298.5 -601.5 Q 289 -613 275.5 -618 Q 262 -623 247 -623 Q 233 -623 219 -618 Q 205 -613 196 -601.5 Q 187 -590 183.5 -575.5 Q 180 -561 180 -547 L 180 -463 Q 180 -449 183.5 -434.5 Q 187 -420 196 -408.5 Q 205 -397 219 -392 Q 233 -387 247 -387 Z " id="path31"/>
<path d="M 314 -709 Q 314 -727 317.5 -745 Q 321 -763 329.5 -779.5 Q 338 -796 351.5 -808.5 Q 365 -821 381 -829 Q 397 -837 415.5 -840 Q 434 -843 452 -843 L 454 -843 L 454 -774 L 452 -774 Q 439 -774 427 -769.5 Q 415 -765 406.5 -755.5 Q 398 -746 394.5 -734 Q 391 -722 391 -709 Z M 452 -167 Q 434 -167 415.5 -170 Q 397 -173 381 -181 Q 365 -189 351.5 -201.5 Q 338 -214 329.5 -230.5 Q 321 -247 317.5 -265 Q 314 -283 314 -301 L 314 -383 Q 308 -368 298.5 -355.5 Q 289 -343 276 -334 Q 263 -325 247 -321 Q 231 -317 216 -317 Q 198 -317 181 -322 Q 164 -327 150.5 -337.5 Q 137 -348 127.5 -363 Q 118 -378 112.5 -394.5 Q 107 -411 105 -428.5 Q 103 -446 103 -463 L 103 -547 Q 103 -564 105 -581.5 Q 107 -599 112.5 -615.5 Q 118 -632 127.5 -647 Q 137 -662 150.5 -672.5 Q 164 -683 181 -688 Q 198 -693 216 -693 Q 231 -693 247 -689 Q 263 -685 276 -676 Q 289 -667 298.5 -654.5 Q 308 -642 314 -627 L 314 -709 L 391 -709 L 391 -301 Q 391 -288 394.5 -276 Q 398 -264 406.5 -254.5 Q 415 -245 427 -240.5 Q 439 -236 452 -236 L 454 -236 L 454 -167 Z M 247 -387 Q 262 -387 275.5 -392 Q 289 -397 298.5 -408.5 Q 308 -420 311 -434.5 Q 314 -449 314 -463 L 314 -547 Q 314 -561 311 -575.5 Q 308 -590 298.5 -601.5 Q 289 -613 275.5 -618 Q 262 -623 247 -623 Q 233 -623 219 -618 Q 205 -613 196 -601.5 Q 187 -590 183.5 -575.5 Q 180 -561 180 -547 L 180 -463 Q 180 -449 183.5 -434.5 Q 187 -420 196 -408.5 Q 205 -397 219 -392 Q 233 -387 247 -387 Z " id="path32"/>
<path d="M 250 -317 Q 225 -317 199.5 -322 Q 174 -327 152.5 -340.5 Q 131 -354 118 -376.5 Q 105 -399 104 -425 L 181 -425 Q 182 -414 190 -405.5 Q 198 -397 208 -393 Q 218 -389 228.5 -388 Q 239 -387 250 -387 Q 265 -387 279 -392 Q 293 -397 302.5 -408 Q 312 -419 316 -433.5 Q 320 -448 320 -463 L 320 -470 L 103 -470 L 103 -547 Q 103 -567 106.5 -586.5 Q 110 -606 119 -623.5 Q 128 -641 142 -654.5 Q 156 -668 173.5 -677 Q 191 -686 210.5 -689.5 Q 230 -693 250 -693 Q 270 -693 289.5 -689.5 Q 309 -686 326.5 -677 Q 344 -668 358 -654.5 Q 372 -641 381 -623.5 Q 390 -606 393.5 -586.5 Q 397 -567 397 -547 L 397 -463 Q 397 -443 393.5 -423.5 Q 390 -404 381 -386.5 Q 372 -369 358 -355.5 Q 344 -342 326.5 -333 Q 309 -324 289.5 -320.5 Q 270 -317 250 -317 Z M 180 -540 L 320 -540 L 320 -547 Q 320 -562 316 -576.5 Q 312 -591 302.5 -602 Q 293 -613 279 -618 Q 265 -623 250 -623 Q 235 -623 221 -618 Q 207 -613 197.5 -602 Q 188 -591 184 -576.5 Q 180 -562 180 -547 Z " id="path33"/>
<path d="M 253 -317 Q 233 -317 213.5 -320.5 Q 194 -324 176 -332.5 Q 158 -341 143.5 -355 Q 129 -369 119.5 -386.5 Q 110 -404 106.5 -423.5 Q 103 -443 103 -463 L 103 -547 Q 103 -566 106.5 -585.5 Q 110 -605 118.5 -622.5 Q 127 -640 141 -654 Q 155 -668 172.5 -677 Q 190 -686 209 -689.5 Q 228 -693 248 -693 Q 273 -693 298.5 -688 Q 324 -683 345 -669.5 Q 366 -656 378.5 -633 Q 391 -610 391 -585 Q 391 -574 388.5 -562.5 Q 386 -551 380 -542 Q 374 -533 365 -525.5 Q 356 -518 346 -513 Q 358 -508 369 -500.5 Q 380 -493 388 -482 Q 396 -471 399.5 -458 Q 403 -445 403 -432 Q 403 -406 390 -381.5 Q 377 -357 355 -342.5 Q 333 -328 306.5 -322.5 Q 280 -317 253 -317 Z M 253 -387 Q 265 -387 277 -388.5 Q 289 -390 300 -395.5 Q 311 -401 318.5 -411 Q 326 -421 326 -433 Q 326 -445 317.5 -455 Q 309 -465 298 -470 Q 287 -475 274.5 -476.5 Q 262 -478 250 -478 L 208 -478 L 208 -547 L 250 -547 Q 260 -547 270.5 -548 Q 281 -549 290.5 -553 Q 300 -557 307 -565.5 Q 314 -574 314 -584 Q 314 -595 307 -603.5 Q 300 -612 290 -616.5 Q 280 -621 269.5 -622 Q 259 -623 248 -623 Q 233 -623 219 -618 Q 205 -613 196 -601.5 Q 187 -590 183.5 -576 Q 180 -562 180 -547 L 180 -463 Q 180 -448 184 -433 Q 188 -418 198.5 -407 Q 209 -396 223.5 -391.5 Q 238 -387 253 -387 Z " id="path34"/>
<path d="M 102 -323 L 102 -618 L 45 -618 L 45 -687 L 102 -687 L 102 -728 Q 102 -749 105.5 -769 Q 109 -789 119.5 -806.5 Q 130 -824 148.5 -833.5 Q 167 -843 188 -843 Q 206 -843 223.5 -836 Q 241 -829 252.5 -814 Q 264 -799 269 -781 Q 274 -763 274 -745 L 274 -743 L 197 -743 Q 197 -748 196.5 -752 Q 196 -756 195.5 -760 Q 195 -764 193.5 -769 Q 192 -774 188 -774 Q 184 -774 182.5 -769 Q 181 -764 180.5 -760 Q 180 -756 179.5 -752 Q 179 -748 179 -744 Q 179 -740 178.5 -736 Q 178 -732 178 -728 L 178 -687 L 251 -687 L 251 -618 L 178 -618 L 178 -323 Z M 317 -172 L 297 -172 L 297 -242 L 317 -242 Q 330 -242 342.5 -246.5 Q 355 -251 363 -260.5 Q 371 -270 374.5 -282.5 Q 378 -295 378 -308 L 378 -547 Q 378 -554 377.5 -561.5 Q 377 -569 376 -576.5 Q 375 -584 373.5 -591.5 Q 372 -599 368.5 -606 Q 365 -613 359.5 -618 Q 354 -623 346 -623 Q 339 -623 333 -618 Q 327 -613 324 -606 Q 321 -599 319 -591.5 Q 317 -584 316 -576.5 Q 315 -569 315 -561.5 Q 315 -554 315 -547 L 315 -323 L 238 -323 L 238 -618 L 224 -618 L 224 -687 L 315 -687 L 315 -636 Q 319 -647 324 -657 Q 329 -667 337 -675.5 Q 345 -684 356 -688.5 Q 367 -693 379 -693 Q 394 -693 407.5 -685 Q 421 -677 429.5 -664 Q 438 -651 442.5 -636.5 Q 447 -622 450 -607 Q 453 -592 454 -577 Q 455 -562 455 -547 L 455 -308 Q 455 -290 451.5 -271.5 Q 448 -253 440 -237 Q 432 -221 418.5 -208 Q 405 -195 388.5 -187 Q 372 -179 354 -175.5 Q 336 -172 317 -172 Z " id="path35"/>
<path d="M 250 -317 Q 229 -317 210.5 -326.5 Q 192 -336 180.5 -353.5 Q 169 -371 165.5 -391.5 Q 162 -412 162 -432 Q 162 -471 174 -507.5 Q 186 -544 206 -577 Q 197 -587 186 -595 Q 175 -603 162.5 -608.5 Q 150 -614 136 -616 Q 122 -618 109 -618 L 109 -687 Q 128 -687 147.5 -685 Q 167 -683 185.5 -676 Q 204 -669 220 -657.5 Q 236 -646 250 -632 Q 264 -646 280 -657.5 Q 296 -669 314.5 -676 Q 333 -683 352.5 -685 Q 372 -687 391 -687 L 391 -618 Q 378 -618 364 -616 Q 350 -614 337.5 -608.5 Q 325 -603 314 -595 Q 303 -587 294 -577 Q 314 -544 326 -507.5 Q 338 -471 338 -432 Q 338 -412 334.5 -391.5 Q 331 -371 319.5 -353.5 Q 308 -336 289.5 -326.5 Q 271 -317 250 -317 Z M 250 -374 Q 259 -374 264 -382 Q 269 -390 271.5 -398 Q 274 -406 274.5 -415 Q 275 -424 275 -432 Q 275 -456 268.5 -478.5 Q 262 -501 250 -521 Q 238 -501 231.5 -478.5 Q 225 -456 225 -432 Q 225 -424 225.5 -415 Q 226 -406 228.5 -398 Q 231 -390 236 -382 Q 241 -374 250 -374 Z " id="path36"/>
<path d="M 216 -317 Q 199 -317 182 -321.5 Q 165 -326 151 -336.5 Q 137 -347 127.5 -361.5 Q 118 -376 112.5 -392 Q 107 -408 105 -425 Q 103 -442 103 -460 L 103 -551 Q 103 -570 106.5 -589 Q 110 -608 119 -625 Q 128 -642 142 -655.5 Q 156 -669 173 -677.5 Q 190 -686 209.5 -689.5 Q 229 -693 248 -693 Q 275 -693 302 -686 Q 329 -679 350 -661.5 Q 371 -644 382 -618.5 Q 393 -593 393 -565 L 393 -561 L 316 -561 L 316 -563 Q 316 -576 311 -588 Q 306 -600 296 -608.5 Q 286 -617 273.5 -620 Q 261 -623 248 -623 Q 234 -623 220 -618.5 Q 206 -614 196.5 -603.5 Q 187 -593 183.5 -579 Q 180 -565 180 -551 L 180 -460 Q 180 -445 183.5 -431.5 Q 187 -418 196.5 -407 Q 206 -396 219.5 -391.5 Q 233 -387 247 -387 Q 261 -387 275 -391.5 Q 289 -396 298 -407 Q 307 -418 310.5 -431.5 Q 314 -445 314 -459 L 314 -460 L 250 -460 L 250 -530 L 391 -530 L 391 -323 L 321 -323 L 321 -401 Q 316 -383 307 -367 Q 298 -351 284 -339.5 Q 270 -328 252 -322.5 Q 234 -317 216 -317 Z " id="path37"/>
<path d="M 314 -709 Q 314 -727 317.5 -745 Q 321 -763 329.5 -779.5 Q 338 -796 351.5 -808.5 Q 365 -821 381 -829 Q 397 -837 415.5 -840 Q 434 -843 452 -843 L 454 -843 L 454 -774 L 452 -774 Q 439 -774 427 -769.5 Q 415 -765 406.5 -755.5 Q 398 -746 394.5 -734 Q 391 -722 391 -709 Z M 248 -167 Q 224 -167 200 -171.5 Q 176 -176 155.5 -188 Q 135 -200 121.5 -221.5 Q 108 -243 107 -267 L 184 -267 Q 185 -257 193 -250.5 Q 201 -244 210 -241 Q 219 -238 229 -237 Q 239 -236 248 -236 Q 263 -236 276.5 -241.5 Q 290 -247 299 -258.5 Q 308 -270 311 -284 Q 314 -298 314 -312 L 314 -383 Q 308 -368 298.5 -355.5 Q 289 -343 276 -334 Q 263 -325 247 -321 Q 231 -317 216 -317 Q 198 -317 181 -322 Q 164 -327 150.5 -337.5 Q 137 -348 127.5 -363 Q 118 -378 112.5 -394.5 Q 107 -411 105 -428.5 Q 103 -446 103 -463 L 103 -547 Q 103 -564 105 -581.5 Q 107 -599 112.5 -615.5 Q 118 -632 127.5 -647 Q 137 -662 150.5 -672.5 Q 164 -683 181 -688 Q 198 -693 216 -693 Q 231 -693 247 -689 Q 263 -685 276 -676 Q 289 -667 298.5 -654.5 Q 308 -642 314 -627 L 314 -709 L 391 -709 L 391 -313 Q 391 -293 388 -274 Q 385 -255 376.5 -237.5 Q 368 -220 354.5 -206 Q 341 -192 323.5 -183 Q 306 -174 287 -170.5 Q 268 -167 248 -167 Z M 247 -387 Q 262 -387 275.5 -392 Q 289 -397 298.5 -408.5 Q 308 -420 311 -434.5 Q 314 -449 314 -463 L 314 -547 Q 314 -561 311 -575.5 Q 308 -590 298.5 -601.5 Q 289 -613 275.5 -618 Q 262 -623 247 -623 Q 233 -623 219 -618 Q 205 -613 196 -601.5 Q 187 -590 183.5 -575.5 Q 180 -561 180 -547 L 180 -463 Q 180 -449 183.5 -434.5 Q 187 -420 196 -408.5 Q 205 -397 219 -392 Q 233 -387 247 -387 Z " id="path38"/>
<path d="M 324 -713 Q 324 -731 327.5 -748.5 Q 331 -766 339 -782 Q 347 -798 360.5 -810 Q 374 -822 390 -829.5 Q 406 -837 423.5 -840 Q 441 -843 459 -843 L 459 -782 Q 445 -782 431.5 -778 Q 418 -774 408.5 -764 Q 399 -754 395 -740.5 Q 391 -727 391 -713 Z M 216 -317 Q 199 -317 182 -321.5 Q 165 -326 151 -336.5 Q 137 -347 127.5 -361.5 Q 118 -376 112.5 -392 Q 107 -408 105 -425 Q 103 -442 103 -460 L 103 -551 Q 103 -568 105.5 -585.5 Q 108 -603 114 -619.5 Q 120 -636 130.5 -650.5 Q 141 -665 155.5 -674.5 Q 170 -684 187 -688.5 Q 204 -693 222 -693 Q 237 -693 252.5 -690 Q 268 -687 281.5 -680 Q 295 -673 306 -662 Q 317 -651 324 -637 L 324 -713 L 391 -713 L 391 -550 L 324 -550 L 324 -561 L 314 -561 Q 314 -574 310 -586.5 Q 306 -599 296 -607.5 Q 286 -616 273 -619.5 Q 260 -623 247 -623 Q 233 -623 219.5 -618.5 Q 206 -614 196.5 -603 Q 187 -592 183.5 -578.5 Q 180 -565 180 -551 L 180 -460 Q 180 -445 183.5 -431.5 Q 187 -418 196.5 -407 Q 206 -396 219.5 -391.5 Q 233 -387 247 -387 Q 261 -387 275 -391.5 Q 289 -396 298 -407 Q 307 -418 310.5 -431.5 Q 314 -445 314 -459 L 314 -460 L 250 -460 L 250 -530 L 391 -530 L 391 -323 L 321 -323 L 321 -401 Q 316 -383 307 -367 Q 298 -351 284 -339.5 Q 270 -328 252 -322.5 Q 234 -317 216 -317 Z " id="path39"/>
<path d="M 109 -323 L 109 -728 L 85 -728 L 85 -781 L 109 -781 L 109 -838 L 186 -838 L 186 -781 L 250 -781 L 250 -728 L 186 -728 L 186 -628 Q 192 -642 201 -654.5 Q 210 -667 223 -676 Q 236 -685 251 -689 Q 266 -693 282 -693 Q 299 -693 315.5 -688 Q 332 -683 345.5 -672 Q 359 -661 368 -646 Q 377 -631 382.5 -615 Q 388 -599 389.5 -581.5 Q 391 -564 391 -547 L 391 -323 L 314 -323 L 314 -547 Q 314 -561 311 -575 Q 308 -589 299.5 -600.5 Q 291 -612 277.5 -617.5 Q 264 -623 250 -623 Q 236 -623 222.5 -617.5 Q 209 -612 200.5 -600.5 Q 192 -589 189 -575 Q 186 -561 186 -547 L 186 -323 Z " id="path40"/>
<path d="M 109 -323 L 109 -687 L 186 -687 L 186 -544 L 314 -544 L 314 -687 L 391 -687 L 391 -323 L 314 -323 L 314 -475 L 186 -475 L 186 -323 Z " id="path41"/>
<path d="M 109 -709 Q 109 -727 112 -745 Q 115 -763 123.5 -779.5 Q 132 -796 145.5 -808.5 Q 159 -821 175.5 -829 Q 192 -837 210 -840 Q 228 -843 246 -843 L 249 -843 L 249 -774 L 246 -774 Q 233 -774 221 -769.5 Q 209 -765 200.5 -755.5 Q 192 -746 189 -734 Q 186 -722 186 -709 Z M 234 -172 L 234 -242 L 254 -242 Q 267 -242 279 -246.5 Q 291 -251 299.5 -260.5 Q 308 -270 311 -282.5 Q 314 -295 314 -308 L 314 -547 Q 314 -561 311 -575 Q 308 -589 299.5 -600.5 Q 291 -612 277.5 -617.5 Q 264 -623 250 -623 Q 236 -623 222.5 -617.5 Q 209 -612 200.5 -600.5 Q 192 -589 189 -575 Q 186 -561 186 -547 L 186 -323 L 109 -323 L 109 -709 L 186 -709 L 186 -628 Q 192 -642 201 -654.5 Q 210 -667 223 -676 Q 236 -685 251 -689 Q 266 -693 282 -693 Q 299 -693 315.5 -688 Q 332 -683 345.5 -672 Q 359 -661 368 -646 Q 377 -631 382.5 -615 Q 388 -599 389.5 -581.5 Q 391 -564 391 -547 L 391 -308 Q 391 -290 388 -271.5 Q 385 -253 376.5 -237 Q 368 -221 355 -208 Q 342 -195 325.5 -187 Q 309 -179 290.5 -175.5 Q 272 -172 254 -172 Z " id="path42"/>
<path d="M 256 -709 Q 256 -727 259 -745 Q 262 -763 270.5 -779.5 Q 279 -796 292.5 -808.5 Q 306 -821 322.5 -829 Q 339 -837 357 -840 Q 375 -843 393 -843 L 396 -843 L 396 -774 L 393 -774 Q 380 -774 368 -769.5 Q 356 -765 347.5 -755.5 Q 339 -746 336 -734 Q 333 -722 333 -709 Z M 205 -167 Q 181 -167 157.5 -173 Q 134 -179 115.5 -194 Q 97 -209 87.5 -231.5 Q 78 -254 78 -277 L 155 -277 Q 155 -268 159 -259.5 Q 163 -251 170.5 -245.5 Q 178 -240 187 -238 Q 196 -236 205 -236 Q 217 -236 228 -243 Q 239 -250 245.5 -260.5 Q 252 -271 254 -283.5 Q 256 -296 256 -309 L 256 -478 L 196 -478 L 196 -532 L 256 -532 L 256 -709 L 333 -709 L 333 -532 L 380 -532 L 380 -478 L 333 -478 L 333 -309 Q 333 -291 330 -273 Q 327 -255 320 -238 Q 313 -221 301.5 -207 Q 290 -193 274.5 -183.5 Q 259 -174 241 -170.5 Q 223 -167 205 -167 Z " id="path43"/>
<path d="M 213 -323 Q 196 -323 179 -326 Q 162 -329 146.5 -336 Q 131 -343 118.5 -355 Q 106 -367 98 -382.5 Q 90 -398 86.5 -415 Q 83 -432 83 -449 L 83 -768 L 14 -768 L 14 -838 L 160 -838 L 160 -449 Q 160 -438 163 -427 Q 166 -416 173.5 -408 Q 181 -400 191.5 -396 Q 202 -392 213 -392 L 262 -392 L 262 -323 Z M 238 -323 L 238 -392 L 346 -392 Q 353 -392 359.5 -393.5 Q 366 -395 371.5 -398 Q 377 -401 380 -407 Q 383 -413 383 -419 Q 383 -431 376.5 -442 Q 370 -453 360.5 -460.5 Q 351 -468 340 -472.5 Q 329 -477 318 -482.5 Q 307 -488 297 -494.5 Q 287 -501 278 -509 Q 269 -517 261.5 -527 Q 254 -537 248.5 -547.5 Q 243 -558 240.5 -570 Q 238 -582 238 -594 Q 238 -615 246 -634.5 Q 254 -654 269.5 -668 Q 285 -682 305.5 -687.5 Q 326 -693 347 -693 Q 370 -693 392.5 -683.5 Q 415 -674 429.5 -655.5 Q 444 -637 450 -614 Q 456 -591 456 -568 L 456 -561 L 379 -561 L 379 -564 Q 379 -573 378 -582.5 Q 377 -592 373.5 -601 Q 370 -610 363 -616.5 Q 356 -623 347 -623 Q 340 -623 334 -621.5 Q 328 -620 323.5 -615.5 Q 319 -611 317 -605 Q 315 -599 315 -592 Q 315 -577 324 -564.5 Q 333 -552 346 -544 Q 359 -536 373 -530 Q 387 -524 400 -516 Q 413 -508 424 -497.5 Q 435 -487 443 -474 Q 451 -461 456 -446.5 Q 461 -432 461 -417 Q 461 -396 451.5 -376.5 Q 442 -357 425.5 -344.5 Q 409 -332 388 -327.5 Q 367 -323 346 -323 Z " id="path44"/>
<path d="M 213 -323 Q 196 -323 179 -326 Q 162 -329 146.5 -336 Q 131 -343 118.5 -355 Q 106 -367 98 -382.5 Q 90 -398 86.5 -415 Q 83 -432 83 -449 L 83 -768 L 14 -768 L 14 -838 L 160 -838 L 160 -449 Q 160 -438 163 -427 Q 166 -416 173.5 -408 Q 181 -400 191.5 -396 Q 202 -392 213 -392 L 262 -392 L 262 -323 Z M 238 -323 L 238 -392 L 376 -618 L 238 -618 L 238 -687 L 455 -687 L 455 -618 L 317 -392 L 455 -392 L 455 -323 Z " id="path45"/>
<path d="M 373 -323 L 128 -323 L 128 -392 L 216 -392 L 216 -528 L 193 -528 Q 180 -528 167 -531.5 Q 154 -535 144 -543.5 Q 134 -552 129.5 -564.5 Q 125 -577 125 -591 Q 125 -604 129.5 -616.5 Q 134 -629 144 -637.5 Q 154 -646 167 -649.5 Q 180 -653 193 -653 L 216 -653 L 216 -768 L 137 -768 L 137 -838 L 293 -838 L 293 -572 L 361 -572 L 361 -528 L 293 -528 L 293 -392 L 373 -392 Z M 193 -572 L 216 -572 L 216 -609 L 193 -609 Q 186 -609 180.5 -603.5 Q 175 -598 175 -591 Q 175 -583 180.5 -577.5 Q 186 -572 193 -572 Z " id="path46"/>
<path d="M 125 -323 L 125 -442 L 102 -442 Q 89 -442 76 -445.5 Q 63 -449 53 -458 Q 43 -467 38.5 -479.5 Q 34 -492 34 -505 Q 34 -518 38.5 -530.5 Q 43 -543 53 -552 Q 63 -561 76 -564.5 Q 89 -568 102 -568 L 125 -568 L 125 -687 L 202 -687 L 202 -487 L 270 -487 L 270 -442 L 202 -442 L 202 -392 L 396 -392 L 396 -323 Z M 102 -487 L 125 -487 L 125 -523 L 102 -523 Q 95 -523 89.5 -517.5 Q 84 -512 84 -505 Q 84 -498 89.5 -492.5 Q 95 -487 102 -487 Z " id="path47"/>
<path d="M 349 -167 Q 331 -167 313 -170 Q 295 -173 278.5 -181 Q 262 -189 248.5 -201.5 Q 235 -214 226.5 -230.5 Q 218 -247 215 -265 Q 212 -283 212 -301 L 212 -528 L 188 -528 Q 175 -528 162 -531.5 Q 149 -535 139 -543.5 Q 129 -552 125 -564.5 Q 121 -577 121 -591 Q 121 -604 125 -616.5 Q 129 -629 139 -637.5 Q 149 -646 162 -649.5 Q 175 -653 188 -653 L 212 -653 L 212 -768 L 128 -768 L 128 -838 L 288 -838 L 288 -572 L 356 -572 L 356 -528 L 288 -528 L 288 -301 Q 288 -288 291.5 -276 Q 295 -264 303.5 -254.5 Q 312 -245 324 -240.5 Q 336 -236 349 -236 L 352 -236 L 352 -167 Z M 188 -572 L 212 -572 L 212 -609 L 188 -609 Q 181 -609 175.5 -603.5 Q 170 -598 170 -591 Q 170 -583 175.5 -577.5 Q 181 -572 188 -572 Z " id="path48"/>
<path d="M 252 -167 Q 224 -167 197 -174.5 Q 170 -182 149 -200 Q 128 -218 117.5 -244.5 Q 107 -271 107 -298 L 184 -298 Q 184 -286 189 -273.5 Q 194 -261 203.5 -252 Q 213 -243 226 -239.5 Q 239 -236 252 -236 Q 268 -236 283 -244.5 Q 298 -253 306 -267 Q 314 -281 317 -297.5 Q 320 -314 320 -330 Q 320 -347 317 -363 Q 314 -379 305 -392.5 Q 296 -406 281 -413.5 Q 266 -421 250 -421 L 222 -421 L 222 -490 L 293 -618 L 186 -618 L 186 -359 L 109 -359 L 109 -768 L 88 -768 L 88 -838 L 186 -838 L 186 -687 L 370 -687 L 370 -618 L 296 -485 Q 321 -479 341.5 -463.5 Q 362 -448 375 -426.5 Q 388 -405 392.5 -380 Q 397 -355 397 -330 Q 397 -309 394 -288.5 Q 391 -268 383 -249 Q 375 -230 362 -213.5 Q 349 -197 331 -186.5 Q 313 -176 292.5 -171.5 Q 272 -167 252 -167 Z " id="path49"/>
<path d="M 246 -167 Q 228 -167 210 -170 Q 192 -173 175.5 -181 Q 159 -189 145.5 -201.5 Q 132 -214 123.5 -230.5 Q 115 -247 112 -265 Q 109 -283 109 -301 L 109 -398 Q 108 -402 107.5 -405.5 Q 107 -409 107 -412 L 109 -412 L 109 -768 L 88 -768 L 88 -838 L 186 -838 L 186 -687 L 370 -687 L 370 -618 L 307 -552 Q 326 -547 343.5 -537 Q 361 -527 373.5 -512 Q 386 -497 391.5 -478 Q 397 -459 397 -439 Q 397 -412 386 -387 Q 375 -362 353.5 -345.5 Q 332 -329 305.5 -323 Q 279 -317 252 -317 Q 235 -317 218.5 -319 Q 202 -321 186 -325 L 186 -301 Q 186 -288 189 -276 Q 192 -264 200.5 -254.5 Q 209 -245 221 -240.5 Q 233 -236 246 -236 L 249 -236 L 249 -167 Z M 252 -387 Q 264 -387 276 -389 Q 288 -391 298 -398 Q 308 -405 314 -416 Q 320 -427 320 -439 Q 320 -451 314 -462 Q 308 -473 297 -479 Q 286 -485 274 -487 Q 262 -489 250 -489 L 222 -489 L 222 -558 L 279 -618 L 186 -618 L 186 -407 Q 189 -399 198 -395.5 Q 207 -392 216 -390 Q 225 -388 234 -387.5 Q 243 -387 252 -387 Z " id="path50"/>
<path d="M 102 -323 L 251 -838 L 331 -838 Q 323 -812 315.5 -786 Q 308 -760 301 -735 L 289 -693 L 340 -518 L 398 -323 L 319 -323 L 248 -595 L 181 -323 Z " id="path51"/>
<path d="M 102 -323 L 189 -624 L 188 -624 Q 175 -624 162 -627.5 Q 149 -631 139 -640 Q 129 -649 125 -661.5 Q 121 -674 121 -687 Q 121 -700 125 -712.5 Q 129 -725 139 -734 Q 149 -743 162 -746.5 Q 175 -750 188 -750 L 226 -750 L 251 -838 L 331 -838 Q 323 -812 315.5 -786 Q 308 -760 301 -735 L 289 -693 L 296 -669 L 356 -669 L 356 -624 L 309 -624 L 340 -518 L 398 -323 L 319 -323 L 248 -595 L 181 -323 Z M 188 -669 L 202 -669 L 213 -705 L 188 -705 Q 181 -705 175.5 -699.5 Q 170 -694 170 -687 Q 170 -680 175.5 -674.5 Q 181 -669 188 -669 Z " id="path52"/>
<path d="M 155 -291 L 104 -319 L 133 -366 Q 124 -376 118.5 -387.5 Q 113 -399 109 -411.5 Q 105 -424 104 -437 Q 103 -450 103 -463 L 103 -547 Q 103 -567 106.5 -586.5 Q 110 -606 119 -623.5 Q 128 -641 142 -654.5 Q 156 -668 173.5 -677 Q 191 -686 210.5 -689.5 Q 230 -693 250 -693 Q 268 -693 286.5 -690 Q 305 -687 321 -680 L 345 -719 L 396 -691 L 367 -644 Q 376 -634 381.5 -622.5 Q 387 -611 391 -598.5 Q 395 -586 396 -573 Q 397 -560 397 -547 L 397 -463 Q 397 -443 393.5 -423.5 Q 390 -404 381 -386.5 Q 372 -369 358 -355.5 Q 344 -342 326.5 -333 Q 309 -324 289.5 -320.5 Q 270 -317 250 -317 Q 232 -317 213.5 -320 Q 195 -323 179 -330 Z M 181 -446 L 284 -617 Q 276 -620 267.5 -621.5 Q 259 -623 250 -623 Q 235 -623 221 -618 Q 207 -613 197.5 -602 Q 188 -591 184 -576.5 Q 180 -562 180 -547 L 180 -463 Q 180 -459 180 -454.5 Q 180 -450 181 -446 Z M 250 -387 Q 265 -387 279 -392 Q 293 -397 302.5 -408 Q 312 -419 316 -433.5 Q 320 -448 320 -463 L 320 -547 Q 320 -551 320 -555.5 Q 320 -560 319 -564 L 216 -393 Q 224 -390 232.5 -388.5 Q 241 -387 250 -387 Z " id="path53"/>
<path d="M 232 -323 L 232 -687 L 400 -687 L 400 -621 L 305 -621 L 305 -545 L 383 -545 L 383 -479 L 305 -479 L 305 -389 L 400 -389 L 400 -323 Z M 232 -323 Q 214 -323 196 -326.5 Q 178 -330 162 -338.5 Q 146 -347 133.5 -360 Q 121 -373 113.5 -389.5 Q 106 -406 103 -424 Q 100 -442 100 -460 L 100 -551 Q 100 -568 103 -586 Q 106 -604 113.5 -620.5 Q 121 -637 133.5 -650 Q 146 -663 162 -671.5 Q 178 -680 196 -683.5 Q 214 -687 232 -687 L 232 -621 Q 219 -621 206.5 -615.5 Q 194 -610 186.5 -599.5 Q 179 -589 176.5 -576 Q 174 -563 174 -551 L 174 -460 Q 174 -447 176.5 -434 Q 179 -421 186.5 -410.5 Q 194 -400 206.5 -394.5 Q 219 -389 232 -389 Z " id="path54"/>
<path d="M 181 -317 Q 164 -317 149 -326.5 Q 134 -336 124 -350.5 Q 114 -365 108.5 -381.5 Q 103 -398 100 -415 Q 97 -432 96 -449.5 Q 95 -467 95 -484 Q 95 -509 97 -534 Q 99 -559 106 -583 Q 113 -607 126 -629 Q 139 -651 158 -667 Q 177 -683 201 -690.5 Q 225 -698 250 -698 Q 275 -698 299 -690.5 Q 323 -683 342 -667 Q 361 -651 374 -629 Q 387 -607 394 -583 Q 401 -559 403 -534 Q 405 -509 405 -484 Q 405 -467 404 -449.5 Q 403 -432 400 -415 Q 397 -398 391.5 -381.5 Q 386 -365 376 -350.5 Q 366 -336 351 -326.5 Q 336 -317 319 -317 Q 306 -317 294.5 -322 Q 283 -327 274.5 -335.5 Q 266 -344 260 -355 Q 254 -366 250 -377 Q 246 -366 240 -355 Q 234 -344 225.5 -335.5 Q 217 -327 205.5 -322 Q 194 -317 181 -317 Z M 191 -384 Q 196 -384 199 -389 Q 202 -394 203.5 -399 Q 205 -404 206 -409.5 Q 207 -415 208 -420 Q 209 -425 209.5 -430.5 Q 210 -436 210.5 -441 Q 211 -446 211.5 -451.5 Q 212 -457 212 -462.5 Q 212 -468 212.5 -473 Q 213 -478 213 -483.5 Q 213 -489 213 -494.5 Q 213 -500 213 -505 L 213 -560 L 287 -560 L 287 -505 Q 287 -500 287 -494.5 Q 287 -489 287 -483.5 Q 287 -478 287.5 -473 Q 288 -468 288 -462.5 Q 288 -457 288.5 -451.5 Q 289 -446 289.5 -441 Q 290 -436 290.5 -430.5 Q 291 -425 292 -420 Q 293 -415 294 -409.5 Q 295 -404 296.5 -399 Q 298 -394 301 -389 Q 304 -384 309 -384 Q 315 -384 318 -389 Q 321 -394 322.5 -399 Q 324 -404 325.5 -409 Q 327 -414 327.5 -419 Q 328 -424 329 -429.5 Q 330 -435 330 -440 Q 330 -445 330.5 -450.5 Q 331 -456 331.5 -461 Q 332 -466 332 -471.5 Q 332 -477 332 -482 Q 332 -498 331 -513.5 Q 330 -529 327 -545 Q 324 -561 318.5 -576 Q 313 -591 304 -603.5 Q 295 -616 280.5 -624 Q 266 -632 250 -632 Q 234 -632 219.5 -624 Q 205 -616 196 -603.5 Q 187 -591 181.5 -576 Q 176 -561 173 -545 Q 170 -529 169 -513.5 Q 168 -498 168 -482 Q 168 -477 168 -471.5 Q 168 -466 168.5 -461 Q 169 -456 169.5 -450.5 Q 170 -445 170 -440 Q 170 -435 171 -429.5 Q 172 -424 172.5 -419 Q 173 -414 174.5 -409 Q 176 -404 177.5 -399 Q 179 -394 182 -389 Q 185 -384 191 -384 Z " id="path55"/>
<path d="M 391 -172 L 314 -172 L 314 -383 Q 308 -368 298.5 -355.5 Q 289 -343 276 -334 Q 263 -325 247 -321 Q 231 -317 216 -317 Q 198 -317 181 -322 Q 164 -327 150.5 -337.5 Q 137 -348 127.5 -363 Q 118 -378 112.5 -394.5 Q 107 -411 105 -428.5 Q 103 -446 103 -463 L 103 -547 Q 103 -564 105 -581.5 Q 107 -599 112.5 -615.5 Q 118 -632 127.5 -647 Q 137 -662 150.5 -672.5 Q 164 -683 181 -688 Q 198 -693 216 -693 Q 231 -693 247 -689 Q 263 -685 276 -676 Q 289 -667 298.5 -654.5 Q 308 -642 314 -627 L 314 -687 L 391 -687 Z M 247 -387 Q 262 -387 275.5 -392 Q 289 -397 298.5 -408.5 Q 308 -420 311 -434.5 Q 314 -449 314 -463 L 314 -547 Q 314 -561 311 -575.5 Q 308 -590 298.5 -601.5 Q 289 -613 275.5 -618 Q 262 -623 247 -623 Q 233 -623 219 -618 Q 205 -613 196 -601.5 Q 187 -590 183.5 -575.5 Q 180 -561 180 -547 L 180 -463 Q 180 -449 183.5 -434.5 Q 187 -420 196 -408.5 Q 205 -397 219 -392 Q 233 -387 247 -387 Z " id="path56"/>
<path d="M 184 -317 Q 170 -317 156.5 -321 Q 143 -325 132.5 -334 Q 122 -343 115 -355 Q 108 -367 104.5 -380 Q 101 -393 99.5 -407 Q 98 -421 98 -435 L 175 -435 Q 175 -426 176.5 -417.5 Q 178 -409 182.5 -401.5 Q 187 -394 195 -390.5 Q 203 -387 212 -387 Q 223 -387 233.5 -392 Q 244 -397 251 -406.5 Q 258 -416 262 -426.5 Q 266 -437 268.5 -448.5 Q 271 -460 271.5 -471.5 Q 272 -483 272 -494 L 272 -838 L 349 -838 L 349 -323 L 272 -323 L 272 -393 Q 267 -378 259.5 -364 Q 252 -350 241 -339.5 Q 230 -329 215 -323 Q 200 -317 184 -317 Z " id="path57"/>
<path d="M 410 -167 Q 392 -167 373.5 -170 Q 355 -173 339 -181 Q 323 -189 309.5 -201.5 Q 296 -214 287.5 -230.5 Q 279 -247 275.5 -265 Q 272 -283 272 -301 L 272 -393 Q 267 -378 259.5 -364 Q 252 -350 241 -339.5 Q 230 -329 215 -323 Q 200 -317 184 -317 Q 170 -317 156.5 -321 Q 143 -325 132.5 -334 Q 122 -343 115 -355 Q 108 -367 104.5 -380 Q 101 -393 99.5 -407 Q 98 -421 98 -435 L 175 -435 Q 175 -426 176.5 -417.5 Q 178 -409 182.5 -401.5 Q 187 -394 195 -390.5 Q 203 -387 212 -387 Q 223 -387 233.5 -392 Q 244 -397 251 -406.5 Q 258 -416 262 -426.5 Q 266 -437 268.5 -448.5 Q 271 -460 271.5 -471.5 Q 272 -483 272 -494 L 272 -838 L 349 -838 L 349 -301 Q 349 -288 352.5 -276 Q 356 -264 364.5 -254.5 Q 373 -245 385 -240.5 Q 397 -236 410 -236 L 412 -236 L 412 -167 Z " id="path58"/>
<path d="M 288 -167 Q 270 -167 252 -170 Q 234 -173 217.5 -181 Q 201 -189 187.5 -201.5 Q 174 -214 165.5 -230.5 Q 157 -247 154 -265 Q 151 -283 151 -301 L 151 -687 L 228 -687 L 228 -617 Q 233 -632 240.5 -646 Q 248 -660 259 -670.5 Q 270 -681 285 -687 Q 300 -693 316 -693 Q 330 -693 343.5 -689 Q 357 -685 367.5 -676 Q 378 -667 385 -655 Q 392 -643 395.5 -630 Q 399 -617 400.5 -603 Q 402 -589 402 -575 L 325 -575 Q 325 -584 323.5 -592.5 Q 322 -601 317.5 -608.5 Q 313 -616 305 -619.5 Q 297 -623 288 -623 Q 277 -623 266.5 -618 Q 256 -613 249 -603.5 Q 242 -594 238 -583.5 Q 234 -573 231.5 -561.5 Q 229 -550 228.5 -538.5 Q 228 -527 228 -516 L 228 -301 Q 228 -288 231 -276 Q 234 -264 242.5 -254.5 Q 251 -245 263 -240.5 Q 275 -236 288 -236 L 291 -236 L 291 -167 Z " id="path59"/>
<path d="M 151 -323 L 151 -547 Q 151 -565 153.5 -583.5 Q 156 -602 163 -619 Q 170 -636 181.5 -650.5 Q 193 -665 208.5 -675 Q 224 -685 242.5 -689 Q 261 -693 279 -693 Q 300 -693 320.5 -689.5 Q 341 -686 359 -676 Q 377 -666 389.5 -648.5 Q 402 -631 403 -610 L 326 -610 Q 324 -616 317.5 -618 Q 311 -620 304.5 -621.5 Q 298 -623 291.5 -623 Q 285 -623 279 -623 Q 266 -623 255 -616 Q 244 -609 238 -597.5 Q 232 -586 230 -573 Q 228 -560 228 -547 L 228 -323 Z " id="path60"/>
<path d="M 109 -323 L 109 -687 L 275 -687 Q 291 -687 307 -684.5 Q 323 -682 337.5 -675 Q 352 -668 364 -656.5 Q 376 -645 383.5 -630.5 Q 391 -616 394 -600 Q 397 -584 397 -568 Q 397 -550 393 -531.5 Q 389 -513 379 -497.5 Q 369 -482 353.5 -471 Q 338 -460 320 -455 L 408 -323 L 319 -323 L 235 -449 L 186 -449 L 186 -323 Z M 275 -519 Q 284 -519 293.5 -522 Q 303 -525 309 -532.5 Q 315 -540 317.5 -549.5 Q 320 -559 320 -568 Q 320 -578 317.5 -587.5 Q 315 -597 309 -604 Q 303 -611 293.5 -614.5 Q 284 -618 275 -618 L 186 -618 L 186 -519 Z " id="path61"/>
<path d="M 225 -323 Q 209 -323 193.5 -325.5 Q 178 -328 163.5 -335 Q 149 -342 137.5 -353.5 Q 126 -365 119 -379.5 Q 112 -394 109.5 -409.5 Q 107 -425 107 -441 L 107 -618 L 45 -618 L 45 -687 L 107 -687 L 107 -838 L 184 -838 L 184 -687 L 262 -687 L 262 -618 L 184 -618 L 184 -441 Q 184 -432 186 -423 Q 188 -414 193.5 -406.5 Q 199 -399 207.5 -395.5 Q 216 -392 225 -392 L 262 -392 L 262 -323 Z M 251 -299 L 193 -323 Q 203 -345 213.5 -366.5 Q 224 -388 238 -408 Q 234 -421 233 -435 Q 232 -449 232 -463 L 232 -547 Q 232 -564 234 -581.5 Q 236 -599 241.5 -615.5 Q 247 -632 256.5 -647 Q 266 -662 279.5 -672.5 Q 293 -683 310 -688 Q 327 -693 344 -693 Q 368 -693 391 -683.5 Q 414 -674 428.5 -655 Q 443 -636 449.5 -612 Q 456 -588 456 -564 L 456 -561 L 379 -561 L 379 -563 Q 379 -572 377.5 -582 Q 376 -592 372.5 -601 Q 369 -610 361.5 -616.5 Q 354 -623 344 -623 Q 333 -623 325.5 -613.5 Q 318 -604 314.5 -593 Q 311 -582 310 -570.5 Q 309 -559 309 -547 L 309 -476 Q 323 -484 338.5 -488 Q 354 -492 370 -492 Q 387 -492 404 -487 Q 421 -482 432.5 -469.5 Q 444 -457 449.5 -440.5 Q 455 -424 455 -406 Q 455 -386 446.5 -367.5 Q 438 -349 421.5 -337.5 Q 405 -326 385 -321.5 Q 365 -317 345 -317 Q 325 -317 305 -324 Q 285 -331 271 -346 Q 270 -343 268.5 -340 Q 267 -337 266 -334 Q 265 -331 263.5 -328 Q 262 -325 261 -322 Q 260 -319 258.5 -316 Q 257 -313 256 -310.5 Q 255 -308 253.5 -304 Q 252 -300 251 -299 Z M 352 -375 Q 359 -375 366 -376.5 Q 373 -378 379 -382 Q 385 -386 388 -393 Q 391 -400 391 -407 Q 391 -417 385.5 -426 Q 380 -435 370 -435 Q 355 -435 340.5 -428.5 Q 326 -422 315 -412 Q 317 -406 320 -399.5 Q 323 -393 327.5 -387 Q 332 -381 338.5 -378 Q 345 -375 352 -375 Z " id="path62"/>
<path d="M 225 -323 Q 209 -323 193.5 -325.5 Q 178 -328 163.5 -335 Q 149 -342 137.5 -353.5 Q 126 -365 119 -379.5 Q 112 -394 109.5 -409.5 Q 107 -425 107 -441 L 107 -618 L 45 -618 L 45 -687 L 107 -687 L 107 -838 L 184 -838 L 184 -687 L 262 -687 L 262 -618 L 184 -618 L 184 -441 Q 184 -432 186 -423 Q 188 -414 193.5 -406.5 Q 199 -399 207.5 -395.5 Q 216 -392 225 -392 L 262 -392 L 262 -323 Z M 238 -323 L 238 -392 L 346 -392 Q 353 -392 359.5 -393.5 Q 366 -395 371.5 -398 Q 377 -401 380 -407 Q 383 -413 383 -419 Q 383 -431 376.5 -442 Q 370 -453 360.5 -460.5 Q 351 -468 340 -472.5 Q 329 -477 318 -482.5 Q 307 -488 297 -494.5 Q 287 -501 278 -509 Q 269 -517 261.5 -527 Q 254 -537 248.5 -547.5 Q 243 -558 240.5 -570 Q 238 -582 238 -594 Q 238 -615 246 -634.5 Q 254 -654 269.5 -668 Q 285 -682 305.5 -687.5 Q 326 -693 347 -693 Q 370 -693 392.5 -683.5 Q 415 -674 429.5 -655.5 Q 444 -637 450 -614 Q 456 -591 456 -568 L 456 -561 L 379 -561 L 379 -564 Q 379 -573 378 -582.5 Q 377 -592 373.5 -601 Q 370 -610 363 -616.5 Q 356 -623 347 -623 Q 340 -623 334 -621.5 Q 328 -620 323.5 -615.5 Q 319 -611 317 -605 Q 315 -599 315 -592 Q 315 -577 324 -564.5 Q 333 -552 346 -544 Q 359 -536 373 -530 Q 387 -524 400 -516 Q 413 -508 424 -497.5 Q 435 -487 443 -474 Q 451 -461 456 -446.5 Q 461 -432 461 -417 Q 461 -396 451.5 -376.5 Q 442 -357 425.5 -344.5 Q 409 -332 388 -327.5 Q 367 -323 346 -323 Z " id="path63"/>
<path d="M 225 -323 Q 209 -323 193.5 -325.5 Q 178 -328 163.5 -335 Q 149 -342 137.5 -353.5 Q 126 -365 119 -379.5 Q 112 -394 109.5 -409.5 Q 107 -425 107 -441 L 107 -618 L 45 -618 L 45 -687 L 107 -687 L 107 -838 L 184 -838 L 184 -687 L 262 -687 L 262 -618 L 184 -618 L 184 -441 Q 184 -432 186 -423 Q 188 -414 193.5 -406.5 Q 199 -399 207.5 -395.5 Q 216 -392 225 -392 L 262 -392 L 262 -323 Z M 373 -167 Q 355 -167 337.5 -170 Q 320 -173 304 -180.5 Q 288 -188 274.5 -200 Q 261 -212 252.5 -228 Q 244 -244 241 -261.5 Q 238 -279 238 -297 L 238 -449 L 305 -449 L 305 -417 Q 305 -411 308 -404.5 Q 311 -398 316 -394 Q 321 -390 328 -388.5 Q 335 -387 341 -387 Q 348 -387 355 -388.5 Q 362 -390 367 -394 Q 372 -398 375 -404.5 Q 378 -411 378 -418 Q 378 -432 368 -444 Q 358 -456 345 -463 Q 332 -470 318.5 -476 Q 305 -482 294 -491.5 Q 283 -501 273.5 -512.5 Q 264 -524 257.5 -537 Q 251 -550 247 -564.5 Q 243 -579 243 -594 Q 243 -614 250.5 -633.5 Q 258 -653 272.5 -667 Q 287 -681 307 -687 Q 327 -693 347 -693 Q 367 -693 386.5 -687.5 Q 406 -682 421 -668.5 Q 436 -655 443.5 -636 Q 451 -617 451 -597 L 451 -593 L 374 -593 L 374 -594 Q 374 -599 372.5 -604.5 Q 371 -610 367 -614.5 Q 363 -619 358 -621 Q 353 -623 347 -623 Q 341 -623 335.5 -621 Q 330 -619 326.5 -614.5 Q 323 -610 321.5 -604 Q 320 -598 320 -593 Q 320 -578 330 -566 Q 340 -554 353 -547 Q 366 -540 379.5 -533.5 Q 393 -527 404.5 -517.5 Q 416 -508 425 -496.5 Q 434 -485 441 -472 Q 448 -459 451.5 -444.5 Q 455 -430 455 -415 Q 455 -397 450 -379 Q 445 -361 433.5 -346.5 Q 422 -332 404.5 -324.5 Q 387 -317 369 -317 Q 351 -317 334 -324 Q 317 -331 305 -344 L 305 -297 Q 305 -283 309 -269.5 Q 313 -256 322.5 -246 Q 332 -236 345.5 -232 Q 359 -228 373 -228 Z " id="path64"/>
<path d="M 175 -317 Q 154 -317 134.5 -326.5 Q 115 -336 103.5 -353 Q 92 -370 87.5 -390.5 Q 83 -411 83 -432 L 83 -618 L 42 -618 L 42 -687 L 83 -687 L 83 -838 L 160 -838 L 160 -687 L 346 -687 L 346 -618 L 160 -618 L 160 -432 Q 160 -428 160.5 -423.5 Q 161 -419 161 -415 Q 161 -411 162 -407 Q 163 -403 164.5 -398.5 Q 166 -394 168.5 -390.5 Q 171 -387 175 -387 Q 180 -387 182.5 -392.5 Q 185 -398 186 -403.5 Q 187 -409 188 -414 Q 189 -419 189 -424.5 Q 189 -430 189.5 -435.5 Q 190 -441 190 -446 L 190 -449 L 267 -449 L 267 -443 Q 267 -428 265 -413.5 Q 263 -399 258.5 -385 Q 254 -371 247 -358.5 Q 240 -346 229 -336.5 Q 218 -327 203.5 -322 Q 189 -317 175 -317 Z M 247 -172 L 210 -172 L 210 -242 L 247 -242 Q 262 -242 275 -249 Q 288 -256 295.5 -269 Q 303 -282 305.5 -296.5 Q 308 -311 308 -325 L 308 -685 Q 308 -704 310.5 -723.5 Q 313 -743 320.5 -761 Q 328 -779 340.5 -794.5 Q 353 -810 370 -820 Q 387 -830 406.5 -834 Q 426 -838 445 -838 L 483 -838 L 483 -768 L 445 -768 Q 431 -768 417.5 -761 Q 404 -754 397 -741 Q 390 -728 387.5 -713.5 Q 385 -699 385 -685 L 385 -325 Q 385 -306 382 -286.5 Q 379 -267 371.5 -249 Q 364 -231 351.5 -215.5 Q 339 -200 322.5 -190 Q 306 -180 286.5 -176 Q 267 -172 247 -172 Z " id="path65"/>
<path d="M 356 -172 Q 335 -172 313.5 -176 Q 292 -180 273 -189.5 Q 254 -199 239 -215 Q 224 -231 214.5 -250 Q 205 -269 202 -290.5 Q 199 -312 199 -333 L 199 -618 L 109 -618 L 109 -687 L 199 -687 L 199 -838 L 275 -838 L 275 -687 L 391 -687 L 391 -618 L 275 -618 L 275 -333 Q 275 -316 279.5 -298.5 Q 284 -281 294.5 -267.5 Q 305 -254 322 -248 Q 339 -242 356 -242 Z " id="path66"/>
<path d="M 206 -323 L 96 -687 L 176 -687 L 242 -444 Q 245 -432 248.5 -419.5 Q 252 -407 255 -394 Q 261 -418 265 -442 Q 269 -466 272.5 -490.5 Q 276 -515 278.5 -539.5 Q 281 -564 284.5 -588 Q 288 -612 299.5 -634.5 Q 311 -657 331 -671 Q 351 -685 376 -689 Q 401 -693 425 -693 L 425 -623 Q 411 -623 397.5 -619 Q 384 -615 375 -604.5 Q 366 -594 363 -580.5 Q 360 -567 358 -553 Q 353 -523 348 -493.5 Q 343 -464 336 -435 Q 329 -406 320 -377 Q 311 -348 294 -323 Z " id="path67"/>
<path d="M 212 -323 L 212 -464 L 96 -687 L 183 -687 L 250 -550 L 317 -687 L 404 -687 L 288 -464 L 288 -323 Z " id="path68"/>
<path d="M 212 -323 L 212 -425 L 158 -425 L 158 -478 L 214 -478 Q 217 -498 224.5 -517 Q 232 -536 243 -553 Q 254 -570 266.5 -586 Q 279 -602 290 -619 Q 301 -636 308 -655 Q 315 -674 315 -695 Q 315 -709 311 -723.5 Q 307 -738 299 -749.5 Q 291 -761 277.5 -767.5 Q 264 -774 249 -774 Q 236 -774 224 -770.5 Q 212 -767 202.5 -758 Q 193 -749 188.5 -737 Q 184 -725 184 -712 L 107 -712 L 107 -713 Q 107 -740 117.5 -766 Q 128 -792 148 -810 Q 168 -828 195 -835.5 Q 222 -843 249 -843 Q 278 -843 306 -833.5 Q 334 -824 353.5 -802.5 Q 373 -781 382.5 -753 Q 392 -725 392 -696 Q 392 -675 387.5 -655.5 Q 383 -636 374.5 -617 Q 366 -598 355 -581.5 Q 344 -565 331.5 -549 Q 319 -533 308 -515.5 Q 297 -498 292 -478 L 342 -478 L 342 -425 L 288 -425 L 288 -323 Z " id="path69"/>
<path d="M 212 -323 L 212 -425 L 158 -425 L 158 -478 L 208 -478 Q 203 -498 192 -515.5 Q 181 -533 168.5 -549 Q 156 -565 145 -581.5 Q 134 -598 125.5 -617 Q 117 -636 112.5 -655.5 Q 108 -675 108 -696 Q 108 -725 117.5 -753 Q 127 -781 146.5 -802.5 Q 166 -824 194 -833.5 Q 222 -843 251 -843 Q 278 -843 305 -835.5 Q 332 -828 352 -810 Q 372 -792 382.5 -766 Q 393 -740 393 -713 L 393 -712 L 316 -712 Q 316 -725 311.5 -737 Q 307 -749 297.5 -758 Q 288 -767 276 -770.5 Q 264 -774 251 -774 Q 236 -774 222.5 -767.5 Q 209 -761 201 -749.5 Q 193 -738 189 -723.5 Q 185 -709 185 -695 Q 185 -674 192 -655 Q 199 -636 210 -619 Q 221 -602 233.5 -586 Q 246 -570 257 -553 Q 268 -536 275.5 -517 Q 283 -498 286 -478 L 342 -478 L 342 -425 L 288 -425 L 288 -323 Z " id="path70"/>
<path d="M 250 -317 Q 231 -317 211.5 -320.5 Q 192 -324 174.5 -332 Q 157 -340 142.5 -353.5 Q 128 -367 119 -384.5 Q 110 -402 106.5 -421 Q 103 -440 103 -460 L 103 -701 Q 103 -720 106.5 -739.5 Q 110 -759 119 -776 Q 128 -793 142.5 -806.5 Q 157 -820 174.5 -828.5 Q 192 -837 211.5 -840 Q 231 -843 250 -843 Q 269 -843 288.5 -840 Q 308 -837 325.5 -828.5 Q 343 -820 357.5 -806.5 Q 372 -793 381 -776 Q 390 -759 393.5 -739.5 Q 397 -720 397 -701 L 397 -460 Q 397 -440 393.5 -421 Q 390 -402 381 -384.5 Q 372 -367 357.5 -353.5 Q 343 -340 325.5 -332 Q 308 -324 288.5 -320.5 Q 269 -317 250 -317 Z M 250 -387 Q 264 -387 278 -391.5 Q 292 -396 302 -406.5 Q 312 -417 316 -431 Q 320 -445 320 -460 L 320 -701 Q 320 -715 316 -729.5 Q 312 -744 302 -754.5 Q 292 -765 278 -769.5 Q 264 -774 250 -774 Q 236 -774 222 -769.5 Q 208 -765 198 -754.5 Q 188 -744 184 -729.5 Q 180 -715 180 -701 L 180 -460 Q 180 -445 184 -431 Q 188 -417 198 -406.5 Q 208 -396 222 -391.5 Q 236 -387 250 -387 Z M 250 -518 Q 242 -518 235 -521 Q 228 -524 223 -530 Q 218 -536 216.5 -543.5 Q 215 -551 215 -559 L 215 -602 Q 215 -609 216.5 -616.5 Q 218 -624 223 -630 Q 228 -636 235 -639 Q 242 -642 250 -642 Q 258 -642 265 -639 Q 272 -636 277 -630 Q 282 -624 283.5 -616.5 Q 285 -609 285 -602 L 285 -559 Q 285 -551 283.5 -543.5 Q 282 -536 277 -530 Q 272 -524 265 -521 Q 258 -518 250 -518 Z " id="path71"/>
<path d="M 212 -223 L 212 -899 L 288 -899 L 288 -223 Z " id="path72"/>
<path d="M 280 -223 L 280 -899 L 343 -899 L 343 -223 Z M 220 -223 L 157 -223 L 157 -899 L 220 -899 Z " id="path73"/>
<path d="M 212 -223 L 212 -471 L 109 -471 L 109 -525 L 212 -525 L 212 -597 L 109 -597 L 109 -651 L 212 -651 L 212 -899 L 288 -899 L 288 -651 L 391 -651 L 391 -597 L 288 -597 L 288 -525 L 391 -525 L 391 -471 L 288 -471 L 288 -223 Z " id="path74"/>
<path d="M 212 -529 L 212 -838 L 288 -838 L 288 -529 Z M 351 -167 Q 334 -167 316 -170 Q 298 -173 282 -180.5 Q 266 -188 253 -200 Q 240 -212 231.5 -228 Q 223 -244 219.5 -261.5 Q 216 -279 216 -297 L 216 -324 Q 200 -332 191 -349 Q 182 -366 182 -385 Q 182 -398 186.5 -411.5 Q 191 -425 200.5 -434.5 Q 210 -444 223 -448 Q 236 -452 250 -452 Q 264 -452 277 -448 Q 290 -444 299.5 -434.5 Q 309 -425 313.5 -411.5 Q 318 -398 318 -385 Q 318 -366 309 -349 Q 300 -332 284 -324 L 284 -297 Q 284 -283 288 -269.5 Q 292 -256 301.5 -246 Q 311 -236 324.5 -232 Q 338 -228 351 -228 L 352 -167 Z " id="path75"/>
<path d="M 379 -314 Q 372 -322 365 -329.5 Q 358 -337 350 -343 Q 328 -328 300.5 -322.5 Q 273 -317 246 -317 Q 231 -317 216.5 -318 Q 202 -319 187.5 -321.5 Q 173 -324 158.5 -328.5 Q 144 -333 131.5 -340.5 Q 119 -348 111 -361 Q 103 -374 103 -389 Q 103 -406 113.5 -421 Q 124 -436 140 -444 Q 156 -452 173.5 -454.5 Q 191 -457 208 -457 Q 235 -457 260.5 -451.5 Q 286 -446 310 -435 Q 306 -442 300 -446.5 Q 294 -451 287 -454 Q 280 -457 273 -459 Q 266 -461 259 -463 L 258 -463 Q 233 -470 208.5 -479 Q 184 -488 163 -503.5 Q 142 -519 128 -541.5 Q 114 -564 114 -590 Q 114 -614 126.5 -635.5 Q 139 -657 159 -670 Q 179 -683 203 -688 Q 227 -693 251 -693 Q 274 -693 297.5 -688.5 Q 321 -684 341.5 -672.5 Q 362 -661 374.5 -640 Q 387 -619 387 -596 L 387 -593 L 310 -593 Q 310 -602 303 -608.5 Q 296 -615 287 -618 Q 278 -621 269 -622 Q 260 -623 251 -623 Q 241 -623 231.5 -622 Q 222 -621 213.5 -617.5 Q 205 -614 198 -606.5 Q 191 -599 191 -590 Q 191 -580 197.5 -572 Q 204 -564 212 -559.5 Q 220 -555 229.5 -552 Q 239 -549 248 -547 L 250 -546 Q 275 -540 299 -531 Q 323 -522 343.5 -506.5 Q 364 -491 378 -468.5 Q 392 -446 392 -420 Q 392 -412 390.5 -404 Q 389 -396 386 -389 Q 396 -380 406 -370.5 Q 416 -361 425 -351 Z M 238 -373 Q 252 -373 265 -375 Q 278 -377 290 -383 Q 271 -392 250.5 -396.5 Q 230 -401 208 -401 Q 204 -401 200 -401 Q 196 -401 192 -401 Q 188 -401 184 -400 Q 180 -399 176 -398 Q 172 -397 168 -395 Q 164 -393 164 -389 Q 164 -384 169.5 -381.5 Q 175 -379 179.5 -378 Q 184 -377 189 -376 Q 194 -375 199 -374.5 Q 204 -374 209 -373.5 Q 214 -373 219 -373 Q 224 -373 228.5 -373 Q 233 -373 238 -373 Z " id="path76"/>
</defs>
<g>
<g data-source-text="0" fill="#dee4e3" transform="translate(174 41.292) rotate(0) scale(0.023999998)">
<use href="#path1" transform="translate(0 0)"/>
</g>
</g>
<g>
<g data-source-text="1" fill="#dee4e3" transform="translate(246 41.292) rotate(0) scale(0.023999998)">
<use href="#path2" transform="translate(0 0)"/>
</g>
</g>
<g>
<g data-source-text="2" fill="#dee4e3" transform="translate(318 41.292) rotate(0) scale(0.023999998)">
<use href="#path3" transform="translate(0 0)"/>
</g>
</g>
<g>
<g data-source-text="3" fill="#dee4e3" transform="translate(390 41.292) rotate(0) scale(0.023999998)">
<use href="#path4" transform="translate(0 0)"/>
</g>
</g>
<g>
<g data-source-text="4" fill="#dee4e3" transform="translate(462 41.292) rotate(0) scale(0.023999998)">
<use href="#path5" transform="translate(0 0)"/>
</g>
</g>
<g>
<g data-source-text="5" fill="#dee4e3" transform="translate(534 41.292) rotate(0) scale(0.023999998)">
<use href="#path6" transform="translate(0 0)"/>
</g>
</g>
<g>
<g data-source-text="6" fill="#dee4e3" transform="translate(606 41.292) rotate(0) scale(0.023999998)">
<use href="#path7" transform="translate(0 0)"/>
</g>
</g>
<g>
<g data-source-text="7" fill="#dee4e3" transform="translate(678 41.292) rotate(0) scale(0.023999998)">
<use href="#path8" transform="translate(0 0)"/>
</g>
</g>
<g>
<g data-source-text="8" fill="#dee4e3" transform="translate(750 41.292) rotate(0) scale(0.023999998)">
<use href="#path9" transform="translate(0 0)"/>
</g>
</g>
<g>
<g data-source-text="9" fill="#dee4e3" transform="translate(822 41.292) rotate(0) scale(0.023999998)">
<use href="#path10" transform="translate(0 0)"/>
</g>
</g>
<g>
<g data-source-text="A" fill="#dee4e3" transform="translate(894 41.292) rotate(0) scale(0.023999998)">
<use href="#path11" transform="translate(0 0)"/>
</g>
</g>
<g>
<g data-source-text="B" fill="#dee4e3" transform="translate(966 41.292) rotate(0) scale(0.023999998)">
<use href="#path12" transform="translate(0 0)"/>
</g>
</g>
<g>
<g data-source-text="C" fill="#dee4e3" transform="translate(1038 41.292) rotate(0) scale(0.023999998)">
<use href="#path13" transform="translate(0 0)"/>
</g>
</g>
<g>
<g data-source-text="D" fill="#dee4e3" transform="translate(1110 41.292) rotate(0) scale(0.023999998)">
<use href="#path14" transform="translate(0 0)"/>
</g>
</g>
<g>
<g data-source-text="E" fill="#dee4e3" transform="translate(1182 41.292) rotate(0) scale(0.023999998)">
<use href="#path15" transform="translate(0 0)"/>
</g>
</g>
<g>
<g data-source-text="F" fill="#dee4e3" transform="translate(1254 41.292) rotate(0) scale(0.023999998)">
<use href="#path16" transform="translate(0 0)"/>
</g>
</g>
<g>
<g data-source-text="U+10780" fill="#dee4e3" transform="translate(30 113.292) rotate(0) scale(0.023999998)">
<use href="#path17" transform="translate(0 0)"/>
<use href="#path18" transform="translate(500 0)"/>
<use href="#path2" transform="translate(1000 0)"/>
<use href="#path1" transform="translate(1500 0)"/>
<use href="#path8" transform="translate(2000 0)"/>
<use href="#path9" transform="translate(2500 0)"/>
<use href="#path1" transform="translate(3000 0)"/>
</g>
</g>
<g>
<g data-source-text="" fill="#dee4e3" transform="translate(168 118.584) rotate(0) scale(0.047999997)">
<use href="#path19" transform="translate(0 0)"/>
</g>
</g>
<g>
<g data-source-text="" fill="#dee4e3" transform="translate(240 118.584) rotate(0) scale(0.047999997)">
<use href="#path20" transform="translate(0 0)"/>
</g>
</g>
<g>
<g data-source-text="" fill="#dee4e3" transform="translate(312 118.584) rotate(0) scale(0.047999997)">
<use href="#path21" transform="translate(0 0)"/>
</g>
</g>
<g>
<g data-source-text="" fill="#dee4e3" transform="translate(384 118.584) rotate(0) scale(0.047999997)">
<use href="#path22" transform="translate(0 0)"/>
</g>
</g>
<g>
<g data-source-text="" fill="#dee4e3" transform="translate(456 118.584) rotate(0) scale(0.047999997)">
<use href="#path23" transform="translate(0 0)"/>
</g>
</g>
<g>
<g data-source-text="" fill="#dee4e3" transform="translate(528 118.584) rotate(0) scale(0.047999997)">
<use href="#path24" transform="translate(0 0)"/>
</g>
</g>
<g>
<g data-source-text="" fill="#dee4e340" transform="translate(600 118.584) rotate(0) scale(0.047999997)">
<use href="#path25" transform="translate(0 0)"/>
</g>
</g>
<g>
<g data-source-text="" fill="#dee4e3" transform="translate(672 118.584) rotate(0) scale(0.047999997)">
<use href="#path26" transform="translate(0 0)"/>
</g>
</g>
<g>
<g data-source-text="" fill="#dee4e3" transform="translate(744 118.584) rotate(0) scale(0.047999997)">
<use href="#path27" transform="translate(0 0)"/>
</g>
</g>
<g>
<g data-source-text="" fill="#dee4e3" transform="translate(816 118.584) rotate(0) scale(0.047999997)">
<use href="#path28" transform="translate(0 0)"/>
</g>
</g>
<g>
<g data-source-text="" fill="#dee4e3" transform="translate(888 118.584) rotate(0) scale(0.047999997)">
<use href="#path29" transform="translate(0 0)"/>
</g>
</g>
<g>
<g data-source-text="" fill="#dee4e3" transform="translate(960 118.584) rotate(0) scale(0.047999997)">
<use href="#path30" transform="translate(0 0)"/>
</g>
</g>
<g>
<g data-source-text="" fill="#dee4e3" transform="translate(1032 118.584) rotate(0) scale(0.047999997)">
<use href="#path31" transform="translate(0 0)"/>
</g>
</g>
<g>
<g data-source-text="" fill="#dee4e3" transform="translate(1104 118.584) rotate(0) scale(0.047999997)">
<use href="#path32" transform="translate(0 0)"/>
</g>
</g>
<g>
<g data-source-text="" fill="#dee4e3" transform="translate(1176 118.584) rotate(0) scale(0.047999997)">
<use href="#path33" transform="translate(0 0)"/>
</g>
</g>
<g>
<g data-source-text="" fill="#dee4e3" transform="translate(1248 118.584) rotate(0) scale(0.047999997)">
<use href="#path34" transform="translate(0 0)"/>
</g>
</g>
<g>
<g data-source-text="U+10790" fill="#dee4e3" transform="translate(30 185.292) rotate(0) scale(0.023999998)">
<use href="#path17" transform="translate(0 0)"/>
<use href="#path18" transform="translate(500 0)"/>
<use href="#path2" transform="translate(1000 0)"/>
<use href="#path1" transform="translate(1500 0)"/>
<use href="#path8" transform="translate(2000 0)"/>
<use href="#path10" transform="translate(2500 0)"/>
<use href="#path1" transform="translate(3000 0)"/>
</g>
</g>
<g>
<g data-source-text="" fill="#dee4e3" transform="translate(168 190.584) rotate(0) scale(0.047999997)">
<use href="#path35" transform="translate(0 0)"/>
</g>
</g>
<g>
<g data-source-text="" fill="#dee4e3" transform="translate(240 190.584) rotate(0) scale(0.047999997)">
<use href="#path36" transform="translate(0 0)"/>
</g>
</g>
<g>
<g data-source-text="" fill="#dee4e3" transform="translate(312 190.584) rotate(0) scale(0.047999997)">
<use href="#path37" transform="translate(0 0)"/>
</g>
</g>
<g>
<g data-source-text="" fill="#dee4e3" transform="translate(384 190.584) rotate(0) scale(0.047999997)">
<use href="#path38" transform="translate(0 0)"/>
</g>
</g>
<g>
<g data-source-text="" fill="#dee4e3" transform="translate(456 190.584) rotate(0) scale(0.047999997)">
<use href="#path39" transform="translate(0 0)"/>
</g>
</g>
<g>
<g data-source-text="" fill="#dee4e3" transform="translate(528 190.584) rotate(0) scale(0.047999997)">
<use href="#path40" transform="translate(0 0)"/>
</g>
</g>
<g>
<g data-source-text="" fill="#dee4e3" transform="translate(600 190.584) rotate(0) scale(0.047999997)">
<use href="#path41" transform="translate(0 0)"/>
</g>
</g>
<g>
<g data-source-text="" fill="#dee4e3" transform="translate(672 190.584) rotate(0) scale(0.047999997)">
<use href="#path42" transform="translate(0 0)"/>
</g>
</g>
<g>
<g data-source-text="" fill="#dee4e3" transform="translate(744 190.584) rotate(0) scale(0.047999997)">
<use href="#path43" transform="translate(0 0)"/>
</g>
</g>
<g>
<g data-source-text="" fill="#dee4e3" transform="translate(816 190.584) rotate(0) scale(0.047999997)">
<use href="#path44" transform="translate(0 0)"/>
</g>
</g>
<g>
<g data-source-text="" fill="#dee4e3" transform="translate(888 190.584) rotate(0) scale(0.047999997)">
<use href="#path45" transform="translate(0 0)"/>
</g>
</g>
<g>
<g data-source-text="" fill="#dee4e3" transform="translate(960 190.584) rotate(0) scale(0.047999997)">
<use href="#path46" transform="translate(0 0)"/>
</g>
</g>
<g>
<g data-source-text="" fill="#dee4e3" transform="translate(1032 190.584) rotate(0) scale(0.047999997)">
<use href="#path47" transform="translate(0 0)"/>
</g>
</g>
<g>
<g data-source-text="" fill="#dee4e3" transform="translate(1104 190.584) rotate(0) scale(0.047999997)">
<use href="#path48" transform="translate(0 0)"/>
</g>
</g>
<g>
<g data-source-text="" fill="#dee4e3" transform="translate(1176 190.584) rotate(0) scale(0.047999997)">
<use href="#path49" transform="translate(0 0)"/>
</g>
</g>
<g>
<g data-source-text="" fill="#dee4e3" transform="translate(1248 190.584) rotate(0) scale(0.047999997)">
<use href="#path50" transform="translate(0 0)"/>
</g>
</g>
<g>
<g data-source-text="U+107A0" fill="#dee4e3" transform="translate(30 257.292) rotate(0) scale(0.023999998)">
<use href="#path17" transform="translate(0 0)"/>
<use href="#path18" transform="translate(500 0)"/>
<use href="#path2" transform="translate(1000 0)"/>
<use href="#path1" transform="translate(1500 0)"/>
<use href="#path8" transform="translate(2000 0)"/>
<use href="#path11" transform="translate(2500 0)"/>
<use href="#path1" transform="translate(3000 0)"/>
</g>
</g>
<g>
<g data-source-text="" fill="#dee4e3" transform="translate(168 262.584) rotate(0) scale(0.047999997)">
<use href="#path51" transform="translate(0 0)"/>
</g>
</g>
<g>
<g data-source-text="" fill="#dee4e3" transform="translate(240 262.584) rotate(0) scale(0.047999997)">
<use href="#path52" transform="translate(0 0)"/>
</g>
</g>
<g>
<g data-source-text="" fill="#dee4e3" transform="translate(312 262.584) rotate(0) scale(0.047999997)">
<use href="#path53" transform="translate(0 0)"/>
</g>
</g>
<g>
<g data-source-text="" fill="#dee4e3" transform="translate(384 262.584) rotate(0) scale(0.047999997)">
<use href="#path54" transform="translate(0 0)"/>
</g>
</g>
<g>
<g data-source-text="" fill="#dee4e3" transform="translate(456 262.584) rotate(0) scale(0.047999997)">
<use href="#path55" transform="translate(0 0)"/>
</g>
</g>
<g>
<g data-source-text="" fill="#dee4e3" transform="translate(528 262.584) rotate(0) scale(0.047999997)">
<use href="#path56" transform="translate(0 0)"/>
</g>
</g>
<g>
<g data-source-text="" fill="#dee4e3" transform="translate(600 262.584) rotate(0) scale(0.047999997)">
<use href="#path57" transform="translate(0 0)"/>
</g>
</g>
<g>
<g data-source-text="" fill="#dee4e3" transform="translate(672 262.584) rotate(0) scale(0.047999997)">
<use href="#path58" transform="translate(0 0)"/>
</g>
</g>
<g>
<g data-source-text="" fill="#dee4e3" transform="translate(744 262.584) rotate(0) scale(0.047999997)">
<use href="#path59" transform="translate(0 0)"/>
</g>
</g>
<g>
<g data-source-text="" fill="#dee4e3" transform="translate(816 262.584) rotate(0) scale(0.047999997)">
<use href="#path60" transform="translate(0 0)"/>
</g>
</g>
<g>
<g data-source-text="" fill="#dee4e3" transform="translate(888 262.584) rotate(0) scale(0.047999997)">
<use href="#path61" transform="translate(0 0)"/>
</g>
</g>
<g>
<g data-source-text="" fill="#dee4e3" transform="translate(960 262.584) rotate(0) scale(0.047999997)">
<use href="#path62" transform="translate(0 0)"/>
</g>
</g>
<g>
<g data-source-text="" fill="#dee4e3" transform="translate(1032 262.584) rotate(0) scale(0.047999997)">
<use href="#path63" transform="translate(0 0)"/>
</g>
</g>
<g>
<g data-source-text="" fill="#dee4e3" transform="translate(1104 262.584) rotate(0) scale(0.047999997)">
<use href="#path64" transform="translate(0 0)"/>
</g>
</g>
<g>
<g data-source-text="" fill="#dee4e3" transform="translate(1176 262.584) rotate(0) scale(0.047999997)">
<use href="#path65" transform="translate(0 0)"/>
</g>
</g>
<g>
<g data-source-text="" fill="#dee4e3" transform="translate(1248 262.584) rotate(0) scale(0.047999997)">
<use href="#path66" transform="translate(0 0)"/>
</g>
</g>
<g>
<g data-source-text="U+107B0" fill="#dee4e3" transform="translate(30 329.292) rotate(0) scale(0.023999998)">
<use href="#path17" transform="translate(0 0)"/>
<use href="#path18" transform="translate(500 0)"/>
<use href="#path2" transform="translate(1000 0)"/>
<use href="#path1" transform="translate(1500 0)"/>
<use href="#path8" transform="translate(2000 0)"/>
<use href="#path12" transform="translate(2500 0)"/>
<use href="#path1" transform="translate(3000 0)"/>
</g>
</g>
<g>
<g data-source-text="" fill="#dee4e3" transform="translate(168 334.584) rotate(0) scale(0.047999997)">
<use href="#path67" transform="translate(0 0)"/>
</g>
</g>
<g>
<g data-source-text="" fill="#dee4e340" transform="translate(240 334.584) rotate(0) scale(0.047999997)">
<use href="#path25" transform="translate(0 0)"/>
</g>
</g>
<g>
<g data-source-text="" fill="#dee4e3" transform="translate(312 334.584) rotate(0) scale(0.047999997)">
<use href="#path68" transform="translate(0 0)"/>
</g>
</g>
<g>
<g data-source-text="" fill="#dee4e3" transform="translate(384 334.584) rotate(0) scale(0.047999997)">
<use href="#path69" transform="translate(0 0)"/>
</g>
</g>
<g>
<g data-source-text="" fill="#dee4e3" transform="translate(456 334.584) rotate(0) scale(0.047999997)">
<use href="#path70" transform="translate(0 0)"/>
</g>
</g>
<g>
<g data-source-text="" fill="#dee4e3" transform="translate(528 334.584) rotate(0) scale(0.047999997)">
<use href="#path71" transform="translate(0 0)"/>
</g>
</g>
<g>
<g data-source-text="" fill="#dee4e3" transform="translate(600 334.584) rotate(0) scale(0.047999997)">
<use href="#path72" transform="translate(0 0)"/>
</g>
</g>
<g>
<g data-source-text="" fill="#dee4e3" transform="translate(672 334.584) rotate(0) scale(0.047999997)">
<use href="#path73" transform="translate(0 0)"/>
</g>
</g>
<g>
<g data-source-text="" fill="#dee4e3" transform="translate(744 334.584) rotate(0) scale(0.047999997)">
<use href="#path74" transform="translate(0 0)"/>
</g>
</g>
<g>
<g data-source-text="" fill="#dee4e3" transform="translate(816 334.584) rotate(0) scale(0.047999997)">
<use href="#path75" transform="translate(0 0)"/>
</g>
</g>
<g>
<g data-source-text="" fill="#dee4e3" transform="translate(888 334.584) rotate(0) scale(0.047999997)">
<use href="#path76" transform="translate(0 0)"/>
</g>
</g>
<g>
<g data-source-text="" fill="#dee4e340" transform="translate(960 334.584) rotate(0) scale(0.047999997)">
<use href="#path25" transform="translate(0 0)"/>
</g>
</g>
<g>
<g data-source-text="" fill="#dee4e340" transform="translate(1032 334.584) rotate(0) scale(0.047999997)">
<use href="#path25" transform="translate(0 0)"/>
</g>
</g>
<g>
<g data-source-text="" fill="#dee4e340" transform="translate(1104 334.584) rotate(0) scale(0.047999997)">
<use href="#path25" transform="translate(0 0)"/>
</g>
</g>
<g>
<g data-source-text="" fill="#dee4e340" transform="translate(1176 334.584) rotate(0) scale(0.047999997)">
<use href="#path25" transform="translate(0 0)"/>
</g>
</g>
<g>
<g data-source-text="" fill="#dee4e340" transform="translate(1248 334.584) rotate(0) scale(0.047999997)">
<use href="#path25" transform="translate(0 0)"/>
</g>
</g>
</svg>