<?xml version="1.0" encoding="UTF-8" standalone="no"?>
<svg height="432" viewBox="0 0 1296 432" width="1296" xmlns="http://www.w3.org/2000/svg">
<defs>
<path d="M 250 8 Q 223 8 196 3 Q 169 -2 145 -15 Q 121 -28 102.5 -48.5 Q 84 -69 72.5 -94 Q 61 -119 56.5 -146 Q 52 -173 52 -200 L 52 -535 Q 52 -562 56.5 -589 Q 61 -616 72.5 -641 Q 84 -666 102.5 -686.5 Q 121 -707 145 -720 Q 169 -733 196 -738 Q 223 -743 250 -743 Q 277 -743 304 -738 Q 331 -733 355 -720 Q 379 -707 397.5 -686.5 Q 416 -666 427.5 -641 Q 439 -616 443.5 -589 Q 448 -562 448 -535 L 448 -200 Q 448 -173 443.5 -146 Q 439 -119 427.5 -94 Q 416 -69 397.5 -48.5 Q 379 -28 355 -15 Q 331 -2 304 3 Q 277 8 250 8 Z M 152 -338 L 348 -493 L 348 -535 Q 348 -557 343 -579 Q 338 -601 325.5 -618.5 Q 313 -636 292.5 -645.5 Q 272 -655 250 -655 Q 228 -655 207.5 -645.5 Q 187 -636 174.5 -618.5 Q 162 -601 157 -579 Q 152 -557 152 -535 Z M 250 -80 Q 272 -80 292.5 -89.5 Q 313 -99 325.5 -116.5 Q 338 -134 343 -156 Q 348 -178 348 -200 L 348 -397 L 152 -242 L 152 -200 Q 152 -178 157 -156 Q 162 -134 174.5 -116.5 Q 187 -99 207.5 -89.5 Q 228 -80 250 -80 Z " id="path1"/>
<path d="M 230 0 L 230 -632 L 110 -528 L 55 -584 L 230 -735 L 330 -735 L 330 0 Z " id="path2"/>
<path d="M 60 0 L 60 -1 Q 60 -27 61 -54 Q 62 -81 65.5 -107 Q 69 -133 77 -158.5 Q 85 -184 96.5 -208 Q 108 -232 123 -253.5 Q 138 -275 156 -294.5 Q 174 -314 194 -331 Q 214 -348 235.5 -364 Q 257 -380 277.5 -397 Q 298 -414 313 -435.5 Q 328 -457 336 -483 Q 344 -509 344 -535 Q 344 -557 339.5 -578 Q 335 -599 323.5 -617 Q 312 -635 292 -645 Q 272 -655 251 -655 Q 231 -655 212.5 -647.5 Q 194 -640 181.5 -625 Q 169 -610 163.5 -591 Q 158 -572 158 -552 L 158 -548 L 58 -548 L 58 -555 Q 58 -581 63.5 -606 Q 69 -631 81 -653 Q 93 -675 111.5 -693 Q 130 -711 152.5 -722.5 Q 175 -734 200.5 -738.5 Q 226 -743 251 -743 Q 278 -743 304.5 -737.5 Q 331 -732 354.5 -719 Q 378 -706 396 -685.5 Q 414 -665 425 -640.5 Q 436 -616 440 -589 Q 444 -562 444 -535 Q 444 -501 435 -468 Q 426 -435 407.5 -406 Q 389 -377 364 -353.5 Q 339 -330 312.5 -308.5 Q 286 -287 261 -264 Q 236 -241 216 -213 Q 196 -185 183 -153.5 Q 170 -122 165 -88 L 440 -88 L 440 0 Z " id="path3"/>
<path d="M 253 8 Q 227 8 201 4 Q 175 -0 151 -11.5 Q 127 -23 107.5 -40.5 Q 88 -58 75.5 -81 Q 63 -104 56.5 -129.5 Q 50 -155 50 -181 L 50 -187 L 150 -187 L 150 -184 Q 150 -163 157 -143 Q 164 -123 178 -108 Q 192 -93 212 -86.5 Q 232 -80 253 -80 Q 275 -80 296 -88.5 Q 317 -97 330.5 -114.5 Q 344 -132 350 -154 Q 356 -176 356 -198 Q 356 -217 352 -235.5 Q 348 -254 339 -271 Q 330 -288 316.5 -301 Q 303 -314 286 -322 Q 269 -330 250 -332 Q 231 -334 212 -334 L 212 -422 Q 229 -422 246 -424 Q 263 -426 278.5 -433 Q 294 -440 306 -452.5 Q 318 -465 325.5 -480.5 Q 333 -496 336.5 -513 Q 340 -530 340 -547 Q 340 -566 335.5 -585.5 Q 331 -605 320 -621.5 Q 309 -638 291 -646.5 Q 273 -655 253 -655 Q 234 -655 216 -647 Q 198 -639 187 -624 Q 176 -609 171 -590 Q 166 -571 166 -553 L 166 -548 L 66 -548 L 66 -556 Q 66 -581 71.5 -605.5 Q 77 -630 88 -652 Q 99 -674 116.5 -692.5 Q 134 -711 156.5 -722.5 Q 179 -734 203.5 -738.5 Q 228 -743 253 -743 Q 278 -743 303.5 -738 Q 329 -733 351 -721 Q 373 -709 390.5 -690 Q 408 -671 419 -648 Q 430 -625 435 -600 Q 440 -575 440 -550 Q 440 -524 434 -498.5 Q 428 -473 416 -450.5 Q 404 -428 385 -409.5 Q 366 -391 343 -379 Q 370 -368 391.5 -348.5 Q 413 -329 427.5 -304.5 Q 442 -280 449 -252 Q 456 -224 456 -196 Q 456 -168 450 -141.5 Q 444 -115 432 -91 Q 420 -67 401 -47 Q 382 -27 358 -14.5 Q 334 -2 307 3 Q 280 8 253 8 Z " id="path4"/>
<path d="M 299 0 L 299 -151 L 52 -151 L 52 -239 L 288 -735 L 388 -735 L 152 -239 L 299 -239 L 299 -417 L 394 -417 L 394 -239 L 440 -239 L 440 -151 L 394 -151 L 394 0 Z " id="path5"/>
<path d="M 252 8 Q 227 8 202.5 3.5 Q 178 -1 155.5 -12 Q 133 -23 114.5 -41 Q 96 -59 84 -80.5 Q 72 -102 65.5 -126.5 Q 59 -151 58 -176 L 159 -176 Q 160 -158 166.5 -139.5 Q 173 -121 185.5 -107 Q 198 -93 216 -86.5 Q 234 -80 252 -80 Q 269 -80 285 -87 Q 301 -94 312.5 -107 Q 324 -120 330.5 -135.5 Q 337 -151 341 -167.5 Q 345 -184 346.5 -201 Q 348 -218 348 -235 Q 348 -252 346.5 -269 Q 345 -286 341.5 -302.5 Q 338 -319 331.5 -334.5 Q 325 -350 314.5 -363 Q 304 -376 288 -383.5 Q 272 -391 256 -391 Q 240 -391 224 -387 Q 208 -383 195.5 -373.5 Q 183 -364 176 -349.5 Q 169 -335 168 -319 L 68 -319 L 68 -735 L 421 -735 L 421 -647 L 168 -647 L 168 -464 Q 189 -472 211 -475 Q 233 -478 256 -478 Q 285 -478 313.5 -470.5 Q 342 -463 365.5 -445.5 Q 389 -428 405.5 -403 Q 422 -378 431.5 -350.5 Q 441 -323 444.5 -294 Q 448 -265 448 -235 Q 448 -206 444.5 -176.5 Q 441 -147 431 -119 Q 421 -91 404.5 -66.5 Q 388 -42 364 -24.5 Q 340 -7 311 0.5 Q 282 8 252 8 Z " id="path6"/>
<path d="M 250 8 Q 221 8 192.5 1.5 Q 164 -5 140 -21 Q 116 -37 98.5 -60.5 Q 81 -84 70.5 -111 Q 60 -138 56 -166.5 Q 52 -195 52 -224 Q 52 -268 59.5 -311 Q 67 -354 81 -395.5 Q 95 -437 113 -477 Q 131 -517 150 -556 L 238 -735 L 347 -735 L 240 -517 Q 228 -492 216 -467 Q 204 -442 194 -416 Q 212 -436 238.5 -446 Q 265 -456 292 -456 Q 318 -456 343.5 -447 Q 369 -438 387.5 -419.5 Q 406 -401 418 -377 Q 430 -353 436.5 -328 Q 443 -303 445.5 -276.5 Q 448 -250 448 -224 Q 448 -195 444 -166.5 Q 440 -138 429.5 -111 Q 419 -84 401.5 -60.5 Q 384 -37 360 -21 Q 336 -5 307.5 1.5 Q 279 8 250 8 Z M 250 -80 Q 266 -80 282 -85.5 Q 298 -91 309.5 -102.5 Q 321 -114 328.5 -129 Q 336 -144 340.5 -159.5 Q 345 -175 346.5 -191.5 Q 348 -208 348 -224 Q 348 -240 346.5 -256.5 Q 345 -273 340.5 -289 Q 336 -305 328.5 -319.5 Q 321 -334 309.5 -345.5 Q 298 -357 282 -362.5 Q 266 -368 250 -368 Q 235 -368 221 -363.5 Q 207 -359 195.5 -349.5 Q 184 -340 176 -327.5 Q 168 -315 163.5 -301 Q 159 -287 156.5 -272.5 Q 154 -258 153 -243 Q 153 -238 152.5 -233.5 Q 152 -229 152 -224 Q 152 -208 153.5 -191.5 Q 155 -175 159.5 -159.5 Q 164 -144 171.5 -129 Q 179 -114 190.5 -102.5 Q 202 -91 218 -85.5 Q 234 -80 250 -80 Z " id="path7"/>
<path d="M 138 0 L 336 -647 L 60 -647 L 60 -735 L 440 -735 L 440 -647 L 242 0 Z " id="path8"/>
<path d="M 250 8 Q 225 8 200 4 Q 175 -0 152 -10 Q 129 -20 109.5 -37 Q 90 -54 77.5 -75.5 Q 65 -97 58.5 -121.5 Q 52 -146 52 -172 Q 52 -203 61.5 -232.5 Q 71 -262 88 -288.5 Q 105 -315 127 -336.5 Q 149 -358 174 -378 Q 152 -396 132.5 -417 Q 113 -438 98.5 -462.5 Q 84 -487 76 -514.5 Q 68 -542 68 -570 Q 68 -594 73.5 -617.5 Q 79 -641 90.5 -661.5 Q 102 -682 119.5 -698.5 Q 137 -715 158 -725 Q 179 -735 202.5 -739 Q 226 -743 250 -743 Q 274 -743 297.5 -739 Q 321 -735 342 -725 Q 363 -715 380.5 -698.5 Q 398 -682 409.5 -661.5 Q 421 -641 426.5 -617.5 Q 432 -594 432 -570 Q 432 -542 424 -514.5 Q 416 -487 401.5 -462.5 Q 387 -438 367.5 -417 Q 348 -396 326 -378 Q 351 -358 373 -336.5 Q 395 -315 412 -288.5 Q 429 -262 438.5 -232.5 Q 448 -203 448 -172 Q 448 -146 441.5 -121.5 Q 435 -97 422.5 -75.5 Q 410 -54 390.5 -37 Q 371 -20 348 -10 Q 325 -0 300 4 Q 275 8 250 8 Z M 250 -434 Q 266 -447 280.5 -461.5 Q 295 -476 306.5 -493 Q 318 -510 325 -529.5 Q 332 -549 332 -569 Q 332 -586 327 -602.5 Q 322 -619 310.5 -631.5 Q 299 -644 283 -649.5 Q 267 -655 250 -655 Q 233 -655 217 -649.5 Q 201 -644 189.5 -631.5 Q 178 -619 173 -602.5 Q 168 -586 168 -569 Q 168 -549 175 -529.5 Q 182 -510 193.5 -493 Q 205 -476 219.5 -461.5 Q 234 -447 250 -434 Z M 250 -80 Q 269 -80 288 -85.5 Q 307 -91 320.5 -104 Q 334 -117 341 -135.5 Q 348 -154 348 -173 Q 348 -196 339.5 -217.5 Q 331 -239 317 -257.5 Q 303 -276 285.5 -291 Q 268 -306 250 -320 Q 232 -306 214.5 -291 Q 197 -276 183 -257.5 Q 169 -239 160.5 -217.5 Q 152 -196 152 -173 Q 152 -154 159 -135.5 Q 166 -117 179.5 -104 Q 193 -91 212 -85.5 Q 231 -80 250 -80 Z " id="path9"/>
<path d="M 262 0 L 153 0 L 260 -218 Q 272 -243 284 -268 Q 296 -293 306 -319 Q 288 -299 261.5 -289 Q 235 -279 208 -279 Q 182 -279 156.5 -288 Q 131 -297 112.5 -315.5 Q 94 -334 82 -358 Q 70 -382 63.5 -407 Q 57 -432 54.5 -458.5 Q 52 -485 52 -511 Q 52 -540 56 -568.5 Q 60 -597 70.5 -624 Q 81 -651 98.5 -674.5 Q 116 -698 140 -714 Q 164 -730 192.5 -736.5 Q 221 -743 250 -743 Q 279 -743 307.5 -736.5 Q 336 -730 360 -714 Q 384 -698 401.5 -674.5 Q 419 -651 429.5 -624 Q 440 -597 444 -568.5 Q 448 -540 448 -511 Q 448 -467 440.5 -424 Q 433 -381 419 -339.5 Q 405 -298 387 -258 Q 369 -218 350 -179 Z M 250 -367 Q 265 -367 279 -371.5 Q 293 -376 304.5 -385.5 Q 316 -395 324 -407.5 Q 332 -420 336.5 -434 Q 341 -448 343.5 -462.5 Q 346 -477 347 -492 Q 347 -497 347.5 -501.5 Q 348 -506 348 -511 Q 348 -527 346.5 -543.5 Q 345 -560 340.5 -575.5 Q 336 -591 328.5 -606 Q 321 -621 309.5 -632.5 Q 298 -644 282 -649.5 Q 266 -655 250 -655 Q 234 -655 218 -649.5 Q 202 -644 190.5 -632.5 Q 179 -621 171.5 -606 Q 164 -591 159.5 -575.5 Q 155 -560 153.5 -543.5 Q 152 -527 152 -511 Q 152 -495 153.5 -478.5 Q 155 -462 159.5 -446 Q 164 -430 171.5 -415.5 Q 179 -401 190.5 -389.5 Q 202 -378 218 -372.5 Q 234 -367 250 -367 Z " id="path10"/>
<path d="M 39 0 L 53 -70 L 192 -735 L 308 -735 L 461 0 L 359 0 L 326 -172 L 174 -172 L 141 0 Z M 310 -260 L 267 -490 Q 263 -513 258.5 -536 Q 254 -559 250 -582 Q 246 -559 241.5 -536 Q 237 -513 233 -490 L 190 -260 Z " id="path11"/>
<path d="M 60 0 L 60 -735 L 235 -735 Q 261 -735 287 -730.5 Q 313 -726 336.5 -714 Q 360 -702 378.5 -682.5 Q 397 -663 408.5 -639.5 Q 420 -616 424.5 -590 Q 429 -564 429 -538 Q 429 -515 425.5 -492 Q 422 -469 411.5 -448.5 Q 401 -428 384.5 -411 Q 368 -394 348 -383 Q 373 -373 394.5 -355.5 Q 416 -338 430.5 -314.5 Q 445 -291 450.5 -264 Q 456 -237 456 -210 Q 456 -181 450.5 -152.5 Q 445 -124 431 -98.5 Q 417 -73 395.5 -53.5 Q 374 -34 347.5 -21.5 Q 321 -9 292.5 -4.5 Q 264 -0 235 0 Z M 160 -424 L 235 -424 Q 256 -424 275.5 -432.5 Q 295 -441 307.5 -457.5 Q 320 -474 324.5 -494.5 Q 329 -515 329 -536 Q 329 -557 324.5 -577.5 Q 320 -598 307.5 -614.5 Q 295 -631 275.5 -639 Q 256 -647 235 -647 L 160 -647 Z M 160 -88 L 235 -88 Q 251 -88 267.5 -91 Q 284 -94 298.5 -101.5 Q 313 -109 324.5 -121 Q 336 -133 343 -148 Q 350 -163 353 -179 Q 356 -195 356 -212 Q 356 -228 353 -244.5 Q 350 -261 343 -276 Q 336 -291 324.5 -303 Q 313 -315 298.5 -322.5 Q 284 -330 267.5 -333 Q 251 -336 235 -336 L 160 -336 Z " id="path12"/>
<path d="M 247 8 Q 220 8 193 3 Q 166 -2 142.5 -15.5 Q 119 -29 101 -49.5 Q 83 -70 71.5 -94.5 Q 60 -119 56 -146 Q 52 -173 52 -200 L 52 -535 Q 52 -562 56 -589 Q 60 -616 71.5 -640.5 Q 83 -665 101 -685.5 Q 119 -706 142.5 -719.5 Q 166 -733 193 -738 Q 220 -743 247 -743 Q 273 -743 298 -738.5 Q 323 -734 346 -723 Q 369 -712 387.5 -694 Q 406 -676 418 -653.5 Q 430 -631 436 -606 Q 442 -581 442 -555 L 442 -548 L 342 -548 L 342 -552 Q 342 -572 336 -591.5 Q 330 -611 317.5 -626 Q 305 -641 286 -648 Q 267 -655 247 -655 Q 225 -655 205 -645.5 Q 185 -636 173 -618 Q 161 -600 156.5 -578.5 Q 152 -557 152 -535 L 152 -200 Q 152 -178 156.5 -156.5 Q 161 -135 173 -117 Q 185 -99 205 -89.5 Q 225 -80 247 -80 Q 267 -80 286 -87 Q 305 -94 317.5 -109 Q 330 -124 336 -143.5 Q 342 -163 342 -183 L 342 -187 L 442 -187 L 442 -180 Q 442 -154 436 -129 Q 430 -104 418 -81.5 Q 406 -59 387.5 -41 Q 369 -23 346 -12 Q 323 -1 298 3.5 Q 273 8 247 8 Z " id="path13"/>
<path d="M 60 0 L 60 -735 L 220 -735 Q 250 -735 280 -730 Q 310 -725 337 -712 Q 364 -699 386.5 -678.5 Q 409 -658 423 -631.5 Q 437 -605 442.5 -575 Q 448 -545 448 -515 L 448 -220 Q 448 -190 442.5 -160 Q 437 -130 423 -103.5 Q 409 -77 386.5 -56.5 Q 364 -36 337 -23 Q 310 -10 280 -5 Q 250 -0 220 0 Z M 160 -88 L 220 -88 Q 237 -88 254.5 -91 Q 272 -94 287.5 -102.5 Q 303 -111 315 -124 Q 327 -137 334.5 -152.5 Q 342 -168 345 -185.5 Q 348 -203 348 -220 L 348 -515 Q 348 -532 345 -549.5 Q 342 -567 334.5 -582.5 Q 327 -598 315 -611 Q 303 -624 287.5 -632.5 Q 272 -641 254.5 -644 Q 237 -647 220 -647 L 160 -647 Z " id="path14"/>
<path d="M 68 0 L 68 -735 L 440 -735 L 440 -647 L 168 -647 L 168 -426 L 383 -426 L 383 -338 L 168 -338 L 168 -88 L 440 -88 L 440 0 Z " id="path15"/>
<path d="M 90 0 L 90 -735 L 440 -735 L 440 -647 L 190 -647 L 190 -426 L 383 -426 L 383 -338 L 190 -338 L 190 0 Z " id="path16"/>
<path d="M 250 8 Q 223 8 196.5 2.5 Q 170 -3 147 -16.5 Q 124 -30 106.5 -50.5 Q 89 -71 78.5 -95.5 Q 68 -120 64 -146.5 Q 60 -173 60 -200 L 60 -735 L 160 -735 L 160 -200 Q 160 -186 161.5 -172 Q 163 -158 167.5 -144.5 Q 172 -131 179.5 -118.5 Q 187 -106 197.5 -97 Q 208 -88 222 -84 Q 236 -80 250 -80 Q 264 -80 278 -84 Q 292 -88 302.5 -97 Q 313 -106 320.5 -118.5 Q 328 -131 332.5 -144.5 Q 337 -158 338.5 -172 Q 340 -186 340 -200 L 340 -735 L 440 -735 L 440 -200 Q 440 -173 436 -146.5 Q 432 -120 421.5 -95.5 Q 411 -71 393.5 -50.5 Q 376 -30 353 -16.5 Q 330 -3 303.5 2.5 Q 277 8 250 8 Z " id="path17"/>
<path d="M 296 -142 L 204 -142 L 204 -300 L 60 -300 L 60 -380 L 204 -380 L 204 -538 L 296 -538 L 296 -380 L 440 -380 L 440 -300 L 296 -300 Z " id="path18"/>
<path d="M 250 -517 Q 244 -517 237.5 -519.5 Q 231 -522 226.5 -526.5 Q 222 -531 219.5 -537.5 Q 217 -544 217 -550 Q 217 -556 219.5 -562.5 Q 222 -569 226.5 -573.5 Q 231 -578 237.5 -580.5 Q 244 -583 250 -583 Q 256 -583 262.5 -580.5 Q 269 -578 273.5 -573.5 Q 278 -569 280.5 -562.5 Q 283 -556 283 -550 Q 283 -544 280.5 -537.5 Q 278 -531 273.5 -526.5 Q 269 -522 262.5 -519.5 Q 256 -517 250 -517 Z M 145 -489 Q 139 -489 132.5 -491.5 Q 126 -494 121.5 -498.5 Q 117 -503 114.5 -509 Q 112 -515 112 -522 Q 112 -528 114.5 -534 Q 117 -540 121.5 -545 Q 126 -550 132.5 -552.5 Q 139 -555 145 -555 Q 151 -555 157.5 -552.5 Q 164 -550 168.5 -545 Q 173 -540 175.5 -534 Q 178 -528 178 -522 Q 178 -515 175.5 -509 Q 173 -503 168.5 -498.5 Q 164 -494 157.5 -491.5 Q 151 -489 145 -489 Z M 355 -489 Q 349 -489 342.5 -491.5 Q 336 -494 331.5 -498.5 Q 327 -503 324.5 -509 Q 322 -515 322 -522 Q 322 -528 324.5 -534 Q 327 -540 331.5 -545 Q 336 -550 342.5 -552.5 Q 349 -555 355 -555 Q 361 -555 367.5 -552.5 Q 374 -550 378.5 -545 Q 383 -540 385.5 -534 Q 388 -528 388 -522 Q 388 -515 385.5 -509 Q 383 -503 378.5 -498.5 Q 374 -494 367.5 -491.5 Q 361 -489 355 -489 Z M 68 -412 Q 62 -412 56 -414.5 Q 50 -417 45 -421.5 Q 40 -426 37.5 -432.5 Q 35 -439 35 -445 Q 35 -451 37.5 -457.5 Q 40 -464 45 -468.5 Q 50 -473 56 -475.5 Q 62 -478 68 -478 Q 75 -478 81 -475.5 Q 87 -473 91.5 -468.5 Q 96 -464 98.5 -457.5 Q 101 -451 101 -445 Q 101 -439 98.5 -432.5 Q 96 -426 91.5 -421.5 Q 87 -417 81 -414.5 Q 75 -412 68 -412 Z M 432 -412 Q 425 -412 419 -414.5 Q 413 -417 408.5 -421.5 Q 404 -426 401.5 -432.5 Q 399 -439 399 -445 Q 399 -451 401.5 -457.5 Q 404 -464 408.5 -468.5 Q 413 -473 419 -475.5 Q 425 -478 432 -478 Q 438 -478 444 -475.5 Q 450 -473 455 -468.5 Q 460 -464 462.5 -457.5 Q 465 -451 465 -445 Q 465 -439 462.5 -432.5 Q 460 -426 455 -421.5 Q 450 -417 444 -414.5 Q 438 -412 432 -412 Z M 40 -307 Q 34 -307 27.5 -309.5 Q 21 -312 16.5 -316.5 Q 12 -321 9.5 -327.5 Q 7 -334 7 -340 Q 7 -346 9.5 -352.5 Q 12 -359 16.5 -363.5 Q 21 -368 27.5 -370.5 Q 34 -373 40 -373 Q 46 -373 52.5 -370.5 Q 59 -368 63.5 -363.5 Q 68 -359 70.5 -352.5 Q 73 -346 73 -340 Q 73 -334 70.5 -327.5 Q 68 -321 63.5 -316.5 Q 59 -312 52.5 -309.5 Q 46 -307 40 -307 Z M 460 -307 Q 454 -307 447.5 -309.5 Q 441 -312 436.5 -316.5 Q 432 -321 429.5 -327.5 Q 427 -334 427 -340 Q 427 -346 429.5 -352.5 Q 432 -359 436.5 -363.5 Q 441 -368 447.5 -370.5 Q 454 -373 460 -373 Q 466 -373 472.5 -370.5 Q 479 -368 483.5 -363.5 Q 488 -359 490.5 -352.5 Q 493 -346 493 -340 Q 493 -334 490.5 -327.5 Q 488 -321 483.5 -316.5 Q 479 -312 472.5 -309.5 Q 466 -307 460 -307 Z M 432 -202 Q 425 -202 419 -204.5 Q 413 -207 408.5 -211.5 Q 404 -216 401.5 -222.5 Q 399 -229 399 -235 Q 399 -241 401.5 -247.5 Q 404 -254 408.5 -258.5 Q 413 -263 419 -265.5 Q 425 -268 432 -268 Q 438 -268 444 -265.5 Q 450 -263 455 -258.5 Q 460 -254 462.5 -247.5 Q 465 -241 465 -235 Q 465 -229 462.5 -222.5 Q 460 -216 455 -211.5 Q 450 -207 444 -204.5 Q 438 -202 432 -202 Z M 68 -202 Q 62 -202 56 -204.5 Q 50 -207 45 -211.5 Q 40 -216 37.5 -222.5 Q 35 -229 35 -235 Q 35 -241 37.5 -247.5 Q 40 -254 45 -258.5 Q 50 -263 56 -265.5 Q 62 -268 68 -268 Q 75 -268 81 -265.5 Q 87 -263 91.5 -258.5 Q 96 -254 98.5 -247.5 Q 101 -241 101 -235 Q 101 -229 98.5 -222.5 Q 96 -216 91.5 -211.5 Q 87 -207 81 -204.5 Q 75 -202 68 -202 Z M 355 -125 Q 349 -125 342.5 -127.5 Q 336 -130 331.5 -135 Q 327 -140 324.5 -146 Q 322 -152 322 -158 Q 322 -165 324.5 -171 Q 327 -177 331.5 -181.5 Q 336 -186 342.5 -188.5 Q 349 -191 355 -191 Q 361 -191 367.5 -188.5 Q 374 -186 378.5 -181.5 Q 383 -177 385.5 -171 Q 388 -165 388 -158 Q 388 -152 385.5 -146 Q 383 -140 378.5 -135 Q 374 -130 367.5 -127.5 Q 361 -125 355 -125 Z M 145 -125 Q 139 -125 132.5 -127.5 Q 126 -130 121.5 -135 Q 117 -140 114.5 -146 Q 112 -152 112 -158 Q 112 -165 114.5 -171 Q 117 -177 121.5 -181.5 Q 126 -186 132.5 -188.5 Q 139 -191 145 -191 Q 151 -191 157.5 -188.5 Q 164 -186 168.5 -181.5 Q 173 -177 175.5 -171 Q 178 -165 178 -158 Q 178 -152 175.5 -146 Q 173 -140 168.5 -135 Q 164 -130 157.5 -127.5 Q 151 -125 145 -125 Z M 250 -97 Q 244 -97 237.5 -99.5 Q 231 -102 226.5 -106.5 Q 222 -111 219.5 -117.5 Q 217 -124 217 -130 Q 217 -136 219.5 -142.5 Q 222 -149 226.5 -153.5 Q 231 -158 237.5 -160.5 Q 244 -163 250 -163 Q 256 -163 262.5 -160.5 Q 269 -158 273.5 -153.5 Q 278 -149 280.5 -142.5 Q 283 -136 283 -130 Q 283 -124 280.5 -117.5 Q 278 -111 273.5 -106.5 Q 269 -102 262.5 -99.5 Q 256 -97 250 -97 Z " id="path19"/>
<path d="M -444 -603 L -491 -636 L -396 -773 L -304 -773 L -250 -695 L -196 -773 L -104 -773 L -9 -636 L -56 -603 L -150 -717 L -244 -603 L -250 -607 L -256 -603 L -350 -717 Z " id="path20"/>
<path d="M -250 -591 Q -269 -591 -287 -596.5 Q -305 -602 -318 -615 Q -331 -628 -336.5 -646 Q -342 -664 -342 -683 Q -342 -702 -336.5 -720 Q -331 -738 -318 -751 Q -305 -764 -287 -769.5 Q -269 -775 -250 -775 Q -231 -775 -213 -769.5 Q -195 -764 -182 -751 Q -169 -738 -163.5 -720 Q -158 -702 -158 -683 Q -158 -664 -163.5 -646 Q -169 -628 -182 -615 Q -195 -602 -213 -596.5 Q -231 -591 -250 -591 Z M -420 -621 Q -432 -621 -444.5 -624.5 Q -457 -628 -466 -637 Q -475 -646 -478.5 -658.5 Q -482 -671 -482 -683 Q -482 -695 -478.5 -707.5 Q -475 -720 -466 -729 Q -457 -738 -444.5 -741.5 Q -432 -745 -420 -745 Q -408 -745 -395.5 -741.5 Q -383 -738 -374 -729 Q -365 -720 -361.5 -707.5 Q -358 -695 -358 -683 Q -358 -671 -361.5 -658.5 Q -365 -646 -374 -637 Q -383 -628 -395.5 -624.5 Q -408 -621 -420 -621 Z M -80 -621 Q -92 -621 -104.5 -624.5 Q -117 -628 -126 -637 Q -135 -646 -138.5 -658.5 Q -142 -671 -142 -683 Q -142 -695 -138.5 -707.5 Q -135 -720 -126 -729 Q -117 -738 -104.5 -741.5 Q -92 -745 -80 -745 Q -68 -745 -55.5 -741.5 Q -43 -738 -34 -729 Q -25 -720 -21.5 -707.5 Q -18 -695 -18 -683 Q -18 -671 -21.5 -658.5 Q -25 -646 -34 -637 Q -43 -628 -55.5 -624.5 Q -68 -621 -80 -621 Z M -250 -643 Q -242 -643 -234 -645.5 Q -226 -648 -220.5 -653.5 Q -215 -659 -212.5 -667 Q -210 -675 -210 -683 Q -210 -691 -212.5 -699 Q -215 -707 -220.5 -712.5 Q -226 -718 -234 -720.5 Q -242 -723 -250 -723 Q -258 -723 -266 -720.5 Q -274 -718 -279.5 -712.5 Q -285 -707 -287.5 -699 Q -290 -691 -290 -683 Q -290 -675 -287.5 -667 Q -285 -659 -279.5 -653.5 Q -274 -648 -266 -645.5 Q -258 -643 -250 -643 Z " id="path21"/>
<path d="M -171 -591 Q -190 -591 -208 -596.5 Q -226 -602 -239 -615 Q -252 -628 -257.5 -646 Q -263 -664 -263 -683 Q -263 -702 -257.5 -720 Q -252 -738 -239 -751 Q -226 -764 -208 -769.5 Q -190 -775 -171 -775 Q -152 -775 -134 -769.5 Q -116 -764 -103 -751 Q -90 -738 -84.5 -720 Q -79 -702 -79 -683 Q -79 -664 -84.5 -646 Q -90 -628 -103 -615 Q -116 -602 -134 -596.5 Q -152 -591 -171 -591 Z M -171 -643 Q -163 -643 -155 -645.5 Q -147 -648 -141.5 -653.5 Q -136 -659 -133.5 -667 Q -131 -675 -131 -683 Q -131 -691 -133.5 -699 Q -136 -707 -141.5 -712.5 Q -147 -718 -155 -720.5 Q -163 -723 -171 -723 Q -179 -723 -187 -720.5 Q -195 -718 -200.5 -712.5 Q -206 -707 -208.5 -699 Q -211 -691 -211 -683 Q -211 -675 -208.5 -667 Q -206 -659 -200.5 -653.5 Q -195 -648 -187 -645.5 Q -179 -643 -171 -643 Z M -329 -591 Q -348 -591 -366 -596.5 Q -384 -602 -397 -615 Q -410 -628 -415.5 -646 Q -421 -664 -421 -683 Q -421 -702 -415.5 -720 Q -410 -738 -397 -751 Q -384 -764 -366 -769.5 Q -348 -775 -329 -775 Q -310 -775 -292 -769.5 Q -274 -764 -261 -751 Q -248 -738 -242.5 -720 Q -237 -702 -237 -683 Q -237 -664 -242.5 -646 Q -248 -628 -261 -615 Q -274 -602 -292 -596.5 Q -310 -591 -329 -591 Z M -329 -643 Q -321 -643 -313 -645.5 Q -305 -648 -299.5 -653.5 Q -294 -659 -291.5 -667 Q -289 -675 -289 -683 Q -289 -691 -291.5 -699 Q -294 -707 -299.5 -712.5 Q -305 -718 -313 -720.5 Q -321 -723 -329 -723 Q -337 -723 -345 -720.5 Q -353 -718 -358.5 -712.5 Q -364 -707 -366.5 -699 Q -369 -691 -369 -683 Q -369 -675 -366.5 -667 Q -364 -659 -358.5 -653.5 Q -353 -648 -345 -645.5 Q -337 -643 -329 -643 Z " id="path22"/>
<path d="M -250 -584 L -338 -672 L -312 -700 L -273 -657 L -273 -766 L -227 -766 L -227 -657 L -188 -700 L -162 -672 Z " id="path23"/>
<path d="M -250 -794 Q -262 -794 -274.5 -798 Q -287 -802 -296 -810.5 Q -305 -819 -308.5 -831.5 Q -312 -844 -312 -856 Q -312 -869 -308.5 -881 Q -305 -893 -296 -902 Q -287 -911 -274.5 -914.5 Q -262 -918 -250 -918 Q -238 -918 -225.5 -914.5 Q -213 -911 -204 -902 Q -195 -893 -191.5 -881 Q -188 -869 -188 -856 Q -188 -844 -191.5 -831.5 Q -195 -819 -204 -810.5 Q -213 -802 -225.5 -798 Q -238 -794 -250 -794 Z M -150 -621 Q -162 -621 -174.5 -624.5 Q -187 -628 -196 -637 Q -205 -646 -208.5 -658.5 Q -212 -671 -212 -683 Q -212 -695 -208.5 -707.5 Q -205 -720 -196 -729 Q -187 -738 -174.5 -741.5 Q -162 -745 -150 -745 Q -138 -745 -125.5 -741.5 Q -113 -738 -104 -729 Q -95 -720 -91.5 -707.5 Q -88 -695 -88 -683 Q -88 -671 -91.5 -658.5 Q -95 -646 -104 -637 Q -113 -628 -125.5 -624.5 Q -138 -621 -150 -621 Z M -350 -621 Q -362 -621 -374.5 -624.5 Q -387 -628 -396 -637 Q -405 -646 -408.5 -658.5 Q -412 -671 -412 -683 Q -412 -695 -408.5 -707.5 Q -405 -720 -396 -729 Q -387 -738 -374.5 -741.5 Q -362 -745 -350 -745 Q -338 -745 -325.5 -741.5 Q -313 -738 -304 -729 Q -295 -720 -291.5 -707.5 Q -288 -695 -288 -683 Q -288 -671 -291.5 -658.5 Q -295 -646 -304 -637 Q -313 -628 -325.5 -624.5 Q -338 -621 -350 -621 Z " id="path24"/>
<path d="M -432 96 L -468 50 L -401 3 L -468 -44 L -432 -90 L -350 -33 L -268 -90 L -232 -44 L -299 3 L -232 50 L -268 96 L -350 39 Z M -232 96 L -268 50 L -201 3 L -268 -44 L -232 -90 L -150 -33 L -68 -90 L -32 -44 L -99 3 L -32 50 L -68 96 L -150 39 Z " id="path25"/>
<path d="M 64 0 L 64 -735 L 436 -735 L 436 0 Z M 104 -333 L 394 -695 L 300 -695 L 104 -450 Z M 104 -489 L 269 -695 L 175 -695 L 104 -606 Z M 104 -645 L 144 -695 L 104 -695 Z M 104 -176 L 396 -543 L 396 -660 L 104 -294 Z M 104 -40 L 119 -40 L 396 -386 L 396 -504 L 104 -137 Z M 150 -40 L 244 -40 L 396 -230 L 396 -347 Z M 275 -40 L 369 -40 L 396 -74 L 396 -191 Z " id="path26"/>
<path d="M -250 97 Q -260 97 -269.5 94 Q -279 91 -285.5 84 Q -292 77 -295 68 Q -298 59 -298 49 Q -298 29 -294.5 8.5 Q -291 -12 -284 -31 Q -277 -50 -266 -67 Q -255 -84 -240 -98 L -202 -65 Q -216 -51 -225 -34 Q -234 -17 -239 2 Q -231 3 -223.5 7 Q -216 11 -211 17.5 Q -206 24 -204 32.5 Q -202 41 -202 49 Q -202 59 -205 68 Q -208 77 -214.5 84 Q -221 91 -230.5 94 Q -240 97 -250 97 Z " id="path27"/>
<path d="M -150 97 Q -160 97 -169.5 94 Q -179 91 -185.5 84 Q -192 77 -195 68 Q -198 59 -198 49 Q -198 29 -194.5 8.5 Q -191 -12 -184 -31 Q -177 -50 -166 -67 Q -155 -84 -140 -98 L -102 -65 Q -116 -51 -125 -34 Q -134 -17 -139 2 Q -131 3 -123.5 7 Q -116 11 -111 17.5 Q -106 24 -104 32.5 Q -102 41 -102 49 Q -102 59 -105 68 Q -108 77 -114.5 84 Q -121 91 -130.5 94 Q -140 97 -150 97 Z M -350 97 Q -360 97 -369.5 94 Q -379 91 -385.5 84 Q -392 77 -395 68 Q -398 59 -398 49 Q -398 29 -394.5 8.5 Q -391 -12 -384 -31 Q -377 -50 -366 -67 Q -355 -84 -340 -98 L -302 -65 Q -316 -51 -325 -34 Q -334 -17 -339 2 Q -331 3 -323.5 7 Q -316 11 -311 17.5 Q -306 24 -304 32.5 Q -302 41 -302 49 Q -302 59 -305 68 Q -308 77 -314.5 84 Q -321 91 -330.5 94 Q -340 97 -350 97 Z " id="path28"/>
<path d="M -375 -572 Q -391 -593 -399.5 -618.5 Q -408 -644 -408 -670 Q -408 -696 -399.5 -721.5 Q -391 -747 -375 -768 L -350 -751 Q -363 -734 -369.5 -713 Q -376 -692 -376 -670 Q -376 -648 -369.5 -627 Q -363 -606 -350 -589 Z " id="path29"/>
<path d="M -125 -572 L -150 -589 Q -137 -606 -130.5 -627 Q -124 -648 -124 -670 Q -124 -692 -130.5 -713 Q -137 -734 -150 -751 L -125 -768 Q -109 -747 -100.5 -721.5 Q -92 -696 -92 -670 Q -92 -644 -100.5 -618.5 Q -109 -593 -125 -572 Z " id="path30"/>
<path d="M -457 -572 Q -472 -593 -481 -618.5 Q -490 -644 -490 -670 Q -490 -696 -481 -721.5 Q -472 -747 -457 -768 L -431 -751 Q -444 -734 -451 -713 Q -458 -692 -458 -670 Q -458 -648 -451 -627 Q -444 -606 -431 -589 Z M -375 -572 Q -391 -593 -399.5 -618.5 Q -408 -644 -408 -670 Q -408 -696 -399.5 -721.5 Q -391 -747 -375 -768 L -350 -751 Q -363 -734 -369.5 -713 Q -376 -692 -376 -670 Q -376 -648 -369.5 -627 Q -363 -606 -350 -589 Z " id="path31"/>
<path d="M -43 -572 L -69 -589 Q -56 -606 -49 -627 Q -42 -648 -42 -670 Q -42 -692 -49 -713 Q -56 -734 -69 -751 L -43 -768 Q -28 -747 -19 -721.5 Q -10 -696 -10 -670 Q -10 -644 -19 -618.5 Q -28 -593 -43 -572 Z M -125 -572 L -150 -589 Q -137 -606 -130.5 -627 Q -124 -648 -124 -670 Q -124 -692 -130.5 -713 Q -137 -734 -150 -751 L -125 -768 Q -109 -747 -100.5 -721.5 Q -92 -696 -92 -670 Q -92 -644 -100.5 -618.5 Q -109 -593 -125 -572 Z " id="path32"/>
<path d="M -375 248 Q -391 227 -399.5 201.5 Q -408 176 -408 150 Q -408 124 -399.5 98.5 Q -391 73 -375 52 L -350 69 Q -363 86 -369.5 107 Q -376 128 -376 150 Q -376 172 -369.5 193 Q -363 214 -350 231 Z " id="path33"/>
<path d="M -125 248 L -150 231 Q -137 214 -130.5 193 Q -124 172 -124 150 Q -124 128 -130.5 107 Q -137 86 -150 69 L -125 52 Q -109 73 -100.5 98.5 Q -92 124 -92 150 Q -92 176 -100.5 201.5 Q -109 227 -125 248 Z " id="path34"/>
<path d="M -307 141 L -341 -67 L -296 -67 L -285 81 L -269 -9 L -231 -9 L -215 81 L -204 -67 L -159 -67 L -193 141 L -230 141 L -250 39 L -270 141 Z " id="path35"/>
<path d="M -341 141 L -307 -67 L -270 -67 L -250 35 L -230 -67 L -193 -67 L -159 141 L -204 141 L -215 -7 L -231 83 L -269 83 L -285 -7 L -296 141 Z " id="path36"/>
<path d="M -425 -600 L -425 -740 L -350 -740 L -350 -712 L -393 -712 L -393 -628 L -350 -628 L -350 -600 Z " id="path37"/>
<path d="M -150 -600 L -150 -628 L -107 -628 L -107 -712 L -150 -712 L -150 -740 L -75 -740 L -75 -600 Z " id="path38"/>
<path d="M -313 -620 L -313 -682 L -344 -682 L -344 -726 L -313 -726 L -313 -794 L -344 -794 L -344 -838 L -313 -838 L -313 -900 L -270 -900 L -270 -838 L -230 -838 L -230 -900 L -187 -900 L -187 -838 L -156 -838 L -156 -794 L -187 -794 L -187 -726 L -156 -726 L -156 -682 L -187 -682 L -187 -620 L -230 -620 L -230 -682 L -270 -682 L -270 -620 Z M -270 -726 L -230 -726 L -230 -794 L -270 -794 Z " id="path39"/>
<path d="M -289 -610 Q -299 -610 -308 -616 Q -317 -622 -322 -631 Q -327 -640 -330 -650 Q -333 -660 -335 -670.5 Q -337 -681 -337.5 -691 Q -338 -701 -338 -712 Q -338 -740 -333 -768.5 Q -328 -797 -318 -824 L -280 -812 Q -289 -788 -293 -762.5 Q -297 -737 -297 -711 Q -297 -707 -297 -702.5 Q -297 -698 -297 -694 Q -297 -690 -296.5 -685.5 Q -296 -681 -295.5 -677 Q -295 -673 -294.5 -668.5 Q -294 -664 -293 -660 Q -292 -656 -290 -651.5 Q -288 -647 -284 -647 Q -279 -647 -277.5 -652 Q -276 -657 -275 -661.5 Q -274 -666 -273 -670.5 Q -272 -675 -271.5 -680 Q -271 -685 -271 -689.5 Q -271 -694 -271 -698.5 Q -271 -703 -270.5 -707.5 Q -270 -712 -270 -717 L -270 -748 L -230 -748 L -230 -717 Q -230 -712 -229.5 -707.5 Q -229 -703 -229 -698.5 Q -229 -694 -229 -689.5 Q -229 -685 -228.5 -680 Q -228 -675 -227 -670.5 Q -226 -666 -225 -661.5 Q -224 -657 -222.5 -652 Q -221 -647 -216 -647 Q -212 -647 -210 -651.5 Q -208 -656 -207 -660 Q -206 -664 -205.5 -668.5 Q -205 -673 -204.5 -677 Q -204 -681 -203.5 -685.5 Q -203 -690 -203 -694 Q -203 -698 -203 -702.5 Q -203 -707 -203 -711 Q -203 -737 -207 -762.5 Q -211 -788 -220 -812 L -182 -824 Q -172 -797 -167 -768.5 Q -162 -740 -162 -712 Q -162 -701 -162.5 -691 Q -163 -681 -165 -670.5 Q -167 -660 -170 -650 Q -173 -640 -178 -631 Q -183 -622 -192 -616 Q -201 -610 -211 -610 Q -225 -610 -235 -620.5 Q -245 -631 -250 -644 Q -255 -631 -265 -620.5 Q -275 -610 -289 -610 Z " id="path40"/>
<path d="M -282 -613 L -282 -655 L -350 -655 L -350 -711 L -282 -711 L -282 -753 L -218 -753 L -218 -711 L -150 -711 L -150 -655 L -218 -655 L -218 -613 Z " id="path41"/>
<path d="M -182 -613 L -182 -655 L -250 -655 L -250 -711 L -182 -711 L -182 -753 L -118 -753 L -118 -711 L -50 -711 L -50 -655 L -118 -655 L -118 -613 Z M -382 -613 L -382 -655 L -450 -655 L -450 -711 L -382 -711 L -382 -753 L -318 -753 L -318 -711 L -250 -711 L -250 -655 L -318 -655 L -318 -613 Z " id="path42"/>
<path d="M -382 73 L -382 31 L -450 31 L -450 -25 L -382 -25 L -382 -67 L -318 -67 L -318 -25 L -182 -25 L -182 -67 L -118 -67 L -118 -25 L -50 -25 L -50 31 L -118 31 L -118 73 L -182 73 L -182 31 L -318 31 L -318 73 Z " id="path43"/>
<path d="M -138 -596 L -177 -630 L -46 -773 L 1 -733 Z M -265 -596 L -304 -630 L -173 -773 L -127 -733 Z M -393 -596 L -432 -630 L -301 -773 L -254 -733 Z " id="path44"/>
<path d="M -250 -610 Q -266 -610 -281.5 -615 Q -297 -620 -308 -631.5 Q -319 -643 -323.5 -658.5 Q -328 -674 -328 -690 Q -328 -711 -317 -729.5 Q -306 -748 -289 -759 Q -296 -767 -300 -776.5 Q -304 -786 -304 -796 Q -304 -808 -299 -818.5 Q -294 -829 -286.5 -837 Q -279 -845 -269.5 -851.5 Q -260 -858 -250 -863 L -324 -863 L -324 -907 L -176 -907 L -176 -863 Q -188 -858 -200.5 -853 Q -213 -848 -224.5 -841 Q -236 -834 -245.5 -824 Q -255 -814 -255 -801 Q -255 -792 -247 -786 Q -239 -780 -231 -776 Q -223 -772 -214.5 -767.5 Q -206 -763 -199 -757 Q -192 -751 -187 -743 Q -182 -735 -178.5 -726.5 Q -175 -718 -173.5 -708.5 Q -172 -699 -172 -690 Q -172 -674 -176.5 -658.5 Q -181 -643 -192 -631.5 Q -203 -620 -218.5 -615 Q -234 -610 -250 -610 Z M -250 -654 Q -243 -654 -237 -656.5 Q -231 -659 -227.5 -664.5 Q -224 -670 -222.5 -676.5 Q -221 -683 -221 -690 Q -221 -698 -223 -705.5 Q -225 -713 -229.5 -719.5 Q -234 -726 -240.5 -730.5 Q -247 -735 -255 -738 Q -266 -730 -272.5 -717 Q -279 -704 -279 -690 Q -279 -683 -277.5 -676.5 Q -276 -670 -272.5 -664.5 Q -269 -659 -263 -656.5 Q -257 -654 -250 -654 Z " id="path45"/>
<path d="M -324 -613 L -324 -907 L -276 -907 L -276 -872 Q -273 -880 -269 -887 Q -265 -894 -259 -899.5 Q -253 -905 -245 -907.5 Q -237 -910 -229 -910 Q -215 -910 -203.5 -902 Q -192 -894 -186 -881.5 Q -180 -869 -178 -855 Q -176 -841 -176 -827 L -176 -774 Q -176 -768 -174 -761.5 Q -172 -755 -168 -749.5 Q -164 -744 -157.5 -742 Q -151 -740 -145 -740 L -142 -740 L -142 -696 L -145 -696 Q -160 -696 -176 -700.5 Q -192 -705 -203 -716 Q -214 -727 -219 -742.5 Q -224 -758 -224 -774 L -224 -827 Q -224 -834 -225 -840.5 Q -226 -847 -229 -853 Q -232 -859 -237.5 -862.5 Q -243 -866 -250 -866 Q -257 -866 -262.5 -862.5 Q -268 -859 -271 -853 Q -274 -847 -275 -840.5 Q -276 -834 -276 -827 L -276 -613 Z " id="path46"/>
<path d="M -251 -610 Q -267 -610 -282.5 -615.5 Q -298 -621 -308.5 -633 Q -319 -645 -323.5 -661 Q -328 -677 -328 -693 L -328 -719 Q -328 -735 -323.5 -750.5 Q -319 -766 -308 -777 L -324 -777 L -324 -821 L -176 -821 L -176 -777 L -250 -777 Q -259 -777 -265.5 -770 Q -272 -763 -274.5 -754.5 Q -277 -746 -278 -737 Q -279 -728 -279 -719 L -279 -693 Q -279 -686 -278 -679.5 Q -277 -673 -273.5 -667 Q -270 -661 -264 -657.5 Q -258 -654 -251 -654 Q -245 -654 -239.5 -656 Q -234 -658 -230.5 -662.5 Q -227 -667 -225 -672.5 Q -223 -678 -223 -684 L -223 -685 L -175 -685 L -175 -683 Q -175 -668 -180 -653.5 Q -185 -639 -196 -629 Q -207 -619 -221.5 -614.5 Q -236 -610 -251 -610 Z " id="path47"/>
<path d="M -396 -613 L -491 -750 L -444 -783 L -350 -669 L -256 -783 L -250 -779 L -244 -783 L -150 -669 L -56 -783 L -9 -750 L -104 -613 L -196 -613 L -203 -624 L -250 -691 L -304 -613 Z " id="path48"/>
<path d="M -313 -573 L -313 -649 L -324 -647 L -324 -691 L -313 -693 L -313 -780 L -324 -778 L -324 -821 L -313 -824 L -313 -900 L -276 -900 L -276 -831 L -224 -842 L -224 -925 L -187 -925 L -187 -849 L -176 -851 L -176 -807 L -187 -805 L -187 -718 L -176 -720 L -176 -677 L -187 -674 L -187 -598 L -224 -598 L -224 -667 L -276 -656 L -276 -573 Z M -276 -700 L -224 -711 L -224 -798 L -276 -787 Z " id="path49"/>
<path d="M -314 -585 L -314 -913 L -277 -913 L -277 -795 Q -270 -797 -263.5 -798 Q -257 -799 -250 -799 Q -236 -799 -222.5 -794.5 Q -209 -790 -199.5 -779.5 Q -190 -769 -186.5 -755.5 Q -183 -742 -183 -728 Q -183 -703 -196.5 -680.5 Q -210 -658 -229.5 -642 Q -249 -626 -271 -612.5 Q -293 -599 -314 -585 Z M -277 -648 Q -266 -655 -255.5 -663 Q -245 -671 -237 -681 Q -229 -691 -224.5 -703 Q -220 -715 -220 -728 Q -220 -735 -221.5 -741.5 Q -223 -748 -227 -754 Q -231 -760 -237 -763 Q -243 -766 -250 -766 Q -257 -766 -264 -763 Q -271 -760 -277 -755 Z " id="path50"/>
<path d="M -282 -613 L -282 -696 L -350 -696 L -350 -753 L -150 -753 L -150 -696 L -218 -696 L -218 -613 Z " id="path51"/>
<path d="M -321 -762 Q -333 -762 -345.5 -766 Q -358 -770 -366.5 -779 Q -375 -788 -379 -800 Q -383 -812 -383 -824 Q -383 -837 -379 -849 Q -375 -861 -366.5 -870 Q -358 -879 -345.5 -882.5 Q -333 -886 -321 -886 Q -308 -886 -296 -882.5 Q -284 -879 -275 -870 Q -266 -861 -262.5 -849 Q -259 -837 -259 -824 Q -259 -812 -262.5 -800 Q -266 -788 -275 -779 Q -284 -770 -296 -766 Q -308 -762 -321 -762 Z M -179 -621 Q -192 -621 -204 -624.5 Q -216 -628 -225 -637 Q -234 -646 -237.5 -658.5 Q -241 -671 -241 -683 Q -241 -695 -237.5 -707.5 Q -234 -720 -225 -729 Q -216 -738 -204 -741.5 Q -192 -745 -179 -745 Q -167 -745 -154.5 -741.5 Q -142 -738 -133.5 -729 Q -125 -720 -121 -707.5 Q -117 -695 -117 -683 Q -117 -671 -121 -658.5 Q -125 -646 -133.5 -637 Q -142 -628 -154.5 -624.5 Q -167 -621 -179 -621 Z " id="path52"/>
<path d="M -150 95 Q -169 95 -187 89.5 Q -205 84 -218 71 Q -231 58 -236.5 40 Q -242 22 -242 3 Q -242 -16 -236.5 -34 Q -231 -52 -218 -65 Q -205 -78 -187 -83.5 Q -169 -89 -150 -89 Q -131 -89 -113 -83.5 Q -95 -78 -82 -65 Q -69 -52 -63.5 -34 Q -58 -16 -58 3 Q -58 22 -63.5 40 Q -69 58 -82 71 Q -95 84 -113 89.5 Q -131 95 -150 95 Z M -350 65 Q -362 65 -374.5 61.5 Q -387 58 -396 49 Q -405 40 -408.5 27.5 Q -412 15 -412 3 Q -412 -9 -408.5 -21.5 Q -405 -34 -396 -43 Q -387 -52 -374.5 -55.5 Q -362 -59 -350 -59 Q -338 -59 -325.5 -55.5 Q -313 -52 -304 -43 Q -295 -34 -291.5 -21.5 Q -288 -9 -288 3 Q -288 15 -291.5 27.5 Q -295 40 -304 49 Q -313 58 -325.5 61.5 Q -338 65 -350 65 Z M -150 43 Q -142 43 -134 40.5 Q -126 38 -120.5 32.5 Q -115 27 -112.5 19 Q -110 11 -110 3 Q -110 -5 -112.5 -13 Q -115 -21 -120.5 -26.5 Q -126 -32 -134 -34.5 Q -142 -37 -150 -37 Q -158 -37 -166 -34.5 Q -174 -32 -179.5 -26.5 Q -185 -21 -187.5 -13 Q -190 -5 -190 3 Q -190 11 -187.5 19 Q -185 27 -179.5 32.5 Q -174 38 -166 40.5 Q -158 43 -150 43 Z " id="path53"/>
<path d="M -213 -613 L -213 -655 L -350 -655 L -350 -711 L -213 -711 L -213 -753 L -150 -753 L -150 -613 Z " id="path54"/>
<path d="M -350 -613 L -350 -753 L -287 -753 L -287 -711 L -150 -711 L -150 -655 L -287 -655 L -287 -613 Z " id="path55"/>
<path d="M -350 -655 L -350 -711 L -150 -711 L -150 -655 Z " id="path56"/>
<path d="M -382 -613 L -382 -753 L -318 -753 L -318 -670 L -182 -670 L -182 -753 L -118 -753 L -118 -613 Z " id="path57"/>
<path d="M -382 -613 L -382 -753 L -118 -753 L -118 -613 Z M -318 -660 L -182 -660 L -182 -706 L -318 -706 Z " id="path58"/>
<path d="M -421 -613 Q -421 -629 -419.5 -645.5 Q -418 -662 -413 -677.5 Q -408 -693 -400 -707.5 Q -392 -722 -380 -732.5 Q -368 -743 -352 -748 Q -336 -753 -320 -753 Q -308 -753 -297 -749.5 Q -286 -746 -277 -739 Q -268 -732 -261.5 -723 Q -255 -714 -250 -703 Q -245 -714 -238.5 -723 Q -232 -732 -223 -739 Q -214 -746 -203 -749.5 Q -192 -753 -180 -753 Q -164 -753 -148 -748 Q -132 -743 -120 -732.5 Q -108 -722 -100 -707.5 Q -92 -693 -87 -677.5 Q -82 -662 -80.5 -645.5 Q -79 -629 -79 -613 L -141 -613 Q -141 -626 -142.5 -638.5 Q -144 -651 -147.5 -663 Q -151 -675 -159 -686 Q -167 -697 -180 -697 Q -193 -697 -201 -686 Q -209 -675 -213 -663 Q -217 -651 -218 -638.5 Q -219 -626 -219 -613 L -281 -613 Q -281 -626 -282 -638.5 Q -283 -651 -287 -663 Q -291 -675 -299 -686 Q -307 -697 -320 -697 Q -333 -697 -341 -686 Q -349 -675 -352.5 -663 Q -356 -651 -357.5 -638.5 Q -359 -626 -359 -613 Z " id="path59"/>
<path d="M -318 144 Q -328 117 -333 88.5 Q -338 60 -338 32 Q -338 21 -337.5 11 Q -337 1 -335 -9.5 Q -333 -20 -330 -30 Q -327 -40 -322 -49 Q -317 -58 -308 -64 Q -299 -70 -289 -70 Q -275 -70 -265 -59.5 Q -255 -49 -250 -36 Q -245 -49 -235 -59.5 Q -225 -70 -211 -70 Q -201 -70 -192 -64 Q -183 -58 -178 -49 Q -173 -40 -170 -30 Q -167 -20 -165 -9.5 Q -163 1 -162.5 11 Q -162 21 -162 32 Q -162 60 -167 88.5 Q -172 117 -182 144 L -220 132 Q -211 108 -207 82.5 Q -203 57 -203 31 Q -203 27 -203 22.5 Q -203 18 -203 14 Q -203 10 -203.5 5.5 Q -204 1 -204.5 -3 Q -205 -7 -205.5 -11.5 Q -206 -16 -207 -20 Q -208 -24 -210 -28.5 Q -212 -33 -216 -33 Q -221 -33 -222.5 -28 Q -224 -23 -225 -18.5 Q -226 -14 -227 -9.5 Q -228 -5 -228.5 0 Q -229 5 -229 9.5 Q -229 14 -229 18.5 Q -229 23 -229.5 27.5 Q -230 32 -230 37 L -230 68 L -270 68 L -270 37 Q -270 32 -270.5 27.5 Q -271 23 -271 18.5 Q -271 14 -271 9.5 Q -271 5 -271.5 0 Q -272 -5 -273 -9.5 Q -274 -14 -275 -18.5 Q -276 -23 -277.5 -28 Q -279 -33 -284 -33 Q -288 -33 -290 -28.5 Q -292 -24 -293 -20 Q -294 -16 -294.5 -11.5 Q -295 -7 -295.5 -3 Q -296 1 -296.5 5.5 Q -297 10 -297 14 Q -297 18 -297 22.5 Q -297 27 -297 31 Q -297 57 -293 82.5 Q -289 108 -280 132 Z " id="path60"/>
<path d="M -318 -610 Q -328 -637 -333 -665.5 Q -338 -694 -338 -722 Q -338 -733 -337.5 -743 Q -337 -753 -335 -763.5 Q -333 -774 -330 -784 Q -327 -794 -322 -803 Q -317 -812 -308 -818 Q -299 -824 -289 -824 Q -275 -824 -265 -813.5 Q -255 -803 -250 -790 Q -245 -803 -235 -813.5 Q -225 -824 -211 -824 Q -201 -824 -192 -818 Q -183 -812 -178 -803 Q -173 -794 -170 -784 Q -167 -774 -165 -763.5 Q -163 -753 -162.5 -743 Q -162 -733 -162 -722 Q -162 -694 -167 -665.5 Q -172 -637 -182 -610 L -220 -622 Q -211 -646 -207 -671.5 Q -203 -697 -203 -723 Q -203 -727 -203 -731.5 Q -203 -736 -203 -740 Q -203 -744 -203.5 -748.5 Q -204 -753 -204.5 -757 Q -205 -761 -205.5 -765.5 Q -206 -770 -207 -774 Q -208 -778 -210 -782.5 Q -212 -787 -216 -787 Q -221 -787 -222.5 -782 Q -224 -777 -225 -772.5 Q -226 -768 -227 -763.5 Q -228 -759 -228.5 -754 Q -229 -749 -229 -744.5 Q -229 -740 -229 -735.5 Q -229 -731 -229.5 -726.5 Q -230 -722 -230 -717 L -230 -686 L -270 -686 L -270 -717 Q -270 -722 -270.5 -726.5 Q -271 -731 -271 -735.5 Q -271 -740 -271 -744.5 Q -271 -749 -271.5 -754 Q -272 -759 -273 -763.5 Q -274 -768 -275 -772.5 Q -276 -777 -277.5 -782 Q -279 -787 -284 -787 Q -288 -787 -290 -782.5 Q -292 -778 -293 -774 Q -294 -770 -294.5 -765.5 Q -295 -761 -295.5 -757 Q -296 -753 -296.5 -748.5 Q -297 -744 -297 -740 Q -297 -736 -297 -731.5 Q -297 -727 -297 -723 Q -297 -697 -293 -671.5 Q -289 -646 -280 -622 Z " id="path61"/>
<path d="M -350 -706 L -350 -753 L -150 -753 L -150 -706 Z M -350 -613 L -350 -660 L -150 -660 L -150 -613 Z " id="path62"/>
<path d="M -213 -613 L -213 -696 L -350 -696 L -350 -753 L -150 -753 L -150 -613 Z " id="path63"/>
<path d="M -273 -600 L -273 -709 L -312 -666 L -338 -694 L -250 -782 L -162 -694 L -188 -666 L -227 -709 L -227 -600 Z " id="path64"/>
<path d="M 243 -770 L 207 -817 L 291 -870 L -375 -870 L -375 -927 L 291 -927 L 207 -980 L 243 -1027 L 413 -899 Z " id="path65"/>
</defs>
<g>
<g data-source-text="0" fill="#20242e" transform="translate(174 41.292) rotate(0) scale(0.023999998)">
<use href="#path1" transform="translate(0 0)"/>
</g>
</g>
<g>
<g data-source-text="1" fill="#20242e" transform="translate(246 41.292) rotate(0) scale(0.023999998)">
<use href="#path2" transform="translate(0 0)"/>
</g>
</g>
<g>
<g data-source-text="2" fill="#20242e" transform="translate(318 41.292) rotate(0) scale(0.023999998)">
<use href="#path3" transform="translate(0 0)"/>
</g>
</g>
<g>
<g data-source-text="3" fill="#20242e" transform="translate(390 41.292) rotate(0) scale(0.023999998)">
<use href="#path4" transform="translate(0 0)"/>
</g>
</g>
<g>
<g data-source-text="4" fill="#20242e" transform="translate(462 41.292) rotate(0) scale(0.023999998)">
<use href="#path5" transform="translate(0 0)"/>
</g>
</g>
<g>
<g data-source-text="5" fill="#20242e" transform="translate(534 41.292) rotate(0) scale(0.023999998)">
<use href="#path6" transform="translate(0 0)"/>
</g>
</g>
<g>
<g data-source-text="6" fill="#20242e" transform="translate(606 41.292) rotate(0) scale(0.023999998)">
<use href="#path7" transform="translate(0 0)"/>
</g>
</g>
<g>
<g data-source-text="7" fill="#20242e" transform="translate(678 41.292) rotate(0) scale(0.023999998)">
<use href="#path8" transform="translate(0 0)"/>
</g>
</g>
<g>
<g data-source-text="8" fill="#20242e" transform="translate(750 41.292) rotate(0) scale(0.023999998)">
<use href="#path9" transform="translate(0 0)"/>
</g>
</g>
<g>
<g data-source-text="9" fill="#20242e" transform="translate(822 41.292) rotate(0) scale(0.023999998)">
<use href="#path10" transform="translate(0 0)"/>
</g>
</g>
<g>
<g data-source-text="A" fill="#20242e" transform="translate(894 41.292) rotate(0) scale(0.023999998)">
<use href="#path11" transform="translate(0 0)"/>
</g>
</g>
<g>
<g data-source-text="B" fill="#20242e" transform="translate(966 41.292) rotate(0) scale(0.023999998)">
<use href="#path12" transform="translate(0 0)"/>
</g>
</g>
<g>
<g data-source-text="C" fill="#20242e" transform="translate(1038 41.292) rotate(0) scale(0.023999998)">
<use href="#path13" transform="translate(0 0)"/>
</g>
</g>
<g>
<g data-source-text="D" fill="#20242e" transform="translate(1110 41.292) rotate(0) scale(0.023999998)">
<use href="#path14" transform="translate(0 0)"/>
</g>
</g>
<g>
<g data-source-text="E" fill="#20242e" transform="translate(1182 41.292) rotate(0) scale(0.023999998)">
<use href="#path15" transform="translate(0 0)"/>
</g>
</g>
<g>
<g data-source-text="F" fill="#20242e" transform="translate(1254 41.292) rotate(0) scale(0.023999998)">
<use href="#path16" transform="translate(0 0)"/>
</g>
</g>
<g>
<g data-source-text="U+1AB0" fill="#20242e" transform="translate(36 113.292) rotate(0) scale(0.023999998)">
<use href="#path17" transform="translate(0 0)"/>
<use href="#path18" transform="translate(500 0)"/>
<use href="#path2" transform="translate(1000 0)"/>
<use href="#path11" transform="translate(1500 0)"/>
<use href="#path12" transform="translate(2000 0)"/>
<use href="#path1" transform="translate(2500 0)"/>
</g>
</g>
<g>
<g data-source-text="◌" fill="#048fbf" transform="translate(168 118.584) rotate(0) scale(0.047999997)">
<use href="#path19" transform="translate(0 0)"/>
</g>
</g>
<g>
<g data-source-text="᪰" fill="#20242e" transform="translate(168 118.584) rotate(0) scale(0.047999997)">
<use href="#path20" transform="translate(500 0)"/>
</g>
</g>
<g>
<g data-source-text="◌" fill="#048fbf" transform="translate(240 118.584) rotate(0) scale(0.047999997)">
<use href="#path19" transform="translate(0 0)"/>
</g>
</g>
<g>
<g data-source-text="᪱" fill="#20242e" transform="translate(240 118.584) rotate(0) scale(0.047999997)">
<use href="#path21" transform="translate(500 0)"/>
</g>
</g>
<g>
<g data-source-text="◌" fill="#048fbf" transform="translate(312 118.584) rotate(0) scale(0.047999997)">
<use href="#path19" transform="translate(0 0)"/>
</g>
</g>
<g>
<g data-source-text="᪲" fill="#20242e" transform="translate(312 118.584) rotate(0) scale(0.047999997)">
<use href="#path22" transform="translate(500 0)"/>
</g>
</g>
<g>
<g data-source-text="◌" fill="#048fbf" transform="translate(384 118.584) rotate(0) scale(0.047999997)">
<use href="#path19" transform="translate(0 0)"/>
</g>
</g>
<g>
<g data-source-text="᪳" fill="#20242e" transform="translate(384 118.584) rotate(0) scale(0.047999997)">
<use href="#path23" transform="translate(500 0)"/>
</g>
</g>
<g>
<g data-source-text="◌" fill="#048fbf" transform="translate(456 118.584) rotate(0) scale(0.047999997)">
<use href="#path19" transform="translate(0 0)"/>
</g>
</g>
<g>
<g data-source-text="᪴" fill="#20242e" transform="translate(456 118.584) rotate(0) scale(0.047999997)">
<use href="#path24" transform="translate(500 0)"/>
</g>
</g>
<g>
<g data-source-text="◌" fill="#048fbf" transform="translate(528 118.584) rotate(0) scale(0.047999997)">
<use href="#path19" transform="translate(0 0)"/>
</g>
</g>
<g>
<g data-source-text="᪵" fill="#20242e" transform="translate(528 118.584) rotate(0) scale(0.047999997)">
<use href="#path25" transform="translate(500 0)"/>
</g>
</g>
<g>
<g data-source-text="" fill="#20242e40" transform="translate(600 118.584) rotate(0) scale(0.047999997)">
<use href="#path26" transform="translate(0 0)"/>
</g>
</g>
<g>
<g data-source-text="◌" fill="#048fbf" transform="translate(672 118.584) rotate(0) scale(0.047999997)">
<use href="#path19" transform="translate(0 0)"/>
</g>
</g>
<g>
<g data-source-text="᪷" fill="#20242e" transform="translate(672 118.584) rotate(0) scale(0.047999997)">
<use href="#path27" transform="translate(500 0)"/>
</g>
</g>
<g>
<g data-source-text="◌" fill="#048fbf" transform="translate(744 118.584) rotate(0) scale(0.047999997)">
<use href="#path19" transform="translate(0 0)"/>
</g>
</g>
<g>
<g data-source-text="᪸" fill="#20242e" transform="translate(744 118.584) rotate(0) scale(0.047999997)">
<use href="#path28" transform="translate(500 0)"/>
</g>
</g>
<g>
<g data-source-text="" fill="#20242e40" transform="translate(816 118.584) rotate(0) scale(0.047999997)">
<use href="#path26" transform="translate(0 0)"/>
</g>
</g>
<g>
<g data-source-text="" fill="#20242e40" transform="translate(888 118.584) rotate(0) scale(0.047999997)">
<use href="#path26" transform="translate(0 0)"/>
</g>
</g>
<g>
<g data-source-text="◌" fill="#048fbf" transform="translate(960 118.584) rotate(0) scale(0.047999997)">
<use href="#path19" transform="translate(0 0)"/>
</g>
</g>
<g>
<g data-source-text="᪻" fill="#20242e" transform="translate(960 118.584) rotate(0) scale(0.047999997)">
<use href="#path29" transform="translate(500 0)"/>
<use href="#path30" transform="translate(500 0)"/>
</g>
</g>
<g>
<g data-source-text="◌" fill="#048fbf" transform="translate(1032 118.584) rotate(0) scale(0.047999997)">
<use href="#path19" transform="translate(0 0)"/>
</g>
</g>
<g>
<g data-source-text="᪼" fill="#20242e" transform="translate(1032 118.584) rotate(0) scale(0.047999997)">
<use href="#path31" transform="translate(500 0)"/>
<use href="#path32" transform="translate(500 0)"/>
</g>
</g>
<g>
<g data-source-text="◌" fill="#048fbf" transform="translate(1104 118.584) rotate(0) scale(0.047999997)">
<use href="#path19" transform="translate(0 0)"/>
</g>
</g>
<g>
<g data-source-text="᪽" fill="#20242e" transform="translate(1104 118.584) rotate(0) scale(0.047999997)">
<use href="#path33" transform="translate(500 0)"/>
<use href="#path34" transform="translate(500 0)"/>
</g>
</g>
<g>
<g data-source-text="" fill="#20242e40" transform="translate(1176 118.584) rotate(0) scale(0.047999997)">
<use href="#path26" transform="translate(0 0)"/>
</g>
</g>
<g>
<g data-source-text="◌" fill="#048fbf" transform="translate(1248 118.584) rotate(0) scale(0.047999997)">
<use href="#path19" transform="translate(0 0)"/>
</g>
</g>
<g>
<g data-source-text="ᪿ" fill="#20242e" transform="translate(1248 118.584) rotate(0) scale(0.047999997)">
<use href="#path35" transform="translate(500 0)"/>
</g>
</g>
<g>
<g data-source-text="U+1AC0" fill="#20242e" transform="translate(36 185.292) rotate(0) scale(0.023999998)">
<use href="#path17" transform="translate(0 0)"/>
<use href="#path18" transform="translate(500 0)"/>
<use href="#path2" transform="translate(1000 0)"/>
<use href="#path11" transform="translate(1500 0)"/>
<use href="#path13" transform="translate(2000 0)"/>
<use href="#path1" transform="translate(2500 0)"/>
</g>
</g>
<g>
<g data-source-text="◌" fill="#048fbf" transform="translate(168 190.584) rotate(0) scale(0.047999997)">
<use href="#path19" transform="translate(0 0)"/>
</g>
</g>
<g>
<g data-source-text="ᫀ" fill="#20242e" transform="translate(168 190.584) rotate(0) scale(0.047999997)">
<use href="#path36" transform="translate(500 0)"/>
</g>
</g>
<g>
<g data-source-text="◌" fill="#048fbf" transform="translate(240 190.584) rotate(0) scale(0.047999997)">
<use href="#path19" transform="translate(0 0)"/>
</g>
</g>
<g>
<g data-source-text="᫁" fill="#20242e" transform="translate(240 190.584) rotate(0) scale(0.047999997)">
<use href="#path29" transform="translate(500 0)"/>
</g>
</g>
<g>
<g data-source-text="◌" fill="#048fbf" transform="translate(312 190.584) rotate(0) scale(0.047999997)">
<use href="#path19" transform="translate(0 0)"/>
</g>
</g>
<g>
<g data-source-text="᫂" fill="#20242e" transform="translate(312 190.584) rotate(0) scale(0.047999997)">
<use href="#path30" transform="translate(500 0)"/>
</g>
</g>
<g>
<g data-source-text="◌" fill="#048fbf" transform="translate(384 190.584) rotate(0) scale(0.047999997)">
<use href="#path19" transform="translate(0 0)"/>
</g>
</g>
<g>
<g data-source-text="᫃" fill="#20242e" transform="translate(384 190.584) rotate(0) scale(0.047999997)">
<use href="#path33" transform="translate(500 0)"/>
</g>
</g>
<g>
<g data-source-text="◌" fill="#048fbf" transform="translate(456 190.584) rotate(0) scale(0.047999997)">
<use href="#path19" transform="translate(0 0)"/>
</g>
</g>
<g>
<g data-source-text="᫄" fill="#20242e" transform="translate(456 190.584) rotate(0) scale(0.047999997)">
<use href="#path34" transform="translate(500 0)"/>
</g>
</g>
<g>
<g data-source-text="◌" fill="#048fbf" transform="translate(528 190.584) rotate(0) scale(0.047999997)">
<use href="#path19" transform="translate(0 0)"/>
</g>
</g>
<g>
<g data-source-text="᫅" fill="#20242e" transform="translate(528 190.584) rotate(0) scale(0.047999997)">
<use href="#path37" transform="translate(500 0)"/>
<use href="#path38" transform="translate(500 0)"/>
</g>
</g>
<g>
<g data-source-text="◌" fill="#048fbf" transform="translate(600 190.584) rotate(0) scale(0.047999997)">
<use href="#path19" transform="translate(0 0)"/>
</g>
</g>
<g>
<g data-source-text="᫆" fill="#20242e" transform="translate(600 190.584) rotate(0) scale(0.047999997)">
<use href="#path39" transform="translate(500 0)"/>
</g>
</g>
<g>
<g data-source-text="◌" fill="#048fbf" transform="translate(672 190.584) rotate(0) scale(0.047999997)">
<use href="#path19" transform="translate(0 0)"/>
</g>
</g>
<g>
<g data-source-text="᫇" fill="#20242e" transform="translate(672 190.584) rotate(0) scale(0.047999997)">
<use href="#path40" transform="translate(500 0)"/>
</g>
</g>
<g>
<g data-source-text="◌" fill="#048fbf" transform="translate(744 190.584) rotate(0) scale(0.047999997)">
<use href="#path19" transform="translate(0 0)"/>
</g>
</g>
<g>
<g data-source-text="᫈" fill="#20242e" transform="translate(744 190.584) rotate(0) scale(0.047999997)">
<use href="#path41" transform="translate(500 0)"/>
</g>
</g>
<g>
<g data-source-text="◌" fill="#048fbf" transform="translate(816 190.584) rotate(0) scale(0.047999997)">
<use href="#path19" transform="translate(0 0)"/>
</g>
</g>
<g>
<g data-source-text="᫉" fill="#20242e" transform="translate(816 190.584) rotate(0) scale(0.047999997)">
<use href="#path42" transform="translate(500 0)"/>
</g>
</g>
<g>
<g data-source-text="◌" fill="#048fbf" transform="translate(888 190.584) rotate(0) scale(0.047999997)">
<use href="#path19" transform="translate(0 0)"/>
</g>
</g>
<g>
<g data-source-text="᫊" fill="#20242e" transform="translate(888 190.584) rotate(0) scale(0.047999997)">
<use href="#path43" transform="translate(500 0)"/>
</g>
</g>
<g>
<g data-source-text="◌" fill="#048fbf" transform="translate(960 190.584) rotate(0) scale(0.047999997)">
<use href="#path19" transform="translate(0 0)"/>
</g>
</g>
<g>
<g data-source-text="᫋" fill="#20242e" transform="translate(960 190.584) rotate(0) scale(0.047999997)">
<use href="#path44" transform="translate(500 0)"/>
</g>
</g>
<g>
<g data-source-text="◌" fill="#048fbf" transform="translate(1032 190.584) rotate(0) scale(0.047999997)">
<use href="#path19" transform="translate(0 0)"/>
</g>
</g>
<g>
<g data-source-text="ᫌ" fill="#20242e" transform="translate(1032 190.584) rotate(0) scale(0.047999997)">
<use href="#path45" transform="translate(500 0)"/>
</g>
</g>
<g>
<g data-source-text="◌" fill="#048fbf" transform="translate(1104 190.584) rotate(0) scale(0.047999997)">
<use href="#path19" transform="translate(0 0)"/>
</g>
</g>
<g>
<g data-source-text="ᫍ" fill="#20242e" transform="translate(1104 190.584) rotate(0) scale(0.047999997)">
<use href="#path46" transform="translate(500 0)"/>
</g>
</g>
<g>
<g data-source-text="◌" fill="#048fbf" transform="translate(1176 190.584) rotate(0) scale(0.047999997)">
<use href="#path19" transform="translate(0 0)"/>
</g>
</g>
<g>
<g data-source-text="ᫎ" fill="#20242e" transform="translate(1176 190.584) rotate(0) scale(0.047999997)">
<use href="#path47" transform="translate(500 0)"/>
</g>
</g>
<g>
<g data-source-text="◌" fill="#048fbf" transform="translate(1248 190.584) rotate(0) scale(0.047999997)">
<use href="#path19" transform="translate(0 0)"/>
</g>
</g>
<g>
<g data-source-text="᫏" fill="#20242e" transform="translate(1248 190.584) rotate(0) scale(0.047999997)">
<use href="#path48" transform="translate(500 0)"/>
</g>
</g>
<g>
<g data-source-text="U+1AD0" fill="#20242e" transform="translate(36 257.292) rotate(0) scale(0.023999998)">
<use href="#path17" transform="translate(0 0)"/>
<use href="#path18" transform="translate(500 0)"/>
<use href="#path2" transform="translate(1000 0)"/>
<use href="#path11" transform="translate(1500 0)"/>
<use href="#path14" transform="translate(2000 0)"/>
<use href="#path1" transform="translate(2500 0)"/>
</g>
</g>
<g>
<g data-source-text="" fill="#20242e40" transform="translate(168 262.584) rotate(0) scale(0.047999997)">
<use href="#path26" transform="translate(0 0)"/>
</g>
</g>
<g>
<g data-source-text="" fill="#20242e40" transform="translate(240 262.584) rotate(0) scale(0.047999997)">
<use href="#path26" transform="translate(0 0)"/>
</g>
</g>
<g>
<g data-source-text="" fill="#20242e40" transform="translate(312 262.584) rotate(0) scale(0.047999997)">
<use href="#path26" transform="translate(0 0)"/>
</g>
</g>
<g>
<g data-source-text="" fill="#20242e40" transform="translate(384 262.584) rotate(0) scale(0.047999997)">
<use href="#path26" transform="translate(0 0)"/>
</g>
</g>
<g>
<g data-source-text="" fill="#20242e40" transform="translate(456 262.584) rotate(0) scale(0.047999997)">
<use href="#path26" transform="translate(0 0)"/>
</g>
</g>
<g>
<g data-source-text="" fill="#20242e40" transform="translate(528 262.584) rotate(0) scale(0.047999997)">
<use href="#path26" transform="translate(0 0)"/>
</g>
</g>
<g>
<g data-source-text="" fill="#20242e40" transform="translate(600 262.584) rotate(0) scale(0.047999997)">
<use href="#path26" transform="translate(0 0)"/>
</g>
</g>
<g>
<g data-source-text="" fill="#20242e40" transform="translate(672 262.584) rotate(0) scale(0.047999997)">
<use href="#path26" transform="translate(0 0)"/>
</g>
</g>
<g>
<g data-source-text="" fill="#20242e40" transform="translate(744 262.584) rotate(0) scale(0.047999997)">
<use href="#path26" transform="translate(0 0)"/>
</g>
</g>
<g>
<g data-source-text="◌" fill="#048fbf" transform="translate(816 262.584) rotate(0) scale(0.047999997)">
<use href="#path19" transform="translate(0 0)"/>
</g>
</g>
<g>
<g data-source-text="᫙" fill="#20242e" transform="translate(816 262.584) rotate(0) scale(0.047999997)">
<use href="#path49" transform="translate(500 0)"/>
</g>
</g>
<g>
<g data-source-text="◌" fill="#048fbf" transform="translate(888 262.584) rotate(0) scale(0.047999997)">
<use href="#path19" transform="translate(0 0)"/>
</g>
</g>
<g>
<g data-source-text="᫚" fill="#20242e" transform="translate(888 262.584) rotate(0) scale(0.047999997)">
<use href="#path50" transform="translate(500 0)"/>
</g>
</g>
<g>
<g data-source-text="◌" fill="#048fbf" transform="translate(960 262.584) rotate(0) scale(0.047999997)">
<use href="#path19" transform="translate(0 0)"/>
</g>
</g>
<g>
<g data-source-text="᫛" fill="#20242e" transform="translate(960 262.584) rotate(0) scale(0.047999997)">
<use href="#path51" transform="translate(500 0)"/>
</g>
</g>
<g>
<g data-source-text="◌" fill="#048fbf" transform="translate(1032 262.584) rotate(0) scale(0.047999997)">
<use href="#path19" transform="translate(0 0)"/>
</g>
</g>
<g>
<g data-source-text="᫜" fill="#20242e" transform="translate(1032 262.584) rotate(0) scale(0.047999997)">
<use href="#path52" transform="translate(500 0)"/>
</g>
</g>
<g>
<g data-source-text="◌" fill="#048fbf" transform="translate(1104 262.584) rotate(0) scale(0.047999997)">
<use href="#path19" transform="translate(0 0)"/>
</g>
</g>
<g>
<g data-source-text="᫝" fill="#20242e" transform="translate(1104 262.584) rotate(0) scale(0.047999997)">
<use href="#path53" transform="translate(500 0)"/>
</g>
</g>
<g>
<g data-source-text="" fill="#20242e40" transform="translate(1176 262.584) rotate(0) scale(0.047999997)">
<use href="#path26" transform="translate(0 0)"/>
</g>
</g>
<g>
<g data-source-text="" fill="#20242e40" transform="translate(1248 262.584) rotate(0) scale(0.047999997)">
<use href="#path26" transform="translate(0 0)"/>
</g>
</g>
<g>
<g data-source-text="U+1AE0" fill="#20242e" transform="translate(36 329.292) rotate(0) scale(0.023999998)">
<use href="#path17" transform="translate(0 0)"/>
<use href="#path18" transform="translate(500 0)"/>
<use href="#path2" transform="translate(1000 0)"/>
<use href="#path11" transform="translate(1500 0)"/>
<use href="#path15" transform="translate(2000 0)"/>
<use href="#path1" transform="translate(2500 0)"/>
</g>
</g>
<g>
<g data-source-text="◌" fill="#048fbf" transform="translate(168 334.584) rotate(0) scale(0.047999997)">
<use href="#path19" transform="translate(0 0)"/>
</g>
</g>
<g>
<g data-source-text="᫠" fill="#20242e" transform="translate(168 334.584) rotate(0) scale(0.047999997)">
<use href="#path54" transform="translate(500 0)"/>
</g>
</g>
<g>
<g data-source-text="◌" fill="#048fbf" transform="translate(240 334.584) rotate(0) scale(0.047999997)">
<use href="#path19" transform="translate(0 0)"/>
</g>
</g>
<g>
<g data-source-text="᫡" fill="#20242e" transform="translate(240 334.584) rotate(0) scale(0.047999997)">
<use href="#path55" transform="translate(500 0)"/>
</g>
</g>
<g>
<g data-source-text="◌" fill="#048fbf" transform="translate(312 334.584) rotate(0) scale(0.047999997)">
<use href="#path19" transform="translate(0 0)"/>
</g>
</g>
<g>
<g data-source-text="᫢" fill="#20242e" transform="translate(312 334.584) rotate(0) scale(0.047999997)">
<use href="#path56" transform="translate(500 0)"/>
</g>
</g>
<g>
<g data-source-text="◌" fill="#048fbf" transform="translate(384 334.584) rotate(0) scale(0.047999997)">
<use href="#path19" transform="translate(0 0)"/>
</g>
</g>
<g>
<g data-source-text="᫣" fill="#20242e" transform="translate(384 334.584) rotate(0) scale(0.047999997)">
<use href="#path57" transform="translate(500 0)"/>
</g>
</g>
<g>
<g data-source-text="◌" fill="#048fbf" transform="translate(456 334.584) rotate(0) scale(0.047999997)">
<use href="#path19" transform="translate(0 0)"/>
</g>
</g>
<g>
<g data-source-text="᫤" fill="#20242e" transform="translate(456 334.584) rotate(0) scale(0.047999997)">
<use href="#path58" transform="translate(500 0)"/>
</g>
</g>
<g>
<g data-source-text="◌" fill="#048fbf" transform="translate(528 334.584) rotate(0) scale(0.047999997)">
<use href="#path19" transform="translate(0 0)"/>
</g>
</g>
<g>
<g data-source-text="᫥" fill="#20242e" transform="translate(528 334.584) rotate(0) scale(0.047999997)">
<use href="#path59" transform="translate(500 0)"/>
</g>
</g>
<g>
<g data-source-text="◌" fill="#048fbf" transform="translate(600 334.584) rotate(0) scale(0.047999997)">
<use href="#path19" transform="translate(0 0)"/>
</g>
</g>
<g>
<g data-source-text="᫦" fill="#20242e" transform="translate(600 334.584) rotate(0) scale(0.047999997)">
<use href="#path60" transform="translate(500 0)"/>
</g>
</g>
<g>
<g data-source-text="◌" fill="#048fbf" transform="translate(672 334.584) rotate(0) scale(0.047999997)">
<use href="#path19" transform="translate(0 0)"/>
</g>
</g>
<g>
<g data-source-text="᫧" fill="#20242e" transform="translate(672 334.584) rotate(0) scale(0.047999997)">
<use href="#path61" transform="translate(500 0)"/>
</g>
</g>
<g>
<g data-source-text="◌" fill="#048fbf" transform="translate(744 334.584) rotate(0) scale(0.047999997)">
<use href="#path19" transform="translate(0 0)"/>
</g>
</g>
<g>
<g data-source-text="᫨" fill="#20242e" transform="translate(744 334.584) rotate(0) scale(0.047999997)">
<use href="#path62" transform="translate(500 0)"/>
</g>
</g>
<g>
<g data-source-text="◌" fill="#048fbf" transform="translate(816 334.584) rotate(0) scale(0.047999997)">
<use href="#path19" transform="translate(0 0)"/>
</g>
</g>
<g>
<g data-source-text="᫩" fill="#20242e" transform="translate(816 334.584) rotate(0) scale(0.047999997)">
<use href="#path63" transform="translate(500 0)"/>
</g>
</g>
<g>
<g data-source-text="◌" fill="#048fbf" transform="translate(888 334.584) rotate(0) scale(0.047999997)">
<use href="#path19" transform="translate(0 0)"/>
</g>
</g>
<g>
<g data-source-text="᫪" fill="#20242e" transform="translate(888 334.584) rotate(0) scale(0.047999997)">
<use href="#path64" transform="translate(500 0)"/>
</g>
</g>
<g>
<g data-source-text="◌" fill="#048fbf" transform="translate(960 334.584) rotate(0) scale(0.047999997)">
<use href="#path19" transform="translate(0 0)"/>
</g>
</g>
<g>
<g data-source-text="᫫" fill="#20242e" transform="translate(960 334.584) rotate(0) scale(0.047999997)">
<use href="#path65" transform="translate(500 0)"/>
</g>
</g>
<g>
<g data-source-text="" fill="#20242e40" transform="translate(1032 334.584) rotate(0) scale(0.047999997)">
<use href="#path26" transform="translate(0 0)"/>
</g>
</g>
<g>
<g data-source-text="" fill="#20242e40" transform="translate(1104 334.584) rotate(0) scale(0.047999997)">
<use href="#path26" transform="translate(0 0)"/>
</g>
</g>
<g>
<g data-source-text="" fill="#20242e40" transform="translate(1176 334.584) rotate(0) scale(0.047999997)">
<use href="#path26" transform="translate(0 0)"/>
</g>
</g>
<g>
<g data-source-text="" fill="#20242e40" transform="translate(1248 334.584) rotate(0) scale(0.047999997)">
<use href="#path26" transform="translate(0 0)"/>
</g>
</g>
<g>
<g data-source-text="U+1AF0" fill="#20242e" transform="translate(36 401.292) rotate(0) scale(0.023999998)">
<use href="#path17" transform="translate(0 0)"/>
<use href="#path18" transform="translate(500 0)"/>
<use href="#path2" transform="translate(1000 0)"/>
<use href="#path11" transform="translate(1500 0)"/>
<use href="#path16" transform="translate(2000 0)"/>
<use href="#path1" transform="translate(2500 0)"/>
</g>
</g>
<g>
<g data-source-text="" fill="#20242e40" transform="translate(168 406.584) rotate(0) scale(0.047999997)">
<use href="#path26" transform="translate(0 0)"/>
</g>
</g>
<g>
<g data-source-text="" fill="#20242e40" transform="translate(240 406.584) rotate(0) scale(0.047999997)">
<use href="#path26" transform="translate(0 0)"/>
</g>
</g>
<g>
<g data-source-text="" fill="#20242e40" transform="translate(312 406.584) rotate(0) scale(0.047999997)">
<use href="#path26" transform="translate(0 0)"/>
</g>
</g>
<g>
<g data-source-text="" fill="#20242e40" transform="translate(384 406.584) rotate(0) scale(0.047999997)">
<use href="#path26" transform="translate(0 0)"/>
</g>
</g>
<g>
<g data-source-text="" fill="#20242e40" transform="translate(456 406.584) rotate(0) scale(0.047999997)">
<use href="#path26" transform="translate(0 0)"/>
</g>
</g>
<g>
<g data-source-text="" fill="#20242e40" transform="translate(528 406.584) rotate(0) scale(0.047999997)">
<use href="#path26" transform="translate(0 0)"/>
</g>
</g>
<g>
<g data-source-text="" fill="#20242e40" transform="translate(600 406.584) rotate(0) scale(0.047999997)">
<use href="#path26" transform="translate(0 0)"/>
</g>
</g>
<g>
<g data-source-text="" fill="#20242e40" transform="translate(672 406.584) rotate(0) scale(0.047999997)">
<use href="#path26" transform="translate(0 0)"/>
</g>
</g>
<g>
<g data-source-text="" fill="#20242e40" transform="translate(744 406.584) rotate(0) scale(0.047999997)">
<use href="#path26" transform="translate(0 0)"/>
</g>
</g>
<g>
<g data-source-text="" fill="#20242e40" transform="translate(816 406.584) rotate(0) scale(0.047999997)">
<use href="#path26" transform="translate(0 0)"/>
</g>
</g>
<g>
<g data-source-text="" fill="#20242e40" transform="translate(888 406.584) rotate(0) scale(0.047999997)">
<use href="#path26" transform="translate(0 0)"/>
</g>
</g>
<g>
<g data-source-text="" fill="#20242e40" transform="translate(960 406.584) rotate(0) scale(0.047999997)">
<use href="#path26" transform="translate(0 0)"/>
</g>
</g>
<g>
<g data-source-text="" fill="#20242e40" transform="translate(1032 406.584) rotate(0) scale(0.047999997)">
<use href="#path26" transform="translate(0 0)"/>
</g>
</g>
<g>
<g data-source-text="" fill="#20242e40" transform="translate(1104 406.584) rotate(0) scale(0.047999997)">
<use href="#path26" transform="translate(0 0)"/>
</g>
</g>
<g>
<g data-source-text="" fill="#20242e40" transform="translate(1176 406.584) rotate(0) scale(0.047999997)">
<use href="#path26" transform="translate(0 0)"/>
</g>
</g>
<g>
<g data-source-text="" fill="#20242e40" transform="translate(1248 406.584) rotate(0) scale(0.047999997)">
<use href="#path26" transform="translate(0 0)"/>
</g>
</g>
</svg>