<?xml version="1.0" encoding="UTF-8" standalone="no"?>
<svg height="288" viewBox="0 0 1296 288" width="1296" xmlns="http://www.w3.org/2000/svg">
<defs>
<path d="M 250 8 Q 223 8 196 3 Q 169 -2 145 -15 Q 121 -28 102.5 -48.5 Q 84 -69 72.5 -94 Q 61 -119 56.5 -146 Q 52 -173 52 -200 L 52 -535 Q 52 -562 56.5 -589 Q 61 -616 72.5 -641 Q 84 -666 102.5 -686.5 Q 121 -707 145 -720 Q 169 -733 196 -738 Q 223 -743 250 -743 Q 277 -743 304 -738 Q 331 -733 355 -720 Q 379 -707 397.5 -686.5 Q 416 -666 427.5 -641 Q 439 -616 443.5 -589 Q 448 -562 448 -535 L 448 -200 Q 448 -173 443.5 -146 Q 439 -119 427.5 -94 Q 416 -69 397.5 -48.5 Q 379 -28 355 -15 Q 331 -2 304 3 Q 277 8 250 8 Z M 153 -337 L 347 -491 L 347 -535 Q 347 -557 342.5 -578.5 Q 338 -600 325.5 -618 Q 313 -636 292.5 -645.5 Q 272 -655 250 -655 Q 228 -655 207.5 -645.5 Q 187 -636 174.5 -618 Q 162 -600 157.5 -578.5 Q 153 -557 153 -535 Z M 250 -80 Q 272 -80 292.5 -89.5 Q 313 -99 325.5 -117 Q 338 -135 342.5 -156.5 Q 347 -178 347 -200 L 347 -398 L 153 -244 L 153 -200 Q 153 -178 157.5 -156.5 Q 162 -135 174.5 -117 Q 187 -99 207.5 -89.5 Q 228 -80 250 -80 Z " id="path1"/>
<path d="M 230 0 L 230 -631 L 110 -528 L 55 -584 L 230 -735 L 330 -735 L 330 0 Z " id="path2"/>
<path d="M 440 0 L 60 0 L 60 -1 Q 60 -27 61 -53.5 Q 62 -80 66 -106.5 Q 70 -133 77.5 -158.5 Q 85 -184 96.5 -207.5 Q 108 -231 123 -253 Q 138 -275 156 -294.5 Q 174 -314 194 -331 Q 214 -348 235.5 -364 Q 257 -380 277.5 -397 Q 298 -414 313 -435.5 Q 328 -457 335.5 -483 Q 343 -509 343 -535 Q 343 -557 339 -578 Q 335 -599 323.5 -617 Q 312 -635 292 -645 Q 272 -655 251 -655 Q 231 -655 212.5 -647.5 Q 194 -640 182 -625 Q 170 -610 164.5 -591 Q 159 -572 159 -552 L 159 -548 L 58 -548 L 58 -555 Q 58 -581 64 -605.5 Q 70 -630 81.5 -652.5 Q 93 -675 111.5 -693 Q 130 -711 152.5 -722.5 Q 175 -734 200.5 -738.5 Q 226 -743 251 -743 Q 278 -743 304.5 -737.5 Q 331 -732 354.5 -719 Q 378 -706 396 -685.5 Q 414 -665 424.5 -640.5 Q 435 -616 439.5 -589 Q 444 -562 444 -535 Q 444 -501 435 -468 Q 426 -435 407.5 -406 Q 389 -377 364 -353.5 Q 339 -330 312.5 -308.5 Q 286 -287 261 -264 Q 236 -241 216.5 -213 Q 197 -185 184 -153.5 Q 171 -122 166 -88 L 440 -88 Z " id="path3"/>
<path d="M 253 8 Q 227 8 201 4 Q 175 -0 151.5 -11.5 Q 128 -23 108.5 -40.5 Q 89 -58 76 -81 Q 63 -104 56.5 -129.5 Q 50 -155 50 -181 L 50 -187 L 151 -187 L 151 -184 Q 151 -163 157.5 -143 Q 164 -123 178 -108 Q 192 -93 212 -86.5 Q 232 -80 253 -80 Q 275 -80 296 -88.5 Q 317 -97 330.5 -114.5 Q 344 -132 349.5 -154 Q 355 -176 355 -198 Q 355 -217 351 -235.5 Q 347 -254 338.5 -271 Q 330 -288 316.5 -301 Q 303 -314 286 -322 Q 269 -330 250 -332 Q 231 -334 212 -334 L 212 -422 Q 229 -422 246 -424 Q 263 -426 278.5 -433 Q 294 -440 306 -452.5 Q 318 -465 325.5 -480.5 Q 333 -496 336 -513 Q 339 -530 339 -547 Q 339 -566 334.5 -585.5 Q 330 -605 319.5 -621 Q 309 -637 291 -646 Q 273 -655 253 -655 Q 234 -655 216.5 -647 Q 199 -639 187.5 -624 Q 176 -609 171.5 -590 Q 167 -571 167 -553 L 167 -548 L 66 -548 L 66 -556 Q 66 -581 71.5 -605.5 Q 77 -630 88 -652 Q 99 -674 117 -692.5 Q 135 -711 157 -722.5 Q 179 -734 203.5 -738.5 Q 228 -743 253 -743 Q 278 -743 303.5 -738 Q 329 -733 351 -721 Q 373 -709 390 -690 Q 407 -671 418 -648 Q 429 -625 434.5 -600 Q 440 -575 440 -550 Q 440 -524 434 -498.5 Q 428 -473 415.5 -450.5 Q 403 -428 384.5 -409.5 Q 366 -391 343 -379 Q 369 -368 390.5 -348.5 Q 412 -329 427 -304.5 Q 442 -280 449 -252 Q 456 -224 456 -196 Q 456 -168 450 -141.5 Q 444 -115 432 -91 Q 420 -67 401 -47 Q 382 -27 358 -14.5 Q 334 -2 307 3 Q 280 8 253 8 Z " id="path4"/>
<path d="M 282 0 L 282 -188 L 52 -188 L 52 -275 L 276 -735 L 385 -735 L 161 -275 L 282 -275 L 282 -435 L 382 -435 L 382 -275 L 440 -275 L 440 -188 L 382 -188 L 382 0 Z " id="path5"/>
<path d="M 252 8 Q 227 8 202.5 3.5 Q 178 -1 155.5 -12 Q 133 -23 115 -41 Q 97 -59 85 -80.5 Q 73 -102 66.5 -126.5 Q 60 -151 59 -176 L 159 -176 Q 161 -158 167 -139.5 Q 173 -121 185.5 -107 Q 198 -93 216 -86.5 Q 234 -80 252 -80 Q 269 -80 285 -87 Q 301 -94 312 -107 Q 323 -120 330 -135.5 Q 337 -151 340.5 -168 Q 344 -185 345.5 -202 Q 347 -219 347 -236 Q 347 -252 346 -269 Q 345 -286 341 -302 Q 337 -318 331 -334 Q 325 -350 314 -363 Q 303 -376 287.5 -383.5 Q 272 -391 256 -391 Q 240 -391 224.5 -387 Q 209 -383 196 -373.5 Q 183 -364 176 -349.5 Q 169 -335 168 -319 L 68 -319 L 68 -735 L 421 -735 L 421 -647 L 168 -647 L 168 -464 Q 189 -472 211 -475 Q 233 -478 256 -478 Q 285 -478 313.5 -470.5 Q 342 -463 365.5 -445.5 Q 389 -428 405.5 -403 Q 422 -378 431.5 -350.5 Q 441 -323 444.5 -294 Q 448 -265 448 -235 Q 448 -206 444 -176.5 Q 440 -147 430.5 -119 Q 421 -91 404 -66.5 Q 387 -42 363.5 -24.5 Q 340 -7 311 0.5 Q 282 8 252 8 Z " id="path6"/>
<path d="M 250 8 Q 221 8 192.5 1.5 Q 164 -5 140 -21 Q 116 -37 98.5 -60.5 Q 81 -84 70.5 -111 Q 60 -138 56 -166.5 Q 52 -195 52 -224 Q 52 -268 60 -311 Q 68 -354 81.5 -395.5 Q 95 -437 113 -477 Q 131 -517 150 -556 L 238 -735 L 347 -735 L 240 -517 Q 228 -493 216.5 -468.5 Q 205 -444 195 -419 Q 214 -438 239 -447 Q 264 -456 291 -456 Q 317 -456 342.5 -447 Q 368 -438 386.5 -419.5 Q 405 -401 417 -377.5 Q 429 -354 436 -328.5 Q 443 -303 445.5 -276.5 Q 448 -250 448 -224 Q 448 -195 444 -166.5 Q 440 -138 429.5 -111 Q 419 -84 401.5 -60.5 Q 384 -37 360 -21 Q 336 -5 307.5 1.5 Q 279 8 250 8 Z M 250 -80 Q 266 -80 282 -85.5 Q 298 -91 309.5 -102.5 Q 321 -114 328.5 -129 Q 336 -144 340 -159.5 Q 344 -175 345.5 -191.5 Q 347 -208 347 -224 Q 347 -240 345.5 -256.5 Q 344 -273 340 -289 Q 336 -305 328.5 -319.5 Q 321 -334 309.5 -345.5 Q 298 -357 282 -362.5 Q 266 -368 250 -368 Q 235 -368 221 -363.5 Q 207 -359 195.5 -349.5 Q 184 -340 176.5 -327.5 Q 169 -315 164 -301 Q 159 -287 156.5 -272.5 Q 154 -258 153 -243 L 153 -224 Q 153 -208 154.5 -191.5 Q 156 -175 160 -159.5 Q 164 -144 171.5 -129 Q 179 -114 190.5 -102.5 Q 202 -91 218 -85.5 Q 234 -80 250 -80 Z " id="path7"/>
<path d="M 242 0 L 138 0 L 336 -647 L 60 -647 L 60 -735 L 440 -735 L 440 -647 Z " id="path8"/>
<path d="M 250 8 Q 225 8 200 4 Q 175 -0 152 -10 Q 129 -20 109.5 -37 Q 90 -54 77.5 -75.5 Q 65 -97 58.5 -121.5 Q 52 -146 52 -172 Q 52 -203 62 -232.5 Q 72 -262 88.5 -288 Q 105 -314 127 -336 Q 149 -358 174 -378 Q 152 -396 132.5 -417 Q 113 -438 98.5 -462.5 Q 84 -487 76 -514.5 Q 68 -542 68 -570 Q 68 -594 73.5 -617 Q 79 -640 90.5 -661 Q 102 -682 119.5 -698.5 Q 137 -715 158 -725 Q 179 -735 202.5 -739 Q 226 -743 250 -743 Q 274 -743 297.5 -739 Q 321 -735 342 -725 Q 363 -715 380.5 -698.5 Q 398 -682 409.5 -661 Q 421 -640 426.5 -617 Q 432 -594 432 -570 Q 432 -542 424 -514.5 Q 416 -487 401.5 -462.5 Q 387 -438 367.5 -417 Q 348 -396 326 -378 Q 351 -358 373 -336 Q 395 -314 411.5 -288 Q 428 -262 438 -232.5 Q 448 -203 448 -172 Q 448 -146 441.5 -121.5 Q 435 -97 422.5 -75.5 Q 410 -54 390.5 -37 Q 371 -20 348 -10 Q 325 -0 300 4 Q 275 8 250 8 Z M 250 -435 Q 266 -447 280.5 -461.5 Q 295 -476 306.5 -493 Q 318 -510 325 -529.5 Q 332 -549 332 -569 Q 332 -586 326.5 -602.5 Q 321 -619 310 -631.5 Q 299 -644 283 -649.5 Q 267 -655 250 -655 Q 233 -655 217 -649.5 Q 201 -644 190 -631.5 Q 179 -619 173.5 -602.5 Q 168 -586 168 -569 Q 168 -549 175 -529.5 Q 182 -510 193.5 -493 Q 205 -476 219.5 -461.5 Q 234 -447 250 -435 Z M 250 -80 Q 269 -80 287.5 -85.5 Q 306 -91 320 -104 Q 334 -117 340.5 -135.5 Q 347 -154 347 -173 Q 347 -196 338.5 -217.5 Q 330 -239 316.5 -257.5 Q 303 -276 285.5 -291 Q 268 -306 250 -320 Q 232 -306 214.5 -291 Q 197 -276 183.5 -257.5 Q 170 -239 161.5 -217.5 Q 153 -196 153 -173 Q 153 -154 159.5 -135.5 Q 166 -117 180 -104 Q 194 -91 212.5 -85.5 Q 231 -80 250 -80 Z " id="path9"/>
<path d="M 262 0 L 153 0 L 260 -218 Q 272 -242 283.5 -266.5 Q 295 -291 305 -316 Q 286 -297 261 -288 Q 236 -279 209 -279 Q 183 -279 157.5 -288 Q 132 -297 113.5 -315.5 Q 95 -334 83 -357.5 Q 71 -381 64 -406.5 Q 57 -432 54.5 -458.5 Q 52 -485 52 -511 Q 52 -540 56 -568.5 Q 60 -597 70.5 -624 Q 81 -651 98.5 -674.5 Q 116 -698 140 -714 Q 164 -730 192.5 -736.5 Q 221 -743 250 -743 Q 279 -743 307.5 -736.5 Q 336 -730 360 -714 Q 384 -698 401.5 -674.5 Q 419 -651 429.5 -624 Q 440 -597 444 -568.5 Q 448 -540 448 -511 Q 448 -467 440 -424 Q 432 -381 418.5 -339.5 Q 405 -298 387 -258 Q 369 -218 350 -179 Z M 250 -367 Q 265 -367 279 -371.5 Q 293 -376 304.5 -385.5 Q 316 -395 323.5 -407.5 Q 331 -420 336 -434 Q 341 -448 343.5 -462.5 Q 346 -477 347 -492 L 347 -511 Q 347 -527 345.5 -543.5 Q 344 -560 340 -575.5 Q 336 -591 328.5 -606 Q 321 -621 309.5 -632.5 Q 298 -644 282 -649.5 Q 266 -655 250 -655 Q 234 -655 218 -649.5 Q 202 -644 190.5 -632.5 Q 179 -621 171.5 -606 Q 164 -591 160 -575.5 Q 156 -560 154.5 -543.5 Q 153 -527 153 -511 Q 153 -495 154.5 -478.5 Q 156 -462 160 -446 Q 164 -430 171.5 -415.5 Q 179 -401 190.5 -389.5 Q 202 -378 218 -372.5 Q 234 -367 250 -367 Z " id="path10"/>
<path d="M 39 0 L 192 -735 L 308 -735 L 461 0 L 358 0 L 326 -172 L 174 -172 L 142 0 Z M 309 -260 L 265 -490 Q 262 -511 258 -531.5 Q 254 -552 250 -572 Q 246 -552 242 -531.5 Q 238 -511 235 -490 L 191 -260 Z " id="path11"/>
<path d="M 60 0 L 60 -735 L 234 -735 Q 261 -735 287 -730.5 Q 313 -726 336 -714 Q 359 -702 377.5 -682.5 Q 396 -663 408 -639.5 Q 420 -616 424.5 -590 Q 429 -564 429 -538 Q 429 -515 425 -492 Q 421 -469 410.5 -448.5 Q 400 -428 383.5 -411 Q 367 -394 347 -383 Q 372 -373 393.5 -355.5 Q 415 -338 429.5 -314.5 Q 444 -291 450 -264 Q 456 -237 456 -210 Q 456 -181 450 -152.5 Q 444 -124 430 -98.5 Q 416 -73 394.5 -53.5 Q 373 -34 347 -21.5 Q 321 -9 292 -4.5 Q 263 -0 234 0 Z M 161 -424 L 234 -424 Q 255 -424 274.5 -432.5 Q 294 -441 306.5 -457.5 Q 319 -474 324 -494.5 Q 329 -515 329 -536 Q 329 -557 324 -577.5 Q 319 -598 306.5 -614.5 Q 294 -631 274.5 -639 Q 255 -647 234 -647 L 161 -647 Z M 161 -88 L 234 -88 Q 251 -88 267 -91 Q 283 -94 297.5 -101.5 Q 312 -109 323.5 -121 Q 335 -133 342.5 -148 Q 350 -163 352.5 -179 Q 355 -195 355 -212 Q 355 -228 352.5 -244.5 Q 350 -261 343 -276 Q 336 -291 324.5 -303 Q 313 -315 298 -322.5 Q 283 -330 267 -333 Q 251 -336 234 -336 L 161 -336 Z " id="path12"/>
<path d="M 247 8 Q 220 8 193 2.5 Q 166 -3 142.5 -16 Q 119 -29 101 -49.5 Q 83 -70 72 -94.5 Q 61 -119 56.5 -146 Q 52 -173 52 -200 L 52 -535 Q 52 -562 56.5 -589 Q 61 -616 72 -640.5 Q 83 -665 101 -685.5 Q 119 -706 142.5 -719 Q 166 -732 193 -737.5 Q 220 -743 247 -743 Q 273 -743 298 -738.5 Q 323 -734 346 -723 Q 369 -712 387.5 -694 Q 406 -676 418 -653.5 Q 430 -631 436 -606 Q 442 -581 442 -555 L 442 -548 L 341 -548 L 341 -552 Q 341 -572 335.5 -591.5 Q 330 -611 317.5 -626 Q 305 -641 286 -648 Q 267 -655 247 -655 Q 225 -655 205 -645.5 Q 185 -636 173 -618 Q 161 -600 157 -578.5 Q 153 -557 153 -535 L 153 -200 Q 153 -178 157 -156.5 Q 161 -135 173 -117 Q 185 -99 205 -89.5 Q 225 -80 247 -80 Q 267 -80 286 -87 Q 305 -94 317.5 -109 Q 330 -124 335.5 -143.5 Q 341 -163 341 -183 L 341 -187 L 442 -187 L 442 -180 Q 442 -154 436 -129 Q 430 -104 418 -81.5 Q 406 -59 387.5 -41 Q 369 -23 346 -12 Q 323 -1 298 3.5 Q 273 8 247 8 Z " id="path13"/>
<path d="M 60 0 L 60 -735 L 219 -735 Q 249 -735 279 -730 Q 309 -725 336.5 -712 Q 364 -699 386 -678.5 Q 408 -658 422 -631.5 Q 436 -605 442 -575 Q 448 -545 448 -515 L 448 -220 Q 448 -190 442 -160 Q 436 -130 422 -103.5 Q 408 -77 386 -56.5 Q 364 -36 336.5 -23 Q 309 -10 279 -5 Q 249 -0 219 0 Z M 161 -88 L 219 -88 Q 237 -88 254 -91 Q 271 -94 286.5 -102.5 Q 302 -111 314 -124 Q 326 -137 333.5 -152.5 Q 341 -168 344 -185.5 Q 347 -203 347 -220 L 347 -515 Q 347 -532 344 -549.5 Q 341 -567 333.5 -582.5 Q 326 -598 314 -611 Q 302 -624 286.5 -632.5 Q 271 -641 254 -644 Q 237 -647 219 -647 L 161 -647 Z " id="path14"/>
<path d="M 68 0 L 68 -735 L 440 -735 L 440 -647 L 169 -647 L 169 -426 L 383 -426 L 383 -338 L 169 -338 L 169 -88 L 440 -88 L 440 0 Z " id="path15"/>
<path d="M 91 0 L 91 -735 L 440 -735 L 440 -647 L 191 -647 L 191 -426 L 383 -426 L 383 -338 L 191 -338 L 191 0 Z " id="path16"/>
<path d="M 250 8 Q 223 8 196.5 2.5 Q 170 -3 147 -16.5 Q 124 -30 106.5 -50.5 Q 89 -71 78.5 -95.5 Q 68 -120 64 -146.5 Q 60 -173 60 -200 L 60 -735 L 161 -735 L 161 -200 Q 161 -186 162.5 -172 Q 164 -158 168 -144.5 Q 172 -131 179.5 -118.5 Q 187 -106 197.5 -97 Q 208 -88 222 -84 Q 236 -80 250 -80 Q 264 -80 278 -84 Q 292 -88 302.5 -97 Q 313 -106 320.5 -118.5 Q 328 -131 332 -144.5 Q 336 -158 337.5 -172 Q 339 -186 339 -200 L 339 -735 L 440 -735 L 440 -200 Q 440 -173 436 -146.5 Q 432 -120 421.5 -95.5 Q 411 -71 393.5 -50.5 Q 376 -30 353 -16.5 Q 330 -3 303.5 2.5 Q 277 8 250 8 Z " id="path17"/>
<path d="M 300 -143 L 200 -143 L 200 -296 L 60 -296 L 60 -384 L 200 -384 L 200 -537 L 300 -537 L 300 -384 L 440 -384 L 440 -296 L 300 -296 Z " id="path18"/>
<path d="M 250 -317 Q 230 -317 210.5 -320.5 Q 191 -324 173.5 -333 Q 156 -342 142 -355.5 Q 128 -369 119 -386.5 Q 110 -404 106.5 -423.5 Q 103 -443 103 -463 L 103 -698 Q 103 -717 106.5 -736.5 Q 110 -756 119 -773.5 Q 128 -791 142 -805 Q 156 -819 173.5 -827.5 Q 191 -836 210.5 -839.5 Q 230 -843 250 -843 Q 270 -843 289.5 -839.5 Q 309 -836 326.5 -827.5 Q 344 -819 358 -805 Q 372 -791 381 -773.5 Q 390 -756 393.5 -736.5 Q 397 -717 397 -698 L 397 -463 Q 397 -443 393.5 -423.5 Q 390 -404 381 -386.5 Q 372 -369 358 -355.5 Q 344 -342 326.5 -333 Q 309 -324 289.5 -320.5 Q 270 -317 250 -317 Z M 180 -560 L 320 -671 L 320 -698 Q 320 -712 316 -726.5 Q 312 -741 302.5 -752.5 Q 293 -764 279 -769 Q 265 -774 250 -774 Q 235 -774 221 -769 Q 207 -764 197.5 -752.5 Q 188 -741 184 -726.5 Q 180 -712 180 -698 Z M 250 -387 Q 265 -387 279 -392 Q 293 -397 302.5 -408 Q 312 -419 316 -433.5 Q 320 -448 320 -463 L 320 -600 L 180 -489 L 180 -463 Q 180 -448 184 -433.5 Q 188 -419 197.5 -408 Q 207 -397 221 -392 Q 235 -387 250 -387 Z " id="path19"/>
<path d="M 254 -730 Q 241 -730 229 -734 Q 217 -738 208 -746.5 Q 199 -755 195.5 -767.5 Q 192 -780 192 -792 Q 192 -804 195.5 -816.5 Q 199 -829 208 -837.5 Q 217 -846 229 -850 Q 241 -854 254 -854 Q 266 -854 278.5 -850 Q 291 -846 299.5 -837.5 Q 308 -829 312 -816.5 Q 316 -804 316 -792 Q 316 -780 312 -767.5 Q 308 -755 299.5 -746.5 Q 291 -738 278.5 -734 Q 266 -730 254 -730 Z M 373 -323 L 128 -323 L 128 -392 L 216 -392 L 216 -618 L 137 -618 L 137 -687 L 293 -687 L 293 -392 L 373 -392 Z " id="path20"/>
<path d="M 64 0 L 64 -735 L 436 -735 L 436 0 Z M 94 -321 L 401 -705 L 308 -705 L 94 -438 Z M 94 -478 L 276 -705 L 182 -705 L 94 -595 Z M 94 -634 L 151 -705 L 94 -705 Z M 94 -165 L 406 -554 L 406 -671 L 94 -282 Z M 94 -30 L 111 -30 L 406 -398 L 406 -515 L 94 -126 Z M 143 -30 L 236 -30 L 406 -242 L 406 -359 Z M 268 -30 L 362 -30 L 406 -85 L 406 -202 Z M 393 -30 L 406 -30 L 406 -46 Z " id="path21"/>
<path d="M 273 -323 L 273 -451 L 103 -451 L 103 -521 L 268 -838 L 353 -838 L 188 -521 L 273 -521 L 273 -624 L 350 -624 L 350 -521 L 391 -521 L 391 -451 L 350 -451 L 350 -323 Z " id="path22"/>
<path d="M 252 -317 Q 224 -317 197 -324.5 Q 170 -332 149.5 -350 Q 129 -368 118.5 -394 Q 108 -420 107 -447 L 184 -447 Q 185 -434 190 -422 Q 195 -410 204.5 -402 Q 214 -394 226.5 -390.5 Q 239 -387 252 -387 Q 269 -387 284 -396.5 Q 299 -406 307 -421 Q 315 -436 317.5 -453 Q 320 -470 320 -488 Q 320 -505 317.5 -522 Q 315 -539 307.5 -554 Q 300 -569 285.5 -579 Q 271 -589 254 -589 Q 244 -589 234 -587.5 Q 224 -586 214.5 -581.5 Q 205 -577 198.5 -569 Q 192 -561 191 -551 L 114 -551 L 114 -838 L 377 -838 L 377 -768 L 191 -768 L 191 -649 Q 206 -654 222 -656 Q 238 -658 254 -658 Q 275 -658 295.5 -653 Q 316 -648 333.5 -636.5 Q 351 -625 364 -607.5 Q 377 -590 384 -570.5 Q 391 -551 394 -530 Q 397 -509 397 -488 Q 397 -466 394 -445 Q 391 -424 383.5 -404.5 Q 376 -385 363 -367.5 Q 350 -350 332.5 -338.5 Q 315 -327 294 -322 Q 273 -317 252 -317 Z " id="path23"/>
<path d="M 250 -317 Q 229 -317 208.5 -321.5 Q 188 -326 170 -337 Q 152 -348 138.5 -364.5 Q 125 -381 117 -400 Q 109 -419 106 -440 Q 103 -461 103 -482 Q 103 -511 109 -539.5 Q 115 -568 125 -595.5 Q 135 -623 147.5 -649.5 Q 160 -676 173 -702 L 175 -705 Q 175 -706 175.5 -707 Q 176 -708 176 -709 L 240 -838 L 324 -838 L 245 -678 Q 239 -666 233 -653.5 Q 227 -641 221 -629 Q 234 -638 250 -642 Q 266 -646 282 -646 Q 300 -646 318.5 -640 Q 337 -634 351 -621 Q 365 -608 374 -591.5 Q 383 -575 388 -556.5 Q 393 -538 395 -519.5 Q 397 -501 397 -482 Q 397 -461 394 -440 Q 391 -419 383 -400 Q 375 -381 361.5 -364.5 Q 348 -348 330 -337 Q 312 -326 291.5 -321.5 Q 271 -317 250 -317 Z M 250 -387 Q 267 -387 282 -395 Q 297 -403 305.5 -417.5 Q 314 -432 317 -448.5 Q 320 -465 320 -482 Q 320 -499 317 -515.5 Q 314 -532 305.5 -546 Q 297 -560 282 -568.5 Q 267 -577 250 -577 Q 236 -577 222 -571 Q 208 -565 199.5 -553.5 Q 191 -542 186.5 -528 Q 182 -514 181 -499 Q 180 -495 180 -490.5 Q 180 -486 180 -482 Q 180 -465 183 -448.5 Q 186 -432 194.5 -417.5 Q 203 -403 218 -395 Q 233 -387 250 -387 Z " id="path24"/>
<path d="M 246 -323 L 165 -323 L 311 -768 L 109 -768 L 109 -838 L 391 -838 L 391 -768 Z " id="path25"/>
<path d="M 250 -317 Q 223 -317 196 -323.5 Q 169 -330 147.5 -347 Q 126 -364 114.5 -389.5 Q 103 -415 103 -442 Q 103 -464 110 -485 Q 117 -506 129 -524.5 Q 141 -543 157 -558.5 Q 173 -574 190 -587 Q 175 -600 161 -615 Q 147 -630 137 -647 Q 127 -664 121 -683.5 Q 115 -703 115 -723 Q 115 -749 125 -773 Q 135 -797 154.5 -813.5 Q 174 -830 199 -836.5 Q 224 -843 250 -843 Q 276 -843 301 -836.5 Q 326 -830 345.5 -813.5 Q 365 -797 375 -773 Q 385 -749 385 -723 Q 385 -703 379 -683.5 Q 373 -664 363 -647 Q 353 -630 339 -615 Q 325 -600 310 -587 Q 327 -574 343 -558.5 Q 359 -543 371 -524.5 Q 383 -506 390 -485 Q 397 -464 397 -442 Q 397 -415 385.5 -389.5 Q 374 -364 352.5 -347 Q 331 -330 304 -323.5 Q 277 -317 250 -317 Z M 250 -632 Q 261 -641 271 -650.5 Q 281 -660 289.5 -671 Q 298 -682 303 -695 Q 308 -708 308 -722 Q 308 -733 304 -743.5 Q 300 -754 291.5 -761 Q 283 -768 272 -771 Q 261 -774 250 -774 Q 239 -774 228 -771 Q 217 -768 208.5 -761 Q 200 -754 196 -743.5 Q 192 -733 192 -722 Q 192 -708 197 -695 Q 202 -682 210.5 -671 Q 219 -660 229 -650.5 Q 239 -641 250 -632 Z M 250 -387 Q 263 -387 275.5 -389.5 Q 288 -392 298.5 -399.5 Q 309 -407 314.5 -419 Q 320 -431 320 -443 Q 320 -459 313.5 -473.5 Q 307 -488 297 -500.5 Q 287 -513 275 -523 Q 263 -533 250 -543 Q 237 -533 225 -523 Q 213 -513 203 -500.5 Q 193 -488 186.5 -473.5 Q 180 -459 180 -443 Q 180 -431 185.5 -419 Q 191 -407 201.5 -399.5 Q 212 -392 224.5 -389.5 Q 237 -387 250 -387 Z " id="path26"/>
<path d="M 176 -323 L 255 -482 Q 261 -495 267 -507 Q 273 -519 279 -532 Q 266 -523 250 -518.5 Q 234 -514 218 -514 Q 200 -514 181.5 -520.5 Q 163 -527 149 -539.5 Q 135 -552 126 -569 Q 117 -586 112 -604 Q 107 -622 105 -641 Q 103 -660 103 -679 Q 103 -700 106 -720.5 Q 109 -741 117 -760.5 Q 125 -780 138.5 -796.5 Q 152 -813 170 -823.5 Q 188 -834 208.5 -838.5 Q 229 -843 250 -843 Q 271 -843 291.5 -838.5 Q 312 -834 330 -823.5 Q 348 -813 361.5 -796.5 Q 375 -780 383 -760.5 Q 391 -741 394 -720.5 Q 397 -700 397 -679 Q 397 -650 391 -621 Q 385 -592 375 -564.5 Q 365 -537 352.5 -511 Q 340 -485 327 -459 L 325 -455 Q 325 -454 324.5 -453.5 Q 324 -453 324 -452 L 260 -323 Z M 250 -584 Q 264 -584 278 -590 Q 292 -596 300.5 -607.5 Q 309 -619 313.5 -633 Q 318 -647 319 -661 Q 320 -665 320 -669.5 Q 320 -674 320 -679 Q 320 -695 317 -712 Q 314 -729 305.5 -743 Q 297 -757 282 -765.5 Q 267 -774 250 -774 Q 233 -774 218 -765.5 Q 203 -757 194.5 -743 Q 186 -729 183 -712 Q 180 -695 180 -679 Q 180 -662 183 -645.5 Q 186 -629 194.5 -614.5 Q 203 -600 218 -592 Q 233 -584 250 -584 Z " id="path27"/>
<path d="M 288 -414 L 212 -414 L 212 -526 L 109 -526 L 109 -596 L 212 -596 L 212 -708 L 288 -708 L 288 -596 L 391 -596 L 391 -526 L 288 -526 Z " id="path28"/>
<path d="M 109 -526 L 109 -596 L 391 -596 L 391 -526 Z " id="path29"/>
<path d="M 109 -594 L 109 -664 L 391 -664 L 391 -594 Z M 109 -458 L 109 -528 L 391 -528 L 391 -458 Z " id="path30"/>
<path d="M 336 -210 Q 289 -234 251.5 -272 Q 214 -310 189.5 -357 Q 165 -404 154.5 -456 Q 144 -508 144 -561 Q 144 -614 154.5 -666 Q 165 -718 189.5 -765 Q 214 -812 251.5 -850 Q 289 -888 336 -912 L 372 -851 Q 334 -830 304.5 -798 Q 275 -766 256 -727.5 Q 237 -689 229 -646.5 Q 221 -604 221 -561 Q 221 -518 229 -475.5 Q 237 -433 256 -394.5 Q 275 -356 304.5 -324 Q 334 -292 372 -271 Z " id="path31"/>
<path d="M 164 -210 L 128 -271 Q 166 -292 195.5 -324 Q 225 -356 244 -394.5 Q 263 -433 271 -475.5 Q 279 -518 279 -561 Q 279 -604 271 -646.5 Q 263 -689 244 -727.5 Q 225 -766 195.5 -798 Q 166 -830 128 -851 L 164 -912 Q 211 -888 248.5 -850 Q 286 -812 310.5 -765 Q 335 -718 345.5 -666 Q 356 -614 356 -561 Q 356 -508 345.5 -456 Q 335 -404 310.5 -357 Q 286 -310 248.5 -272 Q 211 -234 164 -210 Z " id="path32"/>
<path d="M 109 -323 L 109 -687 L 186 -687 L 186 -628 Q 192 -642 201 -654.5 Q 210 -667 223 -676 Q 236 -685 251 -689 Q 266 -693 282 -693 Q 299 -693 315.5 -688 Q 332 -683 345.5 -672 Q 359 -661 368 -646 Q 377 -631 382.5 -615 Q 388 -599 389.5 -581.5 Q 391 -564 391 -547 L 391 -323 L 314 -323 L 314 -547 Q 314 -561 311 -575 Q 308 -589 299.5 -600.5 Q 291 -612 277.5 -617.5 Q 264 -623 250 -623 Q 236 -623 222.5 -617.5 Q 209 -612 200.5 -600.5 Q 192 -589 189 -575 Q 186 -561 186 -547 L 186 -323 Z " id="path33"/>
<path d="M 250 113 Q 230 113 210.5 109.5 Q 191 106 173.5 97.5 Q 156 89 142 75 Q 128 61 119 43.5 Q 110 26 106.5 6.5 Q 103 -13 103 -33 L 103 -267 Q 103 -287 106.5 -306.5 Q 110 -326 119 -343.5 Q 128 -361 142 -374.5 Q 156 -388 173.5 -397 Q 191 -406 210.5 -409.5 Q 230 -413 250 -413 Q 270 -413 289.5 -409.5 Q 309 -406 326.5 -397 Q 344 -388 358 -374.5 Q 372 -361 381 -343.5 Q 390 -326 393.5 -306.5 Q 397 -287 397 -267 L 397 -33 Q 397 -13 393.5 6.5 Q 390 26 381 43.5 Q 372 61 358 75 Q 344 89 326.5 97.5 Q 309 106 289.5 109.5 Q 270 113 250 113 Z M 180 -130 L 320 -241 L 320 -267 Q 320 -282 316 -296.5 Q 312 -311 302.5 -322 Q 293 -333 279 -338 Q 265 -343 250 -343 Q 235 -343 221 -338 Q 207 -333 197.5 -322 Q 188 -311 184 -296.5 Q 180 -282 180 -267 Z M 250 44 Q 265 44 279 39 Q 293 34 302.5 22.5 Q 312 11 316 -3.5 Q 320 -18 320 -33 L 320 -170 L 180 -59 L 180 -33 Q 180 -18 184 -3.5 Q 188 11 197.5 22.5 Q 207 34 221 39 Q 235 44 250 44 Z " id="path34"/>
<path d="M 233 107 L 233 -328 L 154 -261 L 113 -304 L 233 -407 L 309 -407 L 309 107 Z " id="path35"/>
<path d="M 109 107 Q 109 84 110 61.5 Q 111 39 115.5 17 Q 120 -5 128.5 -26 Q 137 -47 149.5 -65.5 Q 162 -84 177.5 -100.5 Q 193 -117 211 -130.5 Q 229 -144 248.5 -156 Q 268 -168 284 -183.5 Q 300 -199 308.5 -220.5 Q 317 -242 317 -264 Q 317 -279 314 -293.5 Q 311 -308 302 -320 Q 293 -332 279 -337.5 Q 265 -343 251 -343 Q 238 -343 225.5 -339.5 Q 213 -336 203.5 -328 Q 194 -320 189 -307.5 Q 184 -295 184 -282 L 184 -281 L 107 -281 L 107 -284 Q 107 -311 118 -337 Q 129 -363 149.5 -380.5 Q 170 -398 196.5 -405.5 Q 223 -413 251 -413 Q 280 -413 308.5 -403.5 Q 337 -394 357.5 -372.5 Q 378 -351 386 -322.5 Q 394 -294 394 -264 Q 394 -241 388 -218 Q 382 -195 369 -175 Q 356 -155 338.5 -139 Q 321 -123 302 -108.5 Q 283 -94 265 -79 Q 247 -64 231.5 -46 Q 216 -28 205.5 -6.5 Q 195 15 191 38 L 391 38 L 391 107 Z " id="path36"/>
<path d="M 252 113 Q 224 113 196.5 106.5 Q 169 100 147 82.5 Q 125 65 113.5 38.5 Q 102 12 102 -16 L 102 -19 L 179 -19 L 179 -17 Q 179 -4 184.5 8.5 Q 190 21 201 29.5 Q 212 38 225 41 Q 238 44 252 44 Q 267 44 281.5 39 Q 296 34 306 23 Q 316 12 321 -2.5 Q 326 -17 326 -32 Q 326 -52 318 -70.5 Q 310 -89 295 -101.5 Q 280 -114 260.5 -118 Q 241 -122 222 -122 L 222 -191 Q 239 -191 257 -195 Q 275 -199 288 -210.5 Q 301 -222 308 -239 Q 315 -256 315 -274 Q 315 -287 311 -300 Q 307 -313 299 -323 Q 291 -333 278 -338 Q 265 -343 252 -343 Q 240 -343 228 -339.5 Q 216 -336 207 -327.5 Q 198 -319 194 -307 Q 190 -295 190 -283 L 190 -281 L 113 -281 L 113 -285 Q 113 -311 123 -336.5 Q 133 -362 153 -380 Q 173 -398 199 -405.5 Q 225 -413 252 -413 Q 280 -413 307 -404.5 Q 334 -396 353.5 -376.5 Q 373 -357 382.5 -330 Q 392 -303 392 -275 Q 392 -257 387.5 -239.5 Q 383 -222 374 -206.5 Q 365 -191 352 -178.5 Q 339 -166 323 -158 Q 341 -149 356.5 -136 Q 372 -123 382 -106 Q 392 -89 397.5 -69.5 Q 403 -50 403 -31 Q 403 -1 392.5 27.5 Q 382 56 360.5 76 Q 339 96 310 104.5 Q 281 113 252 113 Z " id="path37"/>
<path d="M 350 107 L 273 107 L 273 -21 L 103 -21 L 103 -90 L 268 -407 L 353 -407 L 188 -90 L 273 -90 L 273 -193 L 350 -193 L 350 -90 L 391 -90 L 391 -21 L 350 -21 Z " id="path38"/>
<path d="M 252 113 Q 224 113 197 105.5 Q 170 98 149.5 80.5 Q 129 63 118.5 37 Q 108 11 107 -17 L 184 -17 Q 185 -4 190 8 Q 195 20 204.5 28.5 Q 214 37 226.5 40.5 Q 239 44 252 44 Q 269 44 284 34.5 Q 299 25 307 9.5 Q 315 -6 317.5 -23 Q 320 -40 320 -57 Q 320 -74 317.5 -91 Q 315 -108 307.5 -123 Q 300 -138 285.5 -148 Q 271 -158 254 -158 Q 244 -158 234 -156.5 Q 224 -155 214.5 -151 Q 205 -147 198.5 -138.5 Q 192 -130 191 -120 L 114 -120 L 114 -407 L 377 -407 L 377 -338 L 191 -338 L 191 -218 Q 206 -224 222 -225.5 Q 238 -227 254 -227 Q 275 -227 295.5 -222 Q 316 -217 333.5 -205.5 Q 351 -194 364 -177 Q 377 -160 384 -140 Q 391 -120 394 -99 Q 397 -78 397 -57 Q 397 -36 394 -15 Q 391 6 383.5 26 Q 376 46 363 63 Q 350 80 332.5 91.5 Q 315 103 294 108 Q 273 113 252 113 Z " id="path39"/>
<path d="M 250 113 Q 229 113 208.5 108.5 Q 188 104 170 93.5 Q 152 83 138.5 66.5 Q 125 50 117 30.5 Q 109 11 106 -9.5 Q 103 -30 103 -51 Q 103 -80 109 -109 Q 115 -138 125 -165.5 Q 135 -193 147.5 -219 Q 160 -245 173 -271 L 175 -275 Q 175 -276 175.5 -276.5 Q 176 -277 176 -278 L 240 -407 L 324 -407 L 245 -248 Q 239 -235 233 -223 Q 227 -211 221 -198 Q 234 -207 250 -211.5 Q 266 -216 282 -216 Q 300 -216 318.5 -209.5 Q 337 -203 351 -190.5 Q 365 -178 374 -161 Q 383 -144 388 -126 Q 393 -108 395 -89 Q 397 -70 397 -51 Q 397 -30 394 -9.5 Q 391 11 383 30.5 Q 375 50 361.5 66.5 Q 348 83 330 93.5 Q 312 104 291.5 108.5 Q 271 113 250 113 Z M 250 44 Q 267 44 282 35.5 Q 297 27 305.5 13 Q 314 -1 317 -18 Q 320 -35 320 -51 Q 320 -68 317 -84.5 Q 314 -101 305.5 -115.5 Q 297 -130 282 -138 Q 267 -146 250 -146 Q 236 -146 222 -140 Q 208 -134 199.5 -122.5 Q 191 -111 186.5 -97 Q 182 -83 181 -69 Q 180 -65 180 -60.5 Q 180 -56 180 -51 Q 180 -35 183 -18 Q 186 -1 194.5 13 Q 203 27 218 35.5 Q 233 44 250 44 Z " id="path40"/>
<path d="M 165 108 L 311 -338 L 109 -338 L 109 -407 L 391 -407 L 391 -338 L 246 108 Z " id="path41"/>
<path d="M 250 113 Q 223 113 196 106.5 Q 169 100 147.5 83.5 Q 126 67 114.5 41.5 Q 103 16 103 -11 Q 103 -33 110 -54.5 Q 117 -76 129 -94 Q 141 -112 157 -127.5 Q 173 -143 190 -157 Q 175 -170 161 -184.5 Q 147 -199 137 -216.5 Q 127 -234 121 -253.5 Q 115 -273 115 -293 Q 115 -318 125 -342.5 Q 135 -367 154.5 -383.5 Q 174 -400 199 -406.5 Q 224 -413 250 -413 Q 276 -413 301 -406.5 Q 326 -400 345.5 -383.5 Q 365 -367 375 -342.5 Q 385 -318 385 -293 Q 385 -273 379 -253.5 Q 373 -234 363 -216.5 Q 353 -199 339 -184.5 Q 325 -170 310 -157 Q 327 -143 343 -127.5 Q 359 -112 371 -94 Q 383 -76 390 -54.5 Q 397 -33 397 -11 Q 397 16 385.5 41.5 Q 374 67 352.5 83.5 Q 331 100 304 106.5 Q 277 113 250 113 Z M 250 -201 Q 261 -210 271 -219.5 Q 281 -229 289.5 -240.5 Q 298 -252 303 -265 Q 308 -278 308 -292 Q 308 -303 304 -313.5 Q 300 -324 291.5 -331 Q 283 -338 272 -340.5 Q 261 -343 250 -343 Q 239 -343 228 -340.5 Q 217 -338 208.5 -331 Q 200 -324 196 -313.5 Q 192 -303 192 -292 Q 192 -278 197 -265 Q 202 -252 210.5 -240.5 Q 219 -229 229 -219.5 Q 239 -210 250 -201 Z M 250 44 Q 263 44 275.5 41 Q 288 38 298.5 30.5 Q 309 23 314.5 11.5 Q 320 0 320 -13 Q 320 -29 313.5 -43.5 Q 307 -58 297 -70 Q 287 -82 275 -92.5 Q 263 -103 250 -112 Q 237 -103 225 -92.5 Q 213 -82 203 -70 Q 193 -58 186.5 -43.5 Q 180 -29 180 -13 Q 180 0 185.5 11.5 Q 191 23 201.5 30.5 Q 212 38 224.5 41 Q 237 44 250 44 Z " id="path42"/>
<path d="M 176 108 L 255 -52 Q 261 -64 267 -76.5 Q 273 -89 279 -101 Q 266 -92 250 -88 Q 234 -84 218 -84 Q 200 -84 181.5 -90 Q 163 -96 149 -109 Q 135 -122 126 -138.5 Q 117 -155 112 -173.5 Q 107 -192 105 -210.5 Q 103 -229 103 -248 Q 103 -269 106 -290 Q 109 -311 117 -330 Q 125 -349 138.5 -365.5 Q 152 -382 170 -393 Q 188 -404 208.5 -408.5 Q 229 -413 250 -413 Q 271 -413 291.5 -408.5 Q 312 -404 330 -393 Q 348 -382 361.5 -365.5 Q 375 -349 383 -330 Q 391 -311 394 -290 Q 397 -269 397 -248 Q 397 -219 391 -190.5 Q 385 -162 375 -134.5 Q 365 -107 352.5 -80.5 Q 340 -54 327 -28 L 325 -25 Q 325 -24 324.5 -23 Q 324 -22 324 -21 L 260 108 Z M 250 -153 Q 264 -153 278 -159 Q 292 -165 300.5 -176.5 Q 309 -188 313.5 -202 Q 318 -216 319 -231 Q 320 -235 320 -239.5 Q 320 -244 320 -248 Q 320 -265 317 -281.5 Q 314 -298 305.5 -312.5 Q 297 -327 282 -335 Q 267 -343 250 -343 Q 233 -343 218 -335 Q 203 -327 194.5 -312.5 Q 186 -298 183 -281.5 Q 180 -265 180 -248 Q 180 -231 183 -214.5 Q 186 -198 194.5 -184 Q 203 -170 218 -161.5 Q 233 -153 250 -153 Z " id="path43"/>
<path d="M 212 17 L 212 -96 L 109 -96 L 109 -165 L 212 -165 L 212 -278 L 288 -278 L 288 -165 L 391 -165 L 391 -96 L 288 -96 L 288 17 Z " id="path44"/>
<path d="M 109 -96 L 109 -165 L 391 -165 L 391 -96 Z " id="path45"/>
<path d="M 109 -164 L 109 -233 L 391 -233 L 391 -164 Z M 109 -28 L 109 -97 L 391 -97 L 391 -28 Z " id="path46"/>
<path d="M 336 220 Q 289 196 251.5 158 Q 214 120 189.5 73.5 Q 165 27 154.5 -25.5 Q 144 -78 144 -131 Q 144 -183 154.5 -235.5 Q 165 -288 189.5 -334.5 Q 214 -381 251.5 -419 Q 289 -457 336 -481 L 372 -420 Q 334 -399 304.5 -367.5 Q 275 -336 256 -297.5 Q 237 -259 229 -216 Q 221 -173 221 -131 Q 221 -88 229 -45 Q 237 -2 256 36.5 Q 275 75 304.5 106.5 Q 334 138 372 159 Z " id="path47"/>
<path d="M 164 220 L 128 159 Q 166 138 195.5 106.5 Q 225 75 244 36.5 Q 263 -2 271 -45 Q 279 -88 279 -131 Q 279 -173 271 -216 Q 263 -259 244 -297.5 Q 225 -336 195.5 -367.5 Q 166 -399 128 -420 L 164 -481 Q 211 -457 248.5 -419 Q 286 -381 310.5 -334.5 Q 335 -288 345.5 -235.5 Q 356 -183 356 -131 Q 356 -78 345.5 -25.5 Q 335 27 310.5 73.5 Q 286 120 248.5 158 Q 211 196 164 220 Z " id="path48"/>
<path d="M 215 113 Q 193 113 171.5 107 Q 150 101 134 86 Q 118 71 110.5 49.5 Q 103 28 103 6 Q 103 -13 108 -32 Q 113 -51 125.5 -65.5 Q 138 -80 154.5 -90 Q 171 -100 189 -105.5 Q 207 -111 226 -113 Q 245 -115 264 -115 L 314 -115 L 314 -145 Q 314 -156 308.5 -166.5 Q 303 -177 293.5 -183 Q 284 -189 272.5 -191 Q 261 -193 249 -193 Q 239 -193 228.5 -191.5 Q 218 -190 208.5 -186 Q 199 -182 191.5 -174 Q 184 -166 184 -156 L 184 -155 L 107 -155 L 107 -158 Q 107 -183 120 -205 Q 133 -227 154 -240 Q 175 -253 200 -257.5 Q 225 -262 249 -262 Q 267 -262 284 -260 Q 301 -258 317.5 -252 Q 334 -246 348.5 -235.5 Q 363 -225 373 -210.5 Q 383 -196 387 -179 Q 391 -162 391 -145 L 391 107 L 314 107 L 314 54 Q 308 68 297.5 79.5 Q 287 91 274 99 Q 261 107 246 110 Q 231 113 215 113 Z M 247 44 Q 260 44 273 40.5 Q 286 37 295.5 28.5 Q 305 20 309.5 7.5 Q 314 -5 314 -18 L 314 -46 L 264 -46 Q 255 -46 246.5 -45.5 Q 238 -45 229 -43 Q 220 -41 212 -38.5 Q 204 -36 196.5 -31 Q 189 -26 184.5 -18 Q 180 -10 180 -2 Q 180 10 186.5 19.5 Q 193 29 203 34.5 Q 213 40 224.5 42 Q 236 44 247 44 Z " id="path49"/>
<path d="M 250 113 Q 230 113 210.5 109.5 Q 191 106 173.5 97.5 Q 156 89 142 75 Q 128 61 119 43.5 Q 110 26 106.5 6.5 Q 103 -13 103 -33 L 103 -117 Q 103 -136 106.5 -155.5 Q 110 -175 119 -192.5 Q 128 -210 142 -224 Q 156 -238 173.5 -246.5 Q 191 -255 210.5 -258.5 Q 230 -262 250 -262 Q 270 -262 289.5 -258.5 Q 309 -255 326.5 -246.5 Q 344 -238 358 -224 Q 372 -210 381 -192.5 Q 390 -175 393.5 -155.5 Q 397 -136 397 -117 L 397 -40 L 180 -40 L 180 -33 Q 180 -18 184 -3.5 Q 188 11 197.5 22.5 Q 207 34 221 39 Q 235 44 250 44 Q 261 44 271.5 42.5 Q 282 41 292 37 Q 302 33 310 25 Q 318 17 319 6 L 396 6 Q 395 31 382 54 Q 369 77 347.5 90 Q 326 103 300.5 108 Q 275 113 250 113 Z M 180 -109 L 320 -109 L 320 -117 Q 320 -131 316 -145.5 Q 312 -160 302.5 -171.5 Q 293 -183 279 -188 Q 265 -193 250 -193 Q 235 -193 221 -188 Q 207 -183 197.5 -171.5 Q 188 -160 184 -145.5 Q 180 -131 180 -117 Z " id="path50"/>
<path d="M 250 113 Q 230 113 210.5 109.5 Q 191 106 173.5 97.5 Q 156 89 142 75 Q 128 61 119 43.5 Q 110 26 106.5 6.5 Q 103 -13 103 -33 L 103 -117 Q 103 -136 106.5 -155.5 Q 110 -175 119 -192.5 Q 128 -210 142 -224 Q 156 -238 173.5 -246.5 Q 191 -255 210.5 -258.5 Q 230 -262 250 -262 Q 270 -262 289.5 -258.5 Q 309 -255 326.5 -246.5 Q 344 -238 358 -224 Q 372 -210 381 -192.5 Q 390 -175 393.5 -155.5 Q 397 -136 397 -117 L 397 -33 Q 397 -13 393.5 6.5 Q 390 26 381 43.5 Q 372 61 358 75 Q 344 89 326.5 97.5 Q 309 106 289.5 109.5 Q 270 113 250 113 Z M 250 44 Q 265 44 279 39 Q 293 34 302.5 22.5 Q 312 11 316 -3.5 Q 320 -18 320 -33 L 320 -117 Q 320 -131 316 -145.5 Q 312 -160 302.5 -171.5 Q 293 -183 279 -188 Q 265 -193 250 -193 Q 235 -193 221 -188 Q 207 -183 197.5 -171.5 Q 188 -160 184 -145.5 Q 180 -131 180 -117 L 180 -33 Q 180 -18 184 -3.5 Q 188 11 197.5 22.5 Q 207 34 221 39 Q 235 44 250 44 Z " id="path51"/>
<path d="M 98 107 L 208 -75 L 98 -257 L 188 -257 L 250 -148 L 312 -257 L 402 -257 L 292 -75 L 402 107 L 312 107 L 250 -1 L 188 107 Z " id="path52"/>
<path d="M 250 113 Q 230 113 210.5 109.5 Q 191 106 173.5 97.5 Q 156 89 142 75 Q 128 61 119 43.5 Q 110 26 106.5 6.5 Q 103 -13 103 -33 L 103 -109 L 320 -109 L 320 -117 Q 320 -131 316 -145.5 Q 312 -160 302.5 -171.5 Q 293 -183 279 -188 Q 265 -193 250 -193 Q 239 -193 228.5 -191.5 Q 218 -190 208 -186 Q 198 -182 190 -174 Q 182 -166 181 -155 L 104 -155 Q 105 -180 118 -203 Q 131 -226 152.5 -239 Q 174 -252 199.5 -257 Q 225 -262 250 -262 Q 270 -262 289.5 -258.5 Q 309 -255 326.5 -246.5 Q 344 -238 358 -224 Q 372 -210 381 -192.5 Q 390 -175 393.5 -155.5 Q 397 -136 397 -117 L 397 -33 Q 397 -13 393.5 6.5 Q 390 26 381 43.5 Q 372 61 358 75 Q 344 89 326.5 97.5 Q 309 106 289.5 109.5 Q 270 113 250 113 Z M 250 44 Q 265 44 279 39 Q 293 34 302.5 22.5 Q 312 11 316 -3.5 Q 320 -18 320 -33 L 320 -40 L 180 -40 L 180 -33 Q 180 -18 184 -3.5 Q 188 11 197.5 22.5 Q 207 34 221 39 Q 235 44 250 44 Z " id="path53"/>
<path d="M 109 107 L 109 -407 L 186 -407 L 186 -198 Q 192 -212 201 -224.5 Q 210 -237 223 -245.5 Q 236 -254 251 -258 Q 266 -262 282 -262 Q 299 -262 315.5 -257 Q 332 -252 345.5 -241.5 Q 359 -231 368 -216 Q 377 -201 382.5 -184.5 Q 388 -168 389.5 -151 Q 391 -134 391 -117 L 391 107 L 314 107 L 314 -117 Q 314 -131 311 -145 Q 308 -159 299.5 -170 Q 291 -181 277.5 -187 Q 264 -193 250 -193 Q 236 -193 222.5 -187 Q 209 -181 200.5 -170 Q 192 -159 189 -145 Q 186 -131 186 -117 L 186 107 Z " id="path54"/>
<path d="M 316 108 L 232 -32 L 197 14 L 197 107 L 120 107 L 120 -407 L 197 -407 L 197 -93 L 312 -257 L 403 -257 L 276 -90 L 403 108 Z " id="path55"/>
<path d="M 373 107 L 128 107 L 128 38 L 216 38 L 216 -338 L 137 -338 L 137 -407 L 293 -407 L 293 38 L 373 38 Z " id="path56"/>
<path d="M 100 107 L 100 -257 L 174 -257 L 174 -227 Q 181 -242 194.5 -252 Q 208 -262 224 -262 Q 234 -262 244 -258 Q 254 -254 261 -247 Q 268 -240 273 -230.5 Q 278 -221 281 -211 Q 284 -221 288.5 -230.5 Q 293 -240 300 -247 Q 307 -254 317 -258 Q 327 -262 337 -262 Q 348 -262 358.5 -257.5 Q 369 -253 376.5 -244.5 Q 384 -236 388.5 -226 Q 393 -216 395.5 -205 Q 398 -194 399 -183 Q 400 -172 400 -160 L 400 107 L 326 107 L 326 -160 Q 326 -166 325.5 -171.5 Q 325 -177 323 -182.5 Q 321 -188 316.5 -192 Q 312 -196 307 -196 Q 301 -196 296.5 -192 Q 292 -188 290 -182.5 Q 288 -177 287.5 -171.5 Q 287 -166 287 -160 L 287 107 L 213 107 L 213 -160 Q 213 -166 212.5 -171.5 Q 212 -177 210 -182.5 Q 208 -188 203.5 -192 Q 199 -196 193 -196 Q 188 -196 183.5 -192 Q 179 -188 177 -182.5 Q 175 -177 174.5 -171.5 Q 174 -166 174 -160 L 174 107 Z " id="path57"/>
<path d="M 109 107 L 109 -257 L 186 -257 L 186 -198 Q 192 -212 201 -224.5 Q 210 -237 223 -245.5 Q 236 -254 251 -258 Q 266 -262 282 -262 Q 299 -262 315.5 -257 Q 332 -252 345.5 -241.5 Q 359 -231 368 -216 Q 377 -201 382.5 -184.5 Q 388 -168 389.5 -151 Q 391 -134 391 -117 L 391 107 L 314 107 L 314 -117 Q 314 -131 311 -145 Q 308 -159 299.5 -170 Q 291 -181 277.5 -187 Q 264 -193 250 -193 Q 236 -193 222.5 -187 Q 209 -181 200.5 -170 Q 192 -159 189 -145 Q 186 -131 186 -117 L 186 107 Z " id="path58"/>
<path d="M 186 258 L 109 258 L 109 -257 L 186 -257 L 186 -197 Q 192 -211 201.5 -224 Q 211 -237 224 -246 Q 237 -255 253 -258.5 Q 269 -262 284 -262 Q 302 -262 319 -257.5 Q 336 -253 349.5 -242 Q 363 -231 372.5 -216.5 Q 382 -202 387.5 -185.5 Q 393 -169 395 -151.5 Q 397 -134 397 -117 L 397 -33 Q 397 -15 395 2.5 Q 393 20 387.5 36.5 Q 382 53 372.5 67.5 Q 363 82 349.5 93 Q 336 104 319 108.5 Q 302 113 284 113 Q 269 113 253 109.5 Q 237 106 224 97 Q 211 88 201.5 75 Q 192 62 186 48 Z M 253 44 Q 267 44 281 38.5 Q 295 33 304 22 Q 313 11 316.5 -3.5 Q 320 -18 320 -33 L 320 -117 Q 320 -131 316.5 -145.5 Q 313 -160 304 -171 Q 295 -182 281 -187.5 Q 267 -193 253 -193 Q 238 -193 224.5 -187.5 Q 211 -182 201.5 -171 Q 192 -160 189 -145.5 Q 186 -131 186 -117 L 186 -33 Q 186 -18 189 -3.5 Q 192 11 201.5 22 Q 211 33 224.5 38.5 Q 238 44 253 44 Z " id="path59"/>
<path d="M 249 113 Q 233 113 217 111.5 Q 201 110 185.5 105.5 Q 170 101 156 93.5 Q 142 86 130.5 74.5 Q 119 63 113 47.5 Q 107 32 107 16 L 107 13 L 184 13 Q 184 23 192.5 29.5 Q 201 36 210.5 39 Q 220 42 229.5 43 Q 239 44 249 44 Q 259 44 269.5 43 Q 280 42 289.5 38.5 Q 299 35 307 27.5 Q 315 20 315 10 Q 315 -2 306 -11 Q 297 -20 286 -24.5 Q 275 -29 263.5 -31.5 Q 252 -34 240.5 -37.5 Q 229 -41 218 -44.5 Q 207 -48 196 -53 Q 185 -58 175 -64.5 Q 165 -71 156 -78.5 Q 147 -86 139 -95 Q 131 -104 125.5 -114.5 Q 120 -125 117 -136.5 Q 114 -148 114 -160 Q 114 -184 126.5 -205.5 Q 139 -227 159 -240 Q 179 -253 203 -257.5 Q 227 -262 251 -262 Q 274 -262 297.5 -258 Q 321 -254 341.5 -242 Q 362 -230 374.5 -209.5 Q 387 -189 387 -165 L 387 -162 L 310 -162 Q 310 -172 303 -178.5 Q 296 -185 287 -188 Q 278 -191 269 -192 Q 260 -193 251 -193 Q 241 -193 231.5 -191.5 Q 222 -190 213.5 -186.5 Q 205 -183 198 -176 Q 191 -169 191 -159 Q 191 -147 200 -138.5 Q 209 -130 220 -125.5 Q 231 -121 242.5 -118 Q 254 -115 265 -112 Q 276 -109 287.5 -105 Q 299 -101 309.5 -96 Q 320 -91 330 -84.5 Q 340 -78 349.5 -70.5 Q 359 -63 366.5 -54 Q 374 -45 379.5 -35 Q 385 -25 388.5 -13 Q 392 -1 392 10 Q 392 27 386 42.5 Q 380 58 369 70.5 Q 358 83 344 91.5 Q 330 100 314 105 Q 298 110 282 111.5 Q 266 113 249 113 Z " id="path60"/>
<path d="M 296 113 Q 279 113 262 109 Q 245 105 230.5 95 Q 216 85 206 70.5 Q 196 56 190 39.5 Q 184 23 182 5.5 Q 180 -12 180 -29 L 180 -187 L 124 -187 L 124 -257 L 180 -257 L 180 -407 L 257 -407 L 257 -257 L 369 -257 L 369 -187 L 257 -187 L 257 -29 Q 257 -17 258.5 -6 Q 260 5 264 16 Q 268 27 276.5 35.5 Q 285 44 296 44 Q 307 44 315 38 Q 323 32 327.5 23 Q 332 14 334 3.5 Q 336 -7 336 -17 L 336 -19 L 413 -19 L 413 -14 Q 413 10 406 34 Q 399 58 383.5 76.5 Q 368 95 344.5 104 Q 321 113 296 113 Z " id="path61"/>
</defs>
<g>
<g data-source-text="0" fill="#dee4e3" transform="translate(174 41.292) rotate(0) scale(0.023999998)">
<use href="#path1" transform="translate(0 0)"/>
</g>
</g>
<g>
<g data-source-text="1" fill="#dee4e3" transform="translate(246 41.292) rotate(0) scale(0.023999998)">
<use href="#path2" transform="translate(0 0)"/>
</g>
</g>
<g>
<g data-source-text="2" fill="#dee4e3" transform="translate(318 41.292) rotate(0) scale(0.023999998)">
<use href="#path3" transform="translate(0 0)"/>
</g>
</g>
<g>
<g data-source-text="3" fill="#dee4e3" transform="translate(390 41.292) rotate(0) scale(0.023999998)">
<use href="#path4" transform="translate(0 0)"/>
</g>
</g>
<g>
<g data-source-text="4" fill="#dee4e3" transform="translate(462 41.292) rotate(0) scale(0.023999998)">
<use href="#path5" transform="translate(0 0)"/>
</g>
</g>
<g>
<g data-source-text="5" fill="#dee4e3" transform="translate(534 41.292) rotate(0) scale(0.023999998)">
<use href="#path6" transform="translate(0 0)"/>
</g>
</g>
<g>
<g data-source-text="6" fill="#dee4e3" transform="translate(606 41.292) rotate(0) scale(0.023999998)">
<use href="#path7" transform="translate(0 0)"/>
</g>
</g>
<g>
<g data-source-text="7" fill="#dee4e3" transform="translate(678 41.292) rotate(0) scale(0.023999998)">
<use href="#path8" transform="translate(0 0)"/>
</g>
</g>
<g>
<g data-source-text="8" fill="#dee4e3" transform="translate(750 41.292) rotate(0) scale(0.023999998)">
<use href="#path9" transform="translate(0 0)"/>
</g>
</g>
<g>
<g data-source-text="9" fill="#dee4e3" transform="translate(822 41.292) rotate(0) scale(0.023999998)">
<use href="#path10" transform="translate(0 0)"/>
</g>
</g>
<g>
<g data-source-text="A" fill="#dee4e3" transform="translate(894 41.292) rotate(0) scale(0.023999998)">
<use href="#path11" transform="translate(0 0)"/>
</g>
</g>
<g>
<g data-source-text="B" fill="#dee4e3" transform="translate(966 41.292) rotate(0) scale(0.023999998)">
<use href="#path12" transform="translate(0 0)"/>
</g>
</g>
<g>
<g data-source-text="C" fill="#dee4e3" transform="translate(1038 41.292) rotate(0) scale(0.023999998)">
<use href="#path13" transform="translate(0 0)"/>
</g>
</g>
<g>
<g data-source-text="D" fill="#dee4e3" transform="translate(1110 41.292) rotate(0) scale(0.023999998)">
<use href="#path14" transform="translate(0 0)"/>
</g>
</g>
<g>
<g data-source-text="E" fill="#dee4e3" transform="translate(1182 41.292) rotate(0) scale(0.023999998)">
<use href="#path15" transform="translate(0 0)"/>
</g>
</g>
<g>
<g data-source-text="F" fill="#dee4e3" transform="translate(1254 41.292) rotate(0) scale(0.023999998)">
<use href="#path16" transform="translate(0 0)"/>
</g>
</g>
<g>
<g data-source-text="U+2070" fill="#dee4e3" transform="translate(36 113.292) rotate(0) scale(0.023999998)">
<use href="#path17" transform="translate(0 0)"/>
<use href="#path18" transform="translate(500 0)"/>
<use href="#path3" transform="translate(1000 0)"/>
<use href="#path1" transform="translate(1500 0)"/>
<use href="#path8" transform="translate(2000 0)"/>
<use href="#path1" transform="translate(2500 0)"/>
</g>
</g>
<g>
<g data-source-text="⁰" fill="#dee4e3" transform="translate(168 118.584) rotate(0) scale(0.047999997)">
<use href="#path19" transform="translate(0 0)"/>
</g>
</g>
<g>
<g data-source-text="ⁱ" fill="#dee4e3" transform="translate(240 118.584) rotate(0) scale(0.047999997)">
<use href="#path20" transform="translate(0 0)"/>
</g>
</g>
<g>
<g data-source-text="" fill="#dee4e340" transform="translate(312 118.584) rotate(0) scale(0.047999997)">
<use href="#path21" transform="translate(0 0)"/>
</g>
</g>
<g>
<g data-source-text="" fill="#dee4e340" transform="translate(384 118.584) rotate(0) scale(0.047999997)">
<use href="#path21" transform="translate(0 0)"/>
</g>
</g>
<g>
<g data-source-text="⁴" fill="#dee4e3" transform="translate(456 118.584) rotate(0) scale(0.047999997)">
<use href="#path22" transform="translate(0 0)"/>
</g>
</g>
<g>
<g data-source-text="⁵" fill="#dee4e3" transform="translate(528 118.584) rotate(0) scale(0.047999997)">
<use href="#path23" transform="translate(0 0)"/>
</g>
</g>
<g>
<g data-source-text="⁶" fill="#dee4e3" transform="translate(600 118.584) rotate(0) scale(0.047999997)">
<use href="#path24" transform="translate(0 0)"/>
</g>
</g>
<g>
<g data-source-text="⁷" fill="#dee4e3" transform="translate(672 118.584) rotate(0) scale(0.047999997)">
<use href="#path25" transform="translate(0 0)"/>
</g>
</g>
<g>
<g data-source-text="⁸" fill="#dee4e3" transform="translate(744 118.584) rotate(0) scale(0.047999997)">
<use href="#path26" transform="translate(0 0)"/>
</g>
</g>
<g>
<g data-source-text="⁹" fill="#dee4e3" transform="translate(816 118.584) rotate(0) scale(0.047999997)">
<use href="#path27" transform="translate(0 0)"/>
</g>
</g>
<g>
<g data-source-text="⁺" fill="#dee4e3" transform="translate(888 118.584) rotate(0) scale(0.047999997)">
<use href="#path28" transform="translate(0 0)"/>
</g>
</g>
<g>
<g data-source-text="⁻" fill="#dee4e3" transform="translate(960 118.584) rotate(0) scale(0.047999997)">
<use href="#path29" transform="translate(0 0)"/>
</g>
</g>
<g>
<g data-source-text="⁼" fill="#dee4e3" transform="translate(1032 118.584) rotate(0) scale(0.047999997)">
<use href="#path30" transform="translate(0 0)"/>
</g>
</g>
<g>
<g data-source-text="⁽" fill="#dee4e3" transform="translate(1104 118.584) rotate(0) scale(0.047999997)">
<use href="#path31" transform="translate(0 0)"/>
</g>
</g>
<g>
<g data-source-text="⁾" fill="#dee4e3" transform="translate(1176 118.584) rotate(0) scale(0.047999997)">
<use href="#path32" transform="translate(0 0)"/>
</g>
</g>
<g>
<g data-source-text="ⁿ" fill="#dee4e3" transform="translate(1248 118.584) rotate(0) scale(0.047999997)">
<use href="#path33" transform="translate(0 0)"/>
</g>
</g>
<g>
<g data-source-text="U+2080" fill="#dee4e3" transform="translate(36 185.292) rotate(0) scale(0.023999998)">
<use href="#path17" transform="translate(0 0)"/>
<use href="#path18" transform="translate(500 0)"/>
<use href="#path3" transform="translate(1000 0)"/>
<use href="#path1" transform="translate(1500 0)"/>
<use href="#path9" transform="translate(2000 0)"/>
<use href="#path1" transform="translate(2500 0)"/>
</g>
</g>
<g>
<g data-source-text="₀" fill="#dee4e3" transform="translate(168 190.584) rotate(0) scale(0.047999997)">
<use href="#path34" transform="translate(0 0)"/>
</g>
</g>
<g>
<g data-source-text="₁" fill="#dee4e3" transform="translate(240 190.584) rotate(0) scale(0.047999997)">
<use href="#path35" transform="translate(0 0)"/>
</g>
</g>
<g>
<g data-source-text="₂" fill="#dee4e3" transform="translate(312 190.584) rotate(0) scale(0.047999997)">
<use href="#path36" transform="translate(0 0)"/>
</g>
</g>
<g>
<g data-source-text="₃" fill="#dee4e3" transform="translate(384 190.584) rotate(0) scale(0.047999997)">
<use href="#path37" transform="translate(0 0)"/>
</g>
</g>
<g>
<g data-source-text="₄" fill="#dee4e3" transform="translate(456 190.584) rotate(0) scale(0.047999997)">
<use href="#path38" transform="translate(0 0)"/>
</g>
</g>
<g>
<g data-source-text="₅" fill="#dee4e3" transform="translate(528 190.584) rotate(0) scale(0.047999997)">
<use href="#path39" transform="translate(0 0)"/>
</g>
</g>
<g>
<g data-source-text="₆" fill="#dee4e3" transform="translate(600 190.584) rotate(0) scale(0.047999997)">
<use href="#path40" transform="translate(0 0)"/>
</g>
</g>
<g>
<g data-source-text="₇" fill="#dee4e3" transform="translate(672 190.584) rotate(0) scale(0.047999997)">
<use href="#path41" transform="translate(0 0)"/>
</g>
</g>
<g>
<g data-source-text="₈" fill="#dee4e3" transform="translate(744 190.584) rotate(0) scale(0.047999997)">
<use href="#path42" transform="translate(0 0)"/>
</g>
</g>
<g>
<g data-source-text="₉" fill="#dee4e3" transform="translate(816 190.584) rotate(0) scale(0.047999997)">
<use href="#path43" transform="translate(0 0)"/>
</g>
</g>
<g>
<g data-source-text="₊" fill="#dee4e3" transform="translate(888 190.584) rotate(0) scale(0.047999997)">
<use href="#path44" transform="translate(0 0)"/>
</g>
</g>
<g>
<g data-source-text="₋" fill="#dee4e3" transform="translate(960 190.584) rotate(0) scale(0.047999997)">
<use href="#path45" transform="translate(0 0)"/>
</g>
</g>
<g>
<g data-source-text="₌" fill="#dee4e3" transform="translate(1032 190.584) rotate(0) scale(0.047999997)">
<use href="#path46" transform="translate(0 0)"/>
</g>
</g>
<g>
<g data-source-text="₍" fill="#dee4e3" transform="translate(1104 190.584) rotate(0) scale(0.047999997)">
<use href="#path47" transform="translate(0 0)"/>
</g>
</g>
<g>
<g data-source-text="₎" fill="#dee4e3" transform="translate(1176 190.584) rotate(0) scale(0.047999997)">
<use href="#path48" transform="translate(0 0)"/>
</g>
</g>
<g>
<g data-source-text="" fill="#dee4e340" transform="translate(1248 190.584) rotate(0) scale(0.047999997)">
<use href="#path21" transform="translate(0 0)"/>
</g>
</g>
<g>
<g data-source-text="U+2090" fill="#dee4e3" transform="translate(36 257.292) rotate(0) scale(0.023999998)">
<use href="#path17" transform="translate(0 0)"/>
<use href="#path18" transform="translate(500 0)"/>
<use href="#path3" transform="translate(1000 0)"/>
<use href="#path1" transform="translate(1500 0)"/>
<use href="#path10" transform="translate(2000 0)"/>
<use href="#path1" transform="translate(2500 0)"/>
</g>
</g>
<g>
<g data-source-text="ₐ" fill="#dee4e3" transform="translate(168 262.584) rotate(0) scale(0.047999997)">
<use href="#path49" transform="translate(0 0)"/>
</g>
</g>
<g>
<g data-source-text="ₑ" fill="#dee4e3" transform="translate(240 262.584) rotate(0) scale(0.047999997)">
<use href="#path50" transform="translate(0 0)"/>
</g>
</g>
<g>
<g data-source-text="ₒ" fill="#dee4e3" transform="translate(312 262.584) rotate(0) scale(0.047999997)">
<use href="#path51" transform="translate(0 0)"/>
</g>
</g>
<g>
<g data-source-text="ₓ" fill="#dee4e3" transform="translate(384 262.584) rotate(0) scale(0.047999997)">
<use href="#path52" transform="translate(0 0)"/>
</g>
</g>
<g>
<g data-source-text="ₔ" fill="#dee4e3" transform="translate(456 262.584) rotate(0) scale(0.047999997)">
<use href="#path53" transform="translate(0 0)"/>
</g>
</g>
<g>
<g data-source-text="ₕ" fill="#dee4e3" transform="translate(528 262.584) rotate(0) scale(0.047999997)">
<use href="#path54" transform="translate(0 0)"/>
</g>
</g>
<g>
<g data-source-text="ₖ" fill="#dee4e3" transform="translate(600 262.584) rotate(0) scale(0.047999997)">
<use href="#path55" transform="translate(0 0)"/>
</g>
</g>
<g>
<g data-source-text="ₗ" fill="#dee4e3" transform="translate(672 262.584) rotate(0) scale(0.047999997)">
<use href="#path56" transform="translate(0 0)"/>
</g>
</g>
<g>
<g data-source-text="ₘ" fill="#dee4e3" transform="translate(744 262.584) rotate(0) scale(0.047999997)">
<use href="#path57" transform="translate(0 0)"/>
</g>
</g>
<g>
<g data-source-text="ₙ" fill="#dee4e3" transform="translate(816 262.584) rotate(0) scale(0.047999997)">
<use href="#path58" transform="translate(0 0)"/>
</g>
</g>
<g>
<g data-source-text="ₚ" fill="#dee4e3" transform="translate(888 262.584) rotate(0) scale(0.047999997)">
<use href="#path59" transform="translate(0 0)"/>
</g>
</g>
<g>
<g data-source-text="ₛ" fill="#dee4e3" transform="translate(960 262.584) rotate(0) scale(0.047999997)">
<use href="#path60" transform="translate(0 0)"/>
</g>
</g>
<g>
<g data-source-text="ₜ" fill="#dee4e3" transform="translate(1032 262.584) rotate(0) scale(0.047999997)">
<use href="#path61" transform="translate(0 0)"/>
</g>
</g>
<g>
<g data-source-text="" fill="#dee4e340" transform="translate(1104 262.584) rotate(0) scale(0.047999997)">
<use href="#path21" transform="translate(0 0)"/>
</g>
</g>
<g>
<g data-source-text="" fill="#dee4e340" transform="translate(1176 262.584) rotate(0) scale(0.047999997)">
<use href="#path21" transform="translate(0 0)"/>
</g>
</g>
<g>
<g data-source-text="" fill="#dee4e340" transform="translate(1248 262.584) rotate(0) scale(0.047999997)">
<use href="#path21" transform="translate(0 0)"/>
</g>
</g>
</svg>