<?xml version="1.0" encoding="UTF-8" standalone="no"?>
<svg height="936" viewBox="0 0 1296 936" width="1296" xmlns="http://www.w3.org/2000/svg">
<defs>
<path d="M 250 8 Q 223 8 196 3 Q 169 -2 145 -15 Q 121 -28 102.5 -48.5 Q 84 -69 72.5 -94 Q 61 -119 56.5 -146 Q 52 -173 52 -200 L 52 -535 Q 52 -562 56.5 -589 Q 61 -616 72.5 -641 Q 84 -666 102.5 -686.5 Q 121 -707 145 -720 Q 169 -733 196 -738 Q 223 -743 250 -743 Q 277 -743 304 -738 Q 331 -733 355 -720 Q 379 -707 397.5 -686.5 Q 416 -666 427.5 -641 Q 439 -616 443.5 -589 Q 448 -562 448 -535 L 448 -200 Q 448 -173 443.5 -146 Q 439 -119 427.5 -94 Q 416 -69 397.5 -48.5 Q 379 -28 355 -15 Q 331 -2 304 3 Q 277 8 250 8 Z M 152 -337 L 348 -492 L 348 -535 Q 348 -557 343 -579 Q 338 -601 325.5 -618.5 Q 313 -636 292.5 -645.5 Q 272 -655 250 -655 Q 228 -655 207.5 -645.5 Q 187 -636 174.5 -618.5 Q 162 -601 157 -579 Q 152 -557 152 -535 Z M 250 -80 Q 272 -80 292.5 -89.5 Q 313 -99 325.5 -116.5 Q 338 -134 343 -156 Q 348 -178 348 -200 L 348 -398 L 152 -243 L 152 -200 Q 152 -178 157 -156 Q 162 -134 174.5 -116.5 Q 187 -99 207.5 -89.5 Q 228 -80 250 -80 Z " id="path1"/>
<path d="M 230 0 L 230 -631 L 110 -528 L 55 -584 L 230 -735 L 330 -735 L 330 0 Z " id="path2"/>
<path d="M 60 0 L 60 -1 Q 60 -27 61 -54 Q 62 -81 65.5 -107 Q 69 -133 77 -158.5 Q 85 -184 96.5 -208 Q 108 -232 123 -253.5 Q 138 -275 156 -294.5 Q 174 -314 194 -331 Q 214 -348 235.5 -364 Q 257 -380 277.5 -397 Q 298 -414 313 -435.5 Q 328 -457 336 -483 Q 344 -509 344 -535 Q 344 -557 339.5 -578 Q 335 -599 323.5 -617 Q 312 -635 292 -645 Q 272 -655 251 -655 Q 231 -655 212.5 -647.5 Q 194 -640 181.5 -625 Q 169 -610 163.5 -591 Q 158 -572 158 -552 L 158 -548 L 58 -548 L 58 -555 Q 58 -581 63.5 -606 Q 69 -631 81 -653 Q 93 -675 111.5 -693 Q 130 -711 152.5 -722.5 Q 175 -734 200.5 -738.5 Q 226 -743 251 -743 Q 278 -743 304.5 -737.5 Q 331 -732 354.5 -719 Q 378 -706 396 -685.5 Q 414 -665 425 -640.5 Q 436 -616 440 -589 Q 444 -562 444 -535 Q 444 -501 435 -468 Q 426 -435 407.5 -406 Q 389 -377 364 -353.5 Q 339 -330 312.5 -308.5 Q 286 -287 261 -264 Q 236 -241 216 -213 Q 196 -185 183 -153.5 Q 170 -122 165 -88 L 440 -88 L 440 0 Z " id="path3"/>
<path d="M 253 8 Q 227 8 201 4 Q 175 -0 151 -11.5 Q 127 -23 107.5 -40.5 Q 88 -58 75.5 -81 Q 63 -104 56.5 -129.5 Q 50 -155 50 -181 L 50 -187 L 150 -187 L 150 -184 Q 150 -163 157 -143 Q 164 -123 178 -108 Q 192 -93 212 -86.5 Q 232 -80 253 -80 Q 275 -80 296 -88.5 Q 317 -97 330.5 -114.5 Q 344 -132 350 -154 Q 356 -176 356 -198 Q 356 -217 352 -235.5 Q 348 -254 339 -271 Q 330 -288 316.5 -301 Q 303 -314 286 -322 Q 269 -330 250 -332 Q 231 -334 212 -334 L 212 -422 Q 229 -422 246 -424 Q 263 -426 278.5 -433 Q 294 -440 306 -452.5 Q 318 -465 325.5 -480.5 Q 333 -496 336.5 -513 Q 340 -530 340 -547 Q 340 -566 335.5 -585.5 Q 331 -605 320 -621.5 Q 309 -638 291 -646.5 Q 273 -655 253 -655 Q 234 -655 216 -647 Q 198 -639 187 -624 Q 176 -609 171 -590 Q 166 -571 166 -553 L 166 -548 L 66 -548 L 66 -556 Q 66 -581 71.5 -605.5 Q 77 -630 88 -652 Q 99 -674 116.5 -692.5 Q 134 -711 156.5 -722.5 Q 179 -734 203.5 -738.5 Q 228 -743 253 -743 Q 278 -743 303.5 -738 Q 329 -733 351 -721 Q 373 -709 390.5 -690 Q 408 -671 419 -648 Q 430 -625 435 -600 Q 440 -575 440 -550 Q 440 -524 434 -498.5 Q 428 -473 416 -450.5 Q 404 -428 385 -409.5 Q 366 -391 343 -379 Q 370 -368 391.5 -348.5 Q 413 -329 427.5 -304.5 Q 442 -280 449 -252 Q 456 -224 456 -196 Q 456 -168 450 -141.5 Q 444 -115 432 -91 Q 420 -67 401 -47 Q 382 -27 358 -14.5 Q 334 -2 307 3 Q 280 8 253 8 Z " id="path4"/>
<path d="M 282 0 L 282 -188 L 52 -188 L 52 -275 L 276 -735 L 385 -735 L 161 -275 L 282 -275 L 282 -435 L 383 -435 L 383 -275 L 440 -275 L 440 -188 L 383 -188 L 383 0 Z " id="path5"/>
<path d="M 252 8 Q 227 8 202.5 3.5 Q 178 -1 155.5 -12 Q 133 -23 114.5 -41 Q 96 -59 84 -80.5 Q 72 -102 65.5 -126.5 Q 59 -151 58 -176 L 159 -176 Q 160 -158 166.5 -139.5 Q 173 -121 185.5 -107 Q 198 -93 216 -86.5 Q 234 -80 252 -80 Q 269 -80 285 -87 Q 301 -94 312.5 -107 Q 324 -120 330.5 -135.5 Q 337 -151 341 -167.5 Q 345 -184 346.5 -201 Q 348 -218 348 -235 Q 348 -252 346.5 -269 Q 345 -286 341.5 -302.5 Q 338 -319 331.5 -334.5 Q 325 -350 314.5 -363 Q 304 -376 288 -383.5 Q 272 -391 256 -391 Q 240 -391 224 -387 Q 208 -383 195.5 -373.5 Q 183 -364 176 -349.5 Q 169 -335 168 -319 L 68 -319 L 68 -735 L 421 -735 L 421 -647 L 168 -647 L 168 -464 Q 189 -472 211 -475 Q 233 -478 256 -478 Q 285 -478 313.5 -470.5 Q 342 -463 365.5 -445.5 Q 389 -428 405.5 -403 Q 422 -378 431.5 -350.5 Q 441 -323 444.5 -294 Q 448 -265 448 -235 Q 448 -206 444.5 -176.5 Q 441 -147 431 -119 Q 421 -91 404.5 -66.5 Q 388 -42 364 -24.5 Q 340 -7 311 0.5 Q 282 8 252 8 Z " id="path6"/>
<path d="M 250 8 Q 221 8 192.5 1.5 Q 164 -5 140 -21 Q 116 -37 98.5 -60.5 Q 81 -84 70.5 -111 Q 60 -138 56 -166.5 Q 52 -195 52 -224 Q 52 -268 59.5 -311 Q 67 -354 81 -395.5 Q 95 -437 113 -477 Q 131 -517 150 -556 L 238 -735 L 347 -735 L 240 -517 Q 228 -493 216.5 -468.5 Q 205 -444 195 -419 Q 214 -438 239.5 -447 Q 265 -456 291 -456 Q 317 -456 342.5 -447 Q 368 -438 386.5 -419.5 Q 405 -401 417 -377.5 Q 429 -354 436 -328.5 Q 443 -303 445.5 -276.5 Q 448 -250 448 -224 Q 448 -195 444 -166.5 Q 440 -138 429.5 -111 Q 419 -84 401.5 -60.5 Q 384 -37 360 -21 Q 336 -5 307.5 1.5 Q 279 8 250 8 Z M 250 -80 Q 266 -80 282 -85.5 Q 298 -91 309.5 -102.5 Q 321 -114 328.5 -129 Q 336 -144 340.5 -159.5 Q 345 -175 346.5 -191.5 Q 348 -208 348 -224 Q 348 -240 346.5 -256.5 Q 345 -273 340.5 -289 Q 336 -305 328.5 -319.5 Q 321 -334 309.5 -345.5 Q 298 -357 282 -362.5 Q 266 -368 250 -368 Q 235 -368 221 -363.5 Q 207 -359 195.5 -349.5 Q 184 -340 176 -327.5 Q 168 -315 163.5 -301 Q 159 -287 156.5 -272.5 Q 154 -258 153 -243 Q 153 -238 152.5 -233.5 Q 152 -229 152 -224 Q 152 -208 153.5 -191.5 Q 155 -175 159.5 -159.5 Q 164 -144 171.5 -129 Q 179 -114 190.5 -102.5 Q 202 -91 218 -85.5 Q 234 -80 250 -80 Z " id="path7"/>
<path d="M 138 0 L 336 -647 L 60 -647 L 60 -735 L 440 -735 L 440 -647 L 242 0 Z " id="path8"/>
<path d="M 250 8 Q 225 8 200 4 Q 175 -0 152 -10 Q 129 -20 109.5 -37 Q 90 -54 77.5 -75.5 Q 65 -97 58.5 -121.5 Q 52 -146 52 -172 Q 52 -203 61.5 -232.5 Q 71 -262 88 -288.5 Q 105 -315 127 -336.5 Q 149 -358 174 -378 Q 152 -396 132.5 -417 Q 113 -438 98.5 -462.5 Q 84 -487 76 -514.5 Q 68 -542 68 -570 Q 68 -594 73.5 -617.5 Q 79 -641 90.5 -661.5 Q 102 -682 119.5 -698.5 Q 137 -715 158 -725 Q 179 -735 202.5 -739 Q 226 -743 250 -743 Q 274 -743 297.5 -739 Q 321 -735 342 -725 Q 363 -715 380.5 -698.5 Q 398 -682 409.5 -661.5 Q 421 -641 426.5 -617.5 Q 432 -594 432 -570 Q 432 -542 424 -514.5 Q 416 -487 401.5 -462.5 Q 387 -438 367.5 -417 Q 348 -396 326 -378 Q 351 -358 373 -336.5 Q 395 -315 412 -288.5 Q 429 -262 438.5 -232.5 Q 448 -203 448 -172 Q 448 -146 441.5 -121.5 Q 435 -97 422.5 -75.5 Q 410 -54 390.5 -37 Q 371 -20 348 -10 Q 325 -0 300 4 Q 275 8 250 8 Z M 250 -434 Q 266 -447 280.5 -461.5 Q 295 -476 306.5 -493 Q 318 -510 325 -529.5 Q 332 -549 332 -569 Q 332 -586 327 -602.5 Q 322 -619 310.5 -631.5 Q 299 -644 283 -649.5 Q 267 -655 250 -655 Q 233 -655 217 -649.5 Q 201 -644 189.5 -631.5 Q 178 -619 173 -602.5 Q 168 -586 168 -569 Q 168 -549 175 -529.5 Q 182 -510 193.5 -493 Q 205 -476 219.5 -461.5 Q 234 -447 250 -434 Z M 250 -80 Q 269 -80 288 -85.5 Q 307 -91 320.5 -104 Q 334 -117 341 -135.5 Q 348 -154 348 -173 Q 348 -196 339.5 -217.5 Q 331 -239 317 -257.5 Q 303 -276 285.5 -291 Q 268 -306 250 -320 Q 232 -306 214.5 -291 Q 197 -276 183 -257.5 Q 169 -239 160.5 -217.5 Q 152 -196 152 -173 Q 152 -154 159 -135.5 Q 166 -117 179.5 -104 Q 193 -91 212 -85.5 Q 231 -80 250 -80 Z " id="path9"/>
<path d="M 262 0 L 153 0 L 260 -218 Q 272 -242 283.5 -266.5 Q 295 -291 305 -316 Q 286 -297 260.5 -288 Q 235 -279 209 -279 Q 183 -279 157.5 -288 Q 132 -297 113.5 -315.5 Q 95 -334 83 -357.5 Q 71 -381 64 -406.5 Q 57 -432 54.5 -458.5 Q 52 -485 52 -511 Q 52 -540 56 -568.5 Q 60 -597 70.5 -624 Q 81 -651 98.5 -674.5 Q 116 -698 140 -714 Q 164 -730 192.5 -736.5 Q 221 -743 250 -743 Q 279 -743 307.5 -736.5 Q 336 -730 360 -714 Q 384 -698 401.5 -674.5 Q 419 -651 429.5 -624 Q 440 -597 444 -568.5 Q 448 -540 448 -511 Q 448 -467 440.5 -424 Q 433 -381 419 -339.5 Q 405 -298 387 -258 Q 369 -218 350 -179 Z M 250 -367 Q 265 -367 279 -371.5 Q 293 -376 304.5 -385.5 Q 316 -395 324 -407.5 Q 332 -420 336.5 -434 Q 341 -448 343.5 -462.5 Q 346 -477 347 -492 Q 347 -497 347.5 -501.5 Q 348 -506 348 -511 Q 348 -527 346.5 -543.5 Q 345 -560 340.5 -575.5 Q 336 -591 328.5 -606 Q 321 -621 309.5 -632.5 Q 298 -644 282 -649.5 Q 266 -655 250 -655 Q 234 -655 218 -649.5 Q 202 -644 190.5 -632.5 Q 179 -621 171.5 -606 Q 164 -591 159.5 -575.5 Q 155 -560 153.5 -543.5 Q 152 -527 152 -511 Q 152 -495 153.5 -478.5 Q 155 -462 159.5 -446 Q 164 -430 171.5 -415.5 Q 179 -401 190.5 -389.5 Q 202 -378 218 -372.5 Q 234 -367 250 -367 Z " id="path10"/>
<path d="M 39 0 L 53 -70 L 192 -735 L 308 -735 L 461 0 L 359 0 L 326 -172 L 174 -172 L 141 0 Z M 191 -260 L 309 -260 L 266 -490 Q 262 -511 258 -531.5 Q 254 -552 250 -573 Q 246 -552 242 -531.5 Q 238 -511 234 -490 Z " id="path11"/>
<path d="M 60 0 L 60 -735 L 235 -735 Q 261 -735 287 -730.5 Q 313 -726 336.5 -714 Q 360 -702 378.5 -682.5 Q 397 -663 408.5 -639.5 Q 420 -616 424.5 -590 Q 429 -564 429 -538 Q 429 -515 425.5 -492 Q 422 -469 411.5 -448.5 Q 401 -428 384.5 -411 Q 368 -394 348 -383 Q 373 -373 394.5 -355.5 Q 416 -338 430.5 -314.5 Q 445 -291 450.5 -264 Q 456 -237 456 -210 Q 456 -181 450.5 -152.5 Q 445 -124 431 -98.5 Q 417 -73 395.5 -53.5 Q 374 -34 347.5 -21.5 Q 321 -9 292.5 -4.5 Q 264 -0 235 0 Z M 160 -424 L 235 -424 Q 256 -424 275.5 -432.5 Q 295 -441 307.5 -457.5 Q 320 -474 324.5 -494.5 Q 329 -515 329 -536 Q 329 -557 324.5 -577.5 Q 320 -598 307.5 -614.5 Q 295 -631 275.5 -639 Q 256 -647 235 -647 L 160 -647 Z M 160 -88 L 235 -88 Q 251 -88 267.5 -91 Q 284 -94 298.5 -101.5 Q 313 -109 324.5 -121 Q 336 -133 343 -148 Q 350 -163 353 -179 Q 356 -195 356 -212 Q 356 -228 353 -244.5 Q 350 -261 343 -276 Q 336 -291 324.5 -303 Q 313 -315 298.5 -322.5 Q 284 -330 267.5 -333 Q 251 -336 235 -336 L 160 -336 Z " id="path12"/>
<path d="M 247 8 Q 220 8 193 3 Q 166 -2 142.5 -15.5 Q 119 -29 101 -49.5 Q 83 -70 71.5 -94.5 Q 60 -119 56 -146 Q 52 -173 52 -200 L 52 -535 Q 52 -562 56 -589 Q 60 -616 71.5 -640.5 Q 83 -665 101 -685.5 Q 119 -706 142.5 -719.5 Q 166 -733 193 -738 Q 220 -743 247 -743 Q 273 -743 298 -738.5 Q 323 -734 346 -723 Q 369 -712 387.5 -694 Q 406 -676 418 -653.5 Q 430 -631 436 -606 Q 442 -581 442 -555 L 442 -548 L 342 -548 L 342 -552 Q 342 -572 336 -591.5 Q 330 -611 317.5 -626 Q 305 -641 286 -648 Q 267 -655 247 -655 Q 225 -655 205 -645.5 Q 185 -636 173 -618 Q 161 -600 156.5 -578.5 Q 152 -557 152 -535 L 152 -200 Q 152 -178 156.5 -156.5 Q 161 -135 173 -117 Q 185 -99 205 -89.5 Q 225 -80 247 -80 Q 267 -80 286 -87 Q 305 -94 317.5 -109 Q 330 -124 336 -143.5 Q 342 -163 342 -183 L 342 -187 L 442 -187 L 442 -180 Q 442 -154 436 -129 Q 430 -104 418 -81.5 Q 406 -59 387.5 -41 Q 369 -23 346 -12 Q 323 -1 298 3.5 Q 273 8 247 8 Z " id="path13"/>
<path d="M 60 0 L 60 -735 L 220 -735 Q 250 -735 280 -730 Q 310 -725 337 -712 Q 364 -699 386.5 -678.5 Q 409 -658 423 -631.5 Q 437 -605 442.5 -575 Q 448 -545 448 -515 L 448 -220 Q 448 -190 442.5 -160 Q 437 -130 423 -103.5 Q 409 -77 386.5 -56.5 Q 364 -36 337 -23 Q 310 -10 280 -5 Q 250 -0 220 0 Z M 160 -88 L 220 -88 Q 237 -88 254.5 -91 Q 272 -94 287.5 -102.5 Q 303 -111 315 -124 Q 327 -137 334.5 -152.5 Q 342 -168 345 -185.5 Q 348 -203 348 -220 L 348 -515 Q 348 -532 345 -549.5 Q 342 -567 334.5 -582.5 Q 327 -598 315 -611 Q 303 -624 287.5 -632.5 Q 272 -641 254.5 -644 Q 237 -647 220 -647 L 160 -647 Z " id="path14"/>
<path d="M 68 0 L 68 -735 L 440 -735 L 440 -647 L 168 -647 L 168 -426 L 383 -426 L 383 -338 L 168 -338 L 168 -88 L 440 -88 L 440 0 Z " id="path15"/>
<path d="M 90 0 L 90 -735 L 440 -735 L 440 -647 L 190 -647 L 190 -426 L 383 -426 L 383 -338 L 190 -338 L 190 0 Z " id="path16"/>
<path d="M 250 8 Q 223 8 196.5 2.5 Q 170 -3 147 -16.5 Q 124 -30 106.5 -50.5 Q 89 -71 78.5 -95.5 Q 68 -120 64 -146.5 Q 60 -173 60 -200 L 60 -735 L 160 -735 L 160 -200 Q 160 -186 161.5 -172 Q 163 -158 167.5 -144.5 Q 172 -131 179.5 -118.5 Q 187 -106 197.5 -97 Q 208 -88 222 -84 Q 236 -80 250 -80 Q 264 -80 278 -84 Q 292 -88 302.5 -97 Q 313 -106 320.5 -118.5 Q 328 -131 332.5 -144.5 Q 337 -158 338.5 -172 Q 340 -186 340 -200 L 340 -735 L 440 -735 L 440 -200 Q 440 -173 436 -146.5 Q 432 -120 421.5 -95.5 Q 411 -71 393.5 -50.5 Q 376 -30 353 -16.5 Q 330 -3 303.5 2.5 Q 277 8 250 8 Z " id="path17"/>
<path d="M 300 -142 L 200 -142 L 200 -296 L 60 -296 L 60 -384 L 200 -384 L 200 -538 L 300 -538 L 300 -384 L 440 -384 L 440 -296 L 300 -296 Z " id="path18"/>
<path d="M 64 0 L 64 -735 L 436 -735 L 436 0 Z M 94 -321 L 401 -705 L 307 -705 L 94 -438 Z M 94 -477 L 276 -705 L 182 -705 L 94 -595 Z M 94 -634 L 151 -705 L 94 -705 Z M 94 -165 L 406 -554 L 406 -671 L 94 -282 Z M 94 -30 L 112 -30 L 406 -398 L 406 -515 L 94 -126 Z M 143 -30 L 237 -30 L 406 -242 L 406 -359 Z M 362 -30 L 406 -85 L 406 -203 L 268 -30 Z M 393 -30 L 406 -30 L 406 -46 Z " id="path19"/>
<path d="M 416 -74 Q 372 -147 315 -209 Q 258 -271 190 -321 L 220 -358 Q 284 -308 339 -248.5 Q 394 -189 438 -122 Q 501 -253 587 -372 Q 673 -491 778 -593 L 813 -560 Q 704 -456 616.5 -333.5 Q 529 -211 466 -74 Z " id="path20"/>
<path d="M 544 -74 L 338 -74 Q 301 -150 249 -218 Q 197 -286 134 -342 L 276 -476 Q 322 -429 362.5 -378 Q 403 -327 439 -273 Q 498 -374 569.5 -467 Q 641 -560 724 -643 L 866 -509 Q 766 -418 684 -307.5 Q 602 -197 544 -74 Z " id="path21"/>
<path d="M 223 -29 L 187 -61 L 466 -340 L 187 -619 L 223 -651 L 500 -374 L 777 -651 L 813 -619 L 534 -340 L 813 -61 L 777 -29 L 500 -306 Z " id="path22"/>
<path d="M 277 21 L 132 -110 L 362 -340 L 132 -570 L 277 -701 L 500 -478 L 723 -701 L 868 -570 L 638 -340 L 868 -110 L 723 21 L 500 -202 Z " id="path23"/>
<path d="M 195 -16 L 155 -44 Q 219 -127 289 -204.5 Q 359 -282 434 -355 Q 371 -413 309 -473.5 Q 247 -534 187 -596 L 223 -627 Q 283 -566 344.5 -506 Q 406 -446 469 -388 Q 549 -462 634.5 -530.5 Q 720 -599 810 -660 L 839 -622 Q 750 -562 666.5 -495 Q 583 -428 504 -355 Q 579 -287 655.5 -221.5 Q 732 -156 811 -92 L 779 -57 Q 700 -121 622.5 -187.5 Q 545 -254 469 -322 Q 395 -251 326.5 -174.5 Q 258 -98 195 -16 Z " id="path24"/>
<path d="M 257 26 L 94 -87 Q 148 -157 206.5 -224 Q 265 -291 328 -354 Q 278 -401 228.5 -449.5 Q 179 -498 131 -547 L 278 -676 Q 325 -628 373 -581 Q 421 -534 470 -488 Q 540 -550 614.5 -607.5 Q 689 -665 767 -718 L 882 -564 Q 812 -517 744.5 -464.5 Q 677 -412 613 -356 Q 674 -302 735.5 -249.5 Q 797 -197 860 -146 L 731 -2 Q 665 -55 600 -110 Q 535 -165 472 -221 Q 414 -163 360.5 -101 Q 307 -39 257 26 Z " id="path25"/>
<path d="M 397 -19 L 397 -247 L 179 -247 L 179 -433 L 397 -433 L 397 -661 L 603 -661 L 603 -433 L 821 -433 L 821 -247 L 603 -247 L 603 -19 Z " id="path26"/>
<path d="M 457 62 L 457 -435 L 232 -435 L 232 -513 L 457 -513 L 457 -742 L 543 -742 L 543 -513 L 768 -513 L 768 -435 L 543 -435 L 543 62 Z " id="path27"/>
<path d="M 500 88 L 370 -126 L 110 -126 L 240 -340 L 110 -554 L 370 -554 L 500 -768 L 630 -554 L 890 -554 L 760 -340 L 890 -126 L 630 -126 Z M 559 -554 L 500 -651 L 441 -554 Z M 724 -399 L 782 -493 L 667 -493 Z M 596 -187 L 689 -340 L 596 -493 L 404 -493 L 311 -340 L 404 -187 Z M 276 -399 L 333 -493 L 218 -493 Z M 667 -187 L 782 -187 L 780 -189 L 724 -281 Z M 218 -187 L 333 -187 L 276 -281 Z M 500 -29 L 559 -126 L 441 -126 Z " id="path28"/>
<path d="M 500 13 Q 479 -48 444 -103 Q 409 -158 363.5 -203.5 Q 318 -249 263 -284 Q 208 -319 147 -340 Q 208 -361 263 -396 Q 318 -431 363.5 -476.5 Q 409 -522 444 -577 Q 479 -632 500 -693 Q 521 -632 556 -577 Q 591 -522 636.5 -476.5 Q 682 -431 737 -396 Q 792 -361 853 -340 Q 792 -319 737 -284 Q 682 -249 636.5 -203.5 Q 591 -158 556 -103 Q 521 -48 500 13 Z " id="path29"/>
<path d="M 500 13 Q 479 -48 444 -103 Q 409 -158 363.5 -203.5 Q 318 -249 263 -284 Q 208 -319 147 -340 Q 208 -361 263 -396 Q 318 -431 363.5 -476.5 Q 409 -522 444 -577 Q 479 -632 500 -693 Q 521 -632 556 -577 Q 591 -522 636.5 -476.5 Q 682 -431 737 -396 Q 792 -361 853 -340 Q 792 -319 737 -284 Q 682 -249 636.5 -203.5 Q 591 -158 556 -103 Q 521 -48 500 13 Z M 500 -159 Q 511 -190 528.5 -218.5 Q 546 -247 569.5 -270.5 Q 593 -294 621.5 -311.5 Q 650 -329 681 -340 Q 650 -351 621.5 -368.5 Q 593 -386 569.5 -409.5 Q 546 -433 528.5 -461.5 Q 511 -490 500 -521 Q 489 -490 471.5 -461.5 Q 454 -433 430.5 -409.5 Q 407 -386 378.5 -368.5 Q 350 -351 319 -340 Q 350 -329 378.5 -311.5 Q 407 -294 430.5 -270.5 Q 454 -247 471.5 -218.5 Q 489 -190 500 -159 Z " id="path30"/>
<path d="M 397 -19 L 402 -179 L 273 -99 L 170 -259 L 320 -340 L 170 -421 L 273 -581 L 402 -501 L 397 -661 L 603 -661 L 598 -501 L 727 -581 L 830 -421 L 680 -340 L 830 -259 L 727 -99 L 598 -179 L 603 -19 Z " id="path31"/>
<path d="M 466 -19 L 473 -277 L 297 -91 L 249 -134 L 440 -316 L 179 -310 L 179 -370 L 440 -364 L 249 -546 L 297 -589 L 473 -403 L 466 -661 L 534 -661 L 527 -403 L 703 -589 L 751 -546 L 560 -364 L 821 -370 L 821 -310 L 560 -316 L 751 -134 L 703 -91 L 527 -277 L 534 -19 Z " id="path32"/>
<path d="M 500 29 L 465 -255 L 239 -79 L 415 -305 L 131 -340 L 415 -375 L 239 -601 L 465 -425 L 500 -709 L 535 -425 L 761 -601 L 585 -375 L 869 -340 L 585 -305 L 761 -79 L 535 -255 Z " id="path33"/>
<path d="M 500 -3 L 433 -223 L 208 -171 L 365 -340 L 208 -509 L 433 -457 L 500 -677 L 567 -457 L 792 -509 L 635 -340 L 792 -171 L 567 -223 Z " id="path34"/>
<path d="M 371 -28 L 405 -245 L 188 -211 L 365 -340 L 188 -469 L 405 -435 L 371 -652 L 500 -475 L 629 -652 L 595 -435 L 812 -469 L 635 -340 L 812 -211 L 595 -245 L 629 -28 L 500 -205 Z " id="path35"/>
<path d="M 371 -28 L 381 -221 L 188 -211 L 331 -340 L 188 -469 L 381 -459 L 371 -652 L 500 -509 L 629 -652 L 619 -459 L 812 -469 L 669 -340 L 812 -211 L 619 -221 L 629 -28 L 500 -171 Z " id="path36"/>
<path d="M 500 -3 L 456 -177 L 331 -48 L 381 -221 L 208 -171 L 337 -296 L 163 -340 L 337 -384 L 208 -509 L 381 -459 L 331 -632 L 456 -503 L 500 -677 L 544 -503 L 669 -632 L 619 -459 L 792 -509 L 663 -384 L 837 -340 L 663 -296 L 792 -171 L 619 -221 L 669 -48 L 544 -177 Z " id="path37"/>
<path d="M 471 -19 L 475 -216 L 404 -33 L 350 -53 L 431 -238 L 294 -94 L 252 -132 L 401 -275 L 214 -193 L 192 -242 L 388 -318 L 179 -313 L 179 -367 L 388 -362 L 192 -438 L 214 -487 L 401 -405 L 252 -548 L 294 -586 L 431 -442 L 350 -627 L 404 -647 L 475 -464 L 471 -661 L 529 -661 L 525 -464 L 596 -647 L 650 -627 L 569 -442 L 706 -586 L 748 -548 L 599 -405 L 786 -487 L 808 -438 L 612 -362 L 821 -367 L 821 -313 L 612 -318 L 808 -242 L 786 -193 L 599 -275 L 748 -132 L 706 -94 L 569 -238 L 650 -53 L 596 -33 L 525 -216 L 529 -19 Z " id="path38"/>
<path d="M 289 9 L 143 -121 L 362 -340 L 143 -559 L 289 -689 L 500 -478 L 711 -689 L 857 -559 L 638 -340 L 857 -121 L 711 9 L 500 -202 Z " id="path39"/>
<path d="M 500 -388 L 363 -525 L 500 -661 L 637 -525 Z M 315 -203 L 179 -340 L 315 -477 L 452 -340 Z M 685 -203 L 548 -340 L 685 -477 L 821 -340 Z M 500 -19 L 363 -155 L 500 -292 L 637 -155 Z " id="path40"/>
<path d="M 475 -19 L 475 -661 L 525 -661 L 525 -19 Z " id="path41"/>
<path d="M 457 -19 L 457 -661 L 543 -661 L 543 -19 Z " id="path42"/>
<path d="M 397 -19 L 397 -661 L 603 -661 L 603 -19 Z " id="path43"/>
<path d="M 500 -19 Q 473 -44 446.5 -70 Q 420 -96 395 -122.5 Q 370 -149 345.5 -177 Q 321 -205 297.5 -233.5 Q 274 -262 253 -292 Q 232 -322 214 -354.5 Q 196 -387 183.5 -422 Q 171 -457 171 -494 Q 171 -526 183 -556.5 Q 195 -587 219.5 -608 Q 244 -629 275.5 -637 Q 307 -645 339 -645 Q 368 -645 397.5 -637.5 Q 427 -630 450 -611 Q 473 -592 485.5 -563.5 Q 498 -535 500 -506 Q 502 -535 514.5 -563.5 Q 527 -592 550 -611 Q 573 -630 602.5 -637.5 Q 632 -645 661 -645 Q 693 -645 724.5 -637 Q 756 -629 780.5 -608 Q 805 -587 817 -556.5 Q 829 -526 829 -494 Q 829 -457 816.5 -422 Q 804 -387 786 -354.5 Q 768 -322 747 -292 Q 726 -262 702.5 -233.5 Q 679 -205 654.5 -177 Q 630 -149 605 -122.5 Q 580 -96 553.5 -70 Q 527 -44 500 -19 Z " id="path44"/>
<path d="M 448 69 L 374 69 L 52 -340 L 374 -749 L 448 -749 L 126 -340 Z " id="path45"/>
<path d="M 52 69 L 374 -340 L 52 -749 L 126 -749 L 448 -340 L 126 69 Z " id="path46"/>
<path d="M 460 69 L 314 69 L 40 -340 L 314 -749 L 460 -749 L 186 -340 Z " id="path47"/>
<path d="M 186 69 L 40 69 L 314 -340 L 40 -749 L 186 -749 L 460 -340 Z " id="path48"/>
<path d="M 471 69 L 262 69 L 29 -340 L 262 -749 L 471 -749 L 238 -340 Z " id="path49"/>
<path d="M 238 69 L 29 69 L 262 -340 L 29 -749 L 238 -749 L 471 -340 Z " id="path50"/>
<path d="M 500 87 Q 443 87 386 77 Q 329 67 278 41.5 Q 227 16 185.5 -25.5 Q 144 -67 118.5 -118 Q 93 -169 83 -226 Q 73 -283 73 -340 Q 73 -397 83 -454 Q 93 -511 118.5 -562 Q 144 -613 185.5 -654.5 Q 227 -696 278 -721.5 Q 329 -747 386 -757 Q 443 -767 500 -767 Q 557 -767 614 -757 Q 671 -747 722 -721.5 Q 773 -696 814.5 -654.5 Q 856 -613 881.5 -562 Q 907 -511 917 -454 Q 927 -397 927 -340 Q 927 -283 917 -226 Q 907 -169 881.5 -118 Q 856 -67 814.5 -25.5 Q 773 16 722 41.5 Q 671 67 614 77 Q 557 87 500 87 Z M 487 -120 L 549 -120 L 549 -561 L 487 -561 L 383 -472 L 415 -438 L 487 -498 Z " id="path51"/>
<path d="M 500 87 Q 443 87 386 77 Q 329 67 278 41.5 Q 227 16 185.5 -25.5 Q 144 -67 118.5 -118 Q 93 -169 83 -226 Q 73 -283 73 -340 Q 73 -397 83 -454 Q 93 -511 118.5 -562 Q 144 -613 185.5 -654.5 Q 227 -696 278 -721.5 Q 329 -747 386 -757 Q 443 -767 500 -767 Q 557 -767 614 -757 Q 671 -747 722 -721.5 Q 773 -696 814.5 -654.5 Q 856 -613 881.5 -562 Q 907 -511 917 -454 Q 927 -397 927 -340 Q 927 -283 917 -226 Q 907 -169 881.5 -118 Q 856 -67 814.5 -25.5 Q 773 16 722 41.5 Q 671 67 614 77 Q 557 87 500 87 Z M 388 -120 L 612 -120 L 612 -176 L 454 -176 Q 457 -195 465 -213.5 Q 473 -232 484.5 -248.5 Q 496 -265 510.5 -278.5 Q 525 -292 540 -305 Q 555 -318 569 -332 Q 583 -346 593.5 -363.5 Q 604 -381 609 -400.5 Q 614 -420 614 -439 Q 614 -464 608 -487.5 Q 602 -511 586.5 -529.5 Q 571 -548 548 -556.5 Q 525 -565 501 -565 Q 478 -565 456.5 -558.5 Q 435 -552 419 -536.5 Q 403 -521 395 -499.5 Q 387 -478 387 -455 L 387 -452 L 449 -452 L 449 -454 Q 449 -465 452.5 -475 Q 456 -485 462.5 -493.5 Q 469 -502 479.5 -505.5 Q 490 -509 501 -509 Q 513 -509 524 -503 Q 535 -497 541 -486.5 Q 547 -476 549.5 -464 Q 552 -452 552 -439 Q 552 -416 541.5 -394.5 Q 531 -373 513 -357.5 Q 495 -342 476.5 -327.5 Q 458 -313 442.5 -295.5 Q 427 -278 415.5 -257 Q 404 -236 397.5 -213.5 Q 391 -191 389.5 -167.5 Q 388 -144 388 -120 Z " id="path52"/>
<path d="M 500 87 Q 443 87 386 77 Q 329 67 278 41.5 Q 227 16 185.5 -25.5 Q 144 -67 118.5 -118 Q 93 -169 83 -226 Q 73 -283 73 -340 Q 73 -397 83 -454 Q 93 -511 118.5 -562 Q 144 -613 185.5 -654.5 Q 227 -696 278 -721.5 Q 329 -747 386 -757 Q 443 -767 500 -767 Q 557 -767 614 -757 Q 671 -747 722 -721.5 Q 773 -696 814.5 -654.5 Q 856 -613 881.5 -562 Q 907 -511 917 -454 Q 927 -397 927 -340 Q 927 -283 917 -226 Q 907 -169 881.5 -118 Q 856 -67 814.5 -25.5 Q 773 16 722 41.5 Q 671 67 614 77 Q 557 87 500 87 Z M 502 -115 Q 526 -115 549.5 -123 Q 573 -131 589.5 -148.5 Q 606 -166 613.5 -189.5 Q 621 -213 621 -237 Q 621 -254 617 -270.5 Q 613 -287 605 -302 Q 597 -317 584.5 -328.5 Q 572 -340 557 -347 Q 570 -354 580.5 -365 Q 591 -376 598 -389.5 Q 605 -403 608.5 -418 Q 612 -433 612 -448 Q 612 -471 605 -493 Q 598 -515 583 -532 Q 568 -549 546 -557 Q 524 -565 502 -565 Q 480 -565 458.5 -558.5 Q 437 -552 422 -536 Q 407 -520 399.5 -499 Q 392 -478 392 -456 L 392 -452 L 454 -452 L 454 -454 Q 454 -464 457 -474.5 Q 460 -485 466 -493 Q 472 -501 481.5 -505 Q 491 -509 502 -509 Q 513 -509 523 -503.5 Q 533 -498 539 -489 Q 545 -480 547 -468.5 Q 549 -457 549 -446 Q 549 -432 545 -417.5 Q 541 -403 531 -392.5 Q 521 -382 506.5 -378 Q 492 -374 478 -374 L 478 -318 Q 494 -318 510 -314 Q 526 -310 537.5 -298.5 Q 549 -287 554 -271 Q 559 -255 559 -239 Q 559 -227 556 -214.5 Q 553 -202 545.5 -191.5 Q 538 -181 526 -176 Q 514 -171 502 -171 Q 490 -171 479 -174.5 Q 468 -178 460 -185.5 Q 452 -193 448.5 -204 Q 445 -215 445 -226 L 445 -227 L 382 -227 L 382 -225 Q 382 -202 390.5 -180 Q 399 -158 416.5 -142.5 Q 434 -127 456.5 -121 Q 479 -115 502 -115 Z " id="path53"/>
<path d="M 500 87 Q 443 87 386 77 Q 329 67 278 41.5 Q 227 16 185.5 -25.5 Q 144 -67 118.5 -118 Q 93 -169 83 -226 Q 73 -283 73 -340 Q 73 -397 83 -454 Q 93 -511 118.5 -562 Q 144 -613 185.5 -654.5 Q 227 -696 278 -721.5 Q 329 -747 386 -757 Q 443 -767 500 -767 Q 557 -767 614 -757 Q 671 -747 722 -721.5 Q 773 -696 814.5 -654.5 Q 856 -613 881.5 -562 Q 907 -511 917 -454 Q 927 -397 927 -340 Q 927 -283 917 -226 Q 907 -169 881.5 -118 Q 856 -67 814.5 -25.5 Q 773 16 722 41.5 Q 671 67 614 77 Q 557 87 500 87 Z M 579 -120 L 579 -231 L 612 -231 L 612 -287 L 579 -287 L 579 -379 L 517 -379 L 517 -287 L 451 -287 L 581 -560 L 513 -560 L 384 -287 L 384 -231 L 517 -231 L 517 -120 Z " id="path54"/>
<path d="M 500 87 Q 443 87 386 77 Q 329 67 278 41.5 Q 227 16 185.5 -25.5 Q 144 -67 118.5 -118 Q 93 -169 83 -226 Q 73 -283 73 -340 Q 73 -397 83 -454 Q 93 -511 118.5 -562 Q 144 -613 185.5 -654.5 Q 227 -696 278 -721.5 Q 329 -747 386 -757 Q 443 -767 500 -767 Q 557 -767 614 -757 Q 671 -747 722 -721.5 Q 773 -696 814.5 -654.5 Q 856 -613 881.5 -562 Q 907 -511 917 -454 Q 927 -397 927 -340 Q 927 -283 917 -226 Q 907 -169 881.5 -118 Q 856 -67 814.5 -25.5 Q 773 16 722 41.5 Q 671 67 614 77 Q 557 87 500 87 Z M 501 -115 Q 519 -115 536 -119.5 Q 553 -124 567 -134.5 Q 581 -145 591 -160 Q 601 -175 606.5 -191.5 Q 612 -208 614 -225.5 Q 616 -243 616 -261 Q 616 -278 614 -295.5 Q 612 -313 606.5 -329.5 Q 601 -346 591.5 -361 Q 582 -376 568.5 -386.5 Q 555 -397 538 -402 Q 521 -407 503 -407 Q 491 -407 479 -405 Q 467 -403 455 -399 L 455 -504 L 600 -504 L 600 -561 L 393 -561 L 393 -315 L 455 -315 Q 455 -323 459.5 -330.5 Q 464 -338 471 -342.5 Q 478 -347 486.5 -348.5 Q 495 -350 503 -350 Q 518 -350 529 -340.5 Q 540 -331 545.5 -317.5 Q 551 -304 552.5 -289.5 Q 554 -275 554 -261 Q 554 -246 552.5 -231.5 Q 551 -217 545 -203.5 Q 539 -190 527.5 -180.5 Q 516 -171 501 -171 Q 491 -171 480.5 -174.5 Q 470 -178 463 -186 Q 456 -194 453 -204.5 Q 450 -215 449 -226 L 387 -226 Q 388 -203 395.5 -181.5 Q 403 -160 419 -144 Q 435 -128 457 -121.5 Q 479 -115 501 -115 Z " id="path55"/>
<path d="M 500 87 Q 443 87 386 77 Q 329 67 278 41.5 Q 227 16 185.5 -25.5 Q 144 -67 118.5 -118 Q 93 -169 83 -226 Q 73 -283 73 -340 Q 73 -397 83 -454 Q 93 -511 118.5 -562 Q 144 -613 185.5 -654.5 Q 227 -696 278 -721.5 Q 329 -747 386 -757 Q 443 -767 500 -767 Q 557 -767 614 -757 Q 671 -747 722 -721.5 Q 773 -696 814.5 -654.5 Q 856 -613 881.5 -562 Q 907 -511 917 -454 Q 927 -397 927 -340 Q 927 -283 917 -226 Q 907 -169 881.5 -118 Q 856 -67 814.5 -25.5 Q 773 16 722 41.5 Q 671 67 614 77 Q 557 87 500 87 Z M 500 -115 Q 517 -115 534 -119 Q 551 -123 565.5 -133 Q 580 -143 590 -157 Q 600 -171 606 -187 Q 612 -203 614 -220.5 Q 616 -238 616 -255 Q 616 -270 615 -286 Q 614 -302 610 -317 Q 606 -332 599 -346.5 Q 592 -361 581.5 -372 Q 571 -383 556 -389 Q 541 -395 526 -395 Q 510 -395 495 -389 Q 480 -383 469 -371 Q 474 -386 480.5 -399.5 Q 487 -413 494 -427 L 559 -560 L 491 -560 L 438 -452 Q 427 -428 416.5 -404.5 Q 406 -381 399 -356.5 Q 392 -332 388 -306.5 Q 384 -281 384 -255 Q 384 -238 386 -220.5 Q 388 -203 394 -187 Q 400 -171 410 -157 Q 420 -143 434.5 -133 Q 449 -123 466 -119 Q 483 -115 500 -115 Z M 500 -171 Q 486 -171 474 -179 Q 462 -187 456 -200 Q 450 -213 448 -227 Q 446 -241 446 -255 L 446 -263 Q 446 -276 449 -289 Q 452 -302 458 -313.5 Q 464 -325 475.5 -332 Q 487 -339 500 -339 Q 514 -339 526 -330.5 Q 538 -322 544 -309.5 Q 550 -297 552 -283 Q 554 -269 554 -255 Q 554 -241 552 -227 Q 550 -213 544 -200 Q 538 -187 526 -179 Q 514 -171 500 -171 Z " id="path56"/>
<path d="M 500 87 Q 443 87 386 77 Q 329 67 278 41.5 Q 227 16 185.5 -25.5 Q 144 -67 118.5 -118 Q 93 -169 83 -226 Q 73 -283 73 -340 Q 73 -397 83 -454 Q 93 -511 118.5 -562 Q 144 -613 185.5 -654.5 Q 227 -696 278 -721.5 Q 329 -747 386 -757 Q 443 -767 500 -767 Q 557 -767 614 -757 Q 671 -747 722 -721.5 Q 773 -696 814.5 -654.5 Q 856 -613 881.5 -562 Q 907 -511 917 -454 Q 927 -397 927 -340 Q 927 -283 917 -226 Q 907 -169 881.5 -118 Q 856 -67 814.5 -25.5 Q 773 16 722 41.5 Q 671 67 614 77 Q 557 87 500 87 Z M 498 -119 L 612 -504 L 612 -560 L 388 -560 L 388 -504 L 547 -504 L 433 -119 Z " id="path57"/>
<path d="M 500 87 Q 443 87 386 77 Q 329 67 278 41.5 Q 227 16 185.5 -25.5 Q 144 -67 118.5 -118 Q 93 -169 83 -226 Q 73 -283 73 -340 Q 73 -397 83 -454 Q 93 -511 118.5 -562 Q 144 -613 185.5 -654.5 Q 227 -696 278 -721.5 Q 329 -747 386 -757 Q 443 -767 500 -767 Q 557 -767 614 -757 Q 671 -747 722 -721.5 Q 773 -696 814.5 -654.5 Q 856 -613 881.5 -562 Q 907 -511 917 -454 Q 927 -397 927 -340 Q 927 -283 917 -226 Q 907 -169 881.5 -118 Q 856 -67 814.5 -25.5 Q 773 16 722 41.5 Q 671 67 614 77 Q 557 87 500 87 Z M 500 -115 Q 522 -115 544 -121 Q 566 -127 582.5 -141.5 Q 599 -156 608 -177 Q 617 -198 617 -221 Q 617 -239 611 -257 Q 605 -275 595 -291 Q 585 -307 572.5 -320.5 Q 560 -334 546 -346 Q 558 -358 569.5 -371 Q 581 -384 589.5 -398.5 Q 598 -413 602.5 -429.5 Q 607 -446 607 -464 Q 607 -484 599.5 -504.5 Q 592 -525 577 -539 Q 562 -553 541.5 -559 Q 521 -565 500 -565 Q 479 -565 458.5 -559 Q 438 -553 423 -539 Q 408 -525 400.5 -504.5 Q 393 -484 393 -464 Q 393 -446 397.5 -429.5 Q 402 -413 410.5 -398.5 Q 419 -384 430.5 -371 Q 442 -358 454 -346 Q 440 -334 427.5 -320.5 Q 415 -307 405 -291 Q 395 -275 389 -257 Q 383 -239 383 -221 Q 383 -198 392 -177 Q 401 -156 417.5 -141.5 Q 434 -127 456 -121 Q 478 -115 500 -115 Z M 500 -384 Q 491 -392 483 -400.5 Q 475 -409 469 -419 Q 463 -429 459 -440 Q 455 -451 455 -463 Q 455 -472 458 -481 Q 461 -490 467 -496.5 Q 473 -503 482 -506 Q 491 -509 500 -509 Q 509 -509 518 -506 Q 527 -503 533 -496.5 Q 539 -490 542 -481 Q 545 -472 545 -463 Q 545 -451 541 -440 Q 537 -429 531 -419 Q 525 -409 517 -400.5 Q 509 -392 500 -384 Z M 500 -171 Q 489 -171 479 -174 Q 469 -177 461 -184 Q 453 -191 449.5 -201 Q 446 -211 446 -222 Q 446 -235 451 -247.5 Q 456 -260 463.5 -270.5 Q 471 -281 480.5 -290.5 Q 490 -300 500 -308 Q 510 -300 519.5 -290.5 Q 529 -281 536.5 -270.5 Q 544 -260 549 -247.5 Q 554 -235 554 -222 Q 554 -211 550.5 -201 Q 547 -191 539 -184 Q 531 -177 521 -174 Q 511 -171 500 -171 Z " id="path58"/>
<path d="M 500 87 Q 443 87 386 77 Q 329 67 278 41.5 Q 227 16 185.5 -25.5 Q 144 -67 118.5 -118 Q 93 -169 83 -226 Q 73 -283 73 -340 Q 73 -397 83 -454 Q 93 -511 118.5 -562 Q 144 -613 185.5 -654.5 Q 227 -696 278 -721.5 Q 329 -747 386 -757 Q 443 -767 500 -767 Q 557 -767 614 -757 Q 671 -747 722 -721.5 Q 773 -696 814.5 -654.5 Q 856 -613 881.5 -562 Q 907 -511 917 -454 Q 927 -397 927 -340 Q 927 -283 917 -226 Q 907 -169 881.5 -118 Q 856 -67 814.5 -25.5 Q 773 16 722 41.5 Q 671 67 614 77 Q 557 87 500 87 Z M 509 -120 L 562 -228 Q 573 -252 583.5 -275.5 Q 594 -299 601 -323.5 Q 608 -348 612 -373.5 Q 616 -399 616 -425 Q 616 -442 614 -459.5 Q 612 -477 606 -493 Q 600 -509 590 -523 Q 580 -537 565.5 -547 Q 551 -557 534 -561 Q 517 -565 500 -565 Q 483 -565 466 -561 Q 449 -557 434.5 -547 Q 420 -537 410 -523 Q 400 -509 394 -493 Q 388 -477 386 -459.5 Q 384 -442 384 -425 Q 384 -410 385 -394 Q 386 -378 390 -363 Q 394 -348 401 -333.5 Q 408 -319 418.5 -308 Q 429 -297 444 -291 Q 459 -285 474 -285 Q 490 -285 505 -291 Q 520 -297 531 -309 Q 526 -294 519.5 -280.5 Q 513 -267 506 -253 L 441 -120 Z M 500 -341 Q 486 -341 474 -349.5 Q 462 -358 456 -370.5 Q 450 -383 448 -397 Q 446 -411 446 -425 Q 446 -439 448 -453 Q 450 -467 456 -480 Q 462 -493 474 -501 Q 486 -509 500 -509 Q 514 -509 526 -501 Q 538 -493 544 -480 Q 550 -467 552 -453 Q 554 -439 554 -425 L 554 -417 Q 554 -404 551 -391 Q 548 -378 542 -366.5 Q 536 -355 524.5 -348 Q 513 -341 500 -341 Z " id="path59"/>
<path d="M 500 87 Q 443 87 386 77 Q 329 67 278 41.5 Q 227 16 185.5 -25.5 Q 144 -67 118.5 -118 Q 93 -169 83 -226 Q 73 -283 73 -340 Q 73 -397 83 -454 Q 93 -511 118.5 -562 Q 144 -613 185.5 -654.5 Q 227 -696 278 -721.5 Q 329 -747 386 -757 Q 443 -767 500 -767 Q 557 -767 614 -757 Q 671 -747 722 -721.5 Q 773 -696 814.5 -654.5 Q 856 -613 881.5 -562 Q 907 -511 917 -454 Q 927 -397 927 -340 Q 927 -283 917 -226 Q 907 -169 881.5 -118 Q 856 -67 814.5 -25.5 Q 773 16 722 41.5 Q 671 67 614 77 Q 557 87 500 87 Z M 650 -115 Q 666 -115 682 -118 Q 698 -121 712 -129 Q 726 -137 737 -149.5 Q 748 -162 754.5 -176.5 Q 761 -191 763.5 -207 Q 766 -223 766 -239 L 766 -440 Q 766 -457 763.5 -473 Q 761 -489 754.5 -503.5 Q 748 -518 737 -530.5 Q 726 -543 712 -551 Q 698 -559 682 -562 Q 666 -565 650 -565 Q 634 -565 618 -562 Q 602 -559 588 -551 Q 574 -543 563 -530.5 Q 552 -518 545.5 -503.5 Q 539 -489 536.5 -473 Q 534 -457 534 -440 L 534 -239 Q 534 -223 536.5 -207 Q 539 -191 545.5 -176.5 Q 552 -162 563 -149.5 Q 574 -137 588 -129 Q 602 -121 618 -118 Q 634 -115 650 -115 Z M 337 -120 L 399 -120 L 399 -561 L 337 -561 L 233 -472 L 265 -438 L 337 -498 Z M 596 -325 L 596 -441 Q 596 -453 598.5 -465.5 Q 601 -478 608 -488 Q 615 -498 626.5 -503.5 Q 638 -509 650 -509 Q 662 -509 673.5 -503.5 Q 685 -498 692 -488 Q 699 -478 701.5 -465.5 Q 704 -453 704 -440 L 704 -411 Z M 650 -171 Q 638 -171 626.5 -176.5 Q 615 -182 608 -192 Q 601 -202 598.5 -214.5 Q 596 -227 596 -239 L 596 -269 L 704 -355 L 704 -239 Q 704 -227 701.5 -214.5 Q 699 -202 692 -192 Q 685 -182 673.5 -176.5 Q 662 -171 650 -171 Z " id="path60"/>
<path d="M 500 87 Q 443 87 386 77 Q 329 67 278 41.5 Q 227 16 185.5 -25.5 Q 144 -67 118.5 -118 Q 93 -169 83 -226 Q 73 -283 73 -340 Q 73 -397 83 -454 Q 93 -511 118.5 -562 Q 144 -613 185.5 -654.5 Q 227 -696 278 -721.5 Q 329 -747 386 -757 Q 443 -767 500 -767 Q 557 -767 614 -757 Q 671 -747 722 -721.5 Q 773 -696 814.5 -654.5 Q 856 -613 881.5 -562 Q 907 -511 917 -454 Q 927 -397 927 -340 Q 927 -283 917 -226 Q 907 -169 881.5 -118 Q 856 -67 814.5 -25.5 Q 773 16 722 41.5 Q 671 67 614 77 Q 557 87 500 87 Z M 500 31 Q 549 31 598 22 Q 647 13 691 -9.5 Q 735 -32 770 -68 Q 805 -104 826.5 -148 Q 848 -192 856.5 -241.5 Q 865 -291 865 -340 Q 865 -389 856.5 -438.5 Q 848 -488 826.5 -532 Q 805 -576 770 -612 Q 735 -648 691 -670.5 Q 647 -693 598 -702 Q 549 -711 500 -711 Q 451 -711 402 -702 Q 353 -693 309 -670.5 Q 265 -648 230 -612 Q 195 -576 173.5 -532 Q 152 -488 143.5 -438.5 Q 135 -389 135 -340 Q 135 -291 143.5 -241.5 Q 152 -192 173.5 -148 Q 195 -104 230 -68 Q 265 -32 309 -9.5 Q 353 13 402 22 Q 451 31 500 31 Z M 487 -120 L 487 -498 L 415 -438 L 383 -472 L 487 -561 L 549 -561 L 549 -120 Z " id="path61"/>
<path d="M 500 87 Q 443 87 386 77 Q 329 67 278 41.5 Q 227 16 185.5 -25.5 Q 144 -67 118.5 -118 Q 93 -169 83 -226 Q 73 -283 73 -340 Q 73 -397 83 -454 Q 93 -511 118.5 -562 Q 144 -613 185.5 -654.5 Q 227 -696 278 -721.5 Q 329 -747 386 -757 Q 443 -767 500 -767 Q 557 -767 614 -757 Q 671 -747 722 -721.5 Q 773 -696 814.5 -654.5 Q 856 -613 881.5 -562 Q 907 -511 917 -454 Q 927 -397 927 -340 Q 927 -283 917 -226 Q 907 -169 881.5 -118 Q 856 -67 814.5 -25.5 Q 773 16 722 41.5 Q 671 67 614 77 Q 557 87 500 87 Z M 500 31 Q 549 31 598 22 Q 647 13 691 -9.5 Q 735 -32 770 -68 Q 805 -104 826.5 -148 Q 848 -192 856.5 -241.5 Q 865 -291 865 -340 Q 865 -389 856.5 -438.5 Q 848 -488 826.5 -532 Q 805 -576 770 -612 Q 735 -648 691 -670.5 Q 647 -693 598 -702 Q 549 -711 500 -711 Q 451 -711 402 -702 Q 353 -693 309 -670.5 Q 265 -648 230 -612 Q 195 -576 173.5 -532 Q 152 -488 143.5 -438.5 Q 135 -389 135 -340 Q 135 -291 143.5 -241.5 Q 152 -192 173.5 -148 Q 195 -104 230 -68 Q 265 -32 309 -9.5 Q 353 13 402 22 Q 451 31 500 31 Z M 612 -120 L 388 -120 Q 388 -144 389.5 -167.5 Q 391 -191 397.5 -213.5 Q 404 -236 415.5 -257 Q 427 -278 442.5 -295.5 Q 458 -313 476.5 -327.5 Q 495 -342 513 -357.5 Q 531 -373 541.5 -394.5 Q 552 -416 552 -439 Q 552 -452 549.5 -464 Q 547 -476 541 -486.5 Q 535 -497 524 -503 Q 513 -509 501 -509 Q 490 -509 479.5 -505.5 Q 469 -502 462.5 -493.5 Q 456 -485 452.5 -475 Q 449 -465 449 -454 L 449 -452 L 387 -452 L 387 -455 Q 387 -478 395 -499.5 Q 403 -521 419 -536.5 Q 435 -552 456.5 -558.5 Q 478 -565 501 -565 Q 525 -565 548 -556.5 Q 571 -548 586.5 -529.5 Q 602 -511 608 -487.5 Q 614 -464 614 -439 Q 614 -420 609 -400.5 Q 604 -381 593.5 -363.5 Q 583 -346 569 -332 Q 555 -318 540 -305 Q 525 -292 510.5 -278.5 Q 496 -265 484.5 -248.5 Q 473 -232 465 -213.5 Q 457 -195 454 -176 L 612 -176 Z " id="path62"/>
<path d="M 500 87 Q 443 87 386 77 Q 329 67 278 41.5 Q 227 16 185.5 -25.5 Q 144 -67 118.5 -118 Q 93 -169 83 -226 Q 73 -283 73 -340 Q 73 -397 83 -454 Q 93 -511 118.5 -562 Q 144 -613 185.5 -654.5 Q 227 -696 278 -721.5 Q 329 -747 386 -757 Q 443 -767 500 -767 Q 557 -767 614 -757 Q 671 -747 722 -721.5 Q 773 -696 814.5 -654.5 Q 856 -613 881.5 -562 Q 907 -511 917 -454 Q 927 -397 927 -340 Q 927 -283 917 -226 Q 907 -169 881.5 -118 Q 856 -67 814.5 -25.5 Q 773 16 722 41.5 Q 671 67 614 77 Q 557 87 500 87 Z M 500 31 Q 549 31 598 22 Q 647 13 691 -9.5 Q 735 -32 770 -68 Q 805 -104 826.5 -148 Q 848 -192 856.5 -241.5 Q 865 -291 865 -340 Q 865 -389 856.5 -438.5 Q 848 -488 826.5 -532 Q 805 -576 770 -612 Q 735 -648 691 -670.5 Q 647 -693 598 -702 Q 549 -711 500 -711 Q 451 -711 402 -702 Q 353 -693 309 -670.5 Q 265 -648 230 -612 Q 195 -576 173.5 -532 Q 152 -488 143.5 -438.5 Q 135 -389 135 -340 Q 135 -291 143.5 -241.5 Q 152 -192 173.5 -148 Q 195 -104 230 -68 Q 265 -32 309 -9.5 Q 353 13 402 22 Q 451 31 500 31 Z M 502 -115 Q 479 -115 456.5 -121 Q 434 -127 416.5 -142.5 Q 399 -158 390.5 -180 Q 382 -202 382 -225 L 382 -227 L 445 -227 L 445 -226 Q 445 -215 448.5 -204 Q 452 -193 460 -185.5 Q 468 -178 479 -174.5 Q 490 -171 502 -171 Q 514 -171 526 -176 Q 538 -181 545.5 -191.5 Q 553 -202 556 -214.5 Q 559 -227 559 -239 Q 559 -255 554 -271 Q 549 -287 537.5 -298.5 Q 526 -310 510 -314 Q 494 -318 478 -318 L 478 -374 Q 492 -374 506.5 -378 Q 521 -382 531 -392.5 Q 541 -403 545 -417.5 Q 549 -432 549 -446 Q 549 -457 547 -468.5 Q 545 -480 539 -489 Q 533 -498 523 -503.5 Q 513 -509 502 -509 Q 491 -509 481.5 -505 Q 472 -501 466 -493 Q 460 -485 457 -474.5 Q 454 -464 454 -454 L 454 -452 L 392 -452 L 392 -456 Q 392 -478 399 -499 Q 406 -520 421.5 -536 Q 437 -552 458.5 -558.5 Q 480 -565 502 -565 Q 524 -565 546 -557 Q 568 -549 583 -532 Q 598 -515 605 -493 Q 612 -471 612 -448 Q 612 -433 608.5 -418 Q 605 -403 598 -389.5 Q 591 -376 580.5 -365 Q 570 -354 557 -347 Q 572 -340 584.5 -328.5 Q 597 -317 605 -302 Q 613 -287 617 -270.5 Q 621 -254 621 -237 Q 621 -213 613.5 -189.5 Q 606 -166 589.5 -148.5 Q 573 -131 549.5 -123 Q 526 -115 502 -115 Z " id="path63"/>
<path d="M 500 87 Q 443 87 386 77 Q 329 67 278 41.5 Q 227 16 185.5 -25.5 Q 144 -67 118.5 -118 Q 93 -169 83 -226 Q 73 -283 73 -340 Q 73 -397 83 -454 Q 93 -511 118.5 -562 Q 144 -613 185.5 -654.5 Q 227 -696 278 -721.5 Q 329 -747 386 -757 Q 443 -767 500 -767 Q 557 -767 614 -757 Q 671 -747 722 -721.5 Q 773 -696 814.5 -654.5 Q 856 -613 881.5 -562 Q 907 -511 917 -454 Q 927 -397 927 -340 Q 927 -283 917 -226 Q 907 -169 881.5 -118 Q 856 -67 814.5 -25.5 Q 773 16 722 41.5 Q 671 67 614 77 Q 557 87 500 87 Z M 500 31 Q 549 31 598 22 Q 647 13 691 -9.5 Q 735 -32 770 -68 Q 805 -104 826.5 -148 Q 848 -192 856.5 -241.5 Q 865 -291 865 -340 Q 865 -389 856.5 -438.5 Q 848 -488 826.5 -532 Q 805 -576 770 -612 Q 735 -648 691 -670.5 Q 647 -693 598 -702 Q 549 -711 500 -711 Q 451 -711 402 -702 Q 353 -693 309 -670.5 Q 265 -648 230 -612 Q 195 -576 173.5 -532 Q 152 -488 143.5 -438.5 Q 135 -389 135 -340 Q 135 -291 143.5 -241.5 Q 152 -192 173.5 -148 Q 195 -104 230 -68 Q 265 -32 309 -9.5 Q 353 13 402 22 Q 451 31 500 31 Z M 579 -120 L 517 -120 L 517 -231 L 384 -231 L 384 -287 L 513 -560 L 581 -560 L 451 -287 L 517 -287 L 517 -379 L 579 -379 L 579 -287 L 612 -287 L 612 -231 L 579 -231 Z " id="path64"/>
<path d="M 500 87 Q 443 87 386 77 Q 329 67 278 41.5 Q 227 16 185.5 -25.5 Q 144 -67 118.5 -118 Q 93 -169 83 -226 Q 73 -283 73 -340 Q 73 -397 83 -454 Q 93 -511 118.5 -562 Q 144 -613 185.5 -654.5 Q 227 -696 278 -721.5 Q 329 -747 386 -757 Q 443 -767 500 -767 Q 557 -767 614 -757 Q 671 -747 722 -721.5 Q 773 -696 814.5 -654.5 Q 856 -613 881.5 -562 Q 907 -511 917 -454 Q 927 -397 927 -340 Q 927 -283 917 -226 Q 907 -169 881.5 -118 Q 856 -67 814.5 -25.5 Q 773 16 722 41.5 Q 671 67 614 77 Q 557 87 500 87 Z M 500 31 Q 549 31 598 22 Q 647 13 691 -9.5 Q 735 -32 770 -68 Q 805 -104 826.5 -148 Q 848 -192 856.5 -241.5 Q 865 -291 865 -340 Q 865 -389 856.5 -438.5 Q 848 -488 826.5 -532 Q 805 -576 770 -612 Q 735 -648 691 -670.5 Q 647 -693 598 -702 Q 549 -711 500 -711 Q 451 -711 402 -702 Q 353 -693 309 -670.5 Q 265 -648 230 -612 Q 195 -576 173.5 -532 Q 152 -488 143.5 -438.5 Q 135 -389 135 -340 Q 135 -291 143.5 -241.5 Q 152 -192 173.5 -148 Q 195 -104 230 -68 Q 265 -32 309 -9.5 Q 353 13 402 22 Q 451 31 500 31 Z M 501 -115 Q 479 -115 457 -121.5 Q 435 -128 419 -144 Q 403 -160 395.5 -181.5 Q 388 -203 387 -226 L 449 -226 Q 450 -215 453 -204.5 Q 456 -194 463 -186 Q 470 -178 480.5 -174.5 Q 491 -171 501 -171 Q 516 -171 527.5 -180.5 Q 539 -190 545 -203.5 Q 551 -217 552.5 -231.5 Q 554 -246 554 -261 Q 554 -275 552.5 -289.5 Q 551 -304 545.5 -317.5 Q 540 -331 529 -340.5 Q 518 -350 503 -350 Q 495 -350 486.5 -348.5 Q 478 -347 471 -342.5 Q 464 -338 459.5 -330.5 Q 455 -323 455 -315 L 393 -315 L 393 -560 L 600 -560 L 600 -504 L 455 -504 L 455 -399 Q 467 -403 479 -405 Q 491 -407 503 -407 Q 521 -407 538 -402 Q 555 -397 568.5 -386.5 Q 582 -376 591.5 -361 Q 601 -346 606.5 -329.5 Q 612 -313 614 -295.5 Q 616 -278 616 -261 Q 616 -243 614 -225.5 Q 612 -208 606.5 -191.5 Q 601 -175 591 -160 Q 581 -145 567 -134.5 Q 553 -124 536 -119.5 Q 519 -115 501 -115 Z " id="path65"/>
<path d="M 500 87 Q 443 87 386 77 Q 329 67 278 41.5 Q 227 16 185.5 -25.5 Q 144 -67 118.5 -118 Q 93 -169 83 -226 Q 73 -283 73 -340 Q 73 -397 83 -454 Q 93 -511 118.5 -562 Q 144 -613 185.5 -654.5 Q 227 -696 278 -721.5 Q 329 -747 386 -757 Q 443 -767 500 -767 Q 557 -767 614 -757 Q 671 -747 722 -721.5 Q 773 -696 814.5 -654.5 Q 856 -613 881.5 -562 Q 907 -511 917 -454 Q 927 -397 927 -340 Q 927 -283 917 -226 Q 907 -169 881.5 -118 Q 856 -67 814.5 -25.5 Q 773 16 722 41.5 Q 671 67 614 77 Q 557 87 500 87 Z M 500 31 Q 549 31 598 22 Q 647 13 691 -9.5 Q 735 -32 770 -68 Q 805 -104 826.5 -148 Q 848 -192 856.5 -241.5 Q 865 -291 865 -340 Q 865 -389 856.5 -438.5 Q 848 -488 826.5 -532 Q 805 -576 770 -612 Q 735 -648 691 -670.5 Q 647 -693 598 -702 Q 549 -711 500 -711 Q 451 -711 402 -702 Q 353 -693 309 -670.5 Q 265 -648 230 -612 Q 195 -576 173.5 -532 Q 152 -488 143.5 -438.5 Q 135 -389 135 -340 Q 135 -291 143.5 -241.5 Q 152 -192 173.5 -148 Q 195 -104 230 -68 Q 265 -32 309 -9.5 Q 353 13 402 22 Q 451 31 500 31 Z M 500 -115 Q 483 -115 466 -119 Q 449 -123 434.5 -133 Q 420 -143 410 -157 Q 400 -171 394 -187 Q 388 -203 386 -220.5 Q 384 -238 384 -255 Q 384 -281 388 -306.5 Q 392 -332 399 -356.5 Q 406 -381 416.5 -404.5 Q 427 -428 438 -452 L 491 -560 L 559 -560 L 494 -427 Q 487 -413 480.5 -399.5 Q 474 -386 469 -371 Q 480 -383 495 -389 Q 510 -395 526 -395 Q 541 -395 556 -389 Q 571 -383 581.5 -372 Q 592 -361 599 -346.5 Q 606 -332 610 -317 Q 614 -302 615 -286 Q 616 -270 616 -255 Q 616 -238 614 -220.5 Q 612 -203 606 -187 Q 600 -171 590 -157 Q 580 -143 565.5 -133 Q 551 -123 534 -119 Q 517 -115 500 -115 Z M 500 -171 Q 514 -171 526 -179 Q 538 -187 544 -200 Q 550 -213 552 -227 Q 554 -241 554 -255 Q 554 -269 552 -283 Q 550 -297 544 -309.5 Q 538 -322 526 -330.5 Q 514 -339 500 -339 Q 487 -339 475.5 -332 Q 464 -325 458 -313.5 Q 452 -302 449 -289 Q 446 -276 446 -263 L 446 -255 Q 446 -241 448 -227 Q 450 -213 456 -200 Q 462 -187 474 -179 Q 486 -171 500 -171 Z " id="path66"/>
<path d="M 500 87 Q 443 87 386 77 Q 329 67 278 41.5 Q 227 16 185.5 -25.5 Q 144 -67 118.5 -118 Q 93 -169 83 -226 Q 73 -283 73 -340 Q 73 -397 83 -454 Q 93 -511 118.5 -562 Q 144 -613 185.5 -654.5 Q 227 -696 278 -721.5 Q 329 -747 386 -757 Q 443 -767 500 -767 Q 557 -767 614 -757 Q 671 -747 722 -721.5 Q 773 -696 814.5 -654.5 Q 856 -613 881.5 -562 Q 907 -511 917 -454 Q 927 -397 927 -340 Q 927 -283 917 -226 Q 907 -169 881.5 -118 Q 856 -67 814.5 -25.5 Q 773 16 722 41.5 Q 671 67 614 77 Q 557 87 500 87 Z M 500 31 Q 549 31 598 22 Q 647 13 691 -9.5 Q 735 -32 770 -68 Q 805 -104 826.5 -148 Q 848 -192 856.5 -241.5 Q 865 -291 865 -340 Q 865 -389 856.5 -438.5 Q 848 -488 826.5 -532 Q 805 -576 770 -612 Q 735 -648 691 -670.5 Q 647 -693 598 -702 Q 549 -711 500 -711 Q 451 -711 402 -702 Q 353 -693 309 -670.5 Q 265 -648 230 -612 Q 195 -576 173.5 -532 Q 152 -488 143.5 -438.5 Q 135 -389 135 -340 Q 135 -291 143.5 -241.5 Q 152 -192 173.5 -148 Q 195 -104 230 -68 Q 265 -32 309 -9.5 Q 353 13 402 22 Q 451 31 500 31 Z M 498 -119 L 433 -119 L 547 -504 L 388 -504 L 388 -560 L 612 -560 L 612 -504 Z " id="path67"/>
<path d="M 500 87 Q 443 87 386 77 Q 329 67 278 41.5 Q 227 16 185.5 -25.5 Q 144 -67 118.5 -118 Q 93 -169 83 -226 Q 73 -283 73 -340 Q 73 -397 83 -454 Q 93 -511 118.5 -562 Q 144 -613 185.5 -654.5 Q 227 -696 278 -721.5 Q 329 -747 386 -757 Q 443 -767 500 -767 Q 557 -767 614 -757 Q 671 -747 722 -721.5 Q 773 -696 814.5 -654.5 Q 856 -613 881.5 -562 Q 907 -511 917 -454 Q 927 -397 927 -340 Q 927 -283 917 -226 Q 907 -169 881.5 -118 Q 856 -67 814.5 -25.5 Q 773 16 722 41.5 Q 671 67 614 77 Q 557 87 500 87 Z M 500 31 Q 549 31 598 22 Q 647 13 691 -9.5 Q 735 -32 770 -68 Q 805 -104 826.5 -148 Q 848 -192 856.5 -241.5 Q 865 -291 865 -340 Q 865 -389 856.5 -438.5 Q 848 -488 826.5 -532 Q 805 -576 770 -612 Q 735 -648 691 -670.5 Q 647 -693 598 -702 Q 549 -711 500 -711 Q 451 -711 402 -702 Q 353 -693 309 -670.5 Q 265 -648 230 -612 Q 195 -576 173.5 -532 Q 152 -488 143.5 -438.5 Q 135 -389 135 -340 Q 135 -291 143.5 -241.5 Q 152 -192 173.5 -148 Q 195 -104 230 -68 Q 265 -32 309 -9.5 Q 353 13 402 22 Q 451 31 500 31 Z M 500 -115 Q 478 -115 456 -121 Q 434 -127 417.5 -141.5 Q 401 -156 392 -177 Q 383 -198 383 -221 Q 383 -239 389 -257 Q 395 -275 405 -291 Q 415 -307 427.5 -320.5 Q 440 -334 454 -346 Q 442 -358 430.5 -371 Q 419 -384 410.5 -398.5 Q 402 -413 397.5 -429.5 Q 393 -446 393 -464 Q 393 -484 400.5 -504.5 Q 408 -525 423 -539 Q 438 -553 458.5 -559 Q 479 -565 500 -565 Q 521 -565 541.5 -559 Q 562 -553 577 -539 Q 592 -525 599.5 -504.5 Q 607 -484 607 -464 Q 607 -446 602.5 -429.5 Q 598 -413 589.5 -398.5 Q 581 -384 569.5 -371 Q 558 -358 546 -346 Q 560 -334 572.5 -320.5 Q 585 -307 595 -291 Q 605 -275 611 -257 Q 617 -239 617 -221 Q 617 -198 608 -177 Q 599 -156 582.5 -141.5 Q 566 -127 544 -121 Q 522 -115 500 -115 Z M 500 -384 Q 509 -392 517 -400.5 Q 525 -409 531 -419 Q 537 -429 541 -440 Q 545 -451 545 -463 Q 545 -472 542 -481 Q 539 -490 533 -496.5 Q 527 -503 518 -506 Q 509 -509 500 -509 Q 491 -509 482 -506 Q 473 -503 467 -496.5 Q 461 -490 458 -481 Q 455 -472 455 -463 Q 455 -451 459 -440 Q 463 -429 469 -419 Q 475 -409 483 -400.5 Q 491 -392 500 -384 Z M 500 -171 Q 511 -171 521 -174 Q 531 -177 539 -184 Q 547 -191 550.5 -201 Q 554 -211 554 -222 Q 554 -235 549 -247.5 Q 544 -260 536.5 -270.5 Q 529 -281 519.5 -290.5 Q 510 -300 500 -308 Q 490 -300 480.5 -290.5 Q 471 -281 463.5 -270.5 Q 456 -260 451 -247.5 Q 446 -235 446 -222 Q 446 -211 449.5 -201 Q 453 -191 461 -184 Q 469 -177 479 -174 Q 489 -171 500 -171 Z " id="path68"/>
<path d="M 500 87 Q 443 87 386 77 Q 329 67 278 41.5 Q 227 16 185.5 -25.5 Q 144 -67 118.5 -118 Q 93 -169 83 -226 Q 73 -283 73 -340 Q 73 -397 83 -454 Q 93 -511 118.5 -562 Q 144 -613 185.5 -654.5 Q 227 -696 278 -721.5 Q 329 -747 386 -757 Q 443 -767 500 -767 Q 557 -767 614 -757 Q 671 -747 722 -721.5 Q 773 -696 814.5 -654.5 Q 856 -613 881.5 -562 Q 907 -511 917 -454 Q 927 -397 927 -340 Q 927 -283 917 -226 Q 907 -169 881.5 -118 Q 856 -67 814.5 -25.5 Q 773 16 722 41.5 Q 671 67 614 77 Q 557 87 500 87 Z M 500 31 Q 549 31 598 22 Q 647 13 691 -9.5 Q 735 -32 770 -68 Q 805 -104 826.5 -148 Q 848 -192 856.5 -241.5 Q 865 -291 865 -340 Q 865 -389 856.5 -438.5 Q 848 -488 826.5 -532 Q 805 -576 770 -612 Q 735 -648 691 -670.5 Q 647 -693 598 -702 Q 549 -711 500 -711 Q 451 -711 402 -702 Q 353 -693 309 -670.5 Q 265 -648 230 -612 Q 195 -576 173.5 -532 Q 152 -488 143.5 -438.5 Q 135 -389 135 -340 Q 135 -291 143.5 -241.5 Q 152 -192 173.5 -148 Q 195 -104 230 -68 Q 265 -32 309 -9.5 Q 353 13 402 22 Q 451 31 500 31 Z M 509 -120 L 441 -120 L 506 -253 Q 513 -267 519.5 -280.5 Q 526 -294 531 -309 Q 520 -297 505 -291 Q 490 -285 474 -285 Q 459 -285 444 -291 Q 429 -297 418.5 -308 Q 408 -319 401 -333.5 Q 394 -348 390 -363 Q 386 -378 385 -394 Q 384 -410 384 -425 Q 384 -442 386 -459.5 Q 388 -477 394 -493 Q 400 -509 410 -523 Q 420 -537 434.5 -547 Q 449 -557 466 -561 Q 483 -565 500 -565 Q 517 -565 534 -561 Q 551 -557 565.5 -547 Q 580 -537 590 -523 Q 600 -509 606 -493 Q 612 -477 614 -459.5 Q 616 -442 616 -425 Q 616 -399 612 -373.5 Q 608 -348 601 -323.5 Q 594 -299 583.5 -275.5 Q 573 -252 562 -228 Z M 500 -341 Q 513 -341 524.5 -348 Q 536 -355 542 -366.5 Q 548 -378 551 -391 Q 554 -404 554 -417 L 554 -425 Q 554 -439 552 -453 Q 550 -467 544 -480 Q 538 -493 526 -501 Q 514 -509 500 -509 Q 486 -509 474 -501 Q 462 -493 456 -480 Q 450 -467 448 -453 Q 446 -439 446 -425 Q 446 -411 448 -397 Q 450 -383 456 -370.5 Q 462 -358 474 -349.5 Q 486 -341 500 -341 Z " id="path69"/>
<path d="M 500 87 Q 443 87 386 77 Q 329 67 278 41.5 Q 227 16 185.5 -25.5 Q 144 -67 118.5 -118 Q 93 -169 83 -226 Q 73 -283 73 -340 Q 73 -397 83 -454 Q 93 -511 118.5 -562 Q 144 -613 185.5 -654.5 Q 227 -696 278 -721.5 Q 329 -747 386 -757 Q 443 -767 500 -767 Q 557 -767 614 -757 Q 671 -747 722 -721.5 Q 773 -696 814.5 -654.5 Q 856 -613 881.5 -562 Q 907 -511 917 -454 Q 927 -397 927 -340 Q 927 -283 917 -226 Q 907 -169 881.5 -118 Q 856 -67 814.5 -25.5 Q 773 16 722 41.5 Q 671 67 614 77 Q 557 87 500 87 Z M 500 31 Q 549 31 598 22 Q 647 13 691 -9.5 Q 735 -32 770 -68 Q 805 -104 826.5 -148 Q 848 -192 856.5 -241.5 Q 865 -291 865 -340 Q 865 -389 856.5 -438.5 Q 848 -488 826.5 -532 Q 805 -576 770 -612 Q 735 -648 691 -670.5 Q 647 -693 598 -702 Q 549 -711 500 -711 Q 451 -711 402 -702 Q 353 -693 309 -670.5 Q 265 -648 230 -612 Q 195 -576 173.5 -532 Q 152 -488 143.5 -438.5 Q 135 -389 135 -340 Q 135 -291 143.5 -241.5 Q 152 -192 173.5 -148 Q 195 -104 230 -68 Q 265 -32 309 -9.5 Q 353 13 402 22 Q 451 31 500 31 Z M 337 -120 L 337 -498 L 265 -438 L 233 -472 L 337 -561 L 399 -561 L 399 -120 Z M 650 -115 Q 634 -115 618 -118 Q 602 -121 588 -129 Q 574 -137 563 -149.5 Q 552 -162 545.5 -176.5 Q 539 -191 536.5 -207 Q 534 -223 534 -239 L 534 -440 Q 534 -457 536.5 -473 Q 539 -489 545.5 -503.5 Q 552 -518 563 -530.5 Q 574 -543 588 -551 Q 602 -559 618 -562 Q 634 -565 650 -565 Q 666 -565 682 -562 Q 698 -559 712 -551 Q 726 -543 737 -530.5 Q 748 -518 754.5 -503.5 Q 761 -489 763.5 -473 Q 766 -457 766 -440 L 766 -239 Q 766 -223 763.5 -207 Q 761 -191 754.5 -176.5 Q 748 -162 737 -149.5 Q 726 -137 712 -129 Q 698 -121 682 -118 Q 666 -115 650 -115 Z M 596 -325 L 704 -411 L 704 -440 Q 704 -453 701.5 -465.5 Q 699 -478 692 -488 Q 685 -498 673.5 -503.5 Q 662 -509 650 -509 Q 638 -509 626.5 -503.5 Q 615 -498 608 -488 Q 601 -478 598.5 -465.5 Q 596 -453 596 -440 Z M 650 -171 Q 662 -171 673.5 -176.5 Q 685 -182 692 -192 Q 699 -202 701.5 -214.5 Q 704 -227 704 -239 L 704 -355 L 596 -269 L 596 -239 Q 596 -227 598.5 -214.5 Q 601 -202 608 -192 Q 615 -182 626.5 -176.5 Q 638 -171 650 -171 Z " id="path70"/>
<path d="M 765 -147 L 557 -147 L 658 -247 L 58 -247 L 58 -433 L 658 -433 L 557 -533 L 765 -533 L 958 -340 Z " id="path71"/>
<path d="M 533 69 Q 514 69 495.5 62.5 Q 477 56 462.5 43.5 Q 448 31 439 13.5 Q 430 -4 430 -23 Q 430 -42 438.5 -59 Q 447 -76 461 -89 L 619 -247 L 150 -247 Q 131 -247 112.5 -253.5 Q 94 -260 79.5 -272.5 Q 65 -285 56.5 -303 Q 48 -321 48 -340 Q 48 -359 56.5 -377 Q 65 -395 79.5 -407.5 Q 94 -420 112.5 -426.5 Q 131 -433 150 -433 L 619 -433 L 461 -591 Q 447 -604 438.5 -621 Q 430 -638 430 -657 Q 430 -676 439 -693.5 Q 448 -711 462.5 -723.5 Q 477 -736 495.5 -742.5 Q 514 -749 533 -749 Q 555 -749 576.5 -740 Q 598 -731 613 -715 L 922 -405 Q 936 -393 944 -376 Q 952 -359 952 -340 Q 952 -321 944 -304 Q 936 -287 922 -275 L 613 35 Q 598 51 576.5 60 Q 555 69 533 69 Z " id="path72"/>
<path d="M 756 -137 L 756 -317 L 58 -317 L 58 -363 L 756 -363 L 756 -543 L 958 -340 Z " id="path73"/>
<path d="M 756 -137 L 756 -280 L 58 -280 L 58 -400 L 756 -400 L 756 -543 L 958 -340 Z " id="path74"/>
<path d="M 659 -135 L 659 -246 L 58 -246 L 58 -434 L 659 -434 L 659 -545 L 958 -340 Z " id="path75"/>
<path d="M 179 -19 L 339 -340 L 179 -661 L 821 -340 Z M 407 -340 L 686 -340 L 314 -526 Z " id="path76"/>
<path d="M 179 -19 L 339 -340 L 179 -661 L 821 -340 Z M 314 -154 L 686 -340 L 407 -340 Z " id="path77"/>
<path d="M 179 -19 L 339 -340 L 179 -661 L 821 -340 Z " id="path78"/>
<path d="M 659 -135 L 659 -246 L 152 -246 Q 138 -246 124 -250 Q 110 -254 99 -263 Q 88 -272 79 -283 Q 70 -294 63.5 -306.5 Q 57 -319 51.5 -332.5 Q 46 -346 42 -359.5 Q 38 -373 35 -387 Q 32 -401 30 -415 Q 28 -429 26.5 -443 Q 25 -457 24 -471.5 Q 23 -486 23 -500 Q 23 -514 23 -529 L 77 -529 Q 77 -511 80.5 -494 Q 84 -477 93.5 -463 Q 103 -449 119 -441.5 Q 135 -434 152 -434 L 659 -434 L 659 -545 L 958 -340 Z " id="path79"/>
<path d="M 659 -135 L 659 -246 L 152 -246 Q 135 -246 119 -238.5 Q 103 -231 93.5 -217 Q 84 -203 80.5 -186 Q 77 -169 77 -151 L 23 -151 Q 23 -166 23 -180 Q 23 -194 24 -208.5 Q 25 -223 26.5 -237 Q 28 -251 30 -265 Q 32 -279 35 -293 Q 38 -307 42 -320.5 Q 46 -334 51.5 -347.5 Q 57 -361 63.5 -373.5 Q 70 -386 79 -397 Q 88 -408 99 -417 Q 110 -426 124 -430 Q 138 -434 152 -434 L 659 -434 L 659 -545 L 958 -340 Z " id="path80"/>
<path d="M 443 43 L 443 -88 L 328 -88 L 328 -592 L 443 -592 L 443 -723 L 688 -340 Z " id="path81"/>
<path d="M 500 -11 Q 479 -11 458 -17.5 Q 437 -24 420.5 -38 Q 404 -52 392.5 -70 Q 381 -88 373 -108 Q 365 -128 359.5 -148.5 Q 354 -169 351 -190.5 Q 348 -212 347 -233 Q 346 -254 346 -276 Q 346 -314 351.5 -352 Q 357 -390 370 -426 Q 383 -462 403.5 -494.5 Q 424 -527 451 -555 Q 419 -576 382 -588.5 Q 345 -601 307 -601 Q 282 -601 257.5 -594.5 Q 233 -588 211 -576 L 179 -629 Q 208 -645 241 -653 Q 274 -661 307 -661 Q 359 -661 408.5 -644 Q 458 -627 500 -597 Q 542 -627 591.5 -644 Q 641 -661 693 -661 Q 726 -661 759 -653 Q 792 -645 821 -629 L 789 -576 Q 767 -588 742.5 -594.5 Q 718 -601 693 -601 Q 655 -601 618 -588.5 Q 581 -576 549 -555 Q 576 -527 596.5 -494.5 Q 617 -462 630 -426 Q 643 -390 648.5 -352 Q 654 -314 654 -276 Q 654 -254 653 -233 Q 652 -212 649 -190.5 Q 646 -169 640.5 -148.5 Q 635 -128 627 -108 Q 619 -88 607.5 -70 Q 596 -52 579.5 -38 Q 563 -24 542 -17.5 Q 521 -11 500 -11 Z M 500 -71 Q 515 -71 528.5 -79.5 Q 542 -88 550.5 -100.5 Q 559 -113 564.5 -127 Q 570 -141 574 -155.5 Q 578 -170 580.5 -185 Q 583 -200 584.5 -215 Q 586 -230 586.5 -245.5 Q 587 -261 587 -276 Q 587 -308 582.5 -340.5 Q 578 -373 567.5 -403.5 Q 557 -434 540 -462 Q 523 -490 500 -514 Q 477 -490 460 -462 Q 443 -434 432.5 -403.5 Q 422 -373 417.5 -340.5 Q 413 -308 413 -276 Q 413 -261 413.5 -245.5 Q 414 -230 415.5 -215 Q 417 -200 419.5 -185 Q 422 -170 426 -155.5 Q 430 -141 435.5 -127 Q 441 -113 449.5 -100.5 Q 458 -88 471.5 -79.5 Q 485 -71 500 -71 Z " id="path82"/>
<path d="M 371 -11 Q 352 -11 334 -21 Q 316 -31 304.5 -47 Q 293 -63 285.5 -81.5 Q 278 -100 273 -119 Q 268 -138 264.5 -157.5 Q 261 -177 259 -196.5 Q 257 -216 256.5 -236 Q 256 -256 256 -276 Q 256 -311 260 -346 Q 264 -381 274 -415 Q 284 -449 298 -481.5 Q 312 -514 331 -544 Q 323 -555 313.5 -565 Q 304 -575 293 -583 Q 282 -591 269.5 -596 Q 257 -601 243 -601 Q 235 -601 226.5 -598.5 Q 218 -596 211 -592 L 179 -645 Q 193 -653 209.5 -657 Q 226 -661 243 -661 Q 261 -661 279.5 -656.5 Q 298 -652 314 -643 Q 330 -634 344.5 -622.5 Q 359 -611 371 -597 Q 384 -611 398.5 -622.5 Q 413 -634 429 -643 Q 445 -652 463 -656.5 Q 481 -661 500 -661 Q 519 -661 537 -656.5 Q 555 -652 571 -643 Q 587 -634 601.5 -622.5 Q 616 -611 629 -597 Q 641 -611 655.5 -622.5 Q 670 -634 686 -643 Q 702 -652 720.5 -656.5 Q 739 -661 757 -661 Q 774 -661 790.5 -657 Q 807 -653 821 -645 L 789 -592 Q 782 -596 773.5 -598.5 Q 765 -601 757 -601 Q 743 -601 730.5 -596 Q 718 -591 707 -583 Q 696 -575 686.5 -565 Q 677 -555 669 -544 Q 688 -514 702 -481.5 Q 716 -449 726 -415 Q 736 -381 740 -346 Q 744 -311 744 -276 Q 744 -256 743.5 -236 Q 743 -216 741 -196.5 Q 739 -177 735.5 -157.5 Q 732 -138 727 -119 Q 722 -100 714.5 -81.5 Q 707 -63 695.5 -47 Q 684 -31 666 -21 Q 648 -11 629 -11 Q 609 -11 591 -21 Q 573 -31 561.5 -47 Q 550 -63 542.5 -81.5 Q 535 -100 530 -119 Q 525 -138 521.5 -157.5 Q 518 -177 516.5 -196.5 Q 515 -216 514 -236 Q 513 -256 513 -276 Q 513 -311 517 -346 Q 521 -381 530.5 -415 Q 540 -449 554.5 -481.5 Q 569 -514 588 -544 Q 580 -555 571 -565 Q 562 -575 551 -583 Q 540 -591 527 -596 Q 514 -601 500 -601 Q 486 -601 473 -596 Q 460 -591 449 -583 Q 438 -575 429 -565 Q 420 -555 412 -544 Q 431 -514 445.5 -481.5 Q 460 -449 469.5 -415 Q 479 -381 483 -346 Q 487 -311 487 -276 Q 487 -256 486 -236 Q 485 -216 483.5 -196.5 Q 482 -177 478.5 -157.5 Q 475 -138 470 -119 Q 465 -100 457.5 -81.5 Q 450 -63 438.5 -47 Q 427 -31 409 -21 Q 391 -11 371 -11 Z M 371 -71 Q 381 -71 387.5 -78.5 Q 394 -86 397.5 -94.5 Q 401 -103 403.5 -112 Q 406 -121 408 -130 Q 410 -139 411.5 -148 Q 413 -157 414 -166 Q 415 -175 416 -184 Q 417 -193 417.5 -202.5 Q 418 -212 418.5 -221 Q 419 -230 419 -239 Q 419 -248 419.5 -257.5 Q 420 -267 420 -276 Q 420 -327 407.5 -377 Q 395 -427 373 -473 Q 362 -450 352.5 -426 Q 343 -402 336 -377.5 Q 329 -353 326 -327 Q 323 -301 323 -276 Q 323 -267 323.5 -257.5 Q 324 -248 324 -239 Q 324 -230 324.5 -221 Q 325 -212 325.5 -202.5 Q 326 -193 327 -184 Q 328 -175 329 -166 Q 330 -157 331.5 -148 Q 333 -139 335 -130 Q 337 -121 339.5 -112 Q 342 -103 345.5 -94.5 Q 349 -86 355.5 -78.5 Q 362 -71 371 -71 Z M 629 -71 Q 638 -71 644.5 -78.5 Q 651 -86 654.5 -94.5 Q 658 -103 660.5 -112 Q 663 -121 665 -130 Q 667 -139 668.5 -148 Q 670 -157 671 -166 Q 672 -175 673 -184 Q 674 -193 674.5 -202.5 Q 675 -212 675.5 -221 Q 676 -230 676 -239 Q 676 -248 676.5 -257.5 Q 677 -267 677 -276 Q 677 -301 674 -327 Q 671 -353 664 -377.5 Q 657 -402 647.5 -426 Q 638 -450 627 -473 Q 605 -427 592.5 -377 Q 580 -327 580 -276 Q 580 -267 580.5 -257.5 Q 581 -248 581 -239 Q 581 -230 581.5 -221 Q 582 -212 582.5 -202.5 Q 583 -193 584 -184 Q 585 -175 586 -166 Q 587 -157 588.5 -148 Q 590 -139 592 -130 Q 594 -121 596.5 -112 Q 599 -103 602.5 -94.5 Q 606 -86 612.5 -78.5 Q 619 -71 629 -71 Z " id="path83"/>
</defs>
<g>
<g data-source-text="0" fill="#20242e" transform="translate(174 41.292) rotate(0) scale(0.023999998)">
<use href="#path1" transform="translate(0 0)"/>
</g>
</g>
<g>
<g data-source-text="1" fill="#20242e" transform="translate(246 41.292) rotate(0) scale(0.023999998)">
<use href="#path2" transform="translate(0 0)"/>
</g>
</g>
<g>
<g data-source-text="2" fill="#20242e" transform="translate(318 41.292) rotate(0) scale(0.023999998)">
<use href="#path3" transform="translate(0 0)"/>
</g>
</g>
<g>
<g data-source-text="3" fill="#20242e" transform="translate(390 41.292) rotate(0) scale(0.023999998)">
<use href="#path4" transform="translate(0 0)"/>
</g>
</g>
<g>
<g data-source-text="4" fill="#20242e" transform="translate(462 41.292) rotate(0) scale(0.023999998)">
<use href="#path5" transform="translate(0 0)"/>
</g>
</g>
<g>
<g data-source-text="5" fill="#20242e" transform="translate(534 41.292) rotate(0) scale(0.023999998)">
<use href="#path6" transform="translate(0 0)"/>
</g>
</g>
<g>
<g data-source-text="6" fill="#20242e" transform="translate(606 41.292) rotate(0) scale(0.023999998)">
<use href="#path7" transform="translate(0 0)"/>
</g>
</g>
<g>
<g data-source-text="7" fill="#20242e" transform="translate(678 41.292) rotate(0) scale(0.023999998)">
<use href="#path8" transform="translate(0 0)"/>
</g>
</g>
<g>
<g data-source-text="8" fill="#20242e" transform="translate(750 41.292) rotate(0) scale(0.023999998)">
<use href="#path9" transform="translate(0 0)"/>
</g>
</g>
<g>
<g data-source-text="9" fill="#20242e" transform="translate(822 41.292) rotate(0) scale(0.023999998)">
<use href="#path10" transform="translate(0 0)"/>
</g>
</g>
<g>
<g data-source-text="A" fill="#20242e" transform="translate(894 41.292) rotate(0) scale(0.023999998)">
<use href="#path11" transform="translate(0 0)"/>
</g>
</g>
<g>
<g data-source-text="B" fill="#20242e" transform="translate(966 41.292) rotate(0) scale(0.023999998)">
<use href="#path12" transform="translate(0 0)"/>
</g>
</g>
<g>
<g data-source-text="C" fill="#20242e" transform="translate(1038 41.292) rotate(0) scale(0.023999998)">
<use href="#path13" transform="translate(0 0)"/>
</g>
</g>
<g>
<g data-source-text="D" fill="#20242e" transform="translate(1110 41.292) rotate(0) scale(0.023999998)">
<use href="#path14" transform="translate(0 0)"/>
</g>
</g>
<g>
<g data-source-text="E" fill="#20242e" transform="translate(1182 41.292) rotate(0) scale(0.023999998)">
<use href="#path15" transform="translate(0 0)"/>
</g>
</g>
<g>
<g data-source-text="F" fill="#20242e" transform="translate(1254 41.292) rotate(0) scale(0.023999998)">
<use href="#path16" transform="translate(0 0)"/>
</g>
</g>
<g>
<g data-source-text="U+2700" fill="#20242e" transform="translate(36 113.292) rotate(0) scale(0.023999998)">
<use href="#path17" transform="translate(0 0)"/>
<use href="#path18" transform="translate(500 0)"/>
<use href="#path3" transform="translate(1000 0)"/>
<use href="#path8" transform="translate(1500 0)"/>
<use href="#path1" transform="translate(2000 0)"/>
<use href="#path1" transform="translate(2500 0)"/>
</g>
</g>
<g>
<g data-source-text="" fill="#20242e40" transform="translate(168 118.584) rotate(0) scale(0.047999997)">
<use href="#path19" transform="translate(0 0)"/>
</g>
</g>
<g>
<g data-source-text="" fill="#20242e40" transform="translate(240 118.584) rotate(0) scale(0.047999997)">
<use href="#path19" transform="translate(0 0)"/>
</g>
</g>
<g>
<g data-source-text="" fill="#20242e40" transform="translate(312 118.584) rotate(0) scale(0.047999997)">
<use href="#path19" transform="translate(0 0)"/>
</g>
</g>
<g>
<g data-source-text="" fill="#20242e40" transform="translate(384 118.584) rotate(0) scale(0.047999997)">
<use href="#path19" transform="translate(0 0)"/>
</g>
</g>
<g>
<g data-source-text="" fill="#20242e40" transform="translate(456 118.584) rotate(0) scale(0.047999997)">
<use href="#path19" transform="translate(0 0)"/>
</g>
</g>
<g>
<g data-source-text="" fill="#20242e40" transform="translate(528 118.584) rotate(0) scale(0.047999997)">
<use href="#path19" transform="translate(0 0)"/>
</g>
</g>
<g>
<g data-source-text="" fill="#20242e40" transform="translate(600 118.584) rotate(0) scale(0.047999997)">
<use href="#path19" transform="translate(0 0)"/>
</g>
</g>
<g>
<g data-source-text="" fill="#20242e40" transform="translate(672 118.584) rotate(0) scale(0.047999997)">
<use href="#path19" transform="translate(0 0)"/>
</g>
</g>
<g>
<g data-source-text="" fill="#20242e40" transform="translate(744 118.584) rotate(0) scale(0.047999997)">
<use href="#path19" transform="translate(0 0)"/>
</g>
</g>
<g>
<g data-source-text="" fill="#20242e40" transform="translate(816 118.584) rotate(0) scale(0.047999997)">
<use href="#path19" transform="translate(0 0)"/>
</g>
</g>
<g>
<g data-source-text="" fill="#20242e40" transform="translate(888 118.584) rotate(0) scale(0.047999997)">
<use href="#path19" transform="translate(0 0)"/>
</g>
</g>
<g>
<g data-source-text="" fill="#20242e40" transform="translate(960 118.584) rotate(0) scale(0.047999997)">
<use href="#path19" transform="translate(0 0)"/>
</g>
</g>
<g>
<g data-source-text="" fill="#20242e40" transform="translate(1032 118.584) rotate(0) scale(0.047999997)">
<use href="#path19" transform="translate(0 0)"/>
</g>
</g>
<g>
<g data-source-text="" fill="#20242e40" transform="translate(1104 118.584) rotate(0) scale(0.047999997)">
<use href="#path19" transform="translate(0 0)"/>
</g>
</g>
<g>
<g data-source-text="" fill="#20242e40" transform="translate(1176 118.584) rotate(0) scale(0.047999997)">
<use href="#path19" transform="translate(0 0)"/>
</g>
</g>
<g>
<g data-source-text="" fill="#20242e40" transform="translate(1248 118.584) rotate(0) scale(0.047999997)">
<use href="#path19" transform="translate(0 0)"/>
</g>
</g>
<g>
<g data-source-text="U+2710" fill="#20242e" transform="translate(36 185.292) rotate(0) scale(0.023999998)">
<use href="#path17" transform="translate(0 0)"/>
<use href="#path18" transform="translate(500 0)"/>
<use href="#path3" transform="translate(1000 0)"/>
<use href="#path8" transform="translate(1500 0)"/>
<use href="#path2" transform="translate(2000 0)"/>
<use href="#path1" transform="translate(2500 0)"/>
</g>
</g>
<g>
<g data-source-text="" fill="#20242e40" transform="translate(168 190.584) rotate(0) scale(0.047999997)">
<use href="#path19" transform="translate(0 0)"/>
</g>
</g>
<g>
<g data-source-text="" fill="#20242e40" transform="translate(240 190.584) rotate(0) scale(0.047999997)">
<use href="#path19" transform="translate(0 0)"/>
</g>
</g>
<g>
<g data-source-text="" fill="#20242e40" transform="translate(312 190.584) rotate(0) scale(0.047999997)">
<use href="#path19" transform="translate(0 0)"/>
</g>
</g>
<g>
<g data-source-text="" fill="#20242e" transform="translate(372 190.584) rotate(0) scale(0.047999997)">
<use href="#path20" transform="translate(0 0)"/>
</g>
</g>
<g>
<g data-source-text="" fill="#20242e" transform="translate(444 190.584) rotate(0) scale(0.047999997)">
<use href="#path21" transform="translate(0 0)"/>
</g>
</g>
<g>
<g data-source-text="" fill="#20242e" transform="translate(516 190.584) rotate(0) scale(0.047999997)">
<use href="#path22" transform="translate(0 0)"/>
</g>
</g>
<g>
<g data-source-text="" fill="#20242e" transform="translate(588 190.584) rotate(0) scale(0.047999997)">
<use href="#path23" transform="translate(0 0)"/>
</g>
</g>
<g>
<g data-source-text="" fill="#20242e" transform="translate(660 190.584) rotate(0) scale(0.047999997)">
<use href="#path24" transform="translate(0 0)"/>
</g>
</g>
<g>
<g data-source-text="" fill="#20242e" transform="translate(732 190.584) rotate(0) scale(0.047999997)">
<use href="#path25" transform="translate(0 0)"/>
</g>
</g>
<g>
<g data-source-text="" fill="#20242e40" transform="translate(816 190.584) rotate(0) scale(0.047999997)">
<use href="#path19" transform="translate(0 0)"/>
</g>
</g>
<g>
<g data-source-text="" fill="#20242e" transform="translate(876 190.584) rotate(0) scale(0.047999997)">
<use href="#path26" transform="translate(0 0)"/>
</g>
</g>
<g>
<g data-source-text="" fill="#20242e40" transform="translate(960 190.584) rotate(0) scale(0.047999997)">
<use href="#path19" transform="translate(0 0)"/>
</g>
</g>
<g>
<g data-source-text="" fill="#20242e40" transform="translate(1032 190.584) rotate(0) scale(0.047999997)">
<use href="#path19" transform="translate(0 0)"/>
</g>
</g>
<g>
<g data-source-text="" fill="#20242e" transform="translate(1092 190.584) rotate(0) scale(0.047999997)">
<use href="#path27" transform="translate(0 0)"/>
</g>
</g>
<g>
<g data-source-text="" fill="#20242e40" transform="translate(1176 190.584) rotate(0) scale(0.047999997)">
<use href="#path19" transform="translate(0 0)"/>
</g>
</g>
<g>
<g data-source-text="" fill="#20242e40" transform="translate(1248 190.584) rotate(0) scale(0.047999997)">
<use href="#path19" transform="translate(0 0)"/>
</g>
</g>
<g>
<g data-source-text="U+2720" fill="#20242e" transform="translate(36 257.292) rotate(0) scale(0.023999998)">
<use href="#path17" transform="translate(0 0)"/>
<use href="#path18" transform="translate(500 0)"/>
<use href="#path3" transform="translate(1000 0)"/>
<use href="#path8" transform="translate(1500 0)"/>
<use href="#path3" transform="translate(2000 0)"/>
<use href="#path1" transform="translate(2500 0)"/>
</g>
</g>
<g>
<g data-source-text="" fill="#20242e40" transform="translate(168 262.584) rotate(0) scale(0.047999997)">
<use href="#path19" transform="translate(0 0)"/>
</g>
</g>
<g>
<g data-source-text="" fill="#20242e" transform="translate(228 262.584) rotate(0) scale(0.047999997)">
<use href="#path28" transform="translate(0 0)"/>
</g>
</g>
<g>
<g data-source-text="" fill="#20242e40" transform="translate(312 262.584) rotate(0) scale(0.047999997)">
<use href="#path19" transform="translate(0 0)"/>
</g>
</g>
<g>
<g data-source-text="" fill="#20242e40" transform="translate(384 262.584) rotate(0) scale(0.047999997)">
<use href="#path19" transform="translate(0 0)"/>
</g>
</g>
<g>
<g data-source-text="" fill="#20242e40" transform="translate(456 262.584) rotate(0) scale(0.047999997)">
<use href="#path19" transform="translate(0 0)"/>
</g>
</g>
<g>
<g data-source-text="" fill="#20242e40" transform="translate(528 262.584) rotate(0) scale(0.047999997)">
<use href="#path19" transform="translate(0 0)"/>
</g>
</g>
<g>
<g data-source-text="" fill="#20242e" transform="translate(588 262.584) rotate(0) scale(0.047999997)">
<use href="#path29" transform="translate(0 0)"/>
</g>
</g>
<g>
<g data-source-text="" fill="#20242e" transform="translate(660 262.584) rotate(0) scale(0.047999997)">
<use href="#path30" transform="translate(0 0)"/>
</g>
</g>
<g>
<g data-source-text="" fill="#20242e40" transform="translate(744 262.584) rotate(0) scale(0.047999997)">
<use href="#path19" transform="translate(0 0)"/>
</g>
</g>
<g>
<g data-source-text="" fill="#20242e40" transform="translate(816 262.584) rotate(0) scale(0.047999997)">
<use href="#path19" transform="translate(0 0)"/>
</g>
</g>
<g>
<g data-source-text="" fill="#20242e40" transform="translate(888 262.584) rotate(0) scale(0.047999997)">
<use href="#path19" transform="translate(0 0)"/>
</g>
</g>
<g>
<g data-source-text="" fill="#20242e40" transform="translate(960 262.584) rotate(0) scale(0.047999997)">
<use href="#path19" transform="translate(0 0)"/>
</g>
</g>
<g>
<g data-source-text="" fill="#20242e40" transform="translate(1032 262.584) rotate(0) scale(0.047999997)">
<use href="#path19" transform="translate(0 0)"/>
</g>
</g>
<g>
<g data-source-text="" fill="#20242e40" transform="translate(1104 262.584) rotate(0) scale(0.047999997)">
<use href="#path19" transform="translate(0 0)"/>
</g>
</g>
<g>
<g data-source-text="" fill="#20242e40" transform="translate(1176 262.584) rotate(0) scale(0.047999997)">
<use href="#path19" transform="translate(0 0)"/>
</g>
</g>
<g>
<g data-source-text="" fill="#20242e40" transform="translate(1248 262.584) rotate(0) scale(0.047999997)">
<use href="#path19" transform="translate(0 0)"/>
</g>
</g>
<g>
<g data-source-text="U+2730" fill="#20242e" transform="translate(36 329.292) rotate(0) scale(0.023999998)">
<use href="#path17" transform="translate(0 0)"/>
<use href="#path18" transform="translate(500 0)"/>
<use href="#path3" transform="translate(1000 0)"/>
<use href="#path8" transform="translate(1500 0)"/>
<use href="#path4" transform="translate(2000 0)"/>
<use href="#path1" transform="translate(2500 0)"/>
</g>
</g>
<g>
<g data-source-text="" fill="#20242e40" transform="translate(168 334.584) rotate(0) scale(0.047999997)">
<use href="#path19" transform="translate(0 0)"/>
</g>
</g>
<g>
<g data-source-text="" fill="#20242e" transform="translate(228 334.584) rotate(0) scale(0.047999997)">
<use href="#path31" transform="translate(0 0)"/>
</g>
</g>
<g>
<g data-source-text="" fill="#20242e40" transform="translate(312 334.584) rotate(0) scale(0.047999997)">
<use href="#path19" transform="translate(0 0)"/>
</g>
</g>
<g>
<g data-source-text="" fill="#20242e" transform="translate(372 334.584) rotate(0) scale(0.047999997)">
<use href="#path32" transform="translate(0 0)"/>
</g>
</g>
<g>
<g data-source-text="" fill="#20242e" transform="translate(444 334.584) rotate(0) scale(0.047999997)">
<use href="#path33" transform="translate(0 0)"/>
</g>
</g>
<g>
<g data-source-text="" fill="#20242e40" transform="translate(528 334.584) rotate(0) scale(0.047999997)">
<use href="#path19" transform="translate(0 0)"/>
</g>
</g>
<g>
<g data-source-text="" fill="#20242e" transform="translate(588 334.584) rotate(0) scale(0.047999997)">
<use href="#path34" transform="translate(0 0)"/>
</g>
</g>
<g>
<g data-source-text="" fill="#20242e" transform="translate(660 334.584) rotate(0) scale(0.047999997)">
<use href="#path35" transform="translate(0 0)"/>
</g>
</g>
<g>
<g data-source-text="" fill="#20242e" transform="translate(732 334.584) rotate(0) scale(0.047999997)">
<use href="#path36" transform="translate(0 0)"/>
</g>
</g>
<g>
<g data-source-text="" fill="#20242e" transform="translate(804 334.584) rotate(0) scale(0.047999997)">
<use href="#path37" transform="translate(0 0)"/>
</g>
</g>
<g>
<g data-source-text="" fill="#20242e" transform="translate(876 334.584) rotate(0) scale(0.047999997)">
<use href="#path38" transform="translate(0 0)"/>
</g>
</g>
<g>
<g data-source-text="" fill="#20242e40" transform="translate(960 334.584) rotate(0) scale(0.047999997)">
<use href="#path19" transform="translate(0 0)"/>
</g>
</g>
<g>
<g data-source-text="" fill="#20242e40" transform="translate(1032 334.584) rotate(0) scale(0.047999997)">
<use href="#path19" transform="translate(0 0)"/>
</g>
</g>
<g>
<g data-source-text="" fill="#20242e40" transform="translate(1104 334.584) rotate(0) scale(0.047999997)">
<use href="#path19" transform="translate(0 0)"/>
</g>
</g>
<g>
<g data-source-text="" fill="#20242e40" transform="translate(1176 334.584) rotate(0) scale(0.047999997)">
<use href="#path19" transform="translate(0 0)"/>
</g>
</g>
<g>
<g data-source-text="" fill="#20242e40" transform="translate(1248 334.584) rotate(0) scale(0.047999997)">
<use href="#path19" transform="translate(0 0)"/>
</g>
</g>
<g>
<g data-source-text="U+2740" fill="#20242e" transform="translate(36 401.292) rotate(0) scale(0.023999998)">
<use href="#path17" transform="translate(0 0)"/>
<use href="#path18" transform="translate(500 0)"/>
<use href="#path3" transform="translate(1000 0)"/>
<use href="#path8" transform="translate(1500 0)"/>
<use href="#path5" transform="translate(2000 0)"/>
<use href="#path1" transform="translate(2500 0)"/>
</g>
</g>
<g>
<g data-source-text="" fill="#20242e40" transform="translate(168 406.584) rotate(0) scale(0.047999997)">
<use href="#path19" transform="translate(0 0)"/>
</g>
</g>
<g>
<g data-source-text="" fill="#20242e40" transform="translate(240 406.584) rotate(0) scale(0.047999997)">
<use href="#path19" transform="translate(0 0)"/>
</g>
</g>
<g>
<g data-source-text="" fill="#20242e40" transform="translate(312 406.584) rotate(0) scale(0.047999997)">
<use href="#path19" transform="translate(0 0)"/>
</g>
</g>
<g>
<g data-source-text="" fill="#20242e40" transform="translate(384 406.584) rotate(0) scale(0.047999997)">
<use href="#path19" transform="translate(0 0)"/>
</g>
</g>
<g>
<g data-source-text="" fill="#20242e40" transform="translate(456 406.584) rotate(0) scale(0.047999997)">
<use href="#path19" transform="translate(0 0)"/>
</g>
</g>
<g>
<g data-source-text="" fill="#20242e40" transform="translate(528 406.584) rotate(0) scale(0.047999997)">
<use href="#path19" transform="translate(0 0)"/>
</g>
</g>
<g>
<g data-source-text="" fill="#20242e40" transform="translate(600 406.584) rotate(0) scale(0.047999997)">
<use href="#path19" transform="translate(0 0)"/>
</g>
</g>
<g>
<g data-source-text="" fill="#20242e40" transform="translate(672 406.584) rotate(0) scale(0.047999997)">
<use href="#path19" transform="translate(0 0)"/>
</g>
</g>
<g>
<g data-source-text="" fill="#20242e40" transform="translate(744 406.584) rotate(0) scale(0.047999997)">
<use href="#path19" transform="translate(0 0)"/>
</g>
</g>
<g>
<g data-source-text="" fill="#20242e40" transform="translate(816 406.584) rotate(0) scale(0.047999997)">
<use href="#path19" transform="translate(0 0)"/>
</g>
</g>
<g>
<g data-source-text="" fill="#20242e40" transform="translate(888 406.584) rotate(0) scale(0.047999997)">
<use href="#path19" transform="translate(0 0)"/>
</g>
</g>
<g>
<g data-source-text="" fill="#20242e40" transform="translate(960 406.584) rotate(0) scale(0.047999997)">
<use href="#path19" transform="translate(0 0)"/>
</g>
</g>
<g>
<g data-source-text="" fill="#20242e" transform="translate(1020 406.584) rotate(0) scale(0.047999997)">
<use href="#path39" transform="translate(0 0)"/>
</g>
</g>
<g>
<g data-source-text="" fill="#20242e40" transform="translate(1104 406.584) rotate(0) scale(0.047999997)">
<use href="#path19" transform="translate(0 0)"/>
</g>
</g>
<g>
<g data-source-text="" fill="#20242e40" transform="translate(1176 406.584) rotate(0) scale(0.047999997)">
<use href="#path19" transform="translate(0 0)"/>
</g>
</g>
<g>
<g data-source-text="" fill="#20242e40" transform="translate(1248 406.584) rotate(0) scale(0.047999997)">
<use href="#path19" transform="translate(0 0)"/>
</g>
</g>
<g>
<g data-source-text="U+2750" fill="#20242e" transform="translate(36 473.292) rotate(0) scale(0.023999998)">
<use href="#path17" transform="translate(0 0)"/>
<use href="#path18" transform="translate(500 0)"/>
<use href="#path3" transform="translate(1000 0)"/>
<use href="#path8" transform="translate(1500 0)"/>
<use href="#path6" transform="translate(2000 0)"/>
<use href="#path1" transform="translate(2500 0)"/>
</g>
</g>
<g>
<g data-source-text="" fill="#20242e40" transform="translate(168 478.584) rotate(0) scale(0.047999997)">
<use href="#path19" transform="translate(0 0)"/>
</g>
</g>
<g>
<g data-source-text="" fill="#20242e40" transform="translate(240 478.584) rotate(0) scale(0.047999997)">
<use href="#path19" transform="translate(0 0)"/>
</g>
</g>
<g>
<g data-source-text="" fill="#20242e40" transform="translate(312 478.584) rotate(0) scale(0.047999997)">
<use href="#path19" transform="translate(0 0)"/>
</g>
</g>
<g>
<g data-source-text="" fill="#20242e40" transform="translate(384 478.584) rotate(0) scale(0.047999997)">
<use href="#path19" transform="translate(0 0)"/>
</g>
</g>
<g>
<g data-source-text="" fill="#20242e40" transform="translate(456 478.584) rotate(0) scale(0.047999997)">
<use href="#path19" transform="translate(0 0)"/>
</g>
</g>
<g>
<g data-source-text="" fill="#20242e40" transform="translate(528 478.584) rotate(0) scale(0.047999997)">
<use href="#path19" transform="translate(0 0)"/>
</g>
</g>
<g>
<g data-source-text="" fill="#20242e" transform="translate(588 478.584) rotate(0) scale(0.047999997)">
<use href="#path40" transform="translate(0 0)"/>
</g>
</g>
<g>
<g data-source-text="" fill="#20242e40" transform="translate(672 478.584) rotate(0) scale(0.047999997)">
<use href="#path19" transform="translate(0 0)"/>
</g>
</g>
<g>
<g data-source-text="" fill="#20242e" transform="translate(732 478.584) rotate(0) scale(0.047999997)">
<use href="#path41" transform="translate(0 0)"/>
</g>
</g>
<g>
<g data-source-text="" fill="#20242e" transform="translate(804 478.584) rotate(0) scale(0.047999997)">
<use href="#path42" transform="translate(0 0)"/>
</g>
</g>
<g>
<g data-source-text="" fill="#20242e" transform="translate(876 478.584) rotate(0) scale(0.047999997)">
<use href="#path43" transform="translate(0 0)"/>
</g>
</g>
<g>
<g data-source-text="" fill="#20242e40" transform="translate(960 478.584) rotate(0) scale(0.047999997)">
<use href="#path19" transform="translate(0 0)"/>
</g>
</g>
<g>
<g data-source-text="" fill="#20242e40" transform="translate(1032 478.584) rotate(0) scale(0.047999997)">
<use href="#path19" transform="translate(0 0)"/>
</g>
</g>
<g>
<g data-source-text="" fill="#20242e40" transform="translate(1104 478.584) rotate(0) scale(0.047999997)">
<use href="#path19" transform="translate(0 0)"/>
</g>
</g>
<g>
<g data-source-text="" fill="#20242e40" transform="translate(1176 478.584) rotate(0) scale(0.047999997)">
<use href="#path19" transform="translate(0 0)"/>
</g>
</g>
<g>
<g data-source-text="" fill="#20242e40" transform="translate(1248 478.584) rotate(0) scale(0.047999997)">
<use href="#path19" transform="translate(0 0)"/>
</g>
</g>
<g>
<g data-source-text="U+2760" fill="#20242e" transform="translate(36 545.292) rotate(0) scale(0.023999998)">
<use href="#path17" transform="translate(0 0)"/>
<use href="#path18" transform="translate(500 0)"/>
<use href="#path3" transform="translate(1000 0)"/>
<use href="#path8" transform="translate(1500 0)"/>
<use href="#path7" transform="translate(2000 0)"/>
<use href="#path1" transform="translate(2500 0)"/>
</g>
</g>
<g>
<g data-source-text="" fill="#20242e40" transform="translate(168 550.584) rotate(0) scale(0.047999997)">
<use href="#path19" transform="translate(0 0)"/>
</g>
</g>
<g>
<g data-source-text="" fill="#20242e40" transform="translate(240 550.584) rotate(0) scale(0.047999997)">
<use href="#path19" transform="translate(0 0)"/>
</g>
</g>
<g>
<g data-source-text="" fill="#20242e40" transform="translate(312 550.584) rotate(0) scale(0.047999997)">
<use href="#path19" transform="translate(0 0)"/>
</g>
</g>
<g>
<g data-source-text="" fill="#20242e40" transform="translate(384 550.584) rotate(0) scale(0.047999997)">
<use href="#path19" transform="translate(0 0)"/>
</g>
</g>
<g>
<g data-source-text="" fill="#20242e" transform="translate(444 550.584) rotate(0) scale(0.047999997)">
<use href="#path44" transform="translate(0 0)"/>
</g>
</g>
<g>
<g data-source-text="" fill="#20242e40" transform="translate(528 550.584) rotate(0) scale(0.047999997)">
<use href="#path19" transform="translate(0 0)"/>
</g>
</g>
<g>
<g data-source-text="" fill="#20242e40" transform="translate(600 550.584) rotate(0) scale(0.047999997)">
<use href="#path19" transform="translate(0 0)"/>
</g>
</g>
<g>
<g data-source-text="" fill="#20242e40" transform="translate(672 550.584) rotate(0) scale(0.047999997)">
<use href="#path19" transform="translate(0 0)"/>
</g>
</g>
<g>
<g data-source-text="" fill="#20242e40" transform="translate(744 550.584) rotate(0) scale(0.047999997)">
<use href="#path19" transform="translate(0 0)"/>
</g>
</g>
<g>
<g data-source-text="" fill="#20242e40" transform="translate(816 550.584) rotate(0) scale(0.047999997)">
<use href="#path19" transform="translate(0 0)"/>
</g>
</g>
<g>
<g data-source-text="" fill="#20242e40" transform="translate(888 550.584) rotate(0) scale(0.047999997)">
<use href="#path19" transform="translate(0 0)"/>
</g>
</g>
<g>
<g data-source-text="" fill="#20242e40" transform="translate(960 550.584) rotate(0) scale(0.047999997)">
<use href="#path19" transform="translate(0 0)"/>
</g>
</g>
<g>
<g data-source-text="" fill="#20242e" transform="translate(1032 550.584) rotate(0) scale(0.047999997)">
<use href="#path45" transform="translate(0 0)"/>
</g>
</g>
<g>
<g data-source-text="" fill="#20242e" transform="translate(1104 550.584) rotate(0) scale(0.047999997)">
<use href="#path46" transform="translate(0 0)"/>
</g>
</g>
<g>
<g data-source-text="" fill="#20242e" transform="translate(1176 550.584) rotate(0) scale(0.047999997)">
<use href="#path47" transform="translate(0 0)"/>
</g>
</g>
<g>
<g data-source-text="" fill="#20242e" transform="translate(1248 550.584) rotate(0) scale(0.047999997)">
<use href="#path48" transform="translate(0 0)"/>
</g>
</g>
<g>
<g data-source-text="U+2770" fill="#20242e" transform="translate(36 617.292) rotate(0) scale(0.023999998)">
<use href="#path17" transform="translate(0 0)"/>
<use href="#path18" transform="translate(500 0)"/>
<use href="#path3" transform="translate(1000 0)"/>
<use href="#path8" transform="translate(1500 0)"/>
<use href="#path8" transform="translate(2000 0)"/>
<use href="#path1" transform="translate(2500 0)"/>
</g>
</g>
<g>
<g data-source-text="" fill="#20242e" transform="translate(168 622.584) rotate(0) scale(0.047999997)">
<use href="#path49" transform="translate(0 0)"/>
</g>
</g>
<g>
<g data-source-text="" fill="#20242e" transform="translate(240 622.584) rotate(0) scale(0.047999997)">
<use href="#path50" transform="translate(0 0)"/>
</g>
</g>
<g>
<g data-source-text="" fill="#20242e40" transform="translate(312 622.584) rotate(0) scale(0.047999997)">
<use href="#path19" transform="translate(0 0)"/>
</g>
</g>
<g>
<g data-source-text="" fill="#20242e40" transform="translate(384 622.584) rotate(0) scale(0.047999997)">
<use href="#path19" transform="translate(0 0)"/>
</g>
</g>
<g>
<g data-source-text="" fill="#20242e40" transform="translate(456 622.584) rotate(0) scale(0.047999997)">
<use href="#path19" transform="translate(0 0)"/>
</g>
</g>
<g>
<g data-source-text="" fill="#20242e40" transform="translate(528 622.584) rotate(0) scale(0.047999997)">
<use href="#path19" transform="translate(0 0)"/>
</g>
</g>
<g>
<g data-source-text="" fill="#20242e" transform="translate(588 622.584) rotate(0) scale(0.047999997)">
<use href="#path51" transform="translate(0 0)"/>
</g>
</g>
<g>
<g data-source-text="" fill="#20242e" transform="translate(660 622.584) rotate(0) scale(0.047999997)">
<use href="#path52" transform="translate(0 0)"/>
</g>
</g>
<g>
<g data-source-text="" fill="#20242e" transform="translate(732 622.584) rotate(0) scale(0.047999997)">
<use href="#path53" transform="translate(0 0)"/>
</g>
</g>
<g>
<g data-source-text="" fill="#20242e" transform="translate(804 622.584) rotate(0) scale(0.047999997)">
<use href="#path54" transform="translate(0 0)"/>
</g>
</g>
<g>
<g data-source-text="" fill="#20242e" transform="translate(876 622.584) rotate(0) scale(0.047999997)">
<use href="#path55" transform="translate(0 0)"/>
</g>
</g>
<g>
<g data-source-text="" fill="#20242e" transform="translate(948 622.584) rotate(0) scale(0.047999997)">
<use href="#path56" transform="translate(0 0)"/>
</g>
</g>
<g>
<g data-source-text="" fill="#20242e" transform="translate(1020 622.584) rotate(0) scale(0.047999997)">
<use href="#path57" transform="translate(0 0)"/>
</g>
</g>
<g>
<g data-source-text="" fill="#20242e" transform="translate(1092 622.584) rotate(0) scale(0.047999997)">
<use href="#path58" transform="translate(0 0)"/>
</g>
</g>
<g>
<g data-source-text="" fill="#20242e" transform="translate(1164 622.584) rotate(0) scale(0.047999997)">
<use href="#path59" transform="translate(0 0)"/>
</g>
</g>
<g>
<g data-source-text="" fill="#20242e" transform="translate(1236 622.584) rotate(0) scale(0.047999997)">
<use href="#path60" transform="translate(0 0)"/>
</g>
</g>
<g>
<g data-source-text="U+2780" fill="#20242e" transform="translate(36 689.292) rotate(0) scale(0.023999998)">
<use href="#path17" transform="translate(0 0)"/>
<use href="#path18" transform="translate(500 0)"/>
<use href="#path3" transform="translate(1000 0)"/>
<use href="#path8" transform="translate(1500 0)"/>
<use href="#path9" transform="translate(2000 0)"/>
<use href="#path1" transform="translate(2500 0)"/>
</g>
</g>
<g>
<g data-source-text="" fill="#20242e" transform="translate(156 694.584) rotate(0) scale(0.047999997)">
<use href="#path61" transform="translate(0 0)"/>
</g>
</g>
<g>
<g data-source-text="" fill="#20242e" transform="translate(228 694.584) rotate(0) scale(0.047999997)">
<use href="#path62" transform="translate(0 0)"/>
</g>
</g>
<g>
<g data-source-text="" fill="#20242e" transform="translate(300 694.584) rotate(0) scale(0.047999997)">
<use href="#path63" transform="translate(0 0)"/>
</g>
</g>
<g>
<g data-source-text="" fill="#20242e" transform="translate(372 694.584) rotate(0) scale(0.047999997)">
<use href="#path64" transform="translate(0 0)"/>
</g>
</g>
<g>
<g data-source-text="" fill="#20242e" transform="translate(444 694.584) rotate(0) scale(0.047999997)">
<use href="#path65" transform="translate(0 0)"/>
</g>
</g>
<g>
<g data-source-text="" fill="#20242e" transform="translate(516 694.584) rotate(0) scale(0.047999997)">
<use href="#path66" transform="translate(0 0)"/>
</g>
</g>
<g>
<g data-source-text="" fill="#20242e" transform="translate(588 694.584) rotate(0) scale(0.047999997)">
<use href="#path67" transform="translate(0 0)"/>
</g>
</g>
<g>
<g data-source-text="" fill="#20242e" transform="translate(660 694.584) rotate(0) scale(0.047999997)">
<use href="#path68" transform="translate(0 0)"/>
</g>
</g>
<g>
<g data-source-text="" fill="#20242e" transform="translate(732 694.584) rotate(0) scale(0.047999997)">
<use href="#path69" transform="translate(0 0)"/>
</g>
</g>
<g>
<g data-source-text="" fill="#20242e" transform="translate(804 694.584) rotate(0) scale(0.047999997)">
<use href="#path70" transform="translate(0 0)"/>
</g>
</g>
<g>
<g data-source-text="" fill="#20242e" transform="translate(876 694.584) rotate(0) scale(0.047999997)">
<use href="#path51" transform="translate(0 0)"/>
</g>
</g>
<g>
<g data-source-text="" fill="#20242e" transform="translate(948 694.584) rotate(0) scale(0.047999997)">
<use href="#path52" transform="translate(0 0)"/>
</g>
</g>
<g>
<g data-source-text="" fill="#20242e" transform="translate(1020 694.584) rotate(0) scale(0.047999997)">
<use href="#path53" transform="translate(0 0)"/>
</g>
</g>
<g>
<g data-source-text="" fill="#20242e" transform="translate(1092 694.584) rotate(0) scale(0.047999997)">
<use href="#path54" transform="translate(0 0)"/>
</g>
</g>
<g>
<g data-source-text="" fill="#20242e" transform="translate(1164 694.584) rotate(0) scale(0.047999997)">
<use href="#path55" transform="translate(0 0)"/>
</g>
</g>
<g>
<g data-source-text="" fill="#20242e" transform="translate(1236 694.584) rotate(0) scale(0.047999997)">
<use href="#path56" transform="translate(0 0)"/>
</g>
</g>
<g>
<g data-source-text="U+2790" fill="#20242e" transform="translate(36 761.292) rotate(0) scale(0.023999998)">
<use href="#path17" transform="translate(0 0)"/>
<use href="#path18" transform="translate(500 0)"/>
<use href="#path3" transform="translate(1000 0)"/>
<use href="#path8" transform="translate(1500 0)"/>
<use href="#path10" transform="translate(2000 0)"/>
<use href="#path1" transform="translate(2500 0)"/>
</g>
</g>
<g>
<g data-source-text="" fill="#20242e" transform="translate(156 766.584) rotate(0) scale(0.047999997)">
<use href="#path57" transform="translate(0 0)"/>
</g>
</g>
<g>
<g data-source-text="" fill="#20242e" transform="translate(228 766.584) rotate(0) scale(0.047999997)">
<use href="#path58" transform="translate(0 0)"/>
</g>
</g>
<g>
<g data-source-text="" fill="#20242e" transform="translate(300 766.584) rotate(0) scale(0.047999997)">
<use href="#path59" transform="translate(0 0)"/>
</g>
</g>
<g>
<g data-source-text="" fill="#20242e" transform="translate(372 766.584) rotate(0) scale(0.047999997)">
<use href="#path60" transform="translate(0 0)"/>
</g>
</g>
<g>
<g data-source-text="" fill="#20242e" transform="translate(444 766.584) rotate(0) scale(0.047999997)">
<use href="#path71" transform="translate(0 0)"/>
</g>
</g>
<g>
<g data-source-text="" fill="#20242e40" transform="translate(528 766.584) rotate(0) scale(0.047999997)">
<use href="#path19" transform="translate(0 0)"/>
</g>
</g>
<g>
<g data-source-text="" fill="#20242e40" transform="translate(600 766.584) rotate(0) scale(0.047999997)">
<use href="#path19" transform="translate(0 0)"/>
</g>
</g>
<g>
<g data-source-text="" fill="#20242e40" transform="translate(672 766.584) rotate(0) scale(0.047999997)">
<use href="#path19" transform="translate(0 0)"/>
</g>
</g>
<g>
<g data-source-text="" fill="#20242e40" transform="translate(744 766.584) rotate(0) scale(0.047999997)">
<use href="#path19" transform="translate(0 0)"/>
</g>
</g>
<g>
<g data-source-text="" fill="#20242e40" transform="translate(816 766.584) rotate(0) scale(0.047999997)">
<use href="#path19" transform="translate(0 0)"/>
</g>
</g>
<g>
<g data-source-text="" fill="#20242e40" transform="translate(888 766.584) rotate(0) scale(0.047999997)">
<use href="#path19" transform="translate(0 0)"/>
</g>
</g>
<g>
<g data-source-text="" fill="#20242e40" transform="translate(960 766.584) rotate(0) scale(0.047999997)">
<use href="#path19" transform="translate(0 0)"/>
</g>
</g>
<g>
<g data-source-text="" fill="#20242e" transform="translate(1020 766.584) rotate(0) scale(0.047999997)">
<use href="#path72" transform="translate(0 0)"/>
</g>
</g>
<g>
<g data-source-text="" fill="#20242e" transform="translate(1092 766.584) rotate(0) scale(0.047999997)">
<use href="#path73" transform="translate(0 0)"/>
</g>
</g>
<g>
<g data-source-text="" fill="#20242e" transform="translate(1164 766.584) rotate(0) scale(0.047999997)">
<use href="#path74" transform="translate(0 0)"/>
</g>
</g>
<g>
<g data-source-text="" fill="#20242e40" transform="translate(1248 766.584) rotate(0) scale(0.047999997)">
<use href="#path19" transform="translate(0 0)"/>
</g>
</g>
<g>
<g data-source-text="U+27A0" fill="#20242e" transform="translate(36 833.292) rotate(0) scale(0.023999998)">
<use href="#path17" transform="translate(0 0)"/>
<use href="#path18" transform="translate(500 0)"/>
<use href="#path3" transform="translate(1000 0)"/>
<use href="#path8" transform="translate(1500 0)"/>
<use href="#path11" transform="translate(2000 0)"/>
<use href="#path1" transform="translate(2500 0)"/>
</g>
</g>
<g>
<g data-source-text="" fill="#20242e40" transform="translate(168 838.584) rotate(0) scale(0.047999997)">
<use href="#path19" transform="translate(0 0)"/>
</g>
</g>
<g>
<g data-source-text="" fill="#20242e" transform="translate(228 838.584) rotate(0) scale(0.047999997)">
<use href="#path75" transform="translate(0 0)"/>
</g>
</g>
<g>
<g data-source-text="" fill="#20242e" transform="translate(300 838.584) rotate(0) scale(0.047999997)">
<use href="#path76" transform="translate(0 0)"/>
</g>
</g>
<g>
<g data-source-text="" fill="#20242e" transform="translate(372 838.584) rotate(0) scale(0.047999997)">
<use href="#path77" transform="translate(0 0)"/>
</g>
</g>
<g>
<g data-source-text="" fill="#20242e" transform="translate(444 838.584) rotate(0) scale(0.047999997)">
<use href="#path78" transform="translate(0 0)"/>
</g>
</g>
<g>
<g data-source-text="" fill="#20242e" transform="translate(516 838.584) rotate(0) scale(0.047999997)">
<use href="#path79" transform="translate(0 0)"/>
</g>
</g>
<g>
<g data-source-text="" fill="#20242e" transform="translate(588 838.584) rotate(0) scale(0.047999997)">
<use href="#path80" transform="translate(0 0)"/>
</g>
</g>
<g>
<g data-source-text="" fill="#20242e" transform="translate(660 838.584) rotate(0) scale(0.047999997)">
<use href="#path81" transform="translate(0 0)"/>
</g>
</g>
<g>
<g data-source-text="" fill="#20242e40" transform="translate(744 838.584) rotate(0) scale(0.047999997)">
<use href="#path19" transform="translate(0 0)"/>
</g>
</g>
<g>
<g data-source-text="" fill="#20242e40" transform="translate(816 838.584) rotate(0) scale(0.047999997)">
<use href="#path19" transform="translate(0 0)"/>
</g>
</g>
<g>
<g data-source-text="" fill="#20242e40" transform="translate(888 838.584) rotate(0) scale(0.047999997)">
<use href="#path19" transform="translate(0 0)"/>
</g>
</g>
<g>
<g data-source-text="" fill="#20242e40" transform="translate(960 838.584) rotate(0) scale(0.047999997)">
<use href="#path19" transform="translate(0 0)"/>
</g>
</g>
<g>
<g data-source-text="" fill="#20242e40" transform="translate(1032 838.584) rotate(0) scale(0.047999997)">
<use href="#path19" transform="translate(0 0)"/>
</g>
</g>
<g>
<g data-source-text="" fill="#20242e40" transform="translate(1104 838.584) rotate(0) scale(0.047999997)">
<use href="#path19" transform="translate(0 0)"/>
</g>
</g>
<g>
<g data-source-text="" fill="#20242e40" transform="translate(1176 838.584) rotate(0) scale(0.047999997)">
<use href="#path19" transform="translate(0 0)"/>
</g>
</g>
<g>
<g data-source-text="" fill="#20242e40" transform="translate(1248 838.584) rotate(0) scale(0.047999997)">
<use href="#path19" transform="translate(0 0)"/>
</g>
</g>
<g>
<g data-source-text="U+27B0" fill="#20242e" transform="translate(36 905.292) rotate(0) scale(0.023999998)">
<use href="#path17" transform="translate(0 0)"/>
<use href="#path18" transform="translate(500 0)"/>
<use href="#path3" transform="translate(1000 0)"/>
<use href="#path8" transform="translate(1500 0)"/>
<use href="#path12" transform="translate(2000 0)"/>
<use href="#path1" transform="translate(2500 0)"/>
</g>
</g>
<g>
<g data-source-text="" fill="#20242e" transform="translate(156 910.584) rotate(0) scale(0.047999997)">
<use href="#path82" transform="translate(0 0)"/>
</g>
</g>
<g>
<g data-source-text="" fill="#20242e40" transform="translate(240 910.584) rotate(0) scale(0.047999997)">
<use href="#path19" transform="translate(0 0)"/>
</g>
</g>
<g>
<g data-source-text="" fill="#20242e40" transform="translate(312 910.584) rotate(0) scale(0.047999997)">
<use href="#path19" transform="translate(0 0)"/>
</g>
</g>
<g>
<g data-source-text="" fill="#20242e40" transform="translate(384 910.584) rotate(0) scale(0.047999997)">
<use href="#path19" transform="translate(0 0)"/>
</g>
</g>
<g>
<g data-source-text="" fill="#20242e40" transform="translate(456 910.584) rotate(0) scale(0.047999997)">
<use href="#path19" transform="translate(0 0)"/>
</g>
</g>
<g>
<g data-source-text="" fill="#20242e40" transform="translate(528 910.584) rotate(0) scale(0.047999997)">
<use href="#path19" transform="translate(0 0)"/>
</g>
</g>
<g>
<g data-source-text="" fill="#20242e40" transform="translate(600 910.584) rotate(0) scale(0.047999997)">
<use href="#path19" transform="translate(0 0)"/>
</g>
</g>
<g>
<g data-source-text="" fill="#20242e40" transform="translate(672 910.584) rotate(0) scale(0.047999997)">
<use href="#path19" transform="translate(0 0)"/>
</g>
</g>
<g>
<g data-source-text="" fill="#20242e40" transform="translate(744 910.584) rotate(0) scale(0.047999997)">
<use href="#path19" transform="translate(0 0)"/>
</g>
</g>
<g>
<g data-source-text="" fill="#20242e40" transform="translate(816 910.584) rotate(0) scale(0.047999997)">
<use href="#path19" transform="translate(0 0)"/>
</g>
</g>
<g>
<g data-source-text="" fill="#20242e40" transform="translate(888 910.584) rotate(0) scale(0.047999997)">
<use href="#path19" transform="translate(0 0)"/>
</g>
</g>
<g>
<g data-source-text="" fill="#20242e40" transform="translate(960 910.584) rotate(0) scale(0.047999997)">
<use href="#path19" transform="translate(0 0)"/>
</g>
</g>
<g>
<g data-source-text="" fill="#20242e40" transform="translate(1032 910.584) rotate(0) scale(0.047999997)">
<use href="#path19" transform="translate(0 0)"/>
</g>
</g>
<g>
<g data-source-text="" fill="#20242e40" transform="translate(1104 910.584) rotate(0) scale(0.047999997)">
<use href="#path19" transform="translate(0 0)"/>
</g>
</g>
<g>
<g data-source-text="" fill="#20242e40" transform="translate(1176 910.584) rotate(0) scale(0.047999997)">
<use href="#path19" transform="translate(0 0)"/>
</g>
</g>
<g>
<g data-source-text="" fill="#20242e" transform="translate(1236 910.584) rotate(0) scale(0.047999997)">
<use href="#path83" transform="translate(0 0)"/>
</g>
</g>
</svg>