<?xml version="1.0" encoding="UTF-8" standalone="no"?>
<svg height="360" viewBox="0 0 1296 360" width="1296" xmlns="http://www.w3.org/2000/svg">
<defs>
<path d="M 250 8 Q 223 8 196 3 Q 169 -2 145 -15 Q 121 -28 102.5 -48.5 Q 84 -69 72.5 -94 Q 61 -119 56.5 -146 Q 52 -173 52 -200 L 52 -535 Q 52 -562 56.5 -589 Q 61 -616 72.5 -641 Q 84 -666 102.5 -686.5 Q 121 -707 145 -720 Q 169 -733 196 -738 Q 223 -743 250 -743 Q 277 -743 304 -738 Q 331 -733 355 -720 Q 379 -707 397.5 -686.5 Q 416 -666 427.5 -641 Q 439 -616 443.5 -589 Q 448 -562 448 -535 L 448 -200 Q 448 -173 443.5 -146 Q 439 -119 427.5 -94 Q 416 -69 397.5 -48.5 Q 379 -28 355 -15 Q 331 -2 304 3 Q 277 8 250 8 Z M 152 -338 L 348 -493 L 348 -535 Q 348 -557 343 -579 Q 338 -601 325.5 -618.5 Q 313 -636 292.5 -645.5 Q 272 -655 250 -655 Q 228 -655 207.5 -645.5 Q 187 -636 174.5 -618.5 Q 162 -601 157 -579 Q 152 -557 152 -535 Z M 250 -80 Q 272 -80 292.5 -89.5 Q 313 -99 325.5 -116.5 Q 338 -134 343 -156 Q 348 -178 348 -200 L 348 -397 L 152 -242 L 152 -200 Q 152 -178 157 -156 Q 162 -134 174.5 -116.5 Q 187 -99 207.5 -89.5 Q 228 -80 250 -80 Z " id="path1"/>
<path d="M 230 0 L 230 -632 L 110 -528 L 55 -584 L 230 -735 L 330 -735 L 330 0 Z " id="path2"/>
<path d="M 60 0 L 60 -1 Q 60 -27 61 -54 Q 62 -81 65.5 -107 Q 69 -133 77 -158.5 Q 85 -184 96.5 -208 Q 108 -232 123 -253.5 Q 138 -275 156 -294.5 Q 174 -314 194 -331 Q 214 -348 235.5 -364 Q 257 -380 277.5 -397 Q 298 -414 313 -435.5 Q 328 -457 336 -483 Q 344 -509 344 -535 Q 344 -557 339.5 -578 Q 335 -599 323.5 -617 Q 312 -635 292 -645 Q 272 -655 251 -655 Q 231 -655 212.5 -647.5 Q 194 -640 181.5 -625 Q 169 -610 163.5 -591 Q 158 -572 158 -552 L 158 -548 L 58 -548 L 58 -555 Q 58 -581 63.5 -606 Q 69 -631 81 -653 Q 93 -675 111.5 -693 Q 130 -711 152.5 -722.5 Q 175 -734 200.5 -738.5 Q 226 -743 251 -743 Q 278 -743 304.5 -737.5 Q 331 -732 354.5 -719 Q 378 -706 396 -685.5 Q 414 -665 425 -640.5 Q 436 -616 440 -589 Q 444 -562 444 -535 Q 444 -501 435 -468 Q 426 -435 407.5 -406 Q 389 -377 364 -353.5 Q 339 -330 312.5 -308.5 Q 286 -287 261 -264 Q 236 -241 216 -213 Q 196 -185 183 -153.5 Q 170 -122 165 -88 L 440 -88 L 440 0 Z " id="path3"/>
<path d="M 253 8 Q 227 8 201 4 Q 175 -0 151 -11.5 Q 127 -23 107.5 -40.5 Q 88 -58 75.5 -81 Q 63 -104 56.5 -129.5 Q 50 -155 50 -181 L 50 -187 L 150 -187 L 150 -184 Q 150 -163 157 -143 Q 164 -123 178 -108 Q 192 -93 212 -86.5 Q 232 -80 253 -80 Q 275 -80 296 -88.5 Q 317 -97 330.5 -114.5 Q 344 -132 350 -154 Q 356 -176 356 -198 Q 356 -217 352 -235.5 Q 348 -254 339 -271 Q 330 -288 316.5 -301 Q 303 -314 286 -322 Q 269 -330 250 -332 Q 231 -334 212 -334 L 212 -422 Q 229 -422 246 -424 Q 263 -426 278.5 -433 Q 294 -440 306 -452.5 Q 318 -465 325.5 -480.5 Q 333 -496 336.5 -513 Q 340 -530 340 -547 Q 340 -566 335.5 -585.5 Q 331 -605 320 -621.5 Q 309 -638 291 -646.5 Q 273 -655 253 -655 Q 234 -655 216 -647 Q 198 -639 187 -624 Q 176 -609 171 -590 Q 166 -571 166 -553 L 166 -548 L 66 -548 L 66 -556 Q 66 -581 71.5 -605.5 Q 77 -630 88 -652 Q 99 -674 116.5 -692.5 Q 134 -711 156.5 -722.5 Q 179 -734 203.5 -738.5 Q 228 -743 253 -743 Q 278 -743 303.5 -738 Q 329 -733 351 -721 Q 373 -709 390.5 -690 Q 408 -671 419 -648 Q 430 -625 435 -600 Q 440 -575 440 -550 Q 440 -524 434 -498.5 Q 428 -473 416 -450.5 Q 404 -428 385 -409.5 Q 366 -391 343 -379 Q 370 -368 391.5 -348.5 Q 413 -329 427.5 -304.5 Q 442 -280 449 -252 Q 456 -224 456 -196 Q 456 -168 450 -141.5 Q 444 -115 432 -91 Q 420 -67 401 -47 Q 382 -27 358 -14.5 Q 334 -2 307 3 Q 280 8 253 8 Z " id="path4"/>
<path d="M 282 0 L 282 -188 L 52 -188 L 52 -275 L 276 -735 L 377 -735 L 152 -275 L 282 -275 L 282 -435 L 383 -435 L 383 -275 L 440 -275 L 440 -188 L 383 -188 L 383 0 Z " id="path5"/>
<path d="M 252 8 Q 227 8 202.5 3.5 Q 178 -1 155.5 -12 Q 133 -23 114.5 -41 Q 96 -59 84 -80.5 Q 72 -102 65.5 -126.5 Q 59 -151 58 -176 L 159 -176 Q 160 -158 166.5 -139.5 Q 173 -121 185.5 -107 Q 198 -93 216 -86.5 Q 234 -80 252 -80 Q 269 -80 285 -87 Q 301 -94 312.5 -107 Q 324 -120 330.5 -135.5 Q 337 -151 341 -167.5 Q 345 -184 346.5 -201 Q 348 -218 348 -235 Q 348 -252 346.5 -269 Q 345 -286 341.5 -302.5 Q 338 -319 331.5 -334.5 Q 325 -350 314.5 -363 Q 304 -376 288 -383.5 Q 272 -391 256 -391 Q 240 -391 224 -387 Q 208 -383 195.5 -373.5 Q 183 -364 176 -349.5 Q 169 -335 168 -319 L 68 -319 L 68 -735 L 421 -735 L 421 -647 L 168 -647 L 168 -464 Q 189 -472 211 -475 Q 233 -478 256 -478 Q 285 -478 313.5 -470.5 Q 342 -463 365.5 -445.5 Q 389 -428 405.5 -403 Q 422 -378 431.5 -350.5 Q 441 -323 444.5 -294 Q 448 -265 448 -235 Q 448 -206 444.5 -176.5 Q 441 -147 431 -119 Q 421 -91 404.5 -66.5 Q 388 -42 364 -24.5 Q 340 -7 311 0.5 Q 282 8 252 8 Z " id="path6"/>
<path d="M 250 8 Q 221 8 192.5 1.5 Q 164 -5 140 -21 Q 116 -37 98.5 -60.5 Q 81 -84 70.5 -111 Q 60 -138 56 -166.5 Q 52 -195 52 -224 Q 52 -268 59.5 -311 Q 67 -354 81 -395.5 Q 95 -437 113 -477 Q 131 -517 150 -556 L 238 -735 L 347 -735 L 240 -517 Q 228 -492 216 -467 Q 204 -442 194 -416 Q 212 -436 238.5 -446 Q 265 -456 292 -456 Q 318 -456 343.5 -447 Q 369 -438 387.5 -419.5 Q 406 -401 418 -377 Q 430 -353 436.5 -328 Q 443 -303 445.5 -276.5 Q 448 -250 448 -224 Q 448 -195 444 -166.5 Q 440 -138 429.5 -111 Q 419 -84 401.5 -60.5 Q 384 -37 360 -21 Q 336 -5 307.5 1.5 Q 279 8 250 8 Z M 250 -80 Q 266 -80 282 -85.5 Q 298 -91 309.5 -102.5 Q 321 -114 328.5 -129 Q 336 -144 340.5 -159.5 Q 345 -175 346.5 -191.5 Q 348 -208 348 -224 Q 348 -240 346.5 -256.5 Q 345 -273 340.5 -289 Q 336 -305 328.5 -319.5 Q 321 -334 309.5 -345.5 Q 298 -357 282 -362.5 Q 266 -368 250 -368 Q 235 -368 221 -363.5 Q 207 -359 195.5 -349.5 Q 184 -340 176 -327.5 Q 168 -315 163.5 -301 Q 159 -287 156.5 -272.5 Q 154 -258 153 -243 Q 153 -238 152.5 -233.5 Q 152 -229 152 -224 Q 152 -208 153.5 -191.5 Q 155 -175 159.5 -159.5 Q 164 -144 171.5 -129 Q 179 -114 190.5 -102.5 Q 202 -91 218 -85.5 Q 234 -80 250 -80 Z " id="path7"/>
<path d="M 138 0 L 336 -647 L 60 -647 L 60 -735 L 440 -735 L 440 -647 L 242 0 Z " id="path8"/>
<path d="M 250 8 Q 225 8 200 4 Q 175 -0 152 -10 Q 129 -20 109.5 -37 Q 90 -54 77.5 -75.5 Q 65 -97 58.5 -121.5 Q 52 -146 52 -172 Q 52 -203 61.5 -232.5 Q 71 -262 88 -288.5 Q 105 -315 127 -336.5 Q 149 -358 174 -378 Q 152 -396 132.5 -417 Q 113 -438 98.5 -462.5 Q 84 -487 76 -514.5 Q 68 -542 68 -570 Q 68 -594 73.5 -617.5 Q 79 -641 90.5 -661.5 Q 102 -682 119.5 -698.5 Q 137 -715 158 -725 Q 179 -735 202.5 -739 Q 226 -743 250 -743 Q 274 -743 297.5 -739 Q 321 -735 342 -725 Q 363 -715 380.5 -698.5 Q 398 -682 409.5 -661.5 Q 421 -641 426.5 -617.5 Q 432 -594 432 -570 Q 432 -542 424 -514.5 Q 416 -487 401.5 -462.5 Q 387 -438 367.5 -417 Q 348 -396 326 -378 Q 351 -358 373 -336.5 Q 395 -315 412 -288.5 Q 429 -262 438.5 -232.5 Q 448 -203 448 -172 Q 448 -146 441.5 -121.5 Q 435 -97 422.5 -75.5 Q 410 -54 390.5 -37 Q 371 -20 348 -10 Q 325 -0 300 4 Q 275 8 250 8 Z M 250 -434 Q 266 -447 280.5 -461.5 Q 295 -476 306.5 -493 Q 318 -510 325 -529.5 Q 332 -549 332 -569 Q 332 -586 327 -602.5 Q 322 -619 310.5 -631.5 Q 299 -644 283 -649.5 Q 267 -655 250 -655 Q 233 -655 217 -649.5 Q 201 -644 189.5 -631.5 Q 178 -619 173 -602.5 Q 168 -586 168 -569 Q 168 -549 175 -529.5 Q 182 -510 193.5 -493 Q 205 -476 219.5 -461.5 Q 234 -447 250 -434 Z M 250 -80 Q 269 -80 288 -85.5 Q 307 -91 320.5 -104 Q 334 -117 341 -135.5 Q 348 -154 348 -173 Q 348 -196 339.5 -217.5 Q 331 -239 317 -257.5 Q 303 -276 285.5 -291 Q 268 -306 250 -320 Q 232 -306 214.5 -291 Q 197 -276 183 -257.5 Q 169 -239 160.5 -217.5 Q 152 -196 152 -173 Q 152 -154 159 -135.5 Q 166 -117 179.5 -104 Q 193 -91 212 -85.5 Q 231 -80 250 -80 Z " id="path9"/>
<path d="M 262 0 L 153 0 L 260 -218 Q 272 -243 284 -268 Q 296 -293 306 -319 Q 288 -299 261.5 -289 Q 235 -279 208 -279 Q 182 -279 156.5 -288 Q 131 -297 112.5 -315.5 Q 94 -334 82 -358 Q 70 -382 63.5 -407 Q 57 -432 54.5 -458.5 Q 52 -485 52 -511 Q 52 -540 56 -568.5 Q 60 -597 70.5 -624 Q 81 -651 98.5 -674.5 Q 116 -698 140 -714 Q 164 -730 192.5 -736.5 Q 221 -743 250 -743 Q 279 -743 307.5 -736.5 Q 336 -730 360 -714 Q 384 -698 401.5 -674.5 Q 419 -651 429.5 -624 Q 440 -597 444 -568.5 Q 448 -540 448 -511 Q 448 -467 440.5 -424 Q 433 -381 419 -339.5 Q 405 -298 387 -258 Q 369 -218 350 -179 Z M 250 -367 Q 265 -367 279 -371.5 Q 293 -376 304.5 -385.5 Q 316 -395 324 -407.5 Q 332 -420 336.5 -434 Q 341 -448 343.5 -462.5 Q 346 -477 347 -492 Q 347 -497 347.5 -501.5 Q 348 -506 348 -511 Q 348 -527 346.5 -543.5 Q 345 -560 340.5 -575.5 Q 336 -591 328.5 -606 Q 321 -621 309.5 -632.5 Q 298 -644 282 -649.5 Q 266 -655 250 -655 Q 234 -655 218 -649.5 Q 202 -644 190.5 -632.5 Q 179 -621 171.5 -606 Q 164 -591 159.5 -575.5 Q 155 -560 153.5 -543.5 Q 152 -527 152 -511 Q 152 -495 153.5 -478.5 Q 155 -462 159.5 -446 Q 164 -430 171.5 -415.5 Q 179 -401 190.5 -389.5 Q 202 -378 218 -372.5 Q 234 -367 250 -367 Z " id="path10"/>
<path d="M 39 0 L 53 -70 L 192 -735 L 308 -735 L 461 0 L 359 0 L 326 -172 L 174 -172 L 141 0 Z M 310 -260 L 267 -490 Q 263 -513 258.5 -536 Q 254 -559 250 -582 Q 246 -559 241.5 -536 Q 237 -513 233 -490 L 190 -260 Z " id="path11"/>
<path d="M 60 0 L 60 -735 L 235 -735 Q 261 -735 287 -730.5 Q 313 -726 336.5 -714 Q 360 -702 378.5 -682.5 Q 397 -663 408.5 -639.5 Q 420 -616 424.5 -590 Q 429 -564 429 -538 Q 429 -515 425.5 -492 Q 422 -469 411.5 -448.5 Q 401 -428 384.5 -411 Q 368 -394 348 -383 Q 373 -373 394.5 -355.5 Q 416 -338 430.5 -314.5 Q 445 -291 450.5 -264 Q 456 -237 456 -210 Q 456 -181 450.5 -152.5 Q 445 -124 431 -98.5 Q 417 -73 395.5 -53.5 Q 374 -34 347.5 -21.5 Q 321 -9 292.5 -4.5 Q 264 -0 235 0 Z M 160 -424 L 235 -424 Q 256 -424 275.5 -432.5 Q 295 -441 307.5 -457.5 Q 320 -474 324.5 -494.5 Q 329 -515 329 -536 Q 329 -557 324.5 -577.5 Q 320 -598 307.5 -614.5 Q 295 -631 275.5 -639 Q 256 -647 235 -647 L 160 -647 Z M 160 -88 L 235 -88 Q 251 -88 267.5 -91 Q 284 -94 298.5 -101.5 Q 313 -109 324.5 -121 Q 336 -133 343 -148 Q 350 -163 353 -179 Q 356 -195 356 -212 Q 356 -228 353 -244.5 Q 350 -261 343 -276 Q 336 -291 324.5 -303 Q 313 -315 298.5 -322.5 Q 284 -330 267.5 -333 Q 251 -336 235 -336 L 160 -336 Z " id="path12"/>
<path d="M 247 8 Q 220 8 193 3 Q 166 -2 142.5 -15.5 Q 119 -29 101 -49.5 Q 83 -70 71.5 -94.5 Q 60 -119 56 -146 Q 52 -173 52 -200 L 52 -535 Q 52 -562 56 -589 Q 60 -616 71.5 -640.5 Q 83 -665 101 -685.5 Q 119 -706 142.5 -719.5 Q 166 -733 193 -738 Q 220 -743 247 -743 Q 273 -743 298 -738.5 Q 323 -734 346 -723 Q 369 -712 387.5 -694 Q 406 -676 418 -653.5 Q 430 -631 436 -606 Q 442 -581 442 -555 L 442 -548 L 342 -548 L 342 -552 Q 342 -572 336 -591.5 Q 330 -611 317.5 -626 Q 305 -641 286 -648 Q 267 -655 247 -655 Q 225 -655 205 -645.5 Q 185 -636 173 -618 Q 161 -600 156.5 -578.5 Q 152 -557 152 -535 L 152 -200 Q 152 -178 156.5 -156.5 Q 161 -135 173 -117 Q 185 -99 205 -89.5 Q 225 -80 247 -80 Q 267 -80 286 -87 Q 305 -94 317.5 -109 Q 330 -124 336 -143.5 Q 342 -163 342 -183 L 342 -187 L 442 -187 L 442 -180 Q 442 -154 436 -129 Q 430 -104 418 -81.5 Q 406 -59 387.5 -41 Q 369 -23 346 -12 Q 323 -1 298 3.5 Q 273 8 247 8 Z " id="path13"/>
<path d="M 60 0 L 60 -735 L 220 -735 Q 250 -735 280.5 -730.5 Q 311 -726 339 -713.5 Q 367 -701 390.5 -680 Q 414 -659 429 -632.5 Q 444 -606 450 -575.5 Q 456 -545 456 -515 L 456 -220 Q 456 -190 450 -159.5 Q 444 -129 429 -102.5 Q 414 -76 390.5 -55 Q 367 -34 339 -21.5 Q 311 -9 280.5 -4.5 Q 250 -0 220 0 Z M 160 -88 L 220 -88 Q 238 -88 256 -91 Q 274 -94 290 -101.5 Q 306 -109 319 -122 Q 332 -135 340.5 -151 Q 349 -167 352.5 -184.5 Q 356 -202 356 -220 L 356 -515 Q 356 -533 352.5 -550.5 Q 349 -568 340.5 -584 Q 332 -600 319 -613 Q 306 -626 290 -633.5 Q 274 -641 256 -644 Q 238 -647 220 -647 L 160 -647 Z " id="path14"/>
<path d="M 68 0 L 68 -735 L 440 -735 L 440 -647 L 168 -647 L 168 -426 L 383 -426 L 383 -338 L 168 -338 L 168 -88 L 440 -88 L 440 0 Z " id="path15"/>
<path d="M 90 0 L 90 -735 L 440 -735 L 440 -647 L 190 -647 L 190 -426 L 383 -426 L 383 -338 L 190 -338 L 190 0 Z " id="path16"/>
<path d="M 250 8 Q 223 8 196.5 2.5 Q 170 -3 147 -16.5 Q 124 -30 106.5 -50.5 Q 89 -71 78.5 -95.5 Q 68 -120 64 -146.5 Q 60 -173 60 -200 L 60 -735 L 160 -735 L 160 -200 Q 160 -186 161.5 -172 Q 163 -158 167.5 -144.5 Q 172 -131 179.5 -118.5 Q 187 -106 197.5 -97 Q 208 -88 222 -84 Q 236 -80 250 -80 Q 264 -80 278 -84 Q 292 -88 302.5 -97 Q 313 -106 320.5 -118.5 Q 328 -131 332.5 -144.5 Q 337 -158 338.5 -172 Q 340 -186 340 -200 L 340 -735 L 440 -735 L 440 -200 Q 440 -173 436 -146.5 Q 432 -120 421.5 -95.5 Q 411 -71 393.5 -50.5 Q 376 -30 353 -16.5 Q 330 -3 303.5 2.5 Q 277 8 250 8 Z " id="path17"/>
<path d="M 296 -142 L 204 -142 L 204 -300 L 60 -300 L 60 -380 L 204 -380 L 204 -538 L 296 -538 L 296 -380 L 440 -380 L 440 -300 L 296 -300 Z " id="path18"/>
<path d="M 90 -323 L 155 -687 L 223 -687 L 250 -536 L 277 -687 L 345 -687 L 367 -566 L 410 -323 L 348 -323 L 330 -439 L 292 -439 L 281 -363 L 288 -323 L 225 -323 L 208 -439 L 170 -439 L 152 -323 Z M 301 -492 L 321 -492 L 311 -559 Z M 179 -492 L 199 -492 L 189 -559 Z " id="path19"/>
<path d="M 250 -520 L 168 -687 L 332 -687 Z M 168 -323 L 250 -490 L 332 -323 Z " id="path20"/>
<path d="M 250 -520 L 168 -687 L 332 -687 Z " id="path21"/>
<path d="M 190 -317 Q 170 -317 151 -325.5 Q 132 -334 120 -350 Q 108 -366 103.5 -386 Q 99 -406 99 -426 Q 99 -448 104.5 -469.5 Q 110 -491 124 -508 Q 138 -525 159 -532.5 Q 180 -540 202 -540 L 219 -540 L 219 -610 Q 219 -615 217.5 -620 Q 216 -625 212 -629 Q 208 -633 203 -634.5 Q 198 -636 193 -636 Q 185 -636 179.5 -630.5 Q 174 -625 171 -618 Q 168 -611 167 -603.5 Q 166 -596 166 -588 L 166 -586 L 104 -586 L 104 -591 Q 104 -610 109 -629 Q 114 -648 125.5 -663 Q 137 -678 155.5 -685.5 Q 174 -693 193 -693 Q 209 -693 224.5 -689 Q 240 -685 253 -676 Q 265 -685 279.5 -689 Q 294 -693 310 -693 Q 329 -693 347.5 -686 Q 366 -679 378.5 -664.5 Q 391 -650 396 -631 Q 401 -612 401 -592 L 401 -477 L 281 -477 L 281 -418 Q 281 -410 282 -403 Q 283 -396 286.5 -389.5 Q 290 -383 296 -378.5 Q 302 -374 309 -374 Q 317 -374 322.5 -379.5 Q 328 -385 331 -392 Q 334 -399 335 -406.5 Q 336 -414 336 -422 L 336 -425 L 399 -425 L 399 -419 Q 399 -400 394 -381 Q 389 -362 377 -347 Q 365 -332 346.5 -324.5 Q 328 -317 309 -317 Q 293 -317 277 -322 Q 261 -327 248 -338 Q 237 -327 221.5 -322 Q 206 -317 190 -317 Z M 281 -533 L 338 -533 L 338 -592 Q 338 -600 337 -607 Q 336 -614 332.5 -620.5 Q 329 -627 323 -631.5 Q 317 -636 310 -636 Q 302 -636 296 -631.5 Q 290 -627 287 -620.5 Q 284 -614 282.5 -607 Q 281 -600 281 -592 Z M 190 -374 Q 199 -374 205 -381 Q 211 -388 214 -396.5 Q 217 -405 218 -414 Q 219 -423 219 -432 L 219 -484 L 202 -484 Q 192 -484 183.5 -479 Q 175 -474 170 -466 Q 165 -458 163.5 -448.5 Q 162 -439 162 -429 Q 162 -421 163 -412.5 Q 164 -404 167 -395.5 Q 170 -387 176 -380.5 Q 182 -374 190 -374 Z " id="path22"/>
<path d="M 109 -323 L 109 -687 L 266 -687 Q 288 -687 309.5 -682 Q 331 -677 348.5 -663 Q 366 -649 374.5 -628 Q 383 -607 383 -585 Q 383 -575 381 -564 Q 379 -553 374 -543.5 Q 369 -534 361.5 -526.5 Q 354 -519 345 -514 Q 357 -508 368.5 -500.5 Q 380 -493 388 -482 Q 396 -471 399.5 -457.5 Q 403 -444 403 -431 Q 403 -406 391.5 -383.5 Q 380 -361 359.5 -347 Q 339 -333 314.5 -328 Q 290 -323 266 -323 Z M 177 -542 L 266 -542 Q 275 -542 284 -544 Q 293 -546 300 -552 Q 307 -558 310.5 -566.5 Q 314 -575 314 -584 Q 314 -593 310.5 -601.5 Q 307 -610 300 -615.5 Q 293 -621 284 -623 Q 275 -625 266 -625 L 177 -625 Z M 177 -385 L 266 -385 Q 277 -385 289 -387 Q 301 -389 311 -394.5 Q 321 -400 327.5 -410 Q 334 -420 334 -432 Q 334 -444 327.5 -454.5 Q 321 -465 311 -470.5 Q 301 -476 289.5 -478 Q 278 -480 266 -480 L 177 -480 Z " id="path23"/>
<path d="M 109 -712 Q 109 -730 112 -748 Q 115 -766 123.5 -781.5 Q 132 -797 145 -809.5 Q 158 -822 174.5 -829.5 Q 191 -837 208.5 -840 Q 226 -843 244 -843 L 245 -843 L 245 -781 L 244 -781 Q 231 -781 217.5 -776.5 Q 204 -772 195 -762.5 Q 186 -753 182 -739.5 Q 178 -726 178 -712 Z M 282 -317 Q 265 -317 248 -321.5 Q 231 -326 217.5 -335.5 Q 204 -345 194 -359 Q 184 -373 178 -389 L 178 -323 L 109 -323 L 109 -712 L 178 -712 L 178 -621 Q 184 -637 194 -651 Q 204 -665 217.5 -674.5 Q 231 -684 248 -688.5 Q 265 -693 282 -693 Q 299 -693 316.5 -688 Q 334 -683 348 -672.5 Q 362 -662 371.5 -647.5 Q 381 -633 387 -616.5 Q 393 -600 395 -582.5 Q 397 -565 397 -547 L 397 -463 Q 397 -445 395 -427.5 Q 393 -410 387 -393.5 Q 381 -377 371.5 -362.5 Q 362 -348 348 -337.5 Q 334 -327 316.5 -322 Q 299 -317 282 -317 Z M 253 -380 Q 269 -380 284 -385.5 Q 299 -391 309.5 -403.5 Q 320 -416 324 -431.5 Q 328 -447 328 -463 L 328 -547 Q 328 -563 324 -578.5 Q 320 -594 309.5 -606.5 Q 299 -619 284 -624.5 Q 269 -630 253 -630 Q 237 -630 221.5 -624.5 Q 206 -619 196 -606.5 Q 186 -594 182 -578.5 Q 178 -563 178 -547 L 178 -463 Q 178 -447 182 -431.5 Q 186 -416 196 -403.5 Q 206 -391 221.5 -385.5 Q 237 -380 253 -380 Z " id="path24"/>
<path d="M 64 0 L 64 -735 L 436 -735 L 436 0 Z M 104 -333 L 394 -695 L 300 -695 L 104 -450 Z M 104 -489 L 269 -695 L 175 -695 L 104 -606 Z M 104 -645 L 144 -695 L 104 -695 Z M 104 -176 L 396 -543 L 396 -660 L 104 -294 Z M 104 -40 L 119 -40 L 396 -386 L 396 -504 L 104 -137 Z M 150 -40 L 244 -40 L 396 -230 L 396 -347 Z M 275 -40 L 369 -40 L 396 -74 L 396 -191 Z " id="path25"/>
<path d="M 120 -317 Q 105 -317 91 -324.5 Q 77 -332 67.5 -344.5 Q 58 -357 53 -371.5 Q 48 -386 44.5 -401.5 Q 41 -417 40 -432.5 Q 39 -448 39 -463 L 39 -547 Q 39 -562 40 -577.5 Q 41 -593 44.5 -608.5 Q 48 -624 53 -638.5 Q 58 -653 67.5 -665.5 Q 77 -678 91 -685.5 Q 105 -693 120 -693 Q 134 -693 146.5 -687.5 Q 159 -682 168 -672 Q 177 -662 183 -649.5 Q 189 -637 193 -624 L 193 -838 L 262 -838 L 262 -323 L 193 -323 L 193 -386 Q 189 -373 183 -360.5 Q 177 -348 168 -338 Q 159 -328 146.5 -322.5 Q 134 -317 120 -317 Z M 150 -380 Q 163 -380 172.5 -390 Q 182 -400 186 -412 Q 190 -424 191.5 -437 Q 193 -450 193 -463 L 193 -547 Q 193 -560 191.5 -573 Q 190 -586 186 -598 Q 182 -610 172.5 -620 Q 163 -630 151 -630 Q 138 -630 128.5 -620 Q 119 -610 115 -598 Q 111 -586 109.5 -573 Q 108 -560 108 -547 L 108 -463 Q 108 -450 109.5 -437 Q 111 -424 115 -412 Q 119 -400 128.5 -390 Q 138 -380 150 -380 Z M 238 -323 L 238 -385 L 384 -625 L 238 -625 L 238 -687 L 455 -687 L 455 -625 L 309 -385 L 455 -385 L 455 -323 Z " id="path26"/>
<path d="M 120 -317 Q 105 -317 91 -324.5 Q 77 -332 67.5 -344.5 Q 58 -357 53 -371.5 Q 48 -386 44.5 -401.5 Q 41 -417 40 -432.5 Q 39 -448 39 -463 L 39 -547 Q 39 -562 40 -577.5 Q 41 -593 44.5 -608.5 Q 48 -624 53 -638.5 Q 58 -653 67.5 -665.5 Q 77 -678 91 -685.5 Q 105 -693 120 -693 Q 134 -693 146.5 -687.5 Q 159 -682 168 -672 Q 177 -662 183 -649.5 Q 189 -637 193 -624 L 193 -838 L 262 -838 L 262 -323 L 193 -323 L 193 -386 Q 189 -373 183 -360.5 Q 177 -348 168 -338 Q 159 -328 146.5 -322.5 Q 134 -317 120 -317 Z M 150 -380 Q 163 -380 172.5 -390 Q 182 -400 186 -412 Q 190 -424 191.5 -437 Q 193 -450 193 -463 L 193 -547 Q 193 -560 191.5 -573 Q 190 -586 186 -598 Q 182 -610 172.5 -620 Q 163 -630 151 -630 Q 138 -630 128.5 -620 Q 119 -610 115 -598 Q 111 -586 109.5 -573 Q 108 -560 108 -547 L 108 -463 Q 108 -450 109.5 -437 Q 111 -424 115 -412 Q 119 -400 128.5 -390 Q 138 -380 150 -380 Z M 526 -167 Q 509 -167 491.5 -170 Q 474 -173 458.5 -180 Q 443 -187 430 -199 Q 417 -211 409 -226.5 Q 401 -242 397.5 -259 Q 394 -276 394 -294 L 394 -323 L 238 -323 L 238 -385 L 384 -625 L 238 -625 L 238 -687 L 455 -687 L 455 -625 L 309 -385 L 455 -385 L 455 -294 Q 455 -279 459 -265 Q 463 -251 473 -240.5 Q 483 -230 497.5 -226 Q 512 -222 526 -222 Z " id="path27"/>
<path d="M 120 -317 Q 105 -317 91 -324.5 Q 77 -332 67.5 -344.5 Q 58 -357 53 -371.5 Q 48 -386 44.5 -401.5 Q 41 -417 40 -432.5 Q 39 -448 39 -463 L 39 -547 Q 39 -562 40 -577.5 Q 41 -593 44.5 -608.5 Q 48 -624 53 -638.5 Q 58 -653 67.5 -665.5 Q 77 -678 91 -685.5 Q 105 -693 120 -693 Q 134 -693 146.5 -687.5 Q 159 -682 168 -672 Q 177 -662 183 -649.5 Q 189 -637 193 -624 L 193 -838 L 262 -838 L 262 -323 L 193 -323 L 193 -386 Q 189 -373 183 -360.5 Q 177 -348 168 -338 Q 159 -328 146.5 -322.5 Q 134 -317 120 -317 Z M 150 -380 Q 163 -380 172.5 -390 Q 182 -400 186 -412 Q 190 -424 191.5 -437 Q 193 -450 193 -463 L 193 -547 Q 193 -560 191.5 -573 Q 190 -586 186 -598 Q 182 -610 172.5 -620 Q 163 -630 151 -630 Q 138 -630 128.5 -620 Q 119 -610 115 -598 Q 111 -586 109.5 -573 Q 108 -560 108 -547 L 108 -463 Q 108 -450 109.5 -437 Q 111 -424 115 -412 Q 119 -400 128.5 -390 Q 138 -380 150 -380 Z M 347 -250 L 306 -256 Q 308 -273 312 -289.5 Q 316 -306 320 -323 L 238 -323 L 238 -385 L 384 -625 L 238 -625 L 238 -687 L 455 -687 L 455 -625 L 309 -385 L 340 -385 Q 346 -398 352.5 -410 Q 359 -422 368 -432.5 Q 377 -443 389.5 -450 Q 402 -457 416 -457 Q 429 -457 441 -453 Q 453 -449 462 -440 Q 471 -431 474.5 -418.5 Q 478 -406 478 -393 Q 478 -379 473.5 -365.5 Q 469 -352 459.5 -342 Q 450 -332 436.5 -327.5 Q 423 -323 409 -323 L 359 -323 Q 355 -305 352 -287 Q 349 -269 347 -250 Z M 409 -385 Q 413 -385 417.5 -386 Q 422 -387 426.5 -389 Q 431 -391 433.5 -394.5 Q 436 -398 436 -403 Q 436 -411 429.5 -415.5 Q 423 -420 416 -420 Q 409 -420 403 -416.5 Q 397 -413 392.5 -408 Q 388 -403 384.5 -397.5 Q 381 -392 378 -385 Z " id="path28"/>
<path d="M 120 -317 Q 105 -317 91 -324.5 Q 77 -332 67.5 -344.5 Q 58 -357 53 -371.5 Q 48 -386 44.5 -401.5 Q 41 -417 40 -432.5 Q 39 -448 39 -463 L 39 -547 Q 39 -562 40 -577.5 Q 41 -593 44.5 -608.5 Q 48 -624 53 -638.5 Q 58 -653 67.5 -665.5 Q 77 -678 91 -685.5 Q 105 -693 120 -693 Q 134 -693 146.5 -687.5 Q 159 -682 168 -672 Q 177 -662 183 -649.5 Q 189 -637 193 -624 L 193 -838 L 262 -838 L 262 -323 L 193 -323 L 193 -386 Q 189 -373 183 -360.5 Q 177 -348 168 -338 Q 159 -328 146.5 -322.5 Q 134 -317 120 -317 Z M 150 -380 Q 163 -380 172.5 -390 Q 182 -400 186 -412 Q 190 -424 191.5 -437 Q 193 -450 193 -463 L 193 -547 Q 193 -560 191.5 -573 Q 190 -586 186 -598 Q 182 -610 172.5 -620 Q 163 -630 151 -630 Q 138 -630 128.5 -620 Q 119 -610 115 -598 Q 111 -586 109.5 -573 Q 108 -560 108 -547 L 108 -463 Q 108 -450 109.5 -437 Q 111 -424 115 -412 Q 119 -400 128.5 -390 Q 138 -380 150 -380 Z M 348 -167 Q 324 -167 301 -177 Q 278 -187 263.5 -206.5 Q 249 -226 242.5 -250 Q 236 -274 236 -298 L 306 -298 Q 306 -287 307.5 -276 Q 309 -265 314 -254.5 Q 319 -244 328 -236.5 Q 337 -229 348 -229 Q 358 -229 365.5 -236 Q 373 -243 377.5 -251.5 Q 382 -260 384.5 -270 Q 387 -280 388.5 -289.5 Q 390 -299 390.5 -309 Q 391 -319 391 -329 Q 391 -344 389.5 -358.5 Q 388 -373 384 -386.5 Q 380 -400 370.5 -412 Q 361 -424 346 -424 L 281 -424 L 281 -487 L 367 -625 L 238 -625 L 238 -687 L 439 -687 L 439 -625 L 353 -487 Q 379 -486 402.5 -471 Q 426 -456 439 -432.5 Q 452 -409 456 -382 Q 460 -355 460 -329 Q 460 -310 458.5 -291.5 Q 457 -273 452 -255.5 Q 447 -238 438 -221 Q 429 -204 415.5 -191.5 Q 402 -179 384.5 -173 Q 367 -167 348 -167 Z " id="path29"/>
<path d="M 458 -167 Q 440 -167 422 -170 Q 404 -173 388 -180.5 Q 372 -188 358.5 -200.5 Q 345 -213 337 -228.5 Q 329 -244 325.5 -262 Q 322 -280 322 -298 L 322 -389 Q 316 -373 306 -359 Q 296 -345 282.5 -335.5 Q 269 -326 252 -321.5 Q 235 -317 218 -317 Q 201 -317 183.5 -322 Q 166 -327 152 -337.5 Q 138 -348 128.5 -362.5 Q 119 -377 113 -393.5 Q 107 -410 105 -427.5 Q 103 -445 103 -463 L 103 -547 Q 103 -565 105 -582.5 Q 107 -600 113 -616.5 Q 119 -633 128.5 -647.5 Q 138 -662 152 -672.5 Q 166 -683 183.5 -688 Q 201 -693 218 -693 Q 235 -693 252 -688.5 Q 269 -684 282.5 -674.5 Q 296 -665 306 -651 Q 316 -637 322 -621 L 322 -838 L 391 -838 L 391 -298 Q 391 -284 395 -270.5 Q 399 -257 408.5 -247.5 Q 418 -238 431 -233.5 Q 444 -229 458 -229 Z M 247 -380 Q 263 -380 278.5 -385.5 Q 294 -391 304 -403.5 Q 314 -416 318 -431.5 Q 322 -447 322 -463 L 322 -547 Q 322 -563 318 -578.5 Q 314 -594 304 -606.5 Q 294 -619 278.5 -624.5 Q 263 -630 247 -630 Q 231 -630 216 -624.5 Q 201 -619 190.5 -606.5 Q 180 -594 176 -578.5 Q 172 -563 172 -547 L 172 -463 Q 172 -447 176 -431.5 Q 180 -416 190.5 -403.5 Q 201 -391 216 -385.5 Q 231 -380 247 -380 Z " id="path30"/>
<path d="M 322 -712 Q 322 -730 325.5 -748 Q 329 -766 337 -781.5 Q 345 -797 358.5 -809.5 Q 372 -822 388 -829.5 Q 404 -837 422 -840 Q 440 -843 458 -843 L 458 -781 Q 444 -781 431 -776.5 Q 418 -772 408.5 -762.5 Q 399 -753 395 -739.5 Q 391 -726 391 -712 Z M 218 -317 Q 201 -317 183.5 -322 Q 166 -327 152 -337.5 Q 138 -348 128.5 -362.5 Q 119 -377 113 -393.5 Q 107 -410 105 -427.5 Q 103 -445 103 -463 L 103 -547 Q 103 -565 105 -582.5 Q 107 -600 113 -616.5 Q 119 -633 128.5 -647.5 Q 138 -662 152 -672.5 Q 166 -683 183.5 -688 Q 201 -693 218 -693 Q 235 -693 252 -688.5 Q 269 -684 282.5 -674.5 Q 296 -665 306 -651 Q 316 -637 322 -621 L 322 -712 L 391 -712 L 391 -323 L 322 -323 L 322 -389 Q 316 -373 306 -359 Q 296 -345 282.5 -335.5 Q 269 -326 252 -321.5 Q 235 -317 218 -317 Z M 247 -380 Q 263 -380 278.5 -385.5 Q 294 -391 304 -403.5 Q 314 -416 318 -431.5 Q 322 -447 322 -463 L 322 -547 Q 322 -563 318 -578.5 Q 314 -594 304 -606.5 Q 294 -619 278.5 -624.5 Q 263 -630 247 -630 Q 231 -630 216 -624.5 Q 201 -619 190.5 -606.5 Q 180 -594 176 -578.5 Q 172 -563 172 -547 L 172 -463 Q 172 -447 176 -431.5 Q 180 -416 190.5 -403.5 Q 201 -391 216 -385.5 Q 231 -380 247 -380 Z " id="path31"/>
<path d="M 322 -712 Q 322 -730 325.5 -748 Q 329 -766 337 -781.5 Q 345 -797 358.5 -809.5 Q 372 -822 388 -829.5 Q 404 -837 422 -840 Q 440 -843 458 -843 L 458 -781 Q 444 -781 431 -776.5 Q 418 -772 408.5 -762.5 Q 399 -753 395 -739.5 Q 391 -726 391 -712 Z M 458 -167 Q 440 -167 422 -170 Q 404 -173 388 -180.5 Q 372 -188 358.5 -200.5 Q 345 -213 337 -228.5 Q 329 -244 325.5 -262 Q 322 -280 322 -298 L 322 -389 Q 316 -373 306 -359 Q 296 -345 282.5 -335.5 Q 269 -326 252 -321.5 Q 235 -317 218 -317 Q 201 -317 183.5 -322 Q 166 -327 152 -337.5 Q 138 -348 128.5 -362.5 Q 119 -377 113 -393.5 Q 107 -410 105 -427.5 Q 103 -445 103 -463 L 103 -547 Q 103 -565 105 -582.5 Q 107 -600 113 -616.5 Q 119 -633 128.5 -647.5 Q 138 -662 152 -672.5 Q 166 -683 183.5 -688 Q 201 -693 218 -693 Q 235 -693 252 -688.5 Q 269 -684 282.5 -674.5 Q 296 -665 306 -651 Q 316 -637 322 -621 L 322 -712 L 391 -712 L 391 -298 Q 391 -284 395 -270.5 Q 399 -257 408.5 -247.5 Q 418 -238 431 -233.5 Q 444 -229 458 -229 Z M 247 -380 Q 263 -380 278.5 -385.5 Q 294 -391 304 -403.5 Q 314 -416 318 -431.5 Q 322 -447 322 -463 L 322 -547 Q 322 -563 318 -578.5 Q 314 -594 304 -606.5 Q 294 -619 278.5 -624.5 Q 263 -630 247 -630 Q 231 -630 216 -624.5 Q 201 -619 190.5 -606.5 Q 180 -594 176 -578.5 Q 172 -563 172 -547 L 172 -463 Q 172 -447 176 -431.5 Q 180 -416 190.5 -403.5 Q 201 -391 216 -385.5 Q 231 -380 247 -380 Z " id="path32"/>
<path d="M 250 -317 Q 225 -317 199.5 -322 Q 174 -327 152.5 -340.5 Q 131 -354 118 -376.5 Q 105 -399 104 -425 L 173 -425 Q 173 -412 181.5 -402.5 Q 190 -393 201.5 -388 Q 213 -383 225.5 -381 Q 238 -379 250 -379 Q 266 -379 282 -384.5 Q 298 -390 309 -402.5 Q 320 -415 324 -431 Q 328 -447 328 -463 L 328 -474 L 103 -474 L 103 -547 Q 103 -567 106.5 -586.5 Q 110 -606 119 -623.5 Q 128 -641 142 -654.5 Q 156 -668 173.5 -677 Q 191 -686 210.5 -689.5 Q 230 -693 250 -693 Q 270 -693 289.5 -689.5 Q 309 -686 326.5 -677 Q 344 -668 358 -654.5 Q 372 -641 381 -623.5 Q 390 -606 393.5 -586.5 Q 397 -567 397 -547 L 397 -463 Q 397 -443 393.5 -423.5 Q 390 -404 381 -386.5 Q 372 -369 358 -355.5 Q 344 -342 326.5 -333 Q 309 -324 289.5 -320.5 Q 270 -317 250 -317 Z M 328 -536 L 328 -547 Q 328 -563 324 -579 Q 320 -595 309 -607.5 Q 298 -620 282 -625.5 Q 266 -631 250 -631 Q 234 -631 218 -625.5 Q 202 -620 191 -607.5 Q 180 -595 176 -579 Q 172 -563 172 -547 L 172 -536 Z " id="path33"/>
<path d="M 253 -317 Q 233 -317 213.5 -320.5 Q 194 -324 176 -332.5 Q 158 -341 143.5 -355 Q 129 -369 119.5 -386.5 Q 110 -404 106.5 -423.5 Q 103 -443 103 -463 L 103 -547 Q 103 -566 106.5 -585.5 Q 110 -605 118.5 -622.5 Q 127 -640 141 -654 Q 155 -668 172.5 -677 Q 190 -686 209 -689.5 Q 228 -693 248 -693 Q 273 -693 298 -688 Q 323 -683 344.5 -670 Q 366 -657 378.5 -634.5 Q 391 -612 391 -587 Q 391 -575 388.5 -563 Q 386 -551 379 -541.5 Q 372 -532 362.5 -525 Q 353 -518 342 -513 Q 355 -508 366.5 -500.5 Q 378 -493 386.5 -482 Q 395 -471 399 -457.5 Q 403 -444 403 -430 Q 403 -404 390 -380 Q 377 -356 354.5 -341.5 Q 332 -327 306 -322 Q 280 -317 253 -317 Z M 253 -379 Q 267 -379 280.5 -381 Q 294 -383 306 -389 Q 318 -395 326 -406.5 Q 334 -418 334 -431 Q 334 -445 325 -456 Q 316 -467 303.5 -472.5 Q 291 -478 277.5 -479.5 Q 264 -481 250 -481 L 221 -481 L 221 -543 L 250 -543 Q 262 -543 273.5 -544.5 Q 285 -546 296 -550.5 Q 307 -555 315 -564.5 Q 323 -574 323 -586 Q 323 -598 315 -608 Q 307 -618 295.5 -623 Q 284 -628 272 -629.5 Q 260 -631 248 -631 Q 232 -631 216.5 -625 Q 201 -619 190.5 -607 Q 180 -595 176 -579 Q 172 -563 172 -547 L 172 -463 Q 172 -446 176.5 -430 Q 181 -414 192.5 -402 Q 204 -390 220.5 -384.5 Q 237 -379 253 -379 Z " id="path34"/>
<path d="M 103 -323 L 103 -625 L 45 -625 L 45 -687 L 103 -687 L 103 -728 Q 103 -749 107 -769 Q 111 -789 121.5 -806 Q 132 -823 150 -833 Q 168 -843 189 -843 Q 207 -843 224.5 -835.5 Q 242 -828 253 -813.5 Q 264 -799 269 -781 Q 274 -763 274 -745 L 274 -743 L 204 -743 L 204 -744 Q 204 -749 203.5 -754.5 Q 203 -760 202 -765.5 Q 201 -771 197.5 -776 Q 194 -781 189 -781 Q 184 -781 181 -776.5 Q 178 -772 176.5 -767 Q 175 -762 174.5 -757.5 Q 174 -753 173.5 -748 Q 173 -743 173 -738 Q 173 -733 173 -728 L 173 -687 L 251 -687 L 251 -625 L 173 -625 L 173 -323 Z M 301 -172 L 301 -235 L 319 -235 Q 333 -235 346.5 -239.5 Q 360 -244 369 -254.5 Q 378 -265 382 -278.5 Q 386 -292 386 -306 L 386 -547 Q 386 -560 384.5 -572.5 Q 383 -585 379.5 -597 Q 376 -609 367.5 -619.5 Q 359 -630 346 -630 Q 334 -630 325.5 -619.5 Q 317 -609 313 -597 Q 309 -585 308 -572.5 Q 307 -560 307 -547 L 307 -323 L 238 -323 L 238 -625 L 220 -625 L 220 -687 L 307 -687 L 307 -625 Q 311 -638 316.5 -650 Q 322 -662 330.5 -672 Q 339 -682 351 -687.5 Q 363 -693 376 -693 Q 392 -693 405.5 -685 Q 419 -677 428 -664.5 Q 437 -652 442 -637.5 Q 447 -623 450 -608 Q 453 -593 454 -577.5 Q 455 -562 455 -547 L 455 -306 Q 455 -288 451.5 -270 Q 448 -252 440 -236 Q 432 -220 419 -207.5 Q 406 -195 389.5 -187 Q 373 -179 355 -175.5 Q 337 -172 319 -172 Z " id="path35"/>
<path d="M 250 -317 Q 229 -317 210.5 -326.5 Q 192 -336 180.5 -353.5 Q 169 -371 165.5 -391.5 Q 162 -412 162 -432 Q 162 -473 175.5 -512 Q 189 -551 212 -585 Q 202 -596 190.5 -605 Q 179 -614 165.5 -619.5 Q 152 -625 137.5 -627 Q 123 -629 109 -629 L 109 -687 Q 128 -687 147.5 -685 Q 167 -683 185.5 -676 Q 204 -669 220 -657.5 Q 236 -646 250 -632 Q 264 -646 280 -657.5 Q 296 -669 314.5 -676 Q 333 -683 352.5 -685 Q 372 -687 391 -687 L 391 -629 Q 377 -629 362.5 -627 Q 348 -625 334.5 -619.5 Q 321 -614 309.5 -605 Q 298 -596 288 -585 Q 311 -551 324.5 -512 Q 338 -473 338 -432 Q 338 -412 334.5 -391.5 Q 331 -371 319.5 -353.5 Q 308 -336 289.5 -326.5 Q 271 -317 250 -317 Z M 250 -371 Q 259 -371 265.5 -378.5 Q 272 -386 274.5 -395 Q 277 -404 278 -413.5 Q 279 -423 279 -432 Q 279 -459 271.5 -485 Q 264 -511 250 -534 Q 237 -511 229 -485 Q 221 -459 221 -432 Q 221 -423 222 -413.5 Q 223 -404 225.5 -395 Q 228 -386 234.5 -378.5 Q 241 -371 250 -371 Z " id="path36"/>
<path d="M 218 -317 Q 201 -317 184 -321.5 Q 167 -326 153 -336 Q 139 -346 129 -360.5 Q 119 -375 113 -391.5 Q 107 -408 105 -425 Q 103 -442 103 -460 L 103 -551 Q 103 -570 106.5 -589 Q 110 -608 119 -625 Q 128 -642 142 -655.5 Q 156 -669 173 -677.5 Q 190 -686 209.5 -689.5 Q 229 -693 248 -693 Q 275 -693 302 -686 Q 329 -679 350 -661.5 Q 371 -644 382 -618.5 Q 393 -593 393 -565 L 393 -561 L 324 -561 L 324 -563 Q 324 -578 318 -591.5 Q 312 -605 301 -614 Q 290 -623 276 -626.5 Q 262 -630 248 -630 Q 232 -630 217 -625 Q 202 -620 191.5 -608.5 Q 181 -597 176.5 -581.5 Q 172 -566 172 -551 L 172 -460 Q 172 -444 176.5 -428.5 Q 181 -413 191 -401.5 Q 201 -390 216.5 -385 Q 232 -380 247 -380 Q 263 -380 278 -385 Q 293 -390 303.5 -401.5 Q 314 -413 318 -428.5 Q 322 -444 322 -459 L 322 -465 L 250 -465 L 250 -528 L 391 -528 L 391 -323 L 328 -323 L 328 -405 Q 323 -386 313.5 -369.5 Q 304 -353 289.5 -340.5 Q 275 -328 256.5 -322.5 Q 238 -317 218 -317 Z " id="path37"/>
<path d="M 322 -712 Q 322 -730 325.5 -748 Q 329 -766 337 -781.5 Q 345 -797 358.5 -809.5 Q 372 -822 388 -829.5 Q 404 -837 422 -840 Q 440 -843 458 -843 L 458 -781 Q 444 -781 431 -776.5 Q 418 -772 408.5 -762.5 Q 399 -753 395 -739.5 Q 391 -726 391 -712 Z M 248 -167 Q 224 -167 200 -171.5 Q 176 -176 155.5 -188 Q 135 -200 121.5 -221.5 Q 108 -243 107 -267 L 176 -267 Q 177 -256 185.5 -248 Q 194 -240 204.5 -236 Q 215 -232 226 -230.5 Q 237 -229 248 -229 Q 264 -229 279 -235 Q 294 -241 304 -253 Q 314 -265 318 -281 Q 322 -297 322 -312 L 322 -389 Q 316 -373 306 -359 Q 296 -345 282.5 -335.5 Q 269 -326 252 -321.5 Q 235 -317 218 -317 Q 201 -317 183.5 -322 Q 166 -327 152 -337.5 Q 138 -348 128.5 -362.5 Q 119 -377 113 -393.5 Q 107 -410 105 -427.5 Q 103 -445 103 -463 L 103 -547 Q 103 -565 105 -582.5 Q 107 -600 113 -616.5 Q 119 -633 128.5 -647.5 Q 138 -662 152 -672.5 Q 166 -683 183.5 -688 Q 201 -693 218 -693 Q 235 -693 252 -688.5 Q 269 -684 282.5 -674.5 Q 296 -665 306 -651 Q 316 -637 322 -621 L 322 -712 L 391 -712 L 391 -313 Q 391 -293 388 -274 Q 385 -255 376.5 -237.5 Q 368 -220 354.5 -206 Q 341 -192 323.5 -183 Q 306 -174 287 -170.5 Q 268 -167 248 -167 Z M 247 -380 Q 263 -380 278.5 -385.5 Q 294 -391 304 -403.5 Q 314 -416 318 -431.5 Q 322 -447 322 -463 L 322 -547 Q 322 -563 318 -578.5 Q 314 -594 304 -606.5 Q 294 -619 278.5 -624.5 Q 263 -630 247 -630 Q 231 -630 216 -624.5 Q 201 -619 190.5 -606.5 Q 180 -594 176 -578.5 Q 172 -563 172 -547 L 172 -463 Q 172 -447 176 -431.5 Q 180 -416 190.5 -403.5 Q 201 -391 216 -385.5 Q 231 -380 247 -380 Z " id="path38"/>
<path d="M 218 -317 Q 201 -317 184 -321.5 Q 167 -326 153 -336 Q 139 -346 129 -360.5 Q 119 -375 113 -391.5 Q 107 -408 105 -425 Q 103 -442 103 -460 L 103 -551 Q 103 -568 105.5 -585.5 Q 108 -603 114 -619.5 Q 120 -636 131 -650.5 Q 142 -665 157 -675 Q 172 -685 189.5 -689 Q 207 -693 224 -693 Q 240 -693 256 -690 Q 272 -687 286.5 -679 Q 301 -671 312.5 -659 Q 324 -647 331 -633 L 331 -716 Q 331 -734 334 -751 Q 337 -768 345.5 -783.5 Q 354 -799 366.5 -811 Q 379 -823 395 -830 Q 411 -837 428 -840 Q 445 -843 463 -843 L 463 -788 Q 448 -788 434 -784 Q 420 -780 410 -769.5 Q 400 -759 395.5 -745 Q 391 -731 391 -716 L 391 -550 L 331 -550 L 331 -561 L 322 -561 Q 322 -575 317 -589.5 Q 312 -604 301 -613.5 Q 290 -623 276 -626.5 Q 262 -630 247 -630 Q 232 -630 216.5 -625 Q 201 -620 191 -608.5 Q 181 -597 176.5 -581.5 Q 172 -566 172 -551 L 172 -460 Q 172 -444 176.5 -428.5 Q 181 -413 191 -401.5 Q 201 -390 216.5 -385 Q 232 -380 247 -380 Q 263 -380 278 -385 Q 293 -390 303.5 -401.5 Q 314 -413 318 -428.5 Q 322 -444 322 -459 L 322 -465 L 250 -465 L 250 -528 L 391 -528 L 391 -323 L 328 -323 L 328 -405 Q 323 -386 313.5 -369.5 Q 304 -353 289.5 -340.5 Q 275 -328 256.5 -322.5 Q 238 -317 218 -317 Z " id="path39"/>
<path d="M 109 -323 L 109 -729 L 85 -729 L 85 -781 L 109 -781 L 109 -838 L 178 -838 L 178 -781 L 250 -781 L 250 -729 L 178 -729 L 178 -622 Q 184 -638 193.5 -651.5 Q 203 -665 216.5 -674.5 Q 230 -684 246 -688.5 Q 262 -693 279 -693 Q 296 -693 313 -688 Q 330 -683 344 -672.5 Q 358 -662 367 -647 Q 376 -632 381.5 -615.5 Q 387 -599 389 -581.5 Q 391 -564 391 -547 L 391 -323 L 322 -323 L 322 -547 Q 322 -563 318.5 -578.5 Q 315 -594 305 -606 Q 295 -618 280.5 -624 Q 266 -630 250 -630 Q 234 -630 219.5 -624 Q 205 -618 195 -606 Q 185 -594 181.5 -578.5 Q 178 -563 178 -547 L 178 -323 Z " id="path40"/>
<path d="M 109 -323 L 109 -687 L 178 -687 L 178 -541 L 322 -541 L 322 -687 L 391 -687 L 391 -323 L 322 -323 L 322 -479 L 178 -479 L 178 -323 Z " id="path41"/>
<path d="M 109 -712 Q 109 -730 112 -748 Q 115 -766 123.5 -781.5 Q 132 -797 145 -809.5 Q 158 -822 174.5 -829.5 Q 191 -837 208.5 -840 Q 226 -843 244 -843 L 245 -843 L 245 -781 L 244 -781 Q 231 -781 217.5 -776.5 Q 204 -772 195 -762.5 Q 186 -753 182 -739.5 Q 178 -726 178 -712 Z M 238 -172 L 238 -235 L 256 -235 Q 270 -235 283.5 -239.5 Q 297 -244 306 -254.5 Q 315 -265 318.5 -278.5 Q 322 -292 322 -306 L 322 -547 Q 322 -563 318.5 -578.5 Q 315 -594 305 -606 Q 295 -618 280.5 -624 Q 266 -630 250 -630 Q 234 -630 219.5 -624 Q 205 -618 195 -606 Q 185 -594 181.5 -578.5 Q 178 -563 178 -547 L 178 -323 L 109 -323 L 109 -712 L 178 -712 L 178 -622 Q 184 -638 193.5 -651.5 Q 203 -665 216.5 -674.5 Q 230 -684 246 -688.5 Q 262 -693 279 -693 Q 296 -693 313 -688 Q 330 -683 344 -672.5 Q 358 -662 367 -647 Q 376 -632 381.5 -615.5 Q 387 -599 389 -581.5 Q 391 -564 391 -547 L 391 -306 Q 391 -288 388 -270 Q 385 -252 377 -236 Q 369 -220 355.5 -207.5 Q 342 -195 326 -187 Q 310 -179 292 -175.5 Q 274 -172 256 -172 Z " id="path42"/>
<path d="M 259 -712 Q 259 -730 262.5 -748 Q 266 -766 274.5 -781.5 Q 283 -797 296 -809.5 Q 309 -822 325.5 -829.5 Q 342 -837 359.5 -840 Q 377 -843 395 -843 L 396 -843 L 396 -781 L 395 -781 Q 381 -781 368 -776.5 Q 355 -772 345.5 -762.5 Q 336 -753 332.5 -739.5 Q 329 -726 329 -712 Z M 205 -167 Q 181 -167 158 -173 Q 135 -179 117.5 -194.5 Q 100 -210 91 -232 Q 82 -254 82 -277 L 151 -277 Q 151 -267 155 -257.5 Q 159 -248 166.5 -241.5 Q 174 -235 184.5 -232 Q 195 -229 205 -229 Q 218 -229 230 -236.5 Q 242 -244 248.5 -256 Q 255 -268 257 -281.5 Q 259 -295 259 -309 L 259 -479 L 197 -479 L 197 -531 L 259 -531 L 259 -625 L 235 -625 L 235 -687 L 259 -687 L 259 -712 L 329 -712 L 329 -531 L 381 -531 L 381 -479 L 329 -479 L 329 -309 Q 329 -291 326.5 -273.5 Q 324 -256 317 -239 Q 310 -222 299 -208 Q 288 -194 273 -184.5 Q 258 -175 240.5 -171 Q 223 -167 205 -167 Z " id="path43"/>
<path d="M 209 -323 Q 192 -323 175 -326 Q 158 -329 142.5 -336.5 Q 127 -344 114.5 -356 Q 102 -368 94 -383 Q 86 -398 82.5 -415 Q 79 -432 79 -449 L 79 -775 L 7 -775 L 7 -838 L 149 -838 L 149 -449 Q 149 -437 152 -424.5 Q 155 -412 163.5 -403 Q 172 -394 184 -389.5 Q 196 -385 209 -385 L 262 -385 L 262 -323 Z M 238 -323 L 238 -385 L 346 -385 Q 354 -385 362 -386.5 Q 370 -388 376.5 -392 Q 383 -396 387 -403 Q 391 -410 391 -418 Q 391 -434 381 -446.5 Q 371 -459 357.5 -467 Q 344 -475 329.5 -480.5 Q 315 -486 301.5 -494 Q 288 -502 276.5 -512.5 Q 265 -523 256 -536 Q 247 -549 242.5 -564 Q 238 -579 238 -595 Q 238 -616 246 -635.5 Q 254 -655 269.5 -668.5 Q 285 -682 305.5 -687.5 Q 326 -693 347 -693 Q 370 -693 392.5 -683.5 Q 415 -674 429.5 -655.5 Q 444 -637 450 -614 Q 456 -591 456 -568 L 456 -561 L 387 -561 L 387 -564 Q 387 -575 385.5 -586 Q 384 -597 379.5 -606.5 Q 375 -616 366 -623 Q 357 -630 347 -630 Q 339 -630 331.5 -628 Q 324 -626 318.5 -621 Q 313 -616 310 -608.5 Q 307 -601 307 -594 Q 307 -578 316.5 -565 Q 326 -552 339.5 -544 Q 353 -536 367.5 -530 Q 382 -524 395.5 -516 Q 409 -508 421 -498 Q 433 -488 441.5 -475 Q 450 -462 455.5 -447 Q 461 -432 461 -416 Q 461 -395 451.5 -376 Q 442 -357 425 -344.5 Q 408 -332 387.5 -327.5 Q 367 -323 346 -323 Z " id="path44"/>
<path d="M 209 -323 Q 192 -323 175 -326 Q 158 -329 142.5 -336.5 Q 127 -344 114.5 -356 Q 102 -368 94 -383 Q 86 -398 82.5 -415 Q 79 -432 79 -449 L 79 -775 L 7 -775 L 7 -838 L 149 -838 L 149 -449 Q 149 -437 152 -424.5 Q 155 -412 163.5 -403 Q 172 -394 184 -389.5 Q 196 -385 209 -385 L 262 -385 L 262 -323 Z M 238 -323 L 238 -385 L 384 -625 L 238 -625 L 238 -687 L 455 -687 L 455 -625 L 309 -385 L 455 -385 L 455 -323 Z " id="path45"/>
<path d="M 373 -323 L 128 -323 L 128 -385 L 220 -385 L 220 -525 L 196 -525 Q 183 -525 169.5 -528.5 Q 156 -532 145.5 -541 Q 135 -550 130.5 -563.5 Q 126 -577 126 -591 Q 126 -604 130.5 -617.5 Q 135 -631 145.5 -640 Q 156 -649 169.5 -652.5 Q 183 -656 196 -656 L 220 -656 L 220 -775 L 137 -775 L 137 -838 L 290 -838 L 290 -572 L 361 -572 L 361 -525 L 290 -525 L 290 -385 L 373 -385 Z M 196 -572 L 220 -572 L 220 -609 L 196 -609 Q 189 -609 183.5 -603.5 Q 178 -598 178 -591 Q 178 -583 183.5 -577.5 Q 189 -572 196 -572 Z " id="path46"/>
<path d="M 125 -323 L 125 -439 L 102 -439 Q 88 -439 74.5 -443 Q 61 -447 50.5 -456 Q 40 -465 35.5 -478 Q 31 -491 31 -505 Q 31 -519 35.5 -532 Q 40 -545 50.5 -554 Q 61 -563 74.5 -567 Q 88 -571 102 -571 L 125 -571 L 125 -687 L 195 -687 L 195 -487 L 266 -487 L 266 -439 L 195 -439 L 195 -385 L 396 -385 L 396 -323 Z M 125 -487 L 125 -523 L 102 -523 Q 94 -523 88.5 -517.5 Q 83 -512 83 -505 Q 83 -498 88.5 -492.5 Q 94 -487 102 -487 Z " id="path47"/>
<path d="M 351 -167 Q 333 -167 315.5 -170 Q 298 -173 281.5 -180.5 Q 265 -188 252 -200.5 Q 239 -213 230.5 -228.5 Q 222 -244 218.5 -262 Q 215 -280 215 -298 L 215 -525 L 191 -525 Q 178 -525 164.5 -528.5 Q 151 -532 140.5 -541 Q 130 -550 125.5 -563.5 Q 121 -577 121 -591 Q 121 -604 125.5 -617.5 Q 130 -631 140.5 -640 Q 151 -649 164.5 -652.5 Q 178 -656 191 -656 L 215 -656 L 215 -775 L 128 -775 L 128 -838 L 285 -838 L 285 -572 L 356 -572 L 356 -525 L 285 -525 L 285 -298 Q 285 -284 288.5 -270.5 Q 292 -257 301.5 -247.5 Q 311 -238 324 -233.5 Q 337 -229 351 -229 L 352 -229 L 352 -167 Z M 191 -572 L 215 -572 L 215 -609 L 191 -609 Q 184 -609 178.5 -603.5 Q 173 -598 173 -591 Q 173 -583 178.5 -577.5 Q 184 -572 191 -572 Z " id="path48"/>
<path d="M 252 -167 Q 224 -167 197 -174.5 Q 170 -182 149 -200 Q 128 -218 117.5 -244.5 Q 107 -271 107 -298 L 176 -298 Q 176 -284 181.5 -270 Q 187 -256 198 -246.5 Q 209 -237 223 -233 Q 237 -229 252 -229 Q 269 -229 285.5 -237.5 Q 302 -246 311.5 -261 Q 321 -276 324.5 -293.5 Q 328 -311 328 -329 Q 328 -346 324.5 -363.5 Q 321 -381 310.5 -395.5 Q 300 -410 284 -417 Q 268 -424 250 -424 L 222 -424 L 222 -487 L 300 -625 L 178 -625 L 178 -359 L 109 -359 L 109 -775 L 84 -775 L 84 -838 L 178 -838 L 178 -687 L 370 -687 L 370 -625 L 290 -483 Q 315 -478 337 -463.5 Q 359 -449 373 -427 Q 387 -405 392 -379.5 Q 397 -354 397 -328 Q 397 -308 394 -287.5 Q 391 -267 383 -248 Q 375 -229 361.5 -213 Q 348 -197 330.5 -186.5 Q 313 -176 292.5 -171.5 Q 272 -167 252 -167 Z " id="path49"/>
<path d="M 244 -167 Q 226 -167 208.5 -170 Q 191 -173 174.5 -180.5 Q 158 -188 145 -200.5 Q 132 -213 123.5 -228.5 Q 115 -244 112 -262 Q 109 -280 109 -298 L 109 -398 Q 108 -401 107.5 -405 Q 107 -409 107 -412 L 109 -412 L 109 -775 L 84 -775 L 84 -838 L 178 -838 L 178 -687 L 370 -687 L 370 -625 L 300 -550 Q 320 -546 338.5 -537 Q 357 -528 371 -513 Q 385 -498 391 -478 Q 397 -458 397 -437 Q 397 -411 386 -386 Q 375 -361 353.5 -345 Q 332 -329 305 -323 Q 278 -317 252 -317 Q 233 -317 214.5 -319.5 Q 196 -322 178 -328 L 178 -298 Q 178 -284 182 -270.5 Q 186 -257 195 -247.5 Q 204 -238 217.5 -233.5 Q 231 -229 244 -229 L 245 -229 L 245 -167 Z M 252 -380 Q 265 -380 278.5 -382.5 Q 292 -385 303.5 -392 Q 315 -399 321.5 -411.5 Q 328 -424 328 -437 Q 328 -451 321 -463 Q 314 -475 302 -481.5 Q 290 -488 276.5 -490 Q 263 -492 250 -492 L 222 -492 L 222 -554 L 288 -625 L 178 -625 L 178 -406 Q 182 -396 191.5 -391 Q 201 -386 211 -383.5 Q 221 -381 231 -380.5 Q 241 -380 252 -380 Z " id="path50"/>
<path d="M 102 -323 L 256 -838 L 327 -838 Q 320 -813 313 -789 Q 306 -765 298 -740 L 285 -696 L 398 -323 L 326 -323 L 249 -611 L 174 -323 Z " id="path51"/>
<path d="M 102 -323 L 191 -621 Q 177 -621 164 -625 Q 151 -629 140.5 -638 Q 130 -647 125.5 -660 Q 121 -673 121 -687 Q 121 -701 125.5 -714 Q 130 -727 140.5 -736 Q 151 -745 164.5 -749 Q 178 -753 191 -753 L 230 -753 Q 237 -774 243 -795 Q 249 -816 256 -838 L 327 -838 Q 320 -813 313 -789 Q 306 -765 298 -740 L 285 -696 L 293 -669 L 356 -669 L 356 -621 L 308 -621 L 398 -323 L 326 -323 L 249 -611 L 174 -323 Z M 191 -669 L 205 -669 L 216 -705 L 191 -705 Q 184 -705 178.5 -699.5 Q 173 -694 173 -687 Q 173 -680 178.5 -674.5 Q 184 -669 191 -669 Z " id="path52"/>
<path d="M 154 -291 L 104 -318 L 133 -365 Q 125 -375 119 -387 Q 113 -399 109 -411.5 Q 105 -424 104 -437 Q 103 -450 103 -463 L 103 -547 Q 103 -567 106.5 -586.5 Q 110 -606 119 -623.5 Q 128 -641 142 -654.5 Q 156 -668 173.5 -677 Q 191 -686 210.5 -689.5 Q 230 -693 250 -693 Q 269 -693 287.5 -690 Q 306 -687 322 -679 L 346 -719 L 396 -692 L 367 -645 Q 375 -635 381 -623 Q 387 -611 391 -598.5 Q 395 -586 396 -573 Q 397 -560 397 -547 L 397 -463 Q 397 -443 393.5 -423.5 Q 390 -404 381 -386.5 Q 372 -369 358 -355.5 Q 344 -342 326.5 -333 Q 309 -324 289.5 -320.5 Q 270 -317 250 -317 Q 231 -317 212.5 -320 Q 194 -323 178 -331 Z M 175 -435 L 288 -622 Q 279 -627 269.5 -628.5 Q 260 -630 250 -630 Q 234 -630 218 -624.5 Q 202 -619 191.5 -607 Q 181 -595 176.5 -579 Q 172 -563 172 -547 L 172 -463 Q 172 -456 172.5 -449 Q 173 -442 175 -435 Z M 250 -380 Q 266 -380 282 -385.5 Q 298 -391 308.5 -403 Q 319 -415 323.5 -431 Q 328 -447 328 -463 L 328 -547 Q 328 -554 327.5 -561 Q 327 -568 325 -575 L 212 -388 Q 221 -383 230.5 -381.5 Q 240 -380 250 -380 Z " id="path53"/>
<path d="M 234 -323 L 234 -687 L 395 -687 L 395 -630 L 297 -630 L 297 -541 L 381 -541 L 381 -484 L 297 -484 L 297 -380 L 395 -380 L 395 -323 Z M 234 -323 Q 216 -323 198.5 -326.5 Q 181 -330 165.5 -338.5 Q 150 -347 138 -360.5 Q 126 -374 118.5 -390 Q 111 -406 108 -424 Q 105 -442 105 -460 L 105 -551 Q 105 -568 108 -586 Q 111 -604 118.5 -620 Q 126 -636 138 -649.5 Q 150 -663 165.5 -671.5 Q 181 -680 198.5 -683.5 Q 216 -687 234 -687 L 234 -630 Q 220 -630 206 -624 Q 192 -618 183 -606.5 Q 174 -595 171 -580 Q 168 -565 168 -551 L 168 -460 Q 168 -445 171 -430 Q 174 -415 183 -403.5 Q 192 -392 206 -386 Q 220 -380 234 -380 Z " id="path54"/>
<path d="M 182 -317 Q 165 -317 150.5 -327 Q 136 -337 127 -351.5 Q 118 -366 113 -382.5 Q 108 -399 105 -416 Q 102 -433 100.5 -450 Q 99 -467 99 -484 Q 99 -509 101.5 -533.5 Q 104 -558 110.5 -581.5 Q 117 -605 129 -627 Q 141 -649 159.5 -665.5 Q 178 -682 201.5 -690 Q 225 -698 250 -698 Q 275 -698 298.5 -690 Q 322 -682 340.5 -665.5 Q 359 -649 371 -627 Q 383 -605 389.5 -581.5 Q 396 -558 398.5 -533.5 Q 401 -509 401 -484 Q 401 -467 399.5 -450 Q 398 -433 395 -416 Q 392 -399 387 -382.5 Q 382 -366 373 -351.5 Q 364 -337 349.5 -327 Q 335 -317 318 -317 Q 305 -317 293.5 -323 Q 282 -329 273.5 -338.5 Q 265 -348 259.5 -359.5 Q 254 -371 250 -383 Q 246 -371 240.5 -359.5 Q 235 -348 226.5 -338.5 Q 218 -329 206.5 -323 Q 195 -317 182 -317 Z M 190 -374 Q 197 -374 201 -380.5 Q 205 -387 207.5 -394 Q 210 -401 211 -407.5 Q 212 -414 213.5 -421 Q 215 -428 215.5 -435 Q 216 -442 216.5 -449 Q 217 -456 217.5 -463 Q 218 -470 218 -477 Q 218 -484 218.5 -491 Q 219 -498 219 -505 L 219 -560 L 281 -560 L 281 -505 Q 281 -498 281.5 -491 Q 282 -484 282 -477 Q 282 -470 282.5 -463 Q 283 -456 283.5 -449 Q 284 -442 284.5 -435 Q 285 -428 286.5 -421 Q 288 -414 289 -407.5 Q 290 -401 292.5 -394 Q 295 -387 299 -380.5 Q 303 -374 310 -374 Q 317 -374 321.5 -381 Q 326 -388 328 -395 Q 330 -402 331.5 -409 Q 333 -416 334 -423.5 Q 335 -431 336 -438 Q 337 -445 337 -452.5 Q 337 -460 337.5 -467.5 Q 338 -475 338 -482 Q 338 -499 337 -516 Q 336 -533 332.5 -549.5 Q 329 -566 323.5 -582 Q 318 -598 308 -611.5 Q 298 -625 282.5 -633.5 Q 267 -642 250 -642 Q 233 -642 217.5 -633.5 Q 202 -625 192 -611.5 Q 182 -598 176.5 -582 Q 171 -566 167.5 -549.5 Q 164 -533 163 -516 Q 162 -499 162 -482 Q 162 -475 162.5 -467.5 Q 163 -460 163 -452.5 Q 163 -445 164 -438 Q 165 -431 166 -423.5 Q 167 -416 168.5 -409 Q 170 -402 172 -395 Q 174 -388 178.5 -381 Q 183 -374 190 -374 Z " id="path55"/>
<path d="M 322 -172 L 322 -389 Q 316 -373 306 -359 Q 296 -345 282.5 -335.5 Q 269 -326 252 -321.5 Q 235 -317 218 -317 Q 201 -317 183.5 -322 Q 166 -327 152 -337.5 Q 138 -348 128.5 -362.5 Q 119 -377 113 -393.5 Q 107 -410 105 -427.5 Q 103 -445 103 -463 L 103 -547 Q 103 -565 105 -582.5 Q 107 -600 113 -616.5 Q 119 -633 128.5 -647.5 Q 138 -662 152 -672.5 Q 166 -683 183.5 -688 Q 201 -693 218 -693 Q 235 -693 252 -688.5 Q 269 -684 282.5 -674.5 Q 296 -665 306 -651 Q 316 -637 322 -621 L 322 -687 L 391 -687 L 391 -172 Z M 247 -380 Q 263 -380 278.5 -385.5 Q 294 -391 304 -403.5 Q 314 -416 318 -431.5 Q 322 -447 322 -463 L 322 -547 Q 322 -563 318 -578.5 Q 314 -594 304 -606.5 Q 294 -619 278.5 -624.5 Q 263 -630 247 -630 Q 231 -630 216 -624.5 Q 201 -619 190.5 -606.5 Q 180 -594 176 -578.5 Q 172 -563 172 -547 L 172 -463 Q 172 -447 176 -431.5 Q 180 -416 190.5 -403.5 Q 201 -391 216 -385.5 Q 231 -380 247 -380 Z " id="path56"/>
<path d="M 187 -317 Q 173 -317 159.5 -320.5 Q 146 -324 135 -332.5 Q 124 -341 116.5 -352.5 Q 109 -364 105 -377 Q 101 -390 99.5 -404 Q 98 -418 98 -431 L 167 -431 Q 167 -422 169 -412.5 Q 171 -403 176.5 -395 Q 182 -387 191 -383.5 Q 200 -380 209 -380 Q 222 -380 233.5 -385 Q 245 -390 253.5 -399.5 Q 262 -409 267 -420.5 Q 272 -432 275 -444 Q 278 -456 279 -469 Q 280 -482 280 -494 L 280 -838 L 349 -838 L 349 -323 L 280 -323 L 280 -400 Q 275 -384 267 -369 Q 259 -354 247.5 -342 Q 236 -330 220 -323.5 Q 204 -317 187 -317 Z " id="path57"/>
<path d="M 416 -167 Q 398 -167 380 -170 Q 362 -173 346 -180.5 Q 330 -188 316.5 -200.5 Q 303 -213 295 -228.5 Q 287 -244 283.5 -262 Q 280 -280 280 -298 L 280 -400 Q 275 -384 267 -369 Q 259 -354 247.5 -342 Q 236 -330 220 -323.5 Q 204 -317 187 -317 Q 173 -317 159.5 -320.5 Q 146 -324 135 -332.5 Q 124 -341 116.5 -352.5 Q 109 -364 105 -377 Q 101 -390 99.5 -404 Q 98 -418 98 -431 L 167 -431 Q 167 -422 169 -412.5 Q 171 -403 176.5 -395 Q 182 -387 191 -383.5 Q 200 -380 209 -380 Q 222 -380 233.5 -385 Q 245 -390 253.5 -399.5 Q 262 -409 267 -420.5 Q 272 -432 275 -444 Q 278 -456 279 -469 Q 280 -482 280 -494 L 280 -838 L 349 -838 L 349 -298 Q 349 -284 353 -270.5 Q 357 -257 366.5 -247.5 Q 376 -238 389 -233.5 Q 402 -229 416 -229 Z " id="path58"/>
<path d="M 286 -167 Q 268 -167 250.5 -170 Q 233 -173 216.5 -180.5 Q 200 -188 187 -200.5 Q 174 -213 165.5 -228.5 Q 157 -244 154 -262 Q 151 -280 151 -298 L 151 -687 L 220 -687 L 220 -610 Q 225 -626 233 -641 Q 241 -656 252.5 -668 Q 264 -680 280 -686.5 Q 296 -693 313 -693 Q 327 -693 340.5 -689.5 Q 354 -686 365 -677.5 Q 376 -669 383.5 -657.5 Q 391 -646 395 -633 Q 399 -620 400.5 -606 Q 402 -592 402 -579 L 333 -579 Q 333 -588 331 -597.5 Q 329 -607 323.5 -615 Q 318 -623 309 -626.5 Q 300 -630 291 -630 Q 278 -630 266.5 -625 Q 255 -620 246.5 -610.5 Q 238 -601 233 -589.5 Q 228 -578 225 -566 Q 222 -554 221 -541 Q 220 -528 220 -516 L 220 -298 Q 220 -284 224 -270.5 Q 228 -257 237 -247.5 Q 246 -238 259.5 -233.5 Q 273 -229 286 -229 L 287 -229 L 287 -167 Z " id="path59"/>
<path d="M 151 -323 L 151 -547 Q 151 -565 153.5 -583.5 Q 156 -602 163 -619 Q 170 -636 181.5 -650.5 Q 193 -665 208.5 -675 Q 224 -685 242.5 -689 Q 261 -693 279 -693 Q 300 -693 320.5 -689.5 Q 341 -686 359 -676 Q 377 -666 389.5 -648.5 Q 402 -631 403 -610 L 334 -610 Q 332 -618 325 -621.5 Q 318 -625 310 -627 Q 302 -629 294.5 -629.5 Q 287 -630 279 -630 Q 265 -630 252 -622.5 Q 239 -615 232 -602.5 Q 225 -590 222.5 -575.5 Q 220 -561 220 -547 L 220 -323 Z " id="path60"/>
<path d="M 327 -323 L 237 -454 L 178 -454 L 178 -323 L 109 -323 L 109 -687 L 276 -687 Q 292 -687 307.5 -684.5 Q 323 -682 337.5 -675 Q 352 -668 364 -657 Q 376 -646 383.5 -632 Q 391 -618 394 -602 Q 397 -586 397 -570 Q 397 -552 392.5 -533 Q 388 -514 377 -498.5 Q 366 -483 350 -473 Q 334 -463 315 -458 L 408 -323 Z M 178 -516 L 276 -516 Q 287 -516 297 -519.5 Q 307 -523 314.5 -531 Q 322 -539 325 -549.5 Q 328 -560 328 -570 Q 328 -581 325 -591.5 Q 322 -602 314.5 -610 Q 307 -618 297 -621.5 Q 287 -625 276 -625 L 178 -625 Z " id="path61"/>
<path d="M 228 -323 Q 212 -323 196.5 -325.5 Q 181 -328 166.5 -335 Q 152 -342 140.5 -353.5 Q 129 -365 122 -379.5 Q 115 -394 112.5 -409.5 Q 110 -425 110 -441 L 110 -625 L 45 -625 L 45 -687 L 110 -687 L 110 -838 L 179 -838 L 179 -687 L 262 -687 L 262 -625 L 179 -625 L 179 -441 Q 179 -431 181.5 -420.5 Q 184 -410 190.5 -401.5 Q 197 -393 207.5 -389 Q 218 -385 228 -385 L 262 -385 L 262 -323 Z M 193 -323 Q 203 -345 213.5 -366.5 Q 224 -388 238 -408 Q 234 -421 233 -435 Q 232 -449 232 -463 L 232 -547 Q 232 -564 234 -581.5 Q 236 -599 241.5 -615.5 Q 247 -632 256.5 -647 Q 266 -662 279.5 -672.5 Q 293 -683 310 -688 Q 327 -693 344 -693 Q 368 -693 391 -683.5 Q 414 -674 428.5 -655 Q 443 -636 449.5 -612 Q 456 -588 456 -564 L 456 -561 L 387 -561 L 387 -563 Q 387 -574 385 -585 Q 383 -596 378.5 -606 Q 374 -616 364.5 -623 Q 355 -630 344 -630 Q 331 -630 322 -620 Q 313 -610 308.5 -598 Q 304 -586 302.5 -573 Q 301 -560 301 -547 L 301 -472 Q 317 -481 334.5 -486.5 Q 352 -492 370 -492 Q 387 -492 404 -487 Q 421 -482 432.5 -469.5 Q 444 -457 449.5 -440.5 Q 455 -424 455 -406 Q 455 -386 446.5 -367.5 Q 438 -349 421.5 -337.5 Q 405 -326 385 -321.5 Q 365 -317 345 -317 Q 324 -317 303 -325 Q 282 -333 267 -349 Q 262 -337 257 -325 Q 252 -313 246 -301 Z M 351 -370 Q 359 -370 367 -372 Q 375 -374 382 -378.5 Q 389 -383 392.5 -390.5 Q 396 -398 396 -407 Q 396 -413 394.5 -418.5 Q 393 -424 390 -429 Q 387 -434 381.5 -436.5 Q 376 -439 370 -439 Q 353 -439 336.5 -431.5 Q 320 -424 308 -412 Q 310 -404 313.5 -396.5 Q 317 -389 322 -383 Q 327 -377 334.5 -373.5 Q 342 -370 351 -370 Z " id="path62"/>
<path d="M 228 -323 Q 212 -323 196.5 -325.5 Q 181 -328 166.5 -335 Q 152 -342 140.5 -353.5 Q 129 -365 122 -379.5 Q 115 -394 112.5 -409.5 Q 110 -425 110 -441 L 110 -625 L 45 -625 L 45 -687 L 110 -687 L 110 -838 L 179 -838 L 179 -687 L 262 -687 L 262 -625 L 179 -625 L 179 -441 Q 179 -431 181.5 -420.5 Q 184 -410 190.5 -401.5 Q 197 -393 207.5 -389 Q 218 -385 228 -385 L 262 -385 L 262 -323 Z M 238 -323 L 238 -385 L 346 -385 Q 354 -385 362 -386.5 Q 370 -388 376.5 -392 Q 383 -396 387 -403 Q 391 -410 391 -418 Q 391 -434 381 -446.5 Q 371 -459 357.5 -467 Q 344 -475 329.5 -480.5 Q 315 -486 301.5 -494 Q 288 -502 276.5 -512.5 Q 265 -523 256 -536 Q 247 -549 242.5 -564 Q 238 -579 238 -595 Q 238 -616 246 -635.5 Q 254 -655 269.5 -668.5 Q 285 -682 305.5 -687.5 Q 326 -693 347 -693 Q 370 -693 392.5 -683.5 Q 415 -674 429.5 -655.5 Q 444 -637 450 -614 Q 456 -591 456 -568 L 456 -561 L 387 -561 L 387 -564 Q 387 -575 385.5 -586 Q 384 -597 379.5 -606.5 Q 375 -616 366 -623 Q 357 -630 347 -630 Q 339 -630 331.5 -628 Q 324 -626 318.5 -621 Q 313 -616 310 -608.5 Q 307 -601 307 -594 Q 307 -578 316.5 -565 Q 326 -552 339.5 -544 Q 353 -536 367.5 -530 Q 382 -524 395.5 -516 Q 409 -508 421 -498 Q 433 -488 441.5 -475 Q 450 -462 455.5 -447 Q 461 -432 461 -416 Q 461 -395 451.5 -376 Q 442 -357 425 -344.5 Q 408 -332 387.5 -327.5 Q 367 -323 346 -323 Z " id="path63"/>
<path d="M 228 -323 Q 212 -323 196.5 -325.5 Q 181 -328 166.5 -335 Q 152 -342 140.5 -353.5 Q 129 -365 122 -379.5 Q 115 -394 112.5 -409.5 Q 110 -425 110 -441 L 110 -625 L 45 -625 L 45 -687 L 110 -687 L 110 -838 L 179 -838 L 179 -687 L 262 -687 L 262 -625 L 179 -625 L 179 -441 Q 179 -431 181.5 -420.5 Q 184 -410 190.5 -401.5 Q 197 -393 207.5 -389 Q 218 -385 228 -385 L 262 -385 L 262 -323 Z M 370 -167 Q 352 -167 335 -170 Q 318 -173 302 -180 Q 286 -187 273.5 -199 Q 261 -211 252.5 -226.5 Q 244 -242 241 -259 Q 238 -276 238 -294 L 238 -449 L 298 -449 L 298 -417 Q 298 -409 301.5 -401.5 Q 305 -394 311.5 -389 Q 318 -384 326 -382 Q 334 -380 342 -380 Q 350 -380 358 -382 Q 366 -384 372.5 -388.5 Q 379 -393 382.5 -400.5 Q 386 -408 386 -416 Q 386 -432 376 -444.5 Q 366 -457 352.5 -464 Q 339 -471 325 -477 Q 311 -483 299 -492 Q 287 -501 276.5 -512.5 Q 266 -524 259 -537 Q 252 -550 247.5 -564.5 Q 243 -579 243 -595 Q 243 -615 250.5 -634.5 Q 258 -654 272.5 -667.5 Q 287 -681 307 -687 Q 327 -693 347 -693 Q 367 -693 386.5 -687.5 Q 406 -682 421 -668.5 Q 436 -655 443.5 -636 Q 451 -617 451 -597 L 451 -593 L 381 -593 L 381 -594 Q 381 -601 379 -608 Q 377 -615 372.5 -620 Q 368 -625 361 -627.5 Q 354 -630 347 -630 Q 340 -630 333 -627.5 Q 326 -625 321.5 -620 Q 317 -615 315 -608 Q 313 -601 313 -594 Q 313 -578 322.5 -565.5 Q 332 -553 345.5 -546 Q 359 -539 373 -533 Q 387 -527 399.5 -518 Q 412 -509 422 -497.5 Q 432 -486 439.5 -472.5 Q 447 -459 451 -444 Q 455 -429 455 -414 Q 455 -396 449.5 -378 Q 444 -360 432.5 -345.5 Q 421 -331 403 -324 Q 385 -317 367 -317 Q 347 -317 328.5 -325 Q 310 -333 298 -349 L 298 -294 Q 298 -279 302.5 -265 Q 307 -251 317 -240.5 Q 327 -230 341 -226 Q 355 -222 370 -222 Z " id="path64"/>
<path d="M 178 -317 Q 157 -317 138 -326 Q 119 -335 107 -352 Q 95 -369 91 -389.5 Q 87 -410 87 -431 L 87 -625 L 42 -625 L 42 -687 L 87 -687 L 87 -838 L 156 -838 L 156 -687 L 346 -687 L 346 -625 L 156 -625 L 156 -431 Q 156 -423 157 -415.5 Q 158 -408 159.5 -401 Q 161 -394 165.5 -387 Q 170 -380 178 -380 Q 184 -380 187.5 -385.5 Q 191 -391 193 -397 Q 195 -403 196 -409 Q 197 -415 198 -421 Q 199 -427 199 -433.5 Q 199 -440 199 -446 L 199 -449 L 269 -449 L 269 -443 Q 269 -428 267 -413.5 Q 265 -399 260.5 -385.5 Q 256 -372 249 -359 Q 242 -346 231 -336.5 Q 220 -327 206 -322 Q 192 -317 178 -317 Z M 212 -172 L 212 -235 L 245 -235 Q 261 -235 275 -242 Q 289 -249 297.5 -262 Q 306 -275 309 -290.5 Q 312 -306 312 -322 L 312 -688 Q 312 -707 314.5 -726 Q 317 -745 324.5 -763 Q 332 -781 344.5 -796 Q 357 -811 373.5 -820.5 Q 390 -830 409 -834 Q 428 -838 447 -838 L 481 -838 L 481 -775 L 447 -775 Q 432 -775 417.5 -768 Q 403 -761 395 -748 Q 387 -735 384 -719.5 Q 381 -704 381 -688 L 381 -322 Q 381 -303 378.5 -284 Q 376 -265 368.5 -247 Q 361 -229 348.5 -214 Q 336 -199 319.5 -189.5 Q 303 -180 284 -176 Q 265 -172 245 -172 Z " id="path65"/>
<path d="M 355 -172 Q 334 -172 313.5 -176 Q 293 -180 274 -189.5 Q 255 -199 240.5 -214.5 Q 226 -230 217 -248.5 Q 208 -267 204.5 -288 Q 201 -309 201 -330 L 201 -625 L 109 -625 L 109 -687 L 201 -687 L 201 -838 L 271 -838 L 271 -687 L 391 -687 L 391 -625 L 271 -625 L 271 -330 Q 271 -312 275 -294 Q 279 -276 290.5 -262 Q 302 -248 319.5 -241.5 Q 337 -235 355 -235 Z " id="path66"/>
<path d="M 210 -323 L 97 -687 L 169 -687 L 238 -444 Q 243 -429 247 -413 Q 251 -397 255 -381 Q 262 -400 266 -420 Q 270 -440 273.5 -459.5 Q 277 -479 280 -498.5 Q 283 -518 285.5 -538 Q 288 -558 290.5 -578 Q 293 -598 299 -617 Q 305 -636 317.5 -652 Q 330 -668 347.5 -678 Q 365 -688 385 -690.5 Q 405 -693 425 -693 L 425 -630 Q 412 -630 399.5 -627 Q 387 -624 378 -614.5 Q 369 -605 365 -592.5 Q 361 -580 359 -567.5 Q 357 -555 355 -542.5 Q 353 -530 351 -517.5 Q 349 -505 346.5 -492 Q 344 -479 341 -466.5 Q 338 -454 335 -442 Q 332 -430 329 -417.5 Q 326 -405 322 -392.5 Q 318 -380 313 -368.5 Q 308 -357 302.5 -345.5 Q 297 -334 290 -323 Z " id="path67"/>
<path d="M 215 -323 L 215 -468 L 97 -687 L 176 -687 L 250 -538 L 324 -687 L 403 -687 L 285 -468 L 285 -323 Z " id="path68"/>
<path d="M 215 -323 L 215 -426 L 158 -426 L 158 -478 L 218 -478 Q 221 -498 229 -517 Q 237 -536 248.5 -553 Q 260 -570 273 -586 Q 286 -602 297 -619.5 Q 308 -637 315 -656.5 Q 322 -676 322 -697 Q 322 -713 318 -728.5 Q 314 -744 304.5 -756 Q 295 -768 280 -774.5 Q 265 -781 249 -781 Q 235 -781 221 -777 Q 207 -773 197 -763.5 Q 187 -754 181.5 -740.5 Q 176 -727 176 -713 L 176 -712 L 107 -712 L 107 -714 Q 107 -741 117.5 -767 Q 128 -793 148.5 -811 Q 169 -829 195.5 -836 Q 222 -843 249 -843 Q 278 -843 306 -833.5 Q 334 -824 353.5 -803.5 Q 373 -783 382.5 -755 Q 392 -727 392 -698 Q 392 -677 387 -657 Q 382 -637 373.5 -618 Q 365 -599 353 -582 Q 341 -565 328 -549 Q 315 -533 304 -515.5 Q 293 -498 288 -478 L 342 -478 L 342 -426 L 285 -426 L 285 -323 Z " id="path69"/>
<path d="M 215 -323 L 215 -426 L 158 -426 L 158 -478 L 212 -478 Q 207 -498 196 -515.5 Q 185 -533 172 -549 Q 159 -565 147 -582 Q 135 -599 126.5 -618 Q 118 -637 113 -657 Q 108 -677 108 -698 Q 108 -727 117.5 -755 Q 127 -783 146.5 -803.5 Q 166 -824 194 -833.5 Q 222 -843 251 -843 Q 278 -843 304.5 -836 Q 331 -829 351.5 -811 Q 372 -793 382.5 -767 Q 393 -741 393 -714 L 393 -712 L 324 -712 L 324 -713 Q 324 -727 318.5 -740.5 Q 313 -754 303 -763.5 Q 293 -773 279 -777 Q 265 -781 251 -781 Q 235 -781 220 -774.5 Q 205 -768 195.5 -756 Q 186 -744 182 -728.5 Q 178 -713 178 -697 Q 178 -676 185 -656.5 Q 192 -637 203 -619.5 Q 214 -602 227 -586 Q 240 -570 251.5 -553 Q 263 -536 271 -517 Q 279 -498 282 -478 L 342 -478 L 342 -426 L 285 -426 L 285 -323 Z " id="path70"/>
<path d="M 250 -317 Q 231 -317 211.5 -320.5 Q 192 -324 174.5 -332 Q 157 -340 142.5 -353.5 Q 128 -367 119 -384.5 Q 110 -402 106.5 -421 Q 103 -440 103 -460 L 103 -701 Q 103 -720 106.5 -739.5 Q 110 -759 119 -776 Q 128 -793 142.5 -806.5 Q 157 -820 174.5 -828.5 Q 192 -837 211.5 -840 Q 231 -843 250 -843 Q 269 -843 288.5 -840 Q 308 -837 325.5 -828.5 Q 343 -820 357.5 -806.5 Q 372 -793 381 -776 Q 390 -759 393.5 -739.5 Q 397 -720 397 -701 L 397 -460 Q 397 -440 393.5 -421 Q 390 -402 381 -384.5 Q 372 -367 357.5 -353.5 Q 343 -340 325.5 -332 Q 308 -324 288.5 -320.5 Q 269 -317 250 -317 Z M 250 -380 Q 266 -380 281.5 -385 Q 297 -390 308 -401.5 Q 319 -413 323.5 -428.5 Q 328 -444 328 -460 L 328 -701 Q 328 -717 323.5 -732.5 Q 319 -748 308 -759.5 Q 297 -771 281.5 -776 Q 266 -781 250 -781 Q 234 -781 218.5 -776 Q 203 -771 192 -759.5 Q 181 -748 176.5 -732.5 Q 172 -717 172 -701 L 172 -460 Q 172 -444 176.5 -428.5 Q 181 -413 192 -401.5 Q 203 -390 218.5 -385 Q 234 -380 250 -380 Z M 250 -525 Q 242 -525 234 -528 Q 226 -531 220.5 -537.5 Q 215 -544 213 -552.5 Q 211 -561 211 -569 L 211 -592 Q 211 -600 213 -608.5 Q 215 -617 220.5 -623.5 Q 226 -630 234 -633 Q 242 -636 250 -636 Q 258 -636 266 -633 Q 274 -630 279.5 -623.5 Q 285 -617 287 -608.5 Q 289 -600 289 -592 L 289 -569 Q 289 -561 287 -552.5 Q 285 -544 279.5 -537.5 Q 274 -531 266 -528 Q 258 -525 250 -525 Z " id="path71"/>
<path d="M 215 -223 L 215 -899 L 285 -899 L 285 -223 Z " id="path72"/>
<path d="M 341 -223 L 282 -223 L 282 -899 L 341 -899 Z M 159 -223 L 159 -899 L 218 -899 L 218 -223 Z " id="path73"/>
<path d="M 215 -223 L 215 -473 L 109 -473 L 109 -525 L 215 -525 L 215 -597 L 109 -597 L 109 -649 L 215 -649 L 215 -899 L 285 -899 L 285 -649 L 391 -649 L 391 -597 L 285 -597 L 285 -525 L 391 -525 L 391 -473 L 285 -473 L 285 -223 Z " id="path74"/>
<path d="M 215 -520 L 215 -838 L 285 -838 L 285 -520 Z M 351 -167 Q 334 -167 317 -170 Q 300 -173 284 -180 Q 268 -187 255 -199 Q 242 -211 234 -226.5 Q 226 -242 223 -259 Q 220 -276 220 -294 L 220 -323 Q 204 -330 196.5 -346 Q 189 -362 189 -379 Q 189 -391 192.5 -403 Q 196 -415 204.5 -424 Q 213 -433 225.5 -436.5 Q 238 -440 250 -440 Q 262 -440 274.5 -436.5 Q 287 -433 295.5 -424 Q 304 -415 307.5 -403 Q 311 -391 311 -379 Q 311 -362 303.5 -346 Q 296 -330 280 -323 L 280 -294 Q 280 -279 284.5 -265 Q 289 -251 299 -240.5 Q 309 -230 323 -226 Q 337 -222 351 -222 Z " id="path75"/>
<path d="M 378 -314 Q 371 -322 364 -329 Q 357 -336 349 -343 Q 327 -328 300 -322.5 Q 273 -317 246 -317 Q 231 -317 216.5 -318 Q 202 -319 187.5 -321.5 Q 173 -324 158.5 -328.5 Q 144 -333 131.5 -340.5 Q 119 -348 111 -361 Q 103 -374 103 -389 Q 103 -406 113.5 -421 Q 124 -436 140 -444 Q 156 -452 173.5 -454.5 Q 191 -457 208 -457 Q 237 -457 265.5 -450 Q 294 -443 321 -431 Q 317 -439 310.5 -445.5 Q 304 -452 295.5 -455.5 Q 287 -459 278.5 -461.5 Q 270 -464 261 -467 L 260 -467 Q 243 -471 226.5 -476 Q 210 -481 194.5 -488.5 Q 179 -496 164.5 -505.5 Q 150 -515 138.5 -528 Q 127 -541 120.5 -557.5 Q 114 -574 114 -591 Q 114 -615 126.5 -636.5 Q 139 -658 159 -671 Q 179 -684 203 -688.5 Q 227 -693 251 -693 Q 274 -693 297.5 -688.5 Q 321 -684 341.5 -672.5 Q 362 -661 374.5 -640 Q 387 -619 387 -596 L 387 -593 L 319 -593 Q 319 -604 311 -612 Q 303 -620 293 -624 Q 283 -628 272 -629.5 Q 261 -631 251 -631 Q 240 -631 229 -629.5 Q 218 -628 208 -623.5 Q 198 -619 190.5 -610.5 Q 183 -602 183 -591 Q 183 -579 191.5 -569.5 Q 200 -560 211 -554.5 Q 222 -549 234 -546 Q 246 -543 257.5 -540 Q 269 -537 280.5 -533 Q 292 -529 303.5 -524.5 Q 315 -520 325.5 -514 Q 336 -508 346 -501 Q 356 -494 364 -485 Q 372 -476 378.5 -465.5 Q 385 -455 388.5 -443 Q 392 -431 392 -419 Q 392 -412 390.5 -404 Q 389 -396 386 -389 Q 397 -380 406.5 -370.5 Q 416 -361 425 -351 Z M 243 -374 Q 255 -374 267.5 -375.5 Q 280 -377 291 -381 Q 272 -390 251 -395 Q 230 -400 208 -400 Q 205 -400 201 -400 Q 197 -400 193 -399.5 Q 189 -399 185 -398.5 Q 181 -398 177.5 -397.5 Q 174 -397 170 -395 Q 166 -393 166 -389 Q 166 -385 170 -383 Q 174 -381 178 -380 Q 182 -379 186 -378 Q 190 -377 194 -376.5 Q 198 -376 202 -375.5 Q 206 -375 210.5 -375 Q 215 -375 219 -374.5 Q 223 -374 227 -374 Q 231 -374 235 -374 Q 239 -374 243 -374 Z " id="path76"/>
</defs>
<g>
<g data-source-text="0" fill="#20242e" transform="translate(174 41.292) rotate(0) scale(0.023999998)">
<use href="#path1" transform="translate(0 0)"/>
</g>
</g>
<g>
<g data-source-text="1" fill="#20242e" transform="translate(246 41.292) rotate(0) scale(0.023999998)">
<use href="#path2" transform="translate(0 0)"/>
</g>
</g>
<g>
<g data-source-text="2" fill="#20242e" transform="translate(318 41.292) rotate(0) scale(0.023999998)">
<use href="#path3" transform="translate(0 0)"/>
</g>
</g>
<g>
<g data-source-text="3" fill="#20242e" transform="translate(390 41.292) rotate(0) scale(0.023999998)">
<use href="#path4" transform="translate(0 0)"/>
</g>
</g>
<g>
<g data-source-text="4" fill="#20242e" transform="translate(462 41.292) rotate(0) scale(0.023999998)">
<use href="#path5" transform="translate(0 0)"/>
</g>
</g>
<g>
<g data-source-text="5" fill="#20242e" transform="translate(534 41.292) rotate(0) scale(0.023999998)">
<use href="#path6" transform="translate(0 0)"/>
</g>
</g>
<g>
<g data-source-text="6" fill="#20242e" transform="translate(606 41.292) rotate(0) scale(0.023999998)">
<use href="#path7" transform="translate(0 0)"/>
</g>
</g>
<g>
<g data-source-text="7" fill="#20242e" transform="translate(678 41.292) rotate(0) scale(0.023999998)">
<use href="#path8" transform="translate(0 0)"/>
</g>
</g>
<g>
<g data-source-text="8" fill="#20242e" transform="translate(750 41.292) rotate(0) scale(0.023999998)">
<use href="#path9" transform="translate(0 0)"/>
</g>
</g>
<g>
<g data-source-text="9" fill="#20242e" transform="translate(822 41.292) rotate(0) scale(0.023999998)">
<use href="#path10" transform="translate(0 0)"/>
</g>
</g>
<g>
<g data-source-text="A" fill="#20242e" transform="translate(894 41.292) rotate(0) scale(0.023999998)">
<use href="#path11" transform="translate(0 0)"/>
</g>
</g>
<g>
<g data-source-text="B" fill="#20242e" transform="translate(966 41.292) rotate(0) scale(0.023999998)">
<use href="#path12" transform="translate(0 0)"/>
</g>
</g>
<g>
<g data-source-text="C" fill="#20242e" transform="translate(1038 41.292) rotate(0) scale(0.023999998)">
<use href="#path13" transform="translate(0 0)"/>
</g>
</g>
<g>
<g data-source-text="D" fill="#20242e" transform="translate(1110 41.292) rotate(0) scale(0.023999998)">
<use href="#path14" transform="translate(0 0)"/>
</g>
</g>
<g>
<g data-source-text="E" fill="#20242e" transform="translate(1182 41.292) rotate(0) scale(0.023999998)">
<use href="#path15" transform="translate(0 0)"/>
</g>
</g>
<g>
<g data-source-text="F" fill="#20242e" transform="translate(1254 41.292) rotate(0) scale(0.023999998)">
<use href="#path16" transform="translate(0 0)"/>
</g>
</g>
<g>
<g data-source-text="U+10780" fill="#20242e" transform="translate(30 113.292) rotate(0) scale(0.023999998)">
<use href="#path17" transform="translate(0 0)"/>
<use href="#path18" transform="translate(500 0)"/>
<use href="#path2" transform="translate(1000 0)"/>
<use href="#path1" transform="translate(1500 0)"/>
<use href="#path8" transform="translate(2000 0)"/>
<use href="#path9" transform="translate(2500 0)"/>
<use href="#path1" transform="translate(3000 0)"/>
</g>
</g>
<g>
<g data-source-text="" fill="#20242e" transform="translate(168 118.584) rotate(0) scale(0.047999997)">
<use href="#path19" transform="translate(0 0)"/>
</g>
</g>
<g>
<g data-source-text="" fill="#20242e" transform="translate(240 118.584) rotate(0) scale(0.047999997)">
<use href="#path20" transform="translate(0 0)"/>
</g>
</g>
<g>
<g data-source-text="" fill="#20242e" transform="translate(312 118.584) rotate(0) scale(0.047999997)">
<use href="#path21" transform="translate(0 0)"/>
</g>
</g>
<g>
<g data-source-text="" fill="#20242e" transform="translate(384 118.584) rotate(0) scale(0.047999997)">
<use href="#path22" transform="translate(0 0)"/>
</g>
</g>
<g>
<g data-source-text="" fill="#20242e" transform="translate(456 118.584) rotate(0) scale(0.047999997)">
<use href="#path23" transform="translate(0 0)"/>
</g>
</g>
<g>
<g data-source-text="" fill="#20242e" transform="translate(528 118.584) rotate(0) scale(0.047999997)">
<use href="#path24" transform="translate(0 0)"/>
</g>
</g>
<g>
<g data-source-text="" fill="#20242e40" transform="translate(600 118.584) rotate(0) scale(0.047999997)">
<use href="#path25" transform="translate(0 0)"/>
</g>
</g>
<g>
<g data-source-text="" fill="#20242e" transform="translate(672 118.584) rotate(0) scale(0.047999997)">
<use href="#path26" transform="translate(0 0)"/>
</g>
</g>
<g>
<g data-source-text="" fill="#20242e" transform="translate(744 118.584) rotate(0) scale(0.047999997)">
<use href="#path27" transform="translate(0 0)"/>
</g>
</g>
<g>
<g data-source-text="" fill="#20242e" transform="translate(816 118.584) rotate(0) scale(0.047999997)">
<use href="#path28" transform="translate(0 0)"/>
</g>
</g>
<g>
<g data-source-text="" fill="#20242e" transform="translate(888 118.584) rotate(0) scale(0.047999997)">
<use href="#path29" transform="translate(0 0)"/>
</g>
</g>
<g>
<g data-source-text="" fill="#20242e" transform="translate(960 118.584) rotate(0) scale(0.047999997)">
<use href="#path30" transform="translate(0 0)"/>
</g>
</g>
<g>
<g data-source-text="" fill="#20242e" transform="translate(1032 118.584) rotate(0) scale(0.047999997)">
<use href="#path31" transform="translate(0 0)"/>
</g>
</g>
<g>
<g data-source-text="" fill="#20242e" transform="translate(1104 118.584) rotate(0) scale(0.047999997)">
<use href="#path32" transform="translate(0 0)"/>
</g>
</g>
<g>
<g data-source-text="" fill="#20242e" transform="translate(1176 118.584) rotate(0) scale(0.047999997)">
<use href="#path33" transform="translate(0 0)"/>
</g>
</g>
<g>
<g data-source-text="" fill="#20242e" transform="translate(1248 118.584) rotate(0) scale(0.047999997)">
<use href="#path34" transform="translate(0 0)"/>
</g>
</g>
<g>
<g data-source-text="U+10790" fill="#20242e" transform="translate(30 185.292) rotate(0) scale(0.023999998)">
<use href="#path17" transform="translate(0 0)"/>
<use href="#path18" transform="translate(500 0)"/>
<use href="#path2" transform="translate(1000 0)"/>
<use href="#path1" transform="translate(1500 0)"/>
<use href="#path8" transform="translate(2000 0)"/>
<use href="#path10" transform="translate(2500 0)"/>
<use href="#path1" transform="translate(3000 0)"/>
</g>
</g>
<g>
<g data-source-text="" fill="#20242e" transform="translate(168 190.584) rotate(0) scale(0.047999997)">
<use href="#path35" transform="translate(0 0)"/>
</g>
</g>
<g>
<g data-source-text="" fill="#20242e" transform="translate(240 190.584) rotate(0) scale(0.047999997)">
<use href="#path36" transform="translate(0 0)"/>
</g>
</g>
<g>
<g data-source-text="" fill="#20242e" transform="translate(312 190.584) rotate(0) scale(0.047999997)">
<use href="#path37" transform="translate(0 0)"/>
</g>
</g>
<g>
<g data-source-text="" fill="#20242e" transform="translate(384 190.584) rotate(0) scale(0.047999997)">
<use href="#path38" transform="translate(0 0)"/>
</g>
</g>
<g>
<g data-source-text="" fill="#20242e" transform="translate(456 190.584) rotate(0) scale(0.047999997)">
<use href="#path39" transform="translate(0 0)"/>
</g>
</g>
<g>
<g data-source-text="" fill="#20242e" transform="translate(528 190.584) rotate(0) scale(0.047999997)">
<use href="#path40" transform="translate(0 0)"/>
</g>
</g>
<g>
<g data-source-text="" fill="#20242e" transform="translate(600 190.584) rotate(0) scale(0.047999997)">
<use href="#path41" transform="translate(0 0)"/>
</g>
</g>
<g>
<g data-source-text="" fill="#20242e" transform="translate(672 190.584) rotate(0) scale(0.047999997)">
<use href="#path42" transform="translate(0 0)"/>
</g>
</g>
<g>
<g data-source-text="" fill="#20242e" transform="translate(744 190.584) rotate(0) scale(0.047999997)">
<use href="#path43" transform="translate(0 0)"/>
</g>
</g>
<g>
<g data-source-text="" fill="#20242e" transform="translate(816 190.584) rotate(0) scale(0.047999997)">
<use href="#path44" transform="translate(0 0)"/>
</g>
</g>
<g>
<g data-source-text="" fill="#20242e" transform="translate(888 190.584) rotate(0) scale(0.047999997)">
<use href="#path45" transform="translate(0 0)"/>
</g>
</g>
<g>
<g data-source-text="" fill="#20242e" transform="translate(960 190.584) rotate(0) scale(0.047999997)">
<use href="#path46" transform="translate(0 0)"/>
</g>
</g>
<g>
<g data-source-text="" fill="#20242e" transform="translate(1032 190.584) rotate(0) scale(0.047999997)">
<use href="#path47" transform="translate(0 0)"/>
</g>
</g>
<g>
<g data-source-text="" fill="#20242e" transform="translate(1104 190.584) rotate(0) scale(0.047999997)">
<use href="#path48" transform="translate(0 0)"/>
</g>
</g>
<g>
<g data-source-text="" fill="#20242e" transform="translate(1176 190.584) rotate(0) scale(0.047999997)">
<use href="#path49" transform="translate(0 0)"/>
</g>
</g>
<g>
<g data-source-text="" fill="#20242e" transform="translate(1248 190.584) rotate(0) scale(0.047999997)">
<use href="#path50" transform="translate(0 0)"/>
</g>
</g>
<g>
<g data-source-text="U+107A0" fill="#20242e" transform="translate(30 257.292) rotate(0) scale(0.023999998)">
<use href="#path17" transform="translate(0 0)"/>
<use href="#path18" transform="translate(500 0)"/>
<use href="#path2" transform="translate(1000 0)"/>
<use href="#path1" transform="translate(1500 0)"/>
<use href="#path8" transform="translate(2000 0)"/>
<use href="#path11" transform="translate(2500 0)"/>
<use href="#path1" transform="translate(3000 0)"/>
</g>
</g>
<g>
<g data-source-text="" fill="#20242e" transform="translate(168 262.584) rotate(0) scale(0.047999997)">
<use href="#path51" transform="translate(0 0)"/>
</g>
</g>
<g>
<g data-source-text="" fill="#20242e" transform="translate(240 262.584) rotate(0) scale(0.047999997)">
<use href="#path52" transform="translate(0 0)"/>
</g>
</g>
<g>
<g data-source-text="" fill="#20242e" transform="translate(312 262.584) rotate(0) scale(0.047999997)">
<use href="#path53" transform="translate(0 0)"/>
</g>
</g>
<g>
<g data-source-text="" fill="#20242e" transform="translate(384 262.584) rotate(0) scale(0.047999997)">
<use href="#path54" transform="translate(0 0)"/>
</g>
</g>
<g>
<g data-source-text="" fill="#20242e" transform="translate(456 262.584) rotate(0) scale(0.047999997)">
<use href="#path55" transform="translate(0 0)"/>
</g>
</g>
<g>
<g data-source-text="" fill="#20242e" transform="translate(528 262.584) rotate(0) scale(0.047999997)">
<use href="#path56" transform="translate(0 0)"/>
</g>
</g>
<g>
<g data-source-text="" fill="#20242e" transform="translate(600 262.584) rotate(0) scale(0.047999997)">
<use href="#path57" transform="translate(0 0)"/>
</g>
</g>
<g>
<g data-source-text="" fill="#20242e" transform="translate(672 262.584) rotate(0) scale(0.047999997)">
<use href="#path58" transform="translate(0 0)"/>
</g>
</g>
<g>
<g data-source-text="" fill="#20242e" transform="translate(744 262.584) rotate(0) scale(0.047999997)">
<use href="#path59" transform="translate(0 0)"/>
</g>
</g>
<g>
<g data-source-text="" fill="#20242e" transform="translate(816 262.584) rotate(0) scale(0.047999997)">
<use href="#path60" transform="translate(0 0)"/>
</g>
</g>
<g>
<g data-source-text="" fill="#20242e" transform="translate(888 262.584) rotate(0) scale(0.047999997)">
<use href="#path61" transform="translate(0 0)"/>
</g>
</g>
<g>
<g data-source-text="" fill="#20242e" transform="translate(960 262.584) rotate(0) scale(0.047999997)">
<use href="#path62" transform="translate(0 0)"/>
</g>
</g>
<g>
<g data-source-text="" fill="#20242e" transform="translate(1032 262.584) rotate(0) scale(0.047999997)">
<use href="#path63" transform="translate(0 0)"/>
</g>
</g>
<g>
<g data-source-text="" fill="#20242e" transform="translate(1104 262.584) rotate(0) scale(0.047999997)">
<use href="#path64" transform="translate(0 0)"/>
</g>
</g>
<g>
<g data-source-text="" fill="#20242e" transform="translate(1176 262.584) rotate(0) scale(0.047999997)">
<use href="#path65" transform="translate(0 0)"/>
</g>
</g>
<g>
<g data-source-text="" fill="#20242e" transform="translate(1248 262.584) rotate(0) scale(0.047999997)">
<use href="#path66" transform="translate(0 0)"/>
</g>
</g>
<g>
<g data-source-text="U+107B0" fill="#20242e" transform="translate(30 329.292) rotate(0) scale(0.023999998)">
<use href="#path17" transform="translate(0 0)"/>
<use href="#path18" transform="translate(500 0)"/>
<use href="#path2" transform="translate(1000 0)"/>
<use href="#path1" transform="translate(1500 0)"/>
<use href="#path8" transform="translate(2000 0)"/>
<use href="#path12" transform="translate(2500 0)"/>
<use href="#path1" transform="translate(3000 0)"/>
</g>
</g>
<g>
<g data-source-text="" fill="#20242e" transform="translate(168 334.584) rotate(0) scale(0.047999997)">
<use href="#path67" transform="translate(0 0)"/>
</g>
</g>
<g>
<g data-source-text="" fill="#20242e40" transform="translate(240 334.584) rotate(0) scale(0.047999997)">
<use href="#path25" transform="translate(0 0)"/>
</g>
</g>
<g>
<g data-source-text="" fill="#20242e" transform="translate(312 334.584) rotate(0) scale(0.047999997)">
<use href="#path68" transform="translate(0 0)"/>
</g>
</g>
<g>
<g data-source-text="" fill="#20242e" transform="translate(384 334.584) rotate(0) scale(0.047999997)">
<use href="#path69" transform="translate(0 0)"/>
</g>
</g>
<g>
<g data-source-text="" fill="#20242e" transform="translate(456 334.584) rotate(0) scale(0.047999997)">
<use href="#path70" transform="translate(0 0)"/>
</g>
</g>
<g>
<g data-source-text="" fill="#20242e" transform="translate(528 334.584) rotate(0) scale(0.047999997)">
<use href="#path71" transform="translate(0 0)"/>
</g>
</g>
<g>
<g data-source-text="" fill="#20242e" transform="translate(600 334.584) rotate(0) scale(0.047999997)">
<use href="#path72" transform="translate(0 0)"/>
</g>
</g>
<g>
<g data-source-text="" fill="#20242e" transform="translate(672 334.584) rotate(0) scale(0.047999997)">
<use href="#path73" transform="translate(0 0)"/>
</g>
</g>
<g>
<g data-source-text="" fill="#20242e" transform="translate(744 334.584) rotate(0) scale(0.047999997)">
<use href="#path74" transform="translate(0 0)"/>
</g>
</g>
<g>
<g data-source-text="" fill="#20242e" transform="translate(816 334.584) rotate(0) scale(0.047999997)">
<use href="#path75" transform="translate(0 0)"/>
</g>
</g>
<g>
<g data-source-text="" fill="#20242e" transform="translate(888 334.584) rotate(0) scale(0.047999997)">
<use href="#path76" transform="translate(0 0)"/>
</g>
</g>
<g>
<g data-source-text="" fill="#20242e40" transform="translate(960 334.584) rotate(0) scale(0.047999997)">
<use href="#path25" transform="translate(0 0)"/>
</g>
</g>
<g>
<g data-source-text="" fill="#20242e40" transform="translate(1032 334.584) rotate(0) scale(0.047999997)">
<use href="#path25" transform="translate(0 0)"/>
</g>
</g>
<g>
<g data-source-text="" fill="#20242e40" transform="translate(1104 334.584) rotate(0) scale(0.047999997)">
<use href="#path25" transform="translate(0 0)"/>
</g>
</g>
<g>
<g data-source-text="" fill="#20242e40" transform="translate(1176 334.584) rotate(0) scale(0.047999997)">
<use href="#path25" transform="translate(0 0)"/>
</g>
</g>
<g>
<g data-source-text="" fill="#20242e40" transform="translate(1248 334.584) rotate(0) scale(0.047999997)">
<use href="#path25" transform="translate(0 0)"/>
</g>
</g>
</svg>