<?xml version="1.0" encoding="UTF-8" standalone="no"?>
<svg height="360" viewBox="0 0 1296 360" width="1296" xmlns="http://www.w3.org/2000/svg">
<defs>
<path d="M 250 8 Q 223 8 196 3 Q 169 -2 145 -15 Q 121 -28 102.5 -48.5 Q 84 -69 72.5 -94 Q 61 -119 56.5 -146 Q 52 -173 52 -200 L 52 -535 Q 52 -562 56.5 -589 Q 61 -616 72.5 -641 Q 84 -666 102.5 -686.5 Q 121 -707 145 -720 Q 169 -733 196 -738 Q 223 -743 250 -743 Q 277 -743 304 -738 Q 331 -733 355 -720 Q 379 -707 397.5 -686.5 Q 416 -666 427.5 -641 Q 439 -616 443.5 -589 Q 448 -562 448 -535 L 448 -200 Q 448 -173 443.5 -146 Q 439 -119 427.5 -94 Q 416 -69 397.5 -48.5 Q 379 -28 355 -15 Q 331 -2 304 3 Q 277 8 250 8 Z M 152 -338 L 348 -493 L 348 -535 Q 348 -557 343 -579 Q 338 -601 325.5 -618.5 Q 313 -636 292.5 -645.5 Q 272 -655 250 -655 Q 228 -655 207.5 -645.5 Q 187 -636 174.5 -618.5 Q 162 -601 157 -579 Q 152 -557 152 -535 Z M 250 -80 Q 272 -80 292.5 -89.5 Q 313 -99 325.5 -116.5 Q 338 -134 343 -156 Q 348 -178 348 -200 L 348 -397 L 152 -242 L 152 -200 Q 152 -178 157 -156 Q 162 -134 174.5 -116.5 Q 187 -99 207.5 -89.5 Q 228 -80 250 -80 Z " id="path1"/>
<path d="M 230 0 L 230 -632 L 110 -528 L 55 -584 L 230 -735 L 330 -735 L 330 0 Z " id="path2"/>
<path d="M 60 0 L 60 -1 Q 60 -27 61 -54 Q 62 -81 65.5 -107 Q 69 -133 77 -158.5 Q 85 -184 96.5 -208 Q 108 -232 123 -253.5 Q 138 -275 156 -294.5 Q 174 -314 194 -331 Q 214 -348 235.5 -364 Q 257 -380 277.5 -397 Q 298 -414 313 -435.5 Q 328 -457 336 -483 Q 344 -509 344 -535 Q 344 -557 339.5 -578 Q 335 -599 323.5 -617 Q 312 -635 292 -645 Q 272 -655 251 -655 Q 231 -655 212.5 -647.5 Q 194 -640 181.5 -625 Q 169 -610 163.5 -591 Q 158 -572 158 -552 L 158 -548 L 58 -548 L 58 -555 Q 58 -581 63.5 -606 Q 69 -631 81 -653 Q 93 -675 111.5 -693 Q 130 -711 152.5 -722.5 Q 175 -734 200.5 -738.5 Q 226 -743 251 -743 Q 278 -743 304.5 -737.5 Q 331 -732 354.5 -719 Q 378 -706 396 -685.5 Q 414 -665 425 -640.5 Q 436 -616 440 -589 Q 444 -562 444 -535 Q 444 -501 435 -468 Q 426 -435 407.5 -406 Q 389 -377 364 -353.5 Q 339 -330 312.5 -308.5 Q 286 -287 261 -264 Q 236 -241 216 -213 Q 196 -185 183 -153.5 Q 170 -122 165 -88 L 440 -88 L 440 0 Z " id="path3"/>
<path d="M 253 8 Q 227 8 201 4 Q 175 -0 151 -11.5 Q 127 -23 107.5 -40.5 Q 88 -58 75.5 -81 Q 63 -104 56.5 -129.5 Q 50 -155 50 -181 L 50 -187 L 150 -187 L 150 -184 Q 150 -163 157 -143 Q 164 -123 178 -108 Q 192 -93 212 -86.5 Q 232 -80 253 -80 Q 275 -80 296 -88.5 Q 317 -97 330.5 -114.5 Q 344 -132 350 -154 Q 356 -176 356 -198 Q 356 -217 352 -235.5 Q 348 -254 339 -271 Q 330 -288 316.5 -301 Q 303 -314 286 -322 Q 269 -330 250 -332 Q 231 -334 212 -334 L 212 -422 Q 229 -422 246 -424 Q 263 -426 278.5 -433 Q 294 -440 306 -452.5 Q 318 -465 325.5 -480.5 Q 333 -496 336.5 -513 Q 340 -530 340 -547 Q 340 -566 335.5 -585.5 Q 331 -605 320 -621.5 Q 309 -638 291 -646.5 Q 273 -655 253 -655 Q 234 -655 216 -647 Q 198 -639 187 -624 Q 176 -609 171 -590 Q 166 -571 166 -553 L 166 -548 L 66 -548 L 66 -556 Q 66 -581 71.5 -605.5 Q 77 -630 88 -652 Q 99 -674 116.5 -692.5 Q 134 -711 156.5 -722.5 Q 179 -734 203.5 -738.5 Q 228 -743 253 -743 Q 278 -743 303.5 -738 Q 329 -733 351 -721 Q 373 -709 390.5 -690 Q 408 -671 419 -648 Q 430 -625 435 -600 Q 440 -575 440 -550 Q 440 -524 434 -498.5 Q 428 -473 416 -450.5 Q 404 -428 385 -409.5 Q 366 -391 343 -379 Q 370 -368 391.5 -348.5 Q 413 -329 427.5 -304.5 Q 442 -280 449 -252 Q 456 -224 456 -196 Q 456 -168 450 -141.5 Q 444 -115 432 -91 Q 420 -67 401 -47 Q 382 -27 358 -14.5 Q 334 -2 307 3 Q 280 8 253 8 Z " id="path4"/>
<path d="M 282 0 L 282 -188 L 52 -188 L 52 -275 L 276 -735 L 377 -735 L 152 -275 L 282 -275 L 282 -435 L 383 -435 L 383 -275 L 440 -275 L 440 -188 L 383 -188 L 383 0 Z " id="path5"/>
<path d="M 252 8 Q 227 8 202.5 3.5 Q 178 -1 155.5 -12 Q 133 -23 114.5 -41 Q 96 -59 84 -80.5 Q 72 -102 65.5 -126.5 Q 59 -151 58 -176 L 159 -176 Q 160 -158 166.5 -139.5 Q 173 -121 185.5 -107 Q 198 -93 216 -86.5 Q 234 -80 252 -80 Q 269 -80 285 -87 Q 301 -94 312.5 -107 Q 324 -120 330.5 -135.5 Q 337 -151 341 -167.5 Q 345 -184 346.5 -201 Q 348 -218 348 -235 Q 348 -252 346.5 -269 Q 345 -286 341.5 -302.5 Q 338 -319 331.5 -334.5 Q 325 -350 314.5 -363 Q 304 -376 288 -383.5 Q 272 -391 256 -391 Q 240 -391 224 -387 Q 208 -383 195.5 -373.5 Q 183 -364 176 -349.5 Q 169 -335 168 -319 L 68 -319 L 68 -735 L 421 -735 L 421 -647 L 168 -647 L 168 -464 Q 189 -472 211 -475 Q 233 -478 256 -478 Q 285 -478 313.5 -470.5 Q 342 -463 365.5 -445.5 Q 389 -428 405.5 -403 Q 422 -378 431.5 -350.5 Q 441 -323 444.5 -294 Q 448 -265 448 -235 Q 448 -206 444.5 -176.5 Q 441 -147 431 -119 Q 421 -91 404.5 -66.5 Q 388 -42 364 -24.5 Q 340 -7 311 0.5 Q 282 8 252 8 Z " id="path6"/>
<path d="M 250 8 Q 221 8 192.5 1.5 Q 164 -5 140 -21 Q 116 -37 98.5 -60.5 Q 81 -84 70.5 -111 Q 60 -138 56 -166.5 Q 52 -195 52 -224 Q 52 -268 59.5 -311 Q 67 -354 81 -395.5 Q 95 -437 113 -477 Q 131 -517 150 -556 L 238 -735 L 347 -735 L 240 -517 Q 228 -492 216 -467 Q 204 -442 194 -416 Q 212 -436 238.5 -446 Q 265 -456 292 -456 Q 318 -456 343.5 -447 Q 369 -438 387.5 -419.5 Q 406 -401 418 -377 Q 430 -353 436.5 -328 Q 443 -303 445.5 -276.5 Q 448 -250 448 -224 Q 448 -195 444 -166.5 Q 440 -138 429.5 -111 Q 419 -84 401.5 -60.5 Q 384 -37 360 -21 Q 336 -5 307.5 1.5 Q 279 8 250 8 Z M 250 -80 Q 266 -80 282 -85.5 Q 298 -91 309.5 -102.5 Q 321 -114 328.5 -129 Q 336 -144 340.5 -159.5 Q 345 -175 346.5 -191.5 Q 348 -208 348 -224 Q 348 -240 346.5 -256.5 Q 345 -273 340.5 -289 Q 336 -305 328.5 -319.5 Q 321 -334 309.5 -345.5 Q 298 -357 282 -362.5 Q 266 -368 250 -368 Q 235 -368 221 -363.5 Q 207 -359 195.5 -349.5 Q 184 -340 176 -327.5 Q 168 -315 163.5 -301 Q 159 -287 156.5 -272.5 Q 154 -258 153 -243 Q 153 -238 152.5 -233.5 Q 152 -229 152 -224 Q 152 -208 153.5 -191.5 Q 155 -175 159.5 -159.5 Q 164 -144 171.5 -129 Q 179 -114 190.5 -102.5 Q 202 -91 218 -85.5 Q 234 -80 250 -80 Z " id="path7"/>
<path d="M 138 0 L 336 -647 L 60 -647 L 60 -735 L 440 -735 L 440 -647 L 242 0 Z " id="path8"/>
<path d="M 250 8 Q 225 8 200 4 Q 175 -0 152 -10 Q 129 -20 109.5 -37 Q 90 -54 77.5 -75.5 Q 65 -97 58.5 -121.5 Q 52 -146 52 -172 Q 52 -203 61.5 -232.5 Q 71 -262 88 -288.5 Q 105 -315 127 -336.5 Q 149 -358 174 -378 Q 152 -396 132.5 -417 Q 113 -438 98.5 -462.5 Q 84 -487 76 -514.5 Q 68 -542 68 -570 Q 68 -594 73.5 -617.5 Q 79 -641 90.5 -661.5 Q 102 -682 119.5 -698.5 Q 137 -715 158 -725 Q 179 -735 202.5 -739 Q 226 -743 250 -743 Q 274 -743 297.5 -739 Q 321 -735 342 -725 Q 363 -715 380.5 -698.5 Q 398 -682 409.5 -661.5 Q 421 -641 426.5 -617.5 Q 432 -594 432 -570 Q 432 -542 424 -514.5 Q 416 -487 401.5 -462.5 Q 387 -438 367.5 -417 Q 348 -396 326 -378 Q 351 -358 373 -336.5 Q 395 -315 412 -288.5 Q 429 -262 438.5 -232.5 Q 448 -203 448 -172 Q 448 -146 441.5 -121.5 Q 435 -97 422.5 -75.5 Q 410 -54 390.5 -37 Q 371 -20 348 -10 Q 325 -0 300 4 Q 275 8 250 8 Z M 250 -434 Q 266 -447 280.5 -461.5 Q 295 -476 306.5 -493 Q 318 -510 325 -529.5 Q 332 -549 332 -569 Q 332 -586 327 -602.5 Q 322 -619 310.5 -631.5 Q 299 -644 283 -649.5 Q 267 -655 250 -655 Q 233 -655 217 -649.5 Q 201 -644 189.5 -631.5 Q 178 -619 173 -602.5 Q 168 -586 168 -569 Q 168 -549 175 -529.5 Q 182 -510 193.5 -493 Q 205 -476 219.5 -461.5 Q 234 -447 250 -434 Z M 250 -80 Q 269 -80 288 -85.5 Q 307 -91 320.5 -104 Q 334 -117 341 -135.5 Q 348 -154 348 -173 Q 348 -196 339.5 -217.5 Q 331 -239 317 -257.5 Q 303 -276 285.5 -291 Q 268 -306 250 -320 Q 232 -306 214.5 -291 Q 197 -276 183 -257.5 Q 169 -239 160.5 -217.5 Q 152 -196 152 -173 Q 152 -154 159 -135.5 Q 166 -117 179.5 -104 Q 193 -91 212 -85.5 Q 231 -80 250 -80 Z " id="path9"/>
<path d="M 262 0 L 153 0 L 260 -218 Q 272 -243 284 -268 Q 296 -293 306 -319 Q 288 -299 261.5 -289 Q 235 -279 208 -279 Q 182 -279 156.5 -288 Q 131 -297 112.5 -315.5 Q 94 -334 82 -358 Q 70 -382 63.5 -407 Q 57 -432 54.5 -458.5 Q 52 -485 52 -511 Q 52 -540 56 -568.5 Q 60 -597 70.5 -624 Q 81 -651 98.5 -674.5 Q 116 -698 140 -714 Q 164 -730 192.5 -736.5 Q 221 -743 250 -743 Q 279 -743 307.5 -736.5 Q 336 -730 360 -714 Q 384 -698 401.5 -674.5 Q 419 -651 429.5 -624 Q 440 -597 444 -568.5 Q 448 -540 448 -511 Q 448 -467 440.5 -424 Q 433 -381 419 -339.5 Q 405 -298 387 -258 Q 369 -218 350 -179 Z M 250 -367 Q 265 -367 279 -371.5 Q 293 -376 304.5 -385.5 Q 316 -395 324 -407.5 Q 332 -420 336.5 -434 Q 341 -448 343.5 -462.5 Q 346 -477 347 -492 Q 347 -497 347.5 -501.5 Q 348 -506 348 -511 Q 348 -527 346.5 -543.5 Q 345 -560 340.5 -575.5 Q 336 -591 328.5 -606 Q 321 -621 309.5 -632.5 Q 298 -644 282 -649.5 Q 266 -655 250 -655 Q 234 -655 218 -649.5 Q 202 -644 190.5 -632.5 Q 179 -621 171.5 -606 Q 164 -591 159.5 -575.5 Q 155 -560 153.5 -543.5 Q 152 -527 152 -511 Q 152 -495 153.5 -478.5 Q 155 -462 159.5 -446 Q 164 -430 171.5 -415.5 Q 179 -401 190.5 -389.5 Q 202 -378 218 -372.5 Q 234 -367 250 -367 Z " id="path10"/>
<path d="M 39 0 L 53 -70 L 192 -735 L 308 -735 L 461 0 L 359 0 L 326 -172 L 174 -172 L 141 0 Z M 310 -260 L 267 -490 Q 263 -513 258.5 -536 Q 254 -559 250 -582 Q 246 -559 241.5 -536 Q 237 -513 233 -490 L 190 -260 Z " id="path11"/>
<path d="M 60 0 L 60 -735 L 235 -735 Q 261 -735 287 -730.5 Q 313 -726 336.5 -714 Q 360 -702 378.5 -682.5 Q 397 -663 408.5 -639.5 Q 420 -616 424.5 -590 Q 429 -564 429 -538 Q 429 -515 425.5 -492 Q 422 -469 411.5 -448.5 Q 401 -428 384.5 -411 Q 368 -394 348 -383 Q 373 -373 394.5 -355.5 Q 416 -338 430.5 -314.5 Q 445 -291 450.5 -264 Q 456 -237 456 -210 Q 456 -181 450.5 -152.5 Q 445 -124 431 -98.5 Q 417 -73 395.5 -53.5 Q 374 -34 347.5 -21.5 Q 321 -9 292.5 -4.5 Q 264 -0 235 0 Z M 160 -424 L 235 -424 Q 256 -424 275.5 -432.5 Q 295 -441 307.5 -457.5 Q 320 -474 324.5 -494.5 Q 329 -515 329 -536 Q 329 -557 324.5 -577.5 Q 320 -598 307.5 -614.5 Q 295 -631 275.5 -639 Q 256 -647 235 -647 L 160 -647 Z M 160 -88 L 235 -88 Q 251 -88 267.5 -91 Q 284 -94 298.5 -101.5 Q 313 -109 324.5 -121 Q 336 -133 343 -148 Q 350 -163 353 -179 Q 356 -195 356 -212 Q 356 -228 353 -244.5 Q 350 -261 343 -276 Q 336 -291 324.5 -303 Q 313 -315 298.5 -322.5 Q 284 -330 267.5 -333 Q 251 -336 235 -336 L 160 -336 Z " id="path12"/>
<path d="M 247 8 Q 220 8 193 3 Q 166 -2 142.5 -15.5 Q 119 -29 101 -49.5 Q 83 -70 71.5 -94.5 Q 60 -119 56 -146 Q 52 -173 52 -200 L 52 -535 Q 52 -562 56 -589 Q 60 -616 71.5 -640.5 Q 83 -665 101 -685.5 Q 119 -706 142.5 -719.5 Q 166 -733 193 -738 Q 220 -743 247 -743 Q 273 -743 298 -738.5 Q 323 -734 346 -723 Q 369 -712 387.5 -694 Q 406 -676 418 -653.5 Q 430 -631 436 -606 Q 442 -581 442 -555 L 442 -548 L 342 -548 L 342 -552 Q 342 -572 336 -591.5 Q 330 -611 317.5 -626 Q 305 -641 286 -648 Q 267 -655 247 -655 Q 225 -655 205 -645.5 Q 185 -636 173 -618 Q 161 -600 156.5 -578.5 Q 152 -557 152 -535 L 152 -200 Q 152 -178 156.5 -156.5 Q 161 -135 173 -117 Q 185 -99 205 -89.5 Q 225 -80 247 -80 Q 267 -80 286 -87 Q 305 -94 317.5 -109 Q 330 -124 336 -143.5 Q 342 -163 342 -183 L 342 -187 L 442 -187 L 442 -180 Q 442 -154 436 -129 Q 430 -104 418 -81.5 Q 406 -59 387.5 -41 Q 369 -23 346 -12 Q 323 -1 298 3.5 Q 273 8 247 8 Z " id="path13"/>
<path d="M 60 0 L 60 -735 L 220 -735 Q 250 -735 280 -730 Q 310 -725 337 -712 Q 364 -699 386.5 -678.5 Q 409 -658 423 -631.5 Q 437 -605 442.5 -575 Q 448 -545 448 -515 L 448 -220 Q 448 -190 442.5 -160 Q 437 -130 423 -103.5 Q 409 -77 386.5 -56.5 Q 364 -36 337 -23 Q 310 -10 280 -5 Q 250 -0 220 0 Z M 160 -88 L 220 -88 Q 237 -88 254.5 -91 Q 272 -94 287.5 -102.5 Q 303 -111 315 -124 Q 327 -137 334.5 -152.5 Q 342 -168 345 -185.5 Q 348 -203 348 -220 L 348 -515 Q 348 -532 345 -549.5 Q 342 -567 334.5 -582.5 Q 327 -598 315 -611 Q 303 -624 287.5 -632.5 Q 272 -641 254.5 -644 Q 237 -647 220 -647 L 160 -647 Z " id="path14"/>
<path d="M 68 0 L 68 -735 L 440 -735 L 440 -647 L 168 -647 L 168 -426 L 383 -426 L 383 -338 L 168 -338 L 168 -88 L 440 -88 L 440 0 Z " id="path15"/>
<path d="M 90 0 L 90 -735 L 440 -735 L 440 -647 L 190 -647 L 190 -426 L 383 -426 L 383 -338 L 190 -338 L 190 0 Z " id="path16"/>
<path d="M 250 8 Q 223 8 196.5 2.5 Q 170 -3 147 -16.5 Q 124 -30 106.5 -50.5 Q 89 -71 78.5 -95.5 Q 68 -120 64 -146.5 Q 60 -173 60 -200 L 60 -735 L 160 -735 L 160 -200 Q 160 -186 161.5 -172 Q 163 -158 167.5 -144.5 Q 172 -131 179.5 -118.5 Q 187 -106 197.5 -97 Q 208 -88 222 -84 Q 236 -80 250 -80 Q 264 -80 278 -84 Q 292 -88 302.5 -97 Q 313 -106 320.5 -118.5 Q 328 -131 332.5 -144.5 Q 337 -158 338.5 -172 Q 340 -186 340 -200 L 340 -735 L 440 -735 L 440 -200 Q 440 -173 436 -146.5 Q 432 -120 421.5 -95.5 Q 411 -71 393.5 -50.5 Q 376 -30 353 -16.5 Q 330 -3 303.5 2.5 Q 277 8 250 8 Z " id="path17"/>
<path d="M 296 -142 L 204 -142 L 204 -300 L 60 -300 L 60 -380 L 204 -380 L 204 -538 L 296 -538 L 296 -380 L 440 -380 L 440 -300 L 296 -300 Z " id="path18"/>
<path d="M 436 -316 L 64 -316 L 64 -364 L 436 -364 Z M 235 -444 L 235 -782 L 177 -731 L 142 -767 L 235 -848 L 299 -848 L 299 -444 Z M 179 168 L 304 -179 L 131 -179 L 131 -236 L 370 -236 L 370 -179 L 245 168 Z " id="path19"/>
<path d="M 436 -316 L 64 -316 L 64 -364 L 436 -364 Z M 235 -444 L 235 -782 L 177 -731 L 142 -767 L 235 -848 L 299 -848 L 299 -444 Z M 189 168 L 252 40 Q 256 32 260 24.5 Q 264 17 268 9 Q 258 15 246.5 17 Q 235 19 224 19 Q 208 19 193.5 14.5 Q 179 10 167 0.5 Q 155 -9 147 -22.5 Q 139 -36 134.5 -50.5 Q 130 -65 128 -80 Q 126 -95 126 -111 Q 126 -136 133 -161.5 Q 140 -187 157.5 -205.5 Q 175 -224 200 -232.5 Q 225 -241 250 -241 Q 276 -241 301 -232.5 Q 326 -224 343.5 -205.5 Q 361 -187 368 -161.5 Q 375 -136 375 -111 Q 375 -87 368.5 -64 Q 362 -41 352 -19.5 Q 342 2 331 23 Q 320 44 309 66 L 258 168 Z M 251 -38 Q 262 -38 272.5 -41.5 Q 283 -45 291 -52.5 Q 299 -60 303.5 -70.5 Q 308 -81 310 -92 Q 311 -96 311 -101 Q 311 -106 311 -111 Q 311 -124 308 -137.5 Q 305 -151 297 -162 Q 289 -173 276.5 -178 Q 264 -183 251 -183 Q 237 -183 224.5 -178 Q 212 -173 204 -162 Q 196 -151 193 -137.5 Q 190 -124 190 -111 Q 190 -97 193 -84 Q 196 -71 204 -60 Q 212 -49 224.5 -43.5 Q 237 -38 251 -38 Z " id="path20"/>
<path d="M 436 -316 L 64 -316 L 64 -364 L 436 -364 Z M 235 -444 L 235 -782 L 177 -731 L 142 -767 L 235 -848 L 299 -848 L 299 -444 Z M 97 168 L 97 -170 L 39 -119 L 4 -155 L 97 -236 L 161 -236 L 161 168 Z M 388 172 Q 363 172 339.5 166 Q 316 160 298 144 Q 280 128 271.5 105 Q 263 82 263 58 L 263 -126 Q 263 -150 271.5 -173.5 Q 280 -197 298 -212.5 Q 316 -228 339.5 -234.5 Q 363 -241 387 -241 Q 412 -241 435.5 -234.5 Q 459 -228 477 -212.5 Q 495 -197 503.5 -173.5 Q 512 -150 512 -126 L 512 58 Q 512 82 503.5 105 Q 495 128 477 144 Q 459 160 435.5 166 Q 412 172 388 172 Z M 327 -17 L 448 -113 L 448 -126 Q 448 -138 444 -149.5 Q 440 -161 431.5 -169 Q 423 -177 411 -180 Q 399 -183 388 -183 Q 376 -183 364 -180 Q 352 -177 343.5 -169 Q 335 -161 331 -149.5 Q 327 -138 327 -126 Z M 387 115 Q 399 115 411 112 Q 423 109 431.5 101 Q 440 93 444 81.5 Q 448 70 448 58 L 448 -52 L 327 45 L 327 58 Q 327 70 331 81.5 Q 335 93 343.5 101 Q 352 109 364 112 Q 376 115 387 115 Z " id="path21"/>
<path d="M 436 -316 L 64 -316 L 64 -364 L 436 -364 Z M 235 -444 L 235 -782 L 177 -731 L 142 -767 L 235 -848 L 299 -848 L 299 -444 Z M 252 172 Q 229 172 206.5 167.5 Q 184 163 165 149.5 Q 146 136 135.5 115 Q 125 94 125 71 L 125 69 L 189 69 L 189 70 Q 189 81 194.5 90.5 Q 200 100 209.5 105.5 Q 219 111 230 113 Q 241 115 252 115 Q 264 115 276 112 Q 288 109 297 101 Q 306 93 311 81.5 Q 316 70 316 58 Q 316 42 308.5 27.5 Q 301 13 287.5 4 Q 274 -5 258 -7.5 Q 242 -10 227 -10 L 227 -68 Q 241 -68 255.5 -70.5 Q 270 -73 282 -81.5 Q 294 -90 300.5 -103.5 Q 307 -117 307 -131 Q 307 -142 303 -152.5 Q 299 -163 291.5 -170 Q 284 -177 273.5 -180 Q 263 -183 252 -183 Q 242 -183 232 -181 Q 222 -179 214 -173 Q 206 -167 201.5 -157.5 Q 197 -148 197 -138 L 197 -137 L 134 -137 L 134 -140 Q 134 -162 143 -182.5 Q 152 -203 169.5 -216.5 Q 187 -230 208.5 -235.5 Q 230 -241 252 -241 Q 275 -241 297 -234.5 Q 319 -228 336 -213 Q 353 -198 362 -176.5 Q 371 -155 371 -132 Q 371 -118 367 -104 Q 363 -90 355.5 -78 Q 348 -66 337.5 -56 Q 327 -46 315 -40 Q 329 -34 341 -23.5 Q 353 -13 362 0 Q 371 13 375 28.5 Q 379 44 379 59 Q 379 83 369.5 106 Q 360 129 341.5 144.5 Q 323 160 299.5 166 Q 276 172 252 172 Z " id="path22"/>
<path d="M 436 -316 L 64 -316 L 64 -364 L 436 -364 Z M 131 -444 L 131 -445 Q 131 -463 131.5 -481 Q 132 -499 136 -517 Q 140 -535 147.5 -551.5 Q 155 -568 165.5 -582.5 Q 176 -597 189.5 -609.5 Q 203 -622 218 -632.5 Q 233 -643 249.5 -651.5 Q 266 -660 279.5 -671.5 Q 293 -683 301 -700 Q 309 -717 309 -735 Q 309 -747 305.5 -758.5 Q 302 -770 294 -779 Q 286 -788 274.5 -791.5 Q 263 -795 251 -795 Q 241 -795 230.5 -793 Q 220 -791 211.5 -785.5 Q 203 -780 198 -770.5 Q 193 -761 193 -750 L 193 -749 L 129 -749 L 129 -752 Q 129 -774 139 -794.5 Q 149 -815 166.5 -828.5 Q 184 -842 206.5 -847.5 Q 229 -853 251 -853 Q 275 -853 298.5 -846 Q 322 -839 339.5 -822.5 Q 357 -806 365 -782.5 Q 373 -759 373 -735 Q 373 -716 367.5 -697.5 Q 362 -679 351.5 -663.5 Q 341 -648 326 -635.5 Q 311 -623 295.5 -612.5 Q 280 -602 264.5 -591 Q 249 -580 235.5 -566.5 Q 222 -553 212.5 -536.5 Q 203 -520 199 -501 L 370 -501 L 370 -444 Z M 252 172 Q 229 172 206.5 167.5 Q 184 163 165 149.5 Q 146 136 135.5 115 Q 125 94 125 71 L 125 69 L 189 69 L 189 70 Q 189 81 194.5 90.5 Q 200 100 209.5 105.5 Q 219 111 230 113 Q 241 115 252 115 Q 264 115 276 112 Q 288 109 297 101 Q 306 93 311 81.5 Q 316 70 316 58 Q 316 42 308.5 27.5 Q 301 13 287.5 4 Q 274 -5 258 -7.5 Q 242 -10 227 -10 L 227 -68 Q 241 -68 255.5 -70.5 Q 270 -73 282 -81.5 Q 294 -90 300.5 -103.5 Q 307 -117 307 -131 Q 307 -142 303 -152.5 Q 299 -163 291.5 -170 Q 284 -177 273.5 -180 Q 263 -183 252 -183 Q 242 -183 232 -181 Q 222 -179 214 -173 Q 206 -167 201.5 -157.5 Q 197 -148 197 -138 L 197 -137 L 134 -137 L 134 -140 Q 134 -162 143 -182.5 Q 152 -203 169.5 -216.5 Q 187 -230 208.5 -235.5 Q 230 -241 252 -241 Q 275 -241 297 -234.5 Q 319 -228 336 -213 Q 353 -198 362 -176.5 Q 371 -155 371 -132 Q 371 -118 367 -104 Q 363 -90 355.5 -78 Q 348 -66 337.5 -56 Q 327 -46 315 -40 Q 329 -34 341 -23.5 Q 353 -13 362 0 Q 371 13 375 28.5 Q 379 44 379 59 Q 379 83 369.5 106 Q 360 129 341.5 144.5 Q 323 160 299.5 166 Q 276 172 252 172 Z " id="path23"/>
<path d="M 436 -316 L 64 -316 L 64 -364 L 436 -364 Z M 235 -444 L 235 -782 L 177 -731 L 142 -767 L 235 -848 L 299 -848 L 299 -444 Z M 252 172 Q 229 172 207 167 Q 185 162 167.5 148 Q 150 134 140 113.5 Q 130 93 130 70 L 193 70 Q 193 81 198.5 90 Q 204 99 212.5 105 Q 221 111 231 113 Q 241 115 252 115 Q 265 115 278 109 Q 291 103 298.5 91.5 Q 306 80 308.5 66 Q 311 52 311 39 Q 311 25 308.5 11.5 Q 306 -2 299 -13.5 Q 292 -25 279.5 -31.5 Q 267 -38 254 -38 Q 245 -38 237 -37 Q 229 -36 221 -33.5 Q 213 -31 206.5 -25 Q 200 -19 199 -11 L 135 -11 L 135 -236 L 358 -236 L 358 -179 L 199 -179 L 199 -88 Q 212 -92 226 -93.5 Q 240 -95 254 -95 Q 279 -95 304 -86 Q 329 -77 345.5 -57.5 Q 362 -38 368.5 -12.5 Q 375 13 375 39 Q 375 64 368 90 Q 361 116 344 135.5 Q 327 155 302.5 163.5 Q 278 172 252 172 Z " id="path24"/>
<path d="M 436 -316 L 64 -316 L 64 -364 L 436 -364 Z M 131 -444 L 131 -445 Q 131 -463 131.5 -481 Q 132 -499 136 -517 Q 140 -535 147.5 -551.5 Q 155 -568 165.5 -582.5 Q 176 -597 189.5 -609.5 Q 203 -622 218 -632.5 Q 233 -643 249.5 -651.5 Q 266 -660 279.5 -671.5 Q 293 -683 301 -700 Q 309 -717 309 -735 Q 309 -747 305.5 -758.5 Q 302 -770 294 -779 Q 286 -788 274.5 -791.5 Q 263 -795 251 -795 Q 241 -795 230.5 -793 Q 220 -791 211.5 -785.5 Q 203 -780 198 -770.5 Q 193 -761 193 -750 L 193 -749 L 129 -749 L 129 -752 Q 129 -774 139 -794.5 Q 149 -815 166.5 -828.5 Q 184 -842 206.5 -847.5 Q 229 -853 251 -853 Q 275 -853 298.5 -846 Q 322 -839 339.5 -822.5 Q 357 -806 365 -782.5 Q 373 -759 373 -735 Q 373 -716 367.5 -697.5 Q 362 -679 351.5 -663.5 Q 341 -648 326 -635.5 Q 311 -623 295.5 -612.5 Q 280 -602 264.5 -591 Q 249 -580 235.5 -566.5 Q 222 -553 212.5 -536.5 Q 203 -520 199 -501 L 370 -501 L 370 -444 Z M 252 172 Q 229 172 207 167 Q 185 162 167.5 148 Q 150 134 140 113.5 Q 130 93 130 70 L 193 70 Q 193 81 198.5 90 Q 204 99 212.5 105 Q 221 111 231 113 Q 241 115 252 115 Q 265 115 278 109 Q 291 103 298.5 91.5 Q 306 80 308.5 66 Q 311 52 311 39 Q 311 25 308.5 11.5 Q 306 -2 299 -13.5 Q 292 -25 279.5 -31.5 Q 267 -38 254 -38 Q 245 -38 237 -37 Q 229 -36 221 -33.5 Q 213 -31 206.5 -25 Q 200 -19 199 -11 L 135 -11 L 135 -236 L 358 -236 L 358 -179 L 199 -179 L 199 -88 Q 212 -92 226 -93.5 Q 240 -95 254 -95 Q 279 -95 304 -86 Q 329 -77 345.5 -57.5 Q 362 -38 368.5 -12.5 Q 375 13 375 39 Q 375 64 368 90 Q 361 116 344 135.5 Q 327 155 302.5 163.5 Q 278 172 252 172 Z " id="path25"/>
<path d="M 436 -316 L 64 -316 L 64 -364 L 436 -364 Z M 252 -440 Q 229 -440 206.5 -444.5 Q 184 -449 165 -462.5 Q 146 -476 135.5 -497 Q 125 -518 125 -541 L 125 -543 L 189 -543 L 189 -542 Q 189 -531 194.5 -521.5 Q 200 -512 209.5 -506.5 Q 219 -501 230 -499 Q 241 -497 252 -497 Q 264 -497 276 -500 Q 288 -503 297 -511 Q 306 -519 311 -530.5 Q 316 -542 316 -554 Q 316 -570 308.5 -584.5 Q 301 -599 287.5 -608 Q 274 -617 258 -619.5 Q 242 -622 227 -622 L 227 -680 Q 241 -680 255.5 -682.5 Q 270 -685 282 -693.5 Q 294 -702 300.5 -715.5 Q 307 -729 307 -743 Q 307 -754 303 -764.5 Q 299 -775 291.5 -782 Q 284 -789 273.5 -792 Q 263 -795 252 -795 Q 242 -795 232 -793 Q 222 -791 214 -785 Q 206 -779 201.5 -769.5 Q 197 -760 197 -750 L 197 -749 L 134 -749 L 134 -752 Q 134 -774 143 -794.5 Q 152 -815 169.5 -828.5 Q 187 -842 208.5 -847.5 Q 230 -853 252 -853 Q 275 -853 297 -846.5 Q 319 -840 336 -825 Q 353 -810 362 -788.5 Q 371 -767 371 -744 Q 371 -730 367 -716 Q 363 -702 355.5 -690 Q 348 -678 337.5 -668 Q 327 -658 315 -652 Q 329 -646 341 -635.5 Q 353 -625 362 -612 Q 371 -599 375 -583.5 Q 379 -568 379 -553 Q 379 -529 369.5 -506 Q 360 -483 341.5 -467.5 Q 323 -452 299.5 -446 Q 276 -440 252 -440 Z M 252 172 Q 229 172 207 167 Q 185 162 167.5 148 Q 150 134 140 113.5 Q 130 93 130 70 L 193 70 Q 193 81 198.5 90 Q 204 99 212.5 105 Q 221 111 231 113 Q 241 115 252 115 Q 265 115 278 109 Q 291 103 298.5 91.5 Q 306 80 308.5 66 Q 311 52 311 39 Q 311 25 308.5 11.5 Q 306 -2 299 -13.5 Q 292 -25 279.5 -31.5 Q 267 -38 254 -38 Q 245 -38 237 -37 Q 229 -36 221 -33.5 Q 213 -31 206.5 -25 Q 200 -19 199 -11 L 135 -11 L 135 -236 L 358 -236 L 358 -179 L 199 -179 L 199 -88 Q 212 -92 226 -93.5 Q 240 -95 254 -95 Q 279 -95 304 -86 Q 329 -77 345.5 -57.5 Q 362 -38 368.5 -12.5 Q 375 13 375 39 Q 375 64 368 90 Q 361 116 344 135.5 Q 327 155 302.5 163.5 Q 278 172 252 172 Z " id="path26"/>
<path d="M 436 -316 L 64 -316 L 64 -364 L 436 -364 Z M 271 -444 L 271 -544 L 126 -544 L 126 -601 L 267 -848 L 333 -848 L 192 -601 L 271 -601 L 271 -679 L 334 -679 L 334 -601 L 370 -601 L 370 -544 L 334 -544 L 334 -444 Z M 252 172 Q 229 172 207 167 Q 185 162 167.5 148 Q 150 134 140 113.5 Q 130 93 130 70 L 193 70 Q 193 81 198.5 90 Q 204 99 212.5 105 Q 221 111 231 113 Q 241 115 252 115 Q 265 115 278 109 Q 291 103 298.5 91.5 Q 306 80 308.5 66 Q 311 52 311 39 Q 311 25 308.5 11.5 Q 306 -2 299 -13.5 Q 292 -25 279.5 -31.5 Q 267 -38 254 -38 Q 245 -38 237 -37 Q 229 -36 221 -33.5 Q 213 -31 206.5 -25 Q 200 -19 199 -11 L 135 -11 L 135 -236 L 358 -236 L 358 -179 L 199 -179 L 199 -88 Q 212 -92 226 -93.5 Q 240 -95 254 -95 Q 279 -95 304 -86 Q 329 -77 345.5 -57.5 Q 362 -38 368.5 -12.5 Q 375 13 375 39 Q 375 64 368 90 Q 361 116 344 135.5 Q 327 155 302.5 163.5 Q 278 172 252 172 Z " id="path27"/>
<path d="M 436 -316 L 64 -316 L 64 -364 L 436 -364 Z M 235 -444 L 235 -782 L 177 -731 L 142 -767 L 235 -848 L 299 -848 L 299 -444 Z M 251 172 Q 225 172 200 164 Q 175 156 157.5 137 Q 140 118 133 93 Q 126 68 126 43 Q 126 19 132.5 -4.5 Q 139 -28 149 -49.5 Q 159 -71 170 -92 Q 181 -113 192 -134 L 243 -236 L 312 -236 L 249 -108 Q 245 -101 241 -93 Q 237 -85 233 -77 Q 243 -83 254.5 -85 Q 266 -87 277 -87 Q 293 -87 307.5 -83 Q 322 -79 334 -69 Q 346 -59 354 -46 Q 362 -33 366.5 -18 Q 371 -3 373 12 Q 375 27 375 43 Q 375 68 368 93 Q 361 118 343.5 137 Q 326 156 301 164 Q 276 172 251 172 Z M 250 115 Q 264 115 276.5 109.5 Q 289 104 297 93.5 Q 305 83 308 69.5 Q 311 56 311 43 Q 311 29 308 15.5 Q 305 2 297 -8.5 Q 289 -19 276.5 -24.5 Q 264 -30 250 -30 Q 239 -30 228.5 -26.5 Q 218 -23 210 -15.5 Q 202 -8 197.5 2.5 Q 193 13 191 23 Q 190 28 190 33 Q 190 38 190 43 Q 190 56 193 69.5 Q 196 83 204 93.5 Q 212 104 224.5 109.5 Q 237 115 250 115 Z " id="path28"/>
<path d="M 436 -316 L 64 -316 L 64 -364 L 436 -364 Z M 252 -440 Q 229 -440 207 -445 Q 185 -450 167.5 -464 Q 150 -478 140 -498.5 Q 130 -519 130 -542 L 193 -542 Q 193 -531 198.5 -522 Q 204 -513 212.5 -507 Q 221 -501 231 -499 Q 241 -497 252 -497 Q 265 -497 278 -503 Q 291 -509 298.5 -520.5 Q 306 -532 308.5 -546 Q 311 -560 311 -573 Q 311 -587 308.5 -600.5 Q 306 -614 299 -625.5 Q 292 -637 279.5 -643.5 Q 267 -650 254 -650 Q 245 -650 237 -649 Q 229 -648 221 -645.5 Q 213 -643 206.5 -637 Q 200 -631 199 -623 L 135 -623 L 135 -848 L 358 -848 L 358 -791 L 199 -791 L 199 -700 Q 212 -704 226 -705.5 Q 240 -707 254 -707 Q 279 -707 304 -698 Q 329 -689 345.5 -669.5 Q 362 -650 368.5 -624.5 Q 375 -599 375 -573 Q 375 -548 368 -522 Q 361 -496 344 -476.5 Q 327 -457 302.5 -448.5 Q 278 -440 252 -440 Z M 251 172 Q 225 172 200 164 Q 175 156 157.5 137 Q 140 118 133 93 Q 126 68 126 43 Q 126 19 132.5 -4.5 Q 139 -28 149 -49.5 Q 159 -71 170 -92 Q 181 -113 192 -134 L 243 -236 L 312 -236 L 249 -108 Q 245 -101 241 -93 Q 237 -85 233 -77 Q 243 -83 254.5 -85 Q 266 -87 277 -87 Q 293 -87 307.5 -83 Q 322 -79 334 -69 Q 346 -59 354 -46 Q 362 -33 366.5 -18 Q 371 -3 373 12 Q 375 27 375 43 Q 375 68 368 93 Q 361 118 343.5 137 Q 326 156 301 164 Q 276 172 251 172 Z M 250 115 Q 264 115 276.5 109.5 Q 289 104 297 93.5 Q 305 83 308 69.5 Q 311 56 311 43 Q 311 29 308 15.5 Q 305 2 297 -8.5 Q 289 -19 276.5 -24.5 Q 264 -30 250 -30 Q 239 -30 228.5 -26.5 Q 218 -23 210 -15.5 Q 202 -8 197.5 2.5 Q 193 13 191 23 Q 190 28 190 33 Q 190 38 190 43 Q 190 56 193 69.5 Q 196 83 204 93.5 Q 212 104 224.5 109.5 Q 237 115 250 115 Z " id="path29"/>
<path d="M 436 -316 L 64 -316 L 64 -364 L 436 -364 Z M 235 -444 L 235 -782 L 177 -731 L 142 -767 L 235 -848 L 299 -848 L 299 -444 Z M 251 172 Q 228 172 206 167.5 Q 184 163 165.5 150 Q 147 137 136.5 116.5 Q 126 96 126 74 Q 126 56 132 39.5 Q 138 23 148 8.5 Q 158 -6 171 -18 Q 184 -30 198 -40 Q 185 -49 174 -60.5 Q 163 -72 154.5 -85.5 Q 146 -99 141 -114.5 Q 136 -130 136 -146 Q 136 -167 145 -186.5 Q 154 -206 171 -218.5 Q 188 -231 209 -236 Q 230 -241 250 -241 Q 271 -241 292 -236 Q 313 -231 330 -218.5 Q 347 -206 356 -186.5 Q 365 -167 365 -146 Q 365 -130 360 -114.5 Q 355 -99 346.5 -85.5 Q 338 -72 327 -60.5 Q 316 -49 303 -40 Q 317 -30 330 -18 Q 343 -6 353 8.5 Q 363 23 369 39.5 Q 375 56 375 74 Q 375 96 364.5 116.5 Q 354 137 335.5 150 Q 317 163 295 167.5 Q 273 172 251 172 Z M 251 -75 Q 260 -81 268.5 -88.5 Q 277 -96 284 -104.5 Q 291 -113 296 -123 Q 301 -133 301 -145 Q 301 -154 297 -162 Q 293 -170 285.5 -175 Q 278 -180 269 -181.5 Q 260 -183 251 -183 Q 241 -183 232 -181.5 Q 223 -180 215.5 -175 Q 208 -170 204 -162 Q 200 -154 200 -145 Q 200 -133 205 -123 Q 210 -113 217 -104.5 Q 224 -96 232.5 -88.5 Q 241 -81 251 -75 Z M 250 115 Q 261 115 271.5 113.5 Q 282 112 291 106.5 Q 300 101 305.5 92 Q 311 83 311 72 Q 311 60 305 48.5 Q 299 37 290.5 27.5 Q 282 18 271.5 10.5 Q 261 3 250 -4 Q 240 3 229.5 10.5 Q 219 18 210.5 27.5 Q 202 37 196 48.5 Q 190 60 190 72 Q 190 83 195.5 92 Q 201 101 210 106.5 Q 219 112 229.5 113.5 Q 240 115 250 115 Z " id="path30"/>
<path d="M 436 -316 L 64 -316 L 64 -364 L 436 -364 Z M 252 -440 Q 229 -440 206.5 -444.5 Q 184 -449 165 -462.5 Q 146 -476 135.5 -497 Q 125 -518 125 -541 L 125 -543 L 189 -543 L 189 -542 Q 189 -531 194.5 -521.5 Q 200 -512 209.5 -506.5 Q 219 -501 230 -499 Q 241 -497 252 -497 Q 264 -497 276 -500 Q 288 -503 297 -511 Q 306 -519 311 -530.5 Q 316 -542 316 -554 Q 316 -570 308.5 -584.5 Q 301 -599 287.5 -608 Q 274 -617 258 -619.5 Q 242 -622 227 -622 L 227 -680 Q 241 -680 255.5 -682.5 Q 270 -685 282 -693.5 Q 294 -702 300.5 -715.5 Q 307 -729 307 -743 Q 307 -754 303 -764.5 Q 299 -775 291.5 -782 Q 284 -789 273.5 -792 Q 263 -795 252 -795 Q 242 -795 232 -793 Q 222 -791 214 -785 Q 206 -779 201.5 -769.5 Q 197 -760 197 -750 L 197 -749 L 134 -749 L 134 -752 Q 134 -774 143 -794.5 Q 152 -815 169.5 -828.5 Q 187 -842 208.5 -847.5 Q 230 -853 252 -853 Q 275 -853 297 -846.5 Q 319 -840 336 -825 Q 353 -810 362 -788.5 Q 371 -767 371 -744 Q 371 -730 367 -716 Q 363 -702 355.5 -690 Q 348 -678 337.5 -668 Q 327 -658 315 -652 Q 329 -646 341 -635.5 Q 353 -625 362 -612 Q 371 -599 375 -583.5 Q 379 -568 379 -553 Q 379 -529 369.5 -506 Q 360 -483 341.5 -467.5 Q 323 -452 299.5 -446 Q 276 -440 252 -440 Z M 251 172 Q 228 172 206 167.5 Q 184 163 165.5 150 Q 147 137 136.5 116.5 Q 126 96 126 74 Q 126 56 132 39.5 Q 138 23 148 8.5 Q 158 -6 171 -18 Q 184 -30 198 -40 Q 185 -49 174 -60.5 Q 163 -72 154.5 -85.5 Q 146 -99 141 -114.5 Q 136 -130 136 -146 Q 136 -167 145 -186.5 Q 154 -206 171 -218.5 Q 188 -231 209 -236 Q 230 -241 250 -241 Q 271 -241 292 -236 Q 313 -231 330 -218.5 Q 347 -206 356 -186.5 Q 365 -167 365 -146 Q 365 -130 360 -114.5 Q 355 -99 346.5 -85.5 Q 338 -72 327 -60.5 Q 316 -49 303 -40 Q 317 -30 330 -18 Q 343 -6 353 8.5 Q 363 23 369 39.5 Q 375 56 375 74 Q 375 96 364.5 116.5 Q 354 137 335.5 150 Q 317 163 295 167.5 Q 273 172 251 172 Z M 251 -75 Q 260 -81 268.5 -88.5 Q 277 -96 284 -104.5 Q 291 -113 296 -123 Q 301 -133 301 -145 Q 301 -154 297 -162 Q 293 -170 285.5 -175 Q 278 -180 269 -181.5 Q 260 -183 251 -183 Q 241 -183 232 -181.5 Q 223 -180 215.5 -175 Q 208 -170 204 -162 Q 200 -154 200 -145 Q 200 -133 205 -123 Q 210 -113 217 -104.5 Q 224 -96 232.5 -88.5 Q 241 -81 251 -75 Z M 250 115 Q 261 115 271.5 113.5 Q 282 112 291 106.5 Q 300 101 305.5 92 Q 311 83 311 72 Q 311 60 305 48.5 Q 299 37 290.5 27.5 Q 282 18 271.5 10.5 Q 261 3 250 -4 Q 240 3 229.5 10.5 Q 219 18 210.5 27.5 Q 202 37 196 48.5 Q 190 60 190 72 Q 190 83 195.5 92 Q 201 101 210 106.5 Q 219 112 229.5 113.5 Q 240 115 250 115 Z " id="path31"/>
<path d="M 436 -316 L 64 -316 L 64 -364 L 436 -364 Z M 252 -440 Q 229 -440 207 -445 Q 185 -450 167.5 -464 Q 150 -478 140 -498.5 Q 130 -519 130 -542 L 193 -542 Q 193 -531 198.5 -522 Q 204 -513 212.5 -507 Q 221 -501 231 -499 Q 241 -497 252 -497 Q 265 -497 278 -503 Q 291 -509 298.5 -520.5 Q 306 -532 308.5 -546 Q 311 -560 311 -573 Q 311 -587 308.5 -600.5 Q 306 -614 299 -625.5 Q 292 -637 279.5 -643.5 Q 267 -650 254 -650 Q 245 -650 237 -649 Q 229 -648 221 -645.5 Q 213 -643 206.5 -637 Q 200 -631 199 -623 L 135 -623 L 135 -848 L 358 -848 L 358 -791 L 199 -791 L 199 -700 Q 212 -704 226 -705.5 Q 240 -707 254 -707 Q 279 -707 304 -698 Q 329 -689 345.5 -669.5 Q 362 -650 368.5 -624.5 Q 375 -599 375 -573 Q 375 -548 368 -522 Q 361 -496 344 -476.5 Q 327 -457 302.5 -448.5 Q 278 -440 252 -440 Z M 251 172 Q 228 172 206 167.5 Q 184 163 165.5 150 Q 147 137 136.5 116.5 Q 126 96 126 74 Q 126 56 132 39.5 Q 138 23 148 8.5 Q 158 -6 171 -18 Q 184 -30 198 -40 Q 185 -49 174 -60.5 Q 163 -72 154.5 -85.5 Q 146 -99 141 -114.5 Q 136 -130 136 -146 Q 136 -167 145 -186.5 Q 154 -206 171 -218.5 Q 188 -231 209 -236 Q 230 -241 250 -241 Q 271 -241 292 -236 Q 313 -231 330 -218.5 Q 347 -206 356 -186.5 Q 365 -167 365 -146 Q 365 -130 360 -114.5 Q 355 -99 346.5 -85.5 Q 338 -72 327 -60.5 Q 316 -49 303 -40 Q 317 -30 330 -18 Q 343 -6 353 8.5 Q 363 23 369 39.5 Q 375 56 375 74 Q 375 96 364.5 116.5 Q 354 137 335.5 150 Q 317 163 295 167.5 Q 273 172 251 172 Z M 251 -75 Q 260 -81 268.5 -88.5 Q 277 -96 284 -104.5 Q 291 -113 296 -123 Q 301 -133 301 -145 Q 301 -154 297 -162 Q 293 -170 285.5 -175 Q 278 -180 269 -181.5 Q 260 -183 251 -183 Q 241 -183 232 -181.5 Q 223 -180 215.5 -175 Q 208 -170 204 -162 Q 200 -154 200 -145 Q 200 -133 205 -123 Q 210 -113 217 -104.5 Q 224 -96 232.5 -88.5 Q 241 -81 251 -75 Z M 250 115 Q 261 115 271.5 113.5 Q 282 112 291 106.5 Q 300 101 305.5 92 Q 311 83 311 72 Q 311 60 305 48.5 Q 299 37 290.5 27.5 Q 282 18 271.5 10.5 Q 261 3 250 -4 Q 240 3 229.5 10.5 Q 219 18 210.5 27.5 Q 202 37 196 48.5 Q 190 60 190 72 Q 190 83 195.5 92 Q 201 101 210 106.5 Q 219 112 229.5 113.5 Q 240 115 250 115 Z " id="path32"/>
<path d="M 436 -316 L 64 -316 L 64 -364 L 436 -364 Z M 179 -444 L 304 -791 L 131 -791 L 131 -848 L 370 -848 L 370 -791 L 245 -444 Z M 251 172 Q 228 172 206 167.5 Q 184 163 165.5 150 Q 147 137 136.5 116.5 Q 126 96 126 74 Q 126 56 132 39.5 Q 138 23 148 8.5 Q 158 -6 171 -18 Q 184 -30 198 -40 Q 185 -49 174 -60.5 Q 163 -72 154.5 -85.5 Q 146 -99 141 -114.5 Q 136 -130 136 -146 Q 136 -167 145 -186.5 Q 154 -206 171 -218.5 Q 188 -231 209 -236 Q 230 -241 250 -241 Q 271 -241 292 -236 Q 313 -231 330 -218.5 Q 347 -206 356 -186.5 Q 365 -167 365 -146 Q 365 -130 360 -114.5 Q 355 -99 346.5 -85.5 Q 338 -72 327 -60.5 Q 316 -49 303 -40 Q 317 -30 330 -18 Q 343 -6 353 8.5 Q 363 23 369 39.5 Q 375 56 375 74 Q 375 96 364.5 116.5 Q 354 137 335.5 150 Q 317 163 295 167.5 Q 273 172 251 172 Z M 251 -75 Q 260 -81 268.5 -88.5 Q 277 -96 284 -104.5 Q 291 -113 296 -123 Q 301 -133 301 -145 Q 301 -154 297 -162 Q 293 -170 285.5 -175 Q 278 -180 269 -181.5 Q 260 -183 251 -183 Q 241 -183 232 -181.5 Q 223 -180 215.5 -175 Q 208 -170 204 -162 Q 200 -154 200 -145 Q 200 -133 205 -123 Q 210 -113 217 -104.5 Q 224 -96 232.5 -88.5 Q 241 -81 251 -75 Z M 250 115 Q 261 115 271.5 113.5 Q 282 112 291 106.5 Q 300 101 305.5 92 Q 311 83 311 72 Q 311 60 305 48.5 Q 299 37 290.5 27.5 Q 282 18 271.5 10.5 Q 261 3 250 -4 Q 240 3 229.5 10.5 Q 219 18 210.5 27.5 Q 202 37 196 48.5 Q 190 60 190 72 Q 190 83 195.5 92 Q 201 101 210 106.5 Q 219 112 229.5 113.5 Q 240 115 250 115 Z " id="path33"/>
<path d="M 436 -316 L 64 -316 L 64 -364 L 436 -364 Z M 235 -444 L 235 -782 L 177 -731 L 142 -767 L 235 -848 L 299 -848 L 299 -444 Z " id="path34"/>
<path d="M 75 0 L 75 -70 L 211 -70 L 211 -665 L 75 -665 L 75 -735 L 425 -735 L 425 -665 L 289 -665 L 289 -70 L 425 -70 L 425 0 Z " id="path35"/>
<path d="M 13 0 L 13 -70 L 91 -70 L 91 -665 L 13 -665 L 13 -735 L 225 -735 L 225 -665 L 147 -665 L 147 -70 L 225 -70 L 225 0 Z M 275 0 L 275 -70 L 353 -70 L 353 -665 L 275 -665 L 275 -735 L 487 -735 L 487 -665 L 409 -665 L 409 -70 L 487 -70 L 487 0 Z " id="path36"/>
<path d="M -1 0 L -1 -70 L 51 -70 L 51 -665 L -1 -665 L -1 -735 L 145 -735 L 145 -665 L 93 -665 L 93 -70 L 145 -70 L 145 0 Z M 177 0 L 177 -70 L 229 -70 L 229 -665 L 177 -665 L 177 -735 L 323 -735 L 323 -665 L 271 -665 L 271 -70 L 323 -70 L 323 0 Z M 355 0 L 355 -70 L 407 -70 L 407 -665 L 355 -665 L 355 -735 L 501 -735 L 501 -665 L 449 -665 L 449 -70 L 501 -70 L 501 0 Z " id="path37"/>
<path d="M 13 0 L 13 -70 L 91 -70 L 91 -665 L 13 -665 L 13 -735 L 225 -735 L 225 -665 L 147 -665 L 147 -70 L 225 -70 L 225 0 Z M 349 0 L 262 -735 L 319 -735 L 371 -245 Q 373 -220 376 -195.5 Q 379 -171 381 -147 Q 384 -171 386.5 -195.5 Q 389 -220 392 -245 L 444 -735 L 501 -735 L 414 0 Z " id="path38"/>
<path d="M 205 0 L 44 -735 L 124 -735 L 224 -245 Q 231 -213 237.5 -181 Q 244 -149 250 -117 Q 256 -149 262.5 -181 Q 269 -213 276 -245 L 376 -735 L 456 -735 L 295 0 Z " id="path39"/>
<path d="M 87 0 L 0 -735 L 57 -735 L 109 -245 Q 111 -220 114 -195.5 Q 117 -171 119 -147 Q 122 -171 124.5 -195.5 Q 127 -220 130 -245 L 182 -735 L 239 -735 L 152 0 Z M 275 0 L 275 -70 L 353 -70 L 353 -665 L 275 -665 L 275 -735 L 487 -735 L 487 -665 L 409 -665 L 409 -70 L 487 -70 L 487 0 Z " id="path40"/>
<path d="M 48 0 L -8 -735 L 34 -735 L 66 -245 Q 68 -222 69.5 -198.5 Q 71 -175 72 -152 Q 74 -175 75.5 -198.5 Q 77 -222 78 -245 L 110 -735 L 153 -735 L 96 0 Z M 177 0 L 177 -70 L 229 -70 L 229 -665 L 177 -665 L 177 -735 L 323 -735 L 323 -665 L 271 -665 L 271 -70 L 323 -70 L 323 0 Z M 355 0 L 355 -70 L 407 -70 L 407 -665 L 355 -665 L 355 -735 L 501 -735 L 501 -665 L 449 -665 L 449 -70 L 501 -70 L 501 0 Z " id="path41"/>
<path d="M 28 0 L 15 -245 L -12 -735 L 23 -735 L 44 -245 Q 45 -222 46 -199 Q 47 -176 48 -153 Q 49 -176 50 -199 Q 51 -222 52 -245 L 73 -735 L 108 -735 L 68 0 Z M 127 0 L 127 -70 L 166 -70 L 166 -665 L 127 -665 L 127 -735 L 239 -735 L 239 -665 L 200 -665 L 200 -70 L 239 -70 L 239 0 Z M 261 0 L 261 -70 L 300 -70 L 300 -665 L 261 -665 L 261 -735 L 373 -735 L 373 -665 L 334 -665 L 334 -70 L 373 -70 L 373 0 Z M 396 0 L 396 -70 L 435 -70 L 435 -665 L 396 -665 L 396 -735 L 508 -735 L 508 -665 L 469 -665 L 469 -70 L 508 -70 L 508 0 Z " id="path42"/>
<path d="M 13 0 L 13 -70 L 91 -70 L 91 -665 L 13 -665 L 13 -735 L 225 -735 L 225 -665 L 147 -665 L 147 -70 L 225 -70 L 225 0 Z M 265 0 L 355 -368 L 265 -735 L 324 -735 L 381 -483 L 438 -735 L 497 -735 L 407 -368 L 497 0 L 438 0 L 381 -252 L 324 0 Z " id="path43"/>
<path d="M 48 0 L 211 -368 L 48 -735 L 133 -735 L 250 -459 L 367 -735 L 452 -735 L 289 -368 L 452 0 L 367 0 L 250 -276 L 133 0 Z " id="path44"/>
<path d="M 3 0 L 93 -368 L 3 -735 L 62 -735 L 119 -483 L 176 -735 L 235 -735 L 145 -368 L 235 0 L 176 0 L 119 -252 L 62 0 Z M 275 0 L 275 -70 L 353 -70 L 353 -665 L 275 -665 L 275 -735 L 487 -735 L 487 -665 L 409 -665 L 409 -70 L 487 -70 L 487 0 Z " id="path45"/>
<path d="M -7 0 L 53 -367 L -7 -735 L 37 -735 L 72 -494 L 108 -735 L 152 -735 L 91 -368 L 152 0 L 108 0 L 72 -241 L 37 0 Z M 177 0 L 177 -70 L 229 -70 L 229 -665 L 177 -665 L 177 -735 L 323 -735 L 323 -665 L 271 -665 L 271 -70 L 323 -70 L 323 0 Z M 355 0 L 355 -70 L 407 -70 L 407 -665 L 355 -665 L 355 -735 L 501 -735 L 501 -665 L 449 -665 L 449 -70 L 501 -70 L 501 0 Z " id="path46"/>
<path d="M 96 0 L 96 -735 L 174 -735 L 174 -70 L 442 -70 L 442 0 Z " id="path47"/>
<path d="M 247 8 Q 221 8 194.5 3 Q 168 -2 145 -15 Q 122 -28 104 -48 Q 86 -68 75 -92 Q 64 -116 60 -142.5 Q 56 -169 56 -195 L 56 -540 Q 56 -566 60 -592.5 Q 64 -619 75 -643 Q 86 -667 104 -687 Q 122 -707 145 -720 Q 168 -733 194.5 -738 Q 221 -743 247 -743 Q 272 -743 296.5 -739 Q 321 -735 343.5 -724 Q 366 -713 384.5 -695.5 Q 403 -678 415 -656.5 Q 427 -635 432.5 -610.5 Q 438 -586 438 -561 L 438 -555 L 360 -555 L 360 -559 Q 360 -582 353 -604 Q 346 -626 330 -642.5 Q 314 -659 292 -666 Q 270 -673 247 -673 Q 222 -673 198.5 -663 Q 175 -653 160 -633.5 Q 145 -614 139.5 -589.5 Q 134 -565 134 -540 L 134 -195 Q 134 -170 139.5 -145.5 Q 145 -121 160 -101.5 Q 175 -82 198.5 -72 Q 222 -62 247 -62 Q 270 -62 292 -69 Q 314 -76 330 -92.5 Q 346 -109 353 -131 Q 360 -153 360 -176 L 360 -180 L 438 -180 L 438 -174 Q 438 -149 432.5 -124.5 Q 427 -100 415 -78.5 Q 403 -57 384.5 -39.5 Q 366 -22 343.5 -11 Q 321 0 296.5 4 Q 272 8 247 8 Z " id="path48"/>
<path d="M 64 0 L 64 -735 L 222 -735 Q 251 -735 280 -730 Q 309 -725 335.5 -712.5 Q 362 -700 384 -680 Q 406 -660 419.5 -634 Q 433 -608 438.5 -579 Q 444 -550 444 -521 L 444 -215 Q 444 -185 438.5 -156 Q 433 -127 419.5 -101 Q 406 -75 384 -55 Q 362 -35 335.5 -22.5 Q 309 -10 280 -5 Q 251 -0 222 0 Z M 142 -70 L 222 -70 Q 241 -70 260 -73.5 Q 279 -77 296.5 -85.5 Q 314 -94 328 -108 Q 342 -122 350.5 -139.5 Q 359 -157 362.5 -176 Q 366 -195 366 -215 L 366 -521 Q 366 -540 362.5 -559 Q 359 -578 350.5 -595.5 Q 342 -613 328 -627 Q 314 -641 296.5 -649.5 Q 279 -658 260 -661.5 Q 241 -665 221 -665 L 142 -665 Z " id="path49"/>
<path d="M 51 0 L 51 -735 L 147 -735 L 250 -341 L 353 -735 L 449 -735 L 449 0 L 374 0 L 374 -147 Q 374 -262 377.5 -376.5 Q 381 -491 382 -606 L 281 -221 L 219 -221 L 118 -606 Q 119 -491 122.5 -376.5 Q 126 -262 126 -147 L 126 0 Z " id="path50"/>
<path d="M 255 -608 Q 243 -608 230.5 -611.5 Q 218 -615 209 -624 Q 200 -633 196.5 -645 Q 193 -657 193 -670 Q 193 -683 196.5 -695 Q 200 -707 209 -716 Q 218 -725 230.5 -729 Q 243 -733 255 -733 Q 268 -733 280 -729 Q 292 -725 301 -716 Q 310 -707 314 -695 Q 318 -683 318 -670 Q 318 -657 314 -645 Q 310 -633 301 -624 Q 292 -615 280 -611.5 Q 268 -608 255 -608 Z M 75 0 L 75 -70 L 218 -70 L 218 -450 L 89 -450 L 89 -520 L 296 -520 L 296 -70 L 425 -70 L 425 0 Z " id="path51"/>
<path d="M 122 -608 Q 112 -608 102 -613 Q 92 -618 86.5 -627.5 Q 81 -637 79 -648 Q 77 -659 77 -670 Q 77 -681 79 -692 Q 81 -703 86.5 -712.5 Q 92 -722 102 -727.5 Q 112 -733 122 -733 Q 133 -733 143 -727.5 Q 153 -722 158.5 -712.5 Q 164 -703 166 -692 Q 168 -681 168 -670 Q 168 -659 166 -648 Q 164 -637 158.5 -627.5 Q 153 -618 143 -613 Q 133 -608 122 -608 Z M 13 0 L 13 -70 L 95 -70 L 95 -450 L 22 -450 L 22 -520 L 152 -520 L 152 -70 L 225 -70 L 225 0 Z M 384 -608 Q 374 -608 364 -613 Q 354 -618 348.5 -627.5 Q 343 -637 341 -648 Q 339 -659 339 -670 Q 339 -681 341 -692 Q 343 -703 348.5 -712.5 Q 354 -722 364 -727.5 Q 374 -733 384 -733 Q 395 -733 405 -727.5 Q 415 -722 420.5 -712.5 Q 426 -703 428 -692 Q 430 -681 430 -670 Q 430 -659 428 -648 Q 426 -637 420.5 -627.5 Q 415 -618 405 -613 Q 395 -608 384 -608 Z M 275 0 L 275 -70 L 357 -70 L 357 -450 L 284 -450 L 284 -520 L 414 -520 L 414 -70 L 487 -70 L 487 0 Z " id="path52"/>
<path d="M 74 -608 Q 65 -608 57.5 -615 Q 50 -622 46.5 -631.5 Q 43 -641 42 -650.5 Q 41 -660 41 -670 Q 41 -680 42 -689.5 Q 43 -699 46.5 -708.5 Q 50 -718 57.5 -725.5 Q 65 -733 74 -733 Q 84 -733 91.5 -725.5 Q 99 -718 102.5 -708.5 Q 106 -699 107 -689.5 Q 108 -680 108 -670 Q 108 -660 107 -650.5 Q 106 -641 102.5 -631.5 Q 99 -622 91.5 -615 Q 84 -608 74 -608 Z M -1 0 L -1 -70 L 54 -70 L 54 -450 L 5 -450 L 5 -520 L 96 -520 L 96 -70 L 145 -70 L 145 0 Z M 252 -608 Q 243 -608 235.5 -615 Q 228 -622 224.5 -631.5 Q 221 -641 220 -650.5 Q 219 -660 219 -670 Q 219 -680 220 -689.5 Q 221 -699 224.5 -708.5 Q 228 -718 235.5 -725.5 Q 243 -733 252 -733 Q 262 -733 269.5 -725.5 Q 277 -718 280.5 -708.5 Q 284 -699 285 -689.5 Q 286 -680 286 -670 Q 286 -660 285 -650.5 Q 284 -641 280.5 -631.5 Q 277 -622 269.5 -615 Q 262 -608 252 -608 Z M 177 0 L 177 -70 L 232 -70 L 232 -450 L 183 -450 L 183 -520 L 274 -520 L 274 -70 L 323 -70 L 323 0 Z M 430 -608 Q 421 -608 413.5 -615 Q 406 -622 402.5 -631.5 Q 399 -641 398 -650.5 Q 397 -660 397 -670 Q 397 -680 398 -689.5 Q 399 -699 402.5 -708.5 Q 406 -718 413.5 -725.5 Q 421 -733 430 -733 Q 440 -733 447.5 -725.5 Q 455 -718 458.5 -708.5 Q 462 -699 463 -689.5 Q 464 -680 464 -670 Q 464 -660 463 -650.5 Q 462 -641 458.5 -631.5 Q 455 -622 447.5 -615 Q 440 -608 430 -608 Z M 355 0 L 355 -70 L 410 -70 L 410 -450 L 361 -450 L 361 -520 L 452 -520 L 452 -70 L 501 -70 L 501 0 Z " id="path53"/>
<path d="M 122 -608 Q 112 -608 102 -613 Q 92 -618 86.5 -627.5 Q 81 -637 79 -648 Q 77 -659 77 -670 Q 77 -681 79 -692 Q 81 -703 86.5 -712.5 Q 92 -722 102 -727.5 Q 112 -733 122 -733 Q 133 -733 143 -727.5 Q 153 -722 158.5 -712.5 Q 164 -703 166 -692 Q 168 -681 168 -670 Q 168 -659 166 -648 Q 164 -637 158.5 -627.5 Q 153 -618 143 -613 Q 133 -608 122 -608 Z M 13 0 L 13 -70 L 95 -70 L 95 -450 L 22 -450 L 22 -520 L 152 -520 L 152 -70 L 225 -70 L 225 0 Z M 349 0 L 262 -520 L 320 -520 L 372 -173 Q 374 -157 376.5 -141 Q 379 -125 381 -109 Q 384 -125 386 -141 Q 388 -157 391 -173 L 443 -520 L 501 -520 L 414 0 Z " id="path54"/>
<path d="M 205 0 L 44 -520 L 126 -520 L 226 -173 Q 232 -152 238 -131 Q 244 -110 250 -89 Q 256 -110 262 -131 Q 268 -152 274 -173 L 374 -520 L 456 -520 L 295 0 Z " id="path55"/>
<path d="M 87 0 L 0 -520 L 58 -520 L 110 -173 Q 112 -157 114.5 -141 Q 117 -125 119 -109 Q 122 -125 124 -141 Q 126 -157 129 -173 L 181 -520 L 239 -520 L 152 0 Z M 384 -608 Q 374 -608 364 -613 Q 354 -618 348.5 -627.5 Q 343 -637 341 -648 Q 339 -659 339 -670 Q 339 -681 341 -692 Q 343 -703 348.5 -712.5 Q 354 -722 364 -727.5 Q 374 -733 384 -733 Q 395 -733 405 -727.5 Q 415 -722 420.5 -712.5 Q 426 -703 428 -692 Q 430 -681 430 -670 Q 430 -659 428 -648 Q 426 -637 420.5 -627.5 Q 415 -618 405 -613 Q 395 -608 384 -608 Z M 275 0 L 275 -70 L 357 -70 L 357 -450 L 284 -450 L 284 -520 L 414 -520 L 414 -70 L 487 -70 L 487 0 Z " id="path56"/>
<path d="M 48 0 L -8 -520 L 35 -520 L 66 -173 Q 68 -158 69.5 -142.5 Q 71 -127 72 -112 Q 74 -127 75 -142.5 Q 76 -158 78 -173 L 109 -520 L 153 -520 L 96 0 Z M 252 -608 Q 243 -608 235.5 -615 Q 228 -622 224.5 -631.5 Q 221 -641 220 -650.5 Q 219 -660 219 -670 Q 219 -680 220 -689.5 Q 221 -699 224.5 -708.5 Q 228 -718 235.5 -725.5 Q 243 -733 252 -733 Q 262 -733 269.5 -725.5 Q 277 -718 280.5 -708.5 Q 284 -699 285 -689.5 Q 286 -680 286 -670 Q 286 -660 285 -650.5 Q 284 -641 280.5 -631.5 Q 277 -622 269.5 -615 Q 262 -608 252 -608 Z M 177 0 L 177 -70 L 232 -70 L 232 -450 L 183 -450 L 183 -520 L 274 -520 L 274 -70 L 323 -70 L 323 0 Z M 430 -608 Q 421 -608 413.5 -615 Q 406 -622 402.5 -631.5 Q 399 -641 398 -650.5 Q 397 -660 397 -670 Q 397 -680 398 -689.5 Q 399 -699 402.5 -708.5 Q 406 -718 413.5 -725.5 Q 421 -733 430 -733 Q 440 -733 447.5 -725.5 Q 455 -718 458.5 -708.5 Q 462 -699 463 -689.5 Q 464 -680 464 -670 Q 464 -660 463 -650.5 Q 462 -641 458.5 -631.5 Q 455 -622 447.5 -615 Q 440 -608 430 -608 Z M 355 0 L 355 -70 L 410 -70 L 410 -450 L 361 -450 L 361 -520 L 452 -520 L 452 -70 L 501 -70 L 501 0 Z " id="path57"/>
<path d="M 68 0 L 28 0 L -12 -520 L 23 -520 L 44 -173 Q 45 -158 46 -142.5 Q 47 -127 48 -112 Q 49 -127 50 -142.5 Q 51 -158 52 -173 L 73 -520 L 108 -520 Z M 185 -608 Q 176 -608 169.5 -616 Q 163 -624 160.5 -632.5 Q 158 -641 157.5 -650.5 Q 157 -660 157 -670 Q 157 -680 157.5 -689.5 Q 158 -699 160.5 -707.5 Q 163 -716 169.5 -724.5 Q 176 -733 185 -733 Q 193 -733 199.5 -724.5 Q 206 -716 208.5 -707.5 Q 211 -699 212 -689.5 Q 213 -680 213 -670 Q 213 -660 212 -650.5 Q 211 -641 208.5 -632.5 Q 206 -624 199.5 -616 Q 193 -608 185 -608 Z M 127 0 L 127 -70 L 168 -70 L 168 -450 L 131 -450 L 131 -520 L 203 -520 L 203 -70 L 239 -70 L 239 0 Z M 319 -608 Q 310 -608 303.5 -616 Q 297 -624 294.5 -632.5 Q 292 -641 291.5 -650.5 Q 291 -660 291 -670 Q 291 -680 291.5 -689.5 Q 292 -699 294.5 -707.5 Q 297 -716 303.5 -724.5 Q 310 -733 319 -733 Q 327 -733 333.5 -724.5 Q 340 -716 342.5 -707.5 Q 345 -699 346 -689.5 Q 347 -680 347 -670 Q 347 -660 346 -650.5 Q 345 -641 342.5 -632.5 Q 340 -624 333.5 -616 Q 327 -608 319 -608 Z M 261 0 L 261 -70 L 302 -70 L 302 -450 L 265 -450 L 265 -520 L 337 -520 L 337 -70 L 373 -70 L 373 0 Z M 454 -608 Q 445 -608 438.5 -616 Q 432 -624 429.5 -632.5 Q 427 -641 426.5 -650.5 Q 426 -660 426 -670 Q 426 -680 426.5 -689.5 Q 427 -699 429.5 -707.5 Q 432 -716 438.5 -724.5 Q 445 -733 454 -733 Q 462 -733 468.5 -724.5 Q 475 -716 477.5 -707.5 Q 480 -699 481 -689.5 Q 482 -680 482 -670 Q 482 -660 481 -650.5 Q 480 -641 477.5 -632.5 Q 475 -624 468.5 -616 Q 462 -608 454 -608 Z M 396 0 L 396 -70 L 437 -70 L 437 -450 L 400 -450 L 400 -520 L 472 -520 L 472 -70 L 508 -70 L 508 0 Z " id="path58"/>
<path d="M 122 -608 Q 112 -608 102 -613 Q 92 -618 86.5 -627.5 Q 81 -637 79 -648 Q 77 -659 77 -670 Q 77 -681 79 -692 Q 81 -703 86.5 -712.5 Q 92 -722 102 -727.5 Q 112 -733 122 -733 Q 133 -733 143 -727.5 Q 153 -722 158.5 -712.5 Q 164 -703 166 -692 Q 168 -681 168 -670 Q 168 -659 166 -648 Q 164 -637 158.5 -627.5 Q 153 -618 143 -613 Q 133 -608 122 -608 Z M 13 0 L 13 -70 L 95 -70 L 95 -450 L 22 -450 L 22 -520 L 152 -520 L 152 -70 L 225 -70 L 225 0 Z M 268 0 L 354 -260 L 268 -520 L 330 -520 L 381 -349 L 432 -520 L 494 -520 L 408 -260 L 494 0 L 432 0 L 381 -171 L 330 0 Z " id="path59"/>
<path d="M 53 0 L 209 -260 L 53 -520 L 144 -520 L 250 -332 L 356 -520 L 447 -520 L 291 -260 L 447 0 L 356 0 L 250 -188 L 144 0 Z " id="path60"/>
<path d="M 6 0 L 92 -260 L 6 -520 L 68 -520 L 119 -349 L 170 -520 L 232 -520 L 146 -260 L 232 0 L 170 0 L 119 -171 L 68 0 Z M 384 -608 Q 374 -608 364 -613 Q 354 -618 348.5 -627.5 Q 343 -637 341 -648 Q 339 -659 339 -670 Q 339 -681 341 -692 Q 343 -703 348.5 -712.5 Q 354 -722 364 -727.5 Q 374 -733 384 -733 Q 395 -733 405 -727.5 Q 415 -722 420.5 -712.5 Q 426 -703 428 -692 Q 430 -681 430 -670 Q 430 -659 428 -648 Q 426 -637 420.5 -627.5 Q 415 -618 405 -613 Q 395 -608 384 -608 Z M 275 0 L 275 -70 L 357 -70 L 357 -450 L 284 -450 L 284 -520 L 414 -520 L 414 -70 L 487 -70 L 487 0 Z " id="path61"/>
<path d="M -5 0 L 53 -260 L -5 -520 L 40 -520 L 72 -357 L 104 -520 L 149 -520 L 92 -260 L 149 0 L 104 0 L 72 -163 L 40 0 Z M 252 -608 Q 243 -608 235.5 -615 Q 228 -622 224.5 -631.5 Q 221 -641 220 -650.5 Q 219 -660 219 -670 Q 219 -680 220 -689.5 Q 221 -699 224.5 -708.5 Q 228 -718 235.5 -725.5 Q 243 -733 252 -733 Q 262 -733 269.5 -725.5 Q 277 -718 280.5 -708.5 Q 284 -699 285 -689.5 Q 286 -680 286 -670 Q 286 -660 285 -650.5 Q 284 -641 280.5 -631.5 Q 277 -622 269.5 -615 Q 262 -608 252 -608 Z M 177 0 L 177 -70 L 232 -70 L 232 -450 L 183 -450 L 183 -520 L 274 -520 L 274 -70 L 323 -70 L 323 0 Z M 430 -608 Q 421 -608 413.5 -615 Q 406 -622 402.5 -631.5 Q 399 -641 398 -650.5 Q 397 -660 397 -670 Q 397 -680 398 -689.5 Q 399 -699 402.5 -708.5 Q 406 -718 413.5 -725.5 Q 421 -733 430 -733 Q 440 -733 447.5 -725.5 Q 455 -718 458.5 -708.5 Q 462 -699 463 -689.5 Q 464 -680 464 -670 Q 464 -660 463 -650.5 Q 462 -641 458.5 -631.5 Q 455 -622 447.5 -615 Q 440 -608 430 -608 Z M 355 0 L 355 -70 L 410 -70 L 410 -450 L 361 -450 L 361 -520 L 452 -520 L 452 -70 L 501 -70 L 501 0 Z " id="path62"/>
<path d="M 75 0 L 75 -70 L 218 -70 L 218 -665 L 89 -665 L 89 -735 L 296 -735 L 296 -70 L 425 -70 L 425 0 Z " id="path63"/>
<path d="M 247 8 Q 220 8 193.5 2.5 Q 167 -3 144 -16.5 Q 121 -30 103.5 -50.5 Q 86 -71 75 -95.5 Q 64 -120 60 -146.5 Q 56 -173 56 -200 L 56 -320 Q 56 -347 60 -373.5 Q 64 -400 75 -424.5 Q 86 -449 103.5 -469.5 Q 121 -490 144 -503.5 Q 167 -517 193.5 -522.5 Q 220 -528 247 -528 Q 272 -528 297 -524 Q 322 -520 344 -509 Q 366 -498 384.5 -480.5 Q 403 -463 415 -441 Q 427 -419 432.5 -394.5 Q 438 -370 438 -345 L 438 -340 L 360 -340 L 360 -343 Q 360 -366 353 -388 Q 346 -410 330 -426.5 Q 314 -443 292 -450.5 Q 270 -458 247 -458 Q 230 -458 213.5 -454 Q 197 -450 183 -440 Q 169 -430 159.5 -416 Q 150 -402 144 -386.5 Q 138 -371 136 -354 Q 134 -337 134 -320 L 134 -200 Q 134 -183 136 -166 Q 138 -149 144 -133.5 Q 150 -118 159.5 -104 Q 169 -90 183 -80 Q 197 -70 213.5 -66 Q 230 -62 247 -62 Q 270 -62 292 -69.5 Q 314 -77 330 -93.5 Q 346 -110 353 -132 Q 360 -154 360 -177 L 360 -180 L 438 -180 L 438 -175 Q 438 -150 432.5 -125.5 Q 427 -101 415 -79 Q 403 -57 384.5 -39.5 Q 366 -22 344 -11 Q 322 0 297 4 Q 272 8 247 8 Z " id="path64"/>
<path d="M 215 8 Q 190 8 166 1 Q 142 -6 122.5 -21.5 Q 103 -37 90 -58 Q 77 -79 69 -102.5 Q 61 -126 58.5 -150.5 Q 56 -175 56 -200 L 56 -320 Q 56 -345 58.5 -369.5 Q 61 -394 69 -417.5 Q 77 -441 90 -462 Q 103 -483 122.5 -498.5 Q 142 -514 166 -521 Q 190 -528 215 -528 Q 239 -528 262 -521.5 Q 285 -515 304 -501 Q 323 -487 336.5 -467 Q 350 -447 358 -424 L 358 -735 L 436 -735 L 436 0 L 358 0 L 358 -96 Q 350 -73 336.5 -53 Q 323 -33 304 -19 Q 285 -5 262 1.5 Q 239 8 215 8 Z M 246 -62 Q 263 -62 279.5 -66 Q 296 -70 309.5 -80 Q 323 -90 333 -104 Q 343 -118 348.5 -134 Q 354 -150 356 -166.5 Q 358 -183 358 -200 L 358 -320 Q 358 -337 356 -353.5 Q 354 -370 348.5 -386 Q 343 -402 333 -416 Q 323 -430 309.5 -440 Q 296 -450 279.5 -454 Q 263 -458 246 -458 Q 229 -458 212.5 -454 Q 196 -450 182.5 -440 Q 169 -430 159 -416 Q 149 -402 143.5 -386 Q 138 -370 136 -353.5 Q 134 -337 134 -320 L 134 -200 Q 134 -183 136 -166.5 Q 138 -150 143.5 -134 Q 149 -118 159 -104 Q 169 -90 182.5 -80 Q 196 -70 212.5 -66 Q 229 -62 246 -62 Z " id="path65"/>
<path d="M 51 0 L 51 -520 L 123 -520 L 123 -474 Q 128 -485 135 -495.5 Q 142 -506 151.5 -513.5 Q 161 -521 173 -524.5 Q 185 -528 198 -528 Q 213 -528 227 -522.5 Q 241 -517 251.5 -506.5 Q 262 -496 269 -482 Q 276 -468 280 -454 Q 283 -468 289.5 -482 Q 296 -496 306.5 -506.5 Q 317 -517 331.5 -522.5 Q 346 -528 361 -528 Q 376 -528 390 -522.5 Q 404 -517 415 -506.5 Q 426 -496 432.5 -482 Q 439 -468 443 -453.5 Q 447 -439 448 -424 Q 449 -409 449 -394 L 449 0 L 377 0 L 377 -394 Q 377 -405 375 -417 Q 373 -429 368 -439 Q 363 -449 353 -456 Q 343 -463 332 -463 Q 320 -463 310 -456 Q 300 -449 295 -439 Q 290 -429 288 -417 Q 286 -405 286 -394 L 286 0 L 214 0 L 214 -394 Q 214 -405 212 -417 Q 210 -429 205 -439 Q 200 -449 190 -456 Q 180 -463 168 -463 Q 157 -463 147 -456 Q 137 -449 132 -439 Q 127 -429 125 -417 Q 123 -405 123 -394 L 123 0 Z " id="path66"/>
<path d="M 300 8 L 200 8 Q 176 8 152.5 1.5 Q 129 -5 109.5 -20 Q 90 -35 77 -55.5 Q 64 -76 56 -99 Q 48 -122 45.5 -146.5 Q 43 -171 43 -195 L 43 -540 Q 43 -564 45.5 -588.5 Q 48 -613 56 -636 Q 64 -659 77 -679.5 Q 90 -700 109.5 -715 Q 129 -730 152.5 -736.5 Q 176 -743 200 -743 L 300 -743 Q 324 -743 347.5 -736.5 Q 371 -730 390.5 -715 Q 410 -700 423 -679.5 Q 436 -659 444 -636 Q 452 -613 454.5 -588.5 Q 457 -564 457 -540 L 457 -195 Q 457 -171 454.5 -146.5 Q 452 -122 444 -99 Q 436 -76 423 -55.5 Q 410 -35 390.5 -20 Q 371 -5 347.5 1.5 Q 324 8 300 8 Z M 214 -57 L 214 -678 L 200 -678 Q 185 -678 171 -672 Q 157 -666 147 -654.5 Q 137 -643 131 -629 Q 125 -615 121 -600 Q 117 -585 116 -570 Q 115 -555 115 -540 L 115 -195 Q 115 -180 116 -165 Q 117 -150 121 -135 Q 125 -120 131 -106 Q 137 -92 147 -80.5 Q 157 -69 171 -63 Q 185 -57 200 -57 Z M 286 -57 L 300 -57 Q 315 -57 329 -63 Q 343 -69 353 -80.5 Q 363 -92 369 -106 Q 375 -120 379 -135 Q 383 -150 384 -165 Q 385 -180 385 -195 L 385 -540 Q 385 -555 384 -570 Q 383 -585 379 -600 Q 375 -615 369 -629 Q 363 -643 353 -654.5 Q 343 -666 329 -672 Q 315 -678 300 -678 L 286 -678 Z " id="path67"/>
<path d="M 51 0 L 51 -735 L 235 -735 Q 264 -735 293 -730 Q 322 -725 348.5 -712.5 Q 375 -700 397 -680 Q 419 -660 432.5 -634 Q 446 -608 451.5 -579 Q 457 -550 457 -521 L 457 -215 Q 457 -185 451.5 -156 Q 446 -127 432.5 -101 Q 419 -75 397 -55 Q 375 -35 348.5 -22.5 Q 322 -10 293 -5 Q 264 -0 235 0 Z M 123 -65 L 235 -65 Q 255 -65 275 -68.5 Q 295 -72 313 -81 Q 331 -90 345.5 -104.5 Q 360 -119 369 -137 Q 378 -155 381.5 -174.5 Q 385 -194 385 -215 L 385 -521 Q 385 -541 381.5 -560.5 Q 378 -580 369 -598 Q 360 -616 345.5 -630.5 Q 331 -645 313 -654 Q 295 -663 275 -666.5 Q 255 -670 235 -670 L 123 -670 L 123 -588 L 142 -588 Q 161 -588 179.5 -585.5 Q 198 -583 215.5 -576.5 Q 233 -570 248.5 -558.5 Q 264 -547 274.5 -531 Q 285 -515 289.5 -496.5 Q 294 -478 294 -459 L 294 -276 Q 294 -257 289.5 -238.5 Q 285 -220 274.5 -204 Q 264 -188 248.5 -176.5 Q 233 -165 215.5 -158.5 Q 198 -152 179.5 -149.5 Q 161 -147 142 -147 L 123 -147 Z M 123 -212 L 142 -212 Q 156 -212 170.5 -215 Q 185 -218 197 -226 Q 209 -234 215.5 -247.5 Q 222 -261 222 -276 L 222 -459 Q 222 -474 215.5 -487.5 Q 209 -501 197 -509 Q 185 -517 170.5 -520 Q 156 -523 142 -523 L 123 -523 Z " id="path68"/>
<path d="M 307 8 L 193 8 Q 168 8 142.5 2.5 Q 117 -3 95.5 -16.5 Q 74 -30 57.5 -50.5 Q 41 -71 31.5 -94.5 Q 22 -118 18.5 -143.5 Q 15 -169 15 -195 L 15 -540 Q 15 -566 18.5 -591.5 Q 22 -617 31.5 -640.5 Q 41 -664 57.5 -684.5 Q 74 -705 95.5 -718.5 Q 117 -732 142.5 -737.5 Q 168 -743 193 -743 L 307 -743 Q 332 -743 357.5 -737.5 Q 383 -732 404.5 -718.5 Q 426 -705 442.5 -684.5 Q 459 -664 468.5 -640.5 Q 478 -617 481.5 -591.5 Q 485 -566 485 -540 L 485 -195 Q 485 -169 481.5 -143.5 Q 478 -118 468.5 -94.5 Q 459 -71 442.5 -50.5 Q 426 -30 404.5 -16.5 Q 383 -3 357.5 2.5 Q 332 8 307 8 Z M 193 -46 L 220 -46 L 220 -85 Q 202 -85 185.5 -90.5 Q 169 -96 156 -108 Q 143 -120 134.5 -136 Q 126 -152 121.5 -169 Q 117 -186 115.5 -203.5 Q 114 -221 114 -238 L 114 -497 Q 114 -514 115.5 -531.5 Q 117 -549 121.5 -566 Q 126 -583 134.5 -599 Q 143 -615 156 -627 Q 169 -639 185.5 -644.5 Q 202 -650 220 -650 L 220 -689 L 193 -689 Q 175 -689 157.5 -684.5 Q 140 -680 125.5 -669 Q 111 -658 101 -643 Q 91 -628 85 -611 Q 79 -594 77 -576 Q 75 -558 75 -540 L 75 -195 Q 75 -177 77 -159 Q 79 -141 85 -124 Q 91 -107 101 -92 Q 111 -77 125.5 -66 Q 140 -55 157.5 -50.5 Q 175 -46 193 -46 Z M 280 -46 L 307 -46 Q 325 -46 342.5 -50.5 Q 360 -55 374.5 -66 Q 389 -77 399 -92 Q 409 -107 415 -124 Q 421 -141 423 -159 Q 425 -177 425 -195 L 425 -540 Q 425 -558 423 -576 Q 421 -594 415 -611 Q 409 -628 399 -643 Q 389 -658 374.5 -669 Q 360 -680 342.5 -684.5 Q 325 -689 307 -689 L 280 -689 L 280 -650 Q 298 -650 314.5 -644.5 Q 331 -639 344 -627 Q 357 -615 365.5 -599 Q 374 -583 378.5 -566 Q 383 -549 384.5 -531.5 Q 386 -514 386 -497 L 386 -238 Q 386 -221 384.5 -203.5 Q 383 -186 378.5 -169 Q 374 -152 365.5 -136 Q 357 -120 344 -108 Q 331 -96 314.5 -90.5 Q 298 -85 280 -85 Z M 280 -139 Q 290 -139 298.5 -145 Q 307 -151 312 -160 Q 317 -169 319.5 -178.5 Q 322 -188 324 -198 Q 326 -208 326.5 -218 Q 327 -228 327 -238 L 327 -497 Q 327 -507 326.5 -517 Q 326 -527 324 -537 Q 322 -547 319.5 -556.5 Q 317 -566 312 -575 Q 307 -584 298.5 -590 Q 290 -596 280 -596 Z M 220 -139 L 220 -596 Q 210 -596 201.5 -590 Q 193 -584 188 -575 Q 183 -566 180.5 -556.5 Q 178 -547 176 -537 Q 174 -527 173.5 -517 Q 173 -507 173 -497 L 173 -238 Q 173 -228 173.5 -218 Q 174 -208 176 -198 Q 178 -188 180.5 -178.5 Q 183 -169 188 -160 Q 193 -151 201.5 -145 Q 210 -139 220 -139 Z " id="path69"/>
<path d="M 253 8 Q 228 8 203.5 4 Q 179 0 156.5 -11 Q 134 -22 115.5 -39.5 Q 97 -57 85 -78.5 Q 73 -100 67.5 -124.5 Q 62 -149 62 -174 L 62 -180 L 140 -180 L 140 -176 Q 140 -153 147 -131 Q 154 -109 170 -92.5 Q 186 -76 208 -69 Q 230 -62 253 -62 Q 278 -62 301.5 -72 Q 325 -82 340 -101.5 Q 355 -121 360.5 -145.5 Q 366 -170 366 -195 L 366 -540 Q 366 -565 360.5 -589.5 Q 355 -614 340 -633.5 Q 325 -653 301.5 -663 Q 278 -673 253 -673 Q 230 -673 208 -666 Q 186 -659 170 -642.5 Q 154 -626 147 -604 Q 140 -582 140 -559 L 140 -555 L 62 -555 L 62 -561 Q 62 -586 67.5 -610.5 Q 73 -635 85 -656.5 Q 97 -678 115.5 -695.5 Q 134 -713 156.5 -724 Q 179 -735 203.5 -739 Q 228 -743 253 -743 Q 279 -743 305.5 -738 Q 332 -733 355 -720 Q 378 -707 396 -687 Q 414 -667 425 -643 Q 436 -619 440 -592.5 Q 444 -566 444 -540 L 444 -195 Q 444 -169 440 -142.5 Q 436 -116 425 -92 Q 414 -68 396 -48 Q 378 -28 355 -15 Q 332 -2 305.5 3 Q 279 8 253 8 Z " id="path70"/>
<path d="M 253 8 Q 228 8 203 4 Q 178 0 156 -11 Q 134 -22 115.5 -39.5 Q 97 -57 85 -79 Q 73 -101 67.5 -125.5 Q 62 -150 62 -175 L 62 -180 L 140 -180 L 140 -177 Q 140 -154 147 -132 Q 154 -110 170 -93.5 Q 186 -77 208 -69.5 Q 230 -62 253 -62 Q 270 -62 286.5 -66 Q 303 -70 317 -80 Q 331 -90 340.5 -104 Q 350 -118 356 -133.5 Q 362 -149 364 -166 Q 366 -183 366 -200 L 366 -320 Q 366 -337 364 -354 Q 362 -371 356 -386.5 Q 350 -402 340.5 -416 Q 331 -430 317 -440 Q 303 -450 286.5 -454 Q 270 -458 253 -458 Q 230 -458 208 -450.5 Q 186 -443 170 -426.5 Q 154 -410 147 -388 Q 140 -366 140 -343 L 140 -340 L 62 -340 L 62 -345 Q 62 -370 67.5 -394.5 Q 73 -419 85 -441 Q 97 -463 115.5 -480.5 Q 134 -498 156 -509 Q 178 -520 203 -524 Q 228 -528 253 -528 Q 280 -528 306.5 -522.5 Q 333 -517 356 -503.5 Q 379 -490 396.5 -469.5 Q 414 -449 425 -424.5 Q 436 -400 440 -373.5 Q 444 -347 444 -320 L 444 -200 Q 444 -173 440 -146.5 Q 436 -120 425 -95.5 Q 414 -71 396.5 -50.5 Q 379 -30 356 -16.5 Q 333 -3 306.5 2.5 Q 280 8 253 8 Z " id="path71"/>
<path d="M 367 215 L 367 -69 Q 356 -51 341 -35.5 Q 326 -20 307 -10 Q 288 -0 266.5 4 Q 245 8 224 8 Q 199 8 174.5 2 Q 150 -4 129.5 -18.5 Q 109 -33 94 -53.5 Q 79 -74 70.5 -97.5 Q 62 -121 59 -145.5 Q 56 -170 56 -195 L 56 -540 Q 56 -566 60 -592.5 Q 64 -619 75 -643 Q 86 -667 104 -687 Q 122 -707 145 -720 Q 168 -733 194.5 -738 Q 221 -743 247 -743 Q 272 -743 296.5 -739 Q 321 -735 343.5 -724 Q 366 -713 384.5 -695.5 Q 403 -678 415 -656.5 Q 427 -635 432.5 -610.5 Q 438 -586 438 -561 L 438 -555 L 360 -555 L 360 -559 Q 360 -582 353 -604 Q 346 -626 330 -642.5 Q 314 -659 292 -666 Q 270 -673 247 -673 Q 222 -673 198.5 -663.5 Q 175 -654 160 -634 Q 145 -614 139.5 -589.5 Q 134 -565 134 -540 L 134 -195 Q 134 -178 136 -161.5 Q 138 -145 144.5 -129.5 Q 151 -114 161.5 -100.5 Q 172 -87 186 -78 Q 200 -69 217 -65.5 Q 234 -62 250 -62 Q 274 -62 297 -69 Q 320 -76 336.5 -93 Q 353 -110 360 -133 Q 367 -156 367 -180 L 436 -180 L 436 215 Z " id="path72"/>
<path d="M 211 0 L 56 -276 L 119 -308 L 211 -144 L 211 -735 L 289 -735 L 289 -144 L 381 -308 L 444 -276 L 289 0 Z " id="path73"/>
<path d="M 253 0 L 33 0 L 33 -735 L 253 -735 Q 282 -735 311 -730 Q 340 -725 366.5 -712.5 Q 393 -700 415 -680 Q 437 -660 450.5 -634 Q 464 -608 469.5 -579 Q 475 -550 475 -521 L 475 -215 Q 475 -185 469.5 -156 Q 464 -127 450.5 -101 Q 437 -75 415 -55 Q 393 -35 366.5 -22.5 Q 340 -10 311 -5 Q 282 -0 253 0 Z M 253 -60 Q 274 -60 294.5 -63.5 Q 315 -67 334 -76 Q 353 -85 368 -100 Q 383 -115 392.5 -133.5 Q 402 -152 405.5 -173 Q 409 -194 409 -215 L 409 -521 Q 409 -541 405.5 -562 Q 402 -583 392.5 -601.5 Q 383 -620 368 -635 Q 353 -650 334 -659 Q 315 -668 294.5 -671.5 Q 274 -675 253 -675 L 99 -675 L 99 -613 L 183 -613 Q 204 -613 225 -610 Q 246 -607 265.5 -599.5 Q 285 -592 302 -579.5 Q 319 -567 331 -549.5 Q 343 -532 347.5 -511.5 Q 352 -491 352 -470 L 352 -266 Q 352 -244 347.5 -223.5 Q 343 -203 331 -185.5 Q 319 -168 302 -155.5 Q 285 -143 265.5 -135.5 Q 246 -128 225 -125.5 Q 204 -123 183 -123 L 99 -123 L 99 -60 Z M 99 -182 L 183 -182 Q 202 -182 220.5 -186 Q 239 -190 254.5 -200.5 Q 270 -211 278 -229 Q 286 -247 286 -266 L 286 -470 Q 286 -488 278 -506 Q 270 -524 254.5 -534.5 Q 239 -545 220.5 -549 Q 202 -553 183 -553 L 99 -553 L 99 -490 L 113 -490 Q 133 -490 154 -486 Q 175 -482 192.5 -471 Q 210 -460 220 -440.5 Q 230 -421 230 -401 L 230 -334 Q 230 -314 220 -294.5 Q 210 -275 192.5 -264 Q 175 -253 154 -249 Q 133 -245 113 -245 L 99 -245 Z M 99 -305 L 113 -305 Q 121 -305 129 -306 Q 137 -307 145 -310 Q 153 -313 158.5 -319.5 Q 164 -326 164 -334 L 164 -401 Q 164 -409 158.5 -415.5 Q 153 -422 145 -425 Q 137 -428 129 -429 Q 121 -430 113 -430 L 99 -430 Z " id="path74"/>
<path d="M 309 8 L 191 8 Q 165 8 139 2.5 Q 113 -3 90.5 -16 Q 68 -29 51 -49 Q 34 -69 24 -93 Q 14 -117 10 -143 Q 6 -169 6 -195 L 6 -540 Q 6 -566 10 -592 Q 14 -618 24 -642 Q 34 -666 51 -686 Q 68 -706 90.5 -719 Q 113 -732 139 -737.5 Q 165 -743 191 -743 L 309 -743 Q 335 -743 361 -737.5 Q 387 -732 409.5 -719 Q 432 -706 449 -686 Q 466 -666 476 -642 Q 486 -618 490 -592 Q 494 -566 494 -540 L 494 -195 Q 494 -169 490 -143 Q 486 -117 476 -93 Q 466 -69 449 -49 Q 432 -29 409.5 -16 Q 387 -3 361 2.5 Q 335 8 309 8 Z M 191 -36 L 226 -36 L 226 -58 L 211 -58 Q 190 -58 170.5 -63 Q 151 -68 134.5 -80 Q 118 -92 106.5 -109.5 Q 95 -127 88 -146 Q 81 -165 78.5 -185.5 Q 76 -206 76 -226 L 76 -509 Q 76 -529 78.5 -549.5 Q 81 -570 88 -589 Q 95 -608 106.5 -625.5 Q 118 -643 134.5 -655 Q 151 -667 170.5 -672 Q 190 -677 211 -677 L 226 -677 L 226 -699 L 191 -699 Q 171 -699 151.5 -694.5 Q 132 -690 115.5 -679.5 Q 99 -669 86.5 -652.5 Q 74 -636 67 -617.5 Q 60 -599 57 -579.5 Q 54 -560 54 -540 L 54 -195 Q 54 -175 57 -155.5 Q 60 -136 67 -117.5 Q 74 -99 86.5 -82.5 Q 99 -66 115.5 -55.5 Q 132 -45 151.5 -40.5 Q 171 -36 191 -36 Z M 274 -36 L 309 -36 Q 329 -36 348.5 -40.5 Q 368 -45 384.5 -55.5 Q 401 -66 413.5 -82.5 Q 426 -99 433 -117.5 Q 440 -136 443 -155.5 Q 446 -175 446 -195 L 446 -540 Q 446 -560 443 -579.5 Q 440 -599 433 -617.5 Q 426 -636 413.5 -652.5 Q 401 -669 384.5 -679.5 Q 368 -690 348.5 -694.5 Q 329 -699 309 -699 L 274 -699 L 274 -677 L 289 -677 Q 310 -677 329.5 -672 Q 349 -667 365.5 -655 Q 382 -643 393.5 -625.5 Q 405 -608 412 -589 Q 419 -570 421.5 -549.5 Q 424 -529 424 -509 L 424 -226 Q 424 -206 421.5 -185.5 Q 419 -165 412 -146 Q 405 -127 393.5 -109.5 Q 382 -92 365.5 -80 Q 349 -68 329.5 -63 Q 310 -58 289 -58 L 274 -58 Z M 211 -102 L 226 -102 L 226 -124 Q 211 -124 198 -130 Q 185 -136 175.5 -147 Q 166 -158 161 -171.5 Q 156 -185 152.5 -199.5 Q 149 -214 148 -228 Q 147 -242 147 -257 L 147 -478 Q 147 -493 148 -507 Q 149 -521 152.5 -535.5 Q 156 -550 161 -563.5 Q 166 -577 175.5 -588 Q 185 -599 198 -605 Q 211 -611 226 -611 L 226 -633 L 211 -633 Q 196 -633 182.5 -628.5 Q 169 -624 159 -614 Q 149 -604 142 -591.5 Q 135 -579 131.5 -565.5 Q 128 -552 126.5 -537.5 Q 125 -523 125 -509 L 125 -226 Q 125 -212 126.5 -197.5 Q 128 -183 131.5 -169.5 Q 135 -156 142 -143.5 Q 149 -131 159 -121 Q 169 -111 182.5 -106.5 Q 196 -102 211 -102 Z M 274 -102 L 289 -102 Q 304 -102 317.5 -106.5 Q 331 -111 341 -121 Q 351 -131 358 -143.5 Q 365 -156 368.5 -169.5 Q 372 -183 373.5 -197.5 Q 375 -212 375 -226 L 375 -509 Q 375 -523 373.5 -537.5 Q 372 -552 368.5 -565.5 Q 365 -579 358 -591.5 Q 351 -604 341 -614 Q 331 -624 317.5 -628.5 Q 304 -633 289 -633 L 274 -633 L 274 -611 Q 289 -611 302 -605 Q 315 -599 324.5 -588 Q 334 -577 339 -563.5 Q 344 -550 347.5 -535.5 Q 351 -521 352 -507 Q 353 -493 353 -478 L 353 -257 Q 353 -242 352 -228 Q 351 -214 347.5 -199.5 Q 344 -185 339 -171.5 Q 334 -158 324.5 -147 Q 315 -136 302 -130 Q 289 -124 274 -124 Z M 274 -167 Q 283 -167 288 -174.5 Q 293 -182 296 -190 Q 299 -198 300.5 -206.5 Q 302 -215 303 -223 Q 304 -231 304 -239.5 Q 304 -248 304 -257 L 304 -478 Q 304 -487 304 -495.5 Q 304 -504 303 -512 Q 302 -520 300.5 -528.5 Q 299 -537 296 -545 Q 293 -553 288 -560.5 Q 283 -568 274 -568 Z M 226 -167 L 226 -568 Q 217 -568 212 -560.5 Q 207 -553 204 -545 Q 201 -537 199.5 -528.5 Q 198 -520 197 -512 Q 196 -504 196 -495.5 Q 196 -487 196 -478 L 196 -257 Q 196 -248 196 -239.5 Q 196 -231 197 -223 Q 198 -215 199.5 -206.5 Q 201 -198 204 -190 Q 207 -182 212 -174.5 Q 217 -167 226 -167 Z " id="path75"/>
<path d="M 436 -316 L 64 -316 L 64 -364 L 436 -364 Z M 251 -440 Q 226 -440 202.5 -446 Q 179 -452 161 -468 Q 143 -484 134.5 -507 Q 126 -530 126 -554 L 126 -738 Q 126 -762 134.5 -785.5 Q 143 -809 161 -824.5 Q 179 -840 202.5 -846.5 Q 226 -853 250 -853 Q 275 -853 298.5 -846.5 Q 322 -840 340 -824.5 Q 358 -809 366.5 -785.5 Q 375 -762 375 -738 L 375 -554 Q 375 -530 366.5 -507 Q 358 -484 340 -468 Q 322 -452 298.5 -446 Q 275 -440 251 -440 Z M 190 -629 L 311 -725 L 311 -738 Q 311 -750 307 -761.5 Q 303 -773 294.5 -781 Q 286 -789 274 -792 Q 262 -795 251 -795 Q 239 -795 227 -792 Q 215 -789 206.5 -781 Q 198 -773 194 -761.5 Q 190 -750 190 -738 Z M 250 -497 Q 262 -497 274 -500 Q 286 -503 294.5 -511 Q 303 -519 307 -530.5 Q 311 -542 311 -554 L 311 -664 L 190 -567 L 190 -554 Q 190 -542 194 -530.5 Q 198 -519 206.5 -511 Q 215 -503 227 -500 Q 239 -497 250 -497 Z M 252 172 Q 229 172 206.5 167.5 Q 184 163 165 149.5 Q 146 136 135.5 115 Q 125 94 125 71 L 125 69 L 189 69 L 189 70 Q 189 81 194.5 90.5 Q 200 100 209.5 105.5 Q 219 111 230 113 Q 241 115 252 115 Q 264 115 276 112 Q 288 109 297 101 Q 306 93 311 81.5 Q 316 70 316 58 Q 316 42 308.5 27.5 Q 301 13 287.5 4 Q 274 -5 258 -7.5 Q 242 -10 227 -10 L 227 -68 Q 241 -68 255.5 -70.5 Q 270 -73 282 -81.5 Q 294 -90 300.5 -103.5 Q 307 -117 307 -131 Q 307 -142 303 -152.5 Q 299 -163 291.5 -170 Q 284 -177 273.5 -180 Q 263 -183 252 -183 Q 242 -183 232 -181 Q 222 -179 214 -173 Q 206 -167 201.5 -157.5 Q 197 -148 197 -138 L 197 -137 L 134 -137 L 134 -140 Q 134 -162 143 -182.5 Q 152 -203 169.5 -216.5 Q 187 -230 208.5 -235.5 Q 230 -241 252 -241 Q 275 -241 297 -234.5 Q 319 -228 336 -213 Q 353 -198 362 -176.5 Q 371 -155 371 -132 Q 371 -118 367 -104 Q 363 -90 355.5 -78 Q 348 -66 337.5 -56 Q 327 -46 315 -40 Q 329 -34 341 -23.5 Q 353 -13 362 0 Q 371 13 375 28.5 Q 379 44 379 59 Q 379 83 369.5 106 Q 360 129 341.5 144.5 Q 323 160 299.5 166 Q 276 172 252 172 Z " id="path76"/>
<path d="M 249 8 Q 223 8 197 3 Q 171 -2 148 -15 Q 125 -28 107.5 -47.5 Q 90 -67 79 -91 Q 68 -115 64 -141 Q 60 -167 60 -193 Q 60 -222 66.5 -250.5 Q 73 -279 86.5 -304.5 Q 100 -330 119.5 -352 Q 139 -374 161 -392.5 Q 183 -411 206 -428.5 Q 229 -446 250.5 -465.5 Q 272 -485 290.5 -507 Q 309 -529 323 -554.5 Q 337 -580 345 -608 Q 353 -636 356 -665 L 64 -665 L 64 -735 L 436 -735 L 436 -734 Q 436 -707 435 -680 Q 434 -653 429.5 -626 Q 425 -599 416.5 -573 Q 408 -547 395.5 -523.5 Q 383 -500 366.5 -478 Q 350 -456 330.5 -437 Q 311 -418 290 -401.5 Q 269 -385 247 -369 Q 225 -353 204 -335.5 Q 183 -318 168 -295.5 Q 153 -273 145.5 -246.5 Q 138 -220 138 -193 Q 138 -169 143.5 -144.5 Q 149 -120 163.5 -100.5 Q 178 -81 201.5 -71.5 Q 225 -62 249 -62 Q 272 -62 293.5 -69.5 Q 315 -77 330.5 -93.5 Q 346 -110 353 -131.5 Q 360 -153 360 -176 L 360 -180 L 438 -180 L 438 -174 Q 438 -149 432.5 -124.5 Q 427 -100 415 -78.5 Q 403 -57 385 -39.5 Q 367 -22 345 -11 Q 323 0 298.5 4 Q 274 8 249 8 Z " id="path77"/>
<path d="M 247 8 Q 222 8 197.5 3 Q 173 -2 151.5 -13.5 Q 130 -25 113 -43.5 Q 96 -62 85 -84.5 Q 74 -107 69 -131.5 Q 64 -156 64 -181 Q 64 -208 70.5 -234 Q 77 -260 90.5 -283.5 Q 104 -307 124 -325 Q 144 -343 168 -354 Q 141 -365 117.5 -384.5 Q 94 -404 78.5 -429 Q 63 -454 55.5 -483.5 Q 48 -513 48 -542 Q 48 -569 53.5 -595.5 Q 59 -622 71 -645.5 Q 83 -669 102 -688.5 Q 121 -708 144.5 -720.5 Q 168 -733 194.5 -738 Q 221 -743 247 -743 Q 273 -743 298 -739 Q 323 -735 346.5 -724.5 Q 370 -714 389 -696.5 Q 408 -679 421 -657 Q 434 -635 440 -610 Q 446 -585 446 -559 L 446 -555 L 368 -555 L 368 -558 Q 368 -581 359.5 -604 Q 351 -627 334 -643 Q 317 -659 294 -666 Q 271 -673 247 -673 Q 222 -673 197.5 -664 Q 173 -655 156.5 -635.5 Q 140 -616 133 -591 Q 126 -566 126 -540 Q 126 -519 130.5 -498.5 Q 135 -478 145 -459.5 Q 155 -441 170.5 -426.5 Q 186 -412 205 -403.5 Q 224 -395 245 -392.5 Q 266 -390 287 -390 L 287 -320 Q 268 -320 249 -318 Q 230 -316 212.5 -308.5 Q 195 -301 181 -287.5 Q 167 -274 158.5 -257 Q 150 -240 146 -221 Q 142 -202 142 -183 Q 142 -160 147.5 -138 Q 153 -116 167 -98 Q 181 -80 202.5 -71 Q 224 -62 247 -62 Q 269 -62 290 -70 Q 311 -78 325.5 -94.5 Q 340 -111 346 -132.5 Q 352 -154 352 -176 L 352 -180 L 430 -180 L 430 -173 Q 430 -149 424.5 -125 Q 419 -101 408 -79.5 Q 397 -58 380 -40.5 Q 363 -23 341 -12 Q 319 -1 295 3.5 Q 271 8 247 8 Z " id="path78"/>
<path d="M 64 0 L 64 -735 L 436 -735 L 436 0 Z M 104 -333 L 394 -695 L 300 -695 L 104 -450 Z M 104 -489 L 269 -695 L 175 -695 L 104 -606 Z M 104 -645 L 144 -695 L 104 -695 Z M 104 -176 L 396 -543 L 396 -660 L 104 -294 Z M 104 -40 L 119 -40 L 396 -386 L 396 -504 L 104 -137 Z M 150 -40 L 244 -40 L 396 -230 L 396 -347 Z M 275 -40 L 369 -40 L 396 -74 L 396 -191 Z " id="path79"/>
</defs>
<g>
<g data-source-text="0" fill="#20242e" transform="translate(174 41.292) rotate(0) scale(0.023999998)">
<use href="#path1" transform="translate(0 0)"/>
</g>
</g>
<g>
<g data-source-text="1" fill="#20242e" transform="translate(246 41.292) rotate(0) scale(0.023999998)">
<use href="#path2" transform="translate(0 0)"/>
</g>
</g>
<g>
<g data-source-text="2" fill="#20242e" transform="translate(318 41.292) rotate(0) scale(0.023999998)">
<use href="#path3" transform="translate(0 0)"/>
</g>
</g>
<g>
<g data-source-text="3" fill="#20242e" transform="translate(390 41.292) rotate(0) scale(0.023999998)">
<use href="#path4" transform="translate(0 0)"/>
</g>
</g>
<g>
<g data-source-text="4" fill="#20242e" transform="translate(462 41.292) rotate(0) scale(0.023999998)">
<use href="#path5" transform="translate(0 0)"/>
</g>
</g>
<g>
<g data-source-text="5" fill="#20242e" transform="translate(534 41.292) rotate(0) scale(0.023999998)">
<use href="#path6" transform="translate(0 0)"/>
</g>
</g>
<g>
<g data-source-text="6" fill="#20242e" transform="translate(606 41.292) rotate(0) scale(0.023999998)">
<use href="#path7" transform="translate(0 0)"/>
</g>
</g>
<g>
<g data-source-text="7" fill="#20242e" transform="translate(678 41.292) rotate(0) scale(0.023999998)">
<use href="#path8" transform="translate(0 0)"/>
</g>
</g>
<g>
<g data-source-text="8" fill="#20242e" transform="translate(750 41.292) rotate(0) scale(0.023999998)">
<use href="#path9" transform="translate(0 0)"/>
</g>
</g>
<g>
<g data-source-text="9" fill="#20242e" transform="translate(822 41.292) rotate(0) scale(0.023999998)">
<use href="#path10" transform="translate(0 0)"/>
</g>
</g>
<g>
<g data-source-text="A" fill="#20242e" transform="translate(894 41.292) rotate(0) scale(0.023999998)">
<use href="#path11" transform="translate(0 0)"/>
</g>
</g>
<g>
<g data-source-text="B" fill="#20242e" transform="translate(966 41.292) rotate(0) scale(0.023999998)">
<use href="#path12" transform="translate(0 0)"/>
</g>
</g>
<g>
<g data-source-text="C" fill="#20242e" transform="translate(1038 41.292) rotate(0) scale(0.023999998)">
<use href="#path13" transform="translate(0 0)"/>
</g>
</g>
<g>
<g data-source-text="D" fill="#20242e" transform="translate(1110 41.292) rotate(0) scale(0.023999998)">
<use href="#path14" transform="translate(0 0)"/>
</g>
</g>
<g>
<g data-source-text="E" fill="#20242e" transform="translate(1182 41.292) rotate(0) scale(0.023999998)">
<use href="#path15" transform="translate(0 0)"/>
</g>
</g>
<g>
<g data-source-text="F" fill="#20242e" transform="translate(1254 41.292) rotate(0) scale(0.023999998)">
<use href="#path16" transform="translate(0 0)"/>
</g>
</g>
<g>
<g data-source-text="U+2150" fill="#20242e" transform="translate(36 113.292) rotate(0) scale(0.023999998)">
<use href="#path17" transform="translate(0 0)"/>
<use href="#path18" transform="translate(500 0)"/>
<use href="#path3" transform="translate(1000 0)"/>
<use href="#path2" transform="translate(1500 0)"/>
<use href="#path6" transform="translate(2000 0)"/>
<use href="#path1" transform="translate(2500 0)"/>
</g>
</g>
<g>
<g data-source-text="" fill="#20242e" transform="translate(168 118.584) rotate(0) scale(0.047999997)">
<use href="#path19" transform="translate(0 0)"/>
</g>
</g>
<g>
<g data-source-text="" fill="#20242e" transform="translate(240 118.584) rotate(0) scale(0.047999997)">
<use href="#path20" transform="translate(0 0)"/>
</g>
</g>
<g>
<g data-source-text="" fill="#20242e" transform="translate(312 118.584) rotate(0) scale(0.047999997)">
<use href="#path21" transform="translate(0 0)"/>
</g>
</g>
<g>
<g data-source-text="" fill="#20242e" transform="translate(384 118.584) rotate(0) scale(0.047999997)">
<use href="#path22" transform="translate(0 0)"/>
</g>
</g>
<g>
<g data-source-text="" fill="#20242e" transform="translate(456 118.584) rotate(0) scale(0.047999997)">
<use href="#path23" transform="translate(0 0)"/>
</g>
</g>
<g>
<g data-source-text="" fill="#20242e" transform="translate(528 118.584) rotate(0) scale(0.047999997)">
<use href="#path24" transform="translate(0 0)"/>
</g>
</g>
<g>
<g data-source-text="" fill="#20242e" transform="translate(600 118.584) rotate(0) scale(0.047999997)">
<use href="#path25" transform="translate(0 0)"/>
</g>
</g>
<g>
<g data-source-text="" fill="#20242e" transform="translate(672 118.584) rotate(0) scale(0.047999997)">
<use href="#path26" transform="translate(0 0)"/>
</g>
</g>
<g>
<g data-source-text="" fill="#20242e" transform="translate(744 118.584) rotate(0) scale(0.047999997)">
<use href="#path27" transform="translate(0 0)"/>
</g>
</g>
<g>
<g data-source-text="" fill="#20242e" transform="translate(816 118.584) rotate(0) scale(0.047999997)">
<use href="#path28" transform="translate(0 0)"/>
</g>
</g>
<g>
<g data-source-text="" fill="#20242e" transform="translate(888 118.584) rotate(0) scale(0.047999997)">
<use href="#path29" transform="translate(0 0)"/>
</g>
</g>
<g>
<g data-source-text="" fill="#20242e" transform="translate(960 118.584) rotate(0) scale(0.047999997)">
<use href="#path30" transform="translate(0 0)"/>
</g>
</g>
<g>
<g data-source-text="" fill="#20242e" transform="translate(1032 118.584) rotate(0) scale(0.047999997)">
<use href="#path31" transform="translate(0 0)"/>
</g>
</g>
<g>
<g data-source-text="" fill="#20242e" transform="translate(1104 118.584) rotate(0) scale(0.047999997)">
<use href="#path32" transform="translate(0 0)"/>
</g>
</g>
<g>
<g data-source-text="" fill="#20242e" transform="translate(1176 118.584) rotate(0) scale(0.047999997)">
<use href="#path33" transform="translate(0 0)"/>
</g>
</g>
<g>
<g data-source-text="" fill="#20242e" transform="translate(1248 118.584) rotate(0) scale(0.047999997)">
<use href="#path34" transform="translate(0 0)"/>
</g>
</g>
<g>
<g data-source-text="U+2160" fill="#20242e" transform="translate(36 185.292) rotate(0) scale(0.023999998)">
<use href="#path17" transform="translate(0 0)"/>
<use href="#path18" transform="translate(500 0)"/>
<use href="#path3" transform="translate(1000 0)"/>
<use href="#path2" transform="translate(1500 0)"/>
<use href="#path7" transform="translate(2000 0)"/>
<use href="#path1" transform="translate(2500 0)"/>
</g>
</g>
<g>
<g data-source-text="" fill="#20242e" transform="translate(168 190.584) rotate(0) scale(0.047999997)">
<use href="#path35" transform="translate(0 0)"/>
</g>
</g>
<g>
<g data-source-text="" fill="#20242e" transform="translate(240 190.584) rotate(0) scale(0.047999997)">
<use href="#path36" transform="translate(0 0)"/>
</g>
</g>
<g>
<g data-source-text="" fill="#20242e" transform="translate(312 190.584) rotate(0) scale(0.047999997)">
<use href="#path37" transform="translate(0 0)"/>
</g>
</g>
<g>
<g data-source-text="" fill="#20242e" transform="translate(384 190.584) rotate(0) scale(0.047999997)">
<use href="#path38" transform="translate(0 0)"/>
</g>
</g>
<g>
<g data-source-text="" fill="#20242e" transform="translate(456 190.584) rotate(0) scale(0.047999997)">
<use href="#path39" transform="translate(0 0)"/>
</g>
</g>
<g>
<g data-source-text="" fill="#20242e" transform="translate(528 190.584) rotate(0) scale(0.047999997)">
<use href="#path40" transform="translate(0 0)"/>
</g>
</g>
<g>
<g data-source-text="" fill="#20242e" transform="translate(600 190.584) rotate(0) scale(0.047999997)">
<use href="#path41" transform="translate(0 0)"/>
</g>
</g>
<g>
<g data-source-text="" fill="#20242e" transform="translate(672 190.584) rotate(0) scale(0.047999997)">
<use href="#path42" transform="translate(0 0)"/>
</g>
</g>
<g>
<g data-source-text="" fill="#20242e" transform="translate(744 190.584) rotate(0) scale(0.047999997)">
<use href="#path43" transform="translate(0 0)"/>
</g>
</g>
<g>
<g data-source-text="" fill="#20242e" transform="translate(816 190.584) rotate(0) scale(0.047999997)">
<use href="#path44" transform="translate(0 0)"/>
</g>
</g>
<g>
<g data-source-text="" fill="#20242e" transform="translate(888 190.584) rotate(0) scale(0.047999997)">
<use href="#path45" transform="translate(0 0)"/>
</g>
</g>
<g>
<g data-source-text="" fill="#20242e" transform="translate(960 190.584) rotate(0) scale(0.047999997)">
<use href="#path46" transform="translate(0 0)"/>
</g>
</g>
<g>
<g data-source-text="" fill="#20242e" transform="translate(1032 190.584) rotate(0) scale(0.047999997)">
<use href="#path47" transform="translate(0 0)"/>
</g>
</g>
<g>
<g data-source-text="" fill="#20242e" transform="translate(1104 190.584) rotate(0) scale(0.047999997)">
<use href="#path48" transform="translate(0 0)"/>
</g>
</g>
<g>
<g data-source-text="" fill="#20242e" transform="translate(1176 190.584) rotate(0) scale(0.047999997)">
<use href="#path49" transform="translate(0 0)"/>
</g>
</g>
<g>
<g data-source-text="" fill="#20242e" transform="translate(1248 190.584) rotate(0) scale(0.047999997)">
<use href="#path50" transform="translate(0 0)"/>
</g>
</g>
<g>
<g data-source-text="U+2170" fill="#20242e" transform="translate(36 257.292) rotate(0) scale(0.023999998)">
<use href="#path17" transform="translate(0 0)"/>
<use href="#path18" transform="translate(500 0)"/>
<use href="#path3" transform="translate(1000 0)"/>
<use href="#path2" transform="translate(1500 0)"/>
<use href="#path8" transform="translate(2000 0)"/>
<use href="#path1" transform="translate(2500 0)"/>
</g>
</g>
<g>
<g data-source-text="" fill="#20242e" transform="translate(168 262.584) rotate(0) scale(0.047999997)">
<use href="#path51" transform="translate(0 0)"/>
</g>
</g>
<g>
<g data-source-text="" fill="#20242e" transform="translate(240 262.584) rotate(0) scale(0.047999997)">
<use href="#path52" transform="translate(0 0)"/>
</g>
</g>
<g>
<g data-source-text="" fill="#20242e" transform="translate(312 262.584) rotate(0) scale(0.047999997)">
<use href="#path53" transform="translate(0 0)"/>
</g>
</g>
<g>
<g data-source-text="" fill="#20242e" transform="translate(384 262.584) rotate(0) scale(0.047999997)">
<use href="#path54" transform="translate(0 0)"/>
</g>
</g>
<g>
<g data-source-text="" fill="#20242e" transform="translate(456 262.584) rotate(0) scale(0.047999997)">
<use href="#path55" transform="translate(0 0)"/>
</g>
</g>
<g>
<g data-source-text="" fill="#20242e" transform="translate(528 262.584) rotate(0) scale(0.047999997)">
<use href="#path56" transform="translate(0 0)"/>
</g>
</g>
<g>
<g data-source-text="" fill="#20242e" transform="translate(600 262.584) rotate(0) scale(0.047999997)">
<use href="#path57" transform="translate(0 0)"/>
</g>
</g>
<g>
<g data-source-text="" fill="#20242e" transform="translate(672 262.584) rotate(0) scale(0.047999997)">
<use href="#path58" transform="translate(0 0)"/>
</g>
</g>
<g>
<g data-source-text="" fill="#20242e" transform="translate(744 262.584) rotate(0) scale(0.047999997)">
<use href="#path59" transform="translate(0 0)"/>
</g>
</g>
<g>
<g data-source-text="" fill="#20242e" transform="translate(816 262.584) rotate(0) scale(0.047999997)">
<use href="#path60" transform="translate(0 0)"/>
</g>
</g>
<g>
<g data-source-text="" fill="#20242e" transform="translate(888 262.584) rotate(0) scale(0.047999997)">
<use href="#path61" transform="translate(0 0)"/>
</g>
</g>
<g>
<g data-source-text="" fill="#20242e" transform="translate(960 262.584) rotate(0) scale(0.047999997)">
<use href="#path62" transform="translate(0 0)"/>
</g>
</g>
<g>
<g data-source-text="" fill="#20242e" transform="translate(1032 262.584) rotate(0) scale(0.047999997)">
<use href="#path63" transform="translate(0 0)"/>
</g>
</g>
<g>
<g data-source-text="" fill="#20242e" transform="translate(1104 262.584) rotate(0) scale(0.047999997)">
<use href="#path64" transform="translate(0 0)"/>
</g>
</g>
<g>
<g data-source-text="" fill="#20242e" transform="translate(1176 262.584) rotate(0) scale(0.047999997)">
<use href="#path65" transform="translate(0 0)"/>
</g>
</g>
<g>
<g data-source-text="" fill="#20242e" transform="translate(1248 262.584) rotate(0) scale(0.047999997)">
<use href="#path66" transform="translate(0 0)"/>
</g>
</g>
<g>
<g data-source-text="U+2180" fill="#20242e" transform="translate(36 329.292) rotate(0) scale(0.023999998)">
<use href="#path17" transform="translate(0 0)"/>
<use href="#path18" transform="translate(500 0)"/>
<use href="#path3" transform="translate(1000 0)"/>
<use href="#path2" transform="translate(1500 0)"/>
<use href="#path9" transform="translate(2000 0)"/>
<use href="#path1" transform="translate(2500 0)"/>
</g>
</g>
<g>
<g data-source-text="" fill="#20242e" transform="translate(168 334.584) rotate(0) scale(0.047999997)">
<use href="#path67" transform="translate(0 0)"/>
</g>
</g>
<g>
<g data-source-text="" fill="#20242e" transform="translate(240 334.584) rotate(0) scale(0.047999997)">
<use href="#path68" transform="translate(0 0)"/>
</g>
</g>
<g>
<g data-source-text="" fill="#20242e" transform="translate(312 334.584) rotate(0) scale(0.047999997)">
<use href="#path69" transform="translate(0 0)"/>
</g>
</g>
<g>
<g data-source-text="" fill="#20242e" transform="translate(384 334.584) rotate(0) scale(0.047999997)">
<use href="#path70" transform="translate(0 0)"/>
</g>
</g>
<g>
<g data-source-text="" fill="#20242e" transform="translate(456 334.584) rotate(0) scale(0.047999997)">
<use href="#path71" transform="translate(0 0)"/>
</g>
</g>
<g>
<g data-source-text="" fill="#20242e" transform="translate(528 334.584) rotate(0) scale(0.047999997)">
<use href="#path72" transform="translate(0 0)"/>
</g>
</g>
<g>
<g data-source-text="" fill="#20242e" transform="translate(600 334.584) rotate(0) scale(0.047999997)">
<use href="#path73" transform="translate(0 0)"/>
</g>
</g>
<g>
<g data-source-text="" fill="#20242e" transform="translate(672 334.584) rotate(0) scale(0.047999997)">
<use href="#path74" transform="translate(0 0)"/>
</g>
</g>
<g>
<g data-source-text="" fill="#20242e" transform="translate(744 334.584) rotate(0) scale(0.047999997)">
<use href="#path75" transform="translate(0 0)"/>
</g>
</g>
<g>
<g data-source-text="" fill="#20242e" transform="translate(816 334.584) rotate(0) scale(0.047999997)">
<use href="#path76" transform="translate(0 0)"/>
</g>
</g>
<g>
<g data-source-text="" fill="#20242e" transform="translate(888 334.584) rotate(0) scale(0.047999997)">
<use href="#path77" transform="translate(0 0)"/>
</g>
</g>
<g>
<g data-source-text="" fill="#20242e" transform="translate(960 334.584) rotate(0) scale(0.047999997)">
<use href="#path78" transform="translate(0 0)"/>
</g>
</g>
<g>
<g data-source-text="" fill="#20242e40" transform="translate(1032 334.584) rotate(0) scale(0.047999997)">
<use href="#path79" transform="translate(0 0)"/>
</g>
</g>
<g>
<g data-source-text="" fill="#20242e40" transform="translate(1104 334.584) rotate(0) scale(0.047999997)">
<use href="#path79" transform="translate(0 0)"/>
</g>
</g>
<g>
<g data-source-text="" fill="#20242e40" transform="translate(1176 334.584) rotate(0) scale(0.047999997)">
<use href="#path79" transform="translate(0 0)"/>
</g>
</g>
<g>
<g data-source-text="" fill="#20242e40" transform="translate(1248 334.584) rotate(0) scale(0.047999997)">
<use href="#path79" transform="translate(0 0)"/>
</g>
</g>
</svg>