<?xml version="1.0" encoding="UTF-8" standalone="no"?>
<svg height="648" viewBox="0 0 1296 648" width="1296" xmlns="http://www.w3.org/2000/svg">
<defs>
<path d="M 250 8 Q 223 8 196 3 Q 169 -2 145 -15 Q 121 -28 102.5 -48.5 Q 84 -69 72.5 -94 Q 61 -119 56.5 -146 Q 52 -173 52 -200 L 52 -535 Q 52 -562 56.5 -589 Q 61 -616 72.5 -641 Q 84 -666 102.5 -686.5 Q 121 -707 145 -720 Q 169 -733 196 -738 Q 223 -743 250 -743 Q 277 -743 304 -738 Q 331 -733 355 -720 Q 379 -707 397.5 -686.5 Q 416 -666 427.5 -641 Q 439 -616 443.5 -589 Q 448 -562 448 -535 L 448 -200 Q 448 -173 443.5 -146 Q 439 -119 427.5 -94 Q 416 -69 397.5 -48.5 Q 379 -28 355 -15 Q 331 -2 304 3 Q 277 8 250 8 Z M 152 -338 L 348 -493 L 348 -535 Q 348 -557 343 -579 Q 338 -601 325.5 -618.5 Q 313 -636 292.5 -645.5 Q 272 -655 250 -655 Q 228 -655 207.5 -645.5 Q 187 -636 174.5 -618.5 Q 162 -601 157 -579 Q 152 -557 152 -535 Z M 250 -80 Q 272 -80 292.5 -89.5 Q 313 -99 325.5 -116.5 Q 338 -134 343 -156 Q 348 -178 348 -200 L 348 -397 L 152 -242 L 152 -200 Q 152 -178 157 -156 Q 162 -134 174.5 -116.5 Q 187 -99 207.5 -89.5 Q 228 -80 250 -80 Z " id="path1"/>
<path d="M 230 0 L 230 -632 L 110 -528 L 55 -584 L 230 -735 L 330 -735 L 330 0 Z " id="path2"/>
<path d="M 60 0 L 60 -1 Q 60 -27 61 -54 Q 62 -81 65.5 -107 Q 69 -133 77 -158.5 Q 85 -184 96.5 -208 Q 108 -232 123 -253.5 Q 138 -275 156 -294.5 Q 174 -314 194 -331 Q 214 -348 235.5 -364 Q 257 -380 277.5 -397 Q 298 -414 313 -435.5 Q 328 -457 336 -483 Q 344 -509 344 -535 Q 344 -557 339.5 -578 Q 335 -599 323.5 -617 Q 312 -635 292 -645 Q 272 -655 251 -655 Q 231 -655 212.5 -647.5 Q 194 -640 181.5 -625 Q 169 -610 163.5 -591 Q 158 -572 158 -552 L 158 -548 L 58 -548 L 58 -555 Q 58 -581 63.5 -606 Q 69 -631 81 -653 Q 93 -675 111.5 -693 Q 130 -711 152.5 -722.5 Q 175 -734 200.5 -738.5 Q 226 -743 251 -743 Q 278 -743 304.5 -737.5 Q 331 -732 354.5 -719 Q 378 -706 396 -685.5 Q 414 -665 425 -640.5 Q 436 -616 440 -589 Q 444 -562 444 -535 Q 444 -501 435 -468 Q 426 -435 407.5 -406 Q 389 -377 364 -353.5 Q 339 -330 312.5 -308.5 Q 286 -287 261 -264 Q 236 -241 216 -213 Q 196 -185 183 -153.5 Q 170 -122 165 -88 L 440 -88 L 440 0 Z " id="path3"/>
<path d="M 253 8 Q 227 8 201 4 Q 175 -0 151 -11.5 Q 127 -23 107.5 -40.5 Q 88 -58 75.5 -81 Q 63 -104 56.5 -129.5 Q 50 -155 50 -181 L 50 -187 L 150 -187 L 150 -184 Q 150 -163 157 -143 Q 164 -123 178 -108 Q 192 -93 212 -86.5 Q 232 -80 253 -80 Q 275 -80 296 -88.5 Q 317 -97 330.5 -114.5 Q 344 -132 350 -154 Q 356 -176 356 -198 Q 356 -217 352 -235.5 Q 348 -254 339 -271 Q 330 -288 316.5 -301 Q 303 -314 286 -322 Q 269 -330 250 -332 Q 231 -334 212 -334 L 212 -422 Q 229 -422 246 -424 Q 263 -426 278.5 -433 Q 294 -440 306 -452.5 Q 318 -465 325.5 -480.5 Q 333 -496 336.5 -513 Q 340 -530 340 -547 Q 340 -566 335.5 -585.5 Q 331 -605 320 -621.5 Q 309 -638 291 -646.5 Q 273 -655 253 -655 Q 234 -655 216 -647 Q 198 -639 187 -624 Q 176 -609 171 -590 Q 166 -571 166 -553 L 166 -548 L 66 -548 L 66 -556 Q 66 -581 71.5 -605.5 Q 77 -630 88 -652 Q 99 -674 116.5 -692.5 Q 134 -711 156.5 -722.5 Q 179 -734 203.5 -738.5 Q 228 -743 253 -743 Q 278 -743 303.5 -738 Q 329 -733 351 -721 Q 373 -709 390.5 -690 Q 408 -671 419 -648 Q 430 -625 435 -600 Q 440 -575 440 -550 Q 440 -524 434 -498.5 Q 428 -473 416 -450.5 Q 404 -428 385 -409.5 Q 366 -391 343 -379 Q 370 -368 391.5 -348.5 Q 413 -329 427.5 -304.5 Q 442 -280 449 -252 Q 456 -224 456 -196 Q 456 -168 450 -141.5 Q 444 -115 432 -91 Q 420 -67 401 -47 Q 382 -27 358 -14.5 Q 334 -2 307 3 Q 280 8 253 8 Z " id="path4"/>
<path d="M 282 0 L 282 -188 L 52 -188 L 52 -275 L 276 -735 L 377 -735 L 152 -275 L 282 -275 L 282 -435 L 383 -435 L 383 -275 L 440 -275 L 440 -188 L 383 -188 L 383 0 Z " id="path5"/>
<path d="M 252 8 Q 227 8 202.5 3.5 Q 178 -1 155.5 -12 Q 133 -23 114.5 -41 Q 96 -59 84 -80.5 Q 72 -102 65.5 -126.5 Q 59 -151 58 -176 L 159 -176 Q 160 -158 166.5 -139.5 Q 173 -121 185.5 -107 Q 198 -93 216 -86.5 Q 234 -80 252 -80 Q 269 -80 285 -87 Q 301 -94 312.5 -107 Q 324 -120 330.5 -135.5 Q 337 -151 341 -167.5 Q 345 -184 346.5 -201 Q 348 -218 348 -235 Q 348 -252 346.5 -269 Q 345 -286 341.5 -302.5 Q 338 -319 331.5 -334.5 Q 325 -350 314.5 -363 Q 304 -376 288 -383.5 Q 272 -391 256 -391 Q 240 -391 224 -387 Q 208 -383 195.5 -373.5 Q 183 -364 176 -349.5 Q 169 -335 168 -319 L 68 -319 L 68 -735 L 421 -735 L 421 -647 L 168 -647 L 168 -464 Q 189 -472 211 -475 Q 233 -478 256 -478 Q 285 -478 313.5 -470.5 Q 342 -463 365.5 -445.5 Q 389 -428 405.5 -403 Q 422 -378 431.5 -350.5 Q 441 -323 444.5 -294 Q 448 -265 448 -235 Q 448 -206 444.5 -176.5 Q 441 -147 431 -119 Q 421 -91 404.5 -66.5 Q 388 -42 364 -24.5 Q 340 -7 311 0.5 Q 282 8 252 8 Z " id="path6"/>
<path d="M 250 8 Q 221 8 192.5 1.5 Q 164 -5 140 -21 Q 116 -37 98.5 -60.5 Q 81 -84 70.5 -111 Q 60 -138 56 -166.5 Q 52 -195 52 -224 Q 52 -268 59.5 -311 Q 67 -354 81 -395.5 Q 95 -437 113 -477 Q 131 -517 150 -556 L 238 -735 L 347 -735 L 240 -517 Q 228 -492 216 -467 Q 204 -442 194 -416 Q 212 -436 238.5 -446 Q 265 -456 292 -456 Q 318 -456 343.5 -447 Q 369 -438 387.5 -419.5 Q 406 -401 418 -377 Q 430 -353 436.5 -328 Q 443 -303 445.5 -276.5 Q 448 -250 448 -224 Q 448 -195 444 -166.5 Q 440 -138 429.5 -111 Q 419 -84 401.5 -60.5 Q 384 -37 360 -21 Q 336 -5 307.5 1.5 Q 279 8 250 8 Z M 250 -80 Q 266 -80 282 -85.5 Q 298 -91 309.5 -102.5 Q 321 -114 328.5 -129 Q 336 -144 340.5 -159.5 Q 345 -175 346.5 -191.5 Q 348 -208 348 -224 Q 348 -240 346.5 -256.5 Q 345 -273 340.5 -289 Q 336 -305 328.5 -319.5 Q 321 -334 309.5 -345.5 Q 298 -357 282 -362.5 Q 266 -368 250 -368 Q 235 -368 221 -363.5 Q 207 -359 195.5 -349.5 Q 184 -340 176 -327.5 Q 168 -315 163.5 -301 Q 159 -287 156.5 -272.5 Q 154 -258 153 -243 Q 153 -238 152.5 -233.5 Q 152 -229 152 -224 Q 152 -208 153.5 -191.5 Q 155 -175 159.5 -159.5 Q 164 -144 171.5 -129 Q 179 -114 190.5 -102.5 Q 202 -91 218 -85.5 Q 234 -80 250 -80 Z " id="path7"/>
<path d="M 138 0 L 336 -647 L 60 -647 L 60 -735 L 440 -735 L 440 -647 L 242 0 Z " id="path8"/>
<path d="M 250 8 Q 225 8 200 4 Q 175 -0 152 -10 Q 129 -20 109.5 -37 Q 90 -54 77.5 -75.5 Q 65 -97 58.5 -121.5 Q 52 -146 52 -172 Q 52 -203 61.5 -232.5 Q 71 -262 88 -288.5 Q 105 -315 127 -336.5 Q 149 -358 174 -378 Q 152 -396 132.5 -417 Q 113 -438 98.5 -462.5 Q 84 -487 76 -514.5 Q 68 -542 68 -570 Q 68 -594 73.5 -617.5 Q 79 -641 90.5 -661.5 Q 102 -682 119.5 -698.5 Q 137 -715 158 -725 Q 179 -735 202.5 -739 Q 226 -743 250 -743 Q 274 -743 297.5 -739 Q 321 -735 342 -725 Q 363 -715 380.5 -698.5 Q 398 -682 409.5 -661.5 Q 421 -641 426.5 -617.5 Q 432 -594 432 -570 Q 432 -542 424 -514.5 Q 416 -487 401.5 -462.5 Q 387 -438 367.5 -417 Q 348 -396 326 -378 Q 351 -358 373 -336.5 Q 395 -315 412 -288.5 Q 429 -262 438.5 -232.5 Q 448 -203 448 -172 Q 448 -146 441.5 -121.5 Q 435 -97 422.5 -75.5 Q 410 -54 390.5 -37 Q 371 -20 348 -10 Q 325 -0 300 4 Q 275 8 250 8 Z M 250 -434 Q 266 -447 280.5 -461.5 Q 295 -476 306.5 -493 Q 318 -510 325 -529.5 Q 332 -549 332 -569 Q 332 -586 327 -602.5 Q 322 -619 310.5 -631.5 Q 299 -644 283 -649.5 Q 267 -655 250 -655 Q 233 -655 217 -649.5 Q 201 -644 189.5 -631.5 Q 178 -619 173 -602.5 Q 168 -586 168 -569 Q 168 -549 175 -529.5 Q 182 -510 193.5 -493 Q 205 -476 219.5 -461.5 Q 234 -447 250 -434 Z M 250 -80 Q 269 -80 288 -85.5 Q 307 -91 320.5 -104 Q 334 -117 341 -135.5 Q 348 -154 348 -173 Q 348 -196 339.5 -217.5 Q 331 -239 317 -257.5 Q 303 -276 285.5 -291 Q 268 -306 250 -320 Q 232 -306 214.5 -291 Q 197 -276 183 -257.5 Q 169 -239 160.5 -217.5 Q 152 -196 152 -173 Q 152 -154 159 -135.5 Q 166 -117 179.5 -104 Q 193 -91 212 -85.5 Q 231 -80 250 -80 Z " id="path9"/>
<path d="M 262 0 L 153 0 L 260 -218 Q 272 -243 284 -268 Q 296 -293 306 -319 Q 288 -299 261.5 -289 Q 235 -279 208 -279 Q 182 -279 156.5 -288 Q 131 -297 112.5 -315.5 Q 94 -334 82 -358 Q 70 -382 63.5 -407 Q 57 -432 54.5 -458.5 Q 52 -485 52 -511 Q 52 -540 56 -568.5 Q 60 -597 70.5 -624 Q 81 -651 98.5 -674.5 Q 116 -698 140 -714 Q 164 -730 192.5 -736.5 Q 221 -743 250 -743 Q 279 -743 307.5 -736.5 Q 336 -730 360 -714 Q 384 -698 401.5 -674.5 Q 419 -651 429.5 -624 Q 440 -597 444 -568.5 Q 448 -540 448 -511 Q 448 -467 440.5 -424 Q 433 -381 419 -339.5 Q 405 -298 387 -258 Q 369 -218 350 -179 Z M 250 -367 Q 265 -367 279 -371.5 Q 293 -376 304.5 -385.5 Q 316 -395 324 -407.5 Q 332 -420 336.5 -434 Q 341 -448 343.5 -462.5 Q 346 -477 347 -492 Q 347 -497 347.5 -501.5 Q 348 -506 348 -511 Q 348 -527 346.5 -543.5 Q 345 -560 340.5 -575.5 Q 336 -591 328.5 -606 Q 321 -621 309.5 -632.5 Q 298 -644 282 -649.5 Q 266 -655 250 -655 Q 234 -655 218 -649.5 Q 202 -644 190.5 -632.5 Q 179 -621 171.5 -606 Q 164 -591 159.5 -575.5 Q 155 -560 153.5 -543.5 Q 152 -527 152 -511 Q 152 -495 153.5 -478.5 Q 155 -462 159.5 -446 Q 164 -430 171.5 -415.5 Q 179 -401 190.5 -389.5 Q 202 -378 218 -372.5 Q 234 -367 250 -367 Z " id="path10"/>
<path d="M 39 0 L 53 -70 L 192 -735 L 308 -735 L 461 0 L 359 0 L 326 -172 L 174 -172 L 141 0 Z M 310 -260 L 267 -490 Q 263 -513 258.5 -536 Q 254 -559 250 -582 Q 246 -559 241.5 -536 Q 237 -513 233 -490 L 190 -260 Z " id="path11"/>
<path d="M 60 0 L 60 -735 L 235 -735 Q 261 -735 287 -730.5 Q 313 -726 336.5 -714 Q 360 -702 378.5 -682.5 Q 397 -663 408.5 -639.5 Q 420 -616 424.5 -590 Q 429 -564 429 -538 Q 429 -515 425.5 -492 Q 422 -469 411.5 -448.5 Q 401 -428 384.5 -411 Q 368 -394 348 -383 Q 373 -373 394.5 -355.5 Q 416 -338 430.5 -314.5 Q 445 -291 450.5 -264 Q 456 -237 456 -210 Q 456 -181 450.5 -152.5 Q 445 -124 431 -98.5 Q 417 -73 395.5 -53.5 Q 374 -34 347.5 -21.5 Q 321 -9 292.5 -4.5 Q 264 -0 235 0 Z M 160 -424 L 235 -424 Q 256 -424 275.5 -432.5 Q 295 -441 307.5 -457.5 Q 320 -474 324.5 -494.5 Q 329 -515 329 -536 Q 329 -557 324.5 -577.5 Q 320 -598 307.5 -614.5 Q 295 -631 275.5 -639 Q 256 -647 235 -647 L 160 -647 Z M 160 -88 L 235 -88 Q 251 -88 267.5 -91 Q 284 -94 298.5 -101.5 Q 313 -109 324.5 -121 Q 336 -133 343 -148 Q 350 -163 353 -179 Q 356 -195 356 -212 Q 356 -228 353 -244.5 Q 350 -261 343 -276 Q 336 -291 324.5 -303 Q 313 -315 298.5 -322.5 Q 284 -330 267.5 -333 Q 251 -336 235 -336 L 160 -336 Z " id="path12"/>
<path d="M 247 8 Q 220 8 193 3 Q 166 -2 142.5 -15.5 Q 119 -29 101 -49.5 Q 83 -70 71.5 -94.5 Q 60 -119 56 -146 Q 52 -173 52 -200 L 52 -535 Q 52 -562 56 -589 Q 60 -616 71.5 -640.5 Q 83 -665 101 -685.5 Q 119 -706 142.5 -719.5 Q 166 -733 193 -738 Q 220 -743 247 -743 Q 273 -743 298 -738.5 Q 323 -734 346 -723 Q 369 -712 387.5 -694 Q 406 -676 418 -653.5 Q 430 -631 436 -606 Q 442 -581 442 -555 L 442 -548 L 342 -548 L 342 -552 Q 342 -572 336 -591.5 Q 330 -611 317.5 -626 Q 305 -641 286 -648 Q 267 -655 247 -655 Q 225 -655 205 -645.5 Q 185 -636 173 -618 Q 161 -600 156.5 -578.5 Q 152 -557 152 -535 L 152 -200 Q 152 -178 156.5 -156.5 Q 161 -135 173 -117 Q 185 -99 205 -89.5 Q 225 -80 247 -80 Q 267 -80 286 -87 Q 305 -94 317.5 -109 Q 330 -124 336 -143.5 Q 342 -163 342 -183 L 342 -187 L 442 -187 L 442 -180 Q 442 -154 436 -129 Q 430 -104 418 -81.5 Q 406 -59 387.5 -41 Q 369 -23 346 -12 Q 323 -1 298 3.5 Q 273 8 247 8 Z " id="path13"/>
<path d="M 60 0 L 60 -735 L 220 -735 Q 250 -735 280 -730 Q 310 -725 337 -712 Q 364 -699 386.5 -678.5 Q 409 -658 423 -631.5 Q 437 -605 442.5 -575 Q 448 -545 448 -515 L 448 -220 Q 448 -190 442.5 -160 Q 437 -130 423 -103.5 Q 409 -77 386.5 -56.5 Q 364 -36 337 -23 Q 310 -10 280 -5 Q 250 -0 220 0 Z M 160 -88 L 220 -88 Q 237 -88 254.5 -91 Q 272 -94 287.5 -102.5 Q 303 -111 315 -124 Q 327 -137 334.5 -152.5 Q 342 -168 345 -185.5 Q 348 -203 348 -220 L 348 -515 Q 348 -532 345 -549.5 Q 342 -567 334.5 -582.5 Q 327 -598 315 -611 Q 303 -624 287.5 -632.5 Q 272 -641 254.5 -644 Q 237 -647 220 -647 L 160 -647 Z " id="path14"/>
<path d="M 68 0 L 68 -735 L 440 -735 L 440 -647 L 168 -647 L 168 -426 L 383 -426 L 383 -338 L 168 -338 L 168 -88 L 440 -88 L 440 0 Z " id="path15"/>
<path d="M 90 0 L 90 -735 L 440 -735 L 440 -647 L 190 -647 L 190 -426 L 383 -426 L 383 -338 L 190 -338 L 190 0 Z " id="path16"/>
<path d="M 250 8 Q 223 8 196.5 2.5 Q 170 -3 147 -16.5 Q 124 -30 106.5 -50.5 Q 89 -71 78.5 -95.5 Q 68 -120 64 -146.5 Q 60 -173 60 -200 L 60 -735 L 160 -735 L 160 -200 Q 160 -186 161.5 -172 Q 163 -158 167.5 -144.5 Q 172 -131 179.5 -118.5 Q 187 -106 197.5 -97 Q 208 -88 222 -84 Q 236 -80 250 -80 Q 264 -80 278 -84 Q 292 -88 302.5 -97 Q 313 -106 320.5 -118.5 Q 328 -131 332.5 -144.5 Q 337 -158 338.5 -172 Q 340 -186 340 -200 L 340 -735 L 440 -735 L 440 -200 Q 440 -173 436 -146.5 Q 432 -120 421.5 -95.5 Q 411 -71 393.5 -50.5 Q 376 -30 353 -16.5 Q 330 -3 303.5 2.5 Q 277 8 250 8 Z " id="path17"/>
<path d="M 296 -142 L 204 -142 L 204 -300 L 60 -300 L 60 -380 L 204 -380 L 204 -538 L 296 -538 L 296 -380 L 440 -380 L 440 -300 L 296 -300 Z " id="path18"/>
<path d="M 349 143 L 349 -823 L 414 -823 L 414 143 Z M 218 143 L 218 -823 L 282 -823 L 282 143 Z M 86 143 L 86 -823 L 151 -823 L 151 143 Z " id="path19"/>
<path d="M 500 -122 Q 471 -122 443.5 -129.5 Q 416 -137 391 -151 Q 366 -165 345.5 -185.5 Q 325 -206 311 -231 Q 297 -256 289.5 -283.5 Q 282 -311 282 -340 Q 282 -369 289.5 -396.5 Q 297 -424 311 -449 Q 325 -474 345.5 -494.5 Q 366 -515 391 -529 Q 416 -543 443.5 -550.5 Q 471 -558 500 -558 Q 529 -558 556.5 -550.5 Q 584 -543 609 -529 Q 634 -515 654.5 -494.5 Q 675 -474 689 -449 Q 703 -424 710.5 -396.5 Q 718 -369 718 -340 Q 718 -311 710.5 -283.5 Q 703 -256 689 -231 Q 675 -206 654.5 -185.5 Q 634 -165 609 -151 Q 584 -137 556.5 -129.5 Q 529 -122 500 -122 Z " id="path20"/>
<path d="M 250 -345 Q 229 -345 208.5 -351.5 Q 188 -358 173 -373 Q 158 -388 151.5 -408.5 Q 145 -429 145 -450 Q 145 -471 151.5 -491.5 Q 158 -512 173 -527 Q 188 -542 208.5 -548.5 Q 229 -555 250 -555 Q 271 -555 291.5 -548.5 Q 312 -542 327 -527 Q 342 -512 348.5 -491.5 Q 355 -471 355 -450 Q 355 -429 348.5 -408.5 Q 342 -388 327 -373 Q 312 -358 291.5 -351.5 Q 271 -345 250 -345 Z M 250 -399 Q 260 -399 269 -402.5 Q 278 -406 284 -413.5 Q 290 -421 292.5 -430.5 Q 295 -440 295 -450 Q 295 -460 292.5 -469.5 Q 290 -479 284 -486.5 Q 278 -494 269 -497.5 Q 260 -501 250 -501 Q 240 -501 231 -497.5 Q 222 -494 216 -486.5 Q 210 -479 207.5 -469.5 Q 205 -460 205 -450 Q 205 -440 207.5 -430.5 Q 210 -421 216 -413.5 Q 222 -406 231 -402.5 Q 240 -399 250 -399 Z M 250 35 Q 229 35 208.5 28.5 Q 188 22 173 7 Q 158 -8 151.5 -28.5 Q 145 -49 145 -70 Q 145 -91 151.5 -111.5 Q 158 -132 173 -147 Q 188 -162 208.5 -168.5 Q 229 -175 250 -175 Q 271 -175 291.5 -168.5 Q 312 -162 327 -147 Q 342 -132 348.5 -111.5 Q 355 -91 355 -70 Q 355 -49 348.5 -28.5 Q 342 -8 327 7 Q 312 22 291.5 28.5 Q 271 35 250 35 Z M 250 -19 Q 260 -19 269 -22.5 Q 278 -26 284 -33.5 Q 290 -41 292.5 -50.5 Q 295 -60 295 -70 Q 295 -80 292.5 -89.5 Q 290 -99 284 -106.5 Q 278 -114 269 -117.5 Q 260 -121 250 -121 Q 240 -121 231 -117.5 Q 222 -114 216 -106.5 Q 210 -99 207.5 -89.5 Q 205 -80 205 -70 Q 205 -60 207.5 -50.5 Q 210 -41 216 -33.5 Q 222 -26 231 -22.5 Q 240 -19 250 -19 Z " id="path21"/>
<path d="M 399 153 Q 372 153 345.5 149.5 Q 319 146 294 137 Q 269 128 246.5 113 Q 224 98 208 77 Q 192 56 184 30.5 Q 176 5 176 -22 Q 176 -45 181.5 -67 Q 187 -89 196.5 -109.5 Q 206 -130 214.5 -151 Q 223 -172 223 -195 Q 223 -212 219 -229 Q 215 -246 205 -260 Q 195 -274 180.5 -284 Q 166 -294 150 -300 Q 134 -306 117 -308 Q 100 -310 83 -310 L 83 -370 Q 100 -370 117 -372 Q 134 -374 150 -380 Q 166 -386 180.5 -396 Q 195 -406 205 -420 Q 215 -434 219 -451 Q 223 -468 223 -485 Q 223 -508 214.5 -529 Q 206 -550 196.5 -570.5 Q 187 -591 181.5 -613 Q 176 -635 176 -658 Q 176 -685 184 -710.5 Q 192 -736 208 -757 Q 224 -778 246.5 -793 Q 269 -808 294 -817 Q 319 -826 345.5 -829.5 Q 372 -833 399 -833 Z M 333 85 L 333 -765 Q 314 -760 297.5 -750.5 Q 281 -741 268 -727 Q 255 -713 248.5 -695 Q 242 -677 242 -658 Q 242 -635 251 -614 Q 260 -593 269 -572.5 Q 278 -552 284 -530 Q 290 -508 290 -485 Q 290 -461 283.5 -437.5 Q 277 -414 262.5 -394.5 Q 248 -375 227.5 -361.5 Q 207 -348 184 -340 Q 207 -332 227.5 -318.5 Q 248 -305 262.5 -285.5 Q 277 -266 283.5 -242.5 Q 290 -219 290 -195 Q 290 -172 284 -150 Q 278 -128 269 -107.5 Q 260 -87 251 -66 Q 242 -45 242 -22 Q 242 -3 248.5 15 Q 255 33 268 47 Q 281 61 297.5 70.5 Q 314 80 333 85 Z " id="path22"/>
<path d="M 101 153 L 101 -833 Q 128 -833 154.5 -829.5 Q 181 -826 206 -817 Q 231 -808 253.5 -793 Q 276 -778 292 -757 Q 308 -736 316 -710.5 Q 324 -685 324 -658 Q 324 -635 318.5 -613 Q 313 -591 303.5 -570.5 Q 294 -550 285.5 -529 Q 277 -508 277 -485 Q 277 -468 281 -451 Q 285 -434 295 -420 Q 305 -406 319.5 -396 Q 334 -386 350 -380 Q 366 -374 383 -372 Q 400 -370 417 -370 L 417 -310 Q 400 -310 383 -308 Q 366 -306 350 -300 Q 334 -294 319.5 -284 Q 305 -274 295 -260 Q 285 -246 281 -229 Q 277 -212 277 -195 Q 277 -172 285.5 -151 Q 294 -130 303.5 -109.5 Q 313 -89 318.5 -67 Q 324 -45 324 -22 Q 324 5 316 30.5 Q 308 56 292 77 Q 276 98 253.5 113 Q 231 128 206 137 Q 181 146 154.5 149.5 Q 128 153 101 153 Z M 167 85 Q 186 80 202.5 70.5 Q 219 61 232 47 Q 245 33 251.5 15 Q 258 -3 258 -22 Q 258 -45 249 -66 Q 240 -87 231 -107.5 Q 222 -128 216 -150 Q 210 -172 210 -195 Q 210 -219 216.5 -242.5 Q 223 -266 237.5 -285.5 Q 252 -305 272.5 -318.5 Q 293 -332 316 -340 Q 293 -348 272.5 -361.5 Q 252 -375 237.5 -394.5 Q 223 -414 216.5 -437.5 Q 210 -461 210 -485 Q 210 -508 216 -530 Q 222 -552 231 -572.5 Q 240 -593 249 -614 Q 258 -635 258 -658 Q 258 -677 251.5 -695 Q 245 -713 232 -727 Q 219 -741 202.5 -750.5 Q 186 -760 167 -765 Z " id="path23"/>
<path d="M 64 0 L 64 -735 L 436 -735 L 436 0 Z M 104 -333 L 394 -695 L 300 -695 L 104 -450 Z M 104 -489 L 269 -695 L 175 -695 L 104 -606 Z M 104 -645 L 144 -695 L 104 -695 Z M 104 -176 L 396 -543 L 396 -660 L 104 -294 Z M 104 -40 L 119 -40 L 396 -386 L 396 -504 L 104 -137 Z M 150 -40 L 244 -40 L 396 -230 L 396 -347 Z M 275 -40 L 369 -40 L 396 -74 L 396 -191 Z " id="path24"/>
<path d="M 376 161 Q 332 137 294.5 104.5 Q 257 72 227 32.5 Q 197 -7 175.5 -52 Q 154 -97 141 -144.5 Q 128 -192 122.5 -241.5 Q 117 -291 117 -340 Q 117 -389 122.5 -438.5 Q 128 -488 141 -535.5 Q 154 -583 175.5 -628 Q 197 -673 227 -712.5 Q 257 -752 294.5 -784.5 Q 332 -817 376 -841 Z M 309 31 L 309 -711 Q 275 -674 250.5 -630 Q 226 -586 211 -538 Q 196 -490 189.5 -440 Q 183 -390 183 -340 Q 183 -290 189.5 -240 Q 196 -190 211 -142 Q 226 -94 250.5 -50 Q 275 -6 309 31 Z " id="path25"/>
<path d="M 124 161 L 124 -841 Q 168 -817 205.5 -784.5 Q 243 -752 273 -712.5 Q 303 -673 324.5 -628 Q 346 -583 359 -535.5 Q 372 -488 377.5 -438.5 Q 383 -389 383 -340 Q 383 -291 377.5 -241.5 Q 372 -192 359 -144.5 Q 346 -97 324.5 -52 Q 303 -7 273 32.5 Q 243 72 205.5 104.5 Q 168 137 124 161 Z M 191 31 Q 225 -6 249.5 -50 Q 274 -94 289 -142 Q 304 -190 310.5 -240 Q 317 -290 317 -340 Q 317 -390 310.5 -440 Q 304 -490 289 -538 Q 274 -586 249.5 -630 Q 225 -674 191 -711 Z " id="path26"/>
<path d="M 376 143 Q 309 22 242.5 -98.5 Q 176 -219 109 -340 L 376 -823 Z M 309 -112 L 309 -568 L 185 -340 Z " id="path27"/>
<path d="M 124 143 L 124 -823 Q 191 -702 257.5 -581.5 Q 324 -461 391 -340 Z M 191 -112 L 315 -340 L 191 -568 Z " id="path28"/>
<path d="M 250 -563 Q 237 -563 224 -567 Q 211 -571 201.5 -580 Q 192 -589 188 -602 Q 184 -615 184 -629 Q 184 -642 188 -655 Q 192 -668 201.5 -677.5 Q 211 -687 224 -691 Q 237 -695 250 -695 Q 263 -695 276 -691 Q 289 -687 298.5 -677.5 Q 308 -668 312 -655 Q 316 -642 316 -629 Q 316 -615 312 -602 Q 308 -589 298.5 -580 Q 289 -571 276 -567 Q 263 -563 250 -563 Z M 250 -370 Q 237 -370 224 -374 Q 211 -378 201.5 -387.5 Q 192 -397 188 -410 Q 184 -423 184 -436 Q 184 -449 188 -462.5 Q 192 -476 201.5 -485 Q 211 -494 224 -498 Q 237 -502 250 -502 Q 263 -502 276 -498 Q 289 -494 298.5 -485 Q 308 -476 312 -462.5 Q 316 -449 316 -436 Q 316 -423 312 -410 Q 308 -397 298.5 -387.5 Q 289 -378 276 -374 Q 263 -370 250 -370 Z M 250 -178 Q 237 -178 224 -182 Q 211 -186 201.5 -195 Q 192 -204 188 -217.5 Q 184 -231 184 -244 Q 184 -257 188 -270 Q 192 -283 201.5 -292.5 Q 211 -302 224 -306 Q 237 -310 250 -310 Q 263 -310 276 -306 Q 289 -302 298.5 -292.5 Q 308 -283 312 -270 Q 316 -257 316 -244 Q 316 -231 312 -217.5 Q 308 -204 298.5 -195 Q 289 -186 276 -182 Q 263 -178 250 -178 Z M 250 15 Q 237 15 224 11 Q 211 7 201.5 -2.5 Q 192 -12 188 -25 Q 184 -38 184 -51 Q 184 -65 188 -78 Q 192 -91 201.5 -100 Q 211 -109 224 -113 Q 237 -117 250 -117 Q 263 -117 276 -113 Q 289 -109 298.5 -100 Q 308 -91 312 -78 Q 316 -65 316 -51 Q 316 -38 312 -25 Q 308 -12 298.5 -2.5 Q 289 7 276 11 Q 263 15 250 15 Z " id="path29"/>
<path d="M 346 143 L 258 143 L 154 36 L 258 -72 L 154 -179 L 258 -286 L 154 -394 L 258 -501 L 154 -608 L 258 -716 L 154 -823 L 242 -823 L 346 -716 L 242 -608 L 346 -501 L 242 -394 L 346 -286 L 242 -179 L 346 -72 L 242 36 Z " id="path30"/>
<path d="M 43 -133 L 43 -222 L 309 -488 L 43 -488 L 43 -547 L 457 -547 Z " id="path31"/>
<path d="M 43 -133 L 43 -192 L 309 -192 L 43 -458 L 43 -547 L 457 -133 Z " id="path32"/>
<path d="M 376 49 L 346 -27 Q 327 -10 301.5 -1 Q 276 8 250 8 Q 221 8 193 -3.5 Q 165 -15 145 -36 Q 125 -57 111 -83 Q 97 -109 87.5 -136.5 Q 78 -164 72 -193 Q 66 -222 62.5 -251 Q 59 -280 57.5 -309 Q 56 -338 56 -368 Q 56 -402 58 -436.5 Q 60 -471 65 -505 Q 70 -539 79 -572.5 Q 88 -606 103 -637 L 55 -759 L 124 -784 L 154 -708 Q 173 -725 198.5 -734 Q 224 -743 250 -743 Q 279 -743 307 -731.5 Q 335 -720 355 -699 Q 375 -678 389 -652 Q 403 -626 412.5 -598.5 Q 422 -571 428 -542 Q 434 -513 437.5 -484 Q 441 -455 442.5 -426 Q 444 -397 444 -368 Q 444 -333 442 -298.5 Q 440 -264 435 -230 Q 430 -196 421 -162.5 Q 412 -129 397 -98 L 445 24 Z M 356 -200 Q 365 -241 367.5 -283 Q 370 -325 370 -368 Q 370 -385 369.5 -403 Q 369 -421 368 -439 Q 367 -457 365 -475 Q 363 -493 360.5 -511 Q 358 -529 354 -546.5 Q 350 -564 344 -581 Q 338 -598 330.5 -614.5 Q 323 -631 312 -645 Q 301 -659 284.5 -668 Q 268 -677 250 -677 Q 229 -677 211.5 -665.5 Q 194 -654 182 -636 Z M 250 -58 Q 271 -58 288.5 -69.5 Q 306 -81 318 -99 L 144 -535 Q 135 -494 132.5 -452 Q 130 -410 130 -368 Q 130 -350 130.5 -332 Q 131 -314 132 -296 Q 133 -278 135 -260 Q 137 -242 139.5 -224 Q 142 -206 146 -188.5 Q 150 -171 156 -154 Q 162 -137 169.5 -120.5 Q 177 -104 188 -90 Q 199 -76 215.5 -67 Q 232 -58 250 -58 Z " id="path33"/>
<path d="M 124 49 L 55 24 L 103 -98 Q 88 -129 79 -162.5 Q 70 -196 65 -230 Q 60 -264 58 -298.5 Q 56 -333 56 -368 Q 56 -397 57.5 -426 Q 59 -455 62.5 -484 Q 66 -513 72 -542 Q 78 -571 87.5 -598.5 Q 97 -626 111 -652 Q 125 -678 145 -699 Q 165 -720 193 -731.5 Q 221 -743 250 -743 Q 276 -743 301.5 -734 Q 327 -725 346 -708 L 376 -784 L 445 -759 L 397 -637 Q 412 -606 421 -572.5 Q 430 -539 435 -505 Q 440 -471 442 -436.5 Q 444 -402 444 -368 Q 444 -338 442.5 -309 Q 441 -280 437.5 -251 Q 434 -222 428 -193 Q 422 -164 412.5 -136.5 Q 403 -109 389 -83 Q 375 -57 355 -36 Q 335 -15 307 -3.5 Q 279 8 250 8 Q 224 8 198.5 -1 Q 173 -10 154 -27 Z M 144 -200 L 318 -636 Q 306 -654 288.5 -665.5 Q 271 -677 250 -677 Q 232 -677 215.5 -668 Q 199 -659 188 -645 Q 177 -631 169.5 -614.5 Q 162 -598 156 -581 Q 150 -564 146 -546.5 Q 142 -529 139.5 -511 Q 137 -493 135 -475 Q 133 -457 132 -439 Q 131 -421 130.5 -403 Q 130 -385 130 -368 Q 130 -325 132.5 -283 Q 135 -241 144 -200 Z M 250 -58 Q 268 -58 284.5 -67 Q 301 -76 312 -90 Q 323 -104 330.5 -120.5 Q 338 -137 344 -154 Q 350 -171 354 -188.5 Q 358 -206 360.5 -224 Q 363 -242 365 -260 Q 367 -278 368 -296 Q 369 -314 369.5 -332 Q 370 -350 370 -368 Q 370 -410 367.5 -452 Q 365 -494 356 -535 L 182 -99 Q 194 -81 211.5 -69.5 Q 229 -58 250 -58 Z M 64 -853 L 64 -917 L 436 -917 L 436 -853 Z " id="path34"/>
<path d="M 124 49 L 55 24 L 103 -98 Q 88 -129 79 -162.5 Q 70 -196 65 -230 Q 60 -264 58 -298.5 Q 56 -333 56 -368 Q 56 -397 57.5 -426 Q 59 -455 62.5 -484 Q 66 -513 72 -542 Q 78 -571 87.5 -598.5 Q 97 -626 111 -652 Q 125 -678 145 -699 Q 165 -720 193 -731.5 Q 221 -743 250 -743 Q 276 -743 301.5 -734 Q 327 -725 346 -708 L 376 -784 L 445 -759 L 397 -637 Q 412 -606 421 -572.5 Q 430 -539 435 -505 Q 440 -471 442 -436.5 Q 444 -402 444 -368 Q 444 -338 442.5 -309 Q 441 -280 437.5 -251 Q 434 -222 428 -193 Q 422 -164 412.5 -136.5 Q 403 -109 389 -83 Q 375 -57 355 -36 Q 335 -15 307 -3.5 Q 279 8 250 8 Q 224 8 198.5 -1 Q 173 -10 154 -27 Z M 144 -200 L 318 -636 Q 306 -654 288.5 -665.5 Q 271 -677 250 -677 Q 232 -677 215.5 -668 Q 199 -659 188 -645 Q 177 -631 169.5 -614.5 Q 162 -598 156 -581 Q 150 -564 146 -546.5 Q 142 -529 139.5 -511 Q 137 -493 135 -475 Q 133 -457 132 -439 Q 131 -421 130.5 -403 Q 130 -385 130 -368 Q 130 -325 132.5 -283 Q 135 -241 144 -200 Z M 250 -58 Q 268 -58 284.5 -67 Q 301 -76 312 -90 Q 323 -104 330.5 -120.5 Q 338 -137 344 -154 Q 350 -171 354 -188.5 Q 358 -206 360.5 -224 Q 363 -242 365 -260 Q 367 -278 368 -296 Q 369 -314 369.5 -332 Q 370 -350 370 -368 Q 370 -410 367.5 -452 Q 365 -494 356 -535 L 182 -99 Q 194 -81 211.5 -69.5 Q 229 -58 250 -58 Z M 250 -793 Q 231 -793 213 -798.5 Q 195 -804 182 -817 Q 169 -830 163.5 -848 Q 158 -866 158 -885 Q 158 -904 163.5 -922 Q 169 -940 182 -953 Q 195 -966 213 -971.5 Q 231 -977 250 -977 Q 269 -977 287 -971.5 Q 305 -966 318 -953 Q 331 -940 336.5 -922 Q 342 -904 342 -885 Q 342 -866 336.5 -848 Q 331 -830 318 -817 Q 305 -804 287 -798.5 Q 269 -793 250 -793 Z M 250 -845 Q 258 -845 266 -847.5 Q 274 -850 279.5 -855.5 Q 285 -861 287.5 -869 Q 290 -877 290 -885 Q 290 -893 287.5 -901 Q 285 -909 279.5 -914.5 Q 274 -920 266 -922.5 Q 258 -925 250 -925 Q 242 -925 234 -922.5 Q 226 -920 220.5 -914.5 Q 215 -909 212.5 -901 Q 210 -893 210 -885 Q 210 -877 212.5 -869 Q 215 -861 220.5 -855.5 Q 226 -850 234 -847.5 Q 242 -845 250 -845 Z " id="path35"/>
<path d="M 124 49 L 55 24 L 103 -98 Q 88 -129 79 -162.5 Q 70 -196 65 -230 Q 60 -264 58 -298.5 Q 56 -333 56 -368 Q 56 -397 57.5 -426 Q 59 -455 62.5 -484 Q 66 -513 72 -542 Q 78 -571 87.5 -598.5 Q 97 -626 111 -652 Q 125 -678 145 -699 Q 165 -720 193 -731.5 Q 221 -743 250 -743 Q 276 -743 301.5 -734 Q 327 -725 346 -708 L 376 -784 L 445 -759 L 397 -637 Q 412 -606 421 -572.5 Q 430 -539 435 -505 Q 440 -471 442 -436.5 Q 444 -402 444 -368 Q 444 -338 442.5 -309 Q 441 -280 437.5 -251 Q 434 -222 428 -193 Q 422 -164 412.5 -136.5 Q 403 -109 389 -83 Q 375 -57 355 -36 Q 335 -15 307 -3.5 Q 279 8 250 8 Q 224 8 198.5 -1 Q 173 -10 154 -27 Z M 144 -200 L 318 -636 Q 306 -654 288.5 -665.5 Q 271 -677 250 -677 Q 232 -677 215.5 -668 Q 199 -659 188 -645 Q 177 -631 169.5 -614.5 Q 162 -598 156 -581 Q 150 -564 146 -546.5 Q 142 -529 139.5 -511 Q 137 -493 135 -475 Q 133 -457 132 -439 Q 131 -421 130.5 -403 Q 130 -385 130 -368 Q 130 -325 132.5 -283 Q 135 -241 144 -200 Z M 250 -58 Q 268 -58 284.5 -67 Q 301 -76 312 -90 Q 323 -104 330.5 -120.5 Q 338 -137 344 -154 Q 350 -171 354 -188.5 Q 358 -206 360.5 -224 Q 363 -242 365 -260 Q 367 -278 368 -296 Q 369 -314 369.5 -332 Q 370 -350 370 -368 Q 370 -410 367.5 -452 Q 365 -494 356 -535 L 182 -99 Q 194 -81 211.5 -69.5 Q 229 -58 250 -58 Z M 316 -795 L 284 -835 L 325 -860 L 100 -860 L 100 -910 L 325 -910 L 284 -935 L 316 -975 L 434 -885 Z " id="path36"/>
<path d="M 124 49 L 55 24 L 103 -98 Q 88 -129 79 -162.5 Q 70 -196 65 -230 Q 60 -264 58 -298.5 Q 56 -333 56 -368 Q 56 -397 57.5 -426 Q 59 -455 62.5 -484 Q 66 -513 72 -542 Q 78 -571 87.5 -598.5 Q 97 -626 111 -652 Q 125 -678 145 -699 Q 165 -720 193 -731.5 Q 221 -743 250 -743 Q 276 -743 301.5 -734 Q 327 -725 346 -708 L 376 -784 L 445 -759 L 397 -637 Q 412 -606 421 -572.5 Q 430 -539 435 -505 Q 440 -471 442 -436.5 Q 444 -402 444 -368 Q 444 -338 442.5 -309 Q 441 -280 437.5 -251 Q 434 -222 428 -193 Q 422 -164 412.5 -136.5 Q 403 -109 389 -83 Q 375 -57 355 -36 Q 335 -15 307 -3.5 Q 279 8 250 8 Q 224 8 198.5 -1 Q 173 -10 154 -27 Z M 144 -200 L 318 -636 Q 306 -654 288.5 -665.5 Q 271 -677 250 -677 Q 232 -677 215.5 -668 Q 199 -659 188 -645 Q 177 -631 169.5 -614.5 Q 162 -598 156 -581 Q 150 -564 146 -546.5 Q 142 -529 139.5 -511 Q 137 -493 135 -475 Q 133 -457 132 -439 Q 131 -421 130.5 -403 Q 130 -385 130 -368 Q 130 -325 132.5 -283 Q 135 -241 144 -200 Z M 250 -58 Q 268 -58 284.5 -67 Q 301 -76 312 -90 Q 323 -104 330.5 -120.5 Q 338 -137 344 -154 Q 350 -171 354 -188.5 Q 358 -206 360.5 -224 Q 363 -242 365 -260 Q 367 -278 368 -296 Q 369 -314 369.5 -332 Q 370 -350 370 -368 Q 370 -410 367.5 -452 Q 365 -494 356 -535 L 182 -99 Q 194 -81 211.5 -69.5 Q 229 -58 250 -58 Z M 184 -795 L 66 -885 L 184 -975 L 216 -935 L 175 -910 L 400 -910 L 400 -860 L 175 -860 L 216 -835 Z " id="path37"/>
<path d="M 250 -125 Q 211 -125 174.5 -138.5 Q 138 -152 109 -177.5 Q 80 -203 61 -237.5 Q 42 -272 37 -310 L -13 -310 L -13 -370 L 37 -370 Q 42 -408 61 -442.5 Q 80 -477 109 -502.5 Q 138 -528 174.5 -541.5 Q 211 -555 250 -555 Q 289 -555 325.5 -541.5 Q 362 -528 391 -502.5 Q 420 -477 439 -442.5 Q 458 -408 463 -370 L 513 -370 L 513 -310 L 463 -310 Q 458 -272 439 -237.5 Q 420 -203 391 -177.5 Q 362 -152 325.5 -138.5 Q 289 -125 250 -125 Z M 104 -370 L 396 -370 Q 392 -396 379 -419 Q 366 -442 346 -459.5 Q 326 -477 301 -486.5 Q 276 -496 250 -496 Q 224 -496 199 -486.5 Q 174 -477 154 -459.5 Q 134 -442 121 -419 Q 108 -396 104 -370 Z M 250 -184 Q 276 -184 301 -193.5 Q 326 -203 346 -220.5 Q 366 -238 379 -261 Q 392 -284 396 -310 L 104 -310 Q 108 -284 121 -261 Q 134 -238 154 -220.5 Q 174 -203 199 -193.5 Q 224 -184 250 -184 Z " id="path38"/>
<path d="M 250 -125 Q 222 -125 194.5 -132 Q 167 -139 142.5 -153.5 Q 118 -168 98 -188 Q 78 -208 63.5 -232.5 Q 49 -257 42 -284.5 Q 35 -312 35 -340 Q 35 -368 42 -395.5 Q 49 -423 63.5 -447.5 Q 78 -472 98 -492 Q 118 -512 142.5 -526.5 Q 167 -541 194.5 -548 Q 222 -555 250 -555 Q 278 -555 305.5 -548 Q 333 -541 357.5 -526.5 Q 382 -512 402 -492 Q 422 -472 436.5 -447.5 Q 451 -423 458 -395.5 Q 465 -368 465 -340 Q 465 -312 458 -284.5 Q 451 -257 436.5 -232.5 Q 422 -208 402 -188 Q 382 -168 357.5 -153.5 Q 333 -139 305.5 -132 Q 278 -125 250 -125 Z M 217 -188 L 217 -492 Q 192 -486 170 -471.5 Q 148 -457 132.5 -436.5 Q 117 -416 109 -391 Q 101 -366 101 -340 Q 101 -314 109 -289 Q 117 -264 132.5 -243.5 Q 148 -223 170 -208.5 Q 192 -194 217 -188 Z M 283 -188 Q 308 -194 330 -208.5 Q 352 -223 367.5 -243.5 Q 383 -264 391 -289 Q 399 -314 399 -340 Q 399 -366 391 -391 Q 383 -416 367.5 -436.5 Q 352 -457 330 -471.5 Q 308 -486 283 -492 Z " id="path39"/>
<path d="M 250 -125 Q 222 -125 194.5 -132 Q 167 -139 142.5 -153.5 Q 118 -168 98 -188 Q 78 -208 63.5 -232.5 Q 49 -257 42 -284.5 Q 35 -312 35 -340 Q 35 -368 42 -395.5 Q 49 -423 63.5 -447.5 Q 78 -472 98 -492 Q 118 -512 142.5 -526.5 Q 167 -541 194.5 -548 Q 222 -555 250 -555 Q 278 -555 305.5 -548 Q 333 -541 357.5 -526.5 Q 382 -512 402 -492 Q 422 -472 436.5 -447.5 Q 451 -423 458 -395.5 Q 465 -368 465 -340 Q 465 -312 458 -284.5 Q 451 -257 436.5 -232.5 Q 422 -208 402 -188 Q 382 -168 357.5 -153.5 Q 333 -139 305.5 -132 Q 278 -125 250 -125 Z M 250 -184 Q 263 -184 275.5 -186.5 Q 288 -189 299 -193 L 286 -193 L 286 -487 L 299 -487 Q 288 -491 275.5 -493.5 Q 263 -496 250 -496 Q 237 -496 224.5 -493.5 Q 212 -491 201 -487 L 214 -487 L 214 -193 L 201 -193 Q 212 -189 224.5 -186.5 Q 237 -184 250 -184 Z M 162 -214 L 162 -466 Q 148 -455 136.5 -440.5 Q 125 -426 117 -410 Q 109 -394 105 -376 Q 101 -358 101 -340 Q 101 -322 105 -304 Q 109 -286 117 -270 Q 125 -254 136.5 -239.5 Q 148 -225 162 -214 Z M 338 -214 Q 352 -225 363.5 -239.5 Q 375 -254 383 -270 Q 391 -286 395 -304 Q 399 -322 399 -340 Q 399 -358 395 -376 Q 391 -394 383 -410 Q 375 -426 363.5 -440.5 Q 352 -455 338 -466 Z " id="path40"/>
<path d="M 250 -125 Q 222 -125 194.5 -132 Q 167 -139 142.5 -153.5 Q 118 -168 98 -188 Q 78 -208 63.5 -232.5 Q 49 -257 42 -284.5 Q 35 -312 35 -340 Q 35 -368 42 -395.5 Q 49 -423 63.5 -447.5 Q 78 -472 98 -492 Q 118 -512 142.5 -526.5 Q 167 -541 194.5 -548 Q 222 -555 250 -555 Q 278 -555 305.5 -548 Q 333 -541 357.5 -526.5 Q 382 -512 402 -492 Q 422 -472 436.5 -447.5 Q 451 -423 458 -395.5 Q 465 -368 465 -340 Q 465 -312 458 -284.5 Q 451 -257 436.5 -232.5 Q 422 -208 402 -188 Q 382 -168 357.5 -153.5 Q 333 -139 305.5 -132 Q 278 -125 250 -125 Z M 377 -258 Q 388 -276 393.5 -297 Q 399 -318 399 -340 Q 399 -370 388 -398.5 Q 377 -427 356.5 -449 Q 336 -471 308 -483.5 Q 280 -496 250 -496 Q 228 -496 206 -489 Q 184 -482 166 -469 Z M 250 -184 Q 272 -184 294 -191 Q 316 -198 334 -211 L 123 -422 Q 112 -404 106.5 -383 Q 101 -362 101 -340 Q 101 -310 112 -281.5 Q 123 -253 143.5 -231 Q 164 -209 192 -196.5 Q 220 -184 250 -184 Z " id="path41"/>
<path d="M 250 -125 Q 222 -125 194.5 -132 Q 167 -139 142.5 -153.5 Q 118 -168 98 -188 Q 78 -208 63.5 -232.5 Q 49 -257 42 -284.5 Q 35 -312 35 -340 Q 35 -368 42 -395.5 Q 49 -423 63.5 -447.5 Q 78 -472 98 -492 Q 118 -512 142.5 -526.5 Q 167 -541 194.5 -548 Q 222 -555 250 -555 Q 278 -555 305.5 -548 Q 333 -541 357.5 -526.5 Q 382 -512 402 -492 Q 422 -472 436.5 -447.5 Q 451 -423 458 -395.5 Q 465 -368 465 -340 Q 465 -312 458 -284.5 Q 451 -257 436.5 -232.5 Q 422 -208 402 -188 Q 382 -168 357.5 -153.5 Q 333 -139 305.5 -132 Q 278 -125 250 -125 Z M 111 -285 L 111 -301 L 224 -301 L 224 -493 Q 198 -489 174.5 -474.5 Q 151 -460 134.5 -439 Q 118 -418 109.5 -392.5 Q 101 -367 101 -340 Q 101 -326 103.5 -312 Q 106 -298 111 -285 Z M 390 -285 Q 394 -298 396.5 -312 Q 399 -326 399 -340 Q 399 -367 390.5 -392.5 Q 382 -418 365.5 -439 Q 349 -460 325.5 -474.5 Q 302 -489 276 -493 L 276 -301 L 390 -301 Z M 250 -184 Q 269 -184 287 -189 Q 305 -194 321.5 -203.5 Q 338 -213 351.5 -226 Q 365 -239 375 -255 L 125 -255 Q 135 -239 148.5 -226 Q 162 -213 178.5 -203.5 Q 195 -194 213 -189 Q 231 -184 250 -184 Z " id="path42"/>
<path d="M 250 -125 Q 222 -125 194.5 -132 Q 167 -139 142.5 -153.5 Q 118 -168 98 -188 Q 78 -208 63.5 -232.5 Q 49 -257 42 -284.5 Q 35 -312 35 -340 Q 35 -368 42 -395.5 Q 49 -423 63.5 -447.5 Q 78 -472 98 -492 Q 118 -512 142.5 -526.5 Q 167 -541 194.5 -548 Q 222 -555 250 -555 Q 278 -555 305.5 -548 Q 333 -541 357.5 -526.5 Q 382 -512 402 -492 Q 422 -472 436.5 -447.5 Q 451 -423 458 -395.5 Q 465 -368 465 -340 Q 465 -312 458 -284.5 Q 451 -257 436.5 -232.5 Q 422 -208 402 -188 Q 382 -168 357.5 -153.5 Q 333 -139 305.5 -132 Q 278 -125 250 -125 Z M 104 -370 L 217 -370 L 217 -492 Q 195 -487 176 -475.5 Q 157 -464 142 -447.5 Q 127 -431 117.5 -411 Q 108 -391 104 -370 Z M 283 -370 L 396 -370 Q 392 -391 382.5 -411 Q 373 -431 358 -447.5 Q 343 -464 324 -475.5 Q 305 -487 283 -492 Z M 250 -184 Q 276 -184 301 -193.5 Q 326 -203 346 -220.5 Q 366 -238 379 -261 Q 392 -284 396 -310 L 104 -310 Q 108 -284 121 -261 Q 134 -238 154 -220.5 Q 174 -203 199 -193.5 Q 224 -184 250 -184 Z " id="path43"/>
<path d="M 71 -117 L 25 -159 L 77 -212 Q 57 -239 46 -272.5 Q 35 -306 35 -340 Q 35 -374 46 -407.5 Q 57 -441 77 -468 L 25 -521 L 71 -563 L 122 -513 Q 149 -533 182.5 -544 Q 216 -555 250 -555 Q 284 -555 317.5 -544 Q 351 -533 378 -513 L 429 -563 L 475 -521 L 423 -468 Q 443 -441 454 -407.5 Q 465 -374 465 -340 Q 465 -306 454 -272.5 Q 443 -239 423 -212 L 475 -159 L 429 -117 L 378 -167 Q 351 -147 317.5 -136 Q 284 -125 250 -125 Q 216 -125 182.5 -136 Q 149 -147 122 -167 Z M 250 -384 L 334 -469 Q 316 -482 294 -489 Q 272 -496 250 -496 Q 228 -496 206 -489 Q 184 -482 166 -469 Z M 123 -258 L 206 -340 L 123 -422 Q 112 -404 106.5 -383 Q 101 -362 101 -340 Q 101 -318 106.5 -297 Q 112 -276 123 -258 Z M 377 -258 Q 388 -276 393.5 -297 Q 399 -318 399 -340 Q 399 -362 393.5 -383 Q 388 -404 377 -422 L 294 -340 Z M 250 -184 Q 272 -184 294 -191 Q 316 -198 334 -211 L 250 -296 L 166 -211 Q 184 -198 206 -191 Q 228 -184 250 -184 Z " id="path44"/>
<path d="M 250 -125 Q 222 -125 194.5 -132 Q 167 -139 142.5 -153.5 Q 118 -168 98 -188 Q 78 -208 63.5 -232.5 Q 49 -257 42 -284.5 Q 35 -312 35 -340 Q 35 -368 42 -395.5 Q 49 -423 63.5 -447.5 Q 78 -472 98 -492 Q 118 -512 142.5 -526.5 Q 167 -541 194.5 -548 Q 222 -555 250 -555 Q 278 -555 305.5 -548 Q 333 -541 357.5 -526.5 Q 382 -512 402 -492 Q 422 -472 436.5 -447.5 Q 451 -423 458 -395.5 Q 465 -368 465 -340 Q 465 -312 458 -284.5 Q 451 -257 436.5 -232.5 Q 422 -208 402 -188 Q 382 -168 357.5 -153.5 Q 333 -139 305.5 -132 Q 278 -125 250 -125 Z M 123 -258 L 334 -469 Q 316 -482 294 -489 Q 272 -496 250 -496 Q 220 -496 192 -483.5 Q 164 -471 143.5 -449 Q 123 -427 112 -398.5 Q 101 -370 101 -340 Q 101 -318 106.5 -297 Q 112 -276 123 -258 Z M 185 -364 Q 176 -364 167.5 -366.5 Q 159 -369 153 -375.5 Q 147 -382 144 -390.5 Q 141 -399 141 -408 Q 141 -416 144 -425 Q 147 -434 153 -440 Q 159 -446 167.5 -448.5 Q 176 -451 185 -451 Q 194 -451 202.5 -448.5 Q 211 -446 217 -440 Q 223 -434 225.5 -425 Q 228 -416 228 -408 Q 228 -399 225.5 -390.5 Q 223 -382 217 -375.5 Q 211 -369 202.5 -366.5 Q 194 -364 185 -364 Z M 250 -184 Q 280 -184 308 -196.5 Q 336 -209 356.5 -231 Q 377 -253 388 -281.5 Q 399 -310 399 -340 Q 399 -362 393.5 -383 Q 388 -404 377 -422 L 166 -211 Q 184 -198 206 -191 Q 228 -184 250 -184 Z M 315 -229 Q 306 -229 297.5 -231.5 Q 289 -234 283 -240 Q 277 -246 274.5 -255 Q 272 -264 272 -272 Q 272 -281 274.5 -289.5 Q 277 -298 283 -304.5 Q 289 -311 297.5 -313.5 Q 306 -316 315 -316 Q 324 -316 332.5 -313.5 Q 341 -311 347 -304.5 Q 353 -298 356 -289.5 Q 359 -281 359 -272 Q 359 -264 356 -255 Q 353 -246 347 -240 Q 341 -234 332.5 -231.5 Q 324 -229 315 -229 Z " id="path45"/>
<path d="M 220 110 L 220 -127 Q 182 -132 147.5 -151 Q 113 -170 87.5 -199 Q 62 -228 48.5 -264.5 Q 35 -301 35 -340 Q 35 -379 48.5 -415.5 Q 62 -452 87.5 -481 Q 113 -510 147.5 -529 Q 182 -548 220 -553 L 220 -705 L 103 -578 L 64 -620 L 250 -806 L 436 -620 L 397 -578 L 280 -705 L 280 -553 Q 318 -548 352.5 -529 Q 387 -510 412.5 -481 Q 438 -452 451.5 -415.5 Q 465 -379 465 -340 Q 465 -301 451.5 -264.5 Q 438 -228 412.5 -199 Q 387 -170 352.5 -151 Q 318 -132 280 -127 L 280 110 Z M 220 -187 L 220 -493 Q 195 -487 172.5 -472.5 Q 150 -458 134 -437.5 Q 118 -417 109.5 -391.5 Q 101 -366 101 -340 Q 101 -314 109.5 -288.5 Q 118 -263 134 -242.5 Q 150 -222 172.5 -207.5 Q 195 -193 220 -187 Z M 280 -187 Q 305 -193 327.5 -207.5 Q 350 -222 366 -242.5 Q 382 -263 390.5 -288.5 Q 399 -314 399 -340 Q 399 -366 390.5 -391.5 Q 382 -417 366 -437.5 Q 350 -458 327.5 -472.5 Q 305 -487 280 -493 Z " id="path46"/>
<path d="M 250 -125 Q 222 -125 194.5 -132 Q 167 -139 142.5 -153.5 Q 118 -168 98 -188 Q 78 -208 63.5 -232.5 Q 49 -257 42 -284.5 Q 35 -312 35 -340 Q 35 -368 42 -395.5 Q 49 -423 63.5 -447.5 Q 78 -472 98 -492 Q 118 -512 142.5 -526.5 Q 167 -541 194.5 -548 Q 222 -555 250 -555 Q 278 -555 305.5 -548 Q 333 -541 357.5 -526.5 Q 382 -512 402 -492 Q 422 -472 436.5 -447.5 Q 451 -423 458 -395.5 Q 465 -368 465 -340 Q 465 -312 458 -284.5 Q 451 -257 436.5 -232.5 Q 422 -208 402 -188 Q 382 -168 357.5 -153.5 Q 333 -139 305.5 -132 Q 278 -125 250 -125 Z M 250 -184 Q 280 -184 308 -196.5 Q 336 -209 356.5 -231 Q 377 -253 388 -281.5 Q 399 -310 399 -340 Q 399 -370 388 -398.5 Q 377 -427 356.5 -449 Q 336 -471 308 -483.5 Q 280 -496 250 -496 Q 220 -496 192 -483.5 Q 164 -471 143.5 -449 Q 123 -427 112 -398.5 Q 101 -370 101 -340 Q 101 -310 112 -281.5 Q 123 -253 143.5 -231 Q 164 -209 192 -196.5 Q 220 -184 250 -184 Z M 250 -265 Q 235 -265 221 -271 Q 207 -277 197 -287 Q 187 -297 181 -311 Q 175 -325 175 -340 Q 175 -355 181 -369 Q 187 -383 197 -393 Q 207 -403 221 -409 Q 235 -415 250 -415 Q 265 -415 279 -409 Q 293 -403 303 -393 Q 313 -383 319 -369 Q 325 -355 325 -340 Q 325 -325 319 -311 Q 313 -297 303 -287 Q 293 -277 279 -271 Q 265 -265 250 -265 Z M 250 -309 Q 256 -309 262 -311.5 Q 268 -314 272 -318 Q 276 -322 278.5 -328 Q 281 -334 281 -340 Q 281 -346 278.5 -352 Q 276 -358 272 -362 Q 268 -366 262 -368.5 Q 256 -371 250 -371 Q 244 -371 238 -368.5 Q 232 -366 228 -362 Q 224 -358 221.5 -352 Q 219 -346 219 -340 Q 219 -334 221.5 -328 Q 224 -322 228 -318 Q 232 -314 238 -311.5 Q 244 -309 250 -309 Z " id="path47"/>
<path d="M 250 -125 Q 222 -125 194.5 -132 Q 167 -139 142.5 -153.5 Q 118 -168 98 -188 Q 78 -208 63.5 -232.5 Q 49 -257 42 -284.5 Q 35 -312 35 -340 Q 35 -368 42 -395.5 Q 49 -423 63.5 -447.5 Q 78 -472 98 -492 Q 118 -512 142.5 -526.5 Q 167 -541 194.5 -548 Q 222 -555 250 -555 Q 278 -555 305.5 -548 Q 333 -541 357.5 -526.5 Q 382 -512 402 -492 Q 422 -472 436.5 -447.5 Q 451 -423 458 -395.5 Q 465 -368 465 -340 Q 465 -312 458 -284.5 Q 451 -257 436.5 -232.5 Q 422 -208 402 -188 Q 382 -168 357.5 -153.5 Q 333 -139 305.5 -132 Q 278 -125 250 -125 Z M 250 -184 Q 280 -184 308 -196.5 Q 336 -209 356.5 -231 Q 377 -253 388 -281.5 Q 399 -310 399 -340 Q 399 -370 388 -398.5 Q 377 -427 356.5 -449 Q 336 -471 308 -483.5 Q 280 -496 250 -496 Q 220 -496 192 -483.5 Q 164 -471 143.5 -449 Q 123 -427 112 -398.5 Q 101 -370 101 -340 Q 101 -310 112 -281.5 Q 123 -253 143.5 -231 Q 164 -209 192 -196.5 Q 220 -184 250 -184 Z M 250 -265 Q 235 -265 221 -271 Q 207 -277 197 -287 Q 187 -297 181 -311 Q 175 -325 175 -340 Q 175 -355 181 -369 Q 187 -383 197 -393 Q 207 -403 221 -409 Q 235 -415 250 -415 Q 265 -415 279 -409 Q 293 -403 303 -393 Q 313 -383 319 -369 Q 325 -355 325 -340 Q 325 -325 319 -311 Q 313 -297 303 -287 Q 293 -277 279 -271 Q 265 -265 250 -265 Z " id="path48"/>
<path d="M 43 -133 L 43 -547 L 457 -547 L 457 -133 Z M 109 -243 L 353 -488 L 109 -488 Z M 147 -192 L 391 -192 L 391 -437 Z " id="path49"/>
<path d="M 43 -133 L 43 -547 L 457 -547 L 457 -133 Z M 391 -243 L 391 -488 L 147 -488 Z M 109 -192 L 353 -192 L 109 -437 Z " id="path50"/>
<path d="M 43 -133 L 43 -547 L 457 -547 L 457 -133 Z M 222 -375 L 219 -488 L 109 -488 L 109 -416 Z M 278 -375 L 391 -416 L 391 -488 L 281 -488 Z M 109 -199 L 208 -327 L 109 -356 Z M 391 -199 L 391 -356 L 292 -327 Z M 180 -192 L 320 -192 L 250 -295 Z " id="path51"/>
<path d="M 43 -133 L 43 -547 L 457 -547 L 457 -133 Z M 109 -192 L 391 -192 L 391 -488 L 109 -488 Z M 250 -265 Q 235 -265 221 -271 Q 207 -277 197 -287 Q 187 -297 181 -311 Q 175 -325 175 -340 Q 175 -355 181 -369 Q 187 -383 197 -393 Q 207 -403 221 -409 Q 235 -415 250 -415 Q 265 -415 279 -409 Q 293 -403 303 -393 Q 313 -383 319 -369 Q 325 -355 325 -340 Q 325 -325 319 -311 Q 313 -297 303 -287 Q 293 -277 279 -271 Q 265 -265 250 -265 Z M 250 -309 Q 256 -309 262 -311.5 Q 268 -314 272 -318 Q 276 -322 278.5 -328 Q 281 -334 281 -340 Q 281 -346 278.5 -352 Q 276 -358 272 -362 Q 268 -366 262 -368.5 Q 256 -371 250 -371 Q 244 -371 238 -368.5 Q 232 -366 228 -362 Q 224 -358 221.5 -352 Q 219 -346 219 -340 Q 219 -334 221.5 -328 Q 224 -322 228 -318 Q 232 -314 238 -311.5 Q 244 -309 250 -309 Z " id="path52"/>
<path d="M 43 -133 L 43 -547 L 457 -547 L 457 -133 Z M 109 -192 L 391 -192 L 391 -488 L 109 -488 Z M 175 -265 L 175 -415 L 325 -415 L 325 -265 Z M 219 -309 L 281 -309 L 281 -371 L 219 -371 Z " id="path53"/>
<path d="M 344 9 L 344 -184 L 151 -184 L 151 -689 L 656 -689 L 656 -496 L 849 -496 L 849 9 Z M 211 -244 L 344 -244 L 344 -496 L 596 -496 L 596 -629 L 211 -629 Z M 789 -51 L 789 -436 L 656 -436 L 656 -184 L 404 -184 L 404 -51 Z M 404 -244 L 596 -244 L 596 -436 L 404 -436 Z " id="path54"/>
<path d="M 500 -749 Q 487 -749 475 -752.5 Q 463 -756 454 -765 Q 445 -774 441.5 -786 Q 438 -798 438 -811 Q 438 -824 441.5 -836 Q 445 -848 454 -857 Q 463 -866 475 -870 Q 487 -874 500 -874 Q 513 -874 525 -870 Q 537 -866 546 -857 Q 555 -848 559 -836 Q 563 -824 563 -811 Q 563 -798 559 -786 Q 555 -774 546 -765 Q 537 -756 525 -752.5 Q 513 -749 500 -749 Z M 110 -19 L 500 -661 L 890 -19 Z M 216 -78 L 784 -78 L 500 -546 Z " id="path55"/>
<path d="M 110 -19 L 500 -661 L 890 -19 Z M 216 -78 L 784 -78 L 500 -546 Z M 890 121 L 110 121 L 110 61 L 890 61 Z " id="path56"/>
<path d="M 982 -19 L 18 -19 L 18 -78 L 144 -78 L 144 -73 L 500 -661 L 856 -73 L 856 -78 L 982 -78 Z M 216 -78 L 784 -78 L 500 -546 Z " id="path57"/>
<path d="M 64 -285 L 64 -687 L 436 -520 L 436 -451 Z M 133 -385 L 359 -486 L 133 -587 Z M 436 7 L 64 -160 L 64 -229 L 436 -395 Z M 367 -93 L 367 -295 L 141 -194 Z " id="path58"/>
<path d="M 71 -117 L 48 -138 L 48 -542 L 71 -563 L 250 -383 L 429 -563 L 452 -542 L 452 -138 L 429 -117 L 303 -243 L 294 -253 L 250 -297 Z M 391 -243 L 391 -437 L 293 -340 Z " id="path59"/>
<path d="M 71 -117 L 48 -138 L 48 -542 L 71 -563 L 250 -383 L 429 -563 L 452 -542 L 452 -138 L 429 -117 L 303 -243 L 294 -253 L 250 -297 Z M 109 -243 L 207 -340 L 109 -437 Z " id="path60"/>
<path d="M 71 -117 L 48 -138 L 48 -542 L 71 -563 L 250 -383 L 429 -563 L 452 -542 L 452 -138 L 429 -117 L 303 -243 L 294 -253 L 250 -297 Z " id="path61"/>
<path d="M 71 -117 L 48 -138 L 48 -542 L 71 -563 L 250 -383 L 429 -563 L 475 -521 L 293 -340 L 475 -159 L 429 -117 L 303 -243 L 294 -253 L 250 -297 Z " id="path62"/>
<path d="M 71 -117 L 25 -159 L 207 -340 L 25 -521 L 71 -563 L 250 -383 L 429 -563 L 452 -542 L 452 -138 L 429 -117 L 303 -243 L 294 -253 L 250 -297 Z " id="path63"/>
<path d="M 452 -17 L 48 -17 L 21 -32 L 213 -340 L 21 -648 L 48 -663 L 452 -663 L 479 -648 L 287 -340 L 479 -32 Z M 250 -399 L 380 -608 L 120 -608 Z M 380 -72 L 250 -281 L 120 -72 Z " id="path64"/>
<path d="M 452 -17 L 48 -17 L 21 -32 L 213 -340 L 21 -648 L 48 -663 L 452 -663 L 479 -648 L 287 -340 L 479 -32 Z " id="path65"/>
<path d="M 244 143 L 152 143 L 256 46 L 152 -50 L 256 -147 L 152 -243 L 256 -340 L 152 -437 L 256 -533 L 152 -630 L 256 -726 L 152 -823 L 244 -823 L 348 -726 L 244 -630 L 348 -533 L 244 -437 L 348 -340 L 244 -243 L 348 -147 L 244 -50 L 348 46 Z " id="path66"/>
<path d="M 256 143 L 152 46 L 256 -50 L 152 -147 L 256 -243 L 152 -340 L 256 -437 L 152 -533 L 256 -630 L 152 -726 L 256 -823 L 348 -823 L 244 -726 L 348 -630 L 244 -533 L 348 -437 L 244 -340 L 348 -243 L 244 -147 L 348 -50 L 244 46 L 348 143 Z " id="path67"/>
<path d="M 338 143 L 246 143 L 350 46 L 246 -50 L 350 -147 L 246 -243 L 350 -340 L 246 -437 L 350 -533 L 246 -630 L 350 -726 L 246 -823 L 338 -823 L 442 -726 L 338 -630 L 442 -533 L 338 -437 L 442 -340 L 338 -243 L 442 -147 L 338 -50 L 442 46 Z M 150 143 L 58 143 L 162 46 L 58 -50 L 162 -147 L 58 -243 L 162 -340 L 58 -437 L 162 -533 L 58 -630 L 162 -726 L 58 -823 L 150 -823 L 254 -726 L 150 -630 L 254 -533 L 150 -437 L 254 -340 L 150 -243 L 254 -147 L 150 -50 L 254 46 Z " id="path68"/>
<path d="M 350 143 L 246 46 L 350 -50 L 246 -147 L 350 -243 L 246 -340 L 350 -437 L 246 -533 L 350 -630 L 246 -726 L 350 -823 L 442 -823 L 338 -726 L 442 -630 L 338 -533 L 442 -437 L 338 -340 L 442 -243 L 338 -147 L 442 -50 L 338 46 L 442 143 Z M 162 143 L 58 46 L 162 -50 L 58 -147 L 162 -243 L 58 -340 L 162 -437 L 58 -533 L 162 -630 L 58 -726 L 162 -823 L 254 -823 L 150 -726 L 254 -630 L 150 -533 L 254 -437 L 150 -340 L 254 -243 L 150 -147 L 254 -50 L 150 46 L 254 143 Z " id="path69"/>
<path d="M 144 -252 Q 126 -252 109 -257.5 Q 92 -263 79.5 -275.5 Q 67 -288 61.5 -305 Q 56 -322 56 -340 Q 56 -358 61.5 -375 Q 67 -392 79.5 -404.5 Q 92 -417 109 -422.5 Q 126 -428 144 -428 Q 157 -428 170.5 -425 Q 184 -422 195.5 -415 Q 207 -408 215.5 -397 Q 224 -386 228 -373 L 272 -373 Q 276 -386 284.5 -397 Q 293 -408 304.5 -415 Q 316 -422 329.5 -425 Q 343 -428 356 -428 Q 374 -428 391 -422.5 Q 408 -417 420.5 -404.5 Q 433 -392 438.5 -375 Q 444 -358 444 -340 Q 444 -322 438.5 -305 Q 433 -288 420.5 -275.5 Q 408 -263 391 -257.5 Q 374 -252 356 -252 Q 343 -252 329.5 -255 Q 316 -258 304.5 -265 Q 293 -272 284.5 -283 Q 276 -294 272 -307 L 228 -307 Q 224 -294 215.5 -283 Q 207 -272 195.5 -265 Q 184 -258 170.5 -255 Q 157 -252 144 -252 Z M 144 -301 Q 151 -301 158 -303.5 Q 165 -306 170 -312 Q 175 -318 176.5 -325.5 Q 178 -333 178 -340 Q 178 -347 176.5 -354.5 Q 175 -362 170 -368 Q 165 -374 158 -376.5 Q 151 -379 144 -379 Q 137 -379 130 -376.5 Q 123 -374 118 -368 Q 113 -362 111.5 -354.5 Q 110 -347 110 -340 Q 110 -333 111.5 -325.5 Q 113 -318 118 -312 Q 123 -306 130 -303.5 Q 137 -301 144 -301 Z M 356 -301 Q 363 -301 370 -303.5 Q 377 -306 382 -312 Q 387 -318 388.5 -325.5 Q 390 -333 390 -340 Q 390 -347 388.5 -354.5 Q 387 -362 382 -368 Q 377 -374 370 -376.5 Q 363 -379 356 -379 Q 349 -379 342 -376.5 Q 335 -374 330 -368 Q 325 -362 323.5 -354.5 Q 322 -347 322 -340 Q 322 -333 323.5 -325.5 Q 325 -318 330 -312 Q 335 -306 342 -303.5 Q 349 -301 356 -301 Z " id="path70"/>
<path d="M 51 -42 L 51 -638 L 119 -638 L 119 -109 L 216 -109 L 216 -638 L 284 -638 L 284 -109 L 381 -109 L 381 -638 L 449 -638 L 449 -42 Z " id="path71"/>
<path d="M 213 -42 L 135 -42 L 223 -217 L 152 -217 L 63 -42 L -15 -42 L 73 -217 L 32 -217 L 32 -284 L 107 -284 L 164 -396 L 32 -396 L 32 -463 L 198 -463 L 287 -638 L 365 -638 L 277 -463 L 348 -463 L 437 -638 L 515 -638 L 427 -463 L 468 -463 L 468 -396 L 393 -396 L 336 -284 L 468 -284 L 468 -217 L 302 -217 Z M 186 -284 L 257 -284 L 314 -396 L 243 -396 Z " id="path72"/>
<path d="M 213 -42 L 135 -42 L 223 -217 L 152 -217 L 63 -42 L -15 -42 L 73 -217 L 32 -217 L 32 -284 L 107 -284 L 164 -396 L 32 -396 L 32 -463 L 198 -463 L 287 -638 L 365 -638 L 277 -463 L 348 -463 L 437 -638 L 515 -638 L 427 -463 L 468 -463 L 468 -396 L 393 -396 L 336 -284 L 468 -284 L 468 -217 L 302 -217 Z M 186 -284 L 257 -284 L 314 -396 L 243 -396 Z M 308 -715 Q 303 -715 298 -716 Q 293 -717 288.5 -718.5 Q 284 -720 279.5 -721.5 Q 275 -723 270.5 -726 Q 266 -729 262 -731.5 Q 258 -734 255 -737.5 Q 252 -741 248 -744.5 Q 244 -748 240.5 -752 Q 237 -756 234 -759.5 Q 231 -763 228.5 -767 Q 226 -771 223 -775 Q 220 -779 216.5 -783.5 Q 213 -788 210 -792 Q 207 -796 204 -799.5 Q 201 -803 196 -806.5 Q 191 -810 191 -812 L 193 -812 Q 193 -811 189.5 -809 Q 186 -807 183.5 -804 Q 181 -801 178.5 -798.5 Q 176 -796 174.5 -794 Q 173 -792 171.5 -790 Q 170 -788 168.5 -786 Q 167 -784 165.5 -781.5 Q 164 -779 162.5 -776 Q 161 -773 159 -770.5 Q 157 -768 155.5 -764.5 Q 154 -761 152 -758 Q 150 -755 148 -751.5 Q 146 -748 144 -744 Q 142 -740 140 -736 Q 138 -732 136 -727.5 Q 134 -723 132 -719 L 68 -746 Q 77 -764 85 -779 Q 93 -794 101 -806.5 Q 109 -819 117 -829.5 Q 125 -840 136.5 -850.5 Q 148 -861 162 -868 Q 176 -875 192 -875 Q 197 -875 202 -874 Q 207 -873 211.5 -872 Q 216 -871 220.5 -869 Q 225 -867 229.5 -864.5 Q 234 -862 238 -859 Q 242 -856 245 -853 Q 248 -850 252 -846 Q 256 -842 259.5 -838 Q 263 -834 266 -830.5 Q 269 -827 271.5 -823 Q 274 -819 277 -815 Q 280 -811 283.5 -806.5 Q 287 -802 290 -798 Q 293 -794 296 -790.5 Q 299 -787 304 -783.5 Q 309 -780 309 -779 L 307 -779 L 311 -781 Q 314 -783 316.5 -786 Q 319 -789 321.5 -792 Q 324 -795 325.5 -796.5 Q 327 -798 328.5 -800 Q 330 -802 331.5 -804.5 Q 333 -807 334.5 -809.5 Q 336 -812 337.5 -814.5 Q 339 -817 341 -820 Q 343 -823 344.5 -826 Q 346 -829 348 -832.5 Q 350 -836 352 -839.5 Q 354 -843 356 -846.5 Q 358 -850 360 -854 Q 362 -858 364 -862.5 Q 366 -867 368 -871 L 432 -845 Q 423 -826 415 -811 Q 407 -796 399 -783.5 Q 391 -771 383 -760.5 Q 375 -750 363.5 -739.5 Q 352 -729 338 -722 Q 324 -715 308 -715 Z " id="path73"/>
<path d="M 213 -42 L 135 -42 L 201 -173 L 130 -173 L 63 -42 L -15 -42 L 51 -173 L 32 -173 L 32 -239 L 84 -239 L 119 -307 L 32 -307 L 32 -373 L 152 -373 L 187 -441 L 32 -441 L 32 -507 L 220 -507 L 287 -638 L 365 -638 L 299 -507 L 370 -507 L 437 -638 L 515 -638 L 449 -507 L 468 -507 L 468 -441 L 416 -441 L 381 -373 L 468 -373 L 468 -307 L 348 -307 L 313 -239 L 468 -239 L 468 -173 L 280 -173 Z M 302 -373 L 337 -441 L 266 -441 L 231 -373 Z M 163 -239 L 234 -239 L 269 -307 L 198 -307 Z " id="path74"/>
<path d="M 436 -42 L 362 -42 L 362 -208 L 138 -208 L 138 -42 L 64 -42 L 64 -638 L 138 -638 L 138 -472 L 362 -472 L 362 -638 L 436 -638 Z M 138 -274 L 362 -274 L 362 -406 L 138 -406 Z " id="path75"/>
<path d="M 64 -396 L 64 -463 L 436 -463 L 436 -396 Z M 436 -217 L 64 -217 L 64 -284 L 436 -284 Z M 287 -42 L 213 -42 L 213 -638 L 287 -638 Z " id="path76"/>
<path d="M 500 -19 Q 462 -82 423.5 -145 Q 385 -208 347 -271 L 275 -390 L 110 -661 L 890 -661 L 688 -330 Z M 500 -134 L 784 -602 L 500 -602 Z " id="path77"/>
<path d="M 500 -19 L 110 -661 L 890 -661 Z M 500 -134 L 500 -602 L 216 -602 Z " id="path78"/>
<path d="M 500 -19 L 286 -340 L 500 -661 L 714 -340 Z " id="path79"/>
<path d="M 91 -473 Q 78 -473 64.5 -477 Q 51 -481 41.5 -491 Q 32 -501 28 -514 Q 24 -527 24 -541 Q 24 -554 28 -567.5 Q 32 -581 41.5 -590.5 Q 51 -600 64.5 -604 Q 78 -608 91 -608 Q 105 -608 118 -604 Q 131 -600 141 -590.5 Q 151 -581 155 -567.5 Q 159 -554 159 -541 Q 159 -527 155 -514 Q 151 -501 141 -491 Q 131 -481 118 -477 Q 105 -473 91 -473 Z M 291 -147 L 277 -159 L 249 -185 L 379 -307 L 164 -307 L 164 -373 L 379 -373 L 249 -495 L 291 -533 L 484 -340 Z M 91 -72 Q 78 -72 64.5 -76 Q 51 -80 41.5 -89.5 Q 32 -99 28 -112.5 Q 24 -126 24 -139 Q 24 -153 28 -166 Q 32 -179 41.5 -189 Q 51 -199 64.5 -203 Q 78 -207 91 -207 Q 105 -207 118 -203 Q 131 -199 141 -189 Q 151 -179 155 -166 Q 159 -153 159 -139 Q 159 -126 155 -112.5 Q 151 -99 141 -89.5 Q 131 -80 118 -76 Q 105 -72 91 -72 Z " id="path80"/>
<path d="M 441 143 L 361 143 L 59 -823 L 139 -823 Z " id="path81"/>
<path d="M 350 -871 L 150 -871 L 150 -935 L 350 -935 Z M 139 143 L 59 143 L 361 -823 L 441 -823 Z " id="path82"/>
<path d="M 441 143 L 361 143 L 220 -309 L 64 -309 L 64 -371 L 200 -371 L 59 -823 L 139 -823 L 280 -371 L 436 -371 L 436 -309 L 300 -309 Z " id="path83"/>
<path d="M 59 285 L 361 -965 L 441 -965 L 139 285 Z " id="path84"/>
<path d="M 361 285 L 59 -965 L 139 -965 L 441 285 Z " id="path85"/>
<path d="M 361 -147 L 287 -147 L 287 -307 L 213 -307 L 213 -147 L 139 -147 L 139 -307 L 64 -307 L 64 -373 L 139 -373 L 139 -533 L 213 -533 L 213 -373 L 287 -373 L 287 -533 L 361 -533 L 361 -373 L 436 -373 L 436 -307 L 361 -307 Z " id="path86"/>
<path d="M 115 -147 L 115 -307 L 64 -307 L 64 -373 L 115 -373 L 115 -533 L 181 -533 L 181 -373 L 217 -373 L 217 -533 L 283 -533 L 283 -373 L 319 -373 L 319 -533 L 385 -533 L 385 -373 L 436 -373 L 436 -307 L 385 -307 L 385 -147 L 319 -147 L 319 -307 L 283 -307 L 283 -147 L 217 -147 L 217 -307 L 181 -307 L 181 -147 Z " id="path87"/>
</defs>
<g>
<g data-source-text="0" fill="#dee4e3" transform="translate(174 41.292) rotate(0) scale(0.023999998)">
<use href="#path1" transform="translate(0 0)"/>
</g>
</g>
<g>
<g data-source-text="1" fill="#dee4e3" transform="translate(246 41.292) rotate(0) scale(0.023999998)">
<use href="#path2" transform="translate(0 0)"/>
</g>
</g>
<g>
<g data-source-text="2" fill="#dee4e3" transform="translate(318 41.292) rotate(0) scale(0.023999998)">
<use href="#path3" transform="translate(0 0)"/>
</g>
</g>
<g>
<g data-source-text="3" fill="#dee4e3" transform="translate(390 41.292) rotate(0) scale(0.023999998)">
<use href="#path4" transform="translate(0 0)"/>
</g>
</g>
<g>
<g data-source-text="4" fill="#dee4e3" transform="translate(462 41.292) rotate(0) scale(0.023999998)">
<use href="#path5" transform="translate(0 0)"/>
</g>
</g>
<g>
<g data-source-text="5" fill="#dee4e3" transform="translate(534 41.292) rotate(0) scale(0.023999998)">
<use href="#path6" transform="translate(0 0)"/>
</g>
</g>
<g>
<g data-source-text="6" fill="#dee4e3" transform="translate(606 41.292) rotate(0) scale(0.023999998)">
<use href="#path7" transform="translate(0 0)"/>
</g>
</g>
<g>
<g data-source-text="7" fill="#dee4e3" transform="translate(678 41.292) rotate(0) scale(0.023999998)">
<use href="#path8" transform="translate(0 0)"/>
</g>
</g>
<g>
<g data-source-text="8" fill="#dee4e3" transform="translate(750 41.292) rotate(0) scale(0.023999998)">
<use href="#path9" transform="translate(0 0)"/>
</g>
</g>
<g>
<g data-source-text="9" fill="#dee4e3" transform="translate(822 41.292) rotate(0) scale(0.023999998)">
<use href="#path10" transform="translate(0 0)"/>
</g>
</g>
<g>
<g data-source-text="A" fill="#dee4e3" transform="translate(894 41.292) rotate(0) scale(0.023999998)">
<use href="#path11" transform="translate(0 0)"/>
</g>
</g>
<g>
<g data-source-text="B" fill="#dee4e3" transform="translate(966 41.292) rotate(0) scale(0.023999998)">
<use href="#path12" transform="translate(0 0)"/>
</g>
</g>
<g>
<g data-source-text="C" fill="#dee4e3" transform="translate(1038 41.292) rotate(0) scale(0.023999998)">
<use href="#path13" transform="translate(0 0)"/>
</g>
</g>
<g>
<g data-source-text="D" fill="#dee4e3" transform="translate(1110 41.292) rotate(0) scale(0.023999998)">
<use href="#path14" transform="translate(0 0)"/>
</g>
</g>
<g>
<g data-source-text="E" fill="#dee4e3" transform="translate(1182 41.292) rotate(0) scale(0.023999998)">
<use href="#path15" transform="translate(0 0)"/>
</g>
</g>
<g>
<g data-source-text="F" fill="#dee4e3" transform="translate(1254 41.292) rotate(0) scale(0.023999998)">
<use href="#path16" transform="translate(0 0)"/>
</g>
</g>
<g>
<g data-source-text="U+2980" fill="#dee4e3" transform="translate(36 113.292) rotate(0) scale(0.023999998)">
<use href="#path17" transform="translate(0 0)"/>
<use href="#path18" transform="translate(500 0)"/>
<use href="#path3" transform="translate(1000 0)"/>
<use href="#path10" transform="translate(1500 0)"/>
<use href="#path9" transform="translate(2000 0)"/>
<use href="#path1" transform="translate(2500 0)"/>
</g>
</g>
<g>
<g data-source-text="" fill="#dee4e3" transform="translate(168 118.584) rotate(0) scale(0.047999997)">
<use href="#path19" transform="translate(0 0)"/>
</g>
</g>
<g>
<g data-source-text="" fill="#dee4e3" transform="translate(228 118.584) rotate(0) scale(0.047999997)">
<use href="#path20" transform="translate(0 0)"/>
</g>
</g>
<g>
<g data-source-text="" fill="#dee4e3" transform="translate(312 118.584) rotate(0) scale(0.047999997)">
<use href="#path21" transform="translate(0 0)"/>
</g>
</g>
<g>
<g data-source-text="" fill="#dee4e3" transform="translate(384 118.584) rotate(0) scale(0.047999997)">
<use href="#path22" transform="translate(0 0)"/>
</g>
</g>
<g>
<g data-source-text="" fill="#dee4e3" transform="translate(456 118.584) rotate(0) scale(0.047999997)">
<use href="#path23" transform="translate(0 0)"/>
</g>
</g>
<g>
<g data-source-text="" fill="#dee4e340" transform="translate(528 118.584) rotate(0) scale(0.047999997)">
<use href="#path24" transform="translate(0 0)"/>
</g>
</g>
<g>
<g data-source-text="" fill="#dee4e340" transform="translate(600 118.584) rotate(0) scale(0.047999997)">
<use href="#path24" transform="translate(0 0)"/>
</g>
</g>
<g>
<g data-source-text="" fill="#dee4e3" transform="translate(672 118.584) rotate(0) scale(0.047999997)">
<use href="#path25" transform="translate(0 0)"/>
</g>
</g>
<g>
<g data-source-text="" fill="#dee4e3" transform="translate(744 118.584) rotate(0) scale(0.047999997)">
<use href="#path26" transform="translate(0 0)"/>
</g>
</g>
<g>
<g data-source-text="" fill="#dee4e3" transform="translate(816 118.584) rotate(0) scale(0.047999997)">
<use href="#path27" transform="translate(0 0)"/>
</g>
</g>
<g>
<g data-source-text="" fill="#dee4e3" transform="translate(888 118.584) rotate(0) scale(0.047999997)">
<use href="#path28" transform="translate(0 0)"/>
</g>
</g>
<g>
<g data-source-text="" fill="#dee4e340" transform="translate(960 118.584) rotate(0) scale(0.047999997)">
<use href="#path24" transform="translate(0 0)"/>
</g>
</g>
<g>
<g data-source-text="" fill="#dee4e340" transform="translate(1032 118.584) rotate(0) scale(0.047999997)">
<use href="#path24" transform="translate(0 0)"/>
</g>
</g>
<g>
<g data-source-text="" fill="#dee4e340" transform="translate(1104 118.584) rotate(0) scale(0.047999997)">
<use href="#path24" transform="translate(0 0)"/>
</g>
</g>
<g>
<g data-source-text="" fill="#dee4e340" transform="translate(1176 118.584) rotate(0) scale(0.047999997)">
<use href="#path24" transform="translate(0 0)"/>
</g>
</g>
<g>
<g data-source-text="" fill="#dee4e340" transform="translate(1248 118.584) rotate(0) scale(0.047999997)">
<use href="#path24" transform="translate(0 0)"/>
</g>
</g>
<g>
<g data-source-text="U+2990" fill="#dee4e3" transform="translate(36 185.292) rotate(0) scale(0.023999998)">
<use href="#path17" transform="translate(0 0)"/>
<use href="#path18" transform="translate(500 0)"/>
<use href="#path3" transform="translate(1000 0)"/>
<use href="#path10" transform="translate(1500 0)"/>
<use href="#path10" transform="translate(2000 0)"/>
<use href="#path1" transform="translate(2500 0)"/>
</g>
</g>
<g>
<g data-source-text="" fill="#dee4e340" transform="translate(168 190.584) rotate(0) scale(0.047999997)">
<use href="#path24" transform="translate(0 0)"/>
</g>
</g>
<g>
<g data-source-text="" fill="#dee4e340" transform="translate(240 190.584) rotate(0) scale(0.047999997)">
<use href="#path24" transform="translate(0 0)"/>
</g>
</g>
<g>
<g data-source-text="" fill="#dee4e340" transform="translate(312 190.584) rotate(0) scale(0.047999997)">
<use href="#path24" transform="translate(0 0)"/>
</g>
</g>
<g>
<g data-source-text="" fill="#dee4e340" transform="translate(384 190.584) rotate(0) scale(0.047999997)">
<use href="#path24" transform="translate(0 0)"/>
</g>
</g>
<g>
<g data-source-text="" fill="#dee4e340" transform="translate(456 190.584) rotate(0) scale(0.047999997)">
<use href="#path24" transform="translate(0 0)"/>
</g>
</g>
<g>
<g data-source-text="" fill="#dee4e340" transform="translate(528 190.584) rotate(0) scale(0.047999997)">
<use href="#path24" transform="translate(0 0)"/>
</g>
</g>
<g>
<g data-source-text="" fill="#dee4e340" transform="translate(600 190.584) rotate(0) scale(0.047999997)">
<use href="#path24" transform="translate(0 0)"/>
</g>
</g>
<g>
<g data-source-text="" fill="#dee4e340" transform="translate(672 190.584) rotate(0) scale(0.047999997)">
<use href="#path24" transform="translate(0 0)"/>
</g>
</g>
<g>
<g data-source-text="" fill="#dee4e340" transform="translate(744 190.584) rotate(0) scale(0.047999997)">
<use href="#path24" transform="translate(0 0)"/>
</g>
</g>
<g>
<g data-source-text="" fill="#dee4e3" transform="translate(816 190.584) rotate(0) scale(0.047999997)">
<use href="#path29" transform="translate(0 0)"/>
</g>
</g>
<g>
<g data-source-text="" fill="#dee4e3" transform="translate(888 190.584) rotate(0) scale(0.047999997)">
<use href="#path30" transform="translate(0 0)"/>
</g>
</g>
<g>
<g data-source-text="" fill="#dee4e340" transform="translate(960 190.584) rotate(0) scale(0.047999997)">
<use href="#path24" transform="translate(0 0)"/>
</g>
</g>
<g>
<g data-source-text="" fill="#dee4e340" transform="translate(1032 190.584) rotate(0) scale(0.047999997)">
<use href="#path24" transform="translate(0 0)"/>
</g>
</g>
<g>
<g data-source-text="" fill="#dee4e340" transform="translate(1104 190.584) rotate(0) scale(0.047999997)">
<use href="#path24" transform="translate(0 0)"/>
</g>
</g>
<g>
<g data-source-text="" fill="#dee4e340" transform="translate(1176 190.584) rotate(0) scale(0.047999997)">
<use href="#path24" transform="translate(0 0)"/>
</g>
</g>
<g>
<g data-source-text="" fill="#dee4e340" transform="translate(1248 190.584) rotate(0) scale(0.047999997)">
<use href="#path24" transform="translate(0 0)"/>
</g>
</g>
<g>
<g data-source-text="U+29A0" fill="#dee4e3" transform="translate(36 257.292) rotate(0) scale(0.023999998)">
<use href="#path17" transform="translate(0 0)"/>
<use href="#path18" transform="translate(500 0)"/>
<use href="#path3" transform="translate(1000 0)"/>
<use href="#path10" transform="translate(1500 0)"/>
<use href="#path11" transform="translate(2000 0)"/>
<use href="#path1" transform="translate(2500 0)"/>
</g>
</g>
<g>
<g data-source-text="" fill="#dee4e340" transform="translate(168 262.584) rotate(0) scale(0.047999997)">
<use href="#path24" transform="translate(0 0)"/>
</g>
</g>
<g>
<g data-source-text="" fill="#dee4e340" transform="translate(240 262.584) rotate(0) scale(0.047999997)">
<use href="#path24" transform="translate(0 0)"/>
</g>
</g>
<g>
<g data-source-text="" fill="#dee4e3" transform="translate(312 262.584) rotate(0) scale(0.047999997)">
<use href="#path31" transform="translate(0 0)"/>
</g>
</g>
<g>
<g data-source-text="" fill="#dee4e3" transform="translate(384 262.584) rotate(0) scale(0.047999997)">
<use href="#path32" transform="translate(0 0)"/>
</g>
</g>
<g>
<g data-source-text="" fill="#dee4e340" transform="translate(456 262.584) rotate(0) scale(0.047999997)">
<use href="#path24" transform="translate(0 0)"/>
</g>
</g>
<g>
<g data-source-text="" fill="#dee4e340" transform="translate(528 262.584) rotate(0) scale(0.047999997)">
<use href="#path24" transform="translate(0 0)"/>
</g>
</g>
<g>
<g data-source-text="" fill="#dee4e340" transform="translate(600 262.584) rotate(0) scale(0.047999997)">
<use href="#path24" transform="translate(0 0)"/>
</g>
</g>
<g>
<g data-source-text="" fill="#dee4e340" transform="translate(672 262.584) rotate(0) scale(0.047999997)">
<use href="#path24" transform="translate(0 0)"/>
</g>
</g>
<g>
<g data-source-text="" fill="#dee4e340" transform="translate(744 262.584) rotate(0) scale(0.047999997)">
<use href="#path24" transform="translate(0 0)"/>
</g>
</g>
<g>
<g data-source-text="" fill="#dee4e340" transform="translate(816 262.584) rotate(0) scale(0.047999997)">
<use href="#path24" transform="translate(0 0)"/>
</g>
</g>
<g>
<g data-source-text="" fill="#dee4e340" transform="translate(888 262.584) rotate(0) scale(0.047999997)">
<use href="#path24" transform="translate(0 0)"/>
</g>
</g>
<g>
<g data-source-text="" fill="#dee4e340" transform="translate(960 262.584) rotate(0) scale(0.047999997)">
<use href="#path24" transform="translate(0 0)"/>
</g>
</g>
<g>
<g data-source-text="" fill="#dee4e340" transform="translate(1032 262.584) rotate(0) scale(0.047999997)">
<use href="#path24" transform="translate(0 0)"/>
</g>
</g>
<g>
<g data-source-text="" fill="#dee4e340" transform="translate(1104 262.584) rotate(0) scale(0.047999997)">
<use href="#path24" transform="translate(0 0)"/>
</g>
</g>
<g>
<g data-source-text="" fill="#dee4e340" transform="translate(1176 262.584) rotate(0) scale(0.047999997)">
<use href="#path24" transform="translate(0 0)"/>
</g>
</g>
<g>
<g data-source-text="" fill="#dee4e340" transform="translate(1248 262.584) rotate(0) scale(0.047999997)">
<use href="#path24" transform="translate(0 0)"/>
</g>
</g>
<g>
<g data-source-text="U+29B0" fill="#dee4e3" transform="translate(36 329.292) rotate(0) scale(0.023999998)">
<use href="#path17" transform="translate(0 0)"/>
<use href="#path18" transform="translate(500 0)"/>
<use href="#path3" transform="translate(1000 0)"/>
<use href="#path10" transform="translate(1500 0)"/>
<use href="#path12" transform="translate(2000 0)"/>
<use href="#path1" transform="translate(2500 0)"/>
</g>
</g>
<g>
<g data-source-text="" fill="#dee4e3" transform="translate(168 334.584) rotate(0) scale(0.047999997)">
<use href="#path33" transform="translate(0 0)"/>
</g>
</g>
<g>
<g data-source-text="" fill="#dee4e3" transform="translate(240 334.584) rotate(0) scale(0.047999997)">
<use href="#path34" transform="translate(0 0)"/>
</g>
</g>
<g>
<g data-source-text="" fill="#dee4e3" transform="translate(312 334.584) rotate(0) scale(0.047999997)">
<use href="#path35" transform="translate(0 0)"/>
</g>
</g>
<g>
<g data-source-text="" fill="#dee4e3" transform="translate(384 334.584) rotate(0) scale(0.047999997)">
<use href="#path36" transform="translate(0 0)"/>
</g>
</g>
<g>
<g data-source-text="" fill="#dee4e3" transform="translate(456 334.584) rotate(0) scale(0.047999997)">
<use href="#path37" transform="translate(0 0)"/>
</g>
</g>
<g>
<g data-source-text="" fill="#dee4e3" transform="translate(528 334.584) rotate(0) scale(0.047999997)">
<use href="#path38" transform="translate(0 0)"/>
</g>
</g>
<g>
<g data-source-text="" fill="#dee4e3" transform="translate(600 334.584) rotate(0) scale(0.047999997)">
<use href="#path39" transform="translate(0 0)"/>
</g>
</g>
<g>
<g data-source-text="" fill="#dee4e3" transform="translate(672 334.584) rotate(0) scale(0.047999997)">
<use href="#path40" transform="translate(0 0)"/>
</g>
</g>
<g>
<g data-source-text="" fill="#dee4e3" transform="translate(744 334.584) rotate(0) scale(0.047999997)">
<use href="#path41" transform="translate(0 0)"/>
</g>
</g>
<g>
<g data-source-text="" fill="#dee4e3" transform="translate(816 334.584) rotate(0) scale(0.047999997)">
<use href="#path42" transform="translate(0 0)"/>
</g>
</g>
<g>
<g data-source-text="" fill="#dee4e3" transform="translate(888 334.584) rotate(0) scale(0.047999997)">
<use href="#path43" transform="translate(0 0)"/>
</g>
</g>
<g>
<g data-source-text="" fill="#dee4e3" transform="translate(960 334.584) rotate(0) scale(0.047999997)">
<use href="#path44" transform="translate(0 0)"/>
</g>
</g>
<g>
<g data-source-text="" fill="#dee4e3" transform="translate(1032 334.584) rotate(0) scale(0.047999997)">
<use href="#path45" transform="translate(0 0)"/>
</g>
</g>
<g>
<g data-source-text="" fill="#dee4e3" transform="translate(1104 334.584) rotate(0) scale(0.047999997)">
<use href="#path46" transform="translate(0 0)"/>
</g>
</g>
<g>
<g data-source-text="" fill="#dee4e3" transform="translate(1176 334.584) rotate(0) scale(0.047999997)">
<use href="#path47" transform="translate(0 0)"/>
</g>
</g>
<g>
<g data-source-text="" fill="#dee4e3" transform="translate(1248 334.584) rotate(0) scale(0.047999997)">
<use href="#path48" transform="translate(0 0)"/>
</g>
</g>
<g>
<g data-source-text="U+29C0" fill="#dee4e3" transform="translate(36 401.292) rotate(0) scale(0.023999998)">
<use href="#path17" transform="translate(0 0)"/>
<use href="#path18" transform="translate(500 0)"/>
<use href="#path3" transform="translate(1000 0)"/>
<use href="#path10" transform="translate(1500 0)"/>
<use href="#path13" transform="translate(2000 0)"/>
<use href="#path1" transform="translate(2500 0)"/>
</g>
</g>
<g>
<g data-source-text="" fill="#dee4e340" transform="translate(168 406.584) rotate(0) scale(0.047999997)">
<use href="#path24" transform="translate(0 0)"/>
</g>
</g>
<g>
<g data-source-text="" fill="#dee4e340" transform="translate(240 406.584) rotate(0) scale(0.047999997)">
<use href="#path24" transform="translate(0 0)"/>
</g>
</g>
<g>
<g data-source-text="" fill="#dee4e340" transform="translate(312 406.584) rotate(0) scale(0.047999997)">
<use href="#path24" transform="translate(0 0)"/>
</g>
</g>
<g>
<g data-source-text="" fill="#dee4e340" transform="translate(384 406.584) rotate(0) scale(0.047999997)">
<use href="#path24" transform="translate(0 0)"/>
</g>
</g>
<g>
<g data-source-text="" fill="#dee4e3" transform="translate(456 406.584) rotate(0) scale(0.047999997)">
<use href="#path49" transform="translate(0 0)"/>
</g>
</g>
<g>
<g data-source-text="" fill="#dee4e3" transform="translate(528 406.584) rotate(0) scale(0.047999997)">
<use href="#path50" transform="translate(0 0)"/>
</g>
</g>
<g>
<g data-source-text="" fill="#dee4e3" transform="translate(600 406.584) rotate(0) scale(0.047999997)">
<use href="#path51" transform="translate(0 0)"/>
</g>
</g>
<g>
<g data-source-text="" fill="#dee4e3" transform="translate(672 406.584) rotate(0) scale(0.047999997)">
<use href="#path52" transform="translate(0 0)"/>
</g>
</g>
<g>
<g data-source-text="" fill="#dee4e3" transform="translate(744 406.584) rotate(0) scale(0.047999997)">
<use href="#path53" transform="translate(0 0)"/>
</g>
</g>
<g>
<g data-source-text="" fill="#dee4e3" transform="translate(804 406.584) rotate(0) scale(0.047999997)">
<use href="#path54" transform="translate(0 0)"/>
</g>
</g>
<g>
<g data-source-text="" fill="#dee4e3" transform="translate(876 406.584) rotate(0) scale(0.047999997)">
<use href="#path55" transform="translate(0 0)"/>
</g>
</g>
<g>
<g data-source-text="" fill="#dee4e3" transform="translate(948 406.584) rotate(0) scale(0.047999997)">
<use href="#path56" transform="translate(0 0)"/>
</g>
</g>
<g>
<g data-source-text="" fill="#dee4e340" transform="translate(1032 406.584) rotate(0) scale(0.047999997)">
<use href="#path24" transform="translate(0 0)"/>
</g>
</g>
<g>
<g data-source-text="" fill="#dee4e3" transform="translate(1092 406.584) rotate(0) scale(0.047999997)">
<use href="#path57" transform="translate(0 0)"/>
</g>
</g>
<g>
<g data-source-text="" fill="#dee4e3" transform="translate(1176 406.584) rotate(0) scale(0.047999997)">
<use href="#path58" transform="translate(0 0)"/>
</g>
</g>
<g>
<g data-source-text="" fill="#dee4e340" transform="translate(1248 406.584) rotate(0) scale(0.047999997)">
<use href="#path24" transform="translate(0 0)"/>
</g>
</g>
<g>
<g data-source-text="U+29D0" fill="#dee4e3" transform="translate(36 473.292) rotate(0) scale(0.023999998)">
<use href="#path17" transform="translate(0 0)"/>
<use href="#path18" transform="translate(500 0)"/>
<use href="#path3" transform="translate(1000 0)"/>
<use href="#path10" transform="translate(1500 0)"/>
<use href="#path14" transform="translate(2000 0)"/>
<use href="#path1" transform="translate(2500 0)"/>
</g>
</g>
<g>
<g data-source-text="" fill="#dee4e340" transform="translate(168 478.584) rotate(0) scale(0.047999997)">
<use href="#path24" transform="translate(0 0)"/>
</g>
</g>
<g>
<g data-source-text="" fill="#dee4e3" transform="translate(240 478.584) rotate(0) scale(0.047999997)">
<use href="#path59" transform="translate(0 0)"/>
</g>
</g>
<g>
<g data-source-text="" fill="#dee4e3" transform="translate(312 478.584) rotate(0) scale(0.047999997)">
<use href="#path60" transform="translate(0 0)"/>
</g>
</g>
<g>
<g data-source-text="" fill="#dee4e3" transform="translate(384 478.584) rotate(0) scale(0.047999997)">
<use href="#path61" transform="translate(0 0)"/>
</g>
</g>
<g>
<g data-source-text="" fill="#dee4e3" transform="translate(456 478.584) rotate(0) scale(0.047999997)">
<use href="#path62" transform="translate(0 0)"/>
</g>
</g>
<g>
<g data-source-text="" fill="#dee4e3" transform="translate(528 478.584) rotate(0) scale(0.047999997)">
<use href="#path63" transform="translate(0 0)"/>
</g>
</g>
<g>
<g data-source-text="" fill="#dee4e3" transform="translate(600 478.584) rotate(0) scale(0.047999997)">
<use href="#path64" transform="translate(0 0)"/>
</g>
</g>
<g>
<g data-source-text="" fill="#dee4e3" transform="translate(672 478.584) rotate(0) scale(0.047999997)">
<use href="#path65" transform="translate(0 0)"/>
</g>
</g>
<g>
<g data-source-text="" fill="#dee4e3" transform="translate(744 478.584) rotate(0) scale(0.047999997)">
<use href="#path66" transform="translate(0 0)"/>
</g>
</g>
<g>
<g data-source-text="" fill="#dee4e3" transform="translate(816 478.584) rotate(0) scale(0.047999997)">
<use href="#path67" transform="translate(0 0)"/>
</g>
</g>
<g>
<g data-source-text="" fill="#dee4e3" transform="translate(888 478.584) rotate(0) scale(0.047999997)">
<use href="#path68" transform="translate(0 0)"/>
</g>
</g>
<g>
<g data-source-text="" fill="#dee4e3" transform="translate(960 478.584) rotate(0) scale(0.047999997)">
<use href="#path69" transform="translate(0 0)"/>
</g>
</g>
<g>
<g data-source-text="" fill="#dee4e340" transform="translate(1032 478.584) rotate(0) scale(0.047999997)">
<use href="#path24" transform="translate(0 0)"/>
</g>
</g>
<g>
<g data-source-text="" fill="#dee4e340" transform="translate(1104 478.584) rotate(0) scale(0.047999997)">
<use href="#path24" transform="translate(0 0)"/>
</g>
</g>
<g>
<g data-source-text="" fill="#dee4e340" transform="translate(1176 478.584) rotate(0) scale(0.047999997)">
<use href="#path24" transform="translate(0 0)"/>
</g>
</g>
<g>
<g data-source-text="" fill="#dee4e3" transform="translate(1248 478.584) rotate(0) scale(0.047999997)">
<use href="#path70" transform="translate(0 0)"/>
</g>
</g>
<g>
<g data-source-text="U+29E0" fill="#dee4e3" transform="translate(36 545.292) rotate(0) scale(0.023999998)">
<use href="#path17" transform="translate(0 0)"/>
<use href="#path18" transform="translate(500 0)"/>
<use href="#path3" transform="translate(1000 0)"/>
<use href="#path10" transform="translate(1500 0)"/>
<use href="#path15" transform="translate(2000 0)"/>
<use href="#path1" transform="translate(2500 0)"/>
</g>
</g>
<g>
<g data-source-text="" fill="#dee4e340" transform="translate(168 550.584) rotate(0) scale(0.047999997)">
<use href="#path24" transform="translate(0 0)"/>
</g>
</g>
<g>
<g data-source-text="" fill="#dee4e340" transform="translate(240 550.584) rotate(0) scale(0.047999997)">
<use href="#path24" transform="translate(0 0)"/>
</g>
</g>
<g>
<g data-source-text="" fill="#dee4e3" transform="translate(312 550.584) rotate(0) scale(0.047999997)">
<use href="#path71" transform="translate(0 0)"/>
</g>
</g>
<g>
<g data-source-text="" fill="#dee4e3" transform="translate(384 550.584) rotate(0) scale(0.047999997)">
<use href="#path72" transform="translate(0 0)"/>
</g>
</g>
<g>
<g data-source-text="" fill="#dee4e3" transform="translate(456 550.584) rotate(0) scale(0.047999997)">
<use href="#path73" transform="translate(0 0)"/>
</g>
</g>
<g>
<g data-source-text="" fill="#dee4e3" transform="translate(528 550.584) rotate(0) scale(0.047999997)">
<use href="#path74" transform="translate(0 0)"/>
</g>
</g>
<g>
<g data-source-text="" fill="#dee4e3" transform="translate(600 550.584) rotate(0) scale(0.047999997)">
<use href="#path75" transform="translate(0 0)"/>
</g>
</g>
<g>
<g data-source-text="" fill="#dee4e3" transform="translate(672 550.584) rotate(0) scale(0.047999997)">
<use href="#path76" transform="translate(0 0)"/>
</g>
</g>
<g>
<g data-source-text="" fill="#dee4e3" transform="translate(732 550.584) rotate(0) scale(0.047999997)">
<use href="#path77" transform="translate(0 0)"/>
</g>
</g>
<g>
<g data-source-text="" fill="#dee4e3" transform="translate(804 550.584) rotate(0) scale(0.047999997)">
<use href="#path78" transform="translate(0 0)"/>
</g>
</g>
<g>
<g data-source-text="" fill="#dee4e340" transform="translate(888 550.584) rotate(0) scale(0.047999997)">
<use href="#path24" transform="translate(0 0)"/>
</g>
</g>
<g>
<g data-source-text="" fill="#dee4e3" transform="translate(948 550.584) rotate(0) scale(0.047999997)">
<use href="#path79" transform="translate(0 0)"/>
</g>
</g>
<g>
<g data-source-text="" fill="#dee4e340" transform="translate(1032 550.584) rotate(0) scale(0.047999997)">
<use href="#path24" transform="translate(0 0)"/>
</g>
</g>
<g>
<g data-source-text="" fill="#dee4e340" transform="translate(1104 550.584) rotate(0) scale(0.047999997)">
<use href="#path24" transform="translate(0 0)"/>
</g>
</g>
<g>
<g data-source-text="" fill="#dee4e340" transform="translate(1176 550.584) rotate(0) scale(0.047999997)">
<use href="#path24" transform="translate(0 0)"/>
</g>
</g>
<g>
<g data-source-text="" fill="#dee4e340" transform="translate(1248 550.584) rotate(0) scale(0.047999997)">
<use href="#path24" transform="translate(0 0)"/>
</g>
</g>
<g>
<g data-source-text="U+29F0" fill="#dee4e3" transform="translate(36 617.292) rotate(0) scale(0.023999998)">
<use href="#path17" transform="translate(0 0)"/>
<use href="#path18" transform="translate(500 0)"/>
<use href="#path3" transform="translate(1000 0)"/>
<use href="#path10" transform="translate(1500 0)"/>
<use href="#path16" transform="translate(2000 0)"/>
<use href="#path1" transform="translate(2500 0)"/>
</g>
</g>
<g>
<g data-source-text="" fill="#dee4e340" transform="translate(168 622.584) rotate(0) scale(0.047999997)">
<use href="#path24" transform="translate(0 0)"/>
</g>
</g>
<g>
<g data-source-text="" fill="#dee4e340" transform="translate(240 622.584) rotate(0) scale(0.047999997)">
<use href="#path24" transform="translate(0 0)"/>
</g>
</g>
<g>
<g data-source-text="" fill="#dee4e340" transform="translate(312 622.584) rotate(0) scale(0.047999997)">
<use href="#path24" transform="translate(0 0)"/>
</g>
</g>
<g>
<g data-source-text="" fill="#dee4e340" transform="translate(384 622.584) rotate(0) scale(0.047999997)">
<use href="#path24" transform="translate(0 0)"/>
</g>
</g>
<g>
<g data-source-text="" fill="#dee4e3" transform="translate(456 622.584) rotate(0) scale(0.047999997)">
<use href="#path80" transform="translate(0 0)"/>
</g>
</g>
<g>
<g data-source-text="" fill="#dee4e3" transform="translate(528 622.584) rotate(0) scale(0.047999997)">
<use href="#path81" transform="translate(0 0)"/>
</g>
</g>
<g>
<g data-source-text="" fill="#dee4e3" transform="translate(600 622.584) rotate(0) scale(0.047999997)">
<use href="#path82" transform="translate(0 0)"/>
</g>
</g>
<g>
<g data-source-text="" fill="#dee4e3" transform="translate(672 622.584) rotate(0) scale(0.047999997)">
<use href="#path83" transform="translate(0 0)"/>
</g>
</g>
<g>
<g data-source-text="" fill="#dee4e3" transform="translate(744 622.584) rotate(0) scale(0.047999997)">
<use href="#path84" transform="translate(0 0)"/>
</g>
</g>
<g>
<g data-source-text="" fill="#dee4e3" transform="translate(816 622.584) rotate(0) scale(0.047999997)">
<use href="#path85" transform="translate(0 0)"/>
</g>
</g>
<g>
<g data-source-text="" fill="#dee4e3" transform="translate(888 622.584) rotate(0) scale(0.047999997)">
<use href="#path86" transform="translate(0 0)"/>
</g>
</g>
<g>
<g data-source-text="" fill="#dee4e3" transform="translate(960 622.584) rotate(0) scale(0.047999997)">
<use href="#path87" transform="translate(0 0)"/>
</g>
</g>
<g>
<g data-source-text="" fill="#dee4e340" transform="translate(1032 622.584) rotate(0) scale(0.047999997)">
<use href="#path24" transform="translate(0 0)"/>
</g>
</g>
<g>
<g data-source-text="" fill="#dee4e340" transform="translate(1104 622.584) rotate(0) scale(0.047999997)">
<use href="#path24" transform="translate(0 0)"/>
</g>
</g>
<g>
<g data-source-text="" fill="#dee4e340" transform="translate(1176 622.584) rotate(0) scale(0.047999997)">
<use href="#path24" transform="translate(0 0)"/>
</g>
</g>
<g>
<g data-source-text="" fill="#dee4e340" transform="translate(1248 622.584) rotate(0) scale(0.047999997)">
<use href="#path24" transform="translate(0 0)"/>
</g>
</g>
</svg>