<?xml version="1.0" encoding="UTF-8" standalone="no"?>
<svg height="360" viewBox="0 0 1296 360" width="1296" xmlns="http://www.w3.org/2000/svg">
<defs>
<path d="M 250 8 Q 223 8 196 3 Q 169 -2 145 -15 Q 121 -28 102.5 -48.5 Q 84 -69 72.5 -94 Q 61 -119 56.5 -146 Q 52 -173 52 -200 L 52 -535 Q 52 -562 56.5 -589 Q 61 -616 72.5 -641 Q 84 -666 102.5 -686.5 Q 121 -707 145 -720 Q 169 -733 196 -738 Q 223 -743 250 -743 Q 277 -743 304 -738 Q 331 -733 355 -720 Q 379 -707 397.5 -686.5 Q 416 -666 427.5 -641 Q 439 -616 443.5 -589 Q 448 -562 448 -535 L 448 -200 Q 448 -173 443.5 -146 Q 439 -119 427.5 -94 Q 416 -69 397.5 -48.5 Q 379 -28 355 -15 Q 331 -2 304 3 Q 277 8 250 8 Z M 153 -337 L 347 -491 L 347 -535 Q 347 -557 342.5 -578.5 Q 338 -600 325.5 -618 Q 313 -636 292.5 -645.5 Q 272 -655 250 -655 Q 228 -655 207.5 -645.5 Q 187 -636 174.5 -618 Q 162 -600 157.5 -578.5 Q 153 -557 153 -535 Z M 250 -80 Q 272 -80 292.5 -89.5 Q 313 -99 325.5 -117 Q 338 -135 342.5 -156.5 Q 347 -178 347 -200 L 347 -398 L 153 -244 L 153 -200 Q 153 -178 157.5 -156.5 Q 162 -135 174.5 -117 Q 187 -99 207.5 -89.5 Q 228 -80 250 -80 Z " id="path1"/>
<path d="M 230 0 L 230 -631 L 110 -528 L 55 -584 L 230 -735 L 330 -735 L 330 0 Z " id="path2"/>
<path d="M 440 0 L 60 0 L 60 -1 Q 60 -27 61 -53.5 Q 62 -80 66 -106.5 Q 70 -133 77.5 -158.5 Q 85 -184 96.5 -207.5 Q 108 -231 123 -253 Q 138 -275 156 -294.5 Q 174 -314 194 -331 Q 214 -348 235.5 -364 Q 257 -380 277.5 -397 Q 298 -414 313 -435.5 Q 328 -457 335.5 -483 Q 343 -509 343 -535 Q 343 -557 339 -578 Q 335 -599 323.5 -617 Q 312 -635 292 -645 Q 272 -655 251 -655 Q 231 -655 212.5 -647.5 Q 194 -640 182 -625 Q 170 -610 164.5 -591 Q 159 -572 159 -552 L 159 -548 L 58 -548 L 58 -555 Q 58 -581 64 -605.5 Q 70 -630 81.5 -652.5 Q 93 -675 111.5 -693 Q 130 -711 152.5 -722.5 Q 175 -734 200.5 -738.5 Q 226 -743 251 -743 Q 278 -743 304.5 -737.5 Q 331 -732 354.5 -719 Q 378 -706 396 -685.5 Q 414 -665 424.5 -640.5 Q 435 -616 439.5 -589 Q 444 -562 444 -535 Q 444 -501 435 -468 Q 426 -435 407.5 -406 Q 389 -377 364 -353.5 Q 339 -330 312.5 -308.5 Q 286 -287 261 -264 Q 236 -241 216.5 -213 Q 197 -185 184 -153.5 Q 171 -122 166 -88 L 440 -88 Z " id="path3"/>
<path d="M 253 8 Q 227 8 201 4 Q 175 -0 151.5 -11.5 Q 128 -23 108.5 -40.5 Q 89 -58 76 -81 Q 63 -104 56.5 -129.5 Q 50 -155 50 -181 L 50 -187 L 151 -187 L 151 -184 Q 151 -163 157.5 -143 Q 164 -123 178 -108 Q 192 -93 212 -86.5 Q 232 -80 253 -80 Q 275 -80 296 -88.5 Q 317 -97 330.5 -114.5 Q 344 -132 349.5 -154 Q 355 -176 355 -198 Q 355 -217 351 -235.5 Q 347 -254 338.5 -271 Q 330 -288 316.5 -301 Q 303 -314 286 -322 Q 269 -330 250 -332 Q 231 -334 212 -334 L 212 -422 Q 229 -422 246 -424 Q 263 -426 278.5 -433 Q 294 -440 306 -452.5 Q 318 -465 325.5 -480.5 Q 333 -496 336 -513 Q 339 -530 339 -547 Q 339 -566 334.5 -585.5 Q 330 -605 319.5 -621 Q 309 -637 291 -646 Q 273 -655 253 -655 Q 234 -655 216.5 -647 Q 199 -639 187.5 -624 Q 176 -609 171.5 -590 Q 167 -571 167 -553 L 167 -548 L 66 -548 L 66 -556 Q 66 -581 71.5 -605.5 Q 77 -630 88 -652 Q 99 -674 117 -692.5 Q 135 -711 157 -722.5 Q 179 -734 203.5 -738.5 Q 228 -743 253 -743 Q 278 -743 303.5 -738 Q 329 -733 351 -721 Q 373 -709 390 -690 Q 407 -671 418 -648 Q 429 -625 434.5 -600 Q 440 -575 440 -550 Q 440 -524 434 -498.5 Q 428 -473 415.5 -450.5 Q 403 -428 384.5 -409.5 Q 366 -391 343 -379 Q 369 -368 390.5 -348.5 Q 412 -329 427 -304.5 Q 442 -280 449 -252 Q 456 -224 456 -196 Q 456 -168 450 -141.5 Q 444 -115 432 -91 Q 420 -67 401 -47 Q 382 -27 358 -14.5 Q 334 -2 307 3 Q 280 8 253 8 Z " id="path4"/>
<path d="M 282 0 L 282 -188 L 52 -188 L 52 -275 L 276 -735 L 385 -735 L 161 -275 L 282 -275 L 282 -435 L 382 -435 L 382 -275 L 440 -275 L 440 -188 L 382 -188 L 382 0 Z " id="path5"/>
<path d="M 252 8 Q 227 8 202.5 3.5 Q 178 -1 155.5 -12 Q 133 -23 115 -41 Q 97 -59 85 -80.5 Q 73 -102 66.5 -126.5 Q 60 -151 59 -176 L 159 -176 Q 161 -158 167 -139.5 Q 173 -121 185.5 -107 Q 198 -93 216 -86.5 Q 234 -80 252 -80 Q 269 -80 285 -87 Q 301 -94 312 -107 Q 323 -120 330 -135.5 Q 337 -151 340.5 -168 Q 344 -185 345.5 -202 Q 347 -219 347 -236 Q 347 -252 346 -269 Q 345 -286 341 -302 Q 337 -318 331 -334 Q 325 -350 314 -363 Q 303 -376 287.5 -383.5 Q 272 -391 256 -391 Q 240 -391 224.5 -387 Q 209 -383 196 -373.5 Q 183 -364 176 -349.5 Q 169 -335 168 -319 L 68 -319 L 68 -735 L 421 -735 L 421 -647 L 168 -647 L 168 -464 Q 189 -472 211 -475 Q 233 -478 256 -478 Q 285 -478 313.5 -470.5 Q 342 -463 365.5 -445.5 Q 389 -428 405.5 -403 Q 422 -378 431.5 -350.5 Q 441 -323 444.5 -294 Q 448 -265 448 -235 Q 448 -206 444 -176.5 Q 440 -147 430.5 -119 Q 421 -91 404 -66.5 Q 387 -42 363.5 -24.5 Q 340 -7 311 0.5 Q 282 8 252 8 Z " id="path6"/>
<path d="M 250 8 Q 221 8 192.5 1.5 Q 164 -5 140 -21 Q 116 -37 98.5 -60.5 Q 81 -84 70.5 -111 Q 60 -138 56 -166.5 Q 52 -195 52 -224 Q 52 -268 60 -311 Q 68 -354 81.5 -395.5 Q 95 -437 113 -477 Q 131 -517 150 -556 L 238 -735 L 347 -735 L 240 -517 Q 228 -493 216.5 -468.5 Q 205 -444 195 -419 Q 214 -438 239 -447 Q 264 -456 291 -456 Q 317 -456 342.5 -447 Q 368 -438 386.5 -419.5 Q 405 -401 417 -377.5 Q 429 -354 436 -328.5 Q 443 -303 445.5 -276.5 Q 448 -250 448 -224 Q 448 -195 444 -166.5 Q 440 -138 429.5 -111 Q 419 -84 401.5 -60.5 Q 384 -37 360 -21 Q 336 -5 307.5 1.5 Q 279 8 250 8 Z M 250 -80 Q 266 -80 282 -85.5 Q 298 -91 309.5 -102.5 Q 321 -114 328.5 -129 Q 336 -144 340 -159.5 Q 344 -175 345.5 -191.5 Q 347 -208 347 -224 Q 347 -240 345.5 -256.5 Q 344 -273 340 -289 Q 336 -305 328.5 -319.5 Q 321 -334 309.5 -345.5 Q 298 -357 282 -362.5 Q 266 -368 250 -368 Q 235 -368 221 -363.5 Q 207 -359 195.5 -349.5 Q 184 -340 176.5 -327.5 Q 169 -315 164 -301 Q 159 -287 156.5 -272.5 Q 154 -258 153 -243 L 153 -224 Q 153 -208 154.5 -191.5 Q 156 -175 160 -159.5 Q 164 -144 171.5 -129 Q 179 -114 190.5 -102.5 Q 202 -91 218 -85.5 Q 234 -80 250 -80 Z " id="path7"/>
<path d="M 242 0 L 138 0 L 336 -647 L 60 -647 L 60 -735 L 440 -735 L 440 -647 Z " id="path8"/>
<path d="M 250 8 Q 225 8 200 4 Q 175 -0 152 -10 Q 129 -20 109.5 -37 Q 90 -54 77.5 -75.5 Q 65 -97 58.5 -121.5 Q 52 -146 52 -172 Q 52 -203 62 -232.5 Q 72 -262 88.5 -288 Q 105 -314 127 -336 Q 149 -358 174 -378 Q 152 -396 132.5 -417 Q 113 -438 98.5 -462.5 Q 84 -487 76 -514.5 Q 68 -542 68 -570 Q 68 -594 73.5 -617 Q 79 -640 90.5 -661 Q 102 -682 119.5 -698.5 Q 137 -715 158 -725 Q 179 -735 202.5 -739 Q 226 -743 250 -743 Q 274 -743 297.5 -739 Q 321 -735 342 -725 Q 363 -715 380.5 -698.5 Q 398 -682 409.5 -661 Q 421 -640 426.5 -617 Q 432 -594 432 -570 Q 432 -542 424 -514.5 Q 416 -487 401.5 -462.5 Q 387 -438 367.5 -417 Q 348 -396 326 -378 Q 351 -358 373 -336 Q 395 -314 411.5 -288 Q 428 -262 438 -232.5 Q 448 -203 448 -172 Q 448 -146 441.5 -121.5 Q 435 -97 422.5 -75.5 Q 410 -54 390.5 -37 Q 371 -20 348 -10 Q 325 -0 300 4 Q 275 8 250 8 Z M 250 -435 Q 266 -447 280.5 -461.5 Q 295 -476 306.5 -493 Q 318 -510 325 -529.5 Q 332 -549 332 -569 Q 332 -586 326.5 -602.5 Q 321 -619 310 -631.5 Q 299 -644 283 -649.5 Q 267 -655 250 -655 Q 233 -655 217 -649.5 Q 201 -644 190 -631.5 Q 179 -619 173.5 -602.5 Q 168 -586 168 -569 Q 168 -549 175 -529.5 Q 182 -510 193.5 -493 Q 205 -476 219.5 -461.5 Q 234 -447 250 -435 Z M 250 -80 Q 269 -80 287.5 -85.5 Q 306 -91 320 -104 Q 334 -117 340.5 -135.5 Q 347 -154 347 -173 Q 347 -196 338.5 -217.5 Q 330 -239 316.5 -257.5 Q 303 -276 285.5 -291 Q 268 -306 250 -320 Q 232 -306 214.5 -291 Q 197 -276 183.5 -257.5 Q 170 -239 161.5 -217.5 Q 153 -196 153 -173 Q 153 -154 159.5 -135.5 Q 166 -117 180 -104 Q 194 -91 212.5 -85.5 Q 231 -80 250 -80 Z " id="path9"/>
<path d="M 262 0 L 153 0 L 260 -218 Q 272 -242 283.5 -266.5 Q 295 -291 305 -316 Q 286 -297 261 -288 Q 236 -279 209 -279 Q 183 -279 157.5 -288 Q 132 -297 113.5 -315.5 Q 95 -334 83 -357.5 Q 71 -381 64 -406.5 Q 57 -432 54.5 -458.5 Q 52 -485 52 -511 Q 52 -540 56 -568.5 Q 60 -597 70.5 -624 Q 81 -651 98.5 -674.5 Q 116 -698 140 -714 Q 164 -730 192.5 -736.5 Q 221 -743 250 -743 Q 279 -743 307.5 -736.5 Q 336 -730 360 -714 Q 384 -698 401.5 -674.5 Q 419 -651 429.5 -624 Q 440 -597 444 -568.5 Q 448 -540 448 -511 Q 448 -467 440 -424 Q 432 -381 418.5 -339.5 Q 405 -298 387 -258 Q 369 -218 350 -179 Z M 250 -367 Q 265 -367 279 -371.5 Q 293 -376 304.5 -385.5 Q 316 -395 323.5 -407.5 Q 331 -420 336 -434 Q 341 -448 343.5 -462.5 Q 346 -477 347 -492 L 347 -511 Q 347 -527 345.5 -543.5 Q 344 -560 340 -575.5 Q 336 -591 328.5 -606 Q 321 -621 309.5 -632.5 Q 298 -644 282 -649.5 Q 266 -655 250 -655 Q 234 -655 218 -649.5 Q 202 -644 190.5 -632.5 Q 179 -621 171.5 -606 Q 164 -591 160 -575.5 Q 156 -560 154.5 -543.5 Q 153 -527 153 -511 Q 153 -495 154.5 -478.5 Q 156 -462 160 -446 Q 164 -430 171.5 -415.5 Q 179 -401 190.5 -389.5 Q 202 -378 218 -372.5 Q 234 -367 250 -367 Z " id="path10"/>
<path d="M 39 0 L 192 -735 L 308 -735 L 461 0 L 358 0 L 326 -172 L 174 -172 L 142 0 Z M 309 -260 L 265 -490 Q 262 -511 258 -531.5 Q 254 -552 250 -572 Q 246 -552 242 -531.5 Q 238 -511 235 -490 L 191 -260 Z " id="path11"/>
<path d="M 60 0 L 60 -735 L 234 -735 Q 261 -735 287 -730.5 Q 313 -726 336 -714 Q 359 -702 377.5 -682.5 Q 396 -663 408 -639.5 Q 420 -616 424.5 -590 Q 429 -564 429 -538 Q 429 -515 425 -492 Q 421 -469 410.5 -448.5 Q 400 -428 383.5 -411 Q 367 -394 347 -383 Q 372 -373 393.5 -355.5 Q 415 -338 429.5 -314.5 Q 444 -291 450 -264 Q 456 -237 456 -210 Q 456 -181 450 -152.5 Q 444 -124 430 -98.5 Q 416 -73 394.5 -53.5 Q 373 -34 347 -21.5 Q 321 -9 292 -4.5 Q 263 -0 234 0 Z M 161 -424 L 234 -424 Q 255 -424 274.5 -432.5 Q 294 -441 306.5 -457.5 Q 319 -474 324 -494.5 Q 329 -515 329 -536 Q 329 -557 324 -577.5 Q 319 -598 306.5 -614.5 Q 294 -631 274.5 -639 Q 255 -647 234 -647 L 161 -647 Z M 161 -88 L 234 -88 Q 251 -88 267 -91 Q 283 -94 297.5 -101.5 Q 312 -109 323.5 -121 Q 335 -133 342.5 -148 Q 350 -163 352.5 -179 Q 355 -195 355 -212 Q 355 -228 352.5 -244.5 Q 350 -261 343 -276 Q 336 -291 324.5 -303 Q 313 -315 298 -322.5 Q 283 -330 267 -333 Q 251 -336 234 -336 L 161 -336 Z " id="path12"/>
<path d="M 247 8 Q 220 8 193 2.5 Q 166 -3 142.5 -16 Q 119 -29 101 -49.5 Q 83 -70 72 -94.5 Q 61 -119 56.5 -146 Q 52 -173 52 -200 L 52 -535 Q 52 -562 56.5 -589 Q 61 -616 72 -640.5 Q 83 -665 101 -685.5 Q 119 -706 142.5 -719 Q 166 -732 193 -737.5 Q 220 -743 247 -743 Q 273 -743 298 -738.5 Q 323 -734 346 -723 Q 369 -712 387.5 -694 Q 406 -676 418 -653.5 Q 430 -631 436 -606 Q 442 -581 442 -555 L 442 -548 L 341 -548 L 341 -552 Q 341 -572 335.5 -591.5 Q 330 -611 317.5 -626 Q 305 -641 286 -648 Q 267 -655 247 -655 Q 225 -655 205 -645.5 Q 185 -636 173 -618 Q 161 -600 157 -578.5 Q 153 -557 153 -535 L 153 -200 Q 153 -178 157 -156.5 Q 161 -135 173 -117 Q 185 -99 205 -89.5 Q 225 -80 247 -80 Q 267 -80 286 -87 Q 305 -94 317.5 -109 Q 330 -124 335.5 -143.5 Q 341 -163 341 -183 L 341 -187 L 442 -187 L 442 -180 Q 442 -154 436 -129 Q 430 -104 418 -81.5 Q 406 -59 387.5 -41 Q 369 -23 346 -12 Q 323 -1 298 3.5 Q 273 8 247 8 Z " id="path13"/>
<path d="M 60 0 L 60 -735 L 219 -735 Q 249 -735 279 -730 Q 309 -725 336.5 -712 Q 364 -699 386 -678.5 Q 408 -658 422 -631.5 Q 436 -605 442 -575 Q 448 -545 448 -515 L 448 -220 Q 448 -190 442 -160 Q 436 -130 422 -103.5 Q 408 -77 386 -56.5 Q 364 -36 336.5 -23 Q 309 -10 279 -5 Q 249 -0 219 0 Z M 161 -88 L 219 -88 Q 237 -88 254 -91 Q 271 -94 286.5 -102.5 Q 302 -111 314 -124 Q 326 -137 333.5 -152.5 Q 341 -168 344 -185.5 Q 347 -203 347 -220 L 347 -515 Q 347 -532 344 -549.5 Q 341 -567 333.5 -582.5 Q 326 -598 314 -611 Q 302 -624 286.5 -632.5 Q 271 -641 254 -644 Q 237 -647 219 -647 L 161 -647 Z " id="path14"/>
<path d="M 68 0 L 68 -735 L 440 -735 L 440 -647 L 169 -647 L 169 -426 L 383 -426 L 383 -338 L 169 -338 L 169 -88 L 440 -88 L 440 0 Z " id="path15"/>
<path d="M 91 0 L 91 -735 L 440 -735 L 440 -647 L 191 -647 L 191 -426 L 383 -426 L 383 -338 L 191 -338 L 191 0 Z " id="path16"/>
<path d="M 250 8 Q 223 8 196.5 2.5 Q 170 -3 147 -16.5 Q 124 -30 106.5 -50.5 Q 89 -71 78.5 -95.5 Q 68 -120 64 -146.5 Q 60 -173 60 -200 L 60 -735 L 161 -735 L 161 -200 Q 161 -186 162.5 -172 Q 164 -158 168 -144.5 Q 172 -131 179.5 -118.5 Q 187 -106 197.5 -97 Q 208 -88 222 -84 Q 236 -80 250 -80 Q 264 -80 278 -84 Q 292 -88 302.5 -97 Q 313 -106 320.5 -118.5 Q 328 -131 332 -144.5 Q 336 -158 337.5 -172 Q 339 -186 339 -200 L 339 -735 L 440 -735 L 440 -200 Q 440 -173 436 -146.5 Q 432 -120 421.5 -95.5 Q 411 -71 393.5 -50.5 Q 376 -30 353 -16.5 Q 330 -3 303.5 2.5 Q 277 8 250 8 Z " id="path17"/>
<path d="M 300 -143 L 200 -143 L 200 -296 L 60 -296 L 60 -384 L 200 -384 L 200 -537 L 300 -537 L 300 -384 L 440 -384 L 440 -296 L 300 -296 Z " id="path18"/>
<path d="M 64 95 L 64 -775 L 141 -775 L 141 -149 Q 152 -145 163 -143.5 Q 174 -142 185 -142 Q 214 -142 241 -152.5 Q 268 -163 290 -182 Q 312 -201 326.5 -226 Q 341 -251 348.5 -278.5 Q 356 -306 357.5 -335 Q 359 -364 359 -392 L 359 -502 Q 344 -506 330.5 -516 Q 317 -526 308.5 -539.5 Q 300 -553 297 -569 Q 294 -585 294 -601 Q 294 -622 300 -642.5 Q 306 -663 321 -677.5 Q 336 -692 356.5 -698.5 Q 377 -705 398 -705 Q 418 -705 438.5 -698.5 Q 459 -692 474 -677.5 Q 489 -663 495.5 -642.5 Q 502 -622 502 -601 Q 502 -585 498.5 -569 Q 495 -553 486.5 -539.5 Q 478 -526 464.5 -516 Q 451 -506 436 -502 L 436 -392 Q 436 -355 434 -317.5 Q 432 -280 422.5 -244 Q 413 -208 394 -175.5 Q 375 -143 347 -118.5 Q 319 -94 283.5 -80.5 Q 248 -67 211 -67 Q 193 -67 175.5 -70 Q 158 -73 141 -79 L 141 95 Z " id="path19"/>
<path d="M 90 -392 L 90 -796 L 156 -796 L 156 -451 L 325 -451 L 325 -392 Z M 179 116 L 179 -288 L 246 -288 L 366 25 Q 361 -13 357 -50.5 Q 353 -88 353 -127 L 353 -288 L 418 -288 L 418 116 L 351 116 L 231 -198 Q 236 -160 240 -122 Q 244 -84 244 -46 L 244 116 Z " id="path20"/>
<path d="M 468 95 L 32 95 L 32 -427 L 56 -427 L 56 -575 Q 56 -602 60 -628.5 Q 64 -655 75 -680 Q 86 -705 104.5 -725.5 Q 123 -746 146.5 -759 Q 170 -772 196.5 -777.5 Q 223 -783 250 -783 Q 277 -783 303.5 -777.5 Q 330 -772 353.5 -759 Q 377 -746 395.5 -725.5 Q 414 -705 425 -680 Q 436 -655 440 -628.5 Q 444 -602 444 -575 L 444 -427 L 468 -427 Z M 133 -427 L 367 -427 L 367 -575 Q 367 -592 365 -609 Q 363 -626 356.5 -642 Q 350 -658 340 -672 Q 330 -686 315.5 -695.5 Q 301 -705 284 -709 Q 267 -713 250 -713 Q 233 -713 216 -709 Q 199 -705 184.5 -695.5 Q 170 -686 160 -672 Q 150 -658 143.5 -642 Q 137 -626 135 -609 Q 133 -592 133 -575 Z M 250 -28 Q 260 -28 270 -30.5 Q 280 -33 287.5 -39.5 Q 295 -46 298.5 -56 Q 302 -66 302 -76 L 302 -257 Q 302 -267 298.5 -276.5 Q 295 -286 287.5 -292.5 Q 280 -299 270 -302 Q 260 -305 250 -305 Q 240 -305 230 -302 Q 220 -299 212.5 -292.5 Q 205 -286 201.5 -276.5 Q 198 -267 198 -257 L 198 -76 Q 198 -66 201.5 -56 Q 205 -46 212.5 -39.5 Q 220 -33 230 -30.5 Q 240 -28 250 -28 Z " id="path21"/>
<path d="M 200 -388 Q 176 -388 153 -394 Q 130 -400 112 -415 Q 94 -430 85.5 -453 Q 77 -476 77 -499 L 77 -689 Q 77 -713 85.5 -735.5 Q 94 -758 112 -773.5 Q 130 -789 153 -795 Q 176 -801 200 -801 Q 222 -801 244 -796 Q 266 -791 284 -777.5 Q 302 -764 312.5 -743.5 Q 323 -723 323 -701 L 323 -697 L 257 -697 L 257 -699 Q 257 -709 252 -718 Q 247 -727 238.5 -732 Q 230 -737 220 -739 Q 210 -741 200 -741 Q 189 -741 178 -738.5 Q 167 -736 159 -728.5 Q 151 -721 147 -710.5 Q 143 -700 143 -689 L 143 -499 Q 143 -488 147 -477.5 Q 151 -467 159 -460 Q 167 -453 178 -450 Q 189 -447 200 -447 Q 210 -447 220 -449 Q 230 -451 238.5 -456.5 Q 247 -462 252 -471 Q 257 -480 257 -490 L 257 -491 L 323 -491 L 323 -488 Q 323 -465 312.5 -444.5 Q 302 -424 284 -410.5 Q 266 -397 244 -392.5 Q 222 -388 200 -388 Z M 179 116 L 179 -288 L 246 -288 L 366 25 Q 361 -13 357 -50.5 Q 353 -88 353 -127 L 353 -288 L 418 -288 L 418 116 L 351 116 L 231 -198 Q 236 -160 240 -122 Q 244 -84 244 -46 L 244 116 Z " id="path22"/>
<path d="M 64 0 L 64 -735 L 436 -735 L 436 0 Z M 94 -321 L 401 -705 L 308 -705 L 94 -438 Z M 94 -478 L 276 -705 L 182 -705 L 94 -595 Z M 94 -634 L 151 -705 L 94 -705 Z M 94 -165 L 406 -554 L 406 -671 L 94 -282 Z M 94 -30 L 111 -30 L 406 -398 L 406 -515 L 94 -126 Z M 143 -30 L 236 -30 L 406 -242 L 406 -359 Z M 268 -30 L 362 -30 L 406 -85 L 406 -202 Z M 393 -30 L 406 -30 L 406 -46 Z " id="path23"/>
<path d="M 500 285 L 0 285 L 0 215 L 500 215 Z " id="path24"/>
<path d="M 0 -895 L 0 -965 L 500 -965 L 500 -895 Z " id="path25"/>
<path d="M -8 285 L -8 -965 L 0 -965 L 500 -340 L 0 285 Z " id="path26"/>
<path d="M 0 285 L -53 247 L 417 -340 L -53 -927 L 0 -965 L 500 -340 Z " id="path27"/>
<path d="M 500 285 L 0 -340 L 500 -965 L 508 -965 L 508 285 Z " id="path28"/>
<path d="M 500 285 L 0 -340 L 500 -965 L 553 -927 L 83 -340 L 553 247 Z " id="path29"/>
<path d="M -4 285 L -8 285 L -8 -965 L -4 -965 Q 52 -965 106.5 -950.5 Q 161 -936 209.5 -909 Q 258 -882 299.5 -844 Q 341 -806 374 -761 Q 407 -716 430.5 -665 Q 454 -614 469.5 -560.5 Q 485 -507 492.5 -451.5 Q 500 -396 500 -340 Q 500 -284 492.5 -228.5 Q 485 -173 469.5 -119.5 Q 454 -66 430.5 -15 Q 407 36 374 81 Q 341 126 299.5 164 Q 258 202 209.5 229 Q 161 256 106.5 270.5 Q 52 285 -4 285 Z " id="path30"/>
<path d="M -4 285 L -8 285 L -8 224 L -4 224 Q 46 224 94 210.5 Q 142 197 185 172 Q 228 147 264 112.5 Q 300 78 328 37 Q 356 -4 375.5 -50 Q 395 -96 408 -144 Q 421 -192 427 -241 Q 433 -290 433 -340 Q 433 -390 427 -439 Q 421 -488 408 -536 Q 395 -584 375.5 -630 Q 356 -676 328 -717 Q 300 -758 264 -792.5 Q 228 -827 185 -852 Q 142 -877 94 -890.5 Q 46 -904 -4 -904 L -8 -904 L -8 -965 L -4 -965 Q 52 -965 106.5 -950.5 Q 161 -936 209.5 -909 Q 258 -882 299.5 -844 Q 341 -806 374 -761 Q 407 -716 430.5 -665 Q 454 -614 469.5 -560.5 Q 485 -507 492.5 -451.5 Q 500 -396 500 -340 Q 500 -284 492.5 -228.5 Q 485 -173 469.5 -119.5 Q 454 -66 430.5 -15 Q 407 36 374 81 Q 341 126 299.5 164 Q 258 202 209.5 229 Q 161 256 106.5 270.5 Q 52 285 -4 285 Z " id="path31"/>
<path d="M 504 285 Q 473 285 442.5 280.5 Q 412 276 382 267.5 Q 352 259 324 246 Q 296 233 270 217 Q 244 201 220 181 Q 196 161 174.5 138.5 Q 153 116 134 91.5 Q 115 67 99 41 Q 83 15 70 -13.5 Q 57 -42 46.5 -70.5 Q 36 -99 28 -129 Q 20 -159 14 -189.5 Q 8 -220 4 -255.5 Q 0 -291 0 -312 L 0 -340 Q 0 -371 2.5 -402 Q 5 -433 9.5 -463.5 Q 14 -494 21 -524 Q 28 -554 37.5 -583 Q 47 -612 59 -641 Q 71 -670 85.5 -697 Q 100 -724 117.5 -749.5 Q 135 -775 155.5 -798 Q 176 -821 199 -842.5 Q 222 -864 247 -881.5 Q 272 -899 299 -913.5 Q 326 -928 355.5 -938.5 Q 385 -949 420 -957 Q 455 -965 476 -965 L 508 -965 L 508 285 Z " id="path32"/>
<path d="M 504 285 Q 473 285 442.5 280.5 Q 412 276 382 267.5 Q 352 259 324 246 Q 296 233 270 217 Q 244 201 220 181 Q 196 161 174.5 138.5 Q 153 116 134 91.5 Q 115 67 99 41 Q 83 15 70 -13.5 Q 57 -42 46.5 -70.5 Q 36 -99 28 -129 Q 20 -159 14 -189.5 Q 8 -220 4 -255.5 Q 0 -291 0 -312 L 0 -340 Q 0 -371 2.5 -402 Q 5 -433 9.5 -463.5 Q 14 -494 21 -524 Q 28 -554 37.5 -583 Q 47 -612 59 -641 Q 71 -670 85.5 -697 Q 100 -724 117.5 -749.5 Q 135 -775 155.5 -798 Q 176 -821 199 -842.5 Q 222 -864 247 -881.5 Q 272 -899 299 -913.5 Q 326 -928 355.5 -938.5 Q 385 -949 420 -957 Q 455 -965 476 -965 L 508 -965 L 508 -904 L 504 -904 Q 476 -904 449 -900 Q 422 -896 396 -887.5 Q 370 -879 345 -867.5 Q 320 -856 297 -841 Q 274 -826 253 -808 Q 232 -790 213.5 -769.5 Q 195 -749 179 -727 Q 163 -705 149.5 -681 Q 136 -657 125 -631.5 Q 114 -606 105.5 -580 Q 97 -554 90 -527.5 Q 83 -501 78 -474 Q 73 -447 70 -415 Q 67 -383 67 -365 L 67 -340 Q 67 -312 69 -285 Q 71 -258 74.5 -230.5 Q 78 -203 84 -176.5 Q 90 -150 98 -123.5 Q 106 -97 116 -71.5 Q 126 -46 138 -21.5 Q 150 3 165 26.5 Q 180 50 197.5 71 Q 215 92 234.5 111 Q 254 130 276 146.5 Q 298 163 322.5 176.5 Q 347 190 372.5 199.5 Q 398 209 429.5 216.5 Q 461 224 479 224 L 508 224 L 508 285 Z " id="path33"/>
<path d="M -8 285 L -8 -965 L 0 -965 L 500 285 Z " id="path34"/>
<path d="M 437 308 L -63 -942 L 0 -965 L 500 285 Z " id="path35"/>
<path d="M 508 285 L 0 285 L 508 -965 Z " id="path36"/>
<path d="M 0 285 L -63 262 L 437 -988 L 500 -965 Z " id="path37"/>
<path d="M -8 285 L -8 -965 L 500 -965 Z " id="path38"/>
<path d="M 63 308 L 0 285 L 500 -965 L 563 -942 Z " id="path39"/>
<path d="M 500 285 L 0 -965 L 508 -965 L 508 285 Z " id="path40"/>
<path d="M 500 285 L 0 -965 L 63 -988 L 563 262 Z " id="path41"/>
</defs>
<g>
<g data-source-text="0" fill="#dee4e3" transform="translate(174 41.292) rotate(0) scale(0.023999998)">
<use href="#path1" transform="translate(0 0)"/>
</g>
</g>
<g>
<g data-source-text="1" fill="#dee4e3" transform="translate(246 41.292) rotate(0) scale(0.023999998)">
<use href="#path2" transform="translate(0 0)"/>
</g>
</g>
<g>
<g data-source-text="2" fill="#dee4e3" transform="translate(318 41.292) rotate(0) scale(0.023999998)">
<use href="#path3" transform="translate(0 0)"/>
</g>
</g>
<g>
<g data-source-text="3" fill="#dee4e3" transform="translate(390 41.292) rotate(0) scale(0.023999998)">
<use href="#path4" transform="translate(0 0)"/>
</g>
</g>
<g>
<g data-source-text="4" fill="#dee4e3" transform="translate(462 41.292) rotate(0) scale(0.023999998)">
<use href="#path5" transform="translate(0 0)"/>
</g>
</g>
<g>
<g data-source-text="5" fill="#dee4e3" transform="translate(534 41.292) rotate(0) scale(0.023999998)">
<use href="#path6" transform="translate(0 0)"/>
</g>
</g>
<g>
<g data-source-text="6" fill="#dee4e3" transform="translate(606 41.292) rotate(0) scale(0.023999998)">
<use href="#path7" transform="translate(0 0)"/>
</g>
</g>
<g>
<g data-source-text="7" fill="#dee4e3" transform="translate(678 41.292) rotate(0) scale(0.023999998)">
<use href="#path8" transform="translate(0 0)"/>
</g>
</g>
<g>
<g data-source-text="8" fill="#dee4e3" transform="translate(750 41.292) rotate(0) scale(0.023999998)">
<use href="#path9" transform="translate(0 0)"/>
</g>
</g>
<g>
<g data-source-text="9" fill="#dee4e3" transform="translate(822 41.292) rotate(0) scale(0.023999998)">
<use href="#path10" transform="translate(0 0)"/>
</g>
</g>
<g>
<g data-source-text="A" fill="#dee4e3" transform="translate(894 41.292) rotate(0) scale(0.023999998)">
<use href="#path11" transform="translate(0 0)"/>
</g>
</g>
<g>
<g data-source-text="B" fill="#dee4e3" transform="translate(966 41.292) rotate(0) scale(0.023999998)">
<use href="#path12" transform="translate(0 0)"/>
</g>
</g>
<g>
<g data-source-text="C" fill="#dee4e3" transform="translate(1038 41.292) rotate(0) scale(0.023999998)">
<use href="#path13" transform="translate(0 0)"/>
</g>
</g>
<g>
<g data-source-text="D" fill="#dee4e3" transform="translate(1110 41.292) rotate(0) scale(0.023999998)">
<use href="#path14" transform="translate(0 0)"/>
</g>
</g>
<g>
<g data-source-text="E" fill="#dee4e3" transform="translate(1182 41.292) rotate(0) scale(0.023999998)">
<use href="#path15" transform="translate(0 0)"/>
</g>
</g>
<g>
<g data-source-text="F" fill="#dee4e3" transform="translate(1254 41.292) rotate(0) scale(0.023999998)">
<use href="#path16" transform="translate(0 0)"/>
</g>
</g>
<g>
<g data-source-text="U+E0A0" fill="#dee4e3" transform="translate(36 113.292) rotate(0) scale(0.023999998)">
<use href="#path17" transform="translate(0 0)"/>
<use href="#path18" transform="translate(500 0)"/>
<use href="#path15" transform="translate(1000 0)"/>
<use href="#path1" transform="translate(1500 0)"/>
<use href="#path11" transform="translate(2000 0)"/>
<use href="#path1" transform="translate(2500 0)"/>
</g>
</g>
<g>
<g data-source-text="" fill="#dee4e3" transform="translate(168 118.584) rotate(0) scale(0.047999997)">
<use href="#path19" transform="translate(0 0)"/>
</g>
</g>
<g>
<g data-source-text="" fill="#dee4e3" transform="translate(240 118.584) rotate(0) scale(0.047999997)">
<use href="#path20" transform="translate(0 0)"/>
</g>
</g>
<g>
<g data-source-text="" fill="#dee4e3" transform="translate(312 118.584) rotate(0) scale(0.047999997)">
<use href="#path21" transform="translate(0 0)"/>
</g>
</g>
<g>
<g data-source-text="" fill="#dee4e3" transform="translate(384 118.584) rotate(0) scale(0.047999997)">
<use href="#path22" transform="translate(0 0)"/>
</g>
</g>
<g>
<g data-source-text="" fill="#dee4e340" transform="translate(456 118.584) rotate(0) scale(0.047999997)">
<use href="#path23" transform="translate(0 0)"/>
</g>
</g>
<g>
<g data-source-text="" fill="#dee4e340" transform="translate(528 118.584) rotate(0) scale(0.047999997)">
<use href="#path23" transform="translate(0 0)"/>
</g>
</g>
<g>
<g data-source-text="" fill="#dee4e340" transform="translate(600 118.584) rotate(0) scale(0.047999997)">
<use href="#path23" transform="translate(0 0)"/>
</g>
</g>
<g>
<g data-source-text="" fill="#dee4e340" transform="translate(672 118.584) rotate(0) scale(0.047999997)">
<use href="#path23" transform="translate(0 0)"/>
</g>
</g>
<g>
<g data-source-text="" fill="#dee4e340" transform="translate(744 118.584) rotate(0) scale(0.047999997)">
<use href="#path23" transform="translate(0 0)"/>
</g>
</g>
<g>
<g data-source-text="" fill="#dee4e340" transform="translate(816 118.584) rotate(0) scale(0.047999997)">
<use href="#path23" transform="translate(0 0)"/>
</g>
</g>
<g>
<g data-source-text="" fill="#dee4e340" transform="translate(888 118.584) rotate(0) scale(0.047999997)">
<use href="#path23" transform="translate(0 0)"/>
</g>
</g>
<g>
<g data-source-text="" fill="#dee4e340" transform="translate(960 118.584) rotate(0) scale(0.047999997)">
<use href="#path23" transform="translate(0 0)"/>
</g>
</g>
<g>
<g data-source-text="" fill="#dee4e340" transform="translate(1032 118.584) rotate(0) scale(0.047999997)">
<use href="#path23" transform="translate(0 0)"/>
</g>
</g>
<g>
<g data-source-text="" fill="#dee4e340" transform="translate(1104 118.584) rotate(0) scale(0.047999997)">
<use href="#path23" transform="translate(0 0)"/>
</g>
</g>
<g>
<g data-source-text="" fill="#dee4e3" transform="translate(1176 118.584) rotate(0) scale(0.047999997)">
<use href="#path24" transform="translate(0 0)"/>
</g>
</g>
<g>
<g data-source-text="" fill="#dee4e3" transform="translate(1248 118.584) rotate(0) scale(0.047999997)">
<use href="#path25" transform="translate(0 0)"/>
</g>
</g>
<g>
<g data-source-text="U+E0B0" fill="#dee4e3" transform="translate(36 185.292) rotate(0) scale(0.023999998)">
<use href="#path17" transform="translate(0 0)"/>
<use href="#path18" transform="translate(500 0)"/>
<use href="#path15" transform="translate(1000 0)"/>
<use href="#path1" transform="translate(1500 0)"/>
<use href="#path12" transform="translate(2000 0)"/>
<use href="#path1" transform="translate(2500 0)"/>
</g>
</g>
<g>
<g data-source-text="" fill="#dee4e3" transform="translate(168 190.584) rotate(0) scale(0.047999997)">
<use href="#path26" transform="translate(0 0)"/>
</g>
</g>
<g>
<g data-source-text="" fill="#dee4e3" transform="translate(240 190.584) rotate(0) scale(0.047999997)">
<use href="#path27" transform="translate(0 0)"/>
</g>
</g>
<g>
<g data-source-text="" fill="#dee4e3" transform="translate(312 190.584) rotate(0) scale(0.047999997)">
<use href="#path28" transform="translate(0 0)"/>
</g>
</g>
<g>
<g data-source-text="" fill="#dee4e3" transform="translate(384 190.584) rotate(0) scale(0.047999997)">
<use href="#path29" transform="translate(0 0)"/>
</g>
</g>
<g>
<g data-source-text="" fill="#dee4e3" transform="translate(456 190.584) rotate(0) scale(0.047999997)">
<use href="#path30" transform="translate(0 0)"/>
</g>
</g>
<g>
<g data-source-text="" fill="#dee4e3" transform="translate(528 190.584) rotate(0) scale(0.047999997)">
<use href="#path31" transform="translate(0 0)"/>
</g>
</g>
<g>
<g data-source-text="" fill="#dee4e3" transform="translate(600 190.584) rotate(0) scale(0.047999997)">
<use href="#path32" transform="translate(0 0)"/>
</g>
</g>
<g>
<g data-source-text="" fill="#dee4e3" transform="translate(672 190.584) rotate(0) scale(0.047999997)">
<use href="#path33" transform="translate(0 0)"/>
</g>
</g>
<g>
<g data-source-text="" fill="#dee4e3" transform="translate(744 190.584) rotate(0) scale(0.047999997)">
<use href="#path34" transform="translate(0 0)"/>
</g>
</g>
<g>
<g data-source-text="" fill="#dee4e3" transform="translate(816 190.584) rotate(0) scale(0.047999997)">
<use href="#path35" transform="translate(0 0)"/>
</g>
</g>
<g>
<g data-source-text="" fill="#dee4e3" transform="translate(888 190.584) rotate(0) scale(0.047999997)">
<use href="#path36" transform="translate(0 0)"/>
</g>
</g>
<g>
<g data-source-text="" fill="#dee4e3" transform="translate(960 190.584) rotate(0) scale(0.047999997)">
<use href="#path37" transform="translate(0 0)"/>
</g>
</g>
<g>
<g data-source-text="" fill="#dee4e3" transform="translate(1032 190.584) rotate(0) scale(0.047999997)">
<use href="#path38" transform="translate(0 0)"/>
</g>
</g>
<g>
<g data-source-text="" fill="#dee4e3" transform="translate(1104 190.584) rotate(0) scale(0.047999997)">
<use href="#path39" transform="translate(0 0)"/>
</g>
</g>
<g>
<g data-source-text="" fill="#dee4e3" transform="translate(1176 190.584) rotate(0) scale(0.047999997)">
<use href="#path40" transform="translate(0 0)"/>
</g>
</g>
<g>
<g data-source-text="" fill="#dee4e3" transform="translate(1248 190.584) rotate(0) scale(0.047999997)">
<use href="#path41" transform="translate(0 0)"/>
</g>
</g>
<g>
<g data-source-text="U+E0C0" fill="#dee4e3" transform="translate(36 257.292) rotate(0) scale(0.023999998)">
<use href="#path17" transform="translate(0 0)"/>
<use href="#path18" transform="translate(500 0)"/>
<use href="#path15" transform="translate(1000 0)"/>
<use href="#path1" transform="translate(1500 0)"/>
<use href="#path13" transform="translate(2000 0)"/>
<use href="#path1" transform="translate(2500 0)"/>
</g>
</g>
<g>
<g data-source-text="" fill="#dee4e340" transform="translate(168 262.584) rotate(0) scale(0.047999997)">
<use href="#path23" transform="translate(0 0)"/>
</g>
</g>
<g>
<g data-source-text="" fill="#dee4e340" transform="translate(240 262.584) rotate(0) scale(0.047999997)">
<use href="#path23" transform="translate(0 0)"/>
</g>
</g>
<g>
<g data-source-text="" fill="#dee4e340" transform="translate(312 262.584) rotate(0) scale(0.047999997)">
<use href="#path23" transform="translate(0 0)"/>
</g>
</g>
<g>
<g data-source-text="" fill="#dee4e340" transform="translate(384 262.584) rotate(0) scale(0.047999997)">
<use href="#path23" transform="translate(0 0)"/>
</g>
</g>
<g>
<g data-source-text="" fill="#dee4e340" transform="translate(456 262.584) rotate(0) scale(0.047999997)">
<use href="#path23" transform="translate(0 0)"/>
</g>
</g>
<g>
<g data-source-text="" fill="#dee4e340" transform="translate(528 262.584) rotate(0) scale(0.047999997)">
<use href="#path23" transform="translate(0 0)"/>
</g>
</g>
<g>
<g data-source-text="" fill="#dee4e340" transform="translate(600 262.584) rotate(0) scale(0.047999997)">
<use href="#path23" transform="translate(0 0)"/>
</g>
</g>
<g>
<g data-source-text="" fill="#dee4e340" transform="translate(672 262.584) rotate(0) scale(0.047999997)">
<use href="#path23" transform="translate(0 0)"/>
</g>
</g>
<g>
<g data-source-text="" fill="#dee4e340" transform="translate(744 262.584) rotate(0) scale(0.047999997)">
<use href="#path23" transform="translate(0 0)"/>
</g>
</g>
<g>
<g data-source-text="" fill="#dee4e340" transform="translate(816 262.584) rotate(0) scale(0.047999997)">
<use href="#path23" transform="translate(0 0)"/>
</g>
</g>
<g>
<g data-source-text="" fill="#dee4e340" transform="translate(888 262.584) rotate(0) scale(0.047999997)">
<use href="#path23" transform="translate(0 0)"/>
</g>
</g>
<g>
<g data-source-text="" fill="#dee4e340" transform="translate(960 262.584) rotate(0) scale(0.047999997)">
<use href="#path23" transform="translate(0 0)"/>
</g>
</g>
<g>
<g data-source-text="" fill="#dee4e340" transform="translate(1032 262.584) rotate(0) scale(0.047999997)">
<use href="#path23" transform="translate(0 0)"/>
</g>
</g>
<g>
<g data-source-text="" fill="#dee4e340" transform="translate(1104 262.584) rotate(0) scale(0.047999997)">
<use href="#path23" transform="translate(0 0)"/>
</g>
</g>
<g>
<g data-source-text="" fill="#dee4e340" transform="translate(1176 262.584) rotate(0) scale(0.047999997)">
<use href="#path23" transform="translate(0 0)"/>
</g>
</g>
<g>
<g data-source-text="" fill="#dee4e340" transform="translate(1248 262.584) rotate(0) scale(0.047999997)">
<use href="#path23" transform="translate(0 0)"/>
</g>
</g>
<g>
<g data-source-text="U+E0D0" fill="#dee4e3" transform="translate(36 329.292) rotate(0) scale(0.023999998)">
<use href="#path17" transform="translate(0 0)"/>
<use href="#path18" transform="translate(500 0)"/>
<use href="#path15" transform="translate(1000 0)"/>
<use href="#path1" transform="translate(1500 0)"/>
<use href="#path14" transform="translate(2000 0)"/>
<use href="#path1" transform="translate(2500 0)"/>
</g>
</g>
<g>
<g data-source-text="" fill="#dee4e340" transform="translate(168 334.584) rotate(0) scale(0.047999997)">
<use href="#path23" transform="translate(0 0)"/>
</g>
</g>
<g>
<g data-source-text="" fill="#dee4e340" transform="translate(240 334.584) rotate(0) scale(0.047999997)">
<use href="#path23" transform="translate(0 0)"/>
</g>
</g>
<g>
<g data-source-text="" fill="#dee4e340" transform="translate(312 334.584) rotate(0) scale(0.047999997)">
<use href="#path23" transform="translate(0 0)"/>
</g>
</g>
<g>
<g data-source-text="" fill="#dee4e340" transform="translate(384 334.584) rotate(0) scale(0.047999997)">
<use href="#path23" transform="translate(0 0)"/>
</g>
</g>
<g>
<g data-source-text="" fill="#dee4e340" transform="translate(456 334.584) rotate(0) scale(0.047999997)">
<use href="#path23" transform="translate(0 0)"/>
</g>
</g>
<g>
<g data-source-text="" fill="#dee4e340" transform="translate(528 334.584) rotate(0) scale(0.047999997)">
<use href="#path23" transform="translate(0 0)"/>
</g>
</g>
<g>
<g data-source-text="" fill="#dee4e340" transform="translate(600 334.584) rotate(0) scale(0.047999997)">
<use href="#path23" transform="translate(0 0)"/>
</g>
</g>
<g>
<g data-source-text="" fill="#dee4e340" transform="translate(672 334.584) rotate(0) scale(0.047999997)">
<use href="#path23" transform="translate(0 0)"/>
</g>
</g>
<g>
<g data-source-text="" fill="#dee4e340" transform="translate(744 334.584) rotate(0) scale(0.047999997)">
<use href="#path23" transform="translate(0 0)"/>
</g>
</g>
<g>
<g data-source-text="" fill="#dee4e340" transform="translate(816 334.584) rotate(0) scale(0.047999997)">
<use href="#path23" transform="translate(0 0)"/>
</g>
</g>
<g>
<g data-source-text="" fill="#dee4e340" transform="translate(888 334.584) rotate(0) scale(0.047999997)">
<use href="#path23" transform="translate(0 0)"/>
</g>
</g>
<g>
<g data-source-text="" fill="#dee4e340" transform="translate(960 334.584) rotate(0) scale(0.047999997)">
<use href="#path23" transform="translate(0 0)"/>
</g>
</g>
<g>
<g data-source-text="" fill="#dee4e340" transform="translate(1032 334.584) rotate(0) scale(0.047999997)">
<use href="#path23" transform="translate(0 0)"/>
</g>
</g>
<g>
<g data-source-text="" fill="#dee4e340" transform="translate(1104 334.584) rotate(0) scale(0.047999997)">
<use href="#path23" transform="translate(0 0)"/>
</g>
</g>
<g>
<g data-source-text="" fill="#dee4e340" transform="translate(1176 334.584) rotate(0) scale(0.047999997)">
<use href="#path23" transform="translate(0 0)"/>
</g>
</g>
<g>
<g data-source-text="" fill="#dee4e340" transform="translate(1248 334.584) rotate(0) scale(0.047999997)">
<use href="#path23" transform="translate(0 0)"/>
</g>
</g>
</svg>