<?xml version="1.0" encoding="UTF-8" standalone="no"?>
<svg height="1224" viewBox="0 0 1296 1224" width="1296" xmlns="http://www.w3.org/2000/svg">
<defs>
<path d="M 250 8 Q 223 8 196 3 Q 169 -2 145 -15 Q 121 -28 102.5 -48.5 Q 84 -69 72.5 -94 Q 61 -119 56.5 -146 Q 52 -173 52 -200 L 52 -535 Q 52 -562 56.5 -589 Q 61 -616 72.5 -641 Q 84 -666 102.5 -686.5 Q 121 -707 145 -720 Q 169 -733 196 -738 Q 223 -743 250 -743 Q 277 -743 304 -738 Q 331 -733 355 -720 Q 379 -707 397.5 -686.5 Q 416 -666 427.5 -641 Q 439 -616 443.5 -589 Q 448 -562 448 -535 L 448 -200 Q 448 -173 443.5 -146 Q 439 -119 427.5 -94 Q 416 -69 397.5 -48.5 Q 379 -28 355 -15 Q 331 -2 304 3 Q 277 8 250 8 Z M 152 -338 L 348 -493 L 348 -535 Q 348 -557 343 -579 Q 338 -601 325.5 -618.5 Q 313 -636 292.5 -645.5 Q 272 -655 250 -655 Q 228 -655 207.5 -645.5 Q 187 -636 174.5 -618.5 Q 162 -601 157 -579 Q 152 -557 152 -535 Z M 250 -80 Q 272 -80 292.5 -89.5 Q 313 -99 325.5 -116.5 Q 338 -134 343 -156 Q 348 -178 348 -200 L 348 -397 L 152 -242 L 152 -200 Q 152 -178 157 -156 Q 162 -134 174.5 -116.5 Q 187 -99 207.5 -89.5 Q 228 -80 250 -80 Z " id="path1"/>
<path d="M 230 0 L 230 -632 L 110 -528 L 55 -584 L 230 -735 L 330 -735 L 330 0 Z " id="path2"/>
<path d="M 60 0 L 60 -1 Q 60 -27 61 -54 Q 62 -81 65.5 -107 Q 69 -133 77 -158.5 Q 85 -184 96.5 -208 Q 108 -232 123 -253.5 Q 138 -275 156 -294.5 Q 174 -314 194 -331 Q 214 -348 235.5 -364 Q 257 -380 277.5 -397 Q 298 -414 313 -435.5 Q 328 -457 336 -483 Q 344 -509 344 -535 Q 344 -557 339.5 -578 Q 335 -599 323.5 -617 Q 312 -635 292 -645 Q 272 -655 251 -655 Q 231 -655 212.5 -647.5 Q 194 -640 181.5 -625 Q 169 -610 163.5 -591 Q 158 -572 158 -552 L 158 -548 L 58 -548 L 58 -555 Q 58 -581 63.5 -606 Q 69 -631 81 -653 Q 93 -675 111.5 -693 Q 130 -711 152.5 -722.5 Q 175 -734 200.5 -738.5 Q 226 -743 251 -743 Q 278 -743 304.5 -737.5 Q 331 -732 354.5 -719 Q 378 -706 396 -685.5 Q 414 -665 425 -640.5 Q 436 -616 440 -589 Q 444 -562 444 -535 Q 444 -501 435 -468 Q 426 -435 407.5 -406 Q 389 -377 364 -353.5 Q 339 -330 312.5 -308.5 Q 286 -287 261 -264 Q 236 -241 216 -213 Q 196 -185 183 -153.5 Q 170 -122 165 -88 L 440 -88 L 440 0 Z " id="path3"/>
<path d="M 253 8 Q 227 8 201 4 Q 175 -0 151 -11.5 Q 127 -23 107.5 -40.5 Q 88 -58 75.5 -81 Q 63 -104 56.5 -129.5 Q 50 -155 50 -181 L 50 -187 L 150 -187 L 150 -184 Q 150 -163 157 -143 Q 164 -123 178 -108 Q 192 -93 212 -86.5 Q 232 -80 253 -80 Q 275 -80 296 -88.5 Q 317 -97 330.5 -114.5 Q 344 -132 350 -154 Q 356 -176 356 -198 Q 356 -217 352 -235.5 Q 348 -254 339 -271 Q 330 -288 316.5 -301 Q 303 -314 286 -322 Q 269 -330 250 -332 Q 231 -334 212 -334 L 212 -422 Q 229 -422 246 -424 Q 263 -426 278.5 -433 Q 294 -440 306 -452.5 Q 318 -465 325.5 -480.5 Q 333 -496 336.5 -513 Q 340 -530 340 -547 Q 340 -566 335.5 -585.5 Q 331 -605 320 -621.5 Q 309 -638 291 -646.5 Q 273 -655 253 -655 Q 234 -655 216 -647 Q 198 -639 187 -624 Q 176 -609 171 -590 Q 166 -571 166 -553 L 166 -548 L 66 -548 L 66 -556 Q 66 -581 71.5 -605.5 Q 77 -630 88 -652 Q 99 -674 116.5 -692.5 Q 134 -711 156.5 -722.5 Q 179 -734 203.5 -738.5 Q 228 -743 253 -743 Q 278 -743 303.5 -738 Q 329 -733 351 -721 Q 373 -709 390.5 -690 Q 408 -671 419 -648 Q 430 -625 435 -600 Q 440 -575 440 -550 Q 440 -524 434 -498.5 Q 428 -473 416 -450.5 Q 404 -428 385 -409.5 Q 366 -391 343 -379 Q 370 -368 391.5 -348.5 Q 413 -329 427.5 -304.5 Q 442 -280 449 -252 Q 456 -224 456 -196 Q 456 -168 450 -141.5 Q 444 -115 432 -91 Q 420 -67 401 -47 Q 382 -27 358 -14.5 Q 334 -2 307 3 Q 280 8 253 8 Z " id="path4"/>
<path d="M 282 0 L 282 -188 L 52 -188 L 52 -275 L 276 -735 L 377 -735 L 152 -275 L 282 -275 L 282 -435 L 383 -435 L 383 -275 L 440 -275 L 440 -188 L 383 -188 L 383 0 Z " id="path5"/>
<path d="M 252 8 Q 227 8 202.5 3.5 Q 178 -1 155.5 -12 Q 133 -23 114.5 -41 Q 96 -59 84 -80.5 Q 72 -102 65.5 -126.5 Q 59 -151 58 -176 L 159 -176 Q 160 -158 166.5 -139.5 Q 173 -121 185.5 -107 Q 198 -93 216 -86.5 Q 234 -80 252 -80 Q 269 -80 285 -87 Q 301 -94 312.5 -107 Q 324 -120 330.5 -135.5 Q 337 -151 341 -167.5 Q 345 -184 346.5 -201 Q 348 -218 348 -235 Q 348 -252 346.5 -269 Q 345 -286 341.5 -302.5 Q 338 -319 331.5 -334.5 Q 325 -350 314.5 -363 Q 304 -376 288 -383.5 Q 272 -391 256 -391 Q 240 -391 224 -387 Q 208 -383 195.5 -373.5 Q 183 -364 176 -349.5 Q 169 -335 168 -319 L 68 -319 L 68 -735 L 421 -735 L 421 -647 L 168 -647 L 168 -464 Q 189 -472 211 -475 Q 233 -478 256 -478 Q 285 -478 313.5 -470.5 Q 342 -463 365.5 -445.5 Q 389 -428 405.5 -403 Q 422 -378 431.5 -350.5 Q 441 -323 444.5 -294 Q 448 -265 448 -235 Q 448 -206 444.5 -176.5 Q 441 -147 431 -119 Q 421 -91 404.5 -66.5 Q 388 -42 364 -24.5 Q 340 -7 311 0.5 Q 282 8 252 8 Z " id="path6"/>
<path d="M 250 8 Q 221 8 192.5 1.5 Q 164 -5 140 -21 Q 116 -37 98.5 -60.5 Q 81 -84 70.5 -111 Q 60 -138 56 -166.5 Q 52 -195 52 -224 Q 52 -268 59.5 -311 Q 67 -354 81 -395.5 Q 95 -437 113 -477 Q 131 -517 150 -556 L 238 -735 L 347 -735 L 240 -517 Q 228 -492 216 -467 Q 204 -442 194 -416 Q 212 -436 238.5 -446 Q 265 -456 292 -456 Q 318 -456 343.5 -447 Q 369 -438 387.5 -419.5 Q 406 -401 418 -377 Q 430 -353 436.5 -328 Q 443 -303 445.5 -276.5 Q 448 -250 448 -224 Q 448 -195 444 -166.5 Q 440 -138 429.5 -111 Q 419 -84 401.5 -60.5 Q 384 -37 360 -21 Q 336 -5 307.5 1.5 Q 279 8 250 8 Z M 250 -80 Q 266 -80 282 -85.5 Q 298 -91 309.5 -102.5 Q 321 -114 328.5 -129 Q 336 -144 340.5 -159.5 Q 345 -175 346.5 -191.5 Q 348 -208 348 -224 Q 348 -240 346.5 -256.5 Q 345 -273 340.5 -289 Q 336 -305 328.5 -319.5 Q 321 -334 309.5 -345.5 Q 298 -357 282 -362.5 Q 266 -368 250 -368 Q 235 -368 221 -363.5 Q 207 -359 195.5 -349.5 Q 184 -340 176 -327.5 Q 168 -315 163.5 -301 Q 159 -287 156.5 -272.5 Q 154 -258 153 -243 Q 153 -238 152.5 -233.5 Q 152 -229 152 -224 Q 152 -208 153.5 -191.5 Q 155 -175 159.5 -159.5 Q 164 -144 171.5 -129 Q 179 -114 190.5 -102.5 Q 202 -91 218 -85.5 Q 234 -80 250 -80 Z " id="path7"/>
<path d="M 138 0 L 336 -647 L 60 -647 L 60 -735 L 440 -735 L 440 -647 L 242 0 Z " id="path8"/>
<path d="M 250 8 Q 225 8 200 4 Q 175 -0 152 -10 Q 129 -20 109.5 -37 Q 90 -54 77.5 -75.5 Q 65 -97 58.5 -121.5 Q 52 -146 52 -172 Q 52 -203 61.5 -232.5 Q 71 -262 88 -288.5 Q 105 -315 127 -336.5 Q 149 -358 174 -378 Q 152 -396 132.5 -417 Q 113 -438 98.5 -462.5 Q 84 -487 76 -514.5 Q 68 -542 68 -570 Q 68 -594 73.5 -617.5 Q 79 -641 90.5 -661.5 Q 102 -682 119.5 -698.5 Q 137 -715 158 -725 Q 179 -735 202.5 -739 Q 226 -743 250 -743 Q 274 -743 297.5 -739 Q 321 -735 342 -725 Q 363 -715 380.5 -698.5 Q 398 -682 409.5 -661.5 Q 421 -641 426.5 -617.5 Q 432 -594 432 -570 Q 432 -542 424 -514.5 Q 416 -487 401.5 -462.5 Q 387 -438 367.5 -417 Q 348 -396 326 -378 Q 351 -358 373 -336.5 Q 395 -315 412 -288.5 Q 429 -262 438.5 -232.5 Q 448 -203 448 -172 Q 448 -146 441.5 -121.5 Q 435 -97 422.5 -75.5 Q 410 -54 390.5 -37 Q 371 -20 348 -10 Q 325 -0 300 4 Q 275 8 250 8 Z M 250 -434 Q 266 -447 280.5 -461.5 Q 295 -476 306.5 -493 Q 318 -510 325 -529.5 Q 332 -549 332 -569 Q 332 -586 327 -602.5 Q 322 -619 310.5 -631.5 Q 299 -644 283 -649.5 Q 267 -655 250 -655 Q 233 -655 217 -649.5 Q 201 -644 189.5 -631.5 Q 178 -619 173 -602.5 Q 168 -586 168 -569 Q 168 -549 175 -529.5 Q 182 -510 193.5 -493 Q 205 -476 219.5 -461.5 Q 234 -447 250 -434 Z M 250 -80 Q 269 -80 288 -85.5 Q 307 -91 320.5 -104 Q 334 -117 341 -135.5 Q 348 -154 348 -173 Q 348 -196 339.5 -217.5 Q 331 -239 317 -257.5 Q 303 -276 285.5 -291 Q 268 -306 250 -320 Q 232 -306 214.5 -291 Q 197 -276 183 -257.5 Q 169 -239 160.5 -217.5 Q 152 -196 152 -173 Q 152 -154 159 -135.5 Q 166 -117 179.5 -104 Q 193 -91 212 -85.5 Q 231 -80 250 -80 Z " id="path9"/>
<path d="M 262 0 L 153 0 L 260 -218 Q 272 -243 284 -268 Q 296 -293 306 -319 Q 288 -299 261.5 -289 Q 235 -279 208 -279 Q 182 -279 156.5 -288 Q 131 -297 112.5 -315.5 Q 94 -334 82 -358 Q 70 -382 63.5 -407 Q 57 -432 54.5 -458.5 Q 52 -485 52 -511 Q 52 -540 56 -568.5 Q 60 -597 70.5 -624 Q 81 -651 98.5 -674.5 Q 116 -698 140 -714 Q 164 -730 192.5 -736.5 Q 221 -743 250 -743 Q 279 -743 307.5 -736.5 Q 336 -730 360 -714 Q 384 -698 401.5 -674.5 Q 419 -651 429.5 -624 Q 440 -597 444 -568.5 Q 448 -540 448 -511 Q 448 -467 440.5 -424 Q 433 -381 419 -339.5 Q 405 -298 387 -258 Q 369 -218 350 -179 Z M 250 -367 Q 265 -367 279 -371.5 Q 293 -376 304.5 -385.5 Q 316 -395 324 -407.5 Q 332 -420 336.5 -434 Q 341 -448 343.5 -462.5 Q 346 -477 347 -492 Q 347 -497 347.5 -501.5 Q 348 -506 348 -511 Q 348 -527 346.5 -543.5 Q 345 -560 340.5 -575.5 Q 336 -591 328.5 -606 Q 321 -621 309.5 -632.5 Q 298 -644 282 -649.5 Q 266 -655 250 -655 Q 234 -655 218 -649.5 Q 202 -644 190.5 -632.5 Q 179 -621 171.5 -606 Q 164 -591 159.5 -575.5 Q 155 -560 153.5 -543.5 Q 152 -527 152 -511 Q 152 -495 153.5 -478.5 Q 155 -462 159.5 -446 Q 164 -430 171.5 -415.5 Q 179 -401 190.5 -389.5 Q 202 -378 218 -372.5 Q 234 -367 250 -367 Z " id="path10"/>
<path d="M 39 0 L 53 -70 L 192 -735 L 308 -735 L 461 0 L 359 0 L 326 -172 L 174 -172 L 141 0 Z M 310 -260 L 267 -490 Q 263 -513 258.5 -536 Q 254 -559 250 -582 Q 246 -559 241.5 -536 Q 237 -513 233 -490 L 190 -260 Z " id="path11"/>
<path d="M 60 0 L 60 -735 L 235 -735 Q 261 -735 287 -730.5 Q 313 -726 336.5 -714 Q 360 -702 378.5 -682.5 Q 397 -663 408.5 -639.5 Q 420 -616 424.5 -590 Q 429 -564 429 -538 Q 429 -515 425.5 -492 Q 422 -469 411.5 -448.5 Q 401 -428 384.5 -411 Q 368 -394 348 -383 Q 373 -373 394.5 -355.5 Q 416 -338 430.5 -314.5 Q 445 -291 450.5 -264 Q 456 -237 456 -210 Q 456 -181 450.5 -152.5 Q 445 -124 431 -98.5 Q 417 -73 395.5 -53.5 Q 374 -34 347.5 -21.5 Q 321 -9 292.5 -4.5 Q 264 -0 235 0 Z M 160 -424 L 235 -424 Q 256 -424 275.5 -432.5 Q 295 -441 307.5 -457.5 Q 320 -474 324.5 -494.5 Q 329 -515 329 -536 Q 329 -557 324.5 -577.5 Q 320 -598 307.5 -614.5 Q 295 -631 275.5 -639 Q 256 -647 235 -647 L 160 -647 Z M 160 -88 L 235 -88 Q 251 -88 267.5 -91 Q 284 -94 298.5 -101.5 Q 313 -109 324.5 -121 Q 336 -133 343 -148 Q 350 -163 353 -179 Q 356 -195 356 -212 Q 356 -228 353 -244.5 Q 350 -261 343 -276 Q 336 -291 324.5 -303 Q 313 -315 298.5 -322.5 Q 284 -330 267.5 -333 Q 251 -336 235 -336 L 160 -336 Z " id="path12"/>
<path d="M 247 8 Q 220 8 193 3 Q 166 -2 142.5 -15.5 Q 119 -29 101 -49.5 Q 83 -70 71.5 -94.5 Q 60 -119 56 -146 Q 52 -173 52 -200 L 52 -535 Q 52 -562 56 -589 Q 60 -616 71.5 -640.5 Q 83 -665 101 -685.5 Q 119 -706 142.5 -719.5 Q 166 -733 193 -738 Q 220 -743 247 -743 Q 273 -743 298 -738.5 Q 323 -734 346 -723 Q 369 -712 387.5 -694 Q 406 -676 418 -653.5 Q 430 -631 436 -606 Q 442 -581 442 -555 L 442 -548 L 342 -548 L 342 -552 Q 342 -572 336 -591.5 Q 330 -611 317.5 -626 Q 305 -641 286 -648 Q 267 -655 247 -655 Q 225 -655 205 -645.5 Q 185 -636 173 -618 Q 161 -600 156.5 -578.5 Q 152 -557 152 -535 L 152 -200 Q 152 -178 156.5 -156.5 Q 161 -135 173 -117 Q 185 -99 205 -89.5 Q 225 -80 247 -80 Q 267 -80 286 -87 Q 305 -94 317.5 -109 Q 330 -124 336 -143.5 Q 342 -163 342 -183 L 342 -187 L 442 -187 L 442 -180 Q 442 -154 436 -129 Q 430 -104 418 -81.5 Q 406 -59 387.5 -41 Q 369 -23 346 -12 Q 323 -1 298 3.5 Q 273 8 247 8 Z " id="path13"/>
<path d="M 60 0 L 60 -735 L 220 -735 Q 250 -735 280.5 -730.5 Q 311 -726 339 -713.5 Q 367 -701 390.5 -680 Q 414 -659 429 -632.5 Q 444 -606 450 -575.5 Q 456 -545 456 -515 L 456 -220 Q 456 -190 450 -159.5 Q 444 -129 429 -102.5 Q 414 -76 390.5 -55 Q 367 -34 339 -21.5 Q 311 -9 280.5 -4.5 Q 250 -0 220 0 Z M 160 -88 L 220 -88 Q 238 -88 256 -91 Q 274 -94 290 -101.5 Q 306 -109 319 -122 Q 332 -135 340.5 -151 Q 349 -167 352.5 -184.5 Q 356 -202 356 -220 L 356 -515 Q 356 -533 352.5 -550.5 Q 349 -568 340.5 -584 Q 332 -600 319 -613 Q 306 -626 290 -633.5 Q 274 -641 256 -644 Q 238 -647 220 -647 L 160 -647 Z " id="path14"/>
<path d="M 68 0 L 68 -735 L 440 -735 L 440 -647 L 168 -647 L 168 -426 L 383 -426 L 383 -338 L 168 -338 L 168 -88 L 440 -88 L 440 0 Z " id="path15"/>
<path d="M 90 0 L 90 -735 L 440 -735 L 440 -647 L 190 -647 L 190 -426 L 383 -426 L 383 -338 L 190 -338 L 190 0 Z " id="path16"/>
<path d="M 250 8 Q 223 8 196.5 2.5 Q 170 -3 147 -16.5 Q 124 -30 106.5 -50.5 Q 89 -71 78.5 -95.5 Q 68 -120 64 -146.5 Q 60 -173 60 -200 L 60 -735 L 160 -735 L 160 -200 Q 160 -186 161.5 -172 Q 163 -158 167.5 -144.5 Q 172 -131 179.5 -118.5 Q 187 -106 197.5 -97 Q 208 -88 222 -84 Q 236 -80 250 -80 Q 264 -80 278 -84 Q 292 -88 302.5 -97 Q 313 -106 320.5 -118.5 Q 328 -131 332.5 -144.5 Q 337 -158 338.5 -172 Q 340 -186 340 -200 L 340 -735 L 440 -735 L 440 -200 Q 440 -173 436 -146.5 Q 432 -120 421.5 -95.5 Q 411 -71 393.5 -50.5 Q 376 -30 353 -16.5 Q 330 -3 303.5 2.5 Q 277 8 250 8 Z " id="path17"/>
<path d="M 296 -142 L 204 -142 L 204 -300 L 60 -300 L 60 -380 L 204 -380 L 204 -538 L 296 -538 L 296 -380 L 440 -380 L 440 -300 L 296 -300 Z " id="path18"/>
<path d="M 164 -218 L 42 -340 L 164 -462 L 164 -363 L 942 -363 L 942 -317 L 164 -317 Z " id="path19"/>
<path d="M 477 102 L 477 -676 L 378 -676 L 500 -798 L 622 -676 L 523 -676 L 523 102 Z " id="path20"/>
<path d="M 836 -218 L 836 -317 L 58 -317 L 58 -363 L 836 -363 L 836 -462 L 958 -340 Z " id="path21"/>
<path d="M 500 118 L 378 -4 L 477 -4 L 477 -782 L 523 -782 L 523 -4 L 622 -4 Z " id="path22"/>
<path d="M 204 -178 L 42 -340 L 204 -502 L 204 -377 L 942 -377 L 942 -303 L 204 -303 Z " id="path23"/>
<path d="M 463 102 L 463 -636 L 338 -636 L 500 -798 L 662 -636 L 537 -636 L 537 102 Z " id="path24"/>
<path d="M 796 -178 L 796 -303 L 58 -303 L 58 -377 L 796 -377 L 796 -502 L 958 -340 Z " id="path25"/>
<path d="M 500 118 L 338 -44 L 463 -44 L 463 -782 L 537 -782 L 537 -44 L 662 -44 Z " id="path26"/>
<path d="M 290 -92 L 42 -340 L 290 -588 L 290 -392 L 942 -392 L 942 -288 L 290 -288 Z " id="path27"/>
<path d="M 448 102 L 448 -550 L 252 -550 L 500 -798 L 748 -550 L 552 -550 L 552 102 Z " id="path28"/>
<path d="M 710 -92 L 710 -288 L 58 -288 L 58 -392 L 710 -392 L 710 -588 L 958 -340 Z " id="path29"/>
<path d="M 500 118 L 252 -130 L 448 -130 L 448 -782 L 552 -782 L 552 -130 L 748 -130 Z " id="path30"/>
<path d="M 64 0 L 64 -735 L 436 -735 L 436 0 Z M 104 -333 L 394 -695 L 300 -695 L 104 -450 Z M 104 -489 L 269 -695 L 175 -695 L 104 -606 Z M 104 -645 L 144 -695 L 104 -695 Z M 104 -176 L 396 -543 L 396 -660 L 104 -294 Z M 104 -40 L 119 -40 L 396 -386 L 396 -504 L 104 -137 Z M 150 -40 L 244 -40 L 396 -230 L 396 -347 Z M 275 -40 L 369 -40 L 396 -74 L 396 -191 Z " id="path31"/>
<path d="M 241 -218 L 42 -340 L 241 -462 L 241 -363 L 942 -363 L 942 -317 L 241 -317 Z " id="path32"/>
<path d="M 477 102 L 477 -599 L 378 -599 L 500 -798 L 622 -599 L 523 -599 L 523 102 Z " id="path33"/>
<path d="M 759 -218 L 759 -317 L 58 -317 L 58 -363 L 759 -363 L 759 -462 L 958 -340 Z " id="path34"/>
<path d="M 500 118 L 378 -81 L 477 -81 L 477 -782 L 523 -782 L 523 -81 L 622 -81 Z " id="path35"/>
<path d="M 379 -138 L 42 -340 L 379 -542 L 379 -370 L 942 -370 L 942 -310 L 379 -310 Z " id="path36"/>
<path d="M 470 102 L 470 -461 L 298 -461 L 500 -798 L 702 -461 L 530 -461 L 530 102 Z " id="path37"/>
<path d="M 621 -138 L 621 -310 L 58 -310 L 58 -370 L 621 -370 L 621 -542 L 958 -340 Z " id="path38"/>
<path d="M 500 118 L 298 -219 L 470 -219 L 470 -782 L 530 -782 L 530 -219 L 702 -219 Z " id="path39"/>
<path d="M 379 -138 L 42 -340 L 379 -542 L 379 -377 L 942 -377 L 942 -303 L 379 -303 Z " id="path40"/>
<path d="M 463 102 L 463 -461 L 298 -461 L 500 -798 L 702 -461 L 537 -461 L 537 102 Z " id="path41"/>
<path d="M 621 -138 L 621 -303 L 58 -303 L 58 -377 L 621 -377 L 621 -542 L 958 -340 Z " id="path42"/>
<path d="M 500 118 L 298 -219 L 463 -219 L 463 -782 L 537 -782 L 537 -219 L 702 -219 Z " id="path43"/>
<path d="M 460 -92 L 42 -340 L 460 -588 L 460 -392 L 942 -392 L 942 -288 L 460 -288 Z " id="path44"/>
<path d="M 448 102 L 448 -380 L 252 -380 L 500 -798 L 748 -380 L 552 -380 L 552 102 Z " id="path45"/>
<path d="M 540 -92 L 540 -288 L 58 -288 L 58 -392 L 540 -392 L 540 -588 L 958 -340 Z " id="path46"/>
<path d="M 500 118 L 252 -300 L 448 -300 L 448 -782 L 552 -782 L 552 -300 L 748 -300 Z " id="path47"/>
<path d="M 243 -138 L 42 -340 L 243 -542 L 243 -363 L 942 -363 L 942 -317 L 243 -317 Z " id="path48"/>
<path d="M 477 102 L 477 -597 L 298 -597 L 500 -798 L 702 -597 L 523 -597 L 523 102 Z " id="path49"/>
<path d="M 757 -138 L 757 -317 L 58 -317 L 58 -363 L 757 -363 L 757 -542 L 958 -340 Z " id="path50"/>
<path d="M 500 118 L 298 -83 L 477 -83 L 477 -782 L 523 -782 L 523 -83 L 702 -83 Z " id="path51"/>
<path d="M 243 -138 L 42 -340 L 243 -542 L 243 -377 L 942 -377 L 942 -303 L 243 -303 Z " id="path52"/>
<path d="M 463 102 L 463 -597 L 298 -597 L 500 -798 L 702 -597 L 537 -597 L 537 102 Z " id="path53"/>
<path d="M 757 -138 L 757 -303 L 58 -303 L 58 -377 L 757 -377 L 757 -542 L 958 -340 Z " id="path54"/>
<path d="M 500 118 L 298 -83 L 463 -83 L 463 -782 L 537 -782 L 537 -83 L 702 -83 Z " id="path55"/>
<path d="M 243 -138 L 42 -340 L 243 -542 L 243 -392 L 942 -392 L 942 -288 L 243 -288 Z " id="path56"/>
<path d="M 448 102 L 448 -597 L 298 -597 L 500 -798 L 702 -597 L 552 -597 L 552 102 Z " id="path57"/>
<path d="M 757 -138 L 757 -288 L 58 -288 L 58 -392 L 757 -392 L 757 -542 L 958 -340 Z " id="path58"/>
<path d="M 500 118 L 298 -83 L 448 -83 L 448 -782 L 552 -782 L 552 -83 L 702 -83 Z " id="path59"/>
<path d="M 243 -138 L 42 -340 L 243 -542 L 243 -408 L 942 -408 L 942 -272 L 243 -272 Z " id="path60"/>
<path d="M 432 102 L 432 -597 L 298 -597 L 500 -798 L 702 -597 L 568 -597 L 568 102 Z " id="path61"/>
<path d="M 757 -138 L 757 -272 L 58 -272 L 58 -408 L 757 -408 L 757 -542 L 958 -340 Z " id="path62"/>
<path d="M 500 118 L 298 -83 L 432 -83 L 432 -782 L 568 -782 L 568 -83 L 702 -83 Z " id="path63"/>
<path d="M 243 -138 L 42 -340 L 243 -542 L 243 -417 L 942 -417 L 942 -263 L 243 -263 Z " id="path64"/>
<path d="M 423 102 L 423 -597 L 298 -597 L 500 -798 L 702 -597 L 577 -597 L 577 102 Z " id="path65"/>
<path d="M 757 -138 L 757 -263 L 58 -263 L 58 -417 L 757 -417 L 757 -542 L 958 -340 Z " id="path66"/>
<path d="M 500 118 L 298 -83 L 423 -83 L 423 -782 L 577 -782 L 577 -83 L 702 -83 Z " id="path67"/>
<path d="M 243 -138 L 42 -340 L 243 -542 L 942 -542 L 942 -138 Z " id="path68"/>
<path d="M 298 102 L 298 -597 L 500 -798 L 702 -597 L 702 102 Z " id="path69"/>
<path d="M 58 -138 L 58 -542 L 757 -542 L 958 -340 L 757 -138 Z " id="path70"/>
<path d="M 500 118 L 298 -83 L 298 -782 L 702 -782 L 702 -83 Z " id="path71"/>
<path d="M 557 -95 L 312 -340 L 557 -585 L 557 -455 L 672 -455 L 672 -225 L 557 -225 Z " id="path72"/>
<path d="M 385 -168 L 385 -283 L 255 -283 L 500 -528 L 745 -283 L 615 -283 L 615 -168 Z " id="path73"/>
<path d="M 443 -95 L 443 -225 L 328 -225 L 328 -455 L 443 -455 L 443 -585 L 688 -340 Z " id="path74"/>
<path d="M 500 -152 L 255 -397 L 385 -397 L 385 -512 L 615 -512 L 615 -397 L 745 -397 Z " id="path75"/>
<path d="M 557 43 L 312 -340 L 557 -723 L 557 -524 L 672 -524 L 672 -156 L 557 -156 Z " id="path76"/>
<path d="M 684 -168 L 316 -168 L 316 -283 L 117 -283 L 500 -528 L 883 -283 L 684 -283 Z " id="path77"/>
<path d="M 443 43 L 443 -156 L 328 -156 L 328 -524 L 443 -524 L 443 -723 L 688 -340 Z " id="path78"/>
<path d="M 500 -152 L 117 -397 L 316 -397 L 316 -512 L 684 -512 L 684 -397 L 883 -397 Z " id="path79"/>
<path d="M 557 43 L 312 -340 L 557 -723 L 557 -558 L 672 -558 L 672 -122 L 557 -122 Z " id="path80"/>
<path d="M 282 -168 L 282 -283 L 117 -283 L 500 -528 L 883 -283 L 718 -283 L 718 -168 Z " id="path81"/>
<path d="M 443 43 L 443 -122 L 328 -122 L 328 -558 L 443 -558 L 443 -723 L 688 -340 Z " id="path82"/>
<path d="M 500 -152 L 117 -397 L 282 -397 L 282 -512 L 718 -512 L 718 -397 L 883 -397 Z " id="path83"/>
<path d="M 425 43 L 42 -340 L 425 -723 L 425 -542 L 942 -542 L 942 -138 L 425 -138 Z " id="path84"/>
<path d="M 702 102 L 298 102 L 298 -415 L 117 -415 L 500 -798 L 883 -415 L 702 -415 Z " id="path85"/>
<path d="M 575 43 L 575 -138 L 58 -138 L 58 -542 L 575 -542 L 575 -723 L 958 -340 Z " id="path86"/>
<path d="M 500 118 L 117 -265 L 298 -265 L 298 -782 L 702 -782 L 702 -265 L 883 -265 Z " id="path87"/>
<path d="M 289 -93 L 42 -340 L 289 -587 L 337 -542 L 148 -373 L 942 -373 L 942 -307 L 148 -307 L 337 -138 Z " id="path88"/>
<path d="M 467 102 L 467 -692 L 298 -503 L 253 -551 L 500 -798 L 747 -551 L 702 -503 L 533 -692 L 533 102 Z " id="path89"/>
<path d="M 711 -93 L 663 -138 L 852 -307 L 58 -307 L 58 -373 L 852 -373 L 663 -542 L 711 -587 L 958 -340 Z " id="path90"/>
<path d="M 500 118 L 253 -129 L 298 -177 L 467 12 L 467 -782 L 533 -782 L 533 12 L 702 -177 L 747 -129 Z " id="path91"/>
<path d="M 848 30 L 169 -650 L 183 -397 L 117 -399 L 117 -749 L 467 -749 L 469 -683 L 216 -697 L 895 -17 Z " id="path92"/>
<path d="M 152 30 L 105 -17 L 784 -697 L 531 -683 L 533 -749 L 883 -749 L 883 -399 L 817 -397 L 831 -650 Z " id="path93"/>
<path d="M 883 18 L 533 18 L 531 -48 L 784 -34 L 105 -714 L 152 -761 L 831 -81 L 817 -334 L 883 -332 Z " id="path94"/>
<path d="M 117 18 L 117 -332 L 183 -334 L 169 -81 L 848 -761 L 895 -714 L 216 -34 L 469 -48 L 467 18 Z " id="path95"/>
<path d="M 289 -93 L 42 -340 L 289 -587 L 337 -542 L 148 -373 L 852 -373 L 663 -542 L 711 -587 L 958 -340 L 711 -93 L 663 -138 L 852 -307 L 148 -307 L 337 -138 Z " id="path96"/>
<path d="M 500 118 L 253 -129 L 298 -177 L 467 12 L 467 -692 L 298 -503 L 253 -551 L 500 -798 L 747 -551 L 702 -503 L 533 -692 L 533 12 L 702 -177 L 747 -129 Z " id="path97"/>
<path d="M 375 -59 L 323 -59 L 42 -340 L 323 -621 L 375 -621 L 117 -363 L 942 -363 L 942 -317 L 117 -317 Z " id="path98"/>
<path d="M 477 102 L 477 -723 L 219 -465 L 219 -517 L 500 -798 L 781 -517 L 781 -465 L 523 -723 L 523 102 Z " id="path99"/>
<path d="M 625 -59 L 883 -317 L 58 -317 L 58 -363 L 883 -363 L 625 -621 L 677 -621 L 958 -340 L 677 -59 Z " id="path100"/>
<path d="M 500 118 L 219 -163 L 219 -215 L 477 43 L 477 -782 L 523 -782 L 523 43 L 781 -215 L 781 -163 Z " id="path101"/>
<path d="M 856 23 L 153 -679 L 153 -314 L 117 -351 L 117 -749 L 514 -749 L 551 -712 L 186 -712 L 888 -10 Z " id="path102"/>
<path d="M 144 23 L 126 4 L 112 -10 L 814 -712 L 449 -712 L 486 -749 L 883 -749 L 883 -351 L 847 -314 L 847 -679 Z " id="path103"/>
<path d="M 883 18 L 486 18 L 449 -19 L 814 -19 L 112 -721 L 144 -754 L 847 -52 L 847 -417 L 883 -380 Z " id="path104"/>
<path d="M 514 18 L 117 18 L 117 -380 L 153 -417 L 153 -52 L 856 -754 L 888 -721 L 186 -19 L 551 -19 Z " id="path105"/>
<path d="M 406 -59 L 323 -59 L 42 -340 L 323 -621 L 406 -621 L 161 -377 L 942 -377 L 942 -303 L 161 -303 Z " id="path106"/>
<path d="M 463 102 L 463 -679 L 219 -434 L 219 -517 L 500 -798 L 781 -517 L 781 -434 L 537 -679 L 537 102 Z " id="path107"/>
<path d="M 594 -59 L 839 -303 L 58 -303 L 58 -377 L 839 -377 L 594 -621 L 677 -621 L 958 -340 L 677 -59 Z " id="path108"/>
<path d="M 500 118 L 219 -163 L 219 -246 L 463 -1 L 463 -782 L 537 -782 L 537 -1 L 781 -246 L 781 -163 Z " id="path109"/>
<path d="M 846 32 L 175 -638 L 175 -292 L 117 -351 L 117 -749 L 514 -749 L 573 -690 L 227 -690 L 898 -20 Z " id="path110"/>
<path d="M 154 32 L 119 -2 L 102 -20 L 773 -690 L 427 -690 L 486 -749 L 883 -749 L 883 -351 L 825 -292 L 825 -638 Z " id="path111"/>
<path d="M 883 18 L 486 18 L 427 -41 L 773 -41 L 102 -711 L 154 -763 L 825 -93 L 825 -438 L 883 -380 Z " id="path112"/>
<path d="M 117 18 L 117 -380 L 175 -438 L 175 -93 L 846 -763 L 898 -711 L 227 -41 L 573 -41 L 514 18 Z " id="path113"/>
<path d="M 439 -59 L 323 -59 L 42 -340 L 323 -621 L 439 -621 L 210 -392 L 942 -392 L 942 -288 L 210 -288 Z " id="path114"/>
<path d="M 448 102 L 448 -630 L 219 -401 L 219 -517 L 500 -798 L 781 -517 L 781 -401 L 552 -630 L 552 102 Z " id="path115"/>
<path d="M 561 -59 L 790 -288 L 58 -288 L 58 -392 L 790 -392 L 561 -621 L 677 -621 L 958 -340 L 677 -59 Z " id="path116"/>
<path d="M 500 118 L 219 -163 L 219 -279 L 448 -50 L 448 -782 L 552 -782 L 552 -50 L 781 -279 L 781 -163 Z " id="path117"/>
<path d="M 835 43 L 199 -593 L 199 -269 L 117 -351 L 117 -749 L 514 -749 L 597 -666 L 272 -666 L 908 -30 Z " id="path118"/>
<path d="M 165 43 L 92 -30 L 728 -666 L 403 -666 L 486 -749 L 883 -749 L 883 -351 L 801 -269 L 801 -593 Z " id="path119"/>
<path d="M 486 18 L 403 -65 L 728 -65 L 92 -701 L 165 -774 L 801 -138 L 801 -462 L 883 -380 L 883 18 Z " id="path120"/>
<path d="M 514 18 L 117 18 L 117 -380 L 199 -462 L 199 -138 L 835 -774 L 908 -701 L 272 -65 L 597 -65 Z " id="path121"/>
<path d="M 476 -59 L 323 -59 L 42 -340 L 323 -621 L 476 -621 L 263 -408 L 942 -408 L 942 -272 L 263 -272 Z " id="path122"/>
<path d="M 432 102 L 432 -577 L 219 -364 L 219 -517 L 500 -798 L 781 -517 L 781 -364 L 568 -577 L 568 102 Z " id="path123"/>
<path d="M 524 -59 L 737 -272 L 58 -272 L 58 -408 L 737 -408 L 524 -621 L 677 -621 L 958 -340 L 677 -59 Z " id="path124"/>
<path d="M 500 118 L 219 -163 L 219 -316 L 432 -103 L 432 -782 L 568 -782 L 568 -103 L 781 -316 L 781 -163 Z " id="path125"/>
<path d="M 824 55 L 225 -544 L 225 -243 L 117 -351 L 117 -749 L 514 -749 L 623 -640 L 321 -640 L 920 -42 Z " id="path126"/>
<path d="M 176 55 L 80 -42 L 679 -640 L 377 -640 L 486 -749 L 883 -749 L 883 -351 L 775 -243 L 775 -544 Z " id="path127"/>
<path d="M 883 18 L 486 18 L 377 -91 L 679 -91 L 80 -689 L 176 -785 L 775 -187 L 775 -488 L 883 -380 Z " id="path128"/>
<path d="M 117 18 L 117 -380 L 225 -488 L 225 -187 L 824 -785 L 920 -689 L 321 -91 L 623 -91 L 514 18 Z " id="path129"/>
<path d="M 495 -59 L 323 -59 L 42 -340 L 323 -621 L 495 -621 L 291 -417 L 942 -417 L 942 -263 L 291 -263 Z " id="path130"/>
<path d="M 423 102 L 423 -549 L 219 -345 L 219 -517 L 500 -798 L 781 -517 L 781 -345 L 577 -549 L 577 102 Z " id="path131"/>
<path d="M 505 -59 L 709 -263 L 58 -263 L 58 -417 L 709 -417 L 505 -621 L 677 -621 L 958 -340 L 677 -59 Z " id="path132"/>
<path d="M 500 118 L 219 -163 L 219 -335 L 423 -131 L 423 -782 L 577 -782 L 577 -131 L 781 -335 L 781 -163 Z " id="path133"/>
<path d="M 818 61 L 239 -518 L 239 -229 L 117 -351 L 117 -749 L 514 -749 L 636 -627 L 347 -627 L 926 -48 Z " id="path134"/>
<path d="M 182 61 L 177 55 L 74 -48 L 653 -627 L 364 -627 L 486 -749 L 883 -749 L 883 -351 L 761 -229 L 761 -518 Z " id="path135"/>
<path d="M 883 18 L 486 18 L 364 -104 L 653 -104 L 74 -683 L 182 -792 L 761 -213 L 761 -502 L 883 -380 Z " id="path136"/>
<path d="M 117 18 L 117 -380 L 239 -502 L 239 -213 L 818 -792 L 926 -683 L 347 -104 L 636 -104 L 514 18 Z " id="path137"/>
<path d="M 692 102 L 692 -278 L 274 -696 L 280 -441 L 223 -444 L 223 -794 L 573 -794 L 576 -737 L 321 -743 L 765 -299 L 765 102 Z " id="path138"/>
<path d="M 223 114 L 223 -236 L 280 -239 L 274 14 L 563 -276 Q 588 -301 612 -326.5 Q 636 -352 654 -382.5 Q 672 -413 682 -447 Q 692 -481 692 -516 Q 692 -544 686.5 -571 Q 681 -598 668 -622 Q 655 -646 634 -665 Q 613 -684 588.5 -695.5 Q 564 -707 536.5 -711.5 Q 509 -716 482 -716 L 235 -716 L 235 -782 L 482 -782 Q 518 -782 555 -776.5 Q 592 -771 625.5 -755.5 Q 659 -740 687 -715.5 Q 715 -691 733 -658.5 Q 751 -626 758 -589.5 Q 765 -553 765 -516 Q 765 -474 754 -433 Q 743 -392 722 -356 Q 701 -320 672.5 -289 Q 644 -258 615 -228 L 323 63 L 576 57 L 573 114 Z " id="path139"/>
<path d="M 500 56 L 295 -243 L 406 -243 L 406 -782 L 594 -782 L 594 -243 L 705 -243 Z M 253 133 L 253 71 L 747 71 L 747 133 Z " id="path140"/>
<path d="M 0 285 L 0 -965 L 1000 -965 L 1000 285 Z M 289 -93 L 331 -131 L 203 -252 L 146 -307 L 942 -307 L 942 -373 L 146 -373 L 331 -549 L 289 -587 L 42 -340 Z " id="path141"/>
<path d="M 0 285 L 0 -965 L 1000 -965 L 1000 285 Z M 467 102 L 533 102 L 533 -694 L 709 -509 L 747 -551 L 500 -798 L 253 -551 L 291 -509 L 467 -694 Z " id="path142"/>
<path d="M 0 285 L 0 -965 L 1000 -965 L 1000 285 Z M 711 -93 L 958 -340 L 711 -587 L 669 -549 L 854 -373 L 58 -373 L 58 -307 L 854 -307 L 669 -131 Z " id="path143"/>
<path d="M 0 285 L 0 -965 L 1000 -965 L 1000 285 Z M 500 118 L 747 -129 L 709 -171 L 533 14 L 533 -782 L 467 -782 L 467 14 L 291 -171 L 253 -129 Z " id="path144"/>
<path d="M 522 6 L 473 -43 L 624 -194 L 167 -651 L 174 -396 L 117 -399 L 117 -749 L 467 -749 L 469 -692 L 214 -698 L 671 -241 L 823 -393 L 872 -344 Z " id="path145"/>
<path d="M 478 6 L 128 -344 L 177 -393 L 329 -241 L 786 -698 L 531 -692 L 533 -749 L 883 -749 L 883 -399 L 826 -396 L 833 -651 L 376 -194 L 527 -43 Z " id="path146"/>
<path d="M 883 18 L 533 18 L 531 -39 L 786 -33 L 329 -490 L 177 -338 L 128 -387 L 478 -737 L 527 -688 L 376 -537 L 833 -80 L 826 -335 L 883 -332 Z " id="path147"/>
<path d="M 117 18 L 117 -332 L 174 -335 L 167 -80 L 624 -537 L 473 -688 L 522 -737 L 872 -387 L 823 -338 L 671 -490 L 214 -33 L 469 -39 L 467 18 Z " id="path148"/>
</defs>
<g>
<g data-source-text="0" fill="#20242e" transform="translate(174 41.292) rotate(0) scale(0.023999998)">
<use href="#path1" transform="translate(0 0)"/>
</g>
</g>
<g>
<g data-source-text="1" fill="#20242e" transform="translate(246 41.292) rotate(0) scale(0.023999998)">
<use href="#path2" transform="translate(0 0)"/>
</g>
</g>
<g>
<g data-source-text="2" fill="#20242e" transform="translate(318 41.292) rotate(0) scale(0.023999998)">
<use href="#path3" transform="translate(0 0)"/>
</g>
</g>
<g>
<g data-source-text="3" fill="#20242e" transform="translate(390 41.292) rotate(0) scale(0.023999998)">
<use href="#path4" transform="translate(0 0)"/>
</g>
</g>
<g>
<g data-source-text="4" fill="#20242e" transform="translate(462 41.292) rotate(0) scale(0.023999998)">
<use href="#path5" transform="translate(0 0)"/>
</g>
</g>
<g>
<g data-source-text="5" fill="#20242e" transform="translate(534 41.292) rotate(0) scale(0.023999998)">
<use href="#path6" transform="translate(0 0)"/>
</g>
</g>
<g>
<g data-source-text="6" fill="#20242e" transform="translate(606 41.292) rotate(0) scale(0.023999998)">
<use href="#path7" transform="translate(0 0)"/>
</g>
</g>
<g>
<g data-source-text="7" fill="#20242e" transform="translate(678 41.292) rotate(0) scale(0.023999998)">
<use href="#path8" transform="translate(0 0)"/>
</g>
</g>
<g>
<g data-source-text="8" fill="#20242e" transform="translate(750 41.292) rotate(0) scale(0.023999998)">
<use href="#path9" transform="translate(0 0)"/>
</g>
</g>
<g>
<g data-source-text="9" fill="#20242e" transform="translate(822 41.292) rotate(0) scale(0.023999998)">
<use href="#path10" transform="translate(0 0)"/>
</g>
</g>
<g>
<g data-source-text="A" fill="#20242e" transform="translate(894 41.292) rotate(0) scale(0.023999998)">
<use href="#path11" transform="translate(0 0)"/>
</g>
</g>
<g>
<g data-source-text="B" fill="#20242e" transform="translate(966 41.292) rotate(0) scale(0.023999998)">
<use href="#path12" transform="translate(0 0)"/>
</g>
</g>
<g>
<g data-source-text="C" fill="#20242e" transform="translate(1038 41.292) rotate(0) scale(0.023999998)">
<use href="#path13" transform="translate(0 0)"/>
</g>
</g>
<g>
<g data-source-text="D" fill="#20242e" transform="translate(1110 41.292) rotate(0) scale(0.023999998)">
<use href="#path14" transform="translate(0 0)"/>
</g>
</g>
<g>
<g data-source-text="E" fill="#20242e" transform="translate(1182 41.292) rotate(0) scale(0.023999998)">
<use href="#path15" transform="translate(0 0)"/>
</g>
</g>
<g>
<g data-source-text="F" fill="#20242e" transform="translate(1254 41.292) rotate(0) scale(0.023999998)">
<use href="#path16" transform="translate(0 0)"/>
</g>
</g>
<g>
<g data-source-text="U+1F800" fill="#20242e" transform="translate(30 113.292) rotate(0) scale(0.023999998)">
<use href="#path17" transform="translate(0 0)"/>
<use href="#path18" transform="translate(500 0)"/>
<use href="#path2" transform="translate(1000 0)"/>
<use href="#path16" transform="translate(1500 0)"/>
<use href="#path9" transform="translate(2000 0)"/>
<use href="#path1" transform="translate(2500 0)"/>
<use href="#path1" transform="translate(3000 0)"/>
</g>
</g>
<g>
<g data-source-text="ðŸ €" fill="#20242e" transform="translate(156 118.584) rotate(0) scale(0.047999997)">
<use href="#path19" transform="translate(0 0)"/>
</g>
</g>
<g>
<g data-source-text="ðŸ " fill="#20242e" transform="translate(228 118.584) rotate(0) scale(0.047999997)">
<use href="#path20" transform="translate(0 0)"/>
</g>
</g>
<g>
<g data-source-text="ðŸ ‚" fill="#20242e" transform="translate(300 118.584) rotate(0) scale(0.047999997)">
<use href="#path21" transform="translate(0 0)"/>
</g>
</g>
<g>
<g data-source-text="ðŸ ƒ" fill="#20242e" transform="translate(372 118.584) rotate(0) scale(0.047999997)">
<use href="#path22" transform="translate(0 0)"/>
</g>
</g>
<g>
<g data-source-text="ðŸ „" fill="#20242e" transform="translate(444 118.584) rotate(0) scale(0.047999997)">
<use href="#path23" transform="translate(0 0)"/>
</g>
</g>
<g>
<g data-source-text="ðŸ …" fill="#20242e" transform="translate(516 118.584) rotate(0) scale(0.047999997)">
<use href="#path24" transform="translate(0 0)"/>
</g>
</g>
<g>
<g data-source-text="ðŸ †" fill="#20242e" transform="translate(588 118.584) rotate(0) scale(0.047999997)">
<use href="#path25" transform="translate(0 0)"/>
</g>
</g>
<g>
<g data-source-text="ðŸ ‡" fill="#20242e" transform="translate(660 118.584) rotate(0) scale(0.047999997)">
<use href="#path26" transform="translate(0 0)"/>
</g>
</g>
<g>
<g data-source-text="ðŸ ˆ" fill="#20242e" transform="translate(732 118.584) rotate(0) scale(0.047999997)">
<use href="#path27" transform="translate(0 0)"/>
</g>
</g>
<g>
<g data-source-text="ðŸ ‰" fill="#20242e" transform="translate(804 118.584) rotate(0) scale(0.047999997)">
<use href="#path28" transform="translate(0 0)"/>
</g>
</g>
<g>
<g data-source-text="ðŸ Š" fill="#20242e" transform="translate(876 118.584) rotate(0) scale(0.047999997)">
<use href="#path29" transform="translate(0 0)"/>
</g>
</g>
<g>
<g data-source-text="ðŸ ‹" fill="#20242e" transform="translate(948 118.584) rotate(0) scale(0.047999997)">
<use href="#path30" transform="translate(0 0)"/>
</g>
</g>
<g>
<g data-source-text="ï€" fill="#20242e40" transform="translate(1032 118.584) rotate(0) scale(0.047999997)">
<use href="#path31" transform="translate(0 0)"/>
</g>
</g>
<g>
<g data-source-text="ï€" fill="#20242e40" transform="translate(1104 118.584) rotate(0) scale(0.047999997)">
<use href="#path31" transform="translate(0 0)"/>
</g>
</g>
<g>
<g data-source-text="ï€" fill="#20242e40" transform="translate(1176 118.584) rotate(0) scale(0.047999997)">
<use href="#path31" transform="translate(0 0)"/>
</g>
</g>
<g>
<g data-source-text="ï€" fill="#20242e40" transform="translate(1248 118.584) rotate(0) scale(0.047999997)">
<use href="#path31" transform="translate(0 0)"/>
</g>
</g>
<g>
<g data-source-text="U+1F810" fill="#20242e" transform="translate(30 185.292) rotate(0) scale(0.023999998)">
<use href="#path17" transform="translate(0 0)"/>
<use href="#path18" transform="translate(500 0)"/>
<use href="#path2" transform="translate(1000 0)"/>
<use href="#path16" transform="translate(1500 0)"/>
<use href="#path9" transform="translate(2000 0)"/>
<use href="#path2" transform="translate(2500 0)"/>
<use href="#path1" transform="translate(3000 0)"/>
</g>
</g>
<g>
<g data-source-text="ðŸ " fill="#20242e" transform="translate(156 190.584) rotate(0) scale(0.047999997)">
<use href="#path32" transform="translate(0 0)"/>
</g>
</g>
<g>
<g data-source-text="ðŸ ‘" fill="#20242e" transform="translate(228 190.584) rotate(0) scale(0.047999997)">
<use href="#path33" transform="translate(0 0)"/>
</g>
</g>
<g>
<g data-source-text="ðŸ ’" fill="#20242e" transform="translate(300 190.584) rotate(0) scale(0.047999997)">
<use href="#path34" transform="translate(0 0)"/>
</g>
</g>
<g>
<g data-source-text="ðŸ “" fill="#20242e" transform="translate(372 190.584) rotate(0) scale(0.047999997)">
<use href="#path35" transform="translate(0 0)"/>
</g>
</g>
<g>
<g data-source-text="ðŸ ”" fill="#20242e" transform="translate(444 190.584) rotate(0) scale(0.047999997)">
<use href="#path36" transform="translate(0 0)"/>
</g>
</g>
<g>
<g data-source-text="ðŸ •" fill="#20242e" transform="translate(516 190.584) rotate(0) scale(0.047999997)">
<use href="#path37" transform="translate(0 0)"/>
</g>
</g>
<g>
<g data-source-text="ðŸ –" fill="#20242e" transform="translate(588 190.584) rotate(0) scale(0.047999997)">
<use href="#path38" transform="translate(0 0)"/>
</g>
</g>
<g>
<g data-source-text="ðŸ —" fill="#20242e" transform="translate(660 190.584) rotate(0) scale(0.047999997)">
<use href="#path39" transform="translate(0 0)"/>
</g>
</g>
<g>
<g data-source-text="ðŸ ˜" fill="#20242e" transform="translate(732 190.584) rotate(0) scale(0.047999997)">
<use href="#path40" transform="translate(0 0)"/>
</g>
</g>
<g>
<g data-source-text="ðŸ ™" fill="#20242e" transform="translate(804 190.584) rotate(0) scale(0.047999997)">
<use href="#path41" transform="translate(0 0)"/>
</g>
</g>
<g>
<g data-source-text="ðŸ š" fill="#20242e" transform="translate(876 190.584) rotate(0) scale(0.047999997)">
<use href="#path42" transform="translate(0 0)"/>
</g>
</g>
<g>
<g data-source-text="ðŸ ›" fill="#20242e" transform="translate(948 190.584) rotate(0) scale(0.047999997)">
<use href="#path43" transform="translate(0 0)"/>
</g>
</g>
<g>
<g data-source-text="ðŸ œ" fill="#20242e" transform="translate(1020 190.584) rotate(0) scale(0.047999997)">
<use href="#path44" transform="translate(0 0)"/>
</g>
</g>
<g>
<g data-source-text="ðŸ " fill="#20242e" transform="translate(1092 190.584) rotate(0) scale(0.047999997)">
<use href="#path45" transform="translate(0 0)"/>
</g>
</g>
<g>
<g data-source-text="ðŸ ž" fill="#20242e" transform="translate(1164 190.584) rotate(0) scale(0.047999997)">
<use href="#path46" transform="translate(0 0)"/>
</g>
</g>
<g>
<g data-source-text="ðŸ Ÿ" fill="#20242e" transform="translate(1236 190.584) rotate(0) scale(0.047999997)">
<use href="#path47" transform="translate(0 0)"/>
</g>
</g>
<g>
<g data-source-text="U+1F820" fill="#20242e" transform="translate(30 257.292) rotate(0) scale(0.023999998)">
<use href="#path17" transform="translate(0 0)"/>
<use href="#path18" transform="translate(500 0)"/>
<use href="#path2" transform="translate(1000 0)"/>
<use href="#path16" transform="translate(1500 0)"/>
<use href="#path9" transform="translate(2000 0)"/>
<use href="#path3" transform="translate(2500 0)"/>
<use href="#path1" transform="translate(3000 0)"/>
</g>
</g>
<g>
<g data-source-text="ðŸ  " fill="#20242e" transform="translate(156 262.584) rotate(0) scale(0.047999997)">
<use href="#path48" transform="translate(0 0)"/>
</g>
</g>
<g>
<g data-source-text="ðŸ ¡" fill="#20242e" transform="translate(228 262.584) rotate(0) scale(0.047999997)">
<use href="#path49" transform="translate(0 0)"/>
</g>
</g>
<g>
<g data-source-text="ðŸ ¢" fill="#20242e" transform="translate(300 262.584) rotate(0) scale(0.047999997)">
<use href="#path50" transform="translate(0 0)"/>
</g>
</g>
<g>
<g data-source-text="ðŸ £" fill="#20242e" transform="translate(372 262.584) rotate(0) scale(0.047999997)">
<use href="#path51" transform="translate(0 0)"/>
</g>
</g>
<g>
<g data-source-text="ðŸ ¤" fill="#20242e" transform="translate(444 262.584) rotate(0) scale(0.047999997)">
<use href="#path52" transform="translate(0 0)"/>
</g>
</g>
<g>
<g data-source-text="ðŸ ¥" fill="#20242e" transform="translate(516 262.584) rotate(0) scale(0.047999997)">
<use href="#path53" transform="translate(0 0)"/>
</g>
</g>
<g>
<g data-source-text="ðŸ ¦" fill="#20242e" transform="translate(588 262.584) rotate(0) scale(0.047999997)">
<use href="#path54" transform="translate(0 0)"/>
</g>
</g>
<g>
<g data-source-text="ðŸ §" fill="#20242e" transform="translate(660 262.584) rotate(0) scale(0.047999997)">
<use href="#path55" transform="translate(0 0)"/>
</g>
</g>
<g>
<g data-source-text="ðŸ ¨" fill="#20242e" transform="translate(732 262.584) rotate(0) scale(0.047999997)">
<use href="#path56" transform="translate(0 0)"/>
</g>
</g>
<g>
<g data-source-text="ðŸ ©" fill="#20242e" transform="translate(804 262.584) rotate(0) scale(0.047999997)">
<use href="#path57" transform="translate(0 0)"/>
</g>
</g>
<g>
<g data-source-text="ðŸ ª" fill="#20242e" transform="translate(876 262.584) rotate(0) scale(0.047999997)">
<use href="#path58" transform="translate(0 0)"/>
</g>
</g>
<g>
<g data-source-text="ðŸ «" fill="#20242e" transform="translate(948 262.584) rotate(0) scale(0.047999997)">
<use href="#path59" transform="translate(0 0)"/>
</g>
</g>
<g>
<g data-source-text="ðŸ ¬" fill="#20242e" transform="translate(1020 262.584) rotate(0) scale(0.047999997)">
<use href="#path60" transform="translate(0 0)"/>
</g>
</g>
<g>
<g data-source-text="ðŸ ­" fill="#20242e" transform="translate(1092 262.584) rotate(0) scale(0.047999997)">
<use href="#path61" transform="translate(0 0)"/>
</g>
</g>
<g>
<g data-source-text="ðŸ ®" fill="#20242e" transform="translate(1164 262.584) rotate(0) scale(0.047999997)">
<use href="#path62" transform="translate(0 0)"/>
</g>
</g>
<g>
<g data-source-text="ðŸ ¯" fill="#20242e" transform="translate(1236 262.584) rotate(0) scale(0.047999997)">
<use href="#path63" transform="translate(0 0)"/>
</g>
</g>
<g>
<g data-source-text="U+1F830" fill="#20242e" transform="translate(30 329.292) rotate(0) scale(0.023999998)">
<use href="#path17" transform="translate(0 0)"/>
<use href="#path18" transform="translate(500 0)"/>
<use href="#path2" transform="translate(1000 0)"/>
<use href="#path16" transform="translate(1500 0)"/>
<use href="#path9" transform="translate(2000 0)"/>
<use href="#path4" transform="translate(2500 0)"/>
<use href="#path1" transform="translate(3000 0)"/>
</g>
</g>
<g>
<g data-source-text="ðŸ °" fill="#20242e" transform="translate(156 334.584) rotate(0) scale(0.047999997)">
<use href="#path64" transform="translate(0 0)"/>
</g>
</g>
<g>
<g data-source-text="ðŸ ±" fill="#20242e" transform="translate(228 334.584) rotate(0) scale(0.047999997)">
<use href="#path65" transform="translate(0 0)"/>
</g>
</g>
<g>
<g data-source-text="ðŸ ²" fill="#20242e" transform="translate(300 334.584) rotate(0) scale(0.047999997)">
<use href="#path66" transform="translate(0 0)"/>
</g>
</g>
<g>
<g data-source-text="ðŸ ³" fill="#20242e" transform="translate(372 334.584) rotate(0) scale(0.047999997)">
<use href="#path67" transform="translate(0 0)"/>
</g>
</g>
<g>
<g data-source-text="ðŸ ´" fill="#20242e" transform="translate(444 334.584) rotate(0) scale(0.047999997)">
<use href="#path68" transform="translate(0 0)"/>
</g>
</g>
<g>
<g data-source-text="ðŸ µ" fill="#20242e" transform="translate(516 334.584) rotate(0) scale(0.047999997)">
<use href="#path69" transform="translate(0 0)"/>
</g>
</g>
<g>
<g data-source-text="ðŸ ¶" fill="#20242e" transform="translate(588 334.584) rotate(0) scale(0.047999997)">
<use href="#path70" transform="translate(0 0)"/>
</g>
</g>
<g>
<g data-source-text="ðŸ ·" fill="#20242e" transform="translate(660 334.584) rotate(0) scale(0.047999997)">
<use href="#path71" transform="translate(0 0)"/>
</g>
</g>
<g>
<g data-source-text="ðŸ ¸" fill="#20242e" transform="translate(732 334.584) rotate(0) scale(0.047999997)">
<use href="#path72" transform="translate(0 0)"/>
</g>
</g>
<g>
<g data-source-text="ðŸ ¹" fill="#20242e" transform="translate(804 334.584) rotate(0) scale(0.047999997)">
<use href="#path73" transform="translate(0 0)"/>
</g>
</g>
<g>
<g data-source-text="ðŸ º" fill="#20242e" transform="translate(876 334.584) rotate(0) scale(0.047999997)">
<use href="#path74" transform="translate(0 0)"/>
</g>
</g>
<g>
<g data-source-text="ðŸ »" fill="#20242e" transform="translate(948 334.584) rotate(0) scale(0.047999997)">
<use href="#path75" transform="translate(0 0)"/>
</g>
</g>
<g>
<g data-source-text="ðŸ ¼" fill="#20242e" transform="translate(1020 334.584) rotate(0) scale(0.047999997)">
<use href="#path76" transform="translate(0 0)"/>
</g>
</g>
<g>
<g data-source-text="ðŸ ½" fill="#20242e" transform="translate(1092 334.584) rotate(0) scale(0.047999997)">
<use href="#path77" transform="translate(0 0)"/>
</g>
</g>
<g>
<g data-source-text="ðŸ ¾" fill="#20242e" transform="translate(1164 334.584) rotate(0) scale(0.047999997)">
<use href="#path78" transform="translate(0 0)"/>
</g>
</g>
<g>
<g data-source-text="ðŸ ¿" fill="#20242e" transform="translate(1236 334.584) rotate(0) scale(0.047999997)">
<use href="#path79" transform="translate(0 0)"/>
</g>
</g>
<g>
<g data-source-text="U+1F840" fill="#20242e" transform="translate(30 401.292) rotate(0) scale(0.023999998)">
<use href="#path17" transform="translate(0 0)"/>
<use href="#path18" transform="translate(500 0)"/>
<use href="#path2" transform="translate(1000 0)"/>
<use href="#path16" transform="translate(1500 0)"/>
<use href="#path9" transform="translate(2000 0)"/>
<use href="#path5" transform="translate(2500 0)"/>
<use href="#path1" transform="translate(3000 0)"/>
</g>
</g>
<g>
<g data-source-text="ðŸ¡€" fill="#20242e" transform="translate(156 406.584) rotate(0) scale(0.047999997)">
<use href="#path80" transform="translate(0 0)"/>
</g>
</g>
<g>
<g data-source-text="ðŸ¡" fill="#20242e" transform="translate(228 406.584) rotate(0) scale(0.047999997)">
<use href="#path81" transform="translate(0 0)"/>
</g>
</g>
<g>
<g data-source-text="ðŸ¡‚" fill="#20242e" transform="translate(300 406.584) rotate(0) scale(0.047999997)">
<use href="#path82" transform="translate(0 0)"/>
</g>
</g>
<g>
<g data-source-text="ðŸ¡ƒ" fill="#20242e" transform="translate(372 406.584) rotate(0) scale(0.047999997)">
<use href="#path83" transform="translate(0 0)"/>
</g>
</g>
<g>
<g data-source-text="ðŸ¡„" fill="#20242e" transform="translate(444 406.584) rotate(0) scale(0.047999997)">
<use href="#path84" transform="translate(0 0)"/>
</g>
</g>
<g>
<g data-source-text="ðŸ¡…" fill="#20242e" transform="translate(516 406.584) rotate(0) scale(0.047999997)">
<use href="#path85" transform="translate(0 0)"/>
</g>
</g>
<g>
<g data-source-text="ðŸ¡†" fill="#20242e" transform="translate(588 406.584) rotate(0) scale(0.047999997)">
<use href="#path86" transform="translate(0 0)"/>
</g>
</g>
<g>
<g data-source-text="ðŸ¡‡" fill="#20242e" transform="translate(660 406.584) rotate(0) scale(0.047999997)">
<use href="#path87" transform="translate(0 0)"/>
</g>
</g>
<g>
<g data-source-text="ï€" fill="#20242e40" transform="translate(744 406.584) rotate(0) scale(0.047999997)">
<use href="#path31" transform="translate(0 0)"/>
</g>
</g>
<g>
<g data-source-text="ï€" fill="#20242e40" transform="translate(816 406.584) rotate(0) scale(0.047999997)">
<use href="#path31" transform="translate(0 0)"/>
</g>
</g>
<g>
<g data-source-text="ï€" fill="#20242e40" transform="translate(888 406.584) rotate(0) scale(0.047999997)">
<use href="#path31" transform="translate(0 0)"/>
</g>
</g>
<g>
<g data-source-text="ï€" fill="#20242e40" transform="translate(960 406.584) rotate(0) scale(0.047999997)">
<use href="#path31" transform="translate(0 0)"/>
</g>
</g>
<g>
<g data-source-text="ï€" fill="#20242e40" transform="translate(1032 406.584) rotate(0) scale(0.047999997)">
<use href="#path31" transform="translate(0 0)"/>
</g>
</g>
<g>
<g data-source-text="ï€" fill="#20242e40" transform="translate(1104 406.584) rotate(0) scale(0.047999997)">
<use href="#path31" transform="translate(0 0)"/>
</g>
</g>
<g>
<g data-source-text="ï€" fill="#20242e40" transform="translate(1176 406.584) rotate(0) scale(0.047999997)">
<use href="#path31" transform="translate(0 0)"/>
</g>
</g>
<g>
<g data-source-text="ï€" fill="#20242e40" transform="translate(1248 406.584) rotate(0) scale(0.047999997)">
<use href="#path31" transform="translate(0 0)"/>
</g>
</g>
<g>
<g data-source-text="U+1F850" fill="#20242e" transform="translate(30 473.292) rotate(0) scale(0.023999998)">
<use href="#path17" transform="translate(0 0)"/>
<use href="#path18" transform="translate(500 0)"/>
<use href="#path2" transform="translate(1000 0)"/>
<use href="#path16" transform="translate(1500 0)"/>
<use href="#path9" transform="translate(2000 0)"/>
<use href="#path6" transform="translate(2500 0)"/>
<use href="#path1" transform="translate(3000 0)"/>
</g>
</g>
<g>
<g data-source-text="ðŸ¡" fill="#20242e" transform="translate(156 478.584) rotate(0) scale(0.047999997)">
<use href="#path88" transform="translate(0 0)"/>
</g>
</g>
<g>
<g data-source-text="ðŸ¡‘" fill="#20242e" transform="translate(228 478.584) rotate(0) scale(0.047999997)">
<use href="#path89" transform="translate(0 0)"/>
</g>
</g>
<g>
<g data-source-text="ðŸ¡’" fill="#20242e" transform="translate(300 478.584) rotate(0) scale(0.047999997)">
<use href="#path90" transform="translate(0 0)"/>
</g>
</g>
<g>
<g data-source-text="ðŸ¡“" fill="#20242e" transform="translate(372 478.584) rotate(0) scale(0.047999997)">
<use href="#path91" transform="translate(0 0)"/>
</g>
</g>
<g>
<g data-source-text="ðŸ¡”" fill="#20242e" transform="translate(444 478.584) rotate(0) scale(0.047999997)">
<use href="#path92" transform="translate(0 0)"/>
</g>
</g>
<g>
<g data-source-text="ðŸ¡•" fill="#20242e" transform="translate(516 478.584) rotate(0) scale(0.047999997)">
<use href="#path93" transform="translate(0 0)"/>
</g>
</g>
<g>
<g data-source-text="ðŸ¡–" fill="#20242e" transform="translate(588 478.584) rotate(0) scale(0.047999997)">
<use href="#path94" transform="translate(0 0)"/>
</g>
</g>
<g>
<g data-source-text="ðŸ¡—" fill="#20242e" transform="translate(660 478.584) rotate(0) scale(0.047999997)">
<use href="#path95" transform="translate(0 0)"/>
</g>
</g>
<g>
<g data-source-text="ðŸ¡˜" fill="#20242e" transform="translate(732 478.584) rotate(0) scale(0.047999997)">
<use href="#path96" transform="translate(0 0)"/>
</g>
</g>
<g>
<g data-source-text="ðŸ¡™" fill="#20242e" transform="translate(804 478.584) rotate(0) scale(0.047999997)">
<use href="#path97" transform="translate(0 0)"/>
</g>
</g>
<g>
<g data-source-text="ï€" fill="#20242e40" transform="translate(888 478.584) rotate(0) scale(0.047999997)">
<use href="#path31" transform="translate(0 0)"/>
</g>
</g>
<g>
<g data-source-text="ï€" fill="#20242e40" transform="translate(960 478.584) rotate(0) scale(0.047999997)">
<use href="#path31" transform="translate(0 0)"/>
</g>
</g>
<g>
<g data-source-text="ï€" fill="#20242e40" transform="translate(1032 478.584) rotate(0) scale(0.047999997)">
<use href="#path31" transform="translate(0 0)"/>
</g>
</g>
<g>
<g data-source-text="ï€" fill="#20242e40" transform="translate(1104 478.584) rotate(0) scale(0.047999997)">
<use href="#path31" transform="translate(0 0)"/>
</g>
</g>
<g>
<g data-source-text="ï€" fill="#20242e40" transform="translate(1176 478.584) rotate(0) scale(0.047999997)">
<use href="#path31" transform="translate(0 0)"/>
</g>
</g>
<g>
<g data-source-text="ï€" fill="#20242e40" transform="translate(1248 478.584) rotate(0) scale(0.047999997)">
<use href="#path31" transform="translate(0 0)"/>
</g>
</g>
<g>
<g data-source-text="U+1F860" fill="#20242e" transform="translate(30 545.292) rotate(0) scale(0.023999998)">
<use href="#path17" transform="translate(0 0)"/>
<use href="#path18" transform="translate(500 0)"/>
<use href="#path2" transform="translate(1000 0)"/>
<use href="#path16" transform="translate(1500 0)"/>
<use href="#path9" transform="translate(2000 0)"/>
<use href="#path7" transform="translate(2500 0)"/>
<use href="#path1" transform="translate(3000 0)"/>
</g>
</g>
<g>
<g data-source-text="ðŸ¡ " fill="#20242e" transform="translate(156 550.584) rotate(0) scale(0.047999997)">
<use href="#path98" transform="translate(0 0)"/>
</g>
</g>
<g>
<g data-source-text="ðŸ¡¡" fill="#20242e" transform="translate(228 550.584) rotate(0) scale(0.047999997)">
<use href="#path99" transform="translate(0 0)"/>
</g>
</g>
<g>
<g data-source-text="ðŸ¡¢" fill="#20242e" transform="translate(300 550.584) rotate(0) scale(0.047999997)">
<use href="#path100" transform="translate(0 0)"/>
</g>
</g>
<g>
<g data-source-text="ðŸ¡£" fill="#20242e" transform="translate(372 550.584) rotate(0) scale(0.047999997)">
<use href="#path101" transform="translate(0 0)"/>
</g>
</g>
<g>
<g data-source-text="ðŸ¡¤" fill="#20242e" transform="translate(444 550.584) rotate(0) scale(0.047999997)">
<use href="#path102" transform="translate(0 0)"/>
</g>
</g>
<g>
<g data-source-text="ðŸ¡¥" fill="#20242e" transform="translate(516 550.584) rotate(0) scale(0.047999997)">
<use href="#path103" transform="translate(0 0)"/>
</g>
</g>
<g>
<g data-source-text="ðŸ¡¦" fill="#20242e" transform="translate(588 550.584) rotate(0) scale(0.047999997)">
<use href="#path104" transform="translate(0 0)"/>
</g>
</g>
<g>
<g data-source-text="ðŸ¡§" fill="#20242e" transform="translate(660 550.584) rotate(0) scale(0.047999997)">
<use href="#path105" transform="translate(0 0)"/>
</g>
</g>
<g>
<g data-source-text="ðŸ¡¨" fill="#20242e" transform="translate(732 550.584) rotate(0) scale(0.047999997)">
<use href="#path106" transform="translate(0 0)"/>
</g>
</g>
<g>
<g data-source-text="ðŸ¡©" fill="#20242e" transform="translate(804 550.584) rotate(0) scale(0.047999997)">
<use href="#path107" transform="translate(0 0)"/>
</g>
</g>
<g>
<g data-source-text="ðŸ¡ª" fill="#20242e" transform="translate(876 550.584) rotate(0) scale(0.047999997)">
<use href="#path108" transform="translate(0 0)"/>
</g>
</g>
<g>
<g data-source-text="ðŸ¡«" fill="#20242e" transform="translate(948 550.584) rotate(0) scale(0.047999997)">
<use href="#path109" transform="translate(0 0)"/>
</g>
</g>
<g>
<g data-source-text="ðŸ¡¬" fill="#20242e" transform="translate(1020 550.584) rotate(0) scale(0.047999997)">
<use href="#path110" transform="translate(0 0)"/>
</g>
</g>
<g>
<g data-source-text="ðŸ¡­" fill="#20242e" transform="translate(1092 550.584) rotate(0) scale(0.047999997)">
<use href="#path111" transform="translate(0 0)"/>
</g>
</g>
<g>
<g data-source-text="ðŸ¡®" fill="#20242e" transform="translate(1164 550.584) rotate(0) scale(0.047999997)">
<use href="#path112" transform="translate(0 0)"/>
</g>
</g>
<g>
<g data-source-text="ðŸ¡¯" fill="#20242e" transform="translate(1236 550.584) rotate(0) scale(0.047999997)">
<use href="#path113" transform="translate(0 0)"/>
</g>
</g>
<g>
<g data-source-text="U+1F870" fill="#20242e" transform="translate(30 617.292) rotate(0) scale(0.023999998)">
<use href="#path17" transform="translate(0 0)"/>
<use href="#path18" transform="translate(500 0)"/>
<use href="#path2" transform="translate(1000 0)"/>
<use href="#path16" transform="translate(1500 0)"/>
<use href="#path9" transform="translate(2000 0)"/>
<use href="#path8" transform="translate(2500 0)"/>
<use href="#path1" transform="translate(3000 0)"/>
</g>
</g>
<g>
<g data-source-text="ðŸ¡°" fill="#20242e" transform="translate(156 622.584) rotate(0) scale(0.047999997)">
<use href="#path114" transform="translate(0 0)"/>
</g>
</g>
<g>
<g data-source-text="ðŸ¡±" fill="#20242e" transform="translate(228 622.584) rotate(0) scale(0.047999997)">
<use href="#path115" transform="translate(0 0)"/>
</g>
</g>
<g>
<g data-source-text="ðŸ¡²" fill="#20242e" transform="translate(300 622.584) rotate(0) scale(0.047999997)">
<use href="#path116" transform="translate(0 0)"/>
</g>
</g>
<g>
<g data-source-text="ðŸ¡³" fill="#20242e" transform="translate(372 622.584) rotate(0) scale(0.047999997)">
<use href="#path117" transform="translate(0 0)"/>
</g>
</g>
<g>
<g data-source-text="ðŸ¡´" fill="#20242e" transform="translate(444 622.584) rotate(0) scale(0.047999997)">
<use href="#path118" transform="translate(0 0)"/>
</g>
</g>
<g>
<g data-source-text="ðŸ¡µ" fill="#20242e" transform="translate(516 622.584) rotate(0) scale(0.047999997)">
<use href="#path119" transform="translate(0 0)"/>
</g>
</g>
<g>
<g data-source-text="ðŸ¡¶" fill="#20242e" transform="translate(588 622.584) rotate(0) scale(0.047999997)">
<use href="#path120" transform="translate(0 0)"/>
</g>
</g>
<g>
<g data-source-text="ðŸ¡·" fill="#20242e" transform="translate(660 622.584) rotate(0) scale(0.047999997)">
<use href="#path121" transform="translate(0 0)"/>
</g>
</g>
<g>
<g data-source-text="ðŸ¡¸" fill="#20242e" transform="translate(732 622.584) rotate(0) scale(0.047999997)">
<use href="#path122" transform="translate(0 0)"/>
</g>
</g>
<g>
<g data-source-text="ðŸ¡¹" fill="#20242e" transform="translate(804 622.584) rotate(0) scale(0.047999997)">
<use href="#path123" transform="translate(0 0)"/>
</g>
</g>
<g>
<g data-source-text="ðŸ¡º" fill="#20242e" transform="translate(876 622.584) rotate(0) scale(0.047999997)">
<use href="#path124" transform="translate(0 0)"/>
</g>
</g>
<g>
<g data-source-text="ðŸ¡»" fill="#20242e" transform="translate(948 622.584) rotate(0) scale(0.047999997)">
<use href="#path125" transform="translate(0 0)"/>
</g>
</g>
<g>
<g data-source-text="ðŸ¡¼" fill="#20242e" transform="translate(1020 622.584) rotate(0) scale(0.047999997)">
<use href="#path126" transform="translate(0 0)"/>
</g>
</g>
<g>
<g data-source-text="ðŸ¡½" fill="#20242e" transform="translate(1092 622.584) rotate(0) scale(0.047999997)">
<use href="#path127" transform="translate(0 0)"/>
</g>
</g>
<g>
<g data-source-text="ðŸ¡¾" fill="#20242e" transform="translate(1164 622.584) rotate(0) scale(0.047999997)">
<use href="#path128" transform="translate(0 0)"/>
</g>
</g>
<g>
<g data-source-text="ðŸ¡¿" fill="#20242e" transform="translate(1236 622.584) rotate(0) scale(0.047999997)">
<use href="#path129" transform="translate(0 0)"/>
</g>
</g>
<g>
<g data-source-text="U+1F880" fill="#20242e" transform="translate(30 689.292) rotate(0) scale(0.023999998)">
<use href="#path17" transform="translate(0 0)"/>
<use href="#path18" transform="translate(500 0)"/>
<use href="#path2" transform="translate(1000 0)"/>
<use href="#path16" transform="translate(1500 0)"/>
<use href="#path9" transform="translate(2000 0)"/>
<use href="#path9" transform="translate(2500 0)"/>
<use href="#path1" transform="translate(3000 0)"/>
</g>
</g>
<g>
<g data-source-text="ðŸ¢€" fill="#20242e" transform="translate(156 694.584) rotate(0) scale(0.047999997)">
<use href="#path130" transform="translate(0 0)"/>
</g>
</g>
<g>
<g data-source-text="ðŸ¢" fill="#20242e" transform="translate(228 694.584) rotate(0) scale(0.047999997)">
<use href="#path131" transform="translate(0 0)"/>
</g>
</g>
<g>
<g data-source-text="ðŸ¢‚" fill="#20242e" transform="translate(300 694.584) rotate(0) scale(0.047999997)">
<use href="#path132" transform="translate(0 0)"/>
</g>
</g>
<g>
<g data-source-text="ðŸ¢ƒ" fill="#20242e" transform="translate(372 694.584) rotate(0) scale(0.047999997)">
<use href="#path133" transform="translate(0 0)"/>
</g>
</g>
<g>
<g data-source-text="ðŸ¢„" fill="#20242e" transform="translate(444 694.584) rotate(0) scale(0.047999997)">
<use href="#path134" transform="translate(0 0)"/>
</g>
</g>
<g>
<g data-source-text="ðŸ¢…" fill="#20242e" transform="translate(516 694.584) rotate(0) scale(0.047999997)">
<use href="#path135" transform="translate(0 0)"/>
</g>
</g>
<g>
<g data-source-text="ðŸ¢†" fill="#20242e" transform="translate(588 694.584) rotate(0) scale(0.047999997)">
<use href="#path136" transform="translate(0 0)"/>
</g>
</g>
<g>
<g data-source-text="ðŸ¢‡" fill="#20242e" transform="translate(660 694.584) rotate(0) scale(0.047999997)">
<use href="#path137" transform="translate(0 0)"/>
</g>
</g>
<g>
<g data-source-text="ï€" fill="#20242e40" transform="translate(744 694.584) rotate(0) scale(0.047999997)">
<use href="#path31" transform="translate(0 0)"/>
</g>
</g>
<g>
<g data-source-text="ï€" fill="#20242e40" transform="translate(816 694.584) rotate(0) scale(0.047999997)">
<use href="#path31" transform="translate(0 0)"/>
</g>
</g>
<g>
<g data-source-text="ï€" fill="#20242e40" transform="translate(888 694.584) rotate(0) scale(0.047999997)">
<use href="#path31" transform="translate(0 0)"/>
</g>
</g>
<g>
<g data-source-text="ï€" fill="#20242e40" transform="translate(960 694.584) rotate(0) scale(0.047999997)">
<use href="#path31" transform="translate(0 0)"/>
</g>
</g>
<g>
<g data-source-text="ï€" fill="#20242e40" transform="translate(1032 694.584) rotate(0) scale(0.047999997)">
<use href="#path31" transform="translate(0 0)"/>
</g>
</g>
<g>
<g data-source-text="ï€" fill="#20242e40" transform="translate(1104 694.584) rotate(0) scale(0.047999997)">
<use href="#path31" transform="translate(0 0)"/>
</g>
</g>
<g>
<g data-source-text="ï€" fill="#20242e40" transform="translate(1176 694.584) rotate(0) scale(0.047999997)">
<use href="#path31" transform="translate(0 0)"/>
</g>
</g>
<g>
<g data-source-text="ï€" fill="#20242e40" transform="translate(1248 694.584) rotate(0) scale(0.047999997)">
<use href="#path31" transform="translate(0 0)"/>
</g>
</g>
<g>
<g data-source-text="U+1F890" fill="#20242e" transform="translate(30 761.292) rotate(0) scale(0.023999998)">
<use href="#path17" transform="translate(0 0)"/>
<use href="#path18" transform="translate(500 0)"/>
<use href="#path2" transform="translate(1000 0)"/>
<use href="#path16" transform="translate(1500 0)"/>
<use href="#path9" transform="translate(2000 0)"/>
<use href="#path10" transform="translate(2500 0)"/>
<use href="#path1" transform="translate(3000 0)"/>
</g>
</g>
<g>
<g data-source-text="ï€" fill="#20242e40" transform="translate(168 766.584) rotate(0) scale(0.047999997)">
<use href="#path31" transform="translate(0 0)"/>
</g>
</g>
<g>
<g data-source-text="ï€" fill="#20242e40" transform="translate(240 766.584) rotate(0) scale(0.047999997)">
<use href="#path31" transform="translate(0 0)"/>
</g>
</g>
<g>
<g data-source-text="ï€" fill="#20242e40" transform="translate(312 766.584) rotate(0) scale(0.047999997)">
<use href="#path31" transform="translate(0 0)"/>
</g>
</g>
<g>
<g data-source-text="ï€" fill="#20242e40" transform="translate(384 766.584) rotate(0) scale(0.047999997)">
<use href="#path31" transform="translate(0 0)"/>
</g>
</g>
<g>
<g data-source-text="ï€" fill="#20242e40" transform="translate(456 766.584) rotate(0) scale(0.047999997)">
<use href="#path31" transform="translate(0 0)"/>
</g>
</g>
<g>
<g data-source-text="ï€" fill="#20242e40" transform="translate(528 766.584) rotate(0) scale(0.047999997)">
<use href="#path31" transform="translate(0 0)"/>
</g>
</g>
<g>
<g data-source-text="ï€" fill="#20242e40" transform="translate(600 766.584) rotate(0) scale(0.047999997)">
<use href="#path31" transform="translate(0 0)"/>
</g>
</g>
<g>
<g data-source-text="ï€" fill="#20242e40" transform="translate(672 766.584) rotate(0) scale(0.047999997)">
<use href="#path31" transform="translate(0 0)"/>
</g>
</g>
<g>
<g data-source-text="ï€" fill="#20242e40" transform="translate(744 766.584) rotate(0) scale(0.047999997)">
<use href="#path31" transform="translate(0 0)"/>
</g>
</g>
<g>
<g data-source-text="ï€" fill="#20242e40" transform="translate(816 766.584) rotate(0) scale(0.047999997)">
<use href="#path31" transform="translate(0 0)"/>
</g>
</g>
<g>
<g data-source-text="ï€" fill="#20242e40" transform="translate(888 766.584) rotate(0) scale(0.047999997)">
<use href="#path31" transform="translate(0 0)"/>
</g>
</g>
<g>
<g data-source-text="ï€" fill="#20242e40" transform="translate(960 766.584) rotate(0) scale(0.047999997)">
<use href="#path31" transform="translate(0 0)"/>
</g>
</g>
<g>
<g data-source-text="ï€" fill="#20242e40" transform="translate(1032 766.584) rotate(0) scale(0.047999997)">
<use href="#path31" transform="translate(0 0)"/>
</g>
</g>
<g>
<g data-source-text="ï€" fill="#20242e40" transform="translate(1104 766.584) rotate(0) scale(0.047999997)">
<use href="#path31" transform="translate(0 0)"/>
</g>
</g>
<g>
<g data-source-text="ï€" fill="#20242e40" transform="translate(1176 766.584) rotate(0) scale(0.047999997)">
<use href="#path31" transform="translate(0 0)"/>
</g>
</g>
<g>
<g data-source-text="ï€" fill="#20242e40" transform="translate(1248 766.584) rotate(0) scale(0.047999997)">
<use href="#path31" transform="translate(0 0)"/>
</g>
</g>
<g>
<g data-source-text="U+1F8A0" fill="#20242e" transform="translate(30 833.292) rotate(0) scale(0.023999998)">
<use href="#path17" transform="translate(0 0)"/>
<use href="#path18" transform="translate(500 0)"/>
<use href="#path2" transform="translate(1000 0)"/>
<use href="#path16" transform="translate(1500 0)"/>
<use href="#path9" transform="translate(2000 0)"/>
<use href="#path11" transform="translate(2500 0)"/>
<use href="#path1" transform="translate(3000 0)"/>
</g>
</g>
<g>
<g data-source-text="ï€" fill="#20242e40" transform="translate(168 838.584) rotate(0) scale(0.047999997)">
<use href="#path31" transform="translate(0 0)"/>
</g>
</g>
<g>
<g data-source-text="ï€" fill="#20242e40" transform="translate(240 838.584) rotate(0) scale(0.047999997)">
<use href="#path31" transform="translate(0 0)"/>
</g>
</g>
<g>
<g data-source-text="ï€" fill="#20242e40" transform="translate(312 838.584) rotate(0) scale(0.047999997)">
<use href="#path31" transform="translate(0 0)"/>
</g>
</g>
<g>
<g data-source-text="ï€" fill="#20242e40" transform="translate(384 838.584) rotate(0) scale(0.047999997)">
<use href="#path31" transform="translate(0 0)"/>
</g>
</g>
<g>
<g data-source-text="ï€" fill="#20242e40" transform="translate(456 838.584) rotate(0) scale(0.047999997)">
<use href="#path31" transform="translate(0 0)"/>
</g>
</g>
<g>
<g data-source-text="ï€" fill="#20242e40" transform="translate(528 838.584) rotate(0) scale(0.047999997)">
<use href="#path31" transform="translate(0 0)"/>
</g>
</g>
<g>
<g data-source-text="ï€" fill="#20242e40" transform="translate(600 838.584) rotate(0) scale(0.047999997)">
<use href="#path31" transform="translate(0 0)"/>
</g>
</g>
<g>
<g data-source-text="ï€" fill="#20242e40" transform="translate(672 838.584) rotate(0) scale(0.047999997)">
<use href="#path31" transform="translate(0 0)"/>
</g>
</g>
<g>
<g data-source-text="ï€" fill="#20242e40" transform="translate(744 838.584) rotate(0) scale(0.047999997)">
<use href="#path31" transform="translate(0 0)"/>
</g>
</g>
<g>
<g data-source-text="ï€" fill="#20242e40" transform="translate(816 838.584) rotate(0) scale(0.047999997)">
<use href="#path31" transform="translate(0 0)"/>
</g>
</g>
<g>
<g data-source-text="ï€" fill="#20242e40" transform="translate(888 838.584) rotate(0) scale(0.047999997)">
<use href="#path31" transform="translate(0 0)"/>
</g>
</g>
<g>
<g data-source-text="ï€" fill="#20242e40" transform="translate(960 838.584) rotate(0) scale(0.047999997)">
<use href="#path31" transform="translate(0 0)"/>
</g>
</g>
<g>
<g data-source-text="ï€" fill="#20242e40" transform="translate(1032 838.584) rotate(0) scale(0.047999997)">
<use href="#path31" transform="translate(0 0)"/>
</g>
</g>
<g>
<g data-source-text="ï€" fill="#20242e40" transform="translate(1104 838.584) rotate(0) scale(0.047999997)">
<use href="#path31" transform="translate(0 0)"/>
</g>
</g>
<g>
<g data-source-text="ï€" fill="#20242e40" transform="translate(1176 838.584) rotate(0) scale(0.047999997)">
<use href="#path31" transform="translate(0 0)"/>
</g>
</g>
<g>
<g data-source-text="ï€" fill="#20242e40" transform="translate(1248 838.584) rotate(0) scale(0.047999997)">
<use href="#path31" transform="translate(0 0)"/>
</g>
</g>
<g>
<g data-source-text="U+1F8B0" fill="#20242e" transform="translate(30 905.292) rotate(0) scale(0.023999998)">
<use href="#path17" transform="translate(0 0)"/>
<use href="#path18" transform="translate(500 0)"/>
<use href="#path2" transform="translate(1000 0)"/>
<use href="#path16" transform="translate(1500 0)"/>
<use href="#path9" transform="translate(2000 0)"/>
<use href="#path12" transform="translate(2500 0)"/>
<use href="#path1" transform="translate(3000 0)"/>
</g>
</g>
<g>
<g data-source-text="ðŸ¢°" fill="#20242e" transform="translate(156 910.584) rotate(0) scale(0.047999997)">
<use href="#path138" transform="translate(0 0)"/>
</g>
</g>
<g>
<g data-source-text="ðŸ¢±" fill="#20242e" transform="translate(228 910.584) rotate(0) scale(0.047999997)">
<use href="#path139" transform="translate(0 0)"/>
</g>
</g>
<g>
<g data-source-text="ï€" fill="#20242e40" transform="translate(312 910.584) rotate(0) scale(0.047999997)">
<use href="#path31" transform="translate(0 0)"/>
</g>
</g>
<g>
<g data-source-text="ðŸ¢³" fill="#20242e" transform="translate(372 910.584) rotate(0) scale(0.047999997)">
<use href="#path140" transform="translate(0 0)"/>
</g>
</g>
<g>
<g data-source-text="ðŸ¢´" fill="#20242e" transform="translate(444 910.584) rotate(0) scale(0.047999997)">
<use href="#path141" transform="translate(0 0)"/>
</g>
</g>
<g>
<g data-source-text="ðŸ¢µ" fill="#20242e" transform="translate(516 910.584) rotate(0) scale(0.047999997)">
<use href="#path142" transform="translate(0 0)"/>
</g>
</g>
<g>
<g data-source-text="ðŸ¢¶" fill="#20242e" transform="translate(588 910.584) rotate(0) scale(0.047999997)">
<use href="#path143" transform="translate(0 0)"/>
</g>
</g>
<g>
<g data-source-text="ðŸ¢·" fill="#20242e" transform="translate(660 910.584) rotate(0) scale(0.047999997)">
<use href="#path144" transform="translate(0 0)"/>
</g>
</g>
<g>
<g data-source-text="ðŸ¢¸" fill="#20242e" transform="translate(732 910.584) rotate(0) scale(0.047999997)">
<use href="#path145" transform="translate(0 0)"/>
</g>
</g>
<g>
<g data-source-text="ðŸ¢¹" fill="#20242e" transform="translate(804 910.584) rotate(0) scale(0.047999997)">
<use href="#path146" transform="translate(0 0)"/>
</g>
</g>
<g>
<g data-source-text="ðŸ¢º" fill="#20242e" transform="translate(876 910.584) rotate(0) scale(0.047999997)">
<use href="#path147" transform="translate(0 0)"/>
</g>
</g>
<g>
<g data-source-text="ðŸ¢»" fill="#20242e" transform="translate(948 910.584) rotate(0) scale(0.047999997)">
<use href="#path148" transform="translate(0 0)"/>
</g>
</g>
<g>
<g data-source-text="ï€" fill="#20242e40" transform="translate(1032 910.584) rotate(0) scale(0.047999997)">
<use href="#path31" transform="translate(0 0)"/>
</g>
</g>
<g>
<g data-source-text="ï€" fill="#20242e40" transform="translate(1104 910.584) rotate(0) scale(0.047999997)">
<use href="#path31" transform="translate(0 0)"/>
</g>
</g>
<g>
<g data-source-text="ï€" fill="#20242e40" transform="translate(1176 910.584) rotate(0) scale(0.047999997)">
<use href="#path31" transform="translate(0 0)"/>
</g>
</g>
<g>
<g data-source-text="ï€" fill="#20242e40" transform="translate(1248 910.584) rotate(0) scale(0.047999997)">
<use href="#path31" transform="translate(0 0)"/>
</g>
</g>
<g>
<g data-source-text="U+1F8C0" fill="#20242e" transform="translate(30 977.292) rotate(0) scale(0.023999998)">
<use href="#path17" transform="translate(0 0)"/>
<use href="#path18" transform="translate(500 0)"/>
<use href="#path2" transform="translate(1000 0)"/>
<use href="#path16" transform="translate(1500 0)"/>
<use href="#path9" transform="translate(2000 0)"/>
<use href="#path13" transform="translate(2500 0)"/>
<use href="#path1" transform="translate(3000 0)"/>
</g>
</g>
<g>
<g data-source-text="ï€" fill="#20242e40" transform="translate(168 982.584) rotate(0) scale(0.047999997)">
<use href="#path31" transform="translate(0 0)"/>
</g>
</g>
<g>
<g data-source-text="ï€" fill="#20242e40" transform="translate(240 982.584) rotate(0) scale(0.047999997)">
<use href="#path31" transform="translate(0 0)"/>
</g>
</g>
<g>
<g data-source-text="ï€" fill="#20242e40" transform="translate(312 982.584) rotate(0) scale(0.047999997)">
<use href="#path31" transform="translate(0 0)"/>
</g>
</g>
<g>
<g data-source-text="ï€" fill="#20242e40" transform="translate(384 982.584) rotate(0) scale(0.047999997)">
<use href="#path31" transform="translate(0 0)"/>
</g>
</g>
<g>
<g data-source-text="ï€" fill="#20242e40" transform="translate(456 982.584) rotate(0) scale(0.047999997)">
<use href="#path31" transform="translate(0 0)"/>
</g>
</g>
<g>
<g data-source-text="ï€" fill="#20242e40" transform="translate(528 982.584) rotate(0) scale(0.047999997)">
<use href="#path31" transform="translate(0 0)"/>
</g>
</g>
<g>
<g data-source-text="ï€" fill="#20242e40" transform="translate(600 982.584) rotate(0) scale(0.047999997)">
<use href="#path31" transform="translate(0 0)"/>
</g>
</g>
<g>
<g data-source-text="ï€" fill="#20242e40" transform="translate(672 982.584) rotate(0) scale(0.047999997)">
<use href="#path31" transform="translate(0 0)"/>
</g>
</g>
<g>
<g data-source-text="ï€" fill="#20242e40" transform="translate(744 982.584) rotate(0) scale(0.047999997)">
<use href="#path31" transform="translate(0 0)"/>
</g>
</g>
<g>
<g data-source-text="ï€" fill="#20242e40" transform="translate(816 982.584) rotate(0) scale(0.047999997)">
<use href="#path31" transform="translate(0 0)"/>
</g>
</g>
<g>
<g data-source-text="ï€" fill="#20242e40" transform="translate(888 982.584) rotate(0) scale(0.047999997)">
<use href="#path31" transform="translate(0 0)"/>
</g>
</g>
<g>
<g data-source-text="ï€" fill="#20242e40" transform="translate(960 982.584) rotate(0) scale(0.047999997)">
<use href="#path31" transform="translate(0 0)"/>
</g>
</g>
<g>
<g data-source-text="ï€" fill="#20242e40" transform="translate(1032 982.584) rotate(0) scale(0.047999997)">
<use href="#path31" transform="translate(0 0)"/>
</g>
</g>
<g>
<g data-source-text="ï€" fill="#20242e40" transform="translate(1104 982.584) rotate(0) scale(0.047999997)">
<use href="#path31" transform="translate(0 0)"/>
</g>
</g>
<g>
<g data-source-text="ï€" fill="#20242e40" transform="translate(1176 982.584) rotate(0) scale(0.047999997)">
<use href="#path31" transform="translate(0 0)"/>
</g>
</g>
<g>
<g data-source-text="ï€" fill="#20242e40" transform="translate(1248 982.584) rotate(0) scale(0.047999997)">
<use href="#path31" transform="translate(0 0)"/>
</g>
</g>
<g>
<g data-source-text="U+1F8D0" fill="#20242e" transform="translate(30 1049.292) rotate(0) scale(0.023999998)">
<use href="#path17" transform="translate(0 0)"/>
<use href="#path18" transform="translate(500 0)"/>
<use href="#path2" transform="translate(1000 0)"/>
<use href="#path16" transform="translate(1500 0)"/>
<use href="#path9" transform="translate(2000 0)"/>
<use href="#path14" transform="translate(2500 0)"/>
<use href="#path1" transform="translate(3000 0)"/>
</g>
</g>
<g>
<g data-source-text="ï€" fill="#20242e40" transform="translate(168 1054.584) rotate(0) scale(0.047999997)">
<use href="#path31" transform="translate(0 0)"/>
</g>
</g>
<g>
<g data-source-text="ï€" fill="#20242e40" transform="translate(240 1054.584) rotate(0) scale(0.047999997)">
<use href="#path31" transform="translate(0 0)"/>
</g>
</g>
<g>
<g data-source-text="ï€" fill="#20242e40" transform="translate(312 1054.584) rotate(0) scale(0.047999997)">
<use href="#path31" transform="translate(0 0)"/>
</g>
</g>
<g>
<g data-source-text="ï€" fill="#20242e40" transform="translate(384 1054.584) rotate(0) scale(0.047999997)">
<use href="#path31" transform="translate(0 0)"/>
</g>
</g>
<g>
<g data-source-text="ï€" fill="#20242e40" transform="translate(456 1054.584) rotate(0) scale(0.047999997)">
<use href="#path31" transform="translate(0 0)"/>
</g>
</g>
<g>
<g data-source-text="ï€" fill="#20242e40" transform="translate(528 1054.584) rotate(0) scale(0.047999997)">
<use href="#path31" transform="translate(0 0)"/>
</g>
</g>
<g>
<g data-source-text="ï€" fill="#20242e40" transform="translate(600 1054.584) rotate(0) scale(0.047999997)">
<use href="#path31" transform="translate(0 0)"/>
</g>
</g>
<g>
<g data-source-text="ï€" fill="#20242e40" transform="translate(672 1054.584) rotate(0) scale(0.047999997)">
<use href="#path31" transform="translate(0 0)"/>
</g>
</g>
<g>
<g data-source-text="ï€" fill="#20242e40" transform="translate(744 1054.584) rotate(0) scale(0.047999997)">
<use href="#path31" transform="translate(0 0)"/>
</g>
</g>
<g>
<g data-source-text="ï€" fill="#20242e40" transform="translate(816 1054.584) rotate(0) scale(0.047999997)">
<use href="#path31" transform="translate(0 0)"/>
</g>
</g>
<g>
<g data-source-text="ï€" fill="#20242e40" transform="translate(888 1054.584) rotate(0) scale(0.047999997)">
<use href="#path31" transform="translate(0 0)"/>
</g>
</g>
<g>
<g data-source-text="ï€" fill="#20242e40" transform="translate(960 1054.584) rotate(0) scale(0.047999997)">
<use href="#path31" transform="translate(0 0)"/>
</g>
</g>
<g>
<g data-source-text="ï€" fill="#20242e40" transform="translate(1032 1054.584) rotate(0) scale(0.047999997)">
<use href="#path31" transform="translate(0 0)"/>
</g>
</g>
<g>
<g data-source-text="ï€" fill="#20242e40" transform="translate(1104 1054.584) rotate(0) scale(0.047999997)">
<use href="#path31" transform="translate(0 0)"/>
</g>
</g>
<g>
<g data-source-text="ï€" fill="#20242e40" transform="translate(1176 1054.584) rotate(0) scale(0.047999997)">
<use href="#path31" transform="translate(0 0)"/>
</g>
</g>
<g>
<g data-source-text="ï€" fill="#20242e40" transform="translate(1248 1054.584) rotate(0) scale(0.047999997)">
<use href="#path31" transform="translate(0 0)"/>
</g>
</g>
<g>
<g data-source-text="U+1F8E0" fill="#20242e" transform="translate(30 1121.292) rotate(0) scale(0.023999998)">
<use href="#path17" transform="translate(0 0)"/>
<use href="#path18" transform="translate(500 0)"/>
<use href="#path2" transform="translate(1000 0)"/>
<use href="#path16" transform="translate(1500 0)"/>
<use href="#path9" transform="translate(2000 0)"/>
<use href="#path15" transform="translate(2500 0)"/>
<use href="#path1" transform="translate(3000 0)"/>
</g>
</g>
<g>
<g data-source-text="ï€" fill="#20242e40" transform="translate(168 1126.584) rotate(0) scale(0.047999997)">
<use href="#path31" transform="translate(0 0)"/>
</g>
</g>
<g>
<g data-source-text="ï€" fill="#20242e40" transform="translate(240 1126.584) rotate(0) scale(0.047999997)">
<use href="#path31" transform="translate(0 0)"/>
</g>
</g>
<g>
<g data-source-text="ï€" fill="#20242e40" transform="translate(312 1126.584) rotate(0) scale(0.047999997)">
<use href="#path31" transform="translate(0 0)"/>
</g>
</g>
<g>
<g data-source-text="ï€" fill="#20242e40" transform="translate(384 1126.584) rotate(0) scale(0.047999997)">
<use href="#path31" transform="translate(0 0)"/>
</g>
</g>
<g>
<g data-source-text="ï€" fill="#20242e40" transform="translate(456 1126.584) rotate(0) scale(0.047999997)">
<use href="#path31" transform="translate(0 0)"/>
</g>
</g>
<g>
<g data-source-text="ï€" fill="#20242e40" transform="translate(528 1126.584) rotate(0) scale(0.047999997)">
<use href="#path31" transform="translate(0 0)"/>
</g>
</g>
<g>
<g data-source-text="ï€" fill="#20242e40" transform="translate(600 1126.584) rotate(0) scale(0.047999997)">
<use href="#path31" transform="translate(0 0)"/>
</g>
</g>
<g>
<g data-source-text="ï€" fill="#20242e40" transform="translate(672 1126.584) rotate(0) scale(0.047999997)">
<use href="#path31" transform="translate(0 0)"/>
</g>
</g>
<g>
<g data-source-text="ï€" fill="#20242e40" transform="translate(744 1126.584) rotate(0) scale(0.047999997)">
<use href="#path31" transform="translate(0 0)"/>
</g>
</g>
<g>
<g data-source-text="ï€" fill="#20242e40" transform="translate(816 1126.584) rotate(0) scale(0.047999997)">
<use href="#path31" transform="translate(0 0)"/>
</g>
</g>
<g>
<g data-source-text="ï€" fill="#20242e40" transform="translate(888 1126.584) rotate(0) scale(0.047999997)">
<use href="#path31" transform="translate(0 0)"/>
</g>
</g>
<g>
<g data-source-text="ï€" fill="#20242e40" transform="translate(960 1126.584) rotate(0) scale(0.047999997)">
<use href="#path31" transform="translate(0 0)"/>
</g>
</g>
<g>
<g data-source-text="ï€" fill="#20242e40" transform="translate(1032 1126.584) rotate(0) scale(0.047999997)">
<use href="#path31" transform="translate(0 0)"/>
</g>
</g>
<g>
<g data-source-text="ï€" fill="#20242e40" transform="translate(1104 1126.584) rotate(0) scale(0.047999997)">
<use href="#path31" transform="translate(0 0)"/>
</g>
</g>
<g>
<g data-source-text="ï€" fill="#20242e40" transform="translate(1176 1126.584) rotate(0) scale(0.047999997)">
<use href="#path31" transform="translate(0 0)"/>
</g>
</g>
<g>
<g data-source-text="ï€" fill="#20242e40" transform="translate(1248 1126.584) rotate(0) scale(0.047999997)">
<use href="#path31" transform="translate(0 0)"/>
</g>
</g>
<g>
<g data-source-text="U+1F8F0" fill="#20242e" transform="translate(30 1193.292) rotate(0) scale(0.023999998)">
<use href="#path17" transform="translate(0 0)"/>
<use href="#path18" transform="translate(500 0)"/>
<use href="#path2" transform="translate(1000 0)"/>
<use href="#path16" transform="translate(1500 0)"/>
<use href="#path9" transform="translate(2000 0)"/>
<use href="#path16" transform="translate(2500 0)"/>
<use href="#path1" transform="translate(3000 0)"/>
</g>
</g>
<g>
<g data-source-text="ï€" fill="#20242e40" transform="translate(168 1198.584) rotate(0) scale(0.047999997)">
<use href="#path31" transform="translate(0 0)"/>
</g>
</g>
<g>
<g data-source-text="ï€" fill="#20242e40" transform="translate(240 1198.584) rotate(0) scale(0.047999997)">
<use href="#path31" transform="translate(0 0)"/>
</g>
</g>
<g>
<g data-source-text="ï€" fill="#20242e40" transform="translate(312 1198.584) rotate(0) scale(0.047999997)">
<use href="#path31" transform="translate(0 0)"/>
</g>
</g>
<g>
<g data-source-text="ï€" fill="#20242e40" transform="translate(384 1198.584) rotate(0) scale(0.047999997)">
<use href="#path31" transform="translate(0 0)"/>
</g>
</g>
<g>
<g data-source-text="ï€" fill="#20242e40" transform="translate(456 1198.584) rotate(0) scale(0.047999997)">
<use href="#path31" transform="translate(0 0)"/>
</g>
</g>
<g>
<g data-source-text="ï€" fill="#20242e40" transform="translate(528 1198.584) rotate(0) scale(0.047999997)">
<use href="#path31" transform="translate(0 0)"/>
</g>
</g>
<g>
<g data-source-text="ï€" fill="#20242e40" transform="translate(600 1198.584) rotate(0) scale(0.047999997)">
<use href="#path31" transform="translate(0 0)"/>
</g>
</g>
<g>
<g data-source-text="ï€" fill="#20242e40" transform="translate(672 1198.584) rotate(0) scale(0.047999997)">
<use href="#path31" transform="translate(0 0)"/>
</g>
</g>
<g>
<g data-source-text="ï€" fill="#20242e40" transform="translate(744 1198.584) rotate(0) scale(0.047999997)">
<use href="#path31" transform="translate(0 0)"/>
</g>
</g>
<g>
<g data-source-text="ï€" fill="#20242e40" transform="translate(816 1198.584) rotate(0) scale(0.047999997)">
<use href="#path31" transform="translate(0 0)"/>
</g>
</g>
<g>
<g data-source-text="ï€" fill="#20242e40" transform="translate(888 1198.584) rotate(0) scale(0.047999997)">
<use href="#path31" transform="translate(0 0)"/>
</g>
</g>
<g>
<g data-source-text="ï€" fill="#20242e40" transform="translate(960 1198.584) rotate(0) scale(0.047999997)">
<use href="#path31" transform="translate(0 0)"/>
</g>
</g>
<g>
<g data-source-text="ï€" fill="#20242e40" transform="translate(1032 1198.584) rotate(0) scale(0.047999997)">
<use href="#path31" transform="translate(0 0)"/>
</g>
</g>
<g>
<g data-source-text="ï€" fill="#20242e40" transform="translate(1104 1198.584) rotate(0) scale(0.047999997)">
<use href="#path31" transform="translate(0 0)"/>
</g>
</g>
<g>
<g data-source-text="ï€" fill="#20242e40" transform="translate(1176 1198.584) rotate(0) scale(0.047999997)">
<use href="#path31" transform="translate(0 0)"/>
</g>
</g>
<g>
<g data-source-text="ï€" fill="#20242e40" transform="translate(1248 1198.584) rotate(0) scale(0.047999997)">
<use href="#path31" transform="translate(0 0)"/>
</g>
</g>
</svg>