<?xml version="1.0" encoding="UTF-8" standalone="no"?>
<svg height="216" viewBox="0 0 1296 216" width="1296" xmlns="http://www.w3.org/2000/svg">
<defs>
<path d="M 250 8 Q 223 8 196 3 Q 169 -2 145 -15 Q 121 -28 102.5 -48.5 Q 84 -69 72.5 -94 Q 61 -119 56.5 -146 Q 52 -173 52 -200 L 52 -535 Q 52 -562 56.5 -589 Q 61 -616 72.5 -641 Q 84 -666 102.5 -686.5 Q 121 -707 145 -720 Q 169 -733 196 -738 Q 223 -743 250 -743 Q 277 -743 304 -738 Q 331 -733 355 -720 Q 379 -707 397.5 -686.5 Q 416 -666 427.5 -641 Q 439 -616 443.5 -589 Q 448 -562 448 -535 L 448 -200 Q 448 -173 443.5 -146 Q 439 -119 427.5 -94 Q 416 -69 397.5 -48.5 Q 379 -28 355 -15 Q 331 -2 304 3 Q 277 8 250 8 Z M 152 -338 L 348 -493 L 348 -535 Q 348 -557 343 -579 Q 338 -601 325.5 -618.5 Q 313 -636 292.5 -645.5 Q 272 -655 250 -655 Q 228 -655 207.5 -645.5 Q 187 -636 174.5 -618.5 Q 162 -601 157 -579 Q 152 -557 152 -535 Z M 250 -80 Q 272 -80 292.5 -89.5 Q 313 -99 325.5 -116.5 Q 338 -134 343 -156 Q 348 -178 348 -200 L 348 -397 L 152 -242 L 152 -200 Q 152 -178 157 -156 Q 162 -134 174.5 -116.5 Q 187 -99 207.5 -89.5 Q 228 -80 250 -80 Z " id="path1"/>
<path d="M 230 0 L 230 -632 L 110 -528 L 55 -584 L 230 -735 L 330 -735 L 330 0 Z " id="path2"/>
<path d="M 60 0 L 60 -1 Q 60 -27 61 -54 Q 62 -81 65.5 -107 Q 69 -133 77 -158.5 Q 85 -184 96.5 -208 Q 108 -232 123 -253.5 Q 138 -275 156 -294.5 Q 174 -314 194 -331 Q 214 -348 235.5 -364 Q 257 -380 277.5 -397 Q 298 -414 313 -435.5 Q 328 -457 336 -483 Q 344 -509 344 -535 Q 344 -557 339.5 -578 Q 335 -599 323.5 -617 Q 312 -635 292 -645 Q 272 -655 251 -655 Q 231 -655 212.5 -647.5 Q 194 -640 181.5 -625 Q 169 -610 163.5 -591 Q 158 -572 158 -552 L 158 -548 L 58 -548 L 58 -555 Q 58 -581 63.5 -606 Q 69 -631 81 -653 Q 93 -675 111.5 -693 Q 130 -711 152.5 -722.5 Q 175 -734 200.5 -738.5 Q 226 -743 251 -743 Q 278 -743 304.5 -737.5 Q 331 -732 354.5 -719 Q 378 -706 396 -685.5 Q 414 -665 425 -640.5 Q 436 -616 440 -589 Q 444 -562 444 -535 Q 444 -501 435 -468 Q 426 -435 407.5 -406 Q 389 -377 364 -353.5 Q 339 -330 312.5 -308.5 Q 286 -287 261 -264 Q 236 -241 216 -213 Q 196 -185 183 -153.5 Q 170 -122 165 -88 L 440 -88 L 440 0 Z " id="path3"/>
<path d="M 253 8 Q 227 8 201 4 Q 175 -0 151 -11.5 Q 127 -23 107.5 -40.5 Q 88 -58 75.5 -81 Q 63 -104 56.5 -129.5 Q 50 -155 50 -181 L 50 -187 L 150 -187 L 150 -184 Q 150 -163 157 -143 Q 164 -123 178 -108 Q 192 -93 212 -86.5 Q 232 -80 253 -80 Q 275 -80 296 -88.5 Q 317 -97 330.5 -114.5 Q 344 -132 350 -154 Q 356 -176 356 -198 Q 356 -217 352 -235.5 Q 348 -254 339 -271 Q 330 -288 316.5 -301 Q 303 -314 286 -322 Q 269 -330 250 -332 Q 231 -334 212 -334 L 212 -422 Q 229 -422 246 -424 Q 263 -426 278.5 -433 Q 294 -440 306 -452.5 Q 318 -465 325.5 -480.5 Q 333 -496 336.5 -513 Q 340 -530 340 -547 Q 340 -566 335.5 -585.5 Q 331 -605 320 -621.5 Q 309 -638 291 -646.5 Q 273 -655 253 -655 Q 234 -655 216 -647 Q 198 -639 187 -624 Q 176 -609 171 -590 Q 166 -571 166 -553 L 166 -548 L 66 -548 L 66 -556 Q 66 -581 71.5 -605.5 Q 77 -630 88 -652 Q 99 -674 116.5 -692.5 Q 134 -711 156.5 -722.5 Q 179 -734 203.5 -738.5 Q 228 -743 253 -743 Q 278 -743 303.5 -738 Q 329 -733 351 -721 Q 373 -709 390.5 -690 Q 408 -671 419 -648 Q 430 -625 435 -600 Q 440 -575 440 -550 Q 440 -524 434 -498.5 Q 428 -473 416 -450.5 Q 404 -428 385 -409.5 Q 366 -391 343 -379 Q 370 -368 391.5 -348.5 Q 413 -329 427.5 -304.5 Q 442 -280 449 -252 Q 456 -224 456 -196 Q 456 -168 450 -141.5 Q 444 -115 432 -91 Q 420 -67 401 -47 Q 382 -27 358 -14.5 Q 334 -2 307 3 Q 280 8 253 8 Z " id="path4"/>
<path d="M 282 0 L 282 -188 L 52 -188 L 52 -275 L 276 -735 L 377 -735 L 152 -275 L 282 -275 L 282 -435 L 383 -435 L 383 -275 L 440 -275 L 440 -188 L 383 -188 L 383 0 Z " id="path5"/>
<path d="M 252 8 Q 227 8 202.5 3.5 Q 178 -1 155.5 -12 Q 133 -23 114.5 -41 Q 96 -59 84 -80.5 Q 72 -102 65.5 -126.5 Q 59 -151 58 -176 L 159 -176 Q 160 -158 166.5 -139.5 Q 173 -121 185.5 -107 Q 198 -93 216 -86.5 Q 234 -80 252 -80 Q 269 -80 285 -87 Q 301 -94 312.5 -107 Q 324 -120 330.5 -135.5 Q 337 -151 341 -167.5 Q 345 -184 346.5 -201 Q 348 -218 348 -235 Q 348 -252 346.5 -269 Q 345 -286 341.5 -302.5 Q 338 -319 331.5 -334.5 Q 325 -350 314.5 -363 Q 304 -376 288 -383.5 Q 272 -391 256 -391 Q 240 -391 224 -387 Q 208 -383 195.5 -373.5 Q 183 -364 176 -349.5 Q 169 -335 168 -319 L 68 -319 L 68 -735 L 421 -735 L 421 -647 L 168 -647 L 168 -464 Q 189 -472 211 -475 Q 233 -478 256 -478 Q 285 -478 313.5 -470.5 Q 342 -463 365.5 -445.5 Q 389 -428 405.5 -403 Q 422 -378 431.5 -350.5 Q 441 -323 444.5 -294 Q 448 -265 448 -235 Q 448 -206 444.5 -176.5 Q 441 -147 431 -119 Q 421 -91 404.5 -66.5 Q 388 -42 364 -24.5 Q 340 -7 311 0.5 Q 282 8 252 8 Z " id="path6"/>
<path d="M 250 8 Q 221 8 192.5 1.5 Q 164 -5 140 -21 Q 116 -37 98.5 -60.5 Q 81 -84 70.5 -111 Q 60 -138 56 -166.5 Q 52 -195 52 -224 Q 52 -268 59.5 -311 Q 67 -354 81 -395.5 Q 95 -437 113 -477 Q 131 -517 150 -556 L 238 -735 L 347 -735 L 240 -517 Q 228 -492 216 -467 Q 204 -442 194 -416 Q 212 -436 238.5 -446 Q 265 -456 292 -456 Q 318 -456 343.5 -447 Q 369 -438 387.5 -419.5 Q 406 -401 418 -377 Q 430 -353 436.5 -328 Q 443 -303 445.5 -276.5 Q 448 -250 448 -224 Q 448 -195 444 -166.5 Q 440 -138 429.5 -111 Q 419 -84 401.5 -60.5 Q 384 -37 360 -21 Q 336 -5 307.5 1.5 Q 279 8 250 8 Z M 250 -80 Q 266 -80 282 -85.5 Q 298 -91 309.5 -102.5 Q 321 -114 328.5 -129 Q 336 -144 340.5 -159.5 Q 345 -175 346.5 -191.5 Q 348 -208 348 -224 Q 348 -240 346.5 -256.5 Q 345 -273 340.5 -289 Q 336 -305 328.5 -319.5 Q 321 -334 309.5 -345.5 Q 298 -357 282 -362.5 Q 266 -368 250 -368 Q 235 -368 221 -363.5 Q 207 -359 195.5 -349.5 Q 184 -340 176 -327.5 Q 168 -315 163.5 -301 Q 159 -287 156.5 -272.5 Q 154 -258 153 -243 Q 153 -238 152.5 -233.5 Q 152 -229 152 -224 Q 152 -208 153.5 -191.5 Q 155 -175 159.5 -159.5 Q 164 -144 171.5 -129 Q 179 -114 190.5 -102.5 Q 202 -91 218 -85.5 Q 234 -80 250 -80 Z " id="path7"/>
<path d="M 138 0 L 336 -647 L 60 -647 L 60 -735 L 440 -735 L 440 -647 L 242 0 Z " id="path8"/>
<path d="M 250 8 Q 225 8 200 4 Q 175 -0 152 -10 Q 129 -20 109.5 -37 Q 90 -54 77.5 -75.5 Q 65 -97 58.5 -121.5 Q 52 -146 52 -172 Q 52 -203 61.5 -232.5 Q 71 -262 88 -288.5 Q 105 -315 127 -336.5 Q 149 -358 174 -378 Q 152 -396 132.5 -417 Q 113 -438 98.5 -462.5 Q 84 -487 76 -514.5 Q 68 -542 68 -570 Q 68 -594 73.5 -617.5 Q 79 -641 90.5 -661.5 Q 102 -682 119.5 -698.5 Q 137 -715 158 -725 Q 179 -735 202.5 -739 Q 226 -743 250 -743 Q 274 -743 297.5 -739 Q 321 -735 342 -725 Q 363 -715 380.5 -698.5 Q 398 -682 409.5 -661.5 Q 421 -641 426.5 -617.5 Q 432 -594 432 -570 Q 432 -542 424 -514.5 Q 416 -487 401.5 -462.5 Q 387 -438 367.5 -417 Q 348 -396 326 -378 Q 351 -358 373 -336.5 Q 395 -315 412 -288.5 Q 429 -262 438.5 -232.5 Q 448 -203 448 -172 Q 448 -146 441.5 -121.5 Q 435 -97 422.5 -75.5 Q 410 -54 390.5 -37 Q 371 -20 348 -10 Q 325 -0 300 4 Q 275 8 250 8 Z M 250 -434 Q 266 -447 280.5 -461.5 Q 295 -476 306.5 -493 Q 318 -510 325 -529.5 Q 332 -549 332 -569 Q 332 -586 327 -602.5 Q 322 -619 310.5 -631.5 Q 299 -644 283 -649.5 Q 267 -655 250 -655 Q 233 -655 217 -649.5 Q 201 -644 189.5 -631.5 Q 178 -619 173 -602.5 Q 168 -586 168 -569 Q 168 -549 175 -529.5 Q 182 -510 193.5 -493 Q 205 -476 219.5 -461.5 Q 234 -447 250 -434 Z M 250 -80 Q 269 -80 288 -85.5 Q 307 -91 320.5 -104 Q 334 -117 341 -135.5 Q 348 -154 348 -173 Q 348 -196 339.5 -217.5 Q 331 -239 317 -257.5 Q 303 -276 285.5 -291 Q 268 -306 250 -320 Q 232 -306 214.5 -291 Q 197 -276 183 -257.5 Q 169 -239 160.5 -217.5 Q 152 -196 152 -173 Q 152 -154 159 -135.5 Q 166 -117 179.5 -104 Q 193 -91 212 -85.5 Q 231 -80 250 -80 Z " id="path9"/>
<path d="M 262 0 L 153 0 L 260 -218 Q 272 -243 284 -268 Q 296 -293 306 -319 Q 288 -299 261.5 -289 Q 235 -279 208 -279 Q 182 -279 156.5 -288 Q 131 -297 112.5 -315.5 Q 94 -334 82 -358 Q 70 -382 63.5 -407 Q 57 -432 54.5 -458.5 Q 52 -485 52 -511 Q 52 -540 56 -568.5 Q 60 -597 70.5 -624 Q 81 -651 98.5 -674.5 Q 116 -698 140 -714 Q 164 -730 192.5 -736.5 Q 221 -743 250 -743 Q 279 -743 307.5 -736.5 Q 336 -730 360 -714 Q 384 -698 401.5 -674.5 Q 419 -651 429.5 -624 Q 440 -597 444 -568.5 Q 448 -540 448 -511 Q 448 -467 440.5 -424 Q 433 -381 419 -339.5 Q 405 -298 387 -258 Q 369 -218 350 -179 Z M 250 -367 Q 265 -367 279 -371.5 Q 293 -376 304.5 -385.5 Q 316 -395 324 -407.5 Q 332 -420 336.5 -434 Q 341 -448 343.5 -462.5 Q 346 -477 347 -492 Q 347 -497 347.5 -501.5 Q 348 -506 348 -511 Q 348 -527 346.5 -543.5 Q 345 -560 340.5 -575.5 Q 336 -591 328.5 -606 Q 321 -621 309.5 -632.5 Q 298 -644 282 -649.5 Q 266 -655 250 -655 Q 234 -655 218 -649.5 Q 202 -644 190.5 -632.5 Q 179 -621 171.5 -606 Q 164 -591 159.5 -575.5 Q 155 -560 153.5 -543.5 Q 152 -527 152 -511 Q 152 -495 153.5 -478.5 Q 155 -462 159.5 -446 Q 164 -430 171.5 -415.5 Q 179 -401 190.5 -389.5 Q 202 -378 218 -372.5 Q 234 -367 250 -367 Z " id="path10"/>
<path d="M 39 0 L 53 -70 L 192 -735 L 308 -735 L 461 0 L 359 0 L 326 -172 L 174 -172 L 141 0 Z M 310 -260 L 267 -490 Q 263 -513 258.5 -536 Q 254 -559 250 -582 Q 246 -559 241.5 -536 Q 237 -513 233 -490 L 190 -260 Z " id="path11"/>
<path d="M 60 0 L 60 -735 L 235 -735 Q 261 -735 287 -730.5 Q 313 -726 336.5 -714 Q 360 -702 378.5 -682.5 Q 397 -663 408.5 -639.5 Q 420 -616 424.5 -590 Q 429 -564 429 -538 Q 429 -515 425.5 -492 Q 422 -469 411.5 -448.5 Q 401 -428 384.5 -411 Q 368 -394 348 -383 Q 373 -373 394.5 -355.5 Q 416 -338 430.5 -314.5 Q 445 -291 450.5 -264 Q 456 -237 456 -210 Q 456 -181 450.5 -152.5 Q 445 -124 431 -98.5 Q 417 -73 395.5 -53.5 Q 374 -34 347.5 -21.5 Q 321 -9 292.5 -4.5 Q 264 -0 235 0 Z M 160 -424 L 235 -424 Q 256 -424 275.5 -432.5 Q 295 -441 307.5 -457.5 Q 320 -474 324.5 -494.5 Q 329 -515 329 -536 Q 329 -557 324.5 -577.5 Q 320 -598 307.5 -614.5 Q 295 -631 275.5 -639 Q 256 -647 235 -647 L 160 -647 Z M 160 -88 L 235 -88 Q 251 -88 267.5 -91 Q 284 -94 298.5 -101.5 Q 313 -109 324.5 -121 Q 336 -133 343 -148 Q 350 -163 353 -179 Q 356 -195 356 -212 Q 356 -228 353 -244.5 Q 350 -261 343 -276 Q 336 -291 324.5 -303 Q 313 -315 298.5 -322.5 Q 284 -330 267.5 -333 Q 251 -336 235 -336 L 160 -336 Z " id="path12"/>
<path d="M 247 8 Q 220 8 193 3 Q 166 -2 142.5 -15.5 Q 119 -29 101 -49.5 Q 83 -70 71.5 -94.5 Q 60 -119 56 -146 Q 52 -173 52 -200 L 52 -535 Q 52 -562 56 -589 Q 60 -616 71.5 -640.5 Q 83 -665 101 -685.5 Q 119 -706 142.5 -719.5 Q 166 -733 193 -738 Q 220 -743 247 -743 Q 273 -743 298 -738.5 Q 323 -734 346 -723 Q 369 -712 387.5 -694 Q 406 -676 418 -653.5 Q 430 -631 436 -606 Q 442 -581 442 -555 L 442 -548 L 342 -548 L 342 -552 Q 342 -572 336 -591.5 Q 330 -611 317.5 -626 Q 305 -641 286 -648 Q 267 -655 247 -655 Q 225 -655 205 -645.5 Q 185 -636 173 -618 Q 161 -600 156.5 -578.5 Q 152 -557 152 -535 L 152 -200 Q 152 -178 156.5 -156.5 Q 161 -135 173 -117 Q 185 -99 205 -89.5 Q 225 -80 247 -80 Q 267 -80 286 -87 Q 305 -94 317.5 -109 Q 330 -124 336 -143.5 Q 342 -163 342 -183 L 342 -187 L 442 -187 L 442 -180 Q 442 -154 436 -129 Q 430 -104 418 -81.5 Q 406 -59 387.5 -41 Q 369 -23 346 -12 Q 323 -1 298 3.5 Q 273 8 247 8 Z " id="path13"/>
<path d="M 60 0 L 60 -735 L 220 -735 Q 250 -735 280.5 -730.5 Q 311 -726 339 -713.5 Q 367 -701 390.5 -680 Q 414 -659 429 -632.5 Q 444 -606 450 -575.5 Q 456 -545 456 -515 L 456 -220 Q 456 -190 450 -159.5 Q 444 -129 429 -102.5 Q 414 -76 390.5 -55 Q 367 -34 339 -21.5 Q 311 -9 280.5 -4.5 Q 250 -0 220 0 Z M 160 -88 L 220 -88 Q 238 -88 256 -91 Q 274 -94 290 -101.5 Q 306 -109 319 -122 Q 332 -135 340.5 -151 Q 349 -167 352.5 -184.5 Q 356 -202 356 -220 L 356 -515 Q 356 -533 352.5 -550.5 Q 349 -568 340.5 -584 Q 332 -600 319 -613 Q 306 -626 290 -633.5 Q 274 -641 256 -644 Q 238 -647 220 -647 L 160 -647 Z " id="path14"/>
<path d="M 68 0 L 68 -735 L 440 -735 L 440 -647 L 168 -647 L 168 -426 L 383 -426 L 383 -338 L 168 -338 L 168 -88 L 440 -88 L 440 0 Z " id="path15"/>
<path d="M 90 0 L 90 -735 L 440 -735 L 440 -647 L 190 -647 L 190 -426 L 383 -426 L 383 -338 L 190 -338 L 190 0 Z " id="path16"/>
<path d="M 250 8 Q 223 8 196.5 2.5 Q 170 -3 147 -16.5 Q 124 -30 106.5 -50.5 Q 89 -71 78.5 -95.5 Q 68 -120 64 -146.5 Q 60 -173 60 -200 L 60 -735 L 160 -735 L 160 -200 Q 160 -186 161.5 -172 Q 163 -158 167.5 -144.5 Q 172 -131 179.5 -118.5 Q 187 -106 197.5 -97 Q 208 -88 222 -84 Q 236 -80 250 -80 Q 264 -80 278 -84 Q 292 -88 302.5 -97 Q 313 -106 320.5 -118.5 Q 328 -131 332.5 -144.5 Q 337 -158 338.5 -172 Q 340 -186 340 -200 L 340 -735 L 440 -735 L 440 -200 Q 440 -173 436 -146.5 Q 432 -120 421.5 -95.5 Q 411 -71 393.5 -50.5 Q 376 -30 353 -16.5 Q 330 -3 303.5 2.5 Q 277 8 250 8 Z " id="path17"/>
<path d="M 296 -142 L 204 -142 L 204 -300 L 60 -300 L 60 -380 L 204 -380 L 204 -538 L 296 -538 L 296 -380 L 440 -380 L 440 -300 L 296 -300 Z " id="path18"/>
<path d="M 283 44 Q 259 44 235.5 40 Q 212 36 190.5 25.5 Q 169 15 151.5 -1.5 Q 134 -18 123 -39 Q 112 -60 107.5 -83.5 Q 103 -107 103 -131 Q 103 -154 107.5 -177.5 Q 112 -201 123 -222 Q 134 -243 151.5 -259.5 Q 169 -276 190.5 -286.5 Q 212 -297 235.5 -301 Q 259 -305 283 -305 L 391 -305 L 391 -246 L 283 -246 Q 259 -246 236.5 -239 Q 214 -232 197.5 -215.5 Q 181 -199 174.5 -176.5 Q 168 -154 168 -131 Q 168 -107 174.5 -84.5 Q 181 -62 197.5 -45.5 Q 214 -29 236.5 -22 Q 259 -15 283 -15 L 391 -15 L 391 44 Z " id="path19"/>
<path d="M 283 44 Q 259 44 235.5 40 Q 212 36 190.5 25.5 Q 169 15 151.5 -1.5 Q 134 -18 123 -39 Q 112 -60 107.5 -83.5 Q 103 -107 103 -131 Q 103 -154 107.5 -177.5 Q 112 -201 123 -222 Q 134 -243 151.5 -259.5 Q 169 -276 190.5 -286.5 Q 212 -297 235.5 -301 Q 259 -305 283 -305 L 391 -305 L 391 -246 L 283 -246 Q 259 -246 236.5 -239 Q 214 -232 197.5 -215.5 Q 181 -199 174.5 -176.5 Q 168 -154 168 -131 Q 168 -107 174.5 -84.5 Q 181 -62 197.5 -45.5 Q 214 -29 236.5 -22 Q 259 -15 283 -15 L 391 -15 L 391 44 Z M 391 170 L 109 170 L 109 112 L 391 112 Z " id="path20"/>
<path d="M 283 -387 Q 259 -387 235.5 -391 Q 212 -395 190.5 -405 Q 169 -415 151.5 -431.5 Q 134 -448 123 -469 Q 112 -490 107.5 -513.5 Q 103 -537 103 -561 Q 103 -585 107.5 -608.5 Q 112 -632 123 -653 Q 134 -674 151.5 -690.5 Q 169 -707 190.5 -717 Q 212 -727 235.5 -731 Q 259 -735 283 -735 L 391 -735 L 391 -677 L 283 -677 Q 259 -677 236.5 -670 Q 214 -663 197.5 -646.5 Q 181 -630 174.5 -607 Q 168 -584 168 -561 Q 168 -538 174.5 -515 Q 181 -492 197.5 -475.5 Q 214 -459 236.5 -452 Q 259 -445 283 -445 L 391 -445 L 391 -387 Z " id="path21"/>
<path d="M 283 -387 Q 259 -387 235.5 -391 Q 212 -395 190.5 -405 Q 169 -415 151.5 -431.5 Q 134 -448 123 -469 Q 112 -490 107.5 -513.5 Q 103 -537 103 -561 Q 103 -585 107.5 -608.5 Q 112 -632 123 -653 Q 134 -674 151.5 -690.5 Q 169 -707 190.5 -717 Q 212 -727 235.5 -731 Q 259 -735 283 -735 L 391 -735 L 391 -677 L 283 -677 Q 259 -677 236.5 -670 Q 214 -663 197.5 -646.5 Q 181 -630 174.5 -607 Q 168 -584 168 -561 Q 168 -538 174.5 -515 Q 181 -492 197.5 -475.5 Q 214 -459 236.5 -452 Q 259 -445 283 -445 L 391 -445 L 391 -387 Z M 109 -261 L 109 -319 L 391 -319 L 391 -261 Z " id="path22"/>
<path d="M 109 -387 L 109 -445 L 217 -445 Q 241 -445 263.5 -452 Q 286 -459 302.5 -475.5 Q 319 -492 325.5 -515 Q 332 -538 332 -561 Q 332 -584 325.5 -607 Q 319 -630 302.5 -646.5 Q 286 -663 263.5 -670 Q 241 -677 217 -677 L 109 -677 L 109 -735 L 217 -735 Q 241 -735 264.5 -731 Q 288 -727 309.5 -717 Q 331 -707 348.5 -690.5 Q 366 -674 377 -653 Q 388 -632 392.5 -608.5 Q 397 -585 397 -561 Q 397 -537 392.5 -513.5 Q 388 -490 377 -469 Q 366 -448 348.5 -431.5 Q 331 -415 309.5 -405 Q 288 -395 264.5 -391 Q 241 -387 217 -387 Z " id="path23"/>
<path d="M 109 -387 L 109 -445 L 217 -445 Q 241 -445 263.5 -452 Q 286 -459 302.5 -475.5 Q 319 -492 325.5 -515 Q 332 -538 332 -561 Q 332 -584 325.5 -607 Q 319 -630 302.5 -646.5 Q 286 -663 263.5 -670 Q 241 -677 217 -677 L 109 -677 L 109 -735 L 217 -735 Q 241 -735 264.5 -731 Q 288 -727 309.5 -717 Q 331 -707 348.5 -690.5 Q 366 -674 377 -653 Q 388 -632 392.5 -608.5 Q 397 -585 397 -561 Q 397 -537 392.5 -513.5 Q 388 -490 377 -469 Q 366 -448 348.5 -431.5 Q 331 -415 309.5 -405 Q 288 -395 264.5 -391 Q 241 -387 217 -387 Z M 109 -261 L 109 -319 L 391 -319 L 391 -261 Z " id="path24"/>
<path d="M 109 44 L 109 -15 L 217 -15 Q 241 -15 263.5 -22 Q 286 -29 302.5 -45.5 Q 319 -62 325.5 -84.5 Q 332 -107 332 -131 Q 332 -154 325.5 -176.5 Q 319 -199 302.5 -215.5 Q 286 -232 263.5 -239 Q 241 -246 217 -246 L 109 -246 L 109 -305 L 217 -305 Q 241 -305 264.5 -301 Q 288 -297 309.5 -286.5 Q 331 -276 348.5 -259.5 Q 366 -243 377 -222 Q 388 -201 392.5 -177.5 Q 397 -154 397 -131 Q 397 -107 392.5 -83.5 Q 388 -60 377 -39 Q 366 -18 348.5 -1.5 Q 331 15 309.5 25.5 Q 288 36 264.5 40 Q 241 44 217 44 Z " id="path25"/>
<path d="M 109 44 L 109 -15 L 217 -15 Q 241 -15 263.5 -22 Q 286 -29 302.5 -45.5 Q 319 -62 325.5 -84.5 Q 332 -107 332 -131 Q 332 -154 325.5 -176.5 Q 319 -199 302.5 -215.5 Q 286 -232 263.5 -239 Q 241 -246 217 -246 L 109 -246 L 109 -305 L 217 -305 Q 241 -305 264.5 -301 Q 288 -297 309.5 -286.5 Q 331 -276 348.5 -259.5 Q 366 -243 377 -222 Q 388 -201 392.5 -177.5 Q 397 -154 397 -131 Q 397 -107 392.5 -83.5 Q 388 -60 377 -39 Q 366 -18 348.5 -1.5 Q 331 15 309.5 25.5 Q 288 36 264.5 40 Q 241 44 217 44 Z M 391 170 L 109 170 L 109 112 L 391 112 Z " id="path26"/>
<path d="M 164 -610 Q 151 -610 139 -614 Q 127 -618 118 -626.5 Q 109 -635 105 -647.5 Q 101 -660 101 -673 Q 101 -685 105 -697.5 Q 109 -710 118 -718.5 Q 127 -727 139 -731 Q 151 -735 164 -735 Q 176 -735 188.5 -731 Q 201 -727 210 -718.5 Q 219 -710 222.5 -697.5 Q 226 -685 226 -673 Q 226 -660 222.5 -647.5 Q 219 -635 210 -626.5 Q 201 -618 188.5 -614 Q 176 -610 164 -610 Z M 325 0 L 325 -735 L 399 -735 L 399 0 Z " id="path27"/>
<path d="M 325 0 L 325 -735 L 399 -735 L 399 0 Z M 164 -458 Q 151 -458 139 -461.5 Q 127 -465 118 -474 Q 109 -483 105 -495 Q 101 -507 101 -520 Q 101 -533 105 -545 Q 109 -557 118 -566 Q 127 -575 139 -579 Q 151 -583 164 -583 Q 176 -583 188.5 -579 Q 201 -575 210 -566 Q 219 -557 222.5 -545 Q 226 -533 226 -520 Q 226 -507 222.5 -495 Q 219 -483 210 -474 Q 201 -465 188.5 -461.5 Q 176 -458 164 -458 Z " id="path28"/>
<path d="M 325 0 L 325 -735 L 399 -735 L 399 0 Z M 164 -305 Q 151 -305 139 -309 Q 127 -313 118 -321.5 Q 109 -330 105 -342.5 Q 101 -355 101 -368 Q 101 -380 105 -392.5 Q 109 -405 118 -413.5 Q 127 -422 139 -426 Q 151 -430 164 -430 Q 176 -430 188.5 -426 Q 201 -422 210 -413.5 Q 219 -405 222.5 -392.5 Q 226 -380 226 -368 Q 226 -355 222.5 -342.5 Q 219 -330 210 -321.5 Q 201 -313 188.5 -309 Q 176 -305 164 -305 Z " id="path29"/>
<path d="M 325 0 L 325 -735 L 399 -735 L 399 0 Z M 164 -153 Q 151 -153 139 -156.5 Q 127 -160 118 -169 Q 109 -178 105 -190 Q 101 -202 101 -215 Q 101 -228 105 -240 Q 109 -252 118 -261 Q 127 -270 139 -274 Q 151 -278 164 -278 Q 176 -278 188.5 -274 Q 201 -270 210 -261 Q 219 -252 222.5 -240 Q 226 -228 226 -215 Q 226 -202 222.5 -190 Q 219 -178 210 -169 Q 201 -160 188.5 -156.5 Q 176 -153 164 -153 Z " id="path30"/>
<path d="M 325 0 L 325 -735 L 399 -735 L 399 0 Z M 164 0 Q 151 -0 139 -4 Q 127 -8 118 -16.5 Q 109 -25 105 -37.5 Q 101 -50 101 -63 Q 101 -75 105 -87.5 Q 109 -100 118 -108.5 Q 127 -117 139 -121 Q 151 -125 164 -125 Q 176 -125 188.5 -121 Q 201 -117 210 -108.5 Q 219 -100 222.5 -87.5 Q 226 -75 226 -63 Q 226 -50 222.5 -37.5 Q 219 -25 210 -16.5 Q 201 -8 188.5 -4 Q 176 -0 164 0 Z " id="path31"/>
<path d="M 336 -610 Q 324 -610 311.5 -614 Q 299 -618 290 -626.5 Q 281 -635 277.5 -647.5 Q 274 -660 274 -673 Q 274 -685 277.5 -697.5 Q 281 -710 290 -718.5 Q 299 -727 311.5 -731 Q 324 -735 336 -735 Q 349 -735 361 -731 Q 373 -727 382 -718.5 Q 391 -710 395 -697.5 Q 399 -685 399 -673 Q 399 -660 395 -647.5 Q 391 -635 382 -626.5 Q 373 -618 361 -614 Q 349 -610 336 -610 Z M 101 0 L 101 -735 L 175 -735 L 175 0 Z " id="path32"/>
<path d="M 101 0 L 101 -735 L 175 -735 L 175 0 Z M 336 -458 Q 324 -458 311.5 -461.5 Q 299 -465 290 -474 Q 281 -483 277.5 -495 Q 274 -507 274 -520 Q 274 -533 277.5 -545 Q 281 -557 290 -566 Q 299 -575 311.5 -579 Q 324 -583 336 -583 Q 349 -583 361 -579 Q 373 -575 382 -566 Q 391 -557 395 -545 Q 399 -533 399 -520 Q 399 -507 395 -495 Q 391 -483 382 -474 Q 373 -465 361 -461.5 Q 349 -458 336 -458 Z " id="path33"/>
<path d="M 101 0 L 101 -735 L 175 -735 L 175 0 Z M 336 -305 Q 324 -305 311.5 -309 Q 299 -313 290 -321.5 Q 281 -330 277.5 -342.5 Q 274 -355 274 -368 Q 274 -380 277.5 -392.5 Q 281 -405 290 -413.5 Q 299 -422 311.5 -426 Q 324 -430 336 -430 Q 349 -430 361 -426 Q 373 -422 382 -413.5 Q 391 -405 395 -392.5 Q 399 -380 399 -368 Q 399 -355 395 -342.5 Q 391 -330 382 -321.5 Q 373 -313 361 -309 Q 349 -305 336 -305 Z " id="path34"/>
<path d="M 101 0 L 101 -735 L 175 -735 L 175 0 Z M 336 -153 Q 324 -153 311.5 -156.5 Q 299 -160 290 -169 Q 281 -178 277.5 -190 Q 274 -202 274 -215 Q 274 -228 277.5 -240 Q 281 -252 290 -261 Q 299 -270 311.5 -274 Q 324 -278 336 -278 Q 349 -278 361 -274 Q 373 -270 382 -261 Q 391 -252 395 -240 Q 399 -228 399 -215 Q 399 -202 395 -190 Q 391 -178 382 -169 Q 373 -160 361 -156.5 Q 349 -153 336 -153 Z " id="path35"/>
<path d="M 101 0 L 101 -735 L 175 -735 L 175 0 Z M 336 0 Q 324 -0 311.5 -4 Q 299 -8 290 -16.5 Q 281 -25 277.5 -37.5 Q 274 -50 274 -63 Q 274 -75 277.5 -87.5 Q 281 -100 290 -108.5 Q 299 -117 311.5 -121 Q 324 -125 336 -125 Q 349 -125 361 -121 Q 373 -117 382 -108.5 Q 391 -100 395 -87.5 Q 399 -75 399 -63 Q 399 -50 395 -37.5 Q 391 -25 382 -16.5 Q 373 -8 361 -4 Q 349 -0 336 0 Z " id="path36"/>
<path d="M 101 0 L 101 -735 L 399 -735 L 399 -669 L 175 -669 L 175 0 Z " id="path37"/>
<path d="M 101 0 L 101 -735 L 175 -735 L 175 -568 L 399 -568 L 399 -501 L 175 -501 L 175 0 Z " id="path38"/>
<path d="M 101 0 L 101 -735 L 175 -735 L 175 -401 L 399 -401 L 399 -334 L 175 -334 L 175 0 Z " id="path39"/>
<path d="M 101 0 L 101 -735 L 175 -735 L 175 -234 L 399 -234 L 399 -167 L 175 -167 L 175 0 Z " id="path40"/>
<path d="M 101 0 L 101 -735 L 175 -735 L 175 -66 L 399 -66 L 399 0 Z " id="path41"/>
<path d="M 288 -414 L 288 -708 L 353 -708 L 353 -414 Z M 179 -503 Q 168 -503 156.5 -506.5 Q 145 -510 137 -518.5 Q 129 -527 125.5 -538 Q 122 -549 122 -561 Q 122 -573 125.5 -584 Q 129 -595 137 -603.5 Q 145 -612 156.5 -615.5 Q 168 -619 179 -619 Q 191 -619 202.5 -615.5 Q 214 -612 222 -603.5 Q 230 -595 233.5 -584 Q 237 -573 237 -561 Q 237 -549 233.5 -538 Q 230 -527 222 -518.5 Q 214 -510 202.5 -506.5 Q 191 -503 179 -503 Z " id="path42"/>
<path d="M 150 -607 Q 138 -607 127 -610.5 Q 116 -614 107.5 -622.5 Q 99 -631 96 -642 Q 93 -653 93 -665 Q 93 -677 96 -688 Q 99 -699 107.5 -707.5 Q 116 -716 127 -719 Q 138 -722 150 -722 Q 162 -722 173 -719 Q 184 -716 192.5 -707.5 Q 201 -699 204.5 -688 Q 208 -677 208 -665 Q 208 -653 204.5 -642 Q 201 -631 192.5 -622.5 Q 184 -614 173 -610.5 Q 162 -607 150 -607 Z M 173 -437 L 127 -477 L 327 -685 L 373 -645 Z " id="path43"/>
<path d="M 250 -651 Q 238 -651 227 -654 Q 216 -657 207.5 -665.5 Q 199 -674 195.5 -685 Q 192 -696 192 -708 Q 192 -720 195.5 -731 Q 199 -742 207.5 -750.5 Q 216 -759 227 -762.5 Q 238 -766 250 -766 Q 262 -766 273 -762.5 Q 284 -759 292.5 -750.5 Q 301 -742 304.5 -731 Q 308 -720 308 -708 Q 308 -696 304.5 -685 Q 301 -674 292.5 -665.5 Q 284 -657 273 -654 Q 262 -651 250 -651 Z M 109 -532 L 109 -590 L 391 -590 L 391 -532 Z " id="path44"/>
<path d="M 109 -532 L 109 -590 L 327 -590 L 327 -717 L 391 -717 L 391 -532 Z " id="path45"/>
<path d="M 221 -311 L 221 -732 L 154 -660 L 122 -694 L 250 -822 L 378 -694 L 346 -660 L 279 -732 L 279 -311 Z " id="path46"/>
<path d="M 250 -300 L 122 -428 L 154 -462 L 221 -390 L 221 -811 L 279 -811 L 279 -390 L 346 -462 L 378 -428 Z " id="path47"/>
<path d="M 215 -520 L 215 -838 L 285 -838 L 285 -520 Z M 250 -317 Q 238 -317 225.5 -321 Q 213 -325 204.5 -333.5 Q 196 -342 192.5 -354 Q 189 -366 189 -379 Q 189 -391 192.5 -403 Q 196 -415 204.5 -424 Q 213 -433 225.5 -436.5 Q 238 -440 250 -440 Q 262 -440 274.5 -436.5 Q 287 -433 295.5 -424 Q 304 -415 307.5 -403 Q 311 -391 311 -379 Q 311 -366 307.5 -354 Q 304 -342 295.5 -333.5 Q 287 -325 274.5 -321 Q 262 -317 250 -317 Z " id="path48"/>
<path d="M 250 -720 Q 238 -720 225.5 -724 Q 213 -728 204.5 -736.5 Q 196 -745 192.5 -757 Q 189 -769 189 -782 Q 189 -794 192.5 -806 Q 196 -818 204.5 -827 Q 213 -836 225.5 -839.5 Q 238 -843 250 -843 Q 262 -843 274.5 -839.5 Q 287 -836 295.5 -827 Q 304 -818 307.5 -806 Q 311 -794 311 -782 Q 311 -769 307.5 -757 Q 304 -745 295.5 -736.5 Q 287 -728 274.5 -724 Q 262 -720 250 -720 Z M 215 -323 L 215 -640 L 285 -640 L 285 -323 Z " id="path49"/>
<path d="M 250 -290 Q 238 -290 225.5 -293.5 Q 213 -297 204.5 -306 Q 196 -315 192.5 -327 Q 189 -339 189 -351 Q 189 -364 192.5 -376 Q 196 -388 204.5 -396.5 Q 213 -405 225.5 -409 Q 238 -413 250 -413 Q 262 -413 274.5 -409 Q 287 -405 295.5 -396.5 Q 304 -388 307.5 -376 Q 311 -364 311 -351 Q 311 -339 307.5 -327 Q 304 -315 295.5 -306 Q 287 -297 274.5 -293.5 Q 262 -290 250 -290 Z M 215 107 L 215 -210 L 285 -210 L 285 107 Z " id="path50"/>
</defs>
<g>
<g data-source-text="0" fill="#dee4e3" transform="translate(174 41.292) rotate(0) scale(0.023999998)">
<use href="#path1" transform="translate(0 0)"/>
</g>
</g>
<g>
<g data-source-text="1" fill="#dee4e3" transform="translate(246 41.292) rotate(0) scale(0.023999998)">
<use href="#path2" transform="translate(0 0)"/>
</g>
</g>
<g>
<g data-source-text="2" fill="#dee4e3" transform="translate(318 41.292) rotate(0) scale(0.023999998)">
<use href="#path3" transform="translate(0 0)"/>
</g>
</g>
<g>
<g data-source-text="3" fill="#dee4e3" transform="translate(390 41.292) rotate(0) scale(0.023999998)">
<use href="#path4" transform="translate(0 0)"/>
</g>
</g>
<g>
<g data-source-text="4" fill="#dee4e3" transform="translate(462 41.292) rotate(0) scale(0.023999998)">
<use href="#path5" transform="translate(0 0)"/>
</g>
</g>
<g>
<g data-source-text="5" fill="#dee4e3" transform="translate(534 41.292) rotate(0) scale(0.023999998)">
<use href="#path6" transform="translate(0 0)"/>
</g>
</g>
<g>
<g data-source-text="6" fill="#dee4e3" transform="translate(606 41.292) rotate(0) scale(0.023999998)">
<use href="#path7" transform="translate(0 0)"/>
</g>
</g>
<g>
<g data-source-text="7" fill="#dee4e3" transform="translate(678 41.292) rotate(0) scale(0.023999998)">
<use href="#path8" transform="translate(0 0)"/>
</g>
</g>
<g>
<g data-source-text="8" fill="#dee4e3" transform="translate(750 41.292) rotate(0) scale(0.023999998)">
<use href="#path9" transform="translate(0 0)"/>
</g>
</g>
<g>
<g data-source-text="9" fill="#dee4e3" transform="translate(822 41.292) rotate(0) scale(0.023999998)">
<use href="#path10" transform="translate(0 0)"/>
</g>
</g>
<g>
<g data-source-text="A" fill="#dee4e3" transform="translate(894 41.292) rotate(0) scale(0.023999998)">
<use href="#path11" transform="translate(0 0)"/>
</g>
</g>
<g>
<g data-source-text="B" fill="#dee4e3" transform="translate(966 41.292) rotate(0) scale(0.023999998)">
<use href="#path12" transform="translate(0 0)"/>
</g>
</g>
<g>
<g data-source-text="C" fill="#dee4e3" transform="translate(1038 41.292) rotate(0) scale(0.023999998)">
<use href="#path13" transform="translate(0 0)"/>
</g>
</g>
<g>
<g data-source-text="D" fill="#dee4e3" transform="translate(1110 41.292) rotate(0) scale(0.023999998)">
<use href="#path14" transform="translate(0 0)"/>
</g>
</g>
<g>
<g data-source-text="E" fill="#dee4e3" transform="translate(1182 41.292) rotate(0) scale(0.023999998)">
<use href="#path15" transform="translate(0 0)"/>
</g>
</g>
<g>
<g data-source-text="F" fill="#dee4e3" transform="translate(1254 41.292) rotate(0) scale(0.023999998)">
<use href="#path16" transform="translate(0 0)"/>
</g>
</g>
<g>
<g data-source-text="U+A700" fill="#dee4e3" transform="translate(36 113.292) rotate(0) scale(0.023999998)">
<use href="#path17" transform="translate(0 0)"/>
<use href="#path18" transform="translate(500 0)"/>
<use href="#path11" transform="translate(1000 0)"/>
<use href="#path8" transform="translate(1500 0)"/>
<use href="#path1" transform="translate(2000 0)"/>
<use href="#path1" transform="translate(2500 0)"/>
</g>
</g>
<g>
<g data-source-text="꜀" fill="#dee4e3" transform="translate(168 118.584) rotate(0) scale(0.047999997)">
<use href="#path19" transform="translate(0 0)"/>
</g>
</g>
<g>
<g data-source-text="꜁" fill="#dee4e3" transform="translate(240 118.584) rotate(0) scale(0.047999997)">
<use href="#path20" transform="translate(0 0)"/>
</g>
</g>
<g>
<g data-source-text="꜂" fill="#dee4e3" transform="translate(312 118.584) rotate(0) scale(0.047999997)">
<use href="#path21" transform="translate(0 0)"/>
</g>
</g>
<g>
<g data-source-text="꜃" fill="#dee4e3" transform="translate(384 118.584) rotate(0) scale(0.047999997)">
<use href="#path22" transform="translate(0 0)"/>
</g>
</g>
<g>
<g data-source-text="꜄" fill="#dee4e3" transform="translate(456 118.584) rotate(0) scale(0.047999997)">
<use href="#path23" transform="translate(0 0)"/>
</g>
</g>
<g>
<g data-source-text="꜅" fill="#dee4e3" transform="translate(528 118.584) rotate(0) scale(0.047999997)">
<use href="#path24" transform="translate(0 0)"/>
</g>
</g>
<g>
<g data-source-text="꜆" fill="#dee4e3" transform="translate(600 118.584) rotate(0) scale(0.047999997)">
<use href="#path25" transform="translate(0 0)"/>
</g>
</g>
<g>
<g data-source-text="꜇" fill="#dee4e3" transform="translate(672 118.584) rotate(0) scale(0.047999997)">
<use href="#path26" transform="translate(0 0)"/>
</g>
</g>
<g>
<g data-source-text="꜈" fill="#dee4e3" transform="translate(744 118.584) rotate(0) scale(0.047999997)">
<use href="#path27" transform="translate(0 0)"/>
</g>
</g>
<g>
<g data-source-text="꜉" fill="#dee4e3" transform="translate(816 118.584) rotate(0) scale(0.047999997)">
<use href="#path28" transform="translate(0 0)"/>
</g>
</g>
<g>
<g data-source-text="꜊" fill="#dee4e3" transform="translate(888 118.584) rotate(0) scale(0.047999997)">
<use href="#path29" transform="translate(0 0)"/>
</g>
</g>
<g>
<g data-source-text="꜋" fill="#dee4e3" transform="translate(960 118.584) rotate(0) scale(0.047999997)">
<use href="#path30" transform="translate(0 0)"/>
</g>
</g>
<g>
<g data-source-text="꜌" fill="#dee4e3" transform="translate(1032 118.584) rotate(0) scale(0.047999997)">
<use href="#path31" transform="translate(0 0)"/>
</g>
</g>
<g>
<g data-source-text="꜍" fill="#dee4e3" transform="translate(1104 118.584) rotate(0) scale(0.047999997)">
<use href="#path32" transform="translate(0 0)"/>
</g>
</g>
<g>
<g data-source-text="꜎" fill="#dee4e3" transform="translate(1176 118.584) rotate(0) scale(0.047999997)">
<use href="#path33" transform="translate(0 0)"/>
</g>
</g>
<g>
<g data-source-text="꜏" fill="#dee4e3" transform="translate(1248 118.584) rotate(0) scale(0.047999997)">
<use href="#path34" transform="translate(0 0)"/>
</g>
</g>
<g>
<g data-source-text="U+A710" fill="#dee4e3" transform="translate(36 185.292) rotate(0) scale(0.023999998)">
<use href="#path17" transform="translate(0 0)"/>
<use href="#path18" transform="translate(500 0)"/>
<use href="#path11" transform="translate(1000 0)"/>
<use href="#path8" transform="translate(1500 0)"/>
<use href="#path2" transform="translate(2000 0)"/>
<use href="#path1" transform="translate(2500 0)"/>
</g>
</g>
<g>
<g data-source-text="꜐" fill="#dee4e3" transform="translate(168 190.584) rotate(0) scale(0.047999997)">
<use href="#path35" transform="translate(0 0)"/>
</g>
</g>
<g>
<g data-source-text="꜑" fill="#dee4e3" transform="translate(240 190.584) rotate(0) scale(0.047999997)">
<use href="#path36" transform="translate(0 0)"/>
</g>
</g>
<g>
<g data-source-text="꜒" fill="#dee4e3" transform="translate(312 190.584) rotate(0) scale(0.047999997)">
<use href="#path37" transform="translate(0 0)"/>
</g>
</g>
<g>
<g data-source-text="꜓" fill="#dee4e3" transform="translate(384 190.584) rotate(0) scale(0.047999997)">
<use href="#path38" transform="translate(0 0)"/>
</g>
</g>
<g>
<g data-source-text="꜔" fill="#dee4e3" transform="translate(456 190.584) rotate(0) scale(0.047999997)">
<use href="#path39" transform="translate(0 0)"/>
</g>
</g>
<g>
<g data-source-text="꜕" fill="#dee4e3" transform="translate(528 190.584) rotate(0) scale(0.047999997)">
<use href="#path40" transform="translate(0 0)"/>
</g>
</g>
<g>
<g data-source-text="꜖" fill="#dee4e3" transform="translate(600 190.584) rotate(0) scale(0.047999997)">
<use href="#path41" transform="translate(0 0)"/>
</g>
</g>
<g>
<g data-source-text="ꜗ" fill="#dee4e3" transform="translate(672 190.584) rotate(0) scale(0.047999997)">
<use href="#path42" transform="translate(0 0)"/>
</g>
</g>
<g>
<g data-source-text="ꜘ" fill="#dee4e3" transform="translate(744 190.584) rotate(0) scale(0.047999997)">
<use href="#path43" transform="translate(0 0)"/>
</g>
</g>
<g>
<g data-source-text="ꜙ" fill="#dee4e3" transform="translate(816 190.584) rotate(0) scale(0.047999997)">
<use href="#path44" transform="translate(0 0)"/>
</g>
</g>
<g>
<g data-source-text="ꜚ" fill="#dee4e3" transform="translate(888 190.584) rotate(0) scale(0.047999997)">
<use href="#path45" transform="translate(0 0)"/>
</g>
</g>
<g>
<g data-source-text="ꜛ" fill="#dee4e3" transform="translate(960 190.584) rotate(0) scale(0.047999997)">
<use href="#path46" transform="translate(0 0)"/>
</g>
</g>
<g>
<g data-source-text="ꜜ" fill="#dee4e3" transform="translate(1032 190.584) rotate(0) scale(0.047999997)">
<use href="#path47" transform="translate(0 0)"/>
</g>
</g>
<g>
<g data-source-text="ꜝ" fill="#dee4e3" transform="translate(1104 190.584) rotate(0) scale(0.047999997)">
<use href="#path48" transform="translate(0 0)"/>
</g>
</g>
<g>
<g data-source-text="ꜞ" fill="#dee4e3" transform="translate(1176 190.584) rotate(0) scale(0.047999997)">
<use href="#path49" transform="translate(0 0)"/>
</g>
</g>
<g>
<g data-source-text="ꜟ" fill="#dee4e3" transform="translate(1248 190.584) rotate(0) scale(0.047999997)">
<use href="#path50" transform="translate(0 0)"/>
</g>
</g>
</svg>