<?xml version="1.0" encoding="UTF-8" standalone="no"?>
<svg height="432" viewBox="0 0 1296 432" width="1296" xmlns="http://www.w3.org/2000/svg">
<defs>
<path d="M 250 8 Q 223 8 196 3 Q 169 -2 145 -15 Q 121 -28 102.5 -48.5 Q 84 -69 72.5 -94 Q 61 -119 56.5 -146 Q 52 -173 52 -200 L 52 -535 Q 52 -562 56.5 -589 Q 61 -616 72.5 -641 Q 84 -666 102.5 -686.5 Q 121 -707 145 -720 Q 169 -733 196 -738 Q 223 -743 250 -743 Q 277 -743 304 -738 Q 331 -733 355 -720 Q 379 -707 397.5 -686.5 Q 416 -666 427.5 -641 Q 439 -616 443.5 -589 Q 448 -562 448 -535 L 448 -200 Q 448 -173 443.5 -146 Q 439 -119 427.5 -94 Q 416 -69 397.5 -48.5 Q 379 -28 355 -15 Q 331 -2 304 3 Q 277 8 250 8 Z M 153 -337 L 347 -491 L 347 -535 Q 347 -557 342.5 -578.5 Q 338 -600 325.5 -618 Q 313 -636 292.5 -645.5 Q 272 -655 250 -655 Q 228 -655 207.5 -645.5 Q 187 -636 174.5 -618 Q 162 -600 157.5 -578.5 Q 153 -557 153 -535 Z M 250 -80 Q 272 -80 292.5 -89.5 Q 313 -99 325.5 -117 Q 338 -135 342.5 -156.5 Q 347 -178 347 -200 L 347 -398 L 153 -244 L 153 -200 Q 153 -178 157.5 -156.5 Q 162 -135 174.5 -117 Q 187 -99 207.5 -89.5 Q 228 -80 250 -80 Z " id="path1"/>
<path d="M 230 0 L 230 -631 L 110 -528 L 55 -584 L 230 -735 L 330 -735 L 330 0 Z " id="path2"/>
<path d="M 440 0 L 60 0 L 60 -1 Q 60 -27 61 -53.5 Q 62 -80 66 -106.5 Q 70 -133 77.5 -158.5 Q 85 -184 96.5 -207.5 Q 108 -231 123 -253 Q 138 -275 156 -294.5 Q 174 -314 194 -331 Q 214 -348 235.5 -364 Q 257 -380 277.5 -397 Q 298 -414 313 -435.5 Q 328 -457 335.5 -483 Q 343 -509 343 -535 Q 343 -557 339 -578 Q 335 -599 323.5 -617 Q 312 -635 292 -645 Q 272 -655 251 -655 Q 231 -655 212.5 -647.5 Q 194 -640 182 -625 Q 170 -610 164.5 -591 Q 159 -572 159 -552 L 159 -548 L 58 -548 L 58 -555 Q 58 -581 64 -605.5 Q 70 -630 81.5 -652.5 Q 93 -675 111.5 -693 Q 130 -711 152.5 -722.5 Q 175 -734 200.5 -738.5 Q 226 -743 251 -743 Q 278 -743 304.5 -737.5 Q 331 -732 354.5 -719 Q 378 -706 396 -685.5 Q 414 -665 424.5 -640.5 Q 435 -616 439.5 -589 Q 444 -562 444 -535 Q 444 -501 435 -468 Q 426 -435 407.5 -406 Q 389 -377 364 -353.5 Q 339 -330 312.5 -308.5 Q 286 -287 261 -264 Q 236 -241 216.5 -213 Q 197 -185 184 -153.5 Q 171 -122 166 -88 L 440 -88 Z " id="path3"/>
<path d="M 253 8 Q 227 8 201 4 Q 175 -0 151.5 -11.5 Q 128 -23 108.5 -40.5 Q 89 -58 76 -81 Q 63 -104 56.5 -129.5 Q 50 -155 50 -181 L 50 -187 L 151 -187 L 151 -184 Q 151 -163 157.5 -143 Q 164 -123 178 -108 Q 192 -93 212 -86.5 Q 232 -80 253 -80 Q 275 -80 296 -88.5 Q 317 -97 330.5 -114.5 Q 344 -132 349.5 -154 Q 355 -176 355 -198 Q 355 -217 351 -235.5 Q 347 -254 338.5 -271 Q 330 -288 316.5 -301 Q 303 -314 286 -322 Q 269 -330 250 -332 Q 231 -334 212 -334 L 212 -422 Q 229 -422 246 -424 Q 263 -426 278.5 -433 Q 294 -440 306 -452.5 Q 318 -465 325.5 -480.5 Q 333 -496 336 -513 Q 339 -530 339 -547 Q 339 -566 334.5 -585.5 Q 330 -605 319.5 -621 Q 309 -637 291 -646 Q 273 -655 253 -655 Q 234 -655 216.5 -647 Q 199 -639 187.5 -624 Q 176 -609 171.5 -590 Q 167 -571 167 -553 L 167 -548 L 66 -548 L 66 -556 Q 66 -581 71.5 -605.5 Q 77 -630 88 -652 Q 99 -674 117 -692.5 Q 135 -711 157 -722.5 Q 179 -734 203.5 -738.5 Q 228 -743 253 -743 Q 278 -743 303.5 -738 Q 329 -733 351 -721 Q 373 -709 390 -690 Q 407 -671 418 -648 Q 429 -625 434.5 -600 Q 440 -575 440 -550 Q 440 -524 434 -498.5 Q 428 -473 415.5 -450.5 Q 403 -428 384.5 -409.5 Q 366 -391 343 -379 Q 369 -368 390.5 -348.5 Q 412 -329 427 -304.5 Q 442 -280 449 -252 Q 456 -224 456 -196 Q 456 -168 450 -141.5 Q 444 -115 432 -91 Q 420 -67 401 -47 Q 382 -27 358 -14.5 Q 334 -2 307 3 Q 280 8 253 8 Z " id="path4"/>
<path d="M 282 0 L 282 -188 L 52 -188 L 52 -275 L 276 -735 L 385 -735 L 161 -275 L 282 -275 L 282 -435 L 382 -435 L 382 -275 L 440 -275 L 440 -188 L 382 -188 L 382 0 Z " id="path5"/>
<path d="M 252 8 Q 227 8 202.5 3.5 Q 178 -1 155.5 -12 Q 133 -23 115 -41 Q 97 -59 85 -80.5 Q 73 -102 66.5 -126.5 Q 60 -151 59 -176 L 159 -176 Q 161 -158 167 -139.5 Q 173 -121 185.5 -107 Q 198 -93 216 -86.5 Q 234 -80 252 -80 Q 269 -80 285 -87 Q 301 -94 312 -107 Q 323 -120 330 -135.5 Q 337 -151 340.5 -168 Q 344 -185 345.5 -202 Q 347 -219 347 -236 Q 347 -252 346 -269 Q 345 -286 341 -302 Q 337 -318 331 -334 Q 325 -350 314 -363 Q 303 -376 287.5 -383.5 Q 272 -391 256 -391 Q 240 -391 224.5 -387 Q 209 -383 196 -373.5 Q 183 -364 176 -349.5 Q 169 -335 168 -319 L 68 -319 L 68 -735 L 421 -735 L 421 -647 L 168 -647 L 168 -464 Q 189 -472 211 -475 Q 233 -478 256 -478 Q 285 -478 313.5 -470.5 Q 342 -463 365.5 -445.5 Q 389 -428 405.5 -403 Q 422 -378 431.5 -350.5 Q 441 -323 444.5 -294 Q 448 -265 448 -235 Q 448 -206 444 -176.5 Q 440 -147 430.5 -119 Q 421 -91 404 -66.5 Q 387 -42 363.5 -24.5 Q 340 -7 311 0.5 Q 282 8 252 8 Z " id="path6"/>
<path d="M 250 8 Q 221 8 192.5 1.5 Q 164 -5 140 -21 Q 116 -37 98.5 -60.5 Q 81 -84 70.5 -111 Q 60 -138 56 -166.5 Q 52 -195 52 -224 Q 52 -268 60 -311 Q 68 -354 81.5 -395.5 Q 95 -437 113 -477 Q 131 -517 150 -556 L 238 -735 L 347 -735 L 240 -517 Q 228 -493 216.5 -468.5 Q 205 -444 195 -419 Q 214 -438 239 -447 Q 264 -456 291 -456 Q 317 -456 342.5 -447 Q 368 -438 386.5 -419.5 Q 405 -401 417 -377.5 Q 429 -354 436 -328.5 Q 443 -303 445.5 -276.5 Q 448 -250 448 -224 Q 448 -195 444 -166.5 Q 440 -138 429.5 -111 Q 419 -84 401.5 -60.5 Q 384 -37 360 -21 Q 336 -5 307.5 1.5 Q 279 8 250 8 Z M 250 -80 Q 266 -80 282 -85.5 Q 298 -91 309.5 -102.5 Q 321 -114 328.5 -129 Q 336 -144 340 -159.5 Q 344 -175 345.5 -191.5 Q 347 -208 347 -224 Q 347 -240 345.5 -256.5 Q 344 -273 340 -289 Q 336 -305 328.5 -319.5 Q 321 -334 309.5 -345.5 Q 298 -357 282 -362.5 Q 266 -368 250 -368 Q 235 -368 221 -363.5 Q 207 -359 195.5 -349.5 Q 184 -340 176.5 -327.5 Q 169 -315 164 -301 Q 159 -287 156.5 -272.5 Q 154 -258 153 -243 L 153 -224 Q 153 -208 154.5 -191.5 Q 156 -175 160 -159.5 Q 164 -144 171.5 -129 Q 179 -114 190.5 -102.5 Q 202 -91 218 -85.5 Q 234 -80 250 -80 Z " id="path7"/>
<path d="M 242 0 L 138 0 L 336 -647 L 60 -647 L 60 -735 L 440 -735 L 440 -647 Z " id="path8"/>
<path d="M 250 8 Q 225 8 200 4 Q 175 -0 152 -10 Q 129 -20 109.5 -37 Q 90 -54 77.5 -75.5 Q 65 -97 58.5 -121.5 Q 52 -146 52 -172 Q 52 -203 62 -232.5 Q 72 -262 88.5 -288 Q 105 -314 127 -336 Q 149 -358 174 -378 Q 152 -396 132.5 -417 Q 113 -438 98.5 -462.5 Q 84 -487 76 -514.5 Q 68 -542 68 -570 Q 68 -594 73.5 -617 Q 79 -640 90.5 -661 Q 102 -682 119.5 -698.5 Q 137 -715 158 -725 Q 179 -735 202.5 -739 Q 226 -743 250 -743 Q 274 -743 297.5 -739 Q 321 -735 342 -725 Q 363 -715 380.5 -698.5 Q 398 -682 409.5 -661 Q 421 -640 426.5 -617 Q 432 -594 432 -570 Q 432 -542 424 -514.5 Q 416 -487 401.5 -462.5 Q 387 -438 367.5 -417 Q 348 -396 326 -378 Q 351 -358 373 -336 Q 395 -314 411.5 -288 Q 428 -262 438 -232.5 Q 448 -203 448 -172 Q 448 -146 441.5 -121.5 Q 435 -97 422.5 -75.5 Q 410 -54 390.5 -37 Q 371 -20 348 -10 Q 325 -0 300 4 Q 275 8 250 8 Z M 250 -435 Q 266 -447 280.5 -461.5 Q 295 -476 306.5 -493 Q 318 -510 325 -529.5 Q 332 -549 332 -569 Q 332 -586 326.5 -602.5 Q 321 -619 310 -631.5 Q 299 -644 283 -649.5 Q 267 -655 250 -655 Q 233 -655 217 -649.5 Q 201 -644 190 -631.5 Q 179 -619 173.5 -602.5 Q 168 -586 168 -569 Q 168 -549 175 -529.5 Q 182 -510 193.5 -493 Q 205 -476 219.5 -461.5 Q 234 -447 250 -435 Z M 250 -80 Q 269 -80 287.5 -85.5 Q 306 -91 320 -104 Q 334 -117 340.5 -135.5 Q 347 -154 347 -173 Q 347 -196 338.5 -217.5 Q 330 -239 316.5 -257.5 Q 303 -276 285.5 -291 Q 268 -306 250 -320 Q 232 -306 214.5 -291 Q 197 -276 183.5 -257.5 Q 170 -239 161.5 -217.5 Q 153 -196 153 -173 Q 153 -154 159.5 -135.5 Q 166 -117 180 -104 Q 194 -91 212.5 -85.5 Q 231 -80 250 -80 Z " id="path9"/>
<path d="M 262 0 L 153 0 L 260 -218 Q 272 -242 283.5 -266.5 Q 295 -291 305 -316 Q 286 -297 261 -288 Q 236 -279 209 -279 Q 183 -279 157.5 -288 Q 132 -297 113.5 -315.5 Q 95 -334 83 -357.5 Q 71 -381 64 -406.5 Q 57 -432 54.5 -458.5 Q 52 -485 52 -511 Q 52 -540 56 -568.5 Q 60 -597 70.5 -624 Q 81 -651 98.5 -674.5 Q 116 -698 140 -714 Q 164 -730 192.5 -736.5 Q 221 -743 250 -743 Q 279 -743 307.5 -736.5 Q 336 -730 360 -714 Q 384 -698 401.5 -674.5 Q 419 -651 429.5 -624 Q 440 -597 444 -568.5 Q 448 -540 448 -511 Q 448 -467 440 -424 Q 432 -381 418.5 -339.5 Q 405 -298 387 -258 Q 369 -218 350 -179 Z M 250 -367 Q 265 -367 279 -371.5 Q 293 -376 304.5 -385.5 Q 316 -395 323.5 -407.5 Q 331 -420 336 -434 Q 341 -448 343.5 -462.5 Q 346 -477 347 -492 L 347 -511 Q 347 -527 345.5 -543.5 Q 344 -560 340 -575.5 Q 336 -591 328.5 -606 Q 321 -621 309.5 -632.5 Q 298 -644 282 -649.5 Q 266 -655 250 -655 Q 234 -655 218 -649.5 Q 202 -644 190.5 -632.5 Q 179 -621 171.5 -606 Q 164 -591 160 -575.5 Q 156 -560 154.5 -543.5 Q 153 -527 153 -511 Q 153 -495 154.5 -478.5 Q 156 -462 160 -446 Q 164 -430 171.5 -415.5 Q 179 -401 190.5 -389.5 Q 202 -378 218 -372.5 Q 234 -367 250 -367 Z " id="path10"/>
<path d="M 39 0 L 192 -735 L 308 -735 L 461 0 L 358 0 L 326 -172 L 174 -172 L 142 0 Z M 309 -260 L 265 -490 Q 262 -511 258 -531.5 Q 254 -552 250 -572 Q 246 -552 242 -531.5 Q 238 -511 235 -490 L 191 -260 Z " id="path11"/>
<path d="M 60 0 L 60 -735 L 234 -735 Q 261 -735 287 -730.5 Q 313 -726 336 -714 Q 359 -702 377.5 -682.5 Q 396 -663 408 -639.5 Q 420 -616 424.5 -590 Q 429 -564 429 -538 Q 429 -515 425 -492 Q 421 -469 410.5 -448.5 Q 400 -428 383.5 -411 Q 367 -394 347 -383 Q 372 -373 393.5 -355.5 Q 415 -338 429.5 -314.5 Q 444 -291 450 -264 Q 456 -237 456 -210 Q 456 -181 450 -152.5 Q 444 -124 430 -98.5 Q 416 -73 394.5 -53.5 Q 373 -34 347 -21.5 Q 321 -9 292 -4.5 Q 263 -0 234 0 Z M 161 -424 L 234 -424 Q 255 -424 274.5 -432.5 Q 294 -441 306.5 -457.5 Q 319 -474 324 -494.5 Q 329 -515 329 -536 Q 329 -557 324 -577.5 Q 319 -598 306.5 -614.5 Q 294 -631 274.5 -639 Q 255 -647 234 -647 L 161 -647 Z M 161 -88 L 234 -88 Q 251 -88 267 -91 Q 283 -94 297.5 -101.5 Q 312 -109 323.5 -121 Q 335 -133 342.5 -148 Q 350 -163 352.5 -179 Q 355 -195 355 -212 Q 355 -228 352.5 -244.5 Q 350 -261 343 -276 Q 336 -291 324.5 -303 Q 313 -315 298 -322.5 Q 283 -330 267 -333 Q 251 -336 234 -336 L 161 -336 Z " id="path12"/>
<path d="M 247 8 Q 220 8 193 2.5 Q 166 -3 142.5 -16 Q 119 -29 101 -49.5 Q 83 -70 72 -94.5 Q 61 -119 56.5 -146 Q 52 -173 52 -200 L 52 -535 Q 52 -562 56.5 -589 Q 61 -616 72 -640.5 Q 83 -665 101 -685.5 Q 119 -706 142.5 -719 Q 166 -732 193 -737.5 Q 220 -743 247 -743 Q 273 -743 298 -738.5 Q 323 -734 346 -723 Q 369 -712 387.5 -694 Q 406 -676 418 -653.5 Q 430 -631 436 -606 Q 442 -581 442 -555 L 442 -548 L 341 -548 L 341 -552 Q 341 -572 335.5 -591.5 Q 330 -611 317.5 -626 Q 305 -641 286 -648 Q 267 -655 247 -655 Q 225 -655 205 -645.5 Q 185 -636 173 -618 Q 161 -600 157 -578.5 Q 153 -557 153 -535 L 153 -200 Q 153 -178 157 -156.5 Q 161 -135 173 -117 Q 185 -99 205 -89.5 Q 225 -80 247 -80 Q 267 -80 286 -87 Q 305 -94 317.5 -109 Q 330 -124 335.5 -143.5 Q 341 -163 341 -183 L 341 -187 L 442 -187 L 442 -180 Q 442 -154 436 -129 Q 430 -104 418 -81.5 Q 406 -59 387.5 -41 Q 369 -23 346 -12 Q 323 -1 298 3.5 Q 273 8 247 8 Z " id="path13"/>
<path d="M 60 0 L 60 -735 L 219 -735 Q 249 -735 279 -730 Q 309 -725 336.5 -712 Q 364 -699 386 -678.5 Q 408 -658 422 -631.5 Q 436 -605 442 -575 Q 448 -545 448 -515 L 448 -220 Q 448 -190 442 -160 Q 436 -130 422 -103.5 Q 408 -77 386 -56.5 Q 364 -36 336.5 -23 Q 309 -10 279 -5 Q 249 -0 219 0 Z M 161 -88 L 219 -88 Q 237 -88 254 -91 Q 271 -94 286.5 -102.5 Q 302 -111 314 -124 Q 326 -137 333.5 -152.5 Q 341 -168 344 -185.5 Q 347 -203 347 -220 L 347 -515 Q 347 -532 344 -549.5 Q 341 -567 333.5 -582.5 Q 326 -598 314 -611 Q 302 -624 286.5 -632.5 Q 271 -641 254 -644 Q 237 -647 219 -647 L 161 -647 Z " id="path14"/>
<path d="M 68 0 L 68 -735 L 440 -735 L 440 -647 L 169 -647 L 169 -426 L 383 -426 L 383 -338 L 169 -338 L 169 -88 L 440 -88 L 440 0 Z " id="path15"/>
<path d="M 91 0 L 91 -735 L 440 -735 L 440 -647 L 191 -647 L 191 -426 L 383 -426 L 383 -338 L 191 -338 L 191 0 Z " id="path16"/>
<path d="M 250 8 Q 223 8 196.5 2.5 Q 170 -3 147 -16.5 Q 124 -30 106.5 -50.5 Q 89 -71 78.5 -95.5 Q 68 -120 64 -146.5 Q 60 -173 60 -200 L 60 -735 L 161 -735 L 161 -200 Q 161 -186 162.5 -172 Q 164 -158 168 -144.5 Q 172 -131 179.5 -118.5 Q 187 -106 197.5 -97 Q 208 -88 222 -84 Q 236 -80 250 -80 Q 264 -80 278 -84 Q 292 -88 302.5 -97 Q 313 -106 320.5 -118.5 Q 328 -131 332 -144.5 Q 336 -158 337.5 -172 Q 339 -186 339 -200 L 339 -735 L 440 -735 L 440 -200 Q 440 -173 436 -146.5 Q 432 -120 421.5 -95.5 Q 411 -71 393.5 -50.5 Q 376 -30 353 -16.5 Q 330 -3 303.5 2.5 Q 277 8 250 8 Z " id="path17"/>
<path d="M 300 -143 L 200 -143 L 200 -296 L 60 -296 L 60 -384 L 200 -384 L 200 -537 L 300 -537 L 300 -384 L 440 -384 L 440 -296 L 300 -296 Z " id="path18"/>
<path d="M 109 -323 L 109 -838 L 186 -838 L 186 -628 Q 192 -642 201 -654.5 Q 210 -667 223 -676 Q 236 -685 251 -689 Q 266 -693 282 -693 Q 299 -693 315.5 -688 Q 332 -683 345.5 -672 Q 359 -661 368 -646 Q 377 -631 382.5 -615 Q 388 -599 389.5 -581.5 Q 391 -564 391 -547 L 391 -323 L 314 -323 L 314 -547 Q 314 -561 311 -575 Q 308 -589 299.5 -600.5 Q 291 -612 277.5 -617.5 Q 264 -623 250 -623 Q 236 -623 222.5 -617.5 Q 209 -612 200.5 -600.5 Q 192 -589 189 -575 Q 186 -561 186 -547 L 186 -323 Z " id="path19"/>
<path d="M 109 -709 Q 109 -727 112 -745 Q 115 -763 123.5 -779.5 Q 132 -796 145.5 -808.5 Q 159 -821 175.5 -829 Q 192 -837 210 -840 Q 228 -843 246 -843 L 249 -843 L 249 -774 L 246 -774 Q 233 -774 221 -769.5 Q 209 -765 200.5 -755.5 Q 192 -746 189 -734 Q 186 -722 186 -709 Z M 109 -323 L 109 -709 L 186 -709 L 186 -628 Q 192 -642 201 -654.5 Q 210 -667 223 -676 Q 236 -685 251 -689 Q 266 -693 282 -693 Q 299 -693 315.5 -688 Q 332 -683 345.5 -672 Q 359 -661 368 -646 Q 377 -631 382.5 -615 Q 388 -599 389.5 -581.5 Q 391 -564 391 -547 L 391 -323 L 314 -323 L 314 -547 Q 314 -561 311 -575 Q 308 -589 299.5 -600.5 Q 291 -612 277.5 -617.5 Q 264 -623 250 -623 Q 236 -623 222.5 -617.5 Q 209 -612 200.5 -600.5 Q 192 -589 189 -575 Q 186 -561 186 -547 L 186 -323 Z " id="path20"/>
<path d="M 289 -730 Q 276 -730 264 -734 Q 252 -738 243 -746.5 Q 234 -755 230.5 -767.5 Q 227 -780 227 -792 Q 227 -804 230.5 -816.5 Q 234 -829 243 -837.5 Q 252 -846 264 -850 Q 276 -854 289 -854 Q 301 -854 313 -850 Q 325 -846 334 -837.5 Q 343 -829 346.5 -816.5 Q 350 -804 350 -792 Q 350 -780 346.5 -767.5 Q 343 -755 334 -746.5 Q 325 -738 313 -734 Q 301 -730 289 -730 Z M 205 -167 Q 181 -167 157.5 -173 Q 134 -179 115.5 -194 Q 97 -209 87.5 -231.5 Q 78 -254 78 -277 L 155 -277 Q 155 -268 159 -259.5 Q 163 -251 170.5 -245.5 Q 178 -240 187 -238 Q 196 -236 205 -236 Q 217 -236 228 -243 Q 239 -250 245.5 -260.5 Q 252 -271 254 -283.5 Q 256 -296 256 -309 L 256 -618 L 172 -618 L 172 -687 L 333 -687 L 333 -309 Q 333 -291 330 -273 Q 327 -255 320 -238 Q 313 -221 301.5 -207 Q 290 -193 274.5 -183.5 Q 259 -174 241 -170.5 Q 223 -167 205 -167 Z " id="path21"/>
<path d="M 151 -323 L 151 -687 L 228 -687 L 228 -617 Q 233 -632 240.5 -646 Q 248 -660 259 -670.5 Q 270 -681 285 -687 Q 300 -693 316 -693 Q 330 -693 343.5 -689 Q 357 -685 367.5 -676 Q 378 -667 385 -655 Q 392 -643 395.5 -630 Q 399 -617 400.5 -603 Q 402 -589 402 -575 L 325 -575 Q 325 -584 323.5 -592.5 Q 322 -601 317.5 -608.5 Q 313 -616 305 -619.5 Q 297 -623 288 -623 Q 277 -623 266.5 -618 Q 256 -613 249 -603.5 Q 242 -594 238 -583.5 Q 234 -573 231.5 -561.5 Q 229 -550 228.5 -538.5 Q 228 -527 228 -516 L 228 -323 Z " id="path22"/>
<path d="M 184 -317 Q 170 -317 156.5 -321 Q 143 -325 132.5 -334 Q 122 -343 115 -355 Q 108 -367 104.5 -380 Q 101 -393 99.5 -407 Q 98 -421 98 -435 L 175 -435 Q 175 -426 176.5 -417.5 Q 178 -409 182.5 -401.5 Q 187 -394 195 -390.5 Q 203 -387 212 -387 Q 223 -387 233.5 -392 Q 244 -397 251 -406.5 Q 258 -416 262 -426.5 Q 266 -437 268.5 -448.5 Q 271 -460 271.5 -471.5 Q 272 -483 272 -494 L 272 -687 L 349 -687 L 349 -323 L 272 -323 L 272 -393 Q 267 -378 259.5 -364 Q 252 -350 241 -339.5 Q 230 -329 215 -323 Q 200 -317 184 -317 Z " id="path23"/>
<path d="M 410 -167 Q 392 -167 373.5 -170 Q 355 -173 339 -181 Q 323 -189 309.5 -201.5 Q 296 -214 287.5 -230.5 Q 279 -247 275.5 -265 Q 272 -283 272 -301 L 272 -393 Q 267 -378 259.5 -364 Q 252 -350 241 -339.5 Q 230 -329 215 -323 Q 200 -317 184 -317 Q 170 -317 156.5 -321 Q 143 -325 132.5 -334 Q 122 -343 115 -355 Q 108 -367 104.5 -380 Q 101 -393 99.5 -407 Q 98 -421 98 -435 L 175 -435 Q 175 -426 176.5 -417.5 Q 178 -409 182.5 -401.5 Q 187 -394 195 -390.5 Q 203 -387 212 -387 Q 223 -387 233.5 -392 Q 244 -397 251 -406.5 Q 258 -416 262 -426.5 Q 266 -437 268.5 -448.5 Q 271 -460 271.5 -471.5 Q 272 -483 272 -494 L 272 -687 L 349 -687 L 349 -301 Q 349 -288 352.5 -276 Q 356 -264 364.5 -254.5 Q 373 -245 385 -240.5 Q 397 -236 410 -236 L 412 -236 L 412 -167 Z " id="path24"/>
<path d="M 109 -323 L 109 -687 L 186 -687 L 186 -561 L 235 -561 L 319 -687 L 408 -687 L 320 -555 Q 338 -550 353.5 -539 Q 369 -528 379 -512.5 Q 389 -497 393 -478.5 Q 397 -460 397 -442 Q 397 -426 394 -410 Q 391 -394 383.5 -379.5 Q 376 -365 364 -353.5 Q 352 -342 337.5 -335 Q 323 -328 307 -325.5 Q 291 -323 275 -323 Z M 186 -392 L 275 -392 Q 284 -392 293.5 -395.5 Q 303 -399 309 -406 Q 315 -413 317.5 -422.5 Q 320 -432 320 -442 Q 320 -451 317.5 -460.5 Q 315 -470 309 -477.5 Q 303 -485 293.5 -488 Q 284 -491 275 -491 L 186 -491 Z " id="path25"/>
<path d="M 150 -323 L 89 -687 L 166 -687 L 186 -398 L 218 -585 L 282 -585 L 314 -398 L 334 -687 L 411 -687 L 350 -323 L 287 -323 L 250 -506 L 213 -323 Z " id="path26"/>
<path d="M 169 -172 Q 177 -198 184.5 -224 Q 192 -250 199 -275 L 211 -317 L 102 -687 L 181 -687 L 252 -415 L 319 -687 L 398 -687 L 249 -172 Z " id="path27"/>
<path d="M 161 -442 L 253 -772 L 347 -772 L 239 -442 Z " id="path28"/>
<path d="M 68 -442 L 160 -772 L 254 -772 L 146 -442 Z M 254 -442 L 346 -772 L 440 -772 L 332 -442 Z " id="path29"/>
<path d="M 250 -434 Q 244 -434 238.5 -434.5 Q 233 -435 227 -436 Q 221 -437 215.5 -439 Q 210 -441 205 -444 Q 200 -447 195.5 -451 Q 191 -455 187.5 -459.5 Q 184 -464 181.5 -469 Q 179 -474 177.5 -479.5 Q 176 -485 174.5 -492.5 Q 173 -500 173 -503 L 173 -514 Q 173 -523 173.5 -532 Q 174 -541 175 -549.5 Q 176 -558 177.5 -567 Q 179 -576 180.5 -584.5 Q 182 -593 184.5 -601.5 Q 187 -610 189.5 -618.5 Q 192 -627 195 -635.5 Q 198 -644 201 -652.5 Q 204 -661 207.5 -668.5 Q 211 -676 215 -684 Q 219 -692 223 -700 Q 227 -708 231.5 -715.5 Q 236 -723 241 -731 Q 246 -739 251 -746.5 Q 256 -754 262 -763 Q 268 -772 271 -775 L 273 -778 L 285 -793 L 343 -748 Q 339 -743 334.5 -738 Q 330 -733 325.5 -728 Q 321 -723 317 -717.5 Q 313 -712 309 -706.5 Q 305 -701 301.5 -696 Q 298 -691 294 -685 Q 290 -679 286 -674 Q 282 -669 278.5 -663 Q 275 -657 271.5 -651 Q 268 -645 265 -639 Q 262 -633 258.5 -626 Q 255 -619 254 -616 L 252 -611 L 246 -588 L 251 -588 Q 256 -588 262 -587.5 Q 268 -587 273.5 -585.5 Q 279 -584 284 -582 Q 289 -580 293.5 -577.5 Q 298 -575 302.5 -571 Q 307 -567 311 -563 Q 315 -559 317 -554.5 Q 319 -550 321 -544.5 Q 323 -539 325 -531.5 Q 327 -524 327 -522 L 327 -511 Q 327 -505 326.5 -499.5 Q 326 -494 325 -488.5 Q 324 -483 322 -477.5 Q 320 -472 317 -467 Q 314 -462 310.5 -458 Q 307 -454 302.5 -450 Q 298 -446 293.5 -443.5 Q 289 -441 283.5 -439 Q 278 -437 270.5 -435.5 Q 263 -434 261 -434 Z " id="path30"/>
<path d="M 215 -421 L 157 -466 Q 159 -468 161 -470.5 Q 163 -473 166 -476 L 175 -486 Q 177 -488 179 -491 Q 181 -494 183 -496 L 191 -507 Q 195 -513 198.5 -518 Q 202 -523 206 -529 Q 210 -535 214 -540 Q 218 -545 222 -551 L 229 -563 Q 230 -566 232 -569 Q 234 -572 235 -575 L 242 -588 Q 243 -591 244 -593.5 Q 245 -596 246 -596 L 246 -598 L 248 -603 L 254 -626 L 249 -626 Q 245 -626 241 -626 Q 237 -626 233 -626.5 Q 229 -627 225.5 -628.5 Q 222 -630 218 -631 Q 214 -632 210.5 -634 Q 207 -636 204 -638 Q 201 -640 198 -642.5 Q 195 -645 192 -648 Q 189 -651 186.5 -654 Q 184 -657 182.5 -660.5 Q 181 -664 179.5 -667.5 Q 178 -671 177 -675 Q 176 -679 174.5 -684.5 Q 173 -690 173 -691 L 173 -703 Q 173 -707 173 -711 Q 173 -715 174 -719 Q 175 -723 175.5 -727 Q 176 -731 177.5 -734.5 Q 179 -738 180.5 -741.5 Q 182 -745 184.5 -748.5 Q 187 -752 189.5 -755 Q 192 -758 194.5 -761 Q 197 -764 200.5 -766.5 Q 204 -769 207.5 -770.5 Q 211 -772 214.5 -773.5 Q 218 -775 222 -776.5 Q 226 -778 231.5 -779 Q 237 -780 238 -780 L 250 -780 Q 254 -780 258 -779.5 Q 262 -779 266 -778.5 Q 270 -778 274.5 -777.5 Q 279 -777 282.5 -775.5 Q 286 -774 290 -772.5 Q 294 -771 297.5 -768.5 Q 301 -766 304 -763.5 Q 307 -761 309.5 -758 Q 312 -755 314.5 -751.5 Q 317 -748 319 -744 Q 321 -740 322 -736.5 Q 323 -733 324 -729 Q 325 -725 326 -719.5 Q 327 -714 327 -712 L 327 -700 Q 327 -678 324.5 -656 Q 322 -634 316 -612 L 311 -595 Q 309 -591 308 -587 Q 307 -583 305 -578 L 299 -561 Q 296 -553 292.5 -545.5 Q 289 -538 285 -530 L 277 -514 Q 271 -501 263.5 -489.5 Q 256 -478 249 -467 L 238 -451 Q 235 -446 233 -443.5 Q 231 -441 231 -440 L 229 -439 L 227 -436 Z " id="path31"/>
<path d="M 285 -421 Q 277 -430 270 -440 Q 263 -450 256 -459.5 Q 249 -469 243 -479.5 Q 237 -490 231 -500 Q 225 -510 219.5 -521 Q 214 -532 209 -543 Q 204 -554 200 -565 Q 196 -576 192 -587 Q 188 -598 185 -610 Q 182 -622 179 -636 Q 176 -650 174.5 -661.5 Q 173 -673 173 -681 L 173 -700 Q 173 -710 174.5 -720 Q 176 -730 179.5 -739 Q 183 -748 189.5 -756 Q 196 -764 204.5 -769 Q 213 -774 224.5 -777 Q 236 -780 242 -780 L 250 -780 Q 260 -780 269.5 -778.5 Q 279 -777 288 -773 Q 297 -769 304.5 -762.5 Q 312 -756 316.5 -747.5 Q 321 -739 324 -728 Q 327 -717 327 -711 L 327 -703 Q 327 -693 325.5 -683.5 Q 324 -674 320 -665 Q 316 -656 309.5 -649 Q 303 -642 295 -637 Q 287 -632 276 -629 Q 265 -626 258 -626 L 246 -626 Q 250 -612 255 -599.5 Q 260 -587 266 -574.5 Q 272 -562 279.5 -549.5 Q 287 -537 296.5 -523.5 Q 306 -510 313.5 -500 Q 321 -490 327 -483 L 343 -466 Z " id="path32"/>
<path d="M 168 -434 L 168 -504 Q 180 -504 192.5 -506.5 Q 205 -509 216 -514.5 Q 227 -520 236 -529 Q 245 -538 251 -549 Q 257 -560 260 -574 Q 263 -588 263 -597 L 263 -607 Q 263 -619 261.5 -631.5 Q 260 -644 255.5 -656 Q 251 -668 243 -677.5 Q 235 -687 224.5 -694 Q 214 -701 200 -705.5 Q 186 -710 178 -710 L 168 -710 L 168 -780 Q 181 -780 194.5 -778.5 Q 208 -777 221 -774 Q 234 -771 246.5 -766 Q 259 -761 270 -754 Q 281 -747 291 -738 Q 301 -729 309 -718.5 Q 317 -708 322.5 -696 Q 328 -684 332 -671 Q 336 -658 338 -642.5 Q 340 -627 340 -618 L 340 -607 Q 340 -594 338.5 -580.5 Q 337 -567 334.5 -554 Q 332 -541 327 -528.5 Q 322 -516 315 -504.5 Q 308 -493 299 -483.5 Q 290 -474 279 -466 Q 268 -458 256.5 -452 Q 245 -446 232 -442 Q 219 -438 203.5 -436 Q 188 -434 180 -434 Z " id="path33"/>
<path d="M 332 -434 Q 309 -434 286 -438 Q 263 -442 242.5 -452.5 Q 222 -463 205 -479.5 Q 188 -496 178 -517 Q 168 -538 164 -561 Q 160 -584 160 -607 Q 160 -630 164 -653 Q 168 -676 178 -697 Q 188 -718 205 -734.5 Q 222 -751 242.5 -761.5 Q 263 -772 286 -776 Q 309 -780 332 -780 L 332 -710 Q 312 -710 293 -703 Q 274 -696 260.5 -681 Q 247 -666 242 -646.5 Q 237 -627 237 -607 Q 237 -587 242 -567 Q 247 -547 260.5 -532.5 Q 274 -518 293 -511 Q 312 -504 332 -504 Z " id="path34"/>
<path d="M 212 -323 L 212 -378 Q 212 -392 213 -407 Q 214 -422 218 -435.5 Q 222 -449 229.5 -462 Q 237 -475 247 -486 Q 257 -497 267.5 -507 Q 278 -517 288.5 -527.5 Q 299 -538 307 -550.5 Q 315 -563 315 -578 Q 315 -589 308.5 -599 Q 302 -609 292.5 -614.5 Q 283 -620 272 -621.5 Q 261 -623 249 -623 Q 237 -623 224.5 -620 Q 212 -617 203 -608.5 Q 194 -600 189 -588.5 Q 184 -577 184 -564 L 184 -561 L 107 -561 L 107 -567 Q 107 -594 118 -619.5 Q 129 -645 149.5 -662 Q 170 -679 196.5 -686 Q 223 -693 249 -693 Q 275 -693 300.5 -687.5 Q 326 -682 347 -667 Q 368 -652 380 -628 Q 392 -604 392 -579 Q 392 -564 388 -549.5 Q 384 -535 377 -522 Q 370 -509 361 -498 Q 352 -487 341.5 -476.5 Q 331 -466 320 -456.5 Q 309 -447 301 -434.5 Q 293 -422 290.5 -407 Q 288 -392 288 -378 L 288 -323 Z " id="path35"/>
<path d="M 212 -323 L 212 -378 Q 212 -392 209.5 -407 Q 207 -422 199 -434.5 Q 191 -447 180 -456.5 Q 169 -466 158.5 -476.5 Q 148 -487 139 -498 Q 130 -509 123 -522 Q 116 -535 112 -549.5 Q 108 -564 108 -579 Q 108 -604 120 -628 Q 132 -652 153 -667 Q 174 -682 199.5 -687.5 Q 225 -693 251 -693 Q 277 -693 303.5 -686 Q 330 -679 350.5 -662 Q 371 -645 382 -619.5 Q 393 -594 393 -567 L 393 -561 L 316 -561 L 316 -564 Q 316 -577 311 -588.5 Q 306 -600 297 -608.5 Q 288 -617 275.5 -620 Q 263 -623 251 -623 Q 239 -623 228 -621.5 Q 217 -620 207.5 -614.5 Q 198 -609 191.5 -599 Q 185 -589 185 -578 Q 185 -563 193 -550.5 Q 201 -538 211.5 -527.5 Q 222 -517 232.5 -507 Q 243 -497 253 -486 Q 263 -475 270.5 -462 Q 278 -449 282 -435.5 Q 286 -422 287 -407 Q 288 -392 288 -378 L 288 -323 Z " id="path36"/>
<path d="M 339 -571 L 150 -644 L 150 -696 L 339 -769 L 361 -711 L 232 -670 L 361 -629 Z " id="path37"/>
<path d="M 161 -571 L 139 -629 L 268 -670 L 139 -711 L 161 -769 L 350 -696 L 350 -644 Z " id="path38"/>
<path d="M 323 -582 L 250 -684 L 177 -582 L 123 -618 L 210 -740 L 290 -740 L 377 -618 Z " id="path39"/>
<path d="M 210 -600 L 123 -722 L 177 -758 L 250 -656 L 323 -758 L 377 -722 L 290 -600 Z " id="path40"/>
<path d="M 153 -592 L 110 -622 L 201 -761 L 299 -761 L 390 -622 L 347 -592 L 250 -705 Z " id="path41"/>
<path d="M 201 -600 L 110 -740 L 153 -769 L 250 -657 L 347 -769 L 390 -740 L 299 -600 Z " id="path42"/>
<path d="M 287 -442 L 213 -442 Q 210 -524 208.5 -606.5 Q 207 -689 207 -772 L 293 -772 Q 293 -689 291.5 -606.5 Q 290 -524 287 -442 Z " id="path43"/>
<path d="M 100 -636 L 100 -704 L 400 -704 L 400 -636 Z " id="path44"/>
<path d="M 238 -580 L 188 -620 L 307 -765 L 368 -715 Z " id="path45"/>
<path d="M 262 -580 L 132 -715 L 193 -765 L 312 -620 Z " id="path46"/>
<path d="M 207 252 Q 207 234 207 216 Q 207 198 207 180 Q 207 162 207.5 143.5 Q 208 125 208 107 Q 208 89 208.5 66.5 Q 209 44 209.5 25 Q 210 6 210.5 -9.5 Q 211 -25 212 -37 L 213 -78 L 287 -78 Q 288 -60 288.5 -42 Q 289 -24 289.5 -6 Q 290 12 290.5 30 Q 291 48 291 66 Q 291 84 291.5 106.5 Q 292 129 292.5 148 Q 293 167 293 182.5 Q 293 198 293 210 L 293 252 Z " id="path47"/>
<path d="M 100 184 L 100 116 L 400 116 L 400 184 Z " id="path48"/>
<path d="M 307 245 L 188 100 L 238 60 L 368 195 Z " id="path49"/>
<path d="M 193 245 L 132 195 L 262 60 L 312 100 Z " id="path50"/>
<path d="M 250 -328 L 156 -520 L 345 -520 Z M 156 0 L 250 -193 L 345 0 Z " id="path51"/>
<path d="M 250 -328 L 156 -520 L 345 -520 Z " id="path52"/>
<path d="M 215 -173 L 215 -228 Q 223 -228 231 -231 Q 239 -234 244.5 -240 Q 250 -246 252 -254 Q 254 -262 254 -270 Q 254 -279 252 -287 Q 250 -295 244.5 -301 Q 239 -307 231 -310 Q 223 -313 215 -313 L 215 -368 Q 235 -368 254.5 -362.5 Q 274 -357 288.5 -343 Q 303 -329 309.5 -309.5 Q 316 -290 316 -270 Q 316 -250 309.5 -231 Q 303 -212 288.5 -198 Q 274 -184 254.5 -178.5 Q 235 -173 215 -173 Z " id="path53"/>
<path d="M 285 -173 Q 265 -173 245.5 -178.5 Q 226 -184 211.5 -198 Q 197 -212 190.5 -231 Q 184 -250 184 -270 Q 184 -290 190.5 -309.5 Q 197 -329 211.5 -343 Q 226 -357 245.5 -362.5 Q 265 -368 285 -368 L 285 -313 Q 277 -313 269 -310 Q 261 -307 255.5 -301 Q 250 -295 248 -287 Q 246 -279 246 -270 Q 246 -262 248 -254 Q 250 -246 255.5 -240 Q 261 -234 269 -231 Q 277 -228 285 -228 Z " id="path54"/>
<path d="M 150 -170 L 150 -231 L 216 -231 L 216 -370 L 284 -370 L 284 -231 L 350 -231 L 350 -170 Z " id="path55"/>
<path d="M 216 -170 L 216 -310 L 150 -310 L 150 -370 L 350 -370 L 350 -310 L 284 -310 L 284 -170 Z " id="path56"/>
<path d="M 216 -170 L 216 -240 L 150 -240 L 150 -301 L 216 -301 L 216 -370 L 284 -370 L 284 -301 L 350 -301 L 350 -240 L 284 -240 L 284 -170 Z " id="path57"/>
<path d="M 150 -240 L 150 -301 L 350 -301 L 350 -240 Z " id="path58"/>
<path d="M 250 -600 Q 220 -600 190.5 -607.5 Q 161 -615 138 -634 Q 115 -653 104 -681.5 Q 93 -710 93 -740 L 167 -740 Q 167 -724 173 -709 Q 179 -694 191 -684.5 Q 203 -675 218.5 -671 Q 234 -667 250 -667 Q 266 -667 281.5 -671 Q 297 -675 309 -684.5 Q 321 -694 327 -709 Q 333 -724 333 -740 L 407 -740 Q 407 -710 396 -681.5 Q 385 -653 362 -634 Q 339 -615 309.5 -607.5 Q 280 -600 250 -600 Z " id="path59"/>
<path d="M 250 -608 Q 237 -608 225 -611.5 Q 213 -615 204 -624 Q 195 -633 191.5 -645 Q 188 -657 188 -670 Q 188 -683 191.5 -695 Q 195 -707 204 -716 Q 213 -725 225 -729 Q 237 -733 250 -733 Q 263 -733 275 -729 Q 287 -725 296 -716 Q 305 -707 309 -695 Q 313 -683 313 -670 Q 313 -657 309 -645 Q 305 -633 296 -624 Q 287 -615 275 -611.5 Q 263 -608 250 -608 Z " id="path60"/>
<path d="M 250 -576 Q 231 -576 212.5 -581.5 Q 194 -587 180.5 -600.5 Q 167 -614 161.5 -632.5 Q 156 -651 156 -670 Q 156 -689 161.5 -707.5 Q 167 -726 180.5 -739.5 Q 194 -753 212.5 -758.5 Q 231 -764 250 -764 Q 269 -764 287.5 -758.5 Q 306 -753 319.5 -739.5 Q 333 -726 338.5 -707.5 Q 344 -689 344 -670 Q 344 -651 338.5 -632.5 Q 333 -614 319.5 -600.5 Q 306 -587 287.5 -581.5 Q 269 -576 250 -576 Z M 250 -631 Q 258 -631 265.5 -633.5 Q 273 -636 278.5 -641.5 Q 284 -647 286.5 -654.5 Q 289 -662 289 -670 Q 289 -678 286.5 -685.5 Q 284 -693 278.5 -698.5 Q 273 -704 265.5 -706.5 Q 258 -709 250 -709 Q 242 -709 234.5 -706.5 Q 227 -704 221.5 -698.5 Q 216 -693 213.5 -685.5 Q 211 -678 211 -670 Q 211 -662 213.5 -654.5 Q 216 -647 221.5 -641.5 Q 227 -636 234.5 -633.5 Q 242 -631 250 -631 Z " id="path61"/>
<path d="M 276 223 Q 263 223 249.5 221.5 Q 236 220 223.5 216 Q 211 212 199.5 204.5 Q 188 197 179.5 187 Q 171 177 164.5 162.5 Q 158 148 158 139 L 158 129 Q 158 116 161.5 102.5 Q 165 89 171 77 Q 177 65 185 54 Q 193 43 202 33 Q 211 23 223 12.5 Q 235 2 243 -3 L 252 -8 L 300 -8 L 300 0 Q 291 6 283.5 13 Q 276 20 269 28 Q 262 36 256.5 45 Q 251 54 246.5 63.5 Q 242 73 237.5 84 Q 233 95 233 102 L 233 111 Q 233 117 235 123.5 Q 237 130 240.5 135.5 Q 244 141 248.5 144.5 Q 253 148 259 150.5 Q 265 153 272.5 154.5 Q 280 156 284 156 L 289 156 Q 293 156 296.5 155.5 Q 300 155 303.5 154.5 Q 307 154 311.5 153.5 Q 316 153 318 152 L 322 152 L 322 219 Q 317 220 312 220.5 Q 307 221 302 221.5 Q 297 222 291 222.5 Q 285 223 282 223 Z " id="path62"/>
<path d="M 308 -597 Q 303 -597 298 -598 Q 293 -599 288.5 -600 Q 284 -601 279.5 -603 Q 275 -605 270.5 -607.5 Q 266 -610 262 -612.5 Q 258 -615 254.5 -618 Q 251 -621 247.5 -625 Q 244 -629 240.5 -632.5 Q 237 -636 234 -639.5 Q 231 -643 228 -647 Q 225 -651 222.5 -654.5 Q 220 -658 216.5 -662.5 Q 213 -667 209.5 -671 Q 206 -675 203 -678.5 Q 200 -682 195.5 -685 Q 191 -688 191 -690 L 193 -690 L 190 -688 Q 187 -686 184.5 -683 Q 182 -680 179.5 -677.5 Q 177 -675 176 -673.5 Q 175 -672 173.5 -670 Q 172 -668 170.5 -665.5 Q 169 -663 167.5 -661 Q 166 -659 164 -656 Q 162 -653 160.5 -650.5 Q 159 -648 157 -645 Q 155 -642 153.5 -638.5 Q 152 -635 150 -631.5 Q 148 -628 146 -624.5 Q 144 -621 142 -617 Q 140 -613 138 -609 Q 136 -605 134 -601 L 66 -630 Q 75 -648 83.5 -663 Q 92 -678 100 -690.5 Q 108 -703 116 -713.5 Q 124 -724 136 -734.5 Q 148 -745 162 -751.5 Q 176 -758 192 -758 Q 197 -758 202 -757 Q 207 -756 211.5 -755 Q 216 -754 220.5 -752 Q 225 -750 229.5 -747.5 Q 234 -745 238 -742.5 Q 242 -740 245.5 -737 Q 249 -734 252.5 -730.5 Q 256 -727 259.5 -723 Q 263 -719 266 -715.5 Q 269 -712 272 -708 Q 275 -704 277.5 -700.5 Q 280 -697 283.5 -692.5 Q 287 -688 290.5 -684 Q 294 -680 297 -676.5 Q 300 -673 304.5 -670 Q 309 -667 309 -665 L 307 -665 L 310 -667 Q 313 -669 315.5 -672 Q 318 -675 320.5 -677.5 Q 323 -680 324 -682 Q 325 -684 326.5 -686 Q 328 -688 329.5 -690 Q 331 -692 332.5 -694.5 Q 334 -697 336 -699.5 Q 338 -702 339.5 -704.5 Q 341 -707 343 -710 Q 345 -713 346.5 -716.5 Q 348 -720 350 -723.5 Q 352 -727 354 -730.5 Q 356 -734 358 -738 Q 360 -742 362 -746 Q 364 -750 366 -755 L 434 -725 Q 425 -707 416.5 -692 Q 408 -677 400 -664.5 Q 392 -652 384 -641.5 Q 376 -631 364 -620.5 Q 352 -610 338 -603.5 Q 324 -597 308 -597 Z " id="path63"/>
<path d="M 322 -579 L 274 -621 L 406 -766 L 464 -714 Z M 152 -579 L 104 -621 L 236 -766 L 294 -714 Z " id="path64"/>
<path d="M 324 -61 Q 301 -61 278 -67.5 Q 255 -74 236.5 -89 Q 218 -104 205 -124 Q 192 -144 184.5 -166.5 Q 177 -189 174.5 -212.5 Q 172 -236 172 -260 L 172 -334 L -80 -198 L -117 -260 L 172 -416 L 250 -416 L 250 -260 Q 250 -246 251 -232 Q 252 -218 255 -204.5 Q 258 -191 263 -178 Q 268 -165 276.5 -154.5 Q 285 -144 298 -137.5 Q 311 -131 324 -131 Q 336 -131 348 -133.5 Q 360 -136 370 -142.5 Q 380 -149 386 -159.5 Q 392 -170 393 -182 L 471 -182 Q 469 -156 457 -131.5 Q 445 -107 424 -90.5 Q 403 -74 377 -67.5 Q 351 -61 324 -61 Z " id="path65"/>
<path d="M 169 -575 L 131 -625 L 195 -670 L 131 -715 L 169 -765 L 250 -708 L 331 -765 L 369 -715 L 305 -670 L 369 -625 L 331 -575 L 250 -632 Z " id="path66"/>
<path d="M 250 -167 Q 235 -167 221 -171.5 Q 207 -176 197 -187 Q 187 -198 183.5 -212.5 Q 180 -227 180 -241 Q 180 -266 183.5 -290 Q 187 -314 192.5 -338 Q 198 -362 205 -385.5 Q 212 -409 219 -433 Q 195 -498 165 -561.5 Q 135 -625 103 -687 L 180 -687 Q 199 -646 216.5 -604 Q 234 -562 250 -519 Q 266 -562 283.5 -604 Q 301 -646 320 -687 L 397 -687 Q 365 -625 335 -561.5 Q 305 -498 281 -433 Q 288 -409 295 -385.5 Q 302 -362 307.5 -338 Q 313 -314 316.5 -290 Q 320 -266 320 -241 Q 320 -227 316.5 -212.5 Q 313 -198 303 -187 Q 293 -176 279 -171.5 Q 265 -167 250 -167 Z M 250 -217 Q 254 -217 257.5 -219.5 Q 261 -222 262.5 -226 Q 264 -230 264.5 -234 Q 265 -238 265 -242 Q 265 -266 260.5 -290 Q 256 -314 250 -338 Q 244 -314 239.5 -290 Q 235 -266 235 -242 Q 235 -238 235.5 -234 Q 236 -230 237.5 -226 Q 239 -222 242.5 -219.5 Q 246 -217 250 -217 Z " id="path67"/>
<path d="M 373 -323 L 128 -323 L 128 -392 L 216 -392 L 216 -768 L 137 -768 L 137 -838 L 293 -838 L 293 -392 L 373 -392 Z " id="path68"/>
<path d="M 249 -317 Q 233 -317 217 -319 Q 201 -321 185.5 -325 Q 170 -329 156 -337 Q 142 -345 130.5 -356.5 Q 119 -368 113 -383 Q 107 -398 107 -414 L 107 -417 L 184 -417 Q 184 -407 192.5 -400.5 Q 201 -394 210.5 -391.5 Q 220 -389 229.5 -388 Q 239 -387 249 -387 Q 259 -387 269.5 -388 Q 280 -389 289.5 -392.5 Q 299 -396 307 -403.5 Q 315 -411 315 -421 Q 315 -433 306 -441.5 Q 297 -450 286 -454.5 Q 275 -459 263.5 -462 Q 252 -465 240.5 -468 Q 229 -471 218 -475 Q 207 -479 196 -484 Q 185 -489 175 -495 Q 165 -501 156 -508.5 Q 147 -516 139 -525 Q 131 -534 125.5 -544.5 Q 120 -555 117 -566.5 Q 114 -578 114 -590 Q 114 -614 126.5 -635.5 Q 139 -657 159 -670 Q 179 -683 203 -688 Q 227 -693 251 -693 Q 274 -693 297.5 -688.5 Q 321 -684 341.5 -672.5 Q 362 -661 374.5 -640 Q 387 -619 387 -596 L 387 -593 L 310 -593 Q 310 -602 303 -608.5 Q 296 -615 287 -618 Q 278 -621 269 -622 Q 260 -623 251 -623 Q 241 -623 231.5 -622 Q 222 -621 213.5 -617.5 Q 205 -614 198 -606.5 Q 191 -599 191 -590 Q 191 -578 200 -569 Q 209 -560 220 -555.5 Q 231 -551 242.5 -548 Q 254 -545 265 -542 Q 276 -539 287.5 -535 Q 299 -531 309.5 -526 Q 320 -521 330 -515 Q 340 -509 349.5 -501.5 Q 359 -494 366.5 -485 Q 374 -476 379.5 -465.5 Q 385 -455 388.5 -443.5 Q 392 -432 392 -420 Q 392 -404 386 -388 Q 380 -372 369 -359.5 Q 358 -347 344 -339 Q 330 -331 314 -326 Q 298 -321 282 -319 Q 266 -317 249 -317 Z " id="path69"/>
<path d="M 98 -323 L 208 -505 L 98 -687 L 188 -687 L 250 -578 L 312 -687 L 402 -687 L 292 -505 L 402 -323 L 312 -323 L 250 -432 L 188 -323 Z " id="path70"/>
<path d="M 212 -323 L 212 -432 Q 212 -450 209.5 -468 Q 207 -486 199 -502.5 Q 191 -519 180 -533.5 Q 169 -548 158 -562.5 Q 147 -577 138 -592.5 Q 129 -608 122.5 -625 Q 116 -642 112 -660 Q 108 -678 108 -696 Q 108 -725 117.5 -753 Q 127 -781 146.5 -802.5 Q 166 -824 194 -833.5 Q 222 -843 251 -843 Q 278 -843 305 -835.5 Q 332 -828 352 -810 Q 372 -792 382.5 -766 Q 393 -740 393 -713 L 393 -712 L 316 -712 Q 316 -725 311.5 -737 Q 307 -749 297.5 -758 Q 288 -767 276 -770.5 Q 264 -774 251 -774 Q 236 -774 222.5 -767.5 Q 209 -761 201 -749.5 Q 193 -738 189 -723.5 Q 185 -709 185 -695 Q 185 -671 195 -648.5 Q 205 -626 218.5 -606 Q 232 -586 247 -567 Q 262 -548 272 -526 Q 282 -504 285 -480 Q 288 -456 288 -432 L 288 -323 Z " id="path71"/>
<path d="M 321 0 L 321 -665 L 101 -665 L 101 -735 L 399 -735 L 399 0 Z " id="path72"/>
<path d="M 321 0 L 321 -499 L 101 -499 L 101 -569 L 321 -569 L 321 -735 L 399 -735 L 399 0 Z " id="path73"/>
<path d="M 321 0 L 321 -333 L 101 -333 L 101 -403 L 321 -403 L 321 -735 L 399 -735 L 399 0 Z " id="path74"/>
<path d="M 321 0 L 321 -166 L 101 -166 L 101 -236 L 321 -236 L 321 -735 L 399 -735 L 399 0 Z " id="path75"/>
<path d="M 101 0 L 101 -70 L 321 -70 L 321 -735 L 399 -735 L 399 0 Z " id="path76"/>
<path d="M 101 0 L 101 -368 L 179 -368 L 179 -70 L 399 -70 L 399 0 Z " id="path77"/>
<path d="M 101 0 L 101 -368 L 179 -368 L 179 -219 L 399 -219 L 399 -149 L 179 -149 L 179 0 Z " id="path78"/>
<path d="M 201 241 L 110 102 L 153 72 L 250 185 L 347 72 L 390 102 L 299 241 Z " id="path79"/>
<path d="M 64 -665 L 64 -735 L 436 -735 L 436 -665 Z M 64 -535 L 64 -605 L 436 -605 L 436 -535 Z " id="path80"/>
<path d="M 103 -421 L 45 -466 Q 47 -468 49 -470.5 Q 51 -473 54 -476 L 63 -486 Q 65 -488 67 -491 Q 69 -494 71 -496 L 79 -507 Q 83 -513 86.5 -518 Q 90 -523 94 -529 Q 98 -535 102 -540 Q 106 -545 110 -551 L 117 -563 Q 118 -566 120 -569 Q 122 -572 123 -575 L 130 -588 Q 131 -591 132 -593.5 Q 133 -596 134 -596 L 134 -598 L 136 -603 L 142 -626 L 137 -626 Q 133 -626 129 -626 Q 125 -626 121 -626.5 Q 117 -627 113.5 -628.5 Q 110 -630 106 -631 Q 102 -632 98.5 -634 Q 95 -636 92 -638 Q 89 -640 86 -642.5 Q 83 -645 80 -648 Q 77 -651 74.5 -654 Q 72 -657 70.5 -660.5 Q 69 -664 67.5 -667.5 Q 66 -671 65 -675 Q 64 -679 62.5 -684.5 Q 61 -690 61 -691 L 61 -703 Q 61 -707 61 -711 Q 61 -715 62 -719 Q 63 -723 63.5 -727 Q 64 -731 65.5 -734.5 Q 67 -738 68.5 -741.5 Q 70 -745 72.5 -748.5 Q 75 -752 77.5 -755 Q 80 -758 82.5 -761 Q 85 -764 88.5 -766.5 Q 92 -769 95.5 -770.5 Q 99 -772 102.5 -773.5 Q 106 -775 110 -776.5 Q 114 -778 119.5 -779 Q 125 -780 126 -780 L 138 -780 Q 142 -780 146 -779.5 Q 150 -779 154 -778.5 Q 158 -778 162.5 -777.5 Q 167 -777 170.5 -775.5 Q 174 -774 178 -772.5 Q 182 -771 185.5 -768.5 Q 189 -766 192 -763.5 Q 195 -761 197.5 -758 Q 200 -755 202.5 -751.5 Q 205 -748 207 -744 Q 209 -740 210 -736.5 Q 211 -733 212 -729 Q 213 -725 214 -719.5 Q 215 -714 215 -712 L 215 -700 Q 215 -678 212.5 -656 Q 210 -634 204 -612 L 199 -595 Q 197 -591 196 -587 Q 195 -583 193 -578 L 187 -561 Q 184 -553 180.5 -545.5 Q 177 -538 173 -530 L 165 -514 Q 159 -501 151.5 -489.5 Q 144 -478 137 -467 L 126 -451 Q 123 -446 121 -443.5 Q 119 -441 119 -440 L 117 -439 L 115 -436 Z M 328 -421 L 270 -466 Q 272 -468 274 -470.5 Q 276 -473 279 -476 L 288 -486 Q 290 -488 292 -491 Q 294 -494 296 -496 L 304 -507 Q 308 -513 311.5 -518 Q 315 -523 319 -529 Q 323 -535 327 -540 Q 331 -545 335 -551 L 342 -563 Q 343 -566 345 -569 Q 347 -572 348 -575 L 355 -588 Q 356 -591 357 -593.5 Q 358 -596 359 -596 L 359 -598 L 361 -603 L 367 -626 L 362 -626 Q 358 -626 354 -626 Q 350 -626 346 -626.5 Q 342 -627 338.5 -628.5 Q 335 -630 331 -631 Q 327 -632 323.5 -634 Q 320 -636 317 -638 Q 314 -640 311 -642.5 Q 308 -645 305 -648 Q 302 -651 299.5 -654 Q 297 -657 295.5 -660.5 Q 294 -664 292.5 -667.5 Q 291 -671 290 -675 Q 289 -679 287.5 -684.5 Q 286 -690 286 -691 L 286 -703 Q 286 -707 286 -711 Q 286 -715 287 -719 Q 288 -723 288.5 -727 Q 289 -731 290.5 -734.5 Q 292 -738 293.5 -741.5 Q 295 -745 297.5 -748.5 Q 300 -752 302.5 -755 Q 305 -758 307.5 -761 Q 310 -764 313.5 -766.5 Q 317 -769 320.5 -770.5 Q 324 -772 327.5 -773.5 Q 331 -775 335 -776.5 Q 339 -778 344.5 -779 Q 350 -780 351 -780 L 363 -780 Q 367 -780 371 -779.5 Q 375 -779 379 -778.5 Q 383 -778 387.5 -777.5 Q 392 -777 395.5 -775.5 Q 399 -774 403 -772.5 Q 407 -771 410.5 -768.5 Q 414 -766 417 -763.5 Q 420 -761 422.5 -758 Q 425 -755 427.5 -751.5 Q 430 -748 432 -744 Q 434 -740 435 -736.5 Q 436 -733 437 -729 Q 438 -725 439 -719.5 Q 440 -714 440 -712 L 440 -700 Q 440 -678 437.5 -656 Q 435 -634 429 -612 L 424 -595 Q 422 -591 421 -587 Q 420 -583 418 -578 L 412 -561 Q 409 -553 405.5 -545.5 Q 402 -538 398 -530 L 390 -514 Q 384 -501 376.5 -489.5 Q 369 -478 362 -467 L 351 -451 Q 348 -446 346 -443.5 Q 344 -441 344 -440 L 342 -439 L 340 -436 Z " id="path81"/>
<path d="M 210 220 L 123 98 L 177 62 L 250 164 L 323 62 L 377 98 L 290 220 Z " id="path82"/>
<path d="M 177 238 L 123 202 L 210 80 L 290 80 L 377 202 L 323 238 L 250 136 Z " id="path83"/>
<path d="M 339 249 L 150 176 L 150 124 L 339 51 L 361 109 L 232 150 L 361 191 Z " id="path84"/>
<path d="M 161 249 L 139 191 L 268 150 L 139 109 L 161 51 L 350 124 L 350 176 Z " id="path85"/>
<path d="M 250 244 Q 238 244 226.5 242 Q 215 240 204 235.5 Q 193 231 184 223 Q 175 215 169 205 Q 163 195 159.5 181 Q 156 167 156 159 L 156 150 Q 156 138 158 126.5 Q 160 115 164.5 104 Q 169 93 177 84 Q 185 75 195 69 Q 205 63 219 59.5 Q 233 56 241 56 L 250 56 Q 262 56 273.5 58 Q 285 60 296 64.5 Q 307 69 316 77 Q 325 85 331 95 Q 337 105 340.5 119 Q 344 133 344 140 L 344 150 Q 344 162 342 173.5 Q 340 185 335.5 196 Q 331 207 323 216 Q 315 225 305 231 Q 295 237 281 240.5 Q 267 244 260 244 Z M 246 189 L 250 189 Q 255 189 260 188 Q 265 187 269 185 Q 273 183 277 180 Q 281 177 283.5 172.5 Q 286 168 287.5 162.5 Q 289 157 289 154 L 289 150 Q 289 145 288 140 Q 287 135 285 131 Q 283 127 280 123 Q 277 119 272.5 116.5 Q 268 114 262.5 112.5 Q 257 111 254 111 L 250 111 Q 245 111 240 112 Q 235 113 231 115 Q 227 117 223 120 Q 219 123 216.5 127.5 Q 214 132 212.5 137.5 Q 211 143 211 146 L 211 150 Q 211 155 212 160 Q 213 165 215 169 Q 217 173 220 177 Q 223 181 227.5 183.5 Q 232 186 237.5 187.5 Q 243 189 246 189 Z " id="path86"/>
<path d="M 262 -250 L 132 -385 L 193 -435 L 312 -290 Z " id="path87"/>
<path d="M 348 -249 L 206 -384 L 264 -436 L 396 -291 Z M 178 -249 L 36 -384 L 94 -436 L 226 -291 Z " id="path88"/>
<path d="M 322 -249 L 274 -291 L 406 -436 L 464 -384 Z M 152 -249 L 104 -291 L 236 -436 L 294 -384 Z " id="path89"/>
<path d="M 308 238 Q 303 238 298 237 Q 293 236 288.5 235 Q 284 234 280 232 Q 276 230 271.5 228 Q 267 226 263 223.5 Q 259 221 255 217.5 Q 251 214 248 211 Q 245 208 241.5 204 Q 238 200 235 196.5 Q 232 193 229 189 Q 226 185 223.5 181.5 Q 221 178 217.5 174 Q 214 170 211 166 Q 208 162 205 158.5 Q 202 155 196.5 151.5 Q 191 148 191 146 L 191 145 L 193 145 L 190 147 Q 185 150 181.5 155.5 Q 178 161 174 166 L 171 170 Q 165 177 160 186 Q 155 195 150 203 L 146 210 Q 145 212 144 214 Q 143 216 142 218 L 138 226 Q 137 228 136.5 229.5 Q 136 231 135 232 L 134 235 L 66 205 Q 70 198 73.5 191 Q 77 184 80.5 178 Q 84 172 88 165 Q 92 158 95.5 152 Q 99 146 103.5 139.5 Q 108 133 112 127 Q 116 121 120.5 115.5 Q 125 110 131 104.5 Q 137 99 143 94.5 Q 149 90 155.5 86.5 Q 162 83 170.5 80 Q 179 77 184 77 L 192 77 Q 197 77 202 78 Q 207 79 211.5 80 Q 216 81 220 83 Q 224 85 228.5 87 Q 233 89 237 91.5 Q 241 94 245 97.5 Q 249 101 252 104.5 Q 255 108 258.5 111.5 Q 262 115 265 118.5 Q 268 122 271 126 Q 274 130 276.5 133.5 Q 279 137 282.5 141 Q 286 145 289 149 Q 292 153 295 156.5 Q 298 160 303.5 163.5 Q 309 167 309 169 L 309 170 L 307 170 L 310 168 Q 315 165 318.5 160.5 Q 322 156 325.5 151 Q 329 146 332.5 141 Q 336 136 339 131.5 Q 342 127 344.5 122 Q 347 117 350 111 L 354 104 Q 355 103 356 101 Q 357 99 358 97 L 366 81 L 434 110 Q 430 117 426.5 124 Q 423 131 419.5 137 Q 416 143 412 150 Q 408 157 404.5 163 Q 401 169 396.5 175.5 Q 392 182 388 188 Q 384 194 379.5 199.5 Q 375 205 369 210.5 Q 363 216 357 220.5 Q 351 225 344.5 228.5 Q 338 232 329.5 235 Q 321 238 316 238 Z " id="path90"/>
<path d="M 250 -563 Q 236 -563 222 -567 Q 208 -571 198 -581 Q 188 -591 184 -605 Q 180 -619 180 -633 Q 180 -647 184 -661 Q 188 -675 198 -685 Q 208 -695 222 -699.5 Q 236 -704 250 -704 Q 264 -704 278 -699.5 Q 292 -695 302 -685 Q 312 -675 316.5 -661 Q 321 -647 321 -633 Q 321 -619 316.5 -605 Q 312 -591 302 -581 Q 292 -571 278 -567 Q 264 -563 250 -563 Z M 250 -247 Q 236 -247 222 -251 Q 208 -255 198 -265 Q 188 -275 184 -289 Q 180 -303 180 -317 Q 180 -331 184 -345 Q 188 -359 198 -369 Q 208 -379 222 -383.5 Q 236 -388 250 -388 Q 264 -388 278 -383.5 Q 292 -379 302 -369 Q 312 -359 316.5 -345 Q 321 -331 321 -317 Q 321 -303 316.5 -289 Q 312 -275 302 -265 Q 292 -255 278 -251 Q 264 -247 250 -247 Z " id="path91"/>
<path d="M 101 -441 L 101 -735 L 399 -735 L 399 -665 L 179 -665 L 179 -441 Z " id="path92"/>
<path d="M 321 -441 L 321 -665 L 101 -665 L 101 -735 L 399 -735 L 399 -441 Z " id="path93"/>
<path d="M 101 0 L 101 -294 L 179 -294 L 179 -70 L 399 -70 L 399 0 Z " id="path94"/>
<path d="M 101 0 L 101 -70 L 321 -70 L 321 -294 L 399 -294 L 399 0 Z " id="path95"/>
<path d="M 30 220 L 30 80 L 98 80 L 98 159 L 402 159 L 402 80 L 470 80 L 470 220 Z " id="path96"/>
<path d="M 30 220 L 30 80 L 98 80 L 98 159 L 436 159 L 436 220 Z " id="path97"/>
<path d="M 187 237 L 71 150 L 187 63 L 213 97 L 163 129 L 400 129 L 400 171 L 163 171 L 213 203 Z " id="path98"/>
</defs>
<g>
<g data-source-text="0" fill="#20242e" transform="translate(174 41.292) rotate(0) scale(0.023999998)">
<use href="#path1" transform="translate(0 0)"/>
</g>
</g>
<g>
<g data-source-text="1" fill="#20242e" transform="translate(246 41.292) rotate(0) scale(0.023999998)">
<use href="#path2" transform="translate(0 0)"/>
</g>
</g>
<g>
<g data-source-text="2" fill="#20242e" transform="translate(318 41.292) rotate(0) scale(0.023999998)">
<use href="#path3" transform="translate(0 0)"/>
</g>
</g>
<g>
<g data-source-text="3" fill="#20242e" transform="translate(390 41.292) rotate(0) scale(0.023999998)">
<use href="#path4" transform="translate(0 0)"/>
</g>
</g>
<g>
<g data-source-text="4" fill="#20242e" transform="translate(462 41.292) rotate(0) scale(0.023999998)">
<use href="#path5" transform="translate(0 0)"/>
</g>
</g>
<g>
<g data-source-text="5" fill="#20242e" transform="translate(534 41.292) rotate(0) scale(0.023999998)">
<use href="#path6" transform="translate(0 0)"/>
</g>
</g>
<g>
<g data-source-text="6" fill="#20242e" transform="translate(606 41.292) rotate(0) scale(0.023999998)">
<use href="#path7" transform="translate(0 0)"/>
</g>
</g>
<g>
<g data-source-text="7" fill="#20242e" transform="translate(678 41.292) rotate(0) scale(0.023999998)">
<use href="#path8" transform="translate(0 0)"/>
</g>
</g>
<g>
<g data-source-text="8" fill="#20242e" transform="translate(750 41.292) rotate(0) scale(0.023999998)">
<use href="#path9" transform="translate(0 0)"/>
</g>
</g>
<g>
<g data-source-text="9" fill="#20242e" transform="translate(822 41.292) rotate(0) scale(0.023999998)">
<use href="#path10" transform="translate(0 0)"/>
</g>
</g>
<g>
<g data-source-text="A" fill="#20242e" transform="translate(894 41.292) rotate(0) scale(0.023999998)">
<use href="#path11" transform="translate(0 0)"/>
</g>
</g>
<g>
<g data-source-text="B" fill="#20242e" transform="translate(966 41.292) rotate(0) scale(0.023999998)">
<use href="#path12" transform="translate(0 0)"/>
</g>
</g>
<g>
<g data-source-text="C" fill="#20242e" transform="translate(1038 41.292) rotate(0) scale(0.023999998)">
<use href="#path13" transform="translate(0 0)"/>
</g>
</g>
<g>
<g data-source-text="D" fill="#20242e" transform="translate(1110 41.292) rotate(0) scale(0.023999998)">
<use href="#path14" transform="translate(0 0)"/>
</g>
</g>
<g>
<g data-source-text="E" fill="#20242e" transform="translate(1182 41.292) rotate(0) scale(0.023999998)">
<use href="#path15" transform="translate(0 0)"/>
</g>
</g>
<g>
<g data-source-text="F" fill="#20242e" transform="translate(1254 41.292) rotate(0) scale(0.023999998)">
<use href="#path16" transform="translate(0 0)"/>
</g>
</g>
<g>
<g data-source-text="U+02B0" fill="#20242e" transform="translate(36 113.292) rotate(0) scale(0.023999998)">
<use href="#path17" transform="translate(0 0)"/>
<use href="#path18" transform="translate(500 0)"/>
<use href="#path1" transform="translate(1000 0)"/>
<use href="#path3" transform="translate(1500 0)"/>
<use href="#path12" transform="translate(2000 0)"/>
<use href="#path1" transform="translate(2500 0)"/>
</g>
</g>
<g>
<g data-source-text="ʰ" fill="#20242e" transform="translate(168 118.584) rotate(0) scale(0.047999997)">
<use href="#path19" transform="translate(0 0)"/>
</g>
</g>
<g>
<g data-source-text="ʱ" fill="#20242e" transform="translate(240 118.584) rotate(0) scale(0.047999997)">
<use href="#path20" transform="translate(0 0)"/>
</g>
</g>
<g>
<g data-source-text="ʲ" fill="#20242e" transform="translate(312 118.584) rotate(0) scale(0.047999997)">
<use href="#path21" transform="translate(0 0)"/>
</g>
</g>
<g>
<g data-source-text="ʳ" fill="#20242e" transform="translate(384 118.584) rotate(0) scale(0.047999997)">
<use href="#path22" transform="translate(0 0)"/>
</g>
</g>
<g>
<g data-source-text="ʴ" fill="#20242e" transform="translate(456 118.584) rotate(0) scale(0.047999997)">
<use href="#path23" transform="translate(0 0)"/>
</g>
</g>
<g>
<g data-source-text="ʵ" fill="#20242e" transform="translate(528 118.584) rotate(0) scale(0.047999997)">
<use href="#path24" transform="translate(0 0)"/>
</g>
</g>
<g>
<g data-source-text="ʶ" fill="#20242e" transform="translate(600 118.584) rotate(0) scale(0.047999997)">
<use href="#path25" transform="translate(0 0)"/>
</g>
</g>
<g>
<g data-source-text="ʷ" fill="#20242e" transform="translate(672 118.584) rotate(0) scale(0.047999997)">
<use href="#path26" transform="translate(0 0)"/>
</g>
</g>
<g>
<g data-source-text="ʸ" fill="#20242e" transform="translate(744 118.584) rotate(0) scale(0.047999997)">
<use href="#path27" transform="translate(0 0)"/>
</g>
</g>
<g>
<g data-source-text="ʹ" fill="#20242e" transform="translate(816 118.584) rotate(0) scale(0.047999997)">
<use href="#path28" transform="translate(0 0)"/>
</g>
</g>
<g>
<g data-source-text="ʺ" fill="#20242e" transform="translate(888 118.584) rotate(0) scale(0.047999997)">
<use href="#path29" transform="translate(0 0)"/>
</g>
</g>
<g>
<g data-source-text="ʻ" fill="#20242e" transform="translate(960 118.584) rotate(0) scale(0.047999997)">
<use href="#path30" transform="translate(0 0)"/>
</g>
</g>
<g>
<g data-source-text="ʼ" fill="#20242e" transform="translate(1032 118.584) rotate(0) scale(0.047999997)">
<use href="#path31" transform="translate(0 0)"/>
</g>
</g>
<g>
<g data-source-text="ʽ" fill="#20242e" transform="translate(1104 118.584) rotate(0) scale(0.047999997)">
<use href="#path32" transform="translate(0 0)"/>
</g>
</g>
<g>
<g data-source-text="ʾ" fill="#20242e" transform="translate(1176 118.584) rotate(0) scale(0.047999997)">
<use href="#path33" transform="translate(0 0)"/>
</g>
</g>
<g>
<g data-source-text="ʿ" fill="#20242e" transform="translate(1248 118.584) rotate(0) scale(0.047999997)">
<use href="#path34" transform="translate(0 0)"/>
</g>
</g>
<g>
<g data-source-text="U+02C0" fill="#20242e" transform="translate(36 185.292) rotate(0) scale(0.023999998)">
<use href="#path17" transform="translate(0 0)"/>
<use href="#path18" transform="translate(500 0)"/>
<use href="#path1" transform="translate(1000 0)"/>
<use href="#path3" transform="translate(1500 0)"/>
<use href="#path13" transform="translate(2000 0)"/>
<use href="#path1" transform="translate(2500 0)"/>
</g>
</g>
<g>
<g data-source-text="ˀ" fill="#20242e" transform="translate(168 190.584) rotate(0) scale(0.047999997)">
<use href="#path35" transform="translate(0 0)"/>
</g>
</g>
<g>
<g data-source-text="ˁ" fill="#20242e" transform="translate(240 190.584) rotate(0) scale(0.047999997)">
<use href="#path36" transform="translate(0 0)"/>
</g>
</g>
<g>
<g data-source-text="˂" fill="#20242e" transform="translate(312 190.584) rotate(0) scale(0.047999997)">
<use href="#path37" transform="translate(0 0)"/>
</g>
</g>
<g>
<g data-source-text="˃" fill="#20242e" transform="translate(384 190.584) rotate(0) scale(0.047999997)">
<use href="#path38" transform="translate(0 0)"/>
</g>
</g>
<g>
<g data-source-text="˄" fill="#20242e" transform="translate(456 190.584) rotate(0) scale(0.047999997)">
<use href="#path39" transform="translate(0 0)"/>
</g>
</g>
<g>
<g data-source-text="˅" fill="#20242e" transform="translate(528 190.584) rotate(0) scale(0.047999997)">
<use href="#path40" transform="translate(0 0)"/>
</g>
</g>
<g>
<g data-source-text="ˆ" fill="#20242e" transform="translate(600 190.584) rotate(0) scale(0.047999997)">
<use href="#path41" transform="translate(0 0)"/>
</g>
</g>
<g>
<g data-source-text="ˇ" fill="#20242e" transform="translate(672 190.584) rotate(0) scale(0.047999997)">
<use href="#path42" transform="translate(0 0)"/>
</g>
</g>
<g>
<g data-source-text="ˈ" fill="#20242e" transform="translate(744 190.584) rotate(0) scale(0.047999997)">
<use href="#path43" transform="translate(0 0)"/>
</g>
</g>
<g>
<g data-source-text="ˉ" fill="#20242e" transform="translate(816 190.584) rotate(0) scale(0.047999997)">
<use href="#path44" transform="translate(0 0)"/>
</g>
</g>
<g>
<g data-source-text="ˊ" fill="#20242e" transform="translate(888 190.584) rotate(0) scale(0.047999997)">
<use href="#path45" transform="translate(0 0)"/>
</g>
</g>
<g>
<g data-source-text="ˋ" fill="#20242e" transform="translate(960 190.584) rotate(0) scale(0.047999997)">
<use href="#path46" transform="translate(0 0)"/>
</g>
</g>
<g>
<g data-source-text="ˌ" fill="#20242e" transform="translate(1032 190.584) rotate(0) scale(0.047999997)">
<use href="#path47" transform="translate(0 0)"/>
</g>
</g>
<g>
<g data-source-text="ˍ" fill="#20242e" transform="translate(1104 190.584) rotate(0) scale(0.047999997)">
<use href="#path48" transform="translate(0 0)"/>
</g>
</g>
<g>
<g data-source-text="ˎ" fill="#20242e" transform="translate(1176 190.584) rotate(0) scale(0.047999997)">
<use href="#path49" transform="translate(0 0)"/>
</g>
</g>
<g>
<g data-source-text="ˏ" fill="#20242e" transform="translate(1248 190.584) rotate(0) scale(0.047999997)">
<use href="#path50" transform="translate(0 0)"/>
</g>
</g>
<g>
<g data-source-text="U+02D0" fill="#20242e" transform="translate(36 257.292) rotate(0) scale(0.023999998)">
<use href="#path17" transform="translate(0 0)"/>
<use href="#path18" transform="translate(500 0)"/>
<use href="#path1" transform="translate(1000 0)"/>
<use href="#path3" transform="translate(1500 0)"/>
<use href="#path14" transform="translate(2000 0)"/>
<use href="#path1" transform="translate(2500 0)"/>
</g>
</g>
<g>
<g data-source-text="ː" fill="#20242e" transform="translate(168 262.584) rotate(0) scale(0.047999997)">
<use href="#path51" transform="translate(0 0)"/>
</g>
</g>
<g>
<g data-source-text="ˑ" fill="#20242e" transform="translate(240 262.584) rotate(0) scale(0.047999997)">
<use href="#path52" transform="translate(0 0)"/>
</g>
</g>
<g>
<g data-source-text="˒" fill="#20242e" transform="translate(312 262.584) rotate(0) scale(0.047999997)">
<use href="#path53" transform="translate(0 0)"/>
</g>
</g>
<g>
<g data-source-text="˓" fill="#20242e" transform="translate(384 262.584) rotate(0) scale(0.047999997)">
<use href="#path54" transform="translate(0 0)"/>
</g>
</g>
<g>
<g data-source-text="˔" fill="#20242e" transform="translate(456 262.584) rotate(0) scale(0.047999997)">
<use href="#path55" transform="translate(0 0)"/>
</g>
</g>
<g>
<g data-source-text="˕" fill="#20242e" transform="translate(528 262.584) rotate(0) scale(0.047999997)">
<use href="#path56" transform="translate(0 0)"/>
</g>
</g>
<g>
<g data-source-text="˖" fill="#20242e" transform="translate(600 262.584) rotate(0) scale(0.047999997)">
<use href="#path57" transform="translate(0 0)"/>
</g>
</g>
<g>
<g data-source-text="˗" fill="#20242e" transform="translate(672 262.584) rotate(0) scale(0.047999997)">
<use href="#path58" transform="translate(0 0)"/>
</g>
</g>
<g>
<g data-source-text="˘" fill="#20242e" transform="translate(744 262.584) rotate(0) scale(0.047999997)">
<use href="#path59" transform="translate(0 0)"/>
</g>
</g>
<g>
<g data-source-text="˙" fill="#20242e" transform="translate(816 262.584) rotate(0) scale(0.047999997)">
<use href="#path60" transform="translate(0 0)"/>
</g>
</g>
<g>
<g data-source-text="˚" fill="#20242e" transform="translate(888 262.584) rotate(0) scale(0.047999997)">
<use href="#path61" transform="translate(0 0)"/>
</g>
</g>
<g>
<g data-source-text="˛" fill="#20242e" transform="translate(960 262.584) rotate(0) scale(0.047999997)">
<use href="#path62" transform="translate(0 0)"/>
</g>
</g>
<g>
<g data-source-text="˜" fill="#20242e" transform="translate(1032 262.584) rotate(0) scale(0.047999997)">
<use href="#path63" transform="translate(0 0)"/>
</g>
</g>
<g>
<g data-source-text="˝" fill="#20242e" transform="translate(1104 262.584) rotate(0) scale(0.047999997)">
<use href="#path64" transform="translate(0 0)"/>
</g>
</g>
<g>
<g data-source-text="˞" fill="#20242e" transform="translate(1176 262.584) rotate(0) scale(0.047999997)">
<use href="#path65" transform="translate(0 0)"/>
</g>
</g>
<g>
<g data-source-text="˟" fill="#20242e" transform="translate(1248 262.584) rotate(0) scale(0.047999997)">
<use href="#path66" transform="translate(0 0)"/>
</g>
</g>
<g>
<g data-source-text="U+02E0" fill="#20242e" transform="translate(36 329.292) rotate(0) scale(0.023999998)">
<use href="#path17" transform="translate(0 0)"/>
<use href="#path18" transform="translate(500 0)"/>
<use href="#path1" transform="translate(1000 0)"/>
<use href="#path3" transform="translate(1500 0)"/>
<use href="#path15" transform="translate(2000 0)"/>
<use href="#path1" transform="translate(2500 0)"/>
</g>
</g>
<g>
<g data-source-text="ˠ" fill="#20242e" transform="translate(168 334.584) rotate(0) scale(0.047999997)">
<use href="#path67" transform="translate(0 0)"/>
</g>
</g>
<g>
<g data-source-text="ˡ" fill="#20242e" transform="translate(240 334.584) rotate(0) scale(0.047999997)">
<use href="#path68" transform="translate(0 0)"/>
</g>
</g>
<g>
<g data-source-text="ˢ" fill="#20242e" transform="translate(312 334.584) rotate(0) scale(0.047999997)">
<use href="#path69" transform="translate(0 0)"/>
</g>
</g>
<g>
<g data-source-text="ˣ" fill="#20242e" transform="translate(384 334.584) rotate(0) scale(0.047999997)">
<use href="#path70" transform="translate(0 0)"/>
</g>
</g>
<g>
<g data-source-text="ˤ" fill="#20242e" transform="translate(456 334.584) rotate(0) scale(0.047999997)">
<use href="#path71" transform="translate(0 0)"/>
</g>
</g>
<g>
<g data-source-text="˥" fill="#20242e" transform="translate(528 334.584) rotate(0) scale(0.047999997)">
<use href="#path72" transform="translate(0 0)"/>
</g>
</g>
<g>
<g data-source-text="˦" fill="#20242e" transform="translate(600 334.584) rotate(0) scale(0.047999997)">
<use href="#path73" transform="translate(0 0)"/>
</g>
</g>
<g>
<g data-source-text="˧" fill="#20242e" transform="translate(672 334.584) rotate(0) scale(0.047999997)">
<use href="#path74" transform="translate(0 0)"/>
</g>
</g>
<g>
<g data-source-text="˨" fill="#20242e" transform="translate(744 334.584) rotate(0) scale(0.047999997)">
<use href="#path75" transform="translate(0 0)"/>
</g>
</g>
<g>
<g data-source-text="˩" fill="#20242e" transform="translate(816 334.584) rotate(0) scale(0.047999997)">
<use href="#path76" transform="translate(0 0)"/>
</g>
</g>
<g>
<g data-source-text="˪" fill="#20242e" transform="translate(888 334.584) rotate(0) scale(0.047999997)">
<use href="#path77" transform="translate(0 0)"/>
</g>
</g>
<g>
<g data-source-text="˫" fill="#20242e" transform="translate(960 334.584) rotate(0) scale(0.047999997)">
<use href="#path78" transform="translate(0 0)"/>
</g>
</g>
<g>
<g data-source-text="ˬ" fill="#20242e" transform="translate(1032 334.584) rotate(0) scale(0.047999997)">
<use href="#path79" transform="translate(0 0)"/>
</g>
</g>
<g>
<g data-source-text="˭" fill="#20242e" transform="translate(1104 334.584) rotate(0) scale(0.047999997)">
<use href="#path80" transform="translate(0 0)"/>
</g>
</g>
<g>
<g data-source-text="ˮ" fill="#20242e" transform="translate(1176 334.584) rotate(0) scale(0.047999997)">
<use href="#path81" transform="translate(0 0)"/>
</g>
</g>
<g>
<g data-source-text="˯" fill="#20242e" transform="translate(1248 334.584) rotate(0) scale(0.047999997)">
<use href="#path82" transform="translate(0 0)"/>
</g>
</g>
<g>
<g data-source-text="U+02F0" fill="#20242e" transform="translate(36 401.292) rotate(0) scale(0.023999998)">
<use href="#path17" transform="translate(0 0)"/>
<use href="#path18" transform="translate(500 0)"/>
<use href="#path1" transform="translate(1000 0)"/>
<use href="#path3" transform="translate(1500 0)"/>
<use href="#path16" transform="translate(2000 0)"/>
<use href="#path1" transform="translate(2500 0)"/>
</g>
</g>
<g>
<g data-source-text="˰" fill="#20242e" transform="translate(168 406.584) rotate(0) scale(0.047999997)">
<use href="#path83" transform="translate(0 0)"/>
</g>
</g>
<g>
<g data-source-text="˱" fill="#20242e" transform="translate(240 406.584) rotate(0) scale(0.047999997)">
<use href="#path84" transform="translate(0 0)"/>
</g>
</g>
<g>
<g data-source-text="˲" fill="#20242e" transform="translate(312 406.584) rotate(0) scale(0.047999997)">
<use href="#path85" transform="translate(0 0)"/>
</g>
</g>
<g>
<g data-source-text="˳" fill="#20242e" transform="translate(384 406.584) rotate(0) scale(0.047999997)">
<use href="#path86" transform="translate(0 0)"/>
</g>
</g>
<g>
<g data-source-text="˴" fill="#20242e" transform="translate(456 406.584) rotate(0) scale(0.047999997)">
<use href="#path87" transform="translate(0 0)"/>
</g>
</g>
<g>
<g data-source-text="˵" fill="#20242e" transform="translate(528 406.584) rotate(0) scale(0.047999997)">
<use href="#path88" transform="translate(0 0)"/>
</g>
</g>
<g>
<g data-source-text="˶" fill="#20242e" transform="translate(600 406.584) rotate(0) scale(0.047999997)">
<use href="#path89" transform="translate(0 0)"/>
</g>
</g>
<g>
<g data-source-text="˷" fill="#20242e" transform="translate(672 406.584) rotate(0) scale(0.047999997)">
<use href="#path90" transform="translate(0 0)"/>
</g>
</g>
<g>
<g data-source-text="˸" fill="#20242e" transform="translate(744 406.584) rotate(0) scale(0.047999997)">
<use href="#path91" transform="translate(0 0)"/>
</g>
</g>
<g>
<g data-source-text="˹" fill="#20242e" transform="translate(816 406.584) rotate(0) scale(0.047999997)">
<use href="#path92" transform="translate(0 0)"/>
</g>
</g>
<g>
<g data-source-text="˺" fill="#20242e" transform="translate(888 406.584) rotate(0) scale(0.047999997)">
<use href="#path93" transform="translate(0 0)"/>
</g>
</g>
<g>
<g data-source-text="˻" fill="#20242e" transform="translate(960 406.584) rotate(0) scale(0.047999997)">
<use href="#path94" transform="translate(0 0)"/>
</g>
</g>
<g>
<g data-source-text="˼" fill="#20242e" transform="translate(1032 406.584) rotate(0) scale(0.047999997)">
<use href="#path95" transform="translate(0 0)"/>
</g>
</g>
<g>
<g data-source-text="˽" fill="#20242e" transform="translate(1104 406.584) rotate(0) scale(0.047999997)">
<use href="#path96" transform="translate(0 0)"/>
</g>
</g>
<g>
<g data-source-text="˾" fill="#20242e" transform="translate(1176 406.584) rotate(0) scale(0.047999997)">
<use href="#path97" transform="translate(0 0)"/>
</g>
</g>
<g>
<g data-source-text="˿" fill="#20242e" transform="translate(1248 406.584) rotate(0) scale(0.047999997)">
<use href="#path98" transform="translate(0 0)"/>
</g>
</g>
</svg>