<?xml version="1.0" encoding="UTF-8" standalone="no"?>
<svg height="504" viewBox="0 0 1296 504" width="1296" xmlns="http://www.w3.org/2000/svg">
<defs>
<path d="M 250 8 Q 223 8 196 3 Q 169 -2 145 -15 Q 121 -28 102.5 -48.5 Q 84 -69 72.5 -94 Q 61 -119 56.5 -146 Q 52 -173 52 -200 L 52 -535 Q 52 -562 56.5 -589 Q 61 -616 72.5 -641 Q 84 -666 102.5 -686.5 Q 121 -707 145 -720 Q 169 -733 196 -738 Q 223 -743 250 -743 Q 277 -743 304 -738 Q 331 -733 355 -720 Q 379 -707 397.5 -686.5 Q 416 -666 427.5 -641 Q 439 -616 443.5 -589 Q 448 -562 448 -535 L 448 -200 Q 448 -173 443.5 -146 Q 439 -119 427.5 -94 Q 416 -69 397.5 -48.5 Q 379 -28 355 -15 Q 331 -2 304 3 Q 277 8 250 8 Z M 153 -337 L 347 -491 L 347 -535 Q 347 -557 342.5 -578.5 Q 338 -600 325.5 -618 Q 313 -636 292.5 -645.5 Q 272 -655 250 -655 Q 228 -655 207.5 -645.5 Q 187 -636 174.5 -618 Q 162 -600 157.5 -578.5 Q 153 -557 153 -535 Z M 250 -80 Q 272 -80 292.5 -89.5 Q 313 -99 325.5 -117 Q 338 -135 342.5 -156.5 Q 347 -178 347 -200 L 347 -398 L 153 -244 L 153 -200 Q 153 -178 157.5 -156.5 Q 162 -135 174.5 -117 Q 187 -99 207.5 -89.5 Q 228 -80 250 -80 Z " id="path1"/>
<path d="M 230 0 L 230 -631 L 110 -528 L 55 -584 L 230 -735 L 330 -735 L 330 0 Z " id="path2"/>
<path d="M 440 0 L 60 0 L 60 -1 Q 60 -27 61 -53.5 Q 62 -80 66 -106.5 Q 70 -133 77.5 -158.5 Q 85 -184 96.5 -207.5 Q 108 -231 123 -253 Q 138 -275 156 -294.5 Q 174 -314 194 -331 Q 214 -348 235.5 -364 Q 257 -380 277.5 -397 Q 298 -414 313 -435.5 Q 328 -457 335.5 -483 Q 343 -509 343 -535 Q 343 -557 339 -578 Q 335 -599 323.5 -617 Q 312 -635 292 -645 Q 272 -655 251 -655 Q 231 -655 212.5 -647.5 Q 194 -640 182 -625 Q 170 -610 164.5 -591 Q 159 -572 159 -552 L 159 -548 L 58 -548 L 58 -555 Q 58 -581 64 -605.5 Q 70 -630 81.5 -652.5 Q 93 -675 111.5 -693 Q 130 -711 152.5 -722.5 Q 175 -734 200.5 -738.5 Q 226 -743 251 -743 Q 278 -743 304.5 -737.5 Q 331 -732 354.5 -719 Q 378 -706 396 -685.5 Q 414 -665 424.5 -640.5 Q 435 -616 439.5 -589 Q 444 -562 444 -535 Q 444 -501 435 -468 Q 426 -435 407.5 -406 Q 389 -377 364 -353.5 Q 339 -330 312.5 -308.5 Q 286 -287 261 -264 Q 236 -241 216.5 -213 Q 197 -185 184 -153.5 Q 171 -122 166 -88 L 440 -88 Z " id="path3"/>
<path d="M 253 8 Q 227 8 201 4 Q 175 -0 151.5 -11.5 Q 128 -23 108.5 -40.5 Q 89 -58 76 -81 Q 63 -104 56.5 -129.5 Q 50 -155 50 -181 L 50 -187 L 151 -187 L 151 -184 Q 151 -163 157.5 -143 Q 164 -123 178 -108 Q 192 -93 212 -86.5 Q 232 -80 253 -80 Q 275 -80 296 -88.5 Q 317 -97 330.5 -114.5 Q 344 -132 349.5 -154 Q 355 -176 355 -198 Q 355 -217 351 -235.5 Q 347 -254 338.5 -271 Q 330 -288 316.5 -301 Q 303 -314 286 -322 Q 269 -330 250 -332 Q 231 -334 212 -334 L 212 -422 Q 229 -422 246 -424 Q 263 -426 278.5 -433 Q 294 -440 306 -452.5 Q 318 -465 325.5 -480.5 Q 333 -496 336 -513 Q 339 -530 339 -547 Q 339 -566 334.5 -585.5 Q 330 -605 319.5 -621 Q 309 -637 291 -646 Q 273 -655 253 -655 Q 234 -655 216.5 -647 Q 199 -639 187.5 -624 Q 176 -609 171.5 -590 Q 167 -571 167 -553 L 167 -548 L 66 -548 L 66 -556 Q 66 -581 71.5 -605.5 Q 77 -630 88 -652 Q 99 -674 117 -692.5 Q 135 -711 157 -722.5 Q 179 -734 203.5 -738.5 Q 228 -743 253 -743 Q 278 -743 303.5 -738 Q 329 -733 351 -721 Q 373 -709 390 -690 Q 407 -671 418 -648 Q 429 -625 434.5 -600 Q 440 -575 440 -550 Q 440 -524 434 -498.5 Q 428 -473 415.5 -450.5 Q 403 -428 384.5 -409.5 Q 366 -391 343 -379 Q 369 -368 390.5 -348.5 Q 412 -329 427 -304.5 Q 442 -280 449 -252 Q 456 -224 456 -196 Q 456 -168 450 -141.5 Q 444 -115 432 -91 Q 420 -67 401 -47 Q 382 -27 358 -14.5 Q 334 -2 307 3 Q 280 8 253 8 Z " id="path4"/>
<path d="M 282 0 L 282 -188 L 52 -188 L 52 -275 L 276 -735 L 385 -735 L 161 -275 L 282 -275 L 282 -435 L 382 -435 L 382 -275 L 440 -275 L 440 -188 L 382 -188 L 382 0 Z " id="path5"/>
<path d="M 252 8 Q 227 8 202.5 3.5 Q 178 -1 155.5 -12 Q 133 -23 115 -41 Q 97 -59 85 -80.5 Q 73 -102 66.5 -126.5 Q 60 -151 59 -176 L 159 -176 Q 161 -158 167 -139.5 Q 173 -121 185.5 -107 Q 198 -93 216 -86.5 Q 234 -80 252 -80 Q 269 -80 285 -87 Q 301 -94 312 -107 Q 323 -120 330 -135.5 Q 337 -151 340.5 -168 Q 344 -185 345.5 -202 Q 347 -219 347 -236 Q 347 -252 346 -269 Q 345 -286 341 -302 Q 337 -318 331 -334 Q 325 -350 314 -363 Q 303 -376 287.5 -383.5 Q 272 -391 256 -391 Q 240 -391 224.5 -387 Q 209 -383 196 -373.5 Q 183 -364 176 -349.5 Q 169 -335 168 -319 L 68 -319 L 68 -735 L 421 -735 L 421 -647 L 168 -647 L 168 -464 Q 189 -472 211 -475 Q 233 -478 256 -478 Q 285 -478 313.5 -470.5 Q 342 -463 365.5 -445.5 Q 389 -428 405.5 -403 Q 422 -378 431.5 -350.5 Q 441 -323 444.5 -294 Q 448 -265 448 -235 Q 448 -206 444 -176.5 Q 440 -147 430.5 -119 Q 421 -91 404 -66.5 Q 387 -42 363.5 -24.5 Q 340 -7 311 0.5 Q 282 8 252 8 Z " id="path6"/>
<path d="M 250 8 Q 221 8 192.5 1.5 Q 164 -5 140 -21 Q 116 -37 98.5 -60.5 Q 81 -84 70.5 -111 Q 60 -138 56 -166.5 Q 52 -195 52 -224 Q 52 -268 60 -311 Q 68 -354 81.5 -395.5 Q 95 -437 113 -477 Q 131 -517 150 -556 L 238 -735 L 347 -735 L 240 -517 Q 228 -493 216.5 -468.5 Q 205 -444 195 -419 Q 214 -438 239 -447 Q 264 -456 291 -456 Q 317 -456 342.5 -447 Q 368 -438 386.5 -419.5 Q 405 -401 417 -377.5 Q 429 -354 436 -328.5 Q 443 -303 445.5 -276.5 Q 448 -250 448 -224 Q 448 -195 444 -166.5 Q 440 -138 429.5 -111 Q 419 -84 401.5 -60.5 Q 384 -37 360 -21 Q 336 -5 307.5 1.5 Q 279 8 250 8 Z M 250 -80 Q 266 -80 282 -85.5 Q 298 -91 309.5 -102.5 Q 321 -114 328.5 -129 Q 336 -144 340 -159.5 Q 344 -175 345.5 -191.5 Q 347 -208 347 -224 Q 347 -240 345.5 -256.5 Q 344 -273 340 -289 Q 336 -305 328.5 -319.5 Q 321 -334 309.5 -345.5 Q 298 -357 282 -362.5 Q 266 -368 250 -368 Q 235 -368 221 -363.5 Q 207 -359 195.5 -349.5 Q 184 -340 176.5 -327.5 Q 169 -315 164 -301 Q 159 -287 156.5 -272.5 Q 154 -258 153 -243 L 153 -224 Q 153 -208 154.5 -191.5 Q 156 -175 160 -159.5 Q 164 -144 171.5 -129 Q 179 -114 190.5 -102.5 Q 202 -91 218 -85.5 Q 234 -80 250 -80 Z " id="path7"/>
<path d="M 242 0 L 138 0 L 336 -647 L 60 -647 L 60 -735 L 440 -735 L 440 -647 Z " id="path8"/>
<path d="M 250 8 Q 225 8 200 4 Q 175 -0 152 -10 Q 129 -20 109.5 -37 Q 90 -54 77.5 -75.5 Q 65 -97 58.5 -121.5 Q 52 -146 52 -172 Q 52 -203 62 -232.5 Q 72 -262 88.5 -288 Q 105 -314 127 -336 Q 149 -358 174 -378 Q 152 -396 132.5 -417 Q 113 -438 98.5 -462.5 Q 84 -487 76 -514.5 Q 68 -542 68 -570 Q 68 -594 73.5 -617 Q 79 -640 90.5 -661 Q 102 -682 119.5 -698.5 Q 137 -715 158 -725 Q 179 -735 202.5 -739 Q 226 -743 250 -743 Q 274 -743 297.5 -739 Q 321 -735 342 -725 Q 363 -715 380.5 -698.5 Q 398 -682 409.5 -661 Q 421 -640 426.5 -617 Q 432 -594 432 -570 Q 432 -542 424 -514.5 Q 416 -487 401.5 -462.5 Q 387 -438 367.5 -417 Q 348 -396 326 -378 Q 351 -358 373 -336 Q 395 -314 411.5 -288 Q 428 -262 438 -232.5 Q 448 -203 448 -172 Q 448 -146 441.5 -121.5 Q 435 -97 422.5 -75.5 Q 410 -54 390.5 -37 Q 371 -20 348 -10 Q 325 -0 300 4 Q 275 8 250 8 Z M 250 -435 Q 266 -447 280.5 -461.5 Q 295 -476 306.5 -493 Q 318 -510 325 -529.5 Q 332 -549 332 -569 Q 332 -586 326.5 -602.5 Q 321 -619 310 -631.5 Q 299 -644 283 -649.5 Q 267 -655 250 -655 Q 233 -655 217 -649.5 Q 201 -644 190 -631.5 Q 179 -619 173.5 -602.5 Q 168 -586 168 -569 Q 168 -549 175 -529.5 Q 182 -510 193.5 -493 Q 205 -476 219.5 -461.5 Q 234 -447 250 -435 Z M 250 -80 Q 269 -80 287.5 -85.5 Q 306 -91 320 -104 Q 334 -117 340.5 -135.5 Q 347 -154 347 -173 Q 347 -196 338.5 -217.5 Q 330 -239 316.5 -257.5 Q 303 -276 285.5 -291 Q 268 -306 250 -320 Q 232 -306 214.5 -291 Q 197 -276 183.5 -257.5 Q 170 -239 161.5 -217.5 Q 153 -196 153 -173 Q 153 -154 159.5 -135.5 Q 166 -117 180 -104 Q 194 -91 212.5 -85.5 Q 231 -80 250 -80 Z " id="path9"/>
<path d="M 262 0 L 153 0 L 260 -218 Q 272 -242 283.5 -266.5 Q 295 -291 305 -316 Q 286 -297 261 -288 Q 236 -279 209 -279 Q 183 -279 157.5 -288 Q 132 -297 113.5 -315.5 Q 95 -334 83 -357.5 Q 71 -381 64 -406.5 Q 57 -432 54.5 -458.5 Q 52 -485 52 -511 Q 52 -540 56 -568.5 Q 60 -597 70.5 -624 Q 81 -651 98.5 -674.5 Q 116 -698 140 -714 Q 164 -730 192.5 -736.5 Q 221 -743 250 -743 Q 279 -743 307.5 -736.5 Q 336 -730 360 -714 Q 384 -698 401.5 -674.5 Q 419 -651 429.5 -624 Q 440 -597 444 -568.5 Q 448 -540 448 -511 Q 448 -467 440 -424 Q 432 -381 418.5 -339.5 Q 405 -298 387 -258 Q 369 -218 350 -179 Z M 250 -367 Q 265 -367 279 -371.5 Q 293 -376 304.5 -385.5 Q 316 -395 323.5 -407.5 Q 331 -420 336 -434 Q 341 -448 343.5 -462.5 Q 346 -477 347 -492 L 347 -511 Q 347 -527 345.5 -543.5 Q 344 -560 340 -575.5 Q 336 -591 328.5 -606 Q 321 -621 309.5 -632.5 Q 298 -644 282 -649.5 Q 266 -655 250 -655 Q 234 -655 218 -649.5 Q 202 -644 190.5 -632.5 Q 179 -621 171.5 -606 Q 164 -591 160 -575.5 Q 156 -560 154.5 -543.5 Q 153 -527 153 -511 Q 153 -495 154.5 -478.5 Q 156 -462 160 -446 Q 164 -430 171.5 -415.5 Q 179 -401 190.5 -389.5 Q 202 -378 218 -372.5 Q 234 -367 250 -367 Z " id="path10"/>
<path d="M 39 0 L 192 -735 L 308 -735 L 461 0 L 358 0 L 326 -172 L 174 -172 L 142 0 Z M 309 -260 L 265 -490 Q 262 -511 258 -531.5 Q 254 -552 250 -572 Q 246 -552 242 -531.5 Q 238 -511 235 -490 L 191 -260 Z " id="path11"/>
<path d="M 60 0 L 60 -735 L 234 -735 Q 261 -735 287 -730.5 Q 313 -726 336 -714 Q 359 -702 377.5 -682.5 Q 396 -663 408 -639.5 Q 420 -616 424.5 -590 Q 429 -564 429 -538 Q 429 -515 425 -492 Q 421 -469 410.5 -448.5 Q 400 -428 383.5 -411 Q 367 -394 347 -383 Q 372 -373 393.5 -355.5 Q 415 -338 429.5 -314.5 Q 444 -291 450 -264 Q 456 -237 456 -210 Q 456 -181 450 -152.5 Q 444 -124 430 -98.5 Q 416 -73 394.5 -53.5 Q 373 -34 347 -21.5 Q 321 -9 292 -4.5 Q 263 -0 234 0 Z M 161 -424 L 234 -424 Q 255 -424 274.5 -432.5 Q 294 -441 306.5 -457.5 Q 319 -474 324 -494.5 Q 329 -515 329 -536 Q 329 -557 324 -577.5 Q 319 -598 306.5 -614.5 Q 294 -631 274.5 -639 Q 255 -647 234 -647 L 161 -647 Z M 161 -88 L 234 -88 Q 251 -88 267 -91 Q 283 -94 297.5 -101.5 Q 312 -109 323.5 -121 Q 335 -133 342.5 -148 Q 350 -163 352.5 -179 Q 355 -195 355 -212 Q 355 -228 352.5 -244.5 Q 350 -261 343 -276 Q 336 -291 324.5 -303 Q 313 -315 298 -322.5 Q 283 -330 267 -333 Q 251 -336 234 -336 L 161 -336 Z " id="path12"/>
<path d="M 247 8 Q 220 8 193 2.5 Q 166 -3 142.5 -16 Q 119 -29 101 -49.5 Q 83 -70 72 -94.5 Q 61 -119 56.5 -146 Q 52 -173 52 -200 L 52 -535 Q 52 -562 56.5 -589 Q 61 -616 72 -640.5 Q 83 -665 101 -685.5 Q 119 -706 142.5 -719 Q 166 -732 193 -737.5 Q 220 -743 247 -743 Q 273 -743 298 -738.5 Q 323 -734 346 -723 Q 369 -712 387.5 -694 Q 406 -676 418 -653.5 Q 430 -631 436 -606 Q 442 -581 442 -555 L 442 -548 L 341 -548 L 341 -552 Q 341 -572 335.5 -591.5 Q 330 -611 317.5 -626 Q 305 -641 286 -648 Q 267 -655 247 -655 Q 225 -655 205 -645.5 Q 185 -636 173 -618 Q 161 -600 157 -578.5 Q 153 -557 153 -535 L 153 -200 Q 153 -178 157 -156.5 Q 161 -135 173 -117 Q 185 -99 205 -89.5 Q 225 -80 247 -80 Q 267 -80 286 -87 Q 305 -94 317.5 -109 Q 330 -124 335.5 -143.5 Q 341 -163 341 -183 L 341 -187 L 442 -187 L 442 -180 Q 442 -154 436 -129 Q 430 -104 418 -81.5 Q 406 -59 387.5 -41 Q 369 -23 346 -12 Q 323 -1 298 3.5 Q 273 8 247 8 Z " id="path13"/>
<path d="M 60 0 L 60 -735 L 219 -735 Q 249 -735 279 -730 Q 309 -725 336.5 -712 Q 364 -699 386 -678.5 Q 408 -658 422 -631.5 Q 436 -605 442 -575 Q 448 -545 448 -515 L 448 -220 Q 448 -190 442 -160 Q 436 -130 422 -103.5 Q 408 -77 386 -56.5 Q 364 -36 336.5 -23 Q 309 -10 279 -5 Q 249 -0 219 0 Z M 161 -88 L 219 -88 Q 237 -88 254 -91 Q 271 -94 286.5 -102.5 Q 302 -111 314 -124 Q 326 -137 333.5 -152.5 Q 341 -168 344 -185.5 Q 347 -203 347 -220 L 347 -515 Q 347 -532 344 -549.5 Q 341 -567 333.5 -582.5 Q 326 -598 314 -611 Q 302 -624 286.5 -632.5 Q 271 -641 254 -644 Q 237 -647 219 -647 L 161 -647 Z " id="path14"/>
<path d="M 68 0 L 68 -735 L 440 -735 L 440 -647 L 169 -647 L 169 -426 L 383 -426 L 383 -338 L 169 -338 L 169 -88 L 440 -88 L 440 0 Z " id="path15"/>
<path d="M 91 0 L 91 -735 L 440 -735 L 440 -647 L 191 -647 L 191 -426 L 383 -426 L 383 -338 L 191 -338 L 191 0 Z " id="path16"/>
<path d="M 250 8 Q 223 8 196.5 2.5 Q 170 -3 147 -16.5 Q 124 -30 106.5 -50.5 Q 89 -71 78.5 -95.5 Q 68 -120 64 -146.5 Q 60 -173 60 -200 L 60 -735 L 161 -735 L 161 -200 Q 161 -186 162.5 -172 Q 164 -158 168 -144.5 Q 172 -131 179.5 -118.5 Q 187 -106 197.5 -97 Q 208 -88 222 -84 Q 236 -80 250 -80 Q 264 -80 278 -84 Q 292 -88 302.5 -97 Q 313 -106 320.5 -118.5 Q 328 -131 332 -144.5 Q 336 -158 337.5 -172 Q 339 -186 339 -200 L 339 -735 L 440 -735 L 440 -200 Q 440 -173 436 -146.5 Q 432 -120 421.5 -95.5 Q 411 -71 393.5 -50.5 Q 376 -30 353 -16.5 Q 330 -3 303.5 2.5 Q 277 8 250 8 Z " id="path17"/>
<path d="M 300 -143 L 200 -143 L 200 -296 L 60 -296 L 60 -384 L 200 -384 L 200 -537 L 300 -537 L 300 -384 L 440 -384 L 440 -296 L 300 -296 Z " id="path18"/>
<path d="M 215 -317 Q 193 -317 171.5 -323.5 Q 150 -330 134 -345 Q 118 -360 110.5 -381.5 Q 103 -403 103 -425 Q 103 -444 108 -462.5 Q 113 -481 125.5 -495.5 Q 138 -510 154.5 -520 Q 171 -530 189 -535.5 Q 207 -541 226 -543.5 Q 245 -546 264 -546 L 314 -546 L 314 -575 Q 314 -587 308.5 -597 Q 303 -607 293.5 -613 Q 284 -619 272.5 -621 Q 261 -623 249 -623 Q 239 -623 228.5 -622 Q 218 -621 208.5 -617 Q 199 -613 191.5 -605 Q 184 -597 184 -586 L 107 -586 L 107 -589 Q 107 -613 120 -635.5 Q 133 -658 154 -670.5 Q 175 -683 200 -688 Q 225 -693 249 -693 Q 267 -693 284 -690.5 Q 301 -688 317.5 -682 Q 334 -676 348.5 -666 Q 363 -656 373 -641.5 Q 383 -627 387 -610 Q 391 -593 391 -575 L 391 -323 L 314 -323 L 314 -376 Q 308 -363 297.5 -351 Q 287 -339 274 -331.5 Q 261 -324 246 -320.5 Q 231 -317 215 -317 Z M 247 -387 Q 260 -387 273 -390.5 Q 286 -394 295.5 -402.5 Q 305 -411 309.5 -423.5 Q 314 -436 314 -449 L 314 -476 L 264 -476 Q 255 -476 246.5 -475.5 Q 238 -475 229 -473.5 Q 220 -472 212 -469 Q 204 -466 196.5 -461.5 Q 189 -457 184.5 -449 Q 180 -441 180 -432 Q 180 -421 186.5 -411 Q 193 -401 203 -395.5 Q 213 -390 224.5 -388.5 Q 236 -387 247 -387 Z " id="path19"/>
<path d="M 250 -317 Q 231 -317 212 -320 Q 193 -323 175.5 -331 Q 158 -339 143.5 -352.5 Q 129 -366 119.5 -382.5 Q 110 -399 106.5 -418 Q 103 -437 103 -456 L 103 -601 Q 103 -627 104.5 -654 Q 106 -681 114.5 -706.5 Q 123 -732 139.5 -753.5 Q 156 -775 179.5 -788 Q 203 -801 229.5 -806 Q 256 -811 282.5 -814.5 Q 309 -818 335 -823.5 Q 361 -829 387 -838 L 387 -768 Q 371 -760 354 -755.5 Q 337 -751 319.5 -748.5 Q 302 -746 284.5 -745 Q 267 -744 250 -740 Q 233 -736 217.5 -727 Q 202 -718 192.5 -703 Q 183 -688 179.5 -670.5 Q 176 -653 176 -636 Q 176 -628 176.5 -620.5 Q 177 -613 177 -606 Q 183 -621 193.5 -635 Q 204 -649 218 -658 Q 232 -667 248.5 -671 Q 265 -675 282 -675 Q 299 -675 315.5 -671 Q 332 -667 346 -657.5 Q 360 -648 370.5 -634 Q 381 -620 387 -603.5 Q 393 -587 395 -570 Q 397 -553 397 -536 L 397 -456 Q 397 -437 393.5 -418 Q 390 -399 380.5 -382.5 Q 371 -366 356.5 -352.5 Q 342 -339 324.5 -331 Q 307 -323 288 -320 Q 269 -317 250 -317 Z M 250 -387 Q 264 -387 278 -391 Q 292 -395 302 -405 Q 312 -415 316 -428.5 Q 320 -442 320 -456 L 320 -536 Q 320 -550 316 -564 Q 312 -578 302 -588 Q 292 -598 278 -602 Q 264 -606 250 -606 Q 236 -606 222 -602 Q 208 -598 198 -588 Q 188 -578 184 -564 Q 180 -550 180 -536 L 180 -456 Q 180 -442 184 -428.5 Q 188 -415 198 -405 Q 208 -395 222 -391 Q 236 -387 250 -387 Z " id="path20"/>
<path d="M 109 -323 L 109 -687 L 265 -687 Q 287 -687 309 -681.5 Q 331 -676 348.5 -662 Q 366 -648 374.5 -627 Q 383 -606 383 -583 Q 383 -573 381 -563 Q 379 -553 374.5 -544 Q 370 -535 363 -527 Q 356 -519 348 -514 Q 360 -509 370.5 -501 Q 381 -493 388.5 -482 Q 396 -471 399.5 -458 Q 403 -445 403 -432 Q 403 -407 391.5 -384 Q 380 -361 359.5 -347 Q 339 -333 314.5 -328 Q 290 -323 265 -323 Z M 186 -546 L 265 -546 Q 273 -546 280.5 -547.5 Q 288 -549 294 -554 Q 300 -559 303 -566.5 Q 306 -574 306 -582 Q 306 -590 303 -597.5 Q 300 -605 294 -609.5 Q 288 -614 280 -616 Q 272 -618 265 -618 L 186 -618 Z M 186 -392 L 265 -392 Q 275 -392 285.5 -394 Q 296 -396 305 -400.5 Q 314 -405 320 -414 Q 326 -423 326 -434 Q 326 -444 320 -453.5 Q 314 -463 305 -468 Q 296 -473 285.5 -474.5 Q 275 -476 265 -476 L 186 -476 Z " id="path21"/>
<path d="M 125 -323 L 125 -687 L 397 -687 L 397 -618 L 202 -618 L 202 -323 Z " id="path22"/>
<path d="M 164 -218 L 87 -218 L 87 -392 L 109 -392 Q 118 -411 124 -430 Q 130 -449 133.5 -469 Q 137 -489 137.5 -509.5 Q 138 -530 138 -551 L 138 -687 L 380 -687 L 380 -392 L 413 -392 L 413 -218 L 336 -218 L 336 -323 L 164 -323 Z M 192 -392 L 303 -392 L 303 -618 L 215 -618 L 215 -551 Q 215 -510 211 -470 Q 207 -430 192 -392 Z " id="path23"/>
<path d="M 250 -317 Q 230 -317 210.5 -320.5 Q 191 -324 173.5 -333 Q 156 -342 142 -355.5 Q 128 -369 119 -386.5 Q 110 -404 106.5 -423.5 Q 103 -443 103 -463 L 103 -547 Q 103 -567 106.5 -586.5 Q 110 -606 119 -623.5 Q 128 -641 142 -654.5 Q 156 -668 173.5 -677 Q 191 -686 210.5 -689.5 Q 230 -693 250 -693 Q 270 -693 289.5 -689.5 Q 309 -686 326.5 -677 Q 344 -668 358 -654.5 Q 372 -641 381 -623.5 Q 390 -606 393.5 -586.5 Q 397 -567 397 -547 L 397 -470 L 180 -470 L 180 -463 Q 180 -448 184 -433.5 Q 188 -419 197.5 -408 Q 207 -397 221 -392 Q 235 -387 250 -387 Q 261 -387 271.5 -388 Q 282 -389 292 -393 Q 302 -397 310 -405.5 Q 318 -414 319 -425 L 396 -425 Q 395 -399 382 -376.5 Q 369 -354 347.5 -340.5 Q 326 -327 300.5 -322 Q 275 -317 250 -317 Z M 320 -540 L 320 -547 Q 320 -562 316 -576.5 Q 312 -591 302.5 -602 Q 293 -613 279 -618 Q 265 -623 250 -623 Q 235 -623 221 -618 Q 207 -613 197.5 -602 Q 188 -591 184 -576.5 Q 180 -562 180 -547 L 180 -540 Z " id="path24"/>
<path d="M 153 -323 L 83 -323 L 138 -505 L 83 -687 L 153 -687 L 198 -535 L 216 -535 L 216 -687 L 284 -687 L 284 -535 L 302 -535 L 347 -687 L 417 -687 L 362 -505 L 417 -323 L 347 -323 L 302 -475 L 284 -475 L 284 -323 L 216 -323 L 216 -475 L 198 -475 Z " id="path25"/>
<path d="M 252 -317 Q 235 -317 218.5 -319 Q 202 -321 185.5 -325 Q 169 -329 154 -336.5 Q 139 -344 127 -356 Q 115 -368 108.5 -383.5 Q 102 -399 102 -416 L 102 -418 L 179 -418 Q 179 -407 189 -400.5 Q 199 -394 209.5 -391 Q 220 -388 230.5 -387.5 Q 241 -387 252 -387 Q 264 -387 276 -388.5 Q 288 -390 299 -395 Q 310 -400 318 -410.5 Q 326 -421 326 -433 Q 326 -445 318 -455 Q 310 -465 298.5 -470 Q 287 -475 274.5 -476.5 Q 262 -478 250 -478 L 208 -478 L 208 -547 L 250 -547 Q 260 -547 270.5 -548 Q 281 -549 291 -553 Q 301 -557 307.5 -565.5 Q 314 -574 314 -585 Q 314 -595 308 -603.5 Q 302 -612 292.5 -616 Q 283 -620 272.5 -621.5 Q 262 -623 252 -623 Q 242 -623 232.5 -622 Q 223 -621 214 -618 Q 205 -615 197.5 -608.5 Q 190 -602 190 -593 L 113 -593 L 113 -595 Q 113 -611 119 -626 Q 125 -641 135.5 -653 Q 146 -665 160 -672.5 Q 174 -680 189 -684.5 Q 204 -689 220 -691 Q 236 -693 252 -693 Q 277 -693 301.5 -688 Q 326 -683 347 -669.5 Q 368 -656 379.5 -633 Q 391 -610 391 -585 Q 391 -574 389 -563 Q 387 -552 380.5 -542.5 Q 374 -533 365 -525.5 Q 356 -518 346 -513 Q 358 -508 369 -500.5 Q 380 -493 388 -482 Q 396 -471 399.5 -458 Q 403 -445 403 -432 Q 403 -405 390 -380.5 Q 377 -356 354.5 -342 Q 332 -328 305.5 -322.5 Q 279 -317 252 -317 Z " id="path26"/>
<path d="M 109 -323 L 109 -687 L 186 -687 L 186 -541 Q 186 -516 185.5 -491 Q 185 -466 184 -441 L 286 -687 L 391 -687 L 391 -323 L 314 -323 L 314 -469 Q 314 -494 314.5 -519 Q 315 -544 316 -569 L 214 -323 Z " id="path27"/>
<path d="M 120 -323 L 120 -687 L 197 -687 L 197 -540 L 229 -540 L 316 -687 L 403 -687 L 291 -505 L 403 -323 L 316 -323 L 229 -470 L 197 -470 L 197 -323 Z " id="path28"/>
<path d="M 83 -323 L 83 -392 Q 95 -392 104.5 -398 Q 114 -404 118.5 -414.5 Q 123 -425 125 -436 Q 127 -447 128 -458 Q 129 -469 129.5 -480 Q 130 -491 130 -502 L 130 -687 L 391 -687 L 391 -323 L 314 -323 L 314 -618 L 207 -618 L 207 -505 Q 207 -489 206.5 -473 Q 206 -457 204.5 -441 Q 203 -425 199 -409.5 Q 195 -394 188.5 -379.5 Q 182 -365 171 -353 Q 160 -341 145.5 -334.5 Q 131 -328 115 -325.5 Q 99 -323 83 -323 Z " id="path29"/>
<path d="M 100 -323 L 100 -687 L 191 -687 L 250 -430 L 309 -687 L 400 -687 L 400 -323 L 323 -323 L 323 -396 Q 323 -428 325 -460 Q 327 -492 331 -523 L 336 -560 Q 338 -574 339.5 -589 Q 341 -604 343 -618 L 275 -323 L 225 -323 L 157 -618 Q 159 -604 160.5 -589 Q 162 -574 164 -560 L 169 -523 Q 173 -492 175 -460 Q 177 -428 177 -396 L 177 -323 Z " id="path30"/>
<path d="M 250 -317 Q 230 -317 210.5 -320.5 Q 191 -324 173.5 -333 Q 156 -342 142 -355.5 Q 128 -369 119 -386.5 Q 110 -404 106.5 -423.5 Q 103 -443 103 -463 L 103 -547 Q 103 -567 106.5 -586.5 Q 110 -606 119 -623.5 Q 128 -641 142 -654.5 Q 156 -668 173.5 -677 Q 191 -686 210.5 -689.5 Q 230 -693 250 -693 Q 270 -693 289.5 -689.5 Q 309 -686 326.5 -677 Q 344 -668 358 -654.5 Q 372 -641 381 -623.5 Q 390 -606 393.5 -586.5 Q 397 -567 397 -547 L 397 -463 Q 397 -443 393.5 -423.5 Q 390 -404 381 -386.5 Q 372 -369 358 -355.5 Q 344 -342 326.5 -333 Q 309 -324 289.5 -320.5 Q 270 -317 250 -317 Z M 250 -387 Q 265 -387 279 -392 Q 293 -397 302.5 -408 Q 312 -419 316 -433.5 Q 320 -448 320 -463 L 320 -547 Q 320 -562 316 -576.5 Q 312 -591 302.5 -602 Q 293 -613 279 -618 Q 265 -623 250 -623 Q 235 -623 221 -618 Q 207 -613 197.5 -602 Q 188 -591 184 -576.5 Q 180 -562 180 -547 L 180 -463 Q 180 -448 184 -433.5 Q 188 -419 197.5 -408 Q 207 -397 221 -392 Q 235 -387 250 -387 Z " id="path31"/>
<path d="M 109 -323 L 109 -687 L 391 -687 L 391 -323 L 314 -323 L 314 -618 L 186 -618 L 186 -323 Z " id="path32"/>
<path d="M 109 -172 L 109 -687 L 186 -687 L 186 -627 Q 192 -642 201.5 -654.5 Q 211 -667 224 -676 Q 237 -685 253 -689 Q 269 -693 284 -693 Q 302 -693 319 -688 Q 336 -683 349.5 -672.5 Q 363 -662 372.5 -647 Q 382 -632 387.5 -615.5 Q 393 -599 395 -581.5 Q 397 -564 397 -547 L 397 -463 Q 397 -446 395 -428.5 Q 393 -411 387.5 -394.5 Q 382 -378 372.5 -363 Q 363 -348 349.5 -337.5 Q 336 -327 319 -322 Q 302 -317 284 -317 Q 269 -317 253 -321 Q 237 -325 224 -334 Q 211 -343 201.5 -355.5 Q 192 -368 186 -383 L 186 -172 Z M 253 -387 Q 267 -387 281 -392 Q 295 -397 304 -408.5 Q 313 -420 316.5 -434.5 Q 320 -449 320 -463 L 320 -547 Q 320 -561 316.5 -575.5 Q 313 -590 304 -601.5 Q 295 -613 281 -618 Q 267 -623 253 -623 Q 238 -623 224.5 -618 Q 211 -613 201.5 -601.5 Q 192 -590 189 -575.5 Q 186 -561 186 -547 L 186 -463 Q 186 -449 189 -434.5 Q 192 -420 201.5 -408.5 Q 211 -397 224.5 -392 Q 238 -387 253 -387 Z " id="path33"/>
<path d="M 248 -317 Q 228 -317 209 -320.5 Q 190 -324 172.5 -333 Q 155 -342 141 -356 Q 127 -370 118.5 -387.5 Q 110 -405 106.5 -424.5 Q 103 -444 103 -463 L 103 -547 Q 103 -566 106.5 -585.5 Q 110 -605 118.5 -622.5 Q 127 -640 141 -654 Q 155 -668 172.5 -677 Q 190 -686 209 -689.5 Q 228 -693 248 -693 Q 275 -693 302 -686 Q 329 -679 350 -661.5 Q 371 -644 382 -618 Q 393 -592 393 -565 L 393 -561 L 316 -561 L 316 -563 Q 316 -576 311 -588 Q 306 -600 296 -608.5 Q 286 -617 273.5 -620 Q 261 -623 248 -623 Q 233 -623 219.5 -618 Q 206 -613 196.5 -601.5 Q 187 -590 183.5 -576 Q 180 -562 180 -547 L 180 -463 Q 180 -448 183.5 -434 Q 187 -420 196.5 -408.5 Q 206 -397 219.5 -392 Q 233 -387 248 -387 Q 261 -387 273.5 -390 Q 286 -393 296 -401.5 Q 306 -410 311 -422 Q 316 -434 316 -447 L 316 -449 L 393 -449 L 393 -445 Q 393 -418 382 -392 Q 371 -366 350 -348.5 Q 329 -331 302 -324 Q 275 -317 248 -317 Z " id="path34"/>
<path d="M 212 -323 L 212 -618 L 104 -618 L 104 -687 L 396 -687 L 396 -618 L 288 -618 L 288 -323 Z " id="path35"/>
<path d="M 169 -172 Q 177 -198 184.5 -224 Q 192 -250 199 -275 L 211 -317 L 102 -687 L 181 -687 L 252 -415 L 319 -687 L 398 -687 L 249 -172 Z " id="path36"/>
<path d="M 288 -172 L 212 -172 L 212 -317 Q 194 -317 177 -321.5 Q 160 -326 145.5 -336 Q 131 -346 121 -360.5 Q 111 -375 105 -391 Q 99 -407 97 -424.5 Q 95 -442 95 -460 L 95 -551 Q 95 -568 97 -585.5 Q 99 -603 105 -619 Q 111 -635 121 -649.5 Q 131 -664 145.5 -674 Q 160 -684 177 -688.5 Q 194 -693 212 -693 L 212 -838 L 288 -838 L 288 -693 Q 306 -693 323 -688.5 Q 340 -684 354.5 -674 Q 369 -664 379 -649.5 Q 389 -635 395 -619 Q 401 -603 403 -585.5 Q 405 -568 405 -551 L 405 -460 Q 405 -442 403 -424.5 Q 401 -407 395 -391 Q 389 -375 379 -360.5 Q 369 -346 354.5 -336 Q 340 -326 323 -321.5 Q 306 -317 288 -317 Z M 213 -384 L 213 -626 Q 200 -626 190.5 -618 Q 181 -610 176 -598.5 Q 171 -587 169.5 -575 Q 168 -563 168 -551 L 168 -460 Q 168 -447 169.5 -435 Q 171 -423 176 -411.5 Q 181 -400 190.5 -392 Q 200 -384 213 -384 Z M 287 -384 Q 300 -384 309.5 -392 Q 319 -400 324 -411.5 Q 329 -423 330.5 -435 Q 332 -447 332 -460 L 332 -551 Q 332 -563 330.5 -575 Q 329 -587 324 -598.5 Q 319 -610 309.5 -618 Q 300 -626 287 -626 Z " id="path37"/>
<path d="M 98 -323 L 208 -505 L 98 -687 L 188 -687 L 250 -578 L 312 -687 L 402 -687 L 292 -505 L 402 -323 L 312 -323 L 250 -432 L 188 -323 Z " id="path38"/>
<path d="M 345 -218 L 345 -323 L 109 -323 L 109 -687 L 186 -687 L 186 -392 L 314 -392 L 314 -687 L 391 -687 L 391 -392 L 412 -392 L 412 -218 Z " id="path39"/>
<path d="M 314 -323 L 314 -436 Q 299 -432 282.5 -430 Q 266 -428 250 -428 Q 231 -428 211.5 -431 Q 192 -434 174.5 -442 Q 157 -450 143 -463.5 Q 129 -477 121 -494.5 Q 113 -512 111 -531.5 Q 109 -551 109 -570 L 109 -687 L 186 -687 L 186 -570 Q 186 -557 188.5 -543 Q 191 -529 200 -518 Q 209 -507 222.5 -502.5 Q 236 -498 250 -498 Q 266 -498 282.5 -500 Q 299 -502 314 -506 L 314 -687 L 391 -687 L 391 -323 Z " id="path40"/>
<path d="M 100 -323 L 100 -687 L 174 -687 L 174 -392 L 213 -392 L 213 -687 L 287 -687 L 287 -392 L 326 -392 L 326 -687 L 400 -687 L 400 -323 Z " id="path41"/>
<path d="M 326 -323 L 326 -687 L 400 -687 L 400 -323 Z M 100 -323 L 100 -687 L 174 -687 L 174 -558 L 200 -558 Q 222 -558 243 -549.5 Q 264 -541 278 -523.5 Q 292 -506 297 -484.5 Q 302 -463 302 -440 Q 302 -418 297 -396 Q 292 -374 278 -357 Q 264 -340 243 -331.5 Q 222 -323 200 -323 Z M 174 -389 L 200 -389 Q 208 -389 214.5 -395 Q 221 -401 224 -408.5 Q 227 -416 228 -424 Q 229 -432 229 -440 Q 229 -449 228 -457 Q 227 -465 224 -472.5 Q 221 -480 214.5 -485.5 Q 208 -491 200 -491 L 174 -491 Z " id="path42"/>
<path d="M 252 -317 Q 225 -317 198 -324 Q 171 -331 150 -348.5 Q 129 -366 118 -392 Q 107 -418 107 -445 L 107 -449 L 184 -449 L 184 -447 Q 184 -434 189 -422 Q 194 -410 204 -401.5 Q 214 -393 226.5 -390 Q 239 -387 252 -387 Q 267 -387 280.5 -392 Q 294 -397 303.5 -408.5 Q 313 -420 316.5 -434 Q 320 -448 320 -463 L 320 -470 L 208 -470 L 208 -540 L 320 -540 L 320 -547 Q 320 -562 316.5 -576 Q 313 -590 303.5 -601.5 Q 294 -613 280.5 -618 Q 267 -623 252 -623 Q 239 -623 226.5 -620 Q 214 -617 204 -608.5 Q 194 -600 189 -588 Q 184 -576 184 -563 L 184 -561 L 107 -561 L 107 -565 Q 107 -592 118 -618 Q 129 -644 150 -661.5 Q 171 -679 198 -686 Q 225 -693 252 -693 Q 272 -693 291 -689.5 Q 310 -686 327.5 -677 Q 345 -668 359 -654 Q 373 -640 381.5 -622.5 Q 390 -605 393.5 -585.5 Q 397 -566 397 -547 L 397 -463 Q 397 -444 393.5 -424.5 Q 390 -405 381.5 -387.5 Q 373 -370 359 -356 Q 345 -342 327.5 -333 Q 310 -324 291 -320.5 Q 272 -317 252 -317 Z " id="path43"/>
<path d="M 304 -317 Q 284 -317 264 -323.5 Q 244 -330 229.5 -345 Q 215 -360 209 -380 Q 203 -400 203 -421 L 203 -472 L 174 -472 L 174 -323 L 100 -323 L 100 -687 L 174 -687 L 174 -538 L 203 -538 L 203 -589 Q 203 -610 209 -630 Q 215 -650 229.5 -665 Q 244 -680 264 -686.5 Q 284 -693 304 -693 Q 325 -693 345 -686.5 Q 365 -680 379.5 -665 Q 394 -650 399.5 -630 Q 405 -610 405 -589 L 405 -421 Q 405 -400 399.5 -380 Q 394 -360 379.5 -345 Q 365 -330 345 -323.5 Q 325 -317 304 -317 Z M 304 -384 Q 311 -384 317 -387 Q 323 -390 326 -395.5 Q 329 -401 330.5 -407.5 Q 332 -414 332 -421 L 332 -589 Q 332 -596 330.5 -602.5 Q 329 -609 326 -614.5 Q 323 -620 317 -623 Q 311 -626 304 -626 Q 298 -626 292 -623 Q 286 -620 282.5 -614.5 Q 279 -609 278 -602.5 Q 277 -596 277 -589 L 277 -421 Q 277 -414 278 -407.5 Q 279 -401 282.5 -395.5 Q 286 -390 292 -387 Q 298 -384 304 -384 Z " id="path44"/>
<path d="M 380 -201 Q 372 -201 364.5 -202.5 Q 357 -204 350.5 -208.5 Q 344 -213 340 -220 Q 336 -227 336 -235 L 361 -235 Q 361 -229 367.5 -226 Q 374 -223 380 -223 Q 389 -223 394.5 -230 Q 400 -237 400 -246 Q 400 -250 399 -254 Q 398 -258 395 -260.5 Q 392 -263 388 -264 Q 384 -265 380 -265 L 368 -265 L 368 -287 L 380 -287 Q 387 -287 391 -293 Q 395 -299 395 -306 Q 395 -309 394.5 -312.5 Q 394 -316 392 -318.5 Q 390 -321 386.5 -322 Q 383 -323 380 -323 L 164 -323 L 164 -218 L 87 -218 L 87 -392 L 109 -392 Q 118 -411 124 -430 Q 130 -449 133.5 -469 Q 137 -489 137.5 -509.5 Q 138 -530 138 -551 L 138 -687 L 380 -687 L 380 -345 Q 388 -345 396 -343 Q 404 -341 409.5 -335 Q 415 -329 417 -321 Q 419 -313 419 -305 Q 419 -297 415.5 -289 Q 412 -281 406 -277 Q 415 -273 420 -264 Q 425 -255 425 -246 Q 425 -237 422 -228 Q 419 -219 413 -213 Q 407 -207 398 -204 Q 389 -201 380 -201 Z M 192 -392 L 303 -392 L 303 -618 L 215 -618 L 215 -551 Q 215 -510 211 -470 Q 207 -430 192 -392 Z " id="path45"/>
<path d="M 250 -317 Q 230 -317 210.5 -320.5 Q 191 -324 173.5 -333 Q 156 -342 142 -355.5 Q 128 -369 119 -386.5 Q 110 -404 106.5 -423.5 Q 103 -443 103 -463 L 103 -540 L 320 -540 L 320 -547 Q 320 -562 316 -576.5 Q 312 -591 302.5 -602 Q 293 -613 279 -618 Q 265 -623 250 -623 Q 239 -623 228.5 -622 Q 218 -621 208 -617 Q 198 -613 190 -604.5 Q 182 -596 181 -586 L 104 -586 Q 105 -611 118 -633.5 Q 131 -656 152.5 -669.5 Q 174 -683 199.5 -688 Q 225 -693 250 -693 Q 270 -693 289.5 -689.5 Q 309 -686 326.5 -677 Q 344 -668 358 -654.5 Q 372 -641 381 -623.5 Q 390 -606 393.5 -586.5 Q 397 -567 397 -547 L 397 -463 Q 397 -443 393.5 -423.5 Q 390 -404 381 -386.5 Q 372 -369 358 -355.5 Q 344 -342 326.5 -333 Q 309 -324 289.5 -320.5 Q 270 -317 250 -317 Z M 250 -387 Q 265 -387 279 -392 Q 293 -397 302.5 -408 Q 312 -419 316 -433.5 Q 320 -448 320 -463 L 320 -470 L 180 -470 L 180 -463 Q 180 -448 184 -433.5 Q 188 -419 197.5 -408 Q 207 -397 221 -392 Q 235 -387 250 -387 Z " id="path46"/>
<path d="M 254 -730 Q 241 -730 229 -734 Q 217 -738 208 -746.5 Q 199 -755 195.5 -767.5 Q 192 -780 192 -792 Q 192 -804 195.5 -816.5 Q 199 -829 208 -837.5 Q 217 -846 229 -850 Q 241 -854 254 -854 Q 266 -854 278.5 -850 Q 291 -846 299.5 -837.5 Q 308 -829 312 -816.5 Q 316 -804 316 -792 Q 316 -780 312 -767.5 Q 308 -755 299.5 -746.5 Q 291 -738 278.5 -734 Q 266 -730 254 -730 Z M 373 -323 L 128 -323 L 128 -392 L 216 -392 L 216 -618 L 137 -618 L 137 -687 L 293 -687 L 293 -392 L 373 -392 Z " id="path47"/>
<path d="M 289 -730 Q 276 -730 264 -734 Q 252 -738 243 -746.5 Q 234 -755 230.5 -767.5 Q 227 -780 227 -792 Q 227 -804 230.5 -816.5 Q 234 -829 243 -837.5 Q 252 -846 264 -850 Q 276 -854 289 -854 Q 301 -854 313 -850 Q 325 -846 334 -837.5 Q 343 -829 346.5 -816.5 Q 350 -804 350 -792 Q 350 -780 346.5 -767.5 Q 343 -755 334 -746.5 Q 325 -738 313 -734 Q 301 -730 289 -730 Z M 205 -167 Q 181 -167 157.5 -173 Q 134 -179 115.5 -194 Q 97 -209 87.5 -231.5 Q 78 -254 78 -277 L 155 -277 Q 155 -268 159 -259.5 Q 163 -251 170.5 -245.5 Q 178 -240 187 -238 Q 196 -236 205 -236 Q 217 -236 228 -243 Q 239 -250 245.5 -260.5 Q 252 -271 254 -283.5 Q 256 -296 256 -309 L 256 -618 L 172 -618 L 172 -687 L 333 -687 L 333 -309 Q 333 -291 330 -273 Q 327 -255 320 -238 Q 313 -221 301.5 -207 Q 290 -193 274.5 -183.5 Q 259 -174 241 -170.5 Q 223 -167 205 -167 Z " id="path48"/>
<path d="M 250 -317 Q 230 -317 210.5 -320.5 Q 191 -324 173.5 -333 Q 156 -342 142 -355.5 Q 128 -369 119 -386.5 Q 110 -404 106.5 -423.5 Q 103 -443 103 -463 L 103 -547 Q 103 -567 106.5 -586.5 Q 110 -606 119 -623.5 Q 128 -641 142 -654.5 Q 156 -668 173.5 -677 Q 191 -686 210.5 -689.5 Q 230 -693 250 -693 Q 270 -693 289.5 -689.5 Q 309 -686 326.5 -677 Q 344 -668 358 -654.5 Q 372 -641 381 -623.5 Q 390 -606 393.5 -586.5 Q 397 -567 397 -547 L 397 -463 Q 397 -443 393.5 -423.5 Q 390 -404 381 -386.5 Q 372 -369 358 -355.5 Q 344 -342 326.5 -333 Q 309 -324 289.5 -320.5 Q 270 -317 250 -317 Z M 180 -532 L 320 -532 L 320 -547 Q 320 -562 316 -576.5 Q 312 -591 302.5 -602 Q 293 -613 279 -618 Q 265 -623 250 -623 Q 235 -623 221 -618 Q 207 -613 197.5 -602 Q 188 -591 184 -576.5 Q 180 -562 180 -547 Z M 250 -387 Q 265 -387 279 -392 Q 293 -397 302.5 -408 Q 312 -419 316 -433.5 Q 320 -448 320 -463 L 320 -478 L 180 -478 L 180 -463 Q 180 -448 184 -433.5 Q 188 -419 197.5 -408 Q 207 -397 221 -392 Q 235 -387 250 -387 Z " id="path49"/>
<path d="M 288 -172 L 212 -172 L 212 -323 L 88 -687 L 169 -687 L 250 -440 L 331 -687 L 412 -687 L 288 -323 Z " id="path50"/>
<path d="M 373 -323 L 128 -323 L 128 -392 L 216 -392 L 216 -768 L 137 -768 L 137 -838 L 293 -838 L 293 -392 L 373 -392 Z " id="path51"/>
<path d="M 215 113 Q 193 113 171.5 107 Q 150 101 134 86 Q 118 71 110.5 49.5 Q 103 28 103 6 Q 103 -13 108 -32 Q 113 -51 125.5 -65.5 Q 138 -80 154.5 -90 Q 171 -100 189 -105.5 Q 207 -111 226 -113 Q 245 -115 264 -115 L 314 -115 L 314 -145 Q 314 -156 308.5 -166.5 Q 303 -177 293.5 -183 Q 284 -189 272.5 -191 Q 261 -193 249 -193 Q 239 -193 228.5 -191.5 Q 218 -190 208.5 -186 Q 199 -182 191.5 -174 Q 184 -166 184 -156 L 184 -155 L 107 -155 L 107 -158 Q 107 -183 120 -205 Q 133 -227 154 -240 Q 175 -253 200 -257.5 Q 225 -262 249 -262 Q 267 -262 284 -260 Q 301 -258 317.5 -252 Q 334 -246 348.5 -235.5 Q 363 -225 373 -210.5 Q 383 -196 387 -179 Q 391 -162 391 -145 L 391 107 L 314 107 L 314 54 Q 308 68 297.5 79.5 Q 287 91 274 99 Q 261 107 246 110 Q 231 113 215 113 Z M 247 44 Q 260 44 273 40.5 Q 286 37 295.5 28.5 Q 305 20 309.5 7.5 Q 314 -5 314 -18 L 314 -46 L 264 -46 Q 255 -46 246.5 -45.5 Q 238 -45 229 -43 Q 220 -41 212 -38.5 Q 204 -36 196.5 -31 Q 189 -26 184.5 -18 Q 180 -10 180 -2 Q 180 10 186.5 19.5 Q 193 29 203 34.5 Q 213 40 224.5 42 Q 236 44 247 44 Z " id="path52"/>
<path d="M 250 113 Q 231 113 212 110 Q 193 107 175.5 99 Q 158 91 143.5 78 Q 129 65 119.5 48 Q 110 31 106.5 12 Q 103 -7 103 -26 L 103 -170 Q 103 -197 104.5 -223.5 Q 106 -250 114.5 -275.5 Q 123 -301 139.5 -322.5 Q 156 -344 179.5 -357.5 Q 203 -371 229.5 -375.5 Q 256 -380 282.5 -383.5 Q 309 -387 335 -392.5 Q 361 -398 387 -407 L 387 -338 Q 371 -330 354 -325 Q 337 -320 319.5 -318 Q 302 -316 284.5 -315 Q 267 -314 250 -310 Q 233 -306 217.5 -296.5 Q 202 -287 192.5 -272.5 Q 183 -258 179.5 -240.5 Q 176 -223 176 -205 Q 176 -198 176.5 -190.5 Q 177 -183 177 -175 Q 183 -191 193.5 -204.5 Q 204 -218 218 -227.5 Q 232 -237 248.5 -241 Q 265 -245 282 -245 Q 299 -245 315.5 -241 Q 332 -237 346 -227 Q 360 -217 370.5 -203 Q 381 -189 387 -173 Q 393 -157 395 -140 Q 397 -123 397 -106 L 397 -26 Q 397 -7 393.5 12 Q 390 31 380.5 48 Q 371 65 356.5 78 Q 342 91 324.5 99 Q 307 107 288 110 Q 269 113 250 113 Z M 250 44 Q 264 44 278 39.5 Q 292 35 302 25.5 Q 312 16 316 2 Q 320 -12 320 -26 L 320 -106 Q 320 -120 316 -133.5 Q 312 -147 302 -157 Q 292 -167 278 -171 Q 264 -175 250 -175 Q 236 -175 222 -171 Q 208 -167 198 -157 Q 188 -147 184 -133.5 Q 180 -120 180 -106 L 180 -26 Q 180 -12 184 2 Q 188 16 198 25.5 Q 208 35 222 39.5 Q 236 44 250 44 Z " id="path53"/>
<path d="M 109 107 L 109 -257 L 265 -257 Q 287 -257 309 -251.5 Q 331 -246 348.5 -232 Q 366 -218 374.5 -196.5 Q 383 -175 383 -153 Q 383 -143 381 -132.5 Q 379 -122 374.5 -113 Q 370 -104 363 -96.5 Q 356 -89 348 -83 Q 360 -78 370.5 -70 Q 381 -62 388.5 -51.5 Q 396 -41 399.5 -28 Q 403 -15 403 -2 Q 403 23 391.5 46 Q 380 69 359.5 83 Q 339 97 314.5 102 Q 290 107 265 107 Z M 186 -115 L 265 -115 Q 273 -115 280.5 -117 Q 288 -119 294 -124 Q 300 -129 303 -136.5 Q 306 -144 306 -152 Q 306 -159 303 -166.5 Q 300 -174 294 -179 Q 288 -184 280 -185.5 Q 272 -187 265 -187 L 186 -187 Z M 186 38 L 265 38 Q 275 38 285.5 36.5 Q 296 35 305 30 Q 314 25 320 16 Q 326 7 326 -3 Q 326 -14 320 -23 Q 314 -32 305 -37 Q 296 -42 285.5 -44 Q 275 -46 265 -46 L 186 -46 Z " id="path54"/>
<path d="M 125 107 L 125 -257 L 397 -257 L 397 -187 L 202 -187 L 202 107 Z " id="path55"/>
<path d="M 164 213 L 87 213 L 87 38 L 109 38 Q 118 20 124 0.5 Q 130 -19 133.5 -39 Q 137 -59 137.5 -79.5 Q 138 -100 138 -120 L 138 -257 L 380 -257 L 380 38 L 413 38 L 413 213 L 336 213 L 336 107 L 164 107 Z M 192 38 L 303 38 L 303 -187 L 215 -187 L 215 -120 Q 215 -80 211 -39.5 Q 207 1 192 38 Z " id="path56"/>
<path d="M 250 113 Q 230 113 210.5 109.5 Q 191 106 173.5 97.5 Q 156 89 142 75 Q 128 61 119 43.5 Q 110 26 106.5 6.5 Q 103 -13 103 -33 L 103 -117 Q 103 -136 106.5 -155.5 Q 110 -175 119 -192.5 Q 128 -210 142 -224 Q 156 -238 173.5 -246.5 Q 191 -255 210.5 -258.5 Q 230 -262 250 -262 Q 270 -262 289.5 -258.5 Q 309 -255 326.5 -246.5 Q 344 -238 358 -224 Q 372 -210 381 -192.5 Q 390 -175 393.5 -155.5 Q 397 -136 397 -117 L 397 -40 L 180 -40 L 180 -33 Q 180 -18 184 -3.5 Q 188 11 197.5 22.5 Q 207 34 221 39 Q 235 44 250 44 Q 261 44 271.5 42.5 Q 282 41 292 37 Q 302 33 310 25 Q 318 17 319 6 L 396 6 Q 395 31 382 54 Q 369 77 347.5 90 Q 326 103 300.5 108 Q 275 113 250 113 Z M 180 -109 L 320 -109 L 320 -117 Q 320 -131 316 -145.5 Q 312 -160 302.5 -171.5 Q 293 -183 279 -188 Q 265 -193 250 -193 Q 235 -193 221 -188 Q 207 -183 197.5 -171.5 Q 188 -160 184 -145.5 Q 180 -131 180 -117 Z " id="path57"/>
<path d="M 153 108 L 83 108 L 138 -74 L 83 -256 L 153 -256 L 198 -105 L 216 -105 L 216 -257 L 284 -257 L 284 -105 L 302 -105 L 347 -257 L 417 -257 L 362 -74 L 417 107 L 347 107 L 302 -44 L 284 -44 L 284 107 L 216 107 L 216 -44 L 198 -44 Z " id="path58"/>
<path d="M 252 113 Q 235 113 218.5 111.5 Q 202 110 185.5 105.5 Q 169 101 154 93.5 Q 139 86 127 74.5 Q 115 63 108.5 47 Q 102 31 102 14 L 102 13 L 179 13 Q 179 24 189 30 Q 199 36 209.5 39 Q 220 42 230.5 43 Q 241 44 252 44 Q 264 44 276 42 Q 288 40 299 35 Q 310 30 318 20 Q 326 10 326 -2 Q 326 -15 318 -24.5 Q 310 -34 298.5 -39 Q 287 -44 274.5 -45.5 Q 262 -47 250 -47 L 208 -47 L 208 -116 L 250 -116 Q 260 -116 270.5 -117.5 Q 281 -119 291 -123 Q 301 -127 307.5 -135.5 Q 314 -144 314 -154 Q 314 -164 308 -172.5 Q 302 -181 292.5 -185.5 Q 283 -190 272.5 -191.5 Q 262 -193 252 -193 Q 242 -193 232.5 -192 Q 223 -191 214 -188 Q 205 -185 197.5 -178.5 Q 190 -172 190 -162 L 113 -162 L 113 -165 Q 113 -181 119 -196 Q 125 -211 135.5 -222.5 Q 146 -234 160 -242 Q 174 -250 189 -254.5 Q 204 -259 220 -260.5 Q 236 -262 252 -262 Q 277 -262 301.5 -257 Q 326 -252 347 -238.5 Q 368 -225 379.5 -202.5 Q 391 -180 391 -155 Q 391 -144 389 -132.5 Q 387 -121 380.5 -111.5 Q 374 -102 365 -95 Q 356 -88 346 -83 Q 358 -78 369 -70 Q 380 -62 388 -51.5 Q 396 -41 399.5 -28 Q 403 -15 403 -1 Q 403 25 390 49.5 Q 377 74 354.5 88.5 Q 332 103 305.5 108 Q 279 113 252 113 Z " id="path59"/>
<path d="M 109 107 L 109 -257 L 186 -257 L 186 -111 Q 186 -86 185.5 -60.5 Q 185 -35 184 -10 L 286 -257 L 391 -257 L 391 107 L 314 107 L 314 -38 Q 314 -63 314.5 -88.5 Q 315 -114 316 -139 L 214 107 Z " id="path60"/>
<path d="M 120 107 L 120 -257 L 197 -257 L 197 -109 L 229 -109 L 316 -257 L 403 -257 L 291 -75 L 403 107 L 316 107 L 229 -40 L 197 -40 L 197 107 Z " id="path61"/>
<path d="M 83 107 L 83 38 Q 95 38 104.5 32 Q 114 26 118.5 16 Q 123 6 125 -5 Q 127 -16 128 -27.5 Q 129 -39 129.5 -50 Q 130 -61 130 -72 L 130 -257 L 391 -257 L 391 107 L 314 107 L 314 -187 L 207 -187 L 207 -74 Q 207 -58 206.5 -42 Q 206 -26 204.5 -10.5 Q 203 5 199 21 Q 195 37 188.5 51.5 Q 182 66 171 78 Q 160 90 145.5 96.5 Q 131 103 115 105 Q 99 107 83 107 Z " id="path62"/>
<path d="M 250 113 Q 230 113 210.5 109.5 Q 191 106 173.5 97.5 Q 156 89 142 75 Q 128 61 119 43.5 Q 110 26 106.5 6.5 Q 103 -13 103 -33 L 103 -117 Q 103 -136 106.5 -155.5 Q 110 -175 119 -192.5 Q 128 -210 142 -224 Q 156 -238 173.5 -246.5 Q 191 -255 210.5 -258.5 Q 230 -262 250 -262 Q 270 -262 289.5 -258.5 Q 309 -255 326.5 -246.5 Q 344 -238 358 -224 Q 372 -210 381 -192.5 Q 390 -175 393.5 -155.5 Q 397 -136 397 -117 L 397 -33 Q 397 -13 393.5 6.5 Q 390 26 381 43.5 Q 372 61 358 75 Q 344 89 326.5 97.5 Q 309 106 289.5 109.5 Q 270 113 250 113 Z M 250 44 Q 265 44 279 39 Q 293 34 302.5 22.5 Q 312 11 316 -3.5 Q 320 -18 320 -33 L 320 -117 Q 320 -131 316 -145.5 Q 312 -160 302.5 -171.5 Q 293 -183 279 -188 Q 265 -193 250 -193 Q 235 -193 221 -188 Q 207 -183 197.5 -171.5 Q 188 -160 184 -145.5 Q 180 -131 180 -117 L 180 -33 Q 180 -18 184 -3.5 Q 188 11 197.5 22.5 Q 207 34 221 39 Q 235 44 250 44 Z " id="path63"/>
<path d="M 109 107 L 109 -257 L 391 -257 L 391 107 L 314 107 L 314 -187 L 186 -187 L 186 107 Z " id="path64"/>
<path d="M 248 113 Q 228 113 209 109.5 Q 190 106 172.5 97.5 Q 155 89 141 75 Q 127 61 118.5 43.5 Q 110 26 106.5 6.5 Q 103 -13 103 -33 L 103 -117 Q 103 -136 106.5 -155.5 Q 110 -175 118.5 -192.5 Q 127 -210 141 -224 Q 155 -238 172.5 -246.5 Q 190 -255 209 -258.5 Q 228 -262 248 -262 Q 275 -262 302 -255 Q 329 -248 350 -230.5 Q 371 -213 382 -187 Q 393 -161 393 -134 L 393 -131 L 316 -131 L 316 -132 Q 316 -145 311 -157 Q 306 -169 296 -177.5 Q 286 -186 273.5 -189.5 Q 261 -193 248 -193 Q 233 -193 219.5 -187.5 Q 206 -182 196.5 -171 Q 187 -160 183.5 -145.5 Q 180 -131 180 -117 L 180 -33 Q 180 -18 183.5 -3.5 Q 187 11 196.5 22 Q 206 33 219.5 38.5 Q 233 44 248 44 Q 261 44 273.5 40.5 Q 286 37 296 28.5 Q 306 20 311 8 Q 316 -4 316 -17 L 316 -19 L 393 -19 L 393 -15 Q 393 12 382 38 Q 371 64 350 81.5 Q 329 99 302 106 Q 275 113 248 113 Z " id="path65"/>
<path d="M 169 258 Q 177 232 184.5 206.5 Q 192 181 199 155 L 211 113 L 102 -257 L 181 -257 L 252 16 L 319 -257 L 398 -257 L 249 258 Z " id="path66"/>
<path d="M 212 258 L 212 113 Q 194 113 177 108.5 Q 160 104 145.5 94.5 Q 131 85 121 70.5 Q 111 56 105 39.5 Q 99 23 97 5.5 Q 95 -12 95 -29 L 95 -120 Q 95 -137 97 -154.5 Q 99 -172 105 -188.5 Q 111 -205 121 -219.5 Q 131 -234 145.5 -243.5 Q 160 -253 177 -257.5 Q 194 -262 212 -262 L 212 -407 L 288 -407 L 288 -262 Q 306 -262 323 -257.5 Q 340 -253 354.5 -243.5 Q 369 -234 379 -219.5 Q 389 -205 395 -188.5 Q 401 -172 403 -154.5 Q 405 -137 405 -120 L 405 -29 Q 405 -12 403 5.5 Q 401 23 395 39.5 Q 389 56 379 70.5 Q 369 85 354.5 94.5 Q 340 104 323 108.5 Q 306 113 288 113 L 288 258 Z M 213 47 L 213 -196 Q 200 -196 190.5 -187.5 Q 181 -179 176 -168 Q 171 -157 169.5 -144.5 Q 168 -132 168 -120 L 168 -29 Q 168 -17 169.5 -4.5 Q 171 8 176 19 Q 181 30 190.5 38.5 Q 200 47 213 47 Z M 287 47 Q 300 47 309.5 38.5 Q 319 30 324 19 Q 329 8 330.5 -4.5 Q 332 -17 332 -29 L 332 -120 Q 332 -132 330.5 -144.5 Q 329 -157 324 -168 Q 319 -179 309.5 -187.5 Q 300 -196 287 -196 Z " id="path67"/>
<path d="M 98 107 L 208 -75 L 98 -257 L 188 -257 L 250 -148 L 312 -257 L 402 -257 L 292 -75 L 402 107 L 312 107 L 250 -1 L 188 107 Z " id="path68"/>
<path d="M 412 213 L 345 213 L 345 107 L 109 107 L 109 -257 L 186 -257 L 186 38 L 314 38 L 314 -257 L 391 -257 L 391 38 L 412 38 Z " id="path69"/>
<path d="M 314 107 L 314 -6 Q 299 -2 282.5 0 Q 266 2 250 2 Q 231 2 211.5 -0.5 Q 192 -3 174.5 -11 Q 157 -19 143 -33 Q 129 -47 121 -64.5 Q 113 -82 111 -101.5 Q 109 -121 109 -140 L 109 -257 L 186 -257 L 186 -140 Q 186 -126 188.5 -112 Q 191 -98 200 -87.5 Q 209 -77 222.5 -72 Q 236 -67 250 -67 Q 266 -67 282.5 -69 Q 299 -71 314 -75 L 314 -257 L 391 -257 L 391 107 Z " id="path70"/>
<path d="M 100 107 L 100 -257 L 174 -257 L 174 38 L 213 38 L 213 -257 L 287 -257 L 287 38 L 326 38 L 326 -257 L 400 -257 L 400 107 Z " id="path71"/>
<path d="M 146 108 L 146 -187 L 88 -187 L 88 -257 L 223 -257 L 223 -127 L 283 -127 Q 307 -127 329.5 -120 Q 352 -113 368 -96 Q 384 -79 390.5 -56 Q 397 -33 397 -10 Q 397 13 390.5 36 Q 384 59 368 76 Q 352 93 329.5 100.5 Q 307 108 283 108 Z M 283 38 Q 292 38 300 34 Q 308 30 312.5 23 Q 317 16 318.5 7.5 Q 320 -1 320 -10 Q 320 -18 318.5 -27 Q 317 -36 312.5 -43 Q 308 -50 300 -54 Q 292 -58 283 -58 L 223 -58 L 223 38 Z " id="path72"/>
<path d="M 326 107 L 326 -257 L 400 -257 L 400 107 Z M 100 107 L 100 -257 L 174 -257 L 174 -127 L 200 -127 Q 222 -127 243 -119 Q 264 -111 278 -93.5 Q 292 -76 297 -54 Q 302 -32 302 -10 Q 302 12 297 34 Q 292 56 278 73.5 Q 264 91 243 99 Q 222 107 200 107 Z M 174 41 L 200 41 Q 208 41 214.5 35.5 Q 221 30 224 22 Q 227 14 228 6 Q 229 -2 229 -10 Q 229 -18 228 -26 Q 227 -34 224 -42 Q 221 -50 214.5 -55.5 Q 208 -61 200 -61 L 174 -61 Z " id="path73"/>
<path d="M 125 107 L 125 -257 L 320 -257 L 320 -344 L 397 -344 L 397 -187 L 202 -187 L 202 107 Z " id="path74"/>
<path d="M 254 -300 Q 241 -300 229 -303.5 Q 217 -307 208 -316 Q 199 -325 195.5 -337 Q 192 -349 192 -362 Q 192 -374 195.5 -386 Q 199 -398 208 -407 Q 217 -416 229 -419.5 Q 241 -423 254 -423 Q 266 -423 278.5 -419.5 Q 291 -416 299.5 -407 Q 308 -398 312 -386 Q 316 -374 316 -362 Q 316 -349 312 -337 Q 308 -325 299.5 -316 Q 291 -307 278.5 -303.5 Q 266 -300 254 -300 Z M 373 107 L 128 107 L 128 38 L 216 38 L 216 -187 L 137 -187 L 137 -257 L 293 -257 L 293 38 L 373 38 Z " id="path75"/>
<path d="M 249 113 Q 233 113 217 111.5 Q 201 110 185.5 105.5 Q 170 101 156 93.5 Q 142 86 130.5 74.5 Q 119 63 113 47.5 Q 107 32 107 16 L 107 13 L 184 13 Q 184 23 192.5 29.5 Q 201 36 210.5 39 Q 220 42 229.5 43 Q 239 44 249 44 Q 259 44 269.5 43 Q 280 42 289.5 38.5 Q 299 35 307 27.5 Q 315 20 315 10 Q 315 -2 306 -11 Q 297 -20 286 -24.5 Q 275 -29 263.5 -31.5 Q 252 -34 240.5 -37.5 Q 229 -41 218 -44.5 Q 207 -48 196 -53 Q 185 -58 175 -64.5 Q 165 -71 156 -78.5 Q 147 -86 139 -95 Q 131 -104 125.5 -114.5 Q 120 -125 117 -136.5 Q 114 -148 114 -160 Q 114 -184 126.5 -205.5 Q 139 -227 159 -240 Q 179 -253 203 -257.5 Q 227 -262 251 -262 Q 274 -262 297.5 -258 Q 321 -254 341.5 -242 Q 362 -230 374.5 -209.5 Q 387 -189 387 -165 L 387 -162 L 310 -162 Q 310 -172 303 -178.5 Q 296 -185 287 -188 Q 278 -191 269 -192 Q 260 -193 251 -193 Q 241 -193 231.5 -191.5 Q 222 -190 213.5 -186.5 Q 205 -183 198 -176 Q 191 -169 191 -159 Q 191 -147 200 -138.5 Q 209 -130 220 -125.5 Q 231 -121 242.5 -118 Q 254 -115 265 -112 Q 276 -109 287.5 -105 Q 299 -101 309.5 -96 Q 320 -91 330 -84.5 Q 340 -78 349.5 -70.5 Q 359 -63 366.5 -54 Q 374 -45 379.5 -35 Q 385 -25 388.5 -13 Q 392 -1 392 10 Q 392 27 386 42.5 Q 380 58 369 70.5 Q 358 83 344 91.5 Q 330 100 314 105 Q 298 110 282 111.5 Q 266 113 249 113 Z " id="path76"/>
<path d="M 288 258 L 212 258 L 212 107 L 109 107 L 109 -257 L 186 -257 L 186 38 L 314 38 L 314 -257 L 391 -257 L 391 107 L 288 107 Z " id="path77"/>
<path d="M 218 -235 L 218 -319 Q 193 -323 170 -335 Q 147 -347 131.5 -367 Q 116 -387 109.5 -412 Q 103 -437 103 -463 L 103 -547 Q 103 -566 106.5 -585.5 Q 110 -605 118.5 -622.5 Q 127 -640 141 -654 Q 155 -668 172.5 -677 Q 190 -686 209 -689.5 Q 228 -693 248 -693 Q 275 -693 302 -686 Q 329 -679 350 -661.5 Q 371 -644 382 -618 Q 393 -592 393 -565 L 393 -561 L 316 -561 L 316 -563 Q 316 -576 311 -588 Q 306 -600 296 -608.5 Q 286 -617 273.5 -620 Q 261 -623 248 -623 Q 233 -623 219.5 -618 Q 206 -613 196.5 -601.5 Q 187 -590 183.5 -576 Q 180 -562 180 -547 L 180 -463 Q 180 -448 183.5 -434 Q 187 -420 196.5 -408.5 Q 206 -397 219.5 -392 Q 233 -387 248 -387 Q 261 -387 273.5 -390 Q 286 -393 296 -401.5 Q 306 -410 311 -422 Q 316 -434 316 -447 L 316 -449 L 393 -449 L 393 -445 Q 393 -422 385 -400 Q 377 -378 362 -360.5 Q 347 -343 325.5 -333 Q 304 -323 282 -320 L 282 -235 Z " id="path78"/>
<path d="M 332 -323 L 332 -687 L 400 -687 L 400 -323 Z M 122 -323 L 122 -626 L 84 -626 L 84 -687 L 190 -687 L 190 -558 L 205 -558 Q 227 -558 247 -549 Q 267 -540 279.5 -522.5 Q 292 -505 297 -483.5 Q 302 -462 302 -440 Q 302 -419 297 -397.5 Q 292 -376 279.5 -358.5 Q 267 -341 247 -332 Q 227 -323 205 -323 Z M 190 -384 L 205 -384 Q 214 -384 220 -391 Q 226 -398 229 -406 Q 232 -414 232.5 -423 Q 233 -432 233 -440 Q 233 -449 232.5 -457.5 Q 232 -466 229 -474.5 Q 226 -483 220 -489.5 Q 214 -496 205 -496 L 190 -496 Z " id="path79"/>
<path d="M 288 -172 L 212 -172 L 212 -296 L 158 -296 L 158 -350 L 202 -350 L 88 -687 L 169 -687 L 250 -440 L 331 -687 L 412 -687 L 298 -350 L 342 -350 L 342 -296 L 288 -296 Z " id="path80"/>
<path d="M 64 0 L 64 -735 L 436 -735 L 436 0 Z M 94 -321 L 401 -705 L 308 -705 L 94 -438 Z M 94 -478 L 276 -705 L 182 -705 L 94 -595 Z M 94 -634 L 151 -705 L 94 -705 Z M 94 -165 L 406 -554 L 406 -671 L 94 -282 Z M 94 -30 L 111 -30 L 406 -398 L 406 -515 L 94 -126 Z M 143 -30 L 236 -30 L 406 -242 L 406 -359 Z M 268 -30 L 362 -30 L 406 -85 L 406 -202 Z M 393 -30 L 406 -30 L 406 -46 Z " id="path81"/>
<path d="M 250 -526 Q 240 -526 233 -533 Q 226 -540 226 -550 Q 226 -560 233 -567 Q 240 -574 250 -574 Q 260 -574 267 -567 Q 274 -560 274 -550 Q 274 -540 267 -533 Q 260 -526 250 -526 Z M 145 -498 Q 135 -498 128 -505 Q 121 -512 121 -522 Q 121 -531 128 -538.5 Q 135 -546 145 -546 Q 155 -546 162 -538.5 Q 169 -531 169 -522 Q 169 -512 162 -505 Q 155 -498 145 -498 Z M 355 -498 Q 345 -498 338 -505 Q 331 -512 331 -522 Q 331 -531 338 -538.5 Q 345 -546 355 -546 Q 365 -546 372 -538.5 Q 379 -531 379 -522 Q 379 -512 372 -505 Q 365 -498 355 -498 Z M 68 -421 Q 59 -421 51.5 -428 Q 44 -435 44 -445 Q 44 -455 51.5 -462 Q 59 -469 68 -469 Q 78 -469 85 -462 Q 92 -455 92 -445 Q 92 -435 85 -428 Q 78 -421 68 -421 Z M 432 -421 Q 422 -421 415 -428 Q 408 -435 408 -445 Q 408 -455 415 -462 Q 422 -469 432 -469 Q 441 -469 448.5 -462 Q 456 -455 456 -445 Q 456 -435 448.5 -428 Q 441 -421 432 -421 Z M 40 -316 Q 30 -316 23 -323 Q 16 -330 16 -340 Q 16 -350 23 -357 Q 30 -364 40 -364 Q 50 -364 57 -357 Q 64 -350 64 -340 Q 64 -330 57 -323 Q 50 -316 40 -316 Z M 460 -316 Q 450 -316 443 -323 Q 436 -330 436 -340 Q 436 -350 443 -357 Q 450 -364 460 -364 Q 470 -364 477 -357 Q 484 -350 484 -340 Q 484 -330 477 -323 Q 470 -316 460 -316 Z M 432 -211 Q 422 -211 415 -218 Q 408 -225 408 -235 Q 408 -245 415 -252 Q 422 -259 432 -259 Q 441 -259 448.5 -252 Q 456 -245 456 -235 Q 456 -225 448.5 -218 Q 441 -211 432 -211 Z M 68 -211 Q 59 -211 51.5 -218 Q 44 -225 44 -235 Q 44 -245 51.5 -252 Q 59 -259 68 -259 Q 78 -259 85 -252 Q 92 -245 92 -235 Q 92 -225 85 -218 Q 78 -211 68 -211 Z M 355 -134 Q 345 -134 338 -141.5 Q 331 -149 331 -158 Q 331 -168 338 -175 Q 345 -182 355 -182 Q 365 -182 372 -175 Q 379 -168 379 -158 Q 379 -149 372 -141.5 Q 365 -134 355 -134 Z M 145 -134 Q 135 -134 128 -141.5 Q 121 -149 121 -158 Q 121 -168 128 -175 Q 135 -182 145 -182 Q 155 -182 162 -175 Q 169 -168 169 -158 Q 169 -149 162 -141.5 Q 155 -134 145 -134 Z M 250 -106 Q 240 -106 233 -113 Q 226 -120 226 -130 Q 226 -140 233 -147 Q 240 -154 250 -154 Q 260 -154 267 -147 Q 274 -140 274 -130 Q 274 -120 267 -113 Q 260 -106 250 -106 Z " id="path82"/>
<path d="M -248 -837 Q -254 -837 -260 -839 Q -266 -841 -270.5 -845.5 Q -275 -850 -277 -856 Q -279 -862 -279 -868 Q -279 -874 -277 -880 Q -275 -886 -270.5 -890.5 Q -266 -895 -260 -897 Q -254 -899 -248 -899 Q -242 -899 -235.5 -897 Q -229 -895 -225 -890.5 Q -221 -886 -219 -880 Q -217 -874 -217 -868 Q -217 -862 -219 -856 Q -221 -850 -225 -845.5 Q -229 -841 -235.5 -839 Q -242 -837 -248 -837 Z M -320 -600 L -320 -635 L -266 -635 L -266 -773 L -314 -773 L -314 -808 L -228 -808 L -228 -635 L -180 -635 L -180 -600 Z " id="path83"/>
</defs>
<g>
<g data-source-text="0" fill="#20242e" transform="translate(174 41.292) rotate(0) scale(0.023999998)">
<use href="#path1" transform="translate(0 0)"/>
</g>
</g>
<g>
<g data-source-text="1" fill="#20242e" transform="translate(246 41.292) rotate(0) scale(0.023999998)">
<use href="#path2" transform="translate(0 0)"/>
</g>
</g>
<g>
<g data-source-text="2" fill="#20242e" transform="translate(318 41.292) rotate(0) scale(0.023999998)">
<use href="#path3" transform="translate(0 0)"/>
</g>
</g>
<g>
<g data-source-text="3" fill="#20242e" transform="translate(390 41.292) rotate(0) scale(0.023999998)">
<use href="#path4" transform="translate(0 0)"/>
</g>
</g>
<g>
<g data-source-text="4" fill="#20242e" transform="translate(462 41.292) rotate(0) scale(0.023999998)">
<use href="#path5" transform="translate(0 0)"/>
</g>
</g>
<g>
<g data-source-text="5" fill="#20242e" transform="translate(534 41.292) rotate(0) scale(0.023999998)">
<use href="#path6" transform="translate(0 0)"/>
</g>
</g>
<g>
<g data-source-text="6" fill="#20242e" transform="translate(606 41.292) rotate(0) scale(0.023999998)">
<use href="#path7" transform="translate(0 0)"/>
</g>
</g>
<g>
<g data-source-text="7" fill="#20242e" transform="translate(678 41.292) rotate(0) scale(0.023999998)">
<use href="#path8" transform="translate(0 0)"/>
</g>
</g>
<g>
<g data-source-text="8" fill="#20242e" transform="translate(750 41.292) rotate(0) scale(0.023999998)">
<use href="#path9" transform="translate(0 0)"/>
</g>
</g>
<g>
<g data-source-text="9" fill="#20242e" transform="translate(822 41.292) rotate(0) scale(0.023999998)">
<use href="#path10" transform="translate(0 0)"/>
</g>
</g>
<g>
<g data-source-text="A" fill="#20242e" transform="translate(894 41.292) rotate(0) scale(0.023999998)">
<use href="#path11" transform="translate(0 0)"/>
</g>
</g>
<g>
<g data-source-text="B" fill="#20242e" transform="translate(966 41.292) rotate(0) scale(0.023999998)">
<use href="#path12" transform="translate(0 0)"/>
</g>
</g>
<g>
<g data-source-text="C" fill="#20242e" transform="translate(1038 41.292) rotate(0) scale(0.023999998)">
<use href="#path13" transform="translate(0 0)"/>
</g>
</g>
<g>
<g data-source-text="D" fill="#20242e" transform="translate(1110 41.292) rotate(0) scale(0.023999998)">
<use href="#path14" transform="translate(0 0)"/>
</g>
</g>
<g>
<g data-source-text="E" fill="#20242e" transform="translate(1182 41.292) rotate(0) scale(0.023999998)">
<use href="#path15" transform="translate(0 0)"/>
</g>
</g>
<g>
<g data-source-text="F" fill="#20242e" transform="translate(1254 41.292) rotate(0) scale(0.023999998)">
<use href="#path16" transform="translate(0 0)"/>
</g>
</g>
<g>
<g data-source-text="U+1E030" fill="#20242e" transform="translate(30 113.292) rotate(0) scale(0.023999998)">
<use href="#path17" transform="translate(0 0)"/>
<use href="#path18" transform="translate(500 0)"/>
<use href="#path2" transform="translate(1000 0)"/>
<use href="#path15" transform="translate(1500 0)"/>
<use href="#path1" transform="translate(2000 0)"/>
<use href="#path4" transform="translate(2500 0)"/>
<use href="#path1" transform="translate(3000 0)"/>
</g>
</g>
<g>
<g data-source-text="" fill="#20242e" transform="translate(168 118.584) rotate(0) scale(0.047999997)">
<use href="#path19" transform="translate(0 0)"/>
</g>
</g>
<g>
<g data-source-text="" fill="#20242e" transform="translate(240 118.584) rotate(0) scale(0.047999997)">
<use href="#path20" transform="translate(0 0)"/>
</g>
</g>
<g>
<g data-source-text="" fill="#20242e" transform="translate(312 118.584) rotate(0) scale(0.047999997)">
<use href="#path21" transform="translate(0 0)"/>
</g>
</g>
<g>
<g data-source-text="" fill="#20242e" transform="translate(384 118.584) rotate(0) scale(0.047999997)">
<use href="#path22" transform="translate(0 0)"/>
</g>
</g>
<g>
<g data-source-text="" fill="#20242e" transform="translate(456 118.584) rotate(0) scale(0.047999997)">
<use href="#path23" transform="translate(0 0)"/>
</g>
</g>
<g>
<g data-source-text="" fill="#20242e" transform="translate(528 118.584) rotate(0) scale(0.047999997)">
<use href="#path24" transform="translate(0 0)"/>
</g>
</g>
<g>
<g data-source-text="" fill="#20242e" transform="translate(600 118.584) rotate(0) scale(0.047999997)">
<use href="#path25" transform="translate(0 0)"/>
</g>
</g>
<g>
<g data-source-text="" fill="#20242e" transform="translate(672 118.584) rotate(0) scale(0.047999997)">
<use href="#path26" transform="translate(0 0)"/>
</g>
</g>
<g>
<g data-source-text="" fill="#20242e" transform="translate(744 118.584) rotate(0) scale(0.047999997)">
<use href="#path27" transform="translate(0 0)"/>
</g>
</g>
<g>
<g data-source-text="" fill="#20242e" transform="translate(816 118.584) rotate(0) scale(0.047999997)">
<use href="#path28" transform="translate(0 0)"/>
</g>
</g>
<g>
<g data-source-text="" fill="#20242e" transform="translate(888 118.584) rotate(0) scale(0.047999997)">
<use href="#path29" transform="translate(0 0)"/>
</g>
</g>
<g>
<g data-source-text="" fill="#20242e" transform="translate(960 118.584) rotate(0) scale(0.047999997)">
<use href="#path30" transform="translate(0 0)"/>
</g>
</g>
<g>
<g data-source-text="" fill="#20242e" transform="translate(1032 118.584) rotate(0) scale(0.047999997)">
<use href="#path31" transform="translate(0 0)"/>
</g>
</g>
<g>
<g data-source-text="" fill="#20242e" transform="translate(1104 118.584) rotate(0) scale(0.047999997)">
<use href="#path32" transform="translate(0 0)"/>
</g>
</g>
<g>
<g data-source-text="" fill="#20242e" transform="translate(1176 118.584) rotate(0) scale(0.047999997)">
<use href="#path33" transform="translate(0 0)"/>
</g>
</g>
<g>
<g data-source-text="" fill="#20242e" transform="translate(1248 118.584) rotate(0) scale(0.047999997)">
<use href="#path34" transform="translate(0 0)"/>
</g>
</g>
<g>
<g data-source-text="U+1E040" fill="#20242e" transform="translate(30 185.292) rotate(0) scale(0.023999998)">
<use href="#path17" transform="translate(0 0)"/>
<use href="#path18" transform="translate(500 0)"/>
<use href="#path2" transform="translate(1000 0)"/>
<use href="#path15" transform="translate(1500 0)"/>
<use href="#path1" transform="translate(2000 0)"/>
<use href="#path5" transform="translate(2500 0)"/>
<use href="#path1" transform="translate(3000 0)"/>
</g>
</g>
<g>
<g data-source-text="" fill="#20242e" transform="translate(168 190.584) rotate(0) scale(0.047999997)">
<use href="#path35" transform="translate(0 0)"/>
</g>
</g>
<g>
<g data-source-text="" fill="#20242e" transform="translate(240 190.584) rotate(0) scale(0.047999997)">
<use href="#path36" transform="translate(0 0)"/>
</g>
</g>
<g>
<g data-source-text="" fill="#20242e" transform="translate(312 190.584) rotate(0) scale(0.047999997)">
<use href="#path37" transform="translate(0 0)"/>
</g>
</g>
<g>
<g data-source-text="" fill="#20242e" transform="translate(384 190.584) rotate(0) scale(0.047999997)">
<use href="#path38" transform="translate(0 0)"/>
</g>
</g>
<g>
<g data-source-text="" fill="#20242e" transform="translate(456 190.584) rotate(0) scale(0.047999997)">
<use href="#path39" transform="translate(0 0)"/>
</g>
</g>
<g>
<g data-source-text="" fill="#20242e" transform="translate(528 190.584) rotate(0) scale(0.047999997)">
<use href="#path40" transform="translate(0 0)"/>
</g>
</g>
<g>
<g data-source-text="" fill="#20242e" transform="translate(600 190.584) rotate(0) scale(0.047999997)">
<use href="#path41" transform="translate(0 0)"/>
</g>
</g>
<g>
<g data-source-text="" fill="#20242e" transform="translate(672 190.584) rotate(0) scale(0.047999997)">
<use href="#path42" transform="translate(0 0)"/>
</g>
</g>
<g>
<g data-source-text="" fill="#20242e" transform="translate(744 190.584) rotate(0) scale(0.047999997)">
<use href="#path43" transform="translate(0 0)"/>
</g>
</g>
<g>
<g data-source-text="" fill="#20242e" transform="translate(816 190.584) rotate(0) scale(0.047999997)">
<use href="#path44" transform="translate(0 0)"/>
</g>
</g>
<g>
<g data-source-text="" fill="#20242e" transform="translate(888 190.584) rotate(0) scale(0.047999997)">
<use href="#path45" transform="translate(0 0)"/>
</g>
</g>
<g>
<g data-source-text="" fill="#20242e" transform="translate(960 190.584) rotate(0) scale(0.047999997)">
<use href="#path46" transform="translate(0 0)"/>
</g>
</g>
<g>
<g data-source-text="" fill="#20242e" transform="translate(1032 190.584) rotate(0) scale(0.047999997)">
<use href="#path47" transform="translate(0 0)"/>
</g>
</g>
<g>
<g data-source-text="" fill="#20242e" transform="translate(1104 190.584) rotate(0) scale(0.047999997)">
<use href="#path48" transform="translate(0 0)"/>
</g>
</g>
<g>
<g data-source-text="" fill="#20242e" transform="translate(1176 190.584) rotate(0) scale(0.047999997)">
<use href="#path49" transform="translate(0 0)"/>
</g>
</g>
<g>
<g data-source-text="" fill="#20242e" transform="translate(1248 190.584) rotate(0) scale(0.047999997)">
<use href="#path50" transform="translate(0 0)"/>
</g>
</g>
<g>
<g data-source-text="U+1E050" fill="#20242e" transform="translate(30 257.292) rotate(0) scale(0.023999998)">
<use href="#path17" transform="translate(0 0)"/>
<use href="#path18" transform="translate(500 0)"/>
<use href="#path2" transform="translate(1000 0)"/>
<use href="#path15" transform="translate(1500 0)"/>
<use href="#path1" transform="translate(2000 0)"/>
<use href="#path6" transform="translate(2500 0)"/>
<use href="#path1" transform="translate(3000 0)"/>
</g>
</g>
<g>
<g data-source-text="" fill="#20242e" transform="translate(168 262.584) rotate(0) scale(0.047999997)">
<use href="#path51" transform="translate(0 0)"/>
</g>
</g>
<g>
<g data-source-text="" fill="#20242e" transform="translate(240 262.584) rotate(0) scale(0.047999997)">
<use href="#path52" transform="translate(0 0)"/>
</g>
</g>
<g>
<g data-source-text="" fill="#20242e" transform="translate(312 262.584) rotate(0) scale(0.047999997)">
<use href="#path53" transform="translate(0 0)"/>
</g>
</g>
<g>
<g data-source-text="" fill="#20242e" transform="translate(384 262.584) rotate(0) scale(0.047999997)">
<use href="#path54" transform="translate(0 0)"/>
</g>
</g>
<g>
<g data-source-text="" fill="#20242e" transform="translate(456 262.584) rotate(0) scale(0.047999997)">
<use href="#path55" transform="translate(0 0)"/>
</g>
</g>
<g>
<g data-source-text="" fill="#20242e" transform="translate(528 262.584) rotate(0) scale(0.047999997)">
<use href="#path56" transform="translate(0 0)"/>
</g>
</g>
<g>
<g data-source-text="" fill="#20242e" transform="translate(600 262.584) rotate(0) scale(0.047999997)">
<use href="#path57" transform="translate(0 0)"/>
</g>
</g>
<g>
<g data-source-text="" fill="#20242e" transform="translate(672 262.584) rotate(0) scale(0.047999997)">
<use href="#path58" transform="translate(0 0)"/>
</g>
</g>
<g>
<g data-source-text="" fill="#20242e" transform="translate(744 262.584) rotate(0) scale(0.047999997)">
<use href="#path59" transform="translate(0 0)"/>
</g>
</g>
<g>
<g data-source-text="" fill="#20242e" transform="translate(816 262.584) rotate(0) scale(0.047999997)">
<use href="#path60" transform="translate(0 0)"/>
</g>
</g>
<g>
<g data-source-text="" fill="#20242e" transform="translate(888 262.584) rotate(0) scale(0.047999997)">
<use href="#path61" transform="translate(0 0)"/>
</g>
</g>
<g>
<g data-source-text="" fill="#20242e" transform="translate(960 262.584) rotate(0) scale(0.047999997)">
<use href="#path62" transform="translate(0 0)"/>
</g>
</g>
<g>
<g data-source-text="" fill="#20242e" transform="translate(1032 262.584) rotate(0) scale(0.047999997)">
<use href="#path63" transform="translate(0 0)"/>
</g>
</g>
<g>
<g data-source-text="" fill="#20242e" transform="translate(1104 262.584) rotate(0) scale(0.047999997)">
<use href="#path64" transform="translate(0 0)"/>
</g>
</g>
<g>
<g data-source-text="" fill="#20242e" transform="translate(1176 262.584) rotate(0) scale(0.047999997)">
<use href="#path65" transform="translate(0 0)"/>
</g>
</g>
<g>
<g data-source-text="" fill="#20242e" transform="translate(1248 262.584) rotate(0) scale(0.047999997)">
<use href="#path66" transform="translate(0 0)"/>
</g>
</g>
<g>
<g data-source-text="U+1E060" fill="#20242e" transform="translate(30 329.292) rotate(0) scale(0.023999998)">
<use href="#path17" transform="translate(0 0)"/>
<use href="#path18" transform="translate(500 0)"/>
<use href="#path2" transform="translate(1000 0)"/>
<use href="#path15" transform="translate(1500 0)"/>
<use href="#path1" transform="translate(2000 0)"/>
<use href="#path7" transform="translate(2500 0)"/>
<use href="#path1" transform="translate(3000 0)"/>
</g>
</g>
<g>
<g data-source-text="" fill="#20242e" transform="translate(168 334.584) rotate(0) scale(0.047999997)">
<use href="#path67" transform="translate(0 0)"/>
</g>
</g>
<g>
<g data-source-text="" fill="#20242e" transform="translate(240 334.584) rotate(0) scale(0.047999997)">
<use href="#path68" transform="translate(0 0)"/>
</g>
</g>
<g>
<g data-source-text="" fill="#20242e" transform="translate(312 334.584) rotate(0) scale(0.047999997)">
<use href="#path69" transform="translate(0 0)"/>
</g>
</g>
<g>
<g data-source-text="" fill="#20242e" transform="translate(384 334.584) rotate(0) scale(0.047999997)">
<use href="#path70" transform="translate(0 0)"/>
</g>
</g>
<g>
<g data-source-text="" fill="#20242e" transform="translate(456 334.584) rotate(0) scale(0.047999997)">
<use href="#path71" transform="translate(0 0)"/>
</g>
</g>
<g>
<g data-source-text="" fill="#20242e" transform="translate(528 334.584) rotate(0) scale(0.047999997)">
<use href="#path72" transform="translate(0 0)"/>
</g>
</g>
<g>
<g data-source-text="" fill="#20242e" transform="translate(600 334.584) rotate(0) scale(0.047999997)">
<use href="#path73" transform="translate(0 0)"/>
</g>
</g>
<g>
<g data-source-text="" fill="#20242e" transform="translate(672 334.584) rotate(0) scale(0.047999997)">
<use href="#path74" transform="translate(0 0)"/>
</g>
</g>
<g>
<g data-source-text="" fill="#20242e" transform="translate(744 334.584) rotate(0) scale(0.047999997)">
<use href="#path75" transform="translate(0 0)"/>
</g>
</g>
<g>
<g data-source-text="" fill="#20242e" transform="translate(816 334.584) rotate(0) scale(0.047999997)">
<use href="#path76" transform="translate(0 0)"/>
</g>
</g>
<g>
<g data-source-text="" fill="#20242e" transform="translate(888 334.584) rotate(0) scale(0.047999997)">
<use href="#path77" transform="translate(0 0)"/>
</g>
</g>
<g>
<g data-source-text="" fill="#20242e" transform="translate(960 334.584) rotate(0) scale(0.047999997)">
<use href="#path78" transform="translate(0 0)"/>
</g>
</g>
<g>
<g data-source-text="" fill="#20242e" transform="translate(1032 334.584) rotate(0) scale(0.047999997)">
<use href="#path79" transform="translate(0 0)"/>
</g>
</g>
<g>
<g data-source-text="" fill="#20242e" transform="translate(1104 334.584) rotate(0) scale(0.047999997)">
<use href="#path80" transform="translate(0 0)"/>
</g>
</g>
<g>
<g data-source-text="" fill="#20242e40" transform="translate(1176 334.584) rotate(0) scale(0.047999997)">
<use href="#path81" transform="translate(0 0)"/>
</g>
</g>
<g>
<g data-source-text="" fill="#20242e40" transform="translate(1248 334.584) rotate(0) scale(0.047999997)">
<use href="#path81" transform="translate(0 0)"/>
</g>
</g>
<g>
<g data-source-text="U+1E070" fill="#20242e" transform="translate(30 401.292) rotate(0) scale(0.023999998)">
<use href="#path17" transform="translate(0 0)"/>
<use href="#path18" transform="translate(500 0)"/>
<use href="#path2" transform="translate(1000 0)"/>
<use href="#path15" transform="translate(1500 0)"/>
<use href="#path1" transform="translate(2000 0)"/>
<use href="#path8" transform="translate(2500 0)"/>
<use href="#path1" transform="translate(3000 0)"/>
</g>
</g>
<g>
<g data-source-text="" fill="#20242e40" transform="translate(168 406.584) rotate(0) scale(0.047999997)">
<use href="#path81" transform="translate(0 0)"/>
</g>
</g>
<g>
<g data-source-text="" fill="#20242e40" transform="translate(240 406.584) rotate(0) scale(0.047999997)">
<use href="#path81" transform="translate(0 0)"/>
</g>
</g>
<g>
<g data-source-text="" fill="#20242e40" transform="translate(312 406.584) rotate(0) scale(0.047999997)">
<use href="#path81" transform="translate(0 0)"/>
</g>
</g>
<g>
<g data-source-text="" fill="#20242e40" transform="translate(384 406.584) rotate(0) scale(0.047999997)">
<use href="#path81" transform="translate(0 0)"/>
</g>
</g>
<g>
<g data-source-text="" fill="#20242e40" transform="translate(456 406.584) rotate(0) scale(0.047999997)">
<use href="#path81" transform="translate(0 0)"/>
</g>
</g>
<g>
<g data-source-text="" fill="#20242e40" transform="translate(528 406.584) rotate(0) scale(0.047999997)">
<use href="#path81" transform="translate(0 0)"/>
</g>
</g>
<g>
<g data-source-text="" fill="#20242e40" transform="translate(600 406.584) rotate(0) scale(0.047999997)">
<use href="#path81" transform="translate(0 0)"/>
</g>
</g>
<g>
<g data-source-text="" fill="#20242e40" transform="translate(672 406.584) rotate(0) scale(0.047999997)">
<use href="#path81" transform="translate(0 0)"/>
</g>
</g>
<g>
<g data-source-text="" fill="#20242e40" transform="translate(744 406.584) rotate(0) scale(0.047999997)">
<use href="#path81" transform="translate(0 0)"/>
</g>
</g>
<g>
<g data-source-text="" fill="#20242e40" transform="translate(816 406.584) rotate(0) scale(0.047999997)">
<use href="#path81" transform="translate(0 0)"/>
</g>
</g>
<g>
<g data-source-text="" fill="#20242e40" transform="translate(888 406.584) rotate(0) scale(0.047999997)">
<use href="#path81" transform="translate(0 0)"/>
</g>
</g>
<g>
<g data-source-text="" fill="#20242e40" transform="translate(960 406.584) rotate(0) scale(0.047999997)">
<use href="#path81" transform="translate(0 0)"/>
</g>
</g>
<g>
<g data-source-text="" fill="#20242e40" transform="translate(1032 406.584) rotate(0) scale(0.047999997)">
<use href="#path81" transform="translate(0 0)"/>
</g>
</g>
<g>
<g data-source-text="" fill="#20242e40" transform="translate(1104 406.584) rotate(0) scale(0.047999997)">
<use href="#path81" transform="translate(0 0)"/>
</g>
</g>
<g>
<g data-source-text="" fill="#20242e40" transform="translate(1176 406.584) rotate(0) scale(0.047999997)">
<use href="#path81" transform="translate(0 0)"/>
</g>
</g>
<g>
<g data-source-text="" fill="#20242e40" transform="translate(1248 406.584) rotate(0) scale(0.047999997)">
<use href="#path81" transform="translate(0 0)"/>
</g>
</g>
<g>
<g data-source-text="U+1E080" fill="#20242e" transform="translate(30 473.292) rotate(0) scale(0.023999998)">
<use href="#path17" transform="translate(0 0)"/>
<use href="#path18" transform="translate(500 0)"/>
<use href="#path2" transform="translate(1000 0)"/>
<use href="#path15" transform="translate(1500 0)"/>
<use href="#path1" transform="translate(2000 0)"/>
<use href="#path9" transform="translate(2500 0)"/>
<use href="#path1" transform="translate(3000 0)"/>
</g>
</g>
<g>
<g data-source-text="" fill="#20242e40" transform="translate(168 478.584) rotate(0) scale(0.047999997)">
<use href="#path81" transform="translate(0 0)"/>
</g>
</g>
<g>
<g data-source-text="" fill="#20242e40" transform="translate(240 478.584) rotate(0) scale(0.047999997)">
<use href="#path81" transform="translate(0 0)"/>
</g>
</g>
<g>
<g data-source-text="" fill="#20242e40" transform="translate(312 478.584) rotate(0) scale(0.047999997)">
<use href="#path81" transform="translate(0 0)"/>
</g>
</g>
<g>
<g data-source-text="" fill="#20242e40" transform="translate(384 478.584) rotate(0) scale(0.047999997)">
<use href="#path81" transform="translate(0 0)"/>
</g>
</g>
<g>
<g data-source-text="" fill="#20242e40" transform="translate(456 478.584) rotate(0) scale(0.047999997)">
<use href="#path81" transform="translate(0 0)"/>
</g>
</g>
<g>
<g data-source-text="" fill="#20242e40" transform="translate(528 478.584) rotate(0) scale(0.047999997)">
<use href="#path81" transform="translate(0 0)"/>
</g>
</g>
<g>
<g data-source-text="" fill="#20242e40" transform="translate(600 478.584) rotate(0) scale(0.047999997)">
<use href="#path81" transform="translate(0 0)"/>
</g>
</g>
<g>
<g data-source-text="" fill="#20242e40" transform="translate(672 478.584) rotate(0) scale(0.047999997)">
<use href="#path81" transform="translate(0 0)"/>
</g>
</g>
<g>
<g data-source-text="" fill="#20242e40" transform="translate(744 478.584) rotate(0) scale(0.047999997)">
<use href="#path81" transform="translate(0 0)"/>
</g>
</g>
<g>
<g data-source-text="" fill="#20242e40" transform="translate(816 478.584) rotate(0) scale(0.047999997)">
<use href="#path81" transform="translate(0 0)"/>
</g>
</g>
<g>
<g data-source-text="" fill="#20242e40" transform="translate(888 478.584) rotate(0) scale(0.047999997)">
<use href="#path81" transform="translate(0 0)"/>
</g>
</g>
<g>
<g data-source-text="" fill="#20242e40" transform="translate(960 478.584) rotate(0) scale(0.047999997)">
<use href="#path81" transform="translate(0 0)"/>
</g>
</g>
<g>
<g data-source-text="" fill="#20242e40" transform="translate(1032 478.584) rotate(0) scale(0.047999997)">
<use href="#path81" transform="translate(0 0)"/>
</g>
</g>
<g>
<g data-source-text="" fill="#20242e40" transform="translate(1104 478.584) rotate(0) scale(0.047999997)">
<use href="#path81" transform="translate(0 0)"/>
</g>
</g>
<g>
<g data-source-text="" fill="#20242e40" transform="translate(1176 478.584) rotate(0) scale(0.047999997)">
<use href="#path81" transform="translate(0 0)"/>
</g>
</g>
<g>
<g data-source-text="" fill="#048fbf" transform="translate(1248 478.584) rotate(0) scale(0.047999997)">
<use href="#path82" transform="translate(0 0)"/>
</g>
</g>
<g>
<g data-source-text="" fill="#20242e" transform="translate(1248 478.584) rotate(0) scale(0.047999997)">
<use href="#path81" transform="translate(0 0)"/>
</g>
<g data-source-text="" fill="#20242e" transform="translate(1272 478.584) rotate(0) scale(0.047999997)">
<use href="#path83" transform="translate(0 0)"/>
</g>
</g>
</svg>