<?xml version="1.0" encoding="UTF-8" standalone="no"?>
<svg height="504" viewBox="0 0 1296 504" width="1296" xmlns="http://www.w3.org/2000/svg">
<defs>
<path d="M 250 8 Q 223 8 196 3 Q 169 -2 145 -15 Q 121 -28 102.5 -48.5 Q 84 -69 72.5 -94 Q 61 -119 56.5 -146 Q 52 -173 52 -200 L 52 -535 Q 52 -562 56.5 -589 Q 61 -616 72.5 -641 Q 84 -666 102.5 -686.5 Q 121 -707 145 -720 Q 169 -733 196 -738 Q 223 -743 250 -743 Q 277 -743 304 -738 Q 331 -733 355 -720 Q 379 -707 397.5 -686.5 Q 416 -666 427.5 -641 Q 439 -616 443.5 -589 Q 448 -562 448 -535 L 448 -200 Q 448 -173 443.5 -146 Q 439 -119 427.5 -94 Q 416 -69 397.5 -48.5 Q 379 -28 355 -15 Q 331 -2 304 3 Q 277 8 250 8 Z M 152 -338 L 348 -493 L 348 -535 Q 348 -557 343 -579 Q 338 -601 325.5 -618.5 Q 313 -636 292.5 -645.5 Q 272 -655 250 -655 Q 228 -655 207.5 -645.5 Q 187 -636 174.5 -618.5 Q 162 -601 157 -579 Q 152 -557 152 -535 Z M 250 -80 Q 272 -80 292.5 -89.5 Q 313 -99 325.5 -116.5 Q 338 -134 343 -156 Q 348 -178 348 -200 L 348 -397 L 152 -242 L 152 -200 Q 152 -178 157 -156 Q 162 -134 174.5 -116.5 Q 187 -99 207.5 -89.5 Q 228 -80 250 -80 Z " id="path1"/>
<path d="M 230 0 L 230 -632 L 110 -528 L 55 -584 L 230 -735 L 330 -735 L 330 0 Z " id="path2"/>
<path d="M 60 0 L 60 -1 Q 60 -27 61 -54 Q 62 -81 65.5 -107 Q 69 -133 77 -158.5 Q 85 -184 96.5 -208 Q 108 -232 123 -253.5 Q 138 -275 156 -294.5 Q 174 -314 194 -331 Q 214 -348 235.5 -364 Q 257 -380 277.5 -397 Q 298 -414 313 -435.5 Q 328 -457 336 -483 Q 344 -509 344 -535 Q 344 -557 339.5 -578 Q 335 -599 323.5 -617 Q 312 -635 292 -645 Q 272 -655 251 -655 Q 231 -655 212.5 -647.5 Q 194 -640 181.5 -625 Q 169 -610 163.5 -591 Q 158 -572 158 -552 L 158 -548 L 58 -548 L 58 -555 Q 58 -581 63.5 -606 Q 69 -631 81 -653 Q 93 -675 111.5 -693 Q 130 -711 152.5 -722.5 Q 175 -734 200.5 -738.5 Q 226 -743 251 -743 Q 278 -743 304.5 -737.5 Q 331 -732 354.5 -719 Q 378 -706 396 -685.5 Q 414 -665 425 -640.5 Q 436 -616 440 -589 Q 444 -562 444 -535 Q 444 -501 435 -468 Q 426 -435 407.5 -406 Q 389 -377 364 -353.5 Q 339 -330 312.5 -308.5 Q 286 -287 261 -264 Q 236 -241 216 -213 Q 196 -185 183 -153.5 Q 170 -122 165 -88 L 440 -88 L 440 0 Z " id="path3"/>
<path d="M 253 8 Q 227 8 201 4 Q 175 -0 151 -11.5 Q 127 -23 107.5 -40.5 Q 88 -58 75.5 -81 Q 63 -104 56.5 -129.5 Q 50 -155 50 -181 L 50 -187 L 150 -187 L 150 -184 Q 150 -163 157 -143 Q 164 -123 178 -108 Q 192 -93 212 -86.5 Q 232 -80 253 -80 Q 275 -80 296 -88.5 Q 317 -97 330.5 -114.5 Q 344 -132 350 -154 Q 356 -176 356 -198 Q 356 -217 352 -235.5 Q 348 -254 339 -271 Q 330 -288 316.5 -301 Q 303 -314 286 -322 Q 269 -330 250 -332 Q 231 -334 212 -334 L 212 -422 Q 229 -422 246 -424 Q 263 -426 278.5 -433 Q 294 -440 306 -452.5 Q 318 -465 325.5 -480.5 Q 333 -496 336.5 -513 Q 340 -530 340 -547 Q 340 -566 335.5 -585.5 Q 331 -605 320 -621.5 Q 309 -638 291 -646.5 Q 273 -655 253 -655 Q 234 -655 216 -647 Q 198 -639 187 -624 Q 176 -609 171 -590 Q 166 -571 166 -553 L 166 -548 L 66 -548 L 66 -556 Q 66 -581 71.5 -605.5 Q 77 -630 88 -652 Q 99 -674 116.5 -692.5 Q 134 -711 156.5 -722.5 Q 179 -734 203.5 -738.5 Q 228 -743 253 -743 Q 278 -743 303.5 -738 Q 329 -733 351 -721 Q 373 -709 390.5 -690 Q 408 -671 419 -648 Q 430 -625 435 -600 Q 440 -575 440 -550 Q 440 -524 434 -498.5 Q 428 -473 416 -450.5 Q 404 -428 385 -409.5 Q 366 -391 343 -379 Q 370 -368 391.5 -348.5 Q 413 -329 427.5 -304.5 Q 442 -280 449 -252 Q 456 -224 456 -196 Q 456 -168 450 -141.5 Q 444 -115 432 -91 Q 420 -67 401 -47 Q 382 -27 358 -14.5 Q 334 -2 307 3 Q 280 8 253 8 Z " id="path4"/>
<path d="M 282 0 L 282 -188 L 52 -188 L 52 -275 L 276 -735 L 377 -735 L 152 -275 L 282 -275 L 282 -435 L 383 -435 L 383 -275 L 440 -275 L 440 -188 L 383 -188 L 383 0 Z " id="path5"/>
<path d="M 252 8 Q 227 8 202.5 3.5 Q 178 -1 155.5 -12 Q 133 -23 114.5 -41 Q 96 -59 84 -80.5 Q 72 -102 65.5 -126.5 Q 59 -151 58 -176 L 159 -176 Q 160 -158 166.5 -139.5 Q 173 -121 185.5 -107 Q 198 -93 216 -86.5 Q 234 -80 252 -80 Q 269 -80 285 -87 Q 301 -94 312.5 -107 Q 324 -120 330.5 -135.5 Q 337 -151 341 -167.5 Q 345 -184 346.5 -201 Q 348 -218 348 -235 Q 348 -252 346.5 -269 Q 345 -286 341.5 -302.5 Q 338 -319 331.5 -334.5 Q 325 -350 314.5 -363 Q 304 -376 288 -383.5 Q 272 -391 256 -391 Q 240 -391 224 -387 Q 208 -383 195.5 -373.5 Q 183 -364 176 -349.5 Q 169 -335 168 -319 L 68 -319 L 68 -735 L 421 -735 L 421 -647 L 168 -647 L 168 -464 Q 189 -472 211 -475 Q 233 -478 256 -478 Q 285 -478 313.5 -470.5 Q 342 -463 365.5 -445.5 Q 389 -428 405.5 -403 Q 422 -378 431.5 -350.5 Q 441 -323 444.5 -294 Q 448 -265 448 -235 Q 448 -206 444.5 -176.5 Q 441 -147 431 -119 Q 421 -91 404.5 -66.5 Q 388 -42 364 -24.5 Q 340 -7 311 0.5 Q 282 8 252 8 Z " id="path6"/>
<path d="M 250 8 Q 221 8 192.5 1.5 Q 164 -5 140 -21 Q 116 -37 98.5 -60.5 Q 81 -84 70.5 -111 Q 60 -138 56 -166.5 Q 52 -195 52 -224 Q 52 -268 59.5 -311 Q 67 -354 81 -395.5 Q 95 -437 113 -477 Q 131 -517 150 -556 L 238 -735 L 347 -735 L 240 -517 Q 228 -492 216 -467 Q 204 -442 194 -416 Q 212 -436 238.5 -446 Q 265 -456 292 -456 Q 318 -456 343.5 -447 Q 369 -438 387.5 -419.5 Q 406 -401 418 -377 Q 430 -353 436.5 -328 Q 443 -303 445.5 -276.5 Q 448 -250 448 -224 Q 448 -195 444 -166.5 Q 440 -138 429.5 -111 Q 419 -84 401.5 -60.5 Q 384 -37 360 -21 Q 336 -5 307.5 1.5 Q 279 8 250 8 Z M 250 -80 Q 266 -80 282 -85.5 Q 298 -91 309.5 -102.5 Q 321 -114 328.5 -129 Q 336 -144 340.5 -159.5 Q 345 -175 346.5 -191.5 Q 348 -208 348 -224 Q 348 -240 346.5 -256.5 Q 345 -273 340.5 -289 Q 336 -305 328.5 -319.5 Q 321 -334 309.5 -345.5 Q 298 -357 282 -362.5 Q 266 -368 250 -368 Q 235 -368 221 -363.5 Q 207 -359 195.5 -349.5 Q 184 -340 176 -327.5 Q 168 -315 163.5 -301 Q 159 -287 156.5 -272.5 Q 154 -258 153 -243 Q 153 -238 152.5 -233.5 Q 152 -229 152 -224 Q 152 -208 153.5 -191.5 Q 155 -175 159.5 -159.5 Q 164 -144 171.5 -129 Q 179 -114 190.5 -102.5 Q 202 -91 218 -85.5 Q 234 -80 250 -80 Z " id="path7"/>
<path d="M 138 0 L 336 -647 L 60 -647 L 60 -735 L 440 -735 L 440 -647 L 242 0 Z " id="path8"/>
<path d="M 250 8 Q 225 8 200 4 Q 175 -0 152 -10 Q 129 -20 109.5 -37 Q 90 -54 77.5 -75.5 Q 65 -97 58.5 -121.5 Q 52 -146 52 -172 Q 52 -203 61.5 -232.5 Q 71 -262 88 -288.5 Q 105 -315 127 -336.5 Q 149 -358 174 -378 Q 152 -396 132.5 -417 Q 113 -438 98.5 -462.5 Q 84 -487 76 -514.5 Q 68 -542 68 -570 Q 68 -594 73.5 -617.5 Q 79 -641 90.5 -661.5 Q 102 -682 119.5 -698.5 Q 137 -715 158 -725 Q 179 -735 202.5 -739 Q 226 -743 250 -743 Q 274 -743 297.5 -739 Q 321 -735 342 -725 Q 363 -715 380.5 -698.5 Q 398 -682 409.5 -661.5 Q 421 -641 426.5 -617.5 Q 432 -594 432 -570 Q 432 -542 424 -514.5 Q 416 -487 401.5 -462.5 Q 387 -438 367.5 -417 Q 348 -396 326 -378 Q 351 -358 373 -336.5 Q 395 -315 412 -288.5 Q 429 -262 438.5 -232.5 Q 448 -203 448 -172 Q 448 -146 441.5 -121.5 Q 435 -97 422.5 -75.5 Q 410 -54 390.5 -37 Q 371 -20 348 -10 Q 325 -0 300 4 Q 275 8 250 8 Z M 250 -434 Q 266 -447 280.5 -461.5 Q 295 -476 306.5 -493 Q 318 -510 325 -529.5 Q 332 -549 332 -569 Q 332 -586 327 -602.5 Q 322 -619 310.5 -631.5 Q 299 -644 283 -649.5 Q 267 -655 250 -655 Q 233 -655 217 -649.5 Q 201 -644 189.5 -631.5 Q 178 -619 173 -602.5 Q 168 -586 168 -569 Q 168 -549 175 -529.5 Q 182 -510 193.5 -493 Q 205 -476 219.5 -461.5 Q 234 -447 250 -434 Z M 250 -80 Q 269 -80 288 -85.5 Q 307 -91 320.5 -104 Q 334 -117 341 -135.5 Q 348 -154 348 -173 Q 348 -196 339.5 -217.5 Q 331 -239 317 -257.5 Q 303 -276 285.5 -291 Q 268 -306 250 -320 Q 232 -306 214.5 -291 Q 197 -276 183 -257.5 Q 169 -239 160.5 -217.5 Q 152 -196 152 -173 Q 152 -154 159 -135.5 Q 166 -117 179.5 -104 Q 193 -91 212 -85.5 Q 231 -80 250 -80 Z " id="path9"/>
<path d="M 262 0 L 153 0 L 260 -218 Q 272 -243 284 -268 Q 296 -293 306 -319 Q 288 -299 261.5 -289 Q 235 -279 208 -279 Q 182 -279 156.5 -288 Q 131 -297 112.5 -315.5 Q 94 -334 82 -358 Q 70 -382 63.5 -407 Q 57 -432 54.5 -458.5 Q 52 -485 52 -511 Q 52 -540 56 -568.5 Q 60 -597 70.5 -624 Q 81 -651 98.5 -674.5 Q 116 -698 140 -714 Q 164 -730 192.5 -736.5 Q 221 -743 250 -743 Q 279 -743 307.5 -736.5 Q 336 -730 360 -714 Q 384 -698 401.5 -674.5 Q 419 -651 429.5 -624 Q 440 -597 444 -568.5 Q 448 -540 448 -511 Q 448 -467 440.5 -424 Q 433 -381 419 -339.5 Q 405 -298 387 -258 Q 369 -218 350 -179 Z M 250 -367 Q 265 -367 279 -371.5 Q 293 -376 304.5 -385.5 Q 316 -395 324 -407.5 Q 332 -420 336.5 -434 Q 341 -448 343.5 -462.5 Q 346 -477 347 -492 Q 347 -497 347.5 -501.5 Q 348 -506 348 -511 Q 348 -527 346.5 -543.5 Q 345 -560 340.5 -575.5 Q 336 -591 328.5 -606 Q 321 -621 309.5 -632.5 Q 298 -644 282 -649.5 Q 266 -655 250 -655 Q 234 -655 218 -649.5 Q 202 -644 190.5 -632.5 Q 179 -621 171.5 -606 Q 164 -591 159.5 -575.5 Q 155 -560 153.5 -543.5 Q 152 -527 152 -511 Q 152 -495 153.5 -478.5 Q 155 -462 159.5 -446 Q 164 -430 171.5 -415.5 Q 179 -401 190.5 -389.5 Q 202 -378 218 -372.5 Q 234 -367 250 -367 Z " id="path10"/>
<path d="M 39 0 L 53 -70 L 192 -735 L 308 -735 L 461 0 L 359 0 L 326 -172 L 174 -172 L 141 0 Z M 310 -260 L 267 -490 Q 263 -513 258.5 -536 Q 254 -559 250 -582 Q 246 -559 241.5 -536 Q 237 -513 233 -490 L 190 -260 Z " id="path11"/>
<path d="M 60 0 L 60 -735 L 235 -735 Q 261 -735 287 -730.5 Q 313 -726 336.5 -714 Q 360 -702 378.5 -682.5 Q 397 -663 408.5 -639.5 Q 420 -616 424.5 -590 Q 429 -564 429 -538 Q 429 -515 425.5 -492 Q 422 -469 411.5 -448.5 Q 401 -428 384.5 -411 Q 368 -394 348 -383 Q 373 -373 394.5 -355.5 Q 416 -338 430.5 -314.5 Q 445 -291 450.5 -264 Q 456 -237 456 -210 Q 456 -181 450.5 -152.5 Q 445 -124 431 -98.5 Q 417 -73 395.5 -53.5 Q 374 -34 347.5 -21.5 Q 321 -9 292.5 -4.5 Q 264 -0 235 0 Z M 160 -424 L 235 -424 Q 256 -424 275.5 -432.5 Q 295 -441 307.5 -457.5 Q 320 -474 324.5 -494.5 Q 329 -515 329 -536 Q 329 -557 324.5 -577.5 Q 320 -598 307.5 -614.5 Q 295 -631 275.5 -639 Q 256 -647 235 -647 L 160 -647 Z M 160 -88 L 235 -88 Q 251 -88 267.5 -91 Q 284 -94 298.5 -101.5 Q 313 -109 324.5 -121 Q 336 -133 343 -148 Q 350 -163 353 -179 Q 356 -195 356 -212 Q 356 -228 353 -244.5 Q 350 -261 343 -276 Q 336 -291 324.5 -303 Q 313 -315 298.5 -322.5 Q 284 -330 267.5 -333 Q 251 -336 235 -336 L 160 -336 Z " id="path12"/>
<path d="M 247 8 Q 220 8 193 3 Q 166 -2 142.5 -15.5 Q 119 -29 101 -49.5 Q 83 -70 71.5 -94.5 Q 60 -119 56 -146 Q 52 -173 52 -200 L 52 -535 Q 52 -562 56 -589 Q 60 -616 71.5 -640.5 Q 83 -665 101 -685.5 Q 119 -706 142.5 -719.5 Q 166 -733 193 -738 Q 220 -743 247 -743 Q 273 -743 298 -738.5 Q 323 -734 346 -723 Q 369 -712 387.5 -694 Q 406 -676 418 -653.5 Q 430 -631 436 -606 Q 442 -581 442 -555 L 442 -548 L 342 -548 L 342 -552 Q 342 -572 336 -591.5 Q 330 -611 317.5 -626 Q 305 -641 286 -648 Q 267 -655 247 -655 Q 225 -655 205 -645.5 Q 185 -636 173 -618 Q 161 -600 156.5 -578.5 Q 152 -557 152 -535 L 152 -200 Q 152 -178 156.5 -156.5 Q 161 -135 173 -117 Q 185 -99 205 -89.5 Q 225 -80 247 -80 Q 267 -80 286 -87 Q 305 -94 317.5 -109 Q 330 -124 336 -143.5 Q 342 -163 342 -183 L 342 -187 L 442 -187 L 442 -180 Q 442 -154 436 -129 Q 430 -104 418 -81.5 Q 406 -59 387.5 -41 Q 369 -23 346 -12 Q 323 -1 298 3.5 Q 273 8 247 8 Z " id="path13"/>
<path d="M 60 0 L 60 -735 L 220 -735 Q 250 -735 280.5 -730.5 Q 311 -726 339 -713.5 Q 367 -701 390.5 -680 Q 414 -659 429 -632.5 Q 444 -606 450 -575.5 Q 456 -545 456 -515 L 456 -220 Q 456 -190 450 -159.5 Q 444 -129 429 -102.5 Q 414 -76 390.5 -55 Q 367 -34 339 -21.5 Q 311 -9 280.5 -4.5 Q 250 -0 220 0 Z M 160 -88 L 220 -88 Q 238 -88 256 -91 Q 274 -94 290 -101.5 Q 306 -109 319 -122 Q 332 -135 340.5 -151 Q 349 -167 352.5 -184.5 Q 356 -202 356 -220 L 356 -515 Q 356 -533 352.5 -550.5 Q 349 -568 340.5 -584 Q 332 -600 319 -613 Q 306 -626 290 -633.5 Q 274 -641 256 -644 Q 238 -647 220 -647 L 160 -647 Z " id="path14"/>
<path d="M 68 0 L 68 -735 L 440 -735 L 440 -647 L 168 -647 L 168 -426 L 383 -426 L 383 -338 L 168 -338 L 168 -88 L 440 -88 L 440 0 Z " id="path15"/>
<path d="M 90 0 L 90 -735 L 440 -735 L 440 -647 L 190 -647 L 190 -426 L 383 -426 L 383 -338 L 190 -338 L 190 0 Z " id="path16"/>
<path d="M 250 8 Q 223 8 196.5 2.5 Q 170 -3 147 -16.5 Q 124 -30 106.5 -50.5 Q 89 -71 78.5 -95.5 Q 68 -120 64 -146.5 Q 60 -173 60 -200 L 60 -735 L 160 -735 L 160 -200 Q 160 -186 161.5 -172 Q 163 -158 167.5 -144.5 Q 172 -131 179.5 -118.5 Q 187 -106 197.5 -97 Q 208 -88 222 -84 Q 236 -80 250 -80 Q 264 -80 278 -84 Q 292 -88 302.5 -97 Q 313 -106 320.5 -118.5 Q 328 -131 332.5 -144.5 Q 337 -158 338.5 -172 Q 340 -186 340 -200 L 340 -735 L 440 -735 L 440 -200 Q 440 -173 436 -146.5 Q 432 -120 421.5 -95.5 Q 411 -71 393.5 -50.5 Q 376 -30 353 -16.5 Q 330 -3 303.5 2.5 Q 277 8 250 8 Z " id="path17"/>
<path d="M 296 -142 L 204 -142 L 204 -300 L 60 -300 L 60 -380 L 204 -380 L 204 -538 L 296 -538 L 296 -380 L 440 -380 L 440 -300 L 296 -300 Z " id="path18"/>
<path d="M 218 -317 Q 196 -317 174 -323 Q 152 -329 135.5 -344 Q 119 -359 111 -380.5 Q 103 -402 103 -424 Q 103 -443 108.5 -461.5 Q 114 -480 126 -494 Q 138 -508 155 -517.5 Q 172 -527 190 -532.5 Q 208 -538 226.5 -540 Q 245 -542 264 -542 L 323 -542 L 323 -574 Q 323 -587 317 -599 Q 311 -611 300 -618.5 Q 289 -626 275.5 -628.5 Q 262 -631 249 -631 Q 237 -631 225 -629 Q 213 -627 202.5 -622.5 Q 192 -618 184 -608 Q 176 -598 176 -586 L 107 -586 L 107 -588 Q 107 -613 120 -635 Q 133 -657 154 -670 Q 175 -683 199.5 -688 Q 224 -693 249 -693 Q 267 -693 284.5 -690.5 Q 302 -688 318.5 -682 Q 335 -676 349 -665.5 Q 363 -655 373 -640.5 Q 383 -626 387 -608.5 Q 391 -591 391 -574 L 391 -323 L 323 -323 L 323 -382 Q 316 -367 305.5 -354 Q 295 -341 281 -332.5 Q 267 -324 251 -320.5 Q 235 -317 218 -317 Z M 247 -379 Q 262 -379 276 -383 Q 290 -387 301.5 -396.5 Q 313 -406 318 -420 Q 323 -434 323 -449 L 323 -480 L 264 -480 Q 254 -480 244.5 -479.5 Q 235 -479 225.5 -477.5 Q 216 -476 206.5 -472.5 Q 197 -469 189 -463.5 Q 181 -458 176.5 -449 Q 172 -440 172 -431 Q 172 -418 179 -407 Q 186 -396 197.5 -389.5 Q 209 -383 221.5 -381 Q 234 -379 247 -379 Z " id="path19"/>
<path d="M 250 -317 Q 231 -317 211.5 -320.5 Q 192 -324 175 -332 Q 158 -340 143.5 -353 Q 129 -366 119.5 -383 Q 110 -400 106.5 -419 Q 103 -438 103 -457 L 103 -600 Q 103 -626 104.5 -653 Q 106 -680 114.5 -705.5 Q 123 -731 139.5 -753 Q 156 -775 179.5 -788 Q 203 -801 229.5 -806 Q 256 -811 282.5 -814.5 Q 309 -818 335.5 -823 Q 362 -828 387 -838 L 387 -775 Q 370 -767 352.5 -762.5 Q 335 -758 316.5 -755.5 Q 298 -753 280 -752 Q 262 -751 244 -746 Q 226 -741 210.5 -730.5 Q 195 -720 185.5 -704.5 Q 176 -689 172.5 -670.5 Q 169 -652 169 -634 Q 169 -626 169.5 -618.5 Q 170 -611 170 -603 Q 176 -619 186.5 -634 Q 197 -649 211.5 -659 Q 226 -669 243.5 -673 Q 261 -677 279 -677 Q 296 -677 313 -673 Q 330 -669 344.5 -659.5 Q 359 -650 369.5 -636 Q 380 -622 386 -605.5 Q 392 -589 394.5 -572 Q 397 -555 397 -537 L 397 -457 Q 397 -438 393.5 -419 Q 390 -400 380.5 -383 Q 371 -366 356.5 -353 Q 342 -340 325 -332 Q 308 -324 288.5 -320.5 Q 269 -317 250 -317 Z M 250 -380 Q 266 -380 281 -384.5 Q 296 -389 307 -400 Q 318 -411 323 -426 Q 328 -441 328 -457 L 328 -537 Q 328 -553 323 -568 Q 318 -583 307 -594 Q 296 -605 281 -610 Q 266 -615 250 -615 Q 234 -615 219 -610 Q 204 -605 193 -594 Q 182 -583 177 -568 Q 172 -553 172 -537 L 172 -457 Q 172 -441 177 -426 Q 182 -411 193 -400 Q 204 -389 219 -384.5 Q 234 -380 250 -380 Z " id="path20"/>
<path d="M 109 -323 L 109 -687 L 266 -687 Q 288 -687 309.5 -682 Q 331 -677 348.5 -663 Q 366 -649 374.5 -628 Q 383 -607 383 -585 Q 383 -575 381 -564 Q 379 -553 374 -543.5 Q 369 -534 361.5 -526.5 Q 354 -519 345 -514 Q 357 -508 368.5 -500.5 Q 380 -493 388 -482 Q 396 -471 399.5 -457.5 Q 403 -444 403 -431 Q 403 -406 391.5 -383.5 Q 380 -361 359.5 -347 Q 339 -333 314.5 -328 Q 290 -323 266 -323 Z M 177 -542 L 266 -542 Q 275 -542 284 -544 Q 293 -546 300 -552 Q 307 -558 310.5 -566.5 Q 314 -575 314 -584 Q 314 -593 310.5 -601.5 Q 307 -610 300 -615.5 Q 293 -621 284 -623 Q 275 -625 266 -625 L 177 -625 Z M 177 -385 L 266 -385 Q 277 -385 289 -387 Q 301 -389 311 -394.5 Q 321 -400 327.5 -410 Q 334 -420 334 -432 Q 334 -444 327.5 -454.5 Q 321 -465 311 -470.5 Q 301 -476 289.5 -478 Q 278 -480 266 -480 L 177 -480 Z " id="path21"/>
<path d="M 125 -323 L 125 -687 L 397 -687 L 397 -625 L 195 -625 L 195 -323 Z " id="path22"/>
<path d="M 157 -216 L 87 -216 L 87 -385 L 109 -385 Q 118 -404 124.5 -424.5 Q 131 -445 134.5 -466 Q 138 -487 139 -508 Q 140 -529 140 -551 L 140 -687 L 379 -687 L 379 -385 L 413 -385 L 413 -216 L 343 -216 L 343 -323 L 157 -323 Z M 315 -385 L 315 -625 L 204 -625 L 204 -551 Q 204 -508 199.5 -466 Q 195 -424 179 -385 Z " id="path23"/>
<path d="M 250 -317 Q 230 -317 210.5 -320.5 Q 191 -324 173.5 -333 Q 156 -342 142 -355.5 Q 128 -369 119 -386.5 Q 110 -404 106.5 -423.5 Q 103 -443 103 -463 L 103 -547 Q 103 -567 106.5 -586.5 Q 110 -606 119 -623.5 Q 128 -641 142 -654.5 Q 156 -668 173.5 -677 Q 191 -686 210.5 -689.5 Q 230 -693 250 -693 Q 270 -693 289.5 -689.5 Q 309 -686 326.5 -677 Q 344 -668 358 -654.5 Q 372 -641 381 -623.5 Q 390 -606 393.5 -586.5 Q 397 -567 397 -547 L 397 -474 L 172 -474 L 172 -463 Q 172 -447 176 -431 Q 180 -415 191 -402.5 Q 202 -390 218 -384.5 Q 234 -379 250 -379 Q 262 -379 274.5 -381 Q 287 -383 298.5 -388 Q 310 -393 318.5 -402.5 Q 327 -412 327 -425 L 396 -425 Q 395 -399 382 -376.5 Q 369 -354 347.5 -340.5 Q 326 -327 300.5 -322 Q 275 -317 250 -317 Z M 172 -536 L 328 -536 L 328 -547 Q 328 -563 324 -579 Q 320 -595 309 -607.5 Q 298 -620 282 -625.5 Q 266 -631 250 -631 Q 234 -631 218 -625.5 Q 202 -620 191 -607.5 Q 180 -595 176 -579 Q 172 -563 172 -547 Z " id="path24"/>
<path d="M 412 -323 L 349 -323 L 300 -478 L 280 -478 L 280 -323 L 220 -323 L 220 -478 L 200 -478 L 151 -323 L 88 -323 L 145 -505 L 88 -687 L 151 -687 L 200 -532 L 220 -532 L 220 -687 L 280 -687 L 280 -532 L 300 -532 L 349 -687 L 412 -687 L 355 -505 Z " id="path25"/>
<path d="M 252 -317 Q 235 -317 218.5 -318.5 Q 202 -320 185.5 -324.5 Q 169 -329 154 -336.5 Q 139 -344 127 -356 Q 115 -368 108.5 -383.5 Q 102 -399 102 -416 L 102 -418 L 170 -418 Q 170 -405 180.5 -397 Q 191 -389 203 -385.5 Q 215 -382 227.5 -380.5 Q 240 -379 252 -379 Q 266 -379 279.5 -381 Q 293 -383 305 -389 Q 317 -395 325.5 -406.5 Q 334 -418 334 -431 Q 334 -445 325 -456 Q 316 -467 303.5 -472.5 Q 291 -478 277.5 -479.5 Q 264 -481 250 -481 L 208 -481 L 208 -543 L 250 -543 Q 262 -543 273.5 -544.5 Q 285 -546 296 -550.5 Q 307 -555 315 -564.5 Q 323 -574 323 -586 Q 323 -598 315.5 -607.5 Q 308 -617 297.5 -622 Q 287 -627 275.5 -629 Q 264 -631 252 -631 Q 241 -631 230 -629.5 Q 219 -628 208.5 -624.5 Q 198 -621 189.5 -612.5 Q 181 -604 181 -593 L 113 -593 L 113 -596 Q 113 -611 119 -626.5 Q 125 -642 135.5 -653.5 Q 146 -665 160 -672.5 Q 174 -680 189.5 -684.5 Q 205 -689 220.5 -691 Q 236 -693 252 -693 Q 277 -693 301.5 -688 Q 326 -683 346.5 -670 Q 367 -657 379 -634.5 Q 391 -612 391 -587 Q 391 -575 388.5 -563.5 Q 386 -552 379 -542 Q 372 -532 362.5 -525 Q 353 -518 342 -513 Q 355 -508 366.5 -500.5 Q 378 -493 386.5 -482 Q 395 -471 399 -457.5 Q 403 -444 403 -430 Q 403 -404 389.5 -379.5 Q 376 -355 353.5 -341 Q 331 -327 304.5 -322 Q 278 -317 252 -317 Z " id="path26"/>
<path d="M 109 -323 L 109 -687 L 178 -687 L 178 -541 Q 178 -506 174.5 -471.5 Q 171 -437 168 -402 L 310 -687 L 391 -687 L 391 -323 L 322 -323 L 322 -469 Q 322 -504 325.5 -538.5 Q 329 -573 332 -608 L 190 -323 Z " id="path27"/>
<path d="M 120 -323 L 120 -687 L 189 -687 L 189 -536 L 230 -536 L 322 -687 L 401 -687 L 286 -505 L 401 -323 L 322 -323 L 230 -474 L 189 -474 L 189 -323 Z " id="path28"/>
<path d="M 83 -323 L 83 -385 Q 95 -385 105 -392 Q 115 -399 119 -410 Q 123 -421 125 -432.5 Q 127 -444 128 -455.5 Q 129 -467 129.5 -478.5 Q 130 -490 130 -502 L 130 -687 L 391 -687 L 391 -323 L 322 -323 L 322 -625 L 199 -625 L 199 -504 Q 199 -488 199 -472.5 Q 199 -457 197.5 -441.5 Q 196 -426 192.5 -411 Q 189 -396 183 -381.5 Q 177 -367 167.5 -354.5 Q 158 -342 144 -335 Q 130 -328 114.5 -325.5 Q 99 -323 83 -323 Z " id="path29"/>
<path d="M 276 -323 L 224 -323 L 162 -617 Q 163 -562 166.5 -506.5 Q 170 -451 170 -396 L 170 -323 L 105 -323 L 105 -687 L 199 -687 L 250 -447 L 301 -687 L 395 -687 L 395 -323 L 330 -323 L 330 -396 Q 330 -451 333.5 -506.5 Q 337 -562 338 -617 Z " id="path30"/>
<path d="M 250 -317 Q 230 -317 210.5 -320.5 Q 191 -324 173.5 -333 Q 156 -342 142 -355.5 Q 128 -369 119 -386.5 Q 110 -404 106.5 -423.5 Q 103 -443 103 -463 L 103 -547 Q 103 -567 106.5 -586.5 Q 110 -606 119 -623.5 Q 128 -641 142 -654.5 Q 156 -668 173.5 -677 Q 191 -686 210.5 -689.5 Q 230 -693 250 -693 Q 270 -693 289.5 -689.5 Q 309 -686 326.5 -677 Q 344 -668 358 -654.5 Q 372 -641 381 -623.5 Q 390 -606 393.5 -586.5 Q 397 -567 397 -547 L 397 -463 Q 397 -443 393.5 -423.5 Q 390 -404 381 -386.5 Q 372 -369 358 -355.5 Q 344 -342 326.5 -333 Q 309 -324 289.5 -320.5 Q 270 -317 250 -317 Z M 250 -380 Q 266 -380 282 -385.5 Q 298 -391 308.5 -403 Q 319 -415 323.5 -431 Q 328 -447 328 -463 L 328 -547 Q 328 -563 323.5 -579 Q 319 -595 308.5 -607 Q 298 -619 282 -624.5 Q 266 -630 250 -630 Q 234 -630 218 -624.5 Q 202 -619 191.5 -607 Q 181 -595 176.5 -579 Q 172 -563 172 -547 L 172 -463 Q 172 -447 176.5 -431 Q 181 -415 191.5 -403 Q 202 -391 218 -385.5 Q 234 -380 250 -380 Z " id="path31"/>
<path d="M 109 -323 L 109 -687 L 391 -687 L 391 -323 L 322 -323 L 322 -625 L 178 -625 L 178 -323 Z " id="path32"/>
<path d="M 178 -172 L 109 -172 L 109 -687 L 178 -687 L 178 -621 Q 184 -637 194 -651 Q 204 -665 217.5 -674.5 Q 231 -684 248 -688.5 Q 265 -693 282 -693 Q 299 -693 316.5 -688 Q 334 -683 348 -672.5 Q 362 -662 371.5 -647.5 Q 381 -633 387 -616.5 Q 393 -600 395 -582.5 Q 397 -565 397 -547 L 397 -463 Q 397 -445 395 -427.5 Q 393 -410 387 -393.5 Q 381 -377 371.5 -362.5 Q 362 -348 348 -337.5 Q 334 -327 316.5 -322 Q 299 -317 282 -317 Q 265 -317 248 -321.5 Q 231 -326 217.5 -335.5 Q 204 -345 194 -359 Q 184 -373 178 -389 Z M 253 -380 Q 269 -380 284 -385.5 Q 299 -391 309.5 -403.5 Q 320 -416 324 -431.5 Q 328 -447 328 -463 L 328 -547 Q 328 -563 324 -578.5 Q 320 -594 309.5 -606.5 Q 299 -619 284 -624.5 Q 269 -630 253 -630 Q 237 -630 221.5 -624.5 Q 206 -619 196 -606.5 Q 186 -594 182 -578.5 Q 178 -563 178 -547 L 178 -463 Q 178 -447 182 -431.5 Q 186 -416 196 -403.5 Q 206 -391 221.5 -385.5 Q 237 -380 253 -380 Z " id="path33"/>
<path d="M 248 -317 Q 228 -317 209 -320.5 Q 190 -324 172.5 -333 Q 155 -342 141 -356 Q 127 -370 118.5 -387.5 Q 110 -405 106.5 -424.5 Q 103 -444 103 -463 L 103 -547 Q 103 -566 106.5 -585.5 Q 110 -605 118.5 -622.5 Q 127 -640 141 -654 Q 155 -668 172.5 -677 Q 190 -686 209 -689.5 Q 228 -693 248 -693 Q 275 -693 302 -686 Q 329 -679 350 -661.5 Q 371 -644 382 -618 Q 393 -592 393 -565 L 393 -561 L 324 -561 L 324 -563 Q 324 -577 318 -590.5 Q 312 -604 301 -613.5 Q 290 -623 276 -626.5 Q 262 -630 248 -630 Q 232 -630 216.5 -624.5 Q 201 -619 190.5 -607 Q 180 -595 176 -579 Q 172 -563 172 -547 L 172 -463 Q 172 -447 176 -431 Q 180 -415 190.5 -403 Q 201 -391 216.5 -385.5 Q 232 -380 248 -380 Q 262 -380 276 -383.5 Q 290 -387 301 -396.5 Q 312 -406 318 -419.5 Q 324 -433 324 -447 L 324 -449 L 393 -449 L 393 -445 Q 393 -418 382 -392 Q 371 -366 350 -348.5 Q 329 -331 302 -324 Q 275 -317 248 -317 Z " id="path34"/>
<path d="M 215 -323 L 215 -625 L 104 -625 L 104 -687 L 396 -687 L 396 -625 L 285 -625 L 285 -323 Z " id="path35"/>
<path d="M 173 -172 Q 180 -197 187 -221 Q 194 -245 202 -270 L 215 -314 L 102 -687 L 174 -687 L 251 -399 L 326 -687 L 398 -687 L 244 -172 Z " id="path36"/>
<path d="M 285 -172 L 215 -172 L 215 -317 L 214 -317 Q 197 -317 180 -321.5 Q 163 -326 149 -336 Q 135 -346 125 -360.5 Q 115 -375 109.5 -391.5 Q 104 -408 101.5 -425 Q 99 -442 99 -460 L 99 -551 Q 99 -568 101.5 -585 Q 104 -602 109.5 -618.5 Q 115 -635 125 -649.5 Q 135 -664 149 -674 Q 163 -684 180 -688.5 Q 197 -693 214 -693 L 215 -693 L 215 -838 L 285 -838 L 285 -693 L 286 -693 Q 303 -693 320 -688.5 Q 337 -684 351 -674 Q 365 -664 375 -649.5 Q 385 -635 390.5 -618.5 Q 396 -602 398.5 -585 Q 401 -568 401 -551 L 401 -460 Q 401 -442 398.5 -425 Q 396 -408 390.5 -391.5 Q 385 -375 375 -360.5 Q 365 -346 351 -336 Q 337 -326 320 -321.5 Q 303 -317 286 -317 L 285 -317 Z M 219 -374 L 219 -636 L 214 -636 Q 200 -636 188.5 -627 Q 177 -618 171.5 -605 Q 166 -592 164 -578 Q 162 -564 162 -551 L 162 -460 Q 162 -446 164 -432 Q 166 -418 171.5 -405 Q 177 -392 188.5 -383 Q 200 -374 214 -374 Z M 281 -374 L 286 -374 Q 300 -374 311.5 -383 Q 323 -392 328.5 -405 Q 334 -418 336 -432 Q 338 -446 338 -460 L 338 -551 Q 338 -564 336 -578 Q 334 -592 328.5 -605 Q 323 -618 311.5 -627 Q 300 -636 286 -636 L 281 -636 Z " id="path37"/>
<path d="M 99 -323 L 214 -505 L 99 -687 L 181 -687 L 250 -567 L 319 -687 L 401 -687 L 286 -505 L 401 -323 L 319 -323 L 250 -443 L 181 -323 Z " id="path38"/>
<path d="M 356 -216 L 356 -323 L 109 -323 L 109 -687 L 178 -687 L 178 -385 L 322 -385 L 322 -687 L 391 -687 L 391 -385 L 416 -385 L 416 -216 Z " id="path39"/>
<path d="M 322 -323 L 322 -442 Q 308 -437 293.5 -434.5 Q 279 -432 264 -432 Q 243 -432 222.5 -433.5 Q 202 -435 183 -442 Q 164 -449 148 -462.5 Q 132 -476 122.5 -494 Q 113 -512 111 -532.5 Q 109 -553 109 -574 L 109 -687 L 178 -687 L 178 -574 Q 178 -557 182.5 -540 Q 187 -523 199.5 -511.5 Q 212 -500 229.5 -497 Q 247 -494 264 -494 Q 279 -494 294.5 -499 Q 310 -504 322 -513 L 322 -687 L 391 -687 L 391 -323 Z " id="path40"/>
<path d="M 105 -323 L 105 -687 L 168 -687 L 168 -385 L 219 -385 L 219 -687 L 281 -687 L 281 -385 L 332 -385 L 332 -687 L 395 -687 L 395 -323 Z " id="path41"/>
<path d="M 332 -323 L 332 -687 L 395 -687 L 395 -323 Z M 105 -323 L 105 -687 L 168 -687 L 168 -554 L 200 -554 Q 222 -554 242.5 -546 Q 263 -538 276.5 -520.5 Q 290 -503 295 -481.5 Q 300 -460 300 -439 Q 300 -417 295 -395.5 Q 290 -374 276.5 -357 Q 263 -340 242.5 -331.5 Q 222 -323 200 -323 Z M 200 -380 Q 210 -380 218 -386 Q 226 -392 230 -400.5 Q 234 -409 235.5 -419 Q 237 -429 237 -439 Q 237 -448 235.5 -458 Q 234 -468 230 -477 Q 226 -486 218 -492 Q 210 -498 200 -498 L 168 -498 L 168 -380 Z " id="path42"/>
<path d="M 252 -317 Q 225 -317 198 -324 Q 171 -331 150 -348.5 Q 129 -366 118 -392 Q 107 -418 107 -445 L 107 -449 L 176 -449 L 176 -447 Q 176 -433 182 -419.5 Q 188 -406 199 -396.5 Q 210 -387 224 -383.5 Q 238 -380 252 -380 Q 268 -380 283.5 -385.5 Q 299 -391 309.5 -403 Q 320 -415 324 -431 Q 328 -447 328 -463 L 328 -474 L 208 -474 L 208 -536 L 328 -536 L 328 -547 Q 328 -563 324 -579 Q 320 -595 309.5 -607 Q 299 -619 283.5 -624.5 Q 268 -630 252 -630 Q 238 -630 224 -626.5 Q 210 -623 199 -613.5 Q 188 -604 182 -590.5 Q 176 -577 176 -563 L 176 -561 L 107 -561 L 107 -565 Q 107 -592 118 -618 Q 129 -644 150 -661.5 Q 171 -679 198 -686 Q 225 -693 252 -693 Q 272 -693 291 -689.5 Q 310 -686 327.5 -677 Q 345 -668 359 -654 Q 373 -640 381.5 -622.5 Q 390 -605 393.5 -585.5 Q 397 -566 397 -547 L 397 -463 Q 397 -444 393.5 -424.5 Q 390 -405 381.5 -387.5 Q 373 -370 359 -356 Q 345 -342 327.5 -333 Q 310 -324 291 -320.5 Q 272 -317 252 -317 Z " id="path43"/>
<path d="M 304 -317 Q 284 -317 264 -324 Q 244 -331 231 -346 Q 218 -361 212.5 -381 Q 207 -401 207 -421 L 207 -477 L 168 -477 L 168 -323 L 105 -323 L 105 -687 L 168 -687 L 168 -533 L 207 -533 L 207 -589 Q 207 -609 212.5 -629 Q 218 -649 231 -664 Q 244 -679 264 -686 Q 284 -693 304 -693 Q 324 -693 343.5 -686 Q 363 -679 376.5 -664 Q 390 -649 395.5 -629 Q 401 -609 401 -589 L 401 -421 Q 401 -401 395.5 -381 Q 390 -361 376.5 -346 Q 363 -331 343.5 -324 Q 324 -317 304 -317 Z M 304 -374 Q 312 -374 319.5 -378 Q 327 -382 331 -389 Q 335 -396 336.5 -404.5 Q 338 -413 338 -421 L 338 -589 Q 338 -597 336.5 -605.5 Q 335 -614 331 -621 Q 327 -628 319.5 -632 Q 312 -636 304 -636 Q 296 -636 288.5 -632 Q 281 -628 276.5 -621 Q 272 -614 271 -605.5 Q 270 -597 270 -589 L 270 -421 Q 270 -413 271 -404.5 Q 272 -396 276.5 -389 Q 281 -382 288.5 -378 Q 296 -374 304 -374 Z " id="path44"/>
<path d="M 380 -196 Q 372 -196 364 -198 Q 356 -200 349.5 -204.5 Q 343 -209 339.5 -216.5 Q 336 -224 335 -232 L 367 -232 Q 367 -228 371.5 -226.5 Q 376 -225 380 -225 Q 387 -225 390.5 -231.5 Q 394 -238 394 -245 Q 394 -252 390 -257 Q 386 -262 379 -262 L 368 -262 L 368 -291 L 379 -291 Q 383 -291 385 -294 Q 387 -297 387.5 -300.5 Q 388 -304 388.5 -307.5 Q 389 -311 389 -314 Q 389 -318 386 -320.5 Q 383 -323 379 -323 L 157 -323 L 157 -216 L 87 -216 L 87 -385 L 109 -385 Q 118 -404 124.5 -424.5 Q 131 -445 134.5 -466 Q 138 -487 139 -508 Q 140 -529 140 -551 L 140 -687 L 379 -687 L 379 -351 Q 388 -351 396.5 -348.5 Q 405 -346 410 -339.5 Q 415 -333 417 -324.5 Q 419 -316 419 -307 Q 419 -299 416.5 -291 Q 414 -283 407 -278 Q 416 -273 420.5 -264 Q 425 -255 425 -245 Q 425 -235 422.5 -226 Q 420 -217 413.5 -210 Q 407 -203 398 -199.5 Q 389 -196 380 -196 Z M 315 -385 L 315 -625 L 204 -625 L 204 -551 Q 204 -508 199.5 -466 Q 195 -424 179 -385 Z " id="path45"/>
<path d="M 250 -317 Q 230 -317 210.5 -320.5 Q 191 -324 173.5 -333 Q 156 -342 142 -355.5 Q 128 -369 119 -386.5 Q 110 -404 106.5 -423.5 Q 103 -443 103 -463 L 103 -536 L 328 -536 L 328 -547 Q 328 -563 324 -579 Q 320 -595 309 -607.5 Q 298 -620 282 -625.5 Q 266 -631 250 -631 Q 238 -631 225.5 -629 Q 213 -627 201.5 -622 Q 190 -617 181.5 -607.5 Q 173 -598 173 -586 L 104 -586 Q 105 -611 118 -633.5 Q 131 -656 152.5 -669.5 Q 174 -683 199.5 -688 Q 225 -693 250 -693 Q 270 -693 289.5 -689.5 Q 309 -686 326.5 -677 Q 344 -668 358 -654.5 Q 372 -641 381 -623.5 Q 390 -606 393.5 -586.5 Q 397 -567 397 -547 L 397 -463 Q 397 -443 393.5 -423.5 Q 390 -404 381 -386.5 Q 372 -369 358 -355.5 Q 344 -342 326.5 -333 Q 309 -324 289.5 -320.5 Q 270 -317 250 -317 Z M 250 -379 Q 266 -379 282 -384.5 Q 298 -390 309 -402.5 Q 320 -415 324 -431 Q 328 -447 328 -463 L 328 -474 L 172 -474 L 172 -463 Q 172 -447 176 -431 Q 180 -415 191 -402.5 Q 202 -390 218 -384.5 Q 234 -379 250 -379 Z " id="path46"/>
<path d="M 254 -736 Q 242 -736 231.5 -739.5 Q 221 -743 213 -751 Q 205 -759 201.5 -770 Q 198 -781 198 -792 Q 198 -803 201.5 -814 Q 205 -825 213 -833 Q 221 -841 231.5 -844.5 Q 242 -848 254 -848 Q 265 -848 276 -844.5 Q 287 -841 295 -833 Q 303 -825 306 -814 Q 309 -803 309 -792 Q 309 -781 306 -770 Q 303 -759 295 -751 Q 287 -743 276 -739.5 Q 265 -736 254 -736 Z M 373 -323 L 128 -323 L 128 -385 L 220 -385 L 220 -625 L 137 -625 L 137 -687 L 290 -687 L 290 -385 L 373 -385 Z " id="path47"/>
<path d="M 289 -736 Q 277 -736 266 -739.5 Q 255 -743 247.5 -751 Q 240 -759 236.5 -770 Q 233 -781 233 -792 Q 233 -803 236.5 -814 Q 240 -825 247.5 -833 Q 255 -841 266 -844.5 Q 277 -848 289 -848 Q 300 -848 311 -844.5 Q 322 -841 330 -833 Q 338 -825 341 -814 Q 344 -803 344 -792 Q 344 -781 341 -770 Q 338 -759 330 -751 Q 322 -743 311 -739.5 Q 300 -736 289 -736 Z M 205 -167 Q 181 -167 158 -173 Q 135 -179 117.5 -194.5 Q 100 -210 91 -232 Q 82 -254 82 -277 L 151 -277 Q 151 -267 155 -257.5 Q 159 -248 166.5 -241.5 Q 174 -235 184.5 -232 Q 195 -229 205 -229 Q 218 -229 230 -236.5 Q 242 -244 248.5 -256 Q 255 -268 257 -281.5 Q 259 -295 259 -309 L 259 -625 L 172 -625 L 172 -687 L 329 -687 L 329 -309 Q 329 -291 326.5 -273.5 Q 324 -256 317 -239 Q 310 -222 299 -208 Q 288 -194 273 -184.5 Q 258 -175 240.5 -171 Q 223 -167 205 -167 Z " id="path48"/>
<path d="M 250 -317 Q 230 -317 210.5 -320.5 Q 191 -324 173.5 -333 Q 156 -342 142 -355.5 Q 128 -369 119 -386.5 Q 110 -404 106.5 -423.5 Q 103 -443 103 -463 L 103 -547 Q 103 -567 106.5 -586.5 Q 110 -606 119 -623.5 Q 128 -641 142 -654.5 Q 156 -668 173.5 -677 Q 191 -686 210.5 -689.5 Q 230 -693 250 -693 Q 270 -693 289.5 -689.5 Q 309 -686 326.5 -677 Q 344 -668 358 -654.5 Q 372 -641 381 -623.5 Q 390 -606 393.5 -586.5 Q 397 -567 397 -547 L 397 -463 Q 397 -443 393.5 -423.5 Q 390 -404 381 -386.5 Q 372 -369 358 -355.5 Q 344 -342 326.5 -333 Q 309 -324 289.5 -320.5 Q 270 -317 250 -317 Z M 172 -531 L 328 -531 L 328 -547 Q 328 -563 323.5 -579 Q 319 -595 308.5 -607 Q 298 -619 282 -624.5 Q 266 -630 250 -630 Q 234 -630 218 -624.5 Q 202 -619 191.5 -607 Q 181 -595 176.5 -579 Q 172 -563 172 -547 Z M 250 -380 Q 266 -380 282 -385.5 Q 298 -391 308.5 -403 Q 319 -415 323.5 -431 Q 328 -447 328 -463 L 328 -479 L 172 -479 L 172 -463 Q 172 -447 176.5 -431 Q 181 -415 191.5 -403 Q 202 -391 218 -385.5 Q 234 -380 250 -380 Z " id="path49"/>
<path d="M 285 -172 L 215 -172 L 215 -328 L 89 -687 L 162 -687 L 250 -422 L 338 -687 L 411 -687 L 285 -328 Z " id="path50"/>
<path d="M 373 -323 L 128 -323 L 128 -385 L 220 -385 L 220 -775 L 137 -775 L 137 -838 L 290 -838 L 290 -385 L 373 -385 Z " id="path51"/>
<path d="M 218 113 Q 196 113 174 107 Q 152 101 135.5 86.5 Q 119 72 111 50.5 Q 103 29 103 6 Q 103 -12 108.5 -30.5 Q 114 -49 126 -63.5 Q 138 -78 155 -87.5 Q 172 -97 190 -102.5 Q 208 -108 226.5 -110 Q 245 -112 264 -112 L 323 -112 L 323 -143 Q 323 -156 317 -168.5 Q 311 -181 300 -188 Q 289 -195 275.5 -197.5 Q 262 -200 249 -200 Q 237 -200 225 -198.5 Q 213 -197 202.5 -192 Q 192 -187 184 -177.5 Q 176 -168 176 -156 L 176 -155 L 107 -155 L 107 -158 Q 107 -183 120 -205 Q 133 -227 154 -240 Q 175 -253 199.5 -257.5 Q 224 -262 249 -262 Q 267 -262 284.5 -260 Q 302 -258 318.5 -251.5 Q 335 -245 349 -234.5 Q 363 -224 373 -209.5 Q 383 -195 387 -178 Q 391 -161 391 -143 L 391 107 L 323 107 L 323 49 Q 316 64 305.5 76.5 Q 295 89 281 97.5 Q 267 106 251 109.5 Q 235 113 218 113 Z M 247 51 Q 262 51 276 47.5 Q 290 44 301.5 34 Q 313 24 318 10 Q 323 -4 323 -18 L 323 -50 L 264 -50 Q 254 -50 244.5 -49.5 Q 235 -49 225.5 -47 Q 216 -45 206.5 -42 Q 197 -39 189 -33.5 Q 181 -28 176.5 -19 Q 172 -10 172 0 Q 172 13 179 24 Q 186 35 197.5 41 Q 209 47 221.5 49 Q 234 51 247 51 Z " id="path52"/>
<path d="M 250 113 Q 231 113 211.5 110 Q 192 107 175 99 Q 158 91 143.5 78 Q 129 65 119.5 48 Q 110 31 106.5 12 Q 103 -7 103 -26 L 103 -169 Q 103 -196 104.5 -223 Q 106 -250 114.5 -275.5 Q 123 -301 139.5 -322.5 Q 156 -344 179.5 -357.5 Q 203 -371 229.5 -375.5 Q 256 -380 282.5 -383.5 Q 309 -387 335.5 -392.5 Q 362 -398 387 -407 L 387 -345 Q 370 -337 352.5 -332 Q 335 -327 316.5 -324.5 Q 298 -322 280 -321 Q 262 -320 244 -315.5 Q 226 -311 210.5 -300.5 Q 195 -290 185.5 -274.5 Q 176 -259 172.5 -240.5 Q 169 -222 169 -204 Q 169 -196 169.5 -188 Q 170 -180 170 -172 Q 176 -189 186.5 -203.5 Q 197 -218 211.5 -228 Q 226 -238 243.5 -242 Q 261 -246 279 -246 Q 296 -246 313 -242 Q 330 -238 344.5 -228.5 Q 359 -219 369.5 -205 Q 380 -191 386 -175 Q 392 -159 394.5 -141.5 Q 397 -124 397 -107 L 397 -26 Q 397 -7 393.5 12 Q 390 31 380.5 48 Q 371 65 356.5 78 Q 342 91 325 99 Q 308 107 288.5 110 Q 269 113 250 113 Z M 250 51 Q 266 51 281 46 Q 296 41 307 30.5 Q 318 20 323 4.5 Q 328 -11 328 -26 L 328 -107 Q 328 -122 323 -137.5 Q 318 -153 307 -164 Q 296 -175 281 -179.5 Q 266 -184 250 -184 Q 234 -184 219 -179.5 Q 204 -175 193 -164 Q 182 -153 177 -137.5 Q 172 -122 172 -107 L 172 -26 Q 172 -11 177 4.5 Q 182 20 193 30.5 Q 204 41 219 46 Q 234 51 250 51 Z " id="path53"/>
<path d="M 109 107 L 109 -257 L 266 -257 Q 288 -257 309.5 -251.5 Q 331 -246 348.5 -232.5 Q 366 -219 374.5 -198 Q 383 -177 383 -155 Q 383 -144 381 -133.5 Q 379 -123 374 -113.5 Q 369 -104 361.5 -96.5 Q 354 -89 345 -83 Q 357 -78 368.5 -70 Q 380 -62 388 -51 Q 396 -40 399.5 -27 Q 403 -14 403 0 Q 403 24 391.5 47 Q 380 70 359.5 84 Q 339 98 314.5 102.5 Q 290 107 266 107 Z M 266 -111 Q 275 -111 284 -113.5 Q 293 -116 300 -121.5 Q 307 -127 310.5 -135.5 Q 314 -144 314 -153 Q 314 -162 310.5 -171 Q 307 -180 300 -185.5 Q 293 -191 284 -193 Q 275 -195 266 -195 L 177 -195 L 177 -111 Z M 177 46 L 266 46 Q 277 46 289 44 Q 301 42 311 36.5 Q 321 31 327.5 20.5 Q 334 10 334 -1 L 334 -2 Q 334 -13 327.5 -23.5 Q 321 -34 311 -40 Q 301 -46 289.5 -48 Q 278 -50 266 -50 L 177 -50 Z " id="path54"/>
<path d="M 125 107 L 125 -257 L 397 -257 L 397 -194 L 195 -194 L 195 107 Z " id="path55"/>
<path d="M 413 214 L 343 214 L 343 107 L 157 107 L 157 214 L 87 214 L 87 45 L 109 45 Q 118 26 124.5 6 Q 131 -14 134.5 -35 Q 138 -56 139 -77.5 Q 140 -99 140 -120 L 140 -257 L 379 -257 L 379 45 L 413 45 Z M 315 45 L 315 -194 L 204 -194 L 204 -120 Q 204 -78 199.5 -36 Q 195 6 179 45 Z " id="path56"/>
<path d="M 250 113 Q 230 113 210.5 109.5 Q 191 106 173.5 97.5 Q 156 89 142 75 Q 128 61 119 43.5 Q 110 26 106.5 6.5 Q 103 -13 103 -33 L 103 -117 Q 103 -136 106.5 -155.5 Q 110 -175 119 -192.5 Q 128 -210 142 -224 Q 156 -238 173.5 -246.5 Q 191 -255 210.5 -258.5 Q 230 -262 250 -262 Q 270 -262 289.5 -258.5 Q 309 -255 326.5 -246.5 Q 344 -238 358 -224 Q 372 -210 381 -192.5 Q 390 -175 393.5 -155.5 Q 397 -136 397 -117 L 397 -44 L 172 -44 L 172 -33 Q 172 -16 176 0 Q 180 16 191 28 Q 202 40 218 45.5 Q 234 51 250 51 Q 262 51 274.5 49.5 Q 287 48 298.5 43 Q 310 38 318.5 28 Q 327 18 327 6 L 396 6 Q 395 31 382 54 Q 369 77 347.5 90 Q 326 103 300.5 108 Q 275 113 250 113 Z M 172 -105 L 328 -105 L 328 -117 Q 328 -133 324 -149 Q 320 -165 309 -177 Q 298 -189 282 -194.5 Q 266 -200 250 -200 Q 234 -200 218 -194.5 Q 202 -189 191 -177 Q 180 -165 176 -149 Q 172 -133 172 -117 Z " id="path57"/>
<path d="M 151 108 L 88 108 L 145 -75 L 88 -257 L 151 -257 L 200 -102 L 220 -102 L 220 -257 L 280 -257 L 280 -102 L 300 -102 L 349 -257 L 412 -257 L 355 -75 L 412 108 L 349 108 L 300 -47 L 280 -47 L 280 107 L 220 107 L 220 -47 L 200 -47 Z " id="path58"/>
<path d="M 252 113 Q 235 113 218.5 111.5 Q 202 110 185.5 105.5 Q 169 101 154 93.5 Q 139 86 127 74.5 Q 115 63 108.5 47 Q 102 31 102 15 L 102 13 L 170 13 Q 170 25 180.5 33.5 Q 191 42 203 45.5 Q 215 49 227.5 50 Q 240 51 252 51 Q 266 51 279.5 49 Q 293 47 305 41.5 Q 317 36 325.5 24.5 Q 334 13 334 -1 Q 334 -14 325 -25.5 Q 316 -37 303.5 -42 Q 291 -47 277.5 -49 Q 264 -51 250 -51 L 208 -51 L 208 -113 L 250 -113 Q 262 -113 273.5 -114.5 Q 285 -116 296 -120.5 Q 307 -125 315 -134.5 Q 323 -144 323 -156 Q 323 -167 315.5 -177 Q 308 -187 297.5 -192 Q 287 -197 275.5 -198.5 Q 264 -200 252 -200 Q 241 -200 230 -199 Q 219 -198 208.5 -194 Q 198 -190 189.5 -182 Q 181 -174 181 -163 L 181 -162 L 113 -162 L 113 -165 Q 113 -181 119 -196 Q 125 -211 135.5 -222.5 Q 146 -234 160 -242 Q 174 -250 189.5 -254.5 Q 205 -259 220.5 -260.5 Q 236 -262 252 -262 Q 277 -262 301.5 -257.5 Q 326 -253 346.5 -239.5 Q 367 -226 379 -203.5 Q 391 -181 391 -157 Q 391 -145 388.5 -133 Q 386 -121 379 -111.5 Q 372 -102 362.5 -95 Q 353 -88 342 -83 Q 355 -78 366.5 -70 Q 378 -62 386.5 -51.5 Q 395 -41 399 -27 Q 403 -13 403 0 Q 403 27 389.5 51 Q 376 75 353.5 89 Q 331 103 304.5 108 Q 278 113 252 113 Z " id="path59"/>
<path d="M 109 108 L 109 -257 L 178 -257 L 178 -111 Q 178 -76 174.5 -41 Q 171 -6 168 28 L 310 -257 L 391 -257 L 391 107 L 322 107 L 322 -38 Q 322 -73 325.5 -108 Q 329 -143 332 -177 L 190 108 Z " id="path60"/>
<path d="M 120 107 L 120 -257 L 189 -257 L 189 -106 L 230 -106 L 322 -257 L 401 -257 L 286 -75 L 401 107 L 322 107 L 230 -43 L 189 -43 L 189 107 Z " id="path61"/>
<path d="M 83 107 L 83 45 Q 95 45 105 38 Q 115 31 119 20.5 Q 123 10 125 -1.5 Q 127 -13 128 -25 Q 129 -37 129.5 -48.5 Q 130 -60 130 -72 L 130 -257 L 391 -257 L 391 107 L 322 107 L 322 -194 L 199 -194 L 199 -74 Q 199 -58 199 -42.5 Q 199 -27 197.5 -11.5 Q 196 4 192.5 19.5 Q 189 35 183 49 Q 177 63 167.5 75.5 Q 158 88 144 95 Q 130 102 114.5 104.5 Q 99 107 83 107 Z " id="path62"/>
<path d="M 250 113 Q 230 113 210.5 109.5 Q 191 106 173.5 97.5 Q 156 89 142 75 Q 128 61 119 43.5 Q 110 26 106.5 6.5 Q 103 -13 103 -33 L 103 -117 Q 103 -136 106.5 -155.5 Q 110 -175 119 -192.5 Q 128 -210 142 -224 Q 156 -238 173.5 -246.5 Q 191 -255 210.5 -258.5 Q 230 -262 250 -262 Q 270 -262 289.5 -258.5 Q 309 -255 326.5 -246.5 Q 344 -238 358 -224 Q 372 -210 381 -192.5 Q 390 -175 393.5 -155.5 Q 397 -136 397 -117 L 397 -33 Q 397 -13 393.5 6.5 Q 390 26 381 43.5 Q 372 61 358 75 Q 344 89 326.5 97.5 Q 309 106 289.5 109.5 Q 270 113 250 113 Z M 250 51 Q 266 51 282 45.5 Q 298 40 308.5 28 Q 319 16 323.5 0 Q 328 -16 328 -33 L 328 -117 Q 328 -133 323.5 -149 Q 319 -165 308.5 -177 Q 298 -189 282 -194.5 Q 266 -200 250 -200 Q 234 -200 218 -194.5 Q 202 -189 191.5 -177 Q 181 -165 176.5 -149 Q 172 -133 172 -117 L 172 -33 Q 172 -16 176.5 0 Q 181 16 191.5 28 Q 202 40 218 45.5 Q 234 51 250 51 Z " id="path63"/>
<path d="M 109 107 L 109 -257 L 391 -257 L 391 107 L 322 107 L 322 -194 L 178 -194 L 178 107 Z " id="path64"/>
<path d="M 248 113 Q 228 113 209 109.5 Q 190 106 172.5 97.5 Q 155 89 141 75 Q 127 61 118.5 43.5 Q 110 26 106.5 6.5 Q 103 -13 103 -33 L 103 -117 Q 103 -136 106.5 -155.5 Q 110 -175 118.5 -192.5 Q 127 -210 141 -224 Q 155 -238 172.5 -246.5 Q 190 -255 209 -258.5 Q 228 -262 248 -262 Q 275 -262 302 -255 Q 329 -248 350 -230.5 Q 371 -213 382 -187 Q 393 -161 393 -134 L 393 -131 L 324 -131 L 324 -132 Q 324 -147 318 -160.5 Q 312 -174 301 -183 Q 290 -192 276 -196 Q 262 -200 248 -200 Q 232 -200 216.5 -194 Q 201 -188 190.5 -176 Q 180 -164 176 -148 Q 172 -132 172 -117 L 172 -33 Q 172 -17 176 -1 Q 180 15 190.5 27 Q 201 39 216.5 45 Q 232 51 248 51 Q 262 51 276 47 Q 290 43 301 34 Q 312 25 318 11.5 Q 324 -2 324 -17 L 324 -19 L 393 -19 L 393 -15 Q 393 12 382 38 Q 371 64 350 81.5 Q 329 99 302 106 Q 275 113 248 113 Z " id="path65"/>
<path d="M 173 258 Q 180 234 187 209.5 Q 194 185 202 161 L 215 116 L 102 -257 L 174 -257 L 251 31 L 326 -257 L 398 -257 L 268 179 L 244 258 Z " id="path66"/>
<path d="M 215 258 L 215 113 L 214 113 Q 197 113 180 108.5 Q 163 104 149 94 Q 135 84 125 69.5 Q 115 55 109.5 39 Q 104 23 101.5 5.5 Q 99 -12 99 -29 L 99 -120 Q 99 -137 101.5 -154.5 Q 104 -172 109.5 -188 Q 115 -204 125 -218.5 Q 135 -233 149 -243 Q 163 -253 180 -257.5 Q 197 -262 214 -262 L 215 -262 L 215 -407 L 285 -407 L 285 -262 L 286 -262 Q 303 -262 320 -257.5 Q 337 -253 351 -243 Q 365 -233 375 -218.5 Q 385 -204 390.5 -188 Q 396 -172 398.5 -154.5 Q 401 -137 401 -120 L 401 -29 Q 401 -12 398.5 5.5 Q 396 23 390.5 39 Q 385 55 375 69.5 Q 365 84 351 94 Q 337 104 320 108.5 Q 303 113 286 113 L 285 113 L 285 258 Z M 214 57 L 219 57 L 219 -206 L 214 -206 Q 200 -206 188.5 -197 Q 177 -188 171.5 -175 Q 166 -162 164 -148 Q 162 -134 162 -120 L 162 -29 Q 162 -15 164 -1 Q 166 13 171.5 26 Q 177 39 188.5 48 Q 200 57 214 57 Z M 281 57 L 286 57 Q 300 57 311.5 48 Q 323 39 328.5 26 Q 334 13 336 -1 Q 338 -15 338 -29 L 338 -120 Q 338 -134 336 -148 Q 334 -162 328.5 -175 Q 323 -188 311.5 -197 Q 300 -206 286 -206 L 281 -206 Z " id="path67"/>
<path d="M 99 107 L 214 -75 L 99 -257 L 181 -257 L 250 -136 L 319 -257 L 401 -257 L 286 -75 L 401 107 L 319 107 L 250 -13 L 181 107 Z " id="path68"/>
<path d="M 356 214 L 356 107 L 109 107 L 109 -257 L 178 -257 L 178 45 L 322 45 L 322 -257 L 391 -257 L 391 45 L 416 45 L 416 214 Z " id="path69"/>
<path d="M 322 107 L 322 -11 Q 308 -6 293.5 -3.5 Q 279 -1 264 -1 Q 243 -1 222.5 -2.5 Q 202 -4 183 -11 Q 164 -18 148 -31.5 Q 132 -45 122.5 -63.5 Q 113 -82 111 -102.5 Q 109 -123 109 -143 L 109 -257 L 178 -257 L 178 -143 Q 178 -126 182.5 -109 Q 187 -92 199.5 -81 Q 212 -70 229.5 -67 Q 247 -64 264 -64 Q 279 -64 294.5 -69 Q 310 -74 322 -83 L 322 -257 L 391 -257 L 391 107 Z " id="path70"/>
<path d="M 105 107 L 105 -257 L 168 -257 L 168 45 L 219 45 L 219 -257 L 281 -257 L 281 45 L 332 45 L 332 -257 L 395 -257 L 395 107 Z " id="path71"/>
<path d="M 148 107 L 148 -194 L 88 -194 L 88 -257 L 217 -257 L 217 -124 L 285 -124 Q 308 -124 330 -116.5 Q 352 -109 368 -92.5 Q 384 -76 390.5 -53.5 Q 397 -31 397 -8 Q 397 15 390.5 37.5 Q 384 60 368 76.5 Q 352 93 330 100 Q 308 107 285 107 Z M 217 45 L 285 45 Q 294 45 303 41 Q 312 37 318 29 Q 324 21 326 11.5 Q 328 2 328 -8 Q 328 -18 326 -27.5 Q 324 -37 318 -45 Q 312 -53 303 -57 Q 294 -61 285 -61 L 217 -61 Z " id="path72"/>
<path d="M 332 107 L 332 -257 L 395 -257 L 395 107 Z M 105 107 L 105 -257 L 168 -257 L 168 -124 L 200 -124 Q 222 -124 242.5 -115.5 Q 263 -107 276.5 -90 Q 290 -73 295 -51.5 Q 300 -30 300 -8 Q 300 13 295 35 Q 290 57 276.5 74 Q 263 91 242.5 99 Q 222 107 200 107 Z M 200 51 Q 210 51 218 45 Q 226 39 230 30 Q 234 21 235.5 11.5 Q 237 2 237 -8 Q 237 -18 235.5 -28 Q 234 -38 230 -46.5 Q 226 -55 218 -61 Q 210 -67 200 -67 L 168 -67 L 168 51 Z " id="path73"/>
<path d="M 125 107 L 125 -257 L 328 -257 L 328 -348 L 397 -348 L 397 -194 L 195 -194 L 195 107 Z " id="path74"/>
<path d="M 254 -306 Q 242 -306 231.5 -309 Q 221 -312 213 -320 Q 205 -328 201.5 -339 Q 198 -350 198 -362 Q 198 -373 201.5 -384 Q 205 -395 213 -403 Q 221 -411 231.5 -414 Q 242 -417 254 -417 Q 265 -417 276 -414 Q 287 -411 295 -403 Q 303 -395 306 -384 Q 309 -373 309 -362 Q 309 -350 306 -339 Q 303 -328 295 -320 Q 287 -312 276 -309 Q 265 -306 254 -306 Z M 373 107 L 128 107 L 128 45 L 220 45 L 220 -194 L 137 -194 L 137 -257 L 290 -257 L 290 45 L 373 45 Z " id="path75"/>
<path d="M 249 113 Q 233 113 217 111.5 Q 201 110 185.5 105.5 Q 170 101 156 93.5 Q 142 86 131 74.5 Q 120 63 113.5 47.5 Q 107 32 107 16 L 107 13 L 176 13 L 176 14 Q 176 25 185 33 Q 194 41 204.5 45 Q 215 49 226.5 50 Q 238 51 249 51 Q 261 51 272.5 50 Q 284 49 295 44.5 Q 306 40 314.5 31.5 Q 323 23 323 11 Q 323 -1 314.5 -10.5 Q 306 -20 294.5 -25 Q 283 -30 271.5 -33 Q 260 -36 248 -39.5 Q 236 -43 224.5 -46.5 Q 213 -50 202 -55 Q 191 -60 180 -65.5 Q 169 -71 159.5 -78.5 Q 150 -86 141.5 -95 Q 133 -104 127 -114.5 Q 121 -125 117.5 -136.5 Q 114 -148 114 -161 Q 114 -184 126.5 -205.5 Q 139 -227 159 -240 Q 179 -253 203 -257.5 Q 227 -262 251 -262 Q 274 -262 297.5 -258 Q 321 -254 341.5 -242 Q 362 -230 374.5 -209.5 Q 387 -189 387 -165 L 387 -162 L 319 -162 L 319 -163 Q 319 -174 311 -182 Q 303 -190 293 -194 Q 283 -198 272 -199 Q 261 -200 251 -200 Q 240 -200 229 -198.5 Q 218 -197 208 -193 Q 198 -189 190.5 -180 Q 183 -171 183 -160 Q 183 -148 191.5 -138.5 Q 200 -129 211 -124 Q 222 -119 234 -116 Q 246 -113 257.5 -109.5 Q 269 -106 280.5 -102.5 Q 292 -99 303.5 -94 Q 315 -89 325.5 -83.5 Q 336 -78 346 -70.5 Q 356 -63 364 -54.5 Q 372 -46 378.5 -35.5 Q 385 -25 388.5 -13 Q 392 -1 392 11 Q 392 28 386 43.5 Q 380 59 369 71 Q 358 83 344 91.5 Q 330 100 314 105 Q 298 110 282 111.5 Q 266 113 249 113 Z " id="path76"/>
<path d="M 215 258 L 215 107 L 109 107 L 109 -257 L 178 -257 L 178 45 L 322 45 L 322 -257 L 391 -257 L 391 107 L 285 107 L 285 258 Z " id="path77"/>
<path d="M 220 -232 L 220 -319 Q 195 -322 171.5 -334 Q 148 -346 132 -366 Q 116 -386 109.5 -411.5 Q 103 -437 103 -463 L 103 -547 Q 103 -566 106.5 -585.5 Q 110 -605 118.5 -622.5 Q 127 -640 141 -654 Q 155 -668 172.5 -677 Q 190 -686 209 -689.5 Q 228 -693 248 -693 Q 275 -693 302 -686 Q 329 -679 350 -661.5 Q 371 -644 382 -618 Q 393 -592 393 -565 L 393 -561 L 324 -561 L 324 -563 Q 324 -577 318 -590.5 Q 312 -604 301 -613.5 Q 290 -623 276 -626.5 Q 262 -630 248 -630 Q 232 -630 216.5 -624.5 Q 201 -619 190.5 -607 Q 180 -595 176 -579 Q 172 -563 172 -547 L 172 -463 Q 172 -447 176 -431 Q 180 -415 190.5 -403 Q 201 -391 216.5 -385.5 Q 232 -380 248 -380 Q 262 -380 276 -383.5 Q 290 -387 301 -396.5 Q 312 -406 318 -419.5 Q 324 -433 324 -447 L 324 -449 L 393 -449 L 393 -445 Q 393 -422 385 -399.5 Q 377 -377 361.5 -360 Q 346 -343 324.5 -332.5 Q 303 -322 280 -319 L 280 -232 Z " id="path78"/>
<path d="M 334 -323 L 334 -687 L 395 -687 L 395 -323 Z M 128 -323 L 128 -632 L 86 -632 L 86 -687 L 189 -687 L 189 -554 L 206 -554 Q 227 -554 246.5 -545 Q 266 -536 278.5 -519 Q 291 -502 295 -481 Q 299 -460 299 -439 Q 299 -418 295 -396.5 Q 291 -375 278.5 -358 Q 266 -341 246.5 -332 Q 227 -323 206 -323 Z M 189 -378 L 206 -378 Q 215 -378 222.5 -385 Q 230 -392 233 -401 Q 236 -410 237 -419.5 Q 238 -429 238 -439 Q 238 -448 237 -457.5 Q 236 -467 233 -476 Q 230 -485 222.5 -492 Q 215 -499 206 -499 L 189 -499 Z " id="path79"/>
<path d="M 285 -172 L 215 -172 L 215 -297 L 158 -297 L 158 -349 L 208 -349 L 89 -687 L 162 -687 L 250 -422 L 338 -687 L 411 -687 L 292 -349 L 342 -349 L 342 -297 L 285 -297 Z " id="path80"/>
<path d="M 64 0 L 64 -735 L 436 -735 L 436 0 Z M 104 -333 L 394 -695 L 300 -695 L 104 -450 Z M 104 -489 L 269 -695 L 175 -695 L 104 -606 Z M 104 -645 L 144 -695 L 104 -695 Z M 104 -176 L 396 -543 L 396 -660 L 104 -294 Z M 104 -40 L 119 -40 L 396 -386 L 396 -504 L 104 -137 Z M 150 -40 L 244 -40 L 396 -230 L 396 -347 Z M 275 -40 L 369 -40 L 396 -74 L 396 -191 Z " id="path81"/>
<path d="M 250 -517 Q 244 -517 237.5 -519.5 Q 231 -522 226.5 -526.5 Q 222 -531 219.5 -537.5 Q 217 -544 217 -550 Q 217 -556 219.5 -562.5 Q 222 -569 226.5 -573.5 Q 231 -578 237.5 -580.5 Q 244 -583 250 -583 Q 256 -583 262.5 -580.5 Q 269 -578 273.5 -573.5 Q 278 -569 280.5 -562.5 Q 283 -556 283 -550 Q 283 -544 280.5 -537.5 Q 278 -531 273.5 -526.5 Q 269 -522 262.5 -519.5 Q 256 -517 250 -517 Z M 145 -489 Q 139 -489 132.5 -491.5 Q 126 -494 121.5 -498.5 Q 117 -503 114.5 -509 Q 112 -515 112 -522 Q 112 -528 114.5 -534 Q 117 -540 121.5 -545 Q 126 -550 132.5 -552.5 Q 139 -555 145 -555 Q 151 -555 157.5 -552.5 Q 164 -550 168.5 -545 Q 173 -540 175.5 -534 Q 178 -528 178 -522 Q 178 -515 175.5 -509 Q 173 -503 168.5 -498.5 Q 164 -494 157.5 -491.5 Q 151 -489 145 -489 Z M 355 -489 Q 349 -489 342.5 -491.5 Q 336 -494 331.5 -498.5 Q 327 -503 324.5 -509 Q 322 -515 322 -522 Q 322 -528 324.5 -534 Q 327 -540 331.5 -545 Q 336 -550 342.5 -552.5 Q 349 -555 355 -555 Q 361 -555 367.5 -552.5 Q 374 -550 378.5 -545 Q 383 -540 385.5 -534 Q 388 -528 388 -522 Q 388 -515 385.5 -509 Q 383 -503 378.5 -498.5 Q 374 -494 367.5 -491.5 Q 361 -489 355 -489 Z M 68 -412 Q 62 -412 56 -414.5 Q 50 -417 45 -421.5 Q 40 -426 37.5 -432.5 Q 35 -439 35 -445 Q 35 -451 37.5 -457.5 Q 40 -464 45 -468.5 Q 50 -473 56 -475.5 Q 62 -478 68 -478 Q 75 -478 81 -475.5 Q 87 -473 91.5 -468.5 Q 96 -464 98.5 -457.5 Q 101 -451 101 -445 Q 101 -439 98.5 -432.5 Q 96 -426 91.5 -421.5 Q 87 -417 81 -414.5 Q 75 -412 68 -412 Z M 432 -412 Q 425 -412 419 -414.5 Q 413 -417 408.5 -421.5 Q 404 -426 401.5 -432.5 Q 399 -439 399 -445 Q 399 -451 401.5 -457.5 Q 404 -464 408.5 -468.5 Q 413 -473 419 -475.5 Q 425 -478 432 -478 Q 438 -478 444 -475.5 Q 450 -473 455 -468.5 Q 460 -464 462.5 -457.5 Q 465 -451 465 -445 Q 465 -439 462.5 -432.5 Q 460 -426 455 -421.5 Q 450 -417 444 -414.5 Q 438 -412 432 -412 Z M 40 -307 Q 34 -307 27.5 -309.5 Q 21 -312 16.5 -316.5 Q 12 -321 9.5 -327.5 Q 7 -334 7 -340 Q 7 -346 9.5 -352.5 Q 12 -359 16.5 -363.5 Q 21 -368 27.5 -370.5 Q 34 -373 40 -373 Q 46 -373 52.5 -370.5 Q 59 -368 63.5 -363.5 Q 68 -359 70.5 -352.5 Q 73 -346 73 -340 Q 73 -334 70.5 -327.5 Q 68 -321 63.5 -316.5 Q 59 -312 52.5 -309.5 Q 46 -307 40 -307 Z M 460 -307 Q 454 -307 447.5 -309.5 Q 441 -312 436.5 -316.5 Q 432 -321 429.5 -327.5 Q 427 -334 427 -340 Q 427 -346 429.5 -352.5 Q 432 -359 436.5 -363.5 Q 441 -368 447.5 -370.5 Q 454 -373 460 -373 Q 466 -373 472.5 -370.5 Q 479 -368 483.5 -363.5 Q 488 -359 490.5 -352.5 Q 493 -346 493 -340 Q 493 -334 490.5 -327.5 Q 488 -321 483.5 -316.5 Q 479 -312 472.5 -309.5 Q 466 -307 460 -307 Z M 432 -202 Q 425 -202 419 -204.5 Q 413 -207 408.5 -211.5 Q 404 -216 401.5 -222.5 Q 399 -229 399 -235 Q 399 -241 401.5 -247.5 Q 404 -254 408.5 -258.5 Q 413 -263 419 -265.5 Q 425 -268 432 -268 Q 438 -268 444 -265.5 Q 450 -263 455 -258.5 Q 460 -254 462.5 -247.5 Q 465 -241 465 -235 Q 465 -229 462.5 -222.5 Q 460 -216 455 -211.5 Q 450 -207 444 -204.5 Q 438 -202 432 -202 Z M 68 -202 Q 62 -202 56 -204.5 Q 50 -207 45 -211.5 Q 40 -216 37.5 -222.5 Q 35 -229 35 -235 Q 35 -241 37.5 -247.5 Q 40 -254 45 -258.5 Q 50 -263 56 -265.5 Q 62 -268 68 -268 Q 75 -268 81 -265.5 Q 87 -263 91.5 -258.5 Q 96 -254 98.5 -247.5 Q 101 -241 101 -235 Q 101 -229 98.5 -222.5 Q 96 -216 91.5 -211.5 Q 87 -207 81 -204.5 Q 75 -202 68 -202 Z M 355 -125 Q 349 -125 342.5 -127.5 Q 336 -130 331.5 -135 Q 327 -140 324.5 -146 Q 322 -152 322 -158 Q 322 -165 324.5 -171 Q 327 -177 331.5 -181.5 Q 336 -186 342.5 -188.5 Q 349 -191 355 -191 Q 361 -191 367.5 -188.5 Q 374 -186 378.5 -181.5 Q 383 -177 385.5 -171 Q 388 -165 388 -158 Q 388 -152 385.5 -146 Q 383 -140 378.5 -135 Q 374 -130 367.5 -127.5 Q 361 -125 355 -125 Z M 145 -125 Q 139 -125 132.5 -127.5 Q 126 -130 121.5 -135 Q 117 -140 114.5 -146 Q 112 -152 112 -158 Q 112 -165 114.5 -171 Q 117 -177 121.5 -181.5 Q 126 -186 132.5 -188.5 Q 139 -191 145 -191 Q 151 -191 157.5 -188.5 Q 164 -186 168.5 -181.5 Q 173 -177 175.5 -171 Q 178 -165 178 -158 Q 178 -152 175.5 -146 Q 173 -140 168.5 -135 Q 164 -130 157.5 -127.5 Q 151 -125 145 -125 Z M 250 -97 Q 244 -97 237.5 -99.5 Q 231 -102 226.5 -106.5 Q 222 -111 219.5 -117.5 Q 217 -124 217 -130 Q 217 -136 219.5 -142.5 Q 222 -149 226.5 -153.5 Q 231 -158 237.5 -160.5 Q 244 -163 250 -163 Q 256 -163 262.5 -160.5 Q 269 -158 273.5 -153.5 Q 278 -149 280.5 -142.5 Q 283 -136 283 -130 Q 283 -124 280.5 -117.5 Q 278 -111 273.5 -106.5 Q 269 -102 262.5 -99.5 Q 256 -97 250 -97 Z " id="path82"/>
<path d="M -248 -829 Q -256 -829 -263.5 -831.5 Q -271 -834 -276.5 -839.5 Q -282 -845 -284.5 -852.5 Q -287 -860 -287 -868 Q -287 -876 -284.5 -883.5 Q -282 -891 -276.5 -896.5 Q -271 -902 -263.5 -904.5 Q -256 -907 -248 -907 Q -240 -907 -232.5 -904.5 Q -225 -902 -219 -896.5 Q -213 -891 -211 -883.5 Q -209 -876 -209 -868 Q -209 -860 -211 -852.5 Q -213 -845 -219 -839.5 Q -225 -834 -232.5 -831.5 Q -240 -829 -248 -829 Z M -320 -600 L -320 -644 L -272 -644 L -272 -764 L -314 -764 L -314 -808 L -223 -808 L -223 -644 L -180 -644 L -180 -600 Z " id="path83"/>
</defs>
<g>
<g data-source-text="0" fill="#dee4e3" transform="translate(174 41.292) rotate(0) scale(0.023999998)">
<use href="#path1" transform="translate(0 0)"/>
</g>
</g>
<g>
<g data-source-text="1" fill="#dee4e3" transform="translate(246 41.292) rotate(0) scale(0.023999998)">
<use href="#path2" transform="translate(0 0)"/>
</g>
</g>
<g>
<g data-source-text="2" fill="#dee4e3" transform="translate(318 41.292) rotate(0) scale(0.023999998)">
<use href="#path3" transform="translate(0 0)"/>
</g>
</g>
<g>
<g data-source-text="3" fill="#dee4e3" transform="translate(390 41.292) rotate(0) scale(0.023999998)">
<use href="#path4" transform="translate(0 0)"/>
</g>
</g>
<g>
<g data-source-text="4" fill="#dee4e3" transform="translate(462 41.292) rotate(0) scale(0.023999998)">
<use href="#path5" transform="translate(0 0)"/>
</g>
</g>
<g>
<g data-source-text="5" fill="#dee4e3" transform="translate(534 41.292) rotate(0) scale(0.023999998)">
<use href="#path6" transform="translate(0 0)"/>
</g>
</g>
<g>
<g data-source-text="6" fill="#dee4e3" transform="translate(606 41.292) rotate(0) scale(0.023999998)">
<use href="#path7" transform="translate(0 0)"/>
</g>
</g>
<g>
<g data-source-text="7" fill="#dee4e3" transform="translate(678 41.292) rotate(0) scale(0.023999998)">
<use href="#path8" transform="translate(0 0)"/>
</g>
</g>
<g>
<g data-source-text="8" fill="#dee4e3" transform="translate(750 41.292) rotate(0) scale(0.023999998)">
<use href="#path9" transform="translate(0 0)"/>
</g>
</g>
<g>
<g data-source-text="9" fill="#dee4e3" transform="translate(822 41.292) rotate(0) scale(0.023999998)">
<use href="#path10" transform="translate(0 0)"/>
</g>
</g>
<g>
<g data-source-text="A" fill="#dee4e3" transform="translate(894 41.292) rotate(0) scale(0.023999998)">
<use href="#path11" transform="translate(0 0)"/>
</g>
</g>
<g>
<g data-source-text="B" fill="#dee4e3" transform="translate(966 41.292) rotate(0) scale(0.023999998)">
<use href="#path12" transform="translate(0 0)"/>
</g>
</g>
<g>
<g data-source-text="C" fill="#dee4e3" transform="translate(1038 41.292) rotate(0) scale(0.023999998)">
<use href="#path13" transform="translate(0 0)"/>
</g>
</g>
<g>
<g data-source-text="D" fill="#dee4e3" transform="translate(1110 41.292) rotate(0) scale(0.023999998)">
<use href="#path14" transform="translate(0 0)"/>
</g>
</g>
<g>
<g data-source-text="E" fill="#dee4e3" transform="translate(1182 41.292) rotate(0) scale(0.023999998)">
<use href="#path15" transform="translate(0 0)"/>
</g>
</g>
<g>
<g data-source-text="F" fill="#dee4e3" transform="translate(1254 41.292) rotate(0) scale(0.023999998)">
<use href="#path16" transform="translate(0 0)"/>
</g>
</g>
<g>
<g data-source-text="U+1E030" fill="#dee4e3" transform="translate(30 113.292) rotate(0) scale(0.023999998)">
<use href="#path17" transform="translate(0 0)"/>
<use href="#path18" transform="translate(500 0)"/>
<use href="#path2" transform="translate(1000 0)"/>
<use href="#path15" transform="translate(1500 0)"/>
<use href="#path1" transform="translate(2000 0)"/>
<use href="#path4" transform="translate(2500 0)"/>
<use href="#path1" transform="translate(3000 0)"/>
</g>
</g>
<g>
<g data-source-text="" fill="#dee4e3" transform="translate(168 118.584) rotate(0) scale(0.047999997)">
<use href="#path19" transform="translate(0 0)"/>
</g>
</g>
<g>
<g data-source-text="" fill="#dee4e3" transform="translate(240 118.584) rotate(0) scale(0.047999997)">
<use href="#path20" transform="translate(0 0)"/>
</g>
</g>
<g>
<g data-source-text="" fill="#dee4e3" transform="translate(312 118.584) rotate(0) scale(0.047999997)">
<use href="#path21" transform="translate(0 0)"/>
</g>
</g>
<g>
<g data-source-text="" fill="#dee4e3" transform="translate(384 118.584) rotate(0) scale(0.047999997)">
<use href="#path22" transform="translate(0 0)"/>
</g>
</g>
<g>
<g data-source-text="" fill="#dee4e3" transform="translate(456 118.584) rotate(0) scale(0.047999997)">
<use href="#path23" transform="translate(0 0)"/>
</g>
</g>
<g>
<g data-source-text="" fill="#dee4e3" transform="translate(528 118.584) rotate(0) scale(0.047999997)">
<use href="#path24" transform="translate(0 0)"/>
</g>
</g>
<g>
<g data-source-text="" fill="#dee4e3" transform="translate(600 118.584) rotate(0) scale(0.047999997)">
<use href="#path25" transform="translate(0 0)"/>
</g>
</g>
<g>
<g data-source-text="" fill="#dee4e3" transform="translate(672 118.584) rotate(0) scale(0.047999997)">
<use href="#path26" transform="translate(0 0)"/>
</g>
</g>
<g>
<g data-source-text="" fill="#dee4e3" transform="translate(744 118.584) rotate(0) scale(0.047999997)">
<use href="#path27" transform="translate(0 0)"/>
</g>
</g>
<g>
<g data-source-text="" fill="#dee4e3" transform="translate(816 118.584) rotate(0) scale(0.047999997)">
<use href="#path28" transform="translate(0 0)"/>
</g>
</g>
<g>
<g data-source-text="" fill="#dee4e3" transform="translate(888 118.584) rotate(0) scale(0.047999997)">
<use href="#path29" transform="translate(0 0)"/>
</g>
</g>
<g>
<g data-source-text="" fill="#dee4e3" transform="translate(960 118.584) rotate(0) scale(0.047999997)">
<use href="#path30" transform="translate(0 0)"/>
</g>
</g>
<g>
<g data-source-text="" fill="#dee4e3" transform="translate(1032 118.584) rotate(0) scale(0.047999997)">
<use href="#path31" transform="translate(0 0)"/>
</g>
</g>
<g>
<g data-source-text="" fill="#dee4e3" transform="translate(1104 118.584) rotate(0) scale(0.047999997)">
<use href="#path32" transform="translate(0 0)"/>
</g>
</g>
<g>
<g data-source-text="" fill="#dee4e3" transform="translate(1176 118.584) rotate(0) scale(0.047999997)">
<use href="#path33" transform="translate(0 0)"/>
</g>
</g>
<g>
<g data-source-text="" fill="#dee4e3" transform="translate(1248 118.584) rotate(0) scale(0.047999997)">
<use href="#path34" transform="translate(0 0)"/>
</g>
</g>
<g>
<g data-source-text="U+1E040" fill="#dee4e3" transform="translate(30 185.292) rotate(0) scale(0.023999998)">
<use href="#path17" transform="translate(0 0)"/>
<use href="#path18" transform="translate(500 0)"/>
<use href="#path2" transform="translate(1000 0)"/>
<use href="#path15" transform="translate(1500 0)"/>
<use href="#path1" transform="translate(2000 0)"/>
<use href="#path5" transform="translate(2500 0)"/>
<use href="#path1" transform="translate(3000 0)"/>
</g>
</g>
<g>
<g data-source-text="" fill="#dee4e3" transform="translate(168 190.584) rotate(0) scale(0.047999997)">
<use href="#path35" transform="translate(0 0)"/>
</g>
</g>
<g>
<g data-source-text="" fill="#dee4e3" transform="translate(240 190.584) rotate(0) scale(0.047999997)">
<use href="#path36" transform="translate(0 0)"/>
</g>
</g>
<g>
<g data-source-text="" fill="#dee4e3" transform="translate(312 190.584) rotate(0) scale(0.047999997)">
<use href="#path37" transform="translate(0 0)"/>
</g>
</g>
<g>
<g data-source-text="" fill="#dee4e3" transform="translate(384 190.584) rotate(0) scale(0.047999997)">
<use href="#path38" transform="translate(0 0)"/>
</g>
</g>
<g>
<g data-source-text="" fill="#dee4e3" transform="translate(456 190.584) rotate(0) scale(0.047999997)">
<use href="#path39" transform="translate(0 0)"/>
</g>
</g>
<g>
<g data-source-text="" fill="#dee4e3" transform="translate(528 190.584) rotate(0) scale(0.047999997)">
<use href="#path40" transform="translate(0 0)"/>
</g>
</g>
<g>
<g data-source-text="" fill="#dee4e3" transform="translate(600 190.584) rotate(0) scale(0.047999997)">
<use href="#path41" transform="translate(0 0)"/>
</g>
</g>
<g>
<g data-source-text="" fill="#dee4e3" transform="translate(672 190.584) rotate(0) scale(0.047999997)">
<use href="#path42" transform="translate(0 0)"/>
</g>
</g>
<g>
<g data-source-text="" fill="#dee4e3" transform="translate(744 190.584) rotate(0) scale(0.047999997)">
<use href="#path43" transform="translate(0 0)"/>
</g>
</g>
<g>
<g data-source-text="" fill="#dee4e3" transform="translate(816 190.584) rotate(0) scale(0.047999997)">
<use href="#path44" transform="translate(0 0)"/>
</g>
</g>
<g>
<g data-source-text="" fill="#dee4e3" transform="translate(888 190.584) rotate(0) scale(0.047999997)">
<use href="#path45" transform="translate(0 0)"/>
</g>
</g>
<g>
<g data-source-text="" fill="#dee4e3" transform="translate(960 190.584) rotate(0) scale(0.047999997)">
<use href="#path46" transform="translate(0 0)"/>
</g>
</g>
<g>
<g data-source-text="" fill="#dee4e3" transform="translate(1032 190.584) rotate(0) scale(0.047999997)">
<use href="#path47" transform="translate(0 0)"/>
</g>
</g>
<g>
<g data-source-text="" fill="#dee4e3" transform="translate(1104 190.584) rotate(0) scale(0.047999997)">
<use href="#path48" transform="translate(0 0)"/>
</g>
</g>
<g>
<g data-source-text="" fill="#dee4e3" transform="translate(1176 190.584) rotate(0) scale(0.047999997)">
<use href="#path49" transform="translate(0 0)"/>
</g>
</g>
<g>
<g data-source-text="" fill="#dee4e3" transform="translate(1248 190.584) rotate(0) scale(0.047999997)">
<use href="#path50" transform="translate(0 0)"/>
</g>
</g>
<g>
<g data-source-text="U+1E050" fill="#dee4e3" transform="translate(30 257.292) rotate(0) scale(0.023999998)">
<use href="#path17" transform="translate(0 0)"/>
<use href="#path18" transform="translate(500 0)"/>
<use href="#path2" transform="translate(1000 0)"/>
<use href="#path15" transform="translate(1500 0)"/>
<use href="#path1" transform="translate(2000 0)"/>
<use href="#path6" transform="translate(2500 0)"/>
<use href="#path1" transform="translate(3000 0)"/>
</g>
</g>
<g>
<g data-source-text="" fill="#dee4e3" transform="translate(168 262.584) rotate(0) scale(0.047999997)">
<use href="#path51" transform="translate(0 0)"/>
</g>
</g>
<g>
<g data-source-text="" fill="#dee4e3" transform="translate(240 262.584) rotate(0) scale(0.047999997)">
<use href="#path52" transform="translate(0 0)"/>
</g>
</g>
<g>
<g data-source-text="" fill="#dee4e3" transform="translate(312 262.584) rotate(0) scale(0.047999997)">
<use href="#path53" transform="translate(0 0)"/>
</g>
</g>
<g>
<g data-source-text="" fill="#dee4e3" transform="translate(384 262.584) rotate(0) scale(0.047999997)">
<use href="#path54" transform="translate(0 0)"/>
</g>
</g>
<g>
<g data-source-text="" fill="#dee4e3" transform="translate(456 262.584) rotate(0) scale(0.047999997)">
<use href="#path55" transform="translate(0 0)"/>
</g>
</g>
<g>
<g data-source-text="" fill="#dee4e3" transform="translate(528 262.584) rotate(0) scale(0.047999997)">
<use href="#path56" transform="translate(0 0)"/>
</g>
</g>
<g>
<g data-source-text="" fill="#dee4e3" transform="translate(600 262.584) rotate(0) scale(0.047999997)">
<use href="#path57" transform="translate(0 0)"/>
</g>
</g>
<g>
<g data-source-text="" fill="#dee4e3" transform="translate(672 262.584) rotate(0) scale(0.047999997)">
<use href="#path58" transform="translate(0 0)"/>
</g>
</g>
<g>
<g data-source-text="" fill="#dee4e3" transform="translate(744 262.584) rotate(0) scale(0.047999997)">
<use href="#path59" transform="translate(0 0)"/>
</g>
</g>
<g>
<g data-source-text="" fill="#dee4e3" transform="translate(816 262.584) rotate(0) scale(0.047999997)">
<use href="#path60" transform="translate(0 0)"/>
</g>
</g>
<g>
<g data-source-text="" fill="#dee4e3" transform="translate(888 262.584) rotate(0) scale(0.047999997)">
<use href="#path61" transform="translate(0 0)"/>
</g>
</g>
<g>
<g data-source-text="" fill="#dee4e3" transform="translate(960 262.584) rotate(0) scale(0.047999997)">
<use href="#path62" transform="translate(0 0)"/>
</g>
</g>
<g>
<g data-source-text="" fill="#dee4e3" transform="translate(1032 262.584) rotate(0) scale(0.047999997)">
<use href="#path63" transform="translate(0 0)"/>
</g>
</g>
<g>
<g data-source-text="" fill="#dee4e3" transform="translate(1104 262.584) rotate(0) scale(0.047999997)">
<use href="#path64" transform="translate(0 0)"/>
</g>
</g>
<g>
<g data-source-text="" fill="#dee4e3" transform="translate(1176 262.584) rotate(0) scale(0.047999997)">
<use href="#path65" transform="translate(0 0)"/>
</g>
</g>
<g>
<g data-source-text="" fill="#dee4e3" transform="translate(1248 262.584) rotate(0) scale(0.047999997)">
<use href="#path66" transform="translate(0 0)"/>
</g>
</g>
<g>
<g data-source-text="U+1E060" fill="#dee4e3" transform="translate(30 329.292) rotate(0) scale(0.023999998)">
<use href="#path17" transform="translate(0 0)"/>
<use href="#path18" transform="translate(500 0)"/>
<use href="#path2" transform="translate(1000 0)"/>
<use href="#path15" transform="translate(1500 0)"/>
<use href="#path1" transform="translate(2000 0)"/>
<use href="#path7" transform="translate(2500 0)"/>
<use href="#path1" transform="translate(3000 0)"/>
</g>
</g>
<g>
<g data-source-text="" fill="#dee4e3" transform="translate(168 334.584) rotate(0) scale(0.047999997)">
<use href="#path67" transform="translate(0 0)"/>
</g>
</g>
<g>
<g data-source-text="" fill="#dee4e3" transform="translate(240 334.584) rotate(0) scale(0.047999997)">
<use href="#path68" transform="translate(0 0)"/>
</g>
</g>
<g>
<g data-source-text="" fill="#dee4e3" transform="translate(312 334.584) rotate(0) scale(0.047999997)">
<use href="#path69" transform="translate(0 0)"/>
</g>
</g>
<g>
<g data-source-text="" fill="#dee4e3" transform="translate(384 334.584) rotate(0) scale(0.047999997)">
<use href="#path70" transform="translate(0 0)"/>
</g>
</g>
<g>
<g data-source-text="" fill="#dee4e3" transform="translate(456 334.584) rotate(0) scale(0.047999997)">
<use href="#path71" transform="translate(0 0)"/>
</g>
</g>
<g>
<g data-source-text="" fill="#dee4e3" transform="translate(528 334.584) rotate(0) scale(0.047999997)">
<use href="#path72" transform="translate(0 0)"/>
</g>
</g>
<g>
<g data-source-text="" fill="#dee4e3" transform="translate(600 334.584) rotate(0) scale(0.047999997)">
<use href="#path73" transform="translate(0 0)"/>
</g>
</g>
<g>
<g data-source-text="" fill="#dee4e3" transform="translate(672 334.584) rotate(0) scale(0.047999997)">
<use href="#path74" transform="translate(0 0)"/>
</g>
</g>
<g>
<g data-source-text="" fill="#dee4e3" transform="translate(744 334.584) rotate(0) scale(0.047999997)">
<use href="#path75" transform="translate(0 0)"/>
</g>
</g>
<g>
<g data-source-text="" fill="#dee4e3" transform="translate(816 334.584) rotate(0) scale(0.047999997)">
<use href="#path76" transform="translate(0 0)"/>
</g>
</g>
<g>
<g data-source-text="" fill="#dee4e3" transform="translate(888 334.584) rotate(0) scale(0.047999997)">
<use href="#path77" transform="translate(0 0)"/>
</g>
</g>
<g>
<g data-source-text="" fill="#dee4e3" transform="translate(960 334.584) rotate(0) scale(0.047999997)">
<use href="#path78" transform="translate(0 0)"/>
</g>
</g>
<g>
<g data-source-text="" fill="#dee4e3" transform="translate(1032 334.584) rotate(0) scale(0.047999997)">
<use href="#path79" transform="translate(0 0)"/>
</g>
</g>
<g>
<g data-source-text="" fill="#dee4e3" transform="translate(1104 334.584) rotate(0) scale(0.047999997)">
<use href="#path80" transform="translate(0 0)"/>
</g>
</g>
<g>
<g data-source-text="" fill="#dee4e340" transform="translate(1176 334.584) rotate(0) scale(0.047999997)">
<use href="#path81" transform="translate(0 0)"/>
</g>
</g>
<g>
<g data-source-text="" fill="#dee4e340" transform="translate(1248 334.584) rotate(0) scale(0.047999997)">
<use href="#path81" transform="translate(0 0)"/>
</g>
</g>
<g>
<g data-source-text="U+1E070" fill="#dee4e3" transform="translate(30 401.292) rotate(0) scale(0.023999998)">
<use href="#path17" transform="translate(0 0)"/>
<use href="#path18" transform="translate(500 0)"/>
<use href="#path2" transform="translate(1000 0)"/>
<use href="#path15" transform="translate(1500 0)"/>
<use href="#path1" transform="translate(2000 0)"/>
<use href="#path8" transform="translate(2500 0)"/>
<use href="#path1" transform="translate(3000 0)"/>
</g>
</g>
<g>
<g data-source-text="" fill="#dee4e340" transform="translate(168 406.584) rotate(0) scale(0.047999997)">
<use href="#path81" transform="translate(0 0)"/>
</g>
</g>
<g>
<g data-source-text="" fill="#dee4e340" transform="translate(240 406.584) rotate(0) scale(0.047999997)">
<use href="#path81" transform="translate(0 0)"/>
</g>
</g>
<g>
<g data-source-text="" fill="#dee4e340" transform="translate(312 406.584) rotate(0) scale(0.047999997)">
<use href="#path81" transform="translate(0 0)"/>
</g>
</g>
<g>
<g data-source-text="" fill="#dee4e340" transform="translate(384 406.584) rotate(0) scale(0.047999997)">
<use href="#path81" transform="translate(0 0)"/>
</g>
</g>
<g>
<g data-source-text="" fill="#dee4e340" transform="translate(456 406.584) rotate(0) scale(0.047999997)">
<use href="#path81" transform="translate(0 0)"/>
</g>
</g>
<g>
<g data-source-text="" fill="#dee4e340" transform="translate(528 406.584) rotate(0) scale(0.047999997)">
<use href="#path81" transform="translate(0 0)"/>
</g>
</g>
<g>
<g data-source-text="" fill="#dee4e340" transform="translate(600 406.584) rotate(0) scale(0.047999997)">
<use href="#path81" transform="translate(0 0)"/>
</g>
</g>
<g>
<g data-source-text="" fill="#dee4e340" transform="translate(672 406.584) rotate(0) scale(0.047999997)">
<use href="#path81" transform="translate(0 0)"/>
</g>
</g>
<g>
<g data-source-text="" fill="#dee4e340" transform="translate(744 406.584) rotate(0) scale(0.047999997)">
<use href="#path81" transform="translate(0 0)"/>
</g>
</g>
<g>
<g data-source-text="" fill="#dee4e340" transform="translate(816 406.584) rotate(0) scale(0.047999997)">
<use href="#path81" transform="translate(0 0)"/>
</g>
</g>
<g>
<g data-source-text="" fill="#dee4e340" transform="translate(888 406.584) rotate(0) scale(0.047999997)">
<use href="#path81" transform="translate(0 0)"/>
</g>
</g>
<g>
<g data-source-text="" fill="#dee4e340" transform="translate(960 406.584) rotate(0) scale(0.047999997)">
<use href="#path81" transform="translate(0 0)"/>
</g>
</g>
<g>
<g data-source-text="" fill="#dee4e340" transform="translate(1032 406.584) rotate(0) scale(0.047999997)">
<use href="#path81" transform="translate(0 0)"/>
</g>
</g>
<g>
<g data-source-text="" fill="#dee4e340" transform="translate(1104 406.584) rotate(0) scale(0.047999997)">
<use href="#path81" transform="translate(0 0)"/>
</g>
</g>
<g>
<g data-source-text="" fill="#dee4e340" transform="translate(1176 406.584) rotate(0) scale(0.047999997)">
<use href="#path81" transform="translate(0 0)"/>
</g>
</g>
<g>
<g data-source-text="" fill="#dee4e340" transform="translate(1248 406.584) rotate(0) scale(0.047999997)">
<use href="#path81" transform="translate(0 0)"/>
</g>
</g>
<g>
<g data-source-text="U+1E080" fill="#dee4e3" transform="translate(30 473.292) rotate(0) scale(0.023999998)">
<use href="#path17" transform="translate(0 0)"/>
<use href="#path18" transform="translate(500 0)"/>
<use href="#path2" transform="translate(1000 0)"/>
<use href="#path15" transform="translate(1500 0)"/>
<use href="#path1" transform="translate(2000 0)"/>
<use href="#path9" transform="translate(2500 0)"/>
<use href="#path1" transform="translate(3000 0)"/>
</g>
</g>
<g>
<g data-source-text="" fill="#dee4e340" transform="translate(168 478.584) rotate(0) scale(0.047999997)">
<use href="#path81" transform="translate(0 0)"/>
</g>
</g>
<g>
<g data-source-text="" fill="#dee4e340" transform="translate(240 478.584) rotate(0) scale(0.047999997)">
<use href="#path81" transform="translate(0 0)"/>
</g>
</g>
<g>
<g data-source-text="" fill="#dee4e340" transform="translate(312 478.584) rotate(0) scale(0.047999997)">
<use href="#path81" transform="translate(0 0)"/>
</g>
</g>
<g>
<g data-source-text="" fill="#dee4e340" transform="translate(384 478.584) rotate(0) scale(0.047999997)">
<use href="#path81" transform="translate(0 0)"/>
</g>
</g>
<g>
<g data-source-text="" fill="#dee4e340" transform="translate(456 478.584) rotate(0) scale(0.047999997)">
<use href="#path81" transform="translate(0 0)"/>
</g>
</g>
<g>
<g data-source-text="" fill="#dee4e340" transform="translate(528 478.584) rotate(0) scale(0.047999997)">
<use href="#path81" transform="translate(0 0)"/>
</g>
</g>
<g>
<g data-source-text="" fill="#dee4e340" transform="translate(600 478.584) rotate(0) scale(0.047999997)">
<use href="#path81" transform="translate(0 0)"/>
</g>
</g>
<g>
<g data-source-text="" fill="#dee4e340" transform="translate(672 478.584) rotate(0) scale(0.047999997)">
<use href="#path81" transform="translate(0 0)"/>
</g>
</g>
<g>
<g data-source-text="" fill="#dee4e340" transform="translate(744 478.584) rotate(0) scale(0.047999997)">
<use href="#path81" transform="translate(0 0)"/>
</g>
</g>
<g>
<g data-source-text="" fill="#dee4e340" transform="translate(816 478.584) rotate(0) scale(0.047999997)">
<use href="#path81" transform="translate(0 0)"/>
</g>
</g>
<g>
<g data-source-text="" fill="#dee4e340" transform="translate(888 478.584) rotate(0) scale(0.047999997)">
<use href="#path81" transform="translate(0 0)"/>
</g>
</g>
<g>
<g data-source-text="" fill="#dee4e340" transform="translate(960 478.584) rotate(0) scale(0.047999997)">
<use href="#path81" transform="translate(0 0)"/>
</g>
</g>
<g>
<g data-source-text="" fill="#dee4e340" transform="translate(1032 478.584) rotate(0) scale(0.047999997)">
<use href="#path81" transform="translate(0 0)"/>
</g>
</g>
<g>
<g data-source-text="" fill="#dee4e340" transform="translate(1104 478.584) rotate(0) scale(0.047999997)">
<use href="#path81" transform="translate(0 0)"/>
</g>
</g>
<g>
<g data-source-text="" fill="#dee4e340" transform="translate(1176 478.584) rotate(0) scale(0.047999997)">
<use href="#path81" transform="translate(0 0)"/>
</g>
</g>
<g>
<g data-source-text="" fill="#03aee9" transform="translate(1248 478.584) rotate(0) scale(0.047999997)">
<use href="#path82" transform="translate(0 0)"/>
</g>
</g>
<g>
<g data-source-text="" fill="#dee4e3" transform="translate(1248 478.584) rotate(0) scale(0.047999997)">
<use href="#path81" transform="translate(0 0)"/>
</g>
<g data-source-text="" fill="#dee4e3" transform="translate(1272 478.584) rotate(0) scale(0.047999997)">
<use href="#path83" transform="translate(0 0)"/>
</g>
</g>
</svg>