<?xml version="1.0" encoding="UTF-8" standalone="no"?>
<svg height="288" viewBox="0 0 1296 288" width="1296" xmlns="http://www.w3.org/2000/svg">
<defs>
<path d="M 250 8 Q 223 8 196 3 Q 169 -2 145 -15 Q 121 -28 102.5 -48.5 Q 84 -69 72.5 -94 Q 61 -119 56.5 -146 Q 52 -173 52 -200 L 52 -535 Q 52 -562 56.5 -589 Q 61 -616 72.5 -641 Q 84 -666 102.5 -686.5 Q 121 -707 145 -720 Q 169 -733 196 -738 Q 223 -743 250 -743 Q 277 -743 304 -738 Q 331 -733 355 -720 Q 379 -707 397.5 -686.5 Q 416 -666 427.5 -641 Q 439 -616 443.5 -589 Q 448 -562 448 -535 L 448 -200 Q 448 -173 443.5 -146 Q 439 -119 427.5 -94 Q 416 -69 397.5 -48.5 Q 379 -28 355 -15 Q 331 -2 304 3 Q 277 8 250 8 Z M 153 -337 L 347 -491 L 347 -535 Q 347 -557 342.5 -578.5 Q 338 -600 325.5 -618 Q 313 -636 292.5 -645.5 Q 272 -655 250 -655 Q 228 -655 207.5 -645.5 Q 187 -636 174.5 -618 Q 162 -600 157.5 -578.5 Q 153 -557 153 -535 Z M 250 -80 Q 272 -80 292.5 -89.5 Q 313 -99 325.5 -117 Q 338 -135 342.5 -156.5 Q 347 -178 347 -200 L 347 -398 L 153 -244 L 153 -200 Q 153 -178 157.5 -156.5 Q 162 -135 174.5 -117 Q 187 -99 207.5 -89.5 Q 228 -80 250 -80 Z " id="path1"/>
<path d="M 230 0 L 230 -637 L 107 -542 L 55 -600 L 230 -735 L 330 -735 L 330 0 Z " id="path2"/>
<path d="M 60 0 L 60 -1 Q 60 -27 61 -53.5 Q 62 -80 66 -106.5 Q 70 -133 77.5 -158.5 Q 85 -184 96.5 -207.5 Q 108 -231 123 -253 Q 138 -275 156 -294.5 Q 174 -314 194 -331 Q 214 -348 235.5 -364 Q 257 -380 277.5 -397 Q 298 -414 313 -435.5 Q 328 -457 335.5 -483 Q 343 -509 343 -535 Q 343 -557 339 -578 Q 335 -599 323.5 -617 Q 312 -635 292 -645 Q 272 -655 251 -655 Q 231 -655 213 -648 Q 195 -641 182.5 -626.5 Q 170 -612 164.5 -593 Q 159 -574 159 -555 L 159 -554 L 58 -554 L 58 -556 Q 58 -581 64 -606 Q 70 -631 82 -653.5 Q 94 -676 112 -694 Q 130 -712 152.5 -723 Q 175 -734 200 -738.5 Q 225 -743 251 -743 Q 278 -743 304.5 -737.5 Q 331 -732 354 -719 Q 377 -706 395 -685.5 Q 413 -665 424 -640.5 Q 435 -616 439.5 -589 Q 444 -562 444 -535 Q 444 -501 435 -468 Q 426 -435 407.5 -406 Q 389 -377 364 -353.5 Q 339 -330 312.5 -308.5 Q 286 -287 261 -264 Q 236 -241 216.5 -213 Q 197 -185 184 -153.5 Q 171 -122 166 -88 L 440 -88 L 440 0 Z " id="path3"/>
<path d="M 252 8 Q 226 8 200 3.5 Q 174 -1 150.5 -12 Q 127 -23 107.5 -41 Q 88 -59 75.5 -82 Q 63 -105 56.5 -130.5 Q 50 -156 50 -183 L 151 -183 Q 151 -162 157.5 -142.5 Q 164 -123 178 -108 Q 192 -93 212 -86.5 Q 232 -80 252 -80 Q 275 -80 296 -88.5 Q 317 -97 330.5 -114.5 Q 344 -132 349.5 -154 Q 355 -176 355 -198 Q 355 -217 351 -235.5 Q 347 -254 338.5 -271 Q 330 -288 316.5 -301 Q 303 -314 286 -322 Q 269 -330 250 -332 Q 231 -334 212 -334 L 212 -422 Q 229 -422 246 -424 Q 263 -426 278.5 -433 Q 294 -440 306 -452.5 Q 318 -465 325.5 -480.5 Q 333 -496 336 -512.5 Q 339 -529 339 -546 Q 339 -566 334.5 -585.5 Q 330 -605 319.5 -621 Q 309 -637 290.5 -646 Q 272 -655 253 -655 Q 234 -655 216.5 -647.5 Q 199 -640 188 -625.5 Q 177 -611 172 -593 Q 167 -575 167 -556 L 167 -555 L 66 -555 L 66 -558 Q 66 -582 71.5 -606.5 Q 77 -631 88.5 -653 Q 100 -675 117.5 -693 Q 135 -711 157 -722.5 Q 179 -734 203.5 -738.5 Q 228 -743 253 -743 Q 278 -743 303 -738 Q 328 -733 350.5 -721 Q 373 -709 390 -690 Q 407 -671 418 -648 Q 429 -625 434.5 -600 Q 440 -575 440 -549 Q 440 -524 434 -498.5 Q 428 -473 415.5 -450.5 Q 403 -428 384.5 -409.5 Q 366 -391 343 -379 Q 369 -368 391 -348.5 Q 413 -329 427.5 -304.5 Q 442 -280 449 -252 Q 456 -224 456 -196 Q 456 -168 450 -141.5 Q 444 -115 432 -91 Q 420 -67 400.5 -47 Q 381 -27 357 -14.5 Q 333 -2 306.5 3 Q 280 8 252 8 Z " id="path4"/>
<path d="M 282 0 L 282 -188 L 52 -188 L 52 -275 L 276 -735 L 385 -735 L 161 -275 L 282 -275 L 282 -435 L 382 -435 L 382 -275 L 440 -275 L 440 -188 L 382 -188 L 382 0 Z " id="path5"/>
<path d="M 252 8 Q 227 8 202.5 3.5 Q 178 -1 156.5 -12.5 Q 135 -24 117.5 -42 Q 100 -60 88 -81 Q 76 -102 69 -126 Q 62 -150 60 -174 L 60 -176 L 160 -176 L 161 -172 Q 164 -154 170.5 -137 Q 177 -120 188.5 -107 Q 200 -94 217 -87 Q 234 -80 252 -80 Q 269 -80 285 -87 Q 301 -94 312 -106.5 Q 323 -119 330 -135 Q 337 -151 340.5 -167.5 Q 344 -184 345.5 -201 Q 347 -218 347 -235 Q 347 -252 345.5 -269 Q 344 -286 340.5 -302.5 Q 337 -319 330.5 -334.5 Q 324 -350 313.5 -363 Q 303 -376 287 -383.5 Q 271 -391 254 -391 Q 236 -391 219.5 -384 Q 203 -377 191.5 -363 Q 180 -349 174.5 -331.5 Q 169 -314 168 -296 L 68 -296 L 68 -735 L 421 -735 L 421 -647 L 168 -647 L 168 -462 Q 188 -471 210 -474.5 Q 232 -478 254 -478 Q 284 -478 312.5 -470.5 Q 341 -463 364.5 -445.5 Q 388 -428 404.5 -403.5 Q 421 -379 430.5 -351 Q 440 -323 444 -294 Q 448 -265 448 -235 Q 448 -206 444 -176.5 Q 440 -147 430.5 -119 Q 421 -91 404 -66.5 Q 387 -42 363 -24.5 Q 339 -7 310 0.5 Q 281 8 252 8 Z " id="path6"/>
<path d="M 250 8 Q 219 8 189 -0.5 Q 159 -9 135 -28 Q 111 -47 94.5 -73.5 Q 78 -100 68.5 -129 Q 59 -158 55.5 -189 Q 52 -220 52 -250 Q 52 -291 60 -331 Q 68 -371 82 -409 Q 96 -447 114 -483.5 Q 132 -520 150 -556 L 238 -735 L 347 -735 L 240 -517 Q 232 -500 223 -483.5 Q 214 -467 205 -451 Q 217 -454 229 -455 Q 241 -456 253 -456 Q 281 -456 309.5 -449 Q 338 -442 361.5 -426 Q 385 -410 402.5 -386.5 Q 420 -363 430 -336.5 Q 440 -310 444 -281.5 Q 448 -253 448 -224 Q 448 -195 444 -166.5 Q 440 -138 429.5 -111 Q 419 -84 401.5 -60.5 Q 384 -37 360 -21 Q 336 -5 307.5 1.5 Q 279 8 250 8 Z M 250 -80 Q 266 -80 282 -85.5 Q 298 -91 309.5 -102.5 Q 321 -114 328.5 -129 Q 336 -144 340 -159.5 Q 344 -175 345.5 -191.5 Q 347 -208 347 -224 Q 347 -240 345.5 -256.5 Q 344 -273 340 -288.5 Q 336 -304 328.5 -319 Q 321 -334 309.5 -345.5 Q 298 -357 282.5 -362.5 Q 267 -368 251 -368 Q 234 -368 218.5 -362.5 Q 203 -357 191.5 -345.5 Q 180 -334 172 -319.5 Q 164 -305 160 -289 Q 156 -273 154.5 -256.5 Q 153 -240 153 -224 Q 153 -208 154.5 -191.5 Q 156 -175 160 -159.5 Q 164 -144 171.5 -129 Q 179 -114 190.5 -102.5 Q 202 -91 218 -85.5 Q 234 -80 250 -80 Z " id="path7"/>
<path d="M 138 0 L 336 -647 L 60 -647 L 60 -735 L 440 -735 L 440 -647 L 242 0 Z " id="path8"/>
<path d="M 250 8 Q 225 8 200 4 Q 175 -0 152 -10 Q 129 -20 110 -37 Q 91 -54 78 -75.5 Q 65 -97 58.5 -121.5 Q 52 -146 52 -171 Q 52 -202 62 -232 Q 72 -262 88.5 -288 Q 105 -314 127 -336 Q 149 -358 174 -378 Q 152 -396 132.5 -417 Q 113 -438 98.5 -462.5 Q 84 -487 76 -514.5 Q 68 -542 68 -571 Q 68 -594 73.5 -617.5 Q 79 -641 90.5 -661.5 Q 102 -682 119.5 -698.5 Q 137 -715 158 -725 Q 179 -735 202.5 -739 Q 226 -743 250 -743 Q 274 -743 297.5 -739 Q 321 -735 342 -725 Q 363 -715 380.5 -698.5 Q 398 -682 409.5 -661.5 Q 421 -641 426.5 -617.5 Q 432 -594 432 -571 Q 432 -542 424 -514.5 Q 416 -487 401.5 -462.5 Q 387 -438 367.5 -417 Q 348 -396 326 -378 Q 351 -358 373 -336 Q 395 -314 411.5 -288 Q 428 -262 438 -232 Q 448 -202 448 -171 Q 448 -146 441.5 -121.5 Q 435 -97 422 -75.5 Q 409 -54 390 -37 Q 371 -20 348 -10 Q 325 -0 300 4 Q 275 8 250 8 Z M 250 -435 Q 266 -447 280.5 -461.5 Q 295 -476 306.5 -493 Q 318 -510 325 -529.5 Q 332 -549 332 -569 Q 332 -586 326.5 -602.5 Q 321 -619 310 -631.5 Q 299 -644 283 -649.5 Q 267 -655 250 -655 Q 233 -655 217 -649.5 Q 201 -644 190 -631.5 Q 179 -619 173.5 -602.5 Q 168 -586 168 -569 Q 168 -549 175 -529.5 Q 182 -510 193.5 -493 Q 205 -476 219.5 -461.5 Q 234 -447 250 -435 Z M 250 -80 Q 269 -80 287.5 -85.5 Q 306 -91 320 -104 Q 334 -117 340.5 -135.5 Q 347 -154 347 -173 Q 347 -196 338.5 -217.5 Q 330 -239 316.5 -257.5 Q 303 -276 285.5 -291 Q 268 -306 250 -320 Q 232 -306 214.5 -291 Q 197 -276 183.5 -257.5 Q 170 -239 161.5 -217.5 Q 153 -196 153 -173 Q 153 -154 159.5 -135.5 Q 166 -117 180 -104 Q 194 -91 212.5 -85.5 Q 231 -80 250 -80 Z " id="path9"/>
<path d="M 262 0 L 153 0 L 260 -218 Q 268 -235 277 -251.5 Q 286 -268 295 -284 Q 283 -281 271 -280 Q 259 -279 247 -279 Q 219 -279 190.5 -286 Q 162 -293 138.5 -309 Q 115 -325 97.5 -348.5 Q 80 -372 70 -398.5 Q 60 -425 56 -453.5 Q 52 -482 52 -511 Q 52 -540 56 -568.5 Q 60 -597 70.5 -624 Q 81 -651 98.5 -674.5 Q 116 -698 140 -714 Q 164 -730 192.5 -736.5 Q 221 -743 250 -743 Q 281 -743 311 -734.5 Q 341 -726 365 -707 Q 389 -688 405.5 -661.5 Q 422 -635 431.5 -606 Q 441 -577 444.5 -546 Q 448 -515 448 -485 Q 448 -444 440 -404 Q 432 -364 418 -326 Q 404 -288 386 -251.5 Q 368 -215 350 -179 Z M 249 -367 Q 266 -367 281.5 -372.5 Q 297 -378 308.5 -389.5 Q 320 -401 328 -415.5 Q 336 -430 340 -446 Q 344 -462 345.5 -478.5 Q 347 -495 347 -511 Q 347 -527 345.5 -543.5 Q 344 -560 340 -575.5 Q 336 -591 328.5 -606 Q 321 -621 309.5 -632.5 Q 298 -644 282 -649.5 Q 266 -655 250 -655 Q 234 -655 218 -649.5 Q 202 -644 190.5 -632.5 Q 179 -621 171.5 -606 Q 164 -591 160 -575.5 Q 156 -560 154.5 -543.5 Q 153 -527 153 -511 Q 153 -495 154.5 -478.5 Q 156 -462 160 -446.5 Q 164 -431 171.5 -416 Q 179 -401 190.5 -389.5 Q 202 -378 217.5 -372.5 Q 233 -367 249 -367 Z " id="path10"/>
<path d="M 39 0 L 192 -735 L 308 -735 L 461 0 L 358 0 L 326 -172 L 174 -172 L 142 0 Z M 309 -260 L 265 -490 Q 262 -511 258 -531.5 Q 254 -552 250 -572 Q 246 -552 242 -531.5 Q 238 -511 235 -490 L 191 -260 Z " id="path11"/>
<path d="M 60 0 L 60 -735 L 234 -735 Q 261 -735 287 -730.5 Q 313 -726 336 -714 Q 359 -702 377.5 -682.5 Q 396 -663 408 -639.5 Q 420 -616 424.5 -590 Q 429 -564 429 -538 Q 429 -515 425 -492 Q 421 -469 410.5 -448.5 Q 400 -428 383.5 -411 Q 367 -394 347 -383 Q 372 -373 393.5 -355.5 Q 415 -338 429.5 -314.5 Q 444 -291 450 -264 Q 456 -237 456 -210 Q 456 -181 450 -152.5 Q 444 -124 430 -98.5 Q 416 -73 394.5 -53.5 Q 373 -34 347 -21.5 Q 321 -9 292 -4.5 Q 263 -0 234 0 Z M 161 -424 L 234 -424 Q 255 -424 274.5 -432.5 Q 294 -441 306.5 -457.5 Q 319 -474 324 -494.5 Q 329 -515 329 -536 Q 329 -557 324 -577.5 Q 319 -598 306.5 -614.5 Q 294 -631 274.5 -639 Q 255 -647 234 -647 L 161 -647 Z M 161 -88 L 234 -88 Q 251 -88 267 -91 Q 283 -94 297.5 -101.5 Q 312 -109 323.5 -121 Q 335 -133 342.5 -148 Q 350 -163 352.5 -179 Q 355 -195 355 -212 Q 355 -228 352.5 -244.5 Q 350 -261 343 -276 Q 336 -291 324.5 -303 Q 313 -315 298 -322.5 Q 283 -330 267 -333 Q 251 -336 234 -336 L 161 -336 Z " id="path12"/>
<path d="M 247 8 Q 220 8 193.5 2.5 Q 167 -3 143.5 -16 Q 120 -29 101.5 -49.5 Q 83 -70 72 -94.5 Q 61 -119 56.5 -146 Q 52 -173 52 -200 L 52 -535 Q 52 -562 56.5 -589 Q 61 -616 72 -640.5 Q 83 -665 101.5 -685.5 Q 120 -706 143.5 -719 Q 167 -732 193.5 -737.5 Q 220 -743 247 -743 Q 273 -743 298 -738.5 Q 323 -734 346 -723 Q 369 -712 387.5 -694 Q 406 -676 418 -653.5 Q 430 -631 436 -606 Q 442 -581 442 -556 L 442 -554 L 341 -554 L 341 -555 Q 341 -575 335.5 -593.5 Q 330 -612 317 -627 Q 304 -642 285.5 -648.5 Q 267 -655 247 -655 Q 226 -655 206 -645.5 Q 186 -636 173.5 -618 Q 161 -600 157 -578.5 Q 153 -557 153 -535 L 153 -200 Q 153 -178 157 -156.5 Q 161 -135 173.5 -117 Q 186 -99 206 -89.5 Q 226 -80 247 -80 Q 267 -80 285.5 -86.5 Q 304 -93 317 -108 Q 330 -123 335.5 -141.5 Q 341 -160 341 -180 L 341 -181 L 442 -181 L 442 -179 Q 442 -154 436 -129 Q 430 -104 418 -81.5 Q 406 -59 387.5 -41 Q 369 -23 346 -12 Q 323 -1 298 3.5 Q 273 8 247 8 Z " id="path13"/>
<path d="M 60 0 L 60 -735 L 219 -735 Q 249 -735 279 -730 Q 309 -725 336.5 -712 Q 364 -699 386 -678.5 Q 408 -658 422 -631.5 Q 436 -605 442 -575 Q 448 -545 448 -515 L 448 -220 Q 448 -190 442 -160 Q 436 -130 422 -103.5 Q 408 -77 386 -56.5 Q 364 -36 336.5 -23 Q 309 -10 279 -5 Q 249 -0 219 0 Z M 161 -88 L 219 -88 Q 237 -88 254 -91 Q 271 -94 286.5 -102.5 Q 302 -111 314 -124 Q 326 -137 333.5 -152.5 Q 341 -168 344 -185.5 Q 347 -203 347 -220 L 347 -515 Q 347 -532 344 -549.5 Q 341 -567 333.5 -582.5 Q 326 -598 314 -611 Q 302 -624 286.5 -632.5 Q 271 -641 254 -644 Q 237 -647 219 -647 L 161 -647 Z " id="path14"/>
<path d="M 68 0 L 68 -735 L 440 -735 L 440 -647 L 169 -647 L 169 -426 L 383 -426 L 383 -338 L 169 -338 L 169 -88 L 440 -88 L 440 0 Z " id="path15"/>
<path d="M 91 0 L 91 -735 L 440 -735 L 440 -647 L 191 -647 L 191 -426 L 383 -426 L 383 -338 L 191 -338 L 191 0 Z " id="path16"/>
<path d="M 250 8 Q 223 8 196.5 2.5 Q 170 -3 147 -16.5 Q 124 -30 106.5 -50.5 Q 89 -71 78.5 -95.5 Q 68 -120 64 -146.5 Q 60 -173 60 -200 L 60 -735 L 161 -735 L 161 -200 Q 161 -186 162.5 -172 Q 164 -158 168 -144.5 Q 172 -131 179.5 -118.5 Q 187 -106 197.5 -97 Q 208 -88 222 -84 Q 236 -80 250 -80 Q 264 -80 278 -84 Q 292 -88 302.5 -97 Q 313 -106 320.5 -118.5 Q 328 -131 332 -144.5 Q 336 -158 337.5 -172 Q 339 -186 339 -200 L 339 -735 L 440 -735 L 440 -200 Q 440 -173 436 -146.5 Q 432 -120 421.5 -95.5 Q 411 -71 393.5 -50.5 Q 376 -30 353 -16.5 Q 330 -3 303.5 2.5 Q 277 8 250 8 Z " id="path17"/>
<path d="M 300 -143 L 200 -143 L 200 -296 L 60 -296 L 60 -384 L 200 -384 L 200 -537 L 300 -537 L 300 -384 L 440 -384 L 440 -296 L 300 -296 Z " id="path18"/>
<path d="M 64 0 L 64 -735 L 436 -735 L 436 0 Z M 94 -321 L 401 -705 L 307 -705 L 94 -438 Z M 94 -477 L 276 -705 L 182 -705 L 94 -595 Z M 94 -634 L 151 -705 L 94 -705 Z M 94 -165 L 406 -554 L 406 -671 L 94 -282 Z M 94 -30 L 112 -30 L 406 -398 L 406 -515 L 94 -126 Z M 237 -30 L 406 -242 L 406 -359 L 143 -30 Z M 268 -30 L 362 -30 L 406 -85 L 406 -203 Z M 393 -30 L 406 -30 L 406 -46 Z " id="path19"/>
<path d="M 247 8 Q 221 8 194.5 3 Q 168 -2 145 -15 Q 122 -28 104 -48 Q 86 -68 75 -92 Q 64 -116 60 -142.5 Q 56 -169 56 -195 L 56 -540 Q 56 -566 60 -592.5 Q 64 -619 75 -643 Q 86 -667 104 -687 Q 122 -707 145 -720 Q 168 -733 194.5 -738 Q 221 -743 247 -743 Q 272 -743 296.5 -739 Q 321 -735 343.5 -724 Q 366 -713 384.5 -696 Q 403 -679 414.5 -657 Q 426 -635 432 -611 Q 438 -587 438 -562 L 438 -559 L 360 -559 L 360 -561 Q 360 -583 352.5 -605 Q 345 -627 329.5 -643 Q 314 -659 292 -666 Q 270 -673 247 -673 Q 222 -673 198.5 -663.5 Q 175 -654 160 -634 Q 145 -614 139.5 -589.5 Q 134 -565 134 -540 L 134 -195 Q 134 -170 139.5 -145.5 Q 145 -121 160 -101 Q 175 -81 198.5 -71.5 Q 222 -62 247 -62 Q 270 -62 292 -69 Q 314 -76 329.5 -92 Q 345 -108 352.5 -130 Q 360 -152 360 -174 L 360 -176 L 438 -176 L 438 -173 Q 438 -148 432 -124 Q 426 -100 414.5 -78 Q 403 -56 384.5 -39 Q 366 -22 343.5 -11 Q 321 0 296.5 4 Q 272 8 247 8 Z M 174 78 L 137 68 L 426 -814 L 463 -804 Z M 74 78 L 37 68 L 326 -814 L 363 -804 Z " id="path20"/>
<path d="M 96 0 L 96 -243 L 29 -243 L 29 -308 L 96 -308 L 96 -383 L 29 -383 L 29 -448 L 96 -448 L 96 -735 L 436 -735 L 436 -665 L 174 -665 L 174 -448 L 277 -448 L 277 -383 L 174 -383 L 174 -308 L 277 -308 L 277 -243 L 174 -243 L 174 0 Z " id="path21"/>
<path d="M 64 0 L 64 -70 Q 81 -86 94 -106 Q 107 -126 115 -148 Q 123 -170 126.5 -193 Q 130 -216 131 -240 L 46 -240 L 46 -304 L 131 -304 L 131 -392 L 46 -392 L 46 -457 L 131 -457 L 131 -589 Q 131 -609 134 -629 Q 137 -649 145.5 -667 Q 154 -685 167.5 -700.5 Q 181 -716 198.5 -725.5 Q 216 -735 235.5 -739 Q 255 -743 275 -743 Q 304 -743 332 -734.5 Q 360 -726 380.5 -705.5 Q 401 -685 410.5 -657 Q 420 -629 420 -600 Q 420 -598 419.5 -596 Q 419 -594 419 -592 L 342 -592 L 342 -596 Q 342 -610 338 -624.5 Q 334 -639 325.5 -650.5 Q 317 -662 303.5 -667.5 Q 290 -673 275 -673 Q 260 -673 246 -666.5 Q 232 -660 223.5 -647 Q 215 -634 212 -619 Q 209 -604 209 -589 L 209 -457 L 309 -457 L 309 -392 L 209 -392 L 209 -304 L 309 -304 L 309 -240 L 209 -240 Q 208 -217 206 -195 Q 204 -173 198.5 -151.5 Q 193 -130 184.5 -109.5 Q 176 -89 163 -70 L 436 -70 L 436 0 Z " id="path22"/>
<path d="M 48 0 L 48 -520 L 126 -520 L 126 -478 Q 131 -489 138 -498.5 Q 145 -508 154.5 -515 Q 164 -522 175.5 -525 Q 187 -528 199 -528 Q 214 -528 228 -523 Q 242 -518 252.5 -508 Q 263 -498 270 -485 Q 277 -472 281 -457 Q 285 -471 292 -484.5 Q 299 -498 309.5 -508 Q 320 -518 333.5 -523 Q 347 -528 362 -528 Q 377 -528 391.5 -522.5 Q 406 -517 417 -506.5 Q 428 -496 434.5 -482 Q 441 -468 445 -453.5 Q 449 -439 450.5 -424 Q 452 -409 452 -394 L 452 0 L 374 0 L 374 -394 Q 374 -405 372.5 -415.5 Q 371 -426 366 -436 Q 361 -446 351.5 -452 Q 342 -458 331 -458 Q 321 -458 311.5 -452 Q 302 -446 297 -436 Q 292 -426 290.5 -415.5 Q 289 -405 289 -394 L 289 0 L 211 0 L 211 -394 Q 211 -405 209.5 -415.5 Q 208 -426 203 -436 Q 198 -446 188.5 -452 Q 179 -458 169 -458 Q 158 -458 148.5 -452 Q 139 -446 134 -436 Q 129 -426 127.5 -415.5 Q 126 -405 126 -394 L 126 0 Z M 129 60 L 88 44 L 371 -580 L 412 -564 Z " id="path23"/>
<path d="M 80 0 L 80 -735 L 176 -735 L 350 -147 Q 348 -221 345.5 -294.5 Q 343 -368 343 -441 L 343 -735 L 420 -735 L 420 0 L 324 0 L 150 -588 Q 152 -514 154.5 -440.5 Q 157 -367 157 -294 L 157 0 Z M 32 -413 L 32 -478 L 468 -478 L 468 -413 Z M 468 -257 L 32 -257 L 32 -322 L 468 -322 Z " id="path24"/>
<path d="M 26 0 L 26 -735 L 109 -735 Q 127 -735 143.5 -729.5 Q 160 -724 173.5 -713 Q 187 -702 196.5 -687.5 Q 206 -673 213 -656.5 Q 220 -640 224.5 -623.5 Q 229 -607 231.5 -589.5 Q 234 -572 235 -554.5 Q 236 -537 236 -520 Q 236 -502 235 -484.5 Q 234 -467 231.5 -449.5 Q 229 -432 224.5 -415.5 Q 220 -399 213 -382.5 Q 206 -366 196.5 -351.5 Q 187 -337 173.5 -326 Q 160 -315 143.5 -309.5 Q 127 -304 109 -304 L 82 -304 L 82 0 Z M 109 -374 Q 124 -374 136.5 -383 Q 149 -392 156.5 -404.5 Q 164 -417 168.5 -431.5 Q 173 -446 175.5 -460.5 Q 178 -475 179 -490 Q 180 -505 180 -520 Q 180 -534 179 -549 Q 178 -564 175.5 -578.5 Q 173 -593 168.5 -607.5 Q 164 -622 156.5 -635 Q 149 -648 136.5 -656.5 Q 124 -665 109 -665 L 82 -665 L 82 -374 Z M 407 8 Q 391 8 376 1 Q 361 -6 351 -19 Q 341 -32 335 -47 Q 329 -62 326 -78 Q 323 -94 322 -110 Q 321 -126 321 -142 L 321 -450 L 272 -450 L 272 -520 L 321 -520 L 321 -735 L 377 -735 L 377 -520 L 484 -520 L 484 -450 L 377 -450 L 377 -142 Q 377 -134 377 -126.5 Q 377 -119 378 -111.5 Q 379 -104 380.5 -96 Q 382 -88 385 -81 Q 388 -74 393.5 -68 Q 399 -62 407 -62 Q 416 -62 421 -70.5 Q 426 -79 429 -88 Q 432 -97 433.5 -106 Q 435 -115 435.5 -124 Q 436 -133 436.5 -142 Q 437 -151 437 -160 L 437 -165 L 494 -165 L 494 -156 Q 494 -139 492.5 -122 Q 491 -105 487.5 -88 Q 484 -71 478.5 -55 Q 473 -39 463.5 -24.5 Q 454 -10 439 -1 Q 424 8 407 8 Z " id="path25"/>
<path d="M 14 0 L 14 -735 L 109 -735 Q 126 -735 142.5 -729.5 Q 159 -724 172 -712.5 Q 185 -701 194 -686 Q 203 -671 209.5 -655 Q 216 -639 220 -622 Q 224 -605 226 -588 Q 228 -571 229 -554 Q 230 -537 230 -520 Q 230 -491 227.5 -463 Q 225 -435 217.5 -408 Q 210 -381 195.5 -355.5 Q 181 -330 157 -316 L 242 0 L 182 0 L 101 -304 L 71 -304 L 71 0 Z M 71 -374 L 109 -374 Q 124 -374 135.5 -383.5 Q 147 -393 153.5 -406 Q 160 -419 164 -433 Q 168 -447 170 -461.5 Q 172 -476 173 -490.5 Q 174 -505 174 -520 Q 174 -534 173 -548.5 Q 172 -563 170 -577.5 Q 168 -592 164 -606 Q 160 -620 153.5 -633 Q 147 -646 135.5 -655.5 Q 124 -665 109 -665 L 71 -665 Z M 380 8 Q 364 8 348.5 3.5 Q 333 -1 320.5 -10.5 Q 308 -20 299.5 -33.5 Q 291 -47 285.5 -62.5 Q 280 -78 277.5 -93.5 Q 275 -109 275 -125 L 275 -128 L 331 -128 L 331 -127 Q 331 -115 333.5 -104 Q 336 -93 342 -83 Q 348 -73 358.5 -67.5 Q 369 -62 380 -62 Q 392 -62 402.5 -68 Q 413 -74 419 -84 Q 425 -94 427.5 -105.5 Q 430 -117 430 -129 Q 430 -149 422.5 -167.5 Q 415 -186 401 -200 Q 387 -214 370.5 -225 Q 354 -236 340.5 -249.5 Q 327 -263 315.5 -279.5 Q 304 -296 296.5 -314.5 Q 289 -333 285.5 -352.5 Q 282 -372 282 -391 Q 282 -407 284 -423 Q 286 -439 291 -454 Q 296 -469 304 -483 Q 312 -497 323.5 -507.5 Q 335 -518 350.5 -523 Q 366 -528 382 -528 Q 398 -528 413 -523.5 Q 428 -519 440 -508.5 Q 452 -498 460 -484.5 Q 468 -471 473 -456 Q 478 -441 480 -425.5 Q 482 -410 482 -395 L 482 -392 L 426 -392 L 426 -393 Q 426 -404 424 -415 Q 422 -426 417 -435.5 Q 412 -445 402.5 -451.5 Q 393 -458 382 -458 Q 371 -458 361.5 -451.5 Q 352 -445 347 -435 Q 342 -425 340 -413.5 Q 338 -402 338 -391 Q 338 -372 345.5 -353 Q 353 -334 367 -320 Q 381 -306 397.5 -295 Q 414 -284 428 -270.5 Q 442 -257 453 -240.5 Q 464 -224 471.5 -205.5 Q 479 -187 482.5 -168 Q 486 -149 486 -129 Q 486 -113 484 -97 Q 482 -81 476.5 -65 Q 471 -49 462.5 -35.5 Q 454 -22 441 -11.5 Q 428 -1 412.5 3.5 Q 397 8 380 8 Z " id="path26"/>
<path d="M 117 0 L 32 -735 L 110 -735 L 158 -106 L 211 -529 L 289 -529 L 342 -106 L 390 -735 L 468 -735 L 383 0 L 306 0 L 250 -394 L 194 0 Z M 19 -409 L 19 -473 L 486 -473 L 486 -409 Z M 19 -225 L 19 -290 L 486 -290 L 486 -225 Z " id="path27"/>
<path d="M 219 8 Q 194 8 169.5 1 Q 145 -6 125 -21 Q 105 -36 91.5 -57 Q 78 -78 70 -101.5 Q 62 -125 59 -150 Q 56 -175 56 -200 L 56 -320 Q 56 -345 59 -370 Q 62 -395 70 -418.5 Q 78 -442 91.5 -463 Q 105 -484 125 -499 Q 145 -514 169.5 -521 Q 194 -528 219 -528 Q 242 -528 264.5 -522 Q 287 -516 305.5 -502.5 Q 324 -489 337 -469.5 Q 350 -450 358 -429 L 358 -595 L 252 -595 L 252 -660 L 358 -660 L 358 -735 L 436 -735 L 436 -660 L 482 -660 L 482 -595 L 436 -595 L 436 0 L 358 0 L 358 -91 Q 350 -70 337 -50.5 Q 324 -31 305.5 -17.5 Q 287 -4 264.5 2 Q 242 8 219 8 Z M 249 -62 Q 266 -62 282.5 -66.5 Q 299 -71 312 -81 Q 325 -91 334.5 -105 Q 344 -119 349 -134.5 Q 354 -150 356 -166.5 Q 358 -183 358 -200 L 358 -320 Q 358 -337 356 -353.5 Q 354 -370 349 -385.5 Q 344 -401 334.5 -415.5 Q 325 -430 312 -440 Q 299 -450 282.5 -454 Q 266 -458 249 -458 Q 232 -458 215.5 -454 Q 199 -450 185 -440.5 Q 171 -431 160.5 -417 Q 150 -403 144 -387 Q 138 -371 136 -354 Q 134 -337 134 -320 L 134 -200 Q 134 -183 136 -166 Q 138 -149 144 -133 Q 150 -117 160.5 -103 Q 171 -89 185 -79.5 Q 199 -70 215.5 -66 Q 232 -62 249 -62 Z M 64 184 L 64 116 L 436 116 L 436 184 Z " id="path28"/>
<path d="M 247 8 Q 221 8 194.5 3 Q 168 -2 145 -15 Q 122 -28 104 -48 Q 86 -68 75 -92 Q 64 -116 60 -142.5 Q 56 -169 56 -195 L 56 -540 Q 56 -566 60 -592.5 Q 64 -619 75 -643 Q 86 -667 104 -687 Q 122 -707 145 -720 Q 168 -733 194.5 -738 Q 221 -743 247 -743 Q 272 -743 296.5 -739 Q 321 -735 343.5 -724 Q 366 -713 384.5 -696 Q 403 -679 414.5 -657 Q 426 -635 432 -611 Q 438 -587 438 -562 L 438 -559 L 360 -559 L 360 -561 Q 360 -583 352.5 -605 Q 345 -627 329.5 -643 Q 314 -659 292 -666 Q 270 -673 247 -673 Q 222 -673 198.5 -663.5 Q 175 -654 160 -634 Q 145 -614 139.5 -589.5 Q 134 -565 134 -540 L 134 -195 Q 134 -170 139.5 -145.5 Q 145 -121 160 -101 Q 175 -81 198.5 -71.5 Q 222 -62 247 -62 Q 270 -62 292 -69 Q 314 -76 329.5 -92 Q 345 -108 352.5 -130 Q 360 -152 360 -174 L 360 -176 L 438 -176 L 438 -173 Q 438 -148 432 -124 Q 426 -100 414.5 -78 Q 403 -56 384.5 -39 Q 366 -22 343.5 -11 Q 321 0 296.5 4 Q 272 8 247 8 Z M 18 -409 L 18 -473 L 248 -473 L 248 -409 Z M 248 -262 L 18 -262 L 18 -326 L 248 -326 Z " id="path29"/>
<path d="M 80 0 L 80 -735 L 157 -735 L 157 -398 L 357 -735 L 445 -735 L 247 -402 L 445 0 L 361 0 L 201 -324 L 157 -252 L 157 0 Z M 32 -336 L 32 -400 L 468 -400 L 468 -336 Z " id="path30"/>
<path d="M 211 0 L 211 -665 L 58 -665 L 58 -735 L 442 -735 L 442 -665 L 289 -665 L 289 0 Z M 101 -386 L 101 -453 L 399 -526 L 399 -459 Z M 101 -202 L 101 -269 L 399 -343 L 399 -275 Z " id="path31"/>
<path d="M 14 0 L 14 -735 L 71 -735 Q 96 -735 120 -728 Q 144 -721 164 -704.5 Q 184 -688 196.5 -666.5 Q 209 -645 217 -620.5 Q 225 -596 227.5 -571 Q 230 -546 230 -521 L 230 -215 Q 230 -189 227.5 -164 Q 225 -139 217 -114.5 Q 209 -90 196.5 -68.5 Q 184 -47 164 -30.5 Q 144 -14 120 -7 Q 96 0 71 0 Z M 71 -70 Q 87 -70 103 -75 Q 119 -80 132 -91.5 Q 145 -103 153 -117.5 Q 161 -132 165.5 -148.5 Q 170 -165 172 -181.5 Q 174 -198 174 -215 L 174 -521 Q 174 -537 172 -553.5 Q 170 -570 165.5 -586.5 Q 161 -603 153 -617.5 Q 145 -632 132 -643.5 Q 119 -655 103 -660 Q 87 -665 71 -665 Z M 276 215 L 276 -320 Q 276 -336 276.5 -352 Q 277 -368 279 -384.5 Q 281 -401 284.5 -416.5 Q 288 -432 293 -447.5 Q 298 -463 305.5 -477.5 Q 313 -492 324 -503.5 Q 335 -515 350.5 -521.5 Q 366 -528 382 -528 Q 404 -528 423 -516.5 Q 442 -505 454.5 -487.5 Q 467 -470 474 -449 Q 481 -428 485 -406.5 Q 489 -385 490.5 -363.5 Q 492 -342 492 -320 L 492 -200 Q 492 -185 491.5 -169.5 Q 491 -154 489.5 -138.5 Q 488 -123 485.5 -108 Q 483 -93 479.5 -78 Q 476 -63 470 -49 Q 464 -35 455.5 -22 Q 447 -9 433.5 -0.5 Q 420 8 405 8 Q 389 8 375.5 -1.5 Q 362 -11 354.5 -24 Q 347 -37 341.5 -52 Q 336 -67 333 -82 L 333 215 Z M 382 -62 Q 395 -62 405 -72 Q 415 -82 420 -94.5 Q 425 -107 428 -120 Q 431 -133 433 -146.5 Q 435 -160 435.5 -173.5 Q 436 -187 436 -200 L 436 -320 Q 436 -333 435.5 -346.5 Q 435 -360 433 -373.5 Q 431 -387 428.5 -400 Q 426 -413 420.5 -425.5 Q 415 -438 405.5 -448 Q 396 -458 382 -458 Q 372 -458 364 -451.5 Q 356 -445 351.5 -436.5 Q 347 -428 344 -418.5 Q 341 -409 339 -399 Q 337 -389 336 -379.5 Q 335 -370 334 -360 Q 333 -350 333 -340 Q 333 -330 333 -320 L 333 -200 Q 333 -190 333 -180 Q 333 -170 334 -160.5 Q 335 -151 336 -141 Q 337 -131 339 -121.5 Q 341 -112 344 -102 Q 347 -92 351.5 -83.5 Q 356 -75 364 -68.5 Q 372 -62 382 -62 Z " id="path32"/>
<path d="M 80 0 L 80 -463 L 32 -463 L 32 -497 L 80 -497 L 80 -542 L 32 -542 L 32 -576 L 80 -576 L 80 -735 L 256 -735 Q 279 -735 301.5 -731.5 Q 324 -728 345 -718.5 Q 366 -709 383.5 -694.5 Q 401 -680 414.5 -661 Q 428 -642 436 -620.5 Q 444 -599 448 -576 L 476 -576 L 476 -542 L 451 -542 Q 452 -536 452 -530.5 Q 452 -525 452 -520 Q 452 -514 452 -508.5 Q 452 -503 451 -497 L 476 -497 L 476 -463 L 448 -463 Q 444 -440 436 -418.5 Q 428 -397 414.5 -378.5 Q 401 -360 383.5 -345 Q 366 -330 345 -320.5 Q 324 -311 301.5 -307.5 Q 279 -304 256 -304 L 158 -304 L 158 0 Z M 368 -576 Q 363 -595 353 -612 Q 343 -629 328 -641.5 Q 313 -654 294 -659.5 Q 275 -665 256 -665 L 158 -665 L 158 -576 Z M 158 -497 L 373 -497 Q 374 -503 374 -508.5 Q 374 -514 374 -520 Q 374 -525 374 -530.5 Q 374 -536 373 -542 L 158 -542 Z M 158 -374 L 256 -374 Q 275 -374 294 -379.5 Q 313 -385 328 -397.5 Q 343 -410 353 -427 Q 363 -444 368 -463 L 158 -463 Z " id="path33"/>
<path d="M 219 8 Q 194 8 170 1.5 Q 146 -5 126 -19.5 Q 106 -34 92 -54.5 Q 78 -75 70 -98 Q 62 -121 59 -145.5 Q 56 -170 56 -195 L 56 -540 Q 56 -566 60 -592.5 Q 64 -619 75 -643 Q 86 -667 104 -687 Q 122 -707 145 -720 Q 168 -733 194.5 -738 Q 221 -743 247 -743 Q 272 -743 296.5 -739 Q 321 -735 343.5 -724 Q 366 -713 384.5 -696 Q 403 -679 414.5 -657 Q 426 -635 432 -611 Q 438 -587 438 -562 L 438 -559 L 360 -559 L 360 -561 Q 360 -583 352.5 -605 Q 345 -627 329.5 -643 Q 314 -659 292 -666 Q 270 -673 247 -673 Q 222 -673 198.5 -663.5 Q 175 -654 160 -634 Q 145 -614 139.5 -589.5 Q 134 -565 134 -540 L 134 -195 Q 134 -178 136 -161.5 Q 138 -145 144.5 -129.5 Q 151 -114 161.5 -101 Q 172 -88 186 -79 Q 200 -70 216.5 -66 Q 233 -62 249 -62 Q 265 -62 281.5 -66 Q 298 -70 311 -79.5 Q 324 -89 333.5 -102.5 Q 343 -116 348.5 -131 Q 354 -146 356 -162.5 Q 358 -179 358 -195 L 358 -330 L 250 -330 L 250 -400 L 436 -400 L 436 0 L 367 0 L 367 -115 Q 360 -90 347.5 -66.5 Q 335 -43 315.5 -25.5 Q 296 -8 270.5 0 Q 245 8 219 8 Z M 228 73 L 228 -809 L 272 -809 L 272 73 Z " id="path34"/>
<path d="M 44 0 L 93 -225 L 32 -225 L 32 -290 L 107 -290 L 120 -346 L 32 -346 L 32 -411 L 134 -411 L 205 -735 L 295 -735 L 349 -490 L 366 -411 L 468 -411 L 468 -346 L 380 -346 L 393 -290 L 468 -290 L 468 -225 L 407 -225 L 456 0 L 376 0 L 330 -225 L 170 -225 L 124 0 Z M 208 -411 L 292 -411 L 276 -490 Q 269 -522 262.5 -554 Q 256 -586 250 -618 Q 244 -586 237.5 -554 Q 231 -522 224 -490 Z M 317 -290 L 305 -346 L 195 -346 L 183 -290 Z " id="path35"/>
<path d="M 247 8 Q 222 8 197 3.5 Q 172 -1 149.5 -12 Q 127 -23 109 -41 Q 91 -59 79 -81 Q 67 -103 61.5 -128 Q 56 -153 56 -178 Q 56 -203 62.5 -228.5 Q 69 -254 81 -276.5 Q 93 -299 110.5 -318 Q 128 -337 148 -353 Q 168 -369 190.5 -382 Q 213 -395 235.5 -407 Q 258 -419 280.5 -432.5 Q 303 -446 320.5 -464.5 Q 338 -483 348.5 -507.5 Q 359 -532 359 -557 Q 359 -580 352 -602 Q 345 -624 330 -640.5 Q 315 -657 293 -665 Q 271 -673 249 -673 Q 227 -673 205.5 -666 Q 184 -659 169 -643.5 Q 154 -628 147 -606.5 Q 140 -585 140 -564 L 140 -561 L 62 -561 L 62 -565 Q 62 -589 67.5 -613 Q 73 -637 85 -658.5 Q 97 -680 114.5 -697 Q 132 -714 154 -724.5 Q 176 -735 200.5 -739 Q 225 -743 249 -743 Q 274 -743 298.5 -738.5 Q 323 -734 345 -722.5 Q 367 -711 384.5 -693 Q 402 -675 413.5 -653 Q 425 -631 430.5 -606.5 Q 436 -582 436 -558 Q 436 -532 429.5 -507 Q 423 -482 411 -459 Q 399 -436 381.5 -417 Q 364 -398 344 -382 Q 324 -366 301.5 -353 Q 279 -340 256.5 -328 Q 234 -316 211.5 -302.5 Q 189 -289 171.5 -270.5 Q 154 -252 143.5 -227.5 Q 133 -203 133 -178 Q 133 -155 140.5 -132.5 Q 148 -110 164 -93.5 Q 180 -77 202 -69.5 Q 224 -62 247 -62 Q 269 -62 291 -68.5 Q 313 -75 329 -90.5 Q 345 -106 352.5 -127.5 Q 360 -149 360 -171 L 360 -174 L 438 -174 L 438 -170 Q 438 -145 432 -121 Q 426 -97 414 -75.5 Q 402 -54 383.5 -37.5 Q 365 -21 343 -10.5 Q 321 0 296.5 4 Q 272 8 247 8 Z M 32 -413 L 32 -478 L 468 -478 L 468 -413 Z M 468 -257 L 32 -257 L 32 -322 L 468 -322 Z " id="path36"/>
<path d="M 247 8 Q 221 8 194.5 3 Q 168 -2 145 -15 Q 122 -28 104 -48 Q 86 -68 75 -92 Q 64 -116 60 -142.5 Q 56 -169 56 -195 L 56 -540 Q 56 -566 60 -592.5 Q 64 -619 75 -643 Q 86 -667 104 -687 Q 122 -707 145 -720 Q 168 -733 194.5 -738 Q 221 -743 247 -743 Q 272 -743 296.5 -739 Q 321 -735 343.5 -724 Q 366 -713 384.5 -696 Q 403 -679 414.5 -657 Q 426 -635 432 -611 Q 438 -587 438 -562 L 438 -559 L 360 -559 L 360 -561 Q 360 -583 352.5 -605 Q 345 -627 329.5 -643 Q 314 -659 292 -666 Q 270 -673 247 -673 Q 222 -673 198.5 -663.5 Q 175 -654 160 -634 Q 145 -614 139.5 -589.5 Q 134 -565 134 -540 L 134 -195 Q 134 -170 139.5 -145.5 Q 145 -121 160 -101 Q 175 -81 198.5 -71.5 Q 222 -62 247 -62 Q 270 -62 292 -69 Q 314 -76 329.5 -92 Q 345 -108 352.5 -130 Q 360 -152 360 -174 L 360 -176 L 438 -176 L 438 -173 Q 438 -148 432 -124 Q 426 -100 414.5 -78 Q 403 -56 384.5 -39 Q 366 -22 343.5 -11 Q 321 0 296.5 4 Q 272 8 247 8 Z M 228 73 L 228 -809 L 272 -809 L 272 73 Z " id="path37"/>
<path d="M 58 -670 L 58 -735 L 442 -735 L 442 -670 Z M 211 0 L 211 -527 L 58 -527 L 58 -597 L 442 -597 L 442 -527 L 289 -527 L 289 0 Z " id="path38"/>
<path d="M 370 0 L 171 -304 L 64 -304 L 64 -374 L 193 -374 Q 216 -374 237 -381.5 Q 258 -389 274 -405 Q 290 -421 298.5 -441.5 Q 307 -462 310 -485 L 64 -485 L 64 -555 L 310 -555 Q 307 -577 298.5 -597.5 Q 290 -618 274 -634 Q 258 -650 237 -657.5 Q 216 -665 193 -665 L 64 -665 L 64 -735 L 436 -735 L 436 -665 L 349 -665 Q 367 -641 376 -612.5 Q 385 -584 388 -555 L 436 -555 L 436 -485 L 388 -485 Q 385 -456 376 -428 Q 367 -400 350.5 -376.5 Q 334 -353 309.5 -336 Q 285 -319 257 -311 L 460 0 Z " id="path39"/>
<path d="M 80 0 L 80 -138 L 18 -138 L 18 -203 L 80 -203 L 80 -304 L 18 -304 L 18 -374 L 80 -374 L 80 -735 L 256 -735 Q 283 -735 310.5 -729.5 Q 338 -724 362 -710 Q 386 -696 404 -674.5 Q 422 -653 433 -627.5 Q 444 -602 448 -574.5 Q 452 -547 452 -520 Q 452 -492 448 -464.5 Q 444 -437 433 -411.5 Q 422 -386 404 -364.5 Q 386 -343 362 -329 Q 338 -315 310.5 -309.5 Q 283 -304 256 -304 L 158 -304 L 158 -203 L 362 -203 L 362 -138 L 158 -138 L 158 0 Z M 158 -374 L 256 -374 Q 274 -374 291 -378.5 Q 308 -383 322.5 -393 Q 337 -403 347.5 -418 Q 358 -433 364 -449.5 Q 370 -466 372 -484 Q 374 -502 374 -520 Q 374 -537 372 -555 Q 370 -573 364 -589.5 Q 358 -606 347.5 -621 Q 337 -636 322.5 -646 Q 308 -656 291 -660.5 Q 274 -665 256 -665 L 158 -665 Z " id="path40"/>
<path d="M 158 107 L 158 0 L 64 0 L 64 -735 L 158 -735 L 158 -843 L 212 -843 L 212 -735 L 233 -735 Q 243 -735 253 -734.5 Q 263 -734 274 -733 L 274 -843 L 327 -843 L 327 -717 Q 352 -706 371.5 -687.5 Q 391 -669 403.5 -645.5 Q 416 -622 421 -595.5 Q 426 -569 426 -542 Q 426 -518 421.5 -493.5 Q 417 -469 405 -447.5 Q 393 -426 374.5 -409.5 Q 356 -393 334 -383 Q 361 -373 384.5 -356 Q 408 -339 423.5 -315 Q 439 -291 445.5 -263 Q 452 -235 452 -206 Q 452 -175 445.5 -145 Q 439 -115 422.5 -89 Q 406 -63 381 -44 Q 356 -25 327 -14 L 327 107 L 274 107 L 274 -2 Q 263 -0 253 0 Q 243 0 233 0 L 212 0 L 212 107 Z M 233 -415 Q 249 -415 265 -418.5 Q 281 -422 295 -430 Q 309 -438 320 -450.5 Q 331 -463 337.5 -477.5 Q 344 -492 346.5 -508.5 Q 349 -525 349 -541 Q 349 -557 346.5 -573 Q 344 -589 337.5 -604 Q 331 -619 320 -631 Q 309 -643 295 -651 Q 281 -659 265 -662.5 Q 249 -666 233 -666 L 141 -666 L 141 -415 Z M 233 -69 Q 252 -69 270.5 -72.5 Q 289 -76 306 -84 Q 323 -92 337 -105 Q 351 -118 359.5 -134.5 Q 368 -151 371.5 -170 Q 375 -189 375 -208 Q 375 -226 371.5 -245 Q 368 -264 359.5 -280.5 Q 351 -297 337 -310.5 Q 323 -324 306 -332 Q 289 -340 270.5 -343 Q 252 -346 233 -346 L 141 -346 L 141 -69 Z " id="path41"/>
<path d="M 247 8 Q 221 8 194 2.5 Q 167 -3 144 -16.5 Q 121 -30 103.5 -50.5 Q 86 -71 75 -95.5 Q 64 -120 60 -146.5 Q 56 -173 56 -200 L 56 -320 Q 56 -347 60 -373.5 Q 64 -400 75 -424.5 Q 86 -449 103.5 -469.5 Q 121 -490 144 -503.5 Q 167 -517 194 -522.5 Q 221 -528 247 -528 Q 272 -528 297 -523.5 Q 322 -519 344.5 -508 Q 367 -497 385 -479.5 Q 403 -462 415 -440 Q 427 -418 432.5 -393.5 Q 438 -369 438 -344 L 438 -342 L 360 -342 L 360 -343 Q 360 -366 353 -388 Q 346 -410 330 -426.5 Q 314 -443 292 -450.5 Q 270 -458 247 -458 Q 230 -458 213.5 -454 Q 197 -450 183 -440 Q 169 -430 159.5 -416 Q 150 -402 144 -386.5 Q 138 -371 136 -354 Q 134 -337 134 -320 L 134 -200 Q 134 -183 136 -166 Q 138 -149 144 -133.5 Q 150 -118 159.5 -104 Q 169 -90 183 -80 Q 197 -70 213.5 -66 Q 230 -62 247 -62 Q 270 -62 292 -69.5 Q 314 -77 330 -93.5 Q 346 -110 353 -132 Q 360 -154 360 -177 L 360 -178 L 438 -178 L 438 -176 Q 438 -151 432.5 -126.5 Q 427 -102 415 -80 Q 403 -58 385 -40.5 Q 367 -23 344.5 -12 Q 322 -1 297 3.5 Q 272 8 247 8 Z M 64 184 L 64 116 L 436 116 L 436 184 Z " id="path42"/>
</defs>
<g>
<g data-source-text="0" fill="#20242e" transform="translate(174 41.292) rotate(0) scale(0.023999998)">
<use href="#path1" transform="translate(0 0)"/>
</g>
</g>
<g>
<g data-source-text="1" fill="#20242e" transform="translate(246 41.292) rotate(0) scale(0.023999998)">
<use href="#path2" transform="translate(0 0)"/>
</g>
</g>
<g>
<g data-source-text="2" fill="#20242e" transform="translate(318 41.292) rotate(0) scale(0.023999998)">
<use href="#path3" transform="translate(0 0)"/>
</g>
</g>
<g>
<g data-source-text="3" fill="#20242e" transform="translate(390 41.292) rotate(0) scale(0.023999998)">
<use href="#path4" transform="translate(0 0)"/>
</g>
</g>
<g>
<g data-source-text="4" fill="#20242e" transform="translate(462 41.292) rotate(0) scale(0.023999998)">
<use href="#path5" transform="translate(0 0)"/>
</g>
</g>
<g>
<g data-source-text="5" fill="#20242e" transform="translate(534 41.292) rotate(0) scale(0.023999998)">
<use href="#path6" transform="translate(0 0)"/>
</g>
</g>
<g>
<g data-source-text="6" fill="#20242e" transform="translate(606 41.292) rotate(0) scale(0.023999998)">
<use href="#path7" transform="translate(0 0)"/>
</g>
</g>
<g>
<g data-source-text="7" fill="#20242e" transform="translate(678 41.292) rotate(0) scale(0.023999998)">
<use href="#path8" transform="translate(0 0)"/>
</g>
</g>
<g>
<g data-source-text="8" fill="#20242e" transform="translate(750 41.292) rotate(0) scale(0.023999998)">
<use href="#path9" transform="translate(0 0)"/>
</g>
</g>
<g>
<g data-source-text="9" fill="#20242e" transform="translate(822 41.292) rotate(0) scale(0.023999998)">
<use href="#path10" transform="translate(0 0)"/>
</g>
</g>
<g>
<g data-source-text="A" fill="#20242e" transform="translate(894 41.292) rotate(0) scale(0.023999998)">
<use href="#path11" transform="translate(0 0)"/>
</g>
</g>
<g>
<g data-source-text="B" fill="#20242e" transform="translate(966 41.292) rotate(0) scale(0.023999998)">
<use href="#path12" transform="translate(0 0)"/>
</g>
</g>
<g>
<g data-source-text="C" fill="#20242e" transform="translate(1038 41.292) rotate(0) scale(0.023999998)">
<use href="#path13" transform="translate(0 0)"/>
</g>
</g>
<g>
<g data-source-text="D" fill="#20242e" transform="translate(1110 41.292) rotate(0) scale(0.023999998)">
<use href="#path14" transform="translate(0 0)"/>
</g>
</g>
<g>
<g data-source-text="E" fill="#20242e" transform="translate(1182 41.292) rotate(0) scale(0.023999998)">
<use href="#path15" transform="translate(0 0)"/>
</g>
</g>
<g>
<g data-source-text="F" fill="#20242e" transform="translate(1254 41.292) rotate(0) scale(0.023999998)">
<use href="#path16" transform="translate(0 0)"/>
</g>
</g>
<g>
<g data-source-text="U+20A0" fill="#20242e" transform="translate(36 113.292) rotate(0) scale(0.023999998)">
<use href="#path17" transform="translate(0 0)"/>
<use href="#path18" transform="translate(500 0)"/>
<use href="#path3" transform="translate(1000 0)"/>
<use href="#path1" transform="translate(1500 0)"/>
<use href="#path11" transform="translate(2000 0)"/>
<use href="#path1" transform="translate(2500 0)"/>
</g>
</g>
<g>
<g data-source-text="" fill="#20242e40" transform="translate(168 118.584) rotate(0) scale(0.047999997)">
<use href="#path19" transform="translate(0 0)"/>
</g>
</g>
<g>
<g data-source-text="₡" fill="#20242e" transform="translate(240 118.584) rotate(0) scale(0.047999997)">
<use href="#path20" transform="translate(0 0)"/>
</g>
</g>
<g>
<g data-source-text="" fill="#20242e40" transform="translate(312 118.584) rotate(0) scale(0.047999997)">
<use href="#path19" transform="translate(0 0)"/>
</g>
</g>
<g>
<g data-source-text="₣" fill="#20242e" transform="translate(384 118.584) rotate(0) scale(0.047999997)">
<use href="#path21" transform="translate(0 0)"/>
</g>
</g>
<g>
<g data-source-text="₤" fill="#20242e" transform="translate(456 118.584) rotate(0) scale(0.047999997)">
<use href="#path22" transform="translate(0 0)"/>
</g>
</g>
<g>
<g data-source-text="₥" fill="#20242e" transform="translate(528 118.584) rotate(0) scale(0.047999997)">
<use href="#path23" transform="translate(0 0)"/>
</g>
</g>
<g>
<g data-source-text="₦" fill="#20242e" transform="translate(600 118.584) rotate(0) scale(0.047999997)">
<use href="#path24" transform="translate(0 0)"/>
</g>
</g>
<g>
<g data-source-text="₧" fill="#20242e" transform="translate(672 118.584) rotate(0) scale(0.047999997)">
<use href="#path25" transform="translate(0 0)"/>
</g>
</g>
<g>
<g data-source-text="₨" fill="#20242e" transform="translate(744 118.584) rotate(0) scale(0.047999997)">
<use href="#path26" transform="translate(0 0)"/>
</g>
</g>
<g>
<g data-source-text="₩" fill="#20242e" transform="translate(816 118.584) rotate(0) scale(0.047999997)">
<use href="#path27" transform="translate(0 0)"/>
</g>
</g>
<g>
<g data-source-text="" fill="#20242e40" transform="translate(888 118.584) rotate(0) scale(0.047999997)">
<use href="#path19" transform="translate(0 0)"/>
</g>
</g>
<g>
<g data-source-text="₫" fill="#20242e" transform="translate(960 118.584) rotate(0) scale(0.047999997)">
<use href="#path28" transform="translate(0 0)"/>
</g>
</g>
<g>
<g data-source-text="€" fill="#20242e" transform="translate(1032 118.584) rotate(0) scale(0.047999997)">
<use href="#path29" transform="translate(0 0)"/>
</g>
</g>
<g>
<g data-source-text="₭" fill="#20242e" transform="translate(1104 118.584) rotate(0) scale(0.047999997)">
<use href="#path30" transform="translate(0 0)"/>
</g>
</g>
<g>
<g data-source-text="₮" fill="#20242e" transform="translate(1176 118.584) rotate(0) scale(0.047999997)">
<use href="#path31" transform="translate(0 0)"/>
</g>
</g>
<g>
<g data-source-text="₯" fill="#20242e" transform="translate(1248 118.584) rotate(0) scale(0.047999997)">
<use href="#path32" transform="translate(0 0)"/>
</g>
</g>
<g>
<g data-source-text="U+20B0" fill="#20242e" transform="translate(36 185.292) rotate(0) scale(0.023999998)">
<use href="#path17" transform="translate(0 0)"/>
<use href="#path18" transform="translate(500 0)"/>
<use href="#path3" transform="translate(1000 0)"/>
<use href="#path1" transform="translate(1500 0)"/>
<use href="#path12" transform="translate(2000 0)"/>
<use href="#path1" transform="translate(2500 0)"/>
</g>
</g>
<g>
<g data-source-text="" fill="#20242e40" transform="translate(168 190.584) rotate(0) scale(0.047999997)">
<use href="#path19" transform="translate(0 0)"/>
</g>
</g>
<g>
<g data-source-text="₱" fill="#20242e" transform="translate(240 190.584) rotate(0) scale(0.047999997)">
<use href="#path33" transform="translate(0 0)"/>
</g>
</g>
<g>
<g data-source-text="₲" fill="#20242e" transform="translate(312 190.584) rotate(0) scale(0.047999997)">
<use href="#path34" transform="translate(0 0)"/>
</g>
</g>
<g>
<g data-source-text="₳" fill="#20242e" transform="translate(384 190.584) rotate(0) scale(0.047999997)">
<use href="#path35" transform="translate(0 0)"/>
</g>
</g>
<g>
<g data-source-text="₴" fill="#20242e" transform="translate(456 190.584) rotate(0) scale(0.047999997)">
<use href="#path36" transform="translate(0 0)"/>
</g>
</g>
<g>
<g data-source-text="₵" fill="#20242e" transform="translate(528 190.584) rotate(0) scale(0.047999997)">
<use href="#path37" transform="translate(0 0)"/>
</g>
</g>
<g>
<g data-source-text="" fill="#20242e40" transform="translate(600 190.584) rotate(0) scale(0.047999997)">
<use href="#path19" transform="translate(0 0)"/>
</g>
</g>
<g>
<g data-source-text="" fill="#20242e40" transform="translate(672 190.584) rotate(0) scale(0.047999997)">
<use href="#path19" transform="translate(0 0)"/>
</g>
</g>
<g>
<g data-source-text="₸" fill="#20242e" transform="translate(744 190.584) rotate(0) scale(0.047999997)">
<use href="#path38" transform="translate(0 0)"/>
</g>
</g>
<g>
<g data-source-text="₹" fill="#20242e" transform="translate(816 190.584) rotate(0) scale(0.047999997)">
<use href="#path39" transform="translate(0 0)"/>
</g>
</g>
<g>
<g data-source-text="" fill="#20242e40" transform="translate(888 190.584) rotate(0) scale(0.047999997)">
<use href="#path19" transform="translate(0 0)"/>
</g>
</g>
<g>
<g data-source-text="" fill="#20242e40" transform="translate(960 190.584) rotate(0) scale(0.047999997)">
<use href="#path19" transform="translate(0 0)"/>
</g>
</g>
<g>
<g data-source-text="" fill="#20242e40" transform="translate(1032 190.584) rotate(0) scale(0.047999997)">
<use href="#path19" transform="translate(0 0)"/>
</g>
</g>
<g>
<g data-source-text="₽" fill="#20242e" transform="translate(1104 190.584) rotate(0) scale(0.047999997)">
<use href="#path40" transform="translate(0 0)"/>
</g>
</g>
<g>
<g data-source-text="" fill="#20242e40" transform="translate(1176 190.584) rotate(0) scale(0.047999997)">
<use href="#path19" transform="translate(0 0)"/>
</g>
</g>
<g>
<g data-source-text="₿" fill="#20242e" transform="translate(1248 190.584) rotate(0) scale(0.047999997)">
<use href="#path41" transform="translate(0 0)"/>
</g>
</g>
<g>
<g data-source-text="U+20C0" fill="#20242e" transform="translate(36 257.292) rotate(0) scale(0.023999998)">
<use href="#path17" transform="translate(0 0)"/>
<use href="#path18" transform="translate(500 0)"/>
<use href="#path3" transform="translate(1000 0)"/>
<use href="#path1" transform="translate(1500 0)"/>
<use href="#path13" transform="translate(2000 0)"/>
<use href="#path1" transform="translate(2500 0)"/>
</g>
</g>
<g>
<g data-source-text="⃀" fill="#20242e" transform="translate(168 262.584) rotate(0) scale(0.047999997)">
<use href="#path42" transform="translate(0 0)"/>
</g>
</g>
<g>
<g data-source-text="" fill="#20242e40" transform="translate(240 262.584) rotate(0) scale(0.047999997)">
<use href="#path19" transform="translate(0 0)"/>
</g>
</g>
<g>
<g data-source-text="" fill="#20242e40" transform="translate(312 262.584) rotate(0) scale(0.047999997)">
<use href="#path19" transform="translate(0 0)"/>
</g>
</g>
<g>
<g data-source-text="" fill="#20242e40" transform="translate(384 262.584) rotate(0) scale(0.047999997)">
<use href="#path19" transform="translate(0 0)"/>
</g>
</g>
<g>
<g data-source-text="" fill="#20242e40" transform="translate(456 262.584) rotate(0) scale(0.047999997)">
<use href="#path19" transform="translate(0 0)"/>
</g>
</g>
<g>
<g data-source-text="" fill="#20242e40" transform="translate(528 262.584) rotate(0) scale(0.047999997)">
<use href="#path19" transform="translate(0 0)"/>
</g>
</g>
<g>
<g data-source-text="" fill="#20242e40" transform="translate(600 262.584) rotate(0) scale(0.047999997)">
<use href="#path19" transform="translate(0 0)"/>
</g>
</g>
<g>
<g data-source-text="" fill="#20242e40" transform="translate(672 262.584) rotate(0) scale(0.047999997)">
<use href="#path19" transform="translate(0 0)"/>
</g>
</g>
<g>
<g data-source-text="" fill="#20242e40" transform="translate(744 262.584) rotate(0) scale(0.047999997)">
<use href="#path19" transform="translate(0 0)"/>
</g>
</g>
<g>
<g data-source-text="" fill="#20242e40" transform="translate(816 262.584) rotate(0) scale(0.047999997)">
<use href="#path19" transform="translate(0 0)"/>
</g>
</g>
<g>
<g data-source-text="" fill="#20242e40" transform="translate(888 262.584) rotate(0) scale(0.047999997)">
<use href="#path19" transform="translate(0 0)"/>
</g>
</g>
<g>
<g data-source-text="" fill="#20242e40" transform="translate(960 262.584) rotate(0) scale(0.047999997)">
<use href="#path19" transform="translate(0 0)"/>
</g>
</g>
<g>
<g data-source-text="" fill="#20242e40" transform="translate(1032 262.584) rotate(0) scale(0.047999997)">
<use href="#path19" transform="translate(0 0)"/>
</g>
</g>
<g>
<g data-source-text="" fill="#20242e40" transform="translate(1104 262.584) rotate(0) scale(0.047999997)">
<use href="#path19" transform="translate(0 0)"/>
</g>
</g>
<g>
<g data-source-text="" fill="#20242e40" transform="translate(1176 262.584) rotate(0) scale(0.047999997)">
<use href="#path19" transform="translate(0 0)"/>
</g>
</g>
<g>
<g data-source-text="" fill="#20242e40" transform="translate(1248 262.584) rotate(0) scale(0.047999997)">
<use href="#path19" transform="translate(0 0)"/>
</g>
</g>
</svg>