<?xml version="1.0" encoding="UTF-8" standalone="no"?>
<svg height="576" viewBox="0 0 1296 576" width="1296" xmlns="http://www.w3.org/2000/svg">
<defs>
<path d="M 250 8 Q 223 8 196 3 Q 169 -2 145 -15 Q 121 -28 102.5 -48.5 Q 84 -69 72.5 -94 Q 61 -119 56.5 -146 Q 52 -173 52 -200 L 52 -535 Q 52 -562 56.5 -589 Q 61 -616 72.5 -641 Q 84 -666 102.5 -686.5 Q 121 -707 145 -720 Q 169 -733 196 -738 Q 223 -743 250 -743 Q 277 -743 304 -738 Q 331 -733 355 -720 Q 379 -707 397.5 -686.5 Q 416 -666 427.5 -641 Q 439 -616 443.5 -589 Q 448 -562 448 -535 L 448 -200 Q 448 -173 443.5 -146 Q 439 -119 427.5 -94 Q 416 -69 397.5 -48.5 Q 379 -28 355 -15 Q 331 -2 304 3 Q 277 8 250 8 Z M 152 -338 L 348 -493 L 348 -535 Q 348 -557 343 -579 Q 338 -601 325.5 -618.5 Q 313 -636 292.5 -645.5 Q 272 -655 250 -655 Q 228 -655 207.5 -645.5 Q 187 -636 174.5 -618.5 Q 162 -601 157 -579 Q 152 -557 152 -535 Z M 250 -80 Q 272 -80 292.5 -89.5 Q 313 -99 325.5 -116.5 Q 338 -134 343 -156 Q 348 -178 348 -200 L 348 -397 L 152 -242 L 152 -200 Q 152 -178 157 -156 Q 162 -134 174.5 -116.5 Q 187 -99 207.5 -89.5 Q 228 -80 250 -80 Z " id="path1"/>
<path d="M 230 0 L 230 -632 L 110 -528 L 55 -584 L 230 -735 L 330 -735 L 330 0 Z " id="path2"/>
<path d="M 60 0 L 60 -1 Q 60 -27 61 -54 Q 62 -81 65.5 -107 Q 69 -133 77 -158.5 Q 85 -184 96.5 -208 Q 108 -232 123 -253.5 Q 138 -275 156 -294.5 Q 174 -314 194 -331 Q 214 -348 235.5 -364 Q 257 -380 277.5 -397 Q 298 -414 313 -435.5 Q 328 -457 336 -483 Q 344 -509 344 -535 Q 344 -557 339.5 -578 Q 335 -599 323.5 -617 Q 312 -635 292 -645 Q 272 -655 251 -655 Q 231 -655 212.5 -647.5 Q 194 -640 181.5 -625 Q 169 -610 163.5 -591 Q 158 -572 158 -552 L 158 -548 L 58 -548 L 58 -555 Q 58 -581 63.5 -606 Q 69 -631 81 -653 Q 93 -675 111.5 -693 Q 130 -711 152.5 -722.5 Q 175 -734 200.5 -738.5 Q 226 -743 251 -743 Q 278 -743 304.5 -737.5 Q 331 -732 354.5 -719 Q 378 -706 396 -685.5 Q 414 -665 425 -640.5 Q 436 -616 440 -589 Q 444 -562 444 -535 Q 444 -501 435 -468 Q 426 -435 407.5 -406 Q 389 -377 364 -353.5 Q 339 -330 312.5 -308.5 Q 286 -287 261 -264 Q 236 -241 216 -213 Q 196 -185 183 -153.5 Q 170 -122 165 -88 L 440 -88 L 440 0 Z " id="path3"/>
<path d="M 253 8 Q 227 8 201 4 Q 175 -0 151 -11.5 Q 127 -23 107.5 -40.5 Q 88 -58 75.5 -81 Q 63 -104 56.5 -129.5 Q 50 -155 50 -181 L 50 -187 L 150 -187 L 150 -184 Q 150 -163 157 -143 Q 164 -123 178 -108 Q 192 -93 212 -86.5 Q 232 -80 253 -80 Q 275 -80 296 -88.5 Q 317 -97 330.5 -114.5 Q 344 -132 350 -154 Q 356 -176 356 -198 Q 356 -217 352 -235.5 Q 348 -254 339 -271 Q 330 -288 316.5 -301 Q 303 -314 286 -322 Q 269 -330 250 -332 Q 231 -334 212 -334 L 212 -422 Q 229 -422 246 -424 Q 263 -426 278.5 -433 Q 294 -440 306 -452.5 Q 318 -465 325.5 -480.5 Q 333 -496 336.5 -513 Q 340 -530 340 -547 Q 340 -566 335.5 -585.5 Q 331 -605 320 -621.5 Q 309 -638 291 -646.5 Q 273 -655 253 -655 Q 234 -655 216 -647 Q 198 -639 187 -624 Q 176 -609 171 -590 Q 166 -571 166 -553 L 166 -548 L 66 -548 L 66 -556 Q 66 -581 71.5 -605.5 Q 77 -630 88 -652 Q 99 -674 116.5 -692.5 Q 134 -711 156.5 -722.5 Q 179 -734 203.5 -738.5 Q 228 -743 253 -743 Q 278 -743 303.5 -738 Q 329 -733 351 -721 Q 373 -709 390.5 -690 Q 408 -671 419 -648 Q 430 -625 435 -600 Q 440 -575 440 -550 Q 440 -524 434 -498.5 Q 428 -473 416 -450.5 Q 404 -428 385 -409.5 Q 366 -391 343 -379 Q 370 -368 391.5 -348.5 Q 413 -329 427.5 -304.5 Q 442 -280 449 -252 Q 456 -224 456 -196 Q 456 -168 450 -141.5 Q 444 -115 432 -91 Q 420 -67 401 -47 Q 382 -27 358 -14.5 Q 334 -2 307 3 Q 280 8 253 8 Z " id="path4"/>
<path d="M 282 0 L 282 -188 L 52 -188 L 52 -275 L 276 -735 L 377 -735 L 152 -275 L 282 -275 L 282 -435 L 383 -435 L 383 -275 L 440 -275 L 440 -188 L 383 -188 L 383 0 Z " id="path5"/>
<path d="M 252 8 Q 227 8 202.5 3.5 Q 178 -1 155.5 -12 Q 133 -23 114.5 -41 Q 96 -59 84 -80.5 Q 72 -102 65.5 -126.5 Q 59 -151 58 -176 L 159 -176 Q 160 -158 166.5 -139.5 Q 173 -121 185.5 -107 Q 198 -93 216 -86.5 Q 234 -80 252 -80 Q 269 -80 285 -87 Q 301 -94 312.5 -107 Q 324 -120 330.5 -135.5 Q 337 -151 341 -167.5 Q 345 -184 346.5 -201 Q 348 -218 348 -235 Q 348 -252 346.5 -269 Q 345 -286 341.5 -302.5 Q 338 -319 331.5 -334.5 Q 325 -350 314.5 -363 Q 304 -376 288 -383.5 Q 272 -391 256 -391 Q 240 -391 224 -387 Q 208 -383 195.5 -373.5 Q 183 -364 176 -349.5 Q 169 -335 168 -319 L 68 -319 L 68 -735 L 421 -735 L 421 -647 L 168 -647 L 168 -464 Q 189 -472 211 -475 Q 233 -478 256 -478 Q 285 -478 313.5 -470.5 Q 342 -463 365.5 -445.5 Q 389 -428 405.5 -403 Q 422 -378 431.5 -350.5 Q 441 -323 444.5 -294 Q 448 -265 448 -235 Q 448 -206 444.5 -176.5 Q 441 -147 431 -119 Q 421 -91 404.5 -66.5 Q 388 -42 364 -24.5 Q 340 -7 311 0.5 Q 282 8 252 8 Z " id="path6"/>
<path d="M 250 8 Q 221 8 192.5 1.5 Q 164 -5 140 -21 Q 116 -37 98.5 -60.5 Q 81 -84 70.5 -111 Q 60 -138 56 -166.5 Q 52 -195 52 -224 Q 52 -268 59.5 -311 Q 67 -354 81 -395.5 Q 95 -437 113 -477 Q 131 -517 150 -556 L 238 -735 L 347 -735 L 240 -517 Q 228 -492 216 -467 Q 204 -442 194 -416 Q 212 -436 238.5 -446 Q 265 -456 292 -456 Q 318 -456 343.5 -447 Q 369 -438 387.5 -419.5 Q 406 -401 418 -377 Q 430 -353 436.5 -328 Q 443 -303 445.5 -276.5 Q 448 -250 448 -224 Q 448 -195 444 -166.5 Q 440 -138 429.5 -111 Q 419 -84 401.5 -60.5 Q 384 -37 360 -21 Q 336 -5 307.5 1.5 Q 279 8 250 8 Z M 250 -80 Q 266 -80 282 -85.5 Q 298 -91 309.5 -102.5 Q 321 -114 328.5 -129 Q 336 -144 340.5 -159.5 Q 345 -175 346.5 -191.5 Q 348 -208 348 -224 Q 348 -240 346.5 -256.5 Q 345 -273 340.5 -289 Q 336 -305 328.5 -319.5 Q 321 -334 309.5 -345.5 Q 298 -357 282 -362.5 Q 266 -368 250 -368 Q 235 -368 221 -363.5 Q 207 -359 195.5 -349.5 Q 184 -340 176 -327.5 Q 168 -315 163.5 -301 Q 159 -287 156.5 -272.5 Q 154 -258 153 -243 Q 153 -238 152.5 -233.5 Q 152 -229 152 -224 Q 152 -208 153.5 -191.5 Q 155 -175 159.5 -159.5 Q 164 -144 171.5 -129 Q 179 -114 190.5 -102.5 Q 202 -91 218 -85.5 Q 234 -80 250 -80 Z " id="path7"/>
<path d="M 138 0 L 336 -647 L 60 -647 L 60 -735 L 440 -735 L 440 -647 L 242 0 Z " id="path8"/>
<path d="M 250 8 Q 225 8 200 4 Q 175 -0 152 -10 Q 129 -20 109.5 -37 Q 90 -54 77.5 -75.5 Q 65 -97 58.5 -121.5 Q 52 -146 52 -172 Q 52 -203 61.5 -232.5 Q 71 -262 88 -288.5 Q 105 -315 127 -336.5 Q 149 -358 174 -378 Q 152 -396 132.5 -417 Q 113 -438 98.5 -462.5 Q 84 -487 76 -514.5 Q 68 -542 68 -570 Q 68 -594 73.5 -617.5 Q 79 -641 90.5 -661.5 Q 102 -682 119.5 -698.5 Q 137 -715 158 -725 Q 179 -735 202.5 -739 Q 226 -743 250 -743 Q 274 -743 297.5 -739 Q 321 -735 342 -725 Q 363 -715 380.5 -698.5 Q 398 -682 409.5 -661.5 Q 421 -641 426.5 -617.5 Q 432 -594 432 -570 Q 432 -542 424 -514.5 Q 416 -487 401.5 -462.5 Q 387 -438 367.5 -417 Q 348 -396 326 -378 Q 351 -358 373 -336.5 Q 395 -315 412 -288.5 Q 429 -262 438.5 -232.5 Q 448 -203 448 -172 Q 448 -146 441.5 -121.5 Q 435 -97 422.5 -75.5 Q 410 -54 390.5 -37 Q 371 -20 348 -10 Q 325 -0 300 4 Q 275 8 250 8 Z M 250 -434 Q 266 -447 280.5 -461.5 Q 295 -476 306.5 -493 Q 318 -510 325 -529.5 Q 332 -549 332 -569 Q 332 -586 327 -602.5 Q 322 -619 310.5 -631.5 Q 299 -644 283 -649.5 Q 267 -655 250 -655 Q 233 -655 217 -649.5 Q 201 -644 189.5 -631.5 Q 178 -619 173 -602.5 Q 168 -586 168 -569 Q 168 -549 175 -529.5 Q 182 -510 193.5 -493 Q 205 -476 219.5 -461.5 Q 234 -447 250 -434 Z M 250 -80 Q 269 -80 288 -85.5 Q 307 -91 320.5 -104 Q 334 -117 341 -135.5 Q 348 -154 348 -173 Q 348 -196 339.5 -217.5 Q 331 -239 317 -257.5 Q 303 -276 285.5 -291 Q 268 -306 250 -320 Q 232 -306 214.5 -291 Q 197 -276 183 -257.5 Q 169 -239 160.5 -217.5 Q 152 -196 152 -173 Q 152 -154 159 -135.5 Q 166 -117 179.5 -104 Q 193 -91 212 -85.5 Q 231 -80 250 -80 Z " id="path9"/>
<path d="M 262 0 L 153 0 L 260 -218 Q 272 -243 284 -268 Q 296 -293 306 -319 Q 288 -299 261.5 -289 Q 235 -279 208 -279 Q 182 -279 156.5 -288 Q 131 -297 112.5 -315.5 Q 94 -334 82 -358 Q 70 -382 63.5 -407 Q 57 -432 54.5 -458.5 Q 52 -485 52 -511 Q 52 -540 56 -568.5 Q 60 -597 70.5 -624 Q 81 -651 98.5 -674.5 Q 116 -698 140 -714 Q 164 -730 192.5 -736.5 Q 221 -743 250 -743 Q 279 -743 307.5 -736.5 Q 336 -730 360 -714 Q 384 -698 401.5 -674.5 Q 419 -651 429.5 -624 Q 440 -597 444 -568.5 Q 448 -540 448 -511 Q 448 -467 440.5 -424 Q 433 -381 419 -339.5 Q 405 -298 387 -258 Q 369 -218 350 -179 Z M 250 -367 Q 265 -367 279 -371.5 Q 293 -376 304.5 -385.5 Q 316 -395 324 -407.5 Q 332 -420 336.5 -434 Q 341 -448 343.5 -462.5 Q 346 -477 347 -492 Q 347 -497 347.5 -501.5 Q 348 -506 348 -511 Q 348 -527 346.5 -543.5 Q 345 -560 340.5 -575.5 Q 336 -591 328.5 -606 Q 321 -621 309.5 -632.5 Q 298 -644 282 -649.5 Q 266 -655 250 -655 Q 234 -655 218 -649.5 Q 202 -644 190.5 -632.5 Q 179 -621 171.5 -606 Q 164 -591 159.5 -575.5 Q 155 -560 153.5 -543.5 Q 152 -527 152 -511 Q 152 -495 153.5 -478.5 Q 155 -462 159.5 -446 Q 164 -430 171.5 -415.5 Q 179 -401 190.5 -389.5 Q 202 -378 218 -372.5 Q 234 -367 250 -367 Z " id="path10"/>
<path d="M 39 0 L 53 -70 L 192 -735 L 308 -735 L 461 0 L 359 0 L 326 -172 L 174 -172 L 141 0 Z M 310 -260 L 267 -490 Q 263 -513 258.5 -536 Q 254 -559 250 -582 Q 246 -559 241.5 -536 Q 237 -513 233 -490 L 190 -260 Z " id="path11"/>
<path d="M 60 0 L 60 -735 L 235 -735 Q 261 -735 287 -730.5 Q 313 -726 336.5 -714 Q 360 -702 378.5 -682.5 Q 397 -663 408.5 -639.5 Q 420 -616 424.5 -590 Q 429 -564 429 -538 Q 429 -515 425.5 -492 Q 422 -469 411.5 -448.5 Q 401 -428 384.5 -411 Q 368 -394 348 -383 Q 373 -373 394.5 -355.5 Q 416 -338 430.5 -314.5 Q 445 -291 450.5 -264 Q 456 -237 456 -210 Q 456 -181 450.5 -152.5 Q 445 -124 431 -98.5 Q 417 -73 395.5 -53.5 Q 374 -34 347.5 -21.5 Q 321 -9 292.5 -4.5 Q 264 -0 235 0 Z M 160 -424 L 235 -424 Q 256 -424 275.5 -432.5 Q 295 -441 307.5 -457.5 Q 320 -474 324.5 -494.5 Q 329 -515 329 -536 Q 329 -557 324.5 -577.5 Q 320 -598 307.5 -614.5 Q 295 -631 275.5 -639 Q 256 -647 235 -647 L 160 -647 Z M 160 -88 L 235 -88 Q 251 -88 267.5 -91 Q 284 -94 298.5 -101.5 Q 313 -109 324.5 -121 Q 336 -133 343 -148 Q 350 -163 353 -179 Q 356 -195 356 -212 Q 356 -228 353 -244.5 Q 350 -261 343 -276 Q 336 -291 324.5 -303 Q 313 -315 298.5 -322.5 Q 284 -330 267.5 -333 Q 251 -336 235 -336 L 160 -336 Z " id="path12"/>
<path d="M 247 8 Q 220 8 193 3 Q 166 -2 142.5 -15.5 Q 119 -29 101 -49.5 Q 83 -70 71.5 -94.5 Q 60 -119 56 -146 Q 52 -173 52 -200 L 52 -535 Q 52 -562 56 -589 Q 60 -616 71.5 -640.5 Q 83 -665 101 -685.5 Q 119 -706 142.5 -719.5 Q 166 -733 193 -738 Q 220 -743 247 -743 Q 273 -743 298 -738.5 Q 323 -734 346 -723 Q 369 -712 387.5 -694 Q 406 -676 418 -653.5 Q 430 -631 436 -606 Q 442 -581 442 -555 L 442 -548 L 342 -548 L 342 -552 Q 342 -572 336 -591.5 Q 330 -611 317.5 -626 Q 305 -641 286 -648 Q 267 -655 247 -655 Q 225 -655 205 -645.5 Q 185 -636 173 -618 Q 161 -600 156.5 -578.5 Q 152 -557 152 -535 L 152 -200 Q 152 -178 156.5 -156.5 Q 161 -135 173 -117 Q 185 -99 205 -89.5 Q 225 -80 247 -80 Q 267 -80 286 -87 Q 305 -94 317.5 -109 Q 330 -124 336 -143.5 Q 342 -163 342 -183 L 342 -187 L 442 -187 L 442 -180 Q 442 -154 436 -129 Q 430 -104 418 -81.5 Q 406 -59 387.5 -41 Q 369 -23 346 -12 Q 323 -1 298 3.5 Q 273 8 247 8 Z " id="path13"/>
<path d="M 60 0 L 60 -735 L 220 -735 Q 250 -735 280.5 -730.5 Q 311 -726 339 -713.5 Q 367 -701 390.5 -680 Q 414 -659 429 -632.5 Q 444 -606 450 -575.5 Q 456 -545 456 -515 L 456 -220 Q 456 -190 450 -159.5 Q 444 -129 429 -102.5 Q 414 -76 390.5 -55 Q 367 -34 339 -21.5 Q 311 -9 280.5 -4.5 Q 250 -0 220 0 Z M 160 -88 L 220 -88 Q 238 -88 256 -91 Q 274 -94 290 -101.5 Q 306 -109 319 -122 Q 332 -135 340.5 -151 Q 349 -167 352.5 -184.5 Q 356 -202 356 -220 L 356 -515 Q 356 -533 352.5 -550.5 Q 349 -568 340.5 -584 Q 332 -600 319 -613 Q 306 -626 290 -633.5 Q 274 -641 256 -644 Q 238 -647 220 -647 L 160 -647 Z " id="path14"/>
<path d="M 68 0 L 68 -735 L 440 -735 L 440 -647 L 168 -647 L 168 -426 L 383 -426 L 383 -338 L 168 -338 L 168 -88 L 440 -88 L 440 0 Z " id="path15"/>
<path d="M 90 0 L 90 -735 L 440 -735 L 440 -647 L 190 -647 L 190 -426 L 383 -426 L 383 -338 L 190 -338 L 190 0 Z " id="path16"/>
<path d="M 250 8 Q 223 8 196.5 2.5 Q 170 -3 147 -16.5 Q 124 -30 106.5 -50.5 Q 89 -71 78.5 -95.5 Q 68 -120 64 -146.5 Q 60 -173 60 -200 L 60 -735 L 160 -735 L 160 -200 Q 160 -186 161.5 -172 Q 163 -158 167.5 -144.5 Q 172 -131 179.5 -118.5 Q 187 -106 197.5 -97 Q 208 -88 222 -84 Q 236 -80 250 -80 Q 264 -80 278 -84 Q 292 -88 302.5 -97 Q 313 -106 320.5 -118.5 Q 328 -131 332.5 -144.5 Q 337 -158 338.5 -172 Q 340 -186 340 -200 L 340 -735 L 440 -735 L 440 -200 Q 440 -173 436 -146.5 Q 432 -120 421.5 -95.5 Q 411 -71 393.5 -50.5 Q 376 -30 353 -16.5 Q 330 -3 303.5 2.5 Q 277 8 250 8 Z " id="path17"/>
<path d="M 296 -142 L 204 -142 L 204 -300 L 60 -300 L 60 -380 L 204 -380 L 204 -538 L 296 -538 L 296 -380 L 440 -380 L 440 -300 L 296 -300 Z " id="path18"/>
<path d="M 64 0 L 64 -735 L 436 -735 L 436 0 Z M 104 -333 L 394 -695 L 300 -695 L 104 -450 Z M 104 -489 L 269 -695 L 175 -695 L 104 -606 Z M 104 -645 L 144 -695 L 104 -695 Z M 104 -176 L 396 -543 L 396 -660 L 104 -294 Z M 104 -40 L 119 -40 L 396 -386 L 396 -504 L 104 -137 Z M 150 -40 L 244 -40 L 396 -230 L 396 -347 Z M 275 -40 L 369 -40 L 396 -74 L 396 -191 Z " id="path19"/>
<path d="M 436 -305 L 64 -305 L 64 -375 L 436 -375 Z " id="path20"/>
<path d="M 468 -305 L 32 -305 L 32 -375 L 468 -375 Z " id="path21"/>
<path d="M 1000 -305 L 0 -305 L 0 -375 L 1000 -375 Z " id="path22"/>
<path d="M 303 143 L 303 -823 L 372 -823 L 372 143 Z M 128 143 L 128 -823 L 197 -823 L 197 143 Z " id="path23"/>
<path d="M 436 70 L 64 70 L 64 0 L 436 0 Z M 436 200 L 64 200 L 64 130 L 436 130 Z " id="path24"/>
<path d="M 250 -434 Q 234 -434 218.5 -439 Q 203 -444 192 -455.5 Q 181 -467 177 -482.5 Q 173 -498 173 -514 Q 173 -552 181.5 -589.5 Q 190 -627 205 -662.5 Q 220 -698 240.5 -730.5 Q 261 -763 285 -793 L 343 -748 Q 311 -713 285 -673 Q 259 -633 246 -588 L 251 -588 Q 266 -588 281 -583 Q 296 -578 307 -567.5 Q 318 -557 322.5 -541.5 Q 327 -526 327 -511 Q 327 -495 322.5 -480 Q 318 -465 307 -454 Q 296 -443 281 -438.5 Q 266 -434 250 -434 Z " id="path25"/>
<path d="M 215 -421 L 157 -466 Q 189 -501 215 -541 Q 241 -581 254 -626 L 249 -626 Q 234 -626 219 -630.5 Q 204 -635 193 -646 Q 182 -657 177.5 -672 Q 173 -687 173 -703 Q 173 -718 177.5 -733.5 Q 182 -749 193 -760 Q 204 -771 219 -775.5 Q 234 -780 250 -780 Q 266 -780 281.5 -775 Q 297 -770 308 -758.5 Q 319 -747 323 -731.5 Q 327 -716 327 -700 Q 327 -661 318.5 -623.5 Q 310 -586 295 -551 Q 280 -516 259.5 -483.5 Q 239 -451 215 -421 Z " id="path26"/>
<path d="M 215 213 L 157 168 Q 189 133 215 93 Q 241 53 254 8 L 249 8 Q 234 8 219 3 Q 204 -2 193 -13 Q 182 -24 177.5 -39 Q 173 -54 173 -69 Q 173 -85 177.5 -100 Q 182 -115 193 -126 Q 204 -137 219 -141.5 Q 234 -146 250 -146 Q 266 -146 281.5 -141 Q 297 -136 308 -124.5 Q 319 -113 323 -97.5 Q 327 -82 327 -66 Q 327 -28 318.5 9.5 Q 310 47 295 82.5 Q 280 118 259.5 150.5 Q 239 183 215 213 Z " id="path27"/>
<path d="M 285 -421 Q 261 -451 240.5 -483.5 Q 220 -516 205 -551 Q 190 -586 181.5 -623.5 Q 173 -661 173 -700 Q 173 -716 177 -731.5 Q 181 -747 192 -758.5 Q 203 -770 218.5 -775 Q 234 -780 250 -780 Q 266 -780 281 -775.5 Q 296 -771 307 -760 Q 318 -749 322.5 -733.5 Q 327 -718 327 -703 Q 327 -687 322.5 -672 Q 318 -657 307 -646 Q 296 -635 281 -630.5 Q 266 -626 251 -626 L 246 -626 Q 259 -581 285 -541 Q 311 -501 343 -466 Z " id="path28"/>
<path d="M 138 -434 Q 122 -434 106.5 -439 Q 91 -444 80 -455.5 Q 69 -467 65 -482.5 Q 61 -498 61 -514 Q 61 -552 69.5 -589.5 Q 78 -627 93 -662.5 Q 108 -698 128.5 -730.5 Q 149 -763 173 -793 L 231 -748 Q 199 -713 173 -673 Q 147 -633 134 -588 L 139 -588 Q 154 -588 169 -583 Q 184 -578 195 -567.5 Q 206 -557 210.5 -541.5 Q 215 -526 215 -511 Q 215 -495 210.5 -480 Q 206 -465 195 -454 Q 184 -443 169 -438.5 Q 154 -434 138 -434 Z M 363 -434 Q 347 -434 331.5 -439 Q 316 -444 305 -455.5 Q 294 -467 290 -482.5 Q 286 -498 286 -514 Q 286 -552 294.5 -589.5 Q 303 -627 318 -662.5 Q 333 -698 353.5 -730.5 Q 374 -763 398 -793 L 456 -748 Q 424 -713 398 -673 Q 372 -633 359 -588 L 364 -588 Q 379 -588 394 -583 Q 409 -578 420 -567.5 Q 431 -557 435.5 -541.5 Q 440 -526 440 -511 Q 440 -495 435.5 -480 Q 431 -465 420 -454 Q 409 -443 394 -438.5 Q 379 -434 363 -434 Z " id="path29"/>
<path d="M 103 -421 L 45 -466 Q 77 -501 103 -541 Q 129 -581 142 -626 L 137 -626 Q 122 -626 107 -630.5 Q 92 -635 81 -646 Q 70 -657 65.5 -672 Q 61 -687 61 -703 Q 61 -718 65.5 -733.5 Q 70 -749 81 -760 Q 92 -771 107 -775.5 Q 122 -780 138 -780 Q 154 -780 169.5 -775 Q 185 -770 196 -758.5 Q 207 -747 211 -731.5 Q 215 -716 215 -700 Q 215 -661 206.5 -623.5 Q 198 -586 183 -551 Q 168 -516 147.5 -483.5 Q 127 -451 103 -421 Z M 328 -421 L 270 -466 Q 302 -501 328 -541 Q 354 -581 367 -626 L 362 -626 Q 347 -626 332 -630.5 Q 317 -635 306 -646 Q 295 -657 290.5 -672 Q 286 -687 286 -703 Q 286 -718 290.5 -733.5 Q 295 -749 306 -760 Q 317 -771 332 -775.5 Q 347 -780 363 -780 Q 379 -780 394.5 -775 Q 410 -770 421 -758.5 Q 432 -747 436 -731.5 Q 440 -716 440 -700 Q 440 -661 431.5 -623.5 Q 423 -586 408 -551 Q 393 -516 372.5 -483.5 Q 352 -451 328 -421 Z " id="path30"/>
<path d="M 103 213 L 45 168 Q 77 133 103 93 Q 129 53 142 8 L 137 8 Q 122 8 107 3 Q 92 -2 81 -13 Q 70 -24 65.5 -39 Q 61 -54 61 -69 Q 61 -85 65.5 -100 Q 70 -115 81 -126 Q 92 -137 107 -141.5 Q 122 -146 138 -146 Q 154 -146 169.5 -141 Q 185 -136 196 -124.5 Q 207 -113 211 -97.5 Q 215 -82 215 -66 Q 215 -28 206.5 9.5 Q 198 47 183 82.5 Q 168 118 147.5 150.5 Q 127 183 103 213 Z M 328 213 L 270 168 Q 302 133 328 93 Q 354 53 367 8 L 362 8 Q 347 8 332 3 Q 317 -2 306 -13 Q 295 -24 290.5 -39 Q 286 -54 286 -69 Q 286 -85 290.5 -100 Q 295 -115 306 -126 Q 317 -137 332 -141.5 Q 347 -146 363 -146 Q 379 -146 394.5 -141 Q 410 -136 421 -124.5 Q 432 -113 436 -97.5 Q 440 -82 440 -66 Q 440 -28 431.5 9.5 Q 423 47 408 82.5 Q 393 118 372.5 150.5 Q 352 183 328 213 Z " id="path31"/>
<path d="M 173 -421 Q 149 -451 128.5 -483.5 Q 108 -516 93 -551 Q 78 -586 69.5 -623.5 Q 61 -661 61 -700 Q 61 -716 65 -731.5 Q 69 -747 80 -758.5 Q 91 -770 106.5 -775 Q 122 -780 138 -780 Q 154 -780 169 -775.5 Q 184 -771 195 -760 Q 206 -749 210.5 -733.5 Q 215 -718 215 -703 Q 215 -687 210.5 -672 Q 206 -657 195 -646 Q 184 -635 169 -630.5 Q 154 -626 139 -626 L 134 -626 Q 147 -581 173 -541 Q 199 -501 231 -466 Z M 398 -421 Q 374 -451 353.5 -483.5 Q 333 -516 318 -551 Q 303 -586 294.5 -623.5 Q 286 -661 286 -700 Q 286 -716 290 -731.5 Q 294 -747 305 -758.5 Q 316 -770 331.5 -775 Q 347 -780 363 -780 Q 379 -780 394 -775.5 Q 409 -771 420 -760 Q 431 -749 435.5 -733.5 Q 440 -718 440 -703 Q 440 -687 435.5 -672 Q 431 -657 420 -646 Q 409 -635 394 -630.5 Q 379 -626 364 -626 L 359 -626 Q 372 -581 398 -541 Q 424 -501 456 -466 Z " id="path32"/>
<path d="M 211 143 L 211 -469 L 64 -469 L 64 -539 L 211 -539 L 211 -823 L 289 -823 L 289 -539 L 436 -539 L 436 -469 L 289 -469 L 289 143 Z " id="path33"/>
<path d="M 211 143 L 211 -141 L 64 -141 L 64 -211 L 211 -211 L 211 -469 L 64 -469 L 64 -539 L 211 -539 L 211 -823 L 289 -823 L 289 -539 L 436 -539 L 436 -469 L 289 -469 L 289 -211 L 436 -211 L 436 -141 L 289 -141 L 289 143 Z " id="path34"/>
<path d="M 250 -189 Q 220 -189 190 -198 Q 160 -207 138.5 -228.5 Q 117 -250 108 -280 Q 99 -310 99 -340 Q 99 -370 108 -400 Q 117 -430 138.5 -451.5 Q 160 -473 190 -482 Q 220 -491 250 -491 Q 280 -491 310 -482 Q 340 -473 361.5 -451.5 Q 383 -430 392 -400 Q 401 -370 401 -340 Q 401 -310 392 -280 Q 383 -250 361.5 -228.5 Q 340 -207 310 -198 Q 280 -189 250 -189 Z " id="path35"/>
<path d="M 107 -154 L 107 -526 L 437 -340 Z " id="path36"/>
<path d="M 500 8 Q 484 8 469 3.5 Q 454 -1 442.5 -12.5 Q 431 -24 426.5 -39 Q 422 -54 422 -70 Q 422 -86 426.5 -101 Q 431 -116 442.5 -127.5 Q 454 -139 469 -143.5 Q 484 -148 500 -148 Q 516 -148 531 -143.5 Q 546 -139 557.5 -127.5 Q 569 -116 573.5 -101 Q 578 -86 578 -70 Q 578 -54 573.5 -39 Q 569 -24 557.5 -12.5 Q 546 -1 531 3.5 Q 516 8 500 8 Z " id="path37"/>
<path d="M 750 8 Q 734 8 719 3.5 Q 704 -1 692.5 -12.5 Q 681 -24 676.5 -39 Q 672 -54 672 -70 Q 672 -86 676.5 -101 Q 681 -116 692.5 -127.5 Q 704 -139 719 -143.5 Q 734 -148 750 -148 Q 766 -148 781 -143.5 Q 796 -139 807.5 -127.5 Q 819 -116 823.5 -101 Q 828 -86 828 -70 Q 828 -54 823.5 -39 Q 819 -24 807.5 -12.5 Q 796 -1 781 3.5 Q 766 8 750 8 Z M 250 8 Q 234 8 219 3.5 Q 204 -1 192.5 -12.5 Q 181 -24 176.5 -39 Q 172 -54 172 -70 Q 172 -86 176.5 -101 Q 181 -116 192.5 -127.5 Q 204 -139 219 -143.5 Q 234 -148 250 -148 Q 266 -148 281 -143.5 Q 296 -139 307.5 -127.5 Q 319 -116 323.5 -101 Q 328 -86 328 -70 Q 328 -54 323.5 -39 Q 319 -24 307.5 -12.5 Q 296 -1 281 3.5 Q 266 8 250 8 Z " id="path38"/>
<path d="M 833 8 Q 818 8 802.5 3.5 Q 787 -1 776 -12.5 Q 765 -24 760 -39 Q 755 -54 755 -70 Q 755 -86 760 -101 Q 765 -116 776 -127.5 Q 787 -139 802.5 -143.5 Q 818 -148 833 -148 Q 849 -148 864.5 -143.5 Q 880 -139 891 -127.5 Q 902 -116 906.5 -101 Q 911 -86 911 -70 Q 911 -54 906.5 -39 Q 902 -24 891 -12.5 Q 880 -1 864.5 3.5 Q 849 8 833 8 Z M 500 8 Q 484 8 469 3.5 Q 454 -1 442.5 -12.5 Q 431 -24 426.5 -39 Q 422 -54 422 -70 Q 422 -86 426.5 -101 Q 431 -116 442.5 -127.5 Q 454 -139 469 -143.5 Q 484 -148 500 -148 Q 516 -148 531 -143.5 Q 546 -139 557.5 -127.5 Q 569 -116 573.5 -101 Q 578 -86 578 -70 Q 578 -54 573.5 -39 Q 569 -24 557.5 -12.5 Q 546 -1 531 3.5 Q 516 8 500 8 Z M 167 8 Q 151 8 135.5 3.5 Q 120 -1 109 -12.5 Q 98 -24 93.5 -39 Q 89 -54 89 -70 Q 89 -86 93.5 -101 Q 98 -116 109 -127.5 Q 120 -139 135.5 -143.5 Q 151 -148 167 -148 Q 182 -148 197.5 -143.5 Q 213 -139 224 -127.5 Q 235 -116 240 -101 Q 245 -86 245 -70 Q 245 -54 240 -39 Q 235 -24 224 -12.5 Q 213 -1 197.5 3.5 Q 182 8 167 8 Z " id="path39"/>
<path d="M 250 -262 Q 234 -262 219 -266.5 Q 204 -271 192.5 -282.5 Q 181 -294 176.5 -309 Q 172 -324 172 -340 Q 172 -356 176.5 -371 Q 181 -386 192.5 -397.5 Q 204 -409 219 -413.5 Q 234 -418 250 -418 Q 266 -418 281 -413.5 Q 296 -409 307.5 -397.5 Q 319 -386 323.5 -371 Q 328 -356 328 -340 Q 328 -324 323.5 -309 Q 319 -294 307.5 -282.5 Q 296 -271 281 -266.5 Q 266 -262 250 -262 Z " id="path40"/>
<path d="M 272 -384 Q 251 -384 230.5 -390.5 Q 210 -397 195 -412 Q 180 -427 173.5 -447.5 Q 167 -468 167 -489 L 167 -638 Q 167 -659 173.5 -679.5 Q 180 -700 195 -715 Q 210 -730 230.5 -736.5 Q 251 -743 272 -743 Q 293 -743 314 -736.5 Q 335 -730 349.5 -715 Q 364 -700 370.5 -679.5 Q 377 -659 377 -638 L 377 -489 Q 377 -468 370.5 -447.5 Q 364 -427 349.5 -412 Q 335 -397 314 -390.5 Q 293 -384 272 -384 Z M 251 0 L 175 0 L 358 -368 L 535 -735 L 611 -735 L 428 -368 Z M 272 -445 Q 280 -445 288 -448.5 Q 296 -452 301 -458.5 Q 306 -465 307.5 -473 Q 309 -481 309 -489 L 309 -638 Q 309 -646 307.5 -654 Q 306 -662 301 -668.5 Q 296 -675 288 -678.5 Q 280 -682 272 -682 Q 264 -682 256 -678.5 Q 248 -675 243.5 -668.5 Q 239 -662 237 -654 Q 235 -646 235 -638 L 235 -489 Q 235 -481 237 -473 Q 239 -465 243.5 -458.5 Q 248 -452 256 -448.5 Q 264 -445 272 -445 Z M 760 8 Q 739 8 718 1.5 Q 697 -5 682.5 -20 Q 668 -35 661.5 -55.5 Q 655 -76 655 -98 L 655 -246 Q 655 -267 661.5 -287.5 Q 668 -308 682.5 -323 Q 697 -338 718 -344.5 Q 739 -351 760 -351 Q 781 -351 801.5 -344.5 Q 822 -338 837 -323 Q 852 -308 858.5 -287.5 Q 865 -267 865 -246 L 865 -98 Q 865 -76 858.5 -55.5 Q 852 -35 837 -20 Q 822 -5 801.5 1.5 Q 781 8 760 8 Z M 514 8 Q 493 8 472.5 1.5 Q 452 -5 437 -20 Q 422 -35 416 -55.5 Q 410 -76 410 -98 L 410 -246 Q 410 -267 416 -287.5 Q 422 -308 437 -323 Q 452 -338 472.5 -344.5 Q 493 -351 514 -351 Q 536 -351 556.5 -344.5 Q 577 -338 592 -323 Q 607 -308 613 -287.5 Q 619 -267 619 -246 L 619 -98 Q 619 -76 613 -55.5 Q 607 -35 592 -20 Q 577 -5 556.5 1.5 Q 536 8 514 8 Z M 760 -53 Q 768 -53 776 -56.5 Q 784 -60 788.5 -66.5 Q 793 -73 795 -81 Q 797 -89 797 -98 L 797 -246 Q 797 -254 795 -262 Q 793 -270 788.5 -276.5 Q 784 -283 776 -286.5 Q 768 -290 760 -290 Q 752 -290 744 -286.5 Q 736 -283 731 -276.5 Q 726 -270 724.5 -262 Q 723 -254 723 -246 L 723 -98 Q 723 -89 724.5 -81 Q 726 -73 731 -66.5 Q 736 -60 744 -56.5 Q 752 -53 760 -53 Z M 514 -53 Q 523 -53 530.5 -56.5 Q 538 -60 543 -66.5 Q 548 -73 550 -81 Q 552 -89 552 -98 L 552 -246 Q 552 -254 550 -262 Q 548 -270 543 -276.5 Q 538 -283 530.5 -286.5 Q 523 -290 514 -290 Q 506 -290 498.5 -286.5 Q 491 -283 486 -276.5 Q 481 -270 479 -262 Q 477 -254 477 -246 L 477 -98 Q 477 -89 479 -81 Q 481 -73 486 -66.5 Q 491 -60 498.5 -56.5 Q 506 -53 514 -53 Z " id="path41"/>
<path d="M 149 -384 Q 128 -384 107.5 -390.5 Q 87 -397 72 -412 Q 57 -427 50.5 -447.5 Q 44 -468 44 -489 L 44 -638 Q 44 -659 50.5 -679.5 Q 57 -700 72 -715 Q 87 -730 107.5 -736.5 Q 128 -743 149 -743 Q 170 -743 191 -736.5 Q 212 -730 227 -715 Q 242 -700 248 -679.5 Q 254 -659 254 -638 L 254 -489 Q 254 -468 248 -447.5 Q 242 -427 227 -412 Q 212 -397 191 -390.5 Q 170 -384 149 -384 Z M 128 0 L 52 0 L 235 -368 L 413 -735 L 488 -735 L 306 -368 Z M 149 -445 Q 158 -445 165.5 -448.5 Q 173 -452 178 -458.5 Q 183 -465 184.5 -473 Q 186 -481 186 -489 L 186 -638 Q 186 -646 184.5 -654 Q 183 -662 178 -668.5 Q 173 -675 165.5 -678.5 Q 158 -682 149 -682 Q 141 -682 133.5 -678.5 Q 126 -675 121 -668.5 Q 116 -662 114 -654 Q 112 -646 112 -638 L 112 -489 Q 112 -481 114 -473 Q 116 -465 121 -458.5 Q 126 -452 133.5 -448.5 Q 141 -445 149 -445 Z M 883 8 Q 862 8 841 1.5 Q 820 -5 805 -20 Q 790 -35 784 -55.5 Q 778 -76 778 -98 L 778 -246 Q 778 -267 784 -287.5 Q 790 -308 805 -323 Q 820 -338 841 -344.5 Q 862 -351 883 -351 Q 904 -351 924.5 -344.5 Q 945 -338 960 -323 Q 975 -308 981.5 -287.5 Q 988 -267 988 -246 L 988 -98 Q 988 -76 981.5 -55.5 Q 975 -35 960 -20 Q 945 -5 924.5 1.5 Q 904 8 883 8 Z M 637 8 Q 616 8 595.5 1.5 Q 575 -5 560 -20 Q 545 -35 538.5 -55.5 Q 532 -76 532 -98 L 532 -246 Q 532 -267 538.5 -287.5 Q 545 -308 560 -323 Q 575 -338 595.5 -344.5 Q 616 -351 637 -351 Q 658 -351 679 -344.5 Q 700 -338 715 -323 Q 730 -308 736 -287.5 Q 742 -267 742 -246 L 742 -98 Q 742 -76 736 -55.5 Q 730 -35 715 -20 Q 700 -5 679 1.5 Q 658 8 637 8 Z M 392 8 Q 370 8 349.5 1.5 Q 329 -5 314 -20 Q 299 -35 293 -55.5 Q 287 -76 287 -98 L 287 -246 Q 287 -267 293 -287.5 Q 299 -308 314 -323 Q 329 -338 349.5 -344.5 Q 370 -351 392 -351 Q 413 -351 433.5 -344.5 Q 454 -338 469 -323 Q 484 -308 490 -287.5 Q 496 -267 496 -246 L 496 -98 Q 496 -76 490 -55.5 Q 484 -35 469 -20 Q 454 -5 433.5 1.5 Q 413 8 392 8 Z M 883 -53 Q 891 -53 898.5 -56.5 Q 906 -60 911 -66.5 Q 916 -73 918 -81 Q 920 -89 920 -98 L 920 -246 Q 920 -254 918 -262 Q 916 -270 911 -276.5 Q 906 -283 898.5 -286.5 Q 891 -290 883 -290 Q 874 -290 866.5 -286.5 Q 859 -283 854 -276.5 Q 849 -270 847.5 -262 Q 846 -254 846 -246 L 846 -98 Q 846 -89 847.5 -81 Q 849 -73 854 -66.5 Q 859 -60 866.5 -56.5 Q 874 -53 883 -53 Z M 637 -53 Q 645 -53 653 -56.5 Q 661 -60 666 -66.5 Q 671 -73 672.5 -81 Q 674 -89 674 -98 L 674 -246 Q 674 -254 672.5 -262 Q 671 -270 666 -276.5 Q 661 -283 653 -286.5 Q 645 -290 637 -290 Q 629 -290 621 -286.5 Q 613 -283 608.5 -276.5 Q 604 -270 602 -262 Q 600 -254 600 -246 L 600 -98 Q 600 -89 602 -81 Q 604 -73 608.5 -66.5 Q 613 -60 621 -56.5 Q 629 -53 637 -53 Z M 392 -53 Q 400 -53 407.5 -56.5 Q 415 -60 420 -66.5 Q 425 -73 427 -81 Q 429 -89 429 -98 L 429 -246 Q 429 -254 427 -262 Q 425 -270 420 -276.5 Q 415 -283 407.5 -286.5 Q 400 -290 392 -290 Q 383 -290 375.5 -286.5 Q 368 -283 363 -276.5 Q 358 -270 356.5 -262 Q 355 -254 355 -246 L 355 -98 Q 355 -89 356.5 -81 Q 358 -73 363 -66.5 Q 368 -60 375.5 -56.5 Q 383 -53 392 -53 Z " id="path42"/>
<path d="M 161 -442 L 253 -772 L 347 -772 L 239 -442 Z " id="path43"/>
<path d="M 68 -442 L 160 -772 L 254 -772 L 146 -442 Z M 254 -442 L 346 -772 L 440 -772 L 332 -442 Z " id="path44"/>
<path d="M 315 -442 L 408 -772 L 492 -772 L 385 -442 Z M 15 -442 L 108 -772 L 192 -772 L 85 -442 Z M 165 -442 L 258 -772 L 342 -772 L 235 -442 Z " id="path45"/>
<path d="M 261 -442 L 153 -772 L 247 -772 L 339 -442 Z " id="path46"/>
<path d="M 168 -442 L 60 -772 L 154 -772 L 246 -442 Z M 354 -442 L 246 -772 L 340 -772 L 432 -442 Z " id="path47"/>
<path d="M 415 -442 L 308 -772 L 392 -772 L 485 -442 Z M 115 -442 L 8 -772 L 92 -772 L 185 -442 Z M 265 -442 L 158 -772 L 242 -772 L 335 -442 Z " id="path48"/>
<path d="M 106 200 L 39 157 L 207 -74 L 293 -74 L 461 157 L 394 200 L 250 -11 Z " id="path49"/>
<path d="M 303 -87 Q 289 -122 271.5 -155 Q 254 -188 232.5 -218.5 Q 211 -249 185.5 -275.5 Q 160 -302 129 -324 L 129 -356 Q 160 -378 185.5 -404.5 Q 211 -431 232.5 -461.5 Q 254 -492 271.5 -525 Q 289 -558 303 -593 L 364 -570 Q 339 -506 303 -446.5 Q 267 -387 216 -340 Q 267 -293 303 -233.5 Q 339 -174 364 -110 Z " id="path50"/>
<path d="M 197 -87 L 136 -110 Q 161 -174 197 -233.5 Q 233 -293 284 -340 Q 233 -387 197 -446.5 Q 161 -506 136 -570 L 197 -593 Q 211 -558 228.5 -525 Q 246 -492 267.5 -461.5 Q 289 -431 314.5 -404.5 Q 340 -378 371 -356 L 371 -324 Q 340 -302 314.5 -275.5 Q 289 -249 267.5 -218.5 Q 246 -188 228.5 -155 Q 211 -122 197 -87 Z " id="path51"/>
<path d="M 500 -674 Q 487 -674 474 -677.5 Q 461 -681 451.5 -690.5 Q 442 -700 438 -713 Q 434 -726 434 -740 Q 434 -753 438 -766 Q 442 -779 451.5 -788.5 Q 461 -798 474 -802 Q 487 -806 500 -806 Q 513 -806 526 -802 Q 539 -798 548.5 -788.5 Q 558 -779 562 -766 Q 566 -753 566 -740 Q 566 -726 562 -713 Q 558 -700 548.5 -690.5 Q 539 -681 526 -677.5 Q 513 -674 500 -674 Z M 88 118 L 40 74 L 454 -340 L 40 -754 L 88 -798 L 500 -386 L 912 -798 L 960 -754 L 546 -340 L 960 74 L 912 118 L 500 -294 Z M 100 -274 Q 87 -274 74 -278 Q 61 -282 51.5 -291.5 Q 42 -301 38 -314 Q 34 -327 34 -340 Q 34 -353 38 -366 Q 42 -379 51.5 -388.5 Q 61 -398 74 -402 Q 87 -406 100 -406 Q 114 -406 127 -402 Q 140 -398 149.5 -388.5 Q 159 -379 162.5 -366 Q 166 -353 166 -340 Q 166 -327 162.5 -314 Q 159 -301 149.5 -291.5 Q 140 -282 127 -278 Q 114 -274 100 -274 Z M 900 -274 Q 886 -274 873 -278 Q 860 -282 850.5 -291.5 Q 841 -301 837.5 -314 Q 834 -327 834 -340 Q 834 -353 837.5 -366 Q 841 -379 850.5 -388.5 Q 860 -398 873 -402 Q 886 -406 900 -406 Q 913 -406 926 -402 Q 939 -398 948.5 -388.5 Q 958 -379 962 -366 Q 966 -353 966 -340 Q 966 -327 962 -314 Q 958 -301 948.5 -291.5 Q 939 -282 926 -278 Q 913 -274 900 -274 Z M 500 126 Q 487 126 474 122 Q 461 118 451.5 108.5 Q 442 99 438 86 Q 434 73 434 60 Q 434 46 438 33 Q 442 20 451.5 10.5 Q 461 1 474 -2.5 Q 487 -6 500 -6 Q 513 -6 526 -2.5 Q 539 1 548.5 10.5 Q 558 20 562 33 Q 566 46 566 60 Q 566 73 562 86 Q 558 99 548.5 108.5 Q 539 118 526 122 Q 513 126 500 126 Z " id="path52"/>
<path d="M 106 -260 L 106 -735 L 175 -735 L 175 -260 Z M 394 -260 L 325 -260 L 325 -735 L 394 -735 Z M 141 8 Q 127 8 114.5 3 Q 102 -2 93.5 -12.5 Q 85 -23 81.5 -36 Q 78 -49 78 -63 Q 78 -76 81.5 -89 Q 85 -102 93.5 -112.5 Q 102 -123 114.5 -128 Q 127 -133 141 -133 Q 154 -133 167 -128 Q 180 -123 188 -112.5 Q 196 -102 199.5 -89 Q 203 -76 203 -63 Q 203 -49 199.5 -36 Q 196 -23 188 -12.5 Q 180 -2 167 3 Q 154 8 141 8 Z M 359 8 Q 346 8 333 3 Q 320 -2 312 -12.5 Q 304 -23 300.5 -36 Q 297 -49 297 -63 Q 297 -76 300.5 -89 Q 304 -102 312 -112.5 Q 320 -123 333 -128 Q 346 -133 359 -133 Q 373 -133 385.5 -128 Q 398 -123 406.5 -112.5 Q 415 -102 418.5 -89 Q 422 -76 422 -63 Q 422 -49 418.5 -36 Q 415 -23 406.5 -12.5 Q 398 -2 385.5 3 Q 373 8 359 8 Z " id="path53"/>
<path d="M 338 -208 L 261 -221 Q 265 -246 271 -270.5 Q 277 -295 287.5 -317.5 Q 298 -340 313 -360.5 Q 328 -381 345 -399.5 Q 362 -418 379.5 -436 Q 397 -454 411.5 -474.5 Q 426 -495 434.5 -519 Q 443 -543 443 -568 Q 443 -586 438.5 -604 Q 434 -622 422 -635.5 Q 410 -649 392.5 -655.5 Q 375 -662 357 -662 Q 339 -662 322.5 -652.5 Q 306 -643 295 -628 Q 284 -613 278 -595 Q 272 -577 269 -559 L 193 -572 Q 197 -602 208.5 -631.5 Q 220 -661 240.5 -684 Q 261 -707 290 -720 Q 319 -733 350 -733 Q 359 -733 368 -732 Q 377 -731 385 -730 Q 414 -725 440.5 -712 Q 467 -699 485.5 -676.5 Q 504 -654 512.5 -626 Q 521 -598 521 -568 Q 521 -543 515 -517.5 Q 509 -492 498.5 -468 Q 488 -444 473.5 -422.5 Q 459 -401 442.5 -381.5 Q 426 -362 407 -343.5 Q 388 -325 373 -304 Q 358 -283 350 -258.5 Q 342 -234 338 -208 Z M 173 -206 L 45 -704 L 120 -724 L 248 -225 Z M 250 8 Q 236 8 222 4 Q 208 0 198 -10.5 Q 188 -21 184 -34.5 Q 180 -48 180 -63 Q 180 -77 184 -90.5 Q 188 -104 198 -114.5 Q 208 -125 222 -129 Q 236 -133 250 -133 Q 264 -133 278 -129 Q 292 -125 302 -114.5 Q 312 -104 316.5 -90.5 Q 321 -77 321 -63 Q 321 -48 316.5 -34.5 Q 312 -21 302 -10.5 Q 292 0 278 4 Q 264 8 250 8 Z " id="path54"/>
<path d="M 64 -665 L 64 -735 L 436 -735 L 436 -665 Z " id="path55"/>
<path d="M 250 72 Q 224 72 198 66.5 Q 172 61 147.5 51.5 Q 123 42 100 29 Q 77 16 56 0 L 101 -52 Q 133 -27 171 -11 Q 209 5 250 5 Q 291 5 329 -11 Q 367 -27 399 -52 L 444 0 Q 423 16 400 29 Q 377 42 352.5 51.5 Q 328 61 302 66.5 Q 276 72 250 72 Z " id="path56"/>
<path d="M 101 -683 L 56 -735 Q 77 -751 100 -764 Q 123 -777 147.5 -786.5 Q 172 -796 198 -801.5 Q 224 -807 250 -807 Q 276 -807 302 -801.5 Q 328 -796 352.5 -786.5 Q 377 -777 400 -764 Q 423 -751 444 -735 L 399 -683 Q 367 -708 329 -724 Q 291 -740 250 -740 Q 209 -740 171 -724 Q 133 -708 101 -683 Z " id="path57"/>
<path d="M 408 237 L 250 54 L 92 237 L 36 193 L 408 -237 L 464 -193 L 297 0 L 464 193 Z " id="path58"/>
<path d="M 408 -371 L 345 -412 L 450 -546 L 288 -593 L 312 -659 L 467 -603 L 461 -771 L 539 -771 L 533 -603 L 688 -659 L 712 -593 L 550 -546 L 655 -412 L 592 -371 L 500 -507 Z M 658 70 L 595 29 L 700 -105 L 538 -152 L 562 -218 L 717 -162 L 711 -330 L 789 -330 L 783 -162 L 938 -218 L 962 -152 L 800 -105 L 905 29 L 842 70 L 750 -66 Z M 158 70 L 95 29 L 200 -105 L 38 -152 L 62 -218 L 217 -162 L 211 -330 L 289 -330 L 283 -162 L 438 -218 L 462 -152 L 300 -105 L 405 29 L 342 70 L 250 -66 Z " id="path59"/>
<path d="M 139 143 L 59 143 L 361 -823 L 441 -823 Z " id="path60"/>
<path d="M 123 143 L 123 -823 L 399 -823 L 399 -753 L 201 -753 L 201 -375 L 399 -375 L 399 -305 L 201 -305 L 201 73 L 399 73 L 399 143 Z " id="path61"/>
<path d="M 101 143 L 101 73 L 299 73 L 299 -305 L 101 -305 L 101 -375 L 299 -375 L 299 -753 L 101 -753 L 101 -823 L 377 -823 L 377 143 Z " id="path62"/>
<path d="M 106 -221 Q 106 -251 108 -281 Q 110 -311 117.5 -340.5 Q 125 -370 136.5 -397.5 Q 148 -425 160 -452.5 Q 172 -480 180.5 -509.5 Q 189 -539 189 -569 Q 189 -579 188 -589.5 Q 187 -600 185 -610.5 Q 183 -621 180 -631 Q 177 -641 172 -650.5 Q 167 -660 158.5 -666.5 Q 150 -673 140 -673 Q 129 -673 120 -665.5 Q 111 -658 106 -648 Q 101 -638 98.5 -627 Q 96 -616 94 -605 Q 92 -594 91.5 -583 Q 91 -572 91 -561 L 91 -555 L 22 -555 L 22 -564 Q 22 -584 24.5 -604 Q 27 -624 32 -643 Q 37 -662 46 -680.5 Q 55 -699 68.5 -713.5 Q 82 -728 101 -735.5 Q 120 -743 140 -743 Q 161 -743 180.5 -735 Q 200 -727 214 -711.5 Q 228 -696 236.5 -676.5 Q 245 -657 249 -637 Q 254 -657 262.5 -676.5 Q 271 -696 285 -711 Q 299 -726 318.5 -734.5 Q 338 -743 359 -743 Q 378 -743 397 -736 Q 416 -729 429.5 -714.5 Q 443 -700 452 -682 Q 461 -664 466 -645.5 Q 471 -627 473.5 -607 Q 476 -587 476 -568 Q 476 -538 471 -508 Q 466 -478 457 -449.5 Q 448 -421 436 -393.5 Q 424 -366 413 -338 Q 402 -310 398 -280.5 Q 394 -251 394 -221 L 325 -221 Q 325 -251 327 -281 Q 329 -311 336.5 -340.5 Q 344 -370 355.5 -397.5 Q 367 -425 379 -452.5 Q 391 -480 399 -509.5 Q 407 -539 407 -569 Q 407 -579 406.5 -589.5 Q 406 -600 404 -610.5 Q 402 -621 399 -631 Q 396 -641 391 -650.5 Q 386 -660 377.5 -666.5 Q 369 -673 359 -673 Q 347 -673 338.5 -665.5 Q 330 -658 325 -648 Q 320 -638 317.5 -627 Q 315 -616 313 -605 Q 311 -594 310.5 -583 Q 310 -572 310 -561 L 310 -555 L 257 -555 Q 256 -526 250.5 -497.5 Q 245 -469 236 -441.5 Q 227 -414 214.5 -387.5 Q 202 -361 192 -334 Q 182 -307 178.5 -278 Q 175 -249 175 -221 Z M 141 8 Q 127 8 114.5 3 Q 102 -2 93.5 -12.5 Q 85 -23 81.5 -36 Q 78 -49 78 -63 Q 78 -76 81.5 -89 Q 85 -102 93.5 -112.5 Q 102 -123 114.5 -128 Q 127 -133 141 -133 Q 154 -133 167 -128 Q 180 -123 188 -112.5 Q 196 -102 199.5 -89 Q 203 -76 203 -63 Q 203 -49 199.5 -36 Q 196 -23 188 -12.5 Q 180 -2 167 3 Q 154 8 141 8 Z M 359 8 Q 346 8 333 3 Q 320 -2 312 -12.5 Q 304 -23 300.5 -36 Q 297 -49 297 -63 Q 297 -76 300.5 -89 Q 304 -102 312 -112.5 Q 320 -123 333 -128 Q 346 -133 359 -133 Q 373 -133 385.5 -128 Q 398 -123 406.5 -112.5 Q 415 -102 418.5 -89 Q 422 -76 422 -63 Q 422 -49 418.5 -36 Q 415 -23 406.5 -12.5 Q 398 -2 385.5 3 Q 373 8 359 8 Z " id="path63"/>
<path d="M 106 -221 Q 106 -251 108 -281 Q 110 -311 117.5 -340.5 Q 125 -370 136.5 -397.5 Q 148 -425 160 -452.5 Q 172 -480 180.5 -509.5 Q 189 -539 189 -569 Q 189 -579 188 -589.5 Q 187 -600 185 -610.5 Q 183 -621 180 -631 Q 177 -641 172 -650.5 Q 167 -660 158.5 -666.5 Q 150 -673 140 -673 Q 129 -673 120 -665.5 Q 111 -658 106 -648 Q 101 -638 98.5 -627 Q 96 -616 94 -605 Q 92 -594 91.5 -583 Q 91 -572 91 -561 L 91 -555 L 22 -555 L 22 -564 Q 22 -584 24.5 -604 Q 27 -624 32 -643 Q 37 -662 46 -680.5 Q 55 -699 68.5 -713.5 Q 82 -728 101 -735.5 Q 120 -743 140 -743 Q 159 -743 178 -736 Q 197 -729 210.5 -714.5 Q 224 -700 233 -682 Q 242 -664 247 -645.5 Q 252 -627 254.5 -607 Q 257 -587 257 -568 Q 257 -538 252 -508 Q 247 -478 238 -449.5 Q 229 -421 217 -393.5 Q 205 -366 194 -338 Q 183 -310 179 -280.5 Q 175 -251 175 -221 Z M 394 -260 L 325 -260 L 325 -735 L 394 -735 Z M 141 8 Q 127 8 114.5 3 Q 102 -2 93.5 -12.5 Q 85 -23 81.5 -36 Q 78 -49 78 -63 Q 78 -76 81.5 -89 Q 85 -102 93.5 -112.5 Q 102 -123 114.5 -128 Q 127 -133 141 -133 Q 154 -133 167 -128 Q 180 -123 188 -112.5 Q 196 -102 199.5 -89 Q 203 -76 203 -63 Q 203 -49 199.5 -36 Q 196 -23 188 -12.5 Q 180 -2 167 3 Q 154 8 141 8 Z M 359 8 Q 346 8 333 3 Q 320 -2 312 -12.5 Q 304 -23 300.5 -36 Q 297 -49 297 -63 Q 297 -76 300.5 -89 Q 304 -102 312 -112.5 Q 320 -123 333 -128 Q 346 -133 359 -133 Q 373 -133 385.5 -128 Q 398 -123 406.5 -112.5 Q 415 -102 418.5 -89 Q 422 -76 422 -63 Q 422 -49 418.5 -36 Q 415 -23 406.5 -12.5 Q 398 -2 385.5 3 Q 373 8 359 8 Z " id="path64"/>
<path d="M 325 -221 Q 325 -251 327 -281 Q 329 -311 336.5 -340.5 Q 344 -370 355.5 -397.5 Q 367 -425 379 -452.5 Q 391 -480 399 -509.5 Q 407 -539 407 -569 Q 407 -579 406.5 -589.5 Q 406 -600 404 -610.5 Q 402 -621 399 -631 Q 396 -641 391 -650.5 Q 386 -660 377.5 -666.5 Q 369 -673 359 -673 Q 347 -673 338.5 -665.5 Q 330 -658 325 -648 Q 320 -638 317.5 -627 Q 315 -616 313 -605 Q 311 -594 310.5 -583 Q 310 -572 310 -561 L 310 -555 L 241 -555 L 241 -564 Q 241 -584 243.5 -604 Q 246 -624 251 -643 Q 256 -662 264.5 -680.5 Q 273 -699 287 -713.5 Q 301 -728 320 -735.5 Q 339 -743 359 -743 Q 378 -743 397 -736 Q 416 -729 429.5 -714.5 Q 443 -700 452 -682 Q 461 -664 466 -645.5 Q 471 -627 473.5 -607 Q 476 -587 476 -568 Q 476 -538 471 -508 Q 466 -478 457 -449.5 Q 448 -421 436 -393.5 Q 424 -366 413 -338 Q 402 -310 398 -280.5 Q 394 -251 394 -221 Z M 106 -260 L 106 -735 L 175 -735 L 175 -260 Z M 141 8 Q 127 8 114.5 3 Q 102 -2 93.5 -12.5 Q 85 -23 81.5 -36 Q 78 -49 78 -63 Q 78 -76 81.5 -89 Q 85 -102 93.5 -112.5 Q 102 -123 114.5 -128 Q 127 -133 141 -133 Q 154 -133 167 -128 Q 180 -123 188 -112.5 Q 196 -102 199.5 -89 Q 203 -76 203 -63 Q 203 -49 199.5 -36 Q 196 -23 188 -12.5 Q 180 -2 167 3 Q 154 8 141 8 Z M 359 8 Q 346 8 333 3 Q 320 -2 312 -12.5 Q 304 -23 300.5 -36 Q 297 -49 297 -63 Q 297 -76 300.5 -89 Q 304 -102 312 -112.5 Q 320 -123 333 -128 Q 346 -133 359 -133 Q 373 -133 385.5 -128 Q 398 -123 406.5 -112.5 Q 415 -102 418.5 -89 Q 422 -76 422 -63 Q 422 -49 418.5 -36 Q 415 -23 406.5 -12.5 Q 398 -2 385.5 3 Q 373 8 359 8 Z " id="path65"/>
<path d="M 260 8 L 187 -17 L 350 -446 Q 324 -444 298 -443 Q 272 -442 246 -442 Q 200 -442 154.5 -445.5 Q 109 -449 64 -456 L 64 -527 Q 109 -519 154.5 -515.5 Q 200 -512 246 -512 Q 294 -512 341.5 -516 Q 389 -520 436 -528 L 436 -457 Z " id="path66"/>
<path d="M 61 0 L 61 -735 L 269 -735 Q 294 -735 318 -729 Q 342 -723 363 -709.5 Q 384 -696 399 -676 Q 414 -656 423.5 -633 Q 433 -610 436 -585.5 Q 439 -561 439 -536 Q 439 -511 436 -486.5 Q 433 -462 423.5 -439 Q 414 -416 399 -396 Q 384 -376 363 -362.5 Q 342 -349 318 -343 Q 294 -337 269 -337 L 269 0 L 200 0 L 200 -673 L 129 -673 L 129 0 Z " id="path67"/>
<path d="M 231 -147 Q 207 -147 183 -152.5 Q 159 -158 138 -170.5 Q 117 -183 101.5 -202.5 Q 86 -222 77 -244.5 Q 68 -267 64.5 -291.5 Q 61 -316 61 -340 Q 61 -364 64.5 -388.5 Q 68 -413 77 -435.5 Q 86 -458 101.5 -477.5 Q 117 -497 138 -509.5 Q 159 -522 183 -527.5 Q 207 -533 231 -533 L 439 -533 L 439 -147 Z M 371 -208 L 371 -472 L 300 -472 L 300 -208 Z " id="path68"/>
<path d="M 61 -147 L 61 -533 L 269 -533 Q 293 -533 317 -527.5 Q 341 -522 362 -509.5 Q 383 -497 398.5 -477.5 Q 414 -458 423 -435.5 Q 432 -413 435.5 -388.5 Q 439 -364 439 -340 Q 439 -316 435.5 -291.5 Q 432 -267 423 -244.5 Q 414 -222 398.5 -202.5 Q 383 -183 362 -170.5 Q 341 -158 317 -152.5 Q 293 -147 269 -147 Z M 200 -208 L 200 -472 L 129 -472 L 129 -208 Z " id="path69"/>
<path d="M 158 -17 L 95 -58 L 200 -192 L 38 -239 L 62 -305 L 217 -249 L 211 -417 L 289 -417 L 283 -249 L 438 -305 L 462 -239 L 300 -192 L 405 -58 L 342 -17 L 250 -153 Z " id="path70"/>
<path d="M 285 215 Q 261 185 240.5 152 Q 220 119 205 83.5 Q 190 48 181 10 Q 172 -28 172 -67 Q 172 -83 176 -99 Q 180 -115 191 -126.5 Q 202 -138 218 -143 Q 234 -148 250 -148 Q 266 -148 281 -143.5 Q 296 -139 307.5 -127.5 Q 319 -116 323.5 -101 Q 328 -86 328 -70 Q 328 -54 323.5 -39 Q 319 -24 308 -13 Q 297 -2 281.5 3 Q 266 8 251 8 L 246 8 Q 259 54 285.5 94 Q 312 134 344 170 Z M 250 -372 Q 234 -372 219 -376.5 Q 204 -381 192.5 -392.5 Q 181 -404 176.5 -419 Q 172 -434 172 -450 Q 172 -466 176.5 -481 Q 181 -496 192.5 -507.5 Q 204 -519 219 -523.5 Q 234 -528 250 -528 Q 266 -528 281 -523.5 Q 296 -519 307.5 -507.5 Q 319 -496 323.5 -481 Q 328 -466 328 -450 Q 328 -434 323.5 -419 Q 319 -404 307.5 -392.5 Q 296 -381 281 -376.5 Q 266 -372 250 -372 Z " id="path71"/>
<path d="M 101 -683 L 56 -735 Q 77 -751 100 -764 Q 123 -777 147.5 -786.5 Q 172 -796 198 -801.5 Q 224 -807 250 -807 Q 276 -807 302 -801.5 Q 328 -796 352.5 -786.5 Q 377 -777 400 -764 Q 423 -751 444 -735 L 399 -683 Q 367 -708 329 -724 Q 291 -740 250 -740 Q 209 -740 171 -724 Q 133 -708 101 -683 Z M 250 72 Q 224 72 198 66.5 Q 172 61 147.5 51.5 Q 123 42 100 29 Q 77 16 56 0 L 101 -52 Q 133 -27 171 -11 Q 209 5 250 5 Q 291 5 329 -11 Q 367 -27 399 -52 L 444 0 Q 423 16 400 29 Q 377 42 352.5 51.5 Q 328 61 302 66.5 Q 276 72 250 72 Z " id="path72"/>
<path d="M 158 -371 L 95 -412 L 200 -546 L 38 -593 L 62 -659 L 217 -603 L 211 -771 L 289 -771 L 283 -603 L 438 -659 L 462 -593 L 300 -546 L 405 -412 L 342 -371 L 250 -507 Z M 158 70 L 95 29 L 200 -105 L 38 -152 L 62 -218 L 217 -162 L 211 -330 L 289 -330 L 283 -162 L 438 -218 L 462 -152 L 300 -105 L 405 29 L 342 70 L 250 -66 Z " id="path73"/>
<path d="M 134 -587 Q 118 -587 103 -591.5 Q 88 -596 76.5 -607.5 Q 65 -619 60.5 -634 Q 56 -649 56 -665 Q 56 -681 60.5 -696 Q 65 -711 76.5 -722.5 Q 88 -734 103 -738.5 Q 118 -743 134 -743 Q 150 -743 165 -738.5 Q 180 -734 191.5 -722.5 Q 203 -711 207.5 -696 Q 212 -681 212 -665 Q 212 -649 207.5 -634 Q 203 -619 191.5 -607.5 Q 180 -596 165 -591.5 Q 150 -587 134 -587 Z M 64 0 L 363 -735 L 436 -735 L 137 0 Z M 366 8 Q 350 8 335 3.5 Q 320 -1 308.5 -12.5 Q 297 -24 292.5 -39 Q 288 -54 288 -70 Q 288 -86 292.5 -101 Q 297 -116 308.5 -127.5 Q 320 -139 335 -143.5 Q 350 -148 366 -148 Q 382 -148 397 -143.5 Q 412 -139 423.5 -127.5 Q 435 -116 439.5 -101 Q 444 -86 444 -70 Q 444 -54 439.5 -39 Q 435 -24 423.5 -12.5 Q 412 -1 397 3.5 Q 382 8 366 8 Z " id="path74"/>
<path d="M 675 -165 Q 658 -165 640 -168.5 Q 622 -172 606.5 -178 Q 591 -184 576.5 -192 Q 562 -200 547.5 -210 Q 533 -220 520 -231 Q 507 -242 494.5 -253.5 Q 482 -265 469 -277 Q 456 -289 442.5 -301 Q 429 -313 417 -322.5 Q 405 -332 389 -341.5 Q 373 -351 357.5 -356 Q 342 -361 325 -361 Q 318 -361 310.5 -360 Q 303 -359 295 -356.5 Q 287 -354 278 -350.5 Q 269 -347 259.5 -342 Q 250 -337 240.5 -330 Q 231 -323 225.5 -319 Q 220 -315 214 -310 Q 208 -305 202 -300 Q 196 -295 190 -289 Q 184 -283 177.5 -276.5 Q 171 -270 164.5 -263 Q 158 -256 151 -248.5 Q 144 -241 137 -233 Q 130 -225 123 -216 Q 116 -207 108.5 -198 Q 101 -189 93 -178 L 35 -219 Q 45 -232 54.5 -244.5 Q 64 -257 74 -268 Q 84 -279 93 -289.5 Q 102 -300 111.5 -309.5 Q 121 -319 130 -328 Q 139 -337 147.5 -345 Q 156 -353 164.5 -360 Q 173 -367 181.5 -373 Q 190 -379 203 -387.5 Q 216 -396 228.5 -402.5 Q 241 -409 253.5 -413.5 Q 266 -418 278 -421 Q 290 -424 302 -425.5 Q 314 -427 325 -427 Q 342 -427 360 -423.5 Q 378 -420 393.5 -414 Q 409 -408 423.5 -400 Q 438 -392 452.5 -382 Q 467 -372 480 -361 Q 493 -350 505.5 -338.5 Q 518 -327 531 -315 Q 544 -303 557.5 -291 Q 571 -279 583 -269.5 Q 595 -260 611 -250.5 Q 627 -241 642.5 -236 Q 658 -231 675 -231 Q 682 -231 689.5 -232 Q 697 -233 705 -235.5 Q 713 -238 722 -241.5 Q 731 -245 740.5 -250 Q 750 -255 759.5 -262 Q 769 -269 774.5 -273 Q 780 -277 786 -282 Q 792 -287 798 -292 Q 804 -297 810 -303 Q 816 -309 822.5 -315.5 Q 829 -322 835.5 -329 Q 842 -336 849 -343.5 Q 856 -351 863 -359 Q 870 -367 877 -376 Q 884 -385 891.5 -394 Q 899 -403 907 -414 L 965 -373 Q 955 -360 945.5 -347.5 Q 936 -335 926 -324 Q 916 -313 907 -302.5 Q 898 -292 888.5 -282.5 Q 879 -273 870 -264 Q 861 -255 852.5 -247 Q 844 -239 835.5 -232 Q 827 -225 818.5 -219 Q 810 -213 797 -204.5 Q 784 -196 771.5 -189.5 Q 759 -183 746.5 -178.5 Q 734 -174 722 -171 Q 710 -168 698 -166.5 Q 686 -165 675 -165 Z " id="path75"/>
<path d="M 399 52 Q 367 27 329 11 Q 291 -5 250 -5 Q 209 -5 171 11 Q 133 27 101 52 L 56 0 Q 77 -16 100 -29 Q 123 -42 147.5 -51.5 Q 172 -61 198 -66.5 Q 224 -72 250 -72 Q 276 -72 302 -66.5 Q 328 -61 352.5 -51.5 Q 377 -42 400 -29 Q 423 -16 444 0 Z " id="path76"/>
<path d="M 214 -396 L 219 -532 L 127 -434 L 76 -481 L 180 -578 L 40 -573 L 40 -639 L 180 -634 L 76 -731 L 127 -778 L 219 -680 L 214 -816 L 286 -816 L 281 -680 L 373 -778 L 424 -731 L 320 -634 L 460 -639 L 460 -573 L 320 -578 L 424 -481 L 373 -434 L 281 -532 L 286 -396 Z " id="path77"/>
<path d="M 374 -387 Q 359 -387 345.5 -391 Q 332 -395 321.5 -405.5 Q 311 -416 307 -429.5 Q 303 -443 303 -458 Q 303 -472 307 -485.5 Q 311 -499 321.5 -509.5 Q 332 -520 345.5 -524 Q 359 -528 374 -528 Q 388 -528 401.5 -524 Q 415 -520 425.5 -509.5 Q 436 -499 440 -485.5 Q 444 -472 444 -458 Q 444 -443 440 -429.5 Q 436 -416 425.5 -405.5 Q 415 -395 401.5 -391 Q 388 -387 374 -387 Z M 126 -190 Q 112 -190 98.5 -194 Q 85 -198 74.5 -208 Q 64 -218 60 -232 Q 56 -246 56 -260 Q 56 -274 60 -288 Q 64 -302 74.5 -312 Q 85 -322 98.5 -326.5 Q 112 -331 127 -331 Q 141 -331 154.5 -326.5 Q 168 -322 178.5 -312 Q 189 -302 193 -288 Q 197 -274 197 -260 Q 197 -246 193 -232 Q 189 -218 178.5 -208 Q 168 -198 154.5 -194 Q 141 -190 126 -190 Z M 374 8 Q 359 8 345.5 4 Q 332 0 321.5 -10.5 Q 311 -21 307 -34.5 Q 303 -48 303 -63 Q 303 -77 307 -90.5 Q 311 -104 321.5 -114.5 Q 332 -125 345.5 -129 Q 359 -133 374 -133 Q 388 -133 401.5 -129 Q 415 -125 425.5 -114.5 Q 436 -104 440 -90.5 Q 444 -77 444 -63 Q 444 -48 440 -34.5 Q 436 -21 425.5 -10.5 Q 415 0 401.5 4 Q 388 8 374 8 Z " id="path78"/>
<path d="M 377 -442 L 470 -772 L 550 -772 L 443 -442 Z M -43 -442 L 50 -772 L 130 -772 L 23 -442 Z M 237 -442 L 330 -772 L 410 -772 L 303 -442 Z M 97 -442 L 190 -772 L 270 -772 L 163 -442 Z " id="path79"/>
<path d="M 250 -387 Q 236 -387 222 -391 Q 208 -395 198 -405.5 Q 188 -416 184 -429.5 Q 180 -443 180 -458 Q 180 -472 184 -485.5 Q 188 -499 198 -509.5 Q 208 -520 222 -524 Q 236 -528 250 -528 Q 264 -528 278 -524 Q 292 -520 302 -509.5 Q 312 -499 316.5 -485.5 Q 321 -472 321 -458 Q 321 -443 316.5 -429.5 Q 312 -416 302 -405.5 Q 292 -395 278 -391 Q 264 -387 250 -387 Z M 94 -190 Q 80 -190 66.5 -194 Q 53 -198 42.5 -208 Q 32 -218 28 -232 Q 24 -246 24 -260 Q 24 -274 28 -288 Q 32 -302 42.5 -312 Q 53 -322 66.5 -326.5 Q 80 -331 95 -331 Q 109 -331 122.5 -326.5 Q 136 -322 146.5 -312 Q 157 -302 161 -288 Q 165 -274 165 -260 Q 165 -246 161 -232 Q 157 -218 146.5 -208 Q 136 -198 122.5 -194 Q 109 -190 94 -190 Z M 406 -190 Q 391 -190 377.5 -194 Q 364 -198 353.5 -208 Q 343 -218 339 -232 Q 335 -246 335 -260 Q 335 -274 339 -288 Q 343 -302 353.5 -312 Q 364 -322 377.5 -326.5 Q 391 -331 406 -331 Q 420 -331 433.5 -326.5 Q 447 -322 457.5 -312 Q 468 -302 472 -288 Q 476 -274 476 -260 Q 476 -246 472 -232 Q 468 -218 457.5 -208 Q 447 -198 433.5 -194 Q 420 -190 406 -190 Z M 250 8 Q 236 8 222 4 Q 208 0 198 -10.5 Q 188 -21 183.5 -34.5 Q 179 -48 179 -63 Q 179 -77 183.5 -90.5 Q 188 -104 198 -114.5 Q 208 -125 222 -129 Q 236 -133 250 -133 Q 264 -133 278 -129 Q 292 -125 302 -114.5 Q 312 -104 316 -90.5 Q 320 -77 320 -63 Q 320 -48 316 -34.5 Q 312 -21 302 -10.5 Q 292 0 278 4 Q 264 8 250 8 Z " id="path80"/>
<path d="M 406 -387 Q 391 -387 377.5 -391 Q 364 -395 353.5 -405.5 Q 343 -416 339 -429.5 Q 335 -443 335 -458 Q 335 -472 339 -485.5 Q 343 -499 353.5 -509.5 Q 364 -520 377.5 -524 Q 391 -528 406 -528 Q 420 -528 433.5 -524 Q 447 -520 457.5 -509.5 Q 468 -499 472 -485.5 Q 476 -472 476 -458 Q 476 -443 472 -429.5 Q 468 -416 457.5 -405.5 Q 447 -395 433.5 -391 Q 420 -387 406 -387 Z M 94 -387 Q 80 -387 66.5 -391 Q 53 -395 42.5 -405.5 Q 32 -416 28 -429.5 Q 24 -443 24 -458 Q 24 -472 28 -485.5 Q 32 -499 42.5 -509.5 Q 53 -520 66.5 -524 Q 80 -528 95 -528 Q 109 -528 122.5 -524 Q 136 -520 146.5 -509.5 Q 157 -499 161 -485.5 Q 165 -472 165 -458 Q 165 -443 161 -429.5 Q 157 -416 146.5 -405.5 Q 136 -395 122.5 -391 Q 109 -387 94 -387 Z M 406 8 Q 391 8 377.5 4 Q 364 0 353.5 -10.5 Q 343 -21 339 -34.5 Q 335 -48 335 -63 Q 335 -77 339 -90.5 Q 343 -104 353.5 -114.5 Q 364 -125 377.5 -129 Q 391 -133 406 -133 Q 420 -133 433.5 -129 Q 447 -125 457.5 -114.5 Q 468 -104 472 -90.5 Q 476 -77 476 -63 Q 476 -48 472 -34.5 Q 468 -21 457.5 -10.5 Q 447 0 433.5 4 Q 420 8 406 8 Z M 94 8 Q 80 8 66.5 4 Q 53 0 42.5 -10.5 Q 32 -21 28 -34.5 Q 24 -48 24 -63 Q 24 -77 28 -90.5 Q 32 -104 42.5 -114.5 Q 53 -125 66.5 -129 Q 80 -133 95 -133 Q 109 -133 122.5 -129 Q 136 -125 146.5 -114.5 Q 157 -104 161 -90.5 Q 165 -77 165 -63 Q 165 -48 161 -34.5 Q 157 -21 146.5 -10.5 Q 136 0 122.5 4 Q 109 8 94 8 Z M 250 -190 Q 236 -190 222 -194 Q 208 -198 198 -208 Q 188 -218 183.5 -232 Q 179 -246 179 -260 Q 179 -274 183.5 -288 Q 188 -302 198 -312 Q 208 -322 222 -326.5 Q 236 -331 250 -331 Q 264 -331 278 -326.5 Q 292 -322 302 -312 Q 312 -302 316.5 -288 Q 321 -274 321 -260 Q 321 -246 316.5 -232 Q 312 -218 302 -208 Q 292 -198 278 -194 Q 264 -190 250 -190 Z " id="path81"/>
<path d="M 250 8 Q 234 8 219 3.5 Q 204 -1 192.5 -12.5 Q 181 -24 176.5 -39 Q 172 -54 172 -70 Q 172 -86 176.5 -101 Q 181 -116 192.5 -127.5 Q 204 -139 219 -143.5 Q 234 -148 250 -148 Q 266 -148 281 -143.5 Q 296 -139 307.5 -127.5 Q 319 -116 323.5 -101 Q 328 -86 328 -70 Q 328 -54 323.5 -39 Q 319 -24 307.5 -12.5 Q 296 -1 281 3.5 Q 266 8 250 8 Z M 250 -587 Q 234 -587 219 -591.5 Q 204 -596 192.5 -607.5 Q 181 -619 176.5 -634 Q 172 -649 172 -665 Q 172 -681 176.5 -696 Q 181 -711 192.5 -722.5 Q 204 -734 219 -738.5 Q 234 -743 250 -743 Q 266 -743 281 -738.5 Q 296 -734 307.5 -722.5 Q 319 -711 323.5 -696 Q 328 -681 328 -665 Q 328 -649 323.5 -634 Q 319 -619 307.5 -607.5 Q 296 -596 281 -591.5 Q 266 -587 250 -587 Z " id="path82"/>
<path d="M 250 -602 Q 236 -602 222 -606 Q 208 -610 198 -620.5 Q 188 -631 184 -644.5 Q 180 -658 180 -673 Q 180 -687 184 -700.5 Q 188 -714 198 -724.5 Q 208 -735 222 -739 Q 236 -743 250 -743 Q 264 -743 278 -739 Q 292 -735 302 -724.5 Q 312 -714 316.5 -700.5 Q 321 -687 321 -673 Q 321 -658 316.5 -644.5 Q 312 -631 302 -620.5 Q 292 -610 278 -606 Q 264 -602 250 -602 Z M 94 -297 Q 80 -297 66.5 -301 Q 53 -305 42.5 -315.5 Q 32 -326 28 -339.5 Q 24 -353 24 -368 Q 24 -382 28 -395.5 Q 32 -409 42.5 -419.5 Q 53 -430 66.5 -434 Q 80 -438 95 -438 Q 109 -438 122.5 -434 Q 136 -430 146.5 -419.5 Q 157 -409 161 -395.5 Q 165 -382 165 -368 Q 165 -353 161 -339.5 Q 157 -326 146.5 -315.5 Q 136 -305 122.5 -301 Q 109 -297 94 -297 Z M 406 -297 Q 391 -297 377.5 -301 Q 364 -305 353.5 -315.5 Q 343 -326 339 -339.5 Q 335 -353 335 -368 Q 335 -382 339 -395.5 Q 343 -409 353.5 -419.5 Q 364 -430 377.5 -434 Q 391 -438 406 -438 Q 420 -438 433.5 -434 Q 447 -430 457.5 -419.5 Q 468 -409 472 -395.5 Q 476 -382 476 -368 Q 476 -353 472 -339.5 Q 468 -326 457.5 -315.5 Q 447 -305 433.5 -301 Q 420 -297 406 -297 Z M 250 8 Q 236 8 222 4 Q 208 0 198 -10.5 Q 188 -21 183.5 -34.5 Q 179 -48 179 -63 Q 179 -77 183.5 -90.5 Q 188 -104 198 -114.5 Q 208 -125 222 -129 Q 236 -133 250 -133 Q 264 -133 278 -129 Q 292 -125 302 -114.5 Q 312 -104 316 -90.5 Q 320 -77 320 -63 Q 320 -48 316 -34.5 Q 312 -21 302 -10.5 Q 292 0 278 4 Q 264 8 250 8 Z " id="path83"/>
<path d="M 213 0 L 213 -227 L 32 -227 L 32 -293 L 213 -293 L 213 -520 L 287 -520 L 287 -293 L 468 -293 L 468 -227 L 287 -227 L 287 0 Z M 400 -346 Q 391 -346 382.5 -348.5 Q 374 -351 367.5 -357.5 Q 361 -364 358.5 -372.5 Q 356 -381 356 -390 Q 356 -399 358.5 -407.5 Q 361 -416 367.5 -422.5 Q 374 -429 382.5 -431.5 Q 391 -434 400 -434 Q 409 -434 417.5 -431.5 Q 426 -429 432.5 -422.5 Q 439 -416 441.5 -407.5 Q 444 -399 444 -390 Q 444 -381 441.5 -372.5 Q 439 -364 432.5 -357.5 Q 426 -351 417.5 -348.5 Q 409 -346 400 -346 Z M 100 -346 Q 91 -346 82.5 -348.5 Q 74 -351 67.5 -357.5 Q 61 -364 58.5 -372.5 Q 56 -381 56 -390 Q 56 -399 58.5 -407.5 Q 61 -416 67.5 -422.5 Q 74 -429 82.5 -431.5 Q 91 -434 100 -434 Q 109 -434 117.5 -431.5 Q 126 -429 132.5 -422.5 Q 139 -416 141.5 -407.5 Q 144 -399 144 -390 Q 144 -381 141.5 -372.5 Q 139 -364 132.5 -357.5 Q 126 -351 117.5 -348.5 Q 109 -346 100 -346 Z M 400 -86 Q 391 -86 382.5 -88.5 Q 374 -91 367.5 -97.5 Q 361 -104 358.5 -112.5 Q 356 -121 356 -130 Q 356 -139 358.5 -147.5 Q 361 -156 367.5 -162.5 Q 374 -169 382.5 -171.5 Q 391 -174 400 -174 Q 409 -174 417.5 -171.5 Q 426 -169 432.5 -162.5 Q 439 -156 441.5 -147.5 Q 444 -139 444 -130 Q 444 -121 441.5 -112.5 Q 439 -104 432.5 -97.5 Q 426 -91 417.5 -88.5 Q 409 -86 400 -86 Z M 100 -86 Q 91 -86 82.5 -88.5 Q 74 -91 67.5 -97.5 Q 61 -104 58.5 -112.5 Q 56 -121 56 -130 Q 56 -139 58.5 -147.5 Q 61 -156 67.5 -162.5 Q 74 -169 82.5 -171.5 Q 91 -174 100 -174 Q 109 -174 117.5 -171.5 Q 126 -169 132.5 -162.5 Q 139 -156 141.5 -147.5 Q 144 -139 144 -130 Q 144 -121 141.5 -112.5 Q 139 -104 132.5 -97.5 Q 126 -91 117.5 -88.5 Q 109 -86 100 -86 Z " id="path84"/>
<path d="M 250 -396 Q 237 -396 224 -400 Q 211 -404 201.5 -413.5 Q 192 -423 188 -436 Q 184 -449 184 -462 Q 184 -475 188 -488 Q 192 -501 201.5 -510.5 Q 211 -520 224 -524 Q 237 -528 250 -528 Q 263 -528 276 -524 Q 289 -520 298.5 -510.5 Q 308 -501 312 -488 Q 316 -475 316 -462 Q 316 -449 312 -436 Q 308 -423 298.5 -413.5 Q 289 -404 276 -400 Q 263 -396 250 -396 Z M 250 -194 Q 237 -194 224 -198 Q 211 -202 201.5 -211.5 Q 192 -221 188 -234 Q 184 -247 184 -260 Q 184 -273 188 -286 Q 192 -299 201.5 -308.5 Q 211 -318 224 -322 Q 237 -326 250 -326 Q 263 -326 276 -322 Q 289 -318 298.5 -308.5 Q 308 -299 312 -286 Q 316 -273 316 -260 Q 316 -247 312 -234 Q 308 -221 298.5 -211.5 Q 289 -202 276 -198 Q 263 -194 250 -194 Z M 250 8 Q 237 8 224 4 Q 211 -0 201.5 -9.5 Q 192 -19 188 -32 Q 184 -45 184 -58 Q 184 -71 188 -84 Q 192 -97 201.5 -106.5 Q 211 -116 224 -120 Q 237 -124 250 -124 Q 263 -124 276 -120 Q 289 -116 298.5 -106.5 Q 308 -97 312 -84 Q 316 -71 316 -58 Q 316 -45 312 -32 Q 308 -19 298.5 -9.5 Q 289 -0 276 4 Q 263 8 250 8 Z " id="path85"/>
<path d="M 250 -483 Q 237 -483 224 -487 Q 211 -491 201.5 -500 Q 192 -509 188 -522 Q 184 -535 184 -549 Q 184 -562 188 -575 Q 192 -588 201.5 -597.5 Q 211 -607 224 -611 Q 237 -615 250 -615 Q 263 -615 276 -611 Q 289 -607 298.5 -597.5 Q 308 -588 312 -575 Q 316 -562 316 -549 Q 316 -535 312 -522 Q 308 -509 298.5 -500 Q 289 -491 276 -487 Q 263 -483 250 -483 Z M 250 -290 Q 237 -290 224 -294 Q 211 -298 201.5 -307.5 Q 192 -317 188 -330 Q 184 -343 184 -356 Q 184 -369 188 -382.5 Q 192 -396 201.5 -405 Q 211 -414 224 -418 Q 237 -422 250 -422 Q 263 -422 276 -418 Q 289 -414 298.5 -405 Q 308 -396 312 -382.5 Q 316 -369 316 -356 Q 316 -343 312 -330 Q 308 -317 298.5 -307.5 Q 289 -298 276 -294 Q 263 -290 250 -290 Z M 250 -98 Q 237 -98 224 -102 Q 211 -106 201.5 -115 Q 192 -124 188 -137.5 Q 184 -151 184 -164 Q 184 -177 188 -190 Q 192 -203 201.5 -212.5 Q 211 -222 224 -226 Q 237 -230 250 -230 Q 263 -230 276 -226 Q 289 -222 298.5 -212.5 Q 308 -203 312 -190 Q 316 -177 316 -164 Q 316 -151 312 -137.5 Q 308 -124 298.5 -115 Q 289 -106 276 -102 Q 263 -98 250 -98 Z M 250 95 Q 237 95 224 91 Q 211 87 201.5 77.5 Q 192 68 188 55 Q 184 42 184 29 Q 184 15 188 2 Q 192 -11 201.5 -20 Q 211 -29 224 -33 Q 237 -37 250 -37 Q 263 -37 276 -33 Q 289 -29 298.5 -20 Q 308 -11 312 2 Q 316 15 316 29 Q 316 42 312 55 Q 308 68 298.5 77.5 Q 289 87 276 91 Q 263 95 250 95 Z " id="path86"/>
</defs>
<g>
<g data-source-text="0" fill="#20242e" transform="translate(174 41.292) rotate(0) scale(0.023999998)">
<use href="#path1" transform="translate(0 0)"/>
</g>
</g>
<g>
<g data-source-text="1" fill="#20242e" transform="translate(246 41.292) rotate(0) scale(0.023999998)">
<use href="#path2" transform="translate(0 0)"/>
</g>
</g>
<g>
<g data-source-text="2" fill="#20242e" transform="translate(318 41.292) rotate(0) scale(0.023999998)">
<use href="#path3" transform="translate(0 0)"/>
</g>
</g>
<g>
<g data-source-text="3" fill="#20242e" transform="translate(390 41.292) rotate(0) scale(0.023999998)">
<use href="#path4" transform="translate(0 0)"/>
</g>
</g>
<g>
<g data-source-text="4" fill="#20242e" transform="translate(462 41.292) rotate(0) scale(0.023999998)">
<use href="#path5" transform="translate(0 0)"/>
</g>
</g>
<g>
<g data-source-text="5" fill="#20242e" transform="translate(534 41.292) rotate(0) scale(0.023999998)">
<use href="#path6" transform="translate(0 0)"/>
</g>
</g>
<g>
<g data-source-text="6" fill="#20242e" transform="translate(606 41.292) rotate(0) scale(0.023999998)">
<use href="#path7" transform="translate(0 0)"/>
</g>
</g>
<g>
<g data-source-text="7" fill="#20242e" transform="translate(678 41.292) rotate(0) scale(0.023999998)">
<use href="#path8" transform="translate(0 0)"/>
</g>
</g>
<g>
<g data-source-text="8" fill="#20242e" transform="translate(750 41.292) rotate(0) scale(0.023999998)">
<use href="#path9" transform="translate(0 0)"/>
</g>
</g>
<g>
<g data-source-text="9" fill="#20242e" transform="translate(822 41.292) rotate(0) scale(0.023999998)">
<use href="#path10" transform="translate(0 0)"/>
</g>
</g>
<g>
<g data-source-text="A" fill="#20242e" transform="translate(894 41.292) rotate(0) scale(0.023999998)">
<use href="#path11" transform="translate(0 0)"/>
</g>
</g>
<g>
<g data-source-text="B" fill="#20242e" transform="translate(966 41.292) rotate(0) scale(0.023999998)">
<use href="#path12" transform="translate(0 0)"/>
</g>
</g>
<g>
<g data-source-text="C" fill="#20242e" transform="translate(1038 41.292) rotate(0) scale(0.023999998)">
<use href="#path13" transform="translate(0 0)"/>
</g>
</g>
<g>
<g data-source-text="D" fill="#20242e" transform="translate(1110 41.292) rotate(0) scale(0.023999998)">
<use href="#path14" transform="translate(0 0)"/>
</g>
</g>
<g>
<g data-source-text="E" fill="#20242e" transform="translate(1182 41.292) rotate(0) scale(0.023999998)">
<use href="#path15" transform="translate(0 0)"/>
</g>
</g>
<g>
<g data-source-text="F" fill="#20242e" transform="translate(1254 41.292) rotate(0) scale(0.023999998)">
<use href="#path16" transform="translate(0 0)"/>
</g>
</g>
<g>
<g data-source-text="U+2000" fill="#20242e" transform="translate(36 113.292) rotate(0) scale(0.023999998)">
<use href="#path17" transform="translate(0 0)"/>
<use href="#path18" transform="translate(500 0)"/>
<use href="#path3" transform="translate(1000 0)"/>
<use href="#path1" transform="translate(1500 0)"/>
<use href="#path1" transform="translate(2000 0)"/>
<use href="#path1" transform="translate(2500 0)"/>
</g>
</g>
<g>
<g data-source-text="" fill="#20242e" transform="translate(180 118.584) rotate(0) scale(0.047999997)"/>
</g>
<g>
<g data-source-text="" fill="#20242e" transform="translate(252 118.584) rotate(0) scale(0.047999997)"/>
</g>
<g>
<g data-source-text="" fill="#20242e" transform="translate(324 118.584) rotate(0) scale(0.047999997)"/>
</g>
<g>
<g data-source-text="" fill="#20242e" transform="translate(396 118.584) rotate(0) scale(0.047999997)"/>
</g>
<g>
<g data-source-text="" fill="#20242e" transform="translate(468 118.584) rotate(0) scale(0.047999997)"/>
</g>
<g>
<g data-source-text="" fill="#20242e" transform="translate(540 118.584) rotate(0) scale(0.047999997)"/>
</g>
<g>
<g data-source-text="" fill="#20242e" transform="translate(612 118.584) rotate(0) scale(0.047999997)"/>
</g>
<g>
<g data-source-text="" fill="#20242e" transform="translate(684 118.584) rotate(0) scale(0.047999997)"/>
</g>
<g>
<g data-source-text="" fill="#20242e" transform="translate(756 118.584) rotate(0) scale(0.047999997)"/>
</g>
<g>
<g data-source-text="" fill="#20242e" transform="translate(828 118.584) rotate(0) scale(0.047999997)"/>
</g>
<g>
<g data-source-text="" fill="#20242e" transform="translate(900 118.584) rotate(0) scale(0.047999997)"/>
</g>
<g>
<g data-source-text="" fill="#20242e" transform="translate(972 118.584) rotate(0) scale(0.047999997)"/>
</g>
<g>
<g data-source-text="" fill="#20242e" transform="translate(1044 118.584) rotate(0) scale(0.047999997)"/>
</g>
<g>
<g data-source-text="" fill="#20242e" transform="translate(1116 118.584) rotate(0) scale(0.047999997)"/>
</g>
<g>
<g data-source-text="" fill="#20242e40" transform="translate(1176 118.584) rotate(0) scale(0.047999997)">
<use href="#path19" transform="translate(0 0)"/>
</g>
</g>
<g>
<g data-source-text="" fill="#20242e40" transform="translate(1248 118.584) rotate(0) scale(0.047999997)">
<use href="#path19" transform="translate(0 0)"/>
</g>
</g>
<g>
<g data-source-text="U+2010" fill="#20242e" transform="translate(36 185.292) rotate(0) scale(0.023999998)">
<use href="#path17" transform="translate(0 0)"/>
<use href="#path18" transform="translate(500 0)"/>
<use href="#path3" transform="translate(1000 0)"/>
<use href="#path1" transform="translate(1500 0)"/>
<use href="#path2" transform="translate(2000 0)"/>
<use href="#path1" transform="translate(2500 0)"/>
</g>
</g>
<g>
<g data-source-text="" fill="#20242e" transform="translate(168 190.584) rotate(0) scale(0.047999997)">
<use href="#path20" transform="translate(0 0)"/>
</g>
</g>
<g>
<g data-source-text="" fill="#20242e" transform="translate(240 190.584) rotate(0) scale(0.047999997)">
<use href="#path20" transform="translate(0 0)"/>
</g>
</g>
<g>
<g data-source-text="" fill="#20242e" transform="translate(312 190.584) rotate(0) scale(0.047999997)">
<use href="#path20" transform="translate(0 0)"/>
</g>
</g>
<g>
<g data-source-text="" fill="#20242e" transform="translate(384 190.584) rotate(0) scale(0.047999997)">
<use href="#path21" transform="translate(0 0)"/>
</g>
</g>
<g>
<g data-source-text="" fill="#20242e" transform="translate(444 190.584) rotate(0) scale(0.047999997)">
<use href="#path22" transform="translate(0 0)"/>
</g>
</g>
<g>
<g data-source-text="" fill="#20242e" transform="translate(516 190.584) rotate(0) scale(0.047999997)">
<use href="#path22" transform="translate(0 0)"/>
</g>
</g>
<g>
<g data-source-text="" fill="#20242e" transform="translate(600 190.584) rotate(0) scale(0.047999997)">
<use href="#path23" transform="translate(0 0)"/>
</g>
</g>
<g>
<g data-source-text="" fill="#20242e" transform="translate(672 190.584) rotate(0) scale(0.047999997)">
<use href="#path24" transform="translate(0 0)"/>
</g>
</g>
<g>
<g data-source-text="" fill="#20242e" transform="translate(744 190.584) rotate(0) scale(0.047999997)">
<use href="#path25" transform="translate(0 0)"/>
</g>
</g>
<g>
<g data-source-text="" fill="#20242e" transform="translate(816 190.584) rotate(0) scale(0.047999997)">
<use href="#path26" transform="translate(0 0)"/>
</g>
</g>
<g>
<g data-source-text="" fill="#20242e" transform="translate(888 190.584) rotate(0) scale(0.047999997)">
<use href="#path27" transform="translate(0 0)"/>
</g>
</g>
<g>
<g data-source-text="" fill="#20242e" transform="translate(960 190.584) rotate(0) scale(0.047999997)">
<use href="#path28" transform="translate(0 0)"/>
</g>
</g>
<g>
<g data-source-text="" fill="#20242e" transform="translate(1032 190.584) rotate(0) scale(0.047999997)">
<use href="#path29" transform="translate(0 0)"/>
</g>
</g>
<g>
<g data-source-text="" fill="#20242e" transform="translate(1104 190.584) rotate(0) scale(0.047999997)">
<use href="#path30" transform="translate(0 0)"/>
</g>
</g>
<g>
<g data-source-text="" fill="#20242e" transform="translate(1176 190.584) rotate(0) scale(0.047999997)">
<use href="#path31" transform="translate(0 0)"/>
</g>
</g>
<g>
<g data-source-text="" fill="#20242e" transform="translate(1248 190.584) rotate(0) scale(0.047999997)">
<use href="#path32" transform="translate(0 0)"/>
</g>
</g>
<g>
<g data-source-text="U+2020" fill="#20242e" transform="translate(36 257.292) rotate(0) scale(0.023999998)">
<use href="#path17" transform="translate(0 0)"/>
<use href="#path18" transform="translate(500 0)"/>
<use href="#path3" transform="translate(1000 0)"/>
<use href="#path1" transform="translate(1500 0)"/>
<use href="#path3" transform="translate(2000 0)"/>
<use href="#path1" transform="translate(2500 0)"/>
</g>
</g>
<g>
<g data-source-text="" fill="#20242e" transform="translate(168 262.584) rotate(0) scale(0.047999997)">
<use href="#path33" transform="translate(0 0)"/>
</g>
</g>
<g>
<g data-source-text="" fill="#20242e" transform="translate(240 262.584) rotate(0) scale(0.047999997)">
<use href="#path34" transform="translate(0 0)"/>
</g>
</g>
<g>
<g data-source-text="" fill="#20242e" transform="translate(312 262.584) rotate(0) scale(0.047999997)">
<use href="#path35" transform="translate(0 0)"/>
</g>
</g>
<g>
<g data-source-text="" fill="#20242e" transform="translate(384 262.584) rotate(0) scale(0.047999997)">
<use href="#path36" transform="translate(0 0)"/>
</g>
</g>
<g>
<g data-source-text="" fill="#20242e" transform="translate(444 262.584) rotate(0) scale(0.047999997)">
<use href="#path37" transform="translate(0 0)"/>
</g>
</g>
<g>
<g data-source-text="" fill="#20242e" transform="translate(516 262.584) rotate(0) scale(0.047999997)">
<use href="#path38" transform="translate(0 0)"/>
</g>
</g>
<g>
<g data-source-text="" fill="#20242e" transform="translate(588 262.584) rotate(0) scale(0.047999997)">
<use href="#path39" transform="translate(0 0)"/>
</g>
</g>
<g>
<g data-source-text="" fill="#20242e" transform="translate(672 262.584) rotate(0) scale(0.047999997)">
<use href="#path40" transform="translate(0 0)"/>
</g>
</g>
<g>
<g data-source-text="" fill="#20242e" transform="translate(756 217.584) rotate(0) scale(0.047999997)"/>
</g>
<g>
<g data-source-text="" fill="#20242e" transform="translate(828 217.584) rotate(0) scale(0.047999997)"/>
</g>
<g>
<g data-source-text="" fill="#20242e40" transform="translate(888 262.584) rotate(0) scale(0.047999997)">
<use href="#path19" transform="translate(0 0)"/>
</g>
</g>
<g>
<g data-source-text="" fill="#20242e40" transform="translate(960 262.584) rotate(0) scale(0.047999997)">
<use href="#path19" transform="translate(0 0)"/>
</g>
</g>
<g>
<g data-source-text="" fill="#20242e40" transform="translate(1032 262.584) rotate(0) scale(0.047999997)">
<use href="#path19" transform="translate(0 0)"/>
</g>
</g>
<g>
<g data-source-text="" fill="#20242e40" transform="translate(1104 262.584) rotate(0) scale(0.047999997)">
<use href="#path19" transform="translate(0 0)"/>
</g>
</g>
<g>
<g data-source-text="" fill="#20242e40" transform="translate(1176 262.584) rotate(0) scale(0.047999997)">
<use href="#path19" transform="translate(0 0)"/>
</g>
</g>
<g>
<g data-source-text="" fill="#20242e" transform="translate(1260 262.584) rotate(0) scale(0.047999997)"/>
</g>
<g>
<g data-source-text="U+2030" fill="#20242e" transform="translate(36 329.292) rotate(0) scale(0.023999998)">
<use href="#path17" transform="translate(0 0)"/>
<use href="#path18" transform="translate(500 0)"/>
<use href="#path3" transform="translate(1000 0)"/>
<use href="#path1" transform="translate(1500 0)"/>
<use href="#path4" transform="translate(2000 0)"/>
<use href="#path1" transform="translate(2500 0)"/>
</g>
</g>
<g>
<g data-source-text="" fill="#20242e" transform="translate(156 334.584) rotate(0) scale(0.047999997)">
<use href="#path41" transform="translate(0 0)"/>
</g>
</g>
<g>
<g data-source-text="" fill="#20242e" transform="translate(228 334.584) rotate(0) scale(0.047999997)">
<use href="#path42" transform="translate(0 0)"/>
</g>
</g>
<g>
<g data-source-text="" fill="#20242e" transform="translate(312 334.584) rotate(0) scale(0.047999997)">
<use href="#path43" transform="translate(0 0)"/>
</g>
</g>
<g>
<g data-source-text="" fill="#20242e" transform="translate(384 334.584) rotate(0) scale(0.047999997)">
<use href="#path44" transform="translate(0 0)"/>
</g>
</g>
<g>
<g data-source-text="" fill="#20242e" transform="translate(456 334.584) rotate(0) scale(0.047999997)">
<use href="#path45" transform="translate(0 0)"/>
</g>
</g>
<g>
<g data-source-text="" fill="#20242e" transform="translate(528 334.584) rotate(0) scale(0.047999997)">
<use href="#path46" transform="translate(0 0)"/>
</g>
</g>
<g>
<g data-source-text="" fill="#20242e" transform="translate(600 334.584) rotate(0) scale(0.047999997)">
<use href="#path47" transform="translate(0 0)"/>
</g>
</g>
<g>
<g data-source-text="" fill="#20242e" transform="translate(672 334.584) rotate(0) scale(0.047999997)">
<use href="#path48" transform="translate(0 0)"/>
</g>
</g>
<g>
<g data-source-text="" fill="#20242e" transform="translate(744 334.584) rotate(0) scale(0.047999997)">
<use href="#path49" transform="translate(0 0)"/>
</g>
</g>
<g>
<g data-source-text="" fill="#20242e" transform="translate(816 334.584) rotate(0) scale(0.047999997)">
<use href="#path50" transform="translate(0 0)"/>
</g>
</g>
<g>
<g data-source-text="" fill="#20242e" transform="translate(888 334.584) rotate(0) scale(0.047999997)">
<use href="#path51" transform="translate(0 0)"/>
</g>
</g>
<g>
<g data-source-text="" fill="#20242e" transform="translate(948 334.584) rotate(0) scale(0.047999997)">
<use href="#path52" transform="translate(0 0)"/>
</g>
</g>
<g>
<g data-source-text="" fill="#20242e" transform="translate(1032 334.584) rotate(0) scale(0.047999997)">
<use href="#path53" transform="translate(0 0)"/>
</g>
</g>
<g>
<g data-source-text="" fill="#20242e" transform="translate(1104 334.584) rotate(0) scale(0.047999997)">
<use href="#path54" transform="translate(0 0)"/>
</g>
</g>
<g>
<g data-source-text="" fill="#20242e" transform="translate(1176 334.584) rotate(0) scale(0.047999997)">
<use href="#path55" transform="translate(0 0)"/>
</g>
</g>
<g>
<g data-source-text="" fill="#20242e" transform="translate(1248 334.584) rotate(0) scale(0.047999997)">
<use href="#path56" transform="translate(0 0)"/>
</g>
</g>
<g>
<g data-source-text="U+2040" fill="#20242e" transform="translate(36 401.292) rotate(0) scale(0.023999998)">
<use href="#path17" transform="translate(0 0)"/>
<use href="#path18" transform="translate(500 0)"/>
<use href="#path3" transform="translate(1000 0)"/>
<use href="#path1" transform="translate(1500 0)"/>
<use href="#path5" transform="translate(2000 0)"/>
<use href="#path1" transform="translate(2500 0)"/>
</g>
</g>
<g>
<g data-source-text="" fill="#20242e" transform="translate(168 406.584) rotate(0) scale(0.047999997)">
<use href="#path57" transform="translate(0 0)"/>
</g>
</g>
<g>
<g data-source-text="" fill="#20242e" transform="translate(240 406.584) rotate(0) scale(0.047999997)">
<use href="#path58" transform="translate(0 0)"/>
</g>
</g>
<g>
<g data-source-text="" fill="#20242e" transform="translate(300 406.584) rotate(0) scale(0.047999997)">
<use href="#path59" transform="translate(0 0)"/>
</g>
</g>
<g>
<g data-source-text="" fill="#20242e" transform="translate(384 406.584) rotate(0) scale(0.047999997)">
<use href="#path20" transform="translate(0 0)"/>
</g>
</g>
<g>
<g data-source-text="" fill="#20242e" transform="translate(456 406.584) rotate(0) scale(0.047999997)">
<use href="#path60" transform="translate(0 0)"/>
</g>
</g>
<g>
<g data-source-text="" fill="#20242e" transform="translate(528 406.584) rotate(0) scale(0.047999997)">
<use href="#path61" transform="translate(0 0)"/>
</g>
</g>
<g>
<g data-source-text="" fill="#20242e" transform="translate(600 406.584) rotate(0) scale(0.047999997)">
<use href="#path62" transform="translate(0 0)"/>
</g>
</g>
<g>
<g data-source-text="" fill="#20242e" transform="translate(672 406.584) rotate(0) scale(0.047999997)">
<use href="#path63" transform="translate(0 0)"/>
</g>
</g>
<g>
<g data-source-text="" fill="#20242e" transform="translate(744 406.584) rotate(0) scale(0.047999997)">
<use href="#path64" transform="translate(0 0)"/>
</g>
</g>
<g>
<g data-source-text="" fill="#20242e" transform="translate(816 406.584) rotate(0) scale(0.047999997)">
<use href="#path65" transform="translate(0 0)"/>
</g>
</g>
<g>
<g data-source-text="" fill="#20242e" transform="translate(888 406.584) rotate(0) scale(0.047999997)">
<use href="#path66" transform="translate(0 0)"/>
</g>
</g>
<g>
<g data-source-text="" fill="#20242e" transform="translate(960 406.584) rotate(0) scale(0.047999997)">
<use href="#path67" transform="translate(0 0)"/>
</g>
</g>
<g>
<g data-source-text="" fill="#20242e" transform="translate(1032 406.584) rotate(0) scale(0.047999997)">
<use href="#path68" transform="translate(0 0)"/>
</g>
</g>
<g>
<g data-source-text="" fill="#20242e" transform="translate(1104 406.584) rotate(0) scale(0.047999997)">
<use href="#path69" transform="translate(0 0)"/>
</g>
</g>
<g>
<g data-source-text="" fill="#20242e" transform="translate(1176 406.584) rotate(0) scale(0.047999997)">
<use href="#path70" transform="translate(0 0)"/>
</g>
</g>
<g>
<g data-source-text="" fill="#20242e" transform="translate(1248 406.584) rotate(0) scale(0.047999997)">
<use href="#path71" transform="translate(0 0)"/>
</g>
</g>
<g>
<g data-source-text="U+2050" fill="#20242e" transform="translate(36 473.292) rotate(0) scale(0.023999998)">
<use href="#path17" transform="translate(0 0)"/>
<use href="#path18" transform="translate(500 0)"/>
<use href="#path3" transform="translate(1000 0)"/>
<use href="#path1" transform="translate(1500 0)"/>
<use href="#path6" transform="translate(2000 0)"/>
<use href="#path1" transform="translate(2500 0)"/>
</g>
</g>
<g>
<g data-source-text="" fill="#20242e" transform="translate(168 478.584) rotate(0) scale(0.047999997)">
<use href="#path72" transform="translate(0 0)"/>
</g>
</g>
<g>
<g data-source-text="" fill="#20242e" transform="translate(240 478.584) rotate(0) scale(0.047999997)">
<use href="#path73" transform="translate(0 0)"/>
</g>
</g>
<g>
<g data-source-text="" fill="#20242e" transform="translate(312 478.584) rotate(0) scale(0.047999997)">
<use href="#path74" transform="translate(0 0)"/>
</g>
</g>
<g>
<g data-source-text="" fill="#20242e" transform="translate(372 478.584) rotate(0) scale(0.047999997)">
<use href="#path75" transform="translate(0 0)"/>
</g>
</g>
<g>
<g data-source-text="" fill="#20242e" transform="translate(456 478.584) rotate(0) scale(0.047999997)">
<use href="#path76" transform="translate(0 0)"/>
</g>
</g>
<g>
<g data-source-text="" fill="#20242e" transform="translate(528 478.584) rotate(0) scale(0.047999997)">
<use href="#path77" transform="translate(0 0)"/>
</g>
</g>
<g>
<g data-source-text="" fill="#20242e" transform="translate(600 478.584) rotate(0) scale(0.047999997)">
<use href="#path78" transform="translate(0 0)"/>
</g>
</g>
<g>
<g data-source-text="" fill="#20242e" transform="translate(672 478.584) rotate(0) scale(0.047999997)">
<use href="#path79" transform="translate(0 0)"/>
</g>
</g>
<g>
<g data-source-text="" fill="#20242e" transform="translate(744 478.584) rotate(0) scale(0.047999997)">
<use href="#path80" transform="translate(0 0)"/>
</g>
</g>
<g>
<g data-source-text="" fill="#20242e" transform="translate(816 478.584) rotate(0) scale(0.047999997)">
<use href="#path81" transform="translate(0 0)"/>
</g>
</g>
<g>
<g data-source-text="" fill="#20242e" transform="translate(888 478.584) rotate(0) scale(0.047999997)">
<use href="#path82" transform="translate(0 0)"/>
</g>
</g>
<g>
<g data-source-text="" fill="#20242e" transform="translate(960 478.584) rotate(0) scale(0.047999997)">
<use href="#path83" transform="translate(0 0)"/>
</g>
</g>
<g>
<g data-source-text="" fill="#20242e" transform="translate(1032 478.584) rotate(0) scale(0.047999997)">
<use href="#path84" transform="translate(0 0)"/>
</g>
</g>
<g>
<g data-source-text="" fill="#20242e" transform="translate(1104 478.584) rotate(0) scale(0.047999997)">
<use href="#path85" transform="translate(0 0)"/>
</g>
</g>
<g>
<g data-source-text="" fill="#20242e" transform="translate(1176 478.584) rotate(0) scale(0.047999997)">
<use href="#path86" transform="translate(0 0)"/>
</g>
</g>
<g>
<g data-source-text="" fill="#20242e" transform="translate(1260 478.584) rotate(0) scale(0.047999997)"/>
</g>
<g>
<g data-source-text="U+2060" fill="#20242e" transform="translate(36 545.292) rotate(0) scale(0.023999998)">
<use href="#path17" transform="translate(0 0)"/>
<use href="#path18" transform="translate(500 0)"/>
<use href="#path3" transform="translate(1000 0)"/>
<use href="#path1" transform="translate(1500 0)"/>
<use href="#path7" transform="translate(2000 0)"/>
<use href="#path1" transform="translate(2500 0)"/>
</g>
</g>
<g>
<g data-source-text="" fill="#20242e" transform="translate(180 550.584) rotate(0) scale(0.047999997)"/>
</g>
<g>
<g data-source-text="" fill="#20242e" transform="translate(252 550.584) rotate(0) scale(0.047999997)"/>
</g>
<g>
<g data-source-text="" fill="#20242e" transform="translate(324 550.584) rotate(0) scale(0.047999997)"/>
</g>
<g>
<g data-source-text="" fill="#20242e" transform="translate(396 550.584) rotate(0) scale(0.047999997)"/>
</g>
<g>
<g data-source-text="" fill="#20242e" transform="translate(468 550.584) rotate(0) scale(0.047999997)"/>
</g>
<g>
<g data-source-text="" fill="#20242e40" transform="translate(528 550.584) rotate(0) scale(0.047999997)">
<use href="#path19" transform="translate(0 0)"/>
</g>
</g>
<g>
<g data-source-text="" fill="#20242e40" transform="translate(600 550.584) rotate(0) scale(0.047999997)">
<use href="#path19" transform="translate(0 0)"/>
</g>
</g>
<g>
<g data-source-text="" fill="#20242e40" transform="translate(672 550.584) rotate(0) scale(0.047999997)">
<use href="#path19" transform="translate(0 0)"/>
</g>
</g>
<g>
<g data-source-text="" fill="#20242e40" transform="translate(744 550.584) rotate(0) scale(0.047999997)">
<use href="#path19" transform="translate(0 0)"/>
</g>
</g>
<g>
<g data-source-text="" fill="#20242e40" transform="translate(816 550.584) rotate(0) scale(0.047999997)">
<use href="#path19" transform="translate(0 0)"/>
</g>
</g>
<g>
<g data-source-text="" fill="#20242e40" transform="translate(888 550.584) rotate(0) scale(0.047999997)">
<use href="#path19" transform="translate(0 0)"/>
</g>
</g>
<g>
<g data-source-text="" fill="#20242e40" transform="translate(960 550.584) rotate(0) scale(0.047999997)">
<use href="#path19" transform="translate(0 0)"/>
</g>
</g>
<g>
<g data-source-text="" fill="#20242e40" transform="translate(1032 550.584) rotate(0) scale(0.047999997)">
<use href="#path19" transform="translate(0 0)"/>
</g>
</g>
<g>
<g data-source-text="" fill="#20242e40" transform="translate(1104 550.584) rotate(0) scale(0.047999997)">
<use href="#path19" transform="translate(0 0)"/>
</g>
</g>
<g>
<g data-source-text="" fill="#20242e40" transform="translate(1176 550.584) rotate(0) scale(0.047999997)">
<use href="#path19" transform="translate(0 0)"/>
</g>
</g>
<g>
<g data-source-text="" fill="#20242e40" transform="translate(1248 550.584) rotate(0) scale(0.047999997)">
<use href="#path19" transform="translate(0 0)"/>
</g>
</g>
</svg>