<?xml version="1.0" encoding="UTF-8" standalone="no"?>
<svg height="360" viewBox="0 0 1296 360" width="1296" xmlns="http://www.w3.org/2000/svg">
<defs>
<path d="M 250 8 Q 223 8 196 3 Q 169 -2 145 -15 Q 121 -28 102.5 -48.5 Q 84 -69 72.5 -94 Q 61 -119 56.5 -146 Q 52 -173 52 -200 L 52 -535 Q 52 -562 56.5 -589 Q 61 -616 72.5 -641 Q 84 -666 102.5 -686.5 Q 121 -707 145 -720 Q 169 -733 196 -738 Q 223 -743 250 -743 Q 277 -743 304 -738 Q 331 -733 355 -720 Q 379 -707 397.5 -686.5 Q 416 -666 427.5 -641 Q 439 -616 443.5 -589 Q 448 -562 448 -535 L 448 -200 Q 448 -173 443.5 -146 Q 439 -119 427.5 -94 Q 416 -69 397.5 -48.5 Q 379 -28 355 -15 Q 331 -2 304 3 Q 277 8 250 8 Z M 153 -337 L 347 -491 L 347 -535 Q 347 -557 342.5 -578.5 Q 338 -600 325.5 -618 Q 313 -636 292.5 -645.5 Q 272 -655 250 -655 Q 228 -655 207.5 -645.5 Q 187 -636 174.5 -618 Q 162 -600 157.5 -578.5 Q 153 -557 153 -535 Z M 250 -80 Q 272 -80 292.5 -89.5 Q 313 -99 325.5 -117 Q 338 -135 342.5 -156.5 Q 347 -178 347 -200 L 347 -398 L 153 -244 L 153 -200 Q 153 -178 157.5 -156.5 Q 162 -135 174.5 -117 Q 187 -99 207.5 -89.5 Q 228 -80 250 -80 Z " id="path1"/>
<path d="M 230 0 L 230 -637 L 107 -542 L 55 -600 L 230 -735 L 330 -735 L 330 0 Z " id="path2"/>
<path d="M 60 0 L 60 -1 Q 60 -27 61 -53.5 Q 62 -80 66 -106.5 Q 70 -133 77.5 -158.5 Q 85 -184 96.5 -207.5 Q 108 -231 123 -253 Q 138 -275 156 -294.5 Q 174 -314 194 -331 Q 214 -348 235.5 -364 Q 257 -380 277.5 -397 Q 298 -414 313 -435.5 Q 328 -457 335.5 -483 Q 343 -509 343 -535 Q 343 -557 339 -578 Q 335 -599 323.5 -617 Q 312 -635 292 -645 Q 272 -655 251 -655 Q 231 -655 213 -648 Q 195 -641 182.5 -626.5 Q 170 -612 164.5 -593 Q 159 -574 159 -555 L 159 -554 L 58 -554 L 58 -556 Q 58 -581 64 -606 Q 70 -631 82 -653.5 Q 94 -676 112 -694 Q 130 -712 152.5 -723 Q 175 -734 200 -738.5 Q 225 -743 251 -743 Q 278 -743 304.5 -737.5 Q 331 -732 354 -719 Q 377 -706 395 -685.5 Q 413 -665 424 -640.5 Q 435 -616 439.5 -589 Q 444 -562 444 -535 Q 444 -501 435 -468 Q 426 -435 407.5 -406 Q 389 -377 364 -353.5 Q 339 -330 312.5 -308.5 Q 286 -287 261 -264 Q 236 -241 216.5 -213 Q 197 -185 184 -153.5 Q 171 -122 166 -88 L 440 -88 L 440 0 Z " id="path3"/>
<path d="M 252 8 Q 226 8 200 3.5 Q 174 -1 150.5 -12 Q 127 -23 107.5 -41 Q 88 -59 75.5 -82 Q 63 -105 56.5 -130.5 Q 50 -156 50 -183 L 151 -183 Q 151 -162 157.5 -142.5 Q 164 -123 178 -108 Q 192 -93 212 -86.5 Q 232 -80 252 -80 Q 275 -80 296 -88.5 Q 317 -97 330.5 -114.5 Q 344 -132 349.5 -154 Q 355 -176 355 -198 Q 355 -217 351 -235.5 Q 347 -254 338.5 -271 Q 330 -288 316.5 -301 Q 303 -314 286 -322 Q 269 -330 250 -332 Q 231 -334 212 -334 L 212 -422 Q 229 -422 246 -424 Q 263 -426 278.5 -433 Q 294 -440 306 -452.5 Q 318 -465 325.5 -480.5 Q 333 -496 336 -512.5 Q 339 -529 339 -546 Q 339 -566 334.5 -585.5 Q 330 -605 319.5 -621 Q 309 -637 290.5 -646 Q 272 -655 253 -655 Q 234 -655 216.5 -647.5 Q 199 -640 188 -625.5 Q 177 -611 172 -593 Q 167 -575 167 -556 L 167 -555 L 66 -555 L 66 -558 Q 66 -582 71.5 -606.5 Q 77 -631 88.5 -653 Q 100 -675 117.5 -693 Q 135 -711 157 -722.5 Q 179 -734 203.5 -738.5 Q 228 -743 253 -743 Q 278 -743 303 -738 Q 328 -733 350.5 -721 Q 373 -709 390 -690 Q 407 -671 418 -648 Q 429 -625 434.5 -600 Q 440 -575 440 -549 Q 440 -524 434 -498.5 Q 428 -473 415.5 -450.5 Q 403 -428 384.5 -409.5 Q 366 -391 343 -379 Q 369 -368 391 -348.5 Q 413 -329 427.5 -304.5 Q 442 -280 449 -252 Q 456 -224 456 -196 Q 456 -168 450 -141.5 Q 444 -115 432 -91 Q 420 -67 400.5 -47 Q 381 -27 357 -14.5 Q 333 -2 306.5 3 Q 280 8 252 8 Z " id="path4"/>
<path d="M 282 0 L 282 -188 L 52 -188 L 52 -275 L 276 -735 L 385 -735 L 161 -275 L 282 -275 L 282 -435 L 382 -435 L 382 -275 L 440 -275 L 440 -188 L 382 -188 L 382 0 Z " id="path5"/>
<path d="M 252 8 Q 227 8 202.5 3.5 Q 178 -1 156.5 -12.5 Q 135 -24 117.5 -42 Q 100 -60 88 -81 Q 76 -102 69 -126 Q 62 -150 60 -174 L 60 -176 L 160 -176 L 161 -172 Q 164 -154 170.5 -137 Q 177 -120 188.5 -107 Q 200 -94 217 -87 Q 234 -80 252 -80 Q 269 -80 285 -87 Q 301 -94 312 -106.5 Q 323 -119 330 -135 Q 337 -151 340.5 -167.5 Q 344 -184 345.5 -201 Q 347 -218 347 -235 Q 347 -252 345.5 -269 Q 344 -286 340.5 -302.5 Q 337 -319 330.5 -334.5 Q 324 -350 313.5 -363 Q 303 -376 287 -383.5 Q 271 -391 254 -391 Q 236 -391 219.5 -384 Q 203 -377 191.5 -363 Q 180 -349 174.5 -331.5 Q 169 -314 168 -296 L 68 -296 L 68 -735 L 421 -735 L 421 -647 L 168 -647 L 168 -462 Q 188 -471 210 -474.5 Q 232 -478 254 -478 Q 284 -478 312.5 -470.5 Q 341 -463 364.5 -445.5 Q 388 -428 404.5 -403.5 Q 421 -379 430.5 -351 Q 440 -323 444 -294 Q 448 -265 448 -235 Q 447 -206 443.5 -176.5 Q 440 -147 430.5 -119 Q 421 -91 404 -66.5 Q 387 -42 363 -24.5 Q 339 -7 310 0.5 Q 281 8 252 8 Z " id="path6"/>
<path d="M 250 8 Q 219 8 189 -0.5 Q 159 -9 135 -28 Q 111 -47 94.5 -73.5 Q 78 -100 68.5 -129 Q 59 -158 55.5 -189 Q 52 -220 52 -250 Q 52 -291 60 -331 Q 68 -371 82 -409 Q 96 -447 114 -483.5 Q 132 -520 150 -556 L 238 -735 L 347 -735 L 240 -517 Q 232 -500 223 -483.5 Q 214 -467 205 -451 Q 217 -454 229 -455 Q 241 -456 253 -456 Q 281 -456 309.5 -449 Q 338 -442 361.5 -426 Q 385 -410 402.5 -386.5 Q 420 -363 430 -336.5 Q 440 -310 444 -281.5 Q 448 -253 448 -224 Q 448 -195 444 -166.5 Q 440 -138 429.5 -111 Q 419 -84 401.5 -60.5 Q 384 -37 360 -21 Q 336 -5 307.5 1.5 Q 279 8 250 8 Z M 250 -80 Q 266 -80 282 -85.5 Q 298 -91 309.5 -102.5 Q 321 -114 328.5 -129 Q 336 -144 340 -159.5 Q 344 -175 345.5 -191.5 Q 347 -208 347 -224 Q 347 -240 345.5 -256.5 Q 344 -273 340 -288.5 Q 336 -304 328.5 -319 Q 321 -334 309.5 -345.5 Q 298 -357 282.5 -362.5 Q 267 -368 251 -368 Q 234 -368 218.5 -362.5 Q 203 -357 191.5 -345.5 Q 180 -334 172 -319.5 Q 164 -305 160 -289 Q 156 -273 154.5 -256.5 Q 153 -240 153 -224 Q 153 -208 154.5 -191.5 Q 156 -175 160 -159.5 Q 164 -144 171.5 -129 Q 179 -114 190.5 -102.5 Q 202 -91 218 -85.5 Q 234 -80 250 -80 Z " id="path7"/>
<path d="M 138 0 L 336 -647 L 60 -647 L 60 -735 L 440 -735 L 440 -647 L 242 0 Z " id="path8"/>
<path d="M 250 8 Q 225 8 200 4 Q 175 -0 152 -10 Q 129 -20 110 -37 Q 91 -54 78 -75.5 Q 65 -97 58.5 -121.5 Q 52 -146 52 -171 Q 52 -202 62 -232 Q 72 -262 88.5 -288 Q 105 -314 127 -336 Q 149 -358 174 -378 Q 152 -396 132.5 -417 Q 113 -438 98.5 -462.5 Q 84 -487 76 -514.5 Q 68 -542 68 -571 Q 68 -594 73.5 -617.5 Q 79 -641 90.5 -661.5 Q 102 -682 119.5 -698.5 Q 137 -715 158 -725 Q 179 -735 202.5 -739 Q 226 -743 250 -743 Q 274 -743 297.5 -739 Q 321 -735 342 -725 Q 363 -715 380.5 -698.5 Q 398 -682 409.5 -661.5 Q 421 -641 426.5 -617.5 Q 432 -594 432 -571 Q 432 -542 424 -514.5 Q 416 -487 401.5 -462.5 Q 387 -438 367.5 -417 Q 348 -396 326 -378 Q 351 -358 373 -336 Q 395 -314 411.5 -288 Q 428 -262 438 -232 Q 448 -202 448 -171 Q 448 -146 441.5 -121.5 Q 435 -97 422 -75.5 Q 409 -54 390 -37 Q 371 -20 348 -10 Q 325 -0 300 4 Q 275 8 250 8 Z M 250 -435 Q 266 -447 280.5 -461.5 Q 295 -476 306.5 -493 Q 318 -510 325 -529.5 Q 332 -549 332 -569 Q 332 -586 326.5 -602.5 Q 321 -619 310 -631.5 Q 299 -644 283 -649.5 Q 267 -655 250 -655 Q 233 -655 217 -649.5 Q 201 -644 190 -631.5 Q 179 -619 173.5 -602.5 Q 168 -586 168 -569 Q 168 -549 175 -529.5 Q 182 -510 193.5 -493 Q 205 -476 219.5 -461.5 Q 234 -447 250 -435 Z M 250 -80 Q 269 -80 287.5 -85.5 Q 306 -91 320 -104 Q 334 -117 340.5 -135.5 Q 347 -154 347 -173 Q 347 -196 338.5 -217.5 Q 330 -239 316.5 -257.5 Q 303 -276 285.5 -291 Q 268 -306 250 -320 Q 232 -306 214.5 -291 Q 197 -276 183.5 -257.5 Q 170 -239 161.5 -217.5 Q 153 -196 153 -173 Q 153 -154 159.5 -135.5 Q 166 -117 180 -104 Q 194 -91 212.5 -85.5 Q 231 -80 250 -80 Z " id="path9"/>
<path d="M 262 0 L 153 0 L 260 -218 Q 268 -235 277 -251.5 Q 286 -268 295 -284 Q 283 -281 271 -280 Q 259 -279 247 -279 Q 219 -279 190.5 -286 Q 162 -293 138.5 -309 Q 115 -325 97.5 -348.5 Q 80 -372 70 -398.5 Q 60 -425 56 -453.5 Q 52 -482 52 -511 Q 52 -540 56 -568.5 Q 60 -597 70.5 -624 Q 81 -651 98.5 -674.5 Q 116 -698 140 -714 Q 164 -730 192.5 -736.5 Q 221 -743 250 -743 Q 281 -743 311 -734.5 Q 341 -726 365 -707 Q 389 -688 405.5 -661.5 Q 422 -635 431.5 -606 Q 441 -577 444.5 -546 Q 448 -515 448 -485 Q 448 -444 440 -404 Q 432 -364 418 -326 Q 404 -288 386 -251.5 Q 368 -215 350 -179 Z M 249 -367 Q 266 -367 281.5 -372.5 Q 297 -378 308.5 -389.5 Q 320 -401 328 -415.5 Q 336 -430 340 -446 Q 344 -462 345.5 -478.5 Q 347 -495 347 -511 Q 347 -527 345.5 -543.5 Q 344 -560 340 -575.5 Q 336 -591 328.5 -606 Q 321 -621 309.5 -632.5 Q 298 -644 282 -649.5 Q 266 -655 250 -655 Q 234 -655 218 -649.5 Q 202 -644 190.5 -632.5 Q 179 -621 171.5 -606 Q 164 -591 160 -575.5 Q 156 -560 154.5 -543.5 Q 153 -527 153 -511 Q 153 -495 154.5 -478.5 Q 156 -462 160 -446.5 Q 164 -431 171.5 -416 Q 179 -401 190.5 -389.5 Q 202 -378 217.5 -372.5 Q 233 -367 249 -367 Z " id="path10"/>
<path d="M 39 0 L 192 -735 L 308 -735 L 461 0 L 358 0 L 326 -172 L 174 -172 L 142 0 Z M 309 -260 L 265 -490 Q 262 -511 258 -531.5 Q 254 -552 250 -572 Q 246 -552 242 -531.5 Q 238 -511 235 -490 L 191 -260 Z " id="path11"/>
<path d="M 60 0 L 60 -735 L 234 -735 Q 261 -735 287 -730.5 Q 313 -726 336 -714 Q 359 -702 377.5 -682.5 Q 396 -663 408 -639.5 Q 420 -616 424.5 -590 Q 429 -564 429 -538 Q 429 -515 425 -492 Q 421 -469 410.5 -448.5 Q 400 -428 383.5 -411 Q 367 -394 347 -383 Q 372 -373 393.5 -355.5 Q 415 -338 429.5 -314.5 Q 444 -291 450 -264 Q 456 -237 456 -210 Q 456 -181 450 -152.5 Q 444 -124 430 -98.5 Q 416 -73 394.5 -53.5 Q 373 -34 347 -21.5 Q 321 -9 292 -4.5 Q 263 -0 234 0 Z M 161 -424 L 234 -424 Q 255 -424 274.5 -432.5 Q 294 -441 306.5 -457.5 Q 319 -474 324 -494.5 Q 329 -515 329 -536 Q 329 -557 324 -577.5 Q 319 -598 306.5 -614.5 Q 294 -631 274.5 -639 Q 255 -647 234 -647 L 161 -647 Z M 161 -88 L 234 -88 Q 251 -88 267 -91 Q 283 -94 297.5 -101.5 Q 312 -109 323.5 -121 Q 335 -133 342.5 -148 Q 350 -163 352.5 -179 Q 355 -195 355 -212 Q 355 -228 352.5 -244.5 Q 350 -261 343 -276 Q 336 -291 324.5 -303 Q 313 -315 298 -322.5 Q 283 -330 267 -333 Q 251 -336 234 -336 L 161 -336 Z " id="path12"/>
<path d="M 247 8 Q 220 8 193.5 2.5 Q 167 -3 143.5 -16 Q 120 -29 101.5 -49.5 Q 83 -70 72 -94.5 Q 61 -119 56.5 -146 Q 52 -173 52 -200 L 52 -535 Q 52 -562 56.5 -589 Q 61 -616 72 -640.5 Q 83 -665 101.5 -685.5 Q 120 -706 143.5 -719 Q 167 -732 193.5 -737.5 Q 220 -743 247 -743 Q 273 -743 298 -738.5 Q 323 -734 346 -723 Q 369 -712 387.5 -694 Q 406 -676 418 -653.5 Q 430 -631 436 -606 Q 442 -581 442 -556 L 442 -554 L 341 -554 L 341 -555 Q 341 -575 335.5 -593.5 Q 330 -612 317 -627 Q 304 -642 285.5 -648.5 Q 267 -655 247 -655 Q 226 -655 206 -645.5 Q 186 -636 173.5 -618 Q 161 -600 157 -578.5 Q 153 -557 153 -535 L 153 -200 Q 153 -178 157 -156.5 Q 161 -135 173.5 -117 Q 186 -99 206 -89.5 Q 226 -80 247 -80 Q 267 -80 285.5 -86.5 Q 304 -93 317 -108 Q 330 -123 335.5 -141.5 Q 341 -160 341 -180 L 341 -181 L 442 -181 L 442 -179 Q 442 -154 436 -129 Q 430 -104 418 -81.5 Q 406 -59 387.5 -41 Q 369 -23 346 -12 Q 323 -1 298 3.5 Q 273 8 247 8 Z " id="path13"/>
<path d="M 60 0 L 60 -735 L 219 -735 Q 249 -735 279 -730 Q 309 -725 336.5 -712 Q 364 -699 386 -678.5 Q 408 -658 422 -631.5 Q 436 -605 442 -575 Q 448 -545 448 -515 L 448 -220 Q 448 -190 442 -160 Q 436 -130 422 -103.5 Q 408 -77 386 -56.5 Q 364 -36 336.5 -23 Q 309 -10 279 -5 Q 249 -0 219 0 Z M 161 -88 L 219 -88 Q 237 -88 254 -91 Q 271 -94 286.5 -102.5 Q 302 -111 314 -124 Q 326 -137 333.5 -152.5 Q 341 -168 344 -185.5 Q 347 -203 347 -220 L 347 -515 Q 347 -532 344 -549.5 Q 341 -567 333.5 -582.5 Q 326 -598 314 -611 Q 302 -624 286.5 -632.5 Q 271 -641 254 -644 Q 237 -647 219 -647 L 161 -647 Z " id="path14"/>
<path d="M 68 0 L 68 -735 L 440 -735 L 440 -647 L 169 -647 L 169 -426 L 383 -426 L 383 -338 L 169 -338 L 169 -88 L 440 -88 L 440 0 Z " id="path15"/>
<path d="M 91 0 L 91 -735 L 440 -735 L 440 -647 L 191 -647 L 191 -426 L 383 -426 L 383 -338 L 191 -338 L 191 0 Z " id="path16"/>
<path d="M 250 8 Q 223 8 196.5 2.5 Q 170 -3 147 -16.5 Q 124 -30 106.5 -50.5 Q 89 -71 78.5 -95.5 Q 68 -120 64 -146.5 Q 60 -173 60 -200 L 60 -735 L 161 -735 L 161 -200 Q 161 -186 162.5 -172 Q 164 -158 168 -144.5 Q 172 -131 179.5 -118.5 Q 187 -106 197.5 -97 Q 208 -88 222 -84 Q 236 -80 250 -80 Q 264 -80 278 -84 Q 292 -88 302.5 -97 Q 313 -106 320.5 -118.5 Q 328 -131 332 -144.5 Q 336 -158 337.5 -172 Q 339 -186 339 -200 L 339 -735 L 440 -735 L 440 -200 Q 440 -173 436 -146.5 Q 432 -120 421.5 -95.5 Q 411 -71 393.5 -50.5 Q 376 -30 353 -16.5 Q 330 -3 303.5 2.5 Q 277 8 250 8 Z " id="path17"/>
<path d="M 300 -143 L 200 -143 L 200 -296 L 60 -296 L 60 -384 L 200 -384 L 200 -537 L 300 -537 L 300 -384 L 440 -384 L 440 -296 L 300 -296 Z " id="path18"/>
<path d="M 206 223 L 206 154 L 216 154 Q 236 154 255.5 147 Q 275 140 288.5 125.5 Q 302 111 307.5 91 Q 313 71 313 51 L 313 5 Q 305 7 297 7.5 Q 289 8 281 8 Q 258 8 235.5 2 Q 213 -4 194.5 -17.5 Q 176 -31 163 -50.5 Q 150 -70 142 -91 L 142 0 L 64 0 L 64 -735 L 142 -735 L 142 -429 Q 150 -450 163 -469.5 Q 176 -489 194.5 -502.5 Q 213 -516 235.5 -522 Q 258 -528 281 -528 Q 306 -528 330.5 -521 Q 355 -514 375 -499 Q 395 -484 408.5 -463 Q 422 -442 430 -418.5 Q 438 -395 441 -370 Q 444 -345 444 -320 L 444 -200 Q 444 -178 442 -155.5 Q 440 -133 433.5 -111.5 Q 427 -90 416 -70 Q 405 -50 390 -34 L 390 51 Q 390 74 385.5 97 Q 381 120 370.5 141 Q 360 162 343 178.5 Q 326 195 305.5 205 Q 285 215 262 219 Q 239 223 216 223 Z M 251 -62 Q 268 -62 284.5 -66 Q 301 -70 315 -79.5 Q 329 -89 339.5 -103 Q 350 -117 356 -133 Q 362 -149 364 -166 Q 366 -183 366 -200 L 366 -320 Q 366 -337 364 -354 Q 362 -371 356 -387 Q 350 -403 339.5 -417 Q 329 -431 315 -440.5 Q 301 -450 284.5 -454 Q 268 -458 251 -458 Q 234 -458 217.5 -454 Q 201 -450 188 -440 Q 175 -430 165.5 -415.5 Q 156 -401 151 -385.5 Q 146 -370 144 -353.5 Q 142 -337 142 -320 L 142 -200 Q 142 -183 144 -166.5 Q 146 -150 151 -134.5 Q 156 -119 165.5 -104.5 Q 175 -90 188 -80 Q 201 -70 217.5 -66 Q 234 -62 251 -62 Z " id="path19"/>
<path d="M 299 223 L 299 154 L 308 154 Q 328 154 347.5 147 Q 367 140 380.5 125.5 Q 394 111 399.5 91 Q 405 71 405 51 L 405 0 L 358 0 L 358 -91 Q 350 -70 337 -50.5 Q 324 -31 305.5 -17.5 Q 287 -4 264.5 2 Q 242 8 219 8 Q 194 8 169.5 1 Q 145 -6 125 -21 Q 105 -36 91.5 -57 Q 78 -78 70 -101.5 Q 62 -125 59 -150 Q 56 -175 56 -200 L 56 -320 Q 56 -345 59 -370 Q 62 -395 70 -418.5 Q 78 -442 91.5 -463 Q 105 -484 125 -499 Q 145 -514 169.5 -521 Q 194 -528 219 -528 Q 242 -528 264.5 -522 Q 287 -516 305.5 -502.5 Q 324 -489 337 -469.5 Q 350 -450 358 -429 L 358 -735 L 436 -735 L 436 -70 L 482 -70 L 482 51 Q 482 74 478 97 Q 474 120 463.5 141 Q 453 162 436 178.5 Q 419 195 398 205 Q 377 215 354 219 Q 331 223 308 223 Z M 249 -62 Q 266 -62 282.5 -66.5 Q 299 -71 312 -81 Q 325 -91 334.5 -105 Q 344 -119 349 -134.5 Q 354 -150 356 -166.5 Q 358 -183 358 -200 L 358 -320 Q 358 -337 356 -353.5 Q 354 -370 349 -385.5 Q 344 -401 334.5 -415.5 Q 325 -430 312 -440 Q 299 -450 282.5 -454 Q 266 -458 249 -458 Q 232 -458 215.5 -454 Q 199 -450 185 -440.5 Q 171 -431 160.5 -417 Q 150 -403 144 -387 Q 138 -371 136 -354 Q 134 -337 134 -320 L 134 -200 Q 134 -183 136 -166 Q 138 -149 144 -133 Q 150 -117 160.5 -103 Q 171 -89 185 -79.5 Q 199 -70 215.5 -66 Q 232 -62 249 -62 Z " id="path20"/>
<path d="M 146 223 L 146 154 L 156 154 Q 176 154 195.5 147 Q 215 140 228.5 125.5 Q 242 111 247 91 Q 252 71 252 51 L 252 0 L 175 0 L 175 -402 L 64 -402 L 64 -473 L 175 -473 L 175 -579 Q 175 -599 177.5 -619.5 Q 180 -640 187.5 -659 Q 195 -678 207 -695 Q 219 -712 236.5 -723 Q 254 -734 274 -738.5 Q 294 -743 314 -743 Q 342 -743 369.5 -734.5 Q 397 -726 416 -705.5 Q 435 -685 444 -658 Q 453 -631 453 -603 L 453 -595 L 375 -595 L 375 -599 Q 375 -613 372 -626 Q 369 -639 361 -650.5 Q 353 -662 340.5 -667.5 Q 328 -673 314 -673 Q 298 -673 284.5 -664 Q 271 -655 264 -641 Q 257 -627 254.5 -611 Q 252 -595 252 -579 L 252 -473 L 417 -473 L 417 -403 L 252 -403 L 252 -70 L 329 -70 L 329 51 Q 329 74 325 97 Q 321 120 310.5 141 Q 300 162 283 178.5 Q 266 195 245.5 205 Q 225 215 202 219 Q 179 223 156 223 Z " id="path21"/>
<path d="M 186 -62 Q 196 -62 204.5 -68 Q 213 -74 218 -83 Q 223 -92 226 -101.5 Q 229 -111 231.5 -120.5 Q 234 -130 235 -140 Q 236 -150 237 -160 Q 238 -170 238.5 -180 Q 239 -190 239 -200 L 239 -320 Q 239 -330 238.5 -340 Q 238 -350 237 -360 Q 236 -370 235 -380 Q 234 -390 231.5 -399.5 Q 229 -409 226 -418.5 Q 223 -428 218 -437 Q 213 -446 204.5 -452 Q 196 -458 186 -458 Q 173 -458 162.5 -448 Q 152 -438 146 -426 Q 140 -414 137 -401 Q 134 -388 132 -374.5 Q 130 -361 129 -347.5 Q 128 -334 128 -320 L 128 -200 Q 128 -186 129 -172.5 Q 130 -159 132 -145.5 Q 134 -132 137 -119 Q 140 -106 146 -94 Q 152 -82 162.5 -72 Q 173 -62 186 -62 Z M 184 223 Q 165 223 146.5 217 Q 128 211 113 199 Q 98 187 87.5 170.5 Q 77 154 70.5 135.5 Q 64 117 60.5 98 Q 57 79 57 60 L 134 60 Q 135 74 137 88.5 Q 139 103 144 117 Q 149 131 159.5 142 Q 170 153 184 153 Q 198 153 207.5 143 Q 217 133 222.5 120.5 Q 228 108 231 95 Q 234 82 235.5 68.5 Q 237 55 238 41.5 Q 239 28 239 15 L 239 -69 Q 234 -55 227 -41 Q 220 -27 210 -15.5 Q 200 -4 185.5 2 Q 171 8 156 8 Q 135 8 116 -4 Q 97 -16 85.5 -34 Q 74 -52 67.5 -72.5 Q 61 -93 57 -114.5 Q 53 -136 52 -157.5 Q 51 -179 51 -200 L 51 -320 Q 51 -341 52 -362.5 Q 53 -384 57 -405.5 Q 61 -427 67.5 -447.5 Q 74 -468 85.5 -486 Q 97 -504 116 -516 Q 135 -528 156 -528 Q 171 -528 185.5 -522 Q 200 -516 210 -504.5 Q 220 -493 227 -479 Q 234 -465 239 -451 L 239 -485 L 316 -520 L 316 -70 L 436 -70 L 436 51 Q 436 79 429.5 106.5 Q 423 134 407.5 157 Q 392 180 367.5 195.5 Q 343 211 316 218 L 316 141 Q 327 134 336 124 Q 345 114 350 102 Q 355 90 357 77 Q 359 64 359 51 L 359 0 L 316 0 L 316 15 Q 316 38 314 61 Q 312 84 306.5 106.5 Q 301 129 291.5 150 Q 282 171 266.5 188 Q 251 205 229 214 Q 207 223 184 223 Z " id="path22"/>
<path d="M 299 223 L 299 154 L 308 154 Q 328 154 347.5 147 Q 367 140 380.5 125.5 Q 394 111 399.5 91 Q 405 71 405 51 L 405 0 L 353 0 L 207 -221 L 157 -158 L 157 0 L 80 0 L 80 -735 L 157 -735 L 157 -278 L 348 -520 L 443 -520 L 256 -283 L 397 -70 L 482 -70 L 482 51 Q 482 74 478 97 Q 474 120 463.5 141 Q 453 162 436 178.5 Q 419 195 398 205 Q 377 215 354 219 Q 331 223 308 223 Z " id="path23"/>
<path d="M 280 223 L 280 154 L 290 154 Q 310 154 329.5 147 Q 349 140 362.5 125.5 Q 376 111 381.5 91 Q 387 71 387 51 L 387 0 L 75 0 L 75 -70 L 218 -70 L 218 -665 L 89 -665 L 89 -735 L 296 -735 L 296 -70 L 463 -70 L 463 51 Q 463 74 459 97 Q 455 120 444.5 141 Q 434 162 417 178.5 Q 400 195 379.5 205 Q 359 215 336 219 Q 313 223 290 223 Z " id="path24"/>
<path d="M 314 223 L 314 154 L 324 154 Q 344 154 363.5 147 Q 383 140 396.5 125.5 Q 410 111 415.5 91 Q 421 71 421 51 L 421 0 L 374 0 L 374 -394 Q 374 -405 372.5 -415.5 Q 371 -426 366 -436 Q 361 -446 351.5 -452 Q 342 -458 331 -458 Q 321 -458 311.5 -452 Q 302 -446 297 -436 Q 292 -426 290.5 -415.5 Q 289 -405 289 -394 L 289 0 L 211 0 L 211 -394 Q 211 -405 209.5 -415.5 Q 208 -426 203 -436 Q 198 -446 188.5 -452 Q 179 -458 169 -458 Q 158 -458 148.5 -452 Q 139 -446 134 -436 Q 129 -426 127.5 -415.5 Q 126 -405 126 -394 L 126 0 L 48 0 L 48 -520 L 126 -520 L 126 -478 Q 131 -489 138 -498.5 Q 145 -508 154.5 -515 Q 164 -522 175.5 -525 Q 187 -528 199 -528 Q 214 -528 228 -523 Q 242 -518 252.5 -508 Q 263 -498 270 -485 Q 277 -472 281 -457 Q 285 -471 292 -484.5 Q 299 -498 309.5 -508 Q 320 -518 333.5 -523 Q 347 -528 362 -528 Q 377 -528 391.5 -522.5 Q 406 -517 417 -506.5 Q 428 -496 434.5 -482 Q 441 -468 445 -453.5 Q 449 -439 450.5 -424 Q 452 -409 452 -394 L 452 -70 L 498 -70 L 498 51 Q 498 74 494 97 Q 490 120 479 141 Q 468 162 451.5 178.5 Q 435 195 414 205 Q 393 215 370 219 Q 347 223 324 223 Z " id="path25"/>
<path d="M 299 223 L 299 154 L 308 154 Q 328 154 347.5 147 Q 367 140 380.5 125.5 Q 394 111 399.5 91 Q 405 71 405 51 L 405 0 L 358 0 L 358 -320 Q 358 -337 356 -353.5 Q 354 -370 349 -385.5 Q 344 -401 334.5 -415 Q 325 -429 312 -439 Q 299 -449 283 -453.5 Q 267 -458 250 -458 Q 233 -458 217 -453.5 Q 201 -449 188 -439 Q 175 -429 165.5 -415 Q 156 -401 151 -385.5 Q 146 -370 144 -353.5 Q 142 -337 142 -320 L 142 0 L 64 0 L 64 -520 L 142 -520 L 142 -429 Q 150 -450 163 -469 Q 176 -488 194.5 -502 Q 213 -516 235.5 -522 Q 258 -528 280 -528 Q 305 -528 329 -521 Q 353 -514 371.5 -498.5 Q 390 -483 403 -461.5 Q 416 -440 423.5 -416.5 Q 431 -393 433.5 -368.5 Q 436 -344 436 -320 L 436 -70 L 482 -70 L 482 51 Q 482 74 478 97 Q 474 120 463.5 141 Q 453 162 436 178.5 Q 419 195 398 205 Q 377 215 354 219 Q 331 223 308 223 Z " id="path26"/>
<path d="M 225 223 L 225 154 Q 244 153 262 144.5 Q 280 136 291.5 121.5 Q 303 107 308 88.5 Q 313 70 313 51 L 313 5 Q 305 7 297 7.5 Q 289 8 281 8 Q 258 8 235.5 2 Q 213 -4 194.5 -17.5 Q 176 -31 163 -50.5 Q 150 -70 142 -91 L 142 215 L 64 215 L 64 -520 L 142 -520 L 142 -429 Q 150 -450 163 -469.5 Q 176 -489 194.5 -502.5 Q 213 -516 235.5 -522 Q 258 -528 281 -528 Q 306 -528 330.5 -521 Q 355 -514 375 -499 Q 395 -484 408.5 -463 Q 422 -442 430 -418.5 Q 438 -395 441 -370 Q 444 -345 444 -320 L 444 -200 Q 444 -178 442 -155.5 Q 440 -133 433.5 -111.5 Q 427 -90 416 -70 Q 405 -50 389 -34 L 389 51 Q 389 73 385.5 95.5 Q 382 118 372 138 Q 362 158 346.5 174.5 Q 331 191 311.5 201.5 Q 292 212 270 217.5 Q 248 223 225 223 Z M 251 -62 Q 268 -62 284.5 -66 Q 301 -70 315 -79.5 Q 329 -89 339.5 -103 Q 350 -117 356 -133 Q 362 -149 364 -166 Q 366 -183 366 -200 L 366 -320 Q 366 -337 364 -354 Q 362 -371 356 -387 Q 350 -403 339.5 -417 Q 329 -431 315 -440.5 Q 301 -450 284.5 -454 Q 268 -458 251 -458 Q 234 -458 217.5 -454 Q 201 -450 188 -440 Q 175 -430 165.5 -415.5 Q 156 -401 151 -385.5 Q 146 -370 144 -353.5 Q 142 -337 142 -320 L 142 -200 Q 142 -183 144 -166.5 Q 146 -150 151 -134.5 Q 156 -119 165.5 -104.5 Q 175 -90 188 -80 Q 201 -70 217.5 -66 Q 234 -62 251 -62 Z " id="path27"/>
<path d="M 126 223 L 126 154 L 136 154 Q 156 154 175.5 147 Q 195 140 208.5 125.5 Q 222 111 227.5 91 Q 233 71 233 51 L 233 0 L 124 0 L 124 -520 L 202 -520 L 202 -412 Q 209 -434 219.5 -455 Q 230 -476 246 -493 Q 262 -510 284 -519 Q 306 -528 329 -528 Q 348 -528 366.5 -523.5 Q 385 -519 400 -508.5 Q 415 -498 425 -482 Q 435 -466 441 -448.5 Q 447 -431 449 -412.5 Q 451 -394 451 -375 L 373 -375 Q 373 -390 370.5 -404.5 Q 368 -419 360.5 -432 Q 353 -445 339.5 -451.5 Q 326 -458 311 -458 Q 291 -458 272.5 -449.5 Q 254 -441 241.5 -426 Q 229 -411 221 -392.5 Q 213 -374 209 -354.5 Q 205 -335 203.5 -315 Q 202 -295 202 -276 L 202 -70 L 310 -70 L 310 51 Q 310 74 306 97 Q 302 120 291.5 141 Q 281 162 264 178.5 Q 247 195 226 205 Q 205 215 182 219 Q 159 223 136 223 Z " id="path28"/>
<path d="M 206 223 L 206 154 L 216 154 Q 236 154 255.5 147 Q 275 140 288.5 125.5 Q 302 111 307.5 91 Q 313 71 313 51 L 313 2 Q 297 6 281 7 Q 265 8 249 8 Q 227 8 205 5.5 Q 183 3 162 -4.5 Q 141 -12 122 -24 Q 103 -36 89.5 -53.5 Q 76 -71 69 -92.5 Q 62 -114 62 -136 L 62 -139 L 140 -139 L 140 -138 Q 140 -119 150.5 -103 Q 161 -87 177 -77.5 Q 193 -68 211.5 -65 Q 230 -62 249 -62 Q 267 -62 285.5 -65 Q 304 -68 320 -76.5 Q 336 -85 347.5 -100.5 Q 359 -116 359 -134 Q 359 -152 349.5 -167.5 Q 340 -183 326 -193 Q 312 -203 295.5 -208.5 Q 279 -214 262 -218 Q 245 -222 228.5 -226 Q 212 -230 195.5 -236 Q 179 -242 163.5 -249.5 Q 148 -257 134 -267.5 Q 120 -278 108.5 -291 Q 97 -304 89 -319.5 Q 81 -335 76.5 -352 Q 72 -369 72 -386 Q 72 -408 78.5 -428.5 Q 85 -449 98 -466.5 Q 111 -484 129 -496 Q 147 -508 167 -515.5 Q 187 -523 208.5 -525.5 Q 230 -528 251 -528 Q 273 -528 294 -525.5 Q 315 -523 335.5 -515.5 Q 356 -508 373.5 -495.5 Q 391 -483 404 -466 Q 417 -449 423.5 -428 Q 430 -407 430 -386 L 430 -383 L 352 -383 L 352 -384 Q 352 -402 343 -417.5 Q 334 -433 319 -442.5 Q 304 -452 286.5 -455 Q 269 -458 251 -458 Q 234 -458 216.5 -455 Q 199 -452 184 -443 Q 169 -434 159 -419 Q 149 -404 149 -386 Q 149 -365 162 -347.5 Q 175 -330 193 -320 Q 211 -310 231.5 -305.5 Q 252 -301 272.5 -296 Q 293 -291 312.5 -284.5 Q 332 -278 350 -267.5 Q 368 -257 384 -243.5 Q 400 -230 411.5 -212.5 Q 423 -195 429.5 -175 Q 436 -155 436 -134 Q 436 -105 423.5 -78.5 Q 411 -52 389 -33 L 390 -33 L 390 51 Q 390 74 385.5 97 Q 381 120 370.5 141 Q 360 162 343 178.5 Q 326 195 305.5 205 Q 285 215 262 219 Q 239 223 216 223 Z " id="path29"/>
<path d="M 289 222 L 289 151 Q 305 148 319.5 138.5 Q 334 129 343 115 Q 352 101 355.5 84.5 Q 359 68 359 51 L 359 0 L 289 0 L 289 25 Q 289 50 285.5 74 Q 282 98 272 120.5 Q 262 143 246 162 Q 230 181 209 193 Q 188 205 163.5 210 Q 139 215 115 215 L 63 215 L 63 145 L 115 145 Q 137 145 157.5 136 Q 178 127 190 109 Q 202 91 206.5 69 Q 211 47 211 25 L 211 -545 Q 211 -570 214.5 -594 Q 218 -618 228 -640.5 Q 238 -663 254 -682 Q 270 -701 291 -713 Q 312 -725 336.5 -730 Q 361 -735 385 -735 L 438 -735 L 438 -665 L 385 -665 Q 363 -665 342.5 -656 Q 322 -647 310 -629 Q 298 -611 293.5 -589 Q 289 -567 289 -545 L 289 -70 L 436 -70 L 436 51 Q 436 72 433 93 Q 430 114 421.5 133 Q 413 152 399 168.5 Q 385 185 367.5 196 Q 350 207 330 214 Q 310 221 289 222 Z " id="path30"/>
<path d="M 214 223 L 214 154 L 223 154 Q 243 154 262.5 147 Q 282 140 295.5 125.5 Q 309 111 314.5 91 Q 320 71 320 51 L 320 0 L 205 0 L 44 -520 L 126 -520 L 226 -173 Q 232 -152 238 -131 Q 244 -110 250 -88 Q 256 -110 262 -131 Q 268 -152 274 -173 L 374 -520 L 456 -520 L 316 -70 L 397 -70 L 397 51 Q 397 74 393 97 Q 389 120 378.5 141 Q 368 162 351 178.5 Q 334 195 313 205 Q 292 215 269 219 Q 246 223 223 223 Z " id="path31"/>
<path d="M 299 223 L 299 154 L 308 154 Q 328 154 347.5 147 Q 367 140 380.5 125.5 Q 394 111 399.5 91 Q 405 71 405 51 L 405 0 L 356 0 L 250 -186 L 144 0 L 53 0 L 207 -260 L 53 -520 L 144 -520 L 250 -334 L 356 -520 L 447 -520 L 293 -260 L 405 -70 L 482 -70 L 482 51 Q 482 74 478 97 Q 474 120 463.5 141 Q 453 162 436 178.5 Q 419 195 398 205 Q 377 215 354 219 Q 331 223 308 223 Z " id="path32"/>
<path d="M 253 223 L 253 154 L 262 154 Q 282 154 301.5 147 Q 321 140 334.5 125.5 Q 348 111 353.5 91 Q 359 71 359 51 L 359 0 L 64 0 L 64 -70 L 343 -450 L 64 -450 L 64 -520 L 436 -520 L 436 -450 L 157 -70 L 436 -70 L 436 51 Q 436 74 432 97 Q 428 120 417.5 141 Q 407 162 390 178.5 Q 373 195 352 205 Q 331 215 308 219 Q 285 223 262 223 Z " id="path33"/>
<path d="M 579 223 Q 556 223 533 219 Q 510 215 489 205 Q 468 195 451.5 178.5 Q 435 162 424 141 Q 413 120 409 97 Q 405 74 405 51 L 405 0 L 358 0 L 358 -86 Q 349 -64 332.5 -45.5 Q 316 -27 295 -14.5 Q 274 -2 250 3 Q 226 8 202 8 Q 172 8 143 -1 Q 114 -10 93.5 -32 Q 73 -54 64.5 -83 Q 56 -112 56 -142 Q 56 -167 62.5 -192 Q 69 -217 85 -237 Q 101 -257 122.5 -270.5 Q 144 -284 168.5 -292 Q 193 -300 218 -303 Q 243 -306 269 -306 L 358 -306 L 358 -355 Q 358 -376 351 -397 Q 344 -418 328 -432 Q 312 -446 291 -452 Q 270 -458 249 -458 Q 229 -458 209.5 -454 Q 190 -450 174 -439 Q 158 -428 149 -410 Q 140 -392 140 -373 L 62 -373 Q 62 -396 68.5 -418 Q 75 -440 88 -459 Q 101 -478 119.5 -491.5 Q 138 -505 159 -513.5 Q 180 -522 203 -525 Q 226 -528 249 -528 Q 273 -528 297 -524.5 Q 321 -521 343 -511 Q 365 -501 383.5 -485 Q 402 -469 414 -448 Q 426 -427 431 -403 Q 436 -379 436 -355 L 436 -70 L 482 -70 L 482 51 Q 482 71 487.5 91 Q 493 111 506.5 125.5 Q 520 140 539.5 147 Q 559 154 579 154 L 589 154 L 589 223 Z M 232 -62 Q 256 -62 280.5 -68.5 Q 305 -75 323 -91.5 Q 341 -108 349.5 -131.5 Q 358 -155 358 -180 L 358 -236 L 269 -236 Q 254 -236 238.5 -234.5 Q 223 -233 208.5 -229.5 Q 194 -226 180 -219.5 Q 166 -213 155 -203 Q 144 -193 139 -178.5 Q 134 -164 134 -149 Q 134 -131 141 -113 Q 148 -95 162 -83 Q 176 -71 194.5 -66.5 Q 213 -62 232 -62 Z " id="path34"/>
<path d="M 579 223 Q 556 223 533 219 Q 510 215 489 205 Q 468 195 451.5 178.5 Q 435 162 424 141 Q 413 120 409 97 Q 405 74 405 51 L 405 0 L 358 0 L 358 -91 Q 350 -70 337 -50.5 Q 324 -31 305.5 -17.5 Q 287 -4 264.5 2 Q 242 8 219 8 Q 194 8 169.5 1 Q 145 -6 125 -21 Q 105 -36 91.5 -57 Q 78 -78 70 -101.5 Q 62 -125 59 -150 Q 56 -175 56 -200 L 56 -320 Q 56 -345 59 -370 Q 62 -395 70 -418.5 Q 78 -442 91.5 -463 Q 105 -484 125 -499 Q 145 -514 169.5 -521 Q 194 -528 219 -528 Q 242 -528 264.5 -522 Q 287 -516 305.5 -502.5 Q 324 -489 337 -469.5 Q 350 -450 358 -429 L 358 -485 L 436 -520 L 436 -70 L 482 -70 L 482 51 Q 482 71 487.5 91 Q 493 111 506.5 125.5 Q 520 140 539.5 147 Q 559 154 579 154 L 589 154 L 589 223 Z M 249 -62 Q 266 -62 282.5 -66 Q 299 -70 312 -80 Q 325 -90 334.5 -104.5 Q 344 -119 349 -134.5 Q 354 -150 356 -166.5 Q 358 -183 358 -200 L 358 -320 Q 358 -337 356 -353.5 Q 354 -370 349 -385.5 Q 344 -401 334.5 -415.5 Q 325 -430 312 -440 Q 299 -450 282.5 -454 Q 266 -458 249 -458 Q 232 -458 215.5 -454 Q 199 -450 185 -440.5 Q 171 -431 160.5 -417 Q 150 -403 144 -387 Q 138 -371 136 -354 Q 134 -337 134 -320 L 134 -200 Q 134 -183 136 -166 Q 138 -149 144 -133 Q 150 -117 160.5 -103 Q 171 -89 185 -79.5 Q 199 -70 215.5 -66 Q 232 -62 249 -62 Z " id="path35"/>
<path d="M 532 223 Q 509 223 486 219 Q 463 215 442 205 Q 421 195 404.5 178.5 Q 388 162 377.5 141 Q 367 120 362.5 97 Q 358 74 358 51 L 358 -91 Q 350 -70 337 -50.5 Q 324 -31 305.5 -17.5 Q 287 -4 264.5 2 Q 242 8 219 8 Q 194 8 169.5 1 Q 145 -6 125 -21 Q 105 -36 91.5 -57 Q 78 -78 70 -101.5 Q 62 -125 59 -150 Q 56 -175 56 -200 L 56 -320 Q 56 -345 59 -370 Q 62 -395 70 -418.5 Q 78 -442 91.5 -463 Q 105 -484 125 -499 Q 145 -514 169.5 -521 Q 194 -528 219 -528 Q 242 -528 264.5 -522 Q 287 -516 305.5 -502.5 Q 324 -489 337 -469.5 Q 350 -450 358 -429 L 358 -571 Q 358 -594 362.5 -617 Q 367 -640 377.5 -661 Q 388 -682 404.5 -698.5 Q 421 -715 442 -725 Q 463 -735 486 -739 Q 509 -743 532 -743 L 542 -743 L 542 -673 L 532 -673 Q 512 -673 493 -666.5 Q 474 -660 460.5 -645 Q 447 -630 441.5 -610.5 Q 436 -591 436 -571 L 436 51 Q 436 71 441.5 90.5 Q 447 110 460.5 125 Q 474 140 493 146.5 Q 512 153 532 153 L 542 153 L 542 223 Z M 249 -62 Q 266 -62 282.5 -66.5 Q 299 -71 312 -81 Q 325 -91 334.5 -105 Q 344 -119 349 -134.5 Q 354 -150 356 -166.5 Q 358 -183 358 -200 L 358 -320 Q 358 -337 356 -353.5 Q 354 -370 349 -385.5 Q 344 -401 334.5 -415.5 Q 325 -430 311.5 -440 Q 298 -450 282 -454 Q 266 -458 249 -458 Q 232 -458 215.5 -454 Q 199 -450 185 -440.5 Q 171 -431 160.5 -417 Q 150 -403 144 -387 Q 138 -371 136 -354 Q 134 -337 134 -320 L 134 -200 Q 134 -183 136 -166 Q 138 -149 144 -133 Q 150 -117 160.5 -103 Q 171 -89 185 -79.5 Q 199 -70 215.5 -66 Q 232 -62 249 -62 Z " id="path36"/>
<path d="M 539 223 Q 516 223 493 219 Q 470 215 449 205 Q 428 195 411 178.5 Q 394 162 383.5 141 Q 373 120 369 97 Q 365 74 365 51 L 365 -17 Q 340 -3 310.5 2.5 Q 281 8 252 8 Q 225 8 198 3 Q 171 -2 147.5 -15.5 Q 124 -29 105.5 -49.5 Q 87 -70 75.5 -94.5 Q 64 -119 60 -146 Q 56 -173 56 -200 L 56 -320 Q 56 -347 60 -374 Q 64 -401 75 -425.5 Q 86 -450 104.5 -470.5 Q 123 -491 146 -504 Q 169 -517 196 -522.5 Q 223 -528 250 -528 Q 277 -528 304 -522.5 Q 331 -517 354 -504 Q 377 -491 395.5 -470.5 Q 414 -450 425 -425.5 Q 436 -401 440 -374 Q 444 -347 444 -320 L 444 -225 L 134 -225 L 134 -200 Q 134 -183 136 -166 Q 138 -149 144.5 -133 Q 151 -117 161.5 -103 Q 172 -89 186.5 -79.5 Q 201 -70 218 -66 Q 235 -62 252 -62 Q 271 -62 290.5 -66 Q 310 -70 326 -80 Q 342 -90 352.5 -107 Q 363 -124 364 -144 L 442 -144 L 442 51 Q 442 71 447.5 91 Q 453 111 466.5 125.5 Q 480 140 499.5 147 Q 519 154 539 154 L 549 154 L 549 223 Z M 366 -295 L 366 -320 Q 366 -337 364 -354 Q 362 -371 356 -387 Q 350 -403 339.5 -417 Q 329 -431 315 -440.5 Q 301 -450 284 -454 Q 267 -458 250 -458 Q 233 -458 216 -454 Q 199 -450 185 -440.5 Q 171 -431 160.5 -417 Q 150 -403 144 -387 Q 138 -371 136 -354 Q 134 -337 134 -320 L 134 -295 Z " id="path37"/>
<path d="M 533 223 Q 510 223 487 219 Q 464 215 443 205 Q 422 195 405 178.5 Q 388 162 377.5 141 Q 367 120 363 97 Q 359 74 359 51 L 359 -56 Q 347 -40 331 -27.5 Q 315 -15 296.5 -7 Q 278 1 258.5 4.5 Q 239 8 219 8 Q 186 8 154 -1.5 Q 122 -11 97 -32 Q 72 -53 60 -84.5 Q 48 -116 48 -149 Q 48 -169 53.5 -189.5 Q 59 -210 72 -226 Q 85 -242 102.5 -253 Q 120 -264 139 -271 Q 131 -275 129 -276 Q 127 -277 123 -279.5 Q 119 -282 115.5 -284 Q 112 -286 108.5 -289 Q 105 -292 101.5 -294.5 Q 98 -297 94.5 -300.5 Q 91 -304 88.5 -307 Q 86 -310 83 -313.5 Q 80 -317 78 -321 Q 76 -325 74 -329 Q 72 -333 70.5 -337.5 Q 69 -342 68 -346 Q 67 -350 66 -354.5 Q 65 -359 64.5 -363.5 Q 64 -368 64 -372.5 Q 64 -377 64 -381 Q 64 -403 70 -425 Q 76 -447 89 -464.5 Q 102 -482 120.5 -495 Q 139 -508 160 -515.5 Q 181 -523 203 -525.5 Q 225 -528 247 -528 Q 269 -528 290.5 -525.5 Q 312 -523 333 -515.5 Q 354 -508 372 -495.5 Q 390 -483 403 -465.5 Q 416 -448 423 -427 Q 430 -406 430 -384 L 430 -382 L 352 -382 L 352 -383 Q 352 -401 342.5 -417 Q 333 -433 317 -442.5 Q 301 -452 283 -455 Q 265 -458 247 -458 Q 229 -458 210.5 -454.5 Q 192 -451 176 -441.5 Q 160 -432 151 -415.5 Q 142 -399 142 -380 Q 142 -368 146 -356 Q 150 -344 158.5 -335 Q 167 -326 178 -320 Q 189 -314 201 -311 Q 213 -308 225.5 -306.5 Q 238 -305 250 -305 L 306 -305 L 306 -235 L 250 -235 Q 236 -235 222 -234 Q 208 -233 194 -229 Q 180 -225 167.5 -218.5 Q 155 -212 145 -202 Q 135 -192 130.5 -178.5 Q 126 -165 126 -151 Q 126 -130 136.5 -111 Q 147 -92 165 -81 Q 183 -70 204 -66 Q 225 -62 246 -62 Q 258 -62 270.5 -63.5 Q 283 -65 295 -68.5 Q 307 -72 318 -78 Q 329 -84 338 -92.5 Q 347 -101 353 -112.5 Q 359 -124 359 -136 L 436 -136 L 436 51 Q 436 71 441.5 91 Q 447 111 460.5 125.5 Q 474 140 493.5 147 Q 513 154 533 154 L 543 154 L 543 223 Z " id="path38"/>
<path d="M 238 223 Q 215 223 192 219 Q 169 215 148 205 Q 127 195 110 178.5 Q 93 162 82.5 141 Q 72 120 68 97 Q 64 74 64 51 L 64 -136 L 141 -136 Q 141 -124 147 -112.5 Q 153 -101 162 -92.5 Q 171 -84 182 -78 Q 193 -72 205 -68.5 Q 217 -65 229.5 -63.5 Q 242 -62 254 -62 Q 275 -62 296 -66 Q 317 -70 335 -81 Q 353 -92 363.5 -111 Q 374 -130 374 -151 Q 374 -165 369.5 -178.5 Q 365 -192 355 -202 Q 345 -212 332.5 -218.5 Q 320 -225 306 -229 Q 292 -233 278 -234 Q 264 -235 250 -235 L 194 -235 L 194 -305 L 250 -305 Q 262 -305 274.5 -306.5 Q 287 -308 299 -311 Q 311 -314 322 -320 Q 333 -326 341.5 -335 Q 350 -344 354 -356 Q 358 -368 358 -380 Q 358 -399 349 -415.5 Q 340 -432 324 -441.5 Q 308 -451 289.5 -454.5 Q 271 -458 253 -458 Q 235 -458 217 -455 Q 199 -452 183 -442.5 Q 167 -433 157.5 -417 Q 148 -401 148 -383 L 148 -382 L 70 -382 L 70 -384 Q 70 -406 77 -427 Q 84 -448 97 -465.5 Q 110 -483 128 -495.5 Q 146 -508 167 -515.5 Q 188 -523 209.5 -525.5 Q 231 -528 253 -528 Q 275 -528 297 -525.5 Q 319 -523 340 -515.5 Q 361 -508 379.5 -495 Q 398 -482 411 -464.5 Q 424 -447 430 -425 Q 436 -403 436 -381 Q 436 -363 432 -345.5 Q 428 -328 417.5 -313.5 Q 407 -299 392 -289 Q 377 -279 361 -272 Q 380 -264 397.5 -253 Q 415 -242 428 -226 Q 441 -210 446.5 -189.5 Q 452 -169 452 -149 Q 452 -116 440 -84.5 Q 428 -53 403 -32 Q 378 -11 346 -1.5 Q 314 8 281 8 Q 261 8 241.5 4.5 Q 222 1 203.5 -7 Q 185 -15 169 -27.5 Q 153 -40 141 -56 L 141 51 Q 141 71 146.5 91 Q 152 111 165.5 125.5 Q 179 140 198.5 147 Q 218 154 238 154 L 247 154 L 247 223 Z " id="path39"/>
<path d="M 572 223 Q 549 223 526.5 219 Q 504 215 483.5 205 Q 463 195 446 178.5 Q 429 162 419 141.5 Q 409 121 405 98.5 Q 401 76 401 53 L 401 -225 L 369 -225 L 369 -200 Q 369 -175 366.5 -151 Q 364 -127 356.5 -103.5 Q 349 -80 336 -58.5 Q 323 -37 304 -21.5 Q 285 -6 261 1 Q 237 8 213 8 Q 188 8 164 1 Q 140 -6 121 -21.5 Q 102 -37 89 -58.5 Q 76 -80 68.5 -103.5 Q 61 -127 58.5 -151 Q 56 -175 56 -200 L 56 -295 L 291 -295 L 291 -320 Q 291 -335 290 -350 Q 289 -365 286 -379.5 Q 283 -394 277.5 -408 Q 272 -422 262.5 -433.5 Q 253 -445 239.5 -451.5 Q 226 -458 211 -458 Q 195 -458 180 -451.5 Q 165 -445 155.5 -432.5 Q 146 -420 141 -404 Q 136 -388 136 -373 L 58 -373 Q 59 -403 69.5 -432.5 Q 80 -462 100.5 -484.5 Q 121 -507 150.5 -517.5 Q 180 -528 211 -528 Q 235 -528 259.5 -521 Q 284 -514 303 -498.5 Q 322 -483 335 -462 Q 348 -441 356 -417.5 Q 364 -394 366.5 -369.5 Q 369 -345 369 -320 L 369 -295 L 468 -295 L 468 53 Q 468 75 474 96 Q 480 117 494.5 132.5 Q 509 148 530 155 Q 551 162 572 162 L 579 162 L 579 223 Z M 212 -62 Q 227 -62 240.5 -69 Q 254 -76 263 -87.5 Q 272 -99 277.5 -113 Q 283 -127 286 -141.5 Q 289 -156 290 -170.5 Q 291 -185 291 -200 L 291 -225 L 134 -225 L 134 -200 Q 134 -185 135 -170.5 Q 136 -156 139 -141.5 Q 142 -127 147.5 -113 Q 153 -99 162 -87.5 Q 171 -76 184.5 -69 Q 198 -62 212 -62 Z " id="path40"/>
<path d="M 560 223 Q 537 223 514 219 Q 491 215 470.5 205 Q 450 195 433 178.5 Q 416 162 405.5 141 Q 395 120 391 97 Q 387 74 387 51 L 387 0 L 75 0 L 75 -70 L 218 -70 L 218 -450 L 89 -450 L 89 -520 L 296 -520 L 296 -70 L 463 -70 L 463 51 Q 463 71 468.5 91 Q 474 111 487.5 125.5 Q 501 140 520.5 147 Q 540 154 560 154 L 570 154 L 570 223 Z M 257 -608 Q 244 -608 232 -611.5 Q 220 -615 211 -624 Q 202 -633 198.5 -645 Q 195 -657 195 -670 Q 195 -683 198.5 -695 Q 202 -707 211 -716 Q 220 -725 232 -729 Q 244 -733 257 -733 Q 270 -733 282 -729 Q 294 -725 303 -716 Q 312 -707 316 -695 Q 320 -683 320 -670 Q 320 -657 316 -645 Q 312 -633 303 -624 Q 294 -615 282 -611.5 Q 270 -608 257 -608 Z " id="path41"/>
<path d="M 238 223 Q 215 223 192 219 Q 169 215 148 205 Q 127 195 110 178.5 Q 93 162 82.5 141 Q 72 120 68 97 Q 64 74 64 51 L 64 -181 L 141 -181 Q 141 -158 149 -136 Q 157 -114 172.5 -97 Q 188 -80 209.5 -71 Q 231 -62 254 -62 Q 270 -62 286.5 -66.5 Q 303 -71 317 -81 Q 331 -91 340.5 -104.5 Q 350 -118 356 -134 Q 362 -150 364 -166.5 Q 366 -183 366 -200 L 366 -320 Q 366 -337 364 -354 Q 362 -371 356 -386.5 Q 350 -402 340.5 -416 Q 331 -430 317 -440 Q 303 -450 286.5 -454 Q 270 -458 253 -458 Q 230 -458 208 -450.5 Q 186 -443 170 -426.5 Q 154 -410 147 -388 Q 140 -366 140 -343 L 140 -342 L 62 -342 L 62 -344 Q 62 -369 67.5 -393.5 Q 73 -418 85 -440 Q 97 -462 115 -479.5 Q 133 -497 155.5 -508 Q 178 -519 203 -523.5 Q 228 -528 253 -528 Q 279 -528 306 -522.5 Q 333 -517 356 -503.5 Q 379 -490 396.5 -469.5 Q 414 -449 425 -424.5 Q 436 -400 440 -373.5 Q 444 -347 444 -320 L 444 -200 Q 444 -175 441 -150.5 Q 438 -126 430 -102.5 Q 422 -79 408 -58 Q 394 -37 374 -22 Q 354 -7 330 0.5 Q 306 8 281 8 Q 259 8 238 2.5 Q 217 -3 199 -14 Q 181 -25 166.5 -41 Q 152 -57 141 -75 L 141 51 Q 141 71 146.5 91 Q 152 111 165.5 125.5 Q 179 140 198.5 147 Q 218 154 238 154 L 247 154 L 247 223 Z " id="path42"/>
<path d="M 236 223 Q 213 223 190 219 Q 167 215 146.5 205 Q 126 195 109 178.5 Q 92 162 81.5 141 Q 71 120 67 97 Q 63 74 63 51 L 63 -70 L 115 -70 Q 137 -70 157.5 -79 Q 178 -88 190 -106 Q 202 -124 206.5 -146 Q 211 -168 211 -190 L 211 -545 Q 211 -570 214.5 -594 Q 218 -618 228 -640.5 Q 238 -663 254 -682 Q 270 -701 291 -713 Q 312 -725 336.5 -730 Q 361 -735 385 -735 L 438 -735 L 438 -665 L 385 -665 Q 363 -665 342.5 -656 Q 322 -647 310 -629 Q 298 -611 293.5 -589 Q 289 -567 289 -545 L 289 -190 Q 289 -167 286 -145 Q 283 -123 275 -102 Q 267 -81 254 -62.5 Q 241 -44 223 -30.5 Q 205 -17 183.5 -9.5 Q 162 -2 139 -1 L 139 51 Q 139 71 144.5 91 Q 150 111 163.5 125.5 Q 177 140 196.5 147 Q 216 154 236 154 L 246 154 L 246 223 Z " id="path43"/>
<path d="M 579 223 Q 556 223 533 219 Q 510 215 489 205 Q 468 195 451.5 178.5 Q 435 162 424 141 Q 413 120 409 97 Q 405 74 405 51 L 405 0 L 358 0 L 358 -91 Q 350 -70 337 -51 Q 324 -32 305.5 -18 Q 287 -4 264.5 2 Q 242 8 220 8 Q 195 8 171 1 Q 147 -6 128.5 -21.5 Q 110 -37 97 -58.5 Q 84 -80 76.5 -103.5 Q 69 -127 66.5 -151.5 Q 64 -176 64 -200 L 64 -520 L 142 -520 L 142 -200 Q 142 -183 144 -166.5 Q 146 -150 151 -134.5 Q 156 -119 165.5 -105 Q 175 -91 188 -81 Q 201 -71 217 -66.5 Q 233 -62 250 -62 Q 267 -62 283 -66.5 Q 299 -71 312 -81 Q 325 -91 334.5 -105 Q 344 -119 349 -134.5 Q 354 -150 356 -166.5 Q 358 -183 358 -200 L 358 -520 L 436 -520 L 436 -70 L 482 -70 L 482 51 Q 482 71 487.5 91 Q 493 111 506.5 125.5 Q 520 140 539.5 147 Q 559 154 579 154 L 589 154 L 589 223 Z " id="path44"/>
<path d="M 238 223 Q 215 223 192 219 Q 169 215 148 205 Q 127 195 110 178.5 Q 93 162 82.5 141 Q 72 120 68 97 Q 64 74 64 51 L 64 -165 L 141 -165 L 141 -133 Q 141 -121 147 -110 Q 153 -99 162 -91 Q 171 -83 182 -77.5 Q 193 -72 205 -68.5 Q 217 -65 229 -63.5 Q 241 -62 253 -62 Q 274 -62 294.5 -66.5 Q 315 -71 331.5 -83 Q 348 -95 357 -114.5 Q 366 -134 366 -155 Q 366 -168 362.5 -181.5 Q 359 -195 350 -205.5 Q 341 -216 329 -223.5 Q 317 -231 304 -235 Q 291 -239 277.5 -240.5 Q 264 -242 250 -242 L 138 -242 L 138 -312 L 315 -450 L 64 -450 L 64 -520 L 408 -520 L 408 -450 L 232 -312 L 250 -312 Q 274 -312 297.5 -309 Q 321 -306 343.5 -298 Q 366 -290 385.5 -276.5 Q 405 -263 419 -243.5 Q 433 -224 438.5 -200.5 Q 444 -177 444 -154 Q 444 -121 433.5 -89.5 Q 423 -58 399.5 -35 Q 376 -12 344.5 -2 Q 313 8 280 8 Q 260 8 240.5 4.5 Q 221 1 203 -7 Q 185 -15 169 -26.5 Q 153 -38 141 -54 L 141 51 Q 141 71 146.5 91 Q 152 111 165.5 125.5 Q 179 140 198.5 147 Q 218 154 238 154 L 247 154 L 247 223 Z " id="path45"/>
<path d="M 282 -317 Q 267 -317 251.5 -321 Q 236 -325 223 -333.5 Q 210 -342 201 -355 Q 192 -368 186 -382 L 186 -358 L 109 -323 L 109 -687 L 186 -687 L 186 -628 Q 192 -642 201 -655 Q 210 -668 223 -676.5 Q 236 -685 251.5 -689 Q 267 -693 282 -693 Q 300 -693 317 -688 Q 334 -683 348 -672.5 Q 362 -662 371.5 -647 Q 381 -632 387 -615.5 Q 393 -599 395 -582 Q 397 -565 397 -547 L 397 -463 Q 397 -445 395 -428 Q 393 -411 387 -394.5 Q 381 -378 371.5 -363 Q 362 -348 348 -337.5 Q 334 -327 317 -322 Q 300 -317 282 -317 Z M 251 -387 Q 265 -387 279 -392 Q 293 -397 303 -408 Q 313 -419 316.5 -433.5 Q 320 -448 320 -463 L 320 -547 Q 320 -562 316.5 -576.5 Q 313 -591 303 -602 Q 293 -613 279 -618 Q 265 -623 251 -623 Q 236 -623 222.5 -617.5 Q 209 -612 200.5 -601 Q 192 -590 189 -575.5 Q 186 -561 186 -547 L 186 -463 Q 186 -449 189 -434.5 Q 192 -420 200.5 -409 Q 209 -398 222.5 -392.5 Q 236 -387 251 -387 Z " id="path46"/>
<path d="M 248 -317 Q 229 -317 209.5 -320.5 Q 190 -324 172.5 -333 Q 155 -342 141 -356 Q 127 -370 118.5 -387.5 Q 110 -405 106.5 -424 Q 103 -443 103 -463 L 103 -547 Q 103 -567 106.5 -586 Q 110 -605 118.5 -622.5 Q 127 -640 141 -654 Q 155 -668 172.5 -677 Q 190 -686 209.5 -689.5 Q 229 -693 248 -693 Q 276 -693 303 -685.5 Q 330 -678 351 -659.5 Q 372 -641 382.5 -615 Q 393 -589 393 -561 L 393 -560 L 316 -560 Q 316 -574 311 -586.5 Q 306 -599 296.5 -607.5 Q 287 -616 274 -619.5 Q 261 -623 248 -623 Q 234 -623 220 -618 Q 206 -613 196.5 -601.5 Q 187 -590 183.5 -576 Q 180 -562 180 -547 L 180 -463 Q 180 -448 183.5 -434 Q 187 -420 196.5 -408.5 Q 206 -397 220 -392 Q 234 -387 248 -387 Q 261 -387 274 -390.5 Q 287 -394 296.5 -402.5 Q 306 -411 311 -423.5 Q 316 -436 316 -450 L 393 -450 L 393 -449 Q 393 -421 382.5 -395 Q 372 -369 351 -350.5 Q 330 -332 303 -324.5 Q 276 -317 248 -317 Z " id="path47"/>
<path d="M 129 -305 L 58 -322 Q 66 -350 78 -375.5 Q 90 -401 106 -425 Q 104 -434 103.5 -443.5 Q 103 -453 103 -463 L 103 -547 Q 103 -566 106.5 -585 Q 110 -604 119 -621 Q 128 -638 142 -651 Q 156 -664 173.5 -672.5 Q 191 -681 210 -684 Q 229 -687 248 -687 Q 275 -687 302 -680 Q 329 -673 350 -655.5 Q 371 -638 382 -612.5 Q 393 -587 393 -559 L 393 -558 L 316 -558 L 316 -559 Q 316 -571 310.5 -583 Q 305 -595 295.5 -603 Q 286 -611 273.5 -614.5 Q 261 -618 248 -618 Q 234 -618 220.5 -613.5 Q 207 -609 197.5 -598.5 Q 188 -588 184 -574.5 Q 180 -561 180 -547 L 180 -500 Q 200 -513 223.5 -519.5 Q 247 -526 271 -526 Q 294 -526 315.5 -520 Q 337 -514 354.5 -500 Q 372 -486 381.5 -465 Q 391 -444 391 -422 Q 391 -398 381 -376 Q 371 -354 352.5 -340.5 Q 334 -327 310.5 -322 Q 287 -317 264 -317 Q 233 -317 202 -325 Q 171 -333 148 -353 Q 142 -342 137.5 -329.5 Q 133 -317 129 -305 Z M 264 -384 Q 273 -384 282 -385.5 Q 291 -387 299.5 -391.5 Q 308 -396 313 -404 Q 318 -412 318 -422 Q 318 -430 313.5 -437.5 Q 309 -445 302 -450 Q 295 -455 286.5 -457 Q 278 -459 270 -459 Q 247 -459 226.5 -447 Q 206 -435 191 -418 Q 197 -409 205 -402 Q 213 -395 222.5 -391 Q 232 -387 242.5 -385.5 Q 253 -384 264 -384 Z " id="path48"/>
<path d="M 250 -317 Q 219 -317 189 -328 Q 159 -339 139 -362 Q 119 -385 111 -415.5 Q 103 -446 103 -477 Q 103 -508 111 -538.5 Q 119 -569 138.5 -592 Q 158 -615 187.5 -626 Q 217 -637 248 -637 Q 265 -637 281 -634 Q 297 -631 312 -623 Q 306 -640 298 -656.5 Q 290 -673 279 -688 L 144 -654 L 130 -705 L 238 -732 Q 222 -746 203 -755.5 Q 184 -765 164 -771 L 185 -838 Q 224 -827 258 -805 Q 292 -783 318 -753 L 370 -766 L 384 -714 L 351 -705 Q 364 -682 373.5 -656.5 Q 383 -631 388.5 -604.5 Q 394 -578 395.5 -551 Q 397 -524 397 -497 L 397 -477 Q 397 -457 394 -436.5 Q 391 -416 382.5 -397 Q 374 -378 360.5 -362 Q 347 -346 329 -336 Q 311 -326 291 -321.5 Q 271 -317 250 -317 Z M 250 -387 Q 266 -387 281 -394.5 Q 296 -402 305.5 -415.5 Q 315 -429 317.5 -445 Q 320 -461 320 -477 Q 320 -494 317 -510 Q 314 -526 305 -539.5 Q 296 -553 281 -560.5 Q 266 -568 250 -568 Q 233 -568 218.5 -560.5 Q 204 -553 195 -539.5 Q 186 -526 183 -510 Q 180 -494 180 -477 Q 180 -461 183 -445 Q 186 -429 195 -415.5 Q 204 -402 219 -394.5 Q 234 -387 250 -387 Z " id="path49"/>
<path d="M 252 -317 Q 225 -317 198.5 -322.5 Q 172 -328 150 -343 Q 128 -358 115 -382.5 Q 102 -407 102 -433 L 179 -433 Q 179 -421 186.5 -411 Q 194 -401 204.5 -395.5 Q 215 -390 227.5 -388.5 Q 240 -387 252 -387 Q 264 -387 276 -388.5 Q 288 -390 299 -395 Q 310 -400 318 -410.5 Q 326 -421 326 -433 Q 326 -445 318 -455 Q 310 -465 298.5 -470 Q 287 -475 274.5 -476.5 Q 262 -478 250 -478 L 208 -478 L 208 -547 L 250 -547 Q 260 -547 270.5 -548 Q 281 -549 291 -553 Q 301 -557 307.5 -565.5 Q 314 -574 314 -585 Q 314 -595 307.5 -603.5 Q 301 -612 292 -616 Q 283 -620 272.5 -621.5 Q 262 -623 252 -623 Q 241 -623 230.5 -621.5 Q 220 -620 211 -615 Q 202 -610 196 -601 Q 190 -592 190 -581 L 113 -581 L 113 -582 Q 113 -607 124.5 -630 Q 136 -653 156.5 -667.5 Q 177 -682 202 -687.5 Q 227 -693 252 -693 Q 277 -693 301.5 -688 Q 326 -683 347 -669.5 Q 368 -656 379.5 -633 Q 391 -610 391 -585 Q 391 -574 388.5 -563 Q 386 -552 380 -542.5 Q 374 -533 365 -525.5 Q 356 -518 346 -513 Q 358 -508 369 -500.5 Q 380 -493 388 -482 Q 396 -471 399.5 -458 Q 403 -445 403 -432 Q 403 -405 390 -380.5 Q 377 -356 354.5 -342 Q 332 -328 305 -322.5 Q 278 -317 252 -317 Z " id="path50"/>
<path d="M 188 -323 L 188 -589 L 109 -589 L 109 -659 L 188 -659 L 188 -728 Q 188 -751 194 -773 Q 200 -795 215 -811.5 Q 230 -828 252 -835.5 Q 274 -843 296 -843 Q 317 -843 337.5 -837.5 Q 358 -832 373.5 -817.5 Q 389 -803 396 -783 Q 403 -763 403 -742 L 403 -736 L 326 -736 L 326 -738 Q 326 -745 324.5 -751.5 Q 323 -758 319 -763 Q 315 -768 309 -771 Q 303 -774 296 -774 Q 288 -774 281.5 -769.5 Q 275 -765 271.5 -758.5 Q 268 -752 266.5 -744 Q 265 -736 265 -728 L 265 -659 L 377 -659 L 377 -589 L 265 -589 L 265 -323 Z " id="path51"/>
<path d="M 204 -167 Q 180 -167 155.5 -174.5 Q 131 -182 113.5 -199.5 Q 96 -217 87 -241 Q 78 -265 78 -290 L 155 -290 Q 155 -279 158 -269 Q 161 -259 167.5 -251.5 Q 174 -244 184 -240 Q 194 -236 204 -236 Q 217 -236 228 -242.5 Q 239 -249 245 -260 Q 251 -271 253.5 -283.5 Q 256 -296 256 -309 L 256 -478 L 196 -478 L 196 -532 L 256 -532 L 256 -618 L 172 -618 L 172 -687 L 333 -687 L 333 -532 L 380 -532 L 380 -478 L 333 -478 L 333 -309 Q 333 -291 330 -273 Q 327 -255 320 -238 Q 313 -221 301.5 -207 Q 290 -193 274 -183.5 Q 258 -174 240 -170.5 Q 222 -167 204 -167 Z " id="path52"/>
<path d="M 248 -167 Q 222 -167 197 -173 Q 172 -179 151.5 -195 Q 131 -211 119.5 -234.5 Q 108 -258 107 -284 L 184 -284 Q 185 -272 190.5 -262.5 Q 196 -253 205.5 -247 Q 215 -241 226 -238.5 Q 237 -236 248 -236 Q 262 -236 276 -241.5 Q 290 -247 299 -258.5 Q 308 -270 311 -284 Q 314 -298 314 -313 L 314 -382 Q 308 -368 299 -355 Q 290 -342 277 -333.5 Q 264 -325 248.5 -321 Q 233 -317 218 -317 Q 200 -317 183 -322 Q 166 -327 152 -337.5 Q 138 -348 128.5 -363 Q 119 -378 113 -394.5 Q 107 -411 105 -428 Q 103 -445 103 -463 L 103 -547 Q 103 -565 105 -582 Q 107 -599 113 -615.5 Q 119 -632 128.5 -647 Q 138 -662 152 -672.5 Q 166 -683 183 -688 Q 200 -693 218 -693 Q 233 -693 248.5 -689 Q 264 -685 277 -676.5 Q 290 -668 299 -655 Q 308 -642 314 -628 L 314 -652 L 391 -687 L 391 -313 Q 391 -293 388 -274 Q 385 -255 376.5 -237.5 Q 368 -220 354 -206 Q 340 -192 323 -183 Q 306 -174 286.5 -170.5 Q 267 -167 248 -167 Z M 249 -387 Q 264 -387 277.5 -392.5 Q 291 -398 299.5 -409 Q 308 -420 311 -434.5 Q 314 -449 314 -463 L 314 -547 Q 314 -561 311 -575.5 Q 308 -590 299.5 -601 Q 291 -612 277.5 -617.5 Q 264 -623 249 -623 Q 235 -623 221 -618 Q 207 -613 197 -602 Q 187 -591 183.5 -576.5 Q 180 -562 180 -547 L 180 -463 Q 180 -448 183.5 -433.5 Q 187 -419 197 -408 Q 207 -397 221 -392 Q 235 -387 249 -387 Z " id="path53"/>
<path d="M 314 -173 L 314 -382 Q 308 -368 299 -355.5 Q 290 -343 277 -334 Q 264 -325 249 -321 Q 234 -317 218 -317 Q 201 -317 184.5 -322 Q 168 -327 154.5 -338 Q 141 -349 132 -364 Q 123 -379 117.5 -395.5 Q 112 -412 110.5 -429 Q 109 -446 109 -463 L 109 -687 L 186 -687 L 186 -463 Q 186 -449 189 -435 Q 192 -421 200.5 -409.5 Q 209 -398 222.5 -392.5 Q 236 -387 250 -387 Q 264 -387 277.5 -392.5 Q 291 -398 299.5 -409.5 Q 308 -421 311 -435 Q 314 -449 314 -463 L 314 -687 L 391 -687 L 391 -173 Z " id="path54"/>
<path d="M 255 -730 Q 242 -730 230 -734 Q 218 -738 209 -746.5 Q 200 -755 196.5 -767.5 Q 193 -780 193 -792 Q 193 -804 196.5 -816.5 Q 200 -829 209 -837.5 Q 218 -846 230 -850 Q 242 -854 255 -854 Q 267 -854 279.5 -850 Q 292 -846 300.5 -837.5 Q 309 -829 313 -816.5 Q 317 -804 317 -792 Q 317 -780 313 -767.5 Q 309 -755 300.5 -746.5 Q 292 -738 279.5 -734 Q 267 -730 255 -730 Z M 128 -323 L 128 -392 L 216 -392 L 216 -486 L 163 -486 L 163 -539 L 216 -539 L 216 -618 L 137 -618 L 137 -687 L 293 -687 L 293 -539 L 347 -539 L 347 -486 L 293 -486 L 293 -392 L 373 -392 L 373 -323 Z " id="path55"/>
<path d="M 342 -317 Q 316 -317 291 -324 Q 266 -331 247.5 -347.5 Q 229 -364 220.5 -388.5 Q 212 -413 212 -439 L 212 -618 L 128 -618 L 128 -687 L 288 -687 L 288 -439 Q 288 -428 291.5 -417.5 Q 295 -407 302.5 -400 Q 310 -393 320.5 -390 Q 331 -387 342 -387 Q 356 -387 369.5 -389.5 Q 383 -392 396 -398 L 396 -329 Q 383 -323 369.5 -320 Q 356 -317 342 -317 Z " id="path56"/>
<path d="M 161 -323 L 161 -392 L 212 -392 L 212 -618 L 161 -618 L 161 -687 L 339 -687 L 339 -618 L 288 -618 L 288 -392 L 339 -392 L 339 -323 Z " id="path57"/>
<path d="M 161 -323 L 161 -392 L 212 -392 L 212 -486 L 158 -486 L 158 -539 L 212 -539 L 212 -618 L 161 -618 L 161 -687 L 339 -687 L 339 -618 L 288 -618 L 288 -539 L 342 -539 L 342 -486 L 288 -486 L 288 -392 L 339 -392 L 339 -323 Z " id="path58"/>
<path d="M 294 -730 Q 282 -730 269.5 -734 Q 257 -738 248.5 -746.5 Q 240 -755 236 -767.5 Q 232 -780 232 -792 Q 232 -804 236 -816.5 Q 240 -829 248.5 -837.5 Q 257 -846 269.5 -850 Q 282 -854 294 -854 Q 307 -854 319 -850 Q 331 -846 340 -837.5 Q 349 -829 352.5 -816.5 Q 356 -804 356 -792 Q 356 -780 352.5 -767.5 Q 349 -755 340 -746.5 Q 331 -738 319 -734 Q 307 -730 294 -730 Z M 357 -167 Q 352 -185 344 -201.5 Q 336 -218 325 -233 Q 320 -218 310 -205.5 Q 300 -193 287 -184 Q 274 -175 258.5 -171 Q 243 -167 227 -167 Q 208 -167 189.5 -173 Q 171 -179 157.5 -192.5 Q 144 -206 138.5 -224.5 Q 133 -243 133 -262 Q 133 -281 138.5 -299.5 Q 144 -318 157 -332 Q 170 -346 188.5 -352 Q 207 -358 226 -358 Q 233 -358 240.5 -357 Q 248 -356 256 -354 L 256 -618 L 172 -618 L 172 -687 L 333 -687 L 333 -314 Q 362 -288 384 -255 Q 406 -222 418 -184 Z M 227 -224 Q 234 -224 240.5 -227.5 Q 247 -231 250.5 -237 Q 254 -243 255 -249.5 Q 256 -256 256 -263 L 256 -295 Q 249 -297 242.5 -299 Q 236 -301 230 -301 Q 222 -301 215 -298 Q 208 -295 203.5 -289.5 Q 199 -284 197.5 -277 Q 196 -270 196 -262 Q 196 -255 197.5 -248 Q 199 -241 203 -235.5 Q 207 -230 213.5 -227 Q 220 -224 227 -224 Z " id="path59"/>
<path d="M 339 -167 Q 322 -167 305 -170 Q 288 -173 273 -180.5 Q 258 -188 245.5 -200 Q 233 -212 225.5 -227 Q 218 -242 215 -259 Q 212 -276 212 -293 L 212 -768 L 128 -768 L 128 -838 L 288 -838 L 288 -293 Q 288 -282 291 -271 Q 294 -260 301 -252 Q 308 -244 318 -240 Q 328 -236 339 -236 L 352 -236 L 352 -167 Z " id="path60"/>
<path d="M 269 -167 L 269 -228 L 279 -228 Q 291 -228 303 -232 Q 315 -236 323 -245 Q 331 -254 334 -266 Q 337 -278 337 -290 L 337 -323 L 128 -323 L 128 -392 L 216 -392 L 216 -768 L 137 -768 L 137 -838 L 293 -838 L 293 -392 L 404 -392 L 404 -290 Q 404 -274 401 -257.5 Q 398 -241 390.5 -226 Q 383 -211 371 -199 Q 359 -187 344 -180 Q 329 -173 312.5 -170 Q 296 -167 279 -167 Z " id="path61"/>
<path d="M 125 -323 L 125 -687 L 202 -687 L 202 -392 L 396 -392 L 396 -323 Z " id="path62"/>
<path d="M 262 -167 L 262 -233 L 273 -233 Q 284 -233 295 -237 Q 306 -241 313 -249.5 Q 320 -258 323 -269.5 Q 326 -281 326 -292 L 326 -591 Q 326 -597 325.5 -602.5 Q 325 -608 323 -613 Q 321 -618 316.5 -622 Q 312 -626 307 -626 Q 301 -626 296.5 -622 Q 292 -618 290 -613 Q 288 -608 287.5 -602.5 Q 287 -597 287 -591 L 287 -323 L 213 -323 L 213 -591 Q 213 -597 212.5 -602.5 Q 212 -608 210 -613 Q 208 -618 203.5 -622 Q 199 -626 193 -626 Q 188 -626 183.5 -622 Q 179 -618 177 -613 Q 175 -608 174.5 -602.5 Q 174 -597 174 -591 L 174 -323 L 100 -323 L 100 -687 L 174 -687 L 174 -658 Q 177 -665 182 -671.5 Q 187 -678 193.5 -683 Q 200 -688 208 -690.5 Q 216 -693 224 -693 Q 234 -693 244 -689 Q 254 -685 261 -677.5 Q 268 -670 273 -661 Q 278 -652 281 -642 Q 284 -652 288.5 -661 Q 293 -670 300 -677.5 Q 307 -685 316.5 -689 Q 326 -693 337 -693 Q 348 -693 358.5 -688.5 Q 369 -684 376.5 -675.5 Q 384 -667 388.5 -656.5 Q 393 -646 395.5 -635 Q 398 -624 399 -613 Q 400 -602 400 -591 L 400 -292 Q 400 -275 397 -258 Q 394 -241 386 -226 Q 378 -211 366 -199 Q 354 -187 339 -180 Q 324 -173 307 -170 Q 290 -167 273 -167 Z " id="path63"/>
<path d="M 326 -173 L 326 -352 Q 323 -345 318 -338.5 Q 313 -332 306.5 -327 Q 300 -322 292 -319.5 Q 284 -317 276 -317 Q 266 -317 256 -321 Q 246 -325 239 -332.5 Q 232 -340 227 -349 Q 222 -358 219 -368 Q 216 -358 211.5 -349 Q 207 -340 200 -332.5 Q 193 -325 183.5 -321 Q 174 -317 163 -317 Q 152 -317 141.5 -321.5 Q 131 -326 123.5 -334.5 Q 116 -343 111.5 -353.5 Q 107 -364 104.5 -375 Q 102 -386 101 -397 Q 100 -408 100 -419 L 100 -687 L 174 -687 L 174 -419 Q 174 -413 174.5 -407.5 Q 175 -402 177 -397 Q 179 -392 183.5 -388 Q 188 -384 193 -384 Q 199 -384 203.5 -388 Q 208 -392 210 -397 Q 212 -402 212.5 -407.5 Q 213 -413 213 -419 L 213 -687 L 287 -687 L 287 -419 Q 287 -413 287.5 -407.5 Q 288 -402 290 -397 Q 292 -392 296.5 -388 Q 301 -384 307 -384 Q 312 -384 316.5 -388 Q 321 -392 323 -397 Q 325 -402 325.5 -407.5 Q 326 -413 326 -419 L 326 -687 L 400 -687 L 400 -173 Z " id="path64"/>
<path d="M 46 -167 L 46 -236 L 58 -236 Q 69 -236 79 -240 Q 89 -244 96 -252 Q 103 -260 106 -271 Q 109 -282 109 -293 L 109 -687 L 186 -687 L 186 -628 Q 192 -642 201 -654.5 Q 210 -667 223 -676 Q 236 -685 251 -689 Q 266 -693 282 -693 Q 299 -693 315.5 -688 Q 332 -683 345.5 -672 Q 359 -661 368 -646 Q 377 -631 382.5 -614.5 Q 388 -598 389.5 -581 Q 391 -564 391 -547 L 391 -323 L 314 -323 L 314 -547 Q 314 -561 311 -575 Q 308 -589 299.5 -600.5 Q 291 -612 277.5 -617.5 Q 264 -623 250 -623 Q 236 -623 222.5 -617.5 Q 209 -612 200.5 -600.5 Q 192 -589 189 -575 Q 186 -561 186 -547 L 186 -293 Q 186 -276 182.5 -259 Q 179 -242 171.5 -227 Q 164 -212 151.5 -200 Q 139 -188 124 -180.5 Q 109 -173 92 -170 Q 75 -167 58 -167 Z " id="path65"/>
<path d="M 442 -167 Q 425 -167 408 -170 Q 391 -173 376 -180.5 Q 361 -188 348.5 -200 Q 336 -212 328.5 -227 Q 321 -242 317.5 -259 Q 314 -276 314 -293 L 314 -547 Q 314 -561 311 -575 Q 308 -589 299.5 -600.5 Q 291 -612 277.5 -617.5 Q 264 -623 250 -623 Q 236 -623 222.5 -617.5 Q 209 -612 200.5 -600.5 Q 192 -589 189 -575 Q 186 -561 186 -547 L 186 -323 L 109 -323 L 109 -687 L 186 -687 L 186 -628 Q 192 -642 201 -654.5 Q 210 -667 223 -676 Q 236 -685 251 -689 Q 266 -693 282 -693 Q 299 -693 315.5 -688 Q 332 -683 345.5 -672 Q 359 -661 368 -646 Q 377 -631 382.5 -614.5 Q 388 -598 389.5 -581 Q 391 -564 391 -547 L 391 -293 Q 391 -282 394 -271 Q 397 -260 404 -252 Q 411 -244 421 -240 Q 431 -236 442 -236 L 454 -236 L 454 -167 Z " id="path66"/>
<path d="M 109 -323 L 109 -687 L 189 -687 L 302 -462 L 330 -407 Q 327 -424 323.5 -440.5 Q 320 -457 318 -474 Q 316 -491 315 -507.5 Q 314 -524 314 -541 L 314 -687 L 391 -687 L 391 -323 L 311 -323 L 170 -603 Q 173 -586 176.5 -569.5 Q 180 -553 182 -536 Q 184 -519 185 -502.5 Q 186 -486 186 -469 L 186 -323 Z " id="path67"/>
<path d="M 250 -317 Q 230 -317 210.5 -320.5 Q 191 -324 173.5 -333 Q 156 -342 142 -355.5 Q 128 -369 119 -386.5 Q 110 -404 106.5 -423.5 Q 103 -443 103 -463 L 103 -547 Q 103 -567 106.5 -586.5 Q 110 -606 119 -623.5 Q 128 -641 142 -654.5 Q 156 -668 173.5 -677 Q 191 -686 210.5 -689.5 Q 230 -693 250 -693 Q 270 -693 289.5 -689.5 Q 309 -686 326.5 -677 Q 344 -668 358 -654.5 Q 372 -641 381 -623.5 Q 390 -606 393.5 -586.5 Q 397 -567 397 -547 L 397 -463 Q 397 -443 393.5 -423.5 Q 390 -404 381 -386.5 Q 372 -369 358 -355.5 Q 344 -342 326.5 -333 Q 309 -324 289.5 -320.5 Q 270 -317 250 -317 Z M 180 -532 L 320 -532 L 320 -547 Q 320 -562 316 -576.5 Q 312 -591 302.5 -602 Q 293 -613 279 -618 Q 265 -623 250 -623 Q 235 -623 221 -618 Q 207 -613 197.5 -602 Q 188 -591 184 -576.5 Q 180 -562 180 -547 Z M 250 -387 Q 265 -387 279 -392 Q 293 -397 302.5 -408 Q 312 -419 316 -433.5 Q 320 -448 320 -463 L 320 -478 L 180 -478 L 180 -463 Q 180 -448 184 -433.5 Q 188 -419 197.5 -408 Q 207 -397 221 -392 Q 235 -387 250 -387 Z " id="path68"/>
<path d="M 212 -173 L 212 -320 Q 187 -324 164 -335.5 Q 141 -347 124.5 -366 Q 108 -385 101.5 -409.5 Q 95 -434 95 -460 L 95 -551 Q 95 -576 101.5 -600.5 Q 108 -625 124.5 -644 Q 141 -663 164 -674.5 Q 187 -686 212 -690 L 212 -838 L 288 -838 L 288 -690 Q 313 -686 336 -674.5 Q 359 -663 375.5 -644 Q 392 -625 398.5 -600.5 Q 405 -576 405 -551 L 405 -460 Q 405 -434 398.5 -409.5 Q 392 -385 375.5 -366 Q 359 -347 336 -335.5 Q 313 -324 288 -320 L 288 -173 Z M 213 -390 L 213 -620 Q 203 -617 194 -610 Q 185 -603 179 -593.5 Q 173 -584 170.5 -573 Q 168 -562 168 -551 L 168 -460 Q 168 -448 170.5 -437 Q 173 -426 179 -416.5 Q 185 -407 194 -400 Q 203 -393 213 -390 Z M 287 -390 Q 297 -393 306 -400 Q 315 -407 321 -416.5 Q 327 -426 329.5 -437 Q 332 -448 332 -460 L 332 -551 Q 332 -562 329.5 -573 Q 327 -584 321 -593.5 Q 315 -603 306 -610 Q 297 -617 287 -620 Z " id="path69"/>
<path d="M 234 -167 Q 217 -167 200.5 -170 Q 184 -173 169 -180 Q 154 -187 142 -199 Q 130 -211 122.5 -226 Q 115 -241 112 -257.5 Q 109 -274 109 -290 L 109 -450 L 176 -450 L 176 -418 Q 176 -411 182 -406 Q 188 -401 194.5 -397.5 Q 201 -394 208 -392 Q 215 -390 222 -389 Q 229 -388 236.5 -387.5 Q 244 -387 251 -387 Q 261 -387 271 -388 Q 281 -389 290.5 -392.5 Q 300 -396 307.5 -403.5 Q 315 -411 315 -421 Q 315 -432 308 -440.5 Q 301 -449 292 -454.5 Q 283 -460 272.5 -462 Q 262 -464 252 -466 L 251 -466 Q 226 -470 202 -478.5 Q 178 -487 158.5 -502.5 Q 139 -518 126.5 -541 Q 114 -564 114 -589 Q 114 -614 126 -635.5 Q 138 -657 158.5 -670 Q 179 -683 203 -688 Q 227 -693 251 -693 Q 275 -693 299.5 -687.5 Q 324 -682 344 -667.5 Q 364 -653 375.5 -630.5 Q 387 -608 387 -583 L 387 -582 L 310 -582 Q 310 -592 304.5 -601 Q 299 -610 290 -615 Q 281 -620 271 -621.5 Q 261 -623 251 -623 Q 241 -623 231.5 -622 Q 222 -621 213 -617.5 Q 204 -614 197.5 -606.5 Q 191 -599 191 -589 Q 191 -578 198 -569.5 Q 205 -561 214 -556 Q 223 -551 233.5 -548.5 Q 244 -546 255 -544 Q 280 -540 304.5 -531.5 Q 329 -523 348.5 -507 Q 368 -491 380 -468 Q 392 -445 392 -419 Q 392 -398 383.5 -378 Q 375 -358 359 -343.5 Q 343 -329 322 -323 Q 301 -317 280 -317 Q 265 -317 251 -319.5 Q 237 -322 223.5 -327.5 Q 210 -333 197.5 -341 Q 185 -349 176 -360 L 176 -290 Q 176 -278 179 -266 Q 182 -254 190 -245 Q 198 -236 210 -232 Q 222 -228 234 -228 L 244 -228 L 244 -167 Z " id="path70"/>
<path d="M 114 -173 L 114 -242 L 161 -242 Q 174 -242 185 -248.5 Q 196 -255 202 -266.5 Q 208 -278 210 -290.5 Q 212 -303 212 -315 L 212 -695 Q 212 -713 214.5 -731 Q 217 -749 223.5 -766 Q 230 -783 242 -797 Q 254 -811 269.5 -820.5 Q 285 -830 303 -834 Q 321 -838 339 -838 L 386 -838 L 386 -768 L 339 -768 Q 326 -768 315 -761.5 Q 304 -755 298 -743.5 Q 292 -732 290 -719.5 Q 288 -707 288 -695 L 288 -315 Q 288 -297 285.5 -279 Q 283 -261 276.5 -244 Q 270 -227 258 -213 Q 246 -199 230.5 -189.5 Q 215 -180 197 -176.5 Q 179 -173 161 -173 Z " id="path71"/>
<path d="M 278 -167 L 278 -228 L 288 -228 Q 300 -228 311.5 -232 Q 323 -236 331 -245 Q 339 -254 342 -266 Q 345 -278 345 -290 L 345 -326 Q 334 -321 321.5 -319 Q 309 -317 297 -317 Q 279 -317 261.5 -321.5 Q 244 -326 230 -336 Q 216 -346 206 -361 Q 196 -376 190 -392.5 Q 184 -409 182 -426.5 Q 180 -444 180 -462 L 180 -618 L 124 -618 L 124 -687 L 180 -687 L 180 -838 L 257 -838 L 257 -687 L 369 -687 L 369 -618 L 257 -618 L 257 -462 Q 257 -450 258 -438 Q 259 -426 263 -415 Q 267 -404 276 -395.5 Q 285 -387 297 -387 Q 307 -387 315.5 -393.5 Q 324 -400 328.5 -409 Q 333 -418 334.5 -428.5 Q 336 -439 336 -449 L 336 -452 L 413 -452 L 413 -290 Q 413 -274 410 -257.5 Q 407 -241 399.5 -226 Q 392 -211 379.5 -199 Q 367 -187 352 -180 Q 337 -173 320.5 -170 Q 304 -167 288 -167 Z " id="path72"/>
<path d="M 218 -317 Q 201 -317 184.5 -322 Q 168 -327 154.5 -338 Q 141 -349 132 -364 Q 123 -379 117.5 -395.5 Q 112 -412 110.5 -429 Q 109 -446 109 -463 L 109 -478 L 92 -478 L 92 -532 L 109 -532 L 109 -687 L 186 -687 L 186 -532 L 314 -532 L 314 -687 L 391 -687 L 391 -532 L 408 -532 L 408 -478 L 391 -478 L 391 -323 L 314 -323 L 314 -382 Q 308 -368 299 -355.5 Q 290 -343 277 -334 Q 264 -325 249 -321 Q 234 -317 218 -317 Z M 250 -387 Q 264 -387 277.5 -392.5 Q 291 -398 299.5 -409.5 Q 308 -421 311 -435 Q 314 -449 314 -463 L 314 -478 L 186 -478 L 186 -463 Q 186 -449 189 -435 Q 192 -421 200.5 -409.5 Q 209 -398 222.5 -392.5 Q 236 -387 250 -387 Z " id="path73"/>
<path d="M 250 -317 Q 231 -317 211.5 -320.5 Q 192 -324 175 -333 Q 158 -342 145 -356.5 Q 132 -371 123.5 -388.5 Q 115 -406 112 -425 Q 109 -444 109 -463 L 109 -518 Q 109 -532 110.5 -545.5 Q 112 -559 117 -572.5 Q 122 -586 129.5 -597.5 Q 137 -609 148 -618 L 109 -618 L 109 -687 L 222 -687 L 222 -589 L 220 -589 Q 209 -588 202 -579.5 Q 195 -571 191.5 -560.5 Q 188 -550 187 -539.5 Q 186 -529 186 -518 L 186 -463 Q 186 -449 189 -435 Q 192 -421 200.5 -409.5 Q 209 -398 222.5 -392.5 Q 236 -387 250 -387 Q 264 -387 277.5 -392.5 Q 291 -398 299.5 -409.5 Q 308 -421 311 -435 Q 314 -449 314 -463 L 314 -518 Q 314 -529 313 -539.5 Q 312 -550 308.5 -560.5 Q 305 -571 298 -579.5 Q 291 -588 280 -589 L 278 -589 L 278 -687 L 391 -687 L 391 -618 L 352 -618 Q 363 -609 370.5 -597.5 Q 378 -586 383 -572.5 Q 388 -559 389.5 -545.5 Q 391 -532 391 -518 L 391 -463 Q 391 -444 388 -425 Q 385 -406 376.5 -388.5 Q 368 -371 355 -356.5 Q 342 -342 325 -333 Q 308 -324 288.5 -320.5 Q 269 -317 250 -317 Z " id="path74"/>
<path d="M 250 -317 Q 231 -317 212 -320.5 Q 193 -324 176 -332.5 Q 159 -341 145.5 -355 Q 132 -369 123.5 -386 Q 115 -403 112 -421.5 Q 109 -440 109 -460 L 109 -687 L 186 -687 L 186 -460 Q 186 -446 189 -432 Q 192 -418 201 -407.5 Q 210 -397 223 -392 Q 236 -387 250 -387 Q 264 -387 277 -392 Q 290 -397 299 -407.5 Q 308 -418 311 -432 Q 314 -446 314 -460 L 314 -687 L 391 -687 L 391 -460 Q 391 -440 388 -421.5 Q 385 -403 376.5 -386 Q 368 -369 354.5 -355 Q 341 -341 324 -332.5 Q 307 -324 288 -320.5 Q 269 -317 250 -317 Z " id="path75"/>
<path d="M 250 -317 Q 231 -317 211.5 -320.5 Q 192 -324 175 -333 Q 158 -342 145 -356.5 Q 132 -371 123.5 -388.5 Q 115 -406 112 -425 Q 109 -444 109 -463 L 109 -687 L 186 -687 L 186 -463 Q 186 -449 189 -435 Q 192 -421 200.5 -409.5 Q 209 -398 222.5 -392.5 Q 236 -387 250 -387 Q 264 -387 277.5 -392.5 Q 291 -398 299.5 -409.5 Q 308 -421 311 -435 Q 314 -449 314 -463 L 314 -561 Q 314 -572 311.5 -582.5 Q 309 -593 302 -601.5 Q 295 -610 285 -614 Q 275 -618 264 -618 L 250 -618 L 250 -687 L 264 -687 Q 281 -687 298 -684 Q 315 -681 330 -673.5 Q 345 -666 357.5 -654 Q 370 -642 377.5 -627 Q 385 -612 388 -595 Q 391 -578 391 -561 L 391 -463 Q 391 -444 388 -425 Q 385 -406 376.5 -388.5 Q 368 -371 355 -356.5 Q 342 -342 325 -333 Q 308 -324 288.5 -320.5 Q 269 -317 250 -317 Z " id="path76"/>
<path d="M 96 -323 L 206 -687 L 294 -687 L 404 -323 L 324 -323 L 258 -566 Q 256 -573 254 -580.5 Q 252 -588 250 -596 Q 248 -588 246 -580.5 Q 244 -573 242 -566 L 176 -323 Z " id="path77"/>
<path d="M 109 -323 L 109 -392 L 299 -618 L 109 -618 L 109 -687 L 391 -687 L 391 -618 L 201 -392 L 391 -392 L 391 -323 Z " id="path78"/>
<path d="M 449 -167 Q 432 -167 415.5 -170 Q 399 -173 384 -180 Q 369 -187 357 -199 Q 345 -211 337.5 -226 Q 330 -241 327 -257.5 Q 324 -274 324 -290 L 324 -323 L 109 -323 L 109 -392 L 299 -618 L 109 -618 L 109 -687 L 391 -687 L 391 -618 L 201 -392 L 391 -392 L 391 -290 Q 391 -278 394.5 -266 Q 398 -254 406 -245 Q 414 -236 425.5 -232 Q 437 -228 449 -228 L 459 -228 L 459 -167 Z " id="path79"/>
<path d="M 242 -250 L 199 -260 Q 203 -276 208 -291.5 Q 213 -307 218 -323 L 109 -323 L 109 -392 L 299 -618 L 109 -618 L 109 -687 L 391 -687 L 391 -618 L 201 -392 L 250 -392 Q 258 -407 268 -420 Q 278 -433 290.5 -443.5 Q 303 -454 319 -460.5 Q 335 -467 351 -467 Q 365 -467 378 -462.5 Q 391 -458 400 -448 Q 409 -438 412.5 -425 Q 416 -412 416 -398 Q 416 -383 412 -368.5 Q 408 -354 398 -343.5 Q 388 -333 373.5 -328 Q 359 -323 344 -323 L 262 -323 Q 256 -305 251 -287 Q 246 -269 242 -250 Z M 295 -392 L 344 -392 Q 349 -392 353.5 -393 Q 358 -394 362 -396 Q 366 -398 368.5 -401.5 Q 371 -405 371 -410 Q 371 -417 365 -422 Q 359 -427 351 -427 Q 334 -427 319.5 -416.5 Q 305 -406 295 -392 Z " id="path80"/>
<path d="M 251 -173 Q 224 -173 196.5 -180.5 Q 169 -188 148.5 -207 Q 128 -226 117.5 -252.5 Q 107 -279 107 -307 L 184 -307 Q 184 -293 189 -280.5 Q 194 -268 203.5 -259 Q 213 -250 225.5 -246 Q 238 -242 251 -242 Q 267 -242 281.5 -248.5 Q 296 -255 305 -267.5 Q 314 -280 317 -295.5 Q 320 -311 320 -326 Q 320 -342 316.5 -357.5 Q 313 -373 304 -386 Q 295 -399 280.5 -405.5 Q 266 -412 250 -412 L 165 -412 L 165 -481 L 278 -618 L 109 -618 L 109 -687 L 370 -687 L 370 -618 L 258 -481 Q 287 -481 315 -469.5 Q 343 -458 362.5 -436 Q 382 -414 389.5 -385 Q 397 -356 397 -326 Q 397 -296 388.5 -266.5 Q 380 -237 360 -214.5 Q 340 -192 311 -182.5 Q 282 -173 251 -173 Z " id="path81"/>
<path d="M 250 -317 Q 229 -317 209.5 -324.5 Q 190 -332 175 -346.5 Q 160 -361 149.5 -379.5 Q 139 -398 132 -417 Q 125 -436 120.5 -456.5 Q 116 -477 113.5 -497.5 Q 111 -518 110 -539 Q 109 -560 109 -580 Q 109 -601 110 -621.5 Q 111 -642 113.5 -662.5 Q 116 -683 120.5 -703.5 Q 125 -724 132 -743.5 Q 139 -763 149.5 -781 Q 160 -799 175 -813.5 Q 190 -828 209.5 -835.5 Q 229 -843 250 -843 Q 271 -843 290.5 -835.5 Q 310 -828 325 -813.5 Q 340 -799 350.5 -781 Q 361 -763 368 -743.5 Q 375 -724 379.5 -703.5 Q 384 -683 386.5 -662.5 Q 389 -642 390 -621.5 Q 391 -601 391 -580 Q 391 -560 390 -539 Q 389 -518 386.5 -497.5 Q 384 -477 379.5 -456.5 Q 375 -436 368 -417 Q 361 -398 350.5 -379.5 Q 340 -361 325 -346.5 Q 310 -332 290.5 -324.5 Q 271 -317 250 -317 Z M 186 -615 L 314 -615 Q 313 -626 312.5 -637.5 Q 312 -649 310.5 -660.5 Q 309 -672 307 -683.5 Q 305 -695 302.5 -706 Q 300 -717 296 -728 Q 292 -739 286 -749 Q 280 -759 271 -766.5 Q 262 -774 250 -774 Q 238 -774 229 -766.5 Q 220 -759 214 -749 Q 208 -739 204 -728 Q 200 -717 197.5 -706 Q 195 -695 193 -683.5 Q 191 -672 189.5 -660.5 Q 188 -649 187.5 -637.5 Q 187 -626 186 -615 Z M 250 -387 Q 262 -387 271 -394.5 Q 280 -402 286 -411.5 Q 292 -421 296 -432 Q 300 -443 302.5 -454.5 Q 305 -466 307 -477 Q 309 -488 310.5 -499.5 Q 312 -511 312.5 -522.5 Q 313 -534 314 -546 L 186 -546 Q 187 -534 187.5 -522.5 Q 188 -511 189.5 -499.5 Q 191 -488 193 -477 Q 195 -466 197.5 -454.5 Q 200 -443 204 -432 Q 208 -421 214 -411.5 Q 220 -402 229 -394.5 Q 238 -387 250 -387 Z " id="path82"/>
</defs>
<g>
<g data-source-text="0" fill="#20242e" transform="translate(174 41.292) rotate(0) scale(0.023999998)">
<use href="#path1" transform="translate(0 0)"/>
</g>
</g>
<g>
<g data-source-text="1" fill="#20242e" transform="translate(246 41.292) rotate(0) scale(0.023999998)">
<use href="#path2" transform="translate(0 0)"/>
</g>
</g>
<g>
<g data-source-text="2" fill="#20242e" transform="translate(318 41.292) rotate(0) scale(0.023999998)">
<use href="#path3" transform="translate(0 0)"/>
</g>
</g>
<g>
<g data-source-text="3" fill="#20242e" transform="translate(390 41.292) rotate(0) scale(0.023999998)">
<use href="#path4" transform="translate(0 0)"/>
</g>
</g>
<g>
<g data-source-text="4" fill="#20242e" transform="translate(462 41.292) rotate(0) scale(0.023999998)">
<use href="#path5" transform="translate(0 0)"/>
</g>
</g>
<g>
<g data-source-text="5" fill="#20242e" transform="translate(534 41.292) rotate(0) scale(0.023999998)">
<use href="#path6" transform="translate(0 0)"/>
</g>
</g>
<g>
<g data-source-text="6" fill="#20242e" transform="translate(606 41.292) rotate(0) scale(0.023999998)">
<use href="#path7" transform="translate(0 0)"/>
</g>
</g>
<g>
<g data-source-text="7" fill="#20242e" transform="translate(678 41.292) rotate(0) scale(0.023999998)">
<use href="#path8" transform="translate(0 0)"/>
</g>
</g>
<g>
<g data-source-text="8" fill="#20242e" transform="translate(750 41.292) rotate(0) scale(0.023999998)">
<use href="#path9" transform="translate(0 0)"/>
</g>
</g>
<g>
<g data-source-text="9" fill="#20242e" transform="translate(822 41.292) rotate(0) scale(0.023999998)">
<use href="#path10" transform="translate(0 0)"/>
</g>
</g>
<g>
<g data-source-text="A" fill="#20242e" transform="translate(894 41.292) rotate(0) scale(0.023999998)">
<use href="#path11" transform="translate(0 0)"/>
</g>
</g>
<g>
<g data-source-text="B" fill="#20242e" transform="translate(966 41.292) rotate(0) scale(0.023999998)">
<use href="#path12" transform="translate(0 0)"/>
</g>
</g>
<g>
<g data-source-text="C" fill="#20242e" transform="translate(1038 41.292) rotate(0) scale(0.023999998)">
<use href="#path13" transform="translate(0 0)"/>
</g>
</g>
<g>
<g data-source-text="D" fill="#20242e" transform="translate(1110 41.292) rotate(0) scale(0.023999998)">
<use href="#path14" transform="translate(0 0)"/>
</g>
</g>
<g>
<g data-source-text="E" fill="#20242e" transform="translate(1182 41.292) rotate(0) scale(0.023999998)">
<use href="#path15" transform="translate(0 0)"/>
</g>
</g>
<g>
<g data-source-text="F" fill="#20242e" transform="translate(1254 41.292) rotate(0) scale(0.023999998)">
<use href="#path16" transform="translate(0 0)"/>
</g>
</g>
<g>
<g data-source-text="U+1D80" fill="#20242e" transform="translate(36 113.292) rotate(0) scale(0.023999998)">
<use href="#path17" transform="translate(0 0)"/>
<use href="#path18" transform="translate(500 0)"/>
<use href="#path2" transform="translate(1000 0)"/>
<use href="#path14" transform="translate(1500 0)"/>
<use href="#path9" transform="translate(2000 0)"/>
<use href="#path1" transform="translate(2500 0)"/>
</g>
</g>
<g>
<g data-source-text="" fill="#20242e" transform="translate(168 118.584) rotate(0) scale(0.047999997)">
<use href="#path19" transform="translate(0 0)"/>
</g>
</g>
<g>
<g data-source-text="" fill="#20242e" transform="translate(240 118.584) rotate(0) scale(0.047999997)">
<use href="#path20" transform="translate(0 0)"/>
</g>
</g>
<g>
<g data-source-text="" fill="#20242e" transform="translate(312 118.584) rotate(0) scale(0.047999997)">
<use href="#path21" transform="translate(0 0)"/>
</g>
</g>
<g>
<g data-source-text="" fill="#20242e" transform="translate(384 118.584) rotate(0) scale(0.047999997)">
<use href="#path22" transform="translate(0 0)"/>
</g>
</g>
<g>
<g data-source-text="" fill="#20242e" transform="translate(456 118.584) rotate(0) scale(0.047999997)">
<use href="#path23" transform="translate(0 0)"/>
</g>
</g>
<g>
<g data-source-text="" fill="#20242e" transform="translate(528 118.584) rotate(0) scale(0.047999997)">
<use href="#path24" transform="translate(0 0)"/>
</g>
</g>
<g>
<g data-source-text="" fill="#20242e" transform="translate(600 118.584) rotate(0) scale(0.047999997)">
<use href="#path25" transform="translate(0 0)"/>
</g>
</g>
<g>
<g data-source-text="" fill="#20242e" transform="translate(672 118.584) rotate(0) scale(0.047999997)">
<use href="#path26" transform="translate(0 0)"/>
</g>
</g>
<g>
<g data-source-text="" fill="#20242e" transform="translate(744 118.584) rotate(0) scale(0.047999997)">
<use href="#path27" transform="translate(0 0)"/>
</g>
</g>
<g>
<g data-source-text="" fill="#20242e" transform="translate(816 118.584) rotate(0) scale(0.047999997)">
<use href="#path28" transform="translate(0 0)"/>
</g>
</g>
<g>
<g data-source-text="" fill="#20242e" transform="translate(888 118.584) rotate(0) scale(0.047999997)">
<use href="#path29" transform="translate(0 0)"/>
</g>
</g>
<g>
<g data-source-text="" fill="#20242e" transform="translate(960 118.584) rotate(0) scale(0.047999997)">
<use href="#path30" transform="translate(0 0)"/>
</g>
</g>
<g>
<g data-source-text="" fill="#20242e" transform="translate(1032 118.584) rotate(0) scale(0.047999997)">
<use href="#path31" transform="translate(0 0)"/>
</g>
</g>
<g>
<g data-source-text="" fill="#20242e" transform="translate(1104 118.584) rotate(0) scale(0.047999997)">
<use href="#path32" transform="translate(0 0)"/>
</g>
</g>
<g>
<g data-source-text="" fill="#20242e" transform="translate(1176 118.584) rotate(0) scale(0.047999997)">
<use href="#path33" transform="translate(0 0)"/>
</g>
</g>
<g>
<g data-source-text="" fill="#20242e" transform="translate(1248 118.584) rotate(0) scale(0.047999997)">
<use href="#path34" transform="translate(0 0)"/>
</g>
</g>
<g>
<g data-source-text="U+1D90" fill="#20242e" transform="translate(36 185.292) rotate(0) scale(0.023999998)">
<use href="#path17" transform="translate(0 0)"/>
<use href="#path18" transform="translate(500 0)"/>
<use href="#path2" transform="translate(1000 0)"/>
<use href="#path14" transform="translate(1500 0)"/>
<use href="#path10" transform="translate(2000 0)"/>
<use href="#path1" transform="translate(2500 0)"/>
</g>
</g>
<g>
<g data-source-text="" fill="#20242e" transform="translate(168 190.584) rotate(0) scale(0.047999997)">
<use href="#path35" transform="translate(0 0)"/>
</g>
</g>
<g>
<g data-source-text="" fill="#20242e" transform="translate(240 190.584) rotate(0) scale(0.047999997)">
<use href="#path36" transform="translate(0 0)"/>
</g>
</g>
<g>
<g data-source-text="" fill="#20242e" transform="translate(312 190.584) rotate(0) scale(0.047999997)">
<use href="#path37" transform="translate(0 0)"/>
</g>
</g>
<g>
<g data-source-text="" fill="#20242e" transform="translate(384 190.584) rotate(0) scale(0.047999997)">
<use href="#path38" transform="translate(0 0)"/>
</g>
</g>
<g>
<g data-source-text="" fill="#20242e" transform="translate(456 190.584) rotate(0) scale(0.047999997)">
<use href="#path39" transform="translate(0 0)"/>
</g>
</g>
<g>
<g data-source-text="" fill="#20242e" transform="translate(528 190.584) rotate(0) scale(0.047999997)">
<use href="#path40" transform="translate(0 0)"/>
</g>
</g>
<g>
<g data-source-text="" fill="#20242e" transform="translate(600 190.584) rotate(0) scale(0.047999997)">
<use href="#path41" transform="translate(0 0)"/>
</g>
</g>
<g>
<g data-source-text="" fill="#20242e" transform="translate(672 190.584) rotate(0) scale(0.047999997)">
<use href="#path42" transform="translate(0 0)"/>
</g>
</g>
<g>
<g data-source-text="" fill="#20242e" transform="translate(744 190.584) rotate(0) scale(0.047999997)">
<use href="#path43" transform="translate(0 0)"/>
</g>
</g>
<g>
<g data-source-text="" fill="#20242e" transform="translate(816 190.584) rotate(0) scale(0.047999997)">
<use href="#path44" transform="translate(0 0)"/>
</g>
</g>
<g>
<g data-source-text="" fill="#20242e" transform="translate(888 190.584) rotate(0) scale(0.047999997)">
<use href="#path45" transform="translate(0 0)"/>
</g>
</g>
<g>
<g data-source-text="" fill="#20242e" transform="translate(960 190.584) rotate(0) scale(0.047999997)">
<use href="#path46" transform="translate(0 0)"/>
</g>
</g>
<g>
<g data-source-text="" fill="#20242e" transform="translate(1032 190.584) rotate(0) scale(0.047999997)">
<use href="#path47" transform="translate(0 0)"/>
</g>
</g>
<g>
<g data-source-text="" fill="#20242e" transform="translate(1104 190.584) rotate(0) scale(0.047999997)">
<use href="#path48" transform="translate(0 0)"/>
</g>
</g>
<g>
<g data-source-text="" fill="#20242e" transform="translate(1176 190.584) rotate(0) scale(0.047999997)">
<use href="#path49" transform="translate(0 0)"/>
</g>
</g>
<g>
<g data-source-text="" fill="#20242e" transform="translate(1248 190.584) rotate(0) scale(0.047999997)">
<use href="#path50" transform="translate(0 0)"/>
</g>
</g>
<g>
<g data-source-text="U+1DA0" fill="#20242e" transform="translate(36 257.292) rotate(0) scale(0.023999998)">
<use href="#path17" transform="translate(0 0)"/>
<use href="#path18" transform="translate(500 0)"/>
<use href="#path2" transform="translate(1000 0)"/>
<use href="#path14" transform="translate(1500 0)"/>
<use href="#path11" transform="translate(2000 0)"/>
<use href="#path1" transform="translate(2500 0)"/>
</g>
</g>
<g>
<g data-source-text="" fill="#20242e" transform="translate(168 262.584) rotate(0) scale(0.047999997)">
<use href="#path51" transform="translate(0 0)"/>
</g>
</g>
<g>
<g data-source-text="" fill="#20242e" transform="translate(240 262.584) rotate(0) scale(0.047999997)">
<use href="#path52" transform="translate(0 0)"/>
</g>
</g>
<g>
<g data-source-text="" fill="#20242e" transform="translate(312 262.584) rotate(0) scale(0.047999997)">
<use href="#path53" transform="translate(0 0)"/>
</g>
</g>
<g>
<g data-source-text="" fill="#20242e" transform="translate(384 262.584) rotate(0) scale(0.047999997)">
<use href="#path54" transform="translate(0 0)"/>
</g>
</g>
<g>
<g data-source-text="" fill="#20242e" transform="translate(456 262.584) rotate(0) scale(0.047999997)">
<use href="#path55" transform="translate(0 0)"/>
</g>
</g>
<g>
<g data-source-text="" fill="#20242e" transform="translate(528 262.584) rotate(0) scale(0.047999997)">
<use href="#path56" transform="translate(0 0)"/>
</g>
</g>
<g>
<g data-source-text="" fill="#20242e" transform="translate(600 262.584) rotate(0) scale(0.047999997)">
<use href="#path57" transform="translate(0 0)"/>
</g>
</g>
<g>
<g data-source-text="" fill="#20242e" transform="translate(672 262.584) rotate(0) scale(0.047999997)">
<use href="#path58" transform="translate(0 0)"/>
</g>
</g>
<g>
<g data-source-text="" fill="#20242e" transform="translate(744 262.584) rotate(0) scale(0.047999997)">
<use href="#path59" transform="translate(0 0)"/>
</g>
</g>
<g>
<g data-source-text="" fill="#20242e" transform="translate(816 262.584) rotate(0) scale(0.047999997)">
<use href="#path60" transform="translate(0 0)"/>
</g>
</g>
<g>
<g data-source-text="" fill="#20242e" transform="translate(888 262.584) rotate(0) scale(0.047999997)">
<use href="#path61" transform="translate(0 0)"/>
</g>
</g>
<g>
<g data-source-text="" fill="#20242e" transform="translate(960 262.584) rotate(0) scale(0.047999997)">
<use href="#path62" transform="translate(0 0)"/>
</g>
</g>
<g>
<g data-source-text="" fill="#20242e" transform="translate(1032 262.584) rotate(0) scale(0.047999997)">
<use href="#path63" transform="translate(0 0)"/>
</g>
</g>
<g>
<g data-source-text="" fill="#20242e" transform="translate(1104 262.584) rotate(0) scale(0.047999997)">
<use href="#path64" transform="translate(0 0)"/>
</g>
</g>
<g>
<g data-source-text="" fill="#20242e" transform="translate(1176 262.584) rotate(0) scale(0.047999997)">
<use href="#path65" transform="translate(0 0)"/>
</g>
</g>
<g>
<g data-source-text="" fill="#20242e" transform="translate(1248 262.584) rotate(0) scale(0.047999997)">
<use href="#path66" transform="translate(0 0)"/>
</g>
</g>
<g>
<g data-source-text="U+1DB0" fill="#20242e" transform="translate(36 329.292) rotate(0) scale(0.023999998)">
<use href="#path17" transform="translate(0 0)"/>
<use href="#path18" transform="translate(500 0)"/>
<use href="#path2" transform="translate(1000 0)"/>
<use href="#path14" transform="translate(1500 0)"/>
<use href="#path12" transform="translate(2000 0)"/>
<use href="#path1" transform="translate(2500 0)"/>
</g>
</g>
<g>
<g data-source-text="" fill="#20242e" transform="translate(168 334.584) rotate(0) scale(0.047999997)">
<use href="#path67" transform="translate(0 0)"/>
</g>
</g>
<g>
<g data-source-text="" fill="#20242e" transform="translate(240 334.584) rotate(0) scale(0.047999997)">
<use href="#path68" transform="translate(0 0)"/>
</g>
</g>
<g>
<g data-source-text="" fill="#20242e" transform="translate(312 334.584) rotate(0) scale(0.047999997)">
<use href="#path69" transform="translate(0 0)"/>
</g>
</g>
<g>
<g data-source-text="" fill="#20242e" transform="translate(384 334.584) rotate(0) scale(0.047999997)">
<use href="#path70" transform="translate(0 0)"/>
</g>
</g>
<g>
<g data-source-text="" fill="#20242e" transform="translate(456 334.584) rotate(0) scale(0.047999997)">
<use href="#path71" transform="translate(0 0)"/>
</g>
</g>
<g>
<g data-source-text="" fill="#20242e" transform="translate(528 334.584) rotate(0) scale(0.047999997)">
<use href="#path72" transform="translate(0 0)"/>
</g>
</g>
<g>
<g data-source-text="" fill="#20242e" transform="translate(600 334.584) rotate(0) scale(0.047999997)">
<use href="#path73" transform="translate(0 0)"/>
</g>
</g>
<g>
<g data-source-text="" fill="#20242e" transform="translate(672 334.584) rotate(0) scale(0.047999997)">
<use href="#path74" transform="translate(0 0)"/>
</g>
</g>
<g>
<g data-source-text="" fill="#20242e" transform="translate(744 334.584) rotate(0) scale(0.047999997)">
<use href="#path75" transform="translate(0 0)"/>
</g>
</g>
<g>
<g data-source-text="" fill="#20242e" transform="translate(816 334.584) rotate(0) scale(0.047999997)">
<use href="#path76" transform="translate(0 0)"/>
</g>
</g>
<g>
<g data-source-text="" fill="#20242e" transform="translate(888 334.584) rotate(0) scale(0.047999997)">
<use href="#path77" transform="translate(0 0)"/>
</g>
</g>
<g>
<g data-source-text="" fill="#20242e" transform="translate(960 334.584) rotate(0) scale(0.047999997)">
<use href="#path78" transform="translate(0 0)"/>
</g>
</g>
<g>
<g data-source-text="" fill="#20242e" transform="translate(1032 334.584) rotate(0) scale(0.047999997)">
<use href="#path79" transform="translate(0 0)"/>
</g>
</g>
<g>
<g data-source-text="" fill="#20242e" transform="translate(1104 334.584) rotate(0) scale(0.047999997)">
<use href="#path80" transform="translate(0 0)"/>
</g>
</g>
<g>
<g data-source-text="" fill="#20242e" transform="translate(1176 334.584) rotate(0) scale(0.047999997)">
<use href="#path81" transform="translate(0 0)"/>
</g>
</g>
<g>
<g data-source-text="" fill="#20242e" transform="translate(1248 334.584) rotate(0) scale(0.047999997)">
<use href="#path82" transform="translate(0 0)"/>
</g>
</g>
</svg>