<?xml version="1.0" encoding="UTF-8" standalone="no"?>
<svg height="504" viewBox="0 0 1296 504" width="1296" xmlns="http://www.w3.org/2000/svg">
<defs>
<path d="M 250 8 Q 223 8 196 3 Q 169 -2 145 -15 Q 121 -28 102.5 -48.5 Q 84 -69 72.5 -94 Q 61 -119 56.5 -146 Q 52 -173 52 -200 L 52 -535 Q 52 -562 56.5 -589 Q 61 -616 72.5 -641 Q 84 -666 102.5 -686.5 Q 121 -707 145 -720 Q 169 -733 196 -738 Q 223 -743 250 -743 Q 277 -743 304 -738 Q 331 -733 355 -720 Q 379 -707 397.5 -686.5 Q 416 -666 427.5 -641 Q 439 -616 443.5 -589 Q 448 -562 448 -535 L 448 -200 Q 448 -173 443.5 -146 Q 439 -119 427.5 -94 Q 416 -69 397.5 -48.5 Q 379 -28 355 -15 Q 331 -2 304 3 Q 277 8 250 8 Z M 153 -337 L 347 -491 L 347 -535 Q 347 -557 342.5 -578.5 Q 338 -600 325.5 -618 Q 313 -636 292.5 -645.5 Q 272 -655 250 -655 Q 228 -655 207.5 -645.5 Q 187 -636 174.5 -618 Q 162 -600 157.5 -578.5 Q 153 -557 153 -535 Z M 250 -80 Q 272 -80 292.5 -89.5 Q 313 -99 325.5 -117 Q 338 -135 342.5 -156.5 Q 347 -178 347 -200 L 347 -398 L 153 -244 L 153 -200 Q 153 -178 157.5 -156.5 Q 162 -135 174.5 -117 Q 187 -99 207.5 -89.5 Q 228 -80 250 -80 Z " id="path1"/>
<path d="M 230 0 L 230 -631 L 110 -528 L 55 -584 L 230 -735 L 330 -735 L 330 0 Z " id="path2"/>
<path d="M 440 0 L 60 0 L 60 -1 Q 60 -27 61 -53.5 Q 62 -80 66 -106.5 Q 70 -133 77.5 -158.5 Q 85 -184 96.5 -207.5 Q 108 -231 123 -253 Q 138 -275 156 -294.5 Q 174 -314 194 -331 Q 214 -348 235.5 -364 Q 257 -380 277.5 -397 Q 298 -414 313 -435.5 Q 328 -457 335.5 -483 Q 343 -509 343 -535 Q 343 -557 339 -578 Q 335 -599 323.5 -617 Q 312 -635 292 -645 Q 272 -655 251 -655 Q 231 -655 212.5 -647.5 Q 194 -640 182 -625 Q 170 -610 164.5 -591 Q 159 -572 159 -552 L 159 -548 L 58 -548 L 58 -555 Q 58 -581 64 -605.5 Q 70 -630 81.5 -652.5 Q 93 -675 111.5 -693 Q 130 -711 152.5 -722.5 Q 175 -734 200.5 -738.5 Q 226 -743 251 -743 Q 278 -743 304.5 -737.5 Q 331 -732 354.5 -719 Q 378 -706 396 -685.5 Q 414 -665 424.5 -640.5 Q 435 -616 439.5 -589 Q 444 -562 444 -535 Q 444 -501 435 -468 Q 426 -435 407.5 -406 Q 389 -377 364 -353.5 Q 339 -330 312.5 -308.5 Q 286 -287 261 -264 Q 236 -241 216.5 -213 Q 197 -185 184 -153.5 Q 171 -122 166 -88 L 440 -88 Z " id="path3"/>
<path d="M 253 8 Q 227 8 201 4 Q 175 -0 151.5 -11.5 Q 128 -23 108.5 -40.5 Q 89 -58 76 -81 Q 63 -104 56.5 -129.5 Q 50 -155 50 -181 L 50 -187 L 151 -187 L 151 -184 Q 151 -163 157.5 -143 Q 164 -123 178 -108 Q 192 -93 212 -86.5 Q 232 -80 253 -80 Q 275 -80 296 -88.5 Q 317 -97 330.5 -114.5 Q 344 -132 349.5 -154 Q 355 -176 355 -198 Q 355 -217 351 -235.5 Q 347 -254 338.5 -271 Q 330 -288 316.5 -301 Q 303 -314 286 -322 Q 269 -330 250 -332 Q 231 -334 212 -334 L 212 -422 Q 229 -422 246 -424 Q 263 -426 278.5 -433 Q 294 -440 306 -452.5 Q 318 -465 325.5 -480.5 Q 333 -496 336 -513 Q 339 -530 339 -547 Q 339 -566 334.5 -585.5 Q 330 -605 319.5 -621 Q 309 -637 291 -646 Q 273 -655 253 -655 Q 234 -655 216.5 -647 Q 199 -639 187.5 -624 Q 176 -609 171.5 -590 Q 167 -571 167 -553 L 167 -548 L 66 -548 L 66 -556 Q 66 -581 71.5 -605.5 Q 77 -630 88 -652 Q 99 -674 117 -692.5 Q 135 -711 157 -722.5 Q 179 -734 203.5 -738.5 Q 228 -743 253 -743 Q 278 -743 303.5 -738 Q 329 -733 351 -721 Q 373 -709 390 -690 Q 407 -671 418 -648 Q 429 -625 434.5 -600 Q 440 -575 440 -550 Q 440 -524 434 -498.5 Q 428 -473 415.5 -450.5 Q 403 -428 384.5 -409.5 Q 366 -391 343 -379 Q 369 -368 390.5 -348.5 Q 412 -329 427 -304.5 Q 442 -280 449 -252 Q 456 -224 456 -196 Q 456 -168 450 -141.5 Q 444 -115 432 -91 Q 420 -67 401 -47 Q 382 -27 358 -14.5 Q 334 -2 307 3 Q 280 8 253 8 Z " id="path4"/>
<path d="M 282 0 L 282 -188 L 52 -188 L 52 -275 L 276 -735 L 385 -735 L 161 -275 L 282 -275 L 282 -435 L 382 -435 L 382 -275 L 440 -275 L 440 -188 L 382 -188 L 382 0 Z " id="path5"/>
<path d="M 252 8 Q 227 8 202.5 3.5 Q 178 -1 155.5 -12 Q 133 -23 115 -41 Q 97 -59 85 -80.5 Q 73 -102 66.5 -126.5 Q 60 -151 59 -176 L 159 -176 Q 161 -158 167 -139.5 Q 173 -121 185.5 -107 Q 198 -93 216 -86.5 Q 234 -80 252 -80 Q 269 -80 285 -87 Q 301 -94 312 -107 Q 323 -120 330 -135.5 Q 337 -151 340.5 -168 Q 344 -185 345.5 -202 Q 347 -219 347 -236 Q 347 -252 346 -269 Q 345 -286 341 -302 Q 337 -318 331 -334 Q 325 -350 314 -363 Q 303 -376 287.5 -383.5 Q 272 -391 256 -391 Q 240 -391 224.5 -387 Q 209 -383 196 -373.5 Q 183 -364 176 -349.5 Q 169 -335 168 -319 L 68 -319 L 68 -735 L 421 -735 L 421 -647 L 168 -647 L 168 -464 Q 189 -472 211 -475 Q 233 -478 256 -478 Q 285 -478 313.5 -470.5 Q 342 -463 365.5 -445.5 Q 389 -428 405.5 -403 Q 422 -378 431.5 -350.5 Q 441 -323 444.5 -294 Q 448 -265 448 -235 Q 448 -206 444 -176.5 Q 440 -147 430.5 -119 Q 421 -91 404 -66.5 Q 387 -42 363.5 -24.5 Q 340 -7 311 0.5 Q 282 8 252 8 Z " id="path6"/>
<path d="M 250 8 Q 221 8 192.5 1.5 Q 164 -5 140 -21 Q 116 -37 98.5 -60.5 Q 81 -84 70.5 -111 Q 60 -138 56 -166.5 Q 52 -195 52 -224 Q 52 -268 60 -311 Q 68 -354 81.5 -395.5 Q 95 -437 113 -477 Q 131 -517 150 -556 L 238 -735 L 347 -735 L 240 -517 Q 228 -493 216.5 -468.5 Q 205 -444 195 -419 Q 214 -438 239 -447 Q 264 -456 291 -456 Q 317 -456 342.5 -447 Q 368 -438 386.5 -419.5 Q 405 -401 417 -377.5 Q 429 -354 436 -328.5 Q 443 -303 445.5 -276.5 Q 448 -250 448 -224 Q 448 -195 444 -166.5 Q 440 -138 429.5 -111 Q 419 -84 401.5 -60.5 Q 384 -37 360 -21 Q 336 -5 307.5 1.5 Q 279 8 250 8 Z M 250 -80 Q 266 -80 282 -85.5 Q 298 -91 309.5 -102.5 Q 321 -114 328.5 -129 Q 336 -144 340 -159.5 Q 344 -175 345.5 -191.5 Q 347 -208 347 -224 Q 347 -240 345.5 -256.5 Q 344 -273 340 -289 Q 336 -305 328.5 -319.5 Q 321 -334 309.5 -345.5 Q 298 -357 282 -362.5 Q 266 -368 250 -368 Q 235 -368 221 -363.5 Q 207 -359 195.5 -349.5 Q 184 -340 176.5 -327.5 Q 169 -315 164 -301 Q 159 -287 156.5 -272.5 Q 154 -258 153 -243 L 153 -224 Q 153 -208 154.5 -191.5 Q 156 -175 160 -159.5 Q 164 -144 171.5 -129 Q 179 -114 190.5 -102.5 Q 202 -91 218 -85.5 Q 234 -80 250 -80 Z " id="path7"/>
<path d="M 242 0 L 138 0 L 336 -647 L 60 -647 L 60 -735 L 440 -735 L 440 -647 Z " id="path8"/>
<path d="M 250 8 Q 225 8 200 4 Q 175 -0 152 -10 Q 129 -20 109.5 -37 Q 90 -54 77.5 -75.5 Q 65 -97 58.5 -121.5 Q 52 -146 52 -172 Q 52 -203 62 -232.5 Q 72 -262 88.5 -288 Q 105 -314 127 -336 Q 149 -358 174 -378 Q 152 -396 132.5 -417 Q 113 -438 98.5 -462.5 Q 84 -487 76 -514.5 Q 68 -542 68 -570 Q 68 -594 73.5 -617 Q 79 -640 90.5 -661 Q 102 -682 119.5 -698.5 Q 137 -715 158 -725 Q 179 -735 202.5 -739 Q 226 -743 250 -743 Q 274 -743 297.5 -739 Q 321 -735 342 -725 Q 363 -715 380.5 -698.5 Q 398 -682 409.5 -661 Q 421 -640 426.5 -617 Q 432 -594 432 -570 Q 432 -542 424 -514.5 Q 416 -487 401.5 -462.5 Q 387 -438 367.5 -417 Q 348 -396 326 -378 Q 351 -358 373 -336 Q 395 -314 411.5 -288 Q 428 -262 438 -232.5 Q 448 -203 448 -172 Q 448 -146 441.5 -121.5 Q 435 -97 422.5 -75.5 Q 410 -54 390.5 -37 Q 371 -20 348 -10 Q 325 -0 300 4 Q 275 8 250 8 Z M 250 -435 Q 266 -447 280.5 -461.5 Q 295 -476 306.5 -493 Q 318 -510 325 -529.5 Q 332 -549 332 -569 Q 332 -586 326.5 -602.5 Q 321 -619 310 -631.5 Q 299 -644 283 -649.5 Q 267 -655 250 -655 Q 233 -655 217 -649.5 Q 201 -644 190 -631.5 Q 179 -619 173.5 -602.5 Q 168 -586 168 -569 Q 168 -549 175 -529.5 Q 182 -510 193.5 -493 Q 205 -476 219.5 -461.5 Q 234 -447 250 -435 Z M 250 -80 Q 269 -80 287.5 -85.5 Q 306 -91 320 -104 Q 334 -117 340.5 -135.5 Q 347 -154 347 -173 Q 347 -196 338.5 -217.5 Q 330 -239 316.5 -257.5 Q 303 -276 285.5 -291 Q 268 -306 250 -320 Q 232 -306 214.5 -291 Q 197 -276 183.5 -257.5 Q 170 -239 161.5 -217.5 Q 153 -196 153 -173 Q 153 -154 159.5 -135.5 Q 166 -117 180 -104 Q 194 -91 212.5 -85.5 Q 231 -80 250 -80 Z " id="path9"/>
<path d="M 262 0 L 153 0 L 260 -218 Q 272 -242 283.5 -266.5 Q 295 -291 305 -316 Q 286 -297 261 -288 Q 236 -279 209 -279 Q 183 -279 157.5 -288 Q 132 -297 113.5 -315.5 Q 95 -334 83 -357.5 Q 71 -381 64 -406.5 Q 57 -432 54.5 -458.5 Q 52 -485 52 -511 Q 52 -540 56 -568.5 Q 60 -597 70.5 -624 Q 81 -651 98.5 -674.5 Q 116 -698 140 -714 Q 164 -730 192.5 -736.5 Q 221 -743 250 -743 Q 279 -743 307.5 -736.5 Q 336 -730 360 -714 Q 384 -698 401.5 -674.5 Q 419 -651 429.5 -624 Q 440 -597 444 -568.5 Q 448 -540 448 -511 Q 448 -467 440 -424 Q 432 -381 418.5 -339.5 Q 405 -298 387 -258 Q 369 -218 350 -179 Z M 250 -367 Q 265 -367 279 -371.5 Q 293 -376 304.5 -385.5 Q 316 -395 323.5 -407.5 Q 331 -420 336 -434 Q 341 -448 343.5 -462.5 Q 346 -477 347 -492 L 347 -511 Q 347 -527 345.5 -543.5 Q 344 -560 340 -575.5 Q 336 -591 328.5 -606 Q 321 -621 309.5 -632.5 Q 298 -644 282 -649.5 Q 266 -655 250 -655 Q 234 -655 218 -649.5 Q 202 -644 190.5 -632.5 Q 179 -621 171.5 -606 Q 164 -591 160 -575.5 Q 156 -560 154.5 -543.5 Q 153 -527 153 -511 Q 153 -495 154.5 -478.5 Q 156 -462 160 -446 Q 164 -430 171.5 -415.5 Q 179 -401 190.5 -389.5 Q 202 -378 218 -372.5 Q 234 -367 250 -367 Z " id="path10"/>
<path d="M 39 0 L 192 -735 L 308 -735 L 461 0 L 358 0 L 326 -172 L 174 -172 L 142 0 Z M 309 -260 L 265 -490 Q 262 -511 258 -531.5 Q 254 -552 250 -572 Q 246 -552 242 -531.5 Q 238 -511 235 -490 L 191 -260 Z " id="path11"/>
<path d="M 60 0 L 60 -735 L 234 -735 Q 261 -735 287 -730.5 Q 313 -726 336 -714 Q 359 -702 377.5 -682.5 Q 396 -663 408 -639.5 Q 420 -616 424.5 -590 Q 429 -564 429 -538 Q 429 -515 425 -492 Q 421 -469 410.5 -448.5 Q 400 -428 383.5 -411 Q 367 -394 347 -383 Q 372 -373 393.5 -355.5 Q 415 -338 429.5 -314.5 Q 444 -291 450 -264 Q 456 -237 456 -210 Q 456 -181 450 -152.5 Q 444 -124 430 -98.5 Q 416 -73 394.5 -53.5 Q 373 -34 347 -21.5 Q 321 -9 292 -4.5 Q 263 -0 234 0 Z M 161 -424 L 234 -424 Q 255 -424 274.5 -432.5 Q 294 -441 306.5 -457.5 Q 319 -474 324 -494.5 Q 329 -515 329 -536 Q 329 -557 324 -577.5 Q 319 -598 306.5 -614.5 Q 294 -631 274.5 -639 Q 255 -647 234 -647 L 161 -647 Z M 161 -88 L 234 -88 Q 251 -88 267 -91 Q 283 -94 297.5 -101.5 Q 312 -109 323.5 -121 Q 335 -133 342.5 -148 Q 350 -163 352.5 -179 Q 355 -195 355 -212 Q 355 -228 352.5 -244.5 Q 350 -261 343 -276 Q 336 -291 324.5 -303 Q 313 -315 298 -322.5 Q 283 -330 267 -333 Q 251 -336 234 -336 L 161 -336 Z " id="path12"/>
<path d="M 247 8 Q 220 8 193 2.5 Q 166 -3 142.5 -16 Q 119 -29 101 -49.5 Q 83 -70 72 -94.5 Q 61 -119 56.5 -146 Q 52 -173 52 -200 L 52 -535 Q 52 -562 56.5 -589 Q 61 -616 72 -640.5 Q 83 -665 101 -685.5 Q 119 -706 142.5 -719 Q 166 -732 193 -737.5 Q 220 -743 247 -743 Q 273 -743 298 -738.5 Q 323 -734 346 -723 Q 369 -712 387.5 -694 Q 406 -676 418 -653.5 Q 430 -631 436 -606 Q 442 -581 442 -555 L 442 -548 L 341 -548 L 341 -552 Q 341 -572 335.5 -591.5 Q 330 -611 317.5 -626 Q 305 -641 286 -648 Q 267 -655 247 -655 Q 225 -655 205 -645.5 Q 185 -636 173 -618 Q 161 -600 157 -578.5 Q 153 -557 153 -535 L 153 -200 Q 153 -178 157 -156.5 Q 161 -135 173 -117 Q 185 -99 205 -89.5 Q 225 -80 247 -80 Q 267 -80 286 -87 Q 305 -94 317.5 -109 Q 330 -124 335.5 -143.5 Q 341 -163 341 -183 L 341 -187 L 442 -187 L 442 -180 Q 442 -154 436 -129 Q 430 -104 418 -81.5 Q 406 -59 387.5 -41 Q 369 -23 346 -12 Q 323 -1 298 3.5 Q 273 8 247 8 Z " id="path13"/>
<path d="M 60 0 L 60 -735 L 219 -735 Q 249 -735 279 -730 Q 309 -725 336.5 -712 Q 364 -699 386 -678.5 Q 408 -658 422 -631.5 Q 436 -605 442 -575 Q 448 -545 448 -515 L 448 -220 Q 448 -190 442 -160 Q 436 -130 422 -103.5 Q 408 -77 386 -56.5 Q 364 -36 336.5 -23 Q 309 -10 279 -5 Q 249 -0 219 0 Z M 161 -88 L 219 -88 Q 237 -88 254 -91 Q 271 -94 286.5 -102.5 Q 302 -111 314 -124 Q 326 -137 333.5 -152.5 Q 341 -168 344 -185.5 Q 347 -203 347 -220 L 347 -515 Q 347 -532 344 -549.5 Q 341 -567 333.5 -582.5 Q 326 -598 314 -611 Q 302 -624 286.5 -632.5 Q 271 -641 254 -644 Q 237 -647 219 -647 L 161 -647 Z " id="path14"/>
<path d="M 68 0 L 68 -735 L 440 -735 L 440 -647 L 169 -647 L 169 -426 L 383 -426 L 383 -338 L 169 -338 L 169 -88 L 440 -88 L 440 0 Z " id="path15"/>
<path d="M 91 0 L 91 -735 L 440 -735 L 440 -647 L 191 -647 L 191 -426 L 383 -426 L 383 -338 L 191 -338 L 191 0 Z " id="path16"/>
<path d="M 250 8 Q 223 8 196.5 2.5 Q 170 -3 147 -16.5 Q 124 -30 106.5 -50.5 Q 89 -71 78.5 -95.5 Q 68 -120 64 -146.5 Q 60 -173 60 -200 L 60 -735 L 161 -735 L 161 -200 Q 161 -186 162.5 -172 Q 164 -158 168 -144.5 Q 172 -131 179.5 -118.5 Q 187 -106 197.5 -97 Q 208 -88 222 -84 Q 236 -80 250 -80 Q 264 -80 278 -84 Q 292 -88 302.5 -97 Q 313 -106 320.5 -118.5 Q 328 -131 332 -144.5 Q 336 -158 337.5 -172 Q 339 -186 339 -200 L 339 -735 L 440 -735 L 440 -200 Q 440 -173 436 -146.5 Q 432 -120 421.5 -95.5 Q 411 -71 393.5 -50.5 Q 376 -30 353 -16.5 Q 330 -3 303.5 2.5 Q 277 8 250 8 Z " id="path17"/>
<path d="M 300 -143 L 200 -143 L 200 -296 L 60 -296 L 60 -384 L 200 -384 L 200 -537 L 300 -537 L 300 -384 L 440 -384 L 440 -296 L 300 -296 Z " id="path18"/>
<path d="M 821 -19 L 179 -19 L 179 -661 L 821 -661 Z " id="path19"/>
<path d="M 179 -19 L 179 -661 L 821 -661 L 821 -19 Z M 239 -79 L 761 -79 L 761 -601 L 239 -601 Z " id="path20"/>
<path d="M 700 -19 L 300 -19 Q 284 -19 268 -21.5 Q 252 -24 237 -31.5 Q 222 -39 210.5 -50.5 Q 199 -62 191.5 -77 Q 184 -92 181.5 -108 Q 179 -124 179 -140 L 179 -540 Q 179 -556 181.5 -572 Q 184 -588 191.5 -603 Q 199 -618 210.5 -629.5 Q 222 -641 237 -648.5 Q 252 -656 268 -658.5 Q 284 -661 300 -661 L 700 -661 Q 716 -661 732 -658.5 Q 748 -656 763 -648.5 Q 778 -641 789.5 -629.5 Q 801 -618 808.5 -603 Q 816 -588 818.5 -572 Q 821 -556 821 -540 L 821 -140 Q 821 -124 818.5 -108 Q 816 -92 808.5 -77 Q 801 -62 789.5 -50.5 Q 778 -39 763 -31.5 Q 748 -24 732 -21.5 Q 716 -19 700 -19 Z M 300 -79 L 700 -79 Q 711 -79 722.5 -83.5 Q 734 -88 741 -97 Q 748 -106 751 -117.5 Q 754 -129 754 -140 L 754 -540 Q 754 -551 751 -562.5 Q 748 -574 741 -583 Q 734 -592 722.5 -596.5 Q 711 -601 700 -601 L 300 -601 Q 289 -601 277.5 -596.5 Q 266 -592 259 -583 Q 252 -574 249 -562.5 Q 246 -551 246 -540 L 246 -140 Q 246 -129 249 -117.5 Q 252 -106 259 -97 Q 266 -88 277.5 -83.5 Q 289 -79 300 -79 Z " id="path21"/>
<path d="M 179 -19 L 179 -661 L 821 -661 L 821 -19 Z M 239 -79 L 761 -79 L 761 -601 L 239 -601 Z M 370 -210 L 370 -470 L 630 -470 L 630 -210 Z " id="path22"/>
<path d="M 179 -19 L 179 -661 L 821 -661 L 821 -19 Z M 239 -506 L 761 -506 L 761 -601 L 239 -601 Z M 239 -364 L 761 -364 L 761 -458 L 239 -458 Z M 239 -222 L 761 -222 L 761 -316 L 239 -316 Z M 239 -79 L 761 -79 L 761 -174 L 239 -174 Z " id="path23"/>
<path d="M 179 -19 L 179 -661 L 821 -661 L 821 -19 Z M 668 -79 L 761 -79 L 761 -601 L 668 -601 Z M 526 -79 L 616 -79 L 616 -601 L 526 -601 Z M 384 -79 L 474 -79 L 474 -601 L 384 -601 Z M 239 -79 L 332 -79 L 332 -601 L 239 -601 Z " id="path24"/>
<path d="M 179 -19 L 179 -661 L 821 -661 L 821 -19 Z M 668 -506 L 761 -506 L 761 -601 L 668 -601 Z M 526 -506 L 616 -506 L 616 -601 L 526 -601 Z M 384 -506 L 474 -506 L 474 -601 L 384 -601 Z M 239 -506 L 332 -506 L 332 -601 L 239 -601 Z M 668 -364 L 761 -364 L 761 -458 L 668 -458 Z M 526 -364 L 616 -364 L 616 -458 L 526 -458 Z M 384 -364 L 474 -364 L 474 -458 L 384 -458 Z M 239 -364 L 332 -364 L 332 -458 L 239 -458 Z M 668 -222 L 761 -222 L 761 -316 L 668 -316 Z M 526 -222 L 616 -222 L 616 -316 L 526 -316 Z M 384 -222 L 474 -222 L 474 -316 L 384 -316 Z M 239 -222 L 332 -222 L 332 -316 L 239 -316 Z M 668 -79 L 761 -79 L 761 -174 L 668 -174 Z M 526 -79 L 616 -79 L 616 -174 L 526 -174 Z M 384 -79 L 474 -79 L 474 -174 L 384 -174 Z M 239 -79 L 332 -79 L 332 -174 L 239 -174 Z " id="path25"/>
<path d="M 179 -19 L 179 -661 L 821 -661 L 821 -19 Z M 761 -585 L 761 -601 L 745 -601 Z M 761 -424 L 761 -537 L 697 -601 L 584 -601 Z M 761 -263 L 761 -377 L 537 -601 L 423 -601 Z M 761 -103 L 761 -216 L 376 -601 L 263 -601 L 495 -368 Z M 624 -79 L 737 -79 L 239 -577 L 239 -464 Z M 577 -79 L 239 -417 L 239 -303 L 463 -79 Z M 303 -79 L 416 -79 L 239 -256 L 239 -143 Z M 239 -79 L 255 -79 L 239 -95 Z " id="path26"/>
<path d="M 179 -19 L 179 -661 L 821 -661 L 821 -19 Z M 239 -103 L 737 -601 L 624 -601 L 239 -216 Z M 239 -263 L 577 -601 L 463 -601 L 239 -377 Z M 239 -424 L 416 -601 L 303 -601 L 239 -537 Z M 239 -585 L 255 -601 L 239 -601 Z M 263 -79 L 376 -79 L 761 -464 L 761 -577 Z M 423 -79 L 537 -79 L 761 -303 L 761 -417 Z M 697 -79 L 761 -143 L 761 -256 L 584 -79 Z M 745 -79 L 761 -79 L 761 -95 Z " id="path27"/>
<path d="M 179 -19 L 179 -661 L 821 -661 L 821 -19 Z M 339 -524 L 396 -581 L 376 -601 L 303 -601 L 283 -581 Z M 500 -524 L 557 -581 L 537 -601 L 463 -601 L 443 -581 Z M 661 -525 L 717 -581 L 697 -601 L 624 -601 L 604 -581 Z M 580 -444 L 637 -501 L 581 -558 L 524 -501 Z M 420 -444 L 477 -501 L 419 -558 L 363 -501 Z M 741 -444 L 761 -464 L 761 -537 L 741 -557 L 685 -501 Z M 259 -444 L 316 -501 L 259 -557 L 239 -537 L 239 -464 Z M 661 -364 L 718 -421 L 661 -477 L 604 -420 Z M 500 -364 L 557 -421 L 500 -477 L 443 -420 L 495 -368 Z M 340 -364 L 396 -420 L 339 -477 L 283 -421 Z M 741 -283 L 761 -303 L 761 -377 L 741 -397 L 684 -340 Z M 259 -283 L 316 -340 L 259 -397 L 239 -377 L 239 -303 Z M 580 -283 L 637 -340 L 581 -397 L 524 -340 Z M 420 -284 L 476 -340 L 420 -397 L 363 -340 Z M 661 -203 L 718 -260 L 661 -317 L 604 -260 Z M 339 -203 L 396 -260 L 340 -317 L 282 -259 Z M 500 -203 L 557 -260 L 500 -316 L 444 -260 Z M 741 -123 L 761 -143 L 761 -216 L 741 -236 L 684 -179 Z M 581 -123 L 637 -179 L 580 -236 L 524 -180 Z M 420 -123 L 476 -179 L 420 -236 L 363 -179 Z M 259 -123 L 316 -180 L 259 -236 L 239 -216 L 239 -143 Z M 463 -79 L 537 -79 L 557 -99 L 500 -156 L 443 -99 Z M 624 -79 L 697 -79 L 717 -99 L 661 -156 L 604 -99 Z M 303 -79 L 376 -79 L 396 -99 L 340 -156 L 283 -99 Z " id="path28"/>
<path d="M 684 -156 L 316 -156 L 316 -524 L 684 -524 Z " id="path29"/>
<path d="M 684 -156 L 316 -156 L 316 -524 L 684 -524 Z M 377 -217 L 623 -217 L 623 -463 L 377 -463 Z " id="path30"/>
<path d="M 179 -126 L 179 -554 L 821 -554 L 821 -126 Z " id="path31"/>
<path d="M 179 -126 L 179 -554 L 821 -554 L 821 -126 Z M 761 -187 L 761 -493 L 239 -493 L 239 -187 Z " id="path32"/>
<path d="M 714 -19 L 286 -19 L 286 -661 L 714 -661 Z " id="path33"/>
<path d="M 286 -19 L 286 -661 L 714 -661 L 714 -19 Z M 653 -79 L 653 -601 L 347 -601 L 347 -79 Z " id="path34"/>
<path d="M 741 -126 L 98 -126 L 259 -554 L 902 -554 Z " id="path35"/>
<path d="M 741 -126 L 98 -126 L 259 -554 L 902 -554 Z M 186 -187 L 699 -187 L 814 -493 L 301 -493 Z " id="path36"/>
<path d="M 110 -19 L 500 -661 L 890 -19 Z " id="path37"/>
<path d="M 110 -19 L 500 -661 L 890 -19 Z M 218 -79 L 782 -79 L 500 -544 Z " id="path38"/>
<path d="M 723 -156 L 277 -156 L 500 -524 Z " id="path39"/>
<path d="M 723 -156 L 277 -156 L 500 -524 Z M 615 -217 L 529 -359 L 500 -406 L 385 -217 Z " id="path40"/>
<path d="M 179 50 L 179 -730 L 821 -340 Z " id="path41"/>
<path d="M 179 50 L 179 -730 L 821 -340 Z M 239 -58 L 704 -340 L 239 -622 Z " id="path42"/>
<path d="M 316 -117 L 316 -563 L 684 -340 Z " id="path43"/>
<path d="M 316 -117 L 316 -563 L 684 -340 Z M 377 -225 L 566 -340 L 377 -455 Z " id="path44"/>
<path d="M 179 -80 L 179 -600 L 821 -340 Z " id="path45"/>
<path d="M 179 -80 L 179 -600 L 821 -340 Z M 239 -170 L 659 -340 L 239 -510 Z " id="path46"/>
<path d="M 500 -19 L 110 -661 L 890 -661 Z " id="path47"/>
<path d="M 500 -19 L 110 -661 L 890 -661 Z M 500 -136 L 782 -601 L 218 -601 Z " id="path48"/>
<path d="M 500 -156 L 277 -524 L 723 -524 Z " id="path49"/>
<path d="M 500 -156 L 277 -524 L 723 -524 Z M 500 -274 L 615 -463 L 385 -463 Z " id="path50"/>
<path d="M 821 50 L 179 -340 L 821 -730 Z " id="path51"/>
<path d="M 821 50 L 761 13 L 179 -340 L 821 -730 Z M 761 -58 L 761 -622 L 296 -340 Z " id="path52"/>
<path d="M 684 -117 L 316 -340 L 684 -563 Z " id="path53"/>
<path d="M 684 -117 L 316 -340 L 684 -563 Z M 623 -225 L 623 -455 L 434 -340 Z " id="path54"/>
<path d="M 821 -80 L 179 -340 L 821 -600 Z " id="path55"/>
<path d="M 821 -80 L 761 -105 L 179 -340 L 821 -600 Z M 761 -170 L 761 -510 L 341 -340 Z " id="path56"/>
<path d="M 500 -19 L 179 -340 L 500 -661 L 821 -340 Z " id="path57"/>
<path d="M 500 -19 L 179 -340 L 500 -661 L 821 -340 Z M 500 -79 L 761 -340 L 500 -601 L 239 -340 Z " id="path58"/>
<path d="M 500 -19 L 179 -340 L 500 -661 L 821 -340 Z M 500 -79 L 761 -340 L 500 -601 L 239 -340 Z M 500 -210 L 370 -340 L 500 -470 L 630 -340 Z " id="path59"/>
<path d="M 500 -19 Q 458 -19 417 -30 Q 376 -41 339.5 -62 Q 303 -83 273 -113 Q 243 -143 222 -179.5 Q 201 -216 190 -257 Q 179 -298 179 -340 Q 179 -382 190 -423 Q 201 -464 222 -500.5 Q 243 -537 273 -567 Q 303 -597 339.5 -618 Q 376 -639 417 -650 Q 458 -661 500 -661 Q 542 -661 583 -650 Q 624 -639 660.5 -618 Q 697 -597 727 -567 Q 757 -537 778 -500.5 Q 799 -464 810 -423 Q 821 -382 821 -340 Q 821 -298 810 -257 Q 799 -216 778 -179.5 Q 757 -143 727 -113 Q 697 -83 660.5 -62 Q 624 -41 583 -30 Q 542 -19 500 -19 Z M 500 -79 Q 534 -79 567.5 -88 Q 601 -97 630.5 -114 Q 660 -131 684.5 -155.5 Q 709 -180 726 -209.5 Q 743 -239 752 -272.5 Q 761 -306 761 -340 Q 761 -374 752 -407.5 Q 743 -441 726 -470.5 Q 709 -500 684.5 -524.5 Q 660 -549 630.5 -566 Q 601 -583 567.5 -592 Q 534 -601 500 -601 Q 466 -601 432.5 -592 Q 399 -583 369.5 -566 Q 340 -549 315.5 -524.5 Q 291 -500 274 -470.5 Q 257 -441 248 -407.5 Q 239 -374 239 -340 Q 239 -306 248 -272.5 Q 257 -239 274 -209.5 Q 291 -180 315.5 -155.5 Q 340 -131 369.5 -114 Q 399 -97 432.5 -88 Q 466 -79 500 -79 Z M 500 -210 Q 474 -210 450 -220 Q 426 -230 408 -248 Q 390 -266 380 -290 Q 370 -314 370 -340 Q 370 -366 380 -390 Q 390 -414 408 -432 Q 426 -450 450 -460 Q 474 -470 500 -470 Q 526 -470 550 -460 Q 574 -450 592 -432 Q 610 -414 620 -390 Q 630 -366 630 -340 Q 630 -314 620 -290 Q 610 -266 592 -248 Q 574 -230 550 -220 Q 526 -210 500 -210 Z " id="path60"/>
<path d="M 500 -19 L 286 -340 L 500 -661 L 714 -340 Z M 500 -128 L 641 -340 L 500 -552 L 359 -340 Z " id="path61"/>
<path d="M 500 -19 Q 458 -19 417 -30 Q 376 -41 339.5 -62 Q 303 -83 273 -113 Q 243 -143 222 -179.5 Q 201 -216 190 -257 Q 179 -298 179 -340 Q 179 -382 190 -423 Q 201 -464 222 -500.5 Q 243 -537 273 -567 Q 303 -597 339.5 -618 Q 376 -639 417 -650 Q 458 -661 500 -661 Q 542 -661 583 -650 Q 624 -639 660.5 -618 Q 697 -597 727 -567 Q 757 -537 778 -500.5 Q 799 -464 810 -423 Q 821 -382 821 -340 Q 821 -298 810 -257 Q 799 -216 778 -179.5 Q 757 -143 727 -113 Q 697 -83 660.5 -62 Q 624 -41 583 -30 Q 542 -19 500 -19 Z M 500 -79 Q 534 -79 567.5 -88 Q 601 -97 630.5 -114 Q 660 -131 684.5 -155.5 Q 709 -180 726 -209.5 Q 743 -239 752 -272.5 Q 761 -306 761 -340 Q 761 -374 752 -407.5 Q 743 -441 726 -470.5 Q 709 -500 684.5 -524.5 Q 660 -549 630.5 -566 Q 601 -583 567.5 -592 Q 534 -601 500 -601 Q 466 -601 432.5 -592 Q 399 -583 369.5 -566 Q 340 -549 315.5 -524.5 Q 291 -500 274 -470.5 Q 257 -441 248 -407.5 Q 239 -374 239 -340 Q 239 -306 248 -272.5 Q 257 -239 274 -209.5 Q 291 -180 315.5 -155.5 Q 340 -131 369.5 -114 Q 399 -97 432.5 -88 Q 466 -79 500 -79 Z " id="path62"/>
<path d="M 250 -526 Q 240 -526 233 -533 Q 226 -540 226 -550 Q 226 -560 233 -567 Q 240 -574 250 -574 Q 260 -574 267 -567 Q 274 -560 274 -550 Q 274 -540 267 -533 Q 260 -526 250 -526 Z M 145 -498 Q 135 -498 128 -505 Q 121 -512 121 -522 Q 121 -531 128 -538.5 Q 135 -546 145 -546 Q 155 -546 162 -538.5 Q 169 -531 169 -522 Q 169 -512 162 -505 Q 155 -498 145 -498 Z M 355 -498 Q 345 -498 338 -505 Q 331 -512 331 -522 Q 331 -531 338 -538.5 Q 345 -546 355 -546 Q 365 -546 372 -538.5 Q 379 -531 379 -522 Q 379 -512 372 -505 Q 365 -498 355 -498 Z M 68 -421 Q 59 -421 51.5 -428 Q 44 -435 44 -445 Q 44 -455 51.5 -462 Q 59 -469 68 -469 Q 78 -469 85 -462 Q 92 -455 92 -445 Q 92 -435 85 -428 Q 78 -421 68 -421 Z M 432 -421 Q 422 -421 415 -428 Q 408 -435 408 -445 Q 408 -455 415 -462 Q 422 -469 432 -469 Q 441 -469 448.5 -462 Q 456 -455 456 -445 Q 456 -435 448.5 -428 Q 441 -421 432 -421 Z M 40 -316 Q 30 -316 23 -323 Q 16 -330 16 -340 Q 16 -350 23 -357 Q 30 -364 40 -364 Q 50 -364 57 -357 Q 64 -350 64 -340 Q 64 -330 57 -323 Q 50 -316 40 -316 Z M 460 -316 Q 450 -316 443 -323 Q 436 -330 436 -340 Q 436 -350 443 -357 Q 450 -364 460 -364 Q 470 -364 477 -357 Q 484 -350 484 -340 Q 484 -330 477 -323 Q 470 -316 460 -316 Z M 432 -211 Q 422 -211 415 -218 Q 408 -225 408 -235 Q 408 -245 415 -252 Q 422 -259 432 -259 Q 441 -259 448.5 -252 Q 456 -245 456 -235 Q 456 -225 448.5 -218 Q 441 -211 432 -211 Z M 68 -211 Q 59 -211 51.5 -218 Q 44 -225 44 -235 Q 44 -245 51.5 -252 Q 59 -259 68 -259 Q 78 -259 85 -252 Q 92 -245 92 -235 Q 92 -225 85 -218 Q 78 -211 68 -211 Z M 355 -134 Q 345 -134 338 -141.5 Q 331 -149 331 -158 Q 331 -168 338 -175 Q 345 -182 355 -182 Q 365 -182 372 -175 Q 379 -168 379 -158 Q 379 -149 372 -141.5 Q 365 -134 355 -134 Z M 145 -134 Q 135 -134 128 -141.5 Q 121 -149 121 -158 Q 121 -168 128 -175 Q 135 -182 145 -182 Q 155 -182 162 -175 Q 169 -168 169 -158 Q 169 -149 162 -141.5 Q 155 -134 145 -134 Z M 250 -106 Q 240 -106 233 -113 Q 226 -120 226 -130 Q 226 -140 233 -147 Q 240 -154 250 -154 Q 260 -154 267 -147 Q 274 -140 274 -130 Q 274 -120 267 -113 Q 260 -106 250 -106 Z " id="path63"/>
<path d="M 500 -19 Q 476 -19 452 -22.5 Q 428 -26 405 -33.5 Q 382 -41 360 -51.5 Q 338 -62 318 -75.5 Q 298 -89 280.5 -105.5 Q 263 -122 248 -141 Q 233 -160 221 -181 Q 209 -202 200.5 -225 Q 192 -248 185.5 -275.5 Q 179 -303 179 -319 L 179 -340 Q 179 -364 182.5 -388 Q 186 -412 193.5 -435 Q 201 -458 211.5 -480 Q 222 -502 235.5 -522 Q 249 -542 265.5 -559.5 Q 282 -577 301 -592 Q 320 -607 341 -619 Q 362 -631 385 -639.5 Q 408 -648 435.5 -654.5 Q 463 -661 479 -661 L 500 -661 Q 524 -661 548 -657.5 Q 572 -654 595 -646.5 Q 618 -639 640 -628.5 Q 662 -618 682 -604.5 Q 702 -591 719.5 -574.5 Q 737 -558 752 -539 Q 767 -520 779 -499 Q 791 -478 799.5 -455 Q 808 -432 814.5 -404.5 Q 821 -377 821 -361 L 821 -340 Q 821 -316 817.5 -292 Q 814 -268 806.5 -245 Q 799 -222 788.5 -200 Q 778 -178 764.5 -158 Q 751 -138 734.5 -120.5 Q 718 -103 699 -88 Q 680 -73 659 -61 Q 638 -49 615 -40.5 Q 592 -32 564.5 -25.5 Q 537 -19 521 -19 Z M 526 -80 Q 550 -83 572.5 -89.5 Q 595 -96 616 -106 L 616 -574 Q 609 -577 602 -580 Q 595 -583 587.5 -586 Q 580 -589 572 -591 Q 564 -593 555.5 -595 Q 547 -597 539.5 -598.5 Q 532 -600 526 -600 Z M 474 -80 L 474 -600 Q 451 -597 428 -590.5 Q 405 -584 384 -574 L 384 -106 Q 391 -103 398 -100 Q 405 -97 412.5 -94 Q 420 -91 428 -89 Q 436 -87 444.5 -85 Q 453 -83 460.5 -81.5 Q 468 -80 474 -80 Z M 668 -141 Q 682 -152 693.5 -165 Q 705 -178 715 -192.5 Q 725 -207 733 -222.5 Q 741 -238 746.5 -254.5 Q 752 -271 756.5 -291 Q 761 -311 761 -323 L 761 -340 Q 761 -368 754.5 -396 Q 748 -424 736.5 -450 Q 725 -476 707.5 -498.5 Q 690 -521 668 -539 Z M 332 -141 L 332 -539 Q 318 -528 306.5 -515 Q 295 -502 285 -487.5 Q 275 -473 267 -457.5 Q 259 -442 253.5 -425.5 Q 248 -409 243.5 -389 Q 239 -369 239 -357 L 239 -340 Q 239 -312 245.5 -284 Q 252 -256 263.5 -230 Q 275 -204 292.5 -181.5 Q 310 -159 332 -141 Z " id="path64"/>
<path d="M 500 -19 Q 458 -19 417 -30 Q 376 -41 339.5 -62 Q 303 -83 273 -113 Q 243 -143 222 -179.5 Q 201 -216 190 -257 Q 179 -298 179 -340 Q 179 -382 190 -423 Q 201 -464 222 -500.5 Q 243 -537 273 -567 Q 303 -597 339.5 -618 Q 376 -639 417 -650 Q 458 -661 500 -661 Q 542 -661 583 -650 Q 624 -639 660.5 -618 Q 697 -597 727 -567 Q 757 -537 778 -500.5 Q 799 -464 810 -423 Q 821 -382 821 -340 Q 821 -298 810 -257 Q 799 -216 778 -179.5 Q 757 -143 727 -113 Q 697 -83 660.5 -62 Q 624 -41 583 -30 Q 542 -19 500 -19 Z M 500 -79 Q 534 -79 567.5 -88 Q 601 -97 630.5 -114 Q 660 -131 684.5 -155.5 Q 709 -180 726 -209.5 Q 743 -239 752 -272.5 Q 761 -306 761 -340 Q 761 -374 752 -407.5 Q 743 -441 726 -470.5 Q 709 -500 684.5 -524.5 Q 660 -549 630.5 -566 Q 601 -583 567.5 -592 Q 534 -601 500 -601 Q 466 -601 432.5 -592 Q 399 -583 369.5 -566 Q 340 -549 315.5 -524.5 Q 291 -500 274 -470.5 Q 257 -441 248 -407.5 Q 239 -374 239 -340 Q 239 -306 248 -272.5 Q 257 -239 274 -209.5 Q 291 -180 315.5 -155.5 Q 340 -131 369.5 -114 Q 399 -97 432.5 -88 Q 466 -79 500 -79 Z M 500 -210 Q 474 -210 450 -220 Q 426 -230 408 -248 Q 390 -266 380 -290 Q 370 -314 370 -340 Q 370 -366 380 -390 Q 390 -414 408 -432 Q 426 -450 450 -460 Q 474 -470 500 -470 Q 526 -470 550 -460 Q 574 -450 592 -432 Q 610 -414 620 -390 Q 630 -366 630 -340 Q 630 -314 620 -290 Q 610 -266 592 -248 Q 574 -230 550 -220 Q 526 -210 500 -210 Z M 500 -270 Q 514 -270 527 -275.5 Q 540 -281 549.5 -290.5 Q 559 -300 564.5 -313 Q 570 -326 570 -340 Q 570 -354 564.5 -367 Q 559 -380 549.5 -389.5 Q 540 -399 527 -404.5 Q 514 -410 500 -410 Q 486 -410 473 -404.5 Q 460 -399 450.5 -389.5 Q 441 -380 435.5 -367 Q 430 -354 430 -340 Q 430 -326 435.5 -313 Q 441 -300 450.5 -290.5 Q 460 -281 473 -275.5 Q 486 -270 500 -270 Z " id="path65"/>
<path d="M 500 -19 Q 458 -19 417 -30 Q 376 -41 339.5 -62 Q 303 -83 273 -113 Q 243 -143 222 -179.5 Q 201 -216 190 -257 Q 179 -298 179 -340 Q 179 -382 190 -423 Q 201 -464 222 -500.5 Q 243 -537 273 -567 Q 303 -597 339.5 -618 Q 376 -639 417 -650 Q 458 -661 500 -661 Q 542 -661 583 -650 Q 624 -639 660.5 -618 Q 697 -597 727 -567 Q 757 -537 778 -500.5 Q 799 -464 810 -423 Q 821 -382 821 -340 Q 821 -298 810 -257 Q 799 -216 778 -179.5 Q 757 -143 727 -113 Q 697 -83 660.5 -62 Q 624 -41 583 -30 Q 542 -19 500 -19 Z " id="path66"/>
<path d="M 500 -19 Q 476 -19 452 -22.5 Q 428 -26 405 -33.5 Q 382 -41 360 -51.5 Q 338 -62 318 -75.5 Q 298 -89 280.5 -105.5 Q 263 -122 248 -141 Q 233 -160 221 -181 Q 209 -202 200.5 -225 Q 192 -248 185.5 -275.5 Q 179 -303 179 -319 L 179 -340 Q 179 -364 182.5 -388 Q 186 -412 193.5 -435 Q 201 -458 211.5 -480 Q 222 -502 235.5 -522 Q 249 -542 265.5 -559.5 Q 282 -577 301 -592 Q 320 -607 341 -619 Q 362 -631 385 -639.5 Q 408 -648 435.5 -654.5 Q 463 -661 479 -661 L 500 -661 Q 524 -661 548 -657.5 Q 572 -654 595 -646.5 Q 618 -639 640 -628.5 Q 662 -618 682 -604.5 Q 702 -591 719.5 -574.5 Q 737 -558 752 -539 Q 767 -520 779 -499 Q 791 -478 799.5 -455 Q 808 -432 814.5 -404.5 Q 821 -377 821 -361 L 821 -340 Q 821 -316 817.5 -292 Q 814 -268 806.5 -245 Q 799 -222 788.5 -200 Q 778 -178 764.5 -158 Q 751 -138 734.5 -120.5 Q 718 -103 699 -88 Q 680 -73 659 -61 Q 638 -49 615 -40.5 Q 592 -32 564.5 -25.5 Q 537 -19 521 -19 Z M 500 -79 Q 520 -79 539.5 -82 Q 559 -85 577.5 -91 Q 596 -97 614 -105.5 Q 632 -114 648 -125 Q 664 -136 678.5 -149.5 Q 693 -163 705 -178.5 Q 717 -194 727 -211 Q 737 -228 744 -246.5 Q 751 -265 756 -287.5 Q 761 -310 761 -323 L 761 -340 Q 761 -360 758 -379.5 Q 755 -399 749 -417.5 Q 743 -436 734.5 -454 Q 726 -472 715 -488 Q 704 -504 690.5 -518.5 Q 677 -533 661.5 -545 Q 646 -557 629 -567 Q 612 -577 593.5 -584 Q 575 -591 552.5 -596 Q 530 -601 517 -601 L 500 -601 Z " id="path67"/>
<path d="M 500 -19 Q 476 -19 452 -22.5 Q 428 -26 405 -33.5 Q 382 -41 360 -51.5 Q 338 -62 318 -75.5 Q 298 -89 280.5 -105.5 Q 263 -122 248 -141 Q 233 -160 221 -181 Q 209 -202 200.5 -225 Q 192 -248 185.5 -275.5 Q 179 -303 179 -319 L 179 -340 Q 179 -364 182.5 -388 Q 186 -412 193.5 -435 Q 201 -458 211.5 -480 Q 222 -502 235.5 -522 Q 249 -542 265.5 -559.5 Q 282 -577 301 -592 Q 320 -607 341 -619 Q 362 -631 385 -639.5 Q 408 -648 435.5 -654.5 Q 463 -661 479 -661 L 500 -661 Q 524 -661 548 -657.5 Q 572 -654 595 -646.5 Q 618 -639 640 -628.5 Q 662 -618 682 -604.5 Q 702 -591 719.5 -574.5 Q 737 -558 752 -539 Q 767 -520 779 -499 Q 791 -478 799.5 -455 Q 808 -432 814.5 -404.5 Q 821 -377 821 -361 L 821 -340 Q 821 -316 817.5 -292 Q 814 -268 806.5 -245 Q 799 -222 788.5 -200 Q 778 -178 764.5 -158 Q 751 -138 734.5 -120.5 Q 718 -103 699 -88 Q 680 -73 659 -61 Q 638 -49 615 -40.5 Q 592 -32 564.5 -25.5 Q 537 -19 521 -19 Z M 483 -79 L 500 -79 L 500 -601 Q 480 -601 460.5 -598 Q 441 -595 422.5 -589 Q 404 -583 386 -574.5 Q 368 -566 352 -555 Q 336 -544 321.5 -530.5 Q 307 -517 295 -501.5 Q 283 -486 273 -469 Q 263 -452 256 -433.5 Q 249 -415 244 -392.5 Q 239 -370 239 -357 L 239 -340 Q 239 -320 242 -300.5 Q 245 -281 251 -262.5 Q 257 -244 265.5 -226 Q 274 -208 285 -192 Q 296 -176 309.5 -161.5 Q 323 -147 338.5 -135 Q 354 -123 371 -113 Q 388 -103 406.5 -96 Q 425 -89 447.5 -84 Q 470 -79 483 -79 Z " id="path68"/>
<path d="M 500 -19 Q 476 -19 452 -22.5 Q 428 -26 405 -33.5 Q 382 -41 360 -51.5 Q 338 -62 318 -75.5 Q 298 -89 280.5 -105.5 Q 263 -122 248 -141 Q 233 -160 221 -181 Q 209 -202 200.5 -225 Q 192 -248 185.5 -275.5 Q 179 -303 179 -319 L 179 -340 Q 179 -364 182.5 -388 Q 186 -412 193.5 -435 Q 201 -458 211.5 -480 Q 222 -502 235.5 -522 Q 249 -542 265.5 -559.5 Q 282 -577 301 -592 Q 320 -607 341 -619 Q 362 -631 385 -639.5 Q 408 -648 435.5 -654.5 Q 463 -661 479 -661 L 500 -661 Q 524 -661 548 -657.5 Q 572 -654 595 -646.5 Q 618 -639 640 -628.5 Q 662 -618 682 -604.5 Q 702 -591 719.5 -574.5 Q 737 -558 752 -539 Q 767 -520 779 -499 Q 791 -478 799.5 -455 Q 808 -432 814.5 -404.5 Q 821 -377 821 -361 L 821 -340 Q 821 -316 817.5 -292 Q 814 -268 806.5 -245 Q 799 -222 788.5 -200 Q 778 -178 764.5 -158 Q 751 -138 734.5 -120.5 Q 718 -103 699 -88 Q 680 -73 659 -61 Q 638 -49 615 -40.5 Q 592 -32 564.5 -25.5 Q 537 -19 521 -19 Z M 239 -340 L 761 -340 Q 761 -360 758 -379.5 Q 755 -399 749 -417.5 Q 743 -436 734.5 -454 Q 726 -472 715 -488 Q 704 -504 690.5 -518.5 Q 677 -533 661.5 -545 Q 646 -557 629 -567 Q 612 -577 593.5 -584 Q 575 -591 552.5 -596 Q 530 -601 517 -601 L 500 -601 Q 480 -601 460.5 -598 Q 441 -595 422.5 -589 Q 404 -583 386 -574.5 Q 368 -566 352 -555 Q 336 -544 321.5 -530.5 Q 307 -517 295 -501.5 Q 283 -486 273 -469 Q 263 -452 256 -433.5 Q 249 -415 244 -392.5 Q 239 -370 239 -357 Z " id="path69"/>
<path d="M 500 -19 Q 476 -19 452 -22.5 Q 428 -26 405 -33.5 Q 382 -41 360 -51.5 Q 338 -62 318 -75.5 Q 298 -89 280.5 -105.5 Q 263 -122 248 -141 Q 233 -160 221 -181 Q 209 -202 200.5 -225 Q 192 -248 185.5 -275.5 Q 179 -303 179 -319 L 179 -340 Q 179 -364 182.5 -388 Q 186 -412 193.5 -435 Q 201 -458 211.5 -480 Q 222 -502 235.5 -522 Q 249 -542 265.5 -559.5 Q 282 -577 301 -592 Q 320 -607 341 -619 Q 362 -631 385 -639.5 Q 408 -648 435.5 -654.5 Q 463 -661 479 -661 L 500 -661 Q 524 -661 548 -657.5 Q 572 -654 595 -646.5 Q 618 -639 640 -628.5 Q 662 -618 682 -604.5 Q 702 -591 719.5 -574.5 Q 737 -558 752 -539 Q 767 -520 779 -499 Q 791 -478 799.5 -455 Q 808 -432 814.5 -404.5 Q 821 -377 821 -361 L 821 -340 Q 821 -316 817.5 -292 Q 814 -268 806.5 -245 Q 799 -222 788.5 -200 Q 778 -178 764.5 -158 Q 751 -138 734.5 -120.5 Q 718 -103 699 -88 Q 680 -73 659 -61 Q 638 -49 615 -40.5 Q 592 -32 564.5 -25.5 Q 537 -19 521 -19 Z M 483 -79 L 500 -79 Q 520 -79 539.5 -82 Q 559 -85 577.5 -91 Q 596 -97 614 -105.5 Q 632 -114 648 -125 Q 664 -136 678.5 -149.5 Q 693 -163 705 -178.5 Q 717 -194 727 -211 Q 737 -228 744 -246.5 Q 751 -265 756 -287.5 Q 761 -310 761 -323 L 761 -340 L 239 -340 Q 239 -320 242 -300.5 Q 245 -281 251 -262.5 Q 257 -244 265.5 -226 Q 274 -208 285 -192 Q 296 -176 309.5 -161.5 Q 323 -147 338.5 -135 Q 354 -123 371 -113 Q 388 -103 406.5 -96 Q 425 -89 447.5 -84 Q 470 -79 483 -79 Z " id="path70"/>
<path d="M 500 -19 Q 476 -19 452 -22.5 Q 428 -26 405 -33.5 Q 382 -41 360 -51.5 Q 338 -62 318 -75.5 Q 298 -89 280.5 -105.5 Q 263 -122 248 -141 Q 233 -160 221 -181 Q 209 -202 200.5 -225 Q 192 -248 185.5 -275.5 Q 179 -303 179 -319 L 179 -340 Q 179 -364 182.5 -388 Q 186 -412 193.5 -435 Q 201 -458 211.5 -480 Q 222 -502 235.5 -522 Q 249 -542 265.5 -559.5 Q 282 -577 301 -592 Q 320 -607 341 -619 Q 362 -631 385 -639.5 Q 408 -648 435.5 -654.5 Q 463 -661 479 -661 L 500 -661 Q 524 -661 548 -657.5 Q 572 -654 595 -646.5 Q 618 -639 640 -628.5 Q 662 -618 682 -604.5 Q 702 -591 719.5 -574.5 Q 737 -558 752 -539 Q 767 -520 779 -499 Q 791 -478 799.5 -455 Q 808 -432 814.5 -404.5 Q 821 -377 821 -361 L 821 -340 Q 821 -316 817.5 -292 Q 814 -268 806.5 -245 Q 799 -222 788.5 -200 Q 778 -178 764.5 -158 Q 751 -138 734.5 -120.5 Q 718 -103 699 -88 Q 680 -73 659 -61 Q 638 -49 615 -40.5 Q 592 -32 564.5 -25.5 Q 537 -19 521 -19 Z M 483 -79 L 500 -79 Q 520 -79 539.5 -82 Q 559 -85 577.5 -91 Q 596 -97 614 -105.5 Q 632 -114 648 -125 Q 664 -136 678.5 -149.5 Q 693 -163 705 -178.5 Q 717 -194 727 -211 Q 737 -228 744 -246.5 Q 751 -265 756 -287.5 Q 761 -310 761 -323 L 761 -340 L 500 -340 L 500 -601 Q 480 -601 460.5 -598 Q 441 -595 422.5 -589 Q 404 -583 386 -574.5 Q 368 -566 352 -555 Q 336 -544 321.5 -530.5 Q 307 -517 295 -501.5 Q 283 -486 273 -469 Q 263 -452 256 -433.5 Q 249 -415 244 -392.5 Q 239 -370 239 -357 L 239 -340 Q 239 -320 242 -300.5 Q 245 -281 251 -262.5 Q 257 -244 265.5 -226 Q 274 -208 285 -192 Q 296 -176 309.5 -161.5 Q 323 -147 338.5 -135 Q 354 -123 371 -113 Q 388 -103 406.5 -96 Q 425 -89 447.5 -84 Q 470 -79 483 -79 Z " id="path71"/>
<path d="M 500 -19 Q 476 -19 452 -22.5 Q 428 -26 405 -33.5 Q 382 -41 360 -51.5 Q 338 -62 318 -75.5 Q 298 -89 280.5 -105.5 Q 263 -122 248 -141 Q 233 -160 221 -181 Q 209 -202 200.5 -225 Q 192 -248 185.5 -275.5 Q 179 -303 179 -319 L 179 -340 Q 179 -364 182.5 -388 Q 186 -412 193.5 -435 Q 201 -458 211.5 -480 Q 222 -502 235.5 -522 Q 249 -542 265.5 -559.5 Q 282 -577 301 -592 Q 320 -607 341 -619 Q 362 -631 385 -639.5 Q 408 -648 435.5 -654.5 Q 463 -661 479 -661 L 500 -661 Q 524 -661 548 -657.5 Q 572 -654 595 -646.5 Q 618 -639 640 -628.5 Q 662 -618 682 -604.5 Q 702 -591 719.5 -574.5 Q 737 -558 752 -539 Q 767 -520 779 -499 Q 791 -478 799.5 -455 Q 808 -432 814.5 -404.5 Q 821 -377 821 -361 L 821 -340 Q 821 -316 817.5 -292 Q 814 -268 806.5 -245 Q 799 -222 788.5 -200 Q 778 -178 764.5 -158 Q 751 -138 734.5 -120.5 Q 718 -103 699 -88 Q 680 -73 659 -61 Q 638 -49 615 -40.5 Q 592 -32 564.5 -25.5 Q 537 -19 521 -19 Z M 239 -340 L 500 -340 L 500 -601 Q 480 -601 460.5 -598 Q 441 -595 422.5 -589 Q 404 -583 386 -574.5 Q 368 -566 352 -555 Q 336 -544 321.5 -530.5 Q 307 -517 295 -501.5 Q 283 -486 273 -469 Q 263 -452 256 -433.5 Q 249 -415 244 -392.5 Q 239 -370 239 -357 Z " id="path72"/>
<path d="M 500 -20 Q 458 -20 417 -31 Q 376 -42 340 -63 Q 304 -84 274 -114 Q 244 -144 223 -180 Q 202 -216 191 -257 Q 180 -298 180 -340 Q 180 -382 191 -423 Q 202 -464 223 -500 Q 244 -536 274 -566 Q 304 -596 340 -617 Q 376 -638 417 -649 Q 458 -660 500 -660 Z " id="path73"/>
<path d="M 500 -20 L 500 -660 Q 542 -660 583 -649 Q 624 -638 660 -617 Q 696 -596 726 -566 Q 756 -536 777 -500 Q 798 -464 809 -423 Q 820 -382 820 -340 Q 820 -298 809 -257 Q 798 -216 777 -180 Q 756 -144 726 -114 Q 696 -84 660 -63 Q 624 -42 583 -31 Q 542 -20 500 -20 Z " id="path74"/>
<path d="M 0 285 L 0 -965 L 1000 -965 L 1000 285 Z M 500 -19 L 521 -19 Q 534 -19 548 -21.5 Q 562 -24 580 -29 Q 598 -34 611 -38.5 Q 624 -43 637.5 -49.5 Q 651 -56 664 -64 Q 677 -72 689 -80.5 Q 701 -89 712.5 -99 Q 724 -109 734.5 -120.5 Q 745 -132 754 -143.5 Q 763 -155 771 -168 Q 779 -181 786 -194.5 Q 793 -208 798.5 -222 Q 804 -236 808 -250.5 Q 812 -265 815 -280 Q 818 -295 819.5 -310 Q 821 -325 821 -340 L 821 -361 Q 821 -377 814.5 -404.5 Q 808 -432 799.5 -455 Q 791 -478 779 -499 Q 767 -520 752 -539 Q 737 -558 719.5 -574.5 Q 702 -591 682 -604.5 Q 662 -618 640 -628.5 Q 618 -639 595 -646.5 Q 572 -654 548 -657.5 Q 524 -661 500 -661 L 479 -661 Q 463 -661 435.5 -654.5 Q 408 -648 385 -639.5 Q 362 -631 341 -619 Q 320 -607 301 -592 Q 282 -577 265.5 -559.5 Q 249 -542 235.5 -522 Q 222 -502 211.5 -480 Q 201 -458 193.5 -435 Q 186 -412 182.5 -388 Q 179 -364 179 -340 L 179 -319 Q 179 -303 185.5 -275.5 Q 192 -248 200.5 -225 Q 209 -202 221 -181 Q 233 -160 248 -141 Q 263 -122 280.5 -105.5 Q 298 -89 318 -75.5 Q 338 -62 360 -51.5 Q 382 -41 405 -33.5 Q 428 -26 452 -22.5 Q 476 -19 500 -19 Z " id="path75"/>
<path d="M 0 285 L 0 -965 L 1000 -965 L 1000 285 Z M 500 -19 L 521 -19 Q 534 -19 548 -21.5 Q 562 -24 580 -29 Q 598 -34 611 -38.5 Q 624 -43 637.5 -49.5 Q 651 -56 664 -64 Q 677 -72 689 -80.5 Q 701 -89 712.5 -99 Q 724 -109 734.5 -120.5 Q 745 -132 754 -143.5 Q 763 -155 771 -168 Q 779 -181 786 -194.5 Q 793 -208 798.5 -222 Q 804 -236 808 -250.5 Q 812 -265 815 -280 Q 818 -295 819.5 -310 Q 821 -325 821 -340 L 821 -361 Q 821 -377 814.5 -404.5 Q 808 -432 799.5 -455 Q 791 -478 779 -499 Q 767 -520 752 -539 Q 737 -558 719.5 -574.5 Q 702 -591 682 -604.5 Q 662 -618 640 -628.5 Q 618 -639 595 -646.5 Q 572 -654 548 -657.5 Q 524 -661 500 -661 L 479 -661 Q 463 -661 435.5 -654.5 Q 408 -648 385 -639.5 Q 362 -631 341 -619 Q 320 -607 301 -592 Q 282 -577 265.5 -559.5 Q 249 -542 235.5 -522 Q 222 -502 211.5 -480 Q 201 -458 193.5 -435 Q 186 -412 182.5 -388 Q 179 -364 179 -340 L 179 -319 Q 179 -303 185.5 -275.5 Q 192 -248 200.5 -225 Q 209 -202 221 -181 Q 233 -160 248 -141 Q 263 -122 280.5 -105.5 Q 298 -89 318 -75.5 Q 338 -62 360 -51.5 Q 382 -41 405 -33.5 Q 428 -26 452 -22.5 Q 476 -19 500 -19 Z M 483 -79 Q 470 -79 447.5 -84 Q 425 -89 406.5 -96 Q 388 -103 371 -113 Q 354 -123 338.5 -135 Q 323 -147 309.5 -161.5 Q 296 -176 285 -192 Q 274 -208 265.5 -226 Q 257 -244 251 -262.5 Q 245 -281 242 -300.5 Q 239 -320 239 -340 L 239 -357 Q 239 -370 244 -392.5 Q 249 -415 256 -433.5 Q 263 -452 273 -469 Q 283 -486 295 -501.5 Q 307 -517 321.5 -530.5 Q 336 -544 352 -555 Q 368 -566 386 -574.5 Q 404 -583 422.5 -589 Q 441 -595 460.5 -598 Q 480 -601 500 -601 L 517 -601 Q 530 -601 552.5 -596 Q 575 -591 593.5 -584 Q 612 -577 629 -567 Q 646 -557 661.5 -545 Q 677 -533 690.5 -518.5 Q 704 -504 715 -488 Q 726 -472 734.5 -454 Q 743 -436 749 -417.5 Q 755 -399 758 -379.5 Q 761 -360 761 -340 L 761 -323 Q 761 -310 756 -287.5 Q 751 -265 744 -246.5 Q 737 -228 727 -211 Q 717 -194 705 -178.5 Q 693 -163 678.5 -149.5 Q 664 -136 648 -125 Q 632 -114 614 -105.5 Q 596 -97 577.5 -91 Q 559 -85 539.5 -82 Q 520 -79 500 -79 Z " id="path76"/>
<path d="M 0 -340 L 0 -965 L 1000 -965 L 1000 -340 L 821 -340 L 821 -361 Q 821 -377 814.5 -404.5 Q 808 -432 799.5 -455 Q 791 -478 779 -499 Q 767 -520 752 -539 Q 737 -558 719.5 -574.5 Q 702 -591 682 -604.5 Q 662 -618 640 -628.5 Q 618 -639 595 -646.5 Q 572 -654 548 -657.5 Q 524 -661 500 -661 L 479 -661 Q 463 -661 435.5 -654.5 Q 408 -648 385 -639.5 Q 362 -631 341 -619 Q 320 -607 301 -592 Q 282 -577 265.5 -559.5 Q 249 -542 235.5 -522 Q 222 -502 211.5 -480 Q 201 -458 193.5 -435 Q 186 -412 182.5 -388 Q 179 -364 179 -340 Z M 239 -340 L 239 -357 Q 239 -370 244 -392.5 Q 249 -415 256 -433.5 Q 263 -452 273 -469 Q 283 -486 295 -501.5 Q 307 -517 321.5 -530.5 Q 336 -544 352 -555 Q 368 -566 386 -574.5 Q 404 -583 422.5 -589 Q 441 -595 460.5 -598 Q 480 -601 500 -601 L 517 -601 Q 530 -601 552.5 -596 Q 575 -591 593.5 -584 Q 612 -577 629 -567 Q 646 -557 661.5 -545 Q 677 -533 690.5 -518.5 Q 704 -504 715 -488 Q 726 -472 734.5 -454 Q 743 -436 749 -417.5 Q 755 -399 758 -379.5 Q 761 -360 761 -340 Z " id="path77"/>
<path d="M 483 -79 Q 470 -79 447.5 -84 Q 425 -89 406.5 -96 Q 388 -103 371 -113 Q 354 -123 338.5 -135 Q 323 -147 309.5 -161.5 Q 296 -176 285 -192 Q 274 -208 265.5 -226 Q 257 -244 251 -262.5 Q 245 -281 242 -300.5 Q 239 -320 239 -340 L 761 -340 L 761 -323 Q 761 -310 756 -287.5 Q 751 -265 744 -246.5 Q 737 -228 727 -211 Q 717 -194 705 -178.5 Q 693 -163 678.5 -149.5 Q 664 -136 648 -125 Q 632 -114 614 -105.5 Q 596 -97 577.5 -91 Q 559 -85 539.5 -82 Q 520 -79 500 -79 Z M 0 285 L 0 -340 L 179 -340 L 179 -319 Q 179 -303 185.5 -275.5 Q 192 -248 200.5 -225 Q 209 -202 221 -181 Q 233 -160 248 -141 Q 263 -122 280.5 -105.5 Q 298 -89 318 -75.5 Q 338 -62 360 -51.5 Q 382 -41 405 -33.5 Q 428 -26 452 -22.5 Q 476 -19 500 -19 L 521 -19 Q 537 -19 564.5 -25.5 Q 592 -32 615 -40.5 Q 638 -49 659 -61 Q 680 -73 699 -88 Q 718 -103 734.5 -120.5 Q 751 -138 764.5 -158 Q 778 -178 788.5 -200 Q 799 -222 806.5 -245 Q 814 -268 817.5 -292 Q 821 -316 821 -340 L 1000 -340 L 1000 285 Z " id="path78"/>
<path d="M 179 -340 Q 179 -364 182.5 -388 Q 186 -412 193.5 -435 Q 201 -458 211.5 -480 Q 222 -502 235.5 -522 Q 249 -542 265.5 -559.5 Q 282 -577 301 -592 Q 320 -607 341 -619 Q 362 -631 385 -639.5 Q 408 -648 435.5 -654.5 Q 463 -661 479 -661 L 500 -661 L 500 -601 Q 480 -601 460.5 -598 Q 441 -595 422.5 -589 Q 404 -583 386 -574.5 Q 368 -566 352 -555 Q 336 -544 321.5 -530.5 Q 307 -517 295 -501.5 Q 283 -486 273 -469 Q 263 -452 256 -433.5 Q 249 -415 244 -392.5 Q 239 -370 239 -357 L 239 -340 Z " id="path79"/>
<path d="M 761 -340 Q 761 -360 758 -379.5 Q 755 -399 749 -417.5 Q 743 -436 734.5 -454 Q 726 -472 715 -488 Q 704 -504 690.5 -518.5 Q 677 -533 661.5 -545 Q 646 -557 629 -567 Q 612 -577 593.5 -584 Q 575 -591 552.5 -596 Q 530 -601 517 -601 L 500 -601 L 500 -661 Q 524 -661 548 -657.5 Q 572 -654 595 -646.5 Q 618 -639 640 -628.5 Q 662 -618 682 -604.5 Q 702 -591 719.5 -574.5 Q 737 -558 752 -539 Q 767 -520 779 -499 Q 791 -478 799.5 -455 Q 808 -432 814.5 -404.5 Q 821 -377 821 -361 L 821 -340 Z " id="path80"/>
<path d="M 500 -19 L 500 -79 Q 520 -79 539.5 -82 Q 559 -85 577.5 -91 Q 596 -97 614 -105.5 Q 632 -114 648 -125 Q 664 -136 678.5 -149.5 Q 693 -163 705 -178.5 Q 717 -194 727 -211 Q 737 -228 744 -246.5 Q 751 -265 756 -287.5 Q 761 -310 761 -323 L 761 -340 L 821 -340 Q 821 -316 817.5 -292 Q 814 -268 806.5 -245 Q 799 -222 788.5 -200 Q 778 -178 764.5 -158 Q 751 -138 734.5 -120.5 Q 718 -103 699 -88 Q 680 -73 659 -61 Q 638 -49 615 -40.5 Q 592 -32 564.5 -25.5 Q 537 -19 521 -19 Z " id="path81"/>
<path d="M 500 -19 Q 476 -19 452 -22.5 Q 428 -26 405 -33.5 Q 382 -41 360 -51.5 Q 338 -62 318 -75.5 Q 298 -89 280.5 -105.5 Q 263 -122 248 -141 Q 233 -160 221 -181 Q 209 -202 200.5 -225 Q 192 -248 185.5 -275.5 Q 179 -303 179 -319 L 179 -340 L 239 -340 Q 239 -320 242 -300.5 Q 245 -281 251 -262.5 Q 257 -244 265.5 -226 Q 274 -208 285 -192 Q 296 -176 309.5 -161.5 Q 323 -147 338.5 -135 Q 354 -123 371 -113 Q 388 -103 406.5 -96 Q 425 -89 447.5 -84 Q 470 -79 483 -79 L 500 -79 Z " id="path82"/>
<path d="M 179 -340 Q 179 -364 182.5 -388 Q 186 -412 193.5 -435 Q 201 -458 211.5 -480 Q 222 -502 235.5 -522 Q 249 -542 265.5 -559.5 Q 282 -577 301 -592 Q 320 -607 341 -619 Q 362 -631 385 -639.5 Q 408 -648 435.5 -654.5 Q 463 -661 479 -661 L 500 -661 Q 524 -661 548 -657.5 Q 572 -654 595 -646.5 Q 618 -639 640 -628.5 Q 662 -618 682 -604.5 Q 702 -591 719.5 -574.5 Q 737 -558 752 -539 Q 767 -520 779 -499 Q 791 -478 799.5 -455 Q 808 -432 814.5 -404.5 Q 821 -377 821 -361 L 821 -340 L 761 -340 Q 761 -360 758 -379.5 Q 755 -399 749 -417.5 Q 743 -436 734.5 -454 Q 726 -472 715 -488 Q 704 -504 690.5 -518.5 Q 677 -533 661.5 -545 Q 646 -557 629 -567 Q 612 -577 593.5 -584 Q 575 -591 552.5 -596 Q 530 -601 517 -601 L 500 -601 Q 480 -601 460.5 -598 Q 441 -595 422.5 -589 Q 404 -583 386 -574.5 Q 368 -566 352 -555 Q 336 -544 321.5 -530.5 Q 307 -517 295 -501.5 Q 283 -486 273 -469 Q 263 -452 256 -433.5 Q 249 -415 244 -392.5 Q 239 -370 239 -357 L 239 -340 Z " id="path83"/>
<path d="M 500 -19 Q 476 -19 452 -22.5 Q 428 -26 405 -33.5 Q 382 -41 360 -51.5 Q 338 -62 318 -75.5 Q 298 -89 280.5 -105.5 Q 263 -122 248 -141 Q 233 -160 221 -181 Q 209 -202 200.5 -225 Q 192 -248 185.5 -275.5 Q 179 -303 179 -319 L 179 -340 L 239 -340 Q 239 -320 242 -300.5 Q 245 -281 251 -262.5 Q 257 -244 265.5 -226 Q 274 -208 285 -192 Q 296 -176 309.5 -161.5 Q 323 -147 338.5 -135 Q 354 -123 371 -113 Q 388 -103 406.5 -96 Q 425 -89 447.5 -84 Q 470 -79 483 -79 L 500 -79 Q 520 -79 539.5 -82 Q 559 -85 577.5 -91 Q 596 -97 614 -105.5 Q 632 -114 648 -125 Q 664 -136 678.5 -149.5 Q 693 -163 705 -178.5 Q 717 -194 727 -211 Q 737 -228 744 -246.5 Q 751 -265 756 -287.5 Q 761 -310 761 -323 L 761 -340 L 821 -340 Q 821 -316 817.5 -292 Q 814 -268 806.5 -245 Q 799 -222 788.5 -200 Q 778 -178 764.5 -158 Q 751 -138 734.5 -120.5 Q 718 -103 699 -88 Q 680 -73 659 -61 Q 638 -49 615 -40.5 Q 592 -32 564.5 -25.5 Q 537 -19 521 -19 Z " id="path84"/>
<path d="M 821 -19 L 179 -19 L 821 -661 Z " id="path85"/>
<path d="M 821 -19 L 179 -19 L 179 -661 Z " id="path86"/>
<path d="M 179 -19 L 179 -661 L 821 -661 Z " id="path87"/>
<path d="M 821 -19 L 179 -661 L 821 -661 Z " id="path88"/>
<path d="M 250 -189 Q 220 -189 190 -198 Q 160 -207 138.5 -228.5 Q 117 -250 108 -280 Q 99 -310 99 -340 Q 99 -370 108 -400 Q 117 -430 138.5 -451.5 Q 160 -473 190 -482 Q 220 -491 250 -491 Q 280 -491 310 -482 Q 340 -473 361.5 -451.5 Q 383 -430 392 -400 Q 401 -370 401 -340 Q 401 -310 392 -280 Q 383 -250 361.5 -228.5 Q 340 -207 310 -198 Q 280 -189 250 -189 Z M 250 -238 Q 271 -238 291 -244 Q 311 -250 325.5 -264.5 Q 340 -279 346 -299 Q 352 -319 352 -340 Q 352 -361 346 -381 Q 340 -401 325.5 -415.5 Q 311 -430 291 -436 Q 271 -442 250 -442 Q 229 -442 209 -436 Q 189 -430 174.5 -415.5 Q 160 -401 154 -381 Q 148 -361 148 -340 Q 148 -319 154 -299 Q 160 -279 174.5 -264.5 Q 189 -250 209 -244 Q 229 -238 250 -238 Z " id="path89"/>
<path d="M 179 -19 L 179 -661 L 821 -661 L 821 -19 Z M 500 -79 L 761 -79 L 761 -601 L 500 -601 Z " id="path90"/>
<path d="M 179 -19 L 179 -661 L 821 -661 L 821 -19 Z M 239 -79 L 500 -79 L 500 -601 L 239 -601 Z " id="path91"/>
<path d="M 179 -19 L 179 -661 L 821 -661 L 821 -19 Z M 239 -79 L 761 -79 L 761 -601 Z " id="path92"/>
<path d="M 179 -19 L 179 -661 L 821 -661 L 821 -19 Z M 239 -79 L 761 -601 L 239 -601 Z " id="path93"/>
<path d="M 179 -19 L 179 -661 L 821 -661 L 821 -19 Z M 761 -79 L 761 -601 L 534 -601 L 534 -79 Z M 239 -79 L 466 -79 L 466 -601 L 239 -601 Z " id="path94"/>
<path d="M 110 -19 L 500 -661 L 890 -19 Z M 218 -79 L 782 -79 L 500 -544 Z M 500 -163 Q 486 -163 473 -168.5 Q 460 -174 450.5 -183.5 Q 441 -193 435.5 -206 Q 430 -219 430 -233 Q 430 -247 435.5 -260 Q 441 -273 450.5 -282.5 Q 460 -292 473 -297.5 Q 486 -303 500 -303 Q 514 -303 527 -297.5 Q 540 -292 549.5 -282.5 Q 559 -273 564.5 -260 Q 570 -247 570 -233 Q 570 -219 564.5 -206 Q 559 -193 549.5 -183.5 Q 540 -174 527 -168.5 Q 514 -163 500 -163 Z " id="path95"/>
<path d="M 110 -19 L 500 -661 L 890 -19 Z M 782 -79 L 500 -544 L 500 -79 Z " id="path96"/>
<path d="M 110 -19 L 500 -661 L 890 -19 Z M 218 -79 L 500 -79 L 500 -544 Z " id="path97"/>
<path d="M 500 62 Q 447 62 396 48 Q 345 34 299.5 8 Q 254 -18 216 -56 Q 178 -94 152 -139.5 Q 126 -185 112 -236 Q 98 -287 98 -340 Q 98 -393 112 -444 Q 126 -495 152 -540.5 Q 178 -586 216 -624 Q 254 -662 299.5 -688 Q 345 -714 396 -728 Q 447 -742 500 -742 Q 553 -742 604 -728 Q 655 -714 700.5 -688 Q 746 -662 784 -624 Q 822 -586 848 -540.5 Q 874 -495 888 -444 Q 902 -393 902 -340 Q 902 -287 888 -236 Q 874 -185 848 -139.5 Q 822 -94 784 -56 Q 746 -18 700.5 8 Q 655 34 604 48 Q 553 62 500 62 Z M 500 1 Q 545 1 588.5 -10.5 Q 632 -22 670.5 -44.5 Q 709 -67 741 -99 Q 773 -131 795.5 -169.5 Q 818 -208 829.5 -251.5 Q 841 -295 841 -340 Q 841 -385 829.5 -428.5 Q 818 -472 795.5 -510.5 Q 773 -549 741 -581 Q 709 -613 670.5 -635.5 Q 632 -658 588.5 -669.5 Q 545 -681 500 -681 Q 455 -681 411.5 -669.5 Q 368 -658 329.5 -635.5 Q 291 -613 259 -581 Q 227 -549 204.5 -510.5 Q 182 -472 170.5 -428.5 Q 159 -385 159 -340 Q 159 -295 170.5 -251.5 Q 182 -208 204.5 -169.5 Q 227 -131 259 -99 Q 291 -67 329.5 -44.5 Q 368 -22 411.5 -10.5 Q 455 1 500 1 Z " id="path98"/>
<path d="M 179 -19 L 179 -661 L 821 -661 L 821 -19 Z M 239 -370 L 466 -370 L 466 -601 L 239 -601 Z M 239 -79 L 761 -79 L 761 -601 L 534 -601 L 534 -310 L 239 -310 Z " id="path99"/>
<path d="M 179 -19 L 179 -661 L 821 -661 L 821 -19 Z M 534 -79 L 761 -79 L 761 -601 L 239 -601 L 239 -370 L 534 -370 Z M 239 -79 L 466 -79 L 466 -310 L 239 -310 Z " id="path100"/>
<path d="M 179 -19 L 179 -661 L 821 -661 L 821 -19 Z M 239 -79 L 466 -79 L 466 -370 L 761 -370 L 761 -601 L 239 -601 Z M 761 -79 L 761 -310 L 534 -310 L 534 -79 Z " id="path101"/>
<path d="M 179 -19 L 179 -661 L 821 -661 L 821 -19 Z M 239 -79 L 761 -79 L 761 -310 L 466 -310 L 466 -601 L 239 -601 Z M 761 -370 L 761 -601 L 534 -601 L 534 -370 Z " id="path102"/>
<path d="M 500 -19 Q 476 -19 452 -22.5 Q 428 -26 405 -33.5 Q 382 -41 360 -51.5 Q 338 -62 318 -75.5 Q 298 -89 280.5 -105.5 Q 263 -122 248 -141 Q 233 -160 221 -181 Q 209 -202 200.5 -225 Q 192 -248 185.5 -275.5 Q 179 -303 179 -319 L 179 -340 Q 179 -364 182.5 -388 Q 186 -412 193.5 -435 Q 201 -458 211.5 -480 Q 222 -502 235.5 -522 Q 249 -542 265.5 -559.5 Q 282 -577 301 -592 Q 320 -607 341 -619 Q 362 -631 385 -639.5 Q 408 -648 435.5 -654.5 Q 463 -661 479 -661 L 500 -661 Q 524 -661 548 -657.5 Q 572 -654 595 -646.5 Q 618 -639 640 -628.5 Q 662 -618 682 -604.5 Q 702 -591 719.5 -574.5 Q 737 -558 752 -539 Q 767 -520 779 -499 Q 791 -478 799.5 -455 Q 808 -432 814.5 -404.5 Q 821 -377 821 -361 L 821 -340 Q 821 -316 817.5 -292 Q 814 -268 806.5 -245 Q 799 -222 788.5 -200 Q 778 -178 764.5 -158 Q 751 -138 734.5 -120.5 Q 718 -103 699 -88 Q 680 -73 659 -61 Q 638 -49 615 -40.5 Q 592 -32 564.5 -25.5 Q 537 -19 521 -19 Z M 483 -79 L 500 -79 Q 520 -79 539.5 -82 Q 559 -85 577.5 -91 Q 596 -97 614 -105.5 Q 632 -114 648 -125 Q 664 -136 678.5 -149.5 Q 693 -163 705 -178.5 Q 717 -194 727 -211 Q 737 -228 744 -246.5 Q 751 -265 756 -287.5 Q 761 -310 761 -323 L 761 -340 Q 761 -356 759 -371.5 Q 757 -387 753.5 -402 Q 750 -417 744.5 -432 Q 739 -447 731.5 -461 Q 724 -475 715.5 -487.5 Q 707 -500 696.5 -512 Q 686 -524 674 -534.5 Q 662 -545 649.5 -554 Q 637 -563 623 -570.5 Q 609 -578 594.5 -583.5 Q 580 -589 563 -593.5 Q 546 -598 534 -599 L 534 -310 L 241 -310 Q 243 -292 247.5 -274 Q 252 -256 259 -239.5 Q 266 -223 275 -207.5 Q 284 -192 295.5 -177.5 Q 307 -163 320.5 -150.5 Q 334 -138 348.5 -127.5 Q 363 -117 379 -108.5 Q 395 -100 412 -94 Q 429 -88 450 -83.5 Q 471 -79 483 -79 Z M 466 -370 L 466 -599 Q 452 -597 438 -593.5 Q 424 -590 410.5 -585 Q 397 -580 384 -573.5 Q 371 -567 359 -559.5 Q 347 -552 335.5 -543 Q 324 -534 314 -523.5 Q 304 -513 295 -501.5 Q 286 -490 278.5 -478 Q 271 -466 265 -453 Q 259 -440 254 -426.5 Q 249 -413 245.5 -397.5 Q 242 -382 240 -370 Z " id="path103"/>
<path d="M 500 -19 Q 476 -19 452 -22.5 Q 428 -26 405 -33.5 Q 382 -41 360 -51.5 Q 338 -62 318 -75.5 Q 298 -89 280.5 -105.5 Q 263 -122 248 -141 Q 233 -160 221 -181 Q 209 -202 200.5 -225 Q 192 -248 185.5 -275.5 Q 179 -303 179 -319 L 179 -340 Q 179 -364 182.5 -388 Q 186 -412 193.5 -435 Q 201 -458 211.5 -480 Q 222 -502 235.5 -522 Q 249 -542 265.5 -559.5 Q 282 -577 301 -592 Q 320 -607 341 -619 Q 362 -631 385 -639.5 Q 408 -648 435.5 -654.5 Q 463 -661 479 -661 L 500 -661 Q 524 -661 548 -657.5 Q 572 -654 595 -646.5 Q 618 -639 640 -628.5 Q 662 -618 682 -604.5 Q 702 -591 719.5 -574.5 Q 737 -558 752 -539 Q 767 -520 779 -499 Q 791 -478 799.5 -455 Q 808 -432 814.5 -404.5 Q 821 -377 821 -361 L 821 -340 Q 821 -316 817.5 -292 Q 814 -268 806.5 -245 Q 799 -222 788.5 -200 Q 778 -178 764.5 -158 Q 751 -138 734.5 -120.5 Q 718 -103 699 -88 Q 680 -73 659 -61 Q 638 -49 615 -40.5 Q 592 -32 564.5 -25.5 Q 537 -19 521 -19 Z M 534 -81 Q 551 -84 568.5 -88.5 Q 586 -93 602.5 -100 Q 619 -107 634.5 -116.5 Q 650 -126 664 -137 Q 678 -148 690.5 -161.5 Q 703 -175 713 -189.5 Q 723 -204 731.5 -220 Q 740 -236 746 -253 Q 752 -270 756.5 -290.5 Q 761 -311 761 -323 L 761 -340 Q 761 -360 758 -379.5 Q 755 -399 749 -417.5 Q 743 -436 734.5 -454 Q 726 -472 715 -488 Q 704 -504 690.5 -518.5 Q 677 -533 661.5 -545 Q 646 -557 629 -567 Q 612 -577 593.5 -584 Q 575 -591 552.5 -596 Q 530 -601 517 -601 L 500 -601 Q 484 -601 468.5 -599 Q 453 -597 437.5 -593 Q 422 -589 407 -583.5 Q 392 -578 378 -571 Q 364 -564 351 -555 Q 338 -546 326.5 -535 Q 315 -524 304.5 -512 Q 294 -500 285 -487.5 Q 276 -475 268.5 -461 Q 261 -447 255.5 -432 Q 250 -417 246 -400 Q 242 -383 240 -370 L 534 -370 Z M 466 -81 L 466 -310 L 241 -310 Q 242 -295 245.5 -281 Q 249 -267 254 -253.5 Q 259 -240 265 -227 Q 271 -214 278.5 -202 Q 286 -190 295 -178.5 Q 304 -167 314.5 -156.5 Q 325 -146 336 -137 Q 347 -128 359 -120.5 Q 371 -113 384 -106.5 Q 397 -100 410.5 -95 Q 424 -90 439.5 -86 Q 455 -82 466 -81 Z " id="path104"/>
<path d="M 500 -19 Q 476 -19 452 -22.5 Q 428 -26 405 -33.5 Q 382 -41 360 -51.5 Q 338 -62 318 -75.5 Q 298 -89 280.5 -105.5 Q 263 -122 248 -141 Q 233 -160 221 -181 Q 209 -202 200.5 -225 Q 192 -248 185.5 -275.5 Q 179 -303 179 -319 L 179 -340 Q 179 -364 182.5 -388 Q 186 -412 193.5 -435 Q 201 -458 211.5 -480 Q 222 -502 235.5 -522 Q 249 -542 265.5 -559.5 Q 282 -577 301 -592 Q 320 -607 341 -619 Q 362 -631 385 -639.5 Q 408 -648 435.5 -654.5 Q 463 -661 479 -661 L 500 -661 Q 524 -661 548 -657.5 Q 572 -654 595 -646.5 Q 618 -639 640 -628.5 Q 662 -618 682 -604.5 Q 702 -591 719.5 -574.5 Q 737 -558 752 -539 Q 767 -520 779 -499 Q 791 -478 799.5 -455 Q 808 -432 814.5 -404.5 Q 821 -377 821 -361 L 821 -340 Q 821 -316 817.5 -292 Q 814 -268 806.5 -245 Q 799 -222 788.5 -200 Q 778 -178 764.5 -158 Q 751 -138 734.5 -120.5 Q 718 -103 699 -88 Q 680 -73 659 -61 Q 638 -49 615 -40.5 Q 592 -32 564.5 -25.5 Q 537 -19 521 -19 Z M 466 -81 L 466 -370 L 759 -370 Q 757 -388 752.5 -406 Q 748 -424 741 -440.5 Q 734 -457 725 -472.5 Q 716 -488 704.5 -502.5 Q 693 -517 679.5 -529.5 Q 666 -542 651.5 -552.5 Q 637 -563 621 -571.5 Q 605 -580 588 -586 Q 571 -592 550 -596.5 Q 529 -601 517 -601 L 500 -601 Q 480 -601 460.5 -598 Q 441 -595 422.5 -589 Q 404 -583 386 -574.5 Q 368 -566 352 -555 Q 336 -544 321.5 -530.5 Q 307 -517 295 -501.5 Q 283 -486 273 -469 Q 263 -452 256 -433.5 Q 249 -415 244 -392.5 Q 239 -370 239 -357 L 239 -340 Q 239 -324 241 -308.5 Q 243 -293 246.5 -278 Q 250 -263 255.5 -248 Q 261 -233 268.5 -219 Q 276 -205 284.5 -192.5 Q 293 -180 303.5 -168 Q 314 -156 326 -145.5 Q 338 -135 350.5 -126 Q 363 -117 377 -109.5 Q 391 -102 405.5 -96.5 Q 420 -91 437 -86.5 Q 454 -82 466 -81 Z M 534 -81 Q 548 -83 562 -86.5 Q 576 -90 589.5 -95 Q 603 -100 616 -106.5 Q 629 -113 641 -120.5 Q 653 -128 664.5 -137 Q 676 -146 686 -156.5 Q 696 -167 705 -178.5 Q 714 -190 721.5 -202 Q 729 -214 735 -227 Q 741 -240 746 -253.5 Q 751 -267 754.5 -282.5 Q 758 -298 760 -310 L 534 -310 Z " id="path105"/>
<path d="M 500 -19 Q 476 -19 452 -22.5 Q 428 -26 405 -33.5 Q 382 -41 360 -51.5 Q 338 -62 318 -75.5 Q 298 -89 280.5 -105.5 Q 263 -122 248 -141 Q 233 -160 221 -181 Q 209 -202 200.5 -225 Q 192 -248 185.5 -275.5 Q 179 -303 179 -319 L 179 -340 Q 179 -364 182.5 -388 Q 186 -412 193.5 -435 Q 201 -458 211.5 -480 Q 222 -502 235.5 -522 Q 249 -542 265.5 -559.5 Q 282 -577 301 -592 Q 320 -607 341 -619 Q 362 -631 385 -639.5 Q 408 -648 435.5 -654.5 Q 463 -661 479 -661 L 500 -661 Q 524 -661 548 -657.5 Q 572 -654 595 -646.5 Q 618 -639 640 -628.5 Q 662 -618 682 -604.5 Q 702 -591 719.5 -574.5 Q 737 -558 752 -539 Q 767 -520 779 -499 Q 791 -478 799.5 -455 Q 808 -432 814.5 -404.5 Q 821 -377 821 -361 L 821 -340 Q 821 -316 817.5 -292 Q 814 -268 806.5 -245 Q 799 -222 788.5 -200 Q 778 -178 764.5 -158 Q 751 -138 734.5 -120.5 Q 718 -103 699 -88 Q 680 -73 659 -61 Q 638 -49 615 -40.5 Q 592 -32 564.5 -25.5 Q 537 -19 521 -19 Z M 759 -370 Q 757 -385 754 -399 Q 751 -413 746 -426.5 Q 741 -440 735 -453 Q 729 -466 721.5 -478 Q 714 -490 705 -501.5 Q 696 -513 685.5 -523.5 Q 675 -534 664 -543 Q 653 -552 641 -559.5 Q 629 -567 616 -573.5 Q 603 -580 589.5 -585 Q 576 -590 560.5 -594 Q 545 -598 534 -599 L 534 -370 Z M 483 -79 L 500 -79 Q 516 -79 531.5 -81 Q 547 -83 562.5 -87 Q 578 -91 593 -96.5 Q 608 -102 622 -109 Q 636 -116 649 -125 Q 662 -134 673.5 -145 Q 685 -156 695.5 -168 Q 706 -180 715 -192.5 Q 724 -205 731.5 -219 Q 739 -233 744.5 -248 Q 750 -263 754 -280 Q 758 -297 760 -310 L 466 -310 L 466 -599 Q 449 -596 431.5 -591.5 Q 414 -587 397.5 -580 Q 381 -573 365.5 -563.5 Q 350 -554 336 -543 Q 322 -532 309.5 -518.5 Q 297 -505 287 -490.5 Q 277 -476 268.5 -460 Q 260 -444 254 -427 Q 248 -410 243.5 -389.5 Q 239 -369 239 -357 L 239 -340 Q 239 -320 242 -300.5 Q 245 -281 251 -262.5 Q 257 -244 265.5 -226 Q 274 -208 285 -192 Q 296 -176 309.5 -161.5 Q 323 -147 338.5 -135 Q 354 -123 371 -113 Q 388 -103 406.5 -96 Q 425 -89 447.5 -84 Q 470 -79 483 -79 Z " id="path106"/>
<path d="M 179 -19 L 179 -661 L 821 -661 Z M 239 -165 L 675 -601 L 239 -601 Z " id="path107"/>
<path d="M 821 -19 L 179 -661 L 821 -661 Z M 761 -165 L 761 -601 L 325 -601 Z " id="path108"/>
<path d="M 179 -19 L 179 -661 L 821 -19 Z M 675 -79 L 239 -515 L 239 -79 Z " id="path109"/>
<path d="M 248 -88 L 248 -592 L 752 -592 L 752 -88 Z M 692 -148 L 692 -532 L 308 -532 L 308 -148 Z " id="path110"/>
<path d="M 248 -88 L 248 -592 L 752 -592 L 752 -88 Z " id="path111"/>
<path d="M 282 -122 L 282 -558 L 718 -558 L 718 -122 Z M 343 -183 L 657 -183 L 657 -497 L 343 -497 Z " id="path112"/>
<path d="M 282 -122 L 282 -558 L 718 -558 L 718 -122 Z " id="path113"/>
<path d="M 179 -19 L 821 -661 L 821 -19 Z M 325 -79 L 761 -79 L 761 -515 Z " id="path114"/>
</defs>
<g>
<g data-source-text="0" fill="#dee4e3" transform="translate(174 41.292) rotate(0) scale(0.023999998)">
<use href="#path1" transform="translate(0 0)"/>
</g>
</g>
<g>
<g data-source-text="1" fill="#dee4e3" transform="translate(246 41.292) rotate(0) scale(0.023999998)">
<use href="#path2" transform="translate(0 0)"/>
</g>
</g>
<g>
<g data-source-text="2" fill="#dee4e3" transform="translate(318 41.292) rotate(0) scale(0.023999998)">
<use href="#path3" transform="translate(0 0)"/>
</g>
</g>
<g>
<g data-source-text="3" fill="#dee4e3" transform="translate(390 41.292) rotate(0) scale(0.023999998)">
<use href="#path4" transform="translate(0 0)"/>
</g>
</g>
<g>
<g data-source-text="4" fill="#dee4e3" transform="translate(462 41.292) rotate(0) scale(0.023999998)">
<use href="#path5" transform="translate(0 0)"/>
</g>
</g>
<g>
<g data-source-text="5" fill="#dee4e3" transform="translate(534 41.292) rotate(0) scale(0.023999998)">
<use href="#path6" transform="translate(0 0)"/>
</g>
</g>
<g>
<g data-source-text="6" fill="#dee4e3" transform="translate(606 41.292) rotate(0) scale(0.023999998)">
<use href="#path7" transform="translate(0 0)"/>
</g>
</g>
<g>
<g data-source-text="7" fill="#dee4e3" transform="translate(678 41.292) rotate(0) scale(0.023999998)">
<use href="#path8" transform="translate(0 0)"/>
</g>
</g>
<g>
<g data-source-text="8" fill="#dee4e3" transform="translate(750 41.292) rotate(0) scale(0.023999998)">
<use href="#path9" transform="translate(0 0)"/>
</g>
</g>
<g>
<g data-source-text="9" fill="#dee4e3" transform="translate(822 41.292) rotate(0) scale(0.023999998)">
<use href="#path10" transform="translate(0 0)"/>
</g>
</g>
<g>
<g data-source-text="A" fill="#dee4e3" transform="translate(894 41.292) rotate(0) scale(0.023999998)">
<use href="#path11" transform="translate(0 0)"/>
</g>
</g>
<g>
<g data-source-text="B" fill="#dee4e3" transform="translate(966 41.292) rotate(0) scale(0.023999998)">
<use href="#path12" transform="translate(0 0)"/>
</g>
</g>
<g>
<g data-source-text="C" fill="#dee4e3" transform="translate(1038 41.292) rotate(0) scale(0.023999998)">
<use href="#path13" transform="translate(0 0)"/>
</g>
</g>
<g>
<g data-source-text="D" fill="#dee4e3" transform="translate(1110 41.292) rotate(0) scale(0.023999998)">
<use href="#path14" transform="translate(0 0)"/>
</g>
</g>
<g>
<g data-source-text="E" fill="#dee4e3" transform="translate(1182 41.292) rotate(0) scale(0.023999998)">
<use href="#path15" transform="translate(0 0)"/>
</g>
</g>
<g>
<g data-source-text="F" fill="#dee4e3" transform="translate(1254 41.292) rotate(0) scale(0.023999998)">
<use href="#path16" transform="translate(0 0)"/>
</g>
</g>
<g>
<g data-source-text="U+25A0" fill="#dee4e3" transform="translate(36 113.292) rotate(0) scale(0.023999998)">
<use href="#path17" transform="translate(0 0)"/>
<use href="#path18" transform="translate(500 0)"/>
<use href="#path3" transform="translate(1000 0)"/>
<use href="#path6" transform="translate(1500 0)"/>
<use href="#path11" transform="translate(2000 0)"/>
<use href="#path1" transform="translate(2500 0)"/>
</g>
</g>
<g>
<g data-source-text="" fill="#dee4e3" transform="translate(156 118.584) rotate(0) scale(0.047999997)">
<use href="#path19" transform="translate(0 0)"/>
</g>
</g>
<g>
<g data-source-text="" fill="#dee4e3" transform="translate(228 118.584) rotate(0) scale(0.047999997)">
<use href="#path20" transform="translate(0 0)"/>
</g>
</g>
<g>
<g data-source-text="" fill="#dee4e3" transform="translate(300 118.584) rotate(0) scale(0.047999997)">
<use href="#path21" transform="translate(0 0)"/>
</g>
</g>
<g>
<g data-source-text="" fill="#dee4e3" transform="translate(372 118.584) rotate(0) scale(0.047999997)">
<use href="#path22" transform="translate(0 0)"/>
</g>
</g>
<g>
<g data-source-text="" fill="#dee4e3" transform="translate(444 118.584) rotate(0) scale(0.047999997)">
<use href="#path23" transform="translate(0 0)"/>
</g>
</g>
<g>
<g data-source-text="" fill="#dee4e3" transform="translate(516 118.584) rotate(0) scale(0.047999997)">
<use href="#path24" transform="translate(0 0)"/>
</g>
</g>
<g>
<g data-source-text="" fill="#dee4e3" transform="translate(588 118.584) rotate(0) scale(0.047999997)">
<use href="#path25" transform="translate(0 0)"/>
</g>
</g>
<g>
<g data-source-text="" fill="#dee4e3" transform="translate(660 118.584) rotate(0) scale(0.047999997)">
<use href="#path26" transform="translate(0 0)"/>
</g>
</g>
<g>
<g data-source-text="" fill="#dee4e3" transform="translate(732 118.584) rotate(0) scale(0.047999997)">
<use href="#path27" transform="translate(0 0)"/>
</g>
</g>
<g>
<g data-source-text="" fill="#dee4e3" transform="translate(804 118.584) rotate(0) scale(0.047999997)">
<use href="#path28" transform="translate(0 0)"/>
</g>
</g>
<g>
<g data-source-text="" fill="#dee4e3" transform="translate(876 118.584) rotate(0) scale(0.047999997)">
<use href="#path29" transform="translate(0 0)"/>
</g>
</g>
<g>
<g data-source-text="" fill="#dee4e3" transform="translate(948 118.584) rotate(0) scale(0.047999997)">
<use href="#path30" transform="translate(0 0)"/>
</g>
</g>
<g>
<g data-source-text="" fill="#dee4e3" transform="translate(1020 118.584) rotate(0) scale(0.047999997)">
<use href="#path31" transform="translate(0 0)"/>
</g>
</g>
<g>
<g data-source-text="" fill="#dee4e3" transform="translate(1092 118.584) rotate(0) scale(0.047999997)">
<use href="#path32" transform="translate(0 0)"/>
</g>
</g>
<g>
<g data-source-text="" fill="#dee4e3" transform="translate(1164 118.584) rotate(0) scale(0.047999997)">
<use href="#path33" transform="translate(0 0)"/>
</g>
</g>
<g>
<g data-source-text="" fill="#dee4e3" transform="translate(1236 118.584) rotate(0) scale(0.047999997)">
<use href="#path34" transform="translate(0 0)"/>
</g>
</g>
<g>
<g data-source-text="U+25B0" fill="#dee4e3" transform="translate(36 185.292) rotate(0) scale(0.023999998)">
<use href="#path17" transform="translate(0 0)"/>
<use href="#path18" transform="translate(500 0)"/>
<use href="#path3" transform="translate(1000 0)"/>
<use href="#path6" transform="translate(1500 0)"/>
<use href="#path12" transform="translate(2000 0)"/>
<use href="#path1" transform="translate(2500 0)"/>
</g>
</g>
<g>
<g data-source-text="" fill="#dee4e3" transform="translate(156 190.584) rotate(0) scale(0.047999997)">
<use href="#path35" transform="translate(0 0)"/>
</g>
</g>
<g>
<g data-source-text="" fill="#dee4e3" transform="translate(228 190.584) rotate(0) scale(0.047999997)">
<use href="#path36" transform="translate(0 0)"/>
</g>
</g>
<g>
<g data-source-text="" fill="#dee4e3" transform="translate(300 190.584) rotate(0) scale(0.047999997)">
<use href="#path37" transform="translate(0 0)"/>
</g>
</g>
<g>
<g data-source-text="" fill="#dee4e3" transform="translate(372 190.584) rotate(0) scale(0.047999997)">
<use href="#path38" transform="translate(0 0)"/>
</g>
</g>
<g>
<g data-source-text="" fill="#dee4e3" transform="translate(444 190.584) rotate(0) scale(0.047999997)">
<use href="#path39" transform="translate(0 0)"/>
</g>
</g>
<g>
<g data-source-text="" fill="#dee4e3" transform="translate(516 190.584) rotate(0) scale(0.047999997)">
<use href="#path40" transform="translate(0 0)"/>
</g>
</g>
<g>
<g data-source-text="" fill="#dee4e3" transform="translate(588 190.584) rotate(0) scale(0.047999997)">
<use href="#path41" transform="translate(0 0)"/>
</g>
</g>
<g>
<g data-source-text="" fill="#dee4e3" transform="translate(660 190.584) rotate(0) scale(0.047999997)">
<use href="#path42" transform="translate(0 0)"/>
</g>
</g>
<g>
<g data-source-text="" fill="#dee4e3" transform="translate(732 190.584) rotate(0) scale(0.047999997)">
<use href="#path43" transform="translate(0 0)"/>
</g>
</g>
<g>
<g data-source-text="" fill="#dee4e3" transform="translate(804 190.584) rotate(0) scale(0.047999997)">
<use href="#path44" transform="translate(0 0)"/>
</g>
</g>
<g>
<g data-source-text="" fill="#dee4e3" transform="translate(876 190.584) rotate(0) scale(0.047999997)">
<use href="#path45" transform="translate(0 0)"/>
</g>
</g>
<g>
<g data-source-text="" fill="#dee4e3" transform="translate(948 190.584) rotate(0) scale(0.047999997)">
<use href="#path46" transform="translate(0 0)"/>
</g>
</g>
<g>
<g data-source-text="" fill="#dee4e3" transform="translate(1020 190.584) rotate(0) scale(0.047999997)">
<use href="#path47" transform="translate(0 0)"/>
</g>
</g>
<g>
<g data-source-text="" fill="#dee4e3" transform="translate(1092 190.584) rotate(0) scale(0.047999997)">
<use href="#path48" transform="translate(0 0)"/>
</g>
</g>
<g>
<g data-source-text="" fill="#dee4e3" transform="translate(1164 190.584) rotate(0) scale(0.047999997)">
<use href="#path49" transform="translate(0 0)"/>
</g>
</g>
<g>
<g data-source-text="" fill="#dee4e3" transform="translate(1236 190.584) rotate(0) scale(0.047999997)">
<use href="#path50" transform="translate(0 0)"/>
</g>
</g>
<g>
<g data-source-text="U+25C0" fill="#dee4e3" transform="translate(36 257.292) rotate(0) scale(0.023999998)">
<use href="#path17" transform="translate(0 0)"/>
<use href="#path18" transform="translate(500 0)"/>
<use href="#path3" transform="translate(1000 0)"/>
<use href="#path6" transform="translate(1500 0)"/>
<use href="#path13" transform="translate(2000 0)"/>
<use href="#path1" transform="translate(2500 0)"/>
</g>
</g>
<g>
<g data-source-text="" fill="#dee4e3" transform="translate(156 262.584) rotate(0) scale(0.047999997)">
<use href="#path51" transform="translate(0 0)"/>
</g>
</g>
<g>
<g data-source-text="" fill="#dee4e3" transform="translate(228 262.584) rotate(0) scale(0.047999997)">
<use href="#path52" transform="translate(0 0)"/>
</g>
</g>
<g>
<g data-source-text="" fill="#dee4e3" transform="translate(300 262.584) rotate(0) scale(0.047999997)">
<use href="#path53" transform="translate(0 0)"/>
</g>
</g>
<g>
<g data-source-text="" fill="#dee4e3" transform="translate(372 262.584) rotate(0) scale(0.047999997)">
<use href="#path54" transform="translate(0 0)"/>
</g>
</g>
<g>
<g data-source-text="" fill="#dee4e3" transform="translate(444 262.584) rotate(0) scale(0.047999997)">
<use href="#path55" transform="translate(0 0)"/>
</g>
</g>
<g>
<g data-source-text="" fill="#dee4e3" transform="translate(516 262.584) rotate(0) scale(0.047999997)">
<use href="#path56" transform="translate(0 0)"/>
</g>
</g>
<g>
<g data-source-text="" fill="#dee4e3" transform="translate(588 262.584) rotate(0) scale(0.047999997)">
<use href="#path57" transform="translate(0 0)"/>
</g>
</g>
<g>
<g data-source-text="" fill="#dee4e3" transform="translate(660 262.584) rotate(0) scale(0.047999997)">
<use href="#path58" transform="translate(0 0)"/>
</g>
</g>
<g>
<g data-source-text="" fill="#dee4e3" transform="translate(732 262.584) rotate(0) scale(0.047999997)">
<use href="#path59" transform="translate(0 0)"/>
</g>
</g>
<g>
<g data-source-text="" fill="#dee4e3" transform="translate(804 262.584) rotate(0) scale(0.047999997)">
<use href="#path60" transform="translate(0 0)"/>
</g>
</g>
<g>
<g data-source-text="" fill="#dee4e3" transform="translate(876 262.584) rotate(0) scale(0.047999997)">
<use href="#path61" transform="translate(0 0)"/>
</g>
</g>
<g>
<g data-source-text="" fill="#dee4e3" transform="translate(948 262.584) rotate(0) scale(0.047999997)">
<use href="#path62" transform="translate(0 0)"/>
</g>
</g>
<g>
<g data-source-text="" fill="#dee4e3" transform="translate(1032 262.584) rotate(0) scale(0.047999997)">
<use href="#path63" transform="translate(0 0)"/>
</g>
</g>
<g>
<g data-source-text="" fill="#dee4e3" transform="translate(1092 262.584) rotate(0) scale(0.047999997)">
<use href="#path64" transform="translate(0 0)"/>
</g>
</g>
<g>
<g data-source-text="" fill="#dee4e3" transform="translate(1164 262.584) rotate(0) scale(0.047999997)">
<use href="#path65" transform="translate(0 0)"/>
</g>
</g>
<g>
<g data-source-text="" fill="#dee4e3" transform="translate(1236 262.584) rotate(0) scale(0.047999997)">
<use href="#path66" transform="translate(0 0)"/>
</g>
</g>
<g>
<g data-source-text="U+25D0" fill="#dee4e3" transform="translate(36 329.292) rotate(0) scale(0.023999998)">
<use href="#path17" transform="translate(0 0)"/>
<use href="#path18" transform="translate(500 0)"/>
<use href="#path3" transform="translate(1000 0)"/>
<use href="#path6" transform="translate(1500 0)"/>
<use href="#path14" transform="translate(2000 0)"/>
<use href="#path1" transform="translate(2500 0)"/>
</g>
</g>
<g>
<g data-source-text="" fill="#dee4e3" transform="translate(156 334.584) rotate(0) scale(0.047999997)">
<use href="#path67" transform="translate(0 0)"/>
</g>
</g>
<g>
<g data-source-text="" fill="#dee4e3" transform="translate(228 334.584) rotate(0) scale(0.047999997)">
<use href="#path68" transform="translate(0 0)"/>
</g>
</g>
<g>
<g data-source-text="" fill="#dee4e3" transform="translate(300 334.584) rotate(0) scale(0.047999997)">
<use href="#path69" transform="translate(0 0)"/>
</g>
</g>
<g>
<g data-source-text="" fill="#dee4e3" transform="translate(372 334.584) rotate(0) scale(0.047999997)">
<use href="#path70" transform="translate(0 0)"/>
</g>
</g>
<g>
<g data-source-text="" fill="#dee4e3" transform="translate(444 334.584) rotate(0) scale(0.047999997)">
<use href="#path71" transform="translate(0 0)"/>
</g>
</g>
<g>
<g data-source-text="" fill="#dee4e3" transform="translate(516 334.584) rotate(0) scale(0.047999997)">
<use href="#path72" transform="translate(0 0)"/>
</g>
</g>
<g>
<g data-source-text="" fill="#dee4e3" transform="translate(588 334.584) rotate(0) scale(0.047999997)">
<use href="#path73" transform="translate(0 0)"/>
</g>
</g>
<g>
<g data-source-text="" fill="#dee4e3" transform="translate(660 334.584) rotate(0) scale(0.047999997)">
<use href="#path74" transform="translate(0 0)"/>
</g>
</g>
<g>
<g data-source-text="" fill="#dee4e3" transform="translate(732 334.584) rotate(0) scale(0.047999997)">
<use href="#path75" transform="translate(0 0)"/>
</g>
</g>
<g>
<g data-source-text="" fill="#dee4e3" transform="translate(804 334.584) rotate(0) scale(0.047999997)">
<use href="#path76" transform="translate(0 0)"/>
</g>
</g>
<g>
<g data-source-text="" fill="#dee4e3" transform="translate(876 334.584) rotate(0) scale(0.047999997)">
<use href="#path77" transform="translate(0 0)"/>
</g>
</g>
<g>
<g data-source-text="" fill="#dee4e3" transform="translate(948 334.584) rotate(0) scale(0.047999997)">
<use href="#path78" transform="translate(0 0)"/>
</g>
</g>
<g>
<g data-source-text="" fill="#dee4e3" transform="translate(1020 334.584) rotate(0) scale(0.047999997)">
<use href="#path79" transform="translate(0 0)"/>
</g>
</g>
<g>
<g data-source-text="" fill="#dee4e3" transform="translate(1092 334.584) rotate(0) scale(0.047999997)">
<use href="#path80" transform="translate(0 0)"/>
</g>
</g>
<g>
<g data-source-text="" fill="#dee4e3" transform="translate(1164 334.584) rotate(0) scale(0.047999997)">
<use href="#path81" transform="translate(0 0)"/>
</g>
</g>
<g>
<g data-source-text="" fill="#dee4e3" transform="translate(1236 334.584) rotate(0) scale(0.047999997)">
<use href="#path82" transform="translate(0 0)"/>
</g>
</g>
<g>
<g data-source-text="U+25E0" fill="#dee4e3" transform="translate(36 401.292) rotate(0) scale(0.023999998)">
<use href="#path17" transform="translate(0 0)"/>
<use href="#path18" transform="translate(500 0)"/>
<use href="#path3" transform="translate(1000 0)"/>
<use href="#path6" transform="translate(1500 0)"/>
<use href="#path15" transform="translate(2000 0)"/>
<use href="#path1" transform="translate(2500 0)"/>
</g>
</g>
<g>
<g data-source-text="" fill="#dee4e3" transform="translate(156 406.584) rotate(0) scale(0.047999997)">
<use href="#path83" transform="translate(0 0)"/>
</g>
</g>
<g>
<g data-source-text="" fill="#dee4e3" transform="translate(228 406.584) rotate(0) scale(0.047999997)">
<use href="#path84" transform="translate(0 0)"/>
</g>
</g>
<g>
<g data-source-text="" fill="#dee4e3" transform="translate(300 406.584) rotate(0) scale(0.047999997)">
<use href="#path85" transform="translate(0 0)"/>
</g>
</g>
<g>
<g data-source-text="" fill="#dee4e3" transform="translate(372 406.584) rotate(0) scale(0.047999997)">
<use href="#path86" transform="translate(0 0)"/>
</g>
</g>
<g>
<g data-source-text="" fill="#dee4e3" transform="translate(444 406.584) rotate(0) scale(0.047999997)">
<use href="#path87" transform="translate(0 0)"/>
</g>
</g>
<g>
<g data-source-text="" fill="#dee4e3" transform="translate(516 406.584) rotate(0) scale(0.047999997)">
<use href="#path88" transform="translate(0 0)"/>
</g>
</g>
<g>
<g data-source-text="" fill="#dee4e3" transform="translate(600 406.584) rotate(0) scale(0.047999997)">
<use href="#path89" transform="translate(0 0)"/>
</g>
</g>
<g>
<g data-source-text="" fill="#dee4e3" transform="translate(660 406.584) rotate(0) scale(0.047999997)">
<use href="#path90" transform="translate(0 0)"/>
</g>
</g>
<g>
<g data-source-text="" fill="#dee4e3" transform="translate(732 406.584) rotate(0) scale(0.047999997)">
<use href="#path91" transform="translate(0 0)"/>
</g>
</g>
<g>
<g data-source-text="" fill="#dee4e3" transform="translate(804 406.584) rotate(0) scale(0.047999997)">
<use href="#path92" transform="translate(0 0)"/>
</g>
</g>
<g>
<g data-source-text="" fill="#dee4e3" transform="translate(876 406.584) rotate(0) scale(0.047999997)">
<use href="#path93" transform="translate(0 0)"/>
</g>
</g>
<g>
<g data-source-text="" fill="#dee4e3" transform="translate(948 406.584) rotate(0) scale(0.047999997)">
<use href="#path94" transform="translate(0 0)"/>
</g>
</g>
<g>
<g data-source-text="" fill="#dee4e3" transform="translate(1020 406.584) rotate(0) scale(0.047999997)">
<use href="#path95" transform="translate(0 0)"/>
</g>
</g>
<g>
<g data-source-text="" fill="#dee4e3" transform="translate(1092 406.584) rotate(0) scale(0.047999997)">
<use href="#path96" transform="translate(0 0)"/>
</g>
</g>
<g>
<g data-source-text="" fill="#dee4e3" transform="translate(1164 406.584) rotate(0) scale(0.047999997)">
<use href="#path97" transform="translate(0 0)"/>
</g>
</g>
<g>
<g data-source-text="" fill="#dee4e3" transform="translate(1236 406.584) rotate(0) scale(0.047999997)">
<use href="#path98" transform="translate(0 0)"/>
</g>
</g>
<g>
<g data-source-text="U+25F0" fill="#dee4e3" transform="translate(36 473.292) rotate(0) scale(0.023999998)">
<use href="#path17" transform="translate(0 0)"/>
<use href="#path18" transform="translate(500 0)"/>
<use href="#path3" transform="translate(1000 0)"/>
<use href="#path6" transform="translate(1500 0)"/>
<use href="#path16" transform="translate(2000 0)"/>
<use href="#path1" transform="translate(2500 0)"/>
</g>
</g>
<g>
<g data-source-text="" fill="#dee4e3" transform="translate(156 478.584) rotate(0) scale(0.047999997)">
<use href="#path99" transform="translate(0 0)"/>
</g>
</g>
<g>
<g data-source-text="" fill="#dee4e3" transform="translate(228 478.584) rotate(0) scale(0.047999997)">
<use href="#path100" transform="translate(0 0)"/>
</g>
</g>
<g>
<g data-source-text="" fill="#dee4e3" transform="translate(300 478.584) rotate(0) scale(0.047999997)">
<use href="#path101" transform="translate(0 0)"/>
</g>
</g>
<g>
<g data-source-text="" fill="#dee4e3" transform="translate(372 478.584) rotate(0) scale(0.047999997)">
<use href="#path102" transform="translate(0 0)"/>
</g>
</g>
<g>
<g data-source-text="" fill="#dee4e3" transform="translate(444 478.584) rotate(0) scale(0.047999997)">
<use href="#path103" transform="translate(0 0)"/>
</g>
</g>
<g>
<g data-source-text="" fill="#dee4e3" transform="translate(516 478.584) rotate(0) scale(0.047999997)">
<use href="#path104" transform="translate(0 0)"/>
</g>
</g>
<g>
<g data-source-text="" fill="#dee4e3" transform="translate(588 478.584) rotate(0) scale(0.047999997)">
<use href="#path105" transform="translate(0 0)"/>
</g>
</g>
<g>
<g data-source-text="" fill="#dee4e3" transform="translate(660 478.584) rotate(0) scale(0.047999997)">
<use href="#path106" transform="translate(0 0)"/>
</g>
</g>
<g>
<g data-source-text="" fill="#dee4e3" transform="translate(732 478.584) rotate(0) scale(0.047999997)">
<use href="#path107" transform="translate(0 0)"/>
</g>
</g>
<g>
<g data-source-text="" fill="#dee4e3" transform="translate(804 478.584) rotate(0) scale(0.047999997)">
<use href="#path108" transform="translate(0 0)"/>
</g>
</g>
<g>
<g data-source-text="" fill="#dee4e3" transform="translate(876 478.584) rotate(0) scale(0.047999997)">
<use href="#path109" transform="translate(0 0)"/>
</g>
</g>
<g>
<g data-source-text="" fill="#dee4e3" transform="translate(948 478.584) rotate(0) scale(0.047999997)">
<use href="#path110" transform="translate(0 0)"/>
</g>
</g>
<g>
<g data-source-text="" fill="#dee4e3" transform="translate(1020 478.584) rotate(0) scale(0.047999997)">
<use href="#path111" transform="translate(0 0)"/>
</g>
</g>
<g>
<g data-source-text="" fill="#dee4e3" transform="translate(1092 478.584) rotate(0) scale(0.047999997)">
<use href="#path112" transform="translate(0 0)"/>
</g>
</g>
<g>
<g data-source-text="" fill="#dee4e3" transform="translate(1164 478.584) rotate(0) scale(0.047999997)">
<use href="#path113" transform="translate(0 0)"/>
</g>
</g>
<g>
<g data-source-text="" fill="#dee4e3" transform="translate(1236 478.584) rotate(0) scale(0.047999997)">
<use href="#path114" transform="translate(0 0)"/>
</g>
</g>
</svg>