<?xml version="1.0" encoding="UTF-8" standalone="no"?>
<svg height="648" viewBox="0 0 1296 648" width="1296" xmlns="http://www.w3.org/2000/svg">
<defs>
<path d="M 250 8 Q 223 8 196 3 Q 169 -2 145 -15 Q 121 -28 102.5 -48.5 Q 84 -69 72.5 -94 Q 61 -119 56.5 -146 Q 52 -173 52 -200 L 52 -535 Q 52 -562 56.5 -589 Q 61 -616 72.5 -641 Q 84 -666 102.5 -686.5 Q 121 -707 145 -720 Q 169 -733 196 -738 Q 223 -743 250 -743 Q 277 -743 304 -738 Q 331 -733 355 -720 Q 379 -707 397.5 -686.5 Q 416 -666 427.5 -641 Q 439 -616 443.5 -589 Q 448 -562 448 -535 L 448 -200 Q 448 -173 443.5 -146 Q 439 -119 427.5 -94 Q 416 -69 397.5 -48.5 Q 379 -28 355 -15 Q 331 -2 304 3 Q 277 8 250 8 Z M 152 -338 L 348 -493 L 348 -535 Q 348 -557 343 -579 Q 338 -601 325.5 -618.5 Q 313 -636 292.5 -645.5 Q 272 -655 250 -655 Q 228 -655 207.5 -645.5 Q 187 -636 174.5 -618.5 Q 162 -601 157 -579 Q 152 -557 152 -535 Z M 250 -80 Q 272 -80 292.5 -89.5 Q 313 -99 325.5 -116.5 Q 338 -134 343 -156 Q 348 -178 348 -200 L 348 -397 L 152 -242 L 152 -200 Q 152 -178 157 -156 Q 162 -134 174.5 -116.5 Q 187 -99 207.5 -89.5 Q 228 -80 250 -80 Z " id="path1"/>
<path d="M 230 0 L 230 -632 L 110 -528 L 55 -584 L 230 -735 L 330 -735 L 330 0 Z " id="path2"/>
<path d="M 60 0 L 60 -1 Q 60 -27 61 -54 Q 62 -81 65.5 -107 Q 69 -133 77 -158.5 Q 85 -184 96.5 -208 Q 108 -232 123 -253.5 Q 138 -275 156 -294.5 Q 174 -314 194 -331 Q 214 -348 235.5 -364 Q 257 -380 277.5 -397 Q 298 -414 313 -435.5 Q 328 -457 336 -483 Q 344 -509 344 -535 Q 344 -557 339.5 -578 Q 335 -599 323.5 -617 Q 312 -635 292 -645 Q 272 -655 251 -655 Q 231 -655 212.5 -647.5 Q 194 -640 181.5 -625 Q 169 -610 163.5 -591 Q 158 -572 158 -552 L 158 -548 L 58 -548 L 58 -555 Q 58 -581 63.5 -606 Q 69 -631 81 -653 Q 93 -675 111.5 -693 Q 130 -711 152.5 -722.5 Q 175 -734 200.5 -738.5 Q 226 -743 251 -743 Q 278 -743 304.5 -737.5 Q 331 -732 354.5 -719 Q 378 -706 396 -685.5 Q 414 -665 425 -640.5 Q 436 -616 440 -589 Q 444 -562 444 -535 Q 444 -501 435 -468 Q 426 -435 407.5 -406 Q 389 -377 364 -353.5 Q 339 -330 312.5 -308.5 Q 286 -287 261 -264 Q 236 -241 216 -213 Q 196 -185 183 -153.5 Q 170 -122 165 -88 L 440 -88 L 440 0 Z " id="path3"/>
<path d="M 253 8 Q 227 8 201 4 Q 175 -0 151 -11.5 Q 127 -23 107.5 -40.5 Q 88 -58 75.5 -81 Q 63 -104 56.5 -129.5 Q 50 -155 50 -181 L 50 -187 L 150 -187 L 150 -184 Q 150 -163 157 -143 Q 164 -123 178 -108 Q 192 -93 212 -86.5 Q 232 -80 253 -80 Q 275 -80 296 -88.5 Q 317 -97 330.5 -114.5 Q 344 -132 350 -154 Q 356 -176 356 -198 Q 356 -217 352 -235.5 Q 348 -254 339 -271 Q 330 -288 316.5 -301 Q 303 -314 286 -322 Q 269 -330 250 -332 Q 231 -334 212 -334 L 212 -422 Q 229 -422 246 -424 Q 263 -426 278.5 -433 Q 294 -440 306 -452.5 Q 318 -465 325.5 -480.5 Q 333 -496 336.5 -513 Q 340 -530 340 -547 Q 340 -566 335.5 -585.5 Q 331 -605 320 -621.5 Q 309 -638 291 -646.5 Q 273 -655 253 -655 Q 234 -655 216 -647 Q 198 -639 187 -624 Q 176 -609 171 -590 Q 166 -571 166 -553 L 166 -548 L 66 -548 L 66 -556 Q 66 -581 71.5 -605.5 Q 77 -630 88 -652 Q 99 -674 116.5 -692.5 Q 134 -711 156.5 -722.5 Q 179 -734 203.5 -738.5 Q 228 -743 253 -743 Q 278 -743 303.5 -738 Q 329 -733 351 -721 Q 373 -709 390.5 -690 Q 408 -671 419 -648 Q 430 -625 435 -600 Q 440 -575 440 -550 Q 440 -524 434 -498.5 Q 428 -473 416 -450.5 Q 404 -428 385 -409.5 Q 366 -391 343 -379 Q 370 -368 391.5 -348.5 Q 413 -329 427.5 -304.5 Q 442 -280 449 -252 Q 456 -224 456 -196 Q 456 -168 450 -141.5 Q 444 -115 432 -91 Q 420 -67 401 -47 Q 382 -27 358 -14.5 Q 334 -2 307 3 Q 280 8 253 8 Z " id="path4"/>
<path d="M 282 0 L 282 -188 L 52 -188 L 52 -275 L 276 -735 L 377 -735 L 152 -275 L 282 -275 L 282 -435 L 383 -435 L 383 -275 L 440 -275 L 440 -188 L 383 -188 L 383 0 Z " id="path5"/>
<path d="M 252 8 Q 227 8 202.5 3.5 Q 178 -1 155.5 -12 Q 133 -23 114.5 -41 Q 96 -59 84 -80.5 Q 72 -102 65.5 -126.5 Q 59 -151 58 -176 L 159 -176 Q 160 -158 166.5 -139.5 Q 173 -121 185.5 -107 Q 198 -93 216 -86.5 Q 234 -80 252 -80 Q 269 -80 285 -87 Q 301 -94 312.5 -107 Q 324 -120 330.5 -135.5 Q 337 -151 341 -167.5 Q 345 -184 346.5 -201 Q 348 -218 348 -235 Q 348 -252 346.5 -269 Q 345 -286 341.5 -302.5 Q 338 -319 331.5 -334.5 Q 325 -350 314.5 -363 Q 304 -376 288 -383.5 Q 272 -391 256 -391 Q 240 -391 224 -387 Q 208 -383 195.5 -373.5 Q 183 -364 176 -349.5 Q 169 -335 168 -319 L 68 -319 L 68 -735 L 421 -735 L 421 -647 L 168 -647 L 168 -464 Q 189 -472 211 -475 Q 233 -478 256 -478 Q 285 -478 313.5 -470.5 Q 342 -463 365.5 -445.5 Q 389 -428 405.5 -403 Q 422 -378 431.5 -350.5 Q 441 -323 444.5 -294 Q 448 -265 448 -235 Q 448 -206 444.5 -176.5 Q 441 -147 431 -119 Q 421 -91 404.5 -66.5 Q 388 -42 364 -24.5 Q 340 -7 311 0.5 Q 282 8 252 8 Z " id="path6"/>
<path d="M 250 8 Q 221 8 192.5 1.5 Q 164 -5 140 -21 Q 116 -37 98.5 -60.5 Q 81 -84 70.5 -111 Q 60 -138 56 -166.5 Q 52 -195 52 -224 Q 52 -268 59.5 -311 Q 67 -354 81 -395.5 Q 95 -437 113 -477 Q 131 -517 150 -556 L 238 -735 L 347 -735 L 240 -517 Q 228 -492 216 -467 Q 204 -442 194 -416 Q 212 -436 238.5 -446 Q 265 -456 292 -456 Q 318 -456 343.5 -447 Q 369 -438 387.5 -419.5 Q 406 -401 418 -377 Q 430 -353 436.5 -328 Q 443 -303 445.5 -276.5 Q 448 -250 448 -224 Q 448 -195 444 -166.5 Q 440 -138 429.5 -111 Q 419 -84 401.5 -60.5 Q 384 -37 360 -21 Q 336 -5 307.5 1.5 Q 279 8 250 8 Z M 250 -80 Q 266 -80 282 -85.5 Q 298 -91 309.5 -102.5 Q 321 -114 328.5 -129 Q 336 -144 340.5 -159.5 Q 345 -175 346.5 -191.5 Q 348 -208 348 -224 Q 348 -240 346.5 -256.5 Q 345 -273 340.5 -289 Q 336 -305 328.5 -319.5 Q 321 -334 309.5 -345.5 Q 298 -357 282 -362.5 Q 266 -368 250 -368 Q 235 -368 221 -363.5 Q 207 -359 195.5 -349.5 Q 184 -340 176 -327.5 Q 168 -315 163.5 -301 Q 159 -287 156.5 -272.5 Q 154 -258 153 -243 Q 153 -238 152.5 -233.5 Q 152 -229 152 -224 Q 152 -208 153.5 -191.5 Q 155 -175 159.5 -159.5 Q 164 -144 171.5 -129 Q 179 -114 190.5 -102.5 Q 202 -91 218 -85.5 Q 234 -80 250 -80 Z " id="path7"/>
<path d="M 138 0 L 336 -647 L 60 -647 L 60 -735 L 440 -735 L 440 -647 L 242 0 Z " id="path8"/>
<path d="M 250 8 Q 225 8 200 4 Q 175 -0 152 -10 Q 129 -20 109.5 -37 Q 90 -54 77.5 -75.5 Q 65 -97 58.5 -121.5 Q 52 -146 52 -172 Q 52 -203 61.5 -232.5 Q 71 -262 88 -288.5 Q 105 -315 127 -336.5 Q 149 -358 174 -378 Q 152 -396 132.5 -417 Q 113 -438 98.5 -462.5 Q 84 -487 76 -514.5 Q 68 -542 68 -570 Q 68 -594 73.5 -617.5 Q 79 -641 90.5 -661.5 Q 102 -682 119.5 -698.5 Q 137 -715 158 -725 Q 179 -735 202.5 -739 Q 226 -743 250 -743 Q 274 -743 297.5 -739 Q 321 -735 342 -725 Q 363 -715 380.5 -698.5 Q 398 -682 409.5 -661.5 Q 421 -641 426.5 -617.5 Q 432 -594 432 -570 Q 432 -542 424 -514.5 Q 416 -487 401.5 -462.5 Q 387 -438 367.5 -417 Q 348 -396 326 -378 Q 351 -358 373 -336.5 Q 395 -315 412 -288.5 Q 429 -262 438.5 -232.5 Q 448 -203 448 -172 Q 448 -146 441.5 -121.5 Q 435 -97 422.5 -75.5 Q 410 -54 390.5 -37 Q 371 -20 348 -10 Q 325 -0 300 4 Q 275 8 250 8 Z M 250 -434 Q 266 -447 280.5 -461.5 Q 295 -476 306.5 -493 Q 318 -510 325 -529.5 Q 332 -549 332 -569 Q 332 -586 327 -602.5 Q 322 -619 310.5 -631.5 Q 299 -644 283 -649.5 Q 267 -655 250 -655 Q 233 -655 217 -649.5 Q 201 -644 189.5 -631.5 Q 178 -619 173 -602.5 Q 168 -586 168 -569 Q 168 -549 175 -529.5 Q 182 -510 193.5 -493 Q 205 -476 219.5 -461.5 Q 234 -447 250 -434 Z M 250 -80 Q 269 -80 288 -85.5 Q 307 -91 320.5 -104 Q 334 -117 341 -135.5 Q 348 -154 348 -173 Q 348 -196 339.5 -217.5 Q 331 -239 317 -257.5 Q 303 -276 285.5 -291 Q 268 -306 250 -320 Q 232 -306 214.5 -291 Q 197 -276 183 -257.5 Q 169 -239 160.5 -217.5 Q 152 -196 152 -173 Q 152 -154 159 -135.5 Q 166 -117 179.5 -104 Q 193 -91 212 -85.5 Q 231 -80 250 -80 Z " id="path9"/>
<path d="M 262 0 L 153 0 L 260 -218 Q 272 -243 284 -268 Q 296 -293 306 -319 Q 288 -299 261.5 -289 Q 235 -279 208 -279 Q 182 -279 156.5 -288 Q 131 -297 112.5 -315.5 Q 94 -334 82 -358 Q 70 -382 63.5 -407 Q 57 -432 54.5 -458.5 Q 52 -485 52 -511 Q 52 -540 56 -568.5 Q 60 -597 70.5 -624 Q 81 -651 98.5 -674.5 Q 116 -698 140 -714 Q 164 -730 192.5 -736.5 Q 221 -743 250 -743 Q 279 -743 307.5 -736.5 Q 336 -730 360 -714 Q 384 -698 401.5 -674.5 Q 419 -651 429.5 -624 Q 440 -597 444 -568.5 Q 448 -540 448 -511 Q 448 -467 440.5 -424 Q 433 -381 419 -339.5 Q 405 -298 387 -258 Q 369 -218 350 -179 Z M 250 -367 Q 265 -367 279 -371.5 Q 293 -376 304.5 -385.5 Q 316 -395 324 -407.5 Q 332 -420 336.5 -434 Q 341 -448 343.5 -462.5 Q 346 -477 347 -492 Q 347 -497 347.5 -501.5 Q 348 -506 348 -511 Q 348 -527 346.5 -543.5 Q 345 -560 340.5 -575.5 Q 336 -591 328.5 -606 Q 321 -621 309.5 -632.5 Q 298 -644 282 -649.5 Q 266 -655 250 -655 Q 234 -655 218 -649.5 Q 202 -644 190.5 -632.5 Q 179 -621 171.5 -606 Q 164 -591 159.5 -575.5 Q 155 -560 153.5 -543.5 Q 152 -527 152 -511 Q 152 -495 153.5 -478.5 Q 155 -462 159.5 -446 Q 164 -430 171.5 -415.5 Q 179 -401 190.5 -389.5 Q 202 -378 218 -372.5 Q 234 -367 250 -367 Z " id="path10"/>
<path d="M 39 0 L 53 -70 L 192 -735 L 308 -735 L 461 0 L 359 0 L 326 -172 L 174 -172 L 141 0 Z M 310 -260 L 267 -490 Q 263 -513 258.5 -536 Q 254 -559 250 -582 Q 246 -559 241.5 -536 Q 237 -513 233 -490 L 190 -260 Z " id="path11"/>
<path d="M 60 0 L 60 -735 L 235 -735 Q 261 -735 287 -730.5 Q 313 -726 336.5 -714 Q 360 -702 378.5 -682.5 Q 397 -663 408.5 -639.5 Q 420 -616 424.5 -590 Q 429 -564 429 -538 Q 429 -515 425.5 -492 Q 422 -469 411.5 -448.5 Q 401 -428 384.5 -411 Q 368 -394 348 -383 Q 373 -373 394.5 -355.5 Q 416 -338 430.5 -314.5 Q 445 -291 450.5 -264 Q 456 -237 456 -210 Q 456 -181 450.5 -152.5 Q 445 -124 431 -98.5 Q 417 -73 395.5 -53.5 Q 374 -34 347.5 -21.5 Q 321 -9 292.5 -4.5 Q 264 -0 235 0 Z M 160 -424 L 235 -424 Q 256 -424 275.5 -432.5 Q 295 -441 307.5 -457.5 Q 320 -474 324.5 -494.5 Q 329 -515 329 -536 Q 329 -557 324.5 -577.5 Q 320 -598 307.5 -614.5 Q 295 -631 275.5 -639 Q 256 -647 235 -647 L 160 -647 Z M 160 -88 L 235 -88 Q 251 -88 267.5 -91 Q 284 -94 298.5 -101.5 Q 313 -109 324.5 -121 Q 336 -133 343 -148 Q 350 -163 353 -179 Q 356 -195 356 -212 Q 356 -228 353 -244.5 Q 350 -261 343 -276 Q 336 -291 324.5 -303 Q 313 -315 298.5 -322.5 Q 284 -330 267.5 -333 Q 251 -336 235 -336 L 160 -336 Z " id="path12"/>
<path d="M 247 8 Q 220 8 193 3 Q 166 -2 142.5 -15.5 Q 119 -29 101 -49.5 Q 83 -70 71.5 -94.5 Q 60 -119 56 -146 Q 52 -173 52 -200 L 52 -535 Q 52 -562 56 -589 Q 60 -616 71.5 -640.5 Q 83 -665 101 -685.5 Q 119 -706 142.5 -719.5 Q 166 -733 193 -738 Q 220 -743 247 -743 Q 273 -743 298 -738.5 Q 323 -734 346 -723 Q 369 -712 387.5 -694 Q 406 -676 418 -653.5 Q 430 -631 436 -606 Q 442 -581 442 -555 L 442 -548 L 342 -548 L 342 -552 Q 342 -572 336 -591.5 Q 330 -611 317.5 -626 Q 305 -641 286 -648 Q 267 -655 247 -655 Q 225 -655 205 -645.5 Q 185 -636 173 -618 Q 161 -600 156.5 -578.5 Q 152 -557 152 -535 L 152 -200 Q 152 -178 156.5 -156.5 Q 161 -135 173 -117 Q 185 -99 205 -89.5 Q 225 -80 247 -80 Q 267 -80 286 -87 Q 305 -94 317.5 -109 Q 330 -124 336 -143.5 Q 342 -163 342 -183 L 342 -187 L 442 -187 L 442 -180 Q 442 -154 436 -129 Q 430 -104 418 -81.5 Q 406 -59 387.5 -41 Q 369 -23 346 -12 Q 323 -1 298 3.5 Q 273 8 247 8 Z " id="path13"/>
<path d="M 60 0 L 60 -735 L 220 -735 Q 250 -735 280 -730 Q 310 -725 337 -712 Q 364 -699 386.5 -678.5 Q 409 -658 423 -631.5 Q 437 -605 442.5 -575 Q 448 -545 448 -515 L 448 -220 Q 448 -190 442.5 -160 Q 437 -130 423 -103.5 Q 409 -77 386.5 -56.5 Q 364 -36 337 -23 Q 310 -10 280 -5 Q 250 -0 220 0 Z M 160 -88 L 220 -88 Q 237 -88 254.5 -91 Q 272 -94 287.5 -102.5 Q 303 -111 315 -124 Q 327 -137 334.5 -152.5 Q 342 -168 345 -185.5 Q 348 -203 348 -220 L 348 -515 Q 348 -532 345 -549.5 Q 342 -567 334.5 -582.5 Q 327 -598 315 -611 Q 303 -624 287.5 -632.5 Q 272 -641 254.5 -644 Q 237 -647 220 -647 L 160 -647 Z " id="path14"/>
<path d="M 68 0 L 68 -735 L 440 -735 L 440 -647 L 168 -647 L 168 -426 L 383 -426 L 383 -338 L 168 -338 L 168 -88 L 440 -88 L 440 0 Z " id="path15"/>
<path d="M 90 0 L 90 -735 L 440 -735 L 440 -647 L 190 -647 L 190 -426 L 383 -426 L 383 -338 L 190 -338 L 190 0 Z " id="path16"/>
<path d="M 250 8 Q 223 8 196.5 2.5 Q 170 -3 147 -16.5 Q 124 -30 106.5 -50.5 Q 89 -71 78.5 -95.5 Q 68 -120 64 -146.5 Q 60 -173 60 -200 L 60 -735 L 160 -735 L 160 -200 Q 160 -186 161.5 -172 Q 163 -158 167.5 -144.5 Q 172 -131 179.5 -118.5 Q 187 -106 197.5 -97 Q 208 -88 222 -84 Q 236 -80 250 -80 Q 264 -80 278 -84 Q 292 -88 302.5 -97 Q 313 -106 320.5 -118.5 Q 328 -131 332.5 -144.5 Q 337 -158 338.5 -172 Q 340 -186 340 -200 L 340 -735 L 440 -735 L 440 -200 Q 440 -173 436 -146.5 Q 432 -120 421.5 -95.5 Q 411 -71 393.5 -50.5 Q 376 -30 353 -16.5 Q 330 -3 303.5 2.5 Q 277 8 250 8 Z " id="path17"/>
<path d="M 296 -142 L 204 -142 L 204 -300 L 60 -300 L 60 -380 L 204 -380 L 204 -538 L 296 -538 L 296 -380 L 440 -380 L 440 -300 L 296 -300 Z " id="path18"/>
<path d="M 561 -93 L 519 -131 L 704 -307 L 58 -307 L 58 -373 L 704 -373 L 519 -549 L 561 -587 L 775 -373 L 854 -373 L 669 -549 L 711 -587 L 958 -340 L 711 -93 L 669 -131 L 854 -307 L 775 -307 Z M 356 -120 L 302 -120 L 302 -560 L 356 -560 Z " id="path19"/>
<path d="M 561 -93 L 519 -131 L 704 -307 L 58 -307 L 58 -373 L 704 -373 L 519 -549 L 561 -587 L 775 -373 L 854 -373 L 669 -549 L 711 -587 L 958 -340 L 711 -93 L 669 -131 L 854 -307 L 775 -307 Z M 386 -120 L 386 -560 L 440 -560 L 440 -120 Z M 218 -120 L 218 -560 L 272 -560 L 272 -120 Z " id="path20"/>
<path d="M 289 -93 L 42 -340 L 289 -587 L 331 -549 L 254 -476 L 942 -476 L 942 -410 L 184 -410 L 111 -340 L 184 -270 L 942 -270 L 942 -204 L 254 -204 L 331 -131 Z M 615 -120 L 561 -120 L 561 -560 L 615 -560 Z " id="path21"/>
<path d="M 711 -93 L 669 -131 L 746 -204 L 58 -204 L 58 -270 L 816 -270 L 889 -340 L 816 -410 L 58 -410 L 58 -476 L 746 -476 L 669 -549 L 711 -587 L 958 -340 Z M 439 -120 L 385 -120 L 385 -560 L 439 -560 Z " id="path22"/>
<path d="M 289 -93 L 42 -340 L 289 -587 L 331 -549 L 254 -476 L 746 -476 L 669 -549 L 711 -587 L 958 -340 L 711 -93 L 669 -131 L 746 -204 L 254 -204 L 331 -131 Z M 816 -270 L 889 -340 L 816 -410 L 184 -410 L 111 -340 L 184 -270 Z M 527 -120 L 473 -120 L 473 -560 L 527 -560 Z " id="path23"/>
<path d="M 289 -93 L 42 -340 L 289 -587 L 331 -549 L 146 -373 L 225 -373 L 439 -587 L 481 -549 L 296 -373 L 873 -373 L 873 -587 L 942 -587 L 942 -93 L 873 -93 L 873 -307 L 296 -307 L 481 -131 L 439 -93 L 225 -307 L 146 -307 L 331 -131 Z " id="path24"/>
<path d="M 289 -93 L 42 -340 L 289 -587 L 331 -549 L 254 -476 L 873 -476 L 873 -587 L 942 -587 L 942 -93 L 873 -93 L 873 -204 L 254 -204 L 331 -131 Z M 184 -270 L 873 -270 L 873 -410 L 184 -410 L 111 -340 Z " id="path25"/>
<path d="M 127 -93 L 58 -93 L 58 -587 L 127 -587 L 127 -476 L 746 -476 L 669 -549 L 711 -587 L 958 -340 L 711 -93 L 669 -131 L 746 -204 L 127 -204 Z M 816 -270 L 889 -340 L 816 -410 L 127 -410 L 127 -270 Z " id="path26"/>
<path d="M 500 118 L 253 -129 L 291 -171 L 467 14 L 467 -782 L 533 -782 L 533 14 L 709 -171 L 747 -129 Z M 280 -404 L 280 -452 L 720 -452 L 720 -404 Z " id="path27"/>
<path d="M 467 102 L 467 -694 L 291 -509 L 253 -551 L 500 -798 L 747 -551 L 709 -509 L 533 -694 L 533 102 Z M 280 -228 L 280 -276 L 720 -276 L 720 -228 Z " id="path28"/>
<path d="M 364 102 L 364 -586 L 291 -509 L 253 -551 L 500 -798 L 747 -551 L 709 -509 L 636 -586 L 636 102 L 570 102 L 570 -656 L 533 -694 L 533 102 L 467 102 L 467 -694 L 430 -656 L 430 102 Z " id="path29"/>
<path d="M 500 118 L 253 -129 L 291 -171 L 364 -94 L 364 -782 L 430 -782 L 430 -24 L 467 14 L 467 -782 L 533 -782 L 533 14 L 570 -24 L 570 -782 L 636 -782 L 636 -94 L 709 -171 L 747 -129 Z " id="path30"/>
<path d="M 289 -93 L 42 -340 L 289 -587 L 331 -549 L 146 -373 L 486 -373 L 486 -307 L 146 -307 L 331 -131 Z M 942 -307 L 535 -307 L 535 -373 L 942 -373 Z " id="path31"/>
<path d="M 711 -93 L 669 -131 L 854 -307 L 514 -307 L 514 -373 L 854 -373 L 669 -549 L 711 -587 L 958 -340 Z M 465 -307 L 58 -307 L 58 -373 L 465 -373 Z " id="path32"/>
<path d="M 289 -93 L 42 -340 L 289 -587 L 331 -549 L 146 -373 L 334 -373 L 334 -307 L 146 -307 L 331 -131 Z M 687 -307 L 687 -373 L 942 -373 L 942 -307 Z M 382 -307 L 382 -373 L 638 -373 L 638 -307 Z " id="path33"/>
<path d="M 711 -93 L 669 -131 L 854 -307 L 666 -307 L 666 -373 L 854 -373 L 669 -549 L 711 -587 L 958 -340 Z M 58 -307 L 58 -373 L 313 -373 L 313 -307 Z M 362 -307 L 362 -373 L 618 -373 L 618 -307 Z " id="path34"/>
<path d="M 926 -93 L 712 -307 L 606 -307 L 606 -373 L 712 -373 L 926 -587 L 968 -549 L 748 -340 L 968 -131 Z M 289 -93 L 42 -340 L 289 -587 L 331 -549 L 146 -373 L 225 -373 L 439 -587 L 481 -549 L 296 -373 L 380 -373 L 380 -307 L 296 -307 L 481 -131 L 439 -93 L 225 -307 L 146 -307 L 331 -131 Z M 433 -307 L 433 -373 L 553 -373 L 553 -307 Z " id="path35"/>
<path d="M 289 -93 L 42 -340 L 289 -587 L 331 -549 L 132 -360 Q 134 -355 135.5 -350 Q 137 -345 137 -340 Q 137 -335 135.5 -330 Q 134 -325 132 -320 L 331 -131 Z M 218 -307 Q 212 -307 205.5 -309 Q 199 -311 194 -315.5 Q 189 -320 187 -326.5 Q 185 -333 185 -340 Q 185 -347 187 -353.5 Q 189 -360 194 -364.5 Q 199 -369 205.5 -371 Q 212 -373 218 -373 Q 225 -373 231.5 -371 Q 238 -369 243 -364.5 Q 248 -360 250 -353.5 Q 252 -347 252 -340 Q 252 -333 250 -326.5 Q 248 -320 243 -315.5 Q 238 -311 231.5 -309 Q 225 -307 218 -307 Z M 449 -307 Q 442 -307 435.5 -309 Q 429 -311 424 -315.5 Q 419 -320 417 -326.5 Q 415 -333 415 -340 Q 415 -347 417 -353.5 Q 419 -360 424 -364.5 Q 429 -369 435.5 -371 Q 442 -373 449 -373 Q 455 -373 461.5 -371 Q 468 -369 473 -364.5 Q 478 -360 480 -353.5 Q 482 -347 482 -340 Q 482 -333 480 -326.5 Q 478 -320 473 -315.5 Q 468 -311 461.5 -309 Q 455 -307 449 -307 Z M 679 -307 Q 672 -307 665.5 -309 Q 659 -311 654.5 -315.5 Q 650 -320 648 -326.5 Q 646 -333 646 -340 Q 646 -347 648 -353.5 Q 650 -360 654.5 -364.5 Q 659 -369 665.5 -371 Q 672 -373 679 -373 Q 686 -373 692.5 -371 Q 699 -369 703.5 -364.5 Q 708 -360 710 -353.5 Q 712 -347 712 -340 Q 712 -333 710 -326.5 Q 708 -320 703.5 -315.5 Q 699 -311 692.5 -309 Q 686 -307 679 -307 Z M 909 -307 Q 902 -307 895.5 -309 Q 889 -311 884.5 -315.5 Q 880 -320 878 -326.5 Q 876 -333 876 -340 Q 876 -347 878 -353.5 Q 880 -360 884.5 -364.5 Q 889 -369 895.5 -371 Q 902 -373 909 -373 Q 916 -373 922.5 -371 Q 929 -369 933.5 -364.5 Q 938 -360 940 -353.5 Q 942 -347 942 -340 Q 942 -333 940 -326.5 Q 938 -320 933.5 -315.5 Q 929 -311 922.5 -309 Q 916 -307 909 -307 Z M 794 -307 Q 787 -307 780.5 -309 Q 774 -311 769.5 -315.5 Q 765 -320 763 -326.5 Q 761 -333 761 -340 Q 761 -347 763 -353.5 Q 765 -360 769.5 -364.5 Q 774 -369 780.5 -371 Q 787 -373 794 -373 Q 801 -373 807.5 -371 Q 814 -369 818.5 -364.5 Q 823 -360 825 -353.5 Q 827 -347 827 -340 Q 827 -333 825 -326.5 Q 823 -320 818.5 -315.5 Q 814 -311 807.5 -309 Q 801 -307 794 -307 Z M 564 -307 Q 557 -307 550.5 -309 Q 544 -311 539.5 -315.5 Q 535 -320 533 -326.5 Q 531 -333 531 -340 Q 531 -347 533 -353.5 Q 535 -360 539.5 -364.5 Q 544 -369 550.5 -371 Q 557 -373 564 -373 Q 570 -373 577 -371 Q 584 -369 588.5 -364.5 Q 593 -360 595 -353.5 Q 597 -347 597 -340 Q 597 -333 595 -326.5 Q 593 -320 588.5 -315.5 Q 584 -311 577 -309 Q 570 -307 564 -307 Z M 334 -307 Q 327 -307 320.5 -309 Q 314 -311 309 -315.5 Q 304 -320 302 -326.5 Q 300 -333 300 -340 Q 300 -347 302 -353.5 Q 304 -360 309 -364.5 Q 314 -369 320.5 -371 Q 327 -373 334 -373 Q 340 -373 346.5 -371 Q 353 -369 358 -364.5 Q 363 -360 365 -353.5 Q 367 -347 367 -340 Q 367 -333 365 -326.5 Q 363 -320 358 -315.5 Q 353 -311 346.5 -309 Q 340 -307 334 -307 Z " id="path36"/>
<path d="M 253 -744 L 253 -813 L 747 -813 L 747 -744 Z M 467 102 L 467 -632 L 291 -447 L 253 -488 L 500 -736 L 747 -488 L 709 -447 L 533 -632 L 533 102 Z " id="path37"/>
<path d="M 500 56 L 253 -192 L 291 -233 L 467 -48 L 467 -782 L 533 -782 L 533 -48 L 709 -233 L 747 -192 Z M 253 133 L 253 64 L 747 64 L 747 133 Z " id="path38"/>
<path d="M 74 -93 L 32 -131 L 252 -340 L 32 -549 L 74 -587 L 288 -373 L 854 -373 L 669 -549 L 711 -587 L 958 -340 L 711 -93 L 669 -131 L 854 -307 L 288 -307 Z M 533 -120 L 479 -120 L 479 -560 L 533 -560 Z " id="path39"/>
<path d="M 74 -93 L 32 -131 L 252 -340 L 32 -549 L 74 -587 L 288 -373 L 854 -373 L 669 -549 L 711 -587 L 958 -340 L 711 -93 L 669 -131 L 854 -307 L 288 -307 Z M 563 -120 L 563 -560 L 617 -560 L 617 -120 Z M 395 -120 L 395 -560 L 449 -560 L 449 -120 Z " id="path40"/>
<path d="M 289 -93 L 42 -340 L 289 -587 L 331 -549 L 146 -373 L 225 -373 L 439 -587 L 481 -549 L 296 -373 L 712 -373 L 926 -587 L 968 -549 L 748 -340 L 968 -131 L 926 -93 L 712 -307 L 296 -307 L 481 -131 L 439 -93 L 225 -307 L 146 -307 L 331 -131 Z " id="path41"/>
<path d="M 74 -93 L 32 -131 L 252 -340 L 32 -549 L 74 -587 L 288 -373 L 704 -373 L 519 -549 L 561 -587 L 775 -373 L 854 -373 L 669 -549 L 711 -587 L 958 -340 L 711 -93 L 669 -131 L 854 -307 L 775 -307 L 561 -93 L 519 -131 L 704 -307 L 288 -307 Z M 443 -120 L 389 -120 L 389 -560 L 443 -560 Z " id="path42"/>
<path d="M 74 -93 L 32 -131 L 252 -340 L 32 -549 L 74 -587 L 288 -373 L 704 -373 L 519 -549 L 561 -587 L 775 -373 L 854 -373 L 669 -549 L 711 -587 L 958 -340 L 711 -93 L 669 -131 L 854 -307 L 775 -307 L 561 -93 L 519 -131 L 704 -307 L 288 -307 Z M 448 -120 L 448 -560 L 502 -560 L 502 -120 Z M 330 -120 L 330 -560 L 384 -560 L 384 -120 Z " id="path43"/>
<path d="M 926 -93 L 712 -307 L 58 -307 L 58 -373 L 712 -373 L 926 -587 L 968 -549 L 748 -340 L 968 -131 Z " id="path44"/>
<path d="M 74 -93 L 32 -131 L 252 -340 L 32 -549 L 74 -587 L 288 -373 L 942 -373 L 942 -307 L 288 -307 Z " id="path45"/>
<path d="M 776 -93 L 562 -307 L 58 -307 L 58 -373 L 562 -373 L 776 -587 L 818 -549 L 633 -373 L 712 -373 L 926 -587 L 968 -549 L 748 -340 L 968 -131 L 926 -93 L 712 -307 L 633 -307 L 818 -131 Z " id="path46"/>
<path d="M 74 -93 L 32 -131 L 252 -340 L 32 -549 L 74 -587 L 288 -373 L 367 -373 L 182 -549 L 224 -587 L 438 -373 L 942 -373 L 942 -307 L 438 -307 L 224 -93 L 182 -131 L 367 -307 L 288 -307 Z " id="path47"/>
<path d="M 600 -93 L 352 -340 L 600 -587 L 641 -549 L 456 -373 L 942 -373 L 942 -307 L 456 -307 L 641 -131 Z M 197 -185 L 42 -340 L 197 -495 L 352 -340 Z " id="path48"/>
<path d="M 400 -93 L 359 -131 L 544 -307 L 58 -307 L 58 -373 L 544 -373 L 359 -549 L 400 -587 L 648 -340 Z M 803 -185 L 648 -340 L 803 -495 L 958 -340 Z " id="path49"/>
<path d="M 600 -93 L 352 -340 L 600 -587 L 641 -549 L 456 -373 L 873 -373 L 873 -587 L 942 -587 L 942 -93 L 873 -93 L 873 -307 L 456 -307 L 641 -131 Z M 197 -185 L 42 -340 L 197 -495 L 352 -340 Z " id="path50"/>
<path d="M 127 -93 L 58 -93 L 58 -587 L 127 -587 L 127 -373 L 544 -373 L 359 -549 L 400 -587 L 648 -340 L 400 -93 L 359 -131 L 544 -307 L 127 -307 Z M 803 -185 L 648 -340 L 803 -495 L 958 -340 Z " id="path51"/>
<path d="M 883 18 L 533 18 L 531 -39 L 786 -33 L 477 -342 L 167 -651 L 174 -396 L 117 -399 L 117 -749 L 467 -749 L 469 -692 L 214 -698 L 833 -80 L 826 -335 L 883 -332 Z " id="path52"/>
<path d="M 117 18 L 117 -332 L 174 -335 L 167 -80 L 477 -389 L 786 -698 L 531 -692 L 533 -749 L 883 -749 L 883 -399 L 826 -396 L 833 -651 L 523 -342 L 214 -33 L 469 -39 L 467 18 Z " id="path53"/>
<path d="M 708 176 Q 690 176 673 171.5 Q 656 167 641 159 Q 626 151 612 140.5 Q 598 130 586 117 L 633 70 Q 647 84 664.5 93.5 Q 682 103 701 103 Q 719 103 735 94.5 Q 751 86 764 73.5 Q 777 61 785.5 44.5 Q 794 28 794 10 Q 794 -9 784.5 -26.5 Q 775 -44 761 -58 L 167 -651 L 174 -396 L 117 -399 L 117 -749 L 467 -749 L 469 -692 L 214 -698 L 808 -105 Q 820 -92 831 -78.5 Q 842 -65 850 -49.5 Q 858 -34 862.5 -17 Q 867 0 867 17 Q 867 48 852.5 76 Q 838 104 816 125.5 Q 794 147 766 161.5 Q 738 176 708 176 Z " id="path54"/>
<path d="M 292 176 Q 262 176 234 161.5 Q 206 147 184 125.5 Q 162 104 147.5 76 Q 133 48 133 17 Q 133 0 137.5 -17 Q 142 -34 150 -49.5 Q 158 -65 169 -78.5 Q 180 -92 192 -105 L 786 -698 L 531 -692 L 533 -749 L 883 -749 L 883 -399 L 826 -396 L 833 -651 L 239 -58 Q 225 -44 215.5 -26.5 Q 206 -9 206 10 Q 206 28 214.5 44.5 Q 223 61 236 73.5 Q 249 86 265 94.5 Q 281 103 299 103 Q 318 103 335.5 93.5 Q 353 84 367 70 L 414 117 Q 402 130 388 140.5 Q 374 151 359 159 Q 344 167 327 171.5 Q 310 176 292 176 Z " id="path55"/>
<path d="M 883 18 L 533 18 L 531 -39 L 786 -33 L 192 -626 Q 180 -639 169 -652.5 Q 158 -666 150 -681.5 Q 142 -697 137.5 -714 Q 133 -731 133 -748 Q 133 -779 147.5 -807 Q 162 -835 184 -856.5 Q 206 -878 234 -892.5 Q 262 -907 292 -907 Q 310 -907 327 -902.5 Q 344 -898 359 -890 Q 374 -882 388 -871.5 Q 402 -861 414 -848 L 367 -801 Q 353 -815 335.5 -824.5 Q 318 -834 299 -834 Q 281 -834 265 -825.5 Q 249 -817 236 -804.5 Q 223 -792 214.5 -775.5 Q 206 -759 206 -741 Q 206 -722 215.5 -704.5 Q 225 -687 239 -673 L 833 -80 L 826 -335 L 883 -332 Z " id="path56"/>
<path d="M 117 18 L 117 -332 L 174 -335 L 167 -80 L 761 -673 Q 775 -687 784.5 -704.5 Q 794 -722 794 -741 Q 794 -759 785.5 -775.5 Q 777 -792 764 -804.5 Q 751 -817 735 -825.5 Q 719 -834 701 -834 Q 682 -834 664.5 -824.5 Q 647 -815 633 -801 L 586 -848 Q 598 -861 612 -871.5 Q 626 -882 641 -890 Q 656 -898 673 -902.5 Q 690 -907 708 -907 Q 738 -907 766 -892.5 Q 794 -878 816 -856.5 Q 838 -835 852.5 -807 Q 867 -779 867 -748 Q 867 -731 862.5 -714 Q 858 -697 850 -681.5 Q 842 -666 831 -652.5 Q 820 -639 808 -626 L 214 -33 L 469 -39 L 467 18 Z " id="path57"/>
<path d="M 64 0 L 64 -735 L 436 -735 L 436 0 Z M 104 -333 L 394 -695 L 300 -695 L 104 -450 Z M 104 -489 L 269 -695 L 175 -695 L 104 -606 Z M 104 -645 L 144 -695 L 104 -695 Z M 104 -176 L 396 -543 L 396 -660 L 104 -294 Z M 104 -40 L 119 -40 L 396 -386 L 396 -504 L 104 -137 Z M 150 -40 L 244 -40 L 396 -230 L 396 -347 Z M 275 -40 L 369 -40 L 396 -74 L 396 -191 Z " id="path58"/>
<path d="M 500 24 Q 451 24 402.5 15.5 Q 354 7 310.5 -15 Q 267 -37 232 -72 Q 197 -107 175 -150.5 Q 153 -194 144.5 -242.5 Q 136 -291 136 -340 Q 136 -383 142.5 -426.5 Q 149 -470 166 -510 Q 183 -550 210.5 -584.5 Q 238 -619 274 -643.5 Q 310 -668 351.5 -682 Q 393 -696 436 -700 L 563 -827 L 605 -789 L 512 -704 Q 560 -703 607 -693.5 Q 654 -684 696.5 -661.5 Q 739 -639 772.5 -604 Q 806 -569 827 -526 Q 848 -483 856 -435.5 Q 864 -388 864 -340 Q 864 -291 855.5 -242.5 Q 847 -194 825 -150.5 Q 803 -107 768 -72 Q 733 -37 689.5 -15 Q 646 7 597.5 15.5 Q 549 24 500 24 Z M 500 -43 Q 539 -43 578.5 -50 Q 618 -57 652.5 -75.5 Q 687 -94 715 -122.5 Q 743 -151 760 -186.5 Q 777 -222 783.5 -261.5 Q 790 -301 790 -340 Q 790 -378 784 -416.5 Q 778 -455 761.5 -489.5 Q 745 -524 719 -553 Q 693 -582 659.5 -601 Q 626 -620 588.5 -628 Q 551 -636 512 -637 L 605 -552 L 563 -514 L 443 -634 Q 409 -629 376 -617 Q 343 -605 315 -584.5 Q 287 -564 266 -536 Q 245 -508 232.5 -476 Q 220 -444 215 -409.5 Q 210 -375 210 -340 Q 210 -301 216.5 -261.5 Q 223 -222 240 -186.5 Q 257 -151 285 -122.5 Q 313 -94 347.5 -75.5 Q 382 -57 421.5 -50 Q 461 -43 500 -43 Z " id="path59"/>
<path d="M 500 24 Q 451 24 402.5 15.5 Q 354 7 310.5 -15 Q 267 -37 232 -72 Q 197 -107 175 -150.5 Q 153 -194 144.5 -242.5 Q 136 -291 136 -340 Q 136 -388 144 -435.5 Q 152 -483 173 -526 Q 194 -569 227.5 -604 Q 261 -639 303.5 -661.5 Q 346 -684 393 -693.5 Q 440 -703 488 -704 L 395 -789 L 437 -827 L 564 -700 Q 607 -696 648.5 -682 Q 690 -668 726 -643.5 Q 762 -619 789.5 -584.5 Q 817 -550 834 -510 Q 851 -470 857.5 -426.5 Q 864 -383 864 -340 Q 864 -291 855.5 -242.5 Q 847 -194 825 -150.5 Q 803 -107 768 -72 Q 733 -37 689.5 -15 Q 646 7 597.5 15.5 Q 549 24 500 24 Z M 500 -43 Q 539 -43 578.5 -50 Q 618 -57 652.5 -75.5 Q 687 -94 715 -122.5 Q 743 -151 760 -186.5 Q 777 -222 783.5 -261.5 Q 790 -301 790 -340 Q 790 -375 785 -409.5 Q 780 -444 767.5 -476 Q 755 -508 734 -536 Q 713 -564 685 -584.5 Q 657 -605 624 -617 Q 591 -629 557 -634 L 437 -514 L 395 -552 L 488 -637 Q 449 -636 411.5 -628 Q 374 -620 340.5 -601 Q 307 -582 281 -553 Q 255 -524 238.5 -489.5 Q 222 -455 216 -416.5 Q 210 -378 210 -340 Q 210 -301 216.5 -261.5 Q 223 -222 240 -186.5 Q 257 -151 285 -122.5 Q 313 -94 347.5 -75.5 Q 382 -57 421.5 -50 Q 461 -43 500 -43 Z " id="path60"/>
<path d="M 711 -93 L 669 -131 L 854 -307 L 58 -307 L 58 -373 L 854 -373 L 669 -549 L 711 -587 L 958 -340 Z M 286 -177 L 247 -212 L 376 -340 L 247 -468 L 286 -503 L 412 -376 L 538 -503 L 577 -468 L 448 -340 L 577 -212 L 538 -177 L 412 -304 Z " id="path61"/>
<path d="M 289 -93 L 42 -340 L 289 -587 L 331 -549 L 146 -373 L 329 -373 Q 333 -404 347 -432 Q 361 -460 385 -479 Q 409 -498 439 -505.5 Q 469 -513 500 -513 Q 531 -513 561 -505.5 Q 591 -498 615 -479 Q 639 -460 653 -432 Q 667 -404 671 -373 L 854 -373 L 669 -549 L 711 -587 L 958 -340 L 711 -93 L 669 -131 L 854 -307 L 671 -307 L 671 -305 Q 667 -275 653 -247 Q 639 -219 614.5 -200.5 Q 590 -182 560 -174.5 Q 530 -167 500 -167 Q 469 -167 439 -174.5 Q 409 -182 385 -201 Q 361 -220 347 -248 Q 333 -276 329 -307 L 146 -307 L 331 -131 Z M 390 -367 L 610 -367 Q 607 -387 598 -405 Q 589 -423 574 -435.5 Q 559 -448 539.5 -453 Q 520 -458 500 -458 Q 480 -458 460.5 -453 Q 441 -448 426 -435.5 Q 411 -423 402 -405 Q 393 -387 390 -367 Z M 500 -222 Q 520 -222 539.5 -227 Q 559 -232 574 -244.5 Q 589 -257 598 -275 Q 607 -293 610 -313 L 390 -313 Q 393 -293 402 -275 Q 411 -257 426 -244.5 Q 441 -232 460.5 -227 Q 480 -222 500 -222 Z " id="path62"/>
<path d="M 711 -93 L 666 -129 L 828 -307 L 42 -307 L 289 -587 L 334 -551 L 172 -373 L 958 -373 Z " id="path63"/>
<path d="M 289 -93 L 42 -373 L 828 -373 L 666 -551 L 711 -587 L 958 -307 L 172 -307 L 334 -129 Z " id="path64"/>
<path d="M 533 118 L 253 -129 L 289 -174 L 467 -12 L 467 -798 L 747 -551 L 711 -506 L 533 -668 Z " id="path65"/>
<path d="M 467 118 L 467 -668 L 289 -506 L 253 -551 L 533 -798 L 533 -12 L 711 -174 L 747 -129 Z " id="path66"/>
<path d="M 42 -307 L 289 -587 L 334 -551 L 172 -373 L 828 -373 L 666 -551 L 711 -587 L 958 -307 Z " id="path67"/>
<path d="M 467 118 L 467 -798 L 747 -551 L 711 -506 L 533 -668 L 533 -12 L 711 -174 L 747 -129 Z " id="path68"/>
<path d="M 711 -93 L 666 -129 L 828 -307 L 172 -307 L 334 -129 L 289 -93 L 42 -373 L 958 -373 Z " id="path69"/>
<path d="M 533 118 L 253 -129 L 289 -174 L 467 -12 L 467 -668 L 289 -506 L 253 -551 L 533 -798 Z " id="path70"/>
<path d="M 96 -93 L 27 -93 L 27 -587 L 96 -587 Z M 942 -307 L 104 -307 L 162 -373 L 163 -373 L 352 -587 L 396 -551 L 234 -373 L 942 -373 Z " id="path71"/>
<path d="M 904 -93 L 904 -587 L 973 -587 L 973 -93 Z M 896 -307 L 58 -307 L 58 -373 L 766 -373 L 604 -551 L 648 -587 L 837 -373 L 838 -373 Z " id="path72"/>
<path d="M 253 -744 L 253 -813 L 747 -813 L 747 -744 Z M 467 102 L 467 -736 L 533 -678 L 533 -677 L 747 -488 L 711 -444 L 533 -606 L 533 102 Z " id="path73"/>
<path d="M 467 56 L 467 -782 L 533 -782 L 533 -74 L 711 -236 L 747 -192 L 533 -3 L 533 -2 Z M 253 133 L 253 64 L 747 64 L 747 133 Z " id="path74"/>
<path d="M 96 -93 L 27 -93 L 27 -587 L 96 -587 Z M 352 -93 L 163 -307 L 162 -307 L 104 -373 L 942 -373 L 942 -307 L 234 -307 L 396 -129 Z " id="path75"/>
<path d="M 904 -93 L 904 -587 L 973 -587 L 973 -93 Z M 648 -93 L 604 -129 L 766 -307 L 58 -307 L 58 -373 L 896 -373 L 838 -307 L 837 -307 Z " id="path76"/>
<path d="M 253 -744 L 253 -813 L 747 -813 L 747 -744 Z M 467 102 L 467 -606 L 289 -444 L 253 -488 L 467 -677 L 467 -678 L 533 -736 L 533 102 Z " id="path77"/>
<path d="M 533 56 L 467 -2 L 467 -3 L 253 -192 L 289 -236 L 467 -74 L 467 -782 L 533 -782 Z M 253 133 L 253 64 L 747 64 L 747 133 Z " id="path78"/>
<path d="M 873 -93 L 873 -307 L 42 -307 L 289 -587 L 334 -551 L 172 -373 L 873 -373 L 873 -587 L 942 -587 L 942 -93 Z " id="path79"/>
<path d="M 127 -93 L 58 -93 L 58 -587 L 127 -587 L 127 -373 L 828 -373 L 666 -551 L 711 -587 L 958 -307 L 127 -307 Z " id="path80"/>
<path d="M 747 102 L 253 102 L 253 33 L 467 33 L 467 -798 L 747 -551 L 711 -506 L 533 -668 L 533 33 L 747 33 Z " id="path81"/>
<path d="M 467 118 L 467 -713 L 253 -713 L 253 -782 L 747 -782 L 747 -713 L 533 -713 L 533 -12 L 711 -174 L 747 -129 Z " id="path82"/>
<path d="M 289 -93 L 42 -373 L 873 -373 L 873 -587 L 942 -587 L 942 -93 L 873 -93 L 873 -307 L 172 -307 L 334 -129 Z " id="path83"/>
<path d="M 711 -93 L 666 -129 L 828 -307 L 127 -307 L 127 -93 L 58 -93 L 58 -587 L 127 -587 L 127 -373 L 958 -373 Z " id="path84"/>
<path d="M 747 102 L 253 102 L 253 33 L 467 33 L 467 -668 L 289 -506 L 253 -551 L 533 -798 L 533 33 L 747 33 Z " id="path85"/>
<path d="M 533 118 L 253 -129 L 289 -174 L 467 -12 L 467 -713 L 253 -713 L 253 -782 L 747 -782 L 747 -713 L 533 -713 Z " id="path86"/>
<path d="M 289 31 L 42 -249 L 942 -249 L 942 -183 L 172 -183 L 334 -5 Z M 942 -431 L 42 -431 L 289 -711 L 334 -675 L 172 -497 L 942 -497 Z " id="path87"/>
<path d="M 343 102 L 343 -668 L 165 -506 L 129 -551 L 409 -798 L 409 102 Z M 591 102 L 591 -798 L 871 -551 L 835 -506 L 657 -668 L 657 102 Z " id="path88"/>
<path d="M 711 31 L 666 -5 L 828 -183 L 58 -183 L 58 -249 L 958 -249 Z M 58 -431 L 58 -497 L 828 -497 L 666 -675 L 711 -711 L 958 -431 Z " id="path89"/>
<path d="M 409 118 L 129 -129 L 165 -174 L 343 -12 L 343 -782 L 409 -782 Z M 591 118 L 591 -782 L 657 -782 L 657 -12 L 835 -174 L 871 -129 Z " id="path90"/>
<path d="M 343 102 L 343 -668 L 165 -506 L 129 -551 L 409 -798 L 409 102 Z M 591 118 L 591 -782 L 657 -782 L 657 -12 L 835 -174 L 871 -129 Z " id="path91"/>
<path d="M 409 118 L 129 -129 L 165 -174 L 343 -12 L 343 -782 L 409 -782 Z M 591 102 L 591 -798 L 871 -551 L 835 -506 L 657 -668 L 657 102 Z " id="path92"/>
</defs>
<g>
<g data-source-text="0" fill="#dee4e3" transform="translate(174 41.292) rotate(0) scale(0.023999998)">
<use href="#path1" transform="translate(0 0)"/>
</g>
</g>
<g>
<g data-source-text="1" fill="#dee4e3" transform="translate(246 41.292) rotate(0) scale(0.023999998)">
<use href="#path2" transform="translate(0 0)"/>
</g>
</g>
<g>
<g data-source-text="2" fill="#dee4e3" transform="translate(318 41.292) rotate(0) scale(0.023999998)">
<use href="#path3" transform="translate(0 0)"/>
</g>
</g>
<g>
<g data-source-text="3" fill="#dee4e3" transform="translate(390 41.292) rotate(0) scale(0.023999998)">
<use href="#path4" transform="translate(0 0)"/>
</g>
</g>
<g>
<g data-source-text="4" fill="#dee4e3" transform="translate(462 41.292) rotate(0) scale(0.023999998)">
<use href="#path5" transform="translate(0 0)"/>
</g>
</g>
<g>
<g data-source-text="5" fill="#dee4e3" transform="translate(534 41.292) rotate(0) scale(0.023999998)">
<use href="#path6" transform="translate(0 0)"/>
</g>
</g>
<g>
<g data-source-text="6" fill="#dee4e3" transform="translate(606 41.292) rotate(0) scale(0.023999998)">
<use href="#path7" transform="translate(0 0)"/>
</g>
</g>
<g>
<g data-source-text="7" fill="#dee4e3" transform="translate(678 41.292) rotate(0) scale(0.023999998)">
<use href="#path8" transform="translate(0 0)"/>
</g>
</g>
<g>
<g data-source-text="8" fill="#dee4e3" transform="translate(750 41.292) rotate(0) scale(0.023999998)">
<use href="#path9" transform="translate(0 0)"/>
</g>
</g>
<g>
<g data-source-text="9" fill="#dee4e3" transform="translate(822 41.292) rotate(0) scale(0.023999998)">
<use href="#path10" transform="translate(0 0)"/>
</g>
</g>
<g>
<g data-source-text="A" fill="#dee4e3" transform="translate(894 41.292) rotate(0) scale(0.023999998)">
<use href="#path11" transform="translate(0 0)"/>
</g>
</g>
<g>
<g data-source-text="B" fill="#dee4e3" transform="translate(966 41.292) rotate(0) scale(0.023999998)">
<use href="#path12" transform="translate(0 0)"/>
</g>
</g>
<g>
<g data-source-text="C" fill="#dee4e3" transform="translate(1038 41.292) rotate(0) scale(0.023999998)">
<use href="#path13" transform="translate(0 0)"/>
</g>
</g>
<g>
<g data-source-text="D" fill="#dee4e3" transform="translate(1110 41.292) rotate(0) scale(0.023999998)">
<use href="#path14" transform="translate(0 0)"/>
</g>
</g>
<g>
<g data-source-text="E" fill="#dee4e3" transform="translate(1182 41.292) rotate(0) scale(0.023999998)">
<use href="#path15" transform="translate(0 0)"/>
</g>
</g>
<g>
<g data-source-text="F" fill="#dee4e3" transform="translate(1254 41.292) rotate(0) scale(0.023999998)">
<use href="#path16" transform="translate(0 0)"/>
</g>
</g>
<g>
<g data-source-text="U+2900" fill="#dee4e3" transform="translate(36 113.292) rotate(0) scale(0.023999998)">
<use href="#path17" transform="translate(0 0)"/>
<use href="#path18" transform="translate(500 0)"/>
<use href="#path3" transform="translate(1000 0)"/>
<use href="#path10" transform="translate(1500 0)"/>
<use href="#path1" transform="translate(2000 0)"/>
<use href="#path1" transform="translate(2500 0)"/>
</g>
</g>
<g>
<g data-source-text="⤀" fill="#dee4e3" transform="translate(156 118.584) rotate(0) scale(0.047999997)">
<use href="#path19" transform="translate(0 0)"/>
</g>
</g>
<g>
<g data-source-text="⤁" fill="#dee4e3" transform="translate(228 118.584) rotate(0) scale(0.047999997)">
<use href="#path20" transform="translate(0 0)"/>
</g>
</g>
<g>
<g data-source-text="⤂" fill="#dee4e3" transform="translate(300 118.584) rotate(0) scale(0.047999997)">
<use href="#path21" transform="translate(0 0)"/>
</g>
</g>
<g>
<g data-source-text="⤃" fill="#dee4e3" transform="translate(372 118.584) rotate(0) scale(0.047999997)">
<use href="#path22" transform="translate(0 0)"/>
</g>
</g>
<g>
<g data-source-text="⤄" fill="#dee4e3" transform="translate(444 118.584) rotate(0) scale(0.047999997)">
<use href="#path23" transform="translate(0 0)"/>
</g>
</g>
<g>
<g data-source-text="⤅" fill="#dee4e3" transform="translate(516 118.584) rotate(0) scale(0.047999997)">
<use href="#path24" transform="translate(0 0)"/>
</g>
</g>
<g>
<g data-source-text="⤆" fill="#dee4e3" transform="translate(588 118.584) rotate(0) scale(0.047999997)">
<use href="#path25" transform="translate(0 0)"/>
</g>
</g>
<g>
<g data-source-text="⤇" fill="#dee4e3" transform="translate(660 118.584) rotate(0) scale(0.047999997)">
<use href="#path26" transform="translate(0 0)"/>
</g>
</g>
<g>
<g data-source-text="⤈" fill="#dee4e3" transform="translate(732 118.584) rotate(0) scale(0.047999997)">
<use href="#path27" transform="translate(0 0)"/>
</g>
</g>
<g>
<g data-source-text="⤉" fill="#dee4e3" transform="translate(804 118.584) rotate(0) scale(0.047999997)">
<use href="#path28" transform="translate(0 0)"/>
</g>
</g>
<g>
<g data-source-text="⤊" fill="#dee4e3" transform="translate(876 118.584) rotate(0) scale(0.047999997)">
<use href="#path29" transform="translate(0 0)"/>
</g>
</g>
<g>
<g data-source-text="⤋" fill="#dee4e3" transform="translate(948 118.584) rotate(0) scale(0.047999997)">
<use href="#path30" transform="translate(0 0)"/>
</g>
</g>
<g>
<g data-source-text="⤌" fill="#dee4e3" transform="translate(1020 118.584) rotate(0) scale(0.047999997)">
<use href="#path31" transform="translate(0 0)"/>
</g>
</g>
<g>
<g data-source-text="⤍" fill="#dee4e3" transform="translate(1092 118.584) rotate(0) scale(0.047999997)">
<use href="#path32" transform="translate(0 0)"/>
</g>
</g>
<g>
<g data-source-text="⤎" fill="#dee4e3" transform="translate(1164 118.584) rotate(0) scale(0.047999997)">
<use href="#path33" transform="translate(0 0)"/>
</g>
</g>
<g>
<g data-source-text="⤏" fill="#dee4e3" transform="translate(1236 118.584) rotate(0) scale(0.047999997)">
<use href="#path34" transform="translate(0 0)"/>
</g>
</g>
<g>
<g data-source-text="U+2910" fill="#dee4e3" transform="translate(36 185.292) rotate(0) scale(0.023999998)">
<use href="#path17" transform="translate(0 0)"/>
<use href="#path18" transform="translate(500 0)"/>
<use href="#path3" transform="translate(1000 0)"/>
<use href="#path10" transform="translate(1500 0)"/>
<use href="#path2" transform="translate(2000 0)"/>
<use href="#path1" transform="translate(2500 0)"/>
</g>
</g>
<g>
<g data-source-text="⤐" fill="#dee4e3" transform="translate(156 190.584) rotate(0) scale(0.047999997)">
<use href="#path35" transform="translate(0 0)"/>
</g>
</g>
<g>
<g data-source-text="⤑" fill="#dee4e3" transform="translate(228 190.584) rotate(0) scale(0.047999997)">
<use href="#path36" transform="translate(0 0)"/>
</g>
</g>
<g>
<g data-source-text="⤒" fill="#dee4e3" transform="translate(300 190.584) rotate(0) scale(0.047999997)">
<use href="#path37" transform="translate(0 0)"/>
</g>
</g>
<g>
<g data-source-text="⤓" fill="#dee4e3" transform="translate(372 190.584) rotate(0) scale(0.047999997)">
<use href="#path38" transform="translate(0 0)"/>
</g>
</g>
<g>
<g data-source-text="⤔" fill="#dee4e3" transform="translate(444 190.584) rotate(0) scale(0.047999997)">
<use href="#path39" transform="translate(0 0)"/>
</g>
</g>
<g>
<g data-source-text="⤕" fill="#dee4e3" transform="translate(516 190.584) rotate(0) scale(0.047999997)">
<use href="#path40" transform="translate(0 0)"/>
</g>
</g>
<g>
<g data-source-text="⤖" fill="#dee4e3" transform="translate(588 190.584) rotate(0) scale(0.047999997)">
<use href="#path41" transform="translate(0 0)"/>
</g>
</g>
<g>
<g data-source-text="⤗" fill="#dee4e3" transform="translate(660 190.584) rotate(0) scale(0.047999997)">
<use href="#path42" transform="translate(0 0)"/>
</g>
</g>
<g>
<g data-source-text="⤘" fill="#dee4e3" transform="translate(732 190.584) rotate(0) scale(0.047999997)">
<use href="#path43" transform="translate(0 0)"/>
</g>
</g>
<g>
<g data-source-text="⤙" fill="#dee4e3" transform="translate(804 190.584) rotate(0) scale(0.047999997)">
<use href="#path44" transform="translate(0 0)"/>
</g>
</g>
<g>
<g data-source-text="⤚" fill="#dee4e3" transform="translate(876 190.584) rotate(0) scale(0.047999997)">
<use href="#path45" transform="translate(0 0)"/>
</g>
</g>
<g>
<g data-source-text="⤛" fill="#dee4e3" transform="translate(948 190.584) rotate(0) scale(0.047999997)">
<use href="#path46" transform="translate(0 0)"/>
</g>
</g>
<g>
<g data-source-text="⤜" fill="#dee4e3" transform="translate(1020 190.584) rotate(0) scale(0.047999997)">
<use href="#path47" transform="translate(0 0)"/>
</g>
</g>
<g>
<g data-source-text="⤝" fill="#dee4e3" transform="translate(1092 190.584) rotate(0) scale(0.047999997)">
<use href="#path48" transform="translate(0 0)"/>
</g>
</g>
<g>
<g data-source-text="⤞" fill="#dee4e3" transform="translate(1164 190.584) rotate(0) scale(0.047999997)">
<use href="#path49" transform="translate(0 0)"/>
</g>
</g>
<g>
<g data-source-text="⤟" fill="#dee4e3" transform="translate(1236 190.584) rotate(0) scale(0.047999997)">
<use href="#path50" transform="translate(0 0)"/>
</g>
</g>
<g>
<g data-source-text="U+2920" fill="#dee4e3" transform="translate(36 257.292) rotate(0) scale(0.023999998)">
<use href="#path17" transform="translate(0 0)"/>
<use href="#path18" transform="translate(500 0)"/>
<use href="#path3" transform="translate(1000 0)"/>
<use href="#path10" transform="translate(1500 0)"/>
<use href="#path3" transform="translate(2000 0)"/>
<use href="#path1" transform="translate(2500 0)"/>
</g>
</g>
<g>
<g data-source-text="⤠" fill="#dee4e3" transform="translate(156 262.584) rotate(0) scale(0.047999997)">
<use href="#path51" transform="translate(0 0)"/>
</g>
</g>
<g>
<g data-source-text="⤡" fill="#dee4e3" transform="translate(228 262.584) rotate(0) scale(0.047999997)">
<use href="#path52" transform="translate(0 0)"/>
</g>
</g>
<g>
<g data-source-text="⤢" fill="#dee4e3" transform="translate(300 262.584) rotate(0) scale(0.047999997)">
<use href="#path53" transform="translate(0 0)"/>
</g>
</g>
<g>
<g data-source-text="⤣" fill="#dee4e3" transform="translate(372 262.584) rotate(0) scale(0.047999997)">
<use href="#path54" transform="translate(0 0)"/>
</g>
</g>
<g>
<g data-source-text="⤤" fill="#dee4e3" transform="translate(444 262.584) rotate(0) scale(0.047999997)">
<use href="#path55" transform="translate(0 0)"/>
</g>
</g>
<g>
<g data-source-text="⤥" fill="#dee4e3" transform="translate(516 262.584) rotate(0) scale(0.047999997)">
<use href="#path56" transform="translate(0 0)"/>
</g>
</g>
<g>
<g data-source-text="⤦" fill="#dee4e3" transform="translate(588 262.584) rotate(0) scale(0.047999997)">
<use href="#path57" transform="translate(0 0)"/>
</g>
</g>
<g>
<g data-source-text="" fill="#dee4e340" transform="translate(672 262.584) rotate(0) scale(0.047999997)">
<use href="#path58" transform="translate(0 0)"/>
</g>
</g>
<g>
<g data-source-text="" fill="#dee4e340" transform="translate(744 262.584) rotate(0) scale(0.047999997)">
<use href="#path58" transform="translate(0 0)"/>
</g>
</g>
<g>
<g data-source-text="" fill="#dee4e340" transform="translate(816 262.584) rotate(0) scale(0.047999997)">
<use href="#path58" transform="translate(0 0)"/>
</g>
</g>
<g>
<g data-source-text="" fill="#dee4e340" transform="translate(888 262.584) rotate(0) scale(0.047999997)">
<use href="#path58" transform="translate(0 0)"/>
</g>
</g>
<g>
<g data-source-text="" fill="#dee4e340" transform="translate(960 262.584) rotate(0) scale(0.047999997)">
<use href="#path58" transform="translate(0 0)"/>
</g>
</g>
<g>
<g data-source-text="" fill="#dee4e340" transform="translate(1032 262.584) rotate(0) scale(0.047999997)">
<use href="#path58" transform="translate(0 0)"/>
</g>
</g>
<g>
<g data-source-text="" fill="#dee4e340" transform="translate(1104 262.584) rotate(0) scale(0.047999997)">
<use href="#path58" transform="translate(0 0)"/>
</g>
</g>
<g>
<g data-source-text="" fill="#dee4e340" transform="translate(1176 262.584) rotate(0) scale(0.047999997)">
<use href="#path58" transform="translate(0 0)"/>
</g>
</g>
<g>
<g data-source-text="" fill="#dee4e340" transform="translate(1248 262.584) rotate(0) scale(0.047999997)">
<use href="#path58" transform="translate(0 0)"/>
</g>
</g>
<g>
<g data-source-text="U+2930" fill="#dee4e3" transform="translate(36 329.292) rotate(0) scale(0.023999998)">
<use href="#path17" transform="translate(0 0)"/>
<use href="#path18" transform="translate(500 0)"/>
<use href="#path3" transform="translate(1000 0)"/>
<use href="#path10" transform="translate(1500 0)"/>
<use href="#path4" transform="translate(2000 0)"/>
<use href="#path1" transform="translate(2500 0)"/>
</g>
</g>
<g>
<g data-source-text="" fill="#dee4e340" transform="translate(168 334.584) rotate(0) scale(0.047999997)">
<use href="#path58" transform="translate(0 0)"/>
</g>
</g>
<g>
<g data-source-text="" fill="#dee4e340" transform="translate(240 334.584) rotate(0) scale(0.047999997)">
<use href="#path58" transform="translate(0 0)"/>
</g>
</g>
<g>
<g data-source-text="" fill="#dee4e340" transform="translate(312 334.584) rotate(0) scale(0.047999997)">
<use href="#path58" transform="translate(0 0)"/>
</g>
</g>
<g>
<g data-source-text="" fill="#dee4e340" transform="translate(384 334.584) rotate(0) scale(0.047999997)">
<use href="#path58" transform="translate(0 0)"/>
</g>
</g>
<g>
<g data-source-text="" fill="#dee4e340" transform="translate(456 334.584) rotate(0) scale(0.047999997)">
<use href="#path58" transform="translate(0 0)"/>
</g>
</g>
<g>
<g data-source-text="" fill="#dee4e340" transform="translate(528 334.584) rotate(0) scale(0.047999997)">
<use href="#path58" transform="translate(0 0)"/>
</g>
</g>
<g>
<g data-source-text="" fill="#dee4e340" transform="translate(600 334.584) rotate(0) scale(0.047999997)">
<use href="#path58" transform="translate(0 0)"/>
</g>
</g>
<g>
<g data-source-text="" fill="#dee4e340" transform="translate(672 334.584) rotate(0) scale(0.047999997)">
<use href="#path58" transform="translate(0 0)"/>
</g>
</g>
<g>
<g data-source-text="" fill="#dee4e340" transform="translate(744 334.584) rotate(0) scale(0.047999997)">
<use href="#path58" transform="translate(0 0)"/>
</g>
</g>
<g>
<g data-source-text="" fill="#dee4e340" transform="translate(816 334.584) rotate(0) scale(0.047999997)">
<use href="#path58" transform="translate(0 0)"/>
</g>
</g>
<g>
<g data-source-text="" fill="#dee4e340" transform="translate(888 334.584) rotate(0) scale(0.047999997)">
<use href="#path58" transform="translate(0 0)"/>
</g>
</g>
<g>
<g data-source-text="" fill="#dee4e340" transform="translate(960 334.584) rotate(0) scale(0.047999997)">
<use href="#path58" transform="translate(0 0)"/>
</g>
</g>
<g>
<g data-source-text="" fill="#dee4e340" transform="translate(1032 334.584) rotate(0) scale(0.047999997)">
<use href="#path58" transform="translate(0 0)"/>
</g>
</g>
<g>
<g data-source-text="" fill="#dee4e340" transform="translate(1104 334.584) rotate(0) scale(0.047999997)">
<use href="#path58" transform="translate(0 0)"/>
</g>
</g>
<g>
<g data-source-text="" fill="#dee4e340" transform="translate(1176 334.584) rotate(0) scale(0.047999997)">
<use href="#path58" transform="translate(0 0)"/>
</g>
</g>
<g>
<g data-source-text="" fill="#dee4e340" transform="translate(1248 334.584) rotate(0) scale(0.047999997)">
<use href="#path58" transform="translate(0 0)"/>
</g>
</g>
<g>
<g data-source-text="U+2940" fill="#dee4e3" transform="translate(36 401.292) rotate(0) scale(0.023999998)">
<use href="#path17" transform="translate(0 0)"/>
<use href="#path18" transform="translate(500 0)"/>
<use href="#path3" transform="translate(1000 0)"/>
<use href="#path10" transform="translate(1500 0)"/>
<use href="#path5" transform="translate(2000 0)"/>
<use href="#path1" transform="translate(2500 0)"/>
</g>
</g>
<g>
<g data-source-text="⥀" fill="#dee4e3" transform="translate(156 406.584) rotate(0) scale(0.047999997)">
<use href="#path59" transform="translate(0 0)"/>
</g>
</g>
<g>
<g data-source-text="⥁" fill="#dee4e3" transform="translate(228 406.584) rotate(0) scale(0.047999997)">
<use href="#path60" transform="translate(0 0)"/>
</g>
</g>
<g>
<g data-source-text="" fill="#dee4e340" transform="translate(312 406.584) rotate(0) scale(0.047999997)">
<use href="#path58" transform="translate(0 0)"/>
</g>
</g>
<g>
<g data-source-text="" fill="#dee4e340" transform="translate(384 406.584) rotate(0) scale(0.047999997)">
<use href="#path58" transform="translate(0 0)"/>
</g>
</g>
<g>
<g data-source-text="" fill="#dee4e340" transform="translate(456 406.584) rotate(0) scale(0.047999997)">
<use href="#path58" transform="translate(0 0)"/>
</g>
</g>
<g>
<g data-source-text="" fill="#dee4e340" transform="translate(528 406.584) rotate(0) scale(0.047999997)">
<use href="#path58" transform="translate(0 0)"/>
</g>
</g>
<g>
<g data-source-text="" fill="#dee4e340" transform="translate(600 406.584) rotate(0) scale(0.047999997)">
<use href="#path58" transform="translate(0 0)"/>
</g>
</g>
<g>
<g data-source-text="⥇" fill="#dee4e3" transform="translate(660 406.584) rotate(0) scale(0.047999997)">
<use href="#path61" transform="translate(0 0)"/>
</g>
</g>
<g>
<g data-source-text="⥈" fill="#dee4e3" transform="translate(732 406.584) rotate(0) scale(0.047999997)">
<use href="#path62" transform="translate(0 0)"/>
</g>
</g>
<g>
<g data-source-text="" fill="#dee4e340" transform="translate(816 406.584) rotate(0) scale(0.047999997)">
<use href="#path58" transform="translate(0 0)"/>
</g>
</g>
<g>
<g data-source-text="⥊" fill="#dee4e3" transform="translate(876 406.584) rotate(0) scale(0.047999997)">
<use href="#path63" transform="translate(0 0)"/>
</g>
</g>
<g>
<g data-source-text="⥋" fill="#dee4e3" transform="translate(948 406.584) rotate(0) scale(0.047999997)">
<use href="#path64" transform="translate(0 0)"/>
</g>
</g>
<g>
<g data-source-text="⥌" fill="#dee4e3" transform="translate(1020 406.584) rotate(0) scale(0.047999997)">
<use href="#path65" transform="translate(0 0)"/>
</g>
</g>
<g>
<g data-source-text="⥍" fill="#dee4e3" transform="translate(1092 406.584) rotate(0) scale(0.047999997)">
<use href="#path66" transform="translate(0 0)"/>
</g>
</g>
<g>
<g data-source-text="⥎" fill="#dee4e3" transform="translate(1164 406.584) rotate(0) scale(0.047999997)">
<use href="#path67" transform="translate(0 0)"/>
</g>
</g>
<g>
<g data-source-text="⥏" fill="#dee4e3" transform="translate(1236 406.584) rotate(0) scale(0.047999997)">
<use href="#path68" transform="translate(0 0)"/>
</g>
</g>
<g>
<g data-source-text="U+2950" fill="#dee4e3" transform="translate(36 473.292) rotate(0) scale(0.023999998)">
<use href="#path17" transform="translate(0 0)"/>
<use href="#path18" transform="translate(500 0)"/>
<use href="#path3" transform="translate(1000 0)"/>
<use href="#path10" transform="translate(1500 0)"/>
<use href="#path6" transform="translate(2000 0)"/>
<use href="#path1" transform="translate(2500 0)"/>
</g>
</g>
<g>
<g data-source-text="⥐" fill="#dee4e3" transform="translate(156 478.584) rotate(0) scale(0.047999997)">
<use href="#path69" transform="translate(0 0)"/>
</g>
</g>
<g>
<g data-source-text="⥑" fill="#dee4e3" transform="translate(228 478.584) rotate(0) scale(0.047999997)">
<use href="#path70" transform="translate(0 0)"/>
</g>
</g>
<g>
<g data-source-text="⥒" fill="#dee4e3" transform="translate(300 478.584) rotate(0) scale(0.047999997)">
<use href="#path71" transform="translate(0 0)"/>
</g>
</g>
<g>
<g data-source-text="⥓" fill="#dee4e3" transform="translate(372 478.584) rotate(0) scale(0.047999997)">
<use href="#path72" transform="translate(0 0)"/>
</g>
</g>
<g>
<g data-source-text="⥔" fill="#dee4e3" transform="translate(444 478.584) rotate(0) scale(0.047999997)">
<use href="#path73" transform="translate(0 0)"/>
</g>
</g>
<g>
<g data-source-text="⥕" fill="#dee4e3" transform="translate(516 478.584) rotate(0) scale(0.047999997)">
<use href="#path74" transform="translate(0 0)"/>
</g>
</g>
<g>
<g data-source-text="⥖" fill="#dee4e3" transform="translate(588 478.584) rotate(0) scale(0.047999997)">
<use href="#path75" transform="translate(0 0)"/>
</g>
</g>
<g>
<g data-source-text="⥗" fill="#dee4e3" transform="translate(660 478.584) rotate(0) scale(0.047999997)">
<use href="#path76" transform="translate(0 0)"/>
</g>
</g>
<g>
<g data-source-text="⥘" fill="#dee4e3" transform="translate(732 478.584) rotate(0) scale(0.047999997)">
<use href="#path77" transform="translate(0 0)"/>
</g>
</g>
<g>
<g data-source-text="⥙" fill="#dee4e3" transform="translate(804 478.584) rotate(0) scale(0.047999997)">
<use href="#path78" transform="translate(0 0)"/>
</g>
</g>
<g>
<g data-source-text="⥚" fill="#dee4e3" transform="translate(876 478.584) rotate(0) scale(0.047999997)">
<use href="#path79" transform="translate(0 0)"/>
</g>
</g>
<g>
<g data-source-text="⥛" fill="#dee4e3" transform="translate(948 478.584) rotate(0) scale(0.047999997)">
<use href="#path80" transform="translate(0 0)"/>
</g>
</g>
<g>
<g data-source-text="⥜" fill="#dee4e3" transform="translate(1020 478.584) rotate(0) scale(0.047999997)">
<use href="#path81" transform="translate(0 0)"/>
</g>
</g>
<g>
<g data-source-text="⥝" fill="#dee4e3" transform="translate(1092 478.584) rotate(0) scale(0.047999997)">
<use href="#path82" transform="translate(0 0)"/>
</g>
</g>
<g>
<g data-source-text="⥞" fill="#dee4e3" transform="translate(1164 478.584) rotate(0) scale(0.047999997)">
<use href="#path83" transform="translate(0 0)"/>
</g>
</g>
<g>
<g data-source-text="⥟" fill="#dee4e3" transform="translate(1236 478.584) rotate(0) scale(0.047999997)">
<use href="#path84" transform="translate(0 0)"/>
</g>
</g>
<g>
<g data-source-text="U+2960" fill="#dee4e3" transform="translate(36 545.292) rotate(0) scale(0.023999998)">
<use href="#path17" transform="translate(0 0)"/>
<use href="#path18" transform="translate(500 0)"/>
<use href="#path3" transform="translate(1000 0)"/>
<use href="#path10" transform="translate(1500 0)"/>
<use href="#path7" transform="translate(2000 0)"/>
<use href="#path1" transform="translate(2500 0)"/>
</g>
</g>
<g>
<g data-source-text="⥠" fill="#dee4e3" transform="translate(156 550.584) rotate(0) scale(0.047999997)">
<use href="#path85" transform="translate(0 0)"/>
</g>
</g>
<g>
<g data-source-text="⥡" fill="#dee4e3" transform="translate(228 550.584) rotate(0) scale(0.047999997)">
<use href="#path86" transform="translate(0 0)"/>
</g>
</g>
<g>
<g data-source-text="⥢" fill="#dee4e3" transform="translate(300 550.584) rotate(0) scale(0.047999997)">
<use href="#path87" transform="translate(0 0)"/>
</g>
</g>
<g>
<g data-source-text="⥣" fill="#dee4e3" transform="translate(372 550.584) rotate(0) scale(0.047999997)">
<use href="#path88" transform="translate(0 0)"/>
</g>
</g>
<g>
<g data-source-text="⥤" fill="#dee4e3" transform="translate(444 550.584) rotate(0) scale(0.047999997)">
<use href="#path89" transform="translate(0 0)"/>
</g>
</g>
<g>
<g data-source-text="⥥" fill="#dee4e3" transform="translate(516 550.584) rotate(0) scale(0.047999997)">
<use href="#path90" transform="translate(0 0)"/>
</g>
</g>
<g>
<g data-source-text="" fill="#dee4e340" transform="translate(600 550.584) rotate(0) scale(0.047999997)">
<use href="#path58" transform="translate(0 0)"/>
</g>
</g>
<g>
<g data-source-text="" fill="#dee4e340" transform="translate(672 550.584) rotate(0) scale(0.047999997)">
<use href="#path58" transform="translate(0 0)"/>
</g>
</g>
<g>
<g data-source-text="" fill="#dee4e340" transform="translate(744 550.584) rotate(0) scale(0.047999997)">
<use href="#path58" transform="translate(0 0)"/>
</g>
</g>
<g>
<g data-source-text="" fill="#dee4e340" transform="translate(816 550.584) rotate(0) scale(0.047999997)">
<use href="#path58" transform="translate(0 0)"/>
</g>
</g>
<g>
<g data-source-text="" fill="#dee4e340" transform="translate(888 550.584) rotate(0) scale(0.047999997)">
<use href="#path58" transform="translate(0 0)"/>
</g>
</g>
<g>
<g data-source-text="" fill="#dee4e340" transform="translate(960 550.584) rotate(0) scale(0.047999997)">
<use href="#path58" transform="translate(0 0)"/>
</g>
</g>
<g>
<g data-source-text="" fill="#dee4e340" transform="translate(1032 550.584) rotate(0) scale(0.047999997)">
<use href="#path58" transform="translate(0 0)"/>
</g>
</g>
<g>
<g data-source-text="" fill="#dee4e340" transform="translate(1104 550.584) rotate(0) scale(0.047999997)">
<use href="#path58" transform="translate(0 0)"/>
</g>
</g>
<g>
<g data-source-text="⥮" fill="#dee4e3" transform="translate(1164 550.584) rotate(0) scale(0.047999997)">
<use href="#path91" transform="translate(0 0)"/>
</g>
</g>
<g>
<g data-source-text="⥯" fill="#dee4e3" transform="translate(1236 550.584) rotate(0) scale(0.047999997)">
<use href="#path92" transform="translate(0 0)"/>
</g>
</g>
<g>
<g data-source-text="U+2970" fill="#dee4e3" transform="translate(36 617.292) rotate(0) scale(0.023999998)">
<use href="#path17" transform="translate(0 0)"/>
<use href="#path18" transform="translate(500 0)"/>
<use href="#path3" transform="translate(1000 0)"/>
<use href="#path10" transform="translate(1500 0)"/>
<use href="#path8" transform="translate(2000 0)"/>
<use href="#path1" transform="translate(2500 0)"/>
</g>
</g>
<g>
<g data-source-text="" fill="#dee4e340" transform="translate(168 622.584) rotate(0) scale(0.047999997)">
<use href="#path58" transform="translate(0 0)"/>
</g>
</g>
<g>
<g data-source-text="" fill="#dee4e340" transform="translate(240 622.584) rotate(0) scale(0.047999997)">
<use href="#path58" transform="translate(0 0)"/>
</g>
</g>
<g>
<g data-source-text="" fill="#dee4e340" transform="translate(312 622.584) rotate(0) scale(0.047999997)">
<use href="#path58" transform="translate(0 0)"/>
</g>
</g>
<g>
<g data-source-text="" fill="#dee4e340" transform="translate(384 622.584) rotate(0) scale(0.047999997)">
<use href="#path58" transform="translate(0 0)"/>
</g>
</g>
<g>
<g data-source-text="" fill="#dee4e340" transform="translate(456 622.584) rotate(0) scale(0.047999997)">
<use href="#path58" transform="translate(0 0)"/>
</g>
</g>
<g>
<g data-source-text="" fill="#dee4e340" transform="translate(528 622.584) rotate(0) scale(0.047999997)">
<use href="#path58" transform="translate(0 0)"/>
</g>
</g>
<g>
<g data-source-text="" fill="#dee4e340" transform="translate(600 622.584) rotate(0) scale(0.047999997)">
<use href="#path58" transform="translate(0 0)"/>
</g>
</g>
<g>
<g data-source-text="" fill="#dee4e340" transform="translate(672 622.584) rotate(0) scale(0.047999997)">
<use href="#path58" transform="translate(0 0)"/>
</g>
</g>
<g>
<g data-source-text="" fill="#dee4e340" transform="translate(744 622.584) rotate(0) scale(0.047999997)">
<use href="#path58" transform="translate(0 0)"/>
</g>
</g>
<g>
<g data-source-text="" fill="#dee4e340" transform="translate(816 622.584) rotate(0) scale(0.047999997)">
<use href="#path58" transform="translate(0 0)"/>
</g>
</g>
<g>
<g data-source-text="" fill="#dee4e340" transform="translate(888 622.584) rotate(0) scale(0.047999997)">
<use href="#path58" transform="translate(0 0)"/>
</g>
</g>
<g>
<g data-source-text="" fill="#dee4e340" transform="translate(960 622.584) rotate(0) scale(0.047999997)">
<use href="#path58" transform="translate(0 0)"/>
</g>
</g>
<g>
<g data-source-text="" fill="#dee4e340" transform="translate(1032 622.584) rotate(0) scale(0.047999997)">
<use href="#path58" transform="translate(0 0)"/>
</g>
</g>
<g>
<g data-source-text="" fill="#dee4e340" transform="translate(1104 622.584) rotate(0) scale(0.047999997)">
<use href="#path58" transform="translate(0 0)"/>
</g>
</g>
<g>
<g data-source-text="" fill="#dee4e340" transform="translate(1176 622.584) rotate(0) scale(0.047999997)">
<use href="#path58" transform="translate(0 0)"/>
</g>
</g>
<g>
<g data-source-text="" fill="#dee4e340" transform="translate(1248 622.584) rotate(0) scale(0.047999997)">
<use href="#path58" transform="translate(0 0)"/>
</g>
</g>
</svg>