<?xml version="1.0" encoding="UTF-8" standalone="no"?>
<svg height="288" viewBox="0 0 1296 288" width="1296" xmlns="http://www.w3.org/2000/svg">
<defs>
<path d="M 250 8 Q 223 8 196 3 Q 169 -2 145 -15 Q 121 -28 102.5 -48.5 Q 84 -69 72.5 -94 Q 61 -119 56.5 -146 Q 52 -173 52 -200 L 52 -535 Q 52 -562 56.5 -589 Q 61 -616 72.5 -641 Q 84 -666 102.5 -686.5 Q 121 -707 145 -720 Q 169 -733 196 -738 Q 223 -743 250 -743 Q 277 -743 304 -738 Q 331 -733 355 -720 Q 379 -707 397.5 -686.5 Q 416 -666 427.5 -641 Q 439 -616 443.5 -589 Q 448 -562 448 -535 L 448 -200 Q 448 -173 443.5 -146 Q 439 -119 427.5 -94 Q 416 -69 397.5 -48.5 Q 379 -28 355 -15 Q 331 -2 304 3 Q 277 8 250 8 Z M 152 -338 L 348 -493 L 348 -535 Q 348 -557 343 -579 Q 338 -601 325.5 -618.5 Q 313 -636 292.5 -645.5 Q 272 -655 250 -655 Q 228 -655 207.5 -645.5 Q 187 -636 174.5 -618.5 Q 162 -601 157 -579 Q 152 -557 152 -535 Z M 250 -80 Q 272 -80 292.5 -89.5 Q 313 -99 325.5 -116.5 Q 338 -134 343 -156 Q 348 -178 348 -200 L 348 -397 L 152 -242 L 152 -200 Q 152 -178 157 -156 Q 162 -134 174.5 -116.5 Q 187 -99 207.5 -89.5 Q 228 -80 250 -80 Z " id="path1"/>
<path d="M 230 0 L 230 -632 L 110 -528 L 55 -584 L 230 -735 L 330 -735 L 330 0 Z " id="path2"/>
<path d="M 60 0 L 60 -1 Q 60 -27 61 -54 Q 62 -81 65.5 -107 Q 69 -133 77 -158.5 Q 85 -184 96.5 -208 Q 108 -232 123 -253.5 Q 138 -275 156 -294.5 Q 174 -314 194 -331 Q 214 -348 235.5 -364 Q 257 -380 277.5 -397 Q 298 -414 313 -435.5 Q 328 -457 336 -483 Q 344 -509 344 -535 Q 344 -557 339.5 -578 Q 335 -599 323.5 -617 Q 312 -635 292 -645 Q 272 -655 251 -655 Q 231 -655 212.5 -647.5 Q 194 -640 181.5 -625 Q 169 -610 163.5 -591 Q 158 -572 158 -552 L 158 -548 L 58 -548 L 58 -555 Q 58 -581 63.5 -606 Q 69 -631 81 -653 Q 93 -675 111.5 -693 Q 130 -711 152.5 -722.5 Q 175 -734 200.5 -738.5 Q 226 -743 251 -743 Q 278 -743 304.5 -737.5 Q 331 -732 354.5 -719 Q 378 -706 396 -685.5 Q 414 -665 425 -640.5 Q 436 -616 440 -589 Q 444 -562 444 -535 Q 444 -501 435 -468 Q 426 -435 407.5 -406 Q 389 -377 364 -353.5 Q 339 -330 312.5 -308.5 Q 286 -287 261 -264 Q 236 -241 216 -213 Q 196 -185 183 -153.5 Q 170 -122 165 -88 L 440 -88 L 440 0 Z " id="path3"/>
<path d="M 253 8 Q 227 8 201 4 Q 175 -0 151 -11.5 Q 127 -23 107.5 -40.5 Q 88 -58 75.5 -81 Q 63 -104 56.5 -129.5 Q 50 -155 50 -181 L 50 -187 L 150 -187 L 150 -184 Q 150 -163 157 -143 Q 164 -123 178 -108 Q 192 -93 212 -86.5 Q 232 -80 253 -80 Q 275 -80 296 -88.5 Q 317 -97 330.5 -114.5 Q 344 -132 350 -154 Q 356 -176 356 -198 Q 356 -217 352 -235.5 Q 348 -254 339 -271 Q 330 -288 316.5 -301 Q 303 -314 286 -322 Q 269 -330 250 -332 Q 231 -334 212 -334 L 212 -422 Q 229 -422 246 -424 Q 263 -426 278.5 -433 Q 294 -440 306 -452.5 Q 318 -465 325.5 -480.5 Q 333 -496 336.5 -513 Q 340 -530 340 -547 Q 340 -566 335.5 -585.5 Q 331 -605 320 -621.5 Q 309 -638 291 -646.5 Q 273 -655 253 -655 Q 234 -655 216 -647 Q 198 -639 187 -624 Q 176 -609 171 -590 Q 166 -571 166 -553 L 166 -548 L 66 -548 L 66 -556 Q 66 -581 71.5 -605.5 Q 77 -630 88 -652 Q 99 -674 116.5 -692.5 Q 134 -711 156.5 -722.5 Q 179 -734 203.5 -738.5 Q 228 -743 253 -743 Q 278 -743 303.5 -738 Q 329 -733 351 -721 Q 373 -709 390.5 -690 Q 408 -671 419 -648 Q 430 -625 435 -600 Q 440 -575 440 -550 Q 440 -524 434 -498.5 Q 428 -473 416 -450.5 Q 404 -428 385 -409.5 Q 366 -391 343 -379 Q 370 -368 391.5 -348.5 Q 413 -329 427.5 -304.5 Q 442 -280 449 -252 Q 456 -224 456 -196 Q 456 -168 450 -141.5 Q 444 -115 432 -91 Q 420 -67 401 -47 Q 382 -27 358 -14.5 Q 334 -2 307 3 Q 280 8 253 8 Z " id="path4"/>
<path d="M 282 0 L 282 -188 L 52 -188 L 52 -275 L 276 -735 L 377 -735 L 152 -275 L 282 -275 L 282 -435 L 383 -435 L 383 -275 L 440 -275 L 440 -188 L 383 -188 L 383 0 Z " id="path5"/>
<path d="M 252 8 Q 227 8 202.5 3.5 Q 178 -1 155.5 -12 Q 133 -23 114.5 -41 Q 96 -59 84 -80.5 Q 72 -102 65.5 -126.5 Q 59 -151 58 -176 L 159 -176 Q 160 -158 166.5 -139.5 Q 173 -121 185.5 -107 Q 198 -93 216 -86.5 Q 234 -80 252 -80 Q 269 -80 285 -87 Q 301 -94 312.5 -107 Q 324 -120 330.5 -135.5 Q 337 -151 341 -167.5 Q 345 -184 346.5 -201 Q 348 -218 348 -235 Q 348 -252 346.5 -269 Q 345 -286 341.5 -302.5 Q 338 -319 331.5 -334.5 Q 325 -350 314.5 -363 Q 304 -376 288 -383.5 Q 272 -391 256 -391 Q 240 -391 224 -387 Q 208 -383 195.5 -373.5 Q 183 -364 176 -349.5 Q 169 -335 168 -319 L 68 -319 L 68 -735 L 421 -735 L 421 -647 L 168 -647 L 168 -464 Q 189 -472 211 -475 Q 233 -478 256 -478 Q 285 -478 313.5 -470.5 Q 342 -463 365.5 -445.5 Q 389 -428 405.5 -403 Q 422 -378 431.5 -350.5 Q 441 -323 444.5 -294 Q 448 -265 448 -235 Q 448 -206 444.5 -176.5 Q 441 -147 431 -119 Q 421 -91 404.5 -66.5 Q 388 -42 364 -24.5 Q 340 -7 311 0.5 Q 282 8 252 8 Z " id="path6"/>
<path d="M 250 8 Q 221 8 192.5 1.5 Q 164 -5 140 -21 Q 116 -37 98.5 -60.5 Q 81 -84 70.5 -111 Q 60 -138 56 -166.5 Q 52 -195 52 -224 Q 52 -268 59.5 -311 Q 67 -354 81 -395.5 Q 95 -437 113 -477 Q 131 -517 150 -556 L 238 -735 L 347 -735 L 240 -517 Q 228 -492 216 -467 Q 204 -442 194 -416 Q 212 -436 238.5 -446 Q 265 -456 292 -456 Q 318 -456 343.5 -447 Q 369 -438 387.5 -419.5 Q 406 -401 418 -377 Q 430 -353 436.5 -328 Q 443 -303 445.5 -276.5 Q 448 -250 448 -224 Q 448 -195 444 -166.5 Q 440 -138 429.5 -111 Q 419 -84 401.5 -60.5 Q 384 -37 360 -21 Q 336 -5 307.5 1.5 Q 279 8 250 8 Z M 250 -80 Q 266 -80 282 -85.5 Q 298 -91 309.5 -102.5 Q 321 -114 328.5 -129 Q 336 -144 340.5 -159.5 Q 345 -175 346.5 -191.5 Q 348 -208 348 -224 Q 348 -240 346.5 -256.5 Q 345 -273 340.5 -289 Q 336 -305 328.5 -319.5 Q 321 -334 309.5 -345.5 Q 298 -357 282 -362.5 Q 266 -368 250 -368 Q 235 -368 221 -363.5 Q 207 -359 195.5 -349.5 Q 184 -340 176 -327.5 Q 168 -315 163.5 -301 Q 159 -287 156.5 -272.5 Q 154 -258 153 -243 Q 153 -238 152.5 -233.5 Q 152 -229 152 -224 Q 152 -208 153.5 -191.5 Q 155 -175 159.5 -159.5 Q 164 -144 171.5 -129 Q 179 -114 190.5 -102.5 Q 202 -91 218 -85.5 Q 234 -80 250 -80 Z " id="path7"/>
<path d="M 138 0 L 336 -647 L 60 -647 L 60 -735 L 440 -735 L 440 -647 L 242 0 Z " id="path8"/>
<path d="M 250 8 Q 225 8 200 4 Q 175 -0 152 -10 Q 129 -20 109.5 -37 Q 90 -54 77.5 -75.5 Q 65 -97 58.5 -121.5 Q 52 -146 52 -172 Q 52 -203 61.5 -232.5 Q 71 -262 88 -288.5 Q 105 -315 127 -336.5 Q 149 -358 174 -378 Q 152 -396 132.5 -417 Q 113 -438 98.5 -462.5 Q 84 -487 76 -514.5 Q 68 -542 68 -570 Q 68 -594 73.5 -617.5 Q 79 -641 90.5 -661.5 Q 102 -682 119.5 -698.5 Q 137 -715 158 -725 Q 179 -735 202.5 -739 Q 226 -743 250 -743 Q 274 -743 297.5 -739 Q 321 -735 342 -725 Q 363 -715 380.5 -698.5 Q 398 -682 409.5 -661.5 Q 421 -641 426.5 -617.5 Q 432 -594 432 -570 Q 432 -542 424 -514.5 Q 416 -487 401.5 -462.5 Q 387 -438 367.5 -417 Q 348 -396 326 -378 Q 351 -358 373 -336.5 Q 395 -315 412 -288.5 Q 429 -262 438.5 -232.5 Q 448 -203 448 -172 Q 448 -146 441.5 -121.5 Q 435 -97 422.5 -75.5 Q 410 -54 390.5 -37 Q 371 -20 348 -10 Q 325 -0 300 4 Q 275 8 250 8 Z M 250 -434 Q 266 -447 280.5 -461.5 Q 295 -476 306.5 -493 Q 318 -510 325 -529.5 Q 332 -549 332 -569 Q 332 -586 327 -602.5 Q 322 -619 310.5 -631.5 Q 299 -644 283 -649.5 Q 267 -655 250 -655 Q 233 -655 217 -649.5 Q 201 -644 189.5 -631.5 Q 178 -619 173 -602.5 Q 168 -586 168 -569 Q 168 -549 175 -529.5 Q 182 -510 193.5 -493 Q 205 -476 219.5 -461.5 Q 234 -447 250 -434 Z M 250 -80 Q 269 -80 288 -85.5 Q 307 -91 320.5 -104 Q 334 -117 341 -135.5 Q 348 -154 348 -173 Q 348 -196 339.5 -217.5 Q 331 -239 317 -257.5 Q 303 -276 285.5 -291 Q 268 -306 250 -320 Q 232 -306 214.5 -291 Q 197 -276 183 -257.5 Q 169 -239 160.5 -217.5 Q 152 -196 152 -173 Q 152 -154 159 -135.5 Q 166 -117 179.5 -104 Q 193 -91 212 -85.5 Q 231 -80 250 -80 Z " id="path9"/>
<path d="M 262 0 L 153 0 L 260 -218 Q 272 -243 284 -268 Q 296 -293 306 -319 Q 288 -299 261.5 -289 Q 235 -279 208 -279 Q 182 -279 156.5 -288 Q 131 -297 112.5 -315.5 Q 94 -334 82 -358 Q 70 -382 63.5 -407 Q 57 -432 54.5 -458.5 Q 52 -485 52 -511 Q 52 -540 56 -568.5 Q 60 -597 70.5 -624 Q 81 -651 98.5 -674.5 Q 116 -698 140 -714 Q 164 -730 192.5 -736.5 Q 221 -743 250 -743 Q 279 -743 307.5 -736.5 Q 336 -730 360 -714 Q 384 -698 401.5 -674.5 Q 419 -651 429.5 -624 Q 440 -597 444 -568.5 Q 448 -540 448 -511 Q 448 -467 440.5 -424 Q 433 -381 419 -339.5 Q 405 -298 387 -258 Q 369 -218 350 -179 Z M 250 -367 Q 265 -367 279 -371.5 Q 293 -376 304.5 -385.5 Q 316 -395 324 -407.5 Q 332 -420 336.5 -434 Q 341 -448 343.5 -462.5 Q 346 -477 347 -492 Q 347 -497 347.5 -501.5 Q 348 -506 348 -511 Q 348 -527 346.5 -543.5 Q 345 -560 340.5 -575.5 Q 336 -591 328.5 -606 Q 321 -621 309.5 -632.5 Q 298 -644 282 -649.5 Q 266 -655 250 -655 Q 234 -655 218 -649.5 Q 202 -644 190.5 -632.5 Q 179 -621 171.5 -606 Q 164 -591 159.5 -575.5 Q 155 -560 153.5 -543.5 Q 152 -527 152 -511 Q 152 -495 153.5 -478.5 Q 155 -462 159.5 -446 Q 164 -430 171.5 -415.5 Q 179 -401 190.5 -389.5 Q 202 -378 218 -372.5 Q 234 -367 250 -367 Z " id="path10"/>
<path d="M 39 0 L 53 -70 L 192 -735 L 308 -735 L 461 0 L 359 0 L 326 -172 L 174 -172 L 141 0 Z M 310 -260 L 267 -490 Q 263 -513 258.5 -536 Q 254 -559 250 -582 Q 246 -559 241.5 -536 Q 237 -513 233 -490 L 190 -260 Z " id="path11"/>
<path d="M 60 0 L 60 -735 L 235 -735 Q 261 -735 287 -730.5 Q 313 -726 336.5 -714 Q 360 -702 378.5 -682.5 Q 397 -663 408.5 -639.5 Q 420 -616 424.5 -590 Q 429 -564 429 -538 Q 429 -515 425.5 -492 Q 422 -469 411.5 -448.5 Q 401 -428 384.5 -411 Q 368 -394 348 -383 Q 373 -373 394.5 -355.5 Q 416 -338 430.5 -314.5 Q 445 -291 450.5 -264 Q 456 -237 456 -210 Q 456 -181 450.5 -152.5 Q 445 -124 431 -98.5 Q 417 -73 395.5 -53.5 Q 374 -34 347.5 -21.5 Q 321 -9 292.5 -4.5 Q 264 -0 235 0 Z M 160 -424 L 235 -424 Q 256 -424 275.5 -432.5 Q 295 -441 307.5 -457.5 Q 320 -474 324.5 -494.5 Q 329 -515 329 -536 Q 329 -557 324.5 -577.5 Q 320 -598 307.5 -614.5 Q 295 -631 275.5 -639 Q 256 -647 235 -647 L 160 -647 Z M 160 -88 L 235 -88 Q 251 -88 267.5 -91 Q 284 -94 298.5 -101.5 Q 313 -109 324.5 -121 Q 336 -133 343 -148 Q 350 -163 353 -179 Q 356 -195 356 -212 Q 356 -228 353 -244.5 Q 350 -261 343 -276 Q 336 -291 324.5 -303 Q 313 -315 298.5 -322.5 Q 284 -330 267.5 -333 Q 251 -336 235 -336 L 160 -336 Z " id="path12"/>
<path d="M 247 8 Q 220 8 193 3 Q 166 -2 142.5 -15.5 Q 119 -29 101 -49.5 Q 83 -70 71.5 -94.5 Q 60 -119 56 -146 Q 52 -173 52 -200 L 52 -535 Q 52 -562 56 -589 Q 60 -616 71.5 -640.5 Q 83 -665 101 -685.5 Q 119 -706 142.5 -719.5 Q 166 -733 193 -738 Q 220 -743 247 -743 Q 273 -743 298 -738.5 Q 323 -734 346 -723 Q 369 -712 387.5 -694 Q 406 -676 418 -653.5 Q 430 -631 436 -606 Q 442 -581 442 -555 L 442 -548 L 342 -548 L 342 -552 Q 342 -572 336 -591.5 Q 330 -611 317.5 -626 Q 305 -641 286 -648 Q 267 -655 247 -655 Q 225 -655 205 -645.5 Q 185 -636 173 -618 Q 161 -600 156.5 -578.5 Q 152 -557 152 -535 L 152 -200 Q 152 -178 156.5 -156.5 Q 161 -135 173 -117 Q 185 -99 205 -89.5 Q 225 -80 247 -80 Q 267 -80 286 -87 Q 305 -94 317.5 -109 Q 330 -124 336 -143.5 Q 342 -163 342 -183 L 342 -187 L 442 -187 L 442 -180 Q 442 -154 436 -129 Q 430 -104 418 -81.5 Q 406 -59 387.5 -41 Q 369 -23 346 -12 Q 323 -1 298 3.5 Q 273 8 247 8 Z " id="path13"/>
<path d="M 60 0 L 60 -735 L 220 -735 Q 250 -735 280 -730 Q 310 -725 337 -712 Q 364 -699 386.5 -678.5 Q 409 -658 423 -631.5 Q 437 -605 442.5 -575 Q 448 -545 448 -515 L 448 -220 Q 448 -190 442.5 -160 Q 437 -130 423 -103.5 Q 409 -77 386.5 -56.5 Q 364 -36 337 -23 Q 310 -10 280 -5 Q 250 -0 220 0 Z M 160 -88 L 220 -88 Q 237 -88 254.5 -91 Q 272 -94 287.5 -102.5 Q 303 -111 315 -124 Q 327 -137 334.5 -152.5 Q 342 -168 345 -185.5 Q 348 -203 348 -220 L 348 -515 Q 348 -532 345 -549.5 Q 342 -567 334.5 -582.5 Q 327 -598 315 -611 Q 303 -624 287.5 -632.5 Q 272 -641 254.5 -644 Q 237 -647 220 -647 L 160 -647 Z " id="path14"/>
<path d="M 68 0 L 68 -735 L 440 -735 L 440 -647 L 168 -647 L 168 -426 L 383 -426 L 383 -338 L 168 -338 L 168 -88 L 440 -88 L 440 0 Z " id="path15"/>
<path d="M 90 0 L 90 -735 L 440 -735 L 440 -647 L 190 -647 L 190 -426 L 383 -426 L 383 -338 L 190 -338 L 190 0 Z " id="path16"/>
<path d="M 250 8 Q 223 8 196.5 2.5 Q 170 -3 147 -16.5 Q 124 -30 106.5 -50.5 Q 89 -71 78.5 -95.5 Q 68 -120 64 -146.5 Q 60 -173 60 -200 L 60 -735 L 160 -735 L 160 -200 Q 160 -186 161.5 -172 Q 163 -158 167.5 -144.5 Q 172 -131 179.5 -118.5 Q 187 -106 197.5 -97 Q 208 -88 222 -84 Q 236 -80 250 -80 Q 264 -80 278 -84 Q 292 -88 302.5 -97 Q 313 -106 320.5 -118.5 Q 328 -131 332.5 -144.5 Q 337 -158 338.5 -172 Q 340 -186 340 -200 L 340 -735 L 440 -735 L 440 -200 Q 440 -173 436 -146.5 Q 432 -120 421.5 -95.5 Q 411 -71 393.5 -50.5 Q 376 -30 353 -16.5 Q 330 -3 303.5 2.5 Q 277 8 250 8 Z " id="path17"/>
<path d="M 296 -142 L 204 -142 L 204 -300 L 60 -300 L 60 -380 L 204 -380 L 204 -538 L 296 -538 L 296 -380 L 440 -380 L 440 -300 L 296 -300 Z " id="path18"/>
<path d="M 64 0 L 64 -735 L 436 -735 L 436 0 Z M 104 -333 L 394 -695 L 300 -695 L 104 -450 Z M 104 -489 L 269 -695 L 175 -695 L 104 -606 Z M 104 -645 L 144 -695 L 104 -695 Z M 104 -176 L 396 -543 L 396 -660 L 104 -294 Z M 104 -40 L 119 -40 L 396 -386 L 396 -504 L 104 -137 Z M 150 -40 L 244 -40 L 396 -230 L 396 -347 Z M 275 -40 L 369 -40 L 396 -74 L 396 -191 Z " id="path19"/>
<path d="M 247 8 Q 221 8 194.5 3 Q 168 -2 145 -15 Q 122 -28 104 -48 Q 86 -68 75 -92 Q 64 -116 60 -142.5 Q 56 -169 56 -195 L 56 -540 Q 56 -566 60 -592.5 Q 64 -619 75 -643 Q 86 -667 104 -687 Q 122 -707 145 -720 Q 168 -733 194.5 -738 Q 221 -743 247 -743 Q 272 -743 296.5 -739 Q 321 -735 343.5 -724 Q 366 -713 384.5 -695.5 Q 403 -678 415 -656.5 Q 427 -635 432.5 -610.5 Q 438 -586 438 -561 L 438 -555 L 360 -555 L 360 -559 Q 360 -582 353 -604 Q 346 -626 330 -642.5 Q 314 -659 292 -666 Q 270 -673 247 -673 Q 222 -673 198.5 -663 Q 175 -653 160 -633.5 Q 145 -614 139.5 -589.5 Q 134 -565 134 -540 L 134 -195 Q 134 -170 139.5 -145.5 Q 145 -121 160 -101.5 Q 175 -82 198.5 -72 Q 222 -62 247 -62 Q 270 -62 292 -69 Q 314 -76 330 -92.5 Q 346 -109 353 -131 Q 360 -153 360 -176 L 360 -180 L 438 -180 L 438 -174 Q 438 -149 432.5 -124.5 Q 427 -100 415 -78.5 Q 403 -57 384.5 -39.5 Q 366 -22 343.5 -11 Q 321 0 296.5 4 Q 272 8 247 8 Z M 183 80 L 137 66 L 417 -816 L 463 -802 Z M 83 80 L 37 66 L 317 -816 L 363 -802 Z " id="path20"/>
<path d="M 96 0 L 96 -245 L 29 -245 L 29 -306 L 96 -306 L 96 -385 L 29 -385 L 29 -446 L 96 -446 L 96 -735 L 436 -735 L 436 -665 L 174 -665 L 174 -446 L 277 -446 L 277 -385 L 174 -385 L 174 -306 L 277 -306 L 277 -245 L 174 -245 L 174 0 Z " id="path21"/>
<path d="M 64 0 L 64 -70 Q 81 -86 94 -106 Q 107 -126 115.5 -148.5 Q 124 -171 127.5 -194.5 Q 131 -218 131 -241 L 46 -241 L 46 -302 L 131 -302 L 131 -395 L 46 -395 L 46 -456 L 131 -456 L 131 -589 Q 131 -609 134.5 -629 Q 138 -649 146 -667 Q 154 -685 167.5 -700.5 Q 181 -716 198.5 -725.5 Q 216 -735 235.5 -739 Q 255 -743 275 -743 Q 305 -743 333.5 -732.5 Q 362 -722 382 -700 Q 402 -678 411 -649 Q 420 -620 420 -590 Q 420 -588 419.5 -586 Q 419 -584 419 -582 L 342 -582 L 342 -587 Q 342 -602 338.5 -617 Q 335 -632 327 -645 Q 319 -658 305 -665.5 Q 291 -673 275 -673 Q 260 -673 246 -666 Q 232 -659 223.5 -646.5 Q 215 -634 212 -619 Q 209 -604 209 -589 L 209 -456 L 309 -456 L 309 -395 L 209 -395 L 209 -302 L 309 -302 L 309 -241 L 209 -241 Q 209 -219 206.5 -196.5 Q 204 -174 199 -152 Q 194 -130 185 -109.5 Q 176 -89 163 -70 L 436 -70 L 436 0 Z " id="path22"/>
<path d="M 51 0 L 51 -520 L 123 -520 L 123 -474 Q 128 -485 135 -495.5 Q 142 -506 151.5 -513.5 Q 161 -521 173 -524.5 Q 185 -528 198 -528 Q 213 -528 227 -522.5 Q 241 -517 251.5 -506.5 Q 262 -496 269 -482 Q 276 -468 280 -454 Q 283 -468 289.5 -482 Q 296 -496 306.5 -506.5 Q 317 -517 331.5 -522.5 Q 346 -528 361 -528 Q 376 -528 390 -522.5 Q 404 -517 415 -506.5 Q 426 -496 432.5 -482 Q 439 -468 443 -453.5 Q 447 -439 448 -424 Q 449 -409 449 -394 L 449 0 L 377 0 L 377 -394 Q 377 -405 375 -417 Q 373 -429 368 -439 Q 363 -449 353 -456 Q 343 -463 332 -463 Q 320 -463 310 -456 Q 300 -449 295 -439 Q 290 -429 288 -417 Q 286 -405 286 -394 L 286 0 L 214 0 L 214 -394 Q 214 -405 212 -417 Q 210 -429 205 -439 Q 200 -449 190 -456 Q 180 -463 168 -463 Q 157 -463 147 -456 Q 137 -449 132 -439 Q 127 -429 125 -417 Q 123 -405 123 -394 L 123 0 Z M 137 62 L 88 42 L 363 -582 L 412 -562 Z " id="path23"/>
<path d="M 80 0 L 80 -261 L 32 -261 L 32 -322 L 80 -322 L 80 -413 L 32 -413 L 32 -474 L 80 -474 L 80 -735 L 174 -735 L 252 -474 L 351 -474 L 351 -735 L 420 -735 L 420 -474 L 468 -474 L 468 -413 L 420 -413 L 420 -322 L 468 -322 L 468 -261 L 420 -261 L 420 0 L 326 0 L 248 -261 L 149 -261 L 149 0 Z M 148 -474 L 184 -474 L 147 -597 Q 147 -567 147.5 -536 Q 148 -505 148 -474 Z M 149 -322 L 230 -322 L 202 -413 L 149 -413 Z M 298 -322 L 351 -322 L 351 -413 L 270 -413 Z M 353 -138 Q 353 -168 352.5 -199 Q 352 -230 352 -261 L 316 -261 Z " id="path24"/>
<path d="M 26 0 L 26 -735 L 109 -735 Q 127 -735 143.5 -729.5 Q 160 -724 173.5 -713 Q 187 -702 196.5 -687.5 Q 206 -673 213 -656.5 Q 220 -640 224.5 -623.5 Q 229 -607 231.5 -589.5 Q 234 -572 235 -554.5 Q 236 -537 236 -520 Q 236 -502 235 -484.5 Q 234 -467 231.5 -449.5 Q 229 -432 224.5 -415.5 Q 220 -399 213 -382.5 Q 206 -366 196.5 -351.5 Q 187 -337 173.5 -326 Q 160 -315 143 -309.5 Q 126 -304 109 -304 L 82 -304 L 82 0 Z M 109 -374 Q 124 -374 136.5 -382.5 Q 149 -391 156.5 -404 Q 164 -417 168.5 -431.5 Q 173 -446 175.5 -460.5 Q 178 -475 179 -490 Q 180 -505 180 -520 Q 180 -534 179 -549 Q 178 -564 175.5 -578.5 Q 173 -593 168.5 -607.5 Q 164 -622 156.5 -635 Q 149 -648 136.5 -656.5 Q 124 -665 109 -665 L 82 -665 L 82 -374 Z M 407 8 Q 391 8 376 0.5 Q 361 -7 351 -19.5 Q 341 -32 335.5 -47 Q 330 -62 326.5 -78 Q 323 -94 322 -110 Q 321 -126 321 -142 L 321 -450 L 272 -450 L 272 -520 L 321 -520 L 321 -735 L 377 -735 L 377 -520 L 484 -520 L 484 -450 L 377 -450 L 377 -142 Q 377 -134 377 -126.5 Q 377 -119 378 -111.5 Q 379 -104 380.5 -96.5 Q 382 -89 385 -81.5 Q 388 -74 393.5 -68 Q 399 -62 407 -62 Q 414 -62 419 -69 Q 424 -76 426.5 -83 Q 429 -90 430.5 -97.5 Q 432 -105 433 -113 Q 434 -121 435 -128.5 Q 436 -136 436.5 -143.5 Q 437 -151 437 -159 Q 437 -167 437 -174 L 437 -180 L 494 -180 L 494 -171 Q 494 -157 493 -143.5 Q 492 -130 490.5 -116.5 Q 489 -103 486 -89.5 Q 483 -76 479 -63 Q 475 -50 469 -37.5 Q 463 -25 454 -14.5 Q 445 -4 432.5 2 Q 420 8 407 8 Z " id="path25"/>
<path d="M 182 0 L 101 -304 L 71 -304 L 71 0 L 14 0 L 14 -735 L 109 -735 Q 126 -735 142.5 -729.5 Q 159 -724 172 -712.5 Q 185 -701 194 -686 Q 203 -671 209.5 -655 Q 216 -639 220 -622 Q 224 -605 226 -588 Q 228 -571 229 -554 Q 230 -537 230 -520 Q 230 -491 227.5 -463 Q 225 -435 217.5 -408 Q 210 -381 195.5 -355.5 Q 181 -330 157 -316 L 242 0 Z M 109 -374 Q 124 -374 135.5 -383.5 Q 147 -393 153.5 -406 Q 160 -419 164 -433 Q 168 -447 170 -461.5 Q 172 -476 173 -490.5 Q 174 -505 174 -520 Q 174 -534 173 -548.5 Q 172 -563 170 -577.5 Q 168 -592 164 -606 Q 160 -620 153.5 -633 Q 147 -646 135.5 -655.5 Q 124 -665 109 -665 L 71 -665 L 71 -374 Z M 381 8 Q 364 8 348.5 3.5 Q 333 -1 320 -11.5 Q 307 -22 298.5 -35.5 Q 290 -49 285 -64.5 Q 280 -80 277.5 -96 Q 275 -112 275 -128 L 275 -135 L 331 -135 L 331 -132 Q 331 -119 333.5 -107.5 Q 336 -96 341.5 -85.5 Q 347 -75 358 -68.5 Q 369 -62 381 -62 Q 392 -62 402.5 -68 Q 413 -74 419 -84 Q 425 -94 427.5 -106 Q 430 -118 430 -130 Q 430 -146 425.5 -161.5 Q 421 -177 411.5 -189.5 Q 402 -202 389.5 -211 Q 377 -220 364 -229 Q 351 -238 339.5 -249 Q 328 -260 319 -272.5 Q 310 -285 303 -299.5 Q 296 -314 291.5 -329 Q 287 -344 284.5 -360 Q 282 -376 282 -391 Q 282 -407 284 -423 Q 286 -439 291 -454 Q 296 -469 304 -483 Q 312 -497 323.5 -507.5 Q 335 -518 350.5 -523 Q 366 -528 382 -528 Q 398 -528 413.5 -523 Q 429 -518 440.5 -507.5 Q 452 -497 460 -483.5 Q 468 -470 473 -454.5 Q 478 -439 480 -423.5 Q 482 -408 482 -392 L 482 -385 L 426 -385 L 426 -388 Q 426 -400 424 -411.5 Q 422 -423 417 -433.5 Q 412 -444 402.5 -451 Q 393 -458 382 -458 Q 371 -458 361.5 -451 Q 352 -444 347 -434 Q 342 -424 340 -413 Q 338 -402 338 -391 Q 338 -375 342.5 -359.5 Q 347 -344 356.5 -331 Q 366 -318 378.5 -309 Q 391 -300 404 -291 Q 417 -282 428.5 -271 Q 440 -260 449 -247.5 Q 458 -235 465 -220.5 Q 472 -206 477 -191.5 Q 482 -177 484 -161 Q 486 -145 486 -129 Q 486 -113 484 -97 Q 482 -81 476.5 -65 Q 471 -49 462.5 -35.5 Q 454 -22 441 -11.5 Q 428 -1 412.5 3.5 Q 397 8 381 8 Z " id="path26"/>
<path d="M 120 0 L 94 -227 L 15 -227 L 15 -288 L 87 -288 L 72 -410 L 15 -410 L 15 -472 L 65 -472 L 35 -735 L 110 -735 L 132 -472 L 207 -472 L 215 -529 L 285 -529 L 293 -472 L 368 -472 L 390 -735 L 465 -735 L 435 -472 L 485 -472 L 485 -410 L 428 -410 L 413 -288 L 485 -288 L 485 -227 L 406 -227 L 380 0 L 311 0 L 277 -227 L 223 -227 L 189 0 Z M 148 -288 L 180 -288 L 198 -410 L 137 -410 Z M 232 -288 L 268 -288 L 250 -410 Z M 352 -288 L 363 -410 L 302 -410 L 320 -288 Z M 159 -150 L 171 -227 L 153 -227 Z M 341 -150 L 347 -227 L 329 -227 Z " id="path27"/>
<path d="M 156 0 L 156 -374 L 222 -374 L 222 -60 L 351 -60 Q 360 -60 369.5 -62 Q 379 -64 386.5 -70.5 Q 394 -77 397.5 -86 Q 401 -95 401 -105 L 401 -520 L 467 -520 L 467 -105 Q 467 -83 459 -61.5 Q 451 -40 434 -25.5 Q 417 -11 395 -5.5 Q 373 0 351 0 Z M 33 0 L 33 -520 L 228 -520 Q 250 -520 272 -514.5 Q 294 -509 311.5 -494.5 Q 329 -480 336.5 -458.5 Q 344 -437 344 -415 L 344 -146 L 278 -146 L 278 -415 Q 278 -425 274.5 -434 Q 271 -443 264 -449.5 Q 257 -456 247.5 -458 Q 238 -460 228 -460 L 99 -460 L 99 0 Z " id="path28"/>
<path d="M 215 8 Q 190 8 166 1 Q 142 -6 122.5 -21.5 Q 103 -37 90 -58 Q 77 -79 69 -102.5 Q 61 -126 58.5 -150.5 Q 56 -175 56 -200 L 56 -320 Q 56 -345 58.5 -369.5 Q 61 -394 69 -417.5 Q 77 -441 90 -462 Q 103 -483 122.5 -498.5 Q 142 -514 166 -521 Q 190 -528 215 -528 Q 239 -528 262 -521.5 Q 285 -515 304 -501 Q 323 -487 336.5 -467 Q 350 -447 358 -424 L 358 -597 L 252 -597 L 252 -658 L 358 -658 L 358 -735 L 436 -735 L 436 -658 L 482 -658 L 482 -597 L 436 -597 L 436 0 L 358 0 L 358 -96 Q 350 -73 336.5 -53 Q 323 -33 304 -19 Q 285 -5 262 1.5 Q 239 8 215 8 Z M 246 -62 Q 263 -62 279.5 -66 Q 296 -70 309.5 -80 Q 323 -90 333 -104 Q 343 -118 348.5 -134 Q 354 -150 356 -166.5 Q 358 -183 358 -200 L 358 -320 Q 358 -337 356 -353.5 Q 354 -370 348.5 -386 Q 343 -402 333 -416 Q 323 -430 309.5 -440 Q 296 -450 279.5 -454 Q 263 -458 246 -458 Q 229 -458 212.5 -454 Q 196 -450 182.5 -440 Q 169 -430 159 -416 Q 149 -402 143.5 -386 Q 138 -370 136 -353.5 Q 134 -337 134 -320 L 134 -200 Q 134 -183 136 -166.5 Q 138 -150 143.5 -134 Q 149 -118 159 -104 Q 169 -90 182.5 -80 Q 196 -70 212.5 -66 Q 229 -62 246 -62 Z M 436 182 L 64 182 L 64 118 L 436 118 Z " id="path29"/>
<path d="M 247 8 Q 221 8 194.5 3 Q 168 -2 145 -15 Q 122 -28 104 -48 Q 86 -68 75 -92 Q 64 -116 60 -142.5 Q 56 -169 56 -195 L 56 -263 L 18 -263 L 18 -325 L 56 -325 L 56 -410 L 18 -410 L 18 -472 L 56 -472 L 56 -540 Q 56 -566 60 -592.5 Q 64 -619 75 -643 Q 86 -667 104 -687 Q 122 -707 145 -720 Q 168 -733 194.5 -738 Q 221 -743 247 -743 Q 272 -743 296.5 -739 Q 321 -735 343.5 -724 Q 366 -713 384.5 -695.5 Q 403 -678 415 -656.5 Q 427 -635 432.5 -610.5 Q 438 -586 438 -561 L 438 -555 L 360 -555 L 360 -559 Q 360 -582 353 -604 Q 346 -626 330 -642.5 Q 314 -659 292 -666 Q 270 -673 247 -673 Q 222 -673 198.5 -663 Q 175 -653 160 -633.5 Q 145 -614 139.5 -589.5 Q 134 -565 134 -540 L 134 -472 L 248 -472 L 248 -410 L 134 -410 L 134 -325 L 248 -325 L 248 -263 L 134 -263 L 134 -195 Q 134 -170 139.5 -145.5 Q 145 -121 160 -101.5 Q 175 -82 198.5 -72 Q 222 -62 247 -62 Q 270 -62 292 -69 Q 314 -76 330 -92.5 Q 346 -109 353 -131 Q 360 -153 360 -176 L 360 -180 L 438 -180 L 438 -174 Q 438 -149 432.5 -124.5 Q 427 -100 415 -78.5 Q 403 -57 384.5 -39.5 Q 366 -22 343.5 -11 Q 321 0 296.5 4 Q 272 8 247 8 Z " id="path30"/>
<path d="M 361 0 L 204 -329 L 157 -252 L 157 0 L 80 0 L 80 -735 L 157 -735 L 157 -387 L 358 -735 L 445 -735 L 247 -402 L 445 0 Z M 32 -337 L 32 -399 L 468 -399 L 468 -337 Z " id="path31"/>
<path d="M 211 0 L 211 -665 L 58 -665 L 58 -735 L 442 -735 L 442 -665 L 289 -665 L 289 0 Z M 131 -367 L 106 -424 L 369 -528 L 394 -471 Z M 131 -192 L 106 -249 L 369 -353 L 394 -296 Z " id="path32"/>
<path d="M 14 0 L 14 -735 L 71 -735 Q 96 -735 120 -728 Q 144 -721 164 -704.5 Q 184 -688 196.5 -666.5 Q 209 -645 217 -620.5 Q 225 -596 227.5 -571 Q 230 -546 230 -521 L 230 -215 Q 230 -189 227.5 -164 Q 225 -139 217 -114.5 Q 209 -90 196.5 -68.5 Q 184 -47 164 -30.5 Q 144 -14 120 -7 Q 96 0 71 0 Z M 71 -70 Q 87 -70 103 -75 Q 119 -80 132 -91.5 Q 145 -103 153 -117.5 Q 161 -132 165.5 -148.5 Q 170 -165 172 -181.5 Q 174 -198 174 -215 L 174 -521 Q 174 -537 172 -553.5 Q 170 -570 165.5 -586.5 Q 161 -603 153 -617.5 Q 145 -632 132 -643.5 Q 119 -655 103 -660 Q 87 -665 71 -665 Z M 276 215 L 276 -320 Q 276 -336 276.5 -352.5 Q 277 -369 279.5 -385 Q 282 -401 285 -416.5 Q 288 -432 293.5 -448 Q 299 -464 307 -478 Q 315 -492 326.5 -504 Q 338 -516 353 -522 Q 368 -528 384 -528 Q 400 -528 415.5 -522 Q 431 -516 442.5 -504 Q 454 -492 461.5 -478 Q 469 -464 474.5 -448 Q 480 -432 483.5 -416.5 Q 487 -401 489 -385 Q 491 -369 491.5 -352.5 Q 492 -336 492 -320 L 492 -200 Q 492 -185 491.5 -169.5 Q 491 -154 489.5 -139 Q 488 -124 486 -109 Q 484 -94 480.5 -79 Q 477 -64 471.5 -50 Q 466 -36 457.5 -22.5 Q 449 -9 436 -0.5 Q 423 8 408 8 Q 397 8 386 3 Q 375 -2 367.5 -10 Q 360 -18 354.5 -28.5 Q 349 -39 345 -49.5 Q 341 -60 338 -71 Q 335 -82 333 -93 L 333 215 Z M 384 -62 Q 394 -62 402.5 -68.5 Q 411 -75 415.5 -83.5 Q 420 -92 423.5 -101.5 Q 427 -111 429 -120.5 Q 431 -130 432.5 -140 Q 434 -150 434.5 -160 Q 435 -170 435.5 -180 Q 436 -190 436 -200 L 436 -320 Q 436 -330 435.5 -340 Q 435 -350 434.5 -360 Q 434 -370 432.5 -380 Q 431 -390 429 -399.5 Q 427 -409 423.5 -418.5 Q 420 -428 415.5 -436.5 Q 411 -445 402.5 -451.5 Q 394 -458 384 -458 Q 375 -458 366.5 -451.5 Q 358 -445 353 -436.5 Q 348 -428 345 -418.5 Q 342 -409 339.5 -399.5 Q 337 -390 336 -380 Q 335 -370 334 -360 Q 333 -350 333 -340 Q 333 -330 333 -320 L 333 -200 Q 333 -190 333 -180 Q 333 -170 334 -160 Q 335 -150 336 -140 Q 337 -130 339.5 -120.5 Q 342 -111 345 -101.5 Q 348 -92 353 -83.5 Q 358 -75 366.5 -68.5 Q 375 -62 384 -62 Z " id="path33"/>
<path d="M 80 0 L 80 -454 L 32 -454 L 32 -497 L 80 -497 L 80 -542 L 32 -542 L 32 -585 L 80 -585 L 80 -735 L 256 -735 Q 278 -735 300 -731.5 Q 322 -728 342 -719.5 Q 362 -711 380 -697 Q 398 -683 411 -665.5 Q 424 -648 433 -627.5 Q 442 -607 446 -585 L 476 -585 L 476 -542 L 451 -542 Q 452 -536 452 -530.5 Q 452 -525 452 -520 Q 452 -514 452 -508.5 Q 452 -503 451 -497 L 476 -497 L 476 -454 L 446 -454 Q 442 -432 433 -411.5 Q 424 -391 411 -373.5 Q 398 -356 380 -342 Q 362 -328 342 -319.5 Q 322 -311 300 -307.5 Q 278 -304 256 -304 L 158 -304 L 158 0 Z M 158 -585 L 365 -585 Q 360 -603 349.5 -618.5 Q 339 -634 324.5 -645 Q 310 -656 292 -660.5 Q 274 -665 256 -665 L 158 -665 Z M 158 -497 L 374 -497 L 374 -542 L 158 -542 Z M 256 -374 Q 274 -374 292 -379 Q 310 -384 324.5 -394.5 Q 339 -405 349.5 -420.5 Q 360 -436 365 -454 L 158 -454 L 158 -374 Z " id="path34"/>
<path d="M 215 8 Q 191 8 167 1.5 Q 143 -5 123.5 -20 Q 104 -35 90.5 -55.5 Q 77 -76 69.5 -99 Q 62 -122 59 -146.5 Q 56 -171 56 -195 L 56 -540 Q 56 -566 60 -592.5 Q 64 -619 75 -643 Q 86 -667 104 -687 Q 122 -707 145 -720 Q 168 -733 194.5 -738 Q 221 -743 247 -743 Q 272 -743 296.5 -739 Q 321 -735 343.5 -724 Q 366 -713 384.5 -695.5 Q 403 -678 415 -656.5 Q 427 -635 432.5 -610.5 Q 438 -586 438 -561 L 438 -555 L 360 -555 L 360 -559 Q 360 -582 353 -604 Q 346 -626 330 -642.5 Q 314 -659 292 -666 Q 270 -673 247 -673 Q 222 -673 198.5 -663.5 Q 175 -654 160 -634 Q 145 -614 139.5 -589.5 Q 134 -565 134 -540 L 134 -195 Q 134 -179 136 -162.5 Q 138 -146 144 -130.5 Q 150 -115 160 -101.5 Q 170 -88 183.5 -79 Q 197 -70 213.5 -66 Q 230 -62 246 -62 Q 262 -62 278.5 -66 Q 295 -70 308.5 -79 Q 322 -88 332 -101.5 Q 342 -115 348 -130.5 Q 354 -146 356 -162.5 Q 358 -179 358 -195 L 358 -330 L 250 -330 L 250 -400 L 436 -400 L 436 0 L 366 0 L 366 -118 Q 359 -92 346.5 -68 Q 334 -44 314 -26 Q 294 -8 268 0 Q 242 8 215 8 Z M 223 73 L 223 -809 L 277 -809 L 277 73 Z " id="path35"/>
<path d="M 44 0 L 93 -225 L 32 -225 L 32 -286 L 107 -286 L 120 -348 L 32 -348 L 32 -409 L 134 -409 L 151 -490 L 205 -735 L 295 -735 L 366 -409 L 468 -409 L 468 -348 L 380 -348 L 393 -286 L 468 -286 L 468 -225 L 407 -225 L 456 0 L 376 0 L 330 -225 L 170 -225 L 124 0 Z M 208 -409 L 292 -409 L 276 -490 Q 269 -522 262.5 -554 Q 256 -586 250 -618 Q 244 -586 237.5 -554 Q 231 -522 224 -490 Z M 182 -286 L 318 -286 L 305 -348 L 195 -348 Z " id="path36"/>
<path d="M 247 8 Q 222 8 197 3.5 Q 172 -1 149.5 -12 Q 127 -23 109 -41 Q 91 -59 79 -81 Q 67 -103 61.5 -128 Q 56 -153 56 -178 Q 56 -203 62.5 -228.5 Q 69 -254 81 -276.5 Q 93 -299 110 -318.5 Q 127 -338 147.5 -354 Q 168 -370 190.5 -383 Q 213 -396 236 -407.5 Q 259 -419 281 -432 Q 303 -445 321 -464 Q 339 -483 349 -507 Q 359 -531 359 -557 Q 359 -580 352 -602 Q 345 -624 330 -640.5 Q 315 -657 293 -665 Q 271 -673 249 -673 Q 227 -673 205.5 -665.5 Q 184 -658 169 -641.5 Q 154 -625 147 -603.5 Q 140 -582 140 -560 L 140 -555 L 62 -555 L 62 -562 Q 62 -587 67.5 -611 Q 73 -635 84.5 -656.5 Q 96 -678 114 -695.5 Q 132 -713 154 -724 Q 176 -735 200 -739 Q 224 -743 249 -743 Q 274 -743 298.5 -738.5 Q 323 -734 345 -722.5 Q 367 -711 384.5 -693 Q 402 -675 413.5 -653 Q 425 -631 430.5 -606.5 Q 436 -582 436 -558 Q 436 -532 430 -506.5 Q 424 -481 411.5 -458.5 Q 399 -436 382 -416.5 Q 365 -397 345 -381 Q 325 -365 302.5 -352.5 Q 280 -340 257 -328 Q 234 -316 211.5 -303 Q 189 -290 171.5 -271.5 Q 154 -253 143.5 -228.5 Q 133 -204 133 -178 Q 133 -155 140.5 -133 Q 148 -111 164 -94 Q 180 -77 202 -69.5 Q 224 -62 247 -62 Q 270 -62 292 -69 Q 314 -76 329.5 -92.5 Q 345 -109 352.5 -131 Q 360 -153 360 -175 L 360 -180 L 438 -180 L 438 -173 Q 438 -148 432 -123.5 Q 426 -99 414 -77.5 Q 402 -56 384 -38.5 Q 366 -21 343.5 -10.5 Q 321 0 296.5 4 Q 272 8 247 8 Z M 468 -413 L 32 -413 L 32 -474 L 468 -474 Z M 32 -261 L 32 -322 L 468 -322 L 468 -261 Z " id="path37"/>
<path d="M 247 8 Q 221 8 194.5 3 Q 168 -2 145 -15 Q 122 -28 104 -48 Q 86 -68 75 -92 Q 64 -116 60 -142.5 Q 56 -169 56 -195 L 56 -540 Q 56 -566 60 -592.5 Q 64 -619 75 -643 Q 86 -667 104 -687 Q 122 -707 145 -720 Q 168 -733 194.5 -738 Q 221 -743 247 -743 Q 272 -743 296.5 -739 Q 321 -735 343.5 -724 Q 366 -713 384.5 -695.5 Q 403 -678 415 -656.5 Q 427 -635 432.5 -610.5 Q 438 -586 438 -561 L 438 -555 L 360 -555 L 360 -559 Q 360 -582 353 -604 Q 346 -626 330 -642.5 Q 314 -659 292 -666 Q 270 -673 247 -673 Q 222 -673 198.5 -663 Q 175 -653 160 -633.5 Q 145 -614 139.5 -589.5 Q 134 -565 134 -540 L 134 -195 Q 134 -170 139.5 -145.5 Q 145 -121 160 -101.5 Q 175 -82 198.5 -72 Q 222 -62 247 -62 Q 270 -62 292 -69 Q 314 -76 330 -92.5 Q 346 -109 353 -131 Q 360 -153 360 -176 L 360 -180 L 438 -180 L 438 -174 Q 438 -149 432.5 -124.5 Q 427 -100 415 -78.5 Q 403 -57 384.5 -39.5 Q 366 -22 343.5 -11 Q 321 0 296.5 4 Q 272 8 247 8 Z M 223 73 L 223 -809 L 277 -809 L 277 73 Z " id="path38"/>
<path d="M 58 -674 L 58 -735 L 442 -735 L 442 -674 Z M 211 0 L 211 -530 L 58 -530 L 58 -600 L 442 -600 L 442 -530 L 289 -530 L 289 0 Z " id="path39"/>
<path d="M 370 0 L 171 -304 L 64 -304 L 64 -374 L 193 -374 Q 216 -374 237 -381.5 Q 258 -389 274 -405 Q 290 -421 298.5 -441.5 Q 307 -462 310 -485 L 64 -485 L 64 -555 L 310 -555 Q 307 -577 298.5 -597.5 Q 290 -618 274 -634 Q 258 -650 237 -657.5 Q 216 -665 193 -665 L 64 -665 L 64 -735 L 436 -735 L 436 -665 L 349 -665 Q 367 -641 376 -612.5 Q 385 -584 388 -555 L 436 -555 L 436 -485 L 388 -485 Q 385 -456 376 -428 Q 367 -400 350.5 -376.5 Q 334 -353 309.5 -336 Q 285 -319 257 -311 L 460 0 Z " id="path40"/>
<path d="M 96 0 L 96 -215 L 42 -192 L 16 -248 L 96 -282 L 96 -368 L 42 -346 L 16 -402 L 96 -436 L 96 -735 L 174 -735 L 174 -468 L 264 -506 L 290 -450 L 174 -401 L 174 -314 L 264 -352 L 290 -296 L 174 -247 L 174 -70 L 269 -70 Q 290 -70 310 -77.5 Q 330 -85 343 -101.5 Q 356 -118 361 -138.5 Q 366 -159 366 -180 L 444 -180 Q 444 -156 440 -132.5 Q 436 -109 426 -87.5 Q 416 -66 399 -48.5 Q 382 -31 361 -20 Q 340 -9 316.5 -4.5 Q 293 -0 269 0 Z " id="path41"/>
<path d="M 51 0 L 51 -320 Q 51 -344 54 -368.5 Q 57 -393 66.5 -415.5 Q 76 -438 90.5 -458 Q 105 -478 125 -492.5 Q 145 -507 168 -515 Q 191 -523 215 -526 L 215 -678 L 285 -678 L 285 -526 Q 309 -523 332 -515 Q 355 -507 375 -492.5 Q 395 -478 409.5 -458 Q 424 -438 433.5 -415.5 Q 443 -393 446 -368.5 Q 449 -344 449 -320 L 449 0 L 377 0 L 377 -320 Q 377 -343 372.5 -365.5 Q 368 -388 356.5 -407.5 Q 345 -427 326 -441 Q 307 -455 285 -459 L 285 0 L 215 0 L 215 -459 Q 193 -455 174 -441 Q 155 -427 143.5 -407.5 Q 132 -388 127.5 -365.5 Q 123 -343 123 -320 L 123 0 Z " id="path42"/>
<path d="M 80 0 L 80 -142 L 18 -142 L 18 -203 L 80 -203 L 80 -304 L 18 -304 L 18 -374 L 80 -374 L 80 -735 L 256 -735 Q 283 -735 310.5 -729.5 Q 338 -724 362 -710 Q 386 -696 404 -674.5 Q 422 -653 433 -627.5 Q 444 -602 448 -574.5 Q 452 -547 452 -520 Q 452 -492 448 -464.5 Q 444 -437 433 -411.5 Q 422 -386 404 -364.5 Q 386 -343 362 -329 Q 338 -315 310.5 -309.5 Q 283 -304 256 -304 L 158 -304 L 158 -203 L 362 -203 L 362 -142 L 158 -142 L 158 0 Z M 256 -374 Q 274 -374 291 -378.5 Q 308 -383 322.5 -393 Q 337 -403 347.5 -418 Q 358 -433 364 -449.5 Q 370 -466 372 -484 Q 374 -502 374 -520 Q 374 -537 372 -555 Q 370 -573 364 -589.5 Q 358 -606 347.5 -621 Q 337 -636 322.5 -646 Q 308 -656 291 -660.5 Q 274 -665 256 -665 L 158 -665 L 158 -374 Z " id="path43"/>
<path d="M 51 0 L 51 -65 L 149 -65 Q 127 -72 107 -83 Q 87 -94 72 -111.5 Q 57 -129 50 -150.5 Q 43 -172 43 -195 L 43 -540 Q 43 -570 49 -600.5 Q 55 -631 71 -657 Q 87 -683 111.5 -702 Q 136 -721 165 -731 L 165 -843 L 229 -843 L 229 -742 Q 234 -743 240 -743 Q 246 -743 251 -743 L 271 -743 L 271 -843 L 335 -843 L 335 -732 Q 362 -724 386 -707.5 Q 410 -691 426.5 -668 Q 443 -645 451 -617.5 Q 459 -590 459 -561 L 459 -555 L 387 -555 L 387 -559 Q 387 -574 383.5 -588 Q 380 -602 373.5 -615 Q 367 -628 357 -639 Q 347 -650 335 -657 L 335 -455 L 271 -455 L 271 -677 Q 266 -678 261 -678 Q 256 -678 251 -678 Q 246 -678 240 -677.5 Q 234 -677 229 -677 L 229 -455 L 165 -455 L 165 -654 Q 152 -645 142 -631.5 Q 132 -618 126 -603.5 Q 120 -589 117.5 -572.5 Q 115 -556 115 -540 L 115 -195 Q 115 -177 118.5 -159.5 Q 122 -142 130 -126.5 Q 138 -111 151.5 -98.5 Q 165 -86 181 -78.5 Q 197 -71 214.5 -68 Q 232 -65 250 -65 L 449 -65 L 449 0 Z " id="path44"/>
<path d="M 152 107 L 152 0 L 64 0 L 64 -735 L 152 -735 L 152 -843 L 212 -843 L 212 -735 L 234 -735 Q 244 -735 254 -734.5 Q 264 -734 274 -733 L 274 -843 L 333 -843 L 333 -715 Q 356 -703 374.5 -684.5 Q 393 -666 405 -643.5 Q 417 -621 421.5 -595.5 Q 426 -570 426 -544 Q 426 -519 421 -494 Q 416 -469 404 -447.5 Q 392 -426 372.5 -409.5 Q 353 -393 330 -383 Q 358 -373 382 -356 Q 406 -339 422.5 -315 Q 439 -291 445.5 -262.5 Q 452 -234 452 -204 Q 452 -175 445.5 -145.5 Q 439 -116 423.5 -90.5 Q 408 -65 384.5 -46 Q 361 -27 333 -16 L 333 107 L 274 107 L 274 -1 Q 264 -1 254 -0.5 Q 244 -0 234 0 L 212 0 L 212 107 Z M 133 -412 L 234 -412 Q 251 -412 267.5 -415.5 Q 284 -419 299 -427 Q 314 -435 325.5 -448 Q 337 -461 344 -476.5 Q 351 -492 354 -509 Q 357 -526 357 -543 Q 357 -560 354 -576.5 Q 351 -593 344 -608.5 Q 337 -624 325.5 -637 Q 314 -650 299 -658 Q 284 -666 267.5 -669.5 Q 251 -673 234 -673 L 133 -673 Z M 333 -382 L 332 -383 L 333 -383 Z M 133 -62 L 234 -62 Q 253 -62 272.5 -65.5 Q 292 -69 310 -77.5 Q 328 -86 342.5 -99.5 Q 357 -113 366 -130 Q 375 -147 379 -166.5 Q 383 -186 383 -206 Q 383 -226 379 -245.5 Q 375 -265 366 -282 Q 357 -299 342.5 -313 Q 328 -327 310 -335 Q 292 -343 272.5 -346.5 Q 253 -350 234 -350 L 133 -350 Z " id="path45"/>
<path d="M 247 8 Q 221 8 194.5 3 Q 168 -2 145 -15 Q 122 -28 104 -48 Q 86 -68 75 -92 Q 64 -116 60 -142.5 Q 56 -169 56 -195 L 56 -325 Q 56 -351 60 -377.5 Q 64 -404 75 -428 Q 86 -452 104 -472 Q 122 -492 145 -505 Q 168 -518 194.5 -523 Q 221 -528 247 -528 Q 272 -528 296.5 -524 Q 321 -520 343.5 -509 Q 366 -498 384.5 -480.5 Q 403 -463 415 -441.5 Q 427 -420 432.5 -395.5 Q 438 -371 438 -346 L 438 -340 L 360 -340 L 360 -344 Q 360 -367 353 -389 Q 346 -411 330 -427.5 Q 314 -444 292 -451 Q 270 -458 247 -458 Q 222 -458 198.5 -448 Q 175 -438 160 -418.5 Q 145 -399 139.5 -374.5 Q 134 -350 134 -325 L 134 -195 Q 134 -170 139.5 -145.5 Q 145 -121 160 -101.5 Q 175 -82 198.5 -72 Q 222 -62 247 -62 Q 270 -62 292 -69 Q 314 -76 330 -92.5 Q 346 -109 353 -131 Q 360 -153 360 -176 L 360 -180 L 438 -180 L 438 -174 Q 438 -149 432.5 -124.5 Q 427 -100 415 -78.5 Q 403 -57 384.5 -39.5 Q 366 -22 343.5 -11 Q 321 0 296.5 4 Q 272 8 247 8 Z M 436 182 L 64 182 L 64 118 L 436 118 Z " id="path46"/>
</defs>
<g>
<g data-source-text="0" fill="#dee4e3" transform="translate(174 41.292) rotate(0) scale(0.023999998)">
<use href="#path1" transform="translate(0 0)"/>
</g>
</g>
<g>
<g data-source-text="1" fill="#dee4e3" transform="translate(246 41.292) rotate(0) scale(0.023999998)">
<use href="#path2" transform="translate(0 0)"/>
</g>
</g>
<g>
<g data-source-text="2" fill="#dee4e3" transform="translate(318 41.292) rotate(0) scale(0.023999998)">
<use href="#path3" transform="translate(0 0)"/>
</g>
</g>
<g>
<g data-source-text="3" fill="#dee4e3" transform="translate(390 41.292) rotate(0) scale(0.023999998)">
<use href="#path4" transform="translate(0 0)"/>
</g>
</g>
<g>
<g data-source-text="4" fill="#dee4e3" transform="translate(462 41.292) rotate(0) scale(0.023999998)">
<use href="#path5" transform="translate(0 0)"/>
</g>
</g>
<g>
<g data-source-text="5" fill="#dee4e3" transform="translate(534 41.292) rotate(0) scale(0.023999998)">
<use href="#path6" transform="translate(0 0)"/>
</g>
</g>
<g>
<g data-source-text="6" fill="#dee4e3" transform="translate(606 41.292) rotate(0) scale(0.023999998)">
<use href="#path7" transform="translate(0 0)"/>
</g>
</g>
<g>
<g data-source-text="7" fill="#dee4e3" transform="translate(678 41.292) rotate(0) scale(0.023999998)">
<use href="#path8" transform="translate(0 0)"/>
</g>
</g>
<g>
<g data-source-text="8" fill="#dee4e3" transform="translate(750 41.292) rotate(0) scale(0.023999998)">
<use href="#path9" transform="translate(0 0)"/>
</g>
</g>
<g>
<g data-source-text="9" fill="#dee4e3" transform="translate(822 41.292) rotate(0) scale(0.023999998)">
<use href="#path10" transform="translate(0 0)"/>
</g>
</g>
<g>
<g data-source-text="A" fill="#dee4e3" transform="translate(894 41.292) rotate(0) scale(0.023999998)">
<use href="#path11" transform="translate(0 0)"/>
</g>
</g>
<g>
<g data-source-text="B" fill="#dee4e3" transform="translate(966 41.292) rotate(0) scale(0.023999998)">
<use href="#path12" transform="translate(0 0)"/>
</g>
</g>
<g>
<g data-source-text="C" fill="#dee4e3" transform="translate(1038 41.292) rotate(0) scale(0.023999998)">
<use href="#path13" transform="translate(0 0)"/>
</g>
</g>
<g>
<g data-source-text="D" fill="#dee4e3" transform="translate(1110 41.292) rotate(0) scale(0.023999998)">
<use href="#path14" transform="translate(0 0)"/>
</g>
</g>
<g>
<g data-source-text="E" fill="#dee4e3" transform="translate(1182 41.292) rotate(0) scale(0.023999998)">
<use href="#path15" transform="translate(0 0)"/>
</g>
</g>
<g>
<g data-source-text="F" fill="#dee4e3" transform="translate(1254 41.292) rotate(0) scale(0.023999998)">
<use href="#path16" transform="translate(0 0)"/>
</g>
</g>
<g>
<g data-source-text="U+20A0" fill="#dee4e3" transform="translate(36 113.292) rotate(0) scale(0.023999998)">
<use href="#path17" transform="translate(0 0)"/>
<use href="#path18" transform="translate(500 0)"/>
<use href="#path3" transform="translate(1000 0)"/>
<use href="#path1" transform="translate(1500 0)"/>
<use href="#path11" transform="translate(2000 0)"/>
<use href="#path1" transform="translate(2500 0)"/>
</g>
</g>
<g>
<g data-source-text="" fill="#dee4e340" transform="translate(168 118.584) rotate(0) scale(0.047999997)">
<use href="#path19" transform="translate(0 0)"/>
</g>
</g>
<g>
<g data-source-text="₡" fill="#dee4e3" transform="translate(240 118.584) rotate(0) scale(0.047999997)">
<use href="#path20" transform="translate(0 0)"/>
</g>
</g>
<g>
<g data-source-text="" fill="#dee4e340" transform="translate(312 118.584) rotate(0) scale(0.047999997)">
<use href="#path19" transform="translate(0 0)"/>
</g>
</g>
<g>
<g data-source-text="₣" fill="#dee4e3" transform="translate(384 118.584) rotate(0) scale(0.047999997)">
<use href="#path21" transform="translate(0 0)"/>
</g>
</g>
<g>
<g data-source-text="₤" fill="#dee4e3" transform="translate(456 118.584) rotate(0) scale(0.047999997)">
<use href="#path22" transform="translate(0 0)"/>
</g>
</g>
<g>
<g data-source-text="₥" fill="#dee4e3" transform="translate(528 118.584) rotate(0) scale(0.047999997)">
<use href="#path23" transform="translate(0 0)"/>
</g>
</g>
<g>
<g data-source-text="₦" fill="#dee4e3" transform="translate(600 118.584) rotate(0) scale(0.047999997)">
<use href="#path24" transform="translate(0 0)"/>
</g>
</g>
<g>
<g data-source-text="₧" fill="#dee4e3" transform="translate(672 118.584) rotate(0) scale(0.047999997)">
<use href="#path25" transform="translate(0 0)"/>
</g>
</g>
<g>
<g data-source-text="₨" fill="#dee4e3" transform="translate(744 118.584) rotate(0) scale(0.047999997)">
<use href="#path26" transform="translate(0 0)"/>
</g>
</g>
<g>
<g data-source-text="₩" fill="#dee4e3" transform="translate(816 118.584) rotate(0) scale(0.047999997)">
<use href="#path27" transform="translate(0 0)"/>
</g>
</g>
<g>
<g data-source-text="₪" fill="#dee4e3" transform="translate(888 118.584) rotate(0) scale(0.047999997)">
<use href="#path28" transform="translate(0 0)"/>
</g>
</g>
<g>
<g data-source-text="₫" fill="#dee4e3" transform="translate(960 118.584) rotate(0) scale(0.047999997)">
<use href="#path29" transform="translate(0 0)"/>
</g>
</g>
<g>
<g data-source-text="€" fill="#dee4e3" transform="translate(1032 118.584) rotate(0) scale(0.047999997)">
<use href="#path30" transform="translate(0 0)"/>
</g>
</g>
<g>
<g data-source-text="₭" fill="#dee4e3" transform="translate(1104 118.584) rotate(0) scale(0.047999997)">
<use href="#path31" transform="translate(0 0)"/>
</g>
</g>
<g>
<g data-source-text="₮" fill="#dee4e3" transform="translate(1176 118.584) rotate(0) scale(0.047999997)">
<use href="#path32" transform="translate(0 0)"/>
</g>
</g>
<g>
<g data-source-text="₯" fill="#dee4e3" transform="translate(1248 118.584) rotate(0) scale(0.047999997)">
<use href="#path33" transform="translate(0 0)"/>
</g>
</g>
<g>
<g data-source-text="U+20B0" fill="#dee4e3" transform="translate(36 185.292) rotate(0) scale(0.023999998)">
<use href="#path17" transform="translate(0 0)"/>
<use href="#path18" transform="translate(500 0)"/>
<use href="#path3" transform="translate(1000 0)"/>
<use href="#path1" transform="translate(1500 0)"/>
<use href="#path12" transform="translate(2000 0)"/>
<use href="#path1" transform="translate(2500 0)"/>
</g>
</g>
<g>
<g data-source-text="" fill="#dee4e340" transform="translate(168 190.584) rotate(0) scale(0.047999997)">
<use href="#path19" transform="translate(0 0)"/>
</g>
</g>
<g>
<g data-source-text="₱" fill="#dee4e3" transform="translate(240 190.584) rotate(0) scale(0.047999997)">
<use href="#path34" transform="translate(0 0)"/>
</g>
</g>
<g>
<g data-source-text="₲" fill="#dee4e3" transform="translate(312 190.584) rotate(0) scale(0.047999997)">
<use href="#path35" transform="translate(0 0)"/>
</g>
</g>
<g>
<g data-source-text="₳" fill="#dee4e3" transform="translate(384 190.584) rotate(0) scale(0.047999997)">
<use href="#path36" transform="translate(0 0)"/>
</g>
</g>
<g>
<g data-source-text="₴" fill="#dee4e3" transform="translate(456 190.584) rotate(0) scale(0.047999997)">
<use href="#path37" transform="translate(0 0)"/>
</g>
</g>
<g>
<g data-source-text="₵" fill="#dee4e3" transform="translate(528 190.584) rotate(0) scale(0.047999997)">
<use href="#path38" transform="translate(0 0)"/>
</g>
</g>
<g>
<g data-source-text="" fill="#dee4e340" transform="translate(600 190.584) rotate(0) scale(0.047999997)">
<use href="#path19" transform="translate(0 0)"/>
</g>
</g>
<g>
<g data-source-text="" fill="#dee4e340" transform="translate(672 190.584) rotate(0) scale(0.047999997)">
<use href="#path19" transform="translate(0 0)"/>
</g>
</g>
<g>
<g data-source-text="₸" fill="#dee4e3" transform="translate(744 190.584) rotate(0) scale(0.047999997)">
<use href="#path39" transform="translate(0 0)"/>
</g>
</g>
<g>
<g data-source-text="₹" fill="#dee4e3" transform="translate(816 190.584) rotate(0) scale(0.047999997)">
<use href="#path40" transform="translate(0 0)"/>
</g>
</g>
<g>
<g data-source-text="₺" fill="#dee4e3" transform="translate(888 190.584) rotate(0) scale(0.047999997)">
<use href="#path41" transform="translate(0 0)"/>
</g>
</g>
<g>
<g data-source-text="" fill="#dee4e340" transform="translate(960 190.584) rotate(0) scale(0.047999997)">
<use href="#path19" transform="translate(0 0)"/>
</g>
</g>
<g>
<g data-source-text="₼" fill="#dee4e3" transform="translate(1032 190.584) rotate(0) scale(0.047999997)">
<use href="#path42" transform="translate(0 0)"/>
</g>
</g>
<g>
<g data-source-text="₽" fill="#dee4e3" transform="translate(1104 190.584) rotate(0) scale(0.047999997)">
<use href="#path43" transform="translate(0 0)"/>
</g>
</g>
<g>
<g data-source-text="₾" fill="#dee4e3" transform="translate(1176 190.584) rotate(0) scale(0.047999997)">
<use href="#path44" transform="translate(0 0)"/>
</g>
</g>
<g>
<g data-source-text="₿" fill="#dee4e3" transform="translate(1248 190.584) rotate(0) scale(0.047999997)">
<use href="#path45" transform="translate(0 0)"/>
</g>
</g>
<g>
<g data-source-text="U+20C0" fill="#dee4e3" transform="translate(36 257.292) rotate(0) scale(0.023999998)">
<use href="#path17" transform="translate(0 0)"/>
<use href="#path18" transform="translate(500 0)"/>
<use href="#path3" transform="translate(1000 0)"/>
<use href="#path1" transform="translate(1500 0)"/>
<use href="#path13" transform="translate(2000 0)"/>
<use href="#path1" transform="translate(2500 0)"/>
</g>
</g>
<g>
<g data-source-text="⃀" fill="#dee4e3" transform="translate(168 262.584) rotate(0) scale(0.047999997)">
<use href="#path46" transform="translate(0 0)"/>
</g>
</g>
<g>
<g data-source-text="" fill="#dee4e340" transform="translate(240 262.584) rotate(0) scale(0.047999997)">
<use href="#path19" transform="translate(0 0)"/>
</g>
</g>
<g>
<g data-source-text="" fill="#dee4e340" transform="translate(312 262.584) rotate(0) scale(0.047999997)">
<use href="#path19" transform="translate(0 0)"/>
</g>
</g>
<g>
<g data-source-text="" fill="#dee4e340" transform="translate(384 262.584) rotate(0) scale(0.047999997)">
<use href="#path19" transform="translate(0 0)"/>
</g>
</g>
<g>
<g data-source-text="" fill="#dee4e340" transform="translate(456 262.584) rotate(0) scale(0.047999997)">
<use href="#path19" transform="translate(0 0)"/>
</g>
</g>
<g>
<g data-source-text="" fill="#dee4e340" transform="translate(528 262.584) rotate(0) scale(0.047999997)">
<use href="#path19" transform="translate(0 0)"/>
</g>
</g>
<g>
<g data-source-text="" fill="#dee4e340" transform="translate(600 262.584) rotate(0) scale(0.047999997)">
<use href="#path19" transform="translate(0 0)"/>
</g>
</g>
<g>
<g data-source-text="" fill="#dee4e340" transform="translate(672 262.584) rotate(0) scale(0.047999997)">
<use href="#path19" transform="translate(0 0)"/>
</g>
</g>
<g>
<g data-source-text="" fill="#dee4e340" transform="translate(744 262.584) rotate(0) scale(0.047999997)">
<use href="#path19" transform="translate(0 0)"/>
</g>
</g>
<g>
<g data-source-text="" fill="#dee4e340" transform="translate(816 262.584) rotate(0) scale(0.047999997)">
<use href="#path19" transform="translate(0 0)"/>
</g>
</g>
<g>
<g data-source-text="" fill="#dee4e340" transform="translate(888 262.584) rotate(0) scale(0.047999997)">
<use href="#path19" transform="translate(0 0)"/>
</g>
</g>
<g>
<g data-source-text="" fill="#dee4e340" transform="translate(960 262.584) rotate(0) scale(0.047999997)">
<use href="#path19" transform="translate(0 0)"/>
</g>
</g>
<g>
<g data-source-text="" fill="#dee4e340" transform="translate(1032 262.584) rotate(0) scale(0.047999997)">
<use href="#path19" transform="translate(0 0)"/>
</g>
</g>
<g>
<g data-source-text="" fill="#dee4e340" transform="translate(1104 262.584) rotate(0) scale(0.047999997)">
<use href="#path19" transform="translate(0 0)"/>
</g>
</g>
<g>
<g data-source-text="" fill="#dee4e340" transform="translate(1176 262.584) rotate(0) scale(0.047999997)">
<use href="#path19" transform="translate(0 0)"/>
</g>
</g>
<g>
<g data-source-text="" fill="#dee4e340" transform="translate(1248 262.584) rotate(0) scale(0.047999997)">
<use href="#path19" transform="translate(0 0)"/>
</g>
</g>
</svg>