<?xml version="1.0" encoding="UTF-8" standalone="no"?>
<svg height="360" viewBox="0 0 1296 360" width="1296" xmlns="http://www.w3.org/2000/svg">
<defs>
<path d="M 250 8 Q 223 8 196 3 Q 169 -2 145 -15 Q 121 -28 102.5 -48.5 Q 84 -69 72.5 -94 Q 61 -119 56.5 -146 Q 52 -173 52 -200 L 52 -535 Q 52 -562 56.5 -589 Q 61 -616 72.5 -641 Q 84 -666 102.5 -686.5 Q 121 -707 145 -720 Q 169 -733 196 -738 Q 223 -743 250 -743 Q 277 -743 304 -738 Q 331 -733 355 -720 Q 379 -707 397.5 -686.5 Q 416 -666 427.5 -641 Q 439 -616 443.5 -589 Q 448 -562 448 -535 L 448 -200 Q 448 -173 443.5 -146 Q 439 -119 427.5 -94 Q 416 -69 397.5 -48.5 Q 379 -28 355 -15 Q 331 -2 304 3 Q 277 8 250 8 Z M 152 -338 L 348 -493 L 348 -535 Q 348 -557 343 -579 Q 338 -601 325.5 -618.5 Q 313 -636 292.5 -645.5 Q 272 -655 250 -655 Q 228 -655 207.5 -645.5 Q 187 -636 174.5 -618.5 Q 162 -601 157 -579 Q 152 -557 152 -535 Z M 250 -80 Q 272 -80 292.5 -89.5 Q 313 -99 325.5 -116.5 Q 338 -134 343 -156 Q 348 -178 348 -200 L 348 -397 L 152 -242 L 152 -200 Q 152 -178 157 -156 Q 162 -134 174.5 -116.5 Q 187 -99 207.5 -89.5 Q 228 -80 250 -80 Z " id="path1"/>
<path d="M 230 0 L 230 -632 L 110 -528 L 55 -584 L 230 -735 L 330 -735 L 330 0 Z " id="path2"/>
<path d="M 60 0 L 60 -1 Q 60 -27 61 -54 Q 62 -81 65.5 -107 Q 69 -133 77 -158.5 Q 85 -184 96.5 -208 Q 108 -232 123 -253.5 Q 138 -275 156 -294.5 Q 174 -314 194 -331 Q 214 -348 235.5 -364 Q 257 -380 277.5 -397 Q 298 -414 313 -435.5 Q 328 -457 336 -483 Q 344 -509 344 -535 Q 344 -557 339.5 -578 Q 335 -599 323.5 -617 Q 312 -635 292 -645 Q 272 -655 251 -655 Q 231 -655 212.5 -647.5 Q 194 -640 181.5 -625 Q 169 -610 163.5 -591 Q 158 -572 158 -552 L 158 -548 L 58 -548 L 58 -555 Q 58 -581 63.5 -606 Q 69 -631 81 -653 Q 93 -675 111.5 -693 Q 130 -711 152.5 -722.5 Q 175 -734 200.5 -738.5 Q 226 -743 251 -743 Q 278 -743 304.5 -737.5 Q 331 -732 354.5 -719 Q 378 -706 396 -685.5 Q 414 -665 425 -640.5 Q 436 -616 440 -589 Q 444 -562 444 -535 Q 444 -501 435 -468 Q 426 -435 407.5 -406 Q 389 -377 364 -353.5 Q 339 -330 312.5 -308.5 Q 286 -287 261 -264 Q 236 -241 216 -213 Q 196 -185 183 -153.5 Q 170 -122 165 -88 L 440 -88 L 440 0 Z " id="path3"/>
<path d="M 253 8 Q 227 8 201 4 Q 175 -0 151 -11.5 Q 127 -23 107.5 -40.5 Q 88 -58 75.5 -81 Q 63 -104 56.5 -129.5 Q 50 -155 50 -181 L 50 -187 L 150 -187 L 150 -184 Q 150 -163 157 -143 Q 164 -123 178 -108 Q 192 -93 212 -86.5 Q 232 -80 253 -80 Q 275 -80 296 -88.5 Q 317 -97 330.5 -114.5 Q 344 -132 350 -154 Q 356 -176 356 -198 Q 356 -217 352 -235.5 Q 348 -254 339 -271 Q 330 -288 316.5 -301 Q 303 -314 286 -322 Q 269 -330 250 -332 Q 231 -334 212 -334 L 212 -422 Q 229 -422 246 -424 Q 263 -426 278.5 -433 Q 294 -440 306 -452.5 Q 318 -465 325.5 -480.5 Q 333 -496 336.5 -513 Q 340 -530 340 -547 Q 340 -566 335.5 -585.5 Q 331 -605 320 -621.5 Q 309 -638 291 -646.5 Q 273 -655 253 -655 Q 234 -655 216 -647 Q 198 -639 187 -624 Q 176 -609 171 -590 Q 166 -571 166 -553 L 166 -548 L 66 -548 L 66 -556 Q 66 -581 71.5 -605.5 Q 77 -630 88 -652 Q 99 -674 116.5 -692.5 Q 134 -711 156.5 -722.5 Q 179 -734 203.5 -738.5 Q 228 -743 253 -743 Q 278 -743 303.5 -738 Q 329 -733 351 -721 Q 373 -709 390.5 -690 Q 408 -671 419 -648 Q 430 -625 435 -600 Q 440 -575 440 -550 Q 440 -524 434 -498.5 Q 428 -473 416 -450.5 Q 404 -428 385 -409.5 Q 366 -391 343 -379 Q 370 -368 391.5 -348.5 Q 413 -329 427.5 -304.5 Q 442 -280 449 -252 Q 456 -224 456 -196 Q 456 -168 450 -141.5 Q 444 -115 432 -91 Q 420 -67 401 -47 Q 382 -27 358 -14.5 Q 334 -2 307 3 Q 280 8 253 8 Z " id="path4"/>
<path d="M 282 0 L 282 -188 L 52 -188 L 52 -275 L 276 -735 L 377 -735 L 152 -275 L 282 -275 L 282 -435 L 383 -435 L 383 -275 L 440 -275 L 440 -188 L 383 -188 L 383 0 Z " id="path5"/>
<path d="M 252 8 Q 227 8 202.5 3.5 Q 178 -1 155.5 -12 Q 133 -23 114.5 -41 Q 96 -59 84 -80.5 Q 72 -102 65.5 -126.5 Q 59 -151 58 -176 L 159 -176 Q 160 -158 166.5 -139.5 Q 173 -121 185.5 -107 Q 198 -93 216 -86.5 Q 234 -80 252 -80 Q 269 -80 285 -87 Q 301 -94 312.5 -107 Q 324 -120 330.5 -135.5 Q 337 -151 341 -167.5 Q 345 -184 346.5 -201 Q 348 -218 348 -235 Q 348 -252 346.5 -269 Q 345 -286 341.5 -302.5 Q 338 -319 331.5 -334.5 Q 325 -350 314.5 -363 Q 304 -376 288 -383.5 Q 272 -391 256 -391 Q 240 -391 224 -387 Q 208 -383 195.5 -373.5 Q 183 -364 176 -349.5 Q 169 -335 168 -319 L 68 -319 L 68 -735 L 421 -735 L 421 -647 L 168 -647 L 168 -464 Q 189 -472 211 -475 Q 233 -478 256 -478 Q 285 -478 313.5 -470.5 Q 342 -463 365.5 -445.5 Q 389 -428 405.5 -403 Q 422 -378 431.5 -350.5 Q 441 -323 444.5 -294 Q 448 -265 448 -235 Q 448 -206 444.5 -176.5 Q 441 -147 431 -119 Q 421 -91 404.5 -66.5 Q 388 -42 364 -24.5 Q 340 -7 311 0.5 Q 282 8 252 8 Z " id="path6"/>
<path d="M 250 8 Q 221 8 192.5 1.5 Q 164 -5 140 -21 Q 116 -37 98.5 -60.5 Q 81 -84 70.5 -111 Q 60 -138 56 -166.5 Q 52 -195 52 -224 Q 52 -268 59.5 -311 Q 67 -354 81 -395.5 Q 95 -437 113 -477 Q 131 -517 150 -556 L 238 -735 L 347 -735 L 240 -517 Q 228 -492 216 -467 Q 204 -442 194 -416 Q 212 -436 238.5 -446 Q 265 -456 292 -456 Q 318 -456 343.5 -447 Q 369 -438 387.5 -419.5 Q 406 -401 418 -377 Q 430 -353 436.5 -328 Q 443 -303 445.5 -276.5 Q 448 -250 448 -224 Q 448 -195 444 -166.5 Q 440 -138 429.5 -111 Q 419 -84 401.5 -60.5 Q 384 -37 360 -21 Q 336 -5 307.5 1.5 Q 279 8 250 8 Z M 250 -80 Q 266 -80 282 -85.5 Q 298 -91 309.5 -102.5 Q 321 -114 328.5 -129 Q 336 -144 340.5 -159.5 Q 345 -175 346.5 -191.5 Q 348 -208 348 -224 Q 348 -240 346.5 -256.5 Q 345 -273 340.5 -289 Q 336 -305 328.5 -319.5 Q 321 -334 309.5 -345.5 Q 298 -357 282 -362.5 Q 266 -368 250 -368 Q 235 -368 221 -363.5 Q 207 -359 195.5 -349.5 Q 184 -340 176 -327.5 Q 168 -315 163.5 -301 Q 159 -287 156.5 -272.5 Q 154 -258 153 -243 Q 153 -238 152.5 -233.5 Q 152 -229 152 -224 Q 152 -208 153.5 -191.5 Q 155 -175 159.5 -159.5 Q 164 -144 171.5 -129 Q 179 -114 190.5 -102.5 Q 202 -91 218 -85.5 Q 234 -80 250 -80 Z " id="path7"/>
<path d="M 138 0 L 336 -647 L 60 -647 L 60 -735 L 440 -735 L 440 -647 L 242 0 Z " id="path8"/>
<path d="M 250 8 Q 225 8 200 4 Q 175 -0 152 -10 Q 129 -20 109.5 -37 Q 90 -54 77.5 -75.5 Q 65 -97 58.5 -121.5 Q 52 -146 52 -172 Q 52 -203 61.5 -232.5 Q 71 -262 88 -288.5 Q 105 -315 127 -336.5 Q 149 -358 174 -378 Q 152 -396 132.5 -417 Q 113 -438 98.5 -462.5 Q 84 -487 76 -514.5 Q 68 -542 68 -570 Q 68 -594 73.5 -617.5 Q 79 -641 90.5 -661.5 Q 102 -682 119.5 -698.5 Q 137 -715 158 -725 Q 179 -735 202.5 -739 Q 226 -743 250 -743 Q 274 -743 297.5 -739 Q 321 -735 342 -725 Q 363 -715 380.5 -698.5 Q 398 -682 409.5 -661.5 Q 421 -641 426.5 -617.5 Q 432 -594 432 -570 Q 432 -542 424 -514.5 Q 416 -487 401.5 -462.5 Q 387 -438 367.5 -417 Q 348 -396 326 -378 Q 351 -358 373 -336.5 Q 395 -315 412 -288.5 Q 429 -262 438.5 -232.5 Q 448 -203 448 -172 Q 448 -146 441.5 -121.5 Q 435 -97 422.5 -75.5 Q 410 -54 390.5 -37 Q 371 -20 348 -10 Q 325 -0 300 4 Q 275 8 250 8 Z M 250 -434 Q 266 -447 280.5 -461.5 Q 295 -476 306.5 -493 Q 318 -510 325 -529.5 Q 332 -549 332 -569 Q 332 -586 327 -602.5 Q 322 -619 310.5 -631.5 Q 299 -644 283 -649.5 Q 267 -655 250 -655 Q 233 -655 217 -649.5 Q 201 -644 189.5 -631.5 Q 178 -619 173 -602.5 Q 168 -586 168 -569 Q 168 -549 175 -529.5 Q 182 -510 193.5 -493 Q 205 -476 219.5 -461.5 Q 234 -447 250 -434 Z M 250 -80 Q 269 -80 288 -85.5 Q 307 -91 320.5 -104 Q 334 -117 341 -135.5 Q 348 -154 348 -173 Q 348 -196 339.5 -217.5 Q 331 -239 317 -257.5 Q 303 -276 285.5 -291 Q 268 -306 250 -320 Q 232 -306 214.5 -291 Q 197 -276 183 -257.5 Q 169 -239 160.5 -217.5 Q 152 -196 152 -173 Q 152 -154 159 -135.5 Q 166 -117 179.5 -104 Q 193 -91 212 -85.5 Q 231 -80 250 -80 Z " id="path9"/>
<path d="M 262 0 L 153 0 L 260 -218 Q 272 -243 284 -268 Q 296 -293 306 -319 Q 288 -299 261.5 -289 Q 235 -279 208 -279 Q 182 -279 156.5 -288 Q 131 -297 112.5 -315.5 Q 94 -334 82 -358 Q 70 -382 63.5 -407 Q 57 -432 54.5 -458.5 Q 52 -485 52 -511 Q 52 -540 56 -568.5 Q 60 -597 70.5 -624 Q 81 -651 98.5 -674.5 Q 116 -698 140 -714 Q 164 -730 192.5 -736.5 Q 221 -743 250 -743 Q 279 -743 307.5 -736.5 Q 336 -730 360 -714 Q 384 -698 401.5 -674.5 Q 419 -651 429.5 -624 Q 440 -597 444 -568.5 Q 448 -540 448 -511 Q 448 -467 440.5 -424 Q 433 -381 419 -339.5 Q 405 -298 387 -258 Q 369 -218 350 -179 Z M 250 -367 Q 265 -367 279 -371.5 Q 293 -376 304.5 -385.5 Q 316 -395 324 -407.5 Q 332 -420 336.5 -434 Q 341 -448 343.5 -462.5 Q 346 -477 347 -492 Q 347 -497 347.5 -501.5 Q 348 -506 348 -511 Q 348 -527 346.5 -543.5 Q 345 -560 340.5 -575.5 Q 336 -591 328.5 -606 Q 321 -621 309.5 -632.5 Q 298 -644 282 -649.5 Q 266 -655 250 -655 Q 234 -655 218 -649.5 Q 202 -644 190.5 -632.5 Q 179 -621 171.5 -606 Q 164 -591 159.5 -575.5 Q 155 -560 153.5 -543.5 Q 152 -527 152 -511 Q 152 -495 153.5 -478.5 Q 155 -462 159.5 -446 Q 164 -430 171.5 -415.5 Q 179 -401 190.5 -389.5 Q 202 -378 218 -372.5 Q 234 -367 250 -367 Z " id="path10"/>
<path d="M 39 0 L 53 -70 L 192 -735 L 308 -735 L 461 0 L 359 0 L 326 -172 L 174 -172 L 141 0 Z M 310 -260 L 267 -490 Q 263 -513 258.5 -536 Q 254 -559 250 -582 Q 246 -559 241.5 -536 Q 237 -513 233 -490 L 190 -260 Z " id="path11"/>
<path d="M 60 0 L 60 -735 L 235 -735 Q 261 -735 287 -730.5 Q 313 -726 336.5 -714 Q 360 -702 378.5 -682.5 Q 397 -663 408.5 -639.5 Q 420 -616 424.5 -590 Q 429 -564 429 -538 Q 429 -515 425.5 -492 Q 422 -469 411.5 -448.5 Q 401 -428 384.5 -411 Q 368 -394 348 -383 Q 373 -373 394.5 -355.5 Q 416 -338 430.5 -314.5 Q 445 -291 450.5 -264 Q 456 -237 456 -210 Q 456 -181 450.5 -152.5 Q 445 -124 431 -98.5 Q 417 -73 395.5 -53.5 Q 374 -34 347.5 -21.5 Q 321 -9 292.5 -4.5 Q 264 -0 235 0 Z M 160 -424 L 235 -424 Q 256 -424 275.5 -432.5 Q 295 -441 307.5 -457.5 Q 320 -474 324.5 -494.5 Q 329 -515 329 -536 Q 329 -557 324.5 -577.5 Q 320 -598 307.5 -614.5 Q 295 -631 275.5 -639 Q 256 -647 235 -647 L 160 -647 Z M 160 -88 L 235 -88 Q 251 -88 267.5 -91 Q 284 -94 298.5 -101.5 Q 313 -109 324.5 -121 Q 336 -133 343 -148 Q 350 -163 353 -179 Q 356 -195 356 -212 Q 356 -228 353 -244.5 Q 350 -261 343 -276 Q 336 -291 324.5 -303 Q 313 -315 298.5 -322.5 Q 284 -330 267.5 -333 Q 251 -336 235 -336 L 160 -336 Z " id="path12"/>
<path d="M 247 8 Q 220 8 193 3 Q 166 -2 142.5 -15.5 Q 119 -29 101 -49.5 Q 83 -70 71.5 -94.5 Q 60 -119 56 -146 Q 52 -173 52 -200 L 52 -535 Q 52 -562 56 -589 Q 60 -616 71.5 -640.5 Q 83 -665 101 -685.5 Q 119 -706 142.5 -719.5 Q 166 -733 193 -738 Q 220 -743 247 -743 Q 273 -743 298 -738.5 Q 323 -734 346 -723 Q 369 -712 387.5 -694 Q 406 -676 418 -653.5 Q 430 -631 436 -606 Q 442 -581 442 -555 L 442 -548 L 342 -548 L 342 -552 Q 342 -572 336 -591.5 Q 330 -611 317.5 -626 Q 305 -641 286 -648 Q 267 -655 247 -655 Q 225 -655 205 -645.5 Q 185 -636 173 -618 Q 161 -600 156.5 -578.5 Q 152 -557 152 -535 L 152 -200 Q 152 -178 156.5 -156.5 Q 161 -135 173 -117 Q 185 -99 205 -89.5 Q 225 -80 247 -80 Q 267 -80 286 -87 Q 305 -94 317.5 -109 Q 330 -124 336 -143.5 Q 342 -163 342 -183 L 342 -187 L 442 -187 L 442 -180 Q 442 -154 436 -129 Q 430 -104 418 -81.5 Q 406 -59 387.5 -41 Q 369 -23 346 -12 Q 323 -1 298 3.5 Q 273 8 247 8 Z " id="path13"/>
<path d="M 60 0 L 60 -735 L 220 -735 Q 250 -735 280.5 -730.5 Q 311 -726 339 -713.5 Q 367 -701 390.5 -680 Q 414 -659 429 -632.5 Q 444 -606 450 -575.5 Q 456 -545 456 -515 L 456 -220 Q 456 -190 450 -159.5 Q 444 -129 429 -102.5 Q 414 -76 390.5 -55 Q 367 -34 339 -21.5 Q 311 -9 280.5 -4.5 Q 250 -0 220 0 Z M 160 -88 L 220 -88 Q 238 -88 256 -91 Q 274 -94 290 -101.5 Q 306 -109 319 -122 Q 332 -135 340.5 -151 Q 349 -167 352.5 -184.5 Q 356 -202 356 -220 L 356 -515 Q 356 -533 352.5 -550.5 Q 349 -568 340.5 -584 Q 332 -600 319 -613 Q 306 -626 290 -633.5 Q 274 -641 256 -644 Q 238 -647 220 -647 L 160 -647 Z " id="path14"/>
<path d="M 68 0 L 68 -735 L 440 -735 L 440 -647 L 168 -647 L 168 -426 L 383 -426 L 383 -338 L 168 -338 L 168 -88 L 440 -88 L 440 0 Z " id="path15"/>
<path d="M 90 0 L 90 -735 L 440 -735 L 440 -647 L 190 -647 L 190 -426 L 383 -426 L 383 -338 L 190 -338 L 190 0 Z " id="path16"/>
<path d="M 250 8 Q 223 8 196.5 2.5 Q 170 -3 147 -16.5 Q 124 -30 106.5 -50.5 Q 89 -71 78.5 -95.5 Q 68 -120 64 -146.5 Q 60 -173 60 -200 L 60 -735 L 160 -735 L 160 -200 Q 160 -186 161.5 -172 Q 163 -158 167.5 -144.5 Q 172 -131 179.5 -118.5 Q 187 -106 197.5 -97 Q 208 -88 222 -84 Q 236 -80 250 -80 Q 264 -80 278 -84 Q 292 -88 302.5 -97 Q 313 -106 320.5 -118.5 Q 328 -131 332.5 -144.5 Q 337 -158 338.5 -172 Q 340 -186 340 -200 L 340 -735 L 440 -735 L 440 -200 Q 440 -173 436 -146.5 Q 432 -120 421.5 -95.5 Q 411 -71 393.5 -50.5 Q 376 -30 353 -16.5 Q 330 -3 303.5 2.5 Q 277 8 250 8 Z " id="path17"/>
<path d="M 296 -142 L 204 -142 L 204 -300 L 60 -300 L 60 -380 L 204 -380 L 204 -538 L 296 -538 L 296 -380 L 440 -380 L 440 -300 L 296 -300 Z " id="path18"/>
<path d="M 210 223 L 210 161 Q 232 161 254 154 Q 276 147 291.5 131.5 Q 307 116 313.5 94 Q 320 72 320 50 L 320 5 Q 311 7 302.5 7.5 Q 294 8 285 8 Q 261 8 238 1.5 Q 215 -5 196 -19 Q 177 -33 163.5 -53 Q 150 -73 142 -96 L 142 0 L 64 0 L 64 -735 L 142 -735 L 142 -424 Q 150 -447 163.5 -467 Q 177 -487 196 -501 Q 215 -515 238 -521.5 Q 261 -528 285 -528 Q 310 -528 334 -521 Q 358 -514 377.5 -498.5 Q 397 -483 410 -462 Q 423 -441 431 -417.5 Q 439 -394 441.5 -369.5 Q 444 -345 444 -320 L 444 -200 Q 444 -177 442 -154.5 Q 440 -132 433.5 -110.5 Q 427 -89 416 -68.5 Q 405 -48 390 -32 L 390 50 Q 390 73 385.5 96.5 Q 381 120 369.5 141 Q 358 162 340.5 178.5 Q 323 195 302 205 Q 281 215 257.5 219 Q 234 223 210 223 Z M 254 -62 Q 271 -62 287.5 -66 Q 304 -70 317.5 -80 Q 331 -90 341 -104 Q 351 -118 356.5 -134 Q 362 -150 364 -166.5 Q 366 -183 366 -200 L 366 -320 Q 366 -337 364 -353.5 Q 362 -370 356.5 -386 Q 351 -402 341 -416 Q 331 -430 317.5 -440 Q 304 -450 287.5 -454 Q 271 -458 254 -458 Q 237 -458 220.5 -454 Q 204 -450 190.5 -440 Q 177 -430 167 -416 Q 157 -402 151.5 -386 Q 146 -370 144 -353.5 Q 142 -337 142 -320 L 142 -200 Q 142 -183 144 -166.5 Q 146 -150 151.5 -134 Q 157 -118 167 -104 Q 177 -90 190.5 -80 Q 204 -70 220.5 -66 Q 237 -62 254 -62 Z " id="path19"/>
<path d="M 303 223 L 303 161 Q 325 161 346.5 154 Q 368 147 384 131.5 Q 400 116 406.5 94 Q 413 72 413 50 L 413 0 L 358 0 L 358 -96 Q 350 -73 336.5 -53 Q 323 -33 304 -19 Q 285 -5 262 1.5 Q 239 8 215 8 Q 190 8 166 1 Q 142 -6 122.5 -21.5 Q 103 -37 90 -58 Q 77 -79 69 -102.5 Q 61 -126 58.5 -150.5 Q 56 -175 56 -200 L 56 -320 Q 56 -345 58.5 -369.5 Q 61 -394 69 -417.5 Q 77 -441 90 -462 Q 103 -483 122.5 -498.5 Q 142 -514 166 -521 Q 190 -528 215 -528 Q 239 -528 262 -521.5 Q 285 -515 304 -501 Q 323 -487 336.5 -467 Q 350 -447 358 -424 L 358 -735 L 436 -735 L 436 -70 L 482 -70 L 482 50 Q 482 73 477.5 96.5 Q 473 120 462 141 Q 451 162 433.5 178.5 Q 416 195 394.5 205 Q 373 215 349.5 219 Q 326 223 303 223 Z M 246 -62 Q 263 -62 279.5 -66 Q 296 -70 309.5 -80 Q 323 -90 333 -104 Q 343 -118 348.5 -134 Q 354 -150 356 -166.5 Q 358 -183 358 -200 L 358 -320 Q 358 -337 356 -353.5 Q 354 -370 348.5 -386 Q 343 -402 333 -416 Q 323 -430 309.5 -440 Q 296 -450 279.5 -454 Q 263 -458 246 -458 Q 229 -458 212.5 -454 Q 196 -450 182.5 -440 Q 169 -430 159 -416 Q 149 -402 143.5 -386 Q 138 -370 136 -353.5 Q 134 -337 134 -320 L 134 -200 Q 134 -183 136 -166.5 Q 138 -150 143.5 -134 Q 149 -118 159 -104 Q 169 -90 182.5 -80 Q 196 -70 212.5 -66 Q 229 -62 246 -62 Z " id="path20"/>
<path d="M 142 223 L 142 161 Q 164 161 186 154 Q 208 147 223.5 131.5 Q 239 116 245.5 94 Q 252 72 252 50 L 252 0 L 175 0 L 175 -403 L 64 -403 L 64 -473 L 175 -473 L 175 -579 Q 175 -599 177.5 -619.5 Q 180 -640 187.5 -659 Q 195 -678 207.5 -694.5 Q 220 -711 236.5 -722.5 Q 253 -734 273.5 -738.5 Q 294 -743 314 -743 Q 342 -743 369 -734 Q 396 -725 415.5 -705 Q 435 -685 444 -658 Q 453 -631 453 -603 L 453 -600 L 375 -600 L 375 -601 Q 375 -615 371.5 -628 Q 368 -641 360 -651.5 Q 352 -662 339.5 -667.5 Q 327 -673 314 -673 Q 298 -673 284.5 -664 Q 271 -655 264 -640.5 Q 257 -626 254.5 -610.5 Q 252 -595 252 -579 L 252 -473 L 417 -473 L 417 -403 L 252 -403 L 252 -70 L 322 -70 L 322 50 Q 322 73 317.5 96.5 Q 313 120 302 141 Q 291 162 273.5 178.5 Q 256 195 234.5 205 Q 213 215 189.5 219 Q 166 223 142 223 Z " id="path21"/>
<path d="M 183 -57 Q 197 -57 208 -67.5 Q 219 -78 224.5 -90.5 Q 230 -103 233.5 -116.5 Q 237 -130 238.5 -144 Q 240 -158 241 -172 Q 242 -186 242 -200 L 242 -320 Q 242 -334 241 -348 Q 240 -362 238.5 -376 Q 237 -390 233.5 -403.5 Q 230 -417 224.5 -429.5 Q 219 -442 208 -452.5 Q 197 -463 184 -463 Q 170 -463 159 -452.5 Q 148 -442 142.5 -429.5 Q 137 -417 133.5 -403.5 Q 130 -390 128.5 -376 Q 127 -362 126 -348 Q 125 -334 125 -320 L 125 -200 Q 125 -186 126 -172 Q 127 -158 128.5 -144 Q 130 -130 133.5 -116.5 Q 137 -103 142.5 -90.5 Q 148 -78 159 -67.5 Q 170 -57 183 -57 Z M 185 223 Q 167 223 149.5 218.5 Q 132 214 117.5 204.5 Q 103 195 92 180.5 Q 81 166 74 149.5 Q 67 133 63.5 115.5 Q 60 98 59 80 L 131 80 Q 132 93 134.5 106 Q 137 119 143 131 Q 149 143 160.5 150.5 Q 172 158 185 158 Q 199 158 209.5 147.5 Q 220 137 225.5 124.5 Q 231 112 234 98 Q 237 84 238.5 70.5 Q 240 57 241 43 Q 242 29 242 15 L 242 -75 Q 237 -60 229.5 -45 Q 222 -30 211.5 -18 Q 201 -6 186 1 Q 171 8 155 8 Q 139 8 124 1 Q 109 -6 98.5 -18 Q 88 -30 81 -44.5 Q 74 -59 69 -74 Q 64 -89 61 -104.5 Q 58 -120 56 -136 Q 54 -152 53.5 -168 Q 53 -184 53 -200 L 53 -320 Q 53 -336 53.5 -352 Q 54 -368 56 -384 Q 58 -400 61 -415.5 Q 64 -431 69 -446 Q 74 -461 81 -475.5 Q 88 -490 98.5 -502 Q 109 -514 124 -521 Q 139 -528 155 -528 Q 171 -528 186 -521 Q 201 -514 211.5 -502 Q 222 -490 229.5 -475 Q 237 -460 242 -445 L 242 -485 L 236 -485 L 314 -520 L 314 -70 L 436 -70 L 436 50 Q 436 78 429.5 106 Q 423 134 406.5 157 Q 390 180 365.5 195.5 Q 341 211 314 217 L 314 149 Q 327 142 337.5 131.5 Q 348 121 355 107.5 Q 362 94 364.5 79.5 Q 367 65 367 50 L 367 0 L 314 0 L 314 15 Q 314 38 312 61 Q 310 84 305 106 Q 300 128 290.5 149 Q 281 170 266 187.5 Q 251 205 229.5 214 Q 208 223 185 223 Z " id="path22"/>
<path d="M 303 223 L 303 161 Q 325 161 346.5 154 Q 368 147 384 131.5 Q 400 116 406.5 94 Q 413 72 413 50 L 413 0 L 353 0 L 210 -225 L 157 -158 L 157 0 L 80 0 L 80 -735 L 157 -735 L 157 -269 L 349 -520 L 443 -520 L 256 -283 L 397 -70 L 482 -70 L 482 50 Q 482 73 477.5 96.5 Q 473 120 462 141 Q 451 162 433.5 178.5 Q 416 195 394.5 205 Q 373 215 349.5 219 Q 326 223 303 223 Z " id="path23"/>
<path d="M 280 223 L 280 161 Q 302 161 324 154 Q 346 147 361.5 131.5 Q 377 116 383.5 94 Q 390 72 390 50 L 390 0 L 75 0 L 75 -70 L 218 -70 L 218 -665 L 89 -665 L 89 -735 L 296 -735 L 296 -70 L 460 -70 L 460 50 Q 460 73 455.5 96.5 Q 451 120 440 141 Q 429 162 411.5 178.5 Q 394 195 372.5 205 Q 351 215 327.5 219 Q 304 223 280 223 Z " id="path24"/>
<path d="M 316 223 L 316 161 Q 338 161 360 154 Q 382 147 397.5 131.5 Q 413 116 419.5 94 Q 426 72 426 50 L 426 0 L 377 0 L 377 -394 Q 377 -405 375 -417 Q 373 -429 368 -439 Q 363 -449 353 -456 Q 343 -463 332 -463 Q 320 -463 310 -456 Q 300 -449 295 -439 Q 290 -429 288 -417 Q 286 -405 286 -394 L 286 0 L 214 0 L 214 -394 Q 214 -405 212 -417 Q 210 -429 205 -439 Q 200 -449 190 -456 Q 180 -463 168 -463 Q 157 -463 147 -456 Q 137 -449 132 -439 Q 127 -429 125 -417 Q 123 -405 123 -394 L 123 0 L 51 0 L 51 -520 L 123 -520 L 123 -474 Q 128 -485 135 -495.5 Q 142 -506 151.5 -513.5 Q 161 -521 173 -524.5 Q 185 -528 198 -528 Q 213 -528 227 -522.5 Q 241 -517 251.5 -506.5 Q 262 -496 269 -482 Q 276 -468 280 -454 Q 283 -468 289.5 -482 Q 296 -496 306.5 -506.5 Q 317 -517 331.5 -522.5 Q 346 -528 361 -528 Q 376 -528 390 -522.5 Q 404 -517 415 -506.5 Q 426 -496 432.5 -482 Q 439 -468 443 -453.5 Q 447 -439 448 -424 Q 449 -409 449 -394 L 449 -70 L 495 -70 L 495 50 Q 495 73 491 96.5 Q 487 120 475.5 141 Q 464 162 446.5 178.5 Q 429 195 407.5 205 Q 386 215 362.5 219 Q 339 223 316 223 Z " id="path25"/>
<path d="M 303 223 L 303 161 Q 325 161 346.5 154 Q 368 147 384 131.5 Q 400 116 406.5 94 Q 413 72 413 50 L 413 0 L 358 0 L 358 -320 Q 358 -337 356 -353.5 Q 354 -370 349 -385.5 Q 344 -401 334.5 -415 Q 325 -429 312 -439 Q 299 -449 283 -453.5 Q 267 -458 250 -458 Q 233 -458 217 -453.5 Q 201 -449 188 -439 Q 175 -429 165.5 -415 Q 156 -401 151 -385.5 Q 146 -370 144 -353.5 Q 142 -337 142 -320 L 142 0 L 64 0 L 64 -520 L 142 -520 L 142 -425 Q 150 -447 162.5 -467 Q 175 -487 193.5 -501 Q 212 -515 235 -521.5 Q 258 -528 281 -528 Q 306 -528 329.5 -521 Q 353 -514 372 -498 Q 391 -482 403.5 -461 Q 416 -440 423.5 -416.5 Q 431 -393 433.5 -368.5 Q 436 -344 436 -320 L 436 -70 L 482 -70 L 482 50 Q 482 73 477.5 96.5 Q 473 120 462 141 Q 451 162 433.5 178.5 Q 416 195 394.5 205 Q 373 215 349.5 219 Q 326 223 303 223 Z " id="path26"/>
<path d="M 225 223 L 225 160 Q 246 159 265 150 Q 284 141 297 125.5 Q 310 110 315 90 Q 320 70 320 50 L 320 5 Q 311 7 302.5 7.5 Q 294 8 285 8 Q 261 8 238 1.5 Q 215 -5 196 -19 Q 177 -33 163.5 -53 Q 150 -73 142 -96 L 142 215 L 64 215 L 64 -520 L 142 -520 L 142 -424 Q 150 -447 163.5 -467 Q 177 -487 196 -501 Q 215 -515 238 -521.5 Q 261 -528 285 -528 Q 310 -528 334 -521 Q 358 -514 377.5 -498.5 Q 397 -483 410 -462 Q 423 -441 431 -417.5 Q 439 -394 441.5 -369.5 Q 444 -345 444 -320 L 444 -200 Q 444 -177 442 -154.5 Q 440 -132 433.5 -110.5 Q 427 -89 416 -68.5 Q 405 -48 390 -32 L 390 50 Q 390 72 386 94.5 Q 382 117 372 137 Q 362 157 346.5 173.5 Q 331 190 311.5 200.5 Q 292 211 270 216.5 Q 248 222 225 223 Z M 254 -62 Q 271 -62 287.5 -66 Q 304 -70 317.5 -80 Q 331 -90 341 -104 Q 351 -118 356.5 -134 Q 362 -150 364 -166.5 Q 366 -183 366 -200 L 366 -320 Q 366 -337 364 -353.5 Q 362 -370 356.5 -386 Q 351 -402 341 -416 Q 331 -430 317.5 -440 Q 304 -450 287.5 -454 Q 271 -458 254 -458 Q 237 -458 220.5 -454 Q 204 -450 190.5 -440 Q 177 -430 167 -416 Q 157 -402 151.5 -386 Q 146 -370 144 -353.5 Q 142 -337 142 -320 L 142 -200 Q 142 -183 144 -166.5 Q 146 -150 151.5 -134 Q 157 -118 167 -104 Q 177 -90 190.5 -80 Q 204 -70 220.5 -66 Q 237 -62 254 -62 Z " id="path27"/>
<path d="M 123 223 L 123 161 Q 145 161 166.5 154 Q 188 147 204 131.5 Q 220 116 226.5 94 Q 233 72 233 50 L 233 0 L 124 0 L 124 -520 L 202 -520 L 202 -408 Q 208 -430 218.5 -452 Q 229 -474 245 -491.5 Q 261 -509 283.5 -518.5 Q 306 -528 330 -528 Q 348 -528 366.5 -523.5 Q 385 -519 400 -508 Q 415 -497 425.5 -481.5 Q 436 -466 441.5 -448.5 Q 447 -431 449 -412.5 Q 451 -394 451 -375 L 373 -375 Q 373 -390 370.5 -404.5 Q 368 -419 360.5 -432 Q 353 -445 339.5 -451.5 Q 326 -458 311 -458 Q 291 -458 272.5 -449.5 Q 254 -441 241.5 -426 Q 229 -411 221 -392.5 Q 213 -374 209 -354.5 Q 205 -335 203.5 -315 Q 202 -295 202 -276 L 202 -70 L 302 -70 L 302 50 Q 302 73 297.5 96.5 Q 293 120 282 141 Q 271 162 253.5 178.5 Q 236 195 214.5 205 Q 193 215 169.5 219 Q 146 223 123 223 Z " id="path28"/>
<path d="M 210 223 L 210 161 Q 232 161 254 154 Q 276 147 291.5 131.5 Q 307 116 313.5 94 Q 320 72 320 50 L 320 0 Q 303 5 285 6.5 Q 267 8 249 8 Q 227 8 205.5 5.5 Q 184 3 163 -3.5 Q 142 -10 123.5 -21.5 Q 105 -33 91 -49.5 Q 77 -66 69.5 -87 Q 62 -108 62 -130 L 62 -135 L 140 -135 L 140 -132 Q 140 -114 151 -99 Q 162 -84 178.5 -75.5 Q 195 -67 213 -64.5 Q 231 -62 249 -62 Q 267 -62 285.5 -65 Q 304 -68 320 -76 Q 336 -84 347.5 -99.5 Q 359 -115 359 -133 Q 359 -151 349 -165.5 Q 339 -180 324.5 -189.5 Q 310 -199 294 -205 Q 278 -211 261.5 -216 Q 245 -221 228.5 -226.5 Q 212 -232 196 -238.5 Q 180 -245 165 -253 Q 150 -261 136 -271.5 Q 122 -282 110.5 -294.5 Q 99 -307 90 -321.5 Q 81 -336 76.5 -353 Q 72 -370 72 -387 Q 72 -408 78.5 -429 Q 85 -450 98 -467 Q 111 -484 129 -496 Q 147 -508 167 -515.5 Q 187 -523 208.5 -525.5 Q 230 -528 251 -528 Q 272 -528 293 -525.5 Q 314 -523 334 -516 Q 354 -509 372 -497.5 Q 390 -486 403 -469.5 Q 416 -453 423 -432.5 Q 430 -412 430 -391 L 430 -385 L 352 -385 L 352 -388 Q 352 -405 342.5 -420 Q 333 -435 318 -443.5 Q 303 -452 285.5 -455 Q 268 -458 251 -458 Q 234 -458 216.5 -455 Q 199 -452 184 -443.5 Q 169 -435 159 -419.5 Q 149 -404 149 -387 Q 149 -370 159 -355 Q 169 -340 183 -330.5 Q 197 -321 213.5 -315 Q 230 -309 246.5 -304 Q 263 -299 279 -293.5 Q 295 -288 311 -281.5 Q 327 -275 342.5 -267 Q 358 -259 371.5 -248.5 Q 385 -238 397 -225.5 Q 409 -213 418 -198.5 Q 427 -184 431.5 -167 Q 436 -150 436 -133 Q 436 -105 423.5 -78 Q 411 -51 389 -33 L 390 -33 L 390 50 Q 390 73 385.5 96.5 Q 381 120 369.5 141 Q 358 162 340.5 178.5 Q 323 195 302 205 Q 281 215 257.5 219 Q 234 223 210 223 Z " id="path29"/>
<path d="M 289 222 L 289 158 Q 307 154 322.5 144 Q 338 134 348.5 119 Q 359 104 363 86 Q 367 68 367 50 L 367 0 L 289 0 L 289 11 Q 289 38 285 64 Q 281 90 270.5 114 Q 260 138 242.5 158.5 Q 225 179 202 192 Q 179 205 153 210 Q 127 215 101 215 L 63 215 L 63 145 L 101 145 Q 117 145 133 141 Q 149 137 163 128 Q 177 119 186.5 105 Q 196 91 201.5 75.5 Q 207 60 209 44 Q 211 28 211 11 L 211 -531 Q 211 -558 215 -584 Q 219 -610 229.5 -634 Q 240 -658 257.5 -678.5 Q 275 -699 298 -712 Q 321 -725 347 -730 Q 373 -735 399 -735 L 438 -735 L 438 -665 L 399 -665 Q 383 -665 367 -661 Q 351 -657 337 -648 Q 323 -639 313.5 -625 Q 304 -611 298.5 -595.5 Q 293 -580 291 -564 Q 289 -548 289 -531 L 289 -70 L 436 -70 L 436 50 Q 436 71 432.5 91.5 Q 429 112 420.5 131.5 Q 412 151 398.5 167 Q 385 183 367.5 194.5 Q 350 206 330 213 Q 310 220 289 222 Z " id="path30"/>
<path d="M 210 223 L 210 161 Q 232 161 254 154 Q 276 147 291.5 131.5 Q 307 116 313.5 94 Q 320 72 320 50 L 320 0 L 205 0 L 44 -520 L 126 -520 L 226 -173 Q 232 -152 238 -131 Q 244 -110 250 -89 Q 256 -110 262 -131 Q 268 -152 274 -173 L 374 -520 L 456 -520 L 316 -70 L 389 -70 L 389 50 Q 389 73 385 96.5 Q 381 120 369.5 141 Q 358 162 340.5 178.5 Q 323 195 301.5 205 Q 280 215 256.5 219 Q 233 223 210 223 Z " id="path31"/>
<path d="M 303 223 L 303 161 Q 325 161 346.5 154 Q 368 147 384 131.5 Q 400 116 406.5 94 Q 413 72 413 50 L 413 0 L 356 0 L 250 -188 L 144 0 L 53 0 L 209 -260 L 53 -520 L 144 -520 L 250 -332 L 356 -520 L 447 -520 L 291 -260 L 405 -70 L 482 -70 L 482 50 Q 482 73 477.5 96.5 Q 473 120 462 141 Q 451 162 433.5 178.5 Q 416 195 394.5 205 Q 373 215 349.5 219 Q 326 223 303 223 Z " id="path32"/>
<path d="M 256 223 L 256 161 Q 279 161 300.5 154 Q 322 147 337.5 131.5 Q 353 116 360 94 Q 367 72 367 50 L 367 0 L 64 0 L 64 -70 L 351 -450 L 64 -450 L 64 -520 L 436 -520 L 436 -450 L 149 -70 L 436 -70 L 436 50 Q 436 73 431.5 96.5 Q 427 120 416 141 Q 405 162 387.5 178.5 Q 370 195 348.5 205 Q 327 215 303.5 219 Q 280 223 256 223 Z " id="path33"/>
<path d="M 593 223 Q 569 223 545.5 219 Q 522 215 500.5 205 Q 479 195 461.5 178.5 Q 444 162 433 141 Q 422 120 417.5 96.5 Q 413 73 413 50 L 413 0 L 358 0 L 358 -86 Q 350 -65 335.5 -46.5 Q 321 -28 302 -15 Q 283 -2 260 3 Q 237 8 214 8 Q 183 8 152.5 -0.5 Q 122 -9 99.5 -30 Q 77 -51 66.5 -81.5 Q 56 -112 56 -143 Q 56 -168 62.5 -193 Q 69 -218 85 -237.5 Q 101 -257 123 -270.5 Q 145 -284 169 -292 Q 193 -300 218 -303 Q 243 -306 269 -306 L 358 -306 L 358 -355 Q 358 -376 351 -397 Q 344 -418 328 -432 Q 312 -446 291 -452 Q 270 -458 249 -458 Q 230 -458 211 -454.5 Q 192 -451 175.5 -440.5 Q 159 -430 149.5 -413 Q 140 -396 140 -377 L 140 -375 L 62 -375 L 62 -378 Q 62 -401 69 -422.5 Q 76 -444 89 -462.5 Q 102 -481 120.5 -494 Q 139 -507 160.5 -514.5 Q 182 -522 204 -525 Q 226 -528 249 -528 Q 273 -528 297 -524.5 Q 321 -521 343 -511 Q 365 -501 383.5 -485 Q 402 -469 414 -448 Q 426 -427 431 -403 Q 436 -379 436 -355 L 436 -70 L 482 -70 L 482 50 Q 482 72 488.5 94 Q 495 116 511 131.5 Q 527 147 548.5 154 Q 570 161 593 161 Z M 246 -62 Q 269 -62 291.5 -69.5 Q 314 -77 329.5 -94 Q 345 -111 351.5 -134 Q 358 -157 358 -180 L 358 -236 L 269 -236 Q 254 -236 239 -234.5 Q 224 -233 209.5 -229.5 Q 195 -226 181 -220 Q 167 -214 156 -204 Q 145 -194 139.5 -179.5 Q 134 -165 134 -150 Q 134 -130 143 -111.5 Q 152 -93 168.5 -81.5 Q 185 -70 205 -66 Q 225 -62 246 -62 Z " id="path34"/>
<path d="M 593 223 Q 569 223 545.5 219 Q 522 215 500.5 205 Q 479 195 461.5 178.5 Q 444 162 433 141 Q 422 120 417.5 96.5 Q 413 73 413 50 L 413 0 L 358 0 L 358 -96 Q 350 -73 336.5 -53 Q 323 -33 304 -19 Q 285 -5 262 1.5 Q 239 8 215 8 Q 190 8 166 1 Q 142 -6 122.5 -21.5 Q 103 -37 90 -58 Q 77 -79 69 -102.5 Q 61 -126 58.5 -150.5 Q 56 -175 56 -200 L 56 -320 Q 56 -345 58.5 -369.5 Q 61 -394 69 -417.5 Q 77 -441 90 -462 Q 103 -483 122.5 -498.5 Q 142 -514 166 -521 Q 190 -528 215 -528 Q 239 -528 262 -521.5 Q 285 -515 304 -501 Q 323 -487 336.5 -467 Q 350 -447 358 -424 L 358 -485 L 436 -520 L 436 -70 L 482 -70 L 482 50 Q 482 72 488.5 94 Q 495 116 511 131.5 Q 527 147 548.5 154 Q 570 161 593 161 Z M 246 -62 Q 263 -62 279.5 -66 Q 296 -70 309.5 -80 Q 323 -90 333 -104 Q 343 -118 348.5 -134 Q 354 -150 356 -166.5 Q 358 -183 358 -200 L 358 -320 Q 358 -337 356 -353.5 Q 354 -370 348.5 -386 Q 343 -402 333 -416 Q 323 -430 309.5 -440 Q 296 -450 279.5 -454 Q 263 -458 246 -458 Q 229 -458 212.5 -454 Q 196 -450 182.5 -440 Q 169 -430 159 -416 Q 149 -402 143.5 -386 Q 138 -370 136 -353.5 Q 134 -337 134 -320 L 134 -200 Q 134 -183 136 -166.5 Q 138 -150 143.5 -134 Q 149 -118 159 -104 Q 169 -90 182.5 -80 Q 196 -70 212.5 -66 Q 229 -62 246 -62 Z " id="path35"/>
<path d="M 358 -566 Q 358 -590 362.5 -614 Q 367 -638 378.5 -659.5 Q 390 -681 408 -697.5 Q 426 -714 448 -724.5 Q 470 -735 494 -739 Q 518 -743 542 -743 L 542 -673 Q 521 -673 500 -666.5 Q 479 -660 464 -644.5 Q 449 -629 442.5 -608 Q 436 -587 436 -566 Z M 542 223 Q 518 223 494 219 Q 470 215 448 204.5 Q 426 194 408 177.5 Q 390 161 378.5 139.5 Q 367 118 362.5 94 Q 358 70 358 46 L 358 -96 Q 350 -73 336.5 -53 Q 323 -33 304 -19 Q 285 -5 262 1.5 Q 239 8 215 8 Q 190 8 166 1 Q 142 -6 122.5 -21.5 Q 103 -37 90 -58 Q 77 -79 69 -102.5 Q 61 -126 58.5 -150.5 Q 56 -175 56 -200 L 56 -320 Q 56 -345 58.5 -369.5 Q 61 -394 69 -417.5 Q 77 -441 90 -462 Q 103 -483 122.5 -498.5 Q 142 -514 166 -521 Q 190 -528 215 -528 Q 239 -528 262 -521.5 Q 285 -515 304 -501 Q 323 -487 336.5 -467 Q 350 -447 358 -424 L 358 -566 L 436 -566 L 436 46 Q 436 67 442.5 88 Q 449 109 464 124.5 Q 479 140 500 146.5 Q 521 153 542 153 Z M 246 -62 Q 263 -62 279.5 -66 Q 296 -70 309.5 -80 Q 323 -90 333 -104 Q 343 -118 348.5 -134 Q 354 -150 356 -166.5 Q 358 -183 358 -200 L 358 -320 Q 358 -337 356 -353.5 Q 354 -370 348.5 -386 Q 343 -402 333 -416 Q 323 -430 309.5 -440 Q 296 -450 279.5 -454 Q 263 -458 246 -458 Q 229 -458 212.5 -454 Q 196 -450 182.5 -440 Q 169 -430 159 -416 Q 149 -402 143.5 -386 Q 138 -370 136 -353.5 Q 134 -337 134 -320 L 134 -200 Q 134 -183 136 -166.5 Q 138 -150 143.5 -134 Q 149 -118 159 -104 Q 169 -90 182.5 -80 Q 196 -70 212.5 -66 Q 229 -62 246 -62 Z " id="path36"/>
<path d="M 552 223 Q 529 223 505.5 219 Q 482 215 460.5 205 Q 439 195 421.5 178.5 Q 404 162 393 141 Q 382 120 377.5 96.5 Q 373 73 373 50 L 373 -22 Q 346 -5 314 1.5 Q 282 8 250 8 Q 223 8 196.5 2.5 Q 170 -3 146.5 -16 Q 123 -29 104.5 -49.5 Q 86 -70 75 -94.5 Q 64 -119 60 -146 Q 56 -173 56 -200 L 56 -320 Q 56 -347 60 -374 Q 64 -401 75 -425.5 Q 86 -450 104.5 -470.5 Q 123 -491 146.5 -504 Q 170 -517 196.5 -522.5 Q 223 -528 250 -528 Q 277 -528 303.5 -522.5 Q 330 -517 353.5 -504 Q 377 -491 395.5 -470.5 Q 414 -450 425 -425.5 Q 436 -401 440 -374 Q 444 -347 444 -320 L 444 -225 L 134 -225 L 134 -200 Q 134 -183 136 -166 Q 138 -149 144 -133 Q 150 -117 160.5 -103 Q 171 -89 185 -79.5 Q 199 -70 216 -66 Q 233 -62 250 -62 Q 270 -62 289.5 -65.5 Q 309 -69 326 -79.5 Q 343 -90 353.5 -107.5 Q 364 -125 364 -145 L 442 -145 L 442 50 Q 442 72 448.5 94 Q 455 116 471 131.5 Q 487 147 508.5 154 Q 530 161 552 161 Z M 366 -295 L 366 -320 Q 366 -337 364 -354 Q 362 -371 356 -387 Q 350 -403 339.5 -417 Q 329 -431 315 -440.5 Q 301 -450 284 -454 Q 267 -458 250 -458 Q 233 -458 216 -454 Q 199 -450 185 -440.5 Q 171 -431 160.5 -417 Q 150 -403 144 -387 Q 138 -371 136 -354 Q 134 -337 134 -320 L 134 -295 Z " id="path37"/>
<path d="M 546 223 Q 523 223 499.5 219 Q 476 215 454.5 205 Q 433 195 415.5 178.5 Q 398 162 387 141 Q 376 120 371.5 96.5 Q 367 73 367 50 L 367 -52 Q 355 -35 337.5 -23 Q 320 -11 300.5 -4 Q 281 3 260.5 5.5 Q 240 8 220 8 Q 198 8 176 4.5 Q 154 1 134 -7.5 Q 114 -16 97 -30.5 Q 80 -45 69 -64 Q 58 -83 53 -104.5 Q 48 -126 48 -148 Q 48 -169 53.5 -189.5 Q 59 -210 72 -226 Q 85 -242 102.5 -253 Q 120 -264 139 -271 Q 131 -275 129 -276 Q 127 -277 123 -279.5 Q 119 -282 115.5 -284 Q 112 -286 108.5 -289 Q 105 -292 101.5 -294.5 Q 98 -297 94.5 -300.5 Q 91 -304 88.5 -307 Q 86 -310 83 -314 Q 80 -318 78 -321.5 Q 76 -325 74 -329 Q 72 -333 70.5 -337.5 Q 69 -342 68 -346 Q 67 -350 66 -354.5 Q 65 -359 64.5 -363.5 Q 64 -368 64 -372.5 Q 64 -377 64 -381 Q 64 -403 70 -425 Q 76 -447 89 -464.5 Q 102 -482 120.5 -495 Q 139 -508 160 -515.5 Q 181 -523 203 -525.5 Q 225 -528 247 -528 Q 268 -528 289.5 -525.5 Q 311 -523 331.5 -516.5 Q 352 -510 370.5 -498.5 Q 389 -487 402.5 -470 Q 416 -453 423 -432.5 Q 430 -412 430 -390 L 430 -385 L 352 -385 L 352 -388 Q 352 -405 341.5 -420.5 Q 331 -436 315.5 -444 Q 300 -452 282.5 -455 Q 265 -458 247 -458 Q 229 -458 210.5 -454.5 Q 192 -451 176 -441.5 Q 160 -432 151 -415.5 Q 142 -399 142 -380 Q 142 -368 146 -356 Q 150 -344 158.5 -335 Q 167 -326 178 -320 Q 189 -314 201 -311 Q 213 -308 225.5 -306.5 Q 238 -305 250 -305 L 306 -305 L 306 -235 L 250 -235 Q 236 -235 222 -234 Q 208 -233 194 -229 Q 180 -225 167.5 -218.5 Q 155 -212 145 -202 Q 135 -192 130.5 -178.5 Q 126 -165 126 -151 Q 126 -129 136.5 -110 Q 147 -91 165 -80.5 Q 183 -70 204 -66 Q 225 -62 246 -62 Q 259 -62 272.5 -63 Q 286 -64 298.5 -67 Q 311 -70 323.5 -75 Q 336 -80 346 -88.5 Q 356 -97 361.5 -109.5 Q 367 -122 367 -135 L 436 -135 L 436 50 Q 436 72 442.5 94 Q 449 116 465 131.5 Q 481 147 502.5 154 Q 524 161 546 161 Z " id="path38"/>
<path d="M 244 223 Q 220 223 196.5 219 Q 173 215 151.5 205 Q 130 195 112.5 178.5 Q 95 162 84 141 Q 73 120 68.5 96.5 Q 64 73 64 50 L 64 -135 L 133 -135 Q 133 -122 138.5 -109.5 Q 144 -97 154 -88.5 Q 164 -80 176.5 -75 Q 189 -70 201.5 -67 Q 214 -64 227.5 -63 Q 241 -62 254 -62 Q 275 -62 296 -66 Q 317 -70 335 -80.5 Q 353 -91 363.5 -110 Q 374 -129 374 -151 Q 374 -165 369.5 -178.5 Q 365 -192 355 -202 Q 345 -212 332.5 -218.5 Q 320 -225 306 -229 Q 292 -233 278 -234 Q 264 -235 250 -235 L 194 -235 L 194 -305 L 250 -305 Q 262 -305 274.5 -306.5 Q 287 -308 299 -311 Q 311 -314 322 -320 Q 333 -326 341.5 -335 Q 350 -344 354 -356 Q 358 -368 358 -380 Q 358 -399 349 -415.5 Q 340 -432 324 -441.5 Q 308 -451 289.5 -454.5 Q 271 -458 253 -458 Q 235 -458 217.5 -455 Q 200 -452 184.5 -444 Q 169 -436 158.5 -420.5 Q 148 -405 148 -388 L 148 -385 L 70 -385 L 70 -390 Q 70 -412 77 -432.5 Q 84 -453 97.5 -470 Q 111 -487 129.5 -498.5 Q 148 -510 168.5 -516.5 Q 189 -523 210.5 -525.5 Q 232 -528 253 -528 Q 275 -528 297 -525.5 Q 319 -523 340 -515.5 Q 361 -508 379.5 -495 Q 398 -482 411 -464.5 Q 424 -447 430 -425 Q 436 -403 436 -381 Q 436 -363 432 -345.5 Q 428 -328 417.5 -314 Q 407 -300 392 -289.5 Q 377 -279 361 -272 Q 380 -264 397.5 -253 Q 415 -242 428 -226 Q 441 -210 446.5 -189.5 Q 452 -169 452 -148 Q 452 -126 447 -104.5 Q 442 -83 431 -64 Q 420 -45 403 -30.5 Q 386 -16 366 -7.5 Q 346 1 324 4.5 Q 302 8 280 8 Q 260 8 239.5 5.5 Q 219 3 199.5 -4 Q 180 -11 162.5 -23 Q 145 -35 133 -52 L 133 50 Q 133 72 140 94 Q 147 116 162.5 131.5 Q 178 147 199.5 154 Q 221 161 244 161 Z " id="path39"/>
<path d="M 580 223 Q 556 223 533 219 Q 510 215 488.5 205 Q 467 195 450 179 Q 433 163 422 142 Q 411 121 406.5 98 Q 402 75 402 51 L 402 -225 L 369 -225 L 369 -200 Q 369 -175 366.5 -151 Q 364 -127 356.5 -103.5 Q 349 -80 336 -58.5 Q 323 -37 304 -21.5 Q 285 -6 261 1 Q 237 8 213 8 Q 188 8 164 1 Q 140 -6 121 -21.5 Q 102 -37 89 -58.5 Q 76 -80 68.5 -103.5 Q 61 -127 58.5 -151 Q 56 -175 56 -200 L 56 -295 L 291 -295 L 291 -320 Q 291 -335 290 -349.5 Q 289 -364 286 -378.5 Q 283 -393 277.5 -407 Q 272 -421 263 -432.5 Q 254 -444 240.5 -451 Q 227 -458 213 -458 Q 197 -458 181.5 -452 Q 166 -446 155.5 -434 Q 145 -422 140.5 -406.5 Q 136 -391 136 -375 L 58 -375 Q 59 -406 69 -435.5 Q 79 -465 100.5 -487 Q 122 -509 152 -518.5 Q 182 -528 213 -528 Q 237 -528 261 -521 Q 285 -514 304 -498.5 Q 323 -483 336 -461.5 Q 349 -440 356.5 -417 Q 364 -394 366.5 -369.5 Q 369 -345 369 -320 L 369 -295 L 468 -295 L 468 51 Q 468 74 474.5 96 Q 481 118 497 134 Q 513 150 535 156.5 Q 557 163 580 163 Z M 212 -62 Q 227 -62 240.5 -69 Q 254 -76 263 -87.5 Q 272 -99 277.5 -113 Q 283 -127 286 -141.5 Q 289 -156 290 -170.5 Q 291 -185 291 -200 L 291 -225 L 134 -225 L 134 -200 Q 134 -185 135 -170.5 Q 136 -156 139 -141.5 Q 142 -127 147.5 -113 Q 153 -99 162 -87.5 Q 171 -76 184.5 -69 Q 198 -62 212 -62 Z " id="path40"/>
<path d="M 570 223 Q 546 223 522.5 219 Q 499 215 477.5 205 Q 456 195 438.5 178.5 Q 421 162 410 141 Q 399 120 394.5 96.5 Q 390 73 390 50 L 390 0 L 75 0 L 75 -70 L 218 -70 L 218 -450 L 89 -450 L 89 -520 L 296 -520 L 296 -70 L 460 -70 L 460 50 Q 460 72 466.5 94 Q 473 116 488.5 131.5 Q 504 147 526 154 Q 548 161 570 161 Z M 255 -608 Q 242 -608 230 -611.5 Q 218 -615 209 -624 Q 200 -633 196.5 -645 Q 193 -657 193 -670 Q 193 -683 196.5 -695 Q 200 -707 209 -716 Q 218 -725 230 -729 Q 242 -733 255 -733 Q 268 -733 280 -729 Q 292 -725 301 -716 Q 310 -707 314 -695 Q 318 -683 318 -670 Q 318 -657 314 -645 Q 310 -633 301 -624 Q 292 -615 280 -611.5 Q 268 -608 255 -608 Z " id="path41"/>
<path d="M 244 223 Q 220 223 196.5 219 Q 173 215 151.5 205 Q 130 195 112.5 178.5 Q 95 162 84 141 Q 73 120 68.5 96.5 Q 64 73 64 50 L 64 -180 L 133 -180 Q 133 -156 140 -133 Q 147 -110 163.5 -93 Q 180 -76 203 -69 Q 226 -62 250 -62 Q 267 -62 284 -66 Q 301 -70 315 -79.5 Q 329 -89 339.5 -103 Q 350 -117 356 -133 Q 362 -149 364 -166 Q 366 -183 366 -200 L 366 -320 Q 366 -337 364 -354 Q 362 -371 356 -386.5 Q 350 -402 340.5 -416 Q 331 -430 317 -440 Q 303 -450 286.5 -454 Q 270 -458 253 -458 Q 230 -458 208 -450.5 Q 186 -443 170 -426.5 Q 154 -410 147 -388 Q 140 -366 140 -343 L 140 -340 L 62 -340 L 62 -345 Q 62 -370 67.5 -394.5 Q 73 -419 85 -441 Q 97 -463 115.5 -480.5 Q 134 -498 156 -509 Q 178 -520 203 -524 Q 228 -528 253 -528 Q 280 -528 306.5 -522.5 Q 333 -517 356 -503.5 Q 379 -490 396.5 -469.5 Q 414 -449 425 -424.5 Q 436 -400 440 -373.5 Q 444 -347 444 -320 L 444 -200 Q 444 -175 441 -149.5 Q 438 -124 429.5 -100.5 Q 421 -77 406.5 -55.5 Q 392 -34 371.5 -19.5 Q 351 -5 326.5 1.5 Q 302 8 276 8 Q 255 8 233.5 4 Q 212 -0 193 -10 Q 174 -20 159 -35.5 Q 144 -51 133 -69 L 133 50 Q 133 72 140 94 Q 147 116 162.5 131.5 Q 178 147 199.5 154 Q 221 161 244 161 Z " id="path42"/>
<path d="M 242 223 Q 218 223 194.5 219 Q 171 215 150 205 Q 129 195 111.5 178.5 Q 94 162 82.5 141 Q 71 120 67 96.5 Q 63 73 63 50 L 63 -70 L 101 -70 Q 117 -70 133 -74 Q 149 -78 163 -87 Q 177 -96 186.5 -110 Q 196 -124 201.5 -139.5 Q 207 -155 209 -171 Q 211 -187 211 -204 L 211 -531 Q 211 -558 215 -584 Q 219 -610 229.5 -634 Q 240 -658 257.5 -678.5 Q 275 -699 298 -712 Q 321 -725 347 -730 Q 373 -735 399 -735 L 438 -735 L 438 -665 L 399 -665 Q 383 -665 367 -661 Q 351 -657 337 -648 Q 323 -639 313.5 -625 Q 304 -611 298.5 -595.5 Q 293 -580 291 -564 Q 289 -548 289 -531 L 289 -204 Q 289 -180 286 -156.5 Q 283 -133 274.5 -110.5 Q 266 -88 252 -68.5 Q 238 -49 219.5 -34.5 Q 201 -20 178 -11.5 Q 155 -3 132 -1 L 132 50 Q 132 72 138.5 94 Q 145 116 160.5 131.5 Q 176 147 198 154 Q 220 161 242 161 Z " id="path43"/>
<path d="M 593 223 Q 569 223 545.5 219 Q 522 215 500.5 205 Q 479 195 461.5 178.5 Q 444 162 433 141 Q 422 120 417.5 96.5 Q 413 73 413 50 L 413 0 L 358 0 L 358 -95 Q 350 -73 337.5 -53 Q 325 -33 306.5 -19 Q 288 -5 265 1.5 Q 242 8 219 8 Q 194 8 170.5 1 Q 147 -6 128 -22 Q 109 -38 96.5 -59 Q 84 -80 76.5 -103.5 Q 69 -127 66.5 -151.5 Q 64 -176 64 -200 L 64 -520 L 142 -520 L 142 -200 Q 142 -183 144 -166.5 Q 146 -150 151 -134.5 Q 156 -119 165.5 -105 Q 175 -91 188 -81 Q 201 -71 217 -66.5 Q 233 -62 250 -62 Q 267 -62 283 -66.5 Q 299 -71 312 -81 Q 325 -91 334.5 -105 Q 344 -119 349 -134.5 Q 354 -150 356 -166.5 Q 358 -183 358 -200 L 358 -520 L 436 -520 L 436 -70 L 482 -70 L 482 50 Q 482 72 488.5 94 Q 495 116 511 131.5 Q 527 147 548.5 154 Q 570 161 593 161 Z " id="path44"/>
<path d="M 244 223 Q 220 223 196.5 219 Q 173 215 151.5 205 Q 130 195 112.5 178.5 Q 95 162 84 141 Q 73 120 68.5 96.5 Q 64 73 64 50 L 64 -180 L 133 -180 L 133 -127 Q 133 -115 139 -103.5 Q 145 -92 155 -85 Q 165 -78 176.5 -73.5 Q 188 -69 200 -66.5 Q 212 -64 224.5 -63 Q 237 -62 249 -62 Q 271 -62 292.5 -66.5 Q 314 -71 331 -84 Q 348 -97 357 -117.5 Q 366 -138 366 -159 Q 366 -173 362.5 -187 Q 359 -201 350.5 -212 Q 342 -223 330 -231 Q 318 -239 305 -243.5 Q 292 -248 278 -249.5 Q 264 -251 250 -251 L 138 -251 L 138 -321 L 302 -450 L 64 -450 L 64 -520 L 408 -520 L 408 -450 L 245 -321 L 250 -321 Q 274 -321 298 -318 Q 322 -315 344.5 -306.5 Q 367 -298 386.5 -283.5 Q 406 -269 419.5 -249.5 Q 433 -230 438.5 -206 Q 444 -182 444 -158 Q 444 -136 440 -113.5 Q 436 -91 425.5 -71.5 Q 415 -52 399 -36 Q 383 -20 363 -10 Q 343 -0 320.5 4 Q 298 8 276 8 Q 256 8 236.5 5.5 Q 217 3 198 -3.5 Q 179 -10 162 -21 Q 145 -32 133 -48 L 133 50 Q 133 72 140 94 Q 147 116 162.5 131.5 Q 178 147 199.5 154 Q 221 161 244 161 Z " id="path45"/>
<path d="M 282 -317 Q 265 -317 248 -321.5 Q 231 -326 217.5 -335.5 Q 204 -345 194 -359 Q 184 -373 178 -389 L 178 -354 L 109 -323 L 109 -687 L 178 -687 L 178 -621 Q 184 -637 194 -651 Q 204 -665 217.5 -674.5 Q 231 -684 248 -688.5 Q 265 -693 282 -693 Q 299 -693 316.5 -688 Q 334 -683 348 -672.5 Q 362 -662 371.5 -647.5 Q 381 -633 387 -616.5 Q 393 -600 395 -582.5 Q 397 -565 397 -547 L 397 -463 Q 397 -445 395 -427.5 Q 393 -410 387 -393.5 Q 381 -377 371.5 -362.5 Q 362 -348 348 -337.5 Q 334 -327 316.5 -322 Q 299 -317 282 -317 Z M 253 -380 Q 269 -380 284 -385.5 Q 299 -391 309.5 -403.5 Q 320 -416 324 -431.5 Q 328 -447 328 -463 L 328 -547 Q 328 -563 324 -578.5 Q 320 -594 309.5 -606.5 Q 299 -619 284 -624.5 Q 269 -630 253 -630 Q 237 -630 221.5 -624.5 Q 206 -619 196 -606.5 Q 186 -594 182 -578.5 Q 178 -563 178 -547 L 178 -463 Q 178 -447 182 -431.5 Q 186 -416 196 -403.5 Q 206 -391 221.5 -385.5 Q 237 -380 253 -380 Z " id="path46"/>
<path d="M 248 -317 Q 228 -317 209 -320.5 Q 190 -324 172.5 -333 Q 155 -342 141 -356 Q 127 -370 118.5 -387.5 Q 110 -405 106.5 -424.5 Q 103 -444 103 -463 L 103 -547 Q 103 -566 106.5 -585.5 Q 110 -605 118.5 -622.5 Q 127 -640 141 -654 Q 155 -668 172.5 -677 Q 190 -686 209 -689.5 Q 228 -693 248 -693 Q 275 -693 302 -686 Q 329 -679 350 -661.5 Q 371 -644 382 -618 Q 393 -592 393 -565 L 393 -561 L 324 -561 L 324 -563 Q 324 -577 318 -590.5 Q 312 -604 301 -613.5 Q 290 -623 276 -626.5 Q 262 -630 248 -630 Q 232 -630 216.5 -624.5 Q 201 -619 190.5 -607 Q 180 -595 176 -579 Q 172 -563 172 -547 L 172 -463 Q 172 -447 176 -431 Q 180 -415 190.5 -403 Q 201 -391 216.5 -385.5 Q 232 -380 248 -380 Q 262 -380 276 -383.5 Q 290 -387 301 -396.5 Q 312 -406 318 -419.5 Q 324 -433 324 -447 L 324 -449 L 393 -449 L 393 -445 Q 393 -418 382 -392 Q 371 -366 350 -348.5 Q 329 -331 302 -324 Q 275 -317 248 -317 Z " id="path47"/>
<path d="M 131 -297 L 75 -323 Q 84 -341 94.5 -358 Q 105 -375 117 -391 Q 109 -408 106 -426.5 Q 103 -445 103 -463 L 103 -547 Q 103 -566 106.5 -585.5 Q 110 -605 118.5 -622.5 Q 127 -640 141 -654 Q 155 -668 172.5 -677 Q 190 -686 209 -689.5 Q 228 -693 248 -693 Q 275 -693 302 -686 Q 329 -679 350 -661.5 Q 371 -644 382 -618 Q 393 -592 393 -565 L 393 -561 L 324 -561 L 324 -563 Q 324 -577 318.5 -591 Q 313 -605 302 -614 Q 291 -623 276.5 -627 Q 262 -631 248 -631 Q 232 -631 216.5 -625 Q 201 -619 190.5 -607 Q 180 -595 176 -579 Q 172 -563 172 -547 L 172 -449 Q 197 -469 227 -480.5 Q 257 -492 289 -492 Q 307 -492 326 -488 Q 345 -484 360 -472.5 Q 375 -461 383 -443.5 Q 391 -426 391 -407 Q 391 -391 385.5 -376 Q 380 -361 368 -350.5 Q 356 -340 341.5 -333.5 Q 327 -327 311.5 -323.5 Q 296 -320 280.5 -318.5 Q 265 -317 249 -317 Q 225 -317 200.5 -323 Q 176 -329 156 -343 Q 149 -332 143 -320 Q 137 -308 131 -297 Z M 252 -374 Q 264 -374 275.5 -375 Q 287 -376 298 -379 Q 309 -382 319 -389 Q 329 -396 329 -408 Q 329 -414 325 -420.5 Q 321 -427 315 -430 Q 309 -433 302 -434.5 Q 295 -436 289 -436 Q 263 -436 239 -424 Q 215 -412 196 -394 Q 207 -383 222 -378.5 Q 237 -374 252 -374 Z " id="path48"/>
<path d="M 250 -317 Q 229 -317 208.5 -321.5 Q 188 -326 170 -336.5 Q 152 -347 138.5 -363 Q 125 -379 117 -398 Q 109 -417 106 -438 Q 103 -459 103 -479 Q 103 -498 105 -516.5 Q 107 -535 113 -552.5 Q 119 -570 128.5 -586.5 Q 138 -603 152 -614.5 Q 166 -626 184.5 -631.5 Q 203 -637 221 -637 Q 238 -637 254 -633 Q 270 -629 283.5 -619.5 Q 297 -610 307 -596.5 Q 317 -583 324 -568 Q 319 -600 308 -630.5 Q 297 -661 279 -688 L 144 -654 L 130 -705 L 241 -732 Q 223 -748 202.5 -759.5 Q 182 -771 159 -777 L 177 -838 Q 218 -827 253.5 -805 Q 289 -783 316 -751 L 370 -765 L 384 -715 L 349 -706 Q 362 -682 372 -656.5 Q 382 -631 388 -604.5 Q 394 -578 395.5 -551 Q 397 -524 397 -497 L 397 -477 Q 397 -457 394 -436.5 Q 391 -416 382.5 -397 Q 374 -378 360.5 -362 Q 347 -346 329 -336 Q 311 -326 291 -321.5 Q 271 -317 250 -317 Z M 250 -380 Q 268 -380 284.5 -387.5 Q 301 -395 311 -409.5 Q 321 -424 324.5 -442 Q 328 -460 328 -477 Q 328 -495 324.5 -512.5 Q 321 -530 311 -544.5 Q 301 -559 284.5 -567 Q 268 -575 250 -575 Q 232 -575 215.5 -567 Q 199 -559 189 -544.5 Q 179 -530 175.5 -512.5 Q 172 -495 172 -478 Q 172 -460 175.5 -442.5 Q 179 -425 189 -410 Q 199 -395 215.5 -387.5 Q 232 -380 250 -380 Z " id="path49"/>
<path d="M 252 -317 Q 235 -317 218.5 -318.5 Q 202 -320 185.5 -324.5 Q 169 -329 154 -336.5 Q 139 -344 127 -356 Q 115 -368 108.5 -383.5 Q 102 -399 102 -416 L 102 -418 L 170 -418 Q 170 -405 180.5 -397 Q 191 -389 203 -385.5 Q 215 -382 227.5 -380.5 Q 240 -379 252 -379 Q 266 -379 279.5 -381 Q 293 -383 305 -389 Q 317 -395 325.5 -406.5 Q 334 -418 334 -431 Q 334 -445 325 -456 Q 316 -467 303.5 -472.5 Q 291 -478 277.5 -479.5 Q 264 -481 250 -481 L 208 -481 L 208 -543 L 250 -543 Q 262 -543 273.5 -544.5 Q 285 -546 296 -550.5 Q 307 -555 315 -564.5 Q 323 -574 323 -586 Q 323 -598 315.5 -607.5 Q 308 -617 297.5 -622 Q 287 -627 275.5 -629 Q 264 -631 252 -631 Q 241 -631 230 -629.5 Q 219 -628 208.5 -624.5 Q 198 -621 189.5 -612.5 Q 181 -604 181 -593 L 113 -593 L 113 -596 Q 113 -611 119 -626.5 Q 125 -642 135.5 -653.5 Q 146 -665 160 -672.5 Q 174 -680 189.5 -684.5 Q 205 -689 220.5 -691 Q 236 -693 252 -693 Q 277 -693 301.5 -688 Q 326 -683 346.5 -670 Q 367 -657 379 -634.5 Q 391 -612 391 -587 Q 391 -575 388.5 -563.5 Q 386 -552 379 -542 Q 372 -532 362.5 -525 Q 353 -518 342 -513 Q 355 -508 366.5 -500.5 Q 378 -493 386.5 -482 Q 395 -471 399 -457.5 Q 403 -444 403 -430 Q 403 -404 389.5 -379.5 Q 376 -355 353.5 -341 Q 331 -327 304.5 -322 Q 278 -317 252 -317 Z " id="path50"/>
<path d="M 190 -323 L 190 -595 L 109 -595 L 109 -657 L 190 -657 L 190 -728 Q 190 -751 196 -773 Q 202 -795 216.5 -811.5 Q 231 -828 253 -835.5 Q 275 -843 297 -843 Q 317 -843 337.5 -837.5 Q 358 -832 373 -818.5 Q 388 -805 395.5 -785 Q 403 -765 403 -745 L 403 -743 L 334 -743 L 334 -744 Q 334 -751 331.5 -758 Q 329 -765 324 -770.5 Q 319 -776 311.5 -778.5 Q 304 -781 297 -781 Q 288 -781 280 -776 Q 272 -771 267.5 -763.5 Q 263 -756 261.5 -746.5 Q 260 -737 260 -728 L 260 -657 L 377 -657 L 377 -595 L 260 -595 L 260 -323 Z " id="path51"/>
<path d="M 205 -167 Q 181 -167 158 -173 Q 135 -179 117.5 -194.5 Q 100 -210 91 -232 Q 82 -254 82 -277 L 151 -277 Q 151 -267 155 -257.5 Q 159 -248 166.5 -241.5 Q 174 -235 184.5 -232 Q 195 -229 205 -229 Q 218 -229 230 -236.5 Q 242 -244 248.5 -256 Q 255 -268 257 -281.5 Q 259 -295 259 -309 L 259 -479 L 197 -479 L 197 -531 L 259 -531 L 259 -625 L 172 -625 L 172 -687 L 329 -687 L 329 -531 L 381 -531 L 381 -479 L 329 -479 L 329 -309 Q 329 -291 326.5 -273.5 Q 324 -256 317 -239 Q 310 -222 299 -208 Q 288 -194 273 -184.5 Q 258 -175 240.5 -171 Q 223 -167 205 -167 Z " id="path52"/>
<path d="M 248 -167 Q 224 -167 200 -171.5 Q 176 -176 155.5 -188 Q 135 -200 121.5 -221.5 Q 108 -243 107 -267 L 176 -267 Q 177 -256 185.5 -248 Q 194 -240 204.5 -236 Q 215 -232 226 -230.5 Q 237 -229 248 -229 Q 264 -229 279 -235 Q 294 -241 304 -253 Q 314 -265 318 -281 Q 322 -297 322 -312 L 322 -389 Q 316 -373 306 -359 Q 296 -345 282.5 -335.5 Q 269 -326 252 -321.5 Q 235 -317 218 -317 Q 201 -317 183.5 -322 Q 166 -327 152 -337.5 Q 138 -348 128.5 -362.5 Q 119 -377 113 -393.5 Q 107 -410 105 -427.5 Q 103 -445 103 -463 L 103 -547 Q 103 -565 105 -582.5 Q 107 -600 113 -616.5 Q 119 -633 128.5 -647.5 Q 138 -662 152 -672.5 Q 166 -683 183.5 -688 Q 201 -693 218 -693 Q 235 -693 252 -688.5 Q 269 -684 282.5 -674.5 Q 296 -665 306 -651 Q 316 -637 322 -621 L 322 -656 L 391 -687 L 391 -313 Q 391 -293 388 -274 Q 385 -255 376.5 -237.5 Q 368 -220 354.5 -206 Q 341 -192 323.5 -183 Q 306 -174 287 -170.5 Q 268 -167 248 -167 Z M 247 -380 Q 263 -380 278.5 -385.5 Q 294 -391 304 -403.5 Q 314 -416 318 -431.5 Q 322 -447 322 -463 L 322 -547 Q 322 -563 318 -578.5 Q 314 -594 304 -606.5 Q 294 -619 278.5 -624.5 Q 263 -630 247 -630 Q 231 -630 216 -624.5 Q 201 -619 190.5 -606.5 Q 180 -594 176 -578.5 Q 172 -563 172 -547 L 172 -463 Q 172 -447 176 -431.5 Q 180 -416 190.5 -403.5 Q 201 -391 216 -385.5 Q 231 -380 247 -380 Z " id="path53"/>
<path d="M 391 -172 L 322 -172 L 322 -388 Q 316 -372 306.5 -358.5 Q 297 -345 283.5 -335.5 Q 270 -326 254 -321.5 Q 238 -317 221 -317 Q 204 -317 187 -322 Q 170 -327 156 -337.5 Q 142 -348 133 -363 Q 124 -378 118.5 -394.5 Q 113 -411 111 -428.5 Q 109 -446 109 -463 L 109 -687 L 178 -687 L 178 -463 Q 178 -447 181.5 -431.5 Q 185 -416 195 -404 Q 205 -392 219.5 -386 Q 234 -380 250 -380 Q 266 -380 280.5 -386 Q 295 -392 305 -404 Q 315 -416 318.5 -431.5 Q 322 -447 322 -463 L 322 -687 L 391 -687 Z " id="path54"/>
<path d="M 254 -736 Q 242 -736 231.5 -739.5 Q 221 -743 213 -751 Q 205 -759 201.5 -770 Q 198 -781 198 -792 Q 198 -803 201.5 -814 Q 205 -825 213 -833 Q 221 -841 231.5 -844.5 Q 242 -848 254 -848 Q 265 -848 276 -844.5 Q 287 -841 295 -833 Q 303 -825 306 -814 Q 309 -803 309 -792 Q 309 -781 306 -770 Q 303 -759 295 -751 Q 287 -743 276 -739.5 Q 265 -736 254 -736 Z M 373 -323 L 128 -323 L 128 -385 L 220 -385 L 220 -486 L 163 -486 L 163 -538 L 220 -538 L 220 -625 L 137 -625 L 137 -687 L 290 -687 L 290 -538 L 347 -538 L 347 -486 L 290 -486 L 290 -385 L 373 -385 Z " id="path55"/>
<path d="M 353 -317 Q 326 -317 299.5 -324.5 Q 273 -332 253 -350.5 Q 233 -369 224 -395.5 Q 215 -422 215 -449 L 215 -625 L 128 -625 L 128 -687 L 285 -687 L 285 -449 Q 285 -435 289 -421.5 Q 293 -408 302.5 -398 Q 312 -388 325.5 -384 Q 339 -380 353 -380 Q 364 -380 375 -383 Q 386 -386 396 -391 L 396 -329 Q 386 -323 375 -320 Q 364 -317 353 -317 Z " id="path56"/>
<path d="M 163 -323 L 163 -385 L 215 -385 L 215 -625 L 163 -625 L 163 -687 L 337 -687 L 337 -625 L 285 -625 L 285 -385 L 337 -385 L 337 -323 Z " id="path57"/>
<path d="M 163 -323 L 163 -385 L 215 -385 L 215 -486 L 158 -486 L 158 -538 L 215 -538 L 215 -625 L 163 -625 L 163 -687 L 337 -687 L 337 -625 L 285 -625 L 285 -538 L 342 -538 L 342 -486 L 285 -486 L 285 -385 L 337 -385 L 337 -323 Z " id="path58"/>
<path d="M 294 -736 Q 283 -736 272 -739.5 Q 261 -743 253 -751 Q 245 -759 241.5 -770 Q 238 -781 238 -792 Q 238 -803 241.5 -814 Q 245 -825 253 -833 Q 261 -841 272 -844.5 Q 283 -848 294 -848 Q 305 -848 316 -844.5 Q 327 -841 335 -833 Q 343 -825 346.5 -814 Q 350 -803 350 -792 Q 350 -781 346.5 -770 Q 343 -759 335 -751 Q 327 -743 316 -739.5 Q 305 -736 294 -736 Z M 232 -167 Q 213 -167 194 -172.5 Q 175 -178 161.5 -192 Q 148 -206 142.5 -224.5 Q 137 -243 137 -263 Q 137 -282 142.5 -300.5 Q 148 -319 160.5 -332.5 Q 173 -346 191.5 -352 Q 210 -358 229 -358 Q 236 -358 244 -357 Q 252 -356 259 -354 L 259 -625 L 172 -625 L 172 -687 L 329 -687 L 329 -319 Q 343 -307 355 -293.5 Q 367 -280 378 -265 Q 389 -250 399 -234.5 Q 409 -219 418 -204 L 421 -201 Q 421 -200 421 -199 L 371 -171 Q 359 -190 348 -209.5 Q 337 -229 324 -247 Q 320 -231 312.5 -215.5 Q 305 -200 293 -189 Q 281 -178 265 -172.5 Q 249 -167 232 -167 Z M 227 -220 Q 238 -220 245 -230 Q 252 -240 255 -251 Q 258 -262 258.5 -273 Q 259 -284 259 -295 L 259 -299 Q 252 -302 244.5 -303.5 Q 237 -305 229 -305 Q 221 -305 214 -301.5 Q 207 -298 203 -291.5 Q 199 -285 197.5 -277.5 Q 196 -270 196 -262 Q 196 -255 197.5 -247.5 Q 199 -240 203 -234 Q 207 -228 213.5 -224 Q 220 -220 227 -220 Z " id="path59"/>
<path d="M 351 -167 Q 333 -167 315.5 -170 Q 298 -173 281.5 -180.5 Q 265 -188 252 -200.5 Q 239 -213 230.5 -228.5 Q 222 -244 218.5 -262 Q 215 -280 215 -298 L 215 -775 L 128 -775 L 128 -838 L 285 -838 L 285 -298 Q 285 -284 288.5 -270.5 Q 292 -257 301.5 -247.5 Q 311 -238 324 -233.5 Q 337 -229 351 -229 L 352 -229 L 352 -167 Z " id="path60"/>
<path d="M 270 -167 L 270 -222 Q 285 -222 299 -226 Q 313 -230 323 -240.5 Q 333 -251 337.5 -265 Q 342 -279 342 -294 L 342 -323 L 128 -323 L 128 -385 L 220 -385 L 220 -775 L 137 -775 L 137 -838 L 290 -838 L 290 -385 L 402 -385 L 402 -294 Q 402 -276 399 -259 Q 396 -242 387.5 -226.5 Q 379 -211 366.5 -199 Q 354 -187 338 -180 Q 322 -173 305 -170 Q 288 -167 270 -167 Z " id="path61"/>
<path d="M 125 -323 L 125 -687 L 195 -687 L 195 -385 L 396 -385 L 396 -323 Z " id="path62"/>
<path d="M 245 -172 L 245 -229 L 261 -229 Q 276 -229 290.5 -234 Q 305 -239 314.5 -250 Q 324 -261 328 -275.5 Q 332 -290 332 -305 L 332 -594 Q 332 -601 331 -607.5 Q 330 -614 327.5 -620.5 Q 325 -627 319.5 -631.5 Q 314 -636 307 -636 Q 300 -636 294.5 -631.5 Q 289 -627 286 -620.5 Q 283 -614 282 -607.5 Q 281 -601 281 -594 L 281 -323 L 219 -323 L 219 -594 Q 219 -601 218 -607.5 Q 217 -614 214 -620.5 Q 211 -627 205.5 -631.5 Q 200 -636 193 -636 Q 186 -636 180.5 -631.5 Q 175 -627 172.5 -620.5 Q 170 -614 169 -607.5 Q 168 -601 168 -594 L 168 -323 L 105 -323 L 105 -687 L 168 -687 L 168 -654 Q 171 -662 176 -669 Q 181 -676 187.5 -681.5 Q 194 -687 202.5 -690 Q 211 -693 219 -693 Q 230 -693 240 -688.5 Q 250 -684 257.5 -676.5 Q 265 -669 269.5 -659 Q 274 -649 277 -639 Q 279 -649 283.5 -659 Q 288 -669 295 -676.5 Q 302 -684 312 -688.5 Q 322 -693 333 -693 Q 349 -693 363 -682.5 Q 377 -672 383.5 -657.5 Q 390 -643 392.5 -626.5 Q 395 -610 395 -594 L 395 -305 Q 395 -287 392 -269.5 Q 389 -252 380.5 -236 Q 372 -220 359 -207 Q 346 -194 330 -186.5 Q 314 -179 296.5 -175.5 Q 279 -172 261 -172 Z " id="path63"/>
<path d="M 395 -172 L 332 -172 L 332 -356 Q 329 -348 324 -341 Q 319 -334 312.5 -328.5 Q 306 -323 297.5 -320 Q 289 -317 281 -317 Q 270 -317 260 -321.5 Q 250 -326 242.5 -333.5 Q 235 -341 230.5 -351 Q 226 -361 223 -371 Q 221 -361 216.5 -351 Q 212 -341 205 -333.5 Q 198 -326 188 -321.5 Q 178 -317 167 -317 Q 151 -317 137 -327.5 Q 123 -338 116.5 -352.5 Q 110 -367 107.5 -383.5 Q 105 -400 105 -416 L 105 -687 L 168 -687 L 168 -416 Q 168 -409 169 -402.5 Q 170 -396 172.5 -389.5 Q 175 -383 180.5 -378.5 Q 186 -374 193 -374 Q 200 -374 205.5 -378.5 Q 211 -383 214 -389.5 Q 217 -396 218 -402.5 Q 219 -409 219 -416 L 219 -687 L 281 -687 L 281 -416 Q 281 -409 282 -402.5 Q 283 -396 286 -389.5 Q 289 -383 294.5 -378.5 Q 300 -374 307 -374 Q 314 -374 319.5 -378.5 Q 325 -383 327.5 -389.5 Q 330 -396 331 -402.5 Q 332 -409 332 -416 L 332 -687 L 395 -687 Z " id="path64"/>
<path d="M 42 -167 L 42 -229 Q 56 -229 69 -233.5 Q 82 -238 91.5 -247.5 Q 101 -257 105 -270.5 Q 109 -284 109 -298 L 109 -687 L 178 -687 L 178 -622 Q 184 -638 193.5 -651.5 Q 203 -665 216.5 -674.5 Q 230 -684 246 -688.5 Q 262 -693 279 -693 Q 296 -693 313 -688 Q 330 -683 344 -672.5 Q 358 -662 367 -647 Q 376 -632 381.5 -615.5 Q 387 -599 389 -581.5 Q 391 -564 391 -547 L 391 -323 L 322 -323 L 322 -547 Q 322 -563 318.5 -578.5 Q 315 -594 305 -606 Q 295 -618 280.5 -624 Q 266 -630 250 -630 Q 234 -630 219.5 -624 Q 205 -618 195 -606 Q 185 -594 181.5 -578.5 Q 178 -563 178 -547 L 178 -298 Q 178 -280 174.5 -262 Q 171 -244 163 -228.5 Q 155 -213 141.5 -200.5 Q 128 -188 112 -180.5 Q 96 -173 78 -170 Q 60 -167 42 -167 Z " id="path65"/>
<path d="M 458 -167 Q 440 -167 422 -170 Q 404 -173 388 -180.5 Q 372 -188 358.5 -200.5 Q 345 -213 337 -228.5 Q 329 -244 325.5 -262 Q 322 -280 322 -298 L 322 -547 Q 322 -563 318.5 -578.5 Q 315 -594 305 -606 Q 295 -618 280.5 -624 Q 266 -630 250 -630 Q 234 -630 219.5 -624 Q 205 -618 195 -606 Q 185 -594 181.5 -578.5 Q 178 -563 178 -547 L 178 -323 L 109 -323 L 109 -687 L 178 -687 L 178 -622 Q 184 -638 193.5 -651.5 Q 203 -665 216.5 -674.5 Q 230 -684 246 -688.5 Q 262 -693 279 -693 Q 296 -693 313 -688 Q 330 -683 344 -672.5 Q 358 -662 367 -647 Q 376 -632 381.5 -615.5 Q 387 -599 389 -581.5 Q 391 -564 391 -547 L 391 -298 Q 391 -284 395 -270.5 Q 399 -257 408.5 -247.5 Q 418 -238 431 -233.5 Q 444 -229 458 -229 Z " id="path66"/>
<path d="M 109 -323 L 109 -687 L 190 -687 L 332 -402 Q 329 -437 325.5 -471.5 Q 322 -506 322 -541 L 322 -687 L 391 -687 L 391 -323 L 310 -323 L 168 -608 Q 171 -573 174.5 -538.5 Q 178 -504 178 -469 L 178 -323 Z " id="path67"/>
<path d="M 250 -317 Q 230 -317 210.5 -320.5 Q 191 -324 173.5 -333 Q 156 -342 142 -355.5 Q 128 -369 119 -386.5 Q 110 -404 106.5 -423.5 Q 103 -443 103 -463 L 103 -547 Q 103 -567 106.5 -586.5 Q 110 -606 119 -623.5 Q 128 -641 142 -654.5 Q 156 -668 173.5 -677 Q 191 -686 210.5 -689.5 Q 230 -693 250 -693 Q 270 -693 289.5 -689.5 Q 309 -686 326.5 -677 Q 344 -668 358 -654.5 Q 372 -641 381 -623.5 Q 390 -606 393.5 -586.5 Q 397 -567 397 -547 L 397 -463 Q 397 -443 393.5 -423.5 Q 390 -404 381 -386.5 Q 372 -369 358 -355.5 Q 344 -342 326.5 -333 Q 309 -324 289.5 -320.5 Q 270 -317 250 -317 Z M 172 -531 L 328 -531 L 328 -547 Q 328 -563 323.5 -579 Q 319 -595 308.5 -607 Q 298 -619 282 -624.5 Q 266 -630 250 -630 Q 234 -630 218 -624.5 Q 202 -619 191.5 -607 Q 181 -595 176.5 -579 Q 172 -563 172 -547 Z M 250 -380 Q 266 -380 282 -385.5 Q 298 -391 308.5 -403 Q 319 -415 323.5 -431 Q 328 -447 328 -463 L 328 -479 L 172 -479 L 172 -463 Q 172 -447 176.5 -431 Q 181 -415 191.5 -403 Q 202 -391 218 -385.5 Q 234 -380 250 -380 Z " id="path68"/>
<path d="M 285 -172 L 215 -172 L 215 -320 Q 191 -323 168 -334.5 Q 145 -346 129 -365.5 Q 113 -385 106 -409.5 Q 99 -434 99 -460 L 99 -551 Q 99 -576 106 -600.5 Q 113 -625 129 -644.5 Q 145 -664 168 -675.5 Q 191 -687 215 -690 L 215 -838 L 285 -838 L 285 -690 Q 309 -687 332 -675.5 Q 355 -664 371 -644.5 Q 387 -625 394 -600.5 Q 401 -576 401 -551 L 401 -460 Q 401 -434 394 -409.5 Q 387 -385 371 -365.5 Q 355 -346 332 -334.5 Q 309 -323 285 -320 Z M 219 -378 L 219 -632 Q 206 -629 194.5 -621 Q 183 -613 175.5 -602 Q 168 -591 165 -577.5 Q 162 -564 162 -551 L 162 -460 Q 162 -446 165 -432.5 Q 168 -419 175.5 -408 Q 183 -397 194.5 -389 Q 206 -381 219 -378 Z M 281 -378 Q 294 -381 305.5 -389 Q 317 -397 324.5 -408 Q 332 -419 335 -432.5 Q 338 -446 338 -460 L 338 -551 Q 338 -564 335 -577.5 Q 332 -591 324.5 -602 Q 317 -613 305.5 -621 Q 294 -629 281 -632 Z " id="path69"/>
<path d="M 240 -167 Q 223 -167 205.5 -170 Q 188 -173 172.5 -180 Q 157 -187 144 -199 Q 131 -211 123 -226.5 Q 115 -242 112 -259 Q 109 -276 109 -293 L 109 -449 L 169 -449 L 169 -417 Q 169 -406 178.5 -397.5 Q 188 -389 199 -385.5 Q 210 -382 222 -380.5 Q 234 -379 246 -379 Q 258 -379 270 -380.5 Q 282 -382 293 -386 Q 304 -390 313.5 -399 Q 323 -408 323 -420 Q 323 -432 314.5 -441.5 Q 306 -451 294.5 -456 Q 283 -461 271.5 -464 Q 260 -467 248 -470 Q 236 -473 224.5 -477 Q 213 -481 202 -485.5 Q 191 -490 180 -496 Q 169 -502 159.5 -509 Q 150 -516 141.5 -525 Q 133 -534 127 -544.5 Q 121 -555 117.5 -567 Q 114 -579 114 -591 Q 114 -615 126.5 -636.5 Q 139 -658 159 -671 Q 179 -684 203 -688.5 Q 227 -693 251 -693 Q 274 -693 297.5 -688.5 Q 321 -684 341.5 -672.5 Q 362 -661 374.5 -640 Q 387 -619 387 -596 L 387 -593 L 319 -593 Q 319 -604 311 -612 Q 303 -620 293 -624 Q 283 -628 272 -629.5 Q 261 -631 251 -631 Q 240 -631 229 -629.5 Q 218 -628 208 -623.5 Q 198 -619 190.5 -610.5 Q 183 -602 183 -591 Q 183 -579 191.5 -569 Q 200 -559 211 -554 Q 222 -549 234 -546 Q 246 -543 257.5 -540 Q 269 -537 281 -533 Q 293 -529 304 -524.5 Q 315 -520 326 -514 Q 337 -508 346.5 -500.5 Q 356 -493 364.5 -484 Q 373 -475 379 -464.5 Q 385 -454 388.5 -442 Q 392 -430 392 -418 Q 392 -396 382 -375 Q 372 -354 354 -341 Q 336 -328 314 -322.5 Q 292 -317 270 -317 Q 256 -317 242 -319 Q 228 -321 215 -325 Q 202 -329 190 -337 Q 178 -345 169 -355 L 169 -293 Q 169 -279 173 -265 Q 177 -251 187 -240.5 Q 197 -230 211.5 -225.5 Q 226 -221 240 -221 Z " id="path70"/>
<path d="M 149 -172 L 115 -172 L 115 -235 L 149 -235 Q 165 -235 179 -242 Q 193 -249 201.5 -262 Q 210 -275 212.5 -290.5 Q 215 -306 215 -322 L 215 -688 Q 215 -707 218 -726 Q 221 -745 228.5 -763 Q 236 -781 248.5 -796 Q 261 -811 277.5 -820.5 Q 294 -830 313 -834 Q 332 -838 351 -838 L 385 -838 L 385 -775 L 351 -775 Q 335 -775 321 -768 Q 307 -761 298.5 -748 Q 290 -735 287.5 -719.5 Q 285 -704 285 -688 L 285 -322 Q 285 -303 282 -284 Q 279 -265 271.5 -247 Q 264 -229 251.5 -214 Q 239 -199 222.5 -189.5 Q 206 -180 187 -176 Q 168 -172 149 -172 Z " id="path71"/>
<path d="M 283 -167 L 283 -222 Q 297 -222 311 -226 Q 325 -230 335.5 -240.5 Q 346 -251 350 -265 Q 354 -279 354 -294 L 354 -329 Q 341 -323 327 -320 Q 313 -317 299 -317 Q 282 -317 265 -321.5 Q 248 -326 234 -336 Q 220 -346 210 -360.5 Q 200 -375 194 -391.5 Q 188 -408 186 -425 Q 184 -442 184 -460 L 184 -625 L 124 -625 L 124 -687 L 184 -687 L 184 -838 L 253 -838 L 253 -687 L 369 -687 L 369 -625 L 253 -625 L 253 -460 Q 253 -447 254.5 -434 Q 256 -421 261 -409 Q 266 -397 276 -388.5 Q 286 -380 299 -380 Q 311 -380 320.5 -386.5 Q 330 -393 335.5 -403 Q 341 -413 343 -424 Q 345 -435 345 -447 L 345 -449 L 415 -449 L 415 -294 Q 415 -276 411.5 -259 Q 408 -242 400 -226.5 Q 392 -211 379 -199 Q 366 -187 350.5 -180 Q 335 -173 317.5 -170 Q 300 -167 283 -167 Z " id="path72"/>
<path d="M 221 -317 Q 204 -317 187 -322 Q 170 -327 156 -337.5 Q 142 -348 133 -363 Q 124 -378 118.5 -394.5 Q 113 -411 111 -428.5 Q 109 -446 109 -463 L 109 -479 L 92 -479 L 92 -531 L 109 -531 L 109 -687 L 178 -687 L 178 -531 L 322 -531 L 322 -687 L 391 -687 L 391 -531 L 408 -531 L 408 -479 L 391 -479 L 391 -323 L 322 -323 L 322 -388 Q 316 -372 306.5 -358.5 Q 297 -345 283.5 -335.5 Q 270 -326 254 -321.5 Q 238 -317 221 -317 Z M 250 -380 Q 266 -380 280.5 -386 Q 295 -392 305 -404 Q 315 -416 318.5 -431.5 Q 322 -447 322 -463 L 322 -479 L 178 -479 L 178 -463 Q 178 -447 181.5 -431.5 Q 185 -416 195 -404 Q 205 -392 219.5 -386 Q 234 -380 250 -380 Z " id="path73"/>
<path d="M 250 -317 Q 231 -317 211.5 -320.5 Q 192 -324 175 -333 Q 158 -342 145 -356.5 Q 132 -371 123.5 -388.5 Q 115 -406 112 -425 Q 109 -444 109 -463 L 109 -518 Q 109 -533 111 -548 Q 113 -563 118.5 -577.5 Q 124 -592 133.5 -604 Q 143 -616 156 -625 L 109 -625 L 109 -687 L 222 -687 L 222 -595 L 219 -595 Q 207 -595 198 -586 Q 189 -577 185 -565.5 Q 181 -554 179.5 -542 Q 178 -530 178 -518 L 178 -463 Q 178 -447 181.5 -431.5 Q 185 -416 195 -404 Q 205 -392 219.5 -386 Q 234 -380 250 -380 Q 266 -380 280.5 -386 Q 295 -392 305 -404 Q 315 -416 318.5 -431.5 Q 322 -447 322 -463 L 322 -518 Q 322 -530 320.5 -542 Q 319 -554 315 -565.5 Q 311 -577 302 -586 Q 293 -595 281 -595 L 278 -595 L 278 -687 L 391 -687 L 391 -625 L 344 -625 Q 357 -616 366.5 -604 Q 376 -592 381.5 -577.5 Q 387 -563 389 -548 Q 391 -533 391 -518 L 391 -463 Q 391 -444 388 -425 Q 385 -406 376.5 -388.5 Q 368 -371 355 -356.5 Q 342 -342 325 -333 Q 308 -324 288.5 -320.5 Q 269 -317 250 -317 Z " id="path74"/>
<path d="M 250 -317 Q 231 -317 212 -320.5 Q 193 -324 176 -332.5 Q 159 -341 145.5 -355 Q 132 -369 123.5 -386 Q 115 -403 112 -421.5 Q 109 -440 109 -460 L 109 -687 L 178 -687 L 178 -460 Q 178 -444 182 -429 Q 186 -414 195.5 -402.5 Q 205 -391 220 -385.5 Q 235 -380 250 -380 Q 265 -380 280 -385.5 Q 295 -391 304.5 -402.5 Q 314 -414 318 -429 Q 322 -444 322 -460 L 322 -687 L 391 -687 L 391 -460 Q 391 -440 388 -421.5 Q 385 -403 376.5 -386 Q 368 -369 354.5 -355 Q 341 -341 324 -332.5 Q 307 -324 288 -320.5 Q 269 -317 250 -317 Z " id="path75"/>
<path d="M 250 -317 Q 231 -317 211.5 -320.5 Q 192 -324 175 -333 Q 158 -342 145 -356.5 Q 132 -371 123.5 -388.5 Q 115 -406 112 -425 Q 109 -444 109 -463 L 109 -687 L 178 -687 L 178 -463 Q 178 -447 181.5 -431.5 Q 185 -416 195 -404 Q 205 -392 219.5 -386 Q 234 -380 250 -380 Q 266 -380 280.5 -386 Q 295 -392 305 -404 Q 315 -416 318.5 -431.5 Q 322 -447 322 -463 L 322 -553 Q 322 -567 318.5 -580.5 Q 315 -594 306 -604.5 Q 297 -615 283.5 -620 Q 270 -625 256 -625 L 250 -625 L 250 -687 L 256 -687 Q 274 -687 292 -684 Q 310 -681 326 -673 Q 342 -665 355.5 -652 Q 369 -639 377 -623 Q 385 -607 388 -589 Q 391 -571 391 -553 L 391 -463 Q 391 -444 388 -425 Q 385 -406 376.5 -388.5 Q 368 -371 355 -356.5 Q 342 -342 325 -333 Q 308 -324 288.5 -320.5 Q 269 -317 250 -317 Z " id="path76"/>
<path d="M 97 -323 L 210 -687 L 290 -687 L 403 -323 L 331 -323 L 262 -566 Q 259 -576 256 -587 Q 253 -598 250 -608 Q 247 -598 244 -587 Q 241 -576 238 -566 L 169 -323 Z " id="path77"/>
<path d="M 109 -323 L 109 -385 L 313 -625 L 109 -625 L 109 -687 L 391 -687 L 391 -625 L 187 -385 L 391 -385 L 391 -323 Z " id="path78"/>
<path d="M 463 -167 Q 445 -167 428 -170 Q 411 -173 395 -180 Q 379 -187 366.5 -199 Q 354 -211 345.5 -226.5 Q 337 -242 334 -259 Q 331 -276 331 -294 L 331 -323 L 109 -323 L 109 -385 L 313 -625 L 109 -625 L 109 -687 L 391 -687 L 391 -625 L 187 -385 L 391 -385 L 391 -294 Q 391 -279 395.5 -265 Q 400 -251 410 -240.5 Q 420 -230 434 -226 Q 448 -222 463 -222 Z " id="path79"/>
<path d="M 237 -250 L 189 -261 Q 194 -277 199 -292.5 Q 204 -308 209 -323 L 109 -323 L 109 -385 L 313 -625 L 109 -625 L 109 -687 L 391 -687 L 391 -625 L 187 -385 L 238 -385 Q 247 -401 258.5 -415 Q 270 -429 283.5 -440.5 Q 297 -452 314 -458.5 Q 331 -465 349 -465 Q 363 -465 376.5 -460.5 Q 390 -456 400 -446 Q 410 -436 414 -422.5 Q 418 -409 418 -395 Q 418 -380 413 -365.5 Q 408 -351 397 -341 Q 386 -331 371.5 -327 Q 357 -323 342 -323 L 258 -323 Q 252 -305 246.5 -287 Q 241 -269 237 -250 Z M 342 -385 Q 346 -385 351 -386 Q 356 -387 360 -389 Q 364 -391 366.5 -394.5 Q 369 -398 369 -403 Q 369 -411 363 -415.5 Q 357 -420 349 -420 Q 331 -420 316 -410 Q 301 -400 290 -385 Z " id="path80"/>
<path d="M 252 -167 Q 224 -167 197 -174.5 Q 170 -182 149 -200 Q 128 -218 117.5 -244.5 Q 107 -271 107 -298 L 176 -298 Q 176 -284 181.5 -270 Q 187 -256 198 -246.5 Q 209 -237 223 -233 Q 237 -229 252 -229 Q 269 -229 285.5 -237.5 Q 302 -246 311.5 -261 Q 321 -276 324.5 -293.5 Q 328 -311 328 -329 Q 328 -346 324.5 -363.5 Q 321 -381 310.5 -395.5 Q 300 -410 284 -417 Q 268 -424 250 -424 L 165 -424 L 165 -487 L 290 -625 L 109 -625 L 109 -687 L 370 -687 L 370 -625 L 246 -487 L 250 -487 Q 270 -487 290.5 -483 Q 311 -479 329 -469 Q 347 -459 360.5 -443 Q 374 -427 382.5 -408.5 Q 391 -390 394 -369.5 Q 397 -349 397 -328 Q 397 -308 394 -287.5 Q 391 -267 383 -248 Q 375 -229 361.5 -213 Q 348 -197 330.5 -186.5 Q 313 -176 292.5 -171.5 Q 272 -167 252 -167 Z " id="path81"/>
<path d="M 250 -317 Q 229 -317 209.5 -324.5 Q 190 -332 175 -346.5 Q 160 -361 149.5 -379.5 Q 139 -398 132 -417 Q 125 -436 120.5 -456.5 Q 116 -477 113.5 -497.5 Q 111 -518 110 -539 Q 109 -560 109 -580 Q 109 -601 110 -621.5 Q 111 -642 113.5 -662.5 Q 116 -683 120.5 -703.5 Q 125 -724 132 -743.5 Q 139 -763 149.5 -781 Q 160 -799 175 -813.5 Q 190 -828 209.5 -835.5 Q 229 -843 250 -843 Q 271 -843 290.5 -835.5 Q 310 -828 325 -813.5 Q 340 -799 350.5 -781 Q 361 -763 368 -743.5 Q 375 -724 379.5 -703.5 Q 384 -683 386.5 -662.5 Q 389 -642 390 -621.5 Q 391 -601 391 -580 Q 391 -560 390 -539 Q 389 -518 386.5 -497.5 Q 384 -477 379.5 -456.5 Q 375 -436 368 -417 Q 361 -398 350.5 -379.5 Q 340 -361 325 -346.5 Q 310 -332 290.5 -324.5 Q 271 -317 250 -317 Z M 178 -611 L 322 -611 Q 321 -624 320 -636.5 Q 319 -649 317.5 -661 Q 316 -673 314 -685.5 Q 312 -698 309 -710 Q 306 -722 301.5 -733.5 Q 297 -745 290.5 -755.5 Q 284 -766 273 -773.5 Q 262 -781 250 -781 Q 238 -781 227 -773.5 Q 216 -766 209.5 -755.5 Q 203 -745 198.5 -733.5 Q 194 -722 191 -710 Q 188 -698 186 -685.5 Q 184 -673 182.5 -661 Q 181 -649 180 -636.5 Q 179 -624 178 -611 Z M 250 -380 Q 262 -380 273 -387.5 Q 284 -395 290.5 -405.5 Q 297 -416 301.5 -427.5 Q 306 -439 309 -451 Q 312 -463 314 -475 Q 316 -487 317.5 -499.5 Q 319 -512 320 -524.5 Q 321 -537 322 -549 L 178 -549 Q 179 -537 180 -524.5 Q 181 -512 182.5 -499.5 Q 184 -487 186 -475 Q 188 -463 191 -451 Q 194 -439 198.5 -427.5 Q 203 -416 209.5 -405.5 Q 216 -395 227 -387.5 Q 238 -380 250 -380 Z " id="path82"/>
</defs>
<g>
<g data-source-text="0" fill="#20242e" transform="translate(174 41.292) rotate(0) scale(0.023999998)">
<use href="#path1" transform="translate(0 0)"/>
</g>
</g>
<g>
<g data-source-text="1" fill="#20242e" transform="translate(246 41.292) rotate(0) scale(0.023999998)">
<use href="#path2" transform="translate(0 0)"/>
</g>
</g>
<g>
<g data-source-text="2" fill="#20242e" transform="translate(318 41.292) rotate(0) scale(0.023999998)">
<use href="#path3" transform="translate(0 0)"/>
</g>
</g>
<g>
<g data-source-text="3" fill="#20242e" transform="translate(390 41.292) rotate(0) scale(0.023999998)">
<use href="#path4" transform="translate(0 0)"/>
</g>
</g>
<g>
<g data-source-text="4" fill="#20242e" transform="translate(462 41.292) rotate(0) scale(0.023999998)">
<use href="#path5" transform="translate(0 0)"/>
</g>
</g>
<g>
<g data-source-text="5" fill="#20242e" transform="translate(534 41.292) rotate(0) scale(0.023999998)">
<use href="#path6" transform="translate(0 0)"/>
</g>
</g>
<g>
<g data-source-text="6" fill="#20242e" transform="translate(606 41.292) rotate(0) scale(0.023999998)">
<use href="#path7" transform="translate(0 0)"/>
</g>
</g>
<g>
<g data-source-text="7" fill="#20242e" transform="translate(678 41.292) rotate(0) scale(0.023999998)">
<use href="#path8" transform="translate(0 0)"/>
</g>
</g>
<g>
<g data-source-text="8" fill="#20242e" transform="translate(750 41.292) rotate(0) scale(0.023999998)">
<use href="#path9" transform="translate(0 0)"/>
</g>
</g>
<g>
<g data-source-text="9" fill="#20242e" transform="translate(822 41.292) rotate(0) scale(0.023999998)">
<use href="#path10" transform="translate(0 0)"/>
</g>
</g>
<g>
<g data-source-text="A" fill="#20242e" transform="translate(894 41.292) rotate(0) scale(0.023999998)">
<use href="#path11" transform="translate(0 0)"/>
</g>
</g>
<g>
<g data-source-text="B" fill="#20242e" transform="translate(966 41.292) rotate(0) scale(0.023999998)">
<use href="#path12" transform="translate(0 0)"/>
</g>
</g>
<g>
<g data-source-text="C" fill="#20242e" transform="translate(1038 41.292) rotate(0) scale(0.023999998)">
<use href="#path13" transform="translate(0 0)"/>
</g>
</g>
<g>
<g data-source-text="D" fill="#20242e" transform="translate(1110 41.292) rotate(0) scale(0.023999998)">
<use href="#path14" transform="translate(0 0)"/>
</g>
</g>
<g>
<g data-source-text="E" fill="#20242e" transform="translate(1182 41.292) rotate(0) scale(0.023999998)">
<use href="#path15" transform="translate(0 0)"/>
</g>
</g>
<g>
<g data-source-text="F" fill="#20242e" transform="translate(1254 41.292) rotate(0) scale(0.023999998)">
<use href="#path16" transform="translate(0 0)"/>
</g>
</g>
<g>
<g data-source-text="U+1D80" fill="#20242e" transform="translate(36 113.292) rotate(0) scale(0.023999998)">
<use href="#path17" transform="translate(0 0)"/>
<use href="#path18" transform="translate(500 0)"/>
<use href="#path2" transform="translate(1000 0)"/>
<use href="#path14" transform="translate(1500 0)"/>
<use href="#path9" transform="translate(2000 0)"/>
<use href="#path1" transform="translate(2500 0)"/>
</g>
</g>
<g>
<g data-source-text="" fill="#20242e" transform="translate(168 118.584) rotate(0) scale(0.047999997)">
<use href="#path19" transform="translate(0 0)"/>
</g>
</g>
<g>
<g data-source-text="" fill="#20242e" transform="translate(240 118.584) rotate(0) scale(0.047999997)">
<use href="#path20" transform="translate(0 0)"/>
</g>
</g>
<g>
<g data-source-text="" fill="#20242e" transform="translate(312 118.584) rotate(0) scale(0.047999997)">
<use href="#path21" transform="translate(0 0)"/>
</g>
</g>
<g>
<g data-source-text="" fill="#20242e" transform="translate(384 118.584) rotate(0) scale(0.047999997)">
<use href="#path22" transform="translate(0 0)"/>
</g>
</g>
<g>
<g data-source-text="" fill="#20242e" transform="translate(456 118.584) rotate(0) scale(0.047999997)">
<use href="#path23" transform="translate(0 0)"/>
</g>
</g>
<g>
<g data-source-text="" fill="#20242e" transform="translate(528 118.584) rotate(0) scale(0.047999997)">
<use href="#path24" transform="translate(0 0)"/>
</g>
</g>
<g>
<g data-source-text="" fill="#20242e" transform="translate(600 118.584) rotate(0) scale(0.047999997)">
<use href="#path25" transform="translate(0 0)"/>
</g>
</g>
<g>
<g data-source-text="" fill="#20242e" transform="translate(672 118.584) rotate(0) scale(0.047999997)">
<use href="#path26" transform="translate(0 0)"/>
</g>
</g>
<g>
<g data-source-text="" fill="#20242e" transform="translate(744 118.584) rotate(0) scale(0.047999997)">
<use href="#path27" transform="translate(0 0)"/>
</g>
</g>
<g>
<g data-source-text="" fill="#20242e" transform="translate(816 118.584) rotate(0) scale(0.047999997)">
<use href="#path28" transform="translate(0 0)"/>
</g>
</g>
<g>
<g data-source-text="" fill="#20242e" transform="translate(888 118.584) rotate(0) scale(0.047999997)">
<use href="#path29" transform="translate(0 0)"/>
</g>
</g>
<g>
<g data-source-text="" fill="#20242e" transform="translate(960 118.584) rotate(0) scale(0.047999997)">
<use href="#path30" transform="translate(0 0)"/>
</g>
</g>
<g>
<g data-source-text="" fill="#20242e" transform="translate(1032 118.584) rotate(0) scale(0.047999997)">
<use href="#path31" transform="translate(0 0)"/>
</g>
</g>
<g>
<g data-source-text="" fill="#20242e" transform="translate(1104 118.584) rotate(0) scale(0.047999997)">
<use href="#path32" transform="translate(0 0)"/>
</g>
</g>
<g>
<g data-source-text="" fill="#20242e" transform="translate(1176 118.584) rotate(0) scale(0.047999997)">
<use href="#path33" transform="translate(0 0)"/>
</g>
</g>
<g>
<g data-source-text="" fill="#20242e" transform="translate(1248 118.584) rotate(0) scale(0.047999997)">
<use href="#path34" transform="translate(0 0)"/>
</g>
</g>
<g>
<g data-source-text="U+1D90" fill="#20242e" transform="translate(36 185.292) rotate(0) scale(0.023999998)">
<use href="#path17" transform="translate(0 0)"/>
<use href="#path18" transform="translate(500 0)"/>
<use href="#path2" transform="translate(1000 0)"/>
<use href="#path14" transform="translate(1500 0)"/>
<use href="#path10" transform="translate(2000 0)"/>
<use href="#path1" transform="translate(2500 0)"/>
</g>
</g>
<g>
<g data-source-text="" fill="#20242e" transform="translate(168 190.584) rotate(0) scale(0.047999997)">
<use href="#path35" transform="translate(0 0)"/>
</g>
</g>
<g>
<g data-source-text="" fill="#20242e" transform="translate(240 190.584) rotate(0) scale(0.047999997)">
<use href="#path36" transform="translate(0 0)"/>
</g>
</g>
<g>
<g data-source-text="" fill="#20242e" transform="translate(312 190.584) rotate(0) scale(0.047999997)">
<use href="#path37" transform="translate(0 0)"/>
</g>
</g>
<g>
<g data-source-text="" fill="#20242e" transform="translate(384 190.584) rotate(0) scale(0.047999997)">
<use href="#path38" transform="translate(0 0)"/>
</g>
</g>
<g>
<g data-source-text="" fill="#20242e" transform="translate(456 190.584) rotate(0) scale(0.047999997)">
<use href="#path39" transform="translate(0 0)"/>
</g>
</g>
<g>
<g data-source-text="" fill="#20242e" transform="translate(528 190.584) rotate(0) scale(0.047999997)">
<use href="#path40" transform="translate(0 0)"/>
</g>
</g>
<g>
<g data-source-text="" fill="#20242e" transform="translate(600 190.584) rotate(0) scale(0.047999997)">
<use href="#path41" transform="translate(0 0)"/>
</g>
</g>
<g>
<g data-source-text="" fill="#20242e" transform="translate(672 190.584) rotate(0) scale(0.047999997)">
<use href="#path42" transform="translate(0 0)"/>
</g>
</g>
<g>
<g data-source-text="" fill="#20242e" transform="translate(744 190.584) rotate(0) scale(0.047999997)">
<use href="#path43" transform="translate(0 0)"/>
</g>
</g>
<g>
<g data-source-text="" fill="#20242e" transform="translate(816 190.584) rotate(0) scale(0.047999997)">
<use href="#path44" transform="translate(0 0)"/>
</g>
</g>
<g>
<g data-source-text="" fill="#20242e" transform="translate(888 190.584) rotate(0) scale(0.047999997)">
<use href="#path45" transform="translate(0 0)"/>
</g>
</g>
<g>
<g data-source-text="" fill="#20242e" transform="translate(960 190.584) rotate(0) scale(0.047999997)">
<use href="#path46" transform="translate(0 0)"/>
</g>
</g>
<g>
<g data-source-text="" fill="#20242e" transform="translate(1032 190.584) rotate(0) scale(0.047999997)">
<use href="#path47" transform="translate(0 0)"/>
</g>
</g>
<g>
<g data-source-text="" fill="#20242e" transform="translate(1104 190.584) rotate(0) scale(0.047999997)">
<use href="#path48" transform="translate(0 0)"/>
</g>
</g>
<g>
<g data-source-text="" fill="#20242e" transform="translate(1176 190.584) rotate(0) scale(0.047999997)">
<use href="#path49" transform="translate(0 0)"/>
</g>
</g>
<g>
<g data-source-text="" fill="#20242e" transform="translate(1248 190.584) rotate(0) scale(0.047999997)">
<use href="#path50" transform="translate(0 0)"/>
</g>
</g>
<g>
<g data-source-text="U+1DA0" fill="#20242e" transform="translate(36 257.292) rotate(0) scale(0.023999998)">
<use href="#path17" transform="translate(0 0)"/>
<use href="#path18" transform="translate(500 0)"/>
<use href="#path2" transform="translate(1000 0)"/>
<use href="#path14" transform="translate(1500 0)"/>
<use href="#path11" transform="translate(2000 0)"/>
<use href="#path1" transform="translate(2500 0)"/>
</g>
</g>
<g>
<g data-source-text="" fill="#20242e" transform="translate(168 262.584) rotate(0) scale(0.047999997)">
<use href="#path51" transform="translate(0 0)"/>
</g>
</g>
<g>
<g data-source-text="" fill="#20242e" transform="translate(240 262.584) rotate(0) scale(0.047999997)">
<use href="#path52" transform="translate(0 0)"/>
</g>
</g>
<g>
<g data-source-text="" fill="#20242e" transform="translate(312 262.584) rotate(0) scale(0.047999997)">
<use href="#path53" transform="translate(0 0)"/>
</g>
</g>
<g>
<g data-source-text="" fill="#20242e" transform="translate(384 262.584) rotate(0) scale(0.047999997)">
<use href="#path54" transform="translate(0 0)"/>
</g>
</g>
<g>
<g data-source-text="" fill="#20242e" transform="translate(456 262.584) rotate(0) scale(0.047999997)">
<use href="#path55" transform="translate(0 0)"/>
</g>
</g>
<g>
<g data-source-text="" fill="#20242e" transform="translate(528 262.584) rotate(0) scale(0.047999997)">
<use href="#path56" transform="translate(0 0)"/>
</g>
</g>
<g>
<g data-source-text="" fill="#20242e" transform="translate(600 262.584) rotate(0) scale(0.047999997)">
<use href="#path57" transform="translate(0 0)"/>
</g>
</g>
<g>
<g data-source-text="" fill="#20242e" transform="translate(672 262.584) rotate(0) scale(0.047999997)">
<use href="#path58" transform="translate(0 0)"/>
</g>
</g>
<g>
<g data-source-text="" fill="#20242e" transform="translate(744 262.584) rotate(0) scale(0.047999997)">
<use href="#path59" transform="translate(0 0)"/>
</g>
</g>
<g>
<g data-source-text="" fill="#20242e" transform="translate(816 262.584) rotate(0) scale(0.047999997)">
<use href="#path60" transform="translate(0 0)"/>
</g>
</g>
<g>
<g data-source-text="" fill="#20242e" transform="translate(888 262.584) rotate(0) scale(0.047999997)">
<use href="#path61" transform="translate(0 0)"/>
</g>
</g>
<g>
<g data-source-text="" fill="#20242e" transform="translate(960 262.584) rotate(0) scale(0.047999997)">
<use href="#path62" transform="translate(0 0)"/>
</g>
</g>
<g>
<g data-source-text="" fill="#20242e" transform="translate(1032 262.584) rotate(0) scale(0.047999997)">
<use href="#path63" transform="translate(0 0)"/>
</g>
</g>
<g>
<g data-source-text="" fill="#20242e" transform="translate(1104 262.584) rotate(0) scale(0.047999997)">
<use href="#path64" transform="translate(0 0)"/>
</g>
</g>
<g>
<g data-source-text="" fill="#20242e" transform="translate(1176 262.584) rotate(0) scale(0.047999997)">
<use href="#path65" transform="translate(0 0)"/>
</g>
</g>
<g>
<g data-source-text="" fill="#20242e" transform="translate(1248 262.584) rotate(0) scale(0.047999997)">
<use href="#path66" transform="translate(0 0)"/>
</g>
</g>
<g>
<g data-source-text="U+1DB0" fill="#20242e" transform="translate(36 329.292) rotate(0) scale(0.023999998)">
<use href="#path17" transform="translate(0 0)"/>
<use href="#path18" transform="translate(500 0)"/>
<use href="#path2" transform="translate(1000 0)"/>
<use href="#path14" transform="translate(1500 0)"/>
<use href="#path12" transform="translate(2000 0)"/>
<use href="#path1" transform="translate(2500 0)"/>
</g>
</g>
<g>
<g data-source-text="" fill="#20242e" transform="translate(168 334.584) rotate(0) scale(0.047999997)">
<use href="#path67" transform="translate(0 0)"/>
</g>
</g>
<g>
<g data-source-text="" fill="#20242e" transform="translate(240 334.584) rotate(0) scale(0.047999997)">
<use href="#path68" transform="translate(0 0)"/>
</g>
</g>
<g>
<g data-source-text="" fill="#20242e" transform="translate(312 334.584) rotate(0) scale(0.047999997)">
<use href="#path69" transform="translate(0 0)"/>
</g>
</g>
<g>
<g data-source-text="" fill="#20242e" transform="translate(384 334.584) rotate(0) scale(0.047999997)">
<use href="#path70" transform="translate(0 0)"/>
</g>
</g>
<g>
<g data-source-text="" fill="#20242e" transform="translate(456 334.584) rotate(0) scale(0.047999997)">
<use href="#path71" transform="translate(0 0)"/>
</g>
</g>
<g>
<g data-source-text="" fill="#20242e" transform="translate(528 334.584) rotate(0) scale(0.047999997)">
<use href="#path72" transform="translate(0 0)"/>
</g>
</g>
<g>
<g data-source-text="" fill="#20242e" transform="translate(600 334.584) rotate(0) scale(0.047999997)">
<use href="#path73" transform="translate(0 0)"/>
</g>
</g>
<g>
<g data-source-text="" fill="#20242e" transform="translate(672 334.584) rotate(0) scale(0.047999997)">
<use href="#path74" transform="translate(0 0)"/>
</g>
</g>
<g>
<g data-source-text="" fill="#20242e" transform="translate(744 334.584) rotate(0) scale(0.047999997)">
<use href="#path75" transform="translate(0 0)"/>
</g>
</g>
<g>
<g data-source-text="" fill="#20242e" transform="translate(816 334.584) rotate(0) scale(0.047999997)">
<use href="#path76" transform="translate(0 0)"/>
</g>
</g>
<g>
<g data-source-text="" fill="#20242e" transform="translate(888 334.584) rotate(0) scale(0.047999997)">
<use href="#path77" transform="translate(0 0)"/>
</g>
</g>
<g>
<g data-source-text="" fill="#20242e" transform="translate(960 334.584) rotate(0) scale(0.047999997)">
<use href="#path78" transform="translate(0 0)"/>
</g>
</g>
<g>
<g data-source-text="" fill="#20242e" transform="translate(1032 334.584) rotate(0) scale(0.047999997)">
<use href="#path79" transform="translate(0 0)"/>
</g>
</g>
<g>
<g data-source-text="" fill="#20242e" transform="translate(1104 334.584) rotate(0) scale(0.047999997)">
<use href="#path80" transform="translate(0 0)"/>
</g>
</g>
<g>
<g data-source-text="" fill="#20242e" transform="translate(1176 334.584) rotate(0) scale(0.047999997)">
<use href="#path81" transform="translate(0 0)"/>
</g>
</g>
<g>
<g data-source-text="" fill="#20242e" transform="translate(1248 334.584) rotate(0) scale(0.047999997)">
<use href="#path82" transform="translate(0 0)"/>
</g>
</g>
</svg>