<?xml version="1.0" encoding="UTF-8" standalone="no"?>
<svg height="504" viewBox="0 0 1296 504" width="1296" xmlns="http://www.w3.org/2000/svg">
<defs>
<path d="M 250 8 Q 223 8 196 3 Q 169 -2 145 -15.5 Q 121 -29 102.5 -49 Q 84 -69 72.5 -94 Q 61 -119 56.5 -146 Q 52 -173 52 -200 L 52 -535 Q 52 -562 56.5 -589 Q 61 -616 72.5 -641 Q 84 -666 102.5 -686 Q 121 -706 145 -719.5 Q 169 -733 196 -738 Q 223 -743 250 -743 Q 277 -743 304 -738 Q 331 -733 355 -720 Q 379 -707 397.5 -686.5 Q 416 -666 427.5 -641 Q 439 -616 443.5 -589 Q 448 -562 448 -535 L 448 -200 Q 448 -173 443.5 -146 Q 439 -119 427.5 -94 Q 416 -69 397.5 -49 Q 379 -29 355 -15.5 Q 331 -2 304 3 Q 277 8 250 8 Z M 153 -337 L 347 -491 L 347 -535 Q 347 -557 342.5 -578.5 Q 338 -600 325.5 -618 Q 313 -636 292.5 -645.5 Q 272 -655 250 -655 Q 228 -655 207.5 -645.5 Q 187 -636 174.5 -618 Q 162 -600 157.5 -578.5 Q 153 -557 153 -535 Z M 250 -80 Q 272 -80 292.5 -89.5 Q 313 -99 325.5 -117 Q 338 -135 342.5 -156.5 Q 347 -178 347 -200 L 347 -398 L 153 -244 L 153 -200 Q 153 -178 157.5 -156.5 Q 162 -135 174.5 -117 Q 187 -99 207.5 -89.5 Q 228 -80 250 -80 Z " id="path1"/>
<path d="M 230 0 L 230 -637 L 107 -542 L 55 -600 L 230 -735 L 330 -735 L 330 0 Z " id="path2"/>
<path d="M 440 0 L 60 0 L 60 -1 Q 60 -27 61 -53.5 Q 62 -80 66 -106.5 Q 70 -133 77.5 -158.5 Q 85 -184 96.5 -207.5 Q 108 -231 123 -253 Q 138 -275 156 -294.5 Q 174 -314 194 -331 Q 214 -348 235.5 -364 Q 257 -380 277.5 -397 Q 298 -414 313 -435.5 Q 328 -457 335.5 -483 Q 343 -509 343 -535 Q 343 -557 339 -578 Q 335 -599 323.5 -617 Q 312 -635 292 -645 Q 272 -655 251 -655 Q 231 -655 213 -648 Q 195 -641 182.5 -626.5 Q 170 -612 164.5 -593 Q 159 -574 159 -555 L 159 -554 L 58 -554 L 58 -556 Q 58 -581 64 -606 Q 70 -631 82 -653.5 Q 94 -676 112 -693.5 Q 130 -711 152.5 -722.5 Q 175 -734 200 -738.5 Q 225 -743 251 -743 Q 278 -743 304.5 -737.5 Q 331 -732 354 -719 Q 377 -706 395 -685.5 Q 413 -665 424 -640.5 Q 435 -616 439.5 -589 Q 444 -562 444 -535 Q 444 -501 435 -468 Q 426 -435 407.5 -406 Q 389 -377 364 -353.5 Q 339 -330 312.5 -308.5 Q 286 -287 261 -264 Q 236 -241 216.5 -213 Q 197 -185 184 -153.5 Q 171 -122 166 -88 L 440 -88 Z " id="path3"/>
<path d="M 252 8 Q 226 8 200 3.5 Q 174 -1 150.5 -12 Q 127 -23 107.5 -41 Q 88 -59 75.5 -82 Q 63 -105 56.5 -130.5 Q 50 -156 50 -183 L 151 -183 Q 151 -162 157.5 -142.5 Q 164 -123 178 -108 Q 192 -93 212 -86.5 Q 232 -80 252 -80 Q 275 -80 296 -88.5 Q 317 -97 330.5 -114.5 Q 344 -132 349.5 -154 Q 355 -176 355 -198 Q 355 -217 351 -235.5 Q 347 -254 338.5 -271 Q 330 -288 316.5 -301 Q 303 -314 286 -322 Q 269 -330 250 -332 Q 231 -334 212 -334 L 212 -422 Q 229 -422 246 -424 Q 263 -426 278.5 -433 Q 294 -440 306 -452.5 Q 318 -465 325.5 -480.5 Q 333 -496 336 -513 Q 339 -530 339 -546 Q 339 -566 334.5 -585.5 Q 330 -605 319.5 -621 Q 309 -637 290.5 -646 Q 272 -655 253 -655 Q 234 -655 216.5 -647.5 Q 199 -640 188 -625.5 Q 177 -611 172 -593 Q 167 -575 167 -556 L 167 -555 L 66 -555 L 66 -558 Q 66 -582 71.5 -606.5 Q 77 -631 88.5 -653 Q 100 -675 117.5 -693 Q 135 -711 157 -722.5 Q 179 -734 203.5 -738.5 Q 228 -743 253 -743 Q 278 -743 303 -738 Q 328 -733 350.5 -721 Q 373 -709 390 -690 Q 407 -671 418 -648 Q 429 -625 434.5 -600 Q 440 -575 440 -550 Q 440 -524 434 -498.5 Q 428 -473 415.5 -450.5 Q 403 -428 384.5 -409.5 Q 366 -391 343 -379 Q 369 -368 391 -348.5 Q 413 -329 427.5 -304.5 Q 442 -280 449 -252 Q 456 -224 456 -195 Q 456 -168 450 -141.5 Q 444 -115 432 -91 Q 420 -67 400.5 -47 Q 381 -27 357 -14.5 Q 333 -2 306.5 3 Q 280 8 252 8 Z " id="path4"/>
<path d="M 282 0 L 282 -188 L 52 -188 L 52 -275 L 276 -735 L 385 -735 L 161 -275 L 282 -275 L 282 -435 L 382 -435 L 382 -275 L 440 -275 L 440 -188 L 382 -188 L 382 0 Z " id="path5"/>
<path d="M 252 8 Q 227 8 202.5 3.5 Q 178 -1 156 -13 Q 134 -25 116.5 -42.5 Q 99 -60 87 -82 Q 75 -104 68.5 -128 Q 62 -152 60 -176 L 160 -176 Q 163 -158 169 -140.5 Q 175 -123 187 -109 Q 199 -95 216 -87.5 Q 233 -80 252 -80 Q 269 -80 285 -87 Q 301 -94 312 -106.5 Q 323 -119 330 -135 Q 337 -151 340.5 -167.5 Q 344 -184 345.5 -201 Q 347 -218 347 -235 Q 347 -252 345.5 -269 Q 344 -286 340.5 -302.5 Q 337 -319 330.5 -334.5 Q 324 -350 313.5 -363 Q 303 -376 287 -383.5 Q 271 -391 254 -391 Q 237 -391 220 -384 Q 203 -377 191.5 -363 Q 180 -349 174.5 -331.5 Q 169 -314 168 -296 L 68 -296 L 68 -735 L 421 -735 L 421 -647 L 168 -647 L 168 -462 Q 188 -471 210 -474.5 Q 232 -478 254 -478 Q 284 -478 312.5 -470.5 Q 341 -463 364.5 -445.5 Q 388 -428 404.5 -403.5 Q 421 -379 430.5 -351 Q 440 -323 444 -294 Q 448 -265 448 -235 Q 448 -206 444 -176.5 Q 440 -147 430.5 -119 Q 421 -91 404 -66.5 Q 387 -42 363 -24.5 Q 339 -7 310 0.5 Q 281 8 252 8 Z " id="path6"/>
<path d="M 250 8 Q 219 8 189 -0.5 Q 159 -9 135 -28 Q 111 -47 94.5 -73.5 Q 78 -100 68.5 -129.5 Q 59 -159 55.5 -189.5 Q 52 -220 52 -250 Q 52 -291 60 -331 Q 68 -371 82 -409 Q 96 -447 114 -483.5 Q 132 -520 150 -556 L 238 -735 L 347 -735 L 240 -517 Q 232 -500 223 -483.5 Q 214 -467 205 -451 Q 217 -454 229 -455 Q 241 -456 253 -456 Q 281 -456 309.5 -449 Q 338 -442 361.5 -426 Q 385 -410 402.5 -386.5 Q 420 -363 430 -336.5 Q 440 -310 444 -281.5 Q 448 -253 448 -224 Q 448 -195 444 -166.5 Q 440 -138 429.5 -111 Q 419 -84 401.5 -60.5 Q 384 -37 360 -21 Q 336 -5 307.5 1.5 Q 279 8 250 8 Z M 250 -80 Q 266 -80 282 -85.5 Q 298 -91 309.5 -102.5 Q 321 -114 328.5 -129 Q 336 -144 340 -159.5 Q 344 -175 345.5 -191.5 Q 347 -208 347 -224 Q 347 -240 345.5 -256.5 Q 344 -273 340 -288.5 Q 336 -304 328.5 -319 Q 321 -334 309.5 -345.5 Q 298 -357 282.5 -362.5 Q 267 -368 251 -368 Q 234 -368 218.5 -362.5 Q 203 -357 191.5 -345.5 Q 180 -334 172 -319.5 Q 164 -305 160 -289 Q 156 -273 154.5 -256.5 Q 153 -240 153 -224 Q 153 -208 154.5 -191.5 Q 156 -175 160 -159.5 Q 164 -144 171.5 -129 Q 179 -114 190.5 -102.5 Q 202 -91 218 -85.5 Q 234 -80 250 -80 Z " id="path7"/>
<path d="M 242 0 L 138 0 L 336 -647 L 60 -647 L 60 -735 L 440 -735 L 440 -647 Z " id="path8"/>
<path d="M 250 8 Q 225 8 200 4 Q 175 -0 152 -10 Q 129 -20 109.5 -37 Q 90 -54 77.5 -75.5 Q 65 -97 58.5 -121.5 Q 52 -146 52 -172 Q 52 -203 62 -232.5 Q 72 -262 88.5 -288 Q 105 -314 127 -336 Q 149 -358 174 -378 Q 152 -396 132.5 -417 Q 113 -438 98.5 -462.5 Q 84 -487 76 -514.5 Q 68 -542 68 -570 Q 68 -594 73.5 -617 Q 79 -640 90.5 -661 Q 102 -682 119.5 -698.5 Q 137 -715 158 -725 Q 179 -735 202.5 -739 Q 226 -743 250 -743 Q 274 -743 297.5 -739 Q 321 -735 342 -725 Q 363 -715 380.5 -698.5 Q 398 -682 409.5 -661 Q 421 -640 426.5 -617 Q 432 -594 432 -570 Q 432 -542 424 -514.5 Q 416 -487 401.5 -462.5 Q 387 -438 367.5 -417 Q 348 -396 326 -378 Q 351 -358 373 -336 Q 395 -314 411.5 -288 Q 428 -262 438 -232.5 Q 448 -203 448 -172 Q 448 -146 441.5 -121.5 Q 435 -97 422.5 -75.5 Q 410 -54 390.5 -37 Q 371 -20 348 -10 Q 325 -0 300 4 Q 275 8 250 8 Z M 250 -435 Q 266 -447 280.5 -461.5 Q 295 -476 306.5 -493 Q 318 -510 325 -529.5 Q 332 -549 332 -569 Q 332 -586 326.5 -602.5 Q 321 -619 310 -631.5 Q 299 -644 283 -649.5 Q 267 -655 250 -655 Q 233 -655 217 -649.5 Q 201 -644 190 -631.5 Q 179 -619 173.5 -602.5 Q 168 -586 168 -569 Q 168 -549 175 -529.5 Q 182 -510 193.5 -493 Q 205 -476 219.5 -461.5 Q 234 -447 250 -435 Z M 250 -80 Q 269 -80 287.5 -85.5 Q 306 -91 320 -104 Q 334 -117 340.5 -135.5 Q 347 -154 347 -173 Q 347 -196 338.5 -217.5 Q 330 -239 316.5 -257.5 Q 303 -276 285.5 -291 Q 268 -306 250 -320 Q 232 -306 214.5 -291 Q 197 -276 183.5 -257.5 Q 170 -239 161.5 -217.5 Q 153 -196 153 -173 Q 153 -154 159.5 -135.5 Q 166 -117 180 -104 Q 194 -91 212.5 -85.5 Q 231 -80 250 -80 Z " id="path9"/>
<path d="M 262 0 L 153 0 L 260 -218 Q 268 -235 277 -251.5 Q 286 -268 295 -284 Q 283 -281 271 -280 Q 259 -279 247 -279 Q 219 -279 190.5 -286 Q 162 -293 138.5 -309 Q 115 -325 97.5 -348.5 Q 80 -372 70 -398.5 Q 60 -425 56 -453.5 Q 52 -482 52 -511 Q 52 -540 56 -568.5 Q 60 -597 70.5 -624 Q 81 -651 98.5 -674.5 Q 116 -698 140 -714 Q 164 -730 192.5 -736.5 Q 221 -743 250 -743 Q 281 -743 311 -734.5 Q 341 -726 365 -707 Q 389 -688 405.5 -661.5 Q 422 -635 431.5 -605.5 Q 441 -576 444.5 -545.5 Q 448 -515 448 -485 Q 448 -444 440 -404 Q 432 -364 418 -326 Q 404 -288 386 -251.5 Q 368 -215 350 -179 Z M 249 -367 Q 266 -367 281.5 -372.5 Q 297 -378 308.5 -389.5 Q 320 -401 328 -415.5 Q 336 -430 340 -446 Q 344 -462 345.5 -478.5 Q 347 -495 347 -511 Q 347 -527 345.5 -543.5 Q 344 -560 340 -575.5 Q 336 -591 328.5 -606 Q 321 -621 309.5 -632.5 Q 298 -644 282 -649.5 Q 266 -655 250 -655 Q 234 -655 218 -649.5 Q 202 -644 190.5 -632.5 Q 179 -621 171.5 -606 Q 164 -591 160 -575.5 Q 156 -560 154.5 -543.5 Q 153 -527 153 -511 Q 153 -495 154.5 -478.5 Q 156 -462 160 -446.5 Q 164 -431 171.5 -416 Q 179 -401 190.5 -389.5 Q 202 -378 217.5 -372.5 Q 233 -367 249 -367 Z " id="path10"/>
<path d="M 39 0 L 192 -735 L 308 -735 L 461 0 L 358 0 L 326 -172 L 174 -172 L 142 0 Z M 309 -260 L 265 -490 Q 262 -511 258 -531.5 Q 254 -552 250 -572 Q 246 -552 242 -531.5 Q 238 -511 235 -490 L 191 -260 Z " id="path11"/>
<path d="M 60 0 L 60 -735 L 234 -735 Q 261 -735 287 -730.5 Q 313 -726 336 -714 Q 359 -702 377.5 -682.5 Q 396 -663 408 -639.5 Q 420 -616 424.5 -590 Q 429 -564 429 -538 Q 429 -515 425 -492 Q 421 -469 410.5 -448.5 Q 400 -428 383.5 -411 Q 367 -394 347 -383 Q 372 -373 393.5 -355.5 Q 415 -338 429.5 -314.5 Q 444 -291 450 -264 Q 456 -237 456 -210 Q 456 -181 450 -152.5 Q 444 -124 430 -98.5 Q 416 -73 394.5 -53.5 Q 373 -34 347 -21.5 Q 321 -9 292 -4.5 Q 263 -0 234 0 Z M 161 -424 L 234 -424 Q 255 -424 274.5 -432.5 Q 294 -441 306.5 -457.5 Q 319 -474 324 -494.5 Q 329 -515 329 -536 Q 329 -557 324 -577.5 Q 319 -598 306.5 -614.5 Q 294 -631 274.5 -639 Q 255 -647 234 -647 L 161 -647 Z M 161 -88 L 234 -88 Q 251 -88 267 -91 Q 283 -94 297.5 -101.5 Q 312 -109 323.5 -121 Q 335 -133 342.5 -148 Q 350 -163 352.5 -179 Q 355 -195 355 -212 Q 355 -228 352.5 -244.5 Q 350 -261 343 -276 Q 336 -291 324.5 -303 Q 313 -315 298 -322.5 Q 283 -330 267 -333 Q 251 -336 234 -336 L 161 -336 Z " id="path12"/>
<path d="M 247 8 Q 220 8 193.5 2.5 Q 167 -3 143.5 -16 Q 120 -29 101.5 -49.5 Q 83 -70 72 -94.5 Q 61 -119 56.5 -146 Q 52 -173 52 -200 L 52 -535 Q 52 -562 56.5 -589 Q 61 -616 72 -640.5 Q 83 -665 101.5 -685.5 Q 120 -706 143.5 -719 Q 167 -732 193.5 -737.5 Q 220 -743 247 -743 Q 273 -743 298 -738.5 Q 323 -734 346 -723 Q 369 -712 387.5 -694 Q 406 -676 418 -653.5 Q 430 -631 436 -606 Q 442 -581 442 -556 L 442 -554 L 341 -554 L 341 -555 Q 341 -575 335.5 -593.5 Q 330 -612 317 -627 Q 304 -642 285.5 -648.5 Q 267 -655 247 -655 Q 226 -655 206 -645.5 Q 186 -636 173.5 -618 Q 161 -600 157 -578.5 Q 153 -557 153 -535 L 153 -200 Q 153 -178 157 -156.5 Q 161 -135 173.5 -117 Q 186 -99 206 -89.5 Q 226 -80 247 -80 Q 267 -80 285.5 -86.5 Q 304 -93 317 -108 Q 330 -123 335.5 -141.5 Q 341 -160 341 -180 L 341 -181 L 442 -181 L 442 -179 Q 442 -154 436 -129 Q 430 -104 418 -81.5 Q 406 -59 387.5 -41 Q 369 -23 346 -12 Q 323 -1 298 3.5 Q 273 8 247 8 Z " id="path13"/>
<path d="M 60 0 L 60 -735 L 219 -735 Q 249 -735 279 -730 Q 309 -725 336.5 -712 Q 364 -699 386 -678.5 Q 408 -658 422 -631.5 Q 436 -605 442 -575 Q 448 -545 448 -515 L 448 -220 Q 448 -190 442 -160 Q 436 -130 422 -103.5 Q 408 -77 386 -56.5 Q 364 -36 336.5 -23 Q 309 -10 279 -5 Q 249 -0 219 0 Z M 161 -88 L 219 -88 Q 237 -88 254 -91 Q 271 -94 286.5 -102.5 Q 302 -111 314 -124 Q 326 -137 333.5 -152.5 Q 341 -168 344 -185.5 Q 347 -203 347 -220 L 347 -515 Q 347 -532 344 -549.5 Q 341 -567 333.5 -582.5 Q 326 -598 314 -611 Q 302 -624 286.5 -632.5 Q 271 -641 254 -644 Q 237 -647 219 -647 L 161 -647 Z " id="path14"/>
<path d="M 68 0 L 68 -735 L 440 -735 L 440 -647 L 169 -647 L 169 -426 L 383 -426 L 383 -338 L 169 -338 L 169 -88 L 440 -88 L 440 0 Z " id="path15"/>
<path d="M 91 0 L 91 -735 L 440 -735 L 440 -647 L 191 -647 L 191 -426 L 383 -426 L 383 -338 L 191 -338 L 191 0 Z " id="path16"/>
<path d="M 250 8 Q 223 8 196.5 2.5 Q 170 -3 147 -16.5 Q 124 -30 106.5 -50.5 Q 89 -71 78.5 -95.5 Q 68 -120 64 -146.5 Q 60 -173 60 -200 L 60 -735 L 161 -735 L 161 -200 Q 161 -186 162.5 -172 Q 164 -158 168 -144.5 Q 172 -131 179.5 -118.5 Q 187 -106 197.5 -97 Q 208 -88 222 -84 Q 236 -80 250 -80 Q 264 -80 278 -84 Q 292 -88 302.5 -97 Q 313 -106 320.5 -118.5 Q 328 -131 332 -144.5 Q 336 -158 337.5 -172 Q 339 -186 339 -200 L 339 -735 L 440 -735 L 440 -200 Q 440 -173 436 -146.5 Q 432 -120 421.5 -95.5 Q 411 -71 393.5 -50.5 Q 376 -30 353 -16.5 Q 330 -3 303.5 2.5 Q 277 8 250 8 Z " id="path17"/>
<path d="M 300 -143 L 200 -143 L 200 -296 L 60 -296 L 60 -384 L 200 -384 L 200 -537 L 300 -537 L 300 -384 L 440 -384 L 440 -296 L 300 -296 Z " id="path18"/>
<path d="M 821 -19 L 179 -19 L 179 -661 L 821 -661 Z " id="path19"/>
<path d="M 179 -19 L 179 -661 L 821 -661 L 821 -19 Z M 239 -79 L 761 -79 L 761 -601 L 239 -601 Z " id="path20"/>
<path d="M 700 -19 L 300 -19 Q 284 -19 268 -21.5 Q 252 -24 237 -31.5 Q 222 -39 210.5 -50.5 Q 199 -62 191.5 -77 Q 184 -92 181.5 -108 Q 179 -124 179 -140 L 179 -540 Q 179 -556 181.5 -572 Q 184 -588 191.5 -603 Q 199 -618 210.5 -629.5 Q 222 -641 237 -648.5 Q 252 -656 268 -658.5 Q 284 -661 300 -661 L 700 -661 Q 716 -661 732 -658.5 Q 748 -656 763 -648.5 Q 778 -641 789.5 -629.5 Q 801 -618 808.5 -603 Q 816 -588 818.5 -572 Q 821 -556 821 -540 L 821 -140 Q 821 -124 818.5 -108 Q 816 -92 808.5 -77 Q 801 -62 789.5 -50.5 Q 778 -39 763 -31.5 Q 748 -24 732 -21.5 Q 716 -19 700 -19 Z M 300 -79 L 700 -79 Q 711 -79 722.5 -83.5 Q 734 -88 741 -97 Q 748 -106 751 -117.5 Q 754 -129 754 -140 L 754 -540 Q 754 -551 751 -562.5 Q 748 -574 741 -583 Q 734 -592 722.5 -596.5 Q 711 -601 700 -601 L 300 -601 Q 289 -601 277.5 -596.5 Q 266 -592 259 -583 Q 252 -574 249 -562.5 Q 246 -551 246 -540 L 246 -140 Q 246 -129 249 -117.5 Q 252 -106 259 -97 Q 266 -88 277.5 -83.5 Q 289 -79 300 -79 Z " id="path21"/>
<path d="M 179 -19 L 179 -661 L 821 -661 L 821 -19 Z M 239 -79 L 761 -79 L 761 -601 L 239 -601 Z M 370 -210 L 370 -470 L 630 -470 L 630 -210 Z " id="path22"/>
<path d="M 179 -19 L 179 -661 L 821 -661 L 821 -19 Z M 761 -506 L 761 -601 L 239 -601 L 239 -506 Z M 239 -364 L 761 -364 L 761 -458 L 239 -458 Z M 239 -222 L 761 -222 L 761 -316 L 239 -316 Z M 239 -79 L 761 -79 L 761 -174 L 239 -174 Z " id="path23"/>
<path d="M 179 -19 L 179 -661 L 821 -661 L 821 -19 Z M 761 -79 L 761 -601 L 668 -601 L 668 -79 Z M 526 -79 L 616 -79 L 616 -601 L 526 -601 Z M 474 -79 L 474 -601 L 384 -601 L 384 -79 Z M 239 -79 L 332 -79 L 332 -601 L 239 -601 Z " id="path24"/>
<path d="M 179 -19 L 179 -661 L 821 -661 L 821 -19 Z M 761 -506 L 761 -601 L 668 -601 L 668 -506 Z M 526 -506 L 616 -506 L 616 -601 L 526 -601 Z M 384 -506 L 474 -506 L 474 -601 L 384 -601 Z M 239 -506 L 332 -506 L 332 -601 L 239 -601 Z M 761 -364 L 761 -458 L 668 -458 L 668 -364 Z M 526 -364 L 616 -364 L 616 -458 L 526 -458 Z M 384 -364 L 474 -364 L 474 -458 L 384 -458 Z M 239 -364 L 332 -364 L 332 -458 L 239 -458 Z M 668 -222 L 761 -222 L 761 -316 L 668 -316 Z M 526 -222 L 616 -222 L 616 -316 L 526 -316 Z M 384 -222 L 474 -222 L 474 -316 L 384 -316 Z M 239 -222 L 332 -222 L 332 -316 L 239 -316 Z M 668 -79 L 761 -79 L 761 -174 L 668 -174 Z M 526 -79 L 616 -79 L 616 -174 L 526 -174 Z M 474 -79 L 474 -174 L 384 -174 L 384 -79 Z M 239 -79 L 332 -79 L 332 -174 L 239 -174 Z " id="path25"/>
<path d="M 179 -19 L 179 -661 L 821 -661 L 821 -19 Z M 761 -585 L 761 -601 L 745 -601 Z M 761 -424 L 761 -538 L 698 -601 L 584 -601 Z M 761 -264 L 761 -377 L 537 -601 L 424 -601 Z M 761 -103 L 761 -216 L 376 -601 L 263 -601 Z M 624 -79 L 737 -79 L 239 -577 L 239 -464 Z M 576 -79 L 239 -416 L 239 -303 L 463 -79 Z M 302 -79 L 416 -79 L 239 -256 L 239 -142 Z M 239 -79 L 255 -79 L 239 -95 Z " id="path26"/>
<path d="M 179 -19 L 179 -661 L 821 -661 L 821 -19 Z M 239 -103 L 737 -601 L 624 -601 L 239 -216 Z M 239 -264 L 576 -601 L 463 -601 L 239 -377 Z M 239 -424 L 416 -601 L 302 -601 L 239 -538 Z M 239 -585 L 255 -601 L 239 -601 Z M 263 -79 L 376 -79 L 761 -464 L 761 -577 Z M 424 -79 L 537 -79 L 761 -303 L 761 -416 Z M 698 -79 L 761 -142 L 761 -256 L 584 -79 Z M 761 -79 L 761 -95 L 745 -79 Z " id="path27"/>
<path d="M 179 -19 L 179 -661 L 821 -661 L 821 -19 Z M 661 -524 L 717 -581 L 698 -601 L 624 -601 L 604 -581 Z M 500 -524 L 557 -581 L 537 -601 L 463 -601 L 443 -581 Z M 339 -524 L 396 -581 L 376 -601 L 302 -601 L 283 -581 Z M 741 -444 L 761 -464 L 761 -538 L 741 -557 L 684 -501 Z M 580 -444 L 637 -501 L 580 -557 L 524 -501 Z M 420 -444 L 476 -501 L 420 -557 L 363 -501 Z M 259 -444 L 316 -501 L 259 -557 L 239 -538 L 239 -464 Z M 661 -364 L 717 -420 L 661 -477 L 604 -420 Z M 500 -364 L 557 -420 L 500 -477 L 443 -420 Z M 339 -364 L 341 -365 L 396 -420 L 339 -477 L 283 -420 Z M 741 -283 L 761 -303 L 761 -377 L 741 -397 L 684 -340 Z M 580 -283 L 637 -340 L 580 -397 L 524 -340 Z M 420 -283 L 476 -340 L 420 -397 L 363 -340 Z M 259 -283 L 316 -340 L 259 -397 L 239 -377 L 239 -303 Z M 661 -203 L 717 -260 L 661 -316 L 604 -260 Z M 500 -203 L 557 -260 L 500 -316 L 443 -260 Z M 339 -203 L 396 -260 L 339 -316 L 283 -260 Z M 741 -123 L 761 -142 L 761 -216 L 741 -236 L 684 -179 Z M 580 -123 L 637 -179 L 580 -236 L 524 -179 Z M 420 -123 L 476 -179 L 420 -236 L 363 -179 Z M 259 -123 L 316 -179 L 259 -236 L 239 -216 L 239 -142 Z M 624 -79 L 698 -79 L 717 -99 L 661 -156 L 604 -99 Z M 537 -79 L 557 -99 L 500 -156 L 443 -99 L 463 -79 Z M 302 -79 L 376 -79 L 396 -99 L 339 -156 L 283 -99 Z " id="path28"/>
<path d="M 684 -156 L 316 -156 L 316 -524 L 684 -524 Z " id="path29"/>
<path d="M 684 -156 L 316 -156 L 316 -524 L 684 -524 Z M 377 -217 L 623 -217 L 623 -463 L 377 -463 Z " id="path30"/>
<path d="M 179 -126 L 179 -554 L 821 -554 L 821 -126 Z " id="path31"/>
<path d="M 179 -126 L 179 -554 L 821 -554 L 821 -126 Z M 761 -187 L 761 -493 L 239 -493 L 239 -187 Z " id="path32"/>
<path d="M 714 -19 L 286 -19 L 286 -661 L 714 -661 Z " id="path33"/>
<path d="M 286 -19 L 286 -661 L 714 -661 L 714 -19 Z M 653 -79 L 653 -601 L 347 -601 L 347 -79 Z " id="path34"/>
<path d="M 741 -126 L 98 -126 L 259 -554 L 902 -554 Z " id="path35"/>
<path d="M 741 -126 L 98 -126 L 259 -554 L 902 -554 Z M 186 -187 L 699 -187 L 814 -493 L 301 -493 Z " id="path36"/>
<path d="M 110 -19 L 500 -661 L 890 -19 Z " id="path37"/>
<path d="M 110 -19 L 500 -661 L 890 -19 Z M 218 -79 L 782 -79 L 500 -544 Z " id="path38"/>
<path d="M 723 -156 L 277 -156 L 500 -524 Z " id="path39"/>
<path d="M 723 -156 L 277 -156 L 500 -524 Z M 385 -217 L 615 -217 L 529 -359 L 500 -406 Z " id="path40"/>
<path d="M 179 50 L 179 -730 L 821 -340 Z " id="path41"/>
<path d="M 179 50 L 179 -730 L 821 -340 Z M 239 -58 L 704 -340 L 239 -622 Z " id="path42"/>
<path d="M 316 -117 L 316 -563 L 684 -340 Z " id="path43"/>
<path d="M 316 -117 L 316 -563 L 684 -340 Z M 377 -225 L 566 -340 L 377 -455 Z " id="path44"/>
<path d="M 179 -80 L 179 -600 L 821 -340 Z " id="path45"/>
<path d="M 179 -80 L 179 -600 L 821 -340 Z M 239 -170 L 659 -340 L 239 -510 Z " id="path46"/>
<path d="M 500 -19 L 110 -661 L 890 -661 Z " id="path47"/>
<path d="M 500 -19 L 110 -661 L 890 -661 Z M 500 -136 L 782 -601 L 218 -601 Z " id="path48"/>
<path d="M 500 -156 L 277 -524 L 723 -524 Z " id="path49"/>
<path d="M 500 -156 L 277 -524 L 723 -524 Z M 500 -274 L 615 -463 L 385 -463 Z " id="path50"/>
<path d="M 821 50 L 179 -340 L 821 -730 Z " id="path51"/>
<path d="M 821 50 L 761 13 L 179 -340 L 821 -730 Z M 761 -58 L 761 -622 L 296 -340 Z " id="path52"/>
<path d="M 684 -117 L 316 -340 L 684 -563 Z " id="path53"/>
<path d="M 684 -117 L 316 -340 L 684 -563 Z M 623 -225 L 623 -455 L 434 -340 Z " id="path54"/>
<path d="M 821 -80 L 179 -340 L 821 -600 Z " id="path55"/>
<path d="M 821 -80 L 761 -105 L 179 -340 L 821 -600 Z M 761 -170 L 761 -510 L 341 -340 Z " id="path56"/>
<path d="M 500 -19 L 179 -340 L 500 -661 L 821 -340 Z " id="path57"/>
<path d="M 500 -19 L 179 -340 L 500 -661 L 821 -340 Z M 500 -79 L 761 -340 L 500 -601 L 239 -340 Z " id="path58"/>
<path d="M 500 -19 L 179 -340 L 500 -661 L 821 -340 Z M 500 -79 L 761 -340 L 500 -601 L 239 -340 Z M 500 -210 L 370 -340 L 500 -470 L 630 -340 Z " id="path59"/>
<path d="M 500 -19 Q 458 -19 417 -30 Q 376 -41 339.5 -62 Q 303 -83 273 -113 Q 243 -143 222 -179.5 Q 201 -216 190 -257 Q 179 -298 179 -340 Q 179 -382 190 -423 Q 201 -464 222 -500.5 Q 243 -537 273 -567 Q 303 -597 339.5 -618 Q 376 -639 417 -650 Q 458 -661 500 -661 Q 542 -661 583 -650 Q 624 -639 660.5 -618 Q 697 -597 727 -567 Q 757 -537 778 -500.5 Q 799 -464 810 -423 Q 821 -382 821 -340 Q 821 -298 810 -257 Q 799 -216 778 -179.5 Q 757 -143 727 -113 Q 697 -83 660.5 -62 Q 624 -41 583 -30 Q 542 -19 500 -19 Z M 500 -79 Q 534 -79 567.5 -88 Q 601 -97 630.5 -114 Q 660 -131 684.5 -155.5 Q 709 -180 726 -209.5 Q 743 -239 752 -272.5 Q 761 -306 761 -340 Q 761 -374 752 -407.5 Q 743 -441 726 -470.5 Q 709 -500 684.5 -524.5 Q 660 -549 630.5 -566 Q 601 -583 567.5 -592 Q 534 -601 500 -601 Q 466 -601 432.5 -592 Q 399 -583 369.5 -566 Q 340 -549 315.5 -524.5 Q 291 -500 274 -470.5 Q 257 -441 248 -407.5 Q 239 -374 239 -340 Q 239 -306 248 -272.5 Q 257 -239 274 -209.5 Q 291 -180 315.5 -155.5 Q 340 -131 369.5 -114 Q 399 -97 432.5 -88 Q 466 -79 500 -79 Z M 500 -210 Q 474 -210 450 -220 Q 426 -230 408 -248 Q 390 -266 380 -290 Q 370 -314 370 -340 Q 370 -366 380 -390 Q 390 -414 408 -432 Q 426 -450 450 -460 Q 474 -470 500 -470 Q 526 -470 550 -460 Q 574 -450 592 -432 Q 610 -414 620 -390 Q 630 -366 630 -340 Q 630 -314 620 -290 Q 610 -266 592 -248 Q 574 -230 550 -220 Q 526 -210 500 -210 Z " id="path60"/>
<path d="M 500 -19 L 286 -340 L 500 -661 L 714 -340 Z M 500 -128 L 641 -340 L 500 -552 L 359 -340 Z " id="path61"/>
<path d="M 500 -19 Q 458 -19 417 -30 Q 376 -41 339.5 -62 Q 303 -83 273 -113 Q 243 -143 222 -179.5 Q 201 -216 190 -257 Q 179 -298 179 -340 Q 179 -382 190 -423 Q 201 -464 222 -500.5 Q 243 -537 273 -567 Q 303 -597 339.5 -618 Q 376 -639 417 -650 Q 458 -661 500 -661 Q 542 -661 583 -650 Q 624 -639 660.5 -618 Q 697 -597 727 -567 Q 757 -537 778 -500.5 Q 799 -464 810 -423 Q 821 -382 821 -340 Q 821 -298 810 -257 Q 799 -216 778 -179.5 Q 757 -143 727 -113 Q 697 -83 660.5 -62 Q 624 -41 583 -30 Q 542 -19 500 -19 Z M 500 -79 Q 534 -79 567.5 -88 Q 601 -97 630.5 -114 Q 660 -131 684.5 -155.5 Q 709 -180 726 -209.5 Q 743 -239 752 -272.5 Q 761 -306 761 -340 Q 761 -374 752 -407.5 Q 743 -441 726 -470.5 Q 709 -500 684.5 -524.5 Q 660 -549 630.5 -566 Q 601 -583 567.5 -592 Q 534 -601 500 -601 Q 466 -601 432.5 -592 Q 399 -583 369.5 -566 Q 340 -549 315.5 -524.5 Q 291 -500 274 -470.5 Q 257 -441 248 -407.5 Q 239 -374 239 -340 Q 239 -306 248 -272.5 Q 257 -239 274 -209.5 Q 291 -180 315.5 -155.5 Q 340 -131 369.5 -114 Q 399 -97 432.5 -88 Q 466 -79 500 -79 Z " id="path62"/>
<path d="M 250 -526 Q 240 -526 233 -533 Q 226 -540 226 -550 Q 226 -560 233 -567 Q 240 -574 250 -574 Q 260 -574 267 -567 Q 274 -560 274 -550 Q 274 -540 267 -533 Q 260 -526 250 -526 Z M 145 -498 Q 135 -498 128 -505 Q 121 -512 121 -522 Q 121 -531 128 -538.5 Q 135 -546 145 -546 Q 155 -546 162 -538.5 Q 169 -531 169 -522 Q 169 -512 162 -505 Q 155 -498 145 -498 Z M 355 -498 Q 345 -498 338 -505 Q 331 -512 331 -522 Q 331 -531 338 -538.5 Q 345 -546 355 -546 Q 365 -546 372 -538.5 Q 379 -531 379 -522 Q 379 -512 372 -505 Q 365 -498 355 -498 Z M 68 -421 Q 59 -421 51.5 -428 Q 44 -435 44 -445 Q 44 -455 51.5 -462 Q 59 -469 68 -469 Q 78 -469 85 -462 Q 92 -455 92 -445 Q 92 -435 85 -428 Q 78 -421 68 -421 Z M 432 -421 Q 422 -421 415 -428 Q 408 -435 408 -445 Q 408 -455 415 -462 Q 422 -469 432 -469 Q 441 -469 448.5 -462 Q 456 -455 456 -445 Q 456 -435 448.5 -428 Q 441 -421 432 -421 Z M 40 -316 Q 30 -316 23 -323 Q 16 -330 16 -340 Q 16 -350 23 -357 Q 30 -364 40 -364 Q 50 -364 57 -357 Q 64 -350 64 -340 Q 64 -330 57 -323 Q 50 -316 40 -316 Z M 460 -316 Q 450 -316 443 -323 Q 436 -330 436 -340 Q 436 -350 443 -357 Q 450 -364 460 -364 Q 470 -364 477 -357 Q 484 -350 484 -340 Q 484 -330 477 -323 Q 470 -316 460 -316 Z M 432 -211 Q 422 -211 415 -218 Q 408 -225 408 -235 Q 408 -245 415 -252 Q 422 -259 432 -259 Q 441 -259 448.5 -252 Q 456 -245 456 -235 Q 456 -225 448.5 -218 Q 441 -211 432 -211 Z M 68 -211 Q 59 -211 51.5 -218 Q 44 -225 44 -235 Q 44 -245 51.5 -252 Q 59 -259 68 -259 Q 78 -259 85 -252 Q 92 -245 92 -235 Q 92 -225 85 -218 Q 78 -211 68 -211 Z M 355 -134 Q 345 -134 338 -141.5 Q 331 -149 331 -158 Q 331 -168 338 -175 Q 345 -182 355 -182 Q 365 -182 372 -175 Q 379 -168 379 -158 Q 379 -149 372 -141.5 Q 365 -134 355 -134 Z M 145 -134 Q 135 -134 128 -141.5 Q 121 -149 121 -158 Q 121 -168 128 -175 Q 135 -182 145 -182 Q 155 -182 162 -175 Q 169 -168 169 -158 Q 169 -149 162 -141.5 Q 155 -134 145 -134 Z M 250 -106 Q 240 -106 233 -113 Q 226 -120 226 -130 Q 226 -140 233 -147 Q 240 -154 250 -154 Q 260 -154 267 -147 Q 274 -140 274 -130 Q 274 -120 267 -113 Q 260 -106 250 -106 Z " id="path63"/>
<path d="M 500 -19 Q 458 -19 417 -30 Q 376 -41 339.5 -62 Q 303 -83 273 -113 Q 243 -143 222 -179.5 Q 201 -216 190 -257 Q 179 -298 179 -340 Q 179 -382 190 -423 Q 201 -464 222 -500.5 Q 243 -537 273 -567 Q 303 -597 339.5 -618 Q 376 -639 417 -650 Q 458 -661 500 -661 Q 542 -661 583 -650 Q 624 -639 660.5 -618 Q 697 -597 727 -567 Q 757 -537 778 -500.5 Q 799 -464 810 -423 Q 821 -382 821 -340 Q 821 -298 810 -257 Q 799 -216 778 -179.5 Q 757 -143 727 -113 Q 697 -83 660.5 -62 Q 624 -41 583 -30 Q 542 -19 500 -19 Z M 526 -81 Q 550 -83 572.5 -89.5 Q 595 -96 616 -107 L 616 -573 Q 595 -584 572.5 -590.5 Q 550 -597 526 -599 Z M 474 -81 L 474 -599 Q 450 -597 427.5 -590.5 Q 405 -584 384 -573 L 384 -107 Q 405 -96 427.5 -89.5 Q 450 -83 474 -81 Z M 668 -141 Q 690 -159 707.5 -182 Q 725 -205 736.5 -230.5 Q 748 -256 754.5 -284 Q 761 -312 761 -340 Q 761 -368 754.5 -396 Q 748 -424 736.5 -449.5 Q 725 -475 707.5 -498 Q 690 -521 668 -539 Z M 332 -141 L 332 -539 Q 310 -521 292.5 -498 Q 275 -475 263.5 -449.5 Q 252 -424 245.5 -396 Q 239 -368 239 -340 Q 239 -312 245.5 -284 Q 252 -256 263.5 -230.5 Q 275 -205 292.5 -182 Q 310 -159 332 -141 Z " id="path64"/>
<path d="M 500 -19 Q 458 -19 417 -30 Q 376 -41 339.5 -62 Q 303 -83 273 -113 Q 243 -143 222 -179.5 Q 201 -216 190 -257 Q 179 -298 179 -340 Q 179 -382 190 -423 Q 201 -464 222 -500.5 Q 243 -537 273 -567 Q 303 -597 339.5 -618 Q 376 -639 417 -650 Q 458 -661 500 -661 Q 542 -661 583 -650 Q 624 -639 660.5 -618 Q 697 -597 727 -567 Q 757 -537 778 -500.5 Q 799 -464 810 -423 Q 821 -382 821 -340 Q 821 -298 810 -257 Q 799 -216 778 -179.5 Q 757 -143 727 -113 Q 697 -83 660.5 -62 Q 624 -41 583 -30 Q 542 -19 500 -19 Z M 500 -79 Q 534 -79 567.5 -88 Q 601 -97 630.5 -114 Q 660 -131 684.5 -155.5 Q 709 -180 726 -209.5 Q 743 -239 752 -272.5 Q 761 -306 761 -340 Q 761 -374 752 -407.5 Q 743 -441 726 -470.5 Q 709 -500 684.5 -524.5 Q 660 -549 630.5 -566 Q 601 -583 567.5 -592 Q 534 -601 500 -601 Q 466 -601 432.5 -592 Q 399 -583 369.5 -566 Q 340 -549 315.5 -524.5 Q 291 -500 274 -470.5 Q 257 -441 248 -407.5 Q 239 -374 239 -340 Q 239 -306 248 -272.5 Q 257 -239 274 -209.5 Q 291 -180 315.5 -155.5 Q 340 -131 369.5 -114 Q 399 -97 432.5 -88 Q 466 -79 500 -79 Z M 500 -210 Q 474 -210 450 -220 Q 426 -230 408 -248 Q 390 -266 380 -290 Q 370 -314 370 -340 Q 370 -366 380 -390 Q 390 -414 408 -432 Q 426 -450 450 -460 Q 474 -470 500 -470 Q 526 -470 550 -460 Q 574 -450 592 -432 Q 610 -414 620 -390 Q 630 -366 630 -340 Q 630 -314 620 -290 Q 610 -266 592 -248 Q 574 -230 550 -220 Q 526 -210 500 -210 Z M 500 -270 Q 514 -270 527 -275.5 Q 540 -281 549.5 -290.5 Q 559 -300 564.5 -313 Q 570 -326 570 -340 Q 570 -354 564.5 -367 Q 559 -380 549.5 -389.5 Q 540 -399 527 -404.5 Q 514 -410 500 -410 Q 486 -410 473 -404.5 Q 460 -399 450.5 -389.5 Q 441 -380 435.5 -367 Q 430 -354 430 -340 Q 430 -326 435.5 -313 Q 441 -300 450.5 -290.5 Q 460 -281 473 -275.5 Q 486 -270 500 -270 Z " id="path65"/>
<path d="M 500 -19 Q 458 -19 417 -30 Q 376 -41 339.5 -62 Q 303 -83 273 -113 Q 243 -143 222 -179.5 Q 201 -216 190 -257 Q 179 -298 179 -340 Q 179 -382 190 -423 Q 201 -464 222 -500.5 Q 243 -537 273 -567 Q 303 -597 339.5 -618 Q 376 -639 417 -650 Q 458 -661 500 -661 Q 542 -661 583 -650 Q 624 -639 660.5 -618 Q 697 -597 727 -567 Q 757 -537 778 -500.5 Q 799 -464 810 -423 Q 821 -382 821 -340 Q 821 -298 810 -257 Q 799 -216 778 -179.5 Q 757 -143 727 -113 Q 697 -83 660.5 -62 Q 624 -41 583 -30 Q 542 -19 500 -19 Z " id="path66"/>
<path d="M 500 -19 Q 458 -19 417 -30 Q 376 -41 339.5 -62 Q 303 -83 273 -113 Q 243 -143 222 -179.5 Q 201 -216 190 -257 Q 179 -298 179 -340 Q 179 -382 190 -423 Q 201 -464 222 -500.5 Q 243 -537 273 -567 Q 303 -597 339.5 -618 Q 376 -639 417 -650 Q 458 -661 500 -661 Q 542 -661 583 -650 Q 624 -639 660.5 -618 Q 697 -597 727 -567 Q 757 -537 778 -500.5 Q 799 -464 810 -423 Q 821 -382 821 -340 Q 821 -298 810 -257 Q 799 -216 778 -179.5 Q 757 -143 727 -113 Q 697 -83 660.5 -62 Q 624 -41 583 -30 Q 542 -19 500 -19 Z M 500 -79 Q 534 -79 567.5 -88 Q 601 -97 630.5 -114 Q 660 -131 684.5 -155.5 Q 709 -180 726 -209.5 Q 743 -239 752 -272.5 Q 761 -306 761 -340 Q 761 -374 752 -407.5 Q 743 -441 726 -470.5 Q 709 -500 684.5 -524.5 Q 660 -549 630.5 -566 Q 601 -583 567.5 -592 Q 534 -601 500 -601 Z " id="path67"/>
<path d="M 500 -19 Q 458 -19 417 -30 Q 376 -41 339.5 -62 Q 303 -83 273 -113 Q 243 -143 222 -179.5 Q 201 -216 190 -257 Q 179 -298 179 -340 Q 179 -382 190 -423 Q 201 -464 222 -500.5 Q 243 -537 273 -567 Q 303 -597 339.5 -618 Q 376 -639 417 -650 Q 458 -661 500 -661 Q 542 -661 583 -650 Q 624 -639 660.5 -618 Q 697 -597 727 -567 Q 757 -537 778 -500.5 Q 799 -464 810 -423 Q 821 -382 821 -340 Q 821 -298 810 -257 Q 799 -216 778 -179.5 Q 757 -143 727 -113 Q 697 -83 660.5 -62 Q 624 -41 583 -30 Q 542 -19 500 -19 Z M 500 -79 L 500 -601 Q 466 -601 432.5 -592 Q 399 -583 369.5 -566 Q 340 -549 315.5 -524.5 Q 291 -500 274 -470.5 Q 257 -441 248 -407.5 Q 239 -374 239 -340 Q 239 -306 248 -272.5 Q 257 -239 274 -209.5 Q 291 -180 315.5 -155.5 Q 340 -131 369.5 -114 Q 399 -97 432.5 -88 Q 466 -79 500 -79 Z " id="path68"/>
<path d="M 500 -19 Q 458 -19 417 -30 Q 376 -41 339.5 -62 Q 303 -83 273 -113 Q 243 -143 222 -179.5 Q 201 -216 190 -257 Q 179 -298 179 -340 Q 179 -382 190 -423 Q 201 -464 222 -500.5 Q 243 -537 273 -567 Q 303 -597 339.5 -618 Q 376 -639 417 -650 Q 458 -661 500 -661 Q 542 -661 583 -650 Q 624 -639 660.5 -618 Q 697 -597 727 -567 Q 757 -537 778 -500.5 Q 799 -464 810 -423 Q 821 -382 821 -340 Q 821 -298 810 -257 Q 799 -216 778 -179.5 Q 757 -143 727 -113 Q 697 -83 660.5 -62 Q 624 -41 583 -30 Q 542 -19 500 -19 Z M 239 -340 L 761 -340 Q 761 -374 752 -407.5 Q 743 -441 726 -470.5 Q 709 -500 684.5 -524.5 Q 660 -549 630.5 -566 Q 601 -583 567.5 -592 Q 534 -601 500 -601 Q 466 -601 432.5 -592 Q 399 -583 369.5 -566 Q 340 -549 315.5 -524.5 Q 291 -500 274 -470.5 Q 257 -441 248 -407.5 Q 239 -374 239 -340 Z " id="path69"/>
<path d="M 500 -19 Q 458 -19 417 -30 Q 376 -41 339.5 -62 Q 303 -83 273 -113 Q 243 -143 222 -179.5 Q 201 -216 190 -257 Q 179 -298 179 -340 Q 179 -382 190 -423 Q 201 -464 222 -500.5 Q 243 -537 273 -567 Q 303 -597 339.5 -618 Q 376 -639 417 -650 Q 458 -661 500 -661 Q 542 -661 583 -650 Q 624 -639 660.5 -618 Q 697 -597 727 -567 Q 757 -537 778 -500.5 Q 799 -464 810 -423 Q 821 -382 821 -340 Q 821 -298 810 -257 Q 799 -216 778 -179.5 Q 757 -143 727 -113 Q 697 -83 660.5 -62 Q 624 -41 583 -30 Q 542 -19 500 -19 Z M 500 -79 Q 534 -79 567.5 -88 Q 601 -97 630.5 -114 Q 660 -131 684.5 -155.5 Q 709 -180 726 -209.5 Q 743 -239 752 -272.5 Q 761 -306 761 -340 L 239 -340 Q 239 -306 248 -272.5 Q 257 -239 274 -209.5 Q 291 -180 315.5 -155.5 Q 340 -131 369.5 -114 Q 399 -97 432.5 -88 Q 466 -79 500 -79 Z " id="path70"/>
<path d="M 500 -19 Q 458 -19 417 -30 Q 376 -41 339.5 -62 Q 303 -83 273 -113 Q 243 -143 222 -179.5 Q 201 -216 190 -257 Q 179 -298 179 -340 Q 179 -382 190 -423 Q 201 -464 222 -500.5 Q 243 -537 273 -567 Q 303 -597 339.5 -618 Q 376 -639 417 -650 Q 458 -661 500 -661 Q 542 -661 583 -650 Q 624 -639 660.5 -618 Q 697 -597 727 -567 Q 757 -537 778 -500.5 Q 799 -464 810 -423 Q 821 -382 821 -340 Q 821 -298 810 -257 Q 799 -216 778 -179.5 Q 757 -143 727 -113 Q 697 -83 660.5 -62 Q 624 -41 583 -30 Q 542 -19 500 -19 Z M 500 -79 Q 534 -79 567.5 -88 Q 601 -97 630.5 -114 Q 660 -131 684.5 -155.5 Q 709 -180 726 -209.5 Q 743 -239 752 -272.5 Q 761 -306 761 -340 L 500 -340 L 500 -601 Q 466 -601 432.5 -592 Q 399 -583 369.5 -566 Q 340 -549 315.5 -524.5 Q 291 -500 274 -470.5 Q 257 -441 248 -407.5 Q 239 -374 239 -340 Q 239 -306 248 -272.5 Q 257 -239 274 -209.5 Q 291 -180 315.5 -155.5 Q 340 -131 369.5 -114 Q 399 -97 432.5 -88 Q 466 -79 500 -79 Z " id="path71"/>
<path d="M 500 -19 Q 458 -19 417 -30 Q 376 -41 339.5 -62 Q 303 -83 273 -113 Q 243 -143 222 -179.5 Q 201 -216 190 -257 Q 179 -298 179 -340 Q 179 -382 190 -423 Q 201 -464 222 -500.5 Q 243 -537 273 -567 Q 303 -597 339.5 -618 Q 376 -639 417 -650 Q 458 -661 500 -661 Q 542 -661 583 -650 Q 624 -639 660.5 -618 Q 697 -597 727 -567 Q 757 -537 778 -500.5 Q 799 -464 810 -423 Q 821 -382 821 -340 Q 821 -298 810 -257 Q 799 -216 778 -179.5 Q 757 -143 727 -113 Q 697 -83 660.5 -62 Q 624 -41 583 -30 Q 542 -19 500 -19 Z M 239 -340 L 500 -340 L 500 -601 Q 466 -601 432.5 -592 Q 399 -583 369.5 -566 Q 340 -549 315.5 -524.5 Q 291 -500 274 -470.5 Q 257 -441 248 -407.5 Q 239 -374 239 -340 Z " id="path72"/>
<path d="M 500 -20 Q 458 -20 417 -31 Q 376 -42 340 -63 Q 304 -84 274 -114 Q 244 -144 223 -180 Q 202 -216 191 -257 Q 180 -298 180 -340 Q 180 -382 191 -423 Q 202 -464 223 -500 Q 244 -536 274 -566 Q 304 -596 340 -617 Q 376 -638 417 -649 Q 458 -660 500 -660 Z " id="path73"/>
<path d="M 500 -20 L 500 -660 Q 542 -660 583 -649 Q 624 -638 660 -617 Q 696 -596 726 -566 Q 756 -536 777 -500 Q 798 -464 809 -423 Q 820 -382 820 -340 Q 820 -298 809 -257 Q 798 -216 777 -180 Q 756 -144 726 -114 Q 696 -84 660 -63 Q 624 -42 583 -31 Q 542 -20 500 -20 Z " id="path74"/>
<path d="M 0 285 L 0 -965 L 1000 -965 L 1000 285 Z M 500 -19 Q 542 -19 583 -30 Q 624 -41 660.5 -62 Q 697 -83 727 -113 Q 757 -143 778 -179.5 Q 799 -216 810 -257 Q 821 -298 821 -340 Q 821 -382 810 -423 Q 799 -464 778 -500.5 Q 757 -537 727 -567 Q 697 -597 660.5 -618 Q 624 -639 583 -650 Q 542 -661 500 -661 Q 458 -661 417 -650 Q 376 -639 339.5 -618 Q 303 -597 273 -567 Q 243 -537 222 -500.5 Q 201 -464 190 -423 Q 179 -382 179 -340 Q 179 -298 190 -257 Q 201 -216 222 -179.5 Q 243 -143 273 -113 Q 303 -83 339.5 -62 Q 376 -41 417 -30 Q 458 -19 500 -19 Z " id="path75"/>
<path d="M 0 285 L 0 -965 L 1000 -965 L 1000 285 Z M 500 -19 Q 542 -19 583 -30 Q 624 -41 660.5 -62 Q 697 -83 727 -113 Q 757 -143 778 -179.5 Q 799 -216 810 -257 Q 821 -298 821 -340 Q 821 -382 810 -423 Q 799 -464 778 -500.5 Q 757 -537 727 -567 Q 697 -597 660.5 -618 Q 624 -639 583 -650 Q 542 -661 500 -661 Q 458 -661 417 -650 Q 376 -639 339.5 -618 Q 303 -597 273 -567 Q 243 -537 222 -500.5 Q 201 -464 190 -423 Q 179 -382 179 -340 Q 179 -298 190 -257 Q 201 -216 222 -179.5 Q 243 -143 273 -113 Q 303 -83 339.5 -62 Q 376 -41 417 -30 Q 458 -19 500 -19 Z M 500 -79 Q 466 -79 432.5 -88 Q 399 -97 369.5 -114 Q 340 -131 315.5 -155.5 Q 291 -180 274 -209.5 Q 257 -239 248 -272.5 Q 239 -306 239 -340 Q 239 -374 248 -407.5 Q 257 -441 274 -470.5 Q 291 -500 315.5 -524.5 Q 340 -549 369.5 -566 Q 399 -583 432.5 -592 Q 466 -601 500 -601 Q 534 -601 567.5 -592 Q 601 -583 630.5 -566 Q 660 -549 684.5 -524.5 Q 709 -500 726 -470.5 Q 743 -441 752 -407.5 Q 761 -374 761 -340 Q 761 -306 752 -272.5 Q 743 -239 726 -209.5 Q 709 -180 684.5 -155.5 Q 660 -131 630.5 -114 Q 601 -97 567.5 -88 Q 534 -79 500 -79 Z " id="path76"/>
<path d="M 0 -340 L 0 -965 L 1000 -965 L 1000 -340 L 821 -340 Q 821 -382 810 -423 Q 799 -464 778 -500.5 Q 757 -537 727 -567 Q 697 -597 660.5 -618 Q 624 -639 583 -650 Q 542 -661 500 -661 Q 458 -661 417 -650 Q 376 -639 339.5 -618 Q 303 -597 273 -567 Q 243 -537 222 -500.5 Q 201 -464 190 -423 Q 179 -382 179 -340 Z M 239 -340 Q 239 -374 248 -407.5 Q 257 -441 274 -470.5 Q 291 -500 315.5 -524.5 Q 340 -549 369.5 -566 Q 399 -583 432.5 -592 Q 466 -601 500 -601 Q 534 -601 567.5 -592 Q 601 -583 630.5 -566 Q 660 -549 684.5 -524.5 Q 709 -500 726 -470.5 Q 743 -441 752 -407.5 Q 761 -374 761 -340 Z " id="path77"/>
<path d="M 500 -79 Q 466 -79 432.5 -88 Q 399 -97 369.5 -114 Q 340 -131 315.5 -155.5 Q 291 -180 274 -209.5 Q 257 -239 248 -272.5 Q 239 -306 239 -340 L 761 -340 Q 761 -306 752 -272.5 Q 743 -239 726 -209.5 Q 709 -180 684.5 -155.5 Q 660 -131 630.5 -114 Q 601 -97 567.5 -88 Q 534 -79 500 -79 Z M 0 285 L 0 -340 L 179 -340 Q 179 -298 190 -257 Q 201 -216 222 -179.5 Q 243 -143 273 -113 Q 303 -83 339.5 -62 Q 376 -41 417 -30 Q 458 -19 500 -19 Q 542 -19 583 -30 Q 624 -41 660.5 -62 Q 697 -83 727 -113 Q 757 -143 778 -179.5 Q 799 -216 810 -257 Q 821 -298 821 -340 L 1000 -340 L 1000 285 Z " id="path78"/>
<path d="M 179 -340 Q 179 -382 190 -423 Q 201 -464 222 -500.5 Q 243 -537 273 -567 Q 303 -597 339.5 -618 Q 376 -639 417 -650 Q 458 -661 500 -661 L 500 -601 Q 466 -601 432.5 -592 Q 399 -583 369.5 -566 Q 340 -549 315.5 -524.5 Q 291 -500 274 -470.5 Q 257 -441 248 -407.5 Q 239 -374 239 -340 Z " id="path79"/>
<path d="M 761 -340 Q 761 -374 752 -407.5 Q 743 -441 726 -470.5 Q 709 -500 684.5 -524.5 Q 660 -549 630.5 -566 Q 601 -583 567.5 -592 Q 534 -601 500 -601 L 500 -661 Q 542 -661 583 -650 Q 624 -639 660.5 -618 Q 697 -597 727 -567 Q 757 -537 778 -500.5 Q 799 -464 810 -423 Q 821 -382 821 -340 Z " id="path80"/>
<path d="M 500 -19 L 500 -79 Q 534 -79 567.5 -88 Q 601 -97 630.5 -114 Q 660 -131 684.5 -155.5 Q 709 -180 726 -209.5 Q 743 -239 752 -272.5 Q 761 -306 761 -340 L 821 -340 Q 821 -298 810 -257 Q 799 -216 778 -179.5 Q 757 -143 727 -113 Q 697 -83 660.5 -62 Q 624 -41 583 -30 Q 542 -19 500 -19 Z " id="path81"/>
<path d="M 500 -19 Q 458 -19 417 -30 Q 376 -41 339.5 -62 Q 303 -83 273 -113 Q 243 -143 222 -179.5 Q 201 -216 190 -257 Q 179 -298 179 -340 L 239 -340 Q 239 -306 248 -272.5 Q 257 -239 274 -209.5 Q 291 -180 315.5 -155.5 Q 340 -131 369.5 -114 Q 399 -97 432.5 -88 Q 466 -79 500 -79 Z " id="path82"/>
<path d="M 179 -340 Q 179 -382 190 -423 Q 201 -464 222 -500.5 Q 243 -537 273 -567 Q 303 -597 339.5 -618 Q 376 -639 417 -650 Q 458 -661 500 -661 Q 542 -661 583 -650 Q 624 -639 660.5 -618 Q 697 -597 727 -567 Q 757 -537 778 -500.5 Q 799 -464 810 -423 Q 821 -382 821 -340 L 761 -340 Q 761 -374 752 -407.5 Q 743 -441 726 -470.5 Q 709 -500 684.5 -524.5 Q 660 -549 630.5 -566 Q 601 -583 567.5 -592 Q 534 -601 500 -601 Q 466 -601 432.5 -592 Q 399 -583 369.5 -566 Q 340 -549 315.5 -524.5 Q 291 -500 274 -470.5 Q 257 -441 248 -407.5 Q 239 -374 239 -340 Z " id="path83"/>
<path d="M 500 -19 Q 458 -19 417 -30 Q 376 -41 339.5 -62 Q 303 -83 273 -113 Q 243 -143 222 -179.5 Q 201 -216 190 -257 Q 179 -298 179 -340 L 239 -340 Q 239 -306 248 -272.5 Q 257 -239 274 -209.5 Q 291 -180 315.5 -155.5 Q 340 -131 369.5 -114 Q 399 -97 432.5 -88 Q 466 -79 500 -79 Q 534 -79 567.5 -88 Q 601 -97 630.5 -114 Q 660 -131 684.5 -155.5 Q 709 -180 726 -209.5 Q 743 -239 752 -272.5 Q 761 -306 761 -340 L 821 -340 Q 821 -298 810 -257 Q 799 -216 778 -179.5 Q 757 -143 727 -113 Q 697 -83 660.5 -62 Q 624 -41 583 -30 Q 542 -19 500 -19 Z " id="path84"/>
<path d="M 821 -19 L 179 -19 L 821 -661 Z " id="path85"/>
<path d="M 821 -19 L 179 -19 L 179 -661 Z " id="path86"/>
<path d="M 179 -19 L 179 -661 L 821 -661 Z " id="path87"/>
<path d="M 821 -19 L 179 -661 L 821 -661 Z " id="path88"/>
<path d="M 250 -189 Q 220 -189 190 -198 Q 160 -207 138.5 -228.5 Q 117 -250 108 -280 Q 99 -310 99 -340 Q 99 -370 108 -400 Q 117 -430 138.5 -451.5 Q 160 -473 190 -482 Q 220 -491 250 -491 Q 280 -491 310 -482 Q 340 -473 361.5 -451.5 Q 383 -430 392 -400 Q 401 -370 401 -340 Q 401 -310 392 -280 Q 383 -250 361.5 -228.5 Q 340 -207 310 -198 Q 280 -189 250 -189 Z M 250 -238 Q 271 -238 291 -244 Q 311 -250 325.5 -264.5 Q 340 -279 346 -299 Q 352 -319 352 -340 Q 352 -361 346 -381 Q 340 -401 325.5 -415.5 Q 311 -430 291 -436 Q 271 -442 250 -442 Q 229 -442 209 -436 Q 189 -430 174.5 -415.5 Q 160 -401 154 -381 Q 148 -361 148 -340 Q 148 -319 154 -299 Q 160 -279 174.5 -264.5 Q 189 -250 209 -244 Q 229 -238 250 -238 Z " id="path89"/>
<path d="M 179 -19 L 179 -661 L 821 -661 L 821 -19 Z M 500 -79 L 761 -79 L 761 -601 L 500 -601 Z " id="path90"/>
<path d="M 179 -19 L 179 -661 L 821 -661 L 821 -19 Z M 239 -79 L 500 -79 L 500 -601 L 239 -601 Z " id="path91"/>
<path d="M 179 -19 L 179 -661 L 821 -661 L 821 -19 Z M 239 -79 L 761 -79 L 761 -601 Z " id="path92"/>
<path d="M 179 -19 L 179 -661 L 821 -661 L 821 -19 Z M 239 -79 L 761 -601 L 239 -601 Z " id="path93"/>
<path d="M 179 -19 L 179 -661 L 821 -661 L 821 -19 Z M 534 -79 L 761 -79 L 761 -601 L 534 -601 Z M 239 -79 L 466 -79 L 466 -601 L 239 -601 Z " id="path94"/>
<path d="M 110 -19 L 500 -661 L 890 -19 Z M 218 -79 L 782 -79 L 500 -544 Z M 500 -163 Q 486 -163 473 -168.5 Q 460 -174 450.5 -183.5 Q 441 -193 435.5 -206 Q 430 -219 430 -233 Q 430 -247 435.5 -260 Q 441 -273 450.5 -282.5 Q 460 -292 473 -297.5 Q 486 -303 500 -303 Q 514 -303 527 -297.5 Q 540 -292 549.5 -282.5 Q 559 -273 564.5 -260 Q 570 -247 570 -233 Q 570 -219 564.5 -206 Q 559 -193 549.5 -183.5 Q 540 -174 527 -168.5 Q 514 -163 500 -163 Z " id="path95"/>
<path d="M 110 -19 L 500 -661 L 890 -19 Z M 500 -79 L 782 -79 L 500 -544 Z " id="path96"/>
<path d="M 110 -19 L 500 -661 L 890 -19 Z M 218 -79 L 500 -79 L 500 -544 Z " id="path97"/>
<path d="M 500 62 Q 447 62 396 48 Q 345 34 299.5 7.5 Q 254 -19 216.5 -56.5 Q 179 -94 152.5 -139.5 Q 126 -185 112 -236 Q 98 -287 98 -340 Q 98 -393 112 -444 Q 126 -495 152.5 -540.5 Q 179 -586 216.5 -623.5 Q 254 -661 299.5 -687.5 Q 345 -714 396 -728 Q 447 -742 500 -742 Q 553 -742 604 -728 Q 655 -714 700.5 -687.5 Q 746 -661 783.5 -623.5 Q 821 -586 847.5 -540.5 Q 874 -495 888 -444 Q 902 -393 902 -340 Q 902 -287 888 -236 Q 874 -185 847.5 -139.5 Q 821 -94 783.5 -56.5 Q 746 -19 700.5 7.5 Q 655 34 604 48 Q 553 62 500 62 Z M 500 1 Q 545 1 588.5 -10.5 Q 632 -22 670.5 -44.5 Q 709 -67 741 -99 Q 773 -131 795.5 -169.5 Q 818 -208 829.5 -251.5 Q 841 -295 841 -340 Q 841 -385 829.5 -428.5 Q 818 -472 795.5 -510.5 Q 773 -549 741 -581 Q 709 -613 670.5 -635.5 Q 632 -658 588.5 -669.5 Q 545 -681 500 -681 Q 455 -681 411.5 -669.5 Q 368 -658 329.5 -635.5 Q 291 -613 259 -581 Q 227 -549 204.5 -510.5 Q 182 -472 170.5 -428.5 Q 159 -385 159 -340 Q 159 -295 170.5 -251.5 Q 182 -208 204.5 -169.5 Q 227 -131 259 -99 Q 291 -67 329.5 -44.5 Q 368 -22 411.5 -10.5 Q 455 1 500 1 Z " id="path98"/>
<path d="M 179 -19 L 179 -661 L 821 -661 L 821 -19 Z M 239 -370 L 466 -370 L 466 -601 L 239 -601 Z M 239 -79 L 761 -79 L 761 -601 L 534 -601 L 534 -310 L 239 -310 Z " id="path99"/>
<path d="M 179 -19 L 179 -661 L 821 -661 L 821 -19 Z M 534 -79 L 761 -79 L 761 -601 L 239 -601 L 239 -370 L 534 -370 Z M 239 -79 L 466 -79 L 466 -310 L 239 -310 Z " id="path100"/>
<path d="M 179 -19 L 179 -661 L 821 -661 L 821 -19 Z M 239 -79 L 466 -79 L 466 -370 L 761 -370 L 761 -601 L 239 -601 Z M 761 -79 L 761 -310 L 534 -310 L 534 -79 Z " id="path101"/>
<path d="M 179 -19 L 179 -661 L 821 -661 L 821 -19 Z M 239 -79 L 761 -79 L 761 -310 L 466 -310 L 466 -601 L 239 -601 Z M 534 -370 L 761 -370 L 761 -601 L 534 -601 Z " id="path102"/>
<path d="M 500 -19 Q 458 -19 417 -30 Q 376 -41 339.5 -62 Q 303 -83 273 -113 Q 243 -143 222 -179.5 Q 201 -216 190 -257 Q 179 -298 179 -340 Q 179 -382 190 -423 Q 201 -464 222 -500.5 Q 243 -537 273 -567 Q 303 -597 339.5 -618 Q 376 -639 417 -650 Q 458 -661 500 -661 Q 542 -661 583 -650 Q 624 -639 660.5 -618 Q 697 -597 727 -567 Q 757 -537 778 -500.5 Q 799 -464 810 -423 Q 821 -382 821 -340 Q 821 -298 810 -257 Q 799 -216 778 -179.5 Q 757 -143 727 -113 Q 697 -83 660.5 -62 Q 624 -41 583 -30 Q 542 -19 500 -19 Z M 241 -370 L 466 -370 L 466 -598 Q 424 -593 384.5 -573.5 Q 345 -554 314.5 -523 Q 284 -492 265 -452.5 Q 246 -413 241 -370 Z M 500 -79 Q 534 -79 567.5 -88 Q 601 -97 630.5 -114 Q 660 -131 684.5 -155.5 Q 709 -180 726 -209.5 Q 743 -239 752 -272.5 Q 761 -306 761 -340 Q 761 -387 744 -432 Q 727 -477 696 -512 Q 665 -547 622.5 -569.5 Q 580 -592 534 -598 L 534 -310 L 241 -310 Q 245 -278 256 -248.5 Q 267 -219 285 -193 Q 303 -167 327 -145.5 Q 351 -124 379 -109.5 Q 407 -95 437.5 -87 Q 468 -79 500 -79 Z " id="path103"/>
<path d="M 500 -19 Q 458 -19 417 -30 Q 376 -41 339.5 -62 Q 303 -83 273 -113 Q 243 -143 222 -179.5 Q 201 -216 190 -257 Q 179 -298 179 -340 Q 179 -382 190 -423 Q 201 -464 222 -500.5 Q 243 -537 273 -567 Q 303 -597 339.5 -618 Q 376 -639 417 -650 Q 458 -661 500 -661 Q 542 -661 583 -650 Q 624 -639 660.5 -618 Q 697 -597 727 -567 Q 757 -537 778 -500.5 Q 799 -464 810 -423 Q 821 -382 821 -340 Q 821 -298 810 -257 Q 799 -216 778 -179.5 Q 757 -143 727 -113 Q 697 -83 660.5 -62 Q 624 -41 583 -30 Q 542 -19 500 -19 Z M 534 -82 Q 580 -88 622.5 -110.5 Q 665 -133 696 -168 Q 727 -203 744 -248 Q 761 -293 761 -340 Q 761 -374 752 -407.5 Q 743 -441 726 -470.5 Q 709 -500 684.5 -524.5 Q 660 -549 630.5 -566 Q 601 -583 567.5 -592 Q 534 -601 500 -601 Q 468 -601 437.5 -593 Q 407 -585 379 -570.5 Q 351 -556 327 -534.5 Q 303 -513 285 -487 Q 267 -461 256 -431.5 Q 245 -402 241 -370 L 534 -370 Z M 466 -82 L 466 -310 L 241 -310 Q 246 -267 265 -227.5 Q 284 -188 314.5 -157 Q 345 -126 384.5 -106.5 Q 424 -87 466 -82 Z " id="path104"/>
<path d="M 500 -19 Q 458 -19 417 -30 Q 376 -41 339.5 -62 Q 303 -83 273 -113 Q 243 -143 222 -179.5 Q 201 -216 190 -257 Q 179 -298 179 -340 Q 179 -382 190 -423 Q 201 -464 222 -500.5 Q 243 -537 273 -567 Q 303 -597 339.5 -618 Q 376 -639 417 -650 Q 458 -661 500 -661 Q 542 -661 583 -650 Q 624 -639 660.5 -618 Q 697 -597 727 -567 Q 757 -537 778 -500.5 Q 799 -464 810 -423 Q 821 -382 821 -340 Q 821 -298 810 -257 Q 799 -216 778 -179.5 Q 757 -143 727 -113 Q 697 -83 660.5 -62 Q 624 -41 583 -30 Q 542 -19 500 -19 Z M 466 -82 L 466 -370 L 759 -370 Q 755 -402 744 -431.5 Q 733 -461 715 -487 Q 697 -513 673 -534.5 Q 649 -556 621 -570.5 Q 593 -585 562.5 -593 Q 532 -601 500 -601 Q 466 -601 432.5 -592 Q 399 -583 369.5 -566 Q 340 -549 315.5 -524.5 Q 291 -500 274 -470.5 Q 257 -441 248 -407.5 Q 239 -374 239 -340 Q 239 -293 256 -248 Q 273 -203 304 -168 Q 335 -133 377.5 -110.5 Q 420 -88 466 -82 Z M 534 -82 Q 576 -87 615.5 -106.5 Q 655 -126 685.5 -157 Q 716 -188 735 -227.5 Q 754 -267 759 -310 L 534 -310 Z " id="path105"/>
<path d="M 500 -19 Q 458 -19 417 -30 Q 376 -41 339.5 -62 Q 303 -83 273 -113 Q 243 -143 222 -179.5 Q 201 -216 190 -257 Q 179 -298 179 -340 Q 179 -382 190 -423 Q 201 -464 222 -500.5 Q 243 -537 273 -567 Q 303 -597 339.5 -618 Q 376 -639 417 -650 Q 458 -661 500 -661 Q 542 -661 583 -650 Q 624 -639 660.5 -618 Q 697 -597 727 -567 Q 757 -537 778 -500.5 Q 799 -464 810 -423 Q 821 -382 821 -340 Q 821 -298 810 -257 Q 799 -216 778 -179.5 Q 757 -143 727 -113 Q 697 -83 660.5 -62 Q 624 -41 583 -30 Q 542 -19 500 -19 Z M 500 -79 Q 532 -79 562.5 -87 Q 593 -95 621 -109.5 Q 649 -124 673 -145.5 Q 697 -167 715 -193 Q 733 -219 744 -248.5 Q 755 -278 759 -310 L 466 -310 L 466 -598 Q 420 -592 377.5 -569.5 Q 335 -547 304 -512 Q 273 -477 256 -432 Q 239 -387 239 -340 Q 239 -306 248 -272.5 Q 257 -239 274 -209.5 Q 291 -180 315.5 -155.5 Q 340 -131 369.5 -114 Q 399 -97 432.5 -88 Q 466 -79 500 -79 Z M 759 -370 Q 754 -413 735 -452.5 Q 716 -492 685.5 -523 Q 655 -554 615.5 -573.5 Q 576 -593 534 -598 L 534 -370 Z " id="path106"/>
<path d="M 179 -19 L 179 -661 L 821 -661 Z M 239 -165 L 675 -601 L 239 -601 Z " id="path107"/>
<path d="M 821 -19 L 179 -661 L 821 -661 Z M 761 -165 L 761 -601 L 325 -601 Z " id="path108"/>
<path d="M 179 -19 L 179 -661 L 821 -19 Z M 675 -79 L 239 -515 L 239 -79 Z " id="path109"/>
<path d="M 248 -88 L 248 -592 L 752 -592 L 752 -88 Z M 692 -148 L 692 -532 L 308 -532 L 308 -148 Z " id="path110"/>
<path d="M 248 -88 L 248 -592 L 752 -592 L 752 -88 Z " id="path111"/>
<path d="M 282 -122 L 282 -558 L 718 -558 L 718 -122 Z M 343 -183 L 657 -183 L 657 -497 L 343 -497 Z " id="path112"/>
<path d="M 282 -122 L 282 -558 L 718 -558 L 718 -122 Z " id="path113"/>
<path d="M 179 -19 L 821 -661 L 821 -19 Z M 325 -79 L 761 -79 L 761 -515 Z " id="path114"/>
</defs>
<g>
<g data-source-text="0" fill="#dee4e3" transform="translate(174 41.292) rotate(0) scale(0.023999998)">
<use href="#path1" transform="translate(0 0)"/>
</g>
</g>
<g>
<g data-source-text="1" fill="#dee4e3" transform="translate(246 41.292) rotate(0) scale(0.023999998)">
<use href="#path2" transform="translate(0 0)"/>
</g>
</g>
<g>
<g data-source-text="2" fill="#dee4e3" transform="translate(318 41.292) rotate(0) scale(0.023999998)">
<use href="#path3" transform="translate(0 0)"/>
</g>
</g>
<g>
<g data-source-text="3" fill="#dee4e3" transform="translate(390 41.292) rotate(0) scale(0.023999998)">
<use href="#path4" transform="translate(0 0)"/>
</g>
</g>
<g>
<g data-source-text="4" fill="#dee4e3" transform="translate(462 41.292) rotate(0) scale(0.023999998)">
<use href="#path5" transform="translate(0 0)"/>
</g>
</g>
<g>
<g data-source-text="5" fill="#dee4e3" transform="translate(534 41.292) rotate(0) scale(0.023999998)">
<use href="#path6" transform="translate(0 0)"/>
</g>
</g>
<g>
<g data-source-text="6" fill="#dee4e3" transform="translate(606 41.292) rotate(0) scale(0.023999998)">
<use href="#path7" transform="translate(0 0)"/>
</g>
</g>
<g>
<g data-source-text="7" fill="#dee4e3" transform="translate(678 41.292) rotate(0) scale(0.023999998)">
<use href="#path8" transform="translate(0 0)"/>
</g>
</g>
<g>
<g data-source-text="8" fill="#dee4e3" transform="translate(750 41.292) rotate(0) scale(0.023999998)">
<use href="#path9" transform="translate(0 0)"/>
</g>
</g>
<g>
<g data-source-text="9" fill="#dee4e3" transform="translate(822 41.292) rotate(0) scale(0.023999998)">
<use href="#path10" transform="translate(0 0)"/>
</g>
</g>
<g>
<g data-source-text="A" fill="#dee4e3" transform="translate(894 41.292) rotate(0) scale(0.023999998)">
<use href="#path11" transform="translate(0 0)"/>
</g>
</g>
<g>
<g data-source-text="B" fill="#dee4e3" transform="translate(966 41.292) rotate(0) scale(0.023999998)">
<use href="#path12" transform="translate(0 0)"/>
</g>
</g>
<g>
<g data-source-text="C" fill="#dee4e3" transform="translate(1038 41.292) rotate(0) scale(0.023999998)">
<use href="#path13" transform="translate(0 0)"/>
</g>
</g>
<g>
<g data-source-text="D" fill="#dee4e3" transform="translate(1110 41.292) rotate(0) scale(0.023999998)">
<use href="#path14" transform="translate(0 0)"/>
</g>
</g>
<g>
<g data-source-text="E" fill="#dee4e3" transform="translate(1182 41.292) rotate(0) scale(0.023999998)">
<use href="#path15" transform="translate(0 0)"/>
</g>
</g>
<g>
<g data-source-text="F" fill="#dee4e3" transform="translate(1254 41.292) rotate(0) scale(0.023999998)">
<use href="#path16" transform="translate(0 0)"/>
</g>
</g>
<g>
<g data-source-text="U+25A0" fill="#dee4e3" transform="translate(36 113.292) rotate(0) scale(0.023999998)">
<use href="#path17" transform="translate(0 0)"/>
<use href="#path18" transform="translate(500 0)"/>
<use href="#path3" transform="translate(1000 0)"/>
<use href="#path6" transform="translate(1500 0)"/>
<use href="#path11" transform="translate(2000 0)"/>
<use href="#path1" transform="translate(2500 0)"/>
</g>
</g>
<g>
<g data-source-text="" fill="#dee4e3" transform="translate(156 118.584) rotate(0) scale(0.047999997)">
<use href="#path19" transform="translate(0 0)"/>
</g>
</g>
<g>
<g data-source-text="" fill="#dee4e3" transform="translate(228 118.584) rotate(0) scale(0.047999997)">
<use href="#path20" transform="translate(0 0)"/>
</g>
</g>
<g>
<g data-source-text="" fill="#dee4e3" transform="translate(300 118.584) rotate(0) scale(0.047999997)">
<use href="#path21" transform="translate(0 0)"/>
</g>
</g>
<g>
<g data-source-text="" fill="#dee4e3" transform="translate(372 118.584) rotate(0) scale(0.047999997)">
<use href="#path22" transform="translate(0 0)"/>
</g>
</g>
<g>
<g data-source-text="" fill="#dee4e3" transform="translate(444 118.584) rotate(0) scale(0.047999997)">
<use href="#path23" transform="translate(0 0)"/>
</g>
</g>
<g>
<g data-source-text="" fill="#dee4e3" transform="translate(516 118.584) rotate(0) scale(0.047999997)">
<use href="#path24" transform="translate(0 0)"/>
</g>
</g>
<g>
<g data-source-text="" fill="#dee4e3" transform="translate(588 118.584) rotate(0) scale(0.047999997)">
<use href="#path25" transform="translate(0 0)"/>
</g>
</g>
<g>
<g data-source-text="" fill="#dee4e3" transform="translate(660 118.584) rotate(0) scale(0.047999997)">
<use href="#path26" transform="translate(0 0)"/>
</g>
</g>
<g>
<g data-source-text="" fill="#dee4e3" transform="translate(732 118.584) rotate(0) scale(0.047999997)">
<use href="#path27" transform="translate(0 0)"/>
</g>
</g>
<g>
<g data-source-text="" fill="#dee4e3" transform="translate(804 118.584) rotate(0) scale(0.047999997)">
<use href="#path28" transform="translate(0 0)"/>
</g>
</g>
<g>
<g data-source-text="" fill="#dee4e3" transform="translate(876 118.584) rotate(0) scale(0.047999997)">
<use href="#path29" transform="translate(0 0)"/>
</g>
</g>
<g>
<g data-source-text="" fill="#dee4e3" transform="translate(948 118.584) rotate(0) scale(0.047999997)">
<use href="#path30" transform="translate(0 0)"/>
</g>
</g>
<g>
<g data-source-text="" fill="#dee4e3" transform="translate(1020 118.584) rotate(0) scale(0.047999997)">
<use href="#path31" transform="translate(0 0)"/>
</g>
</g>
<g>
<g data-source-text="" fill="#dee4e3" transform="translate(1092 118.584) rotate(0) scale(0.047999997)">
<use href="#path32" transform="translate(0 0)"/>
</g>
</g>
<g>
<g data-source-text="" fill="#dee4e3" transform="translate(1164 118.584) rotate(0) scale(0.047999997)">
<use href="#path33" transform="translate(0 0)"/>
</g>
</g>
<g>
<g data-source-text="" fill="#dee4e3" transform="translate(1236 118.584) rotate(0) scale(0.047999997)">
<use href="#path34" transform="translate(0 0)"/>
</g>
</g>
<g>
<g data-source-text="U+25B0" fill="#dee4e3" transform="translate(36 185.292) rotate(0) scale(0.023999998)">
<use href="#path17" transform="translate(0 0)"/>
<use href="#path18" transform="translate(500 0)"/>
<use href="#path3" transform="translate(1000 0)"/>
<use href="#path6" transform="translate(1500 0)"/>
<use href="#path12" transform="translate(2000 0)"/>
<use href="#path1" transform="translate(2500 0)"/>
</g>
</g>
<g>
<g data-source-text="" fill="#dee4e3" transform="translate(156 190.584) rotate(0) scale(0.047999997)">
<use href="#path35" transform="translate(0 0)"/>
</g>
</g>
<g>
<g data-source-text="" fill="#dee4e3" transform="translate(228 190.584) rotate(0) scale(0.047999997)">
<use href="#path36" transform="translate(0 0)"/>
</g>
</g>
<g>
<g data-source-text="" fill="#dee4e3" transform="translate(300 190.584) rotate(0) scale(0.047999997)">
<use href="#path37" transform="translate(0 0)"/>
</g>
</g>
<g>
<g data-source-text="" fill="#dee4e3" transform="translate(372 190.584) rotate(0) scale(0.047999997)">
<use href="#path38" transform="translate(0 0)"/>
</g>
</g>
<g>
<g data-source-text="" fill="#dee4e3" transform="translate(444 190.584) rotate(0) scale(0.047999997)">
<use href="#path39" transform="translate(0 0)"/>
</g>
</g>
<g>
<g data-source-text="" fill="#dee4e3" transform="translate(516 190.584) rotate(0) scale(0.047999997)">
<use href="#path40" transform="translate(0 0)"/>
</g>
</g>
<g>
<g data-source-text="" fill="#dee4e3" transform="translate(588 190.584) rotate(0) scale(0.047999997)">
<use href="#path41" transform="translate(0 0)"/>
</g>
</g>
<g>
<g data-source-text="" fill="#dee4e3" transform="translate(660 190.584) rotate(0) scale(0.047999997)">
<use href="#path42" transform="translate(0 0)"/>
</g>
</g>
<g>
<g data-source-text="" fill="#dee4e3" transform="translate(732 190.584) rotate(0) scale(0.047999997)">
<use href="#path43" transform="translate(0 0)"/>
</g>
</g>
<g>
<g data-source-text="" fill="#dee4e3" transform="translate(804 190.584) rotate(0) scale(0.047999997)">
<use href="#path44" transform="translate(0 0)"/>
</g>
</g>
<g>
<g data-source-text="" fill="#dee4e3" transform="translate(876 190.584) rotate(0) scale(0.047999997)">
<use href="#path45" transform="translate(0 0)"/>
</g>
</g>
<g>
<g data-source-text="" fill="#dee4e3" transform="translate(948 190.584) rotate(0) scale(0.047999997)">
<use href="#path46" transform="translate(0 0)"/>
</g>
</g>
<g>
<g data-source-text="" fill="#dee4e3" transform="translate(1020 190.584) rotate(0) scale(0.047999997)">
<use href="#path47" transform="translate(0 0)"/>
</g>
</g>
<g>
<g data-source-text="" fill="#dee4e3" transform="translate(1092 190.584) rotate(0) scale(0.047999997)">
<use href="#path48" transform="translate(0 0)"/>
</g>
</g>
<g>
<g data-source-text="" fill="#dee4e3" transform="translate(1164 190.584) rotate(0) scale(0.047999997)">
<use href="#path49" transform="translate(0 0)"/>
</g>
</g>
<g>
<g data-source-text="" fill="#dee4e3" transform="translate(1236 190.584) rotate(0) scale(0.047999997)">
<use href="#path50" transform="translate(0 0)"/>
</g>
</g>
<g>
<g data-source-text="U+25C0" fill="#dee4e3" transform="translate(36 257.292) rotate(0) scale(0.023999998)">
<use href="#path17" transform="translate(0 0)"/>
<use href="#path18" transform="translate(500 0)"/>
<use href="#path3" transform="translate(1000 0)"/>
<use href="#path6" transform="translate(1500 0)"/>
<use href="#path13" transform="translate(2000 0)"/>
<use href="#path1" transform="translate(2500 0)"/>
</g>
</g>
<g>
<g data-source-text="" fill="#dee4e3" transform="translate(156 262.584) rotate(0) scale(0.047999997)">
<use href="#path51" transform="translate(0 0)"/>
</g>
</g>
<g>
<g data-source-text="" fill="#dee4e3" transform="translate(228 262.584) rotate(0) scale(0.047999997)">
<use href="#path52" transform="translate(0 0)"/>
</g>
</g>
<g>
<g data-source-text="" fill="#dee4e3" transform="translate(300 262.584) rotate(0) scale(0.047999997)">
<use href="#path53" transform="translate(0 0)"/>
</g>
</g>
<g>
<g data-source-text="" fill="#dee4e3" transform="translate(372 262.584) rotate(0) scale(0.047999997)">
<use href="#path54" transform="translate(0 0)"/>
</g>
</g>
<g>
<g data-source-text="" fill="#dee4e3" transform="translate(444 262.584) rotate(0) scale(0.047999997)">
<use href="#path55" transform="translate(0 0)"/>
</g>
</g>
<g>
<g data-source-text="" fill="#dee4e3" transform="translate(516 262.584) rotate(0) scale(0.047999997)">
<use href="#path56" transform="translate(0 0)"/>
</g>
</g>
<g>
<g data-source-text="" fill="#dee4e3" transform="translate(588 262.584) rotate(0) scale(0.047999997)">
<use href="#path57" transform="translate(0 0)"/>
</g>
</g>
<g>
<g data-source-text="" fill="#dee4e3" transform="translate(660 262.584) rotate(0) scale(0.047999997)">
<use href="#path58" transform="translate(0 0)"/>
</g>
</g>
<g>
<g data-source-text="" fill="#dee4e3" transform="translate(732 262.584) rotate(0) scale(0.047999997)">
<use href="#path59" transform="translate(0 0)"/>
</g>
</g>
<g>
<g data-source-text="" fill="#dee4e3" transform="translate(804 262.584) rotate(0) scale(0.047999997)">
<use href="#path60" transform="translate(0 0)"/>
</g>
</g>
<g>
<g data-source-text="" fill="#dee4e3" transform="translate(876 262.584) rotate(0) scale(0.047999997)">
<use href="#path61" transform="translate(0 0)"/>
</g>
</g>
<g>
<g data-source-text="" fill="#dee4e3" transform="translate(948 262.584) rotate(0) scale(0.047999997)">
<use href="#path62" transform="translate(0 0)"/>
</g>
</g>
<g>
<g data-source-text="" fill="#dee4e3" transform="translate(1032 262.584) rotate(0) scale(0.047999997)">
<use href="#path63" transform="translate(0 0)"/>
</g>
</g>
<g>
<g data-source-text="" fill="#dee4e3" transform="translate(1092 262.584) rotate(0) scale(0.047999997)">
<use href="#path64" transform="translate(0 0)"/>
</g>
</g>
<g>
<g data-source-text="" fill="#dee4e3" transform="translate(1164 262.584) rotate(0) scale(0.047999997)">
<use href="#path65" transform="translate(0 0)"/>
</g>
</g>
<g>
<g data-source-text="" fill="#dee4e3" transform="translate(1236 262.584) rotate(0) scale(0.047999997)">
<use href="#path66" transform="translate(0 0)"/>
</g>
</g>
<g>
<g data-source-text="U+25D0" fill="#dee4e3" transform="translate(36 329.292) rotate(0) scale(0.023999998)">
<use href="#path17" transform="translate(0 0)"/>
<use href="#path18" transform="translate(500 0)"/>
<use href="#path3" transform="translate(1000 0)"/>
<use href="#path6" transform="translate(1500 0)"/>
<use href="#path14" transform="translate(2000 0)"/>
<use href="#path1" transform="translate(2500 0)"/>
</g>
</g>
<g>
<g data-source-text="" fill="#dee4e3" transform="translate(156 334.584) rotate(0) scale(0.047999997)">
<use href="#path67" transform="translate(0 0)"/>
</g>
</g>
<g>
<g data-source-text="" fill="#dee4e3" transform="translate(228 334.584) rotate(0) scale(0.047999997)">
<use href="#path68" transform="translate(0 0)"/>
</g>
</g>
<g>
<g data-source-text="" fill="#dee4e3" transform="translate(300 334.584) rotate(0) scale(0.047999997)">
<use href="#path69" transform="translate(0 0)"/>
</g>
</g>
<g>
<g data-source-text="" fill="#dee4e3" transform="translate(372 334.584) rotate(0) scale(0.047999997)">
<use href="#path70" transform="translate(0 0)"/>
</g>
</g>
<g>
<g data-source-text="" fill="#dee4e3" transform="translate(444 334.584) rotate(0) scale(0.047999997)">
<use href="#path71" transform="translate(0 0)"/>
</g>
</g>
<g>
<g data-source-text="" fill="#dee4e3" transform="translate(516 334.584) rotate(0) scale(0.047999997)">
<use href="#path72" transform="translate(0 0)"/>
</g>
</g>
<g>
<g data-source-text="" fill="#dee4e3" transform="translate(588 334.584) rotate(0) scale(0.047999997)">
<use href="#path73" transform="translate(0 0)"/>
</g>
</g>
<g>
<g data-source-text="" fill="#dee4e3" transform="translate(660 334.584) rotate(0) scale(0.047999997)">
<use href="#path74" transform="translate(0 0)"/>
</g>
</g>
<g>
<g data-source-text="" fill="#dee4e3" transform="translate(732 334.584) rotate(0) scale(0.047999997)">
<use href="#path75" transform="translate(0 0)"/>
</g>
</g>
<g>
<g data-source-text="" fill="#dee4e3" transform="translate(804 334.584) rotate(0) scale(0.047999997)">
<use href="#path76" transform="translate(0 0)"/>
</g>
</g>
<g>
<g data-source-text="" fill="#dee4e3" transform="translate(876 334.584) rotate(0) scale(0.047999997)">
<use href="#path77" transform="translate(0 0)"/>
</g>
</g>
<g>
<g data-source-text="" fill="#dee4e3" transform="translate(948 334.584) rotate(0) scale(0.047999997)">
<use href="#path78" transform="translate(0 0)"/>
</g>
</g>
<g>
<g data-source-text="" fill="#dee4e3" transform="translate(1020 334.584) rotate(0) scale(0.047999997)">
<use href="#path79" transform="translate(0 0)"/>
</g>
</g>
<g>
<g data-source-text="" fill="#dee4e3" transform="translate(1092 334.584) rotate(0) scale(0.047999997)">
<use href="#path80" transform="translate(0 0)"/>
</g>
</g>
<g>
<g data-source-text="" fill="#dee4e3" transform="translate(1164 334.584) rotate(0) scale(0.047999997)">
<use href="#path81" transform="translate(0 0)"/>
</g>
</g>
<g>
<g data-source-text="" fill="#dee4e3" transform="translate(1236 334.584) rotate(0) scale(0.047999997)">
<use href="#path82" transform="translate(0 0)"/>
</g>
</g>
<g>
<g data-source-text="U+25E0" fill="#dee4e3" transform="translate(36 401.292) rotate(0) scale(0.023999998)">
<use href="#path17" transform="translate(0 0)"/>
<use href="#path18" transform="translate(500 0)"/>
<use href="#path3" transform="translate(1000 0)"/>
<use href="#path6" transform="translate(1500 0)"/>
<use href="#path15" transform="translate(2000 0)"/>
<use href="#path1" transform="translate(2500 0)"/>
</g>
</g>
<g>
<g data-source-text="" fill="#dee4e3" transform="translate(156 406.584) rotate(0) scale(0.047999997)">
<use href="#path83" transform="translate(0 0)"/>
</g>
</g>
<g>
<g data-source-text="" fill="#dee4e3" transform="translate(228 406.584) rotate(0) scale(0.047999997)">
<use href="#path84" transform="translate(0 0)"/>
</g>
</g>
<g>
<g data-source-text="" fill="#dee4e3" transform="translate(300 406.584) rotate(0) scale(0.047999997)">
<use href="#path85" transform="translate(0 0)"/>
</g>
</g>
<g>
<g data-source-text="" fill="#dee4e3" transform="translate(372 406.584) rotate(0) scale(0.047999997)">
<use href="#path86" transform="translate(0 0)"/>
</g>
</g>
<g>
<g data-source-text="" fill="#dee4e3" transform="translate(444 406.584) rotate(0) scale(0.047999997)">
<use href="#path87" transform="translate(0 0)"/>
</g>
</g>
<g>
<g data-source-text="" fill="#dee4e3" transform="translate(516 406.584) rotate(0) scale(0.047999997)">
<use href="#path88" transform="translate(0 0)"/>
</g>
</g>
<g>
<g data-source-text="" fill="#dee4e3" transform="translate(600 406.584) rotate(0) scale(0.047999997)">
<use href="#path89" transform="translate(0 0)"/>
</g>
</g>
<g>
<g data-source-text="" fill="#dee4e3" transform="translate(660 406.584) rotate(0) scale(0.047999997)">
<use href="#path90" transform="translate(0 0)"/>
</g>
</g>
<g>
<g data-source-text="" fill="#dee4e3" transform="translate(732 406.584) rotate(0) scale(0.047999997)">
<use href="#path91" transform="translate(0 0)"/>
</g>
</g>
<g>
<g data-source-text="" fill="#dee4e3" transform="translate(804 406.584) rotate(0) scale(0.047999997)">
<use href="#path92" transform="translate(0 0)"/>
</g>
</g>
<g>
<g data-source-text="" fill="#dee4e3" transform="translate(876 406.584) rotate(0) scale(0.047999997)">
<use href="#path93" transform="translate(0 0)"/>
</g>
</g>
<g>
<g data-source-text="" fill="#dee4e3" transform="translate(948 406.584) rotate(0) scale(0.047999997)">
<use href="#path94" transform="translate(0 0)"/>
</g>
</g>
<g>
<g data-source-text="" fill="#dee4e3" transform="translate(1020 406.584) rotate(0) scale(0.047999997)">
<use href="#path95" transform="translate(0 0)"/>
</g>
</g>
<g>
<g data-source-text="" fill="#dee4e3" transform="translate(1092 406.584) rotate(0) scale(0.047999997)">
<use href="#path96" transform="translate(0 0)"/>
</g>
</g>
<g>
<g data-source-text="" fill="#dee4e3" transform="translate(1164 406.584) rotate(0) scale(0.047999997)">
<use href="#path97" transform="translate(0 0)"/>
</g>
</g>
<g>
<g data-source-text="" fill="#dee4e3" transform="translate(1236 406.584) rotate(0) scale(0.047999997)">
<use href="#path98" transform="translate(0 0)"/>
</g>
</g>
<g>
<g data-source-text="U+25F0" fill="#dee4e3" transform="translate(36 473.292) rotate(0) scale(0.023999998)">
<use href="#path17" transform="translate(0 0)"/>
<use href="#path18" transform="translate(500 0)"/>
<use href="#path3" transform="translate(1000 0)"/>
<use href="#path6" transform="translate(1500 0)"/>
<use href="#path16" transform="translate(2000 0)"/>
<use href="#path1" transform="translate(2500 0)"/>
</g>
</g>
<g>
<g data-source-text="" fill="#dee4e3" transform="translate(156 478.584) rotate(0) scale(0.047999997)">
<use href="#path99" transform="translate(0 0)"/>
</g>
</g>
<g>
<g data-source-text="" fill="#dee4e3" transform="translate(228 478.584) rotate(0) scale(0.047999997)">
<use href="#path100" transform="translate(0 0)"/>
</g>
</g>
<g>
<g data-source-text="" fill="#dee4e3" transform="translate(300 478.584) rotate(0) scale(0.047999997)">
<use href="#path101" transform="translate(0 0)"/>
</g>
</g>
<g>
<g data-source-text="" fill="#dee4e3" transform="translate(372 478.584) rotate(0) scale(0.047999997)">
<use href="#path102" transform="translate(0 0)"/>
</g>
</g>
<g>
<g data-source-text="" fill="#dee4e3" transform="translate(444 478.584) rotate(0) scale(0.047999997)">
<use href="#path103" transform="translate(0 0)"/>
</g>
</g>
<g>
<g data-source-text="" fill="#dee4e3" transform="translate(516 478.584) rotate(0) scale(0.047999997)">
<use href="#path104" transform="translate(0 0)"/>
</g>
</g>
<g>
<g data-source-text="" fill="#dee4e3" transform="translate(588 478.584) rotate(0) scale(0.047999997)">
<use href="#path105" transform="translate(0 0)"/>
</g>
</g>
<g>
<g data-source-text="" fill="#dee4e3" transform="translate(660 478.584) rotate(0) scale(0.047999997)">
<use href="#path106" transform="translate(0 0)"/>
</g>
</g>
<g>
<g data-source-text="" fill="#dee4e3" transform="translate(732 478.584) rotate(0) scale(0.047999997)">
<use href="#path107" transform="translate(0 0)"/>
</g>
</g>
<g>
<g data-source-text="" fill="#dee4e3" transform="translate(804 478.584) rotate(0) scale(0.047999997)">
<use href="#path108" transform="translate(0 0)"/>
</g>
</g>
<g>
<g data-source-text="" fill="#dee4e3" transform="translate(876 478.584) rotate(0) scale(0.047999997)">
<use href="#path109" transform="translate(0 0)"/>
</g>
</g>
<g>
<g data-source-text="" fill="#dee4e3" transform="translate(948 478.584) rotate(0) scale(0.047999997)">
<use href="#path110" transform="translate(0 0)"/>
</g>
</g>
<g>
<g data-source-text="" fill="#dee4e3" transform="translate(1020 478.584) rotate(0) scale(0.047999997)">
<use href="#path111" transform="translate(0 0)"/>
</g>
</g>
<g>
<g data-source-text="" fill="#dee4e3" transform="translate(1092 478.584) rotate(0) scale(0.047999997)">
<use href="#path112" transform="translate(0 0)"/>
</g>
</g>
<g>
<g data-source-text="" fill="#dee4e3" transform="translate(1164 478.584) rotate(0) scale(0.047999997)">
<use href="#path113" transform="translate(0 0)"/>
</g>
</g>
<g>
<g data-source-text="" fill="#dee4e3" transform="translate(1236 478.584) rotate(0) scale(0.047999997)">
<use href="#path114" transform="translate(0 0)"/>
</g>
</g>
</svg>