<?xml version="1.0" encoding="UTF-8" standalone="no"?>
<svg height="648" viewBox="0 0 1296 648" width="1296" xmlns="http://www.w3.org/2000/svg">
<defs>
<path d="M 250 8 Q 223 8 196 3 Q 169 -2 145 -15 Q 121 -28 102.5 -48.5 Q 84 -69 72.5 -94 Q 61 -119 56.5 -146 Q 52 -173 52 -200 L 52 -535 Q 52 -562 56.5 -589 Q 61 -616 72.5 -641 Q 84 -666 102.5 -686.5 Q 121 -707 145 -720 Q 169 -733 196 -738 Q 223 -743 250 -743 Q 277 -743 304 -738 Q 331 -733 355 -720 Q 379 -707 397.5 -686.5 Q 416 -666 427.5 -641 Q 439 -616 443.5 -589 Q 448 -562 448 -535 L 448 -200 Q 448 -173 443.5 -146 Q 439 -119 427.5 -94 Q 416 -69 397.5 -48.5 Q 379 -28 355 -15 Q 331 -2 304 3 Q 277 8 250 8 Z M 153 -337 L 347 -491 L 347 -535 Q 347 -557 342.5 -578.5 Q 338 -600 325.5 -618 Q 313 -636 292.5 -645.5 Q 272 -655 250 -655 Q 228 -655 207.5 -645.5 Q 187 -636 174.5 -618 Q 162 -600 157.5 -578.5 Q 153 -557 153 -535 Z M 250 -80 Q 272 -80 292.5 -89.5 Q 313 -99 325.5 -117 Q 338 -135 342.5 -156.5 Q 347 -178 347 -200 L 347 -398 L 153 -244 L 153 -200 Q 153 -178 157.5 -156.5 Q 162 -135 174.5 -117 Q 187 -99 207.5 -89.5 Q 228 -80 250 -80 Z " id="path1"/>
<path d="M 230 0 L 230 -631 L 110 -528 L 55 -584 L 230 -735 L 330 -735 L 330 0 Z " id="path2"/>
<path d="M 440 0 L 60 0 L 60 -1 Q 60 -27 61 -53.5 Q 62 -80 66 -106.5 Q 70 -133 77.5 -158.5 Q 85 -184 96.5 -207.5 Q 108 -231 123 -253 Q 138 -275 156 -294.5 Q 174 -314 194 -331 Q 214 -348 235.5 -364 Q 257 -380 277.5 -397 Q 298 -414 313 -435.5 Q 328 -457 335.5 -483 Q 343 -509 343 -535 Q 343 -557 339 -578 Q 335 -599 323.5 -617 Q 312 -635 292 -645 Q 272 -655 251 -655 Q 231 -655 212.5 -647.5 Q 194 -640 182 -625 Q 170 -610 164.5 -591 Q 159 -572 159 -552 L 159 -548 L 58 -548 L 58 -555 Q 58 -581 64 -605.5 Q 70 -630 81.5 -652.5 Q 93 -675 111.5 -693 Q 130 -711 152.5 -722.5 Q 175 -734 200.5 -738.5 Q 226 -743 251 -743 Q 278 -743 304.5 -737.5 Q 331 -732 354.5 -719 Q 378 -706 396 -685.5 Q 414 -665 424.5 -640.5 Q 435 -616 439.5 -589 Q 444 -562 444 -535 Q 444 -501 435 -468 Q 426 -435 407.5 -406 Q 389 -377 364 -353.5 Q 339 -330 312.5 -308.5 Q 286 -287 261 -264 Q 236 -241 216.5 -213 Q 197 -185 184 -153.5 Q 171 -122 166 -88 L 440 -88 Z " id="path3"/>
<path d="M 253 8 Q 227 8 201 4 Q 175 -0 151.5 -11.5 Q 128 -23 108.5 -40.5 Q 89 -58 76 -81 Q 63 -104 56.5 -129.5 Q 50 -155 50 -181 L 50 -187 L 151 -187 L 151 -184 Q 151 -163 157.5 -143 Q 164 -123 178 -108 Q 192 -93 212 -86.5 Q 232 -80 253 -80 Q 275 -80 296 -88.5 Q 317 -97 330.5 -114.5 Q 344 -132 349.5 -154 Q 355 -176 355 -198 Q 355 -217 351 -235.5 Q 347 -254 338.5 -271 Q 330 -288 316.5 -301 Q 303 -314 286 -322 Q 269 -330 250 -332 Q 231 -334 212 -334 L 212 -422 Q 229 -422 246 -424 Q 263 -426 278.5 -433 Q 294 -440 306 -452.5 Q 318 -465 325.5 -480.5 Q 333 -496 336 -513 Q 339 -530 339 -547 Q 339 -566 334.5 -585.5 Q 330 -605 319.5 -621 Q 309 -637 291 -646 Q 273 -655 253 -655 Q 234 -655 216.5 -647 Q 199 -639 187.5 -624 Q 176 -609 171.5 -590 Q 167 -571 167 -553 L 167 -548 L 66 -548 L 66 -556 Q 66 -581 71.5 -605.5 Q 77 -630 88 -652 Q 99 -674 117 -692.5 Q 135 -711 157 -722.5 Q 179 -734 203.5 -738.5 Q 228 -743 253 -743 Q 278 -743 303.5 -738 Q 329 -733 351 -721 Q 373 -709 390 -690 Q 407 -671 418 -648 Q 429 -625 434.5 -600 Q 440 -575 440 -550 Q 440 -524 434 -498.5 Q 428 -473 415.5 -450.5 Q 403 -428 384.5 -409.5 Q 366 -391 343 -379 Q 369 -368 390.5 -348.5 Q 412 -329 427 -304.5 Q 442 -280 449 -252 Q 456 -224 456 -196 Q 456 -168 450 -141.5 Q 444 -115 432 -91 Q 420 -67 401 -47 Q 382 -27 358 -14.5 Q 334 -2 307 3 Q 280 8 253 8 Z " id="path4"/>
<path d="M 282 0 L 282 -188 L 52 -188 L 52 -275 L 276 -735 L 385 -735 L 161 -275 L 282 -275 L 282 -435 L 382 -435 L 382 -275 L 440 -275 L 440 -188 L 382 -188 L 382 0 Z " id="path5"/>
<path d="M 252 8 Q 227 8 202.5 3.5 Q 178 -1 155.5 -12 Q 133 -23 115 -41 Q 97 -59 85 -80.5 Q 73 -102 66.5 -126.5 Q 60 -151 59 -176 L 159 -176 Q 161 -158 167 -139.5 Q 173 -121 185.5 -107 Q 198 -93 216 -86.5 Q 234 -80 252 -80 Q 269 -80 285 -87 Q 301 -94 312 -107 Q 323 -120 330 -135.5 Q 337 -151 340.5 -168 Q 344 -185 345.5 -202 Q 347 -219 347 -236 Q 347 -252 346 -269 Q 345 -286 341 -302 Q 337 -318 331 -334 Q 325 -350 314 -363 Q 303 -376 287.5 -383.5 Q 272 -391 256 -391 Q 240 -391 224.5 -387 Q 209 -383 196 -373.5 Q 183 -364 176 -349.5 Q 169 -335 168 -319 L 68 -319 L 68 -735 L 421 -735 L 421 -647 L 168 -647 L 168 -464 Q 189 -472 211 -475 Q 233 -478 256 -478 Q 285 -478 313.5 -470.5 Q 342 -463 365.5 -445.5 Q 389 -428 405.5 -403 Q 422 -378 431.5 -350.5 Q 441 -323 444.5 -294 Q 448 -265 448 -235 Q 448 -206 444 -176.5 Q 440 -147 430.5 -119 Q 421 -91 404 -66.5 Q 387 -42 363.5 -24.5 Q 340 -7 311 0.5 Q 282 8 252 8 Z " id="path6"/>
<path d="M 250 8 Q 221 8 192.5 1.5 Q 164 -5 140 -21 Q 116 -37 98.5 -60.5 Q 81 -84 70.5 -111 Q 60 -138 56 -166.5 Q 52 -195 52 -224 Q 52 -268 60 -311 Q 68 -354 81.5 -395.5 Q 95 -437 113 -477 Q 131 -517 150 -556 L 238 -735 L 347 -735 L 240 -517 Q 228 -493 216.5 -468.5 Q 205 -444 195 -419 Q 214 -438 239 -447 Q 264 -456 291 -456 Q 317 -456 342.5 -447 Q 368 -438 386.5 -419.5 Q 405 -401 417 -377.5 Q 429 -354 436 -328.5 Q 443 -303 445.5 -276.5 Q 448 -250 448 -224 Q 448 -195 444 -166.5 Q 440 -138 429.5 -111 Q 419 -84 401.5 -60.5 Q 384 -37 360 -21 Q 336 -5 307.5 1.5 Q 279 8 250 8 Z M 250 -80 Q 266 -80 282 -85.5 Q 298 -91 309.5 -102.5 Q 321 -114 328.5 -129 Q 336 -144 340 -159.5 Q 344 -175 345.5 -191.5 Q 347 -208 347 -224 Q 347 -240 345.5 -256.5 Q 344 -273 340 -289 Q 336 -305 328.5 -319.5 Q 321 -334 309.5 -345.5 Q 298 -357 282 -362.5 Q 266 -368 250 -368 Q 235 -368 221 -363.5 Q 207 -359 195.5 -349.5 Q 184 -340 176.5 -327.5 Q 169 -315 164 -301 Q 159 -287 156.5 -272.5 Q 154 -258 153 -243 L 153 -224 Q 153 -208 154.5 -191.5 Q 156 -175 160 -159.5 Q 164 -144 171.5 -129 Q 179 -114 190.5 -102.5 Q 202 -91 218 -85.5 Q 234 -80 250 -80 Z " id="path7"/>
<path d="M 242 0 L 138 0 L 336 -647 L 60 -647 L 60 -735 L 440 -735 L 440 -647 Z " id="path8"/>
<path d="M 250 8 Q 225 8 200 4 Q 175 -0 152 -10 Q 129 -20 109.5 -37 Q 90 -54 77.5 -75.5 Q 65 -97 58.5 -121.5 Q 52 -146 52 -172 Q 52 -203 62 -232.5 Q 72 -262 88.5 -288 Q 105 -314 127 -336 Q 149 -358 174 -378 Q 152 -396 132.5 -417 Q 113 -438 98.5 -462.5 Q 84 -487 76 -514.5 Q 68 -542 68 -570 Q 68 -594 73.5 -617 Q 79 -640 90.5 -661 Q 102 -682 119.5 -698.5 Q 137 -715 158 -725 Q 179 -735 202.5 -739 Q 226 -743 250 -743 Q 274 -743 297.5 -739 Q 321 -735 342 -725 Q 363 -715 380.5 -698.5 Q 398 -682 409.5 -661 Q 421 -640 426.5 -617 Q 432 -594 432 -570 Q 432 -542 424 -514.5 Q 416 -487 401.5 -462.5 Q 387 -438 367.5 -417 Q 348 -396 326 -378 Q 351 -358 373 -336 Q 395 -314 411.5 -288 Q 428 -262 438 -232.5 Q 448 -203 448 -172 Q 448 -146 441.5 -121.5 Q 435 -97 422.5 -75.5 Q 410 -54 390.5 -37 Q 371 -20 348 -10 Q 325 -0 300 4 Q 275 8 250 8 Z M 250 -435 Q 266 -447 280.5 -461.5 Q 295 -476 306.5 -493 Q 318 -510 325 -529.5 Q 332 -549 332 -569 Q 332 -586 326.5 -602.5 Q 321 -619 310 -631.5 Q 299 -644 283 -649.5 Q 267 -655 250 -655 Q 233 -655 217 -649.5 Q 201 -644 190 -631.5 Q 179 -619 173.5 -602.5 Q 168 -586 168 -569 Q 168 -549 175 -529.5 Q 182 -510 193.5 -493 Q 205 -476 219.5 -461.5 Q 234 -447 250 -435 Z M 250 -80 Q 269 -80 287.5 -85.5 Q 306 -91 320 -104 Q 334 -117 340.5 -135.5 Q 347 -154 347 -173 Q 347 -196 338.5 -217.5 Q 330 -239 316.5 -257.5 Q 303 -276 285.5 -291 Q 268 -306 250 -320 Q 232 -306 214.5 -291 Q 197 -276 183.5 -257.5 Q 170 -239 161.5 -217.5 Q 153 -196 153 -173 Q 153 -154 159.5 -135.5 Q 166 -117 180 -104 Q 194 -91 212.5 -85.5 Q 231 -80 250 -80 Z " id="path9"/>
<path d="M 262 0 L 153 0 L 260 -218 Q 272 -242 283.5 -266.5 Q 295 -291 305 -316 Q 286 -297 261 -288 Q 236 -279 209 -279 Q 183 -279 157.5 -288 Q 132 -297 113.5 -315.5 Q 95 -334 83 -357.5 Q 71 -381 64 -406.5 Q 57 -432 54.5 -458.5 Q 52 -485 52 -511 Q 52 -540 56 -568.5 Q 60 -597 70.5 -624 Q 81 -651 98.5 -674.5 Q 116 -698 140 -714 Q 164 -730 192.5 -736.5 Q 221 -743 250 -743 Q 279 -743 307.5 -736.5 Q 336 -730 360 -714 Q 384 -698 401.5 -674.5 Q 419 -651 429.5 -624 Q 440 -597 444 -568.5 Q 448 -540 448 -511 Q 448 -467 440 -424 Q 432 -381 418.5 -339.5 Q 405 -298 387 -258 Q 369 -218 350 -179 Z M 250 -367 Q 265 -367 279 -371.5 Q 293 -376 304.5 -385.5 Q 316 -395 323.5 -407.5 Q 331 -420 336 -434 Q 341 -448 343.5 -462.5 Q 346 -477 347 -492 L 347 -511 Q 347 -527 345.5 -543.5 Q 344 -560 340 -575.5 Q 336 -591 328.5 -606 Q 321 -621 309.5 -632.5 Q 298 -644 282 -649.5 Q 266 -655 250 -655 Q 234 -655 218 -649.5 Q 202 -644 190.5 -632.5 Q 179 -621 171.5 -606 Q 164 -591 160 -575.5 Q 156 -560 154.5 -543.5 Q 153 -527 153 -511 Q 153 -495 154.5 -478.5 Q 156 -462 160 -446 Q 164 -430 171.5 -415.5 Q 179 -401 190.5 -389.5 Q 202 -378 218 -372.5 Q 234 -367 250 -367 Z " id="path10"/>
<path d="M 39 0 L 192 -735 L 308 -735 L 461 0 L 358 0 L 326 -172 L 174 -172 L 142 0 Z M 309 -260 L 265 -490 Q 262 -511 258 -531.5 Q 254 -552 250 -572 Q 246 -552 242 -531.5 Q 238 -511 235 -490 L 191 -260 Z " id="path11"/>
<path d="M 60 0 L 60 -735 L 234 -735 Q 261 -735 287 -730.5 Q 313 -726 336 -714 Q 359 -702 377.5 -682.5 Q 396 -663 408 -639.5 Q 420 -616 424.5 -590 Q 429 -564 429 -538 Q 429 -515 425 -492 Q 421 -469 410.5 -448.5 Q 400 -428 383.5 -411 Q 367 -394 347 -383 Q 372 -373 393.5 -355.5 Q 415 -338 429.5 -314.5 Q 444 -291 450 -264 Q 456 -237 456 -210 Q 456 -181 450 -152.5 Q 444 -124 430 -98.5 Q 416 -73 394.5 -53.5 Q 373 -34 347 -21.5 Q 321 -9 292 -4.5 Q 263 -0 234 0 Z M 161 -424 L 234 -424 Q 255 -424 274.5 -432.5 Q 294 -441 306.5 -457.5 Q 319 -474 324 -494.5 Q 329 -515 329 -536 Q 329 -557 324 -577.5 Q 319 -598 306.5 -614.5 Q 294 -631 274.5 -639 Q 255 -647 234 -647 L 161 -647 Z M 161 -88 L 234 -88 Q 251 -88 267 -91 Q 283 -94 297.5 -101.5 Q 312 -109 323.5 -121 Q 335 -133 342.5 -148 Q 350 -163 352.5 -179 Q 355 -195 355 -212 Q 355 -228 352.5 -244.5 Q 350 -261 343 -276 Q 336 -291 324.5 -303 Q 313 -315 298 -322.5 Q 283 -330 267 -333 Q 251 -336 234 -336 L 161 -336 Z " id="path12"/>
<path d="M 247 8 Q 220 8 193 2.5 Q 166 -3 142.5 -16 Q 119 -29 101 -49.5 Q 83 -70 72 -94.5 Q 61 -119 56.5 -146 Q 52 -173 52 -200 L 52 -535 Q 52 -562 56.5 -589 Q 61 -616 72 -640.5 Q 83 -665 101 -685.5 Q 119 -706 142.5 -719 Q 166 -732 193 -737.5 Q 220 -743 247 -743 Q 273 -743 298 -738.5 Q 323 -734 346 -723 Q 369 -712 387.5 -694 Q 406 -676 418 -653.5 Q 430 -631 436 -606 Q 442 -581 442 -555 L 442 -548 L 341 -548 L 341 -552 Q 341 -572 335.5 -591.5 Q 330 -611 317.5 -626 Q 305 -641 286 -648 Q 267 -655 247 -655 Q 225 -655 205 -645.5 Q 185 -636 173 -618 Q 161 -600 157 -578.5 Q 153 -557 153 -535 L 153 -200 Q 153 -178 157 -156.5 Q 161 -135 173 -117 Q 185 -99 205 -89.5 Q 225 -80 247 -80 Q 267 -80 286 -87 Q 305 -94 317.5 -109 Q 330 -124 335.5 -143.5 Q 341 -163 341 -183 L 341 -187 L 442 -187 L 442 -180 Q 442 -154 436 -129 Q 430 -104 418 -81.5 Q 406 -59 387.5 -41 Q 369 -23 346 -12 Q 323 -1 298 3.5 Q 273 8 247 8 Z " id="path13"/>
<path d="M 60 0 L 60 -735 L 219 -735 Q 249 -735 279 -730 Q 309 -725 336.5 -712 Q 364 -699 386 -678.5 Q 408 -658 422 -631.5 Q 436 -605 442 -575 Q 448 -545 448 -515 L 448 -220 Q 448 -190 442 -160 Q 436 -130 422 -103.5 Q 408 -77 386 -56.5 Q 364 -36 336.5 -23 Q 309 -10 279 -5 Q 249 -0 219 0 Z M 161 -88 L 219 -88 Q 237 -88 254 -91 Q 271 -94 286.5 -102.5 Q 302 -111 314 -124 Q 326 -137 333.5 -152.5 Q 341 -168 344 -185.5 Q 347 -203 347 -220 L 347 -515 Q 347 -532 344 -549.5 Q 341 -567 333.5 -582.5 Q 326 -598 314 -611 Q 302 -624 286.5 -632.5 Q 271 -641 254 -644 Q 237 -647 219 -647 L 161 -647 Z " id="path14"/>
<path d="M 68 0 L 68 -735 L 440 -735 L 440 -647 L 169 -647 L 169 -426 L 383 -426 L 383 -338 L 169 -338 L 169 -88 L 440 -88 L 440 0 Z " id="path15"/>
<path d="M 91 0 L 91 -735 L 440 -735 L 440 -647 L 191 -647 L 191 -426 L 383 -426 L 383 -338 L 191 -338 L 191 0 Z " id="path16"/>
<path d="M 250 8 Q 223 8 196.5 2.5 Q 170 -3 147 -16.5 Q 124 -30 106.5 -50.5 Q 89 -71 78.5 -95.5 Q 68 -120 64 -146.5 Q 60 -173 60 -200 L 60 -735 L 161 -735 L 161 -200 Q 161 -186 162.5 -172 Q 164 -158 168 -144.5 Q 172 -131 179.5 -118.5 Q 187 -106 197.5 -97 Q 208 -88 222 -84 Q 236 -80 250 -80 Q 264 -80 278 -84 Q 292 -88 302.5 -97 Q 313 -106 320.5 -118.5 Q 328 -131 332 -144.5 Q 336 -158 337.5 -172 Q 339 -186 339 -200 L 339 -735 L 440 -735 L 440 -200 Q 440 -173 436 -146.5 Q 432 -120 421.5 -95.5 Q 411 -71 393.5 -50.5 Q 376 -30 353 -16.5 Q 330 -3 303.5 2.5 Q 277 8 250 8 Z " id="path17"/>
<path d="M 300 -143 L 200 -143 L 200 -296 L 60 -296 L 60 -384 L 200 -384 L 200 -537 L 300 -537 L 300 -384 L 440 -384 L 440 -296 L 300 -296 Z " id="path18"/>
<path d="M 0 -305 L 0 -375 L 500 -375 L 500 -305 Z " id="path19"/>
<path d="M 500 -271 L 0 -271 L 0 -409 L 500 -409 Z " id="path20"/>
<path d="M 212 285 L 212 -965 L 288 -965 L 288 285 Z " id="path21"/>
<path d="M 173 285 L 173 -965 L 327 -965 L 327 285 Z " id="path22"/>
<path d="M 367 -305 L 367 -375 L 467 -375 L 467 -305 Z M 200 -305 L 200 -375 L 300 -375 L 300 -305 Z M 33 -305 L 33 -375 L 133 -375 L 133 -305 Z " id="path23"/>
<path d="M 367 -271 L 367 -409 L 467 -409 L 467 -271 Z M 200 -271 L 200 -409 L 300 -409 L 300 -271 Z M 33 -271 L 33 -409 L 133 -409 L 133 -271 Z " id="path24"/>
<path d="M 212 -632 L 212 -882 L 288 -882 L 288 -632 Z M 288 -215 L 212 -215 L 212 -465 L 288 -465 Z M 212 202 L 212 -48 L 288 -48 L 288 202 Z " id="path25"/>
<path d="M 173 -632 L 173 -882 L 327 -882 L 327 -632 Z M 327 -215 L 173 -215 L 173 -465 L 327 -465 Z M 173 202 L 173 -48 L 327 -48 L 327 202 Z " id="path26"/>
<path d="M 475 -305 L 400 -305 L 400 -375 L 475 -375 Z M 350 -305 L 275 -305 L 275 -375 L 350 -375 Z M 150 -305 L 150 -375 L 225 -375 L 225 -305 Z M 25 -305 L 25 -375 L 100 -375 L 100 -305 Z " id="path27"/>
<path d="M 475 -271 L 400 -271 L 400 -409 L 475 -409 Z M 275 -271 L 275 -409 L 350 -409 L 350 -271 Z M 150 -271 L 150 -409 L 225 -409 L 225 -271 Z M 25 -271 L 25 -409 L 100 -409 L 100 -271 Z " id="path28"/>
<path d="M 212 -715 L 212 -903 L 288 -903 L 288 -715 Z M 212 -403 L 212 -590 L 288 -590 L 288 -403 Z M 212 -90 L 212 -278 L 288 -278 L 288 -90 Z M 212 222 L 212 35 L 288 35 L 288 222 Z " id="path29"/>
<path d="M 173 -715 L 173 -903 L 327 -903 L 327 -715 Z M 173 -403 L 173 -590 L 327 -590 L 327 -403 Z M 173 -90 L 173 -278 L 327 -278 L 327 -90 Z M 173 222 L 173 35 L 327 35 L 327 222 Z " id="path30"/>
<path d="M 212 285 L 212 -375 L 500 -375 L 500 -305 L 288 -305 L 288 285 Z " id="path31"/>
<path d="M 212 285 L 212 -409 L 500 -409 L 500 -271 L 288 -271 L 288 285 Z " id="path32"/>
<path d="M 173 285 L 173 -375 L 500 -375 L 500 -305 L 327 -305 L 327 285 Z " id="path33"/>
<path d="M 173 285 L 173 -409 L 500 -409 L 500 -271 L 327 -271 L 327 285 Z " id="path34"/>
<path d="M 212 285 L 212 -305 L 0 -305 L 0 -375 L 288 -375 L 288 285 Z " id="path35"/>
<path d="M 212 285 L 212 -271 L 0 -271 L 0 -409 L 288 -409 L 288 285 Z " id="path36"/>
<path d="M 173 285 L 173 -305 L 0 -305 L 0 -375 L 327 -375 L 327 285 Z " id="path37"/>
<path d="M 173 285 L 173 -271 L 0 -271 L 0 -409 L 327 -409 L 327 285 Z " id="path38"/>
<path d="M 500 -305 L 212 -305 L 212 -965 L 288 -965 L 288 -375 L 500 -375 Z " id="path39"/>
<path d="M 212 -271 L 212 -965 L 288 -965 L 288 -409 L 500 -409 L 500 -271 Z " id="path40"/>
<path d="M 173 -305 L 173 -965 L 327 -965 L 327 -375 L 500 -375 L 500 -305 Z " id="path41"/>
<path d="M 500 -271 L 173 -271 L 173 -965 L 327 -965 L 327 -409 L 500 -409 Z " id="path42"/>
<path d="M 0 -305 L 0 -375 L 212 -375 L 212 -965 L 288 -965 L 288 -305 Z " id="path43"/>
<path d="M 288 -271 L 0 -271 L 0 -409 L 212 -409 L 212 -965 L 288 -965 Z " id="path44"/>
<path d="M 0 -305 L 0 -375 L 173 -375 L 173 -965 L 327 -965 L 327 -305 Z " id="path45"/>
<path d="M 327 -271 L 0 -271 L 0 -409 L 173 -409 L 173 -965 L 327 -965 Z " id="path46"/>
<path d="M 212 285 L 212 -965 L 288 -965 L 288 -375 L 500 -375 L 500 -305 L 288 -305 L 288 285 Z " id="path47"/>
<path d="M 212 285 L 212 -965 L 288 -965 L 288 -409 L 500 -409 L 500 -271 L 288 -271 L 288 285 Z " id="path48"/>
<path d="M 212 285 L 212 -305 L 173 -305 L 173 -965 L 327 -965 L 327 -375 L 500 -375 L 500 -305 L 288 -305 L 288 285 Z " id="path49"/>
<path d="M 173 285 L 173 -375 L 212 -375 L 212 -965 L 288 -965 L 288 -375 L 500 -375 L 500 -305 L 327 -305 L 327 285 Z " id="path50"/>
<path d="M 173 285 L 173 -965 L 327 -965 L 327 -375 L 500 -375 L 500 -305 L 327 -305 L 327 285 Z " id="path51"/>
<path d="M 212 285 L 212 -271 L 173 -271 L 173 -965 L 327 -965 L 327 -409 L 500 -409 L 500 -271 L 288 -271 L 288 285 Z " id="path52"/>
<path d="M 173 285 L 173 -409 L 212 -409 L 212 -965 L 288 -965 L 288 -409 L 500 -409 L 500 -271 L 327 -271 L 327 285 Z " id="path53"/>
<path d="M 173 285 L 173 -965 L 327 -965 L 327 -409 L 500 -409 L 500 -271 L 327 -271 L 327 285 Z " id="path54"/>
<path d="M 212 285 L 212 -305 L 0 -305 L 0 -375 L 212 -375 L 212 -965 L 288 -965 L 288 285 Z " id="path55"/>
<path d="M 212 285 L 212 -271 L 0 -271 L 0 -409 L 212 -409 L 212 -965 L 288 -965 L 288 285 Z " id="path56"/>
<path d="M 212 285 L 212 -305 L 0 -305 L 0 -375 L 173 -375 L 173 -965 L 327 -965 L 327 -305 L 288 -305 L 288 285 Z " id="path57"/>
<path d="M 173 285 L 173 -305 L 0 -305 L 0 -375 L 212 -375 L 212 -965 L 288 -965 L 288 -375 L 327 -375 L 327 285 Z " id="path58"/>
<path d="M 173 285 L 173 -305 L 0 -305 L 0 -375 L 173 -375 L 173 -965 L 327 -965 L 327 285 Z " id="path59"/>
<path d="M 212 285 L 212 -271 L 0 -271 L 0 -409 L 173 -409 L 173 -965 L 327 -965 L 327 -271 L 288 -271 L 288 285 Z " id="path60"/>
<path d="M 173 285 L 173 -271 L 0 -271 L 0 -409 L 212 -409 L 212 -965 L 288 -965 L 288 -409 L 327 -409 L 327 285 Z " id="path61"/>
<path d="M 173 285 L 173 -271 L 0 -271 L 0 -409 L 173 -409 L 173 -965 L 327 -965 L 327 285 Z " id="path62"/>
<path d="M 212 285 L 212 -305 L 0 -305 L 0 -375 L 500 -375 L 500 -305 L 288 -305 L 288 285 Z " id="path63"/>
<path d="M 212 285 L 212 -271 L 0 -271 L 0 -409 L 288 -409 L 288 -375 L 500 -375 L 500 -305 L 288 -305 L 288 285 Z " id="path64"/>
<path d="M 212 285 L 212 -305 L 0 -305 L 0 -375 L 212 -375 L 212 -409 L 500 -409 L 500 -271 L 288 -271 L 288 285 Z " id="path65"/>
<path d="M 212 285 L 212 -271 L 0 -271 L 0 -409 L 500 -409 L 500 -271 L 288 -271 L 288 285 Z " id="path66"/>
<path d="M 173 285 L 173 -305 L 0 -305 L 0 -375 L 500 -375 L 500 -305 L 327 -305 L 327 285 Z " id="path67"/>
<path d="M 173 285 L 173 -271 L 0 -271 L 0 -409 L 327 -409 L 327 -375 L 500 -375 L 500 -305 L 327 -305 L 327 285 Z " id="path68"/>
<path d="M 173 285 L 173 -305 L 0 -305 L 0 -375 L 173 -375 L 173 -409 L 500 -409 L 500 -271 L 327 -271 L 327 285 Z " id="path69"/>
<path d="M 173 285 L 173 -271 L 0 -271 L 0 -409 L 500 -409 L 500 -271 L 327 -271 L 327 285 Z " id="path70"/>
<path d="M 500 -305 L 0 -305 L 0 -375 L 212 -375 L 212 -965 L 288 -965 L 288 -375 L 500 -375 Z " id="path71"/>
<path d="M 288 -271 L 0 -271 L 0 -409 L 212 -409 L 212 -965 L 288 -965 L 288 -375 L 500 -375 L 500 -305 L 288 -305 Z " id="path72"/>
<path d="M 212 -271 L 212 -305 L 0 -305 L 0 -375 L 212 -375 L 212 -965 L 288 -965 L 288 -409 L 500 -409 L 500 -271 Z " id="path73"/>
<path d="M 500 -271 L 0 -271 L 0 -409 L 212 -409 L 212 -965 L 288 -965 L 288 -409 L 500 -409 Z " id="path74"/>
<path d="M 0 -305 L 0 -375 L 173 -375 L 173 -965 L 327 -965 L 327 -375 L 500 -375 L 500 -305 Z " id="path75"/>
<path d="M 327 -271 L 0 -271 L 0 -409 L 173 -409 L 173 -965 L 327 -965 L 327 -375 L 500 -375 L 500 -305 L 327 -305 Z " id="path76"/>
<path d="M 173 -271 L 173 -305 L 0 -305 L 0 -375 L 173 -375 L 173 -965 L 327 -965 L 327 -409 L 500 -409 L 500 -271 Z " id="path77"/>
<path d="M 500 -271 L 0 -271 L 0 -409 L 173 -409 L 173 -965 L 327 -965 L 327 -409 L 500 -409 Z " id="path78"/>
<path d="M 212 285 L 212 -305 L 0 -305 L 0 -375 L 212 -375 L 212 -965 L 288 -965 L 288 -375 L 500 -375 L 500 -305 L 288 -305 L 288 285 Z " id="path79"/>
<path d="M 212 285 L 212 -271 L 0 -271 L 0 -409 L 212 -409 L 212 -965 L 288 -965 L 288 -375 L 500 -375 L 500 -305 L 288 -305 L 288 285 Z " id="path80"/>
<path d="M 212 285 L 212 -305 L 0 -305 L 0 -375 L 212 -375 L 212 -965 L 288 -965 L 288 -409 L 500 -409 L 500 -271 L 288 -271 L 288 285 Z " id="path81"/>
<path d="M 212 285 L 212 -271 L 0 -271 L 0 -409 L 212 -409 L 212 -965 L 288 -965 L 288 -409 L 500 -409 L 500 -271 L 288 -271 L 288 285 Z " id="path82"/>
<path d="M 212 285 L 212 -305 L 0 -305 L 0 -375 L 173 -375 L 173 -965 L 327 -965 L 327 -375 L 500 -375 L 500 -305 L 288 -305 L 288 285 Z " id="path83"/>
<path d="M 173 285 L 173 -305 L 0 -305 L 0 -375 L 212 -375 L 212 -965 L 288 -965 L 288 -375 L 500 -375 L 500 -305 L 327 -305 L 327 285 Z " id="path84"/>
<path d="M 173 285 L 173 -305 L 0 -305 L 0 -375 L 173 -375 L 173 -965 L 327 -965 L 327 -375 L 500 -375 L 500 -305 L 327 -305 L 327 285 Z " id="path85"/>
<path d="M 212 285 L 212 -271 L 0 -271 L 0 -409 L 173 -409 L 173 -965 L 327 -965 L 327 -375 L 500 -375 L 500 -305 L 327 -305 L 327 -271 L 288 -271 L 288 285 Z " id="path86"/>
<path d="M 212 285 L 212 -271 L 173 -271 L 173 -305 L 0 -305 L 0 -375 L 173 -375 L 173 -965 L 327 -965 L 327 -409 L 500 -409 L 500 -271 L 288 -271 L 288 285 Z " id="path87"/>
<path d="M 173 285 L 173 -271 L 0 -271 L 0 -409 L 212 -409 L 212 -965 L 288 -965 L 288 -409 L 327 -409 L 327 -375 L 500 -375 L 500 -305 L 327 -305 L 327 285 Z " id="path88"/>
<path d="M 173 285 L 173 -305 L 0 -305 L 0 -375 L 173 -375 L 173 -409 L 212 -409 L 212 -965 L 288 -965 L 288 -409 L 500 -409 L 500 -271 L 327 -271 L 327 285 Z " id="path89"/>
<path d="M 212 285 L 212 -271 L 0 -271 L 0 -409 L 173 -409 L 173 -965 L 327 -965 L 327 -409 L 500 -409 L 500 -271 L 288 -271 L 288 285 Z " id="path90"/>
<path d="M 173 285 L 173 -271 L 0 -271 L 0 -409 L 212 -409 L 212 -965 L 288 -965 L 288 -409 L 500 -409 L 500 -271 L 327 -271 L 327 285 Z " id="path91"/>
<path d="M 173 285 L 173 -271 L 0 -271 L 0 -409 L 173 -409 L 173 -965 L 327 -965 L 327 -375 L 500 -375 L 500 -305 L 327 -305 L 327 285 Z " id="path92"/>
<path d="M 173 285 L 173 -305 L 0 -305 L 0 -375 L 173 -375 L 173 -965 L 327 -965 L 327 -409 L 500 -409 L 500 -271 L 327 -271 L 327 285 Z " id="path93"/>
<path d="M 173 285 L 173 -271 L 0 -271 L 0 -409 L 173 -409 L 173 -965 L 327 -965 L 327 -409 L 500 -409 L 500 -271 L 327 -271 L 327 285 Z " id="path94"/>
<path d="M 300 -305 L 300 -375 L 450 -375 L 450 -305 Z M 50 -305 L 50 -375 L 200 -375 L 200 -305 Z " id="path95"/>
<path d="M 300 -271 L 300 -409 L 450 -409 L 450 -271 Z M 50 -271 L 50 -409 L 200 -409 L 200 -271 Z " id="path96"/>
<path d="M 212 -465 L 212 -840 L 288 -840 L 288 -465 Z M 212 160 L 212 -215 L 288 -215 L 288 160 Z " id="path97"/>
<path d="M 173 -465 L 173 -840 L 327 -840 L 327 -465 Z M 173 160 L 173 -215 L 327 -215 L 327 160 Z " id="path98"/>
<path d="M 500 -375 L 0 -375 L 0 -444 L 500 -444 Z M 500 -236 L 0 -236 L 0 -305 L 500 -305 Z " id="path99"/>
<path d="M 142 285 L 142 -965 L 219 -965 L 219 285 Z M 281 285 L 281 -965 L 358 -965 L 358 285 Z " id="path100"/>
<path d="M 212 285 L 212 -444 L 500 -444 L 500 -375 L 288 -375 L 288 -305 L 500 -305 L 500 -236 L 288 -236 L 288 285 Z " id="path101"/>
<path d="M 142 285 L 142 -375 L 500 -375 L 500 -305 L 358 -305 L 358 285 L 281 285 L 281 -305 L 219 -305 L 219 285 Z " id="path102"/>
<path d="M 219 285 L 142 285 L 142 -444 L 500 -444 L 500 -375 L 219 -375 Z M 358 285 L 281 285 L 281 -305 L 500 -305 L 500 -236 L 358 -236 Z " id="path103"/>
<path d="M 212 285 L 212 -236 L 0 -236 L 0 -305 L 212 -305 L 212 -375 L 0 -375 L 0 -444 L 288 -444 L 288 285 Z " id="path104"/>
<path d="M 142 285 L 142 -305 L 0 -305 L 0 -375 L 358 -375 L 358 285 L 281 285 L 281 -305 L 219 -305 L 219 285 Z " id="path105"/>
<path d="M 358 285 L 281 285 L 281 -375 L 0 -375 L 0 -444 L 358 -444 Z M 219 285 L 142 285 L 142 -236 L 0 -236 L 0 -305 L 219 -305 Z " id="path106"/>
<path d="M 212 -236 L 212 -965 L 288 -965 L 288 -444 L 500 -444 L 500 -375 L 288 -375 L 288 -305 L 500 -305 L 500 -236 Z " id="path107"/>
<path d="M 142 -305 L 142 -965 L 219 -965 L 219 -375 L 281 -375 L 281 -965 L 358 -965 L 358 -375 L 500 -375 L 500 -305 Z " id="path108"/>
<path d="M 142 -236 L 142 -965 L 219 -965 L 219 -305 L 500 -305 L 500 -236 Z M 281 -375 L 281 -965 L 358 -965 L 358 -444 L 500 -444 L 500 -375 Z " id="path109"/>
<path d="M 0 -236 L 0 -305 L 212 -305 L 212 -375 L 0 -375 L 0 -444 L 212 -444 L 212 -965 L 288 -965 L 288 -236 Z " id="path110"/>
<path d="M 0 -305 L 0 -375 L 142 -375 L 142 -965 L 219 -965 L 219 -375 L 281 -375 L 281 -965 L 358 -965 L 358 -305 Z " id="path111"/>
<path d="M 0 -375 L 0 -444 L 142 -444 L 142 -965 L 219 -965 L 219 -375 Z M 0 -236 L 0 -305 L 281 -305 L 281 -965 L 358 -965 L 358 -236 Z " id="path112"/>
<path d="M 212 285 L 212 -965 L 288 -965 L 288 -444 L 500 -444 L 500 -375 L 288 -375 L 288 -305 L 500 -305 L 500 -236 L 288 -236 L 288 285 Z " id="path113"/>
<path d="M 142 285 L 142 -965 L 219 -965 L 219 285 Z M 281 285 L 281 -965 L 358 -965 L 358 -375 L 500 -375 L 500 -305 L 358 -305 L 358 285 Z " id="path114"/>
<path d="M 219 285 L 142 285 L 142 -965 L 219 -965 Z M 281 -375 L 281 -965 L 358 -965 L 358 -444 L 500 -444 L 500 -375 Z M 358 285 L 281 285 L 281 -305 L 500 -305 L 500 -236 L 358 -236 Z " id="path115"/>
<path d="M 212 285 L 212 -236 L 0 -236 L 0 -305 L 212 -305 L 212 -375 L 0 -375 L 0 -444 L 212 -444 L 212 -965 L 288 -965 L 288 285 Z " id="path116"/>
<path d="M 142 285 L 142 -305 L 0 -305 L 0 -375 L 142 -375 L 142 -965 L 219 -965 L 219 285 Z M 281 285 L 281 -965 L 358 -965 L 358 285 Z " id="path117"/>
<path d="M 0 -375 L 0 -444 L 142 -444 L 142 -965 L 219 -965 L 219 -375 Z M 358 285 L 281 285 L 281 -965 L 358 -965 Z M 219 285 L 142 285 L 142 -236 L 0 -236 L 0 -305 L 219 -305 Z " id="path118"/>
<path d="M 0 -375 L 0 -444 L 500 -444 L 500 -375 Z M 212 285 L 212 -236 L 0 -236 L 0 -305 L 500 -305 L 500 -236 L 288 -236 L 288 285 Z " id="path119"/>
<path d="M 142 285 L 142 -305 L 0 -305 L 0 -375 L 500 -375 L 500 -305 L 358 -305 L 358 285 L 281 285 L 281 -305 L 219 -305 L 219 285 Z " id="path120"/>
<path d="M 0 -375 L 0 -444 L 500 -444 L 500 -375 Z M 219 285 L 142 285 L 142 -236 L 0 -236 L 0 -305 L 219 -305 Z M 358 285 L 281 285 L 281 -305 L 500 -305 L 500 -236 L 358 -236 Z " id="path121"/>
<path d="M 0 -375 L 0 -444 L 212 -444 L 212 -965 L 288 -965 L 288 -444 L 500 -444 L 500 -375 Z M 0 -236 L 0 -305 L 500 -305 L 500 -236 Z " id="path122"/>
<path d="M 0 -305 L 0 -375 L 142 -375 L 142 -965 L 219 -965 L 219 -375 L 281 -375 L 281 -965 L 358 -965 L 358 -375 L 500 -375 L 500 -305 Z " id="path123"/>
<path d="M 0 -375 L 0 -444 L 142 -444 L 142 -965 L 219 -965 L 219 -375 Z M 281 -375 L 281 -965 L 358 -965 L 358 -444 L 500 -444 L 500 -375 Z M 0 -236 L 0 -305 L 500 -305 L 500 -236 Z " id="path124"/>
<path d="M 0 -375 L 0 -444 L 212 -444 L 212 -965 L 288 -965 L 288 -444 L 500 -444 L 500 -375 Z M 212 285 L 212 -236 L 0 -236 L 0 -305 L 500 -305 L 500 -236 L 288 -236 L 288 285 Z " id="path125"/>
<path d="M 142 285 L 142 -305 L 0 -305 L 0 -375 L 142 -375 L 142 -965 L 219 -965 L 219 285 Z M 281 285 L 281 -965 L 358 -965 L 358 -375 L 500 -375 L 500 -305 L 358 -305 L 358 285 Z " id="path126"/>
<path d="M 0 -375 L 0 -444 L 142 -444 L 142 -965 L 219 -965 L 219 -375 Z M 281 -375 L 281 -965 L 358 -965 L 358 -444 L 500 -444 L 500 -375 Z M 219 285 L 142 285 L 142 -236 L 0 -236 L 0 -305 L 219 -305 Z M 358 285 L 281 285 L 281 -305 L 500 -305 L 500 -236 L 358 -236 Z " id="path127"/>
<path d="M 212 285 L 212 -106 Q 212 -142 218.5 -178 Q 225 -214 241.5 -246.5 Q 258 -279 284 -304.5 Q 310 -330 343 -346 Q 376 -362 412 -368.5 Q 448 -375 484 -375 L 500 -375 L 500 -305 L 484 -305 Q 458 -305 431.5 -300.5 Q 405 -296 381.5 -283.5 Q 358 -271 339.5 -252 Q 321 -233 309 -209 Q 297 -185 292.5 -158.5 Q 288 -132 288 -106 L 288 285 Z " id="path128"/>
<path d="M 212 285 L 212 -106 Q 212 -132 207.5 -158.5 Q 203 -185 191 -209 Q 179 -233 160.5 -252 Q 142 -271 118.5 -283.5 Q 95 -296 68.5 -300.5 Q 42 -305 16 -305 L 0 -305 L 0 -375 L 16 -375 Q 52 -375 88 -368.5 Q 124 -362 157 -346 Q 190 -330 216 -304.5 Q 242 -279 258.5 -246.5 Q 275 -214 281.5 -178 Q 288 -142 288 -106 L 288 285 Z " id="path129"/>
<path d="M 16 -305 L 0 -305 L 0 -375 L 16 -375 Q 42 -375 68.5 -379.5 Q 95 -384 118.5 -396.5 Q 142 -409 160.5 -428 Q 179 -447 191 -471 Q 203 -495 207.5 -521.5 Q 212 -548 212 -574 L 212 -965 L 288 -965 L 288 -574 Q 288 -538 281.5 -502 Q 275 -466 258.5 -433.5 Q 242 -401 216 -375.5 Q 190 -350 157 -334 Q 124 -318 88 -311.5 Q 52 -305 16 -305 Z " id="path130"/>
<path d="M 484 -305 Q 448 -305 412 -311.5 Q 376 -318 343 -334 Q 310 -350 284 -375.5 Q 258 -401 241.5 -433.5 Q 225 -466 218.5 -502 Q 212 -538 212 -574 L 212 -965 L 288 -965 L 288 -574 Q 288 -548 292.5 -521.5 Q 297 -495 309 -471 Q 321 -447 339.5 -428 Q 358 -409 381.5 -396.5 Q 405 -384 431.5 -379.5 Q 458 -375 484 -375 L 500 -375 L 500 -305 Z " id="path131"/>
<path d="M 36 298 L -36 272 L 464 -978 L 536 -952 Z " id="path132"/>
<path d="M 464 298 L -36 -952 L 36 -978 L 536 272 Z " id="path133"/>
<path d="M 36 298 L -36 272 L 464 -978 L 536 -952 Z M 464 298 L -36 -952 L 36 -978 L 536 272 Z " id="path134"/>
<path d="M 0 -305 L 0 -375 L 250 -375 L 250 -305 Z " id="path135"/>
<path d="M 212 -340 L 212 -965 L 288 -965 L 288 -340 Z " id="path136"/>
<path d="M 250 -305 L 250 -375 L 500 -375 L 500 -305 Z " id="path137"/>
<path d="M 212 285 L 212 -340 L 288 -340 L 288 285 Z " id="path138"/>
<path d="M 0 -271 L 0 -409 L 250 -409 L 250 -271 Z " id="path139"/>
<path d="M 173 -340 L 173 -965 L 327 -965 L 327 -340 Z " id="path140"/>
<path d="M 500 -271 L 250 -271 L 250 -409 L 500 -409 Z " id="path141"/>
<path d="M 173 285 L 173 -340 L 327 -340 L 327 285 Z " id="path142"/>
<path d="M 500 -271 L 250 -271 L 250 -305 L 0 -305 L 0 -375 L 250 -375 L 250 -409 L 500 -409 Z " id="path143"/>
<path d="M 173 285 L 173 -340 L 212 -340 L 212 -965 L 288 -965 L 288 -340 L 327 -340 L 327 285 Z " id="path144"/>
<path d="M 0 -271 L 0 -409 L 250 -409 L 250 -375 L 500 -375 L 500 -305 L 250 -305 L 250 -271 Z " id="path145"/>
<path d="M 212 285 L 212 -340 L 173 -340 L 173 -965 L 327 -965 L 327 -340 L 288 -340 L 288 285 Z " id="path146"/>
</defs>
<g>
<g data-source-text="0" fill="#dee4e3" transform="translate(174 41.292) rotate(0) scale(0.023999998)">
<use href="#path1" transform="translate(0 0)"/>
</g>
</g>
<g>
<g data-source-text="1" fill="#dee4e3" transform="translate(246 41.292) rotate(0) scale(0.023999998)">
<use href="#path2" transform="translate(0 0)"/>
</g>
</g>
<g>
<g data-source-text="2" fill="#dee4e3" transform="translate(318 41.292) rotate(0) scale(0.023999998)">
<use href="#path3" transform="translate(0 0)"/>
</g>
</g>
<g>
<g data-source-text="3" fill="#dee4e3" transform="translate(390 41.292) rotate(0) scale(0.023999998)">
<use href="#path4" transform="translate(0 0)"/>
</g>
</g>
<g>
<g data-source-text="4" fill="#dee4e3" transform="translate(462 41.292) rotate(0) scale(0.023999998)">
<use href="#path5" transform="translate(0 0)"/>
</g>
</g>
<g>
<g data-source-text="5" fill="#dee4e3" transform="translate(534 41.292) rotate(0) scale(0.023999998)">
<use href="#path6" transform="translate(0 0)"/>
</g>
</g>
<g>
<g data-source-text="6" fill="#dee4e3" transform="translate(606 41.292) rotate(0) scale(0.023999998)">
<use href="#path7" transform="translate(0 0)"/>
</g>
</g>
<g>
<g data-source-text="7" fill="#dee4e3" transform="translate(678 41.292) rotate(0) scale(0.023999998)">
<use href="#path8" transform="translate(0 0)"/>
</g>
</g>
<g>
<g data-source-text="8" fill="#dee4e3" transform="translate(750 41.292) rotate(0) scale(0.023999998)">
<use href="#path9" transform="translate(0 0)"/>
</g>
</g>
<g>
<g data-source-text="9" fill="#dee4e3" transform="translate(822 41.292) rotate(0) scale(0.023999998)">
<use href="#path10" transform="translate(0 0)"/>
</g>
</g>
<g>
<g data-source-text="A" fill="#dee4e3" transform="translate(894 41.292) rotate(0) scale(0.023999998)">
<use href="#path11" transform="translate(0 0)"/>
</g>
</g>
<g>
<g data-source-text="B" fill="#dee4e3" transform="translate(966 41.292) rotate(0) scale(0.023999998)">
<use href="#path12" transform="translate(0 0)"/>
</g>
</g>
<g>
<g data-source-text="C" fill="#dee4e3" transform="translate(1038 41.292) rotate(0) scale(0.023999998)">
<use href="#path13" transform="translate(0 0)"/>
</g>
</g>
<g>
<g data-source-text="D" fill="#dee4e3" transform="translate(1110 41.292) rotate(0) scale(0.023999998)">
<use href="#path14" transform="translate(0 0)"/>
</g>
</g>
<g>
<g data-source-text="E" fill="#dee4e3" transform="translate(1182 41.292) rotate(0) scale(0.023999998)">
<use href="#path15" transform="translate(0 0)"/>
</g>
</g>
<g>
<g data-source-text="F" fill="#dee4e3" transform="translate(1254 41.292) rotate(0) scale(0.023999998)">
<use href="#path16" transform="translate(0 0)"/>
</g>
</g>
<g>
<g data-source-text="U+2500" fill="#dee4e3" transform="translate(36 113.292) rotate(0) scale(0.023999998)">
<use href="#path17" transform="translate(0 0)"/>
<use href="#path18" transform="translate(500 0)"/>
<use href="#path3" transform="translate(1000 0)"/>
<use href="#path6" transform="translate(1500 0)"/>
<use href="#path1" transform="translate(2000 0)"/>
<use href="#path1" transform="translate(2500 0)"/>
</g>
</g>
<g>
<g data-source-text="─" fill="#dee4e3" transform="translate(168 118.584) rotate(0) scale(0.047999997)">
<use href="#path19" transform="translate(0 0)"/>
</g>
</g>
<g>
<g data-source-text="━" fill="#dee4e3" transform="translate(240 118.584) rotate(0) scale(0.047999997)">
<use href="#path20" transform="translate(0 0)"/>
</g>
</g>
<g>
<g data-source-text="│" fill="#dee4e3" transform="translate(312 118.584) rotate(0) scale(0.047999997)">
<use href="#path21" transform="translate(0 0)"/>
</g>
</g>
<g>
<g data-source-text="┃" fill="#dee4e3" transform="translate(384 118.584) rotate(0) scale(0.047999997)">
<use href="#path22" transform="translate(0 0)"/>
</g>
</g>
<g>
<g data-source-text="┄" fill="#dee4e3" transform="translate(456 118.584) rotate(0) scale(0.047999997)">
<use href="#path23" transform="translate(0 0)"/>
</g>
</g>
<g>
<g data-source-text="┅" fill="#dee4e3" transform="translate(528 118.584) rotate(0) scale(0.047999997)">
<use href="#path24" transform="translate(0 0)"/>
</g>
</g>
<g>
<g data-source-text="┆" fill="#dee4e3" transform="translate(600 118.584) rotate(0) scale(0.047999997)">
<use href="#path25" transform="translate(0 0)"/>
</g>
</g>
<g>
<g data-source-text="┇" fill="#dee4e3" transform="translate(672 118.584) rotate(0) scale(0.047999997)">
<use href="#path26" transform="translate(0 0)"/>
</g>
</g>
<g>
<g data-source-text="┈" fill="#dee4e3" transform="translate(744 118.584) rotate(0) scale(0.047999997)">
<use href="#path27" transform="translate(0 0)"/>
</g>
</g>
<g>
<g data-source-text="┉" fill="#dee4e3" transform="translate(816 118.584) rotate(0) scale(0.047999997)">
<use href="#path28" transform="translate(0 0)"/>
</g>
</g>
<g>
<g data-source-text="┊" fill="#dee4e3" transform="translate(888 118.584) rotate(0) scale(0.047999997)">
<use href="#path29" transform="translate(0 0)"/>
</g>
</g>
<g>
<g data-source-text="┋" fill="#dee4e3" transform="translate(960 118.584) rotate(0) scale(0.047999997)">
<use href="#path30" transform="translate(0 0)"/>
</g>
</g>
<g>
<g data-source-text="┌" fill="#dee4e3" transform="translate(1032 118.584) rotate(0) scale(0.047999997)">
<use href="#path31" transform="translate(0 0)"/>
</g>
</g>
<g>
<g data-source-text="┍" fill="#dee4e3" transform="translate(1104 118.584) rotate(0) scale(0.047999997)">
<use href="#path32" transform="translate(0 0)"/>
</g>
</g>
<g>
<g data-source-text="┎" fill="#dee4e3" transform="translate(1176 118.584) rotate(0) scale(0.047999997)">
<use href="#path33" transform="translate(0 0)"/>
</g>
</g>
<g>
<g data-source-text="┏" fill="#dee4e3" transform="translate(1248 118.584) rotate(0) scale(0.047999997)">
<use href="#path34" transform="translate(0 0)"/>
</g>
</g>
<g>
<g data-source-text="U+2510" fill="#dee4e3" transform="translate(36 185.292) rotate(0) scale(0.023999998)">
<use href="#path17" transform="translate(0 0)"/>
<use href="#path18" transform="translate(500 0)"/>
<use href="#path3" transform="translate(1000 0)"/>
<use href="#path6" transform="translate(1500 0)"/>
<use href="#path2" transform="translate(2000 0)"/>
<use href="#path1" transform="translate(2500 0)"/>
</g>
</g>
<g>
<g data-source-text="┐" fill="#dee4e3" transform="translate(168 190.584) rotate(0) scale(0.047999997)">
<use href="#path35" transform="translate(0 0)"/>
</g>
</g>
<g>
<g data-source-text="┑" fill="#dee4e3" transform="translate(240 190.584) rotate(0) scale(0.047999997)">
<use href="#path36" transform="translate(0 0)"/>
</g>
</g>
<g>
<g data-source-text="┒" fill="#dee4e3" transform="translate(312 190.584) rotate(0) scale(0.047999997)">
<use href="#path37" transform="translate(0 0)"/>
</g>
</g>
<g>
<g data-source-text="┓" fill="#dee4e3" transform="translate(384 190.584) rotate(0) scale(0.047999997)">
<use href="#path38" transform="translate(0 0)"/>
</g>
</g>
<g>
<g data-source-text="└" fill="#dee4e3" transform="translate(456 190.584) rotate(0) scale(0.047999997)">
<use href="#path39" transform="translate(0 0)"/>
</g>
</g>
<g>
<g data-source-text="┕" fill="#dee4e3" transform="translate(528 190.584) rotate(0) scale(0.047999997)">
<use href="#path40" transform="translate(0 0)"/>
</g>
</g>
<g>
<g data-source-text="┖" fill="#dee4e3" transform="translate(600 190.584) rotate(0) scale(0.047999997)">
<use href="#path41" transform="translate(0 0)"/>
</g>
</g>
<g>
<g data-source-text="┗" fill="#dee4e3" transform="translate(672 190.584) rotate(0) scale(0.047999997)">
<use href="#path42" transform="translate(0 0)"/>
</g>
</g>
<g>
<g data-source-text="┘" fill="#dee4e3" transform="translate(744 190.584) rotate(0) scale(0.047999997)">
<use href="#path43" transform="translate(0 0)"/>
</g>
</g>
<g>
<g data-source-text="┙" fill="#dee4e3" transform="translate(816 190.584) rotate(0) scale(0.047999997)">
<use href="#path44" transform="translate(0 0)"/>
</g>
</g>
<g>
<g data-source-text="┚" fill="#dee4e3" transform="translate(888 190.584) rotate(0) scale(0.047999997)">
<use href="#path45" transform="translate(0 0)"/>
</g>
</g>
<g>
<g data-source-text="┛" fill="#dee4e3" transform="translate(960 190.584) rotate(0) scale(0.047999997)">
<use href="#path46" transform="translate(0 0)"/>
</g>
</g>
<g>
<g data-source-text="├" fill="#dee4e3" transform="translate(1032 190.584) rotate(0) scale(0.047999997)">
<use href="#path47" transform="translate(0 0)"/>
</g>
</g>
<g>
<g data-source-text="┝" fill="#dee4e3" transform="translate(1104 190.584) rotate(0) scale(0.047999997)">
<use href="#path48" transform="translate(0 0)"/>
</g>
</g>
<g>
<g data-source-text="┞" fill="#dee4e3" transform="translate(1176 190.584) rotate(0) scale(0.047999997)">
<use href="#path49" transform="translate(0 0)"/>
</g>
</g>
<g>
<g data-source-text="┟" fill="#dee4e3" transform="translate(1248 190.584) rotate(0) scale(0.047999997)">
<use href="#path50" transform="translate(0 0)"/>
</g>
</g>
<g>
<g data-source-text="U+2520" fill="#dee4e3" transform="translate(36 257.292) rotate(0) scale(0.023999998)">
<use href="#path17" transform="translate(0 0)"/>
<use href="#path18" transform="translate(500 0)"/>
<use href="#path3" transform="translate(1000 0)"/>
<use href="#path6" transform="translate(1500 0)"/>
<use href="#path3" transform="translate(2000 0)"/>
<use href="#path1" transform="translate(2500 0)"/>
</g>
</g>
<g>
<g data-source-text="┠" fill="#dee4e3" transform="translate(168 262.584) rotate(0) scale(0.047999997)">
<use href="#path51" transform="translate(0 0)"/>
</g>
</g>
<g>
<g data-source-text="┡" fill="#dee4e3" transform="translate(240 262.584) rotate(0) scale(0.047999997)">
<use href="#path52" transform="translate(0 0)"/>
</g>
</g>
<g>
<g data-source-text="┢" fill="#dee4e3" transform="translate(312 262.584) rotate(0) scale(0.047999997)">
<use href="#path53" transform="translate(0 0)"/>
</g>
</g>
<g>
<g data-source-text="┣" fill="#dee4e3" transform="translate(384 262.584) rotate(0) scale(0.047999997)">
<use href="#path54" transform="translate(0 0)"/>
</g>
</g>
<g>
<g data-source-text="┤" fill="#dee4e3" transform="translate(456 262.584) rotate(0) scale(0.047999997)">
<use href="#path55" transform="translate(0 0)"/>
</g>
</g>
<g>
<g data-source-text="┥" fill="#dee4e3" transform="translate(528 262.584) rotate(0) scale(0.047999997)">
<use href="#path56" transform="translate(0 0)"/>
</g>
</g>
<g>
<g data-source-text="┦" fill="#dee4e3" transform="translate(600 262.584) rotate(0) scale(0.047999997)">
<use href="#path57" transform="translate(0 0)"/>
</g>
</g>
<g>
<g data-source-text="┧" fill="#dee4e3" transform="translate(672 262.584) rotate(0) scale(0.047999997)">
<use href="#path58" transform="translate(0 0)"/>
</g>
</g>
<g>
<g data-source-text="┨" fill="#dee4e3" transform="translate(744 262.584) rotate(0) scale(0.047999997)">
<use href="#path59" transform="translate(0 0)"/>
</g>
</g>
<g>
<g data-source-text="┩" fill="#dee4e3" transform="translate(816 262.584) rotate(0) scale(0.047999997)">
<use href="#path60" transform="translate(0 0)"/>
</g>
</g>
<g>
<g data-source-text="┪" fill="#dee4e3" transform="translate(888 262.584) rotate(0) scale(0.047999997)">
<use href="#path61" transform="translate(0 0)"/>
</g>
</g>
<g>
<g data-source-text="┫" fill="#dee4e3" transform="translate(960 262.584) rotate(0) scale(0.047999997)">
<use href="#path62" transform="translate(0 0)"/>
</g>
</g>
<g>
<g data-source-text="┬" fill="#dee4e3" transform="translate(1032 262.584) rotate(0) scale(0.047999997)">
<use href="#path63" transform="translate(0 0)"/>
</g>
</g>
<g>
<g data-source-text="┭" fill="#dee4e3" transform="translate(1104 262.584) rotate(0) scale(0.047999997)">
<use href="#path64" transform="translate(0 0)"/>
</g>
</g>
<g>
<g data-source-text="┮" fill="#dee4e3" transform="translate(1176 262.584) rotate(0) scale(0.047999997)">
<use href="#path65" transform="translate(0 0)"/>
</g>
</g>
<g>
<g data-source-text="┯" fill="#dee4e3" transform="translate(1248 262.584) rotate(0) scale(0.047999997)">
<use href="#path66" transform="translate(0 0)"/>
</g>
</g>
<g>
<g data-source-text="U+2530" fill="#dee4e3" transform="translate(36 329.292) rotate(0) scale(0.023999998)">
<use href="#path17" transform="translate(0 0)"/>
<use href="#path18" transform="translate(500 0)"/>
<use href="#path3" transform="translate(1000 0)"/>
<use href="#path6" transform="translate(1500 0)"/>
<use href="#path4" transform="translate(2000 0)"/>
<use href="#path1" transform="translate(2500 0)"/>
</g>
</g>
<g>
<g data-source-text="┰" fill="#dee4e3" transform="translate(168 334.584) rotate(0) scale(0.047999997)">
<use href="#path67" transform="translate(0 0)"/>
</g>
</g>
<g>
<g data-source-text="┱" fill="#dee4e3" transform="translate(240 334.584) rotate(0) scale(0.047999997)">
<use href="#path68" transform="translate(0 0)"/>
</g>
</g>
<g>
<g data-source-text="┲" fill="#dee4e3" transform="translate(312 334.584) rotate(0) scale(0.047999997)">
<use href="#path69" transform="translate(0 0)"/>
</g>
</g>
<g>
<g data-source-text="┳" fill="#dee4e3" transform="translate(384 334.584) rotate(0) scale(0.047999997)">
<use href="#path70" transform="translate(0 0)"/>
</g>
</g>
<g>
<g data-source-text="┴" fill="#dee4e3" transform="translate(456 334.584) rotate(0) scale(0.047999997)">
<use href="#path71" transform="translate(0 0)"/>
</g>
</g>
<g>
<g data-source-text="┵" fill="#dee4e3" transform="translate(528 334.584) rotate(0) scale(0.047999997)">
<use href="#path72" transform="translate(0 0)"/>
</g>
</g>
<g>
<g data-source-text="┶" fill="#dee4e3" transform="translate(600 334.584) rotate(0) scale(0.047999997)">
<use href="#path73" transform="translate(0 0)"/>
</g>
</g>
<g>
<g data-source-text="┷" fill="#dee4e3" transform="translate(672 334.584) rotate(0) scale(0.047999997)">
<use href="#path74" transform="translate(0 0)"/>
</g>
</g>
<g>
<g data-source-text="┸" fill="#dee4e3" transform="translate(744 334.584) rotate(0) scale(0.047999997)">
<use href="#path75" transform="translate(0 0)"/>
</g>
</g>
<g>
<g data-source-text="┹" fill="#dee4e3" transform="translate(816 334.584) rotate(0) scale(0.047999997)">
<use href="#path76" transform="translate(0 0)"/>
</g>
</g>
<g>
<g data-source-text="┺" fill="#dee4e3" transform="translate(888 334.584) rotate(0) scale(0.047999997)">
<use href="#path77" transform="translate(0 0)"/>
</g>
</g>
<g>
<g data-source-text="┻" fill="#dee4e3" transform="translate(960 334.584) rotate(0) scale(0.047999997)">
<use href="#path78" transform="translate(0 0)"/>
</g>
</g>
<g>
<g data-source-text="┼" fill="#dee4e3" transform="translate(1032 334.584) rotate(0) scale(0.047999997)">
<use href="#path79" transform="translate(0 0)"/>
</g>
</g>
<g>
<g data-source-text="┽" fill="#dee4e3" transform="translate(1104 334.584) rotate(0) scale(0.047999997)">
<use href="#path80" transform="translate(0 0)"/>
</g>
</g>
<g>
<g data-source-text="┾" fill="#dee4e3" transform="translate(1176 334.584) rotate(0) scale(0.047999997)">
<use href="#path81" transform="translate(0 0)"/>
</g>
</g>
<g>
<g data-source-text="┿" fill="#dee4e3" transform="translate(1248 334.584) rotate(0) scale(0.047999997)">
<use href="#path82" transform="translate(0 0)"/>
</g>
</g>
<g>
<g data-source-text="U+2540" fill="#dee4e3" transform="translate(36 401.292) rotate(0) scale(0.023999998)">
<use href="#path17" transform="translate(0 0)"/>
<use href="#path18" transform="translate(500 0)"/>
<use href="#path3" transform="translate(1000 0)"/>
<use href="#path6" transform="translate(1500 0)"/>
<use href="#path5" transform="translate(2000 0)"/>
<use href="#path1" transform="translate(2500 0)"/>
</g>
</g>
<g>
<g data-source-text="╀" fill="#dee4e3" transform="translate(168 406.584) rotate(0) scale(0.047999997)">
<use href="#path83" transform="translate(0 0)"/>
</g>
</g>
<g>
<g data-source-text="╁" fill="#dee4e3" transform="translate(240 406.584) rotate(0) scale(0.047999997)">
<use href="#path84" transform="translate(0 0)"/>
</g>
</g>
<g>
<g data-source-text="╂" fill="#dee4e3" transform="translate(312 406.584) rotate(0) scale(0.047999997)">
<use href="#path85" transform="translate(0 0)"/>
</g>
</g>
<g>
<g data-source-text="╃" fill="#dee4e3" transform="translate(384 406.584) rotate(0) scale(0.047999997)">
<use href="#path86" transform="translate(0 0)"/>
</g>
</g>
<g>
<g data-source-text="╄" fill="#dee4e3" transform="translate(456 406.584) rotate(0) scale(0.047999997)">
<use href="#path87" transform="translate(0 0)"/>
</g>
</g>
<g>
<g data-source-text="╅" fill="#dee4e3" transform="translate(528 406.584) rotate(0) scale(0.047999997)">
<use href="#path88" transform="translate(0 0)"/>
</g>
</g>
<g>
<g data-source-text="╆" fill="#dee4e3" transform="translate(600 406.584) rotate(0) scale(0.047999997)">
<use href="#path89" transform="translate(0 0)"/>
</g>
</g>
<g>
<g data-source-text="╇" fill="#dee4e3" transform="translate(672 406.584) rotate(0) scale(0.047999997)">
<use href="#path90" transform="translate(0 0)"/>
</g>
</g>
<g>
<g data-source-text="╈" fill="#dee4e3" transform="translate(744 406.584) rotate(0) scale(0.047999997)">
<use href="#path91" transform="translate(0 0)"/>
</g>
</g>
<g>
<g data-source-text="╉" fill="#dee4e3" transform="translate(816 406.584) rotate(0) scale(0.047999997)">
<use href="#path92" transform="translate(0 0)"/>
</g>
</g>
<g>
<g data-source-text="╊" fill="#dee4e3" transform="translate(888 406.584) rotate(0) scale(0.047999997)">
<use href="#path93" transform="translate(0 0)"/>
</g>
</g>
<g>
<g data-source-text="╋" fill="#dee4e3" transform="translate(960 406.584) rotate(0) scale(0.047999997)">
<use href="#path94" transform="translate(0 0)"/>
</g>
</g>
<g>
<g data-source-text="╌" fill="#dee4e3" transform="translate(1032 406.584) rotate(0) scale(0.047999997)">
<use href="#path95" transform="translate(0 0)"/>
</g>
</g>
<g>
<g data-source-text="╍" fill="#dee4e3" transform="translate(1104 406.584) rotate(0) scale(0.047999997)">
<use href="#path96" transform="translate(0 0)"/>
</g>
</g>
<g>
<g data-source-text="╎" fill="#dee4e3" transform="translate(1176 406.584) rotate(0) scale(0.047999997)">
<use href="#path97" transform="translate(0 0)"/>
</g>
</g>
<g>
<g data-source-text="╏" fill="#dee4e3" transform="translate(1248 406.584) rotate(0) scale(0.047999997)">
<use href="#path98" transform="translate(0 0)"/>
</g>
</g>
<g>
<g data-source-text="U+2550" fill="#dee4e3" transform="translate(36 473.292) rotate(0) scale(0.023999998)">
<use href="#path17" transform="translate(0 0)"/>
<use href="#path18" transform="translate(500 0)"/>
<use href="#path3" transform="translate(1000 0)"/>
<use href="#path6" transform="translate(1500 0)"/>
<use href="#path6" transform="translate(2000 0)"/>
<use href="#path1" transform="translate(2500 0)"/>
</g>
</g>
<g>
<g data-source-text="═" fill="#dee4e3" transform="translate(168 478.584) rotate(0) scale(0.047999997)">
<use href="#path99" transform="translate(0 0)"/>
</g>
</g>
<g>
<g data-source-text="║" fill="#dee4e3" transform="translate(240 478.584) rotate(0) scale(0.047999997)">
<use href="#path100" transform="translate(0 0)"/>
</g>
</g>
<g>
<g data-source-text="╒" fill="#dee4e3" transform="translate(312 478.584) rotate(0) scale(0.047999997)">
<use href="#path101" transform="translate(0 0)"/>
</g>
</g>
<g>
<g data-source-text="╓" fill="#dee4e3" transform="translate(384 478.584) rotate(0) scale(0.047999997)">
<use href="#path102" transform="translate(0 0)"/>
</g>
</g>
<g>
<g data-source-text="╔" fill="#dee4e3" transform="translate(456 478.584) rotate(0) scale(0.047999997)">
<use href="#path103" transform="translate(0 0)"/>
</g>
</g>
<g>
<g data-source-text="╕" fill="#dee4e3" transform="translate(528 478.584) rotate(0) scale(0.047999997)">
<use href="#path104" transform="translate(0 0)"/>
</g>
</g>
<g>
<g data-source-text="╖" fill="#dee4e3" transform="translate(600 478.584) rotate(0) scale(0.047999997)">
<use href="#path105" transform="translate(0 0)"/>
</g>
</g>
<g>
<g data-source-text="╗" fill="#dee4e3" transform="translate(672 478.584) rotate(0) scale(0.047999997)">
<use href="#path106" transform="translate(0 0)"/>
</g>
</g>
<g>
<g data-source-text="╘" fill="#dee4e3" transform="translate(744 478.584) rotate(0) scale(0.047999997)">
<use href="#path107" transform="translate(0 0)"/>
</g>
</g>
<g>
<g data-source-text="╙" fill="#dee4e3" transform="translate(816 478.584) rotate(0) scale(0.047999997)">
<use href="#path108" transform="translate(0 0)"/>
</g>
</g>
<g>
<g data-source-text="╚" fill="#dee4e3" transform="translate(888 478.584) rotate(0) scale(0.047999997)">
<use href="#path109" transform="translate(0 0)"/>
</g>
</g>
<g>
<g data-source-text="╛" fill="#dee4e3" transform="translate(960 478.584) rotate(0) scale(0.047999997)">
<use href="#path110" transform="translate(0 0)"/>
</g>
</g>
<g>
<g data-source-text="╜" fill="#dee4e3" transform="translate(1032 478.584) rotate(0) scale(0.047999997)">
<use href="#path111" transform="translate(0 0)"/>
</g>
</g>
<g>
<g data-source-text="╝" fill="#dee4e3" transform="translate(1104 478.584) rotate(0) scale(0.047999997)">
<use href="#path112" transform="translate(0 0)"/>
</g>
</g>
<g>
<g data-source-text="╞" fill="#dee4e3" transform="translate(1176 478.584) rotate(0) scale(0.047999997)">
<use href="#path113" transform="translate(0 0)"/>
</g>
</g>
<g>
<g data-source-text="╟" fill="#dee4e3" transform="translate(1248 478.584) rotate(0) scale(0.047999997)">
<use href="#path114" transform="translate(0 0)"/>
</g>
</g>
<g>
<g data-source-text="U+2560" fill="#dee4e3" transform="translate(36 545.292) rotate(0) scale(0.023999998)">
<use href="#path17" transform="translate(0 0)"/>
<use href="#path18" transform="translate(500 0)"/>
<use href="#path3" transform="translate(1000 0)"/>
<use href="#path6" transform="translate(1500 0)"/>
<use href="#path7" transform="translate(2000 0)"/>
<use href="#path1" transform="translate(2500 0)"/>
</g>
</g>
<g>
<g data-source-text="╠" fill="#dee4e3" transform="translate(168 550.584) rotate(0) scale(0.047999997)">
<use href="#path115" transform="translate(0 0)"/>
</g>
</g>
<g>
<g data-source-text="╡" fill="#dee4e3" transform="translate(240 550.584) rotate(0) scale(0.047999997)">
<use href="#path116" transform="translate(0 0)"/>
</g>
</g>
<g>
<g data-source-text="╢" fill="#dee4e3" transform="translate(312 550.584) rotate(0) scale(0.047999997)">
<use href="#path117" transform="translate(0 0)"/>
</g>
</g>
<g>
<g data-source-text="╣" fill="#dee4e3" transform="translate(384 550.584) rotate(0) scale(0.047999997)">
<use href="#path118" transform="translate(0 0)"/>
</g>
</g>
<g>
<g data-source-text="╤" fill="#dee4e3" transform="translate(456 550.584) rotate(0) scale(0.047999997)">
<use href="#path119" transform="translate(0 0)"/>
</g>
</g>
<g>
<g data-source-text="╥" fill="#dee4e3" transform="translate(528 550.584) rotate(0) scale(0.047999997)">
<use href="#path120" transform="translate(0 0)"/>
</g>
</g>
<g>
<g data-source-text="╦" fill="#dee4e3" transform="translate(600 550.584) rotate(0) scale(0.047999997)">
<use href="#path121" transform="translate(0 0)"/>
</g>
</g>
<g>
<g data-source-text="╧" fill="#dee4e3" transform="translate(672 550.584) rotate(0) scale(0.047999997)">
<use href="#path122" transform="translate(0 0)"/>
</g>
</g>
<g>
<g data-source-text="╨" fill="#dee4e3" transform="translate(744 550.584) rotate(0) scale(0.047999997)">
<use href="#path123" transform="translate(0 0)"/>
</g>
</g>
<g>
<g data-source-text="╩" fill="#dee4e3" transform="translate(816 550.584) rotate(0) scale(0.047999997)">
<use href="#path124" transform="translate(0 0)"/>
</g>
</g>
<g>
<g data-source-text="╪" fill="#dee4e3" transform="translate(888 550.584) rotate(0) scale(0.047999997)">
<use href="#path125" transform="translate(0 0)"/>
</g>
</g>
<g>
<g data-source-text="╫" fill="#dee4e3" transform="translate(960 550.584) rotate(0) scale(0.047999997)">
<use href="#path126" transform="translate(0 0)"/>
</g>
</g>
<g>
<g data-source-text="╬" fill="#dee4e3" transform="translate(1032 550.584) rotate(0) scale(0.047999997)">
<use href="#path127" transform="translate(0 0)"/>
</g>
</g>
<g>
<g data-source-text="╭" fill="#dee4e3" transform="translate(1104 550.584) rotate(0) scale(0.047999997)">
<use href="#path128" transform="translate(0 0)"/>
</g>
</g>
<g>
<g data-source-text="╮" fill="#dee4e3" transform="translate(1176 550.584) rotate(0) scale(0.047999997)">
<use href="#path129" transform="translate(0 0)"/>
</g>
</g>
<g>
<g data-source-text="╯" fill="#dee4e3" transform="translate(1248 550.584) rotate(0) scale(0.047999997)">
<use href="#path130" transform="translate(0 0)"/>
</g>
</g>
<g>
<g data-source-text="U+2570" fill="#dee4e3" transform="translate(36 617.292) rotate(0) scale(0.023999998)">
<use href="#path17" transform="translate(0 0)"/>
<use href="#path18" transform="translate(500 0)"/>
<use href="#path3" transform="translate(1000 0)"/>
<use href="#path6" transform="translate(1500 0)"/>
<use href="#path8" transform="translate(2000 0)"/>
<use href="#path1" transform="translate(2500 0)"/>
</g>
</g>
<g>
<g data-source-text="╰" fill="#dee4e3" transform="translate(168 622.584) rotate(0) scale(0.047999997)">
<use href="#path131" transform="translate(0 0)"/>
</g>
</g>
<g>
<g data-source-text="╱" fill="#dee4e3" transform="translate(240 622.584) rotate(0) scale(0.047999997)">
<use href="#path132" transform="translate(0 0)"/>
</g>
</g>
<g>
<g data-source-text="╲" fill="#dee4e3" transform="translate(312 622.584) rotate(0) scale(0.047999997)">
<use href="#path133" transform="translate(0 0)"/>
</g>
</g>
<g>
<g data-source-text="╳" fill="#dee4e3" transform="translate(384 622.584) rotate(0) scale(0.047999997)">
<use href="#path134" transform="translate(0 0)"/>
</g>
</g>
<g>
<g data-source-text="╴" fill="#dee4e3" transform="translate(456 622.584) rotate(0) scale(0.047999997)">
<use href="#path135" transform="translate(0 0)"/>
</g>
</g>
<g>
<g data-source-text="╵" fill="#dee4e3" transform="translate(528 622.584) rotate(0) scale(0.047999997)">
<use href="#path136" transform="translate(0 0)"/>
</g>
</g>
<g>
<g data-source-text="╶" fill="#dee4e3" transform="translate(600 622.584) rotate(0) scale(0.047999997)">
<use href="#path137" transform="translate(0 0)"/>
</g>
</g>
<g>
<g data-source-text="╷" fill="#dee4e3" transform="translate(672 622.584) rotate(0) scale(0.047999997)">
<use href="#path138" transform="translate(0 0)"/>
</g>
</g>
<g>
<g data-source-text="╸" fill="#dee4e3" transform="translate(744 622.584) rotate(0) scale(0.047999997)">
<use href="#path139" transform="translate(0 0)"/>
</g>
</g>
<g>
<g data-source-text="╹" fill="#dee4e3" transform="translate(816 622.584) rotate(0) scale(0.047999997)">
<use href="#path140" transform="translate(0 0)"/>
</g>
</g>
<g>
<g data-source-text="╺" fill="#dee4e3" transform="translate(888 622.584) rotate(0) scale(0.047999997)">
<use href="#path141" transform="translate(0 0)"/>
</g>
</g>
<g>
<g data-source-text="╻" fill="#dee4e3" transform="translate(960 622.584) rotate(0) scale(0.047999997)">
<use href="#path142" transform="translate(0 0)"/>
</g>
</g>
<g>
<g data-source-text="╼" fill="#dee4e3" transform="translate(1032 622.584) rotate(0) scale(0.047999997)">
<use href="#path143" transform="translate(0 0)"/>
</g>
</g>
<g>
<g data-source-text="╽" fill="#dee4e3" transform="translate(1104 622.584) rotate(0) scale(0.047999997)">
<use href="#path144" transform="translate(0 0)"/>
</g>
</g>
<g>
<g data-source-text="╾" fill="#dee4e3" transform="translate(1176 622.584) rotate(0) scale(0.047999997)">
<use href="#path145" transform="translate(0 0)"/>
</g>
</g>
<g>
<g data-source-text="╿" fill="#dee4e3" transform="translate(1248 622.584) rotate(0) scale(0.047999997)">
<use href="#path146" transform="translate(0 0)"/>
</g>
</g>
</svg>