<?xml version="1.0" encoding="UTF-8" standalone="no"?>
<svg height="216" viewBox="0 0 1296 216" width="1296" xmlns="http://www.w3.org/2000/svg">
<defs>
<path d="M 250 8 Q 223 8 196 3 Q 169 -2 145 -15 Q 121 -28 102.5 -48.5 Q 84 -69 72.5 -94 Q 61 -119 56.5 -146 Q 52 -173 52 -200 L 52 -535 Q 52 -562 56.5 -589 Q 61 -616 72.5 -641 Q 84 -666 102.5 -686.5 Q 121 -707 145 -720 Q 169 -733 196 -738 Q 223 -743 250 -743 Q 277 -743 304 -738 Q 331 -733 355 -720 Q 379 -707 397.5 -686.5 Q 416 -666 427.5 -641 Q 439 -616 443.5 -589 Q 448 -562 448 -535 L 448 -200 Q 448 -173 443.5 -146 Q 439 -119 427.5 -94 Q 416 -69 397.5 -48.5 Q 379 -28 355 -15 Q 331 -2 304 3 Q 277 8 250 8 Z M 153 -337 L 347 -491 L 347 -535 Q 347 -557 342.5 -578.5 Q 338 -600 325.5 -618 Q 313 -636 292.5 -645.5 Q 272 -655 250 -655 Q 228 -655 207.5 -645.5 Q 187 -636 174.5 -618 Q 162 -600 157.5 -578.5 Q 153 -557 153 -535 Z M 250 -80 Q 272 -80 292.5 -89.5 Q 313 -99 325.5 -117 Q 338 -135 342.5 -156.5 Q 347 -178 347 -200 L 347 -398 L 153 -244 L 153 -200 Q 153 -178 157.5 -156.5 Q 162 -135 174.5 -117 Q 187 -99 207.5 -89.5 Q 228 -80 250 -80 Z " id="path1"/>
<path d="M 230 0 L 230 -637 L 107 -542 L 55 -600 L 230 -735 L 330 -735 L 330 0 Z " id="path2"/>
<path d="M 60 0 L 60 -1 Q 60 -27 61 -53.5 Q 62 -80 66 -106.5 Q 70 -133 77.5 -158.5 Q 85 -184 96.5 -207.5 Q 108 -231 123 -253 Q 138 -275 156 -294.5 Q 174 -314 194 -331 Q 214 -348 235.5 -364 Q 257 -380 277.5 -397 Q 298 -414 313 -435.5 Q 328 -457 335.5 -483 Q 343 -509 343 -535 Q 343 -557 339 -578 Q 335 -599 323.5 -617 Q 312 -635 292 -645 Q 272 -655 251 -655 Q 231 -655 213 -648 Q 195 -641 182.5 -626.5 Q 170 -612 164.5 -593 Q 159 -574 159 -555 L 159 -554 L 58 -554 L 58 -556 Q 58 -581 64 -606 Q 70 -631 82 -653.5 Q 94 -676 112 -694 Q 130 -712 152.5 -723 Q 175 -734 200 -738.5 Q 225 -743 251 -743 Q 278 -743 304.5 -737.5 Q 331 -732 354 -719 Q 377 -706 395 -685.5 Q 413 -665 424 -640.5 Q 435 -616 439.5 -589 Q 444 -562 444 -535 Q 444 -501 435 -468 Q 426 -435 407.5 -406 Q 389 -377 364 -353.5 Q 339 -330 312.5 -308.5 Q 286 -287 261 -264 Q 236 -241 216.5 -213 Q 197 -185 184 -153.5 Q 171 -122 166 -88 L 440 -88 L 440 0 Z " id="path3"/>
<path d="M 252 8 Q 226 8 200 3.5 Q 174 -1 150.5 -12 Q 127 -23 107.5 -41 Q 88 -59 75.5 -82 Q 63 -105 56.5 -130.5 Q 50 -156 50 -183 L 151 -183 Q 151 -162 157.5 -142.5 Q 164 -123 178 -108 Q 192 -93 212 -86.5 Q 232 -80 252 -80 Q 275 -80 296 -88.5 Q 317 -97 330.5 -114.5 Q 344 -132 349.5 -154 Q 355 -176 355 -198 Q 355 -217 351 -235.5 Q 347 -254 338.5 -271 Q 330 -288 316.5 -301 Q 303 -314 286 -322 Q 269 -330 250 -332 Q 231 -334 212 -334 L 212 -422 Q 229 -422 246 -424 Q 263 -426 278.5 -433 Q 294 -440 306 -452.5 Q 318 -465 325.5 -480.5 Q 333 -496 336 -512.5 Q 339 -529 339 -546 Q 339 -566 334.5 -585.5 Q 330 -605 319.5 -621 Q 309 -637 290.5 -646 Q 272 -655 253 -655 Q 234 -655 216.5 -647.5 Q 199 -640 188 -625.5 Q 177 -611 172 -593 Q 167 -575 167 -556 L 167 -555 L 66 -555 L 66 -558 Q 66 -582 71.5 -606.5 Q 77 -631 88.5 -653 Q 100 -675 117.5 -693 Q 135 -711 157 -722.5 Q 179 -734 203.5 -738.5 Q 228 -743 253 -743 Q 278 -743 303 -738 Q 328 -733 350.5 -721 Q 373 -709 390 -690 Q 407 -671 418 -648 Q 429 -625 434.5 -600 Q 440 -575 440 -549 Q 440 -524 434 -498.5 Q 428 -473 415.5 -450.5 Q 403 -428 384.5 -409.5 Q 366 -391 343 -379 Q 369 -368 391 -348.5 Q 413 -329 427.5 -304.5 Q 442 -280 449 -252 Q 456 -224 456 -196 Q 456 -168 450 -141.5 Q 444 -115 432 -91 Q 420 -67 400.5 -47 Q 381 -27 357 -14.5 Q 333 -2 306.5 3 Q 280 8 252 8 Z " id="path4"/>
<path d="M 282 0 L 282 -188 L 52 -188 L 52 -275 L 276 -735 L 385 -735 L 161 -275 L 282 -275 L 282 -435 L 382 -435 L 382 -275 L 440 -275 L 440 -188 L 382 -188 L 382 0 Z " id="path5"/>
<path d="M 252 8 Q 227 8 202.5 3.5 Q 178 -1 156.5 -12.5 Q 135 -24 117.5 -42 Q 100 -60 88 -81 Q 76 -102 69 -126 Q 62 -150 60 -174 L 60 -176 L 160 -176 L 161 -172 Q 164 -154 170.5 -137 Q 177 -120 188.5 -107 Q 200 -94 217 -87 Q 234 -80 252 -80 Q 269 -80 285 -87 Q 301 -94 312 -106.5 Q 323 -119 330 -135 Q 337 -151 340.5 -167.5 Q 344 -184 345.5 -201 Q 347 -218 347 -235 Q 347 -252 345.5 -269 Q 344 -286 340.5 -302.5 Q 337 -319 330.5 -334.5 Q 324 -350 313.5 -363 Q 303 -376 287 -383.5 Q 271 -391 254 -391 Q 236 -391 219.5 -384 Q 203 -377 191.5 -363 Q 180 -349 174.5 -331.5 Q 169 -314 168 -296 L 68 -296 L 68 -735 L 421 -735 L 421 -647 L 168 -647 L 168 -462 Q 188 -471 210 -474.5 Q 232 -478 254 -478 Q 284 -478 312.5 -470.5 Q 341 -463 364.5 -445.5 Q 388 -428 404.5 -403.5 Q 421 -379 430.5 -351 Q 440 -323 444 -294 Q 448 -265 448 -235 Q 448 -206 444 -176.5 Q 440 -147 430.5 -119 Q 421 -91 404 -66.5 Q 387 -42 363 -24.5 Q 339 -7 310 0.5 Q 281 8 252 8 Z " id="path6"/>
<path d="M 250 8 Q 219 8 189 -0.5 Q 159 -9 135 -28 Q 111 -47 94.5 -73.5 Q 78 -100 68.5 -129 Q 59 -158 55.5 -189 Q 52 -220 52 -250 Q 52 -291 60 -331 Q 68 -371 82 -409 Q 96 -447 114 -483.5 Q 132 -520 150 -556 L 238 -735 L 347 -735 L 240 -517 Q 232 -500 223 -483.5 Q 214 -467 205 -451 Q 217 -454 229 -455 Q 241 -456 253 -456 Q 281 -456 309.5 -449 Q 338 -442 361.5 -426 Q 385 -410 402.5 -386.5 Q 420 -363 430 -336.5 Q 440 -310 444 -281.5 Q 448 -253 448 -224 Q 448 -195 444 -166.5 Q 440 -138 429.5 -111 Q 419 -84 401.5 -60.5 Q 384 -37 360 -21 Q 336 -5 307.5 1.5 Q 279 8 250 8 Z M 250 -80 Q 266 -80 282 -85.5 Q 298 -91 309.5 -102.5 Q 321 -114 328.5 -129 Q 336 -144 340 -159.5 Q 344 -175 345.5 -191.5 Q 347 -208 347 -224 Q 347 -240 345.5 -256.5 Q 344 -273 340 -288.5 Q 336 -304 328.5 -319 Q 321 -334 309.5 -345.5 Q 298 -357 282.5 -362.5 Q 267 -368 251 -368 Q 234 -368 218.5 -362.5 Q 203 -357 191.5 -345.5 Q 180 -334 172 -319.5 Q 164 -305 160 -289 Q 156 -273 154.5 -256.5 Q 153 -240 153 -224 Q 153 -208 154.5 -191.5 Q 156 -175 160 -159.5 Q 164 -144 171.5 -129 Q 179 -114 190.5 -102.5 Q 202 -91 218 -85.5 Q 234 -80 250 -80 Z " id="path7"/>
<path d="M 138 0 L 336 -647 L 60 -647 L 60 -735 L 440 -735 L 440 -647 L 242 0 Z " id="path8"/>
<path d="M 250 8 Q 225 8 200 4 Q 175 -0 152 -10 Q 129 -20 110 -37 Q 91 -54 78 -75.5 Q 65 -97 58.5 -121.5 Q 52 -146 52 -171 Q 52 -202 62 -232 Q 72 -262 88.5 -288 Q 105 -314 127 -336 Q 149 -358 174 -378 Q 152 -396 132.5 -417 Q 113 -438 98.5 -462.5 Q 84 -487 76 -514.5 Q 68 -542 68 -571 Q 68 -594 73.5 -617.5 Q 79 -641 90.5 -661.5 Q 102 -682 119.5 -698.5 Q 137 -715 158 -725 Q 179 -735 202.5 -739 Q 226 -743 250 -743 Q 274 -743 297.5 -739 Q 321 -735 342 -725 Q 363 -715 380.5 -698.5 Q 398 -682 409.5 -661.5 Q 421 -641 426.5 -617.5 Q 432 -594 432 -571 Q 432 -542 424 -514.5 Q 416 -487 401.5 -462.5 Q 387 -438 367.5 -417 Q 348 -396 326 -378 Q 351 -358 373 -336 Q 395 -314 411.5 -288 Q 428 -262 438 -232 Q 448 -202 448 -171 Q 448 -146 441.5 -121.5 Q 435 -97 422 -75.5 Q 409 -54 390 -37 Q 371 -20 348 -10 Q 325 -0 300 4 Q 275 8 250 8 Z M 250 -435 Q 266 -447 280.5 -461.5 Q 295 -476 306.5 -493 Q 318 -510 325 -529.5 Q 332 -549 332 -569 Q 332 -586 326.5 -602.5 Q 321 -619 310 -631.5 Q 299 -644 283 -649.5 Q 267 -655 250 -655 Q 233 -655 217 -649.5 Q 201 -644 190 -631.5 Q 179 -619 173.5 -602.5 Q 168 -586 168 -569 Q 168 -549 175 -529.5 Q 182 -510 193.5 -493 Q 205 -476 219.5 -461.5 Q 234 -447 250 -435 Z M 250 -80 Q 269 -80 287.5 -85.5 Q 306 -91 320 -104 Q 334 -117 340.5 -135.5 Q 347 -154 347 -173 Q 347 -196 338.5 -217.5 Q 330 -239 316.5 -257.5 Q 303 -276 285.5 -291 Q 268 -306 250 -320 Q 232 -306 214.5 -291 Q 197 -276 183.5 -257.5 Q 170 -239 161.5 -217.5 Q 153 -196 153 -173 Q 153 -154 159.5 -135.5 Q 166 -117 180 -104 Q 194 -91 212.5 -85.5 Q 231 -80 250 -80 Z " id="path9"/>
<path d="M 262 0 L 153 0 L 260 -218 Q 268 -235 277 -251.5 Q 286 -268 295 -284 Q 283 -281 271 -280 Q 259 -279 247 -279 Q 219 -279 190.5 -286 Q 162 -293 138.5 -309 Q 115 -325 97.5 -348.5 Q 80 -372 70 -398.5 Q 60 -425 56 -453.5 Q 52 -482 52 -511 Q 52 -540 56 -568.5 Q 60 -597 70.5 -624 Q 81 -651 98.5 -674.5 Q 116 -698 140 -714 Q 164 -730 192.5 -736.5 Q 221 -743 250 -743 Q 281 -743 311 -734.5 Q 341 -726 365 -707 Q 389 -688 405.5 -661.5 Q 422 -635 431.5 -606 Q 441 -577 444.5 -546 Q 448 -515 448 -485 Q 448 -444 440 -404 Q 432 -364 418 -326 Q 404 -288 386 -251.5 Q 368 -215 350 -179 Z M 249 -367 Q 266 -367 281.5 -372.5 Q 297 -378 308.5 -389.5 Q 320 -401 328 -415.5 Q 336 -430 340 -446 Q 344 -462 345.5 -478.5 Q 347 -495 347 -511 Q 347 -527 345.5 -543.5 Q 344 -560 340 -575.5 Q 336 -591 328.5 -606 Q 321 -621 309.5 -632.5 Q 298 -644 282 -649.5 Q 266 -655 250 -655 Q 234 -655 218 -649.5 Q 202 -644 190.5 -632.5 Q 179 -621 171.5 -606 Q 164 -591 160 -575.5 Q 156 -560 154.5 -543.5 Q 153 -527 153 -511 Q 153 -495 154.5 -478.5 Q 156 -462 160 -446.5 Q 164 -431 171.5 -416 Q 179 -401 190.5 -389.5 Q 202 -378 217.5 -372.5 Q 233 -367 249 -367 Z " id="path10"/>
<path d="M 39 0 L 192 -735 L 308 -735 L 461 0 L 358 0 L 326 -172 L 174 -172 L 142 0 Z M 309 -260 L 265 -490 Q 262 -511 258 -531.5 Q 254 -552 250 -572 Q 246 -552 242 -531.5 Q 238 -511 235 -490 L 191 -260 Z " id="path11"/>
<path d="M 60 0 L 60 -735 L 234 -735 Q 261 -735 287 -730.5 Q 313 -726 336 -714 Q 359 -702 377.5 -682.5 Q 396 -663 408 -639.5 Q 420 -616 424.5 -590 Q 429 -564 429 -538 Q 429 -515 425 -492 Q 421 -469 410.5 -448.5 Q 400 -428 383.5 -411 Q 367 -394 347 -383 Q 372 -373 393.5 -355.5 Q 415 -338 429.5 -314.5 Q 444 -291 450 -264 Q 456 -237 456 -210 Q 456 -181 450 -152.5 Q 444 -124 430 -98.5 Q 416 -73 394.5 -53.5 Q 373 -34 347 -21.5 Q 321 -9 292 -4.5 Q 263 -0 234 0 Z M 161 -424 L 234 -424 Q 255 -424 274.5 -432.5 Q 294 -441 306.5 -457.5 Q 319 -474 324 -494.5 Q 329 -515 329 -536 Q 329 -557 324 -577.5 Q 319 -598 306.5 -614.5 Q 294 -631 274.5 -639 Q 255 -647 234 -647 L 161 -647 Z M 161 -88 L 234 -88 Q 251 -88 267 -91 Q 283 -94 297.5 -101.5 Q 312 -109 323.5 -121 Q 335 -133 342.5 -148 Q 350 -163 352.5 -179 Q 355 -195 355 -212 Q 355 -228 352.5 -244.5 Q 350 -261 343 -276 Q 336 -291 324.5 -303 Q 313 -315 298 -322.5 Q 283 -330 267 -333 Q 251 -336 234 -336 L 161 -336 Z " id="path12"/>
<path d="M 247 8 Q 220 8 193.5 2.5 Q 167 -3 143.5 -16 Q 120 -29 101.5 -49.5 Q 83 -70 72 -94.5 Q 61 -119 56.5 -146 Q 52 -173 52 -200 L 52 -535 Q 52 -562 56.5 -589 Q 61 -616 72 -640.5 Q 83 -665 101.5 -685.5 Q 120 -706 143.5 -719 Q 167 -732 193.5 -737.5 Q 220 -743 247 -743 Q 273 -743 298 -738.5 Q 323 -734 346 -723 Q 369 -712 387.5 -694 Q 406 -676 418 -653.5 Q 430 -631 436 -606 Q 442 -581 442 -556 L 442 -554 L 341 -554 L 341 -555 Q 341 -575 335.5 -593.5 Q 330 -612 317 -627 Q 304 -642 285.5 -648.5 Q 267 -655 247 -655 Q 226 -655 206 -645.5 Q 186 -636 173.5 -618 Q 161 -600 157 -578.5 Q 153 -557 153 -535 L 153 -200 Q 153 -178 157 -156.5 Q 161 -135 173.5 -117 Q 186 -99 206 -89.5 Q 226 -80 247 -80 Q 267 -80 285.5 -86.5 Q 304 -93 317 -108 Q 330 -123 335.5 -141.5 Q 341 -160 341 -180 L 341 -181 L 442 -181 L 442 -179 Q 442 -154 436 -129 Q 430 -104 418 -81.5 Q 406 -59 387.5 -41 Q 369 -23 346 -12 Q 323 -1 298 3.5 Q 273 8 247 8 Z " id="path13"/>
<path d="M 60 0 L 60 -735 L 219 -735 Q 249 -735 279 -730 Q 309 -725 336.5 -712 Q 364 -699 386 -678.5 Q 408 -658 422 -631.5 Q 436 -605 442 -575 Q 448 -545 448 -515 L 448 -220 Q 448 -190 442 -160 Q 436 -130 422 -103.5 Q 408 -77 386 -56.5 Q 364 -36 336.5 -23 Q 309 -10 279 -5 Q 249 -0 219 0 Z M 161 -88 L 219 -88 Q 237 -88 254 -91 Q 271 -94 286.5 -102.5 Q 302 -111 314 -124 Q 326 -137 333.5 -152.5 Q 341 -168 344 -185.5 Q 347 -203 347 -220 L 347 -515 Q 347 -532 344 -549.5 Q 341 -567 333.5 -582.5 Q 326 -598 314 -611 Q 302 -624 286.5 -632.5 Q 271 -641 254 -644 Q 237 -647 219 -647 L 161 -647 Z " id="path14"/>
<path d="M 68 0 L 68 -735 L 440 -735 L 440 -647 L 169 -647 L 169 -426 L 383 -426 L 383 -338 L 169 -338 L 169 -88 L 440 -88 L 440 0 Z " id="path15"/>
<path d="M 91 0 L 91 -735 L 440 -735 L 440 -647 L 191 -647 L 191 -426 L 383 -426 L 383 -338 L 191 -338 L 191 0 Z " id="path16"/>
<path d="M 250 8 Q 223 8 196.5 2.5 Q 170 -3 147 -16.5 Q 124 -30 106.5 -50.5 Q 89 -71 78.5 -95.5 Q 68 -120 64 -146.5 Q 60 -173 60 -200 L 60 -735 L 161 -735 L 161 -200 Q 161 -186 162.5 -172 Q 164 -158 168 -144.5 Q 172 -131 179.5 -118.5 Q 187 -106 197.5 -97 Q 208 -88 222 -84 Q 236 -80 250 -80 Q 264 -80 278 -84 Q 292 -88 302.5 -97 Q 313 -106 320.5 -118.5 Q 328 -131 332 -144.5 Q 336 -158 337.5 -172 Q 339 -186 339 -200 L 339 -735 L 440 -735 L 440 -200 Q 440 -173 436 -146.5 Q 432 -120 421.5 -95.5 Q 411 -71 393.5 -50.5 Q 376 -30 353 -16.5 Q 330 -3 303.5 2.5 Q 277 8 250 8 Z " id="path17"/>
<path d="M 300 -143 L 200 -143 L 200 -296 L 60 -296 L 60 -384 L 200 -384 L 200 -537 L 300 -537 L 300 -384 L 440 -384 L 440 -296 L 300 -296 Z " id="path18"/>
<path d="M 250 -526 Q 240 -526 233 -533 Q 226 -540 226 -550 Q 226 -560 233 -567 Q 240 -574 250 -574 Q 260 -574 267 -567 Q 274 -560 274 -550 Q 274 -540 267 -533 Q 260 -526 250 -526 Z M 145 -498 Q 135 -498 128 -505 Q 121 -512 121 -522 Q 121 -531 128 -538.5 Q 135 -546 145 -546 Q 155 -546 162 -538.5 Q 169 -531 169 -522 Q 169 -512 162 -505 Q 155 -498 145 -498 Z M 355 -498 Q 345 -498 338 -505 Q 331 -512 331 -522 Q 331 -531 338 -538.5 Q 345 -546 355 -546 Q 365 -546 372 -538.5 Q 379 -531 379 -522 Q 379 -512 372 -505 Q 365 -498 355 -498 Z M 68 -421 Q 59 -421 51.5 -428 Q 44 -435 44 -445 Q 44 -455 51.5 -462 Q 59 -469 68 -469 Q 78 -469 85 -462 Q 92 -455 92 -445 Q 92 -435 85 -428 Q 78 -421 68 -421 Z M 432 -421 Q 422 -421 415 -428 Q 408 -435 408 -445 Q 408 -455 415 -462 Q 422 -469 432 -469 Q 441 -469 448.5 -462 Q 456 -455 456 -445 Q 456 -435 448.5 -428 Q 441 -421 432 -421 Z M 40 -316 Q 30 -316 23 -323 Q 16 -330 16 -340 Q 16 -350 23 -357 Q 30 -364 40 -364 Q 50 -364 57 -357 Q 64 -350 64 -340 Q 64 -330 57 -323 Q 50 -316 40 -316 Z M 460 -316 Q 450 -316 443 -323 Q 436 -330 436 -340 Q 436 -350 443 -357 Q 450 -364 460 -364 Q 470 -364 477 -357 Q 484 -350 484 -340 Q 484 -330 477 -323 Q 470 -316 460 -316 Z M 432 -211 Q 422 -211 415 -218 Q 408 -225 408 -235 Q 408 -245 415 -252 Q 422 -259 432 -259 Q 441 -259 448.5 -252 Q 456 -245 456 -235 Q 456 -225 448.5 -218 Q 441 -211 432 -211 Z M 68 -211 Q 59 -211 51.5 -218 Q 44 -225 44 -235 Q 44 -245 51.5 -252 Q 59 -259 68 -259 Q 78 -259 85 -252 Q 92 -245 92 -235 Q 92 -225 85 -218 Q 78 -211 68 -211 Z M 355 -134 Q 345 -134 338 -141.5 Q 331 -149 331 -158 Q 331 -168 338 -175 Q 345 -182 355 -182 Q 365 -182 372 -175 Q 379 -168 379 -158 Q 379 -149 372 -141.5 Q 365 -134 355 -134 Z M 145 -134 Q 135 -134 128 -141.5 Q 121 -149 121 -158 Q 121 -168 128 -175 Q 135 -182 145 -182 Q 155 -182 162 -175 Q 169 -168 169 -158 Q 169 -149 162 -141.5 Q 155 -134 145 -134 Z M 250 -106 Q 240 -106 233 -113 Q 226 -120 226 -130 Q 226 -140 233 -147 Q 240 -154 250 -154 Q 260 -154 267 -147 Q 274 -140 274 -130 Q 274 -120 267 -113 Q 260 -106 250 -106 Z " id="path19"/>
<path d="M -250 -597 Q -266 -597 -282 -602.5 Q -298 -608 -308.5 -620 Q -319 -632 -323.5 -648 Q -328 -664 -328 -680 L -328 -772 Q -328 -791 -325 -809.5 Q -322 -828 -311.5 -843 Q -301 -858 -284.5 -866.5 Q -268 -875 -249.5 -878 Q -231 -881 -213 -884.5 Q -195 -888 -178 -894 L -178 -859 Q -190 -854 -202.5 -851 Q -215 -848 -227.5 -846.5 Q -240 -845 -252.5 -842 Q -265 -839 -274.5 -830.5 Q -284 -822 -288 -809.5 Q -292 -797 -292 -784 L -292 -781 Q -285 -792 -273 -797.5 Q -261 -803 -248 -803 Q -232 -803 -216.5 -797 Q -201 -791 -191 -779 Q -181 -767 -176.5 -751 Q -172 -735 -172 -719 L -172 -680 Q -172 -664 -176.5 -648 Q -181 -632 -191.5 -620 Q -202 -608 -218 -602.5 Q -234 -597 -250 -597 Z M -250 -632 Q -241 -632 -233 -635.5 Q -225 -639 -220 -646.5 Q -215 -654 -213 -662.5 Q -211 -671 -211 -680 L -211 -719 Q -211 -728 -212.5 -737 Q -214 -746 -219 -753 Q -224 -760 -232.5 -764 Q -241 -768 -250 -768 Q -258 -768 -266.5 -764 Q -275 -760 -280 -753 Q -285 -746 -287 -737 Q -289 -728 -289 -719 L -289 -680 Q -289 -671 -287 -662.5 Q -285 -654 -280 -646.5 Q -275 -639 -267 -635.5 Q -259 -632 -250 -632 Z " id="path20"/>
<path d="M -324 -600 L -324 -808 L -248 -808 Q -235 -808 -222.5 -805 Q -210 -802 -200 -794.5 Q -190 -787 -185 -775 Q -180 -763 -180 -750 Q -180 -738 -186 -726.5 Q -192 -715 -203 -709 Q -195 -706 -188.5 -701.5 Q -182 -697 -177.5 -690.5 Q -173 -684 -171 -676.5 Q -169 -669 -169 -661 Q -169 -647 -175.5 -634 Q -182 -621 -194 -613.5 Q -206 -606 -220 -603 Q -234 -600 -248 -600 Z M -286 -725 L -248 -725 Q -243 -725 -237.5 -726 Q -232 -727 -227.5 -730.5 Q -223 -734 -220.5 -739 Q -218 -744 -218 -749 Q -218 -755 -220.5 -760 Q -223 -765 -227.5 -768 Q -232 -771 -237.5 -772 Q -243 -773 -248 -773 L -286 -773 Z M -286 -635 L -248 -635 Q -241 -635 -234 -636 Q -227 -637 -221 -640 Q -215 -643 -211.5 -649 Q -208 -655 -208 -662 Q -208 -669 -211.5 -675 Q -215 -681 -221 -684.5 Q -227 -688 -234 -689 Q -241 -690 -248 -690 L -286 -690 Z " id="path21"/>
<path d="M -312 -600 L -312 -808 L -172 -808 L -172 -773 L -273 -773 L -273 -600 Z " id="path22"/>
<path d="M -336 -600 L -336 -696 L -324 -696 Q -314 -718 -311 -742.5 Q -308 -767 -308 -791 L -308 -869 L -182 -869 L -182 -696 L -164 -696 L -164 -600 L -203 -600 L -203 -661 L -297 -661 L -297 -600 Z M -283 -696 L -220 -696 L -220 -835 L -269 -835 L -269 -791 Q -269 -767 -271.5 -743 Q -274 -719 -283 -696 Z " id="path23"/>
<path d="M -343 -600 L -310 -704 L -343 -808 L -307 -808 L -279 -720 L -267 -720 L -267 -808 L -233 -808 L -233 -720 L -221 -720 L -193 -808 L -157 -808 L -190 -704 L -157 -600 L -193 -600 L -221 -688 L -233 -688 L -233 -600 L -267 -600 L -267 -688 L -279 -688 L -307 -600 Z " id="path24"/>
<path d="M -249 -597 Q -263 -597 -277.5 -600 Q -292 -603 -303.5 -611 Q -315 -619 -321.5 -632 Q -328 -645 -328 -659 L -290 -659 Q -290 -652 -286 -646.5 Q -282 -641 -276 -637.5 Q -270 -634 -263 -633 Q -256 -632 -249 -632 Q -242 -632 -234.5 -633 Q -227 -634 -221 -637.5 Q -215 -641 -211.5 -648 Q -208 -655 -208 -662 Q -208 -669 -212 -675.5 Q -216 -682 -222 -685.5 Q -228 -689 -235.5 -690 Q -243 -691 -250 -691 L -272 -691 L -272 -726 L -250 -726 Q -244 -726 -238 -726.5 Q -232 -727 -226.5 -730 Q -221 -733 -217.5 -738.5 Q -214 -744 -214 -750 Q -214 -757 -217 -762.5 Q -220 -768 -225.5 -771 Q -231 -774 -237 -775 Q -243 -776 -249 -776 Q -255 -776 -261 -775 Q -267 -774 -272 -771 Q -277 -768 -280 -762.5 Q -283 -757 -283 -751 L -322 -751 L -322 -752 Q -322 -765 -316 -777.5 Q -310 -790 -299.5 -797.5 Q -289 -805 -275.5 -808 Q -262 -811 -249 -811 Q -235 -811 -222 -808 Q -209 -805 -198 -797.5 Q -187 -790 -181.5 -777 Q -176 -764 -176 -751 Q -176 -738 -183 -726.5 Q -190 -715 -202 -709 Q -195 -706 -188.5 -701.5 Q -182 -697 -177.5 -690.5 Q -173 -684 -171 -676.5 Q -169 -669 -169 -661 Q -169 -647 -175.5 -633.5 Q -182 -620 -194 -611.5 Q -206 -603 -220.5 -600 Q -235 -597 -249 -597 Z " id="path25"/>
<path d="M -318 -600 L -318 -808 L -280 -808 L -280 -721 L -263 -721 L -214 -808 L -171 -808 L -232 -704 L -171 -600 L -214 -600 L -263 -687 L -280 -687 L -280 -600 Z " id="path26"/>
<path d="M -344 -600 L -344 -635 Q -337 -635 -330.5 -638.5 Q -324 -642 -321 -648.5 Q -318 -655 -316.5 -662 Q -315 -669 -314 -676 Q -313 -683 -313 -690 Q -313 -697 -313 -704 L -313 -808 L -176 -808 L -176 -600 L -214 -600 L -214 -773 L -275 -773 L -275 -704 Q -275 -692 -275 -680 Q -275 -668 -277.5 -656 Q -280 -644 -284.5 -632.5 Q -289 -621 -298 -613 Q -307 -605 -319 -602.5 Q -331 -600 -344 -600 Z " id="path27"/>
<path d="M -334 -600 L -334 -808 L -294 -808 L -250 -695 L -206 -808 L -166 -808 L -166 -600 L -205 -600 L -205 -642 Q -205 -673 -201 -705 Q -197 -737 -196 -769 L -237 -662 L -263 -662 L -304 -769 Q -303 -737 -299 -705 Q -295 -673 -295 -642 L -295 -600 Z " id="path28"/>
<path d="M -324 -600 L -324 -808 L -286 -808 L -286 -724 L -214 -724 L -214 -808 L -176 -808 L -176 -600 L -214 -600 L -214 -690 L -286 -690 L -286 -600 Z " id="path29"/>
<path d="M -250 -597 Q -266 -597 -282 -602.5 Q -298 -608 -308.5 -620 Q -319 -632 -323.5 -648 Q -328 -664 -328 -680 L -328 -728 Q -328 -744 -323.5 -760 Q -319 -776 -308.5 -788 Q -298 -800 -282 -805.5 Q -266 -811 -250 -811 Q -234 -811 -218 -805.5 Q -202 -800 -191.5 -788 Q -181 -776 -176.5 -760 Q -172 -744 -172 -728 L -172 -680 Q -172 -664 -176.5 -648 Q -181 -632 -191.5 -620 Q -202 -608 -218 -602.5 Q -234 -597 -250 -597 Z M -250 -632 Q -241 -632 -233 -635.5 Q -225 -639 -220 -646.5 Q -215 -654 -213 -662.5 Q -211 -671 -211 -680 L -211 -728 Q -211 -737 -213 -745.5 Q -215 -754 -220 -761.5 Q -225 -769 -233 -772.5 Q -241 -776 -250 -776 Q -259 -776 -267 -772.5 Q -275 -769 -280 -761.5 Q -285 -754 -287 -745.5 Q -289 -737 -289 -728 L -289 -680 Q -289 -671 -287 -662.5 Q -285 -654 -280 -646.5 Q -275 -639 -267 -635.5 Q -259 -632 -250 -632 Z " id="path30"/>
<path d="M -324 -600 L -324 -808 L -176 -808 L -176 -600 L -214 -600 L -214 -773 L -286 -773 L -286 -600 Z " id="path31"/>
<path d="M -324 -600 L -324 -894 L -286 -894 L -286 -860 Q -283 -868 -278 -875 Q -273 -882 -266 -887.5 Q -259 -893 -251 -895 Q -243 -897 -234 -897 Q -219 -897 -206 -890 Q -193 -883 -185.5 -870.5 Q -178 -858 -175 -843.5 Q -172 -829 -172 -814 L -172 -766 Q -172 -751 -175 -736.5 Q -178 -722 -185.5 -709.5 Q -193 -697 -206 -690 Q -219 -683 -234 -683 Q -243 -683 -251 -685 Q -259 -687 -266 -692.5 Q -273 -698 -278 -705 Q -283 -712 -286 -720 L -286 -600 Z M -250 -718 Q -241 -718 -232.5 -721.5 Q -224 -725 -219.5 -732.5 Q -215 -740 -213 -748.5 Q -211 -757 -211 -766 L -211 -814 Q -211 -823 -213 -831.5 Q -215 -840 -219.5 -847.5 Q -224 -855 -232.5 -858.5 Q -241 -862 -250 -862 Q -258 -862 -266 -858 Q -274 -854 -278.5 -847 Q -283 -840 -284.5 -831.5 Q -286 -823 -286 -814 L -286 -766 Q -286 -757 -284.5 -748.5 Q -283 -740 -278.5 -733 Q -274 -726 -266 -722 Q -258 -718 -250 -718 Z " id="path32"/>
<path d="M -251 -597 Q -267 -597 -282.5 -602.5 Q -298 -608 -308.5 -620 Q -319 -632 -323.5 -648 Q -328 -664 -328 -680 L -328 -728 Q -328 -744 -323.5 -760 Q -319 -776 -308.5 -788 Q -298 -800 -282.5 -805.5 Q -267 -811 -251 -811 Q -236 -811 -221 -806.5 Q -206 -802 -195.5 -791.5 Q -185 -781 -180 -766 Q -175 -751 -175 -736 L -213 -736 Q -213 -744 -215.5 -751.5 Q -218 -759 -223 -765 Q -228 -771 -235.5 -773.5 Q -243 -776 -251 -776 Q -260 -776 -268 -772.5 Q -276 -769 -281 -761.5 Q -286 -754 -287.5 -745.5 Q -289 -737 -289 -728 L -289 -680 Q -289 -671 -287.5 -662.5 Q -286 -654 -281 -646.5 Q -276 -639 -268 -635.5 Q -260 -632 -251 -632 Q -243 -632 -235.5 -634.5 Q -228 -637 -223 -643 Q -218 -649 -215.5 -656.5 Q -213 -664 -213 -672 L -175 -672 Q -175 -657 -180 -642 Q -185 -627 -195.5 -616.5 Q -206 -606 -221 -601.5 Q -236 -597 -251 -597 Z " id="path33"/>
<path d="M -269 -600 L -269 -773 L -327 -773 L -327 -808 L -173 -808 L -173 -773 L -231 -773 L -231 -600 Z " id="path34"/>
<path d="M -330 -600 L -271 -704 L -330 -808 L -285 -808 L -250 -743 L -215 -808 L -170 -808 L -229 -704 L -170 -600 L -215 -600 L -250 -665 L -285 -600 Z " id="path35"/>
<path d="M -195 -600 L -195 -661 L -324 -661 L -324 -869 L -286 -869 L -286 -696 L -214 -696 L -214 -869 L -176 -869 L -176 -696 L -161 -696 L -161 -600 Z " id="path36"/>
<path d="M -214 -600 L -214 -671 Q -223 -669 -232.5 -667.5 Q -242 -666 -252 -666 Q -267 -666 -282 -671 Q -297 -676 -307.5 -687 Q -318 -698 -321 -713.5 Q -324 -729 -324 -744 L -324 -808 L -286 -808 L -286 -744 Q -286 -735 -284 -726.5 Q -282 -718 -276 -712 Q -270 -706 -261.5 -703 Q -253 -700 -245 -700 Q -237 -700 -229.5 -701.5 Q -222 -703 -214 -705 L -214 -808 L -176 -808 L -176 -600 Z " id="path37"/>
<path d="M -334 -600 L -334 -808 L -296 -808 L -296 -635 L -269 -635 L -269 -808 L -231 -808 L -231 -635 L -204 -635 L -204 -808 L -166 -808 L -166 -600 Z " id="path38"/>
<path d="M -185 -600 L -185 -661 L -334 -661 L -334 -869 L -296 -869 L -296 -696 L -269 -696 L -269 -869 L -231 -869 L -231 -696 L -204 -696 L -204 -869 L -166 -869 L -166 -696 L -151 -696 L -151 -600 Z " id="path39"/>
<path d="M -250 -597 Q -266 -597 -282 -602.5 Q -298 -608 -308.5 -620 Q -319 -632 -323.5 -648 Q -328 -664 -328 -680 L -328 -728 Q -328 -744 -323.5 -760 Q -319 -776 -308.5 -788 Q -298 -800 -282 -805.5 Q -266 -811 -250 -811 Q -234 -811 -218 -805.5 Q -202 -800 -191.5 -788 Q -181 -776 -176.5 -760 Q -172 -744 -172 -728 L -172 -680 Q -172 -664 -176.5 -648 Q -181 -632 -191.5 -620 Q -202 -608 -218 -602.5 Q -234 -597 -250 -597 Z M -222 -704 Q -219 -704 -216 -705 Q -213 -706 -211 -708 L -211 -728 Q -211 -737 -213 -745.5 Q -215 -754 -220 -761.5 Q -225 -769 -233 -772.5 Q -241 -776 -250 -776 Q -259 -776 -267 -772.5 Q -275 -769 -280 -762 Q -285 -755 -287 -746.5 Q -289 -738 -289 -729 Q -286 -729 -283 -729.5 Q -280 -730 -278 -730 Q -267 -730 -257.5 -725.5 Q -248 -721 -241 -714 Q -237 -710 -232.5 -707 Q -228 -704 -222 -704 Z M -250 -632 Q -241 -632 -233 -635.5 Q -225 -639 -220 -646 Q -215 -653 -213 -661.5 Q -211 -670 -211 -679 Q -214 -679 -217 -678.5 Q -220 -678 -222 -678 Q -233 -678 -242.5 -682.5 Q -252 -687 -259 -694 Q -263 -698 -267.5 -701 Q -272 -704 -278 -704 Q -281 -704 -284 -703 Q -287 -702 -289 -700 L -289 -680 Q -289 -671 -287 -662.5 Q -285 -654 -280 -646.5 Q -275 -639 -267 -635.5 Q -259 -632 -250 -632 Z " id="path40"/>
<path d="M -294 -597 Q -304 -597 -313 -600 Q -322 -603 -328.5 -610.5 Q -335 -618 -337 -627 Q -339 -636 -339 -646 L -339 -762 Q -339 -771 -336.5 -780.5 Q -334 -790 -327 -796.5 Q -320 -803 -311 -805.5 Q -302 -808 -293 -808 L -164 -808 L -164 -778 L -190 -778 L -190 -600 L -223 -600 L -223 -778 L -293 -778 Q -299 -778 -303 -773 Q -307 -768 -307 -762 L -307 -646 Q -307 -639 -304 -632.5 Q -301 -626 -294 -626 Q -289 -626 -286.5 -632 Q -284 -638 -283 -643 Q -282 -648 -281.5 -653.5 Q -281 -659 -281 -664 L -281 -666 L -248 -666 L -248 -663 Q -248 -651 -250 -640 Q -252 -629 -257.5 -619 Q -263 -609 -273 -603 Q -283 -597 -294 -597 Z " id="path41"/>
<path d="M -272 -597 Q -284 -597 -295 -601 Q -306 -605 -313.5 -614 Q -321 -623 -324.5 -634.5 Q -328 -646 -328 -657 Q -328 -673 -321 -687.5 Q -314 -702 -301.5 -710.5 Q -289 -719 -273.5 -722 Q -258 -725 -243 -725 L -214 -725 L -214 -743 Q -214 -750 -216.5 -757 Q -219 -764 -224.5 -768.5 Q -230 -773 -237 -774.5 Q -244 -776 -251 -776 Q -257 -776 -263.5 -775 Q -270 -774 -275.5 -770 Q -281 -766 -284 -760 Q -287 -754 -287 -748 L -325 -748 Q -325 -762 -319 -775 Q -313 -788 -302.5 -796.5 Q -292 -805 -278 -808 Q -264 -811 -251 -811 Q -236 -811 -222 -807.5 Q -208 -804 -197 -794.5 Q -186 -785 -181 -771.5 Q -176 -758 -176 -743 L -176 -600 L -214 -600 L -214 -633 Q -222 -616 -238 -606.5 Q -254 -597 -272 -597 Z M -257 -632 Q -248 -632 -240 -634 Q -232 -636 -226 -642 Q -220 -648 -217 -656 Q -214 -664 -214 -672 L -214 -690 L -243 -690 Q -250 -690 -258 -689 Q -266 -688 -273 -685 Q -280 -682 -284.5 -675.5 Q -289 -669 -289 -661 Q -289 -655 -287 -649 Q -285 -643 -280 -639 Q -275 -635 -269 -633.5 Q -263 -632 -257 -632 Z " id="path42"/>
<path d="M -249 -597 Q -265 -597 -281 -602.5 Q -297 -608 -308 -620 Q -319 -632 -323.5 -648 Q -328 -664 -328 -680 L -328 -728 Q -328 -744 -323.5 -760 Q -319 -776 -308.5 -788 Q -298 -800 -282 -805.5 Q -266 -811 -250 -811 Q -234 -811 -218 -805.5 Q -202 -800 -191.5 -788 Q -181 -776 -176.5 -760 Q -172 -744 -172 -728 L -172 -687 L -289 -687 L -289 -680 Q -289 -671 -287 -662 Q -285 -653 -280 -646 Q -275 -639 -266.5 -635.5 Q -258 -632 -249 -632 Q -243 -632 -236.5 -633 Q -230 -634 -224.5 -637.5 Q -219 -641 -215.5 -647 Q -212 -653 -212 -660 L -173 -660 Q -174 -646 -180 -633 Q -186 -620 -197 -611.5 Q -208 -603 -221.5 -600 Q -235 -597 -249 -597 Z M -289 -721 L -211 -721 L -211 -728 Q -211 -737 -213 -745.5 Q -215 -754 -220 -761.5 Q -225 -769 -233 -772.5 Q -241 -776 -250 -776 Q -259 -776 -267 -772.5 Q -275 -769 -280 -761.5 Q -285 -754 -287 -745.5 Q -289 -737 -289 -728 Z " id="path43"/>
<path d="M -324 -600 L -324 -645 Q -324 -658 -321.5 -671.5 Q -319 -685 -312 -696.5 Q -305 -708 -293.5 -716 Q -282 -724 -269 -726 L -269 -753 L -302 -753 L -302 -780 L -269 -780 L -269 -808 L -231 -808 L -231 -780 L -197 -780 L -197 -753 L -231 -753 L -231 -726 Q -218 -724 -206.5 -716 Q -195 -708 -188 -696.5 Q -181 -685 -178.5 -671.5 Q -176 -658 -176 -645 L -176 -600 L -214 -600 L -214 -645 Q -214 -653 -215.5 -661.5 Q -217 -670 -221.5 -677.5 Q -226 -685 -233.5 -689 Q -241 -693 -250 -693 Q -259 -693 -266.5 -689 Q -274 -685 -278.5 -677.5 Q -283 -670 -284.5 -661.5 Q -286 -653 -286 -645 L -286 -600 Z " id="path44"/>
<path d="M -250 -597 Q -261 -597 -272 -600 Q -283 -603 -291.5 -611 Q -300 -619 -304 -630 Q -308 -641 -308 -652 Q -308 -663 -304.5 -674 Q -301 -685 -296 -695 Q -291 -705 -285 -714.5 Q -279 -724 -272 -733 Q -288 -762 -299 -793 Q -310 -824 -310 -857 L -271 -857 Q -271 -834 -265.5 -811 Q -260 -788 -249 -768 Q -232 -796 -223 -828.5 Q -214 -861 -214 -894 L -176 -894 Q -176 -851 -191 -810.5 Q -206 -770 -228 -733 Q -227 -732 -226 -730.5 Q -225 -729 -225 -728 Q -219 -719 -213 -710.5 Q -207 -702 -202.5 -692.5 Q -198 -683 -195 -672.5 Q -192 -662 -192 -652 Q -192 -641 -196 -630 Q -200 -619 -208.5 -611 Q -217 -603 -228 -600 Q -239 -597 -250 -597 Z M -250 -631 Q -242 -631 -236.5 -637.5 Q -231 -644 -231 -653 Q -231 -665 -237 -676 Q -243 -687 -250 -698 Q -257 -687 -263 -676 Q -269 -665 -269 -653 Q -269 -644 -263.5 -637.5 Q -258 -631 -250 -631 Z " id="path45"/>
<path d="M -295 -600 L -295 -792 L -340 -792 L -340 -820 L -295 -820 L -295 -894 L -256 -894 L -256 -820 L -210 -820 L -210 -792 L -256 -792 L -256 -732 L -227 -732 Q -214 -732 -202 -727.5 Q -190 -723 -181.5 -713.5 Q -173 -704 -169.5 -691.5 Q -166 -679 -166 -666 Q -166 -653 -169.5 -640.5 Q -173 -628 -181.5 -618.5 Q -190 -609 -202 -604.5 Q -214 -600 -227 -600 Z M -256 -635 L -227 -635 Q -222 -635 -217 -637.5 Q -212 -640 -209 -645 Q -206 -650 -205.5 -655 Q -205 -660 -205 -666 Q -205 -671 -205.5 -676.5 Q -206 -682 -209 -687 Q -212 -692 -217 -694.5 Q -222 -697 -227 -697 L -256 -697 Z " id="path46"/>
<path d="M -219 -597 Q -231 -597 -242 -600.5 Q -253 -604 -261 -613 Q -269 -622 -272.5 -633 Q -276 -644 -276 -656 L -276 -687 L -296 -687 L -296 -600 L -334 -600 L -334 -808 L -296 -808 L -296 -721 L -276 -721 L -276 -752 Q -276 -764 -272.5 -775 Q -269 -786 -261 -795 Q -253 -804 -242 -807.5 Q -231 -811 -219 -811 Q -208 -811 -196.5 -807.5 Q -185 -804 -177 -795 Q -169 -786 -166 -775 Q -163 -764 -163 -752 L -163 -656 Q -163 -644 -166 -633 Q -169 -622 -177 -613 Q -185 -604 -196.5 -600.5 Q -208 -597 -219 -597 Z M -219 -631 Q -211 -631 -206 -639 Q -201 -647 -201 -656 L -201 -752 Q -201 -761 -206 -769 Q -211 -777 -219 -777 Q -228 -777 -232.5 -769 Q -237 -761 -237 -752 L -237 -656 Q -237 -647 -232.5 -639 Q -228 -631 -219 -631 Z " id="path47"/>
<path d="M -238 -597 Q -247 -597 -255 -603.5 Q -263 -610 -266.5 -619 Q -270 -628 -271 -637.5 Q -272 -647 -272 -657 Q -272 -664 -271.5 -672 Q -271 -680 -268 -687 L -296 -687 L -296 -600 L -334 -600 L -334 -808 L -296 -808 L -296 -721 L -228 -721 Q -224 -722 -220 -722 Q -216 -722 -212 -722 L -204 -722 L -204 -763 Q -204 -769 -208 -773 Q -212 -777 -218 -777 Q -225 -777 -228.5 -770 Q -232 -763 -232 -756 L -232 -755 L -270 -755 L -270 -757 Q -270 -768 -266.5 -778.5 Q -263 -789 -256 -796.5 Q -249 -804 -239 -807.5 Q -229 -811 -218 -811 Q -208 -811 -198 -808.5 Q -188 -806 -180.5 -799.5 Q -173 -793 -169.5 -783 Q -166 -773 -166 -763 L -166 -600 L -204 -600 L -204 -615 Q -210 -607 -219 -602 Q -228 -597 -238 -597 Z M -225 -625 Q -219 -625 -213 -629 Q -207 -633 -204 -639 L -204 -694 L -212 -694 Q -219 -694 -225 -691.5 Q -231 -689 -234.5 -683.5 Q -238 -678 -239.5 -671.5 Q -241 -665 -241 -659 Q -241 -654 -240.5 -649 Q -240 -644 -238.5 -639 Q -237 -634 -233.5 -629.5 Q -230 -625 -225 -625 Z " id="path48"/>
<path d="M -340 -600 L -270 -808 L -230 -808 L -160 -600 L -197 -600 L -220 -673 L -233 -673 L -233 -600 L -267 -600 L -267 -673 L -280 -673 L -303 -600 Z M -271 -704 L -229 -704 L -240 -739 Q -243 -747 -245.5 -755 Q -248 -763 -250 -772 Q -252 -763 -254.5 -755 Q -257 -747 -260 -739 Z " id="path49"/>
<path d="M -340 -600 L -309 -714 L -285 -714 L -340 -808 L -160 -808 L -215 -714 L -191 -714 L -160 -600 L -195 -600 L -217 -683 L -233 -683 L -233 -600 L -267 -600 L -267 -683 L -283 -683 L -305 -600 Z M -250 -714 L -213 -777 L -287 -777 Z " id="path50"/>
<path d="M -338 -600 L -338 -808 L -309 -808 L -309 -714 L -254 -714 L -293 -808 L -157 -808 L -196 -714 L -182 -714 L -157 -600 L -186 -600 L -205 -689 L -211 -689 L -211 -600 L -239 -600 L -239 -689 L -245 -689 L -264 -600 L -293 -600 L -274 -689 L -309 -689 L -309 -600 Z M -225 -714 L -197 -782 L -253 -782 Z " id="path51"/>
</defs>
<g>
<g data-source-text="0" fill="#20242e" transform="translate(174 41.292) rotate(0) scale(0.023999998)">
<use href="#path1" transform="translate(0 0)"/>
</g>
</g>
<g>
<g data-source-text="1" fill="#20242e" transform="translate(246 41.292) rotate(0) scale(0.023999998)">
<use href="#path2" transform="translate(0 0)"/>
</g>
</g>
<g>
<g data-source-text="2" fill="#20242e" transform="translate(318 41.292) rotate(0) scale(0.023999998)">
<use href="#path3" transform="translate(0 0)"/>
</g>
</g>
<g>
<g data-source-text="3" fill="#20242e" transform="translate(390 41.292) rotate(0) scale(0.023999998)">
<use href="#path4" transform="translate(0 0)"/>
</g>
</g>
<g>
<g data-source-text="4" fill="#20242e" transform="translate(462 41.292) rotate(0) scale(0.023999998)">
<use href="#path5" transform="translate(0 0)"/>
</g>
</g>
<g>
<g data-source-text="5" fill="#20242e" transform="translate(534 41.292) rotate(0) scale(0.023999998)">
<use href="#path6" transform="translate(0 0)"/>
</g>
</g>
<g>
<g data-source-text="6" fill="#20242e" transform="translate(606 41.292) rotate(0) scale(0.023999998)">
<use href="#path7" transform="translate(0 0)"/>
</g>
</g>
<g>
<g data-source-text="7" fill="#20242e" transform="translate(678 41.292) rotate(0) scale(0.023999998)">
<use href="#path8" transform="translate(0 0)"/>
</g>
</g>
<g>
<g data-source-text="8" fill="#20242e" transform="translate(750 41.292) rotate(0) scale(0.023999998)">
<use href="#path9" transform="translate(0 0)"/>
</g>
</g>
<g>
<g data-source-text="9" fill="#20242e" transform="translate(822 41.292) rotate(0) scale(0.023999998)">
<use href="#path10" transform="translate(0 0)"/>
</g>
</g>
<g>
<g data-source-text="A" fill="#20242e" transform="translate(894 41.292) rotate(0) scale(0.023999998)">
<use href="#path11" transform="translate(0 0)"/>
</g>
</g>
<g>
<g data-source-text="B" fill="#20242e" transform="translate(966 41.292) rotate(0) scale(0.023999998)">
<use href="#path12" transform="translate(0 0)"/>
</g>
</g>
<g>
<g data-source-text="C" fill="#20242e" transform="translate(1038 41.292) rotate(0) scale(0.023999998)">
<use href="#path13" transform="translate(0 0)"/>
</g>
</g>
<g>
<g data-source-text="D" fill="#20242e" transform="translate(1110 41.292) rotate(0) scale(0.023999998)">
<use href="#path14" transform="translate(0 0)"/>
</g>
</g>
<g>
<g data-source-text="E" fill="#20242e" transform="translate(1182 41.292) rotate(0) scale(0.023999998)">
<use href="#path15" transform="translate(0 0)"/>
</g>
</g>
<g>
<g data-source-text="F" fill="#20242e" transform="translate(1254 41.292) rotate(0) scale(0.023999998)">
<use href="#path16" transform="translate(0 0)"/>
</g>
</g>
<g>
<g data-source-text="U+2DE0" fill="#20242e" transform="translate(36 113.292) rotate(0) scale(0.023999998)">
<use href="#path17" transform="translate(0 0)"/>
<use href="#path18" transform="translate(500 0)"/>
<use href="#path3" transform="translate(1000 0)"/>
<use href="#path14" transform="translate(1500 0)"/>
<use href="#path15" transform="translate(2000 0)"/>
<use href="#path1" transform="translate(2500 0)"/>
</g>
</g>
<g>
<g data-source-text="◌" fill="#048fbf" transform="translate(168 118.584) rotate(0) scale(0.047999997)">
<use href="#path19" transform="translate(0 0)"/>
</g>
</g>
<g>
<g data-source-text="" fill="#20242e" transform="translate(168 118.584) rotate(0) scale(0.047999997)"/>
<g data-source-text="ⷠ" fill="#20242e" transform="translate(192 118.584) rotate(0) scale(0.047999997)">
<use href="#path20" transform="translate(0 0)"/>
</g>
</g>
<g>
<g data-source-text="◌" fill="#048fbf" transform="translate(240 118.584) rotate(0) scale(0.047999997)">
<use href="#path19" transform="translate(0 0)"/>
</g>
</g>
<g>
<g data-source-text="" fill="#20242e" transform="translate(240 118.584) rotate(0) scale(0.047999997)"/>
<g data-source-text="ⷡ" fill="#20242e" transform="translate(264 118.584) rotate(0) scale(0.047999997)">
<use href="#path21" transform="translate(0 0)"/>
</g>
</g>
<g>
<g data-source-text="◌" fill="#048fbf" transform="translate(312 118.584) rotate(0) scale(0.047999997)">
<use href="#path19" transform="translate(0 0)"/>
</g>
</g>
<g>
<g data-source-text="" fill="#20242e" transform="translate(312 118.584) rotate(0) scale(0.047999997)"/>
<g data-source-text="ⷢ" fill="#20242e" transform="translate(336 118.584) rotate(0) scale(0.047999997)">
<use href="#path22" transform="translate(0 0)"/>
</g>
</g>
<g>
<g data-source-text="◌" fill="#048fbf" transform="translate(384 118.584) rotate(0) scale(0.047999997)">
<use href="#path19" transform="translate(0 0)"/>
</g>
</g>
<g>
<g data-source-text="" fill="#20242e" transform="translate(384 118.584) rotate(0) scale(0.047999997)"/>
<g data-source-text="ⷣ" fill="#20242e" transform="translate(408 118.584) rotate(0) scale(0.047999997)">
<use href="#path23" transform="translate(0 0)"/>
</g>
</g>
<g>
<g data-source-text="◌" fill="#048fbf" transform="translate(456 118.584) rotate(0) scale(0.047999997)">
<use href="#path19" transform="translate(0 0)"/>
</g>
</g>
<g>
<g data-source-text="" fill="#20242e" transform="translate(456 118.584) rotate(0) scale(0.047999997)"/>
<g data-source-text="ⷤ" fill="#20242e" transform="translate(480 118.584) rotate(0) scale(0.047999997)">
<use href="#path24" transform="translate(0 0)"/>
</g>
</g>
<g>
<g data-source-text="◌" fill="#048fbf" transform="translate(528 118.584) rotate(0) scale(0.047999997)">
<use href="#path19" transform="translate(0 0)"/>
</g>
</g>
<g>
<g data-source-text="" fill="#20242e" transform="translate(528 118.584) rotate(0) scale(0.047999997)"/>
<g data-source-text="ⷥ" fill="#20242e" transform="translate(552 118.584) rotate(0) scale(0.047999997)">
<use href="#path25" transform="translate(0 0)"/>
</g>
</g>
<g>
<g data-source-text="◌" fill="#048fbf" transform="translate(600 118.584) rotate(0) scale(0.047999997)">
<use href="#path19" transform="translate(0 0)"/>
</g>
</g>
<g>
<g data-source-text="" fill="#20242e" transform="translate(600 118.584) rotate(0) scale(0.047999997)"/>
<g data-source-text="ⷦ" fill="#20242e" transform="translate(624 118.584) rotate(0) scale(0.047999997)">
<use href="#path26" transform="translate(0 0)"/>
</g>
</g>
<g>
<g data-source-text="◌" fill="#048fbf" transform="translate(672 118.584) rotate(0) scale(0.047999997)">
<use href="#path19" transform="translate(0 0)"/>
</g>
</g>
<g>
<g data-source-text="" fill="#20242e" transform="translate(672 118.584) rotate(0) scale(0.047999997)"/>
<g data-source-text="ⷧ" fill="#20242e" transform="translate(696 118.584) rotate(0) scale(0.047999997)">
<use href="#path27" transform="translate(0 0)"/>
</g>
</g>
<g>
<g data-source-text="◌" fill="#048fbf" transform="translate(744 118.584) rotate(0) scale(0.047999997)">
<use href="#path19" transform="translate(0 0)"/>
</g>
</g>
<g>
<g data-source-text="" fill="#20242e" transform="translate(744 118.584) rotate(0) scale(0.047999997)"/>
<g data-source-text="ⷨ" fill="#20242e" transform="translate(768 118.584) rotate(0) scale(0.047999997)">
<use href="#path28" transform="translate(0 0)"/>
</g>
</g>
<g>
<g data-source-text="◌" fill="#048fbf" transform="translate(816 118.584) rotate(0) scale(0.047999997)">
<use href="#path19" transform="translate(0 0)"/>
</g>
</g>
<g>
<g data-source-text="" fill="#20242e" transform="translate(816 118.584) rotate(0) scale(0.047999997)"/>
<g data-source-text="ⷩ" fill="#20242e" transform="translate(840 118.584) rotate(0) scale(0.047999997)">
<use href="#path29" transform="translate(0 0)"/>
</g>
</g>
<g>
<g data-source-text="◌" fill="#048fbf" transform="translate(888 118.584) rotate(0) scale(0.047999997)">
<use href="#path19" transform="translate(0 0)"/>
</g>
</g>
<g>
<g data-source-text="" fill="#20242e" transform="translate(888 118.584) rotate(0) scale(0.047999997)"/>
<g data-source-text="ⷪ" fill="#20242e" transform="translate(912 118.584) rotate(0) scale(0.047999997)">
<use href="#path30" transform="translate(0 0)"/>
</g>
</g>
<g>
<g data-source-text="◌" fill="#048fbf" transform="translate(960 118.584) rotate(0) scale(0.047999997)">
<use href="#path19" transform="translate(0 0)"/>
</g>
</g>
<g>
<g data-source-text="" fill="#20242e" transform="translate(960 118.584) rotate(0) scale(0.047999997)"/>
<g data-source-text="ⷫ" fill="#20242e" transform="translate(984 118.584) rotate(0) scale(0.047999997)">
<use href="#path31" transform="translate(0 0)"/>
</g>
</g>
<g>
<g data-source-text="◌" fill="#048fbf" transform="translate(1032 118.584) rotate(0) scale(0.047999997)">
<use href="#path19" transform="translate(0 0)"/>
</g>
</g>
<g>
<g data-source-text="" fill="#20242e" transform="translate(1032 118.584) rotate(0) scale(0.047999997)"/>
<g data-source-text="ⷬ" fill="#20242e" transform="translate(1056 118.584) rotate(0) scale(0.047999997)">
<use href="#path32" transform="translate(0 0)"/>
</g>
</g>
<g>
<g data-source-text="◌" fill="#048fbf" transform="translate(1104 118.584) rotate(0) scale(0.047999997)">
<use href="#path19" transform="translate(0 0)"/>
</g>
</g>
<g>
<g data-source-text="" fill="#20242e" transform="translate(1104 118.584) rotate(0) scale(0.047999997)"/>
<g data-source-text="ⷭ" fill="#20242e" transform="translate(1128 118.584) rotate(0) scale(0.047999997)">
<use href="#path33" transform="translate(0 0)"/>
</g>
</g>
<g>
<g data-source-text="◌" fill="#048fbf" transform="translate(1176 118.584) rotate(0) scale(0.047999997)">
<use href="#path19" transform="translate(0 0)"/>
</g>
</g>
<g>
<g data-source-text="" fill="#20242e" transform="translate(1176 118.584) rotate(0) scale(0.047999997)"/>
<g data-source-text="ⷮ" fill="#20242e" transform="translate(1200 118.584) rotate(0) scale(0.047999997)">
<use href="#path34" transform="translate(0 0)"/>
</g>
</g>
<g>
<g data-source-text="◌" fill="#048fbf" transform="translate(1248 118.584) rotate(0) scale(0.047999997)">
<use href="#path19" transform="translate(0 0)"/>
</g>
</g>
<g>
<g data-source-text="" fill="#20242e" transform="translate(1248 118.584) rotate(0) scale(0.047999997)"/>
<g data-source-text="ⷯ" fill="#20242e" transform="translate(1272 118.584) rotate(0) scale(0.047999997)">
<use href="#path35" transform="translate(0 0)"/>
</g>
</g>
<g>
<g data-source-text="U+2DF0" fill="#20242e" transform="translate(36 185.292) rotate(0) scale(0.023999998)">
<use href="#path17" transform="translate(0 0)"/>
<use href="#path18" transform="translate(500 0)"/>
<use href="#path3" transform="translate(1000 0)"/>
<use href="#path14" transform="translate(1500 0)"/>
<use href="#path16" transform="translate(2000 0)"/>
<use href="#path1" transform="translate(2500 0)"/>
</g>
</g>
<g>
<g data-source-text="◌" fill="#048fbf" transform="translate(168 190.584) rotate(0) scale(0.047999997)">
<use href="#path19" transform="translate(0 0)"/>
</g>
</g>
<g>
<g data-source-text="" fill="#20242e" transform="translate(168 190.584) rotate(0) scale(0.047999997)"/>
<g data-source-text="ⷰ" fill="#20242e" transform="translate(192 190.584) rotate(0) scale(0.047999997)">
<use href="#path36" transform="translate(0 0)"/>
</g>
</g>
<g>
<g data-source-text="◌" fill="#048fbf" transform="translate(240 190.584) rotate(0) scale(0.047999997)">
<use href="#path19" transform="translate(0 0)"/>
</g>
</g>
<g>
<g data-source-text="" fill="#20242e" transform="translate(240 190.584) rotate(0) scale(0.047999997)"/>
<g data-source-text="ⷱ" fill="#20242e" transform="translate(264 190.584) rotate(0) scale(0.047999997)">
<use href="#path37" transform="translate(0 0)"/>
</g>
</g>
<g>
<g data-source-text="◌" fill="#048fbf" transform="translate(312 190.584) rotate(0) scale(0.047999997)">
<use href="#path19" transform="translate(0 0)"/>
</g>
</g>
<g>
<g data-source-text="" fill="#20242e" transform="translate(312 190.584) rotate(0) scale(0.047999997)"/>
<g data-source-text="ⷲ" fill="#20242e" transform="translate(336 190.584) rotate(0) scale(0.047999997)">
<use href="#path38" transform="translate(0 0)"/>
</g>
</g>
<g>
<g data-source-text="◌" fill="#048fbf" transform="translate(384 190.584) rotate(0) scale(0.047999997)">
<use href="#path19" transform="translate(0 0)"/>
</g>
</g>
<g>
<g data-source-text="" fill="#20242e" transform="translate(384 190.584) rotate(0) scale(0.047999997)"/>
<g data-source-text="ⷳ" fill="#20242e" transform="translate(408 190.584) rotate(0) scale(0.047999997)">
<use href="#path39" transform="translate(0 0)"/>
</g>
</g>
<g>
<g data-source-text="◌" fill="#048fbf" transform="translate(456 190.584) rotate(0) scale(0.047999997)">
<use href="#path19" transform="translate(0 0)"/>
</g>
</g>
<g>
<g data-source-text="" fill="#20242e" transform="translate(456 190.584) rotate(0) scale(0.047999997)"/>
<g data-source-text="ⷴ" fill="#20242e" transform="translate(480 190.584) rotate(0) scale(0.047999997)">
<use href="#path40" transform="translate(0 0)"/>
</g>
</g>
<g>
<g data-source-text="◌" fill="#048fbf" transform="translate(528 190.584) rotate(0) scale(0.047999997)">
<use href="#path19" transform="translate(0 0)"/>
</g>
</g>
<g>
<g data-source-text="" fill="#20242e" transform="translate(528 190.584) rotate(0) scale(0.047999997)"/>
<g data-source-text="ⷵ" fill="#20242e" transform="translate(552 190.584) rotate(0) scale(0.047999997)">
<use href="#path41" transform="translate(0 0)"/>
</g>
</g>
<g>
<g data-source-text="◌" fill="#048fbf" transform="translate(600 190.584) rotate(0) scale(0.047999997)">
<use href="#path19" transform="translate(0 0)"/>
</g>
</g>
<g>
<g data-source-text="" fill="#20242e" transform="translate(600 190.584) rotate(0) scale(0.047999997)"/>
<g data-source-text="ⷶ" fill="#20242e" transform="translate(624 190.584) rotate(0) scale(0.047999997)">
<use href="#path42" transform="translate(0 0)"/>
</g>
</g>
<g>
<g data-source-text="◌" fill="#048fbf" transform="translate(672 190.584) rotate(0) scale(0.047999997)">
<use href="#path19" transform="translate(0 0)"/>
</g>
</g>
<g>
<g data-source-text="" fill="#20242e" transform="translate(672 190.584) rotate(0) scale(0.047999997)"/>
<g data-source-text="ⷷ" fill="#20242e" transform="translate(696 190.584) rotate(0) scale(0.047999997)">
<use href="#path43" transform="translate(0 0)"/>
</g>
</g>
<g>
<g data-source-text="◌" fill="#048fbf" transform="translate(744 190.584) rotate(0) scale(0.047999997)">
<use href="#path19" transform="translate(0 0)"/>
</g>
</g>
<g>
<g data-source-text="" fill="#20242e" transform="translate(744 190.584) rotate(0) scale(0.047999997)"/>
<g data-source-text="ⷸ" fill="#20242e" transform="translate(768 190.584) rotate(0) scale(0.047999997)">
<use href="#path44" transform="translate(0 0)"/>
</g>
</g>
<g>
<g data-source-text="◌" fill="#048fbf" transform="translate(816 190.584) rotate(0) scale(0.047999997)">
<use href="#path19" transform="translate(0 0)"/>
</g>
</g>
<g>
<g data-source-text="" fill="#20242e" transform="translate(816 190.584) rotate(0) scale(0.047999997)"/>
<g data-source-text="ⷹ" fill="#20242e" transform="translate(840 190.584) rotate(0) scale(0.047999997)">
<use href="#path45" transform="translate(0 0)"/>
</g>
</g>
<g>
<g data-source-text="◌" fill="#048fbf" transform="translate(888 190.584) rotate(0) scale(0.047999997)">
<use href="#path19" transform="translate(0 0)"/>
</g>
</g>
<g>
<g data-source-text="" fill="#20242e" transform="translate(888 190.584) rotate(0) scale(0.047999997)"/>
<g data-source-text="ⷺ" fill="#20242e" transform="translate(912 190.584) rotate(0) scale(0.047999997)">
<use href="#path46" transform="translate(0 0)"/>
</g>
</g>
<g>
<g data-source-text="◌" fill="#048fbf" transform="translate(960 190.584) rotate(0) scale(0.047999997)">
<use href="#path19" transform="translate(0 0)"/>
</g>
</g>
<g>
<g data-source-text="" fill="#20242e" transform="translate(960 190.584) rotate(0) scale(0.047999997)"/>
<g data-source-text="ⷻ" fill="#20242e" transform="translate(984 190.584) rotate(0) scale(0.047999997)">
<use href="#path47" transform="translate(0 0)"/>
</g>
</g>
<g>
<g data-source-text="◌" fill="#048fbf" transform="translate(1032 190.584) rotate(0) scale(0.047999997)">
<use href="#path19" transform="translate(0 0)"/>
</g>
</g>
<g>
<g data-source-text="" fill="#20242e" transform="translate(1032 190.584) rotate(0) scale(0.047999997)"/>
<g data-source-text="ⷼ" fill="#20242e" transform="translate(1056 190.584) rotate(0) scale(0.047999997)">
<use href="#path48" transform="translate(0 0)"/>
</g>
</g>
<g>
<g data-source-text="◌" fill="#048fbf" transform="translate(1104 190.584) rotate(0) scale(0.047999997)">
<use href="#path19" transform="translate(0 0)"/>
</g>
</g>
<g>
<g data-source-text="" fill="#20242e" transform="translate(1104 190.584) rotate(0) scale(0.047999997)"/>
<g data-source-text="ⷽ" fill="#20242e" transform="translate(1128 190.584) rotate(0) scale(0.047999997)">
<use href="#path49" transform="translate(0 0)"/>
</g>
</g>
<g>
<g data-source-text="◌" fill="#048fbf" transform="translate(1176 190.584) rotate(0) scale(0.047999997)">
<use href="#path19" transform="translate(0 0)"/>
</g>
</g>
<g>
<g data-source-text="" fill="#20242e" transform="translate(1176 190.584) rotate(0) scale(0.047999997)"/>
<g data-source-text="ⷾ" fill="#20242e" transform="translate(1200 190.584) rotate(0) scale(0.047999997)">
<use href="#path50" transform="translate(0 0)"/>
</g>
</g>
<g>
<g data-source-text="◌" fill="#048fbf" transform="translate(1248 190.584) rotate(0) scale(0.047999997)">
<use href="#path19" transform="translate(0 0)"/>
</g>
</g>
<g>
<g data-source-text="" fill="#20242e" transform="translate(1248 190.584) rotate(0) scale(0.047999997)"/>
<g data-source-text="ⷿ" fill="#20242e" transform="translate(1272 190.584) rotate(0) scale(0.047999997)">
<use href="#path51" transform="translate(0 0)"/>
</g>
</g>
</svg>