<?xml version="1.0" encoding="UTF-8" standalone="no"?>
<svg height="648" viewBox="0 0 1296 648" width="1296" xmlns="http://www.w3.org/2000/svg">
<defs>
<path d="M 250 8 Q 223 8 196 3 Q 169 -2 145 -15 Q 121 -28 102.5 -48.5 Q 84 -69 72.5 -94 Q 61 -119 56.5 -146 Q 52 -173 52 -200 L 52 -535 Q 52 -562 56.5 -589 Q 61 -616 72.5 -641 Q 84 -666 102.5 -686.5 Q 121 -707 145 -720 Q 169 -733 196 -738 Q 223 -743 250 -743 Q 277 -743 304 -738 Q 331 -733 355 -720 Q 379 -707 397.5 -686.5 Q 416 -666 427.5 -641 Q 439 -616 443.5 -589 Q 448 -562 448 -535 L 448 -200 Q 448 -173 443.5 -146 Q 439 -119 427.5 -94 Q 416 -69 397.5 -48.5 Q 379 -28 355 -15 Q 331 -2 304 3 Q 277 8 250 8 Z M 152 -338 L 348 -493 L 348 -535 Q 348 -557 343 -579 Q 338 -601 325.5 -618.5 Q 313 -636 292.5 -645.5 Q 272 -655 250 -655 Q 228 -655 207.5 -645.5 Q 187 -636 174.5 -618.5 Q 162 -601 157 -579 Q 152 -557 152 -535 Z M 250 -80 Q 272 -80 292.5 -89.5 Q 313 -99 325.5 -116.5 Q 338 -134 343 -156 Q 348 -178 348 -200 L 348 -397 L 152 -242 L 152 -200 Q 152 -178 157 -156 Q 162 -134 174.5 -116.5 Q 187 -99 207.5 -89.5 Q 228 -80 250 -80 Z " id="path1"/>
<path d="M 230 0 L 230 -632 L 110 -528 L 55 -584 L 230 -735 L 330 -735 L 330 0 Z " id="path2"/>
<path d="M 60 0 L 60 -1 Q 60 -27 61 -54 Q 62 -81 65.5 -107 Q 69 -133 77 -158.5 Q 85 -184 96.5 -208 Q 108 -232 123 -253.5 Q 138 -275 156 -294.5 Q 174 -314 194 -331 Q 214 -348 235.5 -364 Q 257 -380 277.5 -397 Q 298 -414 313 -435.5 Q 328 -457 336 -483 Q 344 -509 344 -535 Q 344 -557 339.5 -578 Q 335 -599 323.5 -617 Q 312 -635 292 -645 Q 272 -655 251 -655 Q 231 -655 212.5 -647.5 Q 194 -640 181.5 -625 Q 169 -610 163.5 -591 Q 158 -572 158 -552 L 158 -548 L 58 -548 L 58 -555 Q 58 -581 63.5 -606 Q 69 -631 81 -653 Q 93 -675 111.5 -693 Q 130 -711 152.5 -722.5 Q 175 -734 200.5 -738.5 Q 226 -743 251 -743 Q 278 -743 304.5 -737.5 Q 331 -732 354.5 -719 Q 378 -706 396 -685.5 Q 414 -665 425 -640.5 Q 436 -616 440 -589 Q 444 -562 444 -535 Q 444 -501 435 -468 Q 426 -435 407.5 -406 Q 389 -377 364 -353.5 Q 339 -330 312.5 -308.5 Q 286 -287 261 -264 Q 236 -241 216 -213 Q 196 -185 183 -153.5 Q 170 -122 165 -88 L 440 -88 L 440 0 Z " id="path3"/>
<path d="M 253 8 Q 227 8 201 4 Q 175 -0 151 -11.5 Q 127 -23 107.5 -40.5 Q 88 -58 75.5 -81 Q 63 -104 56.5 -129.5 Q 50 -155 50 -181 L 50 -187 L 150 -187 L 150 -184 Q 150 -163 157 -143 Q 164 -123 178 -108 Q 192 -93 212 -86.5 Q 232 -80 253 -80 Q 275 -80 296 -88.5 Q 317 -97 330.5 -114.5 Q 344 -132 350 -154 Q 356 -176 356 -198 Q 356 -217 352 -235.5 Q 348 -254 339 -271 Q 330 -288 316.5 -301 Q 303 -314 286 -322 Q 269 -330 250 -332 Q 231 -334 212 -334 L 212 -422 Q 229 -422 246 -424 Q 263 -426 278.5 -433 Q 294 -440 306 -452.5 Q 318 -465 325.5 -480.5 Q 333 -496 336.5 -513 Q 340 -530 340 -547 Q 340 -566 335.5 -585.5 Q 331 -605 320 -621.5 Q 309 -638 291 -646.5 Q 273 -655 253 -655 Q 234 -655 216 -647 Q 198 -639 187 -624 Q 176 -609 171 -590 Q 166 -571 166 -553 L 166 -548 L 66 -548 L 66 -556 Q 66 -581 71.5 -605.5 Q 77 -630 88 -652 Q 99 -674 116.5 -692.5 Q 134 -711 156.5 -722.5 Q 179 -734 203.5 -738.5 Q 228 -743 253 -743 Q 278 -743 303.5 -738 Q 329 -733 351 -721 Q 373 -709 390.5 -690 Q 408 -671 419 -648 Q 430 -625 435 -600 Q 440 -575 440 -550 Q 440 -524 434 -498.5 Q 428 -473 416 -450.5 Q 404 -428 385 -409.5 Q 366 -391 343 -379 Q 370 -368 391.5 -348.5 Q 413 -329 427.5 -304.5 Q 442 -280 449 -252 Q 456 -224 456 -196 Q 456 -168 450 -141.5 Q 444 -115 432 -91 Q 420 -67 401 -47 Q 382 -27 358 -14.5 Q 334 -2 307 3 Q 280 8 253 8 Z " id="path4"/>
<path d="M 282 0 L 282 -188 L 52 -188 L 52 -275 L 276 -735 L 377 -735 L 152 -275 L 282 -275 L 282 -435 L 383 -435 L 383 -275 L 440 -275 L 440 -188 L 383 -188 L 383 0 Z " id="path5"/>
<path d="M 252 8 Q 227 8 202.5 3.5 Q 178 -1 155.5 -12 Q 133 -23 114.5 -41 Q 96 -59 84 -80.5 Q 72 -102 65.5 -126.5 Q 59 -151 58 -176 L 159 -176 Q 160 -158 166.5 -139.5 Q 173 -121 185.5 -107 Q 198 -93 216 -86.5 Q 234 -80 252 -80 Q 269 -80 285 -87 Q 301 -94 312.5 -107 Q 324 -120 330.5 -135.5 Q 337 -151 341 -167.5 Q 345 -184 346.5 -201 Q 348 -218 348 -235 Q 348 -252 346.5 -269 Q 345 -286 341.5 -302.5 Q 338 -319 331.5 -334.5 Q 325 -350 314.5 -363 Q 304 -376 288 -383.5 Q 272 -391 256 -391 Q 240 -391 224 -387 Q 208 -383 195.5 -373.5 Q 183 -364 176 -349.5 Q 169 -335 168 -319 L 68 -319 L 68 -735 L 421 -735 L 421 -647 L 168 -647 L 168 -464 Q 189 -472 211 -475 Q 233 -478 256 -478 Q 285 -478 313.5 -470.5 Q 342 -463 365.5 -445.5 Q 389 -428 405.5 -403 Q 422 -378 431.5 -350.5 Q 441 -323 444.5 -294 Q 448 -265 448 -235 Q 448 -206 444.5 -176.5 Q 441 -147 431 -119 Q 421 -91 404.5 -66.5 Q 388 -42 364 -24.5 Q 340 -7 311 0.5 Q 282 8 252 8 Z " id="path6"/>
<path d="M 250 8 Q 221 8 192.5 1.5 Q 164 -5 140 -21 Q 116 -37 98.5 -60.5 Q 81 -84 70.5 -111 Q 60 -138 56 -166.5 Q 52 -195 52 -224 Q 52 -268 59.5 -311 Q 67 -354 81 -395.5 Q 95 -437 113 -477 Q 131 -517 150 -556 L 238 -735 L 347 -735 L 240 -517 Q 228 -492 216 -467 Q 204 -442 194 -416 Q 212 -436 238.5 -446 Q 265 -456 292 -456 Q 318 -456 343.5 -447 Q 369 -438 387.5 -419.5 Q 406 -401 418 -377 Q 430 -353 436.5 -328 Q 443 -303 445.5 -276.5 Q 448 -250 448 -224 Q 448 -195 444 -166.5 Q 440 -138 429.5 -111 Q 419 -84 401.5 -60.5 Q 384 -37 360 -21 Q 336 -5 307.5 1.5 Q 279 8 250 8 Z M 250 -80 Q 266 -80 282 -85.5 Q 298 -91 309.5 -102.5 Q 321 -114 328.5 -129 Q 336 -144 340.5 -159.5 Q 345 -175 346.5 -191.5 Q 348 -208 348 -224 Q 348 -240 346.5 -256.5 Q 345 -273 340.5 -289 Q 336 -305 328.5 -319.5 Q 321 -334 309.5 -345.5 Q 298 -357 282 -362.5 Q 266 -368 250 -368 Q 235 -368 221 -363.5 Q 207 -359 195.5 -349.5 Q 184 -340 176 -327.5 Q 168 -315 163.5 -301 Q 159 -287 156.5 -272.5 Q 154 -258 153 -243 Q 153 -238 152.5 -233.5 Q 152 -229 152 -224 Q 152 -208 153.5 -191.5 Q 155 -175 159.5 -159.5 Q 164 -144 171.5 -129 Q 179 -114 190.5 -102.5 Q 202 -91 218 -85.5 Q 234 -80 250 -80 Z " id="path7"/>
<path d="M 138 0 L 336 -647 L 60 -647 L 60 -735 L 440 -735 L 440 -647 L 242 0 Z " id="path8"/>
<path d="M 250 8 Q 225 8 200 4 Q 175 -0 152 -10 Q 129 -20 109.5 -37 Q 90 -54 77.5 -75.5 Q 65 -97 58.5 -121.5 Q 52 -146 52 -172 Q 52 -203 61.5 -232.5 Q 71 -262 88 -288.5 Q 105 -315 127 -336.5 Q 149 -358 174 -378 Q 152 -396 132.5 -417 Q 113 -438 98.5 -462.5 Q 84 -487 76 -514.5 Q 68 -542 68 -570 Q 68 -594 73.5 -617.5 Q 79 -641 90.5 -661.5 Q 102 -682 119.5 -698.5 Q 137 -715 158 -725 Q 179 -735 202.5 -739 Q 226 -743 250 -743 Q 274 -743 297.5 -739 Q 321 -735 342 -725 Q 363 -715 380.5 -698.5 Q 398 -682 409.5 -661.5 Q 421 -641 426.5 -617.5 Q 432 -594 432 -570 Q 432 -542 424 -514.5 Q 416 -487 401.5 -462.5 Q 387 -438 367.5 -417 Q 348 -396 326 -378 Q 351 -358 373 -336.5 Q 395 -315 412 -288.5 Q 429 -262 438.5 -232.5 Q 448 -203 448 -172 Q 448 -146 441.5 -121.5 Q 435 -97 422.5 -75.5 Q 410 -54 390.5 -37 Q 371 -20 348 -10 Q 325 -0 300 4 Q 275 8 250 8 Z M 250 -434 Q 266 -447 280.5 -461.5 Q 295 -476 306.5 -493 Q 318 -510 325 -529.5 Q 332 -549 332 -569 Q 332 -586 327 -602.5 Q 322 -619 310.5 -631.5 Q 299 -644 283 -649.5 Q 267 -655 250 -655 Q 233 -655 217 -649.5 Q 201 -644 189.5 -631.5 Q 178 -619 173 -602.5 Q 168 -586 168 -569 Q 168 -549 175 -529.5 Q 182 -510 193.5 -493 Q 205 -476 219.5 -461.5 Q 234 -447 250 -434 Z M 250 -80 Q 269 -80 288 -85.5 Q 307 -91 320.5 -104 Q 334 -117 341 -135.5 Q 348 -154 348 -173 Q 348 -196 339.5 -217.5 Q 331 -239 317 -257.5 Q 303 -276 285.5 -291 Q 268 -306 250 -320 Q 232 -306 214.5 -291 Q 197 -276 183 -257.5 Q 169 -239 160.5 -217.5 Q 152 -196 152 -173 Q 152 -154 159 -135.5 Q 166 -117 179.5 -104 Q 193 -91 212 -85.5 Q 231 -80 250 -80 Z " id="path9"/>
<path d="M 262 0 L 153 0 L 260 -218 Q 272 -243 284 -268 Q 296 -293 306 -319 Q 288 -299 261.5 -289 Q 235 -279 208 -279 Q 182 -279 156.5 -288 Q 131 -297 112.5 -315.5 Q 94 -334 82 -358 Q 70 -382 63.5 -407 Q 57 -432 54.5 -458.5 Q 52 -485 52 -511 Q 52 -540 56 -568.5 Q 60 -597 70.5 -624 Q 81 -651 98.5 -674.5 Q 116 -698 140 -714 Q 164 -730 192.5 -736.5 Q 221 -743 250 -743 Q 279 -743 307.5 -736.5 Q 336 -730 360 -714 Q 384 -698 401.5 -674.5 Q 419 -651 429.5 -624 Q 440 -597 444 -568.5 Q 448 -540 448 -511 Q 448 -467 440.5 -424 Q 433 -381 419 -339.5 Q 405 -298 387 -258 Q 369 -218 350 -179 Z M 250 -367 Q 265 -367 279 -371.5 Q 293 -376 304.5 -385.5 Q 316 -395 324 -407.5 Q 332 -420 336.5 -434 Q 341 -448 343.5 -462.5 Q 346 -477 347 -492 Q 347 -497 347.5 -501.5 Q 348 -506 348 -511 Q 348 -527 346.5 -543.5 Q 345 -560 340.5 -575.5 Q 336 -591 328.5 -606 Q 321 -621 309.5 -632.5 Q 298 -644 282 -649.5 Q 266 -655 250 -655 Q 234 -655 218 -649.5 Q 202 -644 190.5 -632.5 Q 179 -621 171.5 -606 Q 164 -591 159.5 -575.5 Q 155 -560 153.5 -543.5 Q 152 -527 152 -511 Q 152 -495 153.5 -478.5 Q 155 -462 159.5 -446 Q 164 -430 171.5 -415.5 Q 179 -401 190.5 -389.5 Q 202 -378 218 -372.5 Q 234 -367 250 -367 Z " id="path10"/>
<path d="M 39 0 L 53 -70 L 192 -735 L 308 -735 L 461 0 L 359 0 L 326 -172 L 174 -172 L 141 0 Z M 310 -260 L 267 -490 Q 263 -513 258.5 -536 Q 254 -559 250 -582 Q 246 -559 241.5 -536 Q 237 -513 233 -490 L 190 -260 Z " id="path11"/>
<path d="M 60 0 L 60 -735 L 235 -735 Q 261 -735 287 -730.5 Q 313 -726 336.5 -714 Q 360 -702 378.5 -682.5 Q 397 -663 408.5 -639.5 Q 420 -616 424.5 -590 Q 429 -564 429 -538 Q 429 -515 425.5 -492 Q 422 -469 411.5 -448.5 Q 401 -428 384.5 -411 Q 368 -394 348 -383 Q 373 -373 394.5 -355.5 Q 416 -338 430.5 -314.5 Q 445 -291 450.5 -264 Q 456 -237 456 -210 Q 456 -181 450.5 -152.5 Q 445 -124 431 -98.5 Q 417 -73 395.5 -53.5 Q 374 -34 347.5 -21.5 Q 321 -9 292.5 -4.5 Q 264 -0 235 0 Z M 160 -424 L 235 -424 Q 256 -424 275.5 -432.5 Q 295 -441 307.5 -457.5 Q 320 -474 324.5 -494.5 Q 329 -515 329 -536 Q 329 -557 324.5 -577.5 Q 320 -598 307.5 -614.5 Q 295 -631 275.5 -639 Q 256 -647 235 -647 L 160 -647 Z M 160 -88 L 235 -88 Q 251 -88 267.5 -91 Q 284 -94 298.5 -101.5 Q 313 -109 324.5 -121 Q 336 -133 343 -148 Q 350 -163 353 -179 Q 356 -195 356 -212 Q 356 -228 353 -244.5 Q 350 -261 343 -276 Q 336 -291 324.5 -303 Q 313 -315 298.5 -322.5 Q 284 -330 267.5 -333 Q 251 -336 235 -336 L 160 -336 Z " id="path12"/>
<path d="M 247 8 Q 220 8 193 3 Q 166 -2 142.5 -15.5 Q 119 -29 101 -49.5 Q 83 -70 71.5 -94.5 Q 60 -119 56 -146 Q 52 -173 52 -200 L 52 -535 Q 52 -562 56 -589 Q 60 -616 71.5 -640.5 Q 83 -665 101 -685.5 Q 119 -706 142.5 -719.5 Q 166 -733 193 -738 Q 220 -743 247 -743 Q 273 -743 298 -738.5 Q 323 -734 346 -723 Q 369 -712 387.5 -694 Q 406 -676 418 -653.5 Q 430 -631 436 -606 Q 442 -581 442 -555 L 442 -548 L 342 -548 L 342 -552 Q 342 -572 336 -591.5 Q 330 -611 317.5 -626 Q 305 -641 286 -648 Q 267 -655 247 -655 Q 225 -655 205 -645.5 Q 185 -636 173 -618 Q 161 -600 156.5 -578.5 Q 152 -557 152 -535 L 152 -200 Q 152 -178 156.5 -156.5 Q 161 -135 173 -117 Q 185 -99 205 -89.5 Q 225 -80 247 -80 Q 267 -80 286 -87 Q 305 -94 317.5 -109 Q 330 -124 336 -143.5 Q 342 -163 342 -183 L 342 -187 L 442 -187 L 442 -180 Q 442 -154 436 -129 Q 430 -104 418 -81.5 Q 406 -59 387.5 -41 Q 369 -23 346 -12 Q 323 -1 298 3.5 Q 273 8 247 8 Z " id="path13"/>
<path d="M 60 0 L 60 -735 L 220 -735 Q 250 -735 280 -730 Q 310 -725 337 -712 Q 364 -699 386.5 -678.5 Q 409 -658 423 -631.5 Q 437 -605 442.5 -575 Q 448 -545 448 -515 L 448 -220 Q 448 -190 442.5 -160 Q 437 -130 423 -103.5 Q 409 -77 386.5 -56.5 Q 364 -36 337 -23 Q 310 -10 280 -5 Q 250 -0 220 0 Z M 160 -88 L 220 -88 Q 237 -88 254.5 -91 Q 272 -94 287.5 -102.5 Q 303 -111 315 -124 Q 327 -137 334.5 -152.5 Q 342 -168 345 -185.5 Q 348 -203 348 -220 L 348 -515 Q 348 -532 345 -549.5 Q 342 -567 334.5 -582.5 Q 327 -598 315 -611 Q 303 -624 287.5 -632.5 Q 272 -641 254.5 -644 Q 237 -647 220 -647 L 160 -647 Z " id="path14"/>
<path d="M 68 0 L 68 -735 L 440 -735 L 440 -647 L 168 -647 L 168 -426 L 383 -426 L 383 -338 L 168 -338 L 168 -88 L 440 -88 L 440 0 Z " id="path15"/>
<path d="M 90 0 L 90 -735 L 440 -735 L 440 -647 L 190 -647 L 190 -426 L 383 -426 L 383 -338 L 190 -338 L 190 0 Z " id="path16"/>
<path d="M 250 8 Q 223 8 196.5 2.5 Q 170 -3 147 -16.5 Q 124 -30 106.5 -50.5 Q 89 -71 78.5 -95.5 Q 68 -120 64 -146.5 Q 60 -173 60 -200 L 60 -735 L 160 -735 L 160 -200 Q 160 -186 161.5 -172 Q 163 -158 167.5 -144.5 Q 172 -131 179.5 -118.5 Q 187 -106 197.5 -97 Q 208 -88 222 -84 Q 236 -80 250 -80 Q 264 -80 278 -84 Q 292 -88 302.5 -97 Q 313 -106 320.5 -118.5 Q 328 -131 332.5 -144.5 Q 337 -158 338.5 -172 Q 340 -186 340 -200 L 340 -735 L 440 -735 L 440 -200 Q 440 -173 436 -146.5 Q 432 -120 421.5 -95.5 Q 411 -71 393.5 -50.5 Q 376 -30 353 -16.5 Q 330 -3 303.5 2.5 Q 277 8 250 8 Z " id="path17"/>
<path d="M 296 -142 L 204 -142 L 204 -300 L 60 -300 L 60 -380 L 204 -380 L 204 -538 L 296 -538 L 296 -380 L 440 -380 L 440 -300 L 296 -300 Z " id="path18"/>
<path d="M 661 -19 L 339 -340 L 661 -661 Z " id="path19"/>
<path d="M 821 -179 L 179 -179 L 500 -501 Z " id="path20"/>
<path d="M 339 -19 L 339 -661 L 661 -340 Z " id="path21"/>
<path d="M 500 -179 L 179 -501 L 821 -501 Z " id="path22"/>
<path d="M 500 -191 Q 471 -191 443 -202.5 Q 415 -214 394.5 -234.5 Q 374 -255 362.5 -283 Q 351 -311 351 -340 Q 351 -369 362.5 -397 Q 374 -425 394.5 -445.5 Q 415 -466 443 -477.5 Q 471 -489 500 -489 Q 529 -489 557 -477.5 Q 585 -466 605.5 -445.5 Q 626 -425 637.5 -397 Q 649 -369 649 -340 Q 649 -311 637.5 -283 Q 626 -255 605.5 -234.5 Q 585 -214 557 -202.5 Q 529 -191 500 -191 Z " id="path23"/>
<path d="M 500 -19 Q 458 -19 417 -30 Q 376 -41 339.5 -62 Q 303 -83 273 -113 Q 243 -143 222 -179.5 Q 201 -216 190 -257 Q 179 -298 179 -340 Q 179 -382 190 -423 Q 201 -464 222 -500.5 Q 243 -537 273 -567 Q 303 -597 339.5 -618 Q 376 -639 417 -650 Q 458 -661 500 -661 Q 542 -661 583 -650 Q 624 -639 660.5 -618 Q 697 -597 727 -567 Q 757 -537 778 -500.5 Q 799 -464 810 -423 Q 821 -382 821 -340 Q 821 -298 810 -257 Q 799 -216 778 -179.5 Q 757 -143 727 -113 Q 697 -83 660.5 -62 Q 624 -41 583 -30 Q 542 -19 500 -19 Z M 500 -107 Q 531 -107 560.5 -115 Q 590 -123 616.5 -138 Q 643 -153 665 -175 Q 687 -197 702 -223.5 Q 717 -250 725 -279.5 Q 733 -309 733 -340 Q 733 -371 725 -400.5 Q 717 -430 702 -456.5 Q 687 -483 665 -505 Q 643 -527 616.5 -542 Q 590 -557 560.5 -565 Q 531 -573 500 -573 Q 469 -573 439.5 -565 Q 410 -557 383.5 -542 Q 357 -527 335 -505 Q 313 -483 298 -456.5 Q 283 -430 275 -400.5 Q 267 -371 267 -340 Q 267 -309 275 -279.5 Q 283 -250 298 -223.5 Q 313 -197 335 -175 Q 357 -153 383.5 -138 Q 410 -123 439.5 -115 Q 469 -107 500 -107 Z " id="path24"/>
<path d="M 500 -19 Q 458 -19 417 -30 Q 376 -41 339.5 -62 Q 303 -83 273 -113 Q 243 -143 222 -179.5 Q 201 -216 190 -257 Q 179 -298 179 -340 Q 179 -382 190 -423 Q 201 -464 222 -500.5 Q 243 -537 273 -567 Q 303 -597 339.5 -618 Q 376 -639 417 -650 Q 458 -661 500 -661 Q 542 -661 583 -650 Q 624 -639 660.5 -618 Q 697 -597 727 -567 Q 757 -537 778 -500.5 Q 799 -464 810 -423 Q 821 -382 821 -340 Q 821 -298 810 -257 Q 799 -216 778 -179.5 Q 757 -143 727 -113 Q 697 -83 660.5 -62 Q 624 -41 583 -30 Q 542 -19 500 -19 Z M 500 -122 Q 528 -122 556 -129.5 Q 584 -137 609 -151.5 Q 634 -166 654 -186 Q 674 -206 688.5 -231 Q 703 -256 710.5 -284 Q 718 -312 718 -340 Q 718 -368 710.5 -396 Q 703 -424 688.5 -449 Q 674 -474 654 -494 Q 634 -514 609 -528.5 Q 584 -543 556 -550.5 Q 528 -558 500 -558 Q 472 -558 444 -550.5 Q 416 -543 391 -528.5 Q 366 -514 346 -494 Q 326 -474 311.5 -449 Q 297 -424 289.5 -396 Q 282 -368 282 -340 Q 282 -312 289.5 -284 Q 297 -256 311.5 -231 Q 326 -206 346 -186 Q 366 -166 391 -151.5 Q 416 -137 444 -129.5 Q 472 -122 500 -122 Z " id="path25"/>
<path d="M 500 -19 Q 458 -19 417 -30 Q 376 -41 339.5 -62 Q 303 -83 273 -113 Q 243 -143 222 -179.5 Q 201 -216 190 -257 Q 179 -298 179 -340 Q 179 -382 190 -423 Q 201 -464 222 -500.5 Q 243 -537 273 -567 Q 303 -597 339.5 -618 Q 376 -639 417 -650 Q 458 -661 500 -661 Q 542 -661 583 -650 Q 624 -639 660.5 -618 Q 697 -597 727 -567 Q 757 -537 778 -500.5 Q 799 -464 810 -423 Q 821 -382 821 -340 Q 821 -298 810 -257 Q 799 -216 778 -179.5 Q 757 -143 727 -113 Q 697 -83 660.5 -62 Q 624 -41 583 -30 Q 542 -19 500 -19 Z M 500 -155 Q 536 -155 570.5 -169 Q 605 -183 631 -209 Q 657 -235 671 -269.5 Q 685 -304 685 -340 Q 685 -376 671 -410.5 Q 657 -445 631 -471 Q 605 -497 570.5 -511 Q 536 -525 500 -525 Q 464 -525 429.5 -511 Q 395 -497 369 -471 Q 343 -445 329 -410.5 Q 315 -376 315 -340 Q 315 -304 329 -269.5 Q 343 -235 369 -209 Q 395 -183 429.5 -169 Q 464 -155 500 -155 Z " id="path26"/>
<path d="M 500 -19 Q 458 -19 417 -30 Q 376 -41 339.5 -62 Q 303 -83 273 -113 Q 243 -143 222 -179.5 Q 201 -216 190 -257 Q 179 -298 179 -340 Q 179 -382 190 -423 Q 201 -464 222 -500.5 Q 243 -537 273 -567 Q 303 -597 339.5 -618 Q 376 -639 417 -650 Q 458 -661 500 -661 Q 542 -661 583 -650 Q 624 -639 660.5 -618 Q 697 -597 727 -567 Q 757 -537 778 -500.5 Q 799 -464 810 -423 Q 821 -382 821 -340 Q 821 -298 810 -257 Q 799 -216 778 -179.5 Q 757 -143 727 -113 Q 697 -83 660.5 -62 Q 624 -41 583 -30 Q 542 -19 500 -19 Z M 500 -172 Q 533 -172 564 -185 Q 595 -198 618.5 -221.5 Q 642 -245 655 -276 Q 668 -307 668 -340 Q 668 -373 655 -404 Q 642 -435 618.5 -458.5 Q 595 -482 564 -495 Q 533 -508 500 -508 Q 467 -508 436 -495 Q 405 -482 381.5 -458.5 Q 358 -435 345 -404 Q 332 -373 332 -340 Q 332 -307 345 -276 Q 358 -245 381.5 -221.5 Q 405 -198 436 -185 Q 467 -172 500 -172 Z " id="path27"/>
<path d="M 500 -19 Q 458 -19 417 -30 Q 376 -41 339.5 -62 Q 303 -83 273 -113 Q 243 -143 222 -179.5 Q 201 -216 190 -257 Q 179 -298 179 -340 Q 179 -382 190 -423 Q 201 -464 222 -500.5 Q 243 -537 273 -567 Q 303 -597 339.5 -618 Q 376 -639 417 -650 Q 458 -661 500 -661 Q 542 -661 583 -650 Q 624 -639 660.5 -618 Q 697 -597 727 -567 Q 757 -537 778 -500.5 Q 799 -464 810 -423 Q 821 -382 821 -340 Q 821 -298 810 -257 Q 799 -216 778 -179.5 Q 757 -143 727 -113 Q 697 -83 660.5 -62 Q 624 -41 583 -30 Q 542 -19 500 -19 Z M 500 -189 Q 530 -189 558 -200.5 Q 586 -212 607 -233 Q 628 -254 639.5 -282 Q 651 -310 651 -340 Q 651 -370 639.5 -398 Q 628 -426 607 -447 Q 586 -468 558 -479.5 Q 530 -491 500 -491 Q 470 -491 442 -479.5 Q 414 -468 393 -447 Q 372 -426 360.5 -398 Q 349 -370 349 -340 Q 349 -310 360.5 -282 Q 372 -254 393 -233 Q 414 -212 442 -200.5 Q 470 -189 500 -189 Z " id="path28"/>
<path d="M 500 -19 Q 458 -19 417 -30 Q 376 -41 339.5 -62 Q 303 -83 273 -113 Q 243 -143 222 -179.5 Q 201 -216 190 -257 Q 179 -298 179 -340 Q 179 -382 190 -423 Q 201 -464 222 -500.5 Q 243 -537 273 -567 Q 303 -597 339.5 -618 Q 376 -639 417 -650 Q 458 -661 500 -661 Q 542 -661 583 -650 Q 624 -639 660.5 -618 Q 697 -597 727 -567 Q 757 -537 778 -500.5 Q 799 -464 810 -423 Q 821 -382 821 -340 Q 821 -298 810 -257 Q 799 -216 778 -179.5 Q 757 -143 727 -113 Q 697 -83 660.5 -62 Q 624 -41 583 -30 Q 542 -19 500 -19 Z M 500 -78 Q 534 -78 567.5 -87 Q 601 -96 631 -113.5 Q 661 -131 685 -155 Q 709 -179 726.5 -209 Q 744 -239 753 -272.5 Q 762 -306 762 -340 Q 762 -374 753 -407.5 Q 744 -441 726.5 -471 Q 709 -501 685 -525 Q 661 -549 631 -566.5 Q 601 -584 567.5 -593 Q 534 -602 500 -602 Q 466 -602 432.5 -593 Q 399 -584 369 -566.5 Q 339 -549 315 -525 Q 291 -501 273.5 -471 Q 256 -441 247 -407.5 Q 238 -374 238 -340 Q 238 -306 247 -272.5 Q 256 -239 273.5 -209 Q 291 -179 315 -155 Q 339 -131 369 -113.5 Q 399 -96 432.5 -87 Q 466 -78 500 -78 Z M 500 -253 Q 483 -253 466.5 -259.5 Q 450 -266 438 -278 Q 426 -290 419.5 -306.5 Q 413 -323 413 -340 Q 413 -357 419.5 -373.5 Q 426 -390 438 -402 Q 450 -414 466.5 -420.5 Q 483 -427 500 -427 Q 517 -427 533.5 -420.5 Q 550 -414 562 -402 Q 574 -390 580.5 -373.5 Q 587 -357 587 -340 Q 587 -323 580.5 -306.5 Q 574 -290 562 -278 Q 550 -266 533.5 -259.5 Q 517 -253 500 -253 Z " id="path29"/>
<path d="M 500 -19 Q 458 -19 417 -30 Q 376 -41 339.5 -62 Q 303 -83 273 -113 Q 243 -143 222 -179.5 Q 201 -216 190 -257 Q 179 -298 179 -340 Q 179 -382 190 -423 Q 201 -464 222 -500.5 Q 243 -537 273 -567 Q 303 -597 339.5 -618 Q 376 -639 417 -650 Q 458 -661 500 -661 Q 542 -661 583 -650 Q 624 -639 660.5 -618 Q 697 -597 727 -567 Q 757 -537 778 -500.5 Q 799 -464 810 -423 Q 821 -382 821 -340 Q 821 -298 810 -257 Q 799 -216 778 -179.5 Q 757 -143 727 -113 Q 697 -83 660.5 -62 Q 624 -41 583 -30 Q 542 -19 500 -19 Z M 500 -78 Q 534 -78 567.5 -87 Q 601 -96 631 -113.5 Q 661 -131 685 -155 Q 709 -179 726.5 -209 Q 744 -239 753 -272.5 Q 762 -306 762 -340 Q 762 -374 753 -407.5 Q 744 -441 726.5 -471 Q 709 -501 685 -525 Q 661 -549 631 -566.5 Q 601 -584 567.5 -593 Q 534 -602 500 -602 Q 466 -602 432.5 -593 Q 399 -584 369 -566.5 Q 339 -549 315 -525 Q 291 -501 273.5 -471 Q 256 -441 247 -407.5 Q 238 -374 238 -340 Q 238 -306 247 -272.5 Q 256 -239 273.5 -209 Q 291 -179 315 -155 Q 339 -131 369 -113.5 Q 399 -96 432.5 -87 Q 466 -78 500 -78 Z M 500 -139 Q 461 -139 423.5 -154.5 Q 386 -170 358 -198 Q 330 -226 314.5 -263.5 Q 299 -301 299 -340 Q 299 -379 314.5 -416.5 Q 330 -454 358 -482 Q 386 -510 423.5 -525.5 Q 461 -541 500 -541 Q 539 -541 576.5 -525.5 Q 614 -510 642 -482 Q 670 -454 685.5 -416.5 Q 701 -379 701 -340 Q 701 -301 685.5 -263.5 Q 670 -226 642 -198 Q 614 -170 576.5 -154.5 Q 539 -139 500 -139 Z M 500 -199 Q 528 -199 554 -210 Q 580 -221 599.5 -240.5 Q 619 -260 630 -286 Q 641 -312 641 -340 Q 641 -368 630 -394 Q 619 -420 599.5 -439.5 Q 580 -459 554 -470 Q 528 -481 500 -481 Q 472 -481 446 -470 Q 420 -459 400.5 -439.5 Q 381 -420 370 -394 Q 359 -368 359 -340 Q 359 -312 370 -286 Q 381 -260 400.5 -240.5 Q 420 -221 446 -210 Q 472 -199 500 -199 Z M 500 -289 Q 490 -289 480.5 -293 Q 471 -297 464 -304 Q 457 -311 453 -320.5 Q 449 -330 449 -340 Q 449 -350 453 -359.5 Q 457 -369 464 -376 Q 471 -383 480.5 -387 Q 490 -391 500 -391 Q 510 -391 519.5 -387 Q 529 -383 536 -376 Q 543 -369 547 -359.5 Q 551 -350 551 -340 Q 551 -330 547 -320.5 Q 543 -311 536 -304 Q 529 -297 519.5 -293 Q 510 -289 500 -289 Z " id="path30"/>
<path d="M 454 -294 L 454 -386 L 546 -386 L 546 -294 Z " id="path31"/>
<path d="M 351 -191 L 351 -489 L 649 -489 L 649 -191 Z " id="path32"/>
<path d="M 179 -19 L 179 -661 L 821 -661 L 821 -19 Z M 225 -65 L 775 -65 L 775 -615 L 225 -615 Z " id="path33"/>
<path d="M 179 -19 L 179 -661 L 821 -661 L 821 -19 Z M 252 -92 L 748 -92 L 748 -588 L 252 -588 Z " id="path34"/>
<path d="M 179 -19 L 179 -661 L 821 -661 L 821 -19 Z M 718 -122 L 718 -558 L 282 -558 L 282 -122 Z " id="path35"/>
<path d="M 179 -19 L 179 -661 L 821 -661 L 821 -19 Z M 315 -155 L 685 -155 L 685 -525 L 315 -525 Z " id="path36"/>
<path d="M 179 -19 L 179 -661 L 821 -661 L 821 -19 Z M 332 -172 L 668 -172 L 668 -508 L 332 -508 Z " id="path37"/>
<path d="M 179 -19 L 179 -661 L 821 -661 L 821 -19 Z M 349 -189 L 651 -189 L 651 -491 L 349 -491 Z " id="path38"/>
<path d="M 179 -19 L 179 -661 L 821 -661 L 821 -19 Z M 238 -78 L 762 -78 L 762 -602 L 238 -602 Z M 435 -275 L 435 -405 L 565 -405 L 565 -275 Z " id="path39"/>
<path d="M 179 -19 L 179 -661 L 821 -661 L 821 -19 Z M 238 -78 L 762 -78 L 762 -602 L 238 -602 Z M 326 -166 L 326 -514 L 674 -514 L 674 -166 Z " id="path40"/>
<path d="M 179 -19 L 179 -661 L 821 -661 L 821 -19 Z M 238 -78 L 762 -78 L 762 -602 L 238 -602 Z M 299 -139 L 299 -541 L 701 -541 L 701 -139 Z M 359 -199 L 641 -199 L 641 -481 L 359 -481 Z M 449 -289 L 449 -391 L 551 -391 L 551 -289 Z " id="path41"/>
<path d="M 500 -294 L 454 -340 L 500 -386 L 546 -340 Z " id="path42"/>
<path d="M 500 -225 L 385 -340 L 500 -455 L 615 -340 Z " id="path43"/>
<path d="M 500 -122 L 282 -340 L 500 -558 L 718 -340 Z " id="path44"/>
<path d="M 500 -19 L 179 -340 L 500 -661 L 821 -340 Z M 500 -78 L 762 -340 L 500 -602 L 238 -340 Z M 500 -275 L 435 -340 L 500 -405 L 565 -340 Z " id="path45"/>
<path d="M 500 -19 L 179 -340 L 500 -661 L 821 -340 Z M 500 -78 L 762 -340 L 500 -602 L 238 -340 Z M 500 -166 L 326 -340 L 500 -514 L 674 -340 Z " id="path46"/>
<path d="M 500 -19 L 179 -340 L 500 -661 L 821 -340 Z M 500 -78 L 762 -340 L 500 -602 L 238 -340 Z M 500 -139 L 299 -340 L 500 -541 L 701 -340 Z M 500 -199 L 641 -340 L 500 -481 L 359 -340 Z M 500 -289 L 449 -340 L 500 -391 L 551 -340 Z " id="path47"/>
<path d="M 500 -294 L 469 -340 L 500 -386 L 531 -340 Z " id="path48"/>
<path d="M 500 -225 L 424 -340 L 500 -455 L 576 -340 Z " id="path49"/>
<path d="M 500 -122 L 355 -340 L 500 -558 L 645 -340 Z " id="path50"/>
<path d="M 500 -19 L 286 -340 L 500 -661 L 714 -340 Z M 500 -126 L 643 -340 L 500 -554 L 357 -340 Z M 500 -253 L 442 -340 L 500 -427 L 558 -340 Z " id="path51"/>
<path d="M 518 -19 L 482 -19 L 482 -324 L 179 -324 L 179 -356 L 482 -356 L 482 -661 L 518 -661 L 518 -356 L 821 -356 L 821 -324 L 518 -324 Z " id="path52"/>
<path d="M 526 -19 L 474 -19 L 474 -317 L 179 -317 L 179 -363 L 474 -363 L 474 -661 L 526 -661 L 526 -363 L 821 -363 L 821 -317 L 526 -317 Z " id="path53"/>
<path d="M 541 -19 L 459 -19 L 459 -303 L 179 -303 L 179 -377 L 459 -377 L 459 -661 L 541 -661 L 541 -377 L 821 -377 L 821 -303 L 541 -303 Z " id="path54"/>
<path d="M 557 -19 L 443 -19 L 443 -288 L 179 -288 L 179 -392 L 443 -392 L 443 -661 L 557 -661 L 557 -392 L 821 -392 L 821 -288 L 557 -288 Z " id="path55"/>
<path d="M 566 -19 L 434 -19 L 434 -280 L 179 -280 L 179 -400 L 434 -400 L 434 -661 L 566 -661 L 566 -400 L 821 -400 L 821 -280 L 566 -280 Z " id="path56"/>
<path d="M 415 -19 L 415 -263 L 179 -263 L 179 -417 L 415 -417 L 415 -661 L 585 -661 L 585 -417 L 821 -417 L 821 -263 L 585 -263 L 585 -19 Z " id="path57"/>
<path d="M 405 -19 L 405 -255 L 179 -255 L 179 -425 L 405 -425 L 405 -661 L 595 -661 L 595 -425 L 821 -425 L 821 -255 L 595 -255 L 595 -19 Z " id="path58"/>
<path d="M 286 -101 L 260 -124 L 476 -340 L 260 -556 L 286 -579 L 500 -364 L 714 -579 L 740 -556 L 524 -340 L 740 -124 L 714 -101 L 500 -316 Z " id="path59"/>
<path d="M 291 -97 L 255 -129 L 466 -340 L 255 -551 L 291 -583 L 500 -374 L 709 -583 L 745 -551 L 534 -340 L 745 -129 L 709 -97 L 500 -306 Z " id="path60"/>
<path d="M 698 -87 L 500 -285 L 302 -87 L 244 -139 L 445 -340 L 244 -541 L 302 -593 L 500 -395 L 698 -593 L 756 -541 L 555 -340 L 756 -139 Z " id="path61"/>
<path d="M 687 -76 L 500 -263 L 313 -76 L 232 -149 L 423 -340 L 232 -531 L 313 -604 L 500 -417 L 687 -604 L 768 -531 L 577 -340 L 768 -149 Z " id="path62"/>
<path d="M 326 -65 L 219 -161 L 398 -340 L 219 -519 L 326 -615 L 500 -442 L 674 -615 L 781 -519 L 602 -340 L 781 -161 L 674 -65 L 500 -238 Z " id="path63"/>
<path d="M 667 -59 L 500 -226 L 333 -59 L 213 -167 L 386 -340 L 213 -513 L 333 -621 L 500 -454 L 667 -621 L 787 -513 L 614 -340 L 787 -167 Z " id="path64"/>
<path d="M 340 -53 L 206 -173 L 373 -340 L 206 -507 L 340 -627 L 500 -467 L 660 -627 L 794 -507 L 627 -340 L 794 -173 L 660 -53 L 500 -213 Z " id="path65"/>
<path d="M 668 -67 L 500 -298 L 332 -67 L 290 -94 L 461 -328 L 187 -417 L 202 -461 L 474 -373 L 474 -661 L 526 -661 L 526 -373 L 798 -461 L 813 -417 L 539 -328 L 710 -94 Z " id="path66"/>
<path d="M 656 -58 L 500 -273 L 344 -58 L 278 -102 L 438 -321 L 182 -404 L 207 -474 L 459 -392 L 459 -661 L 541 -661 L 541 -392 L 793 -474 L 818 -404 L 562 -321 L 722 -102 Z " id="path67"/>
<path d="M 642 -50 L 500 -246 L 358 -50 L 265 -111 L 412 -314 L 177 -390 L 212 -489 L 443 -414 L 443 -661 L 557 -661 L 557 -414 L 788 -489 L 823 -390 L 588 -314 L 735 -111 Z " id="path68"/>
<path d="M 628 -40 L 500 -216 L 372 -40 L 250 -120 L 384 -305 L 171 -375 L 218 -504 L 424 -437 L 424 -661 L 576 -661 L 576 -437 L 782 -504 L 829 -375 L 616 -305 L 750 -120 Z " id="path69"/>
<path d="M 620 -35 L 500 -200 L 380 -35 L 242 -125 L 370 -301 L 168 -366 L 221 -512 L 415 -449 L 415 -661 L 585 -661 L 585 -449 L 779 -512 L 832 -366 L 630 -301 L 758 -125 Z " id="path70"/>
<path d="M 388 -30 L 235 -130 L 355 -296 L 165 -358 L 224 -520 L 405 -461 L 405 -661 L 595 -661 L 595 -461 L 776 -520 L 835 -358 L 645 -296 L 765 -130 L 612 -30 L 500 -185 Z " id="path71"/>
<path d="M 474 -19 L 477 -302 L 235 -159 L 209 -199 L 457 -340 L 209 -481 L 235 -521 L 477 -378 L 474 -661 L 526 -661 L 523 -378 L 765 -521 L 791 -481 L 543 -340 L 791 -199 L 765 -159 L 523 -302 L 526 -19 Z " id="path72"/>
<path d="M 541 -19 L 459 -19 L 462 -278 L 242 -147 L 201 -211 L 431 -340 L 201 -469 L 242 -533 L 462 -402 L 459 -661 L 541 -661 L 538 -402 L 758 -533 L 799 -469 L 569 -340 L 799 -211 L 758 -147 L 538 -278 Z " id="path73"/>
<path d="M 557 -19 L 443 -19 L 447 -252 L 251 -135 L 193 -224 L 401 -340 L 193 -456 L 251 -545 L 447 -428 L 443 -661 L 557 -661 L 553 -428 L 749 -545 L 807 -456 L 599 -340 L 807 -224 L 749 -135 L 553 -252 Z " id="path74"/>
<path d="M 424 -19 L 429 -223 L 260 -120 L 184 -238 L 369 -340 L 184 -442 L 260 -560 L 429 -457 L 424 -661 L 576 -661 L 571 -457 L 740 -560 L 816 -442 L 631 -340 L 816 -238 L 740 -120 L 571 -223 L 576 -19 Z " id="path75"/>
<path d="M 415 -19 L 420 -208 L 264 -113 L 179 -246 L 352 -340 L 179 -434 L 264 -567 L 420 -472 L 415 -661 L 585 -661 L 580 -472 L 736 -567 L 821 -434 L 648 -340 L 821 -246 L 736 -113 L 580 -208 L 585 -19 Z " id="path76"/>
<path d="M 405 -19 L 411 -192 L 269 -106 L 174 -253 L 335 -340 L 174 -427 L 269 -574 L 411 -488 L 405 -661 L 595 -661 L 589 -488 L 731 -574 L 826 -427 L 665 -340 L 826 -253 L 731 -106 L 589 -192 L 595 -19 Z " id="path77"/>
<path d="M 526 -19 L 474 -19 L 480 -293 L 291 -97 L 255 -129 L 455 -322 L 179 -317 L 179 -363 L 455 -358 L 255 -551 L 291 -583 L 480 -387 L 474 -661 L 526 -661 L 520 -387 L 709 -583 L 745 -551 L 545 -358 L 821 -363 L 821 -317 L 545 -322 L 745 -129 L 709 -97 L 520 -293 Z " id="path78"/>
<path d="M 541 -19 L 459 -19 L 467 -262 L 302 -87 L 244 -139 L 426 -310 L 179 -303 L 179 -377 L 426 -370 L 244 -541 L 302 -593 L 467 -418 L 459 -661 L 541 -661 L 533 -418 L 698 -593 L 756 -541 L 574 -370 L 821 -377 L 821 -303 L 574 -310 L 756 -139 L 698 -87 L 533 -262 Z " id="path79"/>
<path d="M 557 -19 L 443 -19 L 452 -227 L 313 -76 L 232 -149 L 393 -297 L 179 -288 L 179 -392 L 393 -383 L 232 -531 L 313 -604 L 452 -453 L 443 -661 L 557 -661 L 548 -453 L 687 -604 L 768 -531 L 607 -383 L 821 -392 L 821 -288 L 607 -297 L 768 -149 L 687 -76 L 548 -227 Z " id="path80"/>
<path d="M 434 -19 L 443 -207 L 320 -71 L 226 -155 L 374 -289 L 179 -280 L 179 -400 L 374 -391 L 226 -525 L 320 -609 L 443 -473 L 434 -661 L 566 -661 L 557 -473 L 680 -609 L 774 -525 L 626 -391 L 821 -400 L 821 -280 L 626 -289 L 774 -155 L 680 -71 L 557 -207 L 566 -19 Z " id="path81"/>
<path d="M 424 -19 L 434 -185 L 326 -65 L 219 -161 L 354 -281 L 179 -272 L 179 -408 L 354 -399 L 219 -519 L 326 -615 L 434 -495 L 424 -661 L 576 -661 L 566 -495 L 674 -615 L 781 -519 L 646 -399 L 821 -408 L 821 -272 L 646 -281 L 781 -161 L 674 -65 L 566 -185 L 576 -19 Z " id="path82"/>
<path d="M 64 0 L 64 -735 L 436 -735 L 436 0 Z M 104 -333 L 394 -695 L 300 -695 L 104 -450 Z M 104 -489 L 269 -695 L 175 -695 L 104 -606 Z M 104 -645 L 144 -695 L 104 -695 Z M 104 -176 L 396 -543 L 396 -660 L 104 -294 Z M 104 -40 L 119 -40 L 396 -386 L 396 -504 L 104 -137 Z M 150 -40 L 244 -40 L 396 -230 L 396 -347 Z M 275 -40 L 369 -40 L 396 -74 L 396 -191 Z " id="path83"/>
</defs>
<g>
<g data-source-text="0" fill="#dee4e3" transform="translate(174 41.292) rotate(0) scale(0.023999998)">
<use href="#path1" transform="translate(0 0)"/>
</g>
</g>
<g>
<g data-source-text="1" fill="#dee4e3" transform="translate(246 41.292) rotate(0) scale(0.023999998)">
<use href="#path2" transform="translate(0 0)"/>
</g>
</g>
<g>
<g data-source-text="2" fill="#dee4e3" transform="translate(318 41.292) rotate(0) scale(0.023999998)">
<use href="#path3" transform="translate(0 0)"/>
</g>
</g>
<g>
<g data-source-text="3" fill="#dee4e3" transform="translate(390 41.292) rotate(0) scale(0.023999998)">
<use href="#path4" transform="translate(0 0)"/>
</g>
</g>
<g>
<g data-source-text="4" fill="#dee4e3" transform="translate(462 41.292) rotate(0) scale(0.023999998)">
<use href="#path5" transform="translate(0 0)"/>
</g>
</g>
<g>
<g data-source-text="5" fill="#dee4e3" transform="translate(534 41.292) rotate(0) scale(0.023999998)">
<use href="#path6" transform="translate(0 0)"/>
</g>
</g>
<g>
<g data-source-text="6" fill="#dee4e3" transform="translate(606 41.292) rotate(0) scale(0.023999998)">
<use href="#path7" transform="translate(0 0)"/>
</g>
</g>
<g>
<g data-source-text="7" fill="#dee4e3" transform="translate(678 41.292) rotate(0) scale(0.023999998)">
<use href="#path8" transform="translate(0 0)"/>
</g>
</g>
<g>
<g data-source-text="8" fill="#dee4e3" transform="translate(750 41.292) rotate(0) scale(0.023999998)">
<use href="#path9" transform="translate(0 0)"/>
</g>
</g>
<g>
<g data-source-text="9" fill="#dee4e3" transform="translate(822 41.292) rotate(0) scale(0.023999998)">
<use href="#path10" transform="translate(0 0)"/>
</g>
</g>
<g>
<g data-source-text="A" fill="#dee4e3" transform="translate(894 41.292) rotate(0) scale(0.023999998)">
<use href="#path11" transform="translate(0 0)"/>
</g>
</g>
<g>
<g data-source-text="B" fill="#dee4e3" transform="translate(966 41.292) rotate(0) scale(0.023999998)">
<use href="#path12" transform="translate(0 0)"/>
</g>
</g>
<g>
<g data-source-text="C" fill="#dee4e3" transform="translate(1038 41.292) rotate(0) scale(0.023999998)">
<use href="#path13" transform="translate(0 0)"/>
</g>
</g>
<g>
<g data-source-text="D" fill="#dee4e3" transform="translate(1110 41.292) rotate(0) scale(0.023999998)">
<use href="#path14" transform="translate(0 0)"/>
</g>
</g>
<g>
<g data-source-text="E" fill="#dee4e3" transform="translate(1182 41.292) rotate(0) scale(0.023999998)">
<use href="#path15" transform="translate(0 0)"/>
</g>
</g>
<g>
<g data-source-text="F" fill="#dee4e3" transform="translate(1254 41.292) rotate(0) scale(0.023999998)">
<use href="#path16" transform="translate(0 0)"/>
</g>
</g>
<g>
<g data-source-text="U+1F780" fill="#dee4e3" transform="translate(30 113.292) rotate(0) scale(0.023999998)">
<use href="#path17" transform="translate(0 0)"/>
<use href="#path18" transform="translate(500 0)"/>
<use href="#path2" transform="translate(1000 0)"/>
<use href="#path16" transform="translate(1500 0)"/>
<use href="#path8" transform="translate(2000 0)"/>
<use href="#path9" transform="translate(2500 0)"/>
<use href="#path1" transform="translate(3000 0)"/>
</g>
</g>
<g>
<g data-source-text="ðŸž€" fill="#dee4e3" transform="translate(156 118.584) rotate(0) scale(0.047999997)">
<use href="#path19" transform="translate(0 0)"/>
</g>
</g>
<g>
<g data-source-text="ðŸž" fill="#dee4e3" transform="translate(228 118.584) rotate(0) scale(0.047999997)">
<use href="#path20" transform="translate(0 0)"/>
</g>
</g>
<g>
<g data-source-text="ðŸž‚" fill="#dee4e3" transform="translate(300 118.584) rotate(0) scale(0.047999997)">
<use href="#path21" transform="translate(0 0)"/>
</g>
</g>
<g>
<g data-source-text="ðŸžƒ" fill="#dee4e3" transform="translate(372 118.584) rotate(0) scale(0.047999997)">
<use href="#path22" transform="translate(0 0)"/>
</g>
</g>
<g>
<g data-source-text="ðŸž„" fill="#dee4e3" transform="translate(444 118.584) rotate(0) scale(0.047999997)">
<use href="#path23" transform="translate(0 0)"/>
</g>
</g>
<g>
<g data-source-text="ðŸž…" fill="#dee4e3" transform="translate(516 118.584) rotate(0) scale(0.047999997)">
<use href="#path24" transform="translate(0 0)"/>
</g>
</g>
<g>
<g data-source-text="ðŸž†" fill="#dee4e3" transform="translate(588 118.584) rotate(0) scale(0.047999997)">
<use href="#path25" transform="translate(0 0)"/>
</g>
</g>
<g>
<g data-source-text="ðŸž‡" fill="#dee4e3" transform="translate(660 118.584) rotate(0) scale(0.047999997)">
<use href="#path26" transform="translate(0 0)"/>
</g>
</g>
<g>
<g data-source-text="ðŸžˆ" fill="#dee4e3" transform="translate(732 118.584) rotate(0) scale(0.047999997)">
<use href="#path27" transform="translate(0 0)"/>
</g>
</g>
<g>
<g data-source-text="ðŸž‰" fill="#dee4e3" transform="translate(804 118.584) rotate(0) scale(0.047999997)">
<use href="#path28" transform="translate(0 0)"/>
</g>
</g>
<g>
<g data-source-text="ðŸžŠ" fill="#dee4e3" transform="translate(876 118.584) rotate(0) scale(0.047999997)">
<use href="#path29" transform="translate(0 0)"/>
</g>
</g>
<g>
<g data-source-text="ðŸž‹" fill="#dee4e3" transform="translate(948 118.584) rotate(0) scale(0.047999997)">
<use href="#path30" transform="translate(0 0)"/>
</g>
</g>
<g>
<g data-source-text="ðŸžŒ" fill="#dee4e3" transform="translate(1020 118.584) rotate(0) scale(0.047999997)">
<use href="#path31" transform="translate(0 0)"/>
</g>
</g>
<g>
<g data-source-text="ðŸž" fill="#dee4e3" transform="translate(1092 118.584) rotate(0) scale(0.047999997)">
<use href="#path32" transform="translate(0 0)"/>
</g>
</g>
<g>
<g data-source-text="ðŸžŽ" fill="#dee4e3" transform="translate(1164 118.584) rotate(0) scale(0.047999997)">
<use href="#path33" transform="translate(0 0)"/>
</g>
</g>
<g>
<g data-source-text="ðŸž" fill="#dee4e3" transform="translate(1236 118.584) rotate(0) scale(0.047999997)">
<use href="#path34" transform="translate(0 0)"/>
</g>
</g>
<g>
<g data-source-text="U+1F790" fill="#dee4e3" transform="translate(30 185.292) rotate(0) scale(0.023999998)">
<use href="#path17" transform="translate(0 0)"/>
<use href="#path18" transform="translate(500 0)"/>
<use href="#path2" transform="translate(1000 0)"/>
<use href="#path16" transform="translate(1500 0)"/>
<use href="#path8" transform="translate(2000 0)"/>
<use href="#path10" transform="translate(2500 0)"/>
<use href="#path1" transform="translate(3000 0)"/>
</g>
</g>
<g>
<g data-source-text="ðŸž" fill="#dee4e3" transform="translate(156 190.584) rotate(0) scale(0.047999997)">
<use href="#path35" transform="translate(0 0)"/>
</g>
</g>
<g>
<g data-source-text="ðŸž‘" fill="#dee4e3" transform="translate(228 190.584) rotate(0) scale(0.047999997)">
<use href="#path36" transform="translate(0 0)"/>
</g>
</g>
<g>
<g data-source-text="ðŸž’" fill="#dee4e3" transform="translate(300 190.584) rotate(0) scale(0.047999997)">
<use href="#path37" transform="translate(0 0)"/>
</g>
</g>
<g>
<g data-source-text="ðŸž“" fill="#dee4e3" transform="translate(372 190.584) rotate(0) scale(0.047999997)">
<use href="#path38" transform="translate(0 0)"/>
</g>
</g>
<g>
<g data-source-text="ðŸž”" fill="#dee4e3" transform="translate(444 190.584) rotate(0) scale(0.047999997)">
<use href="#path39" transform="translate(0 0)"/>
</g>
</g>
<g>
<g data-source-text="ðŸž•" fill="#dee4e3" transform="translate(516 190.584) rotate(0) scale(0.047999997)">
<use href="#path40" transform="translate(0 0)"/>
</g>
</g>
<g>
<g data-source-text="ðŸž–" fill="#dee4e3" transform="translate(588 190.584) rotate(0) scale(0.047999997)">
<use href="#path41" transform="translate(0 0)"/>
</g>
</g>
<g>
<g data-source-text="ðŸž—" fill="#dee4e3" transform="translate(660 190.584) rotate(0) scale(0.047999997)">
<use href="#path42" transform="translate(0 0)"/>
</g>
</g>
<g>
<g data-source-text="ðŸž˜" fill="#dee4e3" transform="translate(732 190.584) rotate(0) scale(0.047999997)">
<use href="#path43" transform="translate(0 0)"/>
</g>
</g>
<g>
<g data-source-text="ðŸž™" fill="#dee4e3" transform="translate(804 190.584) rotate(0) scale(0.047999997)">
<use href="#path44" transform="translate(0 0)"/>
</g>
</g>
<g>
<g data-source-text="ðŸžš" fill="#dee4e3" transform="translate(876 190.584) rotate(0) scale(0.047999997)">
<use href="#path45" transform="translate(0 0)"/>
</g>
</g>
<g>
<g data-source-text="ðŸž›" fill="#dee4e3" transform="translate(948 190.584) rotate(0) scale(0.047999997)">
<use href="#path46" transform="translate(0 0)"/>
</g>
</g>
<g>
<g data-source-text="ðŸžœ" fill="#dee4e3" transform="translate(1020 190.584) rotate(0) scale(0.047999997)">
<use href="#path47" transform="translate(0 0)"/>
</g>
</g>
<g>
<g data-source-text="ðŸž" fill="#dee4e3" transform="translate(1092 190.584) rotate(0) scale(0.047999997)">
<use href="#path48" transform="translate(0 0)"/>
</g>
</g>
<g>
<g data-source-text="ðŸžž" fill="#dee4e3" transform="translate(1164 190.584) rotate(0) scale(0.047999997)">
<use href="#path49" transform="translate(0 0)"/>
</g>
</g>
<g>
<g data-source-text="ðŸžŸ" fill="#dee4e3" transform="translate(1236 190.584) rotate(0) scale(0.047999997)">
<use href="#path50" transform="translate(0 0)"/>
</g>
</g>
<g>
<g data-source-text="U+1F7A0" fill="#dee4e3" transform="translate(30 257.292) rotate(0) scale(0.023999998)">
<use href="#path17" transform="translate(0 0)"/>
<use href="#path18" transform="translate(500 0)"/>
<use href="#path2" transform="translate(1000 0)"/>
<use href="#path16" transform="translate(1500 0)"/>
<use href="#path8" transform="translate(2000 0)"/>
<use href="#path11" transform="translate(2500 0)"/>
<use href="#path1" transform="translate(3000 0)"/>
</g>
</g>
<g>
<g data-source-text="ðŸž " fill="#dee4e3" transform="translate(156 262.584) rotate(0) scale(0.047999997)">
<use href="#path51" transform="translate(0 0)"/>
</g>
</g>
<g>
<g data-source-text="ðŸž¡" fill="#dee4e3" transform="translate(228 262.584) rotate(0) scale(0.047999997)">
<use href="#path52" transform="translate(0 0)"/>
</g>
</g>
<g>
<g data-source-text="ðŸž¢" fill="#dee4e3" transform="translate(300 262.584) rotate(0) scale(0.047999997)">
<use href="#path53" transform="translate(0 0)"/>
</g>
</g>
<g>
<g data-source-text="ðŸž£" fill="#dee4e3" transform="translate(372 262.584) rotate(0) scale(0.047999997)">
<use href="#path54" transform="translate(0 0)"/>
</g>
</g>
<g>
<g data-source-text="ðŸž¤" fill="#dee4e3" transform="translate(444 262.584) rotate(0) scale(0.047999997)">
<use href="#path55" transform="translate(0 0)"/>
</g>
</g>
<g>
<g data-source-text="ðŸž¥" fill="#dee4e3" transform="translate(516 262.584) rotate(0) scale(0.047999997)">
<use href="#path56" transform="translate(0 0)"/>
</g>
</g>
<g>
<g data-source-text="ðŸž¦" fill="#dee4e3" transform="translate(588 262.584) rotate(0) scale(0.047999997)">
<use href="#path57" transform="translate(0 0)"/>
</g>
</g>
<g>
<g data-source-text="ðŸž§" fill="#dee4e3" transform="translate(660 262.584) rotate(0) scale(0.047999997)">
<use href="#path58" transform="translate(0 0)"/>
</g>
</g>
<g>
<g data-source-text="ðŸž¨" fill="#dee4e3" transform="translate(732 262.584) rotate(0) scale(0.047999997)">
<use href="#path59" transform="translate(0 0)"/>
</g>
</g>
<g>
<g data-source-text="ðŸž©" fill="#dee4e3" transform="translate(804 262.584) rotate(0) scale(0.047999997)">
<use href="#path60" transform="translate(0 0)"/>
</g>
</g>
<g>
<g data-source-text="ðŸžª" fill="#dee4e3" transform="translate(876 262.584) rotate(0) scale(0.047999997)">
<use href="#path61" transform="translate(0 0)"/>
</g>
</g>
<g>
<g data-source-text="ðŸž«" fill="#dee4e3" transform="translate(948 262.584) rotate(0) scale(0.047999997)">
<use href="#path62" transform="translate(0 0)"/>
</g>
</g>
<g>
<g data-source-text="ðŸž¬" fill="#dee4e3" transform="translate(1020 262.584) rotate(0) scale(0.047999997)">
<use href="#path63" transform="translate(0 0)"/>
</g>
</g>
<g>
<g data-source-text="ðŸž­" fill="#dee4e3" transform="translate(1092 262.584) rotate(0) scale(0.047999997)">
<use href="#path64" transform="translate(0 0)"/>
</g>
</g>
<g>
<g data-source-text="ðŸž®" fill="#dee4e3" transform="translate(1164 262.584) rotate(0) scale(0.047999997)">
<use href="#path65" transform="translate(0 0)"/>
</g>
</g>
<g>
<g data-source-text="ðŸž¯" fill="#dee4e3" transform="translate(1236 262.584) rotate(0) scale(0.047999997)">
<use href="#path66" transform="translate(0 0)"/>
</g>
</g>
<g>
<g data-source-text="U+1F7B0" fill="#dee4e3" transform="translate(30 329.292) rotate(0) scale(0.023999998)">
<use href="#path17" transform="translate(0 0)"/>
<use href="#path18" transform="translate(500 0)"/>
<use href="#path2" transform="translate(1000 0)"/>
<use href="#path16" transform="translate(1500 0)"/>
<use href="#path8" transform="translate(2000 0)"/>
<use href="#path12" transform="translate(2500 0)"/>
<use href="#path1" transform="translate(3000 0)"/>
</g>
</g>
<g>
<g data-source-text="ðŸž°" fill="#dee4e3" transform="translate(156 334.584) rotate(0) scale(0.047999997)">
<use href="#path67" transform="translate(0 0)"/>
</g>
</g>
<g>
<g data-source-text="ðŸž±" fill="#dee4e3" transform="translate(228 334.584) rotate(0) scale(0.047999997)">
<use href="#path68" transform="translate(0 0)"/>
</g>
</g>
<g>
<g data-source-text="ðŸž²" fill="#dee4e3" transform="translate(300 334.584) rotate(0) scale(0.047999997)">
<use href="#path69" transform="translate(0 0)"/>
</g>
</g>
<g>
<g data-source-text="ðŸž³" fill="#dee4e3" transform="translate(372 334.584) rotate(0) scale(0.047999997)">
<use href="#path70" transform="translate(0 0)"/>
</g>
</g>
<g>
<g data-source-text="ðŸž´" fill="#dee4e3" transform="translate(444 334.584) rotate(0) scale(0.047999997)">
<use href="#path71" transform="translate(0 0)"/>
</g>
</g>
<g>
<g data-source-text="ðŸžµ" fill="#dee4e3" transform="translate(516 334.584) rotate(0) scale(0.047999997)">
<use href="#path72" transform="translate(0 0)"/>
</g>
</g>
<g>
<g data-source-text="ðŸž¶" fill="#dee4e3" transform="translate(588 334.584) rotate(0) scale(0.047999997)">
<use href="#path73" transform="translate(0 0)"/>
</g>
</g>
<g>
<g data-source-text="ðŸž·" fill="#dee4e3" transform="translate(660 334.584) rotate(0) scale(0.047999997)">
<use href="#path74" transform="translate(0 0)"/>
</g>
</g>
<g>
<g data-source-text="ðŸž¸" fill="#dee4e3" transform="translate(732 334.584) rotate(0) scale(0.047999997)">
<use href="#path75" transform="translate(0 0)"/>
</g>
</g>
<g>
<g data-source-text="ðŸž¹" fill="#dee4e3" transform="translate(804 334.584) rotate(0) scale(0.047999997)">
<use href="#path76" transform="translate(0 0)"/>
</g>
</g>
<g>
<g data-source-text="ðŸžº" fill="#dee4e3" transform="translate(876 334.584) rotate(0) scale(0.047999997)">
<use href="#path77" transform="translate(0 0)"/>
</g>
</g>
<g>
<g data-source-text="ðŸž»" fill="#dee4e3" transform="translate(948 334.584) rotate(0) scale(0.047999997)">
<use href="#path78" transform="translate(0 0)"/>
</g>
</g>
<g>
<g data-source-text="ðŸž¼" fill="#dee4e3" transform="translate(1020 334.584) rotate(0) scale(0.047999997)">
<use href="#path79" transform="translate(0 0)"/>
</g>
</g>
<g>
<g data-source-text="ðŸž½" fill="#dee4e3" transform="translate(1092 334.584) rotate(0) scale(0.047999997)">
<use href="#path80" transform="translate(0 0)"/>
</g>
</g>
<g>
<g data-source-text="ðŸž¾" fill="#dee4e3" transform="translate(1164 334.584) rotate(0) scale(0.047999997)">
<use href="#path81" transform="translate(0 0)"/>
</g>
</g>
<g>
<g data-source-text="ðŸž¿" fill="#dee4e3" transform="translate(1236 334.584) rotate(0) scale(0.047999997)">
<use href="#path82" transform="translate(0 0)"/>
</g>
</g>
<g>
<g data-source-text="U+1F7C0" fill="#dee4e3" transform="translate(30 401.292) rotate(0) scale(0.023999998)">
<use href="#path17" transform="translate(0 0)"/>
<use href="#path18" transform="translate(500 0)"/>
<use href="#path2" transform="translate(1000 0)"/>
<use href="#path16" transform="translate(1500 0)"/>
<use href="#path8" transform="translate(2000 0)"/>
<use href="#path13" transform="translate(2500 0)"/>
<use href="#path1" transform="translate(3000 0)"/>
</g>
</g>
<g>
<g data-source-text="ï€" fill="#dee4e340" transform="translate(168 406.584) rotate(0) scale(0.047999997)">
<use href="#path83" transform="translate(0 0)"/>
</g>
</g>
<g>
<g data-source-text="ï€" fill="#dee4e340" transform="translate(240 406.584) rotate(0) scale(0.047999997)">
<use href="#path83" transform="translate(0 0)"/>
</g>
</g>
<g>
<g data-source-text="ï€" fill="#dee4e340" transform="translate(312 406.584) rotate(0) scale(0.047999997)">
<use href="#path83" transform="translate(0 0)"/>
</g>
</g>
<g>
<g data-source-text="ï€" fill="#dee4e340" transform="translate(384 406.584) rotate(0) scale(0.047999997)">
<use href="#path83" transform="translate(0 0)"/>
</g>
</g>
<g>
<g data-source-text="ï€" fill="#dee4e340" transform="translate(456 406.584) rotate(0) scale(0.047999997)">
<use href="#path83" transform="translate(0 0)"/>
</g>
</g>
<g>
<g data-source-text="ï€" fill="#dee4e340" transform="translate(528 406.584) rotate(0) scale(0.047999997)">
<use href="#path83" transform="translate(0 0)"/>
</g>
</g>
<g>
<g data-source-text="ï€" fill="#dee4e340" transform="translate(600 406.584) rotate(0) scale(0.047999997)">
<use href="#path83" transform="translate(0 0)"/>
</g>
</g>
<g>
<g data-source-text="ï€" fill="#dee4e340" transform="translate(672 406.584) rotate(0) scale(0.047999997)">
<use href="#path83" transform="translate(0 0)"/>
</g>
</g>
<g>
<g data-source-text="ï€" fill="#dee4e340" transform="translate(744 406.584) rotate(0) scale(0.047999997)">
<use href="#path83" transform="translate(0 0)"/>
</g>
</g>
<g>
<g data-source-text="ï€" fill="#dee4e340" transform="translate(816 406.584) rotate(0) scale(0.047999997)">
<use href="#path83" transform="translate(0 0)"/>
</g>
</g>
<g>
<g data-source-text="ï€" fill="#dee4e340" transform="translate(888 406.584) rotate(0) scale(0.047999997)">
<use href="#path83" transform="translate(0 0)"/>
</g>
</g>
<g>
<g data-source-text="ï€" fill="#dee4e340" transform="translate(960 406.584) rotate(0) scale(0.047999997)">
<use href="#path83" transform="translate(0 0)"/>
</g>
</g>
<g>
<g data-source-text="ï€" fill="#dee4e340" transform="translate(1032 406.584) rotate(0) scale(0.047999997)">
<use href="#path83" transform="translate(0 0)"/>
</g>
</g>
<g>
<g data-source-text="ï€" fill="#dee4e340" transform="translate(1104 406.584) rotate(0) scale(0.047999997)">
<use href="#path83" transform="translate(0 0)"/>
</g>
</g>
<g>
<g data-source-text="ï€" fill="#dee4e340" transform="translate(1176 406.584) rotate(0) scale(0.047999997)">
<use href="#path83" transform="translate(0 0)"/>
</g>
</g>
<g>
<g data-source-text="ï€" fill="#dee4e340" transform="translate(1248 406.584) rotate(0) scale(0.047999997)">
<use href="#path83" transform="translate(0 0)"/>
</g>
</g>
<g>
<g data-source-text="U+1F7D0" fill="#dee4e3" transform="translate(30 473.292) rotate(0) scale(0.023999998)">
<use href="#path17" transform="translate(0 0)"/>
<use href="#path18" transform="translate(500 0)"/>
<use href="#path2" transform="translate(1000 0)"/>
<use href="#path16" transform="translate(1500 0)"/>
<use href="#path8" transform="translate(2000 0)"/>
<use href="#path14" transform="translate(2500 0)"/>
<use href="#path1" transform="translate(3000 0)"/>
</g>
</g>
<g>
<g data-source-text="ï€" fill="#dee4e340" transform="translate(168 478.584) rotate(0) scale(0.047999997)">
<use href="#path83" transform="translate(0 0)"/>
</g>
</g>
<g>
<g data-source-text="ï€" fill="#dee4e340" transform="translate(240 478.584) rotate(0) scale(0.047999997)">
<use href="#path83" transform="translate(0 0)"/>
</g>
</g>
<g>
<g data-source-text="ï€" fill="#dee4e340" transform="translate(312 478.584) rotate(0) scale(0.047999997)">
<use href="#path83" transform="translate(0 0)"/>
</g>
</g>
<g>
<g data-source-text="ï€" fill="#dee4e340" transform="translate(384 478.584) rotate(0) scale(0.047999997)">
<use href="#path83" transform="translate(0 0)"/>
</g>
</g>
<g>
<g data-source-text="ï€" fill="#dee4e340" transform="translate(456 478.584) rotate(0) scale(0.047999997)">
<use href="#path83" transform="translate(0 0)"/>
</g>
</g>
<g>
<g data-source-text="ï€" fill="#dee4e340" transform="translate(528 478.584) rotate(0) scale(0.047999997)">
<use href="#path83" transform="translate(0 0)"/>
</g>
</g>
<g>
<g data-source-text="ï€" fill="#dee4e340" transform="translate(600 478.584) rotate(0) scale(0.047999997)">
<use href="#path83" transform="translate(0 0)"/>
</g>
</g>
<g>
<g data-source-text="ï€" fill="#dee4e340" transform="translate(672 478.584) rotate(0) scale(0.047999997)">
<use href="#path83" transform="translate(0 0)"/>
</g>
</g>
<g>
<g data-source-text="ï€" fill="#dee4e340" transform="translate(744 478.584) rotate(0) scale(0.047999997)">
<use href="#path83" transform="translate(0 0)"/>
</g>
</g>
<g>
<g data-source-text="ï€" fill="#dee4e340" transform="translate(816 478.584) rotate(0) scale(0.047999997)">
<use href="#path83" transform="translate(0 0)"/>
</g>
</g>
<g>
<g data-source-text="ï€" fill="#dee4e340" transform="translate(888 478.584) rotate(0) scale(0.047999997)">
<use href="#path83" transform="translate(0 0)"/>
</g>
</g>
<g>
<g data-source-text="ï€" fill="#dee4e340" transform="translate(960 478.584) rotate(0) scale(0.047999997)">
<use href="#path83" transform="translate(0 0)"/>
</g>
</g>
<g>
<g data-source-text="ï€" fill="#dee4e340" transform="translate(1032 478.584) rotate(0) scale(0.047999997)">
<use href="#path83" transform="translate(0 0)"/>
</g>
</g>
<g>
<g data-source-text="ï€" fill="#dee4e340" transform="translate(1104 478.584) rotate(0) scale(0.047999997)">
<use href="#path83" transform="translate(0 0)"/>
</g>
</g>
<g>
<g data-source-text="ï€" fill="#dee4e340" transform="translate(1176 478.584) rotate(0) scale(0.047999997)">
<use href="#path83" transform="translate(0 0)"/>
</g>
</g>
<g>
<g data-source-text="ï€" fill="#dee4e340" transform="translate(1248 478.584) rotate(0) scale(0.047999997)">
<use href="#path83" transform="translate(0 0)"/>
</g>
</g>
<g>
<g data-source-text="U+1F7E0" fill="#dee4e3" transform="translate(30 545.292) rotate(0) scale(0.023999998)">
<use href="#path17" transform="translate(0 0)"/>
<use href="#path18" transform="translate(500 0)"/>
<use href="#path2" transform="translate(1000 0)"/>
<use href="#path16" transform="translate(1500 0)"/>
<use href="#path8" transform="translate(2000 0)"/>
<use href="#path15" transform="translate(2500 0)"/>
<use href="#path1" transform="translate(3000 0)"/>
</g>
</g>
<g>
<g data-source-text="ï€" fill="#dee4e340" transform="translate(168 550.584) rotate(0) scale(0.047999997)">
<use href="#path83" transform="translate(0 0)"/>
</g>
</g>
<g>
<g data-source-text="ï€" fill="#dee4e340" transform="translate(240 550.584) rotate(0) scale(0.047999997)">
<use href="#path83" transform="translate(0 0)"/>
</g>
</g>
<g>
<g data-source-text="ï€" fill="#dee4e340" transform="translate(312 550.584) rotate(0) scale(0.047999997)">
<use href="#path83" transform="translate(0 0)"/>
</g>
</g>
<g>
<g data-source-text="ï€" fill="#dee4e340" transform="translate(384 550.584) rotate(0) scale(0.047999997)">
<use href="#path83" transform="translate(0 0)"/>
</g>
</g>
<g>
<g data-source-text="ï€" fill="#dee4e340" transform="translate(456 550.584) rotate(0) scale(0.047999997)">
<use href="#path83" transform="translate(0 0)"/>
</g>
</g>
<g>
<g data-source-text="ï€" fill="#dee4e340" transform="translate(528 550.584) rotate(0) scale(0.047999997)">
<use href="#path83" transform="translate(0 0)"/>
</g>
</g>
<g>
<g data-source-text="ï€" fill="#dee4e340" transform="translate(600 550.584) rotate(0) scale(0.047999997)">
<use href="#path83" transform="translate(0 0)"/>
</g>
</g>
<g>
<g data-source-text="ï€" fill="#dee4e340" transform="translate(672 550.584) rotate(0) scale(0.047999997)">
<use href="#path83" transform="translate(0 0)"/>
</g>
</g>
<g>
<g data-source-text="ï€" fill="#dee4e340" transform="translate(744 550.584) rotate(0) scale(0.047999997)">
<use href="#path83" transform="translate(0 0)"/>
</g>
</g>
<g>
<g data-source-text="ï€" fill="#dee4e340" transform="translate(816 550.584) rotate(0) scale(0.047999997)">
<use href="#path83" transform="translate(0 0)"/>
</g>
</g>
<g>
<g data-source-text="ï€" fill="#dee4e340" transform="translate(888 550.584) rotate(0) scale(0.047999997)">
<use href="#path83" transform="translate(0 0)"/>
</g>
</g>
<g>
<g data-source-text="ï€" fill="#dee4e340" transform="translate(960 550.584) rotate(0) scale(0.047999997)">
<use href="#path83" transform="translate(0 0)"/>
</g>
</g>
<g>
<g data-source-text="ï€" fill="#dee4e340" transform="translate(1032 550.584) rotate(0) scale(0.047999997)">
<use href="#path83" transform="translate(0 0)"/>
</g>
</g>
<g>
<g data-source-text="ï€" fill="#dee4e340" transform="translate(1104 550.584) rotate(0) scale(0.047999997)">
<use href="#path83" transform="translate(0 0)"/>
</g>
</g>
<g>
<g data-source-text="ï€" fill="#dee4e340" transform="translate(1176 550.584) rotate(0) scale(0.047999997)">
<use href="#path83" transform="translate(0 0)"/>
</g>
</g>
<g>
<g data-source-text="ï€" fill="#dee4e340" transform="translate(1248 550.584) rotate(0) scale(0.047999997)">
<use href="#path83" transform="translate(0 0)"/>
</g>
</g>
<g>
<g data-source-text="U+1F7F0" fill="#dee4e3" transform="translate(30 617.292) rotate(0) scale(0.023999998)">
<use href="#path17" transform="translate(0 0)"/>
<use href="#path18" transform="translate(500 0)"/>
<use href="#path2" transform="translate(1000 0)"/>
<use href="#path16" transform="translate(1500 0)"/>
<use href="#path8" transform="translate(2000 0)"/>
<use href="#path16" transform="translate(2500 0)"/>
<use href="#path1" transform="translate(3000 0)"/>
</g>
</g>
<g>
<g data-source-text="ï€" fill="#dee4e340" transform="translate(168 622.584) rotate(0) scale(0.047999997)">
<use href="#path83" transform="translate(0 0)"/>
</g>
</g>
<g>
<g data-source-text="ï€" fill="#dee4e340" transform="translate(240 622.584) rotate(0) scale(0.047999997)">
<use href="#path83" transform="translate(0 0)"/>
</g>
</g>
<g>
<g data-source-text="ï€" fill="#dee4e340" transform="translate(312 622.584) rotate(0) scale(0.047999997)">
<use href="#path83" transform="translate(0 0)"/>
</g>
</g>
<g>
<g data-source-text="ï€" fill="#dee4e340" transform="translate(384 622.584) rotate(0) scale(0.047999997)">
<use href="#path83" transform="translate(0 0)"/>
</g>
</g>
<g>
<g data-source-text="ï€" fill="#dee4e340" transform="translate(456 622.584) rotate(0) scale(0.047999997)">
<use href="#path83" transform="translate(0 0)"/>
</g>
</g>
<g>
<g data-source-text="ï€" fill="#dee4e340" transform="translate(528 622.584) rotate(0) scale(0.047999997)">
<use href="#path83" transform="translate(0 0)"/>
</g>
</g>
<g>
<g data-source-text="ï€" fill="#dee4e340" transform="translate(600 622.584) rotate(0) scale(0.047999997)">
<use href="#path83" transform="translate(0 0)"/>
</g>
</g>
<g>
<g data-source-text="ï€" fill="#dee4e340" transform="translate(672 622.584) rotate(0) scale(0.047999997)">
<use href="#path83" transform="translate(0 0)"/>
</g>
</g>
<g>
<g data-source-text="ï€" fill="#dee4e340" transform="translate(744 622.584) rotate(0) scale(0.047999997)">
<use href="#path83" transform="translate(0 0)"/>
</g>
</g>
<g>
<g data-source-text="ï€" fill="#dee4e340" transform="translate(816 622.584) rotate(0) scale(0.047999997)">
<use href="#path83" transform="translate(0 0)"/>
</g>
</g>
<g>
<g data-source-text="ï€" fill="#dee4e340" transform="translate(888 622.584) rotate(0) scale(0.047999997)">
<use href="#path83" transform="translate(0 0)"/>
</g>
</g>
<g>
<g data-source-text="ï€" fill="#dee4e340" transform="translate(960 622.584) rotate(0) scale(0.047999997)">
<use href="#path83" transform="translate(0 0)"/>
</g>
</g>
<g>
<g data-source-text="ï€" fill="#dee4e340" transform="translate(1032 622.584) rotate(0) scale(0.047999997)">
<use href="#path83" transform="translate(0 0)"/>
</g>
</g>
<g>
<g data-source-text="ï€" fill="#dee4e340" transform="translate(1104 622.584) rotate(0) scale(0.047999997)">
<use href="#path83" transform="translate(0 0)"/>
</g>
</g>
<g>
<g data-source-text="ï€" fill="#dee4e340" transform="translate(1176 622.584) rotate(0) scale(0.047999997)">
<use href="#path83" transform="translate(0 0)"/>
</g>
</g>
<g>
<g data-source-text="ï€" fill="#dee4e340" transform="translate(1248 622.584) rotate(0) scale(0.047999997)">
<use href="#path83" transform="translate(0 0)"/>
</g>
</g>
</svg>