<?xml version="1.0" encoding="UTF-8" standalone="no"?>
<svg height="360" viewBox="0 0 1296 360" width="1296" xmlns="http://www.w3.org/2000/svg">
<defs>
<path d="M 250 8 Q 223 8 196 3 Q 169 -2 145 -15.5 Q 121 -29 102.5 -49 Q 84 -69 72.5 -94 Q 61 -119 56.5 -146 Q 52 -173 52 -200 L 52 -535 Q 52 -562 56.5 -589 Q 61 -616 72.5 -641 Q 84 -666 102.5 -686 Q 121 -706 145 -719.5 Q 169 -733 196 -738 Q 223 -743 250 -743 Q 277 -743 304 -738 Q 331 -733 355 -719.5 Q 379 -706 397.5 -686 Q 416 -666 427.5 -641 Q 439 -616 443.5 -589 Q 448 -562 448 -535 L 448 -200 Q 448 -173 443.5 -146 Q 439 -119 427.5 -94 Q 416 -69 397.5 -49 Q 379 -29 355 -15.5 Q 331 -2 304 3 Q 277 8 250 8 Z M 153 -337 L 347 -491 L 347 -535 Q 347 -557 342.5 -578.5 Q 338 -600 325.5 -618 Q 313 -636 292.5 -645.5 Q 272 -655 250 -655 Q 228 -655 207.5 -645.5 Q 187 -636 174.5 -618 Q 162 -600 157.5 -578.5 Q 153 -557 153 -535 Z M 250 -80 Q 272 -80 292.5 -89.5 Q 313 -99 325.5 -117 Q 338 -135 342.5 -156.5 Q 347 -178 347 -200 L 347 -398 L 153 -244 L 153 -200 Q 153 -178 157.5 -156.5 Q 162 -135 174.5 -117 Q 187 -99 207.5 -89.5 Q 228 -80 250 -80 Z " id="path1"/>
<path d="M 230 0 L 230 -631 L 110 -528 L 55 -584 L 230 -735 L 330 -735 L 330 0 Z " id="path2"/>
<path d="M 440 0 L 60 0 L 60 -1 Q 60 -27 61 -53.5 Q 62 -80 66 -106.5 Q 70 -133 77.5 -158.5 Q 85 -184 96.5 -207.5 Q 108 -231 123 -253 Q 138 -275 156 -294.5 Q 174 -314 194 -331 Q 214 -348 235.5 -364 Q 257 -380 277.5 -397 Q 298 -414 313 -435.5 Q 328 -457 335.5 -483 Q 343 -509 343 -535 Q 343 -557 339 -578 Q 335 -599 323.5 -617 Q 312 -635 292 -645 Q 272 -655 251 -655 Q 231 -655 212.5 -647.5 Q 194 -640 182 -625 Q 170 -610 164.5 -591 Q 159 -572 159 -552 L 159 -548 L 58 -548 L 58 -555 Q 58 -581 64 -605.5 Q 70 -630 81.5 -652.5 Q 93 -675 111.5 -693 Q 130 -711 152.5 -722.5 Q 175 -734 200.5 -738.5 Q 226 -743 251 -743 Q 278 -743 304.5 -737.5 Q 331 -732 354.5 -719 Q 378 -706 396 -685.5 Q 414 -665 424.5 -640.5 Q 435 -616 439.5 -589 Q 444 -562 444 -535 Q 444 -501 435 -468 Q 426 -435 407.5 -406 Q 389 -377 364 -353.5 Q 339 -330 312.5 -308.5 Q 286 -287 261 -264 Q 236 -241 216.5 -213 Q 197 -185 184 -153.5 Q 171 -122 166 -88 L 440 -88 Z " id="path3"/>
<path d="M 253 8 Q 227 8 201 4 Q 175 -0 151.5 -11.5 Q 128 -23 108.5 -40.5 Q 89 -58 76 -81 Q 63 -104 56.5 -129.5 Q 50 -155 50 -181 L 50 -187 L 151 -187 L 151 -184 Q 151 -163 157.5 -143 Q 164 -123 178 -108 Q 192 -93 212 -86.5 Q 232 -80 253 -80 Q 275 -80 296 -88.5 Q 317 -97 330.5 -115 Q 344 -133 349.5 -154.5 Q 355 -176 355 -198 Q 355 -217 351 -235.5 Q 347 -254 338.5 -271 Q 330 -288 316.5 -301 Q 303 -314 286 -322 Q 269 -330 250 -332 Q 231 -334 212 -334 L 212 -422 Q 229 -422 246 -424 Q 263 -426 278.5 -433 Q 294 -440 306 -452.5 Q 318 -465 325.5 -480.5 Q 333 -496 336 -513 Q 339 -530 339 -547 Q 339 -566 335 -585.5 Q 331 -605 320 -621 Q 309 -637 291 -646 Q 273 -655 253 -655 Q 234 -655 216.5 -647 Q 199 -639 187.5 -624 Q 176 -609 171.5 -590 Q 167 -571 167 -552 L 167 -548 L 66 -548 L 66 -556 Q 66 -581 71.5 -605.5 Q 77 -630 88.5 -652 Q 100 -674 117.5 -692.5 Q 135 -711 157 -722.5 Q 179 -734 203.5 -738.5 Q 228 -743 253 -743 Q 278 -743 303 -738 Q 328 -733 350.5 -721 Q 373 -709 390 -690 Q 407 -671 418 -648 Q 429 -625 434.5 -600 Q 440 -575 440 -550 Q 440 -524 434 -498.5 Q 428 -473 415.5 -450.5 Q 403 -428 384.5 -409.5 Q 366 -391 343 -379 Q 369 -368 391 -348.5 Q 413 -329 427.5 -304.5 Q 442 -280 449 -252 Q 456 -224 456 -195 Q 456 -168 450 -141.5 Q 444 -115 432 -91 Q 420 -67 401 -47 Q 382 -27 358 -14.5 Q 334 -2 307 3 Q 280 8 253 8 Z " id="path4"/>
<path d="M 282 0 L 282 -188 L 52 -188 L 52 -275 L 276 -735 L 385 -735 L 161 -275 L 282 -275 L 282 -435 L 382 -435 L 382 -275 L 440 -275 L 440 -188 L 382 -188 L 382 0 Z " id="path5"/>
<path d="M 252 8 Q 227 8 202.5 3.5 Q 178 -1 155.5 -12 Q 133 -23 115 -41 Q 97 -59 85 -80.5 Q 73 -102 66.5 -126.5 Q 60 -151 59 -176 L 159 -176 Q 161 -158 167 -139.5 Q 173 -121 185.5 -107 Q 198 -93 216 -86.5 Q 234 -80 252 -80 Q 269 -80 285 -87 Q 301 -94 312 -107 Q 323 -120 330 -135.5 Q 337 -151 340.5 -167.5 Q 344 -184 345.5 -201 Q 347 -218 347 -235 Q 347 -252 346 -269 Q 345 -286 341 -302.5 Q 337 -319 331 -334.5 Q 325 -350 314 -363 Q 303 -376 287.5 -383.5 Q 272 -391 256 -391 Q 240 -391 224.5 -387 Q 209 -383 196 -373.5 Q 183 -364 176 -349.5 Q 169 -335 168 -319 L 68 -319 L 68 -735 L 421 -735 L 421 -647 L 168 -647 L 168 -464 Q 189 -472 211 -475 Q 233 -478 256 -478 Q 285 -478 313.5 -470.5 Q 342 -463 365.5 -445.5 Q 389 -428 405.5 -403 Q 422 -378 431.5 -350.5 Q 441 -323 444.5 -294 Q 448 -265 448 -235 Q 448 -206 444 -176.5 Q 440 -147 430.5 -119 Q 421 -91 404 -66.5 Q 387 -42 363.5 -24.5 Q 340 -7 311 0.5 Q 282 8 252 8 Z " id="path6"/>
<path d="M 250 8 Q 221 8 192.5 1.5 Q 164 -5 140 -21 Q 116 -37 98.5 -60.5 Q 81 -84 70.5 -111 Q 60 -138 56 -166.5 Q 52 -195 52 -224 Q 52 -268 60 -311 Q 68 -354 81.5 -395.5 Q 95 -437 113 -477 Q 131 -517 150 -556 L 238 -735 L 347 -735 L 240 -517 Q 228 -493 216.5 -468.5 Q 205 -444 195 -419 Q 214 -438 239 -447 Q 264 -456 291 -456 Q 317 -456 342.5 -447 Q 368 -438 386.5 -419.5 Q 405 -401 417 -377.5 Q 429 -354 436 -328.5 Q 443 -303 445.5 -276.5 Q 448 -250 448 -224 Q 448 -195 444 -166.5 Q 440 -138 429.5 -111 Q 419 -84 401.5 -60.5 Q 384 -37 360 -21 Q 336 -5 307.5 1.5 Q 279 8 250 8 Z M 250 -80 Q 266 -80 282 -85.5 Q 298 -91 309.5 -102.5 Q 321 -114 328.5 -129 Q 336 -144 340 -159.5 Q 344 -175 345.5 -191.5 Q 347 -208 347 -224 Q 347 -240 345.5 -256.5 Q 344 -273 340 -289 Q 336 -305 328.5 -319.5 Q 321 -334 309.5 -345.5 Q 298 -357 282 -362.5 Q 266 -368 250 -368 Q 230 -368 211 -359 Q 192 -350 180 -333 Q 168 -316 162 -296.5 Q 156 -277 154 -256 L 154 -249 L 153 -240 L 153 -224 Q 153 -208 154.5 -191.5 Q 156 -175 160 -159.5 Q 164 -144 171.5 -129 Q 179 -114 190.5 -102.5 Q 202 -91 218 -85.5 Q 234 -80 250 -80 Z " id="path7"/>
<path d="M 242 0 L 138 0 L 336 -647 L 60 -647 L 60 -735 L 440 -735 L 440 -647 Z " id="path8"/>
<path d="M 250 8 Q 225 8 200 4 Q 175 -0 152 -10 Q 129 -20 109.5 -37 Q 90 -54 77.5 -75.5 Q 65 -97 58.5 -121.5 Q 52 -146 52 -172 Q 52 -203 62 -232.5 Q 72 -262 88.5 -288 Q 105 -314 127 -336 Q 149 -358 174 -378 Q 152 -396 132.5 -417 Q 113 -438 98.5 -462.5 Q 84 -487 76 -514.5 Q 68 -542 68 -570 Q 68 -594 73.5 -617 Q 79 -640 90.5 -661 Q 102 -682 119.5 -698.5 Q 137 -715 158 -725 Q 179 -735 202.5 -739 Q 226 -743 250 -743 Q 274 -743 297.5 -739 Q 321 -735 342 -725 Q 363 -715 380.5 -698.5 Q 398 -682 409.5 -661 Q 421 -640 426.5 -617 Q 432 -594 432 -570 Q 432 -542 424 -514.5 Q 416 -487 401.5 -462.5 Q 387 -438 367.5 -417 Q 348 -396 326 -378 Q 351 -358 373 -336 Q 395 -314 411.5 -288 Q 428 -262 438 -232.5 Q 448 -203 448 -172 Q 448 -146 441.5 -121.5 Q 435 -97 422.5 -75.5 Q 410 -54 390.5 -37 Q 371 -20 348 -10 Q 325 -0 300 4 Q 275 8 250 8 Z M 250 -435 Q 266 -447 280.5 -461.5 Q 295 -476 306.5 -493 Q 318 -510 325 -529.5 Q 332 -549 332 -569 Q 332 -586 326.5 -602.5 Q 321 -619 310 -631.5 Q 299 -644 283 -649.5 Q 267 -655 250 -655 Q 233 -655 217 -649.5 Q 201 -644 190 -631.5 Q 179 -619 173.5 -602.5 Q 168 -586 168 -569 Q 168 -549 175 -529.5 Q 182 -510 193.5 -493 Q 205 -476 219.5 -461.5 Q 234 -447 250 -435 Z M 250 -80 Q 269 -80 287.5 -85.5 Q 306 -91 320 -104 Q 334 -117 340.5 -135.5 Q 347 -154 347 -173 Q 347 -196 338.5 -217.5 Q 330 -239 316.5 -257.5 Q 303 -276 285.5 -291 Q 268 -306 250 -320 Q 232 -306 214.5 -291 Q 197 -276 183.5 -257.5 Q 170 -239 161.5 -217.5 Q 153 -196 153 -173 Q 153 -154 159.5 -135.5 Q 166 -117 180 -104 Q 194 -91 212.5 -85.5 Q 231 -80 250 -80 Z " id="path9"/>
<path d="M 153 0 L 260 -218 Q 272 -242 283.5 -266.5 Q 295 -291 305 -316 Q 286 -297 261 -288 Q 236 -279 209 -279 Q 183 -279 157.5 -288 Q 132 -297 113.5 -315.5 Q 95 -334 83 -357.5 Q 71 -381 64 -406.5 Q 57 -432 54.5 -458.5 Q 52 -485 52 -511 Q 52 -540 56 -568.5 Q 60 -597 70.5 -624 Q 81 -651 98.5 -674.5 Q 116 -698 140 -714 Q 164 -730 192.5 -736.5 Q 221 -743 250 -743 Q 279 -743 307.5 -736.5 Q 336 -730 360 -714 Q 384 -698 401.5 -674.5 Q 419 -651 429.5 -624 Q 440 -597 444 -568.5 Q 448 -540 448 -511 Q 448 -467 440 -424 Q 432 -381 418.5 -339.5 Q 405 -298 387 -258 Q 369 -218 350 -179 L 262 0 Z M 250 -367 Q 270 -367 289 -376 Q 308 -385 320 -402 Q 332 -419 338 -438.5 Q 344 -458 346 -479 L 346 -486 L 347 -495 L 347 -511 Q 347 -527 345.5 -543.5 Q 344 -560 340 -575.5 Q 336 -591 328.5 -606 Q 321 -621 309.5 -632.5 Q 298 -644 282 -649.5 Q 266 -655 250 -655 Q 234 -655 218 -649.5 Q 202 -644 190.5 -632.5 Q 179 -621 171.5 -606 Q 164 -591 160 -575.5 Q 156 -560 154.5 -543.5 Q 153 -527 153 -511 Q 153 -495 154.5 -478.5 Q 156 -462 160 -446 Q 164 -430 171.5 -415.5 Q 179 -401 190.5 -389.5 Q 202 -378 218 -372.5 Q 234 -367 250 -367 Z " id="path10"/>
<path d="M 39 0 L 192 -735 L 308 -735 L 461 0 L 358 0 L 326 -172 L 174 -172 L 142 0 Z M 309 -260 L 265 -490 Q 262 -511 258 -531.5 Q 254 -552 250 -572 Q 246 -552 242 -531.5 Q 238 -511 235 -490 L 191 -260 Z " id="path11"/>
<path d="M 60 0 L 60 -735 L 234 -735 Q 261 -735 287 -730.5 Q 313 -726 336 -714 Q 359 -702 377.5 -682.5 Q 396 -663 408 -639.5 Q 420 -616 424.5 -590 Q 429 -564 429 -538 Q 429 -515 425 -492 Q 421 -469 410.5 -448.5 Q 400 -428 383.5 -411 Q 367 -394 347 -383 Q 372 -373 393.5 -355.5 Q 415 -338 429.5 -314.5 Q 444 -291 450 -264 Q 456 -237 456 -210 Q 456 -181 450 -152.5 Q 444 -124 430 -98.5 Q 416 -73 394.5 -53.5 Q 373 -34 347 -21.5 Q 321 -9 292 -4.5 Q 263 -0 234 0 Z M 161 -424 L 234 -424 Q 255 -424 274.5 -432.5 Q 294 -441 306.5 -457.5 Q 319 -474 324 -494.5 Q 329 -515 329 -536 Q 329 -557 324 -577.5 Q 319 -598 306.5 -614.5 Q 294 -631 274.5 -639 Q 255 -647 234 -647 L 161 -647 Z M 161 -88 L 234 -88 Q 251 -88 267 -91 Q 283 -94 297.5 -101.5 Q 312 -109 323.5 -121 Q 335 -133 342.5 -148 Q 350 -163 352.5 -179 Q 355 -195 355 -212 Q 355 -228 352.5 -244.5 Q 350 -261 343 -276 Q 336 -291 324.5 -303 Q 313 -315 298 -322.5 Q 283 -330 267 -333 Q 251 -336 234 -336 L 161 -336 Z " id="path12"/>
<path d="M 247 8 Q 220 8 193 2.5 Q 166 -3 142.5 -16 Q 119 -29 101 -49.5 Q 83 -70 72 -94.5 Q 61 -119 56.5 -146 Q 52 -173 52 -200 L 52 -535 Q 52 -562 56.5 -589 Q 61 -616 72 -640.5 Q 83 -665 101 -685.5 Q 119 -706 142.5 -719 Q 166 -732 193 -737.5 Q 220 -743 247 -743 Q 273 -743 298 -738.5 Q 323 -734 346 -723 Q 369 -712 387.5 -694 Q 406 -676 418 -653.5 Q 430 -631 436 -606 Q 442 -581 442 -555 L 442 -548 L 341 -548 L 341 -552 Q 341 -572 335.5 -591 Q 330 -610 317.5 -625.5 Q 305 -641 286 -648 Q 267 -655 247 -655 Q 225 -655 205 -645.5 Q 185 -636 173 -618 Q 161 -600 157 -578.5 Q 153 -557 153 -535 L 153 -200 Q 153 -178 157 -156.5 Q 161 -135 173 -117 Q 185 -99 205 -89.5 Q 225 -80 247 -80 Q 267 -80 286 -87 Q 305 -94 317.5 -109.5 Q 330 -125 335.5 -144 Q 341 -163 341 -183 L 341 -187 L 442 -187 L 442 -180 Q 442 -154 436 -129 Q 430 -104 418 -81.5 Q 406 -59 387.5 -41 Q 369 -23 346 -12 Q 323 -1 298 3.5 Q 273 8 247 8 Z " id="path13"/>
<path d="M 60 0 L 60 -735 L 219 -735 Q 249 -735 279 -730 Q 309 -725 336.5 -712 Q 364 -699 386 -678.5 Q 408 -658 422 -631.5 Q 436 -605 442 -575 Q 448 -545 448 -515 L 448 -220 Q 448 -190 442 -160 Q 436 -130 422 -103.5 Q 408 -77 386 -56.5 Q 364 -36 336.5 -23 Q 309 -10 279 -5 Q 249 -0 219 0 Z M 161 -88 L 219 -88 Q 237 -88 254 -91 Q 271 -94 286.5 -102.5 Q 302 -111 314 -124 Q 326 -137 333.5 -152.5 Q 341 -168 344 -185.5 Q 347 -203 347 -220 L 347 -515 Q 347 -532 344 -549.5 Q 341 -567 333.5 -582.5 Q 326 -598 314 -611 Q 302 -624 286.5 -632.5 Q 271 -641 254 -644 Q 237 -647 219 -647 L 161 -647 Z " id="path14"/>
<path d="M 68 0 L 68 -735 L 440 -735 L 440 -647 L 169 -647 L 169 -426 L 383 -426 L 383 -338 L 169 -338 L 169 -88 L 440 -88 L 440 0 Z " id="path15"/>
<path d="M 91 0 L 91 -735 L 440 -735 L 440 -647 L 191 -647 L 191 -426 L 383 -426 L 383 -338 L 191 -338 L 191 0 Z " id="path16"/>
<path d="M 250 8 Q 223 8 196.5 2.5 Q 170 -3 147 -16.5 Q 124 -30 106.5 -50.5 Q 89 -71 78.5 -95.5 Q 68 -120 64 -146.5 Q 60 -173 60 -200 L 60 -735 L 161 -735 L 161 -200 Q 161 -186 162.5 -172 Q 164 -158 168 -144.5 Q 172 -131 179.5 -118.5 Q 187 -106 197.5 -97 Q 208 -88 222 -84 Q 236 -80 250 -80 Q 264 -80 278 -84 Q 292 -88 302.5 -97 Q 313 -106 320.5 -118.5 Q 328 -131 332 -144.5 Q 336 -158 337.5 -172 Q 339 -186 339 -200 L 339 -735 L 440 -735 L 440 -200 Q 440 -173 436 -146.5 Q 432 -120 421.5 -95.5 Q 411 -71 393.5 -50.5 Q 376 -30 353 -16.5 Q 330 -3 303.5 2.5 Q 277 8 250 8 Z " id="path17"/>
<path d="M 300 -143 L 200 -143 L 200 -296 L 60 -296 L 60 -384 L 200 -384 L 200 -537 L 300 -537 L 300 -384 L 440 -384 L 440 -296 L 300 -296 Z " id="path18"/>
<path d="M 64 0 L 64 -735 L 436 -735 L 436 0 Z M 94 -321 L 401 -705 L 308 -705 L 94 -438 Z M 94 -478 L 276 -705 L 182 -705 L 94 -595 Z M 94 -634 L 151 -705 L 94 -705 Z M 94 -165 L 406 -554 L 406 -671 L 94 -282 Z M 94 -30 L 111 -30 L 406 -398 L 406 -515 L 94 -126 Z M 143 -30 L 236 -30 L 406 -242 L 406 -359 Z M 268 -30 L 362 -30 L 406 -85 L 406 -202 Z M 393 -30 L 406 -30 L 406 -46 Z " id="path19"/>
<path d="M 250 -526 Q 240 -526 233 -533 Q 226 -540 226 -550 Q 226 -560 233 -567 Q 240 -574 250 -574 Q 260 -574 267 -567 Q 274 -560 274 -550 Q 274 -540 267 -533 Q 260 -526 250 -526 Z M 145 -498 Q 135 -498 128 -505 Q 121 -512 121 -522 Q 121 -531 128 -538.5 Q 135 -546 145 -546 Q 155 -546 162 -538.5 Q 169 -531 169 -522 Q 169 -512 162 -505 Q 155 -498 145 -498 Z M 355 -498 Q 345 -498 338 -505 Q 331 -512 331 -522 Q 331 -531 338 -538.5 Q 345 -546 355 -546 Q 365 -546 372 -538.5 Q 379 -531 379 -522 Q 379 -512 372 -505 Q 365 -498 355 -498 Z M 68 -421 Q 59 -421 51.5 -428 Q 44 -435 44 -445 Q 44 -455 51.5 -462 Q 59 -469 68 -469 Q 78 -469 85 -462 Q 92 -455 92 -445 Q 92 -435 85 -428 Q 78 -421 68 -421 Z M 432 -421 Q 422 -421 415 -428 Q 408 -435 408 -445 Q 408 -455 415 -462 Q 422 -469 432 -469 Q 441 -469 448.5 -462 Q 456 -455 456 -445 Q 456 -435 448.5 -428 Q 441 -421 432 -421 Z M 40 -316 Q 30 -316 23 -323 Q 16 -330 16 -340 Q 16 -350 23 -357 Q 30 -364 40 -364 Q 50 -364 57 -357 Q 64 -350 64 -340 Q 64 -330 57 -323 Q 50 -316 40 -316 Z M 460 -316 Q 450 -316 443 -323 Q 436 -330 436 -340 Q 436 -350 443 -357 Q 450 -364 460 -364 Q 470 -364 477 -357 Q 484 -350 484 -340 Q 484 -330 477 -323 Q 470 -316 460 -316 Z M 432 -211 Q 422 -211 415 -218 Q 408 -225 408 -235 Q 408 -245 415 -252 Q 422 -259 432 -259 Q 441 -259 448.5 -252 Q 456 -245 456 -235 Q 456 -225 448.5 -218 Q 441 -211 432 -211 Z M 68 -211 Q 59 -211 51.5 -218 Q 44 -225 44 -235 Q 44 -245 51.5 -252 Q 59 -259 68 -259 Q 78 -259 85 -252 Q 92 -245 92 -235 Q 92 -225 85 -218 Q 78 -211 68 -211 Z M 355 -134 Q 345 -134 338 -141.5 Q 331 -149 331 -158 Q 331 -168 338 -175 Q 345 -182 355 -182 Q 365 -182 372 -175 Q 379 -168 379 -158 Q 379 -149 372 -141.5 Q 365 -134 355 -134 Z M 145 -134 Q 135 -134 128 -141.5 Q 121 -149 121 -158 Q 121 -168 128 -175 Q 135 -182 145 -182 Q 155 -182 162 -175 Q 169 -168 169 -158 Q 169 -149 162 -141.5 Q 155 -134 145 -134 Z M 250 -106 Q 240 -106 233 -113 Q 226 -120 226 -130 Q 226 -140 233 -147 Q 240 -154 250 -154 Q 260 -154 267 -147 Q 274 -140 274 -130 Q 274 -120 267 -113 Q 260 -106 250 -106 Z " id="path20"/>
<path d="M -250 -613 Q -280 -613 -309.5 -620.5 Q -339 -628 -362 -647 Q -385 -666 -396 -694.5 Q -407 -723 -407 -753 L -333 -753 Q -333 -737 -327 -722 Q -321 -707 -309 -697.5 Q -297 -688 -281.5 -684 Q -266 -680 -250 -680 Q -232 -680 -215 -685.5 Q -198 -691 -182 -698.5 Q -166 -706 -150 -715 Q -134 -724 -118 -732 Q -102 -740 -85 -745 Q -68 -750 -50 -750 L -50 -683 Q -73 -683 -95.5 -674.5 Q -118 -666 -138 -654 L -162 -642 Q -182 -630 -204.5 -621.5 Q -227 -613 -250 -613 Z " id="path21"/>
<path d="M -369 -613 L -369 -674 L -246 -674 L -153 -782 L -110 -753 L -201 -613 Z " id="path22"/>
<path d="M -299 -613 L -390 -753 L -347 -782 L -254 -674 L -131 -674 L -131 -613 Z " id="path23"/>
<path d="M -153 -605 L -246 -714 L -369 -714 L -369 -774 L -201 -774 L -110 -635 Z " id="path24"/>
<path d="M -347 -605 L -390 -635 L -299 -774 L -131 -774 L -131 -714 L -254 -714 Z " id="path25"/>
<path d="M -300 141 L -300 -67 L -262 -67 L -262 -27 Q -259 -35 -255.5 -43 Q -252 -51 -246 -57 Q -240 -63 -232 -66.5 Q -224 -70 -215 -70 Q -204 -70 -194 -64.5 Q -184 -59 -178.5 -49 Q -173 -39 -171.5 -28 Q -170 -17 -170 -6 L -208 -6 Q -208 -11 -209 -16 Q -210 -21 -212 -25.5 Q -214 -30 -218.5 -32.5 Q -223 -35 -228 -35 Q -238 -35 -245.5 -27.5 Q -253 -20 -256.5 -10 Q -260 0 -261 10 Q -262 20 -262 31 L -262 141 Z " id="path26"/>
<path d="M -316 -613 Q -333 -613 -349 -618 Q -365 -623 -377.5 -633.5 Q -390 -644 -398.5 -658 Q -407 -672 -411.5 -688 Q -416 -704 -418 -720.5 Q -420 -737 -420 -753 L -346 -753 Q -346 -746 -345.5 -739 Q -345 -732 -344 -724.5 Q -343 -717 -341.5 -710 Q -340 -703 -337 -696.5 Q -334 -690 -329 -685 Q -324 -680 -316 -680 Q -309 -680 -304 -685 Q -299 -690 -296 -696.5 Q -293 -703 -291.5 -710 Q -290 -717 -289 -724.5 Q -288 -732 -287.5 -739 Q -287 -746 -287 -753 L -99 -753 L -99 -686 L -222 -686 Q -227 -671 -235.5 -657 Q -244 -643 -256.5 -632.5 Q -269 -622 -284.5 -617.5 Q -300 -613 -316 -613 Z " id="path27"/>
<path d="M -184 -613 Q -200 -613 -215.5 -617.5 Q -231 -622 -243.5 -632.5 Q -256 -643 -264.5 -657 Q -273 -671 -278 -686 L -401 -686 L -401 -753 L -213 -753 Q -213 -746 -212.5 -739 Q -212 -732 -211 -724.5 Q -210 -717 -208.5 -710 Q -207 -703 -204 -696.5 Q -201 -690 -196 -685 Q -191 -680 -184 -680 Q -176 -680 -171 -685 Q -166 -690 -163 -696.5 Q -160 -703 -158.5 -710 Q -157 -717 -156 -724.5 Q -155 -732 -154.5 -739 Q -154 -746 -154 -753 L -80 -753 Q -80 -737 -82 -720.5 Q -84 -704 -88.5 -688 Q -93 -672 -101.5 -658 Q -110 -644 -122.5 -633.5 Q -135 -623 -151 -618 Q -167 -613 -184 -613 Z " id="path28"/>
<path d="M -367 -972 L -383 -1019 L -15 -1160 L 15 -1160 L 383 -1019 L 367 -972 L 0 -1072 Z " id="path29"/>
<path d="M -300 -525 L -300 -533 Q -286 -542 -274.5 -554.5 Q -263 -567 -254.5 -581.5 Q -246 -596 -239.5 -611.5 Q -233 -627 -233 -644 Q -233 -654 -237.5 -663.5 Q -242 -673 -250 -678.5 Q -258 -684 -268.5 -686.5 Q -279 -689 -289 -689 Q -297 -689 -305.5 -687.5 Q -314 -686 -322 -685 L -322 -752 Q -311 -754 -299.5 -755 Q -288 -756 -276 -756 Q -255 -756 -234 -751.5 Q -213 -747 -195.5 -734.5 Q -178 -722 -168 -702.5 Q -158 -683 -158 -662 Q -158 -641 -166.5 -620.5 Q -175 -600 -188 -582.5 Q -201 -565 -217.5 -550.5 Q -234 -536 -252 -525 Z " id="path30"/>
<path d="M -234 73 L -226 33 L -355 33 L -335 -67 L -266 -67 L -274 -27 L -145 -27 L -165 73 Z " id="path31"/>
<path d="M -292 -613 Q -303 -613 -313.5 -618 Q -324 -623 -331 -631.5 Q -338 -640 -342 -650.5 Q -346 -661 -348.5 -672 Q -351 -683 -352 -694.5 Q -353 -706 -353 -717 L -315 -717 Q -315 -710 -314.5 -703.5 Q -314 -697 -313.5 -690.5 Q -313 -684 -312 -677.5 Q -311 -671 -309 -665 Q -307 -659 -302.5 -653 Q -298 -647 -292 -647 Q -285 -647 -281 -653 Q -277 -659 -275 -665 Q -273 -671 -272 -677.5 Q -271 -684 -270.5 -690.5 Q -270 -697 -269.5 -703.5 Q -269 -710 -269 -717 L -231 -717 Q -231 -710 -230.5 -703.5 Q -230 -697 -229.5 -690.5 Q -229 -684 -228 -677.5 Q -227 -671 -225 -665 Q -223 -659 -219 -653 Q -215 -647 -208 -647 Q -202 -647 -197.5 -653 Q -193 -659 -191 -665 Q -189 -671 -188 -677.5 Q -187 -684 -186.5 -690.5 Q -186 -697 -185.5 -703.5 Q -185 -710 -185 -717 L -147 -717 Q -147 -706 -148 -694.5 Q -149 -683 -151.5 -672 Q -154 -661 -158 -650.5 Q -162 -640 -169 -631.5 Q -176 -623 -186.5 -618 Q -197 -613 -208 -613 Q -220 -613 -231.5 -619 Q -243 -625 -250 -636 Q -257 -625 -268.5 -619 Q -280 -613 -292 -613 Z " id="path32"/>
<path d="M -284 -610 Q -296 -610 -307 -614.5 Q -318 -619 -325 -628.5 Q -332 -638 -334.5 -649.5 Q -337 -661 -337 -673 Q -337 -685 -334 -697.5 Q -331 -710 -322.5 -719.5 Q -314 -729 -302 -733.5 Q -290 -738 -277 -738 L -269 -738 L -269 -776 Q -269 -782 -273 -786 Q -277 -790 -283 -790 Q -287 -790 -290 -787 Q -293 -784 -294 -780 Q -295 -776 -295.5 -772 Q -296 -768 -296 -764 L -296 -763 L -335 -763 L -335 -766 Q -335 -777 -332 -788 Q -329 -799 -322 -807.5 Q -315 -816 -304.5 -820 Q -294 -824 -283 -824 Q -274 -824 -265 -822 Q -256 -820 -249 -815 Q -242 -820 -233.5 -822 Q -225 -824 -216 -824 Q -205 -824 -194 -820.5 Q -183 -817 -176 -808.5 Q -169 -800 -166 -789 Q -163 -778 -163 -767 L -163 -700 L -231 -700 L -231 -667 Q -231 -659 -227.5 -651.5 Q -224 -644 -216 -644 Q -212 -644 -209 -647 Q -206 -650 -204.5 -654 Q -203 -658 -202.5 -662 Q -202 -666 -202 -670 L -202 -671 L -164 -671 L -164 -668 Q -164 -657 -167 -646 Q -170 -635 -177 -626.5 Q -184 -618 -194.5 -614 Q -205 -610 -216 -610 Q -226 -610 -235 -612.5 Q -244 -615 -251 -621 Q -258 -615 -266.5 -612.5 Q -275 -610 -284 -610 Z M -231 -734 L -201 -734 L -201 -767 Q -201 -775 -204.5 -782.5 Q -208 -790 -216 -790 Q -224 -790 -227.5 -782.5 Q -231 -775 -231 -767 Z M -284 -644 Q -279 -644 -276 -648 Q -273 -652 -271.5 -656.5 Q -270 -661 -269.5 -666 Q -269 -671 -269 -675 L -269 -704 L -277 -704 Q -282 -704 -287 -701.5 Q -292 -699 -294.5 -694.5 Q -297 -690 -298 -684.5 Q -299 -679 -299 -674 Q -299 -670 -298.5 -665 Q -298 -660 -296.5 -656 Q -295 -652 -292 -648 Q -289 -644 -284 -644 Z " id="path33"/>
<path d="M -284 -610 Q -296 -610 -307 -614.5 Q -318 -619 -325 -628.5 Q -332 -638 -334.5 -649.5 Q -337 -661 -337 -673 Q -337 -685 -334 -697.5 Q -331 -710 -322.5 -719.5 Q -314 -729 -302 -733.5 Q -290 -738 -277 -738 L -269 -738 L -269 -776 Q -269 -782 -273 -786 Q -277 -790 -283 -790 Q -287 -790 -290 -787 Q -293 -784 -294 -780 Q -295 -776 -295.5 -772 Q -296 -768 -296 -764 L -296 -763 L -335 -763 L -335 -766 Q -335 -777 -332 -788 Q -329 -799 -322 -807.5 Q -315 -816 -304.5 -820 Q -294 -824 -283 -824 Q -274 -824 -265 -822 Q -256 -820 -249 -815 Q -242 -820 -233.5 -822 Q -225 -824 -216 -824 Q -205 -824 -194 -820.5 Q -183 -817 -176 -808.5 Q -169 -800 -166 -789 Q -163 -778 -163 -767 L -163 -667 Q -163 -656 -166 -645 Q -169 -634 -176 -625.5 Q -183 -617 -194 -613.5 Q -205 -610 -216 -610 Q -225 -610 -234.5 -612.5 Q -244 -615 -251 -621 Q -258 -615 -266.5 -612.5 Q -275 -610 -284 -610 Z M -216 -644 Q -208 -644 -204.5 -651.5 Q -201 -659 -201 -667 L -201 -767 Q -201 -775 -204.5 -782.5 Q -208 -790 -216 -790 Q -224 -790 -227.5 -782.5 Q -231 -775 -231 -767 L -231 -667 Q -231 -659 -227.5 -651.5 Q -224 -644 -216 -644 Z M -284 -644 Q -279 -644 -276 -648 Q -273 -652 -271.5 -656.5 Q -270 -661 -269.5 -666 Q -269 -671 -269 -675 L -269 -704 L -277 -704 Q -282 -704 -287 -701.5 Q -292 -699 -294.5 -694.5 Q -297 -690 -298 -684.5 Q -299 -679 -299 -674 Q -299 -670 -298.5 -665 Q -298 -660 -296.5 -656 Q -295 -652 -292 -648 Q -289 -644 -284 -644 Z " id="path34"/>
<path d="M -290 -607 L -290 -636 L -250 -636 Q -244 -636 -238 -638.5 Q -232 -641 -232 -647 Q -232 -654 -238 -657.5 Q -244 -661 -250 -661 L -266 -661 L -266 -693 Q -280 -695 -292.5 -702 Q -305 -709 -313 -721 Q -321 -733 -324.5 -747 Q -328 -761 -328 -775 L -328 -823 Q -328 -839 -323.5 -855 Q -319 -871 -308.5 -883 Q -298 -895 -282.5 -900.5 Q -267 -906 -251 -906 Q -236 -906 -221.5 -901.5 Q -207 -897 -196 -887 Q -185 -877 -180 -862.5 Q -175 -848 -175 -833 L -175 -831 L -213 -831 L -213 -832 Q -213 -840 -215.5 -847.5 Q -218 -855 -223.5 -860.5 Q -229 -866 -236 -868.5 Q -243 -871 -251 -871 Q -260 -871 -268 -867.5 Q -276 -864 -281 -856.5 Q -286 -849 -287.5 -840.5 Q -289 -832 -289 -823 L -289 -775 Q -289 -766 -287.5 -757.5 Q -286 -749 -281 -741.5 Q -276 -734 -268 -730.5 Q -260 -727 -251 -727 Q -243 -727 -236 -729.5 Q -229 -732 -223.5 -737.5 Q -218 -743 -215.5 -750.5 Q -213 -758 -213 -766 L -213 -767 L -175 -767 L -175 -765 Q -175 -752 -178.5 -739.5 Q -182 -727 -190 -717 Q -198 -707 -209.5 -701 Q -221 -695 -234 -693 L -234 -676 Q -223 -674 -215 -664 Q -207 -654 -207 -643 Q -207 -635 -210 -627.5 Q -213 -620 -219.5 -615 Q -226 -610 -234 -608.5 Q -242 -607 -250 -607 Z " id="path35"/>
<path d="M -250 -610 Q -267 -610 -283.5 -617 Q -300 -624 -310 -637.5 Q -320 -651 -324 -668 Q -328 -685 -328 -702 Q -328 -718 -325.5 -733.5 Q -323 -749 -315.5 -762.5 Q -308 -776 -294.5 -784.5 Q -281 -793 -266 -793 Q -257 -793 -249 -790.5 Q -241 -788 -234 -783 Q -227 -778 -222 -771 Q -217 -764 -213 -757 Q -216 -775 -222.5 -793.5 Q -229 -812 -239.5 -828 Q -250 -844 -265 -856 Q -280 -868 -298 -874 L -286 -907 Q -257 -898 -233.5 -877.5 Q -210 -857 -196.5 -830 Q -183 -803 -177.5 -773 Q -172 -743 -172 -712 L -172 -701 Q -172 -684 -176 -667 Q -180 -650 -190.5 -636.5 Q -201 -623 -217 -616.5 Q -233 -610 -250 -610 Z M -250 -645 Q -240 -645 -231.5 -650 Q -223 -655 -218.5 -663.5 Q -214 -672 -212.5 -681.5 Q -211 -691 -211 -701 Q -211 -711 -212.5 -720.5 Q -214 -730 -218.5 -738.5 Q -223 -747 -231.5 -752.5 Q -240 -758 -250 -758 Q -260 -758 -268.5 -752.5 Q -277 -747 -281.5 -738.5 Q -286 -730 -287.5 -720.5 Q -289 -711 -289 -701 Q -289 -692 -287.5 -682 Q -286 -672 -281.5 -663.5 Q -277 -655 -268.5 -650 Q -260 -645 -250 -645 Z " id="path36"/>
<path d="M -250 -610 Q -267 -610 -283.5 -617 Q -300 -624 -310 -637.5 Q -320 -651 -324 -668 Q -328 -685 -328 -702 Q -328 -718 -325.5 -733.5 Q -323 -749 -315.5 -762.5 Q -308 -776 -294.5 -784.5 Q -281 -793 -266 -793 Q -257 -793 -249 -790.5 Q -241 -788 -234 -783 Q -227 -778 -222 -771 Q -217 -764 -213 -757 Q -216 -774 -221.5 -790.5 Q -227 -807 -236 -822 L -306 -803 L -314 -830 L -254 -846 Q -263 -856 -274.5 -863 Q -286 -870 -298 -874 L -286 -907 Q -265 -901 -246 -888 Q -227 -875 -214 -857 L -187 -864 L -179 -838 L -198 -833 Q -183 -805 -177.5 -774 Q -172 -743 -172 -712 L -172 -701 Q -172 -684 -176 -667 Q -180 -650 -190.5 -636.5 Q -201 -623 -217 -616.5 Q -233 -610 -250 -610 Z M -250 -645 Q -240 -645 -231.5 -650 Q -223 -655 -218.5 -663.5 Q -214 -672 -212.5 -681.5 Q -211 -691 -211 -701 Q -211 -711 -212.5 -720.5 Q -214 -730 -218.5 -738.5 Q -223 -747 -231.5 -752.5 Q -240 -758 -250 -758 Q -260 -758 -268.5 -752.5 Q -277 -747 -281.5 -738.5 Q -286 -730 -287.5 -720.5 Q -289 -711 -289 -701 Q -289 -692 -287.5 -682 Q -286 -672 -281.5 -663.5 Q -277 -655 -268.5 -650 Q -260 -645 -250 -645 Z " id="path37"/>
<path d="M -251 -610 Q -264 -610 -277 -612.5 Q -290 -615 -301 -622.5 Q -312 -630 -318.5 -642 Q -325 -654 -325 -667 L -287 -667 Q -286 -661 -282.5 -656 Q -279 -651 -273.5 -648.5 Q -268 -646 -262.5 -645.5 Q -257 -645 -251 -645 Q -242 -645 -234.5 -649 Q -227 -653 -222 -660 Q -217 -667 -215.5 -675.5 Q -214 -684 -214 -693 L -214 -734 Q -217 -726 -222 -718.5 Q -227 -711 -234 -705.5 Q -241 -700 -250 -698 Q -259 -696 -267 -696 Q -282 -696 -295 -703 Q -308 -710 -315.5 -723 Q -323 -736 -325.5 -750 Q -328 -764 -328 -779 L -328 -827 Q -328 -842 -325.5 -856 Q -323 -870 -315.5 -883 Q -308 -896 -295 -903 Q -282 -910 -267 -910 Q -259 -910 -250 -908 Q -241 -906 -234 -900.5 Q -227 -895 -222 -887.5 Q -217 -880 -214 -872 L -214 -907 L -176 -907 L -176 -693 Q -176 -677 -180 -661 Q -184 -645 -194 -633 Q -204 -621 -219.5 -615.5 Q -235 -610 -251 -610 Z M -252 -731 Q -243 -731 -235 -734.5 Q -227 -738 -222 -745.5 Q -217 -753 -215.5 -761.5 Q -214 -770 -214 -779 L -214 -827 Q -214 -836 -215.5 -844.5 Q -217 -853 -222 -860.5 Q -227 -868 -235 -871.5 Q -243 -875 -252 -875 Q -260 -875 -268 -871.5 Q -276 -868 -281 -860.5 Q -286 -853 -287.5 -844.5 Q -289 -836 -289 -827 L -289 -779 Q -289 -770 -287.5 -761.5 Q -286 -753 -281 -745.5 Q -276 -738 -268 -734.5 Q -260 -731 -252 -731 Z " id="path38"/>
<path d="M -267 -610 Q -282 -610 -295 -617 Q -308 -624 -315 -636 Q -322 -648 -325 -662.5 Q -328 -677 -328 -691 L -328 -743 Q -328 -759 -323.5 -774.5 Q -319 -790 -308.5 -802 Q -298 -814 -282.5 -819 Q -267 -824 -251 -824 Q -236 -824 -221.5 -820 Q -207 -816 -196 -805.5 Q -185 -795 -180 -780.5 Q -175 -766 -175 -751 L -175 -749 L -213 -749 L -213 -750 Q -213 -758 -215.5 -765.5 Q -218 -773 -223.5 -778.5 Q -229 -784 -236 -786.5 Q -243 -789 -251 -789 Q -260 -789 -268 -785.5 Q -276 -782 -281 -775 Q -286 -768 -287.5 -760 Q -289 -752 -289 -743 L -289 -691 Q -289 -683 -287.5 -674.5 Q -286 -666 -281 -659 Q -276 -652 -268 -648.5 Q -260 -645 -252 -645 Q -243 -645 -235 -648.5 Q -227 -652 -222.5 -659 Q -218 -666 -216 -674.5 Q -214 -683 -214 -691 L -214 -695 L -250 -695 L -250 -730 L -176 -730 L -176 -613 L -211 -613 L -211 -658 Q -213 -648 -218 -639 Q -223 -630 -230.5 -623 Q -238 -616 -247.5 -613 Q -257 -610 -267 -610 Z " id="path39"/>
<path d="M -318 -613 L -318 -907 L -280 -907 L -280 -728 L -216 -821 L -171 -821 L -240 -726 L -171 -613 L -214 -613 L -262 -696 L -280 -671 L -280 -613 Z " id="path40"/>
<path d="M -320 -613 L -320 -648 L -266 -648 L -266 -872 L -314 -872 L -314 -907 L -228 -907 L -228 -648 L -180 -648 L -180 -613 Z " id="path41"/>
<path d="M -312 -613 L -312 -821 L -273 -821 L -273 -648 L -173 -648 L -173 -613 Z " id="path42"/>
<path d="M -334 -613 L -334 -821 L -294 -821 L -250 -708 L -206 -821 L -166 -821 L -166 -613 L -205 -613 L -205 -655 Q -205 -687 -201.5 -718.5 Q -198 -750 -196 -782 L -237 -675 L -263 -675 L -304 -782 Q -302 -750 -298.5 -718.5 Q -295 -687 -295 -655 L -295 -613 Z " id="path43"/>
<path d="M -324 -613 L -324 -821 L -286 -821 L -286 -787 Q -283 -795 -278 -802 Q -273 -809 -266.5 -814 Q -260 -819 -251.5 -821.5 Q -243 -824 -234 -824 Q -220 -824 -207 -816.5 Q -194 -809 -187 -796.5 Q -180 -784 -178 -769.5 Q -176 -755 -176 -741 L -176 -613 L -214 -613 L -214 -741 Q -214 -750 -215.5 -758.5 Q -217 -767 -221.5 -774 Q -226 -781 -233.5 -785 Q -241 -789 -250 -789 Q -259 -789 -266.5 -785 Q -274 -781 -278.5 -774 Q -283 -767 -284.5 -758.5 Q -286 -750 -286 -741 L -286 -613 Z " id="path44"/>
<path d="M -324 -613 L -324 -821 L -283 -821 L -207 -658 Q -209 -678 -211.5 -698 Q -214 -718 -214 -738 L -214 -821 L -176 -821 L -176 -613 L -217 -613 L -293 -776 Q -291 -756 -288.5 -736 Q -286 -716 -286 -696 L -286 -613 Z " id="path45"/>
<path d="M -324 -613 L -324 -821 L -239 -821 Q -225 -821 -212 -817 Q -199 -813 -189.5 -803.5 Q -180 -794 -176 -781 Q -172 -768 -172 -755 Q -172 -744 -174.5 -734 Q -177 -724 -182.5 -715 Q -188 -706 -197 -700 Q -206 -694 -216 -691 L -166 -613 L -210 -613 L -258 -688 L -286 -688 L -286 -613 Z M -239 -723 Q -233 -723 -227 -725.5 Q -221 -728 -217.5 -732.5 Q -214 -737 -212.5 -743 Q -211 -749 -211 -755 Q -211 -761 -212.5 -767 Q -214 -773 -217.5 -777.5 Q -221 -782 -227 -784 Q -233 -786 -239 -786 L -286 -786 L -286 -723 Z " id="path46"/>
<path d="M -211 -613 L -257 -680 L -272 -680 L -272 -715 L -250 -715 Q -242 -715 -234.5 -717 Q -227 -719 -221.5 -724 Q -216 -729 -213.5 -736.5 Q -211 -744 -211 -751 Q -211 -759 -213 -766.5 Q -215 -774 -220 -779.5 Q -225 -785 -232.5 -787 Q -240 -789 -247 -789 Q -254 -789 -260 -788 Q -266 -787 -271.5 -784 Q -277 -781 -280 -775 Q -283 -769 -283 -763 L -322 -763 L -322 -764 Q -322 -777 -316 -789.5 Q -310 -802 -299 -810 Q -288 -818 -274.5 -821 Q -261 -824 -247 -824 Q -232 -824 -217.5 -820 Q -203 -816 -192.5 -805.5 Q -182 -795 -177 -780.5 Q -172 -766 -172 -751 Q -172 -741 -174.5 -730.5 Q -177 -720 -182.5 -711 Q -188 -702 -197 -695.5 Q -206 -689 -216 -685 L -166 -613 Z " id="path47"/>
<path d="M -250 -610 Q -263 -610 -276 -612.5 Q -289 -615 -300.5 -621.5 Q -312 -628 -318.5 -640 Q -325 -652 -325 -665 L -325 -667 L -287 -667 L -287 -666 Q -287 -660 -283 -655.5 Q -279 -651 -273.5 -648.5 Q -268 -646 -262 -645.5 Q -256 -645 -250 -645 Q -244 -645 -238 -645.5 Q -232 -646 -227 -649 Q -222 -652 -218 -657 Q -214 -662 -214 -668 Q -214 -678 -222 -684.5 Q -230 -691 -239.5 -694 Q -249 -697 -258.5 -699.5 Q -268 -702 -277 -706 Q -286 -710 -294 -716 Q -302 -722 -308 -730 Q -314 -738 -317.5 -747.5 Q -321 -757 -321 -767 Q -321 -780 -315 -792 Q -309 -804 -298.5 -811.5 Q -288 -819 -275.5 -821.5 Q -263 -824 -250 -824 Q -237 -824 -224.5 -821.5 Q -212 -819 -201 -812 Q -190 -805 -184 -793.5 Q -178 -782 -178 -769 L -178 -767 L -217 -767 L -217 -768 Q -217 -773 -220 -778 Q -223 -783 -228 -785.5 Q -233 -788 -238.5 -788.5 Q -244 -789 -250 -789 Q -255 -789 -261 -788.5 Q -267 -788 -271.5 -785 Q -276 -782 -279.5 -777 Q -283 -772 -283 -767 Q -283 -757 -275 -750 Q -267 -743 -257.5 -740 Q -248 -737 -238.5 -734.5 Q -229 -732 -220 -728 Q -211 -724 -203 -718 Q -195 -712 -188.5 -704 Q -182 -696 -179 -686.5 Q -176 -677 -176 -668 Q -176 -654 -182.5 -642 Q -189 -630 -200 -622.5 Q -211 -615 -224 -612.5 Q -237 -610 -250 -610 Z " id="path48"/>
<path d="M -294 -613 L -294 -829 Q -294 -844 -291.5 -858.5 Q -289 -873 -281 -885 Q -273 -897 -259.5 -903.5 Q -246 -910 -232 -910 Q -218 -910 -205 -904.5 Q -192 -899 -184 -888.5 Q -176 -878 -172.5 -864.5 Q -169 -851 -169 -837 L -169 -835 L -207 -835 L -207 -836 Q -207 -843 -208 -849 Q -209 -855 -212 -861 Q -215 -867 -220 -871 Q -225 -875 -232 -875 Q -239 -875 -244.5 -870 Q -250 -865 -252 -858 Q -254 -851 -255 -843.5 Q -256 -836 -256 -829 L -256 -613 Z " id="path49"/>
<path d="M -324 -613 L -324 -648 L -218 -786 L -324 -786 L -324 -821 L -176 -821 L -176 -786 L -282 -648 L -176 -648 L -176 -613 Z " id="path50"/>
<path d="M -267 -610 Q -282 -610 -295 -617 Q -308 -624 -315.5 -637 Q -323 -650 -325.5 -664 Q -328 -678 -328 -693 L -328 -741 Q -328 -756 -325.5 -770 Q -323 -784 -315.5 -797 Q -308 -810 -295 -817 Q -282 -824 -267 -824 Q -259 -824 -250 -822 Q -241 -820 -234 -814.5 Q -227 -809 -222 -801.5 Q -217 -794 -214 -786 L -214 -804 L -176 -821 L -176 -613 L -214 -613 L -214 -648 Q -217 -640 -222 -632.5 Q -227 -625 -234 -619.5 Q -241 -614 -250 -612 Q -259 -610 -267 -610 Z M -252 -645 Q -243 -645 -235 -648.5 Q -227 -652 -222 -659.5 Q -217 -667 -215.5 -675.5 Q -214 -684 -214 -693 L -214 -741 Q -214 -750 -215.5 -758.5 Q -217 -767 -222 -774.5 Q -227 -782 -235 -785.5 Q -243 -789 -252 -789 Q -260 -789 -268 -785.5 Q -276 -782 -281 -774.5 Q -286 -767 -287.5 -758.5 Q -289 -750 -289 -741 L -289 -693 Q -289 -684 -287.5 -675.5 Q -286 -667 -281 -659.5 Q -276 -652 -268 -648.5 Q -260 -645 -252 -645 Z " id="path51"/>
<path d="M -233 -610 Q -241 -610 -250 -612 Q -259 -614 -266 -619.5 Q -273 -625 -278 -632.5 Q -283 -640 -286 -648 L -286 -613 L -324 -613 L -324 -907 L -286 -907 L -286 -786 Q -283 -794 -278 -801.5 Q -273 -809 -266 -814.5 Q -259 -820 -250 -822 Q -241 -824 -233 -824 Q -218 -824 -205 -817 Q -192 -810 -184.5 -797 Q -177 -784 -174.5 -770 Q -172 -756 -172 -741 L -172 -693 Q -172 -678 -174.5 -664 Q -177 -650 -184.5 -637 Q -192 -624 -205 -617 Q -218 -610 -233 -610 Z M -248 -645 Q -240 -645 -232 -648.5 Q -224 -652 -219 -659.5 Q -214 -667 -212.5 -675.5 Q -211 -684 -211 -693 L -211 -741 Q -211 -750 -212.5 -758.5 Q -214 -767 -219 -774.5 Q -224 -782 -232 -785.5 Q -240 -789 -248 -789 Q -257 -789 -265 -785.5 Q -273 -782 -278 -774.5 Q -283 -767 -284.5 -758.5 Q -286 -750 -286 -741 L -286 -693 Q -286 -684 -284.5 -675.5 Q -283 -667 -278 -659.5 Q -273 -652 -265 -648.5 Q -257 -645 -248 -645 Z " id="path52"/>
<path d="M -324 -613 L -324 -913 Q -324 -929 -320.5 -944 Q -317 -959 -307.5 -971.5 Q -298 -984 -283.5 -990 Q -269 -996 -253 -996 Q -238 -996 -223.5 -990.5 Q -209 -985 -199.5 -973 Q -190 -961 -186 -946 Q -182 -931 -182 -916 Q -182 -898 -189 -881 Q -196 -864 -211 -855 Q -201 -850 -193 -842.5 Q -185 -835 -180.5 -825 Q -176 -815 -174 -804 Q -172 -793 -172 -783 Q -172 -768 -175 -753 Q -178 -738 -185 -725 Q -192 -712 -205 -704 Q -218 -696 -233 -696 Q -249 -696 -264 -703 Q -279 -710 -286 -724 L -286 -613 Z M -249 -731 Q -240 -731 -231.5 -735.5 Q -223 -740 -218.5 -748.5 Q -214 -757 -212.5 -766 Q -211 -775 -211 -784 Q -211 -794 -212.5 -803 Q -214 -812 -219 -820 Q -224 -828 -232.5 -832 Q -241 -836 -250 -836 L -264 -836 L -264 -871 L -250 -871 Q -243 -871 -236.5 -875 Q -230 -879 -226.5 -886 Q -223 -893 -222 -900 Q -221 -907 -221 -915 Q -221 -923 -222 -931 Q -223 -939 -227 -946 Q -231 -953 -238 -957 Q -245 -961 -253 -961 Q -261 -961 -268.5 -956.5 Q -276 -952 -279.5 -945 Q -283 -938 -284.5 -929.5 Q -286 -921 -286 -913 L -286 -754 Q -285 -748 -281.5 -743 Q -278 -738 -272.5 -735 Q -267 -732 -261 -731.5 Q -255 -731 -249 -731 Z " id="path53"/>
<path d="M -250 -610 Q -266 -610 -282 -615.5 Q -298 -621 -308.5 -633 Q -319 -645 -323.5 -661 Q -328 -677 -328 -693 L -328 -734 L -211 -734 L -211 -741 Q -211 -750 -213 -758.5 Q -215 -767 -220 -774.5 Q -225 -782 -233 -785.5 Q -241 -789 -250 -789 Q -256 -789 -262.5 -788 Q -269 -787 -275 -784 Q -281 -781 -284.5 -775 Q -288 -769 -288 -763 L -327 -763 Q -327 -777 -320.5 -789.5 Q -314 -802 -302.5 -810 Q -291 -818 -277.5 -821 Q -264 -824 -250 -824 Q -234 -824 -218 -818.5 Q -202 -813 -191.5 -801 Q -181 -789 -176.5 -773 Q -172 -757 -172 -741 L -172 -693 Q -172 -677 -176.5 -661 Q -181 -645 -191.5 -633 Q -202 -621 -218 -615.5 Q -234 -610 -250 -610 Z M -250 -645 Q -241 -645 -233 -648.5 Q -225 -652 -220 -659.5 Q -215 -667 -213 -675.5 Q -211 -684 -211 -693 L -211 -700 L -289 -700 L -289 -693 Q -289 -684 -287 -675.5 Q -285 -667 -280 -659.5 Q -275 -652 -267 -648.5 Q -259 -645 -250 -645 Z " id="path54"/>
<path d="M -282 -613 L -282 -769 L -324 -769 L -324 -804 L -282 -804 L -282 -845 Q -282 -857 -279 -869 Q -276 -881 -268.5 -891 Q -261 -901 -249.5 -905.5 Q -238 -910 -225 -910 Q -214 -910 -203 -906.5 Q -192 -903 -184 -895 Q -176 -887 -172.5 -876 Q -169 -865 -169 -854 L -169 -853 L -207 -853 Q -207 -861 -212 -868 Q -217 -875 -225 -875 Q -230 -875 -234 -872 Q -238 -869 -240 -864.5 Q -242 -860 -242.5 -855 Q -243 -850 -243 -845 L -243 -804 L -183 -804 L -183 -769 L -243 -769 L -243 -613 Z " id="path55"/>
<path d="M -320 -613 L -320 -648 L -266 -648 L -266 -744 L -269 -745 Q -271 -745 -273 -742 Q -275 -739 -276.5 -737.5 Q -278 -736 -280 -733.5 Q -282 -731 -283.5 -728 Q -285 -725 -287 -721.5 Q -289 -718 -291 -714 L -314 -725 Q -309 -734 -304.5 -741 Q -300 -748 -295.5 -753 Q -291 -758 -284 -763 Q -277 -768 -269 -768 L -266 -768 L -266 -794 L -269 -796 Q -271 -796 -273 -793 Q -275 -790 -276.5 -788 Q -278 -786 -280 -784 Q -282 -782 -283.5 -779 Q -285 -776 -287 -772.5 Q -289 -769 -291 -765 L -314 -775 Q -309 -785 -304.5 -792 Q -300 -799 -295.5 -804 Q -291 -809 -284 -813.5 Q -277 -818 -269 -818 L -266 -818 L -266 -872 L -314 -872 L -314 -907 L -228 -907 L -228 -788 Q -227 -788 -226 -788 L -226 -787 Q -224 -787 -221.5 -789.5 Q -219 -792 -217.5 -794 Q -216 -796 -214.5 -798.5 Q -213 -801 -211 -803.5 Q -209 -806 -207 -809.5 Q -205 -813 -203 -817 L -180 -807 Q -185 -797 -189.5 -790.5 Q -194 -784 -198.5 -778.5 Q -203 -773 -210.5 -768.5 Q -218 -764 -226 -764 L -228 -764 L -228 -738 L -226 -736 Q -221 -741 -215 -748 Q -209 -755 -203 -767 L -180 -756 Q -185 -747 -189.5 -740 Q -194 -733 -198.5 -728 Q -203 -723 -210.5 -718 Q -218 -713 -226 -713 L -228 -713 L -228 -648 L -180 -648 L -180 -613 Z " id="path56"/>
<path d="M -325 -635 L -350 -647 L -310 -721 Q -320 -733 -324 -748 Q -328 -763 -328 -779 L -328 -827 Q -328 -843 -323.5 -859 Q -319 -875 -308.5 -887 Q -298 -899 -282 -904.5 Q -266 -910 -250 -910 Q -234 -910 -218 -904.5 Q -202 -899 -191.5 -887 Q -181 -875 -176.5 -859 Q -172 -843 -172 -827 L -172 -779 Q -172 -763 -176.5 -747 Q -181 -731 -191.5 -719 Q -202 -707 -218 -701.5 Q -234 -696 -250 -696 Q -260 -696 -269.5 -697.5 Q -279 -699 -288 -703 Z M -250 -731 Q -241 -731 -233 -734.5 Q -225 -738 -220 -745.5 Q -215 -753 -213 -761.5 Q -211 -770 -211 -779 L -211 -827 Q -211 -836 -213 -844.5 Q -215 -853 -220 -860.5 Q -225 -868 -233 -871.5 Q -241 -875 -250 -875 Q -259 -875 -267 -871.5 Q -275 -868 -280 -860.5 Q -285 -853 -287 -844.5 Q -289 -836 -289 -827 L -289 -779 Q -289 -770 -287 -761.5 Q -285 -753 -280 -745.5 Q -275 -738 -267 -734.5 Q -259 -731 -250 -731 Z " id="path57"/>
<path d="M -324 -613 L -324 -907 L -286 -907 L -286 -872 Q -283 -880 -278 -887.5 Q -273 -895 -266 -900.5 Q -259 -906 -250 -908 Q -241 -910 -233 -910 Q -218 -910 -205 -903 Q -192 -896 -184.5 -883 Q -177 -870 -174.5 -856 Q -172 -842 -172 -827 L -172 -779 Q -172 -764 -174.5 -750 Q -177 -736 -184.5 -723 Q -192 -710 -205 -703 Q -218 -696 -233 -696 Q -241 -696 -250 -698 Q -259 -700 -266 -705.5 Q -273 -711 -278 -718.5 Q -283 -726 -286 -734 L -286 -613 Z M -248 -731 Q -240 -731 -232 -734.5 Q -224 -738 -219 -745.5 Q -214 -753 -212.5 -761.5 Q -211 -770 -211 -779 L -211 -827 Q -211 -836 -212.5 -844.5 Q -214 -853 -219 -860.5 Q -224 -868 -232 -871.5 Q -240 -875 -248 -875 Q -257 -875 -265 -871.5 Q -273 -868 -278 -860.5 Q -283 -853 -284.5 -844.5 Q -286 -836 -286 -827 L -286 -779 Q -286 -770 -284.5 -761.5 Q -283 -753 -278 -745.5 Q -273 -738 -265 -734.5 Q -257 -731 -248 -731 Z " id="path58"/>
<path d="M -327 -613 L -327 -648 L -308 -648 Q -299 -648 -290.5 -652 Q -282 -656 -277.5 -663.5 Q -273 -671 -271 -680 Q -269 -689 -269 -698 L -269 -908 Q -269 -924 -265 -940.5 Q -261 -957 -250.5 -969.5 Q -240 -982 -224 -987.5 Q -208 -993 -192 -993 L -173 -993 L -173 -958 L -192 -958 Q -201 -958 -209.5 -954 Q -218 -950 -222.5 -942.5 Q -227 -935 -229 -926 Q -231 -917 -231 -908 L -231 -698 Q -231 -682 -235 -665.5 Q -239 -649 -249.5 -636.5 Q -260 -624 -276 -618.5 Q -292 -613 -308 -613 Z " id="path59"/>
<path d="M -322 -640 L -350 -647 L -322 -748 Q -323 -756 -323.5 -763.5 Q -324 -771 -324 -779 L -324 -907 L -286 -907 L -286 -779 Q -286 -770 -284.5 -761.5 Q -283 -753 -278.5 -746 Q -274 -739 -266.5 -735 Q -259 -731 -250 -731 Q -241 -731 -233.5 -735 Q -226 -739 -221.5 -746 Q -217 -753 -215.5 -761.5 Q -214 -770 -214 -779 L -214 -907 L -176 -907 L -176 -699 L -214 -699 L -214 -733 Q -217 -725 -222 -718 Q -227 -711 -233.5 -706 Q -240 -701 -248.5 -698.5 Q -257 -696 -266 -696 Q -276 -696 -286 -699.5 Q -296 -703 -303 -710 Z " id="path60"/>
<path d="M -305 -613 L -340 -821 L -301 -821 L -287 -648 L -266 -763 L -234 -763 L -213 -648 L -199 -821 L -160 -821 L -195 -613 L -227 -613 L -250 -723 L -273 -613 Z " id="path61"/>
<path d="M -210 -853 Q -216 -853 -221.5 -854.5 Q -227 -856 -231 -860 Q -235 -864 -236.5 -869.5 Q -238 -875 -238 -881 Q -238 -887 -236.5 -892.5 Q -235 -898 -231 -902 Q -227 -906 -221.5 -907.5 Q -216 -909 -210 -909 Q -204 -909 -198.5 -907.5 Q -193 -906 -189 -902 Q -185 -898 -183.5 -892.5 Q -182 -887 -182 -881 Q -182 -875 -183.5 -869.5 Q -185 -864 -189 -860 Q -193 -856 -198.5 -854.5 Q -204 -853 -210 -853 Z M -290 -853 Q -296 -853 -301.5 -854.5 Q -307 -856 -311 -860 Q -315 -864 -316.5 -869.5 Q -318 -875 -318 -881 Q -318 -887 -316.5 -892.5 Q -315 -898 -311 -902 Q -307 -906 -301.5 -907.5 Q -296 -909 -290 -909 Q -284 -909 -278.5 -907.5 Q -273 -906 -269 -902 Q -265 -898 -263.5 -892.5 Q -262 -887 -262 -881 Q -262 -875 -263.5 -869.5 Q -265 -864 -269 -860 Q -273 -856 -278.5 -854.5 Q -284 -853 -290 -853 Z M -267 -610 Q -280 -610 -291.5 -613.5 Q -303 -617 -311.5 -626 Q -320 -635 -324 -646.5 Q -328 -658 -328 -671 Q -328 -686 -321 -700.5 Q -314 -715 -301.5 -723.5 Q -289 -732 -273.5 -735 Q -258 -738 -243 -738 L -214 -738 L -214 -756 Q -214 -763 -216.5 -770 Q -219 -777 -224.5 -781.5 Q -230 -786 -236.5 -787.5 Q -243 -789 -250 -789 Q -257 -789 -263 -788 Q -269 -787 -274.5 -784 Q -280 -781 -283.5 -775.5 Q -287 -770 -287 -764 L -287 -763 L -325 -763 L -325 -765 Q -325 -778 -319 -790.5 Q -313 -803 -302 -810.5 Q -291 -818 -277.5 -821 Q -264 -824 -250 -824 Q -236 -824 -222 -820.5 Q -208 -817 -197 -807.5 Q -186 -798 -181 -784.5 Q -176 -771 -176 -756 L -176 -613 L -214 -613 L -214 -644 Q -217 -636 -222.5 -629.5 Q -228 -623 -235 -618.5 Q -242 -614 -250.5 -612 Q -259 -610 -267 -610 Z M -252 -645 Q -244 -645 -236.5 -647.5 Q -229 -650 -223.5 -656 Q -218 -662 -216 -669.5 Q -214 -677 -214 -685 L -214 -703 L -243 -703 Q -250 -703 -258 -702 Q -266 -701 -273 -698 Q -280 -695 -284.5 -688.5 Q -289 -682 -289 -674 Q -289 -668 -286 -661.5 Q -283 -655 -277.5 -651 Q -272 -647 -265.5 -646 Q -259 -645 -252 -645 Z " id="path62"/>
<path d="M -210 -853 Q -216 -853 -221.5 -854.5 Q -227 -856 -231 -860 Q -235 -864 -236.5 -869.5 Q -238 -875 -238 -881 Q -238 -887 -236.5 -892.5 Q -235 -898 -231 -902 Q -227 -906 -221.5 -907.5 Q -216 -909 -210 -909 Q -204 -909 -198.5 -907.5 Q -193 -906 -189 -902 Q -185 -898 -183.5 -892.5 Q -182 -887 -182 -881 Q -182 -875 -183.5 -869.5 Q -185 -864 -189 -860 Q -193 -856 -198.5 -854.5 Q -204 -853 -210 -853 Z M -290 -853 Q -296 -853 -301.5 -854.5 Q -307 -856 -311 -860 Q -315 -864 -316.5 -869.5 Q -318 -875 -318 -881 Q -318 -887 -316.5 -892.5 Q -315 -898 -311 -902 Q -307 -906 -301.5 -907.5 Q -296 -909 -290 -909 Q -284 -909 -278.5 -907.5 Q -273 -906 -269 -902 Q -265 -898 -263.5 -892.5 Q -262 -887 -262 -881 Q -262 -875 -263.5 -869.5 Q -265 -864 -269 -860 Q -273 -856 -278.5 -854.5 Q -284 -853 -290 -853 Z M -250 -610 Q -266 -610 -282 -615.5 Q -298 -621 -308.5 -633 Q -319 -645 -323.5 -661 Q -328 -677 -328 -693 L -328 -741 Q -328 -757 -323.5 -773 Q -319 -789 -308.5 -801 Q -298 -813 -282 -818.5 Q -266 -824 -250 -824 Q -234 -824 -218 -818.5 Q -202 -813 -191.5 -801 Q -181 -789 -176.5 -773 Q -172 -757 -172 -741 L -172 -693 Q -172 -677 -176.5 -661 Q -181 -645 -191.5 -633 Q -202 -621 -218 -615.5 Q -234 -610 -250 -610 Z M -250 -645 Q -241 -645 -233 -648.5 Q -225 -652 -220 -659.5 Q -215 -667 -213 -675.5 Q -211 -684 -211 -693 L -211 -741 Q -211 -750 -213 -758.5 Q -215 -767 -220 -774.5 Q -225 -782 -233 -785.5 Q -241 -789 -250 -789 Q -259 -789 -267 -785.5 Q -275 -782 -280 -774.5 Q -285 -767 -287 -758.5 Q -289 -750 -289 -741 L -289 -693 Q -289 -684 -287 -675.5 Q -285 -667 -280 -659.5 Q -275 -652 -267 -648.5 Q -259 -645 -250 -645 Z " id="path63"/>
<path d="M -210 -853 Q -216 -853 -221.5 -854.5 Q -227 -856 -231 -860 Q -235 -864 -236.5 -869.5 Q -238 -875 -238 -881 Q -238 -887 -236.5 -892.5 Q -235 -898 -231 -902 Q -227 -906 -221.5 -907.5 Q -216 -909 -210 -909 Q -204 -909 -198.5 -907.5 Q -193 -906 -189 -902 Q -185 -898 -183.5 -892.5 Q -182 -887 -182 -881 Q -182 -875 -183.5 -869.5 Q -185 -864 -189 -860 Q -193 -856 -198.5 -854.5 Q -204 -853 -210 -853 Z M -290 -853 Q -296 -853 -301.5 -854.5 Q -307 -856 -311 -860 Q -315 -864 -316.5 -869.5 Q -318 -875 -318 -881 Q -318 -887 -316.5 -892.5 Q -315 -898 -311 -902 Q -307 -906 -301.5 -907.5 Q -296 -909 -290 -909 Q -284 -909 -278.5 -907.5 Q -273 -906 -269 -902 Q -265 -898 -263.5 -892.5 Q -262 -887 -262 -881 Q -262 -875 -263.5 -869.5 Q -265 -864 -269 -860 Q -273 -856 -278.5 -854.5 Q -284 -853 -290 -853 Z M -266 -610 Q -280 -610 -293 -617.5 Q -306 -625 -313 -637.5 Q -320 -650 -322 -664.5 Q -324 -679 -324 -693 L -324 -821 L -286 -821 L -286 -693 Q -286 -684 -284.5 -675.5 Q -283 -667 -278.5 -660 Q -274 -653 -266.5 -649 Q -259 -645 -250 -645 Q -241 -645 -233.5 -649 Q -226 -653 -221.5 -660 Q -217 -667 -215.5 -675.5 Q -214 -684 -214 -693 L -214 -821 L -176 -821 L -176 -613 L -214 -613 L -214 -647 Q -217 -639 -222 -632 Q -227 -625 -233.5 -620 Q -240 -615 -248.5 -612.5 Q -257 -610 -266 -610 Z " id="path64"/>
<path d="M -350 -613 L -350 -674 L -284 -674 L -284 -753 L -216 -753 L -216 -674 L -150 -674 L -150 -613 Z " id="path65"/>
<path d="M -64 -613 Q -93 -613 -122 -620.5 Q -151 -628 -172.5 -647.5 Q -194 -667 -204 -695.5 Q -214 -724 -214 -753 L -139 -753 Q -139 -738 -134.5 -723.5 Q -130 -709 -119 -699 Q -108 -689 -93.5 -684.5 Q -79 -680 -64 -680 Q -49 -680 -34.5 -684.5 Q -20 -689 -9 -699 Q 2 -709 6.5 -723.5 Q 11 -738 11 -753 L 86 -753 Q 86 -724 76 -695.5 Q 66 -667 44.5 -647.5 Q 23 -628 -6 -620.5 Q -35 -613 -64 -613 Z " id="path66"/>
<path d="M -436 -613 Q -465 -613 -494 -620.5 Q -523 -628 -544.5 -647.5 Q -566 -667 -576 -695.5 Q -586 -724 -586 -753 L -511 -753 Q -511 -738 -506.5 -723.5 Q -502 -709 -491 -699 Q -480 -689 -465.5 -684.5 Q -451 -680 -436 -680 Q -421 -680 -406.5 -684.5 Q -392 -689 -381 -699 Q -370 -709 -365.5 -723.5 Q -361 -738 -361 -753 L -286 -753 Q -286 -724 -296 -695.5 Q -306 -667 -327.5 -647.5 Q -349 -628 -378 -620.5 Q -407 -613 -436 -613 Z " id="path67"/>
<path d="M -481 -572 Q -493 -572 -504 -575.5 Q -515 -579 -523 -587 Q -531 -595 -534.5 -606 Q -538 -617 -538 -629 Q -538 -640 -534.5 -651 Q -531 -662 -523 -670.5 Q -515 -679 -504 -682 Q -493 -685 -481 -685 Q -470 -685 -459 -682 Q -448 -679 -439.5 -670.5 Q -431 -662 -428 -651 Q -425 -640 -425 -629 Q -425 -617 -428 -606 Q -431 -595 -439.5 -587 Q -448 -579 -459 -575.5 Q -470 -572 -481 -572 Z " id="path68"/>
<path d="M -470 73 L -470 -67 L -402 -67 L -402 12 L -98 12 L -98 -67 L -30 -67 L -30 73 Z " id="path69"/>
<path d="M -481 5 Q -493 5 -504 2 Q -515 -1 -523 -9.5 Q -531 -18 -534.5 -29 Q -538 -40 -538 -51 Q -538 -63 -534.5 -74 Q -531 -85 -523 -93 Q -515 -101 -504 -104.5 Q -493 -108 -481 -108 Q -470 -108 -459 -104.5 Q -448 -101 -439.5 -93 Q -431 -85 -428 -74 Q -425 -63 -425 -51 Q -425 -40 -428 -29 Q -431 -18 -439.5 -9.5 Q -448 -1 -459 2 Q -470 5 -481 5 Z " id="path70"/>
<path d="M -228 -613 L -172 -753 L -128 -753 L -192 -613 Z M -298 -613 L -242 -753 L -198 -753 L -261 -613 Z M -368 -613 L -312 -753 L -268 -753 L -331 -613 Z " id="path71"/>
<path d="M -354 558 L -396 502 Q -382 493 -368 484.5 Q -354 476 -339.5 468 Q -325 460 -310.5 452.5 Q -296 445 -281 438 Q -266 431 -250.5 425 Q -235 419 -219.5 413.5 Q -204 408 -188.5 403 Q -173 398 -157 394 Q -141 390 -124.5 386.5 Q -108 383 -88.5 380 Q -69 377 -53.5 375.5 Q -38 374 -26 374 L 0 374 Q 17 374 33.5 375 Q 50 376 66 377.5 Q 82 379 98.5 382 Q 115 385 131 388 Q 147 391 163 395.5 Q 179 400 194.5 405 Q 210 410 225.5 415.5 Q 241 421 256.5 427.5 Q 272 434 287 441 Q 302 448 320 457 Q 338 466 351.5 473.5 Q 365 481 374 487 L 396 502 L 354 558 Q 342 550 329.5 542 Q 317 534 304 527 Q 291 520 277.5 513 Q 264 506 250.5 500 Q 237 494 223.5 488 Q 210 482 196.5 477 Q 183 472 168.5 467.5 Q 154 463 140 459.5 Q 126 456 111.5 453 Q 97 450 79 447 Q 61 444 47 442.5 Q 33 441 24 441 L 0 441 Q -15 441 -29.5 442 Q -44 443 -59 444.5 Q -74 446 -88.5 448.5 Q -103 451 -117.5 454 Q -132 457 -146 461 Q -160 465 -174 469.5 Q -188 474 -202 479.5 Q -216 485 -229.5 490.5 Q -243 496 -256.5 502.5 Q -270 509 -286 517.5 Q -302 526 -314 533 Q -326 540 -334 545 Z " id="path72"/>
<path d="M -192 136 Q -196 136 -200.5 135.5 Q -205 135 -209 134 Q -213 133 -217 131.5 Q -221 130 -225 128.5 Q -229 127 -232.5 125 Q -236 123 -239.5 120.5 Q -243 118 -246.5 115.5 Q -250 113 -253.5 110 Q -257 107 -260 104.5 Q -263 102 -266 99 Q -269 96 -272 93 Q -275 90 -278 87 Q -281 84 -284.5 81 Q -288 78 -291 75.5 Q -294 73 -299 70.5 Q -304 68 -306 68 L -312 68 Q -314 68 -317 70 Q -320 72 -322.5 73.5 Q -325 75 -328.5 78 Q -332 81 -333 82 L -335 84 Q -338 87 -340.5 89.5 Q -343 92 -346 95 L -350 99 Q -352 101 -354 104 Q -356 107 -358 109.5 Q -360 112 -362.5 115 Q -365 118 -366.5 120.5 Q -368 123 -370.5 126.5 Q -373 130 -374 131 L -375 133 L -425 103 Q -421 97 -416.5 91 Q -412 85 -408 79.5 Q -404 74 -399 68 Q -394 62 -389 56.5 Q -384 51 -379 46 Q -374 41 -368 37 Q -362 33 -355.5 28.5 Q -349 24 -342.5 21 Q -336 18 -328 16 Q -320 14 -314 14 L -308 14 Q -304 14 -299.5 14.5 Q -295 15 -291 16 Q -287 17 -283 18 Q -279 19 -275 21 Q -271 23 -267.5 25 Q -264 27 -260.5 29 Q -257 31 -253.5 34 Q -250 37 -246.5 39.5 Q -243 42 -240 45 Q -237 48 -234 51 Q -231 54 -227.5 57 Q -224 60 -221 62.5 Q -218 65 -215 68 Q -212 71 -209 73.5 Q -206 76 -201 79 Q -196 82 -194 82 L -192 82 Q -188 82 -186.5 81 Q -185 80 -183 79 Q -181 78 -179 77 Q -177 76 -175 74.5 Q -173 73 -170.5 71 Q -168 69 -167 68 L -157 58 Q -155 56 -152 52.5 Q -149 49 -146 45 L -142 40 Q -141 39 -140 37.5 Q -139 36 -138 35 L -134 29 Q -132 26 -129.5 22.5 Q -127 19 -126 17 L -125 16 L -75 46 Q -79 52 -83.5 58 Q -88 64 -92.5 69.5 Q -97 75 -101.5 81 Q -106 87 -111 92.5 Q -116 98 -121.5 103 Q -127 108 -132.5 112 Q -138 116 -144.5 120.5 Q -151 125 -157.5 128 Q -164 131 -172 133.5 Q -180 136 -185 136 Z M -192 31 Q -196 31 -200.5 30.5 Q -205 30 -209 29 Q -213 28 -217 26.5 Q -221 25 -225 23.5 Q -229 22 -232.5 20 Q -236 18 -239.5 15.5 Q -243 13 -246.5 10.5 Q -250 8 -253.5 5 Q -257 2 -260 -0.5 Q -263 -3 -266 -6 Q -269 -9 -272 -12 Q -275 -15 -278 -18 Q -281 -21 -284.5 -24 Q -288 -27 -291 -29.5 Q -294 -32 -299 -34.5 Q -304 -37 -306 -37 L -308 -37 Q -312 -37 -313.5 -36 Q -315 -35 -317 -34 Q -319 -33 -321 -32 Q -323 -31 -325 -29.5 Q -327 -28 -329.5 -26 Q -332 -24 -333 -23 L -335 -21 Q -339 -17 -343 -13.5 Q -347 -10 -350 -6 L -358 4 Q -359 6 -360 7 Q -361 8 -362 10 L -366 16 Q -368 19 -370.5 22 Q -373 25 -374 27 L -375 29 L -425 -1 Q -421 -8 -416.5 -14 Q -412 -20 -408 -25.5 Q -404 -31 -399 -36.5 Q -394 -42 -389 -47.5 Q -384 -53 -379 -58 Q -374 -63 -368 -67.5 Q -362 -72 -355.5 -76.5 Q -349 -81 -342.5 -84 Q -336 -87 -328 -89 Q -320 -91 -314 -91 L -308 -91 Q -304 -91 -299.5 -90.5 Q -295 -90 -291 -89 Q -287 -88 -283 -87 Q -279 -86 -275 -84 Q -271 -82 -267.5 -80 Q -264 -78 -260.5 -76 Q -257 -74 -253.5 -71 Q -250 -68 -247 -65 Q -244 -62 -240.5 -59.5 Q -237 -57 -234 -54.5 Q -231 -52 -227.5 -48.5 Q -224 -45 -221 -42.5 Q -218 -40 -215 -37 Q -212 -34 -209 -31.5 Q -206 -29 -201 -26 Q -196 -23 -194 -23 L -192 -23 Q -188 -23 -186.5 -24 Q -185 -25 -183 -26 Q -181 -27 -179 -28 Q -177 -29 -175 -30.5 Q -173 -32 -170.5 -34 Q -168 -36 -167 -37 L -164 -40 Q -161 -43 -157 -46.5 Q -153 -50 -150 -55 L -142 -65 Q -141 -66 -140 -67.5 Q -139 -69 -138 -70 L -134 -76 Q -132 -79 -129.5 -82 Q -127 -85 -126 -87 L -125 -89 L -75 -59 Q -79 -53 -83.5 -47 Q -88 -41 -92.5 -35.5 Q -97 -30 -101.5 -24 Q -106 -18 -111 -12.5 Q -116 -7 -121.5 -2 Q -127 3 -132.5 7 Q -138 11 -144.5 15.5 Q -151 20 -157.5 23 Q -164 26 -172 28.5 Q -180 31 -185 31 Z " id="path73"/>
<path d="M -161 -584 L -350 -657 L -350 -709 L -161 -782 L -139 -724 L -268 -683 L -139 -642 Z " id="path74"/>
<path d="M -439 102 L -461 44 L -332 3 L -461 -38 L -439 -96 L -250 -23 L -250 29 Z M -190 73 L -277 -49 L -223 -85 L -150 17 L -77 -85 L -23 -49 L -110 73 Z " id="path75"/>
</defs>
<g>
<g data-source-text="0" fill="#20242e" transform="translate(174 41.292) rotate(0) scale(0.023999998)">
<use href="#path1" transform="translate(0 0)"/>
</g>
</g>
<g>
<g data-source-text="1" fill="#20242e" transform="translate(246 41.292) rotate(0) scale(0.023999998)">
<use href="#path2" transform="translate(0 0)"/>
</g>
</g>
<g>
<g data-source-text="2" fill="#20242e" transform="translate(318 41.292) rotate(0) scale(0.023999998)">
<use href="#path3" transform="translate(0 0)"/>
</g>
</g>
<g>
<g data-source-text="3" fill="#20242e" transform="translate(390 41.292) rotate(0) scale(0.023999998)">
<use href="#path4" transform="translate(0 0)"/>
</g>
</g>
<g>
<g data-source-text="4" fill="#20242e" transform="translate(462 41.292) rotate(0) scale(0.023999998)">
<use href="#path5" transform="translate(0 0)"/>
</g>
</g>
<g>
<g data-source-text="5" fill="#20242e" transform="translate(534 41.292) rotate(0) scale(0.023999998)">
<use href="#path6" transform="translate(0 0)"/>
</g>
</g>
<g>
<g data-source-text="6" fill="#20242e" transform="translate(606 41.292) rotate(0) scale(0.023999998)">
<use href="#path7" transform="translate(0 0)"/>
</g>
</g>
<g>
<g data-source-text="7" fill="#20242e" transform="translate(678 41.292) rotate(0) scale(0.023999998)">
<use href="#path8" transform="translate(0 0)"/>
</g>
</g>
<g>
<g data-source-text="8" fill="#20242e" transform="translate(750 41.292) rotate(0) scale(0.023999998)">
<use href="#path9" transform="translate(0 0)"/>
</g>
</g>
<g>
<g data-source-text="9" fill="#20242e" transform="translate(822 41.292) rotate(0) scale(0.023999998)">
<use href="#path10" transform="translate(0 0)"/>
</g>
</g>
<g>
<g data-source-text="A" fill="#20242e" transform="translate(894 41.292) rotate(0) scale(0.023999998)">
<use href="#path11" transform="translate(0 0)"/>
</g>
</g>
<g>
<g data-source-text="B" fill="#20242e" transform="translate(966 41.292) rotate(0) scale(0.023999998)">
<use href="#path12" transform="translate(0 0)"/>
</g>
</g>
<g>
<g data-source-text="C" fill="#20242e" transform="translate(1038 41.292) rotate(0) scale(0.023999998)">
<use href="#path13" transform="translate(0 0)"/>
</g>
</g>
<g>
<g data-source-text="D" fill="#20242e" transform="translate(1110 41.292) rotate(0) scale(0.023999998)">
<use href="#path14" transform="translate(0 0)"/>
</g>
</g>
<g>
<g data-source-text="E" fill="#20242e" transform="translate(1182 41.292) rotate(0) scale(0.023999998)">
<use href="#path15" transform="translate(0 0)"/>
</g>
</g>
<g>
<g data-source-text="F" fill="#20242e" transform="translate(1254 41.292) rotate(0) scale(0.023999998)">
<use href="#path16" transform="translate(0 0)"/>
</g>
</g>
<g>
<g data-source-text="U+1DC0" fill="#20242e" transform="translate(36 113.292) rotate(0) scale(0.023999998)">
<use href="#path17" transform="translate(0 0)"/>
<use href="#path18" transform="translate(500 0)"/>
<use href="#path2" transform="translate(1000 0)"/>
<use href="#path14" transform="translate(1500 0)"/>
<use href="#path13" transform="translate(2000 0)"/>
<use href="#path1" transform="translate(2500 0)"/>
</g>
</g>
<g>
<g data-source-text="" fill="#20242e40" transform="translate(168 118.584) rotate(0) scale(0.047999997)">
<use href="#path19" transform="translate(0 0)"/>
</g>
</g>
<g>
<g data-source-text="" fill="#20242e40" transform="translate(240 118.584) rotate(0) scale(0.047999997)">
<use href="#path19" transform="translate(0 0)"/>
</g>
</g>
<g>
<g data-source-text="" fill="#20242e40" transform="translate(312 118.584) rotate(0) scale(0.047999997)">
<use href="#path19" transform="translate(0 0)"/>
</g>
</g>
<g>
<g data-source-text="" fill="#048fbf" transform="translate(384 118.584) rotate(0) scale(0.047999997)">
<use href="#path20" transform="translate(0 0)"/>
</g>
</g>
<g>
<g data-source-text="" fill="#20242e" transform="translate(384 118.584) rotate(0) scale(0.047999997)">
<use href="#path21" transform="translate(500 0)"/>
</g>
</g>
<g>
<g data-source-text="" fill="#048fbf" transform="translate(456 118.584) rotate(0) scale(0.047999997)">
<use href="#path20" transform="translate(0 0)"/>
</g>
</g>
<g>
<g data-source-text="" fill="#20242e" transform="translate(456 118.584) rotate(0) scale(0.047999997)">
<use href="#path22" transform="translate(500 0)"/>
</g>
</g>
<g>
<g data-source-text="" fill="#048fbf" transform="translate(528 118.584) rotate(0) scale(0.047999997)">
<use href="#path20" transform="translate(0 0)"/>
</g>
</g>
<g>
<g data-source-text="" fill="#20242e" transform="translate(528 118.584) rotate(0) scale(0.047999997)">
<use href="#path23" transform="translate(500 0)"/>
</g>
</g>
<g>
<g data-source-text="" fill="#048fbf" transform="translate(600 118.584) rotate(0) scale(0.047999997)">
<use href="#path20" transform="translate(0 0)"/>
</g>
</g>
<g>
<g data-source-text="" fill="#20242e" transform="translate(600 118.584) rotate(0) scale(0.047999997)">
<use href="#path24" transform="translate(500 0)"/>
</g>
</g>
<g>
<g data-source-text="" fill="#048fbf" transform="translate(672 118.584) rotate(0) scale(0.047999997)">
<use href="#path20" transform="translate(0 0)"/>
</g>
</g>
<g>
<g data-source-text="" fill="#20242e" transform="translate(672 118.584) rotate(0) scale(0.047999997)">
<use href="#path25" transform="translate(500 0)"/>
</g>
</g>
<g>
<g data-source-text="" fill="#20242e40" transform="translate(744 118.584) rotate(0) scale(0.047999997)">
<use href="#path19" transform="translate(0 0)"/>
</g>
</g>
<g>
<g data-source-text="" fill="#20242e40" transform="translate(816 118.584) rotate(0) scale(0.047999997)">
<use href="#path19" transform="translate(0 0)"/>
</g>
</g>
<g>
<g data-source-text="" fill="#048fbf" transform="translate(888 118.584) rotate(0) scale(0.047999997)">
<use href="#path20" transform="translate(0 0)"/>
</g>
</g>
<g>
<g data-source-text="" fill="#20242e" transform="translate(888 118.584) rotate(0) scale(0.047999997)">
<use href="#path26" transform="translate(500 0)"/>
</g>
</g>
<g>
<g data-source-text="" fill="#048fbf" transform="translate(960 118.584) rotate(0) scale(0.047999997)">
<use href="#path20" transform="translate(0 0)"/>
</g>
</g>
<g>
<g data-source-text="" fill="#20242e" transform="translate(960 118.584) rotate(0) scale(0.047999997)">
<use href="#path27" transform="translate(500 0)"/>
</g>
</g>
<g>
<g data-source-text="" fill="#048fbf" transform="translate(1032 118.584) rotate(0) scale(0.047999997)">
<use href="#path20" transform="translate(0 0)"/>
</g>
</g>
<g>
<g data-source-text="" fill="#20242e" transform="translate(1032 118.584) rotate(0) scale(0.047999997)">
<use href="#path28" transform="translate(500 0)"/>
</g>
</g>
<g>
<g data-source-text="" fill="#048fbf" transform="translate(1104 118.584) rotate(0) scale(0.047999997)">
<use href="#path20" transform="translate(0 0)"/>
</g>
</g>
<g>
<g data-source-text="" fill="#20242e" transform="translate(1104 118.584) rotate(0) scale(0.047999997)">
<use href="#path29" transform="translate(500 0)"/>
</g>
</g>
<g>
<g data-source-text="" fill="#048fbf" transform="translate(1176 118.584) rotate(0) scale(0.047999997)">
<use href="#path20" transform="translate(0 0)"/>
</g>
</g>
<g>
<g data-source-text="" fill="#20242e" transform="translate(1176 118.584) rotate(0) scale(0.047999997)">
<use href="#path30" transform="translate(500 0)"/>
</g>
</g>
<g>
<g data-source-text="" fill="#048fbf" transform="translate(1248 118.584) rotate(0) scale(0.047999997)">
<use href="#path20" transform="translate(0 0)"/>
</g>
</g>
<g>
<g data-source-text="" fill="#20242e" transform="translate(1248 118.584) rotate(0) scale(0.047999997)">
<use href="#path31" transform="translate(500 0)"/>
</g>
</g>
<g>
<g data-source-text="U+1DD0" fill="#20242e" transform="translate(36 185.292) rotate(0) scale(0.023999998)">
<use href="#path17" transform="translate(0 0)"/>
<use href="#path18" transform="translate(500 0)"/>
<use href="#path2" transform="translate(1000 0)"/>
<use href="#path14" transform="translate(1500 0)"/>
<use href="#path14" transform="translate(2000 0)"/>
<use href="#path1" transform="translate(2500 0)"/>
</g>
</g>
<g>
<g data-source-text="" fill="#20242e40" transform="translate(168 190.584) rotate(0) scale(0.047999997)">
<use href="#path19" transform="translate(0 0)"/>
</g>
</g>
<g>
<g data-source-text="" fill="#20242e40" transform="translate(240 190.584) rotate(0) scale(0.047999997)">
<use href="#path19" transform="translate(0 0)"/>
</g>
</g>
<g>
<g data-source-text="" fill="#20242e40" transform="translate(312 190.584) rotate(0) scale(0.047999997)">
<use href="#path19" transform="translate(0 0)"/>
</g>
</g>
<g>
<g data-source-text="" fill="#048fbf" transform="translate(384 190.584) rotate(0) scale(0.047999997)">
<use href="#path20" transform="translate(0 0)"/>
</g>
</g>
<g>
<g data-source-text="" fill="#20242e" transform="translate(384 190.584) rotate(0) scale(0.047999997)">
<use href="#path32" transform="translate(500 0)"/>
</g>
</g>
<g>
<g data-source-text="" fill="#048fbf" transform="translate(456 190.584) rotate(0) scale(0.047999997)">
<use href="#path20" transform="translate(0 0)"/>
</g>
</g>
<g>
<g data-source-text="" fill="#20242e" transform="translate(456 190.584) rotate(0) scale(0.047999997)">
<use href="#path33" transform="translate(500 0)"/>
</g>
</g>
<g>
<g data-source-text="" fill="#048fbf" transform="translate(528 190.584) rotate(0) scale(0.047999997)">
<use href="#path20" transform="translate(0 0)"/>
</g>
</g>
<g>
<g data-source-text="" fill="#20242e" transform="translate(528 190.584) rotate(0) scale(0.047999997)">
<use href="#path34" transform="translate(500 0)"/>
</g>
</g>
<g>
<g data-source-text="" fill="#20242e40" transform="translate(600 190.584) rotate(0) scale(0.047999997)">
<use href="#path19" transform="translate(0 0)"/>
</g>
</g>
<g>
<g data-source-text="" fill="#048fbf" transform="translate(672 190.584) rotate(0) scale(0.047999997)">
<use href="#path20" transform="translate(0 0)"/>
</g>
</g>
<g>
<g data-source-text="" fill="#20242e" transform="translate(672 190.584) rotate(0) scale(0.047999997)">
<use href="#path35" transform="translate(500 0)"/>
</g>
</g>
<g>
<g data-source-text="" fill="#048fbf" transform="translate(744 190.584) rotate(0) scale(0.047999997)">
<use href="#path20" transform="translate(0 0)"/>
</g>
</g>
<g>
<g data-source-text="" fill="#20242e" transform="translate(744 190.584) rotate(0) scale(0.047999997)">
<use href="#path36" transform="translate(500 0)"/>
</g>
</g>
<g>
<g data-source-text="" fill="#048fbf" transform="translate(816 190.584) rotate(0) scale(0.047999997)">
<use href="#path20" transform="translate(0 0)"/>
</g>
</g>
<g>
<g data-source-text="" fill="#20242e" transform="translate(816 190.584) rotate(0) scale(0.047999997)">
<use href="#path37" transform="translate(500 0)"/>
</g>
</g>
<g>
<g data-source-text="" fill="#048fbf" transform="translate(888 190.584) rotate(0) scale(0.047999997)">
<use href="#path20" transform="translate(0 0)"/>
</g>
</g>
<g>
<g data-source-text="" fill="#20242e" transform="translate(888 190.584) rotate(0) scale(0.047999997)">
<use href="#path38" transform="translate(500 0)"/>
</g>
</g>
<g>
<g data-source-text="" fill="#048fbf" transform="translate(960 190.584) rotate(0) scale(0.047999997)">
<use href="#path20" transform="translate(0 0)"/>
</g>
</g>
<g>
<g data-source-text="" fill="#20242e" transform="translate(960 190.584) rotate(0) scale(0.047999997)">
<use href="#path39" transform="translate(500 0)"/>
</g>
</g>
<g>
<g data-source-text="" fill="#048fbf" transform="translate(1032 190.584) rotate(0) scale(0.047999997)">
<use href="#path20" transform="translate(0 0)"/>
</g>
</g>
<g>
<g data-source-text="" fill="#20242e" transform="translate(1032 190.584) rotate(0) scale(0.047999997)">
<use href="#path40" transform="translate(500 0)"/>
</g>
</g>
<g>
<g data-source-text="" fill="#048fbf" transform="translate(1104 190.584) rotate(0) scale(0.047999997)">
<use href="#path20" transform="translate(0 0)"/>
</g>
</g>
<g>
<g data-source-text="" fill="#20242e" transform="translate(1104 190.584) rotate(0) scale(0.047999997)">
<use href="#path41" transform="translate(500 0)"/>
</g>
</g>
<g>
<g data-source-text="" fill="#048fbf" transform="translate(1176 190.584) rotate(0) scale(0.047999997)">
<use href="#path20" transform="translate(0 0)"/>
</g>
</g>
<g>
<g data-source-text="" fill="#20242e" transform="translate(1176 190.584) rotate(0) scale(0.047999997)">
<use href="#path42" transform="translate(500 0)"/>
</g>
</g>
<g>
<g data-source-text="" fill="#048fbf" transform="translate(1248 190.584) rotate(0) scale(0.047999997)">
<use href="#path20" transform="translate(0 0)"/>
</g>
</g>
<g>
<g data-source-text="" fill="#20242e" transform="translate(1248 190.584) rotate(0) scale(0.047999997)">
<use href="#path43" transform="translate(500 0)"/>
</g>
</g>
<g>
<g data-source-text="U+1DE0" fill="#20242e" transform="translate(36 257.292) rotate(0) scale(0.023999998)">
<use href="#path17" transform="translate(0 0)"/>
<use href="#path18" transform="translate(500 0)"/>
<use href="#path2" transform="translate(1000 0)"/>
<use href="#path14" transform="translate(1500 0)"/>
<use href="#path15" transform="translate(2000 0)"/>
<use href="#path1" transform="translate(2500 0)"/>
</g>
</g>
<g>
<g data-source-text="" fill="#048fbf" transform="translate(168 262.584) rotate(0) scale(0.047999997)">
<use href="#path20" transform="translate(0 0)"/>
</g>
</g>
<g>
<g data-source-text="" fill="#20242e" transform="translate(168 262.584) rotate(0) scale(0.047999997)">
<use href="#path44" transform="translate(500 0)"/>
</g>
</g>
<g>
<g data-source-text="" fill="#048fbf" transform="translate(240 262.584) rotate(0) scale(0.047999997)">
<use href="#path20" transform="translate(0 0)"/>
</g>
</g>
<g>
<g data-source-text="" fill="#20242e" transform="translate(240 262.584) rotate(0) scale(0.047999997)">
<use href="#path45" transform="translate(500 0)"/>
</g>
</g>
<g>
<g data-source-text="" fill="#048fbf" transform="translate(312 262.584) rotate(0) scale(0.047999997)">
<use href="#path20" transform="translate(0 0)"/>
</g>
</g>
<g>
<g data-source-text="" fill="#20242e" transform="translate(312 262.584) rotate(0) scale(0.047999997)">
<use href="#path46" transform="translate(500 0)"/>
</g>
</g>
<g>
<g data-source-text="" fill="#048fbf" transform="translate(384 262.584) rotate(0) scale(0.047999997)">
<use href="#path20" transform="translate(0 0)"/>
</g>
</g>
<g>
<g data-source-text="" fill="#20242e" transform="translate(384 262.584) rotate(0) scale(0.047999997)">
<use href="#path47" transform="translate(500 0)"/>
</g>
</g>
<g>
<g data-source-text="" fill="#048fbf" transform="translate(456 262.584) rotate(0) scale(0.047999997)">
<use href="#path20" transform="translate(0 0)"/>
</g>
</g>
<g>
<g data-source-text="" fill="#20242e" transform="translate(456 262.584) rotate(0) scale(0.047999997)">
<use href="#path48" transform="translate(500 0)"/>
</g>
</g>
<g>
<g data-source-text="" fill="#048fbf" transform="translate(528 262.584) rotate(0) scale(0.047999997)">
<use href="#path20" transform="translate(0 0)"/>
</g>
</g>
<g>
<g data-source-text="" fill="#20242e" transform="translate(528 262.584) rotate(0) scale(0.047999997)">
<use href="#path49" transform="translate(500 0)"/>
</g>
</g>
<g>
<g data-source-text="" fill="#048fbf" transform="translate(600 262.584) rotate(0) scale(0.047999997)">
<use href="#path20" transform="translate(0 0)"/>
</g>
</g>
<g>
<g data-source-text="" fill="#20242e" transform="translate(600 262.584) rotate(0) scale(0.047999997)">
<use href="#path50" transform="translate(500 0)"/>
</g>
</g>
<g>
<g data-source-text="" fill="#048fbf" transform="translate(672 262.584) rotate(0) scale(0.047999997)">
<use href="#path20" transform="translate(0 0)"/>
</g>
</g>
<g>
<g data-source-text="" fill="#20242e" transform="translate(672 262.584) rotate(0) scale(0.047999997)">
<use href="#path51" transform="translate(500 0)"/>
</g>
</g>
<g>
<g data-source-text="" fill="#048fbf" transform="translate(744 262.584) rotate(0) scale(0.047999997)">
<use href="#path20" transform="translate(0 0)"/>
</g>
</g>
<g>
<g data-source-text="" fill="#20242e" transform="translate(744 262.584) rotate(0) scale(0.047999997)">
<use href="#path52" transform="translate(500 0)"/>
</g>
</g>
<g>
<g data-source-text="" fill="#048fbf" transform="translate(816 262.584) rotate(0) scale(0.047999997)">
<use href="#path20" transform="translate(0 0)"/>
</g>
</g>
<g>
<g data-source-text="" fill="#20242e" transform="translate(816 262.584) rotate(0) scale(0.047999997)">
<use href="#path53" transform="translate(500 0)"/>
</g>
</g>
<g>
<g data-source-text="" fill="#048fbf" transform="translate(888 262.584) rotate(0) scale(0.047999997)">
<use href="#path20" transform="translate(0 0)"/>
</g>
</g>
<g>
<g data-source-text="" fill="#20242e" transform="translate(888 262.584) rotate(0) scale(0.047999997)">
<use href="#path54" transform="translate(500 0)"/>
</g>
</g>
<g>
<g data-source-text="" fill="#048fbf" transform="translate(960 262.584) rotate(0) scale(0.047999997)">
<use href="#path20" transform="translate(0 0)"/>
</g>
</g>
<g>
<g data-source-text="" fill="#20242e" transform="translate(960 262.584) rotate(0) scale(0.047999997)">
<use href="#path55" transform="translate(500 0)"/>
</g>
</g>
<g>
<g data-source-text="" fill="#048fbf" transform="translate(1032 262.584) rotate(0) scale(0.047999997)">
<use href="#path20" transform="translate(0 0)"/>
</g>
</g>
<g>
<g data-source-text="" fill="#20242e" transform="translate(1032 262.584) rotate(0) scale(0.047999997)">
<use href="#path56" transform="translate(500 0)"/>
</g>
</g>
<g>
<g data-source-text="" fill="#048fbf" transform="translate(1104 262.584) rotate(0) scale(0.047999997)">
<use href="#path20" transform="translate(0 0)"/>
</g>
</g>
<g>
<g data-source-text="" fill="#20242e" transform="translate(1104 262.584) rotate(0) scale(0.047999997)">
<use href="#path57" transform="translate(500 0)"/>
</g>
</g>
<g>
<g data-source-text="" fill="#048fbf" transform="translate(1176 262.584) rotate(0) scale(0.047999997)">
<use href="#path20" transform="translate(0 0)"/>
</g>
</g>
<g>
<g data-source-text="" fill="#20242e" transform="translate(1176 262.584) rotate(0) scale(0.047999997)">
<use href="#path58" transform="translate(500 0)"/>
</g>
</g>
<g>
<g data-source-text="" fill="#048fbf" transform="translate(1248 262.584) rotate(0) scale(0.047999997)">
<use href="#path20" transform="translate(0 0)"/>
</g>
</g>
<g>
<g data-source-text="" fill="#20242e" transform="translate(1248 262.584) rotate(0) scale(0.047999997)">
<use href="#path59" transform="translate(500 0)"/>
</g>
</g>
<g>
<g data-source-text="U+1DF0" fill="#20242e" transform="translate(36 329.292) rotate(0) scale(0.023999998)">
<use href="#path17" transform="translate(0 0)"/>
<use href="#path18" transform="translate(500 0)"/>
<use href="#path2" transform="translate(1000 0)"/>
<use href="#path14" transform="translate(1500 0)"/>
<use href="#path16" transform="translate(2000 0)"/>
<use href="#path1" transform="translate(2500 0)"/>
</g>
</g>
<g>
<g data-source-text="" fill="#048fbf" transform="translate(168 334.584) rotate(0) scale(0.047999997)">
<use href="#path20" transform="translate(0 0)"/>
</g>
</g>
<g>
<g data-source-text="" fill="#20242e" transform="translate(168 334.584) rotate(0) scale(0.047999997)">
<use href="#path60" transform="translate(500 0)"/>
</g>
</g>
<g>
<g data-source-text="" fill="#048fbf" transform="translate(240 334.584) rotate(0) scale(0.047999997)">
<use href="#path20" transform="translate(0 0)"/>
</g>
</g>
<g>
<g data-source-text="" fill="#20242e" transform="translate(240 334.584) rotate(0) scale(0.047999997)">
<use href="#path61" transform="translate(500 0)"/>
</g>
</g>
<g>
<g data-source-text="" fill="#048fbf" transform="translate(312 334.584) rotate(0) scale(0.047999997)">
<use href="#path20" transform="translate(0 0)"/>
</g>
</g>
<g>
<g data-source-text="" fill="#20242e" transform="translate(312 334.584) rotate(0) scale(0.047999997)">
<use href="#path62" transform="translate(500 0)"/>
</g>
</g>
<g>
<g data-source-text="" fill="#048fbf" transform="translate(384 334.584) rotate(0) scale(0.047999997)">
<use href="#path20" transform="translate(0 0)"/>
</g>
</g>
<g>
<g data-source-text="" fill="#20242e" transform="translate(384 334.584) rotate(0) scale(0.047999997)">
<use href="#path63" transform="translate(500 0)"/>
</g>
</g>
<g>
<g data-source-text="" fill="#048fbf" transform="translate(456 334.584) rotate(0) scale(0.047999997)">
<use href="#path20" transform="translate(0 0)"/>
</g>
</g>
<g>
<g data-source-text="" fill="#20242e" transform="translate(456 334.584) rotate(0) scale(0.047999997)">
<use href="#path64" transform="translate(500 0)"/>
</g>
</g>
<g>
<g data-source-text="" fill="#048fbf" transform="translate(528 334.584) rotate(0) scale(0.047999997)">
<use href="#path20" transform="translate(0 0)"/>
</g>
</g>
<g>
<g data-source-text="" fill="#20242e" transform="translate(528 334.584) rotate(0) scale(0.047999997)">
<use href="#path65" transform="translate(500 0)"/>
</g>
</g>
<g>
<g data-source-text="" fill="#048fbf" transform="translate(600 334.584) rotate(0) scale(0.047999997)">
<use href="#path20" transform="translate(0 0)"/>
</g>
</g>
<g>
<g data-source-text="" fill="#20242e" transform="translate(600 334.584) rotate(0) scale(0.047999997)">
<use href="#path66" transform="translate(500 0)"/>
</g>
</g>
<g>
<g data-source-text="" fill="#048fbf" transform="translate(672 334.584) rotate(0) scale(0.047999997)">
<use href="#path20" transform="translate(0 0)"/>
</g>
</g>
<g>
<g data-source-text="" fill="#20242e" transform="translate(672 334.584) rotate(0) scale(0.047999997)">
<use href="#path67" transform="translate(500 0)"/>
</g>
</g>
<g>
<g data-source-text="" fill="#048fbf" transform="translate(744 334.584) rotate(0) scale(0.047999997)">
<use href="#path20" transform="translate(0 0)"/>
</g>
</g>
<g>
<g data-source-text="" fill="#20242e" transform="translate(744 334.584) rotate(0) scale(0.047999997)">
<use href="#path68" transform="translate(500 0)"/>
</g>
</g>
<g>
<g data-source-text="" fill="#048fbf" transform="translate(816 334.584) rotate(0) scale(0.047999997)">
<use href="#path20" transform="translate(0 0)"/>
</g>
</g>
<g>
<g data-source-text="" fill="#20242e" transform="translate(816 334.584) rotate(0) scale(0.047999997)">
<use href="#path69" transform="translate(500 0)"/>
</g>
</g>
<g>
<g data-source-text="" fill="#048fbf" transform="translate(888 334.584) rotate(0) scale(0.047999997)">
<use href="#path20" transform="translate(0 0)"/>
</g>
</g>
<g>
<g data-source-text="" fill="#20242e" transform="translate(888 334.584) rotate(0) scale(0.047999997)">
<use href="#path70" transform="translate(500 0)"/>
</g>
</g>
<g>
<g data-source-text="" fill="#048fbf" transform="translate(960 334.584) rotate(0) scale(0.047999997)">
<use href="#path20" transform="translate(0 0)"/>
</g>
</g>
<g>
<g data-source-text="" fill="#20242e" transform="translate(960 334.584) rotate(0) scale(0.047999997)">
<use href="#path71" transform="translate(500 0)"/>
</g>
</g>
<g>
<g data-source-text="" fill="#048fbf" transform="translate(1032 334.584) rotate(0) scale(0.047999997)">
<use href="#path20" transform="translate(0 0)"/>
</g>
</g>
<g>
<g data-source-text="" fill="#20242e" transform="translate(1032 334.584) rotate(0) scale(0.047999997)">
<use href="#path72" transform="translate(500 0)"/>
</g>
</g>
<g>
<g data-source-text="" fill="#048fbf" transform="translate(1104 334.584) rotate(0) scale(0.047999997)">
<use href="#path20" transform="translate(0 0)"/>
</g>
</g>
<g>
<g data-source-text="" fill="#20242e" transform="translate(1104 334.584) rotate(0) scale(0.047999997)">
<use href="#path73" transform="translate(500 0)"/>
</g>
</g>
<g>
<g data-source-text="" fill="#048fbf" transform="translate(1176 334.584) rotate(0) scale(0.047999997)">
<use href="#path20" transform="translate(0 0)"/>
</g>
</g>
<g>
<g data-source-text="" fill="#20242e" transform="translate(1176 334.584) rotate(0) scale(0.047999997)">
<use href="#path74" transform="translate(500 0)"/>
</g>
</g>
<g>
<g data-source-text="" fill="#048fbf" transform="translate(1248 334.584) rotate(0) scale(0.047999997)">
<use href="#path20" transform="translate(0 0)"/>
</g>
</g>
<g>
<g data-source-text="" fill="#20242e" transform="translate(1248 334.584) rotate(0) scale(0.047999997)">
<use href="#path75" transform="translate(500 0)"/>
</g>
</g>
</svg>