<?xml version="1.0" encoding="UTF-8" standalone="no"?>
<svg height="576" viewBox="0 0 1296 576" width="1296" xmlns="http://www.w3.org/2000/svg">
<defs>
<path d="M 250 8 Q 223 8 196 3 Q 169 -2 145 -15.5 Q 121 -29 102.5 -49 Q 84 -69 72.5 -94 Q 61 -119 56.5 -146 Q 52 -173 52 -200 L 52 -535 Q 52 -562 56.5 -589 Q 61 -616 72.5 -641 Q 84 -666 102.5 -686 Q 121 -706 145 -719.5 Q 169 -733 196 -738 Q 223 -743 250 -743 Q 277 -743 304 -738 Q 331 -733 355 -720 Q 379 -707 397.5 -686.5 Q 416 -666 427.5 -641 Q 439 -616 443.5 -589 Q 448 -562 448 -535 L 448 -200 Q 448 -173 443.5 -146 Q 439 -119 427.5 -94 Q 416 -69 397.5 -49 Q 379 -29 355 -15.5 Q 331 -2 304 3 Q 277 8 250 8 Z M 153 -337 L 347 -491 L 347 -535 Q 347 -557 342.5 -578.5 Q 338 -600 325.5 -618 Q 313 -636 292.5 -645.5 Q 272 -655 250 -655 Q 228 -655 207.5 -645.5 Q 187 -636 174.5 -618 Q 162 -600 157.5 -578.5 Q 153 -557 153 -535 Z M 250 -80 Q 272 -80 292.5 -89.5 Q 313 -99 325.5 -117 Q 338 -135 342.5 -156.5 Q 347 -178 347 -200 L 347 -398 L 153 -244 L 153 -200 Q 153 -178 157.5 -156.5 Q 162 -135 174.5 -117 Q 187 -99 207.5 -89.5 Q 228 -80 250 -80 Z " id="path1"/>
<path d="M 230 0 L 230 -637 L 107 -542 L 55 -600 L 230 -735 L 330 -735 L 330 0 Z " id="path2"/>
<path d="M 440 0 L 60 0 L 60 -1 Q 60 -27 61 -53.5 Q 62 -80 66 -106.5 Q 70 -133 77.5 -158.5 Q 85 -184 96.5 -207.5 Q 108 -231 123 -253 Q 138 -275 156 -294.5 Q 174 -314 194 -331 Q 214 -348 235.5 -364 Q 257 -380 277.5 -397 Q 298 -414 313 -435.5 Q 328 -457 335.5 -483 Q 343 -509 343 -535 Q 343 -557 339 -578 Q 335 -599 323.5 -617 Q 312 -635 292 -645 Q 272 -655 251 -655 Q 231 -655 213 -648 Q 195 -641 182.5 -626.5 Q 170 -612 164.5 -593 Q 159 -574 159 -555 L 159 -554 L 58 -554 L 58 -556 Q 58 -581 64 -606 Q 70 -631 82 -653.5 Q 94 -676 112 -693.5 Q 130 -711 152.5 -722.5 Q 175 -734 200 -738.5 Q 225 -743 251 -743 Q 278 -743 304.5 -737.5 Q 331 -732 354 -719 Q 377 -706 395 -685.5 Q 413 -665 424 -640.5 Q 435 -616 439.5 -589 Q 444 -562 444 -535 Q 444 -501 435 -468 Q 426 -435 407.5 -406 Q 389 -377 364 -353.5 Q 339 -330 312.5 -308.5 Q 286 -287 261 -264 Q 236 -241 216.5 -213 Q 197 -185 184 -153.5 Q 171 -122 166 -88 L 440 -88 Z " id="path3"/>
<path d="M 252 8 Q 226 8 200 3.5 Q 174 -1 150.5 -12 Q 127 -23 107.5 -41 Q 88 -59 75.5 -82 Q 63 -105 56.5 -130.5 Q 50 -156 50 -183 L 151 -183 Q 151 -162 157.5 -142.5 Q 164 -123 178 -108 Q 192 -93 212 -86.5 Q 232 -80 252 -80 Q 275 -80 296 -88.5 Q 317 -97 330.5 -114.5 Q 344 -132 349.5 -154 Q 355 -176 355 -198 Q 355 -217 351 -235.5 Q 347 -254 338.5 -271 Q 330 -288 316.5 -301 Q 303 -314 286 -322 Q 269 -330 250 -332 Q 231 -334 212 -334 L 212 -422 Q 229 -422 246 -424 Q 263 -426 278.5 -433 Q 294 -440 306 -452.5 Q 318 -465 325.5 -480.5 Q 333 -496 336 -513 Q 339 -530 339 -546 Q 339 -566 334.5 -585.5 Q 330 -605 319.5 -621 Q 309 -637 290.5 -646 Q 272 -655 253 -655 Q 234 -655 216.5 -647.5 Q 199 -640 188 -625.5 Q 177 -611 172 -593 Q 167 -575 167 -556 L 167 -555 L 66 -555 L 66 -558 Q 66 -582 71.5 -606.5 Q 77 -631 88.5 -653 Q 100 -675 117.5 -693 Q 135 -711 157 -722.5 Q 179 -734 203.5 -738.5 Q 228 -743 253 -743 Q 278 -743 303 -738 Q 328 -733 350.5 -721 Q 373 -709 390 -690 Q 407 -671 418 -648 Q 429 -625 434.5 -600 Q 440 -575 440 -550 Q 440 -524 434 -498.5 Q 428 -473 415.5 -450.5 Q 403 -428 384.5 -409.5 Q 366 -391 343 -379 Q 369 -368 391 -348.5 Q 413 -329 427.5 -304.5 Q 442 -280 449 -252 Q 456 -224 456 -195 Q 456 -168 450 -141.5 Q 444 -115 432 -91 Q 420 -67 400.5 -47 Q 381 -27 357 -14.5 Q 333 -2 306.5 3 Q 280 8 252 8 Z " id="path4"/>
<path d="M 282 0 L 282 -188 L 52 -188 L 52 -275 L 276 -735 L 385 -735 L 161 -275 L 282 -275 L 282 -435 L 382 -435 L 382 -275 L 440 -275 L 440 -188 L 382 -188 L 382 0 Z " id="path5"/>
<path d="M 252 8 Q 227 8 202.5 3.5 Q 178 -1 156 -13 Q 134 -25 116.5 -42.5 Q 99 -60 87 -82 Q 75 -104 68.5 -128 Q 62 -152 60 -176 L 160 -176 Q 163 -158 169 -140.5 Q 175 -123 187 -109 Q 199 -95 216 -87.5 Q 233 -80 252 -80 Q 269 -80 285 -87 Q 301 -94 312 -106.5 Q 323 -119 330 -135 Q 337 -151 340.5 -167.5 Q 344 -184 345.5 -201 Q 347 -218 347 -235 Q 347 -252 345.5 -269 Q 344 -286 340.5 -302.5 Q 337 -319 330.5 -334.5 Q 324 -350 313.5 -363 Q 303 -376 287 -383.5 Q 271 -391 254 -391 Q 237 -391 220 -384 Q 203 -377 191.5 -363 Q 180 -349 174.5 -331.5 Q 169 -314 168 -296 L 68 -296 L 68 -735 L 421 -735 L 421 -647 L 168 -647 L 168 -462 Q 188 -471 210 -474.5 Q 232 -478 254 -478 Q 284 -478 312.5 -470.5 Q 341 -463 364.5 -445.5 Q 388 -428 404.5 -403.5 Q 421 -379 430.5 -351 Q 440 -323 444 -294 Q 448 -265 448 -235 Q 448 -206 444 -176.5 Q 440 -147 430.5 -119 Q 421 -91 404 -66.5 Q 387 -42 363 -24.5 Q 339 -7 310 0.5 Q 281 8 252 8 Z " id="path6"/>
<path d="M 250 8 Q 219 8 189 -0.5 Q 159 -9 135 -28 Q 111 -47 94.5 -73.5 Q 78 -100 68.5 -129.5 Q 59 -159 55.5 -189.5 Q 52 -220 52 -250 Q 52 -291 60 -331 Q 68 -371 82 -409 Q 96 -447 114 -483.5 Q 132 -520 150 -556 L 238 -735 L 347 -735 L 240 -517 Q 232 -500 223 -483.5 Q 214 -467 205 -451 Q 217 -454 229 -455 Q 241 -456 253 -456 Q 281 -456 309.5 -449 Q 338 -442 361.5 -426 Q 385 -410 402.5 -386.5 Q 420 -363 430 -336.5 Q 440 -310 444 -281.5 Q 448 -253 448 -224 Q 448 -195 444 -166.5 Q 440 -138 429.5 -111 Q 419 -84 401.5 -60.5 Q 384 -37 360 -21 Q 336 -5 307.5 1.5 Q 279 8 250 8 Z M 250 -80 Q 266 -80 282 -85.5 Q 298 -91 309.5 -102.5 Q 321 -114 328.5 -129 Q 336 -144 340 -159.5 Q 344 -175 345.5 -191.5 Q 347 -208 347 -224 Q 347 -240 345.5 -256.5 Q 344 -273 340 -288.5 Q 336 -304 328.5 -319 Q 321 -334 309.5 -345.5 Q 298 -357 282.5 -362.5 Q 267 -368 251 -368 Q 234 -368 218.5 -362.5 Q 203 -357 191.5 -345.5 Q 180 -334 172 -319.5 Q 164 -305 160 -289 Q 156 -273 154.5 -256.5 Q 153 -240 153 -224 Q 153 -208 154.5 -191.5 Q 156 -175 160 -159.5 Q 164 -144 171.5 -129 Q 179 -114 190.5 -102.5 Q 202 -91 218 -85.5 Q 234 -80 250 -80 Z " id="path7"/>
<path d="M 242 0 L 138 0 L 336 -647 L 60 -647 L 60 -735 L 440 -735 L 440 -647 Z " id="path8"/>
<path d="M 250 8 Q 225 8 200 4 Q 175 -0 152 -10 Q 129 -20 109.5 -37 Q 90 -54 77.5 -75.5 Q 65 -97 58.5 -121.5 Q 52 -146 52 -172 Q 52 -203 62 -232.5 Q 72 -262 88.5 -288 Q 105 -314 127 -336 Q 149 -358 174 -378 Q 152 -396 132.5 -417 Q 113 -438 98.5 -462.5 Q 84 -487 76 -514.5 Q 68 -542 68 -570 Q 68 -594 73.5 -617 Q 79 -640 90.5 -661 Q 102 -682 119.5 -698.5 Q 137 -715 158 -725 Q 179 -735 202.5 -739 Q 226 -743 250 -743 Q 274 -743 297.5 -739 Q 321 -735 342 -725 Q 363 -715 380.5 -698.5 Q 398 -682 409.5 -661 Q 421 -640 426.5 -617 Q 432 -594 432 -570 Q 432 -542 424 -514.5 Q 416 -487 401.5 -462.5 Q 387 -438 367.5 -417 Q 348 -396 326 -378 Q 351 -358 373 -336 Q 395 -314 411.5 -288 Q 428 -262 438 -232.5 Q 448 -203 448 -172 Q 448 -146 441.5 -121.5 Q 435 -97 422.5 -75.5 Q 410 -54 390.5 -37 Q 371 -20 348 -10 Q 325 -0 300 4 Q 275 8 250 8 Z M 250 -435 Q 266 -447 280.5 -461.5 Q 295 -476 306.5 -493 Q 318 -510 325 -529.5 Q 332 -549 332 -569 Q 332 -586 326.5 -602.5 Q 321 -619 310 -631.5 Q 299 -644 283 -649.5 Q 267 -655 250 -655 Q 233 -655 217 -649.5 Q 201 -644 190 -631.5 Q 179 -619 173.5 -602.5 Q 168 -586 168 -569 Q 168 -549 175 -529.5 Q 182 -510 193.5 -493 Q 205 -476 219.5 -461.5 Q 234 -447 250 -435 Z M 250 -80 Q 269 -80 287.5 -85.5 Q 306 -91 320 -104 Q 334 -117 340.5 -135.5 Q 347 -154 347 -173 Q 347 -196 338.5 -217.5 Q 330 -239 316.5 -257.5 Q 303 -276 285.5 -291 Q 268 -306 250 -320 Q 232 -306 214.5 -291 Q 197 -276 183.5 -257.5 Q 170 -239 161.5 -217.5 Q 153 -196 153 -173 Q 153 -154 159.5 -135.5 Q 166 -117 180 -104 Q 194 -91 212.5 -85.5 Q 231 -80 250 -80 Z " id="path9"/>
<path d="M 262 0 L 153 0 L 260 -218 Q 268 -235 277 -251.5 Q 286 -268 295 -284 Q 283 -281 271 -280 Q 259 -279 247 -279 Q 219 -279 190.5 -286 Q 162 -293 138.5 -309 Q 115 -325 97.5 -348.5 Q 80 -372 70 -398.5 Q 60 -425 56 -453.5 Q 52 -482 52 -511 Q 52 -540 56 -568.5 Q 60 -597 70.5 -624 Q 81 -651 98.5 -674.5 Q 116 -698 140 -714 Q 164 -730 192.5 -736.5 Q 221 -743 250 -743 Q 281 -743 311 -734.5 Q 341 -726 365 -707 Q 389 -688 405.5 -661.5 Q 422 -635 431.5 -605.5 Q 441 -576 444.5 -545.5 Q 448 -515 448 -485 Q 448 -444 440 -404 Q 432 -364 418 -326 Q 404 -288 386 -251.5 Q 368 -215 350 -179 Z M 249 -367 Q 266 -367 281.5 -372.5 Q 297 -378 308.5 -389.5 Q 320 -401 328 -415.5 Q 336 -430 340 -446 Q 344 -462 345.5 -478.5 Q 347 -495 347 -511 Q 347 -527 345.5 -543.5 Q 344 -560 340 -575.5 Q 336 -591 328.5 -606 Q 321 -621 309.5 -632.5 Q 298 -644 282 -649.5 Q 266 -655 250 -655 Q 234 -655 218 -649.5 Q 202 -644 190.5 -632.5 Q 179 -621 171.5 -606 Q 164 -591 160 -575.5 Q 156 -560 154.5 -543.5 Q 153 -527 153 -511 Q 153 -495 154.5 -478.5 Q 156 -462 160 -446.5 Q 164 -431 171.5 -416 Q 179 -401 190.5 -389.5 Q 202 -378 217.5 -372.5 Q 233 -367 249 -367 Z " id="path10"/>
<path d="M 39 0 L 192 -735 L 308 -735 L 461 0 L 358 0 L 326 -172 L 174 -172 L 142 0 Z M 309 -260 L 265 -490 Q 262 -511 258 -531.5 Q 254 -552 250 -572 Q 246 -552 242 -531.5 Q 238 -511 235 -490 L 191 -260 Z " id="path11"/>
<path d="M 60 0 L 60 -735 L 234 -735 Q 261 -735 287 -730.5 Q 313 -726 336 -714 Q 359 -702 377.5 -682.5 Q 396 -663 408 -639.5 Q 420 -616 424.5 -590 Q 429 -564 429 -538 Q 429 -515 425 -492 Q 421 -469 410.5 -448.5 Q 400 -428 383.5 -411 Q 367 -394 347 -383 Q 372 -373 393.5 -355.5 Q 415 -338 429.5 -314.5 Q 444 -291 450 -264 Q 456 -237 456 -210 Q 456 -181 450 -152.5 Q 444 -124 430 -98.5 Q 416 -73 394.5 -53.5 Q 373 -34 347 -21.5 Q 321 -9 292 -4.5 Q 263 -0 234 0 Z M 161 -424 L 234 -424 Q 255 -424 274.5 -432.5 Q 294 -441 306.5 -457.5 Q 319 -474 324 -494.5 Q 329 -515 329 -536 Q 329 -557 324 -577.5 Q 319 -598 306.5 -614.5 Q 294 -631 274.5 -639 Q 255 -647 234 -647 L 161 -647 Z M 161 -88 L 234 -88 Q 251 -88 267 -91 Q 283 -94 297.5 -101.5 Q 312 -109 323.5 -121 Q 335 -133 342.5 -148 Q 350 -163 352.5 -179 Q 355 -195 355 -212 Q 355 -228 352.5 -244.5 Q 350 -261 343 -276 Q 336 -291 324.5 -303 Q 313 -315 298 -322.5 Q 283 -330 267 -333 Q 251 -336 234 -336 L 161 -336 Z " id="path12"/>
<path d="M 247 8 Q 220 8 193.5 2.5 Q 167 -3 143.5 -16 Q 120 -29 101.5 -49.5 Q 83 -70 72 -94.5 Q 61 -119 56.5 -146 Q 52 -173 52 -200 L 52 -535 Q 52 -562 56.5 -589 Q 61 -616 72 -640.5 Q 83 -665 101.5 -685.5 Q 120 -706 143.5 -719 Q 167 -732 193.5 -737.5 Q 220 -743 247 -743 Q 273 -743 298 -738.5 Q 323 -734 346 -723 Q 369 -712 387.5 -694 Q 406 -676 418 -653.5 Q 430 -631 436 -606 Q 442 -581 442 -556 L 442 -554 L 341 -554 L 341 -555 Q 341 -575 335.5 -593.5 Q 330 -612 317 -627 Q 304 -642 285.5 -648.5 Q 267 -655 247 -655 Q 226 -655 206 -645.5 Q 186 -636 173.5 -618 Q 161 -600 157 -578.5 Q 153 -557 153 -535 L 153 -200 Q 153 -178 157 -156.5 Q 161 -135 173.5 -117 Q 186 -99 206 -89.5 Q 226 -80 247 -80 Q 267 -80 285.5 -86.5 Q 304 -93 317 -108 Q 330 -123 335.5 -141.5 Q 341 -160 341 -180 L 341 -181 L 442 -181 L 442 -179 Q 442 -154 436 -129 Q 430 -104 418 -81.5 Q 406 -59 387.5 -41 Q 369 -23 346 -12 Q 323 -1 298 3.5 Q 273 8 247 8 Z " id="path13"/>
<path d="M 60 0 L 60 -735 L 219 -735 Q 249 -735 279 -730 Q 309 -725 336.5 -712 Q 364 -699 386 -678.5 Q 408 -658 422 -631.5 Q 436 -605 442 -575 Q 448 -545 448 -515 L 448 -220 Q 448 -190 442 -160 Q 436 -130 422 -103.5 Q 408 -77 386 -56.5 Q 364 -36 336.5 -23 Q 309 -10 279 -5 Q 249 -0 219 0 Z M 161 -88 L 219 -88 Q 237 -88 254 -91 Q 271 -94 286.5 -102.5 Q 302 -111 314 -124 Q 326 -137 333.5 -152.5 Q 341 -168 344 -185.5 Q 347 -203 347 -220 L 347 -515 Q 347 -532 344 -549.5 Q 341 -567 333.5 -582.5 Q 326 -598 314 -611 Q 302 -624 286.5 -632.5 Q 271 -641 254 -644 Q 237 -647 219 -647 L 161 -647 Z " id="path14"/>
<path d="M 68 0 L 68 -735 L 440 -735 L 440 -647 L 169 -647 L 169 -426 L 383 -426 L 383 -338 L 169 -338 L 169 -88 L 440 -88 L 440 0 Z " id="path15"/>
<path d="M 91 0 L 91 -735 L 440 -735 L 440 -647 L 191 -647 L 191 -426 L 383 -426 L 383 -338 L 191 -338 L 191 0 Z " id="path16"/>
<path d="M 250 8 Q 223 8 196.5 2.5 Q 170 -3 147 -16.5 Q 124 -30 106.5 -50.5 Q 89 -71 78.5 -95.5 Q 68 -120 64 -146.5 Q 60 -173 60 -200 L 60 -735 L 161 -735 L 161 -200 Q 161 -186 162.5 -172 Q 164 -158 168 -144.5 Q 172 -131 179.5 -118.5 Q 187 -106 197.5 -97 Q 208 -88 222 -84 Q 236 -80 250 -80 Q 264 -80 278 -84 Q 292 -88 302.5 -97 Q 313 -106 320.5 -118.5 Q 328 -131 332 -144.5 Q 336 -158 337.5 -172 Q 339 -186 339 -200 L 339 -735 L 440 -735 L 440 -200 Q 440 -173 436 -146.5 Q 432 -120 421.5 -95.5 Q 411 -71 393.5 -50.5 Q 376 -30 353 -16.5 Q 330 -3 303.5 2.5 Q 277 8 250 8 Z " id="path17"/>
<path d="M 300 -143 L 200 -143 L 200 -296 L 60 -296 L 60 -384 L 200 -384 L 200 -537 L 300 -537 L 300 -384 L 440 -384 L 440 -296 L 300 -296 Z " id="path18"/>
<path d="M 64 0 L 64 -735 L 436 -735 L 436 0 Z M 94 -321 L 401 -705 L 307 -705 L 94 -438 Z M 94 -477 L 276 -705 L 182 -705 L 94 -595 Z M 94 -634 L 151 -705 L 94 -705 Z M 94 -165 L 406 -554 L 406 -671 L 94 -282 Z M 94 -30 L 112 -30 L 406 -398 L 406 -515 L 94 -126 Z M 143 -30 L 237 -30 L 406 -242 L 406 -359 Z M 362 -30 L 406 -85 L 406 -203 L 268 -30 Z M 393 -30 L 406 -30 L 406 -46 Z " id="path19"/>
<path d="M 436 -305 L 64 -305 L 64 -375 L 436 -375 Z " id="path20"/>
<path d="M 468 -305 L 32 -305 L 32 -375 L 468 -375 Z " id="path21"/>
<path d="M 1000 -305 L 0 -305 L 0 -375 L 1000 -375 Z " id="path22"/>
<path d="M 299 143 L 299 -823 L 376 -823 L 376 143 Z M 124 143 L 124 -823 L 201 -823 L 201 143 Z " id="path23"/>
<path d="M 436 70 L 64 70 L 64 0 L 436 0 Z M 436 200 L 64 200 L 64 130 L 436 130 Z " id="path24"/>
<path d="M 250 -434 Q 234 -434 218.5 -439 Q 203 -444 192 -455.5 Q 181 -467 177 -483 Q 173 -499 173 -514 Q 173 -553 181.5 -590.5 Q 190 -628 205 -663 Q 220 -698 240.5 -730.5 Q 261 -763 285 -793 L 343 -748 Q 311 -713 285 -673 Q 259 -633 246 -588 L 251 -588 Q 266 -588 281 -583 Q 296 -578 307 -567.5 Q 318 -557 322.5 -541.5 Q 327 -526 327 -511 Q 327 -495 322.5 -480 Q 318 -465 307 -454 Q 296 -443 281 -438.5 Q 266 -434 250 -434 Z " id="path25"/>
<path d="M 215 -421 L 157 -466 Q 189 -501 215 -541 Q 241 -581 254 -626 L 249 -626 Q 234 -626 219 -630.5 Q 204 -635 193 -646 Q 182 -657 177.5 -672 Q 173 -687 173 -703 Q 173 -718 177.5 -733.5 Q 182 -749 193 -760 Q 204 -771 219 -775.5 Q 234 -780 250 -780 Q 266 -780 281.5 -775 Q 297 -770 308 -758.5 Q 319 -747 323 -731 Q 327 -715 327 -699 Q 327 -661 318.5 -623.5 Q 310 -586 295 -551 Q 280 -516 259.5 -483.5 Q 239 -451 215 -421 Z " id="path26"/>
<path d="M 215 213 L 157 168 Q 189 133 215 93 Q 241 53 254 8 L 249 8 Q 234 8 219 3 Q 204 -2 193 -13 Q 182 -24 177.5 -39 Q 173 -54 173 -69 Q 173 -85 177.5 -100 Q 182 -115 193 -126 Q 204 -137 219 -141.5 Q 234 -146 250 -146 Q 266 -146 281.5 -141 Q 297 -136 308 -124.5 Q 319 -113 323 -97.5 Q 327 -82 327 -66 Q 327 -27 318.5 10 Q 310 47 295 82.5 Q 280 118 259.5 150.5 Q 239 183 215 213 Z " id="path27"/>
<path d="M 285 -421 Q 261 -451 240.5 -483.5 Q 220 -516 205 -551 Q 190 -586 181.5 -623.5 Q 173 -661 173 -699 Q 173 -715 177 -731 Q 181 -747 192 -758.5 Q 203 -770 218.5 -775 Q 234 -780 250 -780 Q 266 -780 281 -775.5 Q 296 -771 307 -760 Q 318 -749 322.5 -733.5 Q 327 -718 327 -703 Q 327 -687 322.5 -672 Q 318 -657 307 -646 Q 296 -635 281 -630.5 Q 266 -626 251 -626 L 246 -626 Q 259 -581 285 -541 Q 311 -501 343 -466 Z " id="path28"/>
<path d="M 138 -434 Q 122 -434 106.5 -439 Q 91 -444 80 -455.5 Q 69 -467 65 -483 Q 61 -499 61 -514 Q 61 -553 69.5 -590.5 Q 78 -628 93 -663 Q 108 -698 128.5 -730.5 Q 149 -763 173 -793 L 231 -748 Q 199 -713 173 -673 Q 147 -633 134 -588 L 139 -588 Q 154 -588 169 -583 Q 184 -578 195 -567.5 Q 206 -557 210.5 -541.5 Q 215 -526 215 -511 Q 215 -495 210.5 -480 Q 206 -465 195 -454 Q 184 -443 169 -438.5 Q 154 -434 138 -434 Z M 363 -434 Q 347 -434 331.5 -439 Q 316 -444 305 -455.5 Q 294 -467 290 -483 Q 286 -499 286 -514 Q 286 -553 294.5 -590.5 Q 303 -628 318 -663 Q 333 -698 353.5 -730.5 Q 374 -763 398 -793 L 456 -748 Q 424 -713 398 -673 Q 372 -633 359 -588 L 364 -588 Q 379 -588 394 -583 Q 409 -578 420 -567.5 Q 431 -557 435.5 -541.5 Q 440 -526 440 -511 Q 440 -495 435.5 -480 Q 431 -465 420 -454 Q 409 -443 394 -438.5 Q 379 -434 363 -434 Z " id="path29"/>
<path d="M 103 -421 L 45 -466 Q 77 -501 103 -541 Q 129 -581 142 -626 L 137 -626 Q 122 -626 107 -630.5 Q 92 -635 81 -646 Q 70 -657 65.5 -672 Q 61 -687 61 -703 Q 61 -718 65.5 -733.5 Q 70 -749 81 -760 Q 92 -771 107 -775.5 Q 122 -780 138 -780 Q 154 -780 169.5 -775 Q 185 -770 196 -758.5 Q 207 -747 211 -731 Q 215 -715 215 -699 Q 215 -661 206.5 -623.5 Q 198 -586 183 -551 Q 168 -516 147.5 -483.5 Q 127 -451 103 -421 Z M 328 -421 L 270 -466 Q 302 -501 328 -541 Q 354 -581 367 -626 L 362 -626 Q 347 -626 332 -630.5 Q 317 -635 306 -646 Q 295 -657 290.5 -672 Q 286 -687 286 -703 Q 286 -718 290.5 -733.5 Q 295 -749 306 -760 Q 317 -771 332 -775.5 Q 347 -780 363 -780 Q 379 -780 394.5 -775 Q 410 -770 421 -758.5 Q 432 -747 436 -731 Q 440 -715 440 -699 Q 440 -661 431.5 -623.5 Q 423 -586 408 -551 Q 393 -516 372.5 -483.5 Q 352 -451 328 -421 Z " id="path30"/>
<path d="M 103 213 L 45 168 Q 77 133 103 93 Q 129 53 142 8 L 137 8 Q 122 8 107 3 Q 92 -2 81 -13 Q 70 -24 65.5 -39 Q 61 -54 61 -69 Q 61 -85 65.5 -100 Q 70 -115 81 -126 Q 92 -137 107 -141.5 Q 122 -146 138 -146 Q 154 -146 169.5 -141 Q 185 -136 196 -124.5 Q 207 -113 211 -97.5 Q 215 -82 215 -66 Q 215 -27 206.5 10 Q 198 47 183 82.5 Q 168 118 147.5 150.5 Q 127 183 103 213 Z M 328 213 L 270 168 Q 302 133 328 93 Q 354 53 367 8 L 362 8 Q 347 8 332 3 Q 317 -2 306 -13 Q 295 -24 290.5 -39 Q 286 -54 286 -69 Q 286 -85 290.5 -100 Q 295 -115 306 -126 Q 317 -137 332 -141.5 Q 347 -146 363 -146 Q 379 -146 394.5 -141 Q 410 -136 421 -124.5 Q 432 -113 436 -97.5 Q 440 -82 440 -66 Q 440 -27 431.5 10 Q 423 47 408 82.5 Q 393 118 372.5 150.5 Q 352 183 328 213 Z " id="path31"/>
<path d="M 173 -421 Q 149 -451 128.5 -483.5 Q 108 -516 93 -551 Q 78 -586 69.5 -623.5 Q 61 -661 61 -699 Q 61 -715 65 -731 Q 69 -747 80 -758.5 Q 91 -770 106.5 -775 Q 122 -780 138 -780 Q 154 -780 169 -775.5 Q 184 -771 195 -760 Q 206 -749 210.5 -733.5 Q 215 -718 215 -703 Q 215 -687 210.5 -672 Q 206 -657 195 -646 Q 184 -635 169 -630.5 Q 154 -626 139 -626 L 134 -626 Q 147 -581 173 -541 Q 199 -501 231 -466 Z M 398 -421 Q 374 -451 353.5 -483.5 Q 333 -516 318 -551 Q 303 -586 294.5 -623.5 Q 286 -661 286 -699 Q 286 -715 290 -731 Q 294 -747 305 -758.5 Q 316 -770 331.5 -775 Q 347 -780 363 -780 Q 379 -780 394 -775.5 Q 409 -771 420 -760 Q 431 -749 435.5 -733.5 Q 440 -718 440 -703 Q 440 -687 435.5 -672 Q 431 -657 420 -646 Q 409 -635 394 -630.5 Q 379 -626 364 -626 L 359 -626 Q 372 -581 398 -541 Q 424 -501 456 -466 Z " id="path32"/>
<path d="M 211 143 L 211 -469 L 64 -469 L 64 -539 L 211 -539 L 211 -823 L 289 -823 L 289 -539 L 436 -539 L 436 -469 L 289 -469 L 289 143 Z " id="path33"/>
<path d="M 211 143 L 211 -141 L 64 -141 L 64 -211 L 211 -211 L 211 -469 L 64 -469 L 64 -539 L 211 -539 L 211 -823 L 289 -823 L 289 -539 L 436 -539 L 436 -469 L 289 -469 L 289 -211 L 436 -211 L 436 -141 L 289 -141 L 289 143 Z " id="path34"/>
<path d="M 250 -189 Q 220 -189 190 -198 Q 160 -207 138.5 -228.5 Q 117 -250 108 -280 Q 99 -310 99 -340 Q 99 -370 108 -400 Q 117 -430 138.5 -451.5 Q 160 -473 190 -482 Q 220 -491 250 -491 Q 280 -491 310 -482 Q 340 -473 361.5 -451.5 Q 383 -430 392 -400 Q 401 -370 401 -340 Q 401 -310 392 -280 Q 383 -250 361.5 -228.5 Q 340 -207 310 -198 Q 280 -189 250 -189 Z " id="path35"/>
<path d="M 107 -154 L 107 -526 L 437 -340 Z " id="path36"/>
<path d="M 500 8 Q 484 8 469 3.5 Q 454 -1 442.5 -12.5 Q 431 -24 426.5 -39 Q 422 -54 422 -70 Q 422 -86 426.5 -101 Q 431 -116 442.5 -127.5 Q 454 -139 469 -143.5 Q 484 -148 500 -148 Q 516 -148 531 -143.5 Q 546 -139 557.5 -127.5 Q 569 -116 573.5 -101 Q 578 -86 578 -70 Q 578 -54 573.5 -39 Q 569 -24 557.5 -12.5 Q 546 -1 531 3.5 Q 516 8 500 8 Z " id="path37"/>
<path d="M 750 8 Q 734 8 719 3.5 Q 704 -1 692.5 -12.5 Q 681 -24 676.5 -39 Q 672 -54 672 -70 Q 672 -86 676.5 -101 Q 681 -116 692.5 -127.5 Q 704 -139 719 -143.5 Q 734 -148 750 -148 Q 766 -148 781 -143.5 Q 796 -139 807.5 -127.5 Q 819 -116 823.5 -101 Q 828 -86 828 -70 Q 828 -54 823.5 -39 Q 819 -24 807.5 -12.5 Q 796 -1 781 3.5 Q 766 8 750 8 Z M 250 8 Q 234 8 219 3.5 Q 204 -1 192.5 -12.5 Q 181 -24 176.5 -39 Q 172 -54 172 -70 Q 172 -86 176.5 -101 Q 181 -116 192.5 -127.5 Q 204 -139 219 -143.5 Q 234 -148 250 -148 Q 266 -148 281 -143.5 Q 296 -139 307.5 -127.5 Q 319 -116 323.5 -101 Q 328 -86 328 -70 Q 328 -54 323.5 -39 Q 319 -24 307.5 -12.5 Q 296 -1 281 3.5 Q 266 8 250 8 Z " id="path38"/>
<path d="M 833 8 Q 818 8 802.5 3.5 Q 787 -1 776 -12.5 Q 765 -24 760 -39 Q 755 -54 755 -70 Q 755 -86 760 -101 Q 765 -116 776 -127.5 Q 787 -139 802.5 -143.5 Q 818 -148 833 -148 Q 849 -148 864.5 -143.5 Q 880 -139 891 -127.5 Q 902 -116 906.5 -101 Q 911 -86 911 -70 Q 911 -54 906.5 -39 Q 902 -24 891 -12.5 Q 880 -1 864.5 3.5 Q 849 8 833 8 Z M 500 8 Q 484 8 469 3.5 Q 454 -1 442.5 -12.5 Q 431 -24 426.5 -39 Q 422 -54 422 -70 Q 422 -86 426.5 -101 Q 431 -116 442.5 -127.5 Q 454 -139 469 -143.5 Q 484 -148 500 -148 Q 516 -148 531 -143.5 Q 546 -139 557.5 -127.5 Q 569 -116 573.5 -101 Q 578 -86 578 -70 Q 578 -54 573.5 -39 Q 569 -24 557.5 -12.5 Q 546 -1 531 3.5 Q 516 8 500 8 Z M 167 8 Q 151 8 135.5 3.5 Q 120 -1 109 -12.5 Q 98 -24 93.5 -39 Q 89 -54 89 -70 Q 89 -86 93.5 -101 Q 98 -116 109 -127.5 Q 120 -139 135.5 -143.5 Q 151 -148 167 -148 Q 182 -148 197.5 -143.5 Q 213 -139 224 -127.5 Q 235 -116 240 -101 Q 245 -86 245 -70 Q 245 -54 240 -39 Q 235 -24 224 -12.5 Q 213 -1 197.5 3.5 Q 182 8 167 8 Z " id="path39"/>
<path d="M 250 -262 Q 234 -262 219 -266.5 Q 204 -271 192.5 -282.5 Q 181 -294 176.5 -309 Q 172 -324 172 -340 Q 172 -356 176.5 -371 Q 181 -386 192.5 -397.5 Q 204 -409 219 -413.5 Q 234 -418 250 -418 Q 266 -418 281 -413.5 Q 296 -409 307.5 -397.5 Q 319 -386 323.5 -371 Q 328 -356 328 -340 Q 328 -324 323.5 -309 Q 319 -294 307.5 -282.5 Q 296 -271 281 -266.5 Q 266 -262 250 -262 Z " id="path40"/>
<path d="M 271 -380 Q 250 -380 229 -386 Q 208 -392 192.5 -407 Q 177 -422 170.5 -443 Q 164 -464 164 -485 L 164 -638 Q 164 -659 170.5 -680 Q 177 -701 192.5 -715.5 Q 208 -730 229 -736.5 Q 250 -743 271 -743 Q 292 -743 313 -736.5 Q 334 -730 349.5 -715.5 Q 365 -701 371.5 -680 Q 378 -659 378 -638 L 378 -485 Q 378 -464 371.5 -443 Q 365 -422 349.5 -407 Q 334 -392 313 -386 Q 292 -380 271 -380 Z M 172 0 L 357 -368 L 528 -735 L 608 -735 L 424 -367 L 252 0 Z M 271 -444 Q 279 -444 286 -447 Q 293 -450 298 -456 Q 303 -462 304.5 -470 Q 306 -478 306 -485 L 306 -638 Q 306 -645 304.5 -652.5 Q 303 -660 298 -666 Q 293 -672 286 -675 Q 279 -678 271 -678 Q 263 -678 256 -675 Q 249 -672 244.5 -666 Q 240 -660 238 -652.5 Q 236 -645 236 -638 L 236 -485 Q 236 -478 238 -470 Q 240 -462 244.5 -456 Q 249 -450 256 -447 Q 263 -444 271 -444 Z M 761 8 Q 740 8 719 1.5 Q 698 -5 682.5 -19.5 Q 667 -34 660.5 -55 Q 654 -76 654 -98 L 654 -250 Q 654 -271 660.5 -292 Q 667 -313 682.5 -328 Q 698 -343 719 -349 Q 740 -355 761 -355 Q 782 -355 803 -349 Q 824 -343 839.5 -328 Q 855 -313 861.5 -292 Q 868 -271 868 -250 L 868 -98 Q 868 -76 861.5 -55 Q 855 -34 839.5 -19.5 Q 824 -5 803 1.5 Q 782 8 761 8 Z M 509 8 Q 488 8 467 1.5 Q 446 -5 430.5 -19.5 Q 415 -34 408.5 -55 Q 402 -76 402 -98 L 402 -250 Q 402 -271 408.5 -292 Q 415 -313 430.5 -328 Q 446 -343 467 -349 Q 488 -355 509 -355 Q 531 -355 552 -349 Q 573 -343 588 -328 Q 603 -313 609.5 -292 Q 616 -271 616 -250 L 616 -98 Q 616 -76 609.5 -55 Q 603 -34 588 -19.5 Q 573 -5 552 1.5 Q 531 8 509 8 Z M 761 -57 Q 769 -57 776 -60 Q 783 -63 787.5 -69 Q 792 -75 794 -82.5 Q 796 -90 796 -98 L 796 -250 Q 796 -257 794 -265 Q 792 -273 787.5 -279 Q 783 -285 776 -288 Q 769 -291 761 -291 Q 753 -291 746 -288 Q 739 -285 734 -279 Q 729 -273 727.5 -265 Q 726 -257 726 -250 L 726 -98 Q 726 -90 727.5 -82.5 Q 729 -75 734 -69 Q 739 -63 746 -60 Q 753 -57 761 -57 Z M 509 -57 Q 517 -57 524 -60 Q 531 -63 536 -69 Q 541 -75 542.5 -82.5 Q 544 -90 544 -98 L 544 -250 Q 544 -257 542.5 -265 Q 541 -273 536 -279 Q 531 -285 524 -288 Q 517 -291 509 -291 Q 502 -291 494.5 -288 Q 487 -285 482.5 -279 Q 478 -273 476 -265 Q 474 -257 474 -250 L 474 -98 Q 474 -90 476 -82.5 Q 478 -75 482.5 -69 Q 487 -63 494.5 -60 Q 502 -57 509 -57 Z " id="path41"/>
<path d="M 145 -380 Q 124 -380 103 -386 Q 82 -392 66.5 -407 Q 51 -422 44.5 -443 Q 38 -464 38 -485 L 38 -638 Q 38 -659 44.5 -680 Q 51 -701 66.5 -715.5 Q 82 -730 103 -736.5 Q 124 -743 145 -743 Q 167 -743 188 -736.5 Q 209 -730 224 -715.5 Q 239 -701 245.5 -680 Q 252 -659 252 -638 L 252 -485 Q 252 -464 245.5 -443 Q 239 -422 224 -407 Q 209 -392 188 -386 Q 167 -380 145 -380 Z M 127 0 L 46 0 L 231 -368 L 402 -735 L 482 -735 L 298 -368 Z M 145 -444 Q 153 -444 160 -447 Q 167 -450 172 -456 Q 177 -462 178.5 -470 Q 180 -478 180 -485 L 180 -638 Q 180 -645 178.5 -652.5 Q 177 -660 172 -666 Q 167 -672 160 -675 Q 153 -678 145 -678 Q 138 -678 130.5 -675 Q 123 -672 118.5 -666 Q 114 -660 112 -652.5 Q 110 -645 110 -638 L 110 -485 Q 110 -478 112 -470 Q 114 -462 118.5 -456 Q 123 -450 130.5 -447 Q 138 -444 145 -444 Z M 887 8 Q 865 8 844 1.5 Q 823 -5 808 -19.5 Q 793 -34 786.5 -55 Q 780 -76 780 -98 L 780 -250 Q 780 -271 786.5 -292 Q 793 -313 808 -328 Q 823 -343 844 -349 Q 865 -355 887 -355 Q 908 -355 929 -349 Q 950 -343 965.5 -328 Q 981 -313 987.5 -292 Q 994 -271 994 -250 L 994 -98 Q 994 -76 987.5 -55 Q 981 -34 965.5 -19.5 Q 950 -5 929 1.5 Q 908 8 887 8 Z M 635 8 Q 614 8 593 1.5 Q 572 -5 556.5 -19.5 Q 541 -34 534.5 -55 Q 528 -76 528 -98 L 528 -250 Q 528 -271 534.5 -292 Q 541 -313 556.5 -328 Q 572 -343 593 -349 Q 614 -355 635 -355 Q 656 -355 677 -349 Q 698 -343 713.5 -328 Q 729 -313 735.5 -292 Q 742 -271 742 -250 L 742 -98 Q 742 -76 735.5 -55 Q 729 -34 713.5 -19.5 Q 698 -5 677 1.5 Q 656 8 635 8 Z M 383 8 Q 362 8 341 1.5 Q 320 -5 305 -19.5 Q 290 -34 283.5 -55 Q 277 -76 277 -98 L 277 -250 Q 277 -271 283.5 -292 Q 290 -313 305 -328 Q 320 -343 341 -349 Q 362 -355 383 -355 Q 405 -355 426 -349 Q 447 -343 462 -328 Q 477 -313 483.5 -292 Q 490 -271 490 -250 L 490 -98 Q 490 -76 483.5 -55 Q 477 -34 462 -19.5 Q 447 -5 426 1.5 Q 405 8 383 8 Z M 887 -57 Q 894 -57 901.5 -60 Q 909 -63 913.5 -69 Q 918 -75 920 -82.5 Q 922 -90 922 -98 L 922 -250 Q 922 -257 920 -265 Q 918 -273 913.5 -279 Q 909 -285 901.5 -288 Q 894 -291 887 -291 Q 879 -291 872 -288 Q 865 -285 860 -279 Q 855 -273 853.5 -265 Q 852 -257 852 -250 L 852 -98 Q 852 -90 853.5 -82.5 Q 855 -75 860 -69 Q 865 -63 872 -60 Q 879 -57 887 -57 Z M 635 -57 Q 643 -57 650 -60 Q 657 -63 662 -69 Q 667 -75 668.5 -82.5 Q 670 -90 670 -98 L 670 -250 Q 670 -257 668.5 -265 Q 667 -273 662 -279 Q 657 -285 650 -288 Q 643 -291 635 -291 Q 627 -291 620 -288 Q 613 -285 608.5 -279 Q 604 -273 602 -265 Q 600 -257 600 -250 L 600 -98 Q 600 -90 602 -82.5 Q 604 -75 608.5 -69 Q 613 -63 620 -60 Q 627 -57 635 -57 Z M 383 -57 Q 391 -57 398.5 -60 Q 406 -63 410.5 -69 Q 415 -75 417 -82.5 Q 419 -90 419 -98 L 419 -250 Q 419 -257 417 -265 Q 415 -273 410.5 -279 Q 406 -285 398.5 -288 Q 391 -291 383 -291 Q 376 -291 368.5 -288 Q 361 -285 356.5 -279 Q 352 -273 350 -265 Q 348 -257 348 -250 L 348 -98 Q 348 -90 350 -82.5 Q 352 -75 356.5 -69 Q 361 -63 368.5 -60 Q 376 -57 383 -57 Z " id="path42"/>
<path d="M 161 -442 L 253 -772 L 347 -772 L 239 -442 Z " id="path43"/>
<path d="M 68 -442 L 160 -772 L 254 -772 L 146 -442 Z M 254 -442 L 346 -772 L 440 -772 L 332 -442 Z " id="path44"/>
<path d="M 388 -442 L 312 -442 L 404 -772 L 496 -772 Z M 12 -442 L 104 -772 L 196 -772 L 88 -442 Z M 238 -442 L 162 -442 L 254 -772 L 346 -772 Z " id="path45"/>
<path d="M 261 -442 L 153 -772 L 247 -772 L 339 -442 Z " id="path46"/>
<path d="M 168 -442 L 60 -772 L 154 -772 L 246 -442 Z M 354 -442 L 246 -772 L 340 -772 L 432 -442 Z " id="path47"/>
<path d="M 412 -442 L 304 -772 L 396 -772 L 488 -442 Z M 112 -442 L 4 -772 L 96 -772 L 188 -442 Z M 262 -442 L 154 -772 L 246 -772 L 338 -442 Z " id="path48"/>
<path d="M 394 200 L 250 -11 L 106 200 L 39 157 L 207 -74 L 293 -74 L 377 42 L 461 157 Z " id="path49"/>
<path d="M 302 -87 Q 288 -122 270.5 -154.5 Q 253 -187 232 -217.5 Q 211 -248 185 -274.5 Q 159 -301 129 -323 L 129 -358 Q 159 -379 185 -405.5 Q 211 -432 232 -462.5 Q 253 -493 270.5 -525.5 Q 288 -558 302 -593 L 365 -570 Q 353 -538 337.5 -507.5 Q 322 -477 304.5 -447.5 Q 287 -418 266.5 -391 Q 246 -364 221 -340 Q 246 -316 266.5 -289 Q 287 -262 304.5 -232.5 Q 322 -203 337.5 -172.5 Q 353 -142 365 -110 Z " id="path50"/>
<path d="M 198 -87 L 135 -110 Q 147 -142 162.5 -172.5 Q 178 -203 195.5 -232.5 Q 213 -262 233.5 -289 Q 254 -316 279 -340 Q 254 -364 233.5 -391 Q 213 -418 195.5 -447.5 Q 178 -477 162.5 -507.5 Q 147 -538 135 -570 L 198 -593 Q 212 -558 229.5 -525.5 Q 247 -493 268 -462.5 Q 289 -432 315 -405.5 Q 341 -379 371 -358 L 371 -323 Q 341 -301 315 -274.5 Q 289 -248 268 -217.5 Q 247 -187 229.5 -154.5 Q 212 -122 198 -87 Z " id="path51"/>
<path d="M 500 -679 Q 487 -679 474.5 -683 Q 462 -687 453 -696 Q 444 -705 440 -717.5 Q 436 -730 436 -743 Q 436 -756 440 -768.5 Q 444 -781 453 -790 Q 462 -799 474.5 -803 Q 487 -807 500 -807 Q 513 -807 525.5 -803 Q 538 -799 547 -790 Q 556 -781 560 -768.5 Q 564 -756 564 -743 Q 564 -730 560 -717.5 Q 556 -705 547 -696 Q 538 -687 525.5 -683 Q 513 -679 500 -679 Z M 89 119 L 39 73 L 452 -340 L 39 -753 L 89 -799 L 500 -388 L 911 -799 L 961 -753 L 548 -340 L 961 73 L 911 119 L 500 -292 Z M 97 -276 Q 84 -276 71.5 -280 Q 59 -284 50 -293 Q 41 -302 37 -314.5 Q 33 -327 33 -340 Q 33 -353 37 -365.5 Q 41 -378 50 -387 Q 59 -396 71.5 -400 Q 84 -404 97 -404 Q 110 -404 122.5 -400 Q 135 -396 144 -387 Q 153 -378 157 -365.5 Q 161 -353 161 -340 Q 161 -327 157 -314.5 Q 153 -302 144 -293 Q 135 -284 122.5 -280 Q 110 -276 97 -276 Z M 903 -276 Q 890 -276 877.5 -280 Q 865 -284 856 -293 Q 847 -302 843 -314.5 Q 839 -327 839 -340 Q 839 -353 843 -365.5 Q 847 -378 856 -387 Q 865 -396 877.5 -400 Q 890 -404 903 -404 Q 916 -404 928.5 -400 Q 941 -396 950 -387 Q 959 -378 963 -365.5 Q 967 -353 967 -340 Q 967 -327 963 -314.5 Q 959 -302 950 -293 Q 941 -284 928.5 -280 Q 916 -276 903 -276 Z M 500 127 Q 487 127 474.5 123 Q 462 119 453 110 Q 444 101 440 88.5 Q 436 76 436 63 Q 436 50 440 37.5 Q 444 25 453 16 Q 462 7 474.5 3 Q 487 -1 500 -1 Q 513 -1 525.5 3 Q 538 7 547 16 Q 556 25 560 37.5 Q 564 50 564 63 Q 564 76 560 88.5 Q 556 101 547 110 Q 538 119 525.5 123 Q 513 127 500 127 Z " id="path52"/>
<path d="M 106 -260 L 106 -735 L 175 -735 L 175 -260 Z M 325 -260 L 325 -735 L 394 -735 L 394 -260 Z M 141 8 Q 127 8 114 3 Q 101 -2 93 -12 Q 85 -22 81.5 -35.5 Q 78 -49 78 -63 Q 78 -76 81.5 -89.5 Q 85 -103 93 -113 Q 101 -123 114 -128 Q 127 -133 141 -133 Q 154 -133 167 -128 Q 180 -123 188 -113 Q 196 -103 199.5 -89.5 Q 203 -76 203 -63 Q 203 -49 199.5 -35.5 Q 196 -22 188 -12 Q 180 -2 167 3 Q 154 8 141 8 Z M 359 8 Q 346 8 333 3 Q 320 -2 312 -12 Q 304 -22 300.5 -35.5 Q 297 -49 297 -63 Q 297 -76 300.5 -89.5 Q 304 -103 312 -113 Q 320 -123 333 -128 Q 346 -133 359 -133 Q 373 -133 386 -128 Q 399 -123 407 -113 Q 415 -103 418.5 -89.5 Q 422 -76 422 -63 Q 422 -49 418.5 -35.5 Q 415 -22 407 -12 Q 399 -2 386 3 Q 373 8 359 8 Z " id="path53"/>
<path d="M 338 -208 L 261 -221 Q 265 -246 271 -270.5 Q 277 -295 287.5 -317.5 Q 298 -340 313 -360.5 Q 328 -381 345 -399.5 Q 362 -418 379.5 -436 Q 397 -454 411.5 -474.5 Q 426 -495 434.5 -519 Q 443 -543 443 -568 Q 443 -586 438 -604 Q 433 -622 421.5 -636 Q 410 -650 392 -656 Q 374 -662 356 -662 Q 339 -662 323 -654 Q 307 -646 296.5 -632.5 Q 286 -619 279.5 -602.5 Q 273 -586 271 -569 L 194 -582 Q 198 -611 210 -639 Q 222 -667 242.5 -688.5 Q 263 -710 291 -721.5 Q 319 -733 348 -733 Q 358 -733 367 -732 Q 376 -731 385 -730 Q 414 -725 440.5 -712 Q 467 -699 485.5 -676.5 Q 504 -654 512.5 -625.5 Q 521 -597 521 -568 Q 521 -542 515 -517 Q 509 -492 498.5 -468 Q 488 -444 473.5 -422.5 Q 459 -401 442.5 -381.5 Q 426 -362 407 -343.5 Q 388 -325 373 -304 Q 358 -283 350 -258.5 Q 342 -234 338 -208 Z M 173 -206 L 45 -704 L 120 -724 L 248 -225 Z M 250 8 Q 236 8 222 4 Q 208 0 198 -10.5 Q 188 -21 184 -34.5 Q 180 -48 180 -63 Q 180 -77 184 -90.5 Q 188 -104 198 -114.5 Q 208 -125 222 -129 Q 236 -133 250 -133 Q 264 -133 278 -129 Q 292 -125 302 -114.5 Q 312 -104 316.5 -90.5 Q 321 -77 321 -63 Q 321 -48 316.5 -34.5 Q 312 -21 302 -10.5 Q 292 0 278 4 Q 264 8 250 8 Z " id="path54"/>
<path d="M 64 -665 L 64 -735 L 436 -735 L 436 -665 Z " id="path55"/>
<path d="M 250 72 Q 224 72 198 66.5 Q 172 61 147.5 51.5 Q 123 42 100 29 Q 77 16 56 0 L 104 -55 Q 135 -30 172.5 -14 Q 210 2 250 2 Q 290 2 327.5 -14 Q 365 -30 396 -55 L 444 0 Q 423 16 400 29 Q 377 42 352.5 51.5 Q 328 61 302 66.5 Q 276 72 250 72 Z " id="path56"/>
<path d="M 104 -680 L 56 -735 Q 77 -751 100 -764 Q 123 -777 147.5 -786.5 Q 172 -796 198 -801.5 Q 224 -807 250 -807 Q 276 -807 302 -801.5 Q 328 -796 352.5 -786.5 Q 377 -777 400 -764 Q 423 -751 444 -735 L 396 -680 Q 365 -705 327.5 -721 Q 290 -737 250 -737 Q 210 -737 172.5 -721 Q 135 -705 104 -680 Z " id="path57"/>
<path d="M 407 238 L 250 57 L 93 238 L 35 192 L 407 -238 L 465 -192 L 299 0 L 465 192 Z " id="path58"/>
<path d="M 408 -371 L 345 -412 L 450 -546 L 288 -593 L 312 -659 L 467 -603 L 461 -771 L 539 -771 L 533 -603 L 688 -659 L 712 -593 L 550 -546 L 655 -412 L 592 -371 L 500 -507 Z M 658 70 L 595 29 L 700 -105 L 538 -152 L 562 -218 L 717 -162 L 711 -330 L 789 -330 L 783 -162 L 938 -218 L 962 -152 L 800 -105 L 905 29 L 842 70 L 750 -66 Z M 158 70 L 95 29 L 200 -105 L 38 -152 L 62 -218 L 217 -162 L 211 -330 L 289 -330 L 283 -162 L 438 -218 L 462 -152 L 300 -105 L 405 29 L 342 70 L 250 -66 Z " id="path59"/>
<path d="M 139 143 L 59 143 L 361 -823 L 441 -823 Z " id="path60"/>
<path d="M 123 143 L 123 -823 L 399 -823 L 399 -753 L 201 -753 L 201 -375 L 399 -375 L 399 -305 L 201 -305 L 201 73 L 399 73 L 399 143 Z " id="path61"/>
<path d="M 101 143 L 101 73 L 299 73 L 299 -305 L 101 -305 L 101 -375 L 299 -375 L 299 -753 L 101 -753 L 101 -823 L 377 -823 L 377 143 Z " id="path62"/>
<path d="M 106 -221 Q 106 -251 108 -281 Q 110 -311 117.5 -340 Q 125 -369 136.5 -397 Q 148 -425 160 -452.5 Q 172 -480 180.5 -509 Q 189 -538 189 -568 Q 189 -579 188 -589.5 Q 187 -600 185 -610.5 Q 183 -621 180 -631 Q 177 -641 172 -650.5 Q 167 -660 158.5 -666.5 Q 150 -673 140 -673 Q 129 -673 120.5 -666.5 Q 112 -660 107 -650.5 Q 102 -641 99 -631 Q 96 -621 94 -610.5 Q 92 -600 91.5 -589.5 Q 91 -579 91 -568 L 91 -564 L 22 -564 L 22 -571 Q 22 -590 24.5 -609.5 Q 27 -629 32.5 -648 Q 38 -667 47 -684.5 Q 56 -702 69.5 -715.5 Q 83 -729 101.5 -736 Q 120 -743 140 -743 Q 160 -743 179.5 -735 Q 199 -727 213 -712 Q 227 -697 235.5 -678 Q 244 -659 249 -639 Q 254 -659 262.5 -678 Q 271 -697 285 -712 Q 299 -727 318.5 -735 Q 338 -743 359 -743 Q 378 -743 397 -736 Q 416 -729 429.5 -714.5 Q 443 -700 452 -682.5 Q 461 -665 466 -646 Q 471 -627 473.5 -607 Q 476 -587 476 -567 Q 476 -537 471 -507.5 Q 466 -478 457 -449.5 Q 448 -421 435.5 -393.5 Q 423 -366 412.5 -338 Q 402 -310 398 -280.5 Q 394 -251 394 -221 L 325 -221 Q 325 -251 327 -281 Q 329 -311 336 -340 Q 343 -369 355 -397 Q 367 -425 379 -452.5 Q 391 -480 399 -509 Q 407 -538 407 -568 Q 407 -579 406.5 -589.5 Q 406 -600 404 -610.5 Q 402 -621 399 -631 Q 396 -641 391 -650.5 Q 386 -660 377.5 -666.5 Q 369 -673 359 -673 Q 348 -673 339.5 -666.5 Q 331 -660 326 -650.5 Q 321 -641 318 -631 Q 315 -621 313 -610.5 Q 311 -600 310.5 -589.5 Q 310 -579 310 -568 L 310 -564 L 257 -564 Q 257 -535 252 -505.5 Q 247 -476 238 -447.5 Q 229 -419 216.5 -392 Q 204 -365 193.5 -337 Q 183 -309 179 -279.5 Q 175 -250 175 -221 Z M 141 8 Q 127 8 114 3 Q 101 -2 93 -12 Q 85 -22 81.5 -35.5 Q 78 -49 78 -63 Q 78 -76 81.5 -89.5 Q 85 -103 93 -113 Q 101 -123 114 -128 Q 127 -133 141 -133 Q 154 -133 167 -128 Q 180 -123 188 -113 Q 196 -103 199.5 -89.5 Q 203 -76 203 -63 Q 203 -49 199.5 -35.5 Q 196 -22 188 -12 Q 180 -2 167 3 Q 154 8 141 8 Z M 359 8 Q 346 8 333 3 Q 320 -2 312 -12 Q 304 -22 300.5 -35.5 Q 297 -49 297 -63 Q 297 -76 300.5 -89.5 Q 304 -103 312 -113 Q 320 -123 333 -128 Q 346 -133 359 -133 Q 373 -133 386 -128 Q 399 -123 407 -113 Q 415 -103 418.5 -89.5 Q 422 -76 422 -63 Q 422 -49 418.5 -35.5 Q 415 -22 407 -12 Q 399 -2 386 3 Q 373 8 359 8 Z " id="path63"/>
<path d="M 106 -221 Q 106 -251 108 -281 Q 110 -311 117.5 -340 Q 125 -369 136.5 -397 Q 148 -425 160 -452.5 Q 172 -480 180.5 -509 Q 189 -538 189 -568 Q 189 -579 188 -589.5 Q 187 -600 185 -610.5 Q 183 -621 180 -631 Q 177 -641 172 -650.5 Q 167 -660 158.5 -666.5 Q 150 -673 140 -673 Q 129 -673 120.5 -666.5 Q 112 -660 107 -650.5 Q 102 -641 99 -631 Q 96 -621 94 -610.5 Q 92 -600 91.5 -589.5 Q 91 -579 91 -568 L 91 -564 L 22 -564 L 22 -571 Q 22 -590 24.5 -609.5 Q 27 -629 32.5 -648 Q 38 -667 47 -684.5 Q 56 -702 69.5 -715.5 Q 83 -729 101.5 -736 Q 120 -743 140 -743 Q 159 -743 178 -736 Q 197 -729 211 -714.5 Q 225 -700 233.5 -682.5 Q 242 -665 247 -646 Q 252 -627 254.5 -607 Q 257 -587 257 -567 Q 257 -537 252 -507.5 Q 247 -478 238 -449.5 Q 229 -421 217 -393.5 Q 205 -366 194 -338 Q 183 -310 179 -280.5 Q 175 -251 175 -221 Z M 325 -260 L 325 -735 L 394 -735 L 394 -260 Z M 141 8 Q 127 8 114 3 Q 101 -2 93 -12 Q 85 -22 81.5 -35.5 Q 78 -49 78 -63 Q 78 -76 81.5 -89.5 Q 85 -103 93 -113 Q 101 -123 114 -128 Q 127 -133 141 -133 Q 154 -133 167 -128 Q 180 -123 188 -113 Q 196 -103 199.5 -89.5 Q 203 -76 203 -63 Q 203 -49 199.5 -35.5 Q 196 -22 188 -12 Q 180 -2 167 3 Q 154 8 141 8 Z M 359 8 Q 346 8 333 3 Q 320 -2 312 -12 Q 304 -22 300.5 -35.5 Q 297 -49 297 -63 Q 297 -76 300.5 -89.5 Q 304 -103 312 -113 Q 320 -123 333 -128 Q 346 -133 359 -133 Q 373 -133 386 -128 Q 399 -123 407 -113 Q 415 -103 418.5 -89.5 Q 422 -76 422 -63 Q 422 -49 418.5 -35.5 Q 415 -22 407 -12 Q 399 -2 386 3 Q 373 8 359 8 Z " id="path64"/>
<path d="M 325 -221 Q 325 -251 327 -281 Q 329 -311 336 -340 Q 343 -369 355 -397 Q 367 -425 379 -452.5 Q 391 -480 399 -509 Q 407 -538 407 -568 Q 407 -579 406.5 -589.5 Q 406 -600 404 -610.5 Q 402 -621 399 -631 Q 396 -641 391 -650.5 Q 386 -660 377.5 -666.5 Q 369 -673 359 -673 Q 348 -673 339.5 -666.5 Q 331 -660 326 -650.5 Q 321 -641 318 -631 Q 315 -621 313 -610.5 Q 311 -600 310.5 -589.5 Q 310 -579 310 -568 L 310 -564 L 241 -564 L 241 -571 Q 241 -590 243.5 -609.5 Q 246 -629 251.5 -648 Q 257 -667 266 -684.5 Q 275 -702 288.5 -715.5 Q 302 -729 320.5 -736 Q 339 -743 359 -743 Q 378 -743 397 -736 Q 416 -729 429.5 -714.5 Q 443 -700 452 -682.5 Q 461 -665 466 -646 Q 471 -627 473.5 -607 Q 476 -587 476 -567 Q 476 -537 471 -507.5 Q 466 -478 457 -449.5 Q 448 -421 435.5 -393.5 Q 423 -366 412.5 -338 Q 402 -310 398 -280.5 Q 394 -251 394 -221 Z M 106 -260 L 106 -735 L 175 -735 L 175 -260 Z M 141 8 Q 127 8 114 3 Q 101 -2 93 -12 Q 85 -22 81.5 -35.5 Q 78 -49 78 -63 Q 78 -76 81.5 -89.5 Q 85 -103 93 -113 Q 101 -123 114 -128 Q 127 -133 141 -133 Q 154 -133 167 -128 Q 180 -123 188 -113 Q 196 -103 199.5 -89.5 Q 203 -76 203 -63 Q 203 -49 199.5 -35.5 Q 196 -22 188 -12 Q 180 -2 167 3 Q 154 8 141 8 Z M 359 8 Q 346 8 333 3 Q 320 -2 312 -12 Q 304 -22 300.5 -35.5 Q 297 -49 297 -63 Q 297 -76 300.5 -89.5 Q 304 -103 312 -113 Q 320 -123 333 -128 Q 346 -133 359 -133 Q 373 -133 386 -128 Q 399 -123 407 -113 Q 415 -103 418.5 -89.5 Q 422 -76 422 -63 Q 422 -49 418.5 -35.5 Q 415 -22 407 -12 Q 399 -2 386 3 Q 373 8 359 8 Z " id="path65"/>
<path d="M 260 8 L 187 -17 L 350 -446 Q 324 -444 298 -443 Q 272 -442 246 -442 Q 200 -442 154.5 -445.5 Q 109 -449 64 -456 L 64 -527 Q 109 -519 154.5 -515.5 Q 200 -512 246 -512 Q 294 -512 341.5 -516 Q 389 -520 436 -528 L 436 -457 Z " id="path66"/>
<path d="M 60 0 L 60 -735 L 271 -735 Q 295 -735 319.5 -728.5 Q 344 -722 364.5 -708.5 Q 385 -695 400 -675 Q 415 -655 424 -632 Q 433 -609 436.5 -584 Q 440 -559 440 -534 Q 440 -510 436.5 -485 Q 433 -460 424 -437 Q 415 -414 400 -394 Q 385 -374 364.5 -360 Q 344 -346 319.5 -340 Q 295 -334 271 -334 L 271 0 L 196 0 L 196 -668 L 135 -668 L 135 0 Z " id="path67"/>
<path d="M 229 -147 Q 205 -147 181 -152.5 Q 157 -158 136.5 -171 Q 116 -184 101 -203 Q 86 -222 76.5 -244.5 Q 67 -267 63.5 -291.5 Q 60 -316 60 -340 Q 60 -364 63.5 -388.5 Q 67 -413 76.5 -435.5 Q 86 -458 101 -477 Q 116 -496 136.5 -509 Q 157 -522 181 -527.5 Q 205 -533 229 -533 L 440 -533 L 440 -147 Z M 365 -214 L 365 -466 L 304 -466 L 304 -214 Z " id="path68"/>
<path d="M 60 -147 L 60 -533 L 271 -533 Q 295 -533 319 -527.5 Q 343 -522 363.5 -509 Q 384 -496 399 -477 Q 414 -458 423.5 -435.5 Q 433 -413 436.5 -388.5 Q 440 -364 440 -340 Q 440 -316 436.5 -291.5 Q 433 -267 423.5 -244.5 Q 414 -222 399 -203 Q 384 -184 363.5 -171 Q 343 -158 319 -152.5 Q 295 -147 271 -147 Z M 196 -214 L 196 -466 L 135 -466 L 135 -214 Z " id="path69"/>
<path d="M 158 -17 L 95 -58 L 200 -192 L 38 -239 L 62 -305 L 217 -249 L 211 -417 L 289 -417 L 283 -249 L 438 -305 L 462 -239 L 300 -192 L 405 -58 L 342 -17 L 250 -153 Z " id="path70"/>
<path d="M 285 215 Q 261 185 240.5 152 Q 220 119 205 83.5 Q 190 48 181 10 Q 172 -28 172 -66 Q 172 -83 176 -99 Q 180 -115 191 -126.5 Q 202 -138 218 -143 Q 234 -148 250 -148 Q 266 -148 281 -143.5 Q 296 -139 307.5 -127.5 Q 319 -116 323.5 -101 Q 328 -86 328 -70 Q 328 -54 323.5 -39 Q 319 -24 308 -13 Q 297 -2 281.5 3 Q 266 8 251 8 L 246 8 Q 259 54 285.5 94 Q 312 134 344 170 Z M 250 -372 Q 234 -372 219 -376.5 Q 204 -381 192.5 -392.5 Q 181 -404 176.5 -419 Q 172 -434 172 -450 Q 172 -466 176.5 -481 Q 181 -496 192.5 -507.5 Q 204 -519 219 -523.5 Q 234 -528 250 -528 Q 266 -528 281 -523.5 Q 296 -519 307.5 -507.5 Q 319 -496 323.5 -481 Q 328 -466 328 -450 Q 328 -434 323.5 -419 Q 319 -404 307.5 -392.5 Q 296 -381 281 -376.5 Q 266 -372 250 -372 Z " id="path71"/>
<path d="M 104 -680 L 56 -735 Q 77 -751 100 -764 Q 123 -777 147.5 -786.5 Q 172 -796 198 -801.5 Q 224 -807 250 -807 Q 276 -807 302 -801.5 Q 328 -796 352.5 -786.5 Q 377 -777 400 -764 Q 423 -751 444 -735 L 396 -680 Q 365 -705 327.5 -721 Q 290 -737 250 -737 Q 210 -737 172.5 -721 Q 135 -705 104 -680 Z M 250 72 Q 224 72 198 66.5 Q 172 61 147.5 51.5 Q 123 42 100 29 Q 77 16 56 0 L 104 -55 Q 135 -30 172.5 -14 Q 210 2 250 2 Q 290 2 327.5 -14 Q 365 -30 396 -55 L 444 0 Q 423 16 400 29 Q 377 42 352.5 51.5 Q 328 61 302 66.5 Q 276 72 250 72 Z " id="path72"/>
<path d="M 158 -371 L 95 -412 L 200 -546 L 38 -593 L 62 -659 L 217 -603 L 211 -771 L 289 -771 L 283 -603 L 438 -659 L 462 -593 L 300 -546 L 405 -412 L 342 -371 L 250 -507 Z M 158 70 L 95 29 L 200 -105 L 38 -152 L 62 -218 L 217 -162 L 211 -330 L 289 -330 L 283 -162 L 438 -218 L 462 -152 L 300 -105 L 405 29 L 342 70 L 250 -66 Z " id="path73"/>
<path d="M 134 -587 Q 118 -587 103 -591.5 Q 88 -596 76.5 -607.5 Q 65 -619 60.5 -634 Q 56 -649 56 -665 Q 56 -681 60.5 -696 Q 65 -711 76.5 -722.5 Q 88 -734 103 -738.5 Q 118 -743 134 -743 Q 150 -743 165 -738.5 Q 180 -734 191.5 -722.5 Q 203 -711 207.5 -696 Q 212 -681 212 -665 Q 212 -649 207.5 -634 Q 203 -619 191.5 -607.5 Q 180 -596 165 -591.5 Q 150 -587 134 -587 Z M 64 0 L 362 -735 L 436 -735 L 138 0 Z M 366 8 Q 350 8 335 3.5 Q 320 -1 308.5 -12.5 Q 297 -24 292.5 -39 Q 288 -54 288 -70 Q 288 -86 292.5 -101 Q 297 -116 308.5 -127.5 Q 320 -139 335 -143.5 Q 350 -148 366 -148 Q 382 -148 397 -143.5 Q 412 -139 423.5 -127.5 Q 435 -116 439.5 -101 Q 444 -86 444 -70 Q 444 -54 439.5 -39 Q 435 -24 423.5 -12.5 Q 412 -1 397 3.5 Q 382 8 366 8 Z " id="path74"/>
<path d="M 675 -165 Q 647 -165 622.5 -172.5 Q 598 -180 576.5 -192 Q 555 -204 534 -220 Q 513 -236 494 -252.5 Q 475 -269 455 -287.5 Q 435 -306 416 -320.5 Q 397 -335 373.5 -346.5 Q 350 -358 325 -358 Q 316 -358 310 -357 Q 304 -356 295.5 -354 Q 287 -352 278.5 -348.5 Q 270 -345 260.5 -339.5 Q 251 -334 241.5 -327.5 Q 232 -321 226.5 -317 Q 221 -313 215 -308.5 Q 209 -304 203 -298.5 Q 197 -293 191 -287.5 Q 185 -282 178.5 -275.5 Q 172 -269 165.5 -262.5 Q 159 -256 152.5 -248.5 Q 146 -241 139 -233 Q 132 -225 124.5 -216 Q 117 -207 109.5 -198 Q 102 -189 95 -179 L 33 -221 Q 43 -235 53 -247 Q 63 -259 72.5 -270.5 Q 82 -282 91.5 -292 Q 101 -302 110.5 -311.5 Q 120 -321 129 -330 Q 138 -339 146.5 -346.5 Q 155 -354 164 -361 Q 173 -368 181.5 -374.5 Q 190 -381 203 -389 Q 216 -397 228.5 -403.5 Q 241 -410 253.5 -414.5 Q 266 -419 278 -422 Q 290 -425 301 -426.5 Q 312 -428 325 -428 Q 353 -428 377.5 -420.5 Q 402 -413 423.5 -401.5 Q 445 -390 466 -374 Q 487 -358 506 -341 Q 525 -324 545 -306 Q 565 -288 584 -273 Q 603 -258 626.5 -246.5 Q 650 -235 675 -235 Q 684 -235 690 -236 Q 696 -237 704.5 -239.5 Q 713 -242 721.5 -245.5 Q 730 -249 739.5 -254 Q 749 -259 758.5 -265.5 Q 768 -272 773.5 -276 Q 779 -280 785 -285 Q 791 -290 797 -295 Q 803 -300 809 -306 Q 815 -312 821.5 -318 Q 828 -324 834.5 -331 Q 841 -338 847.5 -345.5 Q 854 -353 861 -361 Q 868 -369 875.5 -377.5 Q 883 -386 890.5 -395.5 Q 898 -405 905 -415 L 967 -372 Q 957 -359 947 -346.5 Q 937 -334 927.5 -323 Q 918 -312 908.5 -301.5 Q 899 -291 889.5 -281.5 Q 880 -272 871 -263.5 Q 862 -255 853.5 -247 Q 845 -239 836 -232 Q 827 -225 818.5 -219 Q 810 -213 797 -204.5 Q 784 -196 771.5 -190 Q 759 -184 746.5 -179 Q 734 -174 722 -171 Q 710 -168 699 -166.5 Q 688 -165 675 -165 Z " id="path75"/>
<path d="M 396 55 Q 365 30 327.5 14 Q 290 -2 250 -2 Q 210 -2 172.5 14 Q 135 30 104 55 L 56 0 Q 77 -16 100 -29 Q 123 -42 147.5 -51.5 Q 172 -61 198 -66.5 Q 224 -72 250 -72 Q 276 -72 302 -66.5 Q 328 -61 352.5 -51.5 Q 377 -42 400 -29 Q 423 -16 444 0 Z " id="path76"/>
<path d="M 211 -396 L 216 -526 L 129 -433 L 74 -482 L 174 -575 L 40 -571 L 40 -641 L 174 -637 L 74 -730 L 129 -779 L 216 -686 L 211 -816 L 289 -816 L 284 -686 L 371 -779 L 426 -730 L 326 -637 L 460 -641 L 460 -571 L 326 -575 L 426 -482 L 371 -433 L 284 -526 L 289 -396 Z " id="path77"/>
<path d="M 374 -387 Q 359 -387 345.5 -391 Q 332 -395 321.5 -405.5 Q 311 -416 307 -429.5 Q 303 -443 303 -458 Q 303 -472 307 -485.5 Q 311 -499 321.5 -509.5 Q 332 -520 345.5 -524 Q 359 -528 374 -528 Q 388 -528 401.5 -524 Q 415 -520 425.5 -509.5 Q 436 -499 440 -485.5 Q 444 -472 444 -458 Q 444 -443 440 -429.5 Q 436 -416 425.5 -405.5 Q 415 -395 401.5 -391 Q 388 -387 374 -387 Z M 126 -190 Q 112 -190 98.5 -194 Q 85 -198 74.5 -208 Q 64 -218 60 -232 Q 56 -246 56 -260 Q 56 -274 60 -288 Q 64 -302 74.5 -312 Q 85 -322 98.5 -326.5 Q 112 -331 127 -331 Q 141 -331 154.5 -326.5 Q 168 -322 178.5 -312 Q 189 -302 193 -288 Q 197 -274 197 -260 Q 197 -246 193 -232 Q 189 -218 178.5 -208 Q 168 -198 154.5 -194 Q 141 -190 126 -190 Z M 374 8 Q 359 8 345.5 4 Q 332 0 321.5 -10.5 Q 311 -21 307 -34.5 Q 303 -48 303 -63 Q 303 -77 307 -90.5 Q 311 -104 321.5 -114.5 Q 332 -125 345.5 -129 Q 359 -133 374 -133 Q 388 -133 401.5 -129 Q 415 -125 425.5 -114.5 Q 436 -104 440 -90.5 Q 444 -77 444 -63 Q 444 -48 440 -34.5 Q 436 -21 425.5 -10.5 Q 415 0 401.5 4 Q 388 8 374 8 Z " id="path78"/>
<path d="M 376 -442 L 469 -772 L 550 -772 L 444 -442 Z M -44 -442 L 50 -772 L 131 -772 L 24 -442 Z M 236 -442 L 330 -772 L 410 -772 L 304 -442 Z M 96 -442 L 190 -772 L 270 -772 L 164 -442 Z " id="path79"/>
<path d="M 250 -387 Q 236 -387 222 -391 Q 208 -395 198 -405.5 Q 188 -416 184 -429.5 Q 180 -443 180 -458 Q 180 -472 184 -485.5 Q 188 -499 198 -509.5 Q 208 -520 222 -524 Q 236 -528 250 -528 Q 264 -528 278 -524 Q 292 -520 302 -509.5 Q 312 -499 316.5 -485.5 Q 321 -472 321 -458 Q 321 -443 316.5 -429.5 Q 312 -416 302 -405.5 Q 292 -395 278 -391 Q 264 -387 250 -387 Z M 94 -190 Q 80 -190 66.5 -194 Q 53 -198 42.5 -208 Q 32 -218 28 -232 Q 24 -246 24 -260 Q 24 -274 28 -288 Q 32 -302 42.5 -312 Q 53 -322 66.5 -326.5 Q 80 -331 95 -331 Q 109 -331 122.5 -326.5 Q 136 -322 146.5 -312 Q 157 -302 161 -288 Q 165 -274 165 -260 Q 165 -246 161 -232 Q 157 -218 146.5 -208 Q 136 -198 122.5 -194 Q 109 -190 94 -190 Z M 406 -190 Q 391 -190 377.5 -194 Q 364 -198 353.5 -208 Q 343 -218 339 -232 Q 335 -246 335 -260 Q 335 -274 339 -288 Q 343 -302 353.5 -312 Q 364 -322 377.5 -326.5 Q 391 -331 406 -331 Q 420 -331 433.5 -326.5 Q 447 -322 457.5 -312 Q 468 -302 472 -288 Q 476 -274 476 -260 Q 476 -246 472 -232 Q 468 -218 457.5 -208 Q 447 -198 433.5 -194 Q 420 -190 406 -190 Z M 250 8 Q 236 8 222 4 Q 208 0 198 -10.5 Q 188 -21 183.5 -34.5 Q 179 -48 179 -63 Q 179 -77 183.5 -90.5 Q 188 -104 198 -114.5 Q 208 -125 222 -129 Q 236 -133 250 -133 Q 264 -133 278 -129 Q 292 -125 302 -114.5 Q 312 -104 316 -90.5 Q 320 -77 320 -63 Q 320 -48 316 -34.5 Q 312 -21 302 -10.5 Q 292 0 278 4 Q 264 8 250 8 Z " id="path80"/>
<path d="M 406 -387 Q 391 -387 377.5 -391 Q 364 -395 353.5 -405.5 Q 343 -416 339 -429.5 Q 335 -443 335 -458 Q 335 -472 339 -485.5 Q 343 -499 353.5 -509.5 Q 364 -520 377.5 -524 Q 391 -528 406 -528 Q 420 -528 433.5 -524 Q 447 -520 457.5 -509.5 Q 468 -499 472 -485.5 Q 476 -472 476 -458 Q 476 -443 472 -429.5 Q 468 -416 457.5 -405.5 Q 447 -395 433.5 -391 Q 420 -387 406 -387 Z M 94 -387 Q 80 -387 66.5 -391 Q 53 -395 42.5 -405.5 Q 32 -416 28 -429.5 Q 24 -443 24 -458 Q 24 -472 28 -485.5 Q 32 -499 42.5 -509.5 Q 53 -520 66.5 -524 Q 80 -528 95 -528 Q 109 -528 122.5 -524 Q 136 -520 146.5 -509.5 Q 157 -499 161 -485.5 Q 165 -472 165 -458 Q 165 -443 161 -429.5 Q 157 -416 146.5 -405.5 Q 136 -395 122.5 -391 Q 109 -387 94 -387 Z M 406 8 Q 391 8 377.5 4 Q 364 0 353.5 -10.5 Q 343 -21 339 -34.5 Q 335 -48 335 -63 Q 335 -77 339 -90.5 Q 343 -104 353.5 -114.5 Q 364 -125 377.5 -129 Q 391 -133 406 -133 Q 420 -133 433.5 -129 Q 447 -125 457.5 -114.5 Q 468 -104 472 -90.5 Q 476 -77 476 -63 Q 476 -48 472 -34.5 Q 468 -21 457.5 -10.5 Q 447 0 433.5 4 Q 420 8 406 8 Z M 94 8 Q 80 8 66.5 4 Q 53 0 42.5 -10.5 Q 32 -21 28 -34.5 Q 24 -48 24 -63 Q 24 -77 28 -90.5 Q 32 -104 42.5 -114.5 Q 53 -125 66.5 -129 Q 80 -133 95 -133 Q 109 -133 122.5 -129 Q 136 -125 146.5 -114.5 Q 157 -104 161 -90.5 Q 165 -77 165 -63 Q 165 -48 161 -34.5 Q 157 -21 146.5 -10.5 Q 136 0 122.5 4 Q 109 8 94 8 Z M 250 -190 Q 236 -190 222 -194 Q 208 -198 198 -208 Q 188 -218 183.5 -232 Q 179 -246 179 -260 Q 179 -274 183.5 -288 Q 188 -302 198 -312 Q 208 -322 222 -326.5 Q 236 -331 250 -331 Q 264 -331 278 -326.5 Q 292 -322 302 -312 Q 312 -302 316.5 -288 Q 321 -274 321 -260 Q 321 -246 316.5 -232 Q 312 -218 302 -208 Q 292 -198 278 -194 Q 264 -190 250 -190 Z " id="path81"/>
<path d="M 250 8 Q 234 8 219 3.5 Q 204 -1 192.5 -12.5 Q 181 -24 176.5 -39 Q 172 -54 172 -70 Q 172 -86 176.5 -101 Q 181 -116 192.5 -127.5 Q 204 -139 219 -143.5 Q 234 -148 250 -148 Q 266 -148 281 -143.5 Q 296 -139 307.5 -127.5 Q 319 -116 323.5 -101 Q 328 -86 328 -70 Q 328 -54 323.5 -39 Q 319 -24 307.5 -12.5 Q 296 -1 281 3.5 Q 266 8 250 8 Z M 250 -587 Q 234 -587 219 -591.5 Q 204 -596 192.5 -607.5 Q 181 -619 176.5 -634 Q 172 -649 172 -665 Q 172 -681 176.5 -696 Q 181 -711 192.5 -722.5 Q 204 -734 219 -738.5 Q 234 -743 250 -743 Q 266 -743 281 -738.5 Q 296 -734 307.5 -722.5 Q 319 -711 323.5 -696 Q 328 -681 328 -665 Q 328 -649 323.5 -634 Q 319 -619 307.5 -607.5 Q 296 -596 281 -591.5 Q 266 -587 250 -587 Z " id="path82"/>
<path d="M 250 -602 Q 236 -602 222 -606 Q 208 -610 198 -620.5 Q 188 -631 184 -644.5 Q 180 -658 180 -673 Q 180 -687 184 -700.5 Q 188 -714 198 -724.5 Q 208 -735 222 -739 Q 236 -743 250 -743 Q 264 -743 278 -739 Q 292 -735 302 -724.5 Q 312 -714 316.5 -700.5 Q 321 -687 321 -673 Q 321 -658 316.5 -644.5 Q 312 -631 302 -620.5 Q 292 -610 278 -606 Q 264 -602 250 -602 Z M 94 -297 Q 80 -297 66.5 -301 Q 53 -305 42.5 -315.5 Q 32 -326 28 -339.5 Q 24 -353 24 -368 Q 24 -382 28 -395.5 Q 32 -409 42.5 -419.5 Q 53 -430 66.5 -434 Q 80 -438 95 -438 Q 109 -438 122.5 -434 Q 136 -430 146.5 -419.5 Q 157 -409 161 -395.5 Q 165 -382 165 -368 Q 165 -353 161 -339.5 Q 157 -326 146.5 -315.5 Q 136 -305 122.5 -301 Q 109 -297 94 -297 Z M 406 -297 Q 391 -297 377.5 -301 Q 364 -305 353.5 -315.5 Q 343 -326 339 -339.5 Q 335 -353 335 -368 Q 335 -382 339 -395.5 Q 343 -409 353.5 -419.5 Q 364 -430 377.5 -434 Q 391 -438 406 -438 Q 420 -438 433.5 -434 Q 447 -430 457.5 -419.5 Q 468 -409 472 -395.5 Q 476 -382 476 -368 Q 476 -353 472 -339.5 Q 468 -326 457.5 -315.5 Q 447 -305 433.5 -301 Q 420 -297 406 -297 Z M 250 8 Q 236 8 222 4 Q 208 0 198 -10.5 Q 188 -21 183.5 -34.5 Q 179 -48 179 -63 Q 179 -77 183.5 -90.5 Q 188 -104 198 -114.5 Q 208 -125 222 -129 Q 236 -133 250 -133 Q 264 -133 278 -129 Q 292 -125 302 -114.5 Q 312 -104 316 -90.5 Q 320 -77 320 -63 Q 320 -48 316 -34.5 Q 312 -21 302 -10.5 Q 292 0 278 4 Q 264 8 250 8 Z " id="path83"/>
<path d="M 211 0 L 211 -225 L 32 -225 L 32 -295 L 211 -295 L 211 -520 L 289 -520 L 289 -295 L 468 -295 L 468 -225 L 289 -225 L 289 0 Z M 397 -343 Q 388 -343 378.5 -346 Q 369 -349 362.5 -355.5 Q 356 -362 353 -371.5 Q 350 -381 350 -390 Q 350 -399 353 -408.5 Q 356 -418 362.5 -424.5 Q 369 -431 378.5 -434 Q 388 -437 397 -437 Q 407 -437 416 -434 Q 425 -431 431.5 -424.5 Q 438 -418 441 -408.5 Q 444 -399 444 -390 Q 444 -381 441 -371.5 Q 438 -362 431.5 -355.5 Q 425 -349 416 -346 Q 407 -343 397 -343 Z M 103 -343 Q 93 -343 84 -346 Q 75 -349 68.5 -355.5 Q 62 -362 59 -371.5 Q 56 -381 56 -390 Q 56 -399 59 -408.5 Q 62 -418 68.5 -424.5 Q 75 -431 84 -434 Q 93 -437 103 -437 Q 112 -437 121.5 -434 Q 131 -431 137.5 -424.5 Q 144 -418 147 -408.5 Q 150 -399 150 -390 Q 150 -381 147 -371.5 Q 144 -362 137.5 -355.5 Q 131 -349 121.5 -346 Q 112 -343 103 -343 Z M 397 -83 Q 388 -83 378.5 -86 Q 369 -89 362.5 -95.5 Q 356 -102 353 -111.5 Q 350 -121 350 -130 Q 350 -139 353 -148.5 Q 356 -158 362.5 -164.5 Q 369 -171 378.5 -174 Q 388 -177 397 -177 Q 407 -177 416 -174 Q 425 -171 431.5 -164.5 Q 438 -158 441 -148.5 Q 444 -139 444 -130 Q 444 -121 441 -111.5 Q 438 -102 431.5 -95.5 Q 425 -89 416 -86 Q 407 -83 397 -83 Z M 103 -83 Q 93 -83 84 -86 Q 75 -89 68.5 -95.5 Q 62 -102 59 -111.5 Q 56 -121 56 -130 Q 56 -139 59 -148.5 Q 62 -158 68.5 -164.5 Q 75 -171 84 -174 Q 93 -177 103 -177 Q 112 -177 121.5 -174 Q 131 -171 137.5 -164.5 Q 144 -158 147 -148.5 Q 150 -139 150 -130 Q 150 -121 147 -111.5 Q 144 -102 137.5 -95.5 Q 131 -89 121.5 -86 Q 112 -83 103 -83 Z " id="path84"/>
<path d="M 250 -398 Q 237 -398 224 -402 Q 211 -406 202 -415 Q 193 -424 189 -437 Q 185 -450 185 -463 Q 185 -476 189 -489 Q 193 -502 202 -511 Q 211 -520 224 -524 Q 237 -528 250 -528 Q 263 -528 276 -524 Q 289 -520 298 -511 Q 307 -502 311 -489 Q 315 -476 315 -463 Q 315 -450 311 -437 Q 307 -424 298 -415 Q 289 -406 276 -402 Q 263 -398 250 -398 Z M 250 -195 Q 237 -195 224 -199 Q 211 -203 202 -212 Q 193 -221 189 -234 Q 185 -247 185 -260 Q 185 -273 189 -286 Q 193 -299 202 -308 Q 211 -317 224 -321 Q 237 -325 250 -325 Q 263 -325 276 -321 Q 289 -317 298 -308 Q 307 -299 311 -286 Q 315 -273 315 -260 Q 315 -247 311 -234 Q 307 -221 298 -212 Q 289 -203 276 -199 Q 263 -195 250 -195 Z M 250 8 Q 237 8 224 4 Q 211 -0 202 -9 Q 193 -18 189 -31 Q 185 -44 185 -57 Q 185 -70 189 -83 Q 193 -96 202 -105 Q 211 -114 224 -118 Q 237 -122 250 -122 Q 263 -122 276 -118 Q 289 -114 298 -105 Q 307 -96 311 -83 Q 315 -70 315 -57 Q 315 -44 311 -31 Q 307 -18 298 -9 Q 289 -0 276 4 Q 263 8 250 8 Z " id="path85"/>
<path d="M 250 -485 Q 237 -485 224 -489 Q 211 -493 202 -502 Q 193 -511 189 -524 Q 185 -537 185 -550 Q 185 -563 189 -575.5 Q 193 -588 202 -597.5 Q 211 -607 224 -611 Q 237 -615 250 -615 Q 263 -615 276 -611 Q 289 -607 298 -597.5 Q 307 -588 311 -575.5 Q 315 -563 315 -550 Q 315 -537 311 -524 Q 307 -511 298 -502 Q 289 -493 276 -489 Q 263 -485 250 -485 Z M 250 -292 Q 237 -292 224 -296 Q 211 -300 202 -309 Q 193 -318 189 -331 Q 185 -344 185 -357 Q 185 -370 189 -382.5 Q 193 -395 202 -404.5 Q 211 -414 224 -417.5 Q 237 -421 250 -421 Q 263 -421 276 -417.5 Q 289 -414 298 -404.5 Q 307 -395 311 -382.5 Q 315 -370 315 -357 Q 315 -344 311 -331 Q 307 -318 298 -309 Q 289 -300 276 -296 Q 263 -292 250 -292 Z M 250 -99 Q 237 -99 224 -102.5 Q 211 -106 202 -115.5 Q 193 -125 189 -137.5 Q 185 -150 185 -163 Q 185 -176 189 -189 Q 193 -202 202 -211 Q 211 -220 224 -224 Q 237 -228 250 -228 Q 263 -228 276 -224 Q 289 -220 298 -211 Q 307 -202 311 -189 Q 315 -176 315 -163 Q 315 -150 311 -137.5 Q 307 -125 298 -115.5 Q 289 -106 276 -102.5 Q 263 -99 250 -99 Z M 250 95 Q 237 95 224 91 Q 211 87 202 77.5 Q 193 68 189 55.5 Q 185 43 185 30 Q 185 17 189 4 Q 193 -9 202 -18 Q 211 -27 224 -31 Q 237 -35 250 -35 Q 263 -35 276 -31 Q 289 -27 298 -18 Q 307 -9 311 4 Q 315 17 315 30 Q 315 43 311 55.5 Q 307 68 298 77.5 Q 289 87 276 91 Q 263 95 250 95 Z " id="path86"/>
</defs>
<g>
<g data-source-text="0" fill="#20242e" transform="translate(174 41.292) rotate(0) scale(0.023999998)">
<use href="#path1" transform="translate(0 0)"/>
</g>
</g>
<g>
<g data-source-text="1" fill="#20242e" transform="translate(246 41.292) rotate(0) scale(0.023999998)">
<use href="#path2" transform="translate(0 0)"/>
</g>
</g>
<g>
<g data-source-text="2" fill="#20242e" transform="translate(318 41.292) rotate(0) scale(0.023999998)">
<use href="#path3" transform="translate(0 0)"/>
</g>
</g>
<g>
<g data-source-text="3" fill="#20242e" transform="translate(390 41.292) rotate(0) scale(0.023999998)">
<use href="#path4" transform="translate(0 0)"/>
</g>
</g>
<g>
<g data-source-text="4" fill="#20242e" transform="translate(462 41.292) rotate(0) scale(0.023999998)">
<use href="#path5" transform="translate(0 0)"/>
</g>
</g>
<g>
<g data-source-text="5" fill="#20242e" transform="translate(534 41.292) rotate(0) scale(0.023999998)">
<use href="#path6" transform="translate(0 0)"/>
</g>
</g>
<g>
<g data-source-text="6" fill="#20242e" transform="translate(606 41.292) rotate(0) scale(0.023999998)">
<use href="#path7" transform="translate(0 0)"/>
</g>
</g>
<g>
<g data-source-text="7" fill="#20242e" transform="translate(678 41.292) rotate(0) scale(0.023999998)">
<use href="#path8" transform="translate(0 0)"/>
</g>
</g>
<g>
<g data-source-text="8" fill="#20242e" transform="translate(750 41.292) rotate(0) scale(0.023999998)">
<use href="#path9" transform="translate(0 0)"/>
</g>
</g>
<g>
<g data-source-text="9" fill="#20242e" transform="translate(822 41.292) rotate(0) scale(0.023999998)">
<use href="#path10" transform="translate(0 0)"/>
</g>
</g>
<g>
<g data-source-text="A" fill="#20242e" transform="translate(894 41.292) rotate(0) scale(0.023999998)">
<use href="#path11" transform="translate(0 0)"/>
</g>
</g>
<g>
<g data-source-text="B" fill="#20242e" transform="translate(966 41.292) rotate(0) scale(0.023999998)">
<use href="#path12" transform="translate(0 0)"/>
</g>
</g>
<g>
<g data-source-text="C" fill="#20242e" transform="translate(1038 41.292) rotate(0) scale(0.023999998)">
<use href="#path13" transform="translate(0 0)"/>
</g>
</g>
<g>
<g data-source-text="D" fill="#20242e" transform="translate(1110 41.292) rotate(0) scale(0.023999998)">
<use href="#path14" transform="translate(0 0)"/>
</g>
</g>
<g>
<g data-source-text="E" fill="#20242e" transform="translate(1182 41.292) rotate(0) scale(0.023999998)">
<use href="#path15" transform="translate(0 0)"/>
</g>
</g>
<g>
<g data-source-text="F" fill="#20242e" transform="translate(1254 41.292) rotate(0) scale(0.023999998)">
<use href="#path16" transform="translate(0 0)"/>
</g>
</g>
<g>
<g data-source-text="U+2000" fill="#20242e" transform="translate(36 113.292) rotate(0) scale(0.023999998)">
<use href="#path17" transform="translate(0 0)"/>
<use href="#path18" transform="translate(500 0)"/>
<use href="#path3" transform="translate(1000 0)"/>
<use href="#path1" transform="translate(1500 0)"/>
<use href="#path1" transform="translate(2000 0)"/>
<use href="#path1" transform="translate(2500 0)"/>
</g>
</g>
<g>
<g data-source-text="" fill="#20242e" transform="translate(180 118.584) rotate(0) scale(0.047999997)"/>
</g>
<g>
<g data-source-text="" fill="#20242e" transform="translate(252 118.584) rotate(0) scale(0.047999997)"/>
</g>
<g>
<g data-source-text="" fill="#20242e" transform="translate(324 118.584) rotate(0) scale(0.047999997)"/>
</g>
<g>
<g data-source-text="" fill="#20242e" transform="translate(396 118.584) rotate(0) scale(0.047999997)"/>
</g>
<g>
<g data-source-text="" fill="#20242e" transform="translate(468 118.584) rotate(0) scale(0.047999997)"/>
</g>
<g>
<g data-source-text="" fill="#20242e" transform="translate(540 118.584) rotate(0) scale(0.047999997)"/>
</g>
<g>
<g data-source-text="" fill="#20242e" transform="translate(612 118.584) rotate(0) scale(0.047999997)"/>
</g>
<g>
<g data-source-text="" fill="#20242e" transform="translate(684 118.584) rotate(0) scale(0.047999997)"/>
</g>
<g>
<g data-source-text="" fill="#20242e" transform="translate(756 118.584) rotate(0) scale(0.047999997)"/>
</g>
<g>
<g data-source-text="" fill="#20242e" transform="translate(828 118.584) rotate(0) scale(0.047999997)"/>
</g>
<g>
<g data-source-text="" fill="#20242e" transform="translate(900 118.584) rotate(0) scale(0.047999997)"/>
</g>
<g>
<g data-source-text="" fill="#20242e" transform="translate(972 118.584) rotate(0) scale(0.047999997)"/>
</g>
<g>
<g data-source-text="" fill="#20242e" transform="translate(1044 118.584) rotate(0) scale(0.047999997)"/>
</g>
<g>
<g data-source-text="" fill="#20242e" transform="translate(1116 118.584) rotate(0) scale(0.047999997)"/>
</g>
<g>
<g data-source-text="" fill="#20242e40" transform="translate(1176 118.584) rotate(0) scale(0.047999997)">
<use href="#path19" transform="translate(0 0)"/>
</g>
</g>
<g>
<g data-source-text="" fill="#20242e40" transform="translate(1248 118.584) rotate(0) scale(0.047999997)">
<use href="#path19" transform="translate(0 0)"/>
</g>
</g>
<g>
<g data-source-text="U+2010" fill="#20242e" transform="translate(36 185.292) rotate(0) scale(0.023999998)">
<use href="#path17" transform="translate(0 0)"/>
<use href="#path18" transform="translate(500 0)"/>
<use href="#path3" transform="translate(1000 0)"/>
<use href="#path1" transform="translate(1500 0)"/>
<use href="#path2" transform="translate(2000 0)"/>
<use href="#path1" transform="translate(2500 0)"/>
</g>
</g>
<g>
<g data-source-text="" fill="#20242e" transform="translate(168 190.584) rotate(0) scale(0.047999997)">
<use href="#path20" transform="translate(0 0)"/>
</g>
</g>
<g>
<g data-source-text="" fill="#20242e" transform="translate(240 190.584) rotate(0) scale(0.047999997)">
<use href="#path20" transform="translate(0 0)"/>
</g>
</g>
<g>
<g data-source-text="" fill="#20242e" transform="translate(312 190.584) rotate(0) scale(0.047999997)">
<use href="#path20" transform="translate(0 0)"/>
</g>
</g>
<g>
<g data-source-text="" fill="#20242e" transform="translate(384 190.584) rotate(0) scale(0.047999997)">
<use href="#path21" transform="translate(0 0)"/>
</g>
</g>
<g>
<g data-source-text="" fill="#20242e" transform="translate(444 190.584) rotate(0) scale(0.047999997)">
<use href="#path22" transform="translate(0 0)"/>
</g>
</g>
<g>
<g data-source-text="" fill="#20242e" transform="translate(516 190.584) rotate(0) scale(0.047999997)">
<use href="#path22" transform="translate(0 0)"/>
</g>
</g>
<g>
<g data-source-text="" fill="#20242e" transform="translate(600 190.584) rotate(0) scale(0.047999997)">
<use href="#path23" transform="translate(0 0)"/>
</g>
</g>
<g>
<g data-source-text="" fill="#20242e" transform="translate(672 190.584) rotate(0) scale(0.047999997)">
<use href="#path24" transform="translate(0 0)"/>
</g>
</g>
<g>
<g data-source-text="" fill="#20242e" transform="translate(744 190.584) rotate(0) scale(0.047999997)">
<use href="#path25" transform="translate(0 0)"/>
</g>
</g>
<g>
<g data-source-text="" fill="#20242e" transform="translate(816 190.584) rotate(0) scale(0.047999997)">
<use href="#path26" transform="translate(0 0)"/>
</g>
</g>
<g>
<g data-source-text="" fill="#20242e" transform="translate(888 190.584) rotate(0) scale(0.047999997)">
<use href="#path27" transform="translate(0 0)"/>
</g>
</g>
<g>
<g data-source-text="" fill="#20242e" transform="translate(960 190.584) rotate(0) scale(0.047999997)">
<use href="#path28" transform="translate(0 0)"/>
</g>
</g>
<g>
<g data-source-text="" fill="#20242e" transform="translate(1032 190.584) rotate(0) scale(0.047999997)">
<use href="#path29" transform="translate(0 0)"/>
</g>
</g>
<g>
<g data-source-text="" fill="#20242e" transform="translate(1104 190.584) rotate(0) scale(0.047999997)">
<use href="#path30" transform="translate(0 0)"/>
</g>
</g>
<g>
<g data-source-text="" fill="#20242e" transform="translate(1176 190.584) rotate(0) scale(0.047999997)">
<use href="#path31" transform="translate(0 0)"/>
</g>
</g>
<g>
<g data-source-text="" fill="#20242e" transform="translate(1248 190.584) rotate(0) scale(0.047999997)">
<use href="#path32" transform="translate(0 0)"/>
</g>
</g>
<g>
<g data-source-text="U+2020" fill="#20242e" transform="translate(36 257.292) rotate(0) scale(0.023999998)">
<use href="#path17" transform="translate(0 0)"/>
<use href="#path18" transform="translate(500 0)"/>
<use href="#path3" transform="translate(1000 0)"/>
<use href="#path1" transform="translate(1500 0)"/>
<use href="#path3" transform="translate(2000 0)"/>
<use href="#path1" transform="translate(2500 0)"/>
</g>
</g>
<g>
<g data-source-text="" fill="#20242e" transform="translate(168 262.584) rotate(0) scale(0.047999997)">
<use href="#path33" transform="translate(0 0)"/>
</g>
</g>
<g>
<g data-source-text="" fill="#20242e" transform="translate(240 262.584) rotate(0) scale(0.047999997)">
<use href="#path34" transform="translate(0 0)"/>
</g>
</g>
<g>
<g data-source-text="" fill="#20242e" transform="translate(312 262.584) rotate(0) scale(0.047999997)">
<use href="#path35" transform="translate(0 0)"/>
</g>
</g>
<g>
<g data-source-text="" fill="#20242e" transform="translate(384 262.584) rotate(0) scale(0.047999997)">
<use href="#path36" transform="translate(0 0)"/>
</g>
</g>
<g>
<g data-source-text="" fill="#20242e" transform="translate(444 262.584) rotate(0) scale(0.047999997)">
<use href="#path37" transform="translate(0 0)"/>
</g>
</g>
<g>
<g data-source-text="" fill="#20242e" transform="translate(516 262.584) rotate(0) scale(0.047999997)">
<use href="#path38" transform="translate(0 0)"/>
</g>
</g>
<g>
<g data-source-text="" fill="#20242e" transform="translate(588 262.584) rotate(0) scale(0.047999997)">
<use href="#path39" transform="translate(0 0)"/>
</g>
</g>
<g>
<g data-source-text="" fill="#20242e" transform="translate(672 262.584) rotate(0) scale(0.047999997)">
<use href="#path40" transform="translate(0 0)"/>
</g>
</g>
<g>
<g data-source-text="" fill="#20242e" transform="translate(756 217.584) rotate(0) scale(0.047999997)"/>
</g>
<g>
<g data-source-text="" fill="#20242e" transform="translate(828 217.584) rotate(0) scale(0.047999997)"/>
</g>
<g>
<g data-source-text="" fill="#20242e40" transform="translate(888 262.584) rotate(0) scale(0.047999997)">
<use href="#path19" transform="translate(0 0)"/>
</g>
</g>
<g>
<g data-source-text="" fill="#20242e40" transform="translate(960 262.584) rotate(0) scale(0.047999997)">
<use href="#path19" transform="translate(0 0)"/>
</g>
</g>
<g>
<g data-source-text="" fill="#20242e40" transform="translate(1032 262.584) rotate(0) scale(0.047999997)">
<use href="#path19" transform="translate(0 0)"/>
</g>
</g>
<g>
<g data-source-text="" fill="#20242e40" transform="translate(1104 262.584) rotate(0) scale(0.047999997)">
<use href="#path19" transform="translate(0 0)"/>
</g>
</g>
<g>
<g data-source-text="" fill="#20242e40" transform="translate(1176 262.584) rotate(0) scale(0.047999997)">
<use href="#path19" transform="translate(0 0)"/>
</g>
</g>
<g>
<g data-source-text="" fill="#20242e" transform="translate(1260 262.584) rotate(0) scale(0.047999997)"/>
</g>
<g>
<g data-source-text="U+2030" fill="#20242e" transform="translate(36 329.292) rotate(0) scale(0.023999998)">
<use href="#path17" transform="translate(0 0)"/>
<use href="#path18" transform="translate(500 0)"/>
<use href="#path3" transform="translate(1000 0)"/>
<use href="#path1" transform="translate(1500 0)"/>
<use href="#path4" transform="translate(2000 0)"/>
<use href="#path1" transform="translate(2500 0)"/>
</g>
</g>
<g>
<g data-source-text="" fill="#20242e" transform="translate(156 334.584) rotate(0) scale(0.047999997)">
<use href="#path41" transform="translate(0 0)"/>
</g>
</g>
<g>
<g data-source-text="" fill="#20242e" transform="translate(228 334.584) rotate(0) scale(0.047999997)">
<use href="#path42" transform="translate(0 0)"/>
</g>
</g>
<g>
<g data-source-text="" fill="#20242e" transform="translate(312 334.584) rotate(0) scale(0.047999997)">
<use href="#path43" transform="translate(0 0)"/>
</g>
</g>
<g>
<g data-source-text="" fill="#20242e" transform="translate(384 334.584) rotate(0) scale(0.047999997)">
<use href="#path44" transform="translate(0 0)"/>
</g>
</g>
<g>
<g data-source-text="" fill="#20242e" transform="translate(456 334.584) rotate(0) scale(0.047999997)">
<use href="#path45" transform="translate(0 0)"/>
</g>
</g>
<g>
<g data-source-text="" fill="#20242e" transform="translate(528 334.584) rotate(0) scale(0.047999997)">
<use href="#path46" transform="translate(0 0)"/>
</g>
</g>
<g>
<g data-source-text="" fill="#20242e" transform="translate(600 334.584) rotate(0) scale(0.047999997)">
<use href="#path47" transform="translate(0 0)"/>
</g>
</g>
<g>
<g data-source-text="" fill="#20242e" transform="translate(672 334.584) rotate(0) scale(0.047999997)">
<use href="#path48" transform="translate(0 0)"/>
</g>
</g>
<g>
<g data-source-text="" fill="#20242e" transform="translate(744 334.584) rotate(0) scale(0.047999997)">
<use href="#path49" transform="translate(0 0)"/>
</g>
</g>
<g>
<g data-source-text="" fill="#20242e" transform="translate(816 334.584) rotate(0) scale(0.047999997)">
<use href="#path50" transform="translate(0 0)"/>
</g>
</g>
<g>
<g data-source-text="" fill="#20242e" transform="translate(888 334.584) rotate(0) scale(0.047999997)">
<use href="#path51" transform="translate(0 0)"/>
</g>
</g>
<g>
<g data-source-text="" fill="#20242e" transform="translate(948 334.584) rotate(0) scale(0.047999997)">
<use href="#path52" transform="translate(0 0)"/>
</g>
</g>
<g>
<g data-source-text="" fill="#20242e" transform="translate(1032 334.584) rotate(0) scale(0.047999997)">
<use href="#path53" transform="translate(0 0)"/>
</g>
</g>
<g>
<g data-source-text="" fill="#20242e" transform="translate(1104 334.584) rotate(0) scale(0.047999997)">
<use href="#path54" transform="translate(0 0)"/>
</g>
</g>
<g>
<g data-source-text="" fill="#20242e" transform="translate(1176 334.584) rotate(0) scale(0.047999997)">
<use href="#path55" transform="translate(0 0)"/>
</g>
</g>
<g>
<g data-source-text="" fill="#20242e" transform="translate(1248 334.584) rotate(0) scale(0.047999997)">
<use href="#path56" transform="translate(0 0)"/>
</g>
</g>
<g>
<g data-source-text="U+2040" fill="#20242e" transform="translate(36 401.292) rotate(0) scale(0.023999998)">
<use href="#path17" transform="translate(0 0)"/>
<use href="#path18" transform="translate(500 0)"/>
<use href="#path3" transform="translate(1000 0)"/>
<use href="#path1" transform="translate(1500 0)"/>
<use href="#path5" transform="translate(2000 0)"/>
<use href="#path1" transform="translate(2500 0)"/>
</g>
</g>
<g>
<g data-source-text="" fill="#20242e" transform="translate(168 406.584) rotate(0) scale(0.047999997)">
<use href="#path57" transform="translate(0 0)"/>
</g>
</g>
<g>
<g data-source-text="" fill="#20242e" transform="translate(240 406.584) rotate(0) scale(0.047999997)">
<use href="#path58" transform="translate(0 0)"/>
</g>
</g>
<g>
<g data-source-text="" fill="#20242e" transform="translate(300 406.584) rotate(0) scale(0.047999997)">
<use href="#path59" transform="translate(0 0)"/>
</g>
</g>
<g>
<g data-source-text="" fill="#20242e" transform="translate(384 406.584) rotate(0) scale(0.047999997)">
<use href="#path20" transform="translate(0 0)"/>
</g>
</g>
<g>
<g data-source-text="" fill="#20242e" transform="translate(456 406.584) rotate(0) scale(0.047999997)">
<use href="#path60" transform="translate(0 0)"/>
</g>
</g>
<g>
<g data-source-text="" fill="#20242e" transform="translate(528 406.584) rotate(0) scale(0.047999997)">
<use href="#path61" transform="translate(0 0)"/>
</g>
</g>
<g>
<g data-source-text="" fill="#20242e" transform="translate(600 406.584) rotate(0) scale(0.047999997)">
<use href="#path62" transform="translate(0 0)"/>
</g>
</g>
<g>
<g data-source-text="" fill="#20242e" transform="translate(672 406.584) rotate(0) scale(0.047999997)">
<use href="#path63" transform="translate(0 0)"/>
</g>
</g>
<g>
<g data-source-text="" fill="#20242e" transform="translate(744 406.584) rotate(0) scale(0.047999997)">
<use href="#path64" transform="translate(0 0)"/>
</g>
</g>
<g>
<g data-source-text="" fill="#20242e" transform="translate(816 406.584) rotate(0) scale(0.047999997)">
<use href="#path65" transform="translate(0 0)"/>
</g>
</g>
<g>
<g data-source-text="" fill="#20242e" transform="translate(888 406.584) rotate(0) scale(0.047999997)">
<use href="#path66" transform="translate(0 0)"/>
</g>
</g>
<g>
<g data-source-text="" fill="#20242e" transform="translate(960 406.584) rotate(0) scale(0.047999997)">
<use href="#path67" transform="translate(0 0)"/>
</g>
</g>
<g>
<g data-source-text="" fill="#20242e" transform="translate(1032 406.584) rotate(0) scale(0.047999997)">
<use href="#path68" transform="translate(0 0)"/>
</g>
</g>
<g>
<g data-source-text="" fill="#20242e" transform="translate(1104 406.584) rotate(0) scale(0.047999997)">
<use href="#path69" transform="translate(0 0)"/>
</g>
</g>
<g>
<g data-source-text="" fill="#20242e" transform="translate(1176 406.584) rotate(0) scale(0.047999997)">
<use href="#path70" transform="translate(0 0)"/>
</g>
</g>
<g>
<g data-source-text="" fill="#20242e" transform="translate(1248 406.584) rotate(0) scale(0.047999997)">
<use href="#path71" transform="translate(0 0)"/>
</g>
</g>
<g>
<g data-source-text="U+2050" fill="#20242e" transform="translate(36 473.292) rotate(0) scale(0.023999998)">
<use href="#path17" transform="translate(0 0)"/>
<use href="#path18" transform="translate(500 0)"/>
<use href="#path3" transform="translate(1000 0)"/>
<use href="#path1" transform="translate(1500 0)"/>
<use href="#path6" transform="translate(2000 0)"/>
<use href="#path1" transform="translate(2500 0)"/>
</g>
</g>
<g>
<g data-source-text="" fill="#20242e" transform="translate(168 478.584) rotate(0) scale(0.047999997)">
<use href="#path72" transform="translate(0 0)"/>
</g>
</g>
<g>
<g data-source-text="" fill="#20242e" transform="translate(240 478.584) rotate(0) scale(0.047999997)">
<use href="#path73" transform="translate(0 0)"/>
</g>
</g>
<g>
<g data-source-text="" fill="#20242e" transform="translate(312 478.584) rotate(0) scale(0.047999997)">
<use href="#path74" transform="translate(0 0)"/>
</g>
</g>
<g>
<g data-source-text="" fill="#20242e" transform="translate(372 478.584) rotate(0) scale(0.047999997)">
<use href="#path75" transform="translate(0 0)"/>
</g>
</g>
<g>
<g data-source-text="" fill="#20242e" transform="translate(456 478.584) rotate(0) scale(0.047999997)">
<use href="#path76" transform="translate(0 0)"/>
</g>
</g>
<g>
<g data-source-text="" fill="#20242e" transform="translate(528 478.584) rotate(0) scale(0.047999997)">
<use href="#path77" transform="translate(0 0)"/>
</g>
</g>
<g>
<g data-source-text="" fill="#20242e" transform="translate(600 478.584) rotate(0) scale(0.047999997)">
<use href="#path78" transform="translate(0 0)"/>
</g>
</g>
<g>
<g data-source-text="" fill="#20242e" transform="translate(672 478.584) rotate(0) scale(0.047999997)">
<use href="#path79" transform="translate(0 0)"/>
</g>
</g>
<g>
<g data-source-text="" fill="#20242e" transform="translate(744 478.584) rotate(0) scale(0.047999997)">
<use href="#path80" transform="translate(0 0)"/>
</g>
</g>
<g>
<g data-source-text="" fill="#20242e" transform="translate(816 478.584) rotate(0) scale(0.047999997)">
<use href="#path81" transform="translate(0 0)"/>
</g>
</g>
<g>
<g data-source-text="" fill="#20242e" transform="translate(888 478.584) rotate(0) scale(0.047999997)">
<use href="#path82" transform="translate(0 0)"/>
</g>
</g>
<g>
<g data-source-text="" fill="#20242e" transform="translate(960 478.584) rotate(0) scale(0.047999997)">
<use href="#path83" transform="translate(0 0)"/>
</g>
</g>
<g>
<g data-source-text="" fill="#20242e" transform="translate(1032 478.584) rotate(0) scale(0.047999997)">
<use href="#path84" transform="translate(0 0)"/>
</g>
</g>
<g>
<g data-source-text="" fill="#20242e" transform="translate(1104 478.584) rotate(0) scale(0.047999997)">
<use href="#path85" transform="translate(0 0)"/>
</g>
</g>
<g>
<g data-source-text="" fill="#20242e" transform="translate(1176 478.584) rotate(0) scale(0.047999997)">
<use href="#path86" transform="translate(0 0)"/>
</g>
</g>
<g>
<g data-source-text="" fill="#20242e" transform="translate(1260 478.584) rotate(0) scale(0.047999997)"/>
</g>
<g>
<g data-source-text="U+2060" fill="#20242e" transform="translate(36 545.292) rotate(0) scale(0.023999998)">
<use href="#path17" transform="translate(0 0)"/>
<use href="#path18" transform="translate(500 0)"/>
<use href="#path3" transform="translate(1000 0)"/>
<use href="#path1" transform="translate(1500 0)"/>
<use href="#path7" transform="translate(2000 0)"/>
<use href="#path1" transform="translate(2500 0)"/>
</g>
</g>
<g>
<g data-source-text="" fill="#20242e" transform="translate(180 550.584) rotate(0) scale(0.047999997)"/>
</g>
<g>
<g data-source-text="" fill="#20242e" transform="translate(252 550.584) rotate(0) scale(0.047999997)"/>
</g>
<g>
<g data-source-text="" fill="#20242e" transform="translate(324 550.584) rotate(0) scale(0.047999997)"/>
</g>
<g>
<g data-source-text="" fill="#20242e" transform="translate(396 550.584) rotate(0) scale(0.047999997)"/>
</g>
<g>
<g data-source-text="" fill="#20242e" transform="translate(468 550.584) rotate(0) scale(0.047999997)"/>
</g>
<g>
<g data-source-text="" fill="#20242e40" transform="translate(528 550.584) rotate(0) scale(0.047999997)">
<use href="#path19" transform="translate(0 0)"/>
</g>
</g>
<g>
<g data-source-text="" fill="#20242e40" transform="translate(600 550.584) rotate(0) scale(0.047999997)">
<use href="#path19" transform="translate(0 0)"/>
</g>
</g>
<g>
<g data-source-text="" fill="#20242e40" transform="translate(672 550.584) rotate(0) scale(0.047999997)">
<use href="#path19" transform="translate(0 0)"/>
</g>
</g>
<g>
<g data-source-text="" fill="#20242e40" transform="translate(744 550.584) rotate(0) scale(0.047999997)">
<use href="#path19" transform="translate(0 0)"/>
</g>
</g>
<g>
<g data-source-text="" fill="#20242e40" transform="translate(816 550.584) rotate(0) scale(0.047999997)">
<use href="#path19" transform="translate(0 0)"/>
</g>
</g>
<g>
<g data-source-text="" fill="#20242e40" transform="translate(888 550.584) rotate(0) scale(0.047999997)">
<use href="#path19" transform="translate(0 0)"/>
</g>
</g>
<g>
<g data-source-text="" fill="#20242e40" transform="translate(960 550.584) rotate(0) scale(0.047999997)">
<use href="#path19" transform="translate(0 0)"/>
</g>
</g>
<g>
<g data-source-text="" fill="#20242e40" transform="translate(1032 550.584) rotate(0) scale(0.047999997)">
<use href="#path19" transform="translate(0 0)"/>
</g>
</g>
<g>
<g data-source-text="" fill="#20242e40" transform="translate(1104 550.584) rotate(0) scale(0.047999997)">
<use href="#path19" transform="translate(0 0)"/>
</g>
</g>
<g>
<g data-source-text="" fill="#20242e40" transform="translate(1176 550.584) rotate(0) scale(0.047999997)">
<use href="#path19" transform="translate(0 0)"/>
</g>
</g>
<g>
<g data-source-text="" fill="#20242e40" transform="translate(1248 550.584) rotate(0) scale(0.047999997)">
<use href="#path19" transform="translate(0 0)"/>
</g>
</g>
</svg>