<?xml version="1.0" encoding="UTF-8" standalone="no"?>
<svg height="216" viewBox="0 0 1296 216" width="1296" xmlns="http://www.w3.org/2000/svg">
<defs>
<path d="M 250 8 Q 223 8 196 3 Q 169 -2 145 -15.5 Q 121 -29 102.5 -49 Q 84 -69 72.5 -94 Q 61 -119 56.5 -146 Q 52 -173 52 -200 L 52 -535 Q 52 -562 56.5 -589 Q 61 -616 72.5 -641 Q 84 -666 102.5 -686 Q 121 -706 145 -719.5 Q 169 -733 196 -738 Q 223 -743 250 -743 Q 277 -743 304 -738 Q 331 -733 355 -720 Q 379 -707 397.5 -686.5 Q 416 -666 427.5 -641 Q 439 -616 443.5 -589 Q 448 -562 448 -535 L 448 -200 Q 448 -173 443.5 -146 Q 439 -119 427.5 -94 Q 416 -69 397.5 -49 Q 379 -29 355 -15.5 Q 331 -2 304 3 Q 277 8 250 8 Z M 153 -337 L 347 -491 L 347 -535 Q 347 -557 342.5 -578.5 Q 338 -600 325.5 -618 Q 313 -636 292.5 -645.5 Q 272 -655 250 -655 Q 228 -655 207.5 -645.5 Q 187 -636 174.5 -618 Q 162 -600 157.5 -578.5 Q 153 -557 153 -535 Z M 250 -80 Q 272 -80 292.5 -89.5 Q 313 -99 325.5 -117 Q 338 -135 342.5 -156.5 Q 347 -178 347 -200 L 347 -398 L 153 -244 L 153 -200 Q 153 -178 157.5 -156.5 Q 162 -135 174.5 -117 Q 187 -99 207.5 -89.5 Q 228 -80 250 -80 Z " id="path1"/>
<path d="M 230 0 L 230 -631 L 110 -528 L 55 -584 L 230 -735 L 330 -735 L 330 0 Z " id="path2"/>
<path d="M 440 0 L 60 0 L 60 -1 Q 60 -27 61 -53.5 Q 62 -80 66 -106.5 Q 70 -133 77.5 -158.5 Q 85 -184 96.5 -207.5 Q 108 -231 123 -253 Q 138 -275 156 -294.5 Q 174 -314 194 -331 Q 214 -348 235.5 -364 Q 257 -380 277.5 -397 Q 298 -414 313 -435.5 Q 328 -457 335.5 -483 Q 343 -509 343 -535 Q 343 -557 339 -578 Q 335 -599 323.5 -617 Q 312 -635 292 -645 Q 272 -655 251 -655 Q 231 -655 212.5 -647.5 Q 194 -640 182 -625 Q 170 -610 164.5 -591 Q 159 -572 159 -552 L 159 -548 L 58 -548 L 58 -555 Q 58 -581 64 -605.5 Q 70 -630 81.5 -652.5 Q 93 -675 111.5 -693 Q 130 -711 152.5 -722.5 Q 175 -734 200.5 -738.5 Q 226 -743 251 -743 Q 278 -743 304.5 -737.5 Q 331 -732 354.5 -719 Q 378 -706 396 -685.5 Q 414 -665 424.5 -640.5 Q 435 -616 439.5 -589 Q 444 -562 444 -535 Q 444 -501 435 -468 Q 426 -435 407.5 -406 Q 389 -377 364 -353.5 Q 339 -330 312.5 -308.5 Q 286 -287 261 -264 Q 236 -241 216.5 -213 Q 197 -185 184 -153.5 Q 171 -122 166 -88 L 440 -88 Z " id="path3"/>
<path d="M 253 8 Q 227 8 201 4 Q 175 -0 151.5 -11.5 Q 128 -23 108.5 -40.5 Q 89 -58 76 -81 Q 63 -104 56.5 -129.5 Q 50 -155 50 -181 L 50 -187 L 151 -187 L 151 -184 Q 151 -163 157.5 -143 Q 164 -123 178 -108 Q 192 -93 212 -86.5 Q 232 -80 253 -80 Q 275 -80 296 -88.5 Q 317 -97 330.5 -115 Q 344 -133 349.5 -154.5 Q 355 -176 355 -198 Q 355 -217 351 -235.5 Q 347 -254 338.5 -271 Q 330 -288 316.5 -301 Q 303 -314 286 -322 Q 269 -330 250 -332 Q 231 -334 212 -334 L 212 -422 Q 229 -422 246 -424 Q 263 -426 278.5 -433 Q 294 -440 306 -452.5 Q 318 -465 325.5 -480.5 Q 333 -496 336 -513 Q 339 -530 339 -547 Q 339 -566 335 -585.5 Q 331 -605 320 -621 Q 309 -637 291 -646 Q 273 -655 253 -655 Q 234 -655 216.5 -647 Q 199 -639 187.5 -624 Q 176 -609 171.5 -590 Q 167 -571 167 -552 L 167 -548 L 66 -548 L 66 -556 Q 66 -581 71.5 -605.5 Q 77 -630 88.5 -652 Q 100 -674 117.5 -692.5 Q 135 -711 157 -722.5 Q 179 -734 203.5 -738.5 Q 228 -743 253 -743 Q 278 -743 303 -738 Q 328 -733 350.5 -721 Q 373 -709 390 -690 Q 407 -671 418 -648 Q 429 -625 434.5 -600 Q 440 -575 440 -550 Q 440 -524 434 -498.5 Q 428 -473 415.5 -450.5 Q 403 -428 384.5 -409.5 Q 366 -391 343 -379 Q 369 -368 391 -348.5 Q 413 -329 427.5 -304.5 Q 442 -280 449 -252 Q 456 -224 456 -195 Q 456 -168 450 -141.5 Q 444 -115 432 -91 Q 420 -67 401 -47 Q 382 -27 358 -14.5 Q 334 -2 307 3 Q 280 8 253 8 Z " id="path4"/>
<path d="M 282 0 L 282 -188 L 52 -188 L 52 -275 L 276 -735 L 385 -735 L 161 -275 L 282 -275 L 282 -435 L 382 -435 L 382 -275 L 440 -275 L 440 -188 L 382 -188 L 382 0 Z " id="path5"/>
<path d="M 252 8 Q 227 8 202.5 3.5 Q 178 -1 155.5 -12 Q 133 -23 115 -41 Q 97 -59 85 -80.5 Q 73 -102 66.5 -126.5 Q 60 -151 59 -176 L 159 -176 Q 161 -158 167 -139.5 Q 173 -121 185.5 -107 Q 198 -93 216 -86.5 Q 234 -80 252 -80 Q 269 -80 285 -87 Q 301 -94 312 -107 Q 323 -120 330 -135.5 Q 337 -151 340.5 -167.5 Q 344 -184 345.5 -201 Q 347 -218 347 -235 Q 347 -252 346 -269 Q 345 -286 341 -302.5 Q 337 -319 331 -334.5 Q 325 -350 314 -363 Q 303 -376 287.5 -383.5 Q 272 -391 256 -391 Q 240 -391 224.5 -387 Q 209 -383 196 -373.5 Q 183 -364 176 -349.5 Q 169 -335 168 -319 L 68 -319 L 68 -735 L 421 -735 L 421 -647 L 168 -647 L 168 -464 Q 189 -472 211 -475 Q 233 -478 256 -478 Q 285 -478 313.5 -470.5 Q 342 -463 365.5 -445.5 Q 389 -428 405.5 -403 Q 422 -378 431.5 -350.5 Q 441 -323 444.5 -294 Q 448 -265 448 -235 Q 448 -206 444 -176.5 Q 440 -147 430.5 -119 Q 421 -91 404 -66.5 Q 387 -42 363.5 -24.5 Q 340 -7 311 0.5 Q 282 8 252 8 Z " id="path6"/>
<path d="M 250 8 Q 219 8 189 -0.5 Q 159 -9 135 -28 Q 111 -47 94.5 -73.5 Q 78 -100 68.5 -129.5 Q 59 -159 55.5 -189.5 Q 52 -220 52 -250 Q 52 -291 60 -331 Q 68 -371 82 -409 Q 96 -447 114 -483.5 Q 132 -520 150 -556 L 238 -735 L 347 -735 L 240 -517 Q 232 -500 223 -483.5 Q 214 -467 205 -451 Q 217 -454 229 -455 Q 241 -456 253 -456 Q 281 -456 309.5 -449 Q 338 -442 361.5 -426 Q 385 -410 402.5 -386.5 Q 420 -363 430 -336.5 Q 440 -310 444 -281.5 Q 448 -253 448 -224 Q 448 -195 444 -166.5 Q 440 -138 429.5 -111 Q 419 -84 401.5 -60.5 Q 384 -37 360 -21 Q 336 -5 307.5 1.5 Q 279 8 250 8 Z M 250 -80 Q 266 -80 282 -85.5 Q 298 -91 309.5 -102.5 Q 321 -114 328.5 -129 Q 336 -144 340 -159.5 Q 344 -175 345.5 -191.5 Q 347 -208 347 -224 Q 347 -240 345.5 -256.5 Q 344 -273 340 -288.5 Q 336 -304 328.5 -319 Q 321 -334 309.5 -345.5 Q 298 -357 282.5 -362.5 Q 267 -368 251 -368 Q 234 -368 218.5 -362.5 Q 203 -357 191.5 -345.5 Q 180 -334 172 -319.5 Q 164 -305 160 -289 Q 156 -273 154.5 -256.5 Q 153 -240 153 -224 Q 153 -208 154.5 -191.5 Q 156 -175 160 -159.5 Q 164 -144 171.5 -129 Q 179 -114 190.5 -102.5 Q 202 -91 218 -85.5 Q 234 -80 250 -80 Z " id="path7"/>
<path d="M 242 0 L 138 0 L 336 -647 L 60 -647 L 60 -735 L 440 -735 L 440 -647 Z " id="path8"/>
<path d="M 250 8 Q 225 8 200 4 Q 175 -0 152 -10 Q 129 -20 109.5 -37 Q 90 -54 77.5 -75.5 Q 65 -97 58.5 -121.5 Q 52 -146 52 -172 Q 52 -203 62 -232.5 Q 72 -262 88.5 -288 Q 105 -314 127 -336 Q 149 -358 174 -378 Q 152 -396 132.5 -417 Q 113 -438 98.5 -462.5 Q 84 -487 76 -514.5 Q 68 -542 68 -570 Q 68 -594 73.5 -617 Q 79 -640 90.5 -661 Q 102 -682 119.5 -698.5 Q 137 -715 158 -725 Q 179 -735 202.5 -739 Q 226 -743 250 -743 Q 274 -743 297.5 -739 Q 321 -735 342 -725 Q 363 -715 380.5 -698.5 Q 398 -682 409.5 -661 Q 421 -640 426.5 -617 Q 432 -594 432 -570 Q 432 -542 424 -514.5 Q 416 -487 401.5 -462.5 Q 387 -438 367.5 -417 Q 348 -396 326 -378 Q 351 -358 373 -336 Q 395 -314 411.5 -288 Q 428 -262 438 -232.5 Q 448 -203 448 -172 Q 448 -146 441.5 -121.5 Q 435 -97 422.5 -75.5 Q 410 -54 390.5 -37 Q 371 -20 348 -10 Q 325 -0 300 4 Q 275 8 250 8 Z M 250 -435 Q 266 -447 280.5 -461.5 Q 295 -476 306.5 -493 Q 318 -510 325 -529.5 Q 332 -549 332 -569 Q 332 -586 326.5 -602.5 Q 321 -619 310 -631.5 Q 299 -644 283 -649.5 Q 267 -655 250 -655 Q 233 -655 217 -649.5 Q 201 -644 190 -631.5 Q 179 -619 173.5 -602.5 Q 168 -586 168 -569 Q 168 -549 175 -529.5 Q 182 -510 193.5 -493 Q 205 -476 219.5 -461.5 Q 234 -447 250 -435 Z M 250 -80 Q 269 -80 287.5 -85.5 Q 306 -91 320 -104 Q 334 -117 340.5 -135.5 Q 347 -154 347 -173 Q 347 -196 338.5 -217.5 Q 330 -239 316.5 -257.5 Q 303 -276 285.5 -291 Q 268 -306 250 -320 Q 232 -306 214.5 -291 Q 197 -276 183.5 -257.5 Q 170 -239 161.5 -217.5 Q 153 -196 153 -173 Q 153 -154 159.5 -135.5 Q 166 -117 180 -104 Q 194 -91 212.5 -85.5 Q 231 -80 250 -80 Z " id="path9"/>
<path d="M 262 0 L 153 0 L 260 -218 Q 268 -235 277 -251.5 Q 286 -268 295 -284 Q 283 -281 271 -280 Q 259 -279 247 -279 Q 219 -279 190.5 -286 Q 162 -293 138.5 -309 Q 115 -325 97.5 -348.5 Q 80 -372 70 -398.5 Q 60 -425 56 -453.5 Q 52 -482 52 -511 Q 52 -540 56 -568.5 Q 60 -597 70.5 -624 Q 81 -651 98.5 -674.5 Q 116 -698 140 -714 Q 164 -730 192.5 -736.5 Q 221 -743 250 -743 Q 281 -743 311 -734.5 Q 341 -726 365 -707 Q 389 -688 405.5 -661.5 Q 422 -635 431.5 -605.5 Q 441 -576 444.5 -545.5 Q 448 -515 448 -485 Q 448 -444 440 -404 Q 432 -364 418 -326 Q 404 -288 386 -251.5 Q 368 -215 350 -179 Z M 249 -367 Q 266 -367 281.5 -372.5 Q 297 -378 308.5 -389.5 Q 320 -401 328 -415.5 Q 336 -430 340 -446 Q 344 -462 345.5 -478.5 Q 347 -495 347 -511 Q 347 -527 345.5 -543.5 Q 344 -560 340 -575.5 Q 336 -591 328.5 -606 Q 321 -621 309.5 -632.5 Q 298 -644 282 -649.5 Q 266 -655 250 -655 Q 234 -655 218 -649.5 Q 202 -644 190.5 -632.5 Q 179 -621 171.5 -606 Q 164 -591 160 -575.5 Q 156 -560 154.5 -543.5 Q 153 -527 153 -511 Q 153 -495 154.5 -478.5 Q 156 -462 160 -446.5 Q 164 -431 171.5 -416 Q 179 -401 190.5 -389.5 Q 202 -378 217.5 -372.5 Q 233 -367 249 -367 Z " id="path10"/>
<path d="M 39 0 L 192 -735 L 308 -735 L 461 0 L 358 0 L 326 -172 L 174 -172 L 142 0 Z M 309 -260 L 265 -490 Q 262 -511 258 -531.5 Q 254 -552 250 -572 Q 246 -552 242 -531.5 Q 238 -511 235 -490 L 191 -260 Z " id="path11"/>
<path d="M 60 0 L 60 -735 L 234 -735 Q 261 -735 287 -730.5 Q 313 -726 336 -714 Q 359 -702 377.5 -682.5 Q 396 -663 408 -639.5 Q 420 -616 424.5 -590 Q 429 -564 429 -538 Q 429 -515 425 -492 Q 421 -469 410.5 -448.5 Q 400 -428 383.5 -411 Q 367 -394 347 -383 Q 372 -373 393.5 -355.5 Q 415 -338 429.5 -314.5 Q 444 -291 450 -264 Q 456 -237 456 -210 Q 456 -181 450 -152.5 Q 444 -124 430 -98.5 Q 416 -73 394.5 -53.5 Q 373 -34 347 -21.5 Q 321 -9 292 -4.5 Q 263 -0 234 0 Z M 161 -424 L 234 -424 Q 255 -424 274.5 -432.5 Q 294 -441 306.5 -457.5 Q 319 -474 324 -494.5 Q 329 -515 329 -536 Q 329 -557 324 -577.5 Q 319 -598 306.5 -614.5 Q 294 -631 274.5 -639 Q 255 -647 234 -647 L 161 -647 Z M 161 -88 L 234 -88 Q 251 -88 267 -91 Q 283 -94 297.5 -101.5 Q 312 -109 323.5 -121 Q 335 -133 342.5 -148 Q 350 -163 352.5 -179 Q 355 -195 355 -212 Q 355 -228 352.5 -244.5 Q 350 -261 343 -276 Q 336 -291 324.5 -303 Q 313 -315 298 -322.5 Q 283 -330 267 -333 Q 251 -336 234 -336 L 161 -336 Z " id="path12"/>
<path d="M 247 8 Q 220 8 193 2.5 Q 166 -3 142.5 -16 Q 119 -29 101 -49.5 Q 83 -70 72 -94.5 Q 61 -119 56.5 -146 Q 52 -173 52 -200 L 52 -535 Q 52 -562 56.5 -589 Q 61 -616 72 -640.5 Q 83 -665 101 -685.5 Q 119 -706 142.5 -719 Q 166 -732 193 -737.5 Q 220 -743 247 -743 Q 273 -743 298 -738.5 Q 323 -734 346 -723 Q 369 -712 387.5 -694 Q 406 -676 418 -653.5 Q 430 -631 436 -606 Q 442 -581 442 -555 L 442 -548 L 341 -548 L 341 -552 Q 341 -572 335.5 -591 Q 330 -610 317.5 -625.5 Q 305 -641 286 -648 Q 267 -655 247 -655 Q 225 -655 205 -645.5 Q 185 -636 173 -618 Q 161 -600 157 -578.5 Q 153 -557 153 -535 L 153 -200 Q 153 -178 157 -156.5 Q 161 -135 173 -117 Q 185 -99 205 -89.5 Q 225 -80 247 -80 Q 267 -80 286 -87 Q 305 -94 317.5 -109.5 Q 330 -125 335.5 -144 Q 341 -163 341 -183 L 341 -187 L 442 -187 L 442 -180 Q 442 -154 436 -129 Q 430 -104 418 -81.5 Q 406 -59 387.5 -41 Q 369 -23 346 -12 Q 323 -1 298 3.5 Q 273 8 247 8 Z " id="path13"/>
<path d="M 60 0 L 60 -735 L 219 -735 Q 249 -735 279 -730 Q 309 -725 336.5 -712 Q 364 -699 386 -678.5 Q 408 -658 422 -631.5 Q 436 -605 442 -575 Q 448 -545 448 -515 L 448 -220 Q 448 -190 442 -160 Q 436 -130 422 -103.5 Q 408 -77 386 -56.5 Q 364 -36 336.5 -23 Q 309 -10 279 -5 Q 249 -0 219 0 Z M 161 -88 L 219 -88 Q 237 -88 254 -91 Q 271 -94 286.5 -102.5 Q 302 -111 314 -124 Q 326 -137 333.5 -152.5 Q 341 -168 344 -185.5 Q 347 -203 347 -220 L 347 -515 Q 347 -532 344 -549.5 Q 341 -567 333.5 -582.5 Q 326 -598 314 -611 Q 302 -624 286.5 -632.5 Q 271 -641 254 -644 Q 237 -647 219 -647 L 161 -647 Z " id="path14"/>
<path d="M 68 0 L 68 -735 L 440 -735 L 440 -647 L 169 -647 L 169 -426 L 383 -426 L 383 -338 L 169 -338 L 169 -88 L 440 -88 L 440 0 Z " id="path15"/>
<path d="M 91 0 L 91 -735 L 440 -735 L 440 -647 L 191 -647 L 191 -426 L 383 -426 L 383 -338 L 191 -338 L 191 0 Z " id="path16"/>
<path d="M 250 8 Q 223 8 196.5 2.5 Q 170 -3 147 -16.5 Q 124 -30 106.5 -50.5 Q 89 -71 78.5 -95.5 Q 68 -120 64 -146.5 Q 60 -173 60 -200 L 60 -735 L 161 -735 L 161 -200 Q 161 -186 162.5 -172 Q 164 -158 168 -144.5 Q 172 -131 179.5 -118.5 Q 187 -106 197.5 -97 Q 208 -88 222 -84 Q 236 -80 250 -80 Q 264 -80 278 -84 Q 292 -88 302.5 -97 Q 313 -106 320.5 -118.5 Q 328 -131 332 -144.5 Q 336 -158 337.5 -172 Q 339 -186 339 -200 L 339 -735 L 440 -735 L 440 -200 Q 440 -173 436 -146.5 Q 432 -120 421.5 -95.5 Q 411 -71 393.5 -50.5 Q 376 -30 353 -16.5 Q 330 -3 303.5 2.5 Q 277 8 250 8 Z " id="path17"/>
<path d="M 300 -143 L 200 -143 L 200 -296 L 60 -296 L 60 -384 L 200 -384 L 200 -537 L 300 -537 L 300 -384 L 440 -384 L 440 -296 L 300 -296 Z " id="path18"/>
<path d="M 96 0 L 96 -735 L 174 -735 L 174 -70 L 442 -70 L 442 0 Z M 29 -409 L 29 -473 L 277 -473 L 277 -409 Z M 29 -262 L 29 -326 L 277 -326 L 277 -262 Z " id="path19"/>
<path d="M 75 0 L 75 -70 L 218 -70 L 218 -665 L 89 -665 L 89 -735 L 296 -735 L 296 -70 L 425 -70 L 425 0 Z M 126 -423 L 126 -488 L 388 -488 L 388 -423 Z M 126 -276 L 126 -341 L 388 -341 L 388 -276 Z " id="path20"/>
<path d="M 96 0 L 96 -735 L 174 -735 L 174 -70 L 442 -70 L 442 0 Z M 185 -317 Q 181 -317 177 -317.5 Q 173 -318 169 -319 Q 165 -320 161 -321.5 Q 157 -323 153 -325 Q 149 -327 146 -329.5 Q 143 -332 140 -334 Q 137 -336 133.5 -339.5 Q 130 -343 127 -346 Q 124 -349 121.5 -352 Q 119 -355 116.5 -358 Q 114 -361 111.5 -364 Q 109 -367 106 -371 Q 103 -375 100 -378.5 Q 97 -382 94.5 -384.5 Q 92 -387 88 -389.5 Q 84 -392 84 -394 L 85 -394 L 83 -392 Q 80 -390 78 -388 Q 76 -386 74 -383.5 Q 72 -381 71 -380 Q 70 -379 68.5 -377 Q 67 -375 65.5 -373.5 Q 64 -372 63 -370 Q 62 -368 60.5 -366 Q 59 -364 57.5 -361.5 Q 56 -359 54.5 -356.5 Q 53 -354 51.5 -351.5 Q 50 -349 48 -346 Q 46 -343 44.5 -340 Q 43 -337 41 -333.5 Q 39 -330 37.5 -326.5 Q 36 -323 34 -320 L -26 -347 Q -18 -363 -11 -375.5 Q -4 -388 3.5 -398.5 Q 11 -409 18 -418 Q 25 -427 35.5 -435.5 Q 46 -444 58.5 -449.5 Q 71 -455 85 -455 Q 89 -455 93 -454.5 Q 97 -454 101 -453 Q 105 -452 109 -450.5 Q 113 -449 117 -447 Q 121 -445 124 -442.5 Q 127 -440 130 -438 Q 133 -436 136.5 -432.5 Q 140 -429 143 -426 Q 146 -423 148.5 -420 Q 151 -417 153.5 -414 Q 156 -411 158.5 -408 Q 161 -405 164 -401 Q 167 -397 170 -393.5 Q 173 -390 175.5 -387.5 Q 178 -385 182 -382.5 Q 186 -380 186 -378 L 185 -378 L 188 -380 Q 190 -382 192 -384 Q 194 -386 196 -388.5 Q 198 -391 199 -392 Q 200 -393 201.5 -395 Q 203 -397 204.5 -398.5 Q 206 -400 207 -402 Q 208 -404 209.5 -406 Q 211 -408 212.5 -410.5 Q 214 -413 215.5 -415.5 Q 217 -418 218.5 -420.5 Q 220 -423 222 -426 Q 224 -429 225.5 -432 Q 227 -435 229 -438.5 Q 231 -442 232.5 -445.5 Q 234 -449 236 -452 L 296 -425 Q 288 -409 281 -396.5 Q 274 -384 266.5 -373.5 Q 259 -363 252 -354 Q 245 -345 234.5 -336.5 Q 224 -328 211.5 -322.5 Q 199 -317 185 -317 Z " id="path21"/>
<path d="M 80 0 L 80 -735 L 256 -735 Q 283 -735 310.5 -729.5 Q 338 -724 362 -710 Q 386 -696 404 -674.5 Q 422 -653 433 -627.5 Q 444 -602 448 -574.5 Q 452 -547 452 -520 Q 452 -492 448 -464.5 Q 444 -437 433 -411.5 Q 422 -386 404 -364.5 Q 386 -343 362 -329 Q 338 -315 310.5 -309.5 Q 283 -304 256 -304 L 158 -304 L 158 0 Z M 256 -374 Q 274 -374 291 -378.5 Q 308 -383 322.5 -393 Q 337 -403 347.5 -418 Q 358 -433 364 -449.5 Q 370 -466 372 -484 Q 374 -502 374 -520 Q 374 -537 372 -555 Q 370 -573 364 -589.5 Q 358 -606 347.5 -621 Q 337 -636 322.5 -646 Q 308 -656 291 -660.5 Q 274 -665 256 -665 L 158 -665 L 158 -374 Z M 258 -487 L 24 -487 L 24 -552 L 258 -552 Z " id="path22"/>
<path d="M 248 223 Q 224 223 200 219 Q 176 215 154 204.5 Q 132 194 114 177.5 Q 96 161 84.5 139.5 Q 73 118 68.5 94 Q 64 70 64 46 L 64 -735 L 256 -735 Q 283 -735 309.5 -729 Q 336 -723 359 -708.5 Q 382 -694 399 -672.5 Q 416 -651 426 -626 Q 436 -601 440 -574 Q 444 -547 444 -520 Q 444 -486 438 -452 Q 432 -418 415 -389 Q 398 -360 370.5 -339 Q 343 -318 310 -309 L 460 0 L 375 0 L 228 -304 L 142 -304 L 142 46 Q 142 67 148 88 Q 154 109 169 124.5 Q 184 140 205 146.5 Q 226 153 248 153 Z M 256 -374 Q 273 -374 290 -379 Q 307 -384 320.5 -394.5 Q 334 -405 343 -420 Q 352 -435 357 -451.5 Q 362 -468 364 -485 Q 366 -502 366 -520 Q 366 -537 364 -554 Q 362 -571 357 -587.5 Q 352 -604 343 -619 Q 334 -634 320.5 -644.5 Q 307 -655 290 -660 Q 273 -665 256 -665 L 142 -665 L 142 -374 Z " id="path23"/>
<path d="M 202 8 Q 172 8 143 -1 Q 114 -10 93.5 -32 Q 73 -54 64.5 -83 Q 56 -112 56 -142 Q 56 -167 62.5 -192 Q 69 -217 84.5 -237 Q 100 -257 122 -270.5 Q 144 -284 168.5 -292 Q 193 -300 218 -303 Q 243 -306 269 -306 L 358 -306 L 358 -355 Q 358 -376 351 -397 Q 344 -418 328 -432 Q 312 -446 291 -452 Q 270 -458 249 -458 Q 230 -458 211 -454.5 Q 192 -451 175.5 -440.5 Q 159 -430 149.5 -413 Q 140 -396 140 -377 L 140 -375 L 62 -375 L 62 -378 Q 62 -401 69 -422.5 Q 76 -444 89 -462.5 Q 102 -481 120.5 -494 Q 139 -507 160.5 -514.5 Q 182 -522 204 -525 Q 226 -528 249 -528 Q 273 -528 297 -524.5 Q 321 -521 343 -511 Q 365 -501 383.5 -485 Q 402 -469 414 -448 Q 426 -427 431 -403 Q 436 -379 436 -355 L 436 0 L 358 0 L 358 -87 Q 349 -64 332.5 -45.5 Q 316 -27 295 -14.5 Q 274 -2 250 3 Q 226 8 202 8 Z M 232 -62 Q 256 -62 280.5 -69 Q 305 -76 323 -92 Q 341 -108 349.5 -131.5 Q 358 -155 358 -180 L 358 -236 L 269 -236 Q 254 -236 238.5 -234.5 Q 223 -233 208.5 -229.5 Q 194 -226 180 -219.5 Q 166 -213 155 -203 Q 144 -193 139 -178.5 Q 134 -164 134 -149 Q 134 -130 141 -112.5 Q 148 -95 162 -83 Q 176 -71 194.5 -66.5 Q 213 -62 232 -62 Z M 129 60 L 88 44 L 371 -580 L 412 -564 Z " id="path24"/>
<path d="M 316 8 Q 294 8 271.5 2 Q 249 -4 230.5 -17 Q 212 -30 199.5 -49 Q 187 -68 179.5 -89.5 Q 172 -111 169 -133.5 Q 166 -156 166 -179 L 166 -450 L 70 -450 L 70 -520 L 166 -520 L 166 -735 L 244 -735 L 244 -520 L 420 -520 L 420 -450 L 244 -450 L 244 -179 Q 244 -166 245 -153 Q 246 -140 249 -127.5 Q 252 -115 257 -103.5 Q 262 -92 270.5 -82 Q 279 -72 291 -67 Q 303 -62 316 -62 Q 329 -62 340.5 -67 Q 352 -72 360.5 -81 Q 369 -90 374.5 -101.5 Q 380 -113 383 -125 Q 386 -137 387.5 -149.5 Q 389 -162 389 -174 L 389 -180 L 467 -180 L 467 -171 Q 467 -149 463 -127 Q 459 -105 451.5 -84.5 Q 444 -64 431 -46 Q 418 -28 400 -15.5 Q 382 -3 360 2.5 Q 338 8 316 8 Z M 130 79 L 87 67 L 370 -815 L 413 -803 Z " id="path25"/>
<path d="M 405 157 L 405 0 L 358 0 L 358 -345 L 142 -345 L 142 0 L 64 0 L 64 -735 L 142 -735 L 142 -415 L 358 -415 L 358 -735 L 436 -735 L 436 -70 L 482 -70 L 482 157 Z " id="path26"/>
<path d="M 405 157 L 405 0 L 358 0 L 358 -320 Q 358 -337 356 -353.5 Q 354 -370 349 -385.5 Q 344 -401 334.5 -415 Q 325 -429 312 -439 Q 299 -449 283 -453.5 Q 267 -458 250 -458 Q 233 -458 217 -453.5 Q 201 -449 188 -439 Q 175 -429 165.5 -415 Q 156 -401 151 -385.5 Q 146 -370 144 -353.5 Q 142 -337 142 -320 L 142 0 L 64 0 L 64 -735 L 142 -735 L 142 -429 Q 150 -450 163 -469.5 Q 176 -489 194.5 -502.5 Q 213 -516 235.5 -522 Q 258 -528 280 -528 Q 305 -528 329 -521 Q 353 -514 371.5 -498.5 Q 390 -483 403 -461.5 Q 416 -440 423.5 -416.5 Q 431 -393 433.5 -368.5 Q 436 -344 436 -320 L 436 -70 L 482 -70 L 482 157 Z " id="path27"/>
<path d="M 405 157 L 405 0 L 361 0 L 201 -324 L 157 -252 L 157 0 L 80 0 L 80 -735 L 157 -735 L 157 -398 L 357 -735 L 445 -735 L 247 -402 L 411 -70 L 482 -70 L 482 157 Z " id="path28"/>
<path d="M 405 157 L 405 0 L 353 0 L 207 -221 L 157 -158 L 157 0 L 80 0 L 80 -735 L 157 -735 L 157 -278 L 348 -520 L 443 -520 L 256 -283 L 397 -70 L 482 -70 L 482 157 Z " id="path29"/>
<path d="M 359 157 L 359 0 L 64 0 L 64 -70 L 347 -665 L 64 -665 L 64 -735 L 436 -735 L 436 -665 L 153 -70 L 436 -70 L 436 157 Z " id="path30"/>
<path d="M 359 157 L 359 0 L 64 0 L 64 -70 L 351 -450 L 64 -450 L 64 -520 L 436 -520 L 436 -450 L 149 -70 L 436 -70 L 436 157 Z " id="path31"/>
<path d="M 219 8 Q 194 8 169.5 1 Q 145 -6 125 -21 Q 105 -36 91.5 -57 Q 78 -78 70 -101.5 Q 62 -125 59 -150 Q 56 -175 56 -200 L 56 -535 Q 56 -560 59 -585 Q 62 -610 70 -633.5 Q 78 -657 91.5 -678 Q 105 -699 125 -714 Q 145 -729 169.5 -736 Q 194 -743 219 -743 Q 242 -743 264.5 -737 Q 287 -731 305.5 -717.5 Q 324 -704 337 -684.5 Q 350 -665 358 -644 L 358 -700 L 436 -735 L 436 0 L 358 0 L 358 -91 Q 350 -70 337 -50.5 Q 324 -31 305.5 -17.5 Q 287 -4 264.5 2 Q 242 8 219 8 Z M 249 -62 Q 266 -62 282 -66 Q 298 -70 311.5 -80 Q 325 -90 334.5 -104.5 Q 344 -119 349 -134.5 Q 354 -150 356 -166.5 Q 358 -183 358 -200 L 358 -535 Q 358 -552 356 -568.5 Q 354 -585 349 -600.5 Q 344 -616 334.5 -630.5 Q 325 -645 311.5 -655 Q 298 -665 282 -669 Q 266 -673 249 -673 Q 232 -673 215.5 -669 Q 199 -665 185 -655.5 Q 171 -646 160.5 -632 Q 150 -618 144 -602 Q 138 -586 136 -569 Q 134 -552 134 -535 L 134 -200 Q 134 -183 136 -166 Q 138 -149 144 -133 Q 150 -117 160.5 -103 Q 171 -89 185 -79.5 Q 199 -70 215.5 -66 Q 232 -62 249 -62 Z " id="path32"/>
<path d="M 268 223 L 268 153 Q 289 153 310 146.5 Q 331 140 346 124.5 Q 361 109 367.5 88 Q 374 67 374 46 L 374 -147 Q 374 -262 378 -377 Q 382 -492 384 -607 L 280 -221 L 220 -221 L 116 -607 Q 118 -492 122 -377 Q 126 -262 126 -147 L 126 0 L 48 0 L 48 -735 L 142 -735 L 250 -332 L 358 -735 L 452 -735 L 452 46 Q 452 70 447.5 94 Q 443 118 431.5 139.5 Q 420 161 402 177.5 Q 384 194 362 204.5 Q 340 215 316 219 Q 292 223 268 223 Z " id="path33"/>
<path d="M 205 0 L 44 -735 L 124 -735 L 163 -545 L 337 -545 L 376 -735 L 456 -735 L 295 0 Z M 250 -117 Q 256 -149 262.5 -181 Q 269 -213 276 -245 L 323 -475 L 177 -475 L 224 -245 Q 231 -213 237.5 -181 Q 244 -149 250 -117 Z " id="path34"/>
<path d="M 281 8 Q 258 8 235.5 2 Q 213 -4 194.5 -17.5 Q 176 -31 163 -50.5 Q 150 -70 142 -91 L 142 -35 L 64 0 L 64 -735 L 142 -735 L 142 -644 Q 150 -665 163 -684.5 Q 176 -704 194.5 -717.5 Q 213 -731 235.5 -737 Q 258 -743 281 -743 Q 306 -743 330.5 -736 Q 355 -729 375 -714 Q 395 -699 408.5 -678 Q 422 -657 430 -633.5 Q 438 -610 441 -585 Q 444 -560 444 -535 L 444 -200 Q 444 -175 441 -150 Q 438 -125 430 -101.5 Q 422 -78 408.5 -57 Q 395 -36 375 -21 Q 355 -6 330.5 1 Q 306 8 281 8 Z M 251 -62 Q 268 -62 284.5 -66 Q 301 -70 315 -79.5 Q 329 -89 339.5 -103 Q 350 -117 356 -133 Q 362 -149 364 -166 Q 366 -183 366 -200 L 366 -535 Q 366 -552 364 -569 Q 362 -586 356 -602 Q 350 -618 339.5 -632 Q 329 -646 315 -655.5 Q 301 -665 284.5 -669 Q 268 -673 251 -673 Q 234 -673 218 -669 Q 202 -665 188.5 -655 Q 175 -645 165.5 -630.5 Q 156 -616 151 -600.5 Q 146 -585 144 -568.5 Q 142 -552 142 -535 L 142 -200 Q 142 -183 144 -166.5 Q 146 -150 151 -134.5 Q 156 -119 165.5 -104.5 Q 175 -90 188.5 -80 Q 202 -70 218 -66 Q 234 -62 251 -62 Z " id="path35"/>
<path d="M 295 0 L 205 0 L 44 -520 L 126 -520 L 226 -173 Q 234 -146 241.5 -119 Q 249 -92 256 -65 Q 264 -87 270 -110.5 Q 276 -134 281 -157.5 Q 286 -181 290 -204.5 Q 294 -228 297.5 -252 Q 301 -276 304 -299.5 Q 307 -323 310 -347 Q 313 -371 316.5 -394.5 Q 320 -418 329 -440.5 Q 338 -463 354 -481.5 Q 370 -500 391 -511 Q 412 -522 436 -525 Q 460 -528 484 -528 L 484 -458 Q 468 -458 451.5 -454.5 Q 435 -451 422.5 -440 Q 410 -429 403.5 -413.5 Q 397 -398 393.5 -382 Q 390 -366 388 -349.5 Q 386 -333 383.5 -316.5 Q 381 -300 378.5 -284 Q 376 -268 373 -251.5 Q 370 -235 366.5 -219 Q 363 -203 359.5 -186.5 Q 356 -170 352.5 -154 Q 349 -138 344.5 -122 Q 340 -106 335 -90.5 Q 330 -75 324 -59.5 Q 318 -44 311 -29 Q 304 -14 295 0 Z " id="path36"/>
<path d="M 374 -566 Q 374 -590 378.5 -614 Q 383 -638 394.5 -659.5 Q 406 -681 424 -697.5 Q 442 -714 464 -724.5 Q 486 -735 510 -739 Q 534 -743 558 -743 L 558 -673 Q 536 -673 515 -666.5 Q 494 -660 479 -644.5 Q 464 -629 458 -608 Q 452 -587 452 -566 Z M 194 0 L 117 0 L 32 -735 L 110 -735 L 158 -106 L 211 -529 L 289 -529 L 343 -95 Q 349 -154 354 -212.5 Q 359 -271 363.5 -330 Q 368 -389 371 -448 Q 374 -507 374 -566 L 452 -566 Q 452 -495 444.5 -424 Q 437 -353 427.5 -282 Q 418 -211 406.5 -140.5 Q 395 -70 383 0 L 306 0 L 250 -394 Z " id="path37"/>
<path d="M 374 -351 Q 374 -375 378.5 -399 Q 383 -423 394.5 -444.5 Q 406 -466 424 -482.5 Q 442 -499 464 -509.5 Q 486 -520 510 -524 Q 534 -528 558 -528 L 558 -458 Q 536 -458 515 -451.5 Q 494 -445 479 -429.5 Q 464 -414 458 -393 Q 452 -372 452 -351 Z M 117 0 L 32 -520 L 111 -520 L 158 -76 L 211 -374 L 289 -374 L 344 -64 Q 349 -100 354 -135.5 Q 359 -171 363.5 -207 Q 368 -243 371 -279 Q 374 -315 374 -351 L 452 -351 Q 452 -306 444 -262 Q 436 -218 426.5 -174 Q 417 -130 406 -86.5 Q 395 -43 383 0 L 306 0 L 250 -278 L 194 0 Z " id="path38"/>
<path d="M 205 0 L 125 -260 Q 120 -275 115 -289.5 Q 110 -304 105 -318 L 32 -318 L 32 -372 L 86 -372 Q 83 -385 80.5 -398 Q 78 -411 78 -424 Q 78 -445 85 -465 Q 92 -485 106.5 -500 Q 121 -515 141.5 -521.5 Q 162 -528 183 -528 Q 204 -528 225 -521 Q 246 -514 260.5 -499 Q 275 -484 281.5 -463 Q 288 -442 288 -420 Q 288 -399 281 -378.5 Q 274 -358 258 -343.5 Q 242 -329 221 -323.5 Q 200 -318 179 -318 Q 183 -308 186 -298 Q 189 -288 192 -278 L 247 -79 Q 254 -103 260.5 -126.5 Q 267 -150 274 -173 L 374 -520 L 456 -520 L 295 0 Z M 157 -372 L 179 -372 Q 189 -372 198.5 -375 Q 208 -378 215 -384.5 Q 222 -391 225 -400.5 Q 228 -410 228 -420 Q 228 -430 225.5 -439 Q 223 -448 217 -455.5 Q 211 -463 202 -467 Q 193 -471 184 -471 Q 175 -471 167 -467 Q 159 -463 154 -456 Q 149 -449 147.5 -440.5 Q 146 -432 146 -423 Q 146 -410 149.5 -397 Q 153 -384 157 -372 Z " id="path39"/>
<path d="M 64 0 L 64 -735 L 142 -735 L 142 -415 L 428 -415 L 428 -345 L 142 -345 L 142 0 Z " id="path40"/>
<path d="M 64 0 L 64 -520 L 142 -520 L 142 -304 L 428 -304 L 428 -234 L 142 -234 L 142 0 Z " id="path41"/>
<path d="M 250 8 Q 217 8 184 -1.5 Q 151 -11 125 -32 Q 99 -53 81 -81.5 Q 63 -110 52.5 -142 Q 42 -174 37 -207 Q 32 -240 32 -274 Q 32 -337 47 -399.5 Q 62 -462 89 -520 L 159 -491 Q 136 -440 123 -385 Q 110 -330 110 -274 Q 110 -254 112 -233.5 Q 114 -213 118.5 -193 Q 123 -173 130 -154 Q 137 -135 148.5 -118 Q 160 -101 176 -87.5 Q 192 -74 211 -68 L 211 -343 Q 211 -363 213 -383.5 Q 215 -404 220.5 -423.5 Q 226 -443 235.5 -461 Q 245 -479 259.5 -492.5 Q 274 -506 293.5 -513 Q 313 -520 333 -520 Q 352 -520 370 -514 Q 388 -508 402 -496 Q 416 -484 426.5 -468 Q 437 -452 444 -435 Q 451 -418 455.5 -400 Q 460 -382 462.5 -363.5 Q 465 -345 466.5 -326.5 Q 468 -308 468 -289 Q 468 -254 464.5 -219.5 Q 461 -185 451 -151.5 Q 441 -118 423 -88 Q 405 -58 378.5 -35.5 Q 352 -13 318.5 -2.5 Q 285 8 250 8 Z M 289 -68 Q 310 -74 326.5 -89 Q 343 -104 354 -122.5 Q 365 -141 372.5 -161.5 Q 380 -182 383.5 -203.5 Q 387 -225 388.5 -247 Q 390 -269 390 -290 Q 390 -302 389.5 -313.5 Q 389 -325 388 -336 Q 387 -347 385.5 -358.5 Q 384 -370 382 -381 Q 380 -392 376.5 -403 Q 373 -414 367.5 -424 Q 362 -434 353 -442 Q 344 -450 333 -450 Q 322 -450 314 -442.5 Q 306 -435 302 -425.5 Q 298 -416 295.5 -405.5 Q 293 -395 291.5 -385 Q 290 -375 289.5 -364.5 Q 289 -354 289 -343 Z " id="path42"/>
<path d="M 250 8 Q 223 8 196.5 2.5 Q 170 -3 146.5 -16 Q 123 -29 104.5 -49.5 Q 86 -70 75 -94.5 Q 64 -119 60 -146 Q 56 -173 56 -200 L 56 -320 Q 56 -347 60 -374 Q 64 -401 75 -425.5 Q 86 -450 104.5 -470.5 Q 123 -491 146 -504 Q 169 -517 196 -522.5 Q 223 -528 250 -528 Q 277 -528 304 -522.5 Q 331 -517 354 -504 Q 377 -491 395.5 -470.5 Q 414 -450 425 -425.5 Q 436 -401 440 -374 Q 444 -347 444 -320 L 444 -225 L 134 -225 L 134 -200 Q 134 -183 136 -166 Q 138 -149 144 -133 Q 150 -117 160.5 -103 Q 171 -89 185 -79.5 Q 199 -70 216 -66 Q 233 -62 250 -62 Q 270 -62 289.5 -65.5 Q 309 -69 326 -79.5 Q 343 -90 353.5 -107.5 Q 364 -125 364 -145 L 442 -145 Q 442 -136 444 -127 Q 446 -118 451.5 -110.5 Q 457 -103 465.5 -99 Q 474 -95 484 -95 Q 493 -95 501.5 -99 Q 510 -103 515.5 -110.5 Q 521 -118 523 -127 Q 525 -136 525 -145 L 593 -145 Q 593 -123 586.5 -101.5 Q 580 -80 564.5 -64 Q 549 -48 527.5 -41.5 Q 506 -35 484 -35 Q 464 -35 445.5 -39.5 Q 427 -44 411 -56 Q 398 -38 379 -25.5 Q 360 -13 338.5 -5.5 Q 317 2 295 5 Q 273 8 250 8 Z M 366 -295 L 366 -320 Q 366 -337 364 -354 Q 362 -371 356 -387 Q 350 -403 339.5 -417 Q 329 -431 315 -440.5 Q 301 -450 284 -454 Q 267 -458 250 -458 Q 233 -458 216 -454 Q 199 -450 185 -440.5 Q 171 -431 160.5 -417 Q 150 -403 144 -387 Q 138 -371 136 -354 Q 134 -337 134 -320 L 134 -295 Z " id="path43"/>
<path d="M 171 8 Q 152 8 133.5 3.5 Q 115 -1 100 -11.5 Q 85 -22 75 -38 Q 65 -54 59 -71.5 Q 53 -89 51 -107.5 Q 49 -126 49 -145 L 127 -145 Q 127 -130 129.5 -115.5 Q 132 -101 139.5 -88 Q 147 -75 160.5 -68.5 Q 174 -62 189 -62 Q 209 -62 227.5 -70.5 Q 246 -79 258.5 -94 Q 271 -109 279 -127.5 Q 287 -146 291 -165.5 Q 295 -185 296.5 -205 Q 298 -225 298 -244 L 298 -566 Q 298 -587 292 -608 Q 286 -629 271 -644.5 Q 256 -660 235 -666.5 Q 214 -673 192 -673 L 192 -743 Q 216 -743 240 -739 Q 264 -735 286 -724.5 Q 308 -714 326 -697.5 Q 344 -681 355.5 -659.5 Q 367 -638 371.5 -614 Q 376 -590 376 -566 L 376 0 L 298 0 L 298 -108 Q 291 -86 280.5 -65 Q 270 -44 254 -27 Q 238 -10 216 -1 Q 194 8 171 8 Z " id="path44"/>
<path d="M 250 8 Q 223 8 196 2.5 Q 169 -3 146 -16 Q 123 -29 104.5 -49.5 Q 86 -70 75 -94.5 Q 64 -119 60 -146 Q 56 -173 56 -200 L 56 -320 Q 56 -347 60 -374 Q 64 -401 75 -425.5 Q 86 -450 104.5 -470.5 Q 123 -491 146 -504 Q 169 -517 196 -522.5 Q 223 -528 250 -528 Q 277 -528 304 -522.5 Q 331 -517 354 -504 Q 377 -491 395.5 -470.5 Q 414 -450 425 -425.5 Q 436 -401 440 -374 Q 444 -347 444 -320 L 444 -200 Q 444 -173 440 -146 Q 436 -119 425 -94.5 Q 414 -70 395.5 -49.5 Q 377 -29 354 -16 Q 331 -3 304 2.5 Q 277 8 250 8 Z M 156 -110 Q 157 -127 163.5 -144.5 Q 170 -162 183.5 -173.5 Q 197 -185 214.5 -190 Q 232 -195 250 -195 Q 268 -195 285.5 -190 Q 303 -185 316.5 -173.5 Q 330 -162 336.5 -144.5 Q 343 -127 344 -110 Q 357 -129 361.5 -152.5 Q 366 -176 366 -200 L 366 -320 Q 366 -337 364 -354 Q 362 -371 356 -387 Q 350 -403 339.5 -417 Q 329 -431 315 -440.5 Q 301 -450 284 -454 Q 267 -458 250 -458 Q 233 -458 216 -454 Q 199 -450 185 -440.5 Q 171 -431 160.5 -417 Q 150 -403 144 -387 Q 138 -371 136 -354 Q 134 -337 134 -320 L 134 -200 Q 134 -176 138.5 -152.5 Q 143 -129 156 -110 Z M 257 -62 Q 264 -63 270.5 -66 Q 277 -69 281 -74.5 Q 285 -80 287 -87 Q 289 -94 289 -101 Q 289 -109 286.5 -116.5 Q 284 -124 278.5 -129.5 Q 273 -135 265.5 -137.5 Q 258 -140 250 -140 Q 242 -140 234.5 -137.5 Q 227 -135 221.5 -129.5 Q 216 -124 213.5 -116.5 Q 211 -109 211 -101 Q 211 -94 213 -87.5 Q 215 -81 219 -75.5 Q 223 -70 229 -66.5 Q 235 -63 242 -62 Z " id="path45"/>
<path d="M 64 0 L 64 -70 L 350 -70 L 350 -215 L 120 -215 L 120 -285 L 350 -285 L 350 -450 L 64 -450 L 64 -520 L 428 -520 L 428 0 Z " id="path46"/>
<path d="M 289 -300 Q 276 -300 264 -303.5 Q 252 -307 243 -316 Q 234 -325 230.5 -337 Q 227 -349 227 -362 Q 227 -374 230.5 -386 Q 234 -398 243 -407 Q 252 -416 264 -419.5 Q 276 -423 289 -423 Q 301 -423 313 -419.5 Q 325 -416 334 -407 Q 343 -398 346.5 -386 Q 350 -374 350 -362 Q 350 -349 346.5 -337 Q 343 -325 334 -316 Q 325 -307 313 -303.5 Q 301 -300 289 -300 Z M 205 264 Q 181 264 157.5 258 Q 134 252 115.5 237 Q 97 222 87.5 199.5 Q 78 177 78 153 L 155 153 Q 155 162 159 170.5 Q 163 179 170.5 184.5 Q 178 190 187 192 Q 196 194 205 194 Q 217 194 228 187.5 Q 239 181 245.5 170 Q 252 159 254 146.5 Q 256 134 256 122 L 256 -187 L 172 -187 L 172 -257 L 333 -257 L 333 121 Q 333 140 330 158 Q 327 176 320 192.5 Q 313 209 301.5 223 Q 290 237 274.5 246.5 Q 259 256 241 260 Q 223 264 205 264 Z " id="path47"/>
<path d="M 206 -323 L 96 -838 L 174 -838 L 184 -789 L 240 -495 Q 243 -482 245.5 -469.5 Q 248 -457 250 -445 Q 252 -457 254.5 -469.5 Q 257 -482 260 -495 L 326 -838 L 404 -838 L 294 -323 Z " id="path48"/>
<path d="M 435 215 Q 397 215 359 212 Q 321 209 285 198 Q 249 187 216.5 166.5 Q 184 146 158 118.5 Q 132 91 112.5 58.5 Q 93 26 80 -9.5 Q 67 -45 60 -82.5 Q 53 -120 53 -158 Q 53 -164 53.5 -169.5 Q 54 -175 54 -180 L 132 -180 L 132 -175 Q 132 -152 140 -130 Q 148 -108 164.5 -92 Q 181 -76 203.5 -69 Q 226 -62 249 -62 Q 272 -62 295 -69 Q 318 -76 334.5 -92.5 Q 351 -109 359 -132 Q 367 -155 367 -178 Q 367 -204 356.5 -228 Q 346 -252 328 -270.5 Q 310 -289 288 -302.5 Q 266 -316 243 -328 Q 220 -340 198 -353 Q 176 -366 156 -382 Q 136 -398 118.5 -417 Q 101 -436 89 -459 Q 77 -482 70.5 -507 Q 64 -532 64 -558 Q 64 -582 69.5 -606.5 Q 75 -631 86.5 -653 Q 98 -675 115.5 -693 Q 133 -711 155 -722.5 Q 177 -734 201.5 -738.5 Q 226 -743 251 -743 Q 276 -743 300 -739 Q 324 -735 346 -724 Q 368 -713 386 -695.5 Q 404 -678 415.5 -656.5 Q 427 -635 432.5 -611 Q 438 -587 438 -562 L 438 -555 L 360 -555 L 360 -560 Q 360 -582 353.5 -603.5 Q 347 -625 331.5 -641.5 Q 316 -658 294.5 -665.5 Q 273 -673 251 -673 Q 229 -673 207 -665 Q 185 -657 170 -640.5 Q 155 -624 148 -602 Q 141 -580 141 -557 Q 141 -532 151.5 -507.5 Q 162 -483 179.5 -464.5 Q 197 -446 219.5 -432.5 Q 242 -419 264.5 -407.5 Q 287 -396 309.5 -382.5 Q 332 -369 352 -353 Q 372 -337 389 -318 Q 406 -299 418.5 -276.5 Q 431 -254 437.5 -228.5 Q 444 -203 444 -178 Q 444 -152 438 -127 Q 432 -102 420 -80 Q 408 -58 389 -40.5 Q 370 -23 347.5 -12 Q 325 -1 299.5 3.5 Q 274 8 249 8 Q 220 8 190.5 2 Q 161 -4 136 -19 Q 148 9 166 34 Q 184 59 207 79 Q 230 99 257.5 112.5 Q 285 126 314.5 134 Q 344 142 374.5 143.5 Q 405 145 435 145 L 436 145 L 436 215 Z " id="path49"/>
<path d="M 435 215 Q 398 215 361 210 Q 324 205 290 190 Q 256 175 226.5 152 Q 197 129 169.5 104 Q 142 79 116 53 Q 90 27 64 0 L 347 -665 L 64 -665 L 64 -735 L 436 -735 L 436 -665 L 158 -11 Q 164 -5 170.5 1.5 Q 177 8 183 14 L 185 16 Q 203 33 220.5 50 Q 238 67 256.5 82.5 Q 275 98 295.5 111 Q 316 124 339 132 Q 362 140 386.5 142.5 Q 411 145 435 145 L 436 145 L 436 215 Z " id="path50"/>
</defs>
<g>
<g data-source-text="0" fill="#dee4e3" transform="translate(174 41.292) rotate(0) scale(0.023999998)">
<use href="#path1" transform="translate(0 0)"/>
</g>
</g>
<g>
<g data-source-text="1" fill="#dee4e3" transform="translate(246 41.292) rotate(0) scale(0.023999998)">
<use href="#path2" transform="translate(0 0)"/>
</g>
</g>
<g>
<g data-source-text="2" fill="#dee4e3" transform="translate(318 41.292) rotate(0) scale(0.023999998)">
<use href="#path3" transform="translate(0 0)"/>
</g>
</g>
<g>
<g data-source-text="3" fill="#dee4e3" transform="translate(390 41.292) rotate(0) scale(0.023999998)">
<use href="#path4" transform="translate(0 0)"/>
</g>
</g>
<g>
<g data-source-text="4" fill="#dee4e3" transform="translate(462 41.292) rotate(0) scale(0.023999998)">
<use href="#path5" transform="translate(0 0)"/>
</g>
</g>
<g>
<g data-source-text="5" fill="#dee4e3" transform="translate(534 41.292) rotate(0) scale(0.023999998)">
<use href="#path6" transform="translate(0 0)"/>
</g>
</g>
<g>
<g data-source-text="6" fill="#dee4e3" transform="translate(606 41.292) rotate(0) scale(0.023999998)">
<use href="#path7" transform="translate(0 0)"/>
</g>
</g>
<g>
<g data-source-text="7" fill="#dee4e3" transform="translate(678 41.292) rotate(0) scale(0.023999998)">
<use href="#path8" transform="translate(0 0)"/>
</g>
</g>
<g>
<g data-source-text="8" fill="#dee4e3" transform="translate(750 41.292) rotate(0) scale(0.023999998)">
<use href="#path9" transform="translate(0 0)"/>
</g>
</g>
<g>
<g data-source-text="9" fill="#dee4e3" transform="translate(822 41.292) rotate(0) scale(0.023999998)">
<use href="#path10" transform="translate(0 0)"/>
</g>
</g>
<g>
<g data-source-text="A" fill="#dee4e3" transform="translate(894 41.292) rotate(0) scale(0.023999998)">
<use href="#path11" transform="translate(0 0)"/>
</g>
</g>
<g>
<g data-source-text="B" fill="#dee4e3" transform="translate(966 41.292) rotate(0) scale(0.023999998)">
<use href="#path12" transform="translate(0 0)"/>
</g>
</g>
<g>
<g data-source-text="C" fill="#dee4e3" transform="translate(1038 41.292) rotate(0) scale(0.023999998)">
<use href="#path13" transform="translate(0 0)"/>
</g>
</g>
<g>
<g data-source-text="D" fill="#dee4e3" transform="translate(1110 41.292) rotate(0) scale(0.023999998)">
<use href="#path14" transform="translate(0 0)"/>
</g>
</g>
<g>
<g data-source-text="E" fill="#dee4e3" transform="translate(1182 41.292) rotate(0) scale(0.023999998)">
<use href="#path15" transform="translate(0 0)"/>
</g>
</g>
<g>
<g data-source-text="F" fill="#dee4e3" transform="translate(1254 41.292) rotate(0) scale(0.023999998)">
<use href="#path16" transform="translate(0 0)"/>
</g>
</g>
<g>
<g data-source-text="U+2C60" fill="#dee4e3" transform="translate(36 113.292) rotate(0) scale(0.023999998)">
<use href="#path17" transform="translate(0 0)"/>
<use href="#path18" transform="translate(500 0)"/>
<use href="#path3" transform="translate(1000 0)"/>
<use href="#path13" transform="translate(1500 0)"/>
<use href="#path7" transform="translate(2000 0)"/>
<use href="#path1" transform="translate(2500 0)"/>
</g>
</g>
<g>
<g data-source-text="Ⱡ" fill="#dee4e3" transform="translate(168 118.584) rotate(0) scale(0.047999997)">
<use href="#path19" transform="translate(0 0)"/>
</g>
</g>
<g>
<g data-source-text="ⱡ" fill="#dee4e3" transform="translate(240 118.584) rotate(0) scale(0.047999997)">
<use href="#path20" transform="translate(0 0)"/>
</g>
</g>
<g>
<g data-source-text="Ɫ" fill="#dee4e3" transform="translate(312 118.584) rotate(0) scale(0.047999997)">
<use href="#path21" transform="translate(0 0)"/>
</g>
</g>
<g>
<g data-source-text="Ᵽ" fill="#dee4e3" transform="translate(384 118.584) rotate(0) scale(0.047999997)">
<use href="#path22" transform="translate(0 0)"/>
</g>
</g>
<g>
<g data-source-text="Ɽ" fill="#dee4e3" transform="translate(456 118.584) rotate(0) scale(0.047999997)">
<use href="#path23" transform="translate(0 0)"/>
</g>
</g>
<g>
<g data-source-text="ⱥ" fill="#dee4e3" transform="translate(528 118.584) rotate(0) scale(0.047999997)">
<use href="#path24" transform="translate(0 0)"/>
</g>
</g>
<g>
<g data-source-text="ⱦ" fill="#dee4e3" transform="translate(600 118.584) rotate(0) scale(0.047999997)">
<use href="#path25" transform="translate(0 0)"/>
</g>
</g>
<g>
<g data-source-text="Ⱨ" fill="#dee4e3" transform="translate(672 118.584) rotate(0) scale(0.047999997)">
<use href="#path26" transform="translate(0 0)"/>
</g>
</g>
<g>
<g data-source-text="ⱨ" fill="#dee4e3" transform="translate(744 118.584) rotate(0) scale(0.047999997)">
<use href="#path27" transform="translate(0 0)"/>
</g>
</g>
<g>
<g data-source-text="Ⱪ" fill="#dee4e3" transform="translate(816 118.584) rotate(0) scale(0.047999997)">
<use href="#path28" transform="translate(0 0)"/>
</g>
</g>
<g>
<g data-source-text="ⱪ" fill="#dee4e3" transform="translate(888 118.584) rotate(0) scale(0.047999997)">
<use href="#path29" transform="translate(0 0)"/>
</g>
</g>
<g>
<g data-source-text="Ⱬ" fill="#dee4e3" transform="translate(960 118.584) rotate(0) scale(0.047999997)">
<use href="#path30" transform="translate(0 0)"/>
</g>
</g>
<g>
<g data-source-text="ⱬ" fill="#dee4e3" transform="translate(1032 118.584) rotate(0) scale(0.047999997)">
<use href="#path31" transform="translate(0 0)"/>
</g>
</g>
<g>
<g data-source-text="Ɑ" fill="#dee4e3" transform="translate(1104 118.584) rotate(0) scale(0.047999997)">
<use href="#path32" transform="translate(0 0)"/>
</g>
</g>
<g>
<g data-source-text="Ɱ" fill="#dee4e3" transform="translate(1176 118.584) rotate(0) scale(0.047999997)">
<use href="#path33" transform="translate(0 0)"/>
</g>
</g>
<g>
<g data-source-text="Ɐ" fill="#dee4e3" transform="translate(1248 118.584) rotate(0) scale(0.047999997)">
<use href="#path34" transform="translate(0 0)"/>
</g>
</g>
<g>
<g data-source-text="U+2C70" fill="#dee4e3" transform="translate(36 185.292) rotate(0) scale(0.023999998)">
<use href="#path17" transform="translate(0 0)"/>
<use href="#path18" transform="translate(500 0)"/>
<use href="#path3" transform="translate(1000 0)"/>
<use href="#path13" transform="translate(1500 0)"/>
<use href="#path8" transform="translate(2000 0)"/>
<use href="#path1" transform="translate(2500 0)"/>
</g>
</g>
<g>
<g data-source-text="Ɒ" fill="#dee4e3" transform="translate(168 190.584) rotate(0) scale(0.047999997)">
<use href="#path35" transform="translate(0 0)"/>
</g>
</g>
<g>
<g data-source-text="ⱱ" fill="#dee4e3" transform="translate(240 190.584) rotate(0) scale(0.047999997)">
<use href="#path36" transform="translate(0 0)"/>
</g>
</g>
<g>
<g data-source-text="Ⱳ" fill="#dee4e3" transform="translate(312 190.584) rotate(0) scale(0.047999997)">
<use href="#path37" transform="translate(0 0)"/>
</g>
</g>
<g>
<g data-source-text="ⱳ" fill="#dee4e3" transform="translate(384 190.584) rotate(0) scale(0.047999997)">
<use href="#path38" transform="translate(0 0)"/>
</g>
</g>
<g>
<g data-source-text="ⱴ" fill="#dee4e3" transform="translate(456 190.584) rotate(0) scale(0.047999997)">
<use href="#path39" transform="translate(0 0)"/>
</g>
</g>
<g>
<g data-source-text="Ⱶ" fill="#dee4e3" transform="translate(528 190.584) rotate(0) scale(0.047999997)">
<use href="#path40" transform="translate(0 0)"/>
</g>
</g>
<g>
<g data-source-text="ⱶ" fill="#dee4e3" transform="translate(600 190.584) rotate(0) scale(0.047999997)">
<use href="#path41" transform="translate(0 0)"/>
</g>
</g>
<g>
<g data-source-text="ⱷ" fill="#dee4e3" transform="translate(672 190.584) rotate(0) scale(0.047999997)">
<use href="#path42" transform="translate(0 0)"/>
</g>
</g>
<g>
<g data-source-text="ⱸ" fill="#dee4e3" transform="translate(744 190.584) rotate(0) scale(0.047999997)">
<use href="#path43" transform="translate(0 0)"/>
</g>
</g>
<g>
<g data-source-text="ⱹ" fill="#dee4e3" transform="translate(816 190.584) rotate(0) scale(0.047999997)">
<use href="#path44" transform="translate(0 0)"/>
</g>
</g>
<g>
<g data-source-text="ⱺ" fill="#dee4e3" transform="translate(888 190.584) rotate(0) scale(0.047999997)">
<use href="#path45" transform="translate(0 0)"/>
</g>
</g>
<g>
<g data-source-text="ⱻ" fill="#dee4e3" transform="translate(960 190.584) rotate(0) scale(0.047999997)">
<use href="#path46" transform="translate(0 0)"/>
</g>
</g>
<g>
<g data-source-text="ⱼ" fill="#dee4e3" transform="translate(1032 190.584) rotate(0) scale(0.047999997)">
<use href="#path47" transform="translate(0 0)"/>
</g>
</g>
<g>
<g data-source-text="ⱽ" fill="#dee4e3" transform="translate(1104 190.584) rotate(0) scale(0.047999997)">
<use href="#path48" transform="translate(0 0)"/>
</g>
</g>
<g>
<g data-source-text="Ȿ" fill="#dee4e3" transform="translate(1176 190.584) rotate(0) scale(0.047999997)">
<use href="#path49" transform="translate(0 0)"/>
</g>
</g>
<g>
<g data-source-text="Ɀ" fill="#dee4e3" transform="translate(1248 190.584) rotate(0) scale(0.047999997)">
<use href="#path50" transform="translate(0 0)"/>
</g>
</g>
</svg>