<?xml version="1.0" encoding="UTF-8" standalone="no"?>
<svg height="144" viewBox="0 0 1296 144" width="1296" xmlns="http://www.w3.org/2000/svg">
<defs>
<path d="M 250 8 Q 223 8 196 3 Q 169 -2 145 -15 Q 121 -28 102.5 -48.5 Q 84 -69 72.5 -94 Q 61 -119 56.5 -146 Q 52 -173 52 -200 L 52 -535 Q 52 -562 56.5 -589 Q 61 -616 72.5 -641 Q 84 -666 102.5 -686.5 Q 121 -707 145 -720 Q 169 -733 196 -738 Q 223 -743 250 -743 Q 277 -743 304 -738 Q 331 -733 355 -720 Q 379 -707 397.5 -686.5 Q 416 -666 427.5 -641 Q 439 -616 443.5 -589 Q 448 -562 448 -535 L 448 -200 Q 448 -173 443.5 -146 Q 439 -119 427.5 -94 Q 416 -69 397.5 -48.5 Q 379 -28 355 -15 Q 331 -2 304 3 Q 277 8 250 8 Z M 152 -337 L 348 -492 L 348 -535 Q 348 -557 343 -579 Q 338 -601 325.5 -618.5 Q 313 -636 292.5 -645.5 Q 272 -655 250 -655 Q 228 -655 207.5 -645.5 Q 187 -636 174.5 -618.5 Q 162 -601 157 -579 Q 152 -557 152 -535 Z M 250 -80 Q 272 -80 292.5 -89.5 Q 313 -99 325.5 -116.5 Q 338 -134 343 -156 Q 348 -178 348 -200 L 348 -398 L 152 -243 L 152 -200 Q 152 -178 157 -156 Q 162 -134 174.5 -116.5 Q 187 -99 207.5 -89.5 Q 228 -80 250 -80 Z " id="path1"/>
<path d="M 230 0 L 230 -631 L 110 -528 L 55 -584 L 230 -735 L 330 -735 L 330 0 Z " id="path2"/>
<path d="M 60 0 L 60 -1 Q 60 -27 61 -54 Q 62 -81 65.5 -107 Q 69 -133 77 -158.5 Q 85 -184 96.5 -208 Q 108 -232 123 -253.5 Q 138 -275 156 -294.5 Q 174 -314 194 -331 Q 214 -348 235.5 -364 Q 257 -380 277.5 -397 Q 298 -414 313 -435.5 Q 328 -457 336 -483 Q 344 -509 344 -535 Q 344 -557 339.5 -578 Q 335 -599 323.5 -617 Q 312 -635 292 -645 Q 272 -655 251 -655 Q 231 -655 212.5 -647.5 Q 194 -640 181.5 -625 Q 169 -610 163.5 -591 Q 158 -572 158 -552 L 158 -548 L 58 -548 L 58 -555 Q 58 -581 63.5 -606 Q 69 -631 81 -653 Q 93 -675 111.5 -693 Q 130 -711 152.5 -722.5 Q 175 -734 200.5 -738.5 Q 226 -743 251 -743 Q 278 -743 304.5 -737.5 Q 331 -732 354.5 -719 Q 378 -706 396 -685.5 Q 414 -665 425 -640.5 Q 436 -616 440 -589 Q 444 -562 444 -535 Q 444 -501 435 -468 Q 426 -435 407.5 -406 Q 389 -377 364 -353.5 Q 339 -330 312.5 -308.5 Q 286 -287 261 -264 Q 236 -241 216 -213 Q 196 -185 183 -153.5 Q 170 -122 165 -88 L 440 -88 L 440 0 Z " id="path3"/>
<path d="M 253 8 Q 227 8 201 4 Q 175 -0 151 -11.5 Q 127 -23 107.5 -40.5 Q 88 -58 75.5 -81 Q 63 -104 56.5 -129.5 Q 50 -155 50 -181 L 50 -187 L 150 -187 L 150 -184 Q 150 -163 157 -143 Q 164 -123 178 -108 Q 192 -93 212 -86.5 Q 232 -80 253 -80 Q 275 -80 296 -88.5 Q 317 -97 330.5 -114.5 Q 344 -132 350 -154 Q 356 -176 356 -198 Q 356 -217 352 -235.5 Q 348 -254 339 -271 Q 330 -288 316.5 -301 Q 303 -314 286 -322 Q 269 -330 250 -332 Q 231 -334 212 -334 L 212 -422 Q 229 -422 246 -424 Q 263 -426 278.5 -433 Q 294 -440 306 -452.5 Q 318 -465 325.5 -480.5 Q 333 -496 336.5 -513 Q 340 -530 340 -547 Q 340 -566 335.5 -585.5 Q 331 -605 320 -621.5 Q 309 -638 291 -646.5 Q 273 -655 253 -655 Q 234 -655 216 -647 Q 198 -639 187 -624 Q 176 -609 171 -590 Q 166 -571 166 -553 L 166 -548 L 66 -548 L 66 -556 Q 66 -581 71.5 -605.5 Q 77 -630 88 -652 Q 99 -674 116.5 -692.5 Q 134 -711 156.5 -722.5 Q 179 -734 203.5 -738.5 Q 228 -743 253 -743 Q 278 -743 303.5 -738 Q 329 -733 351 -721 Q 373 -709 390.5 -690 Q 408 -671 419 -648 Q 430 -625 435 -600 Q 440 -575 440 -550 Q 440 -524 434 -498.5 Q 428 -473 416 -450.5 Q 404 -428 385 -409.5 Q 366 -391 343 -379 Q 370 -368 391.5 -348.5 Q 413 -329 427.5 -304.5 Q 442 -280 449 -252 Q 456 -224 456 -196 Q 456 -168 450 -141.5 Q 444 -115 432 -91 Q 420 -67 401 -47 Q 382 -27 358 -14.5 Q 334 -2 307 3 Q 280 8 253 8 Z " id="path4"/>
<path d="M 282 0 L 282 -188 L 52 -188 L 52 -275 L 276 -735 L 385 -735 L 161 -275 L 282 -275 L 282 -435 L 383 -435 L 383 -275 L 440 -275 L 440 -188 L 383 -188 L 383 0 Z " id="path5"/>
<path d="M 252 8 Q 227 8 202.5 3.5 Q 178 -1 155.5 -12 Q 133 -23 114.5 -41 Q 96 -59 84 -80.5 Q 72 -102 65.5 -126.5 Q 59 -151 58 -176 L 159 -176 Q 160 -158 166.5 -139.5 Q 173 -121 185.5 -107 Q 198 -93 216 -86.5 Q 234 -80 252 -80 Q 269 -80 285 -87 Q 301 -94 312.5 -107 Q 324 -120 330.5 -135.5 Q 337 -151 341 -167.5 Q 345 -184 346.5 -201 Q 348 -218 348 -235 Q 348 -252 346.5 -269 Q 345 -286 341.5 -302.5 Q 338 -319 331.5 -334.5 Q 325 -350 314.5 -363 Q 304 -376 288 -383.5 Q 272 -391 256 -391 Q 240 -391 224 -387 Q 208 -383 195.5 -373.5 Q 183 -364 176 -349.5 Q 169 -335 168 -319 L 68 -319 L 68 -735 L 421 -735 L 421 -647 L 168 -647 L 168 -464 Q 189 -472 211 -475 Q 233 -478 256 -478 Q 285 -478 313.5 -470.5 Q 342 -463 365.5 -445.5 Q 389 -428 405.5 -403 Q 422 -378 431.5 -350.5 Q 441 -323 444.5 -294 Q 448 -265 448 -235 Q 448 -206 444.5 -176.5 Q 441 -147 431 -119 Q 421 -91 404.5 -66.5 Q 388 -42 364 -24.5 Q 340 -7 311 0.5 Q 282 8 252 8 Z " id="path6"/>
<path d="M 250 8 Q 221 8 192.5 1.5 Q 164 -5 140 -21 Q 116 -37 98.5 -60.5 Q 81 -84 70.5 -111 Q 60 -138 56 -166.5 Q 52 -195 52 -224 Q 52 -268 59.5 -311 Q 67 -354 81 -395.5 Q 95 -437 113 -477 Q 131 -517 150 -556 L 238 -735 L 347 -735 L 240 -517 Q 228 -493 216.5 -468.5 Q 205 -444 195 -419 Q 214 -438 239.5 -447 Q 265 -456 291 -456 Q 317 -456 342.5 -447 Q 368 -438 386.5 -419.5 Q 405 -401 417 -377.5 Q 429 -354 436 -328.5 Q 443 -303 445.5 -276.5 Q 448 -250 448 -224 Q 448 -195 444 -166.5 Q 440 -138 429.5 -111 Q 419 -84 401.5 -60.5 Q 384 -37 360 -21 Q 336 -5 307.5 1.5 Q 279 8 250 8 Z M 250 -80 Q 266 -80 282 -85.5 Q 298 -91 309.5 -102.5 Q 321 -114 328.5 -129 Q 336 -144 340.5 -159.5 Q 345 -175 346.5 -191.5 Q 348 -208 348 -224 Q 348 -240 346.5 -256.5 Q 345 -273 340.5 -289 Q 336 -305 328.5 -319.5 Q 321 -334 309.5 -345.5 Q 298 -357 282 -362.5 Q 266 -368 250 -368 Q 235 -368 221 -363.5 Q 207 -359 195.5 -349.5 Q 184 -340 176 -327.5 Q 168 -315 163.5 -301 Q 159 -287 156.5 -272.5 Q 154 -258 153 -243 Q 153 -238 152.5 -233.5 Q 152 -229 152 -224 Q 152 -208 153.5 -191.5 Q 155 -175 159.5 -159.5 Q 164 -144 171.5 -129 Q 179 -114 190.5 -102.5 Q 202 -91 218 -85.5 Q 234 -80 250 -80 Z " id="path7"/>
<path d="M 138 0 L 336 -647 L 60 -647 L 60 -735 L 440 -735 L 440 -647 L 242 0 Z " id="path8"/>
<path d="M 250 8 Q 225 8 200 4 Q 175 -0 152 -10 Q 129 -20 109.5 -37 Q 90 -54 77.5 -75.5 Q 65 -97 58.5 -121.5 Q 52 -146 52 -172 Q 52 -203 61.5 -232.5 Q 71 -262 88 -288.5 Q 105 -315 127 -336.5 Q 149 -358 174 -378 Q 152 -396 132.5 -417 Q 113 -438 98.5 -462.5 Q 84 -487 76 -514.5 Q 68 -542 68 -570 Q 68 -594 73.5 -617.5 Q 79 -641 90.5 -661.5 Q 102 -682 119.5 -698.5 Q 137 -715 158 -725 Q 179 -735 202.5 -739 Q 226 -743 250 -743 Q 274 -743 297.5 -739 Q 321 -735 342 -725 Q 363 -715 380.5 -698.5 Q 398 -682 409.5 -661.5 Q 421 -641 426.5 -617.5 Q 432 -594 432 -570 Q 432 -542 424 -514.5 Q 416 -487 401.5 -462.5 Q 387 -438 367.5 -417 Q 348 -396 326 -378 Q 351 -358 373 -336.5 Q 395 -315 412 -288.5 Q 429 -262 438.5 -232.5 Q 448 -203 448 -172 Q 448 -146 441.5 -121.5 Q 435 -97 422.5 -75.5 Q 410 -54 390.5 -37 Q 371 -20 348 -10 Q 325 -0 300 4 Q 275 8 250 8 Z M 250 -434 Q 266 -447 280.5 -461.5 Q 295 -476 306.5 -493 Q 318 -510 325 -529.5 Q 332 -549 332 -569 Q 332 -586 327 -602.5 Q 322 -619 310.5 -631.5 Q 299 -644 283 -649.5 Q 267 -655 250 -655 Q 233 -655 217 -649.5 Q 201 -644 189.5 -631.5 Q 178 -619 173 -602.5 Q 168 -586 168 -569 Q 168 -549 175 -529.5 Q 182 -510 193.5 -493 Q 205 -476 219.5 -461.5 Q 234 -447 250 -434 Z M 250 -80 Q 269 -80 288 -85.5 Q 307 -91 320.5 -104 Q 334 -117 341 -135.5 Q 348 -154 348 -173 Q 348 -196 339.5 -217.5 Q 331 -239 317 -257.5 Q 303 -276 285.5 -291 Q 268 -306 250 -320 Q 232 -306 214.5 -291 Q 197 -276 183 -257.5 Q 169 -239 160.5 -217.5 Q 152 -196 152 -173 Q 152 -154 159 -135.5 Q 166 -117 179.5 -104 Q 193 -91 212 -85.5 Q 231 -80 250 -80 Z " id="path9"/>
<path d="M 262 0 L 153 0 L 260 -218 Q 272 -242 283.5 -266.5 Q 295 -291 305 -316 Q 286 -297 260.5 -288 Q 235 -279 209 -279 Q 183 -279 157.5 -288 Q 132 -297 113.5 -315.5 Q 95 -334 83 -357.5 Q 71 -381 64 -406.5 Q 57 -432 54.5 -458.5 Q 52 -485 52 -511 Q 52 -540 56 -568.5 Q 60 -597 70.5 -624 Q 81 -651 98.5 -674.5 Q 116 -698 140 -714 Q 164 -730 192.5 -736.5 Q 221 -743 250 -743 Q 279 -743 307.5 -736.5 Q 336 -730 360 -714 Q 384 -698 401.5 -674.5 Q 419 -651 429.5 -624 Q 440 -597 444 -568.5 Q 448 -540 448 -511 Q 448 -467 440.5 -424 Q 433 -381 419 -339.5 Q 405 -298 387 -258 Q 369 -218 350 -179 Z M 250 -367 Q 265 -367 279 -371.5 Q 293 -376 304.5 -385.5 Q 316 -395 324 -407.5 Q 332 -420 336.5 -434 Q 341 -448 343.5 -462.5 Q 346 -477 347 -492 Q 347 -497 347.5 -501.5 Q 348 -506 348 -511 Q 348 -527 346.5 -543.5 Q 345 -560 340.5 -575.5 Q 336 -591 328.5 -606 Q 321 -621 309.5 -632.5 Q 298 -644 282 -649.5 Q 266 -655 250 -655 Q 234 -655 218 -649.5 Q 202 -644 190.5 -632.5 Q 179 -621 171.5 -606 Q 164 -591 159.5 -575.5 Q 155 -560 153.5 -543.5 Q 152 -527 152 -511 Q 152 -495 153.5 -478.5 Q 155 -462 159.5 -446 Q 164 -430 171.5 -415.5 Q 179 -401 190.5 -389.5 Q 202 -378 218 -372.5 Q 234 -367 250 -367 Z " id="path10"/>
<path d="M 39 0 L 53 -70 L 192 -735 L 308 -735 L 461 0 L 359 0 L 326 -172 L 174 -172 L 141 0 Z M 191 -260 L 309 -260 L 266 -490 Q 262 -511 258 -531.5 Q 254 -552 250 -573 Q 246 -552 242 -531.5 Q 238 -511 234 -490 Z " id="path11"/>
<path d="M 60 0 L 60 -735 L 235 -735 Q 261 -735 287 -730.5 Q 313 -726 336.5 -714 Q 360 -702 378.5 -682.5 Q 397 -663 408.5 -639.5 Q 420 -616 424.5 -590 Q 429 -564 429 -538 Q 429 -515 425.5 -492 Q 422 -469 411.5 -448.5 Q 401 -428 384.5 -411 Q 368 -394 348 -383 Q 373 -373 394.5 -355.5 Q 416 -338 430.5 -314.5 Q 445 -291 450.5 -264 Q 456 -237 456 -210 Q 456 -181 450.5 -152.5 Q 445 -124 431 -98.5 Q 417 -73 395.5 -53.5 Q 374 -34 347.5 -21.5 Q 321 -9 292.5 -4.5 Q 264 -0 235 0 Z M 160 -424 L 235 -424 Q 256 -424 275.5 -432.5 Q 295 -441 307.5 -457.5 Q 320 -474 324.5 -494.5 Q 329 -515 329 -536 Q 329 -557 324.5 -577.5 Q 320 -598 307.5 -614.5 Q 295 -631 275.5 -639 Q 256 -647 235 -647 L 160 -647 Z M 160 -88 L 235 -88 Q 251 -88 267.5 -91 Q 284 -94 298.5 -101.5 Q 313 -109 324.5 -121 Q 336 -133 343 -148 Q 350 -163 353 -179 Q 356 -195 356 -212 Q 356 -228 353 -244.5 Q 350 -261 343 -276 Q 336 -291 324.5 -303 Q 313 -315 298.5 -322.5 Q 284 -330 267.5 -333 Q 251 -336 235 -336 L 160 -336 Z " id="path12"/>
<path d="M 247 8 Q 220 8 193 3 Q 166 -2 142.5 -15.5 Q 119 -29 101 -49.5 Q 83 -70 71.5 -94.5 Q 60 -119 56 -146 Q 52 -173 52 -200 L 52 -535 Q 52 -562 56 -589 Q 60 -616 71.5 -640.5 Q 83 -665 101 -685.5 Q 119 -706 142.5 -719.5 Q 166 -733 193 -738 Q 220 -743 247 -743 Q 273 -743 298 -738.5 Q 323 -734 346 -723 Q 369 -712 387.5 -694 Q 406 -676 418 -653.5 Q 430 -631 436 -606 Q 442 -581 442 -555 L 442 -548 L 342 -548 L 342 -552 Q 342 -572 336 -591.5 Q 330 -611 317.5 -626 Q 305 -641 286 -648 Q 267 -655 247 -655 Q 225 -655 205 -645.5 Q 185 -636 173 -618 Q 161 -600 156.5 -578.5 Q 152 -557 152 -535 L 152 -200 Q 152 -178 156.5 -156.5 Q 161 -135 173 -117 Q 185 -99 205 -89.5 Q 225 -80 247 -80 Q 267 -80 286 -87 Q 305 -94 317.5 -109 Q 330 -124 336 -143.5 Q 342 -163 342 -183 L 342 -187 L 442 -187 L 442 -180 Q 442 -154 436 -129 Q 430 -104 418 -81.5 Q 406 -59 387.5 -41 Q 369 -23 346 -12 Q 323 -1 298 3.5 Q 273 8 247 8 Z " id="path13"/>
<path d="M 60 0 L 60 -735 L 220 -735 Q 250 -735 280 -730 Q 310 -725 337 -712 Q 364 -699 386.5 -678.5 Q 409 -658 423 -631.5 Q 437 -605 442.5 -575 Q 448 -545 448 -515 L 448 -220 Q 448 -190 442.5 -160 Q 437 -130 423 -103.5 Q 409 -77 386.5 -56.5 Q 364 -36 337 -23 Q 310 -10 280 -5 Q 250 -0 220 0 Z M 160 -88 L 220 -88 Q 237 -88 254.5 -91 Q 272 -94 287.5 -102.5 Q 303 -111 315 -124 Q 327 -137 334.5 -152.5 Q 342 -168 345 -185.5 Q 348 -203 348 -220 L 348 -515 Q 348 -532 345 -549.5 Q 342 -567 334.5 -582.5 Q 327 -598 315 -611 Q 303 -624 287.5 -632.5 Q 272 -641 254.5 -644 Q 237 -647 220 -647 L 160 -647 Z " id="path14"/>
<path d="M 68 0 L 68 -735 L 440 -735 L 440 -647 L 168 -647 L 168 -426 L 383 -426 L 383 -338 L 168 -338 L 168 -88 L 440 -88 L 440 0 Z " id="path15"/>
<path d="M 90 0 L 90 -735 L 440 -735 L 440 -647 L 190 -647 L 190 -426 L 383 -426 L 383 -338 L 190 -338 L 190 0 Z " id="path16"/>
<path d="M 250 8 Q 223 8 196.5 2.5 Q 170 -3 147 -16.5 Q 124 -30 106.5 -50.5 Q 89 -71 78.5 -95.5 Q 68 -120 64 -146.5 Q 60 -173 60 -200 L 60 -735 L 160 -735 L 160 -200 Q 160 -186 161.5 -172 Q 163 -158 167.5 -144.5 Q 172 -131 179.5 -118.5 Q 187 -106 197.5 -97 Q 208 -88 222 -84 Q 236 -80 250 -80 Q 264 -80 278 -84 Q 292 -88 302.5 -97 Q 313 -106 320.5 -118.5 Q 328 -131 332.5 -144.5 Q 337 -158 338.5 -172 Q 340 -186 340 -200 L 340 -735 L 440 -735 L 440 -200 Q 440 -173 436 -146.5 Q 432 -120 421.5 -95.5 Q 411 -71 393.5 -50.5 Q 376 -30 353 -16.5 Q 330 -3 303.5 2.5 Q 277 8 250 8 Z " id="path17"/>
<path d="M 300 -142 L 200 -142 L 200 -296 L 60 -296 L 60 -384 L 200 -384 L 200 -538 L 300 -538 L 300 -384 L 440 -384 L 440 -296 L 300 -296 Z " id="path18"/>
<path d="M 363 102 L 363 -587 L 285 -511 L 251 -549 L 500 -798 L 749 -549 L 715 -511 L 637 -587 L 637 102 L 594 102 L 594 -629 L 560 -663 L 560 102 L 517 102 L 517 -705 L 500 -721 L 483 -705 L 483 102 L 440 102 L 440 -663 L 406 -629 L 406 102 Z " id="path19"/>
<path d="M 500 118 L 251 -131 L 285 -169 L 363 -93 L 363 -782 L 406 -782 L 406 -51 L 440 -17 L 440 -782 L 483 -782 L 483 25 L 500 41 L 517 25 L 517 -782 L 560 -782 L 560 -17 L 594 -51 L 594 -782 L 637 -782 L 637 -93 L 715 -169 L 749 -131 Z " id="path20"/>
<path d="M 500 23 Q 462 23 423.5 18 Q 385 13 348.5 0 Q 312 -13 279.5 -34.5 Q 247 -56 221.5 -84.5 Q 196 -113 178 -147.5 Q 160 -182 151 -219 L 176 -194 L 226 -243 Q 236 -199 262 -159.5 Q 288 -120 325.5 -94 Q 363 -68 408.5 -57.5 Q 454 -47 500 -47 Q 539 -47 577.5 -54 Q 616 -61 650 -79.5 Q 684 -98 711 -126 Q 738 -154 755 -189 Q 772 -224 778.5 -262.5 Q 785 -301 785 -340 Q 785 -379 778.5 -417.5 Q 772 -456 755 -491 Q 738 -526 711 -554 Q 684 -582 650 -600 Q 616 -618 577.5 -625.5 Q 539 -633 500 -633 Q 463 -633 426 -626.5 Q 389 -620 355.5 -603.5 Q 322 -587 295 -560.5 Q 268 -534 250 -501.5 Q 232 -469 224.5 -432 Q 217 -395 215 -358 L 302 -441 L 336 -403 L 176 -243 L 17 -403 L 51 -441 L 138 -357 Q 139 -404 149 -451 Q 159 -498 181.5 -539 Q 204 -580 239 -613 Q 274 -646 316.5 -666.5 Q 359 -687 406 -695 Q 453 -703 500 -703 Q 549 -703 597 -694.5 Q 645 -686 688.5 -664 Q 732 -642 767 -607 Q 802 -572 824 -528.5 Q 846 -485 854.5 -437 Q 863 -389 863 -340 Q 863 -291 854.5 -243 Q 846 -195 824 -151.5 Q 802 -108 767 -73 Q 732 -38 688.5 -16 Q 645 6 597 14.5 Q 549 23 500 23 Z " id="path21"/>
<path d="M 500 23 Q 451 23 403 14.5 Q 355 6 311.5 -16 Q 268 -38 233 -73 Q 198 -108 176 -151.5 Q 154 -195 145.5 -243 Q 137 -291 137 -340 Q 137 -389 145.5 -437 Q 154 -485 176 -528.5 Q 198 -572 233 -607 Q 268 -642 311.5 -664 Q 355 -686 403 -694.5 Q 451 -703 500 -703 Q 547 -703 594 -695 Q 641 -687 683.5 -666.5 Q 726 -646 761 -613 Q 796 -580 818.5 -539 Q 841 -498 851 -451 Q 861 -404 862 -357 L 949 -441 L 983 -403 L 824 -243 L 664 -403 L 698 -441 L 785 -358 Q 783 -395 775.5 -432 Q 768 -469 750 -501.5 Q 732 -534 705 -560.5 Q 678 -587 644.5 -603.5 Q 611 -620 574 -626.5 Q 537 -633 500 -633 Q 461 -633 422.5 -626 Q 384 -619 350 -600.5 Q 316 -582 289 -554 Q 262 -526 245 -491 Q 228 -456 221.5 -417.5 Q 215 -379 215 -340 Q 215 -301 221.5 -262.5 Q 228 -224 245 -189 Q 262 -154 289 -126 Q 316 -98 350 -80 Q 384 -62 422.5 -54.5 Q 461 -47 500 -47 Q 546 -47 591.5 -57.5 Q 637 -68 674.5 -94 Q 712 -120 738 -159.5 Q 764 -199 774 -243 L 824 -194 L 849 -219 Q 840 -182 822 -147.5 Q 804 -113 778.5 -84.5 Q 753 -56 720.5 -34.5 Q 688 -13 651.5 0 Q 615 13 576.5 18 Q 538 23 500 23 Z " id="path22"/>
<path d="M 64 0 L 64 -735 L 436 -735 L 436 0 Z M 94 -321 L 401 -705 L 307 -705 L 94 -438 Z M 94 -477 L 276 -705 L 182 -705 L 94 -595 Z M 94 -634 L 151 -705 L 94 -705 Z M 94 -165 L 406 -554 L 406 -671 L 94 -282 Z M 94 -30 L 112 -30 L 406 -398 L 406 -515 L 94 -126 Z M 143 -30 L 237 -30 L 406 -242 L 406 -359 Z M 362 -30 L 406 -85 L 406 -203 L 268 -30 Z M 393 -30 L 406 -30 L 406 -46 Z " id="path23"/>
<path d="M 291 -91 L 42 -340 L 291 -589 L 329 -555 L 153 -375 L 942 -375 L 942 -305 L 153 -305 L 329 -125 Z " id="path24"/>
<path d="M 709 -91 L 671 -125 L 847 -305 L 58 -305 L 58 -375 L 847 -375 L 671 -555 L 709 -589 L 958 -340 Z " id="path25"/>
<path d="M 291 -91 L 42 -340 L 291 -589 L 329 -555 L 153 -375 L 847 -375 L 671 -555 L 709 -589 L 958 -340 L 709 -91 L 671 -125 L 847 -305 L 153 -305 L 329 -125 Z " id="path26"/>
<path d="M 291 -91 L 42 -340 L 291 -589 L 329 -555 L 253 -477 L 942 -477 L 942 -407 L 184 -407 L 119 -340 L 184 -273 L 942 -273 L 942 -203 L 253 -203 L 329 -125 Z " id="path27"/>
<path d="M 709 -91 L 671 -125 L 747 -203 L 58 -203 L 58 -273 L 816 -273 L 881 -340 L 816 -407 L 58 -407 L 58 -477 L 747 -477 L 671 -555 L 709 -589 L 958 -340 Z " id="path28"/>
<path d="M 291 -91 L 42 -340 L 291 -589 L 329 -555 L 253 -477 L 747 -477 L 671 -555 L 709 -589 L 958 -340 L 709 -91 L 671 -125 L 747 -203 L 253 -203 L 329 -125 Z M 816 -273 L 881 -340 L 816 -407 L 184 -407 L 119 -340 L 184 -273 Z " id="path29"/>
<path d="M 291 -91 L 42 -340 L 291 -589 L 329 -555 L 153 -375 L 904 -375 L 904 -589 L 981 -589 L 981 -91 L 904 -91 L 904 -305 L 153 -305 L 329 -125 Z " id="path30"/>
<path d="M 709 -91 L 671 -125 L 847 -305 L 96 -305 L 96 -91 L 19 -91 L 19 -589 L 96 -589 L 96 -375 L 847 -375 L 671 -555 L 709 -589 L 958 -340 Z " id="path31"/>
<path d="M 291 -91 L 42 -340 L 291 -589 L 329 -555 L 253 -477 L 904 -477 L 904 -589 L 981 -589 L 981 -91 L 904 -91 L 904 -203 L 253 -203 L 329 -125 Z M 184 -273 L 904 -273 L 904 -407 L 184 -407 L 119 -340 Z " id="path32"/>
<path d="M 709 -91 L 671 -125 L 747 -203 L 96 -203 L 96 -91 L 19 -91 L 19 -589 L 96 -589 L 96 -477 L 747 -477 L 671 -555 L 709 -589 L 958 -340 Z M 96 -273 L 816 -273 L 881 -340 L 816 -407 L 96 -407 Z " id="path33"/>
<path d="M 709 -91 L 671 -125 L 847 -305 L 721 -305 L 675 -379 L 583 -217 L 491 -379 L 399 -217 L 307 -379 L 214 -217 L 168 -305 L 58 -305 L 58 -375 L 168 -375 L 214 -301 L 307 -463 L 399 -301 L 491 -463 L 583 -301 L 675 -463 L 721 -375 L 847 -375 L 671 -555 L 709 -589 L 958 -340 Z " id="path34"/>
</defs>
<g>
<g data-source-text="0" fill="#dee4e3" transform="translate(174 41.292) rotate(0) scale(0.023999998)">
<use href="#path1" transform="translate(0 0)"/>
</g>
</g>
<g>
<g data-source-text="1" fill="#dee4e3" transform="translate(246 41.292) rotate(0) scale(0.023999998)">
<use href="#path2" transform="translate(0 0)"/>
</g>
</g>
<g>
<g data-source-text="2" fill="#dee4e3" transform="translate(318 41.292) rotate(0) scale(0.023999998)">
<use href="#path3" transform="translate(0 0)"/>
</g>
</g>
<g>
<g data-source-text="3" fill="#dee4e3" transform="translate(390 41.292) rotate(0) scale(0.023999998)">
<use href="#path4" transform="translate(0 0)"/>
</g>
</g>
<g>
<g data-source-text="4" fill="#dee4e3" transform="translate(462 41.292) rotate(0) scale(0.023999998)">
<use href="#path5" transform="translate(0 0)"/>
</g>
</g>
<g>
<g data-source-text="5" fill="#dee4e3" transform="translate(534 41.292) rotate(0) scale(0.023999998)">
<use href="#path6" transform="translate(0 0)"/>
</g>
</g>
<g>
<g data-source-text="6" fill="#dee4e3" transform="translate(606 41.292) rotate(0) scale(0.023999998)">
<use href="#path7" transform="translate(0 0)"/>
</g>
</g>
<g>
<g data-source-text="7" fill="#dee4e3" transform="translate(678 41.292) rotate(0) scale(0.023999998)">
<use href="#path8" transform="translate(0 0)"/>
</g>
</g>
<g>
<g data-source-text="8" fill="#dee4e3" transform="translate(750 41.292) rotate(0) scale(0.023999998)">
<use href="#path9" transform="translate(0 0)"/>
</g>
</g>
<g>
<g data-source-text="9" fill="#dee4e3" transform="translate(822 41.292) rotate(0) scale(0.023999998)">
<use href="#path10" transform="translate(0 0)"/>
</g>
</g>
<g>
<g data-source-text="A" fill="#dee4e3" transform="translate(894 41.292) rotate(0) scale(0.023999998)">
<use href="#path11" transform="translate(0 0)"/>
</g>
</g>
<g>
<g data-source-text="B" fill="#dee4e3" transform="translate(966 41.292) rotate(0) scale(0.023999998)">
<use href="#path12" transform="translate(0 0)"/>
</g>
</g>
<g>
<g data-source-text="C" fill="#dee4e3" transform="translate(1038 41.292) rotate(0) scale(0.023999998)">
<use href="#path13" transform="translate(0 0)"/>
</g>
</g>
<g>
<g data-source-text="D" fill="#dee4e3" transform="translate(1110 41.292) rotate(0) scale(0.023999998)">
<use href="#path14" transform="translate(0 0)"/>
</g>
</g>
<g>
<g data-source-text="E" fill="#dee4e3" transform="translate(1182 41.292) rotate(0) scale(0.023999998)">
<use href="#path15" transform="translate(0 0)"/>
</g>
</g>
<g>
<g data-source-text="F" fill="#dee4e3" transform="translate(1254 41.292) rotate(0) scale(0.023999998)">
<use href="#path16" transform="translate(0 0)"/>
</g>
</g>
<g>
<g data-source-text="U+27F0" fill="#dee4e3" transform="translate(36 113.292) rotate(0) scale(0.023999998)">
<use href="#path17" transform="translate(0 0)"/>
<use href="#path18" transform="translate(500 0)"/>
<use href="#path3" transform="translate(1000 0)"/>
<use href="#path8" transform="translate(1500 0)"/>
<use href="#path16" transform="translate(2000 0)"/>
<use href="#path1" transform="translate(2500 0)"/>
</g>
</g>
<g>
<g data-source-text="⟰" fill="#dee4e3" transform="translate(156 118.584) rotate(0) scale(0.047999997)">
<use href="#path19" transform="translate(0 0)"/>
</g>
</g>
<g>
<g data-source-text="⟱" fill="#dee4e3" transform="translate(228 118.584) rotate(0) scale(0.047999997)">
<use href="#path20" transform="translate(0 0)"/>
</g>
</g>
<g>
<g data-source-text="⟲" fill="#dee4e3" transform="translate(300 118.584) rotate(0) scale(0.047999997)">
<use href="#path21" transform="translate(0 0)"/>
</g>
</g>
<g>
<g data-source-text="⟳" fill="#dee4e3" transform="translate(372 118.584) rotate(0) scale(0.047999997)">
<use href="#path22" transform="translate(0 0)"/>
</g>
</g>
<g>
<g data-source-text="" fill="#dee4e340" transform="translate(456 118.584) rotate(0) scale(0.047999997)">
<use href="#path23" transform="translate(0 0)"/>
</g>
</g>
<g>
<g data-source-text="⟵" fill="#dee4e3" transform="translate(516 118.584) rotate(0) scale(0.047999997)">
<use href="#path24" transform="translate(0 0)"/>
</g>
</g>
<g>
<g data-source-text="⟶" fill="#dee4e3" transform="translate(588 118.584) rotate(0) scale(0.047999997)">
<use href="#path25" transform="translate(0 0)"/>
</g>
</g>
<g>
<g data-source-text="⟷" fill="#dee4e3" transform="translate(660 118.584) rotate(0) scale(0.047999997)">
<use href="#path26" transform="translate(0 0)"/>
</g>
</g>
<g>
<g data-source-text="⟸" fill="#dee4e3" transform="translate(732 118.584) rotate(0) scale(0.047999997)">
<use href="#path27" transform="translate(0 0)"/>
</g>
</g>
<g>
<g data-source-text="⟹" fill="#dee4e3" transform="translate(804 118.584) rotate(0) scale(0.047999997)">
<use href="#path28" transform="translate(0 0)"/>
</g>
</g>
<g>
<g data-source-text="⟺" fill="#dee4e3" transform="translate(876 118.584) rotate(0) scale(0.047999997)">
<use href="#path29" transform="translate(0 0)"/>
</g>
</g>
<g>
<g data-source-text="⟻" fill="#dee4e3" transform="translate(948 118.584) rotate(0) scale(0.047999997)">
<use href="#path30" transform="translate(0 0)"/>
</g>
</g>
<g>
<g data-source-text="⟼" fill="#dee4e3" transform="translate(1020 118.584) rotate(0) scale(0.047999997)">
<use href="#path31" transform="translate(0 0)"/>
</g>
</g>
<g>
<g data-source-text="⟽" fill="#dee4e3" transform="translate(1092 118.584) rotate(0) scale(0.047999997)">
<use href="#path32" transform="translate(0 0)"/>
</g>
</g>
<g>
<g data-source-text="⟾" fill="#dee4e3" transform="translate(1164 118.584) rotate(0) scale(0.047999997)">
<use href="#path33" transform="translate(0 0)"/>
</g>
</g>
<g>
<g data-source-text="⟿" fill="#dee4e3" transform="translate(1236 118.584) rotate(0) scale(0.047999997)">
<use href="#path34" transform="translate(0 0)"/>
</g>
</g>
</svg>