<?xml version="1.0" encoding="UTF-8" standalone="no"?>
<svg height="288" viewBox="0 0 1296 288" width="1296" xmlns="http://www.w3.org/2000/svg">
<defs>
<path d="M 250 8 Q 223 8 196 3 Q 169 -2 145 -15 Q 121 -28 102.5 -48.5 Q 84 -69 72.5 -94 Q 61 -119 56.5 -146 Q 52 -173 52 -200 L 52 -535 Q 52 -562 56.5 -589 Q 61 -616 72.5 -641 Q 84 -666 102.5 -686.5 Q 121 -707 145 -720 Q 169 -733 196 -738 Q 223 -743 250 -743 Q 277 -743 304 -738 Q 331 -733 355 -720 Q 379 -707 397.5 -686.5 Q 416 -666 427.5 -641 Q 439 -616 443.5 -589 Q 448 -562 448 -535 L 448 -200 Q 448 -173 443.5 -146 Q 439 -119 427.5 -94 Q 416 -69 397.5 -48.5 Q 379 -28 355 -15 Q 331 -2 304 3 Q 277 8 250 8 Z M 153 -337 L 347 -491 L 347 -535 Q 347 -557 342.5 -578.5 Q 338 -600 325.5 -618 Q 313 -636 292.5 -645.5 Q 272 -655 250 -655 Q 228 -655 207.5 -645.5 Q 187 -636 174.5 -618 Q 162 -600 157.5 -578.5 Q 153 -557 153 -535 Z M 250 -80 Q 272 -80 292.5 -89.5 Q 313 -99 325.5 -117 Q 338 -135 342.5 -156.5 Q 347 -178 347 -200 L 347 -398 L 153 -244 L 153 -200 Q 153 -178 157.5 -156.5 Q 162 -135 174.5 -117 Q 187 -99 207.5 -89.5 Q 228 -80 250 -80 Z " id="path1"/>
<path d="M 230 0 L 230 -631 L 110 -528 L 55 -584 L 230 -735 L 330 -735 L 330 0 Z " id="path2"/>
<path d="M 440 0 L 60 0 L 60 -1 Q 60 -27 61 -53.5 Q 62 -80 66 -106.5 Q 70 -133 77.5 -158.5 Q 85 -184 96.5 -207.5 Q 108 -231 123 -253 Q 138 -275 156 -294.5 Q 174 -314 194 -331 Q 214 -348 235.5 -364 Q 257 -380 277.5 -397 Q 298 -414 313 -435.5 Q 328 -457 335.5 -483 Q 343 -509 343 -535 Q 343 -557 339 -578 Q 335 -599 323.5 -617 Q 312 -635 292 -645 Q 272 -655 251 -655 Q 231 -655 212.5 -647.5 Q 194 -640 182 -625 Q 170 -610 164.5 -591 Q 159 -572 159 -552 L 159 -548 L 58 -548 L 58 -555 Q 58 -581 64 -605.5 Q 70 -630 81.5 -652.5 Q 93 -675 111.5 -693 Q 130 -711 152.5 -722.5 Q 175 -734 200.5 -738.5 Q 226 -743 251 -743 Q 278 -743 304.5 -737.5 Q 331 -732 354.5 -719 Q 378 -706 396 -685.5 Q 414 -665 424.5 -640.5 Q 435 -616 439.5 -589 Q 444 -562 444 -535 Q 444 -501 435 -468 Q 426 -435 407.5 -406 Q 389 -377 364 -353.5 Q 339 -330 312.5 -308.5 Q 286 -287 261 -264 Q 236 -241 216.5 -213 Q 197 -185 184 -153.5 Q 171 -122 166 -88 L 440 -88 Z " id="path3"/>
<path d="M 253 8 Q 227 8 201 4 Q 175 -0 151.5 -11.5 Q 128 -23 108.5 -40.5 Q 89 -58 76 -81 Q 63 -104 56.5 -129.5 Q 50 -155 50 -181 L 50 -187 L 151 -187 L 151 -184 Q 151 -163 157.5 -143 Q 164 -123 178 -108 Q 192 -93 212 -86.5 Q 232 -80 253 -80 Q 275 -80 296 -88.5 Q 317 -97 330.5 -114.5 Q 344 -132 349.5 -154 Q 355 -176 355 -198 Q 355 -217 351 -235.5 Q 347 -254 338.5 -271 Q 330 -288 316.5 -301 Q 303 -314 286 -322 Q 269 -330 250 -332 Q 231 -334 212 -334 L 212 -422 Q 229 -422 246 -424 Q 263 -426 278.5 -433 Q 294 -440 306 -452.5 Q 318 -465 325.5 -480.5 Q 333 -496 336 -513 Q 339 -530 339 -547 Q 339 -566 334.5 -585.5 Q 330 -605 319.5 -621 Q 309 -637 291 -646 Q 273 -655 253 -655 Q 234 -655 216.5 -647 Q 199 -639 187.5 -624 Q 176 -609 171.5 -590 Q 167 -571 167 -553 L 167 -548 L 66 -548 L 66 -556 Q 66 -581 71.5 -605.5 Q 77 -630 88 -652 Q 99 -674 117 -692.5 Q 135 -711 157 -722.5 Q 179 -734 203.5 -738.5 Q 228 -743 253 -743 Q 278 -743 303.5 -738 Q 329 -733 351 -721 Q 373 -709 390 -690 Q 407 -671 418 -648 Q 429 -625 434.5 -600 Q 440 -575 440 -550 Q 440 -524 434 -498.5 Q 428 -473 415.5 -450.5 Q 403 -428 384.5 -409.5 Q 366 -391 343 -379 Q 369 -368 390.5 -348.5 Q 412 -329 427 -304.5 Q 442 -280 449 -252 Q 456 -224 456 -196 Q 456 -168 450 -141.5 Q 444 -115 432 -91 Q 420 -67 401 -47 Q 382 -27 358 -14.5 Q 334 -2 307 3 Q 280 8 253 8 Z " id="path4"/>
<path d="M 282 0 L 282 -188 L 52 -188 L 52 -275 L 276 -735 L 385 -735 L 161 -275 L 282 -275 L 282 -435 L 382 -435 L 382 -275 L 440 -275 L 440 -188 L 382 -188 L 382 0 Z " id="path5"/>
<path d="M 252 8 Q 227 8 202.5 3.5 Q 178 -1 155.5 -12 Q 133 -23 115 -41 Q 97 -59 85 -80.5 Q 73 -102 66.5 -126.5 Q 60 -151 59 -176 L 159 -176 Q 161 -158 167 -139.5 Q 173 -121 185.5 -107 Q 198 -93 216 -86.5 Q 234 -80 252 -80 Q 269 -80 285 -87 Q 301 -94 312 -107 Q 323 -120 330 -135.5 Q 337 -151 340.5 -168 Q 344 -185 345.5 -202 Q 347 -219 347 -236 Q 347 -252 346 -269 Q 345 -286 341 -302 Q 337 -318 331 -334 Q 325 -350 314 -363 Q 303 -376 287.5 -383.5 Q 272 -391 256 -391 Q 240 -391 224.5 -387 Q 209 -383 196 -373.5 Q 183 -364 176 -349.5 Q 169 -335 168 -319 L 68 -319 L 68 -735 L 421 -735 L 421 -647 L 168 -647 L 168 -464 Q 189 -472 211 -475 Q 233 -478 256 -478 Q 285 -478 313.5 -470.5 Q 342 -463 365.5 -445.5 Q 389 -428 405.5 -403 Q 422 -378 431.5 -350.5 Q 441 -323 444.5 -294 Q 448 -265 448 -235 Q 448 -206 444 -176.5 Q 440 -147 430.5 -119 Q 421 -91 404 -66.5 Q 387 -42 363.5 -24.5 Q 340 -7 311 0.5 Q 282 8 252 8 Z " id="path6"/>
<path d="M 250 8 Q 221 8 192.5 1.5 Q 164 -5 140 -21 Q 116 -37 98.5 -60.5 Q 81 -84 70.5 -111 Q 60 -138 56 -166.5 Q 52 -195 52 -224 Q 52 -268 60 -311 Q 68 -354 81.5 -395.5 Q 95 -437 113 -477 Q 131 -517 150 -556 L 238 -735 L 347 -735 L 240 -517 Q 228 -493 216.5 -468.5 Q 205 -444 195 -419 Q 214 -438 239 -447 Q 264 -456 291 -456 Q 317 -456 342.5 -447 Q 368 -438 386.5 -419.5 Q 405 -401 417 -377.5 Q 429 -354 436 -328.5 Q 443 -303 445.5 -276.5 Q 448 -250 448 -224 Q 448 -195 444 -166.5 Q 440 -138 429.5 -111 Q 419 -84 401.5 -60.5 Q 384 -37 360 -21 Q 336 -5 307.5 1.5 Q 279 8 250 8 Z M 250 -80 Q 266 -80 282 -85.5 Q 298 -91 309.5 -102.5 Q 321 -114 328.5 -129 Q 336 -144 340 -159.5 Q 344 -175 345.5 -191.5 Q 347 -208 347 -224 Q 347 -240 345.5 -256.5 Q 344 -273 340 -289 Q 336 -305 328.5 -319.5 Q 321 -334 309.5 -345.5 Q 298 -357 282 -362.5 Q 266 -368 250 -368 Q 235 -368 221 -363.5 Q 207 -359 195.5 -349.5 Q 184 -340 176.5 -327.5 Q 169 -315 164 -301 Q 159 -287 156.5 -272.5 Q 154 -258 153 -243 L 153 -224 Q 153 -208 154.5 -191.5 Q 156 -175 160 -159.5 Q 164 -144 171.5 -129 Q 179 -114 190.5 -102.5 Q 202 -91 218 -85.5 Q 234 -80 250 -80 Z " id="path7"/>
<path d="M 242 0 L 138 0 L 336 -647 L 60 -647 L 60 -735 L 440 -735 L 440 -647 Z " id="path8"/>
<path d="M 250 8 Q 225 8 200 4 Q 175 -0 152 -10 Q 129 -20 109.5 -37 Q 90 -54 77.5 -75.5 Q 65 -97 58.5 -121.5 Q 52 -146 52 -172 Q 52 -203 62 -232.5 Q 72 -262 88.5 -288 Q 105 -314 127 -336 Q 149 -358 174 -378 Q 152 -396 132.5 -417 Q 113 -438 98.5 -462.5 Q 84 -487 76 -514.5 Q 68 -542 68 -570 Q 68 -594 73.5 -617 Q 79 -640 90.5 -661 Q 102 -682 119.5 -698.5 Q 137 -715 158 -725 Q 179 -735 202.5 -739 Q 226 -743 250 -743 Q 274 -743 297.5 -739 Q 321 -735 342 -725 Q 363 -715 380.5 -698.5 Q 398 -682 409.5 -661 Q 421 -640 426.5 -617 Q 432 -594 432 -570 Q 432 -542 424 -514.5 Q 416 -487 401.5 -462.5 Q 387 -438 367.5 -417 Q 348 -396 326 -378 Q 351 -358 373 -336 Q 395 -314 411.5 -288 Q 428 -262 438 -232.5 Q 448 -203 448 -172 Q 448 -146 441.5 -121.5 Q 435 -97 422.5 -75.5 Q 410 -54 390.5 -37 Q 371 -20 348 -10 Q 325 -0 300 4 Q 275 8 250 8 Z M 250 -435 Q 266 -447 280.5 -461.5 Q 295 -476 306.5 -493 Q 318 -510 325 -529.5 Q 332 -549 332 -569 Q 332 -586 326.5 -602.5 Q 321 -619 310 -631.5 Q 299 -644 283 -649.5 Q 267 -655 250 -655 Q 233 -655 217 -649.5 Q 201 -644 190 -631.5 Q 179 -619 173.5 -602.5 Q 168 -586 168 -569 Q 168 -549 175 -529.5 Q 182 -510 193.5 -493 Q 205 -476 219.5 -461.5 Q 234 -447 250 -435 Z M 250 -80 Q 269 -80 287.5 -85.5 Q 306 -91 320 -104 Q 334 -117 340.5 -135.5 Q 347 -154 347 -173 Q 347 -196 338.5 -217.5 Q 330 -239 316.5 -257.5 Q 303 -276 285.5 -291 Q 268 -306 250 -320 Q 232 -306 214.5 -291 Q 197 -276 183.5 -257.5 Q 170 -239 161.5 -217.5 Q 153 -196 153 -173 Q 153 -154 159.5 -135.5 Q 166 -117 180 -104 Q 194 -91 212.5 -85.5 Q 231 -80 250 -80 Z " id="path9"/>
<path d="M 262 0 L 153 0 L 260 -218 Q 272 -242 283.5 -266.5 Q 295 -291 305 -316 Q 286 -297 261 -288 Q 236 -279 209 -279 Q 183 -279 157.5 -288 Q 132 -297 113.5 -315.5 Q 95 -334 83 -357.5 Q 71 -381 64 -406.5 Q 57 -432 54.5 -458.5 Q 52 -485 52 -511 Q 52 -540 56 -568.5 Q 60 -597 70.5 -624 Q 81 -651 98.5 -674.5 Q 116 -698 140 -714 Q 164 -730 192.5 -736.5 Q 221 -743 250 -743 Q 279 -743 307.5 -736.5 Q 336 -730 360 -714 Q 384 -698 401.5 -674.5 Q 419 -651 429.5 -624 Q 440 -597 444 -568.5 Q 448 -540 448 -511 Q 448 -467 440 -424 Q 432 -381 418.5 -339.5 Q 405 -298 387 -258 Q 369 -218 350 -179 Z M 250 -367 Q 265 -367 279 -371.5 Q 293 -376 304.5 -385.5 Q 316 -395 323.5 -407.5 Q 331 -420 336 -434 Q 341 -448 343.5 -462.5 Q 346 -477 347 -492 L 347 -511 Q 347 -527 345.5 -543.5 Q 344 -560 340 -575.5 Q 336 -591 328.5 -606 Q 321 -621 309.5 -632.5 Q 298 -644 282 -649.5 Q 266 -655 250 -655 Q 234 -655 218 -649.5 Q 202 -644 190.5 -632.5 Q 179 -621 171.5 -606 Q 164 -591 160 -575.5 Q 156 -560 154.5 -543.5 Q 153 -527 153 -511 Q 153 -495 154.5 -478.5 Q 156 -462 160 -446 Q 164 -430 171.5 -415.5 Q 179 -401 190.5 -389.5 Q 202 -378 218 -372.5 Q 234 -367 250 -367 Z " id="path10"/>
<path d="M 39 0 L 192 -735 L 308 -735 L 461 0 L 358 0 L 326 -172 L 174 -172 L 142 0 Z M 309 -260 L 265 -490 Q 262 -511 258 -531.5 Q 254 -552 250 -572 Q 246 -552 242 -531.5 Q 238 -511 235 -490 L 191 -260 Z " id="path11"/>
<path d="M 60 0 L 60 -735 L 234 -735 Q 261 -735 287 -730.5 Q 313 -726 336 -714 Q 359 -702 377.5 -682.5 Q 396 -663 408 -639.5 Q 420 -616 424.5 -590 Q 429 -564 429 -538 Q 429 -515 425 -492 Q 421 -469 410.5 -448.5 Q 400 -428 383.5 -411 Q 367 -394 347 -383 Q 372 -373 393.5 -355.5 Q 415 -338 429.5 -314.5 Q 444 -291 450 -264 Q 456 -237 456 -210 Q 456 -181 450 -152.5 Q 444 -124 430 -98.5 Q 416 -73 394.5 -53.5 Q 373 -34 347 -21.5 Q 321 -9 292 -4.5 Q 263 -0 234 0 Z M 161 -424 L 234 -424 Q 255 -424 274.5 -432.5 Q 294 -441 306.5 -457.5 Q 319 -474 324 -494.5 Q 329 -515 329 -536 Q 329 -557 324 -577.5 Q 319 -598 306.5 -614.5 Q 294 -631 274.5 -639 Q 255 -647 234 -647 L 161 -647 Z M 161 -88 L 234 -88 Q 251 -88 267 -91 Q 283 -94 297.5 -101.5 Q 312 -109 323.5 -121 Q 335 -133 342.5 -148 Q 350 -163 352.5 -179 Q 355 -195 355 -212 Q 355 -228 352.5 -244.5 Q 350 -261 343 -276 Q 336 -291 324.5 -303 Q 313 -315 298 -322.5 Q 283 -330 267 -333 Q 251 -336 234 -336 L 161 -336 Z " id="path12"/>
<path d="M 247 8 Q 220 8 193 2.5 Q 166 -3 142.5 -16 Q 119 -29 101 -49.5 Q 83 -70 72 -94.5 Q 61 -119 56.5 -146 Q 52 -173 52 -200 L 52 -535 Q 52 -562 56.5 -589 Q 61 -616 72 -640.5 Q 83 -665 101 -685.5 Q 119 -706 142.5 -719 Q 166 -732 193 -737.5 Q 220 -743 247 -743 Q 273 -743 298 -738.5 Q 323 -734 346 -723 Q 369 -712 387.5 -694 Q 406 -676 418 -653.5 Q 430 -631 436 -606 Q 442 -581 442 -555 L 442 -548 L 341 -548 L 341 -552 Q 341 -572 335.5 -591.5 Q 330 -611 317.5 -626 Q 305 -641 286 -648 Q 267 -655 247 -655 Q 225 -655 205 -645.5 Q 185 -636 173 -618 Q 161 -600 157 -578.5 Q 153 -557 153 -535 L 153 -200 Q 153 -178 157 -156.5 Q 161 -135 173 -117 Q 185 -99 205 -89.5 Q 225 -80 247 -80 Q 267 -80 286 -87 Q 305 -94 317.5 -109 Q 330 -124 335.5 -143.5 Q 341 -163 341 -183 L 341 -187 L 442 -187 L 442 -180 Q 442 -154 436 -129 Q 430 -104 418 -81.5 Q 406 -59 387.5 -41 Q 369 -23 346 -12 Q 323 -1 298 3.5 Q 273 8 247 8 Z " id="path13"/>
<path d="M 60 0 L 60 -735 L 219 -735 Q 249 -735 279 -730 Q 309 -725 336.5 -712 Q 364 -699 386 -678.5 Q 408 -658 422 -631.5 Q 436 -605 442 -575 Q 448 -545 448 -515 L 448 -220 Q 448 -190 442 -160 Q 436 -130 422 -103.5 Q 408 -77 386 -56.5 Q 364 -36 336.5 -23 Q 309 -10 279 -5 Q 249 -0 219 0 Z M 161 -88 L 219 -88 Q 237 -88 254 -91 Q 271 -94 286.5 -102.5 Q 302 -111 314 -124 Q 326 -137 333.5 -152.5 Q 341 -168 344 -185.5 Q 347 -203 347 -220 L 347 -515 Q 347 -532 344 -549.5 Q 341 -567 333.5 -582.5 Q 326 -598 314 -611 Q 302 -624 286.5 -632.5 Q 271 -641 254 -644 Q 237 -647 219 -647 L 161 -647 Z " id="path14"/>
<path d="M 68 0 L 68 -735 L 440 -735 L 440 -647 L 169 -647 L 169 -426 L 383 -426 L 383 -338 L 169 -338 L 169 -88 L 440 -88 L 440 0 Z " id="path15"/>
<path d="M 91 0 L 91 -735 L 440 -735 L 440 -647 L 191 -647 L 191 -426 L 383 -426 L 383 -338 L 191 -338 L 191 0 Z " id="path16"/>
<path d="M 250 8 Q 223 8 196.5 2.5 Q 170 -3 147 -16.5 Q 124 -30 106.5 -50.5 Q 89 -71 78.5 -95.5 Q 68 -120 64 -146.5 Q 60 -173 60 -200 L 60 -735 L 161 -735 L 161 -200 Q 161 -186 162.5 -172 Q 164 -158 168 -144.5 Q 172 -131 179.5 -118.5 Q 187 -106 197.5 -97 Q 208 -88 222 -84 Q 236 -80 250 -80 Q 264 -80 278 -84 Q 292 -88 302.5 -97 Q 313 -106 320.5 -118.5 Q 328 -131 332 -144.5 Q 336 -158 337.5 -172 Q 339 -186 339 -200 L 339 -735 L 440 -735 L 440 -200 Q 440 -173 436 -146.5 Q 432 -120 421.5 -95.5 Q 411 -71 393.5 -50.5 Q 376 -30 353 -16.5 Q 330 -3 303.5 2.5 Q 277 8 250 8 Z " id="path17"/>
<path d="M 300 -143 L 200 -143 L 200 -296 L 60 -296 L 60 -384 L 200 -384 L 200 -537 L 300 -537 L 300 -384 L 440 -384 L 440 -296 L 300 -296 Z " id="path18"/>
<path d="M 64 0 L 64 -735 L 436 -735 L 436 0 Z M 94 -321 L 401 -705 L 308 -705 L 94 -438 Z M 94 -478 L 276 -705 L 182 -705 L 94 -595 Z M 94 -634 L 151 -705 L 94 -705 Z M 94 -165 L 406 -554 L 406 -671 L 94 -282 Z M 94 -30 L 111 -30 L 406 -398 L 406 -515 L 94 -126 Z M 143 -30 L 236 -30 L 406 -242 L 406 -359 Z M 268 -30 L 362 -30 L 406 -85 L 406 -202 Z M 393 -30 L 406 -30 L 406 -46 Z " id="path19"/>
<path d="M 247 8 Q 221 8 194.5 3 Q 168 -2 145 -15 Q 122 -28 104 -48 Q 86 -68 75 -92 Q 64 -116 60 -142.5 Q 56 -169 56 -195 L 56 -540 Q 56 -566 60 -592.5 Q 64 -619 75 -643 Q 86 -667 104 -687 Q 122 -707 145 -720 Q 168 -733 194.5 -738 Q 221 -743 247 -743 Q 272 -743 296.5 -739 Q 321 -735 343.5 -724 Q 366 -713 384.5 -695.5 Q 403 -678 415 -656.5 Q 427 -635 432.5 -610.5 Q 438 -586 438 -561 L 438 -555 L 360 -555 L 360 -559 Q 360 -582 353 -604 Q 346 -626 330 -642.5 Q 314 -659 292 -666 Q 270 -673 247 -673 Q 222 -673 198.5 -663 Q 175 -653 160 -633.5 Q 145 -614 139.5 -589.5 Q 134 -565 134 -540 L 134 -195 Q 134 -170 139.5 -145.5 Q 145 -121 160 -101.5 Q 175 -82 198.5 -72 Q 222 -62 247 -62 Q 270 -62 292 -69 Q 314 -76 330 -92.5 Q 346 -109 353 -131 Q 360 -153 360 -176 L 360 -180 L 438 -180 L 438 -174 Q 438 -149 432.5 -124.5 Q 427 -100 415 -78.5 Q 403 -57 384.5 -39.5 Q 366 -22 343.5 -11 Q 321 0 296.5 4 Q 272 8 247 8 Z M 174 78 L 137 68 L 426 -814 L 463 -804 Z M 74 78 L 37 68 L 326 -814 L 363 -804 Z " id="path20"/>
<path d="M 96 0 L 96 -243 L 29 -243 L 29 -308 L 96 -308 L 96 -383 L 29 -383 L 29 -448 L 96 -448 L 96 -735 L 436 -735 L 436 -665 L 174 -665 L 174 -448 L 277 -448 L 277 -383 L 174 -383 L 174 -308 L 277 -308 L 277 -243 L 174 -243 L 174 0 Z " id="path21"/>
<path d="M 64 0 L 64 -70 Q 81 -86 94 -106 Q 107 -126 115 -148 Q 123 -170 126.5 -193 Q 130 -216 131 -240 L 46 -240 L 46 -304 L 131 -304 L 131 -392 L 46 -392 L 46 -457 L 131 -457 L 131 -589 Q 131 -609 134.5 -629 Q 138 -649 146 -667 Q 154 -685 167.5 -700.5 Q 181 -716 198.5 -725.5 Q 216 -735 235.5 -739 Q 255 -743 275 -743 Q 305 -743 333.5 -732.5 Q 362 -722 382 -700 Q 402 -678 411 -649 Q 420 -620 420 -590 Q 420 -588 419.5 -586 Q 419 -584 419 -582 L 342 -582 L 342 -587 Q 342 -602 338.5 -617 Q 335 -632 327 -645 Q 319 -658 305 -665.5 Q 291 -673 275 -673 Q 260 -673 246 -666 Q 232 -659 223.5 -646.5 Q 215 -634 212 -619 Q 209 -604 209 -589 L 209 -457 L 309 -457 L 309 -392 L 209 -392 L 209 -304 L 309 -304 L 309 -240 L 209 -240 Q 208 -217 206 -195 Q 204 -173 198.5 -151.5 Q 193 -130 184.5 -109.5 Q 176 -89 163 -70 L 436 -70 L 436 0 Z " id="path22"/>
<path d="M 48 0 L 48 -520 L 126 -520 L 126 -478 Q 131 -489 138 -498.5 Q 145 -508 154.5 -515 Q 164 -522 175.5 -525 Q 187 -528 199 -528 Q 214 -528 228 -523 Q 242 -518 252.5 -508 Q 263 -498 270 -485 Q 277 -472 281 -457 Q 285 -471 292 -484.5 Q 299 -498 309.5 -508 Q 320 -518 333.5 -523 Q 347 -528 362 -528 Q 377 -528 391.5 -522.5 Q 406 -517 417 -506.5 Q 428 -496 434.5 -482 Q 441 -468 445 -453.5 Q 449 -439 450.5 -424 Q 452 -409 452 -394 L 452 0 L 374 0 L 374 -394 Q 374 -405 372.5 -415.5 Q 371 -426 366 -436 Q 361 -446 351.5 -452 Q 342 -458 331 -458 Q 321 -458 311.5 -452 Q 302 -446 297 -436 Q 292 -426 290.5 -415.5 Q 289 -405 289 -394 L 289 0 L 211 0 L 211 -394 Q 211 -405 209.5 -415.5 Q 208 -426 203 -436 Q 198 -446 188.5 -452 Q 179 -458 169 -458 Q 158 -458 148.5 -452 Q 139 -446 134 -436 Q 129 -426 127.5 -415.5 Q 126 -405 126 -394 L 126 0 Z M 129 60 L 88 44 L 371 -580 L 412 -564 Z " id="path23"/>
<path d="M 80 0 L 80 -257 L 32 -257 L 32 -322 L 80 -322 L 80 -413 L 32 -413 L 32 -478 L 80 -478 L 80 -735 L 176 -735 L 252 -478 L 343 -478 L 343 -735 L 420 -735 L 420 -478 L 468 -478 L 468 -413 L 420 -413 L 420 -322 L 468 -322 L 468 -257 L 420 -257 L 420 0 L 324 0 L 248 -257 L 157 -257 L 157 0 Z M 182 -478 L 149 -589 Q 150 -561 151.5 -533.5 Q 153 -506 154 -478 Z M 229 -322 L 202 -413 L 156 -413 Q 156 -390 156.5 -367.5 Q 157 -345 157 -322 Z M 298 -322 L 344 -322 Q 344 -345 343.5 -367.5 Q 343 -390 343 -413 L 271 -413 Z M 351 -146 Q 350 -174 348.5 -201.5 Q 347 -229 346 -257 L 318 -257 Z " id="path24"/>
<path d="M 26 0 L 26 -735 L 109 -735 Q 127 -735 143.5 -729.5 Q 160 -724 173.5 -713 Q 187 -702 196.5 -687.5 Q 206 -673 213 -656.5 Q 220 -640 224.5 -623.5 Q 229 -607 231.5 -589.5 Q 234 -572 235 -554.5 Q 236 -537 236 -520 Q 236 -502 235 -484.5 Q 234 -467 231.5 -449.5 Q 229 -432 224.5 -415.5 Q 220 -399 213 -382.5 Q 206 -366 196.5 -351.5 Q 187 -337 173.5 -326 Q 160 -315 143 -309.5 Q 126 -304 109 -304 L 82 -304 L 82 0 Z M 109 -374 Q 124 -374 136.5 -382.5 Q 149 -391 156.5 -404 Q 164 -417 168.5 -431.5 Q 173 -446 175.5 -460.5 Q 178 -475 179 -490 Q 180 -505 180 -520 Q 180 -534 179 -549 Q 178 -564 175.5 -578.5 Q 173 -593 168.5 -607.5 Q 164 -622 156.5 -635 Q 149 -648 136.5 -656.5 Q 124 -665 109 -665 L 82 -665 L 82 -374 Z M 407 8 Q 391 8 376 0.5 Q 361 -7 351 -19.5 Q 341 -32 335.5 -47 Q 330 -62 326.5 -78 Q 323 -94 322 -110 Q 321 -126 321 -142 L 321 -450 L 272 -450 L 272 -520 L 321 -520 L 321 -735 L 377 -735 L 377 -520 L 484 -520 L 484 -450 L 377 -450 L 377 -142 Q 377 -134 377 -126.5 Q 377 -119 378 -111.5 Q 379 -104 380.5 -96.5 Q 382 -89 385 -81.5 Q 388 -74 393.5 -68 Q 399 -62 407 -62 Q 414 -62 419 -69 Q 424 -76 426.5 -83 Q 429 -90 430.5 -97.5 Q 432 -105 433 -113 Q 434 -121 435 -128.5 Q 436 -136 436.5 -143.5 Q 437 -151 437 -159 Q 437 -167 437 -174 L 437 -180 L 494 -180 L 494 -171 Q 494 -157 493 -143.5 Q 492 -130 490.5 -116.5 Q 489 -103 486 -89.5 Q 483 -76 479 -63 Q 475 -50 469 -37.5 Q 463 -25 454 -14.5 Q 445 -4 432.5 2 Q 420 8 407 8 Z " id="path25"/>
<path d="M 182 0 L 101 -304 L 71 -304 L 71 0 L 14 0 L 14 -735 L 109 -735 Q 126 -735 142.5 -729.5 Q 159 -724 172 -712.5 Q 185 -701 194 -686 Q 203 -671 209.5 -655 Q 216 -639 220 -622 Q 224 -605 226 -588 Q 228 -571 229 -554 Q 230 -537 230 -520 Q 230 -491 227.5 -463 Q 225 -435 217.5 -408 Q 210 -381 195.5 -355.5 Q 181 -330 157 -316 L 242 0 Z M 109 -374 Q 124 -374 135.5 -383.5 Q 147 -393 153.5 -406 Q 160 -419 164 -433 Q 168 -447 170 -461.5 Q 172 -476 173 -490.5 Q 174 -505 174 -520 Q 174 -534 173 -548.5 Q 172 -563 170 -577.5 Q 168 -592 164 -606 Q 160 -620 153.5 -633 Q 147 -646 135.5 -655.5 Q 124 -665 109 -665 L 71 -665 L 71 -374 Z M 381 8 Q 364 8 348.5 3.5 Q 333 -1 320 -11.5 Q 307 -22 298.5 -35.5 Q 290 -49 285 -64.5 Q 280 -80 277.5 -96 Q 275 -112 275 -128 L 275 -135 L 331 -135 L 331 -132 Q 331 -119 333.5 -107.5 Q 336 -96 341.5 -85.5 Q 347 -75 358 -68.5 Q 369 -62 381 -62 Q 392 -62 402.5 -68 Q 413 -74 419 -84 Q 425 -94 427.5 -106 Q 430 -118 430 -130 Q 430 -146 425.5 -161.5 Q 421 -177 411.5 -189.5 Q 402 -202 389.5 -211 Q 377 -220 364 -229 Q 351 -238 339.5 -249 Q 328 -260 319 -272.5 Q 310 -285 303 -299.5 Q 296 -314 291.5 -329 Q 287 -344 284.5 -360 Q 282 -376 282 -391 Q 282 -407 284 -423 Q 286 -439 291 -454 Q 296 -469 304 -483 Q 312 -497 323.5 -507.5 Q 335 -518 350.5 -523 Q 366 -528 382 -528 Q 398 -528 413.5 -523 Q 429 -518 440.5 -507.5 Q 452 -497 460 -483.5 Q 468 -470 473 -454.5 Q 478 -439 480 -423.5 Q 482 -408 482 -392 L 482 -385 L 426 -385 L 426 -388 Q 426 -400 424 -411.5 Q 422 -423 417 -433.5 Q 412 -444 402.5 -451 Q 393 -458 382 -458 Q 371 -458 361.5 -451 Q 352 -444 347 -434 Q 342 -424 340 -413 Q 338 -402 338 -391 Q 338 -375 342.5 -359.5 Q 347 -344 356.5 -331 Q 366 -318 378.5 -309 Q 391 -300 404 -291 Q 417 -282 428.5 -271 Q 440 -260 449 -247.5 Q 458 -235 465 -220.5 Q 472 -206 477 -191.5 Q 482 -177 484 -161 Q 486 -145 486 -129 Q 486 -113 484 -97 Q 482 -81 476.5 -65 Q 471 -49 462.5 -35.5 Q 454 -22 441 -11.5 Q 428 -1 412.5 3.5 Q 397 8 381 8 Z " id="path26"/>
<path d="M 194 0 L 117 0 L 32 -735 L 110 -735 L 158 -106 L 211 -529 L 289 -529 L 342 -106 L 390 -735 L 468 -735 L 383 0 L 306 0 L 250 -394 Z M 486 -409 L 19 -409 L 19 -473 L 486 -473 Z M 486 -225 L 19 -225 L 19 -290 L 486 -290 Z " id="path27"/>
<path d="M 216 8 Q 202 8 188 6 Q 174 4 160 -1 Q 146 -6 134 -13.5 Q 122 -21 112 -30.5 Q 102 -40 94 -52 Q 86 -64 79.5 -77 Q 73 -90 69 -103.5 Q 65 -117 62 -131 Q 59 -145 57.5 -161.5 Q 56 -178 56 -188 L 56 -320 Q 56 -334 57 -348.5 Q 58 -363 60 -377 Q 62 -391 65.5 -404.5 Q 69 -418 74.5 -431.5 Q 80 -445 87.5 -457.5 Q 95 -470 104 -480.5 Q 113 -491 124 -499.5 Q 135 -508 148 -514 Q 161 -520 177.5 -524 Q 194 -528 204 -528 L 216 -528 Q 230 -528 245 -525.5 Q 260 -523 273.5 -518.5 Q 287 -514 299 -505.5 Q 311 -497 321.5 -487 Q 332 -477 341.5 -462.5 Q 351 -448 354 -439 L 358 -428 L 358 -595 L 252 -595 L 252 -660 L 358 -660 L 358 -735 L 436 -735 L 436 -660 L 482 -660 L 482 -595 L 436 -595 L 436 0 L 358 0 L 358 -92 Q 353 -78 346 -65.5 Q 339 -53 329.5 -42 Q 320 -31 308.5 -21.5 Q 297 -12 284 -6 Q 271 0 254 4 Q 237 8 228 8 Z M 238 -62 L 246 -62 Q 256 -62 265.5 -63 Q 275 -64 284.5 -67 Q 294 -70 302 -75 Q 310 -80 317 -86.5 Q 324 -93 330 -100.5 Q 336 -108 341 -116.5 Q 346 -125 349 -134.5 Q 352 -144 354 -153.5 Q 356 -163 357 -174 Q 358 -185 358 -192 L 358 -320 Q 358 -330 357.5 -339.5 Q 357 -349 355.5 -358.5 Q 354 -368 351.5 -377.5 Q 349 -387 345 -395.5 Q 341 -404 335.5 -412.5 Q 330 -421 323.5 -428 Q 317 -435 309 -440.5 Q 301 -446 292 -450 Q 283 -454 272 -456 Q 261 -458 255 -458 L 246 -458 Q 236 -458 226.5 -457 Q 217 -456 207.5 -453 Q 198 -450 190 -445 Q 182 -440 175 -433.5 Q 168 -427 162 -419.5 Q 156 -412 151 -403.5 Q 146 -395 143 -385.5 Q 140 -376 138 -366.5 Q 136 -357 135 -346 Q 134 -335 134 -329 L 134 -200 Q 134 -190 134.5 -180.5 Q 135 -171 136.5 -161.5 Q 138 -152 140.5 -142.5 Q 143 -133 147 -124.5 Q 151 -116 156.5 -107.5 Q 162 -99 168.5 -92 Q 175 -85 183 -79.5 Q 191 -74 200 -70 Q 209 -66 220 -64 Q 231 -62 238 -62 Z M 64 184 L 64 116 L 436 116 L 436 184 Z " id="path28"/>
<path d="M 247 8 Q 232 8 216.5 6.5 Q 201 5 186.5 1.5 Q 172 -2 158 -8.5 Q 144 -15 131.5 -23.5 Q 119 -32 108.5 -43 Q 98 -54 89.5 -66.5 Q 81 -79 74.5 -93 Q 68 -107 64 -121.5 Q 60 -136 58 -154 Q 56 -172 56 -182 L 56 -262 L 18 -262 L 18 -326 L 56 -326 L 56 -409 L 18 -409 L 18 -473 L 56 -473 L 56 -540 Q 56 -555 57 -570.5 Q 58 -586 61 -601 Q 64 -616 69.5 -630 Q 75 -644 82.5 -657 Q 90 -670 100 -682 Q 110 -694 121.5 -703.5 Q 133 -713 146.5 -720.5 Q 160 -728 174 -732.5 Q 188 -737 206 -740 Q 224 -743 234 -743 L 247 -743 Q 261 -743 275.5 -742 Q 290 -741 304 -738 Q 318 -735 331.5 -729.5 Q 345 -724 357 -716.5 Q 369 -709 380 -699.5 Q 391 -690 400 -679 Q 409 -668 415.5 -655.5 Q 422 -643 427 -629.5 Q 432 -616 435 -599.5 Q 438 -583 438 -574 L 438 -555 L 360 -555 L 360 -559 Q 360 -573 357.5 -587 Q 355 -601 349 -614 Q 343 -627 333.5 -638 Q 324 -649 312 -656.5 Q 300 -664 284 -668.5 Q 268 -673 259 -673 L 247 -673 Q 232 -673 216.5 -669 Q 201 -665 187.5 -657.5 Q 174 -650 164 -638 Q 154 -626 147.5 -612.5 Q 141 -599 137.5 -581 Q 134 -563 134 -553 L 134 -473 L 248 -473 L 248 -409 L 134 -409 L 134 -326 L 248 -326 L 248 -262 L 134 -262 L 134 -195 Q 134 -180 136 -164.5 Q 138 -149 143 -134 Q 148 -119 156.5 -106 Q 165 -93 177.5 -84 Q 190 -75 207 -68.5 Q 224 -62 235 -62 L 247 -62 Q 261 -62 275.5 -64.5 Q 290 -67 302.5 -73 Q 315 -79 326 -88.5 Q 337 -98 344 -110.5 Q 351 -123 355.5 -139 Q 360 -155 360 -165 L 360 -180 L 438 -180 L 438 -174 Q 438 -160 436 -145.5 Q 434 -131 430.5 -117 Q 427 -103 421 -90.5 Q 415 -78 407 -66 Q 399 -54 389 -43.5 Q 379 -33 367 -25 Q 355 -17 342.5 -10.5 Q 330 -4 316 0 Q 302 4 285.5 6 Q 269 8 260 8 Z " id="path29"/>
<path d="M 361 0 L 201 -324 L 157 -252 L 157 0 L 80 0 L 80 -735 L 157 -735 L 157 -398 L 357 -735 L 445 -735 L 247 -402 L 445 0 Z M 468 -336 L 32 -336 L 32 -400 L 468 -400 Z " id="path30"/>
<path d="M 211 0 L 211 -665 L 58 -665 L 58 -735 L 442 -735 L 442 -665 L 289 -665 L 289 0 Z M 101 -386 L 101 -453 L 399 -526 L 399 -459 Z M 101 -202 L 101 -269 L 399 -343 L 399 -275 Z " id="path31"/>
<path d="M 14 0 L 14 -735 L 71 -735 Q 96 -735 120 -728 Q 144 -721 164 -704.5 Q 184 -688 196.5 -666.5 Q 209 -645 217 -620.5 Q 225 -596 227.5 -571 Q 230 -546 230 -521 L 230 -215 Q 230 -189 227.5 -164 Q 225 -139 217 -114.5 Q 209 -90 196.5 -68.5 Q 184 -47 164 -30.5 Q 144 -14 120 -7 Q 96 0 71 0 Z M 71 -70 Q 87 -70 103 -75 Q 119 -80 132 -91.5 Q 145 -103 153 -117.5 Q 161 -132 165.5 -148.5 Q 170 -165 172 -181.5 Q 174 -198 174 -215 L 174 -521 Q 174 -537 172 -553.5 Q 170 -570 165.5 -586.5 Q 161 -603 153 -617.5 Q 145 -632 132 -643.5 Q 119 -655 103 -660 Q 87 -665 71 -665 Z M 276 215 L 276 -320 Q 276 -336 276.5 -352.5 Q 277 -369 279.5 -385 Q 282 -401 285 -416.5 Q 288 -432 293.5 -448 Q 299 -464 307 -478 Q 315 -492 326.5 -504 Q 338 -516 353 -522 Q 368 -528 384 -528 Q 400 -528 415.5 -522 Q 431 -516 442.5 -504 Q 454 -492 461.5 -478 Q 469 -464 474.5 -448 Q 480 -432 483.5 -416.5 Q 487 -401 489 -385 Q 491 -369 491.5 -352.5 Q 492 -336 492 -320 L 492 -200 Q 492 -185 491.5 -169.5 Q 491 -154 489.5 -139 Q 488 -124 486 -108.5 Q 484 -93 480 -78.5 Q 476 -64 471 -49.5 Q 466 -35 457 -22 Q 448 -9 435 -0.5 Q 422 8 407 8 Q 392 8 378 -1.5 Q 364 -11 355.5 -24.5 Q 347 -38 341.5 -53 Q 336 -68 333 -84 L 333 215 Z M 384 -62 Q 394 -62 402.5 -68.5 Q 411 -75 415.5 -83.5 Q 420 -92 423.5 -101.5 Q 427 -111 429 -120.5 Q 431 -130 432.5 -140 Q 434 -150 434.5 -160 Q 435 -170 435.5 -180 Q 436 -190 436 -200 L 436 -320 Q 436 -330 435.5 -340 Q 435 -350 434.5 -360 Q 434 -370 432.5 -380 Q 431 -390 429 -399.5 Q 427 -409 423.5 -418.5 Q 420 -428 415.5 -436.5 Q 411 -445 402.5 -451.5 Q 394 -458 384 -458 Q 375 -458 366.5 -451.5 Q 358 -445 353 -436.5 Q 348 -428 345 -418.5 Q 342 -409 339.5 -399.5 Q 337 -390 336 -380 Q 335 -370 334 -360 Q 333 -350 333 -340 Q 333 -330 333 -320 L 333 -200 Q 333 -190 333 -180 Q 333 -170 334 -160 Q 335 -150 336 -140 Q 337 -130 339.5 -120.5 Q 342 -111 345 -101.5 Q 348 -92 353 -83.5 Q 358 -75 366.5 -68.5 Q 375 -62 384 -62 Z " id="path32"/>
<path d="M 80 0 L 80 -463 L 32 -463 L 32 -497 L 80 -497 L 80 -542 L 32 -542 L 32 -576 L 80 -576 L 80 -735 L 256 -735 Q 278 -735 301.5 -731.5 Q 325 -728 345.5 -718.5 Q 366 -709 384 -694 Q 402 -679 415 -660.5 Q 428 -642 436 -620.5 Q 444 -599 448 -576 L 476 -576 L 476 -542 L 452 -542 L 452 -520 Q 452 -514 452 -508.5 Q 452 -503 451 -497 L 476 -497 L 476 -463 L 448 -463 Q 445 -447 440 -431 Q 435 -415 428 -400.5 Q 421 -386 411 -373 Q 401 -360 389 -349 Q 377 -338 363 -329.5 Q 349 -321 333.5 -315.5 Q 318 -310 299 -307 Q 280 -304 270 -304 L 158 -304 L 158 0 Z M 368 -576 Q 366 -585 362.5 -593.5 Q 359 -602 354.5 -610 Q 350 -618 344.5 -625.5 Q 339 -633 332 -639 Q 325 -645 317 -649.5 Q 309 -654 300.5 -657.5 Q 292 -661 281.5 -663 Q 271 -665 265 -665 L 158 -665 L 158 -576 Z M 158 -497 L 373 -497 Q 374 -502 374 -505 Q 374 -508 374 -511 L 374 -520 Q 374 -525 374 -530.5 Q 374 -536 373 -542 L 158 -542 Z M 158 -374 L 256 -374 Q 276 -374 294.5 -379.5 Q 313 -385 328 -397 Q 343 -409 353 -426.5 Q 363 -444 368 -463 L 158 -463 Z " id="path33"/>
<path d="M 216 8 Q 191 8 167 1.5 Q 143 -5 123.5 -19.5 Q 104 -34 90.5 -55 Q 77 -76 69.5 -99 Q 62 -122 59 -146.5 Q 56 -171 56 -195 L 56 -540 Q 56 -566 60 -592.5 Q 64 -619 75 -643 Q 86 -667 104 -687 Q 122 -707 145 -720 Q 168 -733 194.5 -738 Q 221 -743 247 -743 Q 272 -743 296.5 -739 Q 321 -735 343.5 -724 Q 366 -713 384.5 -695.5 Q 403 -678 415 -656.5 Q 427 -635 432.5 -610.5 Q 438 -586 438 -561 L 438 -555 L 360 -555 L 360 -559 Q 360 -582 353 -604 Q 346 -626 330 -642.5 Q 314 -659 292 -666 Q 270 -673 247 -673 Q 222 -673 198.5 -663.5 Q 175 -654 160 -634 Q 145 -614 139.5 -589.5 Q 134 -565 134 -540 L 134 -195 Q 134 -179 136 -162.5 Q 138 -146 144 -130.5 Q 150 -115 160 -101.5 Q 170 -88 183.5 -79 Q 197 -70 213.5 -66 Q 230 -62 246 -62 Q 262 -62 278.5 -66 Q 295 -70 308.5 -79 Q 322 -88 332 -101.5 Q 342 -115 348 -130.5 Q 354 -146 356 -162.5 Q 358 -179 358 -195 L 358 -330 L 250 -330 L 250 -400 L 436 -400 L 436 0 L 367 0 L 367 -116 Q 360 -90 347 -66.5 Q 334 -43 314 -25.5 Q 294 -8 268 0 Q 242 8 216 8 Z M 228 73 L 228 -809 L 272 -809 L 272 73 Z " id="path34"/>
<path d="M 44 0 L 93 -225 L 32 -225 L 32 -290 L 107 -290 L 120 -346 L 32 -346 L 32 -411 L 134 -411 L 151 -490 L 205 -735 L 295 -735 L 349 -490 L 366 -411 L 468 -411 L 468 -346 L 380 -346 L 393 -290 L 468 -290 L 468 -225 L 407 -225 L 456 0 L 376 0 L 330 -225 L 170 -225 L 124 0 Z M 208 -411 L 292 -411 L 276 -490 Q 269 -522 262.5 -554 Q 256 -586 250 -618 Q 244 -586 237.5 -554 Q 231 -522 224 -490 Z M 183 -290 L 317 -290 L 305 -346 L 195 -346 Z " id="path35"/>
<path d="M 247 8 Q 222 8 197 3.5 Q 172 -1 149.5 -12 Q 127 -23 109 -41 Q 91 -59 79 -81 Q 67 -103 61.5 -128 Q 56 -153 56 -178 Q 56 -203 62.5 -228.5 Q 69 -254 81 -276.5 Q 93 -299 110 -318.5 Q 127 -338 147.5 -354 Q 168 -370 190.5 -383 Q 213 -396 236 -407.5 Q 259 -419 281 -432 Q 303 -445 321 -464 Q 339 -483 349 -507 Q 359 -531 359 -557 Q 359 -580 352 -602 Q 345 -624 330 -640.5 Q 315 -657 293 -665 Q 271 -673 249 -673 Q 227 -673 205.5 -665.5 Q 184 -658 169 -641.5 Q 154 -625 147 -603.5 Q 140 -582 140 -560 L 140 -555 L 62 -555 L 62 -562 Q 62 -587 67.5 -611 Q 73 -635 84.5 -656.5 Q 96 -678 114 -695.5 Q 132 -713 154 -724 Q 176 -735 200 -739 Q 224 -743 249 -743 Q 274 -743 298.5 -738.5 Q 323 -734 345 -722.5 Q 367 -711 384.5 -693 Q 402 -675 413.5 -653 Q 425 -631 430.5 -606.5 Q 436 -582 436 -558 Q 436 -532 430 -506.5 Q 424 -481 411.5 -458.5 Q 399 -436 382 -416.5 Q 365 -397 345 -381 Q 325 -365 302.5 -352.5 Q 280 -340 257 -328 Q 234 -316 211.5 -303 Q 189 -290 171.5 -271.5 Q 154 -253 143.5 -228.5 Q 133 -204 133 -178 Q 133 -155 140.5 -133 Q 148 -111 164 -94 Q 180 -77 202 -69.5 Q 224 -62 247 -62 Q 270 -62 292 -69 Q 314 -76 329.5 -92.5 Q 345 -109 352.5 -131 Q 360 -153 360 -175 L 360 -180 L 438 -180 L 438 -173 Q 438 -148 432 -123.5 Q 426 -99 414 -77.5 Q 402 -56 384 -38.5 Q 366 -21 343.5 -10.5 Q 321 0 296.5 4 Q 272 8 247 8 Z M 468 -413 L 32 -413 L 32 -478 L 468 -478 Z M 468 -257 L 32 -257 L 32 -322 L 468 -322 Z " id="path36"/>
<path d="M 247 8 Q 221 8 194.5 3 Q 168 -2 145 -15 Q 122 -28 104 -48 Q 86 -68 75 -92 Q 64 -116 60 -142.5 Q 56 -169 56 -195 L 56 -540 Q 56 -566 60 -592.5 Q 64 -619 75 -643 Q 86 -667 104 -687 Q 122 -707 145 -720 Q 168 -733 194.5 -738 Q 221 -743 247 -743 Q 272 -743 296.5 -739 Q 321 -735 343.5 -724 Q 366 -713 384.5 -695.5 Q 403 -678 415 -656.5 Q 427 -635 432.5 -610.5 Q 438 -586 438 -561 L 438 -555 L 360 -555 L 360 -559 Q 360 -582 353 -604 Q 346 -626 330 -642.5 Q 314 -659 292 -666 Q 270 -673 247 -673 Q 222 -673 198.5 -663 Q 175 -653 160 -633.5 Q 145 -614 139.5 -589.5 Q 134 -565 134 -540 L 134 -195 Q 134 -170 139.5 -145.5 Q 145 -121 160 -101.5 Q 175 -82 198.5 -72 Q 222 -62 247 -62 Q 270 -62 292 -69 Q 314 -76 330 -92.5 Q 346 -109 353 -131 Q 360 -153 360 -176 L 360 -180 L 438 -180 L 438 -174 Q 438 -149 432.5 -124.5 Q 427 -100 415 -78.5 Q 403 -57 384.5 -39.5 Q 366 -22 343.5 -11 Q 321 0 296.5 4 Q 272 8 247 8 Z M 228 73 L 228 -809 L 272 -809 L 272 73 Z " id="path37"/>
<path d="M 58 -670 L 58 -735 L 442 -735 L 442 -670 Z M 211 0 L 211 -527 L 58 -527 L 58 -597 L 442 -597 L 442 -527 L 289 -527 L 289 0 Z " id="path38"/>
<path d="M 370 0 L 171 -304 L 64 -304 L 64 -374 L 193 -374 Q 216 -374 237 -381.5 Q 258 -389 274 -405 Q 290 -421 298.5 -441.5 Q 307 -462 310 -485 L 64 -485 L 64 -555 L 310 -555 Q 307 -577 298.5 -597.5 Q 290 -618 274 -634 Q 258 -650 237 -657.5 Q 216 -665 193 -665 L 64 -665 L 64 -735 L 436 -735 L 436 -665 L 349 -665 Q 367 -641 376 -612.5 Q 385 -584 388 -555 L 436 -555 L 436 -485 L 388 -485 Q 385 -456 376 -428 Q 367 -400 350.5 -376.5 Q 334 -353 309.5 -336 Q 285 -319 257 -311 L 460 0 Z " id="path39"/>
<path d="M 80 0 L 80 -138 L 18 -138 L 18 -203 L 80 -203 L 80 -304 L 18 -304 L 18 -374 L 80 -374 L 80 -735 L 256 -735 Q 272 -735 288 -733 Q 304 -731 319 -727.5 Q 334 -724 348.5 -717 Q 363 -710 376 -700.5 Q 389 -691 399.5 -679.5 Q 410 -668 418.5 -654.5 Q 427 -641 433.5 -626.5 Q 440 -612 444 -596.5 Q 448 -581 450 -562.5 Q 452 -544 452 -534 L 452 -520 Q 452 -504 451 -488 Q 450 -472 447 -456.5 Q 444 -441 438.5 -426 Q 433 -411 425.5 -397 Q 418 -383 408.5 -370 Q 399 -357 387 -346.5 Q 375 -336 361 -328 Q 347 -320 332 -315 Q 317 -310 298.5 -307 Q 280 -304 270 -304 L 158 -304 L 158 -203 L 362 -203 L 362 -138 L 158 -138 L 158 0 Z M 158 -374 L 256 -374 Q 266 -374 276.5 -375.5 Q 287 -377 296.5 -380 Q 306 -383 315 -388 Q 324 -393 331.5 -400 Q 339 -407 345.5 -415 Q 352 -423 356.5 -432 Q 361 -441 364.5 -450.5 Q 368 -460 370 -470 Q 372 -480 373 -492 Q 374 -504 374 -511 L 374 -520 Q 374 -530 373.5 -540 Q 373 -550 371.5 -560.5 Q 370 -571 367 -580.5 Q 364 -590 360 -599 Q 356 -608 350.5 -617 Q 345 -626 338 -633.5 Q 331 -641 322.5 -646.5 Q 314 -652 304.5 -656 Q 295 -660 283.5 -662.5 Q 272 -665 265 -665 L 158 -665 Z " id="path40"/>
<path d="M 158 107 L 158 0 L 64 0 L 64 -735 L 158 -735 L 158 -843 L 212 -843 L 212 -735 L 233 -735 Q 243 -735 253 -734.5 Q 263 -734 274 -733 L 274 -843 L 327 -843 L 327 -717 Q 352 -706 371.5 -687.5 Q 391 -669 403.5 -645.5 Q 416 -622 421 -595.5 Q 426 -569 426 -542 Q 426 -518 421.5 -493.5 Q 417 -469 405 -447.5 Q 393 -426 374.5 -409.5 Q 356 -393 334 -383 Q 361 -373 384.5 -356 Q 408 -339 423.5 -315 Q 439 -291 445.5 -263 Q 452 -235 452 -206 Q 452 -175 445.5 -145 Q 439 -115 422.5 -89 Q 406 -63 381 -44 Q 356 -25 327 -14 L 327 107 L 274 107 L 274 -2 Q 263 -1 253 -0.5 Q 243 -0 233 0 L 212 0 L 212 107 Z M 233 -415 Q 257 -415 280.5 -423.5 Q 304 -432 320 -450 Q 336 -468 342.5 -492 Q 349 -516 349 -541 Q 349 -565 342.5 -589 Q 336 -613 320 -631 Q 304 -649 280.5 -657.5 Q 257 -666 233 -666 L 141 -666 L 141 -415 Z M 141 -69 L 233 -69 Q 252 -69 270.5 -72.5 Q 289 -76 306 -84 Q 323 -92 337 -105 Q 351 -118 359.5 -134.5 Q 368 -151 371.5 -170 Q 375 -189 375 -208 Q 375 -226 371.5 -245 Q 368 -264 359.5 -280.5 Q 351 -297 337 -310.5 Q 323 -324 306 -332 Q 289 -340 270.5 -343 Q 252 -346 233 -346 L 141 -346 Z " id="path41"/>
<path d="M 247 8 Q 220 8 193.5 2.5 Q 167 -3 144 -16.5 Q 121 -30 103.5 -50.5 Q 86 -71 75 -95.5 Q 64 -120 60 -146.5 Q 56 -173 56 -200 L 56 -320 Q 56 -347 60 -373.5 Q 64 -400 75 -424.5 Q 86 -449 103.5 -469.5 Q 121 -490 144 -503.5 Q 167 -517 193.5 -522.5 Q 220 -528 247 -528 Q 272 -528 297 -524 Q 322 -520 344 -509 Q 366 -498 384.5 -480.5 Q 403 -463 415 -441 Q 427 -419 432.5 -394.5 Q 438 -370 438 -345 L 438 -340 L 360 -340 L 360 -343 Q 360 -366 353 -388 Q 346 -410 330 -426.5 Q 314 -443 292 -450.5 Q 270 -458 247 -458 Q 230 -458 213.5 -454 Q 197 -450 183 -440 Q 169 -430 159.5 -416 Q 150 -402 144 -386.5 Q 138 -371 136 -354 Q 134 -337 134 -320 L 134 -200 Q 134 -183 136 -166 Q 138 -149 144 -133.5 Q 150 -118 159.5 -104 Q 169 -90 183 -80 Q 197 -70 213.5 -66 Q 230 -62 247 -62 Q 270 -62 292 -69.5 Q 314 -77 330 -93.5 Q 346 -110 353 -132 Q 360 -154 360 -177 L 360 -180 L 438 -180 L 438 -175 Q 438 -150 432.5 -125.5 Q 427 -101 415 -79 Q 403 -57 384.5 -39.5 Q 366 -22 344 -11 Q 322 0 297 4 Q 272 8 247 8 Z M 64 184 L 64 116 L 436 116 L 436 184 Z " id="path42"/>
</defs>
<g>
<g data-source-text="0" fill="#dee4e3" transform="translate(174 41.292) rotate(0) scale(0.023999998)">
<use href="#path1" transform="translate(0 0)"/>
</g>
</g>
<g>
<g data-source-text="1" fill="#dee4e3" transform="translate(246 41.292) rotate(0) scale(0.023999998)">
<use href="#path2" transform="translate(0 0)"/>
</g>
</g>
<g>
<g data-source-text="2" fill="#dee4e3" transform="translate(318 41.292) rotate(0) scale(0.023999998)">
<use href="#path3" transform="translate(0 0)"/>
</g>
</g>
<g>
<g data-source-text="3" fill="#dee4e3" transform="translate(390 41.292) rotate(0) scale(0.023999998)">
<use href="#path4" transform="translate(0 0)"/>
</g>
</g>
<g>
<g data-source-text="4" fill="#dee4e3" transform="translate(462 41.292) rotate(0) scale(0.023999998)">
<use href="#path5" transform="translate(0 0)"/>
</g>
</g>
<g>
<g data-source-text="5" fill="#dee4e3" transform="translate(534 41.292) rotate(0) scale(0.023999998)">
<use href="#path6" transform="translate(0 0)"/>
</g>
</g>
<g>
<g data-source-text="6" fill="#dee4e3" transform="translate(606 41.292) rotate(0) scale(0.023999998)">
<use href="#path7" transform="translate(0 0)"/>
</g>
</g>
<g>
<g data-source-text="7" fill="#dee4e3" transform="translate(678 41.292) rotate(0) scale(0.023999998)">
<use href="#path8" transform="translate(0 0)"/>
</g>
</g>
<g>
<g data-source-text="8" fill="#dee4e3" transform="translate(750 41.292) rotate(0) scale(0.023999998)">
<use href="#path9" transform="translate(0 0)"/>
</g>
</g>
<g>
<g data-source-text="9" fill="#dee4e3" transform="translate(822 41.292) rotate(0) scale(0.023999998)">
<use href="#path10" transform="translate(0 0)"/>
</g>
</g>
<g>
<g data-source-text="A" fill="#dee4e3" transform="translate(894 41.292) rotate(0) scale(0.023999998)">
<use href="#path11" transform="translate(0 0)"/>
</g>
</g>
<g>
<g data-source-text="B" fill="#dee4e3" transform="translate(966 41.292) rotate(0) scale(0.023999998)">
<use href="#path12" transform="translate(0 0)"/>
</g>
</g>
<g>
<g data-source-text="C" fill="#dee4e3" transform="translate(1038 41.292) rotate(0) scale(0.023999998)">
<use href="#path13" transform="translate(0 0)"/>
</g>
</g>
<g>
<g data-source-text="D" fill="#dee4e3" transform="translate(1110 41.292) rotate(0) scale(0.023999998)">
<use href="#path14" transform="translate(0 0)"/>
</g>
</g>
<g>
<g data-source-text="E" fill="#dee4e3" transform="translate(1182 41.292) rotate(0) scale(0.023999998)">
<use href="#path15" transform="translate(0 0)"/>
</g>
</g>
<g>
<g data-source-text="F" fill="#dee4e3" transform="translate(1254 41.292) rotate(0) scale(0.023999998)">
<use href="#path16" transform="translate(0 0)"/>
</g>
</g>
<g>
<g data-source-text="U+20A0" fill="#dee4e3" transform="translate(36 113.292) rotate(0) scale(0.023999998)">
<use href="#path17" transform="translate(0 0)"/>
<use href="#path18" transform="translate(500 0)"/>
<use href="#path3" transform="translate(1000 0)"/>
<use href="#path1" transform="translate(1500 0)"/>
<use href="#path11" transform="translate(2000 0)"/>
<use href="#path1" transform="translate(2500 0)"/>
</g>
</g>
<g>
<g data-source-text="" fill="#dee4e340" transform="translate(168 118.584) rotate(0) scale(0.047999997)">
<use href="#path19" transform="translate(0 0)"/>
</g>
</g>
<g>
<g data-source-text="₡" fill="#dee4e3" transform="translate(240 118.584) rotate(0) scale(0.047999997)">
<use href="#path20" transform="translate(0 0)"/>
</g>
</g>
<g>
<g data-source-text="" fill="#dee4e340" transform="translate(312 118.584) rotate(0) scale(0.047999997)">
<use href="#path19" transform="translate(0 0)"/>
</g>
</g>
<g>
<g data-source-text="₣" fill="#dee4e3" transform="translate(384 118.584) rotate(0) scale(0.047999997)">
<use href="#path21" transform="translate(0 0)"/>
</g>
</g>
<g>
<g data-source-text="₤" fill="#dee4e3" transform="translate(456 118.584) rotate(0) scale(0.047999997)">
<use href="#path22" transform="translate(0 0)"/>
</g>
</g>
<g>
<g data-source-text="₥" fill="#dee4e3" transform="translate(528 118.584) rotate(0) scale(0.047999997)">
<use href="#path23" transform="translate(0 0)"/>
</g>
</g>
<g>
<g data-source-text="₦" fill="#dee4e3" transform="translate(600 118.584) rotate(0) scale(0.047999997)">
<use href="#path24" transform="translate(0 0)"/>
</g>
</g>
<g>
<g data-source-text="₧" fill="#dee4e3" transform="translate(672 118.584) rotate(0) scale(0.047999997)">
<use href="#path25" transform="translate(0 0)"/>
</g>
</g>
<g>
<g data-source-text="₨" fill="#dee4e3" transform="translate(744 118.584) rotate(0) scale(0.047999997)">
<use href="#path26" transform="translate(0 0)"/>
</g>
</g>
<g>
<g data-source-text="₩" fill="#dee4e3" transform="translate(816 118.584) rotate(0) scale(0.047999997)">
<use href="#path27" transform="translate(0 0)"/>
</g>
</g>
<g>
<g data-source-text="" fill="#dee4e340" transform="translate(888 118.584) rotate(0) scale(0.047999997)">
<use href="#path19" transform="translate(0 0)"/>
</g>
</g>
<g>
<g data-source-text="₫" fill="#dee4e3" transform="translate(960 118.584) rotate(0) scale(0.047999997)">
<use href="#path28" transform="translate(0 0)"/>
</g>
</g>
<g>
<g data-source-text="€" fill="#dee4e3" transform="translate(1032 118.584) rotate(0) scale(0.047999997)">
<use href="#path29" transform="translate(0 0)"/>
</g>
</g>
<g>
<g data-source-text="₭" fill="#dee4e3" transform="translate(1104 118.584) rotate(0) scale(0.047999997)">
<use href="#path30" transform="translate(0 0)"/>
</g>
</g>
<g>
<g data-source-text="₮" fill="#dee4e3" transform="translate(1176 118.584) rotate(0) scale(0.047999997)">
<use href="#path31" transform="translate(0 0)"/>
</g>
</g>
<g>
<g data-source-text="₯" fill="#dee4e3" transform="translate(1248 118.584) rotate(0) scale(0.047999997)">
<use href="#path32" transform="translate(0 0)"/>
</g>
</g>
<g>
<g data-source-text="U+20B0" fill="#dee4e3" transform="translate(36 185.292) rotate(0) scale(0.023999998)">
<use href="#path17" transform="translate(0 0)"/>
<use href="#path18" transform="translate(500 0)"/>
<use href="#path3" transform="translate(1000 0)"/>
<use href="#path1" transform="translate(1500 0)"/>
<use href="#path12" transform="translate(2000 0)"/>
<use href="#path1" transform="translate(2500 0)"/>
</g>
</g>
<g>
<g data-source-text="" fill="#dee4e340" transform="translate(168 190.584) rotate(0) scale(0.047999997)">
<use href="#path19" transform="translate(0 0)"/>
</g>
</g>
<g>
<g data-source-text="₱" fill="#dee4e3" transform="translate(240 190.584) rotate(0) scale(0.047999997)">
<use href="#path33" transform="translate(0 0)"/>
</g>
</g>
<g>
<g data-source-text="₲" fill="#dee4e3" transform="translate(312 190.584) rotate(0) scale(0.047999997)">
<use href="#path34" transform="translate(0 0)"/>
</g>
</g>
<g>
<g data-source-text="₳" fill="#dee4e3" transform="translate(384 190.584) rotate(0) scale(0.047999997)">
<use href="#path35" transform="translate(0 0)"/>
</g>
</g>
<g>
<g data-source-text="₴" fill="#dee4e3" transform="translate(456 190.584) rotate(0) scale(0.047999997)">
<use href="#path36" transform="translate(0 0)"/>
</g>
</g>
<g>
<g data-source-text="₵" fill="#dee4e3" transform="translate(528 190.584) rotate(0) scale(0.047999997)">
<use href="#path37" transform="translate(0 0)"/>
</g>
</g>
<g>
<g data-source-text="" fill="#dee4e340" transform="translate(600 190.584) rotate(0) scale(0.047999997)">
<use href="#path19" transform="translate(0 0)"/>
</g>
</g>
<g>
<g data-source-text="" fill="#dee4e340" transform="translate(672 190.584) rotate(0) scale(0.047999997)">
<use href="#path19" transform="translate(0 0)"/>
</g>
</g>
<g>
<g data-source-text="₸" fill="#dee4e3" transform="translate(744 190.584) rotate(0) scale(0.047999997)">
<use href="#path38" transform="translate(0 0)"/>
</g>
</g>
<g>
<g data-source-text="₹" fill="#dee4e3" transform="translate(816 190.584) rotate(0) scale(0.047999997)">
<use href="#path39" transform="translate(0 0)"/>
</g>
</g>
<g>
<g data-source-text="" fill="#dee4e340" transform="translate(888 190.584) rotate(0) scale(0.047999997)">
<use href="#path19" transform="translate(0 0)"/>
</g>
</g>
<g>
<g data-source-text="" fill="#dee4e340" transform="translate(960 190.584) rotate(0) scale(0.047999997)">
<use href="#path19" transform="translate(0 0)"/>
</g>
</g>
<g>
<g data-source-text="" fill="#dee4e340" transform="translate(1032 190.584) rotate(0) scale(0.047999997)">
<use href="#path19" transform="translate(0 0)"/>
</g>
</g>
<g>
<g data-source-text="₽" fill="#dee4e3" transform="translate(1104 190.584) rotate(0) scale(0.047999997)">
<use href="#path40" transform="translate(0 0)"/>
</g>
</g>
<g>
<g data-source-text="" fill="#dee4e340" transform="translate(1176 190.584) rotate(0) scale(0.047999997)">
<use href="#path19" transform="translate(0 0)"/>
</g>
</g>
<g>
<g data-source-text="₿" fill="#dee4e3" transform="translate(1248 190.584) rotate(0) scale(0.047999997)">
<use href="#path41" transform="translate(0 0)"/>
</g>
</g>
<g>
<g data-source-text="U+20C0" fill="#dee4e3" transform="translate(36 257.292) rotate(0) scale(0.023999998)">
<use href="#path17" transform="translate(0 0)"/>
<use href="#path18" transform="translate(500 0)"/>
<use href="#path3" transform="translate(1000 0)"/>
<use href="#path1" transform="translate(1500 0)"/>
<use href="#path13" transform="translate(2000 0)"/>
<use href="#path1" transform="translate(2500 0)"/>
</g>
</g>
<g>
<g data-source-text="⃀" fill="#dee4e3" transform="translate(168 262.584) rotate(0) scale(0.047999997)">
<use href="#path42" transform="translate(0 0)"/>
</g>
</g>
<g>
<g data-source-text="" fill="#dee4e340" transform="translate(240 262.584) rotate(0) scale(0.047999997)">
<use href="#path19" transform="translate(0 0)"/>
</g>
</g>
<g>
<g data-source-text="" fill="#dee4e340" transform="translate(312 262.584) rotate(0) scale(0.047999997)">
<use href="#path19" transform="translate(0 0)"/>
</g>
</g>
<g>
<g data-source-text="" fill="#dee4e340" transform="translate(384 262.584) rotate(0) scale(0.047999997)">
<use href="#path19" transform="translate(0 0)"/>
</g>
</g>
<g>
<g data-source-text="" fill="#dee4e340" transform="translate(456 262.584) rotate(0) scale(0.047999997)">
<use href="#path19" transform="translate(0 0)"/>
</g>
</g>
<g>
<g data-source-text="" fill="#dee4e340" transform="translate(528 262.584) rotate(0) scale(0.047999997)">
<use href="#path19" transform="translate(0 0)"/>
</g>
</g>
<g>
<g data-source-text="" fill="#dee4e340" transform="translate(600 262.584) rotate(0) scale(0.047999997)">
<use href="#path19" transform="translate(0 0)"/>
</g>
</g>
<g>
<g data-source-text="" fill="#dee4e340" transform="translate(672 262.584) rotate(0) scale(0.047999997)">
<use href="#path19" transform="translate(0 0)"/>
</g>
</g>
<g>
<g data-source-text="" fill="#dee4e340" transform="translate(744 262.584) rotate(0) scale(0.047999997)">
<use href="#path19" transform="translate(0 0)"/>
</g>
</g>
<g>
<g data-source-text="" fill="#dee4e340" transform="translate(816 262.584) rotate(0) scale(0.047999997)">
<use href="#path19" transform="translate(0 0)"/>
</g>
</g>
<g>
<g data-source-text="" fill="#dee4e340" transform="translate(888 262.584) rotate(0) scale(0.047999997)">
<use href="#path19" transform="translate(0 0)"/>
</g>
</g>
<g>
<g data-source-text="" fill="#dee4e340" transform="translate(960 262.584) rotate(0) scale(0.047999997)">
<use href="#path19" transform="translate(0 0)"/>
</g>
</g>
<g>
<g data-source-text="" fill="#dee4e340" transform="translate(1032 262.584) rotate(0) scale(0.047999997)">
<use href="#path19" transform="translate(0 0)"/>
</g>
</g>
<g>
<g data-source-text="" fill="#dee4e340" transform="translate(1104 262.584) rotate(0) scale(0.047999997)">
<use href="#path19" transform="translate(0 0)"/>
</g>
</g>
<g>
<g data-source-text="" fill="#dee4e340" transform="translate(1176 262.584) rotate(0) scale(0.047999997)">
<use href="#path19" transform="translate(0 0)"/>
</g>
</g>
<g>
<g data-source-text="" fill="#dee4e340" transform="translate(1248 262.584) rotate(0) scale(0.047999997)">
<use href="#path19" transform="translate(0 0)"/>
</g>
</g>
</svg>