<?xml version="1.0" encoding="UTF-8" standalone="no"?>
<svg height="432" viewBox="0 0 1296 432" width="1296" xmlns="http://www.w3.org/2000/svg">
<defs>
<path d="M 250 8 Q 223 8 196 3 Q 169 -2 145 -15 Q 121 -28 102.5 -48.5 Q 84 -69 72.5 -94 Q 61 -119 56.5 -146 Q 52 -173 52 -200 L 52 -535 Q 52 -562 56.5 -589 Q 61 -616 72.5 -641 Q 84 -666 102.5 -686.5 Q 121 -707 145 -720 Q 169 -733 196 -738 Q 223 -743 250 -743 Q 277 -743 304 -738 Q 331 -733 355 -720 Q 379 -707 397.5 -686.5 Q 416 -666 427.5 -641 Q 439 -616 443.5 -589 Q 448 -562 448 -535 L 448 -200 Q 448 -173 443.5 -146 Q 439 -119 427.5 -94 Q 416 -69 397.5 -48.5 Q 379 -28 355 -15 Q 331 -2 304 3 Q 277 8 250 8 Z M 153 -337 L 347 -491 L 347 -535 Q 347 -557 342.5 -578.5 Q 338 -600 325.5 -618 Q 313 -636 292.5 -645.5 Q 272 -655 250 -655 Q 228 -655 207.5 -645.5 Q 187 -636 174.5 -618 Q 162 -600 157.5 -578.5 Q 153 -557 153 -535 Z M 250 -80 Q 272 -80 292.5 -89.5 Q 313 -99 325.5 -117 Q 338 -135 342.5 -156.5 Q 347 -178 347 -200 L 347 -398 L 153 -244 L 153 -200 Q 153 -178 157.5 -156.5 Q 162 -135 174.5 -117 Q 187 -99 207.5 -89.5 Q 228 -80 250 -80 Z " id="path1"/>
<path d="M 230 0 L 230 -631 L 110 -528 L 55 -584 L 230 -735 L 330 -735 L 330 0 Z " id="path2"/>
<path d="M 440 0 L 60 0 L 60 -1 Q 60 -27 61 -53.5 Q 62 -80 66 -106.5 Q 70 -133 77.5 -158.5 Q 85 -184 96.5 -207.5 Q 108 -231 123 -253 Q 138 -275 156 -294.5 Q 174 -314 194 -331 Q 214 -348 235.5 -364 Q 257 -380 277.5 -397 Q 298 -414 313 -435.5 Q 328 -457 335.5 -483 Q 343 -509 343 -535 Q 343 -557 339 -578 Q 335 -599 323.5 -617 Q 312 -635 292 -645 Q 272 -655 251 -655 Q 231 -655 212.5 -647.5 Q 194 -640 182 -625 Q 170 -610 164.5 -591 Q 159 -572 159 -552 L 159 -548 L 58 -548 L 58 -555 Q 58 -581 64 -605.5 Q 70 -630 81.5 -652.5 Q 93 -675 111.5 -693 Q 130 -711 152.5 -722.5 Q 175 -734 200.5 -738.5 Q 226 -743 251 -743 Q 278 -743 304.5 -737.5 Q 331 -732 354.5 -719 Q 378 -706 396 -685.5 Q 414 -665 424.5 -640.5 Q 435 -616 439.5 -589 Q 444 -562 444 -535 Q 444 -501 435 -468 Q 426 -435 407.5 -406 Q 389 -377 364 -353.5 Q 339 -330 312.5 -308.5 Q 286 -287 261 -264 Q 236 -241 216.5 -213 Q 197 -185 184 -153.5 Q 171 -122 166 -88 L 440 -88 Z " id="path3"/>
<path d="M 253 8 Q 227 8 201 4 Q 175 -0 151.5 -11.5 Q 128 -23 108.5 -40.5 Q 89 -58 76 -81 Q 63 -104 56.5 -129.5 Q 50 -155 50 -181 L 50 -187 L 151 -187 L 151 -184 Q 151 -163 157.5 -143 Q 164 -123 178 -108 Q 192 -93 212 -86.5 Q 232 -80 253 -80 Q 275 -80 296 -88.5 Q 317 -97 330.5 -114.5 Q 344 -132 349.5 -154 Q 355 -176 355 -198 Q 355 -217 351 -235.5 Q 347 -254 338.5 -271 Q 330 -288 316.5 -301 Q 303 -314 286 -322 Q 269 -330 250 -332 Q 231 -334 212 -334 L 212 -422 Q 229 -422 246 -424 Q 263 -426 278.5 -433 Q 294 -440 306 -452.5 Q 318 -465 325.5 -480.5 Q 333 -496 336 -513 Q 339 -530 339 -547 Q 339 -566 334.5 -585.5 Q 330 -605 319.5 -621 Q 309 -637 291 -646 Q 273 -655 253 -655 Q 234 -655 216.5 -647 Q 199 -639 187.5 -624 Q 176 -609 171.5 -590 Q 167 -571 167 -553 L 167 -548 L 66 -548 L 66 -556 Q 66 -581 71.5 -605.5 Q 77 -630 88 -652 Q 99 -674 117 -692.5 Q 135 -711 157 -722.5 Q 179 -734 203.5 -738.5 Q 228 -743 253 -743 Q 278 -743 303.5 -738 Q 329 -733 351 -721 Q 373 -709 390 -690 Q 407 -671 418 -648 Q 429 -625 434.5 -600 Q 440 -575 440 -550 Q 440 -524 434 -498.5 Q 428 -473 415.5 -450.5 Q 403 -428 384.5 -409.5 Q 366 -391 343 -379 Q 369 -368 390.5 -348.5 Q 412 -329 427 -304.5 Q 442 -280 449 -252 Q 456 -224 456 -196 Q 456 -168 450 -141.5 Q 444 -115 432 -91 Q 420 -67 401 -47 Q 382 -27 358 -14.5 Q 334 -2 307 3 Q 280 8 253 8 Z " id="path4"/>
<path d="M 282 0 L 282 -188 L 52 -188 L 52 -275 L 276 -735 L 385 -735 L 161 -275 L 282 -275 L 282 -435 L 382 -435 L 382 -275 L 440 -275 L 440 -188 L 382 -188 L 382 0 Z " id="path5"/>
<path d="M 252 8 Q 227 8 202.5 3.5 Q 178 -1 155.5 -12 Q 133 -23 115 -41 Q 97 -59 85 -80.5 Q 73 -102 66.5 -126.5 Q 60 -151 59 -176 L 159 -176 Q 161 -158 167 -139.5 Q 173 -121 185.5 -107 Q 198 -93 216 -86.5 Q 234 -80 252 -80 Q 269 -80 285 -87 Q 301 -94 312 -107 Q 323 -120 330 -135.5 Q 337 -151 340.5 -168 Q 344 -185 345.5 -202 Q 347 -219 347 -236 Q 347 -252 346 -269 Q 345 -286 341 -302 Q 337 -318 331 -334 Q 325 -350 314 -363 Q 303 -376 287.5 -383.5 Q 272 -391 256 -391 Q 240 -391 224.5 -387 Q 209 -383 196 -373.5 Q 183 -364 176 -349.5 Q 169 -335 168 -319 L 68 -319 L 68 -735 L 421 -735 L 421 -647 L 168 -647 L 168 -464 Q 189 -472 211 -475 Q 233 -478 256 -478 Q 285 -478 313.5 -470.5 Q 342 -463 365.5 -445.5 Q 389 -428 405.5 -403 Q 422 -378 431.5 -350.5 Q 441 -323 444.5 -294 Q 448 -265 448 -235 Q 448 -206 444 -176.5 Q 440 -147 430.5 -119 Q 421 -91 404 -66.5 Q 387 -42 363.5 -24.5 Q 340 -7 311 0.5 Q 282 8 252 8 Z " id="path6"/>
<path d="M 250 8 Q 221 8 192.5 1.5 Q 164 -5 140 -21 Q 116 -37 98.5 -60.5 Q 81 -84 70.5 -111 Q 60 -138 56 -166.5 Q 52 -195 52 -224 Q 52 -268 60 -311 Q 68 -354 81.5 -395.5 Q 95 -437 113 -477 Q 131 -517 150 -556 L 238 -735 L 347 -735 L 240 -517 Q 228 -493 216.5 -468.5 Q 205 -444 195 -419 Q 214 -438 239 -447 Q 264 -456 291 -456 Q 317 -456 342.5 -447 Q 368 -438 386.5 -419.5 Q 405 -401 417 -377.5 Q 429 -354 436 -328.5 Q 443 -303 445.5 -276.5 Q 448 -250 448 -224 Q 448 -195 444 -166.5 Q 440 -138 429.5 -111 Q 419 -84 401.5 -60.5 Q 384 -37 360 -21 Q 336 -5 307.5 1.5 Q 279 8 250 8 Z M 250 -80 Q 266 -80 282 -85.5 Q 298 -91 309.5 -102.5 Q 321 -114 328.5 -129 Q 336 -144 340 -159.5 Q 344 -175 345.5 -191.5 Q 347 -208 347 -224 Q 347 -240 345.5 -256.5 Q 344 -273 340 -289 Q 336 -305 328.5 -319.5 Q 321 -334 309.5 -345.5 Q 298 -357 282 -362.5 Q 266 -368 250 -368 Q 235 -368 221 -363.5 Q 207 -359 195.5 -349.5 Q 184 -340 176.5 -327.5 Q 169 -315 164 -301 Q 159 -287 156.5 -272.5 Q 154 -258 153 -243 L 153 -224 Q 153 -208 154.5 -191.5 Q 156 -175 160 -159.5 Q 164 -144 171.5 -129 Q 179 -114 190.5 -102.5 Q 202 -91 218 -85.5 Q 234 -80 250 -80 Z " id="path7"/>
<path d="M 242 0 L 138 0 L 336 -647 L 60 -647 L 60 -735 L 440 -735 L 440 -647 Z " id="path8"/>
<path d="M 250 8 Q 225 8 200 4 Q 175 -0 152 -10 Q 129 -20 109.5 -37 Q 90 -54 77.5 -75.5 Q 65 -97 58.5 -121.5 Q 52 -146 52 -172 Q 52 -203 62 -232.5 Q 72 -262 88.5 -288 Q 105 -314 127 -336 Q 149 -358 174 -378 Q 152 -396 132.5 -417 Q 113 -438 98.5 -462.5 Q 84 -487 76 -514.5 Q 68 -542 68 -570 Q 68 -594 73.5 -617 Q 79 -640 90.5 -661 Q 102 -682 119.5 -698.5 Q 137 -715 158 -725 Q 179 -735 202.5 -739 Q 226 -743 250 -743 Q 274 -743 297.5 -739 Q 321 -735 342 -725 Q 363 -715 380.5 -698.5 Q 398 -682 409.5 -661 Q 421 -640 426.5 -617 Q 432 -594 432 -570 Q 432 -542 424 -514.5 Q 416 -487 401.5 -462.5 Q 387 -438 367.5 -417 Q 348 -396 326 -378 Q 351 -358 373 -336 Q 395 -314 411.5 -288 Q 428 -262 438 -232.5 Q 448 -203 448 -172 Q 448 -146 441.5 -121.5 Q 435 -97 422.5 -75.5 Q 410 -54 390.5 -37 Q 371 -20 348 -10 Q 325 -0 300 4 Q 275 8 250 8 Z M 250 -435 Q 266 -447 280.5 -461.5 Q 295 -476 306.5 -493 Q 318 -510 325 -529.5 Q 332 -549 332 -569 Q 332 -586 326.5 -602.5 Q 321 -619 310 -631.5 Q 299 -644 283 -649.5 Q 267 -655 250 -655 Q 233 -655 217 -649.5 Q 201 -644 190 -631.5 Q 179 -619 173.5 -602.5 Q 168 -586 168 -569 Q 168 -549 175 -529.5 Q 182 -510 193.5 -493 Q 205 -476 219.5 -461.5 Q 234 -447 250 -435 Z M 250 -80 Q 269 -80 287.5 -85.5 Q 306 -91 320 -104 Q 334 -117 340.5 -135.5 Q 347 -154 347 -173 Q 347 -196 338.5 -217.5 Q 330 -239 316.5 -257.5 Q 303 -276 285.5 -291 Q 268 -306 250 -320 Q 232 -306 214.5 -291 Q 197 -276 183.5 -257.5 Q 170 -239 161.5 -217.5 Q 153 -196 153 -173 Q 153 -154 159.5 -135.5 Q 166 -117 180 -104 Q 194 -91 212.5 -85.5 Q 231 -80 250 -80 Z " id="path9"/>
<path d="M 262 0 L 153 0 L 260 -218 Q 272 -242 283.5 -266.5 Q 295 -291 305 -316 Q 286 -297 261 -288 Q 236 -279 209 -279 Q 183 -279 157.5 -288 Q 132 -297 113.5 -315.5 Q 95 -334 83 -357.5 Q 71 -381 64 -406.5 Q 57 -432 54.5 -458.5 Q 52 -485 52 -511 Q 52 -540 56 -568.5 Q 60 -597 70.5 -624 Q 81 -651 98.5 -674.5 Q 116 -698 140 -714 Q 164 -730 192.5 -736.5 Q 221 -743 250 -743 Q 279 -743 307.5 -736.5 Q 336 -730 360 -714 Q 384 -698 401.5 -674.5 Q 419 -651 429.5 -624 Q 440 -597 444 -568.5 Q 448 -540 448 -511 Q 448 -467 440 -424 Q 432 -381 418.5 -339.5 Q 405 -298 387 -258 Q 369 -218 350 -179 Z M 250 -367 Q 265 -367 279 -371.5 Q 293 -376 304.5 -385.5 Q 316 -395 323.5 -407.5 Q 331 -420 336 -434 Q 341 -448 343.5 -462.5 Q 346 -477 347 -492 L 347 -511 Q 347 -527 345.5 -543.5 Q 344 -560 340 -575.5 Q 336 -591 328.5 -606 Q 321 -621 309.5 -632.5 Q 298 -644 282 -649.5 Q 266 -655 250 -655 Q 234 -655 218 -649.5 Q 202 -644 190.5 -632.5 Q 179 -621 171.5 -606 Q 164 -591 160 -575.5 Q 156 -560 154.5 -543.5 Q 153 -527 153 -511 Q 153 -495 154.5 -478.5 Q 156 -462 160 -446 Q 164 -430 171.5 -415.5 Q 179 -401 190.5 -389.5 Q 202 -378 218 -372.5 Q 234 -367 250 -367 Z " id="path10"/>
<path d="M 39 0 L 192 -735 L 308 -735 L 461 0 L 358 0 L 326 -172 L 174 -172 L 142 0 Z M 309 -260 L 265 -490 Q 262 -511 258 -531.5 Q 254 -552 250 -572 Q 246 -552 242 -531.5 Q 238 -511 235 -490 L 191 -260 Z " id="path11"/>
<path d="M 60 0 L 60 -735 L 234 -735 Q 261 -735 287 -730.5 Q 313 -726 336 -714 Q 359 -702 377.5 -682.5 Q 396 -663 408 -639.5 Q 420 -616 424.5 -590 Q 429 -564 429 -538 Q 429 -515 425 -492 Q 421 -469 410.5 -448.5 Q 400 -428 383.5 -411 Q 367 -394 347 -383 Q 372 -373 393.5 -355.5 Q 415 -338 429.5 -314.5 Q 444 -291 450 -264 Q 456 -237 456 -210 Q 456 -181 450 -152.5 Q 444 -124 430 -98.5 Q 416 -73 394.5 -53.5 Q 373 -34 347 -21.5 Q 321 -9 292 -4.5 Q 263 -0 234 0 Z M 161 -424 L 234 -424 Q 255 -424 274.5 -432.5 Q 294 -441 306.5 -457.5 Q 319 -474 324 -494.5 Q 329 -515 329 -536 Q 329 -557 324 -577.5 Q 319 -598 306.5 -614.5 Q 294 -631 274.5 -639 Q 255 -647 234 -647 L 161 -647 Z M 161 -88 L 234 -88 Q 251 -88 267 -91 Q 283 -94 297.5 -101.5 Q 312 -109 323.5 -121 Q 335 -133 342.5 -148 Q 350 -163 352.5 -179 Q 355 -195 355 -212 Q 355 -228 352.5 -244.5 Q 350 -261 343 -276 Q 336 -291 324.5 -303 Q 313 -315 298 -322.5 Q 283 -330 267 -333 Q 251 -336 234 -336 L 161 -336 Z " id="path12"/>
<path d="M 247 8 Q 220 8 193 2.5 Q 166 -3 142.5 -16 Q 119 -29 101 -49.5 Q 83 -70 72 -94.5 Q 61 -119 56.5 -146 Q 52 -173 52 -200 L 52 -535 Q 52 -562 56.5 -589 Q 61 -616 72 -640.5 Q 83 -665 101 -685.5 Q 119 -706 142.5 -719 Q 166 -732 193 -737.5 Q 220 -743 247 -743 Q 273 -743 298 -738.5 Q 323 -734 346 -723 Q 369 -712 387.5 -694 Q 406 -676 418 -653.5 Q 430 -631 436 -606 Q 442 -581 442 -555 L 442 -548 L 341 -548 L 341 -552 Q 341 -572 335.5 -591.5 Q 330 -611 317.5 -626 Q 305 -641 286 -648 Q 267 -655 247 -655 Q 225 -655 205 -645.5 Q 185 -636 173 -618 Q 161 -600 157 -578.5 Q 153 -557 153 -535 L 153 -200 Q 153 -178 157 -156.5 Q 161 -135 173 -117 Q 185 -99 205 -89.5 Q 225 -80 247 -80 Q 267 -80 286 -87 Q 305 -94 317.5 -109 Q 330 -124 335.5 -143.5 Q 341 -163 341 -183 L 341 -187 L 442 -187 L 442 -180 Q 442 -154 436 -129 Q 430 -104 418 -81.5 Q 406 -59 387.5 -41 Q 369 -23 346 -12 Q 323 -1 298 3.5 Q 273 8 247 8 Z " id="path13"/>
<path d="M 60 0 L 60 -735 L 219 -735 Q 249 -735 279 -730 Q 309 -725 336.5 -712 Q 364 -699 386 -678.5 Q 408 -658 422 -631.5 Q 436 -605 442 -575 Q 448 -545 448 -515 L 448 -220 Q 448 -190 442 -160 Q 436 -130 422 -103.5 Q 408 -77 386 -56.5 Q 364 -36 336.5 -23 Q 309 -10 279 -5 Q 249 -0 219 0 Z M 161 -88 L 219 -88 Q 237 -88 254 -91 Q 271 -94 286.5 -102.5 Q 302 -111 314 -124 Q 326 -137 333.5 -152.5 Q 341 -168 344 -185.5 Q 347 -203 347 -220 L 347 -515 Q 347 -532 344 -549.5 Q 341 -567 333.5 -582.5 Q 326 -598 314 -611 Q 302 -624 286.5 -632.5 Q 271 -641 254 -644 Q 237 -647 219 -647 L 161 -647 Z " id="path14"/>
<path d="M 68 0 L 68 -735 L 440 -735 L 440 -647 L 169 -647 L 169 -426 L 383 -426 L 383 -338 L 169 -338 L 169 -88 L 440 -88 L 440 0 Z " id="path15"/>
<path d="M 91 0 L 91 -735 L 440 -735 L 440 -647 L 191 -647 L 191 -426 L 383 -426 L 383 -338 L 191 -338 L 191 0 Z " id="path16"/>
<path d="M 250 8 Q 223 8 196.5 2.5 Q 170 -3 147 -16.5 Q 124 -30 106.5 -50.5 Q 89 -71 78.5 -95.5 Q 68 -120 64 -146.5 Q 60 -173 60 -200 L 60 -735 L 161 -735 L 161 -200 Q 161 -186 162.5 -172 Q 164 -158 168 -144.5 Q 172 -131 179.5 -118.5 Q 187 -106 197.5 -97 Q 208 -88 222 -84 Q 236 -80 250 -80 Q 264 -80 278 -84 Q 292 -88 302.5 -97 Q 313 -106 320.5 -118.5 Q 328 -131 332 -144.5 Q 336 -158 337.5 -172 Q 339 -186 339 -200 L 339 -735 L 440 -735 L 440 -200 Q 440 -173 436 -146.5 Q 432 -120 421.5 -95.5 Q 411 -71 393.5 -50.5 Q 376 -30 353 -16.5 Q 330 -3 303.5 2.5 Q 277 8 250 8 Z " id="path17"/>
<path d="M 300 -143 L 200 -143 L 200 -296 L 60 -296 L 60 -384 L 200 -384 L 200 -537 L 300 -537 L 300 -384 L 440 -384 L 440 -296 L 300 -296 Z " id="path18"/>
<path d="M 250 -526 Q 240 -526 233 -533 Q 226 -540 226 -550 Q 226 -560 233 -567 Q 240 -574 250 -574 Q 260 -574 267 -567 Q 274 -560 274 -550 Q 274 -540 267 -533 Q 260 -526 250 -526 Z M 145 -498 Q 135 -498 128 -505 Q 121 -512 121 -522 Q 121 -531 128 -538.5 Q 135 -546 145 -546 Q 155 -546 162 -538.5 Q 169 -531 169 -522 Q 169 -512 162 -505 Q 155 -498 145 -498 Z M 355 -498 Q 345 -498 338 -505 Q 331 -512 331 -522 Q 331 -531 338 -538.5 Q 345 -546 355 -546 Q 365 -546 372 -538.5 Q 379 -531 379 -522 Q 379 -512 372 -505 Q 365 -498 355 -498 Z M 68 -421 Q 59 -421 51.5 -428 Q 44 -435 44 -445 Q 44 -455 51.5 -462 Q 59 -469 68 -469 Q 78 -469 85 -462 Q 92 -455 92 -445 Q 92 -435 85 -428 Q 78 -421 68 -421 Z M 432 -421 Q 422 -421 415 -428 Q 408 -435 408 -445 Q 408 -455 415 -462 Q 422 -469 432 -469 Q 441 -469 448.5 -462 Q 456 -455 456 -445 Q 456 -435 448.5 -428 Q 441 -421 432 -421 Z M 40 -316 Q 30 -316 23 -323 Q 16 -330 16 -340 Q 16 -350 23 -357 Q 30 -364 40 -364 Q 50 -364 57 -357 Q 64 -350 64 -340 Q 64 -330 57 -323 Q 50 -316 40 -316 Z M 460 -316 Q 450 -316 443 -323 Q 436 -330 436 -340 Q 436 -350 443 -357 Q 450 -364 460 -364 Q 470 -364 477 -357 Q 484 -350 484 -340 Q 484 -330 477 -323 Q 470 -316 460 -316 Z M 432 -211 Q 422 -211 415 -218 Q 408 -225 408 -235 Q 408 -245 415 -252 Q 422 -259 432 -259 Q 441 -259 448.5 -252 Q 456 -245 456 -235 Q 456 -225 448.5 -218 Q 441 -211 432 -211 Z M 68 -211 Q 59 -211 51.5 -218 Q 44 -225 44 -235 Q 44 -245 51.5 -252 Q 59 -259 68 -259 Q 78 -259 85 -252 Q 92 -245 92 -235 Q 92 -225 85 -218 Q 78 -211 68 -211 Z M 355 -134 Q 345 -134 338 -141.5 Q 331 -149 331 -158 Q 331 -168 338 -175 Q 345 -182 355 -182 Q 365 -182 372 -175 Q 379 -168 379 -158 Q 379 -149 372 -141.5 Q 365 -134 355 -134 Z M 145 -134 Q 135 -134 128 -141.5 Q 121 -149 121 -158 Q 121 -168 128 -175 Q 135 -182 145 -182 Q 155 -182 162 -175 Q 169 -168 169 -158 Q 169 -149 162 -141.5 Q 155 -134 145 -134 Z M 250 -106 Q 240 -106 233 -113 Q 226 -120 226 -130 Q 226 -140 233 -147 Q 240 -154 250 -154 Q 260 -154 267 -147 Q 274 -140 274 -130 Q 274 -120 267 -113 Q 260 -106 250 -106 Z " id="path19"/>
<path d="M 64 0 L 64 -735 L 436 -735 L 436 0 Z M 94 -321 L 401 -705 L 308 -705 L 94 -438 Z M 94 -478 L 276 -705 L 182 -705 L 94 -595 Z M 94 -634 L 151 -705 L 94 -705 Z M 94 -165 L 406 -554 L 406 -671 L 94 -282 Z M 94 -30 L 111 -30 L 406 -398 L 406 -515 L 94 -126 Z M 143 -30 L 236 -30 L 406 -242 L 406 -359 Z M 268 -30 L 362 -30 L 406 -85 L 406 -202 Z M 393 -30 L 406 -30 L 406 -46 Z " id="path20"/>
<path d="M -447 -592 L -490 -622 L -399 -761 L -301 -761 L -256 -691 L -250 -683 L -199 -761 L -101 -761 L -10 -622 L -53 -592 L -150 -705 L -247 -592 L -250 -594 L -253 -592 L -350 -705 Z " id="path21"/>
<path d="M -250 -576 Q -269 -576 -287.5 -581.5 Q -306 -587 -319.5 -600.5 Q -333 -614 -338.5 -632.5 Q -344 -651 -344 -670 Q -344 -689 -338.5 -707.5 Q -333 -726 -319.5 -739.5 Q -306 -753 -287.5 -758.5 Q -269 -764 -250 -764 Q -231 -764 -212.5 -758.5 Q -194 -753 -180.5 -739.5 Q -167 -726 -161.5 -707.5 Q -156 -689 -156 -670 Q -156 -651 -161.5 -632.5 Q -167 -614 -180.5 -600.5 Q -194 -587 -212.5 -581.5 Q -231 -576 -250 -576 Z M -420 -608 Q -433 -608 -445 -611.5 Q -457 -615 -466 -624 Q -475 -633 -478.5 -645 Q -482 -657 -482 -670 Q -482 -683 -478.5 -695 Q -475 -707 -466 -716 Q -457 -725 -445 -729 Q -433 -733 -420 -733 Q -407 -733 -395 -729 Q -383 -725 -374 -716 Q -365 -707 -361 -695 Q -357 -683 -357 -670 Q -357 -657 -361 -645 Q -365 -633 -374 -624 Q -383 -615 -395 -611.5 Q -407 -608 -420 -608 Z M -80 -608 Q -93 -608 -105 -611.5 Q -117 -615 -126 -624 Q -135 -633 -138.5 -645 Q -142 -657 -142 -670 Q -142 -683 -138.5 -695 Q -135 -707 -126 -716 Q -117 -725 -105 -729 Q -93 -733 -80 -733 Q -67 -733 -55 -729 Q -43 -725 -34 -716 Q -25 -707 -21 -695 Q -17 -683 -17 -670 Q -17 -657 -21 -645 Q -25 -633 -34 -624 Q -43 -615 -55 -611.5 Q -67 -608 -80 -608 Z M -250 -631 Q -242 -631 -234.5 -633.5 Q -227 -636 -221.5 -641.5 Q -216 -647 -213.5 -654.5 Q -211 -662 -211 -670 Q -211 -678 -213.5 -685.5 Q -216 -693 -221.5 -698.5 Q -227 -704 -234.5 -706.5 Q -242 -709 -250 -709 Q -258 -709 -265.5 -706.5 Q -273 -704 -278.5 -698.5 Q -284 -693 -286.5 -685.5 Q -289 -678 -289 -670 Q -289 -662 -286.5 -654.5 Q -284 -647 -278.5 -641.5 Q -273 -636 -265.5 -633.5 Q -258 -631 -250 -631 Z " id="path22"/>
<path d="M -170 -576 Q -189 -576 -207.5 -581.5 Q -226 -587 -239.5 -600.5 Q -253 -614 -258.5 -632.5 Q -264 -651 -264 -670 Q -264 -689 -258.5 -707.5 Q -253 -726 -239.5 -739.5 Q -226 -753 -207.5 -758.5 Q -189 -764 -170 -764 Q -151 -764 -132.5 -758.5 Q -114 -753 -100.5 -739.5 Q -87 -726 -81.5 -707.5 Q -76 -689 -76 -670 Q -76 -651 -81.5 -632.5 Q -87 -614 -100.5 -600.5 Q -114 -587 -132.5 -581.5 Q -151 -576 -170 -576 Z M -170 -631 Q -162 -631 -154.5 -633.5 Q -147 -636 -141.5 -641.5 Q -136 -647 -133.5 -654.5 Q -131 -662 -131 -670 Q -131 -678 -133.5 -685.5 Q -136 -693 -141.5 -698.5 Q -147 -704 -154.5 -706.5 Q -162 -709 -170 -709 Q -178 -709 -185.5 -706.5 Q -193 -704 -198.5 -698.5 Q -204 -693 -206.5 -685.5 Q -209 -678 -209 -670 Q -209 -662 -206.5 -654.5 Q -204 -647 -198.5 -641.5 Q -193 -636 -185.5 -633.5 Q -178 -631 -170 -631 Z M -330 -576 Q -349 -576 -367.5 -581.5 Q -386 -587 -399.5 -600.5 Q -413 -614 -418.5 -632.5 Q -424 -651 -424 -670 Q -424 -689 -418.5 -707.5 Q -413 -726 -399.5 -739.5 Q -386 -753 -367.5 -758.5 Q -349 -764 -330 -764 Q -311 -764 -292.5 -758.5 Q -274 -753 -260.5 -739.5 Q -247 -726 -241.5 -707.5 Q -236 -689 -236 -670 Q -236 -651 -241.5 -632.5 Q -247 -614 -260.5 -600.5 Q -274 -587 -292.5 -581.5 Q -311 -576 -330 -576 Z M -330 -631 Q -322 -631 -314.5 -633.5 Q -307 -636 -301.5 -641.5 Q -296 -647 -293.5 -654.5 Q -291 -662 -291 -670 Q -291 -678 -293.5 -685.5 Q -296 -693 -301.5 -698.5 Q -307 -704 -314.5 -706.5 Q -322 -709 -330 -709 Q -338 -709 -345.5 -706.5 Q -353 -704 -358.5 -698.5 Q -364 -693 -366.5 -685.5 Q -369 -678 -369 -670 Q -369 -662 -366.5 -654.5 Q -364 -647 -358.5 -641.5 Q -353 -636 -345.5 -633.5 Q -338 -631 -330 -631 Z " id="path23"/>
<path d="M -250 -572 L -340 -655 L -310 -685 L -272 -649 L -272 -740 L -228 -740 L -228 -649 L -190 -685 L -160 -655 Z " id="path24"/>
<path d="M -250 -781 Q -263 -781 -275 -784.5 Q -287 -788 -296 -797 Q -305 -806 -308.5 -818.5 Q -312 -831 -312 -843 Q -312 -856 -308.5 -868 Q -305 -880 -296 -889 Q -287 -898 -275 -902 Q -263 -906 -250 -906 Q -237 -906 -225 -902 Q -213 -898 -204 -889 Q -195 -880 -191 -868 Q -187 -856 -187 -843 Q -187 -831 -191 -818.5 Q -195 -806 -204 -797 Q -213 -788 -225 -784.5 Q -237 -781 -250 -781 Z M -150 -608 Q -163 -608 -175 -611.5 Q -187 -615 -196 -624 Q -205 -633 -208.5 -645 Q -212 -657 -212 -670 Q -212 -683 -208.5 -695 Q -205 -707 -196 -716 Q -187 -725 -175 -729 Q -163 -733 -150 -733 Q -137 -733 -125 -729 Q -113 -725 -104 -716 Q -95 -707 -91 -695 Q -87 -683 -87 -670 Q -87 -657 -91 -645 Q -95 -633 -104 -624 Q -113 -615 -125 -611.5 Q -137 -608 -150 -608 Z M -350 -608 Q -363 -608 -375 -611.5 Q -387 -615 -396 -624 Q -405 -633 -408.5 -645 Q -412 -657 -412 -670 Q -412 -683 -408.5 -695 Q -405 -707 -396 -716 Q -387 -725 -375 -729 Q -363 -733 -350 -733 Q -337 -733 -325 -729 Q -313 -725 -304 -716 Q -295 -707 -291 -695 Q -287 -683 -287 -670 Q -287 -657 -291 -645 Q -295 -633 -304 -624 Q -313 -615 -325 -611.5 Q -337 -608 -350 -608 Z " id="path25"/>
<path d="M -431 245 L -469 195 L -405 150 L -469 105 L -431 55 L -350 112 L -269 55 L -231 105 L -295 150 L -231 195 L -269 245 L -350 188 Z M -231 245 L -269 195 L -205 150 L -269 105 L -231 55 L -150 112 L -69 55 L -31 105 L -95 150 L -31 195 L -69 245 L -150 188 Z " id="path26"/>
<path d="M -375 -570 Q -391 -591 -399.5 -617 Q -408 -643 -408 -670 Q -408 -697 -399.5 -723 Q -391 -749 -375 -770 L -348 -752 Q -361 -735 -367.5 -713.5 Q -374 -692 -374 -670 Q -374 -648 -367.5 -626.5 Q -361 -605 -348 -588 Z " id="path27"/>
<path d="M -125 -570 L -152 -588 Q -139 -605 -132.5 -626.5 Q -126 -648 -126 -670 Q -126 -692 -132.5 -713.5 Q -139 -735 -152 -752 L -125 -770 Q -109 -749 -100.5 -723 Q -92 -697 -92 -670 Q -92 -643 -100.5 -617 Q -109 -591 -125 -570 Z " id="path28"/>
<path d="M -459 -570 Q -475 -591 -483.5 -617 Q -492 -643 -492 -670 Q -492 -697 -483.5 -723 Q -475 -749 -459 -770 L -431 -752 Q -444 -735 -451 -713.5 Q -458 -692 -458 -670 Q -458 -648 -451 -626.5 Q -444 -605 -431 -588 Z M -375 -570 Q -391 -591 -399.5 -617 Q -408 -643 -408 -670 Q -408 -697 -399.5 -723 Q -391 -749 -375 -770 L -348 -752 Q -361 -735 -367.5 -713.5 Q -374 -692 -374 -670 Q -374 -648 -367.5 -626.5 Q -361 -605 -348 -588 Z " id="path29"/>
<path d="M -41 -570 L -69 -588 Q -56 -605 -49 -626.5 Q -42 -648 -42 -670 Q -42 -692 -49 -713.5 Q -56 -735 -69 -752 L -41 -770 Q -25 -749 -16.5 -723 Q -8 -697 -8 -670 Q -8 -643 -16.5 -617 Q -25 -591 -41 -570 Z M -125 -570 L -152 -588 Q -139 -605 -132.5 -626.5 Q -126 -648 -126 -670 Q -126 -692 -132.5 -713.5 Q -139 -735 -152 -752 L -125 -770 Q -109 -749 -100.5 -723 Q -92 -697 -92 -670 Q -92 -643 -100.5 -617 Q -109 -591 -125 -570 Z " id="path30"/>
<path d="M -375 250 Q -391 229 -399.5 203 Q -408 177 -408 150 Q -408 123 -399.5 97 Q -391 71 -375 50 L -348 68 Q -361 85 -367.5 106.5 Q -374 128 -374 150 Q -374 172 -367.5 193.5 Q -361 215 -348 232 Z " id="path31"/>
<path d="M -125 250 L -152 232 Q -139 215 -132.5 193.5 Q -126 172 -126 150 Q -126 128 -132.5 106.5 Q -139 85 -152 68 L -125 50 Q -109 71 -100.5 97 Q -92 123 -92 150 Q -92 177 -100.5 203 Q -109 229 -125 250 Z " id="path32"/>
<path d="M -305 288 L -340 80 L -301 80 L -287 253 L -266 138 L -234 138 L -213 253 L -199 80 L -160 80 L -195 288 L -227 288 L -250 178 L -273 288 Z " id="path33"/>
<path d="M -340 288 L -305 80 L -273 80 L -250 190 L -227 80 L -195 80 L -160 288 L -199 288 L -213 115 L -234 230 L -266 230 L -287 115 L -301 288 Z " id="path34"/>
<path d="M -425 -600 L -425 -740 L -350 -740 L -350 -710 L -391 -710 L -391 -630 L -350 -630 L -350 -600 Z " id="path35"/>
<path d="M -150 -600 L -150 -630 L -109 -630 L -109 -710 L -150 -710 L -150 -740 L -75 -740 L -75 -600 Z " id="path36"/>
<path d="M -310 -607 L -310 -674 L -342 -674 L -342 -708 L -310 -708 L -310 -786 L -342 -786 L -342 -820 L -310 -820 L -310 -887 L -271 -887 L -271 -820 L -229 -820 L -229 -887 L -190 -887 L -190 -820 L -158 -820 L -158 -786 L -190 -786 L -190 -708 L -158 -708 L -158 -674 L -190 -674 L -190 -607 L -229 -607 L -229 -674 L -271 -674 L -271 -607 Z M -229 -708 L -229 -786 L -271 -786 L -271 -708 Z " id="path37"/>
<path d="M -316 -600 Q -333 -600 -349 -605 Q -365 -610 -377.5 -620.5 Q -390 -631 -398.5 -645 Q -407 -659 -411.5 -675 Q -416 -691 -418 -707.5 Q -420 -724 -420 -740 L -346 -740 Q -346 -733 -345.5 -726 Q -345 -719 -344 -711.5 Q -343 -704 -341.5 -697 Q -340 -690 -337 -683.5 Q -334 -677 -329 -672 Q -324 -667 -316 -667 Q -309 -667 -304 -672 Q -299 -677 -296 -683.5 Q -293 -690 -291.5 -697 Q -290 -704 -289 -711.5 Q -288 -719 -287.5 -726 Q -287 -733 -287 -740 L -213 -740 Q -213 -733 -212.5 -726 Q -212 -719 -211 -711.5 Q -210 -704 -208.5 -697 Q -207 -690 -204 -683.5 Q -201 -677 -196 -672 Q -191 -667 -184 -667 Q -176 -667 -171 -672 Q -166 -677 -163 -683.5 Q -160 -690 -158.5 -697 Q -157 -704 -156 -711.5 Q -155 -719 -154.5 -726 Q -154 -733 -154 -740 L -80 -740 Q -80 -724 -82 -707.5 Q -84 -691 -88.5 -675 Q -93 -659 -101.5 -645 Q -110 -631 -122.5 -620.5 Q -135 -610 -151 -605 Q -167 -600 -184 -600 Q -202 -600 -219.5 -606 Q -237 -612 -250 -625 Q -263 -612 -280.5 -606 Q -298 -600 -316 -600 Z " id="path38"/>
<path d="M -284 -600 L -284 -640 L -350 -640 L -350 -700 L -284 -700 L -284 -740 L -216 -740 L -216 -700 L -150 -700 L -150 -640 L -216 -640 L -216 -600 Z " id="path39"/>
<path d="M -184 -600 L -184 -640 L -250 -640 L -250 -700 L -184 -700 L -184 -740 L -116 -740 L -116 -700 L -50 -700 L -50 -640 L -116 -640 L -116 -600 Z M -384 -600 L -384 -640 L -450 -640 L -450 -700 L -384 -700 L -384 -740 L -316 -740 L -316 -700 L -250 -700 L -250 -640 L -316 -640 L -316 -600 Z " id="path40"/>
<path d="M -384 220 L -384 180 L -450 180 L -450 120 L -384 120 L -384 80 L -316 80 L -316 120 L -250 120 L -250 180 L -316 180 L -316 220 Z M -184 220 L -184 180 L -250 180 L -250 120 L -184 120 L -184 80 L -116 80 L -116 120 L -50 120 L -50 180 L -116 180 L -116 220 Z " id="path41"/>
<path d="M -144 -586 L -176 -614 L -42 -757 L -3 -723 Z M -271 -586 L -303 -614 L -169 -757 L -131 -723 Z M -399 -586 L -431 -614 L -297 -757 L -258 -723 Z " id="path42"/>
<path d="M -250 -597 Q -266 -597 -281 -601.5 Q -296 -606 -307 -617.5 Q -318 -629 -323 -644.5 Q -328 -660 -328 -676 Q -328 -687 -325 -698.5 Q -322 -710 -316 -719.5 Q -310 -729 -301 -736.5 Q -292 -744 -282 -750 Q -290 -757 -294.5 -767 Q -299 -777 -299 -788 Q -299 -800 -293.5 -811.5 Q -288 -823 -279 -831.5 Q -270 -840 -259.5 -846.5 Q -249 -853 -238 -859 L -324 -859 L -324 -894 L -176 -894 L -176 -859 Q -189 -854 -202 -848 Q -215 -842 -227.5 -835 Q -240 -828 -250 -817 Q -260 -806 -260 -791 Q -260 -781 -252.5 -774.5 Q -245 -768 -236.5 -763.5 Q -228 -759 -219 -754.5 Q -210 -750 -202.5 -744 Q -195 -738 -189 -730.5 Q -183 -723 -179.5 -714 Q -176 -705 -174 -695 Q -172 -685 -172 -676 Q -172 -660 -177 -644.5 Q -182 -629 -193 -617.5 Q -204 -606 -219 -601.5 Q -234 -597 -250 -597 Z M -250 -632 Q -242 -632 -234 -635 Q -226 -638 -220.5 -644.5 Q -215 -651 -213 -659 Q -211 -667 -211 -676 Q -211 -685 -213.5 -694.5 Q -216 -704 -222 -712 Q -228 -720 -236.5 -724.5 Q -245 -729 -254 -733 Q -269 -724 -279 -708.5 Q -289 -693 -289 -676 Q -289 -667 -287 -659 Q -285 -651 -279.5 -644.5 Q -274 -638 -266 -635 Q -258 -632 -250 -632 Z " id="path43"/>
<path d="M -324 -600 L -324 -894 L -286 -894 L -286 -860 Q -283 -868 -278 -875 Q -273 -882 -266.5 -887 Q -260 -892 -251.5 -894.5 Q -243 -897 -234 -897 Q -220 -897 -207 -889.5 Q -194 -882 -187 -869.5 Q -180 -857 -178 -842.5 Q -176 -828 -176 -814 L -176 -757 Q -176 -749 -173.5 -741.5 Q -171 -734 -165.5 -728 Q -160 -722 -152.5 -720 Q -145 -718 -137 -718 L -137 -683 Q -152 -683 -167 -687 Q -182 -691 -193 -701.5 Q -204 -712 -209 -727 Q -214 -742 -214 -757 L -214 -814 Q -214 -823 -215.5 -831.5 Q -217 -840 -221.5 -847 Q -226 -854 -233.5 -858 Q -241 -862 -250 -862 Q -259 -862 -266.5 -858 Q -274 -854 -278.5 -847 Q -283 -840 -284.5 -831.5 Q -286 -823 -286 -814 L -286 -600 Z " id="path44"/>
<path d="M -251 -597 Q -267 -597 -282.5 -602.5 Q -298 -608 -308.5 -620 Q -319 -632 -323.5 -648 Q -328 -664 -328 -680 L -328 -711 Q -328 -728 -322 -745 Q -316 -762 -303 -773 L -324 -773 L -324 -808 L -176 -808 L -176 -773 L -250 -773 Q -260 -773 -269 -766.5 Q -278 -760 -282 -751 Q -286 -742 -287.5 -731.5 Q -289 -721 -289 -711 L -289 -680 Q -289 -671 -287.5 -662.5 Q -286 -654 -281 -646.5 Q -276 -639 -268 -635.5 Q -260 -632 -251 -632 Q -243 -632 -236 -634.5 Q -229 -637 -223.5 -642.5 Q -218 -648 -215.5 -655.5 Q -213 -663 -213 -671 L -213 -672 L -175 -672 L -175 -670 Q -175 -655 -180 -640.5 Q -185 -626 -196 -616 Q -207 -606 -221.5 -601.5 Q -236 -597 -251 -597 Z " id="path45"/>
</defs>
<g>
<g data-source-text="0" fill="#dee4e3" transform="translate(174 41.292) rotate(0) scale(0.023999998)">
<use href="#path1" transform="translate(0 0)"/>
</g>
</g>
<g>
<g data-source-text="1" fill="#dee4e3" transform="translate(246 41.292) rotate(0) scale(0.023999998)">
<use href="#path2" transform="translate(0 0)"/>
</g>
</g>
<g>
<g data-source-text="2" fill="#dee4e3" transform="translate(318 41.292) rotate(0) scale(0.023999998)">
<use href="#path3" transform="translate(0 0)"/>
</g>
</g>
<g>
<g data-source-text="3" fill="#dee4e3" transform="translate(390 41.292) rotate(0) scale(0.023999998)">
<use href="#path4" transform="translate(0 0)"/>
</g>
</g>
<g>
<g data-source-text="4" fill="#dee4e3" transform="translate(462 41.292) rotate(0) scale(0.023999998)">
<use href="#path5" transform="translate(0 0)"/>
</g>
</g>
<g>
<g data-source-text="5" fill="#dee4e3" transform="translate(534 41.292) rotate(0) scale(0.023999998)">
<use href="#path6" transform="translate(0 0)"/>
</g>
</g>
<g>
<g data-source-text="6" fill="#dee4e3" transform="translate(606 41.292) rotate(0) scale(0.023999998)">
<use href="#path7" transform="translate(0 0)"/>
</g>
</g>
<g>
<g data-source-text="7" fill="#dee4e3" transform="translate(678 41.292) rotate(0) scale(0.023999998)">
<use href="#path8" transform="translate(0 0)"/>
</g>
</g>
<g>
<g data-source-text="8" fill="#dee4e3" transform="translate(750 41.292) rotate(0) scale(0.023999998)">
<use href="#path9" transform="translate(0 0)"/>
</g>
</g>
<g>
<g data-source-text="9" fill="#dee4e3" transform="translate(822 41.292) rotate(0) scale(0.023999998)">
<use href="#path10" transform="translate(0 0)"/>
</g>
</g>
<g>
<g data-source-text="A" fill="#dee4e3" transform="translate(894 41.292) rotate(0) scale(0.023999998)">
<use href="#path11" transform="translate(0 0)"/>
</g>
</g>
<g>
<g data-source-text="B" fill="#dee4e3" transform="translate(966 41.292) rotate(0) scale(0.023999998)">
<use href="#path12" transform="translate(0 0)"/>
</g>
</g>
<g>
<g data-source-text="C" fill="#dee4e3" transform="translate(1038 41.292) rotate(0) scale(0.023999998)">
<use href="#path13" transform="translate(0 0)"/>
</g>
</g>
<g>
<g data-source-text="D" fill="#dee4e3" transform="translate(1110 41.292) rotate(0) scale(0.023999998)">
<use href="#path14" transform="translate(0 0)"/>
</g>
</g>
<g>
<g data-source-text="E" fill="#dee4e3" transform="translate(1182 41.292) rotate(0) scale(0.023999998)">
<use href="#path15" transform="translate(0 0)"/>
</g>
</g>
<g>
<g data-source-text="F" fill="#dee4e3" transform="translate(1254 41.292) rotate(0) scale(0.023999998)">
<use href="#path16" transform="translate(0 0)"/>
</g>
</g>
<g>
<g data-source-text="U+1AB0" fill="#dee4e3" transform="translate(36 113.292) rotate(0) scale(0.023999998)">
<use href="#path17" transform="translate(0 0)"/>
<use href="#path18" transform="translate(500 0)"/>
<use href="#path2" transform="translate(1000 0)"/>
<use href="#path11" transform="translate(1500 0)"/>
<use href="#path12" transform="translate(2000 0)"/>
<use href="#path1" transform="translate(2500 0)"/>
</g>
</g>
<g>
<g data-source-text="◌" fill="#03aee9" transform="translate(168 118.584) rotate(0) scale(0.047999997)">
<use href="#path19" transform="translate(0 0)"/>
</g>
</g>
<g>
<g data-source-text="᪰" fill="#dee4e3" transform="translate(168 118.584) rotate(0) scale(0.047999997)">
<use href="#path20" transform="translate(0 0)"/>
<use href="#path21" transform="translate(500 0)"/>
</g>
</g>
<g>
<g data-source-text="◌" fill="#03aee9" transform="translate(240 118.584) rotate(0) scale(0.047999997)">
<use href="#path19" transform="translate(0 0)"/>
</g>
</g>
<g>
<g data-source-text="᪱" fill="#dee4e3" transform="translate(240 118.584) rotate(0) scale(0.047999997)">
<use href="#path20" transform="translate(0 0)"/>
<use href="#path22" transform="translate(500 0)"/>
</g>
</g>
<g>
<g data-source-text="◌" fill="#03aee9" transform="translate(312 118.584) rotate(0) scale(0.047999997)">
<use href="#path19" transform="translate(0 0)"/>
</g>
</g>
<g>
<g data-source-text="᪲" fill="#dee4e3" transform="translate(312 118.584) rotate(0) scale(0.047999997)">
<use href="#path20" transform="translate(0 0)"/>
<use href="#path23" transform="translate(500 0)"/>
</g>
</g>
<g>
<g data-source-text="◌" fill="#03aee9" transform="translate(384 118.584) rotate(0) scale(0.047999997)">
<use href="#path19" transform="translate(0 0)"/>
</g>
</g>
<g>
<g data-source-text="᪳" fill="#dee4e3" transform="translate(384 118.584) rotate(0) scale(0.047999997)">
<use href="#path20" transform="translate(0 0)"/>
<use href="#path24" transform="translate(500 0)"/>
</g>
</g>
<g>
<g data-source-text="◌" fill="#03aee9" transform="translate(456 118.584) rotate(0) scale(0.047999997)">
<use href="#path19" transform="translate(0 0)"/>
</g>
</g>
<g>
<g data-source-text="᪴" fill="#dee4e3" transform="translate(456 118.584) rotate(0) scale(0.047999997)">
<use href="#path20" transform="translate(0 0)"/>
<use href="#path25" transform="translate(500 0)"/>
</g>
</g>
<g>
<g data-source-text="◌" fill="#03aee9" transform="translate(528 118.584) rotate(0) scale(0.047999997)">
<use href="#path19" transform="translate(0 0)"/>
</g>
</g>
<g>
<g data-source-text="᪵" fill="#dee4e3" transform="translate(528 118.584) rotate(0) scale(0.047999997)">
<use href="#path20" transform="translate(0 0)"/>
<use href="#path26" transform="translate(500 0)"/>
</g>
</g>
<g>
<g data-source-text="" fill="#dee4e340" transform="translate(600 118.584) rotate(0) scale(0.047999997)">
<use href="#path20" transform="translate(0 0)"/>
</g>
</g>
<g>
<g data-source-text="" fill="#dee4e340" transform="translate(672 118.584) rotate(0) scale(0.047999997)">
<use href="#path20" transform="translate(0 0)"/>
</g>
</g>
<g>
<g data-source-text="" fill="#dee4e340" transform="translate(744 118.584) rotate(0) scale(0.047999997)">
<use href="#path20" transform="translate(0 0)"/>
</g>
</g>
<g>
<g data-source-text="" fill="#dee4e340" transform="translate(816 118.584) rotate(0) scale(0.047999997)">
<use href="#path20" transform="translate(0 0)"/>
</g>
</g>
<g>
<g data-source-text="" fill="#dee4e340" transform="translate(888 118.584) rotate(0) scale(0.047999997)">
<use href="#path20" transform="translate(0 0)"/>
</g>
</g>
<g>
<g data-source-text="◌" fill="#03aee9" transform="translate(960 118.584) rotate(0) scale(0.047999997)">
<use href="#path19" transform="translate(0 0)"/>
</g>
</g>
<g>
<g data-source-text="᪻" fill="#dee4e3" transform="translate(960 118.584) rotate(0) scale(0.047999997)">
<use href="#path20" transform="translate(0 0)"/>
<use href="#path27" transform="translate(500 0)"/>
<use href="#path28" transform="translate(500 0)"/>
</g>
</g>
<g>
<g data-source-text="◌" fill="#03aee9" transform="translate(1032 118.584) rotate(0) scale(0.047999997)">
<use href="#path19" transform="translate(0 0)"/>
</g>
</g>
<g>
<g data-source-text="᪼" fill="#dee4e3" transform="translate(1032 118.584) rotate(0) scale(0.047999997)">
<use href="#path20" transform="translate(0 0)"/>
<use href="#path29" transform="translate(500 0)"/>
<use href="#path30" transform="translate(500 0)"/>
</g>
</g>
<g>
<g data-source-text="◌" fill="#03aee9" transform="translate(1104 118.584) rotate(0) scale(0.047999997)">
<use href="#path19" transform="translate(0 0)"/>
</g>
</g>
<g>
<g data-source-text="᪽" fill="#dee4e3" transform="translate(1104 118.584) rotate(0) scale(0.047999997)">
<use href="#path20" transform="translate(0 0)"/>
<use href="#path31" transform="translate(500 0)"/>
<use href="#path32" transform="translate(500 0)"/>
</g>
</g>
<g>
<g data-source-text="" fill="#dee4e340" transform="translate(1176 118.584) rotate(0) scale(0.047999997)">
<use href="#path20" transform="translate(0 0)"/>
</g>
</g>
<g>
<g data-source-text="◌" fill="#03aee9" transform="translate(1248 118.584) rotate(0) scale(0.047999997)">
<use href="#path19" transform="translate(0 0)"/>
</g>
</g>
<g>
<g data-source-text="ᪿ" fill="#dee4e3" transform="translate(1248 118.584) rotate(0) scale(0.047999997)">
<use href="#path20" transform="translate(0 0)"/>
<use href="#path33" transform="translate(500 0)"/>
</g>
</g>
<g>
<g data-source-text="U+1AC0" fill="#dee4e3" transform="translate(36 185.292) rotate(0) scale(0.023999998)">
<use href="#path17" transform="translate(0 0)"/>
<use href="#path18" transform="translate(500 0)"/>
<use href="#path2" transform="translate(1000 0)"/>
<use href="#path11" transform="translate(1500 0)"/>
<use href="#path13" transform="translate(2000 0)"/>
<use href="#path1" transform="translate(2500 0)"/>
</g>
</g>
<g>
<g data-source-text="◌" fill="#03aee9" transform="translate(168 190.584) rotate(0) scale(0.047999997)">
<use href="#path19" transform="translate(0 0)"/>
</g>
</g>
<g>
<g data-source-text="ᫀ" fill="#dee4e3" transform="translate(168 190.584) rotate(0) scale(0.047999997)">
<use href="#path20" transform="translate(0 0)"/>
<use href="#path34" transform="translate(500 0)"/>
</g>
</g>
<g>
<g data-source-text="◌" fill="#03aee9" transform="translate(240 190.584) rotate(0) scale(0.047999997)">
<use href="#path19" transform="translate(0 0)"/>
</g>
</g>
<g>
<g data-source-text="" fill="#dee4e3" transform="translate(240 190.584) rotate(0) scale(0.047999997)">
<use href="#path20" transform="translate(0 0)"/>
</g>
<g data-source-text="᫁" fill="#dee4e3" transform="translate(264 190.584) rotate(0) scale(0.047999997)">
<use href="#path27" transform="translate(0 0)"/>
</g>
</g>
<g>
<g data-source-text="◌" fill="#03aee9" transform="translate(312 190.584) rotate(0) scale(0.047999997)">
<use href="#path19" transform="translate(0 0)"/>
</g>
</g>
<g>
<g data-source-text="" fill="#dee4e3" transform="translate(312 190.584) rotate(0) scale(0.047999997)">
<use href="#path20" transform="translate(0 0)"/>
</g>
<g data-source-text="᫂" fill="#dee4e3" transform="translate(336 190.584) rotate(0) scale(0.047999997)">
<use href="#path28" transform="translate(0 0)"/>
</g>
</g>
<g>
<g data-source-text="◌" fill="#03aee9" transform="translate(384 190.584) rotate(0) scale(0.047999997)">
<use href="#path19" transform="translate(0 0)"/>
</g>
</g>
<g>
<g data-source-text="" fill="#dee4e3" transform="translate(384 190.584) rotate(0) scale(0.047999997)">
<use href="#path20" transform="translate(0 0)"/>
</g>
<g data-source-text="᫃" fill="#dee4e3" transform="translate(408 190.584) rotate(0) scale(0.047999997)">
<use href="#path31" transform="translate(0 0)"/>
</g>
</g>
<g>
<g data-source-text="◌" fill="#03aee9" transform="translate(456 190.584) rotate(0) scale(0.047999997)">
<use href="#path19" transform="translate(0 0)"/>
</g>
</g>
<g>
<g data-source-text="" fill="#dee4e3" transform="translate(456 190.584) rotate(0) scale(0.047999997)">
<use href="#path20" transform="translate(0 0)"/>
</g>
<g data-source-text="᫄" fill="#dee4e3" transform="translate(480 190.584) rotate(0) scale(0.047999997)">
<use href="#path32" transform="translate(0 0)"/>
</g>
</g>
<g>
<g data-source-text="◌" fill="#03aee9" transform="translate(528 190.584) rotate(0) scale(0.047999997)">
<use href="#path19" transform="translate(0 0)"/>
</g>
</g>
<g>
<g data-source-text="" fill="#dee4e3" transform="translate(528 190.584) rotate(0) scale(0.047999997)">
<use href="#path20" transform="translate(0 0)"/>
</g>
<g data-source-text="᫅" fill="#dee4e3" transform="translate(552 190.584) rotate(0) scale(0.047999997)">
<use href="#path35" transform="translate(0 0)"/>
<use href="#path36" transform="translate(0 0)"/>
</g>
</g>
<g>
<g data-source-text="◌" fill="#03aee9" transform="translate(600 190.584) rotate(0) scale(0.047999997)">
<use href="#path19" transform="translate(0 0)"/>
</g>
</g>
<g>
<g data-source-text="" fill="#dee4e3" transform="translate(600 190.584) rotate(0) scale(0.047999997)">
<use href="#path20" transform="translate(0 0)"/>
</g>
<g data-source-text="᫆" fill="#dee4e3" transform="translate(624 190.584) rotate(0) scale(0.047999997)">
<use href="#path37" transform="translate(0 0)"/>
</g>
</g>
<g>
<g data-source-text="◌" fill="#03aee9" transform="translate(672 190.584) rotate(0) scale(0.047999997)">
<use href="#path19" transform="translate(0 0)"/>
</g>
</g>
<g>
<g data-source-text="" fill="#dee4e3" transform="translate(672 190.584) rotate(0) scale(0.047999997)">
<use href="#path20" transform="translate(0 0)"/>
</g>
<g data-source-text="᫇" fill="#dee4e3" transform="translate(696 190.584) rotate(0) scale(0.047999997)">
<use href="#path38" transform="translate(0 0)"/>
</g>
</g>
<g>
<g data-source-text="◌" fill="#03aee9" transform="translate(744 190.584) rotate(0) scale(0.047999997)">
<use href="#path19" transform="translate(0 0)"/>
</g>
</g>
<g>
<g data-source-text="" fill="#dee4e3" transform="translate(744 190.584) rotate(0) scale(0.047999997)">
<use href="#path20" transform="translate(0 0)"/>
</g>
<g data-source-text="᫈" fill="#dee4e3" transform="translate(768 190.584) rotate(0) scale(0.047999997)">
<use href="#path39" transform="translate(0 0)"/>
</g>
</g>
<g>
<g data-source-text="◌" fill="#03aee9" transform="translate(816 190.584) rotate(0) scale(0.047999997)">
<use href="#path19" transform="translate(0 0)"/>
</g>
</g>
<g>
<g data-source-text="" fill="#dee4e3" transform="translate(816 190.584) rotate(0) scale(0.047999997)">
<use href="#path20" transform="translate(0 0)"/>
</g>
<g data-source-text="᫉" fill="#dee4e3" transform="translate(840 190.584) rotate(0) scale(0.047999997)">
<use href="#path40" transform="translate(0 0)"/>
</g>
</g>
<g>
<g data-source-text="◌" fill="#03aee9" transform="translate(888 190.584) rotate(0) scale(0.047999997)">
<use href="#path19" transform="translate(0 0)"/>
</g>
</g>
<g>
<g data-source-text="" fill="#dee4e3" transform="translate(888 190.584) rotate(0) scale(0.047999997)">
<use href="#path20" transform="translate(0 0)"/>
</g>
<g data-source-text="᫊" fill="#dee4e3" transform="translate(912 190.584) rotate(0) scale(0.047999997)">
<use href="#path41" transform="translate(0 0)"/>
</g>
</g>
<g>
<g data-source-text="◌" fill="#03aee9" transform="translate(960 190.584) rotate(0) scale(0.047999997)">
<use href="#path19" transform="translate(0 0)"/>
</g>
</g>
<g>
<g data-source-text="" fill="#dee4e3" transform="translate(960 190.584) rotate(0) scale(0.047999997)">
<use href="#path20" transform="translate(0 0)"/>
</g>
<g data-source-text="᫋" fill="#dee4e3" transform="translate(984 190.584) rotate(0) scale(0.047999997)">
<use href="#path42" transform="translate(0 0)"/>
</g>
</g>
<g>
<g data-source-text="◌" fill="#03aee9" transform="translate(1032 190.584) rotate(0) scale(0.047999997)">
<use href="#path19" transform="translate(0 0)"/>
</g>
</g>
<g>
<g data-source-text="" fill="#dee4e3" transform="translate(1032 190.584) rotate(0) scale(0.047999997)">
<use href="#path20" transform="translate(0 0)"/>
</g>
<g data-source-text="ᫌ" fill="#dee4e3" transform="translate(1056 190.584) rotate(0) scale(0.047999997)">
<use href="#path43" transform="translate(0 0)"/>
</g>
</g>
<g>
<g data-source-text="◌" fill="#03aee9" transform="translate(1104 190.584) rotate(0) scale(0.047999997)">
<use href="#path19" transform="translate(0 0)"/>
</g>
</g>
<g>
<g data-source-text="" fill="#dee4e3" transform="translate(1104 190.584) rotate(0) scale(0.047999997)">
<use href="#path20" transform="translate(0 0)"/>
</g>
<g data-source-text="ᫍ" fill="#dee4e3" transform="translate(1128 190.584) rotate(0) scale(0.047999997)">
<use href="#path44" transform="translate(0 0)"/>
</g>
</g>
<g>
<g data-source-text="◌" fill="#03aee9" transform="translate(1176 190.584) rotate(0) scale(0.047999997)">
<use href="#path19" transform="translate(0 0)"/>
</g>
</g>
<g>
<g data-source-text="" fill="#dee4e3" transform="translate(1176 190.584) rotate(0) scale(0.047999997)">
<use href="#path20" transform="translate(0 0)"/>
</g>
<g data-source-text="ᫎ" fill="#dee4e3" transform="translate(1200 190.584) rotate(0) scale(0.047999997)">
<use href="#path45" transform="translate(0 0)"/>
</g>
</g>
<g>
<g data-source-text="" fill="#dee4e340" transform="translate(1248 190.584) rotate(0) scale(0.047999997)">
<use href="#path20" transform="translate(0 0)"/>
</g>
</g>
<g>
<g data-source-text="U+1AD0" fill="#dee4e3" transform="translate(36 257.292) rotate(0) scale(0.023999998)">
<use href="#path17" transform="translate(0 0)"/>
<use href="#path18" transform="translate(500 0)"/>
<use href="#path2" transform="translate(1000 0)"/>
<use href="#path11" transform="translate(1500 0)"/>
<use href="#path14" transform="translate(2000 0)"/>
<use href="#path1" transform="translate(2500 0)"/>
</g>
</g>
<g>
<g data-source-text="" fill="#dee4e340" transform="translate(168 262.584) rotate(0) scale(0.047999997)">
<use href="#path20" transform="translate(0 0)"/>
</g>
</g>
<g>
<g data-source-text="" fill="#dee4e340" transform="translate(240 262.584) rotate(0) scale(0.047999997)">
<use href="#path20" transform="translate(0 0)"/>
</g>
</g>
<g>
<g data-source-text="" fill="#dee4e340" transform="translate(312 262.584) rotate(0) scale(0.047999997)">
<use href="#path20" transform="translate(0 0)"/>
</g>
</g>
<g>
<g data-source-text="" fill="#dee4e340" transform="translate(384 262.584) rotate(0) scale(0.047999997)">
<use href="#path20" transform="translate(0 0)"/>
</g>
</g>
<g>
<g data-source-text="" fill="#dee4e340" transform="translate(456 262.584) rotate(0) scale(0.047999997)">
<use href="#path20" transform="translate(0 0)"/>
</g>
</g>
<g>
<g data-source-text="" fill="#dee4e340" transform="translate(528 262.584) rotate(0) scale(0.047999997)">
<use href="#path20" transform="translate(0 0)"/>
</g>
</g>
<g>
<g data-source-text="" fill="#dee4e340" transform="translate(600 262.584) rotate(0) scale(0.047999997)">
<use href="#path20" transform="translate(0 0)"/>
</g>
</g>
<g>
<g data-source-text="" fill="#dee4e340" transform="translate(672 262.584) rotate(0) scale(0.047999997)">
<use href="#path20" transform="translate(0 0)"/>
</g>
</g>
<g>
<g data-source-text="" fill="#dee4e340" transform="translate(744 262.584) rotate(0) scale(0.047999997)">
<use href="#path20" transform="translate(0 0)"/>
</g>
</g>
<g>
<g data-source-text="" fill="#dee4e340" transform="translate(816 262.584) rotate(0) scale(0.047999997)">
<use href="#path20" transform="translate(0 0)"/>
</g>
</g>
<g>
<g data-source-text="" fill="#dee4e340" transform="translate(888 262.584) rotate(0) scale(0.047999997)">
<use href="#path20" transform="translate(0 0)"/>
</g>
</g>
<g>
<g data-source-text="" fill="#dee4e340" transform="translate(960 262.584) rotate(0) scale(0.047999997)">
<use href="#path20" transform="translate(0 0)"/>
</g>
</g>
<g>
<g data-source-text="" fill="#dee4e340" transform="translate(1032 262.584) rotate(0) scale(0.047999997)">
<use href="#path20" transform="translate(0 0)"/>
</g>
</g>
<g>
<g data-source-text="" fill="#dee4e340" transform="translate(1104 262.584) rotate(0) scale(0.047999997)">
<use href="#path20" transform="translate(0 0)"/>
</g>
</g>
<g>
<g data-source-text="" fill="#dee4e340" transform="translate(1176 262.584) rotate(0) scale(0.047999997)">
<use href="#path20" transform="translate(0 0)"/>
</g>
</g>
<g>
<g data-source-text="" fill="#dee4e340" transform="translate(1248 262.584) rotate(0) scale(0.047999997)">
<use href="#path20" transform="translate(0 0)"/>
</g>
</g>
<g>
<g data-source-text="U+1AE0" fill="#dee4e3" transform="translate(36 329.292) rotate(0) scale(0.023999998)">
<use href="#path17" transform="translate(0 0)"/>
<use href="#path18" transform="translate(500 0)"/>
<use href="#path2" transform="translate(1000 0)"/>
<use href="#path11" transform="translate(1500 0)"/>
<use href="#path15" transform="translate(2000 0)"/>
<use href="#path1" transform="translate(2500 0)"/>
</g>
</g>
<g>
<g data-source-text="" fill="#dee4e340" transform="translate(168 334.584) rotate(0) scale(0.047999997)">
<use href="#path20" transform="translate(0 0)"/>
</g>
</g>
<g>
<g data-source-text="" fill="#dee4e340" transform="translate(240 334.584) rotate(0) scale(0.047999997)">
<use href="#path20" transform="translate(0 0)"/>
</g>
</g>
<g>
<g data-source-text="" fill="#dee4e340" transform="translate(312 334.584) rotate(0) scale(0.047999997)">
<use href="#path20" transform="translate(0 0)"/>
</g>
</g>
<g>
<g data-source-text="" fill="#dee4e340" transform="translate(384 334.584) rotate(0) scale(0.047999997)">
<use href="#path20" transform="translate(0 0)"/>
</g>
</g>
<g>
<g data-source-text="" fill="#dee4e340" transform="translate(456 334.584) rotate(0) scale(0.047999997)">
<use href="#path20" transform="translate(0 0)"/>
</g>
</g>
<g>
<g data-source-text="" fill="#dee4e340" transform="translate(528 334.584) rotate(0) scale(0.047999997)">
<use href="#path20" transform="translate(0 0)"/>
</g>
</g>
<g>
<g data-source-text="" fill="#dee4e340" transform="translate(600 334.584) rotate(0) scale(0.047999997)">
<use href="#path20" transform="translate(0 0)"/>
</g>
</g>
<g>
<g data-source-text="" fill="#dee4e340" transform="translate(672 334.584) rotate(0) scale(0.047999997)">
<use href="#path20" transform="translate(0 0)"/>
</g>
</g>
<g>
<g data-source-text="" fill="#dee4e340" transform="translate(744 334.584) rotate(0) scale(0.047999997)">
<use href="#path20" transform="translate(0 0)"/>
</g>
</g>
<g>
<g data-source-text="" fill="#dee4e340" transform="translate(816 334.584) rotate(0) scale(0.047999997)">
<use href="#path20" transform="translate(0 0)"/>
</g>
</g>
<g>
<g data-source-text="" fill="#dee4e340" transform="translate(888 334.584) rotate(0) scale(0.047999997)">
<use href="#path20" transform="translate(0 0)"/>
</g>
</g>
<g>
<g data-source-text="" fill="#dee4e340" transform="translate(960 334.584) rotate(0) scale(0.047999997)">
<use href="#path20" transform="translate(0 0)"/>
</g>
</g>
<g>
<g data-source-text="" fill="#dee4e340" transform="translate(1032 334.584) rotate(0) scale(0.047999997)">
<use href="#path20" transform="translate(0 0)"/>
</g>
</g>
<g>
<g data-source-text="" fill="#dee4e340" transform="translate(1104 334.584) rotate(0) scale(0.047999997)">
<use href="#path20" transform="translate(0 0)"/>
</g>
</g>
<g>
<g data-source-text="" fill="#dee4e340" transform="translate(1176 334.584) rotate(0) scale(0.047999997)">
<use href="#path20" transform="translate(0 0)"/>
</g>
</g>
<g>
<g data-source-text="" fill="#dee4e340" transform="translate(1248 334.584) rotate(0) scale(0.047999997)">
<use href="#path20" transform="translate(0 0)"/>
</g>
</g>
<g>
<g data-source-text="U+1AF0" fill="#dee4e3" transform="translate(36 401.292) rotate(0) scale(0.023999998)">
<use href="#path17" transform="translate(0 0)"/>
<use href="#path18" transform="translate(500 0)"/>
<use href="#path2" transform="translate(1000 0)"/>
<use href="#path11" transform="translate(1500 0)"/>
<use href="#path16" transform="translate(2000 0)"/>
<use href="#path1" transform="translate(2500 0)"/>
</g>
</g>
<g>
<g data-source-text="" fill="#dee4e340" transform="translate(168 406.584) rotate(0) scale(0.047999997)">
<use href="#path20" transform="translate(0 0)"/>
</g>
</g>
<g>
<g data-source-text="" fill="#dee4e340" transform="translate(240 406.584) rotate(0) scale(0.047999997)">
<use href="#path20" transform="translate(0 0)"/>
</g>
</g>
<g>
<g data-source-text="" fill="#dee4e340" transform="translate(312 406.584) rotate(0) scale(0.047999997)">
<use href="#path20" transform="translate(0 0)"/>
</g>
</g>
<g>
<g data-source-text="" fill="#dee4e340" transform="translate(384 406.584) rotate(0) scale(0.047999997)">
<use href="#path20" transform="translate(0 0)"/>
</g>
</g>
<g>
<g data-source-text="" fill="#dee4e340" transform="translate(456 406.584) rotate(0) scale(0.047999997)">
<use href="#path20" transform="translate(0 0)"/>
</g>
</g>
<g>
<g data-source-text="" fill="#dee4e340" transform="translate(528 406.584) rotate(0) scale(0.047999997)">
<use href="#path20" transform="translate(0 0)"/>
</g>
</g>
<g>
<g data-source-text="" fill="#dee4e340" transform="translate(600 406.584) rotate(0) scale(0.047999997)">
<use href="#path20" transform="translate(0 0)"/>
</g>
</g>
<g>
<g data-source-text="" fill="#dee4e340" transform="translate(672 406.584) rotate(0) scale(0.047999997)">
<use href="#path20" transform="translate(0 0)"/>
</g>
</g>
<g>
<g data-source-text="" fill="#dee4e340" transform="translate(744 406.584) rotate(0) scale(0.047999997)">
<use href="#path20" transform="translate(0 0)"/>
</g>
</g>
<g>
<g data-source-text="" fill="#dee4e340" transform="translate(816 406.584) rotate(0) scale(0.047999997)">
<use href="#path20" transform="translate(0 0)"/>
</g>
</g>
<g>
<g data-source-text="" fill="#dee4e340" transform="translate(888 406.584) rotate(0) scale(0.047999997)">
<use href="#path20" transform="translate(0 0)"/>
</g>
</g>
<g>
<g data-source-text="" fill="#dee4e340" transform="translate(960 406.584) rotate(0) scale(0.047999997)">
<use href="#path20" transform="translate(0 0)"/>
</g>
</g>
<g>
<g data-source-text="" fill="#dee4e340" transform="translate(1032 406.584) rotate(0) scale(0.047999997)">
<use href="#path20" transform="translate(0 0)"/>
</g>
</g>
<g>
<g data-source-text="" fill="#dee4e340" transform="translate(1104 406.584) rotate(0) scale(0.047999997)">
<use href="#path20" transform="translate(0 0)"/>
</g>
</g>
<g>
<g data-source-text="" fill="#dee4e340" transform="translate(1176 406.584) rotate(0) scale(0.047999997)">
<use href="#path20" transform="translate(0 0)"/>
</g>
</g>
<g>
<g data-source-text="" fill="#dee4e340" transform="translate(1248 406.584) rotate(0) scale(0.047999997)">
<use href="#path20" transform="translate(0 0)"/>
</g>
</g>
</svg>