<?xml version="1.0" encoding="UTF-8" standalone="no"?>
<svg height="432" viewBox="0 0 1296 432" width="1296" xmlns="http://www.w3.org/2000/svg">
<defs>
<path d="M 250 8 Q 223 8 196 3 Q 169 -2 145 -15 Q 121 -28 102.5 -48.5 Q 84 -69 72.5 -94 Q 61 -119 56.5 -146 Q 52 -173 52 -200 L 52 -535 Q 52 -562 56.5 -589 Q 61 -616 72.5 -641 Q 84 -666 102.5 -686.5 Q 121 -707 145 -720 Q 169 -733 196 -738 Q 223 -743 250 -743 Q 277 -743 304 -738 Q 331 -733 355 -720 Q 379 -707 397.5 -686.5 Q 416 -666 427.5 -641 Q 439 -616 443.5 -589 Q 448 -562 448 -535 L 448 -200 Q 448 -173 443.5 -146 Q 439 -119 427.5 -94 Q 416 -69 397.5 -48.5 Q 379 -28 355 -15 Q 331 -2 304 3 Q 277 8 250 8 Z M 153 -337 L 347 -491 L 347 -535 Q 347 -557 342.5 -578.5 Q 338 -600 325.5 -618 Q 313 -636 292.5 -645.5 Q 272 -655 250 -655 Q 228 -655 207.5 -645.5 Q 187 -636 174.5 -618 Q 162 -600 157.5 -578.5 Q 153 -557 153 -535 Z M 250 -80 Q 272 -80 292.5 -89.5 Q 313 -99 325.5 -117 Q 338 -135 342.5 -156.5 Q 347 -178 347 -200 L 347 -398 L 153 -244 L 153 -200 Q 153 -178 157.5 -156.5 Q 162 -135 174.5 -117 Q 187 -99 207.5 -89.5 Q 228 -80 250 -80 Z " id="path1"/>
<path d="M 230 0 L 230 -637 L 107 -542 L 55 -600 L 230 -735 L 330 -735 L 330 0 Z " id="path2"/>
<path d="M 60 0 L 60 -1 Q 60 -27 61 -53.5 Q 62 -80 66 -106.5 Q 70 -133 77.5 -158.5 Q 85 -184 96.5 -207.5 Q 108 -231 123 -253 Q 138 -275 156 -294.5 Q 174 -314 194 -331 Q 214 -348 235.5 -364 Q 257 -380 277.5 -397 Q 298 -414 313 -435.5 Q 328 -457 335.5 -483 Q 343 -509 343 -535 Q 343 -557 339 -578 Q 335 -599 323.5 -617 Q 312 -635 292 -645 Q 272 -655 251 -655 Q 231 -655 213 -648 Q 195 -641 182.5 -626.5 Q 170 -612 164.5 -593 Q 159 -574 159 -555 L 159 -554 L 58 -554 L 58 -556 Q 58 -581 64 -606 Q 70 -631 82 -653.5 Q 94 -676 112 -694 Q 130 -712 152.5 -723 Q 175 -734 200 -738.5 Q 225 -743 251 -743 Q 278 -743 304.5 -737.5 Q 331 -732 354 -719 Q 377 -706 395 -685.5 Q 413 -665 424 -640.5 Q 435 -616 439.5 -589 Q 444 -562 444 -535 Q 444 -501 435 -468 Q 426 -435 407.5 -406 Q 389 -377 364 -353.5 Q 339 -330 312.5 -308.5 Q 286 -287 261 -264 Q 236 -241 216.5 -213 Q 197 -185 184 -153.5 Q 171 -122 166 -88 L 440 -88 L 440 0 Z " id="path3"/>
<path d="M 252 8 Q 226 8 200 3.5 Q 174 -1 150.5 -12 Q 127 -23 107.5 -41 Q 88 -59 75.5 -82 Q 63 -105 56.5 -130.5 Q 50 -156 50 -183 L 151 -183 Q 151 -162 157.5 -142.5 Q 164 -123 178 -108 Q 192 -93 212 -86.5 Q 232 -80 252 -80 Q 275 -80 296 -88.5 Q 317 -97 330.5 -114.5 Q 344 -132 349.5 -154 Q 355 -176 355 -198 Q 355 -217 351 -235.5 Q 347 -254 338.5 -271 Q 330 -288 316.5 -301 Q 303 -314 286 -322 Q 269 -330 250 -332 Q 231 -334 212 -334 L 212 -422 Q 229 -422 246 -424 Q 263 -426 278.5 -433 Q 294 -440 306 -452.5 Q 318 -465 325.5 -480.5 Q 333 -496 336 -512.5 Q 339 -529 339 -546 Q 339 -566 334.5 -585.5 Q 330 -605 319.5 -621 Q 309 -637 290.5 -646 Q 272 -655 253 -655 Q 234 -655 216.5 -647.5 Q 199 -640 188 -625.5 Q 177 -611 172 -593 Q 167 -575 167 -556 L 167 -555 L 66 -555 L 66 -558 Q 66 -582 71.5 -606.5 Q 77 -631 88.5 -653 Q 100 -675 117.5 -693 Q 135 -711 157 -722.5 Q 179 -734 203.5 -738.5 Q 228 -743 253 -743 Q 278 -743 303 -738 Q 328 -733 350.5 -721 Q 373 -709 390 -690 Q 407 -671 418 -648 Q 429 -625 434.5 -600 Q 440 -575 440 -549 Q 440 -524 434 -498.5 Q 428 -473 415.5 -450.5 Q 403 -428 384.5 -409.5 Q 366 -391 343 -379 Q 369 -368 391 -348.5 Q 413 -329 427.5 -304.5 Q 442 -280 449 -252 Q 456 -224 456 -196 Q 456 -168 450 -141.5 Q 444 -115 432 -91 Q 420 -67 400.5 -47 Q 381 -27 357 -14.5 Q 333 -2 306.5 3 Q 280 8 252 8 Z " id="path4"/>
<path d="M 282 0 L 282 -188 L 52 -188 L 52 -275 L 276 -735 L 385 -735 L 161 -275 L 282 -275 L 282 -435 L 382 -435 L 382 -275 L 440 -275 L 440 -188 L 382 -188 L 382 0 Z " id="path5"/>
<path d="M 252 8 Q 227 8 202.5 3.5 Q 178 -1 156.5 -12.5 Q 135 -24 117.5 -42 Q 100 -60 88 -81 Q 76 -102 69 -126 Q 62 -150 60 -174 L 60 -176 L 160 -176 L 161 -172 Q 164 -154 170.5 -137 Q 177 -120 188.5 -107 Q 200 -94 217 -87 Q 234 -80 252 -80 Q 269 -80 285 -87 Q 301 -94 312 -106.5 Q 323 -119 330 -135 Q 337 -151 340.5 -167.5 Q 344 -184 345.5 -201 Q 347 -218 347 -235 Q 347 -252 345.5 -269 Q 344 -286 340.5 -302.5 Q 337 -319 330.5 -334.5 Q 324 -350 313.5 -363 Q 303 -376 287 -383.5 Q 271 -391 254 -391 Q 236 -391 219.5 -384 Q 203 -377 191.5 -363 Q 180 -349 174.5 -331.5 Q 169 -314 168 -296 L 68 -296 L 68 -735 L 421 -735 L 421 -647 L 168 -647 L 168 -462 Q 188 -471 210 -474.5 Q 232 -478 254 -478 Q 284 -478 312.5 -470.5 Q 341 -463 364.5 -445.5 Q 388 -428 404.5 -403.5 Q 421 -379 430.5 -351 Q 440 -323 444 -294 Q 448 -265 448 -235 Q 448 -206 444 -176.5 Q 440 -147 430.5 -119 Q 421 -91 404 -66.5 Q 387 -42 363 -24.5 Q 339 -7 310 0.5 Q 281 8 252 8 Z " id="path6"/>
<path d="M 250 8 Q 219 8 189 -0.5 Q 159 -9 135 -28 Q 111 -47 94.5 -73.5 Q 78 -100 68.5 -129 Q 59 -158 55.5 -189 Q 52 -220 52 -250 Q 52 -291 60 -331 Q 68 -371 82 -409 Q 96 -447 114 -483.5 Q 132 -520 150 -556 L 238 -735 L 347 -735 L 240 -517 Q 232 -500 223 -483.5 Q 214 -467 205 -451 Q 217 -454 229 -455 Q 241 -456 253 -456 Q 281 -456 309.5 -449 Q 338 -442 361.5 -426 Q 385 -410 402.5 -386.5 Q 420 -363 430 -336.5 Q 440 -310 444 -281.5 Q 448 -253 448 -224 Q 448 -195 444 -166.5 Q 440 -138 429.5 -111 Q 419 -84 401.5 -60.5 Q 384 -37 360 -21 Q 336 -5 307.5 1.5 Q 279 8 250 8 Z M 250 -80 Q 266 -80 282 -85.5 Q 298 -91 309.5 -102.5 Q 321 -114 328.5 -129 Q 336 -144 340 -159.5 Q 344 -175 345.5 -191.5 Q 347 -208 347 -224 Q 347 -240 345.5 -256.5 Q 344 -273 340 -288.5 Q 336 -304 328.5 -319 Q 321 -334 309.5 -345.5 Q 298 -357 282.5 -362.5 Q 267 -368 251 -368 Q 234 -368 218.5 -362.5 Q 203 -357 191.5 -345.5 Q 180 -334 172 -319.5 Q 164 -305 160 -289 Q 156 -273 154.5 -256.5 Q 153 -240 153 -224 Q 153 -208 154.5 -191.5 Q 156 -175 160 -159.5 Q 164 -144 171.5 -129 Q 179 -114 190.5 -102.5 Q 202 -91 218 -85.5 Q 234 -80 250 -80 Z " id="path7"/>
<path d="M 138 0 L 336 -647 L 60 -647 L 60 -735 L 440 -735 L 440 -647 L 242 0 Z " id="path8"/>
<path d="M 250 8 Q 225 8 200 4 Q 175 -0 152 -10 Q 129 -20 110 -37 Q 91 -54 78 -75.5 Q 65 -97 58.5 -121.5 Q 52 -146 52 -171 Q 52 -202 62 -232 Q 72 -262 88.5 -288 Q 105 -314 127 -336 Q 149 -358 174 -378 Q 152 -396 132.5 -417 Q 113 -438 98.5 -462.5 Q 84 -487 76 -514.5 Q 68 -542 68 -571 Q 68 -594 73.5 -617.5 Q 79 -641 90.5 -661.5 Q 102 -682 119.5 -698.5 Q 137 -715 158 -725 Q 179 -735 202.5 -739 Q 226 -743 250 -743 Q 274 -743 297.5 -739 Q 321 -735 342 -725 Q 363 -715 380.5 -698.5 Q 398 -682 409.5 -661.5 Q 421 -641 426.5 -617.5 Q 432 -594 432 -571 Q 432 -542 424 -514.5 Q 416 -487 401.5 -462.5 Q 387 -438 367.5 -417 Q 348 -396 326 -378 Q 351 -358 373 -336 Q 395 -314 411.5 -288 Q 428 -262 438 -232 Q 448 -202 448 -171 Q 448 -146 441.5 -121.5 Q 435 -97 422 -75.5 Q 409 -54 390 -37 Q 371 -20 348 -10 Q 325 -0 300 4 Q 275 8 250 8 Z M 250 -435 Q 266 -447 280.5 -461.5 Q 295 -476 306.5 -493 Q 318 -510 325 -529.5 Q 332 -549 332 -569 Q 332 -586 326.5 -602.5 Q 321 -619 310 -631.5 Q 299 -644 283 -649.5 Q 267 -655 250 -655 Q 233 -655 217 -649.5 Q 201 -644 190 -631.5 Q 179 -619 173.5 -602.5 Q 168 -586 168 -569 Q 168 -549 175 -529.5 Q 182 -510 193.5 -493 Q 205 -476 219.5 -461.5 Q 234 -447 250 -435 Z M 250 -80 Q 269 -80 287.5 -85.5 Q 306 -91 320 -104 Q 334 -117 340.5 -135.5 Q 347 -154 347 -173 Q 347 -196 338.5 -217.5 Q 330 -239 316.5 -257.5 Q 303 -276 285.5 -291 Q 268 -306 250 -320 Q 232 -306 214.5 -291 Q 197 -276 183.5 -257.5 Q 170 -239 161.5 -217.5 Q 153 -196 153 -173 Q 153 -154 159.5 -135.5 Q 166 -117 180 -104 Q 194 -91 212.5 -85.5 Q 231 -80 250 -80 Z " id="path9"/>
<path d="M 262 0 L 153 0 L 260 -218 Q 268 -235 277 -251.5 Q 286 -268 295 -284 Q 283 -281 271 -280 Q 259 -279 247 -279 Q 219 -279 190.5 -286 Q 162 -293 138.5 -309 Q 115 -325 97.5 -348.5 Q 80 -372 70 -398.5 Q 60 -425 56 -453.5 Q 52 -482 52 -511 Q 52 -540 56 -568.5 Q 60 -597 70.5 -624 Q 81 -651 98.5 -674.5 Q 116 -698 140 -714 Q 164 -730 192.5 -736.5 Q 221 -743 250 -743 Q 281 -743 311 -734.5 Q 341 -726 365 -707 Q 389 -688 405.5 -661.5 Q 422 -635 431.5 -606 Q 441 -577 444.5 -546 Q 448 -515 448 -485 Q 448 -444 440 -404 Q 432 -364 418 -326 Q 404 -288 386 -251.5 Q 368 -215 350 -179 Z M 249 -367 Q 266 -367 281.5 -372.5 Q 297 -378 308.5 -389.5 Q 320 -401 328 -415.5 Q 336 -430 340 -446 Q 344 -462 345.5 -478.5 Q 347 -495 347 -511 Q 347 -527 345.5 -543.5 Q 344 -560 340 -575.5 Q 336 -591 328.5 -606 Q 321 -621 309.5 -632.5 Q 298 -644 282 -649.5 Q 266 -655 250 -655 Q 234 -655 218 -649.5 Q 202 -644 190.5 -632.5 Q 179 -621 171.5 -606 Q 164 -591 160 -575.5 Q 156 -560 154.5 -543.5 Q 153 -527 153 -511 Q 153 -495 154.5 -478.5 Q 156 -462 160 -446.5 Q 164 -431 171.5 -416 Q 179 -401 190.5 -389.5 Q 202 -378 217.5 -372.5 Q 233 -367 249 -367 Z " id="path10"/>
<path d="M 39 0 L 192 -735 L 308 -735 L 461 0 L 358 0 L 326 -172 L 174 -172 L 142 0 Z M 309 -260 L 265 -490 Q 262 -511 258 -531.5 Q 254 -552 250 -572 Q 246 -552 242 -531.5 Q 238 -511 235 -490 L 191 -260 Z " id="path11"/>
<path d="M 60 0 L 60 -735 L 234 -735 Q 261 -735 287 -730.5 Q 313 -726 336 -714 Q 359 -702 377.5 -682.5 Q 396 -663 408 -639.5 Q 420 -616 424.5 -590 Q 429 -564 429 -538 Q 429 -515 425 -492 Q 421 -469 410.5 -448.5 Q 400 -428 383.5 -411 Q 367 -394 347 -383 Q 372 -373 393.5 -355.5 Q 415 -338 429.5 -314.5 Q 444 -291 450 -264 Q 456 -237 456 -210 Q 456 -181 450 -152.5 Q 444 -124 430 -98.5 Q 416 -73 394.5 -53.5 Q 373 -34 347 -21.5 Q 321 -9 292 -4.5 Q 263 -0 234 0 Z M 161 -424 L 234 -424 Q 255 -424 274.5 -432.5 Q 294 -441 306.5 -457.5 Q 319 -474 324 -494.5 Q 329 -515 329 -536 Q 329 -557 324 -577.5 Q 319 -598 306.5 -614.5 Q 294 -631 274.5 -639 Q 255 -647 234 -647 L 161 -647 Z M 161 -88 L 234 -88 Q 251 -88 267 -91 Q 283 -94 297.5 -101.5 Q 312 -109 323.5 -121 Q 335 -133 342.5 -148 Q 350 -163 352.5 -179 Q 355 -195 355 -212 Q 355 -228 352.5 -244.5 Q 350 -261 343 -276 Q 336 -291 324.5 -303 Q 313 -315 298 -322.5 Q 283 -330 267 -333 Q 251 -336 234 -336 L 161 -336 Z " id="path12"/>
<path d="M 247 8 Q 220 8 193.5 2.5 Q 167 -3 143.5 -16 Q 120 -29 101.5 -49.5 Q 83 -70 72 -94.5 Q 61 -119 56.5 -146 Q 52 -173 52 -200 L 52 -535 Q 52 -562 56.5 -589 Q 61 -616 72 -640.5 Q 83 -665 101.5 -685.5 Q 120 -706 143.5 -719 Q 167 -732 193.5 -737.5 Q 220 -743 247 -743 Q 273 -743 298 -738.5 Q 323 -734 346 -723 Q 369 -712 387.5 -694 Q 406 -676 418 -653.5 Q 430 -631 436 -606 Q 442 -581 442 -556 L 442 -554 L 341 -554 L 341 -555 Q 341 -575 335.5 -593.5 Q 330 -612 317 -627 Q 304 -642 285.5 -648.5 Q 267 -655 247 -655 Q 226 -655 206 -645.5 Q 186 -636 173.5 -618 Q 161 -600 157 -578.5 Q 153 -557 153 -535 L 153 -200 Q 153 -178 157 -156.5 Q 161 -135 173.5 -117 Q 186 -99 206 -89.5 Q 226 -80 247 -80 Q 267 -80 285.5 -86.5 Q 304 -93 317 -108 Q 330 -123 335.5 -141.5 Q 341 -160 341 -180 L 341 -181 L 442 -181 L 442 -179 Q 442 -154 436 -129 Q 430 -104 418 -81.5 Q 406 -59 387.5 -41 Q 369 -23 346 -12 Q 323 -1 298 3.5 Q 273 8 247 8 Z " id="path13"/>
<path d="M 60 0 L 60 -735 L 219 -735 Q 249 -735 279 -730 Q 309 -725 336.5 -712 Q 364 -699 386 -678.5 Q 408 -658 422 -631.5 Q 436 -605 442 -575 Q 448 -545 448 -515 L 448 -220 Q 448 -190 442 -160 Q 436 -130 422 -103.5 Q 408 -77 386 -56.5 Q 364 -36 336.5 -23 Q 309 -10 279 -5 Q 249 -0 219 0 Z M 161 -88 L 219 -88 Q 237 -88 254 -91 Q 271 -94 286.5 -102.5 Q 302 -111 314 -124 Q 326 -137 333.5 -152.5 Q 341 -168 344 -185.5 Q 347 -203 347 -220 L 347 -515 Q 347 -532 344 -549.5 Q 341 -567 333.5 -582.5 Q 326 -598 314 -611 Q 302 -624 286.5 -632.5 Q 271 -641 254 -644 Q 237 -647 219 -647 L 161 -647 Z " id="path14"/>
<path d="M 68 0 L 68 -735 L 440 -735 L 440 -647 L 169 -647 L 169 -426 L 383 -426 L 383 -338 L 169 -338 L 169 -88 L 440 -88 L 440 0 Z " id="path15"/>
<path d="M 91 0 L 91 -735 L 440 -735 L 440 -647 L 191 -647 L 191 -426 L 383 -426 L 383 -338 L 191 -338 L 191 0 Z " id="path16"/>
<path d="M 250 8 Q 223 8 196.5 2.5 Q 170 -3 147 -16.5 Q 124 -30 106.5 -50.5 Q 89 -71 78.5 -95.5 Q 68 -120 64 -146.5 Q 60 -173 60 -200 L 60 -735 L 161 -735 L 161 -200 Q 161 -186 162.5 -172 Q 164 -158 168 -144.5 Q 172 -131 179.5 -118.5 Q 187 -106 197.5 -97 Q 208 -88 222 -84 Q 236 -80 250 -80 Q 264 -80 278 -84 Q 292 -88 302.5 -97 Q 313 -106 320.5 -118.5 Q 328 -131 332 -144.5 Q 336 -158 337.5 -172 Q 339 -186 339 -200 L 339 -735 L 440 -735 L 440 -200 Q 440 -173 436 -146.5 Q 432 -120 421.5 -95.5 Q 411 -71 393.5 -50.5 Q 376 -30 353 -16.5 Q 330 -3 303.5 2.5 Q 277 8 250 8 Z " id="path17"/>
<path d="M 300 -143 L 200 -143 L 200 -296 L 60 -296 L 60 -384 L 200 -384 L 200 -537 L 300 -537 L 300 -384 L 440 -384 L 440 -296 L 300 -296 Z " id="path18"/>
<path d="M 109 -323 L 109 -838 L 186 -838 L 186 -628 Q 192 -642 201 -654.5 Q 210 -667 223 -676 Q 236 -685 251 -689 Q 266 -693 282 -693 Q 299 -693 315.5 -688 Q 332 -683 345.5 -672 Q 359 -661 368 -646 Q 377 -631 382.5 -614.5 Q 388 -598 389.5 -581 Q 391 -564 391 -547 L 391 -323 L 314 -323 L 314 -547 Q 314 -561 311 -575 Q 308 -589 299.5 -600.5 Q 291 -612 277.5 -617.5 Q 264 -623 250 -623 Q 236 -623 222.5 -617.5 Q 209 -612 200.5 -600.5 Q 192 -589 189 -575 Q 186 -561 186 -547 L 186 -323 Z " id="path19"/>
<path d="M 109 -323 L 109 -717 Q 109 -734 112 -751 Q 115 -768 122.5 -783 Q 130 -798 142.5 -810 Q 155 -822 170 -829.5 Q 185 -837 202 -840 Q 219 -843 236 -843 L 249 -843 L 249 -774 L 236 -774 Q 225 -774 215 -770 Q 205 -766 198 -758 Q 191 -750 188.5 -739 Q 186 -728 186 -717 L 186 -628 Q 192 -642 201 -654.5 Q 210 -667 223 -676 Q 236 -685 251 -689 Q 266 -693 282 -693 Q 299 -693 315.5 -688 Q 332 -683 345.5 -672 Q 359 -661 368 -646 Q 377 -631 382.5 -614.5 Q 388 -598 389.5 -581 Q 391 -564 391 -547 L 391 -323 L 314 -323 L 314 -547 Q 314 -561 311 -575 Q 308 -589 299.5 -600.5 Q 291 -612 277.5 -617.5 Q 264 -623 250 -623 Q 236 -623 222.5 -617.5 Q 209 -612 200.5 -600.5 Q 192 -589 189 -575 Q 186 -561 186 -547 L 186 -323 Z " id="path20"/>
<path d="M 294 -730 Q 282 -730 269.5 -734 Q 257 -738 248.5 -746.5 Q 240 -755 236 -767.5 Q 232 -780 232 -792 Q 232 -804 236 -816.5 Q 240 -829 248.5 -837.5 Q 257 -846 269.5 -850 Q 282 -854 294 -854 Q 307 -854 319 -850 Q 331 -846 340 -837.5 Q 349 -829 352.5 -816.5 Q 356 -804 356 -792 Q 356 -780 352.5 -767.5 Q 349 -755 340 -746.5 Q 331 -738 319 -734 Q 307 -730 294 -730 Z M 204 -167 Q 180 -167 155.5 -174.5 Q 131 -182 113.5 -199.5 Q 96 -217 87 -241 Q 78 -265 78 -290 L 155 -290 Q 155 -279 158 -269 Q 161 -259 167.5 -251.5 Q 174 -244 184 -240 Q 194 -236 204 -236 Q 217 -236 228 -242.5 Q 239 -249 245 -260 Q 251 -271 253.5 -283.5 Q 256 -296 256 -309 L 256 -618 L 172 -618 L 172 -687 L 333 -687 L 333 -309 Q 333 -291 330 -273 Q 327 -255 320 -238 Q 313 -221 301.5 -207 Q 290 -193 274 -183.5 Q 258 -174 240 -170.5 Q 222 -167 204 -167 Z " id="path21"/>
<path d="M 151 -323 L 151 -687 L 228 -687 L 228 -617 Q 233 -632 240.5 -646 Q 248 -660 259 -670.5 Q 270 -681 285 -687 Q 300 -693 316 -693 Q 330 -693 343.5 -689 Q 357 -685 367.5 -676 Q 378 -667 385 -655 Q 392 -643 395.5 -630 Q 399 -617 400.5 -603 Q 402 -589 402 -575 L 325 -575 Q 325 -584 323.5 -592.5 Q 322 -601 317.5 -608.5 Q 313 -616 305 -619.5 Q 297 -623 288 -623 Q 277 -623 266.5 -618 Q 256 -613 249 -603.5 Q 242 -594 238 -583.5 Q 234 -573 231.5 -561.5 Q 229 -550 228.5 -538.5 Q 228 -527 228 -516 L 228 -323 Z " id="path22"/>
<path d="M 184 -317 Q 170 -317 156.5 -321 Q 143 -325 132.5 -334 Q 122 -343 115 -355 Q 108 -367 104.5 -380 Q 101 -393 99.5 -407 Q 98 -421 98 -435 L 175 -435 Q 175 -426 176.5 -417.5 Q 178 -409 182.5 -401.5 Q 187 -394 195 -390.5 Q 203 -387 212 -387 Q 223 -387 233.5 -392 Q 244 -397 251 -406.5 Q 258 -416 262 -426.5 Q 266 -437 268.5 -448.5 Q 271 -460 271.5 -471.5 Q 272 -483 272 -494 L 272 -687 L 349 -687 L 349 -323 L 272 -323 L 272 -393 Q 267 -378 259.5 -364 Q 252 -350 241 -339.5 Q 230 -329 215 -323 Q 200 -317 184 -317 Z " id="path23"/>
<path d="M 400 -167 Q 383 -167 366 -170 Q 349 -173 334 -180.5 Q 319 -188 306.5 -200 Q 294 -212 286.5 -227 Q 279 -242 275.5 -259 Q 272 -276 272 -293 L 272 -393 Q 267 -378 259.5 -364 Q 252 -350 241 -339.5 Q 230 -329 215 -323 Q 200 -317 184 -317 Q 170 -317 156.5 -321 Q 143 -325 132.5 -334 Q 122 -343 115 -355 Q 108 -367 104.5 -380 Q 101 -393 99.5 -407 Q 98 -421 98 -435 L 175 -435 Q 175 -426 176.5 -417.5 Q 178 -409 182.5 -401.5 Q 187 -394 195 -390.5 Q 203 -387 212 -387 Q 223 -387 233.5 -392 Q 244 -397 251 -406.5 Q 258 -416 262 -426.5 Q 266 -437 268.5 -448.5 Q 271 -460 271.5 -471.5 Q 272 -483 272 -494 L 272 -687 L 349 -687 L 349 -293 Q 349 -282 352 -271 Q 355 -260 362 -252 Q 369 -244 379 -240 Q 389 -236 400 -236 L 412 -236 L 412 -167 Z " id="path24"/>
<path d="M 109 -323 L 109 -687 L 186 -687 L 186 -561 L 235 -561 L 300 -659 L 319 -687 L 408 -687 L 320 -555 Q 338 -550 353.5 -539 Q 369 -528 379 -512.5 Q 389 -497 393 -478.5 Q 397 -460 397 -442 Q 397 -426 394 -410 Q 391 -394 383.5 -379.5 Q 376 -365 364 -353.5 Q 352 -342 337.5 -335 Q 323 -328 307 -325.5 Q 291 -323 275 -323 Z M 186 -392 L 275 -392 Q 284 -392 293.5 -395.5 Q 303 -399 309 -406 Q 315 -413 317.5 -422.5 Q 320 -432 320 -442 Q 320 -451 317.5 -460.5 Q 315 -470 309 -477.5 Q 303 -485 293.5 -488 Q 284 -491 275 -491 L 186 -491 Z " id="path25"/>
<path d="M 150 -323 L 89 -687 L 166 -687 L 186 -398 L 218 -585 L 282 -585 L 314 -398 L 334 -687 L 411 -687 L 350 -323 L 287 -323 L 250 -506 L 213 -323 Z " id="path26"/>
<path d="M 169 -173 Q 177 -198 184.5 -224 Q 192 -250 199 -275 L 211 -317 L 102 -687 L 181 -687 L 252 -415 L 319 -687 L 398 -687 L 249 -173 Z " id="path27"/>
<path d="M 161 -442 L 253 -772 L 347 -772 L 239 -442 Z " id="path28"/>
<path d="M 68 -442 L 160 -772 L 254 -772 L 146 -442 Z M 254 -442 L 346 -772 L 440 -772 L 332 -442 Z " id="path29"/>
<path d="M 250 -434 Q 234 -434 218.5 -439 Q 203 -444 192 -455.5 Q 181 -467 177 -482.5 Q 173 -498 173 -514 Q 173 -552 181.5 -589.5 Q 190 -627 205 -662.5 Q 220 -698 240.5 -730.5 Q 261 -763 285 -793 L 343 -748 Q 311 -713 285 -673 Q 259 -633 246 -588 L 251 -588 Q 266 -588 281 -583 Q 296 -578 307 -567.5 Q 318 -557 322.5 -541.5 Q 327 -526 327 -511 Q 327 -495 322.5 -480 Q 318 -465 307 -454 Q 296 -443 281 -438.5 Q 266 -434 250 -434 Z " id="path30"/>
<path d="M 215 -421 L 157 -466 Q 189 -501 215 -541 Q 241 -581 254 -626 L 249 -626 Q 234 -626 219 -630.5 Q 204 -635 193 -646 Q 182 -657 177.5 -672 Q 173 -687 173 -703 Q 173 -718 177.5 -733.5 Q 182 -749 193 -760 Q 204 -771 219 -775.5 Q 234 -780 250 -780 Q 266 -780 281.5 -775 Q 297 -770 308 -758.5 Q 319 -747 323 -731.5 Q 327 -716 327 -700 Q 327 -661 318.5 -623.5 Q 310 -586 295 -551 Q 280 -516 259.5 -483.5 Q 239 -451 215 -421 Z " id="path31"/>
<path d="M 285 -421 Q 261 -451 240.5 -483.5 Q 220 -516 205 -551 Q 190 -586 181.5 -623.5 Q 173 -661 173 -700 Q 173 -716 177 -731.5 Q 181 -747 192 -758.5 Q 203 -770 218.5 -775 Q 234 -780 250 -780 Q 266 -780 281 -775.5 Q 296 -771 307 -760 Q 318 -749 322.5 -733.5 Q 327 -718 327 -703 Q 327 -687 322.5 -672 Q 318 -657 307 -646 Q 296 -635 281 -630.5 Q 266 -626 251 -626 L 246 -626 Q 259 -581 285 -541 Q 311 -501 343 -466 Z " id="path32"/>
<path d="M 168 -434 L 168 -504 Q 188 -504 207 -511 Q 226 -518 239.5 -532.5 Q 253 -547 258 -567 Q 263 -587 263 -607 Q 263 -627 258 -646.5 Q 253 -666 239.5 -681 Q 226 -696 207 -703 Q 188 -710 168 -710 L 168 -780 Q 191 -780 214 -776 Q 237 -772 257.5 -761.5 Q 278 -751 295 -734.5 Q 312 -718 322 -697 Q 332 -676 336 -653 Q 340 -630 340 -607 Q 340 -584 336 -561 Q 332 -538 322 -517 Q 312 -496 295 -479.5 Q 278 -463 257.5 -452.5 Q 237 -442 214 -438 Q 191 -434 168 -434 Z " id="path33"/>
<path d="M 332 -434 Q 309 -434 286 -438 Q 263 -442 242.5 -452.5 Q 222 -463 205 -479.5 Q 188 -496 178 -517 Q 168 -538 164 -561 Q 160 -584 160 -607 Q 160 -630 164 -653 Q 168 -676 178 -697 Q 188 -718 205 -734.5 Q 222 -751 242.5 -761.5 Q 263 -772 286 -776 Q 309 -780 332 -780 L 332 -710 Q 312 -710 293 -703 Q 274 -696 260.5 -681 Q 247 -666 242 -646.5 Q 237 -627 237 -607 Q 237 -587 242 -567 Q 247 -547 260.5 -532.5 Q 274 -518 293 -511 Q 312 -504 332 -504 Z " id="path34"/>
<path d="M 212 -323 L 212 -378 Q 212 -392 213 -407 Q 214 -422 218 -435.5 Q 222 -449 229.5 -462 Q 237 -475 247 -486 Q 257 -497 267.5 -507 Q 278 -517 288.5 -527.5 Q 299 -538 307 -550.5 Q 315 -563 315 -578 Q 315 -589 308.5 -599 Q 302 -609 292.5 -614.5 Q 283 -620 271.5 -621.5 Q 260 -623 249 -623 Q 237 -623 225 -620.5 Q 213 -618 203.5 -610.5 Q 194 -603 189 -591.5 Q 184 -580 184 -568 L 184 -565 L 107 -565 L 107 -571 Q 107 -598 118 -622.5 Q 129 -647 150 -663.5 Q 171 -680 197 -686.5 Q 223 -693 249 -693 Q 275 -693 300.5 -687.5 Q 326 -682 347 -667 Q 368 -652 380 -628 Q 392 -604 392 -579 Q 392 -564 388 -550 Q 384 -536 377 -523 Q 370 -510 361 -498.5 Q 352 -487 341.5 -476.5 Q 331 -466 320 -456.5 Q 309 -447 301 -434.5 Q 293 -422 290.5 -407 Q 288 -392 288 -378 L 288 -323 Z " id="path35"/>
<path d="M 212 -323 L 212 -378 Q 212 -392 209.5 -407 Q 207 -422 199 -434.5 Q 191 -447 180 -456.5 Q 169 -466 158.5 -476.5 Q 148 -487 139 -498.5 Q 130 -510 123 -523 Q 116 -536 112 -550 Q 108 -564 108 -579 Q 108 -604 120 -628 Q 132 -652 153 -667 Q 174 -682 199.5 -687.5 Q 225 -693 251 -693 Q 277 -693 303 -686.5 Q 329 -680 350 -663.5 Q 371 -647 382 -622.5 Q 393 -598 393 -571 L 393 -565 L 316 -565 L 316 -568 Q 316 -580 311 -591.5 Q 306 -603 296.5 -610.5 Q 287 -618 275 -620.5 Q 263 -623 251 -623 Q 240 -623 228.5 -621.5 Q 217 -620 207.5 -614.5 Q 198 -609 191.5 -599 Q 185 -589 185 -578 Q 185 -563 193 -550.5 Q 201 -538 211.5 -527.5 Q 222 -517 232.5 -507 Q 243 -497 253 -486 Q 263 -475 270.5 -462 Q 278 -449 282 -435.5 Q 286 -422 287 -407 Q 288 -392 288 -378 L 288 -323 Z " id="path36"/>
<path d="M 339 -571 L 150 -644 L 150 -696 L 258 -738 L 339 -769 L 361 -711 L 232 -670 L 361 -629 Z " id="path37"/>
<path d="M 161 -571 L 139 -629 L 268 -670 L 139 -711 L 161 -769 L 350 -696 L 350 -644 Z " id="path38"/>
<path d="M 323 -582 L 250 -684 L 177 -582 L 123 -618 L 210 -740 L 290 -740 L 377 -618 Z " id="path39"/>
<path d="M 210 -600 L 123 -722 L 177 -758 L 250 -656 L 323 -758 L 377 -722 L 290 -600 Z " id="path40"/>
<path d="M 153 -592 L 110 -622 L 201 -761 L 299 -761 L 390 -622 L 347 -592 L 250 -705 Z " id="path41"/>
<path d="M 201 -600 L 110 -740 L 153 -769 L 250 -657 L 347 -769 L 390 -740 L 299 -600 Z " id="path42"/>
<path d="M 213 -442 Q 210 -524 208.5 -606.5 Q 207 -689 207 -772 L 293 -772 Q 293 -689 291.5 -606.5 Q 290 -524 287 -442 Z " id="path43"/>
<path d="M 100 -636 L 100 -704 L 400 -704 L 400 -636 Z " id="path44"/>
<path d="M 238 -580 L 188 -620 L 307 -765 L 368 -715 Z " id="path45"/>
<path d="M 262 -580 L 132 -715 L 193 -765 L 312 -620 Z " id="path46"/>
<path d="M 207 252 Q 207 169 208.5 86.5 Q 210 4 213 -78 L 287 -78 Q 290 4 291.5 86.5 Q 293 169 293 252 Z " id="path47"/>
<path d="M 100 184 L 100 116 L 400 116 L 400 184 Z " id="path48"/>
<path d="M 307 245 L 188 100 L 238 60 L 368 195 Z " id="path49"/>
<path d="M 193 245 L 132 195 L 262 60 L 312 100 Z " id="path50"/>
<path d="M 250 -328 L 156 -520 L 345 -520 Z M 156 0 L 250 -193 L 345 0 Z " id="path51"/>
<path d="M 250 -328 L 156 -520 L 345 -520 Z " id="path52"/>
<path d="M 215 -173 L 215 -228 Q 223 -228 231 -231 Q 239 -234 244.5 -240 Q 250 -246 252 -254 Q 254 -262 254 -270 Q 254 -279 252 -287 Q 250 -295 244.5 -301 Q 239 -307 231 -310 Q 223 -313 215 -313 L 215 -368 Q 235 -368 254.5 -362.5 Q 274 -357 288.5 -343 Q 303 -329 309.5 -309.5 Q 316 -290 316 -270 Q 316 -250 309.5 -231 Q 303 -212 288.5 -198 Q 274 -184 254.5 -178.5 Q 235 -173 215 -173 Z " id="path53"/>
<path d="M 285 -173 Q 265 -173 245.5 -178.5 Q 226 -184 211.5 -198 Q 197 -212 190.5 -231 Q 184 -250 184 -270 Q 184 -290 190.5 -309.5 Q 197 -329 211.5 -343 Q 226 -357 245.5 -362.5 Q 265 -368 285 -368 L 285 -313 Q 277 -313 269 -310 Q 261 -307 255.5 -301 Q 250 -295 248 -287 Q 246 -279 246 -270 Q 246 -262 248 -254 Q 250 -246 255.5 -240 Q 261 -234 269 -231 Q 277 -228 285 -228 Z " id="path54"/>
<path d="M 150 -170 L 150 -231 L 216 -231 L 216 -370 L 284 -370 L 284 -231 L 350 -231 L 350 -170 Z " id="path55"/>
<path d="M 216 -170 L 216 -310 L 150 -310 L 150 -370 L 350 -370 L 350 -310 L 284 -310 L 284 -170 Z " id="path56"/>
<path d="M 216 -170 L 216 -240 L 150 -240 L 150 -301 L 216 -301 L 216 -370 L 284 -370 L 284 -301 L 350 -301 L 350 -240 L 284 -240 L 284 -170 Z " id="path57"/>
<path d="M 150 -240 L 150 -301 L 350 -301 L 350 -240 Z " id="path58"/>
<path d="M 250 -600 Q 220 -600 190.5 -607.5 Q 161 -615 138 -634 Q 115 -653 104 -681.5 Q 93 -710 93 -740 L 167 -740 Q 167 -724 173 -709 Q 179 -694 191 -684.5 Q 203 -675 218.5 -671 Q 234 -667 250 -667 Q 266 -667 281.5 -671 Q 297 -675 309 -684.5 Q 321 -694 327 -709 Q 333 -724 333 -740 L 407 -740 Q 407 -710 396 -681.5 Q 385 -653 362 -634 Q 339 -615 309.5 -607.5 Q 280 -600 250 -600 Z " id="path59"/>
<path d="M 250 -608 Q 237 -608 225 -611.5 Q 213 -615 204 -624 Q 195 -633 191.5 -645 Q 188 -657 188 -670 Q 188 -683 191.5 -695 Q 195 -707 204 -716 Q 213 -725 225 -729 Q 237 -733 250 -733 Q 263 -733 275 -729 Q 287 -725 296 -716 Q 305 -707 309 -695 Q 313 -683 313 -670 Q 313 -657 309 -645 Q 305 -633 296 -624 Q 287 -615 275 -611.5 Q 263 -608 250 -608 Z " id="path60"/>
<path d="M 250 -576 Q 231 -576 212.5 -581.5 Q 194 -587 180.5 -600.5 Q 167 -614 161.5 -632.5 Q 156 -651 156 -670 Q 156 -689 161.5 -707.5 Q 167 -726 180.5 -739.5 Q 194 -753 212.5 -758.5 Q 231 -764 250 -764 Q 269 -764 287.5 -758.5 Q 306 -753 319.5 -739.5 Q 333 -726 338.5 -707.5 Q 344 -689 344 -670 Q 344 -651 338.5 -632.5 Q 333 -614 319.5 -600.5 Q 306 -587 287.5 -581.5 Q 269 -576 250 -576 Z M 250 -631 Q 258 -631 265.5 -633.5 Q 273 -636 278.5 -641.5 Q 284 -647 286.5 -654.5 Q 289 -662 289 -670 Q 289 -678 286.5 -685.5 Q 284 -693 278.5 -698.5 Q 273 -704 265.5 -706.5 Q 258 -709 250 -709 Q 242 -709 234.5 -706.5 Q 227 -704 221.5 -698.5 Q 216 -693 213.5 -685.5 Q 211 -678 211 -670 Q 211 -662 213.5 -654.5 Q 216 -647 221.5 -641.5 Q 227 -636 234.5 -633.5 Q 242 -631 250 -631 Z " id="path61"/>
<path d="M 277 223 Q 255 223 234 218.5 Q 213 214 195.5 201.5 Q 178 189 168 169.5 Q 158 150 158 129 Q 158 108 166.5 87.5 Q 175 67 188 49.5 Q 201 32 217 17.5 Q 233 3 252 -8 L 300 -8 L 300 0 Q 286 9 274.5 21.5 Q 263 34 254.5 48.5 Q 246 63 239.5 78.5 Q 233 94 233 111 Q 233 121 237.5 130.5 Q 242 140 250 145.5 Q 258 151 268.5 153.5 Q 279 156 289 156 Q 297 156 305.5 154.5 Q 314 153 322 152 L 322 219 Q 311 221 299.5 222 Q 288 223 277 223 Z " id="path62"/>
<path d="M 308 -597 Q 303 -597 298 -598 Q 293 -599 288.5 -600 Q 284 -601 279.5 -603 Q 275 -605 270.5 -607.5 Q 266 -610 262 -612.5 Q 258 -615 254.5 -618 Q 251 -621 247.5 -625 Q 244 -629 240.5 -632.5 Q 237 -636 234 -639.5 Q 231 -643 228 -647 Q 225 -651 222.5 -654.5 Q 220 -658 216.5 -662.5 Q 213 -667 209.5 -671 Q 206 -675 203 -678.5 Q 200 -682 195.5 -685 Q 191 -688 191 -690 L 193 -690 L 190 -688 Q 187 -686 184.5 -683 Q 182 -680 179.5 -677.5 Q 177 -675 176 -673.5 Q 175 -672 173.5 -670 Q 172 -668 170.5 -665.5 Q 169 -663 167.5 -661 Q 166 -659 164 -656 Q 162 -653 160.5 -650.5 Q 159 -648 157 -645 Q 155 -642 153.5 -638.5 Q 152 -635 150 -631.5 Q 148 -628 146 -624.5 Q 144 -621 142 -617 Q 140 -613 138 -609 Q 136 -605 134 -601 L 66 -630 Q 75 -648 83.5 -663 Q 92 -678 100 -690.5 Q 108 -703 116 -713.5 Q 124 -724 136 -734.5 Q 148 -745 162 -751.5 Q 176 -758 192 -758 Q 197 -758 202 -757 Q 207 -756 211.5 -755 Q 216 -754 220.5 -752 Q 225 -750 229.5 -747.5 Q 234 -745 238 -742.5 Q 242 -740 245.5 -737 Q 249 -734 252.5 -730.5 Q 256 -727 259.5 -723 Q 263 -719 266 -715.5 Q 269 -712 272 -708 Q 275 -704 277.5 -700.5 Q 280 -697 283.5 -692.5 Q 287 -688 290.5 -684 Q 294 -680 297 -676.5 Q 300 -673 304.5 -670 Q 309 -667 309 -665 L 307 -665 L 310 -667 Q 313 -669 315.5 -672 Q 318 -675 320.5 -677.5 Q 323 -680 324 -682 Q 325 -684 326.5 -686 Q 328 -688 329.5 -690 Q 331 -692 332.5 -694.5 Q 334 -697 336 -699.5 Q 338 -702 339.5 -704.5 Q 341 -707 343 -710 Q 345 -713 346.5 -716.5 Q 348 -720 350 -723.5 Q 352 -727 354 -730.5 Q 356 -734 358 -738 Q 360 -742 362 -746 Q 364 -750 366 -755 L 434 -725 Q 425 -707 416.5 -692 Q 408 -677 400 -664.5 Q 392 -652 384 -641.5 Q 376 -631 364 -620.5 Q 352 -610 338 -603.5 Q 324 -597 308 -597 Z " id="path63"/>
<path d="M 322 -579 L 274 -621 L 406 -766 L 464 -714 Z M 152 -579 L 104 -621 L 236 -766 L 294 -714 Z " id="path64"/>
<path d="M 325 -69 Q 301 -69 278.5 -75 Q 256 -81 237.5 -94.5 Q 219 -108 206 -127.5 Q 193 -147 185.5 -169 Q 178 -191 175 -214 Q 172 -237 172 -260 L 172 -334 L -80 -198 L -117 -260 L 172 -416 L 250 -416 L 250 -260 Q 250 -247 251 -233.5 Q 252 -220 255 -207 Q 258 -194 263.5 -182 Q 269 -170 277.5 -160 Q 286 -150 298.5 -144.5 Q 311 -139 325 -139 Q 339 -139 352.5 -145 Q 366 -151 375 -162.5 Q 384 -174 388 -188.5 Q 392 -203 393 -217 L 471 -217 Q 469 -188 459 -160 Q 449 -132 429.5 -110.5 Q 410 -89 382 -79 Q 354 -69 325 -69 Z " id="path65"/>
<path d="M 169 -575 L 131 -625 L 195 -670 L 131 -715 L 169 -765 L 250 -708 L 331 -765 L 369 -715 L 305 -670 L 369 -625 L 331 -575 L 250 -632 Z " id="path66"/>
<path d="M 250 -173 Q 236 -173 222 -176.5 Q 208 -180 198 -190 Q 188 -200 184 -214 Q 180 -228 180 -242 Q 180 -266 183.5 -290.5 Q 187 -315 192.5 -338.5 Q 198 -362 205 -385.5 Q 212 -409 219 -433 Q 195 -498 165 -561.5 Q 135 -625 103 -687 L 180 -687 Q 199 -645 216.5 -603.5 Q 234 -562 250 -519 Q 266 -562 283.5 -603.5 Q 301 -645 320 -687 L 397 -687 Q 365 -625 335 -561.5 Q 305 -498 281 -433 Q 288 -409 295 -385.5 Q 302 -362 307.5 -338.5 Q 313 -315 316.5 -290.5 Q 320 -266 320 -242 Q 320 -228 316 -214 Q 312 -200 302 -190 Q 292 -180 278 -176.5 Q 264 -173 250 -173 Z M 250 -222 Q 257 -222 261 -228.5 Q 265 -235 265 -242 L 265 -249 Q 264 -272 260 -294 Q 256 -316 250 -338 Q 244 -316 240 -294 Q 236 -272 235 -249 L 235 -242 Q 235 -235 239 -228.5 Q 243 -222 250 -222 Z " id="path67"/>
<path d="M 128 -323 L 128 -392 L 216 -392 L 216 -768 L 137 -768 L 137 -838 L 293 -838 L 293 -392 L 373 -392 L 373 -323 Z " id="path68"/>
<path d="M 249 -317 Q 224 -317 198.5 -322.5 Q 173 -328 152.5 -342.5 Q 132 -357 119.5 -380 Q 107 -403 107 -428 L 107 -430 L 184 -430 L 184 -429 Q 184 -419 190.5 -409.5 Q 197 -400 207 -395 Q 217 -390 227.5 -388.5 Q 238 -387 249 -387 Q 259 -387 269.5 -388 Q 280 -389 289.5 -392.5 Q 299 -396 307 -403.5 Q 315 -411 315 -421 Q 315 -433 306 -442.5 Q 297 -452 286.5 -456.5 Q 276 -461 264 -463 Q 252 -465 240.5 -467.5 Q 229 -470 217.5 -473.5 Q 206 -477 195 -481.5 Q 184 -486 173.5 -492 Q 163 -498 154 -506 Q 145 -514 137.5 -523.5 Q 130 -533 125 -543.5 Q 120 -554 117 -566 Q 114 -578 114 -589 Q 114 -614 126 -635.5 Q 138 -657 158.5 -670 Q 179 -683 203 -688 Q 227 -693 251 -693 Q 275 -693 299.5 -687.5 Q 324 -682 344 -667.5 Q 364 -653 375.5 -630.5 Q 387 -608 387 -583 L 387 -582 L 310 -582 Q 310 -592 304.5 -601 Q 299 -610 290 -615 Q 281 -620 271 -621.5 Q 261 -623 251 -623 Q 241 -623 231.5 -622 Q 222 -621 213 -617.5 Q 204 -614 197.5 -606.5 Q 191 -599 191 -589 Q 191 -577 199.5 -567.5 Q 208 -558 219 -553.5 Q 230 -549 241.5 -547 Q 253 -545 265 -542.5 Q 277 -540 288.5 -536.5 Q 300 -533 311 -528.5 Q 322 -524 332 -518 Q 342 -512 351 -504 Q 360 -496 367.5 -486.5 Q 375 -477 380.5 -466.5 Q 386 -456 389 -444.5 Q 392 -433 392 -421 Q 392 -396 378.5 -374 Q 365 -352 344 -339 Q 323 -326 298.5 -321.5 Q 274 -317 249 -317 Z " id="path69"/>
<path d="M 98 -323 L 208 -505 L 98 -687 L 188 -687 L 250 -578 L 312 -687 L 402 -687 L 292 -505 L 402 -323 L 312 -323 L 250 -432 L 188 -323 Z " id="path70"/>
<path d="M 212 -323 L 212 -432 Q 212 -450 209.5 -468 Q 207 -486 199 -502.5 Q 191 -519 180 -533.5 Q 169 -548 158 -562.5 Q 147 -577 138 -592.5 Q 129 -608 122.5 -625 Q 116 -642 112 -659.5 Q 108 -677 108 -696 Q 108 -725 117.5 -753 Q 127 -781 146.5 -802.5 Q 166 -824 194 -833.5 Q 222 -843 251 -843 Q 279 -843 306.5 -834.5 Q 334 -826 353.5 -806.5 Q 373 -787 383 -760 Q 393 -733 393 -705 L 316 -705 Q 316 -718 312 -731 Q 308 -744 299 -754 Q 290 -764 277.5 -769 Q 265 -774 251 -774 Q 237 -774 223 -767.5 Q 209 -761 201 -749.5 Q 193 -738 189 -723.5 Q 185 -709 185 -694 Q 185 -670 195 -647.5 Q 205 -625 218.5 -605.5 Q 232 -586 247 -567 Q 262 -548 272 -526 Q 282 -504 285 -480 Q 288 -456 288 -432 L 288 -323 Z " id="path71"/>
<path d="M 321 0 L 321 -665 L 101 -665 L 101 -735 L 399 -735 L 399 0 Z " id="path72"/>
<path d="M 321 0 L 321 -499 L 101 -499 L 101 -569 L 321 -569 L 321 -735 L 399 -735 L 399 0 Z " id="path73"/>
<path d="M 321 0 L 321 -333 L 101 -333 L 101 -403 L 321 -403 L 321 -735 L 399 -735 L 399 0 Z " id="path74"/>
<path d="M 321 0 L 321 -166 L 101 -166 L 101 -236 L 321 -236 L 321 -735 L 399 -735 L 399 0 Z " id="path75"/>
<path d="M 101 0 L 101 -70 L 321 -70 L 321 -735 L 399 -735 L 399 0 Z " id="path76"/>
<path d="M 101 0 L 101 -368 L 179 -368 L 179 -70 L 399 -70 L 399 0 Z " id="path77"/>
<path d="M 101 0 L 101 -368 L 179 -368 L 179 -219 L 399 -219 L 399 -149 L 179 -149 L 179 0 Z " id="path78"/>
<path d="M 201 241 L 110 102 L 153 72 L 250 185 L 347 72 L 390 102 L 299 241 Z " id="path79"/>
<path d="M 0 -693 L 0 -740 L 500 -740 L 500 -693 Z M 0 -600 L 0 -647 L 500 -647 L 500 -600 Z " id="path80"/>
<path d="M 103 -421 L 45 -466 Q 77 -501 103 -541 Q 129 -581 142 -626 L 137 -626 Q 122 -626 107 -630.5 Q 92 -635 81 -646 Q 70 -657 65.5 -672 Q 61 -687 61 -703 Q 61 -718 65.5 -733.5 Q 70 -749 81 -760 Q 92 -771 107 -775.5 Q 122 -780 138 -780 Q 154 -780 169.5 -775 Q 185 -770 196 -758.5 Q 207 -747 211 -731.5 Q 215 -716 215 -700 Q 215 -661 206.5 -623.5 Q 198 -586 183 -551 Q 168 -516 147.5 -483.5 Q 127 -451 103 -421 Z M 328 -421 L 270 -466 Q 302 -501 328 -541 Q 354 -581 367 -626 L 362 -626 Q 347 -626 332 -630.5 Q 317 -635 306 -646 Q 295 -657 290.5 -672 Q 286 -687 286 -703 Q 286 -718 290.5 -733.5 Q 295 -749 306 -760 Q 317 -771 332 -775.5 Q 347 -780 363 -780 Q 379 -780 394.5 -775 Q 410 -770 421 -758.5 Q 432 -747 436 -731.5 Q 440 -716 440 -700 Q 440 -661 431.5 -623.5 Q 423 -586 408 -551 Q 393 -516 372.5 -483.5 Q 352 -451 328 -421 Z " id="path81"/>
<path d="M 210 220 L 123 98 L 177 62 L 250 164 L 323 62 L 377 98 L 290 220 Z " id="path82"/>
<path d="M 177 238 L 123 202 L 210 80 L 290 80 L 377 202 L 323 238 L 250 136 Z " id="path83"/>
<path d="M 339 249 L 150 176 L 150 124 L 339 51 L 361 109 L 232 150 L 361 191 Z " id="path84"/>
<path d="M 161 249 L 139 191 L 268 150 L 139 109 L 161 51 L 350 124 L 350 176 Z " id="path85"/>
<path d="M 250 244 Q 231 244 212.5 238.5 Q 194 233 180.5 219.5 Q 167 206 161.5 187.5 Q 156 169 156 150 Q 156 131 161.5 112.5 Q 167 94 180.5 80.5 Q 194 67 212.5 61.5 Q 231 56 250 56 Q 269 56 287.5 61.5 Q 306 67 319.5 80.5 Q 333 94 338.5 112.5 Q 344 131 344 150 Q 344 169 338.5 187.5 Q 333 206 319.5 219.5 Q 306 233 287.5 238.5 Q 269 244 250 244 Z M 250 189 Q 258 189 265.5 186.5 Q 273 184 278.5 178.5 Q 284 173 286.5 165.5 Q 289 158 289 150 Q 289 142 286.5 134.5 Q 284 127 278.5 121.5 Q 273 116 265.5 113.5 Q 258 111 250 111 Q 242 111 234.5 113.5 Q 227 116 221.5 121.5 Q 216 127 213.5 134.5 Q 211 142 211 150 Q 211 158 213.5 165.5 Q 216 173 221.5 178.5 Q 227 184 234.5 186.5 Q 242 189 250 189 Z " id="path86"/>
<path d="M 262 -250 L 132 -385 L 193 -435 L 312 -290 Z " id="path87"/>
<path d="M 348 -249 L 206 -384 L 264 -436 L 396 -291 Z M 178 -249 L 36 -384 L 94 -436 L 226 -291 Z " id="path88"/>
<path d="M 322 -249 L 274 -291 L 406 -436 L 464 -384 Z M 152 -249 L 104 -291 L 236 -436 L 294 -384 Z " id="path89"/>
<path d="M 308 238 Q 303 238 298 237 Q 293 236 288.5 235 Q 284 234 279.5 232 Q 275 230 270.5 227.5 Q 266 225 262 222.5 Q 258 220 254.5 217 Q 251 214 247.5 210.5 Q 244 207 240.5 203 Q 237 199 234 195.5 Q 231 192 228 188 Q 225 184 222.5 180.5 Q 220 177 216.5 172.5 Q 213 168 209.5 164 Q 206 160 203 156.5 Q 200 153 195.5 150 Q 191 147 191 145 L 193 145 L 190 147 Q 187 149 184.5 152 Q 182 155 179.5 157.5 Q 177 160 176 162 Q 175 164 173.5 166 Q 172 168 170.5 170 Q 169 172 167.5 174.5 Q 166 177 164 179.5 Q 162 182 160.5 184.5 Q 159 187 157 190 Q 155 193 153.5 196.5 Q 152 200 150 203.5 Q 148 207 146 210.5 Q 144 214 142 218 Q 140 222 138 226 Q 136 230 134 235 L 66 205 Q 75 187 83.5 172 Q 92 157 100 144.5 Q 108 132 116 121.5 Q 124 111 136 100.5 Q 148 90 162 83.5 Q 176 77 192 77 Q 197 77 202 78 Q 207 79 211.5 80 Q 216 81 220.5 83 Q 225 85 229.5 87.5 Q 234 90 238 92.5 Q 242 95 245.5 98 Q 249 101 252.5 105 Q 256 109 259.5 112.5 Q 263 116 266 119.5 Q 269 123 272 127 Q 275 131 277.5 134.5 Q 280 138 283.5 142.5 Q 287 147 290.5 151 Q 294 155 297 158.5 Q 300 162 304.5 165 Q 309 168 309 170 L 307 170 L 310 168 Q 313 166 315.5 163 Q 318 160 320.5 157.5 Q 323 155 324 153.5 Q 325 152 326.5 150 Q 328 148 329.5 145.5 Q 331 143 332.5 141 Q 334 139 336 136 Q 338 133 339.5 130.5 Q 341 128 343 125 Q 345 122 346.5 118.5 Q 348 115 350 111.5 Q 352 108 354 104.5 Q 356 101 358 97 Q 360 93 362 89 Q 364 85 366 81 L 434 110 Q 425 128 416.5 143 Q 408 158 400 170.5 Q 392 183 384 193.5 Q 376 204 364 214.5 Q 352 225 338 231.5 Q 324 238 308 238 Z " id="path90"/>
<path d="M 250 -563 Q 236 -563 222 -567 Q 208 -571 198 -581 Q 188 -591 184 -605 Q 180 -619 180 -633 Q 180 -647 184 -661 Q 188 -675 198 -685 Q 208 -695 222 -699.5 Q 236 -704 250 -704 Q 264 -704 278 -699.5 Q 292 -695 302 -685 Q 312 -675 316.5 -661 Q 321 -647 321 -633 Q 321 -619 316.5 -605 Q 312 -591 302 -581 Q 292 -571 278 -567 Q 264 -563 250 -563 Z M 250 -247 Q 236 -247 222 -251 Q 208 -255 198 -265 Q 188 -275 184 -289 Q 180 -303 180 -317 Q 180 -331 184 -345 Q 188 -359 198 -369 Q 208 -379 222 -383.5 Q 236 -388 250 -388 Q 264 -388 278 -383.5 Q 292 -379 302 -369 Q 312 -359 316.5 -345 Q 321 -331 321 -317 Q 321 -303 316.5 -289 Q 312 -275 302 -265 Q 292 -255 278 -251 Q 264 -247 250 -247 Z " id="path91"/>
<path d="M 101 -441 L 101 -735 L 399 -735 L 399 -665 L 179 -665 L 179 -441 Z " id="path92"/>
<path d="M 321 -441 L 321 -665 L 101 -665 L 101 -735 L 399 -735 L 399 -441 Z " id="path93"/>
<path d="M 101 0 L 101 -294 L 179 -294 L 179 -70 L 399 -70 L 399 0 Z " id="path94"/>
<path d="M 101 0 L 101 -70 L 321 -70 L 321 -294 L 399 -294 L 399 0 Z " id="path95"/>
<path d="M 30 220 L 30 80 L 98 80 L 98 159 L 402 159 L 402 80 L 470 80 L 470 220 Z " id="path96"/>
<path d="M 30 220 L 30 80 L 98 80 L 98 159 L 436 159 L 436 220 Z " id="path97"/>
<path d="M 187 237 L 71 150 L 187 63 L 213 97 L 163 129 L 400 129 L 400 171 L 163 171 L 213 203 Z " id="path98"/>
</defs>
<g>
<g data-source-text="0" fill="#dee4e3" transform="translate(174 41.292) rotate(0) scale(0.023999998)">
<use href="#path1" transform="translate(0 0)"/>
</g>
</g>
<g>
<g data-source-text="1" fill="#dee4e3" transform="translate(246 41.292) rotate(0) scale(0.023999998)">
<use href="#path2" transform="translate(0 0)"/>
</g>
</g>
<g>
<g data-source-text="2" fill="#dee4e3" transform="translate(318 41.292) rotate(0) scale(0.023999998)">
<use href="#path3" transform="translate(0 0)"/>
</g>
</g>
<g>
<g data-source-text="3" fill="#dee4e3" transform="translate(390 41.292) rotate(0) scale(0.023999998)">
<use href="#path4" transform="translate(0 0)"/>
</g>
</g>
<g>
<g data-source-text="4" fill="#dee4e3" transform="translate(462 41.292) rotate(0) scale(0.023999998)">
<use href="#path5" transform="translate(0 0)"/>
</g>
</g>
<g>
<g data-source-text="5" fill="#dee4e3" transform="translate(534 41.292) rotate(0) scale(0.023999998)">
<use href="#path6" transform="translate(0 0)"/>
</g>
</g>
<g>
<g data-source-text="6" fill="#dee4e3" transform="translate(606 41.292) rotate(0) scale(0.023999998)">
<use href="#path7" transform="translate(0 0)"/>
</g>
</g>
<g>
<g data-source-text="7" fill="#dee4e3" transform="translate(678 41.292) rotate(0) scale(0.023999998)">
<use href="#path8" transform="translate(0 0)"/>
</g>
</g>
<g>
<g data-source-text="8" fill="#dee4e3" transform="translate(750 41.292) rotate(0) scale(0.023999998)">
<use href="#path9" transform="translate(0 0)"/>
</g>
</g>
<g>
<g data-source-text="9" fill="#dee4e3" transform="translate(822 41.292) rotate(0) scale(0.023999998)">
<use href="#path10" transform="translate(0 0)"/>
</g>
</g>
<g>
<g data-source-text="A" fill="#dee4e3" transform="translate(894 41.292) rotate(0) scale(0.023999998)">
<use href="#path11" transform="translate(0 0)"/>
</g>
</g>
<g>
<g data-source-text="B" fill="#dee4e3" transform="translate(966 41.292) rotate(0) scale(0.023999998)">
<use href="#path12" transform="translate(0 0)"/>
</g>
</g>
<g>
<g data-source-text="C" fill="#dee4e3" transform="translate(1038 41.292) rotate(0) scale(0.023999998)">
<use href="#path13" transform="translate(0 0)"/>
</g>
</g>
<g>
<g data-source-text="D" fill="#dee4e3" transform="translate(1110 41.292) rotate(0) scale(0.023999998)">
<use href="#path14" transform="translate(0 0)"/>
</g>
</g>
<g>
<g data-source-text="E" fill="#dee4e3" transform="translate(1182 41.292) rotate(0) scale(0.023999998)">
<use href="#path15" transform="translate(0 0)"/>
</g>
</g>
<g>
<g data-source-text="F" fill="#dee4e3" transform="translate(1254 41.292) rotate(0) scale(0.023999998)">
<use href="#path16" transform="translate(0 0)"/>
</g>
</g>
<g>
<g data-source-text="U+02B0" fill="#dee4e3" transform="translate(36 113.292) rotate(0) scale(0.023999998)">
<use href="#path17" transform="translate(0 0)"/>
<use href="#path18" transform="translate(500 0)"/>
<use href="#path1" transform="translate(1000 0)"/>
<use href="#path3" transform="translate(1500 0)"/>
<use href="#path12" transform="translate(2000 0)"/>
<use href="#path1" transform="translate(2500 0)"/>
</g>
</g>
<g>
<g data-source-text="ʰ" fill="#dee4e3" transform="translate(168 118.584) rotate(0) scale(0.047999997)">
<use href="#path19" transform="translate(0 0)"/>
</g>
</g>
<g>
<g data-source-text="ʱ" fill="#dee4e3" transform="translate(240 118.584) rotate(0) scale(0.047999997)">
<use href="#path20" transform="translate(0 0)"/>
</g>
</g>
<g>
<g data-source-text="ʲ" fill="#dee4e3" transform="translate(312 118.584) rotate(0) scale(0.047999997)">
<use href="#path21" transform="translate(0 0)"/>
</g>
</g>
<g>
<g data-source-text="ʳ" fill="#dee4e3" transform="translate(384 118.584) rotate(0) scale(0.047999997)">
<use href="#path22" transform="translate(0 0)"/>
</g>
</g>
<g>
<g data-source-text="ʴ" fill="#dee4e3" transform="translate(456 118.584) rotate(0) scale(0.047999997)">
<use href="#path23" transform="translate(0 0)"/>
</g>
</g>
<g>
<g data-source-text="ʵ" fill="#dee4e3" transform="translate(528 118.584) rotate(0) scale(0.047999997)">
<use href="#path24" transform="translate(0 0)"/>
</g>
</g>
<g>
<g data-source-text="ʶ" fill="#dee4e3" transform="translate(600 118.584) rotate(0) scale(0.047999997)">
<use href="#path25" transform="translate(0 0)"/>
</g>
</g>
<g>
<g data-source-text="ʷ" fill="#dee4e3" transform="translate(672 118.584) rotate(0) scale(0.047999997)">
<use href="#path26" transform="translate(0 0)"/>
</g>
</g>
<g>
<g data-source-text="ʸ" fill="#dee4e3" transform="translate(744 118.584) rotate(0) scale(0.047999997)">
<use href="#path27" transform="translate(0 0)"/>
</g>
</g>
<g>
<g data-source-text="ʹ" fill="#dee4e3" transform="translate(816 118.584) rotate(0) scale(0.047999997)">
<use href="#path28" transform="translate(0 0)"/>
</g>
</g>
<g>
<g data-source-text="ʺ" fill="#dee4e3" transform="translate(888 118.584) rotate(0) scale(0.047999997)">
<use href="#path29" transform="translate(0 0)"/>
</g>
</g>
<g>
<g data-source-text="ʻ" fill="#dee4e3" transform="translate(960 118.584) rotate(0) scale(0.047999997)">
<use href="#path30" transform="translate(0 0)"/>
</g>
</g>
<g>
<g data-source-text="ʼ" fill="#dee4e3" transform="translate(1032 118.584) rotate(0) scale(0.047999997)">
<use href="#path31" transform="translate(0 0)"/>
</g>
</g>
<g>
<g data-source-text="ʽ" fill="#dee4e3" transform="translate(1104 118.584) rotate(0) scale(0.047999997)">
<use href="#path32" transform="translate(0 0)"/>
</g>
</g>
<g>
<g data-source-text="ʾ" fill="#dee4e3" transform="translate(1176 118.584) rotate(0) scale(0.047999997)">
<use href="#path33" transform="translate(0 0)"/>
</g>
</g>
<g>
<g data-source-text="ʿ" fill="#dee4e3" transform="translate(1248 118.584) rotate(0) scale(0.047999997)">
<use href="#path34" transform="translate(0 0)"/>
</g>
</g>
<g>
<g data-source-text="U+02C0" fill="#dee4e3" transform="translate(36 185.292) rotate(0) scale(0.023999998)">
<use href="#path17" transform="translate(0 0)"/>
<use href="#path18" transform="translate(500 0)"/>
<use href="#path1" transform="translate(1000 0)"/>
<use href="#path3" transform="translate(1500 0)"/>
<use href="#path13" transform="translate(2000 0)"/>
<use href="#path1" transform="translate(2500 0)"/>
</g>
</g>
<g>
<g data-source-text="ˀ" fill="#dee4e3" transform="translate(168 190.584) rotate(0) scale(0.047999997)">
<use href="#path35" transform="translate(0 0)"/>
</g>
</g>
<g>
<g data-source-text="ˁ" fill="#dee4e3" transform="translate(240 190.584) rotate(0) scale(0.047999997)">
<use href="#path36" transform="translate(0 0)"/>
</g>
</g>
<g>
<g data-source-text="˂" fill="#dee4e3" transform="translate(312 190.584) rotate(0) scale(0.047999997)">
<use href="#path37" transform="translate(0 0)"/>
</g>
</g>
<g>
<g data-source-text="˃" fill="#dee4e3" transform="translate(384 190.584) rotate(0) scale(0.047999997)">
<use href="#path38" transform="translate(0 0)"/>
</g>
</g>
<g>
<g data-source-text="˄" fill="#dee4e3" transform="translate(456 190.584) rotate(0) scale(0.047999997)">
<use href="#path39" transform="translate(0 0)"/>
</g>
</g>
<g>
<g data-source-text="˅" fill="#dee4e3" transform="translate(528 190.584) rotate(0) scale(0.047999997)">
<use href="#path40" transform="translate(0 0)"/>
</g>
</g>
<g>
<g data-source-text="ˆ" fill="#dee4e3" transform="translate(600 190.584) rotate(0) scale(0.047999997)">
<use href="#path41" transform="translate(0 0)"/>
</g>
</g>
<g>
<g data-source-text="ˇ" fill="#dee4e3" transform="translate(672 190.584) rotate(0) scale(0.047999997)">
<use href="#path42" transform="translate(0 0)"/>
</g>
</g>
<g>
<g data-source-text="ˈ" fill="#dee4e3" transform="translate(744 190.584) rotate(0) scale(0.047999997)">
<use href="#path43" transform="translate(0 0)"/>
</g>
</g>
<g>
<g data-source-text="ˉ" fill="#dee4e3" transform="translate(816 190.584) rotate(0) scale(0.047999997)">
<use href="#path44" transform="translate(0 0)"/>
</g>
</g>
<g>
<g data-source-text="ˊ" fill="#dee4e3" transform="translate(888 190.584) rotate(0) scale(0.047999997)">
<use href="#path45" transform="translate(0 0)"/>
</g>
</g>
<g>
<g data-source-text="ˋ" fill="#dee4e3" transform="translate(960 190.584) rotate(0) scale(0.047999997)">
<use href="#path46" transform="translate(0 0)"/>
</g>
</g>
<g>
<g data-source-text="ˌ" fill="#dee4e3" transform="translate(1032 190.584) rotate(0) scale(0.047999997)">
<use href="#path47" transform="translate(0 0)"/>
</g>
</g>
<g>
<g data-source-text="ˍ" fill="#dee4e3" transform="translate(1104 190.584) rotate(0) scale(0.047999997)">
<use href="#path48" transform="translate(0 0)"/>
</g>
</g>
<g>
<g data-source-text="ˎ" fill="#dee4e3" transform="translate(1176 190.584) rotate(0) scale(0.047999997)">
<use href="#path49" transform="translate(0 0)"/>
</g>
</g>
<g>
<g data-source-text="ˏ" fill="#dee4e3" transform="translate(1248 190.584) rotate(0) scale(0.047999997)">
<use href="#path50" transform="translate(0 0)"/>
</g>
</g>
<g>
<g data-source-text="U+02D0" fill="#dee4e3" transform="translate(36 257.292) rotate(0) scale(0.023999998)">
<use href="#path17" transform="translate(0 0)"/>
<use href="#path18" transform="translate(500 0)"/>
<use href="#path1" transform="translate(1000 0)"/>
<use href="#path3" transform="translate(1500 0)"/>
<use href="#path14" transform="translate(2000 0)"/>
<use href="#path1" transform="translate(2500 0)"/>
</g>
</g>
<g>
<g data-source-text="ː" fill="#dee4e3" transform="translate(168 262.584) rotate(0) scale(0.047999997)">
<use href="#path51" transform="translate(0 0)"/>
</g>
</g>
<g>
<g data-source-text="ˑ" fill="#dee4e3" transform="translate(240 262.584) rotate(0) scale(0.047999997)">
<use href="#path52" transform="translate(0 0)"/>
</g>
</g>
<g>
<g data-source-text="˒" fill="#dee4e3" transform="translate(312 262.584) rotate(0) scale(0.047999997)">
<use href="#path53" transform="translate(0 0)"/>
</g>
</g>
<g>
<g data-source-text="˓" fill="#dee4e3" transform="translate(384 262.584) rotate(0) scale(0.047999997)">
<use href="#path54" transform="translate(0 0)"/>
</g>
</g>
<g>
<g data-source-text="˔" fill="#dee4e3" transform="translate(456 262.584) rotate(0) scale(0.047999997)">
<use href="#path55" transform="translate(0 0)"/>
</g>
</g>
<g>
<g data-source-text="˕" fill="#dee4e3" transform="translate(528 262.584) rotate(0) scale(0.047999997)">
<use href="#path56" transform="translate(0 0)"/>
</g>
</g>
<g>
<g data-source-text="˖" fill="#dee4e3" transform="translate(600 262.584) rotate(0) scale(0.047999997)">
<use href="#path57" transform="translate(0 0)"/>
</g>
</g>
<g>
<g data-source-text="˗" fill="#dee4e3" transform="translate(672 262.584) rotate(0) scale(0.047999997)">
<use href="#path58" transform="translate(0 0)"/>
</g>
</g>
<g>
<g data-source-text="˘" fill="#dee4e3" transform="translate(744 262.584) rotate(0) scale(0.047999997)">
<use href="#path59" transform="translate(0 0)"/>
</g>
</g>
<g>
<g data-source-text="˙" fill="#dee4e3" transform="translate(816 262.584) rotate(0) scale(0.047999997)">
<use href="#path60" transform="translate(0 0)"/>
</g>
</g>
<g>
<g data-source-text="˚" fill="#dee4e3" transform="translate(888 262.584) rotate(0) scale(0.047999997)">
<use href="#path61" transform="translate(0 0)"/>
</g>
</g>
<g>
<g data-source-text="˛" fill="#dee4e3" transform="translate(960 262.584) rotate(0) scale(0.047999997)">
<use href="#path62" transform="translate(0 0)"/>
</g>
</g>
<g>
<g data-source-text="˜" fill="#dee4e3" transform="translate(1032 262.584) rotate(0) scale(0.047999997)">
<use href="#path63" transform="translate(0 0)"/>
</g>
</g>
<g>
<g data-source-text="˝" fill="#dee4e3" transform="translate(1104 262.584) rotate(0) scale(0.047999997)">
<use href="#path64" transform="translate(0 0)"/>
</g>
</g>
<g>
<g data-source-text="˞" fill="#dee4e3" transform="translate(1176 262.584) rotate(0) scale(0.047999997)">
<use href="#path65" transform="translate(0 0)"/>
</g>
</g>
<g>
<g data-source-text="˟" fill="#dee4e3" transform="translate(1248 262.584) rotate(0) scale(0.047999997)">
<use href="#path66" transform="translate(0 0)"/>
</g>
</g>
<g>
<g data-source-text="U+02E0" fill="#dee4e3" transform="translate(36 329.292) rotate(0) scale(0.023999998)">
<use href="#path17" transform="translate(0 0)"/>
<use href="#path18" transform="translate(500 0)"/>
<use href="#path1" transform="translate(1000 0)"/>
<use href="#path3" transform="translate(1500 0)"/>
<use href="#path15" transform="translate(2000 0)"/>
<use href="#path1" transform="translate(2500 0)"/>
</g>
</g>
<g>
<g data-source-text="ˠ" fill="#dee4e3" transform="translate(168 334.584) rotate(0) scale(0.047999997)">
<use href="#path67" transform="translate(0 0)"/>
</g>
</g>
<g>
<g data-source-text="ˡ" fill="#dee4e3" transform="translate(240 334.584) rotate(0) scale(0.047999997)">
<use href="#path68" transform="translate(0 0)"/>
</g>
</g>
<g>
<g data-source-text="ˢ" fill="#dee4e3" transform="translate(312 334.584) rotate(0) scale(0.047999997)">
<use href="#path69" transform="translate(0 0)"/>
</g>
</g>
<g>
<g data-source-text="ˣ" fill="#dee4e3" transform="translate(384 334.584) rotate(0) scale(0.047999997)">
<use href="#path70" transform="translate(0 0)"/>
</g>
</g>
<g>
<g data-source-text="ˤ" fill="#dee4e3" transform="translate(456 334.584) rotate(0) scale(0.047999997)">
<use href="#path71" transform="translate(0 0)"/>
</g>
</g>
<g>
<g data-source-text="˥" fill="#dee4e3" transform="translate(528 334.584) rotate(0) scale(0.047999997)">
<use href="#path72" transform="translate(0 0)"/>
</g>
</g>
<g>
<g data-source-text="˦" fill="#dee4e3" transform="translate(600 334.584) rotate(0) scale(0.047999997)">
<use href="#path73" transform="translate(0 0)"/>
</g>
</g>
<g>
<g data-source-text="˧" fill="#dee4e3" transform="translate(672 334.584) rotate(0) scale(0.047999997)">
<use href="#path74" transform="translate(0 0)"/>
</g>
</g>
<g>
<g data-source-text="˨" fill="#dee4e3" transform="translate(744 334.584) rotate(0) scale(0.047999997)">
<use href="#path75" transform="translate(0 0)"/>
</g>
</g>
<g>
<g data-source-text="˩" fill="#dee4e3" transform="translate(816 334.584) rotate(0) scale(0.047999997)">
<use href="#path76" transform="translate(0 0)"/>
</g>
</g>
<g>
<g data-source-text="˪" fill="#dee4e3" transform="translate(888 334.584) rotate(0) scale(0.047999997)">
<use href="#path77" transform="translate(0 0)"/>
</g>
</g>
<g>
<g data-source-text="˫" fill="#dee4e3" transform="translate(960 334.584) rotate(0) scale(0.047999997)">
<use href="#path78" transform="translate(0 0)"/>
</g>
</g>
<g>
<g data-source-text="ˬ" fill="#dee4e3" transform="translate(1032 334.584) rotate(0) scale(0.047999997)">
<use href="#path79" transform="translate(0 0)"/>
</g>
</g>
<g>
<g data-source-text="˭" fill="#dee4e3" transform="translate(1104 334.584) rotate(0) scale(0.047999997)">
<use href="#path80" transform="translate(0 0)"/>
</g>
</g>
<g>
<g data-source-text="ˮ" fill="#dee4e3" transform="translate(1176 334.584) rotate(0) scale(0.047999997)">
<use href="#path81" transform="translate(0 0)"/>
</g>
</g>
<g>
<g data-source-text="˯" fill="#dee4e3" transform="translate(1248 334.584) rotate(0) scale(0.047999997)">
<use href="#path82" transform="translate(0 0)"/>
</g>
</g>
<g>
<g data-source-text="U+02F0" fill="#dee4e3" transform="translate(36 401.292) rotate(0) scale(0.023999998)">
<use href="#path17" transform="translate(0 0)"/>
<use href="#path18" transform="translate(500 0)"/>
<use href="#path1" transform="translate(1000 0)"/>
<use href="#path3" transform="translate(1500 0)"/>
<use href="#path16" transform="translate(2000 0)"/>
<use href="#path1" transform="translate(2500 0)"/>
</g>
</g>
<g>
<g data-source-text="˰" fill="#dee4e3" transform="translate(168 406.584) rotate(0) scale(0.047999997)">
<use href="#path83" transform="translate(0 0)"/>
</g>
</g>
<g>
<g data-source-text="˱" fill="#dee4e3" transform="translate(240 406.584) rotate(0) scale(0.047999997)">
<use href="#path84" transform="translate(0 0)"/>
</g>
</g>
<g>
<g data-source-text="˲" fill="#dee4e3" transform="translate(312 406.584) rotate(0) scale(0.047999997)">
<use href="#path85" transform="translate(0 0)"/>
</g>
</g>
<g>
<g data-source-text="˳" fill="#dee4e3" transform="translate(384 406.584) rotate(0) scale(0.047999997)">
<use href="#path86" transform="translate(0 0)"/>
</g>
</g>
<g>
<g data-source-text="˴" fill="#dee4e3" transform="translate(456 406.584) rotate(0) scale(0.047999997)">
<use href="#path87" transform="translate(0 0)"/>
</g>
</g>
<g>
<g data-source-text="˵" fill="#dee4e3" transform="translate(528 406.584) rotate(0) scale(0.047999997)">
<use href="#path88" transform="translate(0 0)"/>
</g>
</g>
<g>
<g data-source-text="˶" fill="#dee4e3" transform="translate(600 406.584) rotate(0) scale(0.047999997)">
<use href="#path89" transform="translate(0 0)"/>
</g>
</g>
<g>
<g data-source-text="˷" fill="#dee4e3" transform="translate(672 406.584) rotate(0) scale(0.047999997)">
<use href="#path90" transform="translate(0 0)"/>
</g>
</g>
<g>
<g data-source-text="˸" fill="#dee4e3" transform="translate(744 406.584) rotate(0) scale(0.047999997)">
<use href="#path91" transform="translate(0 0)"/>
</g>
</g>
<g>
<g data-source-text="˹" fill="#dee4e3" transform="translate(816 406.584) rotate(0) scale(0.047999997)">
<use href="#path92" transform="translate(0 0)"/>
</g>
</g>
<g>
<g data-source-text="˺" fill="#dee4e3" transform="translate(888 406.584) rotate(0) scale(0.047999997)">
<use href="#path93" transform="translate(0 0)"/>
</g>
</g>
<g>
<g data-source-text="˻" fill="#dee4e3" transform="translate(960 406.584) rotate(0) scale(0.047999997)">
<use href="#path94" transform="translate(0 0)"/>
</g>
</g>
<g>
<g data-source-text="˼" fill="#dee4e3" transform="translate(1032 406.584) rotate(0) scale(0.047999997)">
<use href="#path95" transform="translate(0 0)"/>
</g>
</g>
<g>
<g data-source-text="˽" fill="#dee4e3" transform="translate(1104 406.584) rotate(0) scale(0.047999997)">
<use href="#path96" transform="translate(0 0)"/>
</g>
</g>
<g>
<g data-source-text="˾" fill="#dee4e3" transform="translate(1176 406.584) rotate(0) scale(0.047999997)">
<use href="#path97" transform="translate(0 0)"/>
</g>
</g>
<g>
<g data-source-text="˿" fill="#dee4e3" transform="translate(1248 406.584) rotate(0) scale(0.047999997)">
<use href="#path98" transform="translate(0 0)"/>
</g>
</g>
</svg>