<?xml version="1.0" encoding="UTF-8" standalone="no"?>
<svg height="288" viewBox="0 0 1296 288" width="1296" xmlns="http://www.w3.org/2000/svg">
<defs>
<path d="M 250 8 Q 223 8 196 3 Q 169 -2 145 -15.5 Q 121 -29 102.5 -49 Q 84 -69 72.5 -94 Q 61 -119 56.5 -146 Q 52 -173 52 -200 L 52 -535 Q 52 -562 56.5 -589 Q 61 -616 72.5 -641 Q 84 -666 102.5 -686 Q 121 -706 145 -719.5 Q 169 -733 196 -738 Q 223 -743 250 -743 Q 277 -743 304 -738 Q 331 -733 355 -720 Q 379 -707 397.5 -686.5 Q 416 -666 427.5 -641 Q 439 -616 443.5 -589 Q 448 -562 448 -535 L 448 -200 Q 448 -173 443.5 -146 Q 439 -119 427.5 -94 Q 416 -69 397.5 -49 Q 379 -29 355 -15.5 Q 331 -2 304 3 Q 277 8 250 8 Z M 153 -337 L 347 -491 L 347 -535 Q 347 -557 342.5 -578.5 Q 338 -600 325.5 -618 Q 313 -636 292.5 -645.5 Q 272 -655 250 -655 Q 228 -655 207.5 -645.5 Q 187 -636 174.5 -618 Q 162 -600 157.5 -578.5 Q 153 -557 153 -535 Z M 250 -80 Q 272 -80 292.5 -89.5 Q 313 -99 325.5 -117 Q 338 -135 342.5 -156.5 Q 347 -178 347 -200 L 347 -398 L 153 -244 L 153 -200 Q 153 -178 157.5 -156.5 Q 162 -135 174.5 -117 Q 187 -99 207.5 -89.5 Q 228 -80 250 -80 Z " id="path1"/>
<path d="M 230 0 L 230 -631 L 110 -528 L 55 -584 L 230 -735 L 330 -735 L 330 0 Z " id="path2"/>
<path d="M 440 0 L 60 0 L 60 -1 Q 60 -27 61 -53.5 Q 62 -80 66 -106.5 Q 70 -133 77.5 -158.5 Q 85 -184 96.5 -207.5 Q 108 -231 123 -253 Q 138 -275 156 -294.5 Q 174 -314 194 -331 Q 214 -348 235.5 -364 Q 257 -380 277.5 -397 Q 298 -414 313 -435.5 Q 328 -457 335.5 -483 Q 343 -509 343 -535 Q 343 -557 339 -578 Q 335 -599 323.5 -617 Q 312 -635 292 -645 Q 272 -655 251 -655 Q 231 -655 212.5 -647.5 Q 194 -640 182 -625 Q 170 -610 164.5 -591 Q 159 -572 159 -552 L 159 -548 L 58 -548 L 58 -555 Q 58 -581 64 -605.5 Q 70 -630 81.5 -652.5 Q 93 -675 111.5 -693 Q 130 -711 152.5 -722.5 Q 175 -734 200.5 -738.5 Q 226 -743 251 -743 Q 278 -743 304.5 -737.5 Q 331 -732 354.5 -719 Q 378 -706 396 -685.5 Q 414 -665 424.5 -640.5 Q 435 -616 439.5 -589 Q 444 -562 444 -535 Q 444 -501 435 -468 Q 426 -435 407.5 -406 Q 389 -377 364 -353.5 Q 339 -330 312.5 -308.5 Q 286 -287 261 -264 Q 236 -241 216.5 -213 Q 197 -185 184 -153.5 Q 171 -122 166 -88 L 440 -88 Z " id="path3"/>
<path d="M 253 8 Q 227 8 201 4 Q 175 -0 151.5 -11.5 Q 128 -23 108.5 -40.5 Q 89 -58 76 -81 Q 63 -104 56.5 -129.5 Q 50 -155 50 -181 L 50 -187 L 151 -187 L 151 -184 Q 151 -163 157.5 -143 Q 164 -123 178 -108 Q 192 -93 212 -86.5 Q 232 -80 253 -80 Q 275 -80 296 -88.5 Q 317 -97 330.5 -115 Q 344 -133 349.5 -154.5 Q 355 -176 355 -198 Q 355 -217 351 -235.5 Q 347 -254 338.5 -271 Q 330 -288 316.5 -301 Q 303 -314 286 -322 Q 269 -330 250 -332 Q 231 -334 212 -334 L 212 -422 Q 229 -422 246 -424 Q 263 -426 278.5 -433 Q 294 -440 306 -452.5 Q 318 -465 325.5 -480.5 Q 333 -496 336 -513 Q 339 -530 339 -547 Q 339 -566 335 -585.5 Q 331 -605 320 -621 Q 309 -637 291 -646 Q 273 -655 253 -655 Q 234 -655 216.5 -647 Q 199 -639 187.5 -624 Q 176 -609 171.5 -590 Q 167 -571 167 -552 L 167 -548 L 66 -548 L 66 -556 Q 66 -581 71.5 -605.5 Q 77 -630 88.5 -652 Q 100 -674 117.5 -692.5 Q 135 -711 157 -722.5 Q 179 -734 203.5 -738.5 Q 228 -743 253 -743 Q 278 -743 303 -738 Q 328 -733 350.5 -721 Q 373 -709 390 -690 Q 407 -671 418 -648 Q 429 -625 434.5 -600 Q 440 -575 440 -550 Q 440 -524 434 -498.5 Q 428 -473 415.5 -450.5 Q 403 -428 384.5 -409.5 Q 366 -391 343 -379 Q 369 -368 391 -348.5 Q 413 -329 427.5 -304.5 Q 442 -280 449 -252 Q 456 -224 456 -195 Q 456 -168 450 -141.5 Q 444 -115 432 -91 Q 420 -67 401 -47 Q 382 -27 358 -14.5 Q 334 -2 307 3 Q 280 8 253 8 Z " id="path4"/>
<path d="M 282 0 L 282 -188 L 52 -188 L 52 -275 L 276 -735 L 385 -735 L 161 -275 L 282 -275 L 282 -435 L 382 -435 L 382 -275 L 440 -275 L 440 -188 L 382 -188 L 382 0 Z " id="path5"/>
<path d="M 252 8 Q 227 8 202.5 3.5 Q 178 -1 155.5 -12 Q 133 -23 115 -41 Q 97 -59 85 -80.5 Q 73 -102 66.5 -126.5 Q 60 -151 59 -176 L 159 -176 Q 161 -158 167 -139.5 Q 173 -121 185.5 -107 Q 198 -93 216 -86.5 Q 234 -80 252 -80 Q 269 -80 285 -87 Q 301 -94 312 -107 Q 323 -120 330 -135.5 Q 337 -151 340.5 -167.5 Q 344 -184 345.5 -201 Q 347 -218 347 -235 Q 347 -252 346 -269 Q 345 -286 341 -302.5 Q 337 -319 331 -334.5 Q 325 -350 314 -363 Q 303 -376 287.5 -383.5 Q 272 -391 256 -391 Q 240 -391 224.5 -387 Q 209 -383 196 -373.5 Q 183 -364 176 -349.5 Q 169 -335 168 -319 L 68 -319 L 68 -735 L 421 -735 L 421 -647 L 168 -647 L 168 -464 Q 189 -472 211 -475 Q 233 -478 256 -478 Q 285 -478 313.5 -470.5 Q 342 -463 365.5 -445.5 Q 389 -428 405.5 -403 Q 422 -378 431.5 -350.5 Q 441 -323 444.5 -294 Q 448 -265 448 -235 Q 448 -206 444 -176.5 Q 440 -147 430.5 -119 Q 421 -91 404 -66.5 Q 387 -42 363.5 -24.5 Q 340 -7 311 0.5 Q 282 8 252 8 Z " id="path6"/>
<path d="M 250 8 Q 219 8 189 -0.5 Q 159 -9 135 -28 Q 111 -47 94.5 -73.5 Q 78 -100 68.5 -129.5 Q 59 -159 55.5 -189.5 Q 52 -220 52 -250 Q 52 -291 60 -331 Q 68 -371 82 -409 Q 96 -447 114 -483.5 Q 132 -520 150 -556 L 238 -735 L 347 -735 L 240 -517 Q 232 -500 223 -483.5 Q 214 -467 205 -451 Q 217 -454 229 -455 Q 241 -456 253 -456 Q 281 -456 309.5 -449 Q 338 -442 361.5 -426 Q 385 -410 402.5 -386.5 Q 420 -363 430 -336.5 Q 440 -310 444 -281.5 Q 448 -253 448 -224 Q 448 -195 444 -166.5 Q 440 -138 429.5 -111 Q 419 -84 401.5 -60.5 Q 384 -37 360 -21 Q 336 -5 307.5 1.5 Q 279 8 250 8 Z M 250 -80 Q 266 -80 282 -85.5 Q 298 -91 309.5 -102.5 Q 321 -114 328.5 -129 Q 336 -144 340 -159.5 Q 344 -175 345.5 -191.5 Q 347 -208 347 -224 Q 347 -240 345.5 -256.5 Q 344 -273 340 -288.5 Q 336 -304 328.5 -319 Q 321 -334 309.5 -345.5 Q 298 -357 282.5 -362.5 Q 267 -368 251 -368 Q 234 -368 218.5 -362.5 Q 203 -357 191.5 -345.5 Q 180 -334 172 -319.5 Q 164 -305 160 -289 Q 156 -273 154.5 -256.5 Q 153 -240 153 -224 Q 153 -208 154.5 -191.5 Q 156 -175 160 -159.5 Q 164 -144 171.5 -129 Q 179 -114 190.5 -102.5 Q 202 -91 218 -85.5 Q 234 -80 250 -80 Z " id="path7"/>
<path d="M 242 0 L 138 0 L 336 -647 L 60 -647 L 60 -735 L 440 -735 L 440 -647 Z " id="path8"/>
<path d="M 250 8 Q 225 8 200 4 Q 175 -0 152 -10 Q 129 -20 109.5 -37 Q 90 -54 77.5 -75.5 Q 65 -97 58.5 -121.5 Q 52 -146 52 -172 Q 52 -203 62 -232.5 Q 72 -262 88.5 -288 Q 105 -314 127 -336 Q 149 -358 174 -378 Q 152 -396 132.5 -417 Q 113 -438 98.5 -462.5 Q 84 -487 76 -514.5 Q 68 -542 68 -570 Q 68 -594 73.5 -617 Q 79 -640 90.5 -661 Q 102 -682 119.5 -698.5 Q 137 -715 158 -725 Q 179 -735 202.5 -739 Q 226 -743 250 -743 Q 274 -743 297.5 -739 Q 321 -735 342 -725 Q 363 -715 380.5 -698.5 Q 398 -682 409.5 -661 Q 421 -640 426.5 -617 Q 432 -594 432 -570 Q 432 -542 424 -514.5 Q 416 -487 401.5 -462.5 Q 387 -438 367.5 -417 Q 348 -396 326 -378 Q 351 -358 373 -336 Q 395 -314 411.5 -288 Q 428 -262 438 -232.5 Q 448 -203 448 -172 Q 448 -146 441.5 -121.5 Q 435 -97 422.5 -75.5 Q 410 -54 390.5 -37 Q 371 -20 348 -10 Q 325 -0 300 4 Q 275 8 250 8 Z M 250 -435 Q 266 -447 280.5 -461.5 Q 295 -476 306.5 -493 Q 318 -510 325 -529.5 Q 332 -549 332 -569 Q 332 -586 326.5 -602.5 Q 321 -619 310 -631.5 Q 299 -644 283 -649.5 Q 267 -655 250 -655 Q 233 -655 217 -649.5 Q 201 -644 190 -631.5 Q 179 -619 173.5 -602.5 Q 168 -586 168 -569 Q 168 -549 175 -529.5 Q 182 -510 193.5 -493 Q 205 -476 219.5 -461.5 Q 234 -447 250 -435 Z M 250 -80 Q 269 -80 287.5 -85.5 Q 306 -91 320 -104 Q 334 -117 340.5 -135.5 Q 347 -154 347 -173 Q 347 -196 338.5 -217.5 Q 330 -239 316.5 -257.5 Q 303 -276 285.5 -291 Q 268 -306 250 -320 Q 232 -306 214.5 -291 Q 197 -276 183.5 -257.5 Q 170 -239 161.5 -217.5 Q 153 -196 153 -173 Q 153 -154 159.5 -135.5 Q 166 -117 180 -104 Q 194 -91 212.5 -85.5 Q 231 -80 250 -80 Z " id="path9"/>
<path d="M 262 0 L 153 0 L 260 -218 Q 268 -235 277 -251.5 Q 286 -268 295 -284 Q 283 -281 271 -280 Q 259 -279 247 -279 Q 219 -279 190.5 -286 Q 162 -293 138.5 -309 Q 115 -325 97.5 -348.5 Q 80 -372 70 -398.5 Q 60 -425 56 -453.5 Q 52 -482 52 -511 Q 52 -540 56 -568.5 Q 60 -597 70.5 -624 Q 81 -651 98.5 -674.5 Q 116 -698 140 -714 Q 164 -730 192.5 -736.5 Q 221 -743 250 -743 Q 281 -743 311 -734.5 Q 341 -726 365 -707 Q 389 -688 405.5 -661.5 Q 422 -635 431.5 -605.5 Q 441 -576 444.5 -545.5 Q 448 -515 448 -485 Q 448 -444 440 -404 Q 432 -364 418 -326 Q 404 -288 386 -251.5 Q 368 -215 350 -179 Z M 249 -367 Q 266 -367 281.5 -372.5 Q 297 -378 308.5 -389.5 Q 320 -401 328 -415.5 Q 336 -430 340 -446 Q 344 -462 345.5 -478.5 Q 347 -495 347 -511 Q 347 -527 345.5 -543.5 Q 344 -560 340 -575.5 Q 336 -591 328.5 -606 Q 321 -621 309.5 -632.5 Q 298 -644 282 -649.5 Q 266 -655 250 -655 Q 234 -655 218 -649.5 Q 202 -644 190.5 -632.5 Q 179 -621 171.5 -606 Q 164 -591 160 -575.5 Q 156 -560 154.5 -543.5 Q 153 -527 153 -511 Q 153 -495 154.5 -478.5 Q 156 -462 160 -446.5 Q 164 -431 171.5 -416 Q 179 -401 190.5 -389.5 Q 202 -378 217.5 -372.5 Q 233 -367 249 -367 Z " id="path10"/>
<path d="M 39 0 L 192 -735 L 308 -735 L 461 0 L 358 0 L 326 -172 L 174 -172 L 142 0 Z M 309 -260 L 265 -490 Q 262 -511 258 -531.5 Q 254 -552 250 -572 Q 246 -552 242 -531.5 Q 238 -511 235 -490 L 191 -260 Z " id="path11"/>
<path d="M 60 0 L 60 -735 L 234 -735 Q 261 -735 287 -730.5 Q 313 -726 336 -714 Q 359 -702 377.5 -682.5 Q 396 -663 408 -639.5 Q 420 -616 424.5 -590 Q 429 -564 429 -538 Q 429 -515 425 -492 Q 421 -469 410.5 -448.5 Q 400 -428 383.5 -411 Q 367 -394 347 -383 Q 372 -373 393.5 -355.5 Q 415 -338 429.5 -314.5 Q 444 -291 450 -264 Q 456 -237 456 -210 Q 456 -181 450 -152.5 Q 444 -124 430 -98.5 Q 416 -73 394.5 -53.5 Q 373 -34 347 -21.5 Q 321 -9 292 -4.5 Q 263 -0 234 0 Z M 161 -424 L 234 -424 Q 255 -424 274.5 -432.5 Q 294 -441 306.5 -457.5 Q 319 -474 324 -494.5 Q 329 -515 329 -536 Q 329 -557 324 -577.5 Q 319 -598 306.5 -614.5 Q 294 -631 274.5 -639 Q 255 -647 234 -647 L 161 -647 Z M 161 -88 L 234 -88 Q 251 -88 267 -91 Q 283 -94 297.5 -101.5 Q 312 -109 323.5 -121 Q 335 -133 342.5 -148 Q 350 -163 352.5 -179 Q 355 -195 355 -212 Q 355 -228 352.5 -244.5 Q 350 -261 343 -276 Q 336 -291 324.5 -303 Q 313 -315 298 -322.5 Q 283 -330 267 -333 Q 251 -336 234 -336 L 161 -336 Z " id="path12"/>
<path d="M 247 8 Q 220 8 193 2.5 Q 166 -3 142.5 -16 Q 119 -29 101 -49.5 Q 83 -70 72 -94.5 Q 61 -119 56.5 -146 Q 52 -173 52 -200 L 52 -535 Q 52 -562 56.5 -589 Q 61 -616 72 -640.5 Q 83 -665 101 -685.5 Q 119 -706 142.5 -719 Q 166 -732 193 -737.5 Q 220 -743 247 -743 Q 273 -743 298 -738.5 Q 323 -734 346 -723 Q 369 -712 387.5 -694 Q 406 -676 418 -653.5 Q 430 -631 436 -606 Q 442 -581 442 -555 L 442 -548 L 341 -548 L 341 -552 Q 341 -572 335.5 -591 Q 330 -610 317.5 -625.5 Q 305 -641 286 -648 Q 267 -655 247 -655 Q 225 -655 205 -645.5 Q 185 -636 173 -618 Q 161 -600 157 -578.5 Q 153 -557 153 -535 L 153 -200 Q 153 -178 157 -156.5 Q 161 -135 173 -117 Q 185 -99 205 -89.5 Q 225 -80 247 -80 Q 267 -80 286 -87 Q 305 -94 317.5 -109.5 Q 330 -125 335.5 -144 Q 341 -163 341 -183 L 341 -187 L 442 -187 L 442 -180 Q 442 -154 436 -129 Q 430 -104 418 -81.5 Q 406 -59 387.5 -41 Q 369 -23 346 -12 Q 323 -1 298 3.5 Q 273 8 247 8 Z " id="path13"/>
<path d="M 60 0 L 60 -735 L 219 -735 Q 249 -735 279 -730 Q 309 -725 336.5 -712 Q 364 -699 386 -678.5 Q 408 -658 422 -631.5 Q 436 -605 442 -575 Q 448 -545 448 -515 L 448 -220 Q 448 -190 442 -160 Q 436 -130 422 -103.5 Q 408 -77 386 -56.5 Q 364 -36 336.5 -23 Q 309 -10 279 -5 Q 249 -0 219 0 Z M 161 -88 L 219 -88 Q 237 -88 254 -91 Q 271 -94 286.5 -102.5 Q 302 -111 314 -124 Q 326 -137 333.5 -152.5 Q 341 -168 344 -185.5 Q 347 -203 347 -220 L 347 -515 Q 347 -532 344 -549.5 Q 341 -567 333.5 -582.5 Q 326 -598 314 -611 Q 302 -624 286.5 -632.5 Q 271 -641 254 -644 Q 237 -647 219 -647 L 161 -647 Z " id="path14"/>
<path d="M 68 0 L 68 -735 L 440 -735 L 440 -647 L 169 -647 L 169 -426 L 383 -426 L 383 -338 L 169 -338 L 169 -88 L 440 -88 L 440 0 Z " id="path15"/>
<path d="M 91 0 L 91 -735 L 440 -735 L 440 -647 L 191 -647 L 191 -426 L 383 -426 L 383 -338 L 191 -338 L 191 0 Z " id="path16"/>
<path d="M 250 8 Q 223 8 196.5 2.5 Q 170 -3 147 -16.5 Q 124 -30 106.5 -50.5 Q 89 -71 78.5 -95.5 Q 68 -120 64 -146.5 Q 60 -173 60 -200 L 60 -735 L 161 -735 L 161 -200 Q 161 -186 162.5 -172 Q 164 -158 168 -144.5 Q 172 -131 179.5 -118.5 Q 187 -106 197.5 -97 Q 208 -88 222 -84 Q 236 -80 250 -80 Q 264 -80 278 -84 Q 292 -88 302.5 -97 Q 313 -106 320.5 -118.5 Q 328 -131 332 -144.5 Q 336 -158 337.5 -172 Q 339 -186 339 -200 L 339 -735 L 440 -735 L 440 -200 Q 440 -173 436 -146.5 Q 432 -120 421.5 -95.5 Q 411 -71 393.5 -50.5 Q 376 -30 353 -16.5 Q 330 -3 303.5 2.5 Q 277 8 250 8 Z " id="path17"/>
<path d="M 300 -143 L 200 -143 L 200 -296 L 60 -296 L 60 -384 L 200 -384 L 200 -537 L 300 -537 L 300 -384 L 440 -384 L 440 -296 L 300 -296 Z " id="path18"/>
<path d="M 64 0 L 64 -735 L 436 -735 L 436 0 Z M 94 -321 L 401 -705 L 307 -705 L 94 -438 Z M 94 -477 L 276 -705 L 182 -705 L 94 -595 Z M 94 -634 L 151 -705 L 94 -705 Z M 94 -165 L 406 -554 L 406 -671 L 94 -282 Z M 94 -30 L 112 -30 L 406 -398 L 406 -515 L 94 -126 Z M 143 -30 L 237 -30 L 406 -242 L 406 -359 Z M 362 -30 L 406 -85 L 406 -203 L 268 -30 Z M 393 -30 L 406 -30 L 406 -46 Z " id="path19"/>
<path d="M 247 8 Q 221 8 194.5 3 Q 168 -2 145 -15 Q 122 -28 104 -48 Q 86 -68 75 -92 Q 64 -116 60 -142.5 Q 56 -169 56 -195 L 56 -540 Q 56 -566 60 -592.5 Q 64 -619 75 -643 Q 86 -667 104 -687 Q 122 -707 145 -720 Q 168 -733 194.5 -738 Q 221 -743 247 -743 Q 272 -743 296.5 -739 Q 321 -735 343.5 -724 Q 366 -713 384.5 -695.5 Q 403 -678 415 -656.5 Q 427 -635 432.5 -610.5 Q 438 -586 438 -561 L 438 -555 L 360 -555 L 360 -559 Q 360 -582 353 -604 Q 346 -626 330 -642.5 Q 314 -659 292 -666 Q 270 -673 247 -673 Q 222 -673 198.5 -663 Q 175 -653 160 -633.5 Q 145 -614 139.5 -589.5 Q 134 -565 134 -540 L 134 -195 Q 134 -170 139.5 -145.5 Q 145 -121 160 -101.5 Q 175 -82 198.5 -72 Q 222 -62 247 -62 Q 270 -62 292 -69 Q 314 -76 330 -92.5 Q 346 -109 353 -131 Q 360 -153 360 -176 L 360 -180 L 438 -180 L 438 -174 Q 438 -149 432.5 -124.5 Q 427 -100 415 -78.5 Q 403 -57 384.5 -39.5 Q 366 -22 343.5 -11 Q 321 0 296.5 4 Q 272 8 247 8 Z M 174 78 L 137 68 L 426 -814 L 463 -804 Z M 74 78 L 37 68 L 326 -814 L 363 -804 Z " id="path20"/>
<path d="M 96 0 L 96 -243 L 29 -243 L 29 -308 L 96 -308 L 96 -383 L 29 -383 L 29 -448 L 96 -448 L 96 -735 L 436 -735 L 436 -665 L 174 -665 L 174 -448 L 277 -448 L 277 -383 L 174 -383 L 174 -308 L 277 -308 L 277 -243 L 174 -243 L 174 0 Z " id="path21"/>
<path d="M 64 0 L 64 -70 Q 81 -86 94 -106 Q 107 -126 115 -148 Q 123 -170 126.5 -193 Q 130 -216 131 -240 L 46 -240 L 46 -304 L 131 -304 L 131 -392 L 46 -392 L 46 -457 L 131 -457 L 131 -589 Q 131 -609 134.5 -629 Q 138 -649 146 -667 Q 154 -685 167.5 -700 Q 181 -715 198.5 -725 Q 216 -735 235.5 -739 Q 255 -743 275 -743 Q 305 -743 333.5 -732.5 Q 362 -722 382 -700 Q 402 -678 411 -649 Q 420 -620 420 -590 Q 420 -588 419.5 -586 Q 419 -584 419 -582 L 342 -582 L 342 -586 Q 342 -602 338.5 -617 Q 335 -632 327 -645 Q 319 -658 305 -665.5 Q 291 -673 275 -673 Q 260 -673 246 -666 Q 232 -659 223.5 -646.5 Q 215 -634 212 -619 Q 209 -604 209 -589 L 209 -457 L 309 -457 L 309 -392 L 209 -392 L 209 -304 L 309 -304 L 309 -240 L 209 -240 Q 208 -217 206 -195 Q 204 -173 198.5 -151.5 Q 193 -130 184.5 -109.5 Q 176 -89 163 -70 L 436 -70 L 436 0 Z " id="path22"/>
<path d="M 48 0 L 48 -520 L 126 -520 L 126 -478 Q 131 -489 138 -498.5 Q 145 -508 154.5 -515 Q 164 -522 175.5 -525 Q 187 -528 199 -528 Q 214 -528 228 -523 Q 242 -518 252.5 -508 Q 263 -498 270 -484.5 Q 277 -471 281 -457 Q 285 -471 292 -484.5 Q 299 -498 309 -508 Q 319 -518 333 -523 Q 347 -528 362 -528 Q 377 -528 391.5 -522.5 Q 406 -517 416.5 -506.5 Q 427 -496 434 -482 Q 441 -468 445 -453.5 Q 449 -439 450.5 -424 Q 452 -409 452 -394 L 452 0 L 374 0 L 374 -394 Q 374 -405 372.5 -415.5 Q 371 -426 366 -436 Q 361 -446 351.5 -452 Q 342 -458 331 -458 Q 321 -458 311.5 -452 Q 302 -446 297 -436 Q 292 -426 290.5 -415.5 Q 289 -405 289 -394 L 289 0 L 211 0 L 211 -394 Q 211 -405 209.5 -415.5 Q 208 -426 203 -436 Q 198 -446 188.5 -452 Q 179 -458 169 -458 Q 158 -458 148.5 -452 Q 139 -446 134 -436 Q 129 -426 127.5 -415.5 Q 126 -405 126 -394 L 126 0 Z M 129 60 L 88 44 L 371 -580 L 412 -564 Z " id="path23"/>
<path d="M 80 0 L 80 -257 L 32 -257 L 32 -322 L 80 -322 L 80 -413 L 32 -413 L 32 -478 L 80 -478 L 80 -735 L 176 -735 L 252 -478 L 343 -478 L 343 -735 L 420 -735 L 420 -478 L 468 -478 L 468 -413 L 420 -413 L 420 -322 L 468 -322 L 468 -257 L 420 -257 L 420 0 L 324 0 L 248 -257 L 157 -257 L 157 0 Z M 154 -478 L 182 -478 L 149 -589 Q 150 -561 151.5 -533.5 Q 153 -506 154 -478 Z M 229 -322 L 201 -413 L 156 -413 Q 156 -390 156.5 -367.5 Q 157 -345 157 -322 Z M 299 -322 L 344 -322 Q 344 -345 343.5 -367.5 Q 343 -390 343 -413 L 271 -413 Z M 351 -146 Q 350 -174 348.5 -201.5 Q 347 -229 346 -257 L 318 -257 Z " id="path24"/>
<path d="M 26 0 L 26 -735 L 109 -735 Q 127 -735 143.5 -729.5 Q 160 -724 173.5 -713 Q 187 -702 197 -687.5 Q 207 -673 213.5 -657 Q 220 -641 224.5 -623.5 Q 229 -606 231.5 -589 Q 234 -572 235 -554.5 Q 236 -537 236 -520 Q 236 -502 235 -484.5 Q 234 -467 231.5 -450 Q 229 -433 224.5 -415.5 Q 220 -398 213.5 -382 Q 207 -366 197 -351.5 Q 187 -337 173.5 -326 Q 160 -315 143 -309.5 Q 126 -304 109 -304 L 82 -304 L 82 0 Z M 109 -374 Q 124 -374 136.5 -383 Q 149 -392 156.5 -404.5 Q 164 -417 168.5 -431 Q 173 -445 175.5 -460 Q 178 -475 179 -490 Q 180 -505 180 -520 Q 180 -534 179 -549 Q 178 -564 175.5 -579 Q 173 -594 168.5 -608 Q 164 -622 156.5 -634.5 Q 149 -647 136.5 -656 Q 124 -665 109 -665 L 82 -665 L 82 -374 Z M 407 8 Q 391 8 376.5 1 Q 362 -6 352 -18.5 Q 342 -31 336 -46.5 Q 330 -62 326.5 -78 Q 323 -94 322 -110 Q 321 -126 321 -142 L 321 -450 L 272 -450 L 272 -520 L 321 -520 L 321 -735 L 377 -735 L 377 -520 L 484 -520 L 484 -450 L 377 -450 L 377 -142 Q 377 -134 377 -126.5 Q 377 -119 378 -111.5 Q 379 -104 380.5 -96 Q 382 -88 385 -81 Q 388 -74 393.5 -68 Q 399 -62 407 -62 Q 413 -62 417 -67 Q 421 -72 424 -77.5 Q 427 -83 428.5 -89 Q 430 -95 431 -101 Q 432 -107 433 -113 Q 434 -119 434.5 -125.5 Q 435 -132 435.5 -138 Q 436 -144 436.5 -150 Q 437 -156 437 -162.5 Q 437 -169 437 -175 L 437 -180 L 494 -180 L 494 -171 Q 494 -153 492.5 -134.5 Q 491 -116 487.5 -98 Q 484 -80 479 -63 Q 474 -46 464.5 -29.5 Q 455 -13 440 -2.5 Q 425 8 407 8 Z " id="path25"/>
<path d="M 182 0 L 101 -304 L 71 -304 L 71 0 L 14 0 L 14 -735 L 109 -735 Q 126 -735 142.5 -729 Q 159 -723 171.5 -712 Q 184 -701 193.5 -686 Q 203 -671 209 -655.5 Q 215 -640 219.5 -622.5 Q 224 -605 226 -588 Q 228 -571 229 -554 Q 230 -537 230 -520 Q 230 -491 227.5 -462.5 Q 225 -434 217 -407 Q 209 -380 195 -355 Q 181 -330 157 -316 L 242 0 Z M 109 -374 Q 124 -374 135.5 -383.5 Q 147 -393 153.5 -405.5 Q 160 -418 164 -432.5 Q 168 -447 170 -461.5 Q 172 -476 173 -490.5 Q 174 -505 174 -520 Q 174 -534 173 -548.5 Q 172 -563 170 -577.5 Q 168 -592 164 -606.5 Q 160 -621 153.5 -633.5 Q 147 -646 135.5 -655.5 Q 124 -665 109 -665 L 71 -665 L 71 -374 Z M 381 8 Q 364 8 348.5 3.5 Q 333 -1 320.5 -11 Q 308 -21 299 -34.5 Q 290 -48 285 -64 Q 280 -80 277.5 -96 Q 275 -112 275 -128 L 275 -135 L 331 -135 L 331 -132 Q 331 -124 332 -116 Q 333 -108 335.5 -100 Q 338 -92 342 -85 Q 346 -78 352 -72.5 Q 358 -67 365.5 -64.5 Q 373 -62 381 -62 Q 388 -62 395.5 -64.5 Q 403 -67 409 -72 Q 415 -77 419 -83.5 Q 423 -90 425.5 -98 Q 428 -106 429 -113.5 Q 430 -121 430 -129 Q 430 -149 422.5 -167.5 Q 415 -186 401 -200 Q 387 -214 371 -225 Q 355 -236 340.5 -250 Q 326 -264 315 -280 Q 304 -296 296.5 -314.5 Q 289 -333 285.5 -352.5 Q 282 -372 282 -391 Q 282 -407 284 -423 Q 286 -439 291 -454.5 Q 296 -470 304 -484 Q 312 -498 324 -508 Q 336 -518 351 -523 Q 366 -528 382 -528 Q 398 -528 413 -523 Q 428 -518 440 -508 Q 452 -498 460 -484 Q 468 -470 473 -454.5 Q 478 -439 480 -423.5 Q 482 -408 482 -392 L 482 -385 L 426 -385 L 426 -388 Q 426 -396 425 -403.5 Q 424 -411 422 -418.5 Q 420 -426 417 -433.5 Q 414 -441 409 -446.5 Q 404 -452 397 -455 Q 390 -458 382 -458 Q 375 -458 368 -455.5 Q 361 -453 356 -447.5 Q 351 -442 347.5 -435 Q 344 -428 342 -421 Q 340 -414 339 -406.5 Q 338 -399 338 -391 Q 338 -372 345.5 -353 Q 353 -334 367 -320 Q 381 -306 397 -295.5 Q 413 -285 427.5 -271 Q 442 -257 453 -240.5 Q 464 -224 471.5 -206 Q 479 -188 482.5 -168.5 Q 486 -149 486 -129 Q 486 -113 483.5 -96.5 Q 481 -80 476 -64.5 Q 471 -49 462 -35 Q 453 -21 440.5 -11 Q 428 -1 412.5 3.5 Q 397 8 381 8 Z " id="path26"/>
<path d="M 194 0 L 117 0 L 32 -735 L 110 -735 L 158 -106 L 211 -529 L 289 -529 L 342 -106 L 390 -735 L 468 -735 L 383 0 L 306 0 L 250 -394 Z M 486 -409 L 19 -409 L 19 -473 L 486 -473 Z M 486 -225 L 19 -225 L 19 -290 L 486 -290 Z " id="path27"/>
<path d="M 219 8 Q 194 8 169.5 1 Q 145 -6 125 -21 Q 105 -36 91.5 -57 Q 78 -78 70 -101.5 Q 62 -125 59 -150 Q 56 -175 56 -200 L 56 -320 Q 56 -345 59 -370 Q 62 -395 70 -418.5 Q 78 -442 91.5 -463 Q 105 -484 125 -499 Q 145 -514 169.5 -521 Q 194 -528 219 -528 Q 242 -528 264.5 -522 Q 287 -516 305.5 -502.5 Q 324 -489 337 -469.5 Q 350 -450 358 -429 L 358 -595 L 252 -595 L 252 -660 L 358 -660 L 358 -735 L 436 -735 L 436 -660 L 482 -660 L 482 -595 L 436 -595 L 436 0 L 358 0 L 358 -91 Q 350 -70 337 -50.5 Q 324 -31 305.5 -17.5 Q 287 -4 264.5 2 Q 242 8 219 8 Z M 249 -62 Q 266 -62 282.5 -66.5 Q 299 -71 312 -80.5 Q 325 -90 334.5 -104.5 Q 344 -119 349 -134.5 Q 354 -150 356 -166.5 Q 358 -183 358 -200 L 358 -320 Q 358 -337 356 -353.5 Q 354 -370 349 -385.5 Q 344 -401 334.5 -415.5 Q 325 -430 311.5 -440 Q 298 -450 282 -454 Q 266 -458 249 -458 Q 232 -458 215.5 -454 Q 199 -450 185 -440.5 Q 171 -431 160.5 -417 Q 150 -403 144 -387 Q 138 -371 136 -354 Q 134 -337 134 -320 L 134 -200 Q 134 -183 136 -166 Q 138 -149 144 -133 Q 150 -117 160.5 -103 Q 171 -89 185 -79.5 Q 199 -70 215.5 -66 Q 232 -62 249 -62 Z M 64 184 L 64 116 L 436 116 L 436 184 Z " id="path28"/>
<path d="M 247 8 Q 221 8 194.5 3 Q 168 -2 145 -15 Q 122 -28 104 -48 Q 86 -68 75 -92 Q 64 -116 60 -142.5 Q 56 -169 56 -195 L 56 -540 Q 56 -566 60 -592.5 Q 64 -619 75 -643 Q 86 -667 104 -687 Q 122 -707 145 -720 Q 168 -733 194.5 -738 Q 221 -743 247 -743 Q 272 -743 296.5 -739 Q 321 -735 343.5 -724 Q 366 -713 384.5 -695.5 Q 403 -678 415 -656.5 Q 427 -635 432.5 -610.5 Q 438 -586 438 -561 L 438 -555 L 360 -555 L 360 -559 Q 360 -582 353 -604 Q 346 -626 330 -642.5 Q 314 -659 292 -666 Q 270 -673 247 -673 Q 222 -673 198.5 -663 Q 175 -653 160 -633.5 Q 145 -614 139.5 -589.5 Q 134 -565 134 -540 L 134 -195 Q 134 -170 139.5 -145.5 Q 145 -121 160 -101.5 Q 175 -82 198.5 -72 Q 222 -62 247 -62 Q 270 -62 292 -69 Q 314 -76 330 -92.5 Q 346 -109 353 -131 Q 360 -153 360 -176 L 360 -180 L 438 -180 L 438 -174 Q 438 -149 432.5 -124.5 Q 427 -100 415 -78.5 Q 403 -57 384.5 -39.5 Q 366 -22 343.5 -11 Q 321 0 296.5 4 Q 272 8 247 8 Z M 18 -409 L 18 -473 L 248 -473 L 248 -409 Z M 18 -262 L 18 -326 L 248 -326 L 248 -262 Z " id="path29"/>
<path d="M 361 0 L 201 -324 L 157 -252 L 157 0 L 80 0 L 80 -735 L 157 -735 L 157 -398 L 357 -735 L 445 -735 L 247 -402 L 445 0 Z M 468 -336 L 32 -336 L 32 -400 L 468 -400 Z " id="path30"/>
<path d="M 211 0 L 211 -665 L 58 -665 L 58 -735 L 442 -735 L 442 -665 L 289 -665 L 289 0 Z M 101 -386 L 101 -453 L 399 -526 L 399 -459 Z M 101 -202 L 101 -269 L 399 -343 L 399 -275 Z " id="path31"/>
<path d="M 14 0 L 14 -735 L 71 -735 Q 89 -735 108 -731 Q 127 -727 143 -718 Q 159 -709 173 -695.5 Q 187 -682 196.5 -666 Q 206 -650 213 -632 Q 220 -614 224 -595.5 Q 228 -577 229 -558 Q 230 -539 230 -521 L 230 -215 Q 230 -196 229 -177 Q 228 -158 224 -139.5 Q 220 -121 213 -103 Q 206 -85 196.5 -69 Q 187 -53 173 -39.5 Q 159 -26 143 -17 Q 127 -8 108 -4 Q 89 -0 71 0 Z M 71 -70 Q 87 -70 103.5 -75.5 Q 120 -81 132 -91.5 Q 144 -102 152.5 -117 Q 161 -132 165.5 -148 Q 170 -164 172 -181 Q 174 -198 174 -215 L 174 -521 Q 174 -537 172 -554 Q 170 -571 165.5 -587 Q 161 -603 152.5 -618 Q 144 -633 132 -643.5 Q 120 -654 103.5 -659.5 Q 87 -665 71 -665 Z M 276 215 L 276 -320 Q 276 -336 276.5 -352 Q 277 -368 279 -384 Q 281 -400 284.5 -416.5 Q 288 -433 293 -448 Q 298 -463 306 -477.5 Q 314 -492 324.5 -503.5 Q 335 -515 350.5 -521.5 Q 366 -528 382 -528 Q 398 -528 413.5 -521.5 Q 429 -515 440 -504.5 Q 451 -494 459.5 -479 Q 468 -464 473.5 -449 Q 479 -434 482.5 -417.5 Q 486 -401 488.5 -385 Q 491 -369 491.5 -352.5 Q 492 -336 492 -320 L 492 -200 Q 492 -188 492 -175.5 Q 492 -163 491 -151 Q 490 -139 488.5 -126.5 Q 487 -114 484.5 -102 Q 482 -90 479 -78 Q 476 -66 472 -54.5 Q 468 -43 462.5 -32.5 Q 457 -22 448 -12 Q 439 -2 428 3 Q 417 8 405 8 Q 394 8 384.5 4 Q 375 0 367.5 -7.5 Q 360 -15 354.5 -24 Q 349 -33 345 -42.5 Q 341 -52 338 -62 Q 335 -72 333 -82 L 333 215 Z M 382 -62 Q 395 -62 405 -72.5 Q 415 -83 420 -95 Q 425 -107 428 -120 Q 431 -133 433 -146.5 Q 435 -160 435.5 -173.5 Q 436 -187 436 -200 L 436 -320 Q 436 -333 435.5 -346.5 Q 435 -360 433 -373.5 Q 431 -387 428 -400 Q 425 -413 420 -425 Q 415 -437 405 -447.5 Q 395 -458 382 -458 Q 369 -458 360 -447.5 Q 351 -437 346.5 -424.5 Q 342 -412 339.5 -399 Q 337 -386 335.5 -373 Q 334 -360 333.5 -346.5 Q 333 -333 333 -320 L 333 -200 Q 333 -187 333 -173.5 Q 333 -160 334.5 -147 Q 336 -134 339 -121 Q 342 -108 346.5 -95.5 Q 351 -83 360 -72.5 Q 369 -62 382 -62 Z " id="path32"/>
<path d="M 80 0 L 80 -463 L 32 -463 L 32 -497 L 80 -497 L 80 -542 L 32 -542 L 32 -576 L 80 -576 L 80 -735 L 256 -735 Q 279 -735 301.5 -731.5 Q 324 -728 345 -718.5 Q 366 -709 383.5 -694.5 Q 401 -680 414.5 -661 Q 428 -642 436 -620.5 Q 444 -599 448 -576 L 476 -576 L 476 -542 L 451 -542 Q 452 -536 452 -530.5 Q 452 -525 452 -520 Q 452 -514 452 -508.5 Q 452 -503 451 -497 L 476 -497 L 476 -463 L 448 -463 Q 444 -440 436 -418.5 Q 428 -397 414.5 -378.5 Q 401 -360 383.5 -345 Q 366 -330 345 -320.5 Q 324 -311 301.5 -307.5 Q 279 -304 256 -304 L 158 -304 L 158 0 Z M 368 -576 Q 363 -595 353 -612 Q 343 -629 328 -641.5 Q 313 -654 294 -659.5 Q 275 -665 256 -665 L 158 -665 L 158 -576 Z M 158 -497 L 373 -497 Q 374 -503 374 -508.5 Q 374 -514 374 -520 Q 374 -525 374 -530.5 Q 374 -536 373 -542 L 158 -542 Z M 256 -374 Q 275 -374 294 -379.5 Q 313 -385 328 -397.5 Q 343 -410 353 -427 Q 363 -444 368 -463 L 158 -463 L 158 -374 Z " id="path33"/>
<path d="M 219 8 Q 194 8 170 1.5 Q 146 -5 126 -19.5 Q 106 -34 92 -54.5 Q 78 -75 70 -98 Q 62 -121 59 -145.5 Q 56 -170 56 -195 L 56 -540 Q 56 -566 60 -592.5 Q 64 -619 75 -643 Q 86 -667 104 -687 Q 122 -707 145 -720 Q 168 -733 194.5 -738 Q 221 -743 247 -743 Q 272 -743 296.5 -739 Q 321 -735 343.5 -724 Q 366 -713 384.5 -695.5 Q 403 -678 415 -656.5 Q 427 -635 432.5 -610.5 Q 438 -586 438 -561 L 438 -555 L 360 -555 L 360 -559 Q 360 -582 353 -604 Q 346 -626 330 -642.5 Q 314 -659 292 -666 Q 270 -673 247 -673 Q 222 -673 198.5 -663 Q 175 -653 160 -633.5 Q 145 -614 139.5 -589.5 Q 134 -565 134 -540 L 134 -195 Q 134 -178 136 -161.5 Q 138 -145 144.5 -129.5 Q 151 -114 161.5 -101 Q 172 -88 186 -79 Q 200 -70 216 -66 Q 232 -62 249 -62 Q 265 -62 281.5 -66 Q 298 -70 311 -79.5 Q 324 -89 333.5 -102.5 Q 343 -116 348.5 -131 Q 354 -146 356 -162.5 Q 358 -179 358 -195 L 358 -330 L 250 -330 L 250 -400 L 436 -400 L 436 0 L 367 0 L 367 -115 Q 360 -90 347.5 -66.5 Q 335 -43 315.5 -25.5 Q 296 -8 270.5 0 Q 245 8 219 8 Z M 228 73 L 228 -809 L 272 -809 L 272 73 Z " id="path34"/>
<path d="M 44 0 L 93 -225 L 32 -225 L 32 -290 L 107 -290 L 120 -346 L 32 -346 L 32 -411 L 134 -411 L 151 -490 L 205 -735 L 295 -735 L 349 -490 L 366 -411 L 468 -411 L 468 -346 L 380 -346 L 393 -290 L 468 -290 L 468 -225 L 407 -225 L 456 0 L 376 0 L 330 -225 L 170 -225 L 124 0 Z M 208 -411 L 292 -411 L 276 -490 Q 269 -522 262.5 -554 Q 256 -586 250 -618 Q 244 -586 237.5 -554 Q 231 -522 224 -490 Z M 183 -290 L 317 -290 L 305 -346 L 195 -346 Z " id="path35"/>
<path d="M 247 8 Q 222 8 197 3.5 Q 172 -1 149.5 -12 Q 127 -23 109 -41 Q 91 -59 79 -81 Q 67 -103 61.5 -127.5 Q 56 -152 56 -178 Q 56 -203 62.5 -228.5 Q 69 -254 81 -276.5 Q 93 -299 110.5 -318 Q 128 -337 148 -353 Q 168 -369 190.5 -382 Q 213 -395 235.5 -407 Q 258 -419 280.5 -432.5 Q 303 -446 320.5 -464.5 Q 338 -483 348.5 -507.5 Q 359 -532 359 -557 Q 359 -580 352 -602 Q 345 -624 330 -640.5 Q 315 -657 293 -665 Q 271 -673 249 -673 Q 227 -673 205.5 -665.5 Q 184 -658 168.5 -641.5 Q 153 -625 146.5 -603.5 Q 140 -582 140 -560 L 140 -555 L 62 -555 L 62 -562 Q 62 -587 67.5 -611 Q 73 -635 84.5 -656.5 Q 96 -678 114 -695.5 Q 132 -713 154 -724 Q 176 -735 200 -739 Q 224 -743 249 -743 Q 274 -743 298.5 -738.5 Q 323 -734 345 -722.5 Q 367 -711 384.5 -693 Q 402 -675 413.5 -653 Q 425 -631 430.5 -606.5 Q 436 -582 436 -558 Q 436 -532 429.5 -507 Q 423 -482 411 -459 Q 399 -436 381.5 -417 Q 364 -398 344 -382 Q 324 -366 301.5 -353 Q 279 -340 256.5 -328 Q 234 -316 211.5 -302.5 Q 189 -289 171.5 -270.5 Q 154 -252 143.5 -227.5 Q 133 -203 133 -178 Q 133 -155 140.5 -132.5 Q 148 -110 164 -93.5 Q 180 -77 202 -69.5 Q 224 -62 247 -62 Q 270 -62 292 -69 Q 314 -76 329.5 -92.5 Q 345 -109 352.5 -131 Q 360 -153 360 -175 L 360 -180 L 438 -180 L 438 -173 Q 438 -148 432.5 -123.5 Q 427 -99 415 -77.5 Q 403 -56 384.5 -39 Q 366 -22 343.5 -11 Q 321 0 296.5 4 Q 272 8 247 8 Z M 468 -413 L 32 -413 L 32 -478 L 468 -478 Z M 468 -257 L 32 -257 L 32 -322 L 468 -322 Z " id="path36"/>
<path d="M 247 8 Q 221 8 194.5 3 Q 168 -2 145 -15 Q 122 -28 104 -48 Q 86 -68 75 -92 Q 64 -116 60 -142.5 Q 56 -169 56 -195 L 56 -540 Q 56 -566 60 -592.5 Q 64 -619 75 -643 Q 86 -667 104 -687 Q 122 -707 145 -720 Q 168 -733 194.5 -738 Q 221 -743 247 -743 Q 272 -743 296.5 -739 Q 321 -735 343.5 -724 Q 366 -713 384.5 -695.5 Q 403 -678 415 -656.5 Q 427 -635 432.5 -610.5 Q 438 -586 438 -561 L 438 -555 L 360 -555 L 360 -559 Q 360 -582 353 -604 Q 346 -626 330 -642.5 Q 314 -659 292 -666 Q 270 -673 247 -673 Q 222 -673 198.5 -663 Q 175 -653 160 -633.5 Q 145 -614 139.5 -589.5 Q 134 -565 134 -540 L 134 -195 Q 134 -170 139.5 -145.5 Q 145 -121 160 -101.5 Q 175 -82 198.5 -72 Q 222 -62 247 -62 Q 270 -62 292 -69 Q 314 -76 330 -92.5 Q 346 -109 353 -131 Q 360 -153 360 -176 L 360 -180 L 438 -180 L 438 -174 Q 438 -149 432.5 -124.5 Q 427 -100 415 -78.5 Q 403 -57 384.5 -39.5 Q 366 -22 343.5 -11 Q 321 0 296.5 4 Q 272 8 247 8 Z M 228 73 L 228 -809 L 272 -809 L 272 73 Z " id="path37"/>
<path d="M 58 -670 L 58 -735 L 442 -735 L 442 -670 Z M 211 0 L 211 -527 L 58 -527 L 58 -597 L 442 -597 L 442 -527 L 289 -527 L 289 0 Z " id="path38"/>
<path d="M 370 0 L 171 -304 L 64 -304 L 64 -374 L 193 -374 Q 216 -374 237 -381.5 Q 258 -389 274 -405 Q 290 -421 298.5 -442 Q 307 -463 310 -485 L 64 -485 L 64 -555 L 310 -555 Q 307 -577 298.5 -597.5 Q 290 -618 274 -634 Q 258 -650 237 -657.5 Q 216 -665 193 -665 L 64 -665 L 64 -735 L 436 -735 L 436 -665 L 349 -665 Q 367 -641 376 -612.5 Q 385 -584 388 -555 L 436 -555 L 436 -485 L 388 -485 Q 385 -456 376 -428 Q 367 -400 350.5 -376.5 Q 334 -353 309.5 -336 Q 285 -319 257 -311 L 460 0 Z " id="path39"/>
<path d="M 80 0 L 80 -138 L 18 -138 L 18 -203 L 80 -203 L 80 -304 L 18 -304 L 18 -374 L 80 -374 L 80 -735 L 256 -735 Q 283 -735 310.5 -729.5 Q 338 -724 362 -710 Q 386 -696 404 -674.5 Q 422 -653 433 -627.5 Q 444 -602 448 -574.5 Q 452 -547 452 -520 Q 452 -492 448 -464.5 Q 444 -437 433 -411.5 Q 422 -386 404 -364.5 Q 386 -343 362 -329 Q 338 -315 310.5 -309.5 Q 283 -304 256 -304 L 158 -304 L 158 -203 L 362 -203 L 362 -138 L 158 -138 L 158 0 Z M 256 -374 Q 274 -374 291 -378.5 Q 308 -383 322.5 -393 Q 337 -403 347.5 -418 Q 358 -433 364 -449.5 Q 370 -466 372 -484 Q 374 -502 374 -520 Q 374 -537 372 -555 Q 370 -573 364 -589.5 Q 358 -606 347.5 -621 Q 337 -636 322.5 -646 Q 308 -656 291 -660.5 Q 274 -665 256 -665 L 158 -665 L 158 -374 Z " id="path40"/>
<path d="M 158 107 L 158 0 L 64 0 L 64 -735 L 158 -735 L 158 -843 L 212 -843 L 212 -735 L 233 -735 Q 243 -735 253 -734.5 Q 263 -734 274 -733 L 274 -843 L 327 -843 L 327 -717 Q 352 -706 371.5 -687.5 Q 391 -669 403.5 -645.5 Q 416 -622 421 -595.5 Q 426 -569 426 -542 Q 426 -518 421.5 -493.5 Q 417 -469 405 -447.5 Q 393 -426 374.5 -409.5 Q 356 -393 334 -383 Q 361 -373 384.5 -356 Q 408 -339 423.5 -315 Q 439 -291 445.5 -263 Q 452 -235 452 -206 Q 452 -175 445.5 -145 Q 439 -115 422.5 -89 Q 406 -63 381 -44 Q 356 -25 327 -14 L 327 107 L 274 107 L 274 -2 Q 263 -1 253 -0.5 Q 243 -0 233 0 L 212 0 L 212 107 Z M 233 -415 Q 249 -415 265 -418.5 Q 281 -422 295 -430 Q 309 -438 320 -450.5 Q 331 -463 337.5 -477.5 Q 344 -492 346.5 -508.5 Q 349 -525 349 -541 Q 349 -557 346.5 -573 Q 344 -589 337.5 -604 Q 331 -619 320 -631 Q 309 -643 295 -651 Q 281 -659 265 -662.5 Q 249 -666 233 -666 L 141 -666 L 141 -415 Z M 141 -69 L 233 -69 Q 252 -69 270.5 -72.5 Q 289 -76 306 -84 Q 323 -92 337 -105 Q 351 -118 359.5 -134.5 Q 368 -151 371.5 -170 Q 375 -189 375 -208 Q 375 -226 371.5 -245 Q 368 -264 359.5 -280.5 Q 351 -297 337 -310.5 Q 323 -324 306 -332 Q 289 -340 270.5 -343 Q 252 -346 233 -346 L 141 -346 Z " id="path41"/>
<path d="M 247 8 Q 220 8 193.5 2.5 Q 167 -3 144 -16.5 Q 121 -30 103.5 -50.5 Q 86 -71 75 -95.5 Q 64 -120 60 -146.5 Q 56 -173 56 -200 L 56 -320 Q 56 -347 60 -373.5 Q 64 -400 75 -424.5 Q 86 -449 103.5 -469.5 Q 121 -490 144 -503.5 Q 167 -517 193.5 -522.5 Q 220 -528 247 -528 Q 272 -528 297 -524 Q 322 -520 344 -509 Q 366 -498 384.5 -480.5 Q 403 -463 415 -441 Q 427 -419 432.5 -394.5 Q 438 -370 438 -345 L 438 -340 L 360 -340 L 360 -343 Q 360 -366 353 -388 Q 346 -410 330 -426.5 Q 314 -443 292 -450.5 Q 270 -458 247 -458 Q 230 -458 213.5 -454 Q 197 -450 183 -440 Q 169 -430 159.5 -416 Q 150 -402 144 -386.5 Q 138 -371 136 -354 Q 134 -337 134 -320 L 134 -200 Q 134 -183 136 -166 Q 138 -149 144 -133.5 Q 150 -118 159.5 -104 Q 169 -90 183 -80 Q 197 -70 213.5 -66 Q 230 -62 247 -62 Q 270 -62 292 -69.5 Q 314 -77 330 -93.5 Q 346 -110 353 -132 Q 360 -154 360 -177 L 360 -180 L 438 -180 L 438 -175 Q 438 -150 432.5 -125.5 Q 427 -101 415 -79 Q 403 -57 384.5 -39.5 Q 366 -22 344 -11 Q 322 0 297 4 Q 272 8 247 8 Z M 64 184 L 64 116 L 436 116 L 436 184 Z " id="path42"/>
</defs>
<g>
<g data-source-text="0" fill="#20242e" transform="translate(174 41.292) rotate(0) scale(0.023999998)">
<use href="#path1" transform="translate(0 0)"/>
</g>
</g>
<g>
<g data-source-text="1" fill="#20242e" transform="translate(246 41.292) rotate(0) scale(0.023999998)">
<use href="#path2" transform="translate(0 0)"/>
</g>
</g>
<g>
<g data-source-text="2" fill="#20242e" transform="translate(318 41.292) rotate(0) scale(0.023999998)">
<use href="#path3" transform="translate(0 0)"/>
</g>
</g>
<g>
<g data-source-text="3" fill="#20242e" transform="translate(390 41.292) rotate(0) scale(0.023999998)">
<use href="#path4" transform="translate(0 0)"/>
</g>
</g>
<g>
<g data-source-text="4" fill="#20242e" transform="translate(462 41.292) rotate(0) scale(0.023999998)">
<use href="#path5" transform="translate(0 0)"/>
</g>
</g>
<g>
<g data-source-text="5" fill="#20242e" transform="translate(534 41.292) rotate(0) scale(0.023999998)">
<use href="#path6" transform="translate(0 0)"/>
</g>
</g>
<g>
<g data-source-text="6" fill="#20242e" transform="translate(606 41.292) rotate(0) scale(0.023999998)">
<use href="#path7" transform="translate(0 0)"/>
</g>
</g>
<g>
<g data-source-text="7" fill="#20242e" transform="translate(678 41.292) rotate(0) scale(0.023999998)">
<use href="#path8" transform="translate(0 0)"/>
</g>
</g>
<g>
<g data-source-text="8" fill="#20242e" transform="translate(750 41.292) rotate(0) scale(0.023999998)">
<use href="#path9" transform="translate(0 0)"/>
</g>
</g>
<g>
<g data-source-text="9" fill="#20242e" transform="translate(822 41.292) rotate(0) scale(0.023999998)">
<use href="#path10" transform="translate(0 0)"/>
</g>
</g>
<g>
<g data-source-text="A" fill="#20242e" transform="translate(894 41.292) rotate(0) scale(0.023999998)">
<use href="#path11" transform="translate(0 0)"/>
</g>
</g>
<g>
<g data-source-text="B" fill="#20242e" transform="translate(966 41.292) rotate(0) scale(0.023999998)">
<use href="#path12" transform="translate(0 0)"/>
</g>
</g>
<g>
<g data-source-text="C" fill="#20242e" transform="translate(1038 41.292) rotate(0) scale(0.023999998)">
<use href="#path13" transform="translate(0 0)"/>
</g>
</g>
<g>
<g data-source-text="D" fill="#20242e" transform="translate(1110 41.292) rotate(0) scale(0.023999998)">
<use href="#path14" transform="translate(0 0)"/>
</g>
</g>
<g>
<g data-source-text="E" fill="#20242e" transform="translate(1182 41.292) rotate(0) scale(0.023999998)">
<use href="#path15" transform="translate(0 0)"/>
</g>
</g>
<g>
<g data-source-text="F" fill="#20242e" transform="translate(1254 41.292) rotate(0) scale(0.023999998)">
<use href="#path16" transform="translate(0 0)"/>
</g>
</g>
<g>
<g data-source-text="U+20A0" fill="#20242e" transform="translate(36 113.292) rotate(0) scale(0.023999998)">
<use href="#path17" transform="translate(0 0)"/>
<use href="#path18" transform="translate(500 0)"/>
<use href="#path3" transform="translate(1000 0)"/>
<use href="#path1" transform="translate(1500 0)"/>
<use href="#path11" transform="translate(2000 0)"/>
<use href="#path1" transform="translate(2500 0)"/>
</g>
</g>
<g>
<g data-source-text="" fill="#20242e40" transform="translate(168 118.584) rotate(0) scale(0.047999997)">
<use href="#path19" transform="translate(0 0)"/>
</g>
</g>
<g>
<g data-source-text="₡" fill="#20242e" transform="translate(240 118.584) rotate(0) scale(0.047999997)">
<use href="#path20" transform="translate(0 0)"/>
</g>
</g>
<g>
<g data-source-text="" fill="#20242e40" transform="translate(312 118.584) rotate(0) scale(0.047999997)">
<use href="#path19" transform="translate(0 0)"/>
</g>
</g>
<g>
<g data-source-text="₣" fill="#20242e" transform="translate(384 118.584) rotate(0) scale(0.047999997)">
<use href="#path21" transform="translate(0 0)"/>
</g>
</g>
<g>
<g data-source-text="₤" fill="#20242e" transform="translate(456 118.584) rotate(0) scale(0.047999997)">
<use href="#path22" transform="translate(0 0)"/>
</g>
</g>
<g>
<g data-source-text="₥" fill="#20242e" transform="translate(528 118.584) rotate(0) scale(0.047999997)">
<use href="#path23" transform="translate(0 0)"/>
</g>
</g>
<g>
<g data-source-text="₦" fill="#20242e" transform="translate(600 118.584) rotate(0) scale(0.047999997)">
<use href="#path24" transform="translate(0 0)"/>
</g>
</g>
<g>
<g data-source-text="₧" fill="#20242e" transform="translate(672 118.584) rotate(0) scale(0.047999997)">
<use href="#path25" transform="translate(0 0)"/>
</g>
</g>
<g>
<g data-source-text="₨" fill="#20242e" transform="translate(744 118.584) rotate(0) scale(0.047999997)">
<use href="#path26" transform="translate(0 0)"/>
</g>
</g>
<g>
<g data-source-text="₩" fill="#20242e" transform="translate(816 118.584) rotate(0) scale(0.047999997)">
<use href="#path27" transform="translate(0 0)"/>
</g>
</g>
<g>
<g data-source-text="" fill="#20242e40" transform="translate(888 118.584) rotate(0) scale(0.047999997)">
<use href="#path19" transform="translate(0 0)"/>
</g>
</g>
<g>
<g data-source-text="₫" fill="#20242e" transform="translate(960 118.584) rotate(0) scale(0.047999997)">
<use href="#path28" transform="translate(0 0)"/>
</g>
</g>
<g>
<g data-source-text="€" fill="#20242e" transform="translate(1032 118.584) rotate(0) scale(0.047999997)">
<use href="#path29" transform="translate(0 0)"/>
</g>
</g>
<g>
<g data-source-text="₭" fill="#20242e" transform="translate(1104 118.584) rotate(0) scale(0.047999997)">
<use href="#path30" transform="translate(0 0)"/>
</g>
</g>
<g>
<g data-source-text="₮" fill="#20242e" transform="translate(1176 118.584) rotate(0) scale(0.047999997)">
<use href="#path31" transform="translate(0 0)"/>
</g>
</g>
<g>
<g data-source-text="₯" fill="#20242e" transform="translate(1248 118.584) rotate(0) scale(0.047999997)">
<use href="#path32" transform="translate(0 0)"/>
</g>
</g>
<g>
<g data-source-text="U+20B0" fill="#20242e" transform="translate(36 185.292) rotate(0) scale(0.023999998)">
<use href="#path17" transform="translate(0 0)"/>
<use href="#path18" transform="translate(500 0)"/>
<use href="#path3" transform="translate(1000 0)"/>
<use href="#path1" transform="translate(1500 0)"/>
<use href="#path12" transform="translate(2000 0)"/>
<use href="#path1" transform="translate(2500 0)"/>
</g>
</g>
<g>
<g data-source-text="" fill="#20242e40" transform="translate(168 190.584) rotate(0) scale(0.047999997)">
<use href="#path19" transform="translate(0 0)"/>
</g>
</g>
<g>
<g data-source-text="₱" fill="#20242e" transform="translate(240 190.584) rotate(0) scale(0.047999997)">
<use href="#path33" transform="translate(0 0)"/>
</g>
</g>
<g>
<g data-source-text="₲" fill="#20242e" transform="translate(312 190.584) rotate(0) scale(0.047999997)">
<use href="#path34" transform="translate(0 0)"/>
</g>
</g>
<g>
<g data-source-text="₳" fill="#20242e" transform="translate(384 190.584) rotate(0) scale(0.047999997)">
<use href="#path35" transform="translate(0 0)"/>
</g>
</g>
<g>
<g data-source-text="₴" fill="#20242e" transform="translate(456 190.584) rotate(0) scale(0.047999997)">
<use href="#path36" transform="translate(0 0)"/>
</g>
</g>
<g>
<g data-source-text="₵" fill="#20242e" transform="translate(528 190.584) rotate(0) scale(0.047999997)">
<use href="#path37" transform="translate(0 0)"/>
</g>
</g>
<g>
<g data-source-text="" fill="#20242e40" transform="translate(600 190.584) rotate(0) scale(0.047999997)">
<use href="#path19" transform="translate(0 0)"/>
</g>
</g>
<g>
<g data-source-text="" fill="#20242e40" transform="translate(672 190.584) rotate(0) scale(0.047999997)">
<use href="#path19" transform="translate(0 0)"/>
</g>
</g>
<g>
<g data-source-text="₸" fill="#20242e" transform="translate(744 190.584) rotate(0) scale(0.047999997)">
<use href="#path38" transform="translate(0 0)"/>
</g>
</g>
<g>
<g data-source-text="₹" fill="#20242e" transform="translate(816 190.584) rotate(0) scale(0.047999997)">
<use href="#path39" transform="translate(0 0)"/>
</g>
</g>
<g>
<g data-source-text="" fill="#20242e40" transform="translate(888 190.584) rotate(0) scale(0.047999997)">
<use href="#path19" transform="translate(0 0)"/>
</g>
</g>
<g>
<g data-source-text="" fill="#20242e40" transform="translate(960 190.584) rotate(0) scale(0.047999997)">
<use href="#path19" transform="translate(0 0)"/>
</g>
</g>
<g>
<g data-source-text="" fill="#20242e40" transform="translate(1032 190.584) rotate(0) scale(0.047999997)">
<use href="#path19" transform="translate(0 0)"/>
</g>
</g>
<g>
<g data-source-text="₽" fill="#20242e" transform="translate(1104 190.584) rotate(0) scale(0.047999997)">
<use href="#path40" transform="translate(0 0)"/>
</g>
</g>
<g>
<g data-source-text="" fill="#20242e40" transform="translate(1176 190.584) rotate(0) scale(0.047999997)">
<use href="#path19" transform="translate(0 0)"/>
</g>
</g>
<g>
<g data-source-text="₿" fill="#20242e" transform="translate(1248 190.584) rotate(0) scale(0.047999997)">
<use href="#path41" transform="translate(0 0)"/>
</g>
</g>
<g>
<g data-source-text="U+20C0" fill="#20242e" transform="translate(36 257.292) rotate(0) scale(0.023999998)">
<use href="#path17" transform="translate(0 0)"/>
<use href="#path18" transform="translate(500 0)"/>
<use href="#path3" transform="translate(1000 0)"/>
<use href="#path1" transform="translate(1500 0)"/>
<use href="#path13" transform="translate(2000 0)"/>
<use href="#path1" transform="translate(2500 0)"/>
</g>
</g>
<g>
<g data-source-text="⃀" fill="#20242e" transform="translate(168 262.584) rotate(0) scale(0.047999997)">
<use href="#path42" transform="translate(0 0)"/>
</g>
</g>
<g>
<g data-source-text="" fill="#20242e40" transform="translate(240 262.584) rotate(0) scale(0.047999997)">
<use href="#path19" transform="translate(0 0)"/>
</g>
</g>
<g>
<g data-source-text="" fill="#20242e40" transform="translate(312 262.584) rotate(0) scale(0.047999997)">
<use href="#path19" transform="translate(0 0)"/>
</g>
</g>
<g>
<g data-source-text="" fill="#20242e40" transform="translate(384 262.584) rotate(0) scale(0.047999997)">
<use href="#path19" transform="translate(0 0)"/>
</g>
</g>
<g>
<g data-source-text="" fill="#20242e40" transform="translate(456 262.584) rotate(0) scale(0.047999997)">
<use href="#path19" transform="translate(0 0)"/>
</g>
</g>
<g>
<g data-source-text="" fill="#20242e40" transform="translate(528 262.584) rotate(0) scale(0.047999997)">
<use href="#path19" transform="translate(0 0)"/>
</g>
</g>
<g>
<g data-source-text="" fill="#20242e40" transform="translate(600 262.584) rotate(0) scale(0.047999997)">
<use href="#path19" transform="translate(0 0)"/>
</g>
</g>
<g>
<g data-source-text="" fill="#20242e40" transform="translate(672 262.584) rotate(0) scale(0.047999997)">
<use href="#path19" transform="translate(0 0)"/>
</g>
</g>
<g>
<g data-source-text="" fill="#20242e40" transform="translate(744 262.584) rotate(0) scale(0.047999997)">
<use href="#path19" transform="translate(0 0)"/>
</g>
</g>
<g>
<g data-source-text="" fill="#20242e40" transform="translate(816 262.584) rotate(0) scale(0.047999997)">
<use href="#path19" transform="translate(0 0)"/>
</g>
</g>
<g>
<g data-source-text="" fill="#20242e40" transform="translate(888 262.584) rotate(0) scale(0.047999997)">
<use href="#path19" transform="translate(0 0)"/>
</g>
</g>
<g>
<g data-source-text="" fill="#20242e40" transform="translate(960 262.584) rotate(0) scale(0.047999997)">
<use href="#path19" transform="translate(0 0)"/>
</g>
</g>
<g>
<g data-source-text="" fill="#20242e40" transform="translate(1032 262.584) rotate(0) scale(0.047999997)">
<use href="#path19" transform="translate(0 0)"/>
</g>
</g>
<g>
<g data-source-text="" fill="#20242e40" transform="translate(1104 262.584) rotate(0) scale(0.047999997)">
<use href="#path19" transform="translate(0 0)"/>
</g>
</g>
<g>
<g data-source-text="" fill="#20242e40" transform="translate(1176 262.584) rotate(0) scale(0.047999997)">
<use href="#path19" transform="translate(0 0)"/>
</g>
</g>
<g>
<g data-source-text="" fill="#20242e40" transform="translate(1248 262.584) rotate(0) scale(0.047999997)">
<use href="#path19" transform="translate(0 0)"/>
</g>
</g>
</svg>