<?xml version="1.0" encoding="UTF-8" standalone="no"?>
<svg height="432" viewBox="0 0 1296 432" width="1296" xmlns="http://www.w3.org/2000/svg">
<defs>
<path d="M 250 8 Q 223 8 196 3 Q 169 -2 145 -15 Q 121 -28 102.5 -48.5 Q 84 -69 72.5 -94 Q 61 -119 56.5 -146 Q 52 -173 52 -200 L 52 -535 Q 52 -562 56.5 -589 Q 61 -616 72.5 -641 Q 84 -666 102.5 -686.5 Q 121 -707 145 -720 Q 169 -733 196 -738 Q 223 -743 250 -743 Q 277 -743 304 -738 Q 331 -733 355 -720 Q 379 -707 397.5 -686.5 Q 416 -666 427.5 -641 Q 439 -616 443.5 -589 Q 448 -562 448 -535 L 448 -200 Q 448 -173 443.5 -146 Q 439 -119 427.5 -94 Q 416 -69 397.5 -48.5 Q 379 -28 355 -15 Q 331 -2 304 3 Q 277 8 250 8 Z M 152 -338 L 348 -493 L 348 -535 Q 348 -557 343 -579 Q 338 -601 325.5 -618.5 Q 313 -636 292.5 -645.5 Q 272 -655 250 -655 Q 228 -655 207.5 -645.5 Q 187 -636 174.5 -618.5 Q 162 -601 157 -579 Q 152 -557 152 -535 Z M 250 -80 Q 272 -80 292.5 -89.5 Q 313 -99 325.5 -116.5 Q 338 -134 343 -156 Q 348 -178 348 -200 L 348 -397 L 152 -242 L 152 -200 Q 152 -178 157 -156 Q 162 -134 174.5 -116.5 Q 187 -99 207.5 -89.5 Q 228 -80 250 -80 Z " id="path1"/>
<path d="M 230 0 L 230 -632 L 110 -528 L 55 -584 L 230 -735 L 330 -735 L 330 0 Z " id="path2"/>
<path d="M 60 0 L 60 -1 Q 60 -27 61 -54 Q 62 -81 65.5 -107 Q 69 -133 77 -158.5 Q 85 -184 96.5 -208 Q 108 -232 123 -253.5 Q 138 -275 156 -294.5 Q 174 -314 194 -331 Q 214 -348 235.5 -364 Q 257 -380 277.5 -397 Q 298 -414 313 -435.5 Q 328 -457 336 -483 Q 344 -509 344 -535 Q 344 -557 339.5 -578 Q 335 -599 323.5 -617 Q 312 -635 292 -645 Q 272 -655 251 -655 Q 231 -655 212.5 -647.5 Q 194 -640 181.5 -625 Q 169 -610 163.5 -591 Q 158 -572 158 -552 L 158 -548 L 58 -548 L 58 -555 Q 58 -581 63.5 -606 Q 69 -631 81 -653 Q 93 -675 111.5 -693 Q 130 -711 152.5 -722.5 Q 175 -734 200.5 -738.5 Q 226 -743 251 -743 Q 278 -743 304.5 -737.5 Q 331 -732 354.5 -719 Q 378 -706 396 -685.5 Q 414 -665 425 -640.5 Q 436 -616 440 -589 Q 444 -562 444 -535 Q 444 -501 435 -468 Q 426 -435 407.5 -406 Q 389 -377 364 -353.5 Q 339 -330 312.5 -308.5 Q 286 -287 261 -264 Q 236 -241 216 -213 Q 196 -185 183 -153.5 Q 170 -122 165 -88 L 440 -88 L 440 0 Z " id="path3"/>
<path d="M 253 8 Q 227 8 201 4 Q 175 -0 151 -11.5 Q 127 -23 107.5 -40.5 Q 88 -58 75.5 -81 Q 63 -104 56.5 -129.5 Q 50 -155 50 -181 L 50 -187 L 150 -187 L 150 -184 Q 150 -163 157 -143 Q 164 -123 178 -108 Q 192 -93 212 -86.5 Q 232 -80 253 -80 Q 275 -80 296 -88.5 Q 317 -97 330.5 -114.5 Q 344 -132 350 -154 Q 356 -176 356 -198 Q 356 -217 352 -235.5 Q 348 -254 339 -271 Q 330 -288 316.5 -301 Q 303 -314 286 -322 Q 269 -330 250 -332 Q 231 -334 212 -334 L 212 -422 Q 229 -422 246 -424 Q 263 -426 278.5 -433 Q 294 -440 306 -452.5 Q 318 -465 325.5 -480.5 Q 333 -496 336.5 -513 Q 340 -530 340 -547 Q 340 -566 335.5 -585.5 Q 331 -605 320 -621.5 Q 309 -638 291 -646.5 Q 273 -655 253 -655 Q 234 -655 216 -647 Q 198 -639 187 -624 Q 176 -609 171 -590 Q 166 -571 166 -553 L 166 -548 L 66 -548 L 66 -556 Q 66 -581 71.5 -605.5 Q 77 -630 88 -652 Q 99 -674 116.5 -692.5 Q 134 -711 156.5 -722.5 Q 179 -734 203.5 -738.5 Q 228 -743 253 -743 Q 278 -743 303.5 -738 Q 329 -733 351 -721 Q 373 -709 390.5 -690 Q 408 -671 419 -648 Q 430 -625 435 -600 Q 440 -575 440 -550 Q 440 -524 434 -498.5 Q 428 -473 416 -450.5 Q 404 -428 385 -409.5 Q 366 -391 343 -379 Q 370 -368 391.5 -348.5 Q 413 -329 427.5 -304.5 Q 442 -280 449 -252 Q 456 -224 456 -196 Q 456 -168 450 -141.5 Q 444 -115 432 -91 Q 420 -67 401 -47 Q 382 -27 358 -14.5 Q 334 -2 307 3 Q 280 8 253 8 Z " id="path4"/>
<path d="M 282 0 L 282 -188 L 52 -188 L 52 -275 L 276 -735 L 377 -735 L 152 -275 L 282 -275 L 282 -435 L 383 -435 L 383 -275 L 440 -275 L 440 -188 L 383 -188 L 383 0 Z " id="path5"/>
<path d="M 252 8 Q 227 8 202.5 3.5 Q 178 -1 155.5 -12 Q 133 -23 114.5 -41 Q 96 -59 84 -80.5 Q 72 -102 65.5 -126.5 Q 59 -151 58 -176 L 159 -176 Q 160 -158 166.5 -139.5 Q 173 -121 185.5 -107 Q 198 -93 216 -86.5 Q 234 -80 252 -80 Q 269 -80 285 -87 Q 301 -94 312.5 -107 Q 324 -120 330.5 -135.5 Q 337 -151 341 -167.5 Q 345 -184 346.5 -201 Q 348 -218 348 -235 Q 348 -252 346.5 -269 Q 345 -286 341.5 -302.5 Q 338 -319 331.5 -334.5 Q 325 -350 314.5 -363 Q 304 -376 288 -383.5 Q 272 -391 256 -391 Q 240 -391 224 -387 Q 208 -383 195.5 -373.5 Q 183 -364 176 -349.5 Q 169 -335 168 -319 L 68 -319 L 68 -735 L 421 -735 L 421 -647 L 168 -647 L 168 -464 Q 189 -472 211 -475 Q 233 -478 256 -478 Q 285 -478 313.5 -470.5 Q 342 -463 365.5 -445.5 Q 389 -428 405.5 -403 Q 422 -378 431.5 -350.5 Q 441 -323 444.5 -294 Q 448 -265 448 -235 Q 448 -206 444.5 -176.5 Q 441 -147 431 -119 Q 421 -91 404.5 -66.5 Q 388 -42 364 -24.5 Q 340 -7 311 0.5 Q 282 8 252 8 Z " id="path6"/>
<path d="M 250 8 Q 221 8 192.5 1.5 Q 164 -5 140 -21 Q 116 -37 98.5 -60.5 Q 81 -84 70.5 -111 Q 60 -138 56 -166.5 Q 52 -195 52 -224 Q 52 -268 59.5 -311 Q 67 -354 81 -395.5 Q 95 -437 113 -477 Q 131 -517 150 -556 L 238 -735 L 347 -735 L 240 -517 Q 228 -492 216 -467 Q 204 -442 194 -416 Q 212 -436 238.5 -446 Q 265 -456 292 -456 Q 318 -456 343.5 -447 Q 369 -438 387.5 -419.5 Q 406 -401 418 -377 Q 430 -353 436.5 -328 Q 443 -303 445.5 -276.5 Q 448 -250 448 -224 Q 448 -195 444 -166.5 Q 440 -138 429.5 -111 Q 419 -84 401.5 -60.5 Q 384 -37 360 -21 Q 336 -5 307.5 1.5 Q 279 8 250 8 Z M 250 -80 Q 266 -80 282 -85.5 Q 298 -91 309.5 -102.5 Q 321 -114 328.5 -129 Q 336 -144 340.5 -159.5 Q 345 -175 346.5 -191.5 Q 348 -208 348 -224 Q 348 -240 346.5 -256.5 Q 345 -273 340.5 -289 Q 336 -305 328.5 -319.5 Q 321 -334 309.5 -345.5 Q 298 -357 282 -362.5 Q 266 -368 250 -368 Q 235 -368 221 -363.5 Q 207 -359 195.5 -349.5 Q 184 -340 176 -327.5 Q 168 -315 163.5 -301 Q 159 -287 156.5 -272.5 Q 154 -258 153 -243 Q 153 -238 152.5 -233.5 Q 152 -229 152 -224 Q 152 -208 153.5 -191.5 Q 155 -175 159.5 -159.5 Q 164 -144 171.5 -129 Q 179 -114 190.5 -102.5 Q 202 -91 218 -85.5 Q 234 -80 250 -80 Z " id="path7"/>
<path d="M 138 0 L 336 -647 L 60 -647 L 60 -735 L 440 -735 L 440 -647 L 242 0 Z " id="path8"/>
<path d="M 250 8 Q 225 8 200 4 Q 175 -0 152 -10 Q 129 -20 109.5 -37 Q 90 -54 77.5 -75.5 Q 65 -97 58.5 -121.5 Q 52 -146 52 -172 Q 52 -203 61.5 -232.5 Q 71 -262 88 -288.5 Q 105 -315 127 -336.5 Q 149 -358 174 -378 Q 152 -396 132.5 -417 Q 113 -438 98.5 -462.5 Q 84 -487 76 -514.5 Q 68 -542 68 -570 Q 68 -594 73.5 -617.5 Q 79 -641 90.5 -661.5 Q 102 -682 119.5 -698.5 Q 137 -715 158 -725 Q 179 -735 202.5 -739 Q 226 -743 250 -743 Q 274 -743 297.5 -739 Q 321 -735 342 -725 Q 363 -715 380.5 -698.5 Q 398 -682 409.5 -661.5 Q 421 -641 426.5 -617.5 Q 432 -594 432 -570 Q 432 -542 424 -514.5 Q 416 -487 401.5 -462.5 Q 387 -438 367.5 -417 Q 348 -396 326 -378 Q 351 -358 373 -336.5 Q 395 -315 412 -288.5 Q 429 -262 438.5 -232.5 Q 448 -203 448 -172 Q 448 -146 441.5 -121.5 Q 435 -97 422.5 -75.5 Q 410 -54 390.5 -37 Q 371 -20 348 -10 Q 325 -0 300 4 Q 275 8 250 8 Z M 250 -434 Q 266 -447 280.5 -461.5 Q 295 -476 306.5 -493 Q 318 -510 325 -529.5 Q 332 -549 332 -569 Q 332 -586 327 -602.5 Q 322 -619 310.5 -631.5 Q 299 -644 283 -649.5 Q 267 -655 250 -655 Q 233 -655 217 -649.5 Q 201 -644 189.5 -631.5 Q 178 -619 173 -602.5 Q 168 -586 168 -569 Q 168 -549 175 -529.5 Q 182 -510 193.5 -493 Q 205 -476 219.5 -461.5 Q 234 -447 250 -434 Z M 250 -80 Q 269 -80 288 -85.5 Q 307 -91 320.5 -104 Q 334 -117 341 -135.5 Q 348 -154 348 -173 Q 348 -196 339.5 -217.5 Q 331 -239 317 -257.5 Q 303 -276 285.5 -291 Q 268 -306 250 -320 Q 232 -306 214.5 -291 Q 197 -276 183 -257.5 Q 169 -239 160.5 -217.5 Q 152 -196 152 -173 Q 152 -154 159 -135.5 Q 166 -117 179.5 -104 Q 193 -91 212 -85.5 Q 231 -80 250 -80 Z " id="path9"/>
<path d="M 262 0 L 153 0 L 260 -218 Q 272 -243 284 -268 Q 296 -293 306 -319 Q 288 -299 261.5 -289 Q 235 -279 208 -279 Q 182 -279 156.5 -288 Q 131 -297 112.5 -315.5 Q 94 -334 82 -358 Q 70 -382 63.5 -407 Q 57 -432 54.5 -458.5 Q 52 -485 52 -511 Q 52 -540 56 -568.5 Q 60 -597 70.5 -624 Q 81 -651 98.5 -674.5 Q 116 -698 140 -714 Q 164 -730 192.5 -736.5 Q 221 -743 250 -743 Q 279 -743 307.5 -736.5 Q 336 -730 360 -714 Q 384 -698 401.5 -674.5 Q 419 -651 429.5 -624 Q 440 -597 444 -568.5 Q 448 -540 448 -511 Q 448 -467 440.5 -424 Q 433 -381 419 -339.5 Q 405 -298 387 -258 Q 369 -218 350 -179 Z M 250 -367 Q 265 -367 279 -371.5 Q 293 -376 304.5 -385.5 Q 316 -395 324 -407.5 Q 332 -420 336.5 -434 Q 341 -448 343.5 -462.5 Q 346 -477 347 -492 Q 347 -497 347.5 -501.5 Q 348 -506 348 -511 Q 348 -527 346.5 -543.5 Q 345 -560 340.5 -575.5 Q 336 -591 328.5 -606 Q 321 -621 309.5 -632.5 Q 298 -644 282 -649.5 Q 266 -655 250 -655 Q 234 -655 218 -649.5 Q 202 -644 190.5 -632.5 Q 179 -621 171.5 -606 Q 164 -591 159.5 -575.5 Q 155 -560 153.5 -543.5 Q 152 -527 152 -511 Q 152 -495 153.5 -478.5 Q 155 -462 159.5 -446 Q 164 -430 171.5 -415.5 Q 179 -401 190.5 -389.5 Q 202 -378 218 -372.5 Q 234 -367 250 -367 Z " id="path10"/>
<path d="M 39 0 L 53 -70 L 192 -735 L 308 -735 L 461 0 L 359 0 L 326 -172 L 174 -172 L 141 0 Z M 310 -260 L 267 -490 Q 263 -513 258.5 -536 Q 254 -559 250 -582 Q 246 -559 241.5 -536 Q 237 -513 233 -490 L 190 -260 Z " id="path11"/>
<path d="M 60 0 L 60 -735 L 235 -735 Q 261 -735 287 -730.5 Q 313 -726 336.5 -714 Q 360 -702 378.5 -682.5 Q 397 -663 408.5 -639.5 Q 420 -616 424.5 -590 Q 429 -564 429 -538 Q 429 -515 425.5 -492 Q 422 -469 411.5 -448.5 Q 401 -428 384.5 -411 Q 368 -394 348 -383 Q 373 -373 394.5 -355.5 Q 416 -338 430.5 -314.5 Q 445 -291 450.5 -264 Q 456 -237 456 -210 Q 456 -181 450.5 -152.5 Q 445 -124 431 -98.5 Q 417 -73 395.5 -53.5 Q 374 -34 347.5 -21.5 Q 321 -9 292.5 -4.5 Q 264 -0 235 0 Z M 160 -424 L 235 -424 Q 256 -424 275.5 -432.5 Q 295 -441 307.5 -457.5 Q 320 -474 324.5 -494.5 Q 329 -515 329 -536 Q 329 -557 324.5 -577.5 Q 320 -598 307.5 -614.5 Q 295 -631 275.5 -639 Q 256 -647 235 -647 L 160 -647 Z M 160 -88 L 235 -88 Q 251 -88 267.5 -91 Q 284 -94 298.5 -101.5 Q 313 -109 324.5 -121 Q 336 -133 343 -148 Q 350 -163 353 -179 Q 356 -195 356 -212 Q 356 -228 353 -244.5 Q 350 -261 343 -276 Q 336 -291 324.5 -303 Q 313 -315 298.5 -322.5 Q 284 -330 267.5 -333 Q 251 -336 235 -336 L 160 -336 Z " id="path12"/>
<path d="M 247 8 Q 220 8 193 3 Q 166 -2 142.5 -15.5 Q 119 -29 101 -49.5 Q 83 -70 71.5 -94.5 Q 60 -119 56 -146 Q 52 -173 52 -200 L 52 -535 Q 52 -562 56 -589 Q 60 -616 71.5 -640.5 Q 83 -665 101 -685.5 Q 119 -706 142.5 -719.5 Q 166 -733 193 -738 Q 220 -743 247 -743 Q 273 -743 298 -738.5 Q 323 -734 346 -723 Q 369 -712 387.5 -694 Q 406 -676 418 -653.5 Q 430 -631 436 -606 Q 442 -581 442 -555 L 442 -548 L 342 -548 L 342 -552 Q 342 -572 336 -591.5 Q 330 -611 317.5 -626 Q 305 -641 286 -648 Q 267 -655 247 -655 Q 225 -655 205 -645.5 Q 185 -636 173 -618 Q 161 -600 156.5 -578.5 Q 152 -557 152 -535 L 152 -200 Q 152 -178 156.5 -156.5 Q 161 -135 173 -117 Q 185 -99 205 -89.5 Q 225 -80 247 -80 Q 267 -80 286 -87 Q 305 -94 317.5 -109 Q 330 -124 336 -143.5 Q 342 -163 342 -183 L 342 -187 L 442 -187 L 442 -180 Q 442 -154 436 -129 Q 430 -104 418 -81.5 Q 406 -59 387.5 -41 Q 369 -23 346 -12 Q 323 -1 298 3.5 Q 273 8 247 8 Z " id="path13"/>
<path d="M 60 0 L 60 -735 L 220 -735 Q 250 -735 280 -730 Q 310 -725 337 -712 Q 364 -699 386.5 -678.5 Q 409 -658 423 -631.5 Q 437 -605 442.5 -575 Q 448 -545 448 -515 L 448 -220 Q 448 -190 442.5 -160 Q 437 -130 423 -103.5 Q 409 -77 386.5 -56.5 Q 364 -36 337 -23 Q 310 -10 280 -5 Q 250 -0 220 0 Z M 160 -88 L 220 -88 Q 237 -88 254.5 -91 Q 272 -94 287.5 -102.5 Q 303 -111 315 -124 Q 327 -137 334.5 -152.5 Q 342 -168 345 -185.5 Q 348 -203 348 -220 L 348 -515 Q 348 -532 345 -549.5 Q 342 -567 334.5 -582.5 Q 327 -598 315 -611 Q 303 -624 287.5 -632.5 Q 272 -641 254.5 -644 Q 237 -647 220 -647 L 160 -647 Z " id="path14"/>
<path d="M 68 0 L 68 -735 L 440 -735 L 440 -647 L 168 -647 L 168 -426 L 383 -426 L 383 -338 L 168 -338 L 168 -88 L 440 -88 L 440 0 Z " id="path15"/>
<path d="M 90 0 L 90 -735 L 440 -735 L 440 -647 L 190 -647 L 190 -426 L 383 -426 L 383 -338 L 190 -338 L 190 0 Z " id="path16"/>
<path d="M 250 8 Q 223 8 196.5 2.5 Q 170 -3 147 -16.5 Q 124 -30 106.5 -50.5 Q 89 -71 78.5 -95.5 Q 68 -120 64 -146.5 Q 60 -173 60 -200 L 60 -735 L 160 -735 L 160 -200 Q 160 -186 161.5 -172 Q 163 -158 167.5 -144.5 Q 172 -131 179.5 -118.5 Q 187 -106 197.5 -97 Q 208 -88 222 -84 Q 236 -80 250 -80 Q 264 -80 278 -84 Q 292 -88 302.5 -97 Q 313 -106 320.5 -118.5 Q 328 -131 332.5 -144.5 Q 337 -158 338.5 -172 Q 340 -186 340 -200 L 340 -735 L 440 -735 L 440 -200 Q 440 -173 436 -146.5 Q 432 -120 421.5 -95.5 Q 411 -71 393.5 -50.5 Q 376 -30 353 -16.5 Q 330 -3 303.5 2.5 Q 277 8 250 8 Z " id="path17"/>
<path d="M 296 -142 L 204 -142 L 204 -300 L 60 -300 L 60 -380 L 204 -380 L 204 -538 L 296 -538 L 296 -380 L 440 -380 L 440 -300 L 296 -300 Z " id="path18"/>
<path d="M 109 -323 L 109 -838 L 178 -838 L 178 -622 Q 184 -638 193.5 -651.5 Q 203 -665 216.5 -674.5 Q 230 -684 246 -688.5 Q 262 -693 279 -693 Q 296 -693 313 -688 Q 330 -683 344 -672.5 Q 358 -662 367 -647 Q 376 -632 381.5 -615.5 Q 387 -599 389 -581.5 Q 391 -564 391 -547 L 391 -323 L 322 -323 L 322 -547 Q 322 -563 318.5 -578.5 Q 315 -594 305 -606 Q 295 -618 280.5 -624 Q 266 -630 250 -630 Q 234 -630 219.5 -624 Q 205 -618 195 -606 Q 185 -594 181.5 -578.5 Q 178 -563 178 -547 L 178 -323 Z " id="path19"/>
<path d="M 109 -712 Q 109 -730 112 -748 Q 115 -766 123.5 -781.5 Q 132 -797 145 -809.5 Q 158 -822 174.5 -829.5 Q 191 -837 208.5 -840 Q 226 -843 244 -843 L 245 -843 L 245 -781 L 244 -781 Q 231 -781 217.5 -776.5 Q 204 -772 195 -762.5 Q 186 -753 182 -739.5 Q 178 -726 178 -712 Z M 109 -323 L 109 -712 L 178 -712 L 178 -622 Q 184 -638 193.5 -651.5 Q 203 -665 216.5 -674.5 Q 230 -684 246 -688.5 Q 262 -693 279 -693 Q 296 -693 313 -688 Q 330 -683 344 -672.5 Q 358 -662 367 -647 Q 376 -632 381.5 -615.5 Q 387 -599 389 -581.5 Q 391 -564 391 -547 L 391 -323 L 322 -323 L 322 -547 Q 322 -563 318.5 -578.5 Q 315 -594 305 -606 Q 295 -618 280.5 -624 Q 266 -630 250 -630 Q 234 -630 219.5 -624 Q 205 -618 195 -606 Q 185 -594 181.5 -578.5 Q 178 -563 178 -547 L 178 -323 Z " id="path20"/>
<path d="M 289 -736 Q 277 -736 266 -739.5 Q 255 -743 247.5 -751 Q 240 -759 236.5 -770 Q 233 -781 233 -792 Q 233 -803 236.5 -814 Q 240 -825 247.5 -833 Q 255 -841 266 -844.5 Q 277 -848 289 -848 Q 300 -848 311 -844.5 Q 322 -841 330 -833 Q 338 -825 341 -814 Q 344 -803 344 -792 Q 344 -781 341 -770 Q 338 -759 330 -751 Q 322 -743 311 -739.5 Q 300 -736 289 -736 Z M 205 -167 Q 181 -167 158 -173 Q 135 -179 117.5 -194.5 Q 100 -210 91 -232 Q 82 -254 82 -277 L 151 -277 Q 151 -267 155 -257.5 Q 159 -248 166.5 -241.5 Q 174 -235 184.5 -232 Q 195 -229 205 -229 Q 218 -229 230 -236.5 Q 242 -244 248.5 -256 Q 255 -268 257 -281.5 Q 259 -295 259 -309 L 259 -625 L 172 -625 L 172 -687 L 329 -687 L 329 -309 Q 329 -291 326.5 -273.5 Q 324 -256 317 -239 Q 310 -222 299 -208 Q 288 -194 273 -184.5 Q 258 -175 240.5 -171 Q 223 -167 205 -167 Z " id="path21"/>
<path d="M 151 -323 L 151 -687 L 220 -687 L 220 -610 Q 225 -626 233 -641 Q 241 -656 252.5 -668 Q 264 -680 280 -686.5 Q 296 -693 313 -693 Q 327 -693 340.5 -689.5 Q 354 -686 365 -677.5 Q 376 -669 383.5 -657.5 Q 391 -646 395 -633 Q 399 -620 400.5 -606 Q 402 -592 402 -579 L 333 -579 Q 333 -588 331 -597.5 Q 329 -607 323.5 -615 Q 318 -623 309 -626.5 Q 300 -630 291 -630 Q 278 -630 266.5 -625 Q 255 -620 246.5 -610.5 Q 238 -601 233 -589.5 Q 228 -578 225 -566 Q 222 -554 221 -541 Q 220 -528 220 -516 L 220 -323 Z " id="path22"/>
<path d="M 187 -317 Q 173 -317 159.5 -320.5 Q 146 -324 135 -332.5 Q 124 -341 116.5 -352.5 Q 109 -364 105 -377 Q 101 -390 99.5 -404 Q 98 -418 98 -431 L 167 -431 Q 167 -422 169 -412.5 Q 171 -403 176.5 -395 Q 182 -387 191 -383.5 Q 200 -380 209 -380 Q 222 -380 233.5 -385 Q 245 -390 253.5 -399.5 Q 262 -409 267 -420.5 Q 272 -432 275 -444 Q 278 -456 279 -469 Q 280 -482 280 -494 L 280 -687 L 349 -687 L 349 -323 L 280 -323 L 280 -400 Q 275 -384 267 -369 Q 259 -354 247.5 -342 Q 236 -330 220 -323.5 Q 204 -317 187 -317 Z " id="path23"/>
<path d="M 416 -167 Q 398 -167 380 -170 Q 362 -173 346 -180.5 Q 330 -188 316.5 -200.5 Q 303 -213 295 -228.5 Q 287 -244 283.5 -262 Q 280 -280 280 -298 L 280 -400 Q 275 -384 267 -369 Q 259 -354 247.5 -342 Q 236 -330 220 -323.5 Q 204 -317 187 -317 Q 173 -317 159.5 -320.5 Q 146 -324 135 -332.5 Q 124 -341 116.5 -352.5 Q 109 -364 105 -377 Q 101 -390 99.5 -404 Q 98 -418 98 -431 L 167 -431 Q 167 -422 169 -412.5 Q 171 -403 176.5 -395 Q 182 -387 191 -383.5 Q 200 -380 209 -380 Q 222 -380 233.5 -385 Q 245 -390 253.5 -399.5 Q 262 -409 267 -420.5 Q 272 -432 275 -444 Q 278 -456 279 -469 Q 280 -482 280 -494 L 280 -687 L 349 -687 L 349 -298 Q 349 -284 353 -270.5 Q 357 -257 366.5 -247.5 Q 376 -238 389 -233.5 Q 402 -229 416 -229 Z " id="path24"/>
<path d="M 109 -323 L 109 -687 L 178 -687 L 178 -556 L 237 -556 L 327 -687 L 408 -687 L 315 -552 Q 334 -547 350 -537 Q 366 -527 377 -511.5 Q 388 -496 392.5 -477 Q 397 -458 397 -440 Q 397 -424 394 -408 Q 391 -392 383.5 -378 Q 376 -364 364 -353 Q 352 -342 337.5 -335 Q 323 -328 307.5 -325.5 Q 292 -323 276 -323 Z M 178 -385 L 276 -385 Q 287 -385 297 -388.5 Q 307 -392 314.5 -400 Q 322 -408 325 -418.5 Q 328 -429 328 -440 Q 328 -450 325 -460.5 Q 322 -471 314.5 -479 Q 307 -487 297 -490.5 Q 287 -494 276 -494 L 178 -494 Z " id="path25"/>
<path d="M 154 -323 L 94 -687 L 160 -687 L 188 -421 L 220 -585 L 280 -585 L 312 -421 L 340 -687 L 406 -687 L 346 -323 L 287 -323 L 250 -510 L 213 -323 Z " id="path26"/>
<path d="M 173 -172 Q 180 -197 187 -221 Q 194 -245 202 -270 L 215 -314 L 102 -687 L 174 -687 L 251 -399 L 326 -687 L 398 -687 L 244 -172 Z " id="path27"/>
<path d="M 161 -442 L 253 -772 L 347 -772 L 239 -442 Z " id="path28"/>
<path d="M 68 -442 L 160 -772 L 254 -772 L 146 -442 Z M 254 -442 L 346 -772 L 440 -772 L 332 -442 Z " id="path29"/>
<path d="M 250 -434 Q 234 -434 218.5 -439 Q 203 -444 192 -455.5 Q 181 -467 177 -482.5 Q 173 -498 173 -514 Q 173 -552 181.5 -589.5 Q 190 -627 205 -662.5 Q 220 -698 240.5 -730.5 Q 261 -763 285 -793 L 343 -748 Q 311 -713 285 -673 Q 259 -633 246 -588 L 251 -588 Q 266 -588 281 -583 Q 296 -578 307 -567.5 Q 318 -557 322.5 -541.5 Q 327 -526 327 -511 Q 327 -495 322.5 -480 Q 318 -465 307 -454 Q 296 -443 281 -438.5 Q 266 -434 250 -434 Z " id="path30"/>
<path d="M 215 -421 L 157 -466 Q 189 -501 215 -541 Q 241 -581 254 -626 L 249 -626 Q 234 -626 219 -630.5 Q 204 -635 193 -646 Q 182 -657 177.5 -672 Q 173 -687 173 -703 Q 173 -718 177.5 -733.5 Q 182 -749 193 -760 Q 204 -771 219 -775.5 Q 234 -780 250 -780 Q 266 -780 281.5 -775 Q 297 -770 308 -758.5 Q 319 -747 323 -731.5 Q 327 -716 327 -700 Q 327 -661 318.5 -623.5 Q 310 -586 295 -551 Q 280 -516 259.5 -483.5 Q 239 -451 215 -421 Z " id="path31"/>
<path d="M 285 -421 Q 261 -451 240.5 -483.5 Q 220 -516 205 -551 Q 190 -586 181.5 -623.5 Q 173 -661 173 -700 Q 173 -716 177 -731.5 Q 181 -747 192 -758.5 Q 203 -770 218.5 -775 Q 234 -780 250 -780 Q 266 -780 281 -775.5 Q 296 -771 307 -760 Q 318 -749 322.5 -733.5 Q 327 -718 327 -703 Q 327 -687 322.5 -672 Q 318 -657 307 -646 Q 296 -635 281 -630.5 Q 266 -626 251 -626 L 246 -626 Q 259 -581 285 -541 Q 311 -501 343 -466 Z " id="path32"/>
<path d="M 168 -434 L 168 -499 Q 189 -499 209.5 -506 Q 230 -513 244.5 -528.5 Q 259 -544 265 -565 Q 271 -586 271 -607 Q 271 -628 265 -649 Q 259 -670 244.5 -685.5 Q 230 -701 209.5 -708 Q 189 -715 168 -715 L 168 -780 Q 191 -780 214 -776 Q 237 -772 257.5 -761.5 Q 278 -751 295 -734.5 Q 312 -718 322 -697 Q 332 -676 336 -653 Q 340 -630 340 -607 Q 340 -584 336 -561 Q 332 -538 322 -517 Q 312 -496 295 -479.5 Q 278 -463 257.5 -452.5 Q 237 -442 214 -438 Q 191 -434 168 -434 Z " id="path33"/>
<path d="M 332 -434 Q 309 -434 286 -438 Q 263 -442 242.5 -452.5 Q 222 -463 205 -479.5 Q 188 -496 178 -517 Q 168 -538 164 -561 Q 160 -584 160 -607 Q 160 -630 164 -653 Q 168 -676 178 -697 Q 188 -718 205 -734.5 Q 222 -751 242.5 -761.5 Q 263 -772 286 -776 Q 309 -780 332 -780 L 332 -715 Q 311 -715 290.5 -708 Q 270 -701 255.5 -685.5 Q 241 -670 235 -649 Q 229 -628 229 -607 Q 229 -586 235 -565 Q 241 -544 255.5 -528.5 Q 270 -513 290.5 -506 Q 311 -499 332 -499 Z " id="path34"/>
<path d="M 215 -323 L 215 -378 Q 215 -392 216.5 -407 Q 218 -422 222.5 -436.5 Q 227 -451 235 -463.5 Q 243 -476 253.5 -487 Q 264 -498 275 -507.5 Q 286 -517 296.5 -528 Q 307 -539 314.5 -552 Q 322 -565 322 -580 Q 322 -593 315 -603.5 Q 308 -614 297.5 -620 Q 287 -626 274.5 -628 Q 262 -630 249 -630 Q 236 -630 222 -626.5 Q 208 -623 197.5 -614 Q 187 -605 181.5 -591.5 Q 176 -578 176 -564 L 176 -561 L 107 -561 L 107 -567 Q 107 -594 118 -619.5 Q 129 -645 149.5 -662 Q 170 -679 196.5 -686 Q 223 -693 249 -693 Q 275 -693 300 -687.5 Q 325 -682 346 -667.5 Q 367 -653 379.5 -630 Q 392 -607 392 -581 Q 392 -566 388 -551.5 Q 384 -537 376.5 -524 Q 369 -511 359.5 -499.5 Q 350 -488 339 -478 Q 328 -468 316.5 -458 Q 305 -448 297.5 -435 Q 290 -422 287.5 -407.5 Q 285 -393 285 -378 L 285 -323 Z " id="path35"/>
<path d="M 215 -323 L 215 -378 Q 215 -393 212.5 -407.5 Q 210 -422 202.5 -435 Q 195 -448 183.5 -458 Q 172 -468 161 -478 Q 150 -488 140.5 -499.5 Q 131 -511 123.5 -524 Q 116 -537 112 -551.5 Q 108 -566 108 -581 Q 108 -607 120.5 -630 Q 133 -653 154 -667.5 Q 175 -682 200 -687.5 Q 225 -693 251 -693 Q 277 -693 303.5 -686 Q 330 -679 350.5 -662 Q 371 -645 382 -619.5 Q 393 -594 393 -567 L 393 -561 L 324 -561 L 324 -564 Q 324 -578 318.5 -591.5 Q 313 -605 302.5 -614 Q 292 -623 278 -626.5 Q 264 -630 251 -630 Q 238 -630 225.5 -628 Q 213 -626 202.5 -620 Q 192 -614 185 -603.5 Q 178 -593 178 -580 Q 178 -565 185.5 -552 Q 193 -539 203.5 -528 Q 214 -517 225 -507.5 Q 236 -498 246.5 -487 Q 257 -476 265 -463.5 Q 273 -451 277.5 -436.5 Q 282 -422 283.5 -407 Q 285 -392 285 -378 L 285 -323 Z " id="path36"/>
<path d="M 340 -573 L 150 -646 L 150 -694 L 340 -767 L 360 -713 L 226 -670 L 360 -627 Z " id="path37"/>
<path d="M 160 -573 L 140 -627 L 274 -670 L 140 -713 L 160 -767 L 350 -694 L 350 -646 Z " id="path38"/>
<path d="M 324 -583 L 250 -688 L 176 -583 L 124 -617 L 213 -740 L 287 -740 L 376 -617 Z " id="path39"/>
<path d="M 213 -600 L 124 -723 L 176 -757 L 250 -652 L 324 -757 L 376 -723 L 287 -600 Z " id="path40"/>
<path d="M 156 -590 L 109 -623 L 204 -760 L 296 -760 L 391 -623 L 344 -590 L 250 -704 Z " id="path41"/>
<path d="M 204 -600 L 109 -737 L 156 -770 L 250 -656 L 344 -770 L 391 -737 L 296 -600 Z " id="path42"/>
<path d="M 287 -442 L 213 -442 Q 210 -524 208.5 -606.5 Q 207 -689 207 -772 L 293 -772 Q 293 -689 291.5 -606.5 Q 290 -524 287 -442 Z " id="path43"/>
<path d="M 400 -638 L 100 -638 L 100 -702 L 400 -702 Z " id="path44"/>
<path d="M 239 -581 L 192 -619 L 308 -763 L 367 -717 Z " id="path45"/>
<path d="M 261 -581 L 133 -717 L 192 -763 L 308 -619 Z " id="path46"/>
<path d="M 207 252 Q 207 169 208.5 86.5 Q 210 4 213 -78 L 287 -78 Q 290 4 291.5 86.5 Q 293 169 293 252 Z " id="path47"/>
<path d="M 400 182 L 100 182 L 100 118 L 400 118 Z " id="path48"/>
<path d="M 308 243 L 192 99 L 239 61 L 367 197 Z " id="path49"/>
<path d="M 192 243 L 133 197 L 261 61 L 308 99 Z " id="path50"/>
<path d="M 250 -328 L 156 -520 L 345 -520 Z M 156 0 L 250 -193 L 345 0 Z " id="path51"/>
<path d="M 250 -328 L 156 -520 L 345 -520 Z " id="path52"/>
<path d="M 215 -174 L 215 -227 Q 224 -227 232 -229.5 Q 240 -232 245.5 -238.5 Q 251 -245 253.5 -253.5 Q 256 -262 256 -270 Q 256 -279 253.5 -287.5 Q 251 -296 245.5 -302.5 Q 240 -309 232 -311.5 Q 224 -314 215 -314 L 215 -367 Q 235 -367 254 -361 Q 273 -355 287.5 -341.5 Q 302 -328 308 -309 Q 314 -290 314 -270 Q 314 -251 308 -231.5 Q 302 -212 287.5 -198.5 Q 273 -185 254 -179.5 Q 235 -174 215 -174 Z " id="path53"/>
<path d="M 285 -174 Q 265 -174 246 -179.5 Q 227 -185 212.5 -198.5 Q 198 -212 192 -231.5 Q 186 -251 186 -270 Q 186 -290 192 -309 Q 198 -328 212.5 -341.5 Q 227 -355 246 -361 Q 265 -367 285 -367 L 285 -314 Q 276 -314 268 -311.5 Q 260 -309 254.5 -302.5 Q 249 -296 246.5 -287.5 Q 244 -279 244 -270 Q 244 -262 246.5 -253.5 Q 249 -245 254.5 -238.5 Q 260 -232 268 -229.5 Q 276 -227 285 -227 Z " id="path54"/>
<path d="M 150 -170 L 150 -227 L 218 -227 L 218 -370 L 282 -370 L 282 -227 L 350 -227 L 350 -170 Z " id="path55"/>
<path d="M 218 -170 L 218 -314 L 150 -314 L 150 -370 L 350 -370 L 350 -314 L 282 -314 L 282 -170 Z " id="path56"/>
<path d="M 218 -170 L 218 -242 L 150 -242 L 150 -299 L 218 -299 L 218 -370 L 282 -370 L 282 -299 L 350 -299 L 350 -242 L 282 -242 L 282 -170 Z " id="path57"/>
<path d="M 350 -242 L 150 -242 L 150 -299 L 350 -299 Z " id="path58"/>
<path d="M 250 -600 Q 220 -600 191 -607.5 Q 162 -615 139 -634 Q 116 -653 105.5 -681.5 Q 95 -710 95 -740 L 165 -740 Q 165 -724 171 -708 Q 177 -692 189 -681.5 Q 201 -671 217.5 -667 Q 234 -663 250 -663 Q 266 -663 282.5 -667 Q 299 -671 311 -681.5 Q 323 -692 329 -708 Q 335 -724 335 -740 L 405 -740 Q 405 -710 394.5 -681.5 Q 384 -653 361 -634 Q 338 -615 309 -607.5 Q 280 -600 250 -600 Z " id="path59"/>
<path d="M 250 -608 Q 237 -608 225 -611.5 Q 213 -615 204 -624 Q 195 -633 191.5 -645 Q 188 -657 188 -670 Q 188 -683 191.5 -695 Q 195 -707 204 -716 Q 213 -725 225 -729 Q 237 -733 250 -733 Q 263 -733 275 -729 Q 287 -725 296 -716 Q 305 -707 309 -695 Q 313 -683 313 -670 Q 313 -657 309 -645 Q 305 -633 296 -624 Q 287 -615 275 -611.5 Q 263 -608 250 -608 Z " id="path60"/>
<path d="M 250 -578 Q 231 -578 213 -583.5 Q 195 -589 182 -602 Q 169 -615 163.5 -633 Q 158 -651 158 -670 Q 158 -689 163.5 -707 Q 169 -725 182 -738 Q 195 -751 213 -756.5 Q 231 -762 250 -762 Q 269 -762 287 -756.5 Q 305 -751 318 -738 Q 331 -725 336.5 -707 Q 342 -689 342 -670 Q 342 -651 336.5 -633 Q 331 -615 318 -602 Q 305 -589 287 -583.5 Q 269 -578 250 -578 Z M 250 -630 Q 258 -630 266 -632.5 Q 274 -635 279.5 -640.5 Q 285 -646 287.5 -654 Q 290 -662 290 -670 Q 290 -678 287.5 -686 Q 285 -694 279.5 -699.5 Q 274 -705 266 -707.5 Q 258 -710 250 -710 Q 242 -710 234 -707.5 Q 226 -705 220.5 -699.5 Q 215 -694 212.5 -686 Q 210 -678 210 -670 Q 210 -662 212.5 -654 Q 215 -646 220.5 -640.5 Q 226 -635 234 -632.5 Q 242 -630 250 -630 Z " id="path61"/>
<path d="M 280 223 Q 259 223 238 217.5 Q 217 212 199.5 199.5 Q 182 187 172 167 Q 162 147 162 126 Q 162 106 169 86.5 Q 176 67 186.5 50 Q 197 33 211 18.5 Q 225 4 242 -8 L 299 -8 L 299 0 Q 285 10 274 23 Q 263 36 254.5 50.5 Q 246 65 239 81 Q 232 97 232 114 Q 232 124 237 133.5 Q 242 143 250 149 Q 258 155 268.5 157.5 Q 279 160 289 160 Q 297 160 305.5 159 Q 314 158 322 156 L 322 219 Q 311 221 301 222 Q 291 223 280 223 Z " id="path62"/>
<path d="M 308 -597 Q 303 -597 298 -598 Q 293 -599 288.5 -600.5 Q 284 -602 279.5 -603.5 Q 275 -605 270.5 -608 Q 266 -611 262 -613.5 Q 258 -616 255 -619.5 Q 252 -623 248 -626.5 Q 244 -630 240.5 -634 Q 237 -638 234 -641.5 Q 231 -645 228.5 -649 Q 226 -653 223 -657 Q 220 -661 216.5 -665.5 Q 213 -670 210 -674 Q 207 -678 204 -681.5 Q 201 -685 196 -688.5 Q 191 -692 191 -694 L 193 -694 Q 193 -693 189.5 -691 Q 186 -689 183.5 -686 Q 181 -683 178.5 -680.5 Q 176 -678 174.5 -676 Q 173 -674 171.5 -672 Q 170 -670 168.5 -668 Q 167 -666 165.5 -663.5 Q 164 -661 162.5 -658 Q 161 -655 159 -652.5 Q 157 -650 155.5 -646.5 Q 154 -643 152 -640 Q 150 -637 148 -633.5 Q 146 -630 144 -626 Q 142 -622 140 -618 Q 138 -614 136 -609.5 Q 134 -605 132 -601 L 68 -628 Q 77 -646 85 -661 Q 93 -676 101 -688.5 Q 109 -701 117 -711.5 Q 125 -722 136.5 -732.5 Q 148 -743 162 -750 Q 176 -757 192 -757 Q 197 -757 202 -756 Q 207 -755 211.5 -754 Q 216 -753 220.5 -751 Q 225 -749 229.5 -746.5 Q 234 -744 238 -741 Q 242 -738 245 -735 Q 248 -732 252 -728 Q 256 -724 259.5 -720 Q 263 -716 266 -712.5 Q 269 -709 271.5 -705 Q 274 -701 277 -697 Q 280 -693 283.5 -688.5 Q 287 -684 290 -680 Q 293 -676 296 -672.5 Q 299 -669 304 -665.5 Q 309 -662 309 -661 L 307 -661 L 311 -663 Q 314 -665 316.5 -668 Q 319 -671 321.5 -674 Q 324 -677 325.5 -678.5 Q 327 -680 328.5 -682 Q 330 -684 331.5 -686.5 Q 333 -689 334.5 -691.5 Q 336 -694 337.5 -696.5 Q 339 -699 341 -702 Q 343 -705 344.5 -708 Q 346 -711 348 -714.5 Q 350 -718 352 -721.5 Q 354 -725 356 -728.5 Q 358 -732 360 -736 Q 362 -740 364 -744.5 Q 366 -749 368 -753 L 432 -727 Q 423 -708 415 -693 Q 407 -678 399 -665.5 Q 391 -653 383 -642.5 Q 375 -632 363.5 -621.5 Q 352 -611 338 -604 Q 324 -597 308 -597 Z " id="path63"/>
<path d="M 323 -580 L 278 -620 L 407 -764 L 463 -716 Z M 153 -580 L 108 -620 L 237 -764 L 293 -716 Z " id="path64"/>
<path d="M 324 -61 Q 301 -61 278 -67.5 Q 255 -74 236.5 -89 Q 218 -104 205 -124 Q 192 -144 184.5 -166.5 Q 177 -189 174.5 -212.5 Q 172 -236 172 -260 L 172 -334 L -80 -198 L -117 -260 L 172 -416 L 250 -416 L 250 -260 Q 250 -246 251 -232 Q 252 -218 255 -204.5 Q 258 -191 263 -178 Q 268 -165 276.5 -154.5 Q 285 -144 298 -137.5 Q 311 -131 324 -131 Q 336 -131 348 -133.5 Q 360 -136 370 -142.5 Q 380 -149 386 -159.5 Q 392 -170 393 -182 L 471 -182 Q 469 -156 457 -131.5 Q 445 -107 424 -90.5 Q 403 -74 377 -67.5 Q 351 -61 324 -61 Z " id="path65"/>
<path d="M 168 -577 L 132 -623 L 199 -670 L 132 -717 L 168 -763 L 250 -706 L 332 -763 L 368 -717 L 301 -670 L 368 -623 L 332 -577 L 250 -634 Z " id="path66"/>
<path d="M 250 -167 Q 235 -167 221 -171.5 Q 207 -176 197 -187 Q 187 -198 183 -212.5 Q 179 -227 179 -242 Q 179 -266 183 -290 Q 187 -314 193 -337.5 Q 199 -361 205.5 -384 Q 212 -407 220 -430 Q 196 -496 165.5 -560 Q 135 -624 103 -687 L 172 -687 Q 193 -643 212.5 -599 Q 232 -555 250 -510 Q 268 -555 287.5 -599 Q 307 -643 328 -687 L 397 -687 Q 365 -624 334.5 -560 Q 304 -496 280 -430 Q 288 -407 294.5 -384 Q 301 -361 307 -337.5 Q 313 -314 317 -290 Q 321 -266 321 -242 Q 321 -227 317 -212.5 Q 313 -198 303 -187 Q 293 -176 279 -171.5 Q 265 -167 250 -167 Z M 250 -217 Q 254 -217 257.5 -219.5 Q 261 -222 262.5 -226 Q 264 -230 264.5 -234 Q 265 -238 265 -242 Q 265 -266 260.5 -290 Q 256 -314 250 -338 Q 244 -314 239.5 -290 Q 235 -266 235 -242 Q 235 -238 235.5 -234 Q 236 -230 237.5 -226 Q 239 -222 242.5 -219.5 Q 246 -217 250 -217 Z " id="path67"/>
<path d="M 373 -323 L 128 -323 L 128 -385 L 220 -385 L 220 -775 L 137 -775 L 137 -838 L 290 -838 L 290 -385 L 373 -385 Z " id="path68"/>
<path d="M 249 -317 Q 233 -317 217 -319 Q 201 -321 185.5 -325 Q 170 -329 156 -337 Q 142 -345 131 -356.5 Q 120 -368 113.5 -383 Q 107 -398 107 -414 L 107 -418 L 176 -418 L 176 -417 Q 176 -406 185 -397.5 Q 194 -389 204.5 -385.5 Q 215 -382 226.5 -380.5 Q 238 -379 249 -379 Q 261 -379 272.5 -380.5 Q 284 -382 295 -386 Q 306 -390 314.5 -399 Q 323 -408 323 -420 Q 323 -432 314.5 -441.5 Q 306 -451 294.5 -456 Q 283 -461 271.5 -464 Q 260 -467 248 -470 Q 236 -473 224.5 -477 Q 213 -481 202 -485.5 Q 191 -490 180 -496 Q 169 -502 159.5 -509 Q 150 -516 141.5 -525 Q 133 -534 127 -544.5 Q 121 -555 117.5 -567 Q 114 -579 114 -591 Q 114 -615 126.5 -636.5 Q 139 -658 159 -671 Q 179 -684 203 -688.5 Q 227 -693 251 -693 Q 274 -693 297.5 -688.5 Q 321 -684 341.5 -672.5 Q 362 -661 374.5 -640 Q 387 -619 387 -596 L 387 -593 L 319 -593 Q 319 -604 311 -612 Q 303 -620 293 -624 Q 283 -628 272 -629.5 Q 261 -631 251 -631 Q 240 -631 229 -629.5 Q 218 -628 208 -623.5 Q 198 -619 190.5 -610.5 Q 183 -602 183 -591 Q 183 -579 191.5 -569.5 Q 200 -560 211 -554.5 Q 222 -549 234 -546 Q 246 -543 257.5 -540 Q 269 -537 280.5 -533 Q 292 -529 303.5 -524.5 Q 315 -520 325.5 -514 Q 336 -508 346 -501 Q 356 -494 364 -485 Q 372 -476 378.5 -465.5 Q 385 -455 388.5 -443 Q 392 -431 392 -419 Q 392 -403 386 -387.5 Q 380 -372 369 -359.5 Q 358 -347 344 -338.5 Q 330 -330 314 -325.5 Q 298 -321 282 -319 Q 266 -317 249 -317 Z " id="path69"/>
<path d="M 99 -323 L 214 -505 L 99 -687 L 181 -687 L 250 -567 L 319 -687 L 401 -687 L 286 -505 L 401 -323 L 319 -323 L 250 -443 L 181 -323 Z " id="path70"/>
<path d="M 215 -323 L 215 -432 Q 215 -451 212.5 -469 Q 210 -487 202.5 -503.5 Q 195 -520 183 -534.5 Q 171 -549 160 -563.5 Q 149 -578 139.5 -593.5 Q 130 -609 123 -626.5 Q 116 -644 112 -662 Q 108 -680 108 -698 Q 108 -727 117.5 -755 Q 127 -783 146.5 -803.5 Q 166 -824 194 -833.5 Q 222 -843 251 -843 Q 278 -843 304.5 -836 Q 331 -829 351.5 -811 Q 372 -793 382.5 -767 Q 393 -741 393 -714 L 393 -712 L 324 -712 L 324 -713 Q 324 -727 318.5 -740.5 Q 313 -754 303 -763.5 Q 293 -773 279 -777 Q 265 -781 251 -781 Q 235 -781 220 -774.5 Q 205 -768 195.5 -756 Q 186 -744 182 -728.5 Q 178 -713 178 -697 Q 178 -673 187.5 -650 Q 197 -627 211 -607 Q 225 -587 240.5 -568 Q 256 -549 267 -527 Q 278 -505 281.5 -481 Q 285 -457 285 -432 L 285 -323 Z " id="path71"/>
<path d="M 325 0 L 325 -669 L 101 -669 L 101 -735 L 399 -735 L 399 0 Z " id="path72"/>
<path d="M 325 0 L 325 -501 L 101 -501 L 101 -568 L 325 -568 L 325 -735 L 399 -735 L 399 0 Z " id="path73"/>
<path d="M 325 0 L 325 -334 L 101 -334 L 101 -401 L 325 -401 L 325 -735 L 399 -735 L 399 0 Z " id="path74"/>
<path d="M 325 0 L 325 -167 L 101 -167 L 101 -234 L 325 -234 L 325 -735 L 399 -735 L 399 0 Z " id="path75"/>
<path d="M 101 0 L 101 -66 L 325 -66 L 325 -735 L 399 -735 L 399 0 Z " id="path76"/>
<path d="M 101 0 L 101 -368 L 175 -368 L 175 -66 L 399 -66 L 399 0 Z " id="path77"/>
<path d="M 101 0 L 101 -368 L 175 -368 L 175 -217 L 399 -217 L 399 -151 L 175 -151 L 175 0 Z " id="path78"/>
<path d="M 296 240 L 204 240 L 109 103 L 156 70 L 250 184 L 344 70 L 391 103 Z " id="path79"/>
<path d="M 64 -665 L 64 -735 L 436 -735 L 436 -665 Z M 64 -535 L 64 -605 L 436 -605 L 436 -535 Z " id="path80"/>
<path d="M 103 -421 L 45 -466 Q 77 -501 103 -541 Q 129 -581 142 -626 L 137 -626 Q 122 -626 107 -630.5 Q 92 -635 81 -646 Q 70 -657 65.5 -672 Q 61 -687 61 -703 Q 61 -718 65.5 -733.5 Q 70 -749 81 -760 Q 92 -771 107 -775.5 Q 122 -780 138 -780 Q 154 -780 169.5 -775 Q 185 -770 196 -758.5 Q 207 -747 211 -731.5 Q 215 -716 215 -700 Q 215 -661 206.5 -623.5 Q 198 -586 183 -551 Q 168 -516 147.5 -483.5 Q 127 -451 103 -421 Z M 328 -421 L 270 -466 Q 302 -501 328 -541 Q 354 -581 367 -626 L 362 -626 Q 347 -626 332 -630.5 Q 317 -635 306 -646 Q 295 -657 290.5 -672 Q 286 -687 286 -703 Q 286 -718 290.5 -733.5 Q 295 -749 306 -760 Q 317 -771 332 -775.5 Q 347 -780 363 -780 Q 379 -780 394.5 -775 Q 410 -770 421 -758.5 Q 432 -747 436 -731.5 Q 440 -716 440 -700 Q 440 -661 431.5 -623.5 Q 423 -586 408 -551 Q 393 -516 372.5 -483.5 Q 352 -451 328 -421 Z " id="path81"/>
<path d="M 213 220 L 124 97 L 176 63 L 250 168 L 324 63 L 376 97 L 287 220 Z " id="path82"/>
<path d="M 176 237 L 124 203 L 213 80 L 287 80 L 376 203 L 324 237 L 250 132 Z " id="path83"/>
<path d="M 340 247 L 150 174 L 150 126 L 340 53 L 360 107 L 226 150 L 360 193 Z " id="path84"/>
<path d="M 160 247 L 140 193 L 274 150 L 140 107 L 160 53 L 350 126 L 350 174 Z " id="path85"/>
<path d="M 250 242 Q 231 242 213 236.5 Q 195 231 182 218 Q 169 205 163.5 187 Q 158 169 158 150 Q 158 131 163.5 113 Q 169 95 182 82 Q 195 69 213 63.5 Q 231 58 250 58 Q 269 58 287 63.5 Q 305 69 318 82 Q 331 95 336.5 113 Q 342 131 342 150 Q 342 169 336.5 187 Q 331 205 318 218 Q 305 231 287 236.5 Q 269 242 250 242 Z M 250 190 Q 258 190 266 187.5 Q 274 185 279.5 179.5 Q 285 174 287.5 166 Q 290 158 290 150 Q 290 142 287.5 134 Q 285 126 279.5 120.5 Q 274 115 266 112.5 Q 258 110 250 110 Q 242 110 234 112.5 Q 226 115 220.5 120.5 Q 215 126 212.5 134 Q 210 142 210 150 Q 210 158 212.5 166 Q 215 174 220.5 179.5 Q 226 185 234 187.5 Q 242 190 250 190 Z " id="path86"/>
<path d="M 261 -251 L 133 -387 L 192 -433 L 308 -289 Z " id="path87"/>
<path d="M 347 -250 L 207 -386 L 263 -434 L 392 -290 Z M 177 -250 L 37 -386 L 93 -434 L 222 -290 Z " id="path88"/>
<path d="M 323 -250 L 278 -290 L 407 -434 L 463 -386 Z M 153 -250 L 108 -290 L 237 -434 L 293 -386 Z " id="path89"/>
<path d="M 308 237 Q 303 237 298 236 Q 293 235 288.5 234 Q 284 233 279.5 231 Q 275 229 270.5 226.5 Q 266 224 262 221 Q 258 218 255 215 Q 252 212 248 208 Q 244 204 240.5 200 Q 237 196 234 192.5 Q 231 189 228.5 185 Q 226 181 223 177 Q 220 173 216.5 168.5 Q 213 164 210 160 Q 207 156 204 152.5 Q 201 149 196 145.5 Q 191 142 191 141 L 193 141 L 190 143 Q 186 145 183.5 148 Q 181 151 178.5 154 Q 176 157 174.5 158.5 Q 173 160 171.5 162 Q 170 164 168.5 166.5 Q 167 169 165.5 171.5 Q 164 174 162.5 176.5 Q 161 179 159 182 Q 157 185 155.5 188 Q 154 191 152 194.5 Q 150 198 148 201.5 Q 146 205 144 208.5 Q 142 212 140 216 Q 138 220 136 224.5 Q 134 229 132 233 L 68 207 Q 77 188 85 173 Q 93 158 101 145.5 Q 109 133 117 122.5 Q 125 112 136.5 101.5 Q 148 91 162 84 Q 176 77 192 77 Q 197 77 202 78 Q 207 79 211.5 80.5 Q 216 82 220.5 83.5 Q 225 85 229.5 88 Q 234 91 238 93.5 Q 242 96 245 99.5 Q 248 103 252 106.5 Q 256 110 259.5 114 Q 263 118 266 121.5 Q 269 125 271.5 129 Q 274 133 277 137 Q 280 141 283.5 145.5 Q 287 150 290 154 Q 293 158 296 161.5 Q 299 165 304 168.5 Q 309 172 309 174 L 307 174 Q 307 173 310.5 171 Q 314 169 316.5 166 Q 319 163 321.5 160.5 Q 324 158 325.5 156 Q 327 154 328.5 152 Q 330 150 331.5 148 Q 333 146 334.5 143.5 Q 336 141 337.5 138 Q 339 135 341 132.5 Q 343 130 344.5 126.5 Q 346 123 348 120 Q 350 117 352 113.5 Q 354 110 356 106 Q 358 102 360 98 Q 362 94 364 89.5 Q 366 85 368 81 L 432 108 Q 423 126 415 141 Q 407 156 399 168.5 Q 391 181 383 191.5 Q 375 202 363.5 212.5 Q 352 223 338 230 Q 324 237 308 237 Z " id="path90"/>
<path d="M 250 -563 Q 236 -563 222 -567 Q 208 -571 198 -581 Q 188 -591 184 -605 Q 180 -619 180 -633 Q 180 -647 184 -661 Q 188 -675 198 -685 Q 208 -695 222 -699.5 Q 236 -704 250 -704 Q 264 -704 278 -699.5 Q 292 -695 302 -685 Q 312 -675 316.5 -661 Q 321 -647 321 -633 Q 321 -619 316.5 -605 Q 312 -591 302 -581 Q 292 -571 278 -567 Q 264 -563 250 -563 Z M 250 -247 Q 236 -247 222 -251 Q 208 -255 198 -265 Q 188 -275 184 -289 Q 180 -303 180 -317 Q 180 -331 184 -345 Q 188 -359 198 -369 Q 208 -379 222 -383.5 Q 236 -388 250 -388 Q 264 -388 278 -383.5 Q 292 -379 302 -369 Q 312 -359 316.5 -345 Q 321 -331 321 -317 Q 321 -303 316.5 -289 Q 312 -275 302 -265 Q 292 -255 278 -251 Q 264 -247 250 -247 Z " id="path91"/>
<path d="M 101 -441 L 101 -735 L 399 -735 L 399 -669 L 175 -669 L 175 -441 Z " id="path92"/>
<path d="M 325 -441 L 325 -669 L 101 -669 L 101 -735 L 399 -735 L 399 -441 Z " id="path93"/>
<path d="M 101 0 L 101 -294 L 175 -294 L 175 -66 L 399 -66 L 399 0 Z " id="path94"/>
<path d="M 101 0 L 101 -66 L 325 -66 L 325 -294 L 399 -294 L 399 0 Z " id="path95"/>
<path d="M 32 220 L 32 80 L 96 80 L 96 163 L 404 163 L 404 80 L 468 80 L 468 220 Z " id="path96"/>
<path d="M 32 220 L 32 80 L 96 80 L 96 163 L 436 163 L 436 220 Z " id="path97"/>
<path d="M 184 240 L 66 150 L 184 60 L 216 100 L 175 125 L 400 125 L 400 175 L 175 175 L 216 200 Z " id="path98"/>
</defs>
<g>
<g data-source-text="0" fill="#dee4e3" transform="translate(174 41.292) rotate(0) scale(0.023999998)">
<use href="#path1" transform="translate(0 0)"/>
</g>
</g>
<g>
<g data-source-text="1" fill="#dee4e3" transform="translate(246 41.292) rotate(0) scale(0.023999998)">
<use href="#path2" transform="translate(0 0)"/>
</g>
</g>
<g>
<g data-source-text="2" fill="#dee4e3" transform="translate(318 41.292) rotate(0) scale(0.023999998)">
<use href="#path3" transform="translate(0 0)"/>
</g>
</g>
<g>
<g data-source-text="3" fill="#dee4e3" transform="translate(390 41.292) rotate(0) scale(0.023999998)">
<use href="#path4" transform="translate(0 0)"/>
</g>
</g>
<g>
<g data-source-text="4" fill="#dee4e3" transform="translate(462 41.292) rotate(0) scale(0.023999998)">
<use href="#path5" transform="translate(0 0)"/>
</g>
</g>
<g>
<g data-source-text="5" fill="#dee4e3" transform="translate(534 41.292) rotate(0) scale(0.023999998)">
<use href="#path6" transform="translate(0 0)"/>
</g>
</g>
<g>
<g data-source-text="6" fill="#dee4e3" transform="translate(606 41.292) rotate(0) scale(0.023999998)">
<use href="#path7" transform="translate(0 0)"/>
</g>
</g>
<g>
<g data-source-text="7" fill="#dee4e3" transform="translate(678 41.292) rotate(0) scale(0.023999998)">
<use href="#path8" transform="translate(0 0)"/>
</g>
</g>
<g>
<g data-source-text="8" fill="#dee4e3" transform="translate(750 41.292) rotate(0) scale(0.023999998)">
<use href="#path9" transform="translate(0 0)"/>
</g>
</g>
<g>
<g data-source-text="9" fill="#dee4e3" transform="translate(822 41.292) rotate(0) scale(0.023999998)">
<use href="#path10" transform="translate(0 0)"/>
</g>
</g>
<g>
<g data-source-text="A" fill="#dee4e3" transform="translate(894 41.292) rotate(0) scale(0.023999998)">
<use href="#path11" transform="translate(0 0)"/>
</g>
</g>
<g>
<g data-source-text="B" fill="#dee4e3" transform="translate(966 41.292) rotate(0) scale(0.023999998)">
<use href="#path12" transform="translate(0 0)"/>
</g>
</g>
<g>
<g data-source-text="C" fill="#dee4e3" transform="translate(1038 41.292) rotate(0) scale(0.023999998)">
<use href="#path13" transform="translate(0 0)"/>
</g>
</g>
<g>
<g data-source-text="D" fill="#dee4e3" transform="translate(1110 41.292) rotate(0) scale(0.023999998)">
<use href="#path14" transform="translate(0 0)"/>
</g>
</g>
<g>
<g data-source-text="E" fill="#dee4e3" transform="translate(1182 41.292) rotate(0) scale(0.023999998)">
<use href="#path15" transform="translate(0 0)"/>
</g>
</g>
<g>
<g data-source-text="F" fill="#dee4e3" transform="translate(1254 41.292) rotate(0) scale(0.023999998)">
<use href="#path16" transform="translate(0 0)"/>
</g>
</g>
<g>
<g data-source-text="U+02B0" fill="#dee4e3" transform="translate(36 113.292) rotate(0) scale(0.023999998)">
<use href="#path17" transform="translate(0 0)"/>
<use href="#path18" transform="translate(500 0)"/>
<use href="#path1" transform="translate(1000 0)"/>
<use href="#path3" transform="translate(1500 0)"/>
<use href="#path12" transform="translate(2000 0)"/>
<use href="#path1" transform="translate(2500 0)"/>
</g>
</g>
<g>
<g data-source-text="ʰ" fill="#dee4e3" transform="translate(168 118.584) rotate(0) scale(0.047999997)">
<use href="#path19" transform="translate(0 0)"/>
</g>
</g>
<g>
<g data-source-text="ʱ" fill="#dee4e3" transform="translate(240 118.584) rotate(0) scale(0.047999997)">
<use href="#path20" transform="translate(0 0)"/>
</g>
</g>
<g>
<g data-source-text="ʲ" fill="#dee4e3" transform="translate(312 118.584) rotate(0) scale(0.047999997)">
<use href="#path21" transform="translate(0 0)"/>
</g>
</g>
<g>
<g data-source-text="ʳ" fill="#dee4e3" transform="translate(384 118.584) rotate(0) scale(0.047999997)">
<use href="#path22" transform="translate(0 0)"/>
</g>
</g>
<g>
<g data-source-text="ʴ" fill="#dee4e3" transform="translate(456 118.584) rotate(0) scale(0.047999997)">
<use href="#path23" transform="translate(0 0)"/>
</g>
</g>
<g>
<g data-source-text="ʵ" fill="#dee4e3" transform="translate(528 118.584) rotate(0) scale(0.047999997)">
<use href="#path24" transform="translate(0 0)"/>
</g>
</g>
<g>
<g data-source-text="ʶ" fill="#dee4e3" transform="translate(600 118.584) rotate(0) scale(0.047999997)">
<use href="#path25" transform="translate(0 0)"/>
</g>
</g>
<g>
<g data-source-text="ʷ" fill="#dee4e3" transform="translate(672 118.584) rotate(0) scale(0.047999997)">
<use href="#path26" transform="translate(0 0)"/>
</g>
</g>
<g>
<g data-source-text="ʸ" fill="#dee4e3" transform="translate(744 118.584) rotate(0) scale(0.047999997)">
<use href="#path27" transform="translate(0 0)"/>
</g>
</g>
<g>
<g data-source-text="ʹ" fill="#dee4e3" transform="translate(816 118.584) rotate(0) scale(0.047999997)">
<use href="#path28" transform="translate(0 0)"/>
</g>
</g>
<g>
<g data-source-text="ʺ" fill="#dee4e3" transform="translate(888 118.584) rotate(0) scale(0.047999997)">
<use href="#path29" transform="translate(0 0)"/>
</g>
</g>
<g>
<g data-source-text="ʻ" fill="#dee4e3" transform="translate(960 118.584) rotate(0) scale(0.047999997)">
<use href="#path30" transform="translate(0 0)"/>
</g>
</g>
<g>
<g data-source-text="ʼ" fill="#dee4e3" transform="translate(1032 118.584) rotate(0) scale(0.047999997)">
<use href="#path31" transform="translate(0 0)"/>
</g>
</g>
<g>
<g data-source-text="ʽ" fill="#dee4e3" transform="translate(1104 118.584) rotate(0) scale(0.047999997)">
<use href="#path32" transform="translate(0 0)"/>
</g>
</g>
<g>
<g data-source-text="ʾ" fill="#dee4e3" transform="translate(1176 118.584) rotate(0) scale(0.047999997)">
<use href="#path33" transform="translate(0 0)"/>
</g>
</g>
<g>
<g data-source-text="ʿ" fill="#dee4e3" transform="translate(1248 118.584) rotate(0) scale(0.047999997)">
<use href="#path34" transform="translate(0 0)"/>
</g>
</g>
<g>
<g data-source-text="U+02C0" fill="#dee4e3" transform="translate(36 185.292) rotate(0) scale(0.023999998)">
<use href="#path17" transform="translate(0 0)"/>
<use href="#path18" transform="translate(500 0)"/>
<use href="#path1" transform="translate(1000 0)"/>
<use href="#path3" transform="translate(1500 0)"/>
<use href="#path13" transform="translate(2000 0)"/>
<use href="#path1" transform="translate(2500 0)"/>
</g>
</g>
<g>
<g data-source-text="ˀ" fill="#dee4e3" transform="translate(168 190.584) rotate(0) scale(0.047999997)">
<use href="#path35" transform="translate(0 0)"/>
</g>
</g>
<g>
<g data-source-text="ˁ" fill="#dee4e3" transform="translate(240 190.584) rotate(0) scale(0.047999997)">
<use href="#path36" transform="translate(0 0)"/>
</g>
</g>
<g>
<g data-source-text="˂" fill="#dee4e3" transform="translate(312 190.584) rotate(0) scale(0.047999997)">
<use href="#path37" transform="translate(0 0)"/>
</g>
</g>
<g>
<g data-source-text="˃" fill="#dee4e3" transform="translate(384 190.584) rotate(0) scale(0.047999997)">
<use href="#path38" transform="translate(0 0)"/>
</g>
</g>
<g>
<g data-source-text="˄" fill="#dee4e3" transform="translate(456 190.584) rotate(0) scale(0.047999997)">
<use href="#path39" transform="translate(0 0)"/>
</g>
</g>
<g>
<g data-source-text="˅" fill="#dee4e3" transform="translate(528 190.584) rotate(0) scale(0.047999997)">
<use href="#path40" transform="translate(0 0)"/>
</g>
</g>
<g>
<g data-source-text="ˆ" fill="#dee4e3" transform="translate(600 190.584) rotate(0) scale(0.047999997)">
<use href="#path41" transform="translate(0 0)"/>
</g>
</g>
<g>
<g data-source-text="ˇ" fill="#dee4e3" transform="translate(672 190.584) rotate(0) scale(0.047999997)">
<use href="#path42" transform="translate(0 0)"/>
</g>
</g>
<g>
<g data-source-text="ˈ" fill="#dee4e3" transform="translate(744 190.584) rotate(0) scale(0.047999997)">
<use href="#path43" transform="translate(0 0)"/>
</g>
</g>
<g>
<g data-source-text="ˉ" fill="#dee4e3" transform="translate(816 190.584) rotate(0) scale(0.047999997)">
<use href="#path44" transform="translate(0 0)"/>
</g>
</g>
<g>
<g data-source-text="ˊ" fill="#dee4e3" transform="translate(888 190.584) rotate(0) scale(0.047999997)">
<use href="#path45" transform="translate(0 0)"/>
</g>
</g>
<g>
<g data-source-text="ˋ" fill="#dee4e3" transform="translate(960 190.584) rotate(0) scale(0.047999997)">
<use href="#path46" transform="translate(0 0)"/>
</g>
</g>
<g>
<g data-source-text="ˌ" fill="#dee4e3" transform="translate(1032 190.584) rotate(0) scale(0.047999997)">
<use href="#path47" transform="translate(0 0)"/>
</g>
</g>
<g>
<g data-source-text="ˍ" fill="#dee4e3" transform="translate(1104 190.584) rotate(0) scale(0.047999997)">
<use href="#path48" transform="translate(0 0)"/>
</g>
</g>
<g>
<g data-source-text="ˎ" fill="#dee4e3" transform="translate(1176 190.584) rotate(0) scale(0.047999997)">
<use href="#path49" transform="translate(0 0)"/>
</g>
</g>
<g>
<g data-source-text="ˏ" fill="#dee4e3" transform="translate(1248 190.584) rotate(0) scale(0.047999997)">
<use href="#path50" transform="translate(0 0)"/>
</g>
</g>
<g>
<g data-source-text="U+02D0" fill="#dee4e3" transform="translate(36 257.292) rotate(0) scale(0.023999998)">
<use href="#path17" transform="translate(0 0)"/>
<use href="#path18" transform="translate(500 0)"/>
<use href="#path1" transform="translate(1000 0)"/>
<use href="#path3" transform="translate(1500 0)"/>
<use href="#path14" transform="translate(2000 0)"/>
<use href="#path1" transform="translate(2500 0)"/>
</g>
</g>
<g>
<g data-source-text="ː" fill="#dee4e3" transform="translate(168 262.584) rotate(0) scale(0.047999997)">
<use href="#path51" transform="translate(0 0)"/>
</g>
</g>
<g>
<g data-source-text="ˑ" fill="#dee4e3" transform="translate(240 262.584) rotate(0) scale(0.047999997)">
<use href="#path52" transform="translate(0 0)"/>
</g>
</g>
<g>
<g data-source-text="˒" fill="#dee4e3" transform="translate(312 262.584) rotate(0) scale(0.047999997)">
<use href="#path53" transform="translate(0 0)"/>
</g>
</g>
<g>
<g data-source-text="˓" fill="#dee4e3" transform="translate(384 262.584) rotate(0) scale(0.047999997)">
<use href="#path54" transform="translate(0 0)"/>
</g>
</g>
<g>
<g data-source-text="˔" fill="#dee4e3" transform="translate(456 262.584) rotate(0) scale(0.047999997)">
<use href="#path55" transform="translate(0 0)"/>
</g>
</g>
<g>
<g data-source-text="˕" fill="#dee4e3" transform="translate(528 262.584) rotate(0) scale(0.047999997)">
<use href="#path56" transform="translate(0 0)"/>
</g>
</g>
<g>
<g data-source-text="˖" fill="#dee4e3" transform="translate(600 262.584) rotate(0) scale(0.047999997)">
<use href="#path57" transform="translate(0 0)"/>
</g>
</g>
<g>
<g data-source-text="˗" fill="#dee4e3" transform="translate(672 262.584) rotate(0) scale(0.047999997)">
<use href="#path58" transform="translate(0 0)"/>
</g>
</g>
<g>
<g data-source-text="˘" fill="#dee4e3" transform="translate(744 262.584) rotate(0) scale(0.047999997)">
<use href="#path59" transform="translate(0 0)"/>
</g>
</g>
<g>
<g data-source-text="˙" fill="#dee4e3" transform="translate(816 262.584) rotate(0) scale(0.047999997)">
<use href="#path60" transform="translate(0 0)"/>
</g>
</g>
<g>
<g data-source-text="˚" fill="#dee4e3" transform="translate(888 262.584) rotate(0) scale(0.047999997)">
<use href="#path61" transform="translate(0 0)"/>
</g>
</g>
<g>
<g data-source-text="˛" fill="#dee4e3" transform="translate(960 262.584) rotate(0) scale(0.047999997)">
<use href="#path62" transform="translate(0 0)"/>
</g>
</g>
<g>
<g data-source-text="˜" fill="#dee4e3" transform="translate(1032 262.584) rotate(0) scale(0.047999997)">
<use href="#path63" transform="translate(0 0)"/>
</g>
</g>
<g>
<g data-source-text="˝" fill="#dee4e3" transform="translate(1104 262.584) rotate(0) scale(0.047999997)">
<use href="#path64" transform="translate(0 0)"/>
</g>
</g>
<g>
<g data-source-text="˞" fill="#dee4e3" transform="translate(1176 262.584) rotate(0) scale(0.047999997)">
<use href="#path65" transform="translate(0 0)"/>
</g>
</g>
<g>
<g data-source-text="˟" fill="#dee4e3" transform="translate(1248 262.584) rotate(0) scale(0.047999997)">
<use href="#path66" transform="translate(0 0)"/>
</g>
</g>
<g>
<g data-source-text="U+02E0" fill="#dee4e3" transform="translate(36 329.292) rotate(0) scale(0.023999998)">
<use href="#path17" transform="translate(0 0)"/>
<use href="#path18" transform="translate(500 0)"/>
<use href="#path1" transform="translate(1000 0)"/>
<use href="#path3" transform="translate(1500 0)"/>
<use href="#path15" transform="translate(2000 0)"/>
<use href="#path1" transform="translate(2500 0)"/>
</g>
</g>
<g>
<g data-source-text="ˠ" fill="#dee4e3" transform="translate(168 334.584) rotate(0) scale(0.047999997)">
<use href="#path67" transform="translate(0 0)"/>
</g>
</g>
<g>
<g data-source-text="ˡ" fill="#dee4e3" transform="translate(240 334.584) rotate(0) scale(0.047999997)">
<use href="#path68" transform="translate(0 0)"/>
</g>
</g>
<g>
<g data-source-text="ˢ" fill="#dee4e3" transform="translate(312 334.584) rotate(0) scale(0.047999997)">
<use href="#path69" transform="translate(0 0)"/>
</g>
</g>
<g>
<g data-source-text="ˣ" fill="#dee4e3" transform="translate(384 334.584) rotate(0) scale(0.047999997)">
<use href="#path70" transform="translate(0 0)"/>
</g>
</g>
<g>
<g data-source-text="ˤ" fill="#dee4e3" transform="translate(456 334.584) rotate(0) scale(0.047999997)">
<use href="#path71" transform="translate(0 0)"/>
</g>
</g>
<g>
<g data-source-text="˥" fill="#dee4e3" transform="translate(528 334.584) rotate(0) scale(0.047999997)">
<use href="#path72" transform="translate(0 0)"/>
</g>
</g>
<g>
<g data-source-text="˦" fill="#dee4e3" transform="translate(600 334.584) rotate(0) scale(0.047999997)">
<use href="#path73" transform="translate(0 0)"/>
</g>
</g>
<g>
<g data-source-text="˧" fill="#dee4e3" transform="translate(672 334.584) rotate(0) scale(0.047999997)">
<use href="#path74" transform="translate(0 0)"/>
</g>
</g>
<g>
<g data-source-text="˨" fill="#dee4e3" transform="translate(744 334.584) rotate(0) scale(0.047999997)">
<use href="#path75" transform="translate(0 0)"/>
</g>
</g>
<g>
<g data-source-text="˩" fill="#dee4e3" transform="translate(816 334.584) rotate(0) scale(0.047999997)">
<use href="#path76" transform="translate(0 0)"/>
</g>
</g>
<g>
<g data-source-text="˪" fill="#dee4e3" transform="translate(888 334.584) rotate(0) scale(0.047999997)">
<use href="#path77" transform="translate(0 0)"/>
</g>
</g>
<g>
<g data-source-text="˫" fill="#dee4e3" transform="translate(960 334.584) rotate(0) scale(0.047999997)">
<use href="#path78" transform="translate(0 0)"/>
</g>
</g>
<g>
<g data-source-text="ˬ" fill="#dee4e3" transform="translate(1032 334.584) rotate(0) scale(0.047999997)">
<use href="#path79" transform="translate(0 0)"/>
</g>
</g>
<g>
<g data-source-text="˭" fill="#dee4e3" transform="translate(1104 334.584) rotate(0) scale(0.047999997)">
<use href="#path80" transform="translate(0 0)"/>
</g>
</g>
<g>
<g data-source-text="ˮ" fill="#dee4e3" transform="translate(1176 334.584) rotate(0) scale(0.047999997)">
<use href="#path81" transform="translate(0 0)"/>
</g>
</g>
<g>
<g data-source-text="˯" fill="#dee4e3" transform="translate(1248 334.584) rotate(0) scale(0.047999997)">
<use href="#path82" transform="translate(0 0)"/>
</g>
</g>
<g>
<g data-source-text="U+02F0" fill="#dee4e3" transform="translate(36 401.292) rotate(0) scale(0.023999998)">
<use href="#path17" transform="translate(0 0)"/>
<use href="#path18" transform="translate(500 0)"/>
<use href="#path1" transform="translate(1000 0)"/>
<use href="#path3" transform="translate(1500 0)"/>
<use href="#path16" transform="translate(2000 0)"/>
<use href="#path1" transform="translate(2500 0)"/>
</g>
</g>
<g>
<g data-source-text="˰" fill="#dee4e3" transform="translate(168 406.584) rotate(0) scale(0.047999997)">
<use href="#path83" transform="translate(0 0)"/>
</g>
</g>
<g>
<g data-source-text="˱" fill="#dee4e3" transform="translate(240 406.584) rotate(0) scale(0.047999997)">
<use href="#path84" transform="translate(0 0)"/>
</g>
</g>
<g>
<g data-source-text="˲" fill="#dee4e3" transform="translate(312 406.584) rotate(0) scale(0.047999997)">
<use href="#path85" transform="translate(0 0)"/>
</g>
</g>
<g>
<g data-source-text="˳" fill="#dee4e3" transform="translate(384 406.584) rotate(0) scale(0.047999997)">
<use href="#path86" transform="translate(0 0)"/>
</g>
</g>
<g>
<g data-source-text="˴" fill="#dee4e3" transform="translate(456 406.584) rotate(0) scale(0.047999997)">
<use href="#path87" transform="translate(0 0)"/>
</g>
</g>
<g>
<g data-source-text="˵" fill="#dee4e3" transform="translate(528 406.584) rotate(0) scale(0.047999997)">
<use href="#path88" transform="translate(0 0)"/>
</g>
</g>
<g>
<g data-source-text="˶" fill="#dee4e3" transform="translate(600 406.584) rotate(0) scale(0.047999997)">
<use href="#path89" transform="translate(0 0)"/>
</g>
</g>
<g>
<g data-source-text="˷" fill="#dee4e3" transform="translate(672 406.584) rotate(0) scale(0.047999997)">
<use href="#path90" transform="translate(0 0)"/>
</g>
</g>
<g>
<g data-source-text="˸" fill="#dee4e3" transform="translate(744 406.584) rotate(0) scale(0.047999997)">
<use href="#path91" transform="translate(0 0)"/>
</g>
</g>
<g>
<g data-source-text="˹" fill="#dee4e3" transform="translate(816 406.584) rotate(0) scale(0.047999997)">
<use href="#path92" transform="translate(0 0)"/>
</g>
</g>
<g>
<g data-source-text="˺" fill="#dee4e3" transform="translate(888 406.584) rotate(0) scale(0.047999997)">
<use href="#path93" transform="translate(0 0)"/>
</g>
</g>
<g>
<g data-source-text="˻" fill="#dee4e3" transform="translate(960 406.584) rotate(0) scale(0.047999997)">
<use href="#path94" transform="translate(0 0)"/>
</g>
</g>
<g>
<g data-source-text="˼" fill="#dee4e3" transform="translate(1032 406.584) rotate(0) scale(0.047999997)">
<use href="#path95" transform="translate(0 0)"/>
</g>
</g>
<g>
<g data-source-text="˽" fill="#dee4e3" transform="translate(1104 406.584) rotate(0) scale(0.047999997)">
<use href="#path96" transform="translate(0 0)"/>
</g>
</g>
<g>
<g data-source-text="˾" fill="#dee4e3" transform="translate(1176 406.584) rotate(0) scale(0.047999997)">
<use href="#path97" transform="translate(0 0)"/>
</g>
</g>
<g>
<g data-source-text="˿" fill="#dee4e3" transform="translate(1248 406.584) rotate(0) scale(0.047999997)">
<use href="#path98" transform="translate(0 0)"/>
</g>
</g>
</svg>