<?xml version="1.0" encoding="UTF-8" standalone="no"?>
<svg height="432" viewBox="0 0 1296 432" width="1296" xmlns="http://www.w3.org/2000/svg">
<defs>
<path d="M 250 8 Q 223 8 196 3 Q 169 -2 145 -15 Q 121 -28 102.5 -48.5 Q 84 -69 72.5 -94 Q 61 -119 56.5 -146 Q 52 -173 52 -200 L 52 -535 Q 52 -562 56.5 -589 Q 61 -616 72.5 -641 Q 84 -666 102.5 -686.5 Q 121 -707 145 -720 Q 169 -733 196 -738 Q 223 -743 250 -743 Q 277 -743 304 -738 Q 331 -733 355 -720 Q 379 -707 397.5 -686.5 Q 416 -666 427.5 -641 Q 439 -616 443.5 -589 Q 448 -562 448 -535 L 448 -200 Q 448 -173 443.5 -146 Q 439 -119 427.5 -94 Q 416 -69 397.5 -48.5 Q 379 -28 355 -15 Q 331 -2 304 3 Q 277 8 250 8 Z M 152 -338 L 348 -493 L 348 -535 Q 348 -557 343 -579 Q 338 -601 325.5 -618.5 Q 313 -636 292.5 -645.5 Q 272 -655 250 -655 Q 228 -655 207.5 -645.5 Q 187 -636 174.5 -618.5 Q 162 -601 157 -579 Q 152 -557 152 -535 Z M 250 -80 Q 272 -80 292.5 -89.5 Q 313 -99 325.5 -116.5 Q 338 -134 343 -156 Q 348 -178 348 -200 L 348 -397 L 152 -242 L 152 -200 Q 152 -178 157 -156 Q 162 -134 174.5 -116.5 Q 187 -99 207.5 -89.5 Q 228 -80 250 -80 Z " id="path1"/>
<path d="M 230 0 L 230 -632 L 110 -528 L 55 -584 L 230 -735 L 330 -735 L 330 0 Z " id="path2"/>
<path d="M 60 0 L 60 -1 Q 60 -27 61 -54 Q 62 -81 65.5 -107 Q 69 -133 77 -158.5 Q 85 -184 96.5 -208 Q 108 -232 123 -253.5 Q 138 -275 156 -294.5 Q 174 -314 194 -331 Q 214 -348 235.5 -364 Q 257 -380 277.5 -397 Q 298 -414 313 -435.5 Q 328 -457 336 -483 Q 344 -509 344 -535 Q 344 -557 339.5 -578 Q 335 -599 323.5 -617 Q 312 -635 292 -645 Q 272 -655 251 -655 Q 231 -655 212.5 -647.5 Q 194 -640 181.5 -625 Q 169 -610 163.5 -591 Q 158 -572 158 -552 L 158 -548 L 58 -548 L 58 -555 Q 58 -581 63.5 -606 Q 69 -631 81 -653 Q 93 -675 111.5 -693 Q 130 -711 152.5 -722.5 Q 175 -734 200.5 -738.5 Q 226 -743 251 -743 Q 278 -743 304.5 -737.5 Q 331 -732 354.5 -719 Q 378 -706 396 -685.5 Q 414 -665 425 -640.5 Q 436 -616 440 -589 Q 444 -562 444 -535 Q 444 -501 435 -468 Q 426 -435 407.5 -406 Q 389 -377 364 -353.5 Q 339 -330 312.5 -308.5 Q 286 -287 261 -264 Q 236 -241 216 -213 Q 196 -185 183 -153.5 Q 170 -122 165 -88 L 440 -88 L 440 0 Z " id="path3"/>
<path d="M 253 8 Q 227 8 201 4 Q 175 -0 151 -11.5 Q 127 -23 107.5 -40.5 Q 88 -58 75.5 -81 Q 63 -104 56.5 -129.5 Q 50 -155 50 -181 L 50 -187 L 150 -187 L 150 -184 Q 150 -163 157 -143 Q 164 -123 178 -108 Q 192 -93 212 -86.5 Q 232 -80 253 -80 Q 275 -80 296 -88.5 Q 317 -97 330.5 -114.5 Q 344 -132 350 -154 Q 356 -176 356 -198 Q 356 -217 352 -235.5 Q 348 -254 339 -271 Q 330 -288 316.5 -301 Q 303 -314 286 -322 Q 269 -330 250 -332 Q 231 -334 212 -334 L 212 -422 Q 229 -422 246 -424 Q 263 -426 278.5 -433 Q 294 -440 306 -452.5 Q 318 -465 325.5 -480.5 Q 333 -496 336.5 -513 Q 340 -530 340 -547 Q 340 -566 335.5 -585.5 Q 331 -605 320 -621.5 Q 309 -638 291 -646.5 Q 273 -655 253 -655 Q 234 -655 216 -647 Q 198 -639 187 -624 Q 176 -609 171 -590 Q 166 -571 166 -553 L 166 -548 L 66 -548 L 66 -556 Q 66 -581 71.5 -605.5 Q 77 -630 88 -652 Q 99 -674 116.5 -692.5 Q 134 -711 156.5 -722.5 Q 179 -734 203.5 -738.5 Q 228 -743 253 -743 Q 278 -743 303.5 -738 Q 329 -733 351 -721 Q 373 -709 390.5 -690 Q 408 -671 419 -648 Q 430 -625 435 -600 Q 440 -575 440 -550 Q 440 -524 434 -498.5 Q 428 -473 416 -450.5 Q 404 -428 385 -409.5 Q 366 -391 343 -379 Q 370 -368 391.5 -348.5 Q 413 -329 427.5 -304.5 Q 442 -280 449 -252 Q 456 -224 456 -196 Q 456 -168 450 -141.5 Q 444 -115 432 -91 Q 420 -67 401 -47 Q 382 -27 358 -14.5 Q 334 -2 307 3 Q 280 8 253 8 Z " id="path4"/>
<path d="M 282 0 L 282 -188 L 52 -188 L 52 -275 L 276 -735 L 377 -735 L 152 -275 L 282 -275 L 282 -435 L 383 -435 L 383 -275 L 440 -275 L 440 -188 L 383 -188 L 383 0 Z " id="path5"/>
<path d="M 252 8 Q 227 8 202.5 3.5 Q 178 -1 155.5 -12 Q 133 -23 114.5 -41 Q 96 -59 84 -80.5 Q 72 -102 65.5 -126.5 Q 59 -151 58 -176 L 159 -176 Q 160 -158 166.5 -139.5 Q 173 -121 185.5 -107 Q 198 -93 216 -86.5 Q 234 -80 252 -80 Q 269 -80 285 -87 Q 301 -94 312.5 -107 Q 324 -120 330.5 -135.5 Q 337 -151 341 -167.5 Q 345 -184 346.5 -201 Q 348 -218 348 -235 Q 348 -252 346.5 -269 Q 345 -286 341.5 -302.5 Q 338 -319 331.5 -334.5 Q 325 -350 314.5 -363 Q 304 -376 288 -383.5 Q 272 -391 256 -391 Q 240 -391 224 -387 Q 208 -383 195.5 -373.5 Q 183 -364 176 -349.5 Q 169 -335 168 -319 L 68 -319 L 68 -735 L 421 -735 L 421 -647 L 168 -647 L 168 -464 Q 189 -472 211 -475 Q 233 -478 256 -478 Q 285 -478 313.5 -470.5 Q 342 -463 365.5 -445.5 Q 389 -428 405.5 -403 Q 422 -378 431.5 -350.5 Q 441 -323 444.5 -294 Q 448 -265 448 -235 Q 448 -206 444.5 -176.5 Q 441 -147 431 -119 Q 421 -91 404.5 -66.5 Q 388 -42 364 -24.5 Q 340 -7 311 0.5 Q 282 8 252 8 Z " id="path6"/>
<path d="M 250 8 Q 221 8 192.5 1.5 Q 164 -5 140 -21 Q 116 -37 98.5 -60.5 Q 81 -84 70.5 -111 Q 60 -138 56 -166.5 Q 52 -195 52 -224 Q 52 -268 59.5 -311 Q 67 -354 81 -395.5 Q 95 -437 113 -477 Q 131 -517 150 -556 L 238 -735 L 347 -735 L 240 -517 Q 228 -492 216 -467 Q 204 -442 194 -416 Q 212 -436 238.5 -446 Q 265 -456 292 -456 Q 318 -456 343.5 -447 Q 369 -438 387.5 -419.5 Q 406 -401 418 -377 Q 430 -353 436.5 -328 Q 443 -303 445.5 -276.5 Q 448 -250 448 -224 Q 448 -195 444 -166.5 Q 440 -138 429.5 -111 Q 419 -84 401.5 -60.5 Q 384 -37 360 -21 Q 336 -5 307.5 1.5 Q 279 8 250 8 Z M 250 -80 Q 266 -80 282 -85.5 Q 298 -91 309.5 -102.5 Q 321 -114 328.5 -129 Q 336 -144 340.5 -159.5 Q 345 -175 346.5 -191.5 Q 348 -208 348 -224 Q 348 -240 346.5 -256.5 Q 345 -273 340.5 -289 Q 336 -305 328.5 -319.5 Q 321 -334 309.5 -345.5 Q 298 -357 282 -362.5 Q 266 -368 250 -368 Q 235 -368 221 -363.5 Q 207 -359 195.5 -349.5 Q 184 -340 176 -327.5 Q 168 -315 163.5 -301 Q 159 -287 156.5 -272.5 Q 154 -258 153 -243 Q 153 -238 152.5 -233.5 Q 152 -229 152 -224 Q 152 -208 153.5 -191.5 Q 155 -175 159.5 -159.5 Q 164 -144 171.5 -129 Q 179 -114 190.5 -102.5 Q 202 -91 218 -85.5 Q 234 -80 250 -80 Z " id="path7"/>
<path d="M 138 0 L 336 -647 L 60 -647 L 60 -735 L 440 -735 L 440 -647 L 242 0 Z " id="path8"/>
<path d="M 250 8 Q 225 8 200 4 Q 175 -0 152 -10 Q 129 -20 109.5 -37 Q 90 -54 77.5 -75.5 Q 65 -97 58.5 -121.5 Q 52 -146 52 -172 Q 52 -203 61.5 -232.5 Q 71 -262 88 -288.5 Q 105 -315 127 -336.5 Q 149 -358 174 -378 Q 152 -396 132.5 -417 Q 113 -438 98.5 -462.5 Q 84 -487 76 -514.5 Q 68 -542 68 -570 Q 68 -594 73.5 -617.5 Q 79 -641 90.5 -661.5 Q 102 -682 119.5 -698.5 Q 137 -715 158 -725 Q 179 -735 202.5 -739 Q 226 -743 250 -743 Q 274 -743 297.5 -739 Q 321 -735 342 -725 Q 363 -715 380.5 -698.5 Q 398 -682 409.5 -661.5 Q 421 -641 426.5 -617.5 Q 432 -594 432 -570 Q 432 -542 424 -514.5 Q 416 -487 401.5 -462.5 Q 387 -438 367.5 -417 Q 348 -396 326 -378 Q 351 -358 373 -336.5 Q 395 -315 412 -288.5 Q 429 -262 438.5 -232.5 Q 448 -203 448 -172 Q 448 -146 441.5 -121.5 Q 435 -97 422.5 -75.5 Q 410 -54 390.5 -37 Q 371 -20 348 -10 Q 325 -0 300 4 Q 275 8 250 8 Z M 250 -434 Q 266 -447 280.5 -461.5 Q 295 -476 306.5 -493 Q 318 -510 325 -529.5 Q 332 -549 332 -569 Q 332 -586 327 -602.5 Q 322 -619 310.5 -631.5 Q 299 -644 283 -649.5 Q 267 -655 250 -655 Q 233 -655 217 -649.5 Q 201 -644 189.5 -631.5 Q 178 -619 173 -602.5 Q 168 -586 168 -569 Q 168 -549 175 -529.5 Q 182 -510 193.5 -493 Q 205 -476 219.5 -461.5 Q 234 -447 250 -434 Z M 250 -80 Q 269 -80 288 -85.5 Q 307 -91 320.5 -104 Q 334 -117 341 -135.5 Q 348 -154 348 -173 Q 348 -196 339.5 -217.5 Q 331 -239 317 -257.5 Q 303 -276 285.5 -291 Q 268 -306 250 -320 Q 232 -306 214.5 -291 Q 197 -276 183 -257.5 Q 169 -239 160.5 -217.5 Q 152 -196 152 -173 Q 152 -154 159 -135.5 Q 166 -117 179.5 -104 Q 193 -91 212 -85.5 Q 231 -80 250 -80 Z " id="path9"/>
<path d="M 262 0 L 153 0 L 260 -218 Q 272 -243 284 -268 Q 296 -293 306 -319 Q 288 -299 261.5 -289 Q 235 -279 208 -279 Q 182 -279 156.5 -288 Q 131 -297 112.5 -315.5 Q 94 -334 82 -358 Q 70 -382 63.5 -407 Q 57 -432 54.5 -458.5 Q 52 -485 52 -511 Q 52 -540 56 -568.5 Q 60 -597 70.5 -624 Q 81 -651 98.5 -674.5 Q 116 -698 140 -714 Q 164 -730 192.5 -736.5 Q 221 -743 250 -743 Q 279 -743 307.5 -736.5 Q 336 -730 360 -714 Q 384 -698 401.5 -674.5 Q 419 -651 429.5 -624 Q 440 -597 444 -568.5 Q 448 -540 448 -511 Q 448 -467 440.5 -424 Q 433 -381 419 -339.5 Q 405 -298 387 -258 Q 369 -218 350 -179 Z M 250 -367 Q 265 -367 279 -371.5 Q 293 -376 304.5 -385.5 Q 316 -395 324 -407.5 Q 332 -420 336.5 -434 Q 341 -448 343.5 -462.5 Q 346 -477 347 -492 Q 347 -497 347.5 -501.5 Q 348 -506 348 -511 Q 348 -527 346.5 -543.5 Q 345 -560 340.5 -575.5 Q 336 -591 328.5 -606 Q 321 -621 309.5 -632.5 Q 298 -644 282 -649.5 Q 266 -655 250 -655 Q 234 -655 218 -649.5 Q 202 -644 190.5 -632.5 Q 179 -621 171.5 -606 Q 164 -591 159.5 -575.5 Q 155 -560 153.5 -543.5 Q 152 -527 152 -511 Q 152 -495 153.5 -478.5 Q 155 -462 159.5 -446 Q 164 -430 171.5 -415.5 Q 179 -401 190.5 -389.5 Q 202 -378 218 -372.5 Q 234 -367 250 -367 Z " id="path10"/>
<path d="M 39 0 L 53 -70 L 192 -735 L 308 -735 L 461 0 L 359 0 L 326 -172 L 174 -172 L 141 0 Z M 310 -260 L 267 -490 Q 263 -513 258.5 -536 Q 254 -559 250 -582 Q 246 -559 241.5 -536 Q 237 -513 233 -490 L 190 -260 Z " id="path11"/>
<path d="M 60 0 L 60 -735 L 235 -735 Q 261 -735 287 -730.5 Q 313 -726 336.5 -714 Q 360 -702 378.5 -682.5 Q 397 -663 408.5 -639.5 Q 420 -616 424.5 -590 Q 429 -564 429 -538 Q 429 -515 425.5 -492 Q 422 -469 411.5 -448.5 Q 401 -428 384.5 -411 Q 368 -394 348 -383 Q 373 -373 394.5 -355.5 Q 416 -338 430.5 -314.5 Q 445 -291 450.5 -264 Q 456 -237 456 -210 Q 456 -181 450.5 -152.5 Q 445 -124 431 -98.5 Q 417 -73 395.5 -53.5 Q 374 -34 347.5 -21.5 Q 321 -9 292.5 -4.5 Q 264 -0 235 0 Z M 160 -424 L 235 -424 Q 256 -424 275.5 -432.5 Q 295 -441 307.5 -457.5 Q 320 -474 324.5 -494.5 Q 329 -515 329 -536 Q 329 -557 324.5 -577.5 Q 320 -598 307.5 -614.5 Q 295 -631 275.5 -639 Q 256 -647 235 -647 L 160 -647 Z M 160 -88 L 235 -88 Q 251 -88 267.5 -91 Q 284 -94 298.5 -101.5 Q 313 -109 324.5 -121 Q 336 -133 343 -148 Q 350 -163 353 -179 Q 356 -195 356 -212 Q 356 -228 353 -244.5 Q 350 -261 343 -276 Q 336 -291 324.5 -303 Q 313 -315 298.5 -322.5 Q 284 -330 267.5 -333 Q 251 -336 235 -336 L 160 -336 Z " id="path12"/>
<path d="M 247 8 Q 220 8 193 3 Q 166 -2 142.5 -15.5 Q 119 -29 101 -49.5 Q 83 -70 71.5 -94.5 Q 60 -119 56 -146 Q 52 -173 52 -200 L 52 -535 Q 52 -562 56 -589 Q 60 -616 71.5 -640.5 Q 83 -665 101 -685.5 Q 119 -706 142.5 -719.5 Q 166 -733 193 -738 Q 220 -743 247 -743 Q 273 -743 298 -738.5 Q 323 -734 346 -723 Q 369 -712 387.5 -694 Q 406 -676 418 -653.5 Q 430 -631 436 -606 Q 442 -581 442 -555 L 442 -548 L 342 -548 L 342 -552 Q 342 -572 336 -591.5 Q 330 -611 317.5 -626 Q 305 -641 286 -648 Q 267 -655 247 -655 Q 225 -655 205 -645.5 Q 185 -636 173 -618 Q 161 -600 156.5 -578.5 Q 152 -557 152 -535 L 152 -200 Q 152 -178 156.5 -156.5 Q 161 -135 173 -117 Q 185 -99 205 -89.5 Q 225 -80 247 -80 Q 267 -80 286 -87 Q 305 -94 317.5 -109 Q 330 -124 336 -143.5 Q 342 -163 342 -183 L 342 -187 L 442 -187 L 442 -180 Q 442 -154 436 -129 Q 430 -104 418 -81.5 Q 406 -59 387.5 -41 Q 369 -23 346 -12 Q 323 -1 298 3.5 Q 273 8 247 8 Z " id="path13"/>
<path d="M 60 0 L 60 -735 L 220 -735 Q 250 -735 280 -730 Q 310 -725 337 -712 Q 364 -699 386.5 -678.5 Q 409 -658 423 -631.5 Q 437 -605 442.5 -575 Q 448 -545 448 -515 L 448 -220 Q 448 -190 442.5 -160 Q 437 -130 423 -103.5 Q 409 -77 386.5 -56.5 Q 364 -36 337 -23 Q 310 -10 280 -5 Q 250 -0 220 0 Z M 160 -88 L 220 -88 Q 237 -88 254.5 -91 Q 272 -94 287.5 -102.5 Q 303 -111 315 -124 Q 327 -137 334.5 -152.5 Q 342 -168 345 -185.5 Q 348 -203 348 -220 L 348 -515 Q 348 -532 345 -549.5 Q 342 -567 334.5 -582.5 Q 327 -598 315 -611 Q 303 -624 287.5 -632.5 Q 272 -641 254.5 -644 Q 237 -647 220 -647 L 160 -647 Z " id="path14"/>
<path d="M 68 0 L 68 -735 L 440 -735 L 440 -647 L 168 -647 L 168 -426 L 383 -426 L 383 -338 L 168 -338 L 168 -88 L 440 -88 L 440 0 Z " id="path15"/>
<path d="M 90 0 L 90 -735 L 440 -735 L 440 -647 L 190 -647 L 190 -426 L 383 -426 L 383 -338 L 190 -338 L 190 0 Z " id="path16"/>
<path d="M 250 8 Q 223 8 196.5 2.5 Q 170 -3 147 -16.5 Q 124 -30 106.5 -50.5 Q 89 -71 78.5 -95.5 Q 68 -120 64 -146.5 Q 60 -173 60 -200 L 60 -735 L 160 -735 L 160 -200 Q 160 -186 161.5 -172 Q 163 -158 167.5 -144.5 Q 172 -131 179.5 -118.5 Q 187 -106 197.5 -97 Q 208 -88 222 -84 Q 236 -80 250 -80 Q 264 -80 278 -84 Q 292 -88 302.5 -97 Q 313 -106 320.5 -118.5 Q 328 -131 332.5 -144.5 Q 337 -158 338.5 -172 Q 340 -186 340 -200 L 340 -735 L 440 -735 L 440 -200 Q 440 -173 436 -146.5 Q 432 -120 421.5 -95.5 Q 411 -71 393.5 -50.5 Q 376 -30 353 -16.5 Q 330 -3 303.5 2.5 Q 277 8 250 8 Z " id="path17"/>
<path d="M 296 -142 L 204 -142 L 204 -300 L 60 -300 L 60 -380 L 204 -380 L 204 -538 L 296 -538 L 296 -380 L 440 -380 L 440 -300 L 296 -300 Z " id="path18"/>
<path d="M 250 -517 Q 244 -517 237.5 -519.5 Q 231 -522 226.5 -526.5 Q 222 -531 219.5 -537.5 Q 217 -544 217 -550 Q 217 -556 219.5 -562.5 Q 222 -569 226.5 -573.5 Q 231 -578 237.5 -580.5 Q 244 -583 250 -583 Q 256 -583 262.5 -580.5 Q 269 -578 273.5 -573.5 Q 278 -569 280.5 -562.5 Q 283 -556 283 -550 Q 283 -544 280.5 -537.5 Q 278 -531 273.5 -526.5 Q 269 -522 262.5 -519.5 Q 256 -517 250 -517 Z M 145 -489 Q 139 -489 132.5 -491.5 Q 126 -494 121.5 -498.5 Q 117 -503 114.5 -509 Q 112 -515 112 -522 Q 112 -528 114.5 -534 Q 117 -540 121.5 -545 Q 126 -550 132.5 -552.5 Q 139 -555 145 -555 Q 151 -555 157.5 -552.5 Q 164 -550 168.5 -545 Q 173 -540 175.5 -534 Q 178 -528 178 -522 Q 178 -515 175.5 -509 Q 173 -503 168.5 -498.5 Q 164 -494 157.5 -491.5 Q 151 -489 145 -489 Z M 355 -489 Q 349 -489 342.5 -491.5 Q 336 -494 331.5 -498.5 Q 327 -503 324.5 -509 Q 322 -515 322 -522 Q 322 -528 324.5 -534 Q 327 -540 331.5 -545 Q 336 -550 342.5 -552.5 Q 349 -555 355 -555 Q 361 -555 367.5 -552.5 Q 374 -550 378.5 -545 Q 383 -540 385.5 -534 Q 388 -528 388 -522 Q 388 -515 385.5 -509 Q 383 -503 378.5 -498.5 Q 374 -494 367.5 -491.5 Q 361 -489 355 -489 Z M 68 -412 Q 62 -412 56 -414.5 Q 50 -417 45 -421.5 Q 40 -426 37.5 -432.5 Q 35 -439 35 -445 Q 35 -451 37.5 -457.5 Q 40 -464 45 -468.5 Q 50 -473 56 -475.5 Q 62 -478 68 -478 Q 75 -478 81 -475.5 Q 87 -473 91.5 -468.5 Q 96 -464 98.5 -457.5 Q 101 -451 101 -445 Q 101 -439 98.5 -432.5 Q 96 -426 91.5 -421.5 Q 87 -417 81 -414.5 Q 75 -412 68 -412 Z M 432 -412 Q 425 -412 419 -414.5 Q 413 -417 408.5 -421.5 Q 404 -426 401.5 -432.5 Q 399 -439 399 -445 Q 399 -451 401.5 -457.5 Q 404 -464 408.5 -468.5 Q 413 -473 419 -475.5 Q 425 -478 432 -478 Q 438 -478 444 -475.5 Q 450 -473 455 -468.5 Q 460 -464 462.5 -457.5 Q 465 -451 465 -445 Q 465 -439 462.5 -432.5 Q 460 -426 455 -421.5 Q 450 -417 444 -414.5 Q 438 -412 432 -412 Z M 40 -307 Q 34 -307 27.5 -309.5 Q 21 -312 16.5 -316.5 Q 12 -321 9.5 -327.5 Q 7 -334 7 -340 Q 7 -346 9.5 -352.5 Q 12 -359 16.5 -363.5 Q 21 -368 27.5 -370.5 Q 34 -373 40 -373 Q 46 -373 52.5 -370.5 Q 59 -368 63.5 -363.5 Q 68 -359 70.5 -352.5 Q 73 -346 73 -340 Q 73 -334 70.5 -327.5 Q 68 -321 63.5 -316.5 Q 59 -312 52.5 -309.5 Q 46 -307 40 -307 Z M 460 -307 Q 454 -307 447.5 -309.5 Q 441 -312 436.5 -316.5 Q 432 -321 429.5 -327.5 Q 427 -334 427 -340 Q 427 -346 429.5 -352.5 Q 432 -359 436.5 -363.5 Q 441 -368 447.5 -370.5 Q 454 -373 460 -373 Q 466 -373 472.5 -370.5 Q 479 -368 483.5 -363.5 Q 488 -359 490.5 -352.5 Q 493 -346 493 -340 Q 493 -334 490.5 -327.5 Q 488 -321 483.5 -316.5 Q 479 -312 472.5 -309.5 Q 466 -307 460 -307 Z M 432 -202 Q 425 -202 419 -204.5 Q 413 -207 408.5 -211.5 Q 404 -216 401.5 -222.5 Q 399 -229 399 -235 Q 399 -241 401.5 -247.5 Q 404 -254 408.5 -258.5 Q 413 -263 419 -265.5 Q 425 -268 432 -268 Q 438 -268 444 -265.5 Q 450 -263 455 -258.5 Q 460 -254 462.5 -247.5 Q 465 -241 465 -235 Q 465 -229 462.5 -222.5 Q 460 -216 455 -211.5 Q 450 -207 444 -204.5 Q 438 -202 432 -202 Z M 68 -202 Q 62 -202 56 -204.5 Q 50 -207 45 -211.5 Q 40 -216 37.5 -222.5 Q 35 -229 35 -235 Q 35 -241 37.5 -247.5 Q 40 -254 45 -258.5 Q 50 -263 56 -265.5 Q 62 -268 68 -268 Q 75 -268 81 -265.5 Q 87 -263 91.5 -258.5 Q 96 -254 98.5 -247.5 Q 101 -241 101 -235 Q 101 -229 98.5 -222.5 Q 96 -216 91.5 -211.5 Q 87 -207 81 -204.5 Q 75 -202 68 -202 Z M 355 -125 Q 349 -125 342.5 -127.5 Q 336 -130 331.5 -135 Q 327 -140 324.5 -146 Q 322 -152 322 -158 Q 322 -165 324.5 -171 Q 327 -177 331.5 -181.5 Q 336 -186 342.5 -188.5 Q 349 -191 355 -191 Q 361 -191 367.5 -188.5 Q 374 -186 378.5 -181.5 Q 383 -177 385.5 -171 Q 388 -165 388 -158 Q 388 -152 385.5 -146 Q 383 -140 378.5 -135 Q 374 -130 367.5 -127.5 Q 361 -125 355 -125 Z M 145 -125 Q 139 -125 132.5 -127.5 Q 126 -130 121.5 -135 Q 117 -140 114.5 -146 Q 112 -152 112 -158 Q 112 -165 114.5 -171 Q 117 -177 121.5 -181.5 Q 126 -186 132.5 -188.5 Q 139 -191 145 -191 Q 151 -191 157.5 -188.5 Q 164 -186 168.5 -181.5 Q 173 -177 175.5 -171 Q 178 -165 178 -158 Q 178 -152 175.5 -146 Q 173 -140 168.5 -135 Q 164 -130 157.5 -127.5 Q 151 -125 145 -125 Z M 250 -97 Q 244 -97 237.5 -99.5 Q 231 -102 226.5 -106.5 Q 222 -111 219.5 -117.5 Q 217 -124 217 -130 Q 217 -136 219.5 -142.5 Q 222 -149 226.5 -153.5 Q 231 -158 237.5 -160.5 Q 244 -163 250 -163 Q 256 -163 262.5 -160.5 Q 269 -158 273.5 -153.5 Q 278 -149 280.5 -142.5 Q 283 -136 283 -130 Q 283 -124 280.5 -117.5 Q 278 -111 273.5 -106.5 Q 269 -102 262.5 -99.5 Q 256 -97 250 -97 Z " id="path19"/>
<path d="M 64 0 L 64 -735 L 436 -735 L 436 0 Z M 104 -333 L 394 -695 L 300 -695 L 104 -450 Z M 104 -489 L 269 -695 L 175 -695 L 104 -606 Z M 104 -645 L 144 -695 L 104 -695 Z M 104 -176 L 396 -543 L 396 -660 L 104 -294 Z M 104 -40 L 119 -40 L 396 -386 L 396 -504 L 104 -137 Z M 150 -40 L 244 -40 L 396 -230 L 396 -347 Z M 275 -40 L 369 -40 L 396 -74 L 396 -191 Z " id="path20"/>
<path d="M -444 -590 L -491 -623 L -396 -760 L -304 -760 L -250 -682 L -196 -760 L -104 -760 L -9 -623 L -56 -590 L -150 -704 L -244 -590 L -250 -594 L -256 -590 L -350 -704 Z " id="path21"/>
<path d="M -250 -578 Q -269 -578 -287 -583.5 Q -305 -589 -318 -602 Q -331 -615 -336.5 -633 Q -342 -651 -342 -670 Q -342 -689 -336.5 -707 Q -331 -725 -318 -738 Q -305 -751 -287 -756.5 Q -269 -762 -250 -762 Q -231 -762 -213 -756.5 Q -195 -751 -182 -738 Q -169 -725 -163.5 -707 Q -158 -689 -158 -670 Q -158 -651 -163.5 -633 Q -169 -615 -182 -602 Q -195 -589 -213 -583.5 Q -231 -578 -250 -578 Z M -420 -608 Q -432 -608 -444.5 -611.5 Q -457 -615 -466 -624 Q -475 -633 -478.5 -645.5 Q -482 -658 -482 -670 Q -482 -682 -478.5 -694.5 Q -475 -707 -466 -716 Q -457 -725 -444.5 -728.5 Q -432 -732 -420 -732 Q -408 -732 -395.5 -728.5 Q -383 -725 -374 -716 Q -365 -707 -361.5 -694.5 Q -358 -682 -358 -670 Q -358 -658 -361.5 -645.5 Q -365 -633 -374 -624 Q -383 -615 -395.5 -611.5 Q -408 -608 -420 -608 Z M -80 -608 Q -92 -608 -104.5 -611.5 Q -117 -615 -126 -624 Q -135 -633 -138.5 -645.5 Q -142 -658 -142 -670 Q -142 -682 -138.5 -694.5 Q -135 -707 -126 -716 Q -117 -725 -104.5 -728.5 Q -92 -732 -80 -732 Q -68 -732 -55.5 -728.5 Q -43 -725 -34 -716 Q -25 -707 -21.5 -694.5 Q -18 -682 -18 -670 Q -18 -658 -21.5 -645.5 Q -25 -633 -34 -624 Q -43 -615 -55.5 -611.5 Q -68 -608 -80 -608 Z M -250 -630 Q -242 -630 -234 -632.5 Q -226 -635 -220.5 -640.5 Q -215 -646 -212.5 -654 Q -210 -662 -210 -670 Q -210 -678 -212.5 -686 Q -215 -694 -220.5 -699.5 Q -226 -705 -234 -707.5 Q -242 -710 -250 -710 Q -258 -710 -266 -707.5 Q -274 -705 -279.5 -699.5 Q -285 -694 -287.5 -686 Q -290 -678 -290 -670 Q -290 -662 -287.5 -654 Q -285 -646 -279.5 -640.5 Q -274 -635 -266 -632.5 Q -258 -630 -250 -630 Z " id="path22"/>
<path d="M -171 -578 Q -190 -578 -208 -583.5 Q -226 -589 -239 -602 Q -252 -615 -257.5 -633 Q -263 -651 -263 -670 Q -263 -689 -257.5 -707 Q -252 -725 -239 -738 Q -226 -751 -208 -756.5 Q -190 -762 -171 -762 Q -152 -762 -134 -756.5 Q -116 -751 -103 -738 Q -90 -725 -84.5 -707 Q -79 -689 -79 -670 Q -79 -651 -84.5 -633 Q -90 -615 -103 -602 Q -116 -589 -134 -583.5 Q -152 -578 -171 -578 Z M -171 -630 Q -163 -630 -155 -632.5 Q -147 -635 -141.5 -640.5 Q -136 -646 -133.5 -654 Q -131 -662 -131 -670 Q -131 -678 -133.5 -686 Q -136 -694 -141.5 -699.5 Q -147 -705 -155 -707.5 Q -163 -710 -171 -710 Q -179 -710 -187 -707.5 Q -195 -705 -200.5 -699.5 Q -206 -694 -208.5 -686 Q -211 -678 -211 -670 Q -211 -662 -208.5 -654 Q -206 -646 -200.5 -640.5 Q -195 -635 -187 -632.5 Q -179 -630 -171 -630 Z M -329 -578 Q -348 -578 -366 -583.5 Q -384 -589 -397 -602 Q -410 -615 -415.5 -633 Q -421 -651 -421 -670 Q -421 -689 -415.5 -707 Q -410 -725 -397 -738 Q -384 -751 -366 -756.5 Q -348 -762 -329 -762 Q -310 -762 -292 -756.5 Q -274 -751 -261 -738 Q -248 -725 -242.5 -707 Q -237 -689 -237 -670 Q -237 -651 -242.5 -633 Q -248 -615 -261 -602 Q -274 -589 -292 -583.5 Q -310 -578 -329 -578 Z M -329 -630 Q -321 -630 -313 -632.5 Q -305 -635 -299.5 -640.5 Q -294 -646 -291.5 -654 Q -289 -662 -289 -670 Q -289 -678 -291.5 -686 Q -294 -694 -299.5 -699.5 Q -305 -705 -313 -707.5 Q -321 -710 -329 -710 Q -337 -710 -345 -707.5 Q -353 -705 -358.5 -699.5 Q -364 -694 -366.5 -686 Q -369 -678 -369 -670 Q -369 -662 -366.5 -654 Q -364 -646 -358.5 -640.5 Q -353 -635 -345 -632.5 Q -337 -630 -329 -630 Z " id="path23"/>
<path d="M -250 -567 L -343 -652 L -307 -688 L -277 -659 L -277 -740 L -223 -740 L -223 -659 L -193 -688 L -157 -652 Z " id="path24"/>
<path d="M -250 -781 Q -262 -781 -274.5 -785 Q -287 -789 -296 -797.5 Q -305 -806 -308.5 -818.5 Q -312 -831 -312 -843 Q -312 -856 -308.5 -868 Q -305 -880 -296 -889 Q -287 -898 -274.5 -901.5 Q -262 -905 -250 -905 Q -238 -905 -225.5 -901.5 Q -213 -898 -204 -889 Q -195 -880 -191.5 -868 Q -188 -856 -188 -843 Q -188 -831 -191.5 -818.5 Q -195 -806 -204 -797.5 Q -213 -789 -225.5 -785 Q -238 -781 -250 -781 Z M -150 -608 Q -162 -608 -174.5 -611.5 Q -187 -615 -196 -624 Q -205 -633 -208.5 -645.5 Q -212 -658 -212 -670 Q -212 -682 -208.5 -694.5 Q -205 -707 -196 -716 Q -187 -725 -174.5 -728.5 Q -162 -732 -150 -732 Q -138 -732 -125.5 -728.5 Q -113 -725 -104 -716 Q -95 -707 -91.5 -694.5 Q -88 -682 -88 -670 Q -88 -658 -91.5 -645.5 Q -95 -633 -104 -624 Q -113 -615 -125.5 -611.5 Q -138 -608 -150 -608 Z M -350 -608 Q -362 -608 -374.5 -611.5 Q -387 -615 -396 -624 Q -405 -633 -408.5 -645.5 Q -412 -658 -412 -670 Q -412 -682 -408.5 -694.5 Q -405 -707 -396 -716 Q -387 -725 -374.5 -728.5 Q -362 -732 -350 -732 Q -338 -732 -325.5 -728.5 Q -313 -725 -304 -716 Q -295 -707 -291.5 -694.5 Q -288 -682 -288 -670 Q -288 -658 -291.5 -645.5 Q -295 -633 -304 -624 Q -313 -615 -325.5 -611.5 Q -338 -608 -350 -608 Z " id="path25"/>
<path d="M -432 243 L -468 197 L -401 150 L -468 103 L -432 57 L -350 114 L -268 57 L -232 103 L -299 150 L -232 197 L -268 243 L -350 186 Z M -232 243 L -268 197 L -201 150 L -268 103 L -232 57 L -150 114 L -68 57 L -32 103 L -99 150 L -32 197 L -68 243 L -150 186 Z " id="path26"/>
<path d="M -375 -572 Q -391 -593 -399.5 -618.5 Q -408 -644 -408 -670 Q -408 -696 -399.5 -721.5 Q -391 -747 -375 -768 L -350 -751 Q -363 -734 -369.5 -713 Q -376 -692 -376 -670 Q -376 -648 -369.5 -627 Q -363 -606 -350 -589 Z " id="path27"/>
<path d="M -125 -572 L -150 -589 Q -137 -606 -130.5 -627 Q -124 -648 -124 -670 Q -124 -692 -130.5 -713 Q -137 -734 -150 -751 L -125 -768 Q -109 -747 -100.5 -721.5 Q -92 -696 -92 -670 Q -92 -644 -100.5 -618.5 Q -109 -593 -125 -572 Z " id="path28"/>
<path d="M -457 -572 Q -472 -593 -481 -618.5 Q -490 -644 -490 -670 Q -490 -696 -481 -721.5 Q -472 -747 -457 -768 L -431 -751 Q -444 -734 -451 -713 Q -458 -692 -458 -670 Q -458 -648 -451 -627 Q -444 -606 -431 -589 Z M -375 -572 Q -391 -593 -399.5 -618.5 Q -408 -644 -408 -670 Q -408 -696 -399.5 -721.5 Q -391 -747 -375 -768 L -350 -751 Q -363 -734 -369.5 -713 Q -376 -692 -376 -670 Q -376 -648 -369.5 -627 Q -363 -606 -350 -589 Z " id="path29"/>
<path d="M -43 -572 L -69 -589 Q -56 -606 -49 -627 Q -42 -648 -42 -670 Q -42 -692 -49 -713 Q -56 -734 -69 -751 L -43 -768 Q -28 -747 -19 -721.5 Q -10 -696 -10 -670 Q -10 -644 -19 -618.5 Q -28 -593 -43 -572 Z M -125 -572 L -150 -589 Q -137 -606 -130.5 -627 Q -124 -648 -124 -670 Q -124 -692 -130.5 -713 Q -137 -734 -150 -751 L -125 -768 Q -109 -747 -100.5 -721.5 Q -92 -696 -92 -670 Q -92 -644 -100.5 -618.5 Q -109 -593 -125 -572 Z " id="path30"/>
<path d="M -375 248 Q -391 227 -399.5 201.5 Q -408 176 -408 150 Q -408 124 -399.5 98.5 Q -391 73 -375 52 L -350 69 Q -363 86 -369.5 107 Q -376 128 -376 150 Q -376 172 -369.5 193 Q -363 214 -350 231 Z " id="path31"/>
<path d="M -125 248 L -150 231 Q -137 214 -130.5 193 Q -124 172 -124 150 Q -124 128 -130.5 107 Q -137 86 -150 69 L -125 52 Q -109 73 -100.5 98.5 Q -92 124 -92 150 Q -92 176 -100.5 201.5 Q -109 227 -125 248 Z " id="path32"/>
<path d="M -307 288 L -341 80 L -296 80 L -285 228 L -269 138 L -231 138 L -215 228 L -204 80 L -159 80 L -193 288 L -230 288 L -250 186 L -270 288 Z " id="path33"/>
<path d="M -341 288 L -307 80 L -270 80 L -250 182 L -230 80 L -193 80 L -159 288 L -204 288 L -215 140 L -231 230 L -269 230 L -285 140 L -296 288 Z " id="path34"/>
<path d="M -425 -600 L -425 -740 L -350 -740 L -350 -712 L -393 -712 L -393 -628 L -350 -628 L -350 -600 Z " id="path35"/>
<path d="M -150 -600 L -150 -628 L -107 -628 L -107 -712 L -150 -712 L -150 -740 L -75 -740 L -75 -600 Z " id="path36"/>
<path d="M -313 -607 L -313 -669 L -344 -669 L -344 -713 L -313 -713 L -313 -781 L -344 -781 L -344 -825 L -313 -825 L -313 -887 L -270 -887 L -270 -825 L -230 -825 L -230 -887 L -187 -887 L -187 -825 L -156 -825 L -156 -781 L -187 -781 L -187 -713 L -156 -713 L -156 -669 L -187 -669 L -187 -607 L -230 -607 L -230 -669 L -270 -669 L -270 -607 Z M -270 -713 L -230 -713 L -230 -781 L -270 -781 Z " id="path37"/>
<path d="M -318 -600 Q -334 -600 -349.5 -605 Q -365 -610 -377 -621 Q -389 -632 -397 -646.5 Q -405 -661 -409.5 -676.5 Q -414 -692 -415.5 -708 Q -417 -724 -417 -740 L -354 -740 Q -354 -732 -353.5 -723.5 Q -353 -715 -352 -707 Q -351 -699 -349 -690.5 Q -347 -682 -343 -674.5 Q -339 -667 -332.5 -661.5 Q -326 -656 -318 -656 Q -309 -656 -302.5 -661.5 Q -296 -667 -292.5 -674.5 Q -289 -682 -286.5 -690.5 Q -284 -699 -283 -707 Q -282 -715 -281.5 -723.5 Q -281 -732 -281 -740 L -219 -740 Q -219 -732 -218.5 -723.5 Q -218 -715 -217 -707 Q -216 -699 -213.5 -690.5 Q -211 -682 -207.5 -674.5 Q -204 -667 -197.5 -661.5 Q -191 -656 -182 -656 Q -174 -656 -167.5 -661.5 Q -161 -667 -157 -674.5 Q -153 -682 -151 -690.5 Q -149 -699 -148 -707 Q -147 -715 -146.5 -723.5 Q -146 -732 -146 -740 L -83 -740 Q -83 -724 -84.5 -708 Q -86 -692 -90.5 -676.5 Q -95 -661 -103 -646.5 Q -111 -632 -123 -621 Q -135 -610 -150.5 -605 Q -166 -600 -182 -600 Q -201 -600 -219.5 -607.5 Q -238 -615 -250 -630 Q -262 -615 -280.5 -607.5 Q -299 -600 -318 -600 Z " id="path38"/>
<path d="M -282 -600 L -282 -642 L -350 -642 L -350 -698 L -282 -698 L -282 -740 L -218 -740 L -218 -698 L -150 -698 L -150 -642 L -218 -642 L -218 -600 Z " id="path39"/>
<path d="M -182 -600 L -182 -642 L -250 -642 L -250 -698 L -182 -698 L -182 -740 L -118 -740 L -118 -698 L -50 -698 L -50 -642 L -118 -642 L -118 -600 Z M -382 -600 L -382 -642 L -450 -642 L -450 -698 L -382 -698 L -382 -740 L -318 -740 L -318 -698 L -250 -698 L -250 -642 L -318 -642 L -318 -600 Z " id="path40"/>
<path d="M -382 220 L -382 178 L -450 178 L -450 122 L -382 122 L -382 80 L -318 80 L -318 122 L -182 122 L -182 80 L -118 80 L -118 122 L -50 122 L -50 178 L -118 178 L -118 220 L -182 220 L -182 178 L -318 178 L -318 220 Z " id="path41"/>
<path d="M -138 -583 L -177 -617 L -46 -760 L 1 -720 Z M -265 -583 L -304 -617 L -173 -760 L -127 -720 Z M -393 -583 L -432 -617 L -301 -760 L -254 -720 Z " id="path42"/>
<path d="M -250 -597 Q -266 -597 -281.5 -602 Q -297 -607 -308 -618.5 Q -319 -630 -323.5 -645.5 Q -328 -661 -328 -677 Q -328 -698 -317 -716.5 Q -306 -735 -289 -746 Q -296 -754 -300 -763.5 Q -304 -773 -304 -783 Q -304 -795 -299 -805.5 Q -294 -816 -286.5 -824 Q -279 -832 -269.5 -838.5 Q -260 -845 -250 -850 L -324 -850 L -324 -894 L -176 -894 L -176 -850 Q -188 -845 -200.5 -840 Q -213 -835 -224.5 -828 Q -236 -821 -245.5 -811 Q -255 -801 -255 -788 Q -255 -779 -247 -773 Q -239 -767 -231 -763 Q -223 -759 -214.5 -754.5 Q -206 -750 -199 -744 Q -192 -738 -187 -730 Q -182 -722 -178.5 -713.5 Q -175 -705 -173.5 -695.5 Q -172 -686 -172 -677 Q -172 -661 -176.5 -645.5 Q -181 -630 -192 -618.5 Q -203 -607 -218.5 -602 Q -234 -597 -250 -597 Z M -250 -641 Q -243 -641 -237 -643.5 Q -231 -646 -227.5 -651.5 Q -224 -657 -222.5 -663.5 Q -221 -670 -221 -677 Q -221 -685 -223 -692.5 Q -225 -700 -229.5 -706.5 Q -234 -713 -240.5 -717.5 Q -247 -722 -255 -725 Q -266 -717 -272.5 -704 Q -279 -691 -279 -677 Q -279 -670 -277.5 -663.5 Q -276 -657 -272.5 -651.5 Q -269 -646 -263 -643.5 Q -257 -641 -250 -641 Z " id="path43"/>
<path d="M -324 -600 L -324 -894 L -276 -894 L -276 -859 Q -273 -867 -269 -874 Q -265 -881 -259 -886.5 Q -253 -892 -245 -894.5 Q -237 -897 -229 -897 Q -215 -897 -203.5 -889 Q -192 -881 -186 -868.5 Q -180 -856 -178 -842 Q -176 -828 -176 -814 L -176 -761 Q -176 -755 -174 -748.5 Q -172 -742 -168 -736.5 Q -164 -731 -157.5 -729 Q -151 -727 -145 -727 L -142 -727 L -142 -683 L -145 -683 Q -160 -683 -176 -687.5 Q -192 -692 -203 -703 Q -214 -714 -219 -729.5 Q -224 -745 -224 -761 L -224 -814 Q -224 -821 -225 -827.5 Q -226 -834 -229 -840 Q -232 -846 -237.5 -849.5 Q -243 -853 -250 -853 Q -257 -853 -262.5 -849.5 Q -268 -846 -271 -840 Q -274 -834 -275 -827.5 Q -276 -821 -276 -814 L -276 -600 Z " id="path44"/>
<path d="M -251 -597 Q -267 -597 -282.5 -602.5 Q -298 -608 -308.5 -620 Q -319 -632 -323.5 -648 Q -328 -664 -328 -680 L -328 -706 Q -328 -722 -323.5 -737.5 Q -319 -753 -308 -764 L -324 -764 L -324 -808 L -176 -808 L -176 -764 L -250 -764 Q -259 -764 -265.5 -757 Q -272 -750 -274.5 -741.5 Q -277 -733 -278 -724 Q -279 -715 -279 -706 L -279 -680 Q -279 -673 -278 -666.5 Q -277 -660 -273.5 -654 Q -270 -648 -264 -644.5 Q -258 -641 -251 -641 Q -245 -641 -239.5 -643 Q -234 -645 -230.5 -649.5 Q -227 -654 -225 -659.5 Q -223 -665 -223 -671 L -223 -672 L -175 -672 L -175 -670 Q -175 -655 -180 -640.5 Q -185 -626 -196 -616 Q -207 -606 -221.5 -601.5 Q -236 -597 -251 -597 Z " id="path45"/>
</defs>
<g>
<g data-source-text="0" fill="#dee4e3" transform="translate(174 41.292) rotate(0) scale(0.023999998)">
<use href="#path1" transform="translate(0 0)"/>
</g>
</g>
<g>
<g data-source-text="1" fill="#dee4e3" transform="translate(246 41.292) rotate(0) scale(0.023999998)">
<use href="#path2" transform="translate(0 0)"/>
</g>
</g>
<g>
<g data-source-text="2" fill="#dee4e3" transform="translate(318 41.292) rotate(0) scale(0.023999998)">
<use href="#path3" transform="translate(0 0)"/>
</g>
</g>
<g>
<g data-source-text="3" fill="#dee4e3" transform="translate(390 41.292) rotate(0) scale(0.023999998)">
<use href="#path4" transform="translate(0 0)"/>
</g>
</g>
<g>
<g data-source-text="4" fill="#dee4e3" transform="translate(462 41.292) rotate(0) scale(0.023999998)">
<use href="#path5" transform="translate(0 0)"/>
</g>
</g>
<g>
<g data-source-text="5" fill="#dee4e3" transform="translate(534 41.292) rotate(0) scale(0.023999998)">
<use href="#path6" transform="translate(0 0)"/>
</g>
</g>
<g>
<g data-source-text="6" fill="#dee4e3" transform="translate(606 41.292) rotate(0) scale(0.023999998)">
<use href="#path7" transform="translate(0 0)"/>
</g>
</g>
<g>
<g data-source-text="7" fill="#dee4e3" transform="translate(678 41.292) rotate(0) scale(0.023999998)">
<use href="#path8" transform="translate(0 0)"/>
</g>
</g>
<g>
<g data-source-text="8" fill="#dee4e3" transform="translate(750 41.292) rotate(0) scale(0.023999998)">
<use href="#path9" transform="translate(0 0)"/>
</g>
</g>
<g>
<g data-source-text="9" fill="#dee4e3" transform="translate(822 41.292) rotate(0) scale(0.023999998)">
<use href="#path10" transform="translate(0 0)"/>
</g>
</g>
<g>
<g data-source-text="A" fill="#dee4e3" transform="translate(894 41.292) rotate(0) scale(0.023999998)">
<use href="#path11" transform="translate(0 0)"/>
</g>
</g>
<g>
<g data-source-text="B" fill="#dee4e3" transform="translate(966 41.292) rotate(0) scale(0.023999998)">
<use href="#path12" transform="translate(0 0)"/>
</g>
</g>
<g>
<g data-source-text="C" fill="#dee4e3" transform="translate(1038 41.292) rotate(0) scale(0.023999998)">
<use href="#path13" transform="translate(0 0)"/>
</g>
</g>
<g>
<g data-source-text="D" fill="#dee4e3" transform="translate(1110 41.292) rotate(0) scale(0.023999998)">
<use href="#path14" transform="translate(0 0)"/>
</g>
</g>
<g>
<g data-source-text="E" fill="#dee4e3" transform="translate(1182 41.292) rotate(0) scale(0.023999998)">
<use href="#path15" transform="translate(0 0)"/>
</g>
</g>
<g>
<g data-source-text="F" fill="#dee4e3" transform="translate(1254 41.292) rotate(0) scale(0.023999998)">
<use href="#path16" transform="translate(0 0)"/>
</g>
</g>
<g>
<g data-source-text="U+1AB0" fill="#dee4e3" transform="translate(36 113.292) rotate(0) scale(0.023999998)">
<use href="#path17" transform="translate(0 0)"/>
<use href="#path18" transform="translate(500 0)"/>
<use href="#path2" transform="translate(1000 0)"/>
<use href="#path11" transform="translate(1500 0)"/>
<use href="#path12" transform="translate(2000 0)"/>
<use href="#path1" transform="translate(2500 0)"/>
</g>
</g>
<g>
<g data-source-text="◌" fill="#03aee9" transform="translate(168 118.584) rotate(0) scale(0.047999997)">
<use href="#path19" transform="translate(0 0)"/>
</g>
</g>
<g>
<g data-source-text="᪰" fill="#dee4e3" transform="translate(168 118.584) rotate(0) scale(0.047999997)">
<use href="#path20" transform="translate(0 0)"/>
<use href="#path21" transform="translate(500 0)"/>
</g>
</g>
<g>
<g data-source-text="◌" fill="#03aee9" transform="translate(240 118.584) rotate(0) scale(0.047999997)">
<use href="#path19" transform="translate(0 0)"/>
</g>
</g>
<g>
<g data-source-text="᪱" fill="#dee4e3" transform="translate(240 118.584) rotate(0) scale(0.047999997)">
<use href="#path20" transform="translate(0 0)"/>
<use href="#path22" transform="translate(500 0)"/>
</g>
</g>
<g>
<g data-source-text="◌" fill="#03aee9" transform="translate(312 118.584) rotate(0) scale(0.047999997)">
<use href="#path19" transform="translate(0 0)"/>
</g>
</g>
<g>
<g data-source-text="᪲" fill="#dee4e3" transform="translate(312 118.584) rotate(0) scale(0.047999997)">
<use href="#path20" transform="translate(0 0)"/>
<use href="#path23" transform="translate(500 0)"/>
</g>
</g>
<g>
<g data-source-text="◌" fill="#03aee9" transform="translate(384 118.584) rotate(0) scale(0.047999997)">
<use href="#path19" transform="translate(0 0)"/>
</g>
</g>
<g>
<g data-source-text="᪳" fill="#dee4e3" transform="translate(384 118.584) rotate(0) scale(0.047999997)">
<use href="#path20" transform="translate(0 0)"/>
<use href="#path24" transform="translate(500 0)"/>
</g>
</g>
<g>
<g data-source-text="◌" fill="#03aee9" transform="translate(456 118.584) rotate(0) scale(0.047999997)">
<use href="#path19" transform="translate(0 0)"/>
</g>
</g>
<g>
<g data-source-text="᪴" fill="#dee4e3" transform="translate(456 118.584) rotate(0) scale(0.047999997)">
<use href="#path20" transform="translate(0 0)"/>
<use href="#path25" transform="translate(500 0)"/>
</g>
</g>
<g>
<g data-source-text="◌" fill="#03aee9" transform="translate(528 118.584) rotate(0) scale(0.047999997)">
<use href="#path19" transform="translate(0 0)"/>
</g>
</g>
<g>
<g data-source-text="᪵" fill="#dee4e3" transform="translate(528 118.584) rotate(0) scale(0.047999997)">
<use href="#path20" transform="translate(0 0)"/>
<use href="#path26" transform="translate(500 0)"/>
</g>
</g>
<g>
<g data-source-text="" fill="#dee4e340" transform="translate(600 118.584) rotate(0) scale(0.047999997)">
<use href="#path20" transform="translate(0 0)"/>
</g>
</g>
<g>
<g data-source-text="" fill="#dee4e340" transform="translate(672 118.584) rotate(0) scale(0.047999997)">
<use href="#path20" transform="translate(0 0)"/>
</g>
</g>
<g>
<g data-source-text="" fill="#dee4e340" transform="translate(744 118.584) rotate(0) scale(0.047999997)">
<use href="#path20" transform="translate(0 0)"/>
</g>
</g>
<g>
<g data-source-text="" fill="#dee4e340" transform="translate(816 118.584) rotate(0) scale(0.047999997)">
<use href="#path20" transform="translate(0 0)"/>
</g>
</g>
<g>
<g data-source-text="" fill="#dee4e340" transform="translate(888 118.584) rotate(0) scale(0.047999997)">
<use href="#path20" transform="translate(0 0)"/>
</g>
</g>
<g>
<g data-source-text="◌" fill="#03aee9" transform="translate(960 118.584) rotate(0) scale(0.047999997)">
<use href="#path19" transform="translate(0 0)"/>
</g>
</g>
<g>
<g data-source-text="᪻" fill="#dee4e3" transform="translate(960 118.584) rotate(0) scale(0.047999997)">
<use href="#path20" transform="translate(0 0)"/>
<use href="#path27" transform="translate(500 0)"/>
<use href="#path28" transform="translate(500 0)"/>
</g>
</g>
<g>
<g data-source-text="◌" fill="#03aee9" transform="translate(1032 118.584) rotate(0) scale(0.047999997)">
<use href="#path19" transform="translate(0 0)"/>
</g>
</g>
<g>
<g data-source-text="᪼" fill="#dee4e3" transform="translate(1032 118.584) rotate(0) scale(0.047999997)">
<use href="#path20" transform="translate(0 0)"/>
<use href="#path29" transform="translate(500 0)"/>
<use href="#path30" transform="translate(500 0)"/>
</g>
</g>
<g>
<g data-source-text="◌" fill="#03aee9" transform="translate(1104 118.584) rotate(0) scale(0.047999997)">
<use href="#path19" transform="translate(0 0)"/>
</g>
</g>
<g>
<g data-source-text="᪽" fill="#dee4e3" transform="translate(1104 118.584) rotate(0) scale(0.047999997)">
<use href="#path20" transform="translate(0 0)"/>
<use href="#path31" transform="translate(500 0)"/>
<use href="#path32" transform="translate(500 0)"/>
</g>
</g>
<g>
<g data-source-text="" fill="#dee4e340" transform="translate(1176 118.584) rotate(0) scale(0.047999997)">
<use href="#path20" transform="translate(0 0)"/>
</g>
</g>
<g>
<g data-source-text="◌" fill="#03aee9" transform="translate(1248 118.584) rotate(0) scale(0.047999997)">
<use href="#path19" transform="translate(0 0)"/>
</g>
</g>
<g>
<g data-source-text="ᪿ" fill="#dee4e3" transform="translate(1248 118.584) rotate(0) scale(0.047999997)">
<use href="#path20" transform="translate(0 0)"/>
<use href="#path33" transform="translate(500 0)"/>
</g>
</g>
<g>
<g data-source-text="U+1AC0" fill="#dee4e3" transform="translate(36 185.292) rotate(0) scale(0.023999998)">
<use href="#path17" transform="translate(0 0)"/>
<use href="#path18" transform="translate(500 0)"/>
<use href="#path2" transform="translate(1000 0)"/>
<use href="#path11" transform="translate(1500 0)"/>
<use href="#path13" transform="translate(2000 0)"/>
<use href="#path1" transform="translate(2500 0)"/>
</g>
</g>
<g>
<g data-source-text="◌" fill="#03aee9" transform="translate(168 190.584) rotate(0) scale(0.047999997)">
<use href="#path19" transform="translate(0 0)"/>
</g>
</g>
<g>
<g data-source-text="ᫀ" fill="#dee4e3" transform="translate(168 190.584) rotate(0) scale(0.047999997)">
<use href="#path20" transform="translate(0 0)"/>
<use href="#path34" transform="translate(500 0)"/>
</g>
</g>
<g>
<g data-source-text="◌" fill="#03aee9" transform="translate(240 190.584) rotate(0) scale(0.047999997)">
<use href="#path19" transform="translate(0 0)"/>
</g>
</g>
<g>
<g data-source-text="᫁" fill="#dee4e3" transform="translate(240 190.584) rotate(0) scale(0.047999997)">
<use href="#path20" transform="translate(0 0)"/>
<use href="#path27" transform="translate(500 0)"/>
</g>
</g>
<g>
<g data-source-text="◌" fill="#03aee9" transform="translate(312 190.584) rotate(0) scale(0.047999997)">
<use href="#path19" transform="translate(0 0)"/>
</g>
</g>
<g>
<g data-source-text="᫂" fill="#dee4e3" transform="translate(312 190.584) rotate(0) scale(0.047999997)">
<use href="#path20" transform="translate(0 0)"/>
<use href="#path28" transform="translate(500 0)"/>
</g>
</g>
<g>
<g data-source-text="◌" fill="#03aee9" transform="translate(384 190.584) rotate(0) scale(0.047999997)">
<use href="#path19" transform="translate(0 0)"/>
</g>
</g>
<g>
<g data-source-text="᫃" fill="#dee4e3" transform="translate(384 190.584) rotate(0) scale(0.047999997)">
<use href="#path20" transform="translate(0 0)"/>
<use href="#path31" transform="translate(500 0)"/>
</g>
</g>
<g>
<g data-source-text="◌" fill="#03aee9" transform="translate(456 190.584) rotate(0) scale(0.047999997)">
<use href="#path19" transform="translate(0 0)"/>
</g>
</g>
<g>
<g data-source-text="᫄" fill="#dee4e3" transform="translate(456 190.584) rotate(0) scale(0.047999997)">
<use href="#path20" transform="translate(0 0)"/>
<use href="#path32" transform="translate(500 0)"/>
</g>
</g>
<g>
<g data-source-text="◌" fill="#03aee9" transform="translate(528 190.584) rotate(0) scale(0.047999997)">
<use href="#path19" transform="translate(0 0)"/>
</g>
</g>
<g>
<g data-source-text="᫅" fill="#dee4e3" transform="translate(528 190.584) rotate(0) scale(0.047999997)">
<use href="#path20" transform="translate(0 0)"/>
<use href="#path35" transform="translate(500 0)"/>
<use href="#path36" transform="translate(500 0)"/>
</g>
</g>
<g>
<g data-source-text="◌" fill="#03aee9" transform="translate(600 190.584) rotate(0) scale(0.047999997)">
<use href="#path19" transform="translate(0 0)"/>
</g>
</g>
<g>
<g data-source-text="᫆" fill="#dee4e3" transform="translate(600 190.584) rotate(0) scale(0.047999997)">
<use href="#path20" transform="translate(0 0)"/>
<use href="#path37" transform="translate(500 0)"/>
</g>
</g>
<g>
<g data-source-text="◌" fill="#03aee9" transform="translate(672 190.584) rotate(0) scale(0.047999997)">
<use href="#path19" transform="translate(0 0)"/>
</g>
</g>
<g>
<g data-source-text="᫇" fill="#dee4e3" transform="translate(672 190.584) rotate(0) scale(0.047999997)">
<use href="#path20" transform="translate(0 0)"/>
<use href="#path38" transform="translate(500 0)"/>
</g>
</g>
<g>
<g data-source-text="◌" fill="#03aee9" transform="translate(744 190.584) rotate(0) scale(0.047999997)">
<use href="#path19" transform="translate(0 0)"/>
</g>
</g>
<g>
<g data-source-text="᫈" fill="#dee4e3" transform="translate(744 190.584) rotate(0) scale(0.047999997)">
<use href="#path20" transform="translate(0 0)"/>
<use href="#path39" transform="translate(500 0)"/>
</g>
</g>
<g>
<g data-source-text="◌" fill="#03aee9" transform="translate(816 190.584) rotate(0) scale(0.047999997)">
<use href="#path19" transform="translate(0 0)"/>
</g>
</g>
<g>
<g data-source-text="᫉" fill="#dee4e3" transform="translate(816 190.584) rotate(0) scale(0.047999997)">
<use href="#path20" transform="translate(0 0)"/>
<use href="#path40" transform="translate(500 0)"/>
</g>
</g>
<g>
<g data-source-text="◌" fill="#03aee9" transform="translate(888 190.584) rotate(0) scale(0.047999997)">
<use href="#path19" transform="translate(0 0)"/>
</g>
</g>
<g>
<g data-source-text="᫊" fill="#dee4e3" transform="translate(888 190.584) rotate(0) scale(0.047999997)">
<use href="#path20" transform="translate(0 0)"/>
<use href="#path41" transform="translate(500 0)"/>
</g>
</g>
<g>
<g data-source-text="◌" fill="#03aee9" transform="translate(960 190.584) rotate(0) scale(0.047999997)">
<use href="#path19" transform="translate(0 0)"/>
</g>
</g>
<g>
<g data-source-text="᫋" fill="#dee4e3" transform="translate(960 190.584) rotate(0) scale(0.047999997)">
<use href="#path20" transform="translate(0 0)"/>
<use href="#path42" transform="translate(500 0)"/>
</g>
</g>
<g>
<g data-source-text="◌" fill="#03aee9" transform="translate(1032 190.584) rotate(0) scale(0.047999997)">
<use href="#path19" transform="translate(0 0)"/>
</g>
</g>
<g>
<g data-source-text="ᫌ" fill="#dee4e3" transform="translate(1032 190.584) rotate(0) scale(0.047999997)">
<use href="#path20" transform="translate(0 0)"/>
<use href="#path43" transform="translate(500 0)"/>
</g>
</g>
<g>
<g data-source-text="◌" fill="#03aee9" transform="translate(1104 190.584) rotate(0) scale(0.047999997)">
<use href="#path19" transform="translate(0 0)"/>
</g>
</g>
<g>
<g data-source-text="ᫍ" fill="#dee4e3" transform="translate(1104 190.584) rotate(0) scale(0.047999997)">
<use href="#path20" transform="translate(0 0)"/>
<use href="#path44" transform="translate(500 0)"/>
</g>
</g>
<g>
<g data-source-text="◌" fill="#03aee9" transform="translate(1176 190.584) rotate(0) scale(0.047999997)">
<use href="#path19" transform="translate(0 0)"/>
</g>
</g>
<g>
<g data-source-text="ᫎ" fill="#dee4e3" transform="translate(1176 190.584) rotate(0) scale(0.047999997)">
<use href="#path20" transform="translate(0 0)"/>
<use href="#path45" transform="translate(500 0)"/>
</g>
</g>
<g>
<g data-source-text="" fill="#dee4e340" transform="translate(1248 190.584) rotate(0) scale(0.047999997)">
<use href="#path20" transform="translate(0 0)"/>
</g>
</g>
<g>
<g data-source-text="U+1AD0" fill="#dee4e3" transform="translate(36 257.292) rotate(0) scale(0.023999998)">
<use href="#path17" transform="translate(0 0)"/>
<use href="#path18" transform="translate(500 0)"/>
<use href="#path2" transform="translate(1000 0)"/>
<use href="#path11" transform="translate(1500 0)"/>
<use href="#path14" transform="translate(2000 0)"/>
<use href="#path1" transform="translate(2500 0)"/>
</g>
</g>
<g>
<g data-source-text="" fill="#dee4e340" transform="translate(168 262.584) rotate(0) scale(0.047999997)">
<use href="#path20" transform="translate(0 0)"/>
</g>
</g>
<g>
<g data-source-text="" fill="#dee4e340" transform="translate(240 262.584) rotate(0) scale(0.047999997)">
<use href="#path20" transform="translate(0 0)"/>
</g>
</g>
<g>
<g data-source-text="" fill="#dee4e340" transform="translate(312 262.584) rotate(0) scale(0.047999997)">
<use href="#path20" transform="translate(0 0)"/>
</g>
</g>
<g>
<g data-source-text="" fill="#dee4e340" transform="translate(384 262.584) rotate(0) scale(0.047999997)">
<use href="#path20" transform="translate(0 0)"/>
</g>
</g>
<g>
<g data-source-text="" fill="#dee4e340" transform="translate(456 262.584) rotate(0) scale(0.047999997)">
<use href="#path20" transform="translate(0 0)"/>
</g>
</g>
<g>
<g data-source-text="" fill="#dee4e340" transform="translate(528 262.584) rotate(0) scale(0.047999997)">
<use href="#path20" transform="translate(0 0)"/>
</g>
</g>
<g>
<g data-source-text="" fill="#dee4e340" transform="translate(600 262.584) rotate(0) scale(0.047999997)">
<use href="#path20" transform="translate(0 0)"/>
</g>
</g>
<g>
<g data-source-text="" fill="#dee4e340" transform="translate(672 262.584) rotate(0) scale(0.047999997)">
<use href="#path20" transform="translate(0 0)"/>
</g>
</g>
<g>
<g data-source-text="" fill="#dee4e340" transform="translate(744 262.584) rotate(0) scale(0.047999997)">
<use href="#path20" transform="translate(0 0)"/>
</g>
</g>
<g>
<g data-source-text="" fill="#dee4e340" transform="translate(816 262.584) rotate(0) scale(0.047999997)">
<use href="#path20" transform="translate(0 0)"/>
</g>
</g>
<g>
<g data-source-text="" fill="#dee4e340" transform="translate(888 262.584) rotate(0) scale(0.047999997)">
<use href="#path20" transform="translate(0 0)"/>
</g>
</g>
<g>
<g data-source-text="" fill="#dee4e340" transform="translate(960 262.584) rotate(0) scale(0.047999997)">
<use href="#path20" transform="translate(0 0)"/>
</g>
</g>
<g>
<g data-source-text="" fill="#dee4e340" transform="translate(1032 262.584) rotate(0) scale(0.047999997)">
<use href="#path20" transform="translate(0 0)"/>
</g>
</g>
<g>
<g data-source-text="" fill="#dee4e340" transform="translate(1104 262.584) rotate(0) scale(0.047999997)">
<use href="#path20" transform="translate(0 0)"/>
</g>
</g>
<g>
<g data-source-text="" fill="#dee4e340" transform="translate(1176 262.584) rotate(0) scale(0.047999997)">
<use href="#path20" transform="translate(0 0)"/>
</g>
</g>
<g>
<g data-source-text="" fill="#dee4e340" transform="translate(1248 262.584) rotate(0) scale(0.047999997)">
<use href="#path20" transform="translate(0 0)"/>
</g>
</g>
<g>
<g data-source-text="U+1AE0" fill="#dee4e3" transform="translate(36 329.292) rotate(0) scale(0.023999998)">
<use href="#path17" transform="translate(0 0)"/>
<use href="#path18" transform="translate(500 0)"/>
<use href="#path2" transform="translate(1000 0)"/>
<use href="#path11" transform="translate(1500 0)"/>
<use href="#path15" transform="translate(2000 0)"/>
<use href="#path1" transform="translate(2500 0)"/>
</g>
</g>
<g>
<g data-source-text="" fill="#dee4e340" transform="translate(168 334.584) rotate(0) scale(0.047999997)">
<use href="#path20" transform="translate(0 0)"/>
</g>
</g>
<g>
<g data-source-text="" fill="#dee4e340" transform="translate(240 334.584) rotate(0) scale(0.047999997)">
<use href="#path20" transform="translate(0 0)"/>
</g>
</g>
<g>
<g data-source-text="" fill="#dee4e340" transform="translate(312 334.584) rotate(0) scale(0.047999997)">
<use href="#path20" transform="translate(0 0)"/>
</g>
</g>
<g>
<g data-source-text="" fill="#dee4e340" transform="translate(384 334.584) rotate(0) scale(0.047999997)">
<use href="#path20" transform="translate(0 0)"/>
</g>
</g>
<g>
<g data-source-text="" fill="#dee4e340" transform="translate(456 334.584) rotate(0) scale(0.047999997)">
<use href="#path20" transform="translate(0 0)"/>
</g>
</g>
<g>
<g data-source-text="" fill="#dee4e340" transform="translate(528 334.584) rotate(0) scale(0.047999997)">
<use href="#path20" transform="translate(0 0)"/>
</g>
</g>
<g>
<g data-source-text="" fill="#dee4e340" transform="translate(600 334.584) rotate(0) scale(0.047999997)">
<use href="#path20" transform="translate(0 0)"/>
</g>
</g>
<g>
<g data-source-text="" fill="#dee4e340" transform="translate(672 334.584) rotate(0) scale(0.047999997)">
<use href="#path20" transform="translate(0 0)"/>
</g>
</g>
<g>
<g data-source-text="" fill="#dee4e340" transform="translate(744 334.584) rotate(0) scale(0.047999997)">
<use href="#path20" transform="translate(0 0)"/>
</g>
</g>
<g>
<g data-source-text="" fill="#dee4e340" transform="translate(816 334.584) rotate(0) scale(0.047999997)">
<use href="#path20" transform="translate(0 0)"/>
</g>
</g>
<g>
<g data-source-text="" fill="#dee4e340" transform="translate(888 334.584) rotate(0) scale(0.047999997)">
<use href="#path20" transform="translate(0 0)"/>
</g>
</g>
<g>
<g data-source-text="" fill="#dee4e340" transform="translate(960 334.584) rotate(0) scale(0.047999997)">
<use href="#path20" transform="translate(0 0)"/>
</g>
</g>
<g>
<g data-source-text="" fill="#dee4e340" transform="translate(1032 334.584) rotate(0) scale(0.047999997)">
<use href="#path20" transform="translate(0 0)"/>
</g>
</g>
<g>
<g data-source-text="" fill="#dee4e340" transform="translate(1104 334.584) rotate(0) scale(0.047999997)">
<use href="#path20" transform="translate(0 0)"/>
</g>
</g>
<g>
<g data-source-text="" fill="#dee4e340" transform="translate(1176 334.584) rotate(0) scale(0.047999997)">
<use href="#path20" transform="translate(0 0)"/>
</g>
</g>
<g>
<g data-source-text="" fill="#dee4e340" transform="translate(1248 334.584) rotate(0) scale(0.047999997)">
<use href="#path20" transform="translate(0 0)"/>
</g>
</g>
<g>
<g data-source-text="U+1AF0" fill="#dee4e3" transform="translate(36 401.292) rotate(0) scale(0.023999998)">
<use href="#path17" transform="translate(0 0)"/>
<use href="#path18" transform="translate(500 0)"/>
<use href="#path2" transform="translate(1000 0)"/>
<use href="#path11" transform="translate(1500 0)"/>
<use href="#path16" transform="translate(2000 0)"/>
<use href="#path1" transform="translate(2500 0)"/>
</g>
</g>
<g>
<g data-source-text="" fill="#dee4e340" transform="translate(168 406.584) rotate(0) scale(0.047999997)">
<use href="#path20" transform="translate(0 0)"/>
</g>
</g>
<g>
<g data-source-text="" fill="#dee4e340" transform="translate(240 406.584) rotate(0) scale(0.047999997)">
<use href="#path20" transform="translate(0 0)"/>
</g>
</g>
<g>
<g data-source-text="" fill="#dee4e340" transform="translate(312 406.584) rotate(0) scale(0.047999997)">
<use href="#path20" transform="translate(0 0)"/>
</g>
</g>
<g>
<g data-source-text="" fill="#dee4e340" transform="translate(384 406.584) rotate(0) scale(0.047999997)">
<use href="#path20" transform="translate(0 0)"/>
</g>
</g>
<g>
<g data-source-text="" fill="#dee4e340" transform="translate(456 406.584) rotate(0) scale(0.047999997)">
<use href="#path20" transform="translate(0 0)"/>
</g>
</g>
<g>
<g data-source-text="" fill="#dee4e340" transform="translate(528 406.584) rotate(0) scale(0.047999997)">
<use href="#path20" transform="translate(0 0)"/>
</g>
</g>
<g>
<g data-source-text="" fill="#dee4e340" transform="translate(600 406.584) rotate(0) scale(0.047999997)">
<use href="#path20" transform="translate(0 0)"/>
</g>
</g>
<g>
<g data-source-text="" fill="#dee4e340" transform="translate(672 406.584) rotate(0) scale(0.047999997)">
<use href="#path20" transform="translate(0 0)"/>
</g>
</g>
<g>
<g data-source-text="" fill="#dee4e340" transform="translate(744 406.584) rotate(0) scale(0.047999997)">
<use href="#path20" transform="translate(0 0)"/>
</g>
</g>
<g>
<g data-source-text="" fill="#dee4e340" transform="translate(816 406.584) rotate(0) scale(0.047999997)">
<use href="#path20" transform="translate(0 0)"/>
</g>
</g>
<g>
<g data-source-text="" fill="#dee4e340" transform="translate(888 406.584) rotate(0) scale(0.047999997)">
<use href="#path20" transform="translate(0 0)"/>
</g>
</g>
<g>
<g data-source-text="" fill="#dee4e340" transform="translate(960 406.584) rotate(0) scale(0.047999997)">
<use href="#path20" transform="translate(0 0)"/>
</g>
</g>
<g>
<g data-source-text="" fill="#dee4e340" transform="translate(1032 406.584) rotate(0) scale(0.047999997)">
<use href="#path20" transform="translate(0 0)"/>
</g>
</g>
<g>
<g data-source-text="" fill="#dee4e340" transform="translate(1104 406.584) rotate(0) scale(0.047999997)">
<use href="#path20" transform="translate(0 0)"/>
</g>
</g>
<g>
<g data-source-text="" fill="#dee4e340" transform="translate(1176 406.584) rotate(0) scale(0.047999997)">
<use href="#path20" transform="translate(0 0)"/>
</g>
</g>
<g>
<g data-source-text="" fill="#dee4e340" transform="translate(1248 406.584) rotate(0) scale(0.047999997)">
<use href="#path20" transform="translate(0 0)"/>
</g>
</g>
</svg>