<?xml version="1.0" encoding="UTF-8" standalone="no"?>
<svg height="360" viewBox="0 0 1296 360" width="1296" xmlns="http://www.w3.org/2000/svg">
<defs>
<path d="M 250 8 Q 223 8 196 3 Q 169 -2 145 -15 Q 121 -28 102.5 -48.5 Q 84 -69 72.5 -94 Q 61 -119 56.5 -146 Q 52 -173 52 -200 L 52 -535 Q 52 -562 56.5 -589 Q 61 -616 72.5 -641 Q 84 -666 102.5 -686.5 Q 121 -707 145 -720 Q 169 -733 196 -738 Q 223 -743 250 -743 Q 277 -743 304 -738 Q 331 -733 355 -720 Q 379 -707 397.5 -686.5 Q 416 -666 427.5 -641 Q 439 -616 443.5 -589 Q 448 -562 448 -535 L 448 -200 Q 448 -173 443.5 -146 Q 439 -119 427.5 -94 Q 416 -69 397.5 -48.5 Q 379 -28 355 -15 Q 331 -2 304 3 Q 277 8 250 8 Z M 153 -337 L 347 -491 L 347 -535 Q 347 -557 342.5 -578.5 Q 338 -600 325.5 -618 Q 313 -636 292.5 -645.5 Q 272 -655 250 -655 Q 228 -655 207.5 -645.5 Q 187 -636 174.5 -618 Q 162 -600 157.5 -578.5 Q 153 -557 153 -535 Z M 250 -80 Q 272 -80 292.5 -89.5 Q 313 -99 325.5 -117 Q 338 -135 342.5 -156.5 Q 347 -178 347 -200 L 347 -398 L 153 -244 L 153 -200 Q 153 -178 157.5 -156.5 Q 162 -135 174.5 -117 Q 187 -99 207.5 -89.5 Q 228 -80 250 -80 Z " id="path1"/>
<path d="M 230 0 L 230 -631 L 110 -528 L 55 -584 L 230 -735 L 330 -735 L 330 0 Z " id="path2"/>
<path d="M 440 0 L 60 0 L 60 -1 Q 60 -27 61 -53.5 Q 62 -80 66 -106.5 Q 70 -133 77.5 -158.5 Q 85 -184 96.5 -207.5 Q 108 -231 123 -253 Q 138 -275 156 -294.5 Q 174 -314 194 -331 Q 214 -348 235.5 -364 Q 257 -380 277.5 -397 Q 298 -414 313 -435.5 Q 328 -457 335.5 -483 Q 343 -509 343 -535 Q 343 -557 339 -578 Q 335 -599 323.5 -617 Q 312 -635 292 -645 Q 272 -655 251 -655 Q 231 -655 212.5 -647.5 Q 194 -640 182 -625 Q 170 -610 164.5 -591 Q 159 -572 159 -552 L 159 -548 L 58 -548 L 58 -555 Q 58 -581 64 -605.5 Q 70 -630 81.5 -652.5 Q 93 -675 111.5 -693 Q 130 -711 152.5 -722.5 Q 175 -734 200.5 -738.5 Q 226 -743 251 -743 Q 278 -743 304.5 -737.5 Q 331 -732 354.5 -719 Q 378 -706 396 -685.5 Q 414 -665 424.5 -640.5 Q 435 -616 439.5 -589 Q 444 -562 444 -535 Q 444 -501 435 -468 Q 426 -435 407.5 -406 Q 389 -377 364 -353.5 Q 339 -330 312.5 -308.5 Q 286 -287 261 -264 Q 236 -241 216.5 -213 Q 197 -185 184 -153.5 Q 171 -122 166 -88 L 440 -88 Z " id="path3"/>
<path d="M 253 8 Q 227 8 201 4 Q 175 -0 151.5 -11.5 Q 128 -23 108.5 -40.5 Q 89 -58 76 -81 Q 63 -104 56.5 -129.5 Q 50 -155 50 -181 L 50 -187 L 151 -187 L 151 -184 Q 151 -163 157.5 -143 Q 164 -123 178 -108 Q 192 -93 212 -86.5 Q 232 -80 253 -80 Q 275 -80 296 -88.5 Q 317 -97 330.5 -114.5 Q 344 -132 349.5 -154 Q 355 -176 355 -198 Q 355 -217 351 -235.5 Q 347 -254 338.5 -271 Q 330 -288 316.5 -301 Q 303 -314 286 -322 Q 269 -330 250 -332 Q 231 -334 212 -334 L 212 -422 Q 229 -422 246 -424 Q 263 -426 278.5 -433 Q 294 -440 306 -452.5 Q 318 -465 325.5 -480.5 Q 333 -496 336 -513 Q 339 -530 339 -547 Q 339 -566 334.5 -585.5 Q 330 -605 319.5 -621 Q 309 -637 291 -646 Q 273 -655 253 -655 Q 234 -655 216.5 -647 Q 199 -639 187.5 -624 Q 176 -609 171.5 -590 Q 167 -571 167 -553 L 167 -548 L 66 -548 L 66 -556 Q 66 -581 71.5 -605.5 Q 77 -630 88 -652 Q 99 -674 117 -692.5 Q 135 -711 157 -722.5 Q 179 -734 203.5 -738.5 Q 228 -743 253 -743 Q 278 -743 303.5 -738 Q 329 -733 351 -721 Q 373 -709 390 -690 Q 407 -671 418 -648 Q 429 -625 434.5 -600 Q 440 -575 440 -550 Q 440 -524 434 -498.5 Q 428 -473 415.5 -450.5 Q 403 -428 384.5 -409.5 Q 366 -391 343 -379 Q 369 -368 390.5 -348.5 Q 412 -329 427 -304.5 Q 442 -280 449 -252 Q 456 -224 456 -196 Q 456 -168 450 -141.5 Q 444 -115 432 -91 Q 420 -67 401 -47 Q 382 -27 358 -14.5 Q 334 -2 307 3 Q 280 8 253 8 Z " id="path4"/>
<path d="M 282 0 L 282 -188 L 52 -188 L 52 -275 L 276 -735 L 385 -735 L 161 -275 L 282 -275 L 282 -435 L 382 -435 L 382 -275 L 440 -275 L 440 -188 L 382 -188 L 382 0 Z " id="path5"/>
<path d="M 252 8 Q 227 8 202.5 3.5 Q 178 -1 155.5 -12 Q 133 -23 115 -41 Q 97 -59 85 -80.5 Q 73 -102 66.5 -126.5 Q 60 -151 59 -176 L 159 -176 Q 161 -158 167 -139.5 Q 173 -121 185.5 -107 Q 198 -93 216 -86.5 Q 234 -80 252 -80 Q 269 -80 285 -87 Q 301 -94 312 -107 Q 323 -120 330 -135.5 Q 337 -151 340.5 -168 Q 344 -185 345.5 -202 Q 347 -219 347 -236 Q 347 -252 346 -269 Q 345 -286 341 -302 Q 337 -318 331 -334 Q 325 -350 314 -363 Q 303 -376 287.5 -383.5 Q 272 -391 256 -391 Q 240 -391 224.5 -387 Q 209 -383 196 -373.5 Q 183 -364 176 -349.5 Q 169 -335 168 -319 L 68 -319 L 68 -735 L 421 -735 L 421 -647 L 168 -647 L 168 -464 Q 189 -472 211 -475 Q 233 -478 256 -478 Q 285 -478 313.5 -470.5 Q 342 -463 365.5 -445.5 Q 389 -428 405.5 -403 Q 422 -378 431.5 -350.5 Q 441 -323 444.5 -294 Q 448 -265 448 -235 Q 448 -206 444 -176.5 Q 440 -147 430.5 -119 Q 421 -91 404 -66.5 Q 387 -42 363.5 -24.5 Q 340 -7 311 0.5 Q 282 8 252 8 Z " id="path6"/>
<path d="M 250 8 Q 221 8 192.5 1.5 Q 164 -5 140 -21 Q 116 -37 98.5 -60.5 Q 81 -84 70.5 -111 Q 60 -138 56 -166.5 Q 52 -195 52 -224 Q 52 -268 60 -311 Q 68 -354 81.5 -395.5 Q 95 -437 113 -477 Q 131 -517 150 -556 L 238 -735 L 347 -735 L 240 -517 Q 228 -493 216.5 -468.5 Q 205 -444 195 -419 Q 214 -438 239 -447 Q 264 -456 291 -456 Q 317 -456 342.5 -447 Q 368 -438 386.5 -419.5 Q 405 -401 417 -377.5 Q 429 -354 436 -328.5 Q 443 -303 445.5 -276.5 Q 448 -250 448 -224 Q 448 -195 444 -166.5 Q 440 -138 429.5 -111 Q 419 -84 401.5 -60.5 Q 384 -37 360 -21 Q 336 -5 307.5 1.5 Q 279 8 250 8 Z M 250 -80 Q 266 -80 282 -85.5 Q 298 -91 309.5 -102.5 Q 321 -114 328.5 -129 Q 336 -144 340 -159.5 Q 344 -175 345.5 -191.5 Q 347 -208 347 -224 Q 347 -240 345.5 -256.5 Q 344 -273 340 -289 Q 336 -305 328.5 -319.5 Q 321 -334 309.5 -345.5 Q 298 -357 282 -362.5 Q 266 -368 250 -368 Q 235 -368 221 -363.5 Q 207 -359 195.5 -349.5 Q 184 -340 176.5 -327.5 Q 169 -315 164 -301 Q 159 -287 156.5 -272.5 Q 154 -258 153 -243 L 153 -224 Q 153 -208 154.5 -191.5 Q 156 -175 160 -159.5 Q 164 -144 171.5 -129 Q 179 -114 190.5 -102.5 Q 202 -91 218 -85.5 Q 234 -80 250 -80 Z " id="path7"/>
<path d="M 242 0 L 138 0 L 336 -647 L 60 -647 L 60 -735 L 440 -735 L 440 -647 Z " id="path8"/>
<path d="M 250 8 Q 225 8 200 4 Q 175 -0 152 -10 Q 129 -20 109.5 -37 Q 90 -54 77.5 -75.5 Q 65 -97 58.5 -121.5 Q 52 -146 52 -172 Q 52 -203 62 -232.5 Q 72 -262 88.5 -288 Q 105 -314 127 -336 Q 149 -358 174 -378 Q 152 -396 132.5 -417 Q 113 -438 98.5 -462.5 Q 84 -487 76 -514.5 Q 68 -542 68 -570 Q 68 -594 73.5 -617 Q 79 -640 90.5 -661 Q 102 -682 119.5 -698.5 Q 137 -715 158 -725 Q 179 -735 202.5 -739 Q 226 -743 250 -743 Q 274 -743 297.5 -739 Q 321 -735 342 -725 Q 363 -715 380.5 -698.5 Q 398 -682 409.5 -661 Q 421 -640 426.5 -617 Q 432 -594 432 -570 Q 432 -542 424 -514.5 Q 416 -487 401.5 -462.5 Q 387 -438 367.5 -417 Q 348 -396 326 -378 Q 351 -358 373 -336 Q 395 -314 411.5 -288 Q 428 -262 438 -232.5 Q 448 -203 448 -172 Q 448 -146 441.5 -121.5 Q 435 -97 422.5 -75.5 Q 410 -54 390.5 -37 Q 371 -20 348 -10 Q 325 -0 300 4 Q 275 8 250 8 Z M 250 -435 Q 266 -447 280.5 -461.5 Q 295 -476 306.5 -493 Q 318 -510 325 -529.5 Q 332 -549 332 -569 Q 332 -586 326.5 -602.5 Q 321 -619 310 -631.5 Q 299 -644 283 -649.5 Q 267 -655 250 -655 Q 233 -655 217 -649.5 Q 201 -644 190 -631.5 Q 179 -619 173.5 -602.5 Q 168 -586 168 -569 Q 168 -549 175 -529.5 Q 182 -510 193.5 -493 Q 205 -476 219.5 -461.5 Q 234 -447 250 -435 Z M 250 -80 Q 269 -80 287.5 -85.5 Q 306 -91 320 -104 Q 334 -117 340.5 -135.5 Q 347 -154 347 -173 Q 347 -196 338.5 -217.5 Q 330 -239 316.5 -257.5 Q 303 -276 285.5 -291 Q 268 -306 250 -320 Q 232 -306 214.5 -291 Q 197 -276 183.5 -257.5 Q 170 -239 161.5 -217.5 Q 153 -196 153 -173 Q 153 -154 159.5 -135.5 Q 166 -117 180 -104 Q 194 -91 212.5 -85.5 Q 231 -80 250 -80 Z " id="path9"/>
<path d="M 262 0 L 153 0 L 260 -218 Q 272 -242 283.5 -266.5 Q 295 -291 305 -316 Q 286 -297 261 -288 Q 236 -279 209 -279 Q 183 -279 157.5 -288 Q 132 -297 113.5 -315.5 Q 95 -334 83 -357.5 Q 71 -381 64 -406.5 Q 57 -432 54.5 -458.5 Q 52 -485 52 -511 Q 52 -540 56 -568.5 Q 60 -597 70.5 -624 Q 81 -651 98.5 -674.5 Q 116 -698 140 -714 Q 164 -730 192.5 -736.5 Q 221 -743 250 -743 Q 279 -743 307.5 -736.5 Q 336 -730 360 -714 Q 384 -698 401.5 -674.5 Q 419 -651 429.5 -624 Q 440 -597 444 -568.5 Q 448 -540 448 -511 Q 448 -467 440 -424 Q 432 -381 418.5 -339.5 Q 405 -298 387 -258 Q 369 -218 350 -179 Z M 250 -367 Q 265 -367 279 -371.5 Q 293 -376 304.5 -385.5 Q 316 -395 323.5 -407.5 Q 331 -420 336 -434 Q 341 -448 343.5 -462.5 Q 346 -477 347 -492 L 347 -511 Q 347 -527 345.5 -543.5 Q 344 -560 340 -575.5 Q 336 -591 328.5 -606 Q 321 -621 309.5 -632.5 Q 298 -644 282 -649.5 Q 266 -655 250 -655 Q 234 -655 218 -649.5 Q 202 -644 190.5 -632.5 Q 179 -621 171.5 -606 Q 164 -591 160 -575.5 Q 156 -560 154.5 -543.5 Q 153 -527 153 -511 Q 153 -495 154.5 -478.5 Q 156 -462 160 -446 Q 164 -430 171.5 -415.5 Q 179 -401 190.5 -389.5 Q 202 -378 218 -372.5 Q 234 -367 250 -367 Z " id="path10"/>
<path d="M 39 0 L 192 -735 L 308 -735 L 461 0 L 358 0 L 326 -172 L 174 -172 L 142 0 Z M 309 -260 L 265 -490 Q 262 -511 258 -531.5 Q 254 -552 250 -572 Q 246 -552 242 -531.5 Q 238 -511 235 -490 L 191 -260 Z " id="path11"/>
<path d="M 60 0 L 60 -735 L 234 -735 Q 261 -735 287 -730.5 Q 313 -726 336 -714 Q 359 -702 377.5 -682.5 Q 396 -663 408 -639.5 Q 420 -616 424.5 -590 Q 429 -564 429 -538 Q 429 -515 425 -492 Q 421 -469 410.5 -448.5 Q 400 -428 383.5 -411 Q 367 -394 347 -383 Q 372 -373 393.5 -355.5 Q 415 -338 429.5 -314.5 Q 444 -291 450 -264 Q 456 -237 456 -210 Q 456 -181 450 -152.5 Q 444 -124 430 -98.5 Q 416 -73 394.5 -53.5 Q 373 -34 347 -21.5 Q 321 -9 292 -4.5 Q 263 -0 234 0 Z M 161 -424 L 234 -424 Q 255 -424 274.5 -432.5 Q 294 -441 306.5 -457.5 Q 319 -474 324 -494.5 Q 329 -515 329 -536 Q 329 -557 324 -577.5 Q 319 -598 306.5 -614.5 Q 294 -631 274.5 -639 Q 255 -647 234 -647 L 161 -647 Z M 161 -88 L 234 -88 Q 251 -88 267 -91 Q 283 -94 297.5 -101.5 Q 312 -109 323.5 -121 Q 335 -133 342.5 -148 Q 350 -163 352.5 -179 Q 355 -195 355 -212 Q 355 -228 352.5 -244.5 Q 350 -261 343 -276 Q 336 -291 324.5 -303 Q 313 -315 298 -322.5 Q 283 -330 267 -333 Q 251 -336 234 -336 L 161 -336 Z " id="path12"/>
<path d="M 247 8 Q 220 8 193 2.5 Q 166 -3 142.5 -16 Q 119 -29 101 -49.5 Q 83 -70 72 -94.5 Q 61 -119 56.5 -146 Q 52 -173 52 -200 L 52 -535 Q 52 -562 56.5 -589 Q 61 -616 72 -640.5 Q 83 -665 101 -685.5 Q 119 -706 142.5 -719 Q 166 -732 193 -737.5 Q 220 -743 247 -743 Q 273 -743 298 -738.5 Q 323 -734 346 -723 Q 369 -712 387.5 -694 Q 406 -676 418 -653.5 Q 430 -631 436 -606 Q 442 -581 442 -555 L 442 -548 L 341 -548 L 341 -552 Q 341 -572 335.5 -591.5 Q 330 -611 317.5 -626 Q 305 -641 286 -648 Q 267 -655 247 -655 Q 225 -655 205 -645.5 Q 185 -636 173 -618 Q 161 -600 157 -578.5 Q 153 -557 153 -535 L 153 -200 Q 153 -178 157 -156.5 Q 161 -135 173 -117 Q 185 -99 205 -89.5 Q 225 -80 247 -80 Q 267 -80 286 -87 Q 305 -94 317.5 -109 Q 330 -124 335.5 -143.5 Q 341 -163 341 -183 L 341 -187 L 442 -187 L 442 -180 Q 442 -154 436 -129 Q 430 -104 418 -81.5 Q 406 -59 387.5 -41 Q 369 -23 346 -12 Q 323 -1 298 3.5 Q 273 8 247 8 Z " id="path13"/>
<path d="M 60 0 L 60 -735 L 219 -735 Q 249 -735 279 -730 Q 309 -725 336.5 -712 Q 364 -699 386 -678.5 Q 408 -658 422 -631.5 Q 436 -605 442 -575 Q 448 -545 448 -515 L 448 -220 Q 448 -190 442 -160 Q 436 -130 422 -103.5 Q 408 -77 386 -56.5 Q 364 -36 336.5 -23 Q 309 -10 279 -5 Q 249 -0 219 0 Z M 161 -88 L 219 -88 Q 237 -88 254 -91 Q 271 -94 286.5 -102.5 Q 302 -111 314 -124 Q 326 -137 333.5 -152.5 Q 341 -168 344 -185.5 Q 347 -203 347 -220 L 347 -515 Q 347 -532 344 -549.5 Q 341 -567 333.5 -582.5 Q 326 -598 314 -611 Q 302 -624 286.5 -632.5 Q 271 -641 254 -644 Q 237 -647 219 -647 L 161 -647 Z " id="path14"/>
<path d="M 68 0 L 68 -735 L 440 -735 L 440 -647 L 169 -647 L 169 -426 L 383 -426 L 383 -338 L 169 -338 L 169 -88 L 440 -88 L 440 0 Z " id="path15"/>
<path d="M 91 0 L 91 -735 L 440 -735 L 440 -647 L 191 -647 L 191 -426 L 383 -426 L 383 -338 L 191 -338 L 191 0 Z " id="path16"/>
<path d="M 250 8 Q 223 8 196.5 2.5 Q 170 -3 147 -16.5 Q 124 -30 106.5 -50.5 Q 89 -71 78.5 -95.5 Q 68 -120 64 -146.5 Q 60 -173 60 -200 L 60 -735 L 161 -735 L 161 -200 Q 161 -186 162.5 -172 Q 164 -158 168 -144.5 Q 172 -131 179.5 -118.5 Q 187 -106 197.5 -97 Q 208 -88 222 -84 Q 236 -80 250 -80 Q 264 -80 278 -84 Q 292 -88 302.5 -97 Q 313 -106 320.5 -118.5 Q 328 -131 332 -144.5 Q 336 -158 337.5 -172 Q 339 -186 339 -200 L 339 -735 L 440 -735 L 440 -200 Q 440 -173 436 -146.5 Q 432 -120 421.5 -95.5 Q 411 -71 393.5 -50.5 Q 376 -30 353 -16.5 Q 330 -3 303.5 2.5 Q 277 8 250 8 Z " id="path17"/>
<path d="M 300 -143 L 200 -143 L 200 -296 L 60 -296 L 60 -384 L 200 -384 L 200 -537 L 300 -537 L 300 -384 L 440 -384 L 440 -296 L 300 -296 Z " id="path18"/>
<path d="M 436 -314 L 64 -314 L 64 -366 L 436 -366 Z M 232 -444 L 232 -778 L 178 -729 L 141 -766 L 232 -848 L 302 -848 L 302 -444 Z M 177 168 L 296 -173 L 131 -173 L 131 -236 L 370 -236 L 370 -173 L 251 168 Z " id="path19"/>
<path d="M 436 -314 L 64 -314 L 64 -366 L 436 -366 Z M 232 -444 L 232 -778 L 178 -729 L 141 -766 L 232 -848 L 302 -848 L 302 -444 Z M 185 168 L 250 35 Q 252 30 254.5 25 Q 257 20 260 14 Q 251 19 241 20.5 Q 231 22 221 22 Q 206 22 191 17.5 Q 176 13 164.5 3 Q 153 -7 145.5 -20.5 Q 138 -34 133.5 -48.5 Q 129 -63 127.5 -78.5 Q 126 -94 126 -109 Q 126 -135 133 -160.5 Q 140 -186 157.5 -205 Q 175 -224 200 -232.5 Q 225 -241 250 -241 Q 276 -241 301 -232.5 Q 326 -224 343.5 -205 Q 361 -186 368 -160.5 Q 375 -135 375 -109 Q 375 -86 369 -63.5 Q 363 -41 354 -20 Q 345 1 334 21.5 Q 323 42 313 63 L 262 168 Z M 251 -41 Q 261 -41 270.5 -44.5 Q 280 -48 287 -55.5 Q 294 -63 298 -72.5 Q 302 -82 303 -92 Q 304 -96 304 -100.5 Q 304 -105 304 -109 Q 304 -121 301.5 -133.5 Q 299 -146 292.5 -156 Q 286 -166 274.5 -171.5 Q 263 -177 251 -177 Q 238 -177 226.5 -171.5 Q 215 -166 208.5 -156 Q 202 -146 199.5 -133.5 Q 197 -121 197 -109 Q 197 -97 199.5 -84.5 Q 202 -72 208.5 -62 Q 215 -52 226.5 -46.5 Q 238 -41 251 -41 Z " id="path20"/>
<path d="M 436 -314 L 64 -314 L 64 -366 L 436 -366 Z M 232 -444 L 232 -778 L 178 -729 L 141 -766 L 232 -848 L 302 -848 L 302 -444 Z M 94 168 L 94 -166 L 40 -117 L 3 -154 L 94 -236 L 164 -236 L 164 168 Z M 388 172 Q 363 172 339.5 166 Q 316 160 298 144 Q 280 128 271.5 105 Q 263 82 263 58 L 263 -126 Q 263 -150 271.5 -173.5 Q 280 -197 298 -212.5 Q 316 -228 339.5 -234.5 Q 363 -241 387 -241 Q 412 -241 435.5 -234.5 Q 459 -228 477 -212.5 Q 495 -197 503.5 -173.5 Q 512 -150 512 -126 L 512 58 Q 512 82 503.5 105 Q 495 128 477 144 Q 459 160 435.5 166 Q 412 172 388 172 Z M 334 -22 L 441 -108 L 441 -126 Q 441 -137 437.5 -147 Q 434 -157 426.5 -164 Q 419 -171 408.5 -174 Q 398 -177 388 -177 Q 377 -177 366.5 -174 Q 356 -171 348.5 -164 Q 341 -157 337.5 -147 Q 334 -137 334 -126 Z M 387 109 Q 398 109 408.5 106 Q 419 103 426.5 96 Q 434 89 437.5 79 Q 441 69 441 58 L 441 -46 L 334 39 L 334 58 Q 334 69 337.5 79 Q 341 89 348.5 96 Q 356 103 366.5 106 Q 377 109 387 109 Z " id="path21"/>
<path d="M 436 -314 L 64 -314 L 64 -366 L 436 -366 Z M 232 -444 L 232 -778 L 178 -729 L 141 -766 L 232 -848 L 302 -848 L 302 -444 Z M 252 172 Q 229 172 206.5 167.5 Q 184 163 165 149.5 Q 146 136 135.5 114.5 Q 125 93 125 71 L 125 69 L 196 69 Q 196 79 201 87.5 Q 206 96 214.5 101 Q 223 106 232.5 107.5 Q 242 109 252 109 Q 263 109 273.5 106 Q 284 103 292.5 96 Q 301 89 305 78.5 Q 309 68 309 57 Q 309 42 302 28.5 Q 295 15 283 6.5 Q 271 -2 256 -4.5 Q 241 -7 227 -7 L 227 -70 Q 240 -70 253.5 -72.5 Q 267 -75 277.5 -83 Q 288 -91 294 -103.5 Q 300 -116 300 -129 Q 300 -139 297 -148.5 Q 294 -158 287 -164.5 Q 280 -171 271 -174 Q 262 -177 252 -177 Q 243 -177 234.5 -175 Q 226 -173 219 -168 Q 212 -163 208 -155 Q 204 -147 204 -138 L 204 -137 L 134 -137 L 134 -140 Q 134 -162 143 -182.5 Q 152 -203 169.5 -216.5 Q 187 -230 208.5 -235.5 Q 230 -241 252 -241 Q 275 -241 297.5 -234.5 Q 320 -228 336.5 -212.5 Q 353 -197 362 -175 Q 371 -153 371 -131 Q 371 -117 367.5 -103.5 Q 364 -90 357 -78 Q 350 -66 340 -56 Q 330 -46 318 -40 Q 331 -33 343 -23 Q 355 -13 363 0 Q 371 13 375 28 Q 379 43 379 58 Q 379 82 369.5 105 Q 360 128 342 144 Q 324 160 300 166 Q 276 172 252 172 Z " id="path22"/>
<path d="M 436 -314 L 64 -314 L 64 -366 L 436 -366 Z M 131 -444 L 131 -445 Q 131 -462 131.5 -480 Q 132 -498 135.5 -515.5 Q 139 -533 146 -549.5 Q 153 -566 163 -581 Q 173 -596 185.5 -608.5 Q 198 -621 212.5 -631.5 Q 227 -642 243 -650.5 Q 259 -659 272.5 -670.5 Q 286 -682 294 -698.5 Q 302 -715 302 -733 Q 302 -744 299.5 -754.5 Q 297 -765 290 -773 Q 283 -781 272.5 -785 Q 262 -789 251 -789 Q 242 -789 233 -787 Q 224 -785 216.5 -780 Q 209 -775 204.5 -767 Q 200 -759 200 -750 L 200 -749 L 129 -749 L 129 -751 Q 129 -773 139 -794 Q 149 -815 166.5 -828.5 Q 184 -842 206.5 -847.5 Q 229 -853 251 -853 Q 275 -853 299 -846 Q 323 -839 340.5 -822 Q 358 -805 365.5 -781 Q 373 -757 373 -733 Q 373 -715 368 -697 Q 363 -679 353.5 -664 Q 344 -649 330.5 -636.5 Q 317 -624 302 -613.5 Q 287 -603 272.5 -592.5 Q 258 -582 245 -569 Q 232 -556 222.5 -540.5 Q 213 -525 208 -508 L 370 -508 L 370 -444 Z M 252 172 Q 229 172 206.5 167.5 Q 184 163 165 149.5 Q 146 136 135.5 114.5 Q 125 93 125 71 L 125 69 L 196 69 Q 196 79 201 87.5 Q 206 96 214.5 101 Q 223 106 232.5 107.5 Q 242 109 252 109 Q 263 109 273.5 106 Q 284 103 292.5 96 Q 301 89 305 78.5 Q 309 68 309 57 Q 309 42 302 28.5 Q 295 15 283 6.5 Q 271 -2 256 -4.5 Q 241 -7 227 -7 L 227 -70 Q 240 -70 253.5 -72.5 Q 267 -75 277.5 -83 Q 288 -91 294 -103.5 Q 300 -116 300 -129 Q 300 -139 297 -148.5 Q 294 -158 287 -164.5 Q 280 -171 271 -174 Q 262 -177 252 -177 Q 243 -177 234.5 -175 Q 226 -173 219 -168 Q 212 -163 208 -155 Q 204 -147 204 -138 L 204 -137 L 134 -137 L 134 -140 Q 134 -162 143 -182.5 Q 152 -203 169.5 -216.5 Q 187 -230 208.5 -235.5 Q 230 -241 252 -241 Q 275 -241 297.5 -234.5 Q 320 -228 336.5 -212.5 Q 353 -197 362 -175 Q 371 -153 371 -131 Q 371 -117 367.5 -103.5 Q 364 -90 357 -78 Q 350 -66 340 -56 Q 330 -46 318 -40 Q 331 -33 343 -23 Q 355 -13 363 0 Q 371 13 375 28 Q 379 43 379 58 Q 379 82 369.5 105 Q 360 128 342 144 Q 324 160 300 166 Q 276 172 252 172 Z " id="path23"/>
<path d="M 436 -314 L 64 -314 L 64 -366 L 436 -366 Z M 232 -444 L 232 -778 L 178 -729 L 141 -766 L 232 -848 L 302 -848 L 302 -444 Z M 252 172 Q 229 172 207 167 Q 185 162 167 148 Q 149 134 139.5 113 Q 130 92 130 70 L 200 70 Q 200 79 204.5 87 Q 209 95 217 100 Q 225 105 234 107 Q 243 109 252 109 Q 264 109 275.5 103 Q 287 97 293.5 86.5 Q 300 76 302 63.5 Q 304 51 304 39 Q 304 26 302 14 Q 300 2 294 -8.5 Q 288 -19 277 -25.5 Q 266 -32 254 -32 Q 247 -32 240 -31 Q 233 -30 226 -28 Q 219 -26 213 -22 Q 207 -18 206 -11 L 135 -11 L 135 -236 L 358 -236 L 358 -173 L 206 -173 L 206 -90 Q 218 -93 230 -94 Q 242 -95 254 -95 Q 279 -95 304 -86 Q 329 -77 345.5 -57.5 Q 362 -38 368.5 -12.5 Q 375 13 375 39 Q 375 64 368 90 Q 361 116 344 135.5 Q 327 155 302.5 163.5 Q 278 172 252 172 Z " id="path24"/>
<path d="M 436 -314 L 64 -314 L 64 -366 L 436 -366 Z M 131 -444 L 131 -445 Q 131 -462 131.5 -480 Q 132 -498 135.5 -515.5 Q 139 -533 146 -549.5 Q 153 -566 163 -581 Q 173 -596 185.5 -608.5 Q 198 -621 212.5 -631.5 Q 227 -642 243 -650.5 Q 259 -659 272.5 -670.5 Q 286 -682 294 -698.5 Q 302 -715 302 -733 Q 302 -744 299.5 -754.5 Q 297 -765 290 -773 Q 283 -781 272.5 -785 Q 262 -789 251 -789 Q 242 -789 233 -787 Q 224 -785 216.5 -780 Q 209 -775 204.5 -767 Q 200 -759 200 -750 L 200 -749 L 129 -749 L 129 -751 Q 129 -773 139 -794 Q 149 -815 166.5 -828.5 Q 184 -842 206.5 -847.5 Q 229 -853 251 -853 Q 275 -853 299 -846 Q 323 -839 340.5 -822 Q 358 -805 365.5 -781 Q 373 -757 373 -733 Q 373 -715 368 -697 Q 363 -679 353.5 -664 Q 344 -649 330.5 -636.5 Q 317 -624 302 -613.5 Q 287 -603 272.5 -592.5 Q 258 -582 245 -569 Q 232 -556 222.5 -540.5 Q 213 -525 208 -508 L 370 -508 L 370 -444 Z M 252 172 Q 229 172 207 167 Q 185 162 167 148 Q 149 134 139.5 113 Q 130 92 130 70 L 200 70 Q 200 79 204.5 87 Q 209 95 217 100 Q 225 105 234 107 Q 243 109 252 109 Q 264 109 275.5 103 Q 287 97 293.5 86.5 Q 300 76 302 63.5 Q 304 51 304 39 Q 304 26 302 14 Q 300 2 294 -8.5 Q 288 -19 277 -25.5 Q 266 -32 254 -32 Q 247 -32 240 -31 Q 233 -30 226 -28 Q 219 -26 213 -22 Q 207 -18 206 -11 L 135 -11 L 135 -236 L 358 -236 L 358 -173 L 206 -173 L 206 -90 Q 218 -93 230 -94 Q 242 -95 254 -95 Q 279 -95 304 -86 Q 329 -77 345.5 -57.5 Q 362 -38 368.5 -12.5 Q 375 13 375 39 Q 375 64 368 90 Q 361 116 344 135.5 Q 327 155 302.5 163.5 Q 278 172 252 172 Z " id="path25"/>
<path d="M 436 -314 L 64 -314 L 64 -366 L 436 -366 Z M 252 -440 Q 229 -440 206.5 -444.5 Q 184 -449 165 -462.5 Q 146 -476 135.5 -497.5 Q 125 -519 125 -541 L 125 -543 L 196 -543 Q 196 -533 201 -524.5 Q 206 -516 214.5 -511 Q 223 -506 232.5 -504.5 Q 242 -503 252 -503 Q 263 -503 273.5 -506 Q 284 -509 292.5 -516 Q 301 -523 305 -533.5 Q 309 -544 309 -555 Q 309 -570 302 -583.5 Q 295 -597 283 -605.5 Q 271 -614 256 -616.5 Q 241 -619 227 -619 L 227 -682 Q 240 -682 253.5 -684.5 Q 267 -687 277.5 -695 Q 288 -703 294 -715.5 Q 300 -728 300 -741 Q 300 -751 297 -760.5 Q 294 -770 287 -776.5 Q 280 -783 271 -786 Q 262 -789 252 -789 Q 243 -789 234.5 -787 Q 226 -785 219 -780 Q 212 -775 208 -767 Q 204 -759 204 -750 L 204 -749 L 134 -749 L 134 -752 Q 134 -774 143 -794.5 Q 152 -815 169.5 -828.5 Q 187 -842 208.5 -847.5 Q 230 -853 252 -853 Q 275 -853 297.5 -846.5 Q 320 -840 336.5 -824.5 Q 353 -809 362 -787 Q 371 -765 371 -743 Q 371 -729 367.5 -715.5 Q 364 -702 357 -690 Q 350 -678 340 -668 Q 330 -658 318 -652 Q 331 -645 343 -635 Q 355 -625 363 -612 Q 371 -599 375 -584 Q 379 -569 379 -554 Q 379 -530 369.5 -507 Q 360 -484 342 -468 Q 324 -452 300 -446 Q 276 -440 252 -440 Z M 252 172 Q 229 172 207 167 Q 185 162 167 148 Q 149 134 139.5 113 Q 130 92 130 70 L 200 70 Q 200 79 204.5 87 Q 209 95 217 100 Q 225 105 234 107 Q 243 109 252 109 Q 264 109 275.5 103 Q 287 97 293.5 86.5 Q 300 76 302 63.5 Q 304 51 304 39 Q 304 26 302 14 Q 300 2 294 -8.5 Q 288 -19 277 -25.5 Q 266 -32 254 -32 Q 247 -32 240 -31 Q 233 -30 226 -28 Q 219 -26 213 -22 Q 207 -18 206 -11 L 135 -11 L 135 -236 L 358 -236 L 358 -173 L 206 -173 L 206 -90 Q 218 -93 230 -94 Q 242 -95 254 -95 Q 279 -95 304 -86 Q 329 -77 345.5 -57.5 Q 362 -38 368.5 -12.5 Q 375 13 375 39 Q 375 64 368 90 Q 361 116 344 135.5 Q 327 155 302.5 163.5 Q 278 172 252 172 Z " id="path26"/>
<path d="M 436 -314 L 64 -314 L 64 -366 L 436 -366 Z M 266 -444 L 266 -541 L 126 -541 L 126 -605 L 262 -848 L 340 -848 L 204 -605 L 266 -605 L 266 -676 L 337 -676 L 337 -605 L 370 -605 L 370 -541 L 337 -541 L 337 -444 Z M 252 172 Q 229 172 207 167 Q 185 162 167 148 Q 149 134 139.5 113 Q 130 92 130 70 L 200 70 Q 200 79 204.5 87 Q 209 95 217 100 Q 225 105 234 107 Q 243 109 252 109 Q 264 109 275.5 103 Q 287 97 293.5 86.5 Q 300 76 302 63.5 Q 304 51 304 39 Q 304 26 302 14 Q 300 2 294 -8.5 Q 288 -19 277 -25.5 Q 266 -32 254 -32 Q 247 -32 240 -31 Q 233 -30 226 -28 Q 219 -26 213 -22 Q 207 -18 206 -11 L 135 -11 L 135 -236 L 358 -236 L 358 -173 L 206 -173 L 206 -90 Q 218 -93 230 -94 Q 242 -95 254 -95 Q 279 -95 304 -86 Q 329 -77 345.5 -57.5 Q 362 -38 368.5 -12.5 Q 375 13 375 39 Q 375 64 368 90 Q 361 116 344 135.5 Q 327 155 302.5 163.5 Q 278 172 252 172 Z " id="path27"/>
<path d="M 436 -314 L 64 -314 L 64 -366 L 436 -366 Z M 232 -444 L 232 -778 L 178 -729 L 141 -766 L 232 -848 L 302 -848 L 302 -444 Z M 251 172 Q 225 172 200 163.5 Q 175 155 157.5 136 Q 140 117 133 92 Q 126 67 126 41 Q 126 18 132 -4.5 Q 138 -27 147 -48 Q 156 -69 167 -89.5 Q 178 -110 188 -131 L 239 -236 L 316 -236 L 251 -103 Q 249 -98 246.5 -93 Q 244 -88 241 -83 Q 250 -87 260 -89 Q 270 -91 280 -91 Q 295 -91 310 -86 Q 325 -81 336.5 -71 Q 348 -61 355.5 -47.5 Q 363 -34 367.5 -19.5 Q 372 -5 373.5 10.5 Q 375 26 375 41 Q 375 67 368 92 Q 361 117 343.5 136 Q 326 155 301 163.5 Q 276 172 251 172 Z M 250 109 Q 263 109 274.5 103.5 Q 286 98 292.5 88 Q 299 78 301.5 65.5 Q 304 53 304 41 Q 304 29 301.5 16.5 Q 299 4 292.5 -6 Q 286 -16 274.5 -21.5 Q 263 -27 250 -27 Q 240 -27 230.5 -23.5 Q 221 -20 214 -12.5 Q 207 -5 203 4.5 Q 199 14 198 24 Q 197 28 197 32.5 Q 197 37 197 41 Q 197 53 199.5 65.5 Q 202 78 208.5 88 Q 215 98 226.5 103.5 Q 238 109 250 109 Z " id="path28"/>
<path d="M 436 -314 L 64 -314 L 64 -366 L 436 -366 Z M 252 -440 Q 229 -440 207 -445 Q 185 -450 167 -464 Q 149 -478 139.5 -499 Q 130 -520 130 -542 L 200 -542 Q 200 -533 204.5 -525 Q 209 -517 217 -512 Q 225 -507 234 -505 Q 243 -503 252 -503 Q 264 -503 275.5 -509 Q 287 -515 293.5 -525.5 Q 300 -536 302 -548.5 Q 304 -561 304 -573 Q 304 -586 302 -598 Q 300 -610 294 -620.5 Q 288 -631 277 -637.5 Q 266 -644 254 -644 Q 247 -644 240 -643 Q 233 -642 226 -640 Q 219 -638 213 -634 Q 207 -630 206 -623 L 135 -623 L 135 -848 L 358 -848 L 358 -785 L 206 -785 L 206 -702 Q 218 -705 230 -706 Q 242 -707 254 -707 Q 279 -707 304 -698 Q 329 -689 345.5 -669.5 Q 362 -650 368.5 -624.5 Q 375 -599 375 -573 Q 375 -548 368 -522 Q 361 -496 344 -476.5 Q 327 -457 302.5 -448.5 Q 278 -440 252 -440 Z M 251 172 Q 225 172 200 163.5 Q 175 155 157.5 136 Q 140 117 133 92 Q 126 67 126 41 Q 126 18 132 -4.5 Q 138 -27 147 -48 Q 156 -69 167 -89.5 Q 178 -110 188 -131 L 239 -236 L 316 -236 L 251 -103 Q 249 -98 246.5 -93 Q 244 -88 241 -83 Q 250 -87 260 -89 Q 270 -91 280 -91 Q 295 -91 310 -86 Q 325 -81 336.5 -71 Q 348 -61 355.5 -47.5 Q 363 -34 367.5 -19.5 Q 372 -5 373.5 10.5 Q 375 26 375 41 Q 375 67 368 92 Q 361 117 343.5 136 Q 326 155 301 163.5 Q 276 172 251 172 Z M 250 109 Q 263 109 274.5 103.5 Q 286 98 292.5 88 Q 299 78 301.5 65.5 Q 304 53 304 41 Q 304 29 301.5 16.5 Q 299 4 292.5 -6 Q 286 -16 274.5 -21.5 Q 263 -27 250 -27 Q 240 -27 230.5 -23.5 Q 221 -20 214 -12.5 Q 207 -5 203 4.5 Q 199 14 198 24 Q 197 28 197 32.5 Q 197 37 197 41 Q 197 53 199.5 65.5 Q 202 78 208.5 88 Q 215 98 226.5 103.5 Q 238 109 250 109 Z " id="path29"/>
<path d="M 436 -314 L 64 -314 L 64 -366 L 436 -366 Z M 232 -444 L 232 -778 L 178 -729 L 141 -766 L 232 -848 L 302 -848 L 302 -444 Z M 251 172 Q 228 172 205.5 167.5 Q 183 163 165 150 Q 147 137 136.5 116 Q 126 95 126 73 Q 126 56 131.5 39.5 Q 137 23 146.5 8.5 Q 156 -6 168.5 -17.5 Q 181 -29 195 -40 Q 183 -50 172 -61.5 Q 161 -73 153 -86 Q 145 -99 140.5 -114 Q 136 -129 136 -145 Q 136 -166 145 -185.5 Q 154 -205 171 -218 Q 188 -231 208.5 -236 Q 229 -241 250 -241 Q 272 -241 292.5 -236 Q 313 -231 330 -218 Q 347 -205 356 -185.5 Q 365 -166 365 -145 Q 365 -129 360.5 -114 Q 356 -99 348 -86 Q 340 -73 329 -61.5 Q 318 -50 306 -40 Q 320 -29 332.5 -17.5 Q 345 -6 354.5 8.5 Q 364 23 369.5 39.5 Q 375 56 375 73 Q 375 95 364.5 116 Q 354 137 336 150 Q 318 163 295.5 167.5 Q 273 172 251 172 Z M 251 -81 Q 258 -87 265.5 -93.5 Q 273 -100 279.5 -107.5 Q 286 -115 290 -124.5 Q 294 -134 294 -144 Q 294 -151 290.5 -158.5 Q 287 -166 280.5 -170 Q 274 -174 266 -175.5 Q 258 -177 251 -177 Q 243 -177 235 -175.5 Q 227 -174 220.5 -170 Q 214 -166 210.5 -158.5 Q 207 -151 207 -144 Q 207 -134 211 -124.5 Q 215 -115 221.5 -107.5 Q 228 -100 235.5 -93.5 Q 243 -87 251 -81 Z M 250 109 Q 260 109 269 107.5 Q 278 106 286 101.5 Q 294 97 299 88.5 Q 304 80 304 71 Q 304 60 298.5 49.5 Q 293 39 285.5 30.5 Q 278 22 269 14.5 Q 260 7 250 1 Q 241 7 232 14.5 Q 223 22 215.5 30.5 Q 208 39 202.5 49.5 Q 197 60 197 71 Q 197 80 202 88.5 Q 207 97 215 101.5 Q 223 106 232 107.5 Q 241 109 250 109 Z " id="path30"/>
<path d="M 436 -314 L 64 -314 L 64 -366 L 436 -366 Z M 252 -440 Q 229 -440 206.5 -444.5 Q 184 -449 165 -462.5 Q 146 -476 135.5 -497.5 Q 125 -519 125 -541 L 125 -543 L 196 -543 Q 196 -533 201 -524.5 Q 206 -516 214.5 -511 Q 223 -506 232.5 -504.5 Q 242 -503 252 -503 Q 263 -503 273.5 -506 Q 284 -509 292.5 -516 Q 301 -523 305 -533.5 Q 309 -544 309 -555 Q 309 -570 302 -583.5 Q 295 -597 283 -605.5 Q 271 -614 256 -616.5 Q 241 -619 227 -619 L 227 -682 Q 240 -682 253.5 -684.5 Q 267 -687 277.5 -695 Q 288 -703 294 -715.5 Q 300 -728 300 -741 Q 300 -751 297 -760.5 Q 294 -770 287 -776.5 Q 280 -783 271 -786 Q 262 -789 252 -789 Q 243 -789 234.5 -787 Q 226 -785 219 -780 Q 212 -775 208 -767 Q 204 -759 204 -750 L 204 -749 L 134 -749 L 134 -752 Q 134 -774 143 -794.5 Q 152 -815 169.5 -828.5 Q 187 -842 208.5 -847.5 Q 230 -853 252 -853 Q 275 -853 297.5 -846.5 Q 320 -840 336.5 -824.5 Q 353 -809 362 -787 Q 371 -765 371 -743 Q 371 -729 367.5 -715.5 Q 364 -702 357 -690 Q 350 -678 340 -668 Q 330 -658 318 -652 Q 331 -645 343 -635 Q 355 -625 363 -612 Q 371 -599 375 -584 Q 379 -569 379 -554 Q 379 -530 369.5 -507 Q 360 -484 342 -468 Q 324 -452 300 -446 Q 276 -440 252 -440 Z M 251 172 Q 228 172 205.5 167.5 Q 183 163 165 150 Q 147 137 136.5 116 Q 126 95 126 73 Q 126 56 131.5 39.5 Q 137 23 146.5 8.5 Q 156 -6 168.5 -17.5 Q 181 -29 195 -40 Q 183 -50 172 -61.5 Q 161 -73 153 -86 Q 145 -99 140.5 -114 Q 136 -129 136 -145 Q 136 -166 145 -185.5 Q 154 -205 171 -218 Q 188 -231 208.5 -236 Q 229 -241 250 -241 Q 272 -241 292.5 -236 Q 313 -231 330 -218 Q 347 -205 356 -185.5 Q 365 -166 365 -145 Q 365 -129 360.5 -114 Q 356 -99 348 -86 Q 340 -73 329 -61.5 Q 318 -50 306 -40 Q 320 -29 332.5 -17.5 Q 345 -6 354.5 8.5 Q 364 23 369.5 39.5 Q 375 56 375 73 Q 375 95 364.5 116 Q 354 137 336 150 Q 318 163 295.5 167.5 Q 273 172 251 172 Z M 251 -81 Q 258 -87 265.5 -93.5 Q 273 -100 279.5 -107.5 Q 286 -115 290 -124.5 Q 294 -134 294 -144 Q 294 -151 290.5 -158.5 Q 287 -166 280.5 -170 Q 274 -174 266 -175.5 Q 258 -177 251 -177 Q 243 -177 235 -175.5 Q 227 -174 220.5 -170 Q 214 -166 210.5 -158.5 Q 207 -151 207 -144 Q 207 -134 211 -124.5 Q 215 -115 221.5 -107.5 Q 228 -100 235.5 -93.5 Q 243 -87 251 -81 Z M 250 109 Q 260 109 269 107.5 Q 278 106 286 101.5 Q 294 97 299 88.5 Q 304 80 304 71 Q 304 60 298.5 49.5 Q 293 39 285.5 30.5 Q 278 22 269 14.5 Q 260 7 250 1 Q 241 7 232 14.5 Q 223 22 215.5 30.5 Q 208 39 202.5 49.5 Q 197 60 197 71 Q 197 80 202 88.5 Q 207 97 215 101.5 Q 223 106 232 107.5 Q 241 109 250 109 Z " id="path31"/>
<path d="M 436 -314 L 64 -314 L 64 -366 L 436 -366 Z M 252 -440 Q 229 -440 207 -445 Q 185 -450 167 -464 Q 149 -478 139.5 -499 Q 130 -520 130 -542 L 200 -542 Q 200 -533 204.5 -525 Q 209 -517 217 -512 Q 225 -507 234 -505 Q 243 -503 252 -503 Q 264 -503 275.5 -509 Q 287 -515 293.5 -525.5 Q 300 -536 302 -548.5 Q 304 -561 304 -573 Q 304 -586 302 -598 Q 300 -610 294 -620.5 Q 288 -631 277 -637.5 Q 266 -644 254 -644 Q 247 -644 240 -643 Q 233 -642 226 -640 Q 219 -638 213 -634 Q 207 -630 206 -623 L 135 -623 L 135 -848 L 358 -848 L 358 -785 L 206 -785 L 206 -702 Q 218 -705 230 -706 Q 242 -707 254 -707 Q 279 -707 304 -698 Q 329 -689 345.5 -669.5 Q 362 -650 368.5 -624.5 Q 375 -599 375 -573 Q 375 -548 368 -522 Q 361 -496 344 -476.5 Q 327 -457 302.5 -448.5 Q 278 -440 252 -440 Z M 251 172 Q 228 172 205.5 167.5 Q 183 163 165 150 Q 147 137 136.5 116 Q 126 95 126 73 Q 126 56 131.5 39.5 Q 137 23 146.5 8.5 Q 156 -6 168.5 -17.5 Q 181 -29 195 -40 Q 183 -50 172 -61.5 Q 161 -73 153 -86 Q 145 -99 140.5 -114 Q 136 -129 136 -145 Q 136 -166 145 -185.5 Q 154 -205 171 -218 Q 188 -231 208.5 -236 Q 229 -241 250 -241 Q 272 -241 292.5 -236 Q 313 -231 330 -218 Q 347 -205 356 -185.5 Q 365 -166 365 -145 Q 365 -129 360.5 -114 Q 356 -99 348 -86 Q 340 -73 329 -61.5 Q 318 -50 306 -40 Q 320 -29 332.5 -17.5 Q 345 -6 354.5 8.5 Q 364 23 369.5 39.5 Q 375 56 375 73 Q 375 95 364.5 116 Q 354 137 336 150 Q 318 163 295.5 167.5 Q 273 172 251 172 Z M 251 -81 Q 258 -87 265.5 -93.5 Q 273 -100 279.5 -107.5 Q 286 -115 290 -124.5 Q 294 -134 294 -144 Q 294 -151 290.5 -158.5 Q 287 -166 280.5 -170 Q 274 -174 266 -175.5 Q 258 -177 251 -177 Q 243 -177 235 -175.5 Q 227 -174 220.5 -170 Q 214 -166 210.5 -158.5 Q 207 -151 207 -144 Q 207 -134 211 -124.5 Q 215 -115 221.5 -107.5 Q 228 -100 235.5 -93.5 Q 243 -87 251 -81 Z M 250 109 Q 260 109 269 107.5 Q 278 106 286 101.5 Q 294 97 299 88.5 Q 304 80 304 71 Q 304 60 298.5 49.5 Q 293 39 285.5 30.5 Q 278 22 269 14.5 Q 260 7 250 1 Q 241 7 232 14.5 Q 223 22 215.5 30.5 Q 208 39 202.5 49.5 Q 197 60 197 71 Q 197 80 202 88.5 Q 207 97 215 101.5 Q 223 106 232 107.5 Q 241 109 250 109 Z " id="path32"/>
<path d="M 436 -314 L 64 -314 L 64 -366 L 436 -366 Z M 177 -444 L 296 -785 L 131 -785 L 131 -848 L 370 -848 L 370 -785 L 251 -444 Z M 251 172 Q 228 172 205.5 167.5 Q 183 163 165 150 Q 147 137 136.5 116 Q 126 95 126 73 Q 126 56 131.5 39.5 Q 137 23 146.5 8.5 Q 156 -6 168.5 -17.5 Q 181 -29 195 -40 Q 183 -50 172 -61.5 Q 161 -73 153 -86 Q 145 -99 140.5 -114 Q 136 -129 136 -145 Q 136 -166 145 -185.5 Q 154 -205 171 -218 Q 188 -231 208.5 -236 Q 229 -241 250 -241 Q 272 -241 292.5 -236 Q 313 -231 330 -218 Q 347 -205 356 -185.5 Q 365 -166 365 -145 Q 365 -129 360.5 -114 Q 356 -99 348 -86 Q 340 -73 329 -61.5 Q 318 -50 306 -40 Q 320 -29 332.5 -17.5 Q 345 -6 354.5 8.5 Q 364 23 369.5 39.5 Q 375 56 375 73 Q 375 95 364.5 116 Q 354 137 336 150 Q 318 163 295.5 167.5 Q 273 172 251 172 Z M 251 -81 Q 258 -87 265.5 -93.5 Q 273 -100 279.5 -107.5 Q 286 -115 290 -124.5 Q 294 -134 294 -144 Q 294 -151 290.5 -158.5 Q 287 -166 280.5 -170 Q 274 -174 266 -175.5 Q 258 -177 251 -177 Q 243 -177 235 -175.5 Q 227 -174 220.5 -170 Q 214 -166 210.5 -158.5 Q 207 -151 207 -144 Q 207 -134 211 -124.5 Q 215 -115 221.5 -107.5 Q 228 -100 235.5 -93.5 Q 243 -87 251 -81 Z M 250 109 Q 260 109 269 107.5 Q 278 106 286 101.5 Q 294 97 299 88.5 Q 304 80 304 71 Q 304 60 298.5 49.5 Q 293 39 285.5 30.5 Q 278 22 269 14.5 Q 260 7 250 1 Q 241 7 232 14.5 Q 223 22 215.5 30.5 Q 208 39 202.5 49.5 Q 197 60 197 71 Q 197 80 202 88.5 Q 207 97 215 101.5 Q 223 106 232 107.5 Q 241 109 250 109 Z " id="path33"/>
<path d="M 436 -314 L 64 -314 L 64 -366 L 436 -366 Z M 232 -444 L 232 -778 L 178 -729 L 141 -766 L 232 -848 L 302 -848 L 302 -444 Z " id="path34"/>
<path d="M 75 0 L 75 -70 L 211 -70 L 211 -665 L 75 -665 L 75 -735 L 425 -735 L 425 -665 L 289 -665 L 289 -70 L 425 -70 L 425 0 Z " id="path35"/>
<path d="M 13 0 L 13 -70 L 91 -70 L 91 -665 L 13 -665 L 13 -735 L 225 -735 L 225 -665 L 147 -665 L 147 -70 L 225 -70 L 225 0 Z M 275 0 L 275 -70 L 353 -70 L 353 -665 L 275 -665 L 275 -735 L 487 -735 L 487 -665 L 409 -665 L 409 -70 L 487 -70 L 487 0 Z " id="path36"/>
<path d="M -1 0 L -1 -70 L 51 -70 L 51 -665 L -1 -665 L -1 -735 L 145 -735 L 145 -665 L 93 -665 L 93 -70 L 145 -70 L 145 0 Z M 177 0 L 177 -70 L 229 -70 L 229 -665 L 177 -665 L 177 -735 L 323 -735 L 323 -665 L 271 -665 L 271 -70 L 323 -70 L 323 0 Z M 355 0 L 355 -70 L 407 -70 L 407 -665 L 355 -665 L 355 -735 L 501 -735 L 501 -665 L 449 -665 L 449 -70 L 501 -70 L 501 0 Z " id="path37"/>
<path d="M 13 0 L 13 -70 L 91 -70 L 91 -665 L 13 -665 L 13 -735 L 225 -735 L 225 -665 L 147 -665 L 147 -70 L 225 -70 L 225 0 Z M 349 0 L 262 -735 L 319 -735 L 372 -245 Q 374 -223 376.5 -201 Q 379 -179 381 -157 Q 384 -179 386 -201 Q 388 -223 391 -245 L 444 -735 L 501 -735 L 414 0 Z " id="path38"/>
<path d="M 205 0 L 151 -245 L 44 -735 L 124 -735 L 224 -245 Q 231 -213 237.5 -181 Q 244 -149 250 -117 Q 256 -149 262.5 -181 Q 269 -213 276 -245 L 376 -735 L 456 -735 L 295 0 Z " id="path39"/>
<path d="M 87 0 L 0 -735 L 57 -735 L 110 -245 Q 112 -223 114.5 -201 Q 117 -179 119 -157 Q 122 -179 124 -201 Q 126 -223 129 -245 L 182 -735 L 239 -735 L 152 0 Z M 275 0 L 275 -70 L 353 -70 L 353 -665 L 275 -665 L 275 -735 L 487 -735 L 487 -665 L 409 -665 L 409 -70 L 487 -70 L 487 0 Z " id="path40"/>
<path d="M 48 0 L -8 -735 L 34 -735 L 68 -245 Q 69 -230 70 -214.5 Q 71 -199 72 -183 Q 73 -199 74 -214.5 Q 75 -230 76 -245 L 110 -735 L 153 -735 L 96 0 Z M 177 0 L 177 -70 L 229 -70 L 229 -665 L 177 -665 L 177 -735 L 323 -735 L 323 -665 L 271 -665 L 271 -70 L 323 -70 L 323 0 Z M 355 0 L 355 -70 L 407 -70 L 407 -665 L 355 -665 L 355 -735 L 501 -735 L 501 -665 L 449 -665 L 449 -70 L 501 -70 L 501 0 Z " id="path41"/>
<path d="M 28 0 L -12 -735 L 23 -735 L 46 -245 Q 47 -237 47.5 -229 Q 48 -221 48 -213 Q 48 -221 48.5 -229 Q 49 -237 50 -245 L 73 -735 L 108 -735 L 68 0 Z M 127 0 L 127 -70 L 166 -70 L 166 -665 L 127 -665 L 127 -735 L 239 -735 L 239 -665 L 200 -665 L 200 -70 L 239 -70 L 239 0 Z M 261 0 L 261 -70 L 300 -70 L 300 -665 L 261 -665 L 261 -735 L 373 -735 L 373 -665 L 334 -665 L 334 -70 L 373 -70 L 373 0 Z M 396 0 L 396 -70 L 435 -70 L 435 -665 L 396 -665 L 396 -735 L 508 -735 L 508 -665 L 469 -665 L 469 -70 L 508 -70 L 508 0 Z " id="path42"/>
<path d="M 13 0 L 13 -70 L 91 -70 L 91 -665 L 13 -665 L 13 -735 L 225 -735 L 225 -665 L 147 -665 L 147 -70 L 225 -70 L 225 0 Z M 265 0 L 353 -367 L 265 -735 L 324 -735 L 381 -490 L 438 -735 L 497 -735 L 410 -368 L 497 0 L 438 0 L 381 -245 L 324 0 Z " id="path43"/>
<path d="M 48 0 L 210 -368 L 48 -735 L 133 -735 L 250 -462 L 367 -735 L 452 -735 L 290 -367 L 452 0 L 367 0 L 250 -273 L 133 0 Z " id="path44"/>
<path d="M 3 0 L 91 -367 L 3 -735 L 62 -735 L 119 -490 L 176 -735 L 235 -735 L 148 -368 L 235 0 L 176 0 L 119 -245 L 62 0 Z M 275 0 L 275 -70 L 353 -70 L 353 -665 L 275 -665 L 275 -735 L 487 -735 L 487 -665 L 409 -665 L 409 -70 L 487 -70 L 487 0 Z " id="path45"/>
<path d="M -7 0 L 51 -367 L -7 -735 L 37 -735 L 72 -503 L 108 -735 L 152 -735 L 93 -367 L 152 0 L 108 0 L 72 -232 L 37 0 Z M 177 0 L 177 -70 L 229 -70 L 229 -665 L 177 -665 L 177 -735 L 323 -735 L 323 -665 L 271 -665 L 271 -70 L 323 -70 L 323 0 Z M 355 0 L 355 -70 L 407 -70 L 407 -665 L 355 -665 L 355 -735 L 501 -735 L 501 -665 L 449 -665 L 449 -70 L 501 -70 L 501 0 Z " id="path46"/>
<path d="M 96 0 L 96 -735 L 174 -735 L 174 -70 L 442 -70 L 442 0 Z " id="path47"/>
<path d="M 247 8 Q 221 8 194.5 3 Q 168 -2 145 -15 Q 122 -28 104 -48 Q 86 -68 75 -92 Q 64 -116 60 -142.5 Q 56 -169 56 -195 L 56 -540 Q 56 -566 60 -592.5 Q 64 -619 75 -643 Q 86 -667 104 -687 Q 122 -707 145 -720 Q 168 -733 194.5 -738 Q 221 -743 247 -743 Q 272 -743 296.5 -739 Q 321 -735 343.5 -724 Q 366 -713 384.5 -695.5 Q 403 -678 415 -656.5 Q 427 -635 432.5 -610.5 Q 438 -586 438 -561 L 438 -555 L 360 -555 L 360 -559 Q 360 -582 353 -604 Q 346 -626 330 -642.5 Q 314 -659 292 -666 Q 270 -673 247 -673 Q 222 -673 198.5 -663 Q 175 -653 160 -633.5 Q 145 -614 139.5 -589.5 Q 134 -565 134 -540 L 134 -195 Q 134 -170 139.5 -145.5 Q 145 -121 160 -101.5 Q 175 -82 198.5 -72 Q 222 -62 247 -62 Q 270 -62 292 -69 Q 314 -76 330 -92.5 Q 346 -109 353 -131 Q 360 -153 360 -176 L 360 -180 L 438 -180 L 438 -174 Q 438 -149 432.5 -124.5 Q 427 -100 415 -78.5 Q 403 -57 384.5 -39.5 Q 366 -22 343.5 -11 Q 321 0 296.5 4 Q 272 8 247 8 Z " id="path48"/>
<path d="M 64 0 L 64 -735 L 222 -735 Q 251 -735 280 -730 Q 309 -725 335.5 -712.5 Q 362 -700 384 -680 Q 406 -660 419.5 -634 Q 433 -608 438.5 -579 Q 444 -550 444 -521 L 444 -215 Q 444 -185 438.5 -156 Q 433 -127 419.5 -101 Q 406 -75 384 -55 Q 362 -35 335.5 -22.5 Q 309 -10 280 -5 Q 251 -0 222 0 Z M 142 -70 L 221 -70 Q 241 -70 260 -73.5 Q 279 -77 296.5 -85.5 Q 314 -94 328 -108 Q 342 -122 350.5 -139.5 Q 359 -157 362.5 -176 Q 366 -195 366 -215 L 366 -521 Q 366 -540 362.5 -559 Q 359 -578 350.5 -595.5 Q 342 -613 328 -627 Q 314 -641 296.5 -649.5 Q 279 -658 260 -661.5 Q 241 -665 221 -665 L 142 -665 Z " id="path49"/>
<path d="M 48 0 L 48 -735 L 142 -735 L 250 -332 L 358 -735 L 452 -735 L 452 0 L 374 0 L 374 -147 Q 374 -211 375 -275.5 Q 376 -340 378 -404 L 380 -478 Q 381 -510 382 -542 Q 383 -574 384 -607 L 280 -221 L 220 -221 L 116 -607 Q 117 -574 118 -542 Q 119 -510 120 -478 L 122 -404 Q 124 -340 125 -275.5 Q 126 -211 126 -147 L 126 0 Z " id="path50"/>
<path d="M 255 -608 Q 243 -608 230.5 -611.5 Q 218 -615 209 -624 Q 200 -633 196.5 -645 Q 193 -657 193 -670 Q 193 -683 196.5 -695 Q 200 -707 209 -716 Q 218 -725 230.5 -729 Q 243 -733 255 -733 Q 268 -733 280 -729 Q 292 -725 301 -716 Q 310 -707 314 -695 Q 318 -683 318 -670 Q 318 -657 314 -645 Q 310 -633 301 -624 Q 292 -615 280 -611.5 Q 268 -608 255 -608 Z M 75 0 L 75 -70 L 218 -70 L 218 -450 L 89 -450 L 89 -520 L 296 -520 L 296 -70 L 425 -70 L 425 0 Z " id="path51"/>
<path d="M 122 -608 Q 112 -608 102 -613 Q 92 -618 86.5 -627.5 Q 81 -637 79 -648 Q 77 -659 77 -670 Q 77 -681 79 -692 Q 81 -703 86.5 -712.5 Q 92 -722 102 -727.5 Q 112 -733 122 -733 Q 133 -733 143 -727.5 Q 153 -722 158.5 -712.5 Q 164 -703 166 -692 Q 168 -681 168 -670 Q 168 -659 166 -648 Q 164 -637 158.5 -627.5 Q 153 -618 143 -613 Q 133 -608 122 -608 Z M 13 0 L 13 -70 L 95 -70 L 95 -450 L 22 -450 L 22 -520 L 152 -520 L 152 -70 L 225 -70 L 225 0 Z M 384 -608 Q 374 -608 364 -613 Q 354 -618 348.5 -627.5 Q 343 -637 341 -648 Q 339 -659 339 -670 Q 339 -681 341 -692 Q 343 -703 348.5 -712.5 Q 354 -722 364 -727.5 Q 374 -733 384 -733 Q 395 -733 405 -727.5 Q 415 -722 420.5 -712.5 Q 426 -703 428 -692 Q 430 -681 430 -670 Q 430 -659 428 -648 Q 426 -637 420.5 -627.5 Q 415 -618 405 -613 Q 395 -608 384 -608 Z M 275 0 L 275 -70 L 357 -70 L 357 -450 L 284 -450 L 284 -520 L 414 -520 L 414 -70 L 487 -70 L 487 0 Z " id="path52"/>
<path d="M 74 -608 Q 65 -608 57.5 -615 Q 50 -622 46.5 -631.5 Q 43 -641 42 -650.5 Q 41 -660 41 -670 Q 41 -680 42 -689.5 Q 43 -699 46.5 -708.5 Q 50 -718 57.5 -725.5 Q 65 -733 74 -733 Q 84 -733 91.5 -725.5 Q 99 -718 102.5 -708.5 Q 106 -699 107 -689.5 Q 108 -680 108 -670 Q 108 -660 107 -650.5 Q 106 -641 102.5 -631.5 Q 99 -622 91.5 -615 Q 84 -608 74 -608 Z M -1 0 L -1 -70 L 54 -70 L 54 -450 L 5 -450 L 5 -520 L 96 -520 L 96 -70 L 145 -70 L 145 0 Z M 252 -608 Q 243 -608 235.5 -615 Q 228 -622 224.5 -631.5 Q 221 -641 220 -650.5 Q 219 -660 219 -670 Q 219 -680 220 -689.5 Q 221 -699 224.5 -708.5 Q 228 -718 235.5 -725.5 Q 243 -733 252 -733 Q 262 -733 269.5 -725.5 Q 277 -718 280.5 -708.5 Q 284 -699 285 -689.5 Q 286 -680 286 -670 Q 286 -660 285 -650.5 Q 284 -641 280.5 -631.5 Q 277 -622 269.5 -615 Q 262 -608 252 -608 Z M 177 0 L 177 -70 L 232 -70 L 232 -450 L 183 -450 L 183 -520 L 274 -520 L 274 -70 L 323 -70 L 323 0 Z M 430 -608 Q 421 -608 413.5 -615 Q 406 -622 402.5 -631.5 Q 399 -641 398 -650.5 Q 397 -660 397 -670 Q 397 -680 398 -689.5 Q 399 -699 402.5 -708.5 Q 406 -718 413.5 -725.5 Q 421 -733 430 -733 Q 440 -733 447.5 -725.5 Q 455 -718 458.5 -708.5 Q 462 -699 463 -689.5 Q 464 -680 464 -670 Q 464 -660 463 -650.5 Q 462 -641 458.5 -631.5 Q 455 -622 447.5 -615 Q 440 -608 430 -608 Z M 355 0 L 355 -70 L 410 -70 L 410 -450 L 361 -450 L 361 -520 L 452 -520 L 452 -70 L 501 -70 L 501 0 Z " id="path53"/>
<path d="M 122 -608 Q 112 -608 102 -613 Q 92 -618 86.5 -627.5 Q 81 -637 79 -648 Q 77 -659 77 -670 Q 77 -681 79 -692 Q 81 -703 86.5 -712.5 Q 92 -722 102 -727.5 Q 112 -733 122 -733 Q 133 -733 143 -727.5 Q 153 -722 158.5 -712.5 Q 164 -703 166 -692 Q 168 -681 168 -670 Q 168 -659 166 -648 Q 164 -637 158.5 -627.5 Q 153 -618 143 -613 Q 133 -608 122 -608 Z M 13 0 L 13 -70 L 95 -70 L 95 -450 L 22 -450 L 22 -520 L 152 -520 L 152 -70 L 225 -70 L 225 0 Z M 349 0 L 262 -520 L 320 -520 L 373 -173 Q 375 -159 377 -145 Q 379 -131 381 -116 Q 383 -131 385.5 -145 Q 388 -159 390 -173 L 443 -520 L 501 -520 L 414 0 Z " id="path54"/>
<path d="M 205 0 L 44 -520 L 126 -520 L 226 -173 Q 232 -152 238 -131 Q 244 -110 250 -89 Q 256 -110 262 -131 Q 268 -152 274 -173 L 374 -520 L 456 -520 L 295 0 Z " id="path55"/>
<path d="M 87 0 L 0 -520 L 58 -520 L 111 -173 Q 113 -159 115 -145 Q 117 -131 119 -116 Q 121 -131 123.5 -145 Q 126 -159 128 -173 L 181 -520 L 239 -520 L 152 0 Z M 384 -608 Q 374 -608 364 -613 Q 354 -618 348.5 -627.5 Q 343 -637 341 -648 Q 339 -659 339 -670 Q 339 -681 341 -692 Q 343 -703 348.5 -712.5 Q 354 -722 364 -727.5 Q 374 -733 384 -733 Q 395 -733 405 -727.5 Q 415 -722 420.5 -712.5 Q 426 -703 428 -692 Q 430 -681 430 -670 Q 430 -659 428 -648 Q 426 -637 420.5 -627.5 Q 415 -618 405 -613 Q 395 -608 384 -608 Z M 275 0 L 275 -70 L 357 -70 L 357 -450 L 284 -450 L 284 -520 L 414 -520 L 414 -70 L 487 -70 L 487 0 Z " id="path56"/>
<path d="M 48 0 L -8 -520 L 35 -520 L 68 -173 Q 69 -164 70 -154 Q 71 -144 72 -135 Q 73 -144 74 -154 Q 75 -164 76 -173 L 109 -520 L 153 -520 L 96 0 Z M 252 -608 Q 243 -608 235.5 -615 Q 228 -622 224.5 -631.5 Q 221 -641 220 -650.5 Q 219 -660 219 -670 Q 219 -680 220 -689.5 Q 221 -699 224.5 -708.5 Q 228 -718 235.5 -725.5 Q 243 -733 252 -733 Q 262 -733 269.5 -725.5 Q 277 -718 280.5 -708.5 Q 284 -699 285 -689.5 Q 286 -680 286 -670 Q 286 -660 285 -650.5 Q 284 -641 280.5 -631.5 Q 277 -622 269.5 -615 Q 262 -608 252 -608 Z M 177 0 L 177 -70 L 232 -70 L 232 -450 L 183 -450 L 183 -520 L 274 -520 L 274 -70 L 323 -70 L 323 0 Z M 430 -608 Q 421 -608 413.5 -615 Q 406 -622 402.5 -631.5 Q 399 -641 398 -650.5 Q 397 -660 397 -670 Q 397 -680 398 -689.5 Q 399 -699 402.5 -708.5 Q 406 -718 413.5 -725.5 Q 421 -733 430 -733 Q 440 -733 447.5 -725.5 Q 455 -718 458.5 -708.5 Q 462 -699 463 -689.5 Q 464 -680 464 -670 Q 464 -660 463 -650.5 Q 462 -641 458.5 -631.5 Q 455 -622 447.5 -615 Q 440 -608 430 -608 Z M 355 0 L 355 -70 L 410 -70 L 410 -450 L 361 -450 L 361 -520 L 452 -520 L 452 -70 L 501 -70 L 501 0 Z " id="path57"/>
<path d="M 68 0 L 28 0 L -12 -520 L 23 -520 L 47 -173 Q 47 -169 47.5 -164.5 Q 48 -160 48 -155 Q 48 -160 48.5 -164.5 Q 49 -169 49 -173 L 73 -520 L 108 -520 Z M 185 -608 Q 176 -608 169.5 -616 Q 163 -624 160.5 -632.5 Q 158 -641 157.5 -650.5 Q 157 -660 157 -670 Q 157 -680 157.5 -689.5 Q 158 -699 160.5 -707.5 Q 163 -716 169.5 -724.5 Q 176 -733 185 -733 Q 193 -733 199.5 -724.5 Q 206 -716 208.5 -707.5 Q 211 -699 212 -689.5 Q 213 -680 213 -670 Q 213 -660 212 -650.5 Q 211 -641 208.5 -632.5 Q 206 -624 199.5 -616 Q 193 -608 185 -608 Z M 127 0 L 127 -70 L 168 -70 L 168 -450 L 131 -450 L 131 -520 L 203 -520 L 203 -70 L 239 -70 L 239 0 Z M 319 -608 Q 310 -608 303.5 -616 Q 297 -624 294.5 -632.5 Q 292 -641 291.5 -650.5 Q 291 -660 291 -670 Q 291 -680 291.5 -689.5 Q 292 -699 294.5 -707.5 Q 297 -716 303.5 -724.5 Q 310 -733 319 -733 Q 327 -733 333.5 -724.5 Q 340 -716 342.5 -707.5 Q 345 -699 346 -689.5 Q 347 -680 347 -670 Q 347 -660 346 -650.5 Q 345 -641 342.5 -632.5 Q 340 -624 333.5 -616 Q 327 -608 319 -608 Z M 261 0 L 261 -70 L 302 -70 L 302 -450 L 265 -450 L 265 -520 L 337 -520 L 337 -70 L 373 -70 L 373 0 Z M 454 -608 Q 445 -608 438.5 -616 Q 432 -624 429.5 -632.5 Q 427 -641 426.5 -650.5 Q 426 -660 426 -670 Q 426 -680 426.5 -689.5 Q 427 -699 429.5 -707.5 Q 432 -716 438.5 -724.5 Q 445 -733 454 -733 Q 462 -733 468.5 -724.5 Q 475 -716 477.5 -707.5 Q 480 -699 481 -689.5 Q 482 -680 482 -670 Q 482 -660 481 -650.5 Q 480 -641 477.5 -632.5 Q 475 -624 468.5 -616 Q 462 -608 454 -608 Z M 396 0 L 396 -70 L 437 -70 L 437 -450 L 400 -450 L 400 -520 L 472 -520 L 472 -70 L 508 -70 L 508 0 Z " id="path58"/>
<path d="M 122 -608 Q 112 -608 102 -613 Q 92 -618 86.5 -627.5 Q 81 -637 79 -648 Q 77 -659 77 -670 Q 77 -681 79 -692 Q 81 -703 86.5 -712.5 Q 92 -722 102 -727.5 Q 112 -733 122 -733 Q 133 -733 143 -727.5 Q 153 -722 158.5 -712.5 Q 164 -703 166 -692 Q 168 -681 168 -670 Q 168 -659 166 -648 Q 164 -637 158.5 -627.5 Q 153 -618 143 -613 Q 133 -608 122 -608 Z M 13 0 L 13 -70 L 95 -70 L 95 -450 L 22 -450 L 22 -520 L 152 -520 L 152 -70 L 225 -70 L 225 0 Z M 268 0 L 352 -260 L 268 -520 L 330 -520 L 381 -354 L 432 -520 L 494 -520 L 411 -260 L 494 0 L 432 0 L 381 -166 L 330 0 Z " id="path59"/>
<path d="M 53 0 L 207 -260 L 53 -520 L 144 -520 L 250 -334 L 356 -520 L 447 -520 L 293 -260 L 447 0 L 356 0 L 250 -186 L 144 0 Z " id="path60"/>
<path d="M 6 0 L 90 -260 L 6 -520 L 68 -520 L 119 -354 L 170 -520 L 232 -520 L 149 -260 L 232 0 L 170 0 L 119 -166 L 68 0 Z M 384 -608 Q 374 -608 364 -613 Q 354 -618 348.5 -627.5 Q 343 -637 341 -648 Q 339 -659 339 -670 Q 339 -681 341 -692 Q 343 -703 348.5 -712.5 Q 354 -722 364 -727.5 Q 374 -733 384 -733 Q 395 -733 405 -727.5 Q 415 -722 420.5 -712.5 Q 426 -703 428 -692 Q 430 -681 430 -670 Q 430 -659 428 -648 Q 426 -637 420.5 -627.5 Q 415 -618 405 -613 Q 395 -608 384 -608 Z M 275 0 L 275 -70 L 357 -70 L 357 -450 L 284 -450 L 284 -520 L 414 -520 L 414 -70 L 487 -70 L 487 0 Z " id="path61"/>
<path d="M -5 0 L 51 -260 L -5 -520 L 40 -520 L 72 -365 L 104 -520 L 149 -520 L 94 -260 L 149 0 L 104 0 L 72 -155 L 40 0 Z M 252 -608 Q 243 -608 235.5 -615 Q 228 -622 224.5 -631.5 Q 221 -641 220 -650.5 Q 219 -660 219 -670 Q 219 -680 220 -689.5 Q 221 -699 224.5 -708.5 Q 228 -718 235.5 -725.5 Q 243 -733 252 -733 Q 262 -733 269.5 -725.5 Q 277 -718 280.5 -708.5 Q 284 -699 285 -689.5 Q 286 -680 286 -670 Q 286 -660 285 -650.5 Q 284 -641 280.5 -631.5 Q 277 -622 269.5 -615 Q 262 -608 252 -608 Z M 177 0 L 177 -70 L 232 -70 L 232 -450 L 183 -450 L 183 -520 L 274 -520 L 274 -70 L 323 -70 L 323 0 Z M 430 -608 Q 421 -608 413.5 -615 Q 406 -622 402.5 -631.5 Q 399 -641 398 -650.5 Q 397 -660 397 -670 Q 397 -680 398 -689.5 Q 399 -699 402.5 -708.5 Q 406 -718 413.5 -725.5 Q 421 -733 430 -733 Q 440 -733 447.5 -725.5 Q 455 -718 458.5 -708.5 Q 462 -699 463 -689.5 Q 464 -680 464 -670 Q 464 -660 463 -650.5 Q 462 -641 458.5 -631.5 Q 455 -622 447.5 -615 Q 440 -608 430 -608 Z M 355 0 L 355 -70 L 410 -70 L 410 -450 L 361 -450 L 361 -520 L 452 -520 L 452 -70 L 501 -70 L 501 0 Z " id="path62"/>
<path d="M 75 0 L 75 -70 L 218 -70 L 218 -665 L 89 -665 L 89 -735 L 296 -735 L 296 -70 L 425 -70 L 425 0 Z " id="path63"/>
<path d="M 247 8 Q 220 8 193.5 2.5 Q 167 -3 144 -16.5 Q 121 -30 103.5 -50.5 Q 86 -71 75 -95.5 Q 64 -120 60 -146.5 Q 56 -173 56 -200 L 56 -320 Q 56 -347 60 -373.5 Q 64 -400 75 -424.5 Q 86 -449 103.5 -469.5 Q 121 -490 144 -503.5 Q 167 -517 193.5 -522.5 Q 220 -528 247 -528 Q 272 -528 297 -524 Q 322 -520 344 -509 Q 366 -498 384.5 -480.5 Q 403 -463 415 -441 Q 427 -419 432.5 -394.5 Q 438 -370 438 -345 L 438 -340 L 360 -340 L 360 -343 Q 360 -366 353 -388 Q 346 -410 330 -426.5 Q 314 -443 292 -450.5 Q 270 -458 247 -458 Q 230 -458 213.5 -454 Q 197 -450 183 -440 Q 169 -430 159.5 -416 Q 150 -402 144 -386.5 Q 138 -371 136 -354 Q 134 -337 134 -320 L 134 -200 Q 134 -183 136 -166 Q 138 -149 144 -133.5 Q 150 -118 159.5 -104 Q 169 -90 183 -80 Q 197 -70 213.5 -66 Q 230 -62 247 -62 Q 270 -62 292 -69.5 Q 314 -77 330 -93.5 Q 346 -110 353 -132 Q 360 -154 360 -177 L 360 -180 L 438 -180 L 438 -175 Q 438 -150 432.5 -125.5 Q 427 -101 415 -79 Q 403 -57 384.5 -39.5 Q 366 -22 344 -11 Q 322 0 297 4 Q 272 8 247 8 Z " id="path64"/>
<path d="M 216 8 Q 191 8 166.5 1 Q 142 -6 123 -21 Q 104 -36 90.5 -57.5 Q 77 -79 69.5 -102.5 Q 62 -126 59 -150.5 Q 56 -175 56 -200 L 56 -320 Q 56 -345 59 -369.5 Q 62 -394 69.5 -417.5 Q 77 -441 90.5 -462.5 Q 104 -484 123 -499 Q 142 -514 166.5 -521 Q 191 -528 216 -528 Q 239 -528 262 -522 Q 285 -516 304 -502 Q 323 -488 336.5 -469 Q 350 -450 358 -428 L 358 -735 L 436 -735 L 436 0 L 358 0 L 358 -92 Q 350 -70 336.5 -51 Q 323 -32 304 -18 Q 285 -4 262 2 Q 239 8 216 8 Z M 246 -62 Q 263 -62 279.5 -66 Q 296 -70 309.5 -80 Q 323 -90 333 -104 Q 343 -118 348.5 -134 Q 354 -150 356 -166.5 Q 358 -183 358 -200 L 358 -320 Q 358 -337 356 -353.5 Q 354 -370 348.5 -386 Q 343 -402 333 -416 Q 323 -430 309.5 -440 Q 296 -450 279.5 -454 Q 263 -458 246 -458 Q 229 -458 212.5 -454 Q 196 -450 182.5 -440 Q 169 -430 159 -416 Q 149 -402 143.5 -386 Q 138 -370 136 -353.5 Q 134 -337 134 -320 L 134 -200 Q 134 -183 136 -166.5 Q 138 -150 143.5 -134 Q 149 -118 159 -104 Q 169 -90 182.5 -80 Q 196 -70 212.5 -66 Q 229 -62 246 -62 Z " id="path65"/>
<path d="M 48 0 L 48 -520 L 126 -520 L 126 -478 Q 131 -489 138 -498.5 Q 145 -508 154.5 -515 Q 164 -522 175.5 -525 Q 187 -528 199 -528 Q 214 -528 228 -523 Q 242 -518 252.5 -508 Q 263 -498 270 -485 Q 277 -472 281 -457 Q 285 -471 292 -484.5 Q 299 -498 309.5 -508 Q 320 -518 333.5 -523 Q 347 -528 362 -528 Q 377 -528 391.5 -522.5 Q 406 -517 417 -506.5 Q 428 -496 434.5 -482 Q 441 -468 445 -453.5 Q 449 -439 450.5 -424 Q 452 -409 452 -394 L 452 0 L 374 0 L 374 -394 Q 374 -405 372.5 -415.5 Q 371 -426 366 -436 Q 361 -446 351.5 -452 Q 342 -458 331 -458 Q 321 -458 311.5 -452 Q 302 -446 297 -436 Q 292 -426 290.5 -415.5 Q 289 -405 289 -394 L 289 0 L 211 0 L 211 -394 Q 211 -405 209.5 -415.5 Q 208 -426 203 -436 Q 198 -446 188.5 -452 Q 179 -458 169 -458 Q 158 -458 148.5 -452 Q 139 -446 134 -436 Q 129 -426 127.5 -415.5 Q 126 -405 126 -394 L 126 0 Z " id="path66"/>
<path d="M 250 8 Q 222 8 194.5 3.5 Q 167 -1 142 -13 Q 117 -25 96.5 -44.5 Q 76 -64 63.5 -88.5 Q 51 -113 45.5 -140 Q 40 -167 40 -195 L 40 -540 Q 40 -568 45.5 -595 Q 51 -622 63.5 -646.5 Q 76 -671 96.5 -690.5 Q 117 -710 142 -722 Q 167 -734 194.5 -738.5 Q 222 -743 250 -743 Q 278 -743 305.5 -738.5 Q 333 -734 358 -722 Q 383 -710 403.5 -690.5 Q 424 -671 436.5 -646.5 Q 449 -622 454.5 -595 Q 460 -568 460 -540 L 460 -195 Q 460 -167 454.5 -140 Q 449 -113 436.5 -88.5 Q 424 -64 403.5 -44.5 Q 383 -25 358 -13 Q 333 -1 305.5 3.5 Q 278 8 250 8 Z M 211 -66 L 211 -669 Q 190 -665 171 -653 Q 152 -641 140 -623 Q 128 -605 123 -583.5 Q 118 -562 118 -540 L 118 -195 Q 118 -173 123 -151.5 Q 128 -130 140 -112 Q 152 -94 171 -82 Q 190 -70 211 -66 Z M 289 -66 Q 310 -70 329 -82 Q 348 -94 360 -112 Q 372 -130 377 -151.5 Q 382 -173 382 -195 L 382 -540 Q 382 -562 377 -583.5 Q 372 -605 360 -623 Q 348 -641 329 -653 Q 310 -665 289 -669 Z " id="path67"/>
<path d="M 48 0 L 48 -735 L 237 -735 Q 266 -735 295.5 -730 Q 325 -725 351.5 -712.5 Q 378 -700 399.5 -680 Q 421 -660 435 -634 Q 449 -608 454.5 -579 Q 460 -550 460 -521 L 460 -215 Q 460 -185 454.5 -156 Q 449 -127 435 -101 Q 421 -75 399.5 -55 Q 378 -35 351.5 -22.5 Q 325 -10 295.5 -5 Q 266 -0 237 0 Z M 126 -70 L 237 -70 Q 257 -70 276 -73.5 Q 295 -77 312.5 -85.5 Q 330 -94 344 -108 Q 358 -122 366.5 -139.5 Q 375 -157 378.5 -176 Q 382 -195 382 -215 L 382 -521 Q 382 -540 378.5 -559 Q 375 -578 366.5 -595.5 Q 358 -613 344 -627 Q 330 -641 312.5 -649.5 Q 295 -658 276 -661.5 Q 257 -665 237 -665 L 126 -665 L 126 -588 L 144 -588 Q 163 -588 182 -585.5 Q 201 -583 218.5 -576.5 Q 236 -570 251.5 -558.5 Q 267 -547 277.5 -531 Q 288 -515 292.5 -496.5 Q 297 -478 297 -459 L 297 -276 Q 297 -257 292.5 -238.5 Q 288 -220 277.5 -204 Q 267 -188 251.5 -176.5 Q 236 -165 218.5 -158.5 Q 201 -152 182 -149.5 Q 163 -147 144 -147 L 126 -147 Z M 126 -217 L 144 -217 Q 158 -217 171.5 -219.5 Q 185 -222 196 -229.5 Q 207 -237 213 -249.5 Q 219 -262 219 -276 L 219 -459 Q 219 -473 213 -485.5 Q 207 -498 196 -505.5 Q 185 -513 171.5 -515.5 Q 158 -518 144 -518 L 126 -518 Z " id="path68"/>
<path d="M 250 8 Q 221 8 191.5 4 Q 162 0 135 -11 Q 108 -22 85 -40.5 Q 62 -59 46.5 -83.5 Q 31 -108 24.5 -137 Q 18 -166 18 -195 L 18 -540 Q 18 -569 24.5 -598 Q 31 -627 46.5 -651.5 Q 62 -676 85 -694.5 Q 108 -713 135 -724 Q 162 -735 191.5 -739 Q 221 -743 250 -743 Q 279 -743 308.5 -739 Q 338 -735 365 -724 Q 392 -713 415 -694.5 Q 438 -676 453.5 -651.5 Q 469 -627 475.5 -598 Q 482 -569 482 -540 L 482 -195 Q 482 -166 475.5 -137 Q 469 -108 453.5 -83.5 Q 438 -59 415 -40.5 Q 392 -22 365 -11 Q 338 0 308.5 4 Q 279 8 250 8 Z M 223 -42 L 223 -87 Q 198 -91 176 -105 Q 154 -119 140 -141 Q 126 -163 121 -188 Q 116 -213 116 -239 L 116 -496 Q 116 -522 121 -547 Q 126 -572 140 -594 Q 154 -616 176 -630 Q 198 -644 223 -648 L 223 -693 Q 203 -692 183.5 -687 Q 164 -682 146 -672.5 Q 128 -663 113.5 -649 Q 99 -635 89 -617.5 Q 79 -600 75.5 -580 Q 72 -560 72 -540 L 72 -195 Q 72 -175 75.5 -155 Q 79 -135 89 -117.5 Q 99 -100 113.5 -86 Q 128 -72 146 -62.5 Q 164 -53 183.5 -48 Q 203 -43 223 -42 Z M 277 -42 Q 297 -43 316.5 -48 Q 336 -53 354 -62.5 Q 372 -72 386.5 -86 Q 401 -100 411 -117.5 Q 421 -135 424.5 -155 Q 428 -175 428 -195 L 428 -540 Q 428 -560 424.5 -580 Q 421 -600 411 -617.5 Q 401 -635 386.5 -649 Q 372 -663 354 -672.5 Q 336 -682 316.5 -687 Q 297 -692 277 -693 L 277 -648 Q 302 -644 324 -630 Q 346 -616 360 -594 Q 374 -572 379 -547 Q 384 -522 384 -496 L 384 -239 Q 384 -213 379 -188 Q 374 -163 360 -141 Q 346 -119 324 -105 Q 302 -91 277 -87 Z M 223 -138 L 223 -597 Q 209 -592 198 -581 Q 187 -570 181 -556 Q 175 -542 172.5 -526.5 Q 170 -511 170 -496 L 170 -239 Q 170 -224 172.5 -208.5 Q 175 -193 181 -179 Q 187 -165 198 -154 Q 209 -143 223 -138 Z M 277 -138 Q 291 -143 302 -154 Q 313 -165 319 -179 Q 325 -193 327.5 -208.5 Q 330 -224 330 -239 L 330 -496 Q 330 -511 327.5 -526.5 Q 325 -542 319 -556 Q 313 -570 302 -581 Q 291 -592 277 -597 Z " id="path69"/>
<path d="M 253 8 Q 228 8 203.5 4 Q 179 0 156.5 -11 Q 134 -22 115.5 -39.5 Q 97 -57 85 -78.5 Q 73 -100 67.5 -124.5 Q 62 -149 62 -174 L 62 -180 L 140 -180 L 140 -176 Q 140 -153 147 -131 Q 154 -109 170 -92.5 Q 186 -76 208 -69 Q 230 -62 253 -62 Q 278 -62 301.5 -72 Q 325 -82 340 -101.5 Q 355 -121 360.5 -145.5 Q 366 -170 366 -195 L 366 -540 Q 366 -565 360.5 -589.5 Q 355 -614 340 -633.5 Q 325 -653 301.5 -663 Q 278 -673 253 -673 Q 230 -673 208 -666 Q 186 -659 170 -642.5 Q 154 -626 147 -604 Q 140 -582 140 -559 L 140 -555 L 62 -555 L 62 -561 Q 62 -586 67.5 -610.5 Q 73 -635 85 -656.5 Q 97 -678 115.5 -695.5 Q 134 -713 156.5 -724 Q 179 -735 203.5 -739 Q 228 -743 253 -743 Q 279 -743 305.5 -738 Q 332 -733 355 -720 Q 378 -707 396 -687 Q 414 -667 425 -643 Q 436 -619 440 -592.5 Q 444 -566 444 -540 L 444 -195 Q 444 -169 440 -142.5 Q 436 -116 425 -92 Q 414 -68 396 -48 Q 378 -28 355 -15 Q 332 -2 305.5 3 Q 279 8 253 8 Z " id="path70"/>
<path d="M 253 8 Q 228 8 203 4 Q 178 0 156 -11 Q 134 -22 115.5 -39.5 Q 97 -57 85 -79 Q 73 -101 67.5 -125.5 Q 62 -150 62 -175 L 62 -180 L 140 -180 L 140 -177 Q 140 -154 147 -132 Q 154 -110 170 -93.5 Q 186 -77 208 -69.5 Q 230 -62 253 -62 Q 270 -62 286.5 -66 Q 303 -70 317 -80 Q 331 -90 340.5 -104 Q 350 -118 356 -133.5 Q 362 -149 364 -166 Q 366 -183 366 -200 L 366 -320 Q 366 -337 364 -354 Q 362 -371 356 -386.5 Q 350 -402 340.5 -416 Q 331 -430 317 -440 Q 303 -450 286.5 -454 Q 270 -458 253 -458 Q 230 -458 208 -450.5 Q 186 -443 170 -426.5 Q 154 -410 147 -388 Q 140 -366 140 -343 L 140 -340 L 62 -340 L 62 -345 Q 62 -370 67.5 -394.5 Q 73 -419 85 -441 Q 97 -463 115.5 -480.5 Q 134 -498 156 -509 Q 178 -520 203 -524 Q 228 -528 253 -528 Q 280 -528 306.5 -522.5 Q 333 -517 356 -503.5 Q 379 -490 396.5 -469.5 Q 414 -449 425 -424.5 Q 436 -400 440 -373.5 Q 444 -347 444 -320 L 444 -200 Q 444 -173 440 -146.5 Q 436 -120 425 -95.5 Q 414 -71 396.5 -50.5 Q 379 -30 356 -16.5 Q 333 -3 306.5 2.5 Q 280 8 253 8 Z " id="path71"/>
<path d="M 359 215 L 359 -63 Q 348 -46 333.5 -31.5 Q 319 -17 300.5 -8 Q 282 1 262 4.5 Q 242 8 221 8 Q 197 8 172.5 2 Q 148 -4 128 -18.5 Q 108 -33 93.5 -53.5 Q 79 -74 70.5 -97.5 Q 62 -121 59 -145.5 Q 56 -170 56 -195 L 56 -540 Q 56 -566 60 -592.5 Q 64 -619 75 -643 Q 86 -667 104 -687 Q 122 -707 145 -720 Q 168 -733 194.5 -738 Q 221 -743 247 -743 Q 272 -743 296.5 -739 Q 321 -735 343.5 -724 Q 366 -713 384.5 -695.5 Q 403 -678 415 -656.5 Q 427 -635 432.5 -610.5 Q 438 -586 438 -561 L 438 -555 L 360 -555 L 360 -559 Q 360 -582 353 -604 Q 346 -626 330 -642.5 Q 314 -659 292 -666 Q 270 -673 247 -673 Q 222 -673 198.5 -663.5 Q 175 -654 160 -634 Q 145 -614 139.5 -589.5 Q 134 -565 134 -540 L 134 -195 Q 134 -178 136 -162 Q 138 -146 144 -130.5 Q 150 -115 160 -101.5 Q 170 -88 183.5 -79 Q 197 -70 213.5 -66 Q 230 -62 246 -62 Q 270 -62 292.5 -69.5 Q 315 -77 330.5 -94 Q 346 -111 352.5 -134 Q 359 -157 359 -180 L 436 -180 L 436 215 Z " id="path72"/>
<path d="M 211 0 L 56 -276 L 124 -310 L 211 -155 L 211 -735 L 289 -735 L 289 -155 L 376 -310 L 444 -276 L 289 0 Z " id="path73"/>
<path d="M 32 0 L 32 -735 L 253 -735 Q 283 -735 312 -730 Q 341 -725 367.5 -712.5 Q 394 -700 415.5 -680 Q 437 -660 451 -634 Q 465 -608 470.5 -579 Q 476 -550 476 -521 L 476 -215 Q 476 -185 470.5 -156 Q 465 -127 451 -101 Q 437 -75 415.5 -55 Q 394 -35 367.5 -22.5 Q 341 -10 312 -5 Q 283 -0 253 0 Z M 100 -61 L 253 -61 Q 274 -61 294.5 -64.5 Q 315 -68 333.5 -77 Q 352 -86 367 -101 Q 382 -116 391.5 -134.5 Q 401 -153 404.5 -173.5 Q 408 -194 408 -215 L 408 -521 Q 408 -541 404.5 -561.5 Q 401 -582 391.5 -600.5 Q 382 -619 367 -634 Q 352 -649 333.5 -658 Q 315 -667 294.5 -670.5 Q 274 -674 253 -674 L 100 -674 L 100 -613 L 183 -613 Q 204 -613 225 -610 Q 246 -607 265.5 -599.5 Q 285 -592 302.5 -579.5 Q 320 -567 331.5 -549.5 Q 343 -532 348 -511.5 Q 353 -491 353 -470 L 353 -266 Q 353 -244 348 -223.5 Q 343 -203 331.5 -185.5 Q 320 -168 302.5 -155.5 Q 285 -143 265.5 -135.5 Q 246 -128 225 -125.5 Q 204 -123 183 -123 L 100 -123 Z M 100 -183 L 183 -183 Q 202 -183 220.5 -187 Q 239 -191 254.5 -201.5 Q 270 -212 278 -229.5 Q 286 -247 286 -266 L 286 -470 Q 286 -488 278 -505.5 Q 270 -523 254.5 -533.5 Q 239 -544 220.5 -548 Q 202 -552 183 -552 L 100 -552 L 100 -490 L 113 -490 Q 134 -490 155 -486 Q 176 -482 193.5 -470.5 Q 211 -459 220.5 -439.5 Q 230 -420 230 -399 L 230 -336 Q 230 -315 220.5 -295.5 Q 211 -276 193.5 -264.5 Q 176 -253 155 -249 Q 134 -245 113 -245 L 100 -245 Z M 100 -306 L 113 -306 Q 121 -306 129.5 -307 Q 138 -308 145.5 -311.5 Q 153 -315 158 -321.5 Q 163 -328 163 -336 L 163 -399 Q 163 -407 158 -413.5 Q 153 -420 145.5 -423.5 Q 138 -427 129.5 -428 Q 121 -429 113 -429 L 100 -429 Z " id="path74"/>
<path d="M 250 8 Q 220 8 190.5 4 Q 161 0 133 -10.5 Q 105 -21 81 -39 Q 57 -57 40.5 -82 Q 24 -107 17 -136 Q 10 -165 10 -195 L 10 -540 Q 10 -570 17 -599 Q 24 -628 40.5 -653 Q 57 -678 81 -696 Q 105 -714 133 -724.5 Q 161 -735 190.5 -739 Q 220 -743 250 -743 Q 280 -743 309.5 -739 Q 339 -735 367 -724.5 Q 395 -714 419 -696 Q 443 -678 459.5 -653 Q 476 -628 483 -599 Q 490 -570 490 -540 L 490 -195 Q 490 -165 483 -136 Q 476 -107 459.5 -82 Q 443 -57 419 -39 Q 395 -21 367 -10.5 Q 339 0 309.5 4 Q 280 8 250 8 Z M 231 -27 L 231 -60 Q 210 -61 189.5 -66.5 Q 169 -72 151 -83 Q 133 -94 119 -110 Q 105 -126 96.5 -145 Q 88 -164 84.5 -184.5 Q 81 -205 81 -226 L 81 -509 Q 81 -530 84.5 -550.5 Q 88 -571 96.5 -590 Q 105 -609 119 -625 Q 133 -641 151 -652 Q 169 -663 189.5 -668.5 Q 210 -674 231 -675 L 231 -708 Q 207 -707 184.5 -702.5 Q 162 -698 140.5 -688.5 Q 119 -679 101 -664 Q 83 -649 71 -629 Q 59 -609 54 -586 Q 49 -563 49 -540 L 49 -195 Q 49 -172 54 -149 Q 59 -126 71 -106 Q 83 -86 101 -71 Q 119 -56 140.5 -46.5 Q 162 -37 185 -32.5 Q 208 -28 231 -27 Z M 269 -27 Q 293 -28 315.5 -32.5 Q 338 -37 359.5 -46.5 Q 381 -56 399 -71 Q 417 -86 429 -106 Q 441 -126 446 -149 Q 451 -172 451 -195 L 451 -540 Q 451 -563 446 -586 Q 441 -609 429 -629 Q 417 -649 399 -664 Q 381 -679 359.5 -688.5 Q 338 -698 315.5 -702.5 Q 293 -707 269 -708 L 269 -675 Q 290 -674 310.5 -668.5 Q 331 -663 349 -652 Q 367 -641 381 -625 Q 395 -609 403.5 -590 Q 412 -571 415.5 -550.5 Q 419 -530 419 -509 L 419 -226 Q 419 -205 415.5 -184.5 Q 412 -164 403.5 -145 Q 395 -126 381 -110 Q 367 -94 349 -83 Q 331 -72 310.5 -66.5 Q 290 -61 269 -60 Z M 231 -95 L 231 -128 Q 210 -131 193.5 -144.5 Q 177 -158 167.5 -177 Q 158 -196 155 -216.5 Q 152 -237 152 -258 L 152 -477 Q 152 -498 155 -518.5 Q 158 -539 167.5 -558 Q 177 -577 193.5 -590.5 Q 210 -604 231 -607 L 231 -640 Q 207 -638 184.5 -627.5 Q 162 -617 147 -598.5 Q 132 -580 126 -556.5 Q 120 -533 120 -509 L 120 -226 Q 120 -202 126 -178.5 Q 132 -155 147 -136.5 Q 162 -118 184.5 -107.5 Q 207 -97 231 -95 Z M 269 -95 Q 293 -97 315.5 -107.5 Q 338 -118 353 -136.5 Q 368 -155 374 -178.5 Q 380 -202 380 -226 L 380 -509 Q 380 -533 374 -556.5 Q 368 -580 353 -598.5 Q 338 -617 315.5 -627.5 Q 293 -638 269 -640 L 269 -607 Q 290 -604 306.5 -590.5 Q 323 -577 332.5 -558 Q 342 -539 345 -518.5 Q 348 -498 348 -477 L 348 -258 Q 348 -237 345 -216.5 Q 342 -196 332.5 -177 Q 323 -158 306.5 -144.5 Q 290 -131 269 -128 Z M 231 -164 L 231 -571 Q 218 -566 210 -554.5 Q 202 -543 197.5 -530.5 Q 193 -518 191.5 -504.5 Q 190 -491 190 -477 L 190 -258 Q 190 -244 191.5 -230.5 Q 193 -217 197.5 -204.5 Q 202 -192 210 -180.5 Q 218 -169 231 -164 Z M 269 -164 Q 282 -169 290 -180.5 Q 298 -192 302.5 -204.5 Q 307 -217 308.5 -230.5 Q 310 -244 310 -258 L 310 -477 Q 310 -491 308.5 -504.5 Q 307 -518 302.5 -530.5 Q 298 -543 290 -554.5 Q 282 -566 269 -571 Z " id="path75"/>
<path d="M 436 -314 L 64 -314 L 64 -366 L 436 -366 Z M 251 -440 Q 226 -440 202.5 -446 Q 179 -452 161 -468 Q 143 -484 134.5 -507 Q 126 -530 126 -554 L 126 -738 Q 126 -762 134.5 -785.5 Q 143 -809 161 -824.5 Q 179 -840 202.5 -846.5 Q 226 -853 250 -853 Q 275 -853 298.5 -846.5 Q 322 -840 340 -824.5 Q 358 -809 366.5 -785.5 Q 375 -762 375 -738 L 375 -554 Q 375 -530 366.5 -507 Q 358 -484 340 -468 Q 322 -452 298.5 -446 Q 275 -440 251 -440 Z M 197 -634 L 304 -720 L 304 -738 Q 304 -749 300.5 -759 Q 297 -769 289.5 -776 Q 282 -783 271.5 -786 Q 261 -789 251 -789 Q 240 -789 229.5 -786 Q 219 -783 211.5 -776 Q 204 -769 200.5 -759 Q 197 -749 197 -738 Z M 250 -503 Q 261 -503 271.5 -506 Q 282 -509 289.5 -516 Q 297 -523 300.5 -533 Q 304 -543 304 -554 L 304 -658 L 197 -573 L 197 -554 Q 197 -543 200.5 -533 Q 204 -523 211.5 -516 Q 219 -509 229.5 -506 Q 240 -503 250 -503 Z M 252 172 Q 229 172 206.5 167.5 Q 184 163 165 149.5 Q 146 136 135.5 114.5 Q 125 93 125 71 L 125 69 L 196 69 Q 196 79 201 87.5 Q 206 96 214.5 101 Q 223 106 232.5 107.5 Q 242 109 252 109 Q 263 109 273.5 106 Q 284 103 292.5 96 Q 301 89 305 78.5 Q 309 68 309 57 Q 309 42 302 28.5 Q 295 15 283 6.5 Q 271 -2 256 -4.5 Q 241 -7 227 -7 L 227 -70 Q 240 -70 253.5 -72.5 Q 267 -75 277.5 -83 Q 288 -91 294 -103.5 Q 300 -116 300 -129 Q 300 -139 297 -148.5 Q 294 -158 287 -164.5 Q 280 -171 271 -174 Q 262 -177 252 -177 Q 243 -177 234.5 -175 Q 226 -173 219 -168 Q 212 -163 208 -155 Q 204 -147 204 -138 L 204 -137 L 134 -137 L 134 -140 Q 134 -162 143 -182.5 Q 152 -203 169.5 -216.5 Q 187 -230 208.5 -235.5 Q 230 -241 252 -241 Q 275 -241 297.5 -234.5 Q 320 -228 336.5 -212.5 Q 353 -197 362 -175 Q 371 -153 371 -131 Q 371 -117 367.5 -103.5 Q 364 -90 357 -78 Q 350 -66 340 -56 Q 330 -46 318 -40 Q 331 -33 343 -23 Q 355 -13 363 0 Q 371 13 375 28 Q 379 43 379 58 Q 379 82 369.5 105 Q 360 128 342 144 Q 324 160 300 166 Q 276 172 252 172 Z " id="path76"/>
<path d="M 249 8 Q 234 8 219 6.5 Q 204 5 189.5 1.5 Q 175 -2 161 -8.5 Q 147 -15 134.5 -23.5 Q 122 -32 111.5 -43 Q 101 -54 93 -66 Q 85 -78 78.5 -92 Q 72 -106 68 -120.5 Q 64 -135 62 -152.5 Q 60 -170 60 -180 L 60 -193 Q 60 -211 62.5 -228.5 Q 65 -246 70 -263 Q 75 -280 82.5 -296 Q 90 -312 99.5 -326.5 Q 109 -341 121 -354 Q 133 -367 146 -379 Q 159 -391 172.5 -402 Q 186 -413 200 -424 Q 214 -435 227.5 -446 Q 241 -457 254 -469 Q 267 -481 279 -494 Q 291 -507 301.5 -521 Q 312 -535 321 -550.5 Q 330 -566 336.5 -582.5 Q 343 -599 348 -619 Q 353 -639 355 -651 L 356 -665 L 64 -665 L 64 -735 L 436 -735 L 436 -734 Q 436 -714 435.5 -694 Q 435 -674 433 -654.5 Q 431 -635 427.5 -615.5 Q 424 -596 418 -577 Q 412 -558 403.5 -540 Q 395 -522 384.5 -505 Q 374 -488 361.5 -472 Q 349 -456 335.5 -442 Q 322 -428 306.5 -415 Q 291 -402 275.5 -390 Q 260 -378 243.5 -366.5 Q 227 -355 211.5 -342 Q 196 -329 183 -314.5 Q 170 -300 160.5 -282.5 Q 151 -265 144.5 -242.5 Q 138 -220 138 -207 L 138 -193 Q 138 -178 140 -162.5 Q 142 -147 147 -132.5 Q 152 -118 160 -105.5 Q 168 -93 180 -83.5 Q 192 -74 209.5 -68 Q 227 -62 237 -62 L 249 -62 Q 263 -62 277 -65 Q 291 -68 303.5 -74 Q 316 -80 326.5 -89.5 Q 337 -99 344 -111 Q 351 -123 355.5 -139 Q 360 -155 360 -165 L 360 -180 L 438 -180 L 438 -174 Q 438 -160 436.5 -146 Q 435 -132 431 -118 Q 427 -104 421 -91 Q 415 -78 407.5 -66.5 Q 400 -55 390 -44.5 Q 380 -34 368.5 -25.5 Q 357 -17 344 -10.5 Q 331 -4 317.5 0 Q 304 4 287.5 6 Q 271 8 262 8 Z " id="path77"/>
<path d="M 247 8 Q 233 8 218.5 6.5 Q 204 5 190 1.5 Q 176 -2 163 -7.5 Q 150 -13 138.5 -21 Q 127 -29 117 -39.5 Q 107 -50 98.5 -61.5 Q 90 -73 84 -86 Q 78 -99 74 -112.5 Q 70 -126 67 -142.5 Q 64 -159 64 -169 L 64 -181 Q 64 -198 66.5 -214.5 Q 69 -231 74 -247 Q 79 -263 87 -277.5 Q 95 -292 105.5 -305 Q 116 -318 131 -331 Q 146 -344 156 -349 L 168 -354 Q 151 -361 135.5 -371.5 Q 120 -382 106.5 -395 Q 93 -408 82.5 -423 Q 72 -438 65 -455 Q 58 -472 53 -493.5 Q 48 -515 48 -528 L 48 -542 Q 48 -557 49.5 -572.5 Q 51 -588 55 -603 Q 59 -618 65 -632 Q 71 -646 79 -659 Q 87 -672 97.5 -683.5 Q 108 -695 120 -704.5 Q 132 -714 145.5 -721 Q 159 -728 173.5 -732.5 Q 188 -737 206 -740 Q 224 -743 234 -743 L 247 -743 Q 262 -743 276.5 -742 Q 291 -741 305.5 -738 Q 320 -735 334 -730 Q 348 -725 360.5 -717.5 Q 373 -710 384.5 -700.5 Q 396 -691 405 -680 Q 414 -669 421.5 -656 Q 429 -643 434 -629.5 Q 439 -616 442.5 -599 Q 446 -582 446 -572 L 446 -555 L 368 -555 L 368 -558 Q 368 -572 364.5 -587 Q 361 -602 354.5 -615 Q 348 -628 338 -639 Q 328 -650 315.5 -657 Q 303 -664 286 -668.5 Q 269 -673 259 -673 L 247 -673 Q 231 -673 215.5 -669.5 Q 200 -666 185.5 -658.5 Q 171 -651 160 -639.5 Q 149 -628 142 -614 Q 135 -600 130.5 -582 Q 126 -564 126 -553 L 126 -540 Q 126 -528 127.5 -516 Q 129 -504 132 -492.5 Q 135 -481 140 -470 Q 145 -459 151.5 -449 Q 158 -439 166.5 -430 Q 175 -421 185 -414.5 Q 195 -408 206 -403 Q 217 -398 228.5 -395.5 Q 240 -393 254.5 -391.5 Q 269 -390 277 -390 L 287 -390 L 287 -320 Q 276 -320 265 -319.5 Q 254 -319 243 -317.5 Q 232 -316 222 -312.5 Q 212 -309 202.5 -303.5 Q 193 -298 184.5 -290.5 Q 176 -283 169.5 -274.5 Q 163 -266 158 -256 Q 153 -246 150 -235.5 Q 147 -225 144.5 -212.5 Q 142 -200 142 -193 L 142 -183 Q 142 -169 144 -155 Q 146 -141 151 -127.5 Q 156 -114 164 -102 Q 172 -90 183 -82 Q 194 -74 210 -68 Q 226 -62 236 -62 L 247 -62 Q 261 -62 274.5 -65 Q 288 -68 300 -74.5 Q 312 -81 322 -90.5 Q 332 -100 338 -112 Q 344 -124 348 -140 Q 352 -156 352 -165 L 352 -180 L 430 -180 L 430 -173 Q 430 -159 428 -145 Q 426 -131 422.5 -117.5 Q 419 -104 413.5 -91.5 Q 408 -79 400.5 -67 Q 393 -55 384 -44.5 Q 375 -34 363.5 -26 Q 352 -18 339.5 -11.5 Q 327 -5 314 -1 Q 301 3 284.5 5.5 Q 268 8 259 8 Z " id="path78"/>
<path d="M 64 0 L 64 -735 L 436 -735 L 436 0 Z M 94 -321 L 401 -705 L 308 -705 L 94 -438 Z M 94 -478 L 276 -705 L 182 -705 L 94 -595 Z M 94 -634 L 151 -705 L 94 -705 Z M 94 -165 L 406 -554 L 406 -671 L 94 -282 Z M 94 -30 L 111 -30 L 406 -398 L 406 -515 L 94 -126 Z M 143 -30 L 236 -30 L 406 -242 L 406 -359 Z M 268 -30 L 362 -30 L 406 -85 L 406 -202 Z M 393 -30 L 406 -30 L 406 -46 Z " id="path79"/>
</defs>
<g>
<g data-source-text="0" fill="#dee4e3" transform="translate(174 41.292) rotate(0) scale(0.023999998)">
<use href="#path1" transform="translate(0 0)"/>
</g>
</g>
<g>
<g data-source-text="1" fill="#dee4e3" transform="translate(246 41.292) rotate(0) scale(0.023999998)">
<use href="#path2" transform="translate(0 0)"/>
</g>
</g>
<g>
<g data-source-text="2" fill="#dee4e3" transform="translate(318 41.292) rotate(0) scale(0.023999998)">
<use href="#path3" transform="translate(0 0)"/>
</g>
</g>
<g>
<g data-source-text="3" fill="#dee4e3" transform="translate(390 41.292) rotate(0) scale(0.023999998)">
<use href="#path4" transform="translate(0 0)"/>
</g>
</g>
<g>
<g data-source-text="4" fill="#dee4e3" transform="translate(462 41.292) rotate(0) scale(0.023999998)">
<use href="#path5" transform="translate(0 0)"/>
</g>
</g>
<g>
<g data-source-text="5" fill="#dee4e3" transform="translate(534 41.292) rotate(0) scale(0.023999998)">
<use href="#path6" transform="translate(0 0)"/>
</g>
</g>
<g>
<g data-source-text="6" fill="#dee4e3" transform="translate(606 41.292) rotate(0) scale(0.023999998)">
<use href="#path7" transform="translate(0 0)"/>
</g>
</g>
<g>
<g data-source-text="7" fill="#dee4e3" transform="translate(678 41.292) rotate(0) scale(0.023999998)">
<use href="#path8" transform="translate(0 0)"/>
</g>
</g>
<g>
<g data-source-text="8" fill="#dee4e3" transform="translate(750 41.292) rotate(0) scale(0.023999998)">
<use href="#path9" transform="translate(0 0)"/>
</g>
</g>
<g>
<g data-source-text="9" fill="#dee4e3" transform="translate(822 41.292) rotate(0) scale(0.023999998)">
<use href="#path10" transform="translate(0 0)"/>
</g>
</g>
<g>
<g data-source-text="A" fill="#dee4e3" transform="translate(894 41.292) rotate(0) scale(0.023999998)">
<use href="#path11" transform="translate(0 0)"/>
</g>
</g>
<g>
<g data-source-text="B" fill="#dee4e3" transform="translate(966 41.292) rotate(0) scale(0.023999998)">
<use href="#path12" transform="translate(0 0)"/>
</g>
</g>
<g>
<g data-source-text="C" fill="#dee4e3" transform="translate(1038 41.292) rotate(0) scale(0.023999998)">
<use href="#path13" transform="translate(0 0)"/>
</g>
</g>
<g>
<g data-source-text="D" fill="#dee4e3" transform="translate(1110 41.292) rotate(0) scale(0.023999998)">
<use href="#path14" transform="translate(0 0)"/>
</g>
</g>
<g>
<g data-source-text="E" fill="#dee4e3" transform="translate(1182 41.292) rotate(0) scale(0.023999998)">
<use href="#path15" transform="translate(0 0)"/>
</g>
</g>
<g>
<g data-source-text="F" fill="#dee4e3" transform="translate(1254 41.292) rotate(0) scale(0.023999998)">
<use href="#path16" transform="translate(0 0)"/>
</g>
</g>
<g>
<g data-source-text="U+2150" fill="#dee4e3" transform="translate(36 113.292) rotate(0) scale(0.023999998)">
<use href="#path17" transform="translate(0 0)"/>
<use href="#path18" transform="translate(500 0)"/>
<use href="#path3" transform="translate(1000 0)"/>
<use href="#path2" transform="translate(1500 0)"/>
<use href="#path6" transform="translate(2000 0)"/>
<use href="#path1" transform="translate(2500 0)"/>
</g>
</g>
<g>
<g data-source-text="" fill="#dee4e3" transform="translate(168 118.584) rotate(0) scale(0.047999997)">
<use href="#path19" transform="translate(0 0)"/>
</g>
</g>
<g>
<g data-source-text="" fill="#dee4e3" transform="translate(240 118.584) rotate(0) scale(0.047999997)">
<use href="#path20" transform="translate(0 0)"/>
</g>
</g>
<g>
<g data-source-text="" fill="#dee4e3" transform="translate(312 118.584) rotate(0) scale(0.047999997)">
<use href="#path21" transform="translate(0 0)"/>
</g>
</g>
<g>
<g data-source-text="" fill="#dee4e3" transform="translate(384 118.584) rotate(0) scale(0.047999997)">
<use href="#path22" transform="translate(0 0)"/>
</g>
</g>
<g>
<g data-source-text="" fill="#dee4e3" transform="translate(456 118.584) rotate(0) scale(0.047999997)">
<use href="#path23" transform="translate(0 0)"/>
</g>
</g>
<g>
<g data-source-text="" fill="#dee4e3" transform="translate(528 118.584) rotate(0) scale(0.047999997)">
<use href="#path24" transform="translate(0 0)"/>
</g>
</g>
<g>
<g data-source-text="" fill="#dee4e3" transform="translate(600 118.584) rotate(0) scale(0.047999997)">
<use href="#path25" transform="translate(0 0)"/>
</g>
</g>
<g>
<g data-source-text="" fill="#dee4e3" transform="translate(672 118.584) rotate(0) scale(0.047999997)">
<use href="#path26" transform="translate(0 0)"/>
</g>
</g>
<g>
<g data-source-text="" fill="#dee4e3" transform="translate(744 118.584) rotate(0) scale(0.047999997)">
<use href="#path27" transform="translate(0 0)"/>
</g>
</g>
<g>
<g data-source-text="" fill="#dee4e3" transform="translate(816 118.584) rotate(0) scale(0.047999997)">
<use href="#path28" transform="translate(0 0)"/>
</g>
</g>
<g>
<g data-source-text="" fill="#dee4e3" transform="translate(888 118.584) rotate(0) scale(0.047999997)">
<use href="#path29" transform="translate(0 0)"/>
</g>
</g>
<g>
<g data-source-text="" fill="#dee4e3" transform="translate(960 118.584) rotate(0) scale(0.047999997)">
<use href="#path30" transform="translate(0 0)"/>
</g>
</g>
<g>
<g data-source-text="" fill="#dee4e3" transform="translate(1032 118.584) rotate(0) scale(0.047999997)">
<use href="#path31" transform="translate(0 0)"/>
</g>
</g>
<g>
<g data-source-text="" fill="#dee4e3" transform="translate(1104 118.584) rotate(0) scale(0.047999997)">
<use href="#path32" transform="translate(0 0)"/>
</g>
</g>
<g>
<g data-source-text="" fill="#dee4e3" transform="translate(1176 118.584) rotate(0) scale(0.047999997)">
<use href="#path33" transform="translate(0 0)"/>
</g>
</g>
<g>
<g data-source-text="" fill="#dee4e3" transform="translate(1248 118.584) rotate(0) scale(0.047999997)">
<use href="#path34" transform="translate(0 0)"/>
</g>
</g>
<g>
<g data-source-text="U+2160" fill="#dee4e3" transform="translate(36 185.292) rotate(0) scale(0.023999998)">
<use href="#path17" transform="translate(0 0)"/>
<use href="#path18" transform="translate(500 0)"/>
<use href="#path3" transform="translate(1000 0)"/>
<use href="#path2" transform="translate(1500 0)"/>
<use href="#path7" transform="translate(2000 0)"/>
<use href="#path1" transform="translate(2500 0)"/>
</g>
</g>
<g>
<g data-source-text="" fill="#dee4e3" transform="translate(168 190.584) rotate(0) scale(0.047999997)">
<use href="#path35" transform="translate(0 0)"/>
</g>
</g>
<g>
<g data-source-text="" fill="#dee4e3" transform="translate(240 190.584) rotate(0) scale(0.047999997)">
<use href="#path36" transform="translate(0 0)"/>
</g>
</g>
<g>
<g data-source-text="" fill="#dee4e3" transform="translate(312 190.584) rotate(0) scale(0.047999997)">
<use href="#path37" transform="translate(0 0)"/>
</g>
</g>
<g>
<g data-source-text="" fill="#dee4e3" transform="translate(384 190.584) rotate(0) scale(0.047999997)">
<use href="#path38" transform="translate(0 0)"/>
</g>
</g>
<g>
<g data-source-text="" fill="#dee4e3" transform="translate(456 190.584) rotate(0) scale(0.047999997)">
<use href="#path39" transform="translate(0 0)"/>
</g>
</g>
<g>
<g data-source-text="" fill="#dee4e3" transform="translate(528 190.584) rotate(0) scale(0.047999997)">
<use href="#path40" transform="translate(0 0)"/>
</g>
</g>
<g>
<g data-source-text="" fill="#dee4e3" transform="translate(600 190.584) rotate(0) scale(0.047999997)">
<use href="#path41" transform="translate(0 0)"/>
</g>
</g>
<g>
<g data-source-text="" fill="#dee4e3" transform="translate(672 190.584) rotate(0) scale(0.047999997)">
<use href="#path42" transform="translate(0 0)"/>
</g>
</g>
<g>
<g data-source-text="" fill="#dee4e3" transform="translate(744 190.584) rotate(0) scale(0.047999997)">
<use href="#path43" transform="translate(0 0)"/>
</g>
</g>
<g>
<g data-source-text="" fill="#dee4e3" transform="translate(816 190.584) rotate(0) scale(0.047999997)">
<use href="#path44" transform="translate(0 0)"/>
</g>
</g>
<g>
<g data-source-text="" fill="#dee4e3" transform="translate(888 190.584) rotate(0) scale(0.047999997)">
<use href="#path45" transform="translate(0 0)"/>
</g>
</g>
<g>
<g data-source-text="" fill="#dee4e3" transform="translate(960 190.584) rotate(0) scale(0.047999997)">
<use href="#path46" transform="translate(0 0)"/>
</g>
</g>
<g>
<g data-source-text="" fill="#dee4e3" transform="translate(1032 190.584) rotate(0) scale(0.047999997)">
<use href="#path47" transform="translate(0 0)"/>
</g>
</g>
<g>
<g data-source-text="" fill="#dee4e3" transform="translate(1104 190.584) rotate(0) scale(0.047999997)">
<use href="#path48" transform="translate(0 0)"/>
</g>
</g>
<g>
<g data-source-text="" fill="#dee4e3" transform="translate(1176 190.584) rotate(0) scale(0.047999997)">
<use href="#path49" transform="translate(0 0)"/>
</g>
</g>
<g>
<g data-source-text="" fill="#dee4e3" transform="translate(1248 190.584) rotate(0) scale(0.047999997)">
<use href="#path50" transform="translate(0 0)"/>
</g>
</g>
<g>
<g data-source-text="U+2170" fill="#dee4e3" transform="translate(36 257.292) rotate(0) scale(0.023999998)">
<use href="#path17" transform="translate(0 0)"/>
<use href="#path18" transform="translate(500 0)"/>
<use href="#path3" transform="translate(1000 0)"/>
<use href="#path2" transform="translate(1500 0)"/>
<use href="#path8" transform="translate(2000 0)"/>
<use href="#path1" transform="translate(2500 0)"/>
</g>
</g>
<g>
<g data-source-text="" fill="#dee4e3" transform="translate(168 262.584) rotate(0) scale(0.047999997)">
<use href="#path51" transform="translate(0 0)"/>
</g>
</g>
<g>
<g data-source-text="" fill="#dee4e3" transform="translate(240 262.584) rotate(0) scale(0.047999997)">
<use href="#path52" transform="translate(0 0)"/>
</g>
</g>
<g>
<g data-source-text="" fill="#dee4e3" transform="translate(312 262.584) rotate(0) scale(0.047999997)">
<use href="#path53" transform="translate(0 0)"/>
</g>
</g>
<g>
<g data-source-text="" fill="#dee4e3" transform="translate(384 262.584) rotate(0) scale(0.047999997)">
<use href="#path54" transform="translate(0 0)"/>
</g>
</g>
<g>
<g data-source-text="" fill="#dee4e3" transform="translate(456 262.584) rotate(0) scale(0.047999997)">
<use href="#path55" transform="translate(0 0)"/>
</g>
</g>
<g>
<g data-source-text="" fill="#dee4e3" transform="translate(528 262.584) rotate(0) scale(0.047999997)">
<use href="#path56" transform="translate(0 0)"/>
</g>
</g>
<g>
<g data-source-text="" fill="#dee4e3" transform="translate(600 262.584) rotate(0) scale(0.047999997)">
<use href="#path57" transform="translate(0 0)"/>
</g>
</g>
<g>
<g data-source-text="" fill="#dee4e3" transform="translate(672 262.584) rotate(0) scale(0.047999997)">
<use href="#path58" transform="translate(0 0)"/>
</g>
</g>
<g>
<g data-source-text="" fill="#dee4e3" transform="translate(744 262.584) rotate(0) scale(0.047999997)">
<use href="#path59" transform="translate(0 0)"/>
</g>
</g>
<g>
<g data-source-text="" fill="#dee4e3" transform="translate(816 262.584) rotate(0) scale(0.047999997)">
<use href="#path60" transform="translate(0 0)"/>
</g>
</g>
<g>
<g data-source-text="" fill="#dee4e3" transform="translate(888 262.584) rotate(0) scale(0.047999997)">
<use href="#path61" transform="translate(0 0)"/>
</g>
</g>
<g>
<g data-source-text="" fill="#dee4e3" transform="translate(960 262.584) rotate(0) scale(0.047999997)">
<use href="#path62" transform="translate(0 0)"/>
</g>
</g>
<g>
<g data-source-text="" fill="#dee4e3" transform="translate(1032 262.584) rotate(0) scale(0.047999997)">
<use href="#path63" transform="translate(0 0)"/>
</g>
</g>
<g>
<g data-source-text="" fill="#dee4e3" transform="translate(1104 262.584) rotate(0) scale(0.047999997)">
<use href="#path64" transform="translate(0 0)"/>
</g>
</g>
<g>
<g data-source-text="" fill="#dee4e3" transform="translate(1176 262.584) rotate(0) scale(0.047999997)">
<use href="#path65" transform="translate(0 0)"/>
</g>
</g>
<g>
<g data-source-text="" fill="#dee4e3" transform="translate(1248 262.584) rotate(0) scale(0.047999997)">
<use href="#path66" transform="translate(0 0)"/>
</g>
</g>
<g>
<g data-source-text="U+2180" fill="#dee4e3" transform="translate(36 329.292) rotate(0) scale(0.023999998)">
<use href="#path17" transform="translate(0 0)"/>
<use href="#path18" transform="translate(500 0)"/>
<use href="#path3" transform="translate(1000 0)"/>
<use href="#path2" transform="translate(1500 0)"/>
<use href="#path9" transform="translate(2000 0)"/>
<use href="#path1" transform="translate(2500 0)"/>
</g>
</g>
<g>
<g data-source-text="" fill="#dee4e3" transform="translate(168 334.584) rotate(0) scale(0.047999997)">
<use href="#path67" transform="translate(0 0)"/>
</g>
</g>
<g>
<g data-source-text="" fill="#dee4e3" transform="translate(240 334.584) rotate(0) scale(0.047999997)">
<use href="#path68" transform="translate(0 0)"/>
</g>
</g>
<g>
<g data-source-text="" fill="#dee4e3" transform="translate(312 334.584) rotate(0) scale(0.047999997)">
<use href="#path69" transform="translate(0 0)"/>
</g>
</g>
<g>
<g data-source-text="" fill="#dee4e3" transform="translate(384 334.584) rotate(0) scale(0.047999997)">
<use href="#path70" transform="translate(0 0)"/>
</g>
</g>
<g>
<g data-source-text="" fill="#dee4e3" transform="translate(456 334.584) rotate(0) scale(0.047999997)">
<use href="#path71" transform="translate(0 0)"/>
</g>
</g>
<g>
<g data-source-text="" fill="#dee4e3" transform="translate(528 334.584) rotate(0) scale(0.047999997)">
<use href="#path72" transform="translate(0 0)"/>
</g>
</g>
<g>
<g data-source-text="" fill="#dee4e3" transform="translate(600 334.584) rotate(0) scale(0.047999997)">
<use href="#path73" transform="translate(0 0)"/>
</g>
</g>
<g>
<g data-source-text="" fill="#dee4e3" transform="translate(672 334.584) rotate(0) scale(0.047999997)">
<use href="#path74" transform="translate(0 0)"/>
</g>
</g>
<g>
<g data-source-text="" fill="#dee4e3" transform="translate(744 334.584) rotate(0) scale(0.047999997)">
<use href="#path75" transform="translate(0 0)"/>
</g>
</g>
<g>
<g data-source-text="" fill="#dee4e3" transform="translate(816 334.584) rotate(0) scale(0.047999997)">
<use href="#path76" transform="translate(0 0)"/>
</g>
</g>
<g>
<g data-source-text="" fill="#dee4e3" transform="translate(888 334.584) rotate(0) scale(0.047999997)">
<use href="#path77" transform="translate(0 0)"/>
</g>
</g>
<g>
<g data-source-text="" fill="#dee4e3" transform="translate(960 334.584) rotate(0) scale(0.047999997)">
<use href="#path78" transform="translate(0 0)"/>
</g>
</g>
<g>
<g data-source-text="" fill="#dee4e340" transform="translate(1032 334.584) rotate(0) scale(0.047999997)">
<use href="#path79" transform="translate(0 0)"/>
</g>
</g>
<g>
<g data-source-text="" fill="#dee4e340" transform="translate(1104 334.584) rotate(0) scale(0.047999997)">
<use href="#path79" transform="translate(0 0)"/>
</g>
</g>
<g>
<g data-source-text="" fill="#dee4e340" transform="translate(1176 334.584) rotate(0) scale(0.047999997)">
<use href="#path79" transform="translate(0 0)"/>
</g>
</g>
<g>
<g data-source-text="" fill="#dee4e340" transform="translate(1248 334.584) rotate(0) scale(0.047999997)">
<use href="#path79" transform="translate(0 0)"/>
</g>
</g>
</svg>