<?xml version="1.0" encoding="UTF-8" standalone="no"?>
<svg height="288" viewBox="0 0 1296 288" width="1296" xmlns="http://www.w3.org/2000/svg">
<defs>
<path d="M 250 8 Q 223 8 196 3 Q 169 -2 145 -15 Q 121 -28 102.5 -48.5 Q 84 -69 72.5 -94 Q 61 -119 56.5 -146 Q 52 -173 52 -200 L 52 -535 Q 52 -562 56.5 -589 Q 61 -616 72.5 -641 Q 84 -666 102.5 -686.5 Q 121 -707 145 -720 Q 169 -733 196 -738 Q 223 -743 250 -743 Q 277 -743 304 -738 Q 331 -733 355 -720 Q 379 -707 397.5 -686.5 Q 416 -666 427.5 -641 Q 439 -616 443.5 -589 Q 448 -562 448 -535 L 448 -200 Q 448 -173 443.5 -146 Q 439 -119 427.5 -94 Q 416 -69 397.5 -48.5 Q 379 -28 355 -15 Q 331 -2 304 3 Q 277 8 250 8 Z M 153 -337 L 347 -491 L 347 -535 Q 347 -557 342.5 -578.5 Q 338 -600 325.5 -618 Q 313 -636 292.5 -645.5 Q 272 -655 250 -655 Q 228 -655 207.5 -645.5 Q 187 -636 174.5 -618 Q 162 -600 157.5 -578.5 Q 153 -557 153 -535 Z M 250 -80 Q 272 -80 292.5 -89.5 Q 313 -99 325.5 -117 Q 338 -135 342.5 -156.5 Q 347 -178 347 -200 L 347 -398 L 153 -244 L 153 -200 Q 153 -178 157.5 -156.5 Q 162 -135 174.5 -117 Q 187 -99 207.5 -89.5 Q 228 -80 250 -80 Z " id="path1"/>
<path d="M 230 0 L 230 -637 L 107 -542 L 55 -600 L 230 -735 L 330 -735 L 330 0 Z " id="path2"/>
<path d="M 60 0 L 60 -1 Q 60 -27 61 -53.5 Q 62 -80 66 -106.5 Q 70 -133 77.5 -158.5 Q 85 -184 96.5 -207.5 Q 108 -231 123 -253 Q 138 -275 156 -294.5 Q 174 -314 194 -331 Q 214 -348 235.5 -364 Q 257 -380 277.5 -397 Q 298 -414 313 -435.5 Q 328 -457 335.5 -483 Q 343 -509 343 -535 Q 343 -557 339 -578 Q 335 -599 323.5 -617 Q 312 -635 292 -645 Q 272 -655 251 -655 Q 231 -655 213 -648 Q 195 -641 182.5 -626.5 Q 170 -612 164.5 -593 Q 159 -574 159 -555 L 159 -554 L 58 -554 L 58 -556 Q 58 -581 64 -606 Q 70 -631 82 -653.5 Q 94 -676 112 -694 Q 130 -712 152.5 -723 Q 175 -734 200 -738.5 Q 225 -743 251 -743 Q 278 -743 304.5 -737.5 Q 331 -732 354 -719 Q 377 -706 395 -685.5 Q 413 -665 424 -640.5 Q 435 -616 439.5 -589 Q 444 -562 444 -535 Q 444 -501 435 -468 Q 426 -435 407.5 -406 Q 389 -377 364 -353.5 Q 339 -330 312.5 -308.5 Q 286 -287 261 -264 Q 236 -241 216.5 -213 Q 197 -185 184 -153.5 Q 171 -122 166 -88 L 440 -88 L 440 0 Z " id="path3"/>
<path d="M 252 8 Q 226 8 200 3.5 Q 174 -1 150.5 -12 Q 127 -23 107.5 -41 Q 88 -59 75.5 -82 Q 63 -105 56.5 -130.5 Q 50 -156 50 -183 L 151 -183 Q 151 -162 157.5 -142.5 Q 164 -123 178 -108 Q 192 -93 212 -86.5 Q 232 -80 252 -80 Q 275 -80 296 -88.5 Q 317 -97 330.5 -114.5 Q 344 -132 349.5 -154 Q 355 -176 355 -198 Q 355 -217 351 -235.5 Q 347 -254 338.5 -271 Q 330 -288 316.5 -301 Q 303 -314 286 -322 Q 269 -330 250 -332 Q 231 -334 212 -334 L 212 -422 Q 229 -422 246 -424 Q 263 -426 278.5 -433 Q 294 -440 306 -452.5 Q 318 -465 325.5 -480.5 Q 333 -496 336 -512.5 Q 339 -529 339 -546 Q 339 -566 334.5 -585.5 Q 330 -605 319.5 -621 Q 309 -637 290.5 -646 Q 272 -655 253 -655 Q 234 -655 216.5 -647.5 Q 199 -640 188 -625.5 Q 177 -611 172 -593 Q 167 -575 167 -556 L 167 -555 L 66 -555 L 66 -558 Q 66 -582 71.5 -606.5 Q 77 -631 88.5 -653 Q 100 -675 117.5 -693 Q 135 -711 157 -722.5 Q 179 -734 203.5 -738.5 Q 228 -743 253 -743 Q 278 -743 303 -738 Q 328 -733 350.5 -721 Q 373 -709 390 -690 Q 407 -671 418 -648 Q 429 -625 434.5 -600 Q 440 -575 440 -549 Q 440 -524 434 -498.5 Q 428 -473 415.5 -450.5 Q 403 -428 384.5 -409.5 Q 366 -391 343 -379 Q 369 -368 391 -348.5 Q 413 -329 427.5 -304.5 Q 442 -280 449 -252 Q 456 -224 456 -196 Q 456 -168 450 -141.5 Q 444 -115 432 -91 Q 420 -67 400.5 -47 Q 381 -27 357 -14.5 Q 333 -2 306.5 3 Q 280 8 252 8 Z " id="path4"/>
<path d="M 282 0 L 282 -188 L 52 -188 L 52 -275 L 276 -735 L 385 -735 L 161 -275 L 282 -275 L 282 -435 L 382 -435 L 382 -275 L 440 -275 L 440 -188 L 382 -188 L 382 0 Z " id="path5"/>
<path d="M 252 8 Q 227 8 202.5 3.5 Q 178 -1 156.5 -12.5 Q 135 -24 117.5 -42 Q 100 -60 88 -81 Q 76 -102 69 -126 Q 62 -150 60 -174 L 60 -176 L 160 -176 L 161 -172 Q 164 -154 170.5 -137 Q 177 -120 188.5 -107 Q 200 -94 217 -87 Q 234 -80 252 -80 Q 269 -80 285 -87 Q 301 -94 312 -106.5 Q 323 -119 330 -135 Q 337 -151 340.5 -167.5 Q 344 -184 345.5 -201 Q 347 -218 347 -235 Q 347 -252 345.5 -269 Q 344 -286 340.5 -302.5 Q 337 -319 330.5 -334.5 Q 324 -350 313.5 -363 Q 303 -376 287 -383.5 Q 271 -391 254 -391 Q 236 -391 219.5 -384 Q 203 -377 191.5 -363 Q 180 -349 174.5 -331.5 Q 169 -314 168 -296 L 68 -296 L 68 -735 L 421 -735 L 421 -647 L 168 -647 L 168 -462 Q 188 -471 210 -474.5 Q 232 -478 254 -478 Q 284 -478 312.5 -470.5 Q 341 -463 364.5 -445.5 Q 388 -428 404.5 -403.5 Q 421 -379 430.5 -351 Q 440 -323 444 -294 Q 448 -265 448 -235 Q 448 -206 444 -176.5 Q 440 -147 430.5 -119 Q 421 -91 404 -66.5 Q 387 -42 363 -24.5 Q 339 -7 310 0.5 Q 281 8 252 8 Z " id="path6"/>
<path d="M 250 8 Q 219 8 189 -0.5 Q 159 -9 135 -28 Q 111 -47 94.5 -73.5 Q 78 -100 68.5 -129 Q 59 -158 55.5 -189 Q 52 -220 52 -250 Q 52 -291 60 -331 Q 68 -371 82 -409 Q 96 -447 114 -483.5 Q 132 -520 150 -556 L 238 -735 L 347 -735 L 240 -517 Q 232 -500 223 -483.5 Q 214 -467 205 -451 Q 217 -454 229 -455 Q 241 -456 253 -456 Q 281 -456 309.5 -449 Q 338 -442 361.5 -426 Q 385 -410 402.5 -386.5 Q 420 -363 430 -336.5 Q 440 -310 444 -281.5 Q 448 -253 448 -224 Q 448 -195 444 -166.5 Q 440 -138 429.5 -111 Q 419 -84 401.5 -60.5 Q 384 -37 360 -21 Q 336 -5 307.5 1.5 Q 279 8 250 8 Z M 250 -80 Q 266 -80 282 -85.5 Q 298 -91 309.5 -102.5 Q 321 -114 328.5 -129 Q 336 -144 340 -159.5 Q 344 -175 345.5 -191.5 Q 347 -208 347 -224 Q 347 -240 345.5 -256.5 Q 344 -273 340 -288.5 Q 336 -304 328.5 -319 Q 321 -334 309.5 -345.5 Q 298 -357 282.5 -362.5 Q 267 -368 251 -368 Q 234 -368 218.5 -362.5 Q 203 -357 191.5 -345.5 Q 180 -334 172 -319.5 Q 164 -305 160 -289 Q 156 -273 154.5 -256.5 Q 153 -240 153 -224 Q 153 -208 154.5 -191.5 Q 156 -175 160 -159.5 Q 164 -144 171.5 -129 Q 179 -114 190.5 -102.5 Q 202 -91 218 -85.5 Q 234 -80 250 -80 Z " id="path7"/>
<path d="M 138 0 L 336 -647 L 60 -647 L 60 -735 L 440 -735 L 440 -647 L 242 0 Z " id="path8"/>
<path d="M 250 8 Q 225 8 200 4 Q 175 -0 152 -10 Q 129 -20 110 -37 Q 91 -54 78 -75.5 Q 65 -97 58.5 -121.5 Q 52 -146 52 -171 Q 52 -202 62 -232 Q 72 -262 88.5 -288 Q 105 -314 127 -336 Q 149 -358 174 -378 Q 152 -396 132.5 -417 Q 113 -438 98.5 -462.5 Q 84 -487 76 -514.5 Q 68 -542 68 -571 Q 68 -594 73.5 -617.5 Q 79 -641 90.5 -661.5 Q 102 -682 119.5 -698.5 Q 137 -715 158 -725 Q 179 -735 202.5 -739 Q 226 -743 250 -743 Q 274 -743 297.5 -739 Q 321 -735 342 -725 Q 363 -715 380.5 -698.5 Q 398 -682 409.5 -661.5 Q 421 -641 426.5 -617.5 Q 432 -594 432 -571 Q 432 -542 424 -514.5 Q 416 -487 401.5 -462.5 Q 387 -438 367.5 -417 Q 348 -396 326 -378 Q 351 -358 373 -336 Q 395 -314 411.5 -288 Q 428 -262 438 -232 Q 448 -202 448 -171 Q 448 -146 441.5 -121.5 Q 435 -97 422 -75.5 Q 409 -54 390 -37 Q 371 -20 348 -10 Q 325 -0 300 4 Q 275 8 250 8 Z M 250 -435 Q 266 -447 280.5 -461.5 Q 295 -476 306.5 -493 Q 318 -510 325 -529.5 Q 332 -549 332 -569 Q 332 -586 326.5 -602.5 Q 321 -619 310 -631.5 Q 299 -644 283 -649.5 Q 267 -655 250 -655 Q 233 -655 217 -649.5 Q 201 -644 190 -631.5 Q 179 -619 173.5 -602.5 Q 168 -586 168 -569 Q 168 -549 175 -529.5 Q 182 -510 193.5 -493 Q 205 -476 219.5 -461.5 Q 234 -447 250 -435 Z M 250 -80 Q 269 -80 287.5 -85.5 Q 306 -91 320 -104 Q 334 -117 340.5 -135.5 Q 347 -154 347 -173 Q 347 -196 338.5 -217.5 Q 330 -239 316.5 -257.5 Q 303 -276 285.5 -291 Q 268 -306 250 -320 Q 232 -306 214.5 -291 Q 197 -276 183.5 -257.5 Q 170 -239 161.5 -217.5 Q 153 -196 153 -173 Q 153 -154 159.5 -135.5 Q 166 -117 180 -104 Q 194 -91 212.5 -85.5 Q 231 -80 250 -80 Z " id="path9"/>
<path d="M 262 0 L 153 0 L 260 -218 Q 268 -235 277 -251.5 Q 286 -268 295 -284 Q 283 -281 271 -280 Q 259 -279 247 -279 Q 219 -279 190.5 -286 Q 162 -293 138.5 -309 Q 115 -325 97.5 -348.5 Q 80 -372 70 -398.5 Q 60 -425 56 -453.5 Q 52 -482 52 -511 Q 52 -540 56 -568.5 Q 60 -597 70.5 -624 Q 81 -651 98.5 -674.5 Q 116 -698 140 -714 Q 164 -730 192.5 -736.5 Q 221 -743 250 -743 Q 281 -743 311 -734.5 Q 341 -726 365 -707 Q 389 -688 405.5 -661.5 Q 422 -635 431.5 -606 Q 441 -577 444.5 -546 Q 448 -515 448 -485 Q 448 -444 440 -404 Q 432 -364 418 -326 Q 404 -288 386 -251.5 Q 368 -215 350 -179 Z M 249 -367 Q 266 -367 281.5 -372.5 Q 297 -378 308.5 -389.5 Q 320 -401 328 -415.5 Q 336 -430 340 -446 Q 344 -462 345.5 -478.5 Q 347 -495 347 -511 Q 347 -527 345.5 -543.5 Q 344 -560 340 -575.5 Q 336 -591 328.5 -606 Q 321 -621 309.5 -632.5 Q 298 -644 282 -649.5 Q 266 -655 250 -655 Q 234 -655 218 -649.5 Q 202 -644 190.5 -632.5 Q 179 -621 171.5 -606 Q 164 -591 160 -575.5 Q 156 -560 154.5 -543.5 Q 153 -527 153 -511 Q 153 -495 154.5 -478.5 Q 156 -462 160 -446.5 Q 164 -431 171.5 -416 Q 179 -401 190.5 -389.5 Q 202 -378 217.5 -372.5 Q 233 -367 249 -367 Z " id="path10"/>
<path d="M 39 0 L 192 -735 L 308 -735 L 461 0 L 358 0 L 326 -172 L 174 -172 L 142 0 Z M 309 -260 L 265 -490 Q 262 -511 258 -531.5 Q 254 -552 250 -572 Q 246 -552 242 -531.5 Q 238 -511 235 -490 L 191 -260 Z " id="path11"/>
<path d="M 60 0 L 60 -735 L 234 -735 Q 261 -735 287 -730.5 Q 313 -726 336 -714 Q 359 -702 377.5 -682.5 Q 396 -663 408 -639.5 Q 420 -616 424.5 -590 Q 429 -564 429 -538 Q 429 -515 425 -492 Q 421 -469 410.5 -448.5 Q 400 -428 383.5 -411 Q 367 -394 347 -383 Q 372 -373 393.5 -355.5 Q 415 -338 429.5 -314.5 Q 444 -291 450 -264 Q 456 -237 456 -210 Q 456 -181 450 -152.5 Q 444 -124 430 -98.5 Q 416 -73 394.5 -53.5 Q 373 -34 347 -21.5 Q 321 -9 292 -4.5 Q 263 -0 234 0 Z M 161 -424 L 234 -424 Q 255 -424 274.5 -432.5 Q 294 -441 306.5 -457.5 Q 319 -474 324 -494.5 Q 329 -515 329 -536 Q 329 -557 324 -577.5 Q 319 -598 306.5 -614.5 Q 294 -631 274.5 -639 Q 255 -647 234 -647 L 161 -647 Z M 161 -88 L 234 -88 Q 251 -88 267 -91 Q 283 -94 297.5 -101.5 Q 312 -109 323.5 -121 Q 335 -133 342.5 -148 Q 350 -163 352.5 -179 Q 355 -195 355 -212 Q 355 -228 352.5 -244.5 Q 350 -261 343 -276 Q 336 -291 324.5 -303 Q 313 -315 298 -322.5 Q 283 -330 267 -333 Q 251 -336 234 -336 L 161 -336 Z " id="path12"/>
<path d="M 247 8 Q 220 8 193.5 2.5 Q 167 -3 143.5 -16 Q 120 -29 101.5 -49.5 Q 83 -70 72 -94.5 Q 61 -119 56.5 -146 Q 52 -173 52 -200 L 52 -535 Q 52 -562 56.5 -589 Q 61 -616 72 -640.5 Q 83 -665 101.5 -685.5 Q 120 -706 143.5 -719 Q 167 -732 193.5 -737.5 Q 220 -743 247 -743 Q 273 -743 298 -738.5 Q 323 -734 346 -723 Q 369 -712 387.5 -694 Q 406 -676 418 -653.5 Q 430 -631 436 -606 Q 442 -581 442 -556 L 442 -554 L 341 -554 L 341 -555 Q 341 -575 335.5 -593.5 Q 330 -612 317 -627 Q 304 -642 285.5 -648.5 Q 267 -655 247 -655 Q 226 -655 206 -645.5 Q 186 -636 173.5 -618 Q 161 -600 157 -578.5 Q 153 -557 153 -535 L 153 -200 Q 153 -178 157 -156.5 Q 161 -135 173.5 -117 Q 186 -99 206 -89.5 Q 226 -80 247 -80 Q 267 -80 285.5 -86.5 Q 304 -93 317 -108 Q 330 -123 335.5 -141.5 Q 341 -160 341 -180 L 341 -181 L 442 -181 L 442 -179 Q 442 -154 436 -129 Q 430 -104 418 -81.5 Q 406 -59 387.5 -41 Q 369 -23 346 -12 Q 323 -1 298 3.5 Q 273 8 247 8 Z " id="path13"/>
<path d="M 60 0 L 60 -735 L 219 -735 Q 249 -735 279 -730 Q 309 -725 336.5 -712 Q 364 -699 386 -678.5 Q 408 -658 422 -631.5 Q 436 -605 442 -575 Q 448 -545 448 -515 L 448 -220 Q 448 -190 442 -160 Q 436 -130 422 -103.5 Q 408 -77 386 -56.5 Q 364 -36 336.5 -23 Q 309 -10 279 -5 Q 249 -0 219 0 Z M 161 -88 L 219 -88 Q 237 -88 254 -91 Q 271 -94 286.5 -102.5 Q 302 -111 314 -124 Q 326 -137 333.5 -152.5 Q 341 -168 344 -185.5 Q 347 -203 347 -220 L 347 -515 Q 347 -532 344 -549.5 Q 341 -567 333.5 -582.5 Q 326 -598 314 -611 Q 302 -624 286.5 -632.5 Q 271 -641 254 -644 Q 237 -647 219 -647 L 161 -647 Z " id="path14"/>
<path d="M 68 0 L 68 -735 L 440 -735 L 440 -647 L 169 -647 L 169 -426 L 383 -426 L 383 -338 L 169 -338 L 169 -88 L 440 -88 L 440 0 Z " id="path15"/>
<path d="M 91 0 L 91 -735 L 440 -735 L 440 -647 L 191 -647 L 191 -426 L 383 -426 L 383 -338 L 191 -338 L 191 0 Z " id="path16"/>
<path d="M 250 8 Q 223 8 196.5 2.5 Q 170 -3 147 -16.5 Q 124 -30 106.5 -50.5 Q 89 -71 78.5 -95.5 Q 68 -120 64 -146.5 Q 60 -173 60 -200 L 60 -735 L 161 -735 L 161 -200 Q 161 -186 162.5 -172 Q 164 -158 168 -144.5 Q 172 -131 179.5 -118.5 Q 187 -106 197.5 -97 Q 208 -88 222 -84 Q 236 -80 250 -80 Q 264 -80 278 -84 Q 292 -88 302.5 -97 Q 313 -106 320.5 -118.5 Q 328 -131 332 -144.5 Q 336 -158 337.5 -172 Q 339 -186 339 -200 L 339 -735 L 440 -735 L 440 -200 Q 440 -173 436 -146.5 Q 432 -120 421.5 -95.5 Q 411 -71 393.5 -50.5 Q 376 -30 353 -16.5 Q 330 -3 303.5 2.5 Q 277 8 250 8 Z " id="path17"/>
<path d="M 300 -143 L 200 -143 L 200 -296 L 60 -296 L 60 -384 L 200 -384 L 200 -537 L 300 -537 L 300 -384 L 440 -384 L 440 -296 L 300 -296 Z " id="path18"/>
<path d="M 250 -317 Q 230 -317 210.5 -320.5 Q 191 -324 173.5 -333 Q 156 -342 142 -355.5 Q 128 -369 119 -386.5 Q 110 -404 106.5 -423.5 Q 103 -443 103 -463 L 103 -698 Q 103 -717 106.5 -736.5 Q 110 -756 119 -773.5 Q 128 -791 142 -805 Q 156 -819 173.5 -827.5 Q 191 -836 210.5 -839.5 Q 230 -843 250 -843 Q 270 -843 289.5 -839.5 Q 309 -836 326.5 -827.5 Q 344 -819 358 -805 Q 372 -791 381 -773.5 Q 390 -756 393.5 -736.5 Q 397 -717 397 -698 L 397 -463 Q 397 -443 393.5 -423.5 Q 390 -404 381 -386.5 Q 372 -369 358 -355.5 Q 344 -342 326.5 -333 Q 309 -324 289.5 -320.5 Q 270 -317 250 -317 Z M 180 -560 L 320 -671 L 320 -698 Q 320 -712 316 -726.5 Q 312 -741 302.5 -752.5 Q 293 -764 279 -769 Q 265 -774 250 -774 Q 235 -774 221 -769 Q 207 -764 197.5 -752.5 Q 188 -741 184 -726.5 Q 180 -712 180 -698 Z M 250 -387 Q 265 -387 279 -392 Q 293 -397 302.5 -408 Q 312 -419 316 -433.5 Q 320 -448 320 -463 L 320 -600 L 180 -489 L 180 -463 Q 180 -448 184 -433.5 Q 188 -419 197.5 -408 Q 207 -397 221 -392 Q 235 -387 250 -387 Z " id="path19"/>
<path d="M 254 -730 Q 241 -730 229 -734 Q 217 -738 208 -746.5 Q 199 -755 195.5 -767.5 Q 192 -780 192 -792 Q 192 -804 195.5 -816.5 Q 199 -829 208 -837.5 Q 217 -846 229 -850 Q 241 -854 254 -854 Q 266 -854 278.5 -850 Q 291 -846 299.5 -837.5 Q 308 -829 312 -816.5 Q 316 -804 316 -792 Q 316 -780 312 -767.5 Q 308 -755 299.5 -746.5 Q 291 -738 278.5 -734 Q 266 -730 254 -730 Z M 128 -323 L 128 -392 L 216 -392 L 216 -618 L 137 -618 L 137 -687 L 293 -687 L 293 -392 L 373 -392 L 373 -323 Z " id="path20"/>
<path d="M 64 0 L 64 -735 L 436 -735 L 436 0 Z M 94 -321 L 401 -705 L 307 -705 L 94 -438 Z M 94 -477 L 276 -705 L 182 -705 L 94 -595 Z M 94 -634 L 151 -705 L 94 -705 Z M 94 -165 L 406 -554 L 406 -671 L 94 -282 Z M 94 -30 L 112 -30 L 406 -398 L 406 -515 L 94 -126 Z M 237 -30 L 406 -242 L 406 -359 L 143 -30 Z M 268 -30 L 362 -30 L 406 -85 L 406 -203 Z M 393 -30 L 406 -30 L 406 -46 Z " id="path21"/>
<path d="M 273 -323 L 273 -451 L 103 -451 L 103 -521 L 268 -838 L 353 -838 L 188 -521 L 273 -521 L 273 -624 L 350 -624 L 350 -521 L 391 -521 L 391 -451 L 350 -451 L 350 -323 Z " id="path22"/>
<path d="M 251 -317 Q 224 -317 198 -325 Q 172 -333 152.5 -351 Q 133 -369 122 -394.5 Q 111 -420 108 -446 L 108 -447 L 185 -447 L 186 -446 Q 188 -434 193 -422.5 Q 198 -411 206.5 -402.5 Q 215 -394 227 -390.5 Q 239 -387 251 -387 Q 268 -387 283 -396.5 Q 298 -406 306.5 -421 Q 315 -436 317.5 -453 Q 320 -470 320 -488 Q 320 -505 317.5 -522 Q 315 -539 307.5 -554 Q 300 -569 285 -579 Q 270 -589 253 -589 Q 241 -589 229.5 -585 Q 218 -581 209.5 -572 Q 201 -563 196.5 -551.5 Q 192 -540 191 -528 L 114 -528 L 114 -838 L 377 -838 L 377 -768 L 191 -768 L 191 -647 Q 206 -653 221.5 -655.5 Q 237 -658 253 -658 Q 274 -658 295 -653 Q 316 -648 333.5 -636.5 Q 351 -625 363.5 -607.5 Q 376 -590 383.5 -570.5 Q 391 -551 394 -530 Q 397 -509 397 -488 Q 397 -466 394 -445 Q 391 -424 383.5 -404.5 Q 376 -385 363 -367.5 Q 350 -350 332 -338.5 Q 314 -327 293 -322 Q 272 -317 251 -317 Z " id="path23"/>
<path d="M 250 -317 Q 228 -317 206 -323 Q 184 -329 166 -342.5 Q 148 -356 135.5 -374.5 Q 123 -393 115.5 -414.5 Q 108 -436 105.5 -458 Q 103 -480 103 -503 Q 103 -530 109.5 -557 Q 116 -584 127 -609.5 Q 138 -635 151 -659.5 Q 164 -684 176 -709 L 240 -838 L 324 -838 L 245 -678 Q 241 -670 237 -661.5 Q 233 -653 228 -645 Q 234 -645 240 -645.5 Q 246 -646 252 -646 Q 283 -646 313 -634.5 Q 343 -623 362.5 -599 Q 382 -575 389.5 -544 Q 397 -513 397 -482 Q 397 -461 394 -440 Q 391 -419 383 -400 Q 375 -381 361.5 -364.5 Q 348 -348 330 -337 Q 312 -326 291.5 -321.5 Q 271 -317 250 -317 Z M 250 -387 Q 267 -387 282 -395 Q 297 -403 305.5 -417.5 Q 314 -432 317 -448.5 Q 320 -465 320 -482 Q 320 -498 317 -515 Q 314 -532 305.5 -546 Q 297 -560 282 -568.5 Q 267 -577 251 -577 Q 234 -577 218.5 -568.5 Q 203 -560 194.5 -546 Q 186 -532 183 -515.5 Q 180 -499 180 -482 Q 180 -465 183 -448.5 Q 186 -432 194.5 -417.5 Q 203 -403 218 -395 Q 233 -387 250 -387 Z " id="path24"/>
<path d="M 165 -323 L 311 -768 L 109 -768 L 109 -838 L 391 -838 L 391 -768 L 290 -459 L 246 -323 Z " id="path25"/>
<path d="M 250 -317 Q 223 -317 196 -323.5 Q 169 -330 147.5 -347 Q 126 -364 114.5 -389.5 Q 103 -415 103 -442 Q 103 -464 110 -485 Q 117 -506 129 -524.5 Q 141 -543 157 -558.5 Q 173 -574 190 -587 Q 175 -600 161 -615 Q 147 -630 137 -647 Q 127 -664 121 -683.5 Q 115 -703 115 -724 Q 115 -749 125 -773 Q 135 -797 154.5 -813.5 Q 174 -830 199.5 -836.5 Q 225 -843 250 -843 Q 275 -843 300.5 -836.5 Q 326 -830 345.5 -813.5 Q 365 -797 375 -773 Q 385 -749 385 -724 Q 385 -703 379 -683.5 Q 373 -664 363 -647 Q 353 -630 339 -615 Q 325 -600 310 -587 Q 327 -574 343 -558.5 Q 359 -543 371 -524.5 Q 383 -506 390 -485 Q 397 -464 397 -442 Q 397 -415 385.5 -389.5 Q 374 -364 352.5 -347 Q 331 -330 304 -323.5 Q 277 -317 250 -317 Z M 250 -632 Q 261 -641 271 -650.5 Q 281 -660 289.5 -671 Q 298 -682 303 -695 Q 308 -708 308 -722 Q 308 -733 304 -743.5 Q 300 -754 291.5 -761 Q 283 -768 272 -771 Q 261 -774 250 -774 Q 239 -774 228 -771 Q 217 -768 208.5 -761 Q 200 -754 196 -743.5 Q 192 -733 192 -722 Q 192 -708 197 -695 Q 202 -682 210.5 -671 Q 219 -660 229 -650.5 Q 239 -641 250 -632 Z M 250 -387 Q 263 -387 275.5 -389.5 Q 288 -392 298.5 -399.5 Q 309 -407 314.5 -419 Q 320 -431 320 -443 Q 320 -459 313.5 -473.5 Q 307 -488 297 -500.5 Q 287 -513 275 -523 Q 263 -533 250 -543 Q 237 -533 225 -523 Q 213 -513 203 -500.5 Q 193 -488 186.5 -473.5 Q 180 -459 180 -443 Q 180 -431 185.5 -419 Q 191 -407 201.5 -399.5 Q 212 -392 224.5 -389.5 Q 237 -387 250 -387 Z " id="path26"/>
<path d="M 176 -323 L 255 -482 Q 259 -491 263 -499.5 Q 267 -508 272 -516 Q 266 -515 260 -514.5 Q 254 -514 248 -514 Q 217 -514 187 -526 Q 157 -538 137.5 -562 Q 118 -586 110.5 -617 Q 103 -648 103 -679 Q 103 -700 106 -720.5 Q 109 -741 117 -760.5 Q 125 -780 138.5 -796.5 Q 152 -813 170 -823.5 Q 188 -834 208.5 -838.5 Q 229 -843 250 -843 Q 272 -843 294 -837 Q 316 -831 334 -818 Q 352 -805 364.5 -786 Q 377 -767 384.5 -746 Q 392 -725 394.5 -702.5 Q 397 -680 397 -658 Q 397 -630 390.5 -603 Q 384 -576 373 -551 Q 362 -526 349 -501.5 Q 336 -477 324 -452 L 260 -323 Z M 249 -584 Q 266 -584 281.5 -592 Q 297 -600 305.5 -614.5 Q 314 -629 317 -645.5 Q 320 -662 320 -679 Q 320 -695 317 -712 Q 314 -729 305.5 -743 Q 297 -757 282 -765.5 Q 267 -774 250 -774 Q 233 -774 218 -765.5 Q 203 -757 194.5 -743 Q 186 -729 183 -712 Q 180 -695 180 -679 Q 180 -662 183 -645.5 Q 186 -629 194.5 -614.5 Q 203 -600 218 -592 Q 233 -584 249 -584 Z " id="path27"/>
<path d="M 212 -414 L 212 -526 L 109 -526 L 109 -596 L 212 -596 L 212 -708 L 288 -708 L 288 -596 L 391 -596 L 391 -526 L 288 -526 L 288 -414 Z " id="path28"/>
<path d="M 109 -526 L 109 -596 L 391 -596 L 391 -526 Z " id="path29"/>
<path d="M 109 -594 L 109 -664 L 391 -664 L 391 -594 Z M 109 -458 L 109 -528 L 391 -528 L 391 -458 Z " id="path30"/>
<path d="M 336 -210 Q 289 -234 251 -272 Q 213 -310 189 -357 Q 165 -404 154.5 -456 Q 144 -508 144 -561 Q 144 -614 154.5 -666 Q 165 -718 189 -765 Q 213 -812 251 -850 Q 289 -888 336 -912 L 372 -851 Q 334 -830 304.5 -798 Q 275 -766 256 -727.5 Q 237 -689 229 -646.5 Q 221 -604 221 -561 Q 221 -518 229 -475.5 Q 237 -433 256 -394.5 Q 275 -356 304.5 -324 Q 334 -292 372 -271 Z " id="path31"/>
<path d="M 164 -210 L 128 -271 Q 166 -292 195.5 -324 Q 225 -356 244 -394.5 Q 263 -433 271 -475.5 Q 279 -518 279 -561 Q 279 -604 271 -646.5 Q 263 -689 244 -727.5 Q 225 -766 195.5 -798 Q 166 -830 128 -851 L 164 -912 Q 211 -888 249 -850 Q 287 -812 311 -765 Q 335 -718 345.5 -666 Q 356 -614 356 -561 Q 356 -508 345.5 -456 Q 335 -404 311 -357 Q 287 -310 249 -272 Q 211 -234 164 -210 Z " id="path32"/>
<path d="M 109 -323 L 109 -687 L 186 -687 L 186 -628 Q 192 -642 201 -654.5 Q 210 -667 223 -676 Q 236 -685 251 -689 Q 266 -693 282 -693 Q 299 -693 315.5 -688 Q 332 -683 345.5 -672 Q 359 -661 368 -646 Q 377 -631 382.5 -614.5 Q 388 -598 389.5 -581 Q 391 -564 391 -547 L 391 -323 L 314 -323 L 314 -547 Q 314 -561 311 -575 Q 308 -589 299.5 -600.5 Q 291 -612 277.5 -617.5 Q 264 -623 250 -623 Q 236 -623 222.5 -617.5 Q 209 -612 200.5 -600.5 Q 192 -589 189 -575 Q 186 -561 186 -547 L 186 -323 Z " id="path33"/>
<path d="M 250 113 Q 230 113 210.5 109.5 Q 191 106 173.5 97.5 Q 156 89 142 75 Q 128 61 119 43.5 Q 110 26 106.5 6.5 Q 103 -13 103 -33 L 103 -267 Q 103 -287 106.5 -306.5 Q 110 -326 119 -343.5 Q 128 -361 142 -374.5 Q 156 -388 173.5 -397 Q 191 -406 210.5 -409.5 Q 230 -413 250 -413 Q 270 -413 289.5 -409.5 Q 309 -406 326.5 -397 Q 344 -388 358 -374.5 Q 372 -361 381 -343.5 Q 390 -326 393.5 -306.5 Q 397 -287 397 -267 L 397 -33 Q 397 -13 393.5 6.5 Q 390 26 381 43.5 Q 372 61 358 75 Q 344 89 326.5 97.5 Q 309 106 289.5 109.5 Q 270 113 250 113 Z M 180 -130 L 320 -241 L 320 -267 Q 320 -282 316 -296.5 Q 312 -311 302.5 -322 Q 293 -333 279 -338 Q 265 -343 250 -343 Q 235 -343 221 -338 Q 207 -333 197.5 -322 Q 188 -311 184 -296.5 Q 180 -282 180 -267 Z M 250 44 Q 265 44 279 39 Q 293 34 302.5 22.5 Q 312 11 316 -3.5 Q 320 -18 320 -33 L 320 -170 L 180 -59 L 180 -33 Q 180 -18 184 -3.5 Q 188 11 197.5 22.5 Q 207 34 221 39 Q 235 44 250 44 Z " id="path34"/>
<path d="M 233 107 L 233 -331 L 152 -267 L 113 -312 L 233 -407 L 309 -407 L 309 107 Z " id="path35"/>
<path d="M 109 107 Q 109 84 110 61.5 Q 111 39 115.5 17 Q 120 -5 128.5 -26 Q 137 -47 149.5 -65.5 Q 162 -84 177.5 -100.5 Q 193 -117 211 -130.5 Q 229 -144 248.5 -156 Q 268 -168 283.5 -183.5 Q 299 -199 308 -220.5 Q 317 -242 317 -264 Q 317 -279 314 -293.5 Q 311 -308 302 -320 Q 293 -332 279 -337.5 Q 265 -343 250 -343 Q 237 -343 224.5 -339 Q 212 -335 202.5 -326 Q 193 -317 188.5 -304.5 Q 184 -292 184 -279 L 184 -278 L 107 -278 L 107 -279 Q 107 -307 117.5 -333.5 Q 128 -360 148 -378.5 Q 168 -397 195.5 -405 Q 223 -413 250 -413 Q 280 -413 308.5 -403.5 Q 337 -394 357.5 -372.5 Q 378 -351 386 -322.5 Q 394 -294 394 -264 Q 394 -241 388 -218 Q 382 -195 369 -175 Q 356 -155 338.5 -139 Q 321 -123 302 -108.5 Q 283 -94 265 -79 Q 247 -64 231.5 -46 Q 216 -28 205.5 -6.5 Q 195 15 191 38 L 391 38 L 391 107 Z " id="path36"/>
<path d="M 252 113 Q 223 113 195 105.5 Q 167 98 145.5 79.5 Q 124 61 113 34 Q 102 7 102 -22 L 179 -22 Q 179 -8 184 5 Q 189 18 199.5 27 Q 210 36 224 40 Q 238 44 252 44 Q 267 44 281.5 39 Q 296 34 306 23 Q 316 12 321 -2.5 Q 326 -17 326 -32 Q 326 -52 318 -70.5 Q 310 -89 295 -101.5 Q 280 -114 260.5 -118 Q 241 -122 222 -122 L 222 -191 Q 239 -191 257 -195 Q 275 -199 288 -210.5 Q 301 -222 308 -239 Q 315 -256 315 -274 Q 315 -287 311 -300 Q 307 -313 298.5 -323 Q 290 -333 277.5 -338 Q 265 -343 252 -343 Q 239 -343 227 -339 Q 215 -335 206.5 -326 Q 198 -317 194 -305 Q 190 -293 190 -280 L 190 -279 L 113 -279 L 113 -281 Q 113 -308 122.5 -334 Q 132 -360 152 -378.5 Q 172 -397 198.5 -405 Q 225 -413 252 -413 Q 280 -413 307 -404.5 Q 334 -396 353.5 -376.5 Q 373 -357 382.5 -330 Q 392 -303 392 -275 Q 392 -257 387.5 -239.5 Q 383 -222 374 -206.5 Q 365 -191 352 -178.5 Q 339 -166 323 -158 Q 341 -149 356.5 -136 Q 372 -123 382 -106 Q 392 -89 397.5 -69.5 Q 403 -50 403 -31 Q 403 -1 392.5 27.5 Q 382 56 360.5 76 Q 339 96 310 104.5 Q 281 113 252 113 Z " id="path37"/>
<path d="M 273 107 L 273 -21 L 103 -21 L 103 -90 L 268 -407 L 353 -407 L 188 -90 L 273 -90 L 273 -193 L 350 -193 L 350 -90 L 391 -90 L 391 -21 L 350 -21 L 350 107 Z " id="path38"/>
<path d="M 251 113 Q 224 113 198 105 Q 172 97 152.5 79 Q 133 61 122 36 Q 111 11 108 -16 L 108 -17 L 185 -17 L 186 -15 Q 188 -3 193 8 Q 198 19 206.5 27.5 Q 215 36 227 40 Q 239 44 251 44 Q 268 44 283 34.5 Q 298 25 306.5 9.5 Q 315 -6 317.5 -23 Q 320 -40 320 -57 Q 320 -74 317.5 -91 Q 315 -108 307.5 -123.5 Q 300 -139 285 -148.5 Q 270 -158 253 -158 Q 241 -158 229.5 -154 Q 218 -150 209.5 -141.5 Q 201 -133 196.5 -121.5 Q 192 -110 191 -98 L 114 -98 L 114 -407 L 377 -407 L 377 -338 L 191 -338 L 191 -216 Q 206 -223 221.5 -225 Q 237 -227 253 -227 Q 274 -227 295 -222.5 Q 316 -218 333.5 -206 Q 351 -194 363.5 -177 Q 376 -160 383.5 -140 Q 391 -120 394 -99 Q 397 -78 397 -57 Q 397 -36 394 -15 Q 391 6 383.5 26 Q 376 46 363 63 Q 350 80 332 91.5 Q 314 103 293 108 Q 272 113 251 113 Z " id="path39"/>
<path d="M 250 113 Q 228 113 206 107 Q 184 101 166 88 Q 148 75 135.5 56 Q 123 37 115.5 16 Q 108 -5 105.5 -27.5 Q 103 -50 103 -72 Q 103 -100 109.5 -127 Q 116 -154 127 -179 Q 138 -204 151 -228.5 Q 164 -253 176 -278 L 240 -407 L 324 -407 L 245 -248 Q 241 -239 237 -230.5 Q 233 -222 228 -214 Q 234 -215 240 -215.5 Q 246 -216 252 -216 Q 283 -216 313 -204 Q 343 -192 362.5 -168 Q 382 -144 389.5 -113 Q 397 -82 397 -51 Q 397 -30 394 -9.5 Q 391 11 383 30.5 Q 375 50 361.5 66.5 Q 348 83 330 93.5 Q 312 104 291.5 108.5 Q 271 113 250 113 Z M 250 44 Q 267 44 282 35.5 Q 297 27 305.5 13 Q 314 -1 317 -18 Q 320 -35 320 -51 Q 320 -68 317 -84.5 Q 314 -101 305.5 -115.5 Q 297 -130 282 -138 Q 267 -146 251 -146 Q 234 -146 218.5 -138 Q 203 -130 194.5 -115.5 Q 186 -101 183 -84.5 Q 180 -68 180 -51 Q 180 -35 183 -18 Q 186 -1 194.5 13 Q 203 27 218 35.5 Q 233 44 250 44 Z " id="path40"/>
<path d="M 165 107 L 311 -338 L 109 -338 L 109 -407 L 391 -407 L 391 -338 L 290 -29 L 246 107 Z " id="path41"/>
<path d="M 250 113 Q 223 113 196 106.5 Q 169 100 147.5 83.5 Q 126 67 114.5 41.5 Q 103 16 103 -11 Q 103 -33 110 -54.5 Q 117 -76 129 -94 Q 141 -112 157 -127.5 Q 173 -143 190 -157 Q 175 -170 161 -184.5 Q 147 -199 137 -216.5 Q 127 -234 121 -253.5 Q 115 -273 115 -293 Q 115 -319 125 -343 Q 135 -367 154.5 -383.5 Q 174 -400 199.5 -406.5 Q 225 -413 250 -413 Q 275 -413 300.5 -406.5 Q 326 -400 345.5 -383.5 Q 365 -367 375 -343 Q 385 -319 385 -293 Q 385 -273 379 -253.5 Q 373 -234 363 -216.5 Q 353 -199 339 -184.5 Q 325 -170 310 -157 Q 327 -143 343 -127.5 Q 359 -112 371 -94 Q 383 -76 390 -54.5 Q 397 -33 397 -11 Q 397 16 385.5 41.5 Q 374 67 352.5 83.5 Q 331 100 304 106.5 Q 277 113 250 113 Z M 250 -201 Q 261 -210 271 -219.5 Q 281 -229 289.5 -240.5 Q 298 -252 303 -265 Q 308 -278 308 -292 Q 308 -303 304 -313.5 Q 300 -324 291.5 -331 Q 283 -338 272 -340.5 Q 261 -343 250 -343 Q 239 -343 228 -340.5 Q 217 -338 208.5 -331 Q 200 -324 196 -313.5 Q 192 -303 192 -292 Q 192 -278 197 -265 Q 202 -252 210.5 -240.5 Q 219 -229 229 -219.5 Q 239 -210 250 -201 Z M 250 44 Q 263 44 275.5 41 Q 288 38 298.5 30.5 Q 309 23 314.5 11.5 Q 320 0 320 -13 Q 320 -29 313.5 -43.5 Q 307 -58 297 -70 Q 287 -82 275 -92.5 Q 263 -103 250 -112 Q 237 -103 225 -92.5 Q 213 -82 203 -70 Q 193 -58 186.5 -43.5 Q 180 -29 180 -13 Q 180 0 185.5 11.5 Q 191 23 201.5 30.5 Q 212 38 224.5 41 Q 237 44 250 44 Z " id="path42"/>
<path d="M 176 107 L 255 -52 Q 259 -60 263 -68.5 Q 267 -77 272 -85 Q 266 -85 260 -84.5 Q 254 -84 248 -84 Q 217 -84 187 -95.5 Q 157 -107 137.5 -131 Q 118 -155 110.5 -186 Q 103 -217 103 -248 Q 103 -269 106 -290 Q 109 -311 117 -330 Q 125 -349 138.5 -365.5 Q 152 -382 170 -393 Q 188 -404 208.5 -408.5 Q 229 -413 250 -413 Q 272 -413 294 -407 Q 316 -401 334 -387.5 Q 352 -374 364.5 -355.5 Q 377 -337 384.5 -315.5 Q 392 -294 394.5 -272 Q 397 -250 397 -227 Q 397 -200 390.5 -173 Q 384 -146 373 -120.5 Q 362 -95 349 -70.5 Q 336 -46 324 -21 L 260 107 Z M 249 -153 Q 266 -153 281.5 -161.5 Q 297 -170 305.5 -184 Q 314 -198 317 -214.5 Q 320 -231 320 -248 Q 320 -265 317 -281.5 Q 314 -298 305.5 -312.5 Q 297 -327 282 -335 Q 267 -343 250 -343 Q 233 -343 218 -335 Q 203 -327 194.5 -312.5 Q 186 -298 183 -281.5 Q 180 -265 180 -248 Q 180 -232 183 -215 Q 186 -198 194.5 -184 Q 203 -170 218 -161.5 Q 233 -153 249 -153 Z " id="path43"/>
<path d="M 212 17 L 212 -96 L 109 -96 L 109 -165 L 212 -165 L 212 -278 L 288 -278 L 288 -165 L 391 -165 L 391 -96 L 288 -96 L 288 17 Z " id="path44"/>
<path d="M 109 -96 L 109 -165 L 391 -165 L 391 -96 Z " id="path45"/>
<path d="M 109 -164 L 109 -233 L 391 -233 L 391 -164 Z M 109 -28 L 109 -97 L 391 -97 L 391 -28 Z " id="path46"/>
<path d="M 336 220 Q 289 196 251 158 Q 213 120 189 73.5 Q 165 27 154.5 -25.5 Q 144 -78 144 -131 Q 144 -183 154.5 -235.5 Q 165 -288 189 -334.5 Q 213 -381 251 -419 Q 289 -457 336 -481 L 372 -420 Q 334 -399 304.5 -367.5 Q 275 -336 256 -297.5 Q 237 -259 229 -216 Q 221 -173 221 -131 Q 221 -88 229 -45 Q 237 -2 256 36.5 Q 275 75 304.5 106.5 Q 334 138 372 159 Z " id="path47"/>
<path d="M 164 220 L 128 159 Q 166 138 195.5 106.5 Q 225 75 244 36.5 Q 263 -2 271 -45 Q 279 -88 279 -131 Q 279 -173 271 -216 Q 263 -259 244 -297.5 Q 225 -336 195.5 -367.5 Q 166 -399 128 -420 L 164 -481 Q 211 -457 249 -419 Q 287 -381 311 -334.5 Q 335 -288 345.5 -235.5 Q 356 -183 356 -131 Q 356 -78 345.5 -25.5 Q 335 27 311 73.5 Q 287 120 249 158 Q 211 196 164 220 Z " id="path48"/>
<path d="M 209 113 Q 188 113 167 106.5 Q 146 100 131 84.5 Q 116 69 109.5 48.5 Q 103 28 103 6 Q 103 -13 108 -31.5 Q 113 -50 125.5 -65 Q 138 -80 154.5 -90 Q 171 -100 189 -105.5 Q 207 -111 226 -113 Q 245 -115 264 -115 L 314 -115 L 314 -145 Q 314 -156 308.5 -166.5 Q 303 -177 293 -183 Q 283 -189 272 -191 Q 261 -193 249 -193 Q 238 -193 227 -191 Q 216 -189 206 -183 Q 196 -177 190 -167 Q 184 -157 184 -146 L 107 -146 L 107 -147 Q 107 -173 119 -197 Q 131 -221 151.5 -236 Q 172 -251 197.5 -256.5 Q 223 -262 249 -262 Q 267 -262 284 -260 Q 301 -258 317.5 -252 Q 334 -246 348.5 -235.5 Q 363 -225 373 -210.5 Q 383 -196 387 -179 Q 391 -162 391 -145 L 391 107 L 314 107 L 314 52 Q 307 67 296 79 Q 285 91 271 98.5 Q 257 106 241 109.5 Q 225 113 209 113 Z M 240 44 Q 254 44 267.5 40.5 Q 281 37 292 29 Q 303 21 308.5 8 Q 314 -5 314 -18 L 314 -46 L 264 -46 Q 255 -46 246.5 -45.5 Q 238 -45 229 -43 Q 220 -41 211.5 -38.5 Q 203 -36 196 -31 Q 189 -26 184.5 -18 Q 180 -10 180 -1 Q 180 9 185.5 19 Q 191 29 199.5 34.5 Q 208 40 219 42 Q 230 44 240 44 Z " id="path49"/>
<path d="M 252 113 Q 232 113 212.5 109.5 Q 193 106 175 97.5 Q 157 89 142.5 75 Q 128 61 119 43.5 Q 110 26 106.5 6.5 Q 103 -13 103 -33 L 103 -117 Q 103 -136 106.5 -155.5 Q 110 -175 119 -192.5 Q 128 -210 142 -224 Q 156 -238 173.5 -246.5 Q 191 -255 210.5 -258.5 Q 230 -262 250 -262 Q 270 -262 289.5 -258.5 Q 309 -255 326.5 -246.5 Q 344 -238 358 -224 Q 372 -210 381 -192.5 Q 390 -175 393.5 -155.5 Q 397 -136 397 -117 L 397 -40 L 180 -40 L 180 -33 Q 180 -18 184 -3 Q 188 12 198 23 Q 208 34 222.5 39 Q 237 44 252 44 Q 263 44 273.5 42 Q 284 40 294 35 Q 304 30 311 21 Q 318 12 319 2 L 396 2 Q 394 27 381.5 50 Q 369 73 348 87.5 Q 327 102 302 107.5 Q 277 113 252 113 Z M 180 -109 L 320 -109 L 320 -117 Q 320 -131 316 -145.5 Q 312 -160 302.5 -171.5 Q 293 -183 279 -188 Q 265 -193 250 -193 Q 235 -193 221 -188 Q 207 -183 197.5 -171.5 Q 188 -160 184 -145.5 Q 180 -131 180 -117 Z " id="path50"/>
<path d="M 250 113 Q 230 113 210.5 109.5 Q 191 106 173.5 97.5 Q 156 89 142 75 Q 128 61 119 43.5 Q 110 26 106.5 6.5 Q 103 -13 103 -33 L 103 -117 Q 103 -136 106.5 -155.5 Q 110 -175 119 -192.5 Q 128 -210 142 -224 Q 156 -238 173.5 -246.5 Q 191 -255 210.5 -258.5 Q 230 -262 250 -262 Q 270 -262 289.5 -258.5 Q 309 -255 326.5 -246.5 Q 344 -238 358 -224 Q 372 -210 381 -192.5 Q 390 -175 393.5 -155.5 Q 397 -136 397 -117 L 397 -33 Q 397 -13 393.5 6.5 Q 390 26 381 43.5 Q 372 61 358 75 Q 344 89 326.5 97.5 Q 309 106 289.5 109.5 Q 270 113 250 113 Z M 250 44 Q 265 44 279 39 Q 293 34 302.5 22.5 Q 312 11 316 -3.5 Q 320 -18 320 -33 L 320 -117 Q 320 -131 316 -145.5 Q 312 -160 302.5 -171.5 Q 293 -183 279 -188 Q 265 -193 250 -193 Q 235 -193 221 -188 Q 207 -183 197.5 -171.5 Q 188 -160 184 -145.5 Q 180 -131 180 -117 L 180 -33 Q 180 -18 184 -3.5 Q 188 11 197.5 22.5 Q 207 34 221 39 Q 235 44 250 44 Z " id="path51"/>
<path d="M 98 107 L 208 -75 L 98 -257 L 188 -257 L 250 -148 L 312 -257 L 402 -257 L 292 -75 L 402 107 L 312 107 L 250 -1 L 188 107 Z " id="path52"/>
<path d="M 250 113 Q 230 113 210.5 109.5 Q 191 106 173.5 97.5 Q 156 89 142 75 Q 128 61 119 43.5 Q 110 26 106.5 6.5 Q 103 -13 103 -33 L 103 -109 L 320 -109 L 320 -117 Q 320 -131 316 -146 Q 312 -161 302 -172 Q 292 -183 277.5 -188 Q 263 -193 248 -193 Q 237 -193 226.5 -191 Q 216 -189 206 -184 Q 196 -179 189 -170 Q 182 -161 181 -151 L 104 -151 Q 106 -176 118.5 -199 Q 131 -222 152 -236.5 Q 173 -251 198 -256.5 Q 223 -262 248 -262 Q 268 -262 287.5 -258.5 Q 307 -255 325 -246.5 Q 343 -238 357.5 -224 Q 372 -210 381 -192.5 Q 390 -175 393.5 -155.5 Q 397 -136 397 -117 L 397 -33 Q 397 -13 393.5 6.5 Q 390 26 381 43.5 Q 372 61 358 75 Q 344 89 326.5 97.5 Q 309 106 289.5 109.5 Q 270 113 250 113 Z M 250 44 Q 265 44 279 39 Q 293 34 302.5 22.5 Q 312 11 316 -3.5 Q 320 -18 320 -33 L 320 -40 L 180 -40 L 180 -33 Q 180 -18 184 -3.5 Q 188 11 197.5 22.5 Q 207 34 221 39 Q 235 44 250 44 Z " id="path53"/>
<path d="M 109 107 L 109 -407 L 186 -407 L 186 -198 Q 192 -212 201 -224.5 Q 210 -237 223 -245.5 Q 236 -254 251 -258 Q 266 -262 282 -262 Q 299 -262 315.5 -257 Q 332 -252 345.5 -241.5 Q 359 -231 368 -216 Q 377 -201 382.5 -184.5 Q 388 -168 389.5 -151 Q 391 -134 391 -117 L 391 107 L 314 107 L 314 -117 Q 314 -131 311 -145 Q 308 -159 299.5 -170 Q 291 -181 277.5 -187 Q 264 -193 250 -193 Q 236 -193 222.5 -187 Q 209 -181 200.5 -170 Q 192 -159 189 -145 Q 186 -131 186 -117 L 186 107 Z " id="path54"/>
<path d="M 120 107 L 120 -407 L 197 -407 L 197 -93 L 312 -257 L 403 -257 L 276 -90 L 403 107 L 316 107 L 232 -32 L 197 14 L 197 107 Z " id="path55"/>
<path d="M 128 107 L 128 38 L 216 38 L 216 -338 L 137 -338 L 137 -407 L 293 -407 L 293 38 L 373 38 L 373 107 Z " id="path56"/>
<path d="M 100 107 L 100 -257 L 174 -257 L 174 -227 Q 177 -235 182 -241.5 Q 187 -248 193.5 -253 Q 200 -258 208 -260 Q 216 -262 224 -262 Q 234 -262 244 -258 Q 254 -254 261 -247 Q 268 -240 273 -230.5 Q 278 -221 281 -211 Q 284 -221 288.5 -230.5 Q 293 -240 300 -247 Q 307 -254 316.5 -258 Q 326 -262 337 -262 Q 348 -262 358.5 -257.5 Q 369 -253 376.5 -244.5 Q 384 -236 388.5 -226 Q 393 -216 395.5 -205 Q 398 -194 399 -183 Q 400 -172 400 -160 L 400 107 L 326 107 L 326 -160 Q 326 -166 325.5 -171.5 Q 325 -177 323 -182.5 Q 321 -188 316.5 -192 Q 312 -196 307 -196 Q 301 -196 296.5 -192 Q 292 -188 290 -182.5 Q 288 -177 287.5 -171.5 Q 287 -166 287 -160 L 287 107 L 213 107 L 213 -160 Q 213 -166 212.5 -171.5 Q 212 -177 210 -182.5 Q 208 -188 203.5 -192 Q 199 -196 193 -196 Q 188 -196 183.5 -192 Q 179 -188 177 -182.5 Q 175 -177 174.5 -171.5 Q 174 -166 174 -160 L 174 107 Z " id="path57"/>
<path d="M 109 107 L 109 -257 L 186 -257 L 186 -198 Q 192 -212 201 -224.5 Q 210 -237 223 -245.5 Q 236 -254 251 -258 Q 266 -262 282 -262 Q 299 -262 315.5 -257 Q 332 -252 345.5 -241.5 Q 359 -231 368 -216 Q 377 -201 382.5 -184.5 Q 388 -168 389.5 -151 Q 391 -134 391 -117 L 391 107 L 314 107 L 314 -117 Q 314 -131 311 -145 Q 308 -159 299.5 -170 Q 291 -181 277.5 -187 Q 264 -193 250 -193 Q 236 -193 222.5 -187 Q 209 -181 200.5 -170 Q 192 -159 189 -145 Q 186 -131 186 -117 L 186 107 Z " id="path58"/>
<path d="M 186 258 L 109 258 L 109 -257 L 186 -257 L 186 -198 Q 192 -212 201 -224.5 Q 210 -237 223 -246 Q 236 -255 251.5 -258.5 Q 267 -262 282 -262 Q 300 -262 317 -257.5 Q 334 -253 348 -242.5 Q 362 -232 371.5 -217 Q 381 -202 387 -185.5 Q 393 -169 395 -151.5 Q 397 -134 397 -117 L 397 -33 Q 397 -15 395 2.5 Q 393 20 387 36.5 Q 381 53 371.5 68 Q 362 83 348 93.5 Q 334 104 317 108.5 Q 300 113 282 113 Q 267 113 251.5 109.5 Q 236 106 223 97 Q 210 88 201 75.5 Q 192 63 186 49 Z M 251 44 Q 265 44 279 38.5 Q 293 33 303 22 Q 313 11 316.5 -3.5 Q 320 -18 320 -33 L 320 -117 Q 320 -131 316.5 -145.5 Q 313 -160 303 -171 Q 293 -182 279 -187.5 Q 265 -193 251 -193 Q 236 -193 222.5 -187.5 Q 209 -182 200.5 -170.5 Q 192 -159 189 -145 Q 186 -131 186 -117 L 186 -33 Q 186 -18 189 -4 Q 192 10 200.5 21.5 Q 209 33 222.5 38.5 Q 236 44 251 44 Z " id="path59"/>
<path d="M 249 113 Q 224 113 198.5 108 Q 173 103 152.5 88.5 Q 132 74 119.5 50.5 Q 107 27 107 2 L 107 1 L 184 1 Q 184 12 190.5 21 Q 197 30 207 35 Q 217 40 227.5 42 Q 238 44 249 44 Q 259 44 269.5 43 Q 280 42 289.5 38 Q 299 34 307 26.5 Q 315 19 315 9 Q 315 -3 306 -12 Q 297 -21 286.5 -26 Q 276 -31 264 -33 Q 252 -35 240.5 -37.5 Q 229 -40 217.5 -43 Q 206 -46 195 -51 Q 184 -56 173.5 -62 Q 163 -68 154 -76 Q 145 -84 137.5 -93 Q 130 -102 125 -113 Q 120 -124 117 -135.5 Q 114 -147 114 -159 Q 114 -183 126 -205 Q 138 -227 158.5 -240 Q 179 -253 203 -257.5 Q 227 -262 251 -262 Q 275 -262 299.5 -257 Q 324 -252 344 -237.5 Q 364 -223 375.5 -200 Q 387 -177 387 -153 L 387 -151 L 310 -151 L 310 -152 Q 310 -162 304.5 -171 Q 299 -180 290 -184.5 Q 281 -189 271 -191 Q 261 -193 251 -193 Q 241 -193 231.5 -191.5 Q 222 -190 213 -186.5 Q 204 -183 197.5 -175.5 Q 191 -168 191 -159 Q 191 -147 199.5 -137.5 Q 208 -128 219 -123 Q 230 -118 241.5 -116 Q 253 -114 265 -112 Q 277 -110 288.5 -106.5 Q 300 -103 311 -98.5 Q 322 -94 332 -87.5 Q 342 -81 351 -73.5 Q 360 -66 367.5 -56.5 Q 375 -47 380.5 -36.5 Q 386 -26 389 -14 Q 392 -2 392 10 Q 392 34 378.5 56.5 Q 365 79 344 91.5 Q 323 104 298.5 108.5 Q 274 113 249 113 Z " id="path60"/>
<path d="M 297 113 Q 279 113 261.5 109 Q 244 105 230 94.5 Q 216 84 206 69.5 Q 196 55 190 38 Q 184 21 182 3.5 Q 180 -14 180 -31 L 180 -187 L 124 -187 L 124 -257 L 180 -257 L 180 -407 L 257 -407 L 257 -257 L 369 -257 L 369 -187 L 257 -187 L 257 -31 Q 257 -20 258 -8 Q 259 4 263 15 Q 267 26 276 35 Q 285 44 297 44 Q 307 44 315.5 37.5 Q 324 31 328.5 21.5 Q 333 12 334.5 2 Q 336 -8 336 -19 L 336 -22 L 413 -22 L 413 -15 Q 413 10 406 34 Q 399 58 383.5 76.5 Q 368 95 344.5 104 Q 321 113 297 113 Z " id="path61"/>
</defs>
<g>
<g data-source-text="0" fill="#dee4e3" transform="translate(174 41.292) rotate(0) scale(0.023999998)">
<use href="#path1" transform="translate(0 0)"/>
</g>
</g>
<g>
<g data-source-text="1" fill="#dee4e3" transform="translate(246 41.292) rotate(0) scale(0.023999998)">
<use href="#path2" transform="translate(0 0)"/>
</g>
</g>
<g>
<g data-source-text="2" fill="#dee4e3" transform="translate(318 41.292) rotate(0) scale(0.023999998)">
<use href="#path3" transform="translate(0 0)"/>
</g>
</g>
<g>
<g data-source-text="3" fill="#dee4e3" transform="translate(390 41.292) rotate(0) scale(0.023999998)">
<use href="#path4" transform="translate(0 0)"/>
</g>
</g>
<g>
<g data-source-text="4" fill="#dee4e3" transform="translate(462 41.292) rotate(0) scale(0.023999998)">
<use href="#path5" transform="translate(0 0)"/>
</g>
</g>
<g>
<g data-source-text="5" fill="#dee4e3" transform="translate(534 41.292) rotate(0) scale(0.023999998)">
<use href="#path6" transform="translate(0 0)"/>
</g>
</g>
<g>
<g data-source-text="6" fill="#dee4e3" transform="translate(606 41.292) rotate(0) scale(0.023999998)">
<use href="#path7" transform="translate(0 0)"/>
</g>
</g>
<g>
<g data-source-text="7" fill="#dee4e3" transform="translate(678 41.292) rotate(0) scale(0.023999998)">
<use href="#path8" transform="translate(0 0)"/>
</g>
</g>
<g>
<g data-source-text="8" fill="#dee4e3" transform="translate(750 41.292) rotate(0) scale(0.023999998)">
<use href="#path9" transform="translate(0 0)"/>
</g>
</g>
<g>
<g data-source-text="9" fill="#dee4e3" transform="translate(822 41.292) rotate(0) scale(0.023999998)">
<use href="#path10" transform="translate(0 0)"/>
</g>
</g>
<g>
<g data-source-text="A" fill="#dee4e3" transform="translate(894 41.292) rotate(0) scale(0.023999998)">
<use href="#path11" transform="translate(0 0)"/>
</g>
</g>
<g>
<g data-source-text="B" fill="#dee4e3" transform="translate(966 41.292) rotate(0) scale(0.023999998)">
<use href="#path12" transform="translate(0 0)"/>
</g>
</g>
<g>
<g data-source-text="C" fill="#dee4e3" transform="translate(1038 41.292) rotate(0) scale(0.023999998)">
<use href="#path13" transform="translate(0 0)"/>
</g>
</g>
<g>
<g data-source-text="D" fill="#dee4e3" transform="translate(1110 41.292) rotate(0) scale(0.023999998)">
<use href="#path14" transform="translate(0 0)"/>
</g>
</g>
<g>
<g data-source-text="E" fill="#dee4e3" transform="translate(1182 41.292) rotate(0) scale(0.023999998)">
<use href="#path15" transform="translate(0 0)"/>
</g>
</g>
<g>
<g data-source-text="F" fill="#dee4e3" transform="translate(1254 41.292) rotate(0) scale(0.023999998)">
<use href="#path16" transform="translate(0 0)"/>
</g>
</g>
<g>
<g data-source-text="U+2070" fill="#dee4e3" transform="translate(36 113.292) rotate(0) scale(0.023999998)">
<use href="#path17" transform="translate(0 0)"/>
<use href="#path18" transform="translate(500 0)"/>
<use href="#path3" transform="translate(1000 0)"/>
<use href="#path1" transform="translate(1500 0)"/>
<use href="#path8" transform="translate(2000 0)"/>
<use href="#path1" transform="translate(2500 0)"/>
</g>
</g>
<g>
<g data-source-text="⁰" fill="#dee4e3" transform="translate(168 118.584) rotate(0) scale(0.047999997)">
<use href="#path19" transform="translate(0 0)"/>
</g>
</g>
<g>
<g data-source-text="ⁱ" fill="#dee4e3" transform="translate(240 118.584) rotate(0) scale(0.047999997)">
<use href="#path20" transform="translate(0 0)"/>
</g>
</g>
<g>
<g data-source-text="" fill="#dee4e340" transform="translate(312 118.584) rotate(0) scale(0.047999997)">
<use href="#path21" transform="translate(0 0)"/>
</g>
</g>
<g>
<g data-source-text="" fill="#dee4e340" transform="translate(384 118.584) rotate(0) scale(0.047999997)">
<use href="#path21" transform="translate(0 0)"/>
</g>
</g>
<g>
<g data-source-text="⁴" fill="#dee4e3" transform="translate(456 118.584) rotate(0) scale(0.047999997)">
<use href="#path22" transform="translate(0 0)"/>
</g>
</g>
<g>
<g data-source-text="⁵" fill="#dee4e3" transform="translate(528 118.584) rotate(0) scale(0.047999997)">
<use href="#path23" transform="translate(0 0)"/>
</g>
</g>
<g>
<g data-source-text="⁶" fill="#dee4e3" transform="translate(600 118.584) rotate(0) scale(0.047999997)">
<use href="#path24" transform="translate(0 0)"/>
</g>
</g>
<g>
<g data-source-text="⁷" fill="#dee4e3" transform="translate(672 118.584) rotate(0) scale(0.047999997)">
<use href="#path25" transform="translate(0 0)"/>
</g>
</g>
<g>
<g data-source-text="⁸" fill="#dee4e3" transform="translate(744 118.584) rotate(0) scale(0.047999997)">
<use href="#path26" transform="translate(0 0)"/>
</g>
</g>
<g>
<g data-source-text="⁹" fill="#dee4e3" transform="translate(816 118.584) rotate(0) scale(0.047999997)">
<use href="#path27" transform="translate(0 0)"/>
</g>
</g>
<g>
<g data-source-text="⁺" fill="#dee4e3" transform="translate(888 118.584) rotate(0) scale(0.047999997)">
<use href="#path28" transform="translate(0 0)"/>
</g>
</g>
<g>
<g data-source-text="⁻" fill="#dee4e3" transform="translate(960 118.584) rotate(0) scale(0.047999997)">
<use href="#path29" transform="translate(0 0)"/>
</g>
</g>
<g>
<g data-source-text="⁼" fill="#dee4e3" transform="translate(1032 118.584) rotate(0) scale(0.047999997)">
<use href="#path30" transform="translate(0 0)"/>
</g>
</g>
<g>
<g data-source-text="⁽" fill="#dee4e3" transform="translate(1104 118.584) rotate(0) scale(0.047999997)">
<use href="#path31" transform="translate(0 0)"/>
</g>
</g>
<g>
<g data-source-text="⁾" fill="#dee4e3" transform="translate(1176 118.584) rotate(0) scale(0.047999997)">
<use href="#path32" transform="translate(0 0)"/>
</g>
</g>
<g>
<g data-source-text="ⁿ" fill="#dee4e3" transform="translate(1248 118.584) rotate(0) scale(0.047999997)">
<use href="#path33" transform="translate(0 0)"/>
</g>
</g>
<g>
<g data-source-text="U+2080" fill="#dee4e3" transform="translate(36 185.292) rotate(0) scale(0.023999998)">
<use href="#path17" transform="translate(0 0)"/>
<use href="#path18" transform="translate(500 0)"/>
<use href="#path3" transform="translate(1000 0)"/>
<use href="#path1" transform="translate(1500 0)"/>
<use href="#path9" transform="translate(2000 0)"/>
<use href="#path1" transform="translate(2500 0)"/>
</g>
</g>
<g>
<g data-source-text="₀" fill="#dee4e3" transform="translate(168 190.584) rotate(0) scale(0.047999997)">
<use href="#path34" transform="translate(0 0)"/>
</g>
</g>
<g>
<g data-source-text="₁" fill="#dee4e3" transform="translate(240 190.584) rotate(0) scale(0.047999997)">
<use href="#path35" transform="translate(0 0)"/>
</g>
</g>
<g>
<g data-source-text="₂" fill="#dee4e3" transform="translate(312 190.584) rotate(0) scale(0.047999997)">
<use href="#path36" transform="translate(0 0)"/>
</g>
</g>
<g>
<g data-source-text="₃" fill="#dee4e3" transform="translate(384 190.584) rotate(0) scale(0.047999997)">
<use href="#path37" transform="translate(0 0)"/>
</g>
</g>
<g>
<g data-source-text="₄" fill="#dee4e3" transform="translate(456 190.584) rotate(0) scale(0.047999997)">
<use href="#path38" transform="translate(0 0)"/>
</g>
</g>
<g>
<g data-source-text="₅" fill="#dee4e3" transform="translate(528 190.584) rotate(0) scale(0.047999997)">
<use href="#path39" transform="translate(0 0)"/>
</g>
</g>
<g>
<g data-source-text="₆" fill="#dee4e3" transform="translate(600 190.584) rotate(0) scale(0.047999997)">
<use href="#path40" transform="translate(0 0)"/>
</g>
</g>
<g>
<g data-source-text="₇" fill="#dee4e3" transform="translate(672 190.584) rotate(0) scale(0.047999997)">
<use href="#path41" transform="translate(0 0)"/>
</g>
</g>
<g>
<g data-source-text="₈" fill="#dee4e3" transform="translate(744 190.584) rotate(0) scale(0.047999997)">
<use href="#path42" transform="translate(0 0)"/>
</g>
</g>
<g>
<g data-source-text="₉" fill="#dee4e3" transform="translate(816 190.584) rotate(0) scale(0.047999997)">
<use href="#path43" transform="translate(0 0)"/>
</g>
</g>
<g>
<g data-source-text="₊" fill="#dee4e3" transform="translate(888 190.584) rotate(0) scale(0.047999997)">
<use href="#path44" transform="translate(0 0)"/>
</g>
</g>
<g>
<g data-source-text="₋" fill="#dee4e3" transform="translate(960 190.584) rotate(0) scale(0.047999997)">
<use href="#path45" transform="translate(0 0)"/>
</g>
</g>
<g>
<g data-source-text="₌" fill="#dee4e3" transform="translate(1032 190.584) rotate(0) scale(0.047999997)">
<use href="#path46" transform="translate(0 0)"/>
</g>
</g>
<g>
<g data-source-text="₍" fill="#dee4e3" transform="translate(1104 190.584) rotate(0) scale(0.047999997)">
<use href="#path47" transform="translate(0 0)"/>
</g>
</g>
<g>
<g data-source-text="₎" fill="#dee4e3" transform="translate(1176 190.584) rotate(0) scale(0.047999997)">
<use href="#path48" transform="translate(0 0)"/>
</g>
</g>
<g>
<g data-source-text="" fill="#dee4e340" transform="translate(1248 190.584) rotate(0) scale(0.047999997)">
<use href="#path21" transform="translate(0 0)"/>
</g>
</g>
<g>
<g data-source-text="U+2090" fill="#dee4e3" transform="translate(36 257.292) rotate(0) scale(0.023999998)">
<use href="#path17" transform="translate(0 0)"/>
<use href="#path18" transform="translate(500 0)"/>
<use href="#path3" transform="translate(1000 0)"/>
<use href="#path1" transform="translate(1500 0)"/>
<use href="#path10" transform="translate(2000 0)"/>
<use href="#path1" transform="translate(2500 0)"/>
</g>
</g>
<g>
<g data-source-text="ₐ" fill="#dee4e3" transform="translate(168 262.584) rotate(0) scale(0.047999997)">
<use href="#path49" transform="translate(0 0)"/>
</g>
</g>
<g>
<g data-source-text="ₑ" fill="#dee4e3" transform="translate(240 262.584) rotate(0) scale(0.047999997)">
<use href="#path50" transform="translate(0 0)"/>
</g>
</g>
<g>
<g data-source-text="ₒ" fill="#dee4e3" transform="translate(312 262.584) rotate(0) scale(0.047999997)">
<use href="#path51" transform="translate(0 0)"/>
</g>
</g>
<g>
<g data-source-text="ₓ" fill="#dee4e3" transform="translate(384 262.584) rotate(0) scale(0.047999997)">
<use href="#path52" transform="translate(0 0)"/>
</g>
</g>
<g>
<g data-source-text="ₔ" fill="#dee4e3" transform="translate(456 262.584) rotate(0) scale(0.047999997)">
<use href="#path53" transform="translate(0 0)"/>
</g>
</g>
<g>
<g data-source-text="ₕ" fill="#dee4e3" transform="translate(528 262.584) rotate(0) scale(0.047999997)">
<use href="#path54" transform="translate(0 0)"/>
</g>
</g>
<g>
<g data-source-text="ₖ" fill="#dee4e3" transform="translate(600 262.584) rotate(0) scale(0.047999997)">
<use href="#path55" transform="translate(0 0)"/>
</g>
</g>
<g>
<g data-source-text="ₗ" fill="#dee4e3" transform="translate(672 262.584) rotate(0) scale(0.047999997)">
<use href="#path56" transform="translate(0 0)"/>
</g>
</g>
<g>
<g data-source-text="ₘ" fill="#dee4e3" transform="translate(744 262.584) rotate(0) scale(0.047999997)">
<use href="#path57" transform="translate(0 0)"/>
</g>
</g>
<g>
<g data-source-text="ₙ" fill="#dee4e3" transform="translate(816 262.584) rotate(0) scale(0.047999997)">
<use href="#path58" transform="translate(0 0)"/>
</g>
</g>
<g>
<g data-source-text="ₚ" fill="#dee4e3" transform="translate(888 262.584) rotate(0) scale(0.047999997)">
<use href="#path59" transform="translate(0 0)"/>
</g>
</g>
<g>
<g data-source-text="ₛ" fill="#dee4e3" transform="translate(960 262.584) rotate(0) scale(0.047999997)">
<use href="#path60" transform="translate(0 0)"/>
</g>
</g>
<g>
<g data-source-text="ₜ" fill="#dee4e3" transform="translate(1032 262.584) rotate(0) scale(0.047999997)">
<use href="#path61" transform="translate(0 0)"/>
</g>
</g>
<g>
<g data-source-text="" fill="#dee4e340" transform="translate(1104 262.584) rotate(0) scale(0.047999997)">
<use href="#path21" transform="translate(0 0)"/>
</g>
</g>
<g>
<g data-source-text="" fill="#dee4e340" transform="translate(1176 262.584) rotate(0) scale(0.047999997)">
<use href="#path21" transform="translate(0 0)"/>
</g>
</g>
<g>
<g data-source-text="" fill="#dee4e340" transform="translate(1248 262.584) rotate(0) scale(0.047999997)">
<use href="#path21" transform="translate(0 0)"/>
</g>
</g>
</svg>