<?xml version="1.0" encoding="UTF-8" standalone="no"?>
<svg height="936" viewBox="0 0 1296 936" width="1296" xmlns="http://www.w3.org/2000/svg">
<defs>
<path d="M 250 8 Q 223 8 196 3 Q 169 -2 145 -15 Q 121 -28 102.5 -48.5 Q 84 -69 72.5 -94 Q 61 -119 56.5 -146 Q 52 -173 52 -200 L 52 -535 Q 52 -562 56.5 -589 Q 61 -616 72.5 -641 Q 84 -666 102.5 -686.5 Q 121 -707 145 -720 Q 169 -733 196 -738 Q 223 -743 250 -743 Q 277 -743 304 -738 Q 331 -733 355 -720 Q 379 -707 397.5 -686.5 Q 416 -666 427.5 -641 Q 439 -616 443.5 -589 Q 448 -562 448 -535 L 448 -200 Q 448 -173 443.5 -146 Q 439 -119 427.5 -94 Q 416 -69 397.5 -48.5 Q 379 -28 355 -15 Q 331 -2 304 3 Q 277 8 250 8 Z M 152 -338 L 348 -493 L 348 -535 Q 348 -557 343 -579 Q 338 -601 325.5 -618.5 Q 313 -636 292.5 -645.5 Q 272 -655 250 -655 Q 228 -655 207.5 -645.5 Q 187 -636 174.5 -618.5 Q 162 -601 157 -579 Q 152 -557 152 -535 Z M 250 -80 Q 272 -80 292.5 -89.5 Q 313 -99 325.5 -116.5 Q 338 -134 343 -156 Q 348 -178 348 -200 L 348 -397 L 152 -242 L 152 -200 Q 152 -178 157 -156 Q 162 -134 174.5 -116.5 Q 187 -99 207.5 -89.5 Q 228 -80 250 -80 Z " id="path1"/>
<path d="M 230 0 L 230 -632 L 110 -528 L 55 -584 L 230 -735 L 330 -735 L 330 0 Z " id="path2"/>
<path d="M 60 0 L 60 -1 Q 60 -27 61 -54 Q 62 -81 65.5 -107 Q 69 -133 77 -158.5 Q 85 -184 96.5 -208 Q 108 -232 123 -253.5 Q 138 -275 156 -294.5 Q 174 -314 194 -331 Q 214 -348 235.5 -364 Q 257 -380 277.5 -397 Q 298 -414 313 -435.5 Q 328 -457 336 -483 Q 344 -509 344 -535 Q 344 -557 339.5 -578 Q 335 -599 323.5 -617 Q 312 -635 292 -645 Q 272 -655 251 -655 Q 231 -655 212.5 -647.5 Q 194 -640 181.5 -625 Q 169 -610 163.5 -591 Q 158 -572 158 -552 L 158 -548 L 58 -548 L 58 -555 Q 58 -581 63.5 -606 Q 69 -631 81 -653 Q 93 -675 111.5 -693 Q 130 -711 152.5 -722.5 Q 175 -734 200.5 -738.5 Q 226 -743 251 -743 Q 278 -743 304.5 -737.5 Q 331 -732 354.5 -719 Q 378 -706 396 -685.5 Q 414 -665 425 -640.5 Q 436 -616 440 -589 Q 444 -562 444 -535 Q 444 -501 435 -468 Q 426 -435 407.5 -406 Q 389 -377 364 -353.5 Q 339 -330 312.5 -308.5 Q 286 -287 261 -264 Q 236 -241 216 -213 Q 196 -185 183 -153.5 Q 170 -122 165 -88 L 440 -88 L 440 0 Z " id="path3"/>
<path d="M 253 8 Q 227 8 201 4 Q 175 -0 151 -11.5 Q 127 -23 107.5 -40.5 Q 88 -58 75.5 -81 Q 63 -104 56.5 -129.5 Q 50 -155 50 -181 L 50 -187 L 150 -187 L 150 -184 Q 150 -163 157 -143 Q 164 -123 178 -108 Q 192 -93 212 -86.5 Q 232 -80 253 -80 Q 275 -80 296 -88.5 Q 317 -97 330.5 -114.5 Q 344 -132 350 -154 Q 356 -176 356 -198 Q 356 -217 352 -235.5 Q 348 -254 339 -271 Q 330 -288 316.5 -301 Q 303 -314 286 -322 Q 269 -330 250 -332 Q 231 -334 212 -334 L 212 -422 Q 229 -422 246 -424 Q 263 -426 278.5 -433 Q 294 -440 306 -452.5 Q 318 -465 325.5 -480.5 Q 333 -496 336.5 -513 Q 340 -530 340 -547 Q 340 -566 335.5 -585.5 Q 331 -605 320 -621.5 Q 309 -638 291 -646.5 Q 273 -655 253 -655 Q 234 -655 216 -647 Q 198 -639 187 -624 Q 176 -609 171 -590 Q 166 -571 166 -553 L 166 -548 L 66 -548 L 66 -556 Q 66 -581 71.5 -605.5 Q 77 -630 88 -652 Q 99 -674 116.5 -692.5 Q 134 -711 156.5 -722.5 Q 179 -734 203.5 -738.5 Q 228 -743 253 -743 Q 278 -743 303.5 -738 Q 329 -733 351 -721 Q 373 -709 390.5 -690 Q 408 -671 419 -648 Q 430 -625 435 -600 Q 440 -575 440 -550 Q 440 -524 434 -498.5 Q 428 -473 416 -450.5 Q 404 -428 385 -409.5 Q 366 -391 343 -379 Q 370 -368 391.5 -348.5 Q 413 -329 427.5 -304.5 Q 442 -280 449 -252 Q 456 -224 456 -196 Q 456 -168 450 -141.5 Q 444 -115 432 -91 Q 420 -67 401 -47 Q 382 -27 358 -14.5 Q 334 -2 307 3 Q 280 8 253 8 Z " id="path4"/>
<path d="M 282 0 L 282 -188 L 52 -188 L 52 -275 L 276 -735 L 377 -735 L 152 -275 L 282 -275 L 282 -435 L 383 -435 L 383 -275 L 440 -275 L 440 -188 L 383 -188 L 383 0 Z " id="path5"/>
<path d="M 252 8 Q 227 8 202.5 3.5 Q 178 -1 155.5 -12 Q 133 -23 114.5 -41 Q 96 -59 84 -80.5 Q 72 -102 65.5 -126.5 Q 59 -151 58 -176 L 159 -176 Q 160 -158 166.5 -139.5 Q 173 -121 185.5 -107 Q 198 -93 216 -86.5 Q 234 -80 252 -80 Q 269 -80 285 -87 Q 301 -94 312.5 -107 Q 324 -120 330.5 -135.5 Q 337 -151 341 -167.5 Q 345 -184 346.5 -201 Q 348 -218 348 -235 Q 348 -252 346.5 -269 Q 345 -286 341.5 -302.5 Q 338 -319 331.5 -334.5 Q 325 -350 314.5 -363 Q 304 -376 288 -383.5 Q 272 -391 256 -391 Q 240 -391 224 -387 Q 208 -383 195.5 -373.5 Q 183 -364 176 -349.5 Q 169 -335 168 -319 L 68 -319 L 68 -735 L 421 -735 L 421 -647 L 168 -647 L 168 -464 Q 189 -472 211 -475 Q 233 -478 256 -478 Q 285 -478 313.5 -470.5 Q 342 -463 365.5 -445.5 Q 389 -428 405.5 -403 Q 422 -378 431.5 -350.5 Q 441 -323 444.5 -294 Q 448 -265 448 -235 Q 448 -206 444.5 -176.5 Q 441 -147 431 -119 Q 421 -91 404.5 -66.5 Q 388 -42 364 -24.5 Q 340 -7 311 0.5 Q 282 8 252 8 Z " id="path6"/>
<path d="M 250 8 Q 221 8 192.5 1.5 Q 164 -5 140 -21 Q 116 -37 98.5 -60.5 Q 81 -84 70.5 -111 Q 60 -138 56 -166.5 Q 52 -195 52 -224 Q 52 -268 59.5 -311 Q 67 -354 81 -395.5 Q 95 -437 113 -477 Q 131 -517 150 -556 L 238 -735 L 347 -735 L 240 -517 Q 228 -492 216 -467 Q 204 -442 194 -416 Q 212 -436 238.5 -446 Q 265 -456 292 -456 Q 318 -456 343.5 -447 Q 369 -438 387.5 -419.5 Q 406 -401 418 -377 Q 430 -353 436.5 -328 Q 443 -303 445.5 -276.5 Q 448 -250 448 -224 Q 448 -195 444 -166.5 Q 440 -138 429.5 -111 Q 419 -84 401.5 -60.5 Q 384 -37 360 -21 Q 336 -5 307.5 1.5 Q 279 8 250 8 Z M 250 -80 Q 266 -80 282 -85.5 Q 298 -91 309.5 -102.5 Q 321 -114 328.5 -129 Q 336 -144 340.5 -159.5 Q 345 -175 346.5 -191.5 Q 348 -208 348 -224 Q 348 -240 346.5 -256.5 Q 345 -273 340.5 -289 Q 336 -305 328.5 -319.5 Q 321 -334 309.5 -345.5 Q 298 -357 282 -362.5 Q 266 -368 250 -368 Q 235 -368 221 -363.5 Q 207 -359 195.5 -349.5 Q 184 -340 176 -327.5 Q 168 -315 163.5 -301 Q 159 -287 156.5 -272.5 Q 154 -258 153 -243 Q 153 -238 152.5 -233.5 Q 152 -229 152 -224 Q 152 -208 153.5 -191.5 Q 155 -175 159.5 -159.5 Q 164 -144 171.5 -129 Q 179 -114 190.5 -102.5 Q 202 -91 218 -85.5 Q 234 -80 250 -80 Z " id="path7"/>
<path d="M 138 0 L 336 -647 L 60 -647 L 60 -735 L 440 -735 L 440 -647 L 242 0 Z " id="path8"/>
<path d="M 250 8 Q 225 8 200 4 Q 175 -0 152 -10 Q 129 -20 109.5 -37 Q 90 -54 77.5 -75.5 Q 65 -97 58.5 -121.5 Q 52 -146 52 -172 Q 52 -203 61.5 -232.5 Q 71 -262 88 -288.5 Q 105 -315 127 -336.5 Q 149 -358 174 -378 Q 152 -396 132.5 -417 Q 113 -438 98.5 -462.5 Q 84 -487 76 -514.5 Q 68 -542 68 -570 Q 68 -594 73.5 -617.5 Q 79 -641 90.5 -661.5 Q 102 -682 119.5 -698.5 Q 137 -715 158 -725 Q 179 -735 202.5 -739 Q 226 -743 250 -743 Q 274 -743 297.5 -739 Q 321 -735 342 -725 Q 363 -715 380.5 -698.5 Q 398 -682 409.5 -661.5 Q 421 -641 426.5 -617.5 Q 432 -594 432 -570 Q 432 -542 424 -514.5 Q 416 -487 401.5 -462.5 Q 387 -438 367.5 -417 Q 348 -396 326 -378 Q 351 -358 373 -336.5 Q 395 -315 412 -288.5 Q 429 -262 438.5 -232.5 Q 448 -203 448 -172 Q 448 -146 441.5 -121.5 Q 435 -97 422.5 -75.5 Q 410 -54 390.5 -37 Q 371 -20 348 -10 Q 325 -0 300 4 Q 275 8 250 8 Z M 250 -434 Q 266 -447 280.5 -461.5 Q 295 -476 306.5 -493 Q 318 -510 325 -529.5 Q 332 -549 332 -569 Q 332 -586 327 -602.5 Q 322 -619 310.5 -631.5 Q 299 -644 283 -649.5 Q 267 -655 250 -655 Q 233 -655 217 -649.5 Q 201 -644 189.5 -631.5 Q 178 -619 173 -602.5 Q 168 -586 168 -569 Q 168 -549 175 -529.5 Q 182 -510 193.5 -493 Q 205 -476 219.5 -461.5 Q 234 -447 250 -434 Z M 250 -80 Q 269 -80 288 -85.5 Q 307 -91 320.5 -104 Q 334 -117 341 -135.5 Q 348 -154 348 -173 Q 348 -196 339.5 -217.5 Q 331 -239 317 -257.5 Q 303 -276 285.5 -291 Q 268 -306 250 -320 Q 232 -306 214.5 -291 Q 197 -276 183 -257.5 Q 169 -239 160.5 -217.5 Q 152 -196 152 -173 Q 152 -154 159 -135.5 Q 166 -117 179.5 -104 Q 193 -91 212 -85.5 Q 231 -80 250 -80 Z " id="path9"/>
<path d="M 262 0 L 153 0 L 260 -218 Q 272 -243 284 -268 Q 296 -293 306 -319 Q 288 -299 261.5 -289 Q 235 -279 208 -279 Q 182 -279 156.5 -288 Q 131 -297 112.5 -315.5 Q 94 -334 82 -358 Q 70 -382 63.5 -407 Q 57 -432 54.5 -458.5 Q 52 -485 52 -511 Q 52 -540 56 -568.5 Q 60 -597 70.5 -624 Q 81 -651 98.5 -674.5 Q 116 -698 140 -714 Q 164 -730 192.5 -736.5 Q 221 -743 250 -743 Q 279 -743 307.5 -736.5 Q 336 -730 360 -714 Q 384 -698 401.5 -674.5 Q 419 -651 429.5 -624 Q 440 -597 444 -568.5 Q 448 -540 448 -511 Q 448 -467 440.5 -424 Q 433 -381 419 -339.5 Q 405 -298 387 -258 Q 369 -218 350 -179 Z M 250 -367 Q 265 -367 279 -371.5 Q 293 -376 304.5 -385.5 Q 316 -395 324 -407.5 Q 332 -420 336.5 -434 Q 341 -448 343.5 -462.5 Q 346 -477 347 -492 Q 347 -497 347.5 -501.5 Q 348 -506 348 -511 Q 348 -527 346.5 -543.5 Q 345 -560 340.5 -575.5 Q 336 -591 328.5 -606 Q 321 -621 309.5 -632.5 Q 298 -644 282 -649.5 Q 266 -655 250 -655 Q 234 -655 218 -649.5 Q 202 -644 190.5 -632.5 Q 179 -621 171.5 -606 Q 164 -591 159.5 -575.5 Q 155 -560 153.5 -543.5 Q 152 -527 152 -511 Q 152 -495 153.5 -478.5 Q 155 -462 159.5 -446 Q 164 -430 171.5 -415.5 Q 179 -401 190.5 -389.5 Q 202 -378 218 -372.5 Q 234 -367 250 -367 Z " id="path10"/>
<path d="M 39 0 L 53 -70 L 192 -735 L 308 -735 L 461 0 L 359 0 L 326 -172 L 174 -172 L 141 0 Z M 310 -260 L 267 -490 Q 263 -513 258.5 -536 Q 254 -559 250 -582 Q 246 -559 241.5 -536 Q 237 -513 233 -490 L 190 -260 Z " id="path11"/>
<path d="M 60 0 L 60 -735 L 235 -735 Q 261 -735 287 -730.5 Q 313 -726 336.5 -714 Q 360 -702 378.5 -682.5 Q 397 -663 408.5 -639.5 Q 420 -616 424.5 -590 Q 429 -564 429 -538 Q 429 -515 425.5 -492 Q 422 -469 411.5 -448.5 Q 401 -428 384.5 -411 Q 368 -394 348 -383 Q 373 -373 394.5 -355.5 Q 416 -338 430.5 -314.5 Q 445 -291 450.5 -264 Q 456 -237 456 -210 Q 456 -181 450.5 -152.5 Q 445 -124 431 -98.5 Q 417 -73 395.5 -53.5 Q 374 -34 347.5 -21.5 Q 321 -9 292.5 -4.5 Q 264 -0 235 0 Z M 160 -424 L 235 -424 Q 256 -424 275.5 -432.5 Q 295 -441 307.5 -457.5 Q 320 -474 324.5 -494.5 Q 329 -515 329 -536 Q 329 -557 324.5 -577.5 Q 320 -598 307.5 -614.5 Q 295 -631 275.5 -639 Q 256 -647 235 -647 L 160 -647 Z M 160 -88 L 235 -88 Q 251 -88 267.5 -91 Q 284 -94 298.5 -101.5 Q 313 -109 324.5 -121 Q 336 -133 343 -148 Q 350 -163 353 -179 Q 356 -195 356 -212 Q 356 -228 353 -244.5 Q 350 -261 343 -276 Q 336 -291 324.5 -303 Q 313 -315 298.5 -322.5 Q 284 -330 267.5 -333 Q 251 -336 235 -336 L 160 -336 Z " id="path12"/>
<path d="M 247 8 Q 220 8 193 3 Q 166 -2 142.5 -15.5 Q 119 -29 101 -49.5 Q 83 -70 71.5 -94.5 Q 60 -119 56 -146 Q 52 -173 52 -200 L 52 -535 Q 52 -562 56 -589 Q 60 -616 71.5 -640.5 Q 83 -665 101 -685.5 Q 119 -706 142.5 -719.5 Q 166 -733 193 -738 Q 220 -743 247 -743 Q 273 -743 298 -738.5 Q 323 -734 346 -723 Q 369 -712 387.5 -694 Q 406 -676 418 -653.5 Q 430 -631 436 -606 Q 442 -581 442 -555 L 442 -548 L 342 -548 L 342 -552 Q 342 -572 336 -591.5 Q 330 -611 317.5 -626 Q 305 -641 286 -648 Q 267 -655 247 -655 Q 225 -655 205 -645.5 Q 185 -636 173 -618 Q 161 -600 156.5 -578.5 Q 152 -557 152 -535 L 152 -200 Q 152 -178 156.5 -156.5 Q 161 -135 173 -117 Q 185 -99 205 -89.5 Q 225 -80 247 -80 Q 267 -80 286 -87 Q 305 -94 317.5 -109 Q 330 -124 336 -143.5 Q 342 -163 342 -183 L 342 -187 L 442 -187 L 442 -180 Q 442 -154 436 -129 Q 430 -104 418 -81.5 Q 406 -59 387.5 -41 Q 369 -23 346 -12 Q 323 -1 298 3.5 Q 273 8 247 8 Z " id="path13"/>
<path d="M 60 0 L 60 -735 L 220 -735 Q 250 -735 280.5 -730.5 Q 311 -726 339 -713.5 Q 367 -701 390.5 -680 Q 414 -659 429 -632.5 Q 444 -606 450 -575.5 Q 456 -545 456 -515 L 456 -220 Q 456 -190 450 -159.5 Q 444 -129 429 -102.5 Q 414 -76 390.5 -55 Q 367 -34 339 -21.5 Q 311 -9 280.5 -4.5 Q 250 -0 220 0 Z M 160 -88 L 220 -88 Q 238 -88 256 -91 Q 274 -94 290 -101.5 Q 306 -109 319 -122 Q 332 -135 340.5 -151 Q 349 -167 352.5 -184.5 Q 356 -202 356 -220 L 356 -515 Q 356 -533 352.5 -550.5 Q 349 -568 340.5 -584 Q 332 -600 319 -613 Q 306 -626 290 -633.5 Q 274 -641 256 -644 Q 238 -647 220 -647 L 160 -647 Z " id="path14"/>
<path d="M 68 0 L 68 -735 L 440 -735 L 440 -647 L 168 -647 L 168 -426 L 383 -426 L 383 -338 L 168 -338 L 168 -88 L 440 -88 L 440 0 Z " id="path15"/>
<path d="M 90 0 L 90 -735 L 440 -735 L 440 -647 L 190 -647 L 190 -426 L 383 -426 L 383 -338 L 190 -338 L 190 0 Z " id="path16"/>
<path d="M 250 8 Q 223 8 196.5 2.5 Q 170 -3 147 -16.5 Q 124 -30 106.5 -50.5 Q 89 -71 78.5 -95.5 Q 68 -120 64 -146.5 Q 60 -173 60 -200 L 60 -735 L 160 -735 L 160 -200 Q 160 -186 161.5 -172 Q 163 -158 167.5 -144.5 Q 172 -131 179.5 -118.5 Q 187 -106 197.5 -97 Q 208 -88 222 -84 Q 236 -80 250 -80 Q 264 -80 278 -84 Q 292 -88 302.5 -97 Q 313 -106 320.5 -118.5 Q 328 -131 332.5 -144.5 Q 337 -158 338.5 -172 Q 340 -186 340 -200 L 340 -735 L 440 -735 L 440 -200 Q 440 -173 436 -146.5 Q 432 -120 421.5 -95.5 Q 411 -71 393.5 -50.5 Q 376 -30 353 -16.5 Q 330 -3 303.5 2.5 Q 277 8 250 8 Z " id="path17"/>
<path d="M 296 -142 L 204 -142 L 204 -300 L 60 -300 L 60 -380 L 204 -380 L 204 -538 L 296 -538 L 296 -380 L 440 -380 L 440 -300 L 296 -300 Z " id="path18"/>
<path d="M 64 0 L 64 -735 L 436 -735 L 436 0 Z M 104 -333 L 394 -695 L 300 -695 L 104 -450 Z M 104 -489 L 269 -695 L 175 -695 L 104 -606 Z M 104 -645 L 144 -695 L 104 -695 Z M 104 -176 L 396 -543 L 396 -660 L 104 -294 Z M 104 -40 L 119 -40 L 396 -386 L 396 -504 L 104 -137 Z M 150 -40 L 244 -40 L 396 -230 L 396 -347 Z M 275 -40 L 369 -40 L 396 -74 L 396 -191 Z " id="path19"/>
<path d="M 415 -74 Q 372 -147 315 -209.5 Q 258 -272 190 -321 L 220 -358 Q 284 -309 339 -249.5 Q 394 -190 438 -122 Q 501 -253 587 -372 Q 673 -491 777 -593 L 813 -559 Q 704 -456 616.5 -333.5 Q 529 -211 467 -74 Z " id="path20"/>
<path d="M 365 -74 Q 326 -149 273 -214.5 Q 220 -280 155 -334 L 255 -435 Q 307 -387 352.5 -332.5 Q 398 -278 436 -219 Q 498 -331 575 -433 Q 652 -535 743 -625 L 848 -527 Q 744 -431 660 -316.5 Q 576 -202 517 -74 Z " id="path21"/>
<path d="M 223 -29 L 187 -61 L 466 -340 L 187 -619 L 223 -651 L 500 -374 L 777 -651 L 813 -619 L 534 -340 L 813 -61 L 777 -29 L 500 -306 Z " id="path22"/>
<path d="M 258 3 L 151 -93 L 398 -340 L 151 -587 L 258 -683 L 500 -442 L 742 -683 L 849 -587 L 602 -340 L 849 -93 L 742 3 L 500 -238 Z " id="path23"/>
<path d="M 196 -16 L 155 -44 Q 219 -127 288.5 -204.5 Q 358 -282 434 -355 Q 370 -413 308.5 -473.5 Q 247 -534 187 -595 L 223 -628 Q 283 -566 344.5 -506.5 Q 406 -447 469 -388 Q 549 -463 634.5 -531 Q 720 -599 810 -660 L 839 -622 Q 750 -562 666.5 -495 Q 583 -428 505 -355 Q 579 -287 656 -221.5 Q 733 -156 811 -92 L 779 -56 Q 700 -120 622.5 -186.5 Q 545 -253 469 -322 Q 395 -251 326.5 -174 Q 258 -97 196 -16 Z " id="path24"/>
<path d="M 235 11 L 115 -72 Q 173 -146 235.5 -217 Q 298 -288 365 -354 Q 310 -405 256.5 -457.5 Q 203 -510 151 -564 L 259 -659 Q 310 -606 362.5 -554.5 Q 415 -503 469 -453 Q 543 -519 621.5 -580.5 Q 700 -642 782 -697 L 867 -585 Q 790 -532 717 -475 Q 644 -418 575 -356 Q 640 -297 707 -240 Q 774 -183 843 -127 L 748 -21 Q 677 -78 607.5 -137 Q 538 -196 471 -257 Q 408 -194 349 -126.5 Q 290 -59 235 11 Z " id="path25"/>
<path d="M 424 -19 L 424 -272 L 179 -272 L 179 -408 L 424 -408 L 424 -661 L 576 -661 L 576 -408 L 821 -408 L 821 -272 L 576 -272 L 576 -19 Z " id="path26"/>
<path d="M 459 62 L 459 -437 L 232 -437 L 232 -511 L 459 -511 L 459 -742 L 541 -742 L 541 -511 L 768 -511 L 768 -437 L 541 -437 L 541 62 Z " id="path27"/>
<path d="M 500 88 L 370 -126 L 110 -126 L 240 -340 L 110 -554 L 370 -554 L 500 -768 L 630 -554 L 890 -554 L 760 -340 L 890 -126 L 630 -126 Z M 560 -554 L 500 -653 L 440 -554 Z M 725 -397 L 784 -495 L 666 -495 Z M 596 -185 L 690 -340 L 596 -495 L 404 -495 L 310 -340 L 404 -185 Z M 275 -397 L 334 -495 L 216 -495 Z M 784 -185 L 725 -283 L 666 -185 Z M 334 -185 L 275 -283 L 216 -185 Z M 500 -27 L 560 -126 L 440 -126 Z " id="path28"/>
<path d="M 500 13 Q 479 -48 444 -103 Q 409 -158 363.5 -203.5 Q 318 -249 263 -284 Q 208 -319 147 -340 Q 208 -361 263 -396 Q 318 -431 363.5 -476.5 Q 409 -522 444 -577 Q 479 -632 500 -693 Q 521 -632 556 -577 Q 591 -522 636.5 -476.5 Q 682 -431 737 -396 Q 792 -361 853 -340 Q 792 -319 737 -284 Q 682 -249 636.5 -203.5 Q 591 -158 556 -103 Q 521 -48 500 13 Z " id="path29"/>
<path d="M 500 13 Q 479 -48 444 -103 Q 409 -158 363.5 -203.5 Q 318 -249 263 -284 Q 208 -319 147 -340 Q 208 -361 263 -396 Q 318 -431 363.5 -476.5 Q 409 -522 444 -577 Q 479 -632 500 -693 Q 521 -632 556 -577 Q 591 -522 636.5 -476.5 Q 682 -431 737 -396 Q 792 -361 853 -340 Q 792 -319 737 -284 Q 682 -249 636.5 -203.5 Q 591 -158 556 -103 Q 521 -48 500 13 Z M 500 -144 Q 512 -178 531 -208.5 Q 550 -239 575.5 -264.5 Q 601 -290 631.5 -309 Q 662 -328 696 -340 Q 662 -352 631.5 -371 Q 601 -390 575.5 -415.5 Q 550 -441 531 -471.5 Q 512 -502 500 -536 Q 488 -502 469 -471.5 Q 450 -441 424.5 -415.5 Q 399 -390 368.5 -371 Q 338 -352 304 -340 Q 338 -328 368.5 -309 Q 399 -290 424.5 -264.5 Q 450 -239 469 -208.5 Q 488 -178 500 -144 Z " id="path30"/>
<path d="M 424 -19 L 429 -223 L 260 -120 L 184 -238 L 369 -340 L 184 -442 L 260 -560 L 429 -457 L 424 -661 L 576 -661 L 571 -457 L 740 -560 L 816 -442 L 631 -340 L 816 -238 L 740 -120 L 571 -223 L 576 -19 Z " id="path31"/>
<path d="M 467 -19 L 474 -278 L 296 -92 L 249 -134 L 441 -316 L 179 -310 L 179 -370 L 441 -364 L 249 -546 L 296 -588 L 474 -402 L 467 -661 L 533 -661 L 526 -402 L 704 -588 L 751 -546 L 559 -364 L 821 -370 L 821 -310 L 559 -316 L 751 -134 L 704 -92 L 526 -278 L 533 -19 Z " id="path32"/>
<path d="M 500 29 L 465 -255 L 239 -79 L 415 -305 L 131 -340 L 415 -375 L 239 -601 L 465 -425 L 500 -709 L 535 -425 L 761 -601 L 585 -375 L 869 -340 L 585 -305 L 761 -79 L 535 -255 Z " id="path33"/>
<path d="M 500 -3 L 433 -223 L 208 -171 L 365 -340 L 208 -509 L 433 -457 L 500 -677 L 567 -457 L 792 -509 L 635 -340 L 792 -171 L 567 -223 Z " id="path34"/>
<path d="M 371 -28 L 405 -245 L 188 -211 L 365 -340 L 188 -469 L 405 -435 L 371 -652 L 500 -475 L 629 -652 L 595 -435 L 812 -469 L 635 -340 L 812 -211 L 595 -245 L 629 -28 L 500 -205 Z " id="path35"/>
<path d="M 371 -28 L 381 -221 L 188 -211 L 331 -340 L 188 -469 L 381 -459 L 371 -652 L 500 -509 L 629 -652 L 619 -459 L 812 -469 L 669 -340 L 812 -211 L 619 -221 L 629 -28 L 500 -171 Z " id="path36"/>
<path d="M 500 -3 L 456 -177 L 331 -48 L 381 -221 L 208 -171 L 337 -296 L 163 -340 L 337 -384 L 208 -509 L 381 -459 L 331 -632 L 456 -503 L 500 -677 L 544 -503 L 669 -632 L 619 -459 L 792 -509 L 663 -384 L 837 -340 L 663 -296 L 792 -171 L 619 -221 L 669 -48 L 544 -177 Z " id="path37"/>
<path d="M 529 -19 L 471 -19 L 475 -216 L 404 -33 L 350 -53 L 431 -238 L 294 -94 L 252 -131 L 402 -275 L 214 -193 L 192 -241 L 388 -318 L 179 -314 L 179 -366 L 388 -362 L 192 -439 L 214 -487 L 402 -405 L 252 -549 L 294 -586 L 431 -442 L 350 -627 L 404 -647 L 475 -464 L 471 -661 L 529 -661 L 525 -464 L 596 -647 L 650 -627 L 569 -442 L 706 -586 L 748 -549 L 598 -405 L 786 -487 L 808 -439 L 612 -362 L 821 -366 L 821 -314 L 612 -318 L 808 -241 L 786 -193 L 598 -275 L 748 -131 L 706 -94 L 569 -238 L 650 -53 L 596 -33 L 525 -216 Z " id="path38"/>
<path d="M 731 -8 L 500 -238 L 269 -8 L 163 -104 L 398 -340 L 163 -576 L 269 -672 L 500 -442 L 731 -672 L 837 -576 L 602 -340 L 837 -104 Z " id="path39"/>
<path d="M 500 -388 L 363 -525 L 500 -661 L 637 -525 Z M 315 -203 L 179 -340 L 315 -477 L 452 -340 Z M 685 -203 L 548 -340 L 685 -477 L 821 -340 Z M 500 -19 L 363 -155 L 500 -292 L 637 -155 Z " id="path40"/>
<path d="M 526 -19 L 474 -19 L 474 -661 L 526 -661 Z " id="path41"/>
<path d="M 541 -19 L 459 -19 L 459 -661 L 541 -661 Z " id="path42"/>
<path d="M 424 -19 L 424 -661 L 576 -661 L 576 -19 Z " id="path43"/>
<path d="M 500 -19 Q 473 -44 446.5 -70 Q 420 -96 395 -122.5 Q 370 -149 345.5 -177 Q 321 -205 297.5 -233.5 Q 274 -262 253 -292 Q 232 -322 214 -354.5 Q 196 -387 183.5 -422 Q 171 -457 171 -494 Q 171 -526 183 -556.5 Q 195 -587 219.5 -608 Q 244 -629 275.5 -637 Q 307 -645 339 -645 Q 368 -645 397.5 -637.5 Q 427 -630 450 -611 Q 473 -592 485.5 -563.5 Q 498 -535 500 -506 Q 502 -535 514.5 -563.5 Q 527 -592 550 -611 Q 573 -630 602.5 -637.5 Q 632 -645 661 -645 Q 693 -645 724.5 -637 Q 756 -629 780.5 -608 Q 805 -587 817 -556.5 Q 829 -526 829 -494 Q 829 -457 816.5 -422 Q 804 -387 786 -354.5 Q 768 -322 747 -292 Q 726 -262 702.5 -233.5 Q 679 -205 654.5 -177 Q 630 -149 605 -122.5 Q 580 -96 553.5 -70 Q 527 -44 500 -19 Z " id="path44"/>
<path d="M 448 69 L 374 69 L 52 -340 L 374 -749 L 448 -749 L 126 -340 Z " id="path45"/>
<path d="M 126 69 L 52 69 L 374 -340 L 52 -749 L 126 -749 L 448 -340 Z " id="path46"/>
<path d="M 457 69 L 331 69 L 43 -340 L 331 -749 L 457 -749 L 169 -340 Z " id="path47"/>
<path d="M 169 69 L 43 69 L 331 -340 L 43 -749 L 169 -749 L 457 -340 Z " id="path48"/>
<path d="M 462 69 L 308 69 L 38 -340 L 308 -749 L 462 -749 L 192 -340 Z " id="path49"/>
<path d="M 38 69 L 308 -340 L 38 -749 L 192 -749 L 462 -340 L 192 69 Z " id="path50"/>
<path d="M 500 87 Q 443 87 386 77 Q 329 67 278 41.5 Q 227 16 185.5 -25.5 Q 144 -67 118.5 -118 Q 93 -169 83 -226 Q 73 -283 73 -340 Q 73 -397 83 -454 Q 93 -511 118.5 -562 Q 144 -613 185.5 -654.5 Q 227 -696 278 -721.5 Q 329 -747 386 -757 Q 443 -767 500 -767 Q 557 -767 614 -757 Q 671 -747 722 -721.5 Q 773 -696 814.5 -654.5 Q 856 -613 881.5 -562 Q 907 -511 917 -454 Q 927 -397 927 -340 Q 927 -283 917 -226 Q 907 -169 881.5 -118 Q 856 -67 814.5 -25.5 Q 773 16 722 41.5 Q 671 67 614 77 Q 557 87 500 87 Z M 487 -120 L 549 -120 L 549 -560 L 487 -560 L 383 -473 L 415 -438 L 487 -498 Z " id="path51"/>
<path d="M 500 87 Q 443 87 386 77 Q 329 67 278 41.5 Q 227 16 185.5 -25.5 Q 144 -67 118.5 -118 Q 93 -169 83 -226 Q 73 -283 73 -340 Q 73 -397 83 -454 Q 93 -511 118.5 -562 Q 144 -613 185.5 -654.5 Q 227 -696 278 -721.5 Q 329 -747 386 -757 Q 443 -767 500 -767 Q 557 -767 614 -757 Q 671 -747 722 -721.5 Q 773 -696 814.5 -654.5 Q 856 -613 881.5 -562 Q 907 -511 917 -454 Q 927 -397 927 -340 Q 927 -283 917 -226 Q 907 -169 881.5 -118 Q 856 -67 814.5 -25.5 Q 773 16 722 41.5 Q 671 67 614 77 Q 557 87 500 87 Z M 388 -120 L 612 -120 L 612 -175 L 453 -175 Q 456 -194 463.5 -213 Q 471 -232 483 -248 Q 495 -264 509.5 -278 Q 524 -292 539 -305 Q 554 -318 568.5 -332 Q 583 -346 593.5 -363.5 Q 604 -381 609 -400.5 Q 614 -420 614 -440 Q 614 -464 608 -487.5 Q 602 -511 586.5 -529.5 Q 571 -548 548 -556.5 Q 525 -565 501 -565 Q 478 -565 456.5 -558.5 Q 435 -552 419 -536.5 Q 403 -521 395 -499.5 Q 387 -478 387 -455 L 387 -452 L 448 -452 L 448 -454 Q 448 -465 451.5 -475.5 Q 455 -486 462 -494.5 Q 469 -503 479.5 -506.5 Q 490 -510 501 -510 Q 513 -510 524.5 -504 Q 536 -498 542 -487.5 Q 548 -477 550.5 -464.5 Q 553 -452 553 -440 Q 553 -416 542.5 -394.5 Q 532 -373 514 -357.5 Q 496 -342 477.5 -327.5 Q 459 -313 443.5 -295.5 Q 428 -278 416 -257 Q 404 -236 398 -213.5 Q 392 -191 390 -167.5 Q 388 -144 388 -120 Z " id="path52"/>
<path d="M 500 87 Q 443 87 386 77 Q 329 67 278 41.5 Q 227 16 185.5 -25.5 Q 144 -67 118.5 -118 Q 93 -169 83 -226 Q 73 -283 73 -340 Q 73 -397 83 -454 Q 93 -511 118.5 -562 Q 144 -613 185.5 -654.5 Q 227 -696 278 -721.5 Q 329 -747 386 -757 Q 443 -767 500 -767 Q 557 -767 614 -757 Q 671 -747 722 -721.5 Q 773 -696 814.5 -654.5 Q 856 -613 881.5 -562 Q 907 -511 917 -454 Q 927 -397 927 -340 Q 927 -283 917 -226 Q 907 -169 881.5 -118 Q 856 -67 814.5 -25.5 Q 773 16 722 41.5 Q 671 67 614 77 Q 557 87 500 87 Z M 502 -115 Q 526 -115 549.5 -123 Q 573 -131 589.5 -148.5 Q 606 -166 613.5 -189.5 Q 621 -213 621 -237 Q 621 -254 617 -270.5 Q 613 -287 605 -302 Q 597 -317 584 -328.5 Q 571 -340 556 -347 Q 569 -354 580 -365 Q 591 -376 598 -389.5 Q 605 -403 608.5 -418 Q 612 -433 612 -449 Q 612 -471 605 -493.5 Q 598 -516 583 -533 Q 568 -550 546 -557.5 Q 524 -565 502 -565 Q 480 -565 458.5 -558.5 Q 437 -552 422 -536 Q 407 -520 399.5 -499 Q 392 -478 392 -456 L 392 -452 L 453 -452 L 453 -454 Q 453 -465 456 -475 Q 459 -485 465 -493.5 Q 471 -502 481 -506 Q 491 -510 502 -510 Q 513 -510 523.5 -504.5 Q 534 -499 540 -489.5 Q 546 -480 548.5 -469 Q 551 -458 551 -447 Q 551 -432 546.5 -417.5 Q 542 -403 532 -392 Q 522 -381 507 -377.5 Q 492 -374 478 -374 L 478 -319 Q 494 -319 510.5 -315 Q 527 -311 538.5 -299 Q 550 -287 555 -271 Q 560 -255 560 -239 Q 560 -226 557 -213.5 Q 554 -201 546.5 -190.5 Q 539 -180 526.5 -175 Q 514 -170 502 -170 Q 490 -170 479 -173.5 Q 468 -177 459.5 -185 Q 451 -193 447 -204 Q 443 -215 443 -226 L 443 -227 L 382 -227 L 382 -225 Q 382 -202 391 -180 Q 400 -158 417 -142.5 Q 434 -127 456.5 -121 Q 479 -115 502 -115 Z " id="path53"/>
<path d="M 500 87 Q 443 87 386 77 Q 329 67 278 41.5 Q 227 16 185.5 -25.5 Q 144 -67 118.5 -118 Q 93 -169 83 -226 Q 73 -283 73 -340 Q 73 -397 83 -454 Q 93 -511 118.5 -562 Q 144 -613 185.5 -654.5 Q 227 -696 278 -721.5 Q 329 -747 386 -757 Q 443 -767 500 -767 Q 557 -767 614 -757 Q 671 -747 722 -721.5 Q 773 -696 814.5 -654.5 Q 856 -613 881.5 -562 Q 907 -511 917 -454 Q 927 -397 927 -340 Q 927 -283 917 -226 Q 907 -169 881.5 -118 Q 856 -67 814.5 -25.5 Q 773 16 722 41.5 Q 671 67 614 77 Q 557 87 500 87 Z M 518 -120 L 579 -120 L 579 -231 L 612 -231 L 612 -286 L 579 -286 L 579 -379 L 518 -379 L 518 -286 L 444 -286 L 575 -560 L 514 -560 L 384 -286 L 384 -231 L 518 -231 Z " id="path54"/>
<path d="M 500 87 Q 443 87 386 77 Q 329 67 278 41.5 Q 227 16 185.5 -25.5 Q 144 -67 118.5 -118 Q 93 -169 83 -226 Q 73 -283 73 -340 Q 73 -397 83 -454 Q 93 -511 118.5 -562 Q 144 -613 185.5 -654.5 Q 227 -696 278 -721.5 Q 329 -747 386 -757 Q 443 -767 500 -767 Q 557 -767 614 -757 Q 671 -747 722 -721.5 Q 773 -696 814.5 -654.5 Q 856 -613 881.5 -562 Q 907 -511 917 -454 Q 927 -397 927 -340 Q 927 -283 917 -226 Q 907 -169 881.5 -118 Q 856 -67 814.5 -25.5 Q 773 16 722 41.5 Q 671 67 614 77 Q 557 87 500 87 Z M 501 -115 Q 519 -115 536 -119.5 Q 553 -124 567 -134.5 Q 581 -145 591 -160 Q 601 -175 606.5 -191.5 Q 612 -208 614 -225.5 Q 616 -243 616 -261 Q 616 -278 614 -295.5 Q 612 -313 606.5 -329.5 Q 601 -346 591.5 -361 Q 582 -376 568.5 -386.5 Q 555 -397 538 -402 Q 521 -407 503 -407 Q 491 -407 478.5 -405 Q 466 -403 454 -399 L 454 -505 L 600 -505 L 600 -561 L 393 -561 L 393 -315 L 454 -315 Q 454 -323 458.5 -331 Q 463 -339 470.5 -343.5 Q 478 -348 486.5 -350 Q 495 -352 503 -352 Q 518 -352 529.5 -342 Q 541 -332 546.5 -318.5 Q 552 -305 553.5 -290 Q 555 -275 555 -261 Q 555 -246 553.5 -231 Q 552 -216 546 -202.5 Q 540 -189 528 -179.5 Q 516 -170 501 -170 Q 490 -170 480 -173.5 Q 470 -177 462.5 -185.5 Q 455 -194 452 -204.5 Q 449 -215 448 -225 L 387 -225 Q 388 -203 395.5 -181.5 Q 403 -160 419 -144 Q 435 -128 457 -121.5 Q 479 -115 501 -115 Z " id="path55"/>
<path d="M 500 87 Q 443 87 386 77 Q 329 67 278 41.5 Q 227 16 185.5 -25.5 Q 144 -67 118.5 -118 Q 93 -169 83 -226 Q 73 -283 73 -340 Q 73 -397 83 -454 Q 93 -511 118.5 -562 Q 144 -613 185.5 -654.5 Q 227 -696 278 -721.5 Q 329 -747 386 -757 Q 443 -767 500 -767 Q 557 -767 614 -757 Q 671 -747 722 -721.5 Q 773 -696 814.5 -654.5 Q 856 -613 881.5 -562 Q 907 -511 917 -454 Q 927 -397 927 -340 Q 927 -283 917 -226 Q 907 -169 881.5 -118 Q 856 -67 814.5 -25.5 Q 773 16 722 41.5 Q 671 67 614 77 Q 557 87 500 87 Z M 500 -115 Q 517 -115 534 -119 Q 551 -123 565.5 -132.5 Q 580 -142 590 -156.5 Q 600 -171 606 -187 Q 612 -203 614 -220 Q 616 -237 616 -255 Q 616 -270 615 -285.5 Q 614 -301 610 -316.5 Q 606 -332 599.5 -346 Q 593 -360 582 -371.5 Q 571 -383 556 -388.5 Q 541 -394 526 -394 Q 509 -394 493.5 -387.5 Q 478 -381 467 -368 Q 473 -383 479.5 -398 Q 486 -413 493 -428 L 558 -560 L 492 -560 L 439 -452 Q 427 -429 416.5 -405 Q 406 -381 399 -356.5 Q 392 -332 388 -306 Q 384 -280 384 -255 Q 384 -237 386 -220 Q 388 -203 394 -187 Q 400 -171 410 -156.5 Q 420 -142 434.5 -132.5 Q 449 -123 466 -119 Q 483 -115 500 -115 Z M 500 -170 Q 486 -170 473.5 -178 Q 461 -186 455 -199 Q 449 -212 447 -226 Q 445 -240 445 -255 L 445 -263 Q 445 -276 448 -289 Q 451 -302 457.5 -313.5 Q 464 -325 475.5 -332 Q 487 -339 500 -339 Q 514 -339 526.5 -331 Q 539 -323 545 -310 Q 551 -297 553 -283 Q 555 -269 555 -255 Q 555 -240 553 -226 Q 551 -212 545 -199 Q 539 -186 526.5 -178 Q 514 -170 500 -170 Z " id="path56"/>
<path d="M 500 87 Q 443 87 386 77 Q 329 67 278 41.5 Q 227 16 185.5 -25.5 Q 144 -67 118.5 -118 Q 93 -169 83 -226 Q 73 -283 73 -340 Q 73 -397 83 -454 Q 93 -511 118.5 -562 Q 144 -613 185.5 -654.5 Q 227 -696 278 -721.5 Q 329 -747 386 -757 Q 443 -767 500 -767 Q 557 -767 614 -757 Q 671 -747 722 -721.5 Q 773 -696 814.5 -654.5 Q 856 -613 881.5 -562 Q 907 -511 917 -454 Q 927 -397 927 -340 Q 927 -283 917 -226 Q 907 -169 881.5 -118 Q 856 -67 814.5 -25.5 Q 773 16 722 41.5 Q 671 67 614 77 Q 557 87 500 87 Z M 497 -119 L 612 -505 L 612 -560 L 388 -560 L 388 -505 L 548 -505 L 433 -119 Z " id="path57"/>
<path d="M 500 87 Q 443 87 386 77 Q 329 67 278 41.5 Q 227 16 185.5 -25.5 Q 144 -67 118.5 -118 Q 93 -169 83 -226 Q 73 -283 73 -340 Q 73 -397 83 -454 Q 93 -511 118.5 -562 Q 144 -613 185.5 -654.5 Q 227 -696 278 -721.5 Q 329 -747 386 -757 Q 443 -767 500 -767 Q 557 -767 614 -757 Q 671 -747 722 -721.5 Q 773 -696 814.5 -654.5 Q 856 -613 881.5 -562 Q 907 -511 917 -454 Q 927 -397 927 -340 Q 927 -283 917 -226 Q 907 -169 881.5 -118 Q 856 -67 814.5 -25.5 Q 773 16 722 41.5 Q 671 67 614 77 Q 557 87 500 87 Z M 500 -115 Q 522 -115 544 -121 Q 566 -127 582.5 -141.5 Q 599 -156 608 -177 Q 617 -198 617 -220 Q 617 -239 611 -257 Q 605 -275 595 -291 Q 585 -307 572 -320.5 Q 559 -334 545 -346 Q 558 -358 569 -371 Q 580 -384 588.5 -398.5 Q 597 -413 602 -430 Q 607 -447 607 -464 Q 607 -485 599.5 -505 Q 592 -525 577 -539 Q 562 -553 541.5 -559 Q 521 -565 500 -565 Q 479 -565 458.5 -559 Q 438 -553 423 -539 Q 408 -525 400.5 -505 Q 393 -485 393 -464 Q 393 -447 398 -430 Q 403 -413 411.5 -398.5 Q 420 -384 431 -371 Q 442 -358 455 -346 Q 441 -334 428 -320.5 Q 415 -307 405 -291 Q 395 -275 389 -257 Q 383 -239 383 -220 Q 383 -198 392 -177 Q 401 -156 417.5 -141.5 Q 434 -127 456 -121 Q 478 -115 500 -115 Z M 500 -383 Q 491 -391 483 -399.5 Q 475 -408 468.5 -418 Q 462 -428 458 -439.5 Q 454 -451 454 -463 Q 454 -472 457 -481 Q 460 -490 466 -497 Q 472 -504 481.5 -507 Q 491 -510 500 -510 Q 509 -510 518.5 -507 Q 528 -504 534 -497 Q 540 -490 543 -481 Q 546 -472 546 -463 Q 546 -451 542 -439.5 Q 538 -428 531.5 -418 Q 525 -408 517 -399.5 Q 509 -391 500 -383 Z M 500 -170 Q 489 -170 478.5 -173 Q 468 -176 460 -183 Q 452 -190 448.5 -200.5 Q 445 -211 445 -222 Q 445 -235 450 -247.5 Q 455 -260 462.5 -271 Q 470 -282 480 -291.5 Q 490 -301 500 -309 Q 510 -301 520 -291.5 Q 530 -282 537.5 -271 Q 545 -260 550 -247.5 Q 555 -235 555 -222 Q 555 -211 551.5 -200.5 Q 548 -190 540 -183 Q 532 -176 521.5 -173 Q 511 -170 500 -170 Z " id="path58"/>
<path d="M 500 87 Q 443 87 386 77 Q 329 67 278 41.5 Q 227 16 185.5 -25.5 Q 144 -67 118.5 -118 Q 93 -169 83 -226 Q 73 -283 73 -340 Q 73 -397 83 -454 Q 93 -511 118.5 -562 Q 144 -613 185.5 -654.5 Q 227 -696 278 -721.5 Q 329 -747 386 -757 Q 443 -767 500 -767 Q 557 -767 614 -757 Q 671 -747 722 -721.5 Q 773 -696 814.5 -654.5 Q 856 -613 881.5 -562 Q 907 -511 917 -454 Q 927 -397 927 -340 Q 927 -283 917 -226 Q 907 -169 881.5 -118 Q 856 -67 814.5 -25.5 Q 773 16 722 41.5 Q 671 67 614 77 Q 557 87 500 87 Z M 508 -119 L 561 -228 Q 573 -251 583.5 -275 Q 594 -299 601 -323.5 Q 608 -348 612 -374 Q 616 -400 616 -425 Q 616 -443 614 -460 Q 612 -477 606 -493 Q 600 -509 590 -523.5 Q 580 -538 565.5 -547.5 Q 551 -557 534 -561 Q 517 -565 500 -565 Q 483 -565 466 -561 Q 449 -557 434.5 -547.5 Q 420 -538 410 -523.5 Q 400 -509 394 -493 Q 388 -477 386 -460 Q 384 -443 384 -425 Q 384 -410 385 -394.5 Q 386 -379 390 -363.5 Q 394 -348 400.5 -334 Q 407 -320 418 -308.5 Q 429 -297 444 -291.5 Q 459 -286 474 -286 Q 491 -286 506.5 -292.5 Q 522 -299 533 -312 Q 527 -297 520.5 -282 Q 514 -267 507 -252 L 442 -119 Z M 500 -341 Q 486 -341 473.5 -349 Q 461 -357 455 -370 Q 449 -383 447 -397 Q 445 -411 445 -425 Q 445 -440 447 -454 Q 449 -468 455 -481 Q 461 -494 473.5 -502 Q 486 -510 500 -510 Q 514 -510 526.5 -502 Q 539 -494 545 -481 Q 551 -468 553 -454 Q 555 -440 555 -425 L 555 -417 Q 555 -404 552 -391 Q 549 -378 542.5 -366.5 Q 536 -355 524.5 -348 Q 513 -341 500 -341 Z " id="path59"/>
<path d="M 500 87 Q 443 87 386 77 Q 329 67 278 41.5 Q 227 16 185.5 -25.5 Q 144 -67 118.5 -118 Q 93 -169 83 -226 Q 73 -283 73 -340 Q 73 -397 83 -454 Q 93 -511 118.5 -562 Q 144 -613 185.5 -654.5 Q 227 -696 278 -721.5 Q 329 -747 386 -757 Q 443 -767 500 -767 Q 557 -767 614 -757 Q 671 -747 722 -721.5 Q 773 -696 814.5 -654.5 Q 856 -613 881.5 -562 Q 907 -511 917 -454 Q 927 -397 927 -340 Q 927 -283 917 -226 Q 907 -169 881.5 -118 Q 856 -67 814.5 -25.5 Q 773 16 722 41.5 Q 671 67 614 77 Q 557 87 500 87 Z M 650 -115 Q 666 -115 682 -118 Q 698 -121 712 -129 Q 726 -137 737 -149.5 Q 748 -162 754.5 -176.5 Q 761 -191 763.5 -207 Q 766 -223 766 -239 L 766 -440 Q 766 -457 763.5 -473 Q 761 -489 754.5 -503.5 Q 748 -518 737 -530.5 Q 726 -543 712 -551 Q 698 -559 682 -562 Q 666 -565 650 -565 Q 634 -565 618 -562 Q 602 -559 588 -551 Q 574 -543 563 -530.5 Q 552 -518 545.5 -503.5 Q 539 -489 536.5 -473 Q 534 -457 534 -440 L 534 -239 Q 534 -223 536.5 -207 Q 539 -191 545.5 -176.5 Q 552 -162 563 -149.5 Q 574 -137 588 -129 Q 602 -121 618 -118 Q 634 -115 650 -115 Z M 337 -120 L 399 -120 L 399 -560 L 337 -560 L 233 -473 L 265 -438 L 337 -498 Z M 595 -325 L 595 -441 Q 595 -453 597.5 -465.5 Q 600 -478 607 -488.5 Q 614 -499 625.5 -504.5 Q 637 -510 650 -510 Q 663 -510 674.5 -504.5 Q 686 -499 693 -488.5 Q 700 -478 702.5 -465.5 Q 705 -453 705 -440 L 705 -413 Z M 650 -170 Q 637 -170 625.5 -175.5 Q 614 -181 607 -191.5 Q 600 -202 597.5 -214.5 Q 595 -227 595 -239 L 595 -267 L 705 -355 L 705 -240 Q 705 -227 702.5 -214.5 Q 700 -202 693 -191.5 Q 686 -181 674.5 -175.5 Q 663 -170 650 -170 Z " id="path60"/>
<path d="M 500 87 Q 443 87 386 77 Q 329 67 278 41.5 Q 227 16 185.5 -25.5 Q 144 -67 118.5 -118 Q 93 -169 83 -226 Q 73 -283 73 -340 Q 73 -397 83 -454 Q 93 -511 118.5 -562 Q 144 -613 185.5 -654.5 Q 227 -696 278 -721.5 Q 329 -747 386 -757 Q 443 -767 500 -767 Q 557 -767 614 -757 Q 671 -747 722 -721.5 Q 773 -696 814.5 -654.5 Q 856 -613 881.5 -562 Q 907 -511 917 -454 Q 927 -397 927 -340 Q 927 -283 917 -226 Q 907 -169 881.5 -118 Q 856 -67 814.5 -25.5 Q 773 16 722 41.5 Q 671 67 614 77 Q 557 87 500 87 Z M 500 32 Q 549 32 598.5 23 Q 648 14 692 -8.5 Q 736 -31 771 -67 Q 806 -103 827.5 -147.5 Q 849 -192 857.5 -241.5 Q 866 -291 866 -340 Q 866 -389 857.5 -438.5 Q 849 -488 827.5 -532.5 Q 806 -577 771 -613 Q 736 -649 692 -671.5 Q 648 -694 598.5 -703 Q 549 -712 500 -712 Q 451 -712 401.5 -703 Q 352 -694 308 -671.5 Q 264 -649 229 -613 Q 194 -577 172.5 -532.5 Q 151 -488 142.5 -438.5 Q 134 -389 134 -340 Q 134 -291 142.5 -241.5 Q 151 -192 172.5 -147.5 Q 194 -103 229 -67 Q 264 -31 308 -8.5 Q 352 14 401.5 23 Q 451 32 500 32 Z M 487 -120 L 487 -498 L 415 -438 L 383 -473 L 487 -560 L 549 -560 L 549 -120 Z " id="path61"/>
<path d="M 500 87 Q 443 87 386 77 Q 329 67 278 41.5 Q 227 16 185.5 -25.5 Q 144 -67 118.5 -118 Q 93 -169 83 -226 Q 73 -283 73 -340 Q 73 -397 83 -454 Q 93 -511 118.5 -562 Q 144 -613 185.5 -654.5 Q 227 -696 278 -721.5 Q 329 -747 386 -757 Q 443 -767 500 -767 Q 557 -767 614 -757 Q 671 -747 722 -721.5 Q 773 -696 814.5 -654.5 Q 856 -613 881.5 -562 Q 907 -511 917 -454 Q 927 -397 927 -340 Q 927 -283 917 -226 Q 907 -169 881.5 -118 Q 856 -67 814.5 -25.5 Q 773 16 722 41.5 Q 671 67 614 77 Q 557 87 500 87 Z M 500 32 Q 549 32 598.5 23 Q 648 14 692 -8.5 Q 736 -31 771 -67 Q 806 -103 827.5 -147.5 Q 849 -192 857.5 -241.5 Q 866 -291 866 -340 Q 866 -389 857.5 -438.5 Q 849 -488 827.5 -532.5 Q 806 -577 771 -613 Q 736 -649 692 -671.5 Q 648 -694 598.5 -703 Q 549 -712 500 -712 Q 451 -712 401.5 -703 Q 352 -694 308 -671.5 Q 264 -649 229 -613 Q 194 -577 172.5 -532.5 Q 151 -488 142.5 -438.5 Q 134 -389 134 -340 Q 134 -291 142.5 -241.5 Q 151 -192 172.5 -147.5 Q 194 -103 229 -67 Q 264 -31 308 -8.5 Q 352 14 401.5 23 Q 451 32 500 32 Z M 612 -120 L 388 -120 Q 388 -144 390 -167.5 Q 392 -191 398 -213.5 Q 404 -236 416 -257 Q 428 -278 443.5 -295.5 Q 459 -313 477.5 -327.5 Q 496 -342 514 -357.5 Q 532 -373 542.5 -394.5 Q 553 -416 553 -440 Q 553 -452 550.5 -464.5 Q 548 -477 542 -487.5 Q 536 -498 524.5 -504 Q 513 -510 501 -510 Q 490 -510 479.5 -506.5 Q 469 -503 462 -494.5 Q 455 -486 451.5 -475.5 Q 448 -465 448 -454 L 448 -452 L 387 -452 L 387 -455 Q 387 -478 395 -499.5 Q 403 -521 419 -536.5 Q 435 -552 456.5 -558.5 Q 478 -565 501 -565 Q 525 -565 548 -556.5 Q 571 -548 586.5 -529.5 Q 602 -511 608 -487.5 Q 614 -464 614 -440 Q 614 -420 609 -400.5 Q 604 -381 593.5 -363.5 Q 583 -346 568.5 -332 Q 554 -318 539 -305 Q 524 -292 509.5 -278 Q 495 -264 483 -248 Q 471 -232 463.5 -213 Q 456 -194 453 -175 L 612 -175 Z " id="path62"/>
<path d="M 500 87 Q 443 87 386 77 Q 329 67 278 41.5 Q 227 16 185.5 -25.5 Q 144 -67 118.5 -118 Q 93 -169 83 -226 Q 73 -283 73 -340 Q 73 -397 83 -454 Q 93 -511 118.5 -562 Q 144 -613 185.5 -654.5 Q 227 -696 278 -721.5 Q 329 -747 386 -757 Q 443 -767 500 -767 Q 557 -767 614 -757 Q 671 -747 722 -721.5 Q 773 -696 814.5 -654.5 Q 856 -613 881.5 -562 Q 907 -511 917 -454 Q 927 -397 927 -340 Q 927 -283 917 -226 Q 907 -169 881.5 -118 Q 856 -67 814.5 -25.5 Q 773 16 722 41.5 Q 671 67 614 77 Q 557 87 500 87 Z M 500 32 Q 549 32 598.5 23 Q 648 14 692 -8.5 Q 736 -31 771 -67 Q 806 -103 827.5 -147.5 Q 849 -192 857.5 -241.5 Q 866 -291 866 -340 Q 866 -389 857.5 -438.5 Q 849 -488 827.5 -532.5 Q 806 -577 771 -613 Q 736 -649 692 -671.5 Q 648 -694 598.5 -703 Q 549 -712 500 -712 Q 451 -712 401.5 -703 Q 352 -694 308 -671.5 Q 264 -649 229 -613 Q 194 -577 172.5 -532.5 Q 151 -488 142.5 -438.5 Q 134 -389 134 -340 Q 134 -291 142.5 -241.5 Q 151 -192 172.5 -147.5 Q 194 -103 229 -67 Q 264 -31 308 -8.5 Q 352 14 401.5 23 Q 451 32 500 32 Z M 502 -115 Q 479 -115 456.5 -121 Q 434 -127 417 -142.5 Q 400 -158 391 -180 Q 382 -202 382 -225 L 382 -227 L 443 -227 L 443 -226 Q 443 -215 447 -204 Q 451 -193 459.5 -185 Q 468 -177 479 -173.5 Q 490 -170 502 -170 Q 514 -170 526.5 -175 Q 539 -180 546.5 -190.5 Q 554 -201 557 -213.5 Q 560 -226 560 -239 Q 560 -255 555 -271 Q 550 -287 538.5 -299 Q 527 -311 510.5 -315 Q 494 -319 478 -319 L 478 -374 Q 492 -374 507 -377.5 Q 522 -381 532 -392 Q 542 -403 546.5 -417.5 Q 551 -432 551 -447 Q 551 -458 548.5 -469 Q 546 -480 540 -489.5 Q 534 -499 523.5 -504.5 Q 513 -510 502 -510 Q 491 -510 481 -506 Q 471 -502 465 -493.5 Q 459 -485 456 -475 Q 453 -465 453 -454 L 453 -452 L 392 -452 L 392 -456 Q 392 -478 399.5 -499 Q 407 -520 422 -536 Q 437 -552 458.5 -558.5 Q 480 -565 502 -565 Q 524 -565 546 -557.5 Q 568 -550 583 -533 Q 598 -516 605 -493.5 Q 612 -471 612 -449 Q 612 -433 608.5 -418 Q 605 -403 598 -389.5 Q 591 -376 580 -365 Q 569 -354 556 -347 Q 571 -340 584 -328.5 Q 597 -317 605 -302 Q 613 -287 617 -270.5 Q 621 -254 621 -237 Q 621 -213 613.5 -189.5 Q 606 -166 589.5 -148.5 Q 573 -131 549.5 -123 Q 526 -115 502 -115 Z " id="path63"/>
<path d="M 500 87 Q 443 87 386 77 Q 329 67 278 41.5 Q 227 16 185.5 -25.5 Q 144 -67 118.5 -118 Q 93 -169 83 -226 Q 73 -283 73 -340 Q 73 -397 83 -454 Q 93 -511 118.5 -562 Q 144 -613 185.5 -654.5 Q 227 -696 278 -721.5 Q 329 -747 386 -757 Q 443 -767 500 -767 Q 557 -767 614 -757 Q 671 -747 722 -721.5 Q 773 -696 814.5 -654.5 Q 856 -613 881.5 -562 Q 907 -511 917 -454 Q 927 -397 927 -340 Q 927 -283 917 -226 Q 907 -169 881.5 -118 Q 856 -67 814.5 -25.5 Q 773 16 722 41.5 Q 671 67 614 77 Q 557 87 500 87 Z M 500 32 Q 549 32 598.5 23 Q 648 14 692 -8.5 Q 736 -31 771 -67 Q 806 -103 827.5 -147.5 Q 849 -192 857.5 -241.5 Q 866 -291 866 -340 Q 866 -389 857.5 -438.5 Q 849 -488 827.5 -532.5 Q 806 -577 771 -613 Q 736 -649 692 -671.5 Q 648 -694 598.5 -703 Q 549 -712 500 -712 Q 451 -712 401.5 -703 Q 352 -694 308 -671.5 Q 264 -649 229 -613 Q 194 -577 172.5 -532.5 Q 151 -488 142.5 -438.5 Q 134 -389 134 -340 Q 134 -291 142.5 -241.5 Q 151 -192 172.5 -147.5 Q 194 -103 229 -67 Q 264 -31 308 -8.5 Q 352 14 401.5 23 Q 451 32 500 32 Z M 518 -120 L 518 -231 L 384 -231 L 384 -286 L 514 -560 L 575 -560 L 444 -286 L 518 -286 L 518 -379 L 579 -379 L 579 -286 L 612 -286 L 612 -231 L 579 -231 L 579 -120 Z " id="path64"/>
<path d="M 500 87 Q 443 87 386 77 Q 329 67 278 41.5 Q 227 16 185.5 -25.5 Q 144 -67 118.5 -118 Q 93 -169 83 -226 Q 73 -283 73 -340 Q 73 -397 83 -454 Q 93 -511 118.5 -562 Q 144 -613 185.5 -654.5 Q 227 -696 278 -721.5 Q 329 -747 386 -757 Q 443 -767 500 -767 Q 557 -767 614 -757 Q 671 -747 722 -721.5 Q 773 -696 814.5 -654.5 Q 856 -613 881.5 -562 Q 907 -511 917 -454 Q 927 -397 927 -340 Q 927 -283 917 -226 Q 907 -169 881.5 -118 Q 856 -67 814.5 -25.5 Q 773 16 722 41.5 Q 671 67 614 77 Q 557 87 500 87 Z M 500 32 Q 549 32 598.5 23 Q 648 14 692 -8.5 Q 736 -31 771 -67 Q 806 -103 827.5 -147.5 Q 849 -192 857.5 -241.5 Q 866 -291 866 -340 Q 866 -389 857.5 -438.5 Q 849 -488 827.5 -532.5 Q 806 -577 771 -613 Q 736 -649 692 -671.5 Q 648 -694 598.5 -703 Q 549 -712 500 -712 Q 451 -712 401.5 -703 Q 352 -694 308 -671.5 Q 264 -649 229 -613 Q 194 -577 172.5 -532.5 Q 151 -488 142.5 -438.5 Q 134 -389 134 -340 Q 134 -291 142.5 -241.5 Q 151 -192 172.5 -147.5 Q 194 -103 229 -67 Q 264 -31 308 -8.5 Q 352 14 401.5 23 Q 451 32 500 32 Z M 501 -115 Q 479 -115 457 -121.5 Q 435 -128 419 -144 Q 403 -160 395.5 -181.5 Q 388 -203 387 -225 L 448 -225 Q 449 -215 452 -204.5 Q 455 -194 462.5 -185.5 Q 470 -177 480 -173.5 Q 490 -170 501 -170 Q 516 -170 528 -179.5 Q 540 -189 546 -202.5 Q 552 -216 553.5 -231 Q 555 -246 555 -261 Q 555 -275 553.5 -290 Q 552 -305 546.5 -318.5 Q 541 -332 529.5 -342 Q 518 -352 503 -352 Q 495 -352 486.5 -350 Q 478 -348 470.5 -343.5 Q 463 -339 458.5 -331 Q 454 -323 454 -315 L 393 -315 L 393 -560 L 600 -560 L 600 -505 L 454 -505 L 454 -399 Q 466 -403 478.5 -405 Q 491 -407 503 -407 Q 521 -407 538 -402 Q 555 -397 568.5 -386.5 Q 582 -376 591.5 -361 Q 601 -346 606.5 -329.5 Q 612 -313 614 -295.5 Q 616 -278 616 -261 Q 616 -243 614 -225.5 Q 612 -208 606.5 -191.5 Q 601 -175 591 -160 Q 581 -145 567 -134.5 Q 553 -124 536 -119.5 Q 519 -115 501 -115 Z " id="path65"/>
<path d="M 500 87 Q 443 87 386 77 Q 329 67 278 41.5 Q 227 16 185.5 -25.5 Q 144 -67 118.5 -118 Q 93 -169 83 -226 Q 73 -283 73 -340 Q 73 -397 83 -454 Q 93 -511 118.5 -562 Q 144 -613 185.5 -654.5 Q 227 -696 278 -721.5 Q 329 -747 386 -757 Q 443 -767 500 -767 Q 557 -767 614 -757 Q 671 -747 722 -721.5 Q 773 -696 814.5 -654.5 Q 856 -613 881.5 -562 Q 907 -511 917 -454 Q 927 -397 927 -340 Q 927 -283 917 -226 Q 907 -169 881.5 -118 Q 856 -67 814.5 -25.5 Q 773 16 722 41.5 Q 671 67 614 77 Q 557 87 500 87 Z M 500 32 Q 549 32 598.5 23 Q 648 14 692 -8.5 Q 736 -31 771 -67 Q 806 -103 827.5 -147.5 Q 849 -192 857.5 -241.5 Q 866 -291 866 -340 Q 866 -389 857.5 -438.5 Q 849 -488 827.5 -532.5 Q 806 -577 771 -613 Q 736 -649 692 -671.5 Q 648 -694 598.5 -703 Q 549 -712 500 -712 Q 451 -712 401.5 -703 Q 352 -694 308 -671.5 Q 264 -649 229 -613 Q 194 -577 172.5 -532.5 Q 151 -488 142.5 -438.5 Q 134 -389 134 -340 Q 134 -291 142.5 -241.5 Q 151 -192 172.5 -147.5 Q 194 -103 229 -67 Q 264 -31 308 -8.5 Q 352 14 401.5 23 Q 451 32 500 32 Z M 500 -115 Q 483 -115 466 -119 Q 449 -123 434.5 -132.5 Q 420 -142 410 -156.5 Q 400 -171 394 -187 Q 388 -203 386 -220 Q 384 -237 384 -255 Q 384 -280 388 -306 Q 392 -332 399 -356.5 Q 406 -381 416.5 -405 Q 427 -429 439 -452 L 492 -560 L 558 -560 L 493 -428 Q 486 -413 479.5 -398 Q 473 -383 467 -368 Q 478 -381 493.5 -387.5 Q 509 -394 526 -394 Q 541 -394 556 -388.5 Q 571 -383 582 -371.5 Q 593 -360 599.5 -346 Q 606 -332 610 -316.5 Q 614 -301 615 -285.5 Q 616 -270 616 -255 Q 616 -237 614 -220 Q 612 -203 606 -187 Q 600 -171 590 -156.5 Q 580 -142 565.5 -132.5 Q 551 -123 534 -119 Q 517 -115 500 -115 Z M 500 -170 Q 514 -170 526.5 -178 Q 539 -186 545 -199 Q 551 -212 553 -226 Q 555 -240 555 -255 Q 555 -269 553 -283 Q 551 -297 545 -310 Q 539 -323 526.5 -331 Q 514 -339 500 -339 Q 487 -339 475.5 -332 Q 464 -325 457.5 -313.5 Q 451 -302 448 -289 Q 445 -276 445 -263 L 445 -255 Q 445 -240 447 -226 Q 449 -212 455 -199 Q 461 -186 473.5 -178 Q 486 -170 500 -170 Z " id="path66"/>
<path d="M 500 87 Q 443 87 386 77 Q 329 67 278 41.5 Q 227 16 185.5 -25.5 Q 144 -67 118.5 -118 Q 93 -169 83 -226 Q 73 -283 73 -340 Q 73 -397 83 -454 Q 93 -511 118.5 -562 Q 144 -613 185.5 -654.5 Q 227 -696 278 -721.5 Q 329 -747 386 -757 Q 443 -767 500 -767 Q 557 -767 614 -757 Q 671 -747 722 -721.5 Q 773 -696 814.5 -654.5 Q 856 -613 881.5 -562 Q 907 -511 917 -454 Q 927 -397 927 -340 Q 927 -283 917 -226 Q 907 -169 881.5 -118 Q 856 -67 814.5 -25.5 Q 773 16 722 41.5 Q 671 67 614 77 Q 557 87 500 87 Z M 500 32 Q 549 32 598.5 23 Q 648 14 692 -8.5 Q 736 -31 771 -67 Q 806 -103 827.5 -147.5 Q 849 -192 857.5 -241.5 Q 866 -291 866 -340 Q 866 -389 857.5 -438.5 Q 849 -488 827.5 -532.5 Q 806 -577 771 -613 Q 736 -649 692 -671.5 Q 648 -694 598.5 -703 Q 549 -712 500 -712 Q 451 -712 401.5 -703 Q 352 -694 308 -671.5 Q 264 -649 229 -613 Q 194 -577 172.5 -532.5 Q 151 -488 142.5 -438.5 Q 134 -389 134 -340 Q 134 -291 142.5 -241.5 Q 151 -192 172.5 -147.5 Q 194 -103 229 -67 Q 264 -31 308 -8.5 Q 352 14 401.5 23 Q 451 32 500 32 Z M 497 -119 L 433 -119 L 548 -505 L 388 -505 L 388 -560 L 612 -560 L 612 -505 Z " id="path67"/>
<path d="M 500 87 Q 443 87 386 77 Q 329 67 278 41.5 Q 227 16 185.5 -25.5 Q 144 -67 118.5 -118 Q 93 -169 83 -226 Q 73 -283 73 -340 Q 73 -397 83 -454 Q 93 -511 118.5 -562 Q 144 -613 185.5 -654.5 Q 227 -696 278 -721.5 Q 329 -747 386 -757 Q 443 -767 500 -767 Q 557 -767 614 -757 Q 671 -747 722 -721.5 Q 773 -696 814.5 -654.5 Q 856 -613 881.5 -562 Q 907 -511 917 -454 Q 927 -397 927 -340 Q 927 -283 917 -226 Q 907 -169 881.5 -118 Q 856 -67 814.5 -25.5 Q 773 16 722 41.5 Q 671 67 614 77 Q 557 87 500 87 Z M 500 32 Q 549 32 598.5 23 Q 648 14 692 -8.5 Q 736 -31 771 -67 Q 806 -103 827.5 -147.5 Q 849 -192 857.5 -241.5 Q 866 -291 866 -340 Q 866 -389 857.5 -438.5 Q 849 -488 827.5 -532.5 Q 806 -577 771 -613 Q 736 -649 692 -671.5 Q 648 -694 598.5 -703 Q 549 -712 500 -712 Q 451 -712 401.5 -703 Q 352 -694 308 -671.5 Q 264 -649 229 -613 Q 194 -577 172.5 -532.5 Q 151 -488 142.5 -438.5 Q 134 -389 134 -340 Q 134 -291 142.5 -241.5 Q 151 -192 172.5 -147.5 Q 194 -103 229 -67 Q 264 -31 308 -8.5 Q 352 14 401.5 23 Q 451 32 500 32 Z M 500 -115 Q 478 -115 456 -121 Q 434 -127 417.5 -141.5 Q 401 -156 392 -177 Q 383 -198 383 -220 Q 383 -239 389 -257 Q 395 -275 405 -291 Q 415 -307 428 -320.5 Q 441 -334 455 -346 Q 442 -358 431 -371 Q 420 -384 411.5 -398.5 Q 403 -413 398 -430 Q 393 -447 393 -464 Q 393 -485 400.5 -505 Q 408 -525 423 -539 Q 438 -553 458.5 -559 Q 479 -565 500 -565 Q 521 -565 541.5 -559 Q 562 -553 577 -539 Q 592 -525 599.5 -505 Q 607 -485 607 -464 Q 607 -447 602 -430 Q 597 -413 588.5 -398.5 Q 580 -384 569 -371 Q 558 -358 545 -346 Q 559 -334 572 -320.5 Q 585 -307 595 -291 Q 605 -275 611 -257 Q 617 -239 617 -220 Q 617 -198 608 -177 Q 599 -156 582.5 -141.5 Q 566 -127 544 -121 Q 522 -115 500 -115 Z M 500 -383 Q 509 -391 517 -399.5 Q 525 -408 531.5 -418 Q 538 -428 542 -439.5 Q 546 -451 546 -463 Q 546 -472 543 -481 Q 540 -490 534 -497 Q 528 -504 518.5 -507 Q 509 -510 500 -510 Q 491 -510 481.5 -507 Q 472 -504 466 -497 Q 460 -490 457 -481 Q 454 -472 454 -463 Q 454 -451 458 -439.5 Q 462 -428 468.5 -418 Q 475 -408 483 -399.5 Q 491 -391 500 -383 Z M 500 -170 Q 511 -170 521.5 -173 Q 532 -176 540 -183 Q 548 -190 551.5 -200.5 Q 555 -211 555 -222 Q 555 -235 550 -247.5 Q 545 -260 537.5 -271 Q 530 -282 520 -291.5 Q 510 -301 500 -309 Q 490 -301 480 -291.5 Q 470 -282 462.5 -271 Q 455 -260 450 -247.5 Q 445 -235 445 -222 Q 445 -211 448.5 -200.5 Q 452 -190 460 -183 Q 468 -176 478.5 -173 Q 489 -170 500 -170 Z " id="path68"/>
<path d="M 500 87 Q 443 87 386 77 Q 329 67 278 41.5 Q 227 16 185.5 -25.5 Q 144 -67 118.5 -118 Q 93 -169 83 -226 Q 73 -283 73 -340 Q 73 -397 83 -454 Q 93 -511 118.5 -562 Q 144 -613 185.5 -654.5 Q 227 -696 278 -721.5 Q 329 -747 386 -757 Q 443 -767 500 -767 Q 557 -767 614 -757 Q 671 -747 722 -721.5 Q 773 -696 814.5 -654.5 Q 856 -613 881.5 -562 Q 907 -511 917 -454 Q 927 -397 927 -340 Q 927 -283 917 -226 Q 907 -169 881.5 -118 Q 856 -67 814.5 -25.5 Q 773 16 722 41.5 Q 671 67 614 77 Q 557 87 500 87 Z M 500 32 Q 549 32 598.5 23 Q 648 14 692 -8.5 Q 736 -31 771 -67 Q 806 -103 827.5 -147.5 Q 849 -192 857.5 -241.5 Q 866 -291 866 -340 Q 866 -389 857.5 -438.5 Q 849 -488 827.5 -532.5 Q 806 -577 771 -613 Q 736 -649 692 -671.5 Q 648 -694 598.5 -703 Q 549 -712 500 -712 Q 451 -712 401.5 -703 Q 352 -694 308 -671.5 Q 264 -649 229 -613 Q 194 -577 172.5 -532.5 Q 151 -488 142.5 -438.5 Q 134 -389 134 -340 Q 134 -291 142.5 -241.5 Q 151 -192 172.5 -147.5 Q 194 -103 229 -67 Q 264 -31 308 -8.5 Q 352 14 401.5 23 Q 451 32 500 32 Z M 508 -119 L 442 -119 L 507 -252 Q 514 -267 520.5 -282 Q 527 -297 533 -312 Q 522 -299 506.5 -292.5 Q 491 -286 474 -286 Q 459 -286 444 -291.5 Q 429 -297 418 -308.5 Q 407 -320 400.5 -334 Q 394 -348 390 -363.5 Q 386 -379 385 -394.5 Q 384 -410 384 -425 Q 384 -443 386 -460 Q 388 -477 394 -493 Q 400 -509 410 -523.5 Q 420 -538 434.5 -547.5 Q 449 -557 466 -561 Q 483 -565 500 -565 Q 517 -565 534 -561 Q 551 -557 565.5 -547.5 Q 580 -538 590 -523.5 Q 600 -509 606 -493 Q 612 -477 614 -460 Q 616 -443 616 -425 Q 616 -400 612 -374 Q 608 -348 601 -323.5 Q 594 -299 583.5 -275 Q 573 -251 561 -228 Z M 500 -341 Q 513 -341 524.5 -348 Q 536 -355 542.5 -366.5 Q 549 -378 552 -391 Q 555 -404 555 -417 L 555 -425 Q 555 -440 553 -454 Q 551 -468 545 -481 Q 539 -494 526.5 -502 Q 514 -510 500 -510 Q 486 -510 473.5 -502 Q 461 -494 455 -481 Q 449 -468 447 -454 Q 445 -440 445 -425 Q 445 -411 447 -397 Q 449 -383 455 -370 Q 461 -357 473.5 -349 Q 486 -341 500 -341 Z " id="path69"/>
<path d="M 500 87 Q 443 87 386 77 Q 329 67 278 41.5 Q 227 16 185.5 -25.5 Q 144 -67 118.5 -118 Q 93 -169 83 -226 Q 73 -283 73 -340 Q 73 -397 83 -454 Q 93 -511 118.5 -562 Q 144 -613 185.5 -654.5 Q 227 -696 278 -721.5 Q 329 -747 386 -757 Q 443 -767 500 -767 Q 557 -767 614 -757 Q 671 -747 722 -721.5 Q 773 -696 814.5 -654.5 Q 856 -613 881.5 -562 Q 907 -511 917 -454 Q 927 -397 927 -340 Q 927 -283 917 -226 Q 907 -169 881.5 -118 Q 856 -67 814.5 -25.5 Q 773 16 722 41.5 Q 671 67 614 77 Q 557 87 500 87 Z M 500 32 Q 549 32 598.5 23 Q 648 14 692 -8.5 Q 736 -31 771 -67 Q 806 -103 827.5 -147.5 Q 849 -192 857.5 -241.5 Q 866 -291 866 -340 Q 866 -389 857.5 -438.5 Q 849 -488 827.5 -532.5 Q 806 -577 771 -613 Q 736 -649 692 -671.5 Q 648 -694 598.5 -703 Q 549 -712 500 -712 Q 451 -712 401.5 -703 Q 352 -694 308 -671.5 Q 264 -649 229 -613 Q 194 -577 172.5 -532.5 Q 151 -488 142.5 -438.5 Q 134 -389 134 -340 Q 134 -291 142.5 -241.5 Q 151 -192 172.5 -147.5 Q 194 -103 229 -67 Q 264 -31 308 -8.5 Q 352 14 401.5 23 Q 451 32 500 32 Z M 337 -120 L 337 -498 L 265 -438 L 233 -473 L 337 -560 L 399 -560 L 399 -120 Z M 650 -115 Q 634 -115 618 -118 Q 602 -121 588 -129 Q 574 -137 563 -149.5 Q 552 -162 545.5 -176.5 Q 539 -191 536.5 -207 Q 534 -223 534 -239 L 534 -440 Q 534 -457 536.5 -473 Q 539 -489 545.5 -503.5 Q 552 -518 563 -530.5 Q 574 -543 588 -551 Q 602 -559 618 -562 Q 634 -565 650 -565 Q 666 -565 682 -562 Q 698 -559 712 -551 Q 726 -543 737 -530.5 Q 748 -518 754.5 -503.5 Q 761 -489 763.5 -473 Q 766 -457 766 -440 L 766 -239 Q 766 -223 763.5 -207 Q 761 -191 754.5 -176.5 Q 748 -162 737 -149.5 Q 726 -137 712 -129 Q 698 -121 682 -118 Q 666 -115 650 -115 Z M 595 -325 L 705 -413 L 705 -440 Q 705 -453 702.5 -465.5 Q 700 -478 693 -488.5 Q 686 -499 674.5 -504.5 Q 663 -510 650 -510 Q 637 -510 625.5 -504.5 Q 614 -499 607 -488.5 Q 600 -478 597.5 -465.5 Q 595 -453 595 -440 Z M 650 -170 Q 663 -170 674.5 -175.5 Q 686 -181 693 -191.5 Q 700 -202 702.5 -214.5 Q 705 -227 705 -239 L 705 -355 L 595 -267 L 595 -239 Q 595 -227 597.5 -214.5 Q 600 -202 607 -191.5 Q 614 -181 625.5 -175.5 Q 637 -170 650 -170 Z " id="path70"/>
<path d="M 765 -147 L 612 -147 L 737 -272 L 58 -272 L 58 -408 L 737 -408 L 612 -533 L 765 -533 L 958 -340 Z " id="path71"/>
<path d="M 548 54 Q 534 54 520 49.5 Q 506 45 495.5 36 Q 485 27 478.5 13.5 Q 472 0 472 -14 Q 472 -27 478 -40 Q 484 -53 494 -62 L 704 -272 L 126 -272 Q 112 -272 98.5 -276.5 Q 85 -281 74 -290.5 Q 63 -300 56.5 -313 Q 50 -326 50 -340 Q 50 -354 56.5 -367 Q 63 -380 74 -389.5 Q 85 -399 98.5 -403.5 Q 112 -408 126 -408 L 704 -408 L 494 -618 Q 484 -627 478 -640 Q 472 -653 472 -666 Q 472 -680 478.5 -693.5 Q 485 -707 495.5 -716 Q 506 -725 520 -729.5 Q 534 -734 548 -734 Q 564 -734 580 -727.5 Q 596 -721 607 -709 L 928 -388 Q 938 -379 944 -366.5 Q 950 -354 950 -340 Q 950 -326 944 -313.5 Q 938 -301 928 -292 L 607 29 Q 596 41 580 47.5 Q 564 54 548 54 Z " id="path72"/>
<path d="M 757 -138 L 757 -317 L 58 -317 L 58 -363 L 757 -363 L 757 -542 L 958 -340 Z " id="path73"/>
<path d="M 757 -138 L 757 -288 L 58 -288 L 58 -392 L 757 -392 L 757 -542 L 958 -340 Z " id="path74"/>
<path d="M 659 -135 L 659 -246 L 58 -246 L 58 -434 L 659 -434 L 659 -545 L 958 -340 Z " id="path75"/>
<path d="M 179 -19 L 339 -340 L 179 -661 L 821 -340 Z M 406 -340 L 688 -340 L 312 -528 Z " id="path76"/>
<path d="M 179 -19 L 339 -340 L 179 -661 L 821 -340 Z M 312 -152 L 688 -340 L 406 -340 Z " id="path77"/>
<path d="M 179 -19 L 339 -340 L 179 -661 L 821 -340 Z " id="path78"/>
<path d="M 659 -135 L 659 -246 L 152 -246 Q 138 -246 124 -249.5 Q 110 -253 98.5 -262 Q 87 -271 78 -282 Q 69 -293 62 -305.5 Q 55 -318 49.5 -331.5 Q 44 -345 40 -358.5 Q 36 -372 33 -386 Q 30 -400 27.5 -414 Q 25 -428 23.5 -442.5 Q 22 -457 21 -471.5 Q 20 -486 20 -500 Q 20 -514 20 -529 L 80 -529 Q 80 -512 83 -495 Q 86 -478 95 -464 Q 104 -450 119.5 -442 Q 135 -434 152 -434 L 659 -434 L 659 -545 L 958 -340 Z " id="path79"/>
<path d="M 659 -135 L 659 -246 L 152 -246 Q 135 -246 119.5 -238 Q 104 -230 95 -216 Q 86 -202 83 -185 Q 80 -168 80 -151 L 20 -151 Q 20 -166 20 -180 Q 20 -194 21 -208.5 Q 22 -223 23.5 -237 Q 25 -251 27.5 -265.5 Q 30 -280 33 -294 Q 36 -308 40 -321.5 Q 44 -335 49.5 -348.5 Q 55 -362 62 -374.5 Q 69 -387 78 -398 Q 87 -409 98.5 -418 Q 110 -427 124 -430.5 Q 138 -434 152 -434 L 659 -434 L 659 -545 L 958 -340 Z " id="path80"/>
<path d="M 443 43 L 443 -88 L 328 -88 L 328 -592 L 443 -592 L 443 -723 L 688 -340 Z " id="path81"/>
<path d="M 500 -11 Q 479 -11 458 -17.5 Q 437 -24 420.5 -38 Q 404 -52 392.5 -70 Q 381 -88 373 -108 Q 365 -128 359.5 -148.5 Q 354 -169 351 -190.5 Q 348 -212 347 -233 Q 346 -254 346 -276 Q 346 -314 351.5 -352.5 Q 357 -391 370 -427 Q 383 -463 403.5 -495.5 Q 424 -528 451 -556 Q 419 -577 382.5 -589.5 Q 346 -602 307 -602 Q 282 -602 257.5 -595.5 Q 233 -589 211 -577 L 179 -629 Q 208 -645 241 -653 Q 274 -661 307 -661 Q 359 -661 408.5 -644 Q 458 -627 500 -597 Q 542 -627 591.5 -644 Q 641 -661 693 -661 Q 726 -661 759 -653 Q 792 -645 821 -629 L 789 -577 Q 767 -589 742.5 -595.5 Q 718 -602 693 -602 Q 654 -602 617.5 -589.5 Q 581 -577 549 -556 Q 576 -528 596.5 -495.5 Q 617 -463 630 -427 Q 643 -391 648.5 -352.5 Q 654 -314 654 -276 Q 654 -254 653 -233 Q 652 -212 649 -190.5 Q 646 -169 640.5 -148.5 Q 635 -128 627 -108 Q 619 -88 607.5 -70 Q 596 -52 579.5 -38 Q 563 -24 542 -17.5 Q 521 -11 500 -11 Z M 500 -70 Q 515 -70 528.5 -78 Q 542 -86 551 -98.5 Q 560 -111 565.5 -125.5 Q 571 -140 575 -154.5 Q 579 -169 581.5 -184.5 Q 584 -200 585.5 -215 Q 587 -230 587.5 -245 Q 588 -260 588 -276 Q 588 -309 583.5 -341.5 Q 579 -374 568.5 -405 Q 558 -436 540.5 -464 Q 523 -492 500 -515 Q 477 -492 459.5 -464 Q 442 -436 431.5 -405 Q 421 -374 416.5 -341.5 Q 412 -309 412 -276 Q 412 -260 412.5 -245 Q 413 -230 414.5 -215 Q 416 -200 418.5 -184.5 Q 421 -169 425 -154.5 Q 429 -140 434.5 -125.5 Q 440 -111 449 -98.5 Q 458 -86 471.5 -78 Q 485 -70 500 -70 Z " id="path82"/>
<path d="M 371 -11 Q 352 -11 334 -21 Q 316 -31 304.5 -47 Q 293 -63 285.5 -81.5 Q 278 -100 273 -119 Q 268 -138 264.5 -157.5 Q 261 -177 259 -196.5 Q 257 -216 256.5 -236 Q 256 -256 256 -276 Q 256 -311 260 -346.5 Q 264 -382 274 -416 Q 284 -450 298.5 -482.5 Q 313 -515 332 -545 Q 324 -556 314.5 -566 Q 305 -576 294 -584 Q 283 -592 270 -597 Q 257 -602 243 -602 Q 235 -602 226.5 -599.5 Q 218 -597 211 -593 L 179 -645 Q 193 -653 209.5 -657 Q 226 -661 243 -661 Q 261 -661 279.5 -656.5 Q 298 -652 314 -643 Q 330 -634 344.5 -622.5 Q 359 -611 371 -597 Q 384 -611 398.5 -622.5 Q 413 -634 429 -643 Q 445 -652 463 -656.5 Q 481 -661 500 -661 Q 519 -661 537 -656.5 Q 555 -652 571 -643 Q 587 -634 601.5 -622.5 Q 616 -611 629 -597 Q 641 -611 655.5 -622.5 Q 670 -634 686 -643 Q 702 -652 720.5 -656.5 Q 739 -661 757 -661 Q 774 -661 790.5 -657 Q 807 -653 821 -645 L 789 -593 Q 782 -597 773.5 -599.5 Q 765 -602 757 -602 Q 743 -602 730 -597 Q 717 -592 706 -584 Q 695 -576 685.5 -566 Q 676 -556 668 -545 Q 687 -515 701.5 -482.5 Q 716 -450 726 -416 Q 736 -382 740 -346.5 Q 744 -311 744 -276 Q 744 -256 743.5 -236 Q 743 -216 741 -196.5 Q 739 -177 735.5 -157.5 Q 732 -138 727 -119 Q 722 -100 714.5 -81.5 Q 707 -63 695.5 -47 Q 684 -31 666 -21 Q 648 -11 629 -11 Q 609 -11 591 -21 Q 573 -31 561.5 -47 Q 550 -63 542.5 -81.5 Q 535 -100 530 -119 Q 525 -138 521.5 -157.5 Q 518 -177 516.5 -196.5 Q 515 -216 514 -236 Q 513 -256 513 -276 Q 513 -311 517 -346.5 Q 521 -382 531 -416 Q 541 -450 555.5 -482.5 Q 570 -515 589 -545 Q 581 -556 571.5 -566 Q 562 -576 551 -584 Q 540 -592 527 -597 Q 514 -602 500 -602 Q 486 -602 473 -597 Q 460 -592 449 -584 Q 438 -576 428.5 -566 Q 419 -556 411 -545 Q 430 -515 444.5 -482.5 Q 459 -450 469 -416 Q 479 -382 483 -346.5 Q 487 -311 487 -276 Q 487 -256 486 -236 Q 485 -216 483.5 -196.5 Q 482 -177 478.5 -157.5 Q 475 -138 470 -119 Q 465 -100 457.5 -81.5 Q 450 -63 438.5 -47 Q 427 -31 409 -21 Q 391 -11 371 -11 Z M 371 -70 Q 381 -70 387.5 -77.5 Q 394 -85 398 -93.5 Q 402 -102 404.5 -111 Q 407 -120 409 -129 Q 411 -138 412.5 -147 Q 414 -156 415 -165 Q 416 -174 417 -183.5 Q 418 -193 418.5 -202 Q 419 -211 419.5 -220.5 Q 420 -230 420.5 -239 Q 421 -248 421 -257 Q 421 -266 421 -276 Q 421 -328 408.5 -378.5 Q 396 -429 373 -476 Q 361 -453 351.5 -428.5 Q 342 -404 335 -379 Q 328 -354 325 -328 Q 322 -302 322 -276 Q 322 -266 322 -257 Q 322 -248 322.5 -239 Q 323 -230 323.5 -220.5 Q 324 -211 324.5 -202 Q 325 -193 326 -183.5 Q 327 -174 328 -165 Q 329 -156 330.5 -147 Q 332 -138 334 -129 Q 336 -120 338.5 -111 Q 341 -102 345 -93.5 Q 349 -85 355.5 -77.5 Q 362 -70 371 -70 Z M 629 -70 Q 638 -70 644.5 -77.5 Q 651 -85 655 -93.5 Q 659 -102 661.5 -111 Q 664 -120 666 -129 Q 668 -138 669.5 -147 Q 671 -156 672 -165 Q 673 -174 674 -183.5 Q 675 -193 675.5 -202 Q 676 -211 676.5 -220.5 Q 677 -230 677.5 -239 Q 678 -248 678 -257 Q 678 -266 678 -276 Q 678 -302 675 -328 Q 672 -354 665 -379 Q 658 -404 648.5 -428.5 Q 639 -453 627 -476 Q 604 -429 591.5 -378.5 Q 579 -328 579 -276 Q 579 -266 579 -257 Q 579 -248 579.5 -239 Q 580 -230 580.5 -220.5 Q 581 -211 581.5 -202 Q 582 -193 583 -183.5 Q 584 -174 585 -165 Q 586 -156 587.5 -147 Q 589 -138 591 -129 Q 593 -120 595.5 -111 Q 598 -102 602 -93.5 Q 606 -85 612.5 -77.5 Q 619 -70 629 -70 Z " id="path83"/>
</defs>
<g>
<g data-source-text="0" fill="#20242e" transform="translate(174 41.292) rotate(0) scale(0.023999998)">
<use href="#path1" transform="translate(0 0)"/>
</g>
</g>
<g>
<g data-source-text="1" fill="#20242e" transform="translate(246 41.292) rotate(0) scale(0.023999998)">
<use href="#path2" transform="translate(0 0)"/>
</g>
</g>
<g>
<g data-source-text="2" fill="#20242e" transform="translate(318 41.292) rotate(0) scale(0.023999998)">
<use href="#path3" transform="translate(0 0)"/>
</g>
</g>
<g>
<g data-source-text="3" fill="#20242e" transform="translate(390 41.292) rotate(0) scale(0.023999998)">
<use href="#path4" transform="translate(0 0)"/>
</g>
</g>
<g>
<g data-source-text="4" fill="#20242e" transform="translate(462 41.292) rotate(0) scale(0.023999998)">
<use href="#path5" transform="translate(0 0)"/>
</g>
</g>
<g>
<g data-source-text="5" fill="#20242e" transform="translate(534 41.292) rotate(0) scale(0.023999998)">
<use href="#path6" transform="translate(0 0)"/>
</g>
</g>
<g>
<g data-source-text="6" fill="#20242e" transform="translate(606 41.292) rotate(0) scale(0.023999998)">
<use href="#path7" transform="translate(0 0)"/>
</g>
</g>
<g>
<g data-source-text="7" fill="#20242e" transform="translate(678 41.292) rotate(0) scale(0.023999998)">
<use href="#path8" transform="translate(0 0)"/>
</g>
</g>
<g>
<g data-source-text="8" fill="#20242e" transform="translate(750 41.292) rotate(0) scale(0.023999998)">
<use href="#path9" transform="translate(0 0)"/>
</g>
</g>
<g>
<g data-source-text="9" fill="#20242e" transform="translate(822 41.292) rotate(0) scale(0.023999998)">
<use href="#path10" transform="translate(0 0)"/>
</g>
</g>
<g>
<g data-source-text="A" fill="#20242e" transform="translate(894 41.292) rotate(0) scale(0.023999998)">
<use href="#path11" transform="translate(0 0)"/>
</g>
</g>
<g>
<g data-source-text="B" fill="#20242e" transform="translate(966 41.292) rotate(0) scale(0.023999998)">
<use href="#path12" transform="translate(0 0)"/>
</g>
</g>
<g>
<g data-source-text="C" fill="#20242e" transform="translate(1038 41.292) rotate(0) scale(0.023999998)">
<use href="#path13" transform="translate(0 0)"/>
</g>
</g>
<g>
<g data-source-text="D" fill="#20242e" transform="translate(1110 41.292) rotate(0) scale(0.023999998)">
<use href="#path14" transform="translate(0 0)"/>
</g>
</g>
<g>
<g data-source-text="E" fill="#20242e" transform="translate(1182 41.292) rotate(0) scale(0.023999998)">
<use href="#path15" transform="translate(0 0)"/>
</g>
</g>
<g>
<g data-source-text="F" fill="#20242e" transform="translate(1254 41.292) rotate(0) scale(0.023999998)">
<use href="#path16" transform="translate(0 0)"/>
</g>
</g>
<g>
<g data-source-text="U+2700" fill="#20242e" transform="translate(36 113.292) rotate(0) scale(0.023999998)">
<use href="#path17" transform="translate(0 0)"/>
<use href="#path18" transform="translate(500 0)"/>
<use href="#path3" transform="translate(1000 0)"/>
<use href="#path8" transform="translate(1500 0)"/>
<use href="#path1" transform="translate(2000 0)"/>
<use href="#path1" transform="translate(2500 0)"/>
</g>
</g>
<g>
<g data-source-text="" fill="#20242e40" transform="translate(168 118.584) rotate(0) scale(0.047999997)">
<use href="#path19" transform="translate(0 0)"/>
</g>
</g>
<g>
<g data-source-text="" fill="#20242e40" transform="translate(240 118.584) rotate(0) scale(0.047999997)">
<use href="#path19" transform="translate(0 0)"/>
</g>
</g>
<g>
<g data-source-text="" fill="#20242e40" transform="translate(312 118.584) rotate(0) scale(0.047999997)">
<use href="#path19" transform="translate(0 0)"/>
</g>
</g>
<g>
<g data-source-text="" fill="#20242e40" transform="translate(384 118.584) rotate(0) scale(0.047999997)">
<use href="#path19" transform="translate(0 0)"/>
</g>
</g>
<g>
<g data-source-text="" fill="#20242e40" transform="translate(456 118.584) rotate(0) scale(0.047999997)">
<use href="#path19" transform="translate(0 0)"/>
</g>
</g>
<g>
<g data-source-text="" fill="#20242e40" transform="translate(528 118.584) rotate(0) scale(0.047999997)">
<use href="#path19" transform="translate(0 0)"/>
</g>
</g>
<g>
<g data-source-text="" fill="#20242e40" transform="translate(600 118.584) rotate(0) scale(0.047999997)">
<use href="#path19" transform="translate(0 0)"/>
</g>
</g>
<g>
<g data-source-text="" fill="#20242e40" transform="translate(672 118.584) rotate(0) scale(0.047999997)">
<use href="#path19" transform="translate(0 0)"/>
</g>
</g>
<g>
<g data-source-text="" fill="#20242e40" transform="translate(744 118.584) rotate(0) scale(0.047999997)">
<use href="#path19" transform="translate(0 0)"/>
</g>
</g>
<g>
<g data-source-text="" fill="#20242e40" transform="translate(816 118.584) rotate(0) scale(0.047999997)">
<use href="#path19" transform="translate(0 0)"/>
</g>
</g>
<g>
<g data-source-text="" fill="#20242e40" transform="translate(888 118.584) rotate(0) scale(0.047999997)">
<use href="#path19" transform="translate(0 0)"/>
</g>
</g>
<g>
<g data-source-text="" fill="#20242e40" transform="translate(960 118.584) rotate(0) scale(0.047999997)">
<use href="#path19" transform="translate(0 0)"/>
</g>
</g>
<g>
<g data-source-text="" fill="#20242e40" transform="translate(1032 118.584) rotate(0) scale(0.047999997)">
<use href="#path19" transform="translate(0 0)"/>
</g>
</g>
<g>
<g data-source-text="" fill="#20242e40" transform="translate(1104 118.584) rotate(0) scale(0.047999997)">
<use href="#path19" transform="translate(0 0)"/>
</g>
</g>
<g>
<g data-source-text="" fill="#20242e40" transform="translate(1176 118.584) rotate(0) scale(0.047999997)">
<use href="#path19" transform="translate(0 0)"/>
</g>
</g>
<g>
<g data-source-text="" fill="#20242e40" transform="translate(1248 118.584) rotate(0) scale(0.047999997)">
<use href="#path19" transform="translate(0 0)"/>
</g>
</g>
<g>
<g data-source-text="U+2710" fill="#20242e" transform="translate(36 185.292) rotate(0) scale(0.023999998)">
<use href="#path17" transform="translate(0 0)"/>
<use href="#path18" transform="translate(500 0)"/>
<use href="#path3" transform="translate(1000 0)"/>
<use href="#path8" transform="translate(1500 0)"/>
<use href="#path2" transform="translate(2000 0)"/>
<use href="#path1" transform="translate(2500 0)"/>
</g>
</g>
<g>
<g data-source-text="" fill="#20242e40" transform="translate(168 190.584) rotate(0) scale(0.047999997)">
<use href="#path19" transform="translate(0 0)"/>
</g>
</g>
<g>
<g data-source-text="" fill="#20242e40" transform="translate(240 190.584) rotate(0) scale(0.047999997)">
<use href="#path19" transform="translate(0 0)"/>
</g>
</g>
<g>
<g data-source-text="" fill="#20242e40" transform="translate(312 190.584) rotate(0) scale(0.047999997)">
<use href="#path19" transform="translate(0 0)"/>
</g>
</g>
<g>
<g data-source-text="" fill="#20242e" transform="translate(372 190.584) rotate(0) scale(0.047999997)">
<use href="#path20" transform="translate(0 0)"/>
</g>
</g>
<g>
<g data-source-text="" fill="#20242e" transform="translate(444 190.584) rotate(0) scale(0.047999997)">
<use href="#path21" transform="translate(0 0)"/>
</g>
</g>
<g>
<g data-source-text="" fill="#20242e" transform="translate(516 190.584) rotate(0) scale(0.047999997)">
<use href="#path22" transform="translate(0 0)"/>
</g>
</g>
<g>
<g data-source-text="" fill="#20242e" transform="translate(588 190.584) rotate(0) scale(0.047999997)">
<use href="#path23" transform="translate(0 0)"/>
</g>
</g>
<g>
<g data-source-text="" fill="#20242e" transform="translate(660 190.584) rotate(0) scale(0.047999997)">
<use href="#path24" transform="translate(0 0)"/>
</g>
</g>
<g>
<g data-source-text="" fill="#20242e" transform="translate(732 190.584) rotate(0) scale(0.047999997)">
<use href="#path25" transform="translate(0 0)"/>
</g>
</g>
<g>
<g data-source-text="" fill="#20242e40" transform="translate(816 190.584) rotate(0) scale(0.047999997)">
<use href="#path19" transform="translate(0 0)"/>
</g>
</g>
<g>
<g data-source-text="" fill="#20242e" transform="translate(876 190.584) rotate(0) scale(0.047999997)">
<use href="#path26" transform="translate(0 0)"/>
</g>
</g>
<g>
<g data-source-text="" fill="#20242e40" transform="translate(960 190.584) rotate(0) scale(0.047999997)">
<use href="#path19" transform="translate(0 0)"/>
</g>
</g>
<g>
<g data-source-text="" fill="#20242e40" transform="translate(1032 190.584) rotate(0) scale(0.047999997)">
<use href="#path19" transform="translate(0 0)"/>
</g>
</g>
<g>
<g data-source-text="" fill="#20242e" transform="translate(1092 190.584) rotate(0) scale(0.047999997)">
<use href="#path27" transform="translate(0 0)"/>
</g>
</g>
<g>
<g data-source-text="" fill="#20242e40" transform="translate(1176 190.584) rotate(0) scale(0.047999997)">
<use href="#path19" transform="translate(0 0)"/>
</g>
</g>
<g>
<g data-source-text="" fill="#20242e40" transform="translate(1248 190.584) rotate(0) scale(0.047999997)">
<use href="#path19" transform="translate(0 0)"/>
</g>
</g>
<g>
<g data-source-text="U+2720" fill="#20242e" transform="translate(36 257.292) rotate(0) scale(0.023999998)">
<use href="#path17" transform="translate(0 0)"/>
<use href="#path18" transform="translate(500 0)"/>
<use href="#path3" transform="translate(1000 0)"/>
<use href="#path8" transform="translate(1500 0)"/>
<use href="#path3" transform="translate(2000 0)"/>
<use href="#path1" transform="translate(2500 0)"/>
</g>
</g>
<g>
<g data-source-text="" fill="#20242e40" transform="translate(168 262.584) rotate(0) scale(0.047999997)">
<use href="#path19" transform="translate(0 0)"/>
</g>
</g>
<g>
<g data-source-text="" fill="#20242e" transform="translate(228 262.584) rotate(0) scale(0.047999997)">
<use href="#path28" transform="translate(0 0)"/>
</g>
</g>
<g>
<g data-source-text="" fill="#20242e40" transform="translate(312 262.584) rotate(0) scale(0.047999997)">
<use href="#path19" transform="translate(0 0)"/>
</g>
</g>
<g>
<g data-source-text="" fill="#20242e40" transform="translate(384 262.584) rotate(0) scale(0.047999997)">
<use href="#path19" transform="translate(0 0)"/>
</g>
</g>
<g>
<g data-source-text="" fill="#20242e40" transform="translate(456 262.584) rotate(0) scale(0.047999997)">
<use href="#path19" transform="translate(0 0)"/>
</g>
</g>
<g>
<g data-source-text="" fill="#20242e40" transform="translate(528 262.584) rotate(0) scale(0.047999997)">
<use href="#path19" transform="translate(0 0)"/>
</g>
</g>
<g>
<g data-source-text="" fill="#20242e" transform="translate(588 262.584) rotate(0) scale(0.047999997)">
<use href="#path29" transform="translate(0 0)"/>
</g>
</g>
<g>
<g data-source-text="" fill="#20242e" transform="translate(660 262.584) rotate(0) scale(0.047999997)">
<use href="#path30" transform="translate(0 0)"/>
</g>
</g>
<g>
<g data-source-text="" fill="#20242e40" transform="translate(744 262.584) rotate(0) scale(0.047999997)">
<use href="#path19" transform="translate(0 0)"/>
</g>
</g>
<g>
<g data-source-text="" fill="#20242e40" transform="translate(816 262.584) rotate(0) scale(0.047999997)">
<use href="#path19" transform="translate(0 0)"/>
</g>
</g>
<g>
<g data-source-text="" fill="#20242e40" transform="translate(888 262.584) rotate(0) scale(0.047999997)">
<use href="#path19" transform="translate(0 0)"/>
</g>
</g>
<g>
<g data-source-text="" fill="#20242e40" transform="translate(960 262.584) rotate(0) scale(0.047999997)">
<use href="#path19" transform="translate(0 0)"/>
</g>
</g>
<g>
<g data-source-text="" fill="#20242e40" transform="translate(1032 262.584) rotate(0) scale(0.047999997)">
<use href="#path19" transform="translate(0 0)"/>
</g>
</g>
<g>
<g data-source-text="" fill="#20242e40" transform="translate(1104 262.584) rotate(0) scale(0.047999997)">
<use href="#path19" transform="translate(0 0)"/>
</g>
</g>
<g>
<g data-source-text="" fill="#20242e40" transform="translate(1176 262.584) rotate(0) scale(0.047999997)">
<use href="#path19" transform="translate(0 0)"/>
</g>
</g>
<g>
<g data-source-text="" fill="#20242e40" transform="translate(1248 262.584) rotate(0) scale(0.047999997)">
<use href="#path19" transform="translate(0 0)"/>
</g>
</g>
<g>
<g data-source-text="U+2730" fill="#20242e" transform="translate(36 329.292) rotate(0) scale(0.023999998)">
<use href="#path17" transform="translate(0 0)"/>
<use href="#path18" transform="translate(500 0)"/>
<use href="#path3" transform="translate(1000 0)"/>
<use href="#path8" transform="translate(1500 0)"/>
<use href="#path4" transform="translate(2000 0)"/>
<use href="#path1" transform="translate(2500 0)"/>
</g>
</g>
<g>
<g data-source-text="" fill="#20242e40" transform="translate(168 334.584) rotate(0) scale(0.047999997)">
<use href="#path19" transform="translate(0 0)"/>
</g>
</g>
<g>
<g data-source-text="" fill="#20242e" transform="translate(228 334.584) rotate(0) scale(0.047999997)">
<use href="#path31" transform="translate(0 0)"/>
</g>
</g>
<g>
<g data-source-text="" fill="#20242e40" transform="translate(312 334.584) rotate(0) scale(0.047999997)">
<use href="#path19" transform="translate(0 0)"/>
</g>
</g>
<g>
<g data-source-text="" fill="#20242e" transform="translate(372 334.584) rotate(0) scale(0.047999997)">
<use href="#path32" transform="translate(0 0)"/>
</g>
</g>
<g>
<g data-source-text="" fill="#20242e" transform="translate(444 334.584) rotate(0) scale(0.047999997)">
<use href="#path33" transform="translate(0 0)"/>
</g>
</g>
<g>
<g data-source-text="" fill="#20242e40" transform="translate(528 334.584) rotate(0) scale(0.047999997)">
<use href="#path19" transform="translate(0 0)"/>
</g>
</g>
<g>
<g data-source-text="" fill="#20242e" transform="translate(588 334.584) rotate(0) scale(0.047999997)">
<use href="#path34" transform="translate(0 0)"/>
</g>
</g>
<g>
<g data-source-text="" fill="#20242e" transform="translate(660 334.584) rotate(0) scale(0.047999997)">
<use href="#path35" transform="translate(0 0)"/>
</g>
</g>
<g>
<g data-source-text="" fill="#20242e" transform="translate(732 334.584) rotate(0) scale(0.047999997)">
<use href="#path36" transform="translate(0 0)"/>
</g>
</g>
<g>
<g data-source-text="" fill="#20242e" transform="translate(804 334.584) rotate(0) scale(0.047999997)">
<use href="#path37" transform="translate(0 0)"/>
</g>
</g>
<g>
<g data-source-text="" fill="#20242e" transform="translate(876 334.584) rotate(0) scale(0.047999997)">
<use href="#path38" transform="translate(0 0)"/>
</g>
</g>
<g>
<g data-source-text="" fill="#20242e40" transform="translate(960 334.584) rotate(0) scale(0.047999997)">
<use href="#path19" transform="translate(0 0)"/>
</g>
</g>
<g>
<g data-source-text="" fill="#20242e40" transform="translate(1032 334.584) rotate(0) scale(0.047999997)">
<use href="#path19" transform="translate(0 0)"/>
</g>
</g>
<g>
<g data-source-text="" fill="#20242e40" transform="translate(1104 334.584) rotate(0) scale(0.047999997)">
<use href="#path19" transform="translate(0 0)"/>
</g>
</g>
<g>
<g data-source-text="" fill="#20242e40" transform="translate(1176 334.584) rotate(0) scale(0.047999997)">
<use href="#path19" transform="translate(0 0)"/>
</g>
</g>
<g>
<g data-source-text="" fill="#20242e40" transform="translate(1248 334.584) rotate(0) scale(0.047999997)">
<use href="#path19" transform="translate(0 0)"/>
</g>
</g>
<g>
<g data-source-text="U+2740" fill="#20242e" transform="translate(36 401.292) rotate(0) scale(0.023999998)">
<use href="#path17" transform="translate(0 0)"/>
<use href="#path18" transform="translate(500 0)"/>
<use href="#path3" transform="translate(1000 0)"/>
<use href="#path8" transform="translate(1500 0)"/>
<use href="#path5" transform="translate(2000 0)"/>
<use href="#path1" transform="translate(2500 0)"/>
</g>
</g>
<g>
<g data-source-text="" fill="#20242e40" transform="translate(168 406.584) rotate(0) scale(0.047999997)">
<use href="#path19" transform="translate(0 0)"/>
</g>
</g>
<g>
<g data-source-text="" fill="#20242e40" transform="translate(240 406.584) rotate(0) scale(0.047999997)">
<use href="#path19" transform="translate(0 0)"/>
</g>
</g>
<g>
<g data-source-text="" fill="#20242e40" transform="translate(312 406.584) rotate(0) scale(0.047999997)">
<use href="#path19" transform="translate(0 0)"/>
</g>
</g>
<g>
<g data-source-text="" fill="#20242e40" transform="translate(384 406.584) rotate(0) scale(0.047999997)">
<use href="#path19" transform="translate(0 0)"/>
</g>
</g>
<g>
<g data-source-text="" fill="#20242e40" transform="translate(456 406.584) rotate(0) scale(0.047999997)">
<use href="#path19" transform="translate(0 0)"/>
</g>
</g>
<g>
<g data-source-text="" fill="#20242e40" transform="translate(528 406.584) rotate(0) scale(0.047999997)">
<use href="#path19" transform="translate(0 0)"/>
</g>
</g>
<g>
<g data-source-text="" fill="#20242e40" transform="translate(600 406.584) rotate(0) scale(0.047999997)">
<use href="#path19" transform="translate(0 0)"/>
</g>
</g>
<g>
<g data-source-text="" fill="#20242e40" transform="translate(672 406.584) rotate(0) scale(0.047999997)">
<use href="#path19" transform="translate(0 0)"/>
</g>
</g>
<g>
<g data-source-text="" fill="#20242e40" transform="translate(744 406.584) rotate(0) scale(0.047999997)">
<use href="#path19" transform="translate(0 0)"/>
</g>
</g>
<g>
<g data-source-text="" fill="#20242e40" transform="translate(816 406.584) rotate(0) scale(0.047999997)">
<use href="#path19" transform="translate(0 0)"/>
</g>
</g>
<g>
<g data-source-text="" fill="#20242e40" transform="translate(888 406.584) rotate(0) scale(0.047999997)">
<use href="#path19" transform="translate(0 0)"/>
</g>
</g>
<g>
<g data-source-text="" fill="#20242e40" transform="translate(960 406.584) rotate(0) scale(0.047999997)">
<use href="#path19" transform="translate(0 0)"/>
</g>
</g>
<g>
<g data-source-text="" fill="#20242e" transform="translate(1020 406.584) rotate(0) scale(0.047999997)">
<use href="#path39" transform="translate(0 0)"/>
</g>
</g>
<g>
<g data-source-text="" fill="#20242e40" transform="translate(1104 406.584) rotate(0) scale(0.047999997)">
<use href="#path19" transform="translate(0 0)"/>
</g>
</g>
<g>
<g data-source-text="" fill="#20242e40" transform="translate(1176 406.584) rotate(0) scale(0.047999997)">
<use href="#path19" transform="translate(0 0)"/>
</g>
</g>
<g>
<g data-source-text="" fill="#20242e40" transform="translate(1248 406.584) rotate(0) scale(0.047999997)">
<use href="#path19" transform="translate(0 0)"/>
</g>
</g>
<g>
<g data-source-text="U+2750" fill="#20242e" transform="translate(36 473.292) rotate(0) scale(0.023999998)">
<use href="#path17" transform="translate(0 0)"/>
<use href="#path18" transform="translate(500 0)"/>
<use href="#path3" transform="translate(1000 0)"/>
<use href="#path8" transform="translate(1500 0)"/>
<use href="#path6" transform="translate(2000 0)"/>
<use href="#path1" transform="translate(2500 0)"/>
</g>
</g>
<g>
<g data-source-text="" fill="#20242e40" transform="translate(168 478.584) rotate(0) scale(0.047999997)">
<use href="#path19" transform="translate(0 0)"/>
</g>
</g>
<g>
<g data-source-text="" fill="#20242e40" transform="translate(240 478.584) rotate(0) scale(0.047999997)">
<use href="#path19" transform="translate(0 0)"/>
</g>
</g>
<g>
<g data-source-text="" fill="#20242e40" transform="translate(312 478.584) rotate(0) scale(0.047999997)">
<use href="#path19" transform="translate(0 0)"/>
</g>
</g>
<g>
<g data-source-text="" fill="#20242e40" transform="translate(384 478.584) rotate(0) scale(0.047999997)">
<use href="#path19" transform="translate(0 0)"/>
</g>
</g>
<g>
<g data-source-text="" fill="#20242e40" transform="translate(456 478.584) rotate(0) scale(0.047999997)">
<use href="#path19" transform="translate(0 0)"/>
</g>
</g>
<g>
<g data-source-text="" fill="#20242e40" transform="translate(528 478.584) rotate(0) scale(0.047999997)">
<use href="#path19" transform="translate(0 0)"/>
</g>
</g>
<g>
<g data-source-text="" fill="#20242e" transform="translate(588 478.584) rotate(0) scale(0.047999997)">
<use href="#path40" transform="translate(0 0)"/>
</g>
</g>
<g>
<g data-source-text="" fill="#20242e40" transform="translate(672 478.584) rotate(0) scale(0.047999997)">
<use href="#path19" transform="translate(0 0)"/>
</g>
</g>
<g>
<g data-source-text="" fill="#20242e" transform="translate(732 478.584) rotate(0) scale(0.047999997)">
<use href="#path41" transform="translate(0 0)"/>
</g>
</g>
<g>
<g data-source-text="" fill="#20242e" transform="translate(804 478.584) rotate(0) scale(0.047999997)">
<use href="#path42" transform="translate(0 0)"/>
</g>
</g>
<g>
<g data-source-text="" fill="#20242e" transform="translate(876 478.584) rotate(0) scale(0.047999997)">
<use href="#path43" transform="translate(0 0)"/>
</g>
</g>
<g>
<g data-source-text="" fill="#20242e40" transform="translate(960 478.584) rotate(0) scale(0.047999997)">
<use href="#path19" transform="translate(0 0)"/>
</g>
</g>
<g>
<g data-source-text="" fill="#20242e40" transform="translate(1032 478.584) rotate(0) scale(0.047999997)">
<use href="#path19" transform="translate(0 0)"/>
</g>
</g>
<g>
<g data-source-text="" fill="#20242e40" transform="translate(1104 478.584) rotate(0) scale(0.047999997)">
<use href="#path19" transform="translate(0 0)"/>
</g>
</g>
<g>
<g data-source-text="" fill="#20242e40" transform="translate(1176 478.584) rotate(0) scale(0.047999997)">
<use href="#path19" transform="translate(0 0)"/>
</g>
</g>
<g>
<g data-source-text="" fill="#20242e40" transform="translate(1248 478.584) rotate(0) scale(0.047999997)">
<use href="#path19" transform="translate(0 0)"/>
</g>
</g>
<g>
<g data-source-text="U+2760" fill="#20242e" transform="translate(36 545.292) rotate(0) scale(0.023999998)">
<use href="#path17" transform="translate(0 0)"/>
<use href="#path18" transform="translate(500 0)"/>
<use href="#path3" transform="translate(1000 0)"/>
<use href="#path8" transform="translate(1500 0)"/>
<use href="#path7" transform="translate(2000 0)"/>
<use href="#path1" transform="translate(2500 0)"/>
</g>
</g>
<g>
<g data-source-text="" fill="#20242e40" transform="translate(168 550.584) rotate(0) scale(0.047999997)">
<use href="#path19" transform="translate(0 0)"/>
</g>
</g>
<g>
<g data-source-text="" fill="#20242e40" transform="translate(240 550.584) rotate(0) scale(0.047999997)">
<use href="#path19" transform="translate(0 0)"/>
</g>
</g>
<g>
<g data-source-text="" fill="#20242e40" transform="translate(312 550.584) rotate(0) scale(0.047999997)">
<use href="#path19" transform="translate(0 0)"/>
</g>
</g>
<g>
<g data-source-text="" fill="#20242e40" transform="translate(384 550.584) rotate(0) scale(0.047999997)">
<use href="#path19" transform="translate(0 0)"/>
</g>
</g>
<g>
<g data-source-text="" fill="#20242e" transform="translate(444 550.584) rotate(0) scale(0.047999997)">
<use href="#path44" transform="translate(0 0)"/>
</g>
</g>
<g>
<g data-source-text="" fill="#20242e40" transform="translate(528 550.584) rotate(0) scale(0.047999997)">
<use href="#path19" transform="translate(0 0)"/>
</g>
</g>
<g>
<g data-source-text="" fill="#20242e40" transform="translate(600 550.584) rotate(0) scale(0.047999997)">
<use href="#path19" transform="translate(0 0)"/>
</g>
</g>
<g>
<g data-source-text="" fill="#20242e40" transform="translate(672 550.584) rotate(0) scale(0.047999997)">
<use href="#path19" transform="translate(0 0)"/>
</g>
</g>
<g>
<g data-source-text="" fill="#20242e40" transform="translate(744 550.584) rotate(0) scale(0.047999997)">
<use href="#path19" transform="translate(0 0)"/>
</g>
</g>
<g>
<g data-source-text="" fill="#20242e40" transform="translate(816 550.584) rotate(0) scale(0.047999997)">
<use href="#path19" transform="translate(0 0)"/>
</g>
</g>
<g>
<g data-source-text="" fill="#20242e40" transform="translate(888 550.584) rotate(0) scale(0.047999997)">
<use href="#path19" transform="translate(0 0)"/>
</g>
</g>
<g>
<g data-source-text="" fill="#20242e40" transform="translate(960 550.584) rotate(0) scale(0.047999997)">
<use href="#path19" transform="translate(0 0)"/>
</g>
</g>
<g>
<g data-source-text="" fill="#20242e" transform="translate(1032 550.584) rotate(0) scale(0.047999997)">
<use href="#path45" transform="translate(0 0)"/>
</g>
</g>
<g>
<g data-source-text="" fill="#20242e" transform="translate(1104 550.584) rotate(0) scale(0.047999997)">
<use href="#path46" transform="translate(0 0)"/>
</g>
</g>
<g>
<g data-source-text="" fill="#20242e" transform="translate(1176 550.584) rotate(0) scale(0.047999997)">
<use href="#path47" transform="translate(0 0)"/>
</g>
</g>
<g>
<g data-source-text="" fill="#20242e" transform="translate(1248 550.584) rotate(0) scale(0.047999997)">
<use href="#path48" transform="translate(0 0)"/>
</g>
</g>
<g>
<g data-source-text="U+2770" fill="#20242e" transform="translate(36 617.292) rotate(0) scale(0.023999998)">
<use href="#path17" transform="translate(0 0)"/>
<use href="#path18" transform="translate(500 0)"/>
<use href="#path3" transform="translate(1000 0)"/>
<use href="#path8" transform="translate(1500 0)"/>
<use href="#path8" transform="translate(2000 0)"/>
<use href="#path1" transform="translate(2500 0)"/>
</g>
</g>
<g>
<g data-source-text="" fill="#20242e" transform="translate(168 622.584) rotate(0) scale(0.047999997)">
<use href="#path49" transform="translate(0 0)"/>
</g>
</g>
<g>
<g data-source-text="" fill="#20242e" transform="translate(240 622.584) rotate(0) scale(0.047999997)">
<use href="#path50" transform="translate(0 0)"/>
</g>
</g>
<g>
<g data-source-text="" fill="#20242e40" transform="translate(312 622.584) rotate(0) scale(0.047999997)">
<use href="#path19" transform="translate(0 0)"/>
</g>
</g>
<g>
<g data-source-text="" fill="#20242e40" transform="translate(384 622.584) rotate(0) scale(0.047999997)">
<use href="#path19" transform="translate(0 0)"/>
</g>
</g>
<g>
<g data-source-text="" fill="#20242e40" transform="translate(456 622.584) rotate(0) scale(0.047999997)">
<use href="#path19" transform="translate(0 0)"/>
</g>
</g>
<g>
<g data-source-text="" fill="#20242e40" transform="translate(528 622.584) rotate(0) scale(0.047999997)">
<use href="#path19" transform="translate(0 0)"/>
</g>
</g>
<g>
<g data-source-text="" fill="#20242e" transform="translate(588 622.584) rotate(0) scale(0.047999997)">
<use href="#path51" transform="translate(0 0)"/>
</g>
</g>
<g>
<g data-source-text="" fill="#20242e" transform="translate(660 622.584) rotate(0) scale(0.047999997)">
<use href="#path52" transform="translate(0 0)"/>
</g>
</g>
<g>
<g data-source-text="" fill="#20242e" transform="translate(732 622.584) rotate(0) scale(0.047999997)">
<use href="#path53" transform="translate(0 0)"/>
</g>
</g>
<g>
<g data-source-text="" fill="#20242e" transform="translate(804 622.584) rotate(0) scale(0.047999997)">
<use href="#path54" transform="translate(0 0)"/>
</g>
</g>
<g>
<g data-source-text="" fill="#20242e" transform="translate(876 622.584) rotate(0) scale(0.047999997)">
<use href="#path55" transform="translate(0 0)"/>
</g>
</g>
<g>
<g data-source-text="" fill="#20242e" transform="translate(948 622.584) rotate(0) scale(0.047999997)">
<use href="#path56" transform="translate(0 0)"/>
</g>
</g>
<g>
<g data-source-text="" fill="#20242e" transform="translate(1020 622.584) rotate(0) scale(0.047999997)">
<use href="#path57" transform="translate(0 0)"/>
</g>
</g>
<g>
<g data-source-text="" fill="#20242e" transform="translate(1092 622.584) rotate(0) scale(0.047999997)">
<use href="#path58" transform="translate(0 0)"/>
</g>
</g>
<g>
<g data-source-text="" fill="#20242e" transform="translate(1164 622.584) rotate(0) scale(0.047999997)">
<use href="#path59" transform="translate(0 0)"/>
</g>
</g>
<g>
<g data-source-text="" fill="#20242e" transform="translate(1236 622.584) rotate(0) scale(0.047999997)">
<use href="#path60" transform="translate(0 0)"/>
</g>
</g>
<g>
<g data-source-text="U+2780" fill="#20242e" transform="translate(36 689.292) rotate(0) scale(0.023999998)">
<use href="#path17" transform="translate(0 0)"/>
<use href="#path18" transform="translate(500 0)"/>
<use href="#path3" transform="translate(1000 0)"/>
<use href="#path8" transform="translate(1500 0)"/>
<use href="#path9" transform="translate(2000 0)"/>
<use href="#path1" transform="translate(2500 0)"/>
</g>
</g>
<g>
<g data-source-text="" fill="#20242e" transform="translate(156 694.584) rotate(0) scale(0.047999997)">
<use href="#path61" transform="translate(0 0)"/>
</g>
</g>
<g>
<g data-source-text="" fill="#20242e" transform="translate(228 694.584) rotate(0) scale(0.047999997)">
<use href="#path62" transform="translate(0 0)"/>
</g>
</g>
<g>
<g data-source-text="" fill="#20242e" transform="translate(300 694.584) rotate(0) scale(0.047999997)">
<use href="#path63" transform="translate(0 0)"/>
</g>
</g>
<g>
<g data-source-text="" fill="#20242e" transform="translate(372 694.584) rotate(0) scale(0.047999997)">
<use href="#path64" transform="translate(0 0)"/>
</g>
</g>
<g>
<g data-source-text="" fill="#20242e" transform="translate(444 694.584) rotate(0) scale(0.047999997)">
<use href="#path65" transform="translate(0 0)"/>
</g>
</g>
<g>
<g data-source-text="" fill="#20242e" transform="translate(516 694.584) rotate(0) scale(0.047999997)">
<use href="#path66" transform="translate(0 0)"/>
</g>
</g>
<g>
<g data-source-text="" fill="#20242e" transform="translate(588 694.584) rotate(0) scale(0.047999997)">
<use href="#path67" transform="translate(0 0)"/>
</g>
</g>
<g>
<g data-source-text="" fill="#20242e" transform="translate(660 694.584) rotate(0) scale(0.047999997)">
<use href="#path68" transform="translate(0 0)"/>
</g>
</g>
<g>
<g data-source-text="" fill="#20242e" transform="translate(732 694.584) rotate(0) scale(0.047999997)">
<use href="#path69" transform="translate(0 0)"/>
</g>
</g>
<g>
<g data-source-text="" fill="#20242e" transform="translate(804 694.584) rotate(0) scale(0.047999997)">
<use href="#path70" transform="translate(0 0)"/>
</g>
</g>
<g>
<g data-source-text="" fill="#20242e" transform="translate(876 694.584) rotate(0) scale(0.047999997)">
<use href="#path51" transform="translate(0 0)"/>
</g>
</g>
<g>
<g data-source-text="" fill="#20242e" transform="translate(948 694.584) rotate(0) scale(0.047999997)">
<use href="#path52" transform="translate(0 0)"/>
</g>
</g>
<g>
<g data-source-text="" fill="#20242e" transform="translate(1020 694.584) rotate(0) scale(0.047999997)">
<use href="#path53" transform="translate(0 0)"/>
</g>
</g>
<g>
<g data-source-text="" fill="#20242e" transform="translate(1092 694.584) rotate(0) scale(0.047999997)">
<use href="#path54" transform="translate(0 0)"/>
</g>
</g>
<g>
<g data-source-text="" fill="#20242e" transform="translate(1164 694.584) rotate(0) scale(0.047999997)">
<use href="#path55" transform="translate(0 0)"/>
</g>
</g>
<g>
<g data-source-text="" fill="#20242e" transform="translate(1236 694.584) rotate(0) scale(0.047999997)">
<use href="#path56" transform="translate(0 0)"/>
</g>
</g>
<g>
<g data-source-text="U+2790" fill="#20242e" transform="translate(36 761.292) rotate(0) scale(0.023999998)">
<use href="#path17" transform="translate(0 0)"/>
<use href="#path18" transform="translate(500 0)"/>
<use href="#path3" transform="translate(1000 0)"/>
<use href="#path8" transform="translate(1500 0)"/>
<use href="#path10" transform="translate(2000 0)"/>
<use href="#path1" transform="translate(2500 0)"/>
</g>
</g>
<g>
<g data-source-text="" fill="#20242e" transform="translate(156 766.584) rotate(0) scale(0.047999997)">
<use href="#path57" transform="translate(0 0)"/>
</g>
</g>
<g>
<g data-source-text="" fill="#20242e" transform="translate(228 766.584) rotate(0) scale(0.047999997)">
<use href="#path58" transform="translate(0 0)"/>
</g>
</g>
<g>
<g data-source-text="" fill="#20242e" transform="translate(300 766.584) rotate(0) scale(0.047999997)">
<use href="#path59" transform="translate(0 0)"/>
</g>
</g>
<g>
<g data-source-text="" fill="#20242e" transform="translate(372 766.584) rotate(0) scale(0.047999997)">
<use href="#path60" transform="translate(0 0)"/>
</g>
</g>
<g>
<g data-source-text="" fill="#20242e" transform="translate(444 766.584) rotate(0) scale(0.047999997)">
<use href="#path71" transform="translate(0 0)"/>
</g>
</g>
<g>
<g data-source-text="" fill="#20242e40" transform="translate(528 766.584) rotate(0) scale(0.047999997)">
<use href="#path19" transform="translate(0 0)"/>
</g>
</g>
<g>
<g data-source-text="" fill="#20242e40" transform="translate(600 766.584) rotate(0) scale(0.047999997)">
<use href="#path19" transform="translate(0 0)"/>
</g>
</g>
<g>
<g data-source-text="" fill="#20242e40" transform="translate(672 766.584) rotate(0) scale(0.047999997)">
<use href="#path19" transform="translate(0 0)"/>
</g>
</g>
<g>
<g data-source-text="" fill="#20242e40" transform="translate(744 766.584) rotate(0) scale(0.047999997)">
<use href="#path19" transform="translate(0 0)"/>
</g>
</g>
<g>
<g data-source-text="" fill="#20242e40" transform="translate(816 766.584) rotate(0) scale(0.047999997)">
<use href="#path19" transform="translate(0 0)"/>
</g>
</g>
<g>
<g data-source-text="" fill="#20242e40" transform="translate(888 766.584) rotate(0) scale(0.047999997)">
<use href="#path19" transform="translate(0 0)"/>
</g>
</g>
<g>
<g data-source-text="" fill="#20242e40" transform="translate(960 766.584) rotate(0) scale(0.047999997)">
<use href="#path19" transform="translate(0 0)"/>
</g>
</g>
<g>
<g data-source-text="" fill="#20242e" transform="translate(1020 766.584) rotate(0) scale(0.047999997)">
<use href="#path72" transform="translate(0 0)"/>
</g>
</g>
<g>
<g data-source-text="" fill="#20242e" transform="translate(1092 766.584) rotate(0) scale(0.047999997)">
<use href="#path73" transform="translate(0 0)"/>
</g>
</g>
<g>
<g data-source-text="" fill="#20242e" transform="translate(1164 766.584) rotate(0) scale(0.047999997)">
<use href="#path74" transform="translate(0 0)"/>
</g>
</g>
<g>
<g data-source-text="" fill="#20242e40" transform="translate(1248 766.584) rotate(0) scale(0.047999997)">
<use href="#path19" transform="translate(0 0)"/>
</g>
</g>
<g>
<g data-source-text="U+27A0" fill="#20242e" transform="translate(36 833.292) rotate(0) scale(0.023999998)">
<use href="#path17" transform="translate(0 0)"/>
<use href="#path18" transform="translate(500 0)"/>
<use href="#path3" transform="translate(1000 0)"/>
<use href="#path8" transform="translate(1500 0)"/>
<use href="#path11" transform="translate(2000 0)"/>
<use href="#path1" transform="translate(2500 0)"/>
</g>
</g>
<g>
<g data-source-text="" fill="#20242e40" transform="translate(168 838.584) rotate(0) scale(0.047999997)">
<use href="#path19" transform="translate(0 0)"/>
</g>
</g>
<g>
<g data-source-text="" fill="#20242e" transform="translate(228 838.584) rotate(0) scale(0.047999997)">
<use href="#path75" transform="translate(0 0)"/>
</g>
</g>
<g>
<g data-source-text="" fill="#20242e" transform="translate(300 838.584) rotate(0) scale(0.047999997)">
<use href="#path76" transform="translate(0 0)"/>
</g>
</g>
<g>
<g data-source-text="" fill="#20242e" transform="translate(372 838.584) rotate(0) scale(0.047999997)">
<use href="#path77" transform="translate(0 0)"/>
</g>
</g>
<g>
<g data-source-text="" fill="#20242e" transform="translate(444 838.584) rotate(0) scale(0.047999997)">
<use href="#path78" transform="translate(0 0)"/>
</g>
</g>
<g>
<g data-source-text="" fill="#20242e" transform="translate(516 838.584) rotate(0) scale(0.047999997)">
<use href="#path79" transform="translate(0 0)"/>
</g>
</g>
<g>
<g data-source-text="" fill="#20242e" transform="translate(588 838.584) rotate(0) scale(0.047999997)">
<use href="#path80" transform="translate(0 0)"/>
</g>
</g>
<g>
<g data-source-text="" fill="#20242e" transform="translate(660 838.584) rotate(0) scale(0.047999997)">
<use href="#path81" transform="translate(0 0)"/>
</g>
</g>
<g>
<g data-source-text="" fill="#20242e40" transform="translate(744 838.584) rotate(0) scale(0.047999997)">
<use href="#path19" transform="translate(0 0)"/>
</g>
</g>
<g>
<g data-source-text="" fill="#20242e40" transform="translate(816 838.584) rotate(0) scale(0.047999997)">
<use href="#path19" transform="translate(0 0)"/>
</g>
</g>
<g>
<g data-source-text="" fill="#20242e40" transform="translate(888 838.584) rotate(0) scale(0.047999997)">
<use href="#path19" transform="translate(0 0)"/>
</g>
</g>
<g>
<g data-source-text="" fill="#20242e40" transform="translate(960 838.584) rotate(0) scale(0.047999997)">
<use href="#path19" transform="translate(0 0)"/>
</g>
</g>
<g>
<g data-source-text="" fill="#20242e40" transform="translate(1032 838.584) rotate(0) scale(0.047999997)">
<use href="#path19" transform="translate(0 0)"/>
</g>
</g>
<g>
<g data-source-text="" fill="#20242e40" transform="translate(1104 838.584) rotate(0) scale(0.047999997)">
<use href="#path19" transform="translate(0 0)"/>
</g>
</g>
<g>
<g data-source-text="" fill="#20242e40" transform="translate(1176 838.584) rotate(0) scale(0.047999997)">
<use href="#path19" transform="translate(0 0)"/>
</g>
</g>
<g>
<g data-source-text="" fill="#20242e40" transform="translate(1248 838.584) rotate(0) scale(0.047999997)">
<use href="#path19" transform="translate(0 0)"/>
</g>
</g>
<g>
<g data-source-text="U+27B0" fill="#20242e" transform="translate(36 905.292) rotate(0) scale(0.023999998)">
<use href="#path17" transform="translate(0 0)"/>
<use href="#path18" transform="translate(500 0)"/>
<use href="#path3" transform="translate(1000 0)"/>
<use href="#path8" transform="translate(1500 0)"/>
<use href="#path12" transform="translate(2000 0)"/>
<use href="#path1" transform="translate(2500 0)"/>
</g>
</g>
<g>
<g data-source-text="" fill="#20242e" transform="translate(156 910.584) rotate(0) scale(0.047999997)">
<use href="#path82" transform="translate(0 0)"/>
</g>
</g>
<g>
<g data-source-text="" fill="#20242e40" transform="translate(240 910.584) rotate(0) scale(0.047999997)">
<use href="#path19" transform="translate(0 0)"/>
</g>
</g>
<g>
<g data-source-text="" fill="#20242e40" transform="translate(312 910.584) rotate(0) scale(0.047999997)">
<use href="#path19" transform="translate(0 0)"/>
</g>
</g>
<g>
<g data-source-text="" fill="#20242e40" transform="translate(384 910.584) rotate(0) scale(0.047999997)">
<use href="#path19" transform="translate(0 0)"/>
</g>
</g>
<g>
<g data-source-text="" fill="#20242e40" transform="translate(456 910.584) rotate(0) scale(0.047999997)">
<use href="#path19" transform="translate(0 0)"/>
</g>
</g>
<g>
<g data-source-text="" fill="#20242e40" transform="translate(528 910.584) rotate(0) scale(0.047999997)">
<use href="#path19" transform="translate(0 0)"/>
</g>
</g>
<g>
<g data-source-text="" fill="#20242e40" transform="translate(600 910.584) rotate(0) scale(0.047999997)">
<use href="#path19" transform="translate(0 0)"/>
</g>
</g>
<g>
<g data-source-text="" fill="#20242e40" transform="translate(672 910.584) rotate(0) scale(0.047999997)">
<use href="#path19" transform="translate(0 0)"/>
</g>
</g>
<g>
<g data-source-text="" fill="#20242e40" transform="translate(744 910.584) rotate(0) scale(0.047999997)">
<use href="#path19" transform="translate(0 0)"/>
</g>
</g>
<g>
<g data-source-text="" fill="#20242e40" transform="translate(816 910.584) rotate(0) scale(0.047999997)">
<use href="#path19" transform="translate(0 0)"/>
</g>
</g>
<g>
<g data-source-text="" fill="#20242e40" transform="translate(888 910.584) rotate(0) scale(0.047999997)">
<use href="#path19" transform="translate(0 0)"/>
</g>
</g>
<g>
<g data-source-text="" fill="#20242e40" transform="translate(960 910.584) rotate(0) scale(0.047999997)">
<use href="#path19" transform="translate(0 0)"/>
</g>
</g>
<g>
<g data-source-text="" fill="#20242e40" transform="translate(1032 910.584) rotate(0) scale(0.047999997)">
<use href="#path19" transform="translate(0 0)"/>
</g>
</g>
<g>
<g data-source-text="" fill="#20242e40" transform="translate(1104 910.584) rotate(0) scale(0.047999997)">
<use href="#path19" transform="translate(0 0)"/>
</g>
</g>
<g>
<g data-source-text="" fill="#20242e40" transform="translate(1176 910.584) rotate(0) scale(0.047999997)">
<use href="#path19" transform="translate(0 0)"/>
</g>
</g>
<g>
<g data-source-text="" fill="#20242e" transform="translate(1236 910.584) rotate(0) scale(0.047999997)">
<use href="#path83" transform="translate(0 0)"/>
</g>
</g>
</svg>