<?xml version="1.0" encoding="UTF-8" standalone="no"?>
<svg height="144" viewBox="0 0 1296 144" width="1296" xmlns="http://www.w3.org/2000/svg">
<defs>
<path d="M 250 8 Q 223 8 196 3 Q 169 -2 145 -15 Q 121 -28 102.5 -48.5 Q 84 -69 72.5 -94 Q 61 -119 56.5 -146 Q 52 -173 52 -200 L 52 -535 Q 52 -562 56.5 -589 Q 61 -616 72.5 -641 Q 84 -666 102.5 -686.5 Q 121 -707 145 -720 Q 169 -733 196 -738 Q 223 -743 250 -743 Q 277 -743 304 -738 Q 331 -733 355 -720 Q 379 -707 397.5 -686.5 Q 416 -666 427.5 -641 Q 439 -616 443.5 -589 Q 448 -562 448 -535 L 448 -200 Q 448 -173 443.5 -146 Q 439 -119 427.5 -94 Q 416 -69 397.5 -48.5 Q 379 -28 355 -15 Q 331 -2 304 3 Q 277 8 250 8 Z M 152 -337 L 348 -492 L 348 -535 Q 348 -557 343 -579 Q 338 -601 325.5 -618.5 Q 313 -636 292.5 -645.5 Q 272 -655 250 -655 Q 228 -655 207.5 -645.5 Q 187 -636 174.5 -618.5 Q 162 -601 157 -579 Q 152 -557 152 -535 Z M 250 -80 Q 272 -80 292.5 -89.5 Q 313 -99 325.5 -116.5 Q 338 -134 343 -156 Q 348 -178 348 -200 L 348 -398 L 152 -243 L 152 -200 Q 152 -178 157 -156 Q 162 -134 174.5 -116.5 Q 187 -99 207.5 -89.5 Q 228 -80 250 -80 Z " id="path1"/>
<path d="M 230 0 L 230 -631 L 110 -528 L 55 -584 L 230 -735 L 330 -735 L 330 0 Z " id="path2"/>
<path d="M 60 0 L 60 -1 Q 60 -27 61 -54 Q 62 -81 65.5 -107 Q 69 -133 77 -158.5 Q 85 -184 96.5 -208 Q 108 -232 123 -253.5 Q 138 -275 156 -294.5 Q 174 -314 194 -331 Q 214 -348 235.5 -364 Q 257 -380 277.5 -397 Q 298 -414 313 -435.5 Q 328 -457 336 -483 Q 344 -509 344 -535 Q 344 -557 339.5 -578 Q 335 -599 323.5 -617 Q 312 -635 292 -645 Q 272 -655 251 -655 Q 231 -655 212.5 -647.5 Q 194 -640 181.5 -625 Q 169 -610 163.5 -591 Q 158 -572 158 -552 L 158 -548 L 58 -548 L 58 -555 Q 58 -581 63.5 -606 Q 69 -631 81 -653 Q 93 -675 111.5 -693 Q 130 -711 152.5 -722.5 Q 175 -734 200.5 -738.5 Q 226 -743 251 -743 Q 278 -743 304.5 -737.5 Q 331 -732 354.5 -719 Q 378 -706 396 -685.5 Q 414 -665 425 -640.5 Q 436 -616 440 -589 Q 444 -562 444 -535 Q 444 -501 435 -468 Q 426 -435 407.5 -406 Q 389 -377 364 -353.5 Q 339 -330 312.5 -308.5 Q 286 -287 261 -264 Q 236 -241 216 -213 Q 196 -185 183 -153.5 Q 170 -122 165 -88 L 440 -88 L 440 0 Z " id="path3"/>
<path d="M 253 8 Q 227 8 201 4 Q 175 -0 151 -11.5 Q 127 -23 107.5 -40.5 Q 88 -58 75.5 -81 Q 63 -104 56.5 -129.5 Q 50 -155 50 -181 L 50 -187 L 150 -187 L 150 -184 Q 150 -163 157 -143 Q 164 -123 178 -108 Q 192 -93 212 -86.5 Q 232 -80 253 -80 Q 275 -80 296 -88.5 Q 317 -97 330.5 -114.5 Q 344 -132 350 -154 Q 356 -176 356 -198 Q 356 -217 352 -235.5 Q 348 -254 339 -271 Q 330 -288 316.5 -301 Q 303 -314 286 -322 Q 269 -330 250 -332 Q 231 -334 212 -334 L 212 -422 Q 229 -422 246 -424 Q 263 -426 278.5 -433 Q 294 -440 306 -452.5 Q 318 -465 325.5 -480.5 Q 333 -496 336.5 -513 Q 340 -530 340 -547 Q 340 -566 335.5 -585.5 Q 331 -605 320 -621.5 Q 309 -638 291 -646.5 Q 273 -655 253 -655 Q 234 -655 216 -647 Q 198 -639 187 -624 Q 176 -609 171 -590 Q 166 -571 166 -553 L 166 -548 L 66 -548 L 66 -556 Q 66 -581 71.5 -605.5 Q 77 -630 88 -652 Q 99 -674 116.5 -692.5 Q 134 -711 156.5 -722.5 Q 179 -734 203.5 -738.5 Q 228 -743 253 -743 Q 278 -743 303.5 -738 Q 329 -733 351 -721 Q 373 -709 390.5 -690 Q 408 -671 419 -648 Q 430 -625 435 -600 Q 440 -575 440 -550 Q 440 -524 434 -498.5 Q 428 -473 416 -450.5 Q 404 -428 385 -409.5 Q 366 -391 343 -379 Q 370 -368 391.5 -348.5 Q 413 -329 427.5 -304.5 Q 442 -280 449 -252 Q 456 -224 456 -196 Q 456 -168 450 -141.5 Q 444 -115 432 -91 Q 420 -67 401 -47 Q 382 -27 358 -14.5 Q 334 -2 307 3 Q 280 8 253 8 Z " id="path4"/>
<path d="M 282 0 L 282 -188 L 52 -188 L 52 -275 L 276 -735 L 385 -735 L 161 -275 L 282 -275 L 282 -435 L 383 -435 L 383 -275 L 440 -275 L 440 -188 L 383 -188 L 383 0 Z " id="path5"/>
<path d="M 252 8 Q 227 8 202.5 3.5 Q 178 -1 155.5 -12 Q 133 -23 114.5 -41 Q 96 -59 84 -80.5 Q 72 -102 65.5 -126.5 Q 59 -151 58 -176 L 159 -176 Q 160 -158 166.5 -139.5 Q 173 -121 185.5 -107 Q 198 -93 216 -86.5 Q 234 -80 252 -80 Q 269 -80 285 -87 Q 301 -94 312.5 -107 Q 324 -120 330.5 -135.5 Q 337 -151 341 -167.5 Q 345 -184 346.5 -201 Q 348 -218 348 -235 Q 348 -252 346.5 -269 Q 345 -286 341.5 -302.5 Q 338 -319 331.5 -334.5 Q 325 -350 314.5 -363 Q 304 -376 288 -383.5 Q 272 -391 256 -391 Q 240 -391 224 -387 Q 208 -383 195.5 -373.5 Q 183 -364 176 -349.5 Q 169 -335 168 -319 L 68 -319 L 68 -735 L 421 -735 L 421 -647 L 168 -647 L 168 -464 Q 189 -472 211 -475 Q 233 -478 256 -478 Q 285 -478 313.5 -470.5 Q 342 -463 365.5 -445.5 Q 389 -428 405.5 -403 Q 422 -378 431.5 -350.5 Q 441 -323 444.5 -294 Q 448 -265 448 -235 Q 448 -206 444.5 -176.5 Q 441 -147 431 -119 Q 421 -91 404.5 -66.5 Q 388 -42 364 -24.5 Q 340 -7 311 0.5 Q 282 8 252 8 Z " id="path6"/>
<path d="M 250 8 Q 221 8 192.5 1.5 Q 164 -5 140 -21 Q 116 -37 98.5 -60.5 Q 81 -84 70.5 -111 Q 60 -138 56 -166.5 Q 52 -195 52 -224 Q 52 -268 59.5 -311 Q 67 -354 81 -395.5 Q 95 -437 113 -477 Q 131 -517 150 -556 L 238 -735 L 347 -735 L 240 -517 Q 228 -493 216.5 -468.5 Q 205 -444 195 -419 Q 214 -438 239.5 -447 Q 265 -456 291 -456 Q 317 -456 342.5 -447 Q 368 -438 386.5 -419.5 Q 405 -401 417 -377.5 Q 429 -354 436 -328.5 Q 443 -303 445.5 -276.5 Q 448 -250 448 -224 Q 448 -195 444 -166.5 Q 440 -138 429.5 -111 Q 419 -84 401.5 -60.5 Q 384 -37 360 -21 Q 336 -5 307.5 1.5 Q 279 8 250 8 Z M 250 -80 Q 266 -80 282 -85.5 Q 298 -91 309.5 -102.5 Q 321 -114 328.5 -129 Q 336 -144 340.5 -159.5 Q 345 -175 346.5 -191.5 Q 348 -208 348 -224 Q 348 -240 346.5 -256.5 Q 345 -273 340.5 -289 Q 336 -305 328.5 -319.5 Q 321 -334 309.5 -345.5 Q 298 -357 282 -362.5 Q 266 -368 250 -368 Q 235 -368 221 -363.5 Q 207 -359 195.5 -349.5 Q 184 -340 176 -327.5 Q 168 -315 163.5 -301 Q 159 -287 156.5 -272.5 Q 154 -258 153 -243 Q 153 -238 152.5 -233.5 Q 152 -229 152 -224 Q 152 -208 153.5 -191.5 Q 155 -175 159.5 -159.5 Q 164 -144 171.5 -129 Q 179 -114 190.5 -102.5 Q 202 -91 218 -85.5 Q 234 -80 250 -80 Z " id="path7"/>
<path d="M 138 0 L 336 -647 L 60 -647 L 60 -735 L 440 -735 L 440 -647 L 242 0 Z " id="path8"/>
<path d="M 250 8 Q 225 8 200 4 Q 175 -0 152 -10 Q 129 -20 109.5 -37 Q 90 -54 77.5 -75.5 Q 65 -97 58.5 -121.5 Q 52 -146 52 -172 Q 52 -203 61.5 -232.5 Q 71 -262 88 -288.5 Q 105 -315 127 -336.5 Q 149 -358 174 -378 Q 152 -396 132.5 -417 Q 113 -438 98.5 -462.5 Q 84 -487 76 -514.5 Q 68 -542 68 -570 Q 68 -594 73.5 -617.5 Q 79 -641 90.5 -661.5 Q 102 -682 119.5 -698.5 Q 137 -715 158 -725 Q 179 -735 202.5 -739 Q 226 -743 250 -743 Q 274 -743 297.5 -739 Q 321 -735 342 -725 Q 363 -715 380.5 -698.5 Q 398 -682 409.5 -661.5 Q 421 -641 426.5 -617.5 Q 432 -594 432 -570 Q 432 -542 424 -514.5 Q 416 -487 401.5 -462.5 Q 387 -438 367.5 -417 Q 348 -396 326 -378 Q 351 -358 373 -336.5 Q 395 -315 412 -288.5 Q 429 -262 438.5 -232.5 Q 448 -203 448 -172 Q 448 -146 441.5 -121.5 Q 435 -97 422.5 -75.5 Q 410 -54 390.5 -37 Q 371 -20 348 -10 Q 325 -0 300 4 Q 275 8 250 8 Z M 250 -434 Q 266 -447 280.5 -461.5 Q 295 -476 306.5 -493 Q 318 -510 325 -529.5 Q 332 -549 332 -569 Q 332 -586 327 -602.5 Q 322 -619 310.5 -631.5 Q 299 -644 283 -649.5 Q 267 -655 250 -655 Q 233 -655 217 -649.5 Q 201 -644 189.5 -631.5 Q 178 -619 173 -602.5 Q 168 -586 168 -569 Q 168 -549 175 -529.5 Q 182 -510 193.5 -493 Q 205 -476 219.5 -461.5 Q 234 -447 250 -434 Z M 250 -80 Q 269 -80 288 -85.5 Q 307 -91 320.5 -104 Q 334 -117 341 -135.5 Q 348 -154 348 -173 Q 348 -196 339.5 -217.5 Q 331 -239 317 -257.5 Q 303 -276 285.5 -291 Q 268 -306 250 -320 Q 232 -306 214.5 -291 Q 197 -276 183 -257.5 Q 169 -239 160.5 -217.5 Q 152 -196 152 -173 Q 152 -154 159 -135.5 Q 166 -117 179.5 -104 Q 193 -91 212 -85.5 Q 231 -80 250 -80 Z " id="path9"/>
<path d="M 262 0 L 153 0 L 260 -218 Q 272 -242 283.5 -266.5 Q 295 -291 305 -316 Q 286 -297 260.5 -288 Q 235 -279 209 -279 Q 183 -279 157.5 -288 Q 132 -297 113.5 -315.5 Q 95 -334 83 -357.5 Q 71 -381 64 -406.5 Q 57 -432 54.5 -458.5 Q 52 -485 52 -511 Q 52 -540 56 -568.5 Q 60 -597 70.5 -624 Q 81 -651 98.5 -674.5 Q 116 -698 140 -714 Q 164 -730 192.5 -736.5 Q 221 -743 250 -743 Q 279 -743 307.5 -736.5 Q 336 -730 360 -714 Q 384 -698 401.5 -674.5 Q 419 -651 429.5 -624 Q 440 -597 444 -568.5 Q 448 -540 448 -511 Q 448 -467 440.5 -424 Q 433 -381 419 -339.5 Q 405 -298 387 -258 Q 369 -218 350 -179 Z M 250 -367 Q 265 -367 279 -371.5 Q 293 -376 304.5 -385.5 Q 316 -395 324 -407.5 Q 332 -420 336.5 -434 Q 341 -448 343.5 -462.5 Q 346 -477 347 -492 Q 347 -497 347.5 -501.5 Q 348 -506 348 -511 Q 348 -527 346.5 -543.5 Q 345 -560 340.5 -575.5 Q 336 -591 328.5 -606 Q 321 -621 309.5 -632.5 Q 298 -644 282 -649.5 Q 266 -655 250 -655 Q 234 -655 218 -649.5 Q 202 -644 190.5 -632.5 Q 179 -621 171.5 -606 Q 164 -591 159.5 -575.5 Q 155 -560 153.5 -543.5 Q 152 -527 152 -511 Q 152 -495 153.5 -478.5 Q 155 -462 159.5 -446 Q 164 -430 171.5 -415.5 Q 179 -401 190.5 -389.5 Q 202 -378 218 -372.5 Q 234 -367 250 -367 Z " id="path10"/>
<path d="M 39 0 L 53 -70 L 192 -735 L 308 -735 L 461 0 L 359 0 L 326 -172 L 174 -172 L 141 0 Z M 191 -260 L 309 -260 L 266 -490 Q 262 -511 258 -531.5 Q 254 -552 250 -573 Q 246 -552 242 -531.5 Q 238 -511 234 -490 Z " id="path11"/>
<path d="M 60 0 L 60 -735 L 235 -735 Q 261 -735 287 -730.5 Q 313 -726 336.5 -714 Q 360 -702 378.5 -682.5 Q 397 -663 408.5 -639.5 Q 420 -616 424.5 -590 Q 429 -564 429 -538 Q 429 -515 425.5 -492 Q 422 -469 411.5 -448.5 Q 401 -428 384.5 -411 Q 368 -394 348 -383 Q 373 -373 394.5 -355.5 Q 416 -338 430.5 -314.5 Q 445 -291 450.5 -264 Q 456 -237 456 -210 Q 456 -181 450.5 -152.5 Q 445 -124 431 -98.5 Q 417 -73 395.5 -53.5 Q 374 -34 347.5 -21.5 Q 321 -9 292.5 -4.5 Q 264 -0 235 0 Z M 160 -424 L 235 -424 Q 256 -424 275.5 -432.5 Q 295 -441 307.5 -457.5 Q 320 -474 324.5 -494.5 Q 329 -515 329 -536 Q 329 -557 324.5 -577.5 Q 320 -598 307.5 -614.5 Q 295 -631 275.5 -639 Q 256 -647 235 -647 L 160 -647 Z M 160 -88 L 235 -88 Q 251 -88 267.5 -91 Q 284 -94 298.5 -101.5 Q 313 -109 324.5 -121 Q 336 -133 343 -148 Q 350 -163 353 -179 Q 356 -195 356 -212 Q 356 -228 353 -244.5 Q 350 -261 343 -276 Q 336 -291 324.5 -303 Q 313 -315 298.5 -322.5 Q 284 -330 267.5 -333 Q 251 -336 235 -336 L 160 -336 Z " id="path12"/>
<path d="M 247 8 Q 220 8 193 3 Q 166 -2 142.5 -15.5 Q 119 -29 101 -49.5 Q 83 -70 71.5 -94.5 Q 60 -119 56 -146 Q 52 -173 52 -200 L 52 -535 Q 52 -562 56 -589 Q 60 -616 71.5 -640.5 Q 83 -665 101 -685.5 Q 119 -706 142.5 -719.5 Q 166 -733 193 -738 Q 220 -743 247 -743 Q 273 -743 298 -738.5 Q 323 -734 346 -723 Q 369 -712 387.5 -694 Q 406 -676 418 -653.5 Q 430 -631 436 -606 Q 442 -581 442 -555 L 442 -548 L 342 -548 L 342 -552 Q 342 -572 336 -591.5 Q 330 -611 317.5 -626 Q 305 -641 286 -648 Q 267 -655 247 -655 Q 225 -655 205 -645.5 Q 185 -636 173 -618 Q 161 -600 156.5 -578.5 Q 152 -557 152 -535 L 152 -200 Q 152 -178 156.5 -156.5 Q 161 -135 173 -117 Q 185 -99 205 -89.5 Q 225 -80 247 -80 Q 267 -80 286 -87 Q 305 -94 317.5 -109 Q 330 -124 336 -143.5 Q 342 -163 342 -183 L 342 -187 L 442 -187 L 442 -180 Q 442 -154 436 -129 Q 430 -104 418 -81.5 Q 406 -59 387.5 -41 Q 369 -23 346 -12 Q 323 -1 298 3.5 Q 273 8 247 8 Z " id="path13"/>
<path d="M 60 0 L 60 -735 L 220 -735 Q 250 -735 280 -730 Q 310 -725 337 -712 Q 364 -699 386.5 -678.5 Q 409 -658 423 -631.5 Q 437 -605 442.5 -575 Q 448 -545 448 -515 L 448 -220 Q 448 -190 442.5 -160 Q 437 -130 423 -103.5 Q 409 -77 386.5 -56.5 Q 364 -36 337 -23 Q 310 -10 280 -5 Q 250 -0 220 0 Z M 160 -88 L 220 -88 Q 237 -88 254.5 -91 Q 272 -94 287.5 -102.5 Q 303 -111 315 -124 Q 327 -137 334.5 -152.5 Q 342 -168 345 -185.5 Q 348 -203 348 -220 L 348 -515 Q 348 -532 345 -549.5 Q 342 -567 334.5 -582.5 Q 327 -598 315 -611 Q 303 -624 287.5 -632.5 Q 272 -641 254.5 -644 Q 237 -647 220 -647 L 160 -647 Z " id="path14"/>
<path d="M 68 0 L 68 -735 L 440 -735 L 440 -647 L 168 -647 L 168 -426 L 383 -426 L 383 -338 L 168 -338 L 168 -88 L 440 -88 L 440 0 Z " id="path15"/>
<path d="M 90 0 L 90 -735 L 440 -735 L 440 -647 L 190 -647 L 190 -426 L 383 -426 L 383 -338 L 190 -338 L 190 0 Z " id="path16"/>
<path d="M 250 8 Q 223 8 196.5 2.5 Q 170 -3 147 -16.5 Q 124 -30 106.5 -50.5 Q 89 -71 78.5 -95.5 Q 68 -120 64 -146.5 Q 60 -173 60 -200 L 60 -735 L 160 -735 L 160 -200 Q 160 -186 161.5 -172 Q 163 -158 167.5 -144.5 Q 172 -131 179.5 -118.5 Q 187 -106 197.5 -97 Q 208 -88 222 -84 Q 236 -80 250 -80 Q 264 -80 278 -84 Q 292 -88 302.5 -97 Q 313 -106 320.5 -118.5 Q 328 -131 332.5 -144.5 Q 337 -158 338.5 -172 Q 340 -186 340 -200 L 340 -735 L 440 -735 L 440 -200 Q 440 -173 436 -146.5 Q 432 -120 421.5 -95.5 Q 411 -71 393.5 -50.5 Q 376 -30 353 -16.5 Q 330 -3 303.5 2.5 Q 277 8 250 8 Z " id="path17"/>
<path d="M 300 -142 L 200 -142 L 200 -296 L 60 -296 L 60 -384 L 200 -384 L 200 -538 L 300 -538 L 300 -384 L 440 -384 L 440 -296 L 300 -296 Z " id="path18"/>
<path d="M 256 8 Q 229 8 202.5 2.5 Q 176 -3 153 -16 Q 130 -29 112 -50 Q 94 -71 83 -95.5 Q 72 -120 68 -146.5 Q 64 -173 64 -200 L 64 -320 Q 64 -347 68 -373.5 Q 72 -400 83 -424.5 Q 94 -449 112 -470 Q 130 -491 153 -504 Q 176 -517 202.5 -522.5 Q 229 -528 256 -528 Q 283 -528 310.5 -524.5 Q 338 -521 363 -510.5 Q 388 -500 409 -481.5 Q 430 -463 438 -437 Q 441 -428 442.5 -419.5 Q 444 -411 444 -402 L 444 -395 Q 444 -376 437.5 -357 Q 431 -338 417 -324.5 Q 403 -311 383.5 -305 Q 364 -299 345 -299 Q 325 -299 305.5 -305 Q 286 -311 272 -324.5 Q 258 -338 252 -357.5 Q 246 -377 246 -397 Q 246 -413 249.5 -429 Q 253 -445 262 -458 L 261 -458 Q 244 -458 227 -454 Q 210 -450 195.5 -441 Q 181 -432 170 -418 Q 159 -404 152.5 -388 Q 146 -372 144 -354.5 Q 142 -337 142 -320 L 142 -200 Q 142 -183 144 -165.5 Q 146 -148 152.5 -132 Q 159 -116 170 -102 Q 181 -88 195.5 -79 Q 210 -70 227 -66 Q 244 -62 261 -62 L 262 -62 Q 253 -75 249.5 -91 Q 246 -107 246 -123 Q 246 -143 252 -162.5 Q 258 -182 272 -195.5 Q 286 -209 305.5 -215 Q 325 -221 345 -221 Q 364 -221 383.5 -215 Q 403 -209 417 -195.5 Q 431 -182 437.5 -163 Q 444 -144 444 -125 L 444 -118 Q 444 -109 442.5 -100.5 Q 441 -92 438 -83 Q 430 -57 409 -38.5 Q 388 -20 363 -9.5 Q 338 1 310.5 4.5 Q 283 8 256 8 Z M 345 -360 Q 351 -360 357.5 -362.5 Q 364 -365 368.5 -370 Q 373 -375 375 -381.5 Q 377 -388 377 -395 Q 377 -404 374 -413 Q 371 -422 364 -428 Q 360 -431 355 -432.5 Q 350 -434 345 -434 Q 338 -434 331.5 -431 Q 325 -428 320.5 -422.5 Q 316 -417 314.5 -410.5 Q 313 -404 313 -397 Q 313 -390 314.5 -383 Q 316 -376 320.5 -370.5 Q 325 -365 331.5 -362.5 Q 338 -360 345 -360 Z M 345 -86 Q 350 -86 355 -87.5 Q 360 -89 364 -92 Q 371 -98 374 -107 Q 377 -116 377 -125 Q 377 -132 375 -138.5 Q 373 -145 368.5 -150 Q 364 -155 357.5 -157.5 Q 351 -160 345 -160 Q 338 -160 331.5 -157.5 Q 325 -155 320.5 -149.5 Q 316 -144 314.5 -137 Q 313 -130 313 -123 Q 313 -116 314.5 -109.5 Q 316 -103 320.5 -97.5 Q 325 -92 331.5 -89 Q 338 -86 345 -86 Z " id="path19"/>
<path d="M 36 215 L 36 -70 L 64 -70 Q 78 -100 87.5 -131 Q 97 -162 102 -194.5 Q 107 -227 108 -259.5 Q 109 -292 109 -325 L 109 -520 L 420 -520 L 420 -70 L 464 -70 L 464 215 L 386 215 L 386 0 L 114 0 L 114 215 Z M 148 -70 L 342 -70 L 342 -450 L 187 -450 L 187 -325 Q 187 -293 186 -260.5 Q 185 -228 180.5 -195.5 Q 176 -163 168 -131.5 Q 160 -100 148 -70 Z " id="path20"/>
<path d="M 250 8 Q 228 8 206.5 3 Q 185 -2 166.5 -13.5 Q 148 -25 134 -42.5 Q 120 -60 112 -80.5 Q 104 -101 101 -123 Q 98 -145 98 -167 L 98 -353 Q 98 -375 101 -397 Q 104 -419 112 -439.5 Q 120 -460 134 -477.5 Q 148 -495 166.5 -506.5 Q 185 -518 206.5 -523 Q 228 -528 250 -528 Q 272 -528 293.5 -523 Q 315 -518 333.5 -506.5 Q 352 -495 366 -477.5 Q 380 -460 388 -439.5 Q 396 -419 399 -397 Q 402 -375 402 -353 L 402 -167 Q 402 -145 399 -123 Q 396 -101 388 -80.5 Q 380 -60 366 -42.5 Q 352 -25 333.5 -13.5 Q 315 -2 293.5 3 Q 272 8 250 8 Z M 250 -62 Q 268 -62 284.5 -71.5 Q 301 -81 310 -96.5 Q 319 -112 322 -130.5 Q 325 -149 325 -167 L 325 -353 Q 325 -371 322 -389.5 Q 319 -408 310 -423.5 Q 301 -439 284.5 -448.5 Q 268 -458 250 -458 Q 232 -458 215.5 -448.5 Q 199 -439 190 -423.5 Q 181 -408 178 -389.5 Q 175 -371 175 -353 L 175 -167 Q 175 -149 178 -130.5 Q 181 -112 190 -96.5 Q 199 -81 215.5 -71.5 Q 232 -62 250 -62 Z " id="path21"/>
<path d="M 247 148 Q 219 148 191.5 143 Q 164 138 139 125.5 Q 114 113 94.5 93 Q 75 73 62.5 48 Q 50 23 45 -4.5 Q 40 -32 40 -60 L 40 -320 Q 40 -348 45 -375.5 Q 50 -403 62.5 -428 Q 75 -453 94.5 -473 Q 114 -493 139 -505.5 Q 164 -518 191.5 -523 Q 219 -528 247 -528 Q 273 -528 299 -524 Q 325 -520 348.5 -510 Q 372 -500 392.5 -483 Q 413 -466 426.5 -444 Q 440 -422 447 -396.5 Q 454 -371 454 -345 L 454 -340 L 376 -340 L 376 -343 Q 376 -368 366.5 -391 Q 357 -414 338.5 -429.5 Q 320 -445 295.5 -451.5 Q 271 -458 247 -458 Q 229 -458 211.5 -454.5 Q 194 -451 178 -442 Q 162 -433 150 -419.5 Q 138 -406 131 -390 Q 124 -374 121 -356 Q 118 -338 118 -320 L 118 -60 Q 118 -42 121 -24 Q 124 -6 131 10 Q 138 26 150 39.5 Q 162 53 178 62 Q 194 71 211.5 74.5 Q 229 78 247 78 Q 271 78 295.5 71.5 Q 320 65 338.5 49.5 Q 357 34 366.5 11 Q 376 -12 376 -37 L 376 -40 L 454 -40 L 454 -35 Q 454 -9 447 16.5 Q 440 42 426.5 64 Q 413 86 392.5 103 Q 372 120 348.5 130 Q 325 140 299 144 Q 273 148 247 148 Z " id="path22"/>
<path d="M 326 0 L 326 -665 L 70 -665 L 70 -735 L 404 -735 L 404 0 Z " id="path23"/>
<path d="M 48 0 L 48 -520 L 452 -520 L 452 0 L 374 0 L 374 -450 L 289 -450 L 289 0 L 211 0 L 211 -450 L 126 -450 L 126 0 Z " id="path24"/>
<path d="M 119 0 L 119 -665 L 24 -665 L 24 -735 L 197 -735 L 197 -321 L 292 -321 Q 313 -321 334 -317 Q 355 -313 373.5 -303 Q 392 -293 406 -277 Q 420 -261 428.5 -242 Q 437 -223 440.5 -202 Q 444 -181 444 -161 Q 444 -140 440.5 -119 Q 437 -98 428.5 -79 Q 420 -60 406 -44 Q 392 -28 373.5 -18 Q 355 -8 334 -4 Q 313 -0 292 0 Z M 292 -70 Q 309 -70 324.5 -77 Q 340 -84 349.5 -97.5 Q 359 -111 362.5 -127.5 Q 366 -144 366 -160 Q 366 -177 362.5 -193.5 Q 359 -210 349.5 -223.5 Q 340 -237 324.5 -244 Q 309 -251 292 -251 L 197 -251 L 197 -70 Z " id="path25"/>
<path d="M 138 0 L 138 -670 L 24 -670 L 24 -735 L 138 -735 L 138 -838 L 216 -838 L 216 -735 L 331 -735 L 331 -670 L 216 -670 L 216 -321 L 309 -321 Q 330 -321 350.5 -317 Q 371 -313 389.5 -303 Q 408 -293 422 -277 Q 436 -261 444.5 -242 Q 453 -223 456.5 -202 Q 460 -181 460 -161 Q 460 -140 456.5 -119 Q 453 -98 444.5 -79 Q 436 -60 422 -44 Q 408 -28 389.5 -18 Q 371 -8 350.5 -4 Q 330 -0 309 0 Z M 216 -70 L 309 -70 Q 326 -70 341.5 -77 Q 357 -84 366 -97.5 Q 375 -111 378.5 -127.5 Q 382 -144 382 -160 Q 382 -177 378.5 -193.5 Q 375 -210 366 -223.5 Q 357 -237 341.5 -244 Q 326 -251 309 -251 L 216 -251 Z " id="path26"/>
<path d="M 250 8 Q 223 8 196.5 2.5 Q 170 -3 146.5 -16 Q 123 -29 104.5 -49.5 Q 86 -70 75 -94.5 Q 64 -119 60 -146 Q 56 -173 56 -200 L 56 -231 Q 56 -263 62 -294 Q 68 -325 83.5 -352.5 Q 99 -380 124 -400 Q 149 -420 179 -430 L 44 -735 L 130 -735 L 230 -491 Q 235 -478 240.5 -465 Q 246 -452 251 -439 L 271 -439 Q 283 -462 290.5 -486.5 Q 298 -511 304 -536.5 Q 310 -562 314.5 -587.5 Q 319 -613 326.5 -638 Q 334 -663 348.5 -685 Q 363 -707 384.5 -721 Q 406 -735 432 -739 Q 458 -743 484 -743 L 484 -673 Q 469 -673 453 -669.5 Q 437 -666 425.5 -655.5 Q 414 -645 408 -630.5 Q 402 -616 398 -601 Q 394 -586 390.5 -570.5 Q 387 -555 383 -540 Q 379 -525 374 -510 Q 369 -495 363.5 -480.5 Q 358 -466 351.5 -451.5 Q 345 -437 337 -424 Q 364 -412 385.5 -391.5 Q 407 -371 420.5 -345 Q 434 -319 439 -290 Q 444 -261 444 -231 L 444 -200 Q 444 -173 440 -146 Q 436 -119 425 -94.5 Q 414 -70 395.5 -49.5 Q 377 -29 353.5 -16 Q 330 -3 303.5 2.5 Q 277 8 250 8 Z M 250 -62 Q 267 -62 284 -66 Q 301 -70 315 -79.5 Q 329 -89 339.5 -103 Q 350 -117 356 -133 Q 362 -149 364 -166 Q 366 -183 366 -200 L 366 -231 Q 366 -248 364 -265 Q 362 -282 356 -298 Q 350 -314 339.5 -328 Q 329 -342 315 -351.5 Q 301 -361 284 -365 Q 267 -369 250 -369 Q 233 -369 216 -365 Q 199 -361 185 -351.5 Q 171 -342 160.5 -328 Q 150 -314 144 -298 Q 138 -282 136 -265 Q 134 -248 134 -231 L 134 -200 Q 134 -183 136 -166 Q 138 -149 144 -133 Q 150 -117 160.5 -103 Q 171 -89 185 -79.5 Q 199 -70 216 -66 Q 233 -62 250 -62 Z " id="path27"/>
<path d="M 161 0 L 161 -665 L 2 -665 L 2 -735 L 398 -735 L 398 -665 L 239 -665 L 239 -439 L 291 -439 Q 317 -439 342.5 -432 Q 368 -425 388.5 -409 Q 409 -393 423 -370.5 Q 437 -348 445.5 -323 Q 454 -298 457 -272 Q 460 -246 460 -220 Q 460 -193 457 -167 Q 454 -141 445.5 -116.5 Q 437 -92 423 -69.5 Q 409 -47 388.5 -30.5 Q 368 -14 342.5 -7 Q 317 0 291 0 Z M 239 -70 L 291 -70 Q 307 -70 322.5 -77 Q 338 -84 348.5 -96 Q 359 -108 365.5 -123.5 Q 372 -139 375.5 -155 Q 379 -171 380.5 -187 Q 382 -203 382 -220 Q 382 -236 380.5 -252.5 Q 379 -269 375.5 -284.5 Q 372 -300 365.5 -315.5 Q 359 -331 348.5 -343.5 Q 338 -356 322.5 -362.5 Q 307 -369 291 -369 L 239 -369 Z " id="path28"/>
<path d="M 161 0 L 161 -450 L 2 -450 L 2 -520 L 398 -520 L 398 -450 L 239 -450 L 239 -321 L 314 -321 Q 345 -321 374.5 -310 Q 404 -299 424 -275.5 Q 444 -252 452 -221.5 Q 460 -191 460 -161 Q 460 -130 452 -99.5 Q 444 -69 424 -45.5 Q 404 -22 374.5 -11 Q 345 0 314 0 Z M 239 -70 L 314 -70 Q 330 -70 344.5 -77.5 Q 359 -85 367.5 -99 Q 376 -113 379 -129 Q 382 -145 382 -161 Q 382 -176 379 -192 Q 376 -208 367.5 -222 Q 359 -236 344.5 -243.5 Q 330 -251 314 -251 L 239 -251 Z " id="path29"/>
<path d="M 64 0 L 64 -735 L 436 -735 L 436 0 Z M 94 -321 L 401 -705 L 307 -705 L 94 -438 Z M 94 -477 L 276 -705 L 182 -705 L 94 -595 Z M 94 -634 L 151 -705 L 94 -705 Z M 94 -165 L 406 -554 L 406 -671 L 94 -282 Z M 94 -30 L 112 -30 L 406 -398 L 406 -515 L 94 -126 Z M 143 -30 L 237 -30 L 406 -242 L 406 -359 Z M 362 -30 L 406 -85 L 406 -203 L 268 -30 Z M 393 -30 L 406 -30 L 406 -46 Z " id="path30"/>
</defs>
<g>
<g data-source-text="0" fill="#20242e" transform="translate(174 41.292) rotate(0) scale(0.023999998)">
<use href="#path1" transform="translate(0 0)"/>
</g>
</g>
<g>
<g data-source-text="1" fill="#20242e" transform="translate(246 41.292) rotate(0) scale(0.023999998)">
<use href="#path2" transform="translate(0 0)"/>
</g>
</g>
<g>
<g data-source-text="2" fill="#20242e" transform="translate(318 41.292) rotate(0) scale(0.023999998)">
<use href="#path3" transform="translate(0 0)"/>
</g>
</g>
<g>
<g data-source-text="3" fill="#20242e" transform="translate(390 41.292) rotate(0) scale(0.023999998)">
<use href="#path4" transform="translate(0 0)"/>
</g>
</g>
<g>
<g data-source-text="4" fill="#20242e" transform="translate(462 41.292) rotate(0) scale(0.023999998)">
<use href="#path5" transform="translate(0 0)"/>
</g>
</g>
<g>
<g data-source-text="5" fill="#20242e" transform="translate(534 41.292) rotate(0) scale(0.023999998)">
<use href="#path6" transform="translate(0 0)"/>
</g>
</g>
<g>
<g data-source-text="6" fill="#20242e" transform="translate(606 41.292) rotate(0) scale(0.023999998)">
<use href="#path7" transform="translate(0 0)"/>
</g>
</g>
<g>
<g data-source-text="7" fill="#20242e" transform="translate(678 41.292) rotate(0) scale(0.023999998)">
<use href="#path8" transform="translate(0 0)"/>
</g>
</g>
<g>
<g data-source-text="8" fill="#20242e" transform="translate(750 41.292) rotate(0) scale(0.023999998)">
<use href="#path9" transform="translate(0 0)"/>
</g>
</g>
<g>
<g data-source-text="9" fill="#20242e" transform="translate(822 41.292) rotate(0) scale(0.023999998)">
<use href="#path10" transform="translate(0 0)"/>
</g>
</g>
<g>
<g data-source-text="A" fill="#20242e" transform="translate(894 41.292) rotate(0) scale(0.023999998)">
<use href="#path11" transform="translate(0 0)"/>
</g>
</g>
<g>
<g data-source-text="B" fill="#20242e" transform="translate(966 41.292) rotate(0) scale(0.023999998)">
<use href="#path12" transform="translate(0 0)"/>
</g>
</g>
<g>
<g data-source-text="C" fill="#20242e" transform="translate(1038 41.292) rotate(0) scale(0.023999998)">
<use href="#path13" transform="translate(0 0)"/>
</g>
</g>
<g>
<g data-source-text="D" fill="#20242e" transform="translate(1110 41.292) rotate(0) scale(0.023999998)">
<use href="#path14" transform="translate(0 0)"/>
</g>
</g>
<g>
<g data-source-text="E" fill="#20242e" transform="translate(1182 41.292) rotate(0) scale(0.023999998)">
<use href="#path15" transform="translate(0 0)"/>
</g>
</g>
<g>
<g data-source-text="F" fill="#20242e" transform="translate(1254 41.292) rotate(0) scale(0.023999998)">
<use href="#path16" transform="translate(0 0)"/>
</g>
</g>
<g>
<g data-source-text="U+1C80" fill="#20242e" transform="translate(36 113.292) rotate(0) scale(0.023999998)">
<use href="#path17" transform="translate(0 0)"/>
<use href="#path18" transform="translate(500 0)"/>
<use href="#path2" transform="translate(1000 0)"/>
<use href="#path13" transform="translate(1500 0)"/>
<use href="#path9" transform="translate(2000 0)"/>
<use href="#path1" transform="translate(2500 0)"/>
</g>
</g>
<g>
<g data-source-text="ᲀ" fill="#20242e" transform="translate(168 118.584) rotate(0) scale(0.047999997)">
<use href="#path19" transform="translate(0 0)"/>
</g>
</g>
<g>
<g data-source-text="ᲁ" fill="#20242e" transform="translate(240 118.584) rotate(0) scale(0.047999997)">
<use href="#path20" transform="translate(0 0)"/>
</g>
</g>
<g>
<g data-source-text="ᲂ" fill="#20242e" transform="translate(312 118.584) rotate(0) scale(0.047999997)">
<use href="#path21" transform="translate(0 0)"/>
</g>
</g>
<g>
<g data-source-text="ᲃ" fill="#20242e" transform="translate(384 118.584) rotate(0) scale(0.047999997)">
<use href="#path22" transform="translate(0 0)"/>
</g>
</g>
<g>
<g data-source-text="ᲄ" fill="#20242e" transform="translate(456 118.584) rotate(0) scale(0.047999997)">
<use href="#path23" transform="translate(0 0)"/>
</g>
</g>
<g>
<g data-source-text="ᲅ" fill="#20242e" transform="translate(528 118.584) rotate(0) scale(0.047999997)">
<use href="#path24" transform="translate(0 0)"/>
</g>
</g>
<g>
<g data-source-text="ᲆ" fill="#20242e" transform="translate(600 118.584) rotate(0) scale(0.047999997)">
<use href="#path25" transform="translate(0 0)"/>
</g>
</g>
<g>
<g data-source-text="ᲇ" fill="#20242e" transform="translate(672 118.584) rotate(0) scale(0.047999997)">
<use href="#path26" transform="translate(0 0)"/>
</g>
</g>
<g>
<g data-source-text="ᲈ" fill="#20242e" transform="translate(744 118.584) rotate(0) scale(0.047999997)">
<use href="#path27" transform="translate(0 0)"/>
</g>
</g>
<g>
<g data-source-text="Ᲊ" fill="#20242e" transform="translate(816 118.584) rotate(0) scale(0.047999997)">
<use href="#path28" transform="translate(0 0)"/>
</g>
</g>
<g>
<g data-source-text="ᲊ" fill="#20242e" transform="translate(888 118.584) rotate(0) scale(0.047999997)">
<use href="#path29" transform="translate(0 0)"/>
</g>
</g>
<g>
<g data-source-text="" fill="#20242e40" transform="translate(960 118.584) rotate(0) scale(0.047999997)">
<use href="#path30" transform="translate(0 0)"/>
</g>
</g>
<g>
<g data-source-text="" fill="#20242e40" transform="translate(1032 118.584) rotate(0) scale(0.047999997)">
<use href="#path30" transform="translate(0 0)"/>
</g>
</g>
<g>
<g data-source-text="" fill="#20242e40" transform="translate(1104 118.584) rotate(0) scale(0.047999997)">
<use href="#path30" transform="translate(0 0)"/>
</g>
</g>
<g>
<g data-source-text="" fill="#20242e40" transform="translate(1176 118.584) rotate(0) scale(0.047999997)">
<use href="#path30" transform="translate(0 0)"/>
</g>
</g>
<g>
<g data-source-text="" fill="#20242e40" transform="translate(1248 118.584) rotate(0) scale(0.047999997)">
<use href="#path30" transform="translate(0 0)"/>
</g>
</g>
</svg>