<?xml version="1.0" encoding="UTF-8" standalone="no"?>
<svg height="360" viewBox="0 0 1296 360" width="1296" xmlns="http://www.w3.org/2000/svg">
<defs>
<path d="M 250 8 Q 223 8 196 3 Q 169 -2 145 -15 Q 121 -28 102.5 -48.5 Q 84 -69 72.5 -94 Q 61 -119 56.5 -146 Q 52 -173 52 -200 L 52 -535 Q 52 -562 56.5 -589 Q 61 -616 72.5 -641 Q 84 -666 102.5 -686.5 Q 121 -707 145 -720 Q 169 -733 196 -738 Q 223 -743 250 -743 Q 277 -743 304 -738 Q 331 -733 355 -720 Q 379 -707 397.5 -686.5 Q 416 -666 427.5 -641 Q 439 -616 443.5 -589 Q 448 -562 448 -535 L 448 -200 Q 448 -173 443.5 -146 Q 439 -119 427.5 -94 Q 416 -69 397.5 -48.5 Q 379 -28 355 -15 Q 331 -2 304 3 Q 277 8 250 8 Z M 153 -337 L 347 -491 L 347 -535 Q 347 -557 342.5 -578.5 Q 338 -600 325.5 -618 Q 313 -636 292.5 -645.5 Q 272 -655 250 -655 Q 228 -655 207.5 -645.5 Q 187 -636 174.5 -618 Q 162 -600 157.5 -578.5 Q 153 -557 153 -535 Z M 250 -80 Q 272 -80 292.5 -89.5 Q 313 -99 325.5 -117 Q 338 -135 342.5 -156.5 Q 347 -178 347 -200 L 347 -398 L 153 -244 L 153 -200 Q 153 -178 157.5 -156.5 Q 162 -135 174.5 -117 Q 187 -99 207.5 -89.5 Q 228 -80 250 -80 Z " id="path1"/>
<path d="M 230 0 L 230 -631 L 110 -528 L 55 -584 L 230 -735 L 330 -735 L 330 0 Z " id="path2"/>
<path d="M 440 0 L 60 0 L 60 -1 Q 60 -27 61 -53.5 Q 62 -80 66 -106.5 Q 70 -133 77.5 -158.5 Q 85 -184 96.5 -207.5 Q 108 -231 123 -253 Q 138 -275 156 -294.5 Q 174 -314 194 -331 Q 214 -348 235.5 -364 Q 257 -380 277.5 -397 Q 298 -414 313 -435.5 Q 328 -457 335.5 -483 Q 343 -509 343 -535 Q 343 -557 339 -578 Q 335 -599 323.5 -617 Q 312 -635 292 -645 Q 272 -655 251 -655 Q 231 -655 212.5 -647.5 Q 194 -640 182 -625 Q 170 -610 164.5 -591 Q 159 -572 159 -552 L 159 -548 L 58 -548 L 58 -555 Q 58 -581 64 -605.5 Q 70 -630 81.5 -652.5 Q 93 -675 111.5 -693 Q 130 -711 152.5 -722.5 Q 175 -734 200.5 -738.5 Q 226 -743 251 -743 Q 278 -743 304.5 -737.5 Q 331 -732 354.5 -719 Q 378 -706 396 -685.5 Q 414 -665 424.5 -640.5 Q 435 -616 439.5 -589 Q 444 -562 444 -535 Q 444 -501 435 -468 Q 426 -435 407.5 -406 Q 389 -377 364 -353.5 Q 339 -330 312.5 -308.5 Q 286 -287 261 -264 Q 236 -241 216.5 -213 Q 197 -185 184 -153.5 Q 171 -122 166 -88 L 440 -88 Z " id="path3"/>
<path d="M 253 8 Q 227 8 201 4 Q 175 -0 151.5 -11.5 Q 128 -23 108.5 -40.5 Q 89 -58 76 -81 Q 63 -104 56.5 -129.5 Q 50 -155 50 -181 L 50 -187 L 151 -187 L 151 -184 Q 151 -163 157.5 -143 Q 164 -123 178 -108 Q 192 -93 212 -86.5 Q 232 -80 253 -80 Q 275 -80 296 -88.5 Q 317 -97 330.5 -114.5 Q 344 -132 349.5 -154 Q 355 -176 355 -198 Q 355 -217 351 -235.5 Q 347 -254 338.5 -271 Q 330 -288 316.5 -301 Q 303 -314 286 -322 Q 269 -330 250 -332 Q 231 -334 212 -334 L 212 -422 Q 229 -422 246 -424 Q 263 -426 278.5 -433 Q 294 -440 306 -452.5 Q 318 -465 325.5 -480.5 Q 333 -496 336 -513 Q 339 -530 339 -547 Q 339 -566 334.5 -585.5 Q 330 -605 319.5 -621 Q 309 -637 291 -646 Q 273 -655 253 -655 Q 234 -655 216.5 -647 Q 199 -639 187.5 -624 Q 176 -609 171.5 -590 Q 167 -571 167 -553 L 167 -548 L 66 -548 L 66 -556 Q 66 -581 71.5 -605.5 Q 77 -630 88 -652 Q 99 -674 117 -692.5 Q 135 -711 157 -722.5 Q 179 -734 203.5 -738.5 Q 228 -743 253 -743 Q 278 -743 303.5 -738 Q 329 -733 351 -721 Q 373 -709 390 -690 Q 407 -671 418 -648 Q 429 -625 434.5 -600 Q 440 -575 440 -550 Q 440 -524 434 -498.5 Q 428 -473 415.5 -450.5 Q 403 -428 384.5 -409.5 Q 366 -391 343 -379 Q 369 -368 390.5 -348.5 Q 412 -329 427 -304.5 Q 442 -280 449 -252 Q 456 -224 456 -196 Q 456 -168 450 -141.5 Q 444 -115 432 -91 Q 420 -67 401 -47 Q 382 -27 358 -14.5 Q 334 -2 307 3 Q 280 8 253 8 Z " id="path4"/>
<path d="M 282 0 L 282 -188 L 52 -188 L 52 -275 L 276 -735 L 385 -735 L 161 -275 L 282 -275 L 282 -435 L 382 -435 L 382 -275 L 440 -275 L 440 -188 L 382 -188 L 382 0 Z " id="path5"/>
<path d="M 252 8 Q 227 8 202.5 3.5 Q 178 -1 155.5 -12 Q 133 -23 115 -41 Q 97 -59 85 -80.5 Q 73 -102 66.5 -126.5 Q 60 -151 59 -176 L 159 -176 Q 161 -158 167 -139.5 Q 173 -121 185.5 -107 Q 198 -93 216 -86.5 Q 234 -80 252 -80 Q 269 -80 285 -87 Q 301 -94 312 -107 Q 323 -120 330 -135.5 Q 337 -151 340.5 -168 Q 344 -185 345.5 -202 Q 347 -219 347 -236 Q 347 -252 346 -269 Q 345 -286 341 -302 Q 337 -318 331 -334 Q 325 -350 314 -363 Q 303 -376 287.5 -383.5 Q 272 -391 256 -391 Q 240 -391 224.5 -387 Q 209 -383 196 -373.5 Q 183 -364 176 -349.5 Q 169 -335 168 -319 L 68 -319 L 68 -735 L 421 -735 L 421 -647 L 168 -647 L 168 -464 Q 189 -472 211 -475 Q 233 -478 256 -478 Q 285 -478 313.5 -470.5 Q 342 -463 365.5 -445.5 Q 389 -428 405.5 -403 Q 422 -378 431.5 -350.5 Q 441 -323 444.5 -294 Q 448 -265 448 -235 Q 448 -206 444 -176.5 Q 440 -147 430.5 -119 Q 421 -91 404 -66.5 Q 387 -42 363.5 -24.5 Q 340 -7 311 0.5 Q 282 8 252 8 Z " id="path6"/>
<path d="M 250 8 Q 221 8 192.5 1.5 Q 164 -5 140 -21 Q 116 -37 98.5 -60.5 Q 81 -84 70.5 -111 Q 60 -138 56 -166.5 Q 52 -195 52 -224 Q 52 -268 60 -311 Q 68 -354 81.5 -395.5 Q 95 -437 113 -477 Q 131 -517 150 -556 L 238 -735 L 347 -735 L 240 -517 Q 228 -493 216.5 -468.5 Q 205 -444 195 -419 Q 214 -438 239 -447 Q 264 -456 291 -456 Q 317 -456 342.5 -447 Q 368 -438 386.5 -419.5 Q 405 -401 417 -377.5 Q 429 -354 436 -328.5 Q 443 -303 445.5 -276.5 Q 448 -250 448 -224 Q 448 -195 444 -166.5 Q 440 -138 429.5 -111 Q 419 -84 401.5 -60.5 Q 384 -37 360 -21 Q 336 -5 307.5 1.5 Q 279 8 250 8 Z M 250 -80 Q 266 -80 282 -85.5 Q 298 -91 309.5 -102.5 Q 321 -114 328.5 -129 Q 336 -144 340 -159.5 Q 344 -175 345.5 -191.5 Q 347 -208 347 -224 Q 347 -240 345.5 -256.5 Q 344 -273 340 -289 Q 336 -305 328.5 -319.5 Q 321 -334 309.5 -345.5 Q 298 -357 282 -362.5 Q 266 -368 250 -368 Q 235 -368 221 -363.5 Q 207 -359 195.5 -349.5 Q 184 -340 176.5 -327.5 Q 169 -315 164 -301 Q 159 -287 156.5 -272.5 Q 154 -258 153 -243 L 153 -224 Q 153 -208 154.5 -191.5 Q 156 -175 160 -159.5 Q 164 -144 171.5 -129 Q 179 -114 190.5 -102.5 Q 202 -91 218 -85.5 Q 234 -80 250 -80 Z " id="path7"/>
<path d="M 242 0 L 138 0 L 336 -647 L 60 -647 L 60 -735 L 440 -735 L 440 -647 Z " id="path8"/>
<path d="M 250 8 Q 225 8 200 4 Q 175 -0 152 -10 Q 129 -20 109.5 -37 Q 90 -54 77.5 -75.5 Q 65 -97 58.5 -121.5 Q 52 -146 52 -172 Q 52 -203 62 -232.5 Q 72 -262 88.5 -288 Q 105 -314 127 -336 Q 149 -358 174 -378 Q 152 -396 132.5 -417 Q 113 -438 98.5 -462.5 Q 84 -487 76 -514.5 Q 68 -542 68 -570 Q 68 -594 73.5 -617 Q 79 -640 90.5 -661 Q 102 -682 119.5 -698.5 Q 137 -715 158 -725 Q 179 -735 202.5 -739 Q 226 -743 250 -743 Q 274 -743 297.5 -739 Q 321 -735 342 -725 Q 363 -715 380.5 -698.5 Q 398 -682 409.5 -661 Q 421 -640 426.5 -617 Q 432 -594 432 -570 Q 432 -542 424 -514.5 Q 416 -487 401.5 -462.5 Q 387 -438 367.5 -417 Q 348 -396 326 -378 Q 351 -358 373 -336 Q 395 -314 411.5 -288 Q 428 -262 438 -232.5 Q 448 -203 448 -172 Q 448 -146 441.5 -121.5 Q 435 -97 422.5 -75.5 Q 410 -54 390.5 -37 Q 371 -20 348 -10 Q 325 -0 300 4 Q 275 8 250 8 Z M 250 -435 Q 266 -447 280.5 -461.5 Q 295 -476 306.5 -493 Q 318 -510 325 -529.5 Q 332 -549 332 -569 Q 332 -586 326.5 -602.5 Q 321 -619 310 -631.5 Q 299 -644 283 -649.5 Q 267 -655 250 -655 Q 233 -655 217 -649.5 Q 201 -644 190 -631.5 Q 179 -619 173.5 -602.5 Q 168 -586 168 -569 Q 168 -549 175 -529.5 Q 182 -510 193.5 -493 Q 205 -476 219.5 -461.5 Q 234 -447 250 -435 Z M 250 -80 Q 269 -80 287.5 -85.5 Q 306 -91 320 -104 Q 334 -117 340.5 -135.5 Q 347 -154 347 -173 Q 347 -196 338.5 -217.5 Q 330 -239 316.5 -257.5 Q 303 -276 285.5 -291 Q 268 -306 250 -320 Q 232 -306 214.5 -291 Q 197 -276 183.5 -257.5 Q 170 -239 161.5 -217.5 Q 153 -196 153 -173 Q 153 -154 159.5 -135.5 Q 166 -117 180 -104 Q 194 -91 212.5 -85.5 Q 231 -80 250 -80 Z " id="path9"/>
<path d="M 262 0 L 153 0 L 260 -218 Q 272 -242 283.5 -266.5 Q 295 -291 305 -316 Q 286 -297 261 -288 Q 236 -279 209 -279 Q 183 -279 157.5 -288 Q 132 -297 113.5 -315.5 Q 95 -334 83 -357.5 Q 71 -381 64 -406.5 Q 57 -432 54.5 -458.5 Q 52 -485 52 -511 Q 52 -540 56 -568.5 Q 60 -597 70.5 -624 Q 81 -651 98.5 -674.5 Q 116 -698 140 -714 Q 164 -730 192.5 -736.5 Q 221 -743 250 -743 Q 279 -743 307.5 -736.5 Q 336 -730 360 -714 Q 384 -698 401.5 -674.5 Q 419 -651 429.5 -624 Q 440 -597 444 -568.5 Q 448 -540 448 -511 Q 448 -467 440 -424 Q 432 -381 418.5 -339.5 Q 405 -298 387 -258 Q 369 -218 350 -179 Z M 250 -367 Q 265 -367 279 -371.5 Q 293 -376 304.5 -385.5 Q 316 -395 323.5 -407.5 Q 331 -420 336 -434 Q 341 -448 343.5 -462.5 Q 346 -477 347 -492 L 347 -511 Q 347 -527 345.5 -543.5 Q 344 -560 340 -575.5 Q 336 -591 328.5 -606 Q 321 -621 309.5 -632.5 Q 298 -644 282 -649.5 Q 266 -655 250 -655 Q 234 -655 218 -649.5 Q 202 -644 190.5 -632.5 Q 179 -621 171.5 -606 Q 164 -591 160 -575.5 Q 156 -560 154.5 -543.5 Q 153 -527 153 -511 Q 153 -495 154.5 -478.5 Q 156 -462 160 -446 Q 164 -430 171.5 -415.5 Q 179 -401 190.5 -389.5 Q 202 -378 218 -372.5 Q 234 -367 250 -367 Z " id="path10"/>
<path d="M 39 0 L 192 -735 L 308 -735 L 461 0 L 358 0 L 326 -172 L 174 -172 L 142 0 Z M 309 -260 L 265 -490 Q 262 -511 258 -531.5 Q 254 -552 250 -572 Q 246 -552 242 -531.5 Q 238 -511 235 -490 L 191 -260 Z " id="path11"/>
<path d="M 60 0 L 60 -735 L 234 -735 Q 261 -735 287 -730.5 Q 313 -726 336 -714 Q 359 -702 377.5 -682.5 Q 396 -663 408 -639.5 Q 420 -616 424.5 -590 Q 429 -564 429 -538 Q 429 -515 425 -492 Q 421 -469 410.5 -448.5 Q 400 -428 383.5 -411 Q 367 -394 347 -383 Q 372 -373 393.5 -355.5 Q 415 -338 429.5 -314.5 Q 444 -291 450 -264 Q 456 -237 456 -210 Q 456 -181 450 -152.5 Q 444 -124 430 -98.5 Q 416 -73 394.5 -53.5 Q 373 -34 347 -21.5 Q 321 -9 292 -4.5 Q 263 -0 234 0 Z M 161 -424 L 234 -424 Q 255 -424 274.5 -432.5 Q 294 -441 306.5 -457.5 Q 319 -474 324 -494.5 Q 329 -515 329 -536 Q 329 -557 324 -577.5 Q 319 -598 306.5 -614.5 Q 294 -631 274.5 -639 Q 255 -647 234 -647 L 161 -647 Z M 161 -88 L 234 -88 Q 251 -88 267 -91 Q 283 -94 297.5 -101.5 Q 312 -109 323.5 -121 Q 335 -133 342.5 -148 Q 350 -163 352.5 -179 Q 355 -195 355 -212 Q 355 -228 352.5 -244.5 Q 350 -261 343 -276 Q 336 -291 324.5 -303 Q 313 -315 298 -322.5 Q 283 -330 267 -333 Q 251 -336 234 -336 L 161 -336 Z " id="path12"/>
<path d="M 247 8 Q 220 8 193 2.5 Q 166 -3 142.5 -16 Q 119 -29 101 -49.5 Q 83 -70 72 -94.5 Q 61 -119 56.5 -146 Q 52 -173 52 -200 L 52 -535 Q 52 -562 56.5 -589 Q 61 -616 72 -640.5 Q 83 -665 101 -685.5 Q 119 -706 142.5 -719 Q 166 -732 193 -737.5 Q 220 -743 247 -743 Q 273 -743 298 -738.5 Q 323 -734 346 -723 Q 369 -712 387.5 -694 Q 406 -676 418 -653.5 Q 430 -631 436 -606 Q 442 -581 442 -555 L 442 -548 L 341 -548 L 341 -552 Q 341 -572 335.5 -591.5 Q 330 -611 317.5 -626 Q 305 -641 286 -648 Q 267 -655 247 -655 Q 225 -655 205 -645.5 Q 185 -636 173 -618 Q 161 -600 157 -578.5 Q 153 -557 153 -535 L 153 -200 Q 153 -178 157 -156.5 Q 161 -135 173 -117 Q 185 -99 205 -89.5 Q 225 -80 247 -80 Q 267 -80 286 -87 Q 305 -94 317.5 -109 Q 330 -124 335.5 -143.5 Q 341 -163 341 -183 L 341 -187 L 442 -187 L 442 -180 Q 442 -154 436 -129 Q 430 -104 418 -81.5 Q 406 -59 387.5 -41 Q 369 -23 346 -12 Q 323 -1 298 3.5 Q 273 8 247 8 Z " id="path13"/>
<path d="M 60 0 L 60 -735 L 219 -735 Q 249 -735 279 -730 Q 309 -725 336.5 -712 Q 364 -699 386 -678.5 Q 408 -658 422 -631.5 Q 436 -605 442 -575 Q 448 -545 448 -515 L 448 -220 Q 448 -190 442 -160 Q 436 -130 422 -103.5 Q 408 -77 386 -56.5 Q 364 -36 336.5 -23 Q 309 -10 279 -5 Q 249 -0 219 0 Z M 161 -88 L 219 -88 Q 237 -88 254 -91 Q 271 -94 286.5 -102.5 Q 302 -111 314 -124 Q 326 -137 333.5 -152.5 Q 341 -168 344 -185.5 Q 347 -203 347 -220 L 347 -515 Q 347 -532 344 -549.5 Q 341 -567 333.5 -582.5 Q 326 -598 314 -611 Q 302 -624 286.5 -632.5 Q 271 -641 254 -644 Q 237 -647 219 -647 L 161 -647 Z " id="path14"/>
<path d="M 68 0 L 68 -735 L 440 -735 L 440 -647 L 169 -647 L 169 -426 L 383 -426 L 383 -338 L 169 -338 L 169 -88 L 440 -88 L 440 0 Z " id="path15"/>
<path d="M 91 0 L 91 -735 L 440 -735 L 440 -647 L 191 -647 L 191 -426 L 383 -426 L 383 -338 L 191 -338 L 191 0 Z " id="path16"/>
<path d="M 250 8 Q 223 8 196.5 2.5 Q 170 -3 147 -16.5 Q 124 -30 106.5 -50.5 Q 89 -71 78.5 -95.5 Q 68 -120 64 -146.5 Q 60 -173 60 -200 L 60 -735 L 161 -735 L 161 -200 Q 161 -186 162.5 -172 Q 164 -158 168 -144.5 Q 172 -131 179.5 -118.5 Q 187 -106 197.5 -97 Q 208 -88 222 -84 Q 236 -80 250 -80 Q 264 -80 278 -84 Q 292 -88 302.5 -97 Q 313 -106 320.5 -118.5 Q 328 -131 332 -144.5 Q 336 -158 337.5 -172 Q 339 -186 339 -200 L 339 -735 L 440 -735 L 440 -200 Q 440 -173 436 -146.5 Q 432 -120 421.5 -95.5 Q 411 -71 393.5 -50.5 Q 376 -30 353 -16.5 Q 330 -3 303.5 2.5 Q 277 8 250 8 Z " id="path17"/>
<path d="M 300 -143 L 200 -143 L 200 -296 L 60 -296 L 60 -384 L 200 -384 L 200 -537 L 300 -537 L 300 -384 L 440 -384 L 440 -296 L 300 -296 Z " id="path18"/>
<path d="M 216 8 Q 191 8 166.5 1 Q 142 -6 123 -21 Q 104 -36 90.5 -57.5 Q 77 -79 69.5 -102.5 Q 62 -126 59 -150.5 Q 56 -175 56 -200 L 56 -320 Q 56 -345 59 -369.5 Q 62 -394 69.5 -417.5 Q 77 -441 90.5 -462.5 Q 104 -484 123 -499 Q 142 -514 166.5 -521 Q 191 -528 216 -528 Q 239 -528 262 -522 Q 285 -516 304 -502 Q 323 -488 336.5 -469 Q 350 -450 358 -428 L 358 -485 L 436 -520 L 436 0 L 358 0 L 358 -92 Q 350 -70 336.5 -51 Q 323 -32 304 -18 Q 285 -4 262 2 Q 239 8 216 8 Z M 246 -62 Q 263 -62 279.5 -66 Q 296 -70 309.5 -80 Q 323 -90 333 -104 Q 343 -118 348.5 -134 Q 354 -150 356 -166.5 Q 358 -183 358 -200 L 358 -320 Q 358 -337 356 -353.5 Q 354 -370 348.5 -386 Q 343 -402 333 -416 Q 323 -430 309.5 -440 Q 296 -450 279.5 -454 Q 263 -458 246 -458 Q 229 -458 212.5 -454 Q 196 -450 182.5 -440 Q 169 -430 159 -416 Q 149 -402 143.5 -386 Q 138 -370 136 -353.5 Q 134 -337 134 -320 L 134 -200 Q 134 -183 136 -166.5 Q 138 -150 143.5 -134 Q 149 -118 159 -104 Q 169 -90 182.5 -80 Q 196 -70 212.5 -66 Q 229 -62 246 -62 Z M 468 -228 L 32 -228 L 32 -292 L 468 -292 Z " id="path19"/>
<path d="M 165 8 Q 146 8 127.5 3 Q 109 -2 94 -13 Q 79 -24 68 -39.5 Q 57 -55 51 -72.5 Q 45 -90 42.5 -109 Q 40 -128 40 -147 Q 40 -167 43 -187 Q 46 -207 53.5 -225.5 Q 61 -244 74 -260 Q 87 -276 104 -286.5 Q 121 -297 141 -301.5 Q 161 -306 181 -306 L 211 -306 L 211 -408 Q 211 -417 209 -426.5 Q 207 -436 201 -443.5 Q 195 -451 186 -454.5 Q 177 -458 168 -458 Q 155 -458 146 -449 Q 137 -440 132 -428.5 Q 127 -417 125.5 -404.5 Q 124 -392 124 -379 L 124 -375 L 46 -375 L 46 -383 Q 46 -400 49 -418 Q 52 -436 58.5 -452.5 Q 65 -469 75.5 -484 Q 86 -499 100.5 -509 Q 115 -519 132.5 -523.5 Q 150 -528 168 -528 Q 191 -528 213.5 -521.5 Q 236 -515 253 -500 Q 269 -515 290.5 -521.5 Q 312 -528 334 -528 Q 352 -528 370 -523.5 Q 388 -519 402.5 -509 Q 417 -499 428 -484.5 Q 439 -470 445.5 -453 Q 452 -436 455 -418.5 Q 458 -401 458 -383 L 458 -375 L 380 -375 L 380 -379 Q 380 -392 378 -404.5 Q 376 -417 371.5 -428.5 Q 367 -440 357 -449 Q 347 -458 334 -458 Q 322 -458 312 -450.5 Q 302 -443 297 -432 Q 292 -421 290.5 -409 Q 289 -397 289 -385 L 289 -295 L 460 -295 L 460 -135 Q 460 -117 457.5 -99 Q 455 -81 448 -64.5 Q 441 -48 430 -33.5 Q 419 -19 404 -9.5 Q 389 -0 371 4 Q 353 8 335 8 Q 311 8 288 0 Q 265 -8 248 -25 Q 232 -8 210 0 Q 188 8 165 8 Z M 165 -62 Q 179 -62 189 -73 Q 199 -84 203.5 -97 Q 208 -110 209.5 -124.5 Q 211 -139 211 -153 L 211 -236 L 181 -236 Q 166 -236 152 -228.5 Q 138 -221 130.5 -208 Q 123 -195 120.5 -180 Q 118 -165 118 -150 Q 118 -136 119.5 -122.5 Q 121 -109 126 -96 Q 131 -83 141 -72.5 Q 151 -62 165 -62 Z M 335 -62 Q 348 -62 358 -69.5 Q 368 -77 373.5 -87.5 Q 379 -98 380.5 -110.5 Q 382 -123 382 -135 L 382 -225 L 289 -225 L 289 -135 Q 289 -123 290.5 -110.5 Q 292 -98 297.5 -87.5 Q 303 -77 313 -69.5 Q 323 -62 335 -62 Z " id="path20"/>
<path d="M 240 6 Q 219 -4 197.5 -12 Q 176 -20 156 -32 Q 136 -44 119.5 -60.5 Q 103 -77 93.5 -98 Q 84 -119 81.5 -142.5 Q 79 -166 79 -189 L 79 -402 L 129 -451 L 289 -526 L 302 -526 L 421 -356 L 421 -344 L 371 -294 L 146 -189 Q 151 -167 163 -147 Q 175 -127 192.5 -112 Q 210 -97 230.5 -87 Q 251 -77 272 -69 L 273 -68 L 274 -68 Q 279 -66 284.5 -63.5 Q 290 -61 296 -59 L 408 -111 L 421 -111 L 421 -99 L 371 -49 L 253 6 Z M 141 -225 L 153 -237 L 338 -324 L 243 -460 L 141 -412 Z " id="path21"/>
<path d="M 250 8 Q 219 8 188.5 0.5 Q 158 -7 133 -24 Q 108 -41 90.5 -67 Q 73 -93 65 -123 L 19 -123 L 19 -172 L 57 -172 Q 56 -176 56 -179.5 Q 56 -183 56 -187 L 56 -320 Q 56 -335 57 -350.5 Q 58 -366 61 -381.5 Q 64 -397 69.5 -411.5 Q 75 -426 82.5 -439.5 Q 90 -453 100 -465 Q 110 -477 122 -487 Q 134 -497 147.5 -504.5 Q 161 -512 175.5 -517 Q 190 -522 208 -525 Q 226 -528 237 -528 L 250 -528 Q 266 -528 281 -526.5 Q 296 -525 311.5 -521 Q 327 -517 341 -510.5 Q 355 -504 367.5 -495.5 Q 380 -487 391 -475.5 Q 402 -464 410.5 -451 Q 419 -438 425.5 -424 Q 432 -410 436 -395 Q 440 -380 442 -362 Q 444 -344 444 -334 L 444 -225 L 134 -225 L 134 -200 Q 134 -193 134.5 -186 Q 135 -179 135 -172 L 481 -172 L 481 -123 L 440 -123 Q 438 -111 434 -99.5 Q 430 -88 424.5 -77.5 Q 419 -67 411.5 -57.5 Q 404 -48 395.5 -39.5 Q 387 -31 376.5 -24.5 Q 366 -18 355.5 -12.5 Q 345 -7 333.5 -3.5 Q 322 0 310 2.5 Q 298 5 284 6.5 Q 270 8 262 8 Z M 134 -295 L 366 -295 L 366 -320 Q 366 -330 365.5 -339.5 Q 365 -349 363.5 -359 Q 362 -369 359 -378.5 Q 356 -388 352 -396.5 Q 348 -405 342 -413.5 Q 336 -422 329 -429 Q 322 -436 314 -441 Q 306 -446 297 -450 Q 288 -454 276.5 -456 Q 265 -458 259 -458 L 250 -458 Q 240 -458 230.5 -456.5 Q 221 -455 211.5 -452.5 Q 202 -450 193 -445.5 Q 184 -441 176.5 -434.5 Q 169 -428 163 -420.5 Q 157 -413 152 -404.5 Q 147 -396 143.5 -386.5 Q 140 -377 138 -367.5 Q 136 -358 135 -346.5 Q 134 -335 134 -329 Z M 242 -62 L 250 -62 Q 261 -62 272.5 -63 Q 284 -64 295 -66.5 Q 306 -69 316.5 -74 Q 327 -79 335.5 -86.5 Q 344 -94 351 -104 Q 358 -114 361 -123 L 148 -123 Q 152 -114 158 -106 Q 164 -98 171 -91 Q 178 -84 186 -79 Q 194 -74 203 -70 Q 212 -66 223.5 -64 Q 235 -62 242 -62 Z " id="path22"/>
<path d="M 64 0 L 64 -735 L 436 -735 L 436 0 Z M 94 -321 L 401 -705 L 308 -705 L 94 -438 Z M 94 -478 L 276 -705 L 182 -705 L 94 -595 Z M 94 -634 L 151 -705 L 94 -705 Z M 94 -165 L 406 -554 L 406 -671 L 94 -282 Z M 94 -30 L 111 -30 L 406 -398 L 406 -515 L 94 -126 Z M 143 -30 L 236 -30 L 406 -242 L 406 -359 Z M 268 -30 L 362 -30 L 406 -85 L 406 -202 Z M 393 -30 L 406 -30 L 406 -46 Z " id="path23"/>
<path d="M 175 0 L 175 -403 L 64 -403 L 64 -473 L 175 -473 L 175 -579 Q 175 -599 177.5 -619.5 Q 180 -640 187.5 -659 Q 195 -678 207.5 -694.5 Q 220 -711 236.5 -722.5 Q 253 -734 273.5 -738.5 Q 294 -743 314 -743 Q 342 -743 369 -734 Q 396 -725 415.5 -705 Q 435 -685 444 -658 Q 453 -631 453 -603 L 453 -600 L 375 -600 L 375 -601 Q 375 -615 371.5 -628 Q 368 -641 360 -651.5 Q 352 -662 339.5 -667.5 Q 327 -673 314 -673 Q 298 -673 284.5 -664 Q 271 -655 264 -640.5 Q 257 -626 254.5 -610.5 Q 252 -595 252 -579 L 252 -473 L 417 -473 L 417 -403 L 252 -403 L 252 0 Z " id="path24"/>
<path d="M 246 223 Q 226 223 206.5 221.5 Q 187 220 167.5 215.5 Q 148 211 129.5 203.5 Q 111 196 95.5 183 Q 80 170 72 151.5 Q 64 133 64 113 Q 64 89 75 67.5 Q 86 46 105.5 32.5 Q 125 19 148.5 13.5 Q 172 8 196 7 Q 173 5 151.5 -4.5 Q 130 -14 113 -30 Q 96 -46 85 -66.5 Q 74 -87 67.5 -109 Q 61 -131 58.5 -154 Q 56 -177 56 -200 L 56 -320 Q 56 -345 59 -369.5 Q 62 -394 69.5 -417.5 Q 77 -441 90.5 -462.5 Q 104 -484 123 -499 Q 142 -514 166.5 -521 Q 191 -528 216 -528 Q 239 -528 262 -522 Q 285 -516 304 -502 Q 323 -488 336.5 -469 Q 350 -450 358 -428 L 358 -485 L 436 -520 L 436 15 Q 436 36 434 57 Q 432 78 425 98 Q 446 117 464.5 137.5 Q 483 158 500 180 L 438 222 Q 427 207 415 192.5 Q 403 178 390 164 Q 377 180 360.5 191.5 Q 344 203 325 210 Q 306 217 286 220 Q 266 223 246 223 Z M 246 -62 Q 263 -62 279.5 -66 Q 296 -70 309.5 -80 Q 323 -90 333 -104 Q 343 -118 348.5 -134 Q 354 -150 356 -166.5 Q 358 -183 358 -200 L 358 -320 Q 358 -337 356 -353.5 Q 354 -370 348.5 -386 Q 343 -402 333 -416 Q 323 -430 309.5 -440 Q 296 -450 279.5 -454 Q 263 -458 246 -458 Q 229 -458 212.5 -454 Q 196 -450 182.5 -440 Q 169 -430 159 -416 Q 149 -402 143.5 -386 Q 138 -370 136 -353.5 Q 134 -337 134 -320 L 134 -200 Q 134 -183 136 -166.5 Q 138 -150 143.5 -134 Q 149 -118 159 -104 Q 169 -90 182.5 -80 Q 196 -70 212.5 -66 Q 229 -62 246 -62 Z M 357 49 Q 358 40 358 31.5 Q 358 23 358 15 L 358 -92 Q 350 -72 338 -53.5 Q 326 -35 308.5 -21 Q 291 -7 270 0 Q 249 7 227 8 Q 261 10 294 21 Q 327 32 357 49 Z M 246 154 Q 270 154 292.5 144 Q 315 134 330 115 Q 302 98 270.5 87 Q 239 76 206 76 Q 196 76 185.5 77.5 Q 175 79 165.5 82.5 Q 156 86 148.5 94 Q 141 102 141 112 Q 141 123 148.5 130.5 Q 156 138 165.5 142 Q 175 146 185 148 Q 195 150 205 151.5 Q 215 153 225.5 153.5 Q 236 154 246 154 Z " id="path25"/>
<path d="M 75 0 L 75 -70 L 218 -70 L 218 -665 L 89 -665 L 89 -735 L 296 -735 L 296 -70 L 425 -70 L 425 0 Z M 168 -202 Q 147 -202 125.5 -208 Q 104 -214 88.5 -228.5 Q 73 -243 66 -264 Q 59 -285 59 -307 Q 59 -329 66 -350 Q 73 -371 88.5 -385.5 Q 104 -400 125.5 -406 Q 147 -412 168 -412 L 346 -412 Q 354 -412 362.5 -415 Q 371 -418 377 -424.5 Q 383 -431 385 -439.5 Q 387 -448 387 -457 Q 387 -466 385 -474.5 Q 383 -483 377 -489.5 Q 371 -496 363 -499 Q 355 -502 346 -502 L 346 -562 Q 367 -562 388.5 -556 Q 410 -550 425.5 -535.5 Q 441 -521 448 -500 Q 455 -479 455 -457 Q 455 -435 448 -414 Q 441 -393 425.5 -378.5 Q 410 -364 388.5 -358 Q 367 -352 346 -352 L 168 -352 Q 160 -352 151.5 -349 Q 143 -346 137 -339.5 Q 131 -333 129 -324.5 Q 127 -316 127 -307 Q 127 -298 129 -289.5 Q 131 -281 137 -274.5 Q 143 -268 151 -265 Q 159 -262 168 -262 Z " id="path26"/>
<path d="M 75 0 L 75 -70 L 218 -70 L 218 -665 L 89 -665 L 89 -735 L 296 -735 L 296 -70 L 425 -70 L 425 0 Z M 308 -378 Q 303 -378 299 -378.5 Q 295 -379 291 -380 Q 287 -381 283 -383 Q 279 -385 275.5 -387 Q 272 -389 268.5 -391.5 Q 265 -394 262 -396.5 Q 259 -399 255.5 -402 Q 252 -405 249.5 -408.5 Q 247 -412 244 -415 Q 241 -418 239 -421 Q 237 -424 234 -427.5 Q 231 -431 228 -435 Q 225 -439 222.5 -442 Q 220 -445 217.5 -448 Q 215 -451 210.5 -454 Q 206 -457 206 -458 L 207 -458 L 204 -456 Q 201 -454 198.5 -452 Q 196 -450 194 -447.5 Q 192 -445 190.5 -443.5 Q 189 -442 188 -440.5 Q 187 -439 185.5 -437 Q 184 -435 182.5 -433 Q 181 -431 179.5 -428.5 Q 178 -426 176.5 -424 Q 175 -422 173.5 -419 Q 172 -416 170.5 -413.5 Q 169 -411 167 -408 Q 165 -405 163.5 -401.5 Q 162 -398 160 -395 Q 158 -392 156.5 -388 Q 155 -384 153 -381 L 99 -404 Q 107 -420 114 -432.5 Q 121 -445 128 -455.5 Q 135 -466 142 -475 Q 149 -484 159 -492.5 Q 169 -501 181 -506.5 Q 193 -512 206 -512 Q 211 -512 215 -511.5 Q 219 -511 223 -510 Q 227 -509 231 -507 Q 235 -505 238.5 -503 Q 242 -501 245.5 -498.5 Q 249 -496 252 -493.5 Q 255 -491 258.5 -488 Q 262 -485 264.5 -481.5 Q 267 -478 270 -475 Q 273 -472 275 -469 Q 277 -466 280 -462.5 Q 283 -459 286 -455 Q 289 -451 291.5 -448 Q 294 -445 296.5 -442 Q 299 -439 303.5 -436 Q 308 -433 308 -432 L 307 -432 L 310 -434 Q 313 -436 315.5 -438 Q 318 -440 320 -442.5 Q 322 -445 323.5 -446.5 Q 325 -448 326 -449.5 Q 327 -451 328.5 -453 Q 330 -455 331.5 -457 Q 333 -459 334.5 -461.5 Q 336 -464 337.5 -466 Q 339 -468 340.5 -471 Q 342 -474 343.5 -476.5 Q 345 -479 347 -482 Q 349 -485 350.5 -488.5 Q 352 -492 354 -495 Q 356 -498 357.5 -502 Q 359 -506 361 -509 L 415 -486 Q 407 -470 400 -457.5 Q 393 -445 386 -434.5 Q 379 -424 372 -415 Q 365 -406 355 -397.5 Q 345 -389 333 -383.5 Q 321 -378 308 -378 Z M 308 -252 Q 303 -252 299 -252.5 Q 295 -253 291 -254 Q 287 -255 283 -257 Q 279 -259 275.5 -261 Q 272 -263 268.5 -265.5 Q 265 -268 262 -270.5 Q 259 -273 255.5 -276 Q 252 -279 249.5 -282.5 Q 247 -286 244 -289 Q 241 -292 239 -295 Q 237 -298 234 -301.5 Q 231 -305 228 -309 Q 225 -313 222.5 -316 Q 220 -319 217.5 -322 Q 215 -325 210.5 -328 Q 206 -331 206 -332 L 207 -332 L 204 -330 Q 201 -328 198.5 -326 Q 196 -324 194 -321.5 Q 192 -319 190.5 -317.5 Q 189 -316 188 -314.5 Q 187 -313 185.5 -311 Q 184 -309 182.5 -307 Q 181 -305 179.5 -302.5 Q 178 -300 176.5 -298 Q 175 -296 173.5 -293 Q 172 -290 170.5 -287.5 Q 169 -285 167 -282 Q 165 -279 163.5 -275.5 Q 162 -272 160 -269 Q 158 -266 156.5 -262 Q 155 -258 153 -255 L 99 -278 Q 107 -294 114 -306.5 Q 121 -319 128 -329.5 Q 135 -340 142 -349 Q 149 -358 159 -366.5 Q 169 -375 181 -380.5 Q 193 -386 206 -386 Q 211 -386 215 -385.5 Q 219 -385 223 -384 Q 227 -383 231 -381 Q 235 -379 238.5 -377 Q 242 -375 245.5 -372.5 Q 249 -370 252 -367.5 Q 255 -365 258.5 -362 Q 262 -359 264.5 -355.5 Q 267 -352 270 -349 Q 273 -346 275 -343 Q 277 -340 280 -336.5 Q 283 -333 286 -329 Q 289 -325 291.5 -322 Q 294 -319 296.5 -316 Q 299 -313 303.5 -310 Q 308 -307 308 -306 L 307 -306 L 310 -308 Q 313 -310 315.5 -312 Q 318 -314 320 -316.5 Q 322 -319 323.5 -320.5 Q 325 -322 326 -323.5 Q 327 -325 328.5 -327 Q 330 -329 331.5 -331 Q 333 -333 334.5 -335.5 Q 336 -338 337.5 -340 Q 339 -342 340.5 -345 Q 342 -348 343.5 -350.5 Q 345 -353 347 -356 Q 349 -359 350.5 -362.5 Q 352 -366 354 -369 Q 356 -372 357.5 -376 Q 359 -380 361 -383 L 415 -360 Q 407 -344 400 -331.5 Q 393 -319 386 -308.5 Q 379 -298 372 -289 Q 365 -280 355 -271.5 Q 345 -263 333 -257.5 Q 321 -252 308 -252 Z " id="path27"/>
<path d="M 75 0 L 75 -70 L 218 -70 L 218 -665 L 89 -665 L 89 -735 L 296 -735 L 296 -70 L 425 -70 L 425 0 Z M 257 -251 Q 231 -251 205 -259 Q 179 -267 160.5 -285.5 Q 142 -304 134 -330 Q 126 -356 126 -382 Q 126 -408 134 -434 Q 142 -460 160.5 -478.5 Q 179 -497 205 -505 Q 231 -513 257 -513 Q 283 -513 309 -505 Q 335 -497 353.5 -478.5 Q 372 -460 380 -434 Q 388 -408 388 -382 Q 388 -356 380 -330 Q 372 -304 353.5 -285.5 Q 335 -267 309 -259 Q 283 -251 257 -251 Z M 257 -306 Q 272 -306 287 -310.5 Q 302 -315 313 -326 Q 324 -337 328.5 -352 Q 333 -367 333 -382 Q 333 -397 328.5 -412 Q 324 -427 313 -438 Q 302 -449 287 -453.5 Q 272 -458 257 -458 Q 242 -458 227 -453.5 Q 212 -449 201 -438 Q 190 -427 185.5 -412 Q 181 -397 181 -382 Q 181 -367 185.5 -352 Q 190 -337 201 -326 Q 212 -315 227 -310.5 Q 242 -306 257 -306 Z " id="path28"/>
<path d="M 360 8 Q 341 8 321.5 2 Q 302 -4 289 -19 L 289 0 L 211 0 L 211 -394 Q 211 -405 209 -416 Q 207 -427 201.5 -436.5 Q 196 -446 186.5 -452 Q 177 -458 165 -458 Q 154 -458 144 -452 Q 134 -446 128.5 -436.5 Q 123 -427 121.5 -416 Q 120 -405 120 -394 L 120 0 L 42 0 L 42 -520 L 120 -520 L 120 -477 Q 125 -488 132.5 -498 Q 140 -508 150 -515 Q 160 -522 172 -525 Q 184 -528 196 -528 Q 211 -528 225.5 -523 Q 240 -518 251 -508 Q 262 -498 269.5 -484.5 Q 277 -471 281 -457 Q 285 -471 292.5 -484.5 Q 300 -498 310.5 -508 Q 321 -518 335.5 -523 Q 350 -528 365 -528 Q 381 -528 395.5 -523 Q 410 -518 421 -507.5 Q 432 -497 439.5 -483 Q 447 -469 451 -454.5 Q 455 -440 456.5 -424.5 Q 458 -409 458 -394 L 458 -182 L 504 -182 L 504 -128 L 458 -128 Q 458 -112 456.5 -96.5 Q 455 -81 450.5 -66 Q 446 -51 438 -37 Q 430 -23 418.5 -12.5 Q 407 -2 391.5 3 Q 376 8 360 8 Z M 289 -157 Q 302 -172 322 -177 Q 342 -182 361 -182 L 380 -182 L 380 -394 Q 380 -405 378.5 -416 Q 377 -427 371.5 -436.5 Q 366 -446 356 -452 Q 346 -458 335 -458 Q 323 -458 313.5 -452 Q 304 -446 298.5 -436.5 Q 293 -427 291 -416 Q 289 -405 289 -394 Z M 352 -46 Q 359 -46 364.5 -52.5 Q 370 -59 372.5 -66.5 Q 375 -74 376.5 -81.5 Q 378 -89 379 -96.5 Q 380 -104 380 -112 Q 380 -120 380 -128 L 361 -128 Q 353 -128 345.5 -125.5 Q 338 -123 333 -117 Q 328 -111 326 -103.5 Q 324 -96 324 -88 Q 324 -81 325.5 -74 Q 327 -67 330 -60.5 Q 333 -54 339 -50 Q 345 -46 352 -46 Z " id="path29"/>
<path d="M 326 8 Q 304 8 282.5 1.5 Q 261 -5 246 -20 Q 231 -35 223.5 -56.5 Q 216 -78 216 -99 Q 216 -114 219 -128.5 Q 222 -143 228.5 -156 Q 235 -169 245.5 -179.5 Q 256 -190 269 -196.5 Q 282 -203 297 -204.5 Q 312 -206 326 -206 L 358 -206 L 358 -320 Q 358 -337 356 -353.5 Q 354 -370 349 -385.5 Q 344 -401 334.5 -415 Q 325 -429 312 -439 Q 299 -449 283 -453.5 Q 267 -458 250 -458 Q 233 -458 217 -453.5 Q 201 -449 188 -439 Q 175 -429 165.5 -415 Q 156 -401 151 -385.5 Q 146 -370 144 -353.5 Q 142 -337 142 -320 L 142 0 L 64 0 L 64 -520 L 142 -520 L 142 -429 Q 150 -450 163 -469.5 Q 176 -489 194.5 -502.5 Q 213 -516 235.5 -522 Q 258 -528 280 -528 Q 305 -528 329 -521 Q 353 -514 371.5 -498.5 Q 390 -483 403 -461.5 Q 416 -440 423.5 -416.5 Q 431 -393 433.5 -368.5 Q 436 -344 436 -320 L 436 -206 L 482 -206 L 482 -146 L 436 -146 L 436 -126 Q 436 -109 433.5 -93 Q 431 -77 425 -62 Q 419 -47 409.5 -33 Q 400 -19 387 -9.5 Q 374 -0 358 4 Q 342 8 326 8 Z M 321 -53 Q 333 -53 341 -63 Q 349 -73 352.5 -85 Q 356 -97 357 -109 Q 358 -121 358 -134 L 358 -146 L 326 -146 Q 317 -146 308 -143.5 Q 299 -141 293.5 -134 Q 288 -127 286 -118 Q 284 -109 284 -100 Q 284 -92 285.5 -83.5 Q 287 -75 291.5 -68 Q 296 -61 304 -57 Q 312 -53 321 -53 Z " id="path30"/>
<path d="M 308 223 Q 284 223 260.5 216 Q 237 209 220 192.5 Q 203 176 195.5 153 Q 188 130 188 106 Q 188 85 193 63.5 Q 198 42 211.5 25.5 Q 225 9 245 0.5 Q 265 -8 287 -8 Q 305 -8 323.5 -3 Q 342 2 358 11 L 358 -320 Q 358 -337 356 -353.5 Q 354 -370 349 -385.5 Q 344 -401 334.5 -415 Q 325 -429 312 -439 Q 299 -449 283 -453.5 Q 267 -458 250 -458 Q 233 -458 217 -453.5 Q 201 -449 188 -439 Q 175 -429 165.5 -415 Q 156 -401 151 -385.5 Q 146 -370 144 -353.5 Q 142 -337 142 -320 L 142 0 L 64 0 L 64 -520 L 142 -520 L 142 -429 Q 150 -450 163 -469.5 Q 176 -489 194.5 -502.5 Q 213 -516 235.5 -522 Q 258 -528 280 -528 Q 305 -528 329 -521 Q 353 -514 371.5 -498.5 Q 390 -483 403 -461.5 Q 416 -440 423.5 -416.5 Q 431 -393 433.5 -368.5 Q 436 -344 436 -320 L 436 0 Q 436 18 435 36.5 Q 434 55 431 74 Q 450 98 465 125.5 Q 480 153 494 180 L 425 212 Q 419 200 413.5 187.5 Q 408 175 402 163 Q 395 176 385.5 187.5 Q 376 199 363.5 207 Q 351 215 336.5 219 Q 322 223 308 223 Z M 307 154 Q 318 154 326 146 Q 334 138 338.5 128.5 Q 343 119 346 108.5 Q 349 98 351 88 Q 337 76 320.5 68.5 Q 304 61 287 61 Q 280 61 275.5 66.5 Q 271 72 269 78.5 Q 267 85 266 91.5 Q 265 98 265 105 Q 265 114 267 123.5 Q 269 133 275 140 Q 281 147 289.5 150.5 Q 298 154 307 154 Z " id="path31"/>
<path d="M 198 6 L 143 -29 L 136 -33 L 132 -36 L 79 -70 L 79 -402 L 129 -451 L 289 -526 L 302 -526 Q 331 -507 355 -481.5 Q 379 -456 395.5 -425 Q 412 -394 420.5 -360 Q 429 -326 429 -291 L 429 -278 Q 429 -253 423 -228 Q 417 -203 406 -180 Q 395 -157 379.5 -136.5 Q 364 -116 345 -99 L 330 -84 L 313 -68 Q 292 -44 265.5 -25.5 Q 239 -7 211 6 Z M 255 -59 Q 271 -67 286 -76.5 Q 301 -86 315 -97 Q 338 -127 352 -162.5 Q 366 -198 367 -236 Q 366 -269 357.5 -301.5 Q 349 -334 333.5 -363 Q 318 -392 295.5 -417 Q 273 -442 245 -461 L 172 -427 L 141 -412 L 141 -132 Z " id="path32"/>
<path d="M 198 6 L 143 -29 L 136 -33 L 132 -36 L 79 -70 L 79 -402 L 129 -451 L 289 -526 L 302 -526 Q 331 -507 355 -481.5 Q 379 -456 395.5 -425 Q 412 -394 420.5 -360 Q 429 -326 429 -291 L 429 -278 Q 429 -253 423 -228 Q 417 -203 406 -180 Q 395 -157 379.5 -136.5 Q 364 -116 345 -99 L 330 -84 L 313 -68 Q 292 -44 265.5 -25.5 Q 239 -7 211 6 Z M 255 -59 Q 271 -67 286 -76.5 Q 301 -86 315 -97 Q 338 -127 352 -162.5 Q 366 -198 367 -236 Q 366 -269 357.5 -301.5 Q 349 -334 333.5 -363 Q 318 -392 295.5 -417 Q 273 -442 245 -461 L 172 -427 L 141 -412 L 141 -132 Z M 129 60 L 88 44 L 371 -580 L 412 -564 Z " id="path33"/>
<path d="M 253 8 Q 239 8 224.5 7 Q 210 6 196 3 Q 182 0 168.5 -5.5 Q 155 -11 143 -18.5 Q 131 -26 120 -35.5 Q 109 -45 100 -56 Q 91 -67 84.5 -80 Q 78 -93 73 -106.5 Q 68 -120 65 -136.5 Q 62 -153 62 -163 L 62 -180 L 140 -180 L 140 -177 Q 140 -163 142.5 -148.5 Q 145 -134 151 -121 Q 157 -108 166.5 -97.5 Q 176 -87 188 -79.5 Q 200 -72 216 -67 Q 232 -62 242 -62 L 253 -62 Q 263 -62 272.5 -63.5 Q 282 -65 291.5 -67.5 Q 301 -70 309.5 -75 Q 318 -80 325 -86.5 Q 332 -93 338 -100.5 Q 344 -108 348.5 -116.5 Q 353 -125 356.5 -134 Q 360 -143 362 -152.5 Q 364 -162 365 -173.5 Q 366 -185 366 -192 L 366 -320 Q 366 -330 365.5 -339.5 Q 365 -349 363.5 -358.5 Q 362 -368 359 -377.5 Q 356 -387 352 -395.5 Q 348 -404 343 -412.5 Q 338 -421 331 -428 Q 324 -435 316 -440.5 Q 308 -446 299 -450 Q 290 -454 279 -456 Q 268 -458 262 -458 L 253 -458 Q 239 -458 224.5 -455 Q 210 -452 197.5 -446 Q 185 -440 174 -430.5 Q 163 -421 156 -408.5 Q 149 -396 144.5 -380 Q 140 -364 140 -355 L 140 -340 L 62 -340 L 62 -345 Q 62 -359 64 -373.5 Q 66 -388 69.5 -402 Q 73 -416 79 -429 Q 85 -442 93 -454 Q 101 -466 111 -476 Q 121 -486 132.5 -494.5 Q 144 -503 157 -509.5 Q 170 -516 183.5 -520 Q 197 -524 214 -526 Q 231 -528 241 -528 L 253 -528 Q 268 -528 283.5 -526.5 Q 299 -525 314 -521 Q 329 -517 343 -510.5 Q 357 -504 369.5 -495 Q 382 -486 392.5 -474.5 Q 403 -463 411 -450 Q 419 -437 425.5 -423 Q 432 -409 436 -394 Q 440 -379 442 -361.5 Q 444 -344 444 -334 L 444 -200 Q 444 -185 443 -169.5 Q 442 -154 439 -139 Q 436 -124 430.5 -109.5 Q 425 -95 417.5 -81.5 Q 410 -68 400.5 -56 Q 391 -44 379.5 -33.5 Q 368 -23 354.5 -15.5 Q 341 -8 326.5 -3 Q 312 2 294.5 5 Q 277 8 267 8 Z M 129 60 L 88 44 L 371 -580 L 412 -564 Z " id="path34"/>
<path d="M 165 8 Q 147 8 129 4 Q 111 -0 96 -9.5 Q 81 -19 70 -33.5 Q 59 -48 52 -64.5 Q 45 -81 42.5 -99 Q 40 -117 40 -135 L 40 -385 Q 40 -403 42.5 -421 Q 45 -439 52 -455.5 Q 59 -472 70 -486.5 Q 81 -501 96 -510.5 Q 111 -520 129 -524 Q 147 -528 165 -528 Q 188 -528 210.5 -520.5 Q 233 -513 250 -497 Q 266 -513 288.5 -520.5 Q 311 -528 334 -528 Q 352 -528 370 -523.5 Q 388 -519 402.5 -509 Q 417 -499 428 -484.5 Q 439 -470 445.5 -453 Q 452 -436 455 -418.5 Q 458 -401 458 -383 L 458 -375 L 380 -375 L 380 -379 Q 380 -392 378 -404.5 Q 376 -417 371.5 -428.5 Q 367 -440 357 -449 Q 347 -458 334 -458 Q 322 -458 312 -450.5 Q 302 -443 297 -432 Q 292 -421 290.5 -409 Q 289 -397 289 -385 L 289 -295 L 460 -295 L 460 -135 Q 460 -117 457.5 -99 Q 455 -81 448 -64.5 Q 441 -48 430 -33.5 Q 419 -19 404 -9.5 Q 389 -0 371 4 Q 353 8 335 8 Q 312 8 289.5 0.5 Q 267 -7 250 -23 Q 233 -7 210.5 0.5 Q 188 8 165 8 Z M 165 -62 Q 177 -62 187 -69.5 Q 197 -77 202.5 -87.5 Q 208 -98 209.5 -110.5 Q 211 -123 211 -135 L 211 -385 Q 211 -397 209.5 -409.5 Q 208 -422 202.5 -432.5 Q 197 -443 187 -450.5 Q 177 -458 165 -458 Q 152 -458 142 -450.5 Q 132 -443 126.5 -432.5 Q 121 -422 119.5 -409.5 Q 118 -397 118 -385 L 118 -135 Q 118 -123 119.5 -110.5 Q 121 -98 126.5 -87.5 Q 132 -77 142 -69.5 Q 152 -62 165 -62 Z M 335 -62 Q 348 -62 358 -69.5 Q 368 -77 373.5 -87.5 Q 379 -98 380.5 -110.5 Q 382 -123 382 -135 L 382 -225 L 289 -225 L 289 -135 Q 289 -123 290.5 -110.5 Q 292 -98 297.5 -87.5 Q 303 -77 313 -69.5 Q 323 -62 335 -62 Z " id="path35"/>
<path d="M 165 8 Q 155 8 144.5 7 Q 134 6 124 3 Q 114 -0 104.5 -4.5 Q 95 -9 87 -15.5 Q 79 -22 72.5 -30 Q 66 -38 61 -47 Q 56 -56 52 -65.5 Q 48 -75 45.5 -85 Q 43 -95 41.5 -107 Q 40 -119 40 -126 L 40 -295 L 211 -295 L 211 -385 Q 211 -392 210.5 -400 Q 210 -408 208.5 -415 Q 207 -422 204 -429 Q 201 -436 196.5 -442 Q 192 -448 184.5 -453 Q 177 -458 172 -458 L 166 -458 Q 158 -458 151 -454 Q 144 -450 138.5 -444 Q 133 -438 130 -431 Q 127 -424 125 -416.5 Q 123 -409 121.5 -400 Q 120 -391 120 -386 L 120 -375 L 42 -375 L 42 -383 Q 42 -393 43 -403.5 Q 44 -414 46 -424 Q 48 -434 51 -444 Q 54 -454 58.5 -463 Q 63 -472 69 -481 Q 75 -490 82.5 -497 Q 90 -504 98.5 -509.5 Q 107 -515 116.5 -519 Q 126 -523 138 -525.5 Q 150 -528 157 -528 L 166 -528 Q 173 -528 179.5 -527.5 Q 186 -527 192.5 -525.5 Q 199 -524 206 -522 Q 213 -520 220.5 -517 Q 228 -514 233.5 -511 Q 239 -508 242 -505 L 250 -497 Q 255 -502 260.5 -506 Q 266 -510 272 -513 Q 278 -516 284.5 -518.5 Q 291 -521 299 -523.5 Q 307 -526 313 -527 Q 319 -528 324 -528 L 335 -528 Q 345 -528 355.5 -527 Q 366 -526 376 -523 Q 386 -520 395.5 -515.5 Q 405 -511 413 -504.5 Q 421 -498 427.5 -490 Q 434 -482 439 -473 Q 444 -464 448 -454.5 Q 452 -445 454.5 -435 Q 457 -425 458.5 -413 Q 460 -401 460 -394 L 460 -135 Q 460 -125 459 -114.5 Q 458 -104 456.5 -94 Q 455 -84 451.5 -74 Q 448 -64 443.5 -55 Q 439 -46 433 -37.5 Q 427 -29 419.5 -21.5 Q 412 -14 403 -9 Q 394 -4 384.5 0 Q 375 4 363 6 Q 351 8 344 8 L 335 8 Q 328 8 321.5 7.5 Q 315 7 308.5 5.5 Q 302 4 295 2 Q 288 0 280.5 -3 Q 273 -6 267.5 -9 Q 262 -12 259 -15 L 250 -23 Q 245 -18 239.5 -14 Q 234 -10 228 -7 Q 222 -4 215.5 -1.5 Q 209 1 201 3.5 Q 193 6 187 7 Q 181 8 177 8 Z M 159 -62 L 165 -62 Q 173 -62 180 -65.5 Q 187 -69 192.5 -74 Q 198 -79 201.5 -85.5 Q 205 -92 207 -99 Q 209 -106 210 -115 Q 211 -124 211 -129 L 211 -225 L 118 -225 L 118 -135 Q 118 -128 118.5 -120 Q 119 -112 120.5 -104.5 Q 122 -97 125 -90 Q 128 -83 133 -77.5 Q 138 -72 145.5 -67 Q 153 -62 159 -62 Z M 329 -62 L 335 -62 Q 343 -62 350 -65 Q 357 -68 362.5 -73.5 Q 368 -79 372 -85 Q 376 -91 378 -98.5 Q 380 -106 381 -115 Q 382 -124 382 -129 L 382 -385 Q 382 -392 381.5 -400 Q 381 -408 379.5 -415.5 Q 378 -423 375 -430 Q 372 -437 367 -442.5 Q 362 -448 354.5 -453 Q 347 -458 342 -458 L 335 -458 Q 327 -458 320 -454.5 Q 313 -451 307.5 -446 Q 302 -441 298.5 -434.5 Q 295 -428 293 -421 Q 291 -414 290 -405 Q 289 -396 289 -391 L 289 -135 Q 289 -128 289.5 -120 Q 290 -112 291.5 -104.5 Q 293 -97 296 -90.5 Q 299 -84 304 -78 Q 309 -72 316.5 -67 Q 324 -62 329 -62 Z M 261 34 L 210 18 L 410 -554 L 461 -538 Z " id="path36"/>
<path d="M 165 8 Q 155 8 144.5 7 Q 134 6 124 3 Q 114 -0 104.5 -4.5 Q 95 -9 87 -15.5 Q 79 -22 72.5 -30 Q 66 -38 61 -47 Q 56 -56 52 -65.5 Q 48 -75 45.5 -85 Q 43 -95 41.5 -107 Q 40 -119 40 -126 L 40 -295 L 211 -295 L 211 -385 Q 211 -392 210.5 -400 Q 210 -408 208.5 -415 Q 207 -422 204 -429 Q 201 -436 196.5 -442 Q 192 -448 184.5 -453 Q 177 -458 172 -458 L 166 -458 Q 158 -458 151 -454 Q 144 -450 138.5 -444 Q 133 -438 130 -431 Q 127 -424 125 -416.5 Q 123 -409 121.5 -400 Q 120 -391 120 -386 L 120 -375 L 42 -375 L 42 -383 Q 42 -393 43 -403.5 Q 44 -414 46 -424 Q 48 -434 51 -444 Q 54 -454 58.5 -463 Q 63 -472 69 -481 Q 75 -490 82.5 -497 Q 90 -504 98.5 -509.5 Q 107 -515 116.5 -519 Q 126 -523 138 -525.5 Q 150 -528 157 -528 L 166 -528 Q 173 -528 179.5 -527.5 Q 186 -527 192.5 -525.5 Q 199 -524 206 -522 Q 213 -520 220.5 -517 Q 228 -514 233.5 -511 Q 239 -508 242 -505 L 250 -497 Q 255 -502 260.5 -506 Q 266 -510 272 -513 Q 278 -516 284.5 -518.5 Q 291 -521 299 -523.5 Q 307 -526 313 -527 Q 319 -528 324 -528 L 335 -528 Q 345 -528 355.5 -527 Q 366 -526 376 -523 Q 386 -520 395.5 -515.5 Q 405 -511 413 -504.5 Q 421 -498 427.5 -490 Q 434 -482 439 -473 Q 444 -464 448 -454.5 Q 452 -445 454.5 -435 Q 457 -425 458.5 -413 Q 460 -401 460 -394 L 460 -135 Q 460 -125 459 -114.5 Q 458 -104 456.5 -94 Q 455 -84 451.5 -74 Q 448 -64 443.5 -55 Q 439 -46 433 -37.5 Q 427 -29 419.5 -21.5 Q 412 -14 403 -9 Q 394 -4 384.5 0 Q 375 4 363 6 Q 351 8 344 8 L 335 8 Q 328 8 321.5 7.5 Q 315 7 308.5 5.5 Q 302 4 295 2 Q 288 0 280.5 -3 Q 273 -6 267.5 -9 Q 262 -12 259 -15 L 250 -23 Q 245 -18 239.5 -14 Q 234 -10 228 -7 Q 222 -4 215.5 -1.5 Q 209 1 201 3.5 Q 193 6 187 7 Q 181 8 177 8 Z M 159 -62 L 165 -62 Q 173 -62 180 -65.5 Q 187 -69 192.5 -74 Q 198 -79 201.5 -85.5 Q 205 -92 207 -99 Q 209 -106 210 -115 Q 211 -124 211 -129 L 211 -225 L 118 -225 L 118 -135 Q 118 -128 118.5 -120 Q 119 -112 120.5 -104.5 Q 122 -97 125 -90 Q 128 -83 133 -77.5 Q 138 -72 145.5 -67 Q 153 -62 159 -62 Z M 329 -62 L 335 -62 Q 343 -62 350 -65 Q 357 -68 362.5 -73.5 Q 368 -79 372 -85 Q 376 -91 378 -98.5 Q 380 -106 381 -115 Q 382 -124 382 -129 L 382 -385 Q 382 -392 381.5 -400 Q 381 -408 379.5 -415.5 Q 378 -423 375 -430 Q 372 -437 367 -442.5 Q 362 -448 354.5 -453 Q 347 -458 342 -458 L 335 -458 Q 327 -458 320 -454.5 Q 313 -451 307.5 -446 Q 302 -441 298.5 -434.5 Q 295 -428 293 -421 Q 291 -414 290 -405 Q 289 -396 289 -391 L 289 -135 Q 289 -128 289.5 -120 Q 290 -112 291.5 -104.5 Q 293 -97 296 -90.5 Q 299 -84 304 -78 Q 309 -72 316.5 -67 Q 324 -62 329 -62 Z M 459 -228 L 212 -228 L 212 -292 L 459 -292 Z " id="path37"/>
<path d="M 64 0 L 64 -117 Q 64 -140 67 -162.5 Q 70 -185 77.5 -206.5 Q 85 -228 98 -247.5 Q 111 -267 128.5 -281.5 Q 146 -296 167.5 -305 Q 189 -314 211 -317 L 211 -520 L 289 -520 L 289 -317 Q 311 -314 332.5 -305 Q 354 -296 371.5 -281.5 Q 389 -267 402 -247.5 Q 415 -228 422.5 -206.5 Q 430 -185 433 -162.5 Q 436 -140 436 -117 L 436 0 L 358 0 L 358 -117 Q 358 -133 356 -149.5 Q 354 -166 348.5 -181 Q 343 -196 334 -209.5 Q 325 -223 311.5 -232.5 Q 298 -242 282 -246 Q 266 -250 250 -250 Q 234 -250 218 -246 Q 202 -242 188.5 -232.5 Q 175 -223 166 -209.5 Q 157 -196 151.5 -181 Q 146 -166 144 -149.5 Q 142 -133 142 -117 L 142 0 Z " id="path38"/>
<path d="M 460 215 L 378 215 L 224 -200 L 142 -200 L 142 0 L 64 0 L 64 -520 L 281 -520 Q 302 -520 323.5 -516.5 Q 345 -513 364.5 -503.5 Q 384 -494 400 -478.5 Q 416 -463 426 -444 Q 436 -425 440 -403.5 Q 444 -382 444 -360 Q 444 -331 436 -302 Q 428 -273 409 -250.5 Q 390 -228 362.5 -215.5 Q 335 -203 306 -201 Z M 142 -270 L 281 -270 Q 298 -270 315.5 -276 Q 333 -282 345 -295 Q 357 -308 361.5 -325 Q 366 -342 366 -360 Q 366 -378 361.5 -395 Q 357 -412 345 -425.5 Q 333 -439 315.5 -444.5 Q 298 -450 281 -450 L 142 -450 Z " id="path39"/>
<path d="M 101 0 L 63 0 L 63 -70 L 101 -70 Q 117 -70 133 -74 Q 149 -78 163 -87 Q 177 -96 186.5 -110 Q 196 -124 201.5 -139.5 Q 207 -155 209 -171 Q 211 -187 211 -204 L 211 -531 Q 211 -558 215 -584 Q 219 -610 229.5 -634 Q 240 -658 257.5 -678.5 Q 275 -699 298 -712 Q 321 -725 347 -730 Q 373 -735 399 -735 L 438 -735 L 438 -665 L 399 -665 Q 383 -665 367 -661 Q 351 -657 337 -648 Q 323 -639 313.5 -625 Q 304 -611 298.5 -595.5 Q 293 -580 291 -564 Q 289 -548 289 -531 L 289 -204 Q 289 -177 285 -151 Q 281 -125 270.5 -101 Q 260 -77 242.5 -56.5 Q 225 -36 202 -23 Q 179 -10 153 -5 Q 127 -0 101 0 Z " id="path40"/>
<path d="M 220 8 Q 195 8 171 1 Q 147 -6 128.5 -21.5 Q 110 -37 97 -58.5 Q 84 -80 76.5 -103.5 Q 69 -127 66.5 -151.5 Q 64 -176 64 -200 L 64 -520 L 142 -520 L 142 -200 Q 142 -183 144 -166.5 Q 146 -150 151 -134.5 Q 156 -119 165.5 -105 Q 175 -91 188 -81 Q 201 -71 217 -66.5 Q 233 -62 250 -62 Q 267 -62 283 -66.5 Q 299 -71 312 -81 Q 325 -91 334.5 -105 Q 344 -119 349 -134.5 Q 354 -150 356 -166.5 Q 358 -183 358 -200 L 358 -360 L 436 -360 L 436 0 L 358 0 L 358 -91 Q 350 -70 337 -50.5 Q 324 -31 305.5 -17.5 Q 287 -4 264.5 2 Q 242 8 220 8 Z " id="path41"/>
<path d="M 220 8 Q 195 8 171 1 Q 147 -6 128.5 -21.5 Q 110 -37 97 -58.5 Q 84 -80 76.5 -103.5 Q 69 -127 66.5 -151.5 Q 64 -176 64 -200 L 64 -520 L 142 -520 L 142 -200 Q 142 -183 144 -166.5 Q 146 -150 151 -134.5 Q 156 -119 165.5 -105 Q 175 -91 188 -81 Q 201 -71 217 -66.5 Q 233 -62 250 -62 Q 267 -62 283 -66.5 Q 299 -71 312 -81 Q 325 -91 334.5 -105 Q 344 -119 349 -134.5 Q 354 -150 356 -166.5 Q 358 -183 358 -200 L 358 -360 L 436 -360 L 436 0 L 358 0 L 358 -91 Q 350 -70 337 -50.5 Q 324 -31 305.5 -17.5 Q 287 -4 264.5 2 Q 242 8 220 8 Z M 468 -228 L 32 -228 L 32 -292 L 468 -292 Z " id="path42"/>
<path d="M 220 8 Q 195 8 171 1 Q 147 -6 128.5 -21.5 Q 110 -37 97 -58.5 Q 84 -80 76.5 -103.5 Q 69 -127 66.5 -151.5 Q 64 -176 64 -200 L 64 -389 Q 64 -410 57.5 -431 Q 51 -452 36 -467.5 Q 21 -483 0 -489.5 Q -21 -496 -42 -496 L -42 -566 Q -18 -566 6 -562 Q 30 -558 52 -547.5 Q 74 -537 92 -520.5 Q 110 -504 121.5 -482.5 Q 133 -461 137.5 -437 Q 142 -413 142 -389 L 142 -200 Q 142 -183 144 -166.5 Q 146 -150 151 -134.5 Q 156 -119 165.5 -105 Q 175 -91 188 -81 Q 201 -71 217 -66.5 Q 233 -62 250 -62 Q 267 -62 283 -66.5 Q 299 -71 312 -81 Q 325 -91 334.5 -105 Q 344 -119 349 -134.5 Q 354 -150 356 -166.5 Q 358 -183 358 -200 L 358 -520 L 436 -520 L 436 0 L 358 0 L 358 -91 Q 350 -70 337 -50.5 Q 324 -31 305.5 -17.5 Q 287 -4 264.5 2 Q 242 8 220 8 Z " id="path43"/>
<path d="M 48 215 L 210 -153 L 48 -520 L 133 -520 L 250 -247 L 367 -520 L 452 -520 L 290 -152 L 452 215 L 367 215 L 250 -58 L 133 215 Z " id="path44"/>
<path d="M 250 -278 Q 221 -278 192 -285.5 Q 163 -293 139.5 -310.5 Q 116 -328 99 -352.5 Q 82 -377 72.5 -404.5 Q 63 -432 59.5 -461.5 Q 56 -491 56 -520 L 134 -520 Q 134 -501 135.5 -481.5 Q 137 -462 142 -443 Q 147 -424 156 -406.5 Q 165 -389 179 -375.5 Q 193 -362 212 -355 Q 231 -348 250 -348 Q 269 -348 288 -355 Q 307 -362 321 -375.5 Q 335 -389 344 -406.5 Q 353 -424 358 -443 Q 363 -462 364.5 -481.5 Q 366 -501 366 -520 L 444 -520 Q 444 -491 440.5 -461.5 Q 437 -432 427.5 -404.5 Q 418 -377 401 -352.5 Q 384 -328 360.5 -310.5 Q 337 -293 308 -285.5 Q 279 -278 250 -278 Z M 56 0 Q 56 -29 59.5 -58.5 Q 63 -88 72.5 -115.5 Q 82 -143 99 -167.5 Q 116 -192 139.5 -209.5 Q 163 -227 192 -234.5 Q 221 -242 250 -242 Q 279 -242 308 -234.5 Q 337 -227 360.5 -209.5 Q 384 -192 401 -167.5 Q 418 -143 427.5 -115.5 Q 437 -88 440.5 -58.5 Q 444 -29 444 0 L 366 0 Q 366 -19 364.5 -38.5 Q 363 -58 358 -77 Q 353 -96 344 -113.5 Q 335 -131 321 -144.5 Q 307 -158 288 -165 Q 269 -172 250 -172 Q 231 -172 212 -165 Q 193 -158 179 -144.5 Q 165 -131 156 -113.5 Q 147 -96 142 -77 Q 137 -58 135.5 -38.5 Q 134 -19 134 0 Z " id="path45"/>
<path d="M 234 -172 L 234 -242 L 254 -242 Q 267 -242 279 -246.5 Q 291 -251 299.5 -260.5 Q 308 -270 311 -282.5 Q 314 -295 314 -308 L 314 -547 Q 314 -561 311 -575 Q 308 -589 299.5 -600.5 Q 291 -612 277.5 -617.5 Q 264 -623 250 -623 Q 236 -623 222.5 -617.5 Q 209 -612 200.5 -600.5 Q 192 -589 189 -575 Q 186 -561 186 -547 L 186 -323 L 109 -323 L 109 -838 L 186 -838 L 186 -628 Q 192 -642 201 -654.5 Q 210 -667 223 -676 Q 236 -685 251 -689 Q 266 -693 282 -693 Q 299 -693 315.5 -688 Q 332 -683 345.5 -672 Q 359 -661 368 -646 Q 377 -631 382.5 -615 Q 388 -599 389.5 -581.5 Q 391 -564 391 -547 L 391 -308 Q 391 -290 388 -271.5 Q 385 -253 376.5 -237 Q 368 -221 355 -208 Q 342 -195 325.5 -187 Q 309 -179 290.5 -175.5 Q 272 -172 254 -172 Z " id="path46"/>
<path d="M 373 -323 L 128 -323 L 128 -392 L 216 -392 L 216 -566 L 181 -566 Q 176 -566 171 -564 Q 166 -562 162.5 -558 Q 159 -554 158 -548.5 Q 157 -543 157 -538 Q 157 -533 158 -527.5 Q 159 -522 162.5 -518 Q 166 -514 171 -512.5 Q 176 -511 181 -511 L 181 -461 Q 166 -461 150 -465 Q 134 -469 122.5 -480 Q 111 -491 106 -506.5 Q 101 -522 101 -538 Q 101 -554 106 -569.5 Q 111 -585 122.5 -596 Q 134 -607 150 -611.5 Q 166 -616 181 -616 L 216 -616 L 216 -768 L 137 -768 L 137 -838 L 293 -838 L 293 -616 L 328 -616 Q 334 -616 339 -617.5 Q 344 -619 347.5 -623 Q 351 -627 352 -632.5 Q 353 -638 353 -643 Q 353 -648 352 -653.5 Q 351 -659 347.5 -663 Q 344 -667 339 -669 Q 334 -671 328 -671 L 328 -721 Q 344 -721 359.5 -716.5 Q 375 -712 387 -701 Q 399 -690 404 -674.5 Q 409 -659 409 -643 Q 409 -627 404 -611.5 Q 399 -596 387 -585 Q 375 -574 359.5 -570 Q 344 -566 328 -566 L 293 -566 L 293 -392 L 373 -392 Z " id="path47"/>
<path d="M 373 -323 L 128 -323 L 128 -392 L 216 -392 L 216 -591 Q 214 -590 210.5 -587 Q 207 -584 205.5 -582 Q 204 -580 202 -577.5 Q 200 -575 198 -572 Q 196 -569 193.5 -566 Q 191 -563 188.5 -559 Q 186 -555 183.5 -550.5 Q 181 -546 178 -541 L 130 -566 Q 136 -577 142 -586 Q 148 -595 153.5 -602.5 Q 159 -610 165.5 -616.5 Q 172 -623 180 -628.5 Q 188 -634 197 -637.5 Q 206 -641 216 -641 L 216 -768 L 137 -768 L 137 -838 L 293 -838 L 293 -590 Q 296 -591 299 -594 Q 302 -597 304 -599 Q 306 -601 308 -603.5 Q 310 -606 312 -609 Q 314 -612 316.5 -615 Q 319 -618 321.5 -622 Q 324 -626 326.5 -630.5 Q 329 -635 332 -640 L 380 -615 Q 374 -604 368 -595 Q 362 -586 356 -578.5 Q 350 -571 344 -564.5 Q 338 -558 330 -552.5 Q 322 -547 312.5 -543.5 Q 303 -540 293 -540 L 293 -392 L 373 -392 Z " id="path48"/>
<path d="M 218 -317 Q 201 -317 184.5 -322 Q 168 -327 154.5 -338 Q 141 -349 132 -364 Q 123 -379 117.5 -395 Q 112 -411 110.5 -428.5 Q 109 -446 109 -463 L 109 -575 Q 109 -588 105.5 -600 Q 102 -612 93.5 -621.5 Q 85 -631 73 -635.5 Q 61 -640 48 -640 L 46 -640 L 46 -709 L 48 -709 Q 66 -709 84.5 -706 Q 103 -703 119 -695 Q 135 -687 148.5 -674.5 Q 162 -662 170.5 -645.5 Q 179 -629 182.5 -611 Q 186 -593 186 -575 L 186 -463 Q 186 -449 189 -435 Q 192 -421 200.5 -409.5 Q 209 -398 222.5 -392.5 Q 236 -387 250 -387 Q 264 -387 277.5 -392.5 Q 291 -398 299.5 -409.5 Q 308 -421 311 -435 Q 314 -449 314 -463 L 314 -687 L 391 -687 L 391 -323 L 314 -323 L 314 -382 Q 308 -368 299 -355.5 Q 290 -343 277 -334 Q 264 -325 249 -321 Q 234 -317 218 -317 Z " id="path49"/>
<path d="M 48 0 L 48 -520 L 289 -520 L 289 -321 L 327 -321 Q 346 -321 365.5 -316.5 Q 385 -312 401.5 -300.5 Q 418 -289 429.5 -273 Q 441 -257 448 -238.5 Q 455 -220 457.5 -200 Q 460 -180 460 -161 Q 460 -141 457.5 -121 Q 455 -101 448 -82.5 Q 441 -64 429.5 -48 Q 418 -32 401.5 -20.5 Q 385 -9 365.5 -4.5 Q 346 -0 327 0 L 211 0 L 211 -450 L 126 -450 L 126 0 Z M 289 -70 L 327 -70 Q 341 -70 353.5 -79.5 Q 366 -89 372 -102.5 Q 378 -116 380 -131 Q 382 -146 382 -161 Q 382 -175 380 -190 Q 378 -205 372 -218.5 Q 366 -232 353.5 -241.5 Q 341 -251 327 -251 L 289 -251 Z " id="path50"/>
<path d="M 334 8 Q 317 8 299 4 Q 281 -0 266 -9.5 Q 251 -19 240 -33.5 Q 229 -48 222.5 -64.5 Q 216 -81 213.5 -99 Q 211 -117 211 -135 L 211 -225 L 126 -225 L 126 0 L 48 0 L 48 -520 L 126 -520 L 126 -295 L 211 -295 L 211 -385 Q 211 -403 213.5 -421 Q 216 -439 222.5 -455.5 Q 229 -472 240.5 -486.5 Q 252 -501 267 -510.5 Q 282 -520 299.5 -524 Q 317 -528 335 -528 Q 353 -528 371 -524 Q 389 -520 404 -510.5 Q 419 -501 430 -486.5 Q 441 -472 448 -455.5 Q 455 -439 457.5 -421 Q 460 -403 460 -385 L 460 -225 L 289 -225 L 289 -135 Q 289 -123 290.5 -111 Q 292 -99 297 -88 Q 302 -77 312 -69.5 Q 322 -62 334 -62 Q 347 -62 357 -71 Q 367 -80 371.5 -91.5 Q 376 -103 378 -115.5 Q 380 -128 380 -141 L 380 -145 L 458 -145 L 458 -137 Q 458 -119 455 -101.5 Q 452 -84 445.5 -67 Q 439 -50 428 -35.5 Q 417 -21 402.5 -11 Q 388 -1 370 3.5 Q 352 8 334 8 Z M 289 -295 L 382 -295 L 382 -385 Q 382 -397 380.5 -409.5 Q 379 -422 373.5 -432.5 Q 368 -443 358 -450.5 Q 348 -458 335 -458 Q 323 -458 313 -450.5 Q 303 -443 297.5 -432.5 Q 292 -422 290.5 -409.5 Q 289 -397 289 -385 Z " id="path51"/>
<path d="M 168 8 Q 148 8 128.5 1 Q 109 -6 95 -20.5 Q 81 -35 71.5 -53.5 Q 62 -72 56.5 -91.5 Q 51 -111 48.5 -131 Q 46 -151 46 -171 L 46 -180 L 124 -180 L 124 -174 Q 124 -163 124.5 -152.5 Q 125 -142 126.5 -131 Q 128 -120 130.5 -109.5 Q 133 -99 137.5 -89 Q 142 -79 149.5 -70.5 Q 157 -62 168 -62 Q 180 -62 189.5 -70 Q 199 -78 203.5 -88.5 Q 208 -99 209.5 -111 Q 211 -123 211 -135 L 211 -385 Q 211 -397 209.5 -409 Q 208 -421 203.5 -431.5 Q 199 -442 189.5 -450 Q 180 -458 168 -458 Q 157 -458 149.5 -449.5 Q 142 -441 137.5 -431 Q 133 -421 130.5 -410.5 Q 128 -400 126.5 -389 Q 125 -378 124.5 -367.5 Q 124 -357 124 -346 L 124 -340 L 46 -340 L 46 -349 Q 46 -369 48.5 -389 Q 51 -409 56.5 -428.5 Q 62 -448 71.5 -466.5 Q 81 -485 95 -499.5 Q 109 -514 128.5 -521 Q 148 -528 168 -528 Q 191 -528 213 -520.5 Q 235 -513 251 -498 Q 267 -514 289.5 -521 Q 312 -528 335 -528 Q 353 -528 371 -524 Q 389 -520 404 -510.5 Q 419 -501 430 -486.5 Q 441 -472 448 -455.5 Q 455 -439 457.5 -421 Q 460 -403 460 -385 L 460 -225 L 289 -225 L 289 -135 Q 289 -123 290.5 -111 Q 292 -99 297 -88 Q 302 -77 312 -69.5 Q 322 -62 334 -62 Q 347 -62 357 -71 Q 367 -80 371.5 -91.5 Q 376 -103 378 -115.5 Q 380 -128 380 -141 L 380 -145 L 458 -145 L 458 -137 Q 458 -119 455 -101.5 Q 452 -84 445.5 -67 Q 439 -50 428 -35.5 Q 417 -21 402.5 -11 Q 388 -1 370 3.5 Q 352 8 334 8 Q 311 8 289 1 Q 267 -6 250 -22 Q 234 -6 212.5 1 Q 191 8 168 8 Z M 289 -295 L 382 -295 L 382 -385 Q 382 -397 380.5 -409.5 Q 379 -422 373.5 -432.5 Q 368 -443 358 -450.5 Q 348 -458 335 -458 Q 323 -458 313 -450.5 Q 303 -443 297.5 -432.5 Q 292 -422 290.5 -409.5 Q 289 -397 289 -385 Z " id="path52"/>
<path d="M 138 8 Q 122 8 107.5 2 Q 93 -4 82 -16 Q 71 -28 64.5 -42.5 Q 58 -57 54.5 -72.5 Q 51 -88 49.5 -103.5 Q 48 -119 48 -135 L 48 -520 L 126 -520 L 126 -135 Q 126 -123 127.5 -111.5 Q 129 -100 133.5 -89 Q 138 -78 147.5 -70 Q 157 -62 169 -62 Q 180 -62 189.5 -70 Q 199 -78 203.5 -89 Q 208 -100 209.5 -111.5 Q 211 -123 211 -135 L 211 -385 Q 211 -403 213.5 -421 Q 216 -439 222.5 -455.5 Q 229 -472 240.5 -486.5 Q 252 -501 267 -510.5 Q 282 -520 299.5 -524 Q 317 -528 335 -528 Q 353 -528 371 -524 Q 389 -520 404 -510.5 Q 419 -501 430 -486.5 Q 441 -472 448 -455.5 Q 455 -439 457.5 -421 Q 460 -403 460 -385 L 460 -135 Q 460 -117 457.5 -99 Q 455 -81 448 -64.5 Q 441 -48 430 -33.5 Q 419 -19 404 -9.5 Q 389 -0 371 4 Q 353 8 335 8 Q 317 8 298.5 3.5 Q 280 -1 264.5 -11 Q 249 -21 238 -36.5 Q 227 -52 221 -69 Q 217 -54 210.5 -40 Q 204 -26 193.5 -15 Q 183 -4 168.5 2 Q 154 8 138 8 Z M 335 -62 Q 348 -62 358 -69.5 Q 368 -77 373.5 -87.5 Q 379 -98 380.5 -110.5 Q 382 -123 382 -135 L 382 -385 Q 382 -397 380.5 -409.5 Q 379 -422 373.5 -432.5 Q 368 -443 358 -450.5 Q 348 -458 335 -458 Q 323 -458 313 -450.5 Q 303 -443 297.5 -432.5 Q 292 -422 290.5 -409.5 Q 289 -397 289 -385 L 289 -135 Q 289 -123 290.5 -110.5 Q 292 -98 297.5 -87.5 Q 303 -77 313 -69.5 Q 323 -62 335 -62 Z " id="path53"/>
<path d="M 216 8 Q 191 8 166.5 1 Q 142 -6 123 -21 Q 104 -36 90.5 -57.5 Q 77 -79 69.5 -102.5 Q 62 -126 59 -150.5 Q 56 -175 56 -200 L 56 -320 Q 56 -345 59 -369.5 Q 62 -394 69.5 -417.5 Q 77 -441 90.5 -462.5 Q 104 -484 123 -499 Q 142 -514 166.5 -521 Q 191 -528 216 -528 Q 239 -528 262 -522 Q 285 -516 304 -502 Q 323 -488 336.5 -469 Q 350 -450 358 -428 L 358 -520 L 436 -520 L 436 0 L 358 -35 L 358 -92 Q 350 -70 336.5 -51 Q 323 -32 304 -18 Q 285 -4 262 2 Q 239 8 216 8 Z M 246 -62 Q 263 -62 279.5 -66 Q 296 -70 309.5 -80 Q 323 -90 333 -104 Q 343 -118 348.5 -134 Q 354 -150 356 -166.5 Q 358 -183 358 -200 L 358 -320 Q 358 -337 356 -353.5 Q 354 -370 348.5 -386 Q 343 -402 333 -416 Q 323 -430 309.5 -440 Q 296 -450 279.5 -454 Q 263 -458 246 -458 Q 229 -458 212.5 -454 Q 196 -450 182.5 -440 Q 169 -430 159 -416 Q 149 -402 143.5 -386 Q 138 -370 136 -353.5 Q 134 -337 134 -320 L 134 -200 Q 134 -183 136 -166.5 Q 138 -150 143.5 -134 Q 149 -118 159 -104 Q 169 -90 182.5 -80 Q 196 -70 212.5 -66 Q 229 -62 246 -62 Z " id="path54"/>
<path d="M 64 0 L 64 -70 L 152 -70 Q 128 -80 110 -99 Q 92 -118 82 -141.5 Q 72 -165 68 -190.5 Q 64 -216 64 -242 L 64 -320 Q 64 -346 68 -372.5 Q 72 -399 82 -423.5 Q 92 -448 109 -468.5 Q 126 -489 148.5 -503 Q 171 -517 197.5 -522.5 Q 224 -528 250 -528 Q 276 -528 302.5 -522.5 Q 329 -517 351.5 -503 Q 374 -489 391 -468.5 Q 408 -448 418 -423.5 Q 428 -399 432 -372.5 Q 436 -346 436 -320 L 436 -242 Q 436 -216 432 -190.5 Q 428 -165 418 -141.5 Q 408 -118 390 -99 Q 372 -80 348 -70 L 436 -70 L 436 0 L 287 0 L 287 -112 L 291 -112 Q 304 -112 316 -119.5 Q 328 -127 335.5 -138 Q 343 -149 347 -162 Q 351 -175 354 -188 Q 357 -201 357.5 -214.5 Q 358 -228 358 -242 L 358 -320 Q 358 -337 356 -353.5 Q 354 -370 349 -385.5 Q 344 -401 334.5 -415 Q 325 -429 312 -439 Q 299 -449 283 -453.5 Q 267 -458 250 -458 Q 233 -458 217 -453.5 Q 201 -449 188 -439 Q 175 -429 165.5 -415 Q 156 -401 151 -385.5 Q 146 -370 144 -353.5 Q 142 -337 142 -320 L 142 -242 Q 142 -228 142.5 -214.5 Q 143 -201 146 -188 Q 149 -175 153 -162 Q 157 -149 164.5 -138 Q 172 -127 184 -119.5 Q 196 -112 209 -112 L 213 -112 L 213 0 Z " id="path55"/>
<path d="M 126 8 Q 111 8 98 -1 Q 85 -10 77 -23 Q 69 -36 64 -50.5 Q 59 -65 55.5 -79.5 Q 52 -94 49.5 -109 Q 47 -124 46 -139 Q 45 -154 44.5 -169.5 Q 44 -185 44 -200 L 44 -320 Q 44 -335 44.5 -350.5 Q 45 -366 46 -381 Q 47 -396 49.5 -411 Q 52 -426 55.5 -440.5 Q 59 -455 64 -469.5 Q 69 -484 77 -497 Q 85 -510 98 -519 Q 111 -528 126 -528 Q 141 -528 154 -518.5 Q 167 -509 175 -496.5 Q 183 -484 188 -469.5 Q 193 -455 196 -440 L 196 -735 L 257 -735 L 257 0 L 196 0 L 196 -80 Q 193 -65 188 -50.5 Q 183 -36 175 -23.5 Q 167 -11 154 -1.5 Q 141 8 126 8 Z M 151 -62 Q 160 -62 167.5 -69 Q 175 -76 179 -85 Q 183 -94 186 -103.5 Q 189 -113 190.5 -122.5 Q 192 -132 193.5 -141.5 Q 195 -151 195.5 -161 Q 196 -171 196 -180.5 Q 196 -190 196 -200 L 196 -320 Q 196 -330 196 -339.5 Q 196 -349 195.5 -359 Q 195 -369 193.5 -378.5 Q 192 -388 190.5 -397.5 Q 189 -407 186 -416.5 Q 183 -426 179 -435 Q 175 -444 167.5 -451 Q 160 -458 151 -458 Q 141 -458 133.5 -451 Q 126 -444 122 -435 Q 118 -426 115.5 -416.5 Q 113 -407 111 -397.5 Q 109 -388 108 -378.5 Q 107 -369 106 -359 Q 105 -349 105 -339.5 Q 105 -330 105 -320 L 105 -200 Q 105 -190 105 -180.5 Q 105 -171 106 -161 Q 107 -151 108 -141.5 Q 109 -132 111 -122.5 Q 113 -113 115.5 -103.5 Q 118 -94 122 -85 Q 126 -76 133.5 -69 Q 141 -62 151 -62 Z M 536 223 Q 515 223 494.5 218 Q 474 213 457 200.5 Q 440 188 428 170.5 Q 416 153 408.5 133 Q 401 113 398.5 92 Q 396 71 396 50 L 396 0 L 242 0 L 242 -70 L 389 -450 L 242 -450 L 242 -520 L 449 -520 L 449 -450 L 302 -70 L 449 -70 L 449 50 Q 449 70 453 90.5 Q 457 111 468 127.5 Q 479 144 497.5 153 Q 516 162 536 162 Z " id="path56"/>
<path d="M 257 0 L 247 0 Q 226 -0 206.5 -5 Q 187 -10 170.5 -22.5 Q 154 -35 143 -52 Q 132 -69 125.5 -88.5 Q 119 -108 116.5 -128 Q 114 -148 114 -169 L 114 -450 L 50 -450 L 50 -520 L 114 -520 L 114 -735 L 175 -735 L 175 -520 L 257 -520 L 257 -450 L 175 -450 L 175 -169 Q 175 -151 178 -134 Q 181 -117 189.5 -102 Q 198 -87 214 -78.5 Q 230 -70 247 -70 L 257 -70 Z M 383 223 Q 362 223 341.5 218 Q 321 213 303.5 200.5 Q 286 188 274 170.5 Q 262 153 254.5 133 Q 247 113 244.5 92 Q 242 71 242 50 L 242 -180 L 296 -180 L 296 -135 Q 296 -123 297.5 -111 Q 299 -99 304 -88 Q 309 -77 319.5 -69.5 Q 330 -62 342 -62 Q 353 -62 363 -68.5 Q 373 -75 378.5 -84.5 Q 384 -94 386.5 -105.5 Q 389 -117 389 -129 Q 389 -144 384.5 -159.5 Q 380 -175 371.5 -188 Q 363 -201 351 -211 Q 339 -221 326.5 -230 Q 314 -239 303 -250.5 Q 292 -262 283.5 -274.5 Q 275 -287 268.5 -301.5 Q 262 -316 257.5 -331 Q 253 -346 250.5 -361.5 Q 248 -377 248 -393 Q 248 -408 250.5 -423.5 Q 253 -439 257.5 -454.5 Q 262 -470 270 -483.5 Q 278 -497 289.5 -507.5 Q 301 -518 316 -523 Q 331 -528 347 -528 Q 362 -528 377.5 -523 Q 393 -518 404.5 -507.5 Q 416 -497 423.5 -483 Q 431 -469 436 -454 Q 441 -439 443 -423.5 Q 445 -408 445 -392 L 445 -385 L 384 -385 L 384 -389 Q 384 -400 382.5 -410.5 Q 381 -421 377 -431.5 Q 373 -442 365 -450 Q 357 -458 347 -458 Q 336 -458 328 -450.5 Q 320 -443 316 -433 Q 312 -423 310.5 -412.5 Q 309 -402 309 -392 Q 309 -376 313 -360.5 Q 317 -345 326 -332 Q 335 -319 347 -309 Q 359 -299 371.5 -289.5 Q 384 -280 395 -269 Q 406 -258 414.5 -245 Q 423 -232 430 -217.5 Q 437 -203 441 -188 Q 445 -173 447.5 -157.5 Q 450 -142 450 -126 Q 450 -111 448 -96.5 Q 446 -82 442 -67.5 Q 438 -53 432 -39.5 Q 426 -26 416 -15 Q 406 -4 392 2 Q 378 8 363 8 Q 353 8 342 5 Q 331 2 322.5 -4 Q 314 -10 307 -19 Q 300 -28 296 -38 L 296 50 Q 296 70 300 90.5 Q 304 111 315 127.5 Q 326 144 344.5 153 Q 363 162 383 162 Z " id="path57"/>
<path d="M 171 8 Q 160 8 149.5 6.5 Q 139 5 128.5 2 Q 118 -1 109 -6 Q 100 -11 92 -18 Q 84 -25 78 -34 Q 72 -43 67 -52.5 Q 62 -62 58.5 -72.5 Q 55 -83 53 -93 Q 51 -103 50 -115.5 Q 49 -128 49 -136 L 49 -145 L 127 -145 Q 127 -136 128 -126.5 Q 129 -117 131 -108.5 Q 133 -100 137.5 -91.5 Q 142 -83 148.5 -77 Q 155 -71 165 -66.5 Q 175 -62 182 -62 L 189 -62 Q 200 -62 211.5 -65 Q 223 -68 233 -73.5 Q 243 -79 251 -86.5 Q 259 -94 265.5 -103.5 Q 272 -113 277 -123.5 Q 282 -134 285.5 -144.5 Q 289 -155 291 -166.5 Q 293 -178 294.5 -189 Q 296 -200 297 -213.5 Q 298 -227 298 -235 L 298 -520 L 376 -520 L 376 0 L 298 0 L 298 -108 Q 294 -94 288 -80.5 Q 282 -67 274.5 -54.5 Q 267 -42 257.5 -31 Q 248 -20 236.5 -12 Q 225 -4 208.5 2 Q 192 8 183 8 Z M 366 -191 Q 362 -191 358 -191.5 Q 354 -192 350 -193 Q 346 -194 342 -195.5 Q 338 -197 334 -199 Q 330 -201 327 -203.5 Q 324 -206 321 -208 Q 318 -210 314.5 -213.5 Q 311 -217 308 -220 Q 305 -223 302.5 -226 Q 300 -229 297.5 -232 Q 295 -235 292.5 -238 Q 290 -241 287 -245 Q 284 -249 281 -252.5 Q 278 -256 275.5 -258.5 Q 273 -261 269 -263.5 Q 265 -266 265 -268 L 266 -268 L 264 -266 Q 261 -264 259 -262 Q 257 -260 255 -257.5 Q 253 -255 252 -254 Q 251 -253 249.5 -251 Q 248 -249 246.5 -247.5 Q 245 -246 244 -244 Q 243 -242 241.5 -240 Q 240 -238 238.5 -235.5 Q 237 -233 235.5 -230.5 Q 234 -228 232.5 -225.5 Q 231 -223 229 -220 Q 227 -217 225.5 -214 Q 224 -211 222 -207.5 Q 220 -204 218.5 -200.5 Q 217 -197 215 -194 L 155 -221 Q 163 -237 170 -249.5 Q 177 -262 184.5 -272.5 Q 192 -283 199 -292 Q 206 -301 216.5 -309.5 Q 227 -318 239.5 -323.5 Q 252 -329 266 -329 Q 270 -329 274 -328.5 Q 278 -328 282 -327 Q 286 -326 290 -324.5 Q 294 -323 298 -321 Q 302 -319 305 -316.5 Q 308 -314 311 -312 Q 314 -310 317.5 -306.5 Q 321 -303 324 -300 Q 327 -297 329.5 -294 Q 332 -291 334.5 -288 Q 337 -285 339.5 -282 Q 342 -279 345 -275 Q 348 -271 351 -267.5 Q 354 -264 356.5 -261.5 Q 359 -259 363 -256.5 Q 367 -254 367 -252 L 366 -252 L 369 -254 Q 371 -256 373 -258 Q 375 -260 377 -262.5 Q 379 -265 380 -266 Q 381 -267 382.5 -269 Q 384 -271 385.5 -272.5 Q 387 -274 388 -276 Q 389 -278 390.5 -280 Q 392 -282 393.5 -284.5 Q 395 -287 396.5 -289.5 Q 398 -292 399.5 -294.5 Q 401 -297 403 -300 Q 405 -303 406.5 -306 Q 408 -309 410 -312.5 Q 412 -316 413.5 -319.5 Q 415 -323 417 -326 L 477 -299 Q 469 -283 462 -270.5 Q 455 -258 447.5 -247.5 Q 440 -237 433 -228 Q 426 -219 415.5 -210.5 Q 405 -202 392.5 -196.5 Q 380 -191 366 -191 Z " id="path58"/>
<path d="M 89 -323 L 150 -687 L 213 -687 L 250 -504 L 287 -687 L 350 -687 L 411 -323 L 334 -323 L 314 -612 L 282 -425 L 218 -425 L 186 -612 L 166 -323 Z " id="path59"/>
<path d="M 311 -140 L 311 -235 L 150 -235 L 150 -305 L 311 -305 L 311 -400 L 389 -400 L 389 -140 Z " id="path60"/>
<path d="M 111 -140 L 111 -400 L 189 -400 L 189 -305 L 350 -305 L 350 -235 L 189 -235 L 189 -140 Z " id="path61"/>
</defs>
<g>
<g data-source-text="0" fill="#dee4e3" transform="translate(174 41.292) rotate(0) scale(0.023999998)">
<use href="#path1" transform="translate(0 0)"/>
</g>
</g>
<g>
<g data-source-text="1" fill="#dee4e3" transform="translate(246 41.292) rotate(0) scale(0.023999998)">
<use href="#path2" transform="translate(0 0)"/>
</g>
</g>
<g>
<g data-source-text="2" fill="#dee4e3" transform="translate(318 41.292) rotate(0) scale(0.023999998)">
<use href="#path3" transform="translate(0 0)"/>
</g>
</g>
<g>
<g data-source-text="3" fill="#dee4e3" transform="translate(390 41.292) rotate(0) scale(0.023999998)">
<use href="#path4" transform="translate(0 0)"/>
</g>
</g>
<g>
<g data-source-text="4" fill="#dee4e3" transform="translate(462 41.292) rotate(0) scale(0.023999998)">
<use href="#path5" transform="translate(0 0)"/>
</g>
</g>
<g>
<g data-source-text="5" fill="#dee4e3" transform="translate(534 41.292) rotate(0) scale(0.023999998)">
<use href="#path6" transform="translate(0 0)"/>
</g>
</g>
<g>
<g data-source-text="6" fill="#dee4e3" transform="translate(606 41.292) rotate(0) scale(0.023999998)">
<use href="#path7" transform="translate(0 0)"/>
</g>
</g>
<g>
<g data-source-text="7" fill="#dee4e3" transform="translate(678 41.292) rotate(0) scale(0.023999998)">
<use href="#path8" transform="translate(0 0)"/>
</g>
</g>
<g>
<g data-source-text="8" fill="#dee4e3" transform="translate(750 41.292) rotate(0) scale(0.023999998)">
<use href="#path9" transform="translate(0 0)"/>
</g>
</g>
<g>
<g data-source-text="9" fill="#dee4e3" transform="translate(822 41.292) rotate(0) scale(0.023999998)">
<use href="#path10" transform="translate(0 0)"/>
</g>
</g>
<g>
<g data-source-text="A" fill="#dee4e3" transform="translate(894 41.292) rotate(0) scale(0.023999998)">
<use href="#path11" transform="translate(0 0)"/>
</g>
</g>
<g>
<g data-source-text="B" fill="#dee4e3" transform="translate(966 41.292) rotate(0) scale(0.023999998)">
<use href="#path12" transform="translate(0 0)"/>
</g>
</g>
<g>
<g data-source-text="C" fill="#dee4e3" transform="translate(1038 41.292) rotate(0) scale(0.023999998)">
<use href="#path13" transform="translate(0 0)"/>
</g>
</g>
<g>
<g data-source-text="D" fill="#dee4e3" transform="translate(1110 41.292) rotate(0) scale(0.023999998)">
<use href="#path14" transform="translate(0 0)"/>
</g>
</g>
<g>
<g data-source-text="E" fill="#dee4e3" transform="translate(1182 41.292) rotate(0) scale(0.023999998)">
<use href="#path15" transform="translate(0 0)"/>
</g>
</g>
<g>
<g data-source-text="F" fill="#dee4e3" transform="translate(1254 41.292) rotate(0) scale(0.023999998)">
<use href="#path16" transform="translate(0 0)"/>
</g>
</g>
<g>
<g data-source-text="U+AB30" fill="#dee4e3" transform="translate(36 113.292) rotate(0) scale(0.023999998)">
<use href="#path17" transform="translate(0 0)"/>
<use href="#path18" transform="translate(500 0)"/>
<use href="#path11" transform="translate(1000 0)"/>
<use href="#path12" transform="translate(1500 0)"/>
<use href="#path4" transform="translate(2000 0)"/>
<use href="#path1" transform="translate(2500 0)"/>
</g>
</g>
<g>
<g data-source-text="" fill="#dee4e3" transform="translate(168 118.584) rotate(0) scale(0.047999997)">
<use href="#path19" transform="translate(0 0)"/>
</g>
</g>
<g>
<g data-source-text="" fill="#dee4e3" transform="translate(240 118.584) rotate(0) scale(0.047999997)">
<use href="#path20" transform="translate(0 0)"/>
</g>
</g>
<g>
<g data-source-text="" fill="#dee4e3" transform="translate(312 118.584) rotate(0) scale(0.047999997)">
<use href="#path21" transform="translate(0 0)"/>
</g>
</g>
<g>
<g data-source-text="" fill="#dee4e3" transform="translate(384 118.584) rotate(0) scale(0.047999997)">
<use href="#path22" transform="translate(0 0)"/>
</g>
</g>
<g>
<g data-source-text="" fill="#dee4e340" transform="translate(456 118.584) rotate(0) scale(0.047999997)">
<use href="#path23" transform="translate(0 0)"/>
</g>
</g>
<g>
<g data-source-text="" fill="#dee4e3" transform="translate(528 118.584) rotate(0) scale(0.047999997)">
<use href="#path24" transform="translate(0 0)"/>
</g>
</g>
<g>
<g data-source-text="" fill="#dee4e3" transform="translate(600 118.584) rotate(0) scale(0.047999997)">
<use href="#path25" transform="translate(0 0)"/>
</g>
</g>
<g>
<g data-source-text="" fill="#dee4e3" transform="translate(672 118.584) rotate(0) scale(0.047999997)">
<use href="#path26" transform="translate(0 0)"/>
</g>
</g>
<g>
<g data-source-text="" fill="#dee4e3" transform="translate(744 118.584) rotate(0) scale(0.047999997)">
<use href="#path27" transform="translate(0 0)"/>
</g>
</g>
<g>
<g data-source-text="" fill="#dee4e3" transform="translate(816 118.584) rotate(0) scale(0.047999997)">
<use href="#path28" transform="translate(0 0)"/>
</g>
</g>
<g>
<g data-source-text="" fill="#dee4e3" transform="translate(888 118.584) rotate(0) scale(0.047999997)">
<use href="#path29" transform="translate(0 0)"/>
</g>
</g>
<g>
<g data-source-text="" fill="#dee4e3" transform="translate(960 118.584) rotate(0) scale(0.047999997)">
<use href="#path30" transform="translate(0 0)"/>
</g>
</g>
<g>
<g data-source-text="" fill="#dee4e3" transform="translate(1032 118.584) rotate(0) scale(0.047999997)">
<use href="#path31" transform="translate(0 0)"/>
</g>
</g>
<g>
<g data-source-text="" fill="#dee4e3" transform="translate(1104 118.584) rotate(0) scale(0.047999997)">
<use href="#path32" transform="translate(0 0)"/>
</g>
</g>
<g>
<g data-source-text="" fill="#dee4e3" transform="translate(1176 118.584) rotate(0) scale(0.047999997)">
<use href="#path33" transform="translate(0 0)"/>
</g>
</g>
<g>
<g data-source-text="" fill="#dee4e3" transform="translate(1248 118.584) rotate(0) scale(0.047999997)">
<use href="#path34" transform="translate(0 0)"/>
</g>
</g>
<g>
<g data-source-text="U+AB40" fill="#dee4e3" transform="translate(36 185.292) rotate(0) scale(0.023999998)">
<use href="#path17" transform="translate(0 0)"/>
<use href="#path18" transform="translate(500 0)"/>
<use href="#path11" transform="translate(1000 0)"/>
<use href="#path12" transform="translate(1500 0)"/>
<use href="#path5" transform="translate(2000 0)"/>
<use href="#path1" transform="translate(2500 0)"/>
</g>
</g>
<g>
<g data-source-text="" fill="#dee4e3" transform="translate(168 190.584) rotate(0) scale(0.047999997)">
<use href="#path35" transform="translate(0 0)"/>
</g>
</g>
<g>
<g data-source-text="" fill="#dee4e3" transform="translate(240 190.584) rotate(0) scale(0.047999997)">
<use href="#path36" transform="translate(0 0)"/>
</g>
</g>
<g>
<g data-source-text="" fill="#dee4e3" transform="translate(312 190.584) rotate(0) scale(0.047999997)">
<use href="#path37" transform="translate(0 0)"/>
</g>
</g>
<g>
<g data-source-text="" fill="#dee4e340" transform="translate(384 190.584) rotate(0) scale(0.047999997)">
<use href="#path23" transform="translate(0 0)"/>
</g>
</g>
<g>
<g data-source-text="" fill="#dee4e340" transform="translate(456 190.584) rotate(0) scale(0.047999997)">
<use href="#path23" transform="translate(0 0)"/>
</g>
</g>
<g>
<g data-source-text="" fill="#dee4e3" transform="translate(528 190.584) rotate(0) scale(0.047999997)">
<use href="#path38" transform="translate(0 0)"/>
</g>
</g>
<g>
<g data-source-text="" fill="#dee4e3" transform="translate(600 190.584) rotate(0) scale(0.047999997)">
<use href="#path39" transform="translate(0 0)"/>
</g>
</g>
<g>
<g data-source-text="" fill="#dee4e340" transform="translate(672 190.584) rotate(0) scale(0.047999997)">
<use href="#path23" transform="translate(0 0)"/>
</g>
</g>
<g>
<g data-source-text="" fill="#dee4e340" transform="translate(744 190.584) rotate(0) scale(0.047999997)">
<use href="#path23" transform="translate(0 0)"/>
</g>
</g>
<g>
<g data-source-text="" fill="#dee4e340" transform="translate(816 190.584) rotate(0) scale(0.047999997)">
<use href="#path23" transform="translate(0 0)"/>
</g>
</g>
<g>
<g data-source-text="" fill="#dee4e340" transform="translate(888 190.584) rotate(0) scale(0.047999997)">
<use href="#path23" transform="translate(0 0)"/>
</g>
</g>
<g>
<g data-source-text="" fill="#dee4e340" transform="translate(960 190.584) rotate(0) scale(0.047999997)">
<use href="#path23" transform="translate(0 0)"/>
</g>
</g>
<g>
<g data-source-text="" fill="#dee4e340" transform="translate(1032 190.584) rotate(0) scale(0.047999997)">
<use href="#path23" transform="translate(0 0)"/>
</g>
</g>
<g>
<g data-source-text="" fill="#dee4e3" transform="translate(1104 190.584) rotate(0) scale(0.047999997)">
<use href="#path40" transform="translate(0 0)"/>
</g>
</g>
<g>
<g data-source-text="" fill="#dee4e3" transform="translate(1176 190.584) rotate(0) scale(0.047999997)">
<use href="#path41" transform="translate(0 0)"/>
</g>
</g>
<g>
<g data-source-text="" fill="#dee4e3" transform="translate(1248 190.584) rotate(0) scale(0.047999997)">
<use href="#path42" transform="translate(0 0)"/>
</g>
</g>
<g>
<g data-source-text="U+AB50" fill="#dee4e3" transform="translate(36 257.292) rotate(0) scale(0.023999998)">
<use href="#path17" transform="translate(0 0)"/>
<use href="#path18" transform="translate(500 0)"/>
<use href="#path11" transform="translate(1000 0)"/>
<use href="#path12" transform="translate(1500 0)"/>
<use href="#path6" transform="translate(2000 0)"/>
<use href="#path1" transform="translate(2500 0)"/>
</g>
</g>
<g>
<g data-source-text="" fill="#dee4e340" transform="translate(168 262.584) rotate(0) scale(0.047999997)">
<use href="#path23" transform="translate(0 0)"/>
</g>
</g>
<g>
<g data-source-text="" fill="#dee4e340" transform="translate(240 262.584) rotate(0) scale(0.047999997)">
<use href="#path23" transform="translate(0 0)"/>
</g>
</g>
<g>
<g data-source-text="" fill="#dee4e3" transform="translate(312 262.584) rotate(0) scale(0.047999997)">
<use href="#path43" transform="translate(0 0)"/>
</g>
</g>
<g>
<g data-source-text="" fill="#dee4e3" transform="translate(384 262.584) rotate(0) scale(0.047999997)">
<use href="#path44" transform="translate(0 0)"/>
</g>
</g>
<g>
<g data-source-text="" fill="#dee4e340" transform="translate(456 262.584) rotate(0) scale(0.047999997)">
<use href="#path23" transform="translate(0 0)"/>
</g>
</g>
<g>
<g data-source-text="" fill="#dee4e340" transform="translate(528 262.584) rotate(0) scale(0.047999997)">
<use href="#path23" transform="translate(0 0)"/>
</g>
</g>
<g>
<g data-source-text="" fill="#dee4e340" transform="translate(600 262.584) rotate(0) scale(0.047999997)">
<use href="#path23" transform="translate(0 0)"/>
</g>
</g>
<g>
<g data-source-text="" fill="#dee4e340" transform="translate(672 262.584) rotate(0) scale(0.047999997)">
<use href="#path23" transform="translate(0 0)"/>
</g>
</g>
<g>
<g data-source-text="" fill="#dee4e340" transform="translate(744 262.584) rotate(0) scale(0.047999997)">
<use href="#path23" transform="translate(0 0)"/>
</g>
</g>
<g>
<g data-source-text="" fill="#dee4e340" transform="translate(816 262.584) rotate(0) scale(0.047999997)">
<use href="#path23" transform="translate(0 0)"/>
</g>
</g>
<g>
<g data-source-text="" fill="#dee4e340" transform="translate(888 262.584) rotate(0) scale(0.047999997)">
<use href="#path23" transform="translate(0 0)"/>
</g>
</g>
<g>
<g data-source-text="" fill="#dee4e3" transform="translate(960 262.584) rotate(0) scale(0.047999997)">
<use href="#path45" transform="translate(0 0)"/>
</g>
</g>
<g>
<g data-source-text="" fill="#dee4e3" transform="translate(1032 262.584) rotate(0) scale(0.047999997)">
<use href="#path46" transform="translate(0 0)"/>
</g>
</g>
<g>
<g data-source-text="" fill="#dee4e3" transform="translate(1104 262.584) rotate(0) scale(0.047999997)">
<use href="#path47" transform="translate(0 0)"/>
</g>
</g>
<g>
<g data-source-text="" fill="#dee4e3" transform="translate(1176 262.584) rotate(0) scale(0.047999997)">
<use href="#path48" transform="translate(0 0)"/>
</g>
</g>
<g>
<g data-source-text="" fill="#dee4e3" transform="translate(1248 262.584) rotate(0) scale(0.047999997)">
<use href="#path49" transform="translate(0 0)"/>
</g>
</g>
<g>
<g data-source-text="U+AB60" fill="#dee4e3" transform="translate(36 329.292) rotate(0) scale(0.023999998)">
<use href="#path17" transform="translate(0 0)"/>
<use href="#path18" transform="translate(500 0)"/>
<use href="#path11" transform="translate(1000 0)"/>
<use href="#path12" transform="translate(1500 0)"/>
<use href="#path7" transform="translate(2000 0)"/>
<use href="#path1" transform="translate(2500 0)"/>
</g>
</g>
<g>
<g data-source-text="" fill="#dee4e3" transform="translate(168 334.584) rotate(0) scale(0.047999997)">
<use href="#path50" transform="translate(0 0)"/>
</g>
</g>
<g>
<g data-source-text="" fill="#dee4e3" transform="translate(240 334.584) rotate(0) scale(0.047999997)">
<use href="#path51" transform="translate(0 0)"/>
</g>
</g>
<g>
<g data-source-text="" fill="#dee4e3" transform="translate(312 334.584) rotate(0) scale(0.047999997)">
<use href="#path52" transform="translate(0 0)"/>
</g>
</g>
<g>
<g data-source-text="" fill="#dee4e3" transform="translate(384 334.584) rotate(0) scale(0.047999997)">
<use href="#path53" transform="translate(0 0)"/>
</g>
</g>
<g>
<g data-source-text="" fill="#dee4e3" transform="translate(456 334.584) rotate(0) scale(0.047999997)">
<use href="#path54" transform="translate(0 0)"/>
</g>
</g>
<g>
<g data-source-text="" fill="#dee4e3" transform="translate(528 334.584) rotate(0) scale(0.047999997)">
<use href="#path55" transform="translate(0 0)"/>
</g>
</g>
<g>
<g data-source-text="" fill="#dee4e3" transform="translate(600 334.584) rotate(0) scale(0.047999997)">
<use href="#path56" transform="translate(0 0)"/>
</g>
</g>
<g>
<g data-source-text="" fill="#dee4e3" transform="translate(672 334.584) rotate(0) scale(0.047999997)">
<use href="#path57" transform="translate(0 0)"/>
</g>
</g>
<g>
<g data-source-text="" fill="#dee4e3" transform="translate(744 334.584) rotate(0) scale(0.047999997)">
<use href="#path58" transform="translate(0 0)"/>
</g>
</g>
<g>
<g data-source-text="" fill="#dee4e3" transform="translate(816 334.584) rotate(0) scale(0.047999997)">
<use href="#path59" transform="translate(0 0)"/>
</g>
</g>
<g>
<g data-source-text="" fill="#dee4e3" transform="translate(888 334.584) rotate(0) scale(0.047999997)">
<use href="#path60" transform="translate(0 0)"/>
</g>
</g>
<g>
<g data-source-text="" fill="#dee4e3" transform="translate(960 334.584) rotate(0) scale(0.047999997)">
<use href="#path61" transform="translate(0 0)"/>
</g>
</g>
<g>
<g data-source-text="" fill="#dee4e340" transform="translate(1032 334.584) rotate(0) scale(0.047999997)">
<use href="#path23" transform="translate(0 0)"/>
</g>
</g>
<g>
<g data-source-text="" fill="#dee4e340" transform="translate(1104 334.584) rotate(0) scale(0.047999997)">
<use href="#path23" transform="translate(0 0)"/>
</g>
</g>
<g>
<g data-source-text="" fill="#dee4e340" transform="translate(1176 334.584) rotate(0) scale(0.047999997)">
<use href="#path23" transform="translate(0 0)"/>
</g>
</g>
<g>
<g data-source-text="" fill="#dee4e340" transform="translate(1248 334.584) rotate(0) scale(0.047999997)">
<use href="#path23" transform="translate(0 0)"/>
</g>
</g>
</svg>