<?xml version="1.0" encoding="UTF-8" standalone="no"?>
<svg height="504" viewBox="0 0 1296 504" width="1296" xmlns="http://www.w3.org/2000/svg">
<defs>
<path d="M 250 8 Q 223 8 196 3 Q 169 -2 145 -15 Q 121 -28 102.5 -48.5 Q 84 -69 72.5 -94 Q 61 -119 56.5 -146 Q 52 -173 52 -200 L 52 -535 Q 52 -562 56.5 -589 Q 61 -616 72.5 -641 Q 84 -666 102.5 -686.5 Q 121 -707 145 -720 Q 169 -733 196 -738 Q 223 -743 250 -743 Q 277 -743 304 -738 Q 331 -733 355 -720 Q 379 -707 397.5 -686.5 Q 416 -666 427.5 -641 Q 439 -616 443.5 -589 Q 448 -562 448 -535 L 448 -200 Q 448 -173 443.5 -146 Q 439 -119 427.5 -94 Q 416 -69 397.5 -48.5 Q 379 -28 355 -15 Q 331 -2 304 3 Q 277 8 250 8 Z M 153 -337 L 347 -491 L 347 -535 Q 347 -557 342.5 -578.5 Q 338 -600 325.5 -618 Q 313 -636 292.5 -645.5 Q 272 -655 250 -655 Q 228 -655 207.5 -645.5 Q 187 -636 174.5 -618 Q 162 -600 157.5 -578.5 Q 153 -557 153 -535 Z M 250 -80 Q 272 -80 292.5 -89.5 Q 313 -99 325.5 -117 Q 338 -135 342.5 -156.5 Q 347 -178 347 -200 L 347 -398 L 153 -244 L 153 -200 Q 153 -178 157.5 -156.5 Q 162 -135 174.5 -117 Q 187 -99 207.5 -89.5 Q 228 -80 250 -80 Z " id="path1"/>
<path d="M 230 0 L 230 -637 L 107 -542 L 55 -600 L 230 -735 L 330 -735 L 330 0 Z " id="path2"/>
<path d="M 60 0 L 60 -1 Q 60 -27 61 -53.5 Q 62 -80 66 -106.5 Q 70 -133 77.5 -158.5 Q 85 -184 96.5 -207.5 Q 108 -231 123 -253 Q 138 -275 156 -294.5 Q 174 -314 194 -331 Q 214 -348 235.5 -364 Q 257 -380 277.5 -397 Q 298 -414 313 -435.5 Q 328 -457 335.5 -483 Q 343 -509 343 -535 Q 343 -557 339 -578 Q 335 -599 323.5 -617 Q 312 -635 292 -645 Q 272 -655 251 -655 Q 231 -655 213 -648 Q 195 -641 182.5 -626.5 Q 170 -612 164.5 -593 Q 159 -574 159 -555 L 159 -554 L 58 -554 L 58 -556 Q 58 -581 64 -606 Q 70 -631 82 -653.5 Q 94 -676 112 -694 Q 130 -712 152.5 -723 Q 175 -734 200 -738.5 Q 225 -743 251 -743 Q 278 -743 304.5 -737.5 Q 331 -732 354 -719 Q 377 -706 395 -685.5 Q 413 -665 424 -640.5 Q 435 -616 439.5 -589 Q 444 -562 444 -535 Q 444 -501 435 -468 Q 426 -435 407.5 -406 Q 389 -377 364 -353.5 Q 339 -330 312.5 -308.5 Q 286 -287 261 -264 Q 236 -241 216.5 -213 Q 197 -185 184 -153.5 Q 171 -122 166 -88 L 440 -88 L 440 0 Z " id="path3"/>
<path d="M 252 8 Q 226 8 200 3.5 Q 174 -1 150.5 -12 Q 127 -23 107.5 -41 Q 88 -59 75.5 -82 Q 63 -105 56.5 -130.5 Q 50 -156 50 -183 L 151 -183 Q 151 -162 157.5 -142.5 Q 164 -123 178 -108 Q 192 -93 212 -86.5 Q 232 -80 252 -80 Q 275 -80 296 -88.5 Q 317 -97 330.5 -114.5 Q 344 -132 349.5 -154 Q 355 -176 355 -198 Q 355 -217 351 -235.5 Q 347 -254 338.5 -271 Q 330 -288 316.5 -301 Q 303 -314 286 -322 Q 269 -330 250 -332 Q 231 -334 212 -334 L 212 -422 Q 229 -422 246 -424 Q 263 -426 278.5 -433 Q 294 -440 306 -452.5 Q 318 -465 325.5 -480.5 Q 333 -496 336 -512.5 Q 339 -529 339 -546 Q 339 -566 334.5 -585.5 Q 330 -605 319.5 -621 Q 309 -637 290.5 -646 Q 272 -655 253 -655 Q 234 -655 216.5 -647.5 Q 199 -640 188 -625.5 Q 177 -611 172 -593 Q 167 -575 167 -556 L 167 -555 L 66 -555 L 66 -558 Q 66 -582 71.5 -606.5 Q 77 -631 88.5 -653 Q 100 -675 117.5 -693 Q 135 -711 157 -722.5 Q 179 -734 203.5 -738.5 Q 228 -743 253 -743 Q 278 -743 303 -738 Q 328 -733 350.5 -721 Q 373 -709 390 -690 Q 407 -671 418 -648 Q 429 -625 434.5 -600 Q 440 -575 440 -549 Q 440 -524 434 -498.5 Q 428 -473 415.5 -450.5 Q 403 -428 384.5 -409.5 Q 366 -391 343 -379 Q 369 -368 391 -348.5 Q 413 -329 427.5 -304.5 Q 442 -280 449 -252 Q 456 -224 456 -196 Q 456 -168 450 -141.5 Q 444 -115 432 -91 Q 420 -67 400.5 -47 Q 381 -27 357 -14.5 Q 333 -2 306.5 3 Q 280 8 252 8 Z " id="path4"/>
<path d="M 282 0 L 282 -188 L 52 -188 L 52 -275 L 276 -735 L 385 -735 L 161 -275 L 282 -275 L 282 -435 L 382 -435 L 382 -275 L 440 -275 L 440 -188 L 382 -188 L 382 0 Z " id="path5"/>
<path d="M 252 8 Q 227 8 202.5 3.5 Q 178 -1 156.5 -12.5 Q 135 -24 117.5 -42 Q 100 -60 88 -81 Q 76 -102 69 -126 Q 62 -150 60 -174 L 60 -176 L 160 -176 L 161 -172 Q 164 -154 170.5 -137 Q 177 -120 188.5 -107 Q 200 -94 217 -87 Q 234 -80 252 -80 Q 269 -80 285 -87 Q 301 -94 312 -106.5 Q 323 -119 330 -135 Q 337 -151 340.5 -167.5 Q 344 -184 345.5 -201 Q 347 -218 347 -235 Q 347 -252 345.5 -269 Q 344 -286 340.5 -302.5 Q 337 -319 330.5 -334.5 Q 324 -350 313.5 -363 Q 303 -376 287 -383.5 Q 271 -391 254 -391 Q 236 -391 219.5 -384 Q 203 -377 191.5 -363 Q 180 -349 174.5 -331.5 Q 169 -314 168 -296 L 68 -296 L 68 -735 L 421 -735 L 421 -647 L 168 -647 L 168 -462 Q 188 -471 210 -474.5 Q 232 -478 254 -478 Q 284 -478 312.5 -470.5 Q 341 -463 364.5 -445.5 Q 388 -428 404.5 -403.5 Q 421 -379 430.5 -351 Q 440 -323 444 -294 Q 448 -265 448 -235 Q 448 -206 444 -176.5 Q 440 -147 430.5 -119 Q 421 -91 404 -66.5 Q 387 -42 363 -24.5 Q 339 -7 310 0.5 Q 281 8 252 8 Z " id="path6"/>
<path d="M 250 8 Q 219 8 189 -0.5 Q 159 -9 135 -28 Q 111 -47 94.5 -73.5 Q 78 -100 68.5 -129 Q 59 -158 55.5 -189 Q 52 -220 52 -250 Q 52 -291 60 -331 Q 68 -371 82 -409 Q 96 -447 114 -483.5 Q 132 -520 150 -556 L 238 -735 L 347 -735 L 240 -517 Q 232 -500 223 -483.5 Q 214 -467 205 -451 Q 217 -454 229 -455 Q 241 -456 253 -456 Q 281 -456 309.5 -449 Q 338 -442 361.5 -426 Q 385 -410 402.5 -386.5 Q 420 -363 430 -336.5 Q 440 -310 444 -281.5 Q 448 -253 448 -224 Q 448 -195 444 -166.5 Q 440 -138 429.5 -111 Q 419 -84 401.5 -60.5 Q 384 -37 360 -21 Q 336 -5 307.5 1.5 Q 279 8 250 8 Z M 250 -80 Q 266 -80 282 -85.5 Q 298 -91 309.5 -102.5 Q 321 -114 328.5 -129 Q 336 -144 340 -159.5 Q 344 -175 345.5 -191.5 Q 347 -208 347 -224 Q 347 -240 345.5 -256.5 Q 344 -273 340 -288.5 Q 336 -304 328.5 -319 Q 321 -334 309.5 -345.5 Q 298 -357 282.5 -362.5 Q 267 -368 251 -368 Q 234 -368 218.5 -362.5 Q 203 -357 191.5 -345.5 Q 180 -334 172 -319.5 Q 164 -305 160 -289 Q 156 -273 154.5 -256.5 Q 153 -240 153 -224 Q 153 -208 154.5 -191.5 Q 156 -175 160 -159.5 Q 164 -144 171.5 -129 Q 179 -114 190.5 -102.5 Q 202 -91 218 -85.5 Q 234 -80 250 -80 Z " id="path7"/>
<path d="M 138 0 L 336 -647 L 60 -647 L 60 -735 L 440 -735 L 440 -647 L 242 0 Z " id="path8"/>
<path d="M 250 8 Q 225 8 200 4 Q 175 -0 152 -10 Q 129 -20 110 -37 Q 91 -54 78 -75.5 Q 65 -97 58.5 -121.5 Q 52 -146 52 -171 Q 52 -202 62 -232 Q 72 -262 88.5 -288 Q 105 -314 127 -336 Q 149 -358 174 -378 Q 152 -396 132.5 -417 Q 113 -438 98.5 -462.5 Q 84 -487 76 -514.5 Q 68 -542 68 -571 Q 68 -594 73.5 -617.5 Q 79 -641 90.5 -661.5 Q 102 -682 119.5 -698.5 Q 137 -715 158 -725 Q 179 -735 202.5 -739 Q 226 -743 250 -743 Q 274 -743 297.5 -739 Q 321 -735 342 -725 Q 363 -715 380.5 -698.5 Q 398 -682 409.5 -661.5 Q 421 -641 426.5 -617.5 Q 432 -594 432 -571 Q 432 -542 424 -514.5 Q 416 -487 401.5 -462.5 Q 387 -438 367.5 -417 Q 348 -396 326 -378 Q 351 -358 373 -336 Q 395 -314 411.5 -288 Q 428 -262 438 -232 Q 448 -202 448 -171 Q 448 -146 441.5 -121.5 Q 435 -97 422 -75.5 Q 409 -54 390 -37 Q 371 -20 348 -10 Q 325 -0 300 4 Q 275 8 250 8 Z M 250 -435 Q 266 -447 280.5 -461.5 Q 295 -476 306.5 -493 Q 318 -510 325 -529.5 Q 332 -549 332 -569 Q 332 -586 326.5 -602.5 Q 321 -619 310 -631.5 Q 299 -644 283 -649.5 Q 267 -655 250 -655 Q 233 -655 217 -649.5 Q 201 -644 190 -631.5 Q 179 -619 173.5 -602.5 Q 168 -586 168 -569 Q 168 -549 175 -529.5 Q 182 -510 193.5 -493 Q 205 -476 219.5 -461.5 Q 234 -447 250 -435 Z M 250 -80 Q 269 -80 287.5 -85.5 Q 306 -91 320 -104 Q 334 -117 340.5 -135.5 Q 347 -154 347 -173 Q 347 -196 338.5 -217.5 Q 330 -239 316.5 -257.5 Q 303 -276 285.5 -291 Q 268 -306 250 -320 Q 232 -306 214.5 -291 Q 197 -276 183.5 -257.5 Q 170 -239 161.5 -217.5 Q 153 -196 153 -173 Q 153 -154 159.5 -135.5 Q 166 -117 180 -104 Q 194 -91 212.5 -85.5 Q 231 -80 250 -80 Z " id="path9"/>
<path d="M 262 0 L 153 0 L 260 -218 Q 268 -235 277 -251.5 Q 286 -268 295 -284 Q 283 -281 271 -280 Q 259 -279 247 -279 Q 219 -279 190.5 -286 Q 162 -293 138.5 -309 Q 115 -325 97.5 -348.5 Q 80 -372 70 -398.5 Q 60 -425 56 -453.5 Q 52 -482 52 -511 Q 52 -540 56 -568.5 Q 60 -597 70.5 -624 Q 81 -651 98.5 -674.5 Q 116 -698 140 -714 Q 164 -730 192.5 -736.5 Q 221 -743 250 -743 Q 281 -743 311 -734.5 Q 341 -726 365 -707 Q 389 -688 405.5 -661.5 Q 422 -635 431.5 -606 Q 441 -577 444.5 -546 Q 448 -515 448 -485 Q 448 -444 440 -404 Q 432 -364 418 -326 Q 404 -288 386 -251.5 Q 368 -215 350 -179 Z M 249 -367 Q 266 -367 281.5 -372.5 Q 297 -378 308.5 -389.5 Q 320 -401 328 -415.5 Q 336 -430 340 -446 Q 344 -462 345.5 -478.5 Q 347 -495 347 -511 Q 347 -527 345.5 -543.5 Q 344 -560 340 -575.5 Q 336 -591 328.5 -606 Q 321 -621 309.5 -632.5 Q 298 -644 282 -649.5 Q 266 -655 250 -655 Q 234 -655 218 -649.5 Q 202 -644 190.5 -632.5 Q 179 -621 171.5 -606 Q 164 -591 160 -575.5 Q 156 -560 154.5 -543.5 Q 153 -527 153 -511 Q 153 -495 154.5 -478.5 Q 156 -462 160 -446.5 Q 164 -431 171.5 -416 Q 179 -401 190.5 -389.5 Q 202 -378 217.5 -372.5 Q 233 -367 249 -367 Z " id="path10"/>
<path d="M 39 0 L 192 -735 L 308 -735 L 461 0 L 358 0 L 326 -172 L 174 -172 L 142 0 Z M 309 -260 L 265 -490 Q 262 -511 258 -531.5 Q 254 -552 250 -572 Q 246 -552 242 -531.5 Q 238 -511 235 -490 L 191 -260 Z " id="path11"/>
<path d="M 60 0 L 60 -735 L 234 -735 Q 261 -735 287 -730.5 Q 313 -726 336 -714 Q 359 -702 377.5 -682.5 Q 396 -663 408 -639.5 Q 420 -616 424.5 -590 Q 429 -564 429 -538 Q 429 -515 425 -492 Q 421 -469 410.5 -448.5 Q 400 -428 383.5 -411 Q 367 -394 347 -383 Q 372 -373 393.5 -355.5 Q 415 -338 429.5 -314.5 Q 444 -291 450 -264 Q 456 -237 456 -210 Q 456 -181 450 -152.5 Q 444 -124 430 -98.5 Q 416 -73 394.5 -53.5 Q 373 -34 347 -21.5 Q 321 -9 292 -4.5 Q 263 -0 234 0 Z M 161 -424 L 234 -424 Q 255 -424 274.5 -432.5 Q 294 -441 306.5 -457.5 Q 319 -474 324 -494.5 Q 329 -515 329 -536 Q 329 -557 324 -577.5 Q 319 -598 306.5 -614.5 Q 294 -631 274.5 -639 Q 255 -647 234 -647 L 161 -647 Z M 161 -88 L 234 -88 Q 251 -88 267 -91 Q 283 -94 297.5 -101.5 Q 312 -109 323.5 -121 Q 335 -133 342.5 -148 Q 350 -163 352.5 -179 Q 355 -195 355 -212 Q 355 -228 352.5 -244.5 Q 350 -261 343 -276 Q 336 -291 324.5 -303 Q 313 -315 298 -322.5 Q 283 -330 267 -333 Q 251 -336 234 -336 L 161 -336 Z " id="path12"/>
<path d="M 247 8 Q 220 8 193.5 2.5 Q 167 -3 143.5 -16 Q 120 -29 101.5 -49.5 Q 83 -70 72 -94.5 Q 61 -119 56.5 -146 Q 52 -173 52 -200 L 52 -535 Q 52 -562 56.5 -589 Q 61 -616 72 -640.5 Q 83 -665 101.5 -685.5 Q 120 -706 143.5 -719 Q 167 -732 193.5 -737.5 Q 220 -743 247 -743 Q 273 -743 298 -738.5 Q 323 -734 346 -723 Q 369 -712 387.5 -694 Q 406 -676 418 -653.5 Q 430 -631 436 -606 Q 442 -581 442 -556 L 442 -554 L 341 -554 L 341 -555 Q 341 -575 335.5 -593.5 Q 330 -612 317 -627 Q 304 -642 285.5 -648.5 Q 267 -655 247 -655 Q 226 -655 206 -645.5 Q 186 -636 173.5 -618 Q 161 -600 157 -578.5 Q 153 -557 153 -535 L 153 -200 Q 153 -178 157 -156.5 Q 161 -135 173.5 -117 Q 186 -99 206 -89.5 Q 226 -80 247 -80 Q 267 -80 285.5 -86.5 Q 304 -93 317 -108 Q 330 -123 335.5 -141.5 Q 341 -160 341 -180 L 341 -181 L 442 -181 L 442 -179 Q 442 -154 436 -129 Q 430 -104 418 -81.5 Q 406 -59 387.5 -41 Q 369 -23 346 -12 Q 323 -1 298 3.5 Q 273 8 247 8 Z " id="path13"/>
<path d="M 60 0 L 60 -735 L 219 -735 Q 249 -735 279 -730 Q 309 -725 336.5 -712 Q 364 -699 386 -678.5 Q 408 -658 422 -631.5 Q 436 -605 442 -575 Q 448 -545 448 -515 L 448 -220 Q 448 -190 442 -160 Q 436 -130 422 -103.5 Q 408 -77 386 -56.5 Q 364 -36 336.5 -23 Q 309 -10 279 -5 Q 249 -0 219 0 Z M 161 -88 L 219 -88 Q 237 -88 254 -91 Q 271 -94 286.5 -102.5 Q 302 -111 314 -124 Q 326 -137 333.5 -152.5 Q 341 -168 344 -185.5 Q 347 -203 347 -220 L 347 -515 Q 347 -532 344 -549.5 Q 341 -567 333.5 -582.5 Q 326 -598 314 -611 Q 302 -624 286.5 -632.5 Q 271 -641 254 -644 Q 237 -647 219 -647 L 161 -647 Z " id="path14"/>
<path d="M 68 0 L 68 -735 L 440 -735 L 440 -647 L 169 -647 L 169 -426 L 383 -426 L 383 -338 L 169 -338 L 169 -88 L 440 -88 L 440 0 Z " id="path15"/>
<path d="M 91 0 L 91 -735 L 440 -735 L 440 -647 L 191 -647 L 191 -426 L 383 -426 L 383 -338 L 191 -338 L 191 0 Z " id="path16"/>
<path d="M 250 8 Q 223 8 196.5 2.5 Q 170 -3 147 -16.5 Q 124 -30 106.5 -50.5 Q 89 -71 78.5 -95.5 Q 68 -120 64 -146.5 Q 60 -173 60 -200 L 60 -735 L 161 -735 L 161 -200 Q 161 -186 162.5 -172 Q 164 -158 168 -144.5 Q 172 -131 179.5 -118.5 Q 187 -106 197.5 -97 Q 208 -88 222 -84 Q 236 -80 250 -80 Q 264 -80 278 -84 Q 292 -88 302.5 -97 Q 313 -106 320.5 -118.5 Q 328 -131 332 -144.5 Q 336 -158 337.5 -172 Q 339 -186 339 -200 L 339 -735 L 440 -735 L 440 -200 Q 440 -173 436 -146.5 Q 432 -120 421.5 -95.5 Q 411 -71 393.5 -50.5 Q 376 -30 353 -16.5 Q 330 -3 303.5 2.5 Q 277 8 250 8 Z " id="path17"/>
<path d="M 300 -143 L 200 -143 L 200 -296 L 60 -296 L 60 -384 L 200 -384 L 200 -537 L 300 -537 L 300 -384 L 440 -384 L 440 -296 L 300 -296 Z " id="path18"/>
<path d="M 209 -317 Q 188 -317 167 -323.5 Q 146 -330 131 -345.5 Q 116 -361 109.5 -382 Q 103 -403 103 -424 Q 103 -443 108 -462 Q 113 -481 125.5 -495.5 Q 138 -510 154.5 -520 Q 171 -530 189 -535.5 Q 207 -541 226 -543.5 Q 245 -546 264 -546 L 314 -546 L 314 -575 Q 314 -587 308.5 -597 Q 303 -607 293 -613 Q 283 -619 272 -621 Q 261 -623 249 -623 Q 238 -623 227 -621 Q 216 -619 206 -613.5 Q 196 -608 190 -598 Q 184 -588 184 -577 L 184 -576 L 107 -576 L 107 -578 Q 107 -603 119 -627 Q 131 -651 151.5 -666 Q 172 -681 197.5 -687 Q 223 -693 249 -693 Q 267 -693 284 -690.5 Q 301 -688 317.5 -682 Q 334 -676 348.5 -666 Q 363 -656 373 -641.5 Q 383 -627 387 -610 Q 391 -593 391 -575 L 391 -323 L 314 -323 L 314 -378 Q 307 -364 296 -352 Q 285 -340 271 -332 Q 257 -324 241 -320.5 Q 225 -317 209 -317 Z M 240 -387 Q 254 -387 267.5 -390 Q 281 -393 292 -401 Q 303 -409 308.5 -422 Q 314 -435 314 -449 L 314 -476 L 264 -476 Q 255 -476 246.5 -475.5 Q 238 -475 229 -473.5 Q 220 -472 211.5 -469 Q 203 -466 196 -461.5 Q 189 -457 184.5 -449 Q 180 -441 180 -432 Q 180 -421 185.5 -411.5 Q 191 -402 199.5 -396.5 Q 208 -391 219 -389 Q 230 -387 240 -387 Z " id="path19"/>
<path d="M 250 -317 Q 230 -317 210.5 -320.5 Q 191 -324 173.5 -333 Q 156 -342 142 -355.5 Q 128 -369 119 -386.5 Q 110 -404 106.5 -423.5 Q 103 -443 103 -463 L 103 -603 Q 103 -630 105 -656.5 Q 107 -683 115.5 -708 Q 124 -733 141 -754 Q 158 -775 181 -788 Q 204 -801 230.5 -805.5 Q 257 -810 283.5 -813.5 Q 310 -817 336 -822.5 Q 362 -828 387 -838 L 387 -768 Q 371 -761 355 -756 Q 339 -751 322 -748.5 Q 305 -746 288 -745 Q 271 -744 254.5 -740.5 Q 238 -737 222.5 -729 Q 207 -721 196.5 -707.5 Q 186 -694 181 -677.5 Q 176 -661 176 -644 Q 190 -660 211 -667.5 Q 232 -675 254 -675 Q 273 -675 292 -671.5 Q 311 -668 328.5 -659 Q 346 -650 359.5 -636 Q 373 -622 381.5 -604.5 Q 390 -587 393.5 -568 Q 397 -549 397 -530 L 397 -463 Q 397 -443 393.5 -423.5 Q 390 -404 381 -386.5 Q 372 -369 358 -355.5 Q 344 -342 326.5 -333 Q 309 -324 289.5 -320.5 Q 270 -317 250 -317 Z M 250 -387 Q 265 -387 279 -392 Q 293 -397 302.5 -408 Q 312 -419 316 -433.5 Q 320 -448 320 -463 L 320 -530 Q 320 -544 316.5 -558.5 Q 313 -573 303.5 -584.5 Q 294 -596 279.5 -601 Q 265 -606 251 -606 Q 236 -606 221.5 -601 Q 207 -596 197.5 -585 Q 188 -574 184 -559 Q 180 -544 180 -530 L 180 -463 Q 180 -448 184 -433.5 Q 188 -419 197.5 -408 Q 207 -397 221 -392 Q 235 -387 250 -387 Z " id="path20"/>
<path d="M 109 -323 L 109 -687 L 265 -687 Q 287 -687 309 -681.5 Q 331 -676 348.5 -662 Q 366 -648 374.5 -627 Q 383 -606 383 -583 Q 383 -573 381 -563 Q 379 -553 374.5 -544 Q 370 -535 363 -527 Q 356 -519 348 -514 Q 360 -509 370.5 -501 Q 381 -493 388.5 -482 Q 396 -471 399.5 -458 Q 403 -445 403 -432 Q 403 -416 398 -399.5 Q 393 -383 383.5 -370 Q 374 -357 360 -347.5 Q 346 -338 330 -332.5 Q 314 -327 297.5 -325 Q 281 -323 265 -323 Z M 186 -546 L 265 -546 Q 273 -546 280.5 -547.5 Q 288 -549 294 -554 Q 300 -559 303 -566.5 Q 306 -574 306 -582 Q 306 -590 303 -597.5 Q 300 -605 294 -609.5 Q 288 -614 280 -616 Q 272 -618 265 -618 L 186 -618 Z M 186 -392 L 265 -392 Q 275 -392 285.5 -394 Q 296 -396 305 -400.5 Q 314 -405 320 -414 Q 326 -423 326 -434 Q 326 -444 320 -453.5 Q 314 -463 305 -468 Q 296 -473 285.5 -474.5 Q 275 -476 265 -476 L 186 -476 Z " id="path21"/>
<path d="M 125 -323 L 125 -687 L 397 -687 L 397 -618 L 202 -618 L 202 -323 Z " id="path22"/>
<path d="M 413 -218 L 336 -218 L 336 -323 L 164 -323 L 164 -218 L 87 -218 L 87 -392 L 109 -392 Q 118 -411 124 -430 Q 130 -449 133.5 -469 Q 137 -489 137.5 -509.5 Q 138 -530 138 -551 L 138 -687 L 380 -687 L 380 -392 L 413 -392 Z M 192 -392 L 303 -392 L 303 -618 L 215 -618 L 215 -551 Q 215 -510 211 -470 Q 207 -430 192 -392 Z " id="path23"/>
<path d="M 252 -317 Q 232 -317 212.5 -320.5 Q 193 -324 175 -332.5 Q 157 -341 142.5 -355 Q 128 -369 119 -386.5 Q 110 -404 106.5 -423.5 Q 103 -443 103 -463 L 103 -547 Q 103 -567 106.5 -586.5 Q 110 -606 119 -623.5 Q 128 -641 142 -654.5 Q 156 -668 173.5 -677 Q 191 -686 210.5 -689.5 Q 230 -693 250 -693 Q 270 -693 289.5 -689.5 Q 309 -686 326.5 -677 Q 344 -668 358 -654.5 Q 372 -641 381 -623.5 Q 390 -606 393.5 -586.5 Q 397 -567 397 -547 L 397 -470 L 180 -470 L 180 -463 Q 180 -448 184 -433.5 Q 188 -419 198 -408 Q 208 -397 222.5 -392 Q 237 -387 252 -387 Q 263 -387 273.5 -388.5 Q 284 -390 294 -395 Q 304 -400 311 -409 Q 318 -418 319 -429 L 396 -429 Q 394 -404 381.5 -381 Q 369 -358 348 -343 Q 327 -328 302 -322.5 Q 277 -317 252 -317 Z M 180 -540 L 320 -540 L 320 -547 Q 320 -562 316 -576.5 Q 312 -591 302.5 -602 Q 293 -613 279 -618 Q 265 -623 250 -623 Q 235 -623 221 -618 Q 207 -613 197.5 -602 Q 188 -591 184 -576.5 Q 180 -562 180 -547 Z " id="path24"/>
<path d="M 83 -323 L 138 -505 L 83 -687 L 153 -687 L 198 -535 L 216 -535 L 216 -687 L 284 -687 L 284 -535 L 302 -535 L 347 -687 L 417 -687 L 362 -505 Q 376 -459 389.5 -413.5 Q 403 -368 417 -323 L 347 -323 L 302 -475 L 284 -475 L 284 -323 L 216 -323 L 216 -475 L 198 -475 L 153 -323 Z " id="path25"/>
<path d="M 252 -317 Q 225 -317 198.5 -322.5 Q 172 -328 150 -343 Q 128 -358 115 -382.5 Q 102 -407 102 -433 L 179 -433 Q 179 -421 186.5 -411 Q 194 -401 204.5 -395.5 Q 215 -390 227.5 -388.5 Q 240 -387 252 -387 Q 264 -387 276 -388.5 Q 288 -390 299 -395 Q 310 -400 318 -410.5 Q 326 -421 326 -433 Q 326 -445 318 -455 Q 310 -465 298.5 -470 Q 287 -475 274.5 -476.5 Q 262 -478 250 -478 L 208 -478 L 208 -547 L 250 -547 Q 260 -547 270.5 -548 Q 281 -549 291 -553 Q 301 -557 307.5 -565.5 Q 314 -574 314 -585 Q 314 -595 307.5 -603.5 Q 301 -612 292 -616 Q 283 -620 272.5 -621.5 Q 262 -623 252 -623 Q 241 -623 230.5 -621.5 Q 220 -620 211 -615 Q 202 -610 196 -601 Q 190 -592 190 -581 L 113 -581 L 113 -582 Q 113 -607 124.5 -630 Q 136 -653 156.5 -667.5 Q 177 -682 202 -687.5 Q 227 -693 252 -693 Q 277 -693 301.5 -688 Q 326 -683 347 -669.5 Q 368 -656 379.5 -633 Q 391 -610 391 -585 Q 391 -574 388.5 -563 Q 386 -552 380 -542.5 Q 374 -533 365 -525.5 Q 356 -518 346 -513 Q 358 -508 369 -500.5 Q 380 -493 388 -482 Q 396 -471 399.5 -458 Q 403 -445 403 -432 Q 403 -405 390 -380.5 Q 377 -356 354.5 -342 Q 332 -328 305 -322.5 Q 278 -317 252 -317 Z " id="path26"/>
<path d="M 109 -323 L 109 -687 L 186 -687 L 186 -541 Q 186 -516 185.5 -491 Q 185 -466 184 -441 L 286 -687 L 391 -687 L 391 -323 L 314 -323 L 314 -469 Q 314 -494 314.5 -519 Q 315 -544 316 -569 L 231 -362 L 214 -323 Z " id="path27"/>
<path d="M 120 -323 L 120 -687 L 197 -687 L 197 -540 L 229 -540 L 316 -687 L 403 -687 L 291 -505 L 403 -323 L 316 -323 L 229 -470 L 197 -470 L 197 -323 Z " id="path28"/>
<path d="M 83 -323 L 83 -392 Q 95 -392 104.5 -398.5 Q 114 -405 118.5 -415.5 Q 123 -426 125.5 -437 Q 128 -448 128.5 -459 Q 129 -470 129.5 -481.5 Q 130 -493 130 -504 L 130 -687 L 391 -687 L 391 -323 L 314 -323 L 314 -618 L 207 -618 L 207 -506 Q 207 -490 206.5 -474 Q 206 -458 204.5 -442 Q 203 -426 199.5 -410 Q 196 -394 189 -379.5 Q 182 -365 171 -353 Q 160 -341 145.5 -334.5 Q 131 -328 115 -325.5 Q 99 -323 83 -323 Z " id="path29"/>
<path d="M 100 -323 L 100 -687 L 177 -687 L 250 -497 L 323 -687 L 400 -687 L 400 -323 L 323 -323 L 323 -396 Q 323 -422 324 -448.5 Q 325 -475 328.5 -501.5 Q 332 -528 335.5 -554.5 Q 339 -581 342 -607 L 275 -432 L 225 -432 L 158 -607 Q 161 -581 164.5 -554.5 Q 168 -528 171.5 -501.5 Q 175 -475 176 -448.5 Q 177 -422 177 -396 L 177 -323 Z " id="path30"/>
<path d="M 250 -317 Q 230 -317 210.5 -320.5 Q 191 -324 173.5 -333 Q 156 -342 142 -355.5 Q 128 -369 119 -386.5 Q 110 -404 106.5 -423.5 Q 103 -443 103 -463 L 103 -547 Q 103 -567 106.5 -586.5 Q 110 -606 119 -623.5 Q 128 -641 142 -654.5 Q 156 -668 173.5 -677 Q 191 -686 210.5 -689.5 Q 230 -693 250 -693 Q 270 -693 289.5 -689.5 Q 309 -686 326.5 -677 Q 344 -668 358 -654.5 Q 372 -641 381 -623.5 Q 390 -606 393.5 -586.5 Q 397 -567 397 -547 L 397 -463 Q 397 -443 393.5 -423.5 Q 390 -404 381 -386.5 Q 372 -369 358 -355.5 Q 344 -342 326.5 -333 Q 309 -324 289.5 -320.5 Q 270 -317 250 -317 Z M 250 -387 Q 265 -387 279 -392 Q 293 -397 302.5 -408 Q 312 -419 316 -433.5 Q 320 -448 320 -463 L 320 -547 Q 320 -562 316 -576.5 Q 312 -591 302.5 -602 Q 293 -613 279 -618 Q 265 -623 250 -623 Q 235 -623 221 -618 Q 207 -613 197.5 -602 Q 188 -591 184 -576.5 Q 180 -562 180 -547 L 180 -463 Q 180 -448 184 -433.5 Q 188 -419 197.5 -408 Q 207 -397 221 -392 Q 235 -387 250 -387 Z " id="path31"/>
<path d="M 109 -323 L 109 -687 L 391 -687 L 391 -323 L 314 -323 L 314 -618 L 186 -618 L 186 -323 Z " id="path32"/>
<path d="M 109 -173 L 109 -687 L 186 -687 L 186 -628 Q 192 -642 201 -655 Q 210 -668 223 -676.5 Q 236 -685 251.5 -689 Q 267 -693 282 -693 Q 300 -693 317 -688 Q 334 -683 348 -672.5 Q 362 -662 371.5 -647 Q 381 -632 387 -615.5 Q 393 -599 395 -582 Q 397 -565 397 -547 L 397 -463 Q 397 -445 395 -428 Q 393 -411 387 -394.5 Q 381 -378 371.5 -363 Q 362 -348 348 -337.5 Q 334 -327 317 -322 Q 300 -317 282 -317 Q 267 -317 251.5 -321 Q 236 -325 223 -333.5 Q 210 -342 201 -355 Q 192 -368 186 -382 L 186 -173 Z M 251 -387 Q 265 -387 279 -392 Q 293 -397 303 -408 Q 313 -419 316.5 -433.5 Q 320 -448 320 -463 L 320 -547 Q 320 -562 316.5 -576.5 Q 313 -591 303 -602 Q 293 -613 279 -618 Q 265 -623 251 -623 Q 236 -623 222.5 -617.5 Q 209 -612 200.5 -601 Q 192 -590 189 -575.5 Q 186 -561 186 -547 L 186 -463 Q 186 -449 189 -434.5 Q 192 -420 200.5 -409 Q 209 -398 222.5 -392.5 Q 236 -387 251 -387 Z " id="path33"/>
<path d="M 248 -317 Q 229 -317 209.5 -320.5 Q 190 -324 172.5 -333 Q 155 -342 141 -356 Q 127 -370 118.5 -387.5 Q 110 -405 106.5 -424 Q 103 -443 103 -463 L 103 -547 Q 103 -567 106.5 -586 Q 110 -605 118.5 -622.5 Q 127 -640 141 -654 Q 155 -668 172.5 -677 Q 190 -686 209.5 -689.5 Q 229 -693 248 -693 Q 276 -693 303 -685.5 Q 330 -678 351 -659.5 Q 372 -641 382.5 -615 Q 393 -589 393 -561 L 393 -560 L 316 -560 Q 316 -574 311 -586.5 Q 306 -599 296.5 -607.5 Q 287 -616 274 -619.5 Q 261 -623 248 -623 Q 234 -623 220 -618 Q 206 -613 196.5 -601.5 Q 187 -590 183.5 -576 Q 180 -562 180 -547 L 180 -463 Q 180 -448 183.5 -434 Q 187 -420 196.5 -408.5 Q 206 -397 220 -392 Q 234 -387 248 -387 Q 261 -387 274 -390.5 Q 287 -394 296.5 -402.5 Q 306 -411 311 -423.5 Q 316 -436 316 -450 L 393 -450 L 393 -449 Q 393 -421 382.5 -395 Q 372 -369 351 -350.5 Q 330 -332 303 -324.5 Q 276 -317 248 -317 Z " id="path34"/>
<path d="M 212 -323 L 212 -618 L 104 -618 L 104 -687 L 396 -687 L 396 -618 L 288 -618 L 288 -323 Z " id="path35"/>
<path d="M 169 -173 Q 177 -198 184.5 -224 Q 192 -250 199 -275 L 211 -317 L 102 -687 L 181 -687 L 252 -415 L 319 -687 L 398 -687 L 249 -173 Z " id="path36"/>
<path d="M 212 -173 L 212 -317 Q 194 -317 177 -321.5 Q 160 -326 145.5 -336 Q 131 -346 121 -360.5 Q 111 -375 105 -391 Q 99 -407 97 -424.5 Q 95 -442 95 -460 L 95 -551 Q 95 -568 97 -585.5 Q 99 -603 105 -619 Q 111 -635 121 -649.5 Q 131 -664 145.5 -674 Q 160 -684 177 -688.5 Q 194 -693 212 -693 L 212 -838 L 288 -838 L 288 -693 Q 306 -693 323 -688.5 Q 340 -684 354.5 -674 Q 369 -664 379 -649.5 Q 389 -635 395 -619 Q 401 -603 403 -585.5 Q 405 -568 405 -551 L 405 -460 Q 405 -442 403 -424.5 Q 401 -407 395 -391 Q 389 -375 379 -360.5 Q 369 -346 354.5 -336 Q 340 -326 323 -321.5 Q 306 -317 288 -317 L 288 -173 Z M 213 -384 L 213 -626 Q 200 -626 190.5 -618 Q 181 -610 176 -598.5 Q 171 -587 169.5 -575 Q 168 -563 168 -551 L 168 -460 Q 168 -447 169.5 -435 Q 171 -423 176 -411.5 Q 181 -400 190.5 -392 Q 200 -384 213 -384 Z M 287 -384 Q 300 -384 309.5 -392 Q 319 -400 324 -411.5 Q 329 -423 330.5 -435 Q 332 -447 332 -460 L 332 -551 Q 332 -563 330.5 -575 Q 329 -587 324 -598.5 Q 319 -610 309.5 -618 Q 300 -626 287 -626 Z " id="path37"/>
<path d="M 98 -323 L 208 -505 L 98 -687 L 188 -687 L 250 -578 L 312 -687 L 402 -687 L 292 -505 L 402 -323 L 312 -323 L 250 -432 L 188 -323 Z " id="path38"/>
<path d="M 345 -218 L 345 -323 L 109 -323 L 109 -687 L 186 -687 L 186 -392 L 314 -392 L 314 -687 L 391 -687 L 391 -392 L 412 -392 L 412 -218 Z " id="path39"/>
<path d="M 314 -323 L 314 -444 Q 295 -439 275.5 -436.5 Q 256 -434 237 -434 Q 219 -434 201 -437 Q 183 -440 167 -448.5 Q 151 -457 138.5 -470.5 Q 126 -484 119 -500 Q 112 -516 110.5 -534 Q 109 -552 109 -570 L 109 -687 L 186 -687 L 186 -570 Q 186 -557 188.5 -544 Q 191 -531 200 -521.5 Q 209 -512 221.5 -507.5 Q 234 -503 247 -503 Q 264 -503 281 -507.5 Q 298 -512 314 -517 L 314 -687 L 391 -687 L 391 -323 Z " id="path40"/>
<path d="M 100 -323 L 100 -687 L 174 -687 L 174 -392 L 213 -392 L 213 -687 L 287 -687 L 287 -392 L 326 -392 L 326 -687 L 400 -687 L 400 -323 Z " id="path41"/>
<path d="M 326 -323 L 326 -687 L 400 -687 L 400 -323 Z M 100 -323 L 100 -687 L 174 -687 L 174 -558 L 200 -558 Q 222 -558 243 -549.5 Q 264 -541 278 -523.5 Q 292 -506 297 -484.5 Q 302 -463 302 -440 Q 302 -418 297 -396 Q 292 -374 278 -357 Q 264 -340 243 -331.5 Q 222 -323 200 -323 Z M 200 -389 Q 208 -389 214.5 -395 Q 221 -401 224 -408.5 Q 227 -416 228 -424 Q 229 -432 229 -440 Q 229 -449 228 -457 Q 227 -465 224 -472.5 Q 221 -480 214.5 -485.5 Q 208 -491 200 -491 L 174 -491 L 174 -389 Z " id="path42"/>
<path d="M 252 -317 Q 224 -317 197 -324.5 Q 170 -332 149 -350.5 Q 128 -369 117.5 -395 Q 107 -421 107 -449 L 107 -450 L 184 -450 Q 184 -436 189 -423.5 Q 194 -411 203.5 -402.5 Q 213 -394 226 -390.5 Q 239 -387 252 -387 Q 266 -387 280 -392 Q 294 -397 303.5 -408.5 Q 313 -420 316.5 -434 Q 320 -448 320 -463 L 320 -470 L 208 -470 L 208 -540 L 320 -540 L 320 -547 Q 320 -562 316.5 -576 Q 313 -590 303.5 -601.5 Q 294 -613 280 -618 Q 266 -623 252 -623 Q 239 -623 226 -619.5 Q 213 -616 203.5 -607.5 Q 194 -599 189 -586.5 Q 184 -574 184 -560 L 107 -560 L 107 -561 Q 107 -589 117.5 -615 Q 128 -641 149 -659.5 Q 170 -678 197 -685.5 Q 224 -693 252 -693 Q 271 -693 290.5 -689.5 Q 310 -686 327.5 -677 Q 345 -668 359 -654 Q 373 -640 381.5 -622.5 Q 390 -605 393.5 -586 Q 397 -567 397 -547 L 397 -463 Q 397 -443 393.5 -424 Q 390 -405 381.5 -387.5 Q 373 -370 359 -356 Q 345 -342 327.5 -333 Q 310 -324 290.5 -320.5 Q 271 -317 252 -317 Z " id="path43"/>
<path d="M 304 -317 Q 284 -317 264 -323.5 Q 244 -330 229.5 -345 Q 215 -360 209 -380 Q 203 -400 203 -421 L 203 -472 L 174 -472 L 174 -323 L 100 -323 L 100 -687 L 174 -687 L 174 -538 L 203 -538 L 203 -589 Q 203 -610 209 -630 Q 215 -650 229.5 -665 Q 244 -680 264 -686.5 Q 284 -693 304 -693 Q 325 -693 345 -686.5 Q 365 -680 379.5 -665 Q 394 -650 399.5 -630 Q 405 -610 405 -589 L 405 -421 Q 405 -400 399.5 -380 Q 394 -360 379.5 -345 Q 365 -330 345 -323.5 Q 325 -317 304 -317 Z M 304 -384 Q 311 -384 317 -387 Q 323 -390 326 -395.5 Q 329 -401 330.5 -407.5 Q 332 -414 332 -421 L 332 -589 Q 332 -596 330.5 -602.5 Q 329 -609 326 -614.5 Q 323 -620 317 -623 Q 311 -626 304 -626 Q 298 -626 292 -623 Q 286 -620 282.5 -614.5 Q 279 -609 278 -602.5 Q 277 -596 277 -589 L 277 -421 Q 277 -414 278 -407.5 Q 279 -401 282.5 -395.5 Q 286 -390 292 -387 Q 298 -384 304 -384 Z " id="path44"/>
<path d="M 380 -201 Q 372 -201 364 -203 Q 356 -205 349.5 -210.5 Q 343 -216 339.5 -224 Q 336 -232 336 -240 L 361 -240 Q 361 -233 367 -228 Q 373 -223 380 -223 Q 389 -223 394.5 -230 Q 400 -237 400 -246 Q 400 -250 399 -254 Q 398 -258 395 -260.5 Q 392 -263 388 -264 Q 384 -265 380 -265 L 368 -265 L 368 -287 L 380 -287 Q 387 -287 391 -293 Q 395 -299 395 -306 Q 395 -309 394.5 -312.5 Q 394 -316 392 -318.5 Q 390 -321 386.5 -322 Q 383 -323 380 -323 L 164 -323 L 164 -218 L 87 -218 L 87 -392 L 109 -392 Q 118 -411 124 -430 Q 130 -449 133.5 -469 Q 137 -489 137.5 -509.5 Q 138 -530 138 -551 L 138 -687 L 380 -687 L 380 -345 Q 388 -345 396 -343 Q 404 -341 409.5 -335 Q 415 -329 417 -321 Q 419 -313 419 -305 Q 419 -297 415.5 -289 Q 412 -281 406 -277 Q 415 -273 420 -264 Q 425 -255 425 -246 Q 425 -237 422 -228 Q 419 -219 413 -213 Q 407 -207 398 -204 Q 389 -201 380 -201 Z M 192 -392 L 303 -392 L 303 -618 L 215 -618 L 215 -551 Q 215 -510 211 -470 Q 207 -430 192 -392 Z " id="path45"/>
<path d="M 250 -317 Q 230 -317 210.5 -320.5 Q 191 -324 173.5 -333 Q 156 -342 142 -355.5 Q 128 -369 119 -386.5 Q 110 -404 106.5 -423.5 Q 103 -443 103 -463 L 103 -540 L 320 -540 L 320 -547 Q 320 -562 316 -576.5 Q 312 -591 302 -602 Q 292 -613 277.5 -618 Q 263 -623 248 -623 Q 237 -623 226.5 -621.5 Q 216 -620 206 -615 Q 196 -610 189 -601 Q 182 -592 181 -581 L 104 -581 Q 106 -606 118.5 -629 Q 131 -652 152 -667 Q 173 -682 198 -687.5 Q 223 -693 248 -693 Q 268 -693 287.5 -689.5 Q 307 -686 325 -677.5 Q 343 -669 357.5 -655 Q 372 -641 381 -623.5 Q 390 -606 393.5 -586.5 Q 397 -567 397 -547 L 397 -463 Q 397 -443 393.5 -423.5 Q 390 -404 381 -386.5 Q 372 -369 358 -355.5 Q 344 -342 326.5 -333 Q 309 -324 289.5 -320.5 Q 270 -317 250 -317 Z M 250 -387 Q 265 -387 279 -392 Q 293 -397 302.5 -408 Q 312 -419 316 -433.5 Q 320 -448 320 -463 L 320 -470 L 180 -470 L 180 -463 Q 180 -448 184 -433.5 Q 188 -419 197.5 -408 Q 207 -397 221 -392 Q 235 -387 250 -387 Z " id="path46"/>
<path d="M 255 -730 Q 242 -730 230 -734 Q 218 -738 209 -746.5 Q 200 -755 196.5 -767.5 Q 193 -780 193 -792 Q 193 -804 196.5 -816.5 Q 200 -829 209 -837.5 Q 218 -846 230 -850 Q 242 -854 255 -854 Q 267 -854 279.5 -850 Q 292 -846 300.5 -837.5 Q 309 -829 313 -816.5 Q 317 -804 317 -792 Q 317 -780 313 -767.5 Q 309 -755 300.5 -746.5 Q 292 -738 279.5 -734 Q 267 -730 255 -730 Z M 128 -323 L 128 -392 L 216 -392 L 216 -618 L 137 -618 L 137 -687 L 293 -687 L 293 -392 L 373 -392 L 373 -323 Z " id="path47"/>
<path d="M 281 -730 Q 269 -730 256.5 -734 Q 244 -738 235.5 -746.5 Q 227 -755 223 -767.5 Q 219 -780 219 -792 Q 219 -804 223 -816.5 Q 227 -829 235.5 -837.5 Q 244 -846 256.5 -850 Q 269 -854 281 -854 Q 294 -854 306 -850 Q 318 -846 327 -837.5 Q 336 -829 339.5 -816.5 Q 343 -804 343 -792 Q 343 -780 339.5 -767.5 Q 336 -755 327 -746.5 Q 318 -738 306 -734 Q 294 -730 281 -730 Z M 204 -167 Q 180 -167 155.5 -174.5 Q 131 -182 113.5 -199.5 Q 96 -217 87 -241 Q 78 -265 78 -290 L 155 -290 Q 155 -279 158 -269 Q 161 -259 167.5 -251.5 Q 174 -244 184 -240 Q 194 -236 204 -236 Q 217 -236 228 -242.5 Q 239 -249 245 -260 Q 251 -271 253.5 -283.5 Q 256 -296 256 -309 L 256 -618 L 172 -618 L 172 -687 L 333 -687 L 333 -309 Q 333 -291 330 -273 Q 327 -255 320 -238 Q 313 -221 301.5 -207 Q 290 -193 274 -183.5 Q 258 -174 240 -170.5 Q 222 -167 204 -167 Z " id="path48"/>
<path d="M 250 -317 Q 230 -317 210.5 -320.5 Q 191 -324 173.5 -333 Q 156 -342 142 -355.5 Q 128 -369 119 -386.5 Q 110 -404 106.5 -423.5 Q 103 -443 103 -463 L 103 -547 Q 103 -567 106.5 -586.5 Q 110 -606 119 -623.5 Q 128 -641 142 -654.5 Q 156 -668 173.5 -677 Q 191 -686 210.5 -689.5 Q 230 -693 250 -693 Q 270 -693 289.5 -689.5 Q 309 -686 326.5 -677 Q 344 -668 358 -654.5 Q 372 -641 381 -623.5 Q 390 -606 393.5 -586.5 Q 397 -567 397 -547 L 397 -463 Q 397 -443 393.5 -423.5 Q 390 -404 381 -386.5 Q 372 -369 358 -355.5 Q 344 -342 326.5 -333 Q 309 -324 289.5 -320.5 Q 270 -317 250 -317 Z M 180 -532 L 320 -532 L 320 -547 Q 320 -562 316 -576.5 Q 312 -591 302.5 -602 Q 293 -613 279 -618 Q 265 -623 250 -623 Q 235 -623 221 -618 Q 207 -613 197.5 -602 Q 188 -591 184 -576.5 Q 180 -562 180 -547 Z M 250 -387 Q 265 -387 279 -392 Q 293 -397 302.5 -408 Q 312 -419 316 -433.5 Q 320 -448 320 -463 L 320 -478 L 180 -478 L 180 -463 Q 180 -448 184 -433.5 Q 188 -419 197.5 -408 Q 207 -397 221 -392 Q 235 -387 250 -387 Z " id="path49"/>
<path d="M 212 -173 L 212 -377 L 90 -687 L 173 -687 L 250 -482 L 327 -687 L 410 -687 L 288 -377 L 288 -173 Z " id="path50"/>
<path d="M 128 -323 L 128 -392 L 216 -392 L 216 -768 L 137 -768 L 137 -838 L 293 -838 L 293 -392 L 373 -392 L 373 -323 Z " id="path51"/>
<path d="M 209 113 Q 188 113 167 106.5 Q 146 100 131 84.5 Q 116 69 109.5 48.5 Q 103 28 103 6 Q 103 -13 108 -31.5 Q 113 -50 125.5 -65 Q 138 -80 154.5 -90 Q 171 -100 189 -105.5 Q 207 -111 226 -113 Q 245 -115 264 -115 L 314 -115 L 314 -145 Q 314 -156 308.5 -166.5 Q 303 -177 293 -183 Q 283 -189 272 -191 Q 261 -193 249 -193 Q 238 -193 227 -191 Q 216 -189 206 -183 Q 196 -177 190 -167 Q 184 -157 184 -146 L 107 -146 L 107 -147 Q 107 -173 119 -197 Q 131 -221 151.5 -236 Q 172 -251 197.5 -256.5 Q 223 -262 249 -262 Q 267 -262 284 -260 Q 301 -258 317.5 -252 Q 334 -246 348.5 -235.5 Q 363 -225 373 -210.5 Q 383 -196 387 -179 Q 391 -162 391 -145 L 391 107 L 314 107 L 314 52 Q 307 67 296 79 Q 285 91 271 98.5 Q 257 106 241 109.5 Q 225 113 209 113 Z M 240 44 Q 254 44 267.5 40.5 Q 281 37 292 29 Q 303 21 308.5 8 Q 314 -5 314 -18 L 314 -46 L 264 -46 Q 255 -46 246.5 -45.5 Q 238 -45 229 -43 Q 220 -41 211.5 -38.5 Q 203 -36 196 -31 Q 189 -26 184.5 -18 Q 180 -10 180 -1 Q 180 9 185.5 19 Q 191 29 199.5 34.5 Q 208 40 219 42 Q 230 44 240 44 Z " id="path52"/>
<path d="M 250 113 Q 230 113 210.5 109.5 Q 191 106 173.5 97.5 Q 156 89 142 75 Q 128 61 119 43.5 Q 110 26 106.5 6.5 Q 103 -13 103 -33 L 103 -173 Q 103 -199 105 -225.5 Q 107 -252 115.5 -277 Q 124 -302 141 -323.5 Q 158 -345 181 -357.5 Q 204 -370 230.5 -375 Q 257 -380 283.5 -383.5 Q 310 -387 336 -392.5 Q 362 -398 387 -407 L 387 -338 Q 371 -330 355 -325 Q 339 -320 322 -317.5 Q 305 -315 288 -314 Q 271 -313 254.5 -310 Q 238 -307 222.5 -298.5 Q 207 -290 196.5 -277 Q 186 -264 181 -247 Q 176 -230 176 -213 Q 190 -230 211 -237.5 Q 232 -245 254 -245 Q 273 -245 292 -241 Q 311 -237 328.5 -228 Q 346 -219 359.5 -205 Q 373 -191 381.5 -174 Q 390 -157 393.5 -137.5 Q 397 -118 397 -99 L 397 -33 Q 397 -13 393.5 6.5 Q 390 26 381 43.5 Q 372 61 358 75 Q 344 89 326.5 97.5 Q 309 106 289.5 109.5 Q 270 113 250 113 Z M 250 44 Q 265 44 279 39 Q 293 34 302.5 22.5 Q 312 11 316 -3.5 Q 320 -18 320 -33 L 320 -99 Q 320 -114 316.5 -128.5 Q 313 -143 303.5 -154 Q 294 -165 279.5 -170 Q 265 -175 251 -175 Q 236 -175 221.5 -170 Q 207 -165 197.5 -154 Q 188 -143 184 -128.5 Q 180 -114 180 -99 L 180 -33 Q 180 -18 184 -3.5 Q 188 11 197.5 22.5 Q 207 34 221 39 Q 235 44 250 44 Z " id="path53"/>
<path d="M 109 107 L 109 -257 L 265 -257 Q 287 -257 309 -251.5 Q 331 -246 348.5 -232 Q 366 -218 374.5 -196.5 Q 383 -175 383 -153 Q 383 -143 381 -132.5 Q 379 -122 374.5 -113 Q 370 -104 363 -96.5 Q 356 -89 348 -83 Q 360 -78 370.5 -70 Q 381 -62 388.5 -51.5 Q 396 -41 399.5 -28 Q 403 -15 403 -2 Q 403 15 398 31 Q 393 47 383.5 60.5 Q 374 74 360 83.5 Q 346 93 330 98.5 Q 314 104 297.5 105.5 Q 281 107 265 107 Z M 186 -115 L 265 -115 Q 273 -115 280.5 -117 Q 288 -119 294 -124 Q 300 -129 303 -136.5 Q 306 -144 306 -152 Q 306 -159 303 -166.5 Q 300 -174 294 -179 Q 288 -184 280 -185.5 Q 272 -187 265 -187 L 186 -187 Z M 186 38 L 265 38 Q 275 38 285.5 36.5 Q 296 35 305 30 Q 314 25 320 16 Q 326 7 326 -3 Q 326 -14 320 -23 Q 314 -32 305 -37 Q 296 -42 285.5 -44 Q 275 -46 265 -46 L 186 -46 Z " id="path54"/>
<path d="M 125 107 L 125 -257 L 397 -257 L 397 -187 L 202 -187 L 202 107 Z " id="path55"/>
<path d="M 164 213 L 87 213 L 87 38 L 109 38 Q 118 20 124 0.5 Q 130 -19 133.5 -39 Q 137 -59 137.5 -79.5 Q 138 -100 138 -120 L 138 -257 L 380 -257 L 380 38 L 413 38 L 413 213 L 336 213 L 336 107 L 164 107 Z M 303 38 L 303 -187 L 215 -187 L 215 -120 Q 215 -80 211 -39.5 Q 207 1 192 38 Z " id="path56"/>
<path d="M 252 113 Q 232 113 212.5 109.5 Q 193 106 175 97.5 Q 157 89 142.5 75 Q 128 61 119 43.5 Q 110 26 106.5 6.5 Q 103 -13 103 -33 L 103 -117 Q 103 -136 106.5 -155.5 Q 110 -175 119 -192.5 Q 128 -210 142 -224 Q 156 -238 173.5 -246.5 Q 191 -255 210.5 -258.5 Q 230 -262 250 -262 Q 270 -262 289.5 -258.5 Q 309 -255 326.5 -246.5 Q 344 -238 358 -224 Q 372 -210 381 -192.5 Q 390 -175 393.5 -155.5 Q 397 -136 397 -117 L 397 -40 L 180 -40 L 180 -33 Q 180 -18 184 -3 Q 188 12 198 23 Q 208 34 222.5 39 Q 237 44 252 44 Q 263 44 273.5 42 Q 284 40 294 35 Q 304 30 311 21 Q 318 12 319 2 L 396 2 Q 394 27 381.5 50 Q 369 73 348 87.5 Q 327 102 302 107.5 Q 277 113 252 113 Z M 180 -109 L 320 -109 L 320 -117 Q 320 -131 316 -145.5 Q 312 -160 302.5 -171.5 Q 293 -183 279 -188 Q 265 -193 250 -193 Q 235 -193 221 -188 Q 207 -183 197.5 -171.5 Q 188 -160 184 -145.5 Q 180 -131 180 -117 Z " id="path57"/>
<path d="M 83 107 L 138 -75 L 83 -257 L 153 -257 L 198 -105 L 216 -105 L 216 -257 L 284 -257 L 284 -105 L 302 -105 L 347 -257 L 417 -257 L 362 -75 Q 376 -29 389.5 16.5 Q 403 62 417 107 L 347 107 L 302 -44 L 284 -44 L 284 107 L 216 107 L 216 -44 L 198 -44 L 156 98 L 153 107 Z " id="path58"/>
<path d="M 252 113 Q 225 113 198.5 107.5 Q 172 102 150 87 Q 128 72 115 48 Q 102 24 102 -3 L 179 -3 Q 179 9 186.5 19 Q 194 29 204.5 34.5 Q 215 40 227.5 42 Q 240 44 252 44 Q 264 44 276 42 Q 288 40 299 35 Q 310 30 318 20 Q 326 10 326 -2 Q 326 -15 318 -24.5 Q 310 -34 298.5 -39 Q 287 -44 274.5 -45.5 Q 262 -47 250 -47 L 208 -47 L 208 -116 L 250 -116 Q 260 -116 270.5 -117.5 Q 281 -119 291 -123 Q 301 -127 307.5 -135.5 Q 314 -144 314 -154 Q 314 -164 307.5 -172.5 Q 301 -181 292 -185.5 Q 283 -190 272.5 -191.5 Q 262 -193 252 -193 Q 241 -193 230.5 -191 Q 220 -189 211 -184 Q 202 -179 196 -170 Q 190 -161 190 -150 L 113 -150 L 113 -151 Q 113 -176 124.5 -199.5 Q 136 -223 156.5 -237 Q 177 -251 202 -256.5 Q 227 -262 252 -262 Q 277 -262 301.5 -257 Q 326 -252 347 -238.5 Q 368 -225 379.5 -202.5 Q 391 -180 391 -155 Q 391 -144 388.5 -132.5 Q 386 -121 380 -111.5 Q 374 -102 365 -95 Q 356 -88 346 -83 Q 358 -78 369 -70 Q 380 -62 388 -51.5 Q 396 -41 399.5 -28 Q 403 -15 403 -1 Q 403 25 390 49.5 Q 377 74 354.5 88.5 Q 332 103 305 108 Q 278 113 252 113 Z " id="path59"/>
<path d="M 109 107 L 109 -257 L 186 -257 L 186 -111 Q 186 -86 185.5 -60.5 Q 185 -35 184 -10 L 286 -257 L 391 -257 L 391 107 L 314 107 L 314 -38 Q 314 -63 314.5 -88.5 Q 315 -114 316 -139 L 231 68 L 214 107 Z " id="path60"/>
<path d="M 120 107 L 120 -257 L 197 -257 L 197 -109 L 229 -109 L 316 -257 L 403 -257 L 291 -75 L 403 107 L 316 107 L 229 -40 L 197 -40 L 197 107 Z " id="path61"/>
<path d="M 83 107 L 83 38 Q 95 38 104.5 32 Q 114 26 118.5 15.5 Q 123 5 125.5 -6 Q 128 -17 128.5 -28.5 Q 129 -40 129.5 -51 Q 130 -62 130 -74 L 130 -257 L 391 -257 L 391 107 L 314 107 L 314 -187 L 207 -187 L 207 -75 Q 207 -59 206.5 -43 Q 206 -27 204.5 -11 Q 203 5 199.5 20.5 Q 196 36 189 50.5 Q 182 65 171 77 Q 160 89 145.5 96 Q 131 103 115 105 Q 99 107 83 107 Z " id="path62"/>
<path d="M 250 113 Q 230 113 210.5 109.5 Q 191 106 173.5 97.5 Q 156 89 142 75 Q 128 61 119 43.5 Q 110 26 106.5 6.5 Q 103 -13 103 -33 L 103 -117 Q 103 -136 106.5 -155.5 Q 110 -175 119 -192.5 Q 128 -210 142 -224 Q 156 -238 173.5 -246.5 Q 191 -255 210.5 -258.5 Q 230 -262 250 -262 Q 270 -262 289.5 -258.5 Q 309 -255 326.5 -246.5 Q 344 -238 358 -224 Q 372 -210 381 -192.5 Q 390 -175 393.5 -155.5 Q 397 -136 397 -117 L 397 -33 Q 397 -13 393.5 6.5 Q 390 26 381 43.5 Q 372 61 358 75 Q 344 89 326.5 97.5 Q 309 106 289.5 109.5 Q 270 113 250 113 Z M 250 44 Q 265 44 279 39 Q 293 34 302.5 22.5 Q 312 11 316 -3.5 Q 320 -18 320 -33 L 320 -117 Q 320 -131 316 -145.5 Q 312 -160 302.5 -171.5 Q 293 -183 279 -188 Q 265 -193 250 -193 Q 235 -193 221 -188 Q 207 -183 197.5 -171.5 Q 188 -160 184 -145.5 Q 180 -131 180 -117 L 180 -33 Q 180 -18 184 -3.5 Q 188 11 197.5 22.5 Q 207 34 221 39 Q 235 44 250 44 Z " id="path63"/>
<path d="M 109 108 L 109 -257 L 391 -257 L 391 107 L 314 107 L 314 -187 L 186 -187 L 186 108 Z " id="path64"/>
<path d="M 248 113 Q 229 113 209.5 109.5 Q 190 106 172.5 97.5 Q 155 89 141 75 Q 127 61 118.5 43.5 Q 110 26 106.5 6.5 Q 103 -13 103 -33 L 103 -117 Q 103 -136 106.5 -155.5 Q 110 -175 118.5 -192.5 Q 127 -210 141 -224 Q 155 -238 172.5 -246.5 Q 190 -255 209.5 -258.5 Q 229 -262 248 -262 Q 276 -262 303 -254.5 Q 330 -247 351 -229 Q 372 -211 382.5 -184.5 Q 393 -158 393 -131 L 393 -129 L 316 -129 L 316 -130 Q 316 -143 311 -155.5 Q 306 -168 296.5 -177 Q 287 -186 274 -189.5 Q 261 -193 248 -193 Q 234 -193 220 -187.5 Q 206 -182 196.5 -171 Q 187 -160 183.5 -145.5 Q 180 -131 180 -117 L 180 -33 Q 180 -18 183.5 -3.5 Q 187 11 196.5 22 Q 206 33 220 38.5 Q 234 44 248 44 Q 261 44 274 40.5 Q 287 37 296.5 28 Q 306 19 311 6.5 Q 316 -6 316 -19 L 316 -20 L 393 -20 L 393 -18 Q 393 9 382.5 35.5 Q 372 62 351 80 Q 330 98 303 105.5 Q 276 113 248 113 Z " id="path65"/>
<path d="M 169 258 Q 177 232 184.5 206.5 Q 192 181 199 155 L 211 113 L 102 -257 L 181 -257 L 252 16 L 319 -257 L 398 -257 L 249 258 Z " id="path66"/>
<path d="M 212 258 L 212 113 Q 194 113 177 108.5 Q 160 104 145.5 94.5 Q 131 85 121 70.5 Q 111 56 105 39.5 Q 99 23 97 5.5 Q 95 -12 95 -29 L 95 -120 Q 95 -137 97 -154.5 Q 99 -172 105 -188.5 Q 111 -205 121 -219.5 Q 131 -234 145.5 -243.5 Q 160 -253 177 -257.5 Q 194 -262 212 -262 L 212 -407 L 288 -407 L 288 -262 Q 306 -262 323 -257.5 Q 340 -253 354.5 -243.5 Q 369 -234 379 -219.5 Q 389 -205 395 -188.5 Q 401 -172 403 -154.5 Q 405 -137 405 -120 L 405 -29 Q 405 -12 403 5.5 Q 401 23 395 39.5 Q 389 56 379 70.5 Q 369 85 354.5 94.5 Q 340 104 323 108.5 Q 306 113 288 113 L 288 258 Z M 213 47 L 213 -196 Q 200 -196 190.5 -187.5 Q 181 -179 176 -168 Q 171 -157 169.5 -144.5 Q 168 -132 168 -120 L 168 -29 Q 168 -17 169.5 -4.5 Q 171 8 176 19 Q 181 30 190.5 38.5 Q 200 47 213 47 Z M 287 47 Q 300 47 309.5 38.5 Q 319 30 324 19 Q 329 8 330.5 -4.5 Q 332 -17 332 -29 L 332 -120 Q 332 -132 330.5 -144.5 Q 329 -157 324 -168 Q 319 -179 309.5 -187.5 Q 300 -196 287 -196 Z " id="path67"/>
<path d="M 98 107 L 208 -74 L 98 -257 L 188 -257 L 250 -148 L 312 -257 L 402 -257 L 292 -75 L 402 107 L 312 107 L 250 -1 L 188 107 Z " id="path68"/>
<path d="M 345 213 L 345 107 L 109 107 L 109 -257 L 186 -257 L 186 38 L 314 38 L 314 -257 L 391 -257 L 391 38 L 412 38 L 412 213 Z " id="path69"/>
<path d="M 314 107 L 314 -13 Q 295 -9 275.5 -6 Q 256 -3 237 -3 Q 219 -3 201 -6.5 Q 183 -10 167 -18 Q 151 -26 138.5 -39.5 Q 126 -53 119 -69.5 Q 112 -86 110.5 -104 Q 109 -122 109 -140 L 109 -257 L 186 -257 L 186 -140 Q 186 -127 188.5 -114 Q 191 -101 200 -91 Q 209 -81 221.5 -77 Q 234 -73 247 -73 Q 264 -73 281 -77 Q 298 -81 314 -86 L 314 -257 L 391 -257 L 391 107 Z " id="path70"/>
<path d="M 100 107 L 100 -257 L 174 -257 L 174 38 L 213 38 L 213 -257 L 287 -257 L 287 38 L 326 38 L 326 -257 L 400 -257 L 400 107 Z " id="path71"/>
<path d="M 146 107 L 146 -187 L 88 -187 L 88 -257 L 223 -257 L 223 -127 L 283 -127 Q 307 -127 329.5 -120 Q 352 -113 368 -96 Q 384 -79 390.5 -56 Q 397 -33 397 -10 Q 397 13 390.5 36 Q 384 59 368 76 Q 352 93 329.5 100 Q 307 107 283 107 Z M 283 38 Q 292 38 300 34 Q 308 30 312.5 23 Q 317 16 318.5 7.5 Q 320 -1 320 -10 Q 320 -18 318.5 -27 Q 317 -36 312.5 -43 Q 308 -50 300 -54 Q 292 -58 283 -58 L 223 -58 L 223 38 Z " id="path72"/>
<path d="M 326 107 L 326 -257 L 400 -257 L 400 107 Z M 100 107 L 100 -257 L 174 -257 L 174 -127 L 200 -127 Q 222 -127 243 -119 Q 264 -111 278 -93.5 Q 292 -76 297 -54 Q 302 -32 302 -10 Q 302 12 297 34 Q 292 56 278 73.5 Q 264 91 243 99 Q 222 107 200 107 Z M 174 41 L 200 41 Q 208 41 214.5 35.5 Q 221 30 224 22 Q 227 14 228 6 Q 229 -2 229 -10 Q 229 -18 228 -26 Q 227 -34 224 -42 Q 221 -50 214.5 -55.5 Q 208 -61 200 -61 L 174 -61 Z " id="path73"/>
<path d="M 125 107 L 125 -257 L 320 -257 L 320 -344 L 397 -344 L 397 -187 L 202 -187 L 202 107 Z " id="path74"/>
<path d="M 255 -300 Q 242 -300 230 -303.5 Q 218 -307 209 -316 Q 200 -325 196.5 -337 Q 193 -349 193 -361 Q 193 -374 196.5 -386 Q 200 -398 209 -407 Q 218 -416 230 -419.5 Q 242 -423 255 -423 Q 267 -423 279.5 -419.5 Q 292 -416 300.5 -407 Q 309 -398 313 -386 Q 317 -374 317 -361 Q 317 -349 313 -337 Q 309 -325 300.5 -316 Q 292 -307 279.5 -303.5 Q 267 -300 255 -300 Z M 128 107 L 128 38 L 216 38 L 216 -187 L 137 -187 L 137 -257 L 293 -257 L 293 38 L 373 38 L 373 107 Z " id="path75"/>
<path d="M 249 113 Q 224 113 198.5 108 Q 173 103 152.5 88.5 Q 132 74 119.5 50.5 Q 107 27 107 2 L 107 1 L 184 1 Q 184 12 190.5 21 Q 197 30 207 35 Q 217 40 227.5 42 Q 238 44 249 44 Q 259 44 269.5 43 Q 280 42 289.5 38 Q 299 34 307 26.5 Q 315 19 315 9 Q 315 -3 306 -12 Q 297 -21 286.5 -26 Q 276 -31 264 -33 Q 252 -35 240.5 -37.5 Q 229 -40 217.5 -43 Q 206 -46 195 -51 Q 184 -56 173.5 -62 Q 163 -68 154 -76 Q 145 -84 137.5 -93 Q 130 -102 125 -113 Q 120 -124 117 -135.5 Q 114 -147 114 -159 Q 114 -183 126 -205 Q 138 -227 158.5 -240 Q 179 -253 203 -257.5 Q 227 -262 251 -262 Q 275 -262 299.5 -257 Q 324 -252 344 -237.5 Q 364 -223 375.5 -200 Q 387 -177 387 -153 L 387 -151 L 310 -151 L 310 -152 Q 310 -162 304.5 -171 Q 299 -180 290 -184.5 Q 281 -189 271 -191 Q 261 -193 251 -193 Q 241 -193 231.5 -191.5 Q 222 -190 213 -186.5 Q 204 -183 197.5 -175.5 Q 191 -168 191 -159 Q 191 -147 199.5 -137.5 Q 208 -128 219 -123 Q 230 -118 241.5 -116 Q 253 -114 265 -112 Q 277 -110 288.5 -106.5 Q 300 -103 311 -98.5 Q 322 -94 332 -87.5 Q 342 -81 351 -73.5 Q 360 -66 367.5 -56.5 Q 375 -47 380.5 -36.5 Q 386 -26 389 -14 Q 392 -2 392 10 Q 392 34 378.5 56.5 Q 365 79 344 91.5 Q 323 104 298.5 108.5 Q 274 113 249 113 Z " id="path76"/>
<path d="M 212 258 L 212 107 L 109 107 L 109 -257 L 186 -257 L 186 38 L 314 38 L 314 -257 L 391 -257 L 391 107 L 288 107 L 288 258 Z " id="path77"/>
<path d="M 180 -169 L 180 -224 L 250 -224 Q 255 -224 259.5 -225 Q 264 -226 268 -227.5 Q 272 -229 274.5 -233 Q 277 -237 277 -242 Q 277 -247 275 -251.5 Q 273 -256 269 -258.5 Q 265 -261 260 -262 Q 255 -263 250 -263 L 219 -263 L 219 -319 Q 194 -322 170.5 -334 Q 147 -346 131.5 -366.5 Q 116 -387 109.5 -412 Q 103 -437 103 -463 L 103 -547 Q 103 -567 106.5 -586 Q 110 -605 118.5 -622.5 Q 127 -640 141 -654 Q 155 -668 172.5 -677 Q 190 -686 209.5 -689.5 Q 229 -693 248 -693 Q 276 -693 303 -685.5 Q 330 -678 351 -659.5 Q 372 -641 382.5 -615 Q 393 -589 393 -561 L 393 -560 L 316 -560 Q 316 -574 311 -586.5 Q 306 -599 296.5 -607.5 Q 287 -616 274 -619.5 Q 261 -623 248 -623 Q 234 -623 220 -618 Q 206 -613 196.5 -601.5 Q 187 -590 183.5 -576 Q 180 -562 180 -547 L 180 -463 Q 180 -448 183.5 -434 Q 187 -420 196.5 -408.5 Q 206 -397 220 -392 Q 234 -387 248 -387 Q 261 -387 274 -390.5 Q 287 -394 296.5 -403 Q 306 -412 311 -424 Q 316 -436 316 -450 L 393 -450 L 393 -449 Q 393 -425 385.5 -402.5 Q 378 -380 362.5 -362 Q 347 -344 325.5 -333.5 Q 304 -323 281 -319 L 281 -291 Q 290 -289 299 -283.5 Q 308 -278 314 -270 Q 320 -262 323 -252 Q 326 -242 326 -232 Q 326 -218 320 -205 Q 314 -192 303 -183.5 Q 292 -175 278 -172 Q 264 -169 250 -169 Z " id="path78"/>
<path d="M 332 -323 L 332 -687 L 400 -687 L 400 -323 Z M 122 -323 L 122 -626 L 84 -626 L 84 -687 L 190 -687 L 190 -558 L 205 -558 Q 227 -558 247 -549 Q 267 -540 279.5 -522.5 Q 292 -505 297 -483.5 Q 302 -462 302 -440 Q 302 -419 297 -397.5 Q 292 -376 279.5 -358.5 Q 267 -341 247 -332 Q 227 -323 205 -323 Z M 190 -384 L 205 -384 Q 214 -384 220 -391 Q 226 -398 229 -406 Q 232 -414 232.5 -423 Q 233 -432 233 -440 Q 233 -449 232.5 -457.5 Q 232 -466 229 -474.5 Q 226 -483 220 -489.5 Q 214 -496 205 -496 L 190 -496 Z " id="path79"/>
<path d="M 212 -173 L 212 -352 L 158 -352 L 158 -405 L 200 -405 L 90 -687 L 173 -687 L 250 -482 L 327 -687 L 410 -687 L 300 -405 L 342 -405 L 342 -352 L 288 -352 L 288 -173 Z " id="path80"/>
<path d="M 64 0 L 64 -735 L 436 -735 L 436 0 Z M 94 -321 L 401 -705 L 307 -705 L 94 -438 Z M 94 -477 L 276 -705 L 182 -705 L 94 -595 Z M 94 -634 L 151 -705 L 94 -705 Z M 94 -165 L 406 -554 L 406 -671 L 94 -282 Z M 94 -30 L 112 -30 L 406 -398 L 406 -515 L 94 -126 Z M 237 -30 L 406 -242 L 406 -359 L 143 -30 Z M 268 -30 L 362 -30 L 406 -85 L 406 -203 Z M 393 -30 L 406 -30 L 406 -46 Z " id="path81"/>
<path d="M 250 -526 Q 240 -526 233 -533 Q 226 -540 226 -550 Q 226 -560 233 -567 Q 240 -574 250 -574 Q 260 -574 267 -567 Q 274 -560 274 -550 Q 274 -540 267 -533 Q 260 -526 250 -526 Z M 145 -498 Q 135 -498 128 -505 Q 121 -512 121 -522 Q 121 -531 128 -538.5 Q 135 -546 145 -546 Q 155 -546 162 -538.5 Q 169 -531 169 -522 Q 169 -512 162 -505 Q 155 -498 145 -498 Z M 355 -498 Q 345 -498 338 -505 Q 331 -512 331 -522 Q 331 -531 338 -538.5 Q 345 -546 355 -546 Q 365 -546 372 -538.5 Q 379 -531 379 -522 Q 379 -512 372 -505 Q 365 -498 355 -498 Z M 68 -421 Q 59 -421 51.5 -428 Q 44 -435 44 -445 Q 44 -455 51.5 -462 Q 59 -469 68 -469 Q 78 -469 85 -462 Q 92 -455 92 -445 Q 92 -435 85 -428 Q 78 -421 68 -421 Z M 432 -421 Q 422 -421 415 -428 Q 408 -435 408 -445 Q 408 -455 415 -462 Q 422 -469 432 -469 Q 441 -469 448.5 -462 Q 456 -455 456 -445 Q 456 -435 448.5 -428 Q 441 -421 432 -421 Z M 40 -316 Q 30 -316 23 -323 Q 16 -330 16 -340 Q 16 -350 23 -357 Q 30 -364 40 -364 Q 50 -364 57 -357 Q 64 -350 64 -340 Q 64 -330 57 -323 Q 50 -316 40 -316 Z M 460 -316 Q 450 -316 443 -323 Q 436 -330 436 -340 Q 436 -350 443 -357 Q 450 -364 460 -364 Q 470 -364 477 -357 Q 484 -350 484 -340 Q 484 -330 477 -323 Q 470 -316 460 -316 Z M 432 -211 Q 422 -211 415 -218 Q 408 -225 408 -235 Q 408 -245 415 -252 Q 422 -259 432 -259 Q 441 -259 448.5 -252 Q 456 -245 456 -235 Q 456 -225 448.5 -218 Q 441 -211 432 -211 Z M 68 -211 Q 59 -211 51.5 -218 Q 44 -225 44 -235 Q 44 -245 51.5 -252 Q 59 -259 68 -259 Q 78 -259 85 -252 Q 92 -245 92 -235 Q 92 -225 85 -218 Q 78 -211 68 -211 Z M 355 -134 Q 345 -134 338 -141.5 Q 331 -149 331 -158 Q 331 -168 338 -175 Q 345 -182 355 -182 Q 365 -182 372 -175 Q 379 -168 379 -158 Q 379 -149 372 -141.5 Q 365 -134 355 -134 Z M 145 -134 Q 135 -134 128 -141.5 Q 121 -149 121 -158 Q 121 -168 128 -175 Q 135 -182 145 -182 Q 155 -182 162 -175 Q 169 -168 169 -158 Q 169 -149 162 -141.5 Q 155 -134 145 -134 Z M 250 -106 Q 240 -106 233 -113 Q 226 -120 226 -130 Q 226 -140 233 -147 Q 240 -154 250 -154 Q 260 -154 267 -147 Q 274 -140 274 -130 Q 274 -120 267 -113 Q 260 -106 250 -106 Z " id="path82"/>
<path d="M -247 -850 Q -253 -850 -259.5 -852 Q -266 -854 -270 -858.5 Q -274 -863 -276 -869 Q -278 -875 -278 -881 Q -278 -887 -276 -893 Q -274 -899 -270 -903.5 Q -266 -908 -259.5 -910 Q -253 -912 -247 -912 Q -241 -912 -235 -910 Q -229 -908 -224.5 -903.5 Q -220 -899 -218 -893 Q -216 -887 -216 -881 Q -216 -875 -218 -869 Q -220 -863 -224.5 -858.5 Q -229 -854 -235 -852 Q -241 -850 -247 -850 Z M -320 -613 L -320 -648 L -266 -648 L -266 -786 L -314 -786 L -314 -821 L -228 -821 L -228 -648 L -180 -648 L -180 -613 Z " id="path83"/>
</defs>
<g>
<g data-source-text="0" fill="#dee4e3" transform="translate(174 41.292) rotate(0) scale(0.023999998)">
<use href="#path1" transform="translate(0 0)"/>
</g>
</g>
<g>
<g data-source-text="1" fill="#dee4e3" transform="translate(246 41.292) rotate(0) scale(0.023999998)">
<use href="#path2" transform="translate(0 0)"/>
</g>
</g>
<g>
<g data-source-text="2" fill="#dee4e3" transform="translate(318 41.292) rotate(0) scale(0.023999998)">
<use href="#path3" transform="translate(0 0)"/>
</g>
</g>
<g>
<g data-source-text="3" fill="#dee4e3" transform="translate(390 41.292) rotate(0) scale(0.023999998)">
<use href="#path4" transform="translate(0 0)"/>
</g>
</g>
<g>
<g data-source-text="4" fill="#dee4e3" transform="translate(462 41.292) rotate(0) scale(0.023999998)">
<use href="#path5" transform="translate(0 0)"/>
</g>
</g>
<g>
<g data-source-text="5" fill="#dee4e3" transform="translate(534 41.292) rotate(0) scale(0.023999998)">
<use href="#path6" transform="translate(0 0)"/>
</g>
</g>
<g>
<g data-source-text="6" fill="#dee4e3" transform="translate(606 41.292) rotate(0) scale(0.023999998)">
<use href="#path7" transform="translate(0 0)"/>
</g>
</g>
<g>
<g data-source-text="7" fill="#dee4e3" transform="translate(678 41.292) rotate(0) scale(0.023999998)">
<use href="#path8" transform="translate(0 0)"/>
</g>
</g>
<g>
<g data-source-text="8" fill="#dee4e3" transform="translate(750 41.292) rotate(0) scale(0.023999998)">
<use href="#path9" transform="translate(0 0)"/>
</g>
</g>
<g>
<g data-source-text="9" fill="#dee4e3" transform="translate(822 41.292) rotate(0) scale(0.023999998)">
<use href="#path10" transform="translate(0 0)"/>
</g>
</g>
<g>
<g data-source-text="A" fill="#dee4e3" transform="translate(894 41.292) rotate(0) scale(0.023999998)">
<use href="#path11" transform="translate(0 0)"/>
</g>
</g>
<g>
<g data-source-text="B" fill="#dee4e3" transform="translate(966 41.292) rotate(0) scale(0.023999998)">
<use href="#path12" transform="translate(0 0)"/>
</g>
</g>
<g>
<g data-source-text="C" fill="#dee4e3" transform="translate(1038 41.292) rotate(0) scale(0.023999998)">
<use href="#path13" transform="translate(0 0)"/>
</g>
</g>
<g>
<g data-source-text="D" fill="#dee4e3" transform="translate(1110 41.292) rotate(0) scale(0.023999998)">
<use href="#path14" transform="translate(0 0)"/>
</g>
</g>
<g>
<g data-source-text="E" fill="#dee4e3" transform="translate(1182 41.292) rotate(0) scale(0.023999998)">
<use href="#path15" transform="translate(0 0)"/>
</g>
</g>
<g>
<g data-source-text="F" fill="#dee4e3" transform="translate(1254 41.292) rotate(0) scale(0.023999998)">
<use href="#path16" transform="translate(0 0)"/>
</g>
</g>
<g>
<g data-source-text="U+1E030" fill="#dee4e3" transform="translate(30 113.292) rotate(0) scale(0.023999998)">
<use href="#path17" transform="translate(0 0)"/>
<use href="#path18" transform="translate(500 0)"/>
<use href="#path2" transform="translate(1000 0)"/>
<use href="#path15" transform="translate(1500 0)"/>
<use href="#path1" transform="translate(2000 0)"/>
<use href="#path4" transform="translate(2500 0)"/>
<use href="#path1" transform="translate(3000 0)"/>
</g>
</g>
<g>
<g data-source-text="" fill="#dee4e3" transform="translate(168 118.584) rotate(0) scale(0.047999997)">
<use href="#path19" transform="translate(0 0)"/>
</g>
</g>
<g>
<g data-source-text="" fill="#dee4e3" transform="translate(240 118.584) rotate(0) scale(0.047999997)">
<use href="#path20" transform="translate(0 0)"/>
</g>
</g>
<g>
<g data-source-text="" fill="#dee4e3" transform="translate(312 118.584) rotate(0) scale(0.047999997)">
<use href="#path21" transform="translate(0 0)"/>
</g>
</g>
<g>
<g data-source-text="" fill="#dee4e3" transform="translate(384 118.584) rotate(0) scale(0.047999997)">
<use href="#path22" transform="translate(0 0)"/>
</g>
</g>
<g>
<g data-source-text="" fill="#dee4e3" transform="translate(456 118.584) rotate(0) scale(0.047999997)">
<use href="#path23" transform="translate(0 0)"/>
</g>
</g>
<g>
<g data-source-text="" fill="#dee4e3" transform="translate(528 118.584) rotate(0) scale(0.047999997)">
<use href="#path24" transform="translate(0 0)"/>
</g>
</g>
<g>
<g data-source-text="" fill="#dee4e3" transform="translate(600 118.584) rotate(0) scale(0.047999997)">
<use href="#path25" transform="translate(0 0)"/>
</g>
</g>
<g>
<g data-source-text="" fill="#dee4e3" transform="translate(672 118.584) rotate(0) scale(0.047999997)">
<use href="#path26" transform="translate(0 0)"/>
</g>
</g>
<g>
<g data-source-text="" fill="#dee4e3" transform="translate(744 118.584) rotate(0) scale(0.047999997)">
<use href="#path27" transform="translate(0 0)"/>
</g>
</g>
<g>
<g data-source-text="" fill="#dee4e3" transform="translate(816 118.584) rotate(0) scale(0.047999997)">
<use href="#path28" transform="translate(0 0)"/>
</g>
</g>
<g>
<g data-source-text="" fill="#dee4e3" transform="translate(888 118.584) rotate(0) scale(0.047999997)">
<use href="#path29" transform="translate(0 0)"/>
</g>
</g>
<g>
<g data-source-text="" fill="#dee4e3" transform="translate(960 118.584) rotate(0) scale(0.047999997)">
<use href="#path30" transform="translate(0 0)"/>
</g>
</g>
<g>
<g data-source-text="" fill="#dee4e3" transform="translate(1032 118.584) rotate(0) scale(0.047999997)">
<use href="#path31" transform="translate(0 0)"/>
</g>
</g>
<g>
<g data-source-text="" fill="#dee4e3" transform="translate(1104 118.584) rotate(0) scale(0.047999997)">
<use href="#path32" transform="translate(0 0)"/>
</g>
</g>
<g>
<g data-source-text="" fill="#dee4e3" transform="translate(1176 118.584) rotate(0) scale(0.047999997)">
<use href="#path33" transform="translate(0 0)"/>
</g>
</g>
<g>
<g data-source-text="" fill="#dee4e3" transform="translate(1248 118.584) rotate(0) scale(0.047999997)">
<use href="#path34" transform="translate(0 0)"/>
</g>
</g>
<g>
<g data-source-text="U+1E040" fill="#dee4e3" transform="translate(30 185.292) rotate(0) scale(0.023999998)">
<use href="#path17" transform="translate(0 0)"/>
<use href="#path18" transform="translate(500 0)"/>
<use href="#path2" transform="translate(1000 0)"/>
<use href="#path15" transform="translate(1500 0)"/>
<use href="#path1" transform="translate(2000 0)"/>
<use href="#path5" transform="translate(2500 0)"/>
<use href="#path1" transform="translate(3000 0)"/>
</g>
</g>
<g>
<g data-source-text="" fill="#dee4e3" transform="translate(168 190.584) rotate(0) scale(0.047999997)">
<use href="#path35" transform="translate(0 0)"/>
</g>
</g>
<g>
<g data-source-text="" fill="#dee4e3" transform="translate(240 190.584) rotate(0) scale(0.047999997)">
<use href="#path36" transform="translate(0 0)"/>
</g>
</g>
<g>
<g data-source-text="" fill="#dee4e3" transform="translate(312 190.584) rotate(0) scale(0.047999997)">
<use href="#path37" transform="translate(0 0)"/>
</g>
</g>
<g>
<g data-source-text="" fill="#dee4e3" transform="translate(384 190.584) rotate(0) scale(0.047999997)">
<use href="#path38" transform="translate(0 0)"/>
</g>
</g>
<g>
<g data-source-text="" fill="#dee4e3" transform="translate(456 190.584) rotate(0) scale(0.047999997)">
<use href="#path39" transform="translate(0 0)"/>
</g>
</g>
<g>
<g data-source-text="" fill="#dee4e3" transform="translate(528 190.584) rotate(0) scale(0.047999997)">
<use href="#path40" transform="translate(0 0)"/>
</g>
</g>
<g>
<g data-source-text="" fill="#dee4e3" transform="translate(600 190.584) rotate(0) scale(0.047999997)">
<use href="#path41" transform="translate(0 0)"/>
</g>
</g>
<g>
<g data-source-text="" fill="#dee4e3" transform="translate(672 190.584) rotate(0) scale(0.047999997)">
<use href="#path42" transform="translate(0 0)"/>
</g>
</g>
<g>
<g data-source-text="" fill="#dee4e3" transform="translate(744 190.584) rotate(0) scale(0.047999997)">
<use href="#path43" transform="translate(0 0)"/>
</g>
</g>
<g>
<g data-source-text="" fill="#dee4e3" transform="translate(816 190.584) rotate(0) scale(0.047999997)">
<use href="#path44" transform="translate(0 0)"/>
</g>
</g>
<g>
<g data-source-text="" fill="#dee4e3" transform="translate(888 190.584) rotate(0) scale(0.047999997)">
<use href="#path45" transform="translate(0 0)"/>
</g>
</g>
<g>
<g data-source-text="" fill="#dee4e3" transform="translate(960 190.584) rotate(0) scale(0.047999997)">
<use href="#path46" transform="translate(0 0)"/>
</g>
</g>
<g>
<g data-source-text="" fill="#dee4e3" transform="translate(1032 190.584) rotate(0) scale(0.047999997)">
<use href="#path47" transform="translate(0 0)"/>
</g>
</g>
<g>
<g data-source-text="" fill="#dee4e3" transform="translate(1104 190.584) rotate(0) scale(0.047999997)">
<use href="#path48" transform="translate(0 0)"/>
</g>
</g>
<g>
<g data-source-text="" fill="#dee4e3" transform="translate(1176 190.584) rotate(0) scale(0.047999997)">
<use href="#path49" transform="translate(0 0)"/>
</g>
</g>
<g>
<g data-source-text="" fill="#dee4e3" transform="translate(1248 190.584) rotate(0) scale(0.047999997)">
<use href="#path50" transform="translate(0 0)"/>
</g>
</g>
<g>
<g data-source-text="U+1E050" fill="#dee4e3" transform="translate(30 257.292) rotate(0) scale(0.023999998)">
<use href="#path17" transform="translate(0 0)"/>
<use href="#path18" transform="translate(500 0)"/>
<use href="#path2" transform="translate(1000 0)"/>
<use href="#path15" transform="translate(1500 0)"/>
<use href="#path1" transform="translate(2000 0)"/>
<use href="#path6" transform="translate(2500 0)"/>
<use href="#path1" transform="translate(3000 0)"/>
</g>
</g>
<g>
<g data-source-text="" fill="#dee4e3" transform="translate(168 262.584) rotate(0) scale(0.047999997)">
<use href="#path51" transform="translate(0 0)"/>
</g>
</g>
<g>
<g data-source-text="" fill="#dee4e3" transform="translate(240 262.584) rotate(0) scale(0.047999997)">
<use href="#path52" transform="translate(0 0)"/>
</g>
</g>
<g>
<g data-source-text="" fill="#dee4e3" transform="translate(312 262.584) rotate(0) scale(0.047999997)">
<use href="#path53" transform="translate(0 0)"/>
</g>
</g>
<g>
<g data-source-text="" fill="#dee4e3" transform="translate(384 262.584) rotate(0) scale(0.047999997)">
<use href="#path54" transform="translate(0 0)"/>
</g>
</g>
<g>
<g data-source-text="" fill="#dee4e3" transform="translate(456 262.584) rotate(0) scale(0.047999997)">
<use href="#path55" transform="translate(0 0)"/>
</g>
</g>
<g>
<g data-source-text="" fill="#dee4e3" transform="translate(528 262.584) rotate(0) scale(0.047999997)">
<use href="#path56" transform="translate(0 0)"/>
</g>
</g>
<g>
<g data-source-text="" fill="#dee4e3" transform="translate(600 262.584) rotate(0) scale(0.047999997)">
<use href="#path57" transform="translate(0 0)"/>
</g>
</g>
<g>
<g data-source-text="" fill="#dee4e3" transform="translate(672 262.584) rotate(0) scale(0.047999997)">
<use href="#path58" transform="translate(0 0)"/>
</g>
</g>
<g>
<g data-source-text="" fill="#dee4e3" transform="translate(744 262.584) rotate(0) scale(0.047999997)">
<use href="#path59" transform="translate(0 0)"/>
</g>
</g>
<g>
<g data-source-text="" fill="#dee4e3" transform="translate(816 262.584) rotate(0) scale(0.047999997)">
<use href="#path60" transform="translate(0 0)"/>
</g>
</g>
<g>
<g data-source-text="" fill="#dee4e3" transform="translate(888 262.584) rotate(0) scale(0.047999997)">
<use href="#path61" transform="translate(0 0)"/>
</g>
</g>
<g>
<g data-source-text="" fill="#dee4e3" transform="translate(960 262.584) rotate(0) scale(0.047999997)">
<use href="#path62" transform="translate(0 0)"/>
</g>
</g>
<g>
<g data-source-text="" fill="#dee4e3" transform="translate(1032 262.584) rotate(0) scale(0.047999997)">
<use href="#path63" transform="translate(0 0)"/>
</g>
</g>
<g>
<g data-source-text="" fill="#dee4e3" transform="translate(1104 262.584) rotate(0) scale(0.047999997)">
<use href="#path64" transform="translate(0 0)"/>
</g>
</g>
<g>
<g data-source-text="" fill="#dee4e3" transform="translate(1176 262.584) rotate(0) scale(0.047999997)">
<use href="#path65" transform="translate(0 0)"/>
</g>
</g>
<g>
<g data-source-text="" fill="#dee4e3" transform="translate(1248 262.584) rotate(0) scale(0.047999997)">
<use href="#path66" transform="translate(0 0)"/>
</g>
</g>
<g>
<g data-source-text="U+1E060" fill="#dee4e3" transform="translate(30 329.292) rotate(0) scale(0.023999998)">
<use href="#path17" transform="translate(0 0)"/>
<use href="#path18" transform="translate(500 0)"/>
<use href="#path2" transform="translate(1000 0)"/>
<use href="#path15" transform="translate(1500 0)"/>
<use href="#path1" transform="translate(2000 0)"/>
<use href="#path7" transform="translate(2500 0)"/>
<use href="#path1" transform="translate(3000 0)"/>
</g>
</g>
<g>
<g data-source-text="" fill="#dee4e3" transform="translate(168 334.584) rotate(0) scale(0.047999997)">
<use href="#path67" transform="translate(0 0)"/>
</g>
</g>
<g>
<g data-source-text="" fill="#dee4e3" transform="translate(240 334.584) rotate(0) scale(0.047999997)">
<use href="#path68" transform="translate(0 0)"/>
</g>
</g>
<g>
<g data-source-text="" fill="#dee4e3" transform="translate(312 334.584) rotate(0) scale(0.047999997)">
<use href="#path69" transform="translate(0 0)"/>
</g>
</g>
<g>
<g data-source-text="" fill="#dee4e3" transform="translate(384 334.584) rotate(0) scale(0.047999997)">
<use href="#path70" transform="translate(0 0)"/>
</g>
</g>
<g>
<g data-source-text="" fill="#dee4e3" transform="translate(456 334.584) rotate(0) scale(0.047999997)">
<use href="#path71" transform="translate(0 0)"/>
</g>
</g>
<g>
<g data-source-text="" fill="#dee4e3" transform="translate(528 334.584) rotate(0) scale(0.047999997)">
<use href="#path72" transform="translate(0 0)"/>
</g>
</g>
<g>
<g data-source-text="" fill="#dee4e3" transform="translate(600 334.584) rotate(0) scale(0.047999997)">
<use href="#path73" transform="translate(0 0)"/>
</g>
</g>
<g>
<g data-source-text="" fill="#dee4e3" transform="translate(672 334.584) rotate(0) scale(0.047999997)">
<use href="#path74" transform="translate(0 0)"/>
</g>
</g>
<g>
<g data-source-text="" fill="#dee4e3" transform="translate(744 334.584) rotate(0) scale(0.047999997)">
<use href="#path75" transform="translate(0 0)"/>
</g>
</g>
<g>
<g data-source-text="" fill="#dee4e3" transform="translate(816 334.584) rotate(0) scale(0.047999997)">
<use href="#path76" transform="translate(0 0)"/>
</g>
</g>
<g>
<g data-source-text="" fill="#dee4e3" transform="translate(888 334.584) rotate(0) scale(0.047999997)">
<use href="#path77" transform="translate(0 0)"/>
</g>
</g>
<g>
<g data-source-text="" fill="#dee4e3" transform="translate(960 334.584) rotate(0) scale(0.047999997)">
<use href="#path78" transform="translate(0 0)"/>
</g>
</g>
<g>
<g data-source-text="" fill="#dee4e3" transform="translate(1032 334.584) rotate(0) scale(0.047999997)">
<use href="#path79" transform="translate(0 0)"/>
</g>
</g>
<g>
<g data-source-text="" fill="#dee4e3" transform="translate(1104 334.584) rotate(0) scale(0.047999997)">
<use href="#path80" transform="translate(0 0)"/>
</g>
</g>
<g>
<g data-source-text="" fill="#dee4e340" transform="translate(1176 334.584) rotate(0) scale(0.047999997)">
<use href="#path81" transform="translate(0 0)"/>
</g>
</g>
<g>
<g data-source-text="" fill="#dee4e340" transform="translate(1248 334.584) rotate(0) scale(0.047999997)">
<use href="#path81" transform="translate(0 0)"/>
</g>
</g>
<g>
<g data-source-text="U+1E070" fill="#dee4e3" transform="translate(30 401.292) rotate(0) scale(0.023999998)">
<use href="#path17" transform="translate(0 0)"/>
<use href="#path18" transform="translate(500 0)"/>
<use href="#path2" transform="translate(1000 0)"/>
<use href="#path15" transform="translate(1500 0)"/>
<use href="#path1" transform="translate(2000 0)"/>
<use href="#path8" transform="translate(2500 0)"/>
<use href="#path1" transform="translate(3000 0)"/>
</g>
</g>
<g>
<g data-source-text="" fill="#dee4e340" transform="translate(168 406.584) rotate(0) scale(0.047999997)">
<use href="#path81" transform="translate(0 0)"/>
</g>
</g>
<g>
<g data-source-text="" fill="#dee4e340" transform="translate(240 406.584) rotate(0) scale(0.047999997)">
<use href="#path81" transform="translate(0 0)"/>
</g>
</g>
<g>
<g data-source-text="" fill="#dee4e340" transform="translate(312 406.584) rotate(0) scale(0.047999997)">
<use href="#path81" transform="translate(0 0)"/>
</g>
</g>
<g>
<g data-source-text="" fill="#dee4e340" transform="translate(384 406.584) rotate(0) scale(0.047999997)">
<use href="#path81" transform="translate(0 0)"/>
</g>
</g>
<g>
<g data-source-text="" fill="#dee4e340" transform="translate(456 406.584) rotate(0) scale(0.047999997)">
<use href="#path81" transform="translate(0 0)"/>
</g>
</g>
<g>
<g data-source-text="" fill="#dee4e340" transform="translate(528 406.584) rotate(0) scale(0.047999997)">
<use href="#path81" transform="translate(0 0)"/>
</g>
</g>
<g>
<g data-source-text="" fill="#dee4e340" transform="translate(600 406.584) rotate(0) scale(0.047999997)">
<use href="#path81" transform="translate(0 0)"/>
</g>
</g>
<g>
<g data-source-text="" fill="#dee4e340" transform="translate(672 406.584) rotate(0) scale(0.047999997)">
<use href="#path81" transform="translate(0 0)"/>
</g>
</g>
<g>
<g data-source-text="" fill="#dee4e340" transform="translate(744 406.584) rotate(0) scale(0.047999997)">
<use href="#path81" transform="translate(0 0)"/>
</g>
</g>
<g>
<g data-source-text="" fill="#dee4e340" transform="translate(816 406.584) rotate(0) scale(0.047999997)">
<use href="#path81" transform="translate(0 0)"/>
</g>
</g>
<g>
<g data-source-text="" fill="#dee4e340" transform="translate(888 406.584) rotate(0) scale(0.047999997)">
<use href="#path81" transform="translate(0 0)"/>
</g>
</g>
<g>
<g data-source-text="" fill="#dee4e340" transform="translate(960 406.584) rotate(0) scale(0.047999997)">
<use href="#path81" transform="translate(0 0)"/>
</g>
</g>
<g>
<g data-source-text="" fill="#dee4e340" transform="translate(1032 406.584) rotate(0) scale(0.047999997)">
<use href="#path81" transform="translate(0 0)"/>
</g>
</g>
<g>
<g data-source-text="" fill="#dee4e340" transform="translate(1104 406.584) rotate(0) scale(0.047999997)">
<use href="#path81" transform="translate(0 0)"/>
</g>
</g>
<g>
<g data-source-text="" fill="#dee4e340" transform="translate(1176 406.584) rotate(0) scale(0.047999997)">
<use href="#path81" transform="translate(0 0)"/>
</g>
</g>
<g>
<g data-source-text="" fill="#dee4e340" transform="translate(1248 406.584) rotate(0) scale(0.047999997)">
<use href="#path81" transform="translate(0 0)"/>
</g>
</g>
<g>
<g data-source-text="U+1E080" fill="#dee4e3" transform="translate(30 473.292) rotate(0) scale(0.023999998)">
<use href="#path17" transform="translate(0 0)"/>
<use href="#path18" transform="translate(500 0)"/>
<use href="#path2" transform="translate(1000 0)"/>
<use href="#path15" transform="translate(1500 0)"/>
<use href="#path1" transform="translate(2000 0)"/>
<use href="#path9" transform="translate(2500 0)"/>
<use href="#path1" transform="translate(3000 0)"/>
</g>
</g>
<g>
<g data-source-text="" fill="#dee4e340" transform="translate(168 478.584) rotate(0) scale(0.047999997)">
<use href="#path81" transform="translate(0 0)"/>
</g>
</g>
<g>
<g data-source-text="" fill="#dee4e340" transform="translate(240 478.584) rotate(0) scale(0.047999997)">
<use href="#path81" transform="translate(0 0)"/>
</g>
</g>
<g>
<g data-source-text="" fill="#dee4e340" transform="translate(312 478.584) rotate(0) scale(0.047999997)">
<use href="#path81" transform="translate(0 0)"/>
</g>
</g>
<g>
<g data-source-text="" fill="#dee4e340" transform="translate(384 478.584) rotate(0) scale(0.047999997)">
<use href="#path81" transform="translate(0 0)"/>
</g>
</g>
<g>
<g data-source-text="" fill="#dee4e340" transform="translate(456 478.584) rotate(0) scale(0.047999997)">
<use href="#path81" transform="translate(0 0)"/>
</g>
</g>
<g>
<g data-source-text="" fill="#dee4e340" transform="translate(528 478.584) rotate(0) scale(0.047999997)">
<use href="#path81" transform="translate(0 0)"/>
</g>
</g>
<g>
<g data-source-text="" fill="#dee4e340" transform="translate(600 478.584) rotate(0) scale(0.047999997)">
<use href="#path81" transform="translate(0 0)"/>
</g>
</g>
<g>
<g data-source-text="" fill="#dee4e340" transform="translate(672 478.584) rotate(0) scale(0.047999997)">
<use href="#path81" transform="translate(0 0)"/>
</g>
</g>
<g>
<g data-source-text="" fill="#dee4e340" transform="translate(744 478.584) rotate(0) scale(0.047999997)">
<use href="#path81" transform="translate(0 0)"/>
</g>
</g>
<g>
<g data-source-text="" fill="#dee4e340" transform="translate(816 478.584) rotate(0) scale(0.047999997)">
<use href="#path81" transform="translate(0 0)"/>
</g>
</g>
<g>
<g data-source-text="" fill="#dee4e340" transform="translate(888 478.584) rotate(0) scale(0.047999997)">
<use href="#path81" transform="translate(0 0)"/>
</g>
</g>
<g>
<g data-source-text="" fill="#dee4e340" transform="translate(960 478.584) rotate(0) scale(0.047999997)">
<use href="#path81" transform="translate(0 0)"/>
</g>
</g>
<g>
<g data-source-text="" fill="#dee4e340" transform="translate(1032 478.584) rotate(0) scale(0.047999997)">
<use href="#path81" transform="translate(0 0)"/>
</g>
</g>
<g>
<g data-source-text="" fill="#dee4e340" transform="translate(1104 478.584) rotate(0) scale(0.047999997)">
<use href="#path81" transform="translate(0 0)"/>
</g>
</g>
<g>
<g data-source-text="" fill="#dee4e340" transform="translate(1176 478.584) rotate(0) scale(0.047999997)">
<use href="#path81" transform="translate(0 0)"/>
</g>
</g>
<g>
<g data-source-text="" fill="#03aee9" transform="translate(1248 478.584) rotate(0) scale(0.047999997)">
<use href="#path82" transform="translate(0 0)"/>
</g>
</g>
<g>
<g data-source-text="" fill="#dee4e3" transform="translate(1248 478.584) rotate(0) scale(0.047999997)">
<use href="#path83" transform="translate(500 0)"/>
</g>
</g>
</svg>