<?xml version="1.0" encoding="UTF-8" standalone="no"?>
<svg height="1224" viewBox="0 0 1296 1224" width="1296" xmlns="http://www.w3.org/2000/svg">
<defs>
<path d="M 250 8 Q 223 8 196 3 Q 169 -2 145 -15 Q 121 -28 102.5 -48.5 Q 84 -69 72.5 -94 Q 61 -119 56.5 -146 Q 52 -173 52 -200 L 52 -535 Q 52 -562 56.5 -589 Q 61 -616 72.5 -641 Q 84 -666 102.5 -686.5 Q 121 -707 145 -720 Q 169 -733 196 -738 Q 223 -743 250 -743 Q 277 -743 304 -738 Q 331 -733 355 -720 Q 379 -707 397.5 -686.5 Q 416 -666 427.5 -641 Q 439 -616 443.5 -589 Q 448 -562 448 -535 L 448 -200 Q 448 -173 443.5 -146 Q 439 -119 427.5 -94 Q 416 -69 397.5 -48.5 Q 379 -28 355 -15 Q 331 -2 304 3 Q 277 8 250 8 Z M 152 -338 L 348 -493 L 348 -535 Q 348 -557 343 -579 Q 338 -601 325.5 -618.5 Q 313 -636 292.5 -645.5 Q 272 -655 250 -655 Q 228 -655 207.5 -645.5 Q 187 -636 174.5 -618.5 Q 162 -601 157 -579 Q 152 -557 152 -535 Z M 250 -80 Q 272 -80 292.5 -89.5 Q 313 -99 325.5 -116.5 Q 338 -134 343 -156 Q 348 -178 348 -200 L 348 -397 L 152 -242 L 152 -200 Q 152 -178 157 -156 Q 162 -134 174.5 -116.5 Q 187 -99 207.5 -89.5 Q 228 -80 250 -80 Z " id="path1"/>
<path d="M 230 0 L 230 -632 L 110 -528 L 55 -584 L 230 -735 L 330 -735 L 330 0 Z " id="path2"/>
<path d="M 60 0 L 60 -1 Q 60 -27 61 -54 Q 62 -81 65.5 -107 Q 69 -133 77 -158.5 Q 85 -184 96.5 -208 Q 108 -232 123 -253.5 Q 138 -275 156 -294.5 Q 174 -314 194 -331 Q 214 -348 235.5 -364 Q 257 -380 277.5 -397 Q 298 -414 313 -435.5 Q 328 -457 336 -483 Q 344 -509 344 -535 Q 344 -557 339.5 -578 Q 335 -599 323.5 -617 Q 312 -635 292 -645 Q 272 -655 251 -655 Q 231 -655 212.5 -647.5 Q 194 -640 181.5 -625 Q 169 -610 163.5 -591 Q 158 -572 158 -552 L 158 -548 L 58 -548 L 58 -555 Q 58 -581 63.5 -606 Q 69 -631 81 -653 Q 93 -675 111.5 -693 Q 130 -711 152.5 -722.5 Q 175 -734 200.5 -738.5 Q 226 -743 251 -743 Q 278 -743 304.5 -737.5 Q 331 -732 354.5 -719 Q 378 -706 396 -685.5 Q 414 -665 425 -640.5 Q 436 -616 440 -589 Q 444 -562 444 -535 Q 444 -501 435 -468 Q 426 -435 407.5 -406 Q 389 -377 364 -353.5 Q 339 -330 312.5 -308.5 Q 286 -287 261 -264 Q 236 -241 216 -213 Q 196 -185 183 -153.5 Q 170 -122 165 -88 L 440 -88 L 440 0 Z " id="path3"/>
<path d="M 253 8 Q 227 8 201 4 Q 175 -0 151 -11.5 Q 127 -23 107.5 -40.5 Q 88 -58 75.5 -81 Q 63 -104 56.5 -129.5 Q 50 -155 50 -181 L 50 -187 L 150 -187 L 150 -184 Q 150 -163 157 -143 Q 164 -123 178 -108 Q 192 -93 212 -86.5 Q 232 -80 253 -80 Q 275 -80 296 -88.5 Q 317 -97 330.5 -114.5 Q 344 -132 350 -154 Q 356 -176 356 -198 Q 356 -217 352 -235.5 Q 348 -254 339 -271 Q 330 -288 316.5 -301 Q 303 -314 286 -322 Q 269 -330 250 -332 Q 231 -334 212 -334 L 212 -422 Q 229 -422 246 -424 Q 263 -426 278.5 -433 Q 294 -440 306 -452.5 Q 318 -465 325.5 -480.5 Q 333 -496 336.5 -513 Q 340 -530 340 -547 Q 340 -566 335.5 -585.5 Q 331 -605 320 -621.5 Q 309 -638 291 -646.5 Q 273 -655 253 -655 Q 234 -655 216 -647 Q 198 -639 187 -624 Q 176 -609 171 -590 Q 166 -571 166 -553 L 166 -548 L 66 -548 L 66 -556 Q 66 -581 71.5 -605.5 Q 77 -630 88 -652 Q 99 -674 116.5 -692.5 Q 134 -711 156.5 -722.5 Q 179 -734 203.5 -738.5 Q 228 -743 253 -743 Q 278 -743 303.5 -738 Q 329 -733 351 -721 Q 373 -709 390.5 -690 Q 408 -671 419 -648 Q 430 -625 435 -600 Q 440 -575 440 -550 Q 440 -524 434 -498.5 Q 428 -473 416 -450.5 Q 404 -428 385 -409.5 Q 366 -391 343 -379 Q 370 -368 391.5 -348.5 Q 413 -329 427.5 -304.5 Q 442 -280 449 -252 Q 456 -224 456 -196 Q 456 -168 450 -141.5 Q 444 -115 432 -91 Q 420 -67 401 -47 Q 382 -27 358 -14.5 Q 334 -2 307 3 Q 280 8 253 8 Z " id="path4"/>
<path d="M 282 0 L 282 -188 L 52 -188 L 52 -275 L 276 -735 L 377 -735 L 152 -275 L 282 -275 L 282 -435 L 383 -435 L 383 -275 L 440 -275 L 440 -188 L 383 -188 L 383 0 Z " id="path5"/>
<path d="M 252 8 Q 227 8 202.5 3.5 Q 178 -1 155.5 -12 Q 133 -23 114.5 -41 Q 96 -59 84 -80.5 Q 72 -102 65.5 -126.5 Q 59 -151 58 -176 L 159 -176 Q 160 -158 166.5 -139.5 Q 173 -121 185.5 -107 Q 198 -93 216 -86.5 Q 234 -80 252 -80 Q 269 -80 285 -87 Q 301 -94 312.5 -107 Q 324 -120 330.5 -135.5 Q 337 -151 341 -167.5 Q 345 -184 346.5 -201 Q 348 -218 348 -235 Q 348 -252 346.5 -269 Q 345 -286 341.5 -302.5 Q 338 -319 331.5 -334.5 Q 325 -350 314.5 -363 Q 304 -376 288 -383.5 Q 272 -391 256 -391 Q 240 -391 224 -387 Q 208 -383 195.5 -373.5 Q 183 -364 176 -349.5 Q 169 -335 168 -319 L 68 -319 L 68 -735 L 421 -735 L 421 -647 L 168 -647 L 168 -464 Q 189 -472 211 -475 Q 233 -478 256 -478 Q 285 -478 313.5 -470.5 Q 342 -463 365.5 -445.5 Q 389 -428 405.5 -403 Q 422 -378 431.5 -350.5 Q 441 -323 444.5 -294 Q 448 -265 448 -235 Q 448 -206 444.5 -176.5 Q 441 -147 431 -119 Q 421 -91 404.5 -66.5 Q 388 -42 364 -24.5 Q 340 -7 311 0.5 Q 282 8 252 8 Z " id="path6"/>
<path d="M 250 8 Q 221 8 192.5 1.5 Q 164 -5 140 -21 Q 116 -37 98.5 -60.5 Q 81 -84 70.5 -111 Q 60 -138 56 -166.5 Q 52 -195 52 -224 Q 52 -268 59.5 -311 Q 67 -354 81 -395.5 Q 95 -437 113 -477 Q 131 -517 150 -556 L 238 -735 L 347 -735 L 240 -517 Q 228 -492 216 -467 Q 204 -442 194 -416 Q 212 -436 238.5 -446 Q 265 -456 292 -456 Q 318 -456 343.5 -447 Q 369 -438 387.5 -419.5 Q 406 -401 418 -377 Q 430 -353 436.5 -328 Q 443 -303 445.5 -276.5 Q 448 -250 448 -224 Q 448 -195 444 -166.5 Q 440 -138 429.5 -111 Q 419 -84 401.5 -60.5 Q 384 -37 360 -21 Q 336 -5 307.5 1.5 Q 279 8 250 8 Z M 250 -80 Q 266 -80 282 -85.5 Q 298 -91 309.5 -102.5 Q 321 -114 328.5 -129 Q 336 -144 340.5 -159.5 Q 345 -175 346.5 -191.5 Q 348 -208 348 -224 Q 348 -240 346.5 -256.5 Q 345 -273 340.5 -289 Q 336 -305 328.5 -319.5 Q 321 -334 309.5 -345.5 Q 298 -357 282 -362.5 Q 266 -368 250 -368 Q 235 -368 221 -363.5 Q 207 -359 195.5 -349.5 Q 184 -340 176 -327.5 Q 168 -315 163.5 -301 Q 159 -287 156.5 -272.5 Q 154 -258 153 -243 Q 153 -238 152.5 -233.5 Q 152 -229 152 -224 Q 152 -208 153.5 -191.5 Q 155 -175 159.5 -159.5 Q 164 -144 171.5 -129 Q 179 -114 190.5 -102.5 Q 202 -91 218 -85.5 Q 234 -80 250 -80 Z " id="path7"/>
<path d="M 138 0 L 336 -647 L 60 -647 L 60 -735 L 440 -735 L 440 -647 L 242 0 Z " id="path8"/>
<path d="M 250 8 Q 225 8 200 4 Q 175 -0 152 -10 Q 129 -20 109.5 -37 Q 90 -54 77.5 -75.5 Q 65 -97 58.5 -121.5 Q 52 -146 52 -172 Q 52 -203 61.5 -232.5 Q 71 -262 88 -288.5 Q 105 -315 127 -336.5 Q 149 -358 174 -378 Q 152 -396 132.5 -417 Q 113 -438 98.5 -462.5 Q 84 -487 76 -514.5 Q 68 -542 68 -570 Q 68 -594 73.5 -617.5 Q 79 -641 90.5 -661.5 Q 102 -682 119.5 -698.5 Q 137 -715 158 -725 Q 179 -735 202.5 -739 Q 226 -743 250 -743 Q 274 -743 297.5 -739 Q 321 -735 342 -725 Q 363 -715 380.5 -698.5 Q 398 -682 409.5 -661.5 Q 421 -641 426.5 -617.5 Q 432 -594 432 -570 Q 432 -542 424 -514.5 Q 416 -487 401.5 -462.5 Q 387 -438 367.5 -417 Q 348 -396 326 -378 Q 351 -358 373 -336.5 Q 395 -315 412 -288.5 Q 429 -262 438.5 -232.5 Q 448 -203 448 -172 Q 448 -146 441.5 -121.5 Q 435 -97 422.5 -75.5 Q 410 -54 390.5 -37 Q 371 -20 348 -10 Q 325 -0 300 4 Q 275 8 250 8 Z M 250 -434 Q 266 -447 280.5 -461.5 Q 295 -476 306.5 -493 Q 318 -510 325 -529.5 Q 332 -549 332 -569 Q 332 -586 327 -602.5 Q 322 -619 310.5 -631.5 Q 299 -644 283 -649.5 Q 267 -655 250 -655 Q 233 -655 217 -649.5 Q 201 -644 189.5 -631.5 Q 178 -619 173 -602.5 Q 168 -586 168 -569 Q 168 -549 175 -529.5 Q 182 -510 193.5 -493 Q 205 -476 219.5 -461.5 Q 234 -447 250 -434 Z M 250 -80 Q 269 -80 288 -85.5 Q 307 -91 320.5 -104 Q 334 -117 341 -135.5 Q 348 -154 348 -173 Q 348 -196 339.5 -217.5 Q 331 -239 317 -257.5 Q 303 -276 285.5 -291 Q 268 -306 250 -320 Q 232 -306 214.5 -291 Q 197 -276 183 -257.5 Q 169 -239 160.5 -217.5 Q 152 -196 152 -173 Q 152 -154 159 -135.5 Q 166 -117 179.5 -104 Q 193 -91 212 -85.5 Q 231 -80 250 -80 Z " id="path9"/>
<path d="M 262 0 L 153 0 L 260 -218 Q 272 -243 284 -268 Q 296 -293 306 -319 Q 288 -299 261.5 -289 Q 235 -279 208 -279 Q 182 -279 156.5 -288 Q 131 -297 112.5 -315.5 Q 94 -334 82 -358 Q 70 -382 63.5 -407 Q 57 -432 54.5 -458.5 Q 52 -485 52 -511 Q 52 -540 56 -568.5 Q 60 -597 70.5 -624 Q 81 -651 98.5 -674.5 Q 116 -698 140 -714 Q 164 -730 192.5 -736.5 Q 221 -743 250 -743 Q 279 -743 307.5 -736.5 Q 336 -730 360 -714 Q 384 -698 401.5 -674.5 Q 419 -651 429.5 -624 Q 440 -597 444 -568.5 Q 448 -540 448 -511 Q 448 -467 440.5 -424 Q 433 -381 419 -339.5 Q 405 -298 387 -258 Q 369 -218 350 -179 Z M 250 -367 Q 265 -367 279 -371.5 Q 293 -376 304.5 -385.5 Q 316 -395 324 -407.5 Q 332 -420 336.5 -434 Q 341 -448 343.5 -462.5 Q 346 -477 347 -492 Q 347 -497 347.5 -501.5 Q 348 -506 348 -511 Q 348 -527 346.5 -543.5 Q 345 -560 340.5 -575.5 Q 336 -591 328.5 -606 Q 321 -621 309.5 -632.5 Q 298 -644 282 -649.5 Q 266 -655 250 -655 Q 234 -655 218 -649.5 Q 202 -644 190.5 -632.5 Q 179 -621 171.5 -606 Q 164 -591 159.5 -575.5 Q 155 -560 153.5 -543.5 Q 152 -527 152 -511 Q 152 -495 153.5 -478.5 Q 155 -462 159.5 -446 Q 164 -430 171.5 -415.5 Q 179 -401 190.5 -389.5 Q 202 -378 218 -372.5 Q 234 -367 250 -367 Z " id="path10"/>
<path d="M 39 0 L 53 -70 L 192 -735 L 308 -735 L 461 0 L 359 0 L 326 -172 L 174 -172 L 141 0 Z M 310 -260 L 267 -490 Q 263 -513 258.5 -536 Q 254 -559 250 -582 Q 246 -559 241.5 -536 Q 237 -513 233 -490 L 190 -260 Z " id="path11"/>
<path d="M 60 0 L 60 -735 L 235 -735 Q 261 -735 287 -730.5 Q 313 -726 336.5 -714 Q 360 -702 378.5 -682.5 Q 397 -663 408.5 -639.5 Q 420 -616 424.5 -590 Q 429 -564 429 -538 Q 429 -515 425.5 -492 Q 422 -469 411.5 -448.5 Q 401 -428 384.5 -411 Q 368 -394 348 -383 Q 373 -373 394.5 -355.5 Q 416 -338 430.5 -314.5 Q 445 -291 450.5 -264 Q 456 -237 456 -210 Q 456 -181 450.5 -152.5 Q 445 -124 431 -98.5 Q 417 -73 395.5 -53.5 Q 374 -34 347.5 -21.5 Q 321 -9 292.5 -4.5 Q 264 -0 235 0 Z M 160 -424 L 235 -424 Q 256 -424 275.5 -432.5 Q 295 -441 307.5 -457.5 Q 320 -474 324.5 -494.5 Q 329 -515 329 -536 Q 329 -557 324.5 -577.5 Q 320 -598 307.5 -614.5 Q 295 -631 275.5 -639 Q 256 -647 235 -647 L 160 -647 Z M 160 -88 L 235 -88 Q 251 -88 267.5 -91 Q 284 -94 298.5 -101.5 Q 313 -109 324.5 -121 Q 336 -133 343 -148 Q 350 -163 353 -179 Q 356 -195 356 -212 Q 356 -228 353 -244.5 Q 350 -261 343 -276 Q 336 -291 324.5 -303 Q 313 -315 298.5 -322.5 Q 284 -330 267.5 -333 Q 251 -336 235 -336 L 160 -336 Z " id="path12"/>
<path d="M 247 8 Q 220 8 193 3 Q 166 -2 142.5 -15.5 Q 119 -29 101 -49.5 Q 83 -70 71.5 -94.5 Q 60 -119 56 -146 Q 52 -173 52 -200 L 52 -535 Q 52 -562 56 -589 Q 60 -616 71.5 -640.5 Q 83 -665 101 -685.5 Q 119 -706 142.5 -719.5 Q 166 -733 193 -738 Q 220 -743 247 -743 Q 273 -743 298 -738.5 Q 323 -734 346 -723 Q 369 -712 387.5 -694 Q 406 -676 418 -653.5 Q 430 -631 436 -606 Q 442 -581 442 -555 L 442 -548 L 342 -548 L 342 -552 Q 342 -572 336 -591.5 Q 330 -611 317.5 -626 Q 305 -641 286 -648 Q 267 -655 247 -655 Q 225 -655 205 -645.5 Q 185 -636 173 -618 Q 161 -600 156.5 -578.5 Q 152 -557 152 -535 L 152 -200 Q 152 -178 156.5 -156.5 Q 161 -135 173 -117 Q 185 -99 205 -89.5 Q 225 -80 247 -80 Q 267 -80 286 -87 Q 305 -94 317.5 -109 Q 330 -124 336 -143.5 Q 342 -163 342 -183 L 342 -187 L 442 -187 L 442 -180 Q 442 -154 436 -129 Q 430 -104 418 -81.5 Q 406 -59 387.5 -41 Q 369 -23 346 -12 Q 323 -1 298 3.5 Q 273 8 247 8 Z " id="path13"/>
<path d="M 60 0 L 60 -735 L 220 -735 Q 250 -735 280 -730 Q 310 -725 337 -712 Q 364 -699 386.5 -678.5 Q 409 -658 423 -631.5 Q 437 -605 442.5 -575 Q 448 -545 448 -515 L 448 -220 Q 448 -190 442.5 -160 Q 437 -130 423 -103.5 Q 409 -77 386.5 -56.5 Q 364 -36 337 -23 Q 310 -10 280 -5 Q 250 -0 220 0 Z M 160 -88 L 220 -88 Q 237 -88 254.5 -91 Q 272 -94 287.5 -102.5 Q 303 -111 315 -124 Q 327 -137 334.5 -152.5 Q 342 -168 345 -185.5 Q 348 -203 348 -220 L 348 -515 Q 348 -532 345 -549.5 Q 342 -567 334.5 -582.5 Q 327 -598 315 -611 Q 303 -624 287.5 -632.5 Q 272 -641 254.5 -644 Q 237 -647 220 -647 L 160 -647 Z " id="path14"/>
<path d="M 68 0 L 68 -735 L 440 -735 L 440 -647 L 168 -647 L 168 -426 L 383 -426 L 383 -338 L 168 -338 L 168 -88 L 440 -88 L 440 0 Z " id="path15"/>
<path d="M 90 0 L 90 -735 L 440 -735 L 440 -647 L 190 -647 L 190 -426 L 383 -426 L 383 -338 L 190 -338 L 190 0 Z " id="path16"/>
<path d="M 250 8 Q 223 8 196.5 2.5 Q 170 -3 147 -16.5 Q 124 -30 106.5 -50.5 Q 89 -71 78.5 -95.5 Q 68 -120 64 -146.5 Q 60 -173 60 -200 L 60 -735 L 160 -735 L 160 -200 Q 160 -186 161.5 -172 Q 163 -158 167.5 -144.5 Q 172 -131 179.5 -118.5 Q 187 -106 197.5 -97 Q 208 -88 222 -84 Q 236 -80 250 -80 Q 264 -80 278 -84 Q 292 -88 302.5 -97 Q 313 -106 320.5 -118.5 Q 328 -131 332.5 -144.5 Q 337 -158 338.5 -172 Q 340 -186 340 -200 L 340 -735 L 440 -735 L 440 -200 Q 440 -173 436 -146.5 Q 432 -120 421.5 -95.5 Q 411 -71 393.5 -50.5 Q 376 -30 353 -16.5 Q 330 -3 303.5 2.5 Q 277 8 250 8 Z " id="path17"/>
<path d="M 296 -142 L 204 -142 L 204 -300 L 60 -300 L 60 -380 L 204 -380 L 204 -538 L 296 -538 L 296 -380 L 440 -380 L 440 -300 L 296 -300 Z " id="path18"/>
<path d="M 64 0 L 64 -735 L 436 -735 L 436 0 Z M 104 -333 L 394 -695 L 300 -695 L 104 -450 Z M 104 -489 L 269 -695 L 175 -695 L 104 -606 Z M 104 -645 L 144 -695 L 104 -695 Z M 104 -176 L 396 -543 L 396 -660 L 104 -294 Z M 104 -40 L 119 -40 L 396 -386 L 396 -504 L 104 -137 Z M 150 -40 L 244 -40 L 396 -230 L 396 -347 Z M 275 -40 L 369 -40 L 396 -74 L 396 -191 Z " id="path19"/>
<path d="M 177 -629 L 106 -629 Q 106 -657 115.5 -684.5 Q 125 -712 145.5 -731 Q 166 -750 194 -758 Q 222 -766 250 -766 Q 278 -766 306 -758 Q 334 -750 354.5 -731 Q 375 -712 384.5 -684.5 Q 394 -657 394 -629 L 323 -629 Q 323 -644 319 -658.5 Q 315 -673 304.5 -683.5 Q 294 -694 279.5 -698.5 Q 265 -703 250 -703 Q 235 -703 220.5 -698.5 Q 206 -694 195.5 -683.5 Q 185 -673 181 -658.5 Q 177 -644 177 -629 Z M 250 -575 Q 239 -575 228.5 -578 Q 218 -581 210 -589 Q 202 -597 199 -607.5 Q 196 -618 196 -629 Q 196 -640 199 -650.5 Q 202 -661 210 -669 Q 218 -677 228.5 -680.5 Q 239 -684 250 -684 Q 261 -684 271.5 -680.5 Q 282 -677 290 -669 Q 298 -661 301 -650.5 Q 304 -640 304 -629 Q 304 -618 301 -607.5 Q 298 -597 290 -589 Q 282 -581 271.5 -578 Q 261 -575 250 -575 Z " id="path20"/>
<path d="M 250 4 Q 239 4 228.5 0.5 Q 218 -3 210 -11 Q 202 -19 199 -29.5 Q 196 -40 196 -51 Q 196 -62 199 -72.5 Q 202 -83 210 -91 Q 218 -99 228.5 -102 Q 239 -105 250 -105 Q 261 -105 271.5 -102 Q 282 -99 290 -91 Q 298 -83 301 -72.5 Q 304 -62 304 -51 Q 304 -40 301 -29.5 Q 298 -19 290 -11 Q 282 -3 271.5 0.5 Q 261 4 250 4 Z M 250 86 Q 222 86 194 78 Q 166 70 145.5 51 Q 125 32 115.5 4.5 Q 106 -23 106 -51 L 177 -51 Q 177 -36 181 -21.5 Q 185 -7 195.5 3.5 Q 206 14 220.5 18.5 Q 235 23 250 23 Q 265 23 279.5 18.5 Q 294 14 304.5 3.5 Q 315 -7 319 -21.5 Q 323 -36 323 -51 L 394 -51 Q 394 -23 384.5 4.5 Q 375 32 354.5 51 Q 334 70 306 78 Q 278 86 250 86 Z " id="path21"/>
<path d="M 64 -375 L 64 -499 L 162 -499 Q 167 -514 170 -529.5 Q 173 -545 173 -561 Q 173 -577 170 -592.5 Q 167 -608 162 -623 L 64 -623 L 64 -747 L 188 -747 L 188 -649 Q 203 -644 218.5 -641.5 Q 234 -639 250 -639 Q 266 -639 281.5 -641.5 Q 297 -644 312 -649 L 312 -747 L 436 -747 L 436 -623 L 338 -623 Q 333 -608 330.5 -592.5 Q 328 -577 328 -561 Q 328 -545 330.5 -529.5 Q 333 -514 338 -499 L 436 -499 L 436 -375 L 312 -375 L 312 -473 Q 297 -478 281.5 -481 Q 266 -484 250 -484 Q 234 -484 218.5 -481 Q 203 -478 188 -473 L 188 -375 Z " id="path22"/>
<path d="M 64 69 L 64 -749 L 130 -749 L 130 -448 Q 139 -451 148.5 -453 Q 158 -455 167 -455 Q 184 -455 201 -448.5 Q 218 -442 230 -429 L 230 -749 L 296 -749 L 296 -448 Q 305 -451 314.5 -453 Q 324 -455 333 -455 Q 354 -455 372.5 -445.5 Q 391 -436 404 -420 Q 417 -404 424.5 -385 Q 432 -366 436.5 -346 Q 441 -326 442.5 -305.5 Q 444 -285 444 -265 Q 444 -230 436.5 -196.5 Q 429 -163 413.5 -132.5 Q 398 -102 376 -75.5 Q 354 -49 330 -24.5 Q 306 0 281 23.5 Q 256 47 230 69 L 230 -103 Q 214 -78 194 -55.5 Q 174 -33 152.5 -12 Q 131 9 109 29.5 Q 87 50 64 69 Z M 130 -77 Q 148 -96 164 -117 Q 180 -138 191 -162 Q 202 -186 207 -212 Q 212 -238 212 -265 Q 212 -274 211.5 -283 Q 211 -292 210.5 -301.5 Q 210 -311 209 -320 Q 208 -329 206 -338 Q 204 -347 201.5 -356 Q 199 -365 194.5 -373.5 Q 190 -382 183 -388.5 Q 176 -395 167 -395 Q 155 -395 145 -388 Q 135 -381 130 -370 Z M 296 -77 Q 315 -96 331 -117 Q 347 -138 357.5 -162 Q 368 -186 373 -212 Q 378 -238 378 -265 Q 378 -274 377.5 -283 Q 377 -292 376.5 -301.5 Q 376 -311 375 -320 Q 374 -329 372 -338 Q 370 -347 367.5 -356 Q 365 -365 361 -373.5 Q 357 -382 349.5 -388.5 Q 342 -395 333 -395 Q 321 -395 311 -388 Q 301 -381 296 -370 Z " id="path23"/>
<path d="M 90 69 L 90 -774 L 34 -711 L -6 -752 L 125 -882 L 255 -752 L 216 -711 L 159 -774 L 159 -443 Q 180 -454 203 -460 Q 226 -466 250 -466 Q 273 -466 296 -461.5 Q 319 -457 339.5 -445.5 Q 360 -434 375.5 -416.5 Q 391 -399 401 -378 Q 411 -357 414.5 -334 Q 418 -311 418 -287 Q 418 -245 403.5 -204.5 Q 389 -164 362 -131 Q 335 -98 301.5 -72 Q 268 -46 232.5 -23 Q 197 0 161 23 Q 125 46 90 69 Z M 159 -49 Q 194 -70 227.5 -92 Q 261 -114 288.5 -143 Q 316 -172 332.5 -209.5 Q 349 -247 349 -287 Q 349 -309 344 -330.5 Q 339 -352 326 -369 Q 313 -386 292.5 -394.5 Q 272 -403 250 -403 Q 224 -403 200 -392 Q 176 -381 159 -361 Z " id="path24"/>
<path d="M 125 202 L -6 72 L 34 31 L 90 94 L 90 -749 L 159 -749 L 159 -443 Q 180 -454 203 -460 Q 226 -466 250 -466 Q 273 -466 296 -461.5 Q 319 -457 339.5 -445.5 Q 360 -434 375.5 -416.5 Q 391 -399 401 -378 Q 411 -357 414.5 -334 Q 418 -311 418 -287 Q 418 -252 408 -217.5 Q 398 -183 378.5 -153.5 Q 359 -124 332.5 -99.5 Q 306 -75 277.5 -54.5 Q 249 -34 219 -14.5 Q 189 5 159 24 L 159 94 L 216 31 L 255 72 Z M 159 -49 Q 194 -70 227.5 -92 Q 261 -114 288.5 -143 Q 316 -172 332.5 -209.5 Q 349 -247 349 -287 Q 349 -309 344 -330.5 Q 339 -352 326 -369 Q 313 -386 292.5 -394.5 Q 272 -403 250 -403 Q 224 -403 200 -392 Q 176 -381 159 -361 Z " id="path25"/>
<path d="M 99 -118 L 99 -774 L 43 -711 L 3 -752 L 134 -882 L 264 -752 L 225 -711 L 168 -774 L 168 -132 Z M 332 69 L 332 -164 L 168 -132 L 168 -196 L 332 -228 L 332 -484 L 168 -452 L 168 -516 L 332 -548 L 401 -562 L 401 69 Z " id="path26"/>
<path d="M 99 -118 L 99 -749 L 168 -749 L 168 -132 Z M 366 202 L 236 72 L 275 31 L 332 94 L 332 -164 L 168 -132 L 168 -196 L 332 -228 L 332 -484 L 168 -452 L 168 -516 L 332 -548 L 401 -562 L 401 94 L 457 31 L 497 72 Z " id="path27"/>
<path d="M 168 99 L 99 99 L 99 -111 L 64 -104 L 64 -174 L 99 -181 L 99 -438 L 64 -431 L 64 -501 L 99 -508 L 99 -719 L 168 -719 L 168 -522 L 332 -555 L 332 -774 L 275 -711 L 236 -752 L 366 -882 L 497 -752 L 457 -711 L 401 -774 L 401 -569 L 436 -576 L 436 -506 L 401 -499 L 401 -242 L 436 -249 L 436 -179 L 401 -172 L 401 39 L 332 39 L 332 -158 L 168 -125 Z M 168 -195 L 332 -228 L 332 -485 L 168 -452 Z " id="path28"/>
<path d="M 366 202 L 236 72 L 275 31 L 332 94 L 332 -158 L 168 -125 L 168 99 L 99 99 L 99 -111 L 64 -104 L 64 -174 L 99 -181 L 99 -438 L 64 -431 L 64 -501 L 99 -508 L 99 -719 L 168 -719 L 168 -522 L 332 -555 L 332 -779 L 401 -779 L 401 -569 L 436 -576 L 436 -506 L 401 -499 L 401 -242 L 436 -249 L 436 -179 L 401 -172 L 401 94 L 457 31 L 497 72 Z M 168 -195 L 332 -228 L 332 -485 L 168 -452 Z " id="path29"/>
<path d="M 215 69 L 215 -134 L 64 -104 L 64 -174 L 215 -204 L 215 -462 L 64 -431 L 64 -501 L 215 -532 L 215 -749 L 285 -749 L 285 -546 L 436 -576 L 436 -506 L 285 -476 L 285 -218 L 436 -249 L 436 -179 L 285 -148 L 285 69 Z " id="path30"/>
<path d="M 410 69 Q 375 46 339 23 Q 303 0 267.5 -23 Q 232 -46 198.5 -72 Q 165 -98 138 -131 Q 111 -164 96.5 -204.5 Q 82 -245 82 -287 Q 82 -311 85.5 -334 Q 89 -357 99 -378 Q 109 -399 124.5 -416.5 Q 140 -434 160.5 -445.5 Q 181 -457 204 -461.5 Q 227 -466 250 -466 Q 274 -466 297 -460 Q 320 -454 341 -443 L 341 -749 L 410 -749 Z M 341 -49 L 341 -361 Q 324 -381 300 -392 Q 276 -403 250 -403 Q 228 -403 207.5 -394.5 Q 187 -386 174 -369 Q 161 -352 156 -330.5 Q 151 -309 151 -287 Q 151 -247 167.5 -209.5 Q 184 -172 211.5 -143 Q 239 -114 272.5 -92 Q 306 -70 341 -49 Z " id="path31"/>
<path d="M 111 -323 L 171 -687 L 242 -687 L 230 -616 Q 238 -632 248.5 -646 Q 259 -660 273 -670.5 Q 287 -681 304 -687 Q 321 -693 339 -693 Q 354 -693 368.5 -688 Q 383 -683 392 -671.5 Q 401 -660 404.5 -645 Q 408 -630 408 -615 Q 408 -606 407 -597 Q 406 -588 405 -579 L 335 -579 Q 336 -583 336 -587.5 Q 336 -592 336 -596 Q 336 -602 335 -608.5 Q 334 -615 330.5 -620 Q 327 -625 320.5 -627.5 Q 314 -630 308 -630 Q 290 -630 272.5 -622 Q 255 -614 243.5 -599.5 Q 232 -585 225.5 -567 Q 219 -549 216 -531 L 181 -323 Z " id="path32"/>
<path d="M 216 -317 Q 194 -317 172 -320 Q 150 -323 129.5 -332.5 Q 109 -342 95.5 -360 Q 82 -378 82 -400 Q 82 -405 82 -409 Q 82 -413 83 -418 L 152 -418 L 152 -412 Q 152 -401 160.5 -394.5 Q 169 -388 179 -384.5 Q 189 -381 199.5 -380 Q 210 -379 221 -379 Q 233 -379 245.5 -380.5 Q 258 -382 269 -386.5 Q 280 -391 289 -400.5 Q 298 -410 298 -422 Q 298 -433 291 -442 Q 284 -451 274.5 -456.5 Q 265 -462 254.5 -465 Q 244 -468 233.5 -471.5 Q 223 -475 212.5 -478.5 Q 202 -482 192.5 -487 Q 183 -492 173.5 -498 Q 164 -504 156 -511.5 Q 148 -519 141.5 -528 Q 135 -537 130 -546.5 Q 125 -556 122.5 -567 Q 120 -578 120 -589 Q 120 -605 126 -621 Q 132 -637 143.5 -649.5 Q 155 -662 169.5 -670.5 Q 184 -679 200 -684 Q 216 -689 232.5 -691 Q 249 -693 266 -693 Q 287 -693 308.5 -690 Q 330 -687 349.5 -677.5 Q 369 -668 381.5 -650 Q 394 -632 394 -610 Q 394 -606 393.5 -601.5 Q 393 -597 392 -593 L 324 -593 L 324 -598 Q 324 -608 316.5 -615 Q 309 -622 299.5 -625.5 Q 290 -629 280 -630 Q 270 -631 261 -631 Q 249 -631 237.5 -629 Q 226 -627 215.5 -622.5 Q 205 -618 197 -609 Q 189 -600 189 -588 Q 189 -577 196 -568 Q 203 -559 212.5 -553.5 Q 222 -548 232.5 -545 Q 243 -542 253.5 -538.5 Q 264 -535 274.5 -531.5 Q 285 -528 294.5 -523 Q 304 -518 313.5 -512 Q 323 -506 331 -498.5 Q 339 -491 345.5 -482 Q 352 -473 357 -463.5 Q 362 -454 364.5 -443 Q 367 -432 367 -421 Q 367 -404 360.5 -388 Q 354 -372 342 -359.5 Q 330 -347 315 -339 Q 300 -331 283.5 -326 Q 267 -321 250 -319 Q 233 -317 216 -317 Z " id="path33"/>
<path d="M 69 -323 L 80 -385 L 319 -625 L 119 -625 L 129 -687 L 412 -687 L 402 -625 L 163 -385 L 362 -385 L 352 -323 Z " id="path34"/>
<path d="M 44 -172 L 129 -687 L 200 -687 L 190 -631 Q 198 -645 209 -656.5 Q 220 -668 233.5 -676.5 Q 247 -685 263 -689 Q 279 -693 294 -693 Q 317 -693 338 -685 Q 359 -677 372.5 -660 Q 386 -643 391.5 -621 Q 397 -599 397 -577 Q 397 -566 395.5 -554.5 Q 394 -543 392 -532 L 378 -448 Q 376 -432 371 -415.5 Q 366 -399 358 -384.5 Q 350 -370 339.5 -357 Q 329 -344 314.5 -335 Q 300 -326 283.5 -321.5 Q 267 -317 251 -317 Q 233 -317 215.5 -322 Q 198 -327 184.5 -338 Q 171 -349 163 -365 Q 155 -381 152 -399 L 114 -172 Z M 222 -380 Q 238 -380 254 -385 Q 270 -390 282 -401 Q 294 -412 300.5 -427 Q 307 -442 310 -458 L 324 -542 Q 325 -548 325.5 -554 Q 326 -560 326 -566 Q 326 -578 322.5 -590.5 Q 319 -603 310.5 -612.5 Q 302 -622 290 -626 Q 278 -630 265 -630 Q 250 -630 235 -626 Q 220 -622 208 -612.5 Q 196 -603 188.5 -589 Q 181 -575 179 -560 L 165 -476 Q 164 -470 163 -463 Q 162 -456 162 -449 Q 162 -436 165 -423 Q 168 -410 176 -399.5 Q 184 -389 196.5 -384.5 Q 209 -380 222 -380 Z " id="path35"/>
<path d="M 66 -323 L 126 -687 L 189 -687 L 183 -652 Q 188 -660 194 -667.5 Q 200 -675 207 -680.5 Q 214 -686 223 -689.5 Q 232 -693 242 -693 Q 252 -693 261.5 -688.5 Q 271 -684 277 -675.5 Q 283 -667 286 -656.5 Q 289 -646 289 -636 Q 294 -647 299.5 -657 Q 305 -667 313.5 -675 Q 322 -683 332.5 -688 Q 343 -693 355 -693 Q 367 -693 377.5 -687 Q 388 -681 393.5 -670.5 Q 399 -660 401 -648 Q 403 -636 403 -624 Q 403 -615 402 -606 Q 401 -597 399 -588 L 356 -323 L 292 -323 L 338 -599 Q 338 -602 338.5 -605 Q 339 -608 339 -611 Q 339 -620 334 -628 Q 329 -636 320 -636 Q 311 -636 304.5 -628.5 Q 298 -621 294 -613 Q 290 -605 288 -596 Q 286 -587 284 -578 L 242 -323 L 179 -323 L 225 -599 Q 225 -602 225.5 -605 Q 226 -608 226 -611 Q 226 -620 221 -628 Q 216 -636 207 -636 Q 197 -636 191 -628.5 Q 185 -621 181 -613 Q 177 -605 175 -596 Q 173 -587 171 -578 L 129 -323 Z " id="path36"/>
<path d="M 44 -172 L 44 -235 L 103 -235 Q 115 -235 126.5 -238 Q 138 -241 147.5 -249 Q 157 -257 162.5 -268 Q 168 -279 170 -291 L 221 -595 L 119 -595 L 119 -657 L 231 -657 L 241 -719 Q 245 -744 256 -767 Q 267 -790 286 -806.5 Q 305 -823 329.5 -830.5 Q 354 -838 379 -838 L 437 -838 L 437 -775 L 379 -775 Q 366 -775 353 -770.5 Q 340 -766 331 -756.5 Q 322 -747 317 -734.5 Q 312 -722 310 -709 L 301 -657 L 402 -657 L 402 -595 L 291 -595 L 240 -291 Q 236 -266 225 -243 Q 214 -220 195 -203.5 Q 176 -187 151.5 -179.5 Q 127 -172 103 -172 Z " id="path37"/>
</defs>
<g>
<g data-source-text="0" fill="#20242e" transform="translate(174 41.292) rotate(0) scale(0.023999998)">
<use href="#path1" transform="translate(0 0)"/>
</g>
</g>
<g>
<g data-source-text="1" fill="#20242e" transform="translate(246 41.292) rotate(0) scale(0.023999998)">
<use href="#path2" transform="translate(0 0)"/>
</g>
</g>
<g>
<g data-source-text="2" fill="#20242e" transform="translate(318 41.292) rotate(0) scale(0.023999998)">
<use href="#path3" transform="translate(0 0)"/>
</g>
</g>
<g>
<g data-source-text="3" fill="#20242e" transform="translate(390 41.292) rotate(0) scale(0.023999998)">
<use href="#path4" transform="translate(0 0)"/>
</g>
</g>
<g>
<g data-source-text="4" fill="#20242e" transform="translate(462 41.292) rotate(0) scale(0.023999998)">
<use href="#path5" transform="translate(0 0)"/>
</g>
</g>
<g>
<g data-source-text="5" fill="#20242e" transform="translate(534 41.292) rotate(0) scale(0.023999998)">
<use href="#path6" transform="translate(0 0)"/>
</g>
</g>
<g>
<g data-source-text="6" fill="#20242e" transform="translate(606 41.292) rotate(0) scale(0.023999998)">
<use href="#path7" transform="translate(0 0)"/>
</g>
</g>
<g>
<g data-source-text="7" fill="#20242e" transform="translate(678 41.292) rotate(0) scale(0.023999998)">
<use href="#path8" transform="translate(0 0)"/>
</g>
</g>
<g>
<g data-source-text="8" fill="#20242e" transform="translate(750 41.292) rotate(0) scale(0.023999998)">
<use href="#path9" transform="translate(0 0)"/>
</g>
</g>
<g>
<g data-source-text="9" fill="#20242e" transform="translate(822 41.292) rotate(0) scale(0.023999998)">
<use href="#path10" transform="translate(0 0)"/>
</g>
</g>
<g>
<g data-source-text="A" fill="#20242e" transform="translate(894 41.292) rotate(0) scale(0.023999998)">
<use href="#path11" transform="translate(0 0)"/>
</g>
</g>
<g>
<g data-source-text="B" fill="#20242e" transform="translate(966 41.292) rotate(0) scale(0.023999998)">
<use href="#path12" transform="translate(0 0)"/>
</g>
</g>
<g>
<g data-source-text="C" fill="#20242e" transform="translate(1038 41.292) rotate(0) scale(0.023999998)">
<use href="#path13" transform="translate(0 0)"/>
</g>
</g>
<g>
<g data-source-text="D" fill="#20242e" transform="translate(1110 41.292) rotate(0) scale(0.023999998)">
<use href="#path14" transform="translate(0 0)"/>
</g>
</g>
<g>
<g data-source-text="E" fill="#20242e" transform="translate(1182 41.292) rotate(0) scale(0.023999998)">
<use href="#path15" transform="translate(0 0)"/>
</g>
</g>
<g>
<g data-source-text="F" fill="#20242e" transform="translate(1254 41.292) rotate(0) scale(0.023999998)">
<use href="#path16" transform="translate(0 0)"/>
</g>
</g>
<g>
<g data-source-text="U+1D100" fill="#20242e" transform="translate(30 113.292) rotate(0) scale(0.023999998)">
<use href="#path17" transform="translate(0 0)"/>
<use href="#path18" transform="translate(500 0)"/>
<use href="#path2" transform="translate(1000 0)"/>
<use href="#path14" transform="translate(1500 0)"/>
<use href="#path2" transform="translate(2000 0)"/>
<use href="#path1" transform="translate(2500 0)"/>
<use href="#path1" transform="translate(3000 0)"/>
</g>
</g>
<g>
<g data-source-text="ï€" fill="#20242e40" transform="translate(168 118.584) rotate(0) scale(0.047999997)">
<use href="#path19" transform="translate(0 0)"/>
</g>
</g>
<g>
<g data-source-text="ï€" fill="#20242e40" transform="translate(240 118.584) rotate(0) scale(0.047999997)">
<use href="#path19" transform="translate(0 0)"/>
</g>
</g>
<g>
<g data-source-text="ï€" fill="#20242e40" transform="translate(312 118.584) rotate(0) scale(0.047999997)">
<use href="#path19" transform="translate(0 0)"/>
</g>
</g>
<g>
<g data-source-text="ï€" fill="#20242e40" transform="translate(384 118.584) rotate(0) scale(0.047999997)">
<use href="#path19" transform="translate(0 0)"/>
</g>
</g>
<g>
<g data-source-text="ï€" fill="#20242e40" transform="translate(456 118.584) rotate(0) scale(0.047999997)">
<use href="#path19" transform="translate(0 0)"/>
</g>
</g>
<g>
<g data-source-text="ï€" fill="#20242e40" transform="translate(528 118.584) rotate(0) scale(0.047999997)">
<use href="#path19" transform="translate(0 0)"/>
</g>
</g>
<g>
<g data-source-text="ï€" fill="#20242e40" transform="translate(600 118.584) rotate(0) scale(0.047999997)">
<use href="#path19" transform="translate(0 0)"/>
</g>
</g>
<g>
<g data-source-text="ï€" fill="#20242e40" transform="translate(672 118.584) rotate(0) scale(0.047999997)">
<use href="#path19" transform="translate(0 0)"/>
</g>
</g>
<g>
<g data-source-text="ï€" fill="#20242e40" transform="translate(744 118.584) rotate(0) scale(0.047999997)">
<use href="#path19" transform="translate(0 0)"/>
</g>
</g>
<g>
<g data-source-text="ï€" fill="#20242e40" transform="translate(816 118.584) rotate(0) scale(0.047999997)">
<use href="#path19" transform="translate(0 0)"/>
</g>
</g>
<g>
<g data-source-text="ï€" fill="#20242e40" transform="translate(888 118.584) rotate(0) scale(0.047999997)">
<use href="#path19" transform="translate(0 0)"/>
</g>
</g>
<g>
<g data-source-text="ï€" fill="#20242e40" transform="translate(960 118.584) rotate(0) scale(0.047999997)">
<use href="#path19" transform="translate(0 0)"/>
</g>
</g>
<g>
<g data-source-text="ï€" fill="#20242e40" transform="translate(1032 118.584) rotate(0) scale(0.047999997)">
<use href="#path19" transform="translate(0 0)"/>
</g>
</g>
<g>
<g data-source-text="ï€" fill="#20242e40" transform="translate(1104 118.584) rotate(0) scale(0.047999997)">
<use href="#path19" transform="translate(0 0)"/>
</g>
</g>
<g>
<g data-source-text="ï€" fill="#20242e40" transform="translate(1176 118.584) rotate(0) scale(0.047999997)">
<use href="#path19" transform="translate(0 0)"/>
</g>
</g>
<g>
<g data-source-text="ï€" fill="#20242e40" transform="translate(1248 118.584) rotate(0) scale(0.047999997)">
<use href="#path19" transform="translate(0 0)"/>
</g>
</g>
<g>
<g data-source-text="U+1D110" fill="#20242e" transform="translate(30 185.292) rotate(0) scale(0.023999998)">
<use href="#path17" transform="translate(0 0)"/>
<use href="#path18" transform="translate(500 0)"/>
<use href="#path2" transform="translate(1000 0)"/>
<use href="#path14" transform="translate(1500 0)"/>
<use href="#path2" transform="translate(2000 0)"/>
<use href="#path2" transform="translate(2500 0)"/>
<use href="#path1" transform="translate(3000 0)"/>
</g>
</g>
<g>
<g data-source-text="ð„" fill="#20242e" transform="translate(168 190.584) rotate(0) scale(0.047999997)">
<use href="#path20" transform="translate(0 0)"/>
</g>
</g>
<g>
<g data-source-text="ð„‘" fill="#20242e" transform="translate(240 190.584) rotate(0) scale(0.047999997)">
<use href="#path21" transform="translate(0 0)"/>
</g>
</g>
<g>
<g data-source-text="ï€" fill="#20242e40" transform="translate(312 190.584) rotate(0) scale(0.047999997)">
<use href="#path19" transform="translate(0 0)"/>
</g>
</g>
<g>
<g data-source-text="ï€" fill="#20242e40" transform="translate(384 190.584) rotate(0) scale(0.047999997)">
<use href="#path19" transform="translate(0 0)"/>
</g>
</g>
<g>
<g data-source-text="ï€" fill="#20242e40" transform="translate(456 190.584) rotate(0) scale(0.047999997)">
<use href="#path19" transform="translate(0 0)"/>
</g>
</g>
<g>
<g data-source-text="ï€" fill="#20242e40" transform="translate(528 190.584) rotate(0) scale(0.047999997)">
<use href="#path19" transform="translate(0 0)"/>
</g>
</g>
<g>
<g data-source-text="ï€" fill="#20242e40" transform="translate(600 190.584) rotate(0) scale(0.047999997)">
<use href="#path19" transform="translate(0 0)"/>
</g>
</g>
<g>
<g data-source-text="ï€" fill="#20242e40" transform="translate(672 190.584) rotate(0) scale(0.047999997)">
<use href="#path19" transform="translate(0 0)"/>
</g>
</g>
<g>
<g data-source-text="ï€" fill="#20242e40" transform="translate(744 190.584) rotate(0) scale(0.047999997)">
<use href="#path19" transform="translate(0 0)"/>
</g>
</g>
<g>
<g data-source-text="ï€" fill="#20242e40" transform="translate(816 190.584) rotate(0) scale(0.047999997)">
<use href="#path19" transform="translate(0 0)"/>
</g>
</g>
<g>
<g data-source-text="ï€" fill="#20242e40" transform="translate(888 190.584) rotate(0) scale(0.047999997)">
<use href="#path19" transform="translate(0 0)"/>
</g>
</g>
<g>
<g data-source-text="ï€" fill="#20242e40" transform="translate(960 190.584) rotate(0) scale(0.047999997)">
<use href="#path19" transform="translate(0 0)"/>
</g>
</g>
<g>
<g data-source-text="ï€" fill="#20242e40" transform="translate(1032 190.584) rotate(0) scale(0.047999997)">
<use href="#path19" transform="translate(0 0)"/>
</g>
</g>
<g>
<g data-source-text="ï€" fill="#20242e40" transform="translate(1104 190.584) rotate(0) scale(0.047999997)">
<use href="#path19" transform="translate(0 0)"/>
</g>
</g>
<g>
<g data-source-text="ï€" fill="#20242e40" transform="translate(1176 190.584) rotate(0) scale(0.047999997)">
<use href="#path19" transform="translate(0 0)"/>
</g>
</g>
<g>
<g data-source-text="ï€" fill="#20242e40" transform="translate(1248 190.584) rotate(0) scale(0.047999997)">
<use href="#path19" transform="translate(0 0)"/>
</g>
</g>
<g>
<g data-source-text="U+1D120" fill="#20242e" transform="translate(30 257.292) rotate(0) scale(0.023999998)">
<use href="#path17" transform="translate(0 0)"/>
<use href="#path18" transform="translate(500 0)"/>
<use href="#path2" transform="translate(1000 0)"/>
<use href="#path14" transform="translate(1500 0)"/>
<use href="#path2" transform="translate(2000 0)"/>
<use href="#path3" transform="translate(2500 0)"/>
<use href="#path1" transform="translate(3000 0)"/>
</g>
</g>
<g>
<g data-source-text="ï€" fill="#20242e40" transform="translate(168 262.584) rotate(0) scale(0.047999997)">
<use href="#path19" transform="translate(0 0)"/>
</g>
</g>
<g>
<g data-source-text="ï€" fill="#20242e40" transform="translate(240 262.584) rotate(0) scale(0.047999997)">
<use href="#path19" transform="translate(0 0)"/>
</g>
</g>
<g>
<g data-source-text="ï€" fill="#20242e40" transform="translate(312 262.584) rotate(0) scale(0.047999997)">
<use href="#path19" transform="translate(0 0)"/>
</g>
</g>
<g>
<g data-source-text="ï€" fill="#20242e40" transform="translate(384 262.584) rotate(0) scale(0.047999997)">
<use href="#path19" transform="translate(0 0)"/>
</g>
</g>
<g>
<g data-source-text="ï€" fill="#20242e40" transform="translate(456 262.584) rotate(0) scale(0.047999997)">
<use href="#path19" transform="translate(0 0)"/>
</g>
</g>
<g>
<g data-source-text="ï€" fill="#20242e40" transform="translate(528 262.584) rotate(0) scale(0.047999997)">
<use href="#path19" transform="translate(0 0)"/>
</g>
</g>
<g>
<g data-source-text="ï€" fill="#20242e40" transform="translate(600 262.584) rotate(0) scale(0.047999997)">
<use href="#path19" transform="translate(0 0)"/>
</g>
</g>
<g>
<g data-source-text="ï€" fill="#20242e40" transform="translate(672 262.584) rotate(0) scale(0.047999997)">
<use href="#path19" transform="translate(0 0)"/>
</g>
</g>
<g>
<g data-source-text="ï€" fill="#20242e40" transform="translate(744 262.584) rotate(0) scale(0.047999997)">
<use href="#path19" transform="translate(0 0)"/>
</g>
</g>
<g>
<g data-source-text="ï€" fill="#20242e40" transform="translate(816 262.584) rotate(0) scale(0.047999997)">
<use href="#path19" transform="translate(0 0)"/>
</g>
</g>
<g>
<g data-source-text="ð„ª" fill="#20242e" transform="translate(888 262.584) rotate(0) scale(0.047999997)">
<use href="#path22" transform="translate(0 0)"/>
</g>
</g>
<g>
<g data-source-text="ð„«" fill="#20242e" transform="translate(960 262.584) rotate(0) scale(0.047999997)">
<use href="#path23" transform="translate(0 0)"/>
</g>
</g>
<g>
<g data-source-text="ð„¬" fill="#20242e" transform="translate(1032 262.584) rotate(0) scale(0.047999997)">
<use href="#path24" transform="translate(0 0)"/>
</g>
</g>
<g>
<g data-source-text="ð„­" fill="#20242e" transform="translate(1104 262.584) rotate(0) scale(0.047999997)">
<use href="#path25" transform="translate(0 0)"/>
</g>
</g>
<g>
<g data-source-text="ð„®" fill="#20242e" transform="translate(1176 262.584) rotate(0) scale(0.047999997)">
<use href="#path26" transform="translate(0 0)"/>
</g>
</g>
<g>
<g data-source-text="ð„¯" fill="#20242e" transform="translate(1248 262.584) rotate(0) scale(0.047999997)">
<use href="#path27" transform="translate(0 0)"/>
</g>
</g>
<g>
<g data-source-text="U+1D130" fill="#20242e" transform="translate(30 329.292) rotate(0) scale(0.023999998)">
<use href="#path17" transform="translate(0 0)"/>
<use href="#path18" transform="translate(500 0)"/>
<use href="#path2" transform="translate(1000 0)"/>
<use href="#path14" transform="translate(1500 0)"/>
<use href="#path2" transform="translate(2000 0)"/>
<use href="#path4" transform="translate(2500 0)"/>
<use href="#path1" transform="translate(3000 0)"/>
</g>
</g>
<g>
<g data-source-text="ð„°" fill="#20242e" transform="translate(168 334.584) rotate(0) scale(0.047999997)">
<use href="#path28" transform="translate(0 0)"/>
</g>
</g>
<g>
<g data-source-text="ð„±" fill="#20242e" transform="translate(240 334.584) rotate(0) scale(0.047999997)">
<use href="#path29" transform="translate(0 0)"/>
</g>
</g>
<g>
<g data-source-text="ð„²" fill="#20242e" transform="translate(312 334.584) rotate(0) scale(0.047999997)">
<use href="#path30" transform="translate(0 0)"/>
</g>
</g>
<g>
<g data-source-text="ð„³" fill="#20242e" transform="translate(384 334.584) rotate(0) scale(0.047999997)">
<use href="#path31" transform="translate(0 0)"/>
</g>
</g>
<g>
<g data-source-text="ï€" fill="#20242e40" transform="translate(456 334.584) rotate(0) scale(0.047999997)">
<use href="#path19" transform="translate(0 0)"/>
</g>
</g>
<g>
<g data-source-text="ï€" fill="#20242e40" transform="translate(528 334.584) rotate(0) scale(0.047999997)">
<use href="#path19" transform="translate(0 0)"/>
</g>
</g>
<g>
<g data-source-text="ï€" fill="#20242e40" transform="translate(600 334.584) rotate(0) scale(0.047999997)">
<use href="#path19" transform="translate(0 0)"/>
</g>
</g>
<g>
<g data-source-text="ï€" fill="#20242e40" transform="translate(672 334.584) rotate(0) scale(0.047999997)">
<use href="#path19" transform="translate(0 0)"/>
</g>
</g>
<g>
<g data-source-text="ï€" fill="#20242e40" transform="translate(744 334.584) rotate(0) scale(0.047999997)">
<use href="#path19" transform="translate(0 0)"/>
</g>
</g>
<g>
<g data-source-text="ï€" fill="#20242e40" transform="translate(816 334.584) rotate(0) scale(0.047999997)">
<use href="#path19" transform="translate(0 0)"/>
</g>
</g>
<g>
<g data-source-text="ï€" fill="#20242e40" transform="translate(888 334.584) rotate(0) scale(0.047999997)">
<use href="#path19" transform="translate(0 0)"/>
</g>
</g>
<g>
<g data-source-text="ï€" fill="#20242e40" transform="translate(960 334.584) rotate(0) scale(0.047999997)">
<use href="#path19" transform="translate(0 0)"/>
</g>
</g>
<g>
<g data-source-text="ï€" fill="#20242e40" transform="translate(1032 334.584) rotate(0) scale(0.047999997)">
<use href="#path19" transform="translate(0 0)"/>
</g>
</g>
<g>
<g data-source-text="ï€" fill="#20242e40" transform="translate(1104 334.584) rotate(0) scale(0.047999997)">
<use href="#path19" transform="translate(0 0)"/>
</g>
</g>
<g>
<g data-source-text="ï€" fill="#20242e40" transform="translate(1176 334.584) rotate(0) scale(0.047999997)">
<use href="#path19" transform="translate(0 0)"/>
</g>
</g>
<g>
<g data-source-text="ï€" fill="#20242e40" transform="translate(1248 334.584) rotate(0) scale(0.047999997)">
<use href="#path19" transform="translate(0 0)"/>
</g>
</g>
<g>
<g data-source-text="U+1D140" fill="#20242e" transform="translate(30 401.292) rotate(0) scale(0.023999998)">
<use href="#path17" transform="translate(0 0)"/>
<use href="#path18" transform="translate(500 0)"/>
<use href="#path2" transform="translate(1000 0)"/>
<use href="#path14" transform="translate(1500 0)"/>
<use href="#path2" transform="translate(2000 0)"/>
<use href="#path5" transform="translate(2500 0)"/>
<use href="#path1" transform="translate(3000 0)"/>
</g>
</g>
<g>
<g data-source-text="ï€" fill="#20242e40" transform="translate(168 406.584) rotate(0) scale(0.047999997)">
<use href="#path19" transform="translate(0 0)"/>
</g>
</g>
<g>
<g data-source-text="ï€" fill="#20242e40" transform="translate(240 406.584) rotate(0) scale(0.047999997)">
<use href="#path19" transform="translate(0 0)"/>
</g>
</g>
<g>
<g data-source-text="ï€" fill="#20242e40" transform="translate(312 406.584) rotate(0) scale(0.047999997)">
<use href="#path19" transform="translate(0 0)"/>
</g>
</g>
<g>
<g data-source-text="ï€" fill="#20242e40" transform="translate(384 406.584) rotate(0) scale(0.047999997)">
<use href="#path19" transform="translate(0 0)"/>
</g>
</g>
<g>
<g data-source-text="ï€" fill="#20242e40" transform="translate(456 406.584) rotate(0) scale(0.047999997)">
<use href="#path19" transform="translate(0 0)"/>
</g>
</g>
<g>
<g data-source-text="ï€" fill="#20242e40" transform="translate(528 406.584) rotate(0) scale(0.047999997)">
<use href="#path19" transform="translate(0 0)"/>
</g>
</g>
<g>
<g data-source-text="ï€" fill="#20242e40" transform="translate(600 406.584) rotate(0) scale(0.047999997)">
<use href="#path19" transform="translate(0 0)"/>
</g>
</g>
<g>
<g data-source-text="ï€" fill="#20242e40" transform="translate(672 406.584) rotate(0) scale(0.047999997)">
<use href="#path19" transform="translate(0 0)"/>
</g>
</g>
<g>
<g data-source-text="ï€" fill="#20242e40" transform="translate(744 406.584) rotate(0) scale(0.047999997)">
<use href="#path19" transform="translate(0 0)"/>
</g>
</g>
<g>
<g data-source-text="ï€" fill="#20242e40" transform="translate(816 406.584) rotate(0) scale(0.047999997)">
<use href="#path19" transform="translate(0 0)"/>
</g>
</g>
<g>
<g data-source-text="ï€" fill="#20242e40" transform="translate(888 406.584) rotate(0) scale(0.047999997)">
<use href="#path19" transform="translate(0 0)"/>
</g>
</g>
<g>
<g data-source-text="ï€" fill="#20242e40" transform="translate(960 406.584) rotate(0) scale(0.047999997)">
<use href="#path19" transform="translate(0 0)"/>
</g>
</g>
<g>
<g data-source-text="ï€" fill="#20242e40" transform="translate(1032 406.584) rotate(0) scale(0.047999997)">
<use href="#path19" transform="translate(0 0)"/>
</g>
</g>
<g>
<g data-source-text="ï€" fill="#20242e40" transform="translate(1104 406.584) rotate(0) scale(0.047999997)">
<use href="#path19" transform="translate(0 0)"/>
</g>
</g>
<g>
<g data-source-text="ï€" fill="#20242e40" transform="translate(1176 406.584) rotate(0) scale(0.047999997)">
<use href="#path19" transform="translate(0 0)"/>
</g>
</g>
<g>
<g data-source-text="ï€" fill="#20242e40" transform="translate(1248 406.584) rotate(0) scale(0.047999997)">
<use href="#path19" transform="translate(0 0)"/>
</g>
</g>
<g>
<g data-source-text="U+1D150" fill="#20242e" transform="translate(30 473.292) rotate(0) scale(0.023999998)">
<use href="#path17" transform="translate(0 0)"/>
<use href="#path18" transform="translate(500 0)"/>
<use href="#path2" transform="translate(1000 0)"/>
<use href="#path14" transform="translate(1500 0)"/>
<use href="#path2" transform="translate(2000 0)"/>
<use href="#path6" transform="translate(2500 0)"/>
<use href="#path1" transform="translate(3000 0)"/>
</g>
</g>
<g>
<g data-source-text="ï€" fill="#20242e40" transform="translate(168 478.584) rotate(0) scale(0.047999997)">
<use href="#path19" transform="translate(0 0)"/>
</g>
</g>
<g>
<g data-source-text="ï€" fill="#20242e40" transform="translate(240 478.584) rotate(0) scale(0.047999997)">
<use href="#path19" transform="translate(0 0)"/>
</g>
</g>
<g>
<g data-source-text="ï€" fill="#20242e40" transform="translate(312 478.584) rotate(0) scale(0.047999997)">
<use href="#path19" transform="translate(0 0)"/>
</g>
</g>
<g>
<g data-source-text="ï€" fill="#20242e40" transform="translate(384 478.584) rotate(0) scale(0.047999997)">
<use href="#path19" transform="translate(0 0)"/>
</g>
</g>
<g>
<g data-source-text="ï€" fill="#20242e40" transform="translate(456 478.584) rotate(0) scale(0.047999997)">
<use href="#path19" transform="translate(0 0)"/>
</g>
</g>
<g>
<g data-source-text="ï€" fill="#20242e40" transform="translate(528 478.584) rotate(0) scale(0.047999997)">
<use href="#path19" transform="translate(0 0)"/>
</g>
</g>
<g>
<g data-source-text="ï€" fill="#20242e40" transform="translate(600 478.584) rotate(0) scale(0.047999997)">
<use href="#path19" transform="translate(0 0)"/>
</g>
</g>
<g>
<g data-source-text="ï€" fill="#20242e40" transform="translate(672 478.584) rotate(0) scale(0.047999997)">
<use href="#path19" transform="translate(0 0)"/>
</g>
</g>
<g>
<g data-source-text="ï€" fill="#20242e40" transform="translate(744 478.584) rotate(0) scale(0.047999997)">
<use href="#path19" transform="translate(0 0)"/>
</g>
</g>
<g>
<g data-source-text="ï€" fill="#20242e40" transform="translate(816 478.584) rotate(0) scale(0.047999997)">
<use href="#path19" transform="translate(0 0)"/>
</g>
</g>
<g>
<g data-source-text="ï€" fill="#20242e40" transform="translate(888 478.584) rotate(0) scale(0.047999997)">
<use href="#path19" transform="translate(0 0)"/>
</g>
</g>
<g>
<g data-source-text="ï€" fill="#20242e40" transform="translate(960 478.584) rotate(0) scale(0.047999997)">
<use href="#path19" transform="translate(0 0)"/>
</g>
</g>
<g>
<g data-source-text="ï€" fill="#20242e40" transform="translate(1032 478.584) rotate(0) scale(0.047999997)">
<use href="#path19" transform="translate(0 0)"/>
</g>
</g>
<g>
<g data-source-text="ï€" fill="#20242e40" transform="translate(1104 478.584) rotate(0) scale(0.047999997)">
<use href="#path19" transform="translate(0 0)"/>
</g>
</g>
<g>
<g data-source-text="ï€" fill="#20242e40" transform="translate(1176 478.584) rotate(0) scale(0.047999997)">
<use href="#path19" transform="translate(0 0)"/>
</g>
</g>
<g>
<g data-source-text="ï€" fill="#20242e40" transform="translate(1248 478.584) rotate(0) scale(0.047999997)">
<use href="#path19" transform="translate(0 0)"/>
</g>
</g>
<g>
<g data-source-text="U+1D160" fill="#20242e" transform="translate(30 545.292) rotate(0) scale(0.023999998)">
<use href="#path17" transform="translate(0 0)"/>
<use href="#path18" transform="translate(500 0)"/>
<use href="#path2" transform="translate(1000 0)"/>
<use href="#path14" transform="translate(1500 0)"/>
<use href="#path2" transform="translate(2000 0)"/>
<use href="#path7" transform="translate(2500 0)"/>
<use href="#path1" transform="translate(3000 0)"/>
</g>
</g>
<g>
<g data-source-text="ï€" fill="#20242e40" transform="translate(168 550.584) rotate(0) scale(0.047999997)">
<use href="#path19" transform="translate(0 0)"/>
</g>
</g>
<g>
<g data-source-text="ï€" fill="#20242e40" transform="translate(240 550.584) rotate(0) scale(0.047999997)">
<use href="#path19" transform="translate(0 0)"/>
</g>
</g>
<g>
<g data-source-text="ï€" fill="#20242e40" transform="translate(312 550.584) rotate(0) scale(0.047999997)">
<use href="#path19" transform="translate(0 0)"/>
</g>
</g>
<g>
<g data-source-text="ï€" fill="#20242e40" transform="translate(384 550.584) rotate(0) scale(0.047999997)">
<use href="#path19" transform="translate(0 0)"/>
</g>
</g>
<g>
<g data-source-text="ï€" fill="#20242e40" transform="translate(456 550.584) rotate(0) scale(0.047999997)">
<use href="#path19" transform="translate(0 0)"/>
</g>
</g>
<g>
<g data-source-text="ï€" fill="#20242e40" transform="translate(528 550.584) rotate(0) scale(0.047999997)">
<use href="#path19" transform="translate(0 0)"/>
</g>
</g>
<g>
<g data-source-text="ï€" fill="#20242e40" transform="translate(600 550.584) rotate(0) scale(0.047999997)">
<use href="#path19" transform="translate(0 0)"/>
</g>
</g>
<g>
<g data-source-text="ï€" fill="#20242e40" transform="translate(672 550.584) rotate(0) scale(0.047999997)">
<use href="#path19" transform="translate(0 0)"/>
</g>
</g>
<g>
<g data-source-text="ï€" fill="#20242e40" transform="translate(744 550.584) rotate(0) scale(0.047999997)">
<use href="#path19" transform="translate(0 0)"/>
</g>
</g>
<g>
<g data-source-text="ï€" fill="#20242e40" transform="translate(816 550.584) rotate(0) scale(0.047999997)">
<use href="#path19" transform="translate(0 0)"/>
</g>
</g>
<g>
<g data-source-text="ï€" fill="#20242e40" transform="translate(888 550.584) rotate(0) scale(0.047999997)">
<use href="#path19" transform="translate(0 0)"/>
</g>
</g>
<g>
<g data-source-text="ï€" fill="#20242e40" transform="translate(960 550.584) rotate(0) scale(0.047999997)">
<use href="#path19" transform="translate(0 0)"/>
</g>
</g>
<g>
<g data-source-text="ï€" fill="#20242e40" transform="translate(1032 550.584) rotate(0) scale(0.047999997)">
<use href="#path19" transform="translate(0 0)"/>
</g>
</g>
<g>
<g data-source-text="ï€" fill="#20242e40" transform="translate(1104 550.584) rotate(0) scale(0.047999997)">
<use href="#path19" transform="translate(0 0)"/>
</g>
</g>
<g>
<g data-source-text="ï€" fill="#20242e40" transform="translate(1176 550.584) rotate(0) scale(0.047999997)">
<use href="#path19" transform="translate(0 0)"/>
</g>
</g>
<g>
<g data-source-text="ï€" fill="#20242e40" transform="translate(1248 550.584) rotate(0) scale(0.047999997)">
<use href="#path19" transform="translate(0 0)"/>
</g>
</g>
<g>
<g data-source-text="U+1D170" fill="#20242e" transform="translate(30 617.292) rotate(0) scale(0.023999998)">
<use href="#path17" transform="translate(0 0)"/>
<use href="#path18" transform="translate(500 0)"/>
<use href="#path2" transform="translate(1000 0)"/>
<use href="#path14" transform="translate(1500 0)"/>
<use href="#path2" transform="translate(2000 0)"/>
<use href="#path8" transform="translate(2500 0)"/>
<use href="#path1" transform="translate(3000 0)"/>
</g>
</g>
<g>
<g data-source-text="ï€" fill="#20242e40" transform="translate(168 622.584) rotate(0) scale(0.047999997)">
<use href="#path19" transform="translate(0 0)"/>
</g>
</g>
<g>
<g data-source-text="ï€" fill="#20242e40" transform="translate(240 622.584) rotate(0) scale(0.047999997)">
<use href="#path19" transform="translate(0 0)"/>
</g>
</g>
<g>
<g data-source-text="ï€" fill="#20242e40" transform="translate(312 622.584) rotate(0) scale(0.047999997)">
<use href="#path19" transform="translate(0 0)"/>
</g>
</g>
<g>
<g data-source-text="ï€" fill="#20242e40" transform="translate(384 622.584) rotate(0) scale(0.047999997)">
<use href="#path19" transform="translate(0 0)"/>
</g>
</g>
<g>
<g data-source-text="ï€" fill="#20242e40" transform="translate(456 622.584) rotate(0) scale(0.047999997)">
<use href="#path19" transform="translate(0 0)"/>
</g>
</g>
<g>
<g data-source-text="ï€" fill="#20242e40" transform="translate(528 622.584) rotate(0) scale(0.047999997)">
<use href="#path19" transform="translate(0 0)"/>
</g>
</g>
<g>
<g data-source-text="ï€" fill="#20242e40" transform="translate(600 622.584) rotate(0) scale(0.047999997)">
<use href="#path19" transform="translate(0 0)"/>
</g>
</g>
<g>
<g data-source-text="ï€" fill="#20242e40" transform="translate(672 622.584) rotate(0) scale(0.047999997)">
<use href="#path19" transform="translate(0 0)"/>
</g>
</g>
<g>
<g data-source-text="ï€" fill="#20242e40" transform="translate(744 622.584) rotate(0) scale(0.047999997)">
<use href="#path19" transform="translate(0 0)"/>
</g>
</g>
<g>
<g data-source-text="ï€" fill="#20242e40" transform="translate(816 622.584) rotate(0) scale(0.047999997)">
<use href="#path19" transform="translate(0 0)"/>
</g>
</g>
<g>
<g data-source-text="ï€" fill="#20242e40" transform="translate(888 622.584) rotate(0) scale(0.047999997)">
<use href="#path19" transform="translate(0 0)"/>
</g>
</g>
<g>
<g data-source-text="ï€" fill="#20242e40" transform="translate(960 622.584) rotate(0) scale(0.047999997)">
<use href="#path19" transform="translate(0 0)"/>
</g>
</g>
<g>
<g data-source-text="ï€" fill="#20242e40" transform="translate(1032 622.584) rotate(0) scale(0.047999997)">
<use href="#path19" transform="translate(0 0)"/>
</g>
</g>
<g>
<g data-source-text="ï€" fill="#20242e40" transform="translate(1104 622.584) rotate(0) scale(0.047999997)">
<use href="#path19" transform="translate(0 0)"/>
</g>
</g>
<g>
<g data-source-text="ï€" fill="#20242e40" transform="translate(1176 622.584) rotate(0) scale(0.047999997)">
<use href="#path19" transform="translate(0 0)"/>
</g>
</g>
<g>
<g data-source-text="ï€" fill="#20242e40" transform="translate(1248 622.584) rotate(0) scale(0.047999997)">
<use href="#path19" transform="translate(0 0)"/>
</g>
</g>
<g>
<g data-source-text="U+1D180" fill="#20242e" transform="translate(30 689.292) rotate(0) scale(0.023999998)">
<use href="#path17" transform="translate(0 0)"/>
<use href="#path18" transform="translate(500 0)"/>
<use href="#path2" transform="translate(1000 0)"/>
<use href="#path14" transform="translate(1500 0)"/>
<use href="#path2" transform="translate(2000 0)"/>
<use href="#path9" transform="translate(2500 0)"/>
<use href="#path1" transform="translate(3000 0)"/>
</g>
</g>
<g>
<g data-source-text="ï€" fill="#20242e40" transform="translate(168 694.584) rotate(0) scale(0.047999997)">
<use href="#path19" transform="translate(0 0)"/>
</g>
</g>
<g>
<g data-source-text="ï€" fill="#20242e40" transform="translate(240 694.584) rotate(0) scale(0.047999997)">
<use href="#path19" transform="translate(0 0)"/>
</g>
</g>
<g>
<g data-source-text="ï€" fill="#20242e40" transform="translate(312 694.584) rotate(0) scale(0.047999997)">
<use href="#path19" transform="translate(0 0)"/>
</g>
</g>
<g>
<g data-source-text="ï€" fill="#20242e40" transform="translate(384 694.584) rotate(0) scale(0.047999997)">
<use href="#path19" transform="translate(0 0)"/>
</g>
</g>
<g>
<g data-source-text="ï€" fill="#20242e40" transform="translate(456 694.584) rotate(0) scale(0.047999997)">
<use href="#path19" transform="translate(0 0)"/>
</g>
</g>
<g>
<g data-source-text="ï€" fill="#20242e40" transform="translate(528 694.584) rotate(0) scale(0.047999997)">
<use href="#path19" transform="translate(0 0)"/>
</g>
</g>
<g>
<g data-source-text="ï€" fill="#20242e40" transform="translate(600 694.584) rotate(0) scale(0.047999997)">
<use href="#path19" transform="translate(0 0)"/>
</g>
</g>
<g>
<g data-source-text="ï€" fill="#20242e40" transform="translate(672 694.584) rotate(0) scale(0.047999997)">
<use href="#path19" transform="translate(0 0)"/>
</g>
</g>
<g>
<g data-source-text="ï€" fill="#20242e40" transform="translate(744 694.584) rotate(0) scale(0.047999997)">
<use href="#path19" transform="translate(0 0)"/>
</g>
</g>
<g>
<g data-source-text="ï€" fill="#20242e40" transform="translate(816 694.584) rotate(0) scale(0.047999997)">
<use href="#path19" transform="translate(0 0)"/>
</g>
</g>
<g>
<g data-source-text="ï€" fill="#20242e40" transform="translate(888 694.584) rotate(0) scale(0.047999997)">
<use href="#path19" transform="translate(0 0)"/>
</g>
</g>
<g>
<g data-source-text="ï€" fill="#20242e40" transform="translate(960 694.584) rotate(0) scale(0.047999997)">
<use href="#path19" transform="translate(0 0)"/>
</g>
</g>
<g>
<g data-source-text="ð†Œ" fill="#20242e" transform="translate(1032 694.584) rotate(0) scale(0.047999997)">
<use href="#path32" transform="translate(0 0)"/>
</g>
</g>
<g>
<g data-source-text="ð†" fill="#20242e" transform="translate(1104 694.584) rotate(0) scale(0.047999997)">
<use href="#path33" transform="translate(0 0)"/>
</g>
</g>
<g>
<g data-source-text="ð†Ž" fill="#20242e" transform="translate(1176 694.584) rotate(0) scale(0.047999997)">
<use href="#path34" transform="translate(0 0)"/>
</g>
</g>
<g>
<g data-source-text="ð†" fill="#20242e" transform="translate(1248 694.584) rotate(0) scale(0.047999997)">
<use href="#path35" transform="translate(0 0)"/>
</g>
</g>
<g>
<g data-source-text="U+1D190" fill="#20242e" transform="translate(30 761.292) rotate(0) scale(0.023999998)">
<use href="#path17" transform="translate(0 0)"/>
<use href="#path18" transform="translate(500 0)"/>
<use href="#path2" transform="translate(1000 0)"/>
<use href="#path14" transform="translate(1500 0)"/>
<use href="#path2" transform="translate(2000 0)"/>
<use href="#path10" transform="translate(2500 0)"/>
<use href="#path1" transform="translate(3000 0)"/>
</g>
</g>
<g>
<g data-source-text="ð†" fill="#20242e" transform="translate(168 766.584) rotate(0) scale(0.047999997)">
<use href="#path36" transform="translate(0 0)"/>
</g>
</g>
<g>
<g data-source-text="ð†‘" fill="#20242e" transform="translate(240 766.584) rotate(0) scale(0.047999997)">
<use href="#path37" transform="translate(0 0)"/>
</g>
</g>
<g>
<g data-source-text="ï€" fill="#20242e40" transform="translate(312 766.584) rotate(0) scale(0.047999997)">
<use href="#path19" transform="translate(0 0)"/>
</g>
</g>
<g>
<g data-source-text="ï€" fill="#20242e40" transform="translate(384 766.584) rotate(0) scale(0.047999997)">
<use href="#path19" transform="translate(0 0)"/>
</g>
</g>
<g>
<g data-source-text="ï€" fill="#20242e40" transform="translate(456 766.584) rotate(0) scale(0.047999997)">
<use href="#path19" transform="translate(0 0)"/>
</g>
</g>
<g>
<g data-source-text="ï€" fill="#20242e40" transform="translate(528 766.584) rotate(0) scale(0.047999997)">
<use href="#path19" transform="translate(0 0)"/>
</g>
</g>
<g>
<g data-source-text="ï€" fill="#20242e40" transform="translate(600 766.584) rotate(0) scale(0.047999997)">
<use href="#path19" transform="translate(0 0)"/>
</g>
</g>
<g>
<g data-source-text="ï€" fill="#20242e40" transform="translate(672 766.584) rotate(0) scale(0.047999997)">
<use href="#path19" transform="translate(0 0)"/>
</g>
</g>
<g>
<g data-source-text="ï€" fill="#20242e40" transform="translate(744 766.584) rotate(0) scale(0.047999997)">
<use href="#path19" transform="translate(0 0)"/>
</g>
</g>
<g>
<g data-source-text="ï€" fill="#20242e40" transform="translate(816 766.584) rotate(0) scale(0.047999997)">
<use href="#path19" transform="translate(0 0)"/>
</g>
</g>
<g>
<g data-source-text="ï€" fill="#20242e40" transform="translate(888 766.584) rotate(0) scale(0.047999997)">
<use href="#path19" transform="translate(0 0)"/>
</g>
</g>
<g>
<g data-source-text="ï€" fill="#20242e40" transform="translate(960 766.584) rotate(0) scale(0.047999997)">
<use href="#path19" transform="translate(0 0)"/>
</g>
</g>
<g>
<g data-source-text="ï€" fill="#20242e40" transform="translate(1032 766.584) rotate(0) scale(0.047999997)">
<use href="#path19" transform="translate(0 0)"/>
</g>
</g>
<g>
<g data-source-text="ï€" fill="#20242e40" transform="translate(1104 766.584) rotate(0) scale(0.047999997)">
<use href="#path19" transform="translate(0 0)"/>
</g>
</g>
<g>
<g data-source-text="ï€" fill="#20242e40" transform="translate(1176 766.584) rotate(0) scale(0.047999997)">
<use href="#path19" transform="translate(0 0)"/>
</g>
</g>
<g>
<g data-source-text="ï€" fill="#20242e40" transform="translate(1248 766.584) rotate(0) scale(0.047999997)">
<use href="#path19" transform="translate(0 0)"/>
</g>
</g>
<g>
<g data-source-text="U+1D1A0" fill="#20242e" transform="translate(30 833.292) rotate(0) scale(0.023999998)">
<use href="#path17" transform="translate(0 0)"/>
<use href="#path18" transform="translate(500 0)"/>
<use href="#path2" transform="translate(1000 0)"/>
<use href="#path14" transform="translate(1500 0)"/>
<use href="#path2" transform="translate(2000 0)"/>
<use href="#path11" transform="translate(2500 0)"/>
<use href="#path1" transform="translate(3000 0)"/>
</g>
</g>
<g>
<g data-source-text="ï€" fill="#20242e40" transform="translate(168 838.584) rotate(0) scale(0.047999997)">
<use href="#path19" transform="translate(0 0)"/>
</g>
</g>
<g>
<g data-source-text="ï€" fill="#20242e40" transform="translate(240 838.584) rotate(0) scale(0.047999997)">
<use href="#path19" transform="translate(0 0)"/>
</g>
</g>
<g>
<g data-source-text="ï€" fill="#20242e40" transform="translate(312 838.584) rotate(0) scale(0.047999997)">
<use href="#path19" transform="translate(0 0)"/>
</g>
</g>
<g>
<g data-source-text="ï€" fill="#20242e40" transform="translate(384 838.584) rotate(0) scale(0.047999997)">
<use href="#path19" transform="translate(0 0)"/>
</g>
</g>
<g>
<g data-source-text="ï€" fill="#20242e40" transform="translate(456 838.584) rotate(0) scale(0.047999997)">
<use href="#path19" transform="translate(0 0)"/>
</g>
</g>
<g>
<g data-source-text="ï€" fill="#20242e40" transform="translate(528 838.584) rotate(0) scale(0.047999997)">
<use href="#path19" transform="translate(0 0)"/>
</g>
</g>
<g>
<g data-source-text="ï€" fill="#20242e40" transform="translate(600 838.584) rotate(0) scale(0.047999997)">
<use href="#path19" transform="translate(0 0)"/>
</g>
</g>
<g>
<g data-source-text="ï€" fill="#20242e40" transform="translate(672 838.584) rotate(0) scale(0.047999997)">
<use href="#path19" transform="translate(0 0)"/>
</g>
</g>
<g>
<g data-source-text="ï€" fill="#20242e40" transform="translate(744 838.584) rotate(0) scale(0.047999997)">
<use href="#path19" transform="translate(0 0)"/>
</g>
</g>
<g>
<g data-source-text="ï€" fill="#20242e40" transform="translate(816 838.584) rotate(0) scale(0.047999997)">
<use href="#path19" transform="translate(0 0)"/>
</g>
</g>
<g>
<g data-source-text="ï€" fill="#20242e40" transform="translate(888 838.584) rotate(0) scale(0.047999997)">
<use href="#path19" transform="translate(0 0)"/>
</g>
</g>
<g>
<g data-source-text="ï€" fill="#20242e40" transform="translate(960 838.584) rotate(0) scale(0.047999997)">
<use href="#path19" transform="translate(0 0)"/>
</g>
</g>
<g>
<g data-source-text="ï€" fill="#20242e40" transform="translate(1032 838.584) rotate(0) scale(0.047999997)">
<use href="#path19" transform="translate(0 0)"/>
</g>
</g>
<g>
<g data-source-text="ï€" fill="#20242e40" transform="translate(1104 838.584) rotate(0) scale(0.047999997)">
<use href="#path19" transform="translate(0 0)"/>
</g>
</g>
<g>
<g data-source-text="ï€" fill="#20242e40" transform="translate(1176 838.584) rotate(0) scale(0.047999997)">
<use href="#path19" transform="translate(0 0)"/>
</g>
</g>
<g>
<g data-source-text="ï€" fill="#20242e40" transform="translate(1248 838.584) rotate(0) scale(0.047999997)">
<use href="#path19" transform="translate(0 0)"/>
</g>
</g>
<g>
<g data-source-text="U+1D1B0" fill="#20242e" transform="translate(30 905.292) rotate(0) scale(0.023999998)">
<use href="#path17" transform="translate(0 0)"/>
<use href="#path18" transform="translate(500 0)"/>
<use href="#path2" transform="translate(1000 0)"/>
<use href="#path14" transform="translate(1500 0)"/>
<use href="#path2" transform="translate(2000 0)"/>
<use href="#path12" transform="translate(2500 0)"/>
<use href="#path1" transform="translate(3000 0)"/>
</g>
</g>
<g>
<g data-source-text="ï€" fill="#20242e40" transform="translate(168 910.584) rotate(0) scale(0.047999997)">
<use href="#path19" transform="translate(0 0)"/>
</g>
</g>
<g>
<g data-source-text="ï€" fill="#20242e40" transform="translate(240 910.584) rotate(0) scale(0.047999997)">
<use href="#path19" transform="translate(0 0)"/>
</g>
</g>
<g>
<g data-source-text="ï€" fill="#20242e40" transform="translate(312 910.584) rotate(0) scale(0.047999997)">
<use href="#path19" transform="translate(0 0)"/>
</g>
</g>
<g>
<g data-source-text="ï€" fill="#20242e40" transform="translate(384 910.584) rotate(0) scale(0.047999997)">
<use href="#path19" transform="translate(0 0)"/>
</g>
</g>
<g>
<g data-source-text="ï€" fill="#20242e40" transform="translate(456 910.584) rotate(0) scale(0.047999997)">
<use href="#path19" transform="translate(0 0)"/>
</g>
</g>
<g>
<g data-source-text="ï€" fill="#20242e40" transform="translate(528 910.584) rotate(0) scale(0.047999997)">
<use href="#path19" transform="translate(0 0)"/>
</g>
</g>
<g>
<g data-source-text="ï€" fill="#20242e40" transform="translate(600 910.584) rotate(0) scale(0.047999997)">
<use href="#path19" transform="translate(0 0)"/>
</g>
</g>
<g>
<g data-source-text="ï€" fill="#20242e40" transform="translate(672 910.584) rotate(0) scale(0.047999997)">
<use href="#path19" transform="translate(0 0)"/>
</g>
</g>
<g>
<g data-source-text="ï€" fill="#20242e40" transform="translate(744 910.584) rotate(0) scale(0.047999997)">
<use href="#path19" transform="translate(0 0)"/>
</g>
</g>
<g>
<g data-source-text="ï€" fill="#20242e40" transform="translate(816 910.584) rotate(0) scale(0.047999997)">
<use href="#path19" transform="translate(0 0)"/>
</g>
</g>
<g>
<g data-source-text="ï€" fill="#20242e40" transform="translate(888 910.584) rotate(0) scale(0.047999997)">
<use href="#path19" transform="translate(0 0)"/>
</g>
</g>
<g>
<g data-source-text="ï€" fill="#20242e40" transform="translate(960 910.584) rotate(0) scale(0.047999997)">
<use href="#path19" transform="translate(0 0)"/>
</g>
</g>
<g>
<g data-source-text="ï€" fill="#20242e40" transform="translate(1032 910.584) rotate(0) scale(0.047999997)">
<use href="#path19" transform="translate(0 0)"/>
</g>
</g>
<g>
<g data-source-text="ï€" fill="#20242e40" transform="translate(1104 910.584) rotate(0) scale(0.047999997)">
<use href="#path19" transform="translate(0 0)"/>
</g>
</g>
<g>
<g data-source-text="ï€" fill="#20242e40" transform="translate(1176 910.584) rotate(0) scale(0.047999997)">
<use href="#path19" transform="translate(0 0)"/>
</g>
</g>
<g>
<g data-source-text="ï€" fill="#20242e40" transform="translate(1248 910.584) rotate(0) scale(0.047999997)">
<use href="#path19" transform="translate(0 0)"/>
</g>
</g>
<g>
<g data-source-text="U+1D1C0" fill="#20242e" transform="translate(30 977.292) rotate(0) scale(0.023999998)">
<use href="#path17" transform="translate(0 0)"/>
<use href="#path18" transform="translate(500 0)"/>
<use href="#path2" transform="translate(1000 0)"/>
<use href="#path14" transform="translate(1500 0)"/>
<use href="#path2" transform="translate(2000 0)"/>
<use href="#path13" transform="translate(2500 0)"/>
<use href="#path1" transform="translate(3000 0)"/>
</g>
</g>
<g>
<g data-source-text="ï€" fill="#20242e40" transform="translate(168 982.584) rotate(0) scale(0.047999997)">
<use href="#path19" transform="translate(0 0)"/>
</g>
</g>
<g>
<g data-source-text="ï€" fill="#20242e40" transform="translate(240 982.584) rotate(0) scale(0.047999997)">
<use href="#path19" transform="translate(0 0)"/>
</g>
</g>
<g>
<g data-source-text="ï€" fill="#20242e40" transform="translate(312 982.584) rotate(0) scale(0.047999997)">
<use href="#path19" transform="translate(0 0)"/>
</g>
</g>
<g>
<g data-source-text="ï€" fill="#20242e40" transform="translate(384 982.584) rotate(0) scale(0.047999997)">
<use href="#path19" transform="translate(0 0)"/>
</g>
</g>
<g>
<g data-source-text="ï€" fill="#20242e40" transform="translate(456 982.584) rotate(0) scale(0.047999997)">
<use href="#path19" transform="translate(0 0)"/>
</g>
</g>
<g>
<g data-source-text="ï€" fill="#20242e40" transform="translate(528 982.584) rotate(0) scale(0.047999997)">
<use href="#path19" transform="translate(0 0)"/>
</g>
</g>
<g>
<g data-source-text="ï€" fill="#20242e40" transform="translate(600 982.584) rotate(0) scale(0.047999997)">
<use href="#path19" transform="translate(0 0)"/>
</g>
</g>
<g>
<g data-source-text="ï€" fill="#20242e40" transform="translate(672 982.584) rotate(0) scale(0.047999997)">
<use href="#path19" transform="translate(0 0)"/>
</g>
</g>
<g>
<g data-source-text="ï€" fill="#20242e40" transform="translate(744 982.584) rotate(0) scale(0.047999997)">
<use href="#path19" transform="translate(0 0)"/>
</g>
</g>
<g>
<g data-source-text="ï€" fill="#20242e40" transform="translate(816 982.584) rotate(0) scale(0.047999997)">
<use href="#path19" transform="translate(0 0)"/>
</g>
</g>
<g>
<g data-source-text="ï€" fill="#20242e40" transform="translate(888 982.584) rotate(0) scale(0.047999997)">
<use href="#path19" transform="translate(0 0)"/>
</g>
</g>
<g>
<g data-source-text="ï€" fill="#20242e40" transform="translate(960 982.584) rotate(0) scale(0.047999997)">
<use href="#path19" transform="translate(0 0)"/>
</g>
</g>
<g>
<g data-source-text="ï€" fill="#20242e40" transform="translate(1032 982.584) rotate(0) scale(0.047999997)">
<use href="#path19" transform="translate(0 0)"/>
</g>
</g>
<g>
<g data-source-text="ï€" fill="#20242e40" transform="translate(1104 982.584) rotate(0) scale(0.047999997)">
<use href="#path19" transform="translate(0 0)"/>
</g>
</g>
<g>
<g data-source-text="ï€" fill="#20242e40" transform="translate(1176 982.584) rotate(0) scale(0.047999997)">
<use href="#path19" transform="translate(0 0)"/>
</g>
</g>
<g>
<g data-source-text="ï€" fill="#20242e40" transform="translate(1248 982.584) rotate(0) scale(0.047999997)">
<use href="#path19" transform="translate(0 0)"/>
</g>
</g>
<g>
<g data-source-text="U+1D1D0" fill="#20242e" transform="translate(30 1049.292) rotate(0) scale(0.023999998)">
<use href="#path17" transform="translate(0 0)"/>
<use href="#path18" transform="translate(500 0)"/>
<use href="#path2" transform="translate(1000 0)"/>
<use href="#path14" transform="translate(1500 0)"/>
<use href="#path2" transform="translate(2000 0)"/>
<use href="#path14" transform="translate(2500 0)"/>
<use href="#path1" transform="translate(3000 0)"/>
</g>
</g>
<g>
<g data-source-text="ï€" fill="#20242e40" transform="translate(168 1054.584) rotate(0) scale(0.047999997)">
<use href="#path19" transform="translate(0 0)"/>
</g>
</g>
<g>
<g data-source-text="ï€" fill="#20242e40" transform="translate(240 1054.584) rotate(0) scale(0.047999997)">
<use href="#path19" transform="translate(0 0)"/>
</g>
</g>
<g>
<g data-source-text="ï€" fill="#20242e40" transform="translate(312 1054.584) rotate(0) scale(0.047999997)">
<use href="#path19" transform="translate(0 0)"/>
</g>
</g>
<g>
<g data-source-text="ï€" fill="#20242e40" transform="translate(384 1054.584) rotate(0) scale(0.047999997)">
<use href="#path19" transform="translate(0 0)"/>
</g>
</g>
<g>
<g data-source-text="ï€" fill="#20242e40" transform="translate(456 1054.584) rotate(0) scale(0.047999997)">
<use href="#path19" transform="translate(0 0)"/>
</g>
</g>
<g>
<g data-source-text="ï€" fill="#20242e40" transform="translate(528 1054.584) rotate(0) scale(0.047999997)">
<use href="#path19" transform="translate(0 0)"/>
</g>
</g>
<g>
<g data-source-text="ï€" fill="#20242e40" transform="translate(600 1054.584) rotate(0) scale(0.047999997)">
<use href="#path19" transform="translate(0 0)"/>
</g>
</g>
<g>
<g data-source-text="ï€" fill="#20242e40" transform="translate(672 1054.584) rotate(0) scale(0.047999997)">
<use href="#path19" transform="translate(0 0)"/>
</g>
</g>
<g>
<g data-source-text="ï€" fill="#20242e40" transform="translate(744 1054.584) rotate(0) scale(0.047999997)">
<use href="#path19" transform="translate(0 0)"/>
</g>
</g>
<g>
<g data-source-text="ï€" fill="#20242e40" transform="translate(816 1054.584) rotate(0) scale(0.047999997)">
<use href="#path19" transform="translate(0 0)"/>
</g>
</g>
<g>
<g data-source-text="ï€" fill="#20242e40" transform="translate(888 1054.584) rotate(0) scale(0.047999997)">
<use href="#path19" transform="translate(0 0)"/>
</g>
</g>
<g>
<g data-source-text="ï€" fill="#20242e40" transform="translate(960 1054.584) rotate(0) scale(0.047999997)">
<use href="#path19" transform="translate(0 0)"/>
</g>
</g>
<g>
<g data-source-text="ï€" fill="#20242e40" transform="translate(1032 1054.584) rotate(0) scale(0.047999997)">
<use href="#path19" transform="translate(0 0)"/>
</g>
</g>
<g>
<g data-source-text="ï€" fill="#20242e40" transform="translate(1104 1054.584) rotate(0) scale(0.047999997)">
<use href="#path19" transform="translate(0 0)"/>
</g>
</g>
<g>
<g data-source-text="ï€" fill="#20242e40" transform="translate(1176 1054.584) rotate(0) scale(0.047999997)">
<use href="#path19" transform="translate(0 0)"/>
</g>
</g>
<g>
<g data-source-text="ï€" fill="#20242e40" transform="translate(1248 1054.584) rotate(0) scale(0.047999997)">
<use href="#path19" transform="translate(0 0)"/>
</g>
</g>
<g>
<g data-source-text="U+1D1E0" fill="#20242e" transform="translate(30 1121.292) rotate(0) scale(0.023999998)">
<use href="#path17" transform="translate(0 0)"/>
<use href="#path18" transform="translate(500 0)"/>
<use href="#path2" transform="translate(1000 0)"/>
<use href="#path14" transform="translate(1500 0)"/>
<use href="#path2" transform="translate(2000 0)"/>
<use href="#path15" transform="translate(2500 0)"/>
<use href="#path1" transform="translate(3000 0)"/>
</g>
</g>
<g>
<g data-source-text="ï€" fill="#20242e40" transform="translate(168 1126.584) rotate(0) scale(0.047999997)">
<use href="#path19" transform="translate(0 0)"/>
</g>
</g>
<g>
<g data-source-text="ï€" fill="#20242e40" transform="translate(240 1126.584) rotate(0) scale(0.047999997)">
<use href="#path19" transform="translate(0 0)"/>
</g>
</g>
<g>
<g data-source-text="ï€" fill="#20242e40" transform="translate(312 1126.584) rotate(0) scale(0.047999997)">
<use href="#path19" transform="translate(0 0)"/>
</g>
</g>
<g>
<g data-source-text="ï€" fill="#20242e40" transform="translate(384 1126.584) rotate(0) scale(0.047999997)">
<use href="#path19" transform="translate(0 0)"/>
</g>
</g>
<g>
<g data-source-text="ï€" fill="#20242e40" transform="translate(456 1126.584) rotate(0) scale(0.047999997)">
<use href="#path19" transform="translate(0 0)"/>
</g>
</g>
<g>
<g data-source-text="ï€" fill="#20242e40" transform="translate(528 1126.584) rotate(0) scale(0.047999997)">
<use href="#path19" transform="translate(0 0)"/>
</g>
</g>
<g>
<g data-source-text="ï€" fill="#20242e40" transform="translate(600 1126.584) rotate(0) scale(0.047999997)">
<use href="#path19" transform="translate(0 0)"/>
</g>
</g>
<g>
<g data-source-text="ï€" fill="#20242e40" transform="translate(672 1126.584) rotate(0) scale(0.047999997)">
<use href="#path19" transform="translate(0 0)"/>
</g>
</g>
<g>
<g data-source-text="ï€" fill="#20242e40" transform="translate(744 1126.584) rotate(0) scale(0.047999997)">
<use href="#path19" transform="translate(0 0)"/>
</g>
</g>
<g>
<g data-source-text="ï€" fill="#20242e40" transform="translate(816 1126.584) rotate(0) scale(0.047999997)">
<use href="#path19" transform="translate(0 0)"/>
</g>
</g>
<g>
<g data-source-text="ï€" fill="#20242e40" transform="translate(888 1126.584) rotate(0) scale(0.047999997)">
<use href="#path19" transform="translate(0 0)"/>
</g>
</g>
<g>
<g data-source-text="ï€" fill="#20242e40" transform="translate(960 1126.584) rotate(0) scale(0.047999997)">
<use href="#path19" transform="translate(0 0)"/>
</g>
</g>
<g>
<g data-source-text="ï€" fill="#20242e40" transform="translate(1032 1126.584) rotate(0) scale(0.047999997)">
<use href="#path19" transform="translate(0 0)"/>
</g>
</g>
<g>
<g data-source-text="ï€" fill="#20242e40" transform="translate(1104 1126.584) rotate(0) scale(0.047999997)">
<use href="#path19" transform="translate(0 0)"/>
</g>
</g>
<g>
<g data-source-text="ï€" fill="#20242e40" transform="translate(1176 1126.584) rotate(0) scale(0.047999997)">
<use href="#path19" transform="translate(0 0)"/>
</g>
</g>
<g>
<g data-source-text="ï€" fill="#20242e40" transform="translate(1248 1126.584) rotate(0) scale(0.047999997)">
<use href="#path19" transform="translate(0 0)"/>
</g>
</g>
<g>
<g data-source-text="U+1D1F0" fill="#20242e" transform="translate(30 1193.292) rotate(0) scale(0.023999998)">
<use href="#path17" transform="translate(0 0)"/>
<use href="#path18" transform="translate(500 0)"/>
<use href="#path2" transform="translate(1000 0)"/>
<use href="#path14" transform="translate(1500 0)"/>
<use href="#path2" transform="translate(2000 0)"/>
<use href="#path16" transform="translate(2500 0)"/>
<use href="#path1" transform="translate(3000 0)"/>
</g>
</g>
<g>
<g data-source-text="ï€" fill="#20242e40" transform="translate(168 1198.584) rotate(0) scale(0.047999997)">
<use href="#path19" transform="translate(0 0)"/>
</g>
</g>
<g>
<g data-source-text="ï€" fill="#20242e40" transform="translate(240 1198.584) rotate(0) scale(0.047999997)">
<use href="#path19" transform="translate(0 0)"/>
</g>
</g>
<g>
<g data-source-text="ï€" fill="#20242e40" transform="translate(312 1198.584) rotate(0) scale(0.047999997)">
<use href="#path19" transform="translate(0 0)"/>
</g>
</g>
<g>
<g data-source-text="ï€" fill="#20242e40" transform="translate(384 1198.584) rotate(0) scale(0.047999997)">
<use href="#path19" transform="translate(0 0)"/>
</g>
</g>
<g>
<g data-source-text="ï€" fill="#20242e40" transform="translate(456 1198.584) rotate(0) scale(0.047999997)">
<use href="#path19" transform="translate(0 0)"/>
</g>
</g>
<g>
<g data-source-text="ï€" fill="#20242e40" transform="translate(528 1198.584) rotate(0) scale(0.047999997)">
<use href="#path19" transform="translate(0 0)"/>
</g>
</g>
<g>
<g data-source-text="ï€" fill="#20242e40" transform="translate(600 1198.584) rotate(0) scale(0.047999997)">
<use href="#path19" transform="translate(0 0)"/>
</g>
</g>
<g>
<g data-source-text="ï€" fill="#20242e40" transform="translate(672 1198.584) rotate(0) scale(0.047999997)">
<use href="#path19" transform="translate(0 0)"/>
</g>
</g>
<g>
<g data-source-text="ï€" fill="#20242e40" transform="translate(744 1198.584) rotate(0) scale(0.047999997)">
<use href="#path19" transform="translate(0 0)"/>
</g>
</g>
<g>
<g data-source-text="ï€" fill="#20242e40" transform="translate(816 1198.584) rotate(0) scale(0.047999997)">
<use href="#path19" transform="translate(0 0)"/>
</g>
</g>
<g>
<g data-source-text="ï€" fill="#20242e40" transform="translate(888 1198.584) rotate(0) scale(0.047999997)">
<use href="#path19" transform="translate(0 0)"/>
</g>
</g>
<g>
<g data-source-text="ï€" fill="#20242e40" transform="translate(960 1198.584) rotate(0) scale(0.047999997)">
<use href="#path19" transform="translate(0 0)"/>
</g>
</g>
<g>
<g data-source-text="ï€" fill="#20242e40" transform="translate(1032 1198.584) rotate(0) scale(0.047999997)">
<use href="#path19" transform="translate(0 0)"/>
</g>
</g>
<g>
<g data-source-text="ï€" fill="#20242e40" transform="translate(1104 1198.584) rotate(0) scale(0.047999997)">
<use href="#path19" transform="translate(0 0)"/>
</g>
</g>
<g>
<g data-source-text="ï€" fill="#20242e40" transform="translate(1176 1198.584) rotate(0) scale(0.047999997)">
<use href="#path19" transform="translate(0 0)"/>
</g>
</g>
<g>
<g data-source-text="ï€" fill="#20242e40" transform="translate(1248 1198.584) rotate(0) scale(0.047999997)">
<use href="#path19" transform="translate(0 0)"/>
</g>
</g>
</svg>