<?xml version="1.0" encoding="UTF-8" standalone="no"?>
<svg height="648" viewBox="0 0 1296 648" width="1296" xmlns="http://www.w3.org/2000/svg">
<defs>
<path d="M 250 8 Q 223 8 196 3 Q 169 -2 145 -15 Q 121 -28 102.5 -48.5 Q 84 -69 72.5 -94 Q 61 -119 56.5 -146 Q 52 -173 52 -200 L 52 -535 Q 52 -562 56.5 -589 Q 61 -616 72.5 -641 Q 84 -666 102.5 -686.5 Q 121 -707 145 -720 Q 169 -733 196 -738 Q 223 -743 250 -743 Q 277 -743 304 -738 Q 331 -733 355 -720 Q 379 -707 397.5 -686.5 Q 416 -666 427.5 -641 Q 439 -616 443.5 -589 Q 448 -562 448 -535 L 448 -200 Q 448 -173 443.5 -146 Q 439 -119 427.5 -94 Q 416 -69 397.5 -48.5 Q 379 -28 355 -15 Q 331 -2 304 3 Q 277 8 250 8 Z M 153 -337 L 347 -491 L 347 -535 Q 347 -557 342.5 -578.5 Q 338 -600 325.5 -618 Q 313 -636 292.5 -645.5 Q 272 -655 250 -655 Q 228 -655 207.5 -645.5 Q 187 -636 174.5 -618 Q 162 -600 157.5 -578.5 Q 153 -557 153 -535 Z M 250 -80 Q 272 -80 292.5 -89.5 Q 313 -99 325.5 -117 Q 338 -135 342.5 -156.5 Q 347 -178 347 -200 L 347 -398 L 153 -244 L 153 -200 Q 153 -178 157.5 -156.5 Q 162 -135 174.5 -117 Q 187 -99 207.5 -89.5 Q 228 -80 250 -80 Z " id="path1"/>
<path d="M 230 0 L 230 -631 L 110 -528 L 55 -584 L 230 -735 L 330 -735 L 330 0 Z " id="path2"/>
<path d="M 440 0 L 60 0 L 60 -1 Q 60 -27 61 -53.5 Q 62 -80 66 -106.5 Q 70 -133 77.5 -158.5 Q 85 -184 96.5 -207.5 Q 108 -231 123 -253 Q 138 -275 156 -294.5 Q 174 -314 194 -331 Q 214 -348 235.5 -364 Q 257 -380 277.5 -397 Q 298 -414 313 -435.5 Q 328 -457 335.5 -483 Q 343 -509 343 -535 Q 343 -557 339 -578 Q 335 -599 323.5 -617 Q 312 -635 292 -645 Q 272 -655 251 -655 Q 231 -655 212.5 -647.5 Q 194 -640 182 -625 Q 170 -610 164.5 -591 Q 159 -572 159 -552 L 159 -548 L 58 -548 L 58 -555 Q 58 -581 64 -605.5 Q 70 -630 81.5 -652.5 Q 93 -675 111.5 -693 Q 130 -711 152.5 -722.5 Q 175 -734 200.5 -738.5 Q 226 -743 251 -743 Q 278 -743 304.5 -737.5 Q 331 -732 354.5 -719 Q 378 -706 396 -685.5 Q 414 -665 424.5 -640.5 Q 435 -616 439.5 -589 Q 444 -562 444 -535 Q 444 -501 435 -468 Q 426 -435 407.5 -406 Q 389 -377 364 -353.5 Q 339 -330 312.5 -308.5 Q 286 -287 261 -264 Q 236 -241 216.5 -213 Q 197 -185 184 -153.5 Q 171 -122 166 -88 L 440 -88 Z " id="path3"/>
<path d="M 253 8 Q 227 8 201 4 Q 175 -0 151.5 -11.5 Q 128 -23 108.5 -40.5 Q 89 -58 76 -81 Q 63 -104 56.5 -129.5 Q 50 -155 50 -181 L 50 -187 L 151 -187 L 151 -184 Q 151 -163 157.5 -143 Q 164 -123 178 -108 Q 192 -93 212 -86.5 Q 232 -80 253 -80 Q 275 -80 296 -88.5 Q 317 -97 330.5 -114.5 Q 344 -132 349.5 -154 Q 355 -176 355 -198 Q 355 -217 351 -235.5 Q 347 -254 338.5 -271 Q 330 -288 316.5 -301 Q 303 -314 286 -322 Q 269 -330 250 -332 Q 231 -334 212 -334 L 212 -422 Q 229 -422 246 -424 Q 263 -426 278.5 -433 Q 294 -440 306 -452.5 Q 318 -465 325.5 -480.5 Q 333 -496 336 -513 Q 339 -530 339 -547 Q 339 -566 334.5 -585.5 Q 330 -605 319.5 -621 Q 309 -637 291 -646 Q 273 -655 253 -655 Q 234 -655 216.5 -647 Q 199 -639 187.5 -624 Q 176 -609 171.5 -590 Q 167 -571 167 -553 L 167 -548 L 66 -548 L 66 -556 Q 66 -581 71.5 -605.5 Q 77 -630 88 -652 Q 99 -674 117 -692.5 Q 135 -711 157 -722.5 Q 179 -734 203.5 -738.5 Q 228 -743 253 -743 Q 278 -743 303.5 -738 Q 329 -733 351 -721 Q 373 -709 390 -690 Q 407 -671 418 -648 Q 429 -625 434.5 -600 Q 440 -575 440 -550 Q 440 -524 434 -498.5 Q 428 -473 415.5 -450.5 Q 403 -428 384.5 -409.5 Q 366 -391 343 -379 Q 369 -368 390.5 -348.5 Q 412 -329 427 -304.5 Q 442 -280 449 -252 Q 456 -224 456 -196 Q 456 -168 450 -141.5 Q 444 -115 432 -91 Q 420 -67 401 -47 Q 382 -27 358 -14.5 Q 334 -2 307 3 Q 280 8 253 8 Z " id="path4"/>
<path d="M 282 0 L 282 -188 L 52 -188 L 52 -275 L 276 -735 L 385 -735 L 161 -275 L 282 -275 L 282 -435 L 382 -435 L 382 -275 L 440 -275 L 440 -188 L 382 -188 L 382 0 Z " id="path5"/>
<path d="M 252 8 Q 227 8 202.5 3.5 Q 178 -1 155.5 -12 Q 133 -23 115 -41 Q 97 -59 85 -80.5 Q 73 -102 66.5 -126.5 Q 60 -151 59 -176 L 159 -176 Q 161 -158 167 -139.5 Q 173 -121 185.5 -107 Q 198 -93 216 -86.5 Q 234 -80 252 -80 Q 269 -80 285 -87 Q 301 -94 312 -107 Q 323 -120 330 -135.5 Q 337 -151 340.5 -168 Q 344 -185 345.5 -202 Q 347 -219 347 -236 Q 347 -252 346 -269 Q 345 -286 341 -302 Q 337 -318 331 -334 Q 325 -350 314 -363 Q 303 -376 287.5 -383.5 Q 272 -391 256 -391 Q 240 -391 224.5 -387 Q 209 -383 196 -373.5 Q 183 -364 176 -349.5 Q 169 -335 168 -319 L 68 -319 L 68 -735 L 421 -735 L 421 -647 L 168 -647 L 168 -464 Q 189 -472 211 -475 Q 233 -478 256 -478 Q 285 -478 313.5 -470.5 Q 342 -463 365.5 -445.5 Q 389 -428 405.5 -403 Q 422 -378 431.5 -350.5 Q 441 -323 444.5 -294 Q 448 -265 448 -235 Q 448 -206 444 -176.5 Q 440 -147 430.5 -119 Q 421 -91 404 -66.5 Q 387 -42 363.5 -24.5 Q 340 -7 311 0.5 Q 282 8 252 8 Z " id="path6"/>
<path d="M 250 8 Q 221 8 192.5 1.5 Q 164 -5 140 -21 Q 116 -37 98.5 -60.5 Q 81 -84 70.5 -111 Q 60 -138 56 -166.5 Q 52 -195 52 -224 Q 52 -268 60 -311 Q 68 -354 81.5 -395.5 Q 95 -437 113 -477 Q 131 -517 150 -556 L 238 -735 L 347 -735 L 240 -517 Q 228 -493 216.5 -468.5 Q 205 -444 195 -419 Q 214 -438 239 -447 Q 264 -456 291 -456 Q 317 -456 342.5 -447 Q 368 -438 386.5 -419.5 Q 405 -401 417 -377.5 Q 429 -354 436 -328.5 Q 443 -303 445.5 -276.5 Q 448 -250 448 -224 Q 448 -195 444 -166.5 Q 440 -138 429.5 -111 Q 419 -84 401.5 -60.5 Q 384 -37 360 -21 Q 336 -5 307.5 1.5 Q 279 8 250 8 Z M 250 -80 Q 266 -80 282 -85.5 Q 298 -91 309.5 -102.5 Q 321 -114 328.5 -129 Q 336 -144 340 -159.5 Q 344 -175 345.5 -191.5 Q 347 -208 347 -224 Q 347 -240 345.5 -256.5 Q 344 -273 340 -289 Q 336 -305 328.5 -319.5 Q 321 -334 309.5 -345.5 Q 298 -357 282 -362.5 Q 266 -368 250 -368 Q 235 -368 221 -363.5 Q 207 -359 195.5 -349.5 Q 184 -340 176.5 -327.5 Q 169 -315 164 -301 Q 159 -287 156.5 -272.5 Q 154 -258 153 -243 L 153 -224 Q 153 -208 154.5 -191.5 Q 156 -175 160 -159.5 Q 164 -144 171.5 -129 Q 179 -114 190.5 -102.5 Q 202 -91 218 -85.5 Q 234 -80 250 -80 Z " id="path7"/>
<path d="M 242 0 L 138 0 L 336 -647 L 60 -647 L 60 -735 L 440 -735 L 440 -647 Z " id="path8"/>
<path d="M 250 8 Q 225 8 200 4 Q 175 -0 152 -10 Q 129 -20 109.5 -37 Q 90 -54 77.5 -75.5 Q 65 -97 58.5 -121.5 Q 52 -146 52 -172 Q 52 -203 62 -232.5 Q 72 -262 88.5 -288 Q 105 -314 127 -336 Q 149 -358 174 -378 Q 152 -396 132.5 -417 Q 113 -438 98.5 -462.5 Q 84 -487 76 -514.5 Q 68 -542 68 -570 Q 68 -594 73.5 -617 Q 79 -640 90.5 -661 Q 102 -682 119.5 -698.5 Q 137 -715 158 -725 Q 179 -735 202.5 -739 Q 226 -743 250 -743 Q 274 -743 297.5 -739 Q 321 -735 342 -725 Q 363 -715 380.5 -698.5 Q 398 -682 409.5 -661 Q 421 -640 426.5 -617 Q 432 -594 432 -570 Q 432 -542 424 -514.5 Q 416 -487 401.5 -462.5 Q 387 -438 367.5 -417 Q 348 -396 326 -378 Q 351 -358 373 -336 Q 395 -314 411.5 -288 Q 428 -262 438 -232.5 Q 448 -203 448 -172 Q 448 -146 441.5 -121.5 Q 435 -97 422.5 -75.5 Q 410 -54 390.5 -37 Q 371 -20 348 -10 Q 325 -0 300 4 Q 275 8 250 8 Z M 250 -435 Q 266 -447 280.5 -461.5 Q 295 -476 306.5 -493 Q 318 -510 325 -529.5 Q 332 -549 332 -569 Q 332 -586 326.5 -602.5 Q 321 -619 310 -631.5 Q 299 -644 283 -649.5 Q 267 -655 250 -655 Q 233 -655 217 -649.5 Q 201 -644 190 -631.5 Q 179 -619 173.5 -602.5 Q 168 -586 168 -569 Q 168 -549 175 -529.5 Q 182 -510 193.5 -493 Q 205 -476 219.5 -461.5 Q 234 -447 250 -435 Z M 250 -80 Q 269 -80 287.5 -85.5 Q 306 -91 320 -104 Q 334 -117 340.5 -135.5 Q 347 -154 347 -173 Q 347 -196 338.5 -217.5 Q 330 -239 316.5 -257.5 Q 303 -276 285.5 -291 Q 268 -306 250 -320 Q 232 -306 214.5 -291 Q 197 -276 183.5 -257.5 Q 170 -239 161.5 -217.5 Q 153 -196 153 -173 Q 153 -154 159.5 -135.5 Q 166 -117 180 -104 Q 194 -91 212.5 -85.5 Q 231 -80 250 -80 Z " id="path9"/>
<path d="M 262 0 L 153 0 L 260 -218 Q 272 -242 283.5 -266.5 Q 295 -291 305 -316 Q 286 -297 261 -288 Q 236 -279 209 -279 Q 183 -279 157.5 -288 Q 132 -297 113.5 -315.5 Q 95 -334 83 -357.5 Q 71 -381 64 -406.5 Q 57 -432 54.5 -458.5 Q 52 -485 52 -511 Q 52 -540 56 -568.5 Q 60 -597 70.5 -624 Q 81 -651 98.5 -674.5 Q 116 -698 140 -714 Q 164 -730 192.5 -736.5 Q 221 -743 250 -743 Q 279 -743 307.5 -736.5 Q 336 -730 360 -714 Q 384 -698 401.5 -674.5 Q 419 -651 429.5 -624 Q 440 -597 444 -568.5 Q 448 -540 448 -511 Q 448 -467 440 -424 Q 432 -381 418.5 -339.5 Q 405 -298 387 -258 Q 369 -218 350 -179 Z M 250 -367 Q 265 -367 279 -371.5 Q 293 -376 304.5 -385.5 Q 316 -395 323.5 -407.5 Q 331 -420 336 -434 Q 341 -448 343.5 -462.5 Q 346 -477 347 -492 L 347 -511 Q 347 -527 345.5 -543.5 Q 344 -560 340 -575.5 Q 336 -591 328.5 -606 Q 321 -621 309.5 -632.5 Q 298 -644 282 -649.5 Q 266 -655 250 -655 Q 234 -655 218 -649.5 Q 202 -644 190.5 -632.5 Q 179 -621 171.5 -606 Q 164 -591 160 -575.5 Q 156 -560 154.5 -543.5 Q 153 -527 153 -511 Q 153 -495 154.5 -478.5 Q 156 -462 160 -446 Q 164 -430 171.5 -415.5 Q 179 -401 190.5 -389.5 Q 202 -378 218 -372.5 Q 234 -367 250 -367 Z " id="path10"/>
<path d="M 39 0 L 192 -735 L 308 -735 L 461 0 L 358 0 L 326 -172 L 174 -172 L 142 0 Z M 309 -260 L 265 -490 Q 262 -511 258 -531.5 Q 254 -552 250 -572 Q 246 -552 242 -531.5 Q 238 -511 235 -490 L 191 -260 Z " id="path11"/>
<path d="M 60 0 L 60 -735 L 234 -735 Q 261 -735 287 -730.5 Q 313 -726 336 -714 Q 359 -702 377.5 -682.5 Q 396 -663 408 -639.5 Q 420 -616 424.5 -590 Q 429 -564 429 -538 Q 429 -515 425 -492 Q 421 -469 410.5 -448.5 Q 400 -428 383.5 -411 Q 367 -394 347 -383 Q 372 -373 393.5 -355.5 Q 415 -338 429.5 -314.5 Q 444 -291 450 -264 Q 456 -237 456 -210 Q 456 -181 450 -152.5 Q 444 -124 430 -98.5 Q 416 -73 394.5 -53.5 Q 373 -34 347 -21.5 Q 321 -9 292 -4.5 Q 263 -0 234 0 Z M 161 -424 L 234 -424 Q 255 -424 274.5 -432.5 Q 294 -441 306.5 -457.5 Q 319 -474 324 -494.5 Q 329 -515 329 -536 Q 329 -557 324 -577.5 Q 319 -598 306.5 -614.5 Q 294 -631 274.5 -639 Q 255 -647 234 -647 L 161 -647 Z M 161 -88 L 234 -88 Q 251 -88 267 -91 Q 283 -94 297.5 -101.5 Q 312 -109 323.5 -121 Q 335 -133 342.5 -148 Q 350 -163 352.5 -179 Q 355 -195 355 -212 Q 355 -228 352.5 -244.5 Q 350 -261 343 -276 Q 336 -291 324.5 -303 Q 313 -315 298 -322.5 Q 283 -330 267 -333 Q 251 -336 234 -336 L 161 -336 Z " id="path12"/>
<path d="M 247 8 Q 220 8 193 2.5 Q 166 -3 142.5 -16 Q 119 -29 101 -49.5 Q 83 -70 72 -94.5 Q 61 -119 56.5 -146 Q 52 -173 52 -200 L 52 -535 Q 52 -562 56.5 -589 Q 61 -616 72 -640.5 Q 83 -665 101 -685.5 Q 119 -706 142.5 -719 Q 166 -732 193 -737.5 Q 220 -743 247 -743 Q 273 -743 298 -738.5 Q 323 -734 346 -723 Q 369 -712 387.5 -694 Q 406 -676 418 -653.5 Q 430 -631 436 -606 Q 442 -581 442 -555 L 442 -548 L 341 -548 L 341 -552 Q 341 -572 335.5 -591.5 Q 330 -611 317.5 -626 Q 305 -641 286 -648 Q 267 -655 247 -655 Q 225 -655 205 -645.5 Q 185 -636 173 -618 Q 161 -600 157 -578.5 Q 153 -557 153 -535 L 153 -200 Q 153 -178 157 -156.5 Q 161 -135 173 -117 Q 185 -99 205 -89.5 Q 225 -80 247 -80 Q 267 -80 286 -87 Q 305 -94 317.5 -109 Q 330 -124 335.5 -143.5 Q 341 -163 341 -183 L 341 -187 L 442 -187 L 442 -180 Q 442 -154 436 -129 Q 430 -104 418 -81.5 Q 406 -59 387.5 -41 Q 369 -23 346 -12 Q 323 -1 298 3.5 Q 273 8 247 8 Z " id="path13"/>
<path d="M 60 0 L 60 -735 L 219 -735 Q 249 -735 279 -730 Q 309 -725 336.5 -712 Q 364 -699 386 -678.5 Q 408 -658 422 -631.5 Q 436 -605 442 -575 Q 448 -545 448 -515 L 448 -220 Q 448 -190 442 -160 Q 436 -130 422 -103.5 Q 408 -77 386 -56.5 Q 364 -36 336.5 -23 Q 309 -10 279 -5 Q 249 -0 219 0 Z M 161 -88 L 219 -88 Q 237 -88 254 -91 Q 271 -94 286.5 -102.5 Q 302 -111 314 -124 Q 326 -137 333.5 -152.5 Q 341 -168 344 -185.5 Q 347 -203 347 -220 L 347 -515 Q 347 -532 344 -549.5 Q 341 -567 333.5 -582.5 Q 326 -598 314 -611 Q 302 -624 286.5 -632.5 Q 271 -641 254 -644 Q 237 -647 219 -647 L 161 -647 Z " id="path14"/>
<path d="M 68 0 L 68 -735 L 440 -735 L 440 -647 L 169 -647 L 169 -426 L 383 -426 L 383 -338 L 169 -338 L 169 -88 L 440 -88 L 440 0 Z " id="path15"/>
<path d="M 91 0 L 91 -735 L 440 -735 L 440 -647 L 191 -647 L 191 -426 L 383 -426 L 383 -338 L 191 -338 L 191 0 Z " id="path16"/>
<path d="M 250 8 Q 223 8 196.5 2.5 Q 170 -3 147 -16.5 Q 124 -30 106.5 -50.5 Q 89 -71 78.5 -95.5 Q 68 -120 64 -146.5 Q 60 -173 60 -200 L 60 -735 L 161 -735 L 161 -200 Q 161 -186 162.5 -172 Q 164 -158 168 -144.5 Q 172 -131 179.5 -118.5 Q 187 -106 197.5 -97 Q 208 -88 222 -84 Q 236 -80 250 -80 Q 264 -80 278 -84 Q 292 -88 302.5 -97 Q 313 -106 320.5 -118.5 Q 328 -131 332 -144.5 Q 336 -158 337.5 -172 Q 339 -186 339 -200 L 339 -735 L 440 -735 L 440 -200 Q 440 -173 436 -146.5 Q 432 -120 421.5 -95.5 Q 411 -71 393.5 -50.5 Q 376 -30 353 -16.5 Q 330 -3 303.5 2.5 Q 277 8 250 8 Z " id="path17"/>
<path d="M 300 -143 L 200 -143 L 200 -296 L 60 -296 L 60 -384 L 200 -384 L 200 -537 L 300 -537 L 300 -384 L 440 -384 L 440 -296 L 300 -296 Z " id="path18"/>
<path d="M 64 0 L 64 -735 L 436 -735 L 436 0 Z M 94 -321 L 401 -705 L 308 -705 L 94 -438 Z M 94 -478 L 276 -705 L 182 -705 L 94 -595 Z M 94 -634 L 151 -705 L 94 -705 Z M 94 -165 L 406 -554 L 406 -671 L 94 -282 Z M 94 -30 L 111 -30 L 406 -398 L 406 -515 L 94 -126 Z M 143 -30 L 236 -30 L 406 -242 L 406 -359 Z M 268 -30 L 362 -30 L 406 -85 L 406 -202 Z M 393 -30 L 406 -30 L 406 -46 Z " id="path19"/>
<path d="M 97 -408 L 97 -714 L 403 -714 L 403 -408 Z M 153 -458 L 347 -458 L 347 -664 L 153 -664 Z " id="path20"/>
<path d="M 373 -387 L 73 -686 L 127 -735 L 427 -436 Z " id="path21"/>
<path d="M 127 -387 L 73 -436 L 373 -735 L 427 -686 Z " id="path22"/>
<path d="M 168 200 L 168 130 Q 180 130 192.5 127.5 Q 205 125 216 119.5 Q 227 114 236 105 Q 245 96 251 85 Q 257 74 260 60 Q 263 46 263 37 L 263 27 Q 263 15 261.5 2.5 Q 260 -10 255.5 -22 Q 251 -34 243 -43.5 Q 235 -53 224.5 -60 Q 214 -67 200 -71.5 Q 186 -76 178 -76 L 168 -76 L 168 -146 Q 181 -146 194.5 -144.5 Q 208 -143 221 -140 Q 234 -137 246.5 -132 Q 259 -127 270 -120 Q 281 -113 291 -104 Q 301 -95 309 -84.5 Q 317 -74 322.5 -62 Q 328 -50 332 -37 Q 336 -24 338 -8.5 Q 340 7 340 16 L 340 27 Q 340 40 338.5 53.5 Q 337 67 334.5 80 Q 332 93 327 105.5 Q 322 118 315 129.5 Q 308 141 299 150.5 Q 290 160 279 168 Q 268 176 256.5 182 Q 245 188 232 192 Q 219 196 203.5 198 Q 188 200 180 200 Z " id="path23"/>
<path d="M 75 -113 L 21 -163 L 425 -567 L 479 -517 Z M 118 -401 Q 104 -401 90.5 -405.5 Q 77 -410 66.5 -420 Q 56 -430 52 -443.5 Q 48 -457 48 -472 Q 48 -486 52 -499.5 Q 56 -513 66.5 -523.5 Q 77 -534 90.5 -538 Q 104 -542 118 -542 Q 133 -542 146.5 -538 Q 160 -534 170 -523.5 Q 180 -513 184.5 -499.5 Q 189 -486 189 -472 Q 189 -457 184.5 -443.5 Q 180 -430 170 -420 Q 160 -410 146.5 -405.5 Q 133 -401 118 -401 Z M 382 -138 Q 367 -138 353.5 -142 Q 340 -146 330 -156.5 Q 320 -167 315.5 -180.5 Q 311 -194 311 -208 Q 311 -223 315.5 -236.5 Q 320 -250 330 -260 Q 340 -270 353.5 -274.5 Q 367 -279 382 -279 Q 396 -279 409.5 -274.5 Q 423 -270 433.5 -260 Q 444 -250 448 -236.5 Q 452 -223 452 -208 Q 452 -194 448 -180.5 Q 444 -167 433.5 -156.5 Q 423 -146 409.5 -142 Q 396 -138 382 -138 Z " id="path24"/>
<path d="M 250 -387 Q 236 -387 222 -391 Q 208 -395 198 -405.5 Q 188 -416 184 -429.5 Q 180 -443 180 -458 Q 180 -472 184 -485.5 Q 188 -499 198 -509.5 Q 208 -520 222 -524 Q 236 -528 250 -528 Q 264 -528 278 -524 Q 292 -520 302 -509.5 Q 312 -499 316.5 -485.5 Q 321 -472 321 -458 Q 321 -443 316.5 -429.5 Q 312 -416 302 -405.5 Q 292 -395 278 -391 Q 264 -387 250 -387 Z M 380 204 L 252 -295 L 327 -314 L 455 184 Z M 150 213 Q 141 213 132 212 Q 123 211 115 210 Q 86 205 59.5 192 Q 33 179 14.5 156.5 Q -4 134 -12.5 106 Q -21 78 -21 48 Q -21 23 -15 -2.5 Q -9 -28 1.5 -52 Q 12 -76 26.5 -97.5 Q 41 -119 57.5 -138.5 Q 74 -158 93 -176.5 Q 112 -195 127 -216 Q 142 -237 150 -261.5 Q 158 -286 162 -312 L 239 -299 Q 235 -274 229 -249.5 Q 223 -225 212.5 -202.5 Q 202 -180 187 -159.5 Q 172 -139 155 -120.5 Q 138 -102 120.5 -84 Q 103 -66 88.5 -45.5 Q 74 -25 65.5 -1 Q 57 23 57 48 Q 57 66 61.5 84 Q 66 102 78 115.5 Q 90 129 107.5 135.5 Q 125 142 143 142 Q 161 142 177.5 132.5 Q 194 123 205 108 Q 216 93 222 75 Q 228 57 231 39 L 307 52 Q 303 82 291.5 111.5 Q 280 141 259.5 164 Q 239 187 210 200 Q 181 213 150 213 Z " id="path25"/>
<path d="M 436 -305 L 64 -305 L 64 -375 L 436 -375 Z M 350 -621 Q 337 -621 325 -624.5 Q 313 -628 304 -637 Q 295 -646 291.5 -658 Q 288 -670 288 -683 Q 288 -696 291.5 -708 Q 295 -720 304 -729 Q 313 -738 325 -742 Q 337 -746 350 -746 Q 363 -746 375 -742 Q 387 -738 396 -729 Q 405 -720 409 -708 Q 413 -696 413 -683 Q 413 -670 409 -658 Q 405 -646 396 -637 Q 387 -628 375 -624.5 Q 363 -621 350 -621 Z M 150 -621 Q 137 -621 125 -624.5 Q 113 -628 104 -637 Q 95 -646 91.5 -658 Q 88 -670 88 -683 Q 88 -696 91.5 -708 Q 95 -720 104 -729 Q 113 -738 125 -742 Q 137 -746 150 -746 Q 163 -746 175 -742 Q 187 -738 196 -729 Q 205 -720 209 -708 Q 213 -696 213 -683 Q 213 -670 209 -658 Q 205 -646 196 -637 Q 187 -628 175 -624.5 Q 163 -621 150 -621 Z " id="path26"/>
<path d="M 250 -519 Q 231 -519 212.5 -524.5 Q 194 -530 180.5 -543.5 Q 167 -557 161.5 -575.5 Q 156 -594 156 -613 Q 156 -632 161.5 -651 Q 167 -670 180.5 -683 Q 194 -696 212.5 -702 Q 231 -708 250 -708 Q 269 -708 287.5 -702 Q 306 -696 319.5 -683 Q 333 -670 338.5 -651 Q 344 -632 344 -613 Q 344 -594 338.5 -575.5 Q 333 -557 319.5 -543.5 Q 306 -530 287.5 -524.5 Q 269 -519 250 -519 Z M 250 -575 Q 258 -575 265.5 -577 Q 273 -579 278.5 -584.5 Q 284 -590 286.5 -598 Q 289 -606 289 -613 Q 289 -621 286.5 -629 Q 284 -637 278.5 -642.5 Q 273 -648 265.5 -650 Q 258 -652 250 -652 Q 242 -652 234.5 -650 Q 227 -648 221.5 -642.5 Q 216 -637 213.5 -629 Q 211 -621 211 -613 Q 211 -606 213.5 -598 Q 216 -590 221.5 -584.5 Q 227 -579 234.5 -577 Q 242 -575 250 -575 Z M 322 -241 Q 316 -241 309.5 -242 Q 303 -243 297 -245 Q 291 -247 285.5 -249.5 Q 280 -252 274.5 -255.5 Q 269 -259 264.5 -263 Q 260 -267 255.5 -271.5 Q 251 -276 247 -281 Q 243 -286 239 -291 Q 235 -296 231.5 -301 Q 228 -306 224.5 -311 Q 221 -316 217 -321.5 Q 213 -327 209 -333 Q 205 -339 201 -344 Q 197 -349 193.5 -353.5 Q 190 -358 185.5 -362.5 Q 181 -367 178 -369 Q 176 -368 172.5 -365.5 Q 169 -363 165.5 -359 Q 162 -355 159 -351 Q 156 -347 154 -345 Q 152 -343 150 -340 Q 148 -337 146 -334 Q 144 -331 142 -328 Q 140 -325 138 -321 Q 136 -317 134 -313.5 Q 132 -310 129.5 -305.5 Q 127 -301 124.5 -296.5 Q 122 -292 120 -287.5 Q 118 -283 115.5 -278 Q 113 -273 110 -267.5 Q 107 -262 104.5 -256 Q 102 -250 100 -244 L 28 -273 Q 39 -296 48.5 -315.5 Q 58 -335 67.5 -351 Q 77 -367 86 -380 Q 95 -393 109 -407 Q 123 -421 140.5 -430 Q 158 -439 178 -439 Q 191 -439 203 -435 Q 215 -431 225.5 -424 Q 236 -417 244.5 -408 Q 253 -399 261 -389 Q 269 -379 276 -368.5 Q 283 -358 291 -346.5 Q 299 -335 306.5 -326.5 Q 314 -318 322 -311 Q 324 -312 327.5 -314.5 Q 331 -317 334.5 -321 Q 338 -325 341 -329 Q 344 -333 346 -335 Q 348 -337 350 -340 Q 352 -343 354 -346 Q 356 -349 358 -352 Q 360 -355 362 -359 Q 364 -363 366 -366.5 Q 368 -370 370.5 -374.5 Q 373 -379 375.5 -383.5 Q 378 -388 380 -392.5 Q 382 -397 384.5 -402 Q 387 -407 390 -412.5 Q 393 -418 395.5 -424 Q 398 -430 400 -436 L 472 -407 Q 461 -384 451.5 -364.5 Q 442 -345 432.5 -329 Q 423 -313 414 -300 Q 405 -287 391 -273 Q 377 -259 359.5 -250 Q 342 -241 322 -241 Z " id="path27"/>
<path d="M 373 44 L 73 -256 L 127 -305 L 427 -5 Z " id="path28"/>
<path d="M 127 44 L 73 -5 L 373 -305 L 427 -256 Z " id="path29"/>
<path d="M 250 -463 Q 236 -463 222 -467 Q 208 -471 198 -481 Q 188 -491 184 -505 Q 180 -519 180 -533 Q 180 -548 184 -561.5 Q 188 -575 198 -585 Q 208 -595 222 -599.5 Q 236 -604 250 -604 Q 264 -604 278 -599.5 Q 292 -595 302 -585 Q 312 -575 316.5 -561.5 Q 321 -548 321 -533 Q 321 -519 316.5 -505 Q 312 -491 302 -481 Q 292 -471 278 -467 Q 264 -463 250 -463 Z M 322 -241 Q 316 -241 309.5 -242 Q 303 -243 297 -245 Q 291 -247 285.5 -249.5 Q 280 -252 274.5 -255.5 Q 269 -259 264.5 -263 Q 260 -267 255.5 -271.5 Q 251 -276 247 -281 Q 243 -286 239 -291 Q 235 -296 231.5 -301 Q 228 -306 224.5 -311 Q 221 -316 217 -321.5 Q 213 -327 209 -333 Q 205 -339 201 -344 Q 197 -349 193.5 -353.5 Q 190 -358 185.5 -362.5 Q 181 -367 178 -369 Q 176 -368 172.5 -365.5 Q 169 -363 165.5 -359 Q 162 -355 159 -351 Q 156 -347 154 -345 Q 152 -343 150 -340 Q 148 -337 146 -334 Q 144 -331 142 -328 Q 140 -325 138 -321 Q 136 -317 134 -313.5 Q 132 -310 129.5 -305.5 Q 127 -301 124.5 -296.5 Q 122 -292 120 -287.5 Q 118 -283 115.5 -278 Q 113 -273 110 -267.5 Q 107 -262 104.5 -256 Q 102 -250 100 -244 L 28 -273 Q 39 -296 48.5 -315.5 Q 58 -335 67.5 -351 Q 77 -367 86 -380 Q 95 -393 109 -407 Q 123 -421 140.5 -430 Q 158 -439 178 -439 Q 191 -439 203 -435 Q 215 -431 225.5 -424 Q 236 -417 244.5 -408 Q 253 -399 261 -389 Q 269 -379 276 -368.5 Q 283 -358 291 -346.5 Q 299 -335 306.5 -326.5 Q 314 -318 322 -311 Q 324 -312 327.5 -314.5 Q 331 -317 334.5 -321 Q 338 -325 341 -329 Q 344 -333 346 -335 Q 348 -337 350 -340 Q 352 -343 354 -346 Q 356 -349 358 -352 Q 360 -355 362 -359 Q 364 -363 366 -366.5 Q 368 -370 370.5 -374.5 Q 373 -379 375.5 -383.5 Q 378 -388 380 -392.5 Q 382 -397 384.5 -402 Q 387 -407 390 -412.5 Q 393 -418 395.5 -424 Q 398 -430 400 -436 L 472 -407 Q 461 -384 451.5 -364.5 Q 442 -345 432.5 -329 Q 423 -313 414 -300 Q 405 -287 391 -273 Q 377 -259 359.5 -250 Q 342 -241 322 -241 Z " id="path30"/>
<path d="M 250 -76 Q 241 -76 232.5 -77.5 Q 224 -79 215.5 -83 Q 207 -87 200.5 -92.5 Q 194 -98 189.5 -105.5 Q 185 -113 182 -123 Q 179 -133 179 -140 L 179 -147 Q 179 -156 180.5 -164.5 Q 182 -173 186 -181.5 Q 190 -190 195.5 -196.5 Q 201 -203 209 -207.5 Q 217 -212 227 -214.5 Q 237 -217 243 -217 L 250 -217 Q 259 -217 268 -215.5 Q 277 -214 285 -210.5 Q 293 -207 299.5 -201 Q 306 -195 310.5 -187.5 Q 315 -180 317.5 -170 Q 320 -160 320 -154 L 320 -147 Q 320 -138 318.5 -129 Q 317 -120 313.5 -112 Q 310 -104 304 -97.5 Q 298 -91 290.5 -86.5 Q 283 -82 273 -79 Q 263 -76 257 -76 Z M 322 -241 Q 315 -241 308 -242 Q 301 -243 294.5 -245.5 Q 288 -248 282 -251.5 Q 276 -255 270.5 -259 Q 265 -263 260 -268 Q 255 -273 250.5 -278 Q 246 -283 241.5 -288.5 Q 237 -294 232.5 -299.5 Q 228 -305 224.5 -310.5 Q 221 -316 217 -322 Q 213 -328 208.5 -334 Q 204 -340 200 -345.5 Q 196 -351 190.5 -357 Q 185 -363 182 -366 L 178 -369 Q 175 -367 170.5 -363.5 Q 166 -360 162.5 -356 Q 159 -352 156 -348.5 Q 153 -345 150 -340 L 142 -328 Q 139 -323 136 -317.5 Q 133 -312 130 -306 L 125 -297 Q 122 -292 120.5 -288 Q 119 -284 116.5 -280 Q 114 -276 112 -272 Q 110 -268 108 -264 Q 106 -260 104 -255 Q 102 -250 101 -247 L 100 -244 L 28 -273 Q 32 -282 36.5 -290.5 Q 41 -299 44.5 -307.5 Q 48 -316 52.5 -324.5 Q 57 -333 61.5 -341 Q 66 -349 71 -357 Q 76 -365 81 -373 Q 86 -381 91.5 -387.5 Q 97 -394 104 -401.5 Q 111 -409 118 -415 Q 125 -421 133 -426 Q 141 -431 151.5 -435 Q 162 -439 168 -439 L 178 -439 Q 189 -439 199.5 -436 Q 210 -433 220 -428 Q 230 -423 238 -415.5 Q 246 -408 253 -399 L 261 -389 Q 263 -387 265 -384.5 Q 267 -382 269 -379 L 276 -369 Q 277 -366 279.5 -363 Q 282 -360 284 -357 Q 286 -354 288 -351 Q 290 -348 292 -345 Q 294 -342 296.5 -339 Q 299 -336 301 -333 Q 303 -330 305.5 -327.5 Q 308 -325 310 -322.5 Q 312 -320 315.5 -316.5 Q 319 -313 321 -312 L 322 -311 Q 325 -313 329.5 -316.5 Q 334 -320 337.5 -324 Q 341 -328 344 -331.5 Q 347 -335 350 -340 L 358 -352 Q 361 -357 364 -362.5 Q 367 -368 371 -375 L 376 -384 Q 378 -388 379.5 -392 Q 381 -396 383.5 -400 Q 386 -404 388 -408 Q 390 -412 392 -416 Q 394 -420 396 -425 Q 398 -430 399 -433 L 400 -436 L 472 -407 Q 468 -398 463.5 -389.5 Q 459 -381 455.5 -372.5 Q 452 -364 447.5 -355.5 Q 443 -347 438.5 -339 Q 434 -331 429 -323 Q 424 -315 419 -307 Q 414 -299 408.5 -292.5 Q 403 -286 396 -278.5 Q 389 -271 382 -265 Q 375 -259 367 -254 Q 359 -249 348.5 -245 Q 338 -241 332 -241 Z " id="path31"/>
<path d="M 123 143 L 123 -823 L 201 -823 L 201 -375 L 399 -375 L 399 -305 L 201 -305 L 201 143 Z " id="path32"/>
<path d="M 299 143 L 299 -305 L 101 -305 L 101 -375 L 299 -375 L 299 -823 L 377 -823 L 377 143 Z " id="path33"/>
<path d="M 123 -340 L 123 -823 L 399 -823 L 399 -753 L 201 -753 L 201 -340 Z " id="path34"/>
<path d="M 299 -340 L 299 -753 L 101 -753 L 101 -823 L 377 -823 L 377 -340 Z " id="path35"/>
<path d="M 123 143 L 123 -340 L 201 -340 L 201 73 L 399 73 L 399 143 Z " id="path36"/>
<path d="M 101 143 L 101 73 L 299 73 L 299 -340 L 377 -340 L 377 143 Z " id="path37"/>
<path d="M 400 161 Q 351 114 318 54 Q 285 -6 267 -71.5 Q 249 -137 242.5 -204.5 Q 236 -272 236 -340 Q 236 -408 242.5 -475.5 Q 249 -543 267 -608.5 Q 285 -674 318 -734 Q 351 -794 400 -841 L 455 -791 Q 412 -748 383.5 -694 Q 355 -640 340 -581 Q 325 -522 319 -461.5 Q 313 -401 313 -340 Q 313 -279 319 -218.5 Q 325 -158 340 -99 Q 355 -40 383.5 14 Q 412 68 455 111 Z M 238 161 Q 189 114 155.5 54 Q 122 -6 104.5 -71.5 Q 87 -137 80 -204.5 Q 73 -272 73 -340 Q 73 -408 80 -475.5 Q 87 -543 104.5 -608.5 Q 122 -674 155.5 -734 Q 189 -794 238 -841 L 292 -791 Q 249 -748 220.5 -694 Q 192 -640 177 -581 Q 162 -522 156.5 -461.5 Q 151 -401 151 -340 Q 151 -279 156.5 -218.5 Q 162 -158 177 -99 Q 192 -40 220.5 14 Q 249 68 292 111 Z " id="path38"/>
<path d="M 100 161 L 45 111 Q 58 98 70.5 83 Q 83 68 93.5 52.5 Q 104 37 113 20.5 Q 122 4 130 -13.5 Q 138 -31 144.5 -48.5 Q 151 -66 156 -84.5 Q 161 -103 165.5 -121.5 Q 170 -140 173 -158.5 Q 176 -177 178.5 -196 Q 181 -215 183 -238 Q 185 -261 186 -279 Q 187 -297 187 -310 L 187 -340 Q 187 -359 186.5 -378 Q 186 -397 184.5 -416 Q 183 -435 181.5 -454 Q 180 -473 177.5 -491.5 Q 175 -510 171.5 -528.5 Q 168 -547 163.5 -565.5 Q 159 -584 154 -602.5 Q 149 -621 142 -638.5 Q 135 -656 127 -673.5 Q 119 -691 107.5 -711 Q 96 -731 85.5 -746 Q 75 -761 67 -770 L 45 -791 L 100 -841 Q 115 -826 129 -810 Q 143 -794 155 -777 Q 167 -760 178 -741.5 Q 189 -723 198 -703.5 Q 207 -684 214.5 -664.5 Q 222 -645 228 -625 Q 234 -605 239 -584 Q 244 -563 248 -542.5 Q 252 -522 254.5 -501 Q 257 -480 259.5 -454 Q 262 -428 263 -408 Q 264 -388 264 -374 L 264 -340 Q 264 -319 263.5 -297.5 Q 263 -276 261.5 -255 Q 260 -234 258 -213 Q 256 -192 253.5 -171 Q 251 -150 246.5 -129 Q 242 -108 237 -87.5 Q 232 -67 225.5 -47 Q 219 -27 211 -7.5 Q 203 12 193.5 31.5 Q 184 51 171 73 Q 158 95 146.5 111.5 Q 135 128 125 137 Z M 262 161 L 208 111 Q 221 98 233.5 83 Q 246 68 256.5 52.5 Q 267 37 276 20.5 Q 285 4 293 -13.5 Q 301 -31 307.5 -48.5 Q 314 -66 319 -84.5 Q 324 -103 328 -121.5 Q 332 -140 335.5 -158.5 Q 339 -177 341 -196 Q 343 -215 345 -238 Q 347 -261 348 -279 Q 349 -297 349 -310 L 349 -340 Q 349 -359 348.5 -378 Q 348 -397 347 -416 Q 346 -435 344.5 -454 Q 343 -473 340.5 -491.5 Q 338 -510 334.5 -528.5 Q 331 -547 326.5 -565.5 Q 322 -584 316.5 -602.5 Q 311 -621 304.5 -638.5 Q 298 -656 290 -673.5 Q 282 -691 270.5 -711 Q 259 -731 248.5 -746 Q 238 -761 230 -770 L 208 -791 L 262 -841 Q 277 -826 291 -810 Q 305 -794 317 -777 Q 329 -760 340 -741.5 Q 351 -723 360 -704 Q 369 -685 377 -665 Q 385 -645 391 -625 Q 397 -605 402 -584 Q 407 -563 410.5 -542.5 Q 414 -522 417 -501 Q 420 -480 422.5 -454 Q 425 -428 426 -408 Q 427 -388 427 -374 L 427 -340 Q 427 -319 426.5 -297.5 Q 426 -276 424.5 -255 Q 423 -234 421 -213 Q 419 -192 416 -171 Q 413 -150 409 -129 Q 405 -108 400 -87.5 Q 395 -67 388.5 -47 Q 382 -27 374 -7.5 Q 366 12 356.5 31.5 Q 347 51 333.5 73.5 Q 320 96 308.5 112 Q 297 128 287 137 Z " id="path39"/>
<path d="M 94 -387 Q 80 -387 66.5 -391 Q 53 -395 42.5 -405.5 Q 32 -416 28 -429.5 Q 24 -443 24 -458 Q 24 -472 28 -485.5 Q 32 -499 42.5 -509.5 Q 53 -520 66.5 -524 Q 80 -528 95 -528 Q 109 -528 122.5 -524 Q 136 -520 146.5 -509.5 Q 157 -499 161 -485.5 Q 165 -472 165 -458 Q 165 -443 161 -429.5 Q 157 -416 146.5 -405.5 Q 136 -395 122.5 -391 Q 109 -387 94 -387 Z M 406 -387 Q 391 -387 377.5 -391 Q 364 -395 353.5 -405.5 Q 343 -416 339 -429.5 Q 335 -443 335 -458 Q 335 -472 339 -485.5 Q 343 -499 353.5 -509.5 Q 364 -520 377.5 -524 Q 391 -528 406 -528 Q 420 -528 433.5 -524 Q 447 -520 457.5 -509.5 Q 468 -499 472 -485.5 Q 476 -472 476 -458 Q 476 -443 472 -429.5 Q 468 -416 457.5 -405.5 Q 447 -395 433.5 -391 Q 420 -387 406 -387 Z M 250 8 Q 236 8 222 4 Q 208 0 198 -10.5 Q 188 -21 183.5 -34.5 Q 179 -48 179 -63 Q 179 -77 183.5 -90.5 Q 188 -104 198 -114.5 Q 208 -125 222 -129 Q 236 -133 250 -133 Q 264 -133 278 -129 Q 292 -125 302 -114.5 Q 312 -104 316 -90.5 Q 320 -77 320 -63 Q 320 -48 316 -34.5 Q 312 -21 302 -10.5 Q 292 0 278 4 Q 264 8 250 8 Z " id="path40"/>
<path d="M 250 -387 Q 236 -387 222 -391 Q 208 -395 198 -405.5 Q 188 -416 184 -429.5 Q 180 -443 180 -458 Q 180 -472 184 -485.5 Q 188 -499 198 -509.5 Q 208 -520 222 -524 Q 236 -528 250 -528 Q 264 -528 278 -524 Q 292 -520 302 -509.5 Q 312 -499 316.5 -485.5 Q 321 -472 321 -458 Q 321 -443 316.5 -429.5 Q 312 -416 302 -405.5 Q 292 -395 278 -391 Q 264 -387 250 -387 Z M 94 8 Q 80 8 66.5 4 Q 53 0 42.5 -10.5 Q 32 -21 28 -34.5 Q 24 -48 24 -63 Q 24 -77 28 -90.5 Q 32 -104 42.5 -114.5 Q 53 -125 66.5 -129 Q 80 -133 95 -133 Q 109 -133 122.5 -129 Q 136 -125 146.5 -114.5 Q 157 -104 161 -90.5 Q 165 -77 165 -63 Q 165 -48 161 -34.5 Q 157 -21 146.5 -10.5 Q 136 0 122.5 4 Q 109 8 94 8 Z M 406 8 Q 391 8 377.5 4 Q 364 0 353.5 -10.5 Q 343 -21 339 -34.5 Q 335 -48 335 -63 Q 335 -77 339 -90.5 Q 343 -104 353.5 -114.5 Q 364 -125 377.5 -129 Q 391 -133 406 -133 Q 420 -133 433.5 -129 Q 447 -125 457.5 -114.5 Q 468 -104 472 -90.5 Q 476 -77 476 -63 Q 476 -48 472 -34.5 Q 468 -21 457.5 -10.5 Q 447 0 433.5 4 Q 420 8 406 8 Z " id="path41"/>
<path d="M 406 -387 Q 391 -387 377.5 -391 Q 364 -395 353.5 -405.5 Q 343 -416 339 -429.5 Q 335 -443 335 -458 Q 335 -472 339 -485.5 Q 343 -499 353.5 -509.5 Q 364 -520 377.5 -524 Q 391 -528 406 -528 Q 420 -528 433.5 -524 Q 447 -520 457.5 -509.5 Q 468 -499 472 -485.5 Q 476 -472 476 -458 Q 476 -443 472 -429.5 Q 468 -416 457.5 -405.5 Q 447 -395 433.5 -391 Q 420 -387 406 -387 Z M 94 -387 Q 80 -387 66.5 -391 Q 53 -395 42.5 -405.5 Q 32 -416 28 -429.5 Q 24 -443 24 -458 Q 24 -472 28 -485.5 Q 32 -499 42.5 -509.5 Q 53 -520 66.5 -524 Q 80 -528 95 -528 Q 109 -528 122.5 -524 Q 136 -520 146.5 -509.5 Q 157 -499 161 -485.5 Q 165 -472 165 -458 Q 165 -443 161 -429.5 Q 157 -416 146.5 -405.5 Q 136 -395 122.5 -391 Q 109 -387 94 -387 Z M 406 8 Q 391 8 377.5 4 Q 364 0 353.5 -10.5 Q 343 -21 339 -34.5 Q 335 -48 335 -63 Q 335 -77 339 -90.5 Q 343 -104 353.5 -114.5 Q 364 -125 377.5 -129 Q 391 -133 406 -133 Q 420 -133 433.5 -129 Q 447 -125 457.5 -114.5 Q 468 -104 472 -90.5 Q 476 -77 476 -63 Q 476 -48 472 -34.5 Q 468 -21 457.5 -10.5 Q 447 0 433.5 4 Q 420 8 406 8 Z M 94 8 Q 80 8 66.5 4 Q 53 0 42.5 -10.5 Q 32 -21 28 -34.5 Q 24 -48 24 -63 Q 24 -77 28 -90.5 Q 32 -104 42.5 -114.5 Q 53 -125 66.5 -129 Q 80 -133 95 -133 Q 109 -133 122.5 -129 Q 136 -125 146.5 -114.5 Q 157 -104 161 -90.5 Q 165 -77 165 -63 Q 165 -48 161 -34.5 Q 157 -21 146.5 -10.5 Q 136 0 122.5 4 Q 109 8 94 8 Z " id="path42"/>
<path d="M 250 -423 Q 239 -423 229 -426 Q 219 -429 211.5 -436.5 Q 204 -444 200.5 -454.5 Q 197 -465 197 -475 Q 197 -486 200.5 -496.5 Q 204 -507 211.5 -514.5 Q 219 -522 229 -525 Q 239 -528 250 -528 Q 261 -528 271 -525 Q 281 -522 288.5 -514.5 Q 296 -507 299.5 -496.5 Q 303 -486 303 -475 Q 303 -465 299.5 -454.5 Q 296 -444 288.5 -436.5 Q 281 -429 271 -426 Q 261 -423 250 -423 Z M 423 -207 Q 413 -207 402.5 -210.5 Q 392 -214 384.5 -221.5 Q 377 -229 374 -239 Q 371 -249 371 -260 Q 371 -271 374 -281 Q 377 -291 384.5 -298.5 Q 392 -306 402.5 -309.5 Q 413 -313 423 -313 Q 434 -313 444.5 -309.5 Q 455 -306 462.5 -298.5 Q 470 -291 473 -281 Q 476 -271 476 -260 Q 476 -249 473 -239 Q 470 -229 462.5 -221.5 Q 455 -214 444.5 -210.5 Q 434 -207 423 -207 Z M 77 -207 Q 66 -207 55.5 -210.5 Q 45 -214 37.5 -221.5 Q 30 -229 27 -239 Q 24 -249 24 -260 Q 24 -271 27 -281 Q 30 -291 37.5 -298.5 Q 45 -306 55.5 -309.5 Q 66 -313 77 -313 Q 87 -313 97.5 -309.5 Q 108 -306 115.5 -298.5 Q 123 -291 126 -281 Q 129 -271 129 -260 Q 129 -249 126 -239 Q 123 -229 115.5 -221.5 Q 108 -214 97.5 -210.5 Q 87 -207 77 -207 Z M 250 -207 Q 239 -207 229 -210.5 Q 219 -214 211.5 -221.5 Q 204 -229 200.5 -239 Q 197 -249 197 -260 Q 197 -271 200.5 -281 Q 204 -291 211.5 -298.5 Q 219 -306 229 -309.5 Q 239 -313 250 -313 Q 261 -313 271 -309.5 Q 281 -306 288.5 -298.5 Q 296 -291 299.5 -281 Q 303 -271 303 -260 Q 303 -249 299.5 -239 Q 296 -229 288.5 -221.5 Q 281 -214 271 -210.5 Q 261 -207 250 -207 Z M 250 8 Q 239 8 229 5 Q 219 2 211.5 -5.5 Q 204 -13 200.5 -23.5 Q 197 -34 197 -45 Q 197 -55 200.5 -65.5 Q 204 -76 211.5 -83.5 Q 219 -91 229 -94 Q 239 -97 250 -97 Q 261 -97 271 -94 Q 281 -91 288.5 -83.5 Q 296 -76 299.5 -65.5 Q 303 -55 303 -45 Q 303 -34 299.5 -23.5 Q 296 -13 288.5 -5.5 Q 281 2 271 5 Q 261 8 250 8 Z " id="path43"/>
<path d="M 211 -221 Q 211 -245 207.5 -269 Q 204 -293 193 -314.5 Q 182 -336 166 -354.5 Q 150 -373 135 -392 Q 120 -411 107 -431.5 Q 94 -452 84.5 -474 Q 75 -496 69.5 -520 Q 64 -544 64 -568 Q 64 -592 69.5 -616 Q 75 -640 87 -661 Q 99 -682 117 -698.5 Q 135 -715 157 -725 Q 179 -735 203 -739 Q 227 -743 251 -743 Q 275 -743 299.5 -739 Q 324 -735 346 -724.5 Q 368 -714 386 -697 Q 404 -680 415.5 -658.5 Q 427 -637 432.5 -613 Q 438 -589 438 -564 L 438 -555 L 360 -555 L 360 -561 Q 360 -583 353 -604.5 Q 346 -626 331 -642.5 Q 316 -659 294.5 -666 Q 273 -673 251 -673 Q 230 -673 209 -666.5 Q 188 -660 172.5 -645.5 Q 157 -631 149.5 -610 Q 142 -589 142 -568 Q 142 -544 150.5 -521 Q 159 -498 173 -478 Q 187 -458 203 -440 Q 219 -422 233.5 -402.5 Q 248 -383 260 -361.5 Q 272 -340 278.5 -316.5 Q 285 -293 287 -269 Q 289 -245 289 -221 Z M 250 8 Q 236 8 222 4 Q 208 0 198 -10.5 Q 188 -21 184 -34.5 Q 180 -48 180 -63 Q 180 -77 184 -90.5 Q 188 -104 198 -114.5 Q 208 -125 222 -129 Q 236 -133 250 -133 Q 264 -133 278 -129 Q 292 -125 302 -114.5 Q 312 -104 316.5 -90.5 Q 321 -77 321 -63 Q 321 -48 316.5 -34.5 Q 312 -21 302 -10.5 Q 292 0 278 4 Q 264 8 250 8 Z " id="path44"/>
<path d="M 201 -600 Q 214 -603 222.5 -613.5 Q 231 -624 231 -637 Q 231 -645 227.5 -652 Q 224 -659 220 -665 L 213 -675 Q 208 -681 205 -688 Q 202 -695 202 -703 Q 202 -716 210.5 -726.5 Q 219 -737 231 -740 L 299 -740 Q 286 -737 277.5 -726.5 Q 269 -716 269 -703 Q 269 -695 272.5 -688 Q 276 -681 280 -675 L 287 -665 Q 292 -659 295 -652 Q 298 -645 298 -637 Q 298 -624 289.5 -613.5 Q 281 -603 269 -600 Z " id="path45"/>
<path d="M 250 -217 Q 225 -217 201 -224.5 Q 177 -232 159.5 -249.5 Q 142 -267 134.5 -291 Q 127 -315 127 -340 Q 127 -365 134.5 -389 Q 142 -413 159.5 -430.5 Q 177 -448 201 -455.5 Q 225 -463 250 -463 Q 275 -463 299 -455.5 Q 323 -448 340.5 -430.5 Q 358 -413 365.5 -389 Q 373 -365 373 -340 Q 373 -315 365.5 -291 Q 358 -267 340.5 -249.5 Q 323 -232 299 -224.5 Q 275 -217 250 -217 Z M 250 -278 Q 262 -278 273 -282.5 Q 284 -287 292 -296 Q 300 -305 302.5 -316.5 Q 305 -328 305 -340 Q 305 -352 302.5 -363.5 Q 300 -375 292 -384 Q 284 -393 273 -397.5 Q 262 -402 250 -402 Q 238 -402 227 -397.5 Q 216 -393 208 -384 Q 200 -375 197.5 -363.5 Q 195 -352 195 -340 Q 195 -328 197.5 -316.5 Q 200 -305 208 -296 Q 216 -287 227 -282.5 Q 238 -278 250 -278 Z " id="path46"/>
<path d="M 250 -262 Q 234 -262 219 -266.5 Q 204 -271 192.5 -282.5 Q 181 -294 176.5 -309 Q 172 -324 172 -340 Q 172 -356 176.5 -371 Q 181 -386 192.5 -397.5 Q 204 -409 219 -413.5 Q 234 -418 250 -418 Q 266 -418 281 -413.5 Q 296 -409 307.5 -397.5 Q 319 -386 323.5 -371 Q 328 -356 328 -340 Q 328 -324 323.5 -309 Q 319 -294 307.5 -282.5 Q 296 -271 281 -266.5 Q 266 -262 250 -262 Z " id="path47"/>
<path d="M 250 8 Q 240 8 230 6 Q 220 4 210.5 0 Q 201 -4 193.5 -10.5 Q 186 -17 181.5 -26 Q 177 -35 174.5 -46.5 Q 172 -58 172 -65 L 172 -73 Q 172 -85 173 -97 Q 174 -109 175.5 -121 Q 177 -133 180 -145 Q 183 -157 186 -168.5 Q 189 -180 193 -191.5 Q 197 -203 201.5 -214.5 Q 206 -226 211 -236.5 Q 216 -247 221.5 -258 Q 227 -269 233 -279.5 Q 239 -290 247 -302.5 Q 255 -315 261.5 -324.5 Q 268 -334 273 -340 L 285 -355 L 344 -310 Q 335 -300 326 -289 Q 317 -278 308.5 -267 Q 300 -256 292 -244 Q 284 -232 275 -217.5 Q 266 -203 260.5 -191.5 Q 255 -180 253 -171 L 246 -148 L 251 -148 Q 260 -148 270 -146 Q 280 -144 289 -140 Q 298 -136 305 -129.5 Q 312 -123 317 -115 Q 322 -107 325 -96 Q 328 -85 328 -78 L 328 -70 Q 328 -60 326.5 -50.5 Q 325 -41 321 -32 Q 317 -23 310 -15.5 Q 303 -8 295 -3 Q 287 2 276 5 Q 265 8 258 8 Z " id="path48"/>
<path d="M 250 -182 Q 234 -182 219 -186.5 Q 204 -191 192.5 -202.5 Q 181 -214 176.5 -229 Q 172 -244 172 -260 Q 172 -276 176.5 -291 Q 181 -306 192.5 -317.5 Q 204 -329 219 -333.5 Q 234 -338 250 -338 Q 266 -338 281 -333.5 Q 296 -329 307.5 -317.5 Q 319 -306 323.5 -291 Q 328 -276 328 -260 Q 328 -244 323.5 -229 Q 319 -214 307.5 -202.5 Q 296 -191 281 -186.5 Q 266 -182 250 -182 Z " id="path49"/>
<path d="M 215 25 L 156 -20 Q 188 -56 214.5 -96 Q 241 -136 254 -182 L 249 -182 Q 234 -182 218.5 -187 Q 203 -192 192 -203 Q 181 -214 176.5 -229 Q 172 -244 172 -260 Q 172 -276 176.5 -291 Q 181 -306 192.5 -317.5 Q 204 -329 219 -333.5 Q 234 -338 250 -338 Q 266 -338 282 -333 Q 298 -328 309 -316.5 Q 320 -305 324 -289 Q 328 -273 328 -257 Q 328 -218 319 -180 Q 310 -142 295 -106.5 Q 280 -71 259.5 -38 Q 239 -5 215 25 Z " id="path50"/>
<path d="M 250 -372 Q 240 -372 230 -374 Q 220 -376 210.5 -380 Q 201 -384 193.5 -390.5 Q 186 -397 181.5 -406 Q 177 -415 174.5 -426.5 Q 172 -438 172 -445 L 172 -453 Q 172 -465 173 -477 Q 174 -489 175.5 -501 Q 177 -513 180 -525 Q 183 -537 186 -548.5 Q 189 -560 193 -571.5 Q 197 -583 201.5 -594.5 Q 206 -606 211 -616.5 Q 216 -627 221.5 -638 Q 227 -649 233 -659.5 Q 239 -670 247 -682.5 Q 255 -695 261.5 -704.5 Q 268 -714 273 -720 L 285 -735 L 344 -690 Q 335 -680 326 -669 Q 317 -658 308.5 -647 Q 300 -636 292 -624 Q 284 -612 275 -597.5 Q 266 -583 260.5 -571.5 Q 255 -560 253 -551 L 246 -528 L 251 -528 Q 260 -528 270 -526 Q 280 -524 289 -520 Q 298 -516 305 -509.5 Q 312 -503 317 -495 Q 322 -487 325 -476 Q 328 -465 328 -458 L 328 -450 Q 328 -440 326.5 -430.5 Q 325 -421 321 -412 Q 317 -403 310 -395.5 Q 303 -388 295 -383 Q 287 -378 276 -375 Q 265 -372 258 -372 Z M 250 8 Q 240 8 230.5 6.5 Q 221 5 212 1 Q 203 -3 195.5 -10 Q 188 -17 183 -25 Q 178 -33 175 -44 Q 172 -55 172 -62 L 172 -70 Q 172 -80 173.5 -89.5 Q 175 -99 179 -108 Q 183 -117 190 -124.5 Q 197 -132 205 -137 Q 213 -142 224 -145 Q 235 -148 242 -148 L 250 -148 Q 260 -148 269.5 -146.5 Q 279 -145 288 -141 Q 297 -137 304.5 -130 Q 312 -123 317 -115 Q 322 -107 325 -96 Q 328 -85 328 -78 L 328 -70 Q 328 -60 326.5 -50.5 Q 325 -41 321 -32 Q 317 -23 310 -15.5 Q 303 -8 295 -3 Q 287 2 276 5 Q 265 8 258 8 Z " id="path51"/>
<path d="M 211 143 L 211 -469 L 64 -469 L 64 -539 L 211 -539 L 211 -823 L 289 -823 L 289 143 Z " id="path52"/>
<path d="M 211 143 L 211 -823 L 289 -823 L 289 -539 L 436 -539 L 436 -469 L 289 -469 L 289 143 Z " id="path53"/>
<path d="M 211 143 L 211 -141 L 64 -141 L 64 -211 L 211 -211 L 211 -823 L 289 -823 L 289 -211 L 436 -211 L 436 -141 L 289 -141 L 289 143 Z " id="path54"/>
<path d="M 64 -394 L 64 -464 L 436 -464 L 436 -394 Z M 436 -216 L 64 -216 L 64 -286 L 436 -286 Z " id="path55"/>
<path d="M 285 215 Q 261 185 240.5 152 Q 220 119 205 83.5 Q 190 48 181 10 Q 172 -28 172 -67 Q 172 -83 176 -99 Q 180 -115 191 -126.5 Q 202 -138 218 -143 Q 234 -148 250 -148 Q 266 -148 281 -143.5 Q 296 -139 307.5 -127.5 Q 319 -116 323.5 -101 Q 328 -86 328 -70 Q 328 -54 323.5 -39 Q 319 -24 308 -13 Q 297 -2 281.5 3 Q 266 8 251 8 L 246 8 Q 259 54 285.5 94 Q 312 134 344 170 Z " id="path56"/>
<path d="M 172 213 Q 165 203 157.5 193.5 Q 150 184 143.5 174 Q 137 164 130.5 154 Q 124 144 118 133.5 Q 112 123 107 112.5 Q 102 102 97 91 Q 92 80 87.5 69 Q 83 58 79.5 46.5 Q 76 35 73 23.5 Q 70 12 66.5 -2.5 Q 63 -17 61.5 -28 Q 60 -39 60 -47 L 60 -66 Q 60 -76 61.5 -86 Q 63 -96 66.5 -105.5 Q 70 -115 76.5 -122.5 Q 83 -130 91.5 -135 Q 100 -140 111.5 -143 Q 123 -146 130 -146 L 137 -146 Q 147 -146 157 -144.5 Q 167 -143 175.5 -139 Q 184 -135 191.5 -128.5 Q 199 -122 204 -114 Q 209 -106 212 -95 Q 215 -84 215 -77 L 215 -69 Q 215 -59 213 -49.5 Q 211 -40 207.5 -31.5 Q 204 -23 197.5 -15.5 Q 191 -8 182.5 -3 Q 174 2 163 5 Q 152 8 146 8 L 134 8 Q 137 21 142 34 Q 147 47 153 59 Q 159 71 167 83.5 Q 175 96 184 109.5 Q 193 123 201 133 Q 209 143 215 150 L 230 168 Z M 397 213 Q 390 203 382.5 193.5 Q 375 184 368.5 174 Q 362 164 355.5 154 Q 349 144 343 133.5 Q 337 123 332 112.5 Q 327 102 322 91 Q 317 80 312.5 69 Q 308 58 304.5 46.5 Q 301 35 298 23.5 Q 295 12 291.5 -2.5 Q 288 -17 286.5 -28 Q 285 -39 285 -47 L 285 -66 Q 285 -76 286.5 -86 Q 288 -96 291.5 -105.5 Q 295 -115 301.5 -122.5 Q 308 -130 316.5 -135 Q 325 -140 336.5 -143 Q 348 -146 355 -146 L 362 -146 Q 372 -146 382 -144.5 Q 392 -143 400.5 -139 Q 409 -135 416.5 -128.5 Q 424 -122 429 -114 Q 434 -106 437 -95 Q 440 -84 440 -77 L 440 -69 Q 440 -59 438 -49.5 Q 436 -40 432.5 -31.5 Q 429 -23 422.5 -15.5 Q 416 -8 407.5 -3 Q 399 2 388 5 Q 377 8 371 8 L 359 8 Q 362 21 367 34 Q 372 47 378 59 Q 384 71 392 83.5 Q 400 96 409 109.5 Q 418 123 426 133 Q 434 143 440 150 L 455 168 Z " id="path57"/>
<path d="M 944 -305 L 250 -305 Q 221 -305 193 -312 Q 165 -319 141 -335.5 Q 117 -352 100 -376 Q 83 -400 73 -427 Q 63 -454 59.5 -482.5 Q 56 -511 56 -540 L 56 -600 L 134 -600 L 134 -540 Q 134 -521 135.5 -502 Q 137 -483 142.5 -465 Q 148 -447 157 -430 Q 166 -413 180 -400 Q 194 -387 212.5 -381 Q 231 -375 250 -375 L 944 -375 Z " id="path58"/>
<path d="M 161 -442 L 253 -772 L 347 -772 L 239 -442 Z M 161 192 L 253 -138 L 347 -138 L 239 192 Z " id="path59"/>
<path d="M 63 -200 Q 63 -222 69 -243.5 Q 75 -265 89.5 -282 Q 104 -299 123 -310.5 Q 142 -322 163 -329 Q 184 -336 206 -338 Q 228 -340 250 -340 Q 272 -340 294 -338 Q 316 -336 337 -329 Q 358 -322 377 -310.5 Q 396 -299 410.5 -282 Q 425 -265 431 -243.5 Q 437 -222 437 -200 L 363 -200 Q 363 -213 358 -225 Q 353 -237 344 -245.5 Q 335 -254 323.5 -259.5 Q 312 -265 300 -268 Q 288 -271 275.5 -272 Q 263 -273 250 -273 Q 237 -273 224.5 -272 Q 212 -271 200 -268 Q 188 -265 176.5 -259.5 Q 165 -254 156 -245.5 Q 147 -237 142 -225 Q 137 -213 137 -200 Z " id="path60"/>
<path d="M 250 -380 Q 228 -380 206 -382.5 Q 184 -385 163 -391.5 Q 142 -398 123 -409.5 Q 104 -421 89.5 -438 Q 75 -455 69 -476.5 Q 63 -498 63 -520 L 137 -520 Q 137 -507 142 -495.5 Q 147 -484 156 -475 Q 165 -466 176.5 -461 Q 188 -456 200 -453 Q 212 -450 224.5 -448.5 Q 237 -447 250 -447 Q 263 -447 275.5 -448.5 Q 288 -450 300 -453 Q 312 -456 323.5 -461 Q 335 -466 344 -475 Q 353 -484 358 -495.5 Q 363 -507 363 -520 L 437 -520 Q 437 -498 431 -476.5 Q 425 -455 410.5 -438 Q 396 -421 377 -409.5 Q 358 -398 337 -391.5 Q 316 -385 294 -382.5 Q 272 -380 250 -380 Z M 63 0 Q 63 -22 69 -43.5 Q 75 -65 89.5 -82 Q 104 -99 123 -110.5 Q 142 -122 163 -128.5 Q 184 -135 206 -137.5 Q 228 -140 250 -140 Q 272 -140 294 -137.5 Q 316 -135 337 -128.5 Q 358 -122 377 -110.5 Q 396 -99 410.5 -82 Q 425 -65 431 -43.5 Q 437 -22 437 0 L 363 0 Q 363 -13 358 -24.5 Q 353 -36 344 -45 Q 335 -54 323.5 -59 Q 312 -64 300 -67 Q 288 -70 275.5 -71.5 Q 263 -73 250 -73 Q 237 -73 224.5 -71.5 Q 212 -70 200 -67 Q 188 -64 176.5 -59 Q 165 -54 156 -45 Q 147 -36 142 -24.5 Q 137 -13 137 0 Z " id="path61"/>
<path d="M 250 -200 Q 228 -200 206 -202.5 Q 184 -205 163 -211.5 Q 142 -218 123 -229.5 Q 104 -241 89.5 -258 Q 75 -275 69 -296.5 Q 63 -318 63 -340 L 137 -340 Q 137 -328 142 -316 Q 147 -304 156 -295.5 Q 165 -287 176.5 -281.5 Q 188 -276 200 -273 Q 212 -270 224.5 -269 Q 237 -268 250 -268 Q 263 -268 275.5 -269 Q 288 -270 300 -273 Q 312 -276 323.5 -281.5 Q 335 -287 344 -295.5 Q 353 -304 358 -316 Q 363 -328 363 -340 L 437 -340 Q 437 -318 431 -296.5 Q 425 -275 410.5 -258 Q 396 -241 377 -229.5 Q 358 -218 337 -211.5 Q 316 -205 294 -202.5 Q 272 -200 250 -200 Z " id="path62"/>
<path d="M 250 -324 Q 238 -324 226 -327.5 Q 214 -331 205.5 -339.5 Q 197 -348 193.5 -360 Q 190 -372 190 -384 Q 190 -396 193.5 -408 Q 197 -420 205.5 -428.5 Q 214 -437 226 -440.5 Q 238 -444 250 -444 Q 262 -444 274 -440.5 Q 286 -437 294.5 -428.5 Q 303 -420 306.5 -408 Q 310 -396 310 -384 Q 310 -372 306.5 -360 Q 303 -348 294.5 -339.5 Q 286 -331 274 -327.5 Q 262 -324 250 -324 Z M 250 -200 Q 228 -200 206 -202.5 Q 184 -205 163 -211.5 Q 142 -218 123 -229.5 Q 104 -241 89.5 -258 Q 75 -275 69 -296.5 Q 63 -318 63 -340 L 137 -340 Q 137 -328 142 -316 Q 147 -304 156 -295.5 Q 165 -287 176.5 -281.5 Q 188 -276 200 -273 Q 212 -270 224.5 -269 Q 237 -268 250 -268 Q 263 -268 275.5 -269 Q 288 -270 300 -273 Q 312 -276 323.5 -281.5 Q 335 -287 344 -295.5 Q 353 -304 358 -316 Q 363 -328 363 -340 L 437 -340 Q 437 -318 431 -296.5 Q 425 -275 410.5 -258 Q 396 -241 377 -229.5 Q 358 -218 337 -211.5 Q 316 -205 294 -202.5 Q 272 -200 250 -200 Z " id="path63"/>
<path d="M 215 215 L 156 170 Q 188 134 214.5 94 Q 241 54 254 8 L 249 8 Q 234 8 218.5 3 Q 203 -2 192 -13 Q 181 -24 176.5 -39 Q 172 -54 172 -70 Q 172 -86 176.5 -101 Q 181 -116 192.5 -127.5 Q 204 -139 219 -143.5 Q 234 -148 250 -148 Q 266 -148 282 -143 Q 298 -138 309 -126.5 Q 320 -115 324 -99 Q 328 -83 328 -67 Q 328 -28 319 10 Q 310 48 295 83.5 Q 280 119 259.5 152 Q 239 185 215 215 Z M 215 -165 L 156 -210 Q 188 -246 214.5 -286 Q 241 -326 254 -372 L 249 -372 Q 234 -372 218.5 -377 Q 203 -382 192 -393 Q 181 -404 176.5 -419 Q 172 -434 172 -450 Q 172 -466 176.5 -481 Q 181 -496 192.5 -507.5 Q 204 -519 219 -523.5 Q 234 -528 250 -528 Q 266 -528 282 -523 Q 298 -518 309 -506.5 Q 320 -495 324 -479 Q 328 -463 328 -447 Q 328 -408 319 -370 Q 310 -332 295 -296.5 Q 280 -261 259.5 -228 Q 239 -195 215 -165 Z " id="path64"/>
<path d="M 59 143 L 192 -283 Q 181 -294 176.5 -309 Q 172 -324 172 -340 Q 172 -354 175.5 -367.5 Q 179 -381 187.5 -391.5 Q 196 -402 208 -408.5 Q 220 -415 234 -417 L 361 -823 L 441 -823 L 308 -397 L 310 -395 Q 320 -384 324 -369.5 Q 328 -355 328 -340 Q 328 -326 324.5 -313 Q 321 -300 313 -289 Q 305 -278 292.5 -271.5 Q 280 -265 267 -263 L 266 -263 L 139 143 Z " id="path65"/>
<path d="M 211 143 L 211 -64 L 64 -64 L 64 -134 L 211 -134 L 211 -305 L 64 -305 L 64 -375 L 211 -375 L 211 -547 L 64 -547 L 64 -617 L 211 -617 L 211 -823 L 289 -823 L 289 -617 L 436 -617 L 436 -547 L 289 -547 L 289 -375 L 436 -375 L 436 -305 L 289 -305 L 289 -134 L 436 -134 L 436 -64 L 289 -64 L 289 143 Z " id="path66"/>
<path d="M 249 8 Q 224 8 200 3.5 Q 176 -1 154 -12 Q 132 -23 114 -40 Q 96 -57 84.5 -79 Q 73 -101 67.5 -125 Q 62 -149 62 -174 L 62 -180 L 140 -180 L 140 -176 Q 140 -154 146.5 -132 Q 153 -110 168 -93.5 Q 183 -77 205 -69.5 Q 227 -62 249 -62 Q 273 -62 296 -72 Q 319 -82 333.5 -102 Q 348 -122 353 -146.5 Q 358 -171 358 -195 L 358 -662 Q 330 -660 302 -658.5 Q 274 -657 246 -657 Q 200 -657 154.5 -660.5 Q 109 -664 64 -671 L 64 -742 Q 109 -734 154.5 -730.5 Q 200 -727 246 -727 Q 294 -727 341.5 -731 Q 389 -735 436 -743 L 436 -195 Q 436 -169 432 -143 Q 428 -117 417.5 -93 Q 407 -69 389.5 -49 Q 372 -29 349.5 -15.5 Q 327 -2 301 3 Q 275 8 249 8 Z " id="path67"/>
</defs>
<g>
<g data-source-text="0" fill="#20242e" transform="translate(174 41.292) rotate(0) scale(0.023999998)">
<use href="#path1" transform="translate(0 0)"/>
</g>
</g>
<g>
<g data-source-text="1" fill="#20242e" transform="translate(246 41.292) rotate(0) scale(0.023999998)">
<use href="#path2" transform="translate(0 0)"/>
</g>
</g>
<g>
<g data-source-text="2" fill="#20242e" transform="translate(318 41.292) rotate(0) scale(0.023999998)">
<use href="#path3" transform="translate(0 0)"/>
</g>
</g>
<g>
<g data-source-text="3" fill="#20242e" transform="translate(390 41.292) rotate(0) scale(0.023999998)">
<use href="#path4" transform="translate(0 0)"/>
</g>
</g>
<g>
<g data-source-text="4" fill="#20242e" transform="translate(462 41.292) rotate(0) scale(0.023999998)">
<use href="#path5" transform="translate(0 0)"/>
</g>
</g>
<g>
<g data-source-text="5" fill="#20242e" transform="translate(534 41.292) rotate(0) scale(0.023999998)">
<use href="#path6" transform="translate(0 0)"/>
</g>
</g>
<g>
<g data-source-text="6" fill="#20242e" transform="translate(606 41.292) rotate(0) scale(0.023999998)">
<use href="#path7" transform="translate(0 0)"/>
</g>
</g>
<g>
<g data-source-text="7" fill="#20242e" transform="translate(678 41.292) rotate(0) scale(0.023999998)">
<use href="#path8" transform="translate(0 0)"/>
</g>
</g>
<g>
<g data-source-text="8" fill="#20242e" transform="translate(750 41.292) rotate(0) scale(0.023999998)">
<use href="#path9" transform="translate(0 0)"/>
</g>
</g>
<g>
<g data-source-text="9" fill="#20242e" transform="translate(822 41.292) rotate(0) scale(0.023999998)">
<use href="#path10" transform="translate(0 0)"/>
</g>
</g>
<g>
<g data-source-text="A" fill="#20242e" transform="translate(894 41.292) rotate(0) scale(0.023999998)">
<use href="#path11" transform="translate(0 0)"/>
</g>
</g>
<g>
<g data-source-text="B" fill="#20242e" transform="translate(966 41.292) rotate(0) scale(0.023999998)">
<use href="#path12" transform="translate(0 0)"/>
</g>
</g>
<g>
<g data-source-text="C" fill="#20242e" transform="translate(1038 41.292) rotate(0) scale(0.023999998)">
<use href="#path13" transform="translate(0 0)"/>
</g>
</g>
<g>
<g data-source-text="D" fill="#20242e" transform="translate(1110 41.292) rotate(0) scale(0.023999998)">
<use href="#path14" transform="translate(0 0)"/>
</g>
</g>
<g>
<g data-source-text="E" fill="#20242e" transform="translate(1182 41.292) rotate(0) scale(0.023999998)">
<use href="#path15" transform="translate(0 0)"/>
</g>
</g>
<g>
<g data-source-text="F" fill="#20242e" transform="translate(1254 41.292) rotate(0) scale(0.023999998)">
<use href="#path16" transform="translate(0 0)"/>
</g>
</g>
<g>
<g data-source-text="U+2E00" fill="#20242e" transform="translate(36 113.292) rotate(0) scale(0.023999998)">
<use href="#path17" transform="translate(0 0)"/>
<use href="#path18" transform="translate(500 0)"/>
<use href="#path3" transform="translate(1000 0)"/>
<use href="#path15" transform="translate(1500 0)"/>
<use href="#path1" transform="translate(2000 0)"/>
<use href="#path1" transform="translate(2500 0)"/>
</g>
</g>
<g>
<g data-source-text="" fill="#20242e40" transform="translate(168 118.584) rotate(0) scale(0.047999997)">
<use href="#path19" transform="translate(0 0)"/>
</g>
</g>
<g>
<g data-source-text="" fill="#20242e40" transform="translate(240 118.584) rotate(0) scale(0.047999997)">
<use href="#path19" transform="translate(0 0)"/>
</g>
</g>
<g>
<g data-source-text="" fill="#20242e40" transform="translate(312 118.584) rotate(0) scale(0.047999997)">
<use href="#path19" transform="translate(0 0)"/>
</g>
</g>
<g>
<g data-source-text="" fill="#20242e40" transform="translate(384 118.584) rotate(0) scale(0.047999997)">
<use href="#path19" transform="translate(0 0)"/>
</g>
</g>
<g>
<g data-source-text="" fill="#20242e40" transform="translate(456 118.584) rotate(0) scale(0.047999997)">
<use href="#path19" transform="translate(0 0)"/>
</g>
</g>
<g>
<g data-source-text="" fill="#20242e40" transform="translate(528 118.584) rotate(0) scale(0.047999997)">
<use href="#path19" transform="translate(0 0)"/>
</g>
</g>
<g>
<g data-source-text="" fill="#20242e40" transform="translate(600 118.584) rotate(0) scale(0.047999997)">
<use href="#path19" transform="translate(0 0)"/>
</g>
</g>
<g>
<g data-source-text="" fill="#20242e40" transform="translate(672 118.584) rotate(0) scale(0.047999997)">
<use href="#path19" transform="translate(0 0)"/>
</g>
</g>
<g>
<g data-source-text="" fill="#20242e40" transform="translate(744 118.584) rotate(0) scale(0.047999997)">
<use href="#path19" transform="translate(0 0)"/>
</g>
</g>
<g>
<g data-source-text="" fill="#20242e40" transform="translate(816 118.584) rotate(0) scale(0.047999997)">
<use href="#path19" transform="translate(0 0)"/>
</g>
</g>
<g>
<g data-source-text="" fill="#20242e40" transform="translate(888 118.584) rotate(0) scale(0.047999997)">
<use href="#path19" transform="translate(0 0)"/>
</g>
</g>
<g>
<g data-source-text="⸋" fill="#20242e" transform="translate(960 118.584) rotate(0) scale(0.047999997)">
<use href="#path20" transform="translate(0 0)"/>
</g>
</g>
<g>
<g data-source-text="⸌" fill="#20242e" transform="translate(1032 118.584) rotate(0) scale(0.047999997)">
<use href="#path21" transform="translate(0 0)"/>
</g>
</g>
<g>
<g data-source-text="⸍" fill="#20242e" transform="translate(1104 118.584) rotate(0) scale(0.047999997)">
<use href="#path22" transform="translate(0 0)"/>
</g>
</g>
<g>
<g data-source-text="" fill="#20242e40" transform="translate(1176 118.584) rotate(0) scale(0.047999997)">
<use href="#path19" transform="translate(0 0)"/>
</g>
</g>
<g>
<g data-source-text="" fill="#20242e40" transform="translate(1248 118.584) rotate(0) scale(0.047999997)">
<use href="#path19" transform="translate(0 0)"/>
</g>
</g>
<g>
<g data-source-text="U+2E10" fill="#20242e" transform="translate(36 185.292) rotate(0) scale(0.023999998)">
<use href="#path17" transform="translate(0 0)"/>
<use href="#path18" transform="translate(500 0)"/>
<use href="#path3" transform="translate(1000 0)"/>
<use href="#path15" transform="translate(1500 0)"/>
<use href="#path2" transform="translate(2000 0)"/>
<use href="#path1" transform="translate(2500 0)"/>
</g>
</g>
<g>
<g data-source-text="" fill="#20242e40" transform="translate(168 190.584) rotate(0) scale(0.047999997)">
<use href="#path19" transform="translate(0 0)"/>
</g>
</g>
<g>
<g data-source-text="" fill="#20242e40" transform="translate(240 190.584) rotate(0) scale(0.047999997)">
<use href="#path19" transform="translate(0 0)"/>
</g>
</g>
<g>
<g data-source-text="⸒" fill="#20242e" transform="translate(312 190.584) rotate(0) scale(0.047999997)">
<use href="#path23" transform="translate(0 0)"/>
</g>
</g>
<g>
<g data-source-text="⸓" fill="#20242e" transform="translate(384 190.584) rotate(0) scale(0.047999997)">
<use href="#path24" transform="translate(0 0)"/>
</g>
</g>
<g>
<g data-source-text="" fill="#20242e40" transform="translate(456 190.584) rotate(0) scale(0.047999997)">
<use href="#path19" transform="translate(0 0)"/>
</g>
</g>
<g>
<g data-source-text="" fill="#20242e40" transform="translate(528 190.584) rotate(0) scale(0.047999997)">
<use href="#path19" transform="translate(0 0)"/>
</g>
</g>
<g>
<g data-source-text="" fill="#20242e40" transform="translate(600 190.584) rotate(0) scale(0.047999997)">
<use href="#path19" transform="translate(0 0)"/>
</g>
</g>
<g>
<g data-source-text="" fill="#20242e40" transform="translate(672 190.584) rotate(0) scale(0.047999997)">
<use href="#path19" transform="translate(0 0)"/>
</g>
</g>
<g>
<g data-source-text="⸘" fill="#20242e" transform="translate(744 190.584) rotate(0) scale(0.047999997)">
<use href="#path25" transform="translate(0 0)"/>
</g>
</g>
<g>
<g data-source-text="" fill="#20242e40" transform="translate(816 190.584) rotate(0) scale(0.047999997)">
<use href="#path19" transform="translate(0 0)"/>
</g>
</g>
<g>
<g data-source-text="⸚" fill="#20242e" transform="translate(888 190.584) rotate(0) scale(0.047999997)">
<use href="#path26" transform="translate(0 0)"/>
</g>
</g>
<g>
<g data-source-text="⸛" fill="#20242e" transform="translate(960 190.584) rotate(0) scale(0.047999997)">
<use href="#path27" transform="translate(0 0)"/>
</g>
</g>
<g>
<g data-source-text="⸜" fill="#20242e" transform="translate(1032 190.584) rotate(0) scale(0.047999997)">
<use href="#path28" transform="translate(0 0)"/>
</g>
</g>
<g>
<g data-source-text="⸝" fill="#20242e" transform="translate(1104 190.584) rotate(0) scale(0.047999997)">
<use href="#path29" transform="translate(0 0)"/>
</g>
</g>
<g>
<g data-source-text="⸞" fill="#20242e" transform="translate(1176 190.584) rotate(0) scale(0.047999997)">
<use href="#path30" transform="translate(0 0)"/>
</g>
</g>
<g>
<g data-source-text="⸟" fill="#20242e" transform="translate(1248 190.584) rotate(0) scale(0.047999997)">
<use href="#path31" transform="translate(0 0)"/>
</g>
</g>
<g>
<g data-source-text="U+2E20" fill="#20242e" transform="translate(36 257.292) rotate(0) scale(0.023999998)">
<use href="#path17" transform="translate(0 0)"/>
<use href="#path18" transform="translate(500 0)"/>
<use href="#path3" transform="translate(1000 0)"/>
<use href="#path15" transform="translate(1500 0)"/>
<use href="#path3" transform="translate(2000 0)"/>
<use href="#path1" transform="translate(2500 0)"/>
</g>
</g>
<g>
<g data-source-text="⸠" fill="#20242e" transform="translate(168 262.584) rotate(0) scale(0.047999997)">
<use href="#path32" transform="translate(0 0)"/>
</g>
</g>
<g>
<g data-source-text="⸡" fill="#20242e" transform="translate(240 262.584) rotate(0) scale(0.047999997)">
<use href="#path33" transform="translate(0 0)"/>
</g>
</g>
<g>
<g data-source-text="⸢" fill="#20242e" transform="translate(312 262.584) rotate(0) scale(0.047999997)">
<use href="#path34" transform="translate(0 0)"/>
</g>
</g>
<g>
<g data-source-text="⸣" fill="#20242e" transform="translate(384 262.584) rotate(0) scale(0.047999997)">
<use href="#path35" transform="translate(0 0)"/>
</g>
</g>
<g>
<g data-source-text="⸤" fill="#20242e" transform="translate(456 262.584) rotate(0) scale(0.047999997)">
<use href="#path36" transform="translate(0 0)"/>
</g>
</g>
<g>
<g data-source-text="⸥" fill="#20242e" transform="translate(528 262.584) rotate(0) scale(0.047999997)">
<use href="#path37" transform="translate(0 0)"/>
</g>
</g>
<g>
<g data-source-text="" fill="#20242e40" transform="translate(600 262.584) rotate(0) scale(0.047999997)">
<use href="#path19" transform="translate(0 0)"/>
</g>
</g>
<g>
<g data-source-text="" fill="#20242e40" transform="translate(672 262.584) rotate(0) scale(0.047999997)">
<use href="#path19" transform="translate(0 0)"/>
</g>
</g>
<g>
<g data-source-text="⸨" fill="#20242e" transform="translate(744 262.584) rotate(0) scale(0.047999997)">
<use href="#path38" transform="translate(0 0)"/>
</g>
</g>
<g>
<g data-source-text="⸩" fill="#20242e" transform="translate(816 262.584) rotate(0) scale(0.047999997)">
<use href="#path39" transform="translate(0 0)"/>
</g>
</g>
<g>
<g data-source-text="⸪" fill="#20242e" transform="translate(888 262.584) rotate(0) scale(0.047999997)">
<use href="#path40" transform="translate(0 0)"/>
</g>
</g>
<g>
<g data-source-text="⸫" fill="#20242e" transform="translate(960 262.584) rotate(0) scale(0.047999997)">
<use href="#path41" transform="translate(0 0)"/>
</g>
</g>
<g>
<g data-source-text="⸬" fill="#20242e" transform="translate(1032 262.584) rotate(0) scale(0.047999997)">
<use href="#path42" transform="translate(0 0)"/>
</g>
</g>
<g>
<g data-source-text="⸭" fill="#20242e" transform="translate(1104 262.584) rotate(0) scale(0.047999997)">
<use href="#path43" transform="translate(0 0)"/>
</g>
</g>
<g>
<g data-source-text="⸮" fill="#20242e" transform="translate(1176 262.584) rotate(0) scale(0.047999997)">
<use href="#path44" transform="translate(0 0)"/>
</g>
</g>
<g>
<g data-source-text="ⸯ" fill="#20242e" transform="translate(1248 262.584) rotate(0) scale(0.047999997)">
<use href="#path45" transform="translate(0 0)"/>
</g>
</g>
<g>
<g data-source-text="U+2E30" fill="#20242e" transform="translate(36 329.292) rotate(0) scale(0.023999998)">
<use href="#path17" transform="translate(0 0)"/>
<use href="#path18" transform="translate(500 0)"/>
<use href="#path3" transform="translate(1000 0)"/>
<use href="#path15" transform="translate(1500 0)"/>
<use href="#path4" transform="translate(2000 0)"/>
<use href="#path1" transform="translate(2500 0)"/>
</g>
</g>
<g>
<g data-source-text="⸰" fill="#20242e" transform="translate(168 334.584) rotate(0) scale(0.047999997)">
<use href="#path46" transform="translate(0 0)"/>
</g>
</g>
<g>
<g data-source-text="⸱" fill="#20242e" transform="translate(240 334.584) rotate(0) scale(0.047999997)">
<use href="#path47" transform="translate(0 0)"/>
</g>
</g>
<g>
<g data-source-text="⸲" fill="#20242e" transform="translate(312 334.584) rotate(0) scale(0.047999997)">
<use href="#path48" transform="translate(0 0)"/>
</g>
</g>
<g>
<g data-source-text="⸳" fill="#20242e" transform="translate(384 334.584) rotate(0) scale(0.047999997)">
<use href="#path49" transform="translate(0 0)"/>
</g>
</g>
<g>
<g data-source-text="⸴" fill="#20242e" transform="translate(456 334.584) rotate(0) scale(0.047999997)">
<use href="#path50" transform="translate(0 0)"/>
</g>
</g>
<g>
<g data-source-text="⸵" fill="#20242e" transform="translate(528 334.584) rotate(0) scale(0.047999997)">
<use href="#path51" transform="translate(0 0)"/>
</g>
</g>
<g>
<g data-source-text="⸶" fill="#20242e" transform="translate(600 334.584) rotate(0) scale(0.047999997)">
<use href="#path52" transform="translate(0 0)"/>
</g>
</g>
<g>
<g data-source-text="⸷" fill="#20242e" transform="translate(672 334.584) rotate(0) scale(0.047999997)">
<use href="#path53" transform="translate(0 0)"/>
</g>
</g>
<g>
<g data-source-text="⸸" fill="#20242e" transform="translate(744 334.584) rotate(0) scale(0.047999997)">
<use href="#path54" transform="translate(0 0)"/>
</g>
</g>
<g>
<g data-source-text="" fill="#20242e40" transform="translate(816 334.584) rotate(0) scale(0.047999997)">
<use href="#path19" transform="translate(0 0)"/>
</g>
</g>
<g>
<g data-source-text="" fill="#20242e40" transform="translate(888 334.584) rotate(0) scale(0.047999997)">
<use href="#path19" transform="translate(0 0)"/>
</g>
</g>
<g>
<g data-source-text="" fill="#20242e40" transform="translate(960 334.584) rotate(0) scale(0.047999997)">
<use href="#path19" transform="translate(0 0)"/>
</g>
</g>
<g>
<g data-source-text="" fill="#20242e40" transform="translate(1032 334.584) rotate(0) scale(0.047999997)">
<use href="#path19" transform="translate(0 0)"/>
</g>
</g>
<g>
<g data-source-text="" fill="#20242e40" transform="translate(1104 334.584) rotate(0) scale(0.047999997)">
<use href="#path19" transform="translate(0 0)"/>
</g>
</g>
<g>
<g data-source-text="" fill="#20242e40" transform="translate(1176 334.584) rotate(0) scale(0.047999997)">
<use href="#path19" transform="translate(0 0)"/>
</g>
</g>
<g>
<g data-source-text="" fill="#20242e40" transform="translate(1248 334.584) rotate(0) scale(0.047999997)">
<use href="#path19" transform="translate(0 0)"/>
</g>
</g>
<g>
<g data-source-text="U+2E40" fill="#20242e" transform="translate(36 401.292) rotate(0) scale(0.023999998)">
<use href="#path17" transform="translate(0 0)"/>
<use href="#path18" transform="translate(500 0)"/>
<use href="#path3" transform="translate(1000 0)"/>
<use href="#path15" transform="translate(1500 0)"/>
<use href="#path5" transform="translate(2000 0)"/>
<use href="#path1" transform="translate(2500 0)"/>
</g>
</g>
<g>
<g data-source-text="⹀" fill="#20242e" transform="translate(168 406.584) rotate(0) scale(0.047999997)">
<use href="#path55" transform="translate(0 0)"/>
</g>
</g>
<g>
<g data-source-text="⹁" fill="#20242e" transform="translate(240 406.584) rotate(0) scale(0.047999997)">
<use href="#path56" transform="translate(0 0)"/>
</g>
</g>
<g>
<g data-source-text="⹂" fill="#20242e" transform="translate(312 406.584) rotate(0) scale(0.047999997)">
<use href="#path57" transform="translate(0 0)"/>
</g>
</g>
<g>
<g data-source-text="⹃" fill="#20242e" transform="translate(372 406.584) rotate(0) scale(0.047999997)">
<use href="#path58" transform="translate(0 0)"/>
</g>
</g>
<g>
<g data-source-text="⹄" fill="#20242e" transform="translate(456 406.584) rotate(0) scale(0.047999997)">
<use href="#path59" transform="translate(0 0)"/>
</g>
</g>
<g>
<g data-source-text="⹅" fill="#20242e" transform="translate(528 406.584) rotate(0) scale(0.047999997)">
<use href="#path60" transform="translate(0 0)"/>
</g>
</g>
<g>
<g data-source-text="⹆" fill="#20242e" transform="translate(600 406.584) rotate(0) scale(0.047999997)">
<use href="#path61" transform="translate(0 0)"/>
</g>
</g>
<g>
<g data-source-text="⹇" fill="#20242e" transform="translate(672 406.584) rotate(0) scale(0.047999997)">
<use href="#path62" transform="translate(0 0)"/>
</g>
</g>
<g>
<g data-source-text="⹈" fill="#20242e" transform="translate(744 406.584) rotate(0) scale(0.047999997)">
<use href="#path63" transform="translate(0 0)"/>
</g>
</g>
<g>
<g data-source-text="⹉" fill="#20242e" transform="translate(816 406.584) rotate(0) scale(0.047999997)">
<use href="#path64" transform="translate(0 0)"/>
</g>
</g>
<g>
<g data-source-text="⹊" fill="#20242e" transform="translate(888 406.584) rotate(0) scale(0.047999997)">
<use href="#path65" transform="translate(0 0)"/>
</g>
</g>
<g>
<g data-source-text="⹋" fill="#20242e" transform="translate(960 406.584) rotate(0) scale(0.047999997)">
<use href="#path66" transform="translate(0 0)"/>
</g>
</g>
<g>
<g data-source-text="" fill="#20242e40" transform="translate(1032 406.584) rotate(0) scale(0.047999997)">
<use href="#path19" transform="translate(0 0)"/>
</g>
</g>
<g>
<g data-source-text="" fill="#20242e40" transform="translate(1104 406.584) rotate(0) scale(0.047999997)">
<use href="#path19" transform="translate(0 0)"/>
</g>
</g>
<g>
<g data-source-text="" fill="#20242e40" transform="translate(1176 406.584) rotate(0) scale(0.047999997)">
<use href="#path19" transform="translate(0 0)"/>
</g>
</g>
<g>
<g data-source-text="" fill="#20242e40" transform="translate(1248 406.584) rotate(0) scale(0.047999997)">
<use href="#path19" transform="translate(0 0)"/>
</g>
</g>
<g>
<g data-source-text="U+2E50" fill="#20242e" transform="translate(36 473.292) rotate(0) scale(0.023999998)">
<use href="#path17" transform="translate(0 0)"/>
<use href="#path18" transform="translate(500 0)"/>
<use href="#path3" transform="translate(1000 0)"/>
<use href="#path15" transform="translate(1500 0)"/>
<use href="#path6" transform="translate(2000 0)"/>
<use href="#path1" transform="translate(2500 0)"/>
</g>
</g>
<g>
<g data-source-text="" fill="#20242e40" transform="translate(168 478.584) rotate(0) scale(0.047999997)">
<use href="#path19" transform="translate(0 0)"/>
</g>
</g>
<g>
<g data-source-text="" fill="#20242e40" transform="translate(240 478.584) rotate(0) scale(0.047999997)">
<use href="#path19" transform="translate(0 0)"/>
</g>
</g>
<g>
<g data-source-text="⹒" fill="#20242e" transform="translate(312 478.584) rotate(0) scale(0.047999997)">
<use href="#path67" transform="translate(0 0)"/>
</g>
</g>
<g>
<g data-source-text="" fill="#20242e40" transform="translate(384 478.584) rotate(0) scale(0.047999997)">
<use href="#path19" transform="translate(0 0)"/>
</g>
</g>
<g>
<g data-source-text="" fill="#20242e40" transform="translate(456 478.584) rotate(0) scale(0.047999997)">
<use href="#path19" transform="translate(0 0)"/>
</g>
</g>
<g>
<g data-source-text="" fill="#20242e40" transform="translate(528 478.584) rotate(0) scale(0.047999997)">
<use href="#path19" transform="translate(0 0)"/>
</g>
</g>
<g>
<g data-source-text="" fill="#20242e40" transform="translate(600 478.584) rotate(0) scale(0.047999997)">
<use href="#path19" transform="translate(0 0)"/>
</g>
</g>
<g>
<g data-source-text="" fill="#20242e40" transform="translate(672 478.584) rotate(0) scale(0.047999997)">
<use href="#path19" transform="translate(0 0)"/>
</g>
</g>
<g>
<g data-source-text="" fill="#20242e40" transform="translate(744 478.584) rotate(0) scale(0.047999997)">
<use href="#path19" transform="translate(0 0)"/>
</g>
</g>
<g>
<g data-source-text="" fill="#20242e40" transform="translate(816 478.584) rotate(0) scale(0.047999997)">
<use href="#path19" transform="translate(0 0)"/>
</g>
</g>
<g>
<g data-source-text="" fill="#20242e40" transform="translate(888 478.584) rotate(0) scale(0.047999997)">
<use href="#path19" transform="translate(0 0)"/>
</g>
</g>
<g>
<g data-source-text="" fill="#20242e40" transform="translate(960 478.584) rotate(0) scale(0.047999997)">
<use href="#path19" transform="translate(0 0)"/>
</g>
</g>
<g>
<g data-source-text="" fill="#20242e40" transform="translate(1032 478.584) rotate(0) scale(0.047999997)">
<use href="#path19" transform="translate(0 0)"/>
</g>
</g>
<g>
<g data-source-text="" fill="#20242e40" transform="translate(1104 478.584) rotate(0) scale(0.047999997)">
<use href="#path19" transform="translate(0 0)"/>
</g>
</g>
<g>
<g data-source-text="" fill="#20242e40" transform="translate(1176 478.584) rotate(0) scale(0.047999997)">
<use href="#path19" transform="translate(0 0)"/>
</g>
</g>
<g>
<g data-source-text="" fill="#20242e40" transform="translate(1248 478.584) rotate(0) scale(0.047999997)">
<use href="#path19" transform="translate(0 0)"/>
</g>
</g>
<g>
<g data-source-text="U+2E60" fill="#20242e" transform="translate(36 545.292) rotate(0) scale(0.023999998)">
<use href="#path17" transform="translate(0 0)"/>
<use href="#path18" transform="translate(500 0)"/>
<use href="#path3" transform="translate(1000 0)"/>
<use href="#path15" transform="translate(1500 0)"/>
<use href="#path7" transform="translate(2000 0)"/>
<use href="#path1" transform="translate(2500 0)"/>
</g>
</g>
<g>
<g data-source-text="" fill="#20242e40" transform="translate(168 550.584) rotate(0) scale(0.047999997)">
<use href="#path19" transform="translate(0 0)"/>
</g>
</g>
<g>
<g data-source-text="" fill="#20242e40" transform="translate(240 550.584) rotate(0) scale(0.047999997)">
<use href="#path19" transform="translate(0 0)"/>
</g>
</g>
<g>
<g data-source-text="" fill="#20242e40" transform="translate(312 550.584) rotate(0) scale(0.047999997)">
<use href="#path19" transform="translate(0 0)"/>
</g>
</g>
<g>
<g data-source-text="" fill="#20242e40" transform="translate(384 550.584) rotate(0) scale(0.047999997)">
<use href="#path19" transform="translate(0 0)"/>
</g>
</g>
<g>
<g data-source-text="" fill="#20242e40" transform="translate(456 550.584) rotate(0) scale(0.047999997)">
<use href="#path19" transform="translate(0 0)"/>
</g>
</g>
<g>
<g data-source-text="" fill="#20242e40" transform="translate(528 550.584) rotate(0) scale(0.047999997)">
<use href="#path19" transform="translate(0 0)"/>
</g>
</g>
<g>
<g data-source-text="" fill="#20242e40" transform="translate(600 550.584) rotate(0) scale(0.047999997)">
<use href="#path19" transform="translate(0 0)"/>
</g>
</g>
<g>
<g data-source-text="" fill="#20242e40" transform="translate(672 550.584) rotate(0) scale(0.047999997)">
<use href="#path19" transform="translate(0 0)"/>
</g>
</g>
<g>
<g data-source-text="" fill="#20242e40" transform="translate(744 550.584) rotate(0) scale(0.047999997)">
<use href="#path19" transform="translate(0 0)"/>
</g>
</g>
<g>
<g data-source-text="" fill="#20242e40" transform="translate(816 550.584) rotate(0) scale(0.047999997)">
<use href="#path19" transform="translate(0 0)"/>
</g>
</g>
<g>
<g data-source-text="" fill="#20242e40" transform="translate(888 550.584) rotate(0) scale(0.047999997)">
<use href="#path19" transform="translate(0 0)"/>
</g>
</g>
<g>
<g data-source-text="" fill="#20242e40" transform="translate(960 550.584) rotate(0) scale(0.047999997)">
<use href="#path19" transform="translate(0 0)"/>
</g>
</g>
<g>
<g data-source-text="" fill="#20242e40" transform="translate(1032 550.584) rotate(0) scale(0.047999997)">
<use href="#path19" transform="translate(0 0)"/>
</g>
</g>
<g>
<g data-source-text="" fill="#20242e40" transform="translate(1104 550.584) rotate(0) scale(0.047999997)">
<use href="#path19" transform="translate(0 0)"/>
</g>
</g>
<g>
<g data-source-text="" fill="#20242e40" transform="translate(1176 550.584) rotate(0) scale(0.047999997)">
<use href="#path19" transform="translate(0 0)"/>
</g>
</g>
<g>
<g data-source-text="" fill="#20242e40" transform="translate(1248 550.584) rotate(0) scale(0.047999997)">
<use href="#path19" transform="translate(0 0)"/>
</g>
</g>
<g>
<g data-source-text="U+2E70" fill="#20242e" transform="translate(36 617.292) rotate(0) scale(0.023999998)">
<use href="#path17" transform="translate(0 0)"/>
<use href="#path18" transform="translate(500 0)"/>
<use href="#path3" transform="translate(1000 0)"/>
<use href="#path15" transform="translate(1500 0)"/>
<use href="#path8" transform="translate(2000 0)"/>
<use href="#path1" transform="translate(2500 0)"/>
</g>
</g>
<g>
<g data-source-text="" fill="#20242e40" transform="translate(168 622.584) rotate(0) scale(0.047999997)">
<use href="#path19" transform="translate(0 0)"/>
</g>
</g>
<g>
<g data-source-text="" fill="#20242e40" transform="translate(240 622.584) rotate(0) scale(0.047999997)">
<use href="#path19" transform="translate(0 0)"/>
</g>
</g>
<g>
<g data-source-text="" fill="#20242e40" transform="translate(312 622.584) rotate(0) scale(0.047999997)">
<use href="#path19" transform="translate(0 0)"/>
</g>
</g>
<g>
<g data-source-text="" fill="#20242e40" transform="translate(384 622.584) rotate(0) scale(0.047999997)">
<use href="#path19" transform="translate(0 0)"/>
</g>
</g>
<g>
<g data-source-text="" fill="#20242e40" transform="translate(456 622.584) rotate(0) scale(0.047999997)">
<use href="#path19" transform="translate(0 0)"/>
</g>
</g>
<g>
<g data-source-text="" fill="#20242e40" transform="translate(528 622.584) rotate(0) scale(0.047999997)">
<use href="#path19" transform="translate(0 0)"/>
</g>
</g>
<g>
<g data-source-text="" fill="#20242e40" transform="translate(600 622.584) rotate(0) scale(0.047999997)">
<use href="#path19" transform="translate(0 0)"/>
</g>
</g>
<g>
<g data-source-text="" fill="#20242e40" transform="translate(672 622.584) rotate(0) scale(0.047999997)">
<use href="#path19" transform="translate(0 0)"/>
</g>
</g>
<g>
<g data-source-text="" fill="#20242e40" transform="translate(744 622.584) rotate(0) scale(0.047999997)">
<use href="#path19" transform="translate(0 0)"/>
</g>
</g>
<g>
<g data-source-text="" fill="#20242e40" transform="translate(816 622.584) rotate(0) scale(0.047999997)">
<use href="#path19" transform="translate(0 0)"/>
</g>
</g>
<g>
<g data-source-text="" fill="#20242e40" transform="translate(888 622.584) rotate(0) scale(0.047999997)">
<use href="#path19" transform="translate(0 0)"/>
</g>
</g>
<g>
<g data-source-text="" fill="#20242e40" transform="translate(960 622.584) rotate(0) scale(0.047999997)">
<use href="#path19" transform="translate(0 0)"/>
</g>
</g>
<g>
<g data-source-text="" fill="#20242e40" transform="translate(1032 622.584) rotate(0) scale(0.047999997)">
<use href="#path19" transform="translate(0 0)"/>
</g>
</g>
<g>
<g data-source-text="" fill="#20242e40" transform="translate(1104 622.584) rotate(0) scale(0.047999997)">
<use href="#path19" transform="translate(0 0)"/>
</g>
</g>
<g>
<g data-source-text="" fill="#20242e40" transform="translate(1176 622.584) rotate(0) scale(0.047999997)">
<use href="#path19" transform="translate(0 0)"/>
</g>
</g>
<g>
<g data-source-text="" fill="#20242e40" transform="translate(1248 622.584) rotate(0) scale(0.047999997)">
<use href="#path19" transform="translate(0 0)"/>
</g>
</g>
</svg>