<?xml version="1.0" encoding="UTF-8" standalone="no"?>
<svg height="360" viewBox="0 0 1296 360" width="1296" xmlns="http://www.w3.org/2000/svg">
<defs>
<path d="M 250 8 Q 223 8 196 3 Q 169 -2 145 -15 Q 121 -28 102.5 -48.5 Q 84 -69 72.5 -94 Q 61 -119 56.5 -146 Q 52 -173 52 -200 L 52 -535 Q 52 -562 56.5 -589 Q 61 -616 72.5 -641 Q 84 -666 102.5 -686.5 Q 121 -707 145 -720 Q 169 -733 196 -738 Q 223 -743 250 -743 Q 277 -743 304 -738 Q 331 -733 355 -720 Q 379 -707 397.5 -686.5 Q 416 -666 427.5 -641 Q 439 -616 443.5 -589 Q 448 -562 448 -535 L 448 -200 Q 448 -173 443.5 -146 Q 439 -119 427.5 -94 Q 416 -69 397.5 -48.5 Q 379 -28 355 -15 Q 331 -2 304 3 Q 277 8 250 8 Z M 153 -337 L 347 -491 L 347 -535 Q 347 -557 342.5 -578.5 Q 338 -600 325.5 -618 Q 313 -636 292.5 -645.5 Q 272 -655 250 -655 Q 228 -655 207.5 -645.5 Q 187 -636 174.5 -618 Q 162 -600 157.5 -578.5 Q 153 -557 153 -535 Z M 250 -80 Q 272 -80 292.5 -89.5 Q 313 -99 325.5 -117 Q 338 -135 342.5 -156.5 Q 347 -178 347 -200 L 347 -398 L 153 -244 L 153 -200 Q 153 -178 157.5 -156.5 Q 162 -135 174.5 -117 Q 187 -99 207.5 -89.5 Q 228 -80 250 -80 Z " id="path1"/>
<path d="M 230 0 L 230 -631 L 110 -528 L 55 -584 L 230 -735 L 330 -735 L 330 0 Z " id="path2"/>
<path d="M 440 0 L 60 0 L 60 -1 Q 60 -27 61 -53.5 Q 62 -80 66 -106.5 Q 70 -133 77.5 -158.5 Q 85 -184 96.5 -207.5 Q 108 -231 123 -253 Q 138 -275 156 -294.5 Q 174 -314 194 -331 Q 214 -348 235.5 -364 Q 257 -380 277.5 -397 Q 298 -414 313 -435.5 Q 328 -457 335.5 -483 Q 343 -509 343 -535 Q 343 -557 339 -578 Q 335 -599 323.5 -617 Q 312 -635 292 -645 Q 272 -655 251 -655 Q 231 -655 212.5 -647.5 Q 194 -640 182 -625 Q 170 -610 164.5 -591 Q 159 -572 159 -552 L 159 -548 L 58 -548 L 58 -555 Q 58 -581 64 -605.5 Q 70 -630 81.5 -652.5 Q 93 -675 111.5 -693 Q 130 -711 152.5 -722.5 Q 175 -734 200.5 -738.5 Q 226 -743 251 -743 Q 278 -743 304.5 -737.5 Q 331 -732 354.5 -719 Q 378 -706 396 -685.5 Q 414 -665 424.5 -640.5 Q 435 -616 439.5 -589 Q 444 -562 444 -535 Q 444 -501 435 -468 Q 426 -435 407.5 -406 Q 389 -377 364 -353.5 Q 339 -330 312.5 -308.5 Q 286 -287 261 -264 Q 236 -241 216.5 -213 Q 197 -185 184 -153.5 Q 171 -122 166 -88 L 440 -88 Z " id="path3"/>
<path d="M 253 8 Q 227 8 201 4 Q 175 -0 151.5 -11.5 Q 128 -23 108.5 -40.5 Q 89 -58 76 -81 Q 63 -104 56.5 -129.5 Q 50 -155 50 -181 L 50 -187 L 151 -187 L 151 -184 Q 151 -163 157.5 -143 Q 164 -123 178 -108 Q 192 -93 212 -86.5 Q 232 -80 253 -80 Q 275 -80 296 -88.5 Q 317 -97 330.5 -114.5 Q 344 -132 349.5 -154 Q 355 -176 355 -198 Q 355 -217 351 -235.5 Q 347 -254 338.5 -271 Q 330 -288 316.5 -301 Q 303 -314 286 -322 Q 269 -330 250 -332 Q 231 -334 212 -334 L 212 -422 Q 229 -422 246 -424 Q 263 -426 278.5 -433 Q 294 -440 306 -452.5 Q 318 -465 325.5 -480.5 Q 333 -496 336 -513 Q 339 -530 339 -547 Q 339 -566 334.5 -585.5 Q 330 -605 319.5 -621 Q 309 -637 291 -646 Q 273 -655 253 -655 Q 234 -655 216.5 -647 Q 199 -639 187.5 -624 Q 176 -609 171.5 -590 Q 167 -571 167 -553 L 167 -548 L 66 -548 L 66 -556 Q 66 -581 71.5 -605.5 Q 77 -630 88 -652 Q 99 -674 117 -692.5 Q 135 -711 157 -722.5 Q 179 -734 203.5 -738.5 Q 228 -743 253 -743 Q 278 -743 303.5 -738 Q 329 -733 351 -721 Q 373 -709 390 -690 Q 407 -671 418 -648 Q 429 -625 434.5 -600 Q 440 -575 440 -550 Q 440 -524 434 -498.5 Q 428 -473 415.5 -450.5 Q 403 -428 384.5 -409.5 Q 366 -391 343 -379 Q 369 -368 390.5 -348.5 Q 412 -329 427 -304.5 Q 442 -280 449 -252 Q 456 -224 456 -196 Q 456 -168 450 -141.5 Q 444 -115 432 -91 Q 420 -67 401 -47 Q 382 -27 358 -14.5 Q 334 -2 307 3 Q 280 8 253 8 Z " id="path4"/>
<path d="M 282 0 L 282 -188 L 52 -188 L 52 -275 L 276 -735 L 385 -735 L 161 -275 L 282 -275 L 282 -435 L 382 -435 L 382 -275 L 440 -275 L 440 -188 L 382 -188 L 382 0 Z " id="path5"/>
<path d="M 252 8 Q 227 8 202.5 3.5 Q 178 -1 155.5 -12 Q 133 -23 115 -41 Q 97 -59 85 -80.5 Q 73 -102 66.5 -126.5 Q 60 -151 59 -176 L 159 -176 Q 161 -158 167 -139.5 Q 173 -121 185.5 -107 Q 198 -93 216 -86.5 Q 234 -80 252 -80 Q 269 -80 285 -87 Q 301 -94 312 -107 Q 323 -120 330 -135.5 Q 337 -151 340.5 -168 Q 344 -185 345.5 -202 Q 347 -219 347 -236 Q 347 -252 346 -269 Q 345 -286 341 -302 Q 337 -318 331 -334 Q 325 -350 314 -363 Q 303 -376 287.5 -383.5 Q 272 -391 256 -391 Q 240 -391 224.5 -387 Q 209 -383 196 -373.5 Q 183 -364 176 -349.5 Q 169 -335 168 -319 L 68 -319 L 68 -735 L 421 -735 L 421 -647 L 168 -647 L 168 -464 Q 189 -472 211 -475 Q 233 -478 256 -478 Q 285 -478 313.5 -470.5 Q 342 -463 365.5 -445.5 Q 389 -428 405.5 -403 Q 422 -378 431.5 -350.5 Q 441 -323 444.5 -294 Q 448 -265 448 -235 Q 448 -206 444 -176.5 Q 440 -147 430.5 -119 Q 421 -91 404 -66.5 Q 387 -42 363.5 -24.5 Q 340 -7 311 0.5 Q 282 8 252 8 Z " id="path6"/>
<path d="M 250 8 Q 221 8 192.5 1.5 Q 164 -5 140 -21 Q 116 -37 98.5 -60.5 Q 81 -84 70.5 -111 Q 60 -138 56 -166.5 Q 52 -195 52 -224 Q 52 -268 60 -311 Q 68 -354 81.5 -395.5 Q 95 -437 113 -477 Q 131 -517 150 -556 L 238 -735 L 347 -735 L 240 -517 Q 228 -493 216.5 -468.5 Q 205 -444 195 -419 Q 214 -438 239 -447 Q 264 -456 291 -456 Q 317 -456 342.5 -447 Q 368 -438 386.5 -419.5 Q 405 -401 417 -377.5 Q 429 -354 436 -328.5 Q 443 -303 445.5 -276.5 Q 448 -250 448 -224 Q 448 -195 444 -166.5 Q 440 -138 429.5 -111 Q 419 -84 401.5 -60.5 Q 384 -37 360 -21 Q 336 -5 307.5 1.5 Q 279 8 250 8 Z M 250 -80 Q 266 -80 282 -85.5 Q 298 -91 309.5 -102.5 Q 321 -114 328.5 -129 Q 336 -144 340 -159.5 Q 344 -175 345.5 -191.5 Q 347 -208 347 -224 Q 347 -240 345.5 -256.5 Q 344 -273 340 -289 Q 336 -305 328.5 -319.5 Q 321 -334 309.5 -345.5 Q 298 -357 282 -362.5 Q 266 -368 250 -368 Q 235 -368 221 -363.5 Q 207 -359 195.5 -349.5 Q 184 -340 176.5 -327.5 Q 169 -315 164 -301 Q 159 -287 156.5 -272.5 Q 154 -258 153 -243 L 153 -224 Q 153 -208 154.5 -191.5 Q 156 -175 160 -159.5 Q 164 -144 171.5 -129 Q 179 -114 190.5 -102.5 Q 202 -91 218 -85.5 Q 234 -80 250 -80 Z " id="path7"/>
<path d="M 242 0 L 138 0 L 336 -647 L 60 -647 L 60 -735 L 440 -735 L 440 -647 Z " id="path8"/>
<path d="M 250 8 Q 225 8 200 4 Q 175 -0 152 -10 Q 129 -20 109.5 -37 Q 90 -54 77.5 -75.5 Q 65 -97 58.5 -121.5 Q 52 -146 52 -172 Q 52 -203 62 -232.5 Q 72 -262 88.5 -288 Q 105 -314 127 -336 Q 149 -358 174 -378 Q 152 -396 132.5 -417 Q 113 -438 98.5 -462.5 Q 84 -487 76 -514.5 Q 68 -542 68 -570 Q 68 -594 73.5 -617 Q 79 -640 90.5 -661 Q 102 -682 119.5 -698.5 Q 137 -715 158 -725 Q 179 -735 202.5 -739 Q 226 -743 250 -743 Q 274 -743 297.5 -739 Q 321 -735 342 -725 Q 363 -715 380.5 -698.5 Q 398 -682 409.5 -661 Q 421 -640 426.5 -617 Q 432 -594 432 -570 Q 432 -542 424 -514.5 Q 416 -487 401.5 -462.5 Q 387 -438 367.5 -417 Q 348 -396 326 -378 Q 351 -358 373 -336 Q 395 -314 411.5 -288 Q 428 -262 438 -232.5 Q 448 -203 448 -172 Q 448 -146 441.5 -121.5 Q 435 -97 422.5 -75.5 Q 410 -54 390.5 -37 Q 371 -20 348 -10 Q 325 -0 300 4 Q 275 8 250 8 Z M 250 -435 Q 266 -447 280.5 -461.5 Q 295 -476 306.5 -493 Q 318 -510 325 -529.5 Q 332 -549 332 -569 Q 332 -586 326.5 -602.5 Q 321 -619 310 -631.5 Q 299 -644 283 -649.5 Q 267 -655 250 -655 Q 233 -655 217 -649.5 Q 201 -644 190 -631.5 Q 179 -619 173.5 -602.5 Q 168 -586 168 -569 Q 168 -549 175 -529.5 Q 182 -510 193.5 -493 Q 205 -476 219.5 -461.5 Q 234 -447 250 -435 Z M 250 -80 Q 269 -80 287.5 -85.5 Q 306 -91 320 -104 Q 334 -117 340.5 -135.5 Q 347 -154 347 -173 Q 347 -196 338.5 -217.5 Q 330 -239 316.5 -257.5 Q 303 -276 285.5 -291 Q 268 -306 250 -320 Q 232 -306 214.5 -291 Q 197 -276 183.5 -257.5 Q 170 -239 161.5 -217.5 Q 153 -196 153 -173 Q 153 -154 159.5 -135.5 Q 166 -117 180 -104 Q 194 -91 212.5 -85.5 Q 231 -80 250 -80 Z " id="path9"/>
<path d="M 262 0 L 153 0 L 260 -218 Q 272 -242 283.5 -266.5 Q 295 -291 305 -316 Q 286 -297 261 -288 Q 236 -279 209 -279 Q 183 -279 157.5 -288 Q 132 -297 113.5 -315.5 Q 95 -334 83 -357.5 Q 71 -381 64 -406.5 Q 57 -432 54.5 -458.5 Q 52 -485 52 -511 Q 52 -540 56 -568.5 Q 60 -597 70.5 -624 Q 81 -651 98.5 -674.5 Q 116 -698 140 -714 Q 164 -730 192.5 -736.5 Q 221 -743 250 -743 Q 279 -743 307.5 -736.5 Q 336 -730 360 -714 Q 384 -698 401.5 -674.5 Q 419 -651 429.5 -624 Q 440 -597 444 -568.5 Q 448 -540 448 -511 Q 448 -467 440 -424 Q 432 -381 418.5 -339.5 Q 405 -298 387 -258 Q 369 -218 350 -179 Z M 250 -367 Q 265 -367 279 -371.5 Q 293 -376 304.5 -385.5 Q 316 -395 323.5 -407.5 Q 331 -420 336 -434 Q 341 -448 343.5 -462.5 Q 346 -477 347 -492 L 347 -511 Q 347 -527 345.5 -543.5 Q 344 -560 340 -575.5 Q 336 -591 328.5 -606 Q 321 -621 309.5 -632.5 Q 298 -644 282 -649.5 Q 266 -655 250 -655 Q 234 -655 218 -649.5 Q 202 -644 190.5 -632.5 Q 179 -621 171.5 -606 Q 164 -591 160 -575.5 Q 156 -560 154.5 -543.5 Q 153 -527 153 -511 Q 153 -495 154.5 -478.5 Q 156 -462 160 -446 Q 164 -430 171.5 -415.5 Q 179 -401 190.5 -389.5 Q 202 -378 218 -372.5 Q 234 -367 250 -367 Z " id="path10"/>
<path d="M 39 0 L 192 -735 L 308 -735 L 461 0 L 358 0 L 326 -172 L 174 -172 L 142 0 Z M 309 -260 L 265 -490 Q 262 -511 258 -531.5 Q 254 -552 250 -572 Q 246 -552 242 -531.5 Q 238 -511 235 -490 L 191 -260 Z " id="path11"/>
<path d="M 60 0 L 60 -735 L 234 -735 Q 261 -735 287 -730.5 Q 313 -726 336 -714 Q 359 -702 377.5 -682.5 Q 396 -663 408 -639.5 Q 420 -616 424.5 -590 Q 429 -564 429 -538 Q 429 -515 425 -492 Q 421 -469 410.5 -448.5 Q 400 -428 383.5 -411 Q 367 -394 347 -383 Q 372 -373 393.5 -355.5 Q 415 -338 429.5 -314.5 Q 444 -291 450 -264 Q 456 -237 456 -210 Q 456 -181 450 -152.5 Q 444 -124 430 -98.5 Q 416 -73 394.5 -53.5 Q 373 -34 347 -21.5 Q 321 -9 292 -4.5 Q 263 -0 234 0 Z M 161 -424 L 234 -424 Q 255 -424 274.5 -432.5 Q 294 -441 306.5 -457.5 Q 319 -474 324 -494.5 Q 329 -515 329 -536 Q 329 -557 324 -577.5 Q 319 -598 306.5 -614.5 Q 294 -631 274.5 -639 Q 255 -647 234 -647 L 161 -647 Z M 161 -88 L 234 -88 Q 251 -88 267 -91 Q 283 -94 297.5 -101.5 Q 312 -109 323.5 -121 Q 335 -133 342.5 -148 Q 350 -163 352.5 -179 Q 355 -195 355 -212 Q 355 -228 352.5 -244.5 Q 350 -261 343 -276 Q 336 -291 324.5 -303 Q 313 -315 298 -322.5 Q 283 -330 267 -333 Q 251 -336 234 -336 L 161 -336 Z " id="path12"/>
<path d="M 247 8 Q 220 8 193 2.5 Q 166 -3 142.5 -16 Q 119 -29 101 -49.5 Q 83 -70 72 -94.5 Q 61 -119 56.5 -146 Q 52 -173 52 -200 L 52 -535 Q 52 -562 56.5 -589 Q 61 -616 72 -640.5 Q 83 -665 101 -685.5 Q 119 -706 142.5 -719 Q 166 -732 193 -737.5 Q 220 -743 247 -743 Q 273 -743 298 -738.5 Q 323 -734 346 -723 Q 369 -712 387.5 -694 Q 406 -676 418 -653.5 Q 430 -631 436 -606 Q 442 -581 442 -555 L 442 -548 L 341 -548 L 341 -552 Q 341 -572 335.5 -591.5 Q 330 -611 317.5 -626 Q 305 -641 286 -648 Q 267 -655 247 -655 Q 225 -655 205 -645.5 Q 185 -636 173 -618 Q 161 -600 157 -578.5 Q 153 -557 153 -535 L 153 -200 Q 153 -178 157 -156.5 Q 161 -135 173 -117 Q 185 -99 205 -89.5 Q 225 -80 247 -80 Q 267 -80 286 -87 Q 305 -94 317.5 -109 Q 330 -124 335.5 -143.5 Q 341 -163 341 -183 L 341 -187 L 442 -187 L 442 -180 Q 442 -154 436 -129 Q 430 -104 418 -81.5 Q 406 -59 387.5 -41 Q 369 -23 346 -12 Q 323 -1 298 3.5 Q 273 8 247 8 Z " id="path13"/>
<path d="M 60 0 L 60 -735 L 219 -735 Q 249 -735 279 -730 Q 309 -725 336.5 -712 Q 364 -699 386 -678.5 Q 408 -658 422 -631.5 Q 436 -605 442 -575 Q 448 -545 448 -515 L 448 -220 Q 448 -190 442 -160 Q 436 -130 422 -103.5 Q 408 -77 386 -56.5 Q 364 -36 336.5 -23 Q 309 -10 279 -5 Q 249 -0 219 0 Z M 161 -88 L 219 -88 Q 237 -88 254 -91 Q 271 -94 286.5 -102.5 Q 302 -111 314 -124 Q 326 -137 333.5 -152.5 Q 341 -168 344 -185.5 Q 347 -203 347 -220 L 347 -515 Q 347 -532 344 -549.5 Q 341 -567 333.5 -582.5 Q 326 -598 314 -611 Q 302 -624 286.5 -632.5 Q 271 -641 254 -644 Q 237 -647 219 -647 L 161 -647 Z " id="path14"/>
<path d="M 68 0 L 68 -735 L 440 -735 L 440 -647 L 169 -647 L 169 -426 L 383 -426 L 383 -338 L 169 -338 L 169 -88 L 440 -88 L 440 0 Z " id="path15"/>
<path d="M 91 0 L 91 -735 L 440 -735 L 440 -647 L 191 -647 L 191 -426 L 383 -426 L 383 -338 L 191 -338 L 191 0 Z " id="path16"/>
<path d="M 250 8 Q 223 8 196.5 2.5 Q 170 -3 147 -16.5 Q 124 -30 106.5 -50.5 Q 89 -71 78.5 -95.5 Q 68 -120 64 -146.5 Q 60 -173 60 -200 L 60 -735 L 161 -735 L 161 -200 Q 161 -186 162.5 -172 Q 164 -158 168 -144.5 Q 172 -131 179.5 -118.5 Q 187 -106 197.5 -97 Q 208 -88 222 -84 Q 236 -80 250 -80 Q 264 -80 278 -84 Q 292 -88 302.5 -97 Q 313 -106 320.5 -118.5 Q 328 -131 332 -144.5 Q 336 -158 337.5 -172 Q 339 -186 339 -200 L 339 -735 L 440 -735 L 440 -200 Q 440 -173 436 -146.5 Q 432 -120 421.5 -95.5 Q 411 -71 393.5 -50.5 Q 376 -30 353 -16.5 Q 330 -3 303.5 2.5 Q 277 8 250 8 Z " id="path17"/>
<path d="M 300 -143 L 200 -143 L 200 -296 L 60 -296 L 60 -384 L 200 -384 L 200 -537 L 300 -537 L 300 -384 L 440 -384 L 440 -296 L 300 -296 Z " id="path18"/>
<path d="M 206 223 L 206 154 Q 228 154 249 147.5 Q 270 141 285 125.5 Q 300 110 306.5 89 Q 313 68 313 46 L 313 6 Q 308 7 304 7.5 Q 300 8 297 8 L 284 8 Q 270 8 255 5.5 Q 240 3 226.5 -1.5 Q 213 -6 201 -14.5 Q 189 -23 178.5 -33 Q 168 -43 158.5 -57.5 Q 149 -72 146 -81 L 142 -92 L 142 0 L 64 0 L 64 -735 L 142 -735 L 142 -428 Q 147 -442 154 -454.5 Q 161 -467 170.5 -478 Q 180 -489 191.5 -498.5 Q 203 -508 216 -514 Q 229 -520 246 -524 Q 263 -528 273 -528 L 284 -528 Q 298 -528 312 -526 Q 326 -524 340 -519 Q 354 -514 366 -506.5 Q 378 -499 388 -489.5 Q 398 -480 406 -468 Q 414 -456 420.5 -443 Q 427 -430 431 -416.5 Q 435 -403 438 -389 Q 441 -375 442.5 -358.5 Q 444 -342 444 -333 L 444 -200 Q 444 -177 441.5 -154.5 Q 439 -132 433 -110.5 Q 427 -89 416 -68.5 Q 405 -48 390 -32 L 390 46 Q 390 71 385 94.5 Q 380 118 369 139.5 Q 358 161 340 178 Q 322 195 300 205 Q 278 215 254 219 Q 230 223 206 223 Z M 246 -62 L 254 -62 Q 264 -62 273.5 -63 Q 283 -64 292.5 -67 Q 302 -70 310 -75 Q 318 -80 325 -86.5 Q 332 -93 338 -100.5 Q 344 -108 349 -116.5 Q 354 -125 357 -134.5 Q 360 -144 362 -153.5 Q 364 -163 365 -174 Q 366 -185 366 -192 L 366 -320 Q 366 -330 365.5 -339.5 Q 365 -349 363.5 -358.5 Q 362 -368 359.5 -377.5 Q 357 -387 353 -395.5 Q 349 -404 343.5 -412.5 Q 338 -421 331.5 -428 Q 325 -435 317 -440.5 Q 309 -446 300 -450 Q 291 -454 280 -456 Q 269 -458 263 -458 L 254 -458 Q 244 -458 234.5 -457 Q 225 -456 215.5 -453 Q 206 -450 198 -445 Q 190 -440 183 -433.5 Q 176 -427 170 -419.5 Q 164 -412 159 -403.5 Q 154 -395 151 -385.5 Q 148 -376 146 -366.5 Q 144 -357 143 -346 Q 142 -335 142 -329 L 142 -200 Q 142 -190 142.5 -180.5 Q 143 -171 144.5 -161.5 Q 146 -152 148.5 -142.5 Q 151 -133 155 -124.5 Q 159 -116 164.5 -107.5 Q 170 -99 176.5 -92 Q 183 -85 191 -79.5 Q 199 -74 208 -70 Q 217 -66 228 -64 Q 239 -62 246 -62 Z " id="path19"/>
<path d="M 299 223 L 299 154 Q 320 154 341 147.5 Q 362 141 377 125.5 Q 392 110 398.5 89 Q 405 68 405 46 L 405 0 L 358 0 L 358 -92 Q 353 -78 346 -65.5 Q 339 -53 329.5 -42 Q 320 -31 308.5 -21.5 Q 297 -12 284 -6 Q 271 0 254 4 Q 237 8 228 8 L 216 8 Q 202 8 188 6 Q 174 4 160 -1 Q 146 -6 134 -13.5 Q 122 -21 112 -30.5 Q 102 -40 94 -52 Q 86 -64 79.5 -77 Q 73 -90 69 -103.5 Q 65 -117 62 -131 Q 59 -145 57.5 -161.5 Q 56 -178 56 -188 L 56 -320 Q 56 -334 57 -348.5 Q 58 -363 60 -377 Q 62 -391 65.5 -404.5 Q 69 -418 74.5 -431.5 Q 80 -445 87.5 -457.5 Q 95 -470 104 -480.5 Q 113 -491 124 -499.5 Q 135 -508 148 -514 Q 161 -520 177.5 -524 Q 194 -528 204 -528 L 216 -528 Q 230 -528 245 -525.5 Q 260 -523 273.5 -518.5 Q 287 -514 299 -505.5 Q 311 -497 321.5 -487 Q 332 -477 341.5 -462.5 Q 351 -448 354 -439 L 358 -428 L 358 -735 L 436 -735 L 436 -70 L 482 -70 L 482 46 Q 482 70 477.5 94 Q 473 118 461.5 139.5 Q 450 161 432.5 178 Q 415 195 393 205 Q 371 215 347 219 Q 323 223 299 223 Z M 238 -62 L 246 -62 Q 256 -62 265.5 -63 Q 275 -64 284.5 -67 Q 294 -70 302 -75 Q 310 -80 317 -86.5 Q 324 -93 330 -100.5 Q 336 -108 341 -116.5 Q 346 -125 349 -134.5 Q 352 -144 354 -153.5 Q 356 -163 357 -174 Q 358 -185 358 -192 L 358 -320 Q 358 -330 357.5 -339.5 Q 357 -349 355.5 -358.5 Q 354 -368 351.5 -377.5 Q 349 -387 345 -395.5 Q 341 -404 335.5 -412.5 Q 330 -421 323.5 -428 Q 317 -435 309 -440.5 Q 301 -446 292 -450 Q 283 -454 272 -456 Q 261 -458 255 -458 L 246 -458 Q 236 -458 226.5 -457 Q 217 -456 207.5 -453 Q 198 -450 190 -445 Q 182 -440 175 -433.5 Q 168 -427 162 -419.5 Q 156 -412 151 -403.5 Q 146 -395 143 -385.5 Q 140 -376 138 -366.5 Q 136 -357 135 -346 Q 134 -335 134 -329 L 134 -200 Q 134 -190 134.5 -180.5 Q 135 -171 136.5 -161.5 Q 138 -152 140.5 -142.5 Q 143 -133 147 -124.5 Q 151 -116 156.5 -107.5 Q 162 -99 168.5 -92 Q 175 -85 183 -79.5 Q 191 -74 200 -70 Q 209 -66 220 -64 Q 231 -62 238 -62 Z " id="path20"/>
<path d="M 146 223 L 146 154 Q 167 154 188.5 147.5 Q 210 141 225 125.5 Q 240 110 246 89 Q 252 68 252 46 L 252 0 L 175 0 L 175 -403 L 64 -403 L 64 -473 L 175 -473 L 175 -579 Q 175 -591 176 -602.5 Q 177 -614 178.5 -625.5 Q 180 -637 183.5 -648.5 Q 187 -660 192.5 -670.5 Q 198 -681 204.5 -690.5 Q 211 -700 219.5 -708.5 Q 228 -717 237.5 -723.5 Q 247 -730 258 -734 Q 269 -738 282.5 -740.5 Q 296 -743 304 -743 L 314 -743 Q 331 -743 348.5 -739.5 Q 366 -736 382 -729 Q 398 -722 411 -710 Q 424 -698 432.5 -683 Q 441 -668 447 -648.5 Q 453 -629 453 -617 L 453 -600 L 375 -600 L 375 -601 Q 375 -610 374 -618 Q 373 -626 370 -634 Q 367 -642 362.5 -649 Q 358 -656 351.5 -661 Q 345 -666 335.5 -669.5 Q 326 -673 321 -673 L 314 -673 Q 304 -673 294.5 -669.5 Q 285 -666 278 -659.5 Q 271 -653 266 -644 Q 261 -635 258 -625.5 Q 255 -616 253.5 -605 Q 252 -594 252 -587 L 252 -473 L 417 -473 L 417 -403 L 252 -403 L 252 -70 L 329 -70 L 329 46 Q 329 71 324.5 94.5 Q 320 118 309 139.5 Q 298 161 280 178 Q 262 195 240 205 Q 218 215 194 219 Q 170 223 146 223 Z " id="path21"/>
<path d="M 183 -62 Q 197 -62 207 -72 Q 217 -82 222.5 -94.5 Q 228 -107 231 -120 Q 234 -133 235.5 -146.5 Q 237 -160 238 -173.5 Q 239 -187 239 -200 L 239 -320 Q 239 -333 238 -346.5 Q 237 -360 235.5 -373.5 Q 234 -387 231 -400 Q 228 -413 222.5 -425.5 Q 217 -438 207 -448 Q 197 -458 184 -458 Q 170 -458 160 -448 Q 150 -438 144.5 -425.5 Q 139 -413 136 -400 Q 133 -387 131.5 -373.5 Q 130 -360 129 -346.5 Q 128 -333 128 -320 L 128 -200 Q 128 -187 129 -173.5 Q 130 -160 131.5 -146.5 Q 133 -133 136 -120 Q 139 -107 144.5 -94.5 Q 150 -82 160 -72 Q 170 -62 183 -62 Z M 185 223 Q 158 223 132.5 212.5 Q 107 202 90 181 Q 73 160 65.5 133.5 Q 58 107 57 80 L 134 80 Q 135 92 137.5 104.5 Q 140 117 145.5 128 Q 151 139 162 146 Q 173 153 185 153 Q 198 153 208 143 Q 218 133 223 120.5 Q 228 108 231 95 Q 234 82 235.5 68.5 Q 237 55 238 41.5 Q 239 28 239 15 L 239 -71 Q 234 -56 226.5 -42 Q 219 -28 208.5 -16.5 Q 198 -5 183.5 1.5 Q 169 8 153 8 Q 137 8 122 1 Q 107 -6 96.5 -18 Q 86 -30 79 -44 Q 72 -58 67 -73.5 Q 62 -89 59 -104.5 Q 56 -120 54 -136 Q 52 -152 51.5 -168 Q 51 -184 51 -200 L 51 -320 Q 51 -336 51.5 -352 Q 52 -368 54 -384 Q 56 -400 59 -415.5 Q 62 -431 67 -446.5 Q 72 -462 79 -476 Q 86 -490 96.5 -502 Q 107 -514 122 -521 Q 137 -528 153 -528 Q 169 -528 183.5 -521.5 Q 198 -515 208.5 -503.5 Q 219 -492 226.5 -478 Q 234 -464 239 -449 L 239 -485 L 316 -520 L 316 -70 L 436 -70 L 436 46 Q 436 75 429.5 102.5 Q 423 130 407 153.5 Q 391 177 367 192.5 Q 343 208 316 216 L 316 137 Q 327 130 335.5 120 Q 344 110 349.5 98 Q 355 86 357 73 Q 359 60 359 46 L 359 0 L 316 0 L 316 15 Q 316 38 314.5 61 Q 313 84 307 106.5 Q 301 129 291.5 150 Q 282 171 266.5 188 Q 251 205 229.5 214 Q 208 223 185 223 Z " id="path22"/>
<path d="M 299 223 L 299 154 Q 320 154 341 147.5 Q 362 141 377 125.5 Q 392 110 398.5 89 Q 405 68 405 46 L 405 0 L 353 0 L 207 -221 L 157 -158 L 157 0 L 80 0 L 80 -735 L 157 -735 L 157 -278 L 348 -520 L 443 -520 L 256 -283 L 397 -70 L 482 -70 L 482 46 Q 482 71 477.5 94.5 Q 473 118 461.5 139.5 Q 450 161 432.5 178 Q 415 195 393 205 Q 371 215 347 219 Q 323 223 299 223 Z " id="path23"/>
<path d="M 280 223 L 280 154 Q 302 154 323 147.5 Q 344 141 359 125.5 Q 374 110 380.5 89 Q 387 68 387 46 L 387 0 L 75 0 L 75 -70 L 218 -70 L 218 -665 L 89 -665 L 89 -735 L 296 -735 L 296 -70 L 463 -70 L 463 46 Q 463 71 458.5 94.5 Q 454 118 443 139.5 Q 432 161 414 178 Q 396 195 374 205 Q 352 215 328 219 Q 304 223 280 223 Z " id="path24"/>
<path d="M 314 223 L 314 154 Q 336 154 357 147.5 Q 378 141 393 125.5 Q 408 110 414.5 89 Q 421 68 421 46 L 421 0 L 374 0 L 374 -394 Q 374 -401 373.5 -407.5 Q 373 -414 371.5 -420.5 Q 370 -427 367 -433.5 Q 364 -440 359.5 -445 Q 355 -450 348 -454 Q 341 -458 337 -458 L 331 -458 Q 325 -458 318.5 -455.5 Q 312 -453 307 -448.5 Q 302 -444 298.5 -438 Q 295 -432 293 -425.5 Q 291 -419 290 -411.5 Q 289 -404 289 -400 L 289 0 L 211 0 L 211 -394 Q 211 -401 210.5 -407.5 Q 210 -414 208.5 -420.5 Q 207 -427 204 -433.5 Q 201 -440 197 -445 Q 193 -450 185.5 -454 Q 178 -458 174 -458 L 169 -458 Q 162 -458 155.5 -455.5 Q 149 -453 144 -448.5 Q 139 -444 135.5 -438 Q 132 -432 130 -426 Q 128 -420 127 -412 Q 126 -404 126 -400 L 126 0 L 48 0 L 48 -520 L 126 -520 L 126 -478 Q 129 -485 133 -491 Q 137 -497 141.5 -503 Q 146 -509 152 -513.5 Q 158 -518 164.5 -521 Q 171 -524 179.5 -526 Q 188 -528 193 -528 L 199 -528 Q 208 -528 217 -526 Q 226 -524 234.5 -520 Q 243 -516 250 -510 Q 257 -504 262.5 -497 Q 268 -490 272.5 -480.5 Q 277 -471 279 -465 L 281 -457 Q 283 -466 287 -474.5 Q 291 -483 295.5 -490.5 Q 300 -498 306.5 -505 Q 313 -512 320.5 -516.5 Q 328 -521 338 -524.5 Q 348 -528 355 -528 L 362 -528 Q 371 -528 379.5 -526 Q 388 -524 396 -520.5 Q 404 -517 411 -512 Q 418 -507 423.5 -500 Q 429 -493 433 -485.5 Q 437 -478 440 -469.5 Q 443 -461 445 -453 Q 447 -445 448.5 -436.5 Q 450 -428 451 -417.5 Q 452 -407 452 -402 L 452 -70 L 498 -70 L 498 46 Q 498 70 493.5 94 Q 489 118 477.5 139.5 Q 466 161 448 178 Q 430 195 408 205 Q 386 215 362.5 219 Q 339 223 314 223 Z " id="path25"/>
<path d="M 299 223 L 299 154 Q 320 154 341 147.5 Q 362 141 377 125.5 Q 392 110 398.5 89 Q 405 68 405 46 L 405 0 L 358 0 L 358 -320 Q 358 -330 357.5 -339 Q 357 -348 355.5 -357.5 Q 354 -367 351.5 -376.5 Q 349 -386 345.5 -394.5 Q 342 -403 337 -411.5 Q 332 -420 325.5 -427 Q 319 -434 311.5 -439.5 Q 304 -445 295.5 -449 Q 287 -453 276 -455.5 Q 265 -458 259 -458 L 250 -458 Q 240 -458 231 -456.5 Q 222 -455 212.5 -452 Q 203 -449 195 -444 Q 187 -439 180.5 -432.5 Q 174 -426 168 -418 Q 162 -410 158 -402 Q 154 -394 151 -385 Q 148 -376 146 -366.5 Q 144 -357 143 -346 Q 142 -335 142 -329 L 142 0 L 64 0 L 64 -520 L 142 -520 L 142 -429 Q 147 -442 154 -455 Q 161 -468 170 -479 Q 179 -490 190 -499 Q 201 -508 214 -514 Q 227 -520 243.5 -524 Q 260 -528 269 -528 L 280 -528 Q 294 -528 308 -526 Q 322 -524 335.5 -519 Q 349 -514 360.5 -506.5 Q 372 -499 382 -489 Q 392 -479 400 -466.5 Q 408 -454 414 -441.5 Q 420 -429 424 -415.5 Q 428 -402 430.5 -388 Q 433 -374 434.5 -357.5 Q 436 -341 436 -332 L 436 -70 L 482 -70 L 482 46 Q 482 71 477.5 94.5 Q 473 118 461.5 139.5 Q 450 161 432.5 178 Q 415 195 393 205 Q 371 215 347 219 Q 323 223 299 223 Z " id="path26"/>
<path d="M 225 223 L 225 153 Q 244 151 261.5 142 Q 279 133 291 118 Q 303 103 308 84 Q 313 65 313 46 L 313 6 Q 308 7 304 7.5 Q 300 8 297 8 L 284 8 Q 270 8 255 5.5 Q 240 3 226.5 -1.5 Q 213 -6 201 -14.5 Q 189 -23 178.5 -33 Q 168 -43 158.5 -57.5 Q 149 -72 146 -81 L 142 -92 L 142 215 L 64 215 L 64 -520 L 142 -520 L 142 -428 Q 147 -442 154 -454.5 Q 161 -467 170.5 -478 Q 180 -489 191.5 -498.5 Q 203 -508 216 -514 Q 229 -520 246 -524 Q 263 -528 273 -528 L 284 -528 Q 298 -528 312 -526 Q 326 -524 340 -519 Q 354 -514 366 -506.5 Q 378 -499 388 -489.5 Q 398 -480 406 -468 Q 414 -456 420.5 -443 Q 427 -430 431 -416.5 Q 435 -403 438 -389 Q 441 -375 442.5 -358.5 Q 444 -342 444 -333 L 444 -200 Q 444 -177 441.5 -154.5 Q 439 -132 433 -110.5 Q 427 -89 416 -68.5 Q 405 -48 390 -32 L 390 46 Q 390 69 386 91.5 Q 382 114 372 134 Q 362 154 346.5 171 Q 331 188 311.5 199 Q 292 210 270 216 Q 248 222 225 223 Z M 246 -62 L 254 -62 Q 264 -62 273.5 -63 Q 283 -64 292.5 -67 Q 302 -70 310 -75 Q 318 -80 325 -86.5 Q 332 -93 338 -100.5 Q 344 -108 349 -116.5 Q 354 -125 357 -134.5 Q 360 -144 362 -153.5 Q 364 -163 365 -174 Q 366 -185 366 -192 L 366 -320 Q 366 -330 365.5 -339.5 Q 365 -349 363.5 -358.5 Q 362 -368 359.5 -377.5 Q 357 -387 353 -395.5 Q 349 -404 343.5 -412.5 Q 338 -421 331.5 -428 Q 325 -435 317 -440.5 Q 309 -446 300 -450 Q 291 -454 280 -456 Q 269 -458 263 -458 L 254 -458 Q 244 -458 234.5 -457 Q 225 -456 215.5 -453 Q 206 -450 198 -445 Q 190 -440 183 -433.5 Q 176 -427 170 -419.5 Q 164 -412 159 -403.5 Q 154 -395 151 -385.5 Q 148 -376 146 -366.5 Q 144 -357 143 -346 Q 142 -335 142 -329 L 142 -200 Q 142 -190 142.5 -180.5 Q 143 -171 144.5 -161.5 Q 146 -152 148.5 -142.5 Q 151 -133 155 -124.5 Q 159 -116 164.5 -107.5 Q 170 -99 176.5 -92 Q 183 -85 191 -79.5 Q 199 -74 208 -70 Q 217 -66 228 -64 Q 239 -62 246 -62 Z " id="path27"/>
<path d="M 126 223 L 126 154 Q 148 154 169 147.5 Q 190 141 205 125.5 Q 220 110 226.5 89 Q 233 68 233 46 L 233 0 L 124 0 L 124 -520 L 202 -520 L 202 -412 Q 206 -426 212 -439.5 Q 218 -453 225.5 -465.5 Q 233 -478 242.5 -489 Q 252 -500 263.5 -508 Q 275 -516 291.5 -522 Q 308 -528 318 -528 L 329 -528 Q 340 -528 350.5 -526.5 Q 361 -525 371.5 -522 Q 382 -519 391 -514 Q 400 -509 408 -502 Q 416 -495 422 -486 Q 428 -477 433 -467.5 Q 438 -458 441.5 -447.5 Q 445 -437 447 -427 Q 449 -417 450 -404.5 Q 451 -392 451 -385 L 451 -375 L 373 -375 Q 373 -384 372 -393.5 Q 371 -403 369 -411.5 Q 367 -420 362.5 -428.5 Q 358 -437 351.5 -443 Q 345 -449 335 -453.5 Q 325 -458 319 -458 L 311 -458 Q 300 -458 288.5 -455 Q 277 -452 267 -446.5 Q 257 -441 249 -433.5 Q 241 -426 234.5 -416.5 Q 228 -407 223 -396.5 Q 218 -386 214.5 -375.5 Q 211 -365 209 -353.5 Q 207 -342 205.5 -331 Q 204 -320 203 -306.5 Q 202 -293 202 -286 L 202 -70 L 310 -70 L 310 46 Q 310 71 305.5 94.5 Q 301 118 289.5 139.5 Q 278 161 260 178 Q 242 195 220.5 205 Q 199 215 175 219 Q 151 223 126 223 Z " id="path28"/>
<path d="M 206 223 L 206 154 Q 228 154 249 147.5 Q 270 141 285 125.5 Q 300 110 306.5 89 Q 313 68 313 46 L 313 2 Q 300 5 284.5 6.5 Q 269 8 260 8 L 249 8 Q 236 8 223.5 7 Q 211 6 199 4.5 Q 187 3 174.5 0 Q 162 -3 150.5 -7.5 Q 139 -12 128 -18.5 Q 117 -25 107.5 -33 Q 98 -41 90 -50.5 Q 82 -60 76.5 -71 Q 71 -82 66.5 -96.5 Q 62 -111 62 -119 L 62 -135 L 140 -135 L 140 -132 Q 140 -121 145 -110.5 Q 150 -100 157.5 -91.5 Q 165 -83 175 -77.5 Q 185 -72 195.5 -68.5 Q 206 -65 219.5 -63.5 Q 233 -62 240 -62 L 249 -62 Q 260 -62 271.5 -63 Q 283 -64 294.5 -66.5 Q 306 -69 316 -74 Q 326 -79 335 -86 Q 344 -93 351.5 -105 Q 359 -117 359 -124 L 359 -133 Q 359 -146 353.5 -157.5 Q 348 -169 339 -178 Q 330 -187 319 -193.5 Q 308 -200 296 -204.5 Q 284 -209 272 -212.5 Q 260 -216 248 -220 Q 236 -224 224 -228 Q 212 -232 200.5 -236.5 Q 189 -241 177.5 -246.5 Q 166 -252 155 -258.5 Q 144 -265 134 -273 Q 124 -281 115 -290 Q 106 -299 98.5 -309 Q 91 -319 85.5 -330 Q 80 -341 76 -355.5 Q 72 -370 72 -379 L 72 -387 Q 72 -399 74 -411.5 Q 76 -424 80.5 -435.5 Q 85 -447 91.5 -457.5 Q 98 -468 106.5 -477 Q 115 -486 125 -493 Q 135 -500 146 -506 Q 157 -512 168.5 -516 Q 180 -520 192 -522.5 Q 204 -525 218 -526.5 Q 232 -528 241 -528 L 251 -528 Q 263 -528 275 -527 Q 287 -526 299 -524.5 Q 311 -523 323 -519.5 Q 335 -516 346 -511.5 Q 357 -507 367.5 -500.5 Q 378 -494 387 -486 Q 396 -478 403.5 -468.5 Q 411 -459 416.5 -448 Q 422 -437 426 -423 Q 430 -409 430 -402 L 430 -385 L 352 -385 L 352 -388 Q 352 -399 348 -409 Q 344 -419 337 -427.5 Q 330 -436 321 -441.5 Q 312 -447 302 -450.5 Q 292 -454 279 -456 Q 266 -458 260 -458 L 251 -458 Q 240 -458 229 -457 Q 218 -456 207.5 -453 Q 197 -450 187.5 -445.5 Q 178 -441 170 -433.5 Q 162 -426 155.5 -414.5 Q 149 -403 149 -396 L 149 -387 Q 149 -374 155 -362.5 Q 161 -351 169.5 -342 Q 178 -333 189 -326.5 Q 200 -320 212 -315.5 Q 224 -311 236 -307.5 Q 248 -304 260 -300 Q 272 -296 284 -292 Q 296 -288 307.5 -283 Q 319 -278 330.5 -273 Q 342 -268 353 -261.5 Q 364 -255 373.5 -247 Q 383 -239 392 -230 Q 401 -221 409 -211 Q 417 -201 422.5 -190 Q 428 -179 432 -164.5 Q 436 -150 436 -142 L 436 -133 Q 436 -104 423.5 -77.5 Q 411 -51 389 -33 L 390 -33 L 390 46 Q 390 71 385 94.5 Q 380 118 369 139.5 Q 358 161 340 178 Q 322 195 300 205 Q 278 215 254 219 Q 230 223 206 223 Z " id="path29"/>
<path d="M 289 221 L 289 150 Q 305 145 319.5 135 Q 334 125 343 111 Q 352 97 355.5 80 Q 359 63 359 46 L 359 0 L 289 0 L 289 11 Q 289 26 288 41 Q 287 56 284 71 Q 281 86 276 100.5 Q 271 115 263.5 128 Q 256 141 246.5 153 Q 237 165 225.5 175 Q 214 185 201 192.5 Q 188 200 173.5 204.5 Q 159 209 141.5 212 Q 124 215 114 215 L 63 215 L 63 145 L 101 145 Q 110 145 119.5 143.5 Q 129 142 138 139.5 Q 147 137 155.5 132.5 Q 164 128 171 122 Q 178 116 184 108.5 Q 190 101 194.5 92.5 Q 199 84 202 75 Q 205 66 207 57 Q 209 48 210 37 Q 211 26 211 19 L 211 -531 Q 211 -546 212 -561 Q 213 -576 216 -591 Q 219 -606 224 -620.5 Q 229 -635 236.5 -648 Q 244 -661 253.5 -673 Q 263 -685 274.5 -695 Q 286 -705 299 -712.5 Q 312 -720 326.5 -724.5 Q 341 -729 358.5 -732 Q 376 -735 386 -735 L 438 -735 L 438 -665 L 399 -665 Q 390 -665 380.5 -663.5 Q 371 -662 362 -659.5 Q 353 -657 344.5 -652.5 Q 336 -648 329 -642 Q 322 -636 316 -628.5 Q 310 -621 305.5 -612.5 Q 301 -604 298 -595 Q 295 -586 293 -577 Q 291 -568 290 -557 Q 289 -546 289 -540 L 289 -70 L 436 -70 L 436 46 Q 436 67 432.5 88 Q 429 109 420.5 128.5 Q 412 148 398.5 164.5 Q 385 181 367.5 193 Q 350 205 330 212 Q 310 219 289 221 Z " id="path30"/>
<path d="M 214 223 L 214 154 Q 235 154 256 147.5 Q 277 141 292 125.5 Q 307 110 313.5 89 Q 320 68 320 46 L 320 0 L 205 0 L 44 -520 L 126 -520 L 250 -89 L 374 -520 L 456 -520 L 317 -70 L 397 -70 L 397 46 Q 397 71 392.5 94.5 Q 388 118 376.5 139.5 Q 365 161 347 178 Q 329 195 307.5 205 Q 286 215 262 219 Q 238 223 214 223 Z " id="path31"/>
<path d="M 299 223 L 299 154 Q 320 154 341 147.5 Q 362 141 377 125.5 Q 392 110 398.5 89 Q 405 68 405 46 L 405 0 L 356 0 L 250 -186 L 144 0 L 53 0 L 207 -260 L 53 -520 L 144 -520 L 250 -334 L 356 -520 L 447 -520 L 293 -260 L 406 -70 L 482 -70 L 482 46 Q 482 71 477.5 94.5 Q 473 118 461.5 139.5 Q 450 161 432.5 178 Q 415 195 393 205 Q 371 215 347 219 Q 323 223 299 223 Z " id="path32"/>
<path d="M 253 223 L 253 154 Q 274 154 295 147.5 Q 316 141 331 125.5 Q 346 110 352.5 89 Q 359 68 359 46 L 359 0 L 64 0 L 64 -70 L 351 -450 L 64 -450 L 64 -520 L 436 -520 L 436 -450 L 149 -70 L 436 -70 L 436 46 Q 436 71 431.5 94.5 Q 427 118 415.5 139.5 Q 404 161 386 178 Q 368 195 346.5 205 Q 325 215 301 219 Q 277 223 253 223 Z " id="path33"/>
<path d="M 589 223 Q 564 223 540.5 219 Q 517 215 495 205 Q 473 195 455 178 Q 437 161 425.5 139.5 Q 414 118 409.5 94.5 Q 405 71 405 46 L 405 0 L 358 0 L 358 -83 Q 353 -70 345.5 -58 Q 338 -46 328 -35.5 Q 318 -25 306.5 -17 Q 295 -9 282 -3.5 Q 269 2 252.5 5 Q 236 8 227 8 L 215 8 Q 196 8 176.5 5 Q 157 2 139 -5.5 Q 121 -13 105.5 -25.5 Q 90 -38 79.5 -54 Q 69 -70 62.5 -92.5 Q 56 -115 56 -128 L 56 -143 Q 56 -157 58 -171.5 Q 60 -186 64.5 -200 Q 69 -214 77 -226.5 Q 85 -239 95.5 -249 Q 106 -259 118 -267 Q 130 -275 143 -281.5 Q 156 -288 170 -292.5 Q 184 -297 198 -300 Q 212 -303 229 -304.5 Q 246 -306 256 -306 L 358 -306 L 358 -355 Q 358 -368 355.5 -381.5 Q 353 -395 347 -407 Q 341 -419 331.5 -428.5 Q 322 -438 310.5 -444 Q 299 -450 283.5 -454 Q 268 -458 260 -458 L 249 -458 Q 237 -458 225 -457 Q 213 -456 201.5 -452.5 Q 190 -449 179.5 -443 Q 169 -437 161 -428.5 Q 153 -420 146.5 -407 Q 140 -394 140 -387 L 140 -375 L 62 -375 L 62 -378 Q 62 -391 64.5 -403.5 Q 67 -416 71.5 -428.5 Q 76 -441 82.5 -452 Q 89 -463 97.5 -473 Q 106 -483 116 -490.5 Q 126 -498 137.5 -504.5 Q 149 -511 161.5 -515 Q 174 -519 186.5 -522 Q 199 -525 214 -526.5 Q 229 -528 238 -528 L 249 -528 Q 263 -528 277 -527 Q 291 -526 304.5 -523.5 Q 318 -521 331 -516 Q 344 -511 356 -504.5 Q 368 -498 379 -489 Q 390 -480 399 -469.5 Q 408 -459 414.5 -447 Q 421 -435 425.5 -421.5 Q 430 -408 433 -392 Q 436 -376 436 -367 L 436 -70 L 482 -70 L 482 46 Q 482 68 488.5 89 Q 495 110 510 125.5 Q 525 141 546 147.5 Q 567 154 589 154 Z M 236 -62 L 246 -62 Q 260 -62 274.5 -65 Q 289 -68 302 -74 Q 315 -80 325.5 -90 Q 336 -100 343 -112.5 Q 350 -125 354 -142 Q 358 -159 358 -169 L 358 -236 L 269 -236 Q 260 -236 251.5 -235.5 Q 243 -235 234.5 -234 Q 226 -233 217.5 -231.5 Q 209 -230 201 -227.5 Q 193 -225 184.5 -221.5 Q 176 -218 169 -213.5 Q 162 -209 155.5 -203.5 Q 149 -198 144.5 -190.5 Q 140 -183 137 -173 Q 134 -163 134 -158 L 134 -150 Q 134 -137 137.5 -125 Q 141 -113 148 -102.5 Q 155 -92 165 -84 Q 175 -76 186.5 -71.5 Q 198 -67 212.5 -64.5 Q 227 -62 236 -62 Z " id="path34"/>
<path d="M 589 223 Q 564 223 540.5 219 Q 517 215 495 205 Q 473 195 455 178 Q 437 161 425.5 139.5 Q 414 118 409.5 94.5 Q 405 71 405 46 L 405 0 L 358 0 L 358 -92 Q 353 -78 346 -65.5 Q 339 -53 329.5 -42 Q 320 -31 308.5 -21.5 Q 297 -12 284 -6 Q 271 0 254 4 Q 237 8 228 8 L 216 8 Q 202 8 188 6 Q 174 4 160 -1 Q 146 -6 134 -13.5 Q 122 -21 112 -30.5 Q 102 -40 94 -52 Q 86 -64 79.5 -77 Q 73 -90 69 -103.5 Q 65 -117 62 -131 Q 59 -145 57.5 -161.5 Q 56 -178 56 -188 L 56 -320 Q 56 -334 57 -348.5 Q 58 -363 60 -377 Q 62 -391 65.5 -404.5 Q 69 -418 74.5 -431.5 Q 80 -445 87.5 -457.5 Q 95 -470 104 -480.5 Q 113 -491 124 -499.5 Q 135 -508 148 -514 Q 161 -520 177.5 -524 Q 194 -528 204 -528 L 216 -528 Q 230 -528 245 -525.5 Q 260 -523 273.5 -518.5 Q 287 -514 299 -505.5 Q 311 -497 321.5 -487 Q 332 -477 341.5 -462.5 Q 351 -448 354 -439 L 358 -428 L 358 -485 L 436 -520 L 436 -70 L 482 -70 L 482 46 Q 482 68 488.5 89 Q 495 110 510 125.5 Q 525 141 546 147.5 Q 567 154 589 154 Z M 238 -62 L 246 -62 Q 256 -62 265.5 -63 Q 275 -64 284.5 -67 Q 294 -70 302 -75 Q 310 -80 317 -86.5 Q 324 -93 330 -100.5 Q 336 -108 341 -116.5 Q 346 -125 349 -134.5 Q 352 -144 354 -153.5 Q 356 -163 357 -174 Q 358 -185 358 -192 L 358 -320 Q 358 -330 357.5 -339.5 Q 357 -349 355.5 -358.5 Q 354 -368 351.5 -377.5 Q 349 -387 345 -395.5 Q 341 -404 335.5 -412.5 Q 330 -421 323.5 -428 Q 317 -435 309 -440.5 Q 301 -446 292 -450 Q 283 -454 272 -456 Q 261 -458 255 -458 L 246 -458 Q 236 -458 226.5 -457 Q 217 -456 207.5 -453 Q 198 -450 190 -445 Q 182 -440 175 -433.5 Q 168 -427 162 -419.5 Q 156 -412 151 -403.5 Q 146 -395 143 -385.5 Q 140 -376 138 -366.5 Q 136 -357 135 -346 Q 134 -335 134 -329 L 134 -200 Q 134 -190 134.5 -180.5 Q 135 -171 136.5 -161.5 Q 138 -152 140.5 -142.5 Q 143 -133 147 -124.5 Q 151 -116 156.5 -107.5 Q 162 -99 168.5 -92 Q 175 -85 183 -79.5 Q 191 -74 200 -70 Q 209 -66 220 -64 Q 231 -62 238 -62 Z " id="path35"/>
<path d="M 542 223 Q 518 223 494 219 Q 470 215 448 204.5 Q 426 194 408 177.5 Q 390 161 378.5 139.5 Q 367 118 362.5 94 Q 358 70 358 46 L 358 -92 Q 353 -78 346 -65.5 Q 339 -53 329.5 -42 Q 320 -31 308.5 -21.5 Q 297 -12 284 -6 Q 271 0 254 4 Q 237 8 228 8 L 216 8 Q 202 8 188 6 Q 174 4 160 -1 Q 146 -6 134 -13.5 Q 122 -21 112 -30.5 Q 102 -40 94 -52 Q 86 -64 79.5 -77 Q 73 -90 69 -103.5 Q 65 -117 62 -131 Q 59 -145 57.5 -161.5 Q 56 -178 56 -188 L 56 -320 Q 56 -334 57 -348.5 Q 58 -363 60 -377 Q 62 -391 65.5 -404.5 Q 69 -418 74.5 -431.5 Q 80 -445 87.5 -457.5 Q 95 -470 104 -480.5 Q 113 -491 124 -499.5 Q 135 -508 148 -514 Q 161 -520 177.5 -524 Q 194 -528 204 -528 L 216 -528 Q 230 -528 245 -525.5 Q 260 -523 273.5 -518.5 Q 287 -514 299 -505.5 Q 311 -497 321.5 -487 Q 332 -477 341.5 -462.5 Q 351 -448 354 -439 L 358 -428 L 358 -566 Q 358 -580 359.5 -594 Q 361 -608 364 -621.5 Q 367 -635 372.5 -647.5 Q 378 -660 386 -671.5 Q 394 -683 404 -693 Q 414 -703 425 -711 Q 436 -719 449 -725 Q 462 -731 475 -735 Q 488 -739 504.5 -741 Q 521 -743 530 -743 L 542 -743 L 542 -673 Q 529 -673 515.5 -670.5 Q 502 -668 490 -662.5 Q 478 -657 468 -648 Q 458 -639 451 -627.5 Q 444 -616 440 -600.5 Q 436 -585 436 -577 L 436 46 Q 436 67 442.5 88 Q 449 109 464 124.5 Q 479 140 500 146.5 Q 521 153 542 153 Z M 238 -62 L 246 -62 Q 256 -62 265.5 -63 Q 275 -64 284.5 -67 Q 294 -70 302 -75 Q 310 -80 317 -86.5 Q 324 -93 330 -100.5 Q 336 -108 341 -116.5 Q 346 -125 349 -134.5 Q 352 -144 354 -153.5 Q 356 -163 357 -174 Q 358 -185 358 -192 L 358 -320 Q 358 -330 357.5 -339.5 Q 357 -349 355.5 -358.5 Q 354 -368 351.5 -377.5 Q 349 -387 345 -395.5 Q 341 -404 335.5 -412.5 Q 330 -421 323.5 -428 Q 317 -435 309 -440.5 Q 301 -446 292 -450 Q 283 -454 272 -456 Q 261 -458 255 -458 L 246 -458 Q 236 -458 226.5 -457 Q 217 -456 207.5 -453 Q 198 -450 190 -445 Q 182 -440 175 -433.5 Q 168 -427 162 -419.5 Q 156 -412 151 -403.5 Q 146 -395 143 -385.5 Q 140 -376 138 -366.5 Q 136 -357 135 -346 Q 134 -335 134 -329 L 134 -200 Q 134 -190 134.5 -180.5 Q 135 -171 136.5 -161.5 Q 138 -152 140.5 -142.5 Q 143 -133 147 -124.5 Q 151 -116 156.5 -107.5 Q 162 -99 168.5 -92 Q 175 -85 183 -79.5 Q 191 -74 200 -70 Q 209 -66 220 -64 Q 231 -62 238 -62 Z " id="path36"/>
<path d="M 549 223 Q 524 223 500 219 Q 476 215 454.5 205 Q 433 195 415 178 Q 397 161 385.5 139.5 Q 374 118 369.5 94.5 Q 365 71 365 46 L 365 -17 Q 339 -3 309.5 2.5 Q 280 8 250 8 Q 223 8 196.5 2.5 Q 170 -3 146.5 -16 Q 123 -29 104.5 -49.5 Q 86 -70 75 -94.5 Q 64 -119 60 -146 Q 56 -173 56 -200 L 56 -320 Q 56 -347 60 -374 Q 64 -401 75 -425.5 Q 86 -450 104.5 -470.5 Q 123 -491 146.5 -504 Q 170 -517 196.5 -522.5 Q 223 -528 250 -528 Q 277 -528 303.5 -522.5 Q 330 -517 353.5 -504 Q 377 -491 395.5 -470.5 Q 414 -450 425 -425.5 Q 436 -401 440 -374 Q 444 -347 444 -320 L 444 -225 L 134 -225 L 134 -200 Q 134 -183 136 -166 Q 138 -149 144 -133 Q 150 -117 160.5 -103 Q 171 -89 185 -79.5 Q 199 -70 216 -66 Q 233 -62 250 -62 Q 270 -62 289.5 -65.5 Q 309 -69 326 -79.5 Q 343 -90 353.5 -107.5 Q 364 -125 364 -145 L 442 -145 L 442 46 Q 442 68 448.5 89 Q 455 110 470 125.5 Q 485 141 506 147.5 Q 527 154 549 154 Z M 366 -295 L 366 -320 Q 366 -337 364 -354 Q 362 -371 356 -387 Q 350 -403 339.5 -417 Q 329 -431 315 -440.5 Q 301 -450 284 -454 Q 267 -458 250 -458 Q 233 -458 216 -454 Q 199 -450 185 -440.5 Q 171 -431 160.5 -417 Q 150 -403 144 -387 Q 138 -371 136 -354 Q 134 -337 134 -320 L 134 -295 Z " id="path37"/>
<path d="M 543 223 Q 518 223 494 219 Q 470 215 448.5 205 Q 427 195 409 178 Q 391 161 379.5 139.5 Q 368 118 363.5 94.5 Q 359 71 359 46 L 359 -47 Q 347 -31 330 -20.5 Q 313 -10 294.5 -3.5 Q 276 3 256.5 5.5 Q 237 8 217 8 Q 196 8 174 4.5 Q 152 1 132.5 -8 Q 113 -17 96 -31.5 Q 79 -46 68.5 -64.5 Q 58 -83 53 -104.5 Q 48 -126 48 -148 Q 48 -169 53.5 -189.5 Q 59 -210 72 -226 Q 85 -242 102.5 -253 Q 120 -264 139 -272 Q 131 -275 129 -276 Q 127 -277 123 -279.5 Q 119 -282 115.5 -284 Q 112 -286 108.5 -289 Q 105 -292 101.5 -294.5 Q 98 -297 94.5 -300.5 Q 91 -304 88.5 -307 Q 86 -310 83 -314 Q 80 -318 78 -321.5 Q 76 -325 74 -329 Q 72 -333 70.5 -337.5 Q 69 -342 68 -346 Q 67 -350 66 -354.5 Q 65 -359 64.5 -363.5 Q 64 -368 64 -372.5 Q 64 -377 64 -381 Q 64 -403 70 -425 Q 76 -447 89 -464.5 Q 102 -482 120.5 -495 Q 139 -508 160 -515.5 Q 181 -523 203 -525.5 Q 225 -528 247 -528 Q 268 -528 289.5 -525.5 Q 311 -523 331.5 -516.5 Q 352 -510 370.5 -498.5 Q 389 -487 402.5 -470 Q 416 -453 423 -432.5 Q 430 -412 430 -390 L 430 -385 L 352 -385 L 352 -388 Q 352 -405 341.5 -420.5 Q 331 -436 315.5 -444 Q 300 -452 282.5 -455 Q 265 -458 247 -458 Q 229 -458 210.5 -454.5 Q 192 -451 176 -441.5 Q 160 -432 151 -415.5 Q 142 -399 142 -380 Q 142 -368 146 -356 Q 150 -344 158.5 -335 Q 167 -326 178 -320 Q 189 -314 201 -311 Q 213 -308 225.5 -306.5 Q 238 -305 250 -305 L 306 -305 L 306 -235 L 250 -235 Q 236 -235 222 -234 Q 208 -233 194 -229 Q 180 -225 167.5 -218.5 Q 155 -212 145 -202 Q 135 -192 130.5 -178 Q 126 -164 126 -150 Q 126 -130 136 -111 Q 146 -92 163.5 -81 Q 181 -70 201.5 -66 Q 222 -62 242 -62 Q 255 -62 268 -63 Q 281 -64 293.5 -67 Q 306 -70 318 -75.5 Q 330 -81 339.5 -89.5 Q 349 -98 354 -110 Q 359 -122 359 -135 L 436 -135 L 436 46 Q 436 68 442.5 89 Q 449 110 464 125.5 Q 479 141 500 147.5 Q 521 154 543 154 Z " id="path38"/>
<path d="M 247 223 Q 223 223 199 219 Q 175 215 153.5 205 Q 132 195 114 178 Q 96 161 84.5 139.5 Q 73 118 68.5 94.5 Q 64 71 64 46 L 64 -135 L 141 -135 Q 141 -127 142.5 -120 Q 144 -113 147.5 -106.5 Q 151 -100 156 -94.5 Q 161 -89 167 -84.5 Q 173 -80 179.5 -76.5 Q 186 -73 193 -70.5 Q 200 -68 207.5 -66.5 Q 215 -65 222 -64 Q 229 -63 238 -62.5 Q 247 -62 252 -62 L 258 -62 Q 271 -62 284 -63.5 Q 297 -65 309 -68.5 Q 321 -72 332.5 -78.5 Q 344 -85 352.5 -94.5 Q 361 -104 367.5 -118 Q 374 -132 374 -140 L 374 -150 Q 374 -158 372.5 -166 Q 371 -174 368 -182 Q 365 -190 360 -196 Q 355 -202 349 -207.5 Q 343 -213 335.5 -217 Q 328 -221 320.5 -224 Q 313 -227 305 -229 Q 297 -231 289 -232.5 Q 281 -234 271.5 -234.5 Q 262 -235 257 -235 L 194 -235 L 194 -305 L 250 -305 Q 257 -305 264 -305.5 Q 271 -306 278 -307 Q 285 -308 292 -309.5 Q 299 -311 306 -313 Q 313 -315 319.5 -318.5 Q 326 -322 331.5 -326 Q 337 -330 342 -335.5 Q 347 -341 350 -347 Q 353 -353 355.5 -361 Q 358 -369 358 -374 L 358 -380 Q 358 -392 354.5 -403 Q 351 -414 344 -423.5 Q 337 -433 327.5 -439.5 Q 318 -446 307 -450 Q 296 -454 282.5 -456 Q 269 -458 262 -458 L 253 -458 Q 242 -458 231 -457 Q 220 -456 209 -453.5 Q 198 -451 188 -446 Q 178 -441 170 -434 Q 162 -427 155 -415.5 Q 148 -404 148 -397 L 148 -385 L 70 -385 L 70 -390 Q 70 -403 72.5 -415 Q 75 -427 79.5 -438.5 Q 84 -450 90.5 -460.5 Q 97 -471 106 -479.5 Q 115 -488 125 -495 Q 135 -502 146.5 -507.5 Q 158 -513 169.5 -516.5 Q 181 -520 193 -522.5 Q 205 -525 219.5 -526.5 Q 234 -528 243 -528 L 253 -528 Q 266 -528 278.5 -527 Q 291 -526 303.5 -524.5 Q 316 -523 328.5 -519.5 Q 341 -516 352.5 -510.5 Q 364 -505 375 -498 Q 386 -491 395 -482.5 Q 404 -474 411.5 -463.5 Q 419 -453 424 -441.5 Q 429 -430 432.5 -415 Q 436 -400 436 -392 L 436 -381 Q 436 -370 434.5 -359 Q 433 -348 429.5 -337.5 Q 426 -327 420 -317.5 Q 414 -308 406 -300.5 Q 398 -293 387 -285.5 Q 376 -278 369 -276 L 361 -272 Q 373 -267 384.5 -261 Q 396 -255 406 -247 Q 416 -239 425 -229.5 Q 434 -220 439.5 -208.5 Q 445 -197 448.5 -182 Q 452 -167 452 -159 L 452 -148 Q 452 -135 450.5 -123 Q 449 -111 445.5 -98.5 Q 442 -86 437 -75 Q 432 -64 424.5 -54 Q 417 -44 407.5 -35 Q 398 -26 388 -19.5 Q 378 -13 366.5 -7.5 Q 355 -2 343 1 Q 331 4 316.5 6 Q 302 8 294 8 L 283 8 Q 271 8 258.5 7 Q 246 6 234 4 Q 222 2 210 -2 Q 198 -6 187 -11 Q 176 -16 164 -24 Q 152 -32 147 -39 L 141 -47 L 141 46 Q 141 68 147.5 89 Q 154 110 169 125.5 Q 184 141 205 147.5 Q 226 154 247 154 Z " id="path39"/>
<path d="M 579 223 Q 556 223 532.5 219 Q 509 215 487.5 205 Q 466 195 448.5 178.5 Q 431 162 420 141.5 Q 409 121 405 97.5 Q 401 74 401 51 L 401 -225 L 369 -225 L 369 -200 Q 369 -175 366.5 -151 Q 364 -127 356.5 -103.5 Q 349 -80 336 -58.5 Q 323 -37 304 -21.5 Q 285 -6 261 1 Q 237 8 213 8 Q 188 8 164 1 Q 140 -6 121 -21.5 Q 102 -37 89 -58.5 Q 76 -80 68.5 -103.5 Q 61 -127 58.5 -151 Q 56 -175 56 -200 L 56 -295 L 291 -295 L 291 -320 Q 291 -335 290 -349.5 Q 289 -364 286 -378.5 Q 283 -393 277.5 -407 Q 272 -421 263 -432.5 Q 254 -444 240.5 -451 Q 227 -458 213 -458 Q 197 -458 181.5 -452 Q 166 -446 155.5 -434 Q 145 -422 140.5 -406.5 Q 136 -391 136 -375 L 58 -375 Q 59 -406 69 -435.5 Q 79 -465 100.5 -487 Q 122 -509 152 -518.5 Q 182 -528 213 -528 Q 237 -528 261 -521 Q 285 -514 304 -498.5 Q 323 -483 336 -461.5 Q 349 -440 356.5 -417 Q 364 -394 366.5 -369.5 Q 369 -345 369 -320 L 369 -295 L 468 -295 L 468 51 Q 468 73 474.5 95 Q 481 117 497 133 Q 513 149 535 155.5 Q 557 162 579 162 Z M 212 -62 Q 227 -62 240.5 -69 Q 254 -76 263 -87.5 Q 272 -99 277.5 -113 Q 283 -127 286 -141.5 Q 289 -156 290 -170.5 Q 291 -185 291 -200 L 291 -225 L 134 -225 L 134 -200 Q 134 -185 135 -170.5 Q 136 -156 139 -141.5 Q 142 -127 147.5 -113 Q 153 -99 162 -87.5 Q 171 -76 184.5 -69 Q 198 -62 212 -62 Z " id="path40"/>
<path d="M 570 223 Q 546 223 522 219 Q 498 215 476 205 Q 454 195 436 178 Q 418 161 407 139.5 Q 396 118 391.5 94.5 Q 387 71 387 46 L 387 0 L 75 0 L 75 -70 L 218 -70 L 218 -450 L 89 -450 L 89 -520 L 296 -520 L 296 -70 L 463 -70 L 463 46 Q 463 68 469.5 89 Q 476 110 491 125.5 Q 506 141 527 147.5 Q 548 154 570 154 Z M 255 -608 Q 242 -608 230 -611.5 Q 218 -615 209 -624 Q 200 -633 196.5 -645 Q 193 -657 193 -670 Q 193 -683 196.5 -695 Q 200 -707 209 -716 Q 218 -725 230 -729 Q 242 -733 255 -733 Q 268 -733 280 -729 Q 292 -725 301 -716 Q 310 -707 314 -695 Q 318 -683 318 -670 Q 318 -657 314 -645 Q 310 -633 301 -624 Q 292 -615 280 -611.5 Q 268 -608 255 -608 Z " id="path41"/>
<path d="M 247 223 Q 223 223 199 219 Q 175 215 153.5 205 Q 132 195 114 178 Q 96 161 84.5 139.5 Q 73 118 68.5 94.5 Q 64 71 64 46 L 64 -180 L 141 -180 Q 141 -166 143.5 -151.5 Q 146 -137 151.5 -123.5 Q 157 -110 166 -98.5 Q 175 -87 187 -79 Q 199 -71 215.5 -66.5 Q 232 -62 242 -62 L 254 -62 Q 263 -62 273 -63.5 Q 283 -65 292.5 -67.5 Q 302 -70 310 -75 Q 318 -80 325 -86.5 Q 332 -93 338 -100.5 Q 344 -108 349 -116.5 Q 354 -125 357 -134.5 Q 360 -144 362 -153.5 Q 364 -163 365 -174 Q 366 -185 366 -192 L 366 -320 Q 366 -330 365.5 -339.5 Q 365 -349 363.5 -358.5 Q 362 -368 359 -377.5 Q 356 -387 352 -395.5 Q 348 -404 343 -412.5 Q 338 -421 331 -428 Q 324 -435 316 -440.5 Q 308 -446 299 -450 Q 290 -454 279 -456 Q 268 -458 262 -458 L 253 -458 Q 239 -458 224.5 -455 Q 210 -452 197.5 -446 Q 185 -440 174 -430.5 Q 163 -421 156 -408.5 Q 149 -396 144.5 -380 Q 140 -364 140 -355 L 140 -340 L 62 -340 L 62 -345 Q 62 -359 64 -373.5 Q 66 -388 69.5 -402 Q 73 -416 79 -429 Q 85 -442 93 -454 Q 101 -466 111 -476 Q 121 -486 132.5 -494.5 Q 144 -503 157 -509.5 Q 170 -516 183.5 -520 Q 197 -524 214 -526 Q 231 -528 241 -528 L 253 -528 Q 268 -528 283.5 -526.5 Q 299 -525 314 -521 Q 329 -517 343 -510.5 Q 357 -504 369.5 -495 Q 382 -486 392.5 -474.5 Q 403 -463 411 -450 Q 419 -437 425.5 -423 Q 432 -409 436 -394 Q 440 -379 442 -361.5 Q 444 -344 444 -334 L 444 -200 Q 444 -186 443 -171.5 Q 442 -157 440 -142.5 Q 438 -128 434 -114 Q 430 -100 424.5 -87 Q 419 -74 411 -61.5 Q 403 -49 393.5 -38.5 Q 384 -28 372.5 -19.5 Q 361 -11 347.5 -5 Q 334 1 317.5 4.5 Q 301 8 292 8 L 279 8 Q 266 8 253.5 7 Q 241 6 228.5 2.5 Q 216 -1 204 -6 Q 192 -11 182 -18.5 Q 172 -26 161.5 -36.5 Q 151 -47 147 -55 L 141 -63 L 141 46 Q 141 68 147.5 89 Q 154 110 169 125.5 Q 184 141 205 147.5 Q 226 154 247 154 Z " id="path42"/>
<path d="M 246 223 Q 222 223 198 219 Q 174 215 152 205 Q 130 195 112 178 Q 94 161 83 139.5 Q 72 118 67.5 94.5 Q 63 71 63 46 L 63 -70 L 101 -70 Q 117 -70 133 -74 Q 149 -78 163 -87 Q 177 -96 186.5 -110 Q 196 -124 201.5 -139.5 Q 207 -155 209 -171 Q 211 -187 211 -204 L 211 -531 Q 211 -558 215 -584 Q 219 -610 229.5 -634 Q 240 -658 257.5 -678.5 Q 275 -699 298 -712 Q 321 -725 347 -730 Q 373 -735 399 -735 L 438 -735 L 438 -665 L 399 -665 Q 383 -665 367 -661 Q 351 -657 337 -648 Q 323 -639 313.5 -625 Q 304 -611 298.5 -595.5 Q 293 -580 291 -564 Q 289 -548 289 -531 L 289 -204 Q 289 -181 286 -158 Q 283 -135 275.5 -113 Q 268 -91 255 -71.5 Q 242 -52 224 -37.5 Q 206 -23 184 -14 Q 162 -5 139 -2 L 139 46 Q 139 68 145.5 89 Q 152 110 167 125.5 Q 182 141 203 147.5 Q 224 154 246 154 Z " id="path43"/>
<path d="M 589 223 Q 564 223 540.5 219 Q 517 215 495 205 Q 473 195 455 178 Q 437 161 425.5 139.5 Q 414 118 409.5 94.5 Q 405 71 405 46 L 405 0 L 358 0 L 358 -91 Q 350 -70 337 -50.5 Q 324 -31 305.5 -17.5 Q 287 -4 264.5 2 Q 242 8 220 8 Q 195 8 171 1 Q 147 -6 128.5 -21.5 Q 110 -37 97 -58.5 Q 84 -80 76.5 -103.5 Q 69 -127 66.5 -151.5 Q 64 -176 64 -200 L 64 -520 L 142 -520 L 142 -200 Q 142 -183 144 -166.5 Q 146 -150 151 -134.5 Q 156 -119 165.5 -105 Q 175 -91 188 -81 Q 201 -71 217 -66.5 Q 233 -62 250 -62 Q 267 -62 283 -66.5 Q 299 -71 312 -81 Q 325 -91 334.5 -105 Q 344 -119 349 -134.5 Q 354 -150 356 -166.5 Q 358 -183 358 -200 L 358 -520 L 436 -520 L 436 -70 L 482 -70 L 482 46 Q 482 68 488.5 89 Q 495 110 510 125.5 Q 525 141 546 147.5 Q 567 154 589 154 Z " id="path44"/>
<path d="M 247 223 Q 223 223 199 219 Q 175 215 153.5 205 Q 132 195 114 178 Q 96 161 84.5 139.5 Q 73 118 68.5 94.5 Q 64 71 64 46 L 64 -180 L 141 -180 L 141 -127 Q 141 -115 146.5 -104 Q 152 -93 161.5 -85.5 Q 171 -78 182 -73.5 Q 193 -69 205 -66.5 Q 217 -64 229 -63 Q 241 -62 253 -62 Q 274 -62 295 -67 Q 316 -72 333 -85 Q 350 -98 358 -118 Q 366 -138 366 -159 Q 366 -173 362.5 -187 Q 359 -201 350.5 -212 Q 342 -223 330.5 -231 Q 319 -239 305.5 -243.5 Q 292 -248 278 -249.5 Q 264 -251 250 -251 L 138 -251 L 138 -321 L 302 -450 L 64 -450 L 64 -520 L 408 -520 L 408 -450 L 245 -321 L 250 -321 Q 274 -321 298 -318 Q 322 -315 344.5 -306.5 Q 367 -298 386.5 -283.5 Q 406 -269 419.5 -249.5 Q 433 -230 438.5 -206 Q 444 -182 444 -158 Q 444 -136 440 -114 Q 436 -92 426 -72 Q 416 -52 400 -36 Q 384 -20 364.5 -10 Q 345 -0 322.5 4 Q 300 8 278 8 Q 259 8 240.5 6 Q 222 4 204 -2 Q 186 -8 169.5 -18.5 Q 153 -29 141 -43 L 141 46 Q 141 68 147.5 89 Q 154 110 169 125.5 Q 184 141 205 147.5 Q 226 154 247 154 Z " id="path45"/>
<path d="M 284 -317 Q 269 -317 253 -321 Q 237 -325 224 -334 Q 211 -343 201.5 -355.5 Q 192 -368 186 -383 L 186 -358 L 109 -323 L 109 -687 L 186 -687 L 186 -627 Q 192 -642 201.5 -654.5 Q 211 -667 224 -676 Q 237 -685 253 -689 Q 269 -693 284 -693 Q 302 -693 319 -688 Q 336 -683 349.5 -672.5 Q 363 -662 372.5 -647 Q 382 -632 387.5 -615.5 Q 393 -599 395 -581.5 Q 397 -564 397 -547 L 397 -463 Q 397 -446 395 -428.5 Q 393 -411 387.5 -394.5 Q 382 -378 372.5 -363 Q 363 -348 349.5 -337.5 Q 336 -327 319 -322 Q 302 -317 284 -317 Z M 253 -387 Q 267 -387 281 -392 Q 295 -397 304 -408.5 Q 313 -420 316.5 -434.5 Q 320 -449 320 -463 L 320 -547 Q 320 -561 316.5 -575.5 Q 313 -590 304 -601.5 Q 295 -613 281 -618 Q 267 -623 253 -623 Q 238 -623 224.5 -618 Q 211 -613 201.5 -601.5 Q 192 -590 189 -575.5 Q 186 -561 186 -547 L 186 -463 Q 186 -449 189 -434.5 Q 192 -420 201.5 -408.5 Q 211 -397 224.5 -392 Q 238 -387 253 -387 Z " id="path46"/>
<path d="M 248 -317 Q 228 -317 209 -320.5 Q 190 -324 172.5 -333 Q 155 -342 141 -356 Q 127 -370 118.5 -387.5 Q 110 -405 106.5 -424.5 Q 103 -444 103 -463 L 103 -547 Q 103 -566 106.5 -585.5 Q 110 -605 118.5 -622.5 Q 127 -640 141 -654 Q 155 -668 172.5 -677 Q 190 -686 209 -689.5 Q 228 -693 248 -693 Q 275 -693 302 -686 Q 329 -679 350 -661.5 Q 371 -644 382 -618 Q 393 -592 393 -565 L 393 -561 L 316 -561 L 316 -563 Q 316 -576 311 -588 Q 306 -600 296 -608.5 Q 286 -617 273.5 -620 Q 261 -623 248 -623 Q 233 -623 219.5 -618 Q 206 -613 196.5 -601.5 Q 187 -590 183.5 -576 Q 180 -562 180 -547 L 180 -463 Q 180 -448 183.5 -434 Q 187 -420 196.5 -408.5 Q 206 -397 219.5 -392 Q 233 -387 248 -387 Q 261 -387 273.5 -390 Q 286 -393 296 -401.5 Q 306 -410 311 -422 Q 316 -434 316 -447 L 316 -449 L 393 -449 L 393 -445 Q 393 -418 382 -392 Q 371 -366 350 -348.5 Q 329 -331 302 -324 Q 275 -317 248 -317 Z " id="path47"/>
<path d="M 140 -292 L 75 -323 Q 84 -341 94.5 -358 Q 105 -375 117 -391 Q 109 -408 106 -426.5 Q 103 -445 103 -463 L 103 -547 Q 103 -566 106.5 -585.5 Q 110 -605 118.5 -622.5 Q 127 -640 141 -654 Q 155 -668 172.5 -677 Q 190 -686 209 -689.5 Q 228 -693 248 -693 Q 275 -693 302 -686 Q 329 -679 350 -661.5 Q 371 -644 382 -618 Q 393 -592 393 -565 L 393 -561 L 316 -561 L 316 -563 Q 316 -576 311 -588 Q 306 -600 296 -608.5 Q 286 -617 273.5 -620 Q 261 -623 248 -623 Q 233 -623 219.5 -618 Q 206 -613 196.5 -601.5 Q 187 -590 183.5 -576 Q 180 -562 180 -547 L 180 -455 Q 204 -472 231.5 -482 Q 259 -492 289 -492 Q 307 -492 326 -488 Q 345 -484 360 -472.5 Q 375 -461 383 -443.5 Q 391 -426 391 -407 Q 391 -391 385.5 -376 Q 380 -361 368 -350.5 Q 356 -340 341.5 -333.5 Q 327 -327 311.5 -323.5 Q 296 -320 280.5 -318.5 Q 265 -317 249 -317 Q 227 -317 205.5 -321.5 Q 184 -326 165 -337 Q 159 -327 153 -316 Q 147 -305 141 -294 L 141 -293 Z M 251 -384 Q 257 -384 263.5 -384 Q 270 -384 276.5 -385 Q 283 -386 289 -387 Q 295 -388 301 -390.5 Q 307 -393 312.5 -397 Q 318 -401 318 -408 Q 318 -412 315 -416 Q 312 -420 307.5 -422.5 Q 303 -425 298 -425.5 Q 293 -426 289 -426 Q 267 -426 247 -417 Q 227 -408 211 -394 Q 219 -388 229.5 -386 Q 240 -384 251 -384 Z " id="path48"/>
<path d="M 250 -317 Q 229 -317 208.5 -321.5 Q 188 -326 170 -336.5 Q 152 -347 138.5 -363 Q 125 -379 117 -398 Q 109 -417 106 -438 Q 103 -459 103 -480 Q 103 -498 105 -516.5 Q 107 -535 112.5 -552.5 Q 118 -570 127.5 -586 Q 137 -602 150.5 -614 Q 164 -626 182 -631.5 Q 200 -637 218 -637 Q 234 -637 248.5 -633.5 Q 263 -630 276 -622 Q 289 -614 298.5 -602 Q 308 -590 315 -576 Q 310 -605 300 -633 Q 290 -661 274 -686 L 144 -654 L 130 -705 L 234 -732 Q 219 -745 201 -755 Q 183 -765 164 -771 L 185 -838 Q 224 -827 258 -805 Q 292 -783 318 -753 L 370 -766 L 384 -714 L 351 -705 Q 364 -682 373.5 -656.5 Q 383 -631 388.5 -604.5 Q 394 -578 395.5 -551 Q 397 -524 397 -497 L 397 -477 Q 397 -457 394 -436.5 Q 391 -416 382.5 -397 Q 374 -378 360.5 -362 Q 347 -346 329 -336 Q 311 -326 291 -321.5 Q 271 -317 250 -317 Z M 250 -387 Q 266 -387 281 -394.5 Q 296 -402 305 -415.5 Q 314 -429 317 -445 Q 320 -461 320 -477 Q 320 -494 317 -510 Q 314 -526 305 -539.5 Q 296 -553 281 -560.5 Q 266 -568 250 -568 Q 234 -568 219 -560.5 Q 204 -553 195 -539.5 Q 186 -526 183 -510 Q 180 -494 180 -478 Q 180 -461 183 -445 Q 186 -429 195 -415.5 Q 204 -402 219 -394.5 Q 234 -387 250 -387 Z " id="path49"/>
<path d="M 252 -317 Q 235 -317 218.5 -319 Q 202 -321 185.5 -325 Q 169 -329 154 -336.5 Q 139 -344 127 -356 Q 115 -368 108.5 -383.5 Q 102 -399 102 -416 L 102 -418 L 179 -418 Q 179 -407 189 -400.5 Q 199 -394 209.5 -391 Q 220 -388 230.5 -387.5 Q 241 -387 252 -387 Q 264 -387 276 -388.5 Q 288 -390 299 -395 Q 310 -400 318 -410.5 Q 326 -421 326 -433 Q 326 -445 318 -455 Q 310 -465 298.5 -470 Q 287 -475 274.5 -476.5 Q 262 -478 250 -478 L 208 -478 L 208 -547 L 250 -547 Q 260 -547 270.5 -548 Q 281 -549 291 -553 Q 301 -557 307.5 -565.5 Q 314 -574 314 -585 Q 314 -595 308 -603.5 Q 302 -612 292.5 -616 Q 283 -620 272.5 -621.5 Q 262 -623 252 -623 Q 242 -623 232.5 -622 Q 223 -621 214 -618 Q 205 -615 197.5 -608.5 Q 190 -602 190 -593 L 113 -593 L 113 -595 Q 113 -611 119 -626 Q 125 -641 135.5 -653 Q 146 -665 160 -672.5 Q 174 -680 189 -684.5 Q 204 -689 220 -691 Q 236 -693 252 -693 Q 277 -693 301.5 -688 Q 326 -683 347 -669.5 Q 368 -656 379.5 -633 Q 391 -610 391 -585 Q 391 -574 389 -563 Q 387 -552 380.5 -542.5 Q 374 -533 365 -525.5 Q 356 -518 346 -513 Q 358 -508 369 -500.5 Q 380 -493 388 -482 Q 396 -471 399.5 -458 Q 403 -445 403 -432 Q 403 -405 390 -380.5 Q 377 -356 354.5 -342 Q 332 -328 305.5 -322.5 Q 279 -317 252 -317 Z " id="path50"/>
<path d="M 188 -323 L 188 -589 L 109 -589 L 109 -659 L 188 -659 L 188 -728 Q 188 -751 194 -773 Q 200 -795 215 -811.5 Q 230 -828 252 -835.5 Q 274 -843 296 -843 Q 316 -843 336.5 -837.5 Q 357 -832 372.5 -818.5 Q 388 -805 395.5 -785 Q 403 -765 403 -745 L 403 -743 L 326 -743 L 326 -744 Q 326 -750 324 -755.5 Q 322 -761 318 -765.5 Q 314 -770 308 -772 Q 302 -774 296 -774 Q 288 -774 281.5 -769.5 Q 275 -765 271.5 -758 Q 268 -751 266.5 -743.5 Q 265 -736 265 -728 L 265 -659 L 377 -659 L 377 -589 L 265 -589 L 265 -323 Z " id="path51"/>
<path d="M 205 -167 Q 181 -167 157.5 -173 Q 134 -179 115.5 -194 Q 97 -209 87.5 -231.5 Q 78 -254 78 -277 L 155 -277 Q 155 -268 159 -259.5 Q 163 -251 170.5 -245.5 Q 178 -240 187 -238 Q 196 -236 205 -236 Q 217 -236 228 -243 Q 239 -250 245.5 -260.5 Q 252 -271 254 -283.5 Q 256 -296 256 -309 L 256 -478 L 196 -478 L 196 -532 L 256 -532 L 256 -618 L 172 -618 L 172 -687 L 333 -687 L 333 -532 L 380 -532 L 380 -478 L 333 -478 L 333 -309 Q 333 -291 330 -273 Q 327 -255 320 -238 Q 313 -221 301.5 -207 Q 290 -193 274.5 -183.5 Q 259 -174 241 -170.5 Q 223 -167 205 -167 Z " id="path52"/>
<path d="M 248 -167 Q 224 -167 200 -171.5 Q 176 -176 155.5 -188 Q 135 -200 121.5 -221.5 Q 108 -243 107 -267 L 184 -267 Q 185 -257 193 -250.5 Q 201 -244 210 -241 Q 219 -238 229 -237 Q 239 -236 248 -236 Q 263 -236 276.5 -241.5 Q 290 -247 299 -258.5 Q 308 -270 311 -284 Q 314 -298 314 -312 L 314 -383 Q 308 -368 298.5 -355.5 Q 289 -343 276 -334 Q 263 -325 247 -321 Q 231 -317 216 -317 Q 198 -317 181 -322 Q 164 -327 150.5 -337.5 Q 137 -348 127.5 -363 Q 118 -378 112.5 -394.5 Q 107 -411 105 -428.5 Q 103 -446 103 -463 L 103 -547 Q 103 -564 105 -581.5 Q 107 -599 112.5 -615.5 Q 118 -632 127.5 -647 Q 137 -662 150.5 -672.5 Q 164 -683 181 -688 Q 198 -693 216 -693 Q 231 -693 247 -689 Q 263 -685 276 -676 Q 289 -667 298.5 -654.5 Q 308 -642 314 -627 L 314 -652 L 391 -687 L 391 -312 Q 391 -293 388 -274 Q 385 -255 376.5 -237.5 Q 368 -220 354.5 -206 Q 341 -192 323.5 -183 Q 306 -174 287 -170.5 Q 268 -167 248 -167 Z M 247 -387 Q 262 -387 275.5 -392 Q 289 -397 298.5 -408.5 Q 308 -420 311 -434.5 Q 314 -449 314 -463 L 314 -547 Q 314 -561 311 -575.5 Q 308 -590 298.5 -601.5 Q 289 -613 275.5 -618 Q 262 -623 247 -623 Q 233 -623 219 -618 Q 205 -613 196 -601.5 Q 187 -590 183.5 -575.5 Q 180 -561 180 -547 L 180 -463 Q 180 -449 183.5 -434.5 Q 187 -420 196 -408.5 Q 205 -397 219 -392 Q 233 -387 247 -387 Z " id="path53"/>
<path d="M 391 -172 L 314 -172 L 314 -382 Q 308 -368 299 -355.5 Q 290 -343 277 -334 Q 264 -325 249 -321 Q 234 -317 218 -317 Q 201 -317 184.5 -322 Q 168 -327 154.5 -338 Q 141 -349 132 -364 Q 123 -379 117.5 -395 Q 112 -411 110.5 -428.5 Q 109 -446 109 -463 L 109 -687 L 186 -687 L 186 -463 Q 186 -449 189 -435 Q 192 -421 200.5 -409.5 Q 209 -398 222.5 -392.5 Q 236 -387 250 -387 Q 264 -387 277.5 -392.5 Q 291 -398 299.5 -409.5 Q 308 -421 311 -435 Q 314 -449 314 -463 L 314 -687 L 391 -687 Z " id="path54"/>
<path d="M 254 -730 Q 241 -730 229 -734 Q 217 -738 208 -746.5 Q 199 -755 195.5 -767.5 Q 192 -780 192 -792 Q 192 -804 195.5 -816.5 Q 199 -829 208 -837.5 Q 217 -846 229 -850 Q 241 -854 254 -854 Q 266 -854 278.5 -850 Q 291 -846 299.5 -837.5 Q 308 -829 312 -816.5 Q 316 -804 316 -792 Q 316 -780 312 -767.5 Q 308 -755 299.5 -746.5 Q 291 -738 278.5 -734 Q 266 -730 254 -730 Z M 373 -323 L 128 -323 L 128 -392 L 216 -392 L 216 -486 L 163 -486 L 163 -539 L 216 -539 L 216 -618 L 137 -618 L 137 -687 L 293 -687 L 293 -539 L 347 -539 L 347 -486 L 293 -486 L 293 -392 L 373 -392 Z " id="path55"/>
<path d="M 351 -317 Q 323 -317 296.5 -324.5 Q 270 -332 249.5 -350.5 Q 229 -369 220.5 -395.5 Q 212 -422 212 -449 L 212 -618 L 128 -618 L 128 -687 L 288 -687 L 288 -449 Q 288 -436 292 -424 Q 296 -412 305 -403 Q 314 -394 326 -390.5 Q 338 -387 351 -387 Q 362 -387 373.5 -389.5 Q 385 -392 396 -398 L 396 -329 Q 385 -323 373.5 -320 Q 362 -317 351 -317 Z " id="path56"/>
<path d="M 161 -323 L 161 -392 L 212 -392 L 212 -618 L 161 -618 L 161 -687 L 339 -687 L 339 -618 L 288 -618 L 288 -392 L 339 -392 L 339 -323 Z " id="path57"/>
<path d="M 161 -323 L 161 -392 L 212 -392 L 212 -486 L 158 -486 L 158 -539 L 212 -539 L 212 -618 L 161 -618 L 161 -687 L 339 -687 L 339 -618 L 288 -618 L 288 -539 L 342 -539 L 342 -486 L 288 -486 L 288 -392 L 339 -392 L 339 -323 Z " id="path58"/>
<path d="M 294 -730 Q 282 -730 269.5 -734 Q 257 -738 248.5 -746.5 Q 240 -755 236 -767.5 Q 232 -780 232 -792 Q 232 -804 236 -816.5 Q 240 -829 248.5 -837.5 Q 257 -846 269.5 -850 Q 282 -854 294 -854 Q 307 -854 319 -850 Q 331 -846 340 -837.5 Q 349 -829 352.5 -816.5 Q 356 -804 356 -792 Q 356 -780 352.5 -767.5 Q 349 -755 340 -746.5 Q 331 -738 319 -734 Q 307 -730 294 -730 Z M 232 -167 Q 212 -167 192.5 -173 Q 173 -179 159 -193 Q 145 -207 139 -226.5 Q 133 -246 133 -266 Q 133 -286 138.5 -305 Q 144 -324 157 -338 Q 170 -352 188.5 -358.5 Q 207 -365 227 -365 Q 234 -365 241 -364 Q 248 -363 256 -362 L 256 -618 L 172 -618 L 172 -687 L 333 -687 L 333 -322 Q 347 -309 359.5 -294.5 Q 372 -280 383 -265 Q 394 -250 403.5 -233.5 Q 413 -217 423 -201 L 369 -172 Q 358 -189 348 -207.5 Q 338 -226 327 -243 Q 322 -227 314 -212.5 Q 306 -198 293.5 -187.5 Q 281 -177 265 -172 Q 249 -167 232 -167 Z M 226 -224 Q 236 -224 242.5 -233.5 Q 249 -243 251.5 -253 Q 254 -263 255 -273.5 Q 256 -284 256 -295 L 256 -303 Q 249 -305 241.5 -306.5 Q 234 -308 227 -308 Q 219 -308 212.5 -304 Q 206 -300 202.5 -294 Q 199 -288 197.5 -280.5 Q 196 -273 196 -266 Q 196 -259 197.5 -251.5 Q 199 -244 202.5 -238 Q 206 -232 212 -228 Q 218 -224 226 -224 Z " id="path59"/>
<path d="M 349 -167 Q 331 -167 313 -170 Q 295 -173 278.5 -181 Q 262 -189 248.5 -201.5 Q 235 -214 226.5 -230.5 Q 218 -247 215 -265 Q 212 -283 212 -301 L 212 -768 L 128 -768 L 128 -838 L 288 -838 L 288 -301 Q 288 -288 291.5 -276 Q 295 -264 303.5 -254.5 Q 312 -245 324 -240.5 Q 336 -236 349 -236 L 352 -236 L 352 -167 Z " id="path60"/>
<path d="M 269 -167 L 269 -228 Q 283 -228 296.5 -232 Q 310 -236 319.5 -246 Q 329 -256 333 -269.5 Q 337 -283 337 -297 L 337 -323 L 128 -323 L 128 -392 L 216 -392 L 216 -768 L 137 -768 L 137 -838 L 293 -838 L 293 -392 L 404 -392 L 404 -297 Q 404 -279 401 -261.5 Q 398 -244 389.5 -228 Q 381 -212 367.5 -200 Q 354 -188 338 -180.5 Q 322 -173 304.5 -170 Q 287 -167 269 -167 Z " id="path61"/>
<path d="M 125 -323 L 125 -687 L 202 -687 L 202 -392 L 396 -392 L 396 -323 Z " id="path62"/>
<path d="M 244 -172 L 244 -239 L 263 -239 Q 277 -239 289.5 -243.5 Q 302 -248 310.5 -258 Q 319 -268 322.5 -281 Q 326 -294 326 -307 L 326 -591 Q 326 -597 325.5 -602.5 Q 325 -608 323 -613 Q 321 -618 316.5 -622 Q 312 -626 307 -626 Q 301 -626 296.5 -622 Q 292 -618 290 -613 Q 288 -608 287.5 -602.5 Q 287 -597 287 -591 L 287 -323 L 213 -323 L 213 -591 Q 213 -597 212.5 -602.5 Q 212 -608 210 -613 Q 208 -618 203.5 -622 Q 199 -626 193 -626 Q 188 -626 183.5 -622 Q 179 -618 177 -613 Q 175 -608 174.5 -602.5 Q 174 -597 174 -591 L 174 -323 L 100 -323 L 100 -687 L 174 -687 L 174 -658 Q 181 -673 194.5 -683 Q 208 -693 224 -693 Q 234 -693 244 -689 Q 254 -685 261 -677.5 Q 268 -670 273 -661 Q 278 -652 281 -642 Q 284 -652 288.5 -661 Q 293 -670 300 -677.5 Q 307 -685 317 -689 Q 327 -693 337 -693 Q 348 -693 358.5 -688.5 Q 369 -684 376.5 -675.5 Q 384 -667 388.5 -656.5 Q 393 -646 395.5 -635 Q 398 -624 399 -613 Q 400 -602 400 -591 L 400 -307 Q 400 -289 396.5 -271 Q 393 -253 385 -237 Q 377 -221 363.5 -208 Q 350 -195 334 -187 Q 318 -179 300 -175.5 Q 282 -172 263 -172 Z " id="path63"/>
<path d="M 326 -173 L 326 -352 Q 319 -337 305.5 -327 Q 292 -317 276 -317 Q 266 -317 256 -321 Q 246 -325 239 -332.5 Q 232 -340 227 -349 Q 222 -358 219 -368 Q 216 -358 211.5 -349 Q 207 -340 200 -332.5 Q 193 -325 183 -321 Q 173 -317 163 -317 Q 152 -317 141.5 -321.5 Q 131 -326 123.5 -334.5 Q 116 -343 111.5 -353.5 Q 107 -364 104.5 -375 Q 102 -386 101 -397 Q 100 -408 100 -419 L 100 -687 L 174 -687 L 174 -419 Q 174 -413 174.5 -407.5 Q 175 -402 177 -397 Q 179 -392 183.5 -388 Q 188 -384 193 -384 Q 199 -384 203.5 -388 Q 208 -392 210 -397 Q 212 -402 212.5 -407.5 Q 213 -413 213 -419 L 213 -687 L 287 -687 L 287 -419 Q 287 -413 287.5 -407.5 Q 288 -402 290 -397 Q 292 -392 296.5 -388 Q 301 -384 307 -384 Q 312 -384 316.5 -388 Q 321 -392 323 -397 Q 325 -402 325.5 -407.5 Q 326 -413 326 -419 L 326 -687 L 400 -687 L 400 -173 Z " id="path64"/>
<path d="M 48 -167 L 46 -167 L 46 -236 L 48 -236 Q 61 -236 73 -240.5 Q 85 -245 93.5 -254.5 Q 102 -264 105.5 -276 Q 109 -288 109 -301 L 109 -687 L 186 -687 L 186 -628 Q 192 -642 201 -654.5 Q 210 -667 223 -676 Q 236 -685 251 -689 Q 266 -693 282 -693 Q 299 -693 315.5 -688 Q 332 -683 345.5 -672 Q 359 -661 368 -646 Q 377 -631 382.5 -615 Q 388 -599 389.5 -581.5 Q 391 -564 391 -547 L 391 -323 L 314 -323 L 314 -547 Q 314 -561 311 -575 Q 308 -589 299.5 -600.5 Q 291 -612 277.5 -617.5 Q 264 -623 250 -623 Q 236 -623 222.5 -617.5 Q 209 -612 200.5 -600.5 Q 192 -589 189 -575 Q 186 -561 186 -547 L 186 -301 Q 186 -283 182.5 -265 Q 179 -247 170.5 -230.5 Q 162 -214 148.5 -201.5 Q 135 -189 119 -181 Q 103 -173 84.5 -170 Q 66 -167 48 -167 Z " id="path65"/>
<path d="M 452 -167 Q 434 -167 415.5 -170 Q 397 -173 381 -181 Q 365 -189 351.5 -201.5 Q 338 -214 329.5 -230.5 Q 321 -247 317.5 -265 Q 314 -283 314 -301 L 314 -547 Q 314 -561 311 -575 Q 308 -589 299.5 -600.5 Q 291 -612 277.5 -617.5 Q 264 -623 250 -623 Q 236 -623 222.5 -617.5 Q 209 -612 200.5 -600.5 Q 192 -589 189 -575 Q 186 -561 186 -547 L 186 -323 L 109 -323 L 109 -687 L 186 -687 L 186 -628 Q 192 -642 201 -654.5 Q 210 -667 223 -676 Q 236 -685 251 -689 Q 266 -693 282 -693 Q 299 -693 315.5 -688 Q 332 -683 345.5 -672 Q 359 -661 368 -646 Q 377 -631 382.5 -615 Q 388 -599 389.5 -581.5 Q 391 -564 391 -547 L 391 -301 Q 391 -288 394.5 -276 Q 398 -264 406.5 -254.5 Q 415 -245 427 -240.5 Q 439 -236 452 -236 L 454 -236 L 454 -167 Z " id="path66"/>
<path d="M 109 -323 L 109 -687 L 189 -687 L 330 -407 Q 327 -424 323.5 -440.5 Q 320 -457 318 -474 Q 316 -491 315 -507.5 Q 314 -524 314 -541 L 314 -687 L 391 -687 L 391 -323 L 311 -323 L 170 -603 Q 173 -586 176.5 -569.5 Q 180 -553 182 -536 Q 184 -519 185 -502.5 Q 186 -486 186 -469 L 186 -323 Z " id="path67"/>
<path d="M 250 -317 Q 230 -317 210.5 -320.5 Q 191 -324 173.5 -333 Q 156 -342 142 -355.5 Q 128 -369 119 -386.5 Q 110 -404 106.5 -423.5 Q 103 -443 103 -463 L 103 -547 Q 103 -567 106.5 -586.5 Q 110 -606 119 -623.5 Q 128 -641 142 -654.5 Q 156 -668 173.5 -677 Q 191 -686 210.5 -689.5 Q 230 -693 250 -693 Q 270 -693 289.5 -689.5 Q 309 -686 326.5 -677 Q 344 -668 358 -654.5 Q 372 -641 381 -623.5 Q 390 -606 393.5 -586.5 Q 397 -567 397 -547 L 397 -463 Q 397 -443 393.5 -423.5 Q 390 -404 381 -386.5 Q 372 -369 358 -355.5 Q 344 -342 326.5 -333 Q 309 -324 289.5 -320.5 Q 270 -317 250 -317 Z M 180 -532 L 320 -532 L 320 -547 Q 320 -562 316 -576.5 Q 312 -591 302.5 -602 Q 293 -613 279 -618 Q 265 -623 250 -623 Q 235 -623 221 -618 Q 207 -613 197.5 -602 Q 188 -591 184 -576.5 Q 180 -562 180 -547 Z M 250 -387 Q 265 -387 279 -392 Q 293 -397 302.5 -408 Q 312 -419 316 -433.5 Q 320 -448 320 -463 L 320 -478 L 180 -478 L 180 -463 Q 180 -448 184 -433.5 Q 188 -419 197.5 -408 Q 207 -397 221 -392 Q 235 -387 250 -387 Z " id="path68"/>
<path d="M 288 -172 L 212 -172 L 212 -320 Q 187 -324 164 -335.5 Q 141 -347 124.5 -366 Q 108 -385 101.5 -409.5 Q 95 -434 95 -460 L 95 -551 Q 95 -576 101.5 -600.5 Q 108 -625 124.5 -644 Q 141 -663 164 -674.5 Q 187 -686 212 -690 L 212 -838 L 288 -838 L 288 -690 Q 313 -686 336 -674.5 Q 359 -663 375.5 -644 Q 392 -625 398.5 -600.5 Q 405 -576 405 -551 L 405 -460 Q 405 -434 398.5 -409.5 Q 392 -385 375.5 -366 Q 359 -347 336 -335.5 Q 313 -324 288 -320 Z M 213 -390 L 213 -620 Q 203 -617 194 -610 Q 185 -603 179 -593.5 Q 173 -584 170.5 -573 Q 168 -562 168 -551 L 168 -460 Q 168 -448 170.5 -437 Q 173 -426 179 -416.5 Q 185 -407 194 -400 Q 203 -393 213 -390 Z M 287 -390 Q 297 -393 306 -400 Q 315 -407 321 -416.5 Q 327 -426 329.5 -437 Q 332 -448 332 -460 L 332 -551 Q 332 -562 329.5 -573 Q 327 -584 321 -593.5 Q 315 -603 306 -610 Q 297 -617 287 -620 Z " id="path69"/>
<path d="M 244 -167 Q 226 -167 208.5 -170 Q 191 -173 174.5 -180.5 Q 158 -188 145 -200 Q 132 -212 123.5 -228 Q 115 -244 112 -261.5 Q 109 -279 109 -297 L 109 -449 L 176 -449 L 176 -417 Q 176 -407 185 -400.5 Q 194 -394 204 -391 Q 214 -388 224.5 -387.5 Q 235 -387 245 -387 Q 256 -387 266.5 -388 Q 277 -389 287 -392 Q 297 -395 306 -402.5 Q 315 -410 315 -421 Q 315 -433 306 -441.5 Q 297 -450 286 -454.5 Q 275 -459 263.5 -462 Q 252 -465 240.5 -468 Q 229 -471 218 -475 Q 207 -479 196 -484 Q 185 -489 175 -495 Q 165 -501 156 -508.5 Q 147 -516 139 -525 Q 131 -534 125.5 -544.5 Q 120 -555 117 -566.5 Q 114 -578 114 -590 Q 114 -614 126.5 -635.5 Q 139 -657 159 -670 Q 179 -683 203 -688 Q 227 -693 251 -693 Q 274 -693 297.5 -688.5 Q 321 -684 341.5 -672.5 Q 362 -661 374.5 -640 Q 387 -619 387 -596 L 387 -593 L 310 -593 Q 310 -602 303 -608.5 Q 296 -615 287 -618 Q 278 -621 269 -622 Q 260 -623 251 -623 Q 241 -623 231.5 -622 Q 222 -621 213.5 -617.5 Q 205 -614 198 -606.5 Q 191 -599 191 -590 Q 191 -580 197.5 -572 Q 204 -564 212 -559.5 Q 220 -555 229.5 -552 Q 239 -549 248 -547 L 250 -546 Q 275 -540 299 -530.5 Q 323 -521 343.5 -505.5 Q 364 -490 378 -467.5 Q 392 -445 392 -419 Q 392 -397 382.5 -376 Q 373 -355 355.5 -341.5 Q 338 -328 316 -322.5 Q 294 -317 272 -317 Q 259 -317 246 -318.5 Q 233 -320 220.5 -324 Q 208 -328 196.5 -335 Q 185 -342 176 -352 L 176 -297 Q 176 -283 180 -269.5 Q 184 -256 193.5 -246 Q 203 -236 216.5 -232 Q 230 -228 244 -228 Z " id="path70"/>
<path d="M 114 -172 L 114 -242 L 151 -242 Q 166 -242 179 -249 Q 192 -256 199.5 -269 Q 207 -282 209.5 -296.5 Q 212 -311 212 -325 L 212 -685 Q 212 -704 214.5 -723.5 Q 217 -743 224.5 -761 Q 232 -779 244.5 -794.5 Q 257 -810 274 -820 Q 291 -830 310 -834 Q 329 -838 349 -838 L 386 -838 L 386 -768 L 349 -768 Q 334 -768 321 -761 Q 308 -754 300.5 -741 Q 293 -728 290.5 -713.5 Q 288 -699 288 -685 L 288 -325 Q 288 -306 285.5 -286.5 Q 283 -267 275.5 -249 Q 268 -231 255.5 -215.5 Q 243 -200 226 -190 Q 209 -180 190 -176 Q 171 -172 151 -172 Z " id="path71"/>
<path d="M 278 -167 L 278 -228 Q 292 -228 305 -232 Q 318 -236 327.5 -246 Q 337 -256 341 -269.5 Q 345 -283 345 -297 L 345 -326 Q 334 -321 321.5 -319 Q 309 -317 296 -317 Q 279 -317 262 -321.5 Q 245 -326 230.5 -336 Q 216 -346 206 -360.5 Q 196 -375 190 -391 Q 184 -407 182 -424.5 Q 180 -442 180 -460 L 180 -618 L 124 -618 L 124 -687 L 180 -687 L 180 -838 L 257 -838 L 257 -687 L 369 -687 L 369 -618 L 257 -618 L 257 -460 Q 257 -448 258.5 -436.5 Q 260 -425 264 -414 Q 268 -403 276.5 -395 Q 285 -387 296 -387 Q 307 -387 315 -393 Q 323 -399 327.5 -408 Q 332 -417 334 -427 Q 336 -437 336 -447 L 336 -449 L 413 -449 L 413 -297 Q 413 -279 409.5 -261.5 Q 406 -244 397.5 -228 Q 389 -212 376 -200 Q 363 -188 347 -180.5 Q 331 -173 313.5 -170 Q 296 -167 278 -167 Z " id="path72"/>
<path d="M 218 -317 Q 201 -317 184.5 -322 Q 168 -327 154.5 -338 Q 141 -349 132 -364 Q 123 -379 117.5 -395 Q 112 -411 110.5 -428.5 Q 109 -446 109 -463 L 109 -478 L 92 -478 L 92 -532 L 109 -532 L 109 -687 L 186 -687 L 186 -532 L 314 -532 L 314 -687 L 391 -687 L 391 -532 L 408 -532 L 408 -478 L 391 -478 L 391 -323 L 314 -323 L 314 -382 Q 308 -368 299 -355.5 Q 290 -343 277 -334 Q 264 -325 249 -321 Q 234 -317 218 -317 Z M 250 -387 Q 264 -387 277.5 -392.5 Q 291 -398 299.5 -409.5 Q 308 -421 311 -435 Q 314 -449 314 -463 L 314 -478 L 186 -478 L 186 -463 Q 186 -449 189 -435 Q 192 -421 200.5 -409.5 Q 209 -398 222.5 -392.5 Q 236 -387 250 -387 Z " id="path73"/>
<path d="M 250 -317 Q 231 -317 211.5 -320.5 Q 192 -324 175 -333 Q 158 -342 145 -356.5 Q 132 -371 123.5 -388.5 Q 115 -406 112 -425 Q 109 -444 109 -463 L 109 -518 Q 109 -532 110.5 -545.5 Q 112 -559 117 -572.5 Q 122 -586 129.5 -597.5 Q 137 -609 148 -618 L 109 -618 L 109 -687 L 222 -687 L 222 -589 L 220 -589 Q 209 -588 202 -579.5 Q 195 -571 191.5 -560.5 Q 188 -550 187 -539.5 Q 186 -529 186 -518 L 186 -463 Q 186 -449 189 -435 Q 192 -421 200.5 -409.5 Q 209 -398 222.5 -392.5 Q 236 -387 250 -387 Q 264 -387 277.5 -392.5 Q 291 -398 299.5 -409.5 Q 308 -421 311 -435 Q 314 -449 314 -463 L 314 -518 Q 314 -529 313 -539.5 Q 312 -550 308.5 -560.5 Q 305 -571 298 -579.5 Q 291 -588 280 -589 L 278 -589 L 278 -687 L 391 -687 L 391 -618 L 352 -618 Q 363 -609 370.5 -597.5 Q 378 -586 383 -572.5 Q 388 -559 389.5 -545.5 Q 391 -532 391 -518 L 391 -463 Q 391 -444 388 -425 Q 385 -406 376.5 -388.5 Q 368 -371 355 -356.5 Q 342 -342 325 -333 Q 308 -324 288.5 -320.5 Q 269 -317 250 -317 Z " id="path74"/>
<path d="M 250 -317 Q 231 -317 212 -320.5 Q 193 -324 176 -332.5 Q 159 -341 145.5 -355 Q 132 -369 123.5 -386 Q 115 -403 112 -421.5 Q 109 -440 109 -460 L 109 -687 L 186 -687 L 186 -460 Q 186 -446 189 -432 Q 192 -418 201 -407.5 Q 210 -397 223 -392 Q 236 -387 250 -387 Q 264 -387 277 -392 Q 290 -397 299 -407.5 Q 308 -418 311 -432 Q 314 -446 314 -460 L 314 -687 L 391 -687 L 391 -460 Q 391 -440 388 -421.5 Q 385 -403 376.5 -386 Q 368 -369 354.5 -355 Q 341 -341 324 -332.5 Q 307 -324 288 -320.5 Q 269 -317 250 -317 Z " id="path75"/>
<path d="M 250 -317 Q 231 -317 211.5 -320.5 Q 192 -324 175 -333 Q 158 -342 145 -356.5 Q 132 -371 123.5 -388.5 Q 115 -406 112 -425 Q 109 -444 109 -463 L 109 -687 L 186 -687 L 186 -463 Q 186 -449 189 -435 Q 192 -421 200.5 -409.5 Q 209 -398 222.5 -392.5 Q 236 -387 250 -387 Q 264 -387 277.5 -392.5 Q 291 -398 299.5 -409.5 Q 308 -421 311 -435 Q 314 -449 314 -463 L 314 -552 Q 314 -564 311 -576.5 Q 308 -589 299.5 -599 Q 291 -609 279 -613.5 Q 267 -618 254 -618 L 250 -618 L 250 -687 L 254 -687 Q 272 -687 290.5 -684 Q 309 -681 325.5 -673 Q 342 -665 355 -652 Q 368 -639 376.5 -622.5 Q 385 -606 388 -588 Q 391 -570 391 -552 L 391 -463 Q 391 -444 388 -425 Q 385 -406 376.5 -388.5 Q 368 -371 355 -356.5 Q 342 -342 325 -333 Q 308 -324 288.5 -320.5 Q 269 -317 250 -317 Z " id="path76"/>
<path d="M 96 -323 L 206 -687 L 294 -687 L 404 -323 L 324 -323 L 258 -566 Q 256 -573 254 -580.5 Q 252 -588 250 -596 Q 248 -588 246 -580.5 Q 244 -573 242 -566 L 176 -323 Z " id="path77"/>
<path d="M 391 -323 L 109 -323 L 109 -392 L 304 -618 L 109 -618 L 109 -687 L 391 -687 L 391 -618 L 196 -392 L 391 -392 Z " id="path78"/>
<path d="M 459 -167 Q 441 -167 423.5 -170 Q 406 -173 390 -180.5 Q 374 -188 360.5 -200 Q 347 -212 339 -228 Q 331 -244 327.5 -261.5 Q 324 -279 324 -297 L 324 -323 L 109 -323 L 109 -392 L 304 -618 L 109 -618 L 109 -687 L 391 -687 L 391 -618 L 196 -392 L 391 -392 L 391 -297 Q 391 -283 395 -269.5 Q 399 -256 408.5 -246 Q 418 -236 431.5 -232 Q 445 -228 459 -228 Z " id="path79"/>
<path d="M 242 -250 L 199 -260 Q 203 -276 208 -291.5 Q 213 -307 218 -323 L 109 -323 L 109 -392 L 304 -618 L 109 -618 L 109 -687 L 391 -687 L 391 -618 L 196 -392 L 250 -392 Q 258 -407 268 -420 Q 278 -433 290.5 -443.5 Q 303 -454 319 -460.5 Q 335 -467 351 -467 Q 365 -467 378 -462.5 Q 391 -458 400 -448 Q 409 -438 412.5 -425 Q 416 -412 416 -398 Q 416 -383 412 -368.5 Q 408 -354 398 -343.5 Q 388 -333 373.5 -328 Q 359 -323 344 -323 L 262 -323 Q 256 -305 251 -287 Q 246 -269 242 -250 Z M 295 -392 L 344 -392 Q 349 -392 353.5 -393 Q 358 -394 362 -396 Q 366 -398 368.5 -401.5 Q 371 -405 371 -410 Q 371 -417 365 -422 Q 359 -427 351 -427 Q 334 -427 319.5 -416.5 Q 305 -406 295 -392 Z " id="path80"/>
<path d="M 252 -167 Q 224 -167 197 -174.5 Q 170 -182 149 -200 Q 128 -218 117.5 -244.5 Q 107 -271 107 -298 L 184 -298 Q 184 -286 189 -273.5 Q 194 -261 203.5 -252 Q 213 -243 226 -239.5 Q 239 -236 252 -236 Q 268 -236 283 -244.5 Q 298 -253 306 -267 Q 314 -281 317 -297.5 Q 320 -314 320 -330 Q 320 -347 317 -363 Q 314 -379 305 -392.5 Q 296 -406 281 -413.5 Q 266 -421 250 -421 L 165 -421 L 165 -490 L 281 -618 L 109 -618 L 109 -687 L 370 -687 L 370 -618 L 255 -490 Q 275 -490 295 -485.5 Q 315 -481 332 -470.5 Q 349 -460 362 -444 Q 375 -428 383 -409.5 Q 391 -391 394 -370.5 Q 397 -350 397 -330 Q 397 -309 394 -288.5 Q 391 -268 383 -249 Q 375 -230 362 -213.5 Q 349 -197 331 -186.5 Q 313 -176 292.5 -171.5 Q 272 -167 252 -167 Z " id="path81"/>
<path d="M 250 -317 Q 229 -317 209.5 -324.5 Q 190 -332 175 -346.5 Q 160 -361 149.5 -379.5 Q 139 -398 132 -417 Q 125 -436 120.5 -456.5 Q 116 -477 113.5 -497.5 Q 111 -518 110 -539 Q 109 -560 109 -580 Q 109 -601 110 -621.5 Q 111 -642 113.5 -662.5 Q 116 -683 120.5 -703.5 Q 125 -724 132 -743.5 Q 139 -763 149.5 -781 Q 160 -799 175 -813.5 Q 190 -828 209.5 -835.5 Q 229 -843 250 -843 Q 271 -843 290.5 -835.5 Q 310 -828 325 -813.5 Q 340 -799 350.5 -781 Q 361 -763 368 -743.5 Q 375 -724 379.5 -703.5 Q 384 -683 386.5 -662.5 Q 389 -642 390 -621.5 Q 391 -601 391 -580 Q 391 -560 390 -539 Q 389 -518 386.5 -497.5 Q 384 -477 379.5 -456.5 Q 375 -436 368 -417 Q 361 -398 350.5 -379.5 Q 340 -361 325 -346.5 Q 310 -332 290.5 -324.5 Q 271 -317 250 -317 Z M 186 -615 L 314 -615 Q 313 -626 312.5 -637.5 Q 312 -649 310.5 -660.5 Q 309 -672 307 -683.5 Q 305 -695 302.5 -706 Q 300 -717 296 -728 Q 292 -739 286 -749 Q 280 -759 271 -766.5 Q 262 -774 250 -774 Q 238 -774 229 -766.5 Q 220 -759 214 -749 Q 208 -739 204 -728 Q 200 -717 197.5 -706 Q 195 -695 193 -683.5 Q 191 -672 189.5 -660.5 Q 188 -649 187.5 -637.5 Q 187 -626 186 -615 Z M 250 -387 Q 262 -387 271 -394.5 Q 280 -402 286 -412 Q 292 -422 296 -432.5 Q 300 -443 302.5 -454.5 Q 305 -466 307 -477 Q 309 -488 310.5 -499.5 Q 312 -511 312.5 -522.5 Q 313 -534 314 -546 L 186 -546 Q 187 -534 187.5 -522.5 Q 188 -511 189.5 -499.5 Q 191 -488 193 -477 Q 195 -466 197.5 -454.5 Q 200 -443 204 -432.5 Q 208 -422 214 -412 Q 220 -402 229 -394.5 Q 238 -387 250 -387 Z " id="path82"/>
</defs>
<g>
<g data-source-text="0" fill="#20242e" transform="translate(174 41.292) rotate(0) scale(0.023999998)">
<use href="#path1" transform="translate(0 0)"/>
</g>
</g>
<g>
<g data-source-text="1" fill="#20242e" transform="translate(246 41.292) rotate(0) scale(0.023999998)">
<use href="#path2" transform="translate(0 0)"/>
</g>
</g>
<g>
<g data-source-text="2" fill="#20242e" transform="translate(318 41.292) rotate(0) scale(0.023999998)">
<use href="#path3" transform="translate(0 0)"/>
</g>
</g>
<g>
<g data-source-text="3" fill="#20242e" transform="translate(390 41.292) rotate(0) scale(0.023999998)">
<use href="#path4" transform="translate(0 0)"/>
</g>
</g>
<g>
<g data-source-text="4" fill="#20242e" transform="translate(462 41.292) rotate(0) scale(0.023999998)">
<use href="#path5" transform="translate(0 0)"/>
</g>
</g>
<g>
<g data-source-text="5" fill="#20242e" transform="translate(534 41.292) rotate(0) scale(0.023999998)">
<use href="#path6" transform="translate(0 0)"/>
</g>
</g>
<g>
<g data-source-text="6" fill="#20242e" transform="translate(606 41.292) rotate(0) scale(0.023999998)">
<use href="#path7" transform="translate(0 0)"/>
</g>
</g>
<g>
<g data-source-text="7" fill="#20242e" transform="translate(678 41.292) rotate(0) scale(0.023999998)">
<use href="#path8" transform="translate(0 0)"/>
</g>
</g>
<g>
<g data-source-text="8" fill="#20242e" transform="translate(750 41.292) rotate(0) scale(0.023999998)">
<use href="#path9" transform="translate(0 0)"/>
</g>
</g>
<g>
<g data-source-text="9" fill="#20242e" transform="translate(822 41.292) rotate(0) scale(0.023999998)">
<use href="#path10" transform="translate(0 0)"/>
</g>
</g>
<g>
<g data-source-text="A" fill="#20242e" transform="translate(894 41.292) rotate(0) scale(0.023999998)">
<use href="#path11" transform="translate(0 0)"/>
</g>
</g>
<g>
<g data-source-text="B" fill="#20242e" transform="translate(966 41.292) rotate(0) scale(0.023999998)">
<use href="#path12" transform="translate(0 0)"/>
</g>
</g>
<g>
<g data-source-text="C" fill="#20242e" transform="translate(1038 41.292) rotate(0) scale(0.023999998)">
<use href="#path13" transform="translate(0 0)"/>
</g>
</g>
<g>
<g data-source-text="D" fill="#20242e" transform="translate(1110 41.292) rotate(0) scale(0.023999998)">
<use href="#path14" transform="translate(0 0)"/>
</g>
</g>
<g>
<g data-source-text="E" fill="#20242e" transform="translate(1182 41.292) rotate(0) scale(0.023999998)">
<use href="#path15" transform="translate(0 0)"/>
</g>
</g>
<g>
<g data-source-text="F" fill="#20242e" transform="translate(1254 41.292) rotate(0) scale(0.023999998)">
<use href="#path16" transform="translate(0 0)"/>
</g>
</g>
<g>
<g data-source-text="U+1D80" fill="#20242e" transform="translate(36 113.292) rotate(0) scale(0.023999998)">
<use href="#path17" transform="translate(0 0)"/>
<use href="#path18" transform="translate(500 0)"/>
<use href="#path2" transform="translate(1000 0)"/>
<use href="#path14" transform="translate(1500 0)"/>
<use href="#path9" transform="translate(2000 0)"/>
<use href="#path1" transform="translate(2500 0)"/>
</g>
</g>
<g>
<g data-source-text="" fill="#20242e" transform="translate(168 118.584) rotate(0) scale(0.047999997)">
<use href="#path19" transform="translate(0 0)"/>
</g>
</g>
<g>
<g data-source-text="" fill="#20242e" transform="translate(240 118.584) rotate(0) scale(0.047999997)">
<use href="#path20" transform="translate(0 0)"/>
</g>
</g>
<g>
<g data-source-text="" fill="#20242e" transform="translate(312 118.584) rotate(0) scale(0.047999997)">
<use href="#path21" transform="translate(0 0)"/>
</g>
</g>
<g>
<g data-source-text="" fill="#20242e" transform="translate(384 118.584) rotate(0) scale(0.047999997)">
<use href="#path22" transform="translate(0 0)"/>
</g>
</g>
<g>
<g data-source-text="" fill="#20242e" transform="translate(456 118.584) rotate(0) scale(0.047999997)">
<use href="#path23" transform="translate(0 0)"/>
</g>
</g>
<g>
<g data-source-text="" fill="#20242e" transform="translate(528 118.584) rotate(0) scale(0.047999997)">
<use href="#path24" transform="translate(0 0)"/>
</g>
</g>
<g>
<g data-source-text="" fill="#20242e" transform="translate(600 118.584) rotate(0) scale(0.047999997)">
<use href="#path25" transform="translate(0 0)"/>
</g>
</g>
<g>
<g data-source-text="" fill="#20242e" transform="translate(672 118.584) rotate(0) scale(0.047999997)">
<use href="#path26" transform="translate(0 0)"/>
</g>
</g>
<g>
<g data-source-text="" fill="#20242e" transform="translate(744 118.584) rotate(0) scale(0.047999997)">
<use href="#path27" transform="translate(0 0)"/>
</g>
</g>
<g>
<g data-source-text="" fill="#20242e" transform="translate(816 118.584) rotate(0) scale(0.047999997)">
<use href="#path28" transform="translate(0 0)"/>
</g>
</g>
<g>
<g data-source-text="" fill="#20242e" transform="translate(888 118.584) rotate(0) scale(0.047999997)">
<use href="#path29" transform="translate(0 0)"/>
</g>
</g>
<g>
<g data-source-text="" fill="#20242e" transform="translate(960 118.584) rotate(0) scale(0.047999997)">
<use href="#path30" transform="translate(0 0)"/>
</g>
</g>
<g>
<g data-source-text="" fill="#20242e" transform="translate(1032 118.584) rotate(0) scale(0.047999997)">
<use href="#path31" transform="translate(0 0)"/>
</g>
</g>
<g>
<g data-source-text="" fill="#20242e" transform="translate(1104 118.584) rotate(0) scale(0.047999997)">
<use href="#path32" transform="translate(0 0)"/>
</g>
</g>
<g>
<g data-source-text="" fill="#20242e" transform="translate(1176 118.584) rotate(0) scale(0.047999997)">
<use href="#path33" transform="translate(0 0)"/>
</g>
</g>
<g>
<g data-source-text="" fill="#20242e" transform="translate(1248 118.584) rotate(0) scale(0.047999997)">
<use href="#path34" transform="translate(0 0)"/>
</g>
</g>
<g>
<g data-source-text="U+1D90" fill="#20242e" transform="translate(36 185.292) rotate(0) scale(0.023999998)">
<use href="#path17" transform="translate(0 0)"/>
<use href="#path18" transform="translate(500 0)"/>
<use href="#path2" transform="translate(1000 0)"/>
<use href="#path14" transform="translate(1500 0)"/>
<use href="#path10" transform="translate(2000 0)"/>
<use href="#path1" transform="translate(2500 0)"/>
</g>
</g>
<g>
<g data-source-text="" fill="#20242e" transform="translate(168 190.584) rotate(0) scale(0.047999997)">
<use href="#path35" transform="translate(0 0)"/>
</g>
</g>
<g>
<g data-source-text="" fill="#20242e" transform="translate(240 190.584) rotate(0) scale(0.047999997)">
<use href="#path36" transform="translate(0 0)"/>
</g>
</g>
<g>
<g data-source-text="" fill="#20242e" transform="translate(312 190.584) rotate(0) scale(0.047999997)">
<use href="#path37" transform="translate(0 0)"/>
</g>
</g>
<g>
<g data-source-text="" fill="#20242e" transform="translate(384 190.584) rotate(0) scale(0.047999997)">
<use href="#path38" transform="translate(0 0)"/>
</g>
</g>
<g>
<g data-source-text="" fill="#20242e" transform="translate(456 190.584) rotate(0) scale(0.047999997)">
<use href="#path39" transform="translate(0 0)"/>
</g>
</g>
<g>
<g data-source-text="" fill="#20242e" transform="translate(528 190.584) rotate(0) scale(0.047999997)">
<use href="#path40" transform="translate(0 0)"/>
</g>
</g>
<g>
<g data-source-text="" fill="#20242e" transform="translate(600 190.584) rotate(0) scale(0.047999997)">
<use href="#path41" transform="translate(0 0)"/>
</g>
</g>
<g>
<g data-source-text="" fill="#20242e" transform="translate(672 190.584) rotate(0) scale(0.047999997)">
<use href="#path42" transform="translate(0 0)"/>
</g>
</g>
<g>
<g data-source-text="" fill="#20242e" transform="translate(744 190.584) rotate(0) scale(0.047999997)">
<use href="#path43" transform="translate(0 0)"/>
</g>
</g>
<g>
<g data-source-text="" fill="#20242e" transform="translate(816 190.584) rotate(0) scale(0.047999997)">
<use href="#path44" transform="translate(0 0)"/>
</g>
</g>
<g>
<g data-source-text="" fill="#20242e" transform="translate(888 190.584) rotate(0) scale(0.047999997)">
<use href="#path45" transform="translate(0 0)"/>
</g>
</g>
<g>
<g data-source-text="" fill="#20242e" transform="translate(960 190.584) rotate(0) scale(0.047999997)">
<use href="#path46" transform="translate(0 0)"/>
</g>
</g>
<g>
<g data-source-text="" fill="#20242e" transform="translate(1032 190.584) rotate(0) scale(0.047999997)">
<use href="#path47" transform="translate(0 0)"/>
</g>
</g>
<g>
<g data-source-text="" fill="#20242e" transform="translate(1104 190.584) rotate(0) scale(0.047999997)">
<use href="#path48" transform="translate(0 0)"/>
</g>
</g>
<g>
<g data-source-text="" fill="#20242e" transform="translate(1176 190.584) rotate(0) scale(0.047999997)">
<use href="#path49" transform="translate(0 0)"/>
</g>
</g>
<g>
<g data-source-text="" fill="#20242e" transform="translate(1248 190.584) rotate(0) scale(0.047999997)">
<use href="#path50" transform="translate(0 0)"/>
</g>
</g>
<g>
<g data-source-text="U+1DA0" fill="#20242e" transform="translate(36 257.292) rotate(0) scale(0.023999998)">
<use href="#path17" transform="translate(0 0)"/>
<use href="#path18" transform="translate(500 0)"/>
<use href="#path2" transform="translate(1000 0)"/>
<use href="#path14" transform="translate(1500 0)"/>
<use href="#path11" transform="translate(2000 0)"/>
<use href="#path1" transform="translate(2500 0)"/>
</g>
</g>
<g>
<g data-source-text="" fill="#20242e" transform="translate(168 262.584) rotate(0) scale(0.047999997)">
<use href="#path51" transform="translate(0 0)"/>
</g>
</g>
<g>
<g data-source-text="" fill="#20242e" transform="translate(240 262.584) rotate(0) scale(0.047999997)">
<use href="#path52" transform="translate(0 0)"/>
</g>
</g>
<g>
<g data-source-text="" fill="#20242e" transform="translate(312 262.584) rotate(0) scale(0.047999997)">
<use href="#path53" transform="translate(0 0)"/>
</g>
</g>
<g>
<g data-source-text="" fill="#20242e" transform="translate(384 262.584) rotate(0) scale(0.047999997)">
<use href="#path54" transform="translate(0 0)"/>
</g>
</g>
<g>
<g data-source-text="" fill="#20242e" transform="translate(456 262.584) rotate(0) scale(0.047999997)">
<use href="#path55" transform="translate(0 0)"/>
</g>
</g>
<g>
<g data-source-text="" fill="#20242e" transform="translate(528 262.584) rotate(0) scale(0.047999997)">
<use href="#path56" transform="translate(0 0)"/>
</g>
</g>
<g>
<g data-source-text="" fill="#20242e" transform="translate(600 262.584) rotate(0) scale(0.047999997)">
<use href="#path57" transform="translate(0 0)"/>
</g>
</g>
<g>
<g data-source-text="" fill="#20242e" transform="translate(672 262.584) rotate(0) scale(0.047999997)">
<use href="#path58" transform="translate(0 0)"/>
</g>
</g>
<g>
<g data-source-text="" fill="#20242e" transform="translate(744 262.584) rotate(0) scale(0.047999997)">
<use href="#path59" transform="translate(0 0)"/>
</g>
</g>
<g>
<g data-source-text="" fill="#20242e" transform="translate(816 262.584) rotate(0) scale(0.047999997)">
<use href="#path60" transform="translate(0 0)"/>
</g>
</g>
<g>
<g data-source-text="" fill="#20242e" transform="translate(888 262.584) rotate(0) scale(0.047999997)">
<use href="#path61" transform="translate(0 0)"/>
</g>
</g>
<g>
<g data-source-text="" fill="#20242e" transform="translate(960 262.584) rotate(0) scale(0.047999997)">
<use href="#path62" transform="translate(0 0)"/>
</g>
</g>
<g>
<g data-source-text="" fill="#20242e" transform="translate(1032 262.584) rotate(0) scale(0.047999997)">
<use href="#path63" transform="translate(0 0)"/>
</g>
</g>
<g>
<g data-source-text="" fill="#20242e" transform="translate(1104 262.584) rotate(0) scale(0.047999997)">
<use href="#path64" transform="translate(0 0)"/>
</g>
</g>
<g>
<g data-source-text="" fill="#20242e" transform="translate(1176 262.584) rotate(0) scale(0.047999997)">
<use href="#path65" transform="translate(0 0)"/>
</g>
</g>
<g>
<g data-source-text="" fill="#20242e" transform="translate(1248 262.584) rotate(0) scale(0.047999997)">
<use href="#path66" transform="translate(0 0)"/>
</g>
</g>
<g>
<g data-source-text="U+1DB0" fill="#20242e" transform="translate(36 329.292) rotate(0) scale(0.023999998)">
<use href="#path17" transform="translate(0 0)"/>
<use href="#path18" transform="translate(500 0)"/>
<use href="#path2" transform="translate(1000 0)"/>
<use href="#path14" transform="translate(1500 0)"/>
<use href="#path12" transform="translate(2000 0)"/>
<use href="#path1" transform="translate(2500 0)"/>
</g>
</g>
<g>
<g data-source-text="" fill="#20242e" transform="translate(168 334.584) rotate(0) scale(0.047999997)">
<use href="#path67" transform="translate(0 0)"/>
</g>
</g>
<g>
<g data-source-text="" fill="#20242e" transform="translate(240 334.584) rotate(0) scale(0.047999997)">
<use href="#path68" transform="translate(0 0)"/>
</g>
</g>
<g>
<g data-source-text="" fill="#20242e" transform="translate(312 334.584) rotate(0) scale(0.047999997)">
<use href="#path69" transform="translate(0 0)"/>
</g>
</g>
<g>
<g data-source-text="" fill="#20242e" transform="translate(384 334.584) rotate(0) scale(0.047999997)">
<use href="#path70" transform="translate(0 0)"/>
</g>
</g>
<g>
<g data-source-text="" fill="#20242e" transform="translate(456 334.584) rotate(0) scale(0.047999997)">
<use href="#path71" transform="translate(0 0)"/>
</g>
</g>
<g>
<g data-source-text="" fill="#20242e" transform="translate(528 334.584) rotate(0) scale(0.047999997)">
<use href="#path72" transform="translate(0 0)"/>
</g>
</g>
<g>
<g data-source-text="" fill="#20242e" transform="translate(600 334.584) rotate(0) scale(0.047999997)">
<use href="#path73" transform="translate(0 0)"/>
</g>
</g>
<g>
<g data-source-text="" fill="#20242e" transform="translate(672 334.584) rotate(0) scale(0.047999997)">
<use href="#path74" transform="translate(0 0)"/>
</g>
</g>
<g>
<g data-source-text="" fill="#20242e" transform="translate(744 334.584) rotate(0) scale(0.047999997)">
<use href="#path75" transform="translate(0 0)"/>
</g>
</g>
<g>
<g data-source-text="" fill="#20242e" transform="translate(816 334.584) rotate(0) scale(0.047999997)">
<use href="#path76" transform="translate(0 0)"/>
</g>
</g>
<g>
<g data-source-text="" fill="#20242e" transform="translate(888 334.584) rotate(0) scale(0.047999997)">
<use href="#path77" transform="translate(0 0)"/>
</g>
</g>
<g>
<g data-source-text="" fill="#20242e" transform="translate(960 334.584) rotate(0) scale(0.047999997)">
<use href="#path78" transform="translate(0 0)"/>
</g>
</g>
<g>
<g data-source-text="" fill="#20242e" transform="translate(1032 334.584) rotate(0) scale(0.047999997)">
<use href="#path79" transform="translate(0 0)"/>
</g>
</g>
<g>
<g data-source-text="" fill="#20242e" transform="translate(1104 334.584) rotate(0) scale(0.047999997)">
<use href="#path80" transform="translate(0 0)"/>
</g>
</g>
<g>
<g data-source-text="" fill="#20242e" transform="translate(1176 334.584) rotate(0) scale(0.047999997)">
<use href="#path81" transform="translate(0 0)"/>
</g>
</g>
<g>
<g data-source-text="" fill="#20242e" transform="translate(1248 334.584) rotate(0) scale(0.047999997)">
<use href="#path82" transform="translate(0 0)"/>
</g>
</g>
</svg>