<?xml version="1.0" encoding="UTF-8" standalone="no"?>
<svg height="936" viewBox="0 0 1296 936" width="1296" xmlns="http://www.w3.org/2000/svg">
<defs>
<path d="M 250 8 Q 223 8 196 3 Q 169 -2 145 -15 Q 121 -28 102.5 -48.5 Q 84 -69 72.5 -94 Q 61 -119 56.5 -146 Q 52 -173 52 -200 L 52 -535 Q 52 -562 56.5 -589 Q 61 -616 72.5 -641 Q 84 -666 102.5 -686.5 Q 121 -707 145 -720 Q 169 -733 196 -738 Q 223 -743 250 -743 Q 277 -743 304 -738 Q 331 -733 355 -720 Q 379 -707 397.5 -686.5 Q 416 -666 427.5 -641 Q 439 -616 443.5 -589 Q 448 -562 448 -535 L 448 -200 Q 448 -173 443.5 -146 Q 439 -119 427.5 -94 Q 416 -69 397.5 -48.5 Q 379 -28 355 -15 Q 331 -2 304 3 Q 277 8 250 8 Z M 153 -337 L 347 -491 L 347 -535 Q 347 -557 342.5 -578.5 Q 338 -600 325.5 -618 Q 313 -636 292.5 -645.5 Q 272 -655 250 -655 Q 228 -655 207.5 -645.5 Q 187 -636 174.5 -618 Q 162 -600 157.5 -578.5 Q 153 -557 153 -535 Z M 250 -80 Q 272 -80 292.5 -89.5 Q 313 -99 325.5 -117 Q 338 -135 342.5 -156.5 Q 347 -178 347 -200 L 347 -398 L 153 -244 L 153 -200 Q 153 -178 157.5 -156.5 Q 162 -135 174.5 -117 Q 187 -99 207.5 -89.5 Q 228 -80 250 -80 Z " id="path1"/>
<path d="M 230 0 L 230 -637 L 107 -542 L 55 -600 L 230 -735 L 330 -735 L 330 0 Z " id="path2"/>
<path d="M 60 0 L 60 -1 Q 60 -27 61 -53.5 Q 62 -80 66 -106.5 Q 70 -133 77.5 -158.5 Q 85 -184 96.5 -207.5 Q 108 -231 123 -253 Q 138 -275 156 -294.5 Q 174 -314 194 -331 Q 214 -348 235.5 -364 Q 257 -380 277.5 -397 Q 298 -414 313 -435.5 Q 328 -457 335.5 -483 Q 343 -509 343 -535 Q 343 -557 339 -578 Q 335 -599 323.5 -617 Q 312 -635 292 -645 Q 272 -655 251 -655 Q 231 -655 213 -648 Q 195 -641 182.5 -626.5 Q 170 -612 164.5 -593 Q 159 -574 159 -555 L 159 -554 L 58 -554 L 58 -556 Q 58 -581 64 -606 Q 70 -631 82 -653.5 Q 94 -676 112 -694 Q 130 -712 152.5 -723 Q 175 -734 200 -738.5 Q 225 -743 251 -743 Q 278 -743 304.5 -737.5 Q 331 -732 354 -719 Q 377 -706 395 -685.5 Q 413 -665 424 -640.5 Q 435 -616 439.5 -589 Q 444 -562 444 -535 Q 444 -501 435 -468 Q 426 -435 407.5 -406 Q 389 -377 364 -353.5 Q 339 -330 312.5 -308.5 Q 286 -287 261 -264 Q 236 -241 216.5 -213 Q 197 -185 184 -153.5 Q 171 -122 166 -88 L 440 -88 L 440 0 Z " id="path3"/>
<path d="M 252 8 Q 226 8 200 3.5 Q 174 -1 150.5 -12 Q 127 -23 107.5 -41 Q 88 -59 75.5 -82 Q 63 -105 56.5 -130.5 Q 50 -156 50 -183 L 151 -183 Q 151 -162 157.5 -142.5 Q 164 -123 178 -108 Q 192 -93 212 -86.5 Q 232 -80 252 -80 Q 275 -80 296 -88.5 Q 317 -97 330.5 -114.5 Q 344 -132 349.5 -154 Q 355 -176 355 -198 Q 355 -217 351 -235.5 Q 347 -254 338.5 -271 Q 330 -288 316.5 -301 Q 303 -314 286 -322 Q 269 -330 250 -332 Q 231 -334 212 -334 L 212 -422 Q 229 -422 246 -424 Q 263 -426 278.5 -433 Q 294 -440 306 -452.5 Q 318 -465 325.5 -480.5 Q 333 -496 336 -512.5 Q 339 -529 339 -546 Q 339 -566 334.5 -585.5 Q 330 -605 319.5 -621 Q 309 -637 290.5 -646 Q 272 -655 253 -655 Q 234 -655 216.5 -647.5 Q 199 -640 188 -625.5 Q 177 -611 172 -593 Q 167 -575 167 -556 L 167 -555 L 66 -555 L 66 -558 Q 66 -582 71.5 -606.5 Q 77 -631 88.5 -653 Q 100 -675 117.5 -693 Q 135 -711 157 -722.5 Q 179 -734 203.5 -738.5 Q 228 -743 253 -743 Q 278 -743 303 -738 Q 328 -733 350.5 -721 Q 373 -709 390 -690 Q 407 -671 418 -648 Q 429 -625 434.5 -600 Q 440 -575 440 -549 Q 440 -524 434 -498.5 Q 428 -473 415.5 -450.5 Q 403 -428 384.5 -409.5 Q 366 -391 343 -379 Q 369 -368 391 -348.5 Q 413 -329 427.5 -304.5 Q 442 -280 449 -252 Q 456 -224 456 -196 Q 456 -168 450 -141.5 Q 444 -115 432 -91 Q 420 -67 400.5 -47 Q 381 -27 357 -14.5 Q 333 -2 306.5 3 Q 280 8 252 8 Z " id="path4"/>
<path d="M 282 0 L 282 -188 L 52 -188 L 52 -275 L 276 -735 L 385 -735 L 161 -275 L 282 -275 L 282 -435 L 382 -435 L 382 -275 L 440 -275 L 440 -188 L 382 -188 L 382 0 Z " id="path5"/>
<path d="M 252 8 Q 227 8 202.5 3.5 Q 178 -1 156.5 -12.5 Q 135 -24 117.5 -42 Q 100 -60 88 -81 Q 76 -102 69 -126 Q 62 -150 60 -174 L 60 -176 L 160 -176 L 161 -172 Q 164 -154 170.5 -137 Q 177 -120 188.5 -107 Q 200 -94 217 -87 Q 234 -80 252 -80 Q 269 -80 285 -87 Q 301 -94 312 -106.5 Q 323 -119 330 -135 Q 337 -151 340.5 -167.5 Q 344 -184 345.5 -201 Q 347 -218 347 -235 Q 347 -252 345.5 -269 Q 344 -286 340.5 -302.5 Q 337 -319 330.5 -334.5 Q 324 -350 313.5 -363 Q 303 -376 287 -383.5 Q 271 -391 254 -391 Q 236 -391 219.5 -384 Q 203 -377 191.5 -363 Q 180 -349 174.5 -331.5 Q 169 -314 168 -296 L 68 -296 L 68 -735 L 421 -735 L 421 -647 L 168 -647 L 168 -462 Q 188 -471 210 -474.5 Q 232 -478 254 -478 Q 284 -478 312.5 -470.5 Q 341 -463 364.5 -445.5 Q 388 -428 404.5 -403.5 Q 421 -379 430.5 -351 Q 440 -323 444 -294 Q 448 -265 448 -235 Q 448 -206 444 -176.5 Q 440 -147 430.5 -119 Q 421 -91 404 -66.5 Q 387 -42 363 -24.5 Q 339 -7 310 0.5 Q 281 8 252 8 Z " id="path6"/>
<path d="M 250 8 Q 219 8 189 -0.5 Q 159 -9 135 -28 Q 111 -47 94.5 -73.5 Q 78 -100 68.5 -129 Q 59 -158 55.5 -189 Q 52 -220 52 -250 Q 52 -291 60 -331 Q 68 -371 82 -409 Q 96 -447 114 -483.5 Q 132 -520 150 -556 L 238 -735 L 347 -735 L 240 -517 Q 232 -500 223 -483.5 Q 214 -467 205 -451 Q 217 -454 229 -455 Q 241 -456 253 -456 Q 281 -456 309.5 -449 Q 338 -442 361.5 -426 Q 385 -410 402.5 -386.5 Q 420 -363 430 -336.5 Q 440 -310 444 -281.5 Q 448 -253 448 -224 Q 448 -195 444 -166.5 Q 440 -138 429.5 -111 Q 419 -84 401.5 -60.5 Q 384 -37 360 -21 Q 336 -5 307.5 1.5 Q 279 8 250 8 Z M 250 -80 Q 266 -80 282 -85.5 Q 298 -91 309.5 -102.5 Q 321 -114 328.5 -129 Q 336 -144 340 -159.5 Q 344 -175 345.5 -191.5 Q 347 -208 347 -224 Q 347 -240 345.5 -256.5 Q 344 -273 340 -288.5 Q 336 -304 328.5 -319 Q 321 -334 309.5 -345.5 Q 298 -357 282.5 -362.5 Q 267 -368 251 -368 Q 234 -368 218.5 -362.5 Q 203 -357 191.5 -345.5 Q 180 -334 172 -319.5 Q 164 -305 160 -289 Q 156 -273 154.5 -256.5 Q 153 -240 153 -224 Q 153 -208 154.5 -191.5 Q 156 -175 160 -159.5 Q 164 -144 171.5 -129 Q 179 -114 190.5 -102.5 Q 202 -91 218 -85.5 Q 234 -80 250 -80 Z " id="path7"/>
<path d="M 138 0 L 336 -647 L 60 -647 L 60 -735 L 440 -735 L 440 -647 L 242 0 Z " id="path8"/>
<path d="M 250 8 Q 225 8 200 4 Q 175 -0 152 -10 Q 129 -20 110 -37 Q 91 -54 78 -75.5 Q 65 -97 58.5 -121.5 Q 52 -146 52 -171 Q 52 -202 62 -232 Q 72 -262 88.5 -288 Q 105 -314 127 -336 Q 149 -358 174 -378 Q 152 -396 132.5 -417 Q 113 -438 98.5 -462.5 Q 84 -487 76 -514.5 Q 68 -542 68 -571 Q 68 -594 73.5 -617.5 Q 79 -641 90.5 -661.5 Q 102 -682 119.5 -698.5 Q 137 -715 158 -725 Q 179 -735 202.5 -739 Q 226 -743 250 -743 Q 274 -743 297.5 -739 Q 321 -735 342 -725 Q 363 -715 380.5 -698.5 Q 398 -682 409.5 -661.5 Q 421 -641 426.5 -617.5 Q 432 -594 432 -571 Q 432 -542 424 -514.5 Q 416 -487 401.5 -462.5 Q 387 -438 367.5 -417 Q 348 -396 326 -378 Q 351 -358 373 -336 Q 395 -314 411.5 -288 Q 428 -262 438 -232 Q 448 -202 448 -171 Q 448 -146 441.5 -121.5 Q 435 -97 422 -75.5 Q 409 -54 390 -37 Q 371 -20 348 -10 Q 325 -0 300 4 Q 275 8 250 8 Z M 250 -435 Q 266 -447 280.5 -461.5 Q 295 -476 306.5 -493 Q 318 -510 325 -529.5 Q 332 -549 332 -569 Q 332 -586 326.5 -602.5 Q 321 -619 310 -631.5 Q 299 -644 283 -649.5 Q 267 -655 250 -655 Q 233 -655 217 -649.5 Q 201 -644 190 -631.5 Q 179 -619 173.5 -602.5 Q 168 -586 168 -569 Q 168 -549 175 -529.5 Q 182 -510 193.5 -493 Q 205 -476 219.5 -461.5 Q 234 -447 250 -435 Z M 250 -80 Q 269 -80 287.5 -85.5 Q 306 -91 320 -104 Q 334 -117 340.5 -135.5 Q 347 -154 347 -173 Q 347 -196 338.5 -217.5 Q 330 -239 316.5 -257.5 Q 303 -276 285.5 -291 Q 268 -306 250 -320 Q 232 -306 214.5 -291 Q 197 -276 183.5 -257.5 Q 170 -239 161.5 -217.5 Q 153 -196 153 -173 Q 153 -154 159.5 -135.5 Q 166 -117 180 -104 Q 194 -91 212.5 -85.5 Q 231 -80 250 -80 Z " id="path9"/>
<path d="M 262 0 L 153 0 L 260 -218 Q 268 -235 277 -251.5 Q 286 -268 295 -284 Q 283 -281 271 -280 Q 259 -279 247 -279 Q 219 -279 190.5 -286 Q 162 -293 138.5 -309 Q 115 -325 97.5 -348.5 Q 80 -372 70 -398.5 Q 60 -425 56 -453.5 Q 52 -482 52 -511 Q 52 -540 56 -568.5 Q 60 -597 70.5 -624 Q 81 -651 98.5 -674.5 Q 116 -698 140 -714 Q 164 -730 192.5 -736.5 Q 221 -743 250 -743 Q 281 -743 311 -734.5 Q 341 -726 365 -707 Q 389 -688 405.5 -661.5 Q 422 -635 431.5 -606 Q 441 -577 444.5 -546 Q 448 -515 448 -485 Q 448 -444 440 -404 Q 432 -364 418 -326 Q 404 -288 386 -251.5 Q 368 -215 350 -179 Z M 249 -367 Q 266 -367 281.5 -372.5 Q 297 -378 308.5 -389.5 Q 320 -401 328 -415.5 Q 336 -430 340 -446 Q 344 -462 345.5 -478.5 Q 347 -495 347 -511 Q 347 -527 345.5 -543.5 Q 344 -560 340 -575.5 Q 336 -591 328.5 -606 Q 321 -621 309.5 -632.5 Q 298 -644 282 -649.5 Q 266 -655 250 -655 Q 234 -655 218 -649.5 Q 202 -644 190.5 -632.5 Q 179 -621 171.5 -606 Q 164 -591 160 -575.5 Q 156 -560 154.5 -543.5 Q 153 -527 153 -511 Q 153 -495 154.5 -478.5 Q 156 -462 160 -446.5 Q 164 -431 171.5 -416 Q 179 -401 190.5 -389.5 Q 202 -378 217.5 -372.5 Q 233 -367 249 -367 Z " id="path10"/>
<path d="M 39 0 L 192 -735 L 308 -735 L 461 0 L 358 0 L 326 -172 L 174 -172 L 142 0 Z M 309 -260 L 265 -490 Q 262 -511 258 -531.5 Q 254 -552 250 -572 Q 246 -552 242 -531.5 Q 238 -511 235 -490 L 191 -260 Z " id="path11"/>
<path d="M 60 0 L 60 -735 L 234 -735 Q 261 -735 287 -730.5 Q 313 -726 336 -714 Q 359 -702 377.5 -682.5 Q 396 -663 408 -639.5 Q 420 -616 424.5 -590 Q 429 -564 429 -538 Q 429 -515 425 -492 Q 421 -469 410.5 -448.5 Q 400 -428 383.5 -411 Q 367 -394 347 -383 Q 372 -373 393.5 -355.5 Q 415 -338 429.5 -314.5 Q 444 -291 450 -264 Q 456 -237 456 -210 Q 456 -181 450 -152.5 Q 444 -124 430 -98.5 Q 416 -73 394.5 -53.5 Q 373 -34 347 -21.5 Q 321 -9 292 -4.5 Q 263 -0 234 0 Z M 161 -424 L 234 -424 Q 255 -424 274.5 -432.5 Q 294 -441 306.5 -457.5 Q 319 -474 324 -494.5 Q 329 -515 329 -536 Q 329 -557 324 -577.5 Q 319 -598 306.5 -614.5 Q 294 -631 274.5 -639 Q 255 -647 234 -647 L 161 -647 Z M 161 -88 L 234 -88 Q 251 -88 267 -91 Q 283 -94 297.5 -101.5 Q 312 -109 323.5 -121 Q 335 -133 342.5 -148 Q 350 -163 352.5 -179 Q 355 -195 355 -212 Q 355 -228 352.5 -244.5 Q 350 -261 343 -276 Q 336 -291 324.5 -303 Q 313 -315 298 -322.5 Q 283 -330 267 -333 Q 251 -336 234 -336 L 161 -336 Z " id="path12"/>
<path d="M 247 8 Q 220 8 193.5 2.5 Q 167 -3 143.5 -16 Q 120 -29 101.5 -49.5 Q 83 -70 72 -94.5 Q 61 -119 56.5 -146 Q 52 -173 52 -200 L 52 -535 Q 52 -562 56.5 -589 Q 61 -616 72 -640.5 Q 83 -665 101.5 -685.5 Q 120 -706 143.5 -719 Q 167 -732 193.5 -737.5 Q 220 -743 247 -743 Q 273 -743 298 -738.5 Q 323 -734 346 -723 Q 369 -712 387.5 -694 Q 406 -676 418 -653.5 Q 430 -631 436 -606 Q 442 -581 442 -556 L 442 -554 L 341 -554 L 341 -555 Q 341 -575 335.5 -593.5 Q 330 -612 317 -627 Q 304 -642 285.5 -648.5 Q 267 -655 247 -655 Q 226 -655 206 -645.5 Q 186 -636 173.5 -618 Q 161 -600 157 -578.5 Q 153 -557 153 -535 L 153 -200 Q 153 -178 157 -156.5 Q 161 -135 173.5 -117 Q 186 -99 206 -89.5 Q 226 -80 247 -80 Q 267 -80 285.5 -86.5 Q 304 -93 317 -108 Q 330 -123 335.5 -141.5 Q 341 -160 341 -180 L 341 -181 L 442 -181 L 442 -179 Q 442 -154 436 -129 Q 430 -104 418 -81.5 Q 406 -59 387.5 -41 Q 369 -23 346 -12 Q 323 -1 298 3.5 Q 273 8 247 8 Z " id="path13"/>
<path d="M 60 0 L 60 -735 L 219 -735 Q 249 -735 279 -730 Q 309 -725 336.5 -712 Q 364 -699 386 -678.5 Q 408 -658 422 -631.5 Q 436 -605 442 -575 Q 448 -545 448 -515 L 448 -220 Q 448 -190 442 -160 Q 436 -130 422 -103.5 Q 408 -77 386 -56.5 Q 364 -36 336.5 -23 Q 309 -10 279 -5 Q 249 -0 219 0 Z M 161 -88 L 219 -88 Q 237 -88 254 -91 Q 271 -94 286.5 -102.5 Q 302 -111 314 -124 Q 326 -137 333.5 -152.5 Q 341 -168 344 -185.5 Q 347 -203 347 -220 L 347 -515 Q 347 -532 344 -549.5 Q 341 -567 333.5 -582.5 Q 326 -598 314 -611 Q 302 -624 286.5 -632.5 Q 271 -641 254 -644 Q 237 -647 219 -647 L 161 -647 Z " id="path14"/>
<path d="M 68 0 L 68 -735 L 440 -735 L 440 -647 L 169 -647 L 169 -426 L 383 -426 L 383 -338 L 169 -338 L 169 -88 L 440 -88 L 440 0 Z " id="path15"/>
<path d="M 91 0 L 91 -735 L 440 -735 L 440 -647 L 191 -647 L 191 -426 L 383 -426 L 383 -338 L 191 -338 L 191 0 Z " id="path16"/>
<path d="M 250 8 Q 223 8 196.5 2.5 Q 170 -3 147 -16.5 Q 124 -30 106.5 -50.5 Q 89 -71 78.5 -95.5 Q 68 -120 64 -146.5 Q 60 -173 60 -200 L 60 -735 L 161 -735 L 161 -200 Q 161 -186 162.5 -172 Q 164 -158 168 -144.5 Q 172 -131 179.5 -118.5 Q 187 -106 197.5 -97 Q 208 -88 222 -84 Q 236 -80 250 -80 Q 264 -80 278 -84 Q 292 -88 302.5 -97 Q 313 -106 320.5 -118.5 Q 328 -131 332 -144.5 Q 336 -158 337.5 -172 Q 339 -186 339 -200 L 339 -735 L 440 -735 L 440 -200 Q 440 -173 436 -146.5 Q 432 -120 421.5 -95.5 Q 411 -71 393.5 -50.5 Q 376 -30 353 -16.5 Q 330 -3 303.5 2.5 Q 277 8 250 8 Z " id="path17"/>
<path d="M 300 -143 L 200 -143 L 200 -296 L 60 -296 L 60 -384 L 200 -384 L 200 -537 L 300 -537 L 300 -384 L 440 -384 L 440 -296 L 300 -296 Z " id="path18"/>
<path d="M 64 0 L 64 -735 L 436 -735 L 436 0 Z M 94 -321 L 401 -705 L 307 -705 L 94 -438 Z M 94 -477 L 276 -705 L 182 -705 L 94 -595 Z M 94 -634 L 151 -705 L 94 -705 Z M 94 -165 L 406 -554 L 406 -671 L 94 -282 Z M 94 -30 L 112 -30 L 406 -398 L 406 -515 L 94 -126 Z M 237 -30 L 406 -242 L 406 -359 L 143 -30 Z M 268 -30 L 362 -30 L 406 -85 L 406 -203 Z M 393 -30 L 406 -30 L 406 -46 Z " id="path19"/>
<path d="M 416 -74 Q 371 -141 314 -197.5 Q 257 -254 191 -297 L 219 -335 Q 282 -291 337 -236.5 Q 392 -182 436 -119 Q 500 -251 586 -370.5 Q 672 -490 778 -593 L 813 -560 Q 704 -456 616.5 -333.5 Q 529 -211 466 -74 Z " id="path20"/>
<path d="M 338 -74 Q 299 -125 251 -167 Q 203 -209 147 -240 L 263 -393 Q 306 -360 346 -322.5 Q 386 -285 422 -244 Q 484 -354 559.5 -454 Q 635 -554 724 -643 L 866 -509 Q 766 -418 684 -307.5 Q 602 -197 544 -74 Z " id="path21"/>
<path d="M 777 -29 L 500 -306 L 223 -29 L 187 -61 L 466 -340 L 187 -619 L 223 -651 L 500 -374 L 777 -651 L 813 -619 L 534 -340 L 813 -61 Z " id="path22"/>
<path d="M 277 21 L 132 -110 L 362 -340 L 132 -570 L 277 -701 L 500 -478 L 723 -701 L 868 -570 L 638 -340 L 868 -110 L 723 21 L 500 -202 Z " id="path23"/>
<path d="M 195 -16 L 155 -44 Q 219 -127 289 -204.5 Q 359 -282 434 -355 Q 371 -413 309 -473.5 Q 247 -534 187 -596 L 223 -627 Q 283 -566 344.5 -506 Q 406 -446 469 -388 Q 549 -462 634.5 -530.5 Q 720 -599 810 -660 L 839 -622 Q 750 -562 666.5 -495 Q 583 -428 504 -355 Q 579 -287 655.5 -221.5 Q 732 -156 811 -92 L 779 -57 Q 700 -121 622.5 -187.5 Q 545 -254 469 -322 Q 395 -251 326.5 -174.5 Q 258 -98 195 -16 Z " id="path24"/>
<path d="M 257 26 L 94 -87 Q 148 -157 206.5 -224 Q 265 -291 328 -354 Q 278 -401 228.5 -449.5 Q 179 -498 131 -547 L 278 -676 Q 325 -628 373 -581 Q 421 -534 470 -488 Q 540 -550 614.5 -607.5 Q 689 -665 767 -718 L 882 -564 Q 812 -517 744.5 -464.5 Q 677 -412 613 -356 Q 674 -302 735.5 -249.5 Q 797 -197 860 -146 L 731 -2 Q 665 -55 600 -110 Q 535 -165 472 -221 Q 414 -163 360.5 -101 Q 307 -39 257 26 Z " id="path25"/>
<path d="M 397 -19 L 397 -247 L 179 -247 L 179 -433 L 397 -433 L 397 -661 L 603 -661 L 603 -433 L 821 -433 L 821 -247 L 603 -247 L 603 -19 Z " id="path26"/>
<path d="M 457 62 L 457 -435 L 232 -435 L 232 -513 L 457 -513 L 457 -742 L 543 -742 L 543 -513 L 768 -513 L 768 -435 L 543 -435 L 543 62 Z " id="path27"/>
<path d="M 500 13 Q 479 -48 444 -103 Q 409 -158 363.5 -203.5 Q 318 -249 263 -284 Q 208 -319 147 -340 Q 208 -361 263 -396 Q 318 -431 363.5 -476.5 Q 409 -522 444 -577 Q 479 -632 500 -693 Q 521 -632 556 -577 Q 591 -522 636.5 -476.5 Q 682 -431 737 -396 Q 792 -361 853 -340 Q 792 -319 737 -284 Q 682 -249 636.5 -203.5 Q 591 -158 556 -103 Q 521 -48 500 13 Z " id="path28"/>
<path d="M 500 13 Q 479 -48 444 -103 Q 409 -158 363.5 -203.5 Q 318 -249 263 -284 Q 208 -319 147 -340 Q 208 -361 263 -396 Q 318 -431 363.5 -476.5 Q 409 -522 444 -577 Q 479 -632 500 -693 Q 521 -632 556 -577 Q 591 -522 636.5 -476.5 Q 682 -431 737 -396 Q 792 -361 853 -340 Q 792 -319 737 -284 Q 682 -249 636.5 -203.5 Q 591 -158 556 -103 Q 521 -48 500 13 Z M 500 -159 Q 511 -190 528.5 -218.5 Q 546 -247 569.5 -270.5 Q 593 -294 621.5 -311.5 Q 650 -329 681 -340 Q 650 -351 621.5 -368.5 Q 593 -386 569.5 -409.5 Q 546 -433 528.5 -461.5 Q 511 -490 500 -521 Q 489 -490 471.5 -461.5 Q 454 -433 430.5 -409.5 Q 407 -386 378.5 -368.5 Q 350 -351 319 -340 Q 350 -329 378.5 -311.5 Q 407 -294 430.5 -270.5 Q 454 -247 471.5 -218.5 Q 489 -190 500 -159 Z " id="path29"/>
<path d="M 397 -19 L 402 -179 L 273 -99 L 170 -259 L 320 -340 L 170 -421 L 273 -581 L 402 -501 L 397 -661 L 603 -661 L 598 -501 L 727 -581 L 830 -421 L 680 -340 L 830 -259 L 727 -99 L 598 -179 L 603 -19 Z " id="path30"/>
<path d="M 466 -19 L 473 -277 L 297 -91 L 249 -134 L 440 -316 L 179 -310 L 179 -370 L 440 -364 L 249 -546 L 297 -589 L 473 -403 L 466 -661 L 534 -661 L 527 -403 L 703 -589 L 751 -546 L 560 -364 L 821 -370 L 821 -310 L 560 -316 L 751 -134 L 703 -91 L 527 -277 L 534 -19 Z " id="path31"/>
<path d="M 500 29 L 465 -255 L 239 -79 L 415 -305 L 131 -340 L 415 -375 L 239 -601 L 465 -425 L 500 -709 L 535 -425 L 761 -601 L 585 -375 L 869 -340 L 585 -305 L 761 -79 L 535 -255 Z " id="path32"/>
<path d="M 500 -3 L 433 -223 L 208 -171 L 365 -340 L 208 -509 L 433 -457 L 500 -677 L 567 -457 L 792 -509 L 635 -340 L 792 -171 L 567 -223 Z " id="path33"/>
<path d="M 371 -28 L 405 -245 L 188 -211 L 365 -340 L 188 -469 L 405 -435 L 371 -652 L 500 -475 L 629 -652 L 595 -435 L 812 -469 L 635 -340 L 812 -211 L 595 -245 L 629 -28 L 500 -205 Z " id="path34"/>
<path d="M 371 -28 L 381 -221 L 188 -211 L 331 -340 L 188 -469 L 381 -459 L 371 -652 L 500 -509 L 629 -652 L 619 -459 L 812 -469 L 669 -340 L 812 -211 L 619 -221 L 629 -28 L 500 -171 Z " id="path35"/>
<path d="M 500 -3 L 456 -177 L 331 -48 L 381 -221 L 208 -171 L 337 -296 L 163 -340 L 337 -384 L 208 -509 L 381 -459 L 331 -632 L 456 -503 L 500 -677 L 544 -503 L 669 -632 L 619 -459 L 792 -509 L 663 -384 L 837 -340 L 663 -296 L 792 -171 L 619 -221 L 669 -48 L 544 -177 Z " id="path36"/>
<path d="M 529 -19 L 471 -19 L 475 -216 L 404 -33 L 350 -53 L 431 -238 L 294 -94 L 252 -132 L 401 -275 L 214 -193 L 192 -242 L 388 -318 L 179 -313 L 179 -367 L 388 -362 L 192 -438 L 214 -487 L 401 -405 L 252 -548 L 294 -586 L 431 -442 L 350 -627 L 404 -647 L 475 -464 L 471 -661 L 529 -661 L 525 -464 L 596 -647 L 650 -627 L 569 -442 L 706 -586 L 748 -548 L 599 -405 L 786 -487 L 808 -438 L 612 -362 L 821 -367 L 821 -313 L 612 -318 L 808 -242 L 786 -193 L 599 -275 L 748 -132 L 706 -94 L 569 -238 L 650 -53 L 596 -33 L 525 -216 Z " id="path37"/>
<path d="M 289 9 L 143 -121 L 362 -340 L 143 -559 L 289 -689 L 500 -478 L 711 -689 L 857 -559 L 638 -340 L 857 -121 L 711 9 L 500 -202 Z " id="path38"/>
<path d="M 500 -388 L 363 -525 L 500 -661 L 637 -525 Z M 315 -203 L 179 -340 L 315 -477 L 452 -340 Z M 685 -203 L 548 -340 L 685 -477 L 821 -340 Z M 500 -19 L 363 -155 L 500 -292 L 637 -155 Z " id="path39"/>
<path d="M 525 -19 L 475 -19 L 475 -661 L 525 -661 Z " id="path40"/>
<path d="M 543 -19 L 457 -19 L 457 -661 L 543 -661 Z " id="path41"/>
<path d="M 397 -19 L 397 -661 L 603 -661 L 603 -19 Z " id="path42"/>
<path d="M 500 -19 Q 473 -44 446.5 -70 Q 420 -96 395 -122.5 Q 370 -149 345.5 -177 Q 321 -205 297.5 -233.5 Q 274 -262 253 -292.5 Q 232 -323 214 -355 Q 196 -387 183.5 -422 Q 171 -457 171 -494 Q 171 -526 183 -556.5 Q 195 -587 219.5 -608 Q 244 -629 275.5 -637 Q 307 -645 339 -645 Q 368 -645 397.5 -637.5 Q 427 -630 450 -611 Q 473 -592 485.5 -564 Q 498 -536 500 -506 Q 502 -536 514.5 -564 Q 527 -592 550 -611 Q 573 -630 602.5 -637.5 Q 632 -645 661 -645 Q 693 -645 724.5 -637 Q 756 -629 780.5 -608 Q 805 -587 817 -556.5 Q 829 -526 829 -494 Q 829 -457 816.5 -422 Q 804 -387 786 -355 Q 768 -323 747 -292.5 Q 726 -262 702.5 -233.5 Q 679 -205 654.5 -177 Q 630 -149 605 -122.5 Q 580 -96 553.5 -70 Q 527 -44 500 -19 Z " id="path43"/>
<path d="M 448 69 L 374 69 L 52 -340 L 374 -749 L 448 -749 L 126 -340 Z " id="path44"/>
<path d="M 52 69 L 374 -340 L 52 -749 L 126 -749 L 448 -340 L 126 69 Z " id="path45"/>
<path d="M 460 69 L 314 69 L 40 -340 L 314 -749 L 460 -749 L 186 -340 Z " id="path46"/>
<path d="M 186 69 L 40 69 L 314 -340 L 40 -749 L 186 -749 L 460 -340 Z " id="path47"/>
<path d="M 262 69 L 29 -340 L 262 -749 L 471 -749 L 238 -340 L 471 69 Z " id="path48"/>
<path d="M 238 69 L 29 69 L 262 -340 L 29 -749 L 238 -749 L 471 -340 Z " id="path49"/>
<path d="M 500 87 Q 443 87 386 77 Q 329 67 278 41.5 Q 227 16 185.5 -25.5 Q 144 -67 118.5 -118 Q 93 -169 83 -226 Q 73 -283 73 -340 Q 73 -397 83 -454 Q 93 -511 118.5 -562 Q 144 -613 185.5 -654.5 Q 227 -696 278 -721.5 Q 329 -747 386 -757 Q 443 -767 500 -767 Q 557 -767 614 -757 Q 671 -747 722 -721.5 Q 773 -696 814.5 -654.5 Q 856 -613 881.5 -562 Q 907 -511 917 -454 Q 927 -397 927 -340 Q 927 -283 917 -226 Q 907 -169 881.5 -118 Q 856 -67 814.5 -25.5 Q 773 16 722 41.5 Q 671 67 614 77 Q 557 87 500 87 Z M 487 -120 L 549 -120 L 549 -560 L 487 -560 L 383 -479 L 414 -443 L 487 -501 Z " id="path50"/>
<path d="M 500 87 Q 443 87 386 77 Q 329 67 278 41.5 Q 227 16 185.5 -25.5 Q 144 -67 118.5 -118 Q 93 -169 83 -226 Q 73 -283 73 -340 Q 73 -397 83 -454 Q 93 -511 118.5 -562 Q 144 -613 185.5 -654.5 Q 227 -696 278 -721.5 Q 329 -747 386 -757 Q 443 -767 500 -767 Q 557 -767 614 -757 Q 671 -747 722 -721.5 Q 773 -696 814.5 -654.5 Q 856 -613 881.5 -562 Q 907 -511 917 -454 Q 927 -397 927 -340 Q 927 -283 917 -226 Q 907 -169 881.5 -118 Q 856 -67 814.5 -25.5 Q 773 16 722 41.5 Q 671 67 614 77 Q 557 87 500 87 Z M 388 -120 L 612 -120 L 612 -176 L 454 -176 Q 457 -195 465 -213.5 Q 473 -232 484.5 -248.5 Q 496 -265 510.5 -278.5 Q 525 -292 540 -305 Q 555 -318 569 -332 Q 583 -346 593.5 -363.5 Q 604 -381 609 -400.5 Q 614 -420 614 -439 Q 614 -464 608 -487.5 Q 602 -511 586.5 -529.5 Q 571 -548 547.5 -556.5 Q 524 -565 500 -565 Q 478 -565 456 -558 Q 434 -551 418 -534.5 Q 402 -518 394.5 -496 Q 387 -474 387 -451 L 449 -451 Q 449 -462 452 -472.5 Q 455 -483 462 -492 Q 469 -501 479 -505 Q 489 -509 500 -509 Q 513 -509 524 -503 Q 535 -497 541 -486.5 Q 547 -476 549.5 -464 Q 552 -452 552 -439 Q 552 -416 541.5 -394.5 Q 531 -373 513 -357.5 Q 495 -342 476.5 -327.5 Q 458 -313 442.5 -295 Q 427 -277 415.5 -256.5 Q 404 -236 397.5 -213.5 Q 391 -191 389.5 -167.5 Q 388 -144 388 -120 Z " id="path51"/>
<path d="M 500 87 Q 443 87 386 77 Q 329 67 278 41.5 Q 227 16 185.5 -25.5 Q 144 -67 118.5 -118 Q 93 -169 83 -226 Q 73 -283 73 -340 Q 73 -397 83 -454 Q 93 -511 118.5 -562 Q 144 -613 185.5 -654.5 Q 227 -696 278 -721.5 Q 329 -747 386 -757 Q 443 -767 500 -767 Q 557 -767 614 -757 Q 671 -747 722 -721.5 Q 773 -696 814.5 -654.5 Q 856 -613 881.5 -562 Q 907 -511 917 -454 Q 927 -397 927 -340 Q 927 -283 917 -226 Q 907 -169 881.5 -118 Q 856 -67 814.5 -25.5 Q 773 16 722 41.5 Q 671 67 614 77 Q 557 87 500 87 Z M 501 -115 Q 526 -115 549.5 -123 Q 573 -131 589.5 -148.5 Q 606 -166 613.5 -189.5 Q 621 -213 621 -237 Q 621 -254 617 -270.5 Q 613 -287 605 -302 Q 597 -317 584.5 -328.5 Q 572 -340 557 -347 Q 570 -354 580.5 -365 Q 591 -376 598 -389.5 Q 605 -403 608.5 -418 Q 612 -433 612 -448 Q 612 -471 605 -493 Q 598 -515 583 -532 Q 568 -549 546 -557 Q 524 -565 502 -565 Q 479 -565 457.5 -558 Q 436 -551 421 -534.5 Q 406 -518 399 -496.5 Q 392 -475 392 -453 L 392 -451 L 454 -451 L 454 -452 Q 454 -462 456.5 -472.5 Q 459 -483 465.5 -491.5 Q 472 -500 481.5 -504.5 Q 491 -509 502 -509 Q 513 -509 523 -503.5 Q 533 -498 539 -488.5 Q 545 -479 547 -468 Q 549 -457 549 -446 Q 549 -432 545 -417.5 Q 541 -403 531 -392 Q 521 -381 506.5 -377.5 Q 492 -374 478 -374 L 478 -318 Q 494 -318 510 -314 Q 526 -310 537.5 -298.5 Q 549 -287 554 -271.5 Q 559 -256 559 -239 Q 559 -227 556 -214.5 Q 553 -202 545.5 -191.5 Q 538 -181 526 -176 Q 514 -171 501 -171 Q 490 -171 478.5 -175 Q 467 -179 459.5 -187.5 Q 452 -196 448.5 -207.5 Q 445 -219 445 -231 L 382 -231 Q 382 -207 390.5 -184.5 Q 399 -162 415.5 -145.5 Q 432 -129 455 -122 Q 478 -115 501 -115 Z " id="path52"/>
<path d="M 500 87 Q 443 87 386 77 Q 329 67 278 41.5 Q 227 16 185.5 -25.5 Q 144 -67 118.5 -118 Q 93 -169 83 -226 Q 73 -283 73 -340 Q 73 -397 83 -454 Q 93 -511 118.5 -562 Q 144 -613 185.5 -654.5 Q 227 -696 278 -721.5 Q 329 -747 386 -757 Q 443 -767 500 -767 Q 557 -767 614 -757 Q 671 -747 722 -721.5 Q 773 -696 814.5 -654.5 Q 856 -613 881.5 -562 Q 907 -511 917 -454 Q 927 -397 927 -340 Q 927 -283 917 -226 Q 907 -169 881.5 -118 Q 856 -67 814.5 -25.5 Q 773 16 722 41.5 Q 671 67 614 77 Q 557 87 500 87 Z M 517 -120 L 579 -120 L 579 -231 L 612 -231 L 612 -287 L 579 -287 L 579 -379 L 517 -379 L 517 -287 L 451 -287 L 581 -560 L 513 -560 L 384 -287 L 384 -231 L 517 -231 Z " id="path53"/>
<path d="M 500 87 Q 443 87 386 77 Q 329 67 278 41.5 Q 227 16 185.5 -25.5 Q 144 -67 118.5 -118 Q 93 -169 83 -226 Q 73 -283 73 -340 Q 73 -397 83 -454 Q 93 -511 118.5 -562 Q 144 -613 185.5 -654.5 Q 227 -696 278 -721.5 Q 329 -747 386 -757 Q 443 -767 500 -767 Q 557 -767 614 -757 Q 671 -747 722 -721.5 Q 773 -696 814.5 -654.5 Q 856 -613 881.5 -562 Q 907 -511 917 -454 Q 927 -397 927 -340 Q 927 -283 917 -226 Q 907 -169 881.5 -118 Q 856 -67 814.5 -25.5 Q 773 16 722 41.5 Q 671 67 614 77 Q 557 87 500 87 Z M 501 -115 Q 519 -115 536 -119.5 Q 553 -124 567 -134.5 Q 581 -145 591 -160 Q 601 -175 606.5 -191.5 Q 612 -208 614 -225.5 Q 616 -243 616 -261 Q 616 -278 614 -295.5 Q 612 -313 606.5 -329.5 Q 601 -346 591.5 -361 Q 582 -376 568 -386.5 Q 554 -397 537 -402 Q 520 -407 503 -407 Q 490 -407 478 -405 Q 466 -403 455 -398 L 455 -504 L 600 -504 L 600 -560 L 393 -560 L 393 -296 L 455 -296 Q 455 -306 458 -316 Q 461 -326 467 -334 Q 473 -342 482.5 -346 Q 492 -350 503 -350 Q 517 -350 528.5 -340.5 Q 540 -331 545.5 -317.5 Q 551 -304 552.5 -289.5 Q 554 -275 554 -261 Q 554 -246 552 -231.5 Q 550 -217 544.5 -203.5 Q 539 -190 527.5 -180.5 Q 516 -171 501 -171 Q 491 -171 481.5 -175 Q 472 -179 465.5 -187 Q 459 -195 455.5 -204.5 Q 452 -214 451 -224 L 450 -226 L 388 -226 L 389 -219 Q 392 -198 400.5 -178 Q 409 -158 424 -143 Q 439 -128 459.5 -121.5 Q 480 -115 501 -115 Z " id="path54"/>
<path d="M 500 87 Q 443 87 386 77 Q 329 67 278 41.5 Q 227 16 185.5 -25.5 Q 144 -67 118.5 -118 Q 93 -169 83 -226 Q 73 -283 73 -340 Q 73 -397 83 -454 Q 93 -511 118.5 -562 Q 144 -613 185.5 -654.5 Q 227 -696 278 -721.5 Q 329 -747 386 -757 Q 443 -767 500 -767 Q 557 -767 614 -757 Q 671 -747 722 -721.5 Q 773 -696 814.5 -654.5 Q 856 -613 881.5 -562 Q 907 -511 917 -454 Q 927 -397 927 -340 Q 927 -283 917 -226 Q 907 -169 881.5 -118 Q 856 -67 814.5 -25.5 Q 773 16 722 41.5 Q 671 67 614 77 Q 557 87 500 87 Z M 500 -115 Q 517 -115 534 -119 Q 551 -123 565.5 -133 Q 580 -143 590 -157 Q 600 -171 606 -187 Q 612 -203 614 -220.5 Q 616 -238 616 -255 Q 616 -280 610.5 -305.5 Q 605 -331 590 -352 Q 575 -373 551 -384 Q 527 -395 502 -395 Q 495 -395 488.5 -394.5 Q 482 -394 476 -392 Q 481 -401 485.5 -409.5 Q 490 -418 494 -427 L 559 -560 L 491 -560 L 438 -452 Q 438 -451 438 -451 Q 438 -451 437 -450 L 437 -449 Q 426 -428 416.5 -407 Q 407 -386 399.5 -363.5 Q 392 -341 388 -318 Q 384 -295 384 -272 Q 384 -253 386 -234.5 Q 388 -216 393 -198.5 Q 398 -181 407.5 -165 Q 417 -149 431.5 -137.5 Q 446 -126 464 -120.5 Q 482 -115 500 -115 Z M 500 -171 Q 486 -171 474 -179 Q 462 -187 456 -200 Q 450 -213 448 -227 Q 446 -241 446 -255 Q 446 -269 448 -283 Q 450 -297 456 -309.5 Q 462 -322 474 -330.5 Q 486 -339 500 -339 L 501 -339 Q 515 -339 526.5 -330.5 Q 538 -322 544 -309.5 Q 550 -297 552 -283 Q 554 -269 554 -255 Q 554 -241 552 -227 Q 550 -213 544 -200 Q 538 -187 526 -179 Q 514 -171 500 -171 Z " id="path55"/>
<path d="M 500 87 Q 443 87 386 77 Q 329 67 278 41.5 Q 227 16 185.5 -25.5 Q 144 -67 118.5 -118 Q 93 -169 83 -226 Q 73 -283 73 -340 Q 73 -397 83 -454 Q 93 -511 118.5 -562 Q 144 -613 185.5 -654.5 Q 227 -696 278 -721.5 Q 329 -747 386 -757 Q 443 -767 500 -767 Q 557 -767 614 -757 Q 671 -747 722 -721.5 Q 773 -696 814.5 -654.5 Q 856 -613 881.5 -562 Q 907 -511 917 -454 Q 927 -397 927 -340 Q 927 -283 917 -226 Q 907 -169 881.5 -118 Q 856 -67 814.5 -25.5 Q 773 16 722 41.5 Q 671 67 614 77 Q 557 87 500 87 Z M 433 -120 L 498 -120 L 612 -504 L 612 -560 L 388 -560 L 388 -504 L 547 -504 L 500 -344 Z " id="path56"/>
<path d="M 500 87 Q 443 87 386 77 Q 329 67 278 41.5 Q 227 16 185.5 -25.5 Q 144 -67 118.5 -118 Q 93 -169 83 -226 Q 73 -283 73 -340 Q 73 -397 83 -454 Q 93 -511 118.5 -562 Q 144 -613 185.5 -654.5 Q 227 -696 278 -721.5 Q 329 -747 386 -757 Q 443 -767 500 -767 Q 557 -767 614 -757 Q 671 -747 722 -721.5 Q 773 -696 814.5 -654.5 Q 856 -613 881.5 -562 Q 907 -511 917 -454 Q 927 -397 927 -340 Q 927 -283 917 -226 Q 907 -169 881.5 -118 Q 856 -67 814.5 -25.5 Q 773 16 722 41.5 Q 671 67 614 77 Q 557 87 500 87 Z M 500 -115 Q 522 -115 544 -121 Q 566 -127 582.5 -141.5 Q 599 -156 608 -177 Q 617 -198 617 -221 Q 617 -239 611 -257 Q 605 -275 595.5 -291 Q 586 -307 573 -320.5 Q 560 -334 546 -346 Q 558 -358 569.5 -371 Q 581 -384 589.5 -398.5 Q 598 -413 602.5 -430 Q 607 -447 607 -464 Q 607 -484 599.5 -504.5 Q 592 -525 577 -539 Q 562 -553 541.5 -559 Q 521 -565 500 -565 Q 479 -565 458.5 -559 Q 438 -553 423 -539 Q 408 -525 400.5 -504.5 Q 393 -484 393 -464 Q 393 -447 397.5 -430 Q 402 -413 410.5 -398.5 Q 419 -384 430.5 -371 Q 442 -358 454 -346 Q 440 -334 427 -320.5 Q 414 -307 404.5 -291 Q 395 -275 389 -257 Q 383 -239 383 -221 Q 383 -198 392 -177 Q 401 -156 417.5 -141.5 Q 434 -127 456 -121 Q 478 -115 500 -115 Z M 500 -384 Q 491 -392 483 -400.5 Q 475 -409 469 -419 Q 463 -429 459 -440 Q 455 -451 455 -463 Q 455 -472 458 -481 Q 461 -490 467 -496.5 Q 473 -503 482 -506 Q 491 -509 500 -509 Q 509 -509 518 -506 Q 527 -503 533 -496.5 Q 539 -490 542 -481 Q 545 -472 545 -463 Q 545 -451 541 -440 Q 537 -429 531 -419 Q 525 -409 517 -400.5 Q 509 -392 500 -384 Z M 500 -171 Q 489 -171 479 -174 Q 469 -177 461 -184 Q 453 -191 449.5 -201 Q 446 -211 446 -222 Q 446 -235 451 -247.5 Q 456 -260 463.5 -270.5 Q 471 -281 480.5 -290.5 Q 490 -300 500 -308 Q 510 -300 519.5 -290.5 Q 529 -281 536.5 -270.5 Q 544 -260 549 -247.5 Q 554 -235 554 -222 Q 554 -211 550.5 -201 Q 547 -191 539 -184 Q 531 -177 521 -174 Q 511 -171 500 -171 Z " id="path57"/>
<path d="M 500 87 Q 443 87 386 77 Q 329 67 278 41.5 Q 227 16 185.5 -25.5 Q 144 -67 118.5 -118 Q 93 -169 83 -226 Q 73 -283 73 -340 Q 73 -397 83 -454 Q 93 -511 118.5 -562 Q 144 -613 185.5 -654.5 Q 227 -696 278 -721.5 Q 329 -747 386 -757 Q 443 -767 500 -767 Q 557 -767 614 -757 Q 671 -747 722 -721.5 Q 773 -696 814.5 -654.5 Q 856 -613 881.5 -562 Q 907 -511 917 -454 Q 927 -397 927 -340 Q 927 -283 917 -226 Q 907 -169 881.5 -118 Q 856 -67 814.5 -25.5 Q 773 16 722 41.5 Q 671 67 614 77 Q 557 87 500 87 Z M 441 -120 L 509 -120 L 562 -228 Q 562 -229 562 -229 Q 562 -229 563 -230 L 563 -231 Q 574 -252 583.5 -273 Q 593 -294 600.5 -316.5 Q 608 -339 612 -362 Q 616 -385 616 -408 Q 616 -427 614 -445.5 Q 612 -464 607 -481.5 Q 602 -499 592.5 -515 Q 583 -531 568.5 -542.5 Q 554 -554 536 -559.5 Q 518 -565 500 -565 Q 483 -565 466 -561 Q 449 -557 434.5 -547 Q 420 -537 410 -523 Q 400 -509 394 -493 Q 388 -477 386 -459.5 Q 384 -442 384 -425 Q 384 -400 389.5 -374.5 Q 395 -349 410 -328 Q 425 -307 449 -296 Q 473 -285 498 -285 Q 505 -285 511.5 -285.5 Q 518 -286 524 -288 Q 519 -279 514.5 -270.5 Q 510 -262 506 -253 Z M 500 -341 Q 485 -341 473.5 -349.5 Q 462 -358 456 -370.5 Q 450 -383 448 -397 Q 446 -411 446 -425 Q 446 -439 448 -453 Q 450 -467 456 -480 Q 462 -493 474 -501 Q 486 -509 500 -509 Q 514 -509 526 -501 Q 538 -493 544 -480 Q 550 -467 552 -453 Q 554 -439 554 -425 Q 554 -411 552 -397 Q 550 -383 544 -370.5 Q 538 -358 526 -349.5 Q 514 -341 500 -341 Z " id="path58"/>
<path d="M 500 87 Q 443 87 386 77 Q 329 67 278 41.5 Q 227 16 185.5 -25.5 Q 144 -67 118.5 -118 Q 93 -169 83 -226 Q 73 -283 73 -340 Q 73 -397 83 -454 Q 93 -511 118.5 -562 Q 144 -613 185.5 -654.5 Q 227 -696 278 -721.5 Q 329 -747 386 -757 Q 443 -767 500 -767 Q 557 -767 614 -757 Q 671 -747 722 -721.5 Q 773 -696 814.5 -654.5 Q 856 -613 881.5 -562 Q 907 -511 917 -454 Q 927 -397 927 -340 Q 927 -283 917 -226 Q 907 -169 881.5 -118 Q 856 -67 814.5 -25.5 Q 773 16 722 41.5 Q 671 67 614 77 Q 557 87 500 87 Z M 650 -115 Q 666 -115 682 -118 Q 698 -121 712 -129 Q 726 -137 737 -149.5 Q 748 -162 754.5 -176.5 Q 761 -191 763.5 -207 Q 766 -223 766 -239 L 766 -440 Q 766 -457 763.5 -473 Q 761 -489 754.5 -503.5 Q 748 -518 737 -530.5 Q 726 -543 712 -551 Q 698 -559 682 -562 Q 666 -565 650 -565 Q 634 -565 618 -562 Q 602 -559 588 -551 Q 574 -543 563 -530.5 Q 552 -518 545.5 -503.5 Q 539 -489 536.5 -473 Q 534 -457 534 -440 L 534 -240 Q 534 -223 536.5 -207 Q 539 -191 545.5 -176.5 Q 552 -162 563 -149.5 Q 574 -137 588 -129 Q 602 -121 618 -118 Q 634 -115 650 -115 Z M 337 -120 L 399 -120 L 399 -560 L 337 -560 L 233 -479 L 264 -443 L 337 -501 Z M 596 -325 L 596 -440 Q 596 -453 598.5 -465.5 Q 601 -478 608 -488 Q 615 -498 626.5 -503.5 Q 638 -509 650 -509 Q 662 -509 673.5 -503.5 Q 685 -498 692 -488 Q 699 -478 701.5 -465.5 Q 704 -453 704 -440 L 704 -411 Z M 650 -171 Q 638 -171 626.5 -176.5 Q 615 -182 608 -192 Q 601 -202 598.5 -214.5 Q 596 -227 596 -239 L 596 -269 L 704 -355 L 704 -239 Q 704 -227 701.5 -214.5 Q 699 -202 692 -192 Q 685 -182 673.5 -176.5 Q 662 -171 650 -171 Z " id="path59"/>
<path d="M 487 -120 L 487 -501 L 414 -443 L 383 -479 L 487 -560 L 549 -560 L 549 -120 Z M 500 87 Q 443 87 386 77 Q 329 67 278 41.5 Q 227 16 185.5 -25.5 Q 144 -67 118.5 -118 Q 93 -169 83 -226 Q 73 -283 73 -340 Q 73 -397 83 -454 Q 93 -511 118.5 -562 Q 144 -613 185.5 -654.5 Q 227 -696 278 -721.5 Q 329 -747 386 -757 Q 443 -767 500 -767 Q 557 -767 614 -757 Q 671 -747 722 -721.5 Q 773 -696 814.5 -654.5 Q 856 -613 881.5 -562 Q 907 -511 917 -454 Q 927 -397 927 -340 Q 927 -283 917 -226 Q 907 -169 881.5 -118 Q 856 -67 814.5 -25.5 Q 773 16 722 41.5 Q 671 67 614 77 Q 557 87 500 87 Z M 500 31 Q 549 31 598 22 Q 647 13 691 -9.5 Q 735 -32 770 -68 Q 805 -104 826.5 -148.5 Q 848 -193 856.5 -242 Q 865 -291 865 -340 Q 865 -389 856.5 -438 Q 848 -487 826.5 -531.5 Q 805 -576 770 -612 Q 735 -648 691 -670.5 Q 647 -693 598 -702 Q 549 -711 500 -711 Q 451 -711 402 -702 Q 353 -693 309 -670.5 Q 265 -648 230 -612 Q 195 -576 173.5 -531.5 Q 152 -487 143.5 -438 Q 135 -389 135 -340 Q 135 -291 143.5 -242 Q 152 -193 173.5 -148.5 Q 195 -104 230 -68 Q 265 -32 309 -9.5 Q 353 13 402 22 Q 451 31 500 31 Z " id="path60"/>
<path d="M 388 -120 Q 388 -144 389.5 -167.5 Q 391 -191 397.5 -213.5 Q 404 -236 415.5 -256.5 Q 427 -277 442.5 -295 Q 458 -313 476.5 -327.5 Q 495 -342 513 -357.5 Q 531 -373 541.5 -394.5 Q 552 -416 552 -439 Q 552 -452 549.5 -464 Q 547 -476 541 -486.5 Q 535 -497 524 -503 Q 513 -509 500 -509 Q 489 -509 479 -505 Q 469 -501 462 -492 Q 455 -483 452 -472.5 Q 449 -462 449 -451 L 387 -451 Q 387 -474 394.5 -496 Q 402 -518 418 -534.5 Q 434 -551 456 -558 Q 478 -565 500 -565 Q 524 -565 547.5 -556.5 Q 571 -548 586.5 -529.5 Q 602 -511 608 -487.5 Q 614 -464 614 -439 Q 614 -420 609 -400.5 Q 604 -381 593.5 -363.5 Q 583 -346 569 -332 Q 555 -318 540 -305 Q 525 -292 510.5 -278.5 Q 496 -265 484.5 -248.5 Q 473 -232 465 -213.5 Q 457 -195 454 -176 L 612 -176 L 612 -120 Z M 500 87 Q 443 87 386 77 Q 329 67 278 41.5 Q 227 16 185.5 -25.5 Q 144 -67 118.5 -118 Q 93 -169 83 -226 Q 73 -283 73 -340 Q 73 -397 83 -454 Q 93 -511 118.5 -562 Q 144 -613 185.5 -654.5 Q 227 -696 278 -721.5 Q 329 -747 386 -757 Q 443 -767 500 -767 Q 557 -767 614 -757 Q 671 -747 722 -721.5 Q 773 -696 814.5 -654.5 Q 856 -613 881.5 -562 Q 907 -511 917 -454 Q 927 -397 927 -340 Q 927 -283 917 -226 Q 907 -169 881.5 -118 Q 856 -67 814.5 -25.5 Q 773 16 722 41.5 Q 671 67 614 77 Q 557 87 500 87 Z M 500 31 Q 549 31 598 22 Q 647 13 691 -9.5 Q 735 -32 770 -68 Q 805 -104 826.5 -148.5 Q 848 -193 856.5 -242 Q 865 -291 865 -340 Q 865 -389 856.5 -438 Q 848 -487 826.5 -531.5 Q 805 -576 770 -612 Q 735 -648 691 -670.5 Q 647 -693 598 -702 Q 549 -711 500 -711 Q 451 -711 402 -702 Q 353 -693 309 -670.5 Q 265 -648 230 -612 Q 195 -576 173.5 -531.5 Q 152 -487 143.5 -438 Q 135 -389 135 -340 Q 135 -291 143.5 -242 Q 152 -193 173.5 -148.5 Q 195 -104 230 -68 Q 265 -32 309 -9.5 Q 353 13 402 22 Q 451 31 500 31 Z " id="path61"/>
<path d="M 501 -115 Q 478 -115 455 -122 Q 432 -129 415.5 -145.5 Q 399 -162 390.5 -184.5 Q 382 -207 382 -230 L 382 -231 L 445 -231 L 445 -230 Q 445 -219 448.5 -207.5 Q 452 -196 459.5 -187.5 Q 467 -179 478.5 -175 Q 490 -171 501 -171 Q 514 -171 526 -176 Q 538 -181 545.5 -191.5 Q 553 -202 556 -214.5 Q 559 -227 559 -239 Q 559 -256 554 -271.5 Q 549 -287 537.5 -298.5 Q 526 -310 510 -314 Q 494 -318 478 -318 L 478 -374 Q 492 -374 506.5 -377.5 Q 521 -381 531 -392 Q 541 -403 545 -417.5 Q 549 -432 549 -446 Q 549 -457 547 -468 Q 545 -479 539 -488.5 Q 533 -498 523 -503.5 Q 513 -509 502 -509 Q 491 -509 481.5 -504.5 Q 472 -500 465.5 -491.5 Q 459 -483 456.5 -472.5 Q 454 -462 454 -452 L 454 -451 L 392 -451 L 392 -453 Q 392 -475 399 -496.5 Q 406 -518 421 -534.5 Q 436 -551 457.5 -558 Q 479 -565 502 -565 Q 524 -565 546 -557 Q 568 -549 583 -532 Q 598 -515 605 -493 Q 612 -471 612 -448 Q 612 -433 608.5 -418 Q 605 -403 598 -389.5 Q 591 -376 580.5 -365 Q 570 -354 557 -347 Q 572 -340 584.5 -328.5 Q 597 -317 605 -302 Q 613 -287 617 -270.5 Q 621 -254 621 -237 Q 621 -213 613.5 -189.5 Q 606 -166 589.5 -148.5 Q 573 -131 549.5 -123 Q 526 -115 501 -115 Z M 500 87 Q 443 87 386 77 Q 329 67 278 41.5 Q 227 16 185.5 -25.5 Q 144 -67 118.5 -118 Q 93 -169 83 -226 Q 73 -283 73 -340 Q 73 -397 83 -454 Q 93 -511 118.5 -562 Q 144 -613 185.5 -654.5 Q 227 -696 278 -721.5 Q 329 -747 386 -757 Q 443 -767 500 -767 Q 557 -767 614 -757 Q 671 -747 722 -721.5 Q 773 -696 814.5 -654.5 Q 856 -613 881.5 -562 Q 907 -511 917 -454 Q 927 -397 927 -340 Q 927 -283 917 -226 Q 907 -169 881.5 -118 Q 856 -67 814.5 -25.5 Q 773 16 722 41.5 Q 671 67 614 77 Q 557 87 500 87 Z M 500 31 Q 549 31 598 22 Q 647 13 691 -9.5 Q 735 -32 770 -68 Q 805 -104 826.5 -148.5 Q 848 -193 856.5 -242 Q 865 -291 865 -340 Q 865 -389 856.5 -438 Q 848 -487 826.5 -531.5 Q 805 -576 770 -612 Q 735 -648 691 -670.5 Q 647 -693 598 -702 Q 549 -711 500 -711 Q 451 -711 402 -702 Q 353 -693 309 -670.5 Q 265 -648 230 -612 Q 195 -576 173.5 -531.5 Q 152 -487 143.5 -438 Q 135 -389 135 -340 Q 135 -291 143.5 -242 Q 152 -193 173.5 -148.5 Q 195 -104 230 -68 Q 265 -32 309 -9.5 Q 353 13 402 22 Q 451 31 500 31 Z " id="path62"/>
<path d="M 517 -120 L 517 -231 L 384 -231 L 384 -287 L 513 -560 L 581 -560 L 451 -287 L 517 -287 L 517 -379 L 579 -379 L 579 -287 L 612 -287 L 612 -231 L 579 -231 L 579 -120 Z M 500 87 Q 443 87 386 77 Q 329 67 278 41.5 Q 227 16 185.5 -25.5 Q 144 -67 118.5 -118 Q 93 -169 83 -226 Q 73 -283 73 -340 Q 73 -397 83 -454 Q 93 -511 118.5 -562 Q 144 -613 185.5 -654.5 Q 227 -696 278 -721.5 Q 329 -747 386 -757 Q 443 -767 500 -767 Q 557 -767 614 -757 Q 671 -747 722 -721.5 Q 773 -696 814.5 -654.5 Q 856 -613 881.5 -562 Q 907 -511 917 -454 Q 927 -397 927 -340 Q 927 -283 917 -226 Q 907 -169 881.5 -118 Q 856 -67 814.5 -25.5 Q 773 16 722 41.5 Q 671 67 614 77 Q 557 87 500 87 Z M 500 31 Q 549 31 598 22 Q 647 13 691 -9.5 Q 735 -32 770 -68 Q 805 -104 826.5 -148.5 Q 848 -193 856.5 -242 Q 865 -291 865 -340 Q 865 -389 856.5 -438 Q 848 -487 826.5 -531.5 Q 805 -576 770 -612 Q 735 -648 691 -670.5 Q 647 -693 598 -702 Q 549 -711 500 -711 Q 451 -711 402 -702 Q 353 -693 309 -670.5 Q 265 -648 230 -612 Q 195 -576 173.5 -531.5 Q 152 -487 143.5 -438 Q 135 -389 135 -340 Q 135 -291 143.5 -242 Q 152 -193 173.5 -148.5 Q 195 -104 230 -68 Q 265 -32 309 -9.5 Q 353 13 402 22 Q 451 31 500 31 Z " id="path63"/>
<path d="M 501 -115 Q 480 -115 459.5 -121.5 Q 439 -128 424 -143 Q 409 -158 400.5 -178 Q 392 -198 389 -219 L 388 -226 L 450 -226 L 451 -224 Q 452 -214 455.5 -204.5 Q 459 -195 465.5 -187 Q 472 -179 481.5 -175 Q 491 -171 501 -171 Q 516 -171 527.5 -180.5 Q 539 -190 544.5 -203.5 Q 550 -217 552 -231.5 Q 554 -246 554 -261 Q 554 -275 552.5 -289.5 Q 551 -304 545.5 -317.5 Q 540 -331 528.5 -340.5 Q 517 -350 503 -350 Q 492 -350 482.5 -346 Q 473 -342 467 -334 Q 461 -326 458 -316 Q 455 -306 455 -296 L 393 -296 L 393 -560 L 600 -560 L 600 -504 L 455 -504 L 455 -398 Q 466 -403 478 -405 Q 490 -407 503 -407 Q 520 -407 537 -402 Q 554 -397 568 -386.5 Q 582 -376 591.5 -361 Q 601 -346 606.5 -329.5 Q 612 -313 614 -295.5 Q 616 -278 616 -261 Q 616 -243 614 -225.5 Q 612 -208 606.5 -191.5 Q 601 -175 591 -160 Q 581 -145 567 -134.5 Q 553 -124 536 -119.5 Q 519 -115 501 -115 Z M 500 87 Q 443 87 386 77 Q 329 67 278 41.5 Q 227 16 185.5 -25.5 Q 144 -67 118.5 -118 Q 93 -169 83 -226 Q 73 -283 73 -340 Q 73 -397 83 -454 Q 93 -511 118.5 -562 Q 144 -613 185.5 -654.5 Q 227 -696 278 -721.5 Q 329 -747 386 -757 Q 443 -767 500 -767 Q 557 -767 614 -757 Q 671 -747 722 -721.5 Q 773 -696 814.5 -654.5 Q 856 -613 881.5 -562 Q 907 -511 917 -454 Q 927 -397 927 -340 Q 927 -283 917 -226 Q 907 -169 881.5 -118 Q 856 -67 814.5 -25.5 Q 773 16 722 41.5 Q 671 67 614 77 Q 557 87 500 87 Z M 500 31 Q 549 31 598 22 Q 647 13 691 -9.5 Q 735 -32 770 -68 Q 805 -104 826.5 -148.5 Q 848 -193 856.5 -242 Q 865 -291 865 -340 Q 865 -389 856.5 -438 Q 848 -487 826.5 -531.5 Q 805 -576 770 -612 Q 735 -648 691 -670.5 Q 647 -693 598 -702 Q 549 -711 500 -711 Q 451 -711 402 -702 Q 353 -693 309 -670.5 Q 265 -648 230 -612 Q 195 -576 173.5 -531.5 Q 152 -487 143.5 -438 Q 135 -389 135 -340 Q 135 -291 143.5 -242 Q 152 -193 173.5 -148.5 Q 195 -104 230 -68 Q 265 -32 309 -9.5 Q 353 13 402 22 Q 451 31 500 31 Z " id="path64"/>
<path d="M 500 -115 Q 482 -115 464 -120.5 Q 446 -126 431.5 -137.5 Q 417 -149 407.5 -165 Q 398 -181 393 -198.5 Q 388 -216 386 -234.5 Q 384 -253 384 -272 Q 384 -295 388 -318 Q 392 -341 399.5 -363.5 Q 407 -386 416.5 -407 Q 426 -428 437 -449 L 437 -450 Q 438 -451 438 -451 Q 438 -451 438 -452 L 491 -560 L 559 -560 L 494 -427 Q 490 -418 485.5 -409.5 Q 481 -401 476 -392 Q 482 -394 488.5 -394.5 Q 495 -395 502 -395 Q 527 -395 551 -384 Q 575 -373 590 -352 Q 605 -331 610.5 -305.5 Q 616 -280 616 -255 Q 616 -238 614 -220.5 Q 612 -203 606 -187 Q 600 -171 590 -157 Q 580 -143 565.5 -133 Q 551 -123 534 -119 Q 517 -115 500 -115 Z M 500 -171 Q 514 -171 526 -179 Q 538 -187 544 -200 Q 550 -213 552 -227 Q 554 -241 554 -255 Q 554 -269 552 -283 Q 550 -297 544 -309.5 Q 538 -322 526.5 -330.5 Q 515 -339 501 -339 Q 486 -339 474 -330.5 Q 462 -322 456 -309.5 Q 450 -297 448 -283 Q 446 -269 446 -255 Q 446 -241 448 -227 Q 450 -213 456 -200 Q 462 -187 474 -179 Q 486 -171 500 -171 Z M 500 87 Q 443 87 386 77 Q 329 67 278 41.5 Q 227 16 185.5 -25.5 Q 144 -67 118.5 -118 Q 93 -169 83 -226 Q 73 -283 73 -340 Q 73 -397 83 -454 Q 93 -511 118.5 -562 Q 144 -613 185.5 -654.5 Q 227 -696 278 -721.5 Q 329 -747 386 -757 Q 443 -767 500 -767 Q 557 -767 614 -757 Q 671 -747 722 -721.5 Q 773 -696 814.5 -654.5 Q 856 -613 881.5 -562 Q 907 -511 917 -454 Q 927 -397 927 -340 Q 927 -283 917 -226 Q 907 -169 881.5 -118 Q 856 -67 814.5 -25.5 Q 773 16 722 41.5 Q 671 67 614 77 Q 557 87 500 87 Z M 500 31 Q 549 31 598 22 Q 647 13 691 -9.5 Q 735 -32 770 -68 Q 805 -104 826.5 -148.5 Q 848 -193 856.5 -242 Q 865 -291 865 -340 Q 865 -389 856.5 -438 Q 848 -487 826.5 -531.5 Q 805 -576 770 -612 Q 735 -648 691 -670.5 Q 647 -693 598 -702 Q 549 -711 500 -711 Q 451 -711 402 -702 Q 353 -693 309 -670.5 Q 265 -648 230 -612 Q 195 -576 173.5 -531.5 Q 152 -487 143.5 -438 Q 135 -389 135 -340 Q 135 -291 143.5 -242 Q 152 -193 173.5 -148.5 Q 195 -104 230 -68 Q 265 -32 309 -9.5 Q 353 13 402 22 Q 451 31 500 31 Z " id="path65"/>
<path d="M 433 -120 L 500 -344 L 547 -504 L 388 -504 L 388 -560 L 612 -560 L 612 -504 L 498 -120 Z M 500 87 Q 443 87 386 77 Q 329 67 278 41.5 Q 227 16 185.5 -25.5 Q 144 -67 118.5 -118 Q 93 -169 83 -226 Q 73 -283 73 -340 Q 73 -397 83 -454 Q 93 -511 118.5 -562 Q 144 -613 185.5 -654.5 Q 227 -696 278 -721.5 Q 329 -747 386 -757 Q 443 -767 500 -767 Q 557 -767 614 -757 Q 671 -747 722 -721.5 Q 773 -696 814.5 -654.5 Q 856 -613 881.5 -562 Q 907 -511 917 -454 Q 927 -397 927 -340 Q 927 -283 917 -226 Q 907 -169 881.5 -118 Q 856 -67 814.5 -25.5 Q 773 16 722 41.5 Q 671 67 614 77 Q 557 87 500 87 Z M 500 31 Q 549 31 598 22 Q 647 13 691 -9.5 Q 735 -32 770 -68 Q 805 -104 826.5 -148.5 Q 848 -193 856.5 -242 Q 865 -291 865 -340 Q 865 -389 856.5 -438 Q 848 -487 826.5 -531.5 Q 805 -576 770 -612 Q 735 -648 691 -670.5 Q 647 -693 598 -702 Q 549 -711 500 -711 Q 451 -711 402 -702 Q 353 -693 309 -670.5 Q 265 -648 230 -612 Q 195 -576 173.5 -531.5 Q 152 -487 143.5 -438 Q 135 -389 135 -340 Q 135 -291 143.5 -242 Q 152 -193 173.5 -148.5 Q 195 -104 230 -68 Q 265 -32 309 -9.5 Q 353 13 402 22 Q 451 31 500 31 Z " id="path66"/>
<path d="M 500 -115 Q 478 -115 456 -121 Q 434 -127 417.5 -141.5 Q 401 -156 392 -177 Q 383 -198 383 -221 Q 383 -239 389 -257 Q 395 -275 404.5 -291 Q 414 -307 427 -320.5 Q 440 -334 454 -346 Q 442 -358 430.5 -371 Q 419 -384 410.5 -398.5 Q 402 -413 397.5 -430 Q 393 -447 393 -464 Q 393 -484 400.5 -504.5 Q 408 -525 423 -539 Q 438 -553 458.5 -559 Q 479 -565 500 -565 Q 521 -565 541.5 -559 Q 562 -553 577 -539 Q 592 -525 599.5 -504.5 Q 607 -484 607 -464 Q 607 -447 602.5 -430 Q 598 -413 589.5 -398.5 Q 581 -384 569.5 -371 Q 558 -358 546 -346 Q 560 -334 573 -320.5 Q 586 -307 595.5 -291 Q 605 -275 611 -257 Q 617 -239 617 -221 Q 617 -198 608 -177 Q 599 -156 582.5 -141.5 Q 566 -127 544 -121 Q 522 -115 500 -115 Z M 500 -384 Q 509 -392 517 -400.5 Q 525 -409 531 -419 Q 537 -429 541 -440 Q 545 -451 545 -463 Q 545 -472 542 -481 Q 539 -490 533 -496.5 Q 527 -503 518 -506 Q 509 -509 500 -509 Q 491 -509 482 -506 Q 473 -503 467 -496.5 Q 461 -490 458 -481 Q 455 -472 455 -463 Q 455 -451 459 -440 Q 463 -429 469 -419 Q 475 -409 483 -400.5 Q 491 -392 500 -384 Z M 500 -171 Q 511 -171 521 -174 Q 531 -177 539 -184 Q 547 -191 550.5 -201 Q 554 -211 554 -222 Q 554 -235 549 -247.5 Q 544 -260 536.5 -270.5 Q 529 -281 519.5 -290.5 Q 510 -300 500 -308 Q 490 -300 480.5 -290.5 Q 471 -281 463.5 -270.5 Q 456 -260 451 -247.5 Q 446 -235 446 -222 Q 446 -211 449.5 -201 Q 453 -191 461 -184 Q 469 -177 479 -174 Q 489 -171 500 -171 Z M 500 87 Q 443 87 386 77 Q 329 67 278 41.5 Q 227 16 185.5 -25.5 Q 144 -67 118.5 -118 Q 93 -169 83 -226 Q 73 -283 73 -340 Q 73 -397 83 -454 Q 93 -511 118.5 -562 Q 144 -613 185.5 -654.5 Q 227 -696 278 -721.5 Q 329 -747 386 -757 Q 443 -767 500 -767 Q 557 -767 614 -757 Q 671 -747 722 -721.5 Q 773 -696 814.5 -654.5 Q 856 -613 881.5 -562 Q 907 -511 917 -454 Q 927 -397 927 -340 Q 927 -283 917 -226 Q 907 -169 881.5 -118 Q 856 -67 814.5 -25.5 Q 773 16 722 41.5 Q 671 67 614 77 Q 557 87 500 87 Z M 500 31 Q 549 31 598 22 Q 647 13 691 -9.5 Q 735 -32 770 -68 Q 805 -104 826.5 -148.5 Q 848 -193 856.5 -242 Q 865 -291 865 -340 Q 865 -389 856.5 -438 Q 848 -487 826.5 -531.5 Q 805 -576 770 -612 Q 735 -648 691 -670.5 Q 647 -693 598 -702 Q 549 -711 500 -711 Q 451 -711 402 -702 Q 353 -693 309 -670.5 Q 265 -648 230 -612 Q 195 -576 173.5 -531.5 Q 152 -487 143.5 -438 Q 135 -389 135 -340 Q 135 -291 143.5 -242 Q 152 -193 173.5 -148.5 Q 195 -104 230 -68 Q 265 -32 309 -9.5 Q 353 13 402 22 Q 451 31 500 31 Z " id="path67"/>
<path d="M 441 -120 L 506 -253 Q 510 -262 514.5 -270.5 Q 519 -279 524 -288 Q 518 -286 511.5 -285.5 Q 505 -285 498 -285 Q 473 -285 449 -296 Q 425 -307 410 -328 Q 395 -349 389.5 -374.5 Q 384 -400 384 -425 Q 384 -442 386 -459.5 Q 388 -477 394 -493 Q 400 -509 410 -523 Q 420 -537 434.5 -547 Q 449 -557 466 -561 Q 483 -565 500 -565 Q 518 -565 536 -559.5 Q 554 -554 568.5 -542.5 Q 583 -531 592.5 -515 Q 602 -499 607 -481.5 Q 612 -464 614 -445.5 Q 616 -427 616 -408 Q 616 -385 612 -362 Q 608 -339 600.5 -316.5 Q 593 -294 583.5 -273 Q 574 -252 563 -231 L 563 -230 Q 562 -229 562 -229 Q 562 -229 562 -228 L 509 -120 Z M 500 -341 Q 514 -341 526 -349.5 Q 538 -358 544 -370.5 Q 550 -383 552 -397 Q 554 -411 554 -425 Q 554 -439 552 -453 Q 550 -467 544 -480 Q 538 -493 526 -501 Q 514 -509 500 -509 Q 486 -509 474 -501 Q 462 -493 456 -480 Q 450 -467 448 -453 Q 446 -439 446 -425 Q 446 -411 448 -397 Q 450 -383 456 -370.5 Q 462 -358 473.5 -349.5 Q 485 -341 499 -341 Z M 500 87 Q 443 87 386 77 Q 329 67 278 41.5 Q 227 16 185.5 -25.5 Q 144 -67 118.5 -118 Q 93 -169 83 -226 Q 73 -283 73 -340 Q 73 -397 83 -454 Q 93 -511 118.5 -562 Q 144 -613 185.5 -654.5 Q 227 -696 278 -721.5 Q 329 -747 386 -757 Q 443 -767 500 -767 Q 557 -767 614 -757 Q 671 -747 722 -721.5 Q 773 -696 814.5 -654.5 Q 856 -613 881.5 -562 Q 907 -511 917 -454 Q 927 -397 927 -340 Q 927 -283 917 -226 Q 907 -169 881.5 -118 Q 856 -67 814.5 -25.5 Q 773 16 722 41.5 Q 671 67 614 77 Q 557 87 500 87 Z M 500 31 Q 549 31 598 22 Q 647 13 691 -9.5 Q 735 -32 770 -68 Q 805 -104 826.5 -148.5 Q 848 -193 856.5 -242 Q 865 -291 865 -340 Q 865 -389 856.5 -438 Q 848 -487 826.5 -531.5 Q 805 -576 770 -612 Q 735 -648 691 -670.5 Q 647 -693 598 -702 Q 549 -711 500 -711 Q 451 -711 402 -702 Q 353 -693 309 -670.5 Q 265 -648 230 -612 Q 195 -576 173.5 -531.5 Q 152 -487 143.5 -438 Q 135 -389 135 -340 Q 135 -291 143.5 -242 Q 152 -193 173.5 -148.5 Q 195 -104 230 -68 Q 265 -32 309 -9.5 Q 353 13 402 22 Q 451 31 500 31 Z " id="path68"/>
<path d="M 337 -120 L 337 -501 L 264 -443 L 233 -479 L 337 -560 L 399 -560 L 399 -120 Z M 650 -115 Q 634 -115 618 -118 Q 602 -121 588 -129 Q 574 -137 563 -149.5 Q 552 -162 545.5 -176.5 Q 539 -191 536.5 -207 Q 534 -223 534 -239 L 534 -441 Q 534 -457 536.5 -473 Q 539 -489 545.5 -503.5 Q 552 -518 563 -530.5 Q 574 -543 588 -551 Q 602 -559 618 -562 Q 634 -565 650 -565 Q 666 -565 682 -562 Q 698 -559 712 -551 Q 726 -543 737 -530.5 Q 748 -518 754.5 -503.5 Q 761 -489 763.5 -473 Q 766 -457 766 -440 L 766 -239 Q 766 -223 763.5 -207 Q 761 -191 754.5 -176.5 Q 748 -162 737 -149.5 Q 726 -137 712 -129 Q 698 -121 682 -118 Q 666 -115 650 -115 Z M 596 -325 L 704 -411 L 704 -440 Q 704 -453 701.5 -465.5 Q 699 -478 692 -488 Q 685 -498 673.5 -503.5 Q 662 -509 650 -509 Q 638 -509 626.5 -503.5 Q 615 -498 608 -488 Q 601 -478 598.5 -465.5 Q 596 -453 596 -440 Z M 650 -171 Q 662 -171 673.5 -176.5 Q 685 -182 692 -192 Q 699 -202 701.5 -214.5 Q 704 -227 704 -239 L 704 -355 L 596 -269 L 596 -239 Q 596 -227 598.5 -214.5 Q 601 -202 608 -192 Q 615 -182 626.5 -176.5 Q 638 -171 650 -171 Z M 500 87 Q 443 87 386 77 Q 329 67 278 41.5 Q 227 16 185.5 -25.5 Q 144 -67 118.5 -118 Q 93 -169 83 -226 Q 73 -283 73 -340 Q 73 -397 83 -454 Q 93 -511 118.5 -562 Q 144 -613 185.5 -654.5 Q 227 -696 278 -721.5 Q 329 -747 386 -757 Q 443 -767 500 -767 Q 557 -767 614 -757 Q 671 -747 722 -721.5 Q 773 -696 814.5 -654.5 Q 856 -613 881.5 -562 Q 907 -511 917 -454 Q 927 -397 927 -340 Q 927 -283 917 -226 Q 907 -169 881.5 -118 Q 856 -67 814.5 -25.5 Q 773 16 722 41.5 Q 671 67 614 77 Q 557 87 500 87 Z M 500 31 Q 549 31 598 22 Q 647 13 691 -9.5 Q 735 -32 770 -68 Q 805 -104 826.5 -148.5 Q 848 -193 856.5 -242 Q 865 -291 865 -340 Q 865 -389 856.5 -438 Q 848 -487 826.5 -531.5 Q 805 -576 770 -612 Q 735 -648 691 -670.5 Q 647 -693 598 -702 Q 549 -711 500 -711 Q 451 -711 402 -702 Q 353 -693 309 -670.5 Q 265 -648 230 -612 Q 195 -576 173.5 -531.5 Q 152 -487 143.5 -438 Q 135 -389 135 -340 Q 135 -291 143.5 -242 Q 152 -193 173.5 -148.5 Q 195 -104 230 -68 Q 265 -32 309 -9.5 Q 353 13 402 22 Q 451 31 500 31 Z " id="path69"/>
<path d="M 765 -147 L 557 -147 L 658 -247 L 58 -247 L 58 -433 L 658 -433 L 557 -533 L 765 -533 L 958 -340 Z " id="path70"/>
<path d="M 533 69 Q 514 69 495.5 62.5 Q 477 56 462.5 43.5 Q 448 31 439 13.5 Q 430 -4 430 -23 Q 430 -42 438.5 -59 Q 447 -76 461 -89 L 619 -247 L 150 -247 Q 131 -247 112.5 -253.5 Q 94 -260 79.5 -272.5 Q 65 -285 56.5 -303 Q 48 -321 48 -340 Q 48 -359 56.5 -377 Q 65 -395 79.5 -407.5 Q 94 -420 112.5 -426.5 Q 131 -433 150 -433 L 619 -433 L 461 -591 Q 447 -604 438.5 -621 Q 430 -638 430 -657 Q 430 -676 439 -693.5 Q 448 -711 462.5 -723.5 Q 477 -736 495.5 -742.5 Q 514 -749 533 -749 Q 555 -749 576.5 -740 Q 598 -731 613 -715 L 922 -405 Q 936 -393 944 -376 Q 952 -359 952 -340 Q 952 -321 944 -304 Q 936 -287 922 -275 L 613 35 Q 598 51 576.5 60 Q 555 69 533 69 Z " id="path71"/>
<path d="M 756 -137 L 756 -305 L 58 -305 L 58 -375 L 756 -375 L 756 -543 L 958 -340 Z " id="path72"/>
<path d="M 659 -135 L 659 -246 L 58 -246 L 58 -434 L 659 -434 L 659 -545 L 958 -340 Z " id="path73"/>
<path d="M 179 -19 L 339 -340 L 179 -661 L 821 -340 Z M 370 -340 L 761 -340 L 239 -601 Z " id="path74"/>
<path d="M 179 -19 L 339 -340 L 179 -661 L 821 -340 Z M 239 -79 L 761 -340 L 370 -340 Z " id="path75"/>
<path d="M 179 -19 L 339 -340 L 179 -661 L 821 -340 Z " id="path76"/>
<path d="M 659 -135 L 659 -246 L 152 -246 Q 138 -246 124 -250 Q 110 -254 99 -263 Q 88 -272 79 -283 Q 70 -294 63.5 -306.5 Q 57 -319 51.5 -332.5 Q 46 -346 42 -359.5 Q 38 -373 35 -387 Q 32 -401 30 -415 Q 28 -429 26.5 -443 Q 25 -457 24 -471.5 Q 23 -486 23 -500 Q 23 -514 23 -529 L 77 -529 Q 77 -511 80.5 -494 Q 84 -477 93.5 -463 Q 103 -449 119 -441.5 Q 135 -434 152 -434 L 659 -434 L 659 -545 L 958 -340 Z " id="path77"/>
<path d="M 659 -135 L 659 -246 L 152 -246 Q 135 -246 119 -238.5 Q 103 -231 93.5 -217 Q 84 -203 80.5 -186 Q 77 -169 77 -151 L 23 -151 Q 23 -166 23 -180 Q 23 -194 24 -208.5 Q 25 -223 26.5 -237 Q 28 -251 30 -265 Q 32 -279 35 -293 Q 38 -307 42 -320.5 Q 46 -334 51.5 -347.5 Q 57 -361 63.5 -373.5 Q 70 -386 79 -397 Q 88 -408 99 -417 Q 110 -426 124 -430 Q 138 -434 152 -434 L 659 -434 L 659 -545 L 958 -340 Z " id="path78"/>
</defs>
<g>
<g data-source-text="0" fill="#dee4e3" transform="translate(174 41.292) rotate(0) scale(0.023999998)">
<use href="#path1" transform="translate(0 0)"/>
</g>
</g>
<g>
<g data-source-text="1" fill="#dee4e3" transform="translate(246 41.292) rotate(0) scale(0.023999998)">
<use href="#path2" transform="translate(0 0)"/>
</g>
</g>
<g>
<g data-source-text="2" fill="#dee4e3" transform="translate(318 41.292) rotate(0) scale(0.023999998)">
<use href="#path3" transform="translate(0 0)"/>
</g>
</g>
<g>
<g data-source-text="3" fill="#dee4e3" transform="translate(390 41.292) rotate(0) scale(0.023999998)">
<use href="#path4" transform="translate(0 0)"/>
</g>
</g>
<g>
<g data-source-text="4" fill="#dee4e3" transform="translate(462 41.292) rotate(0) scale(0.023999998)">
<use href="#path5" transform="translate(0 0)"/>
</g>
</g>
<g>
<g data-source-text="5" fill="#dee4e3" transform="translate(534 41.292) rotate(0) scale(0.023999998)">
<use href="#path6" transform="translate(0 0)"/>
</g>
</g>
<g>
<g data-source-text="6" fill="#dee4e3" transform="translate(606 41.292) rotate(0) scale(0.023999998)">
<use href="#path7" transform="translate(0 0)"/>
</g>
</g>
<g>
<g data-source-text="7" fill="#dee4e3" transform="translate(678 41.292) rotate(0) scale(0.023999998)">
<use href="#path8" transform="translate(0 0)"/>
</g>
</g>
<g>
<g data-source-text="8" fill="#dee4e3" transform="translate(750 41.292) rotate(0) scale(0.023999998)">
<use href="#path9" transform="translate(0 0)"/>
</g>
</g>
<g>
<g data-source-text="9" fill="#dee4e3" transform="translate(822 41.292) rotate(0) scale(0.023999998)">
<use href="#path10" transform="translate(0 0)"/>
</g>
</g>
<g>
<g data-source-text="A" fill="#dee4e3" transform="translate(894 41.292) rotate(0) scale(0.023999998)">
<use href="#path11" transform="translate(0 0)"/>
</g>
</g>
<g>
<g data-source-text="B" fill="#dee4e3" transform="translate(966 41.292) rotate(0) scale(0.023999998)">
<use href="#path12" transform="translate(0 0)"/>
</g>
</g>
<g>
<g data-source-text="C" fill="#dee4e3" transform="translate(1038 41.292) rotate(0) scale(0.023999998)">
<use href="#path13" transform="translate(0 0)"/>
</g>
</g>
<g>
<g data-source-text="D" fill="#dee4e3" transform="translate(1110 41.292) rotate(0) scale(0.023999998)">
<use href="#path14" transform="translate(0 0)"/>
</g>
</g>
<g>
<g data-source-text="E" fill="#dee4e3" transform="translate(1182 41.292) rotate(0) scale(0.023999998)">
<use href="#path15" transform="translate(0 0)"/>
</g>
</g>
<g>
<g data-source-text="F" fill="#dee4e3" transform="translate(1254 41.292) rotate(0) scale(0.023999998)">
<use href="#path16" transform="translate(0 0)"/>
</g>
</g>
<g>
<g data-source-text="U+2700" fill="#dee4e3" transform="translate(36 113.292) rotate(0) scale(0.023999998)">
<use href="#path17" transform="translate(0 0)"/>
<use href="#path18" transform="translate(500 0)"/>
<use href="#path3" transform="translate(1000 0)"/>
<use href="#path8" transform="translate(1500 0)"/>
<use href="#path1" transform="translate(2000 0)"/>
<use href="#path1" transform="translate(2500 0)"/>
</g>
</g>
<g>
<g data-source-text="" fill="#dee4e340" transform="translate(168 118.584) rotate(0) scale(0.047999997)">
<use href="#path19" transform="translate(0 0)"/>
</g>
</g>
<g>
<g data-source-text="" fill="#dee4e340" transform="translate(240 118.584) rotate(0) scale(0.047999997)">
<use href="#path19" transform="translate(0 0)"/>
</g>
</g>
<g>
<g data-source-text="" fill="#dee4e340" transform="translate(312 118.584) rotate(0) scale(0.047999997)">
<use href="#path19" transform="translate(0 0)"/>
</g>
</g>
<g>
<g data-source-text="" fill="#dee4e340" transform="translate(384 118.584) rotate(0) scale(0.047999997)">
<use href="#path19" transform="translate(0 0)"/>
</g>
</g>
<g>
<g data-source-text="" fill="#dee4e340" transform="translate(456 118.584) rotate(0) scale(0.047999997)">
<use href="#path19" transform="translate(0 0)"/>
</g>
</g>
<g>
<g data-source-text="" fill="#dee4e340" transform="translate(528 118.584) rotate(0) scale(0.047999997)">
<use href="#path19" transform="translate(0 0)"/>
</g>
</g>
<g>
<g data-source-text="" fill="#dee4e340" transform="translate(600 118.584) rotate(0) scale(0.047999997)">
<use href="#path19" transform="translate(0 0)"/>
</g>
</g>
<g>
<g data-source-text="" fill="#dee4e340" transform="translate(672 118.584) rotate(0) scale(0.047999997)">
<use href="#path19" transform="translate(0 0)"/>
</g>
</g>
<g>
<g data-source-text="" fill="#dee4e340" transform="translate(744 118.584) rotate(0) scale(0.047999997)">
<use href="#path19" transform="translate(0 0)"/>
</g>
</g>
<g>
<g data-source-text="" fill="#dee4e340" transform="translate(816 118.584) rotate(0) scale(0.047999997)">
<use href="#path19" transform="translate(0 0)"/>
</g>
</g>
<g>
<g data-source-text="" fill="#dee4e340" transform="translate(888 118.584) rotate(0) scale(0.047999997)">
<use href="#path19" transform="translate(0 0)"/>
</g>
</g>
<g>
<g data-source-text="" fill="#dee4e340" transform="translate(960 118.584) rotate(0) scale(0.047999997)">
<use href="#path19" transform="translate(0 0)"/>
</g>
</g>
<g>
<g data-source-text="" fill="#dee4e340" transform="translate(1032 118.584) rotate(0) scale(0.047999997)">
<use href="#path19" transform="translate(0 0)"/>
</g>
</g>
<g>
<g data-source-text="" fill="#dee4e340" transform="translate(1104 118.584) rotate(0) scale(0.047999997)">
<use href="#path19" transform="translate(0 0)"/>
</g>
</g>
<g>
<g data-source-text="" fill="#dee4e340" transform="translate(1176 118.584) rotate(0) scale(0.047999997)">
<use href="#path19" transform="translate(0 0)"/>
</g>
</g>
<g>
<g data-source-text="" fill="#dee4e340" transform="translate(1248 118.584) rotate(0) scale(0.047999997)">
<use href="#path19" transform="translate(0 0)"/>
</g>
</g>
<g>
<g data-source-text="U+2710" fill="#dee4e3" transform="translate(36 185.292) rotate(0) scale(0.023999998)">
<use href="#path17" transform="translate(0 0)"/>
<use href="#path18" transform="translate(500 0)"/>
<use href="#path3" transform="translate(1000 0)"/>
<use href="#path8" transform="translate(1500 0)"/>
<use href="#path2" transform="translate(2000 0)"/>
<use href="#path1" transform="translate(2500 0)"/>
</g>
</g>
<g>
<g data-source-text="" fill="#dee4e340" transform="translate(168 190.584) rotate(0) scale(0.047999997)">
<use href="#path19" transform="translate(0 0)"/>
</g>
</g>
<g>
<g data-source-text="" fill="#dee4e340" transform="translate(240 190.584) rotate(0) scale(0.047999997)">
<use href="#path19" transform="translate(0 0)"/>
</g>
</g>
<g>
<g data-source-text="" fill="#dee4e340" transform="translate(312 190.584) rotate(0) scale(0.047999997)">
<use href="#path19" transform="translate(0 0)"/>
</g>
</g>
<g>
<g data-source-text="" fill="#dee4e3" transform="translate(372 190.584) rotate(0) scale(0.047999997)">
<use href="#path20" transform="translate(0 0)"/>
</g>
</g>
<g>
<g data-source-text="" fill="#dee4e3" transform="translate(444 190.584) rotate(0) scale(0.047999997)">
<use href="#path21" transform="translate(0 0)"/>
</g>
</g>
<g>
<g data-source-text="" fill="#dee4e3" transform="translate(516 190.584) rotate(0) scale(0.047999997)">
<use href="#path22" transform="translate(0 0)"/>
</g>
</g>
<g>
<g data-source-text="" fill="#dee4e3" transform="translate(588 190.584) rotate(0) scale(0.047999997)">
<use href="#path23" transform="translate(0 0)"/>
</g>
</g>
<g>
<g data-source-text="" fill="#dee4e3" transform="translate(660 190.584) rotate(0) scale(0.047999997)">
<use href="#path24" transform="translate(0 0)"/>
</g>
</g>
<g>
<g data-source-text="" fill="#dee4e3" transform="translate(732 190.584) rotate(0) scale(0.047999997)">
<use href="#path25" transform="translate(0 0)"/>
</g>
</g>
<g>
<g data-source-text="" fill="#dee4e340" transform="translate(816 190.584) rotate(0) scale(0.047999997)">
<use href="#path19" transform="translate(0 0)"/>
</g>
</g>
<g>
<g data-source-text="" fill="#dee4e3" transform="translate(876 190.584) rotate(0) scale(0.047999997)">
<use href="#path26" transform="translate(0 0)"/>
</g>
</g>
<g>
<g data-source-text="" fill="#dee4e340" transform="translate(960 190.584) rotate(0) scale(0.047999997)">
<use href="#path19" transform="translate(0 0)"/>
</g>
</g>
<g>
<g data-source-text="" fill="#dee4e340" transform="translate(1032 190.584) rotate(0) scale(0.047999997)">
<use href="#path19" transform="translate(0 0)"/>
</g>
</g>
<g>
<g data-source-text="" fill="#dee4e3" transform="translate(1092 190.584) rotate(0) scale(0.047999997)">
<use href="#path27" transform="translate(0 0)"/>
</g>
</g>
<g>
<g data-source-text="" fill="#dee4e340" transform="translate(1176 190.584) rotate(0) scale(0.047999997)">
<use href="#path19" transform="translate(0 0)"/>
</g>
</g>
<g>
<g data-source-text="" fill="#dee4e340" transform="translate(1248 190.584) rotate(0) scale(0.047999997)">
<use href="#path19" transform="translate(0 0)"/>
</g>
</g>
<g>
<g data-source-text="U+2720" fill="#dee4e3" transform="translate(36 257.292) rotate(0) scale(0.023999998)">
<use href="#path17" transform="translate(0 0)"/>
<use href="#path18" transform="translate(500 0)"/>
<use href="#path3" transform="translate(1000 0)"/>
<use href="#path8" transform="translate(1500 0)"/>
<use href="#path3" transform="translate(2000 0)"/>
<use href="#path1" transform="translate(2500 0)"/>
</g>
</g>
<g>
<g data-source-text="" fill="#dee4e340" transform="translate(168 262.584) rotate(0) scale(0.047999997)">
<use href="#path19" transform="translate(0 0)"/>
</g>
</g>
<g>
<g data-source-text="" fill="#dee4e340" transform="translate(240 262.584) rotate(0) scale(0.047999997)">
<use href="#path19" transform="translate(0 0)"/>
</g>
</g>
<g>
<g data-source-text="" fill="#dee4e340" transform="translate(312 262.584) rotate(0) scale(0.047999997)">
<use href="#path19" transform="translate(0 0)"/>
</g>
</g>
<g>
<g data-source-text="" fill="#dee4e340" transform="translate(384 262.584) rotate(0) scale(0.047999997)">
<use href="#path19" transform="translate(0 0)"/>
</g>
</g>
<g>
<g data-source-text="" fill="#dee4e340" transform="translate(456 262.584) rotate(0) scale(0.047999997)">
<use href="#path19" transform="translate(0 0)"/>
</g>
</g>
<g>
<g data-source-text="" fill="#dee4e340" transform="translate(528 262.584) rotate(0) scale(0.047999997)">
<use href="#path19" transform="translate(0 0)"/>
</g>
</g>
<g>
<g data-source-text="" fill="#dee4e3" transform="translate(588 262.584) rotate(0) scale(0.047999997)">
<use href="#path28" transform="translate(0 0)"/>
</g>
</g>
<g>
<g data-source-text="" fill="#dee4e3" transform="translate(660 262.584) rotate(0) scale(0.047999997)">
<use href="#path29" transform="translate(0 0)"/>
</g>
</g>
<g>
<g data-source-text="" fill="#dee4e340" transform="translate(744 262.584) rotate(0) scale(0.047999997)">
<use href="#path19" transform="translate(0 0)"/>
</g>
</g>
<g>
<g data-source-text="" fill="#dee4e340" transform="translate(816 262.584) rotate(0) scale(0.047999997)">
<use href="#path19" transform="translate(0 0)"/>
</g>
</g>
<g>
<g data-source-text="" fill="#dee4e340" transform="translate(888 262.584) rotate(0) scale(0.047999997)">
<use href="#path19" transform="translate(0 0)"/>
</g>
</g>
<g>
<g data-source-text="" fill="#dee4e340" transform="translate(960 262.584) rotate(0) scale(0.047999997)">
<use href="#path19" transform="translate(0 0)"/>
</g>
</g>
<g>
<g data-source-text="" fill="#dee4e340" transform="translate(1032 262.584) rotate(0) scale(0.047999997)">
<use href="#path19" transform="translate(0 0)"/>
</g>
</g>
<g>
<g data-source-text="" fill="#dee4e340" transform="translate(1104 262.584) rotate(0) scale(0.047999997)">
<use href="#path19" transform="translate(0 0)"/>
</g>
</g>
<g>
<g data-source-text="" fill="#dee4e340" transform="translate(1176 262.584) rotate(0) scale(0.047999997)">
<use href="#path19" transform="translate(0 0)"/>
</g>
</g>
<g>
<g data-source-text="" fill="#dee4e340" transform="translate(1248 262.584) rotate(0) scale(0.047999997)">
<use href="#path19" transform="translate(0 0)"/>
</g>
</g>
<g>
<g data-source-text="U+2730" fill="#dee4e3" transform="translate(36 329.292) rotate(0) scale(0.023999998)">
<use href="#path17" transform="translate(0 0)"/>
<use href="#path18" transform="translate(500 0)"/>
<use href="#path3" transform="translate(1000 0)"/>
<use href="#path8" transform="translate(1500 0)"/>
<use href="#path4" transform="translate(2000 0)"/>
<use href="#path1" transform="translate(2500 0)"/>
</g>
</g>
<g>
<g data-source-text="" fill="#dee4e340" transform="translate(168 334.584) rotate(0) scale(0.047999997)">
<use href="#path19" transform="translate(0 0)"/>
</g>
</g>
<g>
<g data-source-text="" fill="#dee4e3" transform="translate(228 334.584) rotate(0) scale(0.047999997)">
<use href="#path30" transform="translate(0 0)"/>
</g>
</g>
<g>
<g data-source-text="" fill="#dee4e340" transform="translate(312 334.584) rotate(0) scale(0.047999997)">
<use href="#path19" transform="translate(0 0)"/>
</g>
</g>
<g>
<g data-source-text="" fill="#dee4e3" transform="translate(372 334.584) rotate(0) scale(0.047999997)">
<use href="#path31" transform="translate(0 0)"/>
</g>
</g>
<g>
<g data-source-text="" fill="#dee4e3" transform="translate(444 334.584) rotate(0) scale(0.047999997)">
<use href="#path32" transform="translate(0 0)"/>
</g>
</g>
<g>
<g data-source-text="" fill="#dee4e340" transform="translate(528 334.584) rotate(0) scale(0.047999997)">
<use href="#path19" transform="translate(0 0)"/>
</g>
</g>
<g>
<g data-source-text="" fill="#dee4e3" transform="translate(588 334.584) rotate(0) scale(0.047999997)">
<use href="#path33" transform="translate(0 0)"/>
</g>
</g>
<g>
<g data-source-text="" fill="#dee4e3" transform="translate(660 334.584) rotate(0) scale(0.047999997)">
<use href="#path34" transform="translate(0 0)"/>
</g>
</g>
<g>
<g data-source-text="" fill="#dee4e3" transform="translate(732 334.584) rotate(0) scale(0.047999997)">
<use href="#path35" transform="translate(0 0)"/>
</g>
</g>
<g>
<g data-source-text="" fill="#dee4e3" transform="translate(804 334.584) rotate(0) scale(0.047999997)">
<use href="#path36" transform="translate(0 0)"/>
</g>
</g>
<g>
<g data-source-text="" fill="#dee4e3" transform="translate(876 334.584) rotate(0) scale(0.047999997)">
<use href="#path37" transform="translate(0 0)"/>
</g>
</g>
<g>
<g data-source-text="" fill="#dee4e340" transform="translate(960 334.584) rotate(0) scale(0.047999997)">
<use href="#path19" transform="translate(0 0)"/>
</g>
</g>
<g>
<g data-source-text="" fill="#dee4e340" transform="translate(1032 334.584) rotate(0) scale(0.047999997)">
<use href="#path19" transform="translate(0 0)"/>
</g>
</g>
<g>
<g data-source-text="" fill="#dee4e340" transform="translate(1104 334.584) rotate(0) scale(0.047999997)">
<use href="#path19" transform="translate(0 0)"/>
</g>
</g>
<g>
<g data-source-text="" fill="#dee4e340" transform="translate(1176 334.584) rotate(0) scale(0.047999997)">
<use href="#path19" transform="translate(0 0)"/>
</g>
</g>
<g>
<g data-source-text="" fill="#dee4e340" transform="translate(1248 334.584) rotate(0) scale(0.047999997)">
<use href="#path19" transform="translate(0 0)"/>
</g>
</g>
<g>
<g data-source-text="U+2740" fill="#dee4e3" transform="translate(36 401.292) rotate(0) scale(0.023999998)">
<use href="#path17" transform="translate(0 0)"/>
<use href="#path18" transform="translate(500 0)"/>
<use href="#path3" transform="translate(1000 0)"/>
<use href="#path8" transform="translate(1500 0)"/>
<use href="#path5" transform="translate(2000 0)"/>
<use href="#path1" transform="translate(2500 0)"/>
</g>
</g>
<g>
<g data-source-text="" fill="#dee4e340" transform="translate(168 406.584) rotate(0) scale(0.047999997)">
<use href="#path19" transform="translate(0 0)"/>
</g>
</g>
<g>
<g data-source-text="" fill="#dee4e340" transform="translate(240 406.584) rotate(0) scale(0.047999997)">
<use href="#path19" transform="translate(0 0)"/>
</g>
</g>
<g>
<g data-source-text="" fill="#dee4e340" transform="translate(312 406.584) rotate(0) scale(0.047999997)">
<use href="#path19" transform="translate(0 0)"/>
</g>
</g>
<g>
<g data-source-text="" fill="#dee4e340" transform="translate(384 406.584) rotate(0) scale(0.047999997)">
<use href="#path19" transform="translate(0 0)"/>
</g>
</g>
<g>
<g data-source-text="" fill="#dee4e340" transform="translate(456 406.584) rotate(0) scale(0.047999997)">
<use href="#path19" transform="translate(0 0)"/>
</g>
</g>
<g>
<g data-source-text="" fill="#dee4e340" transform="translate(528 406.584) rotate(0) scale(0.047999997)">
<use href="#path19" transform="translate(0 0)"/>
</g>
</g>
<g>
<g data-source-text="" fill="#dee4e340" transform="translate(600 406.584) rotate(0) scale(0.047999997)">
<use href="#path19" transform="translate(0 0)"/>
</g>
</g>
<g>
<g data-source-text="" fill="#dee4e340" transform="translate(672 406.584) rotate(0) scale(0.047999997)">
<use href="#path19" transform="translate(0 0)"/>
</g>
</g>
<g>
<g data-source-text="" fill="#dee4e340" transform="translate(744 406.584) rotate(0) scale(0.047999997)">
<use href="#path19" transform="translate(0 0)"/>
</g>
</g>
<g>
<g data-source-text="" fill="#dee4e340" transform="translate(816 406.584) rotate(0) scale(0.047999997)">
<use href="#path19" transform="translate(0 0)"/>
</g>
</g>
<g>
<g data-source-text="" fill="#dee4e340" transform="translate(888 406.584) rotate(0) scale(0.047999997)">
<use href="#path19" transform="translate(0 0)"/>
</g>
</g>
<g>
<g data-source-text="" fill="#dee4e340" transform="translate(960 406.584) rotate(0) scale(0.047999997)">
<use href="#path19" transform="translate(0 0)"/>
</g>
</g>
<g>
<g data-source-text="" fill="#dee4e3" transform="translate(1020 406.584) rotate(0) scale(0.047999997)">
<use href="#path38" transform="translate(0 0)"/>
</g>
</g>
<g>
<g data-source-text="" fill="#dee4e340" transform="translate(1104 406.584) rotate(0) scale(0.047999997)">
<use href="#path19" transform="translate(0 0)"/>
</g>
</g>
<g>
<g data-source-text="" fill="#dee4e340" transform="translate(1176 406.584) rotate(0) scale(0.047999997)">
<use href="#path19" transform="translate(0 0)"/>
</g>
</g>
<g>
<g data-source-text="" fill="#dee4e340" transform="translate(1248 406.584) rotate(0) scale(0.047999997)">
<use href="#path19" transform="translate(0 0)"/>
</g>
</g>
<g>
<g data-source-text="U+2750" fill="#dee4e3" transform="translate(36 473.292) rotate(0) scale(0.023999998)">
<use href="#path17" transform="translate(0 0)"/>
<use href="#path18" transform="translate(500 0)"/>
<use href="#path3" transform="translate(1000 0)"/>
<use href="#path8" transform="translate(1500 0)"/>
<use href="#path6" transform="translate(2000 0)"/>
<use href="#path1" transform="translate(2500 0)"/>
</g>
</g>
<g>
<g data-source-text="" fill="#dee4e340" transform="translate(168 478.584) rotate(0) scale(0.047999997)">
<use href="#path19" transform="translate(0 0)"/>
</g>
</g>
<g>
<g data-source-text="" fill="#dee4e340" transform="translate(240 478.584) rotate(0) scale(0.047999997)">
<use href="#path19" transform="translate(0 0)"/>
</g>
</g>
<g>
<g data-source-text="" fill="#dee4e340" transform="translate(312 478.584) rotate(0) scale(0.047999997)">
<use href="#path19" transform="translate(0 0)"/>
</g>
</g>
<g>
<g data-source-text="" fill="#dee4e340" transform="translate(384 478.584) rotate(0) scale(0.047999997)">
<use href="#path19" transform="translate(0 0)"/>
</g>
</g>
<g>
<g data-source-text="" fill="#dee4e340" transform="translate(456 478.584) rotate(0) scale(0.047999997)">
<use href="#path19" transform="translate(0 0)"/>
</g>
</g>
<g>
<g data-source-text="" fill="#dee4e340" transform="translate(528 478.584) rotate(0) scale(0.047999997)">
<use href="#path19" transform="translate(0 0)"/>
</g>
</g>
<g>
<g data-source-text="" fill="#dee4e3" transform="translate(588 478.584) rotate(0) scale(0.047999997)">
<use href="#path39" transform="translate(0 0)"/>
</g>
</g>
<g>
<g data-source-text="" fill="#dee4e340" transform="translate(672 478.584) rotate(0) scale(0.047999997)">
<use href="#path19" transform="translate(0 0)"/>
</g>
</g>
<g>
<g data-source-text="" fill="#dee4e3" transform="translate(732 478.584) rotate(0) scale(0.047999997)">
<use href="#path40" transform="translate(0 0)"/>
</g>
</g>
<g>
<g data-source-text="" fill="#dee4e3" transform="translate(804 478.584) rotate(0) scale(0.047999997)">
<use href="#path41" transform="translate(0 0)"/>
</g>
</g>
<g>
<g data-source-text="" fill="#dee4e3" transform="translate(876 478.584) rotate(0) scale(0.047999997)">
<use href="#path42" transform="translate(0 0)"/>
</g>
</g>
<g>
<g data-source-text="" fill="#dee4e340" transform="translate(960 478.584) rotate(0) scale(0.047999997)">
<use href="#path19" transform="translate(0 0)"/>
</g>
</g>
<g>
<g data-source-text="" fill="#dee4e340" transform="translate(1032 478.584) rotate(0) scale(0.047999997)">
<use href="#path19" transform="translate(0 0)"/>
</g>
</g>
<g>
<g data-source-text="" fill="#dee4e340" transform="translate(1104 478.584) rotate(0) scale(0.047999997)">
<use href="#path19" transform="translate(0 0)"/>
</g>
</g>
<g>
<g data-source-text="" fill="#dee4e340" transform="translate(1176 478.584) rotate(0) scale(0.047999997)">
<use href="#path19" transform="translate(0 0)"/>
</g>
</g>
<g>
<g data-source-text="" fill="#dee4e340" transform="translate(1248 478.584) rotate(0) scale(0.047999997)">
<use href="#path19" transform="translate(0 0)"/>
</g>
</g>
<g>
<g data-source-text="U+2760" fill="#dee4e3" transform="translate(36 545.292) rotate(0) scale(0.023999998)">
<use href="#path17" transform="translate(0 0)"/>
<use href="#path18" transform="translate(500 0)"/>
<use href="#path3" transform="translate(1000 0)"/>
<use href="#path8" transform="translate(1500 0)"/>
<use href="#path7" transform="translate(2000 0)"/>
<use href="#path1" transform="translate(2500 0)"/>
</g>
</g>
<g>
<g data-source-text="" fill="#dee4e340" transform="translate(168 550.584) rotate(0) scale(0.047999997)">
<use href="#path19" transform="translate(0 0)"/>
</g>
</g>
<g>
<g data-source-text="" fill="#dee4e340" transform="translate(240 550.584) rotate(0) scale(0.047999997)">
<use href="#path19" transform="translate(0 0)"/>
</g>
</g>
<g>
<g data-source-text="" fill="#dee4e340" transform="translate(312 550.584) rotate(0) scale(0.047999997)">
<use href="#path19" transform="translate(0 0)"/>
</g>
</g>
<g>
<g data-source-text="" fill="#dee4e340" transform="translate(384 550.584) rotate(0) scale(0.047999997)">
<use href="#path19" transform="translate(0 0)"/>
</g>
</g>
<g>
<g data-source-text="" fill="#dee4e3" transform="translate(444 550.584) rotate(0) scale(0.047999997)">
<use href="#path43" transform="translate(0 0)"/>
</g>
</g>
<g>
<g data-source-text="" fill="#dee4e340" transform="translate(528 550.584) rotate(0) scale(0.047999997)">
<use href="#path19" transform="translate(0 0)"/>
</g>
</g>
<g>
<g data-source-text="" fill="#dee4e340" transform="translate(600 550.584) rotate(0) scale(0.047999997)">
<use href="#path19" transform="translate(0 0)"/>
</g>
</g>
<g>
<g data-source-text="" fill="#dee4e340" transform="translate(672 550.584) rotate(0) scale(0.047999997)">
<use href="#path19" transform="translate(0 0)"/>
</g>
</g>
<g>
<g data-source-text="" fill="#dee4e340" transform="translate(744 550.584) rotate(0) scale(0.047999997)">
<use href="#path19" transform="translate(0 0)"/>
</g>
</g>
<g>
<g data-source-text="" fill="#dee4e340" transform="translate(816 550.584) rotate(0) scale(0.047999997)">
<use href="#path19" transform="translate(0 0)"/>
</g>
</g>
<g>
<g data-source-text="" fill="#dee4e340" transform="translate(888 550.584) rotate(0) scale(0.047999997)">
<use href="#path19" transform="translate(0 0)"/>
</g>
</g>
<g>
<g data-source-text="" fill="#dee4e340" transform="translate(960 550.584) rotate(0) scale(0.047999997)">
<use href="#path19" transform="translate(0 0)"/>
</g>
</g>
<g>
<g data-source-text="" fill="#dee4e3" transform="translate(1032 550.584) rotate(0) scale(0.047999997)">
<use href="#path44" transform="translate(0 0)"/>
</g>
</g>
<g>
<g data-source-text="" fill="#dee4e3" transform="translate(1104 550.584) rotate(0) scale(0.047999997)">
<use href="#path45" transform="translate(0 0)"/>
</g>
</g>
<g>
<g data-source-text="" fill="#dee4e3" transform="translate(1176 550.584) rotate(0) scale(0.047999997)">
<use href="#path46" transform="translate(0 0)"/>
</g>
</g>
<g>
<g data-source-text="" fill="#dee4e3" transform="translate(1248 550.584) rotate(0) scale(0.047999997)">
<use href="#path47" transform="translate(0 0)"/>
</g>
</g>
<g>
<g data-source-text="U+2770" fill="#dee4e3" transform="translate(36 617.292) rotate(0) scale(0.023999998)">
<use href="#path17" transform="translate(0 0)"/>
<use href="#path18" transform="translate(500 0)"/>
<use href="#path3" transform="translate(1000 0)"/>
<use href="#path8" transform="translate(1500 0)"/>
<use href="#path8" transform="translate(2000 0)"/>
<use href="#path1" transform="translate(2500 0)"/>
</g>
</g>
<g>
<g data-source-text="" fill="#dee4e3" transform="translate(168 622.584) rotate(0) scale(0.047999997)">
<use href="#path48" transform="translate(0 0)"/>
</g>
</g>
<g>
<g data-source-text="" fill="#dee4e3" transform="translate(240 622.584) rotate(0) scale(0.047999997)">
<use href="#path49" transform="translate(0 0)"/>
</g>
</g>
<g>
<g data-source-text="" fill="#dee4e340" transform="translate(312 622.584) rotate(0) scale(0.047999997)">
<use href="#path19" transform="translate(0 0)"/>
</g>
</g>
<g>
<g data-source-text="" fill="#dee4e340" transform="translate(384 622.584) rotate(0) scale(0.047999997)">
<use href="#path19" transform="translate(0 0)"/>
</g>
</g>
<g>
<g data-source-text="" fill="#dee4e340" transform="translate(456 622.584) rotate(0) scale(0.047999997)">
<use href="#path19" transform="translate(0 0)"/>
</g>
</g>
<g>
<g data-source-text="" fill="#dee4e340" transform="translate(528 622.584) rotate(0) scale(0.047999997)">
<use href="#path19" transform="translate(0 0)"/>
</g>
</g>
<g>
<g data-source-text="" fill="#dee4e3" transform="translate(588 622.584) rotate(0) scale(0.047999997)">
<use href="#path50" transform="translate(0 0)"/>
</g>
</g>
<g>
<g data-source-text="" fill="#dee4e3" transform="translate(660 622.584) rotate(0) scale(0.047999997)">
<use href="#path51" transform="translate(0 0)"/>
</g>
</g>
<g>
<g data-source-text="" fill="#dee4e3" transform="translate(732 622.584) rotate(0) scale(0.047999997)">
<use href="#path52" transform="translate(0 0)"/>
</g>
</g>
<g>
<g data-source-text="" fill="#dee4e3" transform="translate(804 622.584) rotate(0) scale(0.047999997)">
<use href="#path53" transform="translate(0 0)"/>
</g>
</g>
<g>
<g data-source-text="" fill="#dee4e3" transform="translate(876 622.584) rotate(0) scale(0.047999997)">
<use href="#path54" transform="translate(0 0)"/>
</g>
</g>
<g>
<g data-source-text="" fill="#dee4e3" transform="translate(948 622.584) rotate(0) scale(0.047999997)">
<use href="#path55" transform="translate(0 0)"/>
</g>
</g>
<g>
<g data-source-text="" fill="#dee4e3" transform="translate(1020 622.584) rotate(0) scale(0.047999997)">
<use href="#path56" transform="translate(0 0)"/>
</g>
</g>
<g>
<g data-source-text="" fill="#dee4e3" transform="translate(1092 622.584) rotate(0) scale(0.047999997)">
<use href="#path57" transform="translate(0 0)"/>
</g>
</g>
<g>
<g data-source-text="" fill="#dee4e3" transform="translate(1164 622.584) rotate(0) scale(0.047999997)">
<use href="#path58" transform="translate(0 0)"/>
</g>
</g>
<g>
<g data-source-text="" fill="#dee4e3" transform="translate(1236 622.584) rotate(0) scale(0.047999997)">
<use href="#path59" transform="translate(0 0)"/>
</g>
</g>
<g>
<g data-source-text="U+2780" fill="#dee4e3" transform="translate(36 689.292) rotate(0) scale(0.023999998)">
<use href="#path17" transform="translate(0 0)"/>
<use href="#path18" transform="translate(500 0)"/>
<use href="#path3" transform="translate(1000 0)"/>
<use href="#path8" transform="translate(1500 0)"/>
<use href="#path9" transform="translate(2000 0)"/>
<use href="#path1" transform="translate(2500 0)"/>
</g>
</g>
<g>
<g data-source-text="" fill="#dee4e3" transform="translate(156 694.584) rotate(0) scale(0.047999997)">
<use href="#path60" transform="translate(0 0)"/>
</g>
</g>
<g>
<g data-source-text="" fill="#dee4e3" transform="translate(228 694.584) rotate(0) scale(0.047999997)">
<use href="#path61" transform="translate(0 0)"/>
</g>
</g>
<g>
<g data-source-text="" fill="#dee4e3" transform="translate(300 694.584) rotate(0) scale(0.047999997)">
<use href="#path62" transform="translate(0 0)"/>
</g>
</g>
<g>
<g data-source-text="" fill="#dee4e3" transform="translate(372 694.584) rotate(0) scale(0.047999997)">
<use href="#path63" transform="translate(0 0)"/>
</g>
</g>
<g>
<g data-source-text="" fill="#dee4e3" transform="translate(444 694.584) rotate(0) scale(0.047999997)">
<use href="#path64" transform="translate(0 0)"/>
</g>
</g>
<g>
<g data-source-text="" fill="#dee4e3" transform="translate(516 694.584) rotate(0) scale(0.047999997)">
<use href="#path65" transform="translate(0 0)"/>
</g>
</g>
<g>
<g data-source-text="" fill="#dee4e3" transform="translate(588 694.584) rotate(0) scale(0.047999997)">
<use href="#path66" transform="translate(0 0)"/>
</g>
</g>
<g>
<g data-source-text="" fill="#dee4e3" transform="translate(660 694.584) rotate(0) scale(0.047999997)">
<use href="#path67" transform="translate(0 0)"/>
</g>
</g>
<g>
<g data-source-text="" fill="#dee4e3" transform="translate(732 694.584) rotate(0) scale(0.047999997)">
<use href="#path68" transform="translate(0 0)"/>
</g>
</g>
<g>
<g data-source-text="" fill="#dee4e3" transform="translate(804 694.584) rotate(0) scale(0.047999997)">
<use href="#path69" transform="translate(0 0)"/>
</g>
</g>
<g>
<g data-source-text="" fill="#dee4e3" transform="translate(876 694.584) rotate(0) scale(0.047999997)">
<use href="#path50" transform="translate(0 0)"/>
</g>
</g>
<g>
<g data-source-text="" fill="#dee4e3" transform="translate(948 694.584) rotate(0) scale(0.047999997)">
<use href="#path51" transform="translate(0 0)"/>
</g>
</g>
<g>
<g data-source-text="" fill="#dee4e3" transform="translate(1020 694.584) rotate(0) scale(0.047999997)">
<use href="#path52" transform="translate(0 0)"/>
</g>
</g>
<g>
<g data-source-text="" fill="#dee4e3" transform="translate(1092 694.584) rotate(0) scale(0.047999997)">
<use href="#path53" transform="translate(0 0)"/>
</g>
</g>
<g>
<g data-source-text="" fill="#dee4e3" transform="translate(1164 694.584) rotate(0) scale(0.047999997)">
<use href="#path54" transform="translate(0 0)"/>
</g>
</g>
<g>
<g data-source-text="" fill="#dee4e3" transform="translate(1236 694.584) rotate(0) scale(0.047999997)">
<use href="#path55" transform="translate(0 0)"/>
</g>
</g>
<g>
<g data-source-text="U+2790" fill="#dee4e3" transform="translate(36 761.292) rotate(0) scale(0.023999998)">
<use href="#path17" transform="translate(0 0)"/>
<use href="#path18" transform="translate(500 0)"/>
<use href="#path3" transform="translate(1000 0)"/>
<use href="#path8" transform="translate(1500 0)"/>
<use href="#path10" transform="translate(2000 0)"/>
<use href="#path1" transform="translate(2500 0)"/>
</g>
</g>
<g>
<g data-source-text="" fill="#dee4e3" transform="translate(156 766.584) rotate(0) scale(0.047999997)">
<use href="#path56" transform="translate(0 0)"/>
</g>
</g>
<g>
<g data-source-text="" fill="#dee4e3" transform="translate(228 766.584) rotate(0) scale(0.047999997)">
<use href="#path57" transform="translate(0 0)"/>
</g>
</g>
<g>
<g data-source-text="" fill="#dee4e3" transform="translate(300 766.584) rotate(0) scale(0.047999997)">
<use href="#path58" transform="translate(0 0)"/>
</g>
</g>
<g>
<g data-source-text="" fill="#dee4e3" transform="translate(372 766.584) rotate(0) scale(0.047999997)">
<use href="#path59" transform="translate(0 0)"/>
</g>
</g>
<g>
<g data-source-text="" fill="#dee4e3" transform="translate(444 766.584) rotate(0) scale(0.047999997)">
<use href="#path70" transform="translate(0 0)"/>
</g>
</g>
<g>
<g data-source-text="" fill="#dee4e340" transform="translate(528 766.584) rotate(0) scale(0.047999997)">
<use href="#path19" transform="translate(0 0)"/>
</g>
</g>
<g>
<g data-source-text="" fill="#dee4e340" transform="translate(600 766.584) rotate(0) scale(0.047999997)">
<use href="#path19" transform="translate(0 0)"/>
</g>
</g>
<g>
<g data-source-text="" fill="#dee4e340" transform="translate(672 766.584) rotate(0) scale(0.047999997)">
<use href="#path19" transform="translate(0 0)"/>
</g>
</g>
<g>
<g data-source-text="" fill="#dee4e340" transform="translate(744 766.584) rotate(0) scale(0.047999997)">
<use href="#path19" transform="translate(0 0)"/>
</g>
</g>
<g>
<g data-source-text="" fill="#dee4e340" transform="translate(816 766.584) rotate(0) scale(0.047999997)">
<use href="#path19" transform="translate(0 0)"/>
</g>
</g>
<g>
<g data-source-text="" fill="#dee4e340" transform="translate(888 766.584) rotate(0) scale(0.047999997)">
<use href="#path19" transform="translate(0 0)"/>
</g>
</g>
<g>
<g data-source-text="" fill="#dee4e340" transform="translate(960 766.584) rotate(0) scale(0.047999997)">
<use href="#path19" transform="translate(0 0)"/>
</g>
</g>
<g>
<g data-source-text="" fill="#dee4e3" transform="translate(1020 766.584) rotate(0) scale(0.047999997)">
<use href="#path71" transform="translate(0 0)"/>
</g>
</g>
<g>
<g data-source-text="" fill="#dee4e3" transform="translate(1092 766.584) rotate(0) scale(0.047999997)">
<use href="#path72" transform="translate(0 0)"/>
</g>
</g>
<g>
<g data-source-text="" fill="#dee4e340" transform="translate(1176 766.584) rotate(0) scale(0.047999997)">
<use href="#path19" transform="translate(0 0)"/>
</g>
</g>
<g>
<g data-source-text="" fill="#dee4e340" transform="translate(1248 766.584) rotate(0) scale(0.047999997)">
<use href="#path19" transform="translate(0 0)"/>
</g>
</g>
<g>
<g data-source-text="U+27A0" fill="#dee4e3" transform="translate(36 833.292) rotate(0) scale(0.023999998)">
<use href="#path17" transform="translate(0 0)"/>
<use href="#path18" transform="translate(500 0)"/>
<use href="#path3" transform="translate(1000 0)"/>
<use href="#path8" transform="translate(1500 0)"/>
<use href="#path11" transform="translate(2000 0)"/>
<use href="#path1" transform="translate(2500 0)"/>
</g>
</g>
<g>
<g data-source-text="" fill="#dee4e340" transform="translate(168 838.584) rotate(0) scale(0.047999997)">
<use href="#path19" transform="translate(0 0)"/>
</g>
</g>
<g>
<g data-source-text="" fill="#dee4e3" transform="translate(228 838.584) rotate(0) scale(0.047999997)">
<use href="#path73" transform="translate(0 0)"/>
</g>
</g>
<g>
<g data-source-text="" fill="#dee4e3" transform="translate(300 838.584) rotate(0) scale(0.047999997)">
<use href="#path74" transform="translate(0 0)"/>
</g>
</g>
<g>
<g data-source-text="" fill="#dee4e3" transform="translate(372 838.584) rotate(0) scale(0.047999997)">
<use href="#path75" transform="translate(0 0)"/>
</g>
</g>
<g>
<g data-source-text="" fill="#dee4e3" transform="translate(444 838.584) rotate(0) scale(0.047999997)">
<use href="#path76" transform="translate(0 0)"/>
</g>
</g>
<g>
<g data-source-text="" fill="#dee4e3" transform="translate(516 838.584) rotate(0) scale(0.047999997)">
<use href="#path77" transform="translate(0 0)"/>
</g>
</g>
<g>
<g data-source-text="" fill="#dee4e3" transform="translate(588 838.584) rotate(0) scale(0.047999997)">
<use href="#path78" transform="translate(0 0)"/>
</g>
</g>
<g>
<g data-source-text="" fill="#dee4e340" transform="translate(672 838.584) rotate(0) scale(0.047999997)">
<use href="#path19" transform="translate(0 0)"/>
</g>
</g>
<g>
<g data-source-text="" fill="#dee4e340" transform="translate(744 838.584) rotate(0) scale(0.047999997)">
<use href="#path19" transform="translate(0 0)"/>
</g>
</g>
<g>
<g data-source-text="" fill="#dee4e340" transform="translate(816 838.584) rotate(0) scale(0.047999997)">
<use href="#path19" transform="translate(0 0)"/>
</g>
</g>
<g>
<g data-source-text="" fill="#dee4e340" transform="translate(888 838.584) rotate(0) scale(0.047999997)">
<use href="#path19" transform="translate(0 0)"/>
</g>
</g>
<g>
<g data-source-text="" fill="#dee4e340" transform="translate(960 838.584) rotate(0) scale(0.047999997)">
<use href="#path19" transform="translate(0 0)"/>
</g>
</g>
<g>
<g data-source-text="" fill="#dee4e340" transform="translate(1032 838.584) rotate(0) scale(0.047999997)">
<use href="#path19" transform="translate(0 0)"/>
</g>
</g>
<g>
<g data-source-text="" fill="#dee4e340" transform="translate(1104 838.584) rotate(0) scale(0.047999997)">
<use href="#path19" transform="translate(0 0)"/>
</g>
</g>
<g>
<g data-source-text="" fill="#dee4e340" transform="translate(1176 838.584) rotate(0) scale(0.047999997)">
<use href="#path19" transform="translate(0 0)"/>
</g>
</g>
<g>
<g data-source-text="" fill="#dee4e340" transform="translate(1248 838.584) rotate(0) scale(0.047999997)">
<use href="#path19" transform="translate(0 0)"/>
</g>
</g>
<g>
<g data-source-text="U+27B0" fill="#dee4e3" transform="translate(36 905.292) rotate(0) scale(0.023999998)">
<use href="#path17" transform="translate(0 0)"/>
<use href="#path18" transform="translate(500 0)"/>
<use href="#path3" transform="translate(1000 0)"/>
<use href="#path8" transform="translate(1500 0)"/>
<use href="#path12" transform="translate(2000 0)"/>
<use href="#path1" transform="translate(2500 0)"/>
</g>
</g>
<g>
<g data-source-text="" fill="#dee4e340" transform="translate(168 910.584) rotate(0) scale(0.047999997)">
<use href="#path19" transform="translate(0 0)"/>
</g>
</g>
<g>
<g data-source-text="" fill="#dee4e340" transform="translate(240 910.584) rotate(0) scale(0.047999997)">
<use href="#path19" transform="translate(0 0)"/>
</g>
</g>
<g>
<g data-source-text="" fill="#dee4e340" transform="translate(312 910.584) rotate(0) scale(0.047999997)">
<use href="#path19" transform="translate(0 0)"/>
</g>
</g>
<g>
<g data-source-text="" fill="#dee4e340" transform="translate(384 910.584) rotate(0) scale(0.047999997)">
<use href="#path19" transform="translate(0 0)"/>
</g>
</g>
<g>
<g data-source-text="" fill="#dee4e340" transform="translate(456 910.584) rotate(0) scale(0.047999997)">
<use href="#path19" transform="translate(0 0)"/>
</g>
</g>
<g>
<g data-source-text="" fill="#dee4e340" transform="translate(528 910.584) rotate(0) scale(0.047999997)">
<use href="#path19" transform="translate(0 0)"/>
</g>
</g>
<g>
<g data-source-text="" fill="#dee4e340" transform="translate(600 910.584) rotate(0) scale(0.047999997)">
<use href="#path19" transform="translate(0 0)"/>
</g>
</g>
<g>
<g data-source-text="" fill="#dee4e340" transform="translate(672 910.584) rotate(0) scale(0.047999997)">
<use href="#path19" transform="translate(0 0)"/>
</g>
</g>
<g>
<g data-source-text="" fill="#dee4e340" transform="translate(744 910.584) rotate(0) scale(0.047999997)">
<use href="#path19" transform="translate(0 0)"/>
</g>
</g>
<g>
<g data-source-text="" fill="#dee4e340" transform="translate(816 910.584) rotate(0) scale(0.047999997)">
<use href="#path19" transform="translate(0 0)"/>
</g>
</g>
<g>
<g data-source-text="" fill="#dee4e340" transform="translate(888 910.584) rotate(0) scale(0.047999997)">
<use href="#path19" transform="translate(0 0)"/>
</g>
</g>
<g>
<g data-source-text="" fill="#dee4e340" transform="translate(960 910.584) rotate(0) scale(0.047999997)">
<use href="#path19" transform="translate(0 0)"/>
</g>
</g>
<g>
<g data-source-text="" fill="#dee4e340" transform="translate(1032 910.584) rotate(0) scale(0.047999997)">
<use href="#path19" transform="translate(0 0)"/>
</g>
</g>
<g>
<g data-source-text="" fill="#dee4e340" transform="translate(1104 910.584) rotate(0) scale(0.047999997)">
<use href="#path19" transform="translate(0 0)"/>
</g>
</g>
<g>
<g data-source-text="" fill="#dee4e340" transform="translate(1176 910.584) rotate(0) scale(0.047999997)">
<use href="#path19" transform="translate(0 0)"/>
</g>
</g>
<g>
<g data-source-text="" fill="#dee4e340" transform="translate(1248 910.584) rotate(0) scale(0.047999997)">
<use href="#path19" transform="translate(0 0)"/>
</g>
</g>
</svg>