<?xml version="1.0" encoding="UTF-8" standalone="no"?>
<svg height="360" viewBox="0 0 1296 360" width="1296" xmlns="http://www.w3.org/2000/svg">
<defs>
<path d="M 250 8 Q 223 8 196 3 Q 169 -2 145 -15 Q 121 -28 102.5 -48.5 Q 84 -69 72.5 -94 Q 61 -119 56.5 -146 Q 52 -173 52 -200 L 52 -535 Q 52 -562 56.5 -589 Q 61 -616 72.5 -641 Q 84 -666 102.5 -686.5 Q 121 -707 145 -720 Q 169 -733 196 -738 Q 223 -743 250 -743 Q 277 -743 304 -738 Q 331 -733 355 -720 Q 379 -707 397.5 -686.5 Q 416 -666 427.5 -641 Q 439 -616 443.5 -589 Q 448 -562 448 -535 L 448 -200 Q 448 -173 443.5 -146 Q 439 -119 427.5 -94 Q 416 -69 397.5 -48.5 Q 379 -28 355 -15 Q 331 -2 304 3 Q 277 8 250 8 Z M 152 -338 L 348 -493 L 348 -535 Q 348 -557 343 -579 Q 338 -601 325.5 -618.5 Q 313 -636 292.5 -645.5 Q 272 -655 250 -655 Q 228 -655 207.5 -645.5 Q 187 -636 174.5 -618.5 Q 162 -601 157 -579 Q 152 -557 152 -535 Z M 250 -80 Q 272 -80 292.5 -89.5 Q 313 -99 325.5 -116.5 Q 338 -134 343 -156 Q 348 -178 348 -200 L 348 -397 L 152 -242 L 152 -200 Q 152 -178 157 -156 Q 162 -134 174.5 -116.5 Q 187 -99 207.5 -89.5 Q 228 -80 250 -80 Z " id="path1"/>
<path d="M 230 0 L 230 -632 L 110 -528 L 55 -584 L 230 -735 L 330 -735 L 330 0 Z " id="path2"/>
<path d="M 60 0 L 60 -1 Q 60 -27 61 -54 Q 62 -81 65.5 -107 Q 69 -133 77 -158.5 Q 85 -184 96.5 -208 Q 108 -232 123 -253.5 Q 138 -275 156 -294.5 Q 174 -314 194 -331 Q 214 -348 235.5 -364 Q 257 -380 277.5 -397 Q 298 -414 313 -435.5 Q 328 -457 336 -483 Q 344 -509 344 -535 Q 344 -557 339.5 -578 Q 335 -599 323.5 -617 Q 312 -635 292 -645 Q 272 -655 251 -655 Q 231 -655 212.5 -647.5 Q 194 -640 181.5 -625 Q 169 -610 163.5 -591 Q 158 -572 158 -552 L 158 -548 L 58 -548 L 58 -555 Q 58 -581 63.5 -606 Q 69 -631 81 -653 Q 93 -675 111.5 -693 Q 130 -711 152.5 -722.5 Q 175 -734 200.5 -738.5 Q 226 -743 251 -743 Q 278 -743 304.5 -737.5 Q 331 -732 354.5 -719 Q 378 -706 396 -685.5 Q 414 -665 425 -640.5 Q 436 -616 440 -589 Q 444 -562 444 -535 Q 444 -501 435 -468 Q 426 -435 407.5 -406 Q 389 -377 364 -353.5 Q 339 -330 312.5 -308.5 Q 286 -287 261 -264 Q 236 -241 216 -213 Q 196 -185 183 -153.5 Q 170 -122 165 -88 L 440 -88 L 440 0 Z " id="path3"/>
<path d="M 253 8 Q 227 8 201 4 Q 175 -0 151 -11.5 Q 127 -23 107.5 -40.5 Q 88 -58 75.5 -81 Q 63 -104 56.5 -129.5 Q 50 -155 50 -181 L 50 -187 L 150 -187 L 150 -184 Q 150 -163 157 -143 Q 164 -123 178 -108 Q 192 -93 212 -86.5 Q 232 -80 253 -80 Q 275 -80 296 -88.5 Q 317 -97 330.5 -114.5 Q 344 -132 350 -154 Q 356 -176 356 -198 Q 356 -217 352 -235.5 Q 348 -254 339 -271 Q 330 -288 316.5 -301 Q 303 -314 286 -322 Q 269 -330 250 -332 Q 231 -334 212 -334 L 212 -422 Q 229 -422 246 -424 Q 263 -426 278.5 -433 Q 294 -440 306 -452.5 Q 318 -465 325.5 -480.5 Q 333 -496 336.5 -513 Q 340 -530 340 -547 Q 340 -566 335.5 -585.5 Q 331 -605 320 -621.5 Q 309 -638 291 -646.5 Q 273 -655 253 -655 Q 234 -655 216 -647 Q 198 -639 187 -624 Q 176 -609 171 -590 Q 166 -571 166 -553 L 166 -548 L 66 -548 L 66 -556 Q 66 -581 71.5 -605.5 Q 77 -630 88 -652 Q 99 -674 116.5 -692.5 Q 134 -711 156.5 -722.5 Q 179 -734 203.5 -738.5 Q 228 -743 253 -743 Q 278 -743 303.5 -738 Q 329 -733 351 -721 Q 373 -709 390.5 -690 Q 408 -671 419 -648 Q 430 -625 435 -600 Q 440 -575 440 -550 Q 440 -524 434 -498.5 Q 428 -473 416 -450.5 Q 404 -428 385 -409.5 Q 366 -391 343 -379 Q 370 -368 391.5 -348.5 Q 413 -329 427.5 -304.5 Q 442 -280 449 -252 Q 456 -224 456 -196 Q 456 -168 450 -141.5 Q 444 -115 432 -91 Q 420 -67 401 -47 Q 382 -27 358 -14.5 Q 334 -2 307 3 Q 280 8 253 8 Z " id="path4"/>
<path d="M 282 0 L 282 -188 L 52 -188 L 52 -275 L 276 -735 L 377 -735 L 152 -275 L 282 -275 L 282 -435 L 383 -435 L 383 -275 L 440 -275 L 440 -188 L 383 -188 L 383 0 Z " id="path5"/>
<path d="M 252 8 Q 227 8 202.5 3.5 Q 178 -1 155.5 -12 Q 133 -23 114.5 -41 Q 96 -59 84 -80.5 Q 72 -102 65.5 -126.5 Q 59 -151 58 -176 L 159 -176 Q 160 -158 166.5 -139.5 Q 173 -121 185.5 -107 Q 198 -93 216 -86.5 Q 234 -80 252 -80 Q 269 -80 285 -87 Q 301 -94 312.5 -107 Q 324 -120 330.5 -135.5 Q 337 -151 341 -167.5 Q 345 -184 346.5 -201 Q 348 -218 348 -235 Q 348 -252 346.5 -269 Q 345 -286 341.5 -302.5 Q 338 -319 331.5 -334.5 Q 325 -350 314.5 -363 Q 304 -376 288 -383.5 Q 272 -391 256 -391 Q 240 -391 224 -387 Q 208 -383 195.5 -373.5 Q 183 -364 176 -349.5 Q 169 -335 168 -319 L 68 -319 L 68 -735 L 421 -735 L 421 -647 L 168 -647 L 168 -464 Q 189 -472 211 -475 Q 233 -478 256 -478 Q 285 -478 313.5 -470.5 Q 342 -463 365.5 -445.5 Q 389 -428 405.5 -403 Q 422 -378 431.5 -350.5 Q 441 -323 444.5 -294 Q 448 -265 448 -235 Q 448 -206 444.5 -176.5 Q 441 -147 431 -119 Q 421 -91 404.5 -66.5 Q 388 -42 364 -24.5 Q 340 -7 311 0.5 Q 282 8 252 8 Z " id="path6"/>
<path d="M 250 8 Q 221 8 192.5 1.5 Q 164 -5 140 -21 Q 116 -37 98.5 -60.5 Q 81 -84 70.5 -111 Q 60 -138 56 -166.5 Q 52 -195 52 -224 Q 52 -268 59.5 -311 Q 67 -354 81 -395.5 Q 95 -437 113 -477 Q 131 -517 150 -556 L 238 -735 L 347 -735 L 240 -517 Q 228 -492 216 -467 Q 204 -442 194 -416 Q 212 -436 238.5 -446 Q 265 -456 292 -456 Q 318 -456 343.5 -447 Q 369 -438 387.5 -419.5 Q 406 -401 418 -377 Q 430 -353 436.5 -328 Q 443 -303 445.5 -276.5 Q 448 -250 448 -224 Q 448 -195 444 -166.5 Q 440 -138 429.5 -111 Q 419 -84 401.5 -60.5 Q 384 -37 360 -21 Q 336 -5 307.5 1.5 Q 279 8 250 8 Z M 250 -80 Q 266 -80 282 -85.5 Q 298 -91 309.5 -102.5 Q 321 -114 328.5 -129 Q 336 -144 340.5 -159.5 Q 345 -175 346.5 -191.5 Q 348 -208 348 -224 Q 348 -240 346.5 -256.5 Q 345 -273 340.5 -289 Q 336 -305 328.5 -319.5 Q 321 -334 309.5 -345.5 Q 298 -357 282 -362.5 Q 266 -368 250 -368 Q 235 -368 221 -363.5 Q 207 -359 195.5 -349.5 Q 184 -340 176 -327.5 Q 168 -315 163.5 -301 Q 159 -287 156.5 -272.5 Q 154 -258 153 -243 Q 153 -238 152.5 -233.5 Q 152 -229 152 -224 Q 152 -208 153.5 -191.5 Q 155 -175 159.5 -159.5 Q 164 -144 171.5 -129 Q 179 -114 190.5 -102.5 Q 202 -91 218 -85.5 Q 234 -80 250 -80 Z " id="path7"/>
<path d="M 138 0 L 336 -647 L 60 -647 L 60 -735 L 440 -735 L 440 -647 L 242 0 Z " id="path8"/>
<path d="M 250 8 Q 225 8 200 4 Q 175 -0 152 -10 Q 129 -20 109.5 -37 Q 90 -54 77.5 -75.5 Q 65 -97 58.5 -121.5 Q 52 -146 52 -172 Q 52 -203 61.5 -232.5 Q 71 -262 88 -288.5 Q 105 -315 127 -336.5 Q 149 -358 174 -378 Q 152 -396 132.5 -417 Q 113 -438 98.5 -462.5 Q 84 -487 76 -514.5 Q 68 -542 68 -570 Q 68 -594 73.5 -617.5 Q 79 -641 90.5 -661.5 Q 102 -682 119.5 -698.5 Q 137 -715 158 -725 Q 179 -735 202.5 -739 Q 226 -743 250 -743 Q 274 -743 297.5 -739 Q 321 -735 342 -725 Q 363 -715 380.5 -698.5 Q 398 -682 409.5 -661.5 Q 421 -641 426.5 -617.5 Q 432 -594 432 -570 Q 432 -542 424 -514.5 Q 416 -487 401.5 -462.5 Q 387 -438 367.5 -417 Q 348 -396 326 -378 Q 351 -358 373 -336.5 Q 395 -315 412 -288.5 Q 429 -262 438.5 -232.5 Q 448 -203 448 -172 Q 448 -146 441.5 -121.5 Q 435 -97 422.5 -75.5 Q 410 -54 390.5 -37 Q 371 -20 348 -10 Q 325 -0 300 4 Q 275 8 250 8 Z M 250 -434 Q 266 -447 280.5 -461.5 Q 295 -476 306.5 -493 Q 318 -510 325 -529.5 Q 332 -549 332 -569 Q 332 -586 327 -602.5 Q 322 -619 310.5 -631.5 Q 299 -644 283 -649.5 Q 267 -655 250 -655 Q 233 -655 217 -649.5 Q 201 -644 189.5 -631.5 Q 178 -619 173 -602.5 Q 168 -586 168 -569 Q 168 -549 175 -529.5 Q 182 -510 193.5 -493 Q 205 -476 219.5 -461.5 Q 234 -447 250 -434 Z M 250 -80 Q 269 -80 288 -85.5 Q 307 -91 320.5 -104 Q 334 -117 341 -135.5 Q 348 -154 348 -173 Q 348 -196 339.5 -217.5 Q 331 -239 317 -257.5 Q 303 -276 285.5 -291 Q 268 -306 250 -320 Q 232 -306 214.5 -291 Q 197 -276 183 -257.5 Q 169 -239 160.5 -217.5 Q 152 -196 152 -173 Q 152 -154 159 -135.5 Q 166 -117 179.5 -104 Q 193 -91 212 -85.5 Q 231 -80 250 -80 Z " id="path9"/>
<path d="M 262 0 L 153 0 L 260 -218 Q 272 -243 284 -268 Q 296 -293 306 -319 Q 288 -299 261.5 -289 Q 235 -279 208 -279 Q 182 -279 156.5 -288 Q 131 -297 112.5 -315.5 Q 94 -334 82 -358 Q 70 -382 63.5 -407 Q 57 -432 54.5 -458.5 Q 52 -485 52 -511 Q 52 -540 56 -568.5 Q 60 -597 70.5 -624 Q 81 -651 98.5 -674.5 Q 116 -698 140 -714 Q 164 -730 192.5 -736.5 Q 221 -743 250 -743 Q 279 -743 307.5 -736.5 Q 336 -730 360 -714 Q 384 -698 401.5 -674.5 Q 419 -651 429.5 -624 Q 440 -597 444 -568.5 Q 448 -540 448 -511 Q 448 -467 440.5 -424 Q 433 -381 419 -339.5 Q 405 -298 387 -258 Q 369 -218 350 -179 Z M 250 -367 Q 265 -367 279 -371.5 Q 293 -376 304.5 -385.5 Q 316 -395 324 -407.5 Q 332 -420 336.5 -434 Q 341 -448 343.5 -462.5 Q 346 -477 347 -492 Q 347 -497 347.5 -501.5 Q 348 -506 348 -511 Q 348 -527 346.5 -543.5 Q 345 -560 340.5 -575.5 Q 336 -591 328.5 -606 Q 321 -621 309.5 -632.5 Q 298 -644 282 -649.5 Q 266 -655 250 -655 Q 234 -655 218 -649.5 Q 202 -644 190.5 -632.5 Q 179 -621 171.5 -606 Q 164 -591 159.5 -575.5 Q 155 -560 153.5 -543.5 Q 152 -527 152 -511 Q 152 -495 153.5 -478.5 Q 155 -462 159.5 -446 Q 164 -430 171.5 -415.5 Q 179 -401 190.5 -389.5 Q 202 -378 218 -372.5 Q 234 -367 250 -367 Z " id="path10"/>
<path d="M 39 0 L 53 -70 L 192 -735 L 308 -735 L 461 0 L 359 0 L 326 -172 L 174 -172 L 141 0 Z M 310 -260 L 267 -490 Q 263 -513 258.5 -536 Q 254 -559 250 -582 Q 246 -559 241.5 -536 Q 237 -513 233 -490 L 190 -260 Z " id="path11"/>
<path d="M 60 0 L 60 -735 L 235 -735 Q 261 -735 287 -730.5 Q 313 -726 336.5 -714 Q 360 -702 378.5 -682.5 Q 397 -663 408.5 -639.5 Q 420 -616 424.5 -590 Q 429 -564 429 -538 Q 429 -515 425.5 -492 Q 422 -469 411.5 -448.5 Q 401 -428 384.5 -411 Q 368 -394 348 -383 Q 373 -373 394.5 -355.5 Q 416 -338 430.5 -314.5 Q 445 -291 450.5 -264 Q 456 -237 456 -210 Q 456 -181 450.5 -152.5 Q 445 -124 431 -98.5 Q 417 -73 395.5 -53.5 Q 374 -34 347.5 -21.5 Q 321 -9 292.5 -4.5 Q 264 -0 235 0 Z M 160 -424 L 235 -424 Q 256 -424 275.5 -432.5 Q 295 -441 307.5 -457.5 Q 320 -474 324.5 -494.5 Q 329 -515 329 -536 Q 329 -557 324.5 -577.5 Q 320 -598 307.5 -614.5 Q 295 -631 275.5 -639 Q 256 -647 235 -647 L 160 -647 Z M 160 -88 L 235 -88 Q 251 -88 267.5 -91 Q 284 -94 298.5 -101.5 Q 313 -109 324.5 -121 Q 336 -133 343 -148 Q 350 -163 353 -179 Q 356 -195 356 -212 Q 356 -228 353 -244.5 Q 350 -261 343 -276 Q 336 -291 324.5 -303 Q 313 -315 298.5 -322.5 Q 284 -330 267.5 -333 Q 251 -336 235 -336 L 160 -336 Z " id="path12"/>
<path d="M 247 8 Q 220 8 193 3 Q 166 -2 142.5 -15.5 Q 119 -29 101 -49.5 Q 83 -70 71.5 -94.5 Q 60 -119 56 -146 Q 52 -173 52 -200 L 52 -535 Q 52 -562 56 -589 Q 60 -616 71.5 -640.5 Q 83 -665 101 -685.5 Q 119 -706 142.5 -719.5 Q 166 -733 193 -738 Q 220 -743 247 -743 Q 273 -743 298 -738.5 Q 323 -734 346 -723 Q 369 -712 387.5 -694 Q 406 -676 418 -653.5 Q 430 -631 436 -606 Q 442 -581 442 -555 L 442 -548 L 342 -548 L 342 -552 Q 342 -572 336 -591.5 Q 330 -611 317.5 -626 Q 305 -641 286 -648 Q 267 -655 247 -655 Q 225 -655 205 -645.5 Q 185 -636 173 -618 Q 161 -600 156.5 -578.5 Q 152 -557 152 -535 L 152 -200 Q 152 -178 156.5 -156.5 Q 161 -135 173 -117 Q 185 -99 205 -89.5 Q 225 -80 247 -80 Q 267 -80 286 -87 Q 305 -94 317.5 -109 Q 330 -124 336 -143.5 Q 342 -163 342 -183 L 342 -187 L 442 -187 L 442 -180 Q 442 -154 436 -129 Q 430 -104 418 -81.5 Q 406 -59 387.5 -41 Q 369 -23 346 -12 Q 323 -1 298 3.5 Q 273 8 247 8 Z " id="path13"/>
<path d="M 60 0 L 60 -735 L 220 -735 Q 250 -735 280.5 -730.5 Q 311 -726 339 -713.5 Q 367 -701 390.5 -680 Q 414 -659 429 -632.5 Q 444 -606 450 -575.5 Q 456 -545 456 -515 L 456 -220 Q 456 -190 450 -159.5 Q 444 -129 429 -102.5 Q 414 -76 390.5 -55 Q 367 -34 339 -21.5 Q 311 -9 280.5 -4.5 Q 250 -0 220 0 Z M 160 -88 L 220 -88 Q 238 -88 256 -91 Q 274 -94 290 -101.5 Q 306 -109 319 -122 Q 332 -135 340.5 -151 Q 349 -167 352.5 -184.5 Q 356 -202 356 -220 L 356 -515 Q 356 -533 352.5 -550.5 Q 349 -568 340.5 -584 Q 332 -600 319 -613 Q 306 -626 290 -633.5 Q 274 -641 256 -644 Q 238 -647 220 -647 L 160 -647 Z " id="path14"/>
<path d="M 68 0 L 68 -735 L 440 -735 L 440 -647 L 168 -647 L 168 -426 L 383 -426 L 383 -338 L 168 -338 L 168 -88 L 440 -88 L 440 0 Z " id="path15"/>
<path d="M 90 0 L 90 -735 L 440 -735 L 440 -647 L 190 -647 L 190 -426 L 383 -426 L 383 -338 L 190 -338 L 190 0 Z " id="path16"/>
<path d="M 250 8 Q 223 8 196.5 2.5 Q 170 -3 147 -16.5 Q 124 -30 106.5 -50.5 Q 89 -71 78.5 -95.5 Q 68 -120 64 -146.5 Q 60 -173 60 -200 L 60 -735 L 160 -735 L 160 -200 Q 160 -186 161.5 -172 Q 163 -158 167.5 -144.5 Q 172 -131 179.5 -118.5 Q 187 -106 197.5 -97 Q 208 -88 222 -84 Q 236 -80 250 -80 Q 264 -80 278 -84 Q 292 -88 302.5 -97 Q 313 -106 320.5 -118.5 Q 328 -131 332.5 -144.5 Q 337 -158 338.5 -172 Q 340 -186 340 -200 L 340 -735 L 440 -735 L 440 -200 Q 440 -173 436 -146.5 Q 432 -120 421.5 -95.5 Q 411 -71 393.5 -50.5 Q 376 -30 353 -16.5 Q 330 -3 303.5 2.5 Q 277 8 250 8 Z " id="path17"/>
<path d="M 296 -142 L 204 -142 L 204 -300 L 60 -300 L 60 -380 L 204 -380 L 204 -538 L 296 -538 L 296 -380 L 440 -380 L 440 -300 L 296 -300 Z " id="path18"/>
<path d="M 215 8 Q 190 8 166 1 Q 142 -6 122.5 -21.5 Q 103 -37 90 -58 Q 77 -79 69 -102.5 Q 61 -126 58.5 -150.5 Q 56 -175 56 -200 L 56 -320 Q 56 -345 58.5 -369.5 Q 61 -394 69 -417.5 Q 77 -441 90 -462 Q 103 -483 122.5 -498.5 Q 142 -514 166 -521 Q 190 -528 215 -528 Q 239 -528 262 -521.5 Q 285 -515 304 -501 Q 323 -487 336.5 -467 Q 350 -447 358 -424 L 358 -485 L 436 -520 L 436 0 L 358 0 L 358 -96 Q 350 -73 336.5 -53 Q 323 -33 304 -19 Q 285 -5 262 1.5 Q 239 8 215 8 Z M 246 -62 Q 263 -62 279.5 -66 Q 296 -70 309.5 -80 Q 323 -90 333 -104 Q 343 -118 348.5 -134 Q 354 -150 356 -166.5 Q 358 -183 358 -200 L 358 -320 Q 358 -337 356 -353.5 Q 354 -370 348.5 -386 Q 343 -402 333 -416 Q 323 -430 309.5 -440 Q 296 -450 279.5 -454 Q 263 -458 246 -458 Q 229 -458 212.5 -454 Q 196 -450 182.5 -440 Q 169 -430 159 -416 Q 149 -402 143.5 -386 Q 138 -370 136 -353.5 Q 134 -337 134 -320 L 134 -200 Q 134 -183 136 -166.5 Q 138 -150 143.5 -134 Q 149 -118 159 -104 Q 169 -90 182.5 -80 Q 196 -70 212.5 -66 Q 229 -62 246 -62 Z M 32 -229 L 32 -291 L 468 -291 L 468 -229 Z " id="path19"/>
<path d="M 164 8 Q 146 8 128 3 Q 110 -2 95 -13 Q 80 -24 69.5 -39.5 Q 59 -55 53 -72.5 Q 47 -90 45 -108.5 Q 43 -127 43 -146 Q 43 -165 45.5 -185 Q 48 -205 55.5 -223.5 Q 63 -242 75.5 -258 Q 88 -274 104.5 -284.5 Q 121 -295 140.5 -299.5 Q 160 -304 180 -304 L 214 -304 L 214 -408 Q 214 -418 211.5 -428 Q 209 -438 203 -446 Q 197 -454 187.5 -458.5 Q 178 -463 168 -463 Q 155 -463 144.5 -453.5 Q 134 -444 129.5 -431.5 Q 125 -419 123 -406 Q 121 -393 121 -379 L 121 -375 L 49 -375 L 49 -383 Q 49 -400 51.5 -417.5 Q 54 -435 60.5 -452 Q 67 -469 77 -483.5 Q 87 -498 101.5 -508.5 Q 116 -519 133 -523.5 Q 150 -528 168 -528 Q 191 -528 213.5 -521 Q 236 -514 253 -498 Q 269 -514 290.5 -521 Q 312 -528 335 -528 Q 352 -528 369.5 -523.5 Q 387 -519 401.5 -508.5 Q 416 -498 426.5 -483.5 Q 437 -469 443.5 -452.5 Q 450 -436 452.5 -418 Q 455 -400 455 -383 L 455 -375 L 383 -375 L 383 -379 Q 383 -393 381 -406 Q 379 -419 374 -431.5 Q 369 -444 358.5 -453.5 Q 348 -463 335 -463 Q 322 -463 311 -455 Q 300 -447 295 -435.5 Q 290 -424 288 -411 Q 286 -398 286 -385 L 286 -293 L 457 -293 L 457 -135 Q 457 -117 455 -99.5 Q 453 -82 446.5 -65.5 Q 440 -49 429 -34.5 Q 418 -20 403 -10 Q 388 -0 370.5 4 Q 353 8 336 8 Q 311 8 288 -0.5 Q 265 -9 248 -27 Q 233 -9 210.5 -0.5 Q 188 8 164 8 Z M 164 -57 Q 174 -57 183 -62.5 Q 192 -68 197.5 -76 Q 203 -84 206 -93.5 Q 209 -103 211 -112.5 Q 213 -122 213.5 -132 Q 214 -142 214 -152 L 214 -238 L 180 -238 Q 165 -238 150.5 -230.5 Q 136 -223 128 -209.5 Q 120 -196 117.5 -180 Q 115 -164 115 -149 Q 115 -134 117 -120 Q 119 -106 124 -92 Q 129 -78 139.5 -67.5 Q 150 -57 164 -57 Z M 336 -57 Q 348 -57 359 -65 Q 370 -73 375.5 -84.5 Q 381 -96 383 -109 Q 385 -122 385 -135 L 385 -227 L 286 -227 L 286 -135 Q 286 -122 288 -109 Q 290 -96 295.5 -84.5 Q 301 -73 312 -65 Q 323 -57 336 -57 Z " id="path20"/>
<path d="M 238 9 Q 231 5 224 2 Q 217 -1 209 -4 Q 190 -12 171 -20.5 Q 152 -29 136 -41.5 Q 120 -54 107 -70.5 Q 94 -87 87 -106 Q 80 -125 78.5 -145.5 Q 77 -166 77 -186 L 77 -404 L 126 -453 L 287 -529 L 304 -529 L 423 -359 L 423 -342 L 374 -292 L 149 -187 Q 155 -163 170 -142 Q 185 -121 205.5 -106 Q 226 -91 249.5 -81.5 Q 273 -72 296 -62 L 369 -96 L 406 -114 L 423 -114 L 423 -96 L 374 -47 L 255 9 Z M 144 -232 L 151 -240 L 334 -325 L 242 -456 L 143 -410 L 143 -238 Z " id="path21"/>
<path d="M 250 8 Q 220 8 190 1 Q 160 -6 134.5 -23 Q 109 -40 92 -65.5 Q 75 -91 66 -121 L 19 -121 L 19 -174 L 56 -174 L 56 -320 Q 56 -347 60 -374 Q 64 -401 75 -425.5 Q 86 -450 104.5 -470.5 Q 123 -491 146.5 -504 Q 170 -517 196.5 -522.5 Q 223 -528 250 -528 Q 277 -528 303.5 -522.5 Q 330 -517 353.5 -504 Q 377 -491 395.5 -470.5 Q 414 -450 425 -425.5 Q 436 -401 440 -374 Q 444 -347 444 -320 L 444 -225 L 134 -225 L 134 -200 Q 134 -194 134 -187.5 Q 134 -181 135 -174 L 481 -174 L 481 -121 L 440 -121 Q 434 -90 416 -63.5 Q 398 -37 371 -20.5 Q 344 -4 312.5 2 Q 281 8 250 8 Z M 366 -295 L 366 -320 Q 366 -337 364 -354 Q 362 -371 356 -387 Q 350 -403 339.5 -417 Q 329 -431 315 -440.5 Q 301 -450 284 -454 Q 267 -458 250 -458 Q 233 -458 216 -454 Q 199 -450 185 -440.5 Q 171 -431 160.5 -417 Q 150 -403 144 -387 Q 138 -371 136 -354 Q 134 -337 134 -320 L 134 -295 Z M 250 -62 Q 267 -62 283.5 -64.5 Q 300 -67 315 -74 Q 330 -81 342 -93 Q 354 -105 360 -121 L 150 -121 Q 157 -107 167 -95.5 Q 177 -84 190.5 -76 Q 204 -68 219.5 -65 Q 235 -62 250 -62 Z " id="path22"/>
<path d="M 64 0 L 64 -735 L 436 -735 L 436 0 Z M 104 -333 L 394 -695 L 300 -695 L 104 -450 Z M 104 -489 L 269 -695 L 175 -695 L 104 -606 Z M 104 -645 L 144 -695 L 104 -695 Z M 104 -176 L 396 -543 L 396 -660 L 104 -294 Z M 104 -40 L 119 -40 L 396 -386 L 396 -504 L 104 -137 Z M 150 -40 L 244 -40 L 396 -230 L 396 -347 Z M 275 -40 L 369 -40 L 396 -74 L 396 -191 Z " id="path23"/>
<path d="M 175 0 L 175 -403 L 64 -403 L 64 -473 L 175 -473 L 175 -579 Q 175 -599 177.5 -619.5 Q 180 -640 187.5 -659 Q 195 -678 207.5 -694.5 Q 220 -711 236.5 -722.5 Q 253 -734 273.5 -738.5 Q 294 -743 314 -743 Q 342 -743 369 -734 Q 396 -725 415.5 -705 Q 435 -685 444 -658 Q 453 -631 453 -603 L 453 -600 L 375 -600 L 375 -601 Q 375 -615 371.5 -628 Q 368 -641 360 -651.5 Q 352 -662 339.5 -667.5 Q 327 -673 314 -673 Q 298 -673 284.5 -664 Q 271 -655 264 -640.5 Q 257 -626 254.5 -610.5 Q 252 -595 252 -579 L 252 -473 L 417 -473 L 417 -403 L 252 -403 L 252 0 Z " id="path24"/>
<path d="M 246 223 Q 226 223 206.5 221.5 Q 187 220 167.5 215.5 Q 148 211 129.5 203.5 Q 111 196 95.5 183.5 Q 80 171 72 152.5 Q 64 134 64 114 Q 64 89 76.5 66.5 Q 89 44 110.5 31 Q 132 18 156.5 13.5 Q 181 9 206 9 Q 246 9 284 20 Q 322 31 356 51 Q 358 42 358 33 Q 358 24 358 15 L 358 -96 Q 350 -73 336.5 -53 Q 323 -33 304 -19 Q 285 -5 262 1.5 Q 239 8 215 8 Q 190 8 166 1 Q 142 -6 122.5 -21.5 Q 103 -37 90 -58 Q 77 -79 69 -102.5 Q 61 -126 58.5 -150.5 Q 56 -175 56 -200 L 56 -320 Q 56 -345 58.5 -369.5 Q 61 -394 69 -417.5 Q 77 -441 90 -462 Q 103 -483 122.5 -498.5 Q 142 -514 166 -521 Q 190 -528 215 -528 Q 239 -528 262 -521.5 Q 285 -515 304 -501 Q 323 -487 336.5 -467 Q 350 -447 358 -424 L 358 -485 L 436 -520 L 436 15 Q 436 37 433.5 58.5 Q 431 80 425 100 Q 446 119 464.5 140 Q 483 161 500 184 L 444 221 Q 433 205 420 189.5 Q 407 174 393 160 Q 380 176 363.5 188.5 Q 347 201 327.5 209 Q 308 217 287.5 220 Q 267 223 246 223 Z M 246 -62 Q 263 -62 279.5 -66 Q 296 -70 309.5 -80 Q 323 -90 333 -104 Q 343 -118 348.5 -134 Q 354 -150 356 -166.5 Q 358 -183 358 -200 L 358 -320 Q 358 -337 356 -353.5 Q 354 -370 348.5 -386 Q 343 -402 333 -416 Q 323 -430 309.5 -440 Q 296 -450 279.5 -454 Q 263 -458 246 -458 Q 229 -458 212.5 -454 Q 196 -450 182.5 -440 Q 169 -430 159 -416 Q 149 -402 143.5 -386 Q 138 -370 136 -353.5 Q 134 -337 134 -320 L 134 -200 Q 134 -183 136 -166.5 Q 138 -150 143.5 -134 Q 149 -118 159 -104 Q 169 -90 182.5 -80 Q 196 -70 212.5 -66 Q 229 -62 246 -62 Z M 242 161 Q 256 161 269.5 158 Q 283 155 295 149 Q 307 143 317.5 133.5 Q 328 124 335 112 Q 306 94 273.5 82.5 Q 241 71 206 71 Q 195 71 183 72.5 Q 171 74 160 78.5 Q 149 83 141 92.5 Q 133 102 133 113 Q 133 124 140.5 133 Q 148 142 157.5 146.5 Q 167 151 177.5 153.5 Q 188 156 198.5 158 Q 209 160 220 160.5 Q 231 161 242 161 Z " id="path25"/>
<path d="M 75 0 L 75 -70 L 218 -70 L 218 -665 L 89 -665 L 89 -735 L 296 -735 L 296 -70 L 425 -70 L 425 0 Z M 168 -202 Q 147 -202 126 -208 Q 105 -214 89.5 -229 Q 74 -244 67 -265 Q 60 -286 60 -307 Q 60 -328 67 -349 Q 74 -370 89.5 -385 Q 105 -400 126 -406 Q 147 -412 168 -412 L 346 -412 Q 355 -412 363.5 -415 Q 372 -418 377.5 -424.5 Q 383 -431 385.5 -439.5 Q 388 -448 388 -457 Q 388 -466 385.5 -474.5 Q 383 -483 377.5 -489.5 Q 372 -496 363.5 -499 Q 355 -502 346 -502 L 346 -562 Q 367 -562 388 -556 Q 409 -550 424.5 -535 Q 440 -520 447 -499 Q 454 -478 454 -457 Q 454 -436 447 -415 Q 440 -394 424.5 -379 Q 409 -364 388 -358 Q 367 -352 346 -352 L 168 -352 Q 159 -352 150.5 -349 Q 142 -346 136.5 -339.5 Q 131 -333 128.5 -324.5 Q 126 -316 126 -307 Q 126 -298 128.5 -289.5 Q 131 -281 136.5 -274.5 Q 142 -268 150.5 -265 Q 159 -262 168 -262 Z " id="path26"/>
<path d="M 75 0 L 75 -70 L 218 -70 L 218 -665 L 89 -665 L 89 -735 L 296 -735 L 296 -70 L 425 -70 L 425 0 Z M 308 -377 Q 303 -377 299 -377.5 Q 295 -378 291 -379 Q 287 -380 283 -381.5 Q 279 -383 275.5 -385.5 Q 272 -388 268.5 -390 Q 265 -392 262 -394.5 Q 259 -397 255.5 -400.5 Q 252 -404 249 -407 Q 246 -410 243.5 -413 Q 241 -416 238.5 -419.5 Q 236 -423 233.5 -426 Q 231 -429 228 -433 Q 225 -437 222 -440 Q 219 -443 216.5 -446 Q 214 -449 210 -452 Q 206 -455 206 -456 L 207 -456 L 204 -454 Q 201 -452 199 -450 Q 197 -448 195 -445.5 Q 193 -443 191.5 -441.5 Q 190 -440 189 -438.5 Q 188 -437 186.5 -435 Q 185 -433 183.5 -431 Q 182 -429 180.5 -427 Q 179 -425 177.5 -422.5 Q 176 -420 174.5 -417.5 Q 173 -415 171.5 -412.5 Q 170 -410 168.5 -407 Q 167 -404 165 -400.5 Q 163 -397 161.5 -394 Q 160 -391 158 -387.5 Q 156 -384 154 -380 L 98 -405 Q 105 -420 112.5 -433 Q 120 -446 127 -456.5 Q 134 -467 141 -476 Q 148 -485 158 -493.5 Q 168 -502 180.5 -507.5 Q 193 -513 206 -513 Q 211 -513 215 -512.5 Q 219 -512 223 -511 Q 227 -510 231 -508.5 Q 235 -507 238.5 -504.5 Q 242 -502 245.5 -500 Q 249 -498 252 -495.5 Q 255 -493 258.5 -489.5 Q 262 -486 265 -483 Q 268 -480 270.5 -477 Q 273 -474 275.5 -470.5 Q 278 -467 280.5 -464 Q 283 -461 286 -457 Q 289 -453 292 -450 Q 295 -447 297.5 -444 Q 300 -441 304 -438 Q 308 -435 308 -434 L 307 -434 L 310 -436 Q 313 -438 315 -440 Q 317 -442 319 -444.5 Q 321 -447 322.5 -448.5 Q 324 -450 325 -451.5 Q 326 -453 327.5 -455 Q 329 -457 330.5 -459 Q 332 -461 333.5 -463 Q 335 -465 336.5 -467.5 Q 338 -470 339.5 -472.5 Q 341 -475 342.5 -477.5 Q 344 -480 345.5 -483 Q 347 -486 349 -489.5 Q 351 -493 352.5 -496 Q 354 -499 356 -502.5 Q 358 -506 360 -510 L 416 -485 Q 409 -470 401.5 -457 Q 394 -444 387 -433.5 Q 380 -423 373 -414 Q 366 -405 356 -396.5 Q 346 -388 333.5 -382.5 Q 321 -377 308 -377 Z M 308 -251 Q 303 -251 299 -251.5 Q 295 -252 291 -253 Q 287 -254 283 -255.5 Q 279 -257 275.5 -259.5 Q 272 -262 268.5 -264 Q 265 -266 262 -268.5 Q 259 -271 255.5 -274.5 Q 252 -278 249 -281 Q 246 -284 243.5 -287 Q 241 -290 238.5 -293.5 Q 236 -297 233.5 -300 Q 231 -303 228 -307 Q 225 -311 222 -314 Q 219 -317 216.5 -320 Q 214 -323 210 -326 Q 206 -329 206 -330 L 207 -330 L 204 -328 Q 201 -326 199 -324 Q 197 -322 195 -319.5 Q 193 -317 191.5 -315.5 Q 190 -314 189 -312.5 Q 188 -311 186.5 -309 Q 185 -307 183.5 -305 Q 182 -303 180.5 -301 Q 179 -299 177.5 -296.5 Q 176 -294 174.5 -291.5 Q 173 -289 171.5 -286.5 Q 170 -284 168.5 -281 Q 167 -278 165 -274.5 Q 163 -271 161.5 -268 Q 160 -265 158 -261.5 Q 156 -258 154 -254 L 98 -279 Q 105 -294 112.5 -307 Q 120 -320 127 -330.5 Q 134 -341 141 -350 Q 148 -359 158 -367.5 Q 168 -376 180.5 -381.5 Q 193 -387 206 -387 Q 211 -387 215 -386.5 Q 219 -386 223 -385 Q 227 -384 231 -382.5 Q 235 -381 238.5 -378.5 Q 242 -376 245.5 -374 Q 249 -372 252 -369.5 Q 255 -367 258.5 -363.5 Q 262 -360 265 -357 Q 268 -354 270.5 -351 Q 273 -348 275.5 -344.5 Q 278 -341 280.5 -338 Q 283 -335 286 -331 Q 289 -327 292 -324 Q 295 -321 297.5 -318 Q 300 -315 304 -312 Q 308 -309 308 -308 L 307 -308 L 310 -310 Q 313 -312 315 -314 Q 317 -316 319 -318.5 Q 321 -321 322.5 -322.5 Q 324 -324 325 -325.5 Q 326 -327 327.5 -329 Q 329 -331 330.5 -333 Q 332 -335 333.5 -337 Q 335 -339 336.5 -341.5 Q 338 -344 339.5 -346.5 Q 341 -349 342.5 -351.5 Q 344 -354 345.5 -357 Q 347 -360 349 -363.5 Q 351 -367 352.5 -370 Q 354 -373 356 -376.5 Q 358 -380 360 -384 L 416 -359 Q 409 -344 401.5 -331 Q 394 -318 387 -307.5 Q 380 -297 373 -288 Q 366 -279 356 -270.5 Q 346 -262 333.5 -256.5 Q 321 -251 308 -251 Z " id="path27"/>
<path d="M 75 0 L 75 -70 L 218 -70 L 218 -665 L 89 -665 L 89 -735 L 296 -735 L 296 -70 L 425 -70 L 425 0 Z M 257 -251 Q 231 -251 205 -259 Q 179 -267 160.5 -285.5 Q 142 -304 134 -330 Q 126 -356 126 -382 Q 126 -408 134 -434 Q 142 -460 160.5 -478.5 Q 179 -497 205 -505 Q 231 -513 257 -513 Q 283 -513 309 -505 Q 335 -497 353.5 -478.5 Q 372 -460 380 -434 Q 388 -408 388 -382 Q 388 -356 380 -330 Q 372 -304 353.5 -285.5 Q 335 -267 309 -259 Q 283 -251 257 -251 Z M 257 -303 Q 273 -303 288.5 -308 Q 304 -313 315 -324 Q 326 -335 331 -350.5 Q 336 -366 336 -382 Q 336 -398 331 -413.5 Q 326 -429 315 -440 Q 304 -451 288.5 -456 Q 273 -461 257 -461 Q 241 -461 225.5 -456 Q 210 -451 199 -440 Q 188 -429 183 -413.5 Q 178 -398 178 -382 Q 178 -366 183 -350.5 Q 188 -335 199 -324 Q 210 -313 225.5 -308 Q 241 -303 257 -303 Z " id="path28"/>
<path d="M 357 8 Q 337 8 318 2 Q 299 -4 285 -19 L 285 0 L 215 0 L 215 -394 Q 215 -406 213 -418 Q 211 -430 205 -440.5 Q 199 -451 188 -457.5 Q 177 -464 165 -464 Q 153 -464 142.5 -457.5 Q 132 -451 126 -440.5 Q 120 -430 118 -418 Q 116 -406 116 -394 L 116 0 L 45 0 L 45 -520 L 116 -520 L 116 -472 Q 121 -484 128 -494.5 Q 135 -505 145.5 -513 Q 156 -521 168.5 -524.5 Q 181 -528 194 -528 Q 209 -528 224 -522.5 Q 239 -517 250 -506 Q 261 -495 268 -481 Q 275 -467 279 -452 Q 283 -467 290 -481 Q 297 -495 307.5 -506 Q 318 -517 333 -522.5 Q 348 -528 363 -528 Q 379 -528 393.5 -523 Q 408 -518 419 -507 Q 430 -496 437 -482.5 Q 444 -469 448 -454 Q 452 -439 453.5 -424 Q 455 -409 455 -394 L 455 -182 L 501 -182 L 501 -125 L 455 -125 Q 455 -110 453 -94.5 Q 451 -79 446.5 -64 Q 442 -49 434 -35.5 Q 426 -22 414.5 -11.5 Q 403 -1 388 3.5 Q 373 8 357 8 Z M 285 -158 Q 299 -172 318.5 -177 Q 338 -182 358 -182 L 384 -182 L 384 -394 Q 384 -406 382 -418 Q 380 -430 374 -440.5 Q 368 -451 357.5 -457.5 Q 347 -464 335 -464 Q 323 -464 312 -457.5 Q 301 -451 295 -440.5 Q 289 -430 287 -418 Q 285 -406 285 -394 Z M 353 -49 Q 361 -49 366.5 -54.5 Q 372 -60 375 -66.5 Q 378 -73 379.5 -80.5 Q 381 -88 382 -95.5 Q 383 -103 383.5 -110.5 Q 384 -118 384 -125 L 358 -125 Q 351 -125 343.5 -123 Q 336 -121 331.5 -115.5 Q 327 -110 325.5 -102.5 Q 324 -95 324 -88 Q 324 -81 325 -74 Q 326 -67 330 -61.5 Q 334 -56 340 -52.5 Q 346 -49 353 -49 Z " id="path29"/>
<path d="M 326 8 Q 304 8 283 1.5 Q 262 -5 246.5 -20 Q 231 -35 224 -56.5 Q 217 -78 217 -99 Q 217 -114 220 -128.5 Q 223 -143 229.5 -156 Q 236 -169 246 -179.5 Q 256 -190 269.5 -196.5 Q 283 -203 297.5 -204.5 Q 312 -206 326 -206 L 364 -206 L 364 -320 Q 364 -337 362 -354.5 Q 360 -372 354 -388 Q 348 -404 338.5 -418.5 Q 329 -433 315 -443.5 Q 301 -454 284 -458.5 Q 267 -463 250 -463 Q 233 -463 216 -458.5 Q 199 -454 185 -443.5 Q 171 -433 161.5 -418.5 Q 152 -404 146 -388 Q 140 -372 138 -354.5 Q 136 -337 136 -320 L 136 0 L 64 0 L 64 -520 L 136 -520 L 136 -425 Q 144 -447 157.5 -467 Q 171 -487 189.5 -501 Q 208 -515 231.5 -521.5 Q 255 -528 278 -528 Q 303 -528 327 -521 Q 351 -514 370 -498.5 Q 389 -483 402 -462 Q 415 -441 423 -417.5 Q 431 -394 433.5 -369.5 Q 436 -345 436 -320 L 436 -206 L 482 -206 L 482 -146 L 436 -146 L 436 -126 Q 436 -110 433.5 -94 Q 431 -78 425 -62.5 Q 419 -47 410 -33.5 Q 401 -20 387.5 -10 Q 374 -0 358 4 Q 342 8 326 8 Z M 323 -52 Q 336 -52 344.5 -62 Q 353 -72 357 -84 Q 361 -96 362.5 -108.5 Q 364 -121 364 -134 L 364 -146 L 326 -146 Q 317 -146 308 -143.5 Q 299 -141 293 -134 Q 287 -127 285 -118 Q 283 -109 283 -100 Q 283 -91 285 -82.5 Q 287 -74 292 -66.5 Q 297 -59 305.5 -55.5 Q 314 -52 323 -52 Z " id="path30"/>
<path d="M 308 223 Q 284 223 260.5 216 Q 237 209 220 192.5 Q 203 176 195.5 153 Q 188 130 188 106 Q 188 85 193 64 Q 198 43 210.5 26 Q 223 9 243 0.5 Q 263 -8 285 -8 Q 304 -8 322.5 -2.5 Q 341 3 358 12 L 358 -320 Q 358 -337 356 -353.5 Q 354 -370 349 -385.5 Q 344 -401 334.5 -415 Q 325 -429 312 -439 Q 299 -449 283 -453.5 Q 267 -458 250 -458 Q 233 -458 217 -453.5 Q 201 -449 188 -439 Q 175 -429 165.5 -415 Q 156 -401 151 -385.5 Q 146 -370 144 -353.5 Q 142 -337 142 -320 L 142 0 L 64 0 L 64 -520 L 142 -520 L 142 -425 Q 150 -447 162.5 -467 Q 175 -487 193.5 -501 Q 212 -515 235 -521.5 Q 258 -528 281 -528 Q 306 -528 329.5 -521 Q 353 -514 372 -498 Q 391 -482 403.5 -461 Q 416 -440 423.5 -416.5 Q 431 -393 433.5 -368.5 Q 436 -344 436 -320 L 436 0 Q 436 20 434.5 39.5 Q 433 59 430 79 Q 447 103 460.5 129.5 Q 474 156 487 182 L 488 184 L 425 211 Q 420 198 414.5 185.5 Q 409 173 403 161 Q 396 174 386.5 186 Q 377 198 364.5 206.5 Q 352 215 337.5 219 Q 323 223 308 223 Z M 303 161 Q 316 161 325 151 Q 334 141 339 130 Q 344 119 347 107 Q 350 95 352 83 Q 338 70 320.5 62 Q 303 54 285 54 Q 277 54 271 60 Q 265 66 262.5 73.5 Q 260 81 259 89 Q 258 97 258 105 Q 258 116 260 126 Q 262 136 268 144 Q 274 152 283.5 156.5 Q 293 161 303 161 Z " id="path31"/>
<path d="M 196 9 L 77 -68 L 77 -404 L 126 -453 L 287 -529 L 304 -529 Q 334 -510 357.5 -484 Q 381 -458 397.5 -427 Q 414 -396 422.5 -362 Q 431 -328 431 -293 L 431 -276 Q 431 -251 425 -226 Q 419 -201 408 -178 Q 397 -155 381.5 -134.5 Q 366 -114 347 -97 L 316 -65 Q 294 -42 268 -23.5 Q 242 -5 213 9 Z M 255 -63 Q 270 -70 284.5 -79.5 Q 299 -89 313 -99 Q 336 -129 349.5 -164 Q 363 -199 365 -236 Q 363 -269 354.5 -300.5 Q 346 -332 331 -361 Q 316 -390 294 -414.5 Q 272 -439 245 -457 L 143 -410 L 143 -134 Z " id="path32"/>
<path d="M 196 9 L 77 -68 L 77 -404 L 126 -453 L 287 -529 L 304 -529 Q 334 -510 357.5 -484 Q 381 -458 397.5 -427 Q 414 -396 422.5 -362 Q 431 -328 431 -293 L 431 -276 Q 431 -251 425 -226 Q 419 -201 408 -178 Q 397 -155 381.5 -134.5 Q 366 -114 347 -97 L 316 -65 Q 294 -42 268 -23.5 Q 242 -5 213 9 Z M 255 -63 Q 270 -70 284.5 -79.5 Q 299 -89 313 -99 Q 336 -129 349.5 -164 Q 363 -199 365 -236 Q 363 -269 354.5 -300.5 Q 346 -332 331 -361 Q 316 -390 294 -414.5 Q 272 -439 245 -457 L 143 -410 L 143 -134 Z M 137 62 L 88 42 L 363 -582 L 412 -562 Z " id="path33"/>
<path d="M 253 8 Q 228 8 203 4 Q 178 0 156 -11 Q 134 -22 115.5 -39.5 Q 97 -57 85 -79 Q 73 -101 67.5 -125.5 Q 62 -150 62 -175 L 62 -180 L 140 -180 L 140 -177 Q 140 -154 147 -132 Q 154 -110 170 -93.5 Q 186 -77 208 -69.5 Q 230 -62 253 -62 Q 270 -62 286.5 -66 Q 303 -70 317 -80 Q 331 -90 340.5 -104 Q 350 -118 356 -133.5 Q 362 -149 364 -166 Q 366 -183 366 -200 L 366 -320 Q 366 -337 364 -354 Q 362 -371 356 -386.5 Q 350 -402 340.5 -416 Q 331 -430 317 -440 Q 303 -450 286.5 -454 Q 270 -458 253 -458 Q 230 -458 208 -450.5 Q 186 -443 170 -426.5 Q 154 -410 147 -388 Q 140 -366 140 -343 L 140 -340 L 62 -340 L 62 -345 Q 62 -370 67.5 -394.5 Q 73 -419 85 -441 Q 97 -463 115.5 -480.5 Q 134 -498 156 -509 Q 178 -520 203 -524 Q 228 -528 253 -528 Q 280 -528 306.5 -522.5 Q 333 -517 356 -503.5 Q 379 -490 396.5 -469.5 Q 414 -449 425 -424.5 Q 436 -400 440 -373.5 Q 444 -347 444 -320 L 444 -200 Q 444 -173 440 -146.5 Q 436 -120 425 -95.5 Q 414 -71 396.5 -50.5 Q 379 -30 356 -16.5 Q 333 -3 306.5 2.5 Q 280 8 253 8 Z M 137 62 L 88 42 L 363 -582 L 412 -562 Z " id="path34"/>
<path d="M 164 8 Q 147 8 129.5 4 Q 112 -0 97 -10 Q 82 -20 71 -34.5 Q 60 -49 53.5 -65.5 Q 47 -82 45 -99.5 Q 43 -117 43 -135 L 43 -385 Q 43 -403 45 -420.5 Q 47 -438 53.5 -454.5 Q 60 -471 71 -485.5 Q 82 -500 97 -510 Q 112 -520 129.5 -524 Q 147 -528 164 -528 Q 188 -528 211 -520 Q 234 -512 250 -495 Q 266 -512 288.5 -520 Q 311 -528 335 -528 Q 352 -528 369.5 -523.5 Q 387 -519 401.5 -508.5 Q 416 -498 426.5 -483.5 Q 437 -469 443.5 -452.5 Q 450 -436 452.5 -418 Q 455 -400 455 -383 L 455 -375 L 383 -375 L 383 -379 Q 383 -393 381 -406 Q 379 -419 374 -431.5 Q 369 -444 358.5 -453.5 Q 348 -463 335 -463 Q 322 -463 311 -455 Q 300 -447 295 -435.5 Q 290 -424 288 -411 Q 286 -398 286 -385 L 286 -293 L 457 -293 L 457 -135 Q 457 -117 455 -99.5 Q 453 -82 446.5 -65.5 Q 440 -49 429 -34.5 Q 418 -20 403 -10 Q 388 -0 370.5 4 Q 353 8 336 8 Q 312 8 289 0 Q 266 -8 250 -25 Q 234 -8 211 0 Q 188 8 164 8 Z M 164 -57 Q 177 -57 188 -65 Q 199 -73 204.5 -84.5 Q 210 -96 212 -109 Q 214 -122 214 -135 L 214 -385 Q 214 -398 212 -411 Q 210 -424 204.5 -435.5 Q 199 -447 188 -455 Q 177 -463 164 -463 Q 152 -463 141 -455 Q 130 -447 124.5 -435.5 Q 119 -424 117 -411 Q 115 -398 115 -385 L 115 -135 Q 115 -122 117 -109 Q 119 -96 124.5 -84.5 Q 130 -73 141 -65 Q 152 -57 164 -57 Z M 336 -57 Q 348 -57 359 -65 Q 370 -73 375.5 -84.5 Q 381 -96 383 -109 Q 385 -122 385 -135 L 385 -227 L 286 -227 L 286 -135 Q 286 -122 288 -109 Q 290 -96 295.5 -84.5 Q 301 -73 312 -65 Q 323 -57 336 -57 Z " id="path35"/>
<path d="M 164 8 Q 147 8 129.5 4 Q 112 -0 97 -10 Q 82 -20 71 -34.5 Q 60 -49 53.5 -65.5 Q 47 -82 45 -99.5 Q 43 -117 43 -135 L 43 -293 L 214 -293 L 214 -385 Q 214 -398 212 -411 Q 210 -424 205 -435.5 Q 200 -447 189 -455 Q 178 -463 165 -463 Q 152 -463 141.5 -453.5 Q 131 -444 126 -431.5 Q 121 -419 119 -406 Q 117 -393 117 -379 L 117 -375 L 45 -375 L 45 -383 Q 45 -400 47.5 -418 Q 50 -436 56.5 -452.5 Q 63 -469 73.5 -483.5 Q 84 -498 98.5 -508.5 Q 113 -519 130.5 -523.5 Q 148 -528 165 -528 Q 189 -528 211.5 -520 Q 234 -512 250 -495 Q 266 -512 289 -520 Q 312 -528 336 -528 Q 353 -528 370.5 -524 Q 388 -520 403 -510 Q 418 -500 429 -485.5 Q 440 -471 446.5 -454.5 Q 453 -438 455 -420.5 Q 457 -403 457 -385 L 457 -135 Q 457 -117 455 -99.5 Q 453 -82 446.5 -65.5 Q 440 -49 429 -34.5 Q 418 -20 403 -10 Q 388 -0 370.5 4 Q 353 8 336 8 Q 312 8 289 0 Q 266 -8 250 -25 Q 234 -8 211 0 Q 188 8 164 8 Z M 336 -57 Q 348 -57 359 -65 Q 370 -73 375.5 -84.5 Q 381 -96 383 -109 Q 385 -122 385 -135 L 385 -385 Q 385 -398 383 -411 Q 381 -424 375.5 -435.5 Q 370 -447 359 -455 Q 348 -463 336 -463 Q 323 -463 312 -455 Q 301 -447 295.5 -435.5 Q 290 -424 288 -411 Q 286 -398 286 -385 L 286 -135 Q 286 -122 288 -109 Q 290 -96 295.5 -84.5 Q 301 -73 312 -65 Q 323 -57 336 -57 Z M 164 -57 Q 177 -57 188 -65 Q 199 -73 204.5 -84.5 Q 210 -96 212 -109 Q 214 -122 214 -135 L 214 -227 L 115 -227 L 115 -135 Q 115 -122 117 -109 Q 119 -96 124.5 -84.5 Q 130 -73 141 -65 Q 152 -57 164 -57 Z M 261 33 L 213 19 L 410 -553 L 458 -539 Z " id="path36"/>
<path d="M 164 8 Q 147 8 129.5 4 Q 112 -0 97 -10 Q 82 -20 71 -34.5 Q 60 -49 53.5 -65.5 Q 47 -82 45 -99.5 Q 43 -117 43 -135 L 43 -293 L 214 -293 L 214 -385 Q 214 -398 212 -411 Q 210 -424 205 -435.5 Q 200 -447 189 -455 Q 178 -463 165 -463 Q 152 -463 141.5 -453.5 Q 131 -444 126 -431.5 Q 121 -419 119 -406 Q 117 -393 117 -379 L 117 -375 L 45 -375 L 45 -383 Q 45 -400 47.5 -418 Q 50 -436 56.5 -452.5 Q 63 -469 73.5 -483.5 Q 84 -498 98.5 -508.5 Q 113 -519 130.5 -523.5 Q 148 -528 165 -528 Q 189 -528 211.5 -520 Q 234 -512 250 -495 Q 266 -512 289 -520 Q 312 -528 336 -528 Q 353 -528 370.5 -524 Q 388 -520 403 -510 Q 418 -500 429 -485.5 Q 440 -471 446.5 -454.5 Q 453 -438 455 -420.5 Q 457 -403 457 -385 L 457 -135 Q 457 -117 455 -99.5 Q 453 -82 446.5 -65.5 Q 440 -49 429 -34.5 Q 418 -20 403 -10 Q 388 -0 370.5 4 Q 353 8 336 8 Q 312 8 289 0 Q 266 -8 250 -25 Q 234 -8 211 0 Q 188 8 164 8 Z M 336 -57 Q 348 -57 359 -65 Q 370 -73 375.5 -84.5 Q 381 -96 383 -109 Q 385 -122 385 -135 L 385 -385 Q 385 -398 383 -411 Q 381 -424 375.5 -435.5 Q 370 -447 359 -455 Q 348 -463 336 -463 Q 323 -463 312 -455 Q 301 -447 295.5 -435.5 Q 290 -424 288 -411 Q 286 -398 286 -385 L 286 -135 Q 286 -122 288 -109 Q 290 -96 295.5 -84.5 Q 301 -73 312 -65 Q 323 -57 336 -57 Z M 164 -57 Q 177 -57 188 -65 Q 199 -73 204.5 -84.5 Q 210 -96 212 -109 Q 214 -122 214 -135 L 214 -227 L 115 -227 L 115 -135 Q 115 -122 117 -109 Q 119 -96 124.5 -84.5 Q 130 -73 141 -65 Q 152 -57 164 -57 Z M 456 -229 L 215 -229 L 215 -291 L 456 -291 Z " id="path37"/>
<path d="M 64 0 L 64 -117 Q 64 -140 67 -162.5 Q 70 -185 77.5 -206.5 Q 85 -228 98 -247.5 Q 111 -267 128.5 -281.5 Q 146 -296 167.5 -305 Q 189 -314 211 -317 L 211 -520 L 289 -520 L 289 -317 Q 311 -314 332.5 -305 Q 354 -296 371.5 -281.5 Q 389 -267 402 -247.5 Q 415 -228 422.5 -206.5 Q 430 -185 433 -162.5 Q 436 -140 436 -117 L 436 0 L 358 0 L 358 -117 Q 358 -133 356 -149.5 Q 354 -166 348.5 -181 Q 343 -196 334 -209.5 Q 325 -223 311.5 -232.5 Q 298 -242 282 -246 Q 266 -250 250 -250 Q 234 -250 218 -246 Q 202 -242 188.5 -232.5 Q 175 -223 166 -209.5 Q 157 -196 151.5 -181 Q 146 -166 144 -149.5 Q 142 -133 142 -117 L 142 0 Z " id="path38"/>
<path d="M 460 215 L 378 215 L 224 -200 L 142 -200 L 142 0 L 64 0 L 64 -520 L 281 -520 Q 302 -520 323.5 -516.5 Q 345 -513 364.5 -503.5 Q 384 -494 400 -478.5 Q 416 -463 426 -444 Q 436 -425 440 -403.5 Q 444 -382 444 -360 Q 444 -331 436 -302 Q 428 -273 409 -250.5 Q 390 -228 362.5 -215.5 Q 335 -203 306 -201 Z M 142 -270 L 281 -270 Q 298 -270 315.5 -276 Q 333 -282 345 -295 Q 357 -308 361.5 -325 Q 366 -342 366 -360 Q 366 -378 361.5 -395 Q 357 -412 345 -425.5 Q 333 -439 315.5 -444.5 Q 298 -450 281 -450 L 142 -450 Z " id="path39"/>
<path d="M 63 0 L 63 -70 L 101 -70 Q 117 -70 133 -74 Q 149 -78 163 -87 Q 177 -96 186.5 -110 Q 196 -124 201.5 -139.5 Q 207 -155 209 -171 Q 211 -187 211 -204 L 211 -531 Q 211 -558 215 -584 Q 219 -610 229.5 -634 Q 240 -658 257.5 -678.5 Q 275 -699 298 -712 Q 321 -725 347 -730 Q 373 -735 399 -735 L 438 -735 L 438 -665 L 399 -665 Q 383 -665 367 -661 Q 351 -657 337 -648 Q 323 -639 313.5 -625 Q 304 -611 298.5 -595.5 Q 293 -580 291 -564 Q 289 -548 289 -531 L 289 -204 Q 289 -177 285 -151 Q 281 -125 270.5 -101 Q 260 -77 242.5 -56.5 Q 225 -36 202 -23 Q 179 -10 153 -5 Q 127 -0 101 0 Z " id="path40"/>
<path d="M 219 8 Q 194 8 170.5 1 Q 147 -6 128 -22 Q 109 -38 96.5 -59 Q 84 -80 76.5 -103.5 Q 69 -127 66.5 -151.5 Q 64 -176 64 -200 L 64 -520 L 142 -520 L 142 -200 Q 142 -183 144 -166.5 Q 146 -150 151 -134.5 Q 156 -119 165.5 -105 Q 175 -91 188 -81 Q 201 -71 217 -66.5 Q 233 -62 250 -62 Q 267 -62 283 -66.5 Q 299 -71 312 -81 Q 325 -91 334.5 -105 Q 344 -119 349 -134.5 Q 354 -150 356 -166.5 Q 358 -183 358 -200 L 358 -360 L 436 -360 L 436 0 L 358 0 L 358 -95 Q 350 -73 337.5 -53 Q 325 -33 306.5 -19 Q 288 -5 265 1.5 Q 242 8 219 8 Z " id="path41"/>
<path d="M 219 8 Q 194 8 170.5 1 Q 147 -6 128 -22 Q 109 -38 96.5 -59 Q 84 -80 76.5 -103.5 Q 69 -127 66.5 -151.5 Q 64 -176 64 -200 L 64 -520 L 142 -520 L 142 -200 Q 142 -183 144 -166.5 Q 146 -150 151 -134.5 Q 156 -119 165.5 -105 Q 175 -91 188 -81 Q 201 -71 217 -66.5 Q 233 -62 250 -62 Q 267 -62 283 -66.5 Q 299 -71 312 -81 Q 325 -91 334.5 -105 Q 344 -119 349 -134.5 Q 354 -150 356 -166.5 Q 358 -183 358 -200 L 358 -360 L 436 -360 L 436 0 L 358 0 L 358 -95 Q 350 -73 337.5 -53 Q 325 -33 306.5 -19 Q 288 -5 265 1.5 Q 242 8 219 8 Z M 32 -229 L 32 -291 L 468 -291 L 468 -229 Z " id="path42"/>
<path d="M 64 -351 Q 64 -372 57.5 -393 Q 51 -414 36 -429.5 Q 21 -445 0 -451.5 Q -21 -458 -42 -458 L -42 -528 Q -18 -528 6 -524 Q 30 -520 52 -509.5 Q 74 -499 92 -482.5 Q 110 -466 121.5 -444.5 Q 133 -423 137.5 -399 Q 142 -375 142 -351 Z M 219 8 Q 194 8 170.5 1 Q 147 -6 128 -22 Q 109 -38 96.5 -59 Q 84 -80 76.5 -103.5 Q 69 -127 66.5 -151.5 Q 64 -176 64 -200 L 64 -351 L 142 -351 L 142 -200 Q 142 -183 144 -166.5 Q 146 -150 151 -134.5 Q 156 -119 165.5 -105 Q 175 -91 188 -81 Q 201 -71 217 -66.5 Q 233 -62 250 -62 Q 267 -62 283 -66.5 Q 299 -71 312 -81 Q 325 -91 334.5 -105 Q 344 -119 349 -134.5 Q 354 -150 356 -166.5 Q 358 -183 358 -200 L 358 -520 L 436 -520 L 436 0 L 358 0 L 358 -95 Q 350 -73 337.5 -53 Q 325 -33 306.5 -19 Q 288 -5 265 1.5 Q 242 8 219 8 Z " id="path43"/>
<path d="M 133 215 L 48 215 L 211 -153 L 48 -520 L 133 -520 L 250 -244 L 367 -520 L 452 -520 L 289 -153 L 452 215 L 367 215 L 250 -61 Z " id="path44"/>
<path d="M 250 -278 Q 221 -278 192 -285.5 Q 163 -293 139.5 -310.5 Q 116 -328 99 -352.5 Q 82 -377 72.5 -404.5 Q 63 -432 59.5 -461.5 Q 56 -491 56 -520 L 134 -520 Q 134 -501 135.5 -481.5 Q 137 -462 142 -443 Q 147 -424 156 -406.5 Q 165 -389 179 -375.5 Q 193 -362 212 -355 Q 231 -348 250 -348 Q 269 -348 288 -355 Q 307 -362 321 -375.5 Q 335 -389 344 -406.5 Q 353 -424 358 -443 Q 363 -462 364.5 -481.5 Q 366 -501 366 -520 L 444 -520 Q 444 -491 440.5 -461.5 Q 437 -432 427.5 -404.5 Q 418 -377 401 -352.5 Q 384 -328 360.5 -310.5 Q 337 -293 308 -285.5 Q 279 -278 250 -278 Z M 56 0 Q 56 -29 59.5 -58.5 Q 63 -88 72.5 -115.5 Q 82 -143 99 -167.5 Q 116 -192 139.5 -209.5 Q 163 -227 192 -234.5 Q 221 -242 250 -242 Q 279 -242 308 -234.5 Q 337 -227 360.5 -209.5 Q 384 -192 401 -167.5 Q 418 -143 427.5 -115.5 Q 437 -88 440.5 -58.5 Q 444 -29 444 0 L 366 0 Q 366 -19 364.5 -38.5 Q 363 -58 358 -77 Q 353 -96 344 -113.5 Q 335 -131 321 -144.5 Q 307 -158 288 -165 Q 269 -172 250 -172 Q 231 -172 212 -165 Q 193 -158 179 -144.5 Q 165 -131 156 -113.5 Q 147 -96 142 -77 Q 137 -58 135.5 -38.5 Q 134 -19 134 0 Z " id="path45"/>
<path d="M 238 -172 L 238 -235 L 256 -235 Q 270 -235 283.5 -239.5 Q 297 -244 306 -254.5 Q 315 -265 318.5 -278.5 Q 322 -292 322 -306 L 322 -547 Q 322 -563 318.5 -578.5 Q 315 -594 305 -606 Q 295 -618 280.5 -624 Q 266 -630 250 -630 Q 234 -630 219.5 -624 Q 205 -618 195 -606 Q 185 -594 181.5 -578.5 Q 178 -563 178 -547 L 178 -323 L 109 -323 L 109 -838 L 178 -838 L 178 -622 Q 184 -638 193.5 -651.5 Q 203 -665 216.5 -674.5 Q 230 -684 246 -688.5 Q 262 -693 279 -693 Q 296 -693 313 -688 Q 330 -683 344 -672.5 Q 358 -662 367 -647 Q 376 -632 381.5 -615.5 Q 387 -599 389 -581.5 Q 391 -564 391 -547 L 391 -306 Q 391 -288 388 -270 Q 385 -252 377 -236 Q 369 -220 355.5 -207.5 Q 342 -195 326 -187 Q 310 -179 292 -175.5 Q 274 -172 256 -172 Z " id="path46"/>
<path d="M 373 -323 L 128 -323 L 128 -385 L 220 -385 L 220 -565 L 181 -565 Q 176 -565 171 -563.5 Q 166 -562 162.5 -558 Q 159 -554 158 -548.5 Q 157 -543 157 -538 Q 157 -533 158 -527.5 Q 159 -522 162.5 -518 Q 166 -514 171 -512.5 Q 176 -511 181 -511 L 181 -460 Q 165 -460 149.5 -464.5 Q 134 -469 122.5 -480 Q 111 -491 106 -506.5 Q 101 -522 101 -538 Q 101 -554 106 -569.5 Q 111 -585 122.5 -596 Q 134 -607 149.5 -611.5 Q 165 -616 181 -616 L 220 -616 L 220 -775 L 137 -775 L 137 -838 L 290 -838 L 290 -616 L 329 -616 Q 334 -616 339 -617.5 Q 344 -619 347.5 -623 Q 351 -627 352 -632.5 Q 353 -638 353 -643 Q 353 -648 352 -653.5 Q 351 -659 347.5 -663 Q 344 -667 339 -668.5 Q 334 -670 329 -670 L 329 -721 Q 345 -721 360.5 -716.5 Q 376 -712 387.5 -701 Q 399 -690 404 -674.5 Q 409 -659 409 -643 Q 409 -627 404 -611.5 Q 399 -596 387.5 -585 Q 376 -574 360.5 -569.5 Q 345 -565 329 -565 L 290 -565 L 290 -385 L 373 -385 Z " id="path47"/>
<path d="M 373 -323 L 128 -323 L 128 -385 L 220 -385 L 220 -588 Q 220 -589 219 -590 L 218 -590 Q 212 -586 208.5 -581.5 Q 205 -577 200.5 -571.5 Q 196 -566 191.5 -558.5 Q 187 -551 182 -542 L 133 -566 Q 139 -577 144.5 -586 Q 150 -595 155.5 -602.5 Q 161 -610 167 -616 Q 173 -622 181 -628 Q 189 -634 198.5 -637.5 Q 208 -641 218 -641 L 220 -641 L 220 -775 L 137 -775 L 137 -838 L 290 -838 L 290 -593 Q 290 -592 291 -592 L 292 -591 Q 298 -595 301.5 -599.5 Q 305 -604 309 -609.5 Q 313 -615 318 -622.5 Q 323 -630 328 -640 L 377 -615 Q 371 -604 365.5 -595 Q 360 -586 354 -579 Q 348 -572 342.5 -565.5 Q 337 -559 329 -553 Q 321 -547 311.5 -543.5 Q 302 -540 292 -540 L 290 -540 L 290 -385 L 373 -385 Z " id="path48"/>
<path d="M 109 -562 Q 109 -576 105 -589 Q 101 -602 91.5 -612 Q 82 -622 69 -626 Q 56 -630 42 -630 L 42 -693 Q 60 -693 78 -690 Q 96 -687 112 -679.5 Q 128 -672 141.5 -659.5 Q 155 -647 163 -631 Q 171 -615 174.5 -597.5 Q 178 -580 178 -562 Z M 221 -317 Q 204 -317 187 -322 Q 170 -327 156 -337.5 Q 142 -348 133 -363 Q 124 -378 118.5 -394.5 Q 113 -411 111 -428.5 Q 109 -446 109 -463 L 109 -562 L 178 -562 L 178 -463 Q 178 -447 181.5 -431.5 Q 185 -416 195 -404 Q 205 -392 219.5 -386 Q 234 -380 250 -380 Q 266 -380 280.5 -386 Q 295 -392 305 -404 Q 315 -416 318.5 -431.5 Q 322 -447 322 -463 L 322 -687 L 391 -687 L 391 -323 L 322 -323 L 322 -388 Q 316 -372 306.5 -358.5 Q 297 -345 283.5 -335.5 Q 270 -326 254 -321.5 Q 238 -317 221 -317 Z " id="path49"/>
<path d="M 51 0 L 51 -520 L 286 -520 L 286 -321 L 326 -321 Q 345 -321 364.5 -316 Q 384 -311 400 -300 Q 416 -289 427.5 -272.5 Q 439 -256 445.5 -237.5 Q 452 -219 454.5 -199.5 Q 457 -180 457 -161 Q 457 -141 454.5 -121.5 Q 452 -102 445.5 -83.5 Q 439 -65 427.5 -48.5 Q 416 -32 400 -21 Q 384 -10 364.5 -5 Q 345 -0 326 0 L 214 0 L 214 -455 L 123 -455 L 123 0 Z M 286 -65 L 326 -65 Q 341 -65 354 -75 Q 367 -85 374 -99 Q 381 -113 383 -129 Q 385 -145 385 -161 Q 385 -176 383 -192 Q 381 -208 374 -222 Q 367 -236 354 -246 Q 341 -256 326 -256 L 286 -256 Z " id="path50"/>
<path d="M 335 8 Q 317 8 299.5 4 Q 282 -0 267 -10 Q 252 -20 241.5 -34.5 Q 231 -49 224.5 -65.5 Q 218 -82 216 -99.5 Q 214 -117 214 -135 L 214 -227 L 123 -227 L 123 0 L 51 0 L 51 -520 L 123 -520 L 123 -293 L 214 -293 L 214 -385 Q 214 -403 216.5 -420.5 Q 219 -438 225 -454.5 Q 231 -471 242 -485.5 Q 253 -500 268 -510 Q 283 -520 300.5 -524 Q 318 -528 336 -528 Q 353 -528 370.5 -524 Q 388 -520 403 -510 Q 418 -500 429 -485.5 Q 440 -471 446.5 -454.5 Q 453 -438 455 -420.5 Q 457 -403 457 -385 L 457 -227 L 286 -227 L 286 -135 Q 286 -122 288 -109 Q 290 -96 295 -84.5 Q 300 -73 311 -65 Q 322 -57 335 -57 Q 348 -57 358.5 -66.5 Q 369 -76 374 -88.5 Q 379 -101 381 -114 Q 383 -127 383 -141 L 383 -145 L 455 -145 L 455 -137 Q 455 -120 452.5 -102 Q 450 -84 443.5 -67.5 Q 437 -51 426.5 -36.5 Q 416 -22 401.5 -11.5 Q 387 -1 369.5 3.5 Q 352 8 335 8 Z M 286 -293 L 385 -293 L 385 -385 Q 385 -398 383 -411 Q 381 -424 375.5 -435.5 Q 370 -447 359 -455 Q 348 -463 336 -463 Q 323 -463 312 -455 Q 301 -447 295.5 -435.5 Q 290 -424 288 -411 Q 286 -398 286 -385 Z " id="path51"/>
<path d="M 168 8 Q 148 8 129 0.5 Q 110 -7 96 -21.5 Q 82 -36 73 -54 Q 64 -72 58.5 -91.5 Q 53 -111 51 -131 Q 49 -151 49 -171 L 49 -180 L 121 -180 L 121 -174 Q 121 -163 121.5 -151.5 Q 122 -140 124 -128.5 Q 126 -117 128.5 -106 Q 131 -95 135.5 -84.5 Q 140 -74 148.5 -65.5 Q 157 -57 168 -57 Q 181 -57 191 -65.5 Q 201 -74 206 -85.5 Q 211 -97 212.5 -109.5 Q 214 -122 214 -135 L 214 -385 Q 214 -398 212.5 -410.5 Q 211 -423 206 -434.5 Q 201 -446 191 -454.5 Q 181 -463 168 -463 Q 157 -463 148.5 -454.5 Q 140 -446 135.5 -435.5 Q 131 -425 128.5 -414 Q 126 -403 124 -391.5 Q 122 -380 121.5 -368.5 Q 121 -357 121 -346 L 121 -340 L 49 -340 L 49 -349 Q 49 -369 51 -389 Q 53 -409 58.5 -428.5 Q 64 -448 73 -466 Q 82 -484 96 -498.5 Q 110 -513 129 -520.5 Q 148 -528 168 -528 Q 191 -528 213 -520 Q 235 -512 251 -496 Q 267 -512 289.5 -520 Q 312 -528 336 -528 Q 353 -528 370.5 -524 Q 388 -520 403 -510 Q 418 -500 429 -485.5 Q 440 -471 446.5 -454.5 Q 453 -438 455 -420.5 Q 457 -403 457 -385 L 457 -227 L 286 -227 L 286 -135 Q 286 -122 288 -109 Q 290 -96 295 -84.5 Q 300 -73 311 -65 Q 322 -57 335 -57 Q 348 -57 358.5 -66.5 Q 369 -76 374 -88.5 Q 379 -101 381 -114 Q 383 -127 383 -141 L 383 -145 L 455 -145 L 455 -137 Q 455 -120 452.5 -102 Q 450 -84 443.5 -67.5 Q 437 -51 426.5 -36.5 Q 416 -22 401.5 -11.5 Q 387 -1 369.5 3.5 Q 352 8 335 8 Q 311 8 289 0.5 Q 267 -7 250 -24 Q 235 -8 213 0 Q 191 8 168 8 Z M 286 -293 L 385 -293 L 385 -385 Q 385 -398 383 -411 Q 381 -424 375.5 -435.5 Q 370 -447 359 -455 Q 348 -463 336 -463 Q 323 -463 312 -455 Q 301 -447 295.5 -435.5 Q 290 -424 288 -411 Q 286 -398 286 -385 Z " id="path52"/>
<path d="M 140 8 Q 124 8 109.5 2 Q 95 -4 84.5 -16 Q 74 -28 67.5 -42.5 Q 61 -57 57 -72.5 Q 53 -88 52 -103.5 Q 51 -119 51 -135 L 51 -520 L 123 -520 L 123 -135 Q 123 -122 124.5 -109.5 Q 126 -97 131 -85.5 Q 136 -74 146 -65.5 Q 156 -57 168 -57 Q 181 -57 191 -65.5 Q 201 -74 206 -85.5 Q 211 -97 212.5 -109.5 Q 214 -122 214 -135 L 214 -385 Q 214 -403 216.5 -420.5 Q 219 -438 225 -454.5 Q 231 -471 242 -485.5 Q 253 -500 268 -510 Q 283 -520 300.5 -524 Q 318 -528 336 -528 Q 353 -528 370.5 -524 Q 388 -520 403 -510 Q 418 -500 429 -485.5 Q 440 -471 446.5 -454.5 Q 453 -438 455 -420.5 Q 457 -403 457 -385 L 457 -135 Q 457 -117 455 -99.5 Q 453 -82 446.5 -65.5 Q 440 -49 429 -34.5 Q 418 -20 403 -10 Q 388 -0 370.5 4 Q 353 8 336 8 Q 317 8 298.5 3.5 Q 280 -1 265 -11.5 Q 250 -22 239.5 -38 Q 229 -54 223 -71 Q 219 -56 212.5 -41.5 Q 206 -27 195.5 -15.5 Q 185 -4 170.5 2 Q 156 8 140 8 Z M 336 -57 Q 348 -57 359 -65 Q 370 -73 375.5 -84.5 Q 381 -96 383 -109 Q 385 -122 385 -135 L 385 -385 Q 385 -398 383 -411 Q 381 -424 375.5 -435.5 Q 370 -447 359 -455 Q 348 -463 336 -463 Q 323 -463 312 -455 Q 301 -447 295.5 -435.5 Q 290 -424 288 -411 Q 286 -398 286 -385 L 286 -135 Q 286 -122 288 -109 Q 290 -96 295.5 -84.5 Q 301 -73 312 -65 Q 323 -57 336 -57 Z " id="path53"/>
<path d="M 215 8 Q 190 8 166 1 Q 142 -6 122.5 -21.5 Q 103 -37 90 -58 Q 77 -79 69 -102.5 Q 61 -126 58.5 -150.5 Q 56 -175 56 -200 L 56 -320 Q 56 -345 58.5 -369.5 Q 61 -394 69 -417.5 Q 77 -441 90 -462 Q 103 -483 122.5 -498.5 Q 142 -514 166 -521 Q 190 -528 215 -528 Q 239 -528 262 -521.5 Q 285 -515 304 -501 Q 323 -487 336.5 -467 Q 350 -447 358 -424 L 358 -520 L 436 -520 L 436 0 L 358 -35 L 358 -96 Q 350 -73 336.5 -53 Q 323 -33 304 -19 Q 285 -5 262 1.5 Q 239 8 215 8 Z M 246 -62 Q 263 -62 279.5 -66 Q 296 -70 309.5 -80 Q 323 -90 333 -104 Q 343 -118 348.5 -134 Q 354 -150 356 -166.5 Q 358 -183 358 -200 L 358 -320 Q 358 -337 356 -353.5 Q 354 -370 348.5 -386 Q 343 -402 333 -416 Q 323 -430 309.5 -440 Q 296 -450 279.5 -454 Q 263 -458 246 -458 Q 229 -458 212.5 -454 Q 196 -450 182.5 -440 Q 169 -430 159 -416 Q 149 -402 143.5 -386 Q 138 -370 136 -353.5 Q 134 -337 134 -320 L 134 -200 Q 134 -183 136 -166.5 Q 138 -150 143.5 -134 Q 149 -118 159 -104 Q 169 -90 182.5 -80 Q 196 -70 212.5 -66 Q 229 -62 246 -62 Z " id="path54"/>
<path d="M 64 0 L 64 -70 L 152 -70 Q 128 -80 110 -99 Q 92 -118 82 -141.5 Q 72 -165 68 -190.5 Q 64 -216 64 -242 L 64 -320 Q 64 -346 68 -372.5 Q 72 -399 82 -423.5 Q 92 -448 109 -468.5 Q 126 -489 148.5 -503 Q 171 -517 197.5 -522.5 Q 224 -528 250 -528 Q 276 -528 302.5 -522.5 Q 329 -517 351.5 -503 Q 374 -489 391 -468.5 Q 408 -448 418 -423.5 Q 428 -399 432 -372.5 Q 436 -346 436 -320 L 436 -242 Q 436 -216 432 -190.5 Q 428 -165 418 -141.5 Q 408 -118 390 -99 Q 372 -80 348 -70 L 436 -70 L 436 0 L 287 0 L 287 -112 L 291 -112 Q 304 -112 316 -119.5 Q 328 -127 335.5 -138 Q 343 -149 347 -162 Q 351 -175 354 -188 Q 357 -201 357.5 -214.5 Q 358 -228 358 -242 L 358 -320 Q 358 -337 356 -353.5 Q 354 -370 349 -385.5 Q 344 -401 334.5 -415 Q 325 -429 312 -439 Q 299 -449 283 -453.5 Q 267 -458 250 -458 Q 233 -458 217 -453.5 Q 201 -449 188 -439 Q 175 -429 165.5 -415 Q 156 -401 151 -385.5 Q 146 -370 144 -353.5 Q 142 -337 142 -320 L 142 -242 Q 142 -228 142.5 -214.5 Q 143 -201 146 -188 Q 149 -175 153 -162 Q 157 -149 164.5 -138 Q 172 -127 184 -119.5 Q 196 -112 209 -112 L 213 -112 L 213 0 Z " id="path55"/>
<path d="M 124 8 Q 109 8 96.5 -1.5 Q 84 -11 76.5 -23.5 Q 69 -36 63.5 -50.5 Q 58 -65 55 -79.5 Q 52 -94 49.5 -109 Q 47 -124 46 -139.5 Q 45 -155 44.5 -170 Q 44 -185 44 -200 L 44 -320 Q 44 -335 44.5 -350 Q 45 -365 46 -380.5 Q 47 -396 49.5 -411 Q 52 -426 55 -440.5 Q 58 -455 63.5 -469.5 Q 69 -484 76.5 -496.5 Q 84 -509 97 -518.5 Q 110 -528 124 -528 Q 135 -528 145.5 -523 Q 156 -518 163 -510 Q 170 -502 175.5 -491.5 Q 181 -481 185 -471 Q 189 -461 191.5 -450 Q 194 -439 196 -428 L 196 -735 L 257 -735 L 257 0 L 196 0 L 196 -92 Q 194 -81 191.5 -70 Q 189 -59 185 -49 Q 181 -39 175.5 -28.5 Q 170 -18 163 -10 Q 156 -2 145.5 3 Q 135 8 124 8 Z M 151 -62 Q 160 -62 167.5 -69 Q 175 -76 179 -85 Q 183 -94 186 -103.5 Q 189 -113 190.5 -122.5 Q 192 -132 193.5 -141.5 Q 195 -151 195.5 -161 Q 196 -171 196 -180.5 Q 196 -190 196 -200 L 196 -320 Q 196 -330 196 -339.5 Q 196 -349 195.5 -359 Q 195 -369 193.5 -378.5 Q 192 -388 190.5 -397.5 Q 189 -407 186 -416.5 Q 183 -426 179 -435 Q 175 -444 167.5 -451 Q 160 -458 151 -458 Q 141 -458 133.5 -451 Q 126 -444 122 -435 Q 118 -426 115.5 -416.5 Q 113 -407 111 -397.5 Q 109 -388 108 -378.5 Q 107 -369 106 -359 Q 105 -349 105 -339.5 Q 105 -330 105 -320 L 105 -200 Q 105 -190 105 -180.5 Q 105 -171 106 -161 Q 107 -151 108 -141.5 Q 109 -132 111 -122.5 Q 113 -113 115.5 -103.5 Q 118 -94 122 -85 Q 126 -76 133.5 -69 Q 141 -62 151 -62 Z M 536 223 Q 515 223 494.5 218 Q 474 213 457 200.5 Q 440 188 428 170.5 Q 416 153 408.5 133 Q 401 113 398.5 92 Q 396 71 396 50 L 396 0 L 242 0 L 242 -70 L 389 -450 L 242 -450 L 242 -520 L 449 -520 L 449 -450 L 302 -70 L 449 -70 L 449 50 Q 449 70 453 90.5 Q 457 111 468 127.5 Q 479 144 497.5 153 Q 516 162 536 162 Z " id="path56"/>
<path d="M 257 0 L 247 0 Q 226 -0 206.5 -5 Q 187 -10 170.5 -22.5 Q 154 -35 143 -52 Q 132 -69 125.5 -88.5 Q 119 -108 116.5 -128 Q 114 -148 114 -169 L 114 -450 L 50 -450 L 50 -520 L 114 -520 L 114 -735 L 175 -735 L 175 -520 L 257 -520 L 257 -450 L 175 -450 L 175 -169 Q 175 -151 178 -134 Q 181 -117 189.5 -102 Q 198 -87 214 -78.5 Q 230 -70 247 -70 L 257 -70 Z M 383 223 Q 362 223 341.5 218 Q 321 213 303.5 200.5 Q 286 188 274 170.5 Q 262 153 254.5 133 Q 247 113 244.5 92 Q 242 71 242 50 L 242 -180 L 296 -180 L 296 -135 Q 296 -123 297.5 -111 Q 299 -99 304 -88 Q 309 -77 319.5 -69.5 Q 330 -62 342 -62 Q 353 -62 363 -68.5 Q 373 -75 378.5 -84.5 Q 384 -94 386.5 -105.5 Q 389 -117 389 -129 Q 389 -144 384.5 -159.5 Q 380 -175 371.5 -188 Q 363 -201 351 -211 Q 339 -221 326.5 -230 Q 314 -239 303 -250.5 Q 292 -262 283.5 -274.5 Q 275 -287 268.5 -301.5 Q 262 -316 257.5 -331 Q 253 -346 250.5 -361.5 Q 248 -377 248 -393 Q 248 -408 250.5 -423.5 Q 253 -439 257.5 -454.5 Q 262 -470 270 -483.5 Q 278 -497 289.5 -507.5 Q 301 -518 316 -523 Q 331 -528 347 -528 Q 362 -528 377.5 -523 Q 393 -518 404.5 -507.5 Q 416 -497 423.5 -483 Q 431 -469 436 -454 Q 441 -439 443 -423.5 Q 445 -408 445 -392 L 445 -385 L 384 -385 L 384 -389 Q 384 -400 382.5 -410.5 Q 381 -421 377 -431.5 Q 373 -442 365 -450 Q 357 -458 347 -458 Q 336 -458 328 -450.5 Q 320 -443 316 -433 Q 312 -423 310.5 -412.5 Q 309 -402 309 -392 Q 309 -376 313 -360.5 Q 317 -345 326 -332 Q 335 -319 347 -309 Q 359 -299 371.5 -289.5 Q 384 -280 395 -269 Q 406 -258 414.5 -245 Q 423 -232 430 -217.5 Q 437 -203 441 -188 Q 445 -173 447.5 -157.5 Q 450 -142 450 -126 Q 450 -111 448 -96.5 Q 446 -82 442 -67.5 Q 438 -53 432 -39.5 Q 426 -26 416.5 -15 Q 407 -4 392.5 2 Q 378 8 364 8 Q 353 8 342 5 Q 331 2 322.5 -4.5 Q 314 -11 307 -20 Q 300 -29 296 -40 L 296 50 Q 296 70 300 90.5 Q 304 111 315 127.5 Q 326 144 344.5 153 Q 363 162 383 162 Z " id="path57"/>
<path d="M 170 8 Q 152 8 133.5 3.5 Q 115 -1 100 -12 Q 85 -23 74.5 -38.5 Q 64 -54 58.5 -71.5 Q 53 -89 51 -107.5 Q 49 -126 49 -145 L 127 -145 Q 127 -130 129.5 -115.5 Q 132 -101 139.5 -88 Q 147 -75 160.5 -68.5 Q 174 -62 189 -62 Q 209 -62 227.5 -70.5 Q 246 -79 258.5 -94 Q 271 -109 279 -127.5 Q 287 -146 291 -165.5 Q 295 -185 296.5 -205 Q 298 -225 298 -244 L 298 -520 L 376 -520 L 376 0 L 298 0 L 298 -112 Q 292 -90 281.5 -68 Q 271 -46 255 -28.5 Q 239 -11 216.5 -1.5 Q 194 8 170 8 Z M 367 -191 Q 362 -191 358 -191.5 Q 354 -192 350 -193 Q 346 -194 342 -195.5 Q 338 -197 334.5 -199.5 Q 331 -202 327.5 -204 Q 324 -206 321 -208.5 Q 318 -211 314.5 -214 Q 311 -217 308 -220 Q 305 -223 302.5 -226.5 Q 300 -230 297.5 -233 Q 295 -236 292.5 -239 Q 290 -242 287 -246 Q 284 -250 281 -253 Q 278 -256 275.5 -259 Q 273 -262 269 -264.5 Q 265 -267 265 -269 L 266 -269 L 264 -267 Q 261 -265 258.5 -263 Q 256 -261 254 -258.5 Q 252 -256 251 -254.5 Q 250 -253 249 -251.5 Q 248 -250 246.5 -248.5 Q 245 -247 243.5 -245 Q 242 -243 240.5 -240.5 Q 239 -238 237.5 -236 Q 236 -234 234.5 -231.5 Q 233 -229 231.5 -226 Q 230 -223 228.5 -220 Q 227 -217 225 -214 Q 223 -211 221.5 -208 Q 220 -205 218 -201.5 Q 216 -198 214 -194 L 155 -221 Q 163 -236 170.5 -249 Q 178 -262 185 -272.5 Q 192 -283 199.5 -292 Q 207 -301 217 -309.5 Q 227 -318 239.5 -323.5 Q 252 -329 265 -329 Q 270 -329 274 -328.5 Q 278 -328 282 -327 Q 286 -326 290 -324.5 Q 294 -323 297.5 -320.5 Q 301 -318 304.5 -316 Q 308 -314 311 -311.5 Q 314 -309 317.5 -306 Q 321 -303 324 -300 Q 327 -297 329.5 -293.5 Q 332 -290 334.5 -287 Q 337 -284 339.5 -281 Q 342 -278 345 -274 Q 348 -270 351 -267 Q 354 -264 356.5 -261 Q 359 -258 363 -255.5 Q 367 -253 367 -251 L 366 -251 L 369 -253 Q 371 -255 373.5 -257 Q 376 -259 378 -261.5 Q 380 -264 381 -265.5 Q 382 -267 383 -268.5 Q 384 -270 385.5 -271.5 Q 387 -273 388.5 -275 Q 390 -277 391.5 -279.5 Q 393 -282 394.5 -284 Q 396 -286 397.5 -288.5 Q 399 -291 400.5 -294 Q 402 -297 403.5 -300 Q 405 -303 407 -306 Q 409 -309 410.5 -312 Q 412 -315 414 -318.5 Q 416 -322 418 -326 L 477 -299 Q 469 -284 461.5 -271 Q 454 -258 447 -247.5 Q 440 -237 432.5 -228 Q 425 -219 415 -210.5 Q 405 -202 392.5 -196.5 Q 380 -191 367 -191 Z " id="path58"/>
<path d="M 94 -323 L 154 -687 L 213 -687 L 250 -500 L 287 -687 L 346 -687 L 406 -323 L 340 -323 L 312 -589 L 280 -425 L 220 -425 L 188 -589 L 160 -323 Z " id="path59"/>
<path d="M 311 -140 L 311 -235 L 150 -235 L 150 -305 L 311 -305 L 311 -400 L 389 -400 L 389 -140 Z " id="path60"/>
<path d="M 111 -140 L 111 -400 L 189 -400 L 189 -305 L 350 -305 L 350 -235 L 189 -235 L 189 -140 Z " id="path61"/>
</defs>
<g>
<g data-source-text="0" fill="#dee4e3" transform="translate(174 41.292) rotate(0) scale(0.023999998)">
<use href="#path1" transform="translate(0 0)"/>
</g>
</g>
<g>
<g data-source-text="1" fill="#dee4e3" transform="translate(246 41.292) rotate(0) scale(0.023999998)">
<use href="#path2" transform="translate(0 0)"/>
</g>
</g>
<g>
<g data-source-text="2" fill="#dee4e3" transform="translate(318 41.292) rotate(0) scale(0.023999998)">
<use href="#path3" transform="translate(0 0)"/>
</g>
</g>
<g>
<g data-source-text="3" fill="#dee4e3" transform="translate(390 41.292) rotate(0) scale(0.023999998)">
<use href="#path4" transform="translate(0 0)"/>
</g>
</g>
<g>
<g data-source-text="4" fill="#dee4e3" transform="translate(462 41.292) rotate(0) scale(0.023999998)">
<use href="#path5" transform="translate(0 0)"/>
</g>
</g>
<g>
<g data-source-text="5" fill="#dee4e3" transform="translate(534 41.292) rotate(0) scale(0.023999998)">
<use href="#path6" transform="translate(0 0)"/>
</g>
</g>
<g>
<g data-source-text="6" fill="#dee4e3" transform="translate(606 41.292) rotate(0) scale(0.023999998)">
<use href="#path7" transform="translate(0 0)"/>
</g>
</g>
<g>
<g data-source-text="7" fill="#dee4e3" transform="translate(678 41.292) rotate(0) scale(0.023999998)">
<use href="#path8" transform="translate(0 0)"/>
</g>
</g>
<g>
<g data-source-text="8" fill="#dee4e3" transform="translate(750 41.292) rotate(0) scale(0.023999998)">
<use href="#path9" transform="translate(0 0)"/>
</g>
</g>
<g>
<g data-source-text="9" fill="#dee4e3" transform="translate(822 41.292) rotate(0) scale(0.023999998)">
<use href="#path10" transform="translate(0 0)"/>
</g>
</g>
<g>
<g data-source-text="A" fill="#dee4e3" transform="translate(894 41.292) rotate(0) scale(0.023999998)">
<use href="#path11" transform="translate(0 0)"/>
</g>
</g>
<g>
<g data-source-text="B" fill="#dee4e3" transform="translate(966 41.292) rotate(0) scale(0.023999998)">
<use href="#path12" transform="translate(0 0)"/>
</g>
</g>
<g>
<g data-source-text="C" fill="#dee4e3" transform="translate(1038 41.292) rotate(0) scale(0.023999998)">
<use href="#path13" transform="translate(0 0)"/>
</g>
</g>
<g>
<g data-source-text="D" fill="#dee4e3" transform="translate(1110 41.292) rotate(0) scale(0.023999998)">
<use href="#path14" transform="translate(0 0)"/>
</g>
</g>
<g>
<g data-source-text="E" fill="#dee4e3" transform="translate(1182 41.292) rotate(0) scale(0.023999998)">
<use href="#path15" transform="translate(0 0)"/>
</g>
</g>
<g>
<g data-source-text="F" fill="#dee4e3" transform="translate(1254 41.292) rotate(0) scale(0.023999998)">
<use href="#path16" transform="translate(0 0)"/>
</g>
</g>
<g>
<g data-source-text="U+AB30" fill="#dee4e3" transform="translate(36 113.292) rotate(0) scale(0.023999998)">
<use href="#path17" transform="translate(0 0)"/>
<use href="#path18" transform="translate(500 0)"/>
<use href="#path11" transform="translate(1000 0)"/>
<use href="#path12" transform="translate(1500 0)"/>
<use href="#path4" transform="translate(2000 0)"/>
<use href="#path1" transform="translate(2500 0)"/>
</g>
</g>
<g>
<g data-source-text="" fill="#dee4e3" transform="translate(168 118.584) rotate(0) scale(0.047999997)">
<use href="#path19" transform="translate(0 0)"/>
</g>
</g>
<g>
<g data-source-text="" fill="#dee4e3" transform="translate(240 118.584) rotate(0) scale(0.047999997)">
<use href="#path20" transform="translate(0 0)"/>
</g>
</g>
<g>
<g data-source-text="" fill="#dee4e3" transform="translate(312 118.584) rotate(0) scale(0.047999997)">
<use href="#path21" transform="translate(0 0)"/>
</g>
</g>
<g>
<g data-source-text="" fill="#dee4e3" transform="translate(384 118.584) rotate(0) scale(0.047999997)">
<use href="#path22" transform="translate(0 0)"/>
</g>
</g>
<g>
<g data-source-text="" fill="#dee4e340" transform="translate(456 118.584) rotate(0) scale(0.047999997)">
<use href="#path23" transform="translate(0 0)"/>
</g>
</g>
<g>
<g data-source-text="" fill="#dee4e3" transform="translate(528 118.584) rotate(0) scale(0.047999997)">
<use href="#path24" transform="translate(0 0)"/>
</g>
</g>
<g>
<g data-source-text="" fill="#dee4e3" transform="translate(600 118.584) rotate(0) scale(0.047999997)">
<use href="#path25" transform="translate(0 0)"/>
</g>
</g>
<g>
<g data-source-text="" fill="#dee4e3" transform="translate(672 118.584) rotate(0) scale(0.047999997)">
<use href="#path26" transform="translate(0 0)"/>
</g>
</g>
<g>
<g data-source-text="" fill="#dee4e3" transform="translate(744 118.584) rotate(0) scale(0.047999997)">
<use href="#path27" transform="translate(0 0)"/>
</g>
</g>
<g>
<g data-source-text="" fill="#dee4e3" transform="translate(816 118.584) rotate(0) scale(0.047999997)">
<use href="#path28" transform="translate(0 0)"/>
</g>
</g>
<g>
<g data-source-text="" fill="#dee4e3" transform="translate(888 118.584) rotate(0) scale(0.047999997)">
<use href="#path29" transform="translate(0 0)"/>
</g>
</g>
<g>
<g data-source-text="" fill="#dee4e3" transform="translate(960 118.584) rotate(0) scale(0.047999997)">
<use href="#path30" transform="translate(0 0)"/>
</g>
</g>
<g>
<g data-source-text="" fill="#dee4e3" transform="translate(1032 118.584) rotate(0) scale(0.047999997)">
<use href="#path31" transform="translate(0 0)"/>
</g>
</g>
<g>
<g data-source-text="" fill="#dee4e3" transform="translate(1104 118.584) rotate(0) scale(0.047999997)">
<use href="#path32" transform="translate(0 0)"/>
</g>
</g>
<g>
<g data-source-text="" fill="#dee4e3" transform="translate(1176 118.584) rotate(0) scale(0.047999997)">
<use href="#path33" transform="translate(0 0)"/>
</g>
</g>
<g>
<g data-source-text="" fill="#dee4e3" transform="translate(1248 118.584) rotate(0) scale(0.047999997)">
<use href="#path34" transform="translate(0 0)"/>
</g>
</g>
<g>
<g data-source-text="U+AB40" fill="#dee4e3" transform="translate(36 185.292) rotate(0) scale(0.023999998)">
<use href="#path17" transform="translate(0 0)"/>
<use href="#path18" transform="translate(500 0)"/>
<use href="#path11" transform="translate(1000 0)"/>
<use href="#path12" transform="translate(1500 0)"/>
<use href="#path5" transform="translate(2000 0)"/>
<use href="#path1" transform="translate(2500 0)"/>
</g>
</g>
<g>
<g data-source-text="" fill="#dee4e3" transform="translate(168 190.584) rotate(0) scale(0.047999997)">
<use href="#path35" transform="translate(0 0)"/>
</g>
</g>
<g>
<g data-source-text="" fill="#dee4e3" transform="translate(240 190.584) rotate(0) scale(0.047999997)">
<use href="#path36" transform="translate(0 0)"/>
</g>
</g>
<g>
<g data-source-text="" fill="#dee4e3" transform="translate(312 190.584) rotate(0) scale(0.047999997)">
<use href="#path37" transform="translate(0 0)"/>
</g>
</g>
<g>
<g data-source-text="" fill="#dee4e340" transform="translate(384 190.584) rotate(0) scale(0.047999997)">
<use href="#path23" transform="translate(0 0)"/>
</g>
</g>
<g>
<g data-source-text="" fill="#dee4e340" transform="translate(456 190.584) rotate(0) scale(0.047999997)">
<use href="#path23" transform="translate(0 0)"/>
</g>
</g>
<g>
<g data-source-text="" fill="#dee4e3" transform="translate(528 190.584) rotate(0) scale(0.047999997)">
<use href="#path38" transform="translate(0 0)"/>
</g>
</g>
<g>
<g data-source-text="" fill="#dee4e3" transform="translate(600 190.584) rotate(0) scale(0.047999997)">
<use href="#path39" transform="translate(0 0)"/>
</g>
</g>
<g>
<g data-source-text="" fill="#dee4e340" transform="translate(672 190.584) rotate(0) scale(0.047999997)">
<use href="#path23" transform="translate(0 0)"/>
</g>
</g>
<g>
<g data-source-text="" fill="#dee4e340" transform="translate(744 190.584) rotate(0) scale(0.047999997)">
<use href="#path23" transform="translate(0 0)"/>
</g>
</g>
<g>
<g data-source-text="" fill="#dee4e340" transform="translate(816 190.584) rotate(0) scale(0.047999997)">
<use href="#path23" transform="translate(0 0)"/>
</g>
</g>
<g>
<g data-source-text="" fill="#dee4e340" transform="translate(888 190.584) rotate(0) scale(0.047999997)">
<use href="#path23" transform="translate(0 0)"/>
</g>
</g>
<g>
<g data-source-text="" fill="#dee4e340" transform="translate(960 190.584) rotate(0) scale(0.047999997)">
<use href="#path23" transform="translate(0 0)"/>
</g>
</g>
<g>
<g data-source-text="" fill="#dee4e340" transform="translate(1032 190.584) rotate(0) scale(0.047999997)">
<use href="#path23" transform="translate(0 0)"/>
</g>
</g>
<g>
<g data-source-text="" fill="#dee4e3" transform="translate(1104 190.584) rotate(0) scale(0.047999997)">
<use href="#path40" transform="translate(0 0)"/>
</g>
</g>
<g>
<g data-source-text="" fill="#dee4e3" transform="translate(1176 190.584) rotate(0) scale(0.047999997)">
<use href="#path41" transform="translate(0 0)"/>
</g>
</g>
<g>
<g data-source-text="" fill="#dee4e3" transform="translate(1248 190.584) rotate(0) scale(0.047999997)">
<use href="#path42" transform="translate(0 0)"/>
</g>
</g>
<g>
<g data-source-text="U+AB50" fill="#dee4e3" transform="translate(36 257.292) rotate(0) scale(0.023999998)">
<use href="#path17" transform="translate(0 0)"/>
<use href="#path18" transform="translate(500 0)"/>
<use href="#path11" transform="translate(1000 0)"/>
<use href="#path12" transform="translate(1500 0)"/>
<use href="#path6" transform="translate(2000 0)"/>
<use href="#path1" transform="translate(2500 0)"/>
</g>
</g>
<g>
<g data-source-text="" fill="#dee4e340" transform="translate(168 262.584) rotate(0) scale(0.047999997)">
<use href="#path23" transform="translate(0 0)"/>
</g>
</g>
<g>
<g data-source-text="" fill="#dee4e340" transform="translate(240 262.584) rotate(0) scale(0.047999997)">
<use href="#path23" transform="translate(0 0)"/>
</g>
</g>
<g>
<g data-source-text="" fill="#dee4e3" transform="translate(312 262.584) rotate(0) scale(0.047999997)">
<use href="#path43" transform="translate(0 0)"/>
</g>
</g>
<g>
<g data-source-text="" fill="#dee4e3" transform="translate(384 262.584) rotate(0) scale(0.047999997)">
<use href="#path44" transform="translate(0 0)"/>
</g>
</g>
<g>
<g data-source-text="" fill="#dee4e340" transform="translate(456 262.584) rotate(0) scale(0.047999997)">
<use href="#path23" transform="translate(0 0)"/>
</g>
</g>
<g>
<g data-source-text="" fill="#dee4e340" transform="translate(528 262.584) rotate(0) scale(0.047999997)">
<use href="#path23" transform="translate(0 0)"/>
</g>
</g>
<g>
<g data-source-text="" fill="#dee4e340" transform="translate(600 262.584) rotate(0) scale(0.047999997)">
<use href="#path23" transform="translate(0 0)"/>
</g>
</g>
<g>
<g data-source-text="" fill="#dee4e340" transform="translate(672 262.584) rotate(0) scale(0.047999997)">
<use href="#path23" transform="translate(0 0)"/>
</g>
</g>
<g>
<g data-source-text="" fill="#dee4e340" transform="translate(744 262.584) rotate(0) scale(0.047999997)">
<use href="#path23" transform="translate(0 0)"/>
</g>
</g>
<g>
<g data-source-text="" fill="#dee4e340" transform="translate(816 262.584) rotate(0) scale(0.047999997)">
<use href="#path23" transform="translate(0 0)"/>
</g>
</g>
<g>
<g data-source-text="" fill="#dee4e340" transform="translate(888 262.584) rotate(0) scale(0.047999997)">
<use href="#path23" transform="translate(0 0)"/>
</g>
</g>
<g>
<g data-source-text="" fill="#dee4e3" transform="translate(960 262.584) rotate(0) scale(0.047999997)">
<use href="#path45" transform="translate(0 0)"/>
</g>
</g>
<g>
<g data-source-text="" fill="#dee4e3" transform="translate(1032 262.584) rotate(0) scale(0.047999997)">
<use href="#path46" transform="translate(0 0)"/>
</g>
</g>
<g>
<g data-source-text="" fill="#dee4e3" transform="translate(1104 262.584) rotate(0) scale(0.047999997)">
<use href="#path47" transform="translate(0 0)"/>
</g>
</g>
<g>
<g data-source-text="" fill="#dee4e3" transform="translate(1176 262.584) rotate(0) scale(0.047999997)">
<use href="#path48" transform="translate(0 0)"/>
</g>
</g>
<g>
<g data-source-text="" fill="#dee4e3" transform="translate(1248 262.584) rotate(0) scale(0.047999997)">
<use href="#path49" transform="translate(0 0)"/>
</g>
</g>
<g>
<g data-source-text="U+AB60" fill="#dee4e3" transform="translate(36 329.292) rotate(0) scale(0.023999998)">
<use href="#path17" transform="translate(0 0)"/>
<use href="#path18" transform="translate(500 0)"/>
<use href="#path11" transform="translate(1000 0)"/>
<use href="#path12" transform="translate(1500 0)"/>
<use href="#path7" transform="translate(2000 0)"/>
<use href="#path1" transform="translate(2500 0)"/>
</g>
</g>
<g>
<g data-source-text="" fill="#dee4e3" transform="translate(168 334.584) rotate(0) scale(0.047999997)">
<use href="#path50" transform="translate(0 0)"/>
</g>
</g>
<g>
<g data-source-text="" fill="#dee4e3" transform="translate(240 334.584) rotate(0) scale(0.047999997)">
<use href="#path51" transform="translate(0 0)"/>
</g>
</g>
<g>
<g data-source-text="" fill="#dee4e3" transform="translate(312 334.584) rotate(0) scale(0.047999997)">
<use href="#path52" transform="translate(0 0)"/>
</g>
</g>
<g>
<g data-source-text="" fill="#dee4e3" transform="translate(384 334.584) rotate(0) scale(0.047999997)">
<use href="#path53" transform="translate(0 0)"/>
</g>
</g>
<g>
<g data-source-text="" fill="#dee4e3" transform="translate(456 334.584) rotate(0) scale(0.047999997)">
<use href="#path54" transform="translate(0 0)"/>
</g>
</g>
<g>
<g data-source-text="" fill="#dee4e3" transform="translate(528 334.584) rotate(0) scale(0.047999997)">
<use href="#path55" transform="translate(0 0)"/>
</g>
</g>
<g>
<g data-source-text="" fill="#dee4e3" transform="translate(600 334.584) rotate(0) scale(0.047999997)">
<use href="#path56" transform="translate(0 0)"/>
</g>
</g>
<g>
<g data-source-text="" fill="#dee4e3" transform="translate(672 334.584) rotate(0) scale(0.047999997)">
<use href="#path57" transform="translate(0 0)"/>
</g>
</g>
<g>
<g data-source-text="" fill="#dee4e3" transform="translate(744 334.584) rotate(0) scale(0.047999997)">
<use href="#path58" transform="translate(0 0)"/>
</g>
</g>
<g>
<g data-source-text="" fill="#dee4e3" transform="translate(816 334.584) rotate(0) scale(0.047999997)">
<use href="#path59" transform="translate(0 0)"/>
</g>
</g>
<g>
<g data-source-text="" fill="#dee4e3" transform="translate(888 334.584) rotate(0) scale(0.047999997)">
<use href="#path60" transform="translate(0 0)"/>
</g>
</g>
<g>
<g data-source-text="" fill="#dee4e3" transform="translate(960 334.584) rotate(0) scale(0.047999997)">
<use href="#path61" transform="translate(0 0)"/>
</g>
</g>
<g>
<g data-source-text="" fill="#dee4e340" transform="translate(1032 334.584) rotate(0) scale(0.047999997)">
<use href="#path23" transform="translate(0 0)"/>
</g>
</g>
<g>
<g data-source-text="" fill="#dee4e340" transform="translate(1104 334.584) rotate(0) scale(0.047999997)">
<use href="#path23" transform="translate(0 0)"/>
</g>
</g>
<g>
<g data-source-text="" fill="#dee4e340" transform="translate(1176 334.584) rotate(0) scale(0.047999997)">
<use href="#path23" transform="translate(0 0)"/>
</g>
</g>
<g>
<g data-source-text="" fill="#dee4e340" transform="translate(1248 334.584) rotate(0) scale(0.047999997)">
<use href="#path23" transform="translate(0 0)"/>
</g>
</g>
</svg>