<?xml version="1.0" encoding="UTF-8" standalone="no"?>
<svg height="360" viewBox="0 0 1296 360" width="1296" xmlns="http://www.w3.org/2000/svg">
<defs>
<path d="M 250 8 Q 223 8 196 3 Q 169 -2 145 -15 Q 121 -28 102.5 -48.5 Q 84 -69 72.5 -94 Q 61 -119 56.5 -146 Q 52 -173 52 -200 L 52 -535 Q 52 -562 56.5 -589 Q 61 -616 72.5 -641 Q 84 -666 102.5 -686.5 Q 121 -707 145 -720 Q 169 -733 196 -738 Q 223 -743 250 -743 Q 277 -743 304 -738 Q 331 -733 355 -720 Q 379 -707 397.5 -686.5 Q 416 -666 427.5 -641 Q 439 -616 443.5 -589 Q 448 -562 448 -535 L 448 -200 Q 448 -173 443.5 -146 Q 439 -119 427.5 -94 Q 416 -69 397.5 -48.5 Q 379 -28 355 -15 Q 331 -2 304 3 Q 277 8 250 8 Z M 153 -337 L 347 -491 L 347 -535 Q 347 -557 342.5 -578.5 Q 338 -600 325.5 -618 Q 313 -636 292.5 -645.5 Q 272 -655 250 -655 Q 228 -655 207.5 -645.5 Q 187 -636 174.5 -618 Q 162 -600 157.5 -578.5 Q 153 -557 153 -535 Z M 250 -80 Q 272 -80 292.5 -89.5 Q 313 -99 325.5 -117 Q 338 -135 342.5 -156.5 Q 347 -178 347 -200 L 347 -398 L 153 -244 L 153 -200 Q 153 -178 157.5 -156.5 Q 162 -135 174.5 -117 Q 187 -99 207.5 -89.5 Q 228 -80 250 -80 Z " id="path1"/>
<path d="M 230 0 L 230 -637 L 107 -542 L 55 -600 L 230 -735 L 330 -735 L 330 0 Z " id="path2"/>
<path d="M 60 0 L 60 -1 Q 60 -27 61 -53.5 Q 62 -80 66 -106.5 Q 70 -133 77.5 -158.5 Q 85 -184 96.5 -207.5 Q 108 -231 123 -253 Q 138 -275 156 -294.5 Q 174 -314 194 -331 Q 214 -348 235.5 -364 Q 257 -380 277.5 -397 Q 298 -414 313 -435.5 Q 328 -457 335.5 -483 Q 343 -509 343 -535 Q 343 -557 339 -578 Q 335 -599 323.5 -617 Q 312 -635 292 -645 Q 272 -655 251 -655 Q 231 -655 213 -648 Q 195 -641 182.5 -626.5 Q 170 -612 164.5 -593 Q 159 -574 159 -555 L 159 -554 L 58 -554 L 58 -556 Q 58 -581 64 -606 Q 70 -631 82 -653.5 Q 94 -676 112 -694 Q 130 -712 152.5 -723 Q 175 -734 200 -738.5 Q 225 -743 251 -743 Q 278 -743 304.5 -737.5 Q 331 -732 354 -719 Q 377 -706 395 -685.5 Q 413 -665 424 -640.5 Q 435 -616 439.5 -589 Q 444 -562 444 -535 Q 444 -501 435 -468 Q 426 -435 407.5 -406 Q 389 -377 364 -353.5 Q 339 -330 312.5 -308.5 Q 286 -287 261 -264 Q 236 -241 216.5 -213 Q 197 -185 184 -153.5 Q 171 -122 166 -88 L 440 -88 L 440 0 Z " id="path3"/>
<path d="M 252 8 Q 226 8 200 3.5 Q 174 -1 150.5 -12 Q 127 -23 107.5 -41 Q 88 -59 75.5 -82 Q 63 -105 56.5 -130.5 Q 50 -156 50 -183 L 151 -183 Q 151 -162 157.5 -142.5 Q 164 -123 178 -108 Q 192 -93 212 -86.5 Q 232 -80 252 -80 Q 275 -80 296 -88.5 Q 317 -97 330.5 -114.5 Q 344 -132 349.5 -154 Q 355 -176 355 -198 Q 355 -217 351 -235.5 Q 347 -254 338.5 -271 Q 330 -288 316.5 -301 Q 303 -314 286 -322 Q 269 -330 250 -332 Q 231 -334 212 -334 L 212 -422 Q 229 -422 246 -424 Q 263 -426 278.5 -433 Q 294 -440 306 -452.5 Q 318 -465 325.5 -480.5 Q 333 -496 336 -512.5 Q 339 -529 339 -546 Q 339 -566 334.5 -585.5 Q 330 -605 319.5 -621 Q 309 -637 290.5 -646 Q 272 -655 253 -655 Q 234 -655 216.5 -647.5 Q 199 -640 188 -625.5 Q 177 -611 172 -593 Q 167 -575 167 -556 L 167 -555 L 66 -555 L 66 -558 Q 66 -582 71.5 -606.5 Q 77 -631 88.5 -653 Q 100 -675 117.5 -693 Q 135 -711 157 -722.5 Q 179 -734 203.5 -738.5 Q 228 -743 253 -743 Q 278 -743 303 -738 Q 328 -733 350.5 -721 Q 373 -709 390 -690 Q 407 -671 418 -648 Q 429 -625 434.5 -600 Q 440 -575 440 -549 Q 440 -524 434 -498.5 Q 428 -473 415.5 -450.5 Q 403 -428 384.5 -409.5 Q 366 -391 343 -379 Q 369 -368 391 -348.5 Q 413 -329 427.5 -304.5 Q 442 -280 449 -252 Q 456 -224 456 -196 Q 456 -168 450 -141.5 Q 444 -115 432 -91 Q 420 -67 400.5 -47 Q 381 -27 357 -14.5 Q 333 -2 306.5 3 Q 280 8 252 8 Z " id="path4"/>
<path d="M 282 0 L 282 -188 L 52 -188 L 52 -275 L 276 -735 L 385 -735 L 161 -275 L 282 -275 L 282 -435 L 382 -435 L 382 -275 L 440 -275 L 440 -188 L 382 -188 L 382 0 Z " id="path5"/>
<path d="M 252 8 Q 227 8 202.5 3.5 Q 178 -1 156.5 -12.5 Q 135 -24 117.5 -42 Q 100 -60 88 -81 Q 76 -102 69 -126 Q 62 -150 60 -174 L 60 -176 L 160 -176 L 161 -172 Q 164 -154 170.5 -137 Q 177 -120 188.5 -107 Q 200 -94 217 -87 Q 234 -80 252 -80 Q 269 -80 285 -87 Q 301 -94 312 -106.5 Q 323 -119 330 -135 Q 337 -151 340.5 -167.5 Q 344 -184 345.5 -201 Q 347 -218 347 -235 Q 347 -252 345.5 -269 Q 344 -286 340.5 -302.5 Q 337 -319 330.5 -334.5 Q 324 -350 313.5 -363 Q 303 -376 287 -383.5 Q 271 -391 254 -391 Q 236 -391 219.5 -384 Q 203 -377 191.5 -363 Q 180 -349 174.5 -331.5 Q 169 -314 168 -296 L 68 -296 L 68 -735 L 421 -735 L 421 -647 L 168 -647 L 168 -462 Q 188 -471 210 -474.5 Q 232 -478 254 -478 Q 284 -478 312.5 -470.5 Q 341 -463 364.5 -445.5 Q 388 -428 404.5 -403.5 Q 421 -379 430.5 -351 Q 440 -323 444 -294 Q 448 -265 448 -235 Q 448 -206 444 -176.5 Q 440 -147 430.5 -119 Q 421 -91 404 -66.5 Q 387 -42 363 -24.5 Q 339 -7 310 0.5 Q 281 8 252 8 Z " id="path6"/>
<path d="M 250 8 Q 219 8 189 -0.5 Q 159 -9 135 -28 Q 111 -47 94.5 -73.5 Q 78 -100 68.5 -129 Q 59 -158 55.5 -189 Q 52 -220 52 -250 Q 52 -291 60 -331 Q 68 -371 82 -409 Q 96 -447 114 -483.5 Q 132 -520 150 -556 L 238 -735 L 347 -735 L 240 -517 Q 232 -500 223 -483.5 Q 214 -467 205 -451 Q 217 -454 229 -455 Q 241 -456 253 -456 Q 281 -456 309.5 -449 Q 338 -442 361.5 -426 Q 385 -410 402.5 -386.5 Q 420 -363 430 -336.5 Q 440 -310 444 -281.5 Q 448 -253 448 -224 Q 448 -195 444 -166.5 Q 440 -138 429.5 -111 Q 419 -84 401.5 -60.5 Q 384 -37 360 -21 Q 336 -5 307.5 1.5 Q 279 8 250 8 Z M 250 -80 Q 266 -80 282 -85.5 Q 298 -91 309.5 -102.5 Q 321 -114 328.5 -129 Q 336 -144 340 -159.5 Q 344 -175 345.5 -191.5 Q 347 -208 347 -224 Q 347 -240 345.5 -256.5 Q 344 -273 340 -288.5 Q 336 -304 328.5 -319 Q 321 -334 309.5 -345.5 Q 298 -357 282.5 -362.5 Q 267 -368 251 -368 Q 234 -368 218.5 -362.5 Q 203 -357 191.5 -345.5 Q 180 -334 172 -319.5 Q 164 -305 160 -289 Q 156 -273 154.5 -256.5 Q 153 -240 153 -224 Q 153 -208 154.5 -191.5 Q 156 -175 160 -159.5 Q 164 -144 171.5 -129 Q 179 -114 190.5 -102.5 Q 202 -91 218 -85.5 Q 234 -80 250 -80 Z " id="path7"/>
<path d="M 138 0 L 336 -647 L 60 -647 L 60 -735 L 440 -735 L 440 -647 L 242 0 Z " id="path8"/>
<path d="M 250 8 Q 225 8 200 4 Q 175 -0 152 -10 Q 129 -20 110 -37 Q 91 -54 78 -75.5 Q 65 -97 58.5 -121.5 Q 52 -146 52 -171 Q 52 -202 62 -232 Q 72 -262 88.5 -288 Q 105 -314 127 -336 Q 149 -358 174 -378 Q 152 -396 132.5 -417 Q 113 -438 98.5 -462.5 Q 84 -487 76 -514.5 Q 68 -542 68 -571 Q 68 -594 73.5 -617.5 Q 79 -641 90.5 -661.5 Q 102 -682 119.5 -698.5 Q 137 -715 158 -725 Q 179 -735 202.5 -739 Q 226 -743 250 -743 Q 274 -743 297.5 -739 Q 321 -735 342 -725 Q 363 -715 380.5 -698.5 Q 398 -682 409.5 -661.5 Q 421 -641 426.5 -617.5 Q 432 -594 432 -571 Q 432 -542 424 -514.5 Q 416 -487 401.5 -462.5 Q 387 -438 367.5 -417 Q 348 -396 326 -378 Q 351 -358 373 -336 Q 395 -314 411.5 -288 Q 428 -262 438 -232 Q 448 -202 448 -171 Q 448 -146 441.5 -121.5 Q 435 -97 422 -75.5 Q 409 -54 390 -37 Q 371 -20 348 -10 Q 325 -0 300 4 Q 275 8 250 8 Z M 250 -435 Q 266 -447 280.5 -461.5 Q 295 -476 306.5 -493 Q 318 -510 325 -529.5 Q 332 -549 332 -569 Q 332 -586 326.5 -602.5 Q 321 -619 310 -631.5 Q 299 -644 283 -649.5 Q 267 -655 250 -655 Q 233 -655 217 -649.5 Q 201 -644 190 -631.5 Q 179 -619 173.5 -602.5 Q 168 -586 168 -569 Q 168 -549 175 -529.5 Q 182 -510 193.5 -493 Q 205 -476 219.5 -461.5 Q 234 -447 250 -435 Z M 250 -80 Q 269 -80 287.5 -85.5 Q 306 -91 320 -104 Q 334 -117 340.5 -135.5 Q 347 -154 347 -173 Q 347 -196 338.5 -217.5 Q 330 -239 316.5 -257.5 Q 303 -276 285.5 -291 Q 268 -306 250 -320 Q 232 -306 214.5 -291 Q 197 -276 183.5 -257.5 Q 170 -239 161.5 -217.5 Q 153 -196 153 -173 Q 153 -154 159.5 -135.5 Q 166 -117 180 -104 Q 194 -91 212.5 -85.5 Q 231 -80 250 -80 Z " id="path9"/>
<path d="M 262 0 L 153 0 L 260 -218 Q 268 -235 277 -251.5 Q 286 -268 295 -284 Q 283 -281 271 -280 Q 259 -279 247 -279 Q 219 -279 190.5 -286 Q 162 -293 138.5 -309 Q 115 -325 97.5 -348.5 Q 80 -372 70 -398.5 Q 60 -425 56 -453.5 Q 52 -482 52 -511 Q 52 -540 56 -568.5 Q 60 -597 70.5 -624 Q 81 -651 98.5 -674.5 Q 116 -698 140 -714 Q 164 -730 192.5 -736.5 Q 221 -743 250 -743 Q 281 -743 311 -734.5 Q 341 -726 365 -707 Q 389 -688 405.5 -661.5 Q 422 -635 431.5 -606 Q 441 -577 444.5 -546 Q 448 -515 448 -485 Q 448 -444 440 -404 Q 432 -364 418 -326 Q 404 -288 386 -251.5 Q 368 -215 350 -179 Z M 249 -367 Q 266 -367 281.5 -372.5 Q 297 -378 308.5 -389.5 Q 320 -401 328 -415.5 Q 336 -430 340 -446 Q 344 -462 345.5 -478.5 Q 347 -495 347 -511 Q 347 -527 345.5 -543.5 Q 344 -560 340 -575.5 Q 336 -591 328.5 -606 Q 321 -621 309.5 -632.5 Q 298 -644 282 -649.5 Q 266 -655 250 -655 Q 234 -655 218 -649.5 Q 202 -644 190.5 -632.5 Q 179 -621 171.5 -606 Q 164 -591 160 -575.5 Q 156 -560 154.5 -543.5 Q 153 -527 153 -511 Q 153 -495 154.5 -478.5 Q 156 -462 160 -446.5 Q 164 -431 171.5 -416 Q 179 -401 190.5 -389.5 Q 202 -378 217.5 -372.5 Q 233 -367 249 -367 Z " id="path10"/>
<path d="M 39 0 L 192 -735 L 308 -735 L 461 0 L 358 0 L 326 -172 L 174 -172 L 142 0 Z M 309 -260 L 265 -490 Q 262 -511 258 -531.5 Q 254 -552 250 -572 Q 246 -552 242 -531.5 Q 238 -511 235 -490 L 191 -260 Z " id="path11"/>
<path d="M 60 0 L 60 -735 L 234 -735 Q 261 -735 287 -730.5 Q 313 -726 336 -714 Q 359 -702 377.5 -682.5 Q 396 -663 408 -639.5 Q 420 -616 424.5 -590 Q 429 -564 429 -538 Q 429 -515 425 -492 Q 421 -469 410.5 -448.5 Q 400 -428 383.5 -411 Q 367 -394 347 -383 Q 372 -373 393.5 -355.5 Q 415 -338 429.5 -314.5 Q 444 -291 450 -264 Q 456 -237 456 -210 Q 456 -181 450 -152.5 Q 444 -124 430 -98.5 Q 416 -73 394.5 -53.5 Q 373 -34 347 -21.5 Q 321 -9 292 -4.5 Q 263 -0 234 0 Z M 161 -424 L 234 -424 Q 255 -424 274.5 -432.5 Q 294 -441 306.5 -457.5 Q 319 -474 324 -494.5 Q 329 -515 329 -536 Q 329 -557 324 -577.5 Q 319 -598 306.5 -614.5 Q 294 -631 274.5 -639 Q 255 -647 234 -647 L 161 -647 Z M 161 -88 L 234 -88 Q 251 -88 267 -91 Q 283 -94 297.5 -101.5 Q 312 -109 323.5 -121 Q 335 -133 342.5 -148 Q 350 -163 352.5 -179 Q 355 -195 355 -212 Q 355 -228 352.5 -244.5 Q 350 -261 343 -276 Q 336 -291 324.5 -303 Q 313 -315 298 -322.5 Q 283 -330 267 -333 Q 251 -336 234 -336 L 161 -336 Z " id="path12"/>
<path d="M 247 8 Q 220 8 193.5 2.5 Q 167 -3 143.5 -16 Q 120 -29 101.5 -49.5 Q 83 -70 72 -94.5 Q 61 -119 56.5 -146 Q 52 -173 52 -200 L 52 -535 Q 52 -562 56.5 -589 Q 61 -616 72 -640.5 Q 83 -665 101.5 -685.5 Q 120 -706 143.5 -719 Q 167 -732 193.5 -737.5 Q 220 -743 247 -743 Q 273 -743 298 -738.5 Q 323 -734 346 -723 Q 369 -712 387.5 -694 Q 406 -676 418 -653.5 Q 430 -631 436 -606 Q 442 -581 442 -556 L 442 -554 L 341 -554 L 341 -555 Q 341 -575 335.5 -593.5 Q 330 -612 317 -627 Q 304 -642 285.5 -648.5 Q 267 -655 247 -655 Q 226 -655 206 -645.5 Q 186 -636 173.5 -618 Q 161 -600 157 -578.5 Q 153 -557 153 -535 L 153 -200 Q 153 -178 157 -156.5 Q 161 -135 173.5 -117 Q 186 -99 206 -89.5 Q 226 -80 247 -80 Q 267 -80 285.5 -86.5 Q 304 -93 317 -108 Q 330 -123 335.5 -141.5 Q 341 -160 341 -180 L 341 -181 L 442 -181 L 442 -179 Q 442 -154 436 -129 Q 430 -104 418 -81.5 Q 406 -59 387.5 -41 Q 369 -23 346 -12 Q 323 -1 298 3.5 Q 273 8 247 8 Z " id="path13"/>
<path d="M 60 0 L 60 -735 L 219 -735 Q 249 -735 279 -730 Q 309 -725 336.5 -712 Q 364 -699 386 -678.5 Q 408 -658 422 -631.5 Q 436 -605 442 -575 Q 448 -545 448 -515 L 448 -220 Q 448 -190 442 -160 Q 436 -130 422 -103.5 Q 408 -77 386 -56.5 Q 364 -36 336.5 -23 Q 309 -10 279 -5 Q 249 -0 219 0 Z M 161 -88 L 219 -88 Q 237 -88 254 -91 Q 271 -94 286.5 -102.5 Q 302 -111 314 -124 Q 326 -137 333.5 -152.5 Q 341 -168 344 -185.5 Q 347 -203 347 -220 L 347 -515 Q 347 -532 344 -549.5 Q 341 -567 333.5 -582.5 Q 326 -598 314 -611 Q 302 -624 286.5 -632.5 Q 271 -641 254 -644 Q 237 -647 219 -647 L 161 -647 Z " id="path14"/>
<path d="M 68 0 L 68 -735 L 440 -735 L 440 -647 L 169 -647 L 169 -426 L 383 -426 L 383 -338 L 169 -338 L 169 -88 L 440 -88 L 440 0 Z " id="path15"/>
<path d="M 91 0 L 91 -735 L 440 -735 L 440 -647 L 191 -647 L 191 -426 L 383 -426 L 383 -338 L 191 -338 L 191 0 Z " id="path16"/>
<path d="M 250 8 Q 223 8 196.5 2.5 Q 170 -3 147 -16.5 Q 124 -30 106.5 -50.5 Q 89 -71 78.5 -95.5 Q 68 -120 64 -146.5 Q 60 -173 60 -200 L 60 -735 L 161 -735 L 161 -200 Q 161 -186 162.5 -172 Q 164 -158 168 -144.5 Q 172 -131 179.5 -118.5 Q 187 -106 197.5 -97 Q 208 -88 222 -84 Q 236 -80 250 -80 Q 264 -80 278 -84 Q 292 -88 302.5 -97 Q 313 -106 320.5 -118.5 Q 328 -131 332 -144.5 Q 336 -158 337.5 -172 Q 339 -186 339 -200 L 339 -735 L 440 -735 L 440 -200 Q 440 -173 436 -146.5 Q 432 -120 421.5 -95.5 Q 411 -71 393.5 -50.5 Q 376 -30 353 -16.5 Q 330 -3 303.5 2.5 Q 277 8 250 8 Z " id="path17"/>
<path d="M 300 -143 L 200 -143 L 200 -296 L 60 -296 L 60 -384 L 200 -384 L 200 -537 L 300 -537 L 300 -384 L 440 -384 L 440 -296 L 300 -296 Z " id="path18"/>
<path d="M 88 -323 L 153 -687 L 225 -687 L 250 -548 L 275 -687 L 347 -687 L 369 -566 L 412 -323 L 345 -323 L 334 -395 L 288 -395 L 283 -363 L 290 -323 L 223 -323 L 212 -395 L 166 -395 L 155 -323 Z M 296 -452 L 326 -452 L 311 -548 Z M 174 -452 L 204 -452 L 189 -548 Z " id="path19"/>
<path d="M 250 -520 L 168 -687 L 332 -687 Z M 168 -323 L 250 -490 L 332 -323 Z " id="path20"/>
<path d="M 250 -520 L 168 -687 L 332 -687 Z " id="path21"/>
<path d="M 193 -317 Q 172 -317 151.5 -325 Q 131 -333 118 -349.5 Q 105 -366 100 -386.5 Q 95 -407 95 -428 Q 95 -451 101 -473.5 Q 107 -496 122 -512.5 Q 137 -529 158.5 -536.5 Q 180 -544 203 -544 L 213 -544 L 213 -610 Q 213 -617 206.5 -621.5 Q 200 -626 193 -626 Q 187 -626 183 -622.5 Q 179 -619 176.5 -614 Q 174 -609 173 -604 Q 172 -599 172 -593 L 172 -592 L 99 -592 L 99 -596 Q 99 -615 105 -634 Q 111 -653 124 -666.5 Q 137 -680 155.5 -686.5 Q 174 -693 193 -693 Q 209 -693 224 -689.5 Q 239 -686 253 -678 Q 265 -686 279.5 -689.5 Q 294 -693 309 -693 Q 329 -693 348.5 -686.5 Q 368 -680 381.5 -665.5 Q 395 -651 400 -631.5 Q 405 -612 405 -592 L 405 -472 L 287 -472 L 287 -418 Q 287 -412 288 -406.5 Q 289 -401 291.5 -396 Q 294 -391 298.5 -387.5 Q 303 -384 309 -384 Q 314 -384 318.5 -387 Q 323 -390 325.5 -394.5 Q 328 -399 329 -404.5 Q 330 -410 330 -415 L 404 -415 Q 404 -396 398 -377 Q 392 -358 379 -344 Q 366 -330 347 -323.5 Q 328 -317 309 -317 Q 293 -317 277.5 -321 Q 262 -325 249 -335 Q 237 -325 222.5 -321 Q 208 -317 193 -317 Z M 287 -538 L 332 -538 L 332 -592 Q 332 -598 331 -603.5 Q 330 -609 327.5 -614.5 Q 325 -620 320 -623 Q 315 -626 309 -626 Q 304 -626 299 -623 Q 294 -620 291.5 -614.5 Q 289 -609 288 -603.5 Q 287 -598 287 -592 Z M 192 -384 Q 200 -384 204 -390.5 Q 208 -397 210 -404 Q 212 -411 212.5 -418.5 Q 213 -426 213 -434 L 213 -478 L 203 -478 Q 195 -478 187.5 -474 Q 180 -470 175.5 -463 Q 171 -456 169.5 -448 Q 168 -440 168 -432 Q 168 -424 169 -417 Q 170 -410 172.5 -403 Q 175 -396 180 -390 Q 185 -384 192 -384 Z " id="path22"/>
<path d="M 109 -323 L 109 -687 L 265 -687 Q 287 -687 309 -681.5 Q 331 -676 348.5 -662 Q 366 -648 374.5 -627 Q 383 -606 383 -583 Q 383 -573 381 -563 Q 379 -553 374.5 -544 Q 370 -535 363 -527 Q 356 -519 348 -514 Q 360 -509 370.5 -501 Q 381 -493 388.5 -482 Q 396 -471 399.5 -458 Q 403 -445 403 -432 Q 403 -416 398 -399.5 Q 393 -383 383.5 -370 Q 374 -357 360 -347.5 Q 346 -338 330 -332.5 Q 314 -327 297.5 -325 Q 281 -323 265 -323 Z M 186 -546 L 265 -546 Q 273 -546 280.5 -547.5 Q 288 -549 294 -554 Q 300 -559 303 -566.5 Q 306 -574 306 -582 Q 306 -590 303 -597.5 Q 300 -605 294 -609.5 Q 288 -614 280 -616 Q 272 -618 265 -618 L 186 -618 Z M 186 -392 L 265 -392 Q 275 -392 285.5 -394 Q 296 -396 305 -400.5 Q 314 -405 320 -414 Q 326 -423 326 -434 Q 326 -444 320 -453.5 Q 314 -463 305 -468 Q 296 -473 285.5 -474.5 Q 275 -476 265 -476 L 186 -476 Z " id="path23"/>
<path d="M 282 -317 Q 267 -317 251.5 -321 Q 236 -325 223 -333.5 Q 210 -342 201 -355 Q 192 -368 186 -382 L 186 -323 L 109 -323 L 109 -717 Q 109 -734 112 -751 Q 115 -768 122.5 -783 Q 130 -798 142.5 -810 Q 155 -822 170 -829.5 Q 185 -837 202 -840 Q 219 -843 236 -843 L 249 -843 L 249 -774 L 236 -774 Q 225 -774 215 -770 Q 205 -766 198 -758 Q 191 -750 188.5 -739 Q 186 -728 186 -717 L 186 -628 Q 192 -642 201 -655 Q 210 -668 223 -676.5 Q 236 -685 251.5 -689 Q 267 -693 282 -693 Q 300 -693 317 -688 Q 334 -683 348 -672.5 Q 362 -662 371.5 -647 Q 381 -632 387 -615.5 Q 393 -599 395 -582 Q 397 -565 397 -547 L 397 -463 Q 397 -445 395 -428 Q 393 -411 387 -394.5 Q 381 -378 371.5 -363 Q 362 -348 348 -337.5 Q 334 -327 317 -322 Q 300 -317 282 -317 Z M 251 -387 Q 265 -387 279 -392 Q 293 -397 303 -408 Q 313 -419 316.5 -433.5 Q 320 -448 320 -463 L 320 -547 Q 320 -562 316.5 -576.5 Q 313 -591 303 -602 Q 293 -613 279 -618 Q 265 -623 251 -623 Q 236 -623 222.5 -617.5 Q 209 -612 200.5 -601 Q 192 -590 189 -575.5 Q 186 -561 186 -547 L 186 -463 Q 186 -449 189 -434.5 Q 192 -420 200.5 -409 Q 209 -398 222.5 -392.5 Q 236 -387 251 -387 Z " id="path24"/>
<path d="M 64 0 L 64 -735 L 436 -735 L 436 0 Z M 94 -321 L 401 -705 L 307 -705 L 94 -438 Z M 94 -477 L 276 -705 L 182 -705 L 94 -595 Z M 94 -634 L 151 -705 L 94 -705 Z M 94 -165 L 406 -554 L 406 -671 L 94 -282 Z M 94 -30 L 112 -30 L 406 -398 L 406 -515 L 94 -126 Z M 237 -30 L 406 -242 L 406 -359 L 143 -30 Z M 268 -30 L 362 -30 L 406 -85 L 406 -203 Z M 393 -30 L 406 -30 L 406 -46 Z " id="path25"/>
<path d="M 120 -317 Q 105 -317 91 -325 Q 77 -333 67.5 -345 Q 58 -357 53 -372 Q 48 -387 44.5 -402 Q 41 -417 40 -432.5 Q 39 -448 39 -463 L 39 -547 Q 39 -562 40 -577.5 Q 41 -593 44.5 -608 Q 48 -623 53 -638 Q 58 -653 67.5 -665 Q 77 -677 91 -685 Q 105 -693 120 -693 Q 132 -693 143 -688.5 Q 154 -684 162 -675.5 Q 170 -667 175.5 -657 Q 181 -647 185 -636 L 185 -838 L 262 -838 L 262 -323 L 185 -323 L 185 -374 Q 181 -363 175.5 -353 Q 170 -343 162 -334.5 Q 154 -326 143 -321.5 Q 132 -317 120 -317 Z M 153 -387 Q 164 -387 170.5 -397 Q 177 -407 180 -418 Q 183 -429 184 -440.5 Q 185 -452 185 -463 L 185 -547 Q 185 -558 184 -569.5 Q 183 -581 180 -592 Q 177 -603 170.5 -613 Q 164 -623 152 -623 Q 141 -623 133 -613.5 Q 125 -604 121.5 -593 Q 118 -582 117 -570.5 Q 116 -559 116 -547 L 116 -463 Q 116 -451 117 -439.5 Q 118 -428 121.5 -417 Q 125 -406 133 -396.5 Q 141 -387 153 -387 Z M 238 -323 L 238 -392 L 376 -618 L 238 -618 L 238 -687 L 455 -687 L 455 -618 L 317 -392 L 455 -392 L 455 -323 Z " id="path26"/>
<path d="M 120 -317 Q 105 -317 91 -325 Q 77 -333 67.5 -345 Q 58 -357 53 -372 Q 48 -387 44.5 -402 Q 41 -417 40 -432.5 Q 39 -448 39 -463 L 39 -547 Q 39 -562 40 -577.5 Q 41 -593 44.5 -608 Q 48 -623 53 -638 Q 58 -653 67.5 -665 Q 77 -677 91 -685 Q 105 -693 120 -693 Q 132 -693 143 -688.5 Q 154 -684 162 -675.5 Q 170 -667 175.5 -657 Q 181 -647 185 -636 L 185 -838 L 262 -838 L 262 -323 L 185 -323 L 185 -374 Q 181 -363 175.5 -353 Q 170 -343 162 -334.5 Q 154 -326 143 -321.5 Q 132 -317 120 -317 Z M 153 -387 Q 164 -387 170.5 -397 Q 177 -407 180 -418 Q 183 -429 184 -440.5 Q 185 -452 185 -463 L 185 -547 Q 185 -558 184 -569.5 Q 183 -581 180 -592 Q 177 -603 170.5 -613 Q 164 -623 152 -623 Q 141 -623 133 -613.5 Q 125 -604 121.5 -593 Q 118 -582 117 -570.5 Q 116 -559 116 -547 L 116 -463 Q 116 -451 117 -439.5 Q 118 -428 121.5 -417 Q 125 -406 133 -396.5 Q 141 -387 153 -387 Z M 513 -167 Q 496 -167 479.5 -170 Q 463 -173 448 -180 Q 433 -187 421 -199 Q 409 -211 401 -226 Q 393 -241 390 -257.5 Q 387 -274 387 -290 L 387 -323 L 238 -323 L 238 -392 L 376 -618 L 238 -618 L 238 -687 L 455 -687 L 455 -618 L 317 -392 L 455 -392 L 455 -290 Q 455 -278 458 -266 Q 461 -254 469 -245 Q 477 -236 488.5 -232 Q 500 -228 513 -228 L 523 -228 L 523 -167 Z " id="path27"/>
<path d="M 120 -317 Q 105 -317 91 -325 Q 77 -333 67.5 -345 Q 58 -357 53 -372 Q 48 -387 44.5 -402 Q 41 -417 40 -432.5 Q 39 -448 39 -463 L 39 -547 Q 39 -562 40 -577.5 Q 41 -593 44.5 -608 Q 48 -623 53 -638 Q 58 -653 67.5 -665 Q 77 -677 91 -685 Q 105 -693 120 -693 Q 132 -693 143 -688.5 Q 154 -684 162 -675.5 Q 170 -667 175.5 -657 Q 181 -647 185 -636 L 185 -838 L 262 -838 L 262 -323 L 185 -323 L 185 -374 Q 181 -363 175.5 -353 Q 170 -343 162 -334.5 Q 154 -326 143 -321.5 Q 132 -317 120 -317 Z M 153 -387 Q 164 -387 170.5 -397 Q 177 -407 180 -418 Q 183 -429 184 -440.5 Q 185 -452 185 -463 L 185 -547 Q 185 -558 184 -569.5 Q 183 -581 180 -592 Q 177 -603 170.5 -613 Q 164 -623 152 -623 Q 141 -623 133 -613.5 Q 125 -604 121.5 -593 Q 118 -582 117 -570.5 Q 116 -559 116 -547 L 116 -463 Q 116 -451 117 -439.5 Q 118 -428 121.5 -417 Q 125 -406 133 -396.5 Q 141 -387 153 -387 Z M 351 -250 L 313 -255 Q 316 -272 319.5 -289 Q 323 -306 327 -323 L 238 -323 L 238 -392 L 376 -618 L 238 -618 L 238 -687 L 455 -687 L 455 -618 L 317 -392 L 348 -392 Q 353 -404 359 -415.5 Q 365 -427 373.5 -437.5 Q 382 -448 393 -455 Q 404 -462 417 -462 Q 430 -462 442 -457.5 Q 454 -453 462 -443.5 Q 470 -434 473 -422 Q 476 -410 476 -398 Q 476 -384 472.5 -370 Q 469 -356 460 -345 Q 451 -334 437.5 -328.5 Q 424 -323 410 -323 L 363 -323 Q 359 -305 356.5 -286.5 Q 354 -268 351 -250 Z M 382 -392 L 410 -392 Q 415 -392 419.5 -393 Q 424 -394 428 -396 Q 432 -398 434.5 -401.5 Q 437 -405 437 -410 Q 437 -417 431 -422 Q 425 -427 417 -427 Q 411 -427 405.5 -423.5 Q 400 -420 395.5 -415 Q 391 -410 388 -404 Q 385 -398 382 -392 Z " id="path28"/>
<path d="M 120 -317 Q 105 -317 91 -325 Q 77 -333 67.5 -345 Q 58 -357 53 -372 Q 48 -387 44.5 -402 Q 41 -417 40 -432.5 Q 39 -448 39 -463 L 39 -547 Q 39 -562 40 -577.5 Q 41 -593 44.5 -608 Q 48 -623 53 -638 Q 58 -653 67.5 -665 Q 77 -677 91 -685 Q 105 -693 120 -693 Q 132 -693 143 -688.5 Q 154 -684 162 -675.5 Q 170 -667 175.5 -657 Q 181 -647 185 -636 L 185 -838 L 262 -838 L 262 -323 L 185 -323 L 185 -374 Q 181 -363 175.5 -353 Q 170 -343 162 -334.5 Q 154 -326 143 -321.5 Q 132 -317 120 -317 Z M 153 -387 Q 164 -387 170.5 -397 Q 177 -407 180 -418 Q 183 -429 184 -440.5 Q 185 -452 185 -463 L 185 -547 Q 185 -558 184 -569.5 Q 183 -581 180 -592 Q 177 -603 170.5 -613 Q 164 -623 152 -623 Q 141 -623 133 -613.5 Q 125 -604 121.5 -593 Q 118 -582 117 -570.5 Q 116 -559 116 -547 L 116 -463 Q 116 -451 117 -439.5 Q 118 -428 121.5 -417 Q 125 -406 133 -396.5 Q 141 -387 153 -387 Z M 348 -173 Q 331 -173 314.5 -177.5 Q 298 -182 285 -192.5 Q 272 -203 262.5 -217.5 Q 253 -232 247.5 -248 Q 242 -264 239.5 -281 Q 237 -298 236 -315 L 313 -315 Q 313 -304 314.5 -293 Q 316 -282 319 -271.5 Q 322 -261 329.5 -251.5 Q 337 -242 348 -242 Q 356 -242 362.5 -248.5 Q 369 -255 372.5 -263 Q 376 -271 378 -279.5 Q 380 -288 381.5 -296.5 Q 383 -305 383 -313.5 Q 383 -322 383 -331 Q 383 -340 383 -349 Q 383 -358 381.5 -366.5 Q 380 -375 378 -383.5 Q 376 -392 372.5 -400 Q 369 -408 362 -414.5 Q 355 -421 346 -421 L 281 -421 L 281 -490 L 359 -618 L 238 -618 L 238 -687 L 439 -687 L 439 -618 L 360 -490 Q 377 -489 393 -481 Q 409 -473 421 -460.5 Q 433 -448 440.5 -432 Q 448 -416 452.5 -399.5 Q 457 -383 458.5 -366 Q 460 -349 460 -331 Q 460 -313 458.5 -294.5 Q 457 -276 451.5 -258.5 Q 446 -241 437.5 -225 Q 429 -209 415 -196.5 Q 401 -184 383.5 -178.5 Q 366 -173 348 -173 Z " id="path29"/>
<path d="M 442 -167 Q 425 -167 408 -170 Q 391 -173 376 -180.5 Q 361 -188 348.5 -200 Q 336 -212 328.5 -227 Q 321 -242 317.5 -259 Q 314 -276 314 -293 L 314 -382 Q 308 -368 299 -355 Q 290 -342 277 -333.5 Q 264 -325 248.5 -321 Q 233 -317 218 -317 Q 200 -317 183 -322 Q 166 -327 152 -337.5 Q 138 -348 128.5 -363 Q 119 -378 113 -394.5 Q 107 -411 105 -428 Q 103 -445 103 -463 L 103 -547 Q 103 -565 105 -582 Q 107 -599 113 -615.5 Q 119 -632 128.5 -647 Q 138 -662 152 -672.5 Q 166 -683 183 -688 Q 200 -693 218 -693 Q 233 -693 248.5 -689 Q 264 -685 277 -676.5 Q 290 -668 299 -655 Q 308 -642 314 -628 L 314 -838 L 391 -838 L 391 -293 Q 391 -282 394 -271 Q 397 -260 404 -252 Q 411 -244 421 -240 Q 431 -236 442 -236 L 454 -236 L 454 -167 Z M 249 -387 Q 264 -387 277.5 -392.5 Q 291 -398 299.5 -409 Q 308 -420 311 -434.5 Q 314 -449 314 -463 L 314 -547 Q 314 -561 311 -575.5 Q 308 -590 299.5 -601 Q 291 -612 277.5 -617.5 Q 264 -623 249 -623 Q 235 -623 221 -618 Q 207 -613 197 -602 Q 187 -591 183.5 -576.5 Q 180 -562 180 -547 L 180 -463 Q 180 -448 183.5 -433.5 Q 187 -419 197 -408 Q 207 -397 221 -392 Q 235 -387 249 -387 Z " id="path30"/>
<path d="M 218 -317 Q 200 -317 183 -322 Q 166 -327 152 -337.5 Q 138 -348 128.5 -363 Q 119 -378 113 -394.5 Q 107 -411 105 -428 Q 103 -445 103 -463 L 103 -547 Q 103 -565 105 -582 Q 107 -599 113 -615.5 Q 119 -632 128.5 -647 Q 138 -662 152 -672.5 Q 166 -683 183 -688 Q 200 -693 218 -693 Q 233 -693 248.5 -689 Q 264 -685 277 -676.5 Q 290 -668 299 -655 Q 308 -642 314 -628 L 314 -717 Q 314 -734 317.5 -751 Q 321 -768 328.5 -783 Q 336 -798 348.5 -810 Q 361 -822 376 -829.5 Q 391 -837 408 -840 Q 425 -843 442 -843 L 454 -843 L 454 -774 L 442 -774 Q 431 -774 421 -770 Q 411 -766 404 -758 Q 397 -750 394 -739 Q 391 -728 391 -717 L 391 -323 L 314 -323 L 314 -382 Q 308 -368 299 -355 Q 290 -342 277 -333.5 Q 264 -325 248.5 -321 Q 233 -317 218 -317 Z M 249 -387 Q 264 -387 277.5 -392.5 Q 291 -398 299.5 -409 Q 308 -420 311 -434.5 Q 314 -449 314 -463 L 314 -547 Q 314 -561 311 -575.5 Q 308 -590 299.5 -601 Q 291 -612 277.5 -617.5 Q 264 -623 249 -623 Q 235 -623 221 -618 Q 207 -613 197 -602 Q 187 -591 183.5 -576.5 Q 180 -562 180 -547 L 180 -463 Q 180 -448 183.5 -433.5 Q 187 -419 197 -408 Q 207 -397 221 -392 Q 235 -387 249 -387 Z " id="path31"/>
<path d="M 442 -167 Q 425 -167 408 -170 Q 391 -173 376 -180.5 Q 361 -188 348.5 -200 Q 336 -212 328.5 -227 Q 321 -242 317.5 -259 Q 314 -276 314 -293 L 314 -382 Q 308 -368 299 -355 Q 290 -342 277 -333.5 Q 264 -325 248.5 -321 Q 233 -317 218 -317 Q 200 -317 183 -322 Q 166 -327 152 -337.5 Q 138 -348 128.5 -363 Q 119 -378 113 -394.5 Q 107 -411 105 -428 Q 103 -445 103 -463 L 103 -547 Q 103 -565 105 -582 Q 107 -599 113 -615.5 Q 119 -632 128.5 -647 Q 138 -662 152 -672.5 Q 166 -683 183 -688 Q 200 -693 218 -693 Q 233 -693 248.5 -689 Q 264 -685 277 -676.5 Q 290 -668 299 -655 Q 308 -642 314 -628 L 314 -717 Q 314 -734 317.5 -751 Q 321 -768 328.5 -783 Q 336 -798 348.5 -810 Q 361 -822 376 -829.5 Q 391 -837 408 -840 Q 425 -843 442 -843 L 454 -843 L 454 -774 L 442 -774 Q 431 -774 421 -770 Q 411 -766 404 -758 Q 397 -750 394 -739 Q 391 -728 391 -717 L 391 -293 Q 391 -282 394 -271 Q 397 -260 404 -252 Q 411 -244 421 -240 Q 431 -236 442 -236 L 454 -236 L 454 -167 Z M 249 -387 Q 264 -387 277.5 -392.5 Q 291 -398 299.5 -409 Q 308 -420 311 -434.5 Q 314 -449 314 -463 L 314 -547 Q 314 -561 311 -575.5 Q 308 -590 299.5 -601 Q 291 -612 277.5 -617.5 Q 264 -623 249 -623 Q 235 -623 221 -618 Q 207 -613 197 -602 Q 187 -591 183.5 -576.5 Q 180 -562 180 -547 L 180 -463 Q 180 -448 183.5 -433.5 Q 187 -419 197 -408 Q 207 -397 221 -392 Q 235 -387 249 -387 Z " id="path32"/>
<path d="M 248 -317 Q 223 -317 198 -322.5 Q 173 -328 152 -343 Q 131 -358 118.5 -381 Q 106 -404 104 -429 L 181 -429 Q 182 -418 189 -409 Q 196 -400 206 -395 Q 216 -390 226.5 -388.5 Q 237 -387 248 -387 Q 263 -387 277.5 -392 Q 292 -397 302 -408 Q 312 -419 316 -433.5 Q 320 -448 320 -463 L 320 -470 L 103 -470 L 103 -547 Q 103 -567 106.5 -586.5 Q 110 -606 119 -623.5 Q 128 -641 142 -654.5 Q 156 -668 173.5 -677 Q 191 -686 210.5 -689.5 Q 230 -693 250 -693 Q 270 -693 289.5 -689.5 Q 309 -686 326.5 -677 Q 344 -668 358 -654.5 Q 372 -641 381 -623.5 Q 390 -606 393.5 -586.5 Q 397 -567 397 -547 L 397 -463 Q 397 -443 393.5 -423.5 Q 390 -404 381 -386.5 Q 372 -369 357.5 -355 Q 343 -341 325 -332.5 Q 307 -324 287.5 -320.5 Q 268 -317 248 -317 Z M 180 -540 L 320 -540 L 320 -547 Q 320 -562 316 -576.5 Q 312 -591 302.5 -602 Q 293 -613 279 -618 Q 265 -623 250 -623 Q 235 -623 221 -618 Q 207 -613 197.5 -602 Q 188 -591 184 -576.5 Q 180 -562 180 -547 Z " id="path33"/>
<path d="M 252 -317 Q 233 -317 213 -320 Q 193 -323 175 -332 Q 157 -341 142.5 -355 Q 128 -369 119 -386.5 Q 110 -404 106.5 -423.5 Q 103 -443 103 -463 L 103 -547 Q 103 -567 106.5 -586.5 Q 110 -606 119 -623.5 Q 128 -641 142.5 -655 Q 157 -669 175 -677.5 Q 193 -686 212.5 -689.5 Q 232 -693 252 -693 Q 277 -693 301.5 -688 Q 326 -683 347 -669 Q 368 -655 379.5 -632.5 Q 391 -610 391 -585 Q 391 -574 388.5 -562.5 Q 386 -551 380 -542 Q 374 -533 365 -525.5 Q 356 -518 346 -513 Q 358 -508 369 -500.5 Q 380 -493 388 -482.5 Q 396 -472 399.5 -459 Q 403 -446 403 -432 Q 403 -406 390 -381.5 Q 377 -357 354.5 -342.5 Q 332 -328 305.5 -322.5 Q 279 -317 252 -317 Z M 253 -387 Q 265 -387 277 -389 Q 289 -391 300 -396 Q 311 -401 318.5 -411 Q 326 -421 326 -433 Q 326 -445 317.5 -455 Q 309 -465 298 -470 Q 287 -475 274.5 -476.5 Q 262 -478 250 -478 L 208 -478 L 208 -547 L 250 -547 Q 260 -547 270.5 -548 Q 281 -549 290.5 -553 Q 300 -557 307 -565.5 Q 314 -574 314 -584 Q 314 -594 308 -602.5 Q 302 -611 292.5 -615.5 Q 283 -620 273 -621.5 Q 263 -623 253 -623 Q 238 -623 223 -618.5 Q 208 -614 198 -603 Q 188 -592 184 -577 Q 180 -562 180 -547 L 180 -463 Q 180 -448 184 -433 Q 188 -418 198.5 -407 Q 209 -396 223.5 -391.5 Q 238 -387 253 -387 Z " id="path34"/>
<path d="M 102 -323 L 102 -618 L 45 -618 L 45 -687 L 102 -687 L 102 -728 Q 102 -742 103 -755.5 Q 104 -769 108 -782 Q 112 -795 119.5 -806.5 Q 127 -818 137.5 -827 Q 148 -836 161 -839.5 Q 174 -843 188 -843 Q 207 -843 225 -835 Q 243 -827 254 -811 Q 265 -795 269.5 -776.5 Q 274 -758 274 -738 L 274 -733 L 197 -733 L 197 -735 Q 197 -738 197 -741.5 Q 197 -745 196.5 -748.5 Q 196 -752 195.5 -755.5 Q 195 -759 194.5 -762.5 Q 194 -766 192.5 -770 Q 191 -774 188 -774 Q 184 -774 182.5 -769 Q 181 -764 180.5 -760.5 Q 180 -757 179.5 -752.5 Q 179 -748 179 -744 Q 179 -740 178.5 -736 Q 178 -732 178 -728 L 178 -687 L 251 -687 L 251 -618 L 178 -618 L 178 -323 Z M 297 -173 L 297 -242 L 327 -242 Q 338 -242 348.5 -246 Q 359 -250 365.5 -258 Q 372 -266 375 -276.5 Q 378 -287 378 -298 L 378 -547 Q 378 -554 377.5 -561.5 Q 377 -569 376 -576.5 Q 375 -584 373.5 -591.5 Q 372 -599 368.5 -606 Q 365 -613 359.5 -618 Q 354 -623 346 -623 Q 339 -623 333 -618 Q 327 -613 324 -606 Q 321 -599 319 -591.5 Q 317 -584 316 -576.5 Q 315 -569 315 -561.5 Q 315 -554 315 -547 L 315 -323 L 238 -323 L 238 -618 L 224 -618 L 224 -687 L 315 -687 L 315 -636 Q 319 -647 324 -657 Q 329 -667 337 -675.5 Q 345 -684 356 -688.5 Q 367 -693 379 -693 Q 394 -693 407.5 -685 Q 421 -677 429.5 -664 Q 438 -651 442.5 -636.5 Q 447 -622 450 -607 Q 453 -592 454 -577 Q 455 -562 455 -547 L 455 -298 Q 455 -281 452 -264 Q 449 -247 441 -232 Q 433 -217 420.5 -205 Q 408 -193 393 -185.5 Q 378 -178 361 -175.5 Q 344 -173 327 -173 Z " id="path35"/>
<path d="M 250 -317 Q 229 -317 210.5 -326.5 Q 192 -336 180.5 -353.5 Q 169 -371 165.5 -391.5 Q 162 -412 162 -432 Q 162 -471 174 -507.5 Q 186 -544 206 -577 Q 197 -587 186 -595 Q 175 -603 162.5 -608.5 Q 150 -614 136 -616 Q 122 -618 109 -618 L 109 -687 Q 128 -687 147.5 -685 Q 167 -683 185.5 -676 Q 204 -669 220 -657.5 Q 236 -646 250 -632 Q 264 -646 280 -657.5 Q 296 -669 314.5 -676 Q 333 -683 352.5 -685 Q 372 -687 391 -687 L 391 -618 Q 378 -618 364 -616 Q 350 -614 337.5 -608.5 Q 325 -603 314 -595 Q 303 -587 294 -577 Q 314 -544 326 -507.5 Q 338 -471 338 -432 Q 338 -412 334.5 -391.5 Q 331 -371 319.5 -353.5 Q 308 -336 289.5 -326.5 Q 271 -317 250 -317 Z M 250 -374 Q 259 -374 264 -382 Q 269 -390 271.5 -398 Q 274 -406 274.5 -415 Q 275 -424 275 -432 Q 275 -456 268.5 -478.5 Q 262 -501 250 -521 Q 238 -501 231.5 -478.5 Q 225 -456 225 -432 Q 225 -424 225.5 -415 Q 226 -406 228.5 -398 Q 231 -390 236 -382 Q 241 -374 250 -374 Z " id="path36"/>
<path d="M 218 -317 Q 201 -317 184 -321.5 Q 167 -326 153 -336 Q 139 -346 129 -360.5 Q 119 -375 113 -391.5 Q 107 -408 105 -425 Q 103 -442 103 -460 L 103 -551 Q 103 -570 106.5 -589 Q 110 -608 119 -625 Q 128 -642 142 -655.5 Q 156 -669 173.5 -677.5 Q 191 -686 210 -689.5 Q 229 -693 248 -693 Q 276 -693 303 -685.5 Q 330 -678 350.5 -660 Q 371 -642 382 -616 Q 393 -590 393 -563 L 393 -561 L 316 -561 L 316 -562 Q 316 -574 311 -586.5 Q 306 -599 296.5 -607.5 Q 287 -616 274 -619.5 Q 261 -623 248 -623 Q 234 -623 220 -618.5 Q 206 -614 197 -603.5 Q 188 -593 184 -579 Q 180 -565 180 -551 L 180 -460 Q 180 -445 184 -431 Q 188 -417 197.5 -406.5 Q 207 -396 221 -391.5 Q 235 -387 249 -387 Q 263 -387 276.5 -392 Q 290 -397 299 -407.5 Q 308 -418 311 -432 Q 314 -446 314 -459 L 314 -460 L 250 -460 L 250 -530 L 391 -530 L 391 -323 L 321 -323 L 321 -400 Q 316 -383 307 -367 Q 298 -351 284.5 -339.5 Q 271 -328 253.5 -322.5 Q 236 -317 218 -317 Z " id="path37"/>
<path d="M 248 -167 Q 222 -167 197 -173 Q 172 -179 151.5 -195 Q 131 -211 119.5 -234.5 Q 108 -258 107 -284 L 184 -284 Q 185 -272 190.5 -262.5 Q 196 -253 205.5 -247 Q 215 -241 226 -238.5 Q 237 -236 248 -236 Q 262 -236 276 -241.5 Q 290 -247 299 -258.5 Q 308 -270 311 -284 Q 314 -298 314 -313 L 314 -382 Q 308 -368 299 -355 Q 290 -342 277 -333.5 Q 264 -325 248.5 -321 Q 233 -317 218 -317 Q 200 -317 183 -322 Q 166 -327 152 -337.5 Q 138 -348 128.5 -363 Q 119 -378 113 -394.5 Q 107 -411 105 -428 Q 103 -445 103 -463 L 103 -547 Q 103 -565 105 -582 Q 107 -599 113 -615.5 Q 119 -632 128.5 -647 Q 138 -662 152 -672.5 Q 166 -683 183 -688 Q 200 -693 218 -693 Q 233 -693 248.5 -689 Q 264 -685 277 -676.5 Q 290 -668 299 -655 Q 308 -642 314 -628 L 314 -717 Q 314 -734 317.5 -751 Q 321 -768 328.5 -783 Q 336 -798 348.5 -810 Q 361 -822 376 -829.5 Q 391 -837 408 -840 Q 425 -843 442 -843 L 454 -843 L 454 -774 L 442 -774 Q 431 -774 421 -770 Q 411 -766 404 -758 Q 397 -750 394 -739 Q 391 -728 391 -717 L 391 -313 Q 391 -293 388 -274 Q 385 -255 376.5 -237.5 Q 368 -220 354 -206 Q 340 -192 323 -183 Q 306 -174 286.5 -170.5 Q 267 -167 248 -167 Z M 249 -387 Q 264 -387 277.5 -392.5 Q 291 -398 299.5 -409 Q 308 -420 311 -434.5 Q 314 -449 314 -463 L 314 -547 Q 314 -561 311 -575.5 Q 308 -590 299.5 -601 Q 291 -612 277.5 -617.5 Q 264 -623 249 -623 Q 235 -623 221 -618 Q 207 -613 197 -602 Q 187 -591 183.5 -576.5 Q 180 -562 180 -547 L 180 -463 Q 180 -448 183.5 -433.5 Q 187 -419 197 -408 Q 207 -397 221 -392 Q 235 -387 249 -387 Z " id="path38"/>
<path d="M 218 -317 Q 201 -317 184 -321.5 Q 167 -326 153 -336 Q 139 -346 129 -360.5 Q 119 -375 113 -391.5 Q 107 -408 105 -425 Q 103 -442 103 -460 L 103 -551 Q 103 -568 105.5 -585 Q 108 -602 114 -618.5 Q 120 -635 130.5 -649 Q 141 -663 155 -673 Q 169 -683 186 -688 Q 203 -693 220 -693 Q 236 -693 252 -688.5 Q 268 -684 281.5 -675.5 Q 295 -667 306 -655 Q 317 -643 324 -628 L 324 -720 Q 324 -736 327 -752.5 Q 330 -769 337.5 -784 Q 345 -799 357 -811 Q 369 -823 384 -830 Q 399 -837 415.5 -840 Q 432 -843 449 -843 L 459 -843 L 459 -782 L 449 -782 Q 437 -782 425.5 -778 Q 414 -774 406 -765 Q 398 -756 394.5 -744 Q 391 -732 391 -720 L 391 -560 L 314 -560 Q 314 -573 309 -585 Q 304 -597 294.5 -606 Q 285 -615 272.5 -619 Q 260 -623 248 -623 Q 234 -623 220 -618 Q 206 -613 197 -602.5 Q 188 -592 184 -578.5 Q 180 -565 180 -551 L 180 -460 Q 180 -445 184 -431 Q 188 -417 197.5 -406.5 Q 207 -396 221 -391.5 Q 235 -387 249 -387 Q 263 -387 276.5 -392 Q 290 -397 299 -407.5 Q 308 -418 311 -432 Q 314 -446 314 -459 L 314 -460 L 250 -460 L 250 -530 L 391 -530 L 391 -323 L 321 -323 L 321 -400 Q 316 -383 307 -367 Q 298 -351 284.5 -339.5 Q 271 -328 253.5 -322.5 Q 236 -317 218 -317 Z " id="path39"/>
<path d="M 109 -323 L 109 -728 L 85 -728 L 85 -781 L 109 -781 L 109 -838 L 186 -838 L 186 -781 L 250 -781 L 250 -728 L 186 -728 L 186 -628 Q 192 -642 201 -654.5 Q 210 -667 223 -676 Q 236 -685 251 -689 Q 266 -693 282 -693 Q 299 -693 315.5 -688 Q 332 -683 345.5 -672 Q 359 -661 368 -646 Q 377 -631 382.5 -614.5 Q 388 -598 389.5 -581 Q 391 -564 391 -547 L 391 -323 L 314 -323 L 314 -547 Q 314 -561 311 -575 Q 308 -589 299.5 -600.5 Q 291 -612 277.5 -617.5 Q 264 -623 250 -623 Q 236 -623 222.5 -617.5 Q 209 -612 200.5 -600.5 Q 192 -589 189 -575 Q 186 -561 186 -547 L 186 -323 Z " id="path40"/>
<path d="M 109 -323 L 109 -687 L 186 -687 L 186 -544 L 314 -544 L 314 -687 L 391 -687 L 391 -323 L 314 -323 L 314 -475 L 186 -475 L 186 -323 Z " id="path41"/>
<path d="M 234 -173 L 234 -242 L 264 -242 Q 275 -242 285 -246 Q 295 -250 302 -258 Q 309 -266 311.5 -276.5 Q 314 -287 314 -298 L 314 -547 Q 314 -561 311 -575 Q 308 -589 299.5 -600.5 Q 291 -612 277.5 -617.5 Q 264 -623 250 -623 Q 236 -623 222.5 -617.5 Q 209 -612 200.5 -600.5 Q 192 -589 189 -575 Q 186 -561 186 -547 L 186 -323 L 109 -323 L 109 -717 Q 109 -734 112 -751 Q 115 -768 122.5 -783 Q 130 -798 142.5 -810 Q 155 -822 170 -829.5 Q 185 -837 202 -840 Q 219 -843 236 -843 L 249 -843 L 249 -774 L 236 -774 Q 225 -774 215 -770 Q 205 -766 198 -758 Q 191 -750 188.5 -739 Q 186 -728 186 -717 L 186 -628 Q 192 -642 201 -654.5 Q 210 -667 223 -676 Q 236 -685 251 -689 Q 266 -693 282 -693 Q 299 -693 315.5 -688 Q 332 -683 345.5 -672 Q 359 -661 368 -646 Q 377 -631 382.5 -614.5 Q 388 -598 389.5 -581 Q 391 -564 391 -547 L 391 -298 Q 391 -281 388 -264 Q 385 -247 377.5 -232 Q 370 -217 357.5 -205 Q 345 -193 330 -185.5 Q 315 -178 298 -175.5 Q 281 -173 264 -173 Z " id="path42"/>
<path d="M 204 -167 Q 180 -167 155.5 -174.5 Q 131 -182 113.5 -199.5 Q 96 -217 87 -241 Q 78 -265 78 -290 L 155 -290 Q 155 -279 158 -269 Q 161 -259 167.5 -251.5 Q 174 -244 184 -240 Q 194 -236 204 -236 Q 217 -236 228 -242.5 Q 239 -249 245 -260 Q 251 -271 253.5 -283.5 Q 256 -296 256 -309 L 256 -478 L 196 -478 L 196 -532 L 256 -532 L 256 -717 Q 256 -734 259 -751 Q 262 -768 269.5 -783 Q 277 -798 289.5 -810 Q 302 -822 317 -829.5 Q 332 -837 349 -840 Q 366 -843 383 -843 L 396 -843 L 396 -774 L 383 -774 Q 372 -774 362 -770 Q 352 -766 345 -758 Q 338 -750 335.5 -739 Q 333 -728 333 -717 L 333 -532 L 380 -532 L 380 -478 L 333 -478 L 333 -309 Q 333 -291 330 -273 Q 327 -255 320 -238 Q 313 -221 301.5 -207 Q 290 -193 274 -183.5 Q 258 -174 240 -170.5 Q 222 -167 204 -167 Z " id="path43"/>
<path d="M 203 -323 Q 187 -323 171.5 -325.5 Q 156 -328 141.5 -335 Q 127 -342 115.5 -353 Q 104 -364 96.5 -378 Q 89 -392 86 -407.5 Q 83 -423 83 -439 L 83 -768 L 14 -768 L 14 -838 L 160 -838 L 160 -439 Q 160 -430 162.5 -421 Q 165 -412 170.5 -405.5 Q 176 -399 185 -395.5 Q 194 -392 203 -392 L 262 -392 L 262 -323 Z M 238 -323 L 238 -392 L 346 -392 Q 353 -392 359 -393 Q 365 -394 371 -397.5 Q 377 -401 380.5 -406.5 Q 384 -412 384 -418 Q 384 -430 376 -440 Q 368 -450 358.5 -457.5 Q 349 -465 339 -471.5 Q 329 -478 319 -484 Q 309 -490 299 -497 Q 289 -504 279.5 -511.5 Q 270 -519 262.5 -528.5 Q 255 -538 249.5 -548.5 Q 244 -559 241 -570.5 Q 238 -582 238 -594 Q 238 -615 246 -635 Q 254 -655 269.5 -668.5 Q 285 -682 305.5 -687.5 Q 326 -693 347 -693 Q 370 -693 391.5 -685 Q 413 -677 428 -660 Q 443 -643 449.5 -621 Q 456 -599 456 -576 L 456 -570 L 379 -570 L 379 -572 Q 379 -581 377.5 -589.5 Q 376 -598 372.5 -605.5 Q 369 -613 362 -618 Q 355 -623 347 -623 Q 341 -623 334.5 -621.5 Q 328 -620 323.5 -615.5 Q 319 -611 317 -605 Q 315 -599 315 -593 Q 315 -583 320 -573.5 Q 325 -564 332.5 -557 Q 340 -550 348.5 -544.5 Q 357 -539 366 -534 L 367 -534 Q 384 -524 400.5 -513 Q 417 -502 430.5 -487.5 Q 444 -473 452.5 -454.5 Q 461 -436 461 -417 Q 461 -396 451.5 -376.5 Q 442 -357 425 -344.5 Q 408 -332 387.5 -327.5 Q 367 -323 346 -323 Z " id="path44"/>
<path d="M 203 -323 Q 187 -323 171.5 -325.5 Q 156 -328 141.5 -335 Q 127 -342 115.5 -353 Q 104 -364 96.5 -378 Q 89 -392 86 -407.5 Q 83 -423 83 -439 L 83 -768 L 14 -768 L 14 -838 L 160 -838 L 160 -439 Q 160 -430 162.5 -421 Q 165 -412 170.5 -405.5 Q 176 -399 185 -395.5 Q 194 -392 203 -392 L 262 -392 L 262 -323 Z M 238 -323 L 238 -392 L 376 -618 L 238 -618 L 238 -687 L 455 -687 L 455 -618 L 317 -392 L 455 -392 L 455 -323 Z " id="path45"/>
<path d="M 128 -323 L 128 -392 L 216 -392 L 216 -528 L 193 -528 Q 180 -528 167 -531.5 Q 154 -535 144 -543.5 Q 134 -552 129.5 -564.5 Q 125 -577 125 -591 Q 125 -604 129.5 -616.5 Q 134 -629 144 -637.5 Q 154 -646 167 -649.5 Q 180 -653 193 -653 L 216 -653 L 216 -768 L 137 -768 L 137 -838 L 293 -838 L 293 -572 L 361 -572 L 361 -528 L 293 -528 L 293 -392 L 373 -392 L 373 -323 Z M 216 -572 L 216 -609 L 193 -609 Q 186 -609 180.5 -603.5 Q 175 -598 175 -591 Q 175 -583 180.5 -577.5 Q 186 -572 193 -572 Z " id="path46"/>
<path d="M 125 -323 L 125 -442 L 102 -442 Q 89 -442 76 -445.5 Q 63 -449 53 -458 Q 43 -467 38.5 -479.5 Q 34 -492 34 -505 Q 34 -518 38.5 -530.5 Q 43 -543 53 -552 Q 63 -561 76 -564.5 Q 89 -568 102 -568 L 125 -568 L 125 -687 L 202 -687 L 202 -487 L 270 -487 L 270 -442 L 202 -442 L 202 -392 L 396 -392 L 396 -323 Z M 102 -487 L 125 -487 L 125 -523 L 102 -523 Q 95 -523 89.5 -517.5 Q 84 -512 84 -505 Q 84 -498 89.5 -492.5 Q 95 -487 102 -487 Z " id="path47"/>
<path d="M 339 -167 Q 322 -167 305 -170 Q 288 -173 273 -180.5 Q 258 -188 245.5 -200 Q 233 -212 225.5 -227 Q 218 -242 215 -259 Q 212 -276 212 -293 L 212 -528 L 188 -528 Q 175 -528 162 -531.5 Q 149 -535 139 -543.5 Q 129 -552 125 -564.5 Q 121 -577 121 -591 Q 121 -604 125 -616.5 Q 129 -629 139 -637.5 Q 149 -646 162 -649.5 Q 175 -653 188 -653 L 212 -653 L 212 -768 L 128 -768 L 128 -838 L 288 -838 L 288 -572 L 356 -572 L 356 -528 L 288 -528 L 288 -293 Q 288 -282 291 -271 Q 294 -260 301 -252 Q 308 -244 318 -240 Q 328 -236 339 -236 L 352 -236 L 352 -167 Z M 212 -572 L 212 -609 L 188 -609 Q 181 -609 175.5 -603.5 Q 170 -598 170 -591 Q 170 -583 175.5 -577.5 Q 181 -572 188 -572 Z " id="path48"/>
<path d="M 251 -173 Q 223 -173 196 -181 Q 169 -189 148.5 -208 Q 128 -227 118 -254 Q 108 -281 107 -309 L 184 -309 Q 184 -295 188.5 -282 Q 193 -269 202.5 -259.5 Q 212 -250 225 -246 Q 238 -242 251 -242 Q 267 -242 282 -249.5 Q 297 -257 305.5 -270 Q 314 -283 317 -299 Q 320 -315 320 -331 Q 320 -347 317 -363 Q 314 -379 305 -392.5 Q 296 -406 281 -413.5 Q 266 -421 250 -421 L 222 -421 L 222 -490 L 293 -618 L 186 -618 L 186 -359 L 109 -359 L 109 -768 L 88 -768 L 88 -838 L 186 -838 L 186 -687 L 370 -687 L 370 -618 L 296 -485 Q 321 -479 341.5 -463.5 Q 362 -448 374.5 -426.5 Q 387 -405 392 -380.5 Q 397 -356 397 -331 Q 397 -310 394 -290 Q 391 -270 382.5 -251 Q 374 -232 360.5 -216.5 Q 347 -201 329.5 -191 Q 312 -181 292 -177 Q 272 -173 251 -173 Z " id="path49"/>
<path d="M 236 -167 Q 219 -167 202 -170 Q 185 -173 170 -180.5 Q 155 -188 142.5 -200 Q 130 -212 122.5 -227 Q 115 -242 112 -259 Q 109 -276 109 -293 L 109 -419 Q 108 -422 107.5 -426 Q 107 -430 107 -434 L 109 -434 L 109 -768 L 88 -768 L 88 -838 L 186 -838 L 186 -687 L 370 -687 L 370 -618 L 307 -552 Q 326 -547 343.5 -537 Q 361 -527 373.5 -512.5 Q 386 -498 391.5 -478.5 Q 397 -459 397 -440 Q 397 -422 392.5 -405 Q 388 -388 377.5 -373.5 Q 367 -359 352 -349 Q 337 -339 320.5 -333 Q 304 -327 286.5 -325 Q 269 -323 251 -323 Q 235 -323 218 -325 Q 201 -327 186 -332 L 186 -293 Q 186 -282 188.5 -271 Q 191 -260 198 -252 Q 205 -244 215 -240 Q 225 -236 236 -236 L 249 -236 L 249 -167 Z M 251 -392 Q 263 -392 275 -394 Q 287 -396 297 -401.5 Q 307 -407 313.5 -417.5 Q 320 -428 320 -440 Q 320 -452 313.5 -462.5 Q 307 -473 296.5 -479 Q 286 -485 274 -487 Q 262 -489 250 -489 L 222 -489 L 222 -558 L 279 -618 L 186 -618 L 186 -425 Q 188 -416 195.5 -409 Q 203 -402 212.5 -398.5 Q 222 -395 231.5 -393.5 Q 241 -392 251 -392 Z " id="path50"/>
<path d="M 102 -323 L 251 -838 L 331 -838 Q 323 -812 315.5 -786 Q 308 -760 301 -735 L 289 -693 L 398 -323 L 319 -323 L 248 -595 L 181 -323 Z " id="path51"/>
<path d="M 102 -323 L 189 -624 L 188 -624 Q 175 -624 162 -627.5 Q 149 -631 139 -640 Q 129 -649 125 -661.5 Q 121 -674 121 -687 Q 121 -700 125 -712.5 Q 129 -725 139 -734 Q 149 -743 162 -746.5 Q 175 -750 188 -750 L 226 -750 L 251 -838 L 331 -838 Q 323 -812 315.5 -786 Q 308 -760 301 -735 L 289 -693 L 296 -669 L 356 -669 L 356 -624 L 309 -624 L 398 -323 L 319 -323 L 248 -595 L 181 -323 Z M 188 -669 L 202 -669 L 213 -705 L 188 -705 Q 181 -705 175.5 -699.5 Q 170 -694 170 -687 Q 170 -680 175.5 -674.5 Q 181 -669 188 -669 Z " id="path52"/>
<path d="M 155 -291 L 104 -319 L 133 -366 Q 124 -376 118.5 -387.5 Q 113 -399 109 -411.5 Q 105 -424 104 -437 Q 103 -450 103 -463 L 103 -547 Q 103 -567 106.5 -586.5 Q 110 -606 119 -623.5 Q 128 -641 142 -654.5 Q 156 -668 173.5 -677 Q 191 -686 210.5 -689.5 Q 230 -693 250 -693 Q 268 -693 286.5 -690 Q 305 -687 321 -680 L 345 -719 L 396 -691 L 367 -644 Q 376 -634 381.5 -622.5 Q 387 -611 391 -598.5 Q 395 -586 396 -573 Q 397 -560 397 -547 L 397 -463 Q 397 -443 393.5 -423.5 Q 390 -404 381 -386.5 Q 372 -369 358 -355.5 Q 344 -342 326.5 -333 Q 309 -324 289.5 -320.5 Q 270 -317 250 -317 Q 232 -317 213.5 -320 Q 195 -323 179 -330 Z M 181 -446 L 284 -617 Q 276 -620 267.5 -621.5 Q 259 -623 250 -623 Q 235 -623 221 -618 Q 207 -613 197.5 -602 Q 188 -591 184 -576.5 Q 180 -562 180 -547 L 180 -463 Q 180 -459 180 -454.5 Q 180 -450 181 -446 Z M 250 -387 Q 265 -387 279 -392 Q 293 -397 302.5 -408 Q 312 -419 316 -433.5 Q 320 -448 320 -463 L 320 -547 Q 320 -551 320 -555.5 Q 320 -560 319 -564 L 216 -393 Q 224 -390 232.5 -388.5 Q 241 -387 250 -387 Z " id="path53"/>
<path d="M 232 -323 Q 214 -323 196 -326.5 Q 178 -330 162 -338.5 Q 146 -347 133.5 -360 Q 121 -373 113.5 -389.5 Q 106 -406 103 -424 Q 100 -442 100 -460 L 100 -551 Q 100 -568 103 -586 Q 106 -604 113.5 -620.5 Q 121 -637 133.5 -650 Q 146 -663 162 -671.5 Q 178 -680 196 -683.5 Q 214 -687 232 -687 L 400 -687 L 400 -621 L 305 -621 L 305 -553 L 383 -553 L 383 -486 L 305 -486 L 305 -389 L 400 -389 L 400 -323 Z M 232 -389 L 232 -621 Q 219 -621 206.5 -615.5 Q 194 -610 186.5 -599.5 Q 179 -589 176.5 -576 Q 174 -563 174 -551 L 174 -460 Q 174 -447 176.5 -434 Q 179 -421 186.5 -410.5 Q 194 -400 206.5 -394.5 Q 219 -389 232 -389 Z " id="path54"/>
<path d="M 188 -317 Q 171 -317 155 -326 Q 139 -335 128 -349 Q 117 -363 111 -380 Q 105 -397 101 -414 Q 97 -431 96 -449 Q 95 -467 95 -484 Q 95 -509 97 -533.5 Q 99 -558 106.5 -581.5 Q 114 -605 127 -626 Q 140 -647 159 -662.5 Q 178 -678 201.5 -685.5 Q 225 -693 250 -693 Q 275 -693 298.5 -685.5 Q 322 -678 341 -662.5 Q 360 -647 373 -626 Q 386 -605 393.5 -581.5 Q 401 -558 403 -533.5 Q 405 -509 405 -484 Q 405 -467 404 -449 Q 403 -431 399 -414 Q 395 -397 389 -380 Q 383 -363 372 -349 Q 361 -335 345 -326 Q 329 -317 312 -317 Q 301 -317 290.5 -321.5 Q 280 -326 272.5 -334 Q 265 -342 259.5 -351.5 Q 254 -361 250 -372 Q 246 -361 240.5 -351.5 Q 235 -342 227.5 -334 Q 220 -326 209.5 -321.5 Q 199 -317 188 -317 Z M 190 -384 Q 197 -384 200 -390.5 Q 203 -397 204.5 -403 Q 206 -409 207 -415.5 Q 208 -422 209 -428.5 Q 210 -435 210.5 -441 Q 211 -447 211.5 -453.5 Q 212 -460 212.5 -466.5 Q 213 -473 213 -479.5 Q 213 -486 213 -492.5 Q 213 -499 213 -505 L 213 -560 L 287 -560 L 287 -505 Q 287 -499 287 -492.5 Q 287 -486 287 -479.5 Q 287 -473 287.5 -466.5 Q 288 -460 288.5 -453.5 Q 289 -447 289.5 -441 Q 290 -435 291 -428.5 Q 292 -422 293 -415.5 Q 294 -409 295.5 -403 Q 297 -397 300 -390.5 Q 303 -384 310 -384 Q 315 -384 318 -389 Q 321 -394 322.5 -399 Q 324 -404 325.5 -409 Q 327 -414 327.5 -419 Q 328 -424 329 -429.5 Q 330 -435 330 -440 Q 330 -445 330.5 -450.5 Q 331 -456 331.5 -461 Q 332 -466 332 -471.5 Q 332 -477 332 -482 Q 332 -497 331 -512.5 Q 330 -528 327 -543.5 Q 324 -559 318.5 -573.5 Q 313 -588 303.5 -600 Q 294 -612 279.5 -619 Q 265 -626 250 -626 Q 235 -626 220.5 -619 Q 206 -612 196.5 -600 Q 187 -588 181.5 -573.5 Q 176 -559 173 -543.5 Q 170 -528 169 -512.5 Q 168 -497 168 -482 Q 168 -477 168 -471.5 Q 168 -466 168.5 -461 Q 169 -456 169.5 -450.5 Q 170 -445 170 -440 Q 170 -435 171 -429.5 Q 172 -424 172.5 -419 Q 173 -414 174.5 -409 Q 176 -404 177.5 -399 Q 179 -394 182 -389 Q 185 -384 190 -384 Z " id="path55"/>
<path d="M 314 -173 L 314 -382 Q 308 -368 299 -355 Q 290 -342 277 -333.5 Q 264 -325 248.5 -321 Q 233 -317 218 -317 Q 200 -317 183 -322 Q 166 -327 152 -337.5 Q 138 -348 128.5 -363 Q 119 -378 113 -394.5 Q 107 -411 105 -428 Q 103 -445 103 -463 L 103 -547 Q 103 -565 105 -582 Q 107 -599 113 -615.5 Q 119 -632 128.5 -647 Q 138 -662 152 -672.5 Q 166 -683 183 -688 Q 200 -693 218 -693 Q 233 -693 248.5 -689 Q 264 -685 277 -676.5 Q 290 -668 299 -655 Q 308 -642 314 -628 L 314 -687 L 391 -687 L 391 -173 Z M 249 -387 Q 264 -387 277.5 -392.5 Q 291 -398 299.5 -409 Q 308 -420 311 -434.5 Q 314 -449 314 -463 L 314 -547 Q 314 -561 311 -575.5 Q 308 -590 299.5 -601 Q 291 -612 277.5 -617.5 Q 264 -623 249 -623 Q 235 -623 221 -618 Q 207 -613 197 -602 Q 187 -591 183.5 -576.5 Q 180 -562 180 -547 L 180 -463 Q 180 -448 183.5 -433.5 Q 187 -419 197 -408 Q 207 -397 221 -392 Q 235 -387 249 -387 Z " id="path56"/>
<path d="M 184 -317 Q 170 -317 156.5 -321 Q 143 -325 132.5 -334 Q 122 -343 115 -355 Q 108 -367 104.5 -380 Q 101 -393 99.5 -407 Q 98 -421 98 -435 L 175 -435 Q 175 -426 176.5 -417.5 Q 178 -409 182.5 -401.5 Q 187 -394 195 -390.5 Q 203 -387 212 -387 Q 223 -387 233.5 -392 Q 244 -397 251 -406.5 Q 258 -416 262 -426.5 Q 266 -437 268.5 -448.5 Q 271 -460 271.5 -471.5 Q 272 -483 272 -494 L 272 -838 L 349 -838 L 349 -323 L 272 -323 L 272 -393 Q 267 -378 259.5 -364 Q 252 -350 241 -339.5 Q 230 -329 215 -323 Q 200 -317 184 -317 Z " id="path57"/>
<path d="M 400 -167 Q 383 -167 366 -170 Q 349 -173 334 -180.5 Q 319 -188 306.5 -200 Q 294 -212 286.5 -227 Q 279 -242 275.5 -259 Q 272 -276 272 -293 L 272 -393 Q 267 -378 259.5 -364 Q 252 -350 241 -339.5 Q 230 -329 215 -323 Q 200 -317 184 -317 Q 170 -317 156.5 -321 Q 143 -325 132.5 -334 Q 122 -343 115 -355 Q 108 -367 104.5 -380 Q 101 -393 99.5 -407 Q 98 -421 98 -435 L 175 -435 Q 175 -426 176.5 -417.5 Q 178 -409 182.5 -401.5 Q 187 -394 195 -390.5 Q 203 -387 212 -387 Q 223 -387 233.5 -392 Q 244 -397 251 -406.5 Q 258 -416 262 -426.5 Q 266 -437 268.5 -448.5 Q 271 -460 271.5 -471.5 Q 272 -483 272 -494 L 272 -838 L 349 -838 L 349 -293 Q 349 -282 352 -271 Q 355 -260 362 -252 Q 369 -244 379 -240 Q 389 -236 400 -236 L 412 -236 L 412 -167 Z " id="path58"/>
<path d="M 278 -167 Q 261 -167 244 -170 Q 227 -173 212 -180.5 Q 197 -188 184.5 -200 Q 172 -212 164.5 -227 Q 157 -242 154 -259 Q 151 -276 151 -293 L 151 -687 L 228 -687 L 228 -617 Q 233 -632 240.5 -646 Q 248 -660 259 -670.5 Q 270 -681 285 -687 Q 300 -693 316 -693 Q 330 -693 343.5 -689 Q 357 -685 367.5 -676 Q 378 -667 385 -655 Q 392 -643 395.5 -630 Q 399 -617 400.5 -603 Q 402 -589 402 -575 L 325 -575 Q 325 -584 323.5 -592.5 Q 322 -601 317.5 -608.5 Q 313 -616 305 -619.5 Q 297 -623 288 -623 Q 277 -623 266.5 -618 Q 256 -613 249 -603.5 Q 242 -594 238 -583.5 Q 234 -573 231.5 -561.5 Q 229 -550 228.5 -538.5 Q 228 -527 228 -516 L 228 -293 Q 228 -282 230.5 -271 Q 233 -260 240 -252 Q 247 -244 257 -240 Q 267 -236 278 -236 L 291 -236 L 291 -167 Z " id="path59"/>
<path d="M 151 -323 L 151 -547 Q 151 -565 153.5 -583.5 Q 156 -602 163 -619 Q 170 -636 181.5 -650.5 Q 193 -665 208.5 -675 Q 224 -685 242.5 -689 Q 261 -693 279 -693 Q 303 -693 326.5 -685.5 Q 350 -678 367 -661.5 Q 384 -645 393 -622.5 Q 402 -600 403 -576 L 326 -576 Q 326 -585 322.5 -594 Q 319 -603 313 -610 Q 307 -617 297.5 -620 Q 288 -623 279 -623 Q 266 -623 255 -616 Q 244 -609 238 -597.5 Q 232 -586 230 -573 Q 228 -560 228 -547 L 228 -323 Z " id="path60"/>
<path d="M 109 -323 L 109 -687 L 275 -687 Q 291 -687 307 -684.5 Q 323 -682 337.5 -675 Q 352 -668 364 -656.5 Q 376 -645 383.5 -630.5 Q 391 -616 394 -600 Q 397 -584 397 -568 Q 397 -550 393 -531.5 Q 389 -513 379 -497.5 Q 369 -482 353.5 -471 Q 338 -460 320 -455 L 408 -323 L 319 -323 L 278 -384 L 235 -449 L 186 -449 L 186 -323 Z M 186 -519 L 275 -519 Q 284 -519 293.5 -522 Q 303 -525 309 -532.5 Q 315 -540 317.5 -549.5 Q 320 -559 320 -568 Q 320 -578 317.5 -587.5 Q 315 -597 309 -604 Q 303 -611 293.5 -614.5 Q 284 -618 275 -618 L 186 -618 Z " id="path61"/>
<path d="M 215 -323 Q 194 -323 172.5 -329.5 Q 151 -336 135.5 -351.5 Q 120 -367 113.5 -388 Q 107 -409 107 -431 L 107 -618 L 45 -618 L 45 -687 L 107 -687 L 107 -838 L 184 -838 L 184 -687 L 262 -687 L 262 -618 L 184 -618 L 184 -431 Q 184 -424 185.5 -417 Q 187 -410 191 -404 Q 195 -398 201.5 -395 Q 208 -392 215 -392 L 262 -392 L 262 -323 Z M 259 -305 L 196 -314 Q 200 -344 209.5 -373 Q 219 -402 234 -429 Q 233 -438 232.5 -446.5 Q 232 -455 232 -463 L 232 -547 Q 232 -564 234 -581 Q 236 -598 242 -614 Q 248 -630 257.5 -644 Q 267 -658 280.5 -668 Q 294 -678 311 -682.5 Q 328 -687 344 -687 Q 369 -687 391.5 -677 Q 414 -667 429 -648 Q 444 -629 450 -605 Q 456 -581 456 -557 L 456 -556 L 379 -556 Q 379 -566 377.5 -576 Q 376 -586 372.5 -595 Q 369 -604 361.5 -611 Q 354 -618 344 -618 Q 334 -618 326 -609 Q 318 -600 314.5 -590 Q 311 -580 310 -569 Q 309 -558 309 -547 L 309 -511 Q 320 -516 332 -518.5 Q 344 -521 356 -521 Q 376 -521 395 -514 Q 414 -507 427.5 -492.5 Q 441 -478 448 -458.5 Q 455 -439 455 -419 Q 455 -399 448.5 -378.5 Q 442 -358 427 -343.5 Q 412 -329 392 -323 Q 372 -317 351 -317 Q 328 -317 306.5 -325 Q 285 -333 269 -349 Q 266 -338 263.5 -327 Q 261 -316 259 -305 Z M 351 -375 Q 359 -375 367.5 -378 Q 376 -381 381.5 -387.5 Q 387 -394 389 -402.5 Q 391 -411 391 -419 Q 391 -427 389 -435 Q 387 -443 382 -449.5 Q 377 -456 369.5 -460 Q 362 -464 354 -464 Q 341 -464 329.5 -455.5 Q 318 -447 310 -436 Q 312 -426 314 -416 Q 316 -406 320.5 -397 Q 325 -388 333 -381.5 Q 341 -375 351 -375 Z " id="path62"/>
<path d="M 215 -323 Q 194 -323 172.5 -329.5 Q 151 -336 135.5 -351.5 Q 120 -367 113.5 -388 Q 107 -409 107 -431 L 107 -618 L 45 -618 L 45 -687 L 107 -687 L 107 -838 L 184 -838 L 184 -687 L 262 -687 L 262 -618 L 184 -618 L 184 -431 Q 184 -424 185.5 -417 Q 187 -410 191 -404 Q 195 -398 201.5 -395 Q 208 -392 215 -392 L 262 -392 L 262 -323 Z M 238 -323 L 238 -392 L 346 -392 Q 353 -392 359 -393 Q 365 -394 371 -397.5 Q 377 -401 380.5 -406.5 Q 384 -412 384 -418 Q 384 -430 376 -440 Q 368 -450 358.5 -457.5 Q 349 -465 339 -471.5 Q 329 -478 319 -484 Q 309 -490 299 -497 Q 289 -504 279.5 -511.5 Q 270 -519 262.5 -528.5 Q 255 -538 249.5 -548.5 Q 244 -559 241 -570.5 Q 238 -582 238 -594 Q 238 -615 246 -635 Q 254 -655 269.5 -668.5 Q 285 -682 305.5 -687.5 Q 326 -693 347 -693 Q 370 -693 391.5 -685 Q 413 -677 428 -660 Q 443 -643 449.5 -621 Q 456 -599 456 -576 L 456 -570 L 379 -570 L 379 -572 Q 379 -581 377.5 -589.5 Q 376 -598 372.5 -605.5 Q 369 -613 362 -618 Q 355 -623 347 -623 Q 341 -623 334.5 -621.5 Q 328 -620 323.5 -615.5 Q 319 -611 317 -605 Q 315 -599 315 -593 Q 315 -583 320 -573.5 Q 325 -564 332.5 -557 Q 340 -550 348.5 -544.5 Q 357 -539 366 -534 L 367 -534 Q 384 -524 400.5 -513 Q 417 -502 430.5 -487.5 Q 444 -473 452.5 -454.5 Q 461 -436 461 -417 Q 461 -396 451.5 -376.5 Q 442 -357 425 -344.5 Q 408 -332 387.5 -327.5 Q 367 -323 346 -323 Z " id="path63"/>
<path d="M 215 -323 Q 194 -323 172.5 -329.5 Q 151 -336 135.5 -351.5 Q 120 -367 113.5 -388 Q 107 -409 107 -431 L 107 -618 L 45 -618 L 45 -687 L 107 -687 L 107 -838 L 184 -838 L 184 -687 L 262 -687 L 262 -618 L 184 -618 L 184 -431 Q 184 -424 185.5 -417 Q 187 -410 191 -404 Q 195 -398 201.5 -395 Q 208 -392 215 -392 L 262 -392 L 262 -323 Z M 363 -167 Q 346 -167 329.5 -170 Q 313 -173 298 -180 Q 283 -187 271 -199 Q 259 -211 251.5 -226 Q 244 -241 241 -257.5 Q 238 -274 238 -290 L 238 -450 L 305 -450 L 305 -418 Q 305 -411 309 -404.5 Q 313 -398 319 -394 Q 325 -390 332 -388.5 Q 339 -387 347 -387 Q 353 -387 359 -388.5 Q 365 -390 369.5 -394 Q 374 -398 376 -404 Q 378 -410 378 -416 Q 378 -425 374 -433.5 Q 370 -442 363.5 -448 Q 357 -454 349.5 -458.5 Q 342 -463 334 -468 L 333 -468 Q 316 -478 299.5 -490 Q 283 -502 270.5 -518 Q 258 -534 250.5 -553.5 Q 243 -573 243 -594 Q 243 -614 250.5 -633.5 Q 258 -653 272.5 -667 Q 287 -681 307 -687 Q 327 -693 347 -693 Q 368 -693 387.5 -686.5 Q 407 -680 422 -666 Q 437 -652 444 -632 Q 451 -612 451 -592 L 451 -590 L 374 -590 L 374 -591 Q 374 -597 372.5 -602.5 Q 371 -608 367.5 -613 Q 364 -618 358.5 -620.5 Q 353 -623 347 -623 Q 341 -623 336 -621 Q 331 -619 327 -614.5 Q 323 -610 321.5 -604.5 Q 320 -599 320 -593 Q 320 -578 330 -566.5 Q 340 -555 353 -547.5 Q 366 -540 379 -533.5 Q 392 -527 403.5 -517.5 Q 415 -508 424.5 -496.5 Q 434 -485 441 -472 Q 448 -459 451.5 -444.5 Q 455 -430 455 -415 Q 455 -397 450.5 -379.5 Q 446 -362 436 -348 Q 426 -334 409.5 -325.5 Q 393 -317 375 -317 Q 355 -317 336.5 -326.5 Q 318 -336 305 -352 L 305 -290 Q 305 -278 308 -266 Q 311 -254 319 -245 Q 327 -236 339 -232 Q 351 -228 363 -228 L 373 -228 L 373 -167 Z " id="path64"/>
<path d="M 175 -317 Q 154 -317 134.5 -326 Q 115 -335 103.5 -352.5 Q 92 -370 87.5 -390.5 Q 83 -411 83 -432 L 83 -618 L 42 -618 L 42 -687 L 83 -687 L 83 -838 L 160 -838 L 160 -687 L 346 -687 L 346 -618 L 160 -618 L 160 -432 Q 160 -428 160.5 -423.5 Q 161 -419 161 -415 Q 161 -411 162 -406.5 Q 163 -402 164 -398 Q 165 -394 168 -390.5 Q 171 -387 175 -387 Q 180 -387 182.5 -391 Q 185 -395 186 -399.5 Q 187 -404 187.5 -408.5 Q 188 -413 188.5 -417.5 Q 189 -422 189.5 -426.5 Q 190 -431 190 -436 L 190 -439 L 267 -439 L 267 -432 Q 267 -411 262 -390.5 Q 257 -370 245.5 -353 Q 234 -336 215 -326.5 Q 196 -317 175 -317 Z M 210 -173 L 210 -242 L 257 -242 Q 270 -242 281 -248.5 Q 292 -255 298 -266.5 Q 304 -278 306 -290.5 Q 308 -303 308 -315 L 308 -695 Q 308 -713 310.5 -731 Q 313 -749 320 -766 Q 327 -783 338.5 -797 Q 350 -811 365.5 -820.5 Q 381 -830 399 -834 Q 417 -838 435 -838 L 483 -838 L 483 -768 L 435 -768 Q 423 -768 412 -761.5 Q 401 -755 395 -743.5 Q 389 -732 387 -719.5 Q 385 -707 385 -695 L 385 -315 Q 385 -297 382.5 -279 Q 380 -261 373 -244 Q 366 -227 354.5 -213 Q 343 -199 327 -189.5 Q 311 -180 293 -176.5 Q 275 -173 257 -173 Z " id="path65"/>
<path d="M 356 -173 Q 335 -173 314.5 -176 Q 294 -179 275.5 -187.5 Q 257 -196 241.5 -210.5 Q 226 -225 216 -243 Q 206 -261 202.5 -281.5 Q 199 -302 199 -323 L 199 -618 L 109 -618 L 109 -687 L 199 -687 L 199 -838 L 275 -838 L 275 -687 L 391 -687 L 391 -618 L 275 -618 L 275 -323 Q 275 -306 280 -290 Q 285 -274 296.5 -262.5 Q 308 -251 324 -246.5 Q 340 -242 356 -242 Z " id="path66"/>
<path d="M 206 -323 L 96 -687 L 176 -687 L 242 -444 Q 245 -432 248.5 -419.5 Q 252 -407 255 -394 Q 261 -418 265 -442 Q 269 -466 272.5 -490.5 Q 276 -515 278.5 -539.5 Q 281 -564 284.5 -588 Q 288 -612 299.5 -634.5 Q 311 -657 331 -671 Q 351 -685 376 -689 Q 401 -693 425 -693 L 425 -623 Q 411 -623 396.5 -618.5 Q 382 -614 373.5 -602.5 Q 365 -591 362 -576 Q 359 -561 357 -546.5 Q 355 -532 352.5 -518 Q 350 -504 347 -489.5 Q 344 -475 341 -460.5 Q 338 -446 335 -432 Q 332 -418 328 -404 Q 324 -390 319 -376 Q 314 -362 308 -348.5 Q 302 -335 294 -323 Z " id="path67"/>
<path d="M 212 -323 L 212 -464 L 96 -687 L 183 -687 L 250 -550 L 317 -687 L 404 -687 L 288 -464 L 288 -323 Z " id="path68"/>
<path d="M 212 -323 L 212 -425 L 158 -425 L 158 -478 L 214 -478 Q 217 -498 224.5 -517 Q 232 -536 243 -553 Q 254 -570 266.5 -586 Q 279 -602 290 -619 Q 301 -636 308 -655 Q 315 -674 315 -694 Q 315 -709 311 -723.5 Q 307 -738 299 -749.5 Q 291 -761 277 -767.5 Q 263 -774 249 -774 Q 235 -774 222.5 -769 Q 210 -764 201 -754 Q 192 -744 188 -731 Q 184 -718 184 -705 L 107 -705 Q 107 -733 117 -760 Q 127 -787 146.5 -806.5 Q 166 -826 193.5 -834.5 Q 221 -843 249 -843 Q 278 -843 306 -833.5 Q 334 -824 353.5 -802.5 Q 373 -781 382.5 -753 Q 392 -725 392 -696 Q 392 -675 387.5 -655 Q 383 -635 374.5 -616.5 Q 366 -598 355 -581 Q 344 -564 331.5 -548.5 Q 319 -533 308 -515.5 Q 297 -498 292 -478 L 342 -478 L 342 -425 L 288 -425 L 288 -323 Z " id="path69"/>
<path d="M 212 -323 L 212 -425 L 158 -425 L 158 -478 L 208 -478 Q 203 -498 192 -515.5 Q 181 -533 168.5 -548.5 Q 156 -564 145 -581 Q 134 -598 125.5 -616.5 Q 117 -635 112.5 -655 Q 108 -675 108 -696 Q 108 -725 117.5 -753 Q 127 -781 146.5 -802.5 Q 166 -824 194 -833.5 Q 222 -843 251 -843 Q 279 -843 306.5 -834.5 Q 334 -826 353.5 -806.5 Q 373 -787 383 -760 Q 393 -733 393 -705 L 316 -705 Q 316 -718 312 -731 Q 308 -744 299 -754 Q 290 -764 277.5 -769 Q 265 -774 251 -774 Q 237 -774 223 -767.5 Q 209 -761 201 -749.5 Q 193 -738 189 -723.5 Q 185 -709 185 -694 Q 185 -674 192 -655 Q 199 -636 210 -619 Q 221 -602 233.5 -586 Q 246 -570 257 -553 Q 268 -536 275.5 -517 Q 283 -498 286 -478 L 342 -478 L 342 -425 L 288 -425 L 288 -323 Z " id="path70"/>
<path d="M 250 -317 Q 231 -317 211.5 -320.5 Q 192 -324 174.5 -332 Q 157 -340 142.5 -353.5 Q 128 -367 119 -384.5 Q 110 -402 106.5 -421 Q 103 -440 103 -460 L 103 -701 Q 103 -720 106.5 -739.5 Q 110 -759 119 -776 Q 128 -793 142.5 -806.5 Q 157 -820 174.5 -828.5 Q 192 -837 211.5 -840 Q 231 -843 250 -843 Q 269 -843 288.5 -840 Q 308 -837 325.5 -828.5 Q 343 -820 357.5 -806.5 Q 372 -793 381 -776 Q 390 -759 393.5 -739.5 Q 397 -720 397 -701 L 397 -460 Q 397 -440 393.5 -421 Q 390 -402 381 -384.5 Q 372 -367 357.5 -353.5 Q 343 -340 325.5 -332 Q 308 -324 288.5 -320.5 Q 269 -317 250 -317 Z M 250 -387 Q 264 -387 278 -391.5 Q 292 -396 302 -406.5 Q 312 -417 316 -431 Q 320 -445 320 -460 L 320 -701 Q 320 -715 316 -729.5 Q 312 -744 302 -754.5 Q 292 -765 278 -769.5 Q 264 -774 250 -774 Q 236 -774 222 -769.5 Q 208 -765 198 -754.5 Q 188 -744 184 -729.5 Q 180 -715 180 -701 L 180 -460 Q 180 -445 184 -431 Q 188 -417 198 -406.5 Q 208 -396 222 -391.5 Q 236 -387 250 -387 Z M 250 -518 Q 242 -518 235 -521 Q 228 -524 223 -530 Q 218 -536 216.5 -543.5 Q 215 -551 215 -559 L 215 -602 Q 215 -609 216.5 -616.5 Q 218 -624 223 -630 Q 228 -636 235 -639 Q 242 -642 250 -642 Q 258 -642 265 -639 Q 272 -636 277 -630 Q 282 -624 283.5 -616.5 Q 285 -609 285 -602 L 285 -559 Q 285 -551 283.5 -543.5 Q 282 -536 277 -530 Q 272 -524 265 -521 Q 258 -518 250 -518 Z " id="path71"/>
<path d="M 212 -223 L 212 -899 L 288 -899 L 288 -223 Z " id="path72"/>
<path d="M 280 -223 L 280 -899 L 343 -899 L 343 -223 Z M 157 -223 L 157 -899 L 220 -899 L 220 -223 Z " id="path73"/>
<path d="M 212 -223 L 212 -455 L 109 -455 L 109 -525 L 212 -525 L 212 -597 L 109 -597 L 109 -667 L 212 -667 L 212 -899 L 288 -899 L 288 -667 L 391 -667 L 391 -597 L 288 -597 L 288 -525 L 391 -525 L 391 -455 L 288 -455 L 288 -223 Z " id="path74"/>
<path d="M 212 -529 L 212 -838 L 288 -838 L 288 -529 Z M 341 -167 Q 325 -167 308.5 -170 Q 292 -173 277 -180 Q 262 -187 249.5 -199 Q 237 -211 229.5 -226 Q 222 -241 219 -257.5 Q 216 -274 216 -290 L 216 -324 Q 200 -332 191 -349 Q 182 -366 182 -385 Q 182 -398 186.5 -411.5 Q 191 -425 200.5 -434.5 Q 210 -444 223 -448 Q 236 -452 250 -452 Q 264 -452 277 -448 Q 290 -444 299.5 -434.5 Q 309 -425 313.5 -411.5 Q 318 -398 318 -385 Q 318 -366 309 -349 Q 300 -332 284 -324 L 284 -290 Q 284 -278 287 -266 Q 290 -254 298 -245 Q 306 -236 317.5 -232 Q 329 -228 341 -228 L 352 -228 L 352 -167 Z " id="path75"/>
<path d="M 371 -305 Q 364 -315 356.5 -324.5 Q 349 -334 340 -343 Q 312 -327 279.5 -322 Q 247 -317 215 -317 Q 196 -317 177.5 -319.5 Q 159 -322 142.5 -330 Q 126 -338 114.5 -353.5 Q 103 -369 103 -387 Q 103 -405 113.5 -420 Q 124 -435 139.5 -443.5 Q 155 -452 172.5 -455 Q 190 -458 208 -458 Q 235 -458 261.5 -451.5 Q 288 -445 313 -433 Q 310 -442 303 -448.5 Q 296 -455 288 -458.5 Q 280 -462 270.5 -463.5 Q 261 -465 252 -466 Q 227 -469 202.5 -477 Q 178 -485 158 -501 Q 138 -517 126 -540.5 Q 114 -564 114 -589 Q 114 -613 126 -635 Q 138 -657 158.5 -670 Q 179 -683 203 -688 Q 227 -693 251 -693 Q 275 -693 299.5 -687.5 Q 324 -682 344 -667.5 Q 364 -653 375.5 -630.5 Q 387 -608 387 -583 L 387 -582 L 310 -582 Q 310 -592 304.5 -601 Q 299 -610 290 -615 Q 281 -620 271 -621.5 Q 261 -623 251 -623 Q 241 -623 231.5 -622 Q 222 -621 213 -617.5 Q 204 -614 197.5 -606.5 Q 191 -599 191 -589 Q 191 -578 198 -569.5 Q 205 -561 214 -556 Q 223 -551 233.5 -548.5 Q 244 -546 255 -544 L 256 -544 Q 280 -540 303.5 -531.5 Q 327 -523 346.5 -507.5 Q 366 -492 378.5 -470 Q 391 -448 391 -423 Q 391 -413 389 -403 Q 387 -393 382 -384 Q 393 -373 403.5 -360.5 Q 414 -348 422 -335 Z M 215 -373 Q 233 -373 250.5 -375 Q 268 -377 284 -384 Q 268 -392 250 -397 Q 232 -402 214 -402 Q 209 -402 204.5 -402 Q 200 -402 195.5 -401.5 Q 191 -401 186.5 -400 Q 182 -399 177.5 -398 Q 173 -397 168.5 -394.5 Q 164 -392 164 -387 Q 164 -383 168.5 -380 Q 173 -377 177.5 -376.5 Q 182 -376 186.5 -375 Q 191 -374 196 -373.5 Q 201 -373 205.5 -373 Q 210 -373 215 -373 Z " id="path76"/>
</defs>
<g>
<g data-source-text="0" fill="#dee4e3" transform="translate(174 41.292) rotate(0) scale(0.023999998)">
<use href="#path1" transform="translate(0 0)"/>
</g>
</g>
<g>
<g data-source-text="1" fill="#dee4e3" transform="translate(246 41.292) rotate(0) scale(0.023999998)">
<use href="#path2" transform="translate(0 0)"/>
</g>
</g>
<g>
<g data-source-text="2" fill="#dee4e3" transform="translate(318 41.292) rotate(0) scale(0.023999998)">
<use href="#path3" transform="translate(0 0)"/>
</g>
</g>
<g>
<g data-source-text="3" fill="#dee4e3" transform="translate(390 41.292) rotate(0) scale(0.023999998)">
<use href="#path4" transform="translate(0 0)"/>
</g>
</g>
<g>
<g data-source-text="4" fill="#dee4e3" transform="translate(462 41.292) rotate(0) scale(0.023999998)">
<use href="#path5" transform="translate(0 0)"/>
</g>
</g>
<g>
<g data-source-text="5" fill="#dee4e3" transform="translate(534 41.292) rotate(0) scale(0.023999998)">
<use href="#path6" transform="translate(0 0)"/>
</g>
</g>
<g>
<g data-source-text="6" fill="#dee4e3" transform="translate(606 41.292) rotate(0) scale(0.023999998)">
<use href="#path7" transform="translate(0 0)"/>
</g>
</g>
<g>
<g data-source-text="7" fill="#dee4e3" transform="translate(678 41.292) rotate(0) scale(0.023999998)">
<use href="#path8" transform="translate(0 0)"/>
</g>
</g>
<g>
<g data-source-text="8" fill="#dee4e3" transform="translate(750 41.292) rotate(0) scale(0.023999998)">
<use href="#path9" transform="translate(0 0)"/>
</g>
</g>
<g>
<g data-source-text="9" fill="#dee4e3" transform="translate(822 41.292) rotate(0) scale(0.023999998)">
<use href="#path10" transform="translate(0 0)"/>
</g>
</g>
<g>
<g data-source-text="A" fill="#dee4e3" transform="translate(894 41.292) rotate(0) scale(0.023999998)">
<use href="#path11" transform="translate(0 0)"/>
</g>
</g>
<g>
<g data-source-text="B" fill="#dee4e3" transform="translate(966 41.292) rotate(0) scale(0.023999998)">
<use href="#path12" transform="translate(0 0)"/>
</g>
</g>
<g>
<g data-source-text="C" fill="#dee4e3" transform="translate(1038 41.292) rotate(0) scale(0.023999998)">
<use href="#path13" transform="translate(0 0)"/>
</g>
</g>
<g>
<g data-source-text="D" fill="#dee4e3" transform="translate(1110 41.292) rotate(0) scale(0.023999998)">
<use href="#path14" transform="translate(0 0)"/>
</g>
</g>
<g>
<g data-source-text="E" fill="#dee4e3" transform="translate(1182 41.292) rotate(0) scale(0.023999998)">
<use href="#path15" transform="translate(0 0)"/>
</g>
</g>
<g>
<g data-source-text="F" fill="#dee4e3" transform="translate(1254 41.292) rotate(0) scale(0.023999998)">
<use href="#path16" transform="translate(0 0)"/>
</g>
</g>
<g>
<g data-source-text="U+10780" fill="#dee4e3" transform="translate(30 113.292) rotate(0) scale(0.023999998)">
<use href="#path17" transform="translate(0 0)"/>
<use href="#path18" transform="translate(500 0)"/>
<use href="#path2" transform="translate(1000 0)"/>
<use href="#path1" transform="translate(1500 0)"/>
<use href="#path8" transform="translate(2000 0)"/>
<use href="#path9" transform="translate(2500 0)"/>
<use href="#path1" transform="translate(3000 0)"/>
</g>
</g>
<g>
<g data-source-text="" fill="#dee4e3" transform="translate(168 118.584) rotate(0) scale(0.047999997)">
<use href="#path19" transform="translate(0 0)"/>
</g>
</g>
<g>
<g data-source-text="" fill="#dee4e3" transform="translate(240 118.584) rotate(0) scale(0.047999997)">
<use href="#path20" transform="translate(0 0)"/>
</g>
</g>
<g>
<g data-source-text="" fill="#dee4e3" transform="translate(312 118.584) rotate(0) scale(0.047999997)">
<use href="#path21" transform="translate(0 0)"/>
</g>
</g>
<g>
<g data-source-text="" fill="#dee4e3" transform="translate(384 118.584) rotate(0) scale(0.047999997)">
<use href="#path22" transform="translate(0 0)"/>
</g>
</g>
<g>
<g data-source-text="" fill="#dee4e3" transform="translate(456 118.584) rotate(0) scale(0.047999997)">
<use href="#path23" transform="translate(0 0)"/>
</g>
</g>
<g>
<g data-source-text="" fill="#dee4e3" transform="translate(528 118.584) rotate(0) scale(0.047999997)">
<use href="#path24" transform="translate(0 0)"/>
</g>
</g>
<g>
<g data-source-text="" fill="#dee4e340" transform="translate(600 118.584) rotate(0) scale(0.047999997)">
<use href="#path25" transform="translate(0 0)"/>
</g>
</g>
<g>
<g data-source-text="" fill="#dee4e3" transform="translate(672 118.584) rotate(0) scale(0.047999997)">
<use href="#path26" transform="translate(0 0)"/>
</g>
</g>
<g>
<g data-source-text="" fill="#dee4e3" transform="translate(744 118.584) rotate(0) scale(0.047999997)">
<use href="#path27" transform="translate(0 0)"/>
</g>
</g>
<g>
<g data-source-text="" fill="#dee4e3" transform="translate(816 118.584) rotate(0) scale(0.047999997)">
<use href="#path28" transform="translate(0 0)"/>
</g>
</g>
<g>
<g data-source-text="" fill="#dee4e3" transform="translate(888 118.584) rotate(0) scale(0.047999997)">
<use href="#path29" transform="translate(0 0)"/>
</g>
</g>
<g>
<g data-source-text="" fill="#dee4e3" transform="translate(960 118.584) rotate(0) scale(0.047999997)">
<use href="#path30" transform="translate(0 0)"/>
</g>
</g>
<g>
<g data-source-text="" fill="#dee4e3" transform="translate(1032 118.584) rotate(0) scale(0.047999997)">
<use href="#path31" transform="translate(0 0)"/>
</g>
</g>
<g>
<g data-source-text="" fill="#dee4e3" transform="translate(1104 118.584) rotate(0) scale(0.047999997)">
<use href="#path32" transform="translate(0 0)"/>
</g>
</g>
<g>
<g data-source-text="" fill="#dee4e3" transform="translate(1176 118.584) rotate(0) scale(0.047999997)">
<use href="#path33" transform="translate(0 0)"/>
</g>
</g>
<g>
<g data-source-text="" fill="#dee4e3" transform="translate(1248 118.584) rotate(0) scale(0.047999997)">
<use href="#path34" transform="translate(0 0)"/>
</g>
</g>
<g>
<g data-source-text="U+10790" fill="#dee4e3" transform="translate(30 185.292) rotate(0) scale(0.023999998)">
<use href="#path17" transform="translate(0 0)"/>
<use href="#path18" transform="translate(500 0)"/>
<use href="#path2" transform="translate(1000 0)"/>
<use href="#path1" transform="translate(1500 0)"/>
<use href="#path8" transform="translate(2000 0)"/>
<use href="#path10" transform="translate(2500 0)"/>
<use href="#path1" transform="translate(3000 0)"/>
</g>
</g>
<g>
<g data-source-text="" fill="#dee4e3" transform="translate(168 190.584) rotate(0) scale(0.047999997)">
<use href="#path35" transform="translate(0 0)"/>
</g>
</g>
<g>
<g data-source-text="" fill="#dee4e3" transform="translate(240 190.584) rotate(0) scale(0.047999997)">
<use href="#path36" transform="translate(0 0)"/>
</g>
</g>
<g>
<g data-source-text="" fill="#dee4e3" transform="translate(312 190.584) rotate(0) scale(0.047999997)">
<use href="#path37" transform="translate(0 0)"/>
</g>
</g>
<g>
<g data-source-text="" fill="#dee4e3" transform="translate(384 190.584) rotate(0) scale(0.047999997)">
<use href="#path38" transform="translate(0 0)"/>
</g>
</g>
<g>
<g data-source-text="" fill="#dee4e3" transform="translate(456 190.584) rotate(0) scale(0.047999997)">
<use href="#path39" transform="translate(0 0)"/>
</g>
</g>
<g>
<g data-source-text="" fill="#dee4e3" transform="translate(528 190.584) rotate(0) scale(0.047999997)">
<use href="#path40" transform="translate(0 0)"/>
</g>
</g>
<g>
<g data-source-text="" fill="#dee4e3" transform="translate(600 190.584) rotate(0) scale(0.047999997)">
<use href="#path41" transform="translate(0 0)"/>
</g>
</g>
<g>
<g data-source-text="" fill="#dee4e3" transform="translate(672 190.584) rotate(0) scale(0.047999997)">
<use href="#path42" transform="translate(0 0)"/>
</g>
</g>
<g>
<g data-source-text="" fill="#dee4e3" transform="translate(744 190.584) rotate(0) scale(0.047999997)">
<use href="#path43" transform="translate(0 0)"/>
</g>
</g>
<g>
<g data-source-text="" fill="#dee4e3" transform="translate(816 190.584) rotate(0) scale(0.047999997)">
<use href="#path44" transform="translate(0 0)"/>
</g>
</g>
<g>
<g data-source-text="" fill="#dee4e3" transform="translate(888 190.584) rotate(0) scale(0.047999997)">
<use href="#path45" transform="translate(0 0)"/>
</g>
</g>
<g>
<g data-source-text="" fill="#dee4e3" transform="translate(960 190.584) rotate(0) scale(0.047999997)">
<use href="#path46" transform="translate(0 0)"/>
</g>
</g>
<g>
<g data-source-text="" fill="#dee4e3" transform="translate(1032 190.584) rotate(0) scale(0.047999997)">
<use href="#path47" transform="translate(0 0)"/>
</g>
</g>
<g>
<g data-source-text="" fill="#dee4e3" transform="translate(1104 190.584) rotate(0) scale(0.047999997)">
<use href="#path48" transform="translate(0 0)"/>
</g>
</g>
<g>
<g data-source-text="" fill="#dee4e3" transform="translate(1176 190.584) rotate(0) scale(0.047999997)">
<use href="#path49" transform="translate(0 0)"/>
</g>
</g>
<g>
<g data-source-text="" fill="#dee4e3" transform="translate(1248 190.584) rotate(0) scale(0.047999997)">
<use href="#path50" transform="translate(0 0)"/>
</g>
</g>
<g>
<g data-source-text="U+107A0" fill="#dee4e3" transform="translate(30 257.292) rotate(0) scale(0.023999998)">
<use href="#path17" transform="translate(0 0)"/>
<use href="#path18" transform="translate(500 0)"/>
<use href="#path2" transform="translate(1000 0)"/>
<use href="#path1" transform="translate(1500 0)"/>
<use href="#path8" transform="translate(2000 0)"/>
<use href="#path11" transform="translate(2500 0)"/>
<use href="#path1" transform="translate(3000 0)"/>
</g>
</g>
<g>
<g data-source-text="" fill="#dee4e3" transform="translate(168 262.584) rotate(0) scale(0.047999997)">
<use href="#path51" transform="translate(0 0)"/>
</g>
</g>
<g>
<g data-source-text="" fill="#dee4e3" transform="translate(240 262.584) rotate(0) scale(0.047999997)">
<use href="#path52" transform="translate(0 0)"/>
</g>
</g>
<g>
<g data-source-text="" fill="#dee4e3" transform="translate(312 262.584) rotate(0) scale(0.047999997)">
<use href="#path53" transform="translate(0 0)"/>
</g>
</g>
<g>
<g data-source-text="" fill="#dee4e3" transform="translate(384 262.584) rotate(0) scale(0.047999997)">
<use href="#path54" transform="translate(0 0)"/>
</g>
</g>
<g>
<g data-source-text="" fill="#dee4e3" transform="translate(456 262.584) rotate(0) scale(0.047999997)">
<use href="#path55" transform="translate(0 0)"/>
</g>
</g>
<g>
<g data-source-text="" fill="#dee4e3" transform="translate(528 262.584) rotate(0) scale(0.047999997)">
<use href="#path56" transform="translate(0 0)"/>
</g>
</g>
<g>
<g data-source-text="" fill="#dee4e3" transform="translate(600 262.584) rotate(0) scale(0.047999997)">
<use href="#path57" transform="translate(0 0)"/>
</g>
</g>
<g>
<g data-source-text="" fill="#dee4e3" transform="translate(672 262.584) rotate(0) scale(0.047999997)">
<use href="#path58" transform="translate(0 0)"/>
</g>
</g>
<g>
<g data-source-text="" fill="#dee4e3" transform="translate(744 262.584) rotate(0) scale(0.047999997)">
<use href="#path59" transform="translate(0 0)"/>
</g>
</g>
<g>
<g data-source-text="" fill="#dee4e3" transform="translate(816 262.584) rotate(0) scale(0.047999997)">
<use href="#path60" transform="translate(0 0)"/>
</g>
</g>
<g>
<g data-source-text="" fill="#dee4e3" transform="translate(888 262.584) rotate(0) scale(0.047999997)">
<use href="#path61" transform="translate(0 0)"/>
</g>
</g>
<g>
<g data-source-text="" fill="#dee4e3" transform="translate(960 262.584) rotate(0) scale(0.047999997)">
<use href="#path62" transform="translate(0 0)"/>
</g>
</g>
<g>
<g data-source-text="" fill="#dee4e3" transform="translate(1032 262.584) rotate(0) scale(0.047999997)">
<use href="#path63" transform="translate(0 0)"/>
</g>
</g>
<g>
<g data-source-text="" fill="#dee4e3" transform="translate(1104 262.584) rotate(0) scale(0.047999997)">
<use href="#path64" transform="translate(0 0)"/>
</g>
</g>
<g>
<g data-source-text="" fill="#dee4e3" transform="translate(1176 262.584) rotate(0) scale(0.047999997)">
<use href="#path65" transform="translate(0 0)"/>
</g>
</g>
<g>
<g data-source-text="" fill="#dee4e3" transform="translate(1248 262.584) rotate(0) scale(0.047999997)">
<use href="#path66" transform="translate(0 0)"/>
</g>
</g>
<g>
<g data-source-text="U+107B0" fill="#dee4e3" transform="translate(30 329.292) rotate(0) scale(0.023999998)">
<use href="#path17" transform="translate(0 0)"/>
<use href="#path18" transform="translate(500 0)"/>
<use href="#path2" transform="translate(1000 0)"/>
<use href="#path1" transform="translate(1500 0)"/>
<use href="#path8" transform="translate(2000 0)"/>
<use href="#path12" transform="translate(2500 0)"/>
<use href="#path1" transform="translate(3000 0)"/>
</g>
</g>
<g>
<g data-source-text="" fill="#dee4e3" transform="translate(168 334.584) rotate(0) scale(0.047999997)">
<use href="#path67" transform="translate(0 0)"/>
</g>
</g>
<g>
<g data-source-text="" fill="#dee4e340" transform="translate(240 334.584) rotate(0) scale(0.047999997)">
<use href="#path25" transform="translate(0 0)"/>
</g>
</g>
<g>
<g data-source-text="" fill="#dee4e3" transform="translate(312 334.584) rotate(0) scale(0.047999997)">
<use href="#path68" transform="translate(0 0)"/>
</g>
</g>
<g>
<g data-source-text="" fill="#dee4e3" transform="translate(384 334.584) rotate(0) scale(0.047999997)">
<use href="#path69" transform="translate(0 0)"/>
</g>
</g>
<g>
<g data-source-text="" fill="#dee4e3" transform="translate(456 334.584) rotate(0) scale(0.047999997)">
<use href="#path70" transform="translate(0 0)"/>
</g>
</g>
<g>
<g data-source-text="" fill="#dee4e3" transform="translate(528 334.584) rotate(0) scale(0.047999997)">
<use href="#path71" transform="translate(0 0)"/>
</g>
</g>
<g>
<g data-source-text="" fill="#dee4e3" transform="translate(600 334.584) rotate(0) scale(0.047999997)">
<use href="#path72" transform="translate(0 0)"/>
</g>
</g>
<g>
<g data-source-text="" fill="#dee4e3" transform="translate(672 334.584) rotate(0) scale(0.047999997)">
<use href="#path73" transform="translate(0 0)"/>
</g>
</g>
<g>
<g data-source-text="" fill="#dee4e3" transform="translate(744 334.584) rotate(0) scale(0.047999997)">
<use href="#path74" transform="translate(0 0)"/>
</g>
</g>
<g>
<g data-source-text="" fill="#dee4e3" transform="translate(816 334.584) rotate(0) scale(0.047999997)">
<use href="#path75" transform="translate(0 0)"/>
</g>
</g>
<g>
<g data-source-text="" fill="#dee4e3" transform="translate(888 334.584) rotate(0) scale(0.047999997)">
<use href="#path76" transform="translate(0 0)"/>
</g>
</g>
<g>
<g data-source-text="" fill="#dee4e340" transform="translate(960 334.584) rotate(0) scale(0.047999997)">
<use href="#path25" transform="translate(0 0)"/>
</g>
</g>
<g>
<g data-source-text="" fill="#dee4e340" transform="translate(1032 334.584) rotate(0) scale(0.047999997)">
<use href="#path25" transform="translate(0 0)"/>
</g>
</g>
<g>
<g data-source-text="" fill="#dee4e340" transform="translate(1104 334.584) rotate(0) scale(0.047999997)">
<use href="#path25" transform="translate(0 0)"/>
</g>
</g>
<g>
<g data-source-text="" fill="#dee4e340" transform="translate(1176 334.584) rotate(0) scale(0.047999997)">
<use href="#path25" transform="translate(0 0)"/>
</g>
</g>
<g>
<g data-source-text="" fill="#dee4e340" transform="translate(1248 334.584) rotate(0) scale(0.047999997)">
<use href="#path25" transform="translate(0 0)"/>
</g>
</g>
</svg>