<?xml version="1.0" encoding="UTF-8" standalone="no"?>
<svg height="504" viewBox="0 0 1296 504" width="1296" xmlns="http://www.w3.org/2000/svg">
<defs>
<path d="M 250 8 Q 223 8 196 3 Q 169 -2 145 -15 Q 121 -28 102.5 -48.5 Q 84 -69 72.5 -94 Q 61 -119 56.5 -146 Q 52 -173 52 -200 L 52 -535 Q 52 -562 56.5 -589 Q 61 -616 72.5 -641 Q 84 -666 102.5 -686.5 Q 121 -707 145 -720 Q 169 -733 196 -738 Q 223 -743 250 -743 Q 277 -743 304 -738 Q 331 -733 355 -720 Q 379 -707 397.5 -686.5 Q 416 -666 427.5 -641 Q 439 -616 443.5 -589 Q 448 -562 448 -535 L 448 -200 Q 448 -173 443.5 -146 Q 439 -119 427.5 -94 Q 416 -69 397.5 -48.5 Q 379 -28 355 -15 Q 331 -2 304 3 Q 277 8 250 8 Z M 152 -338 L 348 -493 L 348 -535 Q 348 -557 343 -579 Q 338 -601 325.5 -618.5 Q 313 -636 292.5 -645.5 Q 272 -655 250 -655 Q 228 -655 207.5 -645.5 Q 187 -636 174.5 -618.5 Q 162 -601 157 -579 Q 152 -557 152 -535 Z M 250 -80 Q 272 -80 292.5 -89.5 Q 313 -99 325.5 -116.5 Q 338 -134 343 -156 Q 348 -178 348 -200 L 348 -397 L 152 -242 L 152 -200 Q 152 -178 157 -156 Q 162 -134 174.5 -116.5 Q 187 -99 207.5 -89.5 Q 228 -80 250 -80 Z " id="path1"/>
<path d="M 230 0 L 230 -632 L 110 -528 L 55 -584 L 230 -735 L 330 -735 L 330 0 Z " id="path2"/>
<path d="M 60 0 L 60 -1 Q 60 -27 61 -54 Q 62 -81 65.5 -107 Q 69 -133 77 -158.5 Q 85 -184 96.5 -208 Q 108 -232 123 -253.5 Q 138 -275 156 -294.5 Q 174 -314 194 -331 Q 214 -348 235.5 -364 Q 257 -380 277.5 -397 Q 298 -414 313 -435.5 Q 328 -457 336 -483 Q 344 -509 344 -535 Q 344 -557 339.5 -578 Q 335 -599 323.5 -617 Q 312 -635 292 -645 Q 272 -655 251 -655 Q 231 -655 212.5 -647.5 Q 194 -640 181.5 -625 Q 169 -610 163.5 -591 Q 158 -572 158 -552 L 158 -548 L 58 -548 L 58 -555 Q 58 -581 63.5 -606 Q 69 -631 81 -653 Q 93 -675 111.5 -693 Q 130 -711 152.5 -722.5 Q 175 -734 200.5 -738.5 Q 226 -743 251 -743 Q 278 -743 304.5 -737.5 Q 331 -732 354.5 -719 Q 378 -706 396 -685.5 Q 414 -665 425 -640.5 Q 436 -616 440 -589 Q 444 -562 444 -535 Q 444 -501 435 -468 Q 426 -435 407.5 -406 Q 389 -377 364 -353.5 Q 339 -330 312.5 -308.5 Q 286 -287 261 -264 Q 236 -241 216 -213 Q 196 -185 183 -153.5 Q 170 -122 165 -88 L 440 -88 L 440 0 Z " id="path3"/>
<path d="M 253 8 Q 227 8 201 4 Q 175 -0 151 -11.5 Q 127 -23 107.5 -40.5 Q 88 -58 75.5 -81 Q 63 -104 56.5 -129.5 Q 50 -155 50 -181 L 50 -187 L 150 -187 L 150 -184 Q 150 -163 157 -143 Q 164 -123 178 -108 Q 192 -93 212 -86.5 Q 232 -80 253 -80 Q 275 -80 296 -88.5 Q 317 -97 330.5 -114.5 Q 344 -132 350 -154 Q 356 -176 356 -198 Q 356 -217 352 -235.5 Q 348 -254 339 -271 Q 330 -288 316.5 -301 Q 303 -314 286 -322 Q 269 -330 250 -332 Q 231 -334 212 -334 L 212 -422 Q 229 -422 246 -424 Q 263 -426 278.5 -433 Q 294 -440 306 -452.5 Q 318 -465 325.5 -480.5 Q 333 -496 336.5 -513 Q 340 -530 340 -547 Q 340 -566 335.5 -585.5 Q 331 -605 320 -621.5 Q 309 -638 291 -646.5 Q 273 -655 253 -655 Q 234 -655 216 -647 Q 198 -639 187 -624 Q 176 -609 171 -590 Q 166 -571 166 -553 L 166 -548 L 66 -548 L 66 -556 Q 66 -581 71.5 -605.5 Q 77 -630 88 -652 Q 99 -674 116.5 -692.5 Q 134 -711 156.5 -722.5 Q 179 -734 203.5 -738.5 Q 228 -743 253 -743 Q 278 -743 303.5 -738 Q 329 -733 351 -721 Q 373 -709 390.5 -690 Q 408 -671 419 -648 Q 430 -625 435 -600 Q 440 -575 440 -550 Q 440 -524 434 -498.5 Q 428 -473 416 -450.5 Q 404 -428 385 -409.5 Q 366 -391 343 -379 Q 370 -368 391.5 -348.5 Q 413 -329 427.5 -304.5 Q 442 -280 449 -252 Q 456 -224 456 -196 Q 456 -168 450 -141.5 Q 444 -115 432 -91 Q 420 -67 401 -47 Q 382 -27 358 -14.5 Q 334 -2 307 3 Q 280 8 253 8 Z " id="path4"/>
<path d="M 282 0 L 282 -188 L 52 -188 L 52 -275 L 276 -735 L 377 -735 L 152 -275 L 282 -275 L 282 -435 L 383 -435 L 383 -275 L 440 -275 L 440 -188 L 383 -188 L 383 0 Z " id="path5"/>
<path d="M 252 8 Q 227 8 202.5 3.5 Q 178 -1 155.5 -12 Q 133 -23 114.5 -41 Q 96 -59 84 -80.5 Q 72 -102 65.5 -126.5 Q 59 -151 58 -176 L 159 -176 Q 160 -158 166.5 -139.5 Q 173 -121 185.5 -107 Q 198 -93 216 -86.5 Q 234 -80 252 -80 Q 269 -80 285 -87 Q 301 -94 312.5 -107 Q 324 -120 330.5 -135.5 Q 337 -151 341 -167.5 Q 345 -184 346.5 -201 Q 348 -218 348 -235 Q 348 -252 346.5 -269 Q 345 -286 341.5 -302.5 Q 338 -319 331.5 -334.5 Q 325 -350 314.5 -363 Q 304 -376 288 -383.5 Q 272 -391 256 -391 Q 240 -391 224 -387 Q 208 -383 195.5 -373.5 Q 183 -364 176 -349.5 Q 169 -335 168 -319 L 68 -319 L 68 -735 L 421 -735 L 421 -647 L 168 -647 L 168 -464 Q 189 -472 211 -475 Q 233 -478 256 -478 Q 285 -478 313.5 -470.5 Q 342 -463 365.5 -445.5 Q 389 -428 405.5 -403 Q 422 -378 431.5 -350.5 Q 441 -323 444.5 -294 Q 448 -265 448 -235 Q 448 -206 444.5 -176.5 Q 441 -147 431 -119 Q 421 -91 404.5 -66.5 Q 388 -42 364 -24.5 Q 340 -7 311 0.5 Q 282 8 252 8 Z " id="path6"/>
<path d="M 250 8 Q 221 8 192.5 1.5 Q 164 -5 140 -21 Q 116 -37 98.5 -60.5 Q 81 -84 70.5 -111 Q 60 -138 56 -166.5 Q 52 -195 52 -224 Q 52 -268 59.5 -311 Q 67 -354 81 -395.5 Q 95 -437 113 -477 Q 131 -517 150 -556 L 238 -735 L 347 -735 L 240 -517 Q 228 -492 216 -467 Q 204 -442 194 -416 Q 212 -436 238.5 -446 Q 265 -456 292 -456 Q 318 -456 343.5 -447 Q 369 -438 387.5 -419.5 Q 406 -401 418 -377 Q 430 -353 436.5 -328 Q 443 -303 445.5 -276.5 Q 448 -250 448 -224 Q 448 -195 444 -166.5 Q 440 -138 429.5 -111 Q 419 -84 401.5 -60.5 Q 384 -37 360 -21 Q 336 -5 307.5 1.5 Q 279 8 250 8 Z M 250 -80 Q 266 -80 282 -85.5 Q 298 -91 309.5 -102.5 Q 321 -114 328.5 -129 Q 336 -144 340.5 -159.5 Q 345 -175 346.5 -191.5 Q 348 -208 348 -224 Q 348 -240 346.5 -256.5 Q 345 -273 340.5 -289 Q 336 -305 328.5 -319.5 Q 321 -334 309.5 -345.5 Q 298 -357 282 -362.5 Q 266 -368 250 -368 Q 235 -368 221 -363.5 Q 207 -359 195.5 -349.5 Q 184 -340 176 -327.5 Q 168 -315 163.5 -301 Q 159 -287 156.5 -272.5 Q 154 -258 153 -243 Q 153 -238 152.5 -233.5 Q 152 -229 152 -224 Q 152 -208 153.5 -191.5 Q 155 -175 159.5 -159.5 Q 164 -144 171.5 -129 Q 179 -114 190.5 -102.5 Q 202 -91 218 -85.5 Q 234 -80 250 -80 Z " id="path7"/>
<path d="M 138 0 L 336 -647 L 60 -647 L 60 -735 L 440 -735 L 440 -647 L 242 0 Z " id="path8"/>
<path d="M 250 8 Q 225 8 200 4 Q 175 -0 152 -10 Q 129 -20 109.5 -37 Q 90 -54 77.5 -75.5 Q 65 -97 58.5 -121.5 Q 52 -146 52 -172 Q 52 -203 61.5 -232.5 Q 71 -262 88 -288.5 Q 105 -315 127 -336.5 Q 149 -358 174 -378 Q 152 -396 132.5 -417 Q 113 -438 98.5 -462.5 Q 84 -487 76 -514.5 Q 68 -542 68 -570 Q 68 -594 73.5 -617.5 Q 79 -641 90.5 -661.5 Q 102 -682 119.5 -698.5 Q 137 -715 158 -725 Q 179 -735 202.5 -739 Q 226 -743 250 -743 Q 274 -743 297.5 -739 Q 321 -735 342 -725 Q 363 -715 380.5 -698.5 Q 398 -682 409.5 -661.5 Q 421 -641 426.5 -617.5 Q 432 -594 432 -570 Q 432 -542 424 -514.5 Q 416 -487 401.5 -462.5 Q 387 -438 367.5 -417 Q 348 -396 326 -378 Q 351 -358 373 -336.5 Q 395 -315 412 -288.5 Q 429 -262 438.5 -232.5 Q 448 -203 448 -172 Q 448 -146 441.5 -121.5 Q 435 -97 422.5 -75.5 Q 410 -54 390.5 -37 Q 371 -20 348 -10 Q 325 -0 300 4 Q 275 8 250 8 Z M 250 -434 Q 266 -447 280.5 -461.5 Q 295 -476 306.5 -493 Q 318 -510 325 -529.5 Q 332 -549 332 -569 Q 332 -586 327 -602.5 Q 322 -619 310.5 -631.5 Q 299 -644 283 -649.5 Q 267 -655 250 -655 Q 233 -655 217 -649.5 Q 201 -644 189.5 -631.5 Q 178 -619 173 -602.5 Q 168 -586 168 -569 Q 168 -549 175 -529.5 Q 182 -510 193.5 -493 Q 205 -476 219.5 -461.5 Q 234 -447 250 -434 Z M 250 -80 Q 269 -80 288 -85.5 Q 307 -91 320.5 -104 Q 334 -117 341 -135.5 Q 348 -154 348 -173 Q 348 -196 339.5 -217.5 Q 331 -239 317 -257.5 Q 303 -276 285.5 -291 Q 268 -306 250 -320 Q 232 -306 214.5 -291 Q 197 -276 183 -257.5 Q 169 -239 160.5 -217.5 Q 152 -196 152 -173 Q 152 -154 159 -135.5 Q 166 -117 179.5 -104 Q 193 -91 212 -85.5 Q 231 -80 250 -80 Z " id="path9"/>
<path d="M 262 0 L 153 0 L 260 -218 Q 272 -243 284 -268 Q 296 -293 306 -319 Q 288 -299 261.5 -289 Q 235 -279 208 -279 Q 182 -279 156.5 -288 Q 131 -297 112.5 -315.5 Q 94 -334 82 -358 Q 70 -382 63.5 -407 Q 57 -432 54.5 -458.5 Q 52 -485 52 -511 Q 52 -540 56 -568.5 Q 60 -597 70.5 -624 Q 81 -651 98.5 -674.5 Q 116 -698 140 -714 Q 164 -730 192.5 -736.5 Q 221 -743 250 -743 Q 279 -743 307.5 -736.5 Q 336 -730 360 -714 Q 384 -698 401.5 -674.5 Q 419 -651 429.5 -624 Q 440 -597 444 -568.5 Q 448 -540 448 -511 Q 448 -467 440.5 -424 Q 433 -381 419 -339.5 Q 405 -298 387 -258 Q 369 -218 350 -179 Z M 250 -367 Q 265 -367 279 -371.5 Q 293 -376 304.5 -385.5 Q 316 -395 324 -407.5 Q 332 -420 336.5 -434 Q 341 -448 343.5 -462.5 Q 346 -477 347 -492 Q 347 -497 347.5 -501.5 Q 348 -506 348 -511 Q 348 -527 346.5 -543.5 Q 345 -560 340.5 -575.5 Q 336 -591 328.5 -606 Q 321 -621 309.5 -632.5 Q 298 -644 282 -649.5 Q 266 -655 250 -655 Q 234 -655 218 -649.5 Q 202 -644 190.5 -632.5 Q 179 -621 171.5 -606 Q 164 -591 159.5 -575.5 Q 155 -560 153.5 -543.5 Q 152 -527 152 -511 Q 152 -495 153.5 -478.5 Q 155 -462 159.5 -446 Q 164 -430 171.5 -415.5 Q 179 -401 190.5 -389.5 Q 202 -378 218 -372.5 Q 234 -367 250 -367 Z " id="path10"/>
<path d="M 39 0 L 53 -70 L 192 -735 L 308 -735 L 461 0 L 359 0 L 326 -172 L 174 -172 L 141 0 Z M 310 -260 L 267 -490 Q 263 -513 258.5 -536 Q 254 -559 250 -582 Q 246 -559 241.5 -536 Q 237 -513 233 -490 L 190 -260 Z " id="path11"/>
<path d="M 60 0 L 60 -735 L 235 -735 Q 261 -735 287 -730.5 Q 313 -726 336.5 -714 Q 360 -702 378.5 -682.5 Q 397 -663 408.5 -639.5 Q 420 -616 424.5 -590 Q 429 -564 429 -538 Q 429 -515 425.5 -492 Q 422 -469 411.5 -448.5 Q 401 -428 384.5 -411 Q 368 -394 348 -383 Q 373 -373 394.5 -355.5 Q 416 -338 430.5 -314.5 Q 445 -291 450.5 -264 Q 456 -237 456 -210 Q 456 -181 450.5 -152.5 Q 445 -124 431 -98.5 Q 417 -73 395.5 -53.5 Q 374 -34 347.5 -21.5 Q 321 -9 292.5 -4.5 Q 264 -0 235 0 Z M 160 -424 L 235 -424 Q 256 -424 275.5 -432.5 Q 295 -441 307.5 -457.5 Q 320 -474 324.5 -494.5 Q 329 -515 329 -536 Q 329 -557 324.5 -577.5 Q 320 -598 307.5 -614.5 Q 295 -631 275.5 -639 Q 256 -647 235 -647 L 160 -647 Z M 160 -88 L 235 -88 Q 251 -88 267.5 -91 Q 284 -94 298.5 -101.5 Q 313 -109 324.5 -121 Q 336 -133 343 -148 Q 350 -163 353 -179 Q 356 -195 356 -212 Q 356 -228 353 -244.5 Q 350 -261 343 -276 Q 336 -291 324.5 -303 Q 313 -315 298.5 -322.5 Q 284 -330 267.5 -333 Q 251 -336 235 -336 L 160 -336 Z " id="path12"/>
<path d="M 247 8 Q 220 8 193 3 Q 166 -2 142.5 -15.5 Q 119 -29 101 -49.5 Q 83 -70 71.5 -94.5 Q 60 -119 56 -146 Q 52 -173 52 -200 L 52 -535 Q 52 -562 56 -589 Q 60 -616 71.5 -640.5 Q 83 -665 101 -685.5 Q 119 -706 142.5 -719.5 Q 166 -733 193 -738 Q 220 -743 247 -743 Q 273 -743 298 -738.5 Q 323 -734 346 -723 Q 369 -712 387.5 -694 Q 406 -676 418 -653.5 Q 430 -631 436 -606 Q 442 -581 442 -555 L 442 -548 L 342 -548 L 342 -552 Q 342 -572 336 -591.5 Q 330 -611 317.5 -626 Q 305 -641 286 -648 Q 267 -655 247 -655 Q 225 -655 205 -645.5 Q 185 -636 173 -618 Q 161 -600 156.5 -578.5 Q 152 -557 152 -535 L 152 -200 Q 152 -178 156.5 -156.5 Q 161 -135 173 -117 Q 185 -99 205 -89.5 Q 225 -80 247 -80 Q 267 -80 286 -87 Q 305 -94 317.5 -109 Q 330 -124 336 -143.5 Q 342 -163 342 -183 L 342 -187 L 442 -187 L 442 -180 Q 442 -154 436 -129 Q 430 -104 418 -81.5 Q 406 -59 387.5 -41 Q 369 -23 346 -12 Q 323 -1 298 3.5 Q 273 8 247 8 Z " id="path13"/>
<path d="M 60 0 L 60 -735 L 220 -735 Q 250 -735 280.5 -730.5 Q 311 -726 339 -713.5 Q 367 -701 390.5 -680 Q 414 -659 429 -632.5 Q 444 -606 450 -575.5 Q 456 -545 456 -515 L 456 -220 Q 456 -190 450 -159.5 Q 444 -129 429 -102.5 Q 414 -76 390.5 -55 Q 367 -34 339 -21.5 Q 311 -9 280.5 -4.5 Q 250 -0 220 0 Z M 160 -88 L 220 -88 Q 238 -88 256 -91 Q 274 -94 290 -101.5 Q 306 -109 319 -122 Q 332 -135 340.5 -151 Q 349 -167 352.5 -184.5 Q 356 -202 356 -220 L 356 -515 Q 356 -533 352.5 -550.5 Q 349 -568 340.5 -584 Q 332 -600 319 -613 Q 306 -626 290 -633.5 Q 274 -641 256 -644 Q 238 -647 220 -647 L 160 -647 Z " id="path14"/>
<path d="M 68 0 L 68 -735 L 440 -735 L 440 -647 L 168 -647 L 168 -426 L 383 -426 L 383 -338 L 168 -338 L 168 -88 L 440 -88 L 440 0 Z " id="path15"/>
<path d="M 90 0 L 90 -735 L 440 -735 L 440 -647 L 190 -647 L 190 -426 L 383 -426 L 383 -338 L 190 -338 L 190 0 Z " id="path16"/>
<path d="M 250 8 Q 223 8 196.5 2.5 Q 170 -3 147 -16.5 Q 124 -30 106.5 -50.5 Q 89 -71 78.5 -95.5 Q 68 -120 64 -146.5 Q 60 -173 60 -200 L 60 -735 L 160 -735 L 160 -200 Q 160 -186 161.5 -172 Q 163 -158 167.5 -144.5 Q 172 -131 179.5 -118.5 Q 187 -106 197.5 -97 Q 208 -88 222 -84 Q 236 -80 250 -80 Q 264 -80 278 -84 Q 292 -88 302.5 -97 Q 313 -106 320.5 -118.5 Q 328 -131 332.5 -144.5 Q 337 -158 338.5 -172 Q 340 -186 340 -200 L 340 -735 L 440 -735 L 440 -200 Q 440 -173 436 -146.5 Q 432 -120 421.5 -95.5 Q 411 -71 393.5 -50.5 Q 376 -30 353 -16.5 Q 330 -3 303.5 2.5 Q 277 8 250 8 Z " id="path17"/>
<path d="M 296 -142 L 204 -142 L 204 -300 L 60 -300 L 60 -380 L 204 -380 L 204 -538 L 296 -538 L 296 -380 L 440 -380 L 440 -300 L 296 -300 Z " id="path18"/>
<path d="M 821 -19 L 179 -19 L 179 -661 L 821 -661 Z " id="path19"/>
<path d="M 179 -19 L 179 -661 L 821 -661 L 821 -19 Z M 238 -78 L 762 -78 L 762 -602 L 238 -602 Z " id="path20"/>
<path d="M 702 -19 L 298 -19 Q 282 -19 266 -21.5 Q 250 -24 236 -31.5 Q 222 -39 210.5 -50.5 Q 199 -62 191.5 -76 Q 184 -90 181.5 -106 Q 179 -122 179 -138 L 179 -542 Q 179 -558 181.5 -574 Q 184 -590 191.5 -604 Q 199 -618 210.5 -629.5 Q 222 -641 236 -648.5 Q 250 -656 266 -658.5 Q 282 -661 298 -661 L 702 -661 Q 718 -661 734 -658.5 Q 750 -656 764 -648.5 Q 778 -641 789.5 -629.5 Q 801 -618 808.5 -604 Q 816 -590 818.5 -574 Q 821 -558 821 -542 L 821 -138 Q 821 -122 818.5 -106 Q 816 -90 808.5 -76 Q 801 -62 789.5 -50.5 Q 778 -39 764 -31.5 Q 750 -24 734 -21.5 Q 718 -19 702 -19 Z M 298 -78 L 702 -78 Q 713 -78 724 -82.5 Q 735 -87 742.5 -95.5 Q 750 -104 752.5 -115.5 Q 755 -127 755 -138 L 755 -542 Q 755 -553 752.5 -564.5 Q 750 -576 742.5 -584.5 Q 735 -593 724 -597.5 Q 713 -602 702 -602 L 298 -602 Q 287 -602 276 -597.5 Q 265 -593 257.5 -584.5 Q 250 -576 247.5 -564.5 Q 245 -553 245 -542 L 245 -138 Q 245 -127 247.5 -115.5 Q 250 -104 257.5 -95.5 Q 265 -87 276 -82.5 Q 287 -78 298 -78 Z " id="path21"/>
<path d="M 179 -19 L 179 -661 L 821 -661 L 821 -19 Z M 238 -78 L 762 -78 L 762 -602 L 238 -602 Z M 631 -209 L 369 -209 L 369 -471 L 631 -471 Z " id="path22"/>
<path d="M 179 -19 L 179 -661 L 821 -661 L 821 -19 Z M 762 -507 L 762 -602 L 238 -602 L 238 -507 Z M 238 -364 L 762 -364 L 762 -459 L 238 -459 Z M 238 -221 L 762 -221 L 762 -316 L 238 -316 Z M 238 -78 L 762 -78 L 762 -173 L 238 -173 Z " id="path23"/>
<path d="M 179 -19 L 179 -661 L 821 -661 L 821 -19 Z M 762 -78 L 762 -602 L 669 -602 L 669 -78 Z M 616 -78 L 616 -602 L 526 -602 L 526 -78 Z M 384 -78 L 474 -78 L 474 -602 L 384 -602 Z M 238 -78 L 331 -78 L 331 -602 L 238 -602 Z " id="path24"/>
<path d="M 179 -19 L 179 -661 L 821 -661 L 821 -19 Z M 669 -507 L 762 -507 L 762 -602 L 669 -602 Z M 616 -507 L 616 -602 L 526 -602 L 526 -507 Z M 474 -507 L 474 -602 L 384 -602 L 384 -507 Z M 331 -507 L 331 -602 L 238 -602 L 238 -507 Z M 669 -364 L 762 -364 L 762 -459 L 669 -459 Z M 616 -364 L 616 -459 L 526 -459 L 526 -364 Z M 384 -364 L 474 -364 L 474 -459 L 384 -459 Z M 238 -364 L 331 -364 L 331 -459 L 238 -459 Z M 762 -221 L 762 -316 L 669 -316 L 669 -221 Z M 526 -221 L 616 -221 L 616 -316 L 526 -316 Z M 384 -221 L 474 -221 L 474 -316 L 384 -316 Z M 331 -221 L 331 -316 L 238 -316 L 238 -221 Z M 669 -78 L 762 -78 L 762 -173 L 669 -173 Z M 526 -78 L 616 -78 L 616 -173 L 526 -173 Z M 384 -78 L 474 -78 L 474 -173 L 384 -173 Z M 238 -78 L 331 -78 L 331 -173 L 238 -173 Z " id="path25"/>
<path d="M 179 -19 L 179 -661 L 821 -661 L 821 -19 Z M 762 -584 L 762 -602 L 744 -602 Z M 762 -423 L 762 -536 L 696 -602 L 583 -602 Z M 762 -263 L 762 -376 L 536 -602 L 423 -602 Z M 762 -102 L 762 -215 L 375 -602 L 262 -602 Z M 625 -78 L 738 -78 L 238 -578 L 238 -465 Z M 464 -78 L 577 -78 L 238 -417 L 238 -304 Z M 304 -78 L 417 -78 L 238 -257 L 238 -144 Z M 238 -78 L 256 -78 L 238 -96 Z " id="path26"/>
<path d="M 179 -19 L 179 -661 L 821 -661 L 821 -19 Z M 238 -102 L 738 -602 L 625 -602 L 238 -215 Z M 238 -263 L 577 -602 L 464 -602 L 238 -376 Z M 238 -423 L 417 -602 L 304 -602 L 238 -536 Z M 238 -584 L 256 -602 L 238 -602 Z M 262 -78 L 375 -78 L 762 -465 L 762 -578 Z M 423 -78 L 536 -78 L 762 -304 L 762 -417 Z M 583 -78 L 696 -78 L 762 -144 L 762 -257 Z M 744 -78 L 762 -78 L 762 -96 Z " id="path27"/>
<path d="M 179 -19 L 179 -661 L 821 -661 L 821 -19 Z M 661 -524 L 717 -581 L 696 -602 L 625 -602 L 604 -581 Z M 500 -524 L 557 -581 L 536 -602 L 464 -602 L 443 -581 Z M 339 -524 L 396 -581 L 375 -602 L 304 -602 L 283 -581 Z M 741 -444 L 762 -465 L 762 -536 L 741 -557 L 684 -501 Z M 580 -444 L 637 -501 L 580 -557 L 524 -501 Z M 420 -444 L 476 -501 L 420 -557 L 363 -501 Z M 259 -444 L 316 -501 L 259 -557 L 238 -536 L 238 -465 Z M 500 -364 L 557 -420 L 500 -477 L 443 -420 Z M 339 -364 L 372 -396 L 396 -420 L 339 -477 L 283 -420 Z M 661 -364 L 717 -420 L 661 -477 L 604 -420 Z M 741 -283 L 762 -304 L 762 -376 L 741 -397 L 684 -340 Z M 580 -283 L 637 -340 L 580 -397 L 524 -340 Z M 420 -283 L 476 -340 L 420 -397 L 363 -340 Z M 259 -283 L 316 -340 L 259 -397 L 238 -376 L 238 -304 Z M 661 -203 L 717 -260 L 661 -316 L 604 -260 Z M 500 -203 L 557 -260 L 500 -316 L 443 -260 Z M 339 -203 L 396 -260 L 339 -316 L 283 -260 Z M 741 -123 L 762 -144 L 762 -215 L 741 -236 L 684 -179 Z M 420 -123 L 476 -179 L 420 -236 L 363 -179 Z M 580 -123 L 637 -179 L 580 -236 L 524 -179 Z M 259 -123 L 316 -179 L 259 -236 L 238 -215 L 238 -144 Z M 625 -78 L 696 -78 L 717 -99 L 661 -156 L 604 -99 Z M 464 -78 L 536 -78 L 557 -99 L 500 -156 L 443 -99 Z M 375 -78 L 396 -99 L 339 -156 L 283 -99 L 304 -78 Z " id="path28"/>
<path d="M 684 -156 L 316 -156 L 316 -524 L 684 -524 Z " id="path29"/>
<path d="M 684 -156 L 316 -156 L 316 -524 L 684 -524 Z M 376 -216 L 624 -216 L 624 -464 L 376 -464 Z " id="path30"/>
<path d="M 179 -126 L 179 -554 L 821 -554 L 821 -126 Z " id="path31"/>
<path d="M 179 -126 L 179 -554 L 821 -554 L 821 -126 Z M 238 -185 L 762 -185 L 762 -495 L 238 -495 Z " id="path32"/>
<path d="M 714 -19 L 286 -19 L 286 -661 L 714 -661 Z " id="path33"/>
<path d="M 286 -19 L 286 -661 L 714 -661 L 714 -19 Z M 655 -78 L 655 -602 L 345 -602 L 345 -78 Z " id="path34"/>
<path d="M 741 -126 L 98 -126 L 259 -554 L 902 -554 Z " id="path35"/>
<path d="M 741 -126 L 98 -126 L 259 -554 L 902 -554 Z M 700 -185 L 816 -495 L 300 -495 L 184 -185 Z " id="path36"/>
<path d="M 110 -19 L 500 -661 L 890 -19 Z " id="path37"/>
<path d="M 110 -19 L 500 -661 L 890 -19 Z M 216 -78 L 784 -78 L 500 -546 Z " id="path38"/>
<path d="M 723 -156 L 277 -156 L 500 -524 Z " id="path39"/>
<path d="M 723 -156 L 277 -156 L 500 -524 Z M 383 -216 L 617 -216 L 500 -409 Z " id="path40"/>
<path d="M 179 50 L 179 -730 L 821 -340 Z " id="path41"/>
<path d="M 179 50 L 179 -730 L 821 -340 Z M 238 -56 L 706 -340 L 238 -624 Z " id="path42"/>
<path d="M 316 -117 L 316 -563 L 684 -340 Z " id="path43"/>
<path d="M 316 -117 L 316 -563 L 684 -340 Z M 376 -223 L 569 -340 L 376 -457 Z " id="path44"/>
<path d="M 179 -80 L 179 -600 L 821 -340 Z " id="path45"/>
<path d="M 179 -80 L 179 -600 L 821 -340 Z M 238 -169 L 662 -340 L 238 -511 Z " id="path46"/>
<path d="M 500 -19 L 110 -661 L 890 -661 Z " id="path47"/>
<path d="M 500 -19 L 110 -661 L 890 -661 Z M 500 -134 L 784 -602 L 216 -602 Z " id="path48"/>
<path d="M 500 -156 L 277 -524 L 723 -524 Z " id="path49"/>
<path d="M 500 -156 L 277 -524 L 723 -524 Z M 500 -271 L 617 -464 L 383 -464 Z " id="path50"/>
<path d="M 821 50 L 179 -340 L 821 -730 Z " id="path51"/>
<path d="M 821 50 L 762 13 L 179 -340 L 821 -730 Z M 762 -56 L 762 -624 L 294 -340 Z " id="path52"/>
<path d="M 684 -117 L 316 -340 L 684 -563 Z " id="path53"/>
<path d="M 684 -117 L 624 -154 L 316 -340 L 684 -563 Z M 624 -223 L 624 -457 L 431 -340 Z " id="path54"/>
<path d="M 821 -80 L 179 -340 L 821 -600 Z " id="path55"/>
<path d="M 821 -80 L 179 -340 L 821 -600 Z M 762 -169 L 762 -511 L 338 -340 Z " id="path56"/>
<path d="M 500 -19 L 179 -340 L 500 -661 L 821 -340 Z " id="path57"/>
<path d="M 500 -19 L 179 -340 L 500 -661 L 821 -340 Z M 500 -78 L 762 -340 L 500 -602 L 238 -340 Z " id="path58"/>
<path d="M 500 -19 L 179 -340 L 500 -661 L 821 -340 Z M 500 -78 L 762 -340 L 500 -602 L 238 -340 Z M 500 -209 L 369 -340 L 500 -471 L 631 -340 Z " id="path59"/>
<path d="M 500 -19 Q 458 -19 417 -30 Q 376 -41 339.5 -62 Q 303 -83 273 -113 Q 243 -143 222 -179.5 Q 201 -216 190 -257 Q 179 -298 179 -340 Q 179 -382 190 -423 Q 201 -464 222 -500.5 Q 243 -537 273 -567 Q 303 -597 339.5 -618 Q 376 -639 417 -650 Q 458 -661 500 -661 Q 542 -661 583 -650 Q 624 -639 660.5 -618 Q 697 -597 727 -567 Q 757 -537 778 -500.5 Q 799 -464 810 -423 Q 821 -382 821 -340 Q 821 -298 810 -257 Q 799 -216 778 -179.5 Q 757 -143 727 -113 Q 697 -83 660.5 -62 Q 624 -41 583 -30 Q 542 -19 500 -19 Z M 500 -78 Q 534 -78 567.5 -87 Q 601 -96 631 -113.5 Q 661 -131 685 -155 Q 709 -179 726.5 -209 Q 744 -239 753 -272.5 Q 762 -306 762 -340 Q 762 -374 753 -407.5 Q 744 -441 726.5 -471 Q 709 -501 685 -525 Q 661 -549 631 -566.5 Q 601 -584 567.5 -593 Q 534 -602 500 -602 Q 466 -602 432.5 -593 Q 399 -584 369 -566.5 Q 339 -549 315 -525 Q 291 -501 273.5 -471 Q 256 -441 247 -407.5 Q 238 -374 238 -340 Q 238 -306 247 -272.5 Q 256 -239 273.5 -209 Q 291 -179 315 -155 Q 339 -131 369 -113.5 Q 399 -96 432.5 -87 Q 466 -78 500 -78 Z M 500 -209 Q 474 -209 450 -219 Q 426 -229 407.5 -247.5 Q 389 -266 379 -290 Q 369 -314 369 -340 Q 369 -366 379 -390 Q 389 -414 407.5 -432.5 Q 426 -451 450 -461 Q 474 -471 500 -471 Q 526 -471 550 -461 Q 574 -451 592.5 -432.5 Q 611 -414 621 -390 Q 631 -366 631 -340 Q 631 -314 621 -290 Q 611 -266 592.5 -247.5 Q 574 -229 550 -219 Q 526 -209 500 -209 Z " id="path60"/>
<path d="M 500 -19 L 286 -340 L 500 -661 L 714 -340 Z M 500 -126 L 643 -340 L 500 -554 L 357 -340 Z " id="path61"/>
<path d="M 500 -19 Q 458 -19 417 -30 Q 376 -41 339.5 -62 Q 303 -83 273 -113 Q 243 -143 222 -179.5 Q 201 -216 190 -257 Q 179 -298 179 -340 Q 179 -382 190 -423 Q 201 -464 222 -500.5 Q 243 -537 273 -567 Q 303 -597 339.5 -618 Q 376 -639 417 -650 Q 458 -661 500 -661 Q 542 -661 583 -650 Q 624 -639 660.5 -618 Q 697 -597 727 -567 Q 757 -537 778 -500.5 Q 799 -464 810 -423 Q 821 -382 821 -340 Q 821 -298 810 -257 Q 799 -216 778 -179.5 Q 757 -143 727 -113 Q 697 -83 660.5 -62 Q 624 -41 583 -30 Q 542 -19 500 -19 Z M 500 -78 Q 534 -78 567.5 -87 Q 601 -96 631 -113.5 Q 661 -131 685 -155 Q 709 -179 726.5 -209 Q 744 -239 753 -272.5 Q 762 -306 762 -340 Q 762 -374 753 -407.5 Q 744 -441 726.5 -471 Q 709 -501 685 -525 Q 661 -549 631 -566.5 Q 601 -584 567.5 -593 Q 534 -602 500 -602 Q 466 -602 432.5 -593 Q 399 -584 369 -566.5 Q 339 -549 315 -525 Q 291 -501 273.5 -471 Q 256 -441 247 -407.5 Q 238 -374 238 -340 Q 238 -306 247 -272.5 Q 256 -239 273.5 -209 Q 291 -179 315 -155 Q 339 -131 369 -113.5 Q 399 -96 432.5 -87 Q 466 -78 500 -78 Z " id="path62"/>
<path d="M 250 -517 Q 244 -517 237.5 -519.5 Q 231 -522 226.5 -526.5 Q 222 -531 219.5 -537.5 Q 217 -544 217 -550 Q 217 -556 219.5 -562.5 Q 222 -569 226.5 -573.5 Q 231 -578 237.5 -580.5 Q 244 -583 250 -583 Q 256 -583 262.5 -580.5 Q 269 -578 273.5 -573.5 Q 278 -569 280.5 -562.5 Q 283 -556 283 -550 Q 283 -544 280.5 -537.5 Q 278 -531 273.5 -526.5 Q 269 -522 262.5 -519.5 Q 256 -517 250 -517 Z M 145 -489 Q 139 -489 132.5 -491.5 Q 126 -494 121.5 -498.5 Q 117 -503 114.5 -509 Q 112 -515 112 -522 Q 112 -528 114.5 -534 Q 117 -540 121.5 -545 Q 126 -550 132.5 -552.5 Q 139 -555 145 -555 Q 151 -555 157.5 -552.5 Q 164 -550 168.5 -545 Q 173 -540 175.5 -534 Q 178 -528 178 -522 Q 178 -515 175.5 -509 Q 173 -503 168.5 -498.5 Q 164 -494 157.5 -491.5 Q 151 -489 145 -489 Z M 355 -489 Q 349 -489 342.5 -491.5 Q 336 -494 331.5 -498.5 Q 327 -503 324.5 -509 Q 322 -515 322 -522 Q 322 -528 324.5 -534 Q 327 -540 331.5 -545 Q 336 -550 342.5 -552.5 Q 349 -555 355 -555 Q 361 -555 367.5 -552.5 Q 374 -550 378.5 -545 Q 383 -540 385.5 -534 Q 388 -528 388 -522 Q 388 -515 385.5 -509 Q 383 -503 378.5 -498.5 Q 374 -494 367.5 -491.5 Q 361 -489 355 -489 Z M 68 -412 Q 62 -412 56 -414.5 Q 50 -417 45 -421.5 Q 40 -426 37.5 -432.5 Q 35 -439 35 -445 Q 35 -451 37.5 -457.5 Q 40 -464 45 -468.5 Q 50 -473 56 -475.5 Q 62 -478 68 -478 Q 75 -478 81 -475.5 Q 87 -473 91.5 -468.5 Q 96 -464 98.5 -457.5 Q 101 -451 101 -445 Q 101 -439 98.5 -432.5 Q 96 -426 91.5 -421.5 Q 87 -417 81 -414.5 Q 75 -412 68 -412 Z M 432 -412 Q 425 -412 419 -414.5 Q 413 -417 408.5 -421.5 Q 404 -426 401.5 -432.5 Q 399 -439 399 -445 Q 399 -451 401.5 -457.5 Q 404 -464 408.5 -468.5 Q 413 -473 419 -475.5 Q 425 -478 432 -478 Q 438 -478 444 -475.5 Q 450 -473 455 -468.5 Q 460 -464 462.5 -457.5 Q 465 -451 465 -445 Q 465 -439 462.5 -432.5 Q 460 -426 455 -421.5 Q 450 -417 444 -414.5 Q 438 -412 432 -412 Z M 40 -307 Q 34 -307 27.5 -309.5 Q 21 -312 16.5 -316.5 Q 12 -321 9.5 -327.5 Q 7 -334 7 -340 Q 7 -346 9.5 -352.5 Q 12 -359 16.5 -363.5 Q 21 -368 27.5 -370.5 Q 34 -373 40 -373 Q 46 -373 52.5 -370.5 Q 59 -368 63.5 -363.5 Q 68 -359 70.5 -352.5 Q 73 -346 73 -340 Q 73 -334 70.5 -327.5 Q 68 -321 63.5 -316.5 Q 59 -312 52.5 -309.5 Q 46 -307 40 -307 Z M 460 -307 Q 454 -307 447.5 -309.5 Q 441 -312 436.5 -316.5 Q 432 -321 429.5 -327.5 Q 427 -334 427 -340 Q 427 -346 429.5 -352.5 Q 432 -359 436.5 -363.5 Q 441 -368 447.5 -370.5 Q 454 -373 460 -373 Q 466 -373 472.5 -370.5 Q 479 -368 483.5 -363.5 Q 488 -359 490.5 -352.5 Q 493 -346 493 -340 Q 493 -334 490.5 -327.5 Q 488 -321 483.5 -316.5 Q 479 -312 472.5 -309.5 Q 466 -307 460 -307 Z M 432 -202 Q 425 -202 419 -204.5 Q 413 -207 408.5 -211.5 Q 404 -216 401.5 -222.5 Q 399 -229 399 -235 Q 399 -241 401.5 -247.5 Q 404 -254 408.5 -258.5 Q 413 -263 419 -265.5 Q 425 -268 432 -268 Q 438 -268 444 -265.5 Q 450 -263 455 -258.5 Q 460 -254 462.5 -247.5 Q 465 -241 465 -235 Q 465 -229 462.5 -222.5 Q 460 -216 455 -211.5 Q 450 -207 444 -204.5 Q 438 -202 432 -202 Z M 68 -202 Q 62 -202 56 -204.5 Q 50 -207 45 -211.5 Q 40 -216 37.5 -222.5 Q 35 -229 35 -235 Q 35 -241 37.5 -247.5 Q 40 -254 45 -258.5 Q 50 -263 56 -265.5 Q 62 -268 68 -268 Q 75 -268 81 -265.5 Q 87 -263 91.5 -258.5 Q 96 -254 98.5 -247.5 Q 101 -241 101 -235 Q 101 -229 98.5 -222.5 Q 96 -216 91.5 -211.5 Q 87 -207 81 -204.5 Q 75 -202 68 -202 Z M 355 -125 Q 349 -125 342.5 -127.5 Q 336 -130 331.5 -135 Q 327 -140 324.5 -146 Q 322 -152 322 -158 Q 322 -165 324.5 -171 Q 327 -177 331.5 -181.5 Q 336 -186 342.5 -188.5 Q 349 -191 355 -191 Q 361 -191 367.5 -188.5 Q 374 -186 378.5 -181.5 Q 383 -177 385.5 -171 Q 388 -165 388 -158 Q 388 -152 385.5 -146 Q 383 -140 378.5 -135 Q 374 -130 367.5 -127.5 Q 361 -125 355 -125 Z M 145 -125 Q 139 -125 132.5 -127.5 Q 126 -130 121.5 -135 Q 117 -140 114.5 -146 Q 112 -152 112 -158 Q 112 -165 114.5 -171 Q 117 -177 121.5 -181.5 Q 126 -186 132.5 -188.5 Q 139 -191 145 -191 Q 151 -191 157.5 -188.5 Q 164 -186 168.5 -181.5 Q 173 -177 175.5 -171 Q 178 -165 178 -158 Q 178 -152 175.5 -146 Q 173 -140 168.5 -135 Q 164 -130 157.5 -127.5 Q 151 -125 145 -125 Z M 250 -97 Q 244 -97 237.5 -99.5 Q 231 -102 226.5 -106.5 Q 222 -111 219.5 -117.5 Q 217 -124 217 -130 Q 217 -136 219.5 -142.5 Q 222 -149 226.5 -153.5 Q 231 -158 237.5 -160.5 Q 244 -163 250 -163 Q 256 -163 262.5 -160.5 Q 269 -158 273.5 -153.5 Q 278 -149 280.5 -142.5 Q 283 -136 283 -130 Q 283 -124 280.5 -117.5 Q 278 -111 273.5 -106.5 Q 269 -102 262.5 -99.5 Q 256 -97 250 -97 Z " id="path63"/>
<path d="M 500 -19 Q 458 -19 417 -30 Q 376 -41 339.5 -62 Q 303 -83 273 -113 Q 243 -143 222 -179.5 Q 201 -216 190 -257 Q 179 -298 179 -340 Q 179 -382 190 -423 Q 201 -464 222 -500.5 Q 243 -537 273 -567 Q 303 -597 339.5 -618 Q 376 -639 417 -650 Q 458 -661 500 -661 Q 542 -661 583 -650 Q 624 -639 660.5 -618 Q 697 -597 727 -567 Q 757 -537 778 -500.5 Q 799 -464 810 -423 Q 821 -382 821 -340 Q 821 -298 810 -257 Q 799 -216 778 -179.5 Q 757 -143 727 -113 Q 697 -83 660.5 -62 Q 624 -41 583 -30 Q 542 -19 500 -19 Z M 526 -80 Q 550 -82 572.5 -88.5 Q 595 -95 616 -106 L 616 -574 Q 595 -585 572.5 -591.5 Q 550 -598 526 -600 Z M 474 -80 L 474 -600 Q 450 -598 427.5 -591.5 Q 405 -585 384 -574 L 384 -106 Q 405 -95 427.5 -88.5 Q 450 -82 474 -80 Z M 669 -140 Q 691 -159 708 -181.5 Q 725 -204 737 -230 Q 749 -256 755.5 -284 Q 762 -312 762 -340 Q 762 -368 755.5 -396 Q 749 -424 737 -450 Q 725 -476 708 -498.5 Q 691 -521 669 -540 Z M 331 -140 L 331 -540 Q 309 -521 292 -498.5 Q 275 -476 263 -450 Q 251 -424 244.5 -396 Q 238 -368 238 -340 Q 238 -312 244.5 -284 Q 251 -256 263 -230 Q 275 -204 292 -181.5 Q 309 -159 331 -140 Z " id="path64"/>
<path d="M 500 -19 Q 458 -19 417 -30 Q 376 -41 339.5 -62 Q 303 -83 273 -113 Q 243 -143 222 -179.5 Q 201 -216 190 -257 Q 179 -298 179 -340 Q 179 -382 190 -423 Q 201 -464 222 -500.5 Q 243 -537 273 -567 Q 303 -597 339.5 -618 Q 376 -639 417 -650 Q 458 -661 500 -661 Q 542 -661 583 -650 Q 624 -639 660.5 -618 Q 697 -597 727 -567 Q 757 -537 778 -500.5 Q 799 -464 810 -423 Q 821 -382 821 -340 Q 821 -298 810 -257 Q 799 -216 778 -179.5 Q 757 -143 727 -113 Q 697 -83 660.5 -62 Q 624 -41 583 -30 Q 542 -19 500 -19 Z M 500 -78 Q 534 -78 567.5 -87 Q 601 -96 631 -113.5 Q 661 -131 685 -155 Q 709 -179 726.5 -209 Q 744 -239 753 -272.5 Q 762 -306 762 -340 Q 762 -374 753 -407.5 Q 744 -441 726.5 -471 Q 709 -501 685 -525 Q 661 -549 631 -566.5 Q 601 -584 567.5 -593 Q 534 -602 500 -602 Q 466 -602 432.5 -593 Q 399 -584 369 -566.5 Q 339 -549 315 -525 Q 291 -501 273.5 -471 Q 256 -441 247 -407.5 Q 238 -374 238 -340 Q 238 -306 247 -272.5 Q 256 -239 273.5 -209 Q 291 -179 315 -155 Q 339 -131 369 -113.5 Q 399 -96 432.5 -87 Q 466 -78 500 -78 Z M 500 -209 Q 474 -209 450 -219 Q 426 -229 407.5 -247.5 Q 389 -266 379 -290 Q 369 -314 369 -340 Q 369 -366 379 -390 Q 389 -414 407.5 -432.5 Q 426 -451 450 -461 Q 474 -471 500 -471 Q 526 -471 550 -461 Q 574 -451 592.5 -432.5 Q 611 -414 621 -390 Q 631 -366 631 -340 Q 631 -314 621 -290 Q 611 -266 592.5 -247.5 Q 574 -229 550 -219 Q 526 -209 500 -209 Z M 500 -269 Q 514 -269 527 -274.5 Q 540 -280 550 -290 Q 560 -300 565.5 -313 Q 571 -326 571 -340 Q 571 -354 565.5 -367 Q 560 -380 550 -390 Q 540 -400 527 -405.5 Q 514 -411 500 -411 Q 486 -411 473 -405.5 Q 460 -400 450 -390 Q 440 -380 434.5 -367 Q 429 -354 429 -340 Q 429 -326 434.5 -313 Q 440 -300 450 -290 Q 460 -280 473 -274.5 Q 486 -269 500 -269 Z " id="path65"/>
<path d="M 500 -19 Q 458 -19 417 -30 Q 376 -41 339.5 -62 Q 303 -83 273 -113 Q 243 -143 222 -179.5 Q 201 -216 190 -257 Q 179 -298 179 -340 Q 179 -382 190 -423 Q 201 -464 222 -500.5 Q 243 -537 273 -567 Q 303 -597 339.5 -618 Q 376 -639 417 -650 Q 458 -661 500 -661 Q 542 -661 583 -650 Q 624 -639 660.5 -618 Q 697 -597 727 -567 Q 757 -537 778 -500.5 Q 799 -464 810 -423 Q 821 -382 821 -340 Q 821 -298 810 -257 Q 799 -216 778 -179.5 Q 757 -143 727 -113 Q 697 -83 660.5 -62 Q 624 -41 583 -30 Q 542 -19 500 -19 Z " id="path66"/>
<path d="M 500 -19 Q 458 -19 417 -30 Q 376 -41 339.5 -62 Q 303 -83 273 -113 Q 243 -143 222 -179.5 Q 201 -216 190 -257 Q 179 -298 179 -340 Q 179 -382 190 -423 Q 201 -464 222 -500.5 Q 243 -537 273 -567 Q 303 -597 339.5 -618 Q 376 -639 417 -650 Q 458 -661 500 -661 Q 542 -661 583 -650 Q 624 -639 660.5 -618 Q 697 -597 727 -567 Q 757 -537 778 -500.5 Q 799 -464 810 -423 Q 821 -382 821 -340 Q 821 -298 810 -257 Q 799 -216 778 -179.5 Q 757 -143 727 -113 Q 697 -83 660.5 -62 Q 624 -41 583 -30 Q 542 -19 500 -19 Z M 500 -78 Q 534 -78 567.5 -87 Q 601 -96 631 -113.5 Q 661 -131 685 -155 Q 709 -179 726.5 -209 Q 744 -239 753 -272.5 Q 762 -306 762 -340 Q 762 -374 753 -407.5 Q 744 -441 726.5 -471 Q 709 -501 685 -525 Q 661 -549 631 -566.5 Q 601 -584 567.5 -593 Q 534 -602 500 -602 Z " id="path67"/>
<path d="M 500 -19 Q 458 -19 417 -30 Q 376 -41 339.5 -62 Q 303 -83 273 -113 Q 243 -143 222 -179.5 Q 201 -216 190 -257 Q 179 -298 179 -340 Q 179 -382 190 -423 Q 201 -464 222 -500.5 Q 243 -537 273 -567 Q 303 -597 339.5 -618 Q 376 -639 417 -650 Q 458 -661 500 -661 Q 542 -661 583 -650 Q 624 -639 660.5 -618 Q 697 -597 727 -567 Q 757 -537 778 -500.5 Q 799 -464 810 -423 Q 821 -382 821 -340 Q 821 -298 810 -257 Q 799 -216 778 -179.5 Q 757 -143 727 -113 Q 697 -83 660.5 -62 Q 624 -41 583 -30 Q 542 -19 500 -19 Z M 500 -78 L 500 -602 Q 466 -602 432.5 -593 Q 399 -584 369 -566.5 Q 339 -549 315 -525 Q 291 -501 273.5 -471 Q 256 -441 247 -407.5 Q 238 -374 238 -340 Q 238 -306 247 -272.5 Q 256 -239 273.5 -209 Q 291 -179 315 -155 Q 339 -131 369 -113.5 Q 399 -96 432.5 -87 Q 466 -78 500 -78 Z " id="path68"/>
<path d="M 500 -19 Q 458 -19 417 -30 Q 376 -41 339.5 -62 Q 303 -83 273 -113 Q 243 -143 222 -179.5 Q 201 -216 190 -257 Q 179 -298 179 -340 Q 179 -382 190 -423 Q 201 -464 222 -500.5 Q 243 -537 273 -567 Q 303 -597 339.5 -618 Q 376 -639 417 -650 Q 458 -661 500 -661 Q 542 -661 583 -650 Q 624 -639 660.5 -618 Q 697 -597 727 -567 Q 757 -537 778 -500.5 Q 799 -464 810 -423 Q 821 -382 821 -340 Q 821 -298 810 -257 Q 799 -216 778 -179.5 Q 757 -143 727 -113 Q 697 -83 660.5 -62 Q 624 -41 583 -30 Q 542 -19 500 -19 Z M 238 -340 L 762 -340 Q 762 -374 753 -407.5 Q 744 -441 726.5 -471 Q 709 -501 685 -525 Q 661 -549 631 -566.5 Q 601 -584 567.5 -593 Q 534 -602 500 -602 Q 466 -602 432.5 -593 Q 399 -584 369 -566.5 Q 339 -549 315 -525 Q 291 -501 273.5 -471 Q 256 -441 247 -407.5 Q 238 -374 238 -340 Z " id="path69"/>
<path d="M 500 -19 Q 458 -19 417 -30 Q 376 -41 339.5 -62 Q 303 -83 273 -113 Q 243 -143 222 -179.5 Q 201 -216 190 -257 Q 179 -298 179 -340 Q 179 -382 190 -423 Q 201 -464 222 -500.5 Q 243 -537 273 -567 Q 303 -597 339.5 -618 Q 376 -639 417 -650 Q 458 -661 500 -661 Q 542 -661 583 -650 Q 624 -639 660.5 -618 Q 697 -597 727 -567 Q 757 -537 778 -500.5 Q 799 -464 810 -423 Q 821 -382 821 -340 Q 821 -298 810 -257 Q 799 -216 778 -179.5 Q 757 -143 727 -113 Q 697 -83 660.5 -62 Q 624 -41 583 -30 Q 542 -19 500 -19 Z M 500 -78 Q 534 -78 567.5 -87 Q 601 -96 631 -113.5 Q 661 -131 685 -155 Q 709 -179 726.5 -209 Q 744 -239 753 -272.5 Q 762 -306 762 -340 L 238 -340 Q 238 -306 247 -272.5 Q 256 -239 273.5 -209 Q 291 -179 315 -155 Q 339 -131 369 -113.5 Q 399 -96 432.5 -87 Q 466 -78 500 -78 Z " id="path70"/>
<path d="M 500 -19 Q 458 -19 417 -30 Q 376 -41 339.5 -62 Q 303 -83 273 -113 Q 243 -143 222 -179.5 Q 201 -216 190 -257 Q 179 -298 179 -340 Q 179 -382 190 -423 Q 201 -464 222 -500.5 Q 243 -537 273 -567 Q 303 -597 339.5 -618 Q 376 -639 417 -650 Q 458 -661 500 -661 Q 542 -661 583 -650 Q 624 -639 660.5 -618 Q 697 -597 727 -567 Q 757 -537 778 -500.5 Q 799 -464 810 -423 Q 821 -382 821 -340 Q 821 -298 810 -257 Q 799 -216 778 -179.5 Q 757 -143 727 -113 Q 697 -83 660.5 -62 Q 624 -41 583 -30 Q 542 -19 500 -19 Z M 500 -78 Q 534 -78 567.5 -87 Q 601 -96 631 -113.5 Q 661 -131 685 -155 Q 709 -179 726.5 -209 Q 744 -239 753 -272.5 Q 762 -306 762 -340 L 500 -340 L 500 -602 Q 466 -602 432.5 -593 Q 399 -584 369 -566.5 Q 339 -549 315 -525 Q 291 -501 273.5 -471 Q 256 -441 247 -407.5 Q 238 -374 238 -340 Q 238 -306 247 -272.5 Q 256 -239 273.5 -209 Q 291 -179 315 -155 Q 339 -131 369 -113.5 Q 399 -96 432.5 -87 Q 466 -78 500 -78 Z " id="path71"/>
<path d="M 500 -19 Q 458 -19 417 -30 Q 376 -41 339.5 -62 Q 303 -83 273 -113 Q 243 -143 222 -179.5 Q 201 -216 190 -257 Q 179 -298 179 -340 Q 179 -382 190 -423 Q 201 -464 222 -500.5 Q 243 -537 273 -567 Q 303 -597 339.5 -618 Q 376 -639 417 -650 Q 458 -661 500 -661 Q 542 -661 583 -650 Q 624 -639 660.5 -618 Q 697 -597 727 -567 Q 757 -537 778 -500.5 Q 799 -464 810 -423 Q 821 -382 821 -340 Q 821 -298 810 -257 Q 799 -216 778 -179.5 Q 757 -143 727 -113 Q 697 -83 660.5 -62 Q 624 -41 583 -30 Q 542 -19 500 -19 Z M 238 -340 L 500 -340 L 500 -602 Q 466 -602 432.5 -593 Q 399 -584 369 -566.5 Q 339 -549 315 -525 Q 291 -501 273.5 -471 Q 256 -441 247 -407.5 Q 238 -374 238 -340 Z " id="path72"/>
<path d="M 500 -20 Q 458 -20 417 -31 Q 376 -42 340 -63 Q 304 -84 274 -114 Q 244 -144 223 -180 Q 202 -216 191 -257 Q 180 -298 180 -340 Q 180 -382 191 -423 Q 202 -464 223 -500 Q 244 -536 274 -566 Q 304 -596 340 -617 Q 376 -638 417 -649 Q 458 -660 500 -660 Z " id="path73"/>
<path d="M 500 -20 L 500 -660 Q 542 -660 583 -649 Q 624 -638 660 -617 Q 696 -596 726 -566 Q 756 -536 777 -500 Q 798 -464 809 -423 Q 820 -382 820 -340 Q 820 -298 809 -257 Q 798 -216 777 -180 Q 756 -144 726 -114 Q 696 -84 660 -63 Q 624 -42 583 -31 Q 542 -20 500 -20 Z " id="path74"/>
<path d="M 0 285 L 0 -965 L 1000 -965 L 1000 285 Z M 500 -19 Q 542 -19 583 -30 Q 624 -41 660.5 -62 Q 697 -83 727 -113 Q 757 -143 778 -179.5 Q 799 -216 810 -257 Q 821 -298 821 -340 Q 821 -382 810 -423 Q 799 -464 778 -500.5 Q 757 -537 727 -567 Q 697 -597 660.5 -618 Q 624 -639 583 -650 Q 542 -661 500 -661 Q 458 -661 417 -650 Q 376 -639 339.5 -618 Q 303 -597 273 -567 Q 243 -537 222 -500.5 Q 201 -464 190 -423 Q 179 -382 179 -340 Q 179 -298 190 -257 Q 201 -216 222 -179.5 Q 243 -143 273 -113 Q 303 -83 339.5 -62 Q 376 -41 417 -30 Q 458 -19 500 -19 Z " id="path75"/>
<path d="M 0 285 L 0 -965 L 1000 -965 L 1000 285 Z M 500 -19 Q 542 -19 583 -30 Q 624 -41 660.5 -62 Q 697 -83 727 -113 Q 757 -143 778 -179.5 Q 799 -216 810 -257 Q 821 -298 821 -340 Q 821 -382 810 -423 Q 799 -464 778 -500.5 Q 757 -537 727 -567 Q 697 -597 660.5 -618 Q 624 -639 583 -650 Q 542 -661 500 -661 Q 458 -661 417 -650 Q 376 -639 339.5 -618 Q 303 -597 273 -567 Q 243 -537 222 -500.5 Q 201 -464 190 -423 Q 179 -382 179 -340 Q 179 -298 190 -257 Q 201 -216 222 -179.5 Q 243 -143 273 -113 Q 303 -83 339.5 -62 Q 376 -41 417 -30 Q 458 -19 500 -19 Z M 500 -78 Q 466 -78 432.5 -87 Q 399 -96 369 -113.5 Q 339 -131 315 -155 Q 291 -179 273.5 -209 Q 256 -239 247 -272.5 Q 238 -306 238 -340 Q 238 -374 247 -407.5 Q 256 -441 273.5 -471 Q 291 -501 315 -525 Q 339 -549 369 -566.5 Q 399 -584 432.5 -593 Q 466 -602 500 -602 Q 534 -602 567.5 -593 Q 601 -584 631 -566.5 Q 661 -549 685 -525 Q 709 -501 726.5 -471 Q 744 -441 753 -407.5 Q 762 -374 762 -340 Q 762 -306 753 -272.5 Q 744 -239 726.5 -209 Q 709 -179 685 -155 Q 661 -131 631 -113.5 Q 601 -96 567.5 -87 Q 534 -78 500 -78 Z " id="path76"/>
<path d="M 0 -340 L 0 -965 L 1000 -965 L 1000 -340 L 821 -340 Q 821 -382 810 -423 Q 799 -464 778 -500.5 Q 757 -537 727 -567 Q 697 -597 660.5 -618 Q 624 -639 583 -650 Q 542 -661 500 -661 Q 458 -661 417 -650 Q 376 -639 339.5 -618 Q 303 -597 273 -567 Q 243 -537 222 -500.5 Q 201 -464 190 -423 Q 179 -382 179 -340 Z M 238 -340 Q 238 -374 247 -407.5 Q 256 -441 273.5 -471 Q 291 -501 315 -525 Q 339 -549 369 -566.5 Q 399 -584 432.5 -593 Q 466 -602 500 -602 Q 534 -602 567.5 -593 Q 601 -584 631 -566.5 Q 661 -549 685 -525 Q 709 -501 726.5 -471 Q 744 -441 753 -407.5 Q 762 -374 762 -340 Z " id="path77"/>
<path d="M 500 -78 Q 466 -78 432.5 -87 Q 399 -96 369 -113.5 Q 339 -131 315 -155 Q 291 -179 273.5 -209 Q 256 -239 247 -272.5 Q 238 -306 238 -340 L 762 -340 Q 762 -306 753 -272.5 Q 744 -239 726.5 -209 Q 709 -179 685 -155 Q 661 -131 631 -113.5 Q 601 -96 567.5 -87 Q 534 -78 500 -78 Z M 0 285 L 0 -340 L 179 -340 Q 179 -298 190 -257 Q 201 -216 222 -179.5 Q 243 -143 273 -113 Q 303 -83 339.5 -62 Q 376 -41 417 -30 Q 458 -19 500 -19 Q 542 -19 583 -30 Q 624 -41 660.5 -62 Q 697 -83 727 -113 Q 757 -143 778 -179.5 Q 799 -216 810 -257 Q 821 -298 821 -340 L 1000 -340 L 1000 285 Z " id="path78"/>
<path d="M 179 -340 Q 179 -382 190 -423 Q 201 -464 222 -500.5 Q 243 -537 273 -567 Q 303 -597 339.5 -618 Q 376 -639 417 -650 Q 458 -661 500 -661 L 500 -602 Q 466 -602 432.5 -593 Q 399 -584 369 -566.5 Q 339 -549 315 -525 Q 291 -501 273.5 -471 Q 256 -441 247 -407.5 Q 238 -374 238 -340 Z " id="path79"/>
<path d="M 762 -340 Q 762 -374 753 -407.5 Q 744 -441 726.5 -471 Q 709 -501 685 -525 Q 661 -549 631 -566.5 Q 601 -584 567.5 -593 Q 534 -602 500 -602 L 500 -661 Q 542 -661 583 -650 Q 624 -639 660.5 -618 Q 697 -597 727 -567 Q 757 -537 778 -500.5 Q 799 -464 810 -423 Q 821 -382 821 -340 Z " id="path80"/>
<path d="M 500 -19 L 500 -78 Q 534 -78 567.5 -87 Q 601 -96 631 -113.5 Q 661 -131 685 -155 Q 709 -179 726.5 -209 Q 744 -239 753 -272.5 Q 762 -306 762 -340 L 821 -340 Q 821 -298 810 -257 Q 799 -216 778 -179.5 Q 757 -143 727 -113 Q 697 -83 660.5 -62 Q 624 -41 583 -30 Q 542 -19 500 -19 Z " id="path81"/>
<path d="M 500 -19 Q 458 -19 417 -30 Q 376 -41 339.5 -62 Q 303 -83 273 -113 Q 243 -143 222 -179.5 Q 201 -216 190 -257 Q 179 -298 179 -340 L 238 -340 Q 238 -306 247 -272.5 Q 256 -239 273.5 -209 Q 291 -179 315 -155 Q 339 -131 369 -113.5 Q 399 -96 432.5 -87 Q 466 -78 500 -78 Z " id="path82"/>
<path d="M 179 -340 Q 179 -382 190 -423 Q 201 -464 222 -500.5 Q 243 -537 273 -567 Q 303 -597 339.5 -618 Q 376 -639 417 -650 Q 458 -661 500 -661 Q 542 -661 583 -650 Q 624 -639 660.5 -618 Q 697 -597 727 -567 Q 757 -537 778 -500.5 Q 799 -464 810 -423 Q 821 -382 821 -340 L 762 -340 Q 762 -374 753 -407.5 Q 744 -441 726.5 -471 Q 709 -501 685 -525 Q 661 -549 631 -566.5 Q 601 -584 567.5 -593 Q 534 -602 500 -602 Q 466 -602 432.5 -593 Q 399 -584 369 -566.5 Q 339 -549 315 -525 Q 291 -501 273.5 -471 Q 256 -441 247 -407.5 Q 238 -374 238 -340 Z " id="path83"/>
<path d="M 500 -19 Q 458 -19 417 -30 Q 376 -41 339.5 -62 Q 303 -83 273 -113 Q 243 -143 222 -179.5 Q 201 -216 190 -257 Q 179 -298 179 -340 L 238 -340 Q 238 -306 247 -272.5 Q 256 -239 273.5 -209 Q 291 -179 315 -155 Q 339 -131 369 -113.5 Q 399 -96 432.5 -87 Q 466 -78 500 -78 Q 534 -78 567.5 -87 Q 601 -96 631 -113.5 Q 661 -131 685 -155 Q 709 -179 726.5 -209 Q 744 -239 753 -272.5 Q 762 -306 762 -340 L 821 -340 Q 821 -298 810 -257 Q 799 -216 778 -179.5 Q 757 -143 727 -113 Q 697 -83 660.5 -62 Q 624 -41 583 -30 Q 542 -19 500 -19 Z " id="path84"/>
<path d="M 821 -19 L 179 -19 L 821 -661 Z " id="path85"/>
<path d="M 821 -19 L 179 -19 L 179 -661 Z " id="path86"/>
<path d="M 179 -19 L 179 -661 L 821 -661 Z " id="path87"/>
<path d="M 821 -19 L 179 -661 L 821 -661 Z " id="path88"/>
<path d="M 250 -189 Q 220 -189 190 -198 Q 160 -207 138.5 -228.5 Q 117 -250 108 -280 Q 99 -310 99 -340 Q 99 -370 108 -400 Q 117 -430 138.5 -451.5 Q 160 -473 190 -482 Q 220 -491 250 -491 Q 280 -491 310 -482 Q 340 -473 361.5 -451.5 Q 383 -430 392 -400 Q 401 -370 401 -340 Q 401 -310 392 -280 Q 383 -250 361.5 -228.5 Q 340 -207 310 -198 Q 280 -189 250 -189 Z M 250 -243 Q 269 -243 288.5 -249 Q 308 -255 321.5 -268.5 Q 335 -282 341 -301.5 Q 347 -321 347 -340 Q 347 -359 341 -378.5 Q 335 -398 321.5 -411.5 Q 308 -425 288.5 -431 Q 269 -437 250 -437 Q 231 -437 211.5 -431 Q 192 -425 178.5 -411.5 Q 165 -398 159 -378.5 Q 153 -359 153 -340 Q 153 -321 159 -301.5 Q 165 -282 178.5 -268.5 Q 192 -255 211.5 -249 Q 231 -243 250 -243 Z " id="path89"/>
<path d="M 179 -19 L 179 -661 L 821 -661 L 821 -19 Z M 762 -78 L 762 -602 L 500 -602 L 500 -78 Z " id="path90"/>
<path d="M 179 -19 L 179 -661 L 821 -661 L 821 -19 Z M 238 -78 L 500 -78 L 500 -602 L 238 -602 Z " id="path91"/>
<path d="M 179 -19 L 179 -661 L 821 -661 L 821 -19 Z M 238 -78 L 762 -78 L 762 -602 Z " id="path92"/>
<path d="M 179 -19 L 179 -661 L 821 -661 L 821 -19 Z M 238 -78 L 762 -602 L 238 -602 Z " id="path93"/>
<path d="M 179 -19 L 179 -661 L 821 -661 L 821 -19 Z M 533 -78 L 762 -78 L 762 -602 L 533 -602 Z M 238 -78 L 467 -78 L 467 -602 L 238 -602 Z " id="path94"/>
<path d="M 110 -19 L 500 -661 L 890 -19 Z M 216 -78 L 784 -78 L 500 -546 Z M 500 -163 Q 486 -163 473 -168.5 Q 460 -174 450.5 -183.5 Q 441 -193 435.5 -206 Q 430 -219 430 -233 Q 430 -247 435.5 -260 Q 441 -273 450.5 -282.5 Q 460 -292 473 -297.5 Q 486 -303 500 -303 Q 514 -303 527 -297.5 Q 540 -292 549.5 -282.5 Q 559 -273 564.5 -260 Q 570 -247 570 -233 Q 570 -219 564.5 -206 Q 559 -193 549.5 -183.5 Q 540 -174 527 -168.5 Q 514 -163 500 -163 Z " id="path95"/>
<path d="M 110 -19 L 500 -661 L 890 -19 Z M 784 -78 L 500 -546 L 500 -78 Z " id="path96"/>
<path d="M 110 -19 L 500 -661 L 890 -19 Z M 500 -78 L 500 -546 L 216 -78 Z " id="path97"/>
<path d="M 500 62 Q 447 62 396 48 Q 345 34 299.5 8 Q 254 -18 216 -56 Q 178 -94 152 -139.5 Q 126 -185 112 -236 Q 98 -287 98 -340 Q 98 -393 112 -444 Q 126 -495 152 -540.5 Q 178 -586 216 -624 Q 254 -662 299.5 -688 Q 345 -714 396 -728 Q 447 -742 500 -742 Q 553 -742 604 -728 Q 655 -714 700.5 -688 Q 746 -662 784 -624 Q 822 -586 848 -540.5 Q 874 -495 888 -444 Q 902 -393 902 -340 Q 902 -287 888 -236 Q 874 -185 848 -139.5 Q 822 -94 784 -56 Q 746 -18 700.5 8 Q 655 34 604 48 Q 553 62 500 62 Z M 500 2 Q 545 2 588.5 -9.5 Q 632 -21 671 -43.5 Q 710 -66 742 -98 Q 774 -130 796.5 -169 Q 819 -208 830.5 -251.5 Q 842 -295 842 -340 Q 842 -385 830.5 -428.5 Q 819 -472 796.5 -511 Q 774 -550 742 -582 Q 710 -614 671 -636.5 Q 632 -659 588.5 -670.5 Q 545 -682 500 -682 Q 455 -682 411.5 -670.5 Q 368 -659 329 -636.5 Q 290 -614 258 -582 Q 226 -550 203.5 -511 Q 181 -472 169.5 -428.5 Q 158 -385 158 -340 Q 158 -295 169.5 -251.5 Q 181 -208 203.5 -169 Q 226 -130 258 -98 Q 290 -66 329 -43.5 Q 368 -21 411.5 -9.5 Q 455 2 500 2 Z " id="path98"/>
<path d="M 179 -19 L 179 -661 L 821 -661 L 821 -19 Z M 467 -370 L 467 -602 L 238 -602 L 238 -370 Z M 238 -78 L 762 -78 L 762 -602 L 533 -602 L 533 -310 L 238 -310 Z " id="path99"/>
<path d="M 179 -19 L 179 -661 L 821 -661 L 821 -19 Z M 533 -78 L 762 -78 L 762 -602 L 238 -602 L 238 -370 L 533 -370 Z M 238 -78 L 467 -78 L 467 -310 L 238 -310 Z " id="path100"/>
<path d="M 179 -19 L 179 -661 L 821 -661 L 821 -19 Z M 238 -78 L 467 -78 L 467 -370 L 762 -370 L 762 -602 L 238 -602 Z M 533 -78 L 762 -78 L 762 -310 L 533 -310 Z " id="path101"/>
<path d="M 179 -19 L 179 -661 L 821 -661 L 821 -19 Z M 238 -78 L 762 -78 L 762 -310 L 467 -310 L 467 -602 L 238 -602 Z M 533 -370 L 762 -370 L 762 -602 L 533 -602 Z " id="path102"/>
<path d="M 500 -19 Q 458 -19 417 -30 Q 376 -41 339.5 -62 Q 303 -83 273 -113 Q 243 -143 222 -179.5 Q 201 -216 190 -257 Q 179 -298 179 -340 Q 179 -382 190 -423 Q 201 -464 222 -500.5 Q 243 -537 273 -567 Q 303 -597 339.5 -618 Q 376 -639 417 -650 Q 458 -661 500 -661 Q 542 -661 583 -650 Q 624 -639 660.5 -618 Q 697 -597 727 -567 Q 757 -537 778 -500.5 Q 799 -464 810 -423 Q 821 -382 821 -340 Q 821 -298 810 -257 Q 799 -216 778 -179.5 Q 757 -143 727 -113 Q 697 -83 660.5 -62 Q 624 -41 583 -30 Q 542 -19 500 -19 Z M 467 -370 L 467 -600 Q 424 -594 384 -574.5 Q 344 -555 313.5 -524 Q 283 -493 264 -453 Q 245 -413 240 -370 Z M 500 -78 Q 534 -78 567.5 -87 Q 601 -96 631 -113.5 Q 661 -131 685 -155 Q 709 -179 726.5 -209 Q 744 -239 753 -272.5 Q 762 -306 762 -340 Q 762 -371 754.5 -402 Q 747 -433 732 -461 Q 717 -489 696 -513 Q 675 -537 649.5 -555 Q 624 -573 594 -584.5 Q 564 -596 533 -600 L 533 -310 L 240 -310 Q 244 -279 255 -249 Q 266 -219 284 -192.5 Q 302 -166 326 -144.5 Q 350 -123 378 -108.5 Q 406 -94 437 -86 Q 468 -78 500 -78 Z " id="path103"/>
<path d="M 500 -19 Q 458 -19 417 -30 Q 376 -41 339.5 -62 Q 303 -83 273 -113 Q 243 -143 222 -179.5 Q 201 -216 190 -257 Q 179 -298 179 -340 Q 179 -382 190 -423 Q 201 -464 222 -500.5 Q 243 -537 273 -567 Q 303 -597 339.5 -618 Q 376 -639 417 -650 Q 458 -661 500 -661 Q 542 -661 583 -650 Q 624 -639 660.5 -618 Q 697 -597 727 -567 Q 757 -537 778 -500.5 Q 799 -464 810 -423 Q 821 -382 821 -340 Q 821 -298 810 -257 Q 799 -216 778 -179.5 Q 757 -143 727 -113 Q 697 -83 660.5 -62 Q 624 -41 583 -30 Q 542 -19 500 -19 Z M 533 -80 Q 564 -84 594 -95.5 Q 624 -107 649.5 -125 Q 675 -143 696 -167 Q 717 -191 732 -219 Q 747 -247 754.5 -278 Q 762 -309 762 -340 Q 762 -374 753 -407.5 Q 744 -441 726.5 -471 Q 709 -501 685 -525 Q 661 -549 631 -566.5 Q 601 -584 567.5 -593 Q 534 -602 500 -602 Q 468 -602 437 -594 Q 406 -586 378 -571.5 Q 350 -557 326 -535.5 Q 302 -514 284 -487.5 Q 266 -461 255 -431 Q 244 -401 240 -370 L 533 -370 Z M 467 -80 L 467 -310 L 240 -310 Q 245 -267 264 -227 Q 283 -187 313.5 -156 Q 344 -125 384 -105.5 Q 424 -86 467 -80 Z " id="path104"/>
<path d="M 500 -19 Q 458 -19 417 -30 Q 376 -41 339.5 -62 Q 303 -83 273 -113 Q 243 -143 222 -179.5 Q 201 -216 190 -257 Q 179 -298 179 -340 Q 179 -382 190 -423 Q 201 -464 222 -500.5 Q 243 -537 273 -567 Q 303 -597 339.5 -618 Q 376 -639 417 -650 Q 458 -661 500 -661 Q 542 -661 583 -650 Q 624 -639 660.5 -618 Q 697 -597 727 -567 Q 757 -537 778 -500.5 Q 799 -464 810 -423 Q 821 -382 821 -340 Q 821 -298 810 -257 Q 799 -216 778 -179.5 Q 757 -143 727 -113 Q 697 -83 660.5 -62 Q 624 -41 583 -30 Q 542 -19 500 -19 Z M 467 -80 L 467 -370 L 760 -370 Q 756 -401 745 -431 Q 734 -461 716 -487.5 Q 698 -514 674 -535.5 Q 650 -557 622 -571.5 Q 594 -586 563 -594 Q 532 -602 500 -602 Q 466 -602 432.5 -593 Q 399 -584 369 -566.5 Q 339 -549 315 -525 Q 291 -501 273.5 -471 Q 256 -441 247 -407.5 Q 238 -374 238 -340 Q 238 -309 245.5 -278 Q 253 -247 268 -219 Q 283 -191 304 -167 Q 325 -143 350.5 -125 Q 376 -107 406 -95.5 Q 436 -84 467 -80 Z M 533 -80 Q 576 -86 616 -105.5 Q 656 -125 686.5 -156 Q 717 -187 736 -227 Q 755 -267 760 -310 L 533 -310 Z " id="path105"/>
<path d="M 500 -19 Q 458 -19 417 -30 Q 376 -41 339.5 -62 Q 303 -83 273 -113 Q 243 -143 222 -179.5 Q 201 -216 190 -257 Q 179 -298 179 -340 Q 179 -382 190 -423 Q 201 -464 222 -500.5 Q 243 -537 273 -567 Q 303 -597 339.5 -618 Q 376 -639 417 -650 Q 458 -661 500 -661 Q 542 -661 583 -650 Q 624 -639 660.5 -618 Q 697 -597 727 -567 Q 757 -537 778 -500.5 Q 799 -464 810 -423 Q 821 -382 821 -340 Q 821 -298 810 -257 Q 799 -216 778 -179.5 Q 757 -143 727 -113 Q 697 -83 660.5 -62 Q 624 -41 583 -30 Q 542 -19 500 -19 Z M 500 -78 Q 532 -78 563 -86 Q 594 -94 622 -108.5 Q 650 -123 674 -144.5 Q 698 -166 716 -192.5 Q 734 -219 745 -249 Q 756 -279 760 -310 L 467 -310 L 467 -600 Q 436 -596 406 -584.5 Q 376 -573 350.5 -555 Q 325 -537 304 -513 Q 283 -489 268 -461 Q 253 -433 245.5 -402 Q 238 -371 238 -340 Q 238 -306 247 -272.5 Q 256 -239 273.5 -209 Q 291 -179 315 -155 Q 339 -131 369 -113.5 Q 399 -96 432.5 -87 Q 466 -78 500 -78 Z M 533 -370 L 760 -370 Q 755 -413 736 -453 Q 717 -493 686.5 -524 Q 656 -555 616 -574.5 Q 576 -594 533 -600 Z " id="path106"/>
<path d="M 179 -19 L 179 -661 L 821 -661 Z M 238 -163 L 677 -602 L 238 -602 Z " id="path107"/>
<path d="M 821 -19 L 179 -661 L 821 -661 Z M 762 -163 L 762 -602 L 323 -602 Z " id="path108"/>
<path d="M 179 -19 L 179 -661 L 821 -19 Z M 677 -78 L 238 -517 L 238 -78 Z " id="path109"/>
<path d="M 248 -88 L 248 -592 L 752 -592 L 752 -88 Z M 307 -147 L 693 -147 L 693 -533 L 307 -533 Z " id="path110"/>
<path d="M 248 -88 L 248 -592 L 752 -592 L 752 -88 Z " id="path111"/>
<path d="M 282 -122 L 282 -558 L 718 -558 L 718 -122 Z M 342 -182 L 658 -182 L 658 -498 L 342 -498 Z " id="path112"/>
<path d="M 282 -122 L 282 -558 L 718 -558 L 718 -122 Z " id="path113"/>
<path d="M 179 -19 L 821 -661 L 821 -19 Z M 762 -78 L 762 -517 L 323 -78 Z " id="path114"/>
</defs>
<g>
<g data-source-text="0" fill="#dee4e3" transform="translate(174 41.292) rotate(0) scale(0.023999998)">
<use href="#path1" transform="translate(0 0)"/>
</g>
</g>
<g>
<g data-source-text="1" fill="#dee4e3" transform="translate(246 41.292) rotate(0) scale(0.023999998)">
<use href="#path2" transform="translate(0 0)"/>
</g>
</g>
<g>
<g data-source-text="2" fill="#dee4e3" transform="translate(318 41.292) rotate(0) scale(0.023999998)">
<use href="#path3" transform="translate(0 0)"/>
</g>
</g>
<g>
<g data-source-text="3" fill="#dee4e3" transform="translate(390 41.292) rotate(0) scale(0.023999998)">
<use href="#path4" transform="translate(0 0)"/>
</g>
</g>
<g>
<g data-source-text="4" fill="#dee4e3" transform="translate(462 41.292) rotate(0) scale(0.023999998)">
<use href="#path5" transform="translate(0 0)"/>
</g>
</g>
<g>
<g data-source-text="5" fill="#dee4e3" transform="translate(534 41.292) rotate(0) scale(0.023999998)">
<use href="#path6" transform="translate(0 0)"/>
</g>
</g>
<g>
<g data-source-text="6" fill="#dee4e3" transform="translate(606 41.292) rotate(0) scale(0.023999998)">
<use href="#path7" transform="translate(0 0)"/>
</g>
</g>
<g>
<g data-source-text="7" fill="#dee4e3" transform="translate(678 41.292) rotate(0) scale(0.023999998)">
<use href="#path8" transform="translate(0 0)"/>
</g>
</g>
<g>
<g data-source-text="8" fill="#dee4e3" transform="translate(750 41.292) rotate(0) scale(0.023999998)">
<use href="#path9" transform="translate(0 0)"/>
</g>
</g>
<g>
<g data-source-text="9" fill="#dee4e3" transform="translate(822 41.292) rotate(0) scale(0.023999998)">
<use href="#path10" transform="translate(0 0)"/>
</g>
</g>
<g>
<g data-source-text="A" fill="#dee4e3" transform="translate(894 41.292) rotate(0) scale(0.023999998)">
<use href="#path11" transform="translate(0 0)"/>
</g>
</g>
<g>
<g data-source-text="B" fill="#dee4e3" transform="translate(966 41.292) rotate(0) scale(0.023999998)">
<use href="#path12" transform="translate(0 0)"/>
</g>
</g>
<g>
<g data-source-text="C" fill="#dee4e3" transform="translate(1038 41.292) rotate(0) scale(0.023999998)">
<use href="#path13" transform="translate(0 0)"/>
</g>
</g>
<g>
<g data-source-text="D" fill="#dee4e3" transform="translate(1110 41.292) rotate(0) scale(0.023999998)">
<use href="#path14" transform="translate(0 0)"/>
</g>
</g>
<g>
<g data-source-text="E" fill="#dee4e3" transform="translate(1182 41.292) rotate(0) scale(0.023999998)">
<use href="#path15" transform="translate(0 0)"/>
</g>
</g>
<g>
<g data-source-text="F" fill="#dee4e3" transform="translate(1254 41.292) rotate(0) scale(0.023999998)">
<use href="#path16" transform="translate(0 0)"/>
</g>
</g>
<g>
<g data-source-text="U+25A0" fill="#dee4e3" transform="translate(36 113.292) rotate(0) scale(0.023999998)">
<use href="#path17" transform="translate(0 0)"/>
<use href="#path18" transform="translate(500 0)"/>
<use href="#path3" transform="translate(1000 0)"/>
<use href="#path6" transform="translate(1500 0)"/>
<use href="#path11" transform="translate(2000 0)"/>
<use href="#path1" transform="translate(2500 0)"/>
</g>
</g>
<g>
<g data-source-text="" fill="#dee4e3" transform="translate(156 118.584) rotate(0) scale(0.047999997)">
<use href="#path19" transform="translate(0 0)"/>
</g>
</g>
<g>
<g data-source-text="" fill="#dee4e3" transform="translate(228 118.584) rotate(0) scale(0.047999997)">
<use href="#path20" transform="translate(0 0)"/>
</g>
</g>
<g>
<g data-source-text="" fill="#dee4e3" transform="translate(300 118.584) rotate(0) scale(0.047999997)">
<use href="#path21" transform="translate(0 0)"/>
</g>
</g>
<g>
<g data-source-text="" fill="#dee4e3" transform="translate(372 118.584) rotate(0) scale(0.047999997)">
<use href="#path22" transform="translate(0 0)"/>
</g>
</g>
<g>
<g data-source-text="" fill="#dee4e3" transform="translate(444 118.584) rotate(0) scale(0.047999997)">
<use href="#path23" transform="translate(0 0)"/>
</g>
</g>
<g>
<g data-source-text="" fill="#dee4e3" transform="translate(516 118.584) rotate(0) scale(0.047999997)">
<use href="#path24" transform="translate(0 0)"/>
</g>
</g>
<g>
<g data-source-text="" fill="#dee4e3" transform="translate(588 118.584) rotate(0) scale(0.047999997)">
<use href="#path25" transform="translate(0 0)"/>
</g>
</g>
<g>
<g data-source-text="" fill="#dee4e3" transform="translate(660 118.584) rotate(0) scale(0.047999997)">
<use href="#path26" transform="translate(0 0)"/>
</g>
</g>
<g>
<g data-source-text="" fill="#dee4e3" transform="translate(732 118.584) rotate(0) scale(0.047999997)">
<use href="#path27" transform="translate(0 0)"/>
</g>
</g>
<g>
<g data-source-text="" fill="#dee4e3" transform="translate(804 118.584) rotate(0) scale(0.047999997)">
<use href="#path28" transform="translate(0 0)"/>
</g>
</g>
<g>
<g data-source-text="" fill="#dee4e3" transform="translate(876 118.584) rotate(0) scale(0.047999997)">
<use href="#path29" transform="translate(0 0)"/>
</g>
</g>
<g>
<g data-source-text="" fill="#dee4e3" transform="translate(948 118.584) rotate(0) scale(0.047999997)">
<use href="#path30" transform="translate(0 0)"/>
</g>
</g>
<g>
<g data-source-text="" fill="#dee4e3" transform="translate(1020 118.584) rotate(0) scale(0.047999997)">
<use href="#path31" transform="translate(0 0)"/>
</g>
</g>
<g>
<g data-source-text="" fill="#dee4e3" transform="translate(1092 118.584) rotate(0) scale(0.047999997)">
<use href="#path32" transform="translate(0 0)"/>
</g>
</g>
<g>
<g data-source-text="" fill="#dee4e3" transform="translate(1164 118.584) rotate(0) scale(0.047999997)">
<use href="#path33" transform="translate(0 0)"/>
</g>
</g>
<g>
<g data-source-text="" fill="#dee4e3" transform="translate(1236 118.584) rotate(0) scale(0.047999997)">
<use href="#path34" transform="translate(0 0)"/>
</g>
</g>
<g>
<g data-source-text="U+25B0" fill="#dee4e3" transform="translate(36 185.292) rotate(0) scale(0.023999998)">
<use href="#path17" transform="translate(0 0)"/>
<use href="#path18" transform="translate(500 0)"/>
<use href="#path3" transform="translate(1000 0)"/>
<use href="#path6" transform="translate(1500 0)"/>
<use href="#path12" transform="translate(2000 0)"/>
<use href="#path1" transform="translate(2500 0)"/>
</g>
</g>
<g>
<g data-source-text="" fill="#dee4e3" transform="translate(156 190.584) rotate(0) scale(0.047999997)">
<use href="#path35" transform="translate(0 0)"/>
</g>
</g>
<g>
<g data-source-text="" fill="#dee4e3" transform="translate(228 190.584) rotate(0) scale(0.047999997)">
<use href="#path36" transform="translate(0 0)"/>
</g>
</g>
<g>
<g data-source-text="" fill="#dee4e3" transform="translate(300 190.584) rotate(0) scale(0.047999997)">
<use href="#path37" transform="translate(0 0)"/>
</g>
</g>
<g>
<g data-source-text="" fill="#dee4e3" transform="translate(372 190.584) rotate(0) scale(0.047999997)">
<use href="#path38" transform="translate(0 0)"/>
</g>
</g>
<g>
<g data-source-text="" fill="#dee4e3" transform="translate(444 190.584) rotate(0) scale(0.047999997)">
<use href="#path39" transform="translate(0 0)"/>
</g>
</g>
<g>
<g data-source-text="" fill="#dee4e3" transform="translate(516 190.584) rotate(0) scale(0.047999997)">
<use href="#path40" transform="translate(0 0)"/>
</g>
</g>
<g>
<g data-source-text="" fill="#dee4e3" transform="translate(588 190.584) rotate(0) scale(0.047999997)">
<use href="#path41" transform="translate(0 0)"/>
</g>
</g>
<g>
<g data-source-text="" fill="#dee4e3" transform="translate(660 190.584) rotate(0) scale(0.047999997)">
<use href="#path42" transform="translate(0 0)"/>
</g>
</g>
<g>
<g data-source-text="" fill="#dee4e3" transform="translate(732 190.584) rotate(0) scale(0.047999997)">
<use href="#path43" transform="translate(0 0)"/>
</g>
</g>
<g>
<g data-source-text="" fill="#dee4e3" transform="translate(804 190.584) rotate(0) scale(0.047999997)">
<use href="#path44" transform="translate(0 0)"/>
</g>
</g>
<g>
<g data-source-text="" fill="#dee4e3" transform="translate(876 190.584) rotate(0) scale(0.047999997)">
<use href="#path45" transform="translate(0 0)"/>
</g>
</g>
<g>
<g data-source-text="" fill="#dee4e3" transform="translate(948 190.584) rotate(0) scale(0.047999997)">
<use href="#path46" transform="translate(0 0)"/>
</g>
</g>
<g>
<g data-source-text="" fill="#dee4e3" transform="translate(1020 190.584) rotate(0) scale(0.047999997)">
<use href="#path47" transform="translate(0 0)"/>
</g>
</g>
<g>
<g data-source-text="" fill="#dee4e3" transform="translate(1092 190.584) rotate(0) scale(0.047999997)">
<use href="#path48" transform="translate(0 0)"/>
</g>
</g>
<g>
<g data-source-text="" fill="#dee4e3" transform="translate(1164 190.584) rotate(0) scale(0.047999997)">
<use href="#path49" transform="translate(0 0)"/>
</g>
</g>
<g>
<g data-source-text="" fill="#dee4e3" transform="translate(1236 190.584) rotate(0) scale(0.047999997)">
<use href="#path50" transform="translate(0 0)"/>
</g>
</g>
<g>
<g data-source-text="U+25C0" fill="#dee4e3" transform="translate(36 257.292) rotate(0) scale(0.023999998)">
<use href="#path17" transform="translate(0 0)"/>
<use href="#path18" transform="translate(500 0)"/>
<use href="#path3" transform="translate(1000 0)"/>
<use href="#path6" transform="translate(1500 0)"/>
<use href="#path13" transform="translate(2000 0)"/>
<use href="#path1" transform="translate(2500 0)"/>
</g>
</g>
<g>
<g data-source-text="" fill="#dee4e3" transform="translate(156 262.584) rotate(0) scale(0.047999997)">
<use href="#path51" transform="translate(0 0)"/>
</g>
</g>
<g>
<g data-source-text="" fill="#dee4e3" transform="translate(228 262.584) rotate(0) scale(0.047999997)">
<use href="#path52" transform="translate(0 0)"/>
</g>
</g>
<g>
<g data-source-text="" fill="#dee4e3" transform="translate(300 262.584) rotate(0) scale(0.047999997)">
<use href="#path53" transform="translate(0 0)"/>
</g>
</g>
<g>
<g data-source-text="" fill="#dee4e3" transform="translate(372 262.584) rotate(0) scale(0.047999997)">
<use href="#path54" transform="translate(0 0)"/>
</g>
</g>
<g>
<g data-source-text="" fill="#dee4e3" transform="translate(444 262.584) rotate(0) scale(0.047999997)">
<use href="#path55" transform="translate(0 0)"/>
</g>
</g>
<g>
<g data-source-text="" fill="#dee4e3" transform="translate(516 262.584) rotate(0) scale(0.047999997)">
<use href="#path56" transform="translate(0 0)"/>
</g>
</g>
<g>
<g data-source-text="" fill="#dee4e3" transform="translate(588 262.584) rotate(0) scale(0.047999997)">
<use href="#path57" transform="translate(0 0)"/>
</g>
</g>
<g>
<g data-source-text="" fill="#dee4e3" transform="translate(660 262.584) rotate(0) scale(0.047999997)">
<use href="#path58" transform="translate(0 0)"/>
</g>
</g>
<g>
<g data-source-text="" fill="#dee4e3" transform="translate(732 262.584) rotate(0) scale(0.047999997)">
<use href="#path59" transform="translate(0 0)"/>
</g>
</g>
<g>
<g data-source-text="" fill="#dee4e3" transform="translate(804 262.584) rotate(0) scale(0.047999997)">
<use href="#path60" transform="translate(0 0)"/>
</g>
</g>
<g>
<g data-source-text="" fill="#dee4e3" transform="translate(876 262.584) rotate(0) scale(0.047999997)">
<use href="#path61" transform="translate(0 0)"/>
</g>
</g>
<g>
<g data-source-text="" fill="#dee4e3" transform="translate(948 262.584) rotate(0) scale(0.047999997)">
<use href="#path62" transform="translate(0 0)"/>
</g>
</g>
<g>
<g data-source-text="" fill="#dee4e3" transform="translate(1032 262.584) rotate(0) scale(0.047999997)">
<use href="#path63" transform="translate(0 0)"/>
</g>
</g>
<g>
<g data-source-text="" fill="#dee4e3" transform="translate(1092 262.584) rotate(0) scale(0.047999997)">
<use href="#path64" transform="translate(0 0)"/>
</g>
</g>
<g>
<g data-source-text="" fill="#dee4e3" transform="translate(1164 262.584) rotate(0) scale(0.047999997)">
<use href="#path65" transform="translate(0 0)"/>
</g>
</g>
<g>
<g data-source-text="" fill="#dee4e3" transform="translate(1236 262.584) rotate(0) scale(0.047999997)">
<use href="#path66" transform="translate(0 0)"/>
</g>
</g>
<g>
<g data-source-text="U+25D0" fill="#dee4e3" transform="translate(36 329.292) rotate(0) scale(0.023999998)">
<use href="#path17" transform="translate(0 0)"/>
<use href="#path18" transform="translate(500 0)"/>
<use href="#path3" transform="translate(1000 0)"/>
<use href="#path6" transform="translate(1500 0)"/>
<use href="#path14" transform="translate(2000 0)"/>
<use href="#path1" transform="translate(2500 0)"/>
</g>
</g>
<g>
<g data-source-text="" fill="#dee4e3" transform="translate(156 334.584) rotate(0) scale(0.047999997)">
<use href="#path67" transform="translate(0 0)"/>
</g>
</g>
<g>
<g data-source-text="" fill="#dee4e3" transform="translate(228 334.584) rotate(0) scale(0.047999997)">
<use href="#path68" transform="translate(0 0)"/>
</g>
</g>
<g>
<g data-source-text="" fill="#dee4e3" transform="translate(300 334.584) rotate(0) scale(0.047999997)">
<use href="#path69" transform="translate(0 0)"/>
</g>
</g>
<g>
<g data-source-text="" fill="#dee4e3" transform="translate(372 334.584) rotate(0) scale(0.047999997)">
<use href="#path70" transform="translate(0 0)"/>
</g>
</g>
<g>
<g data-source-text="" fill="#dee4e3" transform="translate(444 334.584) rotate(0) scale(0.047999997)">
<use href="#path71" transform="translate(0 0)"/>
</g>
</g>
<g>
<g data-source-text="" fill="#dee4e3" transform="translate(516 334.584) rotate(0) scale(0.047999997)">
<use href="#path72" transform="translate(0 0)"/>
</g>
</g>
<g>
<g data-source-text="" fill="#dee4e3" transform="translate(588 334.584) rotate(0) scale(0.047999997)">
<use href="#path73" transform="translate(0 0)"/>
</g>
</g>
<g>
<g data-source-text="" fill="#dee4e3" transform="translate(660 334.584) rotate(0) scale(0.047999997)">
<use href="#path74" transform="translate(0 0)"/>
</g>
</g>
<g>
<g data-source-text="" fill="#dee4e3" transform="translate(732 334.584) rotate(0) scale(0.047999997)">
<use href="#path75" transform="translate(0 0)"/>
</g>
</g>
<g>
<g data-source-text="" fill="#dee4e3" transform="translate(804 334.584) rotate(0) scale(0.047999997)">
<use href="#path76" transform="translate(0 0)"/>
</g>
</g>
<g>
<g data-source-text="" fill="#dee4e3" transform="translate(876 334.584) rotate(0) scale(0.047999997)">
<use href="#path77" transform="translate(0 0)"/>
</g>
</g>
<g>
<g data-source-text="" fill="#dee4e3" transform="translate(948 334.584) rotate(0) scale(0.047999997)">
<use href="#path78" transform="translate(0 0)"/>
</g>
</g>
<g>
<g data-source-text="" fill="#dee4e3" transform="translate(1020 334.584) rotate(0) scale(0.047999997)">
<use href="#path79" transform="translate(0 0)"/>
</g>
</g>
<g>
<g data-source-text="" fill="#dee4e3" transform="translate(1092 334.584) rotate(0) scale(0.047999997)">
<use href="#path80" transform="translate(0 0)"/>
</g>
</g>
<g>
<g data-source-text="" fill="#dee4e3" transform="translate(1164 334.584) rotate(0) scale(0.047999997)">
<use href="#path81" transform="translate(0 0)"/>
</g>
</g>
<g>
<g data-source-text="" fill="#dee4e3" transform="translate(1236 334.584) rotate(0) scale(0.047999997)">
<use href="#path82" transform="translate(0 0)"/>
</g>
</g>
<g>
<g data-source-text="U+25E0" fill="#dee4e3" transform="translate(36 401.292) rotate(0) scale(0.023999998)">
<use href="#path17" transform="translate(0 0)"/>
<use href="#path18" transform="translate(500 0)"/>
<use href="#path3" transform="translate(1000 0)"/>
<use href="#path6" transform="translate(1500 0)"/>
<use href="#path15" transform="translate(2000 0)"/>
<use href="#path1" transform="translate(2500 0)"/>
</g>
</g>
<g>
<g data-source-text="" fill="#dee4e3" transform="translate(156 406.584) rotate(0) scale(0.047999997)">
<use href="#path83" transform="translate(0 0)"/>
</g>
</g>
<g>
<g data-source-text="" fill="#dee4e3" transform="translate(228 406.584) rotate(0) scale(0.047999997)">
<use href="#path84" transform="translate(0 0)"/>
</g>
</g>
<g>
<g data-source-text="" fill="#dee4e3" transform="translate(300 406.584) rotate(0) scale(0.047999997)">
<use href="#path85" transform="translate(0 0)"/>
</g>
</g>
<g>
<g data-source-text="" fill="#dee4e3" transform="translate(372 406.584) rotate(0) scale(0.047999997)">
<use href="#path86" transform="translate(0 0)"/>
</g>
</g>
<g>
<g data-source-text="" fill="#dee4e3" transform="translate(444 406.584) rotate(0) scale(0.047999997)">
<use href="#path87" transform="translate(0 0)"/>
</g>
</g>
<g>
<g data-source-text="" fill="#dee4e3" transform="translate(516 406.584) rotate(0) scale(0.047999997)">
<use href="#path88" transform="translate(0 0)"/>
</g>
</g>
<g>
<g data-source-text="" fill="#dee4e3" transform="translate(600 406.584) rotate(0) scale(0.047999997)">
<use href="#path89" transform="translate(0 0)"/>
</g>
</g>
<g>
<g data-source-text="" fill="#dee4e3" transform="translate(660 406.584) rotate(0) scale(0.047999997)">
<use href="#path90" transform="translate(0 0)"/>
</g>
</g>
<g>
<g data-source-text="" fill="#dee4e3" transform="translate(732 406.584) rotate(0) scale(0.047999997)">
<use href="#path91" transform="translate(0 0)"/>
</g>
</g>
<g>
<g data-source-text="" fill="#dee4e3" transform="translate(804 406.584) rotate(0) scale(0.047999997)">
<use href="#path92" transform="translate(0 0)"/>
</g>
</g>
<g>
<g data-source-text="" fill="#dee4e3" transform="translate(876 406.584) rotate(0) scale(0.047999997)">
<use href="#path93" transform="translate(0 0)"/>
</g>
</g>
<g>
<g data-source-text="" fill="#dee4e3" transform="translate(948 406.584) rotate(0) scale(0.047999997)">
<use href="#path94" transform="translate(0 0)"/>
</g>
</g>
<g>
<g data-source-text="" fill="#dee4e3" transform="translate(1020 406.584) rotate(0) scale(0.047999997)">
<use href="#path95" transform="translate(0 0)"/>
</g>
</g>
<g>
<g data-source-text="" fill="#dee4e3" transform="translate(1092 406.584) rotate(0) scale(0.047999997)">
<use href="#path96" transform="translate(0 0)"/>
</g>
</g>
<g>
<g data-source-text="" fill="#dee4e3" transform="translate(1164 406.584) rotate(0) scale(0.047999997)">
<use href="#path97" transform="translate(0 0)"/>
</g>
</g>
<g>
<g data-source-text="" fill="#dee4e3" transform="translate(1236 406.584) rotate(0) scale(0.047999997)">
<use href="#path98" transform="translate(0 0)"/>
</g>
</g>
<g>
<g data-source-text="U+25F0" fill="#dee4e3" transform="translate(36 473.292) rotate(0) scale(0.023999998)">
<use href="#path17" transform="translate(0 0)"/>
<use href="#path18" transform="translate(500 0)"/>
<use href="#path3" transform="translate(1000 0)"/>
<use href="#path6" transform="translate(1500 0)"/>
<use href="#path16" transform="translate(2000 0)"/>
<use href="#path1" transform="translate(2500 0)"/>
</g>
</g>
<g>
<g data-source-text="" fill="#dee4e3" transform="translate(156 478.584) rotate(0) scale(0.047999997)">
<use href="#path99" transform="translate(0 0)"/>
</g>
</g>
<g>
<g data-source-text="" fill="#dee4e3" transform="translate(228 478.584) rotate(0) scale(0.047999997)">
<use href="#path100" transform="translate(0 0)"/>
</g>
</g>
<g>
<g data-source-text="" fill="#dee4e3" transform="translate(300 478.584) rotate(0) scale(0.047999997)">
<use href="#path101" transform="translate(0 0)"/>
</g>
</g>
<g>
<g data-source-text="" fill="#dee4e3" transform="translate(372 478.584) rotate(0) scale(0.047999997)">
<use href="#path102" transform="translate(0 0)"/>
</g>
</g>
<g>
<g data-source-text="" fill="#dee4e3" transform="translate(444 478.584) rotate(0) scale(0.047999997)">
<use href="#path103" transform="translate(0 0)"/>
</g>
</g>
<g>
<g data-source-text="" fill="#dee4e3" transform="translate(516 478.584) rotate(0) scale(0.047999997)">
<use href="#path104" transform="translate(0 0)"/>
</g>
</g>
<g>
<g data-source-text="" fill="#dee4e3" transform="translate(588 478.584) rotate(0) scale(0.047999997)">
<use href="#path105" transform="translate(0 0)"/>
</g>
</g>
<g>
<g data-source-text="" fill="#dee4e3" transform="translate(660 478.584) rotate(0) scale(0.047999997)">
<use href="#path106" transform="translate(0 0)"/>
</g>
</g>
<g>
<g data-source-text="" fill="#dee4e3" transform="translate(732 478.584) rotate(0) scale(0.047999997)">
<use href="#path107" transform="translate(0 0)"/>
</g>
</g>
<g>
<g data-source-text="" fill="#dee4e3" transform="translate(804 478.584) rotate(0) scale(0.047999997)">
<use href="#path108" transform="translate(0 0)"/>
</g>
</g>
<g>
<g data-source-text="" fill="#dee4e3" transform="translate(876 478.584) rotate(0) scale(0.047999997)">
<use href="#path109" transform="translate(0 0)"/>
</g>
</g>
<g>
<g data-source-text="" fill="#dee4e3" transform="translate(948 478.584) rotate(0) scale(0.047999997)">
<use href="#path110" transform="translate(0 0)"/>
</g>
</g>
<g>
<g data-source-text="" fill="#dee4e3" transform="translate(1020 478.584) rotate(0) scale(0.047999997)">
<use href="#path111" transform="translate(0 0)"/>
</g>
</g>
<g>
<g data-source-text="" fill="#dee4e3" transform="translate(1092 478.584) rotate(0) scale(0.047999997)">
<use href="#path112" transform="translate(0 0)"/>
</g>
</g>
<g>
<g data-source-text="" fill="#dee4e3" transform="translate(1164 478.584) rotate(0) scale(0.047999997)">
<use href="#path113" transform="translate(0 0)"/>
</g>
</g>
<g>
<g data-source-text="" fill="#dee4e3" transform="translate(1236 478.584) rotate(0) scale(0.047999997)">
<use href="#path114" transform="translate(0 0)"/>
</g>
</g>
</svg>