<?xml version="1.0" encoding="UTF-8" standalone="no"?>
<svg height="216" viewBox="0 0 1296 216" width="1296" xmlns="http://www.w3.org/2000/svg">
<defs>
<path d="M 250 8 Q 223 8 196 3 Q 169 -2 145 -15 Q 121 -28 102.5 -48.5 Q 84 -69 72.5 -94 Q 61 -119 56.5 -146 Q 52 -173 52 -200 L 52 -535 Q 52 -562 56.5 -589 Q 61 -616 72.5 -641 Q 84 -666 102.5 -686.5 Q 121 -707 145 -720 Q 169 -733 196 -738 Q 223 -743 250 -743 Q 277 -743 304 -738 Q 331 -733 355 -720 Q 379 -707 397.5 -686.5 Q 416 -666 427.5 -641 Q 439 -616 443.5 -589 Q 448 -562 448 -535 L 448 -200 Q 448 -173 443.5 -146 Q 439 -119 427.5 -94 Q 416 -69 397.5 -48.5 Q 379 -28 355 -15 Q 331 -2 304 3 Q 277 8 250 8 Z M 153 -337 L 347 -491 L 347 -535 Q 347 -557 342.5 -578.5 Q 338 -600 325.5 -618 Q 313 -636 292.5 -645.5 Q 272 -655 250 -655 Q 228 -655 207.5 -645.5 Q 187 -636 174.5 -618 Q 162 -600 157.5 -578.5 Q 153 -557 153 -535 Z M 250 -80 Q 272 -80 292.5 -89.5 Q 313 -99 325.5 -117 Q 338 -135 342.5 -156.5 Q 347 -178 347 -200 L 347 -398 L 153 -244 L 153 -200 Q 153 -178 157.5 -156.5 Q 162 -135 174.5 -117 Q 187 -99 207.5 -89.5 Q 228 -80 250 -80 Z " id="path1"/>
<path d="M 230 0 L 230 -631 L 110 -528 L 55 -584 L 230 -735 L 330 -735 L 330 0 Z " id="path2"/>
<path d="M 440 0 L 60 0 L 60 -1 Q 60 -27 61 -53.5 Q 62 -80 66 -106.5 Q 70 -133 77.5 -158.5 Q 85 -184 96.5 -207.5 Q 108 -231 123 -253 Q 138 -275 156 -294.5 Q 174 -314 194 -331 Q 214 -348 235.5 -364 Q 257 -380 277.5 -397 Q 298 -414 313 -435.5 Q 328 -457 335.5 -483 Q 343 -509 343 -535 Q 343 -557 339 -578 Q 335 -599 323.5 -617 Q 312 -635 292 -645 Q 272 -655 251 -655 Q 231 -655 212.5 -647.5 Q 194 -640 182 -625 Q 170 -610 164.5 -591 Q 159 -572 159 -552 L 159 -548 L 58 -548 L 58 -555 Q 58 -581 64 -605.5 Q 70 -630 81.5 -652.5 Q 93 -675 111.5 -693 Q 130 -711 152.5 -722.5 Q 175 -734 200.5 -738.5 Q 226 -743 251 -743 Q 278 -743 304.5 -737.5 Q 331 -732 354.5 -719 Q 378 -706 396 -685.5 Q 414 -665 424.5 -640.5 Q 435 -616 439.5 -589 Q 444 -562 444 -535 Q 444 -501 435 -468 Q 426 -435 407.5 -406 Q 389 -377 364 -353.5 Q 339 -330 312.5 -308.5 Q 286 -287 261 -264 Q 236 -241 216.5 -213 Q 197 -185 184 -153.5 Q 171 -122 166 -88 L 440 -88 Z " id="path3"/>
<path d="M 253 8 Q 227 8 201 4 Q 175 -0 151.5 -11.5 Q 128 -23 108.5 -40.5 Q 89 -58 76 -81 Q 63 -104 56.5 -129.5 Q 50 -155 50 -181 L 50 -187 L 151 -187 L 151 -184 Q 151 -163 157.5 -143 Q 164 -123 178 -108 Q 192 -93 212 -86.5 Q 232 -80 253 -80 Q 275 -80 296 -88.5 Q 317 -97 330.5 -114.5 Q 344 -132 349.5 -154 Q 355 -176 355 -198 Q 355 -217 351 -235.5 Q 347 -254 338.5 -271 Q 330 -288 316.5 -301 Q 303 -314 286 -322 Q 269 -330 250 -332 Q 231 -334 212 -334 L 212 -422 Q 229 -422 246 -424 Q 263 -426 278.5 -433 Q 294 -440 306 -452.5 Q 318 -465 325.5 -480.5 Q 333 -496 336 -513 Q 339 -530 339 -547 Q 339 -566 334.5 -585.5 Q 330 -605 319.5 -621 Q 309 -637 291 -646 Q 273 -655 253 -655 Q 234 -655 216.5 -647 Q 199 -639 187.5 -624 Q 176 -609 171.5 -590 Q 167 -571 167 -553 L 167 -548 L 66 -548 L 66 -556 Q 66 -581 71.5 -605.5 Q 77 -630 88 -652 Q 99 -674 117 -692.5 Q 135 -711 157 -722.5 Q 179 -734 203.5 -738.5 Q 228 -743 253 -743 Q 278 -743 303.5 -738 Q 329 -733 351 -721 Q 373 -709 390 -690 Q 407 -671 418 -648 Q 429 -625 434.5 -600 Q 440 -575 440 -550 Q 440 -524 434 -498.5 Q 428 -473 415.5 -450.5 Q 403 -428 384.5 -409.5 Q 366 -391 343 -379 Q 369 -368 390.5 -348.5 Q 412 -329 427 -304.5 Q 442 -280 449 -252 Q 456 -224 456 -196 Q 456 -168 450 -141.5 Q 444 -115 432 -91 Q 420 -67 401 -47 Q 382 -27 358 -14.5 Q 334 -2 307 3 Q 280 8 253 8 Z " id="path4"/>
<path d="M 282 0 L 282 -188 L 52 -188 L 52 -275 L 276 -735 L 385 -735 L 161 -275 L 282 -275 L 282 -435 L 382 -435 L 382 -275 L 440 -275 L 440 -188 L 382 -188 L 382 0 Z " id="path5"/>
<path d="M 252 8 Q 227 8 202.5 3.5 Q 178 -1 155.5 -12 Q 133 -23 115 -41 Q 97 -59 85 -80.5 Q 73 -102 66.5 -126.5 Q 60 -151 59 -176 L 159 -176 Q 161 -158 167 -139.5 Q 173 -121 185.5 -107 Q 198 -93 216 -86.5 Q 234 -80 252 -80 Q 269 -80 285 -87 Q 301 -94 312 -107 Q 323 -120 330 -135.5 Q 337 -151 340.5 -168 Q 344 -185 345.5 -202 Q 347 -219 347 -236 Q 347 -252 346 -269 Q 345 -286 341 -302 Q 337 -318 331 -334 Q 325 -350 314 -363 Q 303 -376 287.5 -383.5 Q 272 -391 256 -391 Q 240 -391 224.5 -387 Q 209 -383 196 -373.5 Q 183 -364 176 -349.5 Q 169 -335 168 -319 L 68 -319 L 68 -735 L 421 -735 L 421 -647 L 168 -647 L 168 -464 Q 189 -472 211 -475 Q 233 -478 256 -478 Q 285 -478 313.5 -470.5 Q 342 -463 365.5 -445.5 Q 389 -428 405.5 -403 Q 422 -378 431.5 -350.5 Q 441 -323 444.5 -294 Q 448 -265 448 -235 Q 448 -206 444 -176.5 Q 440 -147 430.5 -119 Q 421 -91 404 -66.5 Q 387 -42 363.5 -24.5 Q 340 -7 311 0.5 Q 282 8 252 8 Z " id="path6"/>
<path d="M 250 8 Q 221 8 192.5 1.5 Q 164 -5 140 -21 Q 116 -37 98.5 -60.5 Q 81 -84 70.5 -111 Q 60 -138 56 -166.5 Q 52 -195 52 -224 Q 52 -268 60 -311 Q 68 -354 81.5 -395.5 Q 95 -437 113 -477 Q 131 -517 150 -556 L 238 -735 L 347 -735 L 240 -517 Q 228 -493 216.5 -468.5 Q 205 -444 195 -419 Q 214 -438 239 -447 Q 264 -456 291 -456 Q 317 -456 342.5 -447 Q 368 -438 386.5 -419.5 Q 405 -401 417 -377.5 Q 429 -354 436 -328.5 Q 443 -303 445.5 -276.5 Q 448 -250 448 -224 Q 448 -195 444 -166.5 Q 440 -138 429.5 -111 Q 419 -84 401.5 -60.5 Q 384 -37 360 -21 Q 336 -5 307.5 1.5 Q 279 8 250 8 Z M 250 -80 Q 266 -80 282 -85.5 Q 298 -91 309.5 -102.5 Q 321 -114 328.5 -129 Q 336 -144 340 -159.5 Q 344 -175 345.5 -191.5 Q 347 -208 347 -224 Q 347 -240 345.5 -256.5 Q 344 -273 340 -289 Q 336 -305 328.5 -319.5 Q 321 -334 309.5 -345.5 Q 298 -357 282 -362.5 Q 266 -368 250 -368 Q 235 -368 221 -363.5 Q 207 -359 195.5 -349.5 Q 184 -340 176.5 -327.5 Q 169 -315 164 -301 Q 159 -287 156.5 -272.5 Q 154 -258 153 -243 L 153 -224 Q 153 -208 154.5 -191.5 Q 156 -175 160 -159.5 Q 164 -144 171.5 -129 Q 179 -114 190.5 -102.5 Q 202 -91 218 -85.5 Q 234 -80 250 -80 Z " id="path7"/>
<path d="M 242 0 L 138 0 L 336 -647 L 60 -647 L 60 -735 L 440 -735 L 440 -647 Z " id="path8"/>
<path d="M 250 8 Q 225 8 200 4 Q 175 -0 152 -10 Q 129 -20 109.5 -37 Q 90 -54 77.5 -75.5 Q 65 -97 58.5 -121.5 Q 52 -146 52 -172 Q 52 -203 62 -232.5 Q 72 -262 88.5 -288 Q 105 -314 127 -336 Q 149 -358 174 -378 Q 152 -396 132.5 -417 Q 113 -438 98.5 -462.5 Q 84 -487 76 -514.5 Q 68 -542 68 -570 Q 68 -594 73.5 -617 Q 79 -640 90.5 -661 Q 102 -682 119.5 -698.5 Q 137 -715 158 -725 Q 179 -735 202.5 -739 Q 226 -743 250 -743 Q 274 -743 297.5 -739 Q 321 -735 342 -725 Q 363 -715 380.5 -698.5 Q 398 -682 409.5 -661 Q 421 -640 426.5 -617 Q 432 -594 432 -570 Q 432 -542 424 -514.5 Q 416 -487 401.5 -462.5 Q 387 -438 367.5 -417 Q 348 -396 326 -378 Q 351 -358 373 -336 Q 395 -314 411.5 -288 Q 428 -262 438 -232.5 Q 448 -203 448 -172 Q 448 -146 441.5 -121.5 Q 435 -97 422.5 -75.5 Q 410 -54 390.5 -37 Q 371 -20 348 -10 Q 325 -0 300 4 Q 275 8 250 8 Z M 250 -435 Q 266 -447 280.5 -461.5 Q 295 -476 306.5 -493 Q 318 -510 325 -529.5 Q 332 -549 332 -569 Q 332 -586 326.5 -602.5 Q 321 -619 310 -631.5 Q 299 -644 283 -649.5 Q 267 -655 250 -655 Q 233 -655 217 -649.5 Q 201 -644 190 -631.5 Q 179 -619 173.5 -602.5 Q 168 -586 168 -569 Q 168 -549 175 -529.5 Q 182 -510 193.5 -493 Q 205 -476 219.5 -461.5 Q 234 -447 250 -435 Z M 250 -80 Q 269 -80 287.5 -85.5 Q 306 -91 320 -104 Q 334 -117 340.5 -135.5 Q 347 -154 347 -173 Q 347 -196 338.5 -217.5 Q 330 -239 316.5 -257.5 Q 303 -276 285.5 -291 Q 268 -306 250 -320 Q 232 -306 214.5 -291 Q 197 -276 183.5 -257.5 Q 170 -239 161.5 -217.5 Q 153 -196 153 -173 Q 153 -154 159.5 -135.5 Q 166 -117 180 -104 Q 194 -91 212.5 -85.5 Q 231 -80 250 -80 Z " id="path9"/>
<path d="M 262 0 L 153 0 L 260 -218 Q 272 -242 283.5 -266.5 Q 295 -291 305 -316 Q 286 -297 261 -288 Q 236 -279 209 -279 Q 183 -279 157.5 -288 Q 132 -297 113.5 -315.5 Q 95 -334 83 -357.5 Q 71 -381 64 -406.5 Q 57 -432 54.5 -458.5 Q 52 -485 52 -511 Q 52 -540 56 -568.5 Q 60 -597 70.5 -624 Q 81 -651 98.5 -674.5 Q 116 -698 140 -714 Q 164 -730 192.5 -736.5 Q 221 -743 250 -743 Q 279 -743 307.5 -736.5 Q 336 -730 360 -714 Q 384 -698 401.5 -674.5 Q 419 -651 429.5 -624 Q 440 -597 444 -568.5 Q 448 -540 448 -511 Q 448 -467 440 -424 Q 432 -381 418.5 -339.5 Q 405 -298 387 -258 Q 369 -218 350 -179 Z M 250 -367 Q 265 -367 279 -371.5 Q 293 -376 304.5 -385.5 Q 316 -395 323.5 -407.5 Q 331 -420 336 -434 Q 341 -448 343.5 -462.5 Q 346 -477 347 -492 L 347 -511 Q 347 -527 345.5 -543.5 Q 344 -560 340 -575.5 Q 336 -591 328.5 -606 Q 321 -621 309.5 -632.5 Q 298 -644 282 -649.5 Q 266 -655 250 -655 Q 234 -655 218 -649.5 Q 202 -644 190.5 -632.5 Q 179 -621 171.5 -606 Q 164 -591 160 -575.5 Q 156 -560 154.5 -543.5 Q 153 -527 153 -511 Q 153 -495 154.5 -478.5 Q 156 -462 160 -446 Q 164 -430 171.5 -415.5 Q 179 -401 190.5 -389.5 Q 202 -378 218 -372.5 Q 234 -367 250 -367 Z " id="path10"/>
<path d="M 39 0 L 192 -735 L 308 -735 L 461 0 L 358 0 L 326 -172 L 174 -172 L 142 0 Z M 309 -260 L 265 -490 Q 262 -511 258 -531.5 Q 254 -552 250 -572 Q 246 -552 242 -531.5 Q 238 -511 235 -490 L 191 -260 Z " id="path11"/>
<path d="M 60 0 L 60 -735 L 234 -735 Q 261 -735 287 -730.5 Q 313 -726 336 -714 Q 359 -702 377.5 -682.5 Q 396 -663 408 -639.5 Q 420 -616 424.5 -590 Q 429 -564 429 -538 Q 429 -515 425 -492 Q 421 -469 410.5 -448.5 Q 400 -428 383.5 -411 Q 367 -394 347 -383 Q 372 -373 393.5 -355.5 Q 415 -338 429.5 -314.5 Q 444 -291 450 -264 Q 456 -237 456 -210 Q 456 -181 450 -152.5 Q 444 -124 430 -98.5 Q 416 -73 394.5 -53.5 Q 373 -34 347 -21.5 Q 321 -9 292 -4.5 Q 263 -0 234 0 Z M 161 -424 L 234 -424 Q 255 -424 274.5 -432.5 Q 294 -441 306.5 -457.5 Q 319 -474 324 -494.5 Q 329 -515 329 -536 Q 329 -557 324 -577.5 Q 319 -598 306.5 -614.5 Q 294 -631 274.5 -639 Q 255 -647 234 -647 L 161 -647 Z M 161 -88 L 234 -88 Q 251 -88 267 -91 Q 283 -94 297.5 -101.5 Q 312 -109 323.5 -121 Q 335 -133 342.5 -148 Q 350 -163 352.5 -179 Q 355 -195 355 -212 Q 355 -228 352.5 -244.5 Q 350 -261 343 -276 Q 336 -291 324.5 -303 Q 313 -315 298 -322.5 Q 283 -330 267 -333 Q 251 -336 234 -336 L 161 -336 Z " id="path12"/>
<path d="M 247 8 Q 220 8 193 2.5 Q 166 -3 142.5 -16 Q 119 -29 101 -49.5 Q 83 -70 72 -94.5 Q 61 -119 56.5 -146 Q 52 -173 52 -200 L 52 -535 Q 52 -562 56.5 -589 Q 61 -616 72 -640.5 Q 83 -665 101 -685.5 Q 119 -706 142.5 -719 Q 166 -732 193 -737.5 Q 220 -743 247 -743 Q 273 -743 298 -738.5 Q 323 -734 346 -723 Q 369 -712 387.5 -694 Q 406 -676 418 -653.5 Q 430 -631 436 -606 Q 442 -581 442 -555 L 442 -548 L 341 -548 L 341 -552 Q 341 -572 335.5 -591.5 Q 330 -611 317.5 -626 Q 305 -641 286 -648 Q 267 -655 247 -655 Q 225 -655 205 -645.5 Q 185 -636 173 -618 Q 161 -600 157 -578.5 Q 153 -557 153 -535 L 153 -200 Q 153 -178 157 -156.5 Q 161 -135 173 -117 Q 185 -99 205 -89.5 Q 225 -80 247 -80 Q 267 -80 286 -87 Q 305 -94 317.5 -109 Q 330 -124 335.5 -143.5 Q 341 -163 341 -183 L 341 -187 L 442 -187 L 442 -180 Q 442 -154 436 -129 Q 430 -104 418 -81.5 Q 406 -59 387.5 -41 Q 369 -23 346 -12 Q 323 -1 298 3.5 Q 273 8 247 8 Z " id="path13"/>
<path d="M 60 0 L 60 -735 L 219 -735 Q 249 -735 279 -730 Q 309 -725 336.5 -712 Q 364 -699 386 -678.5 Q 408 -658 422 -631.5 Q 436 -605 442 -575 Q 448 -545 448 -515 L 448 -220 Q 448 -190 442 -160 Q 436 -130 422 -103.5 Q 408 -77 386 -56.5 Q 364 -36 336.5 -23 Q 309 -10 279 -5 Q 249 -0 219 0 Z M 161 -88 L 219 -88 Q 237 -88 254 -91 Q 271 -94 286.5 -102.5 Q 302 -111 314 -124 Q 326 -137 333.5 -152.5 Q 341 -168 344 -185.5 Q 347 -203 347 -220 L 347 -515 Q 347 -532 344 -549.5 Q 341 -567 333.5 -582.5 Q 326 -598 314 -611 Q 302 -624 286.5 -632.5 Q 271 -641 254 -644 Q 237 -647 219 -647 L 161 -647 Z " id="path14"/>
<path d="M 68 0 L 68 -735 L 440 -735 L 440 -647 L 169 -647 L 169 -426 L 383 -426 L 383 -338 L 169 -338 L 169 -88 L 440 -88 L 440 0 Z " id="path15"/>
<path d="M 91 0 L 91 -735 L 440 -735 L 440 -647 L 191 -647 L 191 -426 L 383 -426 L 383 -338 L 191 -338 L 191 0 Z " id="path16"/>
<path d="M 250 8 Q 223 8 196.5 2.5 Q 170 -3 147 -16.5 Q 124 -30 106.5 -50.5 Q 89 -71 78.5 -95.5 Q 68 -120 64 -146.5 Q 60 -173 60 -200 L 60 -735 L 161 -735 L 161 -200 Q 161 -186 162.5 -172 Q 164 -158 168 -144.5 Q 172 -131 179.5 -118.5 Q 187 -106 197.5 -97 Q 208 -88 222 -84 Q 236 -80 250 -80 Q 264 -80 278 -84 Q 292 -88 302.5 -97 Q 313 -106 320.5 -118.5 Q 328 -131 332 -144.5 Q 336 -158 337.5 -172 Q 339 -186 339 -200 L 339 -735 L 440 -735 L 440 -200 Q 440 -173 436 -146.5 Q 432 -120 421.5 -95.5 Q 411 -71 393.5 -50.5 Q 376 -30 353 -16.5 Q 330 -3 303.5 2.5 Q 277 8 250 8 Z " id="path17"/>
<path d="M 300 -143 L 200 -143 L 200 -296 L 60 -296 L 60 -384 L 200 -384 L 200 -537 L 300 -537 L 300 -384 L 440 -384 L 440 -296 L 300 -296 Z " id="path18"/>
<path d="M 250 -526 Q 240 -526 233 -533 Q 226 -540 226 -550 Q 226 -560 233 -567 Q 240 -574 250 -574 Q 260 -574 267 -567 Q 274 -560 274 -550 Q 274 -540 267 -533 Q 260 -526 250 -526 Z M 145 -498 Q 135 -498 128 -505 Q 121 -512 121 -522 Q 121 -531 128 -538.5 Q 135 -546 145 -546 Q 155 -546 162 -538.5 Q 169 -531 169 -522 Q 169 -512 162 -505 Q 155 -498 145 -498 Z M 355 -498 Q 345 -498 338 -505 Q 331 -512 331 -522 Q 331 -531 338 -538.5 Q 345 -546 355 -546 Q 365 -546 372 -538.5 Q 379 -531 379 -522 Q 379 -512 372 -505 Q 365 -498 355 -498 Z M 68 -421 Q 59 -421 51.5 -428 Q 44 -435 44 -445 Q 44 -455 51.5 -462 Q 59 -469 68 -469 Q 78 -469 85 -462 Q 92 -455 92 -445 Q 92 -435 85 -428 Q 78 -421 68 -421 Z M 432 -421 Q 422 -421 415 -428 Q 408 -435 408 -445 Q 408 -455 415 -462 Q 422 -469 432 -469 Q 441 -469 448.5 -462 Q 456 -455 456 -445 Q 456 -435 448.5 -428 Q 441 -421 432 -421 Z M 40 -316 Q 30 -316 23 -323 Q 16 -330 16 -340 Q 16 -350 23 -357 Q 30 -364 40 -364 Q 50 -364 57 -357 Q 64 -350 64 -340 Q 64 -330 57 -323 Q 50 -316 40 -316 Z M 460 -316 Q 450 -316 443 -323 Q 436 -330 436 -340 Q 436 -350 443 -357 Q 450 -364 460 -364 Q 470 -364 477 -357 Q 484 -350 484 -340 Q 484 -330 477 -323 Q 470 -316 460 -316 Z M 432 -211 Q 422 -211 415 -218 Q 408 -225 408 -235 Q 408 -245 415 -252 Q 422 -259 432 -259 Q 441 -259 448.5 -252 Q 456 -245 456 -235 Q 456 -225 448.5 -218 Q 441 -211 432 -211 Z M 68 -211 Q 59 -211 51.5 -218 Q 44 -225 44 -235 Q 44 -245 51.5 -252 Q 59 -259 68 -259 Q 78 -259 85 -252 Q 92 -245 92 -235 Q 92 -225 85 -218 Q 78 -211 68 -211 Z M 355 -134 Q 345 -134 338 -141.5 Q 331 -149 331 -158 Q 331 -168 338 -175 Q 345 -182 355 -182 Q 365 -182 372 -175 Q 379 -168 379 -158 Q 379 -149 372 -141.5 Q 365 -134 355 -134 Z M 145 -134 Q 135 -134 128 -141.5 Q 121 -149 121 -158 Q 121 -168 128 -175 Q 135 -182 145 -182 Q 155 -182 162 -175 Q 169 -168 169 -158 Q 169 -149 162 -141.5 Q 155 -134 145 -134 Z M 250 -106 Q 240 -106 233 -113 Q 226 -120 226 -130 Q 226 -140 233 -147 Q 240 -154 250 -154 Q 260 -154 267 -147 Q 274 -140 274 -130 Q 274 -120 267 -113 Q 260 -106 250 -106 Z " id="path19"/>
<path d="M 64 0 L 64 -735 L 436 -735 L 436 0 Z M 94 -321 L 401 -705 L 308 -705 L 94 -438 Z M 94 -478 L 276 -705 L 182 -705 L 94 -595 Z M 94 -634 L 151 -705 L 94 -705 Z M 94 -165 L 406 -554 L 406 -671 L 94 -282 Z M 94 -30 L 111 -30 L 406 -398 L 406 -515 L 94 -126 Z M 143 -30 L 236 -30 L 406 -242 L 406 -359 Z M 268 -30 L 362 -30 L 406 -85 L 406 -202 Z M 393 -30 L 406 -30 L 406 -46 Z " id="path20"/>
<path d="M -250 -597 Q -266 -597 -281.5 -602 Q -297 -607 -308 -618.5 Q -319 -630 -323.5 -645.5 Q -328 -661 -328 -677 L -328 -772 Q -328 -791 -325 -809.5 Q -322 -828 -312 -843 Q -302 -858 -285 -866.5 Q -268 -875 -250 -878 Q -232 -881 -213.5 -884.5 Q -195 -888 -178 -894 L -178 -859 Q -189 -854 -201.5 -851 Q -214 -848 -227 -846.5 Q -240 -845 -252.5 -842 Q -265 -839 -274.5 -830.5 Q -284 -822 -288 -809.5 Q -292 -797 -292 -785 Q -292 -779 -291.5 -773 Q -291 -767 -291 -761 Q -288 -770 -282.5 -778 Q -277 -786 -269.5 -791.5 Q -262 -797 -253 -800 Q -244 -803 -234 -803 Q -220 -803 -207 -796 Q -194 -789 -186 -777 Q -178 -765 -175 -751 Q -172 -737 -172 -723 L -172 -677 Q -172 -661 -176.5 -645.5 Q -181 -630 -192 -618.5 Q -203 -607 -218.5 -602 Q -234 -597 -250 -597 Z M -250 -632 Q -242 -632 -233.5 -635 Q -225 -638 -220 -644.5 Q -215 -651 -213 -659.5 Q -211 -668 -211 -677 L -211 -723 Q -211 -731 -213 -739.5 Q -215 -748 -220 -754.5 Q -225 -761 -233.5 -764.5 Q -242 -768 -250 -768 Q -258 -768 -266.5 -764.5 Q -275 -761 -280 -754.5 Q -285 -748 -287 -739.5 Q -289 -731 -289 -723 L -289 -677 Q -289 -668 -287 -659.5 Q -285 -651 -280 -644.5 Q -275 -638 -266.5 -635 Q -258 -632 -250 -632 Z " id="path21"/>
<path d="M -324 -600 L -324 -808 L -248 -808 Q -235 -808 -222.5 -805 Q -210 -802 -200 -794.5 Q -190 -787 -185 -775 Q -180 -763 -180 -750 Q -180 -738 -186 -726.5 Q -192 -715 -203 -709 Q -195 -706 -188.5 -701.5 Q -182 -697 -177.5 -690.5 Q -173 -684 -171 -676.5 Q -169 -669 -169 -661 Q -169 -647 -175.5 -634 Q -182 -621 -194 -613.5 Q -206 -606 -220 -603 Q -234 -600 -248 -600 Z M -286 -725 L -248 -725 Q -243 -725 -237.5 -726 Q -232 -727 -227.5 -730.5 Q -223 -734 -220.5 -739 Q -218 -744 -218 -749 Q -218 -755 -220.5 -760 Q -223 -765 -227.5 -768 Q -232 -771 -237.5 -772 Q -243 -773 -248 -773 L -286 -773 Z M -286 -635 L -248 -635 Q -241 -635 -234 -636 Q -227 -637 -221 -640 Q -215 -643 -211.5 -649 Q -208 -655 -208 -662 Q -208 -669 -211.5 -675 Q -215 -681 -221 -684.5 Q -227 -688 -234 -689 Q -241 -690 -248 -690 L -286 -690 Z " id="path22"/>
<path d="M -312 -600 L -312 -808 L -172 -808 L -172 -773 L -273 -773 L -273 -600 Z " id="path23"/>
<path d="M -297 -600 L -336 -600 L -336 -696 L -324 -696 Q -314 -718 -311 -742.5 Q -308 -767 -308 -791 L -308 -869 L -182 -869 L -182 -696 L -164 -696 L -164 -600 L -203 -600 L -203 -661 L -297 -661 Z M -283 -696 L -220 -696 L -220 -835 L -269 -835 L -269 -791 Q -269 -767 -271.5 -743 Q -274 -719 -283 -696 Z " id="path24"/>
<path d="M -343 -600 L -310 -704 L -343 -808 L -307 -808 L -279 -720 L -267 -720 L -267 -808 L -233 -808 L -233 -720 L -221 -720 L -193 -808 L -157 -808 L -190 -704 L -157 -600 L -193 -600 L -221 -688 L -233 -688 L -233 -600 L -267 -600 L -267 -688 L -279 -688 L -307 -600 Z " id="path25"/>
<path d="M -249 -597 Q -263 -597 -276.5 -599.5 Q -290 -602 -301.5 -608.5 Q -313 -615 -320.5 -627 Q -328 -639 -328 -653 L -328 -654 L -290 -654 Q -290 -647 -285 -642.5 Q -280 -638 -274 -635.5 Q -268 -633 -261.5 -632.5 Q -255 -632 -249 -632 Q -242 -632 -234.5 -633 Q -227 -634 -221 -638 Q -215 -642 -211.5 -648.5 Q -208 -655 -208 -662 Q -208 -669 -212 -675.5 Q -216 -682 -222 -685.5 Q -228 -689 -235.5 -690 Q -243 -691 -250 -691 L -272 -691 L -272 -726 L -250 -726 Q -244 -726 -238 -726.5 Q -232 -727 -226.5 -730 Q -221 -733 -217.5 -738.5 Q -214 -744 -214 -750 Q -214 -757 -217 -762.5 Q -220 -768 -225 -771 Q -230 -774 -236.5 -775 Q -243 -776 -249 -776 Q -255 -776 -260.5 -775.5 Q -266 -775 -271 -772.5 Q -276 -770 -279.5 -765 Q -283 -760 -283 -755 L -283 -754 L -322 -754 L -322 -756 Q -322 -769 -315.5 -780.5 Q -309 -792 -298 -799 Q -287 -806 -274.5 -808.5 Q -262 -811 -249 -811 Q -235 -811 -222 -808 Q -209 -805 -198 -797.5 Q -187 -790 -181.5 -777 Q -176 -764 -176 -751 Q -176 -738 -183 -726.5 Q -190 -715 -202 -709 Q -195 -706 -188.5 -701.5 Q -182 -697 -177.5 -690.5 Q -173 -684 -171 -676.5 Q -169 -669 -169 -661 Q -169 -647 -175.5 -633.5 Q -182 -620 -194 -611.5 Q -206 -603 -220 -600 Q -234 -597 -249 -597 Z " id="path26"/>
<path d="M -318 -600 L -318 -808 L -280 -808 L -280 -721 L -263 -721 L -214 -808 L -171 -808 L -232 -704 L -171 -600 L -214 -600 L -263 -687 L -280 -687 L -280 -600 Z " id="path27"/>
<path d="M -344 -600 L -344 -635 Q -337 -635 -330.5 -638.5 Q -324 -642 -321 -648 Q -318 -654 -316.5 -661 Q -315 -668 -314 -675 Q -313 -682 -313 -689 Q -313 -696 -313 -703 L -313 -808 L -176 -808 L -176 -600 L -214 -600 L -214 -773 L -275 -773 L -275 -704 Q -275 -692 -275 -680 Q -275 -668 -277.5 -656 Q -280 -644 -284.5 -632.5 Q -289 -621 -298 -613 Q -307 -605 -319.5 -602.5 Q -332 -600 -344 -600 Z " id="path28"/>
<path d="M -334 -600 L -334 -808 L -287 -808 L -250 -654 L -213 -808 L -166 -808 L -166 -600 L -205 -600 L -205 -642 Q -205 -675 -201 -708.5 Q -197 -742 -195 -776 L -237 -600 L -263 -600 L -305 -776 Q -303 -742 -299 -708.5 Q -295 -675 -295 -642 L -295 -600 Z " id="path29"/>
<path d="M -324 -600 L -324 -808 L -286 -808 L -286 -724 L -214 -724 L -214 -808 L -176 -808 L -176 -600 L -214 -600 L -214 -690 L -286 -690 L -286 -600 Z " id="path30"/>
<path d="M -250 -597 Q -266 -597 -282 -602.5 Q -298 -608 -308.5 -620 Q -319 -632 -323.5 -648 Q -328 -664 -328 -680 L -328 -728 Q -328 -744 -323.5 -760 Q -319 -776 -308.5 -788 Q -298 -800 -282 -805.5 Q -266 -811 -250 -811 Q -234 -811 -218 -805.5 Q -202 -800 -191.5 -788 Q -181 -776 -176.5 -760 Q -172 -744 -172 -728 L -172 -680 Q -172 -664 -176.5 -648 Q -181 -632 -191.5 -620 Q -202 -608 -218 -602.5 Q -234 -597 -250 -597 Z M -250 -632 Q -241 -632 -233 -635.5 Q -225 -639 -220 -646.5 Q -215 -654 -213 -662.5 Q -211 -671 -211 -680 L -211 -728 Q -211 -737 -213 -745.5 Q -215 -754 -220 -761.5 Q -225 -769 -233 -772.5 Q -241 -776 -250 -776 Q -259 -776 -267 -772.5 Q -275 -769 -280 -761.5 Q -285 -754 -287 -745.5 Q -289 -737 -289 -728 L -289 -680 Q -289 -671 -287 -662.5 Q -285 -654 -280 -646.5 Q -275 -639 -267 -635.5 Q -259 -632 -250 -632 Z " id="path31"/>
<path d="M -324 -600 L -324 -808 L -176 -808 L -176 -600 L -214 -600 L -214 -773 L -286 -773 L -286 -600 Z " id="path32"/>
<path d="M -324 -600 L -324 -894 L -286 -894 L -286 -859 Q -283 -867 -278 -874.5 Q -273 -882 -266 -887.5 Q -259 -893 -250 -895 Q -241 -897 -233 -897 Q -218 -897 -205 -890 Q -192 -883 -184.5 -870 Q -177 -857 -174.5 -843 Q -172 -829 -172 -814 L -172 -766 Q -172 -751 -174.5 -737 Q -177 -723 -184.5 -710 Q -192 -697 -205 -690 Q -218 -683 -233 -683 Q -241 -683 -250 -685 Q -259 -687 -266 -692.5 Q -273 -698 -278 -705.5 Q -283 -713 -286 -721 L -286 -600 Z M -248 -718 Q -240 -718 -232 -721.5 Q -224 -725 -219 -732.5 Q -214 -740 -212.5 -748.5 Q -211 -757 -211 -766 L -211 -814 Q -211 -823 -212.5 -831.5 Q -214 -840 -219 -847.5 Q -224 -855 -232 -858.5 Q -240 -862 -248 -862 Q -257 -862 -265 -858.5 Q -273 -855 -278 -847.5 Q -283 -840 -284.5 -831.5 Q -286 -823 -286 -814 L -286 -766 Q -286 -757 -284.5 -748.5 Q -283 -740 -278 -732.5 Q -273 -725 -265 -721.5 Q -257 -718 -248 -718 Z " id="path33"/>
<path d="M -251 -597 Q -267 -597 -282.5 -602.5 Q -298 -608 -308.5 -620 Q -319 -632 -323.5 -648 Q -328 -664 -328 -680 L -328 -728 Q -328 -744 -323.5 -760 Q -319 -776 -308.5 -788 Q -298 -800 -282.5 -805.5 Q -267 -811 -251 -811 Q -236 -811 -221.5 -806.5 Q -207 -802 -196 -792 Q -185 -782 -180 -767.5 Q -175 -753 -175 -738 L -175 -736 L -213 -736 L -213 -737 Q -213 -745 -215.5 -752.5 Q -218 -760 -223.5 -765.5 Q -229 -771 -236 -773.5 Q -243 -776 -251 -776 Q -260 -776 -268 -772.5 Q -276 -769 -281 -761.5 Q -286 -754 -287.5 -745.5 Q -289 -737 -289 -728 L -289 -680 Q -289 -671 -287.5 -662.5 Q -286 -654 -281 -646.5 Q -276 -639 -268 -635.5 Q -260 -632 -251 -632 Q -243 -632 -236 -634.5 Q -229 -637 -223.5 -642.5 Q -218 -648 -215.5 -655.5 Q -213 -663 -213 -671 L -213 -672 L -175 -672 L -175 -670 Q -175 -655 -180 -640.5 Q -185 -626 -196 -616 Q -207 -606 -221.5 -601.5 Q -236 -597 -251 -597 Z " id="path34"/>
<path d="M -269 -600 L -269 -773 L -327 -773 L -327 -808 L -173 -808 L -173 -773 L -231 -773 L -231 -600 Z " id="path35"/>
<path d="M -330 -600 L -271 -704 L -330 -808 L -285 -808 L -250 -743 L -215 -808 L -170 -808 L -229 -704 L -170 -600 L -215 -600 L -250 -665 L -285 -600 Z " id="path36"/>
<path d="M -195 -600 L -195 -661 L -324 -661 L -324 -869 L -286 -869 L -286 -696 L -214 -696 L -214 -869 L -176 -869 L -176 -696 L -161 -696 L -161 -600 Z " id="path37"/>
<path d="M -214 -600 L -214 -668 Q -223 -665 -232 -664 Q -241 -663 -250 -663 Q -266 -663 -281.5 -668 Q -297 -673 -307.5 -684.5 Q -318 -696 -321 -712 Q -324 -728 -324 -744 L -324 -808 L -286 -808 L -286 -744 Q -286 -736 -284.5 -727.5 Q -283 -719 -278.5 -712 Q -274 -705 -266 -701 Q -258 -697 -250 -697 Q -241 -697 -232 -698.5 Q -223 -700 -214 -702 L -214 -808 L -176 -808 L -176 -600 Z " id="path38"/>
<path d="M -334 -600 L -334 -808 L -296 -808 L -296 -635 L -269 -635 L -269 -808 L -231 -808 L -231 -635 L -204 -635 L -204 -808 L -166 -808 L -166 -600 Z " id="path39"/>
<path d="M -151 -600 L -185 -600 L -185 -661 L -334 -661 L -334 -869 L -296 -869 L -296 -696 L -269 -696 L -269 -869 L -231 -869 L -231 -696 L -204 -696 L -204 -869 L -166 -869 L -166 -696 L -151 -696 Z " id="path40"/>
<path d="M -250 -597 Q -266 -597 -282 -602.5 Q -298 -608 -308.5 -620 Q -319 -632 -323.5 -648 Q -328 -664 -328 -680 L -328 -728 Q -328 -744 -323.5 -760 Q -319 -776 -308.5 -788 Q -298 -800 -282 -805.5 Q -266 -811 -250 -811 Q -234 -811 -218 -805.5 Q -202 -800 -191.5 -788 Q -181 -776 -176.5 -760 Q -172 -744 -172 -728 L -172 -680 Q -172 -664 -176.5 -648 Q -181 -632 -191.5 -620 Q -202 -608 -218 -602.5 Q -234 -597 -250 -597 Z M -222 -704 Q -219 -704 -216 -705 Q -213 -706 -211 -708 L -211 -728 Q -211 -737 -213 -745.5 Q -215 -754 -220 -761.5 Q -225 -769 -233 -772.5 Q -241 -776 -250 -776 Q -259 -776 -267 -772.5 Q -275 -769 -280 -762 Q -285 -755 -287 -746.5 Q -289 -738 -289 -729 Q -286 -729 -283 -729.5 Q -280 -730 -278 -730 Q -267 -730 -257.5 -725.5 Q -248 -721 -241 -714 Q -237 -710 -232.5 -707 Q -228 -704 -222 -704 Z M -250 -632 Q -241 -632 -233 -635.5 Q -225 -639 -220 -646 Q -215 -653 -213 -661.5 Q -211 -670 -211 -679 Q -214 -679 -217 -678.5 Q -220 -678 -222 -678 Q -233 -678 -242.5 -682.5 Q -252 -687 -259 -694 Q -263 -698 -267.5 -701 Q -272 -704 -278 -704 Q -281 -704 -284 -703 Q -287 -702 -289 -700 L -289 -680 Q -289 -671 -287 -662.5 Q -285 -654 -280 -646.5 Q -275 -639 -267 -635.5 Q -259 -632 -250 -632 Z " id="path41"/>
<path d="M -295 -597 Q -304 -597 -313 -600 Q -322 -603 -328.5 -610.5 Q -335 -618 -337 -627 Q -339 -636 -339 -646 L -339 -762 Q -339 -771 -336.5 -780.5 Q -334 -790 -327 -796.5 Q -320 -803 -311 -805.5 Q -302 -808 -293 -808 L -164 -808 L -164 -778 L -190 -778 L -190 -600 L -223 -600 L -223 -778 L -293 -778 Q -299 -778 -303 -773 Q -307 -768 -307 -762 L -307 -646 Q -307 -639 -304 -632.5 Q -301 -626 -295 -626 Q -290 -626 -288 -630 Q -286 -634 -285 -638 Q -284 -642 -283 -646 Q -282 -650 -281.5 -654 Q -281 -658 -281 -662 Q -281 -666 -281 -670 L -281 -672 L -248 -672 L -248 -668 Q -248 -657 -250 -645 Q -252 -633 -257.5 -622 Q -263 -611 -273 -604 Q -283 -597 -295 -597 Z " id="path42"/>
<path d="M -267 -597 Q -280 -597 -291.5 -600.5 Q -303 -604 -311.5 -613 Q -320 -622 -324 -633.5 Q -328 -645 -328 -658 Q -328 -673 -321 -687.5 Q -314 -702 -301.5 -710.5 Q -289 -719 -273.5 -722 Q -258 -725 -243 -725 L -214 -725 L -214 -743 Q -214 -750 -216.5 -757 Q -219 -764 -224.5 -768.5 Q -230 -773 -236.5 -774.5 Q -243 -776 -250 -776 Q -257 -776 -263 -775 Q -269 -774 -274.5 -771 Q -280 -768 -283.5 -762.5 Q -287 -757 -287 -751 L -287 -750 L -325 -750 L -325 -752 Q -325 -765 -319 -777.5 Q -313 -790 -302 -797.5 Q -291 -805 -277.5 -808 Q -264 -811 -250 -811 Q -236 -811 -222 -807.5 Q -208 -804 -197 -794.5 Q -186 -785 -181 -771.5 Q -176 -758 -176 -743 L -176 -600 L -214 -600 L -214 -631 Q -217 -623 -222.5 -616.5 Q -228 -610 -235 -605.5 Q -242 -601 -250.5 -599 Q -259 -597 -267 -597 Z M -252 -632 Q -244 -632 -236.5 -634.5 Q -229 -637 -223.5 -643 Q -218 -649 -216 -656.5 Q -214 -664 -214 -672 L -214 -690 L -243 -690 Q -250 -690 -258 -689 Q -266 -688 -273 -685 Q -280 -682 -284.5 -675.5 Q -289 -669 -289 -661 Q -289 -655 -286 -648.5 Q -283 -642 -277.5 -638 Q -272 -634 -265.5 -633 Q -259 -632 -252 -632 Z " id="path43"/>
<path d="M -250 -597 Q -266 -597 -282 -602.5 Q -298 -608 -308.5 -620 Q -319 -632 -323.5 -648 Q -328 -664 -328 -680 L -328 -728 Q -328 -744 -323.5 -760 Q -319 -776 -308.5 -788 Q -298 -800 -282 -805.5 Q -266 -811 -250 -811 Q -234 -811 -218 -805.5 Q -202 -800 -191.5 -788 Q -181 -776 -176.5 -760 Q -172 -744 -172 -728 L -172 -687 L -289 -687 L -289 -680 Q -289 -671 -287 -662.5 Q -285 -654 -280 -646.5 Q -275 -639 -267 -635.5 Q -259 -632 -250 -632 Q -244 -632 -237.5 -633 Q -231 -634 -225 -637 Q -219 -640 -215.5 -646 Q -212 -652 -212 -658 L -173 -658 Q -173 -644 -179.5 -631.5 Q -186 -619 -197.5 -611 Q -209 -603 -222.5 -600 Q -236 -597 -250 -597 Z M -289 -721 L -211 -721 L -211 -728 Q -211 -737 -213 -745.5 Q -215 -754 -220 -761.5 Q -225 -769 -233 -772.5 Q -241 -776 -250 -776 Q -259 -776 -267 -772.5 Q -275 -769 -280 -761.5 Q -285 -754 -287 -745.5 Q -289 -737 -289 -728 Z " id="path44"/>
<path d="M -324 -600 L -324 -645 Q -324 -658 -321.5 -671.5 Q -319 -685 -312 -696.5 Q -305 -708 -293.5 -716 Q -282 -724 -269 -726 L -269 -753 L -303 -753 L -303 -780 L -269 -780 L -269 -808 L -231 -808 L -231 -780 L -198 -780 L -198 -753 L -231 -753 L -231 -726 Q -218 -724 -206.5 -716 Q -195 -708 -188 -696.5 Q -181 -685 -178.5 -671.5 Q -176 -658 -176 -645 L -176 -600 L -214 -600 L -214 -645 Q -214 -653 -215.5 -661.5 Q -217 -670 -221.5 -677.5 Q -226 -685 -233.5 -689 Q -241 -693 -250 -693 Q -259 -693 -266.5 -689 Q -274 -685 -278.5 -677.5 Q -283 -670 -284.5 -661.5 Q -286 -653 -286 -645 L -286 -600 Z " id="path45"/>
<path d="M -250 -597 Q -261 -597 -272 -600 Q -283 -603 -291.5 -611 Q -300 -619 -304 -630 Q -308 -641 -308 -652 Q -308 -663 -304.5 -674 Q -301 -685 -296 -695 Q -291 -705 -285 -714.5 Q -279 -724 -272 -733 Q -288 -762 -299 -793 Q -310 -824 -310 -857 L -271 -857 Q -271 -834 -265.5 -811 Q -260 -788 -249 -768 Q -232 -796 -223 -828.5 Q -214 -861 -214 -894 L -176 -894 Q -176 -851 -191 -810.5 Q -206 -770 -228 -733 Q -222 -723 -215.5 -714 Q -209 -705 -204 -695 Q -199 -685 -195.5 -674 Q -192 -663 -192 -652 Q -192 -641 -196 -630 Q -200 -619 -208.5 -611 Q -217 -603 -228 -600 Q -239 -597 -250 -597 Z M -250 -631 Q -242 -631 -236.5 -637.5 Q -231 -644 -231 -653 Q -231 -665 -237 -676 Q -243 -687 -250 -698 Q -257 -687 -263 -676 Q -269 -665 -269 -653 Q -269 -644 -263.5 -637.5 Q -258 -631 -250 -631 Z " id="path46"/>
<path d="M -295 -600 L -295 -792 L -340 -792 L -340 -820 L -295 -820 L -295 -894 L -256 -894 L -256 -820 L -210 -820 L -210 -792 L -256 -792 L -256 -732 L -227 -732 Q -214 -732 -202 -727.5 Q -190 -723 -181.5 -713.5 Q -173 -704 -169.5 -691.5 Q -166 -679 -166 -666 Q -166 -653 -169.5 -640.5 Q -173 -628 -181.5 -618.5 Q -190 -609 -202 -604.5 Q -214 -600 -227 -600 Z M -256 -635 L -227 -635 Q -222 -635 -217 -637.5 Q -212 -640 -209 -645 Q -206 -650 -205.5 -655 Q -205 -660 -205 -666 Q -205 -671 -205.5 -676.5 Q -206 -682 -209 -687 Q -212 -692 -217 -694.5 Q -222 -697 -227 -697 L -256 -697 Z " id="path47"/>
<path d="M -219 -597 Q -231 -597 -242 -600.5 Q -253 -604 -261 -613 Q -269 -622 -272.5 -633 Q -276 -644 -276 -656 L -276 -687 L -296 -687 L -296 -600 L -334 -600 L -334 -808 L -296 -808 L -296 -721 L -276 -721 L -276 -752 Q -276 -764 -272.5 -775 Q -269 -786 -261 -795 Q -253 -804 -242 -807.5 Q -231 -811 -219 -811 Q -208 -811 -196.5 -807.5 Q -185 -804 -177 -795 Q -169 -786 -166 -775 Q -163 -764 -163 -752 L -163 -656 Q -163 -644 -166 -633 Q -169 -622 -177 -613 Q -185 -604 -196.5 -600.5 Q -208 -597 -219 -597 Z M -219 -631 Q -211 -631 -206 -639 Q -201 -647 -201 -656 L -201 -752 Q -201 -761 -206 -769 Q -211 -777 -219 -777 Q -228 -777 -232.5 -769 Q -237 -761 -237 -752 L -237 -656 Q -237 -647 -232.5 -639 Q -228 -631 -219 -631 Z " id="path48"/>
<path d="M -232 -597 Q -242 -597 -250.5 -602.5 Q -259 -608 -264 -617.5 Q -269 -627 -270.5 -637 Q -272 -647 -272 -657 Q -272 -665 -271.5 -672.5 Q -271 -680 -268 -687 L -296 -687 L -296 -600 L -334 -600 L -334 -808 L -296 -808 L -296 -721 L -228 -721 Q -224 -722 -220 -722 Q -216 -722 -212 -722 L -204 -722 L -204 -763 Q -204 -769 -208 -773 Q -212 -777 -218 -777 Q -222 -777 -225 -774 Q -228 -771 -229.5 -767 Q -231 -763 -231.5 -759 Q -232 -755 -232 -751 L -232 -750 L -270 -750 L -270 -753 Q -270 -764 -267 -775 Q -264 -786 -257 -794.5 Q -250 -803 -239.5 -807 Q -229 -811 -218 -811 Q -208 -811 -198 -808.5 Q -188 -806 -180.5 -799.5 Q -173 -793 -169.5 -783 Q -166 -773 -166 -763 L -166 -600 L -204 -600 L -204 -612 Q -209 -605 -216 -601 Q -223 -597 -232 -597 Z M -219 -625 Q -215 -625 -211 -628 Q -207 -631 -204 -636 L -204 -694 L -212 -694 Q -219 -694 -225 -691.5 Q -231 -689 -234.5 -684 Q -238 -679 -239.5 -672.5 Q -241 -666 -241 -660 Q -241 -654 -240 -648.5 Q -239 -643 -236.5 -637.5 Q -234 -632 -229.5 -628.5 Q -225 -625 -219 -625 Z " id="path49"/>
<path d="M -340 -600 L -270 -808 L -230 -808 L -160 -600 L -197 -600 L -220 -673 L -233 -673 L -233 -600 L -267 -600 L -267 -673 L -280 -673 L -303 -600 Z M -271 -704 L -229 -704 L -240 -739 Q -243 -747 -245.5 -755 Q -248 -763 -250 -771 Q -252 -763 -254.5 -755 Q -257 -747 -260 -739 Z " id="path50"/>
<path d="M -340 -600 L -309 -714 L -285 -714 L -340 -808 L -160 -808 L -215 -714 L -191 -714 L -160 -600 L -195 -600 L -217 -683 L -233 -683 L -233 -600 L -267 -600 L -267 -683 L -283 -683 L -305 -600 Z M -250 -714 L -213 -777 L -287 -777 Z " id="path51"/>
<path d="M -338 -600 L -338 -808 L -309 -808 L -309 -714 L -254 -714 L -293 -808 L -157 -808 L -196 -714 L -182 -714 L -157 -600 L -186 -600 L -205 -689 L -211 -689 L -211 -600 L -239 -600 L -239 -689 L -245 -689 L -264 -600 L -293 -600 L -274 -689 L -309 -689 L -309 -600 Z M -225 -714 L -197 -782 L -253 -782 Z " id="path52"/>
</defs>
<g>
<g data-source-text="0" fill="#20242e" transform="translate(174 41.292) rotate(0) scale(0.023999998)">
<use href="#path1" transform="translate(0 0)"/>
</g>
</g>
<g>
<g data-source-text="1" fill="#20242e" transform="translate(246 41.292) rotate(0) scale(0.023999998)">
<use href="#path2" transform="translate(0 0)"/>
</g>
</g>
<g>
<g data-source-text="2" fill="#20242e" transform="translate(318 41.292) rotate(0) scale(0.023999998)">
<use href="#path3" transform="translate(0 0)"/>
</g>
</g>
<g>
<g data-source-text="3" fill="#20242e" transform="translate(390 41.292) rotate(0) scale(0.023999998)">
<use href="#path4" transform="translate(0 0)"/>
</g>
</g>
<g>
<g data-source-text="4" fill="#20242e" transform="translate(462 41.292) rotate(0) scale(0.023999998)">
<use href="#path5" transform="translate(0 0)"/>
</g>
</g>
<g>
<g data-source-text="5" fill="#20242e" transform="translate(534 41.292) rotate(0) scale(0.023999998)">
<use href="#path6" transform="translate(0 0)"/>
</g>
</g>
<g>
<g data-source-text="6" fill="#20242e" transform="translate(606 41.292) rotate(0) scale(0.023999998)">
<use href="#path7" transform="translate(0 0)"/>
</g>
</g>
<g>
<g data-source-text="7" fill="#20242e" transform="translate(678 41.292) rotate(0) scale(0.023999998)">
<use href="#path8" transform="translate(0 0)"/>
</g>
</g>
<g>
<g data-source-text="8" fill="#20242e" transform="translate(750 41.292) rotate(0) scale(0.023999998)">
<use href="#path9" transform="translate(0 0)"/>
</g>
</g>
<g>
<g data-source-text="9" fill="#20242e" transform="translate(822 41.292) rotate(0) scale(0.023999998)">
<use href="#path10" transform="translate(0 0)"/>
</g>
</g>
<g>
<g data-source-text="A" fill="#20242e" transform="translate(894 41.292) rotate(0) scale(0.023999998)">
<use href="#path11" transform="translate(0 0)"/>
</g>
</g>
<g>
<g data-source-text="B" fill="#20242e" transform="translate(966 41.292) rotate(0) scale(0.023999998)">
<use href="#path12" transform="translate(0 0)"/>
</g>
</g>
<g>
<g data-source-text="C" fill="#20242e" transform="translate(1038 41.292) rotate(0) scale(0.023999998)">
<use href="#path13" transform="translate(0 0)"/>
</g>
</g>
<g>
<g data-source-text="D" fill="#20242e" transform="translate(1110 41.292) rotate(0) scale(0.023999998)">
<use href="#path14" transform="translate(0 0)"/>
</g>
</g>
<g>
<g data-source-text="E" fill="#20242e" transform="translate(1182 41.292) rotate(0) scale(0.023999998)">
<use href="#path15" transform="translate(0 0)"/>
</g>
</g>
<g>
<g data-source-text="F" fill="#20242e" transform="translate(1254 41.292) rotate(0) scale(0.023999998)">
<use href="#path16" transform="translate(0 0)"/>
</g>
</g>
<g>
<g data-source-text="U+2DE0" fill="#20242e" transform="translate(36 113.292) rotate(0) scale(0.023999998)">
<use href="#path17" transform="translate(0 0)"/>
<use href="#path18" transform="translate(500 0)"/>
<use href="#path3" transform="translate(1000 0)"/>
<use href="#path14" transform="translate(1500 0)"/>
<use href="#path15" transform="translate(2000 0)"/>
<use href="#path1" transform="translate(2500 0)"/>
</g>
</g>
<g>
<g data-source-text="◌" fill="#048fbf" transform="translate(168 118.584) rotate(0) scale(0.047999997)">
<use href="#path19" transform="translate(0 0)"/>
</g>
</g>
<g>
<g data-source-text="" fill="#20242e" transform="translate(168 118.584) rotate(0) scale(0.047999997)">
<use href="#path20" transform="translate(0 0)"/>
</g>
<g data-source-text="ⷠ" fill="#20242e" transform="translate(192 118.584) rotate(0) scale(0.047999997)">
<use href="#path21" transform="translate(0 0)"/>
</g>
</g>
<g>
<g data-source-text="◌" fill="#048fbf" transform="translate(240 118.584) rotate(0) scale(0.047999997)">
<use href="#path19" transform="translate(0 0)"/>
</g>
</g>
<g>
<g data-source-text="" fill="#20242e" transform="translate(240 118.584) rotate(0) scale(0.047999997)">
<use href="#path20" transform="translate(0 0)"/>
</g>
<g data-source-text="ⷡ" fill="#20242e" transform="translate(264 118.584) rotate(0) scale(0.047999997)">
<use href="#path22" transform="translate(0 0)"/>
</g>
</g>
<g>
<g data-source-text="◌" fill="#048fbf" transform="translate(312 118.584) rotate(0) scale(0.047999997)">
<use href="#path19" transform="translate(0 0)"/>
</g>
</g>
<g>
<g data-source-text="" fill="#20242e" transform="translate(312 118.584) rotate(0) scale(0.047999997)">
<use href="#path20" transform="translate(0 0)"/>
</g>
<g data-source-text="ⷢ" fill="#20242e" transform="translate(336 118.584) rotate(0) scale(0.047999997)">
<use href="#path23" transform="translate(0 0)"/>
</g>
</g>
<g>
<g data-source-text="◌" fill="#048fbf" transform="translate(384 118.584) rotate(0) scale(0.047999997)">
<use href="#path19" transform="translate(0 0)"/>
</g>
</g>
<g>
<g data-source-text="" fill="#20242e" transform="translate(384 118.584) rotate(0) scale(0.047999997)">
<use href="#path20" transform="translate(0 0)"/>
</g>
<g data-source-text="ⷣ" fill="#20242e" transform="translate(408 118.584) rotate(0) scale(0.047999997)">
<use href="#path24" transform="translate(0 0)"/>
</g>
</g>
<g>
<g data-source-text="◌" fill="#048fbf" transform="translate(456 118.584) rotate(0) scale(0.047999997)">
<use href="#path19" transform="translate(0 0)"/>
</g>
</g>
<g>
<g data-source-text="" fill="#20242e" transform="translate(456 118.584) rotate(0) scale(0.047999997)">
<use href="#path20" transform="translate(0 0)"/>
</g>
<g data-source-text="ⷤ" fill="#20242e" transform="translate(480 118.584) rotate(0) scale(0.047999997)">
<use href="#path25" transform="translate(0 0)"/>
</g>
</g>
<g>
<g data-source-text="◌" fill="#048fbf" transform="translate(528 118.584) rotate(0) scale(0.047999997)">
<use href="#path19" transform="translate(0 0)"/>
</g>
</g>
<g>
<g data-source-text="" fill="#20242e" transform="translate(528 118.584) rotate(0) scale(0.047999997)">
<use href="#path20" transform="translate(0 0)"/>
</g>
<g data-source-text="ⷥ" fill="#20242e" transform="translate(552 118.584) rotate(0) scale(0.047999997)">
<use href="#path26" transform="translate(0 0)"/>
</g>
</g>
<g>
<g data-source-text="◌" fill="#048fbf" transform="translate(600 118.584) rotate(0) scale(0.047999997)">
<use href="#path19" transform="translate(0 0)"/>
</g>
</g>
<g>
<g data-source-text="" fill="#20242e" transform="translate(600 118.584) rotate(0) scale(0.047999997)">
<use href="#path20" transform="translate(0 0)"/>
</g>
<g data-source-text="ⷦ" fill="#20242e" transform="translate(624 118.584) rotate(0) scale(0.047999997)">
<use href="#path27" transform="translate(0 0)"/>
</g>
</g>
<g>
<g data-source-text="◌" fill="#048fbf" transform="translate(672 118.584) rotate(0) scale(0.047999997)">
<use href="#path19" transform="translate(0 0)"/>
</g>
</g>
<g>
<g data-source-text="" fill="#20242e" transform="translate(672 118.584) rotate(0) scale(0.047999997)">
<use href="#path20" transform="translate(0 0)"/>
</g>
<g data-source-text="ⷧ" fill="#20242e" transform="translate(696 118.584) rotate(0) scale(0.047999997)">
<use href="#path28" transform="translate(0 0)"/>
</g>
</g>
<g>
<g data-source-text="◌" fill="#048fbf" transform="translate(744 118.584) rotate(0) scale(0.047999997)">
<use href="#path19" transform="translate(0 0)"/>
</g>
</g>
<g>
<g data-source-text="" fill="#20242e" transform="translate(744 118.584) rotate(0) scale(0.047999997)">
<use href="#path20" transform="translate(0 0)"/>
</g>
<g data-source-text="ⷨ" fill="#20242e" transform="translate(768 118.584) rotate(0) scale(0.047999997)">
<use href="#path29" transform="translate(0 0)"/>
</g>
</g>
<g>
<g data-source-text="◌" fill="#048fbf" transform="translate(816 118.584) rotate(0) scale(0.047999997)">
<use href="#path19" transform="translate(0 0)"/>
</g>
</g>
<g>
<g data-source-text="" fill="#20242e" transform="translate(816 118.584) rotate(0) scale(0.047999997)">
<use href="#path20" transform="translate(0 0)"/>
</g>
<g data-source-text="ⷩ" fill="#20242e" transform="translate(840 118.584) rotate(0) scale(0.047999997)">
<use href="#path30" transform="translate(0 0)"/>
</g>
</g>
<g>
<g data-source-text="◌" fill="#048fbf" transform="translate(888 118.584) rotate(0) scale(0.047999997)">
<use href="#path19" transform="translate(0 0)"/>
</g>
</g>
<g>
<g data-source-text="" fill="#20242e" transform="translate(888 118.584) rotate(0) scale(0.047999997)">
<use href="#path20" transform="translate(0 0)"/>
</g>
<g data-source-text="ⷪ" fill="#20242e" transform="translate(912 118.584) rotate(0) scale(0.047999997)">
<use href="#path31" transform="translate(0 0)"/>
</g>
</g>
<g>
<g data-source-text="◌" fill="#048fbf" transform="translate(960 118.584) rotate(0) scale(0.047999997)">
<use href="#path19" transform="translate(0 0)"/>
</g>
</g>
<g>
<g data-source-text="" fill="#20242e" transform="translate(960 118.584) rotate(0) scale(0.047999997)">
<use href="#path20" transform="translate(0 0)"/>
</g>
<g data-source-text="ⷫ" fill="#20242e" transform="translate(984 118.584) rotate(0) scale(0.047999997)">
<use href="#path32" transform="translate(0 0)"/>
</g>
</g>
<g>
<g data-source-text="◌" fill="#048fbf" transform="translate(1032 118.584) rotate(0) scale(0.047999997)">
<use href="#path19" transform="translate(0 0)"/>
</g>
</g>
<g>
<g data-source-text="" fill="#20242e" transform="translate(1032 118.584) rotate(0) scale(0.047999997)">
<use href="#path20" transform="translate(0 0)"/>
</g>
<g data-source-text="ⷬ" fill="#20242e" transform="translate(1056 118.584) rotate(0) scale(0.047999997)">
<use href="#path33" transform="translate(0 0)"/>
</g>
</g>
<g>
<g data-source-text="◌" fill="#048fbf" transform="translate(1104 118.584) rotate(0) scale(0.047999997)">
<use href="#path19" transform="translate(0 0)"/>
</g>
</g>
<g>
<g data-source-text="" fill="#20242e" transform="translate(1104 118.584) rotate(0) scale(0.047999997)">
<use href="#path20" transform="translate(0 0)"/>
</g>
<g data-source-text="ⷭ" fill="#20242e" transform="translate(1128 118.584) rotate(0) scale(0.047999997)">
<use href="#path34" transform="translate(0 0)"/>
</g>
</g>
<g>
<g data-source-text="◌" fill="#048fbf" transform="translate(1176 118.584) rotate(0) scale(0.047999997)">
<use href="#path19" transform="translate(0 0)"/>
</g>
</g>
<g>
<g data-source-text="" fill="#20242e" transform="translate(1176 118.584) rotate(0) scale(0.047999997)">
<use href="#path20" transform="translate(0 0)"/>
</g>
<g data-source-text="ⷮ" fill="#20242e" transform="translate(1200 118.584) rotate(0) scale(0.047999997)">
<use href="#path35" transform="translate(0 0)"/>
</g>
</g>
<g>
<g data-source-text="◌" fill="#048fbf" transform="translate(1248 118.584) rotate(0) scale(0.047999997)">
<use href="#path19" transform="translate(0 0)"/>
</g>
</g>
<g>
<g data-source-text="" fill="#20242e" transform="translate(1248 118.584) rotate(0) scale(0.047999997)">
<use href="#path20" transform="translate(0 0)"/>
</g>
<g data-source-text="ⷯ" fill="#20242e" transform="translate(1272 118.584) rotate(0) scale(0.047999997)">
<use href="#path36" transform="translate(0 0)"/>
</g>
</g>
<g>
<g data-source-text="U+2DF0" fill="#20242e" transform="translate(36 185.292) rotate(0) scale(0.023999998)">
<use href="#path17" transform="translate(0 0)"/>
<use href="#path18" transform="translate(500 0)"/>
<use href="#path3" transform="translate(1000 0)"/>
<use href="#path14" transform="translate(1500 0)"/>
<use href="#path16" transform="translate(2000 0)"/>
<use href="#path1" transform="translate(2500 0)"/>
</g>
</g>
<g>
<g data-source-text="◌" fill="#048fbf" transform="translate(168 190.584) rotate(0) scale(0.047999997)">
<use href="#path19" transform="translate(0 0)"/>
</g>
</g>
<g>
<g data-source-text="" fill="#20242e" transform="translate(168 190.584) rotate(0) scale(0.047999997)">
<use href="#path20" transform="translate(0 0)"/>
</g>
<g data-source-text="ⷰ" fill="#20242e" transform="translate(192 190.584) rotate(0) scale(0.047999997)">
<use href="#path37" transform="translate(0 0)"/>
</g>
</g>
<g>
<g data-source-text="◌" fill="#048fbf" transform="translate(240 190.584) rotate(0) scale(0.047999997)">
<use href="#path19" transform="translate(0 0)"/>
</g>
</g>
<g>
<g data-source-text="" fill="#20242e" transform="translate(240 190.584) rotate(0) scale(0.047999997)">
<use href="#path20" transform="translate(0 0)"/>
</g>
<g data-source-text="ⷱ" fill="#20242e" transform="translate(264 190.584) rotate(0) scale(0.047999997)">
<use href="#path38" transform="translate(0 0)"/>
</g>
</g>
<g>
<g data-source-text="◌" fill="#048fbf" transform="translate(312 190.584) rotate(0) scale(0.047999997)">
<use href="#path19" transform="translate(0 0)"/>
</g>
</g>
<g>
<g data-source-text="" fill="#20242e" transform="translate(312 190.584) rotate(0) scale(0.047999997)">
<use href="#path20" transform="translate(0 0)"/>
</g>
<g data-source-text="ⷲ" fill="#20242e" transform="translate(336 190.584) rotate(0) scale(0.047999997)">
<use href="#path39" transform="translate(0 0)"/>
</g>
</g>
<g>
<g data-source-text="◌" fill="#048fbf" transform="translate(384 190.584) rotate(0) scale(0.047999997)">
<use href="#path19" transform="translate(0 0)"/>
</g>
</g>
<g>
<g data-source-text="" fill="#20242e" transform="translate(384 190.584) rotate(0) scale(0.047999997)">
<use href="#path20" transform="translate(0 0)"/>
</g>
<g data-source-text="ⷳ" fill="#20242e" transform="translate(408 190.584) rotate(0) scale(0.047999997)">
<use href="#path40" transform="translate(0 0)"/>
</g>
</g>
<g>
<g data-source-text="◌" fill="#048fbf" transform="translate(456 190.584) rotate(0) scale(0.047999997)">
<use href="#path19" transform="translate(0 0)"/>
</g>
</g>
<g>
<g data-source-text="" fill="#20242e" transform="translate(456 190.584) rotate(0) scale(0.047999997)">
<use href="#path20" transform="translate(0 0)"/>
</g>
<g data-source-text="ⷴ" fill="#20242e" transform="translate(480 190.584) rotate(0) scale(0.047999997)">
<use href="#path41" transform="translate(0 0)"/>
</g>
</g>
<g>
<g data-source-text="◌" fill="#048fbf" transform="translate(528 190.584) rotate(0) scale(0.047999997)">
<use href="#path19" transform="translate(0 0)"/>
</g>
</g>
<g>
<g data-source-text="" fill="#20242e" transform="translate(528 190.584) rotate(0) scale(0.047999997)">
<use href="#path20" transform="translate(0 0)"/>
</g>
<g data-source-text="ⷵ" fill="#20242e" transform="translate(552 190.584) rotate(0) scale(0.047999997)">
<use href="#path42" transform="translate(0 0)"/>
</g>
</g>
<g>
<g data-source-text="◌" fill="#048fbf" transform="translate(600 190.584) rotate(0) scale(0.047999997)">
<use href="#path19" transform="translate(0 0)"/>
</g>
</g>
<g>
<g data-source-text="" fill="#20242e" transform="translate(600 190.584) rotate(0) scale(0.047999997)">
<use href="#path20" transform="translate(0 0)"/>
</g>
<g data-source-text="ⷶ" fill="#20242e" transform="translate(624 190.584) rotate(0) scale(0.047999997)">
<use href="#path43" transform="translate(0 0)"/>
</g>
</g>
<g>
<g data-source-text="◌" fill="#048fbf" transform="translate(672 190.584) rotate(0) scale(0.047999997)">
<use href="#path19" transform="translate(0 0)"/>
</g>
</g>
<g>
<g data-source-text="" fill="#20242e" transform="translate(672 190.584) rotate(0) scale(0.047999997)">
<use href="#path20" transform="translate(0 0)"/>
</g>
<g data-source-text="ⷷ" fill="#20242e" transform="translate(696 190.584) rotate(0) scale(0.047999997)">
<use href="#path44" transform="translate(0 0)"/>
</g>
</g>
<g>
<g data-source-text="◌" fill="#048fbf" transform="translate(744 190.584) rotate(0) scale(0.047999997)">
<use href="#path19" transform="translate(0 0)"/>
</g>
</g>
<g>
<g data-source-text="" fill="#20242e" transform="translate(744 190.584) rotate(0) scale(0.047999997)">
<use href="#path20" transform="translate(0 0)"/>
</g>
<g data-source-text="ⷸ" fill="#20242e" transform="translate(768 190.584) rotate(0) scale(0.047999997)">
<use href="#path45" transform="translate(0 0)"/>
</g>
</g>
<g>
<g data-source-text="◌" fill="#048fbf" transform="translate(816 190.584) rotate(0) scale(0.047999997)">
<use href="#path19" transform="translate(0 0)"/>
</g>
</g>
<g>
<g data-source-text="" fill="#20242e" transform="translate(816 190.584) rotate(0) scale(0.047999997)">
<use href="#path20" transform="translate(0 0)"/>
</g>
<g data-source-text="ⷹ" fill="#20242e" transform="translate(840 190.584) rotate(0) scale(0.047999997)">
<use href="#path46" transform="translate(0 0)"/>
</g>
</g>
<g>
<g data-source-text="◌" fill="#048fbf" transform="translate(888 190.584) rotate(0) scale(0.047999997)">
<use href="#path19" transform="translate(0 0)"/>
</g>
</g>
<g>
<g data-source-text="" fill="#20242e" transform="translate(888 190.584) rotate(0) scale(0.047999997)">
<use href="#path20" transform="translate(0 0)"/>
</g>
<g data-source-text="ⷺ" fill="#20242e" transform="translate(912 190.584) rotate(0) scale(0.047999997)">
<use href="#path47" transform="translate(0 0)"/>
</g>
</g>
<g>
<g data-source-text="◌" fill="#048fbf" transform="translate(960 190.584) rotate(0) scale(0.047999997)">
<use href="#path19" transform="translate(0 0)"/>
</g>
</g>
<g>
<g data-source-text="" fill="#20242e" transform="translate(960 190.584) rotate(0) scale(0.047999997)">
<use href="#path20" transform="translate(0 0)"/>
</g>
<g data-source-text="ⷻ" fill="#20242e" transform="translate(984 190.584) rotate(0) scale(0.047999997)">
<use href="#path48" transform="translate(0 0)"/>
</g>
</g>
<g>
<g data-source-text="◌" fill="#048fbf" transform="translate(1032 190.584) rotate(0) scale(0.047999997)">
<use href="#path19" transform="translate(0 0)"/>
</g>
</g>
<g>
<g data-source-text="" fill="#20242e" transform="translate(1032 190.584) rotate(0) scale(0.047999997)">
<use href="#path20" transform="translate(0 0)"/>
</g>
<g data-source-text="ⷼ" fill="#20242e" transform="translate(1056 190.584) rotate(0) scale(0.047999997)">
<use href="#path49" transform="translate(0 0)"/>
</g>
</g>
<g>
<g data-source-text="◌" fill="#048fbf" transform="translate(1104 190.584) rotate(0) scale(0.047999997)">
<use href="#path19" transform="translate(0 0)"/>
</g>
</g>
<g>
<g data-source-text="" fill="#20242e" transform="translate(1104 190.584) rotate(0) scale(0.047999997)">
<use href="#path20" transform="translate(0 0)"/>
</g>
<g data-source-text="ⷽ" fill="#20242e" transform="translate(1128 190.584) rotate(0) scale(0.047999997)">
<use href="#path50" transform="translate(0 0)"/>
</g>
</g>
<g>
<g data-source-text="◌" fill="#048fbf" transform="translate(1176 190.584) rotate(0) scale(0.047999997)">
<use href="#path19" transform="translate(0 0)"/>
</g>
</g>
<g>
<g data-source-text="" fill="#20242e" transform="translate(1176 190.584) rotate(0) scale(0.047999997)">
<use href="#path20" transform="translate(0 0)"/>
</g>
<g data-source-text="ⷾ" fill="#20242e" transform="translate(1200 190.584) rotate(0) scale(0.047999997)">
<use href="#path51" transform="translate(0 0)"/>
</g>
</g>
<g>
<g data-source-text="◌" fill="#048fbf" transform="translate(1248 190.584) rotate(0) scale(0.047999997)">
<use href="#path19" transform="translate(0 0)"/>
</g>
</g>
<g>
<g data-source-text="" fill="#20242e" transform="translate(1248 190.584) rotate(0) scale(0.047999997)">
<use href="#path20" transform="translate(0 0)"/>
</g>
<g data-source-text="ⷿ" fill="#20242e" transform="translate(1272 190.584) rotate(0) scale(0.047999997)">
<use href="#path52" transform="translate(0 0)"/>
</g>
</g>
</svg>