<?xml version="1.0" encoding="UTF-8" standalone="no"?>
<svg height="432" viewBox="0 0 1296 432" width="1296" xmlns="http://www.w3.org/2000/svg">
<defs>
<path d="M 250 8 Q 223 8 196 3 Q 169 -2 145 -15 Q 121 -28 102.5 -48.5 Q 84 -69 72.5 -94 Q 61 -119 56.5 -146 Q 52 -173 52 -200 L 52 -535 Q 52 -562 56.5 -589 Q 61 -616 72.5 -641 Q 84 -666 102.5 -686.5 Q 121 -707 145 -720 Q 169 -733 196 -738 Q 223 -743 250 -743 Q 277 -743 304 -738 Q 331 -733 355 -720 Q 379 -707 397.5 -686.5 Q 416 -666 427.5 -641 Q 439 -616 443.5 -589 Q 448 -562 448 -535 L 448 -200 Q 448 -173 443.5 -146 Q 439 -119 427.5 -94 Q 416 -69 397.5 -48.5 Q 379 -28 355 -15 Q 331 -2 304 3 Q 277 8 250 8 Z M 152 -338 L 348 -493 L 348 -535 Q 348 -557 343 -579 Q 338 -601 325.5 -618.5 Q 313 -636 292.5 -645.5 Q 272 -655 250 -655 Q 228 -655 207.5 -645.5 Q 187 -636 174.5 -618.5 Q 162 -601 157 -579 Q 152 -557 152 -535 Z M 250 -80 Q 272 -80 292.5 -89.5 Q 313 -99 325.5 -116.5 Q 338 -134 343 -156 Q 348 -178 348 -200 L 348 -397 L 152 -242 L 152 -200 Q 152 -178 157 -156 Q 162 -134 174.5 -116.5 Q 187 -99 207.5 -89.5 Q 228 -80 250 -80 Z " id="path1"/>
<path d="M 230 0 L 230 -632 L 110 -528 L 55 -584 L 230 -735 L 330 -735 L 330 0 Z " id="path2"/>
<path d="M 60 0 L 60 -1 Q 60 -27 61 -54 Q 62 -81 65.5 -107 Q 69 -133 77 -158.5 Q 85 -184 96.5 -208 Q 108 -232 123 -253.5 Q 138 -275 156 -294.5 Q 174 -314 194 -331 Q 214 -348 235.5 -364 Q 257 -380 277.5 -397 Q 298 -414 313 -435.5 Q 328 -457 336 -483 Q 344 -509 344 -535 Q 344 -557 339.5 -578 Q 335 -599 323.5 -617 Q 312 -635 292 -645 Q 272 -655 251 -655 Q 231 -655 212.5 -647.5 Q 194 -640 181.5 -625 Q 169 -610 163.5 -591 Q 158 -572 158 -552 L 158 -548 L 58 -548 L 58 -555 Q 58 -581 63.5 -606 Q 69 -631 81 -653 Q 93 -675 111.5 -693 Q 130 -711 152.5 -722.5 Q 175 -734 200.5 -738.5 Q 226 -743 251 -743 Q 278 -743 304.5 -737.5 Q 331 -732 354.5 -719 Q 378 -706 396 -685.5 Q 414 -665 425 -640.5 Q 436 -616 440 -589 Q 444 -562 444 -535 Q 444 -501 435 -468 Q 426 -435 407.5 -406 Q 389 -377 364 -353.5 Q 339 -330 312.5 -308.5 Q 286 -287 261 -264 Q 236 -241 216 -213 Q 196 -185 183 -153.5 Q 170 -122 165 -88 L 440 -88 L 440 0 Z " id="path3"/>
<path d="M 253 8 Q 227 8 201 4 Q 175 -0 151 -11.5 Q 127 -23 107.5 -40.5 Q 88 -58 75.5 -81 Q 63 -104 56.5 -129.5 Q 50 -155 50 -181 L 50 -187 L 150 -187 L 150 -184 Q 150 -163 157 -143 Q 164 -123 178 -108 Q 192 -93 212 -86.5 Q 232 -80 253 -80 Q 275 -80 296 -88.5 Q 317 -97 330.5 -114.5 Q 344 -132 350 -154 Q 356 -176 356 -198 Q 356 -217 352 -235.5 Q 348 -254 339 -271 Q 330 -288 316.5 -301 Q 303 -314 286 -322 Q 269 -330 250 -332 Q 231 -334 212 -334 L 212 -422 Q 229 -422 246 -424 Q 263 -426 278.5 -433 Q 294 -440 306 -452.5 Q 318 -465 325.5 -480.5 Q 333 -496 336.5 -513 Q 340 -530 340 -547 Q 340 -566 335.5 -585.5 Q 331 -605 320 -621.5 Q 309 -638 291 -646.5 Q 273 -655 253 -655 Q 234 -655 216 -647 Q 198 -639 187 -624 Q 176 -609 171 -590 Q 166 -571 166 -553 L 166 -548 L 66 -548 L 66 -556 Q 66 -581 71.5 -605.5 Q 77 -630 88 -652 Q 99 -674 116.5 -692.5 Q 134 -711 156.5 -722.5 Q 179 -734 203.5 -738.5 Q 228 -743 253 -743 Q 278 -743 303.5 -738 Q 329 -733 351 -721 Q 373 -709 390.5 -690 Q 408 -671 419 -648 Q 430 -625 435 -600 Q 440 -575 440 -550 Q 440 -524 434 -498.5 Q 428 -473 416 -450.5 Q 404 -428 385 -409.5 Q 366 -391 343 -379 Q 370 -368 391.5 -348.5 Q 413 -329 427.5 -304.5 Q 442 -280 449 -252 Q 456 -224 456 -196 Q 456 -168 450 -141.5 Q 444 -115 432 -91 Q 420 -67 401 -47 Q 382 -27 358 -14.5 Q 334 -2 307 3 Q 280 8 253 8 Z " id="path4"/>
<path d="M 282 0 L 282 -188 L 52 -188 L 52 -275 L 276 -735 L 377 -735 L 152 -275 L 282 -275 L 282 -435 L 383 -435 L 383 -275 L 440 -275 L 440 -188 L 383 -188 L 383 0 Z " id="path5"/>
<path d="M 252 8 Q 227 8 202.5 3.5 Q 178 -1 155.5 -12 Q 133 -23 114.5 -41 Q 96 -59 84 -80.5 Q 72 -102 65.5 -126.5 Q 59 -151 58 -176 L 159 -176 Q 160 -158 166.5 -139.5 Q 173 -121 185.5 -107 Q 198 -93 216 -86.5 Q 234 -80 252 -80 Q 269 -80 285 -87 Q 301 -94 312.5 -107 Q 324 -120 330.5 -135.5 Q 337 -151 341 -167.5 Q 345 -184 346.5 -201 Q 348 -218 348 -235 Q 348 -252 346.5 -269 Q 345 -286 341.5 -302.5 Q 338 -319 331.5 -334.5 Q 325 -350 314.5 -363 Q 304 -376 288 -383.5 Q 272 -391 256 -391 Q 240 -391 224 -387 Q 208 -383 195.5 -373.5 Q 183 -364 176 -349.5 Q 169 -335 168 -319 L 68 -319 L 68 -735 L 421 -735 L 421 -647 L 168 -647 L 168 -464 Q 189 -472 211 -475 Q 233 -478 256 -478 Q 285 -478 313.5 -470.5 Q 342 -463 365.5 -445.5 Q 389 -428 405.5 -403 Q 422 -378 431.5 -350.5 Q 441 -323 444.5 -294 Q 448 -265 448 -235 Q 448 -206 444.5 -176.5 Q 441 -147 431 -119 Q 421 -91 404.5 -66.5 Q 388 -42 364 -24.5 Q 340 -7 311 0.5 Q 282 8 252 8 Z " id="path6"/>
<path d="M 250 8 Q 221 8 192.5 1.5 Q 164 -5 140 -21 Q 116 -37 98.5 -60.5 Q 81 -84 70.5 -111 Q 60 -138 56 -166.5 Q 52 -195 52 -224 Q 52 -268 59.5 -311 Q 67 -354 81 -395.5 Q 95 -437 113 -477 Q 131 -517 150 -556 L 238 -735 L 347 -735 L 240 -517 Q 228 -492 216 -467 Q 204 -442 194 -416 Q 212 -436 238.5 -446 Q 265 -456 292 -456 Q 318 -456 343.5 -447 Q 369 -438 387.5 -419.5 Q 406 -401 418 -377 Q 430 -353 436.5 -328 Q 443 -303 445.5 -276.5 Q 448 -250 448 -224 Q 448 -195 444 -166.5 Q 440 -138 429.5 -111 Q 419 -84 401.5 -60.5 Q 384 -37 360 -21 Q 336 -5 307.5 1.5 Q 279 8 250 8 Z M 250 -80 Q 266 -80 282 -85.5 Q 298 -91 309.5 -102.5 Q 321 -114 328.5 -129 Q 336 -144 340.5 -159.5 Q 345 -175 346.5 -191.5 Q 348 -208 348 -224 Q 348 -240 346.5 -256.5 Q 345 -273 340.5 -289 Q 336 -305 328.5 -319.5 Q 321 -334 309.5 -345.5 Q 298 -357 282 -362.5 Q 266 -368 250 -368 Q 235 -368 221 -363.5 Q 207 -359 195.5 -349.5 Q 184 -340 176 -327.5 Q 168 -315 163.5 -301 Q 159 -287 156.5 -272.5 Q 154 -258 153 -243 Q 153 -238 152.5 -233.5 Q 152 -229 152 -224 Q 152 -208 153.5 -191.5 Q 155 -175 159.5 -159.5 Q 164 -144 171.5 -129 Q 179 -114 190.5 -102.5 Q 202 -91 218 -85.5 Q 234 -80 250 -80 Z " id="path7"/>
<path d="M 138 0 L 336 -647 L 60 -647 L 60 -735 L 440 -735 L 440 -647 L 242 0 Z " id="path8"/>
<path d="M 250 8 Q 225 8 200 4 Q 175 -0 152 -10 Q 129 -20 109.5 -37 Q 90 -54 77.5 -75.5 Q 65 -97 58.5 -121.5 Q 52 -146 52 -172 Q 52 -203 61.5 -232.5 Q 71 -262 88 -288.5 Q 105 -315 127 -336.5 Q 149 -358 174 -378 Q 152 -396 132.5 -417 Q 113 -438 98.5 -462.5 Q 84 -487 76 -514.5 Q 68 -542 68 -570 Q 68 -594 73.5 -617.5 Q 79 -641 90.5 -661.5 Q 102 -682 119.5 -698.5 Q 137 -715 158 -725 Q 179 -735 202.5 -739 Q 226 -743 250 -743 Q 274 -743 297.5 -739 Q 321 -735 342 -725 Q 363 -715 380.5 -698.5 Q 398 -682 409.5 -661.5 Q 421 -641 426.5 -617.5 Q 432 -594 432 -570 Q 432 -542 424 -514.5 Q 416 -487 401.5 -462.5 Q 387 -438 367.5 -417 Q 348 -396 326 -378 Q 351 -358 373 -336.5 Q 395 -315 412 -288.5 Q 429 -262 438.5 -232.5 Q 448 -203 448 -172 Q 448 -146 441.5 -121.5 Q 435 -97 422.5 -75.5 Q 410 -54 390.5 -37 Q 371 -20 348 -10 Q 325 -0 300 4 Q 275 8 250 8 Z M 250 -434 Q 266 -447 280.5 -461.5 Q 295 -476 306.5 -493 Q 318 -510 325 -529.5 Q 332 -549 332 -569 Q 332 -586 327 -602.5 Q 322 -619 310.5 -631.5 Q 299 -644 283 -649.5 Q 267 -655 250 -655 Q 233 -655 217 -649.5 Q 201 -644 189.5 -631.5 Q 178 -619 173 -602.5 Q 168 -586 168 -569 Q 168 -549 175 -529.5 Q 182 -510 193.5 -493 Q 205 -476 219.5 -461.5 Q 234 -447 250 -434 Z M 250 -80 Q 269 -80 288 -85.5 Q 307 -91 320.5 -104 Q 334 -117 341 -135.5 Q 348 -154 348 -173 Q 348 -196 339.5 -217.5 Q 331 -239 317 -257.5 Q 303 -276 285.5 -291 Q 268 -306 250 -320 Q 232 -306 214.5 -291 Q 197 -276 183 -257.5 Q 169 -239 160.5 -217.5 Q 152 -196 152 -173 Q 152 -154 159 -135.5 Q 166 -117 179.5 -104 Q 193 -91 212 -85.5 Q 231 -80 250 -80 Z " id="path9"/>
<path d="M 262 0 L 153 0 L 260 -218 Q 272 -243 284 -268 Q 296 -293 306 -319 Q 288 -299 261.5 -289 Q 235 -279 208 -279 Q 182 -279 156.5 -288 Q 131 -297 112.5 -315.5 Q 94 -334 82 -358 Q 70 -382 63.5 -407 Q 57 -432 54.5 -458.5 Q 52 -485 52 -511 Q 52 -540 56 -568.5 Q 60 -597 70.5 -624 Q 81 -651 98.5 -674.5 Q 116 -698 140 -714 Q 164 -730 192.5 -736.5 Q 221 -743 250 -743 Q 279 -743 307.5 -736.5 Q 336 -730 360 -714 Q 384 -698 401.5 -674.5 Q 419 -651 429.5 -624 Q 440 -597 444 -568.5 Q 448 -540 448 -511 Q 448 -467 440.5 -424 Q 433 -381 419 -339.5 Q 405 -298 387 -258 Q 369 -218 350 -179 Z M 250 -367 Q 265 -367 279 -371.5 Q 293 -376 304.5 -385.5 Q 316 -395 324 -407.5 Q 332 -420 336.5 -434 Q 341 -448 343.5 -462.5 Q 346 -477 347 -492 Q 347 -497 347.5 -501.5 Q 348 -506 348 -511 Q 348 -527 346.5 -543.5 Q 345 -560 340.5 -575.5 Q 336 -591 328.5 -606 Q 321 -621 309.5 -632.5 Q 298 -644 282 -649.5 Q 266 -655 250 -655 Q 234 -655 218 -649.5 Q 202 -644 190.5 -632.5 Q 179 -621 171.5 -606 Q 164 -591 159.5 -575.5 Q 155 -560 153.5 -543.5 Q 152 -527 152 -511 Q 152 -495 153.5 -478.5 Q 155 -462 159.5 -446 Q 164 -430 171.5 -415.5 Q 179 -401 190.5 -389.5 Q 202 -378 218 -372.5 Q 234 -367 250 -367 Z " id="path10"/>
<path d="M 39 0 L 53 -70 L 192 -735 L 308 -735 L 461 0 L 359 0 L 326 -172 L 174 -172 L 141 0 Z M 310 -260 L 267 -490 Q 263 -513 258.5 -536 Q 254 -559 250 -582 Q 246 -559 241.5 -536 Q 237 -513 233 -490 L 190 -260 Z " id="path11"/>
<path d="M 60 0 L 60 -735 L 235 -735 Q 261 -735 287 -730.5 Q 313 -726 336.5 -714 Q 360 -702 378.5 -682.5 Q 397 -663 408.5 -639.5 Q 420 -616 424.5 -590 Q 429 -564 429 -538 Q 429 -515 425.5 -492 Q 422 -469 411.5 -448.5 Q 401 -428 384.5 -411 Q 368 -394 348 -383 Q 373 -373 394.5 -355.5 Q 416 -338 430.5 -314.5 Q 445 -291 450.5 -264 Q 456 -237 456 -210 Q 456 -181 450.5 -152.5 Q 445 -124 431 -98.5 Q 417 -73 395.5 -53.5 Q 374 -34 347.5 -21.5 Q 321 -9 292.5 -4.5 Q 264 -0 235 0 Z M 160 -424 L 235 -424 Q 256 -424 275.5 -432.5 Q 295 -441 307.5 -457.5 Q 320 -474 324.5 -494.5 Q 329 -515 329 -536 Q 329 -557 324.5 -577.5 Q 320 -598 307.5 -614.5 Q 295 -631 275.5 -639 Q 256 -647 235 -647 L 160 -647 Z M 160 -88 L 235 -88 Q 251 -88 267.5 -91 Q 284 -94 298.5 -101.5 Q 313 -109 324.5 -121 Q 336 -133 343 -148 Q 350 -163 353 -179 Q 356 -195 356 -212 Q 356 -228 353 -244.5 Q 350 -261 343 -276 Q 336 -291 324.5 -303 Q 313 -315 298.5 -322.5 Q 284 -330 267.5 -333 Q 251 -336 235 -336 L 160 -336 Z " id="path12"/>
<path d="M 247 8 Q 220 8 193 3 Q 166 -2 142.5 -15.5 Q 119 -29 101 -49.5 Q 83 -70 71.5 -94.5 Q 60 -119 56 -146 Q 52 -173 52 -200 L 52 -535 Q 52 -562 56 -589 Q 60 -616 71.5 -640.5 Q 83 -665 101 -685.5 Q 119 -706 142.5 -719.5 Q 166 -733 193 -738 Q 220 -743 247 -743 Q 273 -743 298 -738.5 Q 323 -734 346 -723 Q 369 -712 387.5 -694 Q 406 -676 418 -653.5 Q 430 -631 436 -606 Q 442 -581 442 -555 L 442 -548 L 342 -548 L 342 -552 Q 342 -572 336 -591.5 Q 330 -611 317.5 -626 Q 305 -641 286 -648 Q 267 -655 247 -655 Q 225 -655 205 -645.5 Q 185 -636 173 -618 Q 161 -600 156.5 -578.5 Q 152 -557 152 -535 L 152 -200 Q 152 -178 156.5 -156.5 Q 161 -135 173 -117 Q 185 -99 205 -89.5 Q 225 -80 247 -80 Q 267 -80 286 -87 Q 305 -94 317.5 -109 Q 330 -124 336 -143.5 Q 342 -163 342 -183 L 342 -187 L 442 -187 L 442 -180 Q 442 -154 436 -129 Q 430 -104 418 -81.5 Q 406 -59 387.5 -41 Q 369 -23 346 -12 Q 323 -1 298 3.5 Q 273 8 247 8 Z " id="path13"/>
<path d="M 60 0 L 60 -735 L 220 -735 Q 250 -735 280 -730 Q 310 -725 337 -712 Q 364 -699 386.5 -678.5 Q 409 -658 423 -631.5 Q 437 -605 442.5 -575 Q 448 -545 448 -515 L 448 -220 Q 448 -190 442.5 -160 Q 437 -130 423 -103.5 Q 409 -77 386.5 -56.5 Q 364 -36 337 -23 Q 310 -10 280 -5 Q 250 -0 220 0 Z M 160 -88 L 220 -88 Q 237 -88 254.5 -91 Q 272 -94 287.5 -102.5 Q 303 -111 315 -124 Q 327 -137 334.5 -152.5 Q 342 -168 345 -185.5 Q 348 -203 348 -220 L 348 -515 Q 348 -532 345 -549.5 Q 342 -567 334.5 -582.5 Q 327 -598 315 -611 Q 303 -624 287.5 -632.5 Q 272 -641 254.5 -644 Q 237 -647 220 -647 L 160 -647 Z " id="path14"/>
<path d="M 68 0 L 68 -735 L 440 -735 L 440 -647 L 168 -647 L 168 -426 L 383 -426 L 383 -338 L 168 -338 L 168 -88 L 440 -88 L 440 0 Z " id="path15"/>
<path d="M 90 0 L 90 -735 L 440 -735 L 440 -647 L 190 -647 L 190 -426 L 383 -426 L 383 -338 L 190 -338 L 190 0 Z " id="path16"/>
<path d="M 250 8 Q 223 8 196.5 2.5 Q 170 -3 147 -16.5 Q 124 -30 106.5 -50.5 Q 89 -71 78.5 -95.5 Q 68 -120 64 -146.5 Q 60 -173 60 -200 L 60 -735 L 160 -735 L 160 -200 Q 160 -186 161.5 -172 Q 163 -158 167.5 -144.5 Q 172 -131 179.5 -118.5 Q 187 -106 197.5 -97 Q 208 -88 222 -84 Q 236 -80 250 -80 Q 264 -80 278 -84 Q 292 -88 302.5 -97 Q 313 -106 320.5 -118.5 Q 328 -131 332.5 -144.5 Q 337 -158 338.5 -172 Q 340 -186 340 -200 L 340 -735 L 440 -735 L 440 -200 Q 440 -173 436 -146.5 Q 432 -120 421.5 -95.5 Q 411 -71 393.5 -50.5 Q 376 -30 353 -16.5 Q 330 -3 303.5 2.5 Q 277 8 250 8 Z " id="path17"/>
<path d="M 296 -142 L 204 -142 L 204 -300 L 60 -300 L 60 -380 L 204 -380 L 204 -538 L 296 -538 L 296 -380 L 440 -380 L 440 -300 L 296 -300 Z " id="path18"/>
<path d="M 436 -316 L 64 -316 L 64 -364 L 436 -364 Z M 222 -440 Q 204 -440 186 -444 Q 168 -448 154 -459.5 Q 140 -471 133 -488.5 Q 126 -506 126 -524 Q 126 -540 131 -555 Q 136 -570 146.5 -581.5 Q 157 -593 171 -600.5 Q 185 -608 200.5 -612 Q 216 -616 231.5 -617.5 Q 247 -619 262 -619 L 309 -619 L 309 -642 Q 309 -652 303 -660 Q 297 -668 288 -672 Q 279 -676 269.5 -677.5 Q 260 -679 250 -679 Q 241 -679 232 -678 Q 223 -677 214.5 -674.5 Q 206 -672 198.5 -665.5 Q 191 -659 191 -650 L 129 -650 L 129 -653 Q 129 -673 141 -690.5 Q 153 -708 171 -718 Q 189 -728 209.5 -731 Q 230 -734 250 -734 Q 264 -734 278.5 -732.5 Q 293 -731 306.5 -726.5 Q 320 -722 332.5 -714.5 Q 345 -707 353.5 -696 Q 362 -685 366 -671 Q 370 -657 370 -642 L 370 -444 L 309 -444 L 309 -490 Q 303 -478 294 -468 Q 285 -458 273.5 -451.5 Q 262 -445 248.5 -442.5 Q 235 -440 222 -440 Z M 248 -495 Q 259 -495 270 -497.5 Q 281 -500 290 -506 Q 299 -512 304 -522 Q 309 -532 309 -543 L 309 -564 L 262 -564 Q 251 -564 240 -563 Q 229 -562 218 -559 Q 207 -556 197.5 -548.5 Q 188 -541 188 -530 Q 188 -520 194.5 -512.5 Q 201 -505 210 -501.5 Q 219 -498 228.5 -496.5 Q 238 -495 248 -495 Z M 249 54 Q 225 54 201.5 48 Q 178 42 160 26 Q 142 10 134 -13 Q 126 -36 126 -60 L 126 -126 Q 126 -150 134 -173 Q 142 -196 160 -212 Q 178 -228 201.5 -234 Q 225 -240 249 -240 Q 271 -240 293.5 -235 Q 316 -230 334 -217 Q 352 -204 362 -183 Q 372 -162 372 -140 L 372 -137 L 308 -137 L 308 -138 Q 308 -149 303 -158.5 Q 298 -168 289 -173.5 Q 280 -179 269.5 -181 Q 259 -183 249 -183 Q 237 -183 225.5 -180 Q 214 -177 205.5 -169 Q 197 -161 193.5 -149.5 Q 190 -138 190 -126 L 190 -60 Q 190 -48 193.5 -36.5 Q 197 -25 205.5 -17 Q 214 -9 225.5 -6 Q 237 -3 249 -3 Q 259 -3 269.5 -5 Q 280 -7 289 -12.5 Q 298 -18 303 -27.5 Q 308 -37 308 -48 L 308 -49 L 372 -49 L 372 -46 Q 372 -24 362 -3 Q 352 18 334 31 Q 316 44 293.5 49 Q 271 54 249 54 Z " id="path19"/>
<path d="M 436 -316 L 64 -316 L 64 -364 L 436 -364 Z M 222 -440 Q 204 -440 186 -444 Q 168 -448 154 -459.5 Q 140 -471 133 -488.5 Q 126 -506 126 -524 Q 126 -540 131 -555 Q 136 -570 146.5 -581.5 Q 157 -593 171 -600.5 Q 185 -608 200.5 -612 Q 216 -616 231.5 -617.5 Q 247 -619 262 -619 L 309 -619 L 309 -642 Q 309 -652 303 -660 Q 297 -668 288 -672 Q 279 -676 269.5 -677.5 Q 260 -679 250 -679 Q 241 -679 232 -678 Q 223 -677 214.5 -674.5 Q 206 -672 198.5 -665.5 Q 191 -659 191 -650 L 129 -650 L 129 -653 Q 129 -673 141 -690.5 Q 153 -708 171 -718 Q 189 -728 209.5 -731 Q 230 -734 250 -734 Q 264 -734 278.5 -732.5 Q 293 -731 306.5 -726.5 Q 320 -722 332.5 -714.5 Q 345 -707 353.5 -696 Q 362 -685 366 -671 Q 370 -657 370 -642 L 370 -444 L 309 -444 L 309 -490 Q 303 -478 294 -468 Q 285 -458 273.5 -451.5 Q 262 -445 248.5 -442.5 Q 235 -440 222 -440 Z M 248 -495 Q 259 -495 270 -497.5 Q 281 -500 290 -506 Q 299 -512 304 -522 Q 309 -532 309 -543 L 309 -564 L 262 -564 Q 251 -564 240 -563 Q 229 -562 218 -559 Q 207 -556 197.5 -548.5 Q 188 -541 188 -530 Q 188 -520 194.5 -512.5 Q 201 -505 210 -501.5 Q 219 -498 228.5 -496.5 Q 238 -495 248 -495 Z M 250 54 Q 230 54 210 51.5 Q 190 49 172.5 40 Q 155 31 142 14.5 Q 129 -2 129 -22 L 129 -24 L 191 -24 Q 192 -16 200 -11 Q 208 -6 216 -4.5 Q 224 -3 232.5 -2 Q 241 -1 250 -1 Q 259 -1 267.5 -2 Q 276 -3 284.5 -5.5 Q 293 -8 301 -13.5 Q 309 -19 309 -28 Q 309 -38 300.5 -44.5 Q 292 -51 282.5 -54 Q 273 -57 263.5 -58.5 Q 254 -60 244.5 -62.5 Q 235 -65 225.5 -68 Q 216 -71 207 -74.5 Q 198 -78 189 -82.5 Q 180 -87 172 -93 Q 164 -99 157.5 -106 Q 151 -113 145.5 -121.5 Q 140 -130 137.5 -139.5 Q 135 -149 135 -159 Q 135 -179 146 -196.5 Q 157 -214 174 -224 Q 191 -234 211 -237 Q 231 -240 251 -240 Q 271 -240 290 -237 Q 309 -234 326.5 -225 Q 344 -216 355.5 -199.5 Q 367 -183 367 -164 L 367 -162 L 305 -162 Q 305 -170 298 -174.5 Q 291 -179 283 -181 Q 275 -183 267 -184 Q 259 -185 251 -185 Q 243 -185 234.5 -184 Q 226 -183 218 -180.5 Q 210 -178 203.5 -172.5 Q 197 -167 197 -158 Q 197 -148 205 -141.5 Q 213 -135 222.5 -132.5 Q 232 -130 241.5 -128 Q 251 -126 260.5 -123.5 Q 270 -121 279.5 -118 Q 289 -115 298 -111.5 Q 307 -108 316 -103.5 Q 325 -99 333 -93 Q 341 -87 348 -80 Q 355 -73 360 -64.5 Q 365 -56 368 -46.5 Q 371 -37 371 -27 Q 371 -7 359 10.5 Q 347 28 329 38 Q 311 48 290.5 51 Q 270 54 250 54 Z " id="path20"/>
<path d="M 247 8 Q 221 8 194.5 3 Q 168 -2 145 -15 Q 122 -28 104 -48 Q 86 -68 75 -92 Q 64 -116 60 -142.5 Q 56 -169 56 -195 L 56 -540 Q 56 -566 60 -592.5 Q 64 -619 75 -643 Q 86 -667 104 -687 Q 122 -707 145 -720 Q 168 -733 194.5 -738 Q 221 -743 247 -743 Q 272 -743 296.5 -739 Q 321 -735 343.5 -724 Q 366 -713 384.5 -695.5 Q 403 -678 415 -656.5 Q 427 -635 432.5 -610.5 Q 438 -586 438 -561 L 438 -555 L 384 -555 L 384 -560 Q 384 -587 375 -613 Q 366 -639 346.5 -658.5 Q 327 -678 300.5 -686 Q 274 -694 247 -694 Q 239 -694 231 -693.5 Q 223 -693 215 -692 L 215 -43 Q 223 -42 231 -41.5 Q 239 -41 247 -41 Q 274 -41 300.5 -49 Q 327 -57 346.5 -76.5 Q 366 -96 375 -122 Q 384 -148 384 -175 L 384 -180 L 438 -180 L 438 -174 Q 438 -149 432.5 -124.5 Q 427 -100 415 -78.5 Q 403 -57 384.5 -39.5 Q 366 -22 343.5 -11 Q 321 0 296.5 4 Q 272 8 247 8 Z M 161 -67 L 161 -668 Q 147 -657 137 -642 Q 127 -627 120.5 -610.5 Q 114 -594 112 -576 Q 110 -558 110 -540 L 110 -195 Q 110 -177 112 -159 Q 114 -141 120.5 -124.5 Q 127 -108 137 -93 Q 147 -78 161 -67 Z " id="path21"/>
<path d="M 110 -561 Q 91 -561 72 -568 Q 53 -575 40.5 -589.5 Q 28 -604 22.5 -623.5 Q 17 -643 17 -663 Q 17 -682 22.5 -701.5 Q 28 -721 40.5 -736 Q 53 -751 72 -758 Q 91 -765 110 -765 Q 130 -765 149 -758 Q 168 -751 180.5 -736 Q 193 -721 198 -701.5 Q 203 -682 203 -663 Q 203 -643 198 -623.5 Q 193 -604 180.5 -589.5 Q 168 -575 149 -568 Q 130 -561 110 -561 Z M 110 -616 Q 119 -616 128 -619 Q 137 -622 142.5 -629 Q 148 -636 150.5 -645 Q 153 -654 153 -663 Q 153 -672 150.5 -681 Q 148 -690 142.5 -696.5 Q 137 -703 128 -706.5 Q 119 -710 110 -710 Q 101 -710 92.5 -706.5 Q 84 -703 78 -696.5 Q 72 -690 70 -681 Q 68 -672 68 -663 Q 68 -654 70 -645 Q 72 -636 78 -629 Q 84 -622 92.5 -619 Q 101 -616 110 -616 Z M 366 8 Q 344 8 322.5 -0.5 Q 301 -9 286 -26 Q 271 -43 261.5 -63.5 Q 252 -84 246.5 -106 Q 241 -128 239.5 -150.5 Q 238 -173 238 -195 L 238 -540 Q 238 -562 239.5 -584.5 Q 241 -607 246.5 -629 Q 252 -651 261.5 -671.5 Q 271 -692 286 -709 Q 301 -726 322.5 -734.5 Q 344 -743 366 -743 Q 387 -743 407 -736 Q 427 -729 442 -714.5 Q 457 -700 467 -681.5 Q 477 -663 483 -643 Q 489 -623 491.5 -602.5 Q 494 -582 494 -561 L 494 -555 L 424 -555 L 424 -558 Q 424 -570 423 -582 Q 422 -594 419.5 -605.5 Q 417 -617 413.5 -628 Q 410 -639 404 -649 Q 398 -659 388 -666 Q 378 -673 366 -673 Q 353 -673 342.5 -664 Q 332 -655 326 -643.5 Q 320 -632 317 -619 Q 314 -606 312 -593 Q 310 -580 309 -566.5 Q 308 -553 308 -540 L 308 -195 Q 308 -182 309 -168.5 Q 310 -155 312 -142 Q 314 -129 317 -116 Q 320 -103 326 -91.5 Q 332 -80 342.5 -71 Q 353 -62 366 -62 Q 378 -62 388 -69 Q 398 -76 404 -86 Q 410 -96 413.5 -107 Q 417 -118 419.5 -129.5 Q 422 -141 423 -153 Q 424 -165 424 -177 L 424 -180 L 494 -180 L 494 -174 Q 494 -153 491.5 -132.5 Q 489 -112 483 -92 Q 477 -72 467 -53.5 Q 457 -35 442 -20.5 Q 427 -6 407 1 Q 387 8 366 8 Z " id="path22"/>
<path d="M 64 0 L 64 -735 L 436 -735 L 436 0 Z M 104 -333 L 394 -695 L 300 -695 L 104 -450 Z M 104 -489 L 269 -695 L 175 -695 L 104 -606 Z M 104 -645 L 144 -695 L 104 -695 Z M 104 -176 L 396 -543 L 396 -660 L 104 -294 Z M 104 -40 L 119 -40 L 396 -386 L 396 -504 L 104 -137 Z M 150 -40 L 244 -40 L 396 -230 L 396 -347 Z M 275 -40 L 369 -40 L 396 -74 L 396 -191 Z " id="path23"/>
<path d="M 436 -316 L 64 -316 L 64 -364 L 436 -364 Z M 249 -440 Q 225 -440 201.5 -446 Q 178 -452 160 -468 Q 142 -484 134 -507 Q 126 -530 126 -554 L 126 -620 Q 126 -644 134 -667 Q 142 -690 160 -706 Q 178 -722 201.5 -728 Q 225 -734 249 -734 Q 271 -734 293.5 -729 Q 316 -724 334 -711 Q 352 -698 362 -677 Q 372 -656 372 -634 L 372 -631 L 308 -631 L 308 -632 Q 308 -643 303 -652.5 Q 298 -662 289 -667.5 Q 280 -673 269.5 -675 Q 259 -677 249 -677 Q 237 -677 225.5 -674 Q 214 -671 205.5 -663 Q 197 -655 193.5 -643.5 Q 190 -632 190 -620 L 190 -554 Q 190 -542 193.5 -530.5 Q 197 -519 205.5 -511 Q 214 -503 225.5 -500 Q 237 -497 249 -497 Q 259 -497 269.5 -499 Q 280 -501 289 -506.5 Q 298 -512 303 -521.5 Q 308 -531 308 -542 L 308 -543 L 372 -543 L 372 -540 Q 372 -518 362 -497 Q 352 -476 334 -463 Q 316 -450 293.5 -445 Q 271 -440 249 -440 Z M 251 54 Q 226 54 202.5 48 Q 179 42 161 26 Q 143 10 134.5 -13 Q 126 -36 126 -60 L 126 -126 Q 126 -150 134.5 -173 Q 143 -196 161 -212 Q 179 -228 202.5 -234 Q 226 -240 250 -240 Q 275 -240 298.5 -234 Q 322 -228 340 -212 Q 358 -196 366.5 -173 Q 375 -150 375 -126 L 375 -60 Q 375 -36 366.5 -13 Q 358 10 340 26 Q 322 42 298.5 48 Q 275 54 251 54 Z M 250 -3 Q 262 -3 274 -6 Q 286 -9 294.5 -17 Q 303 -25 307 -36.5 Q 311 -48 311 -60 L 311 -126 Q 311 -138 307 -149.5 Q 303 -161 294.5 -169 Q 286 -177 274 -180 Q 262 -183 251 -183 Q 239 -183 227 -180 Q 215 -177 206.5 -169 Q 198 -161 194 -149.5 Q 190 -138 190 -126 L 190 -60 Q 190 -48 194 -36.5 Q 198 -25 206.5 -17 Q 215 -9 227 -6 Q 239 -3 250 -3 Z " id="path24"/>
<path d="M 436 -316 L 64 -316 L 64 -364 L 436 -364 Z M 249 -440 Q 225 -440 201.5 -446 Q 178 -452 160 -468 Q 142 -484 134 -507 Q 126 -530 126 -554 L 126 -620 Q 126 -644 134 -667 Q 142 -690 160 -706 Q 178 -722 201.5 -728 Q 225 -734 249 -734 Q 271 -734 293.5 -729 Q 316 -724 334 -711 Q 352 -698 362 -677 Q 372 -656 372 -634 L 372 -631 L 308 -631 L 308 -632 Q 308 -643 303 -652.5 Q 298 -662 289 -667.5 Q 280 -673 269.5 -675 Q 259 -677 249 -677 Q 237 -677 225.5 -674 Q 214 -671 205.5 -663 Q 197 -655 193.5 -643.5 Q 190 -632 190 -620 L 190 -554 Q 190 -542 193.5 -530.5 Q 197 -519 205.5 -511 Q 214 -503 225.5 -500 Q 237 -497 249 -497 Q 259 -497 269.5 -499 Q 280 -501 289 -506.5 Q 298 -512 303 -521.5 Q 308 -531 308 -542 L 308 -543 L 372 -543 L 372 -540 Q 372 -518 362 -497 Q 352 -476 334 -463 Q 316 -450 293.5 -445 Q 271 -440 249 -440 Z M 224 54 Q 203 54 183.5 45.5 Q 164 37 151.5 20 Q 139 3 135 -18 Q 131 -39 131 -60 L 131 -236 L 194 -236 L 194 -60 Q 194 -49 197.5 -37.5 Q 201 -26 209 -18 Q 217 -10 228 -6.5 Q 239 -3 250 -3 Q 262 -3 273 -6.5 Q 284 -10 292 -18 Q 300 -26 303.5 -37.5 Q 307 -49 307 -60 L 307 -236 L 370 -236 L 370 50 L 307 50 L 307 0 Q 302 12 293.5 22.5 Q 285 33 274 40.5 Q 263 48 250 51 Q 237 54 224 54 Z " id="path25"/>
<path d="M 247 8 Q 220 8 192.5 2.5 Q 165 -3 141 -16.5 Q 117 -30 98.5 -51 Q 80 -72 68.5 -97.5 Q 57 -123 52.5 -150.5 Q 48 -178 48 -205 Q 48 -233 53 -260.5 Q 58 -288 71.5 -312 Q 85 -336 106.5 -354.5 Q 128 -373 154 -383 Q 132 -394 113.5 -411 Q 95 -428 83.5 -449.5 Q 72 -471 68 -495.5 Q 64 -520 64 -544 Q 64 -570 68 -595.5 Q 72 -621 82.5 -644 Q 93 -667 110 -687 Q 127 -707 149 -720 Q 171 -733 196 -738 Q 221 -743 247 -743 Q 271 -743 295.5 -738.5 Q 320 -734 341.5 -723 Q 363 -712 380 -694.5 Q 397 -677 408 -655.5 Q 419 -634 424.5 -610 Q 430 -586 430 -561 L 430 -555 L 352 -555 L 352 -559 Q 352 -581 346 -602.5 Q 340 -624 325.5 -640.5 Q 311 -657 290 -665 Q 269 -673 247 -673 Q 223 -673 201 -663 Q 179 -653 165.5 -633.5 Q 152 -614 147 -590.5 Q 142 -567 142 -543 Q 142 -519 147 -495.5 Q 152 -472 166.5 -453.5 Q 181 -435 203.5 -426 Q 226 -417 250 -417 L 306 -417 L 306 -347 L 250 -347 Q 232 -347 214.5 -343.5 Q 197 -340 182 -330.5 Q 167 -321 155.5 -307 Q 144 -293 137.5 -276.5 Q 131 -260 128.5 -242.5 Q 126 -225 126 -207 Q 126 -189 128.5 -171 Q 131 -153 137 -136.5 Q 143 -120 154 -105.5 Q 165 -91 179.5 -80.5 Q 194 -70 211.5 -66 Q 229 -62 247 -62 Q 271 -62 294 -69 Q 317 -76 334.5 -92.5 Q 352 -109 360 -131.5 Q 368 -154 368 -178 L 368 -180 L 446 -180 L 446 -177 Q 446 -151 440 -126 Q 434 -101 421 -79 Q 408 -57 389 -39.5 Q 370 -22 347 -11 Q 324 0 298.5 4 Q 273 8 247 8 Z " id="path26"/>
<path d="M 253 8 Q 228 8 203.5 4 Q 179 0 156.5 -11 Q 134 -22 115.5 -39.5 Q 97 -57 85 -78.5 Q 73 -100 67.5 -124.5 Q 62 -149 62 -174 L 62 -180 L 140 -180 L 140 -176 Q 140 -153 147 -131 Q 154 -109 170 -92.5 Q 186 -76 208 -69 Q 230 -62 253 -62 Q 278 -62 301.5 -72 Q 325 -82 340 -101.5 Q 355 -121 360.5 -145.5 Q 366 -170 366 -195 L 366 -333 L 194 -333 L 194 -403 L 366 -403 L 366 -540 Q 366 -565 360.5 -589.5 Q 355 -614 340 -633.5 Q 325 -653 301.5 -663 Q 278 -673 253 -673 Q 230 -673 208 -666 Q 186 -659 170 -642.5 Q 154 -626 147 -604 Q 140 -582 140 -559 L 140 -555 L 62 -555 L 62 -561 Q 62 -586 67.5 -610.5 Q 73 -635 85 -656.5 Q 97 -678 115.5 -695.5 Q 134 -713 156.5 -724 Q 179 -735 203.5 -739 Q 228 -743 253 -743 Q 279 -743 305.5 -738 Q 332 -733 355 -720 Q 378 -707 396 -687 Q 414 -667 425 -643 Q 436 -619 440 -592.5 Q 444 -566 444 -540 L 444 -195 Q 444 -169 440 -142.5 Q 436 -116 425 -92 Q 414 -68 396 -48 Q 378 -28 355 -15 Q 332 -2 305.5 3 Q 279 8 253 8 Z " id="path27"/>
<path d="M 110 -561 Q 91 -561 72 -568 Q 53 -575 40.5 -589.5 Q 28 -604 22.5 -623.5 Q 17 -643 17 -663 Q 17 -682 22.5 -701.5 Q 28 -721 40.5 -736 Q 53 -751 72 -758 Q 91 -765 110 -765 Q 130 -765 149 -758 Q 168 -751 180.5 -736 Q 193 -721 198 -701.5 Q 203 -682 203 -663 Q 203 -643 198 -623.5 Q 193 -604 180.5 -589.5 Q 168 -575 149 -568 Q 130 -561 110 -561 Z M 110 -616 Q 119 -616 128 -619 Q 137 -622 142.5 -629 Q 148 -636 150.5 -645 Q 153 -654 153 -663 Q 153 -672 150.5 -681 Q 148 -690 142.5 -696.5 Q 137 -703 128 -706.5 Q 119 -710 110 -710 Q 101 -710 92.5 -706.5 Q 84 -703 78 -696.5 Q 72 -690 70 -681 Q 68 -672 68 -663 Q 68 -654 70 -645 Q 72 -636 78 -629 Q 84 -622 92.5 -619 Q 101 -616 110 -616 Z M 274 0 L 274 -735 L 492 -735 L 492 -665 L 345 -665 L 345 -417 L 455 -417 L 455 -347 L 345 -347 L 345 0 Z " id="path28"/>
<path d="M 378 248 Q 361 233 348 214 Q 335 195 326 174 Q 317 153 312.5 130.5 Q 308 108 308 86 L 308 68 Q 308 30 317.5 -7.5 Q 327 -45 339 -81 L 347 -108 Q 358 -142 367.5 -177 Q 377 -212 378 -248 Q 377 -272 368.5 -296 Q 360 -320 345.5 -340 Q 331 -360 311.5 -375 Q 292 -390 268 -399 L 263 -397 L 164 -351 L 164 -295 Q 164 -271 162.5 -246.5 Q 161 -222 156 -198 Q 151 -174 140.5 -152 Q 130 -130 116 -110 Q 140 -88 170 -74.5 Q 200 -61 233 -59 L 287 -88 L 304 -88 L 304 -71 L 255 -21 L 199 9 L 182 9 Q 162 9 143 5 Q 124 1 106 -7 Q 88 -15 71.5 -26 Q 55 -37 41 -51 L 41 -68 Q 58 -88 70 -111.5 Q 82 -135 88 -160 Q 94 -185 95.5 -211 Q 97 -237 97 -263 L 97 -531 L 69 -549 L 69 -573 Q 69 -599 80 -624 Q 91 -649 111 -666 L 148 -703 Q 159 -717 174.5 -726.5 Q 190 -736 207 -741.5 Q 224 -747 241.5 -749.5 Q 259 -752 277 -752 L 294 -752 Q 335 -752 374.5 -737 Q 414 -722 445 -696 L 445 -679 L 395 -629 L 378 -629 Q 348 -655 311 -669.5 Q 274 -684 235 -685 Q 213 -684 191.5 -679.5 Q 170 -675 150 -665 Q 144 -653 140.5 -640.5 Q 137 -628 136 -615 L 164 -597 L 164 -402 L 308 -469 L 325 -469 Q 351 -461 373.5 -445 Q 396 -429 411.5 -407.5 Q 427 -386 436 -360 Q 445 -334 445 -307 L 445 -289 Q 445 -262 440 -235.5 Q 435 -209 427.5 -183 Q 420 -157 411 -131 Q 402 -105 394.5 -79 Q 387 -53 381 -26.5 Q 375 -0 375 27 Q 375 49 380 70 Q 385 91 394 111 Q 403 131 416 149 Q 429 167 445 182 L 445 199 L 395 248 Z " id="path29"/>
<path d="M 382 -49 L 382 -686 L 339 -686 L 339 -49 Z M 161 -49 L 161 -686 L 118 -686 L 118 -49 Z M 64 0 L 64 -735 L 215 -735 L 215 -404 L 285 -404 L 285 -735 L 436 -735 L 436 0 L 285 0 L 285 -355 L 215 -355 L 215 0 Z " id="path30"/>
<path d="M 8 0 L 129 -735 L 208 -735 L 159 -438 Q 170 -458 184.5 -475 Q 199 -492 218 -504.5 Q 237 -517 258.5 -522.5 Q 280 -528 301 -528 Q 327 -528 351.5 -520 Q 376 -512 393.5 -494.5 Q 411 -477 420.5 -454 Q 430 -431 434 -405.5 Q 438 -380 436 -353.5 Q 434 -327 430 -301 L 380 0 L 301 0 L 352 -312 Q 355 -329 356.5 -346 Q 358 -363 355.5 -379.5 Q 353 -396 346.5 -411 Q 340 -426 329 -437 Q 318 -448 302.5 -453 Q 287 -458 270 -458 Q 247 -458 223.5 -449.5 Q 200 -441 182.5 -423.5 Q 165 -406 155.5 -383 Q 146 -360 143 -337 L 87 0 Z " id="path31"/>
<path d="M 8 0 L 105 -586 L 60 -586 L 60 -647 L 115 -647 L 129 -735 L 208 -735 L 194 -647 L 291 -647 L 291 -586 L 184 -586 L 159 -438 Q 170 -458 184.5 -475 Q 199 -492 218 -504.5 Q 237 -517 258.5 -522.5 Q 280 -528 301 -528 Q 327 -528 351.5 -520 Q 376 -512 393.5 -494.5 Q 411 -477 420.5 -454 Q 430 -431 434 -405.5 Q 438 -380 436 -353.5 Q 434 -327 430 -301 L 380 0 L 301 0 L 352 -312 Q 355 -329 356.5 -346 Q 358 -363 355.5 -379.5 Q 353 -396 346.5 -411 Q 340 -426 329 -437 Q 318 -448 302.5 -453 Q 287 -458 270 -458 Q 247 -458 223.5 -449.5 Q 200 -441 182.5 -423.5 Q 165 -406 155.5 -383 Q 146 -360 143 -337 L 87 0 Z " id="path32"/>
<path d="M 59 -381 L 59 -399 Q 71 -411 80.5 -426 Q 90 -441 92 -458 Q 90 -474 79 -486.5 Q 68 -499 56 -510 Q 44 -521 34.5 -534.5 Q 25 -548 25 -565 L 25 -582 Q 25 -601 35 -618.5 Q 45 -636 59 -650 Q 61 -652 63.5 -654 Q 66 -656 68 -659 L 111 -702 Q 120 -712 130 -721.5 Q 140 -731 151.5 -738.5 Q 163 -746 176 -751 Q 189 -756 203 -756 L 220 -756 Q 239 -756 254.5 -744.5 Q 270 -733 283 -720 Q 295 -707 308 -696.5 Q 321 -686 338 -684 Q 359 -687 376.5 -699 Q 394 -711 409 -725 L 409 -726 L 427 -744 L 445 -744 L 445 -726 Q 441 -723 438 -720 Q 435 -717 432 -714 L 385 -667 Q 376 -658 366.5 -649 Q 357 -640 346 -633 Q 335 -626 322.5 -621.5 Q 310 -617 297 -617 L 280 -617 Q 262 -617 247 -627 Q 232 -637 220 -650 Q 208 -663 194 -674.5 Q 180 -686 162 -688 L 157 -688 L 155 -687 L 152 -687 L 152 -686 L 149 -686 L 148 -685 L 145 -685 L 144 -684 L 139 -682 L 138 -682 L 137 -681 L 135 -680 L 133 -680 L 132 -679 L 130 -678 L 128 -676 L 126 -676 L 124 -674 L 120 -672 L 117 -669 L 115 -668 L 114 -668 L 113 -666 L 111 -665 L 110 -664 L 109 -664 L 106 -661 Q 98 -651 92.5 -639.5 Q 87 -628 85 -615 Q 87 -599 98 -586.5 Q 109 -574 121.5 -563.5 Q 134 -553 143 -539 Q 152 -525 152 -509 L 152 -492 Q 152 -472 142 -454.5 Q 132 -437 118 -424 L 76 -381 Z M 220 17 Q 199 17 179 14 Q 159 11 140 3.5 Q 121 -4 104.5 -16 Q 88 -28 76.5 -45 Q 65 -62 59 -81.5 Q 53 -101 53 -122 L 53 -144 L 103 -193 L 120 -193 L 120 -184 Q 121 -155 134 -128 Q 147 -101 169.5 -83.5 Q 192 -66 220.5 -58.5 Q 249 -51 278 -50 Q 301 -51 324 -56 Q 347 -61 367 -72 Q 375 -87 380 -103.5 Q 385 -120 386 -137 Q 385 -158 378 -177.5 Q 371 -197 359.5 -214.5 Q 348 -232 334 -247 Q 320 -262 306 -276 L 304 -278 Q 288 -294 273.5 -310 Q 259 -326 248 -344.5 Q 237 -363 230.5 -384.5 Q 224 -406 224 -427 L 224 -444 Q 224 -460 227 -475 Q 230 -490 236 -504.5 Q 242 -519 252 -531 Q 262 -543 275 -551 L 308 -572 Q 317 -578 326.5 -580.5 Q 336 -583 346 -583 L 363 -583 Q 377 -583 391 -580.5 Q 405 -578 417 -571 Q 429 -564 437 -552 Q 445 -540 447 -527 L 447 -510 L 427 -490 L 410 -490 Q 409 -503 402 -514 Q 395 -525 384 -532 Q 373 -539 360.5 -542 Q 348 -545 336 -546 Q 329 -545 323 -544 Q 317 -543 311 -542 Q 301 -529 296.5 -514 Q 292 -499 291 -483 Q 293 -455 305.5 -429 Q 318 -403 336.5 -381.5 Q 355 -360 375.5 -340.5 Q 396 -321 413.5 -299 Q 431 -277 442 -250.5 Q 453 -224 453 -196 L 453 -178 Q 453 -150 442 -122.5 Q 431 -95 411 -75 L 388 -52 L 364 -29 Q 352 -16 337 -7 Q 322 2 305.5 7.5 Q 289 13 271.5 15 Q 254 17 237 17 Z " id="path33"/>
<path d="M 304 8 Q 284 8 265 -0.5 Q 246 -9 233 -24.5 Q 220 -40 212 -59 Q 204 -78 199.5 -97.5 Q 195 -117 193.5 -137 Q 192 -157 192 -178 L 192 -255 Q 168 -242 143.5 -232.5 Q 119 -223 93 -218 L 80 -268 Q 110 -275 138 -287.5 Q 166 -300 192 -318 L 192 -558 Q 192 -576 193 -595 Q 194 -614 198 -632.5 Q 202 -651 208.5 -669 Q 215 -687 226.5 -702 Q 238 -717 255 -726 Q 272 -735 291 -735 Q 307 -735 323 -729 Q 339 -723 351 -711.5 Q 363 -700 370.5 -685 Q 378 -670 382 -654 Q 386 -638 387.5 -621.5 Q 389 -605 389 -588 Q 389 -549 381 -511 Q 373 -473 357.5 -437.5 Q 342 -402 320 -370 Q 298 -338 269 -311 L 269 -178 Q 269 -166 269.5 -155 Q 270 -144 271.5 -132.5 Q 273 -121 275.5 -110 Q 278 -99 283 -89 Q 288 -79 296 -70.5 Q 304 -62 316 -62 Q 327 -62 335.5 -69.5 Q 344 -77 349 -86.5 Q 354 -96 357 -106.5 Q 360 -117 361.5 -128 Q 363 -139 364 -149.5 Q 365 -160 365 -171 L 365 -173 L 416 -170 L 416 -167 Q 416 -148 413.5 -128.5 Q 411 -109 406.5 -90.5 Q 402 -72 393.5 -54 Q 385 -36 372.5 -21.5 Q 360 -7 341.5 0.5 Q 323 8 304 8 Z M 269 -394 Q 300 -436 316 -486 Q 332 -536 332 -588 Q 332 -597 332 -606 Q 332 -615 331 -624 Q 330 -633 328.5 -642 Q 327 -651 324 -659.5 Q 321 -668 315.5 -676 Q 310 -684 301 -684 Q 294 -684 289.5 -678 Q 285 -672 282.5 -665.5 Q 280 -659 278.5 -652.5 Q 277 -646 275.5 -639.5 Q 274 -633 273 -626 Q 272 -619 271.5 -612 Q 271 -605 270.5 -598.5 Q 270 -592 270 -585 Q 270 -578 269.5 -571 Q 269 -564 269 -558 Z " id="path34"/>
<path d="M 353 0 L 118 -474 L 118 0 L 64 0 L 64 -735 L 147 -735 L 382 -261 L 382 -735 L 436 -735 L 436 0 Z M 382 -60 L 382 -142 L 118 -675 L 118 -593 Z " id="path35"/>
<path d="M 14 0 L 14 -735 L 76 -735 L 177 -170 Q 174 -238 171 -305.5 Q 168 -373 168 -441 L 168 -735 L 224 -735 L 224 0 L 162 0 L 62 -565 Q 65 -497 68 -429.5 Q 71 -362 71 -294 L 71 0 Z M 381 -83 Q 365 -83 349.5 -89 Q 334 -95 322.5 -106.5 Q 311 -118 302.5 -132.5 Q 294 -147 288.5 -162.5 Q 283 -178 279.5 -194 Q 276 -210 274 -226 Q 272 -242 271.5 -258.5 Q 271 -275 271 -291 L 271 -320 Q 271 -336 271.5 -352.5 Q 272 -369 274 -385.5 Q 276 -402 279.5 -417.5 Q 283 -433 288.5 -449 Q 294 -465 302.5 -479 Q 311 -493 322.5 -504.5 Q 334 -516 349.5 -522 Q 365 -528 381 -528 Q 398 -528 413 -522 Q 428 -516 440 -504.5 Q 452 -493 460 -479 Q 468 -465 473.5 -449 Q 479 -433 482.5 -417.5 Q 486 -402 488.5 -385.5 Q 491 -369 491.5 -352.5 Q 492 -336 492 -320 L 492 -291 Q 492 -275 491.5 -258.5 Q 491 -242 488.5 -226 Q 486 -210 482.5 -194 Q 479 -178 473.5 -162.5 Q 468 -147 460 -132.5 Q 452 -118 440 -106.5 Q 428 -95 413 -89 Q 398 -83 381 -83 Z M 381 -153 Q 391 -153 399.5 -159 Q 408 -165 413.5 -174 Q 419 -183 422.5 -192.5 Q 426 -202 428 -211.5 Q 430 -221 431.5 -231 Q 433 -241 434 -251 Q 435 -261 435.5 -271 Q 436 -281 436 -291 L 436 -320 Q 436 -330 435.5 -340 Q 435 -350 434 -360 Q 433 -370 431.5 -380 Q 430 -390 428 -400 Q 426 -410 422.5 -419.5 Q 419 -429 413.5 -437.5 Q 408 -446 399.5 -452 Q 391 -458 381 -458 Q 372 -458 363 -452 Q 354 -446 348.5 -437.5 Q 343 -429 340 -419.5 Q 337 -410 334.5 -400 Q 332 -390 330.5 -380 Q 329 -370 328 -360 Q 327 -350 327 -340 Q 327 -330 327 -320 L 327 -291 Q 327 -281 327 -271 Q 327 -261 328 -251 Q 329 -241 330.5 -231 Q 332 -221 334.5 -211.5 Q 337 -202 340 -192.5 Q 343 -183 348.5 -174 Q 354 -165 363 -159 Q 372 -153 381 -153 Z M 276 0 L 276 -56 L 486 -56 L 486 0 Z " id="path36"/>
<path d="M 250 32 Q 220 32 190 26 Q 160 20 133.5 5 Q 107 -10 86.5 -33 Q 66 -56 53.5 -83.5 Q 41 -111 36.5 -141.5 Q 32 -172 32 -202 L 32 -478 Q 32 -508 36.5 -538.5 Q 41 -569 53.5 -596.5 Q 66 -624 86.5 -647 Q 107 -670 133.5 -685 Q 160 -700 190 -706 Q 220 -712 250 -712 Q 280 -712 310 -706 Q 340 -700 366.5 -685 Q 393 -670 413.5 -647 Q 434 -624 446.5 -596.5 Q 459 -569 463.5 -538.5 Q 468 -508 468 -478 L 468 -202 Q 468 -172 463.5 -141.5 Q 459 -111 446.5 -83.5 Q 434 -56 413.5 -33 Q 393 -10 366.5 5 Q 340 20 310 26 Q 280 32 250 32 Z M 250 -19 Q 273 -19 296 -24 Q 319 -29 338.5 -41 Q 358 -53 373 -71.5 Q 388 -90 396.5 -111.5 Q 405 -133 408.5 -156 Q 412 -179 412 -202 L 412 -478 Q 412 -501 408.5 -524 Q 405 -547 396.5 -568.5 Q 388 -590 373 -608.5 Q 358 -627 338.5 -639 Q 319 -651 296 -656 Q 273 -661 250 -661 Q 227 -661 204 -656 Q 181 -651 161.5 -639 Q 142 -627 127 -608.5 Q 112 -590 103.5 -568.5 Q 95 -547 91.5 -524 Q 88 -501 88 -478 L 88 -202 Q 88 -179 91.5 -156 Q 95 -133 103.5 -111.5 Q 112 -90 127 -71.5 Q 142 -53 161.5 -41 Q 181 -29 204 -24 Q 227 -19 250 -19 Z M 157 -138 L 157 -542 L 252 -542 Q 275 -542 297.5 -533.5 Q 320 -525 335 -507 Q 350 -489 356 -466 Q 362 -443 362 -420 Q 362 -396 356 -373 Q 350 -350 335 -332 Q 320 -314 297.5 -305.5 Q 275 -297 252 -297 L 213 -297 L 213 -138 Z M 213 -348 L 252 -348 Q 265 -348 276.5 -354 Q 288 -360 294.5 -371 Q 301 -382 303.5 -394.5 Q 306 -407 306 -420 Q 306 -432 303.5 -445 Q 301 -458 294.5 -468.5 Q 288 -479 276.5 -485.5 Q 265 -492 252 -492 L 213 -492 Z " id="path37"/>
<path d="M 131 223 Q 115 223 101.5 213.5 Q 88 204 80 190.5 Q 72 177 67.5 162 Q 63 147 60.5 131 Q 58 115 57 99.5 Q 56 84 56 68 Q 56 1 62 -66 Q 68 -133 81 -199 Q 70 -241 63 -285 Q 56 -329 56 -373 Q 56 -414 66 -454 Q 76 -494 94 -530 L 141 -510 Q 127 -478 120 -443 Q 113 -408 113 -373 Q 113 -362 113.5 -351 Q 114 -340 116 -328 Q 124 -352 133.5 -374.5 Q 143 -397 154.5 -418.5 Q 166 -440 180 -460 Q 194 -480 211.5 -497 Q 229 -514 251.5 -525 Q 274 -536 298 -536 Q 320 -536 340.5 -528 Q 361 -520 376.5 -504.5 Q 392 -489 402.5 -470 Q 413 -451 420 -430.5 Q 427 -410 432 -389 Q 437 -368 439.5 -346.5 Q 442 -325 443 -303.5 Q 444 -282 444 -260 Q 444 -239 443.5 -218.5 Q 443 -198 441 -178 Q 439 -158 435.5 -137.5 Q 432 -117 426.5 -97 Q 421 -77 413.5 -58 Q 406 -39 394 -22.5 Q 382 -6 364 5 Q 346 16 325 16 Q 307 16 289.5 9.5 Q 272 3 258.5 -9.5 Q 245 -22 236.5 -38.5 Q 228 -55 223 -72.5 Q 218 -90 215.5 -108.5 Q 213 -127 213 -145 L 213 -156 L 264 -156 L 264 -149 Q 264 -139 265 -129 Q 266 -119 268 -109.5 Q 270 -100 273 -90 Q 276 -80 281 -71.5 Q 286 -63 294.5 -57.5 Q 303 -52 313 -52 Q 325 -52 333 -61 Q 341 -70 345.5 -80.5 Q 350 -91 353 -102 Q 356 -113 358.5 -124 Q 361 -135 362.5 -146.5 Q 364 -158 365 -169 Q 366 -180 367 -191.5 Q 368 -203 368.5 -214.5 Q 369 -226 369 -237.5 Q 369 -249 369 -260 Q 369 -275 368.5 -290 Q 368 -305 367 -320 Q 366 -335 363.5 -350 Q 361 -365 358 -380 Q 355 -395 350 -409 Q 345 -423 337.5 -436 Q 330 -449 317 -458.5 Q 304 -468 289 -468 Q 270 -468 254 -457.5 Q 238 -447 225.5 -432.5 Q 213 -418 203.5 -402 Q 194 -386 186.5 -368.5 Q 179 -351 172.5 -333.5 Q 166 -316 160.5 -297.5 Q 155 -279 150.5 -261 Q 146 -243 142 -224 Q 147 -209 152.5 -194 Q 158 -179 163 -165 L 164 -163 Q 174 -135 184 -106.5 Q 194 -78 201.5 -49.5 Q 209 -21 214 8.5 Q 219 38 219 68 Q 219 85 217.5 101.5 Q 216 118 213 134 Q 210 150 204 165.5 Q 198 181 188 194.5 Q 178 208 163 215.5 Q 148 223 131 223 Z M 131 172 Q 137 172 139 166 Q 141 160 142.5 154.5 Q 144 149 145 144 Q 146 139 146.5 133.5 Q 147 128 147.5 122.5 Q 148 117 148.5 111.5 Q 149 106 149 100.5 Q 149 95 149 89.5 Q 149 84 149 78.5 Q 149 73 149 68 Q 149 30 140.5 -6.5 Q 132 -43 120 -79 Q 116 -42 114.5 -5.5 Q 113 31 113 68 Q 113 73 113 78.5 Q 113 84 113 89.5 Q 113 95 113.5 100.5 Q 114 106 114 111.5 Q 114 117 114.5 122.5 Q 115 128 116 133.5 Q 117 139 117.5 144 Q 118 149 119.5 154.5 Q 121 160 123.5 166 Q 126 172 131 172 Z " id="path38"/>
<path d="M 80 0 L 80 -735 L 259 -735 Q 286 -735 312.5 -729.5 Q 339 -724 362.5 -711 Q 386 -698 404 -677.5 Q 422 -657 433 -632.5 Q 444 -608 448 -581 Q 452 -554 452 -527 Q 452 -501 448 -474 Q 444 -447 433 -422.5 Q 422 -398 404 -377.5 Q 386 -357 362.5 -343.5 Q 339 -330 312.5 -325 Q 286 -320 259 -320 L 231 -320 L 231 0 Z M 177 -49 L 177 -686 L 134 -686 L 134 -49 Z M 231 -368 L 259 -368 Q 270 -368 280.5 -369 Q 291 -370 301 -373 L 301 -682 Q 291 -685 280.5 -685.5 Q 270 -686 259 -686 L 231 -686 Z M 355 -403 Q 367 -415 375.5 -429.5 Q 384 -444 389 -460.5 Q 394 -477 396 -493.5 Q 398 -510 398 -527 Q 398 -544 396 -561 Q 394 -578 389 -594 Q 384 -610 375.5 -625 Q 367 -640 355 -652 Z " id="path39"/>
<path d="M 357 180 Q 333 180 308.5 176 Q 284 172 262.5 161 Q 241 150 223 133 Q 205 116 194 94.5 Q 183 73 178.5 48.5 Q 174 24 174 0 L 174 -3 Q 146 -12 122 -32 Q 98 -52 83 -78 Q 68 -104 62 -134.5 Q 56 -165 56 -195 L 56 -540 Q 56 -567 60.5 -593.5 Q 65 -620 76 -644 Q 87 -668 105.5 -688 Q 124 -708 147 -720.5 Q 170 -733 196.5 -738 Q 223 -743 250 -743 Q 277 -743 303.5 -738 Q 330 -733 353 -720.5 Q 376 -708 394.5 -688 Q 413 -668 424 -644 Q 435 -620 439.5 -593.5 Q 444 -567 444 -540 L 444 -195 Q 444 -165 438 -134.5 Q 432 -104 417 -78 Q 402 -52 378 -32 Q 354 -12 326 -3 L 326 0 Q 326 15 327.5 30 Q 329 45 333 60 Q 337 75 344.5 88.5 Q 352 102 363.5 112 Q 375 122 389.5 126.5 Q 404 131 419 131 L 420 131 L 420 180 Z M 250 -41 Q 259 -41 267.5 -41.5 Q 276 -42 285 -44 L 285 -691 Q 276 -693 267.5 -693.5 Q 259 -694 250 -694 Q 241 -694 232.5 -693.5 Q 224 -693 215 -691 L 215 -44 Q 224 -42 232.5 -41.5 Q 241 -41 250 -41 Z M 161 -68 L 161 -667 Q 147 -656 137 -641.5 Q 127 -627 120.5 -610 Q 114 -593 112 -575.5 Q 110 -558 110 -540 L 110 -195 Q 110 -177 112 -159.5 Q 114 -142 120.5 -125 Q 127 -108 137 -93.5 Q 147 -79 161 -68 Z M 339 -68 Q 353 -79 363 -93.5 Q 373 -108 379.5 -125 Q 386 -142 388 -159.5 Q 390 -177 390 -195 L 390 -540 Q 390 -558 388 -575.5 Q 386 -593 379.5 -610 Q 373 -627 363 -641.5 Q 353 -656 339 -667 Z M 303 123 Q 286 98 279 68 Q 272 38 272 7 Q 266 8 260.5 8 Q 255 8 250 8 Q 245 8 239.5 8 Q 234 8 228 7 Q 229 26 233.5 44 Q 238 62 247.5 77.5 Q 257 93 271.5 105 Q 286 117 303 123 Z " id="path40"/>
<path d="M 203 9 Q 159 9 117 -6.5 Q 75 -22 41 -51 L 41 -68 L 90 -117 Q 106 -138 116 -162 Q 126 -186 131.5 -212 Q 137 -238 138 -264 Q 139 -290 139 -316 L 139 -560 Q 139 -571 139 -582 Q 139 -593 138 -604 Q 137 -615 135.5 -626 Q 134 -637 131 -647.5 Q 128 -658 123.5 -669 Q 119 -680 109 -684 Q 105 -683 100.5 -681 Q 96 -679 92 -677 Q 86 -667 82.5 -656 Q 79 -645 77 -634 Q 79 -616 88 -600.5 Q 97 -585 107.5 -571 Q 118 -557 125 -541 Q 132 -525 132 -507 L 132 -490 Q 132 -471 125 -454 Q 118 -437 104 -424 L 62 -381 L 45 -381 L 45 -399 L 50 -403 L 58 -414 Q 58 -415 58.5 -415 Q 59 -415 59 -416 L 60 -417 L 60 -418 L 61 -420 L 63 -422 L 64 -426 L 66 -429 L 68 -434 L 68 -436 L 69 -438 L 69 -439 Q 70 -440 70 -441 Q 70 -442 70 -443 L 72 -449 L 72 -452 Q 72 -453 72.5 -454 Q 73 -455 73 -456 Q 71 -474 62 -490 Q 53 -506 42.5 -520.5 Q 32 -535 24.5 -551.5 Q 17 -568 17 -586 L 17 -603 Q 17 -620 23.5 -636 Q 30 -652 41 -664 Q 44 -667 47 -670 Q 50 -673 53 -675 L 68 -691 L 98 -721 Q 110 -733 123 -742.5 Q 136 -752 152 -752 L 169 -752 Q 176 -752 181 -747 Q 186 -742 189 -736.5 Q 192 -731 194 -724.5 Q 196 -718 198 -711.5 Q 200 -705 201 -699 Q 202 -693 203 -686 L 326 -744 L 343 -744 Q 366 -734 384.5 -718 Q 403 -702 416.5 -681.5 Q 430 -661 437.5 -637.5 Q 445 -614 445 -589 L 445 -571 Q 445 -554 444 -537 Q 443 -520 438.5 -503.5 Q 434 -487 425 -472 Q 416 -457 403 -446 L 376 -420 Q 393 -413 405.5 -400 Q 418 -387 424.5 -370.5 Q 431 -354 432.5 -336 Q 434 -318 434 -301 L 434 -118 Q 434 -109 434.5 -100.5 Q 435 -92 438.5 -84.5 Q 442 -77 447.5 -70.5 Q 453 -64 461 -61 L 511 -88 L 528 -88 L 528 -71 L 479 -21 L 423 9 L 406 9 Q 396 7 387.5 1.5 Q 379 -4 374.5 -12.5 Q 370 -21 368.5 -31 Q 367 -41 367 -51 L 367 -234 Q 367 -254 365 -274.5 Q 363 -295 353.5 -312.5 Q 344 -330 327.5 -342.5 Q 311 -355 291 -358 Q 285 -357 279.5 -355.5 Q 274 -354 268 -351 L 206 -322 Q 205 -293 201.5 -264.5 Q 198 -236 188.5 -209 Q 179 -182 163 -158 Q 147 -134 126 -115 L 119 -108 Q 148 -87 182.5 -74 Q 217 -61 253 -59 L 308 -88 L 325 -88 L 325 -71 L 276 -21 L 220 9 Z M 206 -373 L 338 -435 Q 344 -438 350 -441 Q 356 -444 362 -447 Q 372 -465 375 -485.5 Q 378 -506 378 -526 Q 377 -549 370.5 -571 Q 364 -593 352 -612.5 Q 340 -632 322.5 -647.5 Q 305 -663 285 -673 L 206 -636 Z M 87 -426 L 88 -426 L 87 -425 Z M 82 -409 Q 82 -410 82 -410.5 Q 82 -411 83 -411 L 83 -412 Z M 80 -406 L 81 -407 L 81 -408 Z M 78 -403 Q 79 -403 79 -403.5 Q 79 -404 79 -405 L 80 -405 Z M 73 -394 L 74 -395 Q 74 -396 75 -397 L 75 -397 Z M 70 -390 L 71 -392 L 72 -392 Z M 67 -386 L 68 -388 L 69 -389 Z M 62 -381 Q 63 -382 64 -383 Q 65 -384 65 -385 L 66 -385 Z " id="path41"/>
<path d="M 64 0 L 64 -735 L 259 -735 Q 285 -735 311 -729.5 Q 337 -724 359.5 -710 Q 382 -696 399 -675.5 Q 416 -655 426 -630.5 Q 436 -606 440 -580 Q 444 -554 444 -527 Q 444 -504 441 -481 Q 438 -458 431 -436.5 Q 424 -415 411.5 -395 Q 399 -375 381.5 -360 Q 364 -345 342.5 -335.5 Q 321 -326 298 -322 L 460 0 L 304 0 L 215 -176 L 215 0 Z M 161 -49 L 161 -686 L 118 -686 L 118 -49 Z M 259 -368 Q 268 -368 276.5 -368.5 Q 285 -369 293 -371 L 293 -684 Q 285 -685 276.5 -685.5 Q 268 -686 259 -686 L 215 -686 L 215 -368 Z M 347 -400 Q 359 -412 367.5 -427.5 Q 376 -443 381 -459.5 Q 386 -476 388 -493 Q 390 -510 390 -527 Q 390 -545 388 -562 Q 386 -579 381 -595.5 Q 376 -612 367.5 -627 Q 359 -642 347 -654 Z M 376 -49 L 240 -320 L 215 -320 L 215 -294 L 338 -49 Z " id="path42"/>
<path d="M 137 -500 Q 119 -500 100.5 -504 Q 82 -508 67 -518.5 Q 52 -529 43.5 -546 Q 35 -563 35 -582 L 35 -584 L 89 -584 L 89 -583 Q 89 -575 93.5 -567.5 Q 98 -560 105 -555.5 Q 112 -551 120.5 -549.5 Q 129 -548 137 -548 Q 146 -548 154.5 -550 Q 163 -552 170 -557 Q 177 -562 181 -570.5 Q 185 -579 185 -587 Q 185 -602 175.5 -614 Q 166 -626 153 -632.5 Q 140 -639 126.5 -644 Q 113 -649 100 -656.5 Q 87 -664 76 -674 Q 65 -684 57 -696 Q 49 -708 44 -722 Q 39 -736 39 -751 Q 39 -769 46.5 -786.5 Q 54 -804 68.5 -816 Q 83 -828 101 -833 Q 119 -838 138 -838 Q 156 -838 174 -833.5 Q 192 -829 206.5 -818 Q 221 -807 229 -790.5 Q 237 -774 237 -756 L 237 -753 L 183 -753 L 183 -754 Q 183 -762 179 -769.5 Q 175 -777 168.5 -781.5 Q 162 -786 154 -787.5 Q 146 -789 138 -789 Q 130 -789 121.5 -787 Q 113 -785 106.5 -779.5 Q 100 -774 96.5 -766 Q 93 -758 93 -750 Q 93 -735 103 -723.5 Q 113 -712 125.5 -705 Q 138 -698 152 -693 Q 166 -688 178.5 -680.5 Q 191 -673 202 -663.5 Q 213 -654 221.5 -642 Q 230 -630 234.5 -615.5 Q 239 -601 239 -587 Q 239 -568 231 -550 Q 223 -532 208.5 -520.5 Q 194 -509 175 -504.5 Q 156 -500 137 -500 Z M 264 -503 L 264 -834 L 324 -834 L 362 -679 L 401 -834 L 461 -834 L 461 -503 L 410 -503 L 410 -569 Q 410 -613 412.5 -656.5 Q 415 -700 417 -743 L 382 -602 L 343 -602 L 308 -743 Q 310 -700 312.5 -656.5 Q 315 -613 315 -569 L 315 -503 Z " id="path43"/>
<path d="M 110 0 L 80 0 L 80 -450 L 22 -450 L 22 -520 L 168 -520 L 168 -450 L 110 -450 Z M 182 0 L 182 -520 L 321 -520 L 321 -450 L 212 -450 L 212 -305 L 299 -305 L 299 -235 L 212 -235 L 212 -70 L 321 -70 L 321 0 Z M 346 0 L 346 -520 L 376 -520 L 376 -70 L 478 -70 L 478 0 Z " id="path44"/>
<path d="M 111 -503 L 111 -785 L 37 -785 L 37 -834 L 238 -834 L 238 -785 L 164 -785 L 164 -503 Z M 264 -503 L 264 -834 L 324 -834 L 362 -679 L 401 -834 L 461 -834 L 461 -503 L 410 -503 L 410 -569 Q 410 -613 412.5 -656.5 Q 415 -700 417 -743 L 382 -602 L 343 -602 L 308 -743 Q 310 -700 312.5 -656.5 Q 315 -613 315 -569 L 315 -503 Z " id="path45"/>
<path d="M 436 0 L 64 0 L 64 -96 L 300 -686 L 64 -686 L 64 -735 L 436 -735 L 436 -639 L 200 -49 L 436 -49 Z M 118 -49 L 142 -49 L 382 -647 L 382 -686 L 358 -686 L 118 -88 Z " id="path46"/>
<path d="M 64 0 L 64 -70 L 155 -70 L 155 -86 Q 131 -95 112.5 -113.5 Q 94 -132 83 -155 Q 72 -178 68 -203 Q 64 -228 64 -254 L 64 -540 Q 64 -566 68 -592 Q 72 -618 82.5 -642 Q 93 -666 110 -686 Q 127 -706 149.5 -719 Q 172 -732 198 -737.5 Q 224 -743 250 -743 Q 276 -743 302 -737.5 Q 328 -732 350.5 -719 Q 373 -706 390 -686 Q 407 -666 417.5 -642 Q 428 -618 432 -592 Q 436 -566 436 -540 L 436 -254 Q 436 -228 432 -203 Q 428 -178 417 -155 Q 406 -132 387.5 -113.5 Q 369 -95 345 -86 L 345 -70 L 436 -70 L 436 0 L 287 0 L 287 -129 L 291 -129 Q 304 -129 315.5 -136 Q 327 -143 334.5 -154 Q 342 -165 346.5 -177 Q 351 -189 354 -202 Q 357 -215 357.5 -228 Q 358 -241 358 -254 L 358 -540 Q 358 -556 356 -572.5 Q 354 -589 348.5 -604 Q 343 -619 334 -632.5 Q 325 -646 311.5 -655.5 Q 298 -665 282 -669 Q 266 -673 250 -673 Q 234 -673 218 -669 Q 202 -665 188.5 -655.5 Q 175 -646 166 -632.5 Q 157 -619 151.5 -604 Q 146 -589 144 -572.5 Q 142 -556 142 -540 L 142 -254 Q 142 -241 142.5 -228 Q 143 -215 146 -202 Q 149 -189 153.5 -177 Q 158 -165 165.5 -154 Q 173 -143 184.5 -136 Q 196 -129 209 -129 L 213 -129 L 213 0 Z " id="path47"/>
<path d="M 250 8 Q 224 8 198 2.5 Q 172 -3 149.5 -16 Q 127 -29 110 -49 Q 93 -69 82.5 -93 Q 72 -117 68 -143 Q 64 -169 64 -195 L 64 -481 Q 64 -507 68 -532 Q 72 -557 83 -580 Q 94 -603 112.5 -621.5 Q 131 -640 155 -649 L 155 -665 L 64 -665 L 64 -735 L 213 -735 L 213 -606 L 209 -606 Q 196 -606 184.5 -599 Q 173 -592 165.5 -581 Q 158 -570 153.5 -558 Q 149 -546 146 -533 Q 143 -520 142.5 -507 Q 142 -494 142 -481 L 142 -195 Q 142 -179 144 -162.5 Q 146 -146 151.5 -131 Q 157 -116 166 -102.5 Q 175 -89 188.5 -79.5 Q 202 -70 218 -66 Q 234 -62 250 -62 Q 266 -62 282 -66 Q 298 -70 311.5 -79.5 Q 325 -89 334 -102.5 Q 343 -116 348.5 -131 Q 354 -146 356 -162.5 Q 358 -179 358 -195 L 358 -481 Q 358 -494 357.5 -507 Q 357 -520 354 -533 Q 351 -546 346.5 -558 Q 342 -570 334.5 -581 Q 327 -592 315.5 -599 Q 304 -606 291 -606 L 287 -606 L 287 -735 L 436 -735 L 436 -665 L 345 -665 L 345 -649 Q 369 -640 387.5 -621.5 Q 406 -603 417 -580 Q 428 -557 432 -532 Q 436 -507 436 -481 L 436 -195 Q 436 -169 432 -143 Q 428 -117 417.5 -93 Q 407 -69 390 -49 Q 373 -29 350.5 -16 Q 328 -3 302 2.5 Q 276 8 250 8 Z " id="path48"/>
<path d="M 218 17 Q 188 17 157.5 9 Q 127 1 103.5 -18.5 Q 80 -38 67 -67 Q 54 -96 53 -126 L 53 -144 L 103 -193 L 120 -193 Q 121 -164 133 -136 Q 145 -108 167 -88 Q 189 -68 218 -59.5 Q 247 -51 276 -50 Q 297 -51 317 -56 Q 337 -61 354 -71 Q 371 -99 378 -130.5 Q 385 -162 386 -195 Q 385 -218 381 -240.5 Q 377 -263 367.5 -284 Q 358 -305 343 -323 Q 328 -341 308.5 -353 Q 289 -365 266 -370.5 Q 243 -376 220 -376 Q 205 -376 190.5 -374.5 Q 176 -373 162 -368 L 160 -368 L 136 -344 Q 133 -341 131 -339 Q 129 -337 126 -334 L 109 -334 L 109 -351 L 321 -621 Q 315 -619 309 -618 Q 303 -617 297 -617 L 280 -617 Q 262 -617 247 -627 Q 232 -637 219.5 -650 Q 207 -663 193.5 -674.5 Q 180 -686 162 -688 Q 141 -686 123.5 -674 Q 106 -662 91 -647 L 73 -629 L 55 -629 L 55 -646 Q 59 -649 62 -652.5 Q 65 -656 68 -659 L 115 -706 Q 124 -715 133.5 -724 Q 143 -733 154 -740 Q 165 -747 177.5 -751.5 Q 190 -756 203 -756 Q 204 -756 205.5 -756 Q 207 -756 208 -755 L 215 -755 Q 216 -756 217.5 -756 Q 219 -756 220 -756 Q 238 -756 253.5 -745.5 Q 269 -735 281 -722 L 286 -717 Q 296 -706 309 -696 Q 322 -686 338 -684 Q 359 -687 376.5 -699 Q 394 -711 409 -725 L 427 -744 L 445 -744 L 445 -726 L 220 -441 Q 231 -442 241.5 -442.5 Q 252 -443 262 -443 L 279 -443 Q 304 -443 328 -438 Q 352 -433 373 -420.5 Q 394 -408 410 -389.5 Q 426 -371 435.5 -348.5 Q 445 -326 449 -301.5 Q 453 -277 453 -253 L 453 -236 Q 453 -214 450.5 -192 Q 448 -170 441.5 -149 Q 435 -128 424 -108.5 Q 413 -89 397 -73 L 351 -28 Q 329 -5 298.5 6 Q 268 17 236 17 Z " id="path49"/>
<path d="M 211 0 L 211 -340 Q 211 -363 204.5 -386 Q 198 -409 181.5 -426 Q 165 -443 142.5 -450.5 Q 120 -458 96 -458 Q 82 -458 68 -454 Q 54 -450 42 -442 L 42 -512 Q 54 -520 68 -524 Q 82 -528 96 -528 Q 122 -528 147 -524 Q 172 -520 195 -508.5 Q 218 -497 237 -479 Q 256 -461 268 -438.5 Q 280 -416 284.5 -391 Q 289 -366 289 -340 L 289 -70 L 425 -70 L 425 0 Z " id="path50"/>
<path d="M 361 0 L 204 -329 L 157 -252 L 157 0 L 80 0 L 80 -735 L 157 -735 L 157 -387 L 358 -735 L 445 -735 L 247 -402 L 445 0 Z " id="path51"/>
<path d="M 44 0 L 151 -490 L 205 -735 L 295 -735 L 456 0 L 376 0 L 337 -190 L 163 -190 L 124 0 Z M 177 -260 L 323 -260 L 276 -490 Q 269 -522 262.5 -554 Q 256 -586 250 -618 Q 244 -586 237.5 -554 Q 231 -522 224 -490 Z M 250 -793 Q 231 -793 213 -798.5 Q 195 -804 182 -817 Q 169 -830 163.5 -848 Q 158 -866 158 -885 Q 158 -904 163.5 -922 Q 169 -940 182 -953 Q 195 -966 213 -971.5 Q 231 -977 250 -977 Q 269 -977 287 -971.5 Q 305 -966 318 -953 Q 331 -940 336.5 -922 Q 342 -904 342 -885 Q 342 -866 336.5 -848 Q 331 -830 318 -817 Q 305 -804 287 -798.5 Q 269 -793 250 -793 Z M 250 -845 Q 258 -845 266 -847.5 Q 274 -850 279.5 -855.5 Q 285 -861 287.5 -869 Q 290 -877 290 -885 Q 290 -893 287.5 -901 Q 285 -909 279.5 -914.5 Q 274 -920 266 -922.5 Q 258 -925 250 -925 Q 242 -925 234 -922.5 Q 226 -920 220.5 -914.5 Q 215 -909 212.5 -901 Q 210 -893 210 -885 Q 210 -877 212.5 -869 Q 215 -861 220.5 -855.5 Q 226 -850 234 -847.5 Q 242 -845 250 -845 Z " id="path52"/>
<path d="M 226 17 Q 201 17 176 11 Q 151 5 130.5 -9 Q 110 -23 95 -43.5 Q 80 -64 71 -87.5 Q 62 -111 58.5 -136 Q 55 -161 55 -186 L 55 -592 Q 55 -610 58 -627.5 Q 61 -645 67.5 -661 Q 74 -677 85.5 -690.5 Q 97 -704 112 -714 L 113 -714 L 146 -735 Q 159 -744 174.5 -748 Q 190 -752 206 -752 L 223 -752 Q 233 -752 243 -747.5 Q 253 -743 260 -735.5 Q 267 -728 271 -718 Q 275 -708 275 -698 L 275 -691 L 327 -744 L 344 -744 Q 352 -734 363 -728 Q 374 -722 386 -720 Q 394 -721 402 -724.5 Q 410 -728 417 -733 L 427 -744 L 445 -744 L 445 -726 Q 443 -724 441 -722 Q 439 -720 437 -719 L 395 -677 Q 386 -666 372.5 -659.5 Q 359 -653 345 -653 L 328 -653 Q 317 -653 306 -657 Q 295 -661 286 -668 L 281 -663 Q 263 -645 252.5 -620 Q 242 -595 241 -569 Q 242 -553 246 -536.5 Q 250 -520 256 -505 Q 262 -490 270 -475.5 Q 278 -461 286 -447 L 289 -442 Q 303 -417 312.5 -389.5 Q 322 -362 322 -334 Q 322 -332 321.5 -330 Q 321 -328 321 -327 L 321 -324 Q 321 -322 321.5 -320 Q 322 -318 322 -317 Q 322 -288 311.5 -261 Q 301 -234 281 -214 L 239 -172 L 222 -172 L 222 -189 Q 241 -207 251 -232 Q 261 -257 262 -283 Q 261 -300 257 -316 Q 253 -332 247 -347 Q 241 -362 233 -376.5 Q 225 -391 217 -406 L 215 -408 L 212 -415 Q 199 -439 190.5 -465 Q 182 -491 182 -518 L 182 -535 Q 182 -564 192 -591 Q 202 -618 222 -638 Q 228 -645 232 -653 Q 236 -661 238 -670 Q 237 -678 233 -686 Q 229 -694 222.5 -700 Q 216 -706 208 -710 Q 200 -714 192 -715 Q 181 -714 170 -712 Q 159 -710 149 -706 Q 134 -690 128 -668.5 Q 122 -647 122 -624 L 122 -253 Q 122 -229 125 -204.5 Q 128 -180 136.5 -157 Q 145 -134 159 -114 Q 173 -94 192.5 -79.5 Q 212 -65 236 -58 Q 260 -51 284 -50 Q 314 -51 343 -61.5 Q 372 -72 392 -94 Q 401 -112 405.5 -132.5 Q 410 -153 410 -173 L 429 -193 L 447 -193 L 447 -176 Q 446 -153 440 -131 Q 434 -109 421 -91 L 417 -85 L 415 -81 L 400 -59 Q 388 -39 370.5 -24 Q 353 -9 332 0 Q 311 9 288.5 13 Q 266 17 243 17 Z " id="path53"/>
<path d="M 500 0 Q 449 -0 399 -11.5 Q 349 -23 303.5 -45.5 Q 258 -68 219 -101 Q 180 -134 151.5 -176 Q 123 -218 107.5 -267.5 Q 92 -317 92 -367 Q 92 -418 107.5 -467.5 Q 123 -517 151.5 -559 Q 180 -601 219 -634 Q 258 -667 303.5 -689.5 Q 349 -712 399 -723.5 Q 449 -735 500 -735 Q 551 -735 601 -723.5 Q 651 -712 696.5 -689.5 Q 742 -667 781 -634 Q 820 -601 848.5 -559 Q 877 -517 892.5 -467.5 Q 908 -418 908 -367 L 252 -367 Q 248 -367 244.5 -364 Q 241 -361 241 -357 L 241 -167 Q 241 -153 246.5 -139.5 Q 252 -126 263 -117 L 263 -116 Q 287 -94 314.5 -76.5 Q 342 -59 372.5 -46.5 Q 403 -34 435 -28 Q 467 -22 500 -22 Q 539 -22 577 -31 Q 615 -40 650 -56.5 Q 685 -73 715.5 -97.5 Q 746 -122 771 -153 L 831 -153 Q 802 -116 764 -87 Q 726 -58 683 -39 Q 640 -20 593.5 -10 Q 547 -0 500 0 Z M 748 -388 Q 752 -388 755.5 -391 Q 759 -394 759 -399 L 759 -568 Q 759 -582 753.5 -595.5 Q 748 -609 737 -618 L 737 -619 Q 713 -641 685.5 -658.5 Q 658 -676 627.5 -688.5 Q 597 -701 565 -707 Q 533 -713 500 -713 Q 467 -713 435 -707 Q 403 -701 372.5 -688.5 Q 342 -676 314.5 -658.5 Q 287 -641 263 -619 L 263 -618 Q 252 -609 246.5 -595.5 Q 241 -582 241 -568 L 241 -399 Q 241 -394 244.5 -391 Q 248 -388 252 -388 Z " id="path54"/>
<path d="M 64 0 L 64 -70 L 326 -70 L 326 -318 L 120 -318 L 120 -388 L 326 -388 L 326 -735 L 404 -735 L 404 0 Z " id="path55"/>
<path d="M 367 0 L 217 -355 L 247 -366 L 253 -369 L 265 -373 L 266 -374 L 270 -375 L 283 -380 L 292 -360 Q 325 -450 341.5 -544.5 Q 358 -639 358 -735 L 436 -735 Q 436 -613 410.5 -493 Q 385 -373 336 -262 L 452 0 Z M 64 0 Q 64 -122 89.5 -242 Q 115 -362 164 -473 L 48 -735 L 133 -735 L 283 -380 L 270 -375 L 266 -374 L 265 -373 L 253 -369 L 247 -366 L 217 -355 L 208 -375 Q 175 -285 158.5 -190.5 Q 142 -96 142 0 Z " id="path56"/>
<path d="M 64 0 L 64 -70 L 284 -70 L 284 -588 Q 284 -600 282.5 -612 Q 281 -624 277.5 -635 Q 274 -646 265.5 -655.5 Q 257 -665 245 -665 L 64 -665 L 64 -735 L 245 -735 Q 263 -735 280 -730.5 Q 297 -726 311.5 -715.5 Q 326 -705 336 -690 Q 346 -675 351.5 -658 Q 357 -641 359.5 -623.5 Q 362 -606 362 -588 L 362 -70 L 436 -70 L 436 0 Z " id="path57"/>
<path d="M 80 8 L 48 -56 Q 90 -75 125.5 -105 Q 161 -135 187 -172.5 Q 213 -210 228.5 -253.5 Q 244 -297 247 -343 L 248 -367 L 248 -566 Q 248 -585 243 -604 Q 238 -623 225.5 -637.5 Q 213 -652 194.5 -658.5 Q 176 -665 157 -665 L 101 -665 L 101 -735 L 157 -735 Q 180 -735 202 -731 Q 224 -727 244.5 -717 Q 265 -707 281 -690.5 Q 297 -674 307.5 -654 Q 318 -634 322 -611.5 Q 326 -589 326 -566 L 326 -368 Q 326 -335 329 -303 Q 332 -271 341 -240 Q 350 -209 363.5 -179.5 Q 377 -150 390.5 -121 Q 404 -92 415.5 -61.5 Q 427 -31 436 0 L 355 0 Q 341 -47 320.5 -92 Q 300 -137 281 -182 Q 265 -151 244 -122.5 Q 223 -94 197 -69.5 Q 171 -45 141.5 -25.5 Q 112 -6 80 8 Z " id="path58"/>
<path d="M 265 0 L 265 -665 L 64 -665 L 64 -735 L 436 -735 L 436 -665 L 343 -665 L 343 0 Z " id="path59"/>
<path d="M 250 -582 Q 232 -582 215 -587.5 Q 198 -593 185.5 -605.5 Q 173 -618 167.5 -635 Q 162 -652 162 -670 Q 162 -688 167.5 -705 Q 173 -722 185.5 -734.5 Q 198 -747 215 -752.5 Q 232 -758 250 -758 Q 268 -758 285 -752.5 Q 302 -747 314.5 -734.5 Q 327 -722 332.5 -705 Q 338 -688 338 -670 Q 338 -652 332.5 -635 Q 327 -618 314.5 -605.5 Q 302 -593 285 -587.5 Q 268 -582 250 -582 Z M 108 0 L 108 -70 L 195 -70 L 195 -450 L 108 -450 L 108 -520 L 305 -520 L 305 -70 L 392 -70 L 392 0 Z " id="path60"/>
<path d="M 305 -44 L 259 -44 Q 231 -44 203 -49.5 Q 175 -55 150.5 -68.5 Q 126 -82 107 -103.5 Q 88 -125 76.5 -150.5 Q 65 -176 60.5 -204 Q 56 -232 56 -260 Q 56 -288 60.5 -316 Q 65 -344 76.5 -369.5 Q 88 -395 107 -416.5 Q 126 -438 150.5 -451.5 Q 175 -465 203 -470.5 Q 231 -476 259 -476 L 305 -476 Q 329 -476 353.5 -472 Q 378 -468 400.5 -458 Q 423 -448 441.5 -432 Q 460 -416 473.5 -395.5 Q 487 -375 495 -351.5 Q 503 -328 506 -303 Q 526 -304 546.5 -310 Q 567 -316 582 -330.5 Q 597 -345 603.5 -365 Q 610 -385 610 -406 L 610 -430 L 680 -430 L 680 -406 Q 680 -382 676 -358.5 Q 672 -335 661.5 -314 Q 651 -293 634.5 -275.5 Q 618 -258 597.5 -247 Q 577 -236 553.5 -231 Q 530 -226 507 -226 Q 504 -201 497 -176.5 Q 490 -152 477 -130 Q 464 -108 445 -91 Q 426 -74 403 -63 Q 380 -52 355 -48 Q 330 -44 305 -44 Z M 259 -122 L 305 -122 Q 323 -122 341 -125.5 Q 359 -129 375 -137.5 Q 391 -146 404 -159.5 Q 417 -173 424.5 -189.5 Q 432 -206 435 -224 Q 438 -242 438 -260 Q 438 -278 435 -296 Q 432 -314 424.5 -330.5 Q 417 -347 404 -360.5 Q 391 -374 375 -382.5 Q 359 -391 341 -394.5 Q 323 -398 305 -398 L 259 -398 Q 241 -398 223 -394.5 Q 205 -391 189 -382.5 Q 173 -374 160 -360.5 Q 147 -347 139.5 -330.5 Q 132 -314 129 -296 Q 126 -278 126 -260 Q 126 -242 129 -224 Q 132 -206 139.5 -189.5 Q 147 -173 160 -159.5 Q 173 -146 189 -137.5 Q 205 -129 223 -125.5 Q 241 -122 259 -122 Z " id="path61"/>
<path d="M 66 0 L 36 0 L 36 -520 L 166 -520 L 166 -450 L 66 -450 L 66 -305 L 144 -305 L 144 -235 L 66 -235 Z M 172 0 L 233 -520 L 267 -520 L 287 -347 L 328 0 L 297 0 L 284 -114 L 215 -114 L 203 0 Z M 277 -184 L 259 -347 Q 257 -368 254.5 -389 Q 252 -410 250 -431 Q 248 -410 245.5 -389 Q 243 -368 241 -347 L 223 -184 Z M 330 0 L 389 -260 L 330 -520 L 365 -520 L 405 -332 L 445 -520 L 480 -520 L 420 -260 L 480 0 L 445 0 L 405 -188 L 365 0 Z " id="path62"/>
<path d="M 86 0 L 86 -471 L 53 -471 L 53 -520 L 447 -520 L 447 -471 L 414 -471 L 414 0 L 262 0 L 262 -471 L 238 -471 L 238 0 Z M 360 -49 L 360 -471 L 316 -471 L 316 -49 Z M 184 -49 L 184 -471 L 140 -471 L 140 -49 Z " id="path63"/>
<path d="M 237 166 L 280 166 L 280 0 Q 280 -42 273.5 -83 Q 267 -124 256.5 -164.5 Q 246 -205 232 -244.5 Q 218 -284 201.5 -322 Q 185 -360 165.5 -397 Q 146 -434 127 -471 L 84 -471 Q 116 -418 142.5 -361 Q 169 -304 189.5 -245 Q 210 -186 223.5 -124.5 Q 237 -63 237 0 Z M 183 215 L 183 0 Q 183 -46 174.5 -92 Q 166 -138 153 -182.5 Q 140 -227 123 -270.5 Q 106 -314 85.5 -355.5 Q 65 -397 42.5 -438 Q 20 -479 -1 -520 L 157 -520 Q 186 -475 210.5 -427.5 Q 235 -380 255.5 -330.5 Q 276 -281 292.5 -230 Q 309 -179 320 -127 Q 331 -169 341.5 -211 Q 352 -253 360.5 -295.5 Q 369 -338 375.5 -381.5 Q 382 -425 382 -468 L 382 -520 L 436 -520 L 436 -468 Q 436 -428 430 -388.5 Q 424 -349 416.5 -309.5 Q 409 -270 399.5 -231 Q 390 -192 379.5 -153.5 Q 369 -115 357.5 -76.5 Q 346 -38 334 0 L 334 215 Z " id="path64"/>
<path d="M 96 0 L 96 -735 L 442 -735 L 442 -686 L 247 -686 L 247 0 Z M 150 -49 L 193 -49 L 193 -686 L 150 -686 Z " id="path65"/>
<path d="M 64 0 L 64 -735 L 436 -735 L 436 0 L 285 0 L 285 -686 L 215 -686 L 215 0 Z M 339 -49 L 382 -49 L 382 -686 L 339 -686 Z M 118 -49 L 161 -49 L 161 -686 L 118 -686 Z " id="path66"/>
<path d="M 872 69 L 128 69 L 128 21 L 476 -340 L 128 -701 L 128 -749 L 872 -749 L 872 -701 L 316 -701 L 664 -340 L 316 21 L 872 21 Z M 250 21 L 598 -340 L 250 -701 L 194 -701 L 541 -340 L 194 21 Z " id="path67"/>
<path d="M 253 8 Q 228 8 203.5 4 Q 179 0 156.5 -11 Q 134 -22 115.5 -39.5 Q 97 -57 85 -78.5 Q 73 -100 67.5 -124.5 Q 62 -149 62 -174 L 62 -180 L 140 -180 L 140 -176 Q 140 -153 147 -131 Q 154 -109 170 -92.5 Q 186 -76 208 -69 Q 230 -62 253 -62 Q 278 -62 301.5 -71.5 Q 325 -81 340 -101 Q 355 -121 360.5 -145.5 Q 366 -170 366 -195 L 366 -540 Q 366 -556 364 -572.5 Q 362 -589 356 -604.5 Q 350 -620 340 -633.5 Q 330 -647 316.5 -656 Q 303 -665 286.5 -669 Q 270 -673 254 -673 Q 238 -673 221.5 -669 Q 205 -665 191.5 -656 Q 178 -647 168 -633.5 Q 158 -620 152 -604.5 Q 146 -589 144 -572.5 Q 142 -556 142 -540 L 142 -405 L 250 -405 L 250 -335 L 64 -335 L 64 -735 L 134 -735 L 134 -617 Q 141 -643 153.5 -667 Q 166 -691 186 -709 Q 206 -727 232 -735 Q 258 -743 285 -743 Q 309 -743 333 -736.5 Q 357 -730 376.5 -715 Q 396 -700 409.5 -679.5 Q 423 -659 430.5 -636 Q 438 -613 441 -588.5 Q 444 -564 444 -540 L 444 -195 Q 444 -169 440 -142.5 Q 436 -116 425 -92 Q 414 -68 396 -48 Q 378 -28 355 -15 Q 332 -2 305.5 3 Q 279 8 253 8 Z " id="path68"/>
<path d="M 326 0 L 326 -665 L 58 -665 L 58 -735 L 404 -735 L 404 0 Z " id="path69"/>
<path d="M 58 0 L 58 -70 L 326 -70 L 326 -735 L 404 -735 L 404 0 Z " id="path70"/>
<path d="M 45 0 L 211 -439 L 211 -735 L 289 -735 L 289 -439 L 455 0 L 372 0 L 250 -336 L 128 0 Z " id="path71"/>
<path d="M 177 0 L 8 0 L 129 -735 L 275 -735 Q 307 -735 337.5 -729.5 Q 368 -724 393.5 -710 Q 419 -696 437.5 -673.5 Q 456 -651 465.5 -623 Q 475 -595 475.5 -564 Q 476 -533 471 -501 L 420 -195 Q 416 -168 406 -141 Q 396 -114 378.5 -90.5 Q 361 -67 337 -48.5 Q 313 -30 286 -19 Q 259 -8 231.5 -4 Q 204 -0 177 0 Z M 113 -48 L 218 -687 L 175 -687 L 70 -48 Z M 167 -48 L 177 -48 Q 194 -48 211.5 -50 Q 229 -52 246 -58 L 348 -674 Q 331 -681 312.5 -684 Q 294 -687 275 -687 L 272 -687 Z M 306 -90 Q 319 -101 329.5 -114 Q 340 -127 348 -141.5 Q 356 -156 360.5 -171.5 Q 365 -187 367 -203 L 418 -509 Q 421 -526 422 -543.5 Q 423 -561 420.5 -577.5 Q 418 -594 412 -609 Q 406 -624 396 -637 Z " id="path72"/>
<path d="M 128 8 Q 104 8 83.5 -3 Q 63 -14 51 -33.5 Q 39 -53 34.5 -76 Q 30 -99 28.5 -122.5 Q 27 -146 29.5 -170.5 Q 32 -195 36 -219 L 56 -339 Q 59 -360 64 -380.5 Q 69 -401 77 -421 Q 85 -441 96.5 -460 Q 108 -479 123.5 -495 Q 139 -511 160 -519.5 Q 181 -528 201 -528 Q 222 -528 240.5 -520 Q 259 -512 271.5 -497 Q 284 -482 290 -463 Q 296 -444 299 -424 L 350 -735 L 501 -735 L 380 0 L 229 0 L 241 -72 Q 232 -56 221 -41.5 Q 210 -27 195.5 -15 Q 181 -3 163.5 2.5 Q 146 8 128 8 Z M 291 -48 L 334 -48 L 439 -687 L 396 -687 Z M 158 -41 Q 180 -43 199.5 -59 Q 219 -75 231 -95.5 Q 243 -116 249 -138.5 Q 255 -161 259 -183 L 279 -303 Q 282 -320 283.5 -337.5 Q 285 -355 285.5 -372 Q 286 -389 284 -406 Q 282 -423 276 -438 Q 270 -453 258.5 -465 Q 247 -477 230 -479 Z M 106 -58 L 174 -464 Q 158 -453 146.5 -436.5 Q 135 -420 127.5 -402.5 Q 120 -385 115.5 -367 Q 111 -349 109 -331 L 89 -211 Q 85 -191 83.5 -170.5 Q 82 -150 83 -130.5 Q 84 -111 89 -91.5 Q 94 -72 106 -58 Z " id="path73"/>
<path d="M 208 8 Q 178 8 150 2 Q 122 -4 99 -18.5 Q 76 -33 61 -55.5 Q 46 -78 38.5 -105 Q 31 -132 31 -161 Q 31 -190 36 -219 L 56 -339 Q 60 -364 68.5 -389 Q 77 -414 92 -436.5 Q 107 -459 127.5 -477.5 Q 148 -496 172.5 -507.5 Q 197 -519 222.5 -523.5 Q 248 -528 273 -528 Q 302 -528 329.5 -522 Q 357 -516 379 -501 Q 401 -486 416 -463 Q 431 -440 437.5 -413.5 Q 444 -387 443 -358 Q 442 -329 438 -301 L 427 -236 L 190 -236 L 159 -48 Q 171 -44 184.5 -42 Q 198 -40 212 -40 Q 236 -40 261 -46.5 Q 286 -53 307.5 -68 Q 329 -83 346 -104.5 Q 363 -126 372 -149 L 418 -130 Q 404 -100 382.5 -72.5 Q 361 -45 332.5 -26.5 Q 304 -8 271.5 0 Q 239 8 208 8 Z M 198 -284 L 284 -284 L 315 -474 Q 306 -477 295 -478.5 Q 284 -480 273 -480 Q 262 -480 251 -479 Q 240 -478 229 -475 Z M 110 -82 L 171 -446 Q 157 -436 146 -422.5 Q 135 -409 127.5 -394 Q 120 -379 115.5 -363 Q 111 -347 109 -331 L 89 -211 Q 86 -194 85 -176.5 Q 84 -159 86.5 -142.5 Q 89 -126 94.5 -110.5 Q 100 -95 110 -82 Z M 338 -284 L 381 -284 L 385 -309 Q 388 -326 389 -344 Q 390 -362 387.5 -379 Q 385 -396 380 -412 Q 375 -428 364 -441 Z " id="path74"/>
<path d="M 314 -628 Q 299 -628 284 -631.5 Q 269 -635 256 -643 Q 243 -651 234.5 -662.5 Q 226 -674 222 -688 Q 218 -702 217 -717.5 Q 216 -733 219 -748 Q 221 -764 229.5 -779 Q 238 -794 251.5 -804 Q 265 -814 281.5 -818 Q 298 -822 314 -822 Q 329 -822 344 -818.5 Q 359 -815 371.5 -807 Q 384 -799 392.5 -787.5 Q 401 -776 405.5 -762 Q 410 -748 410.5 -732.5 Q 411 -717 409 -702 Q 406 -686 397.5 -671 Q 389 -656 375.5 -646 Q 362 -636 346 -632 Q 330 -628 314 -628 Z M 314 -677 Q 321 -677 328 -679 Q 335 -681 341.5 -686 Q 348 -691 351 -698 Q 354 -705 356 -712 Q 357 -723 356 -734.5 Q 355 -746 349.5 -755 Q 344 -764 334.5 -768.5 Q 325 -773 314 -773 Q 307 -773 299.5 -771 Q 292 -769 285.5 -764 Q 279 -759 276 -752 Q 273 -745 272 -738 Q 270 -727 271 -715.5 Q 272 -704 277.5 -695 Q 283 -686 293 -681.5 Q 303 -677 314 -677 Z M 61 0 L 69 -48 L 127 -48 L 197 -472 L 139 -472 L 147 -520 L 355 -520 L 277 -48 L 335 -48 L 327 0 Z M 181 -48 L 223 -48 L 293 -472 L 251 -472 Z " id="path75"/>
<path d="M 350 -628 Q 335 -628 320 -631.5 Q 305 -635 292 -643 Q 279 -651 270.5 -662.5 Q 262 -674 258 -688 Q 254 -702 253 -717.5 Q 252 -733 255 -748 Q 257 -764 265.5 -779 Q 274 -794 287.5 -804 Q 301 -814 317.5 -818 Q 334 -822 350 -822 Q 365 -822 380 -818.5 Q 395 -815 407 -807 Q 419 -799 428 -787.5 Q 437 -776 441.5 -762 Q 446 -748 446.5 -732.5 Q 447 -717 445 -702 Q 442 -686 433.5 -671 Q 425 -656 411.5 -646 Q 398 -636 382 -632 Q 366 -628 350 -628 Z M 350 -677 Q 357 -677 364 -679 Q 371 -681 377.5 -686 Q 384 -691 387 -698 Q 390 -705 392 -712 Q 393 -723 392 -734.5 Q 391 -746 385.5 -755 Q 380 -764 370.5 -768.5 Q 361 -773 350 -773 Q 342 -773 334.5 -771 Q 327 -769 321 -764 Q 315 -759 312 -752 Q 309 -745 308 -738 Q 306 -727 307 -715.5 Q 308 -704 313.5 -695 Q 319 -686 329 -681.5 Q 339 -677 350 -677 Z M 93 223 Q 70 223 47.5 220 Q 25 217 5.5 208.5 Q -14 200 -30.5 186.5 Q -47 173 -57 154 Q -67 135 -69.5 112.5 Q -72 90 -69 68 L -68 65 L -14 65 L -14 67 Q -18 91 -12 113 Q -6 135 11 149.5 Q 28 164 50.5 169.5 Q 73 175 97 175 Q 104 175 111 174.5 Q 118 174 125 172 L 232 -472 L 175 -472 L 183 -520 L 391 -520 L 298 39 Q 294 63 286.5 87 Q 279 111 265 133 Q 251 155 231.5 173 Q 212 191 189 202.5 Q 166 214 141.5 218.5 Q 117 223 93 223 Z M 184 147 Q 198 136 208.5 122.5 Q 219 109 227 94 Q 235 79 239 63 Q 243 47 246 31 L 329 -472 L 287 -472 Z " id="path76"/>
<path d="M 270 8 Q 240 8 210.5 -2 Q 181 -12 161 -34.5 Q 141 -57 131.5 -86.5 Q 122 -116 122 -146 Q 122 -177 131.5 -207 Q 141 -237 157.5 -263.5 Q 174 -290 196 -312 Q 218 -334 242 -354 Q 238 -361 234 -367.5 Q 230 -374 227 -380 L 137 -532 L 96 -426 L 19 -426 L 79 -580 Q 82 -588 85 -595.5 Q 88 -603 91 -610 L 17 -735 L 102 -735 L 138 -674 Q 152 -693 170.5 -709 Q 189 -725 212 -733 Q 226 -738 241 -740.5 Q 256 -743 271 -743 Q 295 -743 319.5 -737 Q 344 -731 364.5 -717.5 Q 385 -704 400.5 -684 Q 416 -664 425.5 -641.5 Q 435 -619 439.5 -594.5 Q 444 -570 444 -545 Q 444 -515 436 -486 Q 428 -457 413.5 -431 Q 399 -405 379 -383 Q 359 -361 336 -341 Q 351 -319 365.5 -296 Q 380 -273 391.5 -249 Q 403 -225 410.5 -199 Q 418 -173 418 -146 Q 418 -116 408.5 -86.5 Q 399 -57 378.5 -34.5 Q 358 -12 329 -2 Q 300 8 270 8 Z M 298 -403 Q 313 -417 326.5 -432.5 Q 340 -448 349.5 -466 Q 359 -484 364 -504 Q 369 -524 369 -545 Q 369 -560 366.5 -575.5 Q 364 -591 358.5 -606 Q 353 -621 344 -634.5 Q 335 -648 322.5 -657.5 Q 310 -667 295 -671 Q 280 -675 264 -675 Q 250 -675 236 -670.5 Q 222 -666 210.5 -658 Q 199 -650 189.5 -639 Q 180 -628 173 -615 L 291 -415 Q 293 -412 295 -409 Q 297 -406 298 -403 Z M 270 -60 Q 286 -60 301 -66.5 Q 316 -73 325.5 -86.5 Q 335 -100 338.5 -115.5 Q 342 -131 342 -147 Q 342 -168 336.5 -187.5 Q 331 -207 322.5 -225 Q 314 -243 303 -260 Q 292 -277 281 -294 L 280 -293 Q 264 -279 249 -263 Q 234 -247 222.5 -228.5 Q 211 -210 204 -189.5 Q 197 -169 197 -147 Q 197 -131 201 -115 Q 205 -99 214.5 -86 Q 224 -73 239 -66.5 Q 254 -60 270 -60 Z " id="path77"/>
<path d="M 436 -316 L 64 -316 L 64 -364 L 436 -364 Z M 124 -444 L 214 -848 L 287 -848 L 377 -444 L 313 -444 L 296 -530 L 205 -530 L 188 -444 Z M 284 -587 L 259 -714 Q 257 -725 255 -736 Q 253 -747 251 -758 Q 248 -747 246 -736 Q 244 -725 242 -714 L 217 -587 Z M 250 172 Q 227 172 205 167.5 Q 183 163 164.5 149.5 Q 146 136 135.5 115.5 Q 125 95 125 72 L 125 69 L 189 69 L 189 70 Q 189 81 194.5 90.5 Q 200 100 209 105.5 Q 218 111 228.5 113 Q 239 115 250 115 Q 261 115 272 112.5 Q 283 110 292 103.5 Q 301 97 306 87 Q 311 77 311 66 Q 311 48 299.5 33 Q 288 18 272 9.5 Q 256 1 239 -5 Q 222 -11 206.5 -20 Q 191 -29 177 -41 Q 163 -53 152.5 -67.5 Q 142 -82 136 -99.5 Q 130 -117 130 -135 Q 130 -157 139.5 -178.5 Q 149 -200 166.5 -214.5 Q 184 -229 206 -235 Q 228 -241 251 -241 Q 273 -241 295 -236 Q 317 -231 334.5 -217.5 Q 352 -204 362 -183.5 Q 372 -163 372 -141 L 372 -137 L 308 -137 L 308 -139 Q 308 -149 303 -158.5 Q 298 -168 290 -173.5 Q 282 -179 271.5 -181 Q 261 -183 251 -183 Q 240 -183 229.5 -180.5 Q 219 -178 211 -171.5 Q 203 -165 198.5 -155 Q 194 -145 194 -134 Q 194 -116 206 -101.5 Q 218 -87 233.5 -78.5 Q 249 -70 266 -63.5 Q 283 -57 299 -48 Q 315 -39 328.5 -27.5 Q 342 -16 352.5 -1 Q 363 14 369 31 Q 375 48 375 66 Q 375 89 365 111 Q 355 133 337 147 Q 319 161 296 166.5 Q 273 172 250 172 Z " id="path78"/>
<path d="M 64 0 L 64 -70 L 326 -70 L 326 -215 L 120 -215 L 120 -285 L 326 -285 L 326 -520 L 404 -520 L 404 0 Z " id="path79"/>
<path d="M 122 0 Q 108 -0 93 -1 Q 78 -2 64 -4 L 73 -58 Q 85 -56 97.5 -55 Q 110 -54 122 -54 Q 139 -54 155 -56.5 Q 171 -59 187 -63 Q 168 -81 157.5 -105.5 Q 147 -130 147 -156 Q 147 -177 152.5 -198.5 Q 158 -220 171.5 -236.5 Q 185 -253 206 -260.5 Q 227 -268 248 -268 Q 270 -268 290.5 -260.5 Q 311 -253 324.5 -236.5 Q 338 -220 343.5 -198.5 Q 349 -177 349 -156 Q 349 -130 338.5 -105.5 Q 328 -81 309 -63 Q 325 -59 341.5 -56.5 Q 358 -54 374 -54 Q 390 -54 406.5 -56.5 Q 423 -59 439 -63 Q 420 -81 409.5 -105.5 Q 399 -130 399 -156 Q 399 -177 404.5 -198.5 Q 410 -220 423.5 -236.5 Q 437 -253 458 -260.5 Q 479 -268 500 -268 Q 521 -268 542 -260.5 Q 563 -253 576.5 -236.5 Q 590 -220 595.5 -198.5 Q 601 -177 601 -156 Q 601 -130 590.5 -105.5 Q 580 -81 561 -63 Q 577 -59 593.5 -56.5 Q 610 -54 626 -54 Q 642 -54 658.5 -56.5 Q 675 -59 691 -63 Q 672 -81 661.5 -105.5 Q 651 -130 651 -156 Q 651 -177 656.5 -198.5 Q 662 -220 675.5 -236.5 Q 689 -253 709.5 -260.5 Q 730 -268 752 -268 Q 773 -268 794 -260.5 Q 815 -253 828.5 -236.5 Q 842 -220 847.5 -198.5 Q 853 -177 853 -156 Q 853 -130 842.5 -105.5 Q 832 -81 813 -63 Q 829 -59 845 -56.5 Q 861 -54 878 -54 Q 890 -54 902.5 -55 Q 915 -56 927 -58 L 936 -4 Q 922 -2 907 -1 Q 892 -0 878 0 Q 845 0 813.5 -7 Q 782 -14 752 -26 Q 722 -14 690 -7 Q 658 0 626 0 Q 594 0 562 -7 Q 530 -14 500 -26 Q 470 -14 438 -7 Q 406 0 374 0 Q 342 0 310 -7 Q 278 -14 248 -26 Q 218 -14 186.5 -7 Q 155 0 122 0 Z M 752 -87 Q 761 -92 769 -99.5 Q 777 -107 782.5 -116 Q 788 -125 790.5 -135 Q 793 -145 793 -156 Q 793 -166 791 -176 Q 789 -186 784.5 -194.5 Q 780 -203 771 -208.5 Q 762 -214 752 -214 Q 742 -214 733 -208.5 Q 724 -203 719 -194.5 Q 714 -186 712.5 -176 Q 711 -166 711 -156 Q 711 -145 713.5 -135 Q 716 -125 721.5 -116 Q 727 -107 735 -99.5 Q 743 -92 752 -87 Z M 500 -87 Q 509 -92 517 -99.5 Q 525 -107 530.5 -116 Q 536 -125 538.5 -135 Q 541 -145 541 -156 Q 541 -166 539.5 -176 Q 538 -186 533 -194.5 Q 528 -203 519 -208.5 Q 510 -214 500 -214 Q 490 -214 481 -208.5 Q 472 -203 467 -194.5 Q 462 -186 460.5 -176 Q 459 -166 459 -156 Q 459 -145 461.5 -135 Q 464 -125 469.5 -116 Q 475 -107 483 -99.5 Q 491 -92 500 -87 Z M 248 -87 Q 257 -92 265 -99.5 Q 273 -107 278.5 -116 Q 284 -125 286.5 -135 Q 289 -145 289 -156 Q 289 -166 287.5 -176 Q 286 -186 281 -194.5 Q 276 -203 267 -208.5 Q 258 -214 248 -214 Q 238 -214 229 -208.5 Q 220 -203 215.5 -194.5 Q 211 -186 209 -176 Q 207 -166 207 -156 Q 207 -145 209.5 -135 Q 212 -125 217.5 -116 Q 223 -107 231 -99.5 Q 239 -92 248 -87 Z " id="path80"/>
</defs>
<g>
<g data-source-text="0" fill="#dee4e3" transform="translate(174 41.292) rotate(0) scale(0.023999998)">
<use href="#path1" transform="translate(0 0)"/>
</g>
</g>
<g>
<g data-source-text="1" fill="#dee4e3" transform="translate(246 41.292) rotate(0) scale(0.023999998)">
<use href="#path2" transform="translate(0 0)"/>
</g>
</g>
<g>
<g data-source-text="2" fill="#dee4e3" transform="translate(318 41.292) rotate(0) scale(0.023999998)">
<use href="#path3" transform="translate(0 0)"/>
</g>
</g>
<g>
<g data-source-text="3" fill="#dee4e3" transform="translate(390 41.292) rotate(0) scale(0.023999998)">
<use href="#path4" transform="translate(0 0)"/>
</g>
</g>
<g>
<g data-source-text="4" fill="#dee4e3" transform="translate(462 41.292) rotate(0) scale(0.023999998)">
<use href="#path5" transform="translate(0 0)"/>
</g>
</g>
<g>
<g data-source-text="5" fill="#dee4e3" transform="translate(534 41.292) rotate(0) scale(0.023999998)">
<use href="#path6" transform="translate(0 0)"/>
</g>
</g>
<g>
<g data-source-text="6" fill="#dee4e3" transform="translate(606 41.292) rotate(0) scale(0.023999998)">
<use href="#path7" transform="translate(0 0)"/>
</g>
</g>
<g>
<g data-source-text="7" fill="#dee4e3" transform="translate(678 41.292) rotate(0) scale(0.023999998)">
<use href="#path8" transform="translate(0 0)"/>
</g>
</g>
<g>
<g data-source-text="8" fill="#dee4e3" transform="translate(750 41.292) rotate(0) scale(0.023999998)">
<use href="#path9" transform="translate(0 0)"/>
</g>
</g>
<g>
<g data-source-text="9" fill="#dee4e3" transform="translate(822 41.292) rotate(0) scale(0.023999998)">
<use href="#path10" transform="translate(0 0)"/>
</g>
</g>
<g>
<g data-source-text="A" fill="#dee4e3" transform="translate(894 41.292) rotate(0) scale(0.023999998)">
<use href="#path11" transform="translate(0 0)"/>
</g>
</g>
<g>
<g data-source-text="B" fill="#dee4e3" transform="translate(966 41.292) rotate(0) scale(0.023999998)">
<use href="#path12" transform="translate(0 0)"/>
</g>
</g>
<g>
<g data-source-text="C" fill="#dee4e3" transform="translate(1038 41.292) rotate(0) scale(0.023999998)">
<use href="#path13" transform="translate(0 0)"/>
</g>
</g>
<g>
<g data-source-text="D" fill="#dee4e3" transform="translate(1110 41.292) rotate(0) scale(0.023999998)">
<use href="#path14" transform="translate(0 0)"/>
</g>
</g>
<g>
<g data-source-text="E" fill="#dee4e3" transform="translate(1182 41.292) rotate(0) scale(0.023999998)">
<use href="#path15" transform="translate(0 0)"/>
</g>
</g>
<g>
<g data-source-text="F" fill="#dee4e3" transform="translate(1254 41.292) rotate(0) scale(0.023999998)">
<use href="#path16" transform="translate(0 0)"/>
</g>
</g>
<g>
<g data-source-text="U+2100" fill="#dee4e3" transform="translate(36 113.292) rotate(0) scale(0.023999998)">
<use href="#path17" transform="translate(0 0)"/>
<use href="#path18" transform="translate(500 0)"/>
<use href="#path3" transform="translate(1000 0)"/>
<use href="#path2" transform="translate(1500 0)"/>
<use href="#path1" transform="translate(2000 0)"/>
<use href="#path1" transform="translate(2500 0)"/>
</g>
</g>
<g>
<g data-source-text="" fill="#dee4e3" transform="translate(168 118.584) rotate(0) scale(0.047999997)">
<use href="#path19" transform="translate(0 0)"/>
</g>
</g>
<g>
<g data-source-text="" fill="#dee4e3" transform="translate(240 118.584) rotate(0) scale(0.047999997)">
<use href="#path20" transform="translate(0 0)"/>
</g>
</g>
<g>
<g data-source-text="" fill="#dee4e3" transform="translate(312 118.584) rotate(0) scale(0.047999997)">
<use href="#path21" transform="translate(0 0)"/>
</g>
</g>
<g>
<g data-source-text="" fill="#dee4e3" transform="translate(384 118.584) rotate(0) scale(0.047999997)">
<use href="#path22" transform="translate(0 0)"/>
</g>
</g>
<g>
<g data-source-text="" fill="#dee4e340" transform="translate(456 118.584) rotate(0) scale(0.047999997)">
<use href="#path23" transform="translate(0 0)"/>
</g>
</g>
<g>
<g data-source-text="" fill="#dee4e3" transform="translate(528 118.584) rotate(0) scale(0.047999997)">
<use href="#path24" transform="translate(0 0)"/>
</g>
</g>
<g>
<g data-source-text="" fill="#dee4e3" transform="translate(600 118.584) rotate(0) scale(0.047999997)">
<use href="#path25" transform="translate(0 0)"/>
</g>
</g>
<g>
<g data-source-text="" fill="#dee4e3" transform="translate(672 118.584) rotate(0) scale(0.047999997)">
<use href="#path26" transform="translate(0 0)"/>
</g>
</g>
<g>
<g data-source-text="" fill="#dee4e3" transform="translate(744 118.584) rotate(0) scale(0.047999997)">
<use href="#path27" transform="translate(0 0)"/>
</g>
</g>
<g>
<g data-source-text="" fill="#dee4e3" transform="translate(816 118.584) rotate(0) scale(0.047999997)">
<use href="#path28" transform="translate(0 0)"/>
</g>
</g>
<g>
<g data-source-text="" fill="#dee4e340" transform="translate(888 118.584) rotate(0) scale(0.047999997)">
<use href="#path23" transform="translate(0 0)"/>
</g>
</g>
<g>
<g data-source-text="" fill="#dee4e340" transform="translate(960 118.584) rotate(0) scale(0.047999997)">
<use href="#path23" transform="translate(0 0)"/>
</g>
</g>
<g>
<g data-source-text="" fill="#dee4e3" transform="translate(1032 118.584) rotate(0) scale(0.047999997)">
<use href="#path29" transform="translate(0 0)"/>
</g>
</g>
<g>
<g data-source-text="" fill="#dee4e3" transform="translate(1104 118.584) rotate(0) scale(0.047999997)">
<use href="#path30" transform="translate(0 0)"/>
</g>
</g>
<g>
<g data-source-text="" fill="#dee4e3" transform="translate(1176 118.584) rotate(0) scale(0.047999997)">
<use href="#path31" transform="translate(0 0)"/>
</g>
</g>
<g>
<g data-source-text="" fill="#dee4e3" transform="translate(1248 118.584) rotate(0) scale(0.047999997)">
<use href="#path32" transform="translate(0 0)"/>
</g>
</g>
<g>
<g data-source-text="U+2110" fill="#dee4e3" transform="translate(36 185.292) rotate(0) scale(0.023999998)">
<use href="#path17" transform="translate(0 0)"/>
<use href="#path18" transform="translate(500 0)"/>
<use href="#path3" transform="translate(1000 0)"/>
<use href="#path2" transform="translate(1500 0)"/>
<use href="#path2" transform="translate(2000 0)"/>
<use href="#path1" transform="translate(2500 0)"/>
</g>
</g>
<g>
<g data-source-text="" fill="#dee4e340" transform="translate(168 190.584) rotate(0) scale(0.047999997)">
<use href="#path23" transform="translate(0 0)"/>
</g>
</g>
<g>
<g data-source-text="" fill="#dee4e3" transform="translate(240 190.584) rotate(0) scale(0.047999997)">
<use href="#path33" transform="translate(0 0)"/>
</g>
</g>
<g>
<g data-source-text="" fill="#dee4e340" transform="translate(312 190.584) rotate(0) scale(0.047999997)">
<use href="#path23" transform="translate(0 0)"/>
</g>
</g>
<g>
<g data-source-text="" fill="#dee4e3" transform="translate(384 190.584) rotate(0) scale(0.047999997)">
<use href="#path34" transform="translate(0 0)"/>
</g>
</g>
<g>
<g data-source-text="" fill="#dee4e340" transform="translate(456 190.584) rotate(0) scale(0.047999997)">
<use href="#path23" transform="translate(0 0)"/>
</g>
</g>
<g>
<g data-source-text="" fill="#dee4e3" transform="translate(528 190.584) rotate(0) scale(0.047999997)">
<use href="#path35" transform="translate(0 0)"/>
</g>
</g>
<g>
<g data-source-text="" fill="#dee4e3" transform="translate(600 190.584) rotate(0) scale(0.047999997)">
<use href="#path36" transform="translate(0 0)"/>
</g>
</g>
<g>
<g data-source-text="" fill="#dee4e3" transform="translate(672 190.584) rotate(0) scale(0.047999997)">
<use href="#path37" transform="translate(0 0)"/>
</g>
</g>
<g>
<g data-source-text="" fill="#dee4e3" transform="translate(744 190.584) rotate(0) scale(0.047999997)">
<use href="#path38" transform="translate(0 0)"/>
</g>
</g>
<g>
<g data-source-text="" fill="#dee4e3" transform="translate(816 190.584) rotate(0) scale(0.047999997)">
<use href="#path39" transform="translate(0 0)"/>
</g>
</g>
<g>
<g data-source-text="" fill="#dee4e3" transform="translate(888 190.584) rotate(0) scale(0.047999997)">
<use href="#path40" transform="translate(0 0)"/>
</g>
</g>
<g>
<g data-source-text="" fill="#dee4e340" transform="translate(960 190.584) rotate(0) scale(0.047999997)">
<use href="#path23" transform="translate(0 0)"/>
</g>
</g>
<g>
<g data-source-text="" fill="#dee4e3" transform="translate(1032 190.584) rotate(0) scale(0.047999997)">
<use href="#path41" transform="translate(0 0)"/>
</g>
</g>
<g>
<g data-source-text="" fill="#dee4e3" transform="translate(1104 190.584) rotate(0) scale(0.047999997)">
<use href="#path42" transform="translate(0 0)"/>
</g>
</g>
<g>
<g data-source-text="" fill="#dee4e340" transform="translate(1176 190.584) rotate(0) scale(0.047999997)">
<use href="#path23" transform="translate(0 0)"/>
</g>
</g>
<g>
<g data-source-text="" fill="#dee4e340" transform="translate(1248 190.584) rotate(0) scale(0.047999997)">
<use href="#path23" transform="translate(0 0)"/>
</g>
</g>
<g>
<g data-source-text="U+2120" fill="#dee4e3" transform="translate(36 257.292) rotate(0) scale(0.023999998)">
<use href="#path17" transform="translate(0 0)"/>
<use href="#path18" transform="translate(500 0)"/>
<use href="#path3" transform="translate(1000 0)"/>
<use href="#path2" transform="translate(1500 0)"/>
<use href="#path3" transform="translate(2000 0)"/>
<use href="#path1" transform="translate(2500 0)"/>
</g>
</g>
<g>
<g data-source-text="" fill="#dee4e3" transform="translate(168 262.584) rotate(0) scale(0.047999997)">
<use href="#path43" transform="translate(0 0)"/>
</g>
</g>
<g>
<g data-source-text="" fill="#dee4e3" transform="translate(240 262.584) rotate(0) scale(0.047999997)">
<use href="#path44" transform="translate(0 0)"/>
</g>
</g>
<g>
<g data-source-text="" fill="#dee4e3" transform="translate(312 262.584) rotate(0) scale(0.047999997)">
<use href="#path45" transform="translate(0 0)"/>
</g>
</g>
<g>
<g data-source-text="" fill="#dee4e340" transform="translate(384 262.584) rotate(0) scale(0.047999997)">
<use href="#path23" transform="translate(0 0)"/>
</g>
</g>
<g>
<g data-source-text="" fill="#dee4e3" transform="translate(456 262.584) rotate(0) scale(0.047999997)">
<use href="#path46" transform="translate(0 0)"/>
</g>
</g>
<g>
<g data-source-text="" fill="#dee4e340" transform="translate(528 262.584) rotate(0) scale(0.047999997)">
<use href="#path23" transform="translate(0 0)"/>
</g>
</g>
<g>
<g data-source-text="" fill="#dee4e3" transform="translate(600 262.584) rotate(0) scale(0.047999997)">
<use href="#path47" transform="translate(0 0)"/>
</g>
</g>
<g>
<g data-source-text="" fill="#dee4e3" transform="translate(672 262.584) rotate(0) scale(0.047999997)">
<use href="#path48" transform="translate(0 0)"/>
</g>
</g>
<g>
<g data-source-text="" fill="#dee4e3" transform="translate(744 262.584) rotate(0) scale(0.047999997)">
<use href="#path49" transform="translate(0 0)"/>
</g>
</g>
<g>
<g data-source-text="" fill="#dee4e3" transform="translate(816 262.584) rotate(0) scale(0.047999997)">
<use href="#path50" transform="translate(0 0)"/>
</g>
</g>
<g>
<g data-source-text="" fill="#dee4e3" transform="translate(888 262.584) rotate(0) scale(0.047999997)">
<use href="#path51" transform="translate(0 0)"/>
</g>
</g>
<g>
<g data-source-text="" fill="#dee4e3" transform="translate(960 262.584) rotate(0) scale(0.047999997)">
<use href="#path52" transform="translate(0 0)"/>
</g>
</g>
<g>
<g data-source-text="" fill="#dee4e340" transform="translate(1032 262.584) rotate(0) scale(0.047999997)">
<use href="#path23" transform="translate(0 0)"/>
</g>
</g>
<g>
<g data-source-text="" fill="#dee4e3" transform="translate(1104 262.584) rotate(0) scale(0.047999997)">
<use href="#path53" transform="translate(0 0)"/>
</g>
</g>
<g>
<g data-source-text="" fill="#dee4e3" transform="translate(1164 262.584) rotate(0) scale(0.047999997)">
<use href="#path54" transform="translate(0 0)"/>
</g>
</g>
<g>
<g data-source-text="" fill="#dee4e340" transform="translate(1248 262.584) rotate(0) scale(0.047999997)">
<use href="#path23" transform="translate(0 0)"/>
</g>
</g>
<g>
<g data-source-text="U+2130" fill="#dee4e3" transform="translate(36 329.292) rotate(0) scale(0.023999998)">
<use href="#path17" transform="translate(0 0)"/>
<use href="#path18" transform="translate(500 0)"/>
<use href="#path3" transform="translate(1000 0)"/>
<use href="#path2" transform="translate(1500 0)"/>
<use href="#path4" transform="translate(2000 0)"/>
<use href="#path1" transform="translate(2500 0)"/>
</g>
</g>
<g>
<g data-source-text="" fill="#dee4e340" transform="translate(168 334.584) rotate(0) scale(0.047999997)">
<use href="#path23" transform="translate(0 0)"/>
</g>
</g>
<g>
<g data-source-text="" fill="#dee4e340" transform="translate(240 334.584) rotate(0) scale(0.047999997)">
<use href="#path23" transform="translate(0 0)"/>
</g>
</g>
<g>
<g data-source-text="" fill="#dee4e3" transform="translate(312 334.584) rotate(0) scale(0.047999997)">
<use href="#path55" transform="translate(0 0)"/>
</g>
</g>
<g>
<g data-source-text="" fill="#dee4e340" transform="translate(384 334.584) rotate(0) scale(0.047999997)">
<use href="#path23" transform="translate(0 0)"/>
</g>
</g>
<g>
<g data-source-text="" fill="#dee4e340" transform="translate(456 334.584) rotate(0) scale(0.047999997)">
<use href="#path23" transform="translate(0 0)"/>
</g>
</g>
<g>
<g data-source-text="" fill="#dee4e3" transform="translate(528 334.584) rotate(0) scale(0.047999997)">
<use href="#path56" transform="translate(0 0)"/>
</g>
</g>
<g>
<g data-source-text="" fill="#dee4e3" transform="translate(600 334.584) rotate(0) scale(0.047999997)">
<use href="#path57" transform="translate(0 0)"/>
</g>
</g>
<g>
<g data-source-text="" fill="#dee4e3" transform="translate(672 334.584) rotate(0) scale(0.047999997)">
<use href="#path58" transform="translate(0 0)"/>
</g>
</g>
<g>
<g data-source-text="" fill="#dee4e3" transform="translate(744 334.584) rotate(0) scale(0.047999997)">
<use href="#path59" transform="translate(0 0)"/>
</g>
</g>
<g>
<g data-source-text="" fill="#dee4e3" transform="translate(816 334.584) rotate(0) scale(0.047999997)">
<use href="#path60" transform="translate(0 0)"/>
</g>
</g>
<g>
<g data-source-text="" fill="#dee4e3" transform="translate(888 334.584) rotate(0) scale(0.047999997)">
<use href="#path61" transform="translate(0 0)"/>
</g>
</g>
<g>
<g data-source-text="" fill="#dee4e3" transform="translate(960 334.584) rotate(0) scale(0.047999997)">
<use href="#path62" transform="translate(0 0)"/>
</g>
</g>
<g>
<g data-source-text="" fill="#dee4e3" transform="translate(1032 334.584) rotate(0) scale(0.047999997)">
<use href="#path63" transform="translate(0 0)"/>
</g>
</g>
<g>
<g data-source-text="" fill="#dee4e3" transform="translate(1104 334.584) rotate(0) scale(0.047999997)">
<use href="#path64" transform="translate(0 0)"/>
</g>
</g>
<g>
<g data-source-text="" fill="#dee4e3" transform="translate(1176 334.584) rotate(0) scale(0.047999997)">
<use href="#path65" transform="translate(0 0)"/>
</g>
</g>
<g>
<g data-source-text="" fill="#dee4e3" transform="translate(1248 334.584) rotate(0) scale(0.047999997)">
<use href="#path66" transform="translate(0 0)"/>
</g>
</g>
<g>
<g data-source-text="U+2140" fill="#dee4e3" transform="translate(36 401.292) rotate(0) scale(0.023999998)">
<use href="#path17" transform="translate(0 0)"/>
<use href="#path18" transform="translate(500 0)"/>
<use href="#path3" transform="translate(1000 0)"/>
<use href="#path2" transform="translate(1500 0)"/>
<use href="#path5" transform="translate(2000 0)"/>
<use href="#path1" transform="translate(2500 0)"/>
</g>
</g>
<g>
<g data-source-text="" fill="#dee4e3" transform="translate(156 406.584) rotate(0) scale(0.047999997)">
<use href="#path67" transform="translate(0 0)"/>
</g>
</g>
<g>
<g data-source-text="" fill="#dee4e3" transform="translate(240 406.584) rotate(0) scale(0.047999997)">
<use href="#path68" transform="translate(0 0)"/>
</g>
</g>
<g>
<g data-source-text="" fill="#dee4e3" transform="translate(312 406.584) rotate(0) scale(0.047999997)">
<use href="#path69" transform="translate(0 0)"/>
</g>
</g>
<g>
<g data-source-text="" fill="#dee4e3" transform="translate(384 406.584) rotate(0) scale(0.047999997)">
<use href="#path70" transform="translate(0 0)"/>
</g>
</g>
<g>
<g data-source-text="" fill="#dee4e3" transform="translate(456 406.584) rotate(0) scale(0.047999997)">
<use href="#path71" transform="translate(0 0)"/>
</g>
</g>
<g>
<g data-source-text="" fill="#dee4e3" transform="translate(528 406.584) rotate(0) scale(0.047999997)">
<use href="#path72" transform="translate(0 0)"/>
</g>
</g>
<g>
<g data-source-text="" fill="#dee4e3" transform="translate(600 406.584) rotate(0) scale(0.047999997)">
<use href="#path73" transform="translate(0 0)"/>
</g>
</g>
<g>
<g data-source-text="" fill="#dee4e3" transform="translate(672 406.584) rotate(0) scale(0.047999997)">
<use href="#path74" transform="translate(0 0)"/>
</g>
</g>
<g>
<g data-source-text="" fill="#dee4e3" transform="translate(744 406.584) rotate(0) scale(0.047999997)">
<use href="#path75" transform="translate(0 0)"/>
</g>
</g>
<g>
<g data-source-text="" fill="#dee4e3" transform="translate(816 406.584) rotate(0) scale(0.047999997)">
<use href="#path76" transform="translate(0 0)"/>
</g>
</g>
<g>
<g data-source-text="" fill="#dee4e340" transform="translate(888 406.584) rotate(0) scale(0.047999997)">
<use href="#path23" transform="translate(0 0)"/>
</g>
</g>
<g>
<g data-source-text="" fill="#dee4e3" transform="translate(960 406.584) rotate(0) scale(0.047999997)">
<use href="#path77" transform="translate(0 0)"/>
</g>
</g>
<g>
<g data-source-text="" fill="#dee4e340" transform="translate(1032 406.584) rotate(0) scale(0.047999997)">
<use href="#path23" transform="translate(0 0)"/>
</g>
</g>
<g>
<g data-source-text="" fill="#dee4e3" transform="translate(1104 406.584) rotate(0) scale(0.047999997)">
<use href="#path78" transform="translate(0 0)"/>
</g>
</g>
<g>
<g data-source-text="" fill="#dee4e3" transform="translate(1176 406.584) rotate(0) scale(0.047999997)">
<use href="#path79" transform="translate(0 0)"/>
</g>
</g>
<g>
<g data-source-text="" fill="#dee4e3" transform="translate(1236 406.584) rotate(0) scale(0.047999997)">
<use href="#path80" transform="translate(0 0)"/>
</g>
</g>
</svg>