<?xml version="1.0" encoding="UTF-8" standalone="no"?>
<svg height="648" viewBox="0 0 1296 648" width="1296" xmlns="http://www.w3.org/2000/svg">
<defs>
<path d="M 250 8 Q 223 8 196 3 Q 169 -2 145 -15 Q 121 -28 102.5 -48.5 Q 84 -69 72.5 -94 Q 61 -119 56.5 -146 Q 52 -173 52 -200 L 52 -535 Q 52 -562 56.5 -589 Q 61 -616 72.5 -641 Q 84 -666 102.5 -686.5 Q 121 -707 145 -720 Q 169 -733 196 -738 Q 223 -743 250 -743 Q 277 -743 304 -738 Q 331 -733 355 -720 Q 379 -707 397.5 -686.5 Q 416 -666 427.5 -641 Q 439 -616 443.5 -589 Q 448 -562 448 -535 L 448 -200 Q 448 -173 443.5 -146 Q 439 -119 427.5 -94 Q 416 -69 397.5 -48.5 Q 379 -28 355 -15 Q 331 -2 304 3 Q 277 8 250 8 Z M 153 -337 L 347 -491 L 347 -535 Q 347 -557 342.5 -578.5 Q 338 -600 325.5 -618 Q 313 -636 292.5 -645.5 Q 272 -655 250 -655 Q 228 -655 207.5 -645.5 Q 187 -636 174.5 -618 Q 162 -600 157.5 -578.5 Q 153 -557 153 -535 Z M 250 -80 Q 272 -80 292.5 -89.5 Q 313 -99 325.5 -117 Q 338 -135 342.5 -156.5 Q 347 -178 347 -200 L 347 -398 L 153 -244 L 153 -200 Q 153 -178 157.5 -156.5 Q 162 -135 174.5 -117 Q 187 -99 207.5 -89.5 Q 228 -80 250 -80 Z " id="path1"/>
<path d="M 230 0 L 230 -631 L 110 -528 L 55 -584 L 230 -735 L 330 -735 L 330 0 Z " id="path2"/>
<path d="M 440 0 L 60 0 L 60 -1 Q 60 -27 61 -53.5 Q 62 -80 66 -106.5 Q 70 -133 77.5 -158.5 Q 85 -184 96.5 -207.5 Q 108 -231 123 -253 Q 138 -275 156 -294.5 Q 174 -314 194 -331 Q 214 -348 235.5 -364 Q 257 -380 277.5 -397 Q 298 -414 313 -435.5 Q 328 -457 335.5 -483 Q 343 -509 343 -535 Q 343 -557 339 -578 Q 335 -599 323.5 -617 Q 312 -635 292 -645 Q 272 -655 251 -655 Q 231 -655 212.5 -647.5 Q 194 -640 182 -625 Q 170 -610 164.5 -591 Q 159 -572 159 -552 L 159 -548 L 58 -548 L 58 -555 Q 58 -581 64 -605.5 Q 70 -630 81.5 -652.5 Q 93 -675 111.5 -693 Q 130 -711 152.5 -722.5 Q 175 -734 200.5 -738.5 Q 226 -743 251 -743 Q 278 -743 304.5 -737.5 Q 331 -732 354.5 -719 Q 378 -706 396 -685.5 Q 414 -665 424.5 -640.5 Q 435 -616 439.5 -589 Q 444 -562 444 -535 Q 444 -501 435 -468 Q 426 -435 407.5 -406 Q 389 -377 364 -353.5 Q 339 -330 312.5 -308.5 Q 286 -287 261 -264 Q 236 -241 216.5 -213 Q 197 -185 184 -153.5 Q 171 -122 166 -88 L 440 -88 Z " id="path3"/>
<path d="M 253 8 Q 227 8 201 4 Q 175 -0 151.5 -11.5 Q 128 -23 108.5 -40.5 Q 89 -58 76 -81 Q 63 -104 56.5 -129.5 Q 50 -155 50 -181 L 50 -187 L 151 -187 L 151 -184 Q 151 -163 157.5 -143 Q 164 -123 178 -108 Q 192 -93 212 -86.5 Q 232 -80 253 -80 Q 275 -80 296 -88.5 Q 317 -97 330.5 -114.5 Q 344 -132 349.5 -154 Q 355 -176 355 -198 Q 355 -217 351 -235.5 Q 347 -254 338.5 -271 Q 330 -288 316.5 -301 Q 303 -314 286 -322 Q 269 -330 250 -332 Q 231 -334 212 -334 L 212 -422 Q 229 -422 246 -424 Q 263 -426 278.5 -433 Q 294 -440 306 -452.5 Q 318 -465 325.5 -480.5 Q 333 -496 336 -513 Q 339 -530 339 -547 Q 339 -566 334.5 -585.5 Q 330 -605 319.5 -621 Q 309 -637 291 -646 Q 273 -655 253 -655 Q 234 -655 216.5 -647 Q 199 -639 187.5 -624 Q 176 -609 171.5 -590 Q 167 -571 167 -553 L 167 -548 L 66 -548 L 66 -556 Q 66 -581 71.5 -605.5 Q 77 -630 88 -652 Q 99 -674 117 -692.5 Q 135 -711 157 -722.5 Q 179 -734 203.5 -738.5 Q 228 -743 253 -743 Q 278 -743 303.5 -738 Q 329 -733 351 -721 Q 373 -709 390 -690 Q 407 -671 418 -648 Q 429 -625 434.5 -600 Q 440 -575 440 -550 Q 440 -524 434 -498.5 Q 428 -473 415.5 -450.5 Q 403 -428 384.5 -409.5 Q 366 -391 343 -379 Q 369 -368 390.5 -348.5 Q 412 -329 427 -304.5 Q 442 -280 449 -252 Q 456 -224 456 -196 Q 456 -168 450 -141.5 Q 444 -115 432 -91 Q 420 -67 401 -47 Q 382 -27 358 -14.5 Q 334 -2 307 3 Q 280 8 253 8 Z " id="path4"/>
<path d="M 282 0 L 282 -188 L 52 -188 L 52 -275 L 276 -735 L 385 -735 L 161 -275 L 282 -275 L 282 -435 L 382 -435 L 382 -275 L 440 -275 L 440 -188 L 382 -188 L 382 0 Z " id="path5"/>
<path d="M 252 8 Q 227 8 202.5 3.5 Q 178 -1 155.5 -12 Q 133 -23 115 -41 Q 97 -59 85 -80.5 Q 73 -102 66.5 -126.5 Q 60 -151 59 -176 L 159 -176 Q 161 -158 167 -139.5 Q 173 -121 185.5 -107 Q 198 -93 216 -86.5 Q 234 -80 252 -80 Q 269 -80 285 -87 Q 301 -94 312 -107 Q 323 -120 330 -135.5 Q 337 -151 340.5 -168 Q 344 -185 345.5 -202 Q 347 -219 347 -236 Q 347 -252 346 -269 Q 345 -286 341 -302 Q 337 -318 331 -334 Q 325 -350 314 -363 Q 303 -376 287.5 -383.5 Q 272 -391 256 -391 Q 240 -391 224.5 -387 Q 209 -383 196 -373.5 Q 183 -364 176 -349.5 Q 169 -335 168 -319 L 68 -319 L 68 -735 L 421 -735 L 421 -647 L 168 -647 L 168 -464 Q 189 -472 211 -475 Q 233 -478 256 -478 Q 285 -478 313.5 -470.5 Q 342 -463 365.5 -445.5 Q 389 -428 405.5 -403 Q 422 -378 431.5 -350.5 Q 441 -323 444.5 -294 Q 448 -265 448 -235 Q 448 -206 444 -176.5 Q 440 -147 430.5 -119 Q 421 -91 404 -66.5 Q 387 -42 363.5 -24.5 Q 340 -7 311 0.5 Q 282 8 252 8 Z " id="path6"/>
<path d="M 250 8 Q 221 8 192.5 1.5 Q 164 -5 140 -21 Q 116 -37 98.5 -60.5 Q 81 -84 70.5 -111 Q 60 -138 56 -166.5 Q 52 -195 52 -224 Q 52 -268 60 -311 Q 68 -354 81.5 -395.5 Q 95 -437 113 -477 Q 131 -517 150 -556 L 238 -735 L 347 -735 L 240 -517 Q 228 -493 216.5 -468.5 Q 205 -444 195 -419 Q 214 -438 239 -447 Q 264 -456 291 -456 Q 317 -456 342.5 -447 Q 368 -438 386.5 -419.5 Q 405 -401 417 -377.5 Q 429 -354 436 -328.5 Q 443 -303 445.5 -276.5 Q 448 -250 448 -224 Q 448 -195 444 -166.5 Q 440 -138 429.5 -111 Q 419 -84 401.5 -60.5 Q 384 -37 360 -21 Q 336 -5 307.5 1.5 Q 279 8 250 8 Z M 250 -80 Q 266 -80 282 -85.5 Q 298 -91 309.5 -102.5 Q 321 -114 328.5 -129 Q 336 -144 340 -159.5 Q 344 -175 345.5 -191.5 Q 347 -208 347 -224 Q 347 -240 345.5 -256.5 Q 344 -273 340 -289 Q 336 -305 328.5 -319.5 Q 321 -334 309.5 -345.5 Q 298 -357 282 -362.5 Q 266 -368 250 -368 Q 235 -368 221 -363.5 Q 207 -359 195.5 -349.5 Q 184 -340 176.5 -327.5 Q 169 -315 164 -301 Q 159 -287 156.5 -272.5 Q 154 -258 153 -243 L 153 -224 Q 153 -208 154.5 -191.5 Q 156 -175 160 -159.5 Q 164 -144 171.5 -129 Q 179 -114 190.5 -102.5 Q 202 -91 218 -85.5 Q 234 -80 250 -80 Z " id="path7"/>
<path d="M 242 0 L 138 0 L 336 -647 L 60 -647 L 60 -735 L 440 -735 L 440 -647 Z " id="path8"/>
<path d="M 250 8 Q 225 8 200 4 Q 175 -0 152 -10 Q 129 -20 109.5 -37 Q 90 -54 77.5 -75.5 Q 65 -97 58.5 -121.5 Q 52 -146 52 -172 Q 52 -203 62 -232.5 Q 72 -262 88.5 -288 Q 105 -314 127 -336 Q 149 -358 174 -378 Q 152 -396 132.5 -417 Q 113 -438 98.5 -462.5 Q 84 -487 76 -514.5 Q 68 -542 68 -570 Q 68 -594 73.5 -617 Q 79 -640 90.5 -661 Q 102 -682 119.5 -698.5 Q 137 -715 158 -725 Q 179 -735 202.5 -739 Q 226 -743 250 -743 Q 274 -743 297.5 -739 Q 321 -735 342 -725 Q 363 -715 380.5 -698.5 Q 398 -682 409.5 -661 Q 421 -640 426.5 -617 Q 432 -594 432 -570 Q 432 -542 424 -514.5 Q 416 -487 401.5 -462.5 Q 387 -438 367.5 -417 Q 348 -396 326 -378 Q 351 -358 373 -336 Q 395 -314 411.5 -288 Q 428 -262 438 -232.5 Q 448 -203 448 -172 Q 448 -146 441.5 -121.5 Q 435 -97 422.5 -75.5 Q 410 -54 390.5 -37 Q 371 -20 348 -10 Q 325 -0 300 4 Q 275 8 250 8 Z M 250 -435 Q 266 -447 280.5 -461.5 Q 295 -476 306.5 -493 Q 318 -510 325 -529.5 Q 332 -549 332 -569 Q 332 -586 326.5 -602.5 Q 321 -619 310 -631.5 Q 299 -644 283 -649.5 Q 267 -655 250 -655 Q 233 -655 217 -649.5 Q 201 -644 190 -631.5 Q 179 -619 173.5 -602.5 Q 168 -586 168 -569 Q 168 -549 175 -529.5 Q 182 -510 193.5 -493 Q 205 -476 219.5 -461.5 Q 234 -447 250 -435 Z M 250 -80 Q 269 -80 287.5 -85.5 Q 306 -91 320 -104 Q 334 -117 340.5 -135.5 Q 347 -154 347 -173 Q 347 -196 338.5 -217.5 Q 330 -239 316.5 -257.5 Q 303 -276 285.5 -291 Q 268 -306 250 -320 Q 232 -306 214.5 -291 Q 197 -276 183.5 -257.5 Q 170 -239 161.5 -217.5 Q 153 -196 153 -173 Q 153 -154 159.5 -135.5 Q 166 -117 180 -104 Q 194 -91 212.5 -85.5 Q 231 -80 250 -80 Z " id="path9"/>
<path d="M 262 0 L 153 0 L 260 -218 Q 272 -242 283.5 -266.5 Q 295 -291 305 -316 Q 286 -297 261 -288 Q 236 -279 209 -279 Q 183 -279 157.5 -288 Q 132 -297 113.5 -315.5 Q 95 -334 83 -357.5 Q 71 -381 64 -406.5 Q 57 -432 54.5 -458.5 Q 52 -485 52 -511 Q 52 -540 56 -568.5 Q 60 -597 70.5 -624 Q 81 -651 98.5 -674.5 Q 116 -698 140 -714 Q 164 -730 192.5 -736.5 Q 221 -743 250 -743 Q 279 -743 307.5 -736.5 Q 336 -730 360 -714 Q 384 -698 401.5 -674.5 Q 419 -651 429.5 -624 Q 440 -597 444 -568.5 Q 448 -540 448 -511 Q 448 -467 440 -424 Q 432 -381 418.5 -339.5 Q 405 -298 387 -258 Q 369 -218 350 -179 Z M 250 -367 Q 265 -367 279 -371.5 Q 293 -376 304.5 -385.5 Q 316 -395 323.5 -407.5 Q 331 -420 336 -434 Q 341 -448 343.5 -462.5 Q 346 -477 347 -492 L 347 -511 Q 347 -527 345.5 -543.5 Q 344 -560 340 -575.5 Q 336 -591 328.5 -606 Q 321 -621 309.5 -632.5 Q 298 -644 282 -649.5 Q 266 -655 250 -655 Q 234 -655 218 -649.5 Q 202 -644 190.5 -632.5 Q 179 -621 171.5 -606 Q 164 -591 160 -575.5 Q 156 -560 154.5 -543.5 Q 153 -527 153 -511 Q 153 -495 154.5 -478.5 Q 156 -462 160 -446 Q 164 -430 171.5 -415.5 Q 179 -401 190.5 -389.5 Q 202 -378 218 -372.5 Q 234 -367 250 -367 Z " id="path10"/>
<path d="M 39 0 L 192 -735 L 308 -735 L 461 0 L 358 0 L 326 -172 L 174 -172 L 142 0 Z M 309 -260 L 265 -490 Q 262 -511 258 -531.5 Q 254 -552 250 -572 Q 246 -552 242 -531.5 Q 238 -511 235 -490 L 191 -260 Z " id="path11"/>
<path d="M 60 0 L 60 -735 L 234 -735 Q 261 -735 287 -730.5 Q 313 -726 336 -714 Q 359 -702 377.5 -682.5 Q 396 -663 408 -639.5 Q 420 -616 424.5 -590 Q 429 -564 429 -538 Q 429 -515 425 -492 Q 421 -469 410.5 -448.5 Q 400 -428 383.5 -411 Q 367 -394 347 -383 Q 372 -373 393.5 -355.5 Q 415 -338 429.5 -314.5 Q 444 -291 450 -264 Q 456 -237 456 -210 Q 456 -181 450 -152.5 Q 444 -124 430 -98.5 Q 416 -73 394.5 -53.5 Q 373 -34 347 -21.5 Q 321 -9 292 -4.5 Q 263 -0 234 0 Z M 161 -424 L 234 -424 Q 255 -424 274.5 -432.5 Q 294 -441 306.5 -457.5 Q 319 -474 324 -494.5 Q 329 -515 329 -536 Q 329 -557 324 -577.5 Q 319 -598 306.5 -614.5 Q 294 -631 274.5 -639 Q 255 -647 234 -647 L 161 -647 Z M 161 -88 L 234 -88 Q 251 -88 267 -91 Q 283 -94 297.5 -101.5 Q 312 -109 323.5 -121 Q 335 -133 342.5 -148 Q 350 -163 352.5 -179 Q 355 -195 355 -212 Q 355 -228 352.5 -244.5 Q 350 -261 343 -276 Q 336 -291 324.5 -303 Q 313 -315 298 -322.5 Q 283 -330 267 -333 Q 251 -336 234 -336 L 161 -336 Z " id="path12"/>
<path d="M 247 8 Q 220 8 193 2.5 Q 166 -3 142.5 -16 Q 119 -29 101 -49.5 Q 83 -70 72 -94.5 Q 61 -119 56.5 -146 Q 52 -173 52 -200 L 52 -535 Q 52 -562 56.5 -589 Q 61 -616 72 -640.5 Q 83 -665 101 -685.5 Q 119 -706 142.5 -719 Q 166 -732 193 -737.5 Q 220 -743 247 -743 Q 273 -743 298 -738.5 Q 323 -734 346 -723 Q 369 -712 387.5 -694 Q 406 -676 418 -653.5 Q 430 -631 436 -606 Q 442 -581 442 -555 L 442 -548 L 341 -548 L 341 -552 Q 341 -572 335.5 -591.5 Q 330 -611 317.5 -626 Q 305 -641 286 -648 Q 267 -655 247 -655 Q 225 -655 205 -645.5 Q 185 -636 173 -618 Q 161 -600 157 -578.5 Q 153 -557 153 -535 L 153 -200 Q 153 -178 157 -156.5 Q 161 -135 173 -117 Q 185 -99 205 -89.5 Q 225 -80 247 -80 Q 267 -80 286 -87 Q 305 -94 317.5 -109 Q 330 -124 335.5 -143.5 Q 341 -163 341 -183 L 341 -187 L 442 -187 L 442 -180 Q 442 -154 436 -129 Q 430 -104 418 -81.5 Q 406 -59 387.5 -41 Q 369 -23 346 -12 Q 323 -1 298 3.5 Q 273 8 247 8 Z " id="path13"/>
<path d="M 60 0 L 60 -735 L 219 -735 Q 249 -735 279 -730 Q 309 -725 336.5 -712 Q 364 -699 386 -678.5 Q 408 -658 422 -631.5 Q 436 -605 442 -575 Q 448 -545 448 -515 L 448 -220 Q 448 -190 442 -160 Q 436 -130 422 -103.5 Q 408 -77 386 -56.5 Q 364 -36 336.5 -23 Q 309 -10 279 -5 Q 249 -0 219 0 Z M 161 -88 L 219 -88 Q 237 -88 254 -91 Q 271 -94 286.5 -102.5 Q 302 -111 314 -124 Q 326 -137 333.5 -152.5 Q 341 -168 344 -185.5 Q 347 -203 347 -220 L 347 -515 Q 347 -532 344 -549.5 Q 341 -567 333.5 -582.5 Q 326 -598 314 -611 Q 302 -624 286.5 -632.5 Q 271 -641 254 -644 Q 237 -647 219 -647 L 161 -647 Z " id="path14"/>
<path d="M 68 0 L 68 -735 L 440 -735 L 440 -647 L 169 -647 L 169 -426 L 383 -426 L 383 -338 L 169 -338 L 169 -88 L 440 -88 L 440 0 Z " id="path15"/>
<path d="M 91 0 L 91 -735 L 440 -735 L 440 -647 L 191 -647 L 191 -426 L 383 -426 L 383 -338 L 191 -338 L 191 0 Z " id="path16"/>
<path d="M 250 8 Q 223 8 196.5 2.5 Q 170 -3 147 -16.5 Q 124 -30 106.5 -50.5 Q 89 -71 78.5 -95.5 Q 68 -120 64 -146.5 Q 60 -173 60 -200 L 60 -735 L 161 -735 L 161 -200 Q 161 -186 162.5 -172 Q 164 -158 168 -144.5 Q 172 -131 179.5 -118.5 Q 187 -106 197.5 -97 Q 208 -88 222 -84 Q 236 -80 250 -80 Q 264 -80 278 -84 Q 292 -88 302.5 -97 Q 313 -106 320.5 -118.5 Q 328 -131 332 -144.5 Q 336 -158 337.5 -172 Q 339 -186 339 -200 L 339 -735 L 440 -735 L 440 -200 Q 440 -173 436 -146.5 Q 432 -120 421.5 -95.5 Q 411 -71 393.5 -50.5 Q 376 -30 353 -16.5 Q 330 -3 303.5 2.5 Q 277 8 250 8 Z " id="path17"/>
<path d="M 300 -143 L 200 -143 L 200 -296 L 60 -296 L 60 -384 L 200 -384 L 200 -537 L 300 -537 L 300 -384 L 440 -384 L 440 -296 L 300 -296 Z " id="path18"/>
<path d="M 64 0 L 64 -735 L 436 -735 L 436 0 Z M 94 -321 L 401 -705 L 308 -705 L 94 -438 Z M 94 -478 L 276 -705 L 182 -705 L 94 -595 Z M 94 -634 L 151 -705 L 94 -705 Z M 94 -165 L 406 -554 L 406 -671 L 94 -282 Z M 94 -30 L 111 -30 L 406 -398 L 406 -515 L 94 -126 Z M 143 -30 L 236 -30 L 406 -242 L 406 -359 Z M 268 -30 L 362 -30 L 406 -85 L 406 -202 Z M 393 -30 L 406 -30 L 406 -46 Z " id="path19"/>
<path d="M 291 -91 L 42 -340 L 291 -589 L 329 -555 L 253 -477 L 942 -477 L 942 -407 L 184 -407 L 119 -340 L 184 -273 L 942 -273 L 942 -203 L 253 -203 L 329 -125 Z M 566 -140 L 566 -540 L 610 -540 L 610 -140 Z " id="path20"/>
<path d="M 709 -91 L 671 -125 L 747 -203 L 58 -203 L 58 -273 L 816 -273 L 881 -340 L 816 -407 L 58 -407 L 58 -477 L 747 -477 L 671 -555 L 709 -589 L 958 -340 Z M 390 -140 L 390 -540 L 434 -540 L 434 -140 Z " id="path21"/>
<path d="M 291 -91 L 42 -340 L 291 -589 L 329 -555 L 253 -477 L 747 -477 L 671 -555 L 709 -589 L 958 -340 L 709 -91 L 671 -125 L 747 -203 L 253 -203 L 329 -125 Z M 816 -273 L 881 -340 L 816 -407 L 184 -407 L 119 -340 L 184 -273 Z M 478 -140 L 478 -540 L 522 -540 L 522 -140 Z " id="path22"/>
<path d="M 291 -91 L 42 -340 L 291 -589 L 329 -555 L 253 -477 L 904 -477 L 904 -589 L 981 -589 L 981 -91 L 904 -91 L 904 -203 L 253 -203 L 329 -125 Z M 184 -273 L 904 -273 L 904 -407 L 184 -407 L 119 -340 Z " id="path23"/>
<path d="M 709 -91 L 671 -125 L 747 -203 L 96 -203 L 96 -91 L 19 -91 L 19 -589 L 96 -589 L 96 -477 L 747 -477 L 671 -555 L 709 -589 L 958 -340 Z M 96 -273 L 816 -273 L 881 -340 L 816 -407 L 96 -407 Z " id="path24"/>
<path d="M 500 118 L 251 -131 L 285 -169 L 465 7 L 465 -782 L 535 -782 L 535 7 L 715 -169 L 749 -131 Z M 650 -408 L 350 -408 L 350 -448 L 650 -448 Z " id="path25"/>
<path d="M 465 102 L 465 -687 L 285 -511 L 251 -549 L 500 -798 L 749 -549 L 715 -511 L 535 -687 L 535 102 Z M 650 -232 L 350 -232 L 350 -272 L 650 -272 Z " id="path26"/>
<path d="M 363 102 L 363 -587 L 285 -511 L 251 -549 L 500 -798 L 749 -549 L 715 -511 L 637 -587 L 637 102 L 568 102 L 568 -654 L 534 -688 L 534 102 L 466 102 L 466 -688 L 432 -654 L 432 102 Z " id="path27"/>
<path d="M 500 118 L 251 -131 L 285 -169 L 363 -93 L 363 -782 L 432 -782 L 432 -26 L 466 8 L 466 -782 L 534 -782 L 534 8 L 568 -26 L 568 -782 L 637 -782 L 637 -93 L 715 -169 L 749 -131 Z " id="path28"/>
<path d="M 251 -748 L 251 -817 L 749 -817 L 749 -748 Z M 465 102 L 465 -618 L 285 -442 L 251 -480 L 500 -729 L 749 -480 L 715 -442 L 535 -618 L 535 102 Z " id="path29"/>
<path d="M 500 49 L 251 -200 L 285 -238 L 465 -62 L 465 -782 L 535 -782 L 535 -62 L 715 -238 L 749 -200 Z M 251 137 L 251 68 L 749 68 L 749 137 Z " id="path30"/>
<path d="M 926 -91 L 712 -305 L 80 -305 L 80 -375 L 712 -375 L 926 -589 L 965 -555 L 754 -340 L 965 -125 Z " id="path31"/>
<path d="M 74 -91 L 55 -108 L 35 -125 L 246 -340 L 35 -555 L 74 -589 L 288 -375 L 920 -375 L 920 -305 L 288 -305 Z " id="path32"/>
<path d="M 693 -91 L 480 -305 L 80 -305 L 80 -375 L 480 -375 L 693 -589 L 732 -555 L 556 -375 L 712 -375 L 926 -589 L 965 -555 L 754 -340 L 965 -125 L 926 -91 L 712 -305 L 556 -305 L 732 -125 Z " id="path33"/>
<path d="M 307 -91 L 268 -125 L 444 -305 L 288 -305 L 74 -91 L 55 -108 L 35 -125 L 246 -340 L 35 -555 L 74 -589 L 288 -375 L 444 -375 L 268 -555 L 307 -589 L 520 -375 L 920 -375 L 920 -305 L 520 -305 Z " id="path34"/>
<path d="M 475 -341 L 171 -645 L 168 -394 L 117 -397 L 117 -749 L 469 -749 L 472 -697 L 220 -695 L 525 -390 Z M 883 18 L 531 18 L 528 -34 L 780 -36 L 475 -341 L 525 -390 L 829 -86 L 832 -337 L 883 -334 Z " id="path35"/>
<path d="M 117 18 L 117 -334 L 168 -337 L 171 -86 Q 323 -238 475.5 -390 Q 628 -542 780 -695 L 528 -697 L 531 -749 L 883 -749 L 883 -397 L 832 -394 L 829 -645 Q 677 -493 524.5 -340.5 Q 372 -188 220 -36 L 472 -34 L 469 18 Z " id="path36"/>
<path d="M 707 179 Q 689 179 672 174.5 Q 655 170 639.5 162 Q 624 154 610 143 Q 596 132 583 119 L 633 70 Q 646 83 663.5 92.5 Q 681 102 700 102 Q 717 102 733.5 93.5 Q 750 85 762.5 72.5 Q 775 60 783 44 Q 791 28 791 10 Q 791 -9 782 -26 Q 773 -43 759 -57 L 171 -645 L 168 -394 L 117 -397 L 117 -749 L 469 -749 L 472 -697 L 220 -695 L 809 -106 Q 821 -94 832 -80 Q 843 -66 851 -50.5 Q 859 -35 863.5 -17.5 Q 868 0 868 17 Q 868 49 853.5 77 Q 839 105 817 127.5 Q 795 150 766.5 164.5 Q 738 179 707 179 Z " id="path37"/>
<path d="M 293 179 Q 262 179 233.5 164.5 Q 205 150 183 127.5 Q 161 105 146.5 77 Q 132 49 132 17 Q 132 0 136.5 -17.5 Q 141 -35 149 -50.5 Q 157 -66 168 -80 Q 179 -94 191 -106 L 780 -695 L 528 -697 L 531 -749 L 883 -749 L 883 -397 L 832 -394 L 829 -645 L 241 -57 Q 227 -43 218 -26 Q 209 -9 209 10 Q 209 28 217 44 Q 225 60 237.5 72.5 Q 250 85 266.5 93.5 Q 283 102 300 102 Q 319 102 336.5 92.5 Q 354 83 367 70 L 417 119 Q 404 132 390 143 Q 376 154 360.5 162 Q 345 170 328 174.5 Q 311 179 293 179 Z " id="path38"/>
<path d="M 883 18 L 531 18 L 528 -34 L 780 -36 L 191 -625 Q 179 -637 168 -651 Q 157 -665 149 -680.5 Q 141 -696 136.5 -713.5 Q 132 -731 132 -748 Q 132 -779 146.5 -807.5 Q 161 -836 183 -858 Q 205 -880 233.5 -895 Q 262 -910 293 -910 Q 311 -910 328 -905.5 Q 345 -901 360.5 -892.5 Q 376 -884 390 -873.5 Q 404 -863 417 -850 L 367 -801 Q 354 -814 336.5 -823.5 Q 319 -833 300 -833 Q 283 -833 266.5 -824.5 Q 250 -816 237.5 -803.5 Q 225 -791 217 -775 Q 209 -759 209 -741 Q 209 -722 218 -705 Q 227 -688 241 -674 L 829 -86 L 832 -337 L 883 -334 Z " id="path39"/>
<path d="M 117 18 L 117 -334 L 168 -337 L 171 -86 L 759 -674 Q 773 -688 782 -705 Q 791 -722 791 -741 Q 791 -759 783 -775 Q 775 -791 762.5 -803.5 Q 750 -816 733.5 -824.5 Q 717 -833 700 -833 Q 681 -833 663.5 -823.5 Q 646 -814 633 -801 L 583 -850 Q 596 -863 610 -873.5 Q 624 -884 639.5 -892.5 Q 655 -901 672 -905.5 Q 689 -910 707 -910 Q 738 -910 766.5 -895 Q 795 -880 817 -858 Q 839 -836 853.5 -807.5 Q 868 -779 868 -748 Q 868 -731 863.5 -713.5 Q 859 -696 851 -680.5 Q 843 -665 832 -651 Q 821 -637 809 -625 L 220 -36 L 472 -34 L 469 18 Z " id="path40"/>
<path d="M 500 23 Q 451 23 403 14.5 Q 355 6 311.5 -16 Q 268 -38 233 -73 Q 198 -108 176 -151.5 Q 154 -195 145.5 -243 Q 137 -291 137 -340 Q 137 -383 143.5 -426 Q 150 -469 167 -509 Q 184 -549 211 -583 Q 238 -617 273.5 -641.5 Q 309 -666 350.5 -680 Q 392 -694 435 -699 L 563 -827 L 601 -793 L 514 -702 Q 561 -701 608 -691.5 Q 655 -682 697 -659.5 Q 739 -637 772 -602 Q 805 -567 826 -524.5 Q 847 -482 855 -434.5 Q 863 -387 863 -340 Q 863 -291 854.5 -243 Q 846 -195 824 -151.5 Q 802 -108 767 -73 Q 732 -38 688.5 -16 Q 645 6 597 14.5 Q 549 23 500 23 Z M 500 -47 Q 539 -47 577.5 -54.5 Q 616 -62 650 -80 Q 684 -98 711 -126 Q 738 -154 755 -189 Q 772 -224 778.5 -262.5 Q 785 -301 785 -340 Q 785 -378 779 -415 Q 773 -452 757.5 -486.5 Q 742 -521 716.5 -549 Q 691 -577 658.5 -596 Q 626 -615 589 -623 Q 552 -631 514 -632 L 601 -542 L 563 -508 L 442 -629 Q 408 -624 376 -612 Q 344 -600 317 -579.5 Q 290 -559 269.5 -531.5 Q 249 -504 237 -472.5 Q 225 -441 220 -407.5 Q 215 -374 215 -340 Q 215 -301 221.5 -262.5 Q 228 -224 245 -189 Q 262 -154 289 -126 Q 316 -98 350 -80 Q 384 -62 422.5 -54.5 Q 461 -47 500 -47 Z " id="path41"/>
<path d="M 500 23 Q 451 23 403 14.5 Q 355 6 311.5 -16 Q 268 -38 233 -73 Q 198 -108 176 -151.5 Q 154 -195 145.5 -243 Q 137 -291 137 -340 Q 137 -387 145 -434.5 Q 153 -482 174 -524.5 Q 195 -567 228 -602 Q 261 -637 303 -659.5 Q 345 -682 392 -691.5 Q 439 -701 486 -702 L 399 -793 L 437 -827 L 565 -699 Q 608 -694 649.5 -680 Q 691 -666 726.5 -641.5 Q 762 -617 789 -583 Q 816 -549 833 -509 Q 850 -469 856.5 -426 Q 863 -383 863 -340 Q 863 -291 854.5 -243 Q 846 -195 824 -151.5 Q 802 -108 767 -73 Q 732 -38 688.5 -16 Q 645 6 597 14.5 Q 549 23 500 23 Z M 500 -47 Q 539 -47 577.5 -54.5 Q 616 -62 650 -80 Q 684 -98 711 -126 Q 738 -154 755 -189 Q 772 -224 778.5 -262.5 Q 785 -301 785 -340 Q 785 -374 780 -407.5 Q 775 -441 763 -472.5 Q 751 -504 730.5 -531.5 Q 710 -559 683 -579.5 Q 656 -600 624 -612 Q 592 -624 558 -629 L 437 -508 L 399 -542 L 486 -632 Q 448 -631 411 -623 Q 374 -615 341.5 -596 Q 309 -577 283.5 -549 Q 258 -521 242.5 -486.5 Q 227 -452 221 -415 Q 215 -378 215 -340 Q 215 -301 221.5 -262.5 Q 228 -224 245 -189 Q 262 -154 289 -126 Q 316 -98 350 -80 Q 384 -62 422.5 -54.5 Q 461 -47 500 -47 Z " id="path42"/>
<path d="M 387 -369 L 613 -369 Q 610 -389 600.5 -407.5 Q 591 -426 575.5 -438.5 Q 560 -451 540 -456 Q 520 -461 500 -461 Q 480 -461 460 -456 Q 440 -451 424.5 -438.5 Q 409 -426 399.5 -407.5 Q 390 -389 387 -369 Z M 500 -219 Q 520 -219 540 -224 Q 560 -229 575.5 -241.5 Q 591 -254 600.5 -272.5 Q 610 -291 613 -311 L 387 -311 Q 390 -291 399.5 -272.5 Q 409 -254 424.5 -241.5 Q 440 -229 460 -224 Q 480 -219 500 -219 Z M 291 -91 L 42 -340 L 291 -589 L 329 -555 L 153 -375 L 327 -375 Q 331 -406 345.5 -434 Q 360 -462 384 -481 Q 408 -500 438.5 -507.5 Q 469 -515 500 -515 Q 531 -515 561.5 -507.5 Q 592 -500 616 -481 Q 640 -462 654.5 -434 Q 669 -406 673 -375 L 847 -375 L 671 -555 L 709 -589 L 958 -340 L 709 -91 L 671 -125 L 847 -305 L 673 -305 Q 669 -274 654.5 -246 Q 640 -218 616 -199 Q 592 -180 561.5 -172.5 Q 531 -165 500 -165 Q 469 -165 438.5 -172.5 Q 408 -180 384 -199 Q 360 -218 345.5 -246 Q 331 -274 327 -305 L 153 -305 L 329 -125 Z " id="path43"/>
<path d="M 709 -91 L 669 -123 L 822 -305 L 42 -305 L 103 -375 L 291 -589 L 331 -557 L 178 -375 L 958 -375 L 897 -305 Z " id="path44"/>
<path d="M 291 -91 L 103 -305 L 42 -375 L 822 -375 L 669 -557 L 709 -589 L 897 -375 L 958 -305 L 178 -305 L 331 -123 Z " id="path45"/>
<path d="M 535 118 L 465 57 L 251 -131 L 283 -171 L 465 -18 L 465 -798 L 535 -737 L 749 -549 L 717 -509 L 535 -662 Z " id="path46"/>
<path d="M 465 118 L 465 -662 L 283 -509 L 251 -549 L 465 -737 L 535 -798 L 535 -18 L 717 -171 L 749 -131 L 535 57 Z " id="path47"/>
<path d="M 958 -305 L 42 -305 L 103 -375 L 291 -589 L 331 -557 L 178 -375 L 822 -375 L 669 -557 L 709 -589 L 897 -375 Z " id="path48"/>
<path d="M 465 118 L 465 -798 L 535 -737 L 749 -549 L 717 -509 L 535 -662 L 535 -18 L 717 -171 L 749 -131 L 535 57 Z " id="path49"/>
<path d="M 709 -91 L 669 -123 L 822 -305 L 178 -305 L 331 -123 L 291 -91 L 103 -305 L 42 -375 L 958 -375 L 897 -305 Z " id="path50"/>
<path d="M 535 118 L 465 57 L 251 -131 L 283 -171 L 465 -18 L 465 -662 L 283 -509 L 251 -549 L 465 -737 L 535 -798 Z " id="path51"/>
<path d="M 19 -91 L 19 -589 L 96 -589 L 96 -91 Z M 111 -305 L 172 -375 L 360 -589 L 401 -557 L 247 -375 L 942 -375 L 942 -305 Z " id="path52"/>
<path d="M 981 -91 L 904 -91 L 904 -589 L 981 -589 Z M 889 -305 L 58 -305 L 58 -375 L 753 -375 L 599 -557 L 640 -589 L 828 -375 Z " id="path53"/>
<path d="M 251 -748 L 251 -817 L 749 -817 L 749 -748 Z M 465 102 L 465 -729 L 535 -668 L 749 -480 L 717 -439 L 535 -593 L 535 102 Z " id="path54"/>
<path d="M 465 49 L 465 -782 L 535 -782 L 535 -87 L 717 -241 L 749 -200 L 535 -12 Z M 251 137 L 251 68 L 749 68 L 749 137 Z " id="path55"/>
<path d="M 19 -91 L 19 -589 L 96 -589 L 96 -91 Z M 360 -91 L 172 -305 L 111 -375 L 942 -375 L 942 -305 L 247 -305 L 401 -123 Z " id="path56"/>
<path d="M 981 -91 L 904 -91 L 904 -589 L 981 -589 Z M 640 -91 L 599 -123 L 753 -305 L 58 -305 L 58 -375 L 889 -375 L 828 -305 Z " id="path57"/>
<path d="M 251 -748 L 251 -817 L 749 -817 L 749 -748 Z M 465 102 L 465 -593 L 283 -439 L 251 -480 L 465 -668 L 535 -729 L 535 102 Z " id="path58"/>
<path d="M 535 49 L 465 -12 L 251 -200 L 283 -241 L 465 -87 L 465 -782 L 535 -782 Z M 251 137 L 251 68 L 749 68 L 749 137 Z " id="path59"/>
<path d="M 981 -91 L 904 -91 L 904 -305 L 42 -305 L 103 -375 L 291 -589 L 331 -557 L 178 -375 L 904 -375 L 904 -589 L 981 -589 Z " id="path60"/>
<path d="M 19 -91 L 19 -589 L 96 -589 L 96 -375 L 822 -375 L 669 -557 L 709 -589 L 897 -375 L 958 -305 L 96 -305 L 96 -91 Z " id="path61"/>
<path d="M 251 137 L 251 68 L 465 68 L 465 -798 L 535 -737 L 749 -549 L 717 -509 L 535 -662 L 535 68 L 749 68 L 749 137 Z " id="path62"/>
<path d="M 465 118 L 465 -748 L 251 -748 L 251 -817 L 749 -817 L 749 -748 L 535 -748 L 535 -18 L 717 -171 L 749 -131 L 535 57 Z " id="path63"/>
<path d="M 291 -91 L 103 -305 L 42 -375 L 904 -375 L 904 -589 L 981 -589 L 981 -91 L 904 -91 L 904 -305 L 178 -305 L 331 -123 Z " id="path64"/>
<path d="M 709 -91 L 669 -123 L 822 -305 L 96 -305 L 96 -91 L 19 -91 L 19 -589 L 96 -589 L 96 -375 L 958 -375 L 897 -305 Z " id="path65"/>
<path d="M 251 137 L 251 68 L 465 68 L 465 -662 L 283 -509 L 251 -549 L 465 -737 L 535 -798 L 535 68 L 749 68 L 749 137 Z " id="path66"/>
<path d="M 535 118 L 465 57 L 251 -131 L 283 -171 L 465 -18 L 465 -748 L 251 -748 L 251 -817 L 749 -817 L 749 -748 L 535 -748 Z " id="path67"/>
<path d="M 291 33 L 103 -181 L 42 -251 L 942 -251 L 942 -181 L 178 -181 L 331 1 Z M 42 -429 L 103 -499 L 291 -713 L 331 -681 L 178 -499 L 942 -499 L 942 -429 Z " id="path68"/>
<path d="M 341 102 L 341 -662 L 159 -509 L 127 -549 L 341 -737 L 411 -798 L 411 102 Z M 589 102 L 589 -798 L 659 -737 L 873 -549 L 841 -509 L 659 -662 L 659 102 Z " id="path69"/>
<path d="M 709 33 L 669 1 L 822 -181 L 58 -181 L 58 -251 L 958 -251 L 897 -181 Z M 958 -429 L 58 -429 L 58 -499 L 822 -499 L 669 -681 L 709 -713 L 897 -499 Z " id="path70"/>
<path d="M 411 118 L 341 57 L 127 -131 L 159 -171 L 341 -18 L 341 -782 L 411 -782 Z M 589 118 L 589 -782 L 659 -782 L 659 -18 L 841 -171 L 873 -131 L 659 57 Z " id="path71"/>
<path d="M 341 102 L 341 -662 L 159 -509 L 127 -549 L 341 -737 L 411 -798 L 411 102 Z M 589 118 L 589 -782 L 659 -782 L 659 -18 L 841 -171 L 873 -131 L 659 57 Z " id="path72"/>
<path d="M 411 118 L 341 57 L 127 -131 L 159 -171 L 341 -18 L 341 -782 L 411 -782 Z M 589 102 L 589 -798 L 659 -737 L 873 -549 L 841 -509 L 659 -662 L 659 102 Z " id="path73"/>
</defs>
<g>
<g data-source-text="0" fill="#20242e" transform="translate(174 41.292) rotate(0) scale(0.023999998)">
<use href="#path1" transform="translate(0 0)"/>
</g>
</g>
<g>
<g data-source-text="1" fill="#20242e" transform="translate(246 41.292) rotate(0) scale(0.023999998)">
<use href="#path2" transform="translate(0 0)"/>
</g>
</g>
<g>
<g data-source-text="2" fill="#20242e" transform="translate(318 41.292) rotate(0) scale(0.023999998)">
<use href="#path3" transform="translate(0 0)"/>
</g>
</g>
<g>
<g data-source-text="3" fill="#20242e" transform="translate(390 41.292) rotate(0) scale(0.023999998)">
<use href="#path4" transform="translate(0 0)"/>
</g>
</g>
<g>
<g data-source-text="4" fill="#20242e" transform="translate(462 41.292) rotate(0) scale(0.023999998)">
<use href="#path5" transform="translate(0 0)"/>
</g>
</g>
<g>
<g data-source-text="5" fill="#20242e" transform="translate(534 41.292) rotate(0) scale(0.023999998)">
<use href="#path6" transform="translate(0 0)"/>
</g>
</g>
<g>
<g data-source-text="6" fill="#20242e" transform="translate(606 41.292) rotate(0) scale(0.023999998)">
<use href="#path7" transform="translate(0 0)"/>
</g>
</g>
<g>
<g data-source-text="7" fill="#20242e" transform="translate(678 41.292) rotate(0) scale(0.023999998)">
<use href="#path8" transform="translate(0 0)"/>
</g>
</g>
<g>
<g data-source-text="8" fill="#20242e" transform="translate(750 41.292) rotate(0) scale(0.023999998)">
<use href="#path9" transform="translate(0 0)"/>
</g>
</g>
<g>
<g data-source-text="9" fill="#20242e" transform="translate(822 41.292) rotate(0) scale(0.023999998)">
<use href="#path10" transform="translate(0 0)"/>
</g>
</g>
<g>
<g data-source-text="A" fill="#20242e" transform="translate(894 41.292) rotate(0) scale(0.023999998)">
<use href="#path11" transform="translate(0 0)"/>
</g>
</g>
<g>
<g data-source-text="B" fill="#20242e" transform="translate(966 41.292) rotate(0) scale(0.023999998)">
<use href="#path12" transform="translate(0 0)"/>
</g>
</g>
<g>
<g data-source-text="C" fill="#20242e" transform="translate(1038 41.292) rotate(0) scale(0.023999998)">
<use href="#path13" transform="translate(0 0)"/>
</g>
</g>
<g>
<g data-source-text="D" fill="#20242e" transform="translate(1110 41.292) rotate(0) scale(0.023999998)">
<use href="#path14" transform="translate(0 0)"/>
</g>
</g>
<g>
<g data-source-text="E" fill="#20242e" transform="translate(1182 41.292) rotate(0) scale(0.023999998)">
<use href="#path15" transform="translate(0 0)"/>
</g>
</g>
<g>
<g data-source-text="F" fill="#20242e" transform="translate(1254 41.292) rotate(0) scale(0.023999998)">
<use href="#path16" transform="translate(0 0)"/>
</g>
</g>
<g>
<g data-source-text="U+2900" fill="#20242e" transform="translate(36 113.292) rotate(0) scale(0.023999998)">
<use href="#path17" transform="translate(0 0)"/>
<use href="#path18" transform="translate(500 0)"/>
<use href="#path3" transform="translate(1000 0)"/>
<use href="#path10" transform="translate(1500 0)"/>
<use href="#path1" transform="translate(2000 0)"/>
<use href="#path1" transform="translate(2500 0)"/>
</g>
</g>
<g>
<g data-source-text="" fill="#20242e40" transform="translate(168 118.584) rotate(0) scale(0.047999997)">
<use href="#path19" transform="translate(0 0)"/>
</g>
</g>
<g>
<g data-source-text="" fill="#20242e40" transform="translate(240 118.584) rotate(0) scale(0.047999997)">
<use href="#path19" transform="translate(0 0)"/>
</g>
</g>
<g>
<g data-source-text="⤂" fill="#20242e" transform="translate(300 118.584) rotate(0) scale(0.047999997)">
<use href="#path20" transform="translate(0 0)"/>
</g>
</g>
<g>
<g data-source-text="⤃" fill="#20242e" transform="translate(372 118.584) rotate(0) scale(0.047999997)">
<use href="#path21" transform="translate(0 0)"/>
</g>
</g>
<g>
<g data-source-text="⤄" fill="#20242e" transform="translate(444 118.584) rotate(0) scale(0.047999997)">
<use href="#path22" transform="translate(0 0)"/>
</g>
</g>
<g>
<g data-source-text="" fill="#20242e40" transform="translate(528 118.584) rotate(0) scale(0.047999997)">
<use href="#path19" transform="translate(0 0)"/>
</g>
</g>
<g>
<g data-source-text="⤆" fill="#20242e" transform="translate(588 118.584) rotate(0) scale(0.047999997)">
<use href="#path23" transform="translate(0 0)"/>
</g>
</g>
<g>
<g data-source-text="⤇" fill="#20242e" transform="translate(660 118.584) rotate(0) scale(0.047999997)">
<use href="#path24" transform="translate(0 0)"/>
</g>
</g>
<g>
<g data-source-text="⤈" fill="#20242e" transform="translate(732 118.584) rotate(0) scale(0.047999997)">
<use href="#path25" transform="translate(0 0)"/>
</g>
</g>
<g>
<g data-source-text="⤉" fill="#20242e" transform="translate(804 118.584) rotate(0) scale(0.047999997)">
<use href="#path26" transform="translate(0 0)"/>
</g>
</g>
<g>
<g data-source-text="⤊" fill="#20242e" transform="translate(876 118.584) rotate(0) scale(0.047999997)">
<use href="#path27" transform="translate(0 0)"/>
</g>
</g>
<g>
<g data-source-text="⤋" fill="#20242e" transform="translate(948 118.584) rotate(0) scale(0.047999997)">
<use href="#path28" transform="translate(0 0)"/>
</g>
</g>
<g>
<g data-source-text="" fill="#20242e40" transform="translate(1032 118.584) rotate(0) scale(0.047999997)">
<use href="#path19" transform="translate(0 0)"/>
</g>
</g>
<g>
<g data-source-text="" fill="#20242e40" transform="translate(1104 118.584) rotate(0) scale(0.047999997)">
<use href="#path19" transform="translate(0 0)"/>
</g>
</g>
<g>
<g data-source-text="" fill="#20242e40" transform="translate(1176 118.584) rotate(0) scale(0.047999997)">
<use href="#path19" transform="translate(0 0)"/>
</g>
</g>
<g>
<g data-source-text="" fill="#20242e40" transform="translate(1248 118.584) rotate(0) scale(0.047999997)">
<use href="#path19" transform="translate(0 0)"/>
</g>
</g>
<g>
<g data-source-text="U+2910" fill="#20242e" transform="translate(36 185.292) rotate(0) scale(0.023999998)">
<use href="#path17" transform="translate(0 0)"/>
<use href="#path18" transform="translate(500 0)"/>
<use href="#path3" transform="translate(1000 0)"/>
<use href="#path10" transform="translate(1500 0)"/>
<use href="#path2" transform="translate(2000 0)"/>
<use href="#path1" transform="translate(2500 0)"/>
</g>
</g>
<g>
<g data-source-text="" fill="#20242e40" transform="translate(168 190.584) rotate(0) scale(0.047999997)">
<use href="#path19" transform="translate(0 0)"/>
</g>
</g>
<g>
<g data-source-text="" fill="#20242e40" transform="translate(240 190.584) rotate(0) scale(0.047999997)">
<use href="#path19" transform="translate(0 0)"/>
</g>
</g>
<g>
<g data-source-text="⤒" fill="#20242e" transform="translate(300 190.584) rotate(0) scale(0.047999997)">
<use href="#path29" transform="translate(0 0)"/>
</g>
</g>
<g>
<g data-source-text="⤓" fill="#20242e" transform="translate(372 190.584) rotate(0) scale(0.047999997)">
<use href="#path30" transform="translate(0 0)"/>
</g>
</g>
<g>
<g data-source-text="" fill="#20242e40" transform="translate(456 190.584) rotate(0) scale(0.047999997)">
<use href="#path19" transform="translate(0 0)"/>
</g>
</g>
<g>
<g data-source-text="" fill="#20242e40" transform="translate(528 190.584) rotate(0) scale(0.047999997)">
<use href="#path19" transform="translate(0 0)"/>
</g>
</g>
<g>
<g data-source-text="" fill="#20242e40" transform="translate(600 190.584) rotate(0) scale(0.047999997)">
<use href="#path19" transform="translate(0 0)"/>
</g>
</g>
<g>
<g data-source-text="" fill="#20242e40" transform="translate(672 190.584) rotate(0) scale(0.047999997)">
<use href="#path19" transform="translate(0 0)"/>
</g>
</g>
<g>
<g data-source-text="" fill="#20242e40" transform="translate(744 190.584) rotate(0) scale(0.047999997)">
<use href="#path19" transform="translate(0 0)"/>
</g>
</g>
<g>
<g data-source-text="⤙" fill="#20242e" transform="translate(804 190.584) rotate(0) scale(0.047999997)">
<use href="#path31" transform="translate(0 0)"/>
</g>
</g>
<g>
<g data-source-text="⤚" fill="#20242e" transform="translate(876 190.584) rotate(0) scale(0.047999997)">
<use href="#path32" transform="translate(0 0)"/>
</g>
</g>
<g>
<g data-source-text="⤛" fill="#20242e" transform="translate(948 190.584) rotate(0) scale(0.047999997)">
<use href="#path33" transform="translate(0 0)"/>
</g>
</g>
<g>
<g data-source-text="⤜" fill="#20242e" transform="translate(1020 190.584) rotate(0) scale(0.047999997)">
<use href="#path34" transform="translate(0 0)"/>
</g>
</g>
<g>
<g data-source-text="" fill="#20242e40" transform="translate(1104 190.584) rotate(0) scale(0.047999997)">
<use href="#path19" transform="translate(0 0)"/>
</g>
</g>
<g>
<g data-source-text="" fill="#20242e40" transform="translate(1176 190.584) rotate(0) scale(0.047999997)">
<use href="#path19" transform="translate(0 0)"/>
</g>
</g>
<g>
<g data-source-text="" fill="#20242e40" transform="translate(1248 190.584) rotate(0) scale(0.047999997)">
<use href="#path19" transform="translate(0 0)"/>
</g>
</g>
<g>
<g data-source-text="U+2920" fill="#20242e" transform="translate(36 257.292) rotate(0) scale(0.023999998)">
<use href="#path17" transform="translate(0 0)"/>
<use href="#path18" transform="translate(500 0)"/>
<use href="#path3" transform="translate(1000 0)"/>
<use href="#path10" transform="translate(1500 0)"/>
<use href="#path3" transform="translate(2000 0)"/>
<use href="#path1" transform="translate(2500 0)"/>
</g>
</g>
<g>
<g data-source-text="" fill="#20242e40" transform="translate(168 262.584) rotate(0) scale(0.047999997)">
<use href="#path19" transform="translate(0 0)"/>
</g>
</g>
<g>
<g data-source-text="⤡" fill="#20242e" transform="translate(228 262.584) rotate(0) scale(0.047999997)">
<use href="#path35" transform="translate(0 0)"/>
</g>
</g>
<g>
<g data-source-text="⤢" fill="#20242e" transform="translate(300 262.584) rotate(0) scale(0.047999997)">
<use href="#path36" transform="translate(0 0)"/>
</g>
</g>
<g>
<g data-source-text="⤣" fill="#20242e" transform="translate(372 262.584) rotate(0) scale(0.047999997)">
<use href="#path37" transform="translate(0 0)"/>
</g>
</g>
<g>
<g data-source-text="⤤" fill="#20242e" transform="translate(444 262.584) rotate(0) scale(0.047999997)">
<use href="#path38" transform="translate(0 0)"/>
</g>
</g>
<g>
<g data-source-text="⤥" fill="#20242e" transform="translate(516 262.584) rotate(0) scale(0.047999997)">
<use href="#path39" transform="translate(0 0)"/>
</g>
</g>
<g>
<g data-source-text="⤦" fill="#20242e" transform="translate(588 262.584) rotate(0) scale(0.047999997)">
<use href="#path40" transform="translate(0 0)"/>
</g>
</g>
<g>
<g data-source-text="" fill="#20242e40" transform="translate(672 262.584) rotate(0) scale(0.047999997)">
<use href="#path19" transform="translate(0 0)"/>
</g>
</g>
<g>
<g data-source-text="" fill="#20242e40" transform="translate(744 262.584) rotate(0) scale(0.047999997)">
<use href="#path19" transform="translate(0 0)"/>
</g>
</g>
<g>
<g data-source-text="" fill="#20242e40" transform="translate(816 262.584) rotate(0) scale(0.047999997)">
<use href="#path19" transform="translate(0 0)"/>
</g>
</g>
<g>
<g data-source-text="" fill="#20242e40" transform="translate(888 262.584) rotate(0) scale(0.047999997)">
<use href="#path19" transform="translate(0 0)"/>
</g>
</g>
<g>
<g data-source-text="" fill="#20242e40" transform="translate(960 262.584) rotate(0) scale(0.047999997)">
<use href="#path19" transform="translate(0 0)"/>
</g>
</g>
<g>
<g data-source-text="" fill="#20242e40" transform="translate(1032 262.584) rotate(0) scale(0.047999997)">
<use href="#path19" transform="translate(0 0)"/>
</g>
</g>
<g>
<g data-source-text="" fill="#20242e40" transform="translate(1104 262.584) rotate(0) scale(0.047999997)">
<use href="#path19" transform="translate(0 0)"/>
</g>
</g>
<g>
<g data-source-text="" fill="#20242e40" transform="translate(1176 262.584) rotate(0) scale(0.047999997)">
<use href="#path19" transform="translate(0 0)"/>
</g>
</g>
<g>
<g data-source-text="" fill="#20242e40" transform="translate(1248 262.584) rotate(0) scale(0.047999997)">
<use href="#path19" transform="translate(0 0)"/>
</g>
</g>
<g>
<g data-source-text="U+2930" fill="#20242e" transform="translate(36 329.292) rotate(0) scale(0.023999998)">
<use href="#path17" transform="translate(0 0)"/>
<use href="#path18" transform="translate(500 0)"/>
<use href="#path3" transform="translate(1000 0)"/>
<use href="#path10" transform="translate(1500 0)"/>
<use href="#path4" transform="translate(2000 0)"/>
<use href="#path1" transform="translate(2500 0)"/>
</g>
</g>
<g>
<g data-source-text="" fill="#20242e40" transform="translate(168 334.584) rotate(0) scale(0.047999997)">
<use href="#path19" transform="translate(0 0)"/>
</g>
</g>
<g>
<g data-source-text="" fill="#20242e40" transform="translate(240 334.584) rotate(0) scale(0.047999997)">
<use href="#path19" transform="translate(0 0)"/>
</g>
</g>
<g>
<g data-source-text="" fill="#20242e40" transform="translate(312 334.584) rotate(0) scale(0.047999997)">
<use href="#path19" transform="translate(0 0)"/>
</g>
</g>
<g>
<g data-source-text="" fill="#20242e40" transform="translate(384 334.584) rotate(0) scale(0.047999997)">
<use href="#path19" transform="translate(0 0)"/>
</g>
</g>
<g>
<g data-source-text="" fill="#20242e40" transform="translate(456 334.584) rotate(0) scale(0.047999997)">
<use href="#path19" transform="translate(0 0)"/>
</g>
</g>
<g>
<g data-source-text="" fill="#20242e40" transform="translate(528 334.584) rotate(0) scale(0.047999997)">
<use href="#path19" transform="translate(0 0)"/>
</g>
</g>
<g>
<g data-source-text="" fill="#20242e40" transform="translate(600 334.584) rotate(0) scale(0.047999997)">
<use href="#path19" transform="translate(0 0)"/>
</g>
</g>
<g>
<g data-source-text="" fill="#20242e40" transform="translate(672 334.584) rotate(0) scale(0.047999997)">
<use href="#path19" transform="translate(0 0)"/>
</g>
</g>
<g>
<g data-source-text="" fill="#20242e40" transform="translate(744 334.584) rotate(0) scale(0.047999997)">
<use href="#path19" transform="translate(0 0)"/>
</g>
</g>
<g>
<g data-source-text="" fill="#20242e40" transform="translate(816 334.584) rotate(0) scale(0.047999997)">
<use href="#path19" transform="translate(0 0)"/>
</g>
</g>
<g>
<g data-source-text="" fill="#20242e40" transform="translate(888 334.584) rotate(0) scale(0.047999997)">
<use href="#path19" transform="translate(0 0)"/>
</g>
</g>
<g>
<g data-source-text="" fill="#20242e40" transform="translate(960 334.584) rotate(0) scale(0.047999997)">
<use href="#path19" transform="translate(0 0)"/>
</g>
</g>
<g>
<g data-source-text="" fill="#20242e40" transform="translate(1032 334.584) rotate(0) scale(0.047999997)">
<use href="#path19" transform="translate(0 0)"/>
</g>
</g>
<g>
<g data-source-text="" fill="#20242e40" transform="translate(1104 334.584) rotate(0) scale(0.047999997)">
<use href="#path19" transform="translate(0 0)"/>
</g>
</g>
<g>
<g data-source-text="" fill="#20242e40" transform="translate(1176 334.584) rotate(0) scale(0.047999997)">
<use href="#path19" transform="translate(0 0)"/>
</g>
</g>
<g>
<g data-source-text="" fill="#20242e40" transform="translate(1248 334.584) rotate(0) scale(0.047999997)">
<use href="#path19" transform="translate(0 0)"/>
</g>
</g>
<g>
<g data-source-text="U+2940" fill="#20242e" transform="translate(36 401.292) rotate(0) scale(0.023999998)">
<use href="#path17" transform="translate(0 0)"/>
<use href="#path18" transform="translate(500 0)"/>
<use href="#path3" transform="translate(1000 0)"/>
<use href="#path10" transform="translate(1500 0)"/>
<use href="#path5" transform="translate(2000 0)"/>
<use href="#path1" transform="translate(2500 0)"/>
</g>
</g>
<g>
<g data-source-text="⥀" fill="#20242e" transform="translate(156 406.584) rotate(0) scale(0.047999997)">
<use href="#path41" transform="translate(0 0)"/>
</g>
</g>
<g>
<g data-source-text="⥁" fill="#20242e" transform="translate(228 406.584) rotate(0) scale(0.047999997)">
<use href="#path42" transform="translate(0 0)"/>
</g>
</g>
<g>
<g data-source-text="" fill="#20242e40" transform="translate(312 406.584) rotate(0) scale(0.047999997)">
<use href="#path19" transform="translate(0 0)"/>
</g>
</g>
<g>
<g data-source-text="" fill="#20242e40" transform="translate(384 406.584) rotate(0) scale(0.047999997)">
<use href="#path19" transform="translate(0 0)"/>
</g>
</g>
<g>
<g data-source-text="" fill="#20242e40" transform="translate(456 406.584) rotate(0) scale(0.047999997)">
<use href="#path19" transform="translate(0 0)"/>
</g>
</g>
<g>
<g data-source-text="" fill="#20242e40" transform="translate(528 406.584) rotate(0) scale(0.047999997)">
<use href="#path19" transform="translate(0 0)"/>
</g>
</g>
<g>
<g data-source-text="" fill="#20242e40" transform="translate(600 406.584) rotate(0) scale(0.047999997)">
<use href="#path19" transform="translate(0 0)"/>
</g>
</g>
<g>
<g data-source-text="" fill="#20242e40" transform="translate(672 406.584) rotate(0) scale(0.047999997)">
<use href="#path19" transform="translate(0 0)"/>
</g>
</g>
<g>
<g data-source-text="⥈" fill="#20242e" transform="translate(732 406.584) rotate(0) scale(0.047999997)">
<use href="#path43" transform="translate(0 0)"/>
</g>
</g>
<g>
<g data-source-text="" fill="#20242e40" transform="translate(816 406.584) rotate(0) scale(0.047999997)">
<use href="#path19" transform="translate(0 0)"/>
</g>
</g>
<g>
<g data-source-text="⥊" fill="#20242e" transform="translate(876 406.584) rotate(0) scale(0.047999997)">
<use href="#path44" transform="translate(0 0)"/>
</g>
</g>
<g>
<g data-source-text="⥋" fill="#20242e" transform="translate(948 406.584) rotate(0) scale(0.047999997)">
<use href="#path45" transform="translate(0 0)"/>
</g>
</g>
<g>
<g data-source-text="⥌" fill="#20242e" transform="translate(1020 406.584) rotate(0) scale(0.047999997)">
<use href="#path46" transform="translate(0 0)"/>
</g>
</g>
<g>
<g data-source-text="⥍" fill="#20242e" transform="translate(1092 406.584) rotate(0) scale(0.047999997)">
<use href="#path47" transform="translate(0 0)"/>
</g>
</g>
<g>
<g data-source-text="⥎" fill="#20242e" transform="translate(1164 406.584) rotate(0) scale(0.047999997)">
<use href="#path48" transform="translate(0 0)"/>
</g>
</g>
<g>
<g data-source-text="⥏" fill="#20242e" transform="translate(1236 406.584) rotate(0) scale(0.047999997)">
<use href="#path49" transform="translate(0 0)"/>
</g>
</g>
<g>
<g data-source-text="U+2950" fill="#20242e" transform="translate(36 473.292) rotate(0) scale(0.023999998)">
<use href="#path17" transform="translate(0 0)"/>
<use href="#path18" transform="translate(500 0)"/>
<use href="#path3" transform="translate(1000 0)"/>
<use href="#path10" transform="translate(1500 0)"/>
<use href="#path6" transform="translate(2000 0)"/>
<use href="#path1" transform="translate(2500 0)"/>
</g>
</g>
<g>
<g data-source-text="⥐" fill="#20242e" transform="translate(156 478.584) rotate(0) scale(0.047999997)">
<use href="#path50" transform="translate(0 0)"/>
</g>
</g>
<g>
<g data-source-text="⥑" fill="#20242e" transform="translate(228 478.584) rotate(0) scale(0.047999997)">
<use href="#path51" transform="translate(0 0)"/>
</g>
</g>
<g>
<g data-source-text="⥒" fill="#20242e" transform="translate(300 478.584) rotate(0) scale(0.047999997)">
<use href="#path52" transform="translate(0 0)"/>
</g>
</g>
<g>
<g data-source-text="⥓" fill="#20242e" transform="translate(372 478.584) rotate(0) scale(0.047999997)">
<use href="#path53" transform="translate(0 0)"/>
</g>
</g>
<g>
<g data-source-text="⥔" fill="#20242e" transform="translate(444 478.584) rotate(0) scale(0.047999997)">
<use href="#path54" transform="translate(0 0)"/>
</g>
</g>
<g>
<g data-source-text="⥕" fill="#20242e" transform="translate(516 478.584) rotate(0) scale(0.047999997)">
<use href="#path55" transform="translate(0 0)"/>
</g>
</g>
<g>
<g data-source-text="⥖" fill="#20242e" transform="translate(588 478.584) rotate(0) scale(0.047999997)">
<use href="#path56" transform="translate(0 0)"/>
</g>
</g>
<g>
<g data-source-text="⥗" fill="#20242e" transform="translate(660 478.584) rotate(0) scale(0.047999997)">
<use href="#path57" transform="translate(0 0)"/>
</g>
</g>
<g>
<g data-source-text="⥘" fill="#20242e" transform="translate(732 478.584) rotate(0) scale(0.047999997)">
<use href="#path58" transform="translate(0 0)"/>
</g>
</g>
<g>
<g data-source-text="⥙" fill="#20242e" transform="translate(804 478.584) rotate(0) scale(0.047999997)">
<use href="#path59" transform="translate(0 0)"/>
</g>
</g>
<g>
<g data-source-text="⥚" fill="#20242e" transform="translate(876 478.584) rotate(0) scale(0.047999997)">
<use href="#path60" transform="translate(0 0)"/>
</g>
</g>
<g>
<g data-source-text="⥛" fill="#20242e" transform="translate(948 478.584) rotate(0) scale(0.047999997)">
<use href="#path61" transform="translate(0 0)"/>
</g>
</g>
<g>
<g data-source-text="⥜" fill="#20242e" transform="translate(1020 478.584) rotate(0) scale(0.047999997)">
<use href="#path62" transform="translate(0 0)"/>
</g>
</g>
<g>
<g data-source-text="⥝" fill="#20242e" transform="translate(1092 478.584) rotate(0) scale(0.047999997)">
<use href="#path63" transform="translate(0 0)"/>
</g>
</g>
<g>
<g data-source-text="⥞" fill="#20242e" transform="translate(1164 478.584) rotate(0) scale(0.047999997)">
<use href="#path64" transform="translate(0 0)"/>
</g>
</g>
<g>
<g data-source-text="⥟" fill="#20242e" transform="translate(1236 478.584) rotate(0) scale(0.047999997)">
<use href="#path65" transform="translate(0 0)"/>
</g>
</g>
<g>
<g data-source-text="U+2960" fill="#20242e" transform="translate(36 545.292) rotate(0) scale(0.023999998)">
<use href="#path17" transform="translate(0 0)"/>
<use href="#path18" transform="translate(500 0)"/>
<use href="#path3" transform="translate(1000 0)"/>
<use href="#path10" transform="translate(1500 0)"/>
<use href="#path7" transform="translate(2000 0)"/>
<use href="#path1" transform="translate(2500 0)"/>
</g>
</g>
<g>
<g data-source-text="⥠" fill="#20242e" transform="translate(156 550.584) rotate(0) scale(0.047999997)">
<use href="#path66" transform="translate(0 0)"/>
</g>
</g>
<g>
<g data-source-text="⥡" fill="#20242e" transform="translate(228 550.584) rotate(0) scale(0.047999997)">
<use href="#path67" transform="translate(0 0)"/>
</g>
</g>
<g>
<g data-source-text="⥢" fill="#20242e" transform="translate(300 550.584) rotate(0) scale(0.047999997)">
<use href="#path68" transform="translate(0 0)"/>
</g>
</g>
<g>
<g data-source-text="⥣" fill="#20242e" transform="translate(372 550.584) rotate(0) scale(0.047999997)">
<use href="#path69" transform="translate(0 0)"/>
</g>
</g>
<g>
<g data-source-text="⥤" fill="#20242e" transform="translate(444 550.584) rotate(0) scale(0.047999997)">
<use href="#path70" transform="translate(0 0)"/>
</g>
</g>
<g>
<g data-source-text="⥥" fill="#20242e" transform="translate(516 550.584) rotate(0) scale(0.047999997)">
<use href="#path71" transform="translate(0 0)"/>
</g>
</g>
<g>
<g data-source-text="" fill="#20242e40" transform="translate(600 550.584) rotate(0) scale(0.047999997)">
<use href="#path19" transform="translate(0 0)"/>
</g>
</g>
<g>
<g data-source-text="" fill="#20242e40" transform="translate(672 550.584) rotate(0) scale(0.047999997)">
<use href="#path19" transform="translate(0 0)"/>
</g>
</g>
<g>
<g data-source-text="" fill="#20242e40" transform="translate(744 550.584) rotate(0) scale(0.047999997)">
<use href="#path19" transform="translate(0 0)"/>
</g>
</g>
<g>
<g data-source-text="" fill="#20242e40" transform="translate(816 550.584) rotate(0) scale(0.047999997)">
<use href="#path19" transform="translate(0 0)"/>
</g>
</g>
<g>
<g data-source-text="" fill="#20242e40" transform="translate(888 550.584) rotate(0) scale(0.047999997)">
<use href="#path19" transform="translate(0 0)"/>
</g>
</g>
<g>
<g data-source-text="" fill="#20242e40" transform="translate(960 550.584) rotate(0) scale(0.047999997)">
<use href="#path19" transform="translate(0 0)"/>
</g>
</g>
<g>
<g data-source-text="" fill="#20242e40" transform="translate(1032 550.584) rotate(0) scale(0.047999997)">
<use href="#path19" transform="translate(0 0)"/>
</g>
</g>
<g>
<g data-source-text="" fill="#20242e40" transform="translate(1104 550.584) rotate(0) scale(0.047999997)">
<use href="#path19" transform="translate(0 0)"/>
</g>
</g>
<g>
<g data-source-text="⥮" fill="#20242e" transform="translate(1164 550.584) rotate(0) scale(0.047999997)">
<use href="#path72" transform="translate(0 0)"/>
</g>
</g>
<g>
<g data-source-text="⥯" fill="#20242e" transform="translate(1236 550.584) rotate(0) scale(0.047999997)">
<use href="#path73" transform="translate(0 0)"/>
</g>
</g>
<g>
<g data-source-text="U+2970" fill="#20242e" transform="translate(36 617.292) rotate(0) scale(0.023999998)">
<use href="#path17" transform="translate(0 0)"/>
<use href="#path18" transform="translate(500 0)"/>
<use href="#path3" transform="translate(1000 0)"/>
<use href="#path10" transform="translate(1500 0)"/>
<use href="#path8" transform="translate(2000 0)"/>
<use href="#path1" transform="translate(2500 0)"/>
</g>
</g>
<g>
<g data-source-text="" fill="#20242e40" transform="translate(168 622.584) rotate(0) scale(0.047999997)">
<use href="#path19" transform="translate(0 0)"/>
</g>
</g>
<g>
<g data-source-text="" fill="#20242e40" transform="translate(240 622.584) rotate(0) scale(0.047999997)">
<use href="#path19" transform="translate(0 0)"/>
</g>
</g>
<g>
<g data-source-text="" fill="#20242e40" transform="translate(312 622.584) rotate(0) scale(0.047999997)">
<use href="#path19" transform="translate(0 0)"/>
</g>
</g>
<g>
<g data-source-text="" fill="#20242e40" transform="translate(384 622.584) rotate(0) scale(0.047999997)">
<use href="#path19" transform="translate(0 0)"/>
</g>
</g>
<g>
<g data-source-text="" fill="#20242e40" transform="translate(456 622.584) rotate(0) scale(0.047999997)">
<use href="#path19" transform="translate(0 0)"/>
</g>
</g>
<g>
<g data-source-text="" fill="#20242e40" transform="translate(528 622.584) rotate(0) scale(0.047999997)">
<use href="#path19" transform="translate(0 0)"/>
</g>
</g>
<g>
<g data-source-text="" fill="#20242e40" transform="translate(600 622.584) rotate(0) scale(0.047999997)">
<use href="#path19" transform="translate(0 0)"/>
</g>
</g>
<g>
<g data-source-text="" fill="#20242e40" transform="translate(672 622.584) rotate(0) scale(0.047999997)">
<use href="#path19" transform="translate(0 0)"/>
</g>
</g>
<g>
<g data-source-text="" fill="#20242e40" transform="translate(744 622.584) rotate(0) scale(0.047999997)">
<use href="#path19" transform="translate(0 0)"/>
</g>
</g>
<g>
<g data-source-text="" fill="#20242e40" transform="translate(816 622.584) rotate(0) scale(0.047999997)">
<use href="#path19" transform="translate(0 0)"/>
</g>
</g>
<g>
<g data-source-text="" fill="#20242e40" transform="translate(888 622.584) rotate(0) scale(0.047999997)">
<use href="#path19" transform="translate(0 0)"/>
</g>
</g>
<g>
<g data-source-text="" fill="#20242e40" transform="translate(960 622.584) rotate(0) scale(0.047999997)">
<use href="#path19" transform="translate(0 0)"/>
</g>
</g>
<g>
<g data-source-text="" fill="#20242e40" transform="translate(1032 622.584) rotate(0) scale(0.047999997)">
<use href="#path19" transform="translate(0 0)"/>
</g>
</g>
<g>
<g data-source-text="" fill="#20242e40" transform="translate(1104 622.584) rotate(0) scale(0.047999997)">
<use href="#path19" transform="translate(0 0)"/>
</g>
</g>
<g>
<g data-source-text="" fill="#20242e40" transform="translate(1176 622.584) rotate(0) scale(0.047999997)">
<use href="#path19" transform="translate(0 0)"/>
</g>
</g>
<g>
<g data-source-text="" fill="#20242e40" transform="translate(1248 622.584) rotate(0) scale(0.047999997)">
<use href="#path19" transform="translate(0 0)"/>
</g>
</g>
</svg>