<?xml version="1.0" encoding="UTF-8" standalone="no"?>
<svg height="1224" viewBox="0 0 1296 1224" width="1296" xmlns="http://www.w3.org/2000/svg">
<defs>
<path d="M 250 8 Q 223 8 196 3 Q 169 -2 145 -15 Q 121 -28 102.5 -48.5 Q 84 -69 72.5 -94 Q 61 -119 56.5 -146 Q 52 -173 52 -200 L 52 -535 Q 52 -562 56.5 -589 Q 61 -616 72.5 -641 Q 84 -666 102.5 -686.5 Q 121 -707 145 -720 Q 169 -733 196 -738 Q 223 -743 250 -743 Q 277 -743 304 -738 Q 331 -733 355 -720 Q 379 -707 397.5 -686.5 Q 416 -666 427.5 -641 Q 439 -616 443.5 -589 Q 448 -562 448 -535 L 448 -200 Q 448 -173 443.5 -146 Q 439 -119 427.5 -94 Q 416 -69 397.5 -48.5 Q 379 -28 355 -15 Q 331 -2 304 3 Q 277 8 250 8 Z M 153 -337 L 347 -491 L 347 -535 Q 347 -557 342.5 -578.5 Q 338 -600 325.5 -618 Q 313 -636 292.5 -645.5 Q 272 -655 250 -655 Q 228 -655 207.5 -645.5 Q 187 -636 174.5 -618 Q 162 -600 157.5 -578.5 Q 153 -557 153 -535 Z M 250 -80 Q 272 -80 292.5 -89.5 Q 313 -99 325.5 -117 Q 338 -135 342.5 -156.5 Q 347 -178 347 -200 L 347 -398 L 153 -244 L 153 -200 Q 153 -178 157.5 -156.5 Q 162 -135 174.5 -117 Q 187 -99 207.5 -89.5 Q 228 -80 250 -80 Z " id="path1"/>
<path d="M 230 0 L 230 -631 L 110 -528 L 55 -584 L 230 -735 L 330 -735 L 330 0 Z " id="path2"/>
<path d="M 440 0 L 60 0 L 60 -1 Q 60 -27 61 -53.5 Q 62 -80 66 -106.5 Q 70 -133 77.5 -158.5 Q 85 -184 96.5 -207.5 Q 108 -231 123 -253 Q 138 -275 156 -294.5 Q 174 -314 194 -331 Q 214 -348 235.5 -364 Q 257 -380 277.5 -397 Q 298 -414 313 -435.5 Q 328 -457 335.5 -483 Q 343 -509 343 -535 Q 343 -557 339 -578 Q 335 -599 323.5 -617 Q 312 -635 292 -645 Q 272 -655 251 -655 Q 231 -655 212.5 -647.5 Q 194 -640 182 -625 Q 170 -610 164.5 -591 Q 159 -572 159 -552 L 159 -548 L 58 -548 L 58 -555 Q 58 -581 64 -605.5 Q 70 -630 81.5 -652.5 Q 93 -675 111.5 -693 Q 130 -711 152.5 -722.5 Q 175 -734 200.5 -738.5 Q 226 -743 251 -743 Q 278 -743 304.5 -737.5 Q 331 -732 354.5 -719 Q 378 -706 396 -685.5 Q 414 -665 424.5 -640.5 Q 435 -616 439.5 -589 Q 444 -562 444 -535 Q 444 -501 435 -468 Q 426 -435 407.5 -406 Q 389 -377 364 -353.5 Q 339 -330 312.5 -308.5 Q 286 -287 261 -264 Q 236 -241 216.5 -213 Q 197 -185 184 -153.5 Q 171 -122 166 -88 L 440 -88 Z " id="path3"/>
<path d="M 253 8 Q 227 8 201 4 Q 175 -0 151.5 -11.5 Q 128 -23 108.5 -40.5 Q 89 -58 76 -81 Q 63 -104 56.5 -129.5 Q 50 -155 50 -181 L 50 -187 L 151 -187 L 151 -184 Q 151 -163 157.5 -143 Q 164 -123 178 -108 Q 192 -93 212 -86.5 Q 232 -80 253 -80 Q 275 -80 296 -88.5 Q 317 -97 330.5 -114.5 Q 344 -132 349.5 -154 Q 355 -176 355 -198 Q 355 -217 351 -235.5 Q 347 -254 338.5 -271 Q 330 -288 316.5 -301 Q 303 -314 286 -322 Q 269 -330 250 -332 Q 231 -334 212 -334 L 212 -422 Q 229 -422 246 -424 Q 263 -426 278.5 -433 Q 294 -440 306 -452.5 Q 318 -465 325.5 -480.5 Q 333 -496 336 -513 Q 339 -530 339 -547 Q 339 -566 334.5 -585.5 Q 330 -605 319.5 -621 Q 309 -637 291 -646 Q 273 -655 253 -655 Q 234 -655 216.5 -647 Q 199 -639 187.5 -624 Q 176 -609 171.5 -590 Q 167 -571 167 -553 L 167 -548 L 66 -548 L 66 -556 Q 66 -581 71.5 -605.5 Q 77 -630 88 -652 Q 99 -674 117 -692.5 Q 135 -711 157 -722.5 Q 179 -734 203.5 -738.5 Q 228 -743 253 -743 Q 278 -743 303.5 -738 Q 329 -733 351 -721 Q 373 -709 390 -690 Q 407 -671 418 -648 Q 429 -625 434.5 -600 Q 440 -575 440 -550 Q 440 -524 434 -498.5 Q 428 -473 415.5 -450.5 Q 403 -428 384.5 -409.5 Q 366 -391 343 -379 Q 369 -368 390.5 -348.5 Q 412 -329 427 -304.5 Q 442 -280 449 -252 Q 456 -224 456 -196 Q 456 -168 450 -141.5 Q 444 -115 432 -91 Q 420 -67 401 -47 Q 382 -27 358 -14.5 Q 334 -2 307 3 Q 280 8 253 8 Z " id="path4"/>
<path d="M 282 0 L 282 -188 L 52 -188 L 52 -275 L 276 -735 L 385 -735 L 161 -275 L 282 -275 L 282 -435 L 382 -435 L 382 -275 L 440 -275 L 440 -188 L 382 -188 L 382 0 Z " id="path5"/>
<path d="M 252 8 Q 227 8 202.5 3.5 Q 178 -1 155.5 -12 Q 133 -23 115 -41 Q 97 -59 85 -80.5 Q 73 -102 66.5 -126.5 Q 60 -151 59 -176 L 159 -176 Q 161 -158 167 -139.5 Q 173 -121 185.5 -107 Q 198 -93 216 -86.5 Q 234 -80 252 -80 Q 269 -80 285 -87 Q 301 -94 312 -107 Q 323 -120 330 -135.5 Q 337 -151 340.5 -168 Q 344 -185 345.5 -202 Q 347 -219 347 -236 Q 347 -252 346 -269 Q 345 -286 341 -302 Q 337 -318 331 -334 Q 325 -350 314 -363 Q 303 -376 287.5 -383.5 Q 272 -391 256 -391 Q 240 -391 224.5 -387 Q 209 -383 196 -373.5 Q 183 -364 176 -349.5 Q 169 -335 168 -319 L 68 -319 L 68 -735 L 421 -735 L 421 -647 L 168 -647 L 168 -464 Q 189 -472 211 -475 Q 233 -478 256 -478 Q 285 -478 313.5 -470.5 Q 342 -463 365.5 -445.5 Q 389 -428 405.5 -403 Q 422 -378 431.5 -350.5 Q 441 -323 444.5 -294 Q 448 -265 448 -235 Q 448 -206 444 -176.5 Q 440 -147 430.5 -119 Q 421 -91 404 -66.5 Q 387 -42 363.5 -24.5 Q 340 -7 311 0.5 Q 282 8 252 8 Z " id="path6"/>
<path d="M 250 8 Q 221 8 192.5 1.5 Q 164 -5 140 -21 Q 116 -37 98.5 -60.5 Q 81 -84 70.5 -111 Q 60 -138 56 -166.5 Q 52 -195 52 -224 Q 52 -268 60 -311 Q 68 -354 81.5 -395.5 Q 95 -437 113 -477 Q 131 -517 150 -556 L 238 -735 L 347 -735 L 240 -517 Q 228 -493 216.5 -468.5 Q 205 -444 195 -419 Q 214 -438 239 -447 Q 264 -456 291 -456 Q 317 -456 342.5 -447 Q 368 -438 386.5 -419.5 Q 405 -401 417 -377.5 Q 429 -354 436 -328.5 Q 443 -303 445.5 -276.5 Q 448 -250 448 -224 Q 448 -195 444 -166.5 Q 440 -138 429.5 -111 Q 419 -84 401.5 -60.5 Q 384 -37 360 -21 Q 336 -5 307.5 1.5 Q 279 8 250 8 Z M 250 -80 Q 266 -80 282 -85.5 Q 298 -91 309.5 -102.5 Q 321 -114 328.5 -129 Q 336 -144 340 -159.5 Q 344 -175 345.5 -191.5 Q 347 -208 347 -224 Q 347 -240 345.5 -256.5 Q 344 -273 340 -289 Q 336 -305 328.5 -319.5 Q 321 -334 309.5 -345.5 Q 298 -357 282 -362.5 Q 266 -368 250 -368 Q 235 -368 221 -363.5 Q 207 -359 195.5 -349.5 Q 184 -340 176.5 -327.5 Q 169 -315 164 -301 Q 159 -287 156.5 -272.5 Q 154 -258 153 -243 L 153 -224 Q 153 -208 154.5 -191.5 Q 156 -175 160 -159.5 Q 164 -144 171.5 -129 Q 179 -114 190.5 -102.5 Q 202 -91 218 -85.5 Q 234 -80 250 -80 Z " id="path7"/>
<path d="M 242 0 L 138 0 L 336 -647 L 60 -647 L 60 -735 L 440 -735 L 440 -647 Z " id="path8"/>
<path d="M 250 8 Q 225 8 200 4 Q 175 -0 152 -10 Q 129 -20 109.5 -37 Q 90 -54 77.5 -75.5 Q 65 -97 58.5 -121.5 Q 52 -146 52 -172 Q 52 -203 62 -232.5 Q 72 -262 88.5 -288 Q 105 -314 127 -336 Q 149 -358 174 -378 Q 152 -396 132.5 -417 Q 113 -438 98.5 -462.5 Q 84 -487 76 -514.5 Q 68 -542 68 -570 Q 68 -594 73.5 -617 Q 79 -640 90.5 -661 Q 102 -682 119.5 -698.5 Q 137 -715 158 -725 Q 179 -735 202.5 -739 Q 226 -743 250 -743 Q 274 -743 297.5 -739 Q 321 -735 342 -725 Q 363 -715 380.5 -698.5 Q 398 -682 409.5 -661 Q 421 -640 426.5 -617 Q 432 -594 432 -570 Q 432 -542 424 -514.5 Q 416 -487 401.5 -462.5 Q 387 -438 367.5 -417 Q 348 -396 326 -378 Q 351 -358 373 -336 Q 395 -314 411.5 -288 Q 428 -262 438 -232.5 Q 448 -203 448 -172 Q 448 -146 441.5 -121.5 Q 435 -97 422.5 -75.5 Q 410 -54 390.5 -37 Q 371 -20 348 -10 Q 325 -0 300 4 Q 275 8 250 8 Z M 250 -435 Q 266 -447 280.5 -461.5 Q 295 -476 306.5 -493 Q 318 -510 325 -529.5 Q 332 -549 332 -569 Q 332 -586 326.5 -602.5 Q 321 -619 310 -631.5 Q 299 -644 283 -649.5 Q 267 -655 250 -655 Q 233 -655 217 -649.5 Q 201 -644 190 -631.5 Q 179 -619 173.5 -602.5 Q 168 -586 168 -569 Q 168 -549 175 -529.5 Q 182 -510 193.5 -493 Q 205 -476 219.5 -461.5 Q 234 -447 250 -435 Z M 250 -80 Q 269 -80 287.5 -85.5 Q 306 -91 320 -104 Q 334 -117 340.5 -135.5 Q 347 -154 347 -173 Q 347 -196 338.5 -217.5 Q 330 -239 316.5 -257.5 Q 303 -276 285.5 -291 Q 268 -306 250 -320 Q 232 -306 214.5 -291 Q 197 -276 183.5 -257.5 Q 170 -239 161.5 -217.5 Q 153 -196 153 -173 Q 153 -154 159.5 -135.5 Q 166 -117 180 -104 Q 194 -91 212.5 -85.5 Q 231 -80 250 -80 Z " id="path9"/>
<path d="M 262 0 L 153 0 L 260 -218 Q 272 -242 283.5 -266.5 Q 295 -291 305 -316 Q 286 -297 261 -288 Q 236 -279 209 -279 Q 183 -279 157.5 -288 Q 132 -297 113.5 -315.5 Q 95 -334 83 -357.5 Q 71 -381 64 -406.5 Q 57 -432 54.5 -458.5 Q 52 -485 52 -511 Q 52 -540 56 -568.5 Q 60 -597 70.5 -624 Q 81 -651 98.5 -674.5 Q 116 -698 140 -714 Q 164 -730 192.5 -736.5 Q 221 -743 250 -743 Q 279 -743 307.5 -736.5 Q 336 -730 360 -714 Q 384 -698 401.5 -674.5 Q 419 -651 429.5 -624 Q 440 -597 444 -568.5 Q 448 -540 448 -511 Q 448 -467 440 -424 Q 432 -381 418.5 -339.5 Q 405 -298 387 -258 Q 369 -218 350 -179 Z M 250 -367 Q 265 -367 279 -371.5 Q 293 -376 304.5 -385.5 Q 316 -395 323.5 -407.5 Q 331 -420 336 -434 Q 341 -448 343.5 -462.5 Q 346 -477 347 -492 L 347 -511 Q 347 -527 345.5 -543.5 Q 344 -560 340 -575.5 Q 336 -591 328.5 -606 Q 321 -621 309.5 -632.5 Q 298 -644 282 -649.5 Q 266 -655 250 -655 Q 234 -655 218 -649.5 Q 202 -644 190.5 -632.5 Q 179 -621 171.5 -606 Q 164 -591 160 -575.5 Q 156 -560 154.5 -543.5 Q 153 -527 153 -511 Q 153 -495 154.5 -478.5 Q 156 -462 160 -446 Q 164 -430 171.5 -415.5 Q 179 -401 190.5 -389.5 Q 202 -378 218 -372.5 Q 234 -367 250 -367 Z " id="path10"/>
<path d="M 39 0 L 192 -735 L 308 -735 L 461 0 L 358 0 L 326 -172 L 174 -172 L 142 0 Z M 309 -260 L 265 -490 Q 262 -511 258 -531.5 Q 254 -552 250 -572 Q 246 -552 242 -531.5 Q 238 -511 235 -490 L 191 -260 Z " id="path11"/>
<path d="M 60 0 L 60 -735 L 234 -735 Q 261 -735 287 -730.5 Q 313 -726 336 -714 Q 359 -702 377.5 -682.5 Q 396 -663 408 -639.5 Q 420 -616 424.5 -590 Q 429 -564 429 -538 Q 429 -515 425 -492 Q 421 -469 410.5 -448.5 Q 400 -428 383.5 -411 Q 367 -394 347 -383 Q 372 -373 393.5 -355.5 Q 415 -338 429.5 -314.5 Q 444 -291 450 -264 Q 456 -237 456 -210 Q 456 -181 450 -152.5 Q 444 -124 430 -98.5 Q 416 -73 394.5 -53.5 Q 373 -34 347 -21.5 Q 321 -9 292 -4.5 Q 263 -0 234 0 Z M 161 -424 L 234 -424 Q 255 -424 274.5 -432.5 Q 294 -441 306.5 -457.5 Q 319 -474 324 -494.5 Q 329 -515 329 -536 Q 329 -557 324 -577.5 Q 319 -598 306.5 -614.5 Q 294 -631 274.5 -639 Q 255 -647 234 -647 L 161 -647 Z M 161 -88 L 234 -88 Q 251 -88 267 -91 Q 283 -94 297.5 -101.5 Q 312 -109 323.5 -121 Q 335 -133 342.5 -148 Q 350 -163 352.5 -179 Q 355 -195 355 -212 Q 355 -228 352.5 -244.5 Q 350 -261 343 -276 Q 336 -291 324.5 -303 Q 313 -315 298 -322.5 Q 283 -330 267 -333 Q 251 -336 234 -336 L 161 -336 Z " id="path12"/>
<path d="M 247 8 Q 220 8 193 2.5 Q 166 -3 142.5 -16 Q 119 -29 101 -49.5 Q 83 -70 72 -94.5 Q 61 -119 56.5 -146 Q 52 -173 52 -200 L 52 -535 Q 52 -562 56.5 -589 Q 61 -616 72 -640.5 Q 83 -665 101 -685.5 Q 119 -706 142.5 -719 Q 166 -732 193 -737.5 Q 220 -743 247 -743 Q 273 -743 298 -738.5 Q 323 -734 346 -723 Q 369 -712 387.5 -694 Q 406 -676 418 -653.5 Q 430 -631 436 -606 Q 442 -581 442 -555 L 442 -548 L 341 -548 L 341 -552 Q 341 -572 335.5 -591.5 Q 330 -611 317.5 -626 Q 305 -641 286 -648 Q 267 -655 247 -655 Q 225 -655 205 -645.5 Q 185 -636 173 -618 Q 161 -600 157 -578.5 Q 153 -557 153 -535 L 153 -200 Q 153 -178 157 -156.5 Q 161 -135 173 -117 Q 185 -99 205 -89.5 Q 225 -80 247 -80 Q 267 -80 286 -87 Q 305 -94 317.5 -109 Q 330 -124 335.5 -143.5 Q 341 -163 341 -183 L 341 -187 L 442 -187 L 442 -180 Q 442 -154 436 -129 Q 430 -104 418 -81.5 Q 406 -59 387.5 -41 Q 369 -23 346 -12 Q 323 -1 298 3.5 Q 273 8 247 8 Z " id="path13"/>
<path d="M 60 0 L 60 -735 L 219 -735 Q 249 -735 279 -730 Q 309 -725 336.5 -712 Q 364 -699 386 -678.5 Q 408 -658 422 -631.5 Q 436 -605 442 -575 Q 448 -545 448 -515 L 448 -220 Q 448 -190 442 -160 Q 436 -130 422 -103.5 Q 408 -77 386 -56.5 Q 364 -36 336.5 -23 Q 309 -10 279 -5 Q 249 -0 219 0 Z M 161 -88 L 219 -88 Q 237 -88 254 -91 Q 271 -94 286.5 -102.5 Q 302 -111 314 -124 Q 326 -137 333.5 -152.5 Q 341 -168 344 -185.5 Q 347 -203 347 -220 L 347 -515 Q 347 -532 344 -549.5 Q 341 -567 333.5 -582.5 Q 326 -598 314 -611 Q 302 -624 286.5 -632.5 Q 271 -641 254 -644 Q 237 -647 219 -647 L 161 -647 Z " id="path14"/>
<path d="M 68 0 L 68 -735 L 440 -735 L 440 -647 L 169 -647 L 169 -426 L 383 -426 L 383 -338 L 169 -338 L 169 -88 L 440 -88 L 440 0 Z " id="path15"/>
<path d="M 91 0 L 91 -735 L 440 -735 L 440 -647 L 191 -647 L 191 -426 L 383 -426 L 383 -338 L 191 -338 L 191 0 Z " id="path16"/>
<path d="M 250 8 Q 223 8 196.5 2.5 Q 170 -3 147 -16.5 Q 124 -30 106.5 -50.5 Q 89 -71 78.5 -95.5 Q 68 -120 64 -146.5 Q 60 -173 60 -200 L 60 -735 L 161 -735 L 161 -200 Q 161 -186 162.5 -172 Q 164 -158 168 -144.5 Q 172 -131 179.5 -118.5 Q 187 -106 197.5 -97 Q 208 -88 222 -84 Q 236 -80 250 -80 Q 264 -80 278 -84 Q 292 -88 302.5 -97 Q 313 -106 320.5 -118.5 Q 328 -131 332 -144.5 Q 336 -158 337.5 -172 Q 339 -186 339 -200 L 339 -735 L 440 -735 L 440 -200 Q 440 -173 436 -146.5 Q 432 -120 421.5 -95.5 Q 411 -71 393.5 -50.5 Q 376 -30 353 -16.5 Q 330 -3 303.5 2.5 Q 277 8 250 8 Z " id="path17"/>
<path d="M 300 -143 L 200 -143 L 200 -296 L 60 -296 L 60 -384 L 200 -384 L 200 -537 L 300 -537 L 300 -384 L 440 -384 L 440 -296 L 300 -296 Z " id="path18"/>
<path d="M 164 -217 L 42 -340 L 164 -463 L 164 -363 L 942 -363 L 942 -317 L 164 -317 Z " id="path19"/>
<path d="M 477 102 L 477 -676 L 377 -676 L 500 -798 L 623 -676 L 523 -676 L 523 102 Z " id="path20"/>
<path d="M 836 -217 L 836 -317 L 58 -317 L 58 -363 L 836 -363 L 836 -463 L 958 -340 Z " id="path21"/>
<path d="M 500 118 L 377 -4 L 477 -4 L 477 -782 L 523 -782 L 523 -4 L 623 -4 Z " id="path22"/>
<path d="M 204 -177 L 42 -340 L 204 -503 L 204 -379 L 942 -379 L 942 -301 L 204 -301 Z " id="path23"/>
<path d="M 461 102 L 461 -636 L 337 -636 L 500 -798 L 663 -636 L 539 -636 L 539 102 Z " id="path24"/>
<path d="M 796 -177 L 796 -301 L 58 -301 L 58 -379 L 796 -379 L 796 -503 L 958 -340 Z " id="path25"/>
<path d="M 500 118 L 337 -44 L 461 -44 L 461 -782 L 539 -782 L 539 -44 L 663 -44 Z " id="path26"/>
<path d="M 291 -91 L 42 -340 L 291 -589 L 291 -400 L 942 -400 L 942 -280 L 291 -280 Z " id="path27"/>
<path d="M 560 102 L 440 102 L 440 -549 L 251 -549 L 500 -798 L 749 -549 L 560 -549 Z " id="path28"/>
<path d="M 709 -91 L 709 -280 L 58 -280 L 58 -400 L 709 -400 L 709 -589 L 958 -340 Z " id="path29"/>
<path d="M 500 118 L 251 -131 L 440 -131 L 440 -782 L 560 -782 L 560 -131 L 749 -131 Z " id="path30"/>
<path d="M 64 0 L 64 -735 L 436 -735 L 436 0 Z M 94 -321 L 401 -705 L 308 -705 L 94 -438 Z M 94 -478 L 276 -705 L 182 -705 L 94 -595 Z M 94 -634 L 151 -705 L 94 -705 Z M 94 -165 L 406 -554 L 406 -671 L 94 -282 Z M 94 -30 L 111 -30 L 406 -398 L 406 -515 L 94 -126 Z M 143 -30 L 236 -30 L 406 -242 L 406 -359 Z M 268 -30 L 362 -30 L 406 -85 L 406 -202 Z M 393 -30 L 406 -30 L 406 -46 Z " id="path31"/>
<path d="M 242 -217 L 42 -340 L 242 -463 L 242 -363 L 942 -363 L 942 -317 L 242 -317 Z " id="path32"/>
<path d="M 477 102 L 477 -598 L 377 -598 L 500 -798 L 623 -598 L 523 -598 L 523 102 Z " id="path33"/>
<path d="M 758 -217 L 758 -317 L 58 -317 L 58 -363 L 758 -363 L 758 -463 L 958 -340 Z " id="path34"/>
<path d="M 500 118 L 377 -82 L 477 -82 L 477 -782 L 523 -782 L 523 -82 L 623 -82 Z " id="path35"/>
<path d="M 381 -137 L 42 -340 L 381 -543 L 381 -370 L 942 -370 L 942 -310 L 381 -310 Z " id="path36"/>
<path d="M 470 102 L 470 -459 L 297 -459 L 500 -798 L 703 -459 L 530 -459 L 530 102 Z " id="path37"/>
<path d="M 619 -137 L 619 -310 L 58 -310 L 58 -370 L 619 -370 L 619 -543 L 958 -340 Z " id="path38"/>
<path d="M 500 118 L 297 -221 L 470 -221 L 470 -782 L 530 -782 L 530 -221 L 703 -221 Z " id="path39"/>
<path d="M 381 -137 L 42 -340 L 381 -543 L 381 -379 L 942 -379 L 942 -301 L 381 -301 Z " id="path40"/>
<path d="M 461 102 L 461 -459 L 297 -459 L 500 -798 L 703 -459 L 539 -459 L 539 102 Z " id="path41"/>
<path d="M 619 -137 L 619 -301 L 58 -301 L 58 -379 L 619 -379 L 619 -543 L 958 -340 Z " id="path42"/>
<path d="M 500 118 L 297 -221 L 461 -221 L 461 -782 L 539 -782 L 539 -221 L 703 -221 Z " id="path43"/>
<path d="M 462 -91 L 42 -340 L 462 -589 L 462 -400 L 942 -400 L 942 -280 L 462 -280 Z " id="path44"/>
<path d="M 440 102 L 440 -378 L 251 -378 L 500 -798 L 749 -378 L 560 -378 L 560 102 Z " id="path45"/>
<path d="M 538 -91 L 538 -280 L 58 -280 L 58 -400 L 538 -400 L 538 -589 L 958 -340 Z " id="path46"/>
<path d="M 500 118 L 251 -302 L 440 -302 L 440 -782 L 560 -782 L 560 -302 L 749 -302 Z " id="path47"/>
<path d="M 244 -137 L 42 -340 L 244 -543 L 244 -363 L 942 -363 L 942 -317 L 244 -317 Z " id="path48"/>
<path d="M 477 102 L 477 -596 L 297 -596 L 500 -798 L 703 -596 L 523 -596 L 523 102 Z " id="path49"/>
<path d="M 756 -137 L 756 -317 L 58 -317 L 58 -363 L 756 -363 L 756 -543 L 958 -340 Z " id="path50"/>
<path d="M 500 118 L 297 -84 L 477 -84 L 477 -782 L 523 -782 L 523 -84 L 703 -84 Z " id="path51"/>
<path d="M 244 -137 L 42 -340 L 244 -543 L 244 -379 L 942 -379 L 942 -301 L 244 -301 Z " id="path52"/>
<path d="M 461 102 L 461 -596 L 297 -596 L 500 -798 L 703 -596 L 539 -596 L 539 102 Z " id="path53"/>
<path d="M 756 -137 L 756 -301 L 58 -301 L 58 -379 L 756 -379 L 756 -543 L 958 -340 Z " id="path54"/>
<path d="M 500 118 L 297 -84 L 461 -84 L 461 -782 L 539 -782 L 539 -84 L 703 -84 Z " id="path55"/>
<path d="M 244 -137 L 42 -340 L 244 -543 L 244 -400 L 942 -400 L 942 -280 L 244 -280 Z " id="path56"/>
<path d="M 440 102 L 440 -596 L 297 -596 L 500 -798 L 703 -596 L 560 -596 L 560 102 Z " id="path57"/>
<path d="M 756 -137 L 756 -280 L 58 -280 L 58 -400 L 756 -400 L 756 -543 L 958 -340 Z " id="path58"/>
<path d="M 500 118 L 297 -84 L 440 -84 L 440 -782 L 560 -782 L 560 -84 L 703 -84 Z " id="path59"/>
<path d="M 244 -137 L 42 -340 L 244 -543 L 244 -433 L 942 -433 L 942 -247 L 244 -247 Z " id="path60"/>
<path d="M 407 102 L 407 -596 L 297 -596 L 500 -798 L 703 -596 L 593 -596 L 593 102 Z " id="path61"/>
<path d="M 756 -137 L 756 -247 L 58 -247 L 58 -433 L 756 -433 L 756 -543 L 958 -340 Z " id="path62"/>
<path d="M 500 118 L 297 -84 L 407 -84 L 407 -782 L 593 -782 L 593 -84 L 703 -84 Z " id="path63"/>
<path d="M 244 -137 L 42 -340 L 244 -543 L 244 -441 L 942 -441 L 942 -239 L 244 -239 Z " id="path64"/>
<path d="M 399 102 L 399 -596 L 297 -596 L 500 -798 L 703 -596 L 601 -596 L 601 102 Z " id="path65"/>
<path d="M 756 -137 L 756 -239 L 58 -239 L 58 -441 L 756 -441 L 756 -543 L 958 -340 Z " id="path66"/>
<path d="M 500 118 L 297 -84 L 399 -84 L 399 -782 L 601 -782 L 601 -84 L 703 -84 Z " id="path67"/>
<path d="M 244 -137 L 42 -340 L 244 -543 L 942 -543 L 942 -137 Z " id="path68"/>
<path d="M 297 102 L 297 -596 L 500 -798 L 703 -596 L 703 102 Z " id="path69"/>
<path d="M 58 -137 L 58 -543 L 756 -543 L 958 -340 L 756 -137 Z " id="path70"/>
<path d="M 500 118 L 297 -84 L 297 -782 L 703 -782 L 703 -84 Z " id="path71"/>
<path d="M 557 -95 L 312 -340 L 557 -585 L 557 -455 L 672 -455 L 672 -225 L 557 -225 Z " id="path72"/>
<path d="M 385 -168 L 385 -283 L 255 -283 L 500 -528 L 745 -283 L 615 -283 L 615 -168 Z " id="path73"/>
<path d="M 443 -95 L 443 -225 L 328 -225 L 328 -455 L 443 -455 L 443 -585 L 688 -340 Z " id="path74"/>
<path d="M 500 -152 L 255 -397 L 385 -397 L 385 -512 L 615 -512 L 615 -397 L 745 -397 Z " id="path75"/>
<path d="M 557 43 L 312 -340 L 557 -723 L 557 -524 L 672 -524 L 672 -156 L 557 -156 Z " id="path76"/>
<path d="M 684 -168 L 316 -168 L 316 -283 L 117 -283 L 500 -528 L 883 -283 L 684 -283 Z " id="path77"/>
<path d="M 443 43 L 443 -156 L 328 -156 L 328 -524 L 443 -524 L 443 -723 L 688 -340 Z " id="path78"/>
<path d="M 500 -152 L 117 -397 L 316 -397 L 316 -512 L 684 -512 L 684 -397 L 883 -397 Z " id="path79"/>
<path d="M 557 43 L 312 -340 L 557 -723 L 557 -558 L 672 -558 L 672 -122 L 557 -122 Z " id="path80"/>
<path d="M 282 -168 L 282 -283 L 117 -283 L 500 -528 L 883 -283 L 718 -283 L 718 -168 Z " id="path81"/>
<path d="M 443 43 L 443 -122 L 328 -122 L 328 -558 L 443 -558 L 443 -723 L 688 -340 Z " id="path82"/>
<path d="M 500 -152 L 117 -397 L 282 -397 L 282 -512 L 718 -512 L 718 -397 L 883 -397 Z " id="path83"/>
<path d="M 425 43 L 42 -340 L 425 -723 L 425 -543 L 942 -543 L 942 -137 L 425 -137 Z " id="path84"/>
<path d="M 297 102 L 297 -415 L 117 -415 L 500 -798 L 883 -415 L 703 -415 L 703 102 Z " id="path85"/>
<path d="M 575 43 L 575 -137 L 58 -137 L 58 -543 L 575 -543 L 575 -723 L 958 -340 Z " id="path86"/>
<path d="M 500 118 L 117 -265 L 297 -265 L 297 -782 L 703 -782 L 703 -265 L 883 -265 Z " id="path87"/>
<path d="M 291 -91 L 42 -340 L 291 -589 L 343 -538 L 158 -375 L 942 -375 L 942 -305 L 158 -305 L 343 -142 Z " id="path88"/>
<path d="M 465 102 L 465 -682 L 302 -497 L 251 -549 L 500 -798 L 749 -549 L 698 -497 L 535 -682 L 535 102 Z " id="path89"/>
<path d="M 709 -91 L 657 -142 L 842 -305 L 58 -305 L 58 -375 L 842 -375 L 657 -538 L 709 -589 L 958 -340 Z " id="path90"/>
<path d="M 500 118 L 251 -131 L 302 -183 L 465 2 L 465 -782 L 535 -782 L 535 2 L 698 -183 L 749 -131 Z " id="path91"/>
<path d="M 847 31 L 175 -641 L 190 -395 L 117 -397 L 117 -749 L 469 -749 L 470 -676 L 224 -691 L 897 -18 Z " id="path92"/>
<path d="M 153 31 L 103 -18 L 776 -691 L 530 -676 L 531 -749 L 883 -749 L 883 -397 L 810 -395 L 825 -641 Z " id="path93"/>
<path d="M 883 18 L 531 18 L 530 -55 L 776 -40 L 103 -713 L 153 -762 L 825 -89 L 810 -336 L 883 -334 Z " id="path94"/>
<path d="M 117 18 L 117 -334 L 190 -336 L 175 -89 L 847 -762 L 897 -713 L 224 -40 L 470 -55 L 469 18 Z " id="path95"/>
<path d="M 291 -91 L 42 -340 L 291 -589 L 343 -538 L 158 -375 L 842 -375 L 657 -538 L 709 -589 L 958 -340 L 709 -91 L 657 -142 L 842 -305 L 158 -305 L 343 -142 Z " id="path96"/>
<path d="M 500 118 L 251 -131 L 302 -183 L 465 2 L 465 -682 L 302 -497 L 251 -549 L 500 -798 L 749 -549 L 698 -497 L 535 -682 L 535 2 L 698 -183 L 749 -131 Z " id="path97"/>
<path d="M 374 -59 L 323 -59 L 42 -340 L 323 -621 L 374 -621 L 116 -363 L 942 -363 L 942 -317 L 116 -317 Z " id="path98"/>
<path d="M 477 102 L 477 -724 L 219 -466 L 219 -517 L 500 -798 L 781 -517 L 781 -466 L 523 -724 L 523 102 Z " id="path99"/>
<path d="M 626 -59 L 884 -317 L 58 -317 L 58 -363 L 884 -363 L 626 -621 L 677 -621 L 958 -340 L 677 -59 Z " id="path100"/>
<path d="M 500 118 L 219 -163 L 219 -214 L 477 44 L 477 -782 L 523 -782 L 523 44 L 781 -214 L 781 -163 Z " id="path101"/>
<path d="M 856 23 L 153 -680 L 153 -315 L 117 -351 L 117 -749 L 514 -749 L 551 -712 L 185 -712 L 517 -381 L 888 -10 Z " id="path102"/>
<path d="M 144 23 L 112 -10 L 815 -712 L 449 -712 L 486 -749 L 883 -749 L 883 -351 L 847 -315 L 847 -680 Z " id="path103"/>
<path d="M 883 18 L 486 18 L 449 -19 L 815 -19 L 112 -721 L 144 -753 L 847 -51 L 847 -416 L 883 -380 Z " id="path104"/>
<path d="M 117 18 L 117 -380 L 153 -416 L 153 -51 L 856 -753 L 888 -721 L 185 -19 L 551 -19 L 514 18 Z " id="path105"/>
<path d="M 410 -59 L 323 -59 L 42 -340 L 323 -621 L 410 -621 L 168 -379 L 942 -379 L 942 -301 L 168 -301 Z " id="path106"/>
<path d="M 539 102 L 461 102 L 461 -672 L 219 -430 L 219 -517 L 500 -798 L 781 -517 L 781 -430 L 539 -672 Z " id="path107"/>
<path d="M 590 -59 L 832 -301 L 58 -301 L 58 -379 L 832 -379 L 590 -621 L 677 -621 L 958 -340 L 677 -59 Z " id="path108"/>
<path d="M 500 118 L 219 -163 L 219 -250 L 461 -8 L 461 -782 L 539 -782 L 539 -8 L 781 -250 L 781 -163 Z " id="path109"/>
<path d="M 844 34 L 179 -632 L 179 -289 L 117 -351 L 117 -749 L 514 -749 L 576 -687 L 233 -687 L 899 -21 Z " id="path110"/>
<path d="M 156 34 L 101 -21 L 767 -687 L 424 -687 L 486 -749 L 883 -749 L 883 -351 L 821 -289 L 821 -632 Z " id="path111"/>
<path d="M 883 18 L 486 18 L 424 -44 L 767 -44 L 101 -710 L 156 -765 L 821 -99 L 821 -442 L 883 -380 Z " id="path112"/>
<path d="M 117 18 L 117 -380 L 179 -442 L 179 -99 L 844 -765 L 899 -710 L 233 -44 L 576 -44 L 514 18 Z " id="path113"/>
<path d="M 323 -59 L 42 -340 L 323 -621 L 459 -621 L 238 -400 L 942 -400 L 942 -280 L 238 -280 L 459 -59 Z " id="path114"/>
<path d="M 440 102 L 440 -602 L 219 -381 L 219 -517 L 500 -798 L 781 -517 L 781 -381 L 560 -602 L 560 102 Z " id="path115"/>
<path d="M 541 -59 L 762 -280 L 58 -280 L 58 -400 L 762 -400 L 541 -621 L 677 -621 L 958 -340 L 677 -59 Z " id="path116"/>
<path d="M 500 118 L 219 -163 L 219 -299 L 440 -78 L 440 -782 L 560 -782 L 560 -78 L 781 -299 L 781 -163 Z " id="path117"/>
<path d="M 829 49 L 213 -568 L 213 -255 L 117 -351 L 117 -749 L 514 -749 L 610 -653 L 298 -653 L 914 -36 Z " id="path118"/>
<path d="M 171 49 L 86 -36 L 702 -653 L 390 -653 L 486 -749 L 883 -749 L 883 -351 L 787 -255 L 787 -568 Z " id="path119"/>
<path d="M 486 18 L 390 -78 L 702 -78 L 86 -695 L 171 -780 L 787 -163 L 787 -476 L 883 -380 L 883 18 Z " id="path120"/>
<path d="M 117 18 L 117 -380 L 213 -476 L 213 -163 L 829 -780 L 914 -695 L 298 -78 L 610 -78 L 514 18 Z " id="path121"/>
<path d="M 323 -59 L 42 -340 L 323 -621 L 531 -621 L 342 -433 L 942 -433 L 942 -247 L 342 -247 L 531 -59 Z " id="path122"/>
<path d="M 407 102 L 407 -498 L 219 -309 L 219 -517 L 500 -798 L 781 -517 L 781 -309 L 593 -498 L 593 102 Z " id="path123"/>
<path d="M 469 -59 L 658 -247 L 58 -247 L 58 -433 L 658 -433 L 469 -621 L 677 -621 L 958 -340 L 677 -59 Z " id="path124"/>
<path d="M 500 118 L 219 -163 L 219 -371 L 407 -182 L 407 -782 L 593 -782 L 593 -182 L 781 -371 L 781 -163 Z " id="path125"/>
<path d="M 806 72 L 264 -471 L 264 -204 L 117 -351 L 117 -749 L 514 -749 L 662 -601 L 395 -601 L 937 -59 Z " id="path126"/>
<path d="M 194 72 L 63 -59 L 605 -601 L 338 -601 L 486 -749 L 883 -749 L 883 -351 L 736 -204 L 736 -471 Z " id="path127"/>
<path d="M 486 18 L 338 -129 L 605 -129 L 63 -672 L 194 -803 L 736 -260 L 736 -527 L 883 -380 L 883 18 Z " id="path128"/>
<path d="M 117 18 L 117 -380 L 264 -527 L 264 -260 L 806 -803 L 937 -672 L 395 -129 L 662 -129 L 514 18 Z " id="path129"/>
<path d="M 549 -59 L 323 -59 L 42 -340 L 323 -621 L 549 -621 L 369 -441 L 942 -441 L 942 -239 L 369 -239 Z " id="path130"/>
<path d="M 399 102 L 399 -471 L 219 -291 L 219 -517 L 500 -798 L 781 -517 L 781 -291 L 601 -471 L 601 102 Z " id="path131"/>
<path d="M 451 -59 L 631 -239 L 58 -239 L 58 -441 L 631 -441 L 451 -621 L 677 -621 L 958 -340 L 677 -59 Z " id="path132"/>
<path d="M 500 118 L 219 -163 L 219 -389 L 399 -209 L 399 -782 L 601 -782 L 601 -209 L 781 -389 L 781 -163 Z " id="path133"/>
<path d="M 801 78 L 277 -446 L 277 -191 L 117 -351 L 117 -749 L 514 -749 L 675 -588 L 419 -588 L 943 -65 Z " id="path134"/>
<path d="M 199 78 L 57 -65 L 581 -588 L 325 -588 L 486 -749 L 883 -749 L 883 -351 L 723 -191 L 723 -446 Z " id="path135"/>
<path d="M 883 18 L 486 18 L 325 -142 L 581 -142 L 57 -666 L 199 -809 L 723 -285 L 723 -540 L 883 -380 Z " id="path136"/>
<path d="M 117 18 L 117 -380 L 277 -540 L 277 -285 L 801 -809 L 943 -666 L 419 -142 L 675 -142 L 514 18 Z " id="path137"/>
<path d="M 688 102 L 688 -280 L 277 -690 L 275 -439 L 223 -442 L 223 -794 L 575 -794 L 578 -742 L 327 -740 L 765 -301 L 765 102 Z " id="path138"/>
<path d="M 223 114 L 223 -238 L 275 -241 L 277 7 L 561 -276 L 561 -277 Q 586 -301 609.5 -326.5 Q 633 -352 651 -382 Q 669 -412 678.5 -445.5 Q 688 -479 688 -514 Q 688 -541 683 -568 Q 678 -595 665 -619 Q 652 -643 631.5 -661.5 Q 611 -680 586.5 -691.5 Q 562 -703 535 -707.5 Q 508 -712 481 -712 L 235 -712 L 235 -782 L 481 -782 Q 518 -782 554.5 -776.5 Q 591 -771 625 -755.5 Q 659 -740 687 -714.5 Q 715 -689 733 -657 Q 751 -625 758 -588 Q 765 -551 765 -514 Q 765 -472 754.5 -431.5 Q 744 -391 723 -354.5 Q 702 -318 673.5 -287 Q 645 -256 616 -227 L 329 60 L 578 62 L 575 114 Z " id="path139"/>
<path d="M 500 49 L 295 -250 L 406 -250 L 406 -782 L 594 -782 L 594 -250 L 705 -250 Z M 251 137 L 251 68 L 749 68 L 749 137 Z " id="path140"/>
<path d="M 0 285 L 0 -965 L 1000 -965 L 1000 285 Z M 291 -91 L 329 -125 L 153 -305 L 942 -305 L 942 -375 L 153 -375 L 329 -555 L 291 -589 L 42 -340 Z " id="path141"/>
<path d="M 0 285 L 0 -965 L 1000 -965 L 1000 285 Z M 465 102 L 535 102 L 535 -687 L 715 -511 L 749 -549 L 500 -798 L 251 -549 L 285 -511 L 465 -687 Z " id="path142"/>
<path d="M 0 285 L 0 -965 L 1000 -965 L 1000 285 Z M 709 -91 L 958 -340 L 709 -589 L 671 -555 L 847 -375 L 58 -375 L 58 -305 L 847 -305 L 671 -125 Z " id="path143"/>
<path d="M 0 285 L 0 -965 L 1000 -965 L 1000 285 Z M 500 118 L 749 -131 L 715 -169 L 535 7 L 535 -782 L 465 -782 L 465 7 L 285 -169 L 251 -131 Z " id="path144"/>
<path d="M 520 6 L 466 -48 L 617 -199 L 171 -645 L 168 -394 L 117 -397 L 117 -749 L 469 -749 L 472 -697 L 220 -695 L 666 -249 L 817 -400 L 872 -345 Z " id="path145"/>
<path d="M 480 6 L 128 -345 L 183 -400 L 334 -249 L 780 -695 L 528 -697 L 531 -749 L 883 -749 L 883 -397 L 832 -394 L 829 -645 L 383 -199 L 534 -48 Z " id="path146"/>
<path d="M 883 18 L 531 18 L 528 -34 L 780 -36 L 334 -482 L 183 -331 L 128 -385 L 480 -737 L 534 -683 L 383 -532 L 829 -86 L 832 -337 L 883 -334 Z " id="path147"/>
<path d="M 117 18 L 117 -334 L 168 -337 L 171 -86 L 617 -532 L 466 -683 L 520 -737 L 872 -385 L 817 -331 L 666 -482 L 220 -36 L 472 -34 L 469 18 Z " id="path148"/>
</defs>
<g>
<g data-source-text="0" fill="#20242e" transform="translate(174 41.292) rotate(0) scale(0.023999998)">
<use href="#path1" transform="translate(0 0)"/>
</g>
</g>
<g>
<g data-source-text="1" fill="#20242e" transform="translate(246 41.292) rotate(0) scale(0.023999998)">
<use href="#path2" transform="translate(0 0)"/>
</g>
</g>
<g>
<g data-source-text="2" fill="#20242e" transform="translate(318 41.292) rotate(0) scale(0.023999998)">
<use href="#path3" transform="translate(0 0)"/>
</g>
</g>
<g>
<g data-source-text="3" fill="#20242e" transform="translate(390 41.292) rotate(0) scale(0.023999998)">
<use href="#path4" transform="translate(0 0)"/>
</g>
</g>
<g>
<g data-source-text="4" fill="#20242e" transform="translate(462 41.292) rotate(0) scale(0.023999998)">
<use href="#path5" transform="translate(0 0)"/>
</g>
</g>
<g>
<g data-source-text="5" fill="#20242e" transform="translate(534 41.292) rotate(0) scale(0.023999998)">
<use href="#path6" transform="translate(0 0)"/>
</g>
</g>
<g>
<g data-source-text="6" fill="#20242e" transform="translate(606 41.292) rotate(0) scale(0.023999998)">
<use href="#path7" transform="translate(0 0)"/>
</g>
</g>
<g>
<g data-source-text="7" fill="#20242e" transform="translate(678 41.292) rotate(0) scale(0.023999998)">
<use href="#path8" transform="translate(0 0)"/>
</g>
</g>
<g>
<g data-source-text="8" fill="#20242e" transform="translate(750 41.292) rotate(0) scale(0.023999998)">
<use href="#path9" transform="translate(0 0)"/>
</g>
</g>
<g>
<g data-source-text="9" fill="#20242e" transform="translate(822 41.292) rotate(0) scale(0.023999998)">
<use href="#path10" transform="translate(0 0)"/>
</g>
</g>
<g>
<g data-source-text="A" fill="#20242e" transform="translate(894 41.292) rotate(0) scale(0.023999998)">
<use href="#path11" transform="translate(0 0)"/>
</g>
</g>
<g>
<g data-source-text="B" fill="#20242e" transform="translate(966 41.292) rotate(0) scale(0.023999998)">
<use href="#path12" transform="translate(0 0)"/>
</g>
</g>
<g>
<g data-source-text="C" fill="#20242e" transform="translate(1038 41.292) rotate(0) scale(0.023999998)">
<use href="#path13" transform="translate(0 0)"/>
</g>
</g>
<g>
<g data-source-text="D" fill="#20242e" transform="translate(1110 41.292) rotate(0) scale(0.023999998)">
<use href="#path14" transform="translate(0 0)"/>
</g>
</g>
<g>
<g data-source-text="E" fill="#20242e" transform="translate(1182 41.292) rotate(0) scale(0.023999998)">
<use href="#path15" transform="translate(0 0)"/>
</g>
</g>
<g>
<g data-source-text="F" fill="#20242e" transform="translate(1254 41.292) rotate(0) scale(0.023999998)">
<use href="#path16" transform="translate(0 0)"/>
</g>
</g>
<g>
<g data-source-text="U+1F800" fill="#20242e" transform="translate(30 113.292) rotate(0) scale(0.023999998)">
<use href="#path17" transform="translate(0 0)"/>
<use href="#path18" transform="translate(500 0)"/>
<use href="#path2" transform="translate(1000 0)"/>
<use href="#path16" transform="translate(1500 0)"/>
<use href="#path9" transform="translate(2000 0)"/>
<use href="#path1" transform="translate(2500 0)"/>
<use href="#path1" transform="translate(3000 0)"/>
</g>
</g>
<g>
<g data-source-text="ðŸ €" fill="#20242e" transform="translate(156 118.584) rotate(0) scale(0.047999997)">
<use href="#path19" transform="translate(0 0)"/>
</g>
</g>
<g>
<g data-source-text="ðŸ " fill="#20242e" transform="translate(228 118.584) rotate(0) scale(0.047999997)">
<use href="#path20" transform="translate(0 0)"/>
</g>
</g>
<g>
<g data-source-text="ðŸ ‚" fill="#20242e" transform="translate(300 118.584) rotate(0) scale(0.047999997)">
<use href="#path21" transform="translate(0 0)"/>
</g>
</g>
<g>
<g data-source-text="ðŸ ƒ" fill="#20242e" transform="translate(372 118.584) rotate(0) scale(0.047999997)">
<use href="#path22" transform="translate(0 0)"/>
</g>
</g>
<g>
<g data-source-text="ðŸ „" fill="#20242e" transform="translate(444 118.584) rotate(0) scale(0.047999997)">
<use href="#path23" transform="translate(0 0)"/>
</g>
</g>
<g>
<g data-source-text="ðŸ …" fill="#20242e" transform="translate(516 118.584) rotate(0) scale(0.047999997)">
<use href="#path24" transform="translate(0 0)"/>
</g>
</g>
<g>
<g data-source-text="ðŸ †" fill="#20242e" transform="translate(588 118.584) rotate(0) scale(0.047999997)">
<use href="#path25" transform="translate(0 0)"/>
</g>
</g>
<g>
<g data-source-text="ðŸ ‡" fill="#20242e" transform="translate(660 118.584) rotate(0) scale(0.047999997)">
<use href="#path26" transform="translate(0 0)"/>
</g>
</g>
<g>
<g data-source-text="ðŸ ˆ" fill="#20242e" transform="translate(732 118.584) rotate(0) scale(0.047999997)">
<use href="#path27" transform="translate(0 0)"/>
</g>
</g>
<g>
<g data-source-text="ðŸ ‰" fill="#20242e" transform="translate(804 118.584) rotate(0) scale(0.047999997)">
<use href="#path28" transform="translate(0 0)"/>
</g>
</g>
<g>
<g data-source-text="ðŸ Š" fill="#20242e" transform="translate(876 118.584) rotate(0) scale(0.047999997)">
<use href="#path29" transform="translate(0 0)"/>
</g>
</g>
<g>
<g data-source-text="ðŸ ‹" fill="#20242e" transform="translate(948 118.584) rotate(0) scale(0.047999997)">
<use href="#path30" transform="translate(0 0)"/>
</g>
</g>
<g>
<g data-source-text="ï€" fill="#20242e40" transform="translate(1032 118.584) rotate(0) scale(0.047999997)">
<use href="#path31" transform="translate(0 0)"/>
</g>
</g>
<g>
<g data-source-text="ï€" fill="#20242e40" transform="translate(1104 118.584) rotate(0) scale(0.047999997)">
<use href="#path31" transform="translate(0 0)"/>
</g>
</g>
<g>
<g data-source-text="ï€" fill="#20242e40" transform="translate(1176 118.584) rotate(0) scale(0.047999997)">
<use href="#path31" transform="translate(0 0)"/>
</g>
</g>
<g>
<g data-source-text="ï€" fill="#20242e40" transform="translate(1248 118.584) rotate(0) scale(0.047999997)">
<use href="#path31" transform="translate(0 0)"/>
</g>
</g>
<g>
<g data-source-text="U+1F810" fill="#20242e" transform="translate(30 185.292) rotate(0) scale(0.023999998)">
<use href="#path17" transform="translate(0 0)"/>
<use href="#path18" transform="translate(500 0)"/>
<use href="#path2" transform="translate(1000 0)"/>
<use href="#path16" transform="translate(1500 0)"/>
<use href="#path9" transform="translate(2000 0)"/>
<use href="#path2" transform="translate(2500 0)"/>
<use href="#path1" transform="translate(3000 0)"/>
</g>
</g>
<g>
<g data-source-text="ðŸ " fill="#20242e" transform="translate(156 190.584) rotate(0) scale(0.047999997)">
<use href="#path32" transform="translate(0 0)"/>
</g>
</g>
<g>
<g data-source-text="ðŸ ‘" fill="#20242e" transform="translate(228 190.584) rotate(0) scale(0.047999997)">
<use href="#path33" transform="translate(0 0)"/>
</g>
</g>
<g>
<g data-source-text="ðŸ ’" fill="#20242e" transform="translate(300 190.584) rotate(0) scale(0.047999997)">
<use href="#path34" transform="translate(0 0)"/>
</g>
</g>
<g>
<g data-source-text="ðŸ “" fill="#20242e" transform="translate(372 190.584) rotate(0) scale(0.047999997)">
<use href="#path35" transform="translate(0 0)"/>
</g>
</g>
<g>
<g data-source-text="ðŸ ”" fill="#20242e" transform="translate(444 190.584) rotate(0) scale(0.047999997)">
<use href="#path36" transform="translate(0 0)"/>
</g>
</g>
<g>
<g data-source-text="ðŸ •" fill="#20242e" transform="translate(516 190.584) rotate(0) scale(0.047999997)">
<use href="#path37" transform="translate(0 0)"/>
</g>
</g>
<g>
<g data-source-text="ðŸ –" fill="#20242e" transform="translate(588 190.584) rotate(0) scale(0.047999997)">
<use href="#path38" transform="translate(0 0)"/>
</g>
</g>
<g>
<g data-source-text="ðŸ —" fill="#20242e" transform="translate(660 190.584) rotate(0) scale(0.047999997)">
<use href="#path39" transform="translate(0 0)"/>
</g>
</g>
<g>
<g data-source-text="ðŸ ˜" fill="#20242e" transform="translate(732 190.584) rotate(0) scale(0.047999997)">
<use href="#path40" transform="translate(0 0)"/>
</g>
</g>
<g>
<g data-source-text="ðŸ ™" fill="#20242e" transform="translate(804 190.584) rotate(0) scale(0.047999997)">
<use href="#path41" transform="translate(0 0)"/>
</g>
</g>
<g>
<g data-source-text="ðŸ š" fill="#20242e" transform="translate(876 190.584) rotate(0) scale(0.047999997)">
<use href="#path42" transform="translate(0 0)"/>
</g>
</g>
<g>
<g data-source-text="ðŸ ›" fill="#20242e" transform="translate(948 190.584) rotate(0) scale(0.047999997)">
<use href="#path43" transform="translate(0 0)"/>
</g>
</g>
<g>
<g data-source-text="ðŸ œ" fill="#20242e" transform="translate(1020 190.584) rotate(0) scale(0.047999997)">
<use href="#path44" transform="translate(0 0)"/>
</g>
</g>
<g>
<g data-source-text="ðŸ " fill="#20242e" transform="translate(1092 190.584) rotate(0) scale(0.047999997)">
<use href="#path45" transform="translate(0 0)"/>
</g>
</g>
<g>
<g data-source-text="ðŸ ž" fill="#20242e" transform="translate(1164 190.584) rotate(0) scale(0.047999997)">
<use href="#path46" transform="translate(0 0)"/>
</g>
</g>
<g>
<g data-source-text="ðŸ Ÿ" fill="#20242e" transform="translate(1236 190.584) rotate(0) scale(0.047999997)">
<use href="#path47" transform="translate(0 0)"/>
</g>
</g>
<g>
<g data-source-text="U+1F820" fill="#20242e" transform="translate(30 257.292) rotate(0) scale(0.023999998)">
<use href="#path17" transform="translate(0 0)"/>
<use href="#path18" transform="translate(500 0)"/>
<use href="#path2" transform="translate(1000 0)"/>
<use href="#path16" transform="translate(1500 0)"/>
<use href="#path9" transform="translate(2000 0)"/>
<use href="#path3" transform="translate(2500 0)"/>
<use href="#path1" transform="translate(3000 0)"/>
</g>
</g>
<g>
<g data-source-text="ðŸ  " fill="#20242e" transform="translate(156 262.584) rotate(0) scale(0.047999997)">
<use href="#path48" transform="translate(0 0)"/>
</g>
</g>
<g>
<g data-source-text="ðŸ ¡" fill="#20242e" transform="translate(228 262.584) rotate(0) scale(0.047999997)">
<use href="#path49" transform="translate(0 0)"/>
</g>
</g>
<g>
<g data-source-text="ðŸ ¢" fill="#20242e" transform="translate(300 262.584) rotate(0) scale(0.047999997)">
<use href="#path50" transform="translate(0 0)"/>
</g>
</g>
<g>
<g data-source-text="ðŸ £" fill="#20242e" transform="translate(372 262.584) rotate(0) scale(0.047999997)">
<use href="#path51" transform="translate(0 0)"/>
</g>
</g>
<g>
<g data-source-text="ðŸ ¤" fill="#20242e" transform="translate(444 262.584) rotate(0) scale(0.047999997)">
<use href="#path52" transform="translate(0 0)"/>
</g>
</g>
<g>
<g data-source-text="ðŸ ¥" fill="#20242e" transform="translate(516 262.584) rotate(0) scale(0.047999997)">
<use href="#path53" transform="translate(0 0)"/>
</g>
</g>
<g>
<g data-source-text="ðŸ ¦" fill="#20242e" transform="translate(588 262.584) rotate(0) scale(0.047999997)">
<use href="#path54" transform="translate(0 0)"/>
</g>
</g>
<g>
<g data-source-text="ðŸ §" fill="#20242e" transform="translate(660 262.584) rotate(0) scale(0.047999997)">
<use href="#path55" transform="translate(0 0)"/>
</g>
</g>
<g>
<g data-source-text="ðŸ ¨" fill="#20242e" transform="translate(732 262.584) rotate(0) scale(0.047999997)">
<use href="#path56" transform="translate(0 0)"/>
</g>
</g>
<g>
<g data-source-text="ðŸ ©" fill="#20242e" transform="translate(804 262.584) rotate(0) scale(0.047999997)">
<use href="#path57" transform="translate(0 0)"/>
</g>
</g>
<g>
<g data-source-text="ðŸ ª" fill="#20242e" transform="translate(876 262.584) rotate(0) scale(0.047999997)">
<use href="#path58" transform="translate(0 0)"/>
</g>
</g>
<g>
<g data-source-text="ðŸ «" fill="#20242e" transform="translate(948 262.584) rotate(0) scale(0.047999997)">
<use href="#path59" transform="translate(0 0)"/>
</g>
</g>
<g>
<g data-source-text="ðŸ ¬" fill="#20242e" transform="translate(1020 262.584) rotate(0) scale(0.047999997)">
<use href="#path60" transform="translate(0 0)"/>
</g>
</g>
<g>
<g data-source-text="ðŸ ­" fill="#20242e" transform="translate(1092 262.584) rotate(0) scale(0.047999997)">
<use href="#path61" transform="translate(0 0)"/>
</g>
</g>
<g>
<g data-source-text="ðŸ ®" fill="#20242e" transform="translate(1164 262.584) rotate(0) scale(0.047999997)">
<use href="#path62" transform="translate(0 0)"/>
</g>
</g>
<g>
<g data-source-text="ðŸ ¯" fill="#20242e" transform="translate(1236 262.584) rotate(0) scale(0.047999997)">
<use href="#path63" transform="translate(0 0)"/>
</g>
</g>
<g>
<g data-source-text="U+1F830" fill="#20242e" transform="translate(30 329.292) rotate(0) scale(0.023999998)">
<use href="#path17" transform="translate(0 0)"/>
<use href="#path18" transform="translate(500 0)"/>
<use href="#path2" transform="translate(1000 0)"/>
<use href="#path16" transform="translate(1500 0)"/>
<use href="#path9" transform="translate(2000 0)"/>
<use href="#path4" transform="translate(2500 0)"/>
<use href="#path1" transform="translate(3000 0)"/>
</g>
</g>
<g>
<g data-source-text="ðŸ °" fill="#20242e" transform="translate(156 334.584) rotate(0) scale(0.047999997)">
<use href="#path64" transform="translate(0 0)"/>
</g>
</g>
<g>
<g data-source-text="ðŸ ±" fill="#20242e" transform="translate(228 334.584) rotate(0) scale(0.047999997)">
<use href="#path65" transform="translate(0 0)"/>
</g>
</g>
<g>
<g data-source-text="ðŸ ²" fill="#20242e" transform="translate(300 334.584) rotate(0) scale(0.047999997)">
<use href="#path66" transform="translate(0 0)"/>
</g>
</g>
<g>
<g data-source-text="ðŸ ³" fill="#20242e" transform="translate(372 334.584) rotate(0) scale(0.047999997)">
<use href="#path67" transform="translate(0 0)"/>
</g>
</g>
<g>
<g data-source-text="ðŸ ´" fill="#20242e" transform="translate(444 334.584) rotate(0) scale(0.047999997)">
<use href="#path68" transform="translate(0 0)"/>
</g>
</g>
<g>
<g data-source-text="ðŸ µ" fill="#20242e" transform="translate(516 334.584) rotate(0) scale(0.047999997)">
<use href="#path69" transform="translate(0 0)"/>
</g>
</g>
<g>
<g data-source-text="ðŸ ¶" fill="#20242e" transform="translate(588 334.584) rotate(0) scale(0.047999997)">
<use href="#path70" transform="translate(0 0)"/>
</g>
</g>
<g>
<g data-source-text="ðŸ ·" fill="#20242e" transform="translate(660 334.584) rotate(0) scale(0.047999997)">
<use href="#path71" transform="translate(0 0)"/>
</g>
</g>
<g>
<g data-source-text="ðŸ ¸" fill="#20242e" transform="translate(732 334.584) rotate(0) scale(0.047999997)">
<use href="#path72" transform="translate(0 0)"/>
</g>
</g>
<g>
<g data-source-text="ðŸ ¹" fill="#20242e" transform="translate(804 334.584) rotate(0) scale(0.047999997)">
<use href="#path73" transform="translate(0 0)"/>
</g>
</g>
<g>
<g data-source-text="ðŸ º" fill="#20242e" transform="translate(876 334.584) rotate(0) scale(0.047999997)">
<use href="#path74" transform="translate(0 0)"/>
</g>
</g>
<g>
<g data-source-text="ðŸ »" fill="#20242e" transform="translate(948 334.584) rotate(0) scale(0.047999997)">
<use href="#path75" transform="translate(0 0)"/>
</g>
</g>
<g>
<g data-source-text="ðŸ ¼" fill="#20242e" transform="translate(1020 334.584) rotate(0) scale(0.047999997)">
<use href="#path76" transform="translate(0 0)"/>
</g>
</g>
<g>
<g data-source-text="ðŸ ½" fill="#20242e" transform="translate(1092 334.584) rotate(0) scale(0.047999997)">
<use href="#path77" transform="translate(0 0)"/>
</g>
</g>
<g>
<g data-source-text="ðŸ ¾" fill="#20242e" transform="translate(1164 334.584) rotate(0) scale(0.047999997)">
<use href="#path78" transform="translate(0 0)"/>
</g>
</g>
<g>
<g data-source-text="ðŸ ¿" fill="#20242e" transform="translate(1236 334.584) rotate(0) scale(0.047999997)">
<use href="#path79" transform="translate(0 0)"/>
</g>
</g>
<g>
<g data-source-text="U+1F840" fill="#20242e" transform="translate(30 401.292) rotate(0) scale(0.023999998)">
<use href="#path17" transform="translate(0 0)"/>
<use href="#path18" transform="translate(500 0)"/>
<use href="#path2" transform="translate(1000 0)"/>
<use href="#path16" transform="translate(1500 0)"/>
<use href="#path9" transform="translate(2000 0)"/>
<use href="#path5" transform="translate(2500 0)"/>
<use href="#path1" transform="translate(3000 0)"/>
</g>
</g>
<g>
<g data-source-text="ðŸ¡€" fill="#20242e" transform="translate(156 406.584) rotate(0) scale(0.047999997)">
<use href="#path80" transform="translate(0 0)"/>
</g>
</g>
<g>
<g data-source-text="ðŸ¡" fill="#20242e" transform="translate(228 406.584) rotate(0) scale(0.047999997)">
<use href="#path81" transform="translate(0 0)"/>
</g>
</g>
<g>
<g data-source-text="ðŸ¡‚" fill="#20242e" transform="translate(300 406.584) rotate(0) scale(0.047999997)">
<use href="#path82" transform="translate(0 0)"/>
</g>
</g>
<g>
<g data-source-text="ðŸ¡ƒ" fill="#20242e" transform="translate(372 406.584) rotate(0) scale(0.047999997)">
<use href="#path83" transform="translate(0 0)"/>
</g>
</g>
<g>
<g data-source-text="ðŸ¡„" fill="#20242e" transform="translate(444 406.584) rotate(0) scale(0.047999997)">
<use href="#path84" transform="translate(0 0)"/>
</g>
</g>
<g>
<g data-source-text="ðŸ¡…" fill="#20242e" transform="translate(516 406.584) rotate(0) scale(0.047999997)">
<use href="#path85" transform="translate(0 0)"/>
</g>
</g>
<g>
<g data-source-text="ðŸ¡†" fill="#20242e" transform="translate(588 406.584) rotate(0) scale(0.047999997)">
<use href="#path86" transform="translate(0 0)"/>
</g>
</g>
<g>
<g data-source-text="ðŸ¡‡" fill="#20242e" transform="translate(660 406.584) rotate(0) scale(0.047999997)">
<use href="#path87" transform="translate(0 0)"/>
</g>
</g>
<g>
<g data-source-text="ï€" fill="#20242e40" transform="translate(744 406.584) rotate(0) scale(0.047999997)">
<use href="#path31" transform="translate(0 0)"/>
</g>
</g>
<g>
<g data-source-text="ï€" fill="#20242e40" transform="translate(816 406.584) rotate(0) scale(0.047999997)">
<use href="#path31" transform="translate(0 0)"/>
</g>
</g>
<g>
<g data-source-text="ï€" fill="#20242e40" transform="translate(888 406.584) rotate(0) scale(0.047999997)">
<use href="#path31" transform="translate(0 0)"/>
</g>
</g>
<g>
<g data-source-text="ï€" fill="#20242e40" transform="translate(960 406.584) rotate(0) scale(0.047999997)">
<use href="#path31" transform="translate(0 0)"/>
</g>
</g>
<g>
<g data-source-text="ï€" fill="#20242e40" transform="translate(1032 406.584) rotate(0) scale(0.047999997)">
<use href="#path31" transform="translate(0 0)"/>
</g>
</g>
<g>
<g data-source-text="ï€" fill="#20242e40" transform="translate(1104 406.584) rotate(0) scale(0.047999997)">
<use href="#path31" transform="translate(0 0)"/>
</g>
</g>
<g>
<g data-source-text="ï€" fill="#20242e40" transform="translate(1176 406.584) rotate(0) scale(0.047999997)">
<use href="#path31" transform="translate(0 0)"/>
</g>
</g>
<g>
<g data-source-text="ï€" fill="#20242e40" transform="translate(1248 406.584) rotate(0) scale(0.047999997)">
<use href="#path31" transform="translate(0 0)"/>
</g>
</g>
<g>
<g data-source-text="U+1F850" fill="#20242e" transform="translate(30 473.292) rotate(0) scale(0.023999998)">
<use href="#path17" transform="translate(0 0)"/>
<use href="#path18" transform="translate(500 0)"/>
<use href="#path2" transform="translate(1000 0)"/>
<use href="#path16" transform="translate(1500 0)"/>
<use href="#path9" transform="translate(2000 0)"/>
<use href="#path6" transform="translate(2500 0)"/>
<use href="#path1" transform="translate(3000 0)"/>
</g>
</g>
<g>
<g data-source-text="ðŸ¡" fill="#20242e" transform="translate(156 478.584) rotate(0) scale(0.047999997)">
<use href="#path88" transform="translate(0 0)"/>
</g>
</g>
<g>
<g data-source-text="ðŸ¡‘" fill="#20242e" transform="translate(228 478.584) rotate(0) scale(0.047999997)">
<use href="#path89" transform="translate(0 0)"/>
</g>
</g>
<g>
<g data-source-text="ðŸ¡’" fill="#20242e" transform="translate(300 478.584) rotate(0) scale(0.047999997)">
<use href="#path90" transform="translate(0 0)"/>
</g>
</g>
<g>
<g data-source-text="ðŸ¡“" fill="#20242e" transform="translate(372 478.584) rotate(0) scale(0.047999997)">
<use href="#path91" transform="translate(0 0)"/>
</g>
</g>
<g>
<g data-source-text="ðŸ¡”" fill="#20242e" transform="translate(444 478.584) rotate(0) scale(0.047999997)">
<use href="#path92" transform="translate(0 0)"/>
</g>
</g>
<g>
<g data-source-text="ðŸ¡•" fill="#20242e" transform="translate(516 478.584) rotate(0) scale(0.047999997)">
<use href="#path93" transform="translate(0 0)"/>
</g>
</g>
<g>
<g data-source-text="ðŸ¡–" fill="#20242e" transform="translate(588 478.584) rotate(0) scale(0.047999997)">
<use href="#path94" transform="translate(0 0)"/>
</g>
</g>
<g>
<g data-source-text="ðŸ¡—" fill="#20242e" transform="translate(660 478.584) rotate(0) scale(0.047999997)">
<use href="#path95" transform="translate(0 0)"/>
</g>
</g>
<g>
<g data-source-text="ðŸ¡˜" fill="#20242e" transform="translate(732 478.584) rotate(0) scale(0.047999997)">
<use href="#path96" transform="translate(0 0)"/>
</g>
</g>
<g>
<g data-source-text="ðŸ¡™" fill="#20242e" transform="translate(804 478.584) rotate(0) scale(0.047999997)">
<use href="#path97" transform="translate(0 0)"/>
</g>
</g>
<g>
<g data-source-text="ï€" fill="#20242e40" transform="translate(888 478.584) rotate(0) scale(0.047999997)">
<use href="#path31" transform="translate(0 0)"/>
</g>
</g>
<g>
<g data-source-text="ï€" fill="#20242e40" transform="translate(960 478.584) rotate(0) scale(0.047999997)">
<use href="#path31" transform="translate(0 0)"/>
</g>
</g>
<g>
<g data-source-text="ï€" fill="#20242e40" transform="translate(1032 478.584) rotate(0) scale(0.047999997)">
<use href="#path31" transform="translate(0 0)"/>
</g>
</g>
<g>
<g data-source-text="ï€" fill="#20242e40" transform="translate(1104 478.584) rotate(0) scale(0.047999997)">
<use href="#path31" transform="translate(0 0)"/>
</g>
</g>
<g>
<g data-source-text="ï€" fill="#20242e40" transform="translate(1176 478.584) rotate(0) scale(0.047999997)">
<use href="#path31" transform="translate(0 0)"/>
</g>
</g>
<g>
<g data-source-text="ï€" fill="#20242e40" transform="translate(1248 478.584) rotate(0) scale(0.047999997)">
<use href="#path31" transform="translate(0 0)"/>
</g>
</g>
<g>
<g data-source-text="U+1F860" fill="#20242e" transform="translate(30 545.292) rotate(0) scale(0.023999998)">
<use href="#path17" transform="translate(0 0)"/>
<use href="#path18" transform="translate(500 0)"/>
<use href="#path2" transform="translate(1000 0)"/>
<use href="#path16" transform="translate(1500 0)"/>
<use href="#path9" transform="translate(2000 0)"/>
<use href="#path7" transform="translate(2500 0)"/>
<use href="#path1" transform="translate(3000 0)"/>
</g>
</g>
<g>
<g data-source-text="ðŸ¡ " fill="#20242e" transform="translate(156 550.584) rotate(0) scale(0.047999997)">
<use href="#path98" transform="translate(0 0)"/>
</g>
</g>
<g>
<g data-source-text="ðŸ¡¡" fill="#20242e" transform="translate(228 550.584) rotate(0) scale(0.047999997)">
<use href="#path99" transform="translate(0 0)"/>
</g>
</g>
<g>
<g data-source-text="ðŸ¡¢" fill="#20242e" transform="translate(300 550.584) rotate(0) scale(0.047999997)">
<use href="#path100" transform="translate(0 0)"/>
</g>
</g>
<g>
<g data-source-text="ðŸ¡£" fill="#20242e" transform="translate(372 550.584) rotate(0) scale(0.047999997)">
<use href="#path101" transform="translate(0 0)"/>
</g>
</g>
<g>
<g data-source-text="ðŸ¡¤" fill="#20242e" transform="translate(444 550.584) rotate(0) scale(0.047999997)">
<use href="#path102" transform="translate(0 0)"/>
</g>
</g>
<g>
<g data-source-text="ðŸ¡¥" fill="#20242e" transform="translate(516 550.584) rotate(0) scale(0.047999997)">
<use href="#path103" transform="translate(0 0)"/>
</g>
</g>
<g>
<g data-source-text="ðŸ¡¦" fill="#20242e" transform="translate(588 550.584) rotate(0) scale(0.047999997)">
<use href="#path104" transform="translate(0 0)"/>
</g>
</g>
<g>
<g data-source-text="ðŸ¡§" fill="#20242e" transform="translate(660 550.584) rotate(0) scale(0.047999997)">
<use href="#path105" transform="translate(0 0)"/>
</g>
</g>
<g>
<g data-source-text="ðŸ¡¨" fill="#20242e" transform="translate(732 550.584) rotate(0) scale(0.047999997)">
<use href="#path106" transform="translate(0 0)"/>
</g>
</g>
<g>
<g data-source-text="ðŸ¡©" fill="#20242e" transform="translate(804 550.584) rotate(0) scale(0.047999997)">
<use href="#path107" transform="translate(0 0)"/>
</g>
</g>
<g>
<g data-source-text="ðŸ¡ª" fill="#20242e" transform="translate(876 550.584) rotate(0) scale(0.047999997)">
<use href="#path108" transform="translate(0 0)"/>
</g>
</g>
<g>
<g data-source-text="ðŸ¡«" fill="#20242e" transform="translate(948 550.584) rotate(0) scale(0.047999997)">
<use href="#path109" transform="translate(0 0)"/>
</g>
</g>
<g>
<g data-source-text="ðŸ¡¬" fill="#20242e" transform="translate(1020 550.584) rotate(0) scale(0.047999997)">
<use href="#path110" transform="translate(0 0)"/>
</g>
</g>
<g>
<g data-source-text="ðŸ¡­" fill="#20242e" transform="translate(1092 550.584) rotate(0) scale(0.047999997)">
<use href="#path111" transform="translate(0 0)"/>
</g>
</g>
<g>
<g data-source-text="ðŸ¡®" fill="#20242e" transform="translate(1164 550.584) rotate(0) scale(0.047999997)">
<use href="#path112" transform="translate(0 0)"/>
</g>
</g>
<g>
<g data-source-text="ðŸ¡¯" fill="#20242e" transform="translate(1236 550.584) rotate(0) scale(0.047999997)">
<use href="#path113" transform="translate(0 0)"/>
</g>
</g>
<g>
<g data-source-text="U+1F870" fill="#20242e" transform="translate(30 617.292) rotate(0) scale(0.023999998)">
<use href="#path17" transform="translate(0 0)"/>
<use href="#path18" transform="translate(500 0)"/>
<use href="#path2" transform="translate(1000 0)"/>
<use href="#path16" transform="translate(1500 0)"/>
<use href="#path9" transform="translate(2000 0)"/>
<use href="#path8" transform="translate(2500 0)"/>
<use href="#path1" transform="translate(3000 0)"/>
</g>
</g>
<g>
<g data-source-text="ðŸ¡°" fill="#20242e" transform="translate(156 622.584) rotate(0) scale(0.047999997)">
<use href="#path114" transform="translate(0 0)"/>
</g>
</g>
<g>
<g data-source-text="ðŸ¡±" fill="#20242e" transform="translate(228 622.584) rotate(0) scale(0.047999997)">
<use href="#path115" transform="translate(0 0)"/>
</g>
</g>
<g>
<g data-source-text="ðŸ¡²" fill="#20242e" transform="translate(300 622.584) rotate(0) scale(0.047999997)">
<use href="#path116" transform="translate(0 0)"/>
</g>
</g>
<g>
<g data-source-text="ðŸ¡³" fill="#20242e" transform="translate(372 622.584) rotate(0) scale(0.047999997)">
<use href="#path117" transform="translate(0 0)"/>
</g>
</g>
<g>
<g data-source-text="ðŸ¡´" fill="#20242e" transform="translate(444 622.584) rotate(0) scale(0.047999997)">
<use href="#path118" transform="translate(0 0)"/>
</g>
</g>
<g>
<g data-source-text="ðŸ¡µ" fill="#20242e" transform="translate(516 622.584) rotate(0) scale(0.047999997)">
<use href="#path119" transform="translate(0 0)"/>
</g>
</g>
<g>
<g data-source-text="ðŸ¡¶" fill="#20242e" transform="translate(588 622.584) rotate(0) scale(0.047999997)">
<use href="#path120" transform="translate(0 0)"/>
</g>
</g>
<g>
<g data-source-text="ðŸ¡·" fill="#20242e" transform="translate(660 622.584) rotate(0) scale(0.047999997)">
<use href="#path121" transform="translate(0 0)"/>
</g>
</g>
<g>
<g data-source-text="ðŸ¡¸" fill="#20242e" transform="translate(732 622.584) rotate(0) scale(0.047999997)">
<use href="#path122" transform="translate(0 0)"/>
</g>
</g>
<g>
<g data-source-text="ðŸ¡¹" fill="#20242e" transform="translate(804 622.584) rotate(0) scale(0.047999997)">
<use href="#path123" transform="translate(0 0)"/>
</g>
</g>
<g>
<g data-source-text="ðŸ¡º" fill="#20242e" transform="translate(876 622.584) rotate(0) scale(0.047999997)">
<use href="#path124" transform="translate(0 0)"/>
</g>
</g>
<g>
<g data-source-text="ðŸ¡»" fill="#20242e" transform="translate(948 622.584) rotate(0) scale(0.047999997)">
<use href="#path125" transform="translate(0 0)"/>
</g>
</g>
<g>
<g data-source-text="ðŸ¡¼" fill="#20242e" transform="translate(1020 622.584) rotate(0) scale(0.047999997)">
<use href="#path126" transform="translate(0 0)"/>
</g>
</g>
<g>
<g data-source-text="ðŸ¡½" fill="#20242e" transform="translate(1092 622.584) rotate(0) scale(0.047999997)">
<use href="#path127" transform="translate(0 0)"/>
</g>
</g>
<g>
<g data-source-text="ðŸ¡¾" fill="#20242e" transform="translate(1164 622.584) rotate(0) scale(0.047999997)">
<use href="#path128" transform="translate(0 0)"/>
</g>
</g>
<g>
<g data-source-text="ðŸ¡¿" fill="#20242e" transform="translate(1236 622.584) rotate(0) scale(0.047999997)">
<use href="#path129" transform="translate(0 0)"/>
</g>
</g>
<g>
<g data-source-text="U+1F880" fill="#20242e" transform="translate(30 689.292) rotate(0) scale(0.023999998)">
<use href="#path17" transform="translate(0 0)"/>
<use href="#path18" transform="translate(500 0)"/>
<use href="#path2" transform="translate(1000 0)"/>
<use href="#path16" transform="translate(1500 0)"/>
<use href="#path9" transform="translate(2000 0)"/>
<use href="#path9" transform="translate(2500 0)"/>
<use href="#path1" transform="translate(3000 0)"/>
</g>
</g>
<g>
<g data-source-text="ðŸ¢€" fill="#20242e" transform="translate(156 694.584) rotate(0) scale(0.047999997)">
<use href="#path130" transform="translate(0 0)"/>
</g>
</g>
<g>
<g data-source-text="ðŸ¢" fill="#20242e" transform="translate(228 694.584) rotate(0) scale(0.047999997)">
<use href="#path131" transform="translate(0 0)"/>
</g>
</g>
<g>
<g data-source-text="ðŸ¢‚" fill="#20242e" transform="translate(300 694.584) rotate(0) scale(0.047999997)">
<use href="#path132" transform="translate(0 0)"/>
</g>
</g>
<g>
<g data-source-text="ðŸ¢ƒ" fill="#20242e" transform="translate(372 694.584) rotate(0) scale(0.047999997)">
<use href="#path133" transform="translate(0 0)"/>
</g>
</g>
<g>
<g data-source-text="ðŸ¢„" fill="#20242e" transform="translate(444 694.584) rotate(0) scale(0.047999997)">
<use href="#path134" transform="translate(0 0)"/>
</g>
</g>
<g>
<g data-source-text="ðŸ¢…" fill="#20242e" transform="translate(516 694.584) rotate(0) scale(0.047999997)">
<use href="#path135" transform="translate(0 0)"/>
</g>
</g>
<g>
<g data-source-text="ðŸ¢†" fill="#20242e" transform="translate(588 694.584) rotate(0) scale(0.047999997)">
<use href="#path136" transform="translate(0 0)"/>
</g>
</g>
<g>
<g data-source-text="ðŸ¢‡" fill="#20242e" transform="translate(660 694.584) rotate(0) scale(0.047999997)">
<use href="#path137" transform="translate(0 0)"/>
</g>
</g>
<g>
<g data-source-text="ï€" fill="#20242e40" transform="translate(744 694.584) rotate(0) scale(0.047999997)">
<use href="#path31" transform="translate(0 0)"/>
</g>
</g>
<g>
<g data-source-text="ï€" fill="#20242e40" transform="translate(816 694.584) rotate(0) scale(0.047999997)">
<use href="#path31" transform="translate(0 0)"/>
</g>
</g>
<g>
<g data-source-text="ï€" fill="#20242e40" transform="translate(888 694.584) rotate(0) scale(0.047999997)">
<use href="#path31" transform="translate(0 0)"/>
</g>
</g>
<g>
<g data-source-text="ï€" fill="#20242e40" transform="translate(960 694.584) rotate(0) scale(0.047999997)">
<use href="#path31" transform="translate(0 0)"/>
</g>
</g>
<g>
<g data-source-text="ï€" fill="#20242e40" transform="translate(1032 694.584) rotate(0) scale(0.047999997)">
<use href="#path31" transform="translate(0 0)"/>
</g>
</g>
<g>
<g data-source-text="ï€" fill="#20242e40" transform="translate(1104 694.584) rotate(0) scale(0.047999997)">
<use href="#path31" transform="translate(0 0)"/>
</g>
</g>
<g>
<g data-source-text="ï€" fill="#20242e40" transform="translate(1176 694.584) rotate(0) scale(0.047999997)">
<use href="#path31" transform="translate(0 0)"/>
</g>
</g>
<g>
<g data-source-text="ï€" fill="#20242e40" transform="translate(1248 694.584) rotate(0) scale(0.047999997)">
<use href="#path31" transform="translate(0 0)"/>
</g>
</g>
<g>
<g data-source-text="U+1F890" fill="#20242e" transform="translate(30 761.292) rotate(0) scale(0.023999998)">
<use href="#path17" transform="translate(0 0)"/>
<use href="#path18" transform="translate(500 0)"/>
<use href="#path2" transform="translate(1000 0)"/>
<use href="#path16" transform="translate(1500 0)"/>
<use href="#path9" transform="translate(2000 0)"/>
<use href="#path10" transform="translate(2500 0)"/>
<use href="#path1" transform="translate(3000 0)"/>
</g>
</g>
<g>
<g data-source-text="ï€" fill="#20242e40" transform="translate(168 766.584) rotate(0) scale(0.047999997)">
<use href="#path31" transform="translate(0 0)"/>
</g>
</g>
<g>
<g data-source-text="ï€" fill="#20242e40" transform="translate(240 766.584) rotate(0) scale(0.047999997)">
<use href="#path31" transform="translate(0 0)"/>
</g>
</g>
<g>
<g data-source-text="ï€" fill="#20242e40" transform="translate(312 766.584) rotate(0) scale(0.047999997)">
<use href="#path31" transform="translate(0 0)"/>
</g>
</g>
<g>
<g data-source-text="ï€" fill="#20242e40" transform="translate(384 766.584) rotate(0) scale(0.047999997)">
<use href="#path31" transform="translate(0 0)"/>
</g>
</g>
<g>
<g data-source-text="ï€" fill="#20242e40" transform="translate(456 766.584) rotate(0) scale(0.047999997)">
<use href="#path31" transform="translate(0 0)"/>
</g>
</g>
<g>
<g data-source-text="ï€" fill="#20242e40" transform="translate(528 766.584) rotate(0) scale(0.047999997)">
<use href="#path31" transform="translate(0 0)"/>
</g>
</g>
<g>
<g data-source-text="ï€" fill="#20242e40" transform="translate(600 766.584) rotate(0) scale(0.047999997)">
<use href="#path31" transform="translate(0 0)"/>
</g>
</g>
<g>
<g data-source-text="ï€" fill="#20242e40" transform="translate(672 766.584) rotate(0) scale(0.047999997)">
<use href="#path31" transform="translate(0 0)"/>
</g>
</g>
<g>
<g data-source-text="ï€" fill="#20242e40" transform="translate(744 766.584) rotate(0) scale(0.047999997)">
<use href="#path31" transform="translate(0 0)"/>
</g>
</g>
<g>
<g data-source-text="ï€" fill="#20242e40" transform="translate(816 766.584) rotate(0) scale(0.047999997)">
<use href="#path31" transform="translate(0 0)"/>
</g>
</g>
<g>
<g data-source-text="ï€" fill="#20242e40" transform="translate(888 766.584) rotate(0) scale(0.047999997)">
<use href="#path31" transform="translate(0 0)"/>
</g>
</g>
<g>
<g data-source-text="ï€" fill="#20242e40" transform="translate(960 766.584) rotate(0) scale(0.047999997)">
<use href="#path31" transform="translate(0 0)"/>
</g>
</g>
<g>
<g data-source-text="ï€" fill="#20242e40" transform="translate(1032 766.584) rotate(0) scale(0.047999997)">
<use href="#path31" transform="translate(0 0)"/>
</g>
</g>
<g>
<g data-source-text="ï€" fill="#20242e40" transform="translate(1104 766.584) rotate(0) scale(0.047999997)">
<use href="#path31" transform="translate(0 0)"/>
</g>
</g>
<g>
<g data-source-text="ï€" fill="#20242e40" transform="translate(1176 766.584) rotate(0) scale(0.047999997)">
<use href="#path31" transform="translate(0 0)"/>
</g>
</g>
<g>
<g data-source-text="ï€" fill="#20242e40" transform="translate(1248 766.584) rotate(0) scale(0.047999997)">
<use href="#path31" transform="translate(0 0)"/>
</g>
</g>
<g>
<g data-source-text="U+1F8A0" fill="#20242e" transform="translate(30 833.292) rotate(0) scale(0.023999998)">
<use href="#path17" transform="translate(0 0)"/>
<use href="#path18" transform="translate(500 0)"/>
<use href="#path2" transform="translate(1000 0)"/>
<use href="#path16" transform="translate(1500 0)"/>
<use href="#path9" transform="translate(2000 0)"/>
<use href="#path11" transform="translate(2500 0)"/>
<use href="#path1" transform="translate(3000 0)"/>
</g>
</g>
<g>
<g data-source-text="ï€" fill="#20242e40" transform="translate(168 838.584) rotate(0) scale(0.047999997)">
<use href="#path31" transform="translate(0 0)"/>
</g>
</g>
<g>
<g data-source-text="ï€" fill="#20242e40" transform="translate(240 838.584) rotate(0) scale(0.047999997)">
<use href="#path31" transform="translate(0 0)"/>
</g>
</g>
<g>
<g data-source-text="ï€" fill="#20242e40" transform="translate(312 838.584) rotate(0) scale(0.047999997)">
<use href="#path31" transform="translate(0 0)"/>
</g>
</g>
<g>
<g data-source-text="ï€" fill="#20242e40" transform="translate(384 838.584) rotate(0) scale(0.047999997)">
<use href="#path31" transform="translate(0 0)"/>
</g>
</g>
<g>
<g data-source-text="ï€" fill="#20242e40" transform="translate(456 838.584) rotate(0) scale(0.047999997)">
<use href="#path31" transform="translate(0 0)"/>
</g>
</g>
<g>
<g data-source-text="ï€" fill="#20242e40" transform="translate(528 838.584) rotate(0) scale(0.047999997)">
<use href="#path31" transform="translate(0 0)"/>
</g>
</g>
<g>
<g data-source-text="ï€" fill="#20242e40" transform="translate(600 838.584) rotate(0) scale(0.047999997)">
<use href="#path31" transform="translate(0 0)"/>
</g>
</g>
<g>
<g data-source-text="ï€" fill="#20242e40" transform="translate(672 838.584) rotate(0) scale(0.047999997)">
<use href="#path31" transform="translate(0 0)"/>
</g>
</g>
<g>
<g data-source-text="ï€" fill="#20242e40" transform="translate(744 838.584) rotate(0) scale(0.047999997)">
<use href="#path31" transform="translate(0 0)"/>
</g>
</g>
<g>
<g data-source-text="ï€" fill="#20242e40" transform="translate(816 838.584) rotate(0) scale(0.047999997)">
<use href="#path31" transform="translate(0 0)"/>
</g>
</g>
<g>
<g data-source-text="ï€" fill="#20242e40" transform="translate(888 838.584) rotate(0) scale(0.047999997)">
<use href="#path31" transform="translate(0 0)"/>
</g>
</g>
<g>
<g data-source-text="ï€" fill="#20242e40" transform="translate(960 838.584) rotate(0) scale(0.047999997)">
<use href="#path31" transform="translate(0 0)"/>
</g>
</g>
<g>
<g data-source-text="ï€" fill="#20242e40" transform="translate(1032 838.584) rotate(0) scale(0.047999997)">
<use href="#path31" transform="translate(0 0)"/>
</g>
</g>
<g>
<g data-source-text="ï€" fill="#20242e40" transform="translate(1104 838.584) rotate(0) scale(0.047999997)">
<use href="#path31" transform="translate(0 0)"/>
</g>
</g>
<g>
<g data-source-text="ï€" fill="#20242e40" transform="translate(1176 838.584) rotate(0) scale(0.047999997)">
<use href="#path31" transform="translate(0 0)"/>
</g>
</g>
<g>
<g data-source-text="ï€" fill="#20242e40" transform="translate(1248 838.584) rotate(0) scale(0.047999997)">
<use href="#path31" transform="translate(0 0)"/>
</g>
</g>
<g>
<g data-source-text="U+1F8B0" fill="#20242e" transform="translate(30 905.292) rotate(0) scale(0.023999998)">
<use href="#path17" transform="translate(0 0)"/>
<use href="#path18" transform="translate(500 0)"/>
<use href="#path2" transform="translate(1000 0)"/>
<use href="#path16" transform="translate(1500 0)"/>
<use href="#path9" transform="translate(2000 0)"/>
<use href="#path12" transform="translate(2500 0)"/>
<use href="#path1" transform="translate(3000 0)"/>
</g>
</g>
<g>
<g data-source-text="ðŸ¢°" fill="#20242e" transform="translate(156 910.584) rotate(0) scale(0.047999997)">
<use href="#path138" transform="translate(0 0)"/>
</g>
</g>
<g>
<g data-source-text="ðŸ¢±" fill="#20242e" transform="translate(228 910.584) rotate(0) scale(0.047999997)">
<use href="#path139" transform="translate(0 0)"/>
</g>
</g>
<g>
<g data-source-text="ï€" fill="#20242e40" transform="translate(312 910.584) rotate(0) scale(0.047999997)">
<use href="#path31" transform="translate(0 0)"/>
</g>
</g>
<g>
<g data-source-text="ðŸ¢³" fill="#20242e" transform="translate(372 910.584) rotate(0) scale(0.047999997)">
<use href="#path140" transform="translate(0 0)"/>
</g>
</g>
<g>
<g data-source-text="ðŸ¢´" fill="#20242e" transform="translate(444 910.584) rotate(0) scale(0.047999997)">
<use href="#path141" transform="translate(0 0)"/>
</g>
</g>
<g>
<g data-source-text="ðŸ¢µ" fill="#20242e" transform="translate(516 910.584) rotate(0) scale(0.047999997)">
<use href="#path142" transform="translate(0 0)"/>
</g>
</g>
<g>
<g data-source-text="ðŸ¢¶" fill="#20242e" transform="translate(588 910.584) rotate(0) scale(0.047999997)">
<use href="#path143" transform="translate(0 0)"/>
</g>
</g>
<g>
<g data-source-text="ðŸ¢·" fill="#20242e" transform="translate(660 910.584) rotate(0) scale(0.047999997)">
<use href="#path144" transform="translate(0 0)"/>
</g>
</g>
<g>
<g data-source-text="ðŸ¢¸" fill="#20242e" transform="translate(732 910.584) rotate(0) scale(0.047999997)">
<use href="#path145" transform="translate(0 0)"/>
</g>
</g>
<g>
<g data-source-text="ðŸ¢¹" fill="#20242e" transform="translate(804 910.584) rotate(0) scale(0.047999997)">
<use href="#path146" transform="translate(0 0)"/>
</g>
</g>
<g>
<g data-source-text="ðŸ¢º" fill="#20242e" transform="translate(876 910.584) rotate(0) scale(0.047999997)">
<use href="#path147" transform="translate(0 0)"/>
</g>
</g>
<g>
<g data-source-text="ðŸ¢»" fill="#20242e" transform="translate(948 910.584) rotate(0) scale(0.047999997)">
<use href="#path148" transform="translate(0 0)"/>
</g>
</g>
<g>
<g data-source-text="ï€" fill="#20242e40" transform="translate(1032 910.584) rotate(0) scale(0.047999997)">
<use href="#path31" transform="translate(0 0)"/>
</g>
</g>
<g>
<g data-source-text="ï€" fill="#20242e40" transform="translate(1104 910.584) rotate(0) scale(0.047999997)">
<use href="#path31" transform="translate(0 0)"/>
</g>
</g>
<g>
<g data-source-text="ï€" fill="#20242e40" transform="translate(1176 910.584) rotate(0) scale(0.047999997)">
<use href="#path31" transform="translate(0 0)"/>
</g>
</g>
<g>
<g data-source-text="ï€" fill="#20242e40" transform="translate(1248 910.584) rotate(0) scale(0.047999997)">
<use href="#path31" transform="translate(0 0)"/>
</g>
</g>
<g>
<g data-source-text="U+1F8C0" fill="#20242e" transform="translate(30 977.292) rotate(0) scale(0.023999998)">
<use href="#path17" transform="translate(0 0)"/>
<use href="#path18" transform="translate(500 0)"/>
<use href="#path2" transform="translate(1000 0)"/>
<use href="#path16" transform="translate(1500 0)"/>
<use href="#path9" transform="translate(2000 0)"/>
<use href="#path13" transform="translate(2500 0)"/>
<use href="#path1" transform="translate(3000 0)"/>
</g>
</g>
<g>
<g data-source-text="ï€" fill="#20242e40" transform="translate(168 982.584) rotate(0) scale(0.047999997)">
<use href="#path31" transform="translate(0 0)"/>
</g>
</g>
<g>
<g data-source-text="ï€" fill="#20242e40" transform="translate(240 982.584) rotate(0) scale(0.047999997)">
<use href="#path31" transform="translate(0 0)"/>
</g>
</g>
<g>
<g data-source-text="ï€" fill="#20242e40" transform="translate(312 982.584) rotate(0) scale(0.047999997)">
<use href="#path31" transform="translate(0 0)"/>
</g>
</g>
<g>
<g data-source-text="ï€" fill="#20242e40" transform="translate(384 982.584) rotate(0) scale(0.047999997)">
<use href="#path31" transform="translate(0 0)"/>
</g>
</g>
<g>
<g data-source-text="ï€" fill="#20242e40" transform="translate(456 982.584) rotate(0) scale(0.047999997)">
<use href="#path31" transform="translate(0 0)"/>
</g>
</g>
<g>
<g data-source-text="ï€" fill="#20242e40" transform="translate(528 982.584) rotate(0) scale(0.047999997)">
<use href="#path31" transform="translate(0 0)"/>
</g>
</g>
<g>
<g data-source-text="ï€" fill="#20242e40" transform="translate(600 982.584) rotate(0) scale(0.047999997)">
<use href="#path31" transform="translate(0 0)"/>
</g>
</g>
<g>
<g data-source-text="ï€" fill="#20242e40" transform="translate(672 982.584) rotate(0) scale(0.047999997)">
<use href="#path31" transform="translate(0 0)"/>
</g>
</g>
<g>
<g data-source-text="ï€" fill="#20242e40" transform="translate(744 982.584) rotate(0) scale(0.047999997)">
<use href="#path31" transform="translate(0 0)"/>
</g>
</g>
<g>
<g data-source-text="ï€" fill="#20242e40" transform="translate(816 982.584) rotate(0) scale(0.047999997)">
<use href="#path31" transform="translate(0 0)"/>
</g>
</g>
<g>
<g data-source-text="ï€" fill="#20242e40" transform="translate(888 982.584) rotate(0) scale(0.047999997)">
<use href="#path31" transform="translate(0 0)"/>
</g>
</g>
<g>
<g data-source-text="ï€" fill="#20242e40" transform="translate(960 982.584) rotate(0) scale(0.047999997)">
<use href="#path31" transform="translate(0 0)"/>
</g>
</g>
<g>
<g data-source-text="ï€" fill="#20242e40" transform="translate(1032 982.584) rotate(0) scale(0.047999997)">
<use href="#path31" transform="translate(0 0)"/>
</g>
</g>
<g>
<g data-source-text="ï€" fill="#20242e40" transform="translate(1104 982.584) rotate(0) scale(0.047999997)">
<use href="#path31" transform="translate(0 0)"/>
</g>
</g>
<g>
<g data-source-text="ï€" fill="#20242e40" transform="translate(1176 982.584) rotate(0) scale(0.047999997)">
<use href="#path31" transform="translate(0 0)"/>
</g>
</g>
<g>
<g data-source-text="ï€" fill="#20242e40" transform="translate(1248 982.584) rotate(0) scale(0.047999997)">
<use href="#path31" transform="translate(0 0)"/>
</g>
</g>
<g>
<g data-source-text="U+1F8D0" fill="#20242e" transform="translate(30 1049.292) rotate(0) scale(0.023999998)">
<use href="#path17" transform="translate(0 0)"/>
<use href="#path18" transform="translate(500 0)"/>
<use href="#path2" transform="translate(1000 0)"/>
<use href="#path16" transform="translate(1500 0)"/>
<use href="#path9" transform="translate(2000 0)"/>
<use href="#path14" transform="translate(2500 0)"/>
<use href="#path1" transform="translate(3000 0)"/>
</g>
</g>
<g>
<g data-source-text="ï€" fill="#20242e40" transform="translate(168 1054.584) rotate(0) scale(0.047999997)">
<use href="#path31" transform="translate(0 0)"/>
</g>
</g>
<g>
<g data-source-text="ï€" fill="#20242e40" transform="translate(240 1054.584) rotate(0) scale(0.047999997)">
<use href="#path31" transform="translate(0 0)"/>
</g>
</g>
<g>
<g data-source-text="ï€" fill="#20242e40" transform="translate(312 1054.584) rotate(0) scale(0.047999997)">
<use href="#path31" transform="translate(0 0)"/>
</g>
</g>
<g>
<g data-source-text="ï€" fill="#20242e40" transform="translate(384 1054.584) rotate(0) scale(0.047999997)">
<use href="#path31" transform="translate(0 0)"/>
</g>
</g>
<g>
<g data-source-text="ï€" fill="#20242e40" transform="translate(456 1054.584) rotate(0) scale(0.047999997)">
<use href="#path31" transform="translate(0 0)"/>
</g>
</g>
<g>
<g data-source-text="ï€" fill="#20242e40" transform="translate(528 1054.584) rotate(0) scale(0.047999997)">
<use href="#path31" transform="translate(0 0)"/>
</g>
</g>
<g>
<g data-source-text="ï€" fill="#20242e40" transform="translate(600 1054.584) rotate(0) scale(0.047999997)">
<use href="#path31" transform="translate(0 0)"/>
</g>
</g>
<g>
<g data-source-text="ï€" fill="#20242e40" transform="translate(672 1054.584) rotate(0) scale(0.047999997)">
<use href="#path31" transform="translate(0 0)"/>
</g>
</g>
<g>
<g data-source-text="ï€" fill="#20242e40" transform="translate(744 1054.584) rotate(0) scale(0.047999997)">
<use href="#path31" transform="translate(0 0)"/>
</g>
</g>
<g>
<g data-source-text="ï€" fill="#20242e40" transform="translate(816 1054.584) rotate(0) scale(0.047999997)">
<use href="#path31" transform="translate(0 0)"/>
</g>
</g>
<g>
<g data-source-text="ï€" fill="#20242e40" transform="translate(888 1054.584) rotate(0) scale(0.047999997)">
<use href="#path31" transform="translate(0 0)"/>
</g>
</g>
<g>
<g data-source-text="ï€" fill="#20242e40" transform="translate(960 1054.584) rotate(0) scale(0.047999997)">
<use href="#path31" transform="translate(0 0)"/>
</g>
</g>
<g>
<g data-source-text="ï€" fill="#20242e40" transform="translate(1032 1054.584) rotate(0) scale(0.047999997)">
<use href="#path31" transform="translate(0 0)"/>
</g>
</g>
<g>
<g data-source-text="ï€" fill="#20242e40" transform="translate(1104 1054.584) rotate(0) scale(0.047999997)">
<use href="#path31" transform="translate(0 0)"/>
</g>
</g>
<g>
<g data-source-text="ï€" fill="#20242e40" transform="translate(1176 1054.584) rotate(0) scale(0.047999997)">
<use href="#path31" transform="translate(0 0)"/>
</g>
</g>
<g>
<g data-source-text="ï€" fill="#20242e40" transform="translate(1248 1054.584) rotate(0) scale(0.047999997)">
<use href="#path31" transform="translate(0 0)"/>
</g>
</g>
<g>
<g data-source-text="U+1F8E0" fill="#20242e" transform="translate(30 1121.292) rotate(0) scale(0.023999998)">
<use href="#path17" transform="translate(0 0)"/>
<use href="#path18" transform="translate(500 0)"/>
<use href="#path2" transform="translate(1000 0)"/>
<use href="#path16" transform="translate(1500 0)"/>
<use href="#path9" transform="translate(2000 0)"/>
<use href="#path15" transform="translate(2500 0)"/>
<use href="#path1" transform="translate(3000 0)"/>
</g>
</g>
<g>
<g data-source-text="ï€" fill="#20242e40" transform="translate(168 1126.584) rotate(0) scale(0.047999997)">
<use href="#path31" transform="translate(0 0)"/>
</g>
</g>
<g>
<g data-source-text="ï€" fill="#20242e40" transform="translate(240 1126.584) rotate(0) scale(0.047999997)">
<use href="#path31" transform="translate(0 0)"/>
</g>
</g>
<g>
<g data-source-text="ï€" fill="#20242e40" transform="translate(312 1126.584) rotate(0) scale(0.047999997)">
<use href="#path31" transform="translate(0 0)"/>
</g>
</g>
<g>
<g data-source-text="ï€" fill="#20242e40" transform="translate(384 1126.584) rotate(0) scale(0.047999997)">
<use href="#path31" transform="translate(0 0)"/>
</g>
</g>
<g>
<g data-source-text="ï€" fill="#20242e40" transform="translate(456 1126.584) rotate(0) scale(0.047999997)">
<use href="#path31" transform="translate(0 0)"/>
</g>
</g>
<g>
<g data-source-text="ï€" fill="#20242e40" transform="translate(528 1126.584) rotate(0) scale(0.047999997)">
<use href="#path31" transform="translate(0 0)"/>
</g>
</g>
<g>
<g data-source-text="ï€" fill="#20242e40" transform="translate(600 1126.584) rotate(0) scale(0.047999997)">
<use href="#path31" transform="translate(0 0)"/>
</g>
</g>
<g>
<g data-source-text="ï€" fill="#20242e40" transform="translate(672 1126.584) rotate(0) scale(0.047999997)">
<use href="#path31" transform="translate(0 0)"/>
</g>
</g>
<g>
<g data-source-text="ï€" fill="#20242e40" transform="translate(744 1126.584) rotate(0) scale(0.047999997)">
<use href="#path31" transform="translate(0 0)"/>
</g>
</g>
<g>
<g data-source-text="ï€" fill="#20242e40" transform="translate(816 1126.584) rotate(0) scale(0.047999997)">
<use href="#path31" transform="translate(0 0)"/>
</g>
</g>
<g>
<g data-source-text="ï€" fill="#20242e40" transform="translate(888 1126.584) rotate(0) scale(0.047999997)">
<use href="#path31" transform="translate(0 0)"/>
</g>
</g>
<g>
<g data-source-text="ï€" fill="#20242e40" transform="translate(960 1126.584) rotate(0) scale(0.047999997)">
<use href="#path31" transform="translate(0 0)"/>
</g>
</g>
<g>
<g data-source-text="ï€" fill="#20242e40" transform="translate(1032 1126.584) rotate(0) scale(0.047999997)">
<use href="#path31" transform="translate(0 0)"/>
</g>
</g>
<g>
<g data-source-text="ï€" fill="#20242e40" transform="translate(1104 1126.584) rotate(0) scale(0.047999997)">
<use href="#path31" transform="translate(0 0)"/>
</g>
</g>
<g>
<g data-source-text="ï€" fill="#20242e40" transform="translate(1176 1126.584) rotate(0) scale(0.047999997)">
<use href="#path31" transform="translate(0 0)"/>
</g>
</g>
<g>
<g data-source-text="ï€" fill="#20242e40" transform="translate(1248 1126.584) rotate(0) scale(0.047999997)">
<use href="#path31" transform="translate(0 0)"/>
</g>
</g>
<g>
<g data-source-text="U+1F8F0" fill="#20242e" transform="translate(30 1193.292) rotate(0) scale(0.023999998)">
<use href="#path17" transform="translate(0 0)"/>
<use href="#path18" transform="translate(500 0)"/>
<use href="#path2" transform="translate(1000 0)"/>
<use href="#path16" transform="translate(1500 0)"/>
<use href="#path9" transform="translate(2000 0)"/>
<use href="#path16" transform="translate(2500 0)"/>
<use href="#path1" transform="translate(3000 0)"/>
</g>
</g>
<g>
<g data-source-text="ï€" fill="#20242e40" transform="translate(168 1198.584) rotate(0) scale(0.047999997)">
<use href="#path31" transform="translate(0 0)"/>
</g>
</g>
<g>
<g data-source-text="ï€" fill="#20242e40" transform="translate(240 1198.584) rotate(0) scale(0.047999997)">
<use href="#path31" transform="translate(0 0)"/>
</g>
</g>
<g>
<g data-source-text="ï€" fill="#20242e40" transform="translate(312 1198.584) rotate(0) scale(0.047999997)">
<use href="#path31" transform="translate(0 0)"/>
</g>
</g>
<g>
<g data-source-text="ï€" fill="#20242e40" transform="translate(384 1198.584) rotate(0) scale(0.047999997)">
<use href="#path31" transform="translate(0 0)"/>
</g>
</g>
<g>
<g data-source-text="ï€" fill="#20242e40" transform="translate(456 1198.584) rotate(0) scale(0.047999997)">
<use href="#path31" transform="translate(0 0)"/>
</g>
</g>
<g>
<g data-source-text="ï€" fill="#20242e40" transform="translate(528 1198.584) rotate(0) scale(0.047999997)">
<use href="#path31" transform="translate(0 0)"/>
</g>
</g>
<g>
<g data-source-text="ï€" fill="#20242e40" transform="translate(600 1198.584) rotate(0) scale(0.047999997)">
<use href="#path31" transform="translate(0 0)"/>
</g>
</g>
<g>
<g data-source-text="ï€" fill="#20242e40" transform="translate(672 1198.584) rotate(0) scale(0.047999997)">
<use href="#path31" transform="translate(0 0)"/>
</g>
</g>
<g>
<g data-source-text="ï€" fill="#20242e40" transform="translate(744 1198.584) rotate(0) scale(0.047999997)">
<use href="#path31" transform="translate(0 0)"/>
</g>
</g>
<g>
<g data-source-text="ï€" fill="#20242e40" transform="translate(816 1198.584) rotate(0) scale(0.047999997)">
<use href="#path31" transform="translate(0 0)"/>
</g>
</g>
<g>
<g data-source-text="ï€" fill="#20242e40" transform="translate(888 1198.584) rotate(0) scale(0.047999997)">
<use href="#path31" transform="translate(0 0)"/>
</g>
</g>
<g>
<g data-source-text="ï€" fill="#20242e40" transform="translate(960 1198.584) rotate(0) scale(0.047999997)">
<use href="#path31" transform="translate(0 0)"/>
</g>
</g>
<g>
<g data-source-text="ï€" fill="#20242e40" transform="translate(1032 1198.584) rotate(0) scale(0.047999997)">
<use href="#path31" transform="translate(0 0)"/>
</g>
</g>
<g>
<g data-source-text="ï€" fill="#20242e40" transform="translate(1104 1198.584) rotate(0) scale(0.047999997)">
<use href="#path31" transform="translate(0 0)"/>
</g>
</g>
<g>
<g data-source-text="ï€" fill="#20242e40" transform="translate(1176 1198.584) rotate(0) scale(0.047999997)">
<use href="#path31" transform="translate(0 0)"/>
</g>
</g>
<g>
<g data-source-text="ï€" fill="#20242e40" transform="translate(1248 1198.584) rotate(0) scale(0.047999997)">
<use href="#path31" transform="translate(0 0)"/>
</g>
</g>
</svg>