<?xml version="1.0" encoding="UTF-8" standalone="no"?>
<svg height="216" viewBox="0 0 1296 216" width="1296" xmlns="http://www.w3.org/2000/svg">
<defs>
<path d="M 250 8 Q 223 8 196 3 Q 169 -2 145 -15 Q 121 -28 102.5 -48.5 Q 84 -69 72.5 -94 Q 61 -119 56.5 -146 Q 52 -173 52 -200 L 52 -535 Q 52 -562 56.5 -589 Q 61 -616 72.5 -641 Q 84 -666 102.5 -686.5 Q 121 -707 145 -720 Q 169 -733 196 -738 Q 223 -743 250 -743 Q 277 -743 304 -738 Q 331 -733 355 -720 Q 379 -707 397.5 -686.5 Q 416 -666 427.5 -641 Q 439 -616 443.5 -589 Q 448 -562 448 -535 L 448 -200 Q 448 -173 443.5 -146 Q 439 -119 427.5 -94 Q 416 -69 397.5 -48.5 Q 379 -28 355 -15 Q 331 -2 304 3 Q 277 8 250 8 Z M 152 -338 L 348 -493 L 348 -535 Q 348 -557 343 -579 Q 338 -601 325.5 -618.5 Q 313 -636 292.5 -645.5 Q 272 -655 250 -655 Q 228 -655 207.5 -645.5 Q 187 -636 174.5 -618.5 Q 162 -601 157 -579 Q 152 -557 152 -535 Z M 250 -80 Q 272 -80 292.5 -89.5 Q 313 -99 325.5 -116.5 Q 338 -134 343 -156 Q 348 -178 348 -200 L 348 -397 L 152 -242 L 152 -200 Q 152 -178 157 -156 Q 162 -134 174.5 -116.5 Q 187 -99 207.5 -89.5 Q 228 -80 250 -80 Z " id="path1"/>
<path d="M 230 0 L 230 -632 L 110 -528 L 55 -584 L 230 -735 L 330 -735 L 330 0 Z " id="path2"/>
<path d="M 60 0 L 60 -1 Q 60 -27 61 -54 Q 62 -81 65.5 -107 Q 69 -133 77 -158.5 Q 85 -184 96.5 -208 Q 108 -232 123 -253.5 Q 138 -275 156 -294.5 Q 174 -314 194 -331 Q 214 -348 235.5 -364 Q 257 -380 277.5 -397 Q 298 -414 313 -435.5 Q 328 -457 336 -483 Q 344 -509 344 -535 Q 344 -557 339.5 -578 Q 335 -599 323.5 -617 Q 312 -635 292 -645 Q 272 -655 251 -655 Q 231 -655 212.5 -647.5 Q 194 -640 181.5 -625 Q 169 -610 163.5 -591 Q 158 -572 158 -552 L 158 -548 L 58 -548 L 58 -555 Q 58 -581 63.5 -606 Q 69 -631 81 -653 Q 93 -675 111.5 -693 Q 130 -711 152.5 -722.5 Q 175 -734 200.5 -738.5 Q 226 -743 251 -743 Q 278 -743 304.5 -737.5 Q 331 -732 354.5 -719 Q 378 -706 396 -685.5 Q 414 -665 425 -640.5 Q 436 -616 440 -589 Q 444 -562 444 -535 Q 444 -501 435 -468 Q 426 -435 407.5 -406 Q 389 -377 364 -353.5 Q 339 -330 312.5 -308.5 Q 286 -287 261 -264 Q 236 -241 216 -213 Q 196 -185 183 -153.5 Q 170 -122 165 -88 L 440 -88 L 440 0 Z " id="path3"/>
<path d="M 253 8 Q 227 8 201 4 Q 175 -0 151 -11.5 Q 127 -23 107.5 -40.5 Q 88 -58 75.5 -81 Q 63 -104 56.5 -129.5 Q 50 -155 50 -181 L 50 -187 L 150 -187 L 150 -184 Q 150 -163 157 -143 Q 164 -123 178 -108 Q 192 -93 212 -86.5 Q 232 -80 253 -80 Q 275 -80 296 -88.5 Q 317 -97 330.5 -114.5 Q 344 -132 350 -154 Q 356 -176 356 -198 Q 356 -217 352 -235.5 Q 348 -254 339 -271 Q 330 -288 316.5 -301 Q 303 -314 286 -322 Q 269 -330 250 -332 Q 231 -334 212 -334 L 212 -422 Q 229 -422 246 -424 Q 263 -426 278.5 -433 Q 294 -440 306 -452.5 Q 318 -465 325.5 -480.5 Q 333 -496 336.5 -513 Q 340 -530 340 -547 Q 340 -566 335.5 -585.5 Q 331 -605 320 -621.5 Q 309 -638 291 -646.5 Q 273 -655 253 -655 Q 234 -655 216 -647 Q 198 -639 187 -624 Q 176 -609 171 -590 Q 166 -571 166 -553 L 166 -548 L 66 -548 L 66 -556 Q 66 -581 71.5 -605.5 Q 77 -630 88 -652 Q 99 -674 116.5 -692.5 Q 134 -711 156.5 -722.5 Q 179 -734 203.5 -738.5 Q 228 -743 253 -743 Q 278 -743 303.5 -738 Q 329 -733 351 -721 Q 373 -709 390.5 -690 Q 408 -671 419 -648 Q 430 -625 435 -600 Q 440 -575 440 -550 Q 440 -524 434 -498.5 Q 428 -473 416 -450.5 Q 404 -428 385 -409.5 Q 366 -391 343 -379 Q 370 -368 391.5 -348.5 Q 413 -329 427.5 -304.5 Q 442 -280 449 -252 Q 456 -224 456 -196 Q 456 -168 450 -141.5 Q 444 -115 432 -91 Q 420 -67 401 -47 Q 382 -27 358 -14.5 Q 334 -2 307 3 Q 280 8 253 8 Z " id="path4"/>
<path d="M 282 0 L 282 -188 L 52 -188 L 52 -275 L 276 -735 L 377 -735 L 152 -275 L 282 -275 L 282 -435 L 383 -435 L 383 -275 L 440 -275 L 440 -188 L 383 -188 L 383 0 Z " id="path5"/>
<path d="M 252 8 Q 227 8 202.5 3.5 Q 178 -1 155.5 -12 Q 133 -23 114.5 -41 Q 96 -59 84 -80.5 Q 72 -102 65.5 -126.5 Q 59 -151 58 -176 L 159 -176 Q 160 -158 166.5 -139.5 Q 173 -121 185.5 -107 Q 198 -93 216 -86.5 Q 234 -80 252 -80 Q 269 -80 285 -87 Q 301 -94 312.5 -107 Q 324 -120 330.5 -135.5 Q 337 -151 341 -167.5 Q 345 -184 346.5 -201 Q 348 -218 348 -235 Q 348 -252 346.5 -269 Q 345 -286 341.5 -302.5 Q 338 -319 331.5 -334.5 Q 325 -350 314.5 -363 Q 304 -376 288 -383.5 Q 272 -391 256 -391 Q 240 -391 224 -387 Q 208 -383 195.5 -373.5 Q 183 -364 176 -349.5 Q 169 -335 168 -319 L 68 -319 L 68 -735 L 421 -735 L 421 -647 L 168 -647 L 168 -464 Q 189 -472 211 -475 Q 233 -478 256 -478 Q 285 -478 313.5 -470.5 Q 342 -463 365.5 -445.5 Q 389 -428 405.5 -403 Q 422 -378 431.5 -350.5 Q 441 -323 444.5 -294 Q 448 -265 448 -235 Q 448 -206 444.5 -176.5 Q 441 -147 431 -119 Q 421 -91 404.5 -66.5 Q 388 -42 364 -24.5 Q 340 -7 311 0.5 Q 282 8 252 8 Z " id="path6"/>
<path d="M 250 8 Q 221 8 192.5 1.5 Q 164 -5 140 -21 Q 116 -37 98.5 -60.5 Q 81 -84 70.5 -111 Q 60 -138 56 -166.5 Q 52 -195 52 -224 Q 52 -268 59.5 -311 Q 67 -354 81 -395.5 Q 95 -437 113 -477 Q 131 -517 150 -556 L 238 -735 L 347 -735 L 240 -517 Q 228 -492 216 -467 Q 204 -442 194 -416 Q 212 -436 238.5 -446 Q 265 -456 292 -456 Q 318 -456 343.5 -447 Q 369 -438 387.5 -419.5 Q 406 -401 418 -377 Q 430 -353 436.5 -328 Q 443 -303 445.5 -276.5 Q 448 -250 448 -224 Q 448 -195 444 -166.5 Q 440 -138 429.5 -111 Q 419 -84 401.5 -60.5 Q 384 -37 360 -21 Q 336 -5 307.5 1.5 Q 279 8 250 8 Z M 250 -80 Q 266 -80 282 -85.5 Q 298 -91 309.5 -102.5 Q 321 -114 328.5 -129 Q 336 -144 340.5 -159.5 Q 345 -175 346.5 -191.5 Q 348 -208 348 -224 Q 348 -240 346.5 -256.5 Q 345 -273 340.5 -289 Q 336 -305 328.5 -319.5 Q 321 -334 309.5 -345.5 Q 298 -357 282 -362.5 Q 266 -368 250 -368 Q 235 -368 221 -363.5 Q 207 -359 195.5 -349.5 Q 184 -340 176 -327.5 Q 168 -315 163.5 -301 Q 159 -287 156.5 -272.5 Q 154 -258 153 -243 Q 153 -238 152.5 -233.5 Q 152 -229 152 -224 Q 152 -208 153.5 -191.5 Q 155 -175 159.5 -159.5 Q 164 -144 171.5 -129 Q 179 -114 190.5 -102.5 Q 202 -91 218 -85.5 Q 234 -80 250 -80 Z " id="path7"/>
<path d="M 138 0 L 336 -647 L 60 -647 L 60 -735 L 440 -735 L 440 -647 L 242 0 Z " id="path8"/>
<path d="M 250 8 Q 225 8 200 4 Q 175 -0 152 -10 Q 129 -20 109.5 -37 Q 90 -54 77.5 -75.5 Q 65 -97 58.5 -121.5 Q 52 -146 52 -172 Q 52 -203 61.5 -232.5 Q 71 -262 88 -288.5 Q 105 -315 127 -336.5 Q 149 -358 174 -378 Q 152 -396 132.5 -417 Q 113 -438 98.5 -462.5 Q 84 -487 76 -514.5 Q 68 -542 68 -570 Q 68 -594 73.5 -617.5 Q 79 -641 90.5 -661.5 Q 102 -682 119.5 -698.5 Q 137 -715 158 -725 Q 179 -735 202.5 -739 Q 226 -743 250 -743 Q 274 -743 297.5 -739 Q 321 -735 342 -725 Q 363 -715 380.5 -698.5 Q 398 -682 409.5 -661.5 Q 421 -641 426.5 -617.5 Q 432 -594 432 -570 Q 432 -542 424 -514.5 Q 416 -487 401.5 -462.5 Q 387 -438 367.5 -417 Q 348 -396 326 -378 Q 351 -358 373 -336.5 Q 395 -315 412 -288.5 Q 429 -262 438.5 -232.5 Q 448 -203 448 -172 Q 448 -146 441.5 -121.5 Q 435 -97 422.5 -75.5 Q 410 -54 390.5 -37 Q 371 -20 348 -10 Q 325 -0 300 4 Q 275 8 250 8 Z M 250 -434 Q 266 -447 280.5 -461.5 Q 295 -476 306.5 -493 Q 318 -510 325 -529.5 Q 332 -549 332 -569 Q 332 -586 327 -602.5 Q 322 -619 310.5 -631.5 Q 299 -644 283 -649.5 Q 267 -655 250 -655 Q 233 -655 217 -649.5 Q 201 -644 189.5 -631.5 Q 178 -619 173 -602.5 Q 168 -586 168 -569 Q 168 -549 175 -529.5 Q 182 -510 193.5 -493 Q 205 -476 219.5 -461.5 Q 234 -447 250 -434 Z M 250 -80 Q 269 -80 288 -85.5 Q 307 -91 320.5 -104 Q 334 -117 341 -135.5 Q 348 -154 348 -173 Q 348 -196 339.5 -217.5 Q 331 -239 317 -257.5 Q 303 -276 285.5 -291 Q 268 -306 250 -320 Q 232 -306 214.5 -291 Q 197 -276 183 -257.5 Q 169 -239 160.5 -217.5 Q 152 -196 152 -173 Q 152 -154 159 -135.5 Q 166 -117 179.5 -104 Q 193 -91 212 -85.5 Q 231 -80 250 -80 Z " id="path9"/>
<path d="M 262 0 L 153 0 L 260 -218 Q 272 -243 284 -268 Q 296 -293 306 -319 Q 288 -299 261.5 -289 Q 235 -279 208 -279 Q 182 -279 156.5 -288 Q 131 -297 112.5 -315.5 Q 94 -334 82 -358 Q 70 -382 63.5 -407 Q 57 -432 54.5 -458.5 Q 52 -485 52 -511 Q 52 -540 56 -568.5 Q 60 -597 70.5 -624 Q 81 -651 98.5 -674.5 Q 116 -698 140 -714 Q 164 -730 192.5 -736.5 Q 221 -743 250 -743 Q 279 -743 307.5 -736.5 Q 336 -730 360 -714 Q 384 -698 401.5 -674.5 Q 419 -651 429.5 -624 Q 440 -597 444 -568.5 Q 448 -540 448 -511 Q 448 -467 440.5 -424 Q 433 -381 419 -339.5 Q 405 -298 387 -258 Q 369 -218 350 -179 Z M 250 -367 Q 265 -367 279 -371.5 Q 293 -376 304.5 -385.5 Q 316 -395 324 -407.5 Q 332 -420 336.5 -434 Q 341 -448 343.5 -462.5 Q 346 -477 347 -492 Q 347 -497 347.5 -501.5 Q 348 -506 348 -511 Q 348 -527 346.5 -543.5 Q 345 -560 340.5 -575.5 Q 336 -591 328.5 -606 Q 321 -621 309.5 -632.5 Q 298 -644 282 -649.5 Q 266 -655 250 -655 Q 234 -655 218 -649.5 Q 202 -644 190.5 -632.5 Q 179 -621 171.5 -606 Q 164 -591 159.5 -575.5 Q 155 -560 153.5 -543.5 Q 152 -527 152 -511 Q 152 -495 153.5 -478.5 Q 155 -462 159.5 -446 Q 164 -430 171.5 -415.5 Q 179 -401 190.5 -389.5 Q 202 -378 218 -372.5 Q 234 -367 250 -367 Z " id="path10"/>
<path d="M 39 0 L 53 -70 L 192 -735 L 308 -735 L 461 0 L 359 0 L 326 -172 L 174 -172 L 141 0 Z M 310 -260 L 267 -490 Q 263 -513 258.5 -536 Q 254 -559 250 -582 Q 246 -559 241.5 -536 Q 237 -513 233 -490 L 190 -260 Z " id="path11"/>
<path d="M 60 0 L 60 -735 L 235 -735 Q 261 -735 287 -730.5 Q 313 -726 336.5 -714 Q 360 -702 378.5 -682.5 Q 397 -663 408.5 -639.5 Q 420 -616 424.5 -590 Q 429 -564 429 -538 Q 429 -515 425.5 -492 Q 422 -469 411.5 -448.5 Q 401 -428 384.5 -411 Q 368 -394 348 -383 Q 373 -373 394.5 -355.5 Q 416 -338 430.5 -314.5 Q 445 -291 450.5 -264 Q 456 -237 456 -210 Q 456 -181 450.5 -152.5 Q 445 -124 431 -98.5 Q 417 -73 395.5 -53.5 Q 374 -34 347.5 -21.5 Q 321 -9 292.5 -4.5 Q 264 -0 235 0 Z M 160 -424 L 235 -424 Q 256 -424 275.5 -432.5 Q 295 -441 307.5 -457.5 Q 320 -474 324.5 -494.5 Q 329 -515 329 -536 Q 329 -557 324.5 -577.5 Q 320 -598 307.5 -614.5 Q 295 -631 275.5 -639 Q 256 -647 235 -647 L 160 -647 Z M 160 -88 L 235 -88 Q 251 -88 267.5 -91 Q 284 -94 298.5 -101.5 Q 313 -109 324.5 -121 Q 336 -133 343 -148 Q 350 -163 353 -179 Q 356 -195 356 -212 Q 356 -228 353 -244.5 Q 350 -261 343 -276 Q 336 -291 324.5 -303 Q 313 -315 298.5 -322.5 Q 284 -330 267.5 -333 Q 251 -336 235 -336 L 160 -336 Z " id="path12"/>
<path d="M 247 8 Q 220 8 193 3 Q 166 -2 142.5 -15.5 Q 119 -29 101 -49.5 Q 83 -70 71.5 -94.5 Q 60 -119 56 -146 Q 52 -173 52 -200 L 52 -535 Q 52 -562 56 -589 Q 60 -616 71.5 -640.5 Q 83 -665 101 -685.5 Q 119 -706 142.5 -719.5 Q 166 -733 193 -738 Q 220 -743 247 -743 Q 273 -743 298 -738.5 Q 323 -734 346 -723 Q 369 -712 387.5 -694 Q 406 -676 418 -653.5 Q 430 -631 436 -606 Q 442 -581 442 -555 L 442 -548 L 342 -548 L 342 -552 Q 342 -572 336 -591.5 Q 330 -611 317.5 -626 Q 305 -641 286 -648 Q 267 -655 247 -655 Q 225 -655 205 -645.5 Q 185 -636 173 -618 Q 161 -600 156.5 -578.5 Q 152 -557 152 -535 L 152 -200 Q 152 -178 156.5 -156.5 Q 161 -135 173 -117 Q 185 -99 205 -89.5 Q 225 -80 247 -80 Q 267 -80 286 -87 Q 305 -94 317.5 -109 Q 330 -124 336 -143.5 Q 342 -163 342 -183 L 342 -187 L 442 -187 L 442 -180 Q 442 -154 436 -129 Q 430 -104 418 -81.5 Q 406 -59 387.5 -41 Q 369 -23 346 -12 Q 323 -1 298 3.5 Q 273 8 247 8 Z " id="path13"/>
<path d="M 60 0 L 60 -735 L 220 -735 Q 250 -735 280 -730 Q 310 -725 337 -712 Q 364 -699 386.5 -678.5 Q 409 -658 423 -631.5 Q 437 -605 442.5 -575 Q 448 -545 448 -515 L 448 -220 Q 448 -190 442.5 -160 Q 437 -130 423 -103.5 Q 409 -77 386.5 -56.5 Q 364 -36 337 -23 Q 310 -10 280 -5 Q 250 -0 220 0 Z M 160 -88 L 220 -88 Q 237 -88 254.5 -91 Q 272 -94 287.5 -102.5 Q 303 -111 315 -124 Q 327 -137 334.5 -152.5 Q 342 -168 345 -185.5 Q 348 -203 348 -220 L 348 -515 Q 348 -532 345 -549.5 Q 342 -567 334.5 -582.5 Q 327 -598 315 -611 Q 303 -624 287.5 -632.5 Q 272 -641 254.5 -644 Q 237 -647 220 -647 L 160 -647 Z " id="path14"/>
<path d="M 68 0 L 68 -735 L 440 -735 L 440 -647 L 168 -647 L 168 -426 L 383 -426 L 383 -338 L 168 -338 L 168 -88 L 440 -88 L 440 0 Z " id="path15"/>
<path d="M 90 0 L 90 -735 L 440 -735 L 440 -647 L 190 -647 L 190 -426 L 383 -426 L 383 -338 L 190 -338 L 190 0 Z " id="path16"/>
<path d="M 250 8 Q 223 8 196.5 2.5 Q 170 -3 147 -16.5 Q 124 -30 106.5 -50.5 Q 89 -71 78.5 -95.5 Q 68 -120 64 -146.5 Q 60 -173 60 -200 L 60 -735 L 160 -735 L 160 -200 Q 160 -186 161.5 -172 Q 163 -158 167.5 -144.5 Q 172 -131 179.5 -118.5 Q 187 -106 197.5 -97 Q 208 -88 222 -84 Q 236 -80 250 -80 Q 264 -80 278 -84 Q 292 -88 302.5 -97 Q 313 -106 320.5 -118.5 Q 328 -131 332.5 -144.5 Q 337 -158 338.5 -172 Q 340 -186 340 -200 L 340 -735 L 440 -735 L 440 -200 Q 440 -173 436 -146.5 Q 432 -120 421.5 -95.5 Q 411 -71 393.5 -50.5 Q 376 -30 353 -16.5 Q 330 -3 303.5 2.5 Q 277 8 250 8 Z " id="path17"/>
<path d="M 296 -142 L 204 -142 L 204 -300 L 60 -300 L 60 -380 L 204 -380 L 204 -538 L 296 -538 L 296 -380 L 440 -380 L 440 -300 L 296 -300 Z " id="path18"/>
<path d="M 250 -517 Q 244 -517 237.5 -519.5 Q 231 -522 226.5 -526.5 Q 222 -531 219.5 -537.5 Q 217 -544 217 -550 Q 217 -556 219.5 -562.5 Q 222 -569 226.5 -573.5 Q 231 -578 237.5 -580.5 Q 244 -583 250 -583 Q 256 -583 262.5 -580.5 Q 269 -578 273.5 -573.5 Q 278 -569 280.5 -562.5 Q 283 -556 283 -550 Q 283 -544 280.5 -537.5 Q 278 -531 273.5 -526.5 Q 269 -522 262.5 -519.5 Q 256 -517 250 -517 Z M 145 -489 Q 139 -489 132.5 -491.5 Q 126 -494 121.5 -498.5 Q 117 -503 114.5 -509 Q 112 -515 112 -522 Q 112 -528 114.5 -534 Q 117 -540 121.5 -545 Q 126 -550 132.5 -552.5 Q 139 -555 145 -555 Q 151 -555 157.5 -552.5 Q 164 -550 168.5 -545 Q 173 -540 175.5 -534 Q 178 -528 178 -522 Q 178 -515 175.5 -509 Q 173 -503 168.5 -498.5 Q 164 -494 157.5 -491.5 Q 151 -489 145 -489 Z M 355 -489 Q 349 -489 342.5 -491.5 Q 336 -494 331.5 -498.5 Q 327 -503 324.5 -509 Q 322 -515 322 -522 Q 322 -528 324.5 -534 Q 327 -540 331.5 -545 Q 336 -550 342.5 -552.5 Q 349 -555 355 -555 Q 361 -555 367.5 -552.5 Q 374 -550 378.5 -545 Q 383 -540 385.5 -534 Q 388 -528 388 -522 Q 388 -515 385.5 -509 Q 383 -503 378.5 -498.5 Q 374 -494 367.5 -491.5 Q 361 -489 355 -489 Z M 68 -412 Q 62 -412 56 -414.5 Q 50 -417 45 -421.5 Q 40 -426 37.5 -432.5 Q 35 -439 35 -445 Q 35 -451 37.5 -457.5 Q 40 -464 45 -468.5 Q 50 -473 56 -475.5 Q 62 -478 68 -478 Q 75 -478 81 -475.5 Q 87 -473 91.5 -468.5 Q 96 -464 98.5 -457.5 Q 101 -451 101 -445 Q 101 -439 98.5 -432.5 Q 96 -426 91.5 -421.5 Q 87 -417 81 -414.5 Q 75 -412 68 -412 Z M 432 -412 Q 425 -412 419 -414.5 Q 413 -417 408.5 -421.5 Q 404 -426 401.5 -432.5 Q 399 -439 399 -445 Q 399 -451 401.5 -457.5 Q 404 -464 408.5 -468.5 Q 413 -473 419 -475.5 Q 425 -478 432 -478 Q 438 -478 444 -475.5 Q 450 -473 455 -468.5 Q 460 -464 462.5 -457.5 Q 465 -451 465 -445 Q 465 -439 462.5 -432.5 Q 460 -426 455 -421.5 Q 450 -417 444 -414.5 Q 438 -412 432 -412 Z M 40 -307 Q 34 -307 27.5 -309.5 Q 21 -312 16.5 -316.5 Q 12 -321 9.5 -327.5 Q 7 -334 7 -340 Q 7 -346 9.5 -352.5 Q 12 -359 16.5 -363.5 Q 21 -368 27.5 -370.5 Q 34 -373 40 -373 Q 46 -373 52.5 -370.5 Q 59 -368 63.5 -363.5 Q 68 -359 70.5 -352.5 Q 73 -346 73 -340 Q 73 -334 70.5 -327.5 Q 68 -321 63.5 -316.5 Q 59 -312 52.5 -309.5 Q 46 -307 40 -307 Z M 460 -307 Q 454 -307 447.5 -309.5 Q 441 -312 436.5 -316.5 Q 432 -321 429.5 -327.5 Q 427 -334 427 -340 Q 427 -346 429.5 -352.5 Q 432 -359 436.5 -363.5 Q 441 -368 447.5 -370.5 Q 454 -373 460 -373 Q 466 -373 472.5 -370.5 Q 479 -368 483.5 -363.5 Q 488 -359 490.5 -352.5 Q 493 -346 493 -340 Q 493 -334 490.5 -327.5 Q 488 -321 483.5 -316.5 Q 479 -312 472.5 -309.5 Q 466 -307 460 -307 Z M 432 -202 Q 425 -202 419 -204.5 Q 413 -207 408.5 -211.5 Q 404 -216 401.5 -222.5 Q 399 -229 399 -235 Q 399 -241 401.5 -247.5 Q 404 -254 408.5 -258.5 Q 413 -263 419 -265.5 Q 425 -268 432 -268 Q 438 -268 444 -265.5 Q 450 -263 455 -258.5 Q 460 -254 462.5 -247.5 Q 465 -241 465 -235 Q 465 -229 462.5 -222.5 Q 460 -216 455 -211.5 Q 450 -207 444 -204.5 Q 438 -202 432 -202 Z M 68 -202 Q 62 -202 56 -204.5 Q 50 -207 45 -211.5 Q 40 -216 37.5 -222.5 Q 35 -229 35 -235 Q 35 -241 37.5 -247.5 Q 40 -254 45 -258.5 Q 50 -263 56 -265.5 Q 62 -268 68 -268 Q 75 -268 81 -265.5 Q 87 -263 91.5 -258.5 Q 96 -254 98.5 -247.5 Q 101 -241 101 -235 Q 101 -229 98.5 -222.5 Q 96 -216 91.5 -211.5 Q 87 -207 81 -204.5 Q 75 -202 68 -202 Z M 355 -125 Q 349 -125 342.5 -127.5 Q 336 -130 331.5 -135 Q 327 -140 324.5 -146 Q 322 -152 322 -158 Q 322 -165 324.5 -171 Q 327 -177 331.5 -181.5 Q 336 -186 342.5 -188.5 Q 349 -191 355 -191 Q 361 -191 367.5 -188.5 Q 374 -186 378.5 -181.5 Q 383 -177 385.5 -171 Q 388 -165 388 -158 Q 388 -152 385.5 -146 Q 383 -140 378.5 -135 Q 374 -130 367.5 -127.5 Q 361 -125 355 -125 Z M 145 -125 Q 139 -125 132.5 -127.5 Q 126 -130 121.5 -135 Q 117 -140 114.5 -146 Q 112 -152 112 -158 Q 112 -165 114.5 -171 Q 117 -177 121.5 -181.5 Q 126 -186 132.5 -188.5 Q 139 -191 145 -191 Q 151 -191 157.5 -188.5 Q 164 -186 168.5 -181.5 Q 173 -177 175.5 -171 Q 178 -165 178 -158 Q 178 -152 175.5 -146 Q 173 -140 168.5 -135 Q 164 -130 157.5 -127.5 Q 151 -125 145 -125 Z M 250 -97 Q 244 -97 237.5 -99.5 Q 231 -102 226.5 -106.5 Q 222 -111 219.5 -117.5 Q 217 -124 217 -130 Q 217 -136 219.5 -142.5 Q 222 -149 226.5 -153.5 Q 231 -158 237.5 -160.5 Q 244 -163 250 -163 Q 256 -163 262.5 -160.5 Q 269 -158 273.5 -153.5 Q 278 -149 280.5 -142.5 Q 283 -136 283 -130 Q 283 -124 280.5 -117.5 Q 278 -111 273.5 -106.5 Q 269 -102 262.5 -99.5 Q 256 -97 250 -97 Z " id="path19"/>
<path d="M 64 0 L 64 -735 L 436 -735 L 436 0 Z M 104 -333 L 394 -695 L 300 -695 L 104 -450 Z M 104 -489 L 269 -695 L 175 -695 L 104 -606 Z M 104 -645 L 144 -695 L 104 -695 Z M 104 -176 L 396 -543 L 396 -660 L 104 -294 Z M 104 -40 L 119 -40 L 396 -386 L 396 -504 L 104 -137 Z M 150 -40 L 244 -40 L 396 -230 L 396 -347 Z M 275 -40 L 369 -40 L 396 -74 L 396 -191 Z " id="path20"/>
<path d="M -250 -597 Q -266 -597 -281.5 -602 Q -297 -607 -307.5 -618 Q -318 -629 -323 -644.5 Q -328 -660 -328 -676 L -328 -773 Q -328 -791 -325 -809.5 Q -322 -828 -312 -843 Q -302 -858 -285 -866.5 Q -268 -875 -250 -878 Q -232 -881 -214 -884.5 Q -196 -888 -179 -894 L -179 -850 Q -189 -845 -200 -842 Q -211 -839 -222.5 -838 Q -234 -837 -245.5 -835 Q -257 -833 -266 -826 Q -275 -819 -279.5 -807.5 Q -284 -796 -284 -785 Q -284 -778 -283 -771 Q -282 -764 -281 -757 Q -278 -765 -274 -773.5 Q -270 -782 -263 -788 Q -256 -794 -247 -797 Q -238 -800 -229 -800 Q -215 -800 -203 -793 Q -191 -786 -184 -774 Q -177 -762 -174.5 -748.5 Q -172 -735 -172 -721 L -172 -676 Q -172 -660 -177 -644.5 Q -182 -629 -192.5 -618 Q -203 -607 -218.5 -602 Q -234 -597 -250 -597 Z M -250 -641 Q -244 -641 -237.5 -643.5 Q -231 -646 -227.5 -651 Q -224 -656 -222.5 -662.5 Q -221 -669 -221 -676 L -221 -721 Q -221 -728 -222.5 -734.5 Q -224 -741 -227.5 -746 Q -231 -751 -237.5 -753.5 Q -244 -756 -250 -756 Q -256 -756 -262.5 -753.5 Q -269 -751 -272.5 -746 Q -276 -741 -277.5 -734.5 Q -279 -728 -279 -721 L -279 -676 Q -279 -669 -277.5 -662.5 Q -276 -656 -272.5 -651 Q -269 -646 -262.5 -643.5 Q -256 -641 -250 -641 Z " id="path21"/>
<path d="M -324 -600 L -324 -808 L -249 -808 Q -236 -808 -223 -805 Q -210 -802 -200 -794 Q -190 -786 -185 -773.5 Q -180 -761 -180 -748 Q -180 -737 -184.5 -726 Q -189 -715 -199 -709 Q -192 -706 -186.5 -701.5 Q -181 -697 -176.5 -691 Q -172 -685 -170.5 -678 Q -169 -671 -169 -663 Q -169 -649 -175.5 -635.5 Q -182 -622 -194 -614 Q -206 -606 -220.5 -603 Q -235 -600 -249 -600 Z M -276 -729 L -249 -729 Q -241 -729 -234.5 -734 Q -228 -739 -228 -747 Q -228 -755 -235 -759.5 Q -242 -764 -249 -764 L -276 -764 Z M -276 -644 L -249 -644 Q -244 -644 -238.5 -644.5 Q -233 -645 -228.5 -647.5 Q -224 -650 -221 -654.5 Q -218 -659 -218 -664 Q -218 -670 -221 -674.5 Q -224 -679 -228.5 -681.5 Q -233 -684 -238.5 -684.5 Q -244 -685 -249 -685 L -276 -685 Z " id="path22"/>
<path d="M -312 -600 L -312 -808 L -173 -808 L -173 -764 L -263 -764 L -263 -600 Z " id="path23"/>
<path d="M -287 -600 L -336 -600 L -336 -703 L -324 -703 Q -315 -723 -312.5 -745 Q -310 -767 -310 -789 L -310 -867 L -182 -867 L -182 -703 L -164 -703 L -164 -600 L -213 -600 L -213 -659 L -287 -659 Z M -224 -703 L -224 -823 L -267 -823 L -267 -789 Q -267 -767 -269 -745 Q -271 -723 -279 -703 Z " id="path24"/>
<path d="M -155 -600 L -195 -600 L -221 -687 L -231 -687 L -231 -600 L -269 -600 L -269 -687 L -279 -687 L -305 -600 L -345 -600 L -314 -704 L -345 -808 L -305 -808 L -279 -721 L -269 -721 L -269 -808 L -231 -808 L -231 -721 L -221 -721 L -195 -808 L -155 -808 L -186 -704 Z " id="path25"/>
<path d="M -249 -597 Q -263 -597 -276.5 -599.5 Q -290 -602 -301.5 -609 Q -313 -616 -320.5 -628 Q -328 -640 -328 -653 L -328 -654 L -280 -654 Q -280 -649 -275.5 -646.5 Q -271 -644 -267 -642.5 Q -263 -641 -258 -641 Q -253 -641 -249 -641 Q -243 -641 -238 -642 Q -233 -643 -228 -645.5 Q -223 -648 -220.5 -653 Q -218 -658 -218 -664 Q -218 -669 -221 -674 Q -224 -679 -228.5 -681.5 Q -233 -684 -238.5 -685 Q -244 -686 -250 -686 L -272 -686 L -272 -730 L -250 -730 Q -246 -730 -241.5 -731 Q -237 -732 -233 -734 Q -229 -736 -226.5 -740 Q -224 -744 -224 -748 Q -224 -757 -232 -762 Q -240 -767 -249 -767 Q -253 -767 -256.5 -767 Q -260 -767 -264 -765.5 Q -268 -764 -270.5 -761 Q -273 -758 -273 -754 L -322 -754 L -322 -755 Q -322 -768 -315.5 -780 Q -309 -792 -298.5 -799 Q -288 -806 -275 -808.5 Q -262 -811 -249 -811 Q -235 -811 -221.5 -808 Q -208 -805 -197.5 -796.5 Q -187 -788 -181.5 -775.5 Q -176 -763 -176 -749 Q -176 -737 -181.5 -726 Q -187 -715 -197 -709 Q -191 -706 -185.5 -701.5 Q -180 -697 -176 -691 Q -172 -685 -170.5 -677.5 Q -169 -670 -169 -663 Q -169 -649 -175.5 -635 Q -182 -621 -193.5 -612 Q -205 -603 -219.5 -600 Q -234 -597 -249 -597 Z " id="path26"/>
<path d="M -318 -600 L -318 -808 L -270 -808 L -270 -726 L -257 -726 L -220 -808 L -168 -808 L -218 -704 L -168 -600 L -220 -600 L -257 -682 L -270 -682 L -270 -600 Z " id="path27"/>
<path d="M -344 -600 L -344 -644 Q -337 -644 -331 -646.5 Q -325 -649 -321.5 -654 Q -318 -659 -316.5 -665.5 Q -315 -672 -314.5 -678 Q -314 -684 -313.5 -690.5 Q -313 -697 -313 -703 L -313 -808 L -176 -808 L -176 -600 L -224 -600 L -224 -764 L -265 -764 L -265 -704 Q -265 -692 -265.5 -679 Q -266 -666 -268.5 -653.5 Q -271 -641 -277.5 -629.5 Q -284 -618 -294.5 -611 Q -305 -604 -318 -602 Q -331 -600 -344 -600 Z " id="path28"/>
<path d="M -335 -600 L -335 -808 L -278 -808 L -250 -674 L -222 -808 L -165 -808 L -165 -600 L -208 -600 L -208 -642 Q -208 -672 -205 -702 Q -202 -732 -200 -762 L -234 -600 L -266 -600 L -300 -762 Q -298 -732 -295 -702 Q -292 -672 -292 -642 L -292 -600 Z " id="path29"/>
<path d="M -324 -600 L -324 -808 L -276 -808 L -276 -728 L -224 -728 L -224 -808 L -176 -808 L -176 -600 L -224 -600 L -224 -685 L -276 -685 L -276 -600 Z " id="path30"/>
<path d="M -250 -597 Q -266 -597 -282 -602.5 Q -298 -608 -308.5 -620 Q -319 -632 -323.5 -648 Q -328 -664 -328 -680 L -328 -728 Q -328 -744 -323.5 -760 Q -319 -776 -308.5 -788 Q -298 -800 -282 -805.5 Q -266 -811 -250 -811 Q -234 -811 -218 -805.5 Q -202 -800 -191.5 -788 Q -181 -776 -176.5 -760 Q -172 -744 -172 -728 L -172 -680 Q -172 -664 -176.5 -648 Q -181 -632 -191.5 -620 Q -202 -608 -218 -602.5 Q -234 -597 -250 -597 Z M -250 -641 Q -243 -641 -237 -644 Q -231 -647 -227 -653 Q -223 -659 -222 -666 Q -221 -673 -221 -680 L -221 -728 Q -221 -735 -222 -742 Q -223 -749 -227 -755 Q -231 -761 -237 -764 Q -243 -767 -250 -767 Q -257 -767 -263 -764 Q -269 -761 -273 -755 Q -277 -749 -278 -742 Q -279 -735 -279 -728 L -279 -680 Q -279 -673 -278 -666 Q -277 -659 -273 -653 Q -269 -647 -263 -644 Q -257 -641 -250 -641 Z " id="path31"/>
<path d="M -324 -600 L -324 -808 L -176 -808 L -176 -600 L -224 -600 L -224 -764 L -276 -764 L -276 -600 Z " id="path32"/>
<path d="M -324 -600 L -324 -894 L -276 -894 L -276 -858 Q -273 -866 -268.5 -873.5 Q -264 -881 -258 -886.5 Q -252 -892 -244 -894.5 Q -236 -897 -227 -897 Q -213 -897 -201 -889 Q -189 -881 -183 -868.5 Q -177 -856 -174.5 -842 Q -172 -828 -172 -814 L -172 -766 Q -172 -752 -174.5 -738 Q -177 -724 -183 -711.5 Q -189 -699 -201 -691 Q -213 -683 -227 -683 Q -236 -683 -244 -685.5 Q -252 -688 -258 -693.5 Q -264 -699 -268.5 -706.5 Q -273 -714 -276 -722 L -276 -600 Z M -248 -727 Q -242 -727 -236 -730.5 Q -230 -734 -226.5 -740 Q -223 -746 -222 -752.5 Q -221 -759 -221 -766 L -221 -814 Q -221 -821 -222 -827.5 Q -223 -834 -226.5 -840 Q -230 -846 -236 -849.5 Q -242 -853 -248 -853 Q -255 -853 -261 -849.5 Q -267 -846 -270.5 -840 Q -274 -834 -275 -827.5 Q -276 -821 -276 -814 L -276 -766 Q -276 -759 -275 -752.5 Q -274 -746 -270.5 -740 Q -267 -734 -261 -730.5 Q -255 -727 -248 -727 Z " id="path33"/>
<path d="M -251 -597 Q -267 -597 -282.5 -602.5 Q -298 -608 -308.5 -620 Q -319 -632 -323.5 -648 Q -328 -664 -328 -680 L -328 -728 Q -328 -744 -323.5 -760 Q -319 -776 -308.5 -788 Q -298 -800 -282.5 -805.5 Q -267 -811 -251 -811 Q -236 -811 -221.5 -806.5 Q -207 -802 -196 -792 Q -185 -782 -180 -767.5 Q -175 -753 -175 -738 L -175 -736 L -223 -736 L -223 -737 Q -223 -743 -225 -748.5 Q -227 -754 -230.5 -758.5 Q -234 -763 -239.5 -765 Q -245 -767 -251 -767 Q -258 -767 -264 -763.5 Q -270 -760 -273.5 -754 Q -277 -748 -278 -741.5 Q -279 -735 -279 -728 L -279 -680 Q -279 -673 -278 -666.5 Q -277 -660 -273.5 -654 Q -270 -648 -264 -644.5 Q -258 -641 -251 -641 Q -245 -641 -239.5 -643 Q -234 -645 -230.5 -649.5 Q -227 -654 -225 -659.5 Q -223 -665 -223 -671 L -223 -672 L -175 -672 L -175 -670 Q -175 -655 -180 -640.5 Q -185 -626 -196 -616 Q -207 -606 -221.5 -601.5 Q -236 -597 -251 -597 Z " id="path34"/>
<path d="M -274 -600 L -274 -764 L -327 -764 L -327 -808 L -173 -808 L -173 -764 L -226 -764 L -226 -600 Z " id="path35"/>
<path d="M -331 -600 L -273 -704 L -331 -808 L -276 -808 L -250 -752 L -224 -808 L -169 -808 L -227 -704 L -169 -600 L -224 -600 L -250 -656 L -276 -600 Z " id="path36"/>
<path d="M -208 -600 L -208 -659 L -324 -659 L -324 -867 L -276 -867 L -276 -703 L -224 -703 L -224 -867 L -176 -867 L -176 -703 L -166 -703 L -166 -600 Z " id="path37"/>
<path d="M -224 -600 L -224 -660 Q -228 -659 -232 -658.5 Q -236 -658 -240 -658 Q -257 -658 -274 -661.5 Q -291 -665 -303.5 -676.5 Q -316 -688 -320 -705 Q -324 -722 -324 -739 L -324 -808 L -276 -808 L -276 -739 Q -276 -732 -274.5 -724.5 Q -273 -717 -267.5 -711.5 Q -262 -706 -255 -704 Q -248 -702 -240 -702 Q -236 -702 -232 -703.5 Q -228 -705 -224 -707 L -224 -808 L -176 -808 L -176 -600 Z " id="path38"/>
<path d="M -335 -600 L -335 -808 L -294 -808 L -294 -644 L -270 -644 L -270 -808 L -230 -808 L -230 -644 L -206 -644 L -206 -808 L -165 -808 L -165 -600 Z " id="path39"/>
<path d="M -189 -600 L -189 -659 L -335 -659 L -335 -867 L -294 -867 L -294 -703 L -270 -703 L -270 -867 L -230 -867 L -230 -703 L -206 -703 L -206 -867 L -165 -867 L -165 -703 L -151 -703 L -151 -600 Z " id="path40"/>
<path d="M -250 -597 Q -266 -597 -282 -602.5 Q -298 -608 -308.5 -620 Q -319 -632 -323.5 -648 Q -328 -664 -328 -680 L -328 -728 Q -328 -744 -323.5 -760 Q -319 -776 -308.5 -788 Q -298 -800 -282 -805.5 Q -266 -811 -250 -811 Q -234 -811 -218 -805.5 Q -202 -800 -191.5 -788 Q -181 -776 -176.5 -760 Q -172 -744 -172 -728 L -172 -680 Q -172 -664 -176.5 -648 Q -181 -632 -191.5 -620 Q -202 -608 -218 -602.5 Q -234 -597 -250 -597 Z M -225 -704 Q -224 -704 -223 -704 Q -222 -704 -221 -705 L -221 -728 Q -221 -735 -222 -742 Q -223 -749 -227 -755 Q -231 -761 -237 -764 Q -243 -767 -250 -767 Q -257 -767 -263 -764 Q -269 -761 -272.5 -755.5 Q -276 -750 -277.5 -743.5 Q -279 -737 -279 -730 L -275 -730 Q -268 -730 -260.5 -728 Q -253 -726 -247.5 -721.5 Q -242 -717 -237 -710.5 Q -232 -704 -225 -704 Z M -250 -641 Q -243 -641 -237 -644 Q -231 -647 -227.5 -652.5 Q -224 -658 -222.5 -664.5 Q -221 -671 -221 -678 L -225 -678 Q -232 -678 -239.5 -680 Q -247 -682 -252.5 -686.5 Q -258 -691 -263 -697.5 Q -268 -704 -275 -704 Q -276 -704 -277 -704 Q -278 -704 -279 -703 L -279 -680 Q -279 -673 -278 -666 Q -277 -659 -273 -653 Q -269 -647 -263 -644 Q -257 -641 -250 -641 Z " id="path41"/>
<path d="M -294 -597 Q -304 -597 -313.5 -600 Q -323 -603 -329.5 -610 Q -336 -617 -338.5 -626.5 Q -341 -636 -341 -646 L -341 -762 Q -341 -772 -338 -781 Q -335 -790 -328 -796.5 Q -321 -803 -311.5 -805.5 Q -302 -808 -293 -808 L -162 -808 L -162 -774 L -186 -774 L -186 -600 L -223 -600 L -223 -774 L -293 -774 Q -297 -774 -300.5 -770.5 Q -304 -767 -304 -762 L -304 -646 Q -304 -641 -302 -635.5 Q -300 -630 -294 -630 Q -291 -630 -289 -634 Q -287 -638 -286 -641.5 Q -285 -645 -284.5 -648.5 Q -284 -652 -284 -655.5 Q -284 -659 -283.5 -662.5 Q -283 -666 -283 -670 L -283 -672 L -246 -672 L -246 -668 Q -246 -656 -248 -644 Q -250 -632 -255.5 -621.5 Q -261 -611 -271.5 -604 Q -282 -597 -294 -597 Z " id="path42"/>
<path d="M -273 -597 Q -285 -597 -296 -601.5 Q -307 -606 -314.5 -615 Q -322 -624 -325 -635.5 Q -328 -647 -328 -658 Q -328 -674 -321.5 -689 Q -315 -704 -302.5 -713 Q -290 -722 -274 -725.5 Q -258 -729 -243 -729 L -224 -729 L -224 -745 Q -224 -750 -226 -754.5 Q -228 -759 -232 -762 Q -236 -765 -241 -766 Q -246 -767 -250 -767 Q -259 -767 -268 -763 Q -277 -759 -277 -750 L -325 -750 L -325 -752 Q -325 -765 -319 -777.5 Q -313 -790 -302 -798 Q -291 -806 -277.5 -808.5 Q -264 -811 -250 -811 Q -236 -811 -222 -807.5 Q -208 -804 -197 -795 Q -186 -786 -181 -772.5 Q -176 -759 -176 -745 L -176 -600 L -224 -600 L -224 -632 Q -227 -624 -231.5 -617.5 Q -236 -611 -242.5 -606 Q -249 -601 -257 -599 Q -265 -597 -273 -597 Z M -252 -641 Q -246 -641 -240 -643 Q -234 -645 -230.5 -649.5 Q -227 -654 -225.5 -660 Q -224 -666 -224 -672 L -224 -685 L -243 -685 Q -249 -685 -254.5 -684.5 Q -260 -684 -265.5 -681.5 Q -271 -679 -275 -674 Q -279 -669 -279 -663 Q -279 -658 -277 -653.5 Q -275 -649 -271 -646 Q -267 -643 -262 -642 Q -257 -641 -252 -641 Z " id="path43"/>
<path d="M -250 -597 Q -266 -597 -282 -602.5 Q -298 -608 -308.5 -620 Q -319 -632 -323.5 -648 Q -328 -664 -328 -680 L -328 -728 Q -328 -744 -323.5 -760 Q -319 -776 -308.5 -788 Q -298 -800 -282 -805.5 Q -266 -811 -250 -811 Q -234 -811 -218 -805.5 Q -202 -800 -191.5 -788 Q -181 -776 -176.5 -760 Q -172 -744 -172 -728 L -172 -682 L -279 -682 L -279 -680 Q -279 -673 -278 -666 Q -277 -659 -273 -653 Q -269 -647 -263 -644 Q -257 -641 -250 -641 Q -245 -641 -240.5 -641.5 Q -236 -642 -232 -644 Q -228 -646 -225 -649.5 Q -222 -653 -222 -658 L -173 -658 Q -173 -644 -179.5 -631.5 Q -186 -619 -197.5 -611 Q -209 -603 -222.5 -600 Q -236 -597 -250 -597 Z M -221 -726 L -221 -728 Q -221 -735 -222 -742 Q -223 -749 -227 -755 Q -231 -761 -237 -764 Q -243 -767 -250 -767 Q -257 -767 -263 -764 Q -269 -761 -273 -755 Q -277 -749 -278 -742 Q -279 -735 -279 -728 L -279 -726 Z " id="path44"/>
<path d="M -324 -600 L -324 -645 Q -324 -658 -322 -670.5 Q -320 -683 -313.5 -694 Q -307 -705 -297 -713.5 Q -287 -722 -274 -725 L -274 -750 L -303 -750 L -303 -782 L -274 -782 L -274 -808 L -226 -808 L -226 -782 L -198 -782 L -198 -750 L -226 -750 L -226 -725 Q -213 -722 -203 -713.5 Q -193 -705 -186.5 -694 Q -180 -683 -178 -670.5 Q -176 -658 -176 -645 L -176 -600 L -224 -600 L -224 -645 Q -224 -651 -225 -658 Q -226 -665 -229 -670.5 Q -232 -676 -237.5 -680 Q -243 -684 -250 -684 Q -257 -684 -262.5 -680 Q -268 -676 -271 -670.5 Q -274 -665 -275 -658 Q -276 -651 -276 -645 L -276 -600 Z " id="path45"/>
<path d="M -250 -597 Q -262 -597 -273 -600 Q -284 -603 -292.5 -611 Q -301 -619 -305 -630.5 Q -309 -642 -309 -653 Q -309 -664 -306 -675 Q -303 -686 -298 -695.5 Q -293 -705 -287 -714.5 Q -281 -724 -275 -733 Q -291 -761 -300.5 -793 Q -310 -825 -310 -857 L -267 -857 Q -267 -836 -262.5 -814.5 Q -258 -793 -249 -773 Q -234 -801 -226 -832 Q -218 -863 -218 -894 L -176 -894 Q -176 -851 -189.5 -810 Q -203 -769 -225 -733 Q -219 -723 -213 -714 Q -207 -705 -202 -695 Q -197 -685 -194 -674.5 Q -191 -664 -191 -653 Q -191 -642 -195 -630.5 Q -199 -619 -207.5 -611 Q -216 -603 -227 -600 Q -238 -597 -250 -597 Z M -250 -634 Q -242 -634 -237 -640 Q -232 -646 -232 -654 Q -232 -665 -238 -675 Q -244 -685 -250 -695 Q -256 -685 -262 -675 Q -268 -665 -268 -654 Q -268 -646 -263 -640 Q -258 -634 -250 -634 Z " id="path46"/>
<path d="M -295 -600 L -295 -791 L -340 -791 L -340 -823 L -295 -823 L -295 -894 L -246 -894 L -246 -823 L -200 -823 L -200 -791 L -246 -791 L -246 -736 L -230 -736 Q -217 -736 -204 -731.5 Q -191 -727 -182 -717.5 Q -173 -708 -169.5 -694.5 Q -166 -681 -166 -668 Q -166 -655 -169.5 -642 Q -173 -629 -182 -619 Q -191 -609 -204 -604.5 Q -217 -600 -230 -600 Z M -246 -644 L -230 -644 Q -222 -644 -218.5 -652 Q -215 -660 -215 -668 Q -215 -676 -218.5 -684 Q -222 -692 -230 -692 L -246 -692 Z " id="path47"/>
<path d="M -222 -597 Q -234 -597 -245.5 -600.5 Q -257 -604 -265 -612.5 Q -273 -621 -276 -632.5 Q -279 -644 -279 -656 L -279 -686 L -294 -686 L -294 -600 L -335 -600 L -335 -808 L -294 -808 L -294 -722 L -279 -722 L -279 -752 Q -279 -764 -276 -775.5 Q -273 -787 -265 -795.5 Q -257 -804 -245.5 -807.5 Q -234 -811 -222 -811 Q -210 -811 -199 -807.5 Q -188 -804 -180 -795.5 Q -172 -787 -168.5 -775.5 Q -165 -764 -165 -752 L -165 -656 Q -165 -644 -168.5 -632.5 Q -172 -621 -180 -612.5 Q -188 -604 -199 -600.5 Q -210 -597 -222 -597 Z M -222 -634 Q -214 -634 -210 -641 Q -206 -648 -206 -656 L -206 -752 Q -206 -760 -210 -767 Q -214 -774 -222 -774 Q -230 -774 -234 -767 Q -238 -760 -238 -752 L -238 -656 Q -238 -648 -234 -641 Q -230 -634 -222 -634 Z " id="path48"/>
<path d="M -241 -597 Q -251 -597 -259.5 -603 Q -268 -609 -272 -618.5 Q -276 -628 -277.5 -638 Q -279 -648 -279 -658 Q -279 -666 -278 -674.5 Q -277 -683 -274 -691 Q -275 -690 -275.5 -688.5 Q -276 -687 -277 -686 L -294 -686 L -294 -600 L -335 -600 L -335 -808 L -294 -808 L -294 -722 L -241 -722 Q -235 -725 -229 -725.5 Q -223 -726 -217 -726 L -209 -726 L -209 -761 Q -209 -767 -213 -770.5 Q -217 -774 -222 -774 Q -230 -774 -233 -766.5 Q -236 -759 -236 -751 L -236 -750 L -277 -750 L -277 -753 Q -277 -764 -273.5 -775 Q -270 -786 -262.5 -794.5 Q -255 -803 -244.5 -807 Q -234 -811 -222 -811 Q -212 -811 -201.5 -808.5 Q -191 -806 -183 -799 Q -175 -792 -171.5 -782 Q -168 -772 -168 -761 L -168 -600 L -209 -600 L -209 -626 Q -213 -615 -221.5 -606 Q -230 -597 -241 -597 Z M -224 -634 Q -218 -634 -215 -639.5 Q -212 -645 -211 -650 Q -210 -655 -209.5 -660.5 Q -209 -666 -209 -672 L -209 -689 L -217 -689 Q -222 -689 -226.5 -687 Q -231 -685 -233.5 -680.5 Q -236 -676 -237 -671 Q -238 -666 -238 -661 Q -238 -657 -237.5 -652.5 Q -237 -648 -235.5 -644 Q -234 -640 -231 -637 Q -228 -634 -224 -634 Z " id="path49"/>
<path d="M -341 -600 L -272 -808 L -228 -808 L -159 -600 L -199 -600 L -219 -669 L -231 -669 L -231 -600 L -269 -600 L -269 -669 L -281 -669 L -301 -600 Z M -271 -704 L -229 -704 L -239 -739 Q -242 -748 -244.5 -757.5 Q -247 -767 -250 -776 Q -253 -767 -255.5 -757.5 Q -258 -748 -261 -739 Z " id="path50"/>
<path d="M -341 -600 L -310 -714 L -289 -714 L -341 -808 L -159 -808 L -211 -714 L -190 -714 L -159 -600 L -197 -600 L -219 -680 L -231 -680 L -231 -600 L -269 -600 L -269 -680 L -281 -680 L -303 -600 Z M -250 -714 L -217 -773 L -283 -773 Z " id="path51"/>
<path d="M -341 -600 L -341 -808 L -309 -808 L -309 -714 L -257 -714 L -294 -808 L -155 -808 L -192 -714 L -180 -714 L -155 -600 L -187 -600 L -206 -685 L -208 -685 L -208 -600 L -241 -600 L -241 -685 L -243 -685 L -262 -600 L -294 -600 L -276 -685 L -309 -685 L -309 -600 Z M -225 -714 L -199 -779 L -250 -779 Z " id="path52"/>
</defs>
<g>
<g data-source-text="0" fill="#dee4e3" transform="translate(174 41.292) rotate(0) scale(0.023999998)">
<use href="#path1" transform="translate(0 0)"/>
</g>
</g>
<g>
<g data-source-text="1" fill="#dee4e3" transform="translate(246 41.292) rotate(0) scale(0.023999998)">
<use href="#path2" transform="translate(0 0)"/>
</g>
</g>
<g>
<g data-source-text="2" fill="#dee4e3" transform="translate(318 41.292) rotate(0) scale(0.023999998)">
<use href="#path3" transform="translate(0 0)"/>
</g>
</g>
<g>
<g data-source-text="3" fill="#dee4e3" transform="translate(390 41.292) rotate(0) scale(0.023999998)">
<use href="#path4" transform="translate(0 0)"/>
</g>
</g>
<g>
<g data-source-text="4" fill="#dee4e3" transform="translate(462 41.292) rotate(0) scale(0.023999998)">
<use href="#path5" transform="translate(0 0)"/>
</g>
</g>
<g>
<g data-source-text="5" fill="#dee4e3" transform="translate(534 41.292) rotate(0) scale(0.023999998)">
<use href="#path6" transform="translate(0 0)"/>
</g>
</g>
<g>
<g data-source-text="6" fill="#dee4e3" transform="translate(606 41.292) rotate(0) scale(0.023999998)">
<use href="#path7" transform="translate(0 0)"/>
</g>
</g>
<g>
<g data-source-text="7" fill="#dee4e3" transform="translate(678 41.292) rotate(0) scale(0.023999998)">
<use href="#path8" transform="translate(0 0)"/>
</g>
</g>
<g>
<g data-source-text="8" fill="#dee4e3" transform="translate(750 41.292) rotate(0) scale(0.023999998)">
<use href="#path9" transform="translate(0 0)"/>
</g>
</g>
<g>
<g data-source-text="9" fill="#dee4e3" transform="translate(822 41.292) rotate(0) scale(0.023999998)">
<use href="#path10" transform="translate(0 0)"/>
</g>
</g>
<g>
<g data-source-text="A" fill="#dee4e3" transform="translate(894 41.292) rotate(0) scale(0.023999998)">
<use href="#path11" transform="translate(0 0)"/>
</g>
</g>
<g>
<g data-source-text="B" fill="#dee4e3" transform="translate(966 41.292) rotate(0) scale(0.023999998)">
<use href="#path12" transform="translate(0 0)"/>
</g>
</g>
<g>
<g data-source-text="C" fill="#dee4e3" transform="translate(1038 41.292) rotate(0) scale(0.023999998)">
<use href="#path13" transform="translate(0 0)"/>
</g>
</g>
<g>
<g data-source-text="D" fill="#dee4e3" transform="translate(1110 41.292) rotate(0) scale(0.023999998)">
<use href="#path14" transform="translate(0 0)"/>
</g>
</g>
<g>
<g data-source-text="E" fill="#dee4e3" transform="translate(1182 41.292) rotate(0) scale(0.023999998)">
<use href="#path15" transform="translate(0 0)"/>
</g>
</g>
<g>
<g data-source-text="F" fill="#dee4e3" transform="translate(1254 41.292) rotate(0) scale(0.023999998)">
<use href="#path16" transform="translate(0 0)"/>
</g>
</g>
<g>
<g data-source-text="U+2DE0" fill="#dee4e3" transform="translate(36 113.292) rotate(0) scale(0.023999998)">
<use href="#path17" transform="translate(0 0)"/>
<use href="#path18" transform="translate(500 0)"/>
<use href="#path3" transform="translate(1000 0)"/>
<use href="#path14" transform="translate(1500 0)"/>
<use href="#path15" transform="translate(2000 0)"/>
<use href="#path1" transform="translate(2500 0)"/>
</g>
</g>
<g>
<g data-source-text="◌" fill="#03aee9" transform="translate(168 118.584) rotate(0) scale(0.047999997)">
<use href="#path19" transform="translate(0 0)"/>
</g>
</g>
<g>
<g data-source-text="" fill="#dee4e3" transform="translate(168 118.584) rotate(0) scale(0.047999997)">
<use href="#path20" transform="translate(0 0)"/>
</g>
<g data-source-text="ⷠ" fill="#dee4e3" transform="translate(192 118.584) rotate(0) scale(0.047999997)">
<use href="#path21" transform="translate(0 0)"/>
</g>
</g>
<g>
<g data-source-text="◌" fill="#03aee9" transform="translate(240 118.584) rotate(0) scale(0.047999997)">
<use href="#path19" transform="translate(0 0)"/>
</g>
</g>
<g>
<g data-source-text="" fill="#dee4e3" transform="translate(240 118.584) rotate(0) scale(0.047999997)">
<use href="#path20" transform="translate(0 0)"/>
</g>
<g data-source-text="ⷡ" fill="#dee4e3" transform="translate(264 118.584) rotate(0) scale(0.047999997)">
<use href="#path22" transform="translate(0 0)"/>
</g>
</g>
<g>
<g data-source-text="◌" fill="#03aee9" transform="translate(312 118.584) rotate(0) scale(0.047999997)">
<use href="#path19" transform="translate(0 0)"/>
</g>
</g>
<g>
<g data-source-text="" fill="#dee4e3" transform="translate(312 118.584) rotate(0) scale(0.047999997)">
<use href="#path20" transform="translate(0 0)"/>
</g>
<g data-source-text="ⷢ" fill="#dee4e3" transform="translate(336 118.584) rotate(0) scale(0.047999997)">
<use href="#path23" transform="translate(0 0)"/>
</g>
</g>
<g>
<g data-source-text="◌" fill="#03aee9" transform="translate(384 118.584) rotate(0) scale(0.047999997)">
<use href="#path19" transform="translate(0 0)"/>
</g>
</g>
<g>
<g data-source-text="" fill="#dee4e3" transform="translate(384 118.584) rotate(0) scale(0.047999997)">
<use href="#path20" transform="translate(0 0)"/>
</g>
<g data-source-text="ⷣ" fill="#dee4e3" transform="translate(408 118.584) rotate(0) scale(0.047999997)">
<use href="#path24" transform="translate(0 0)"/>
</g>
</g>
<g>
<g data-source-text="◌" fill="#03aee9" transform="translate(456 118.584) rotate(0) scale(0.047999997)">
<use href="#path19" transform="translate(0 0)"/>
</g>
</g>
<g>
<g data-source-text="" fill="#dee4e3" transform="translate(456 118.584) rotate(0) scale(0.047999997)">
<use href="#path20" transform="translate(0 0)"/>
</g>
<g data-source-text="ⷤ" fill="#dee4e3" transform="translate(480 118.584) rotate(0) scale(0.047999997)">
<use href="#path25" transform="translate(0 0)"/>
</g>
</g>
<g>
<g data-source-text="◌" fill="#03aee9" transform="translate(528 118.584) rotate(0) scale(0.047999997)">
<use href="#path19" transform="translate(0 0)"/>
</g>
</g>
<g>
<g data-source-text="" fill="#dee4e3" transform="translate(528 118.584) rotate(0) scale(0.047999997)">
<use href="#path20" transform="translate(0 0)"/>
</g>
<g data-source-text="ⷥ" fill="#dee4e3" transform="translate(552 118.584) rotate(0) scale(0.047999997)">
<use href="#path26" transform="translate(0 0)"/>
</g>
</g>
<g>
<g data-source-text="◌" fill="#03aee9" transform="translate(600 118.584) rotate(0) scale(0.047999997)">
<use href="#path19" transform="translate(0 0)"/>
</g>
</g>
<g>
<g data-source-text="" fill="#dee4e3" transform="translate(600 118.584) rotate(0) scale(0.047999997)">
<use href="#path20" transform="translate(0 0)"/>
</g>
<g data-source-text="ⷦ" fill="#dee4e3" transform="translate(624 118.584) rotate(0) scale(0.047999997)">
<use href="#path27" transform="translate(0 0)"/>
</g>
</g>
<g>
<g data-source-text="◌" fill="#03aee9" transform="translate(672 118.584) rotate(0) scale(0.047999997)">
<use href="#path19" transform="translate(0 0)"/>
</g>
</g>
<g>
<g data-source-text="" fill="#dee4e3" transform="translate(672 118.584) rotate(0) scale(0.047999997)">
<use href="#path20" transform="translate(0 0)"/>
</g>
<g data-source-text="ⷧ" fill="#dee4e3" transform="translate(696 118.584) rotate(0) scale(0.047999997)">
<use href="#path28" transform="translate(0 0)"/>
</g>
</g>
<g>
<g data-source-text="◌" fill="#03aee9" transform="translate(744 118.584) rotate(0) scale(0.047999997)">
<use href="#path19" transform="translate(0 0)"/>
</g>
</g>
<g>
<g data-source-text="" fill="#dee4e3" transform="translate(744 118.584) rotate(0) scale(0.047999997)">
<use href="#path20" transform="translate(0 0)"/>
</g>
<g data-source-text="ⷨ" fill="#dee4e3" transform="translate(768 118.584) rotate(0) scale(0.047999997)">
<use href="#path29" transform="translate(0 0)"/>
</g>
</g>
<g>
<g data-source-text="◌" fill="#03aee9" transform="translate(816 118.584) rotate(0) scale(0.047999997)">
<use href="#path19" transform="translate(0 0)"/>
</g>
</g>
<g>
<g data-source-text="" fill="#dee4e3" transform="translate(816 118.584) rotate(0) scale(0.047999997)">
<use href="#path20" transform="translate(0 0)"/>
</g>
<g data-source-text="ⷩ" fill="#dee4e3" transform="translate(840 118.584) rotate(0) scale(0.047999997)">
<use href="#path30" transform="translate(0 0)"/>
</g>
</g>
<g>
<g data-source-text="◌" fill="#03aee9" transform="translate(888 118.584) rotate(0) scale(0.047999997)">
<use href="#path19" transform="translate(0 0)"/>
</g>
</g>
<g>
<g data-source-text="" fill="#dee4e3" transform="translate(888 118.584) rotate(0) scale(0.047999997)">
<use href="#path20" transform="translate(0 0)"/>
</g>
<g data-source-text="ⷪ" fill="#dee4e3" transform="translate(912 118.584) rotate(0) scale(0.047999997)">
<use href="#path31" transform="translate(0 0)"/>
</g>
</g>
<g>
<g data-source-text="◌" fill="#03aee9" transform="translate(960 118.584) rotate(0) scale(0.047999997)">
<use href="#path19" transform="translate(0 0)"/>
</g>
</g>
<g>
<g data-source-text="" fill="#dee4e3" transform="translate(960 118.584) rotate(0) scale(0.047999997)">
<use href="#path20" transform="translate(0 0)"/>
</g>
<g data-source-text="ⷫ" fill="#dee4e3" transform="translate(984 118.584) rotate(0) scale(0.047999997)">
<use href="#path32" transform="translate(0 0)"/>
</g>
</g>
<g>
<g data-source-text="◌" fill="#03aee9" transform="translate(1032 118.584) rotate(0) scale(0.047999997)">
<use href="#path19" transform="translate(0 0)"/>
</g>
</g>
<g>
<g data-source-text="" fill="#dee4e3" transform="translate(1032 118.584) rotate(0) scale(0.047999997)">
<use href="#path20" transform="translate(0 0)"/>
</g>
<g data-source-text="ⷬ" fill="#dee4e3" transform="translate(1056 118.584) rotate(0) scale(0.047999997)">
<use href="#path33" transform="translate(0 0)"/>
</g>
</g>
<g>
<g data-source-text="◌" fill="#03aee9" transform="translate(1104 118.584) rotate(0) scale(0.047999997)">
<use href="#path19" transform="translate(0 0)"/>
</g>
</g>
<g>
<g data-source-text="" fill="#dee4e3" transform="translate(1104 118.584) rotate(0) scale(0.047999997)">
<use href="#path20" transform="translate(0 0)"/>
</g>
<g data-source-text="ⷭ" fill="#dee4e3" transform="translate(1128 118.584) rotate(0) scale(0.047999997)">
<use href="#path34" transform="translate(0 0)"/>
</g>
</g>
<g>
<g data-source-text="◌" fill="#03aee9" transform="translate(1176 118.584) rotate(0) scale(0.047999997)">
<use href="#path19" transform="translate(0 0)"/>
</g>
</g>
<g>
<g data-source-text="" fill="#dee4e3" transform="translate(1176 118.584) rotate(0) scale(0.047999997)">
<use href="#path20" transform="translate(0 0)"/>
</g>
<g data-source-text="ⷮ" fill="#dee4e3" transform="translate(1200 118.584) rotate(0) scale(0.047999997)">
<use href="#path35" transform="translate(0 0)"/>
</g>
</g>
<g>
<g data-source-text="◌" fill="#03aee9" transform="translate(1248 118.584) rotate(0) scale(0.047999997)">
<use href="#path19" transform="translate(0 0)"/>
</g>
</g>
<g>
<g data-source-text="" fill="#dee4e3" transform="translate(1248 118.584) rotate(0) scale(0.047999997)">
<use href="#path20" transform="translate(0 0)"/>
</g>
<g data-source-text="ⷯ" fill="#dee4e3" transform="translate(1272 118.584) rotate(0) scale(0.047999997)">
<use href="#path36" transform="translate(0 0)"/>
</g>
</g>
<g>
<g data-source-text="U+2DF0" fill="#dee4e3" transform="translate(36 185.292) rotate(0) scale(0.023999998)">
<use href="#path17" transform="translate(0 0)"/>
<use href="#path18" transform="translate(500 0)"/>
<use href="#path3" transform="translate(1000 0)"/>
<use href="#path14" transform="translate(1500 0)"/>
<use href="#path16" transform="translate(2000 0)"/>
<use href="#path1" transform="translate(2500 0)"/>
</g>
</g>
<g>
<g data-source-text="◌" fill="#03aee9" transform="translate(168 190.584) rotate(0) scale(0.047999997)">
<use href="#path19" transform="translate(0 0)"/>
</g>
</g>
<g>
<g data-source-text="" fill="#dee4e3" transform="translate(168 190.584) rotate(0) scale(0.047999997)">
<use href="#path20" transform="translate(0 0)"/>
</g>
<g data-source-text="ⷰ" fill="#dee4e3" transform="translate(192 190.584) rotate(0) scale(0.047999997)">
<use href="#path37" transform="translate(0 0)"/>
</g>
</g>
<g>
<g data-source-text="◌" fill="#03aee9" transform="translate(240 190.584) rotate(0) scale(0.047999997)">
<use href="#path19" transform="translate(0 0)"/>
</g>
</g>
<g>
<g data-source-text="" fill="#dee4e3" transform="translate(240 190.584) rotate(0) scale(0.047999997)">
<use href="#path20" transform="translate(0 0)"/>
</g>
<g data-source-text="ⷱ" fill="#dee4e3" transform="translate(264 190.584) rotate(0) scale(0.047999997)">
<use href="#path38" transform="translate(0 0)"/>
</g>
</g>
<g>
<g data-source-text="◌" fill="#03aee9" transform="translate(312 190.584) rotate(0) scale(0.047999997)">
<use href="#path19" transform="translate(0 0)"/>
</g>
</g>
<g>
<g data-source-text="" fill="#dee4e3" transform="translate(312 190.584) rotate(0) scale(0.047999997)">
<use href="#path20" transform="translate(0 0)"/>
</g>
<g data-source-text="ⷲ" fill="#dee4e3" transform="translate(336 190.584) rotate(0) scale(0.047999997)">
<use href="#path39" transform="translate(0 0)"/>
</g>
</g>
<g>
<g data-source-text="◌" fill="#03aee9" transform="translate(384 190.584) rotate(0) scale(0.047999997)">
<use href="#path19" transform="translate(0 0)"/>
</g>
</g>
<g>
<g data-source-text="" fill="#dee4e3" transform="translate(384 190.584) rotate(0) scale(0.047999997)">
<use href="#path20" transform="translate(0 0)"/>
</g>
<g data-source-text="ⷳ" fill="#dee4e3" transform="translate(408 190.584) rotate(0) scale(0.047999997)">
<use href="#path40" transform="translate(0 0)"/>
</g>
</g>
<g>
<g data-source-text="◌" fill="#03aee9" transform="translate(456 190.584) rotate(0) scale(0.047999997)">
<use href="#path19" transform="translate(0 0)"/>
</g>
</g>
<g>
<g data-source-text="" fill="#dee4e3" transform="translate(456 190.584) rotate(0) scale(0.047999997)">
<use href="#path20" transform="translate(0 0)"/>
</g>
<g data-source-text="ⷴ" fill="#dee4e3" transform="translate(480 190.584) rotate(0) scale(0.047999997)">
<use href="#path41" transform="translate(0 0)"/>
</g>
</g>
<g>
<g data-source-text="◌" fill="#03aee9" transform="translate(528 190.584) rotate(0) scale(0.047999997)">
<use href="#path19" transform="translate(0 0)"/>
</g>
</g>
<g>
<g data-source-text="" fill="#dee4e3" transform="translate(528 190.584) rotate(0) scale(0.047999997)">
<use href="#path20" transform="translate(0 0)"/>
</g>
<g data-source-text="ⷵ" fill="#dee4e3" transform="translate(552 190.584) rotate(0) scale(0.047999997)">
<use href="#path42" transform="translate(0 0)"/>
</g>
</g>
<g>
<g data-source-text="◌" fill="#03aee9" transform="translate(600 190.584) rotate(0) scale(0.047999997)">
<use href="#path19" transform="translate(0 0)"/>
</g>
</g>
<g>
<g data-source-text="" fill="#dee4e3" transform="translate(600 190.584) rotate(0) scale(0.047999997)">
<use href="#path20" transform="translate(0 0)"/>
</g>
<g data-source-text="ⷶ" fill="#dee4e3" transform="translate(624 190.584) rotate(0) scale(0.047999997)">
<use href="#path43" transform="translate(0 0)"/>
</g>
</g>
<g>
<g data-source-text="◌" fill="#03aee9" transform="translate(672 190.584) rotate(0) scale(0.047999997)">
<use href="#path19" transform="translate(0 0)"/>
</g>
</g>
<g>
<g data-source-text="" fill="#dee4e3" transform="translate(672 190.584) rotate(0) scale(0.047999997)">
<use href="#path20" transform="translate(0 0)"/>
</g>
<g data-source-text="ⷷ" fill="#dee4e3" transform="translate(696 190.584) rotate(0) scale(0.047999997)">
<use href="#path44" transform="translate(0 0)"/>
</g>
</g>
<g>
<g data-source-text="◌" fill="#03aee9" transform="translate(744 190.584) rotate(0) scale(0.047999997)">
<use href="#path19" transform="translate(0 0)"/>
</g>
</g>
<g>
<g data-source-text="" fill="#dee4e3" transform="translate(744 190.584) rotate(0) scale(0.047999997)">
<use href="#path20" transform="translate(0 0)"/>
</g>
<g data-source-text="ⷸ" fill="#dee4e3" transform="translate(768 190.584) rotate(0) scale(0.047999997)">
<use href="#path45" transform="translate(0 0)"/>
</g>
</g>
<g>
<g data-source-text="◌" fill="#03aee9" transform="translate(816 190.584) rotate(0) scale(0.047999997)">
<use href="#path19" transform="translate(0 0)"/>
</g>
</g>
<g>
<g data-source-text="" fill="#dee4e3" transform="translate(816 190.584) rotate(0) scale(0.047999997)">
<use href="#path20" transform="translate(0 0)"/>
</g>
<g data-source-text="ⷹ" fill="#dee4e3" transform="translate(840 190.584) rotate(0) scale(0.047999997)">
<use href="#path46" transform="translate(0 0)"/>
</g>
</g>
<g>
<g data-source-text="◌" fill="#03aee9" transform="translate(888 190.584) rotate(0) scale(0.047999997)">
<use href="#path19" transform="translate(0 0)"/>
</g>
</g>
<g>
<g data-source-text="" fill="#dee4e3" transform="translate(888 190.584) rotate(0) scale(0.047999997)">
<use href="#path20" transform="translate(0 0)"/>
</g>
<g data-source-text="ⷺ" fill="#dee4e3" transform="translate(912 190.584) rotate(0) scale(0.047999997)">
<use href="#path47" transform="translate(0 0)"/>
</g>
</g>
<g>
<g data-source-text="◌" fill="#03aee9" transform="translate(960 190.584) rotate(0) scale(0.047999997)">
<use href="#path19" transform="translate(0 0)"/>
</g>
</g>
<g>
<g data-source-text="" fill="#dee4e3" transform="translate(960 190.584) rotate(0) scale(0.047999997)">
<use href="#path20" transform="translate(0 0)"/>
</g>
<g data-source-text="ⷻ" fill="#dee4e3" transform="translate(984 190.584) rotate(0) scale(0.047999997)">
<use href="#path48" transform="translate(0 0)"/>
</g>
</g>
<g>
<g data-source-text="◌" fill="#03aee9" transform="translate(1032 190.584) rotate(0) scale(0.047999997)">
<use href="#path19" transform="translate(0 0)"/>
</g>
</g>
<g>
<g data-source-text="" fill="#dee4e3" transform="translate(1032 190.584) rotate(0) scale(0.047999997)">
<use href="#path20" transform="translate(0 0)"/>
</g>
<g data-source-text="ⷼ" fill="#dee4e3" transform="translate(1056 190.584) rotate(0) scale(0.047999997)">
<use href="#path49" transform="translate(0 0)"/>
</g>
</g>
<g>
<g data-source-text="◌" fill="#03aee9" transform="translate(1104 190.584) rotate(0) scale(0.047999997)">
<use href="#path19" transform="translate(0 0)"/>
</g>
</g>
<g>
<g data-source-text="" fill="#dee4e3" transform="translate(1104 190.584) rotate(0) scale(0.047999997)">
<use href="#path20" transform="translate(0 0)"/>
</g>
<g data-source-text="ⷽ" fill="#dee4e3" transform="translate(1128 190.584) rotate(0) scale(0.047999997)">
<use href="#path50" transform="translate(0 0)"/>
</g>
</g>
<g>
<g data-source-text="◌" fill="#03aee9" transform="translate(1176 190.584) rotate(0) scale(0.047999997)">
<use href="#path19" transform="translate(0 0)"/>
</g>
</g>
<g>
<g data-source-text="" fill="#dee4e3" transform="translate(1176 190.584) rotate(0) scale(0.047999997)">
<use href="#path20" transform="translate(0 0)"/>
</g>
<g data-source-text="ⷾ" fill="#dee4e3" transform="translate(1200 190.584) rotate(0) scale(0.047999997)">
<use href="#path51" transform="translate(0 0)"/>
</g>
</g>
<g>
<g data-source-text="◌" fill="#03aee9" transform="translate(1248 190.584) rotate(0) scale(0.047999997)">
<use href="#path19" transform="translate(0 0)"/>
</g>
</g>
<g>
<g data-source-text="" fill="#dee4e3" transform="translate(1248 190.584) rotate(0) scale(0.047999997)">
<use href="#path20" transform="translate(0 0)"/>
</g>
<g data-source-text="ⷿ" fill="#dee4e3" transform="translate(1272 190.584) rotate(0) scale(0.047999997)">
<use href="#path52" transform="translate(0 0)"/>
</g>
</g>
</svg>