<?xml version="1.0" encoding="UTF-8" standalone="no"?>
<svg height="504" viewBox="0 0 1296 504" width="1296" xmlns="http://www.w3.org/2000/svg">
<defs>
<path d="M 250 8 Q 223 8 196 3 Q 169 -2 145 -15 Q 121 -28 102.5 -48.5 Q 84 -69 72.5 -94 Q 61 -119 56.5 -146 Q 52 -173 52 -200 L 52 -535 Q 52 -562 56.5 -589 Q 61 -616 72.5 -641 Q 84 -666 102.5 -686.5 Q 121 -707 145 -720 Q 169 -733 196 -738 Q 223 -743 250 -743 Q 277 -743 304 -738 Q 331 -733 355 -720 Q 379 -707 397.5 -686.5 Q 416 -666 427.5 -641 Q 439 -616 443.5 -589 Q 448 -562 448 -535 L 448 -200 Q 448 -173 443.5 -146 Q 439 -119 427.5 -94 Q 416 -69 397.5 -48.5 Q 379 -28 355 -15 Q 331 -2 304 3 Q 277 8 250 8 Z M 153 -337 L 347 -491 L 347 -535 Q 347 -557 342.5 -578.5 Q 338 -600 325.5 -618 Q 313 -636 292.5 -645.5 Q 272 -655 250 -655 Q 228 -655 207.5 -645.5 Q 187 -636 174.5 -618 Q 162 -600 157.5 -578.5 Q 153 -557 153 -535 Z M 250 -80 Q 272 -80 292.5 -89.5 Q 313 -99 325.5 -117 Q 338 -135 342.5 -156.5 Q 347 -178 347 -200 L 347 -398 L 153 -244 L 153 -200 Q 153 -178 157.5 -156.5 Q 162 -135 174.5 -117 Q 187 -99 207.5 -89.5 Q 228 -80 250 -80 Z " id="path1"/>
<path d="M 230 0 L 230 -637 L 107 -542 L 55 -600 L 230 -735 L 330 -735 L 330 0 Z " id="path2"/>
<path d="M 60 0 L 60 -1 Q 60 -27 61 -53.5 Q 62 -80 66 -106.5 Q 70 -133 77.5 -158.5 Q 85 -184 96.5 -207.5 Q 108 -231 123 -253 Q 138 -275 156 -294.5 Q 174 -314 194 -331 Q 214 -348 235.5 -364 Q 257 -380 277.5 -397 Q 298 -414 313 -435.5 Q 328 -457 335.5 -483 Q 343 -509 343 -535 Q 343 -557 339 -578 Q 335 -599 323.5 -617 Q 312 -635 292 -645 Q 272 -655 251 -655 Q 231 -655 213 -648 Q 195 -641 182.5 -626.5 Q 170 -612 164.5 -593 Q 159 -574 159 -555 L 159 -554 L 58 -554 L 58 -556 Q 58 -581 64 -606 Q 70 -631 82 -653.5 Q 94 -676 112 -694 Q 130 -712 152.5 -723 Q 175 -734 200 -738.5 Q 225 -743 251 -743 Q 278 -743 304.5 -737.5 Q 331 -732 354 -719 Q 377 -706 395 -685.5 Q 413 -665 424 -640.5 Q 435 -616 439.5 -589 Q 444 -562 444 -535 Q 444 -501 435 -468 Q 426 -435 407.5 -406 Q 389 -377 364 -353.5 Q 339 -330 312.5 -308.5 Q 286 -287 261 -264 Q 236 -241 216.5 -213 Q 197 -185 184 -153.5 Q 171 -122 166 -88 L 440 -88 L 440 0 Z " id="path3"/>
<path d="M 252 8 Q 226 8 200 3.5 Q 174 -1 150.5 -12 Q 127 -23 107.5 -41 Q 88 -59 75.5 -82 Q 63 -105 56.5 -130.5 Q 50 -156 50 -183 L 151 -183 Q 151 -162 157.5 -142.5 Q 164 -123 178 -108 Q 192 -93 212 -86.5 Q 232 -80 252 -80 Q 275 -80 296 -88.5 Q 317 -97 330.5 -114.5 Q 344 -132 349.5 -154 Q 355 -176 355 -198 Q 355 -217 351 -235.5 Q 347 -254 338.5 -271 Q 330 -288 316.5 -301 Q 303 -314 286 -322 Q 269 -330 250 -332 Q 231 -334 212 -334 L 212 -422 Q 229 -422 246 -424 Q 263 -426 278.5 -433 Q 294 -440 306 -452.5 Q 318 -465 325.5 -480.5 Q 333 -496 336 -512.5 Q 339 -529 339 -546 Q 339 -566 334.5 -585.5 Q 330 -605 319.5 -621 Q 309 -637 290.5 -646 Q 272 -655 253 -655 Q 234 -655 216.5 -647.5 Q 199 -640 188 -625.5 Q 177 -611 172 -593 Q 167 -575 167 -556 L 167 -555 L 66 -555 L 66 -558 Q 66 -582 71.5 -606.5 Q 77 -631 88.5 -653 Q 100 -675 117.5 -693 Q 135 -711 157 -722.5 Q 179 -734 203.5 -738.5 Q 228 -743 253 -743 Q 278 -743 303 -738 Q 328 -733 350.5 -721 Q 373 -709 390 -690 Q 407 -671 418 -648 Q 429 -625 434.5 -600 Q 440 -575 440 -549 Q 440 -524 434 -498.5 Q 428 -473 415.5 -450.5 Q 403 -428 384.5 -409.5 Q 366 -391 343 -379 Q 369 -368 391 -348.5 Q 413 -329 427.5 -304.5 Q 442 -280 449 -252 Q 456 -224 456 -196 Q 456 -168 450 -141.5 Q 444 -115 432 -91 Q 420 -67 400.5 -47 Q 381 -27 357 -14.5 Q 333 -2 306.5 3 Q 280 8 252 8 Z " id="path4"/>
<path d="M 282 0 L 282 -188 L 52 -188 L 52 -275 L 276 -735 L 385 -735 L 161 -275 L 282 -275 L 282 -435 L 382 -435 L 382 -275 L 440 -275 L 440 -188 L 382 -188 L 382 0 Z " id="path5"/>
<path d="M 252 8 Q 227 8 202.5 3.5 Q 178 -1 156.5 -12.5 Q 135 -24 117.5 -42 Q 100 -60 88 -81 Q 76 -102 69 -126 Q 62 -150 60 -174 L 60 -176 L 160 -176 L 161 -172 Q 164 -154 170.5 -137 Q 177 -120 188.5 -107 Q 200 -94 217 -87 Q 234 -80 252 -80 Q 269 -80 285 -87 Q 301 -94 312 -106.5 Q 323 -119 330 -135 Q 337 -151 340.5 -167.5 Q 344 -184 345.5 -201 Q 347 -218 347 -235 Q 347 -252 345.5 -269 Q 344 -286 340.5 -302.5 Q 337 -319 330.5 -334.5 Q 324 -350 313.5 -363 Q 303 -376 287 -383.5 Q 271 -391 254 -391 Q 236 -391 219.5 -384 Q 203 -377 191.5 -363 Q 180 -349 174.5 -331.5 Q 169 -314 168 -296 L 68 -296 L 68 -735 L 421 -735 L 421 -647 L 168 -647 L 168 -462 Q 188 -471 210 -474.5 Q 232 -478 254 -478 Q 284 -478 312.5 -470.5 Q 341 -463 364.5 -445.5 Q 388 -428 404.5 -403.5 Q 421 -379 430.5 -351 Q 440 -323 444 -294 Q 448 -265 448 -235 Q 447 -206 443.5 -176.5 Q 440 -147 430.5 -119 Q 421 -91 404 -66.5 Q 387 -42 363 -24.5 Q 339 -7 310 0.5 Q 281 8 252 8 Z " id="path6"/>
<path d="M 250 8 Q 219 8 189 -0.5 Q 159 -9 135 -28 Q 111 -47 94.5 -73.5 Q 78 -100 68.5 -129 Q 59 -158 55.5 -189 Q 52 -220 52 -250 Q 52 -291 60 -331 Q 68 -371 82 -409 Q 96 -447 114 -483.5 Q 132 -520 150 -556 L 238 -735 L 347 -735 L 240 -517 Q 232 -500 223 -483.5 Q 214 -467 205 -451 Q 217 -454 229 -455 Q 241 -456 253 -456 Q 281 -456 309.5 -449 Q 338 -442 361.5 -426 Q 385 -410 402.5 -386.5 Q 420 -363 430 -336.5 Q 440 -310 444 -281.5 Q 448 -253 448 -224 Q 448 -195 444 -166.5 Q 440 -138 429.5 -111 Q 419 -84 401.5 -60.5 Q 384 -37 360 -21 Q 336 -5 307.5 1.5 Q 279 8 250 8 Z M 250 -80 Q 266 -80 282 -85.5 Q 298 -91 309.5 -102.5 Q 321 -114 328.5 -129 Q 336 -144 340 -159.5 Q 344 -175 345.5 -191.5 Q 347 -208 347 -224 Q 347 -240 345.5 -256.5 Q 344 -273 340 -288.5 Q 336 -304 328.5 -319 Q 321 -334 309.5 -345.5 Q 298 -357 282.5 -362.5 Q 267 -368 251 -368 Q 234 -368 218.5 -362.5 Q 203 -357 191.5 -345.5 Q 180 -334 172 -319.5 Q 164 -305 160 -289 Q 156 -273 154.5 -256.5 Q 153 -240 153 -224 Q 153 -208 154.5 -191.5 Q 156 -175 160 -159.5 Q 164 -144 171.5 -129 Q 179 -114 190.5 -102.5 Q 202 -91 218 -85.5 Q 234 -80 250 -80 Z " id="path7"/>
<path d="M 138 0 L 336 -647 L 60 -647 L 60 -735 L 440 -735 L 440 -647 L 242 0 Z " id="path8"/>
<path d="M 250 8 Q 225 8 200 4 Q 175 -0 152 -10 Q 129 -20 110 -37 Q 91 -54 78 -75.5 Q 65 -97 58.5 -121.5 Q 52 -146 52 -171 Q 52 -202 62 -232 Q 72 -262 88.5 -288 Q 105 -314 127 -336 Q 149 -358 174 -378 Q 152 -396 132.5 -417 Q 113 -438 98.5 -462.5 Q 84 -487 76 -514.5 Q 68 -542 68 -571 Q 68 -594 73.5 -617.5 Q 79 -641 90.5 -661.5 Q 102 -682 119.5 -698.5 Q 137 -715 158 -725 Q 179 -735 202.5 -739 Q 226 -743 250 -743 Q 274 -743 297.5 -739 Q 321 -735 342 -725 Q 363 -715 380.5 -698.5 Q 398 -682 409.5 -661.5 Q 421 -641 426.5 -617.5 Q 432 -594 432 -571 Q 432 -542 424 -514.5 Q 416 -487 401.5 -462.5 Q 387 -438 367.5 -417 Q 348 -396 326 -378 Q 351 -358 373 -336 Q 395 -314 411.5 -288 Q 428 -262 438 -232 Q 448 -202 448 -171 Q 448 -146 441.5 -121.5 Q 435 -97 422 -75.5 Q 409 -54 390 -37 Q 371 -20 348 -10 Q 325 -0 300 4 Q 275 8 250 8 Z M 250 -435 Q 266 -447 280.5 -461.5 Q 295 -476 306.5 -493 Q 318 -510 325 -529.5 Q 332 -549 332 -569 Q 332 -586 326.5 -602.5 Q 321 -619 310 -631.5 Q 299 -644 283 -649.5 Q 267 -655 250 -655 Q 233 -655 217 -649.5 Q 201 -644 190 -631.5 Q 179 -619 173.5 -602.5 Q 168 -586 168 -569 Q 168 -549 175 -529.5 Q 182 -510 193.5 -493 Q 205 -476 219.5 -461.5 Q 234 -447 250 -435 Z M 250 -80 Q 269 -80 287.5 -85.5 Q 306 -91 320 -104 Q 334 -117 340.5 -135.5 Q 347 -154 347 -173 Q 347 -196 338.5 -217.5 Q 330 -239 316.5 -257.5 Q 303 -276 285.5 -291 Q 268 -306 250 -320 Q 232 -306 214.5 -291 Q 197 -276 183.5 -257.5 Q 170 -239 161.5 -217.5 Q 153 -196 153 -173 Q 153 -154 159.5 -135.5 Q 166 -117 180 -104 Q 194 -91 212.5 -85.5 Q 231 -80 250 -80 Z " id="path9"/>
<path d="M 262 0 L 153 0 L 260 -218 Q 268 -235 277 -251.5 Q 286 -268 295 -284 Q 283 -281 271 -280 Q 259 -279 247 -279 Q 219 -279 190.5 -286 Q 162 -293 138.5 -309 Q 115 -325 97.5 -348.5 Q 80 -372 70 -398.5 Q 60 -425 56 -453.5 Q 52 -482 52 -511 Q 52 -540 56 -568.5 Q 60 -597 70.5 -624 Q 81 -651 98.5 -674.5 Q 116 -698 140 -714 Q 164 -730 192.5 -736.5 Q 221 -743 250 -743 Q 281 -743 311 -734.5 Q 341 -726 365 -707 Q 389 -688 405.5 -661.5 Q 422 -635 431.5 -606 Q 441 -577 444.5 -546 Q 448 -515 448 -485 Q 448 -444 440 -404 Q 432 -364 418 -326 Q 404 -288 386 -251.5 Q 368 -215 350 -179 Z M 249 -367 Q 266 -367 281.5 -372.5 Q 297 -378 308.5 -389.5 Q 320 -401 328 -415.5 Q 336 -430 340 -446 Q 344 -462 345.5 -478.5 Q 347 -495 347 -511 Q 347 -527 345.5 -543.5 Q 344 -560 340 -575.5 Q 336 -591 328.5 -606 Q 321 -621 309.5 -632.5 Q 298 -644 282 -649.5 Q 266 -655 250 -655 Q 234 -655 218 -649.5 Q 202 -644 190.5 -632.5 Q 179 -621 171.5 -606 Q 164 -591 160 -575.5 Q 156 -560 154.5 -543.5 Q 153 -527 153 -511 Q 153 -495 154.5 -478.5 Q 156 -462 160 -446.5 Q 164 -431 171.5 -416 Q 179 -401 190.5 -389.5 Q 202 -378 217.5 -372.5 Q 233 -367 249 -367 Z " id="path10"/>
<path d="M 39 0 L 192 -735 L 308 -735 L 461 0 L 358 0 L 326 -172 L 174 -172 L 142 0 Z M 309 -260 L 265 -490 Q 262 -511 258 -531.5 Q 254 -552 250 -572 Q 246 -552 242 -531.5 Q 238 -511 235 -490 L 191 -260 Z " id="path11"/>
<path d="M 60 0 L 60 -735 L 234 -735 Q 261 -735 287 -730.5 Q 313 -726 336 -714 Q 359 -702 377.5 -682.5 Q 396 -663 408 -639.5 Q 420 -616 424.5 -590 Q 429 -564 429 -538 Q 429 -515 425 -492 Q 421 -469 410.5 -448.5 Q 400 -428 383.5 -411 Q 367 -394 347 -383 Q 372 -373 393.5 -355.5 Q 415 -338 429.5 -314.5 Q 444 -291 450 -264 Q 456 -237 456 -210 Q 456 -181 450 -152.5 Q 444 -124 430 -98.5 Q 416 -73 394.5 -53.5 Q 373 -34 347 -21.5 Q 321 -9 292 -4.5 Q 263 -0 234 0 Z M 161 -424 L 234 -424 Q 255 -424 274.5 -432.5 Q 294 -441 306.5 -457.5 Q 319 -474 324 -494.5 Q 329 -515 329 -536 Q 329 -557 324 -577.5 Q 319 -598 306.5 -614.5 Q 294 -631 274.5 -639 Q 255 -647 234 -647 L 161 -647 Z M 161 -88 L 234 -88 Q 251 -88 267 -91 Q 283 -94 297.5 -101.5 Q 312 -109 323.5 -121 Q 335 -133 342.5 -148 Q 350 -163 352.5 -179 Q 355 -195 355 -212 Q 355 -228 352.5 -244.5 Q 350 -261 343 -276 Q 336 -291 324.5 -303 Q 313 -315 298 -322.5 Q 283 -330 267 -333 Q 251 -336 234 -336 L 161 -336 Z " id="path12"/>
<path d="M 247 8 Q 220 8 193.5 2.5 Q 167 -3 143.5 -16 Q 120 -29 101.5 -49.5 Q 83 -70 72 -94.5 Q 61 -119 56.5 -146 Q 52 -173 52 -200 L 52 -535 Q 52 -562 56.5 -589 Q 61 -616 72 -640.5 Q 83 -665 101.5 -685.5 Q 120 -706 143.5 -719 Q 167 -732 193.5 -737.5 Q 220 -743 247 -743 Q 273 -743 298 -738.5 Q 323 -734 346 -723 Q 369 -712 387.5 -694 Q 406 -676 418 -653.5 Q 430 -631 436 -606 Q 442 -581 442 -556 L 442 -554 L 341 -554 L 341 -555 Q 341 -575 335.5 -593.5 Q 330 -612 317 -627 Q 304 -642 285.5 -648.5 Q 267 -655 247 -655 Q 226 -655 206 -645.5 Q 186 -636 173.5 -618 Q 161 -600 157 -578.5 Q 153 -557 153 -535 L 153 -200 Q 153 -178 157 -156.5 Q 161 -135 173.5 -117 Q 186 -99 206 -89.5 Q 226 -80 247 -80 Q 267 -80 285.5 -86.5 Q 304 -93 317 -108 Q 330 -123 335.5 -141.5 Q 341 -160 341 -180 L 341 -181 L 442 -181 L 442 -179 Q 442 -154 436 -129 Q 430 -104 418 -81.5 Q 406 -59 387.5 -41 Q 369 -23 346 -12 Q 323 -1 298 3.5 Q 273 8 247 8 Z " id="path13"/>
<path d="M 60 0 L 60 -735 L 219 -735 Q 249 -735 279 -730 Q 309 -725 336.5 -712 Q 364 -699 386 -678.5 Q 408 -658 422 -631.5 Q 436 -605 442 -575 Q 448 -545 448 -515 L 448 -220 Q 448 -190 442 -160 Q 436 -130 422 -103.5 Q 408 -77 386 -56.5 Q 364 -36 336.5 -23 Q 309 -10 279 -5 Q 249 -0 219 0 Z M 161 -88 L 219 -88 Q 237 -88 254 -91 Q 271 -94 286.5 -102.5 Q 302 -111 314 -124 Q 326 -137 333.5 -152.5 Q 341 -168 344 -185.5 Q 347 -203 347 -220 L 347 -515 Q 347 -532 344 -549.5 Q 341 -567 333.5 -582.5 Q 326 -598 314 -611 Q 302 -624 286.5 -632.5 Q 271 -641 254 -644 Q 237 -647 219 -647 L 161 -647 Z " id="path14"/>
<path d="M 68 0 L 68 -735 L 440 -735 L 440 -647 L 169 -647 L 169 -426 L 383 -426 L 383 -338 L 169 -338 L 169 -88 L 440 -88 L 440 0 Z " id="path15"/>
<path d="M 91 0 L 91 -735 L 440 -735 L 440 -647 L 191 -647 L 191 -426 L 383 -426 L 383 -338 L 191 -338 L 191 0 Z " id="path16"/>
<path d="M 250 8 Q 223 8 196.5 2.5 Q 170 -3 147 -16.5 Q 124 -30 106.5 -50.5 Q 89 -71 78.5 -95.5 Q 68 -120 64 -146.5 Q 60 -173 60 -200 L 60 -735 L 161 -735 L 161 -200 Q 161 -186 162.5 -172 Q 164 -158 168 -144.5 Q 172 -131 179.5 -118.5 Q 187 -106 197.5 -97 Q 208 -88 222 -84 Q 236 -80 250 -80 Q 264 -80 278 -84 Q 292 -88 302.5 -97 Q 313 -106 320.5 -118.5 Q 328 -131 332 -144.5 Q 336 -158 337.5 -172 Q 339 -186 339 -200 L 339 -735 L 440 -735 L 440 -200 Q 440 -173 436 -146.5 Q 432 -120 421.5 -95.5 Q 411 -71 393.5 -50.5 Q 376 -30 353 -16.5 Q 330 -3 303.5 2.5 Q 277 8 250 8 Z " id="path17"/>
<path d="M 300 -143 L 200 -143 L 200 -296 L 60 -296 L 60 -384 L 200 -384 L 200 -537 L 300 -537 L 300 -384 L 440 -384 L 440 -296 L 300 -296 Z " id="path18"/>
<path d="M 211 -260 L 211 -735 L 289 -735 L 289 -260 Z M 250 8 Q 236 8 222 4 Q 208 0 198 -10.5 Q 188 -21 184 -34.5 Q 180 -48 180 -63 Q 180 -77 184 -90.5 Q 188 -104 198 -114.5 Q 208 -125 222 -129 Q 236 -133 250 -133 Q 264 -133 278 -129 Q 292 -125 302 -114.5 Q 312 -104 316.5 -90.5 Q 321 -77 321 -63 Q 321 -48 316.5 -34.5 Q 312 -21 302 -10.5 Q 292 0 278 4 Q 264 8 250 8 Z " id="path19"/>
<path d="M 113 -442 Q 110 -524 108.5 -606.5 Q 107 -689 107 -772 L 193 -772 Q 193 -689 191.5 -606.5 Q 190 -524 187 -442 Z M 313 -442 Q 310 -524 308.5 -606.5 Q 307 -689 307 -772 L 393 -772 Q 393 -689 391.5 -606.5 Q 390 -524 387 -442 Z " id="path20"/>
<path d="M 115 -18 L 115 -193 L 29 -193 L 29 -263 L 115 -263 L 115 -472 L 29 -472 L 29 -542 L 115 -542 L 115 -717 L 193 -717 L 193 -542 L 307 -542 L 307 -717 L 385 -717 L 385 -542 L 471 -542 L 471 -472 L 385 -472 L 385 -263 L 471 -263 L 471 -193 L 385 -193 L 385 -18 L 307 -18 L 307 -193 L 193 -193 L 193 -18 Z M 193 -263 L 307 -263 L 307 -472 L 193 -472 Z " id="path21"/>
<path d="M 211 107 L 211 -72 L 220 -72 L 220 -663 L 211 -663 L 211 -843 L 289 -843 L 289 -663 L 280 -663 L 280 -72 L 289 -72 L 289 107 Z M 249 -29 Q 225 -29 200.5 -32.5 Q 176 -36 153.5 -45.5 Q 131 -55 112 -71 Q 93 -87 80 -107.5 Q 67 -128 60.5 -152 Q 54 -176 54 -200 L 54 -207 L 132 -207 L 132 -203 Q 132 -181 140.5 -160 Q 149 -139 166 -124.5 Q 183 -110 205 -104.5 Q 227 -99 249 -99 Q 271 -99 292.5 -104 Q 314 -109 331 -123 Q 348 -137 357.5 -157.5 Q 367 -178 367 -200 Q 367 -224 355.5 -246 Q 344 -268 326 -284 Q 308 -300 285.5 -310 Q 263 -320 241 -329.5 Q 219 -339 197 -349.5 Q 175 -360 155.5 -374 Q 136 -388 119 -405.5 Q 102 -423 89.5 -443.5 Q 77 -464 70.5 -488 Q 64 -512 64 -536 Q 64 -560 70 -583 Q 76 -606 88 -626.5 Q 100 -647 118 -663 Q 136 -679 158 -689 Q 180 -699 203.5 -702.5 Q 227 -706 251 -706 Q 275 -706 298.5 -702.5 Q 322 -699 344 -689 Q 366 -679 384 -663.5 Q 402 -648 414 -627.5 Q 426 -607 432 -583.5 Q 438 -560 438 -536 L 438 -529 L 360 -529 L 360 -533 Q 360 -555 352.5 -575 Q 345 -595 329.5 -609.5 Q 314 -624 293 -630 Q 272 -636 251 -636 Q 230 -636 209.5 -630.5 Q 189 -625 173 -611 Q 157 -597 149 -577 Q 141 -557 141 -536 Q 141 -511 152.5 -489 Q 164 -467 182 -451 Q 200 -435 222 -425 Q 244 -415 266.5 -405.5 Q 289 -396 310.5 -385.5 Q 332 -375 352 -361 Q 372 -347 389 -329.5 Q 406 -312 418.5 -291.5 Q 431 -271 437.5 -247.5 Q 444 -224 444 -200 Q 444 -175 437.5 -151.5 Q 431 -128 418 -107 Q 405 -86 386 -70.5 Q 367 -55 344.5 -45.5 Q 322 -36 297.5 -32.5 Q 273 -29 249 -29 Z " id="path22"/>
<path d="M 141 -360 Q 119 -360 96.5 -365.5 Q 74 -371 57 -385.5 Q 40 -400 32 -421.5 Q 24 -443 24 -465 L 24 -638 Q 24 -660 32 -681.5 Q 40 -703 57 -717.5 Q 74 -732 96.5 -737.5 Q 119 -743 141 -743 Q 163 -743 185.5 -737.5 Q 208 -732 225 -717.5 Q 242 -703 250 -681.5 Q 258 -660 258 -638 L 258 -465 Q 258 -443 250 -421.5 Q 242 -400 225 -385.5 Q 208 -371 185.5 -365.5 Q 163 -360 141 -360 Z M 287 -431 L 382 -735 L 468 -735 L 362 -431 Z M 141 -429 Q 149 -429 156.5 -431 Q 164 -433 170 -438 Q 176 -443 178.5 -450 Q 181 -457 181 -465 L 181 -638 Q 181 -645 178.5 -652.5 Q 176 -660 170 -665 Q 164 -670 156.5 -672 Q 149 -674 141 -674 Q 133 -674 125.5 -672 Q 118 -670 112 -665 Q 106 -660 103.5 -652.5 Q 101 -645 101 -638 L 101 -465 Q 101 -457 103.5 -450 Q 106 -443 112 -438 Q 118 -433 125.5 -431 Q 133 -429 141 -429 Z M 359 8 Q 337 8 314.5 2.5 Q 292 -3 275 -17.5 Q 258 -32 250 -53.5 Q 242 -75 242 -98 L 242 -270 Q 242 -292 250 -313.5 Q 258 -335 275 -349.5 Q 292 -364 314.5 -370 Q 337 -376 359 -376 Q 381 -376 403.5 -370 Q 426 -364 443 -349.5 Q 460 -335 468 -313.5 Q 476 -292 476 -270 L 476 -98 Q 476 -75 468 -53.5 Q 460 -32 443 -17.5 Q 426 -3 403.5 2.5 Q 381 8 359 8 Z M 359 -61 Q 367 -61 374.5 -63 Q 382 -65 388 -70 Q 394 -75 396.5 -82.5 Q 399 -90 399 -98 L 399 -270 Q 399 -278 396.5 -285 Q 394 -292 388 -297 Q 382 -302 374.5 -304 Q 367 -306 359 -306 Q 351 -306 343.5 -304 Q 336 -302 330 -297 Q 324 -292 321.5 -285 Q 319 -278 319 -270 L 319 -98 Q 319 -90 321.5 -82.5 Q 324 -75 330 -70 Q 336 -65 343.5 -63 Q 351 -61 359 -61 Z M 32 0 L 138 -304 L 213 -304 L 118 0 Z " id="path23"/>
<path d="M 226 8 Q 201 8 177 2 Q 153 -4 133 -18 Q 113 -32 98 -51.5 Q 83 -71 74 -94 Q 65 -117 60 -141 Q 55 -165 55 -190 Q 55 -219 63 -248.5 Q 71 -278 86 -304 Q 101 -330 121 -352 Q 141 -374 163 -394 Q 148 -417 134 -439.5 Q 120 -462 108.5 -486 Q 97 -510 89.5 -536.5 Q 82 -563 82 -589 Q 82 -619 91.5 -648.5 Q 101 -678 121.5 -700.5 Q 142 -723 171 -733 Q 200 -743 230 -743 Q 260 -743 289.5 -733 Q 319 -723 339 -700.5 Q 359 -678 368.5 -648.5 Q 378 -619 378 -589 Q 378 -558 368.5 -528 Q 359 -498 343 -472 Q 327 -446 305 -423.5 Q 283 -401 260 -381 Q 264 -375 267.5 -368.5 Q 271 -362 275 -356 L 360 -210 L 399 -311 L 481 -311 L 421 -155 Q 418 -148 415.5 -140.5 Q 413 -133 410 -126 L 483 0 L 396 0 L 357 -66 Q 340 -38 313 -18.5 Q 286 1 254 6 Q 247 7 240 7.5 Q 233 8 226 8 Z M 220 -444 Q 235 -458 249.5 -474 Q 264 -490 275.5 -508 Q 287 -526 293.5 -546.5 Q 300 -567 300 -588 Q 300 -603 296.5 -618.5 Q 293 -634 284 -647 Q 275 -660 260.5 -666.5 Q 246 -673 230 -673 Q 215 -673 200.5 -666 Q 186 -659 177 -646.5 Q 168 -634 164 -618.5 Q 160 -603 160 -587 Q 160 -568 165.5 -548.5 Q 171 -529 179.5 -511.5 Q 188 -494 198.5 -477 Q 209 -460 220 -444 Z M 236 -62 Q 250 -62 263.5 -67 Q 277 -72 288 -80 Q 299 -88 308 -99 Q 317 -110 324 -123 L 208 -320 Q 206 -323 204.5 -325.5 Q 203 -328 202 -330 Q 187 -316 174.5 -300.5 Q 162 -285 152.5 -267.5 Q 143 -250 138 -230 Q 133 -210 133 -190 Q 133 -175 136 -159.5 Q 139 -144 144 -129.5 Q 149 -115 157.5 -102 Q 166 -89 178.5 -79.5 Q 191 -70 206 -66 Q 221 -62 236 -62 Z " id="path24"/>
<path d="M 213 -442 Q 210 -524 208.5 -606.5 Q 207 -689 207 -772 L 293 -772 Q 293 -689 291.5 -606.5 Q 290 -524 287 -442 Z " id="path25"/>
<path d="M 372 161 Q 329 137 291.5 104.5 Q 254 72 224 32.5 Q 194 -7 173 -52 Q 152 -97 139 -144.5 Q 126 -192 120.5 -241.5 Q 115 -291 115 -340 Q 115 -389 120.5 -438.5 Q 126 -488 139 -535.5 Q 152 -583 173 -628 Q 194 -673 224 -712.5 Q 254 -752 291.5 -784.5 Q 329 -817 372 -841 L 410 -780 Q 355 -748 311.5 -699 Q 268 -650 241 -591.5 Q 214 -533 203.5 -468.5 Q 193 -404 193 -340 Q 193 -276 203.5 -211.5 Q 214 -147 241 -88.5 Q 268 -30 311.5 19 Q 355 68 410 100 Z " id="path26"/>
<path d="M 128 161 L 90 100 Q 145 68 188.5 19 Q 232 -30 259 -88.5 Q 286 -147 296.5 -211.5 Q 307 -276 307 -340 Q 307 -404 296.5 -468.5 Q 286 -533 259 -591.5 Q 232 -650 188.5 -699 Q 145 -748 90 -780 L 128 -841 Q 171 -817 208.5 -784.5 Q 246 -752 276 -712.5 Q 306 -673 327 -628 Q 348 -583 361 -535.5 Q 374 -488 379.5 -438.5 Q 385 -389 385 -340 Q 385 -291 379.5 -241.5 Q 374 -192 361 -144.5 Q 348 -97 327 -52 Q 306 -7 276 32.5 Q 246 72 208.5 104.5 Q 171 137 128 161 Z " id="path27"/>
<path d="M 158 -416 L 95 -457 L 200 -591 L 38 -638 L 62 -704 L 217 -648 L 211 -816 L 289 -816 L 283 -648 L 438 -704 L 462 -638 L 300 -591 L 405 -457 L 342 -416 L 250 -552 Z " id="path28"/>
<path d="M 211 -147 L 211 -305 L 64 -305 L 64 -375 L 211 -375 L 211 -533 L 289 -533 L 289 -375 L 436 -375 L 436 -305 L 289 -305 L 289 -147 Z " id="path29"/>
<path d="M 215 215 L 156 170 Q 188 134 214.5 94 Q 241 54 254 8 L 249 8 Q 234 8 218.5 3 Q 203 -2 192 -13 Q 181 -24 176.5 -39 Q 172 -54 172 -70 Q 172 -86 176.5 -101 Q 181 -116 192.5 -127.5 Q 204 -139 219 -143.5 Q 234 -148 250 -148 Q 266 -148 282 -143 Q 298 -138 309 -126.5 Q 320 -115 324 -99 Q 328 -83 328 -67 Q 328 -28 319 10 Q 310 48 295 83.5 Q 280 119 259.5 152 Q 239 185 215 215 Z " id="path30"/>
<path d="M 64 -305 L 64 -375 L 436 -375 L 436 -305 Z " id="path31"/>
<path d="M 250 8 Q 234 8 219 3.5 Q 204 -1 192.5 -12.5 Q 181 -24 176.5 -39 Q 172 -54 172 -70 Q 172 -86 176.5 -101 Q 181 -116 192.5 -127.5 Q 204 -139 219 -143.5 Q 234 -148 250 -148 Q 266 -148 281 -143.5 Q 296 -139 307.5 -127.5 Q 319 -116 323.5 -101 Q 328 -86 328 -70 Q 328 -54 323.5 -39 Q 319 -24 307.5 -12.5 Q 296 -1 281 3.5 Q 266 8 250 8 Z " id="path32"/>
<path d="M 59 143 L 361 -823 L 441 -823 L 139 143 Z " id="path33"/>
<path d="M 250 8 Q 223 8 196 2.5 Q 169 -3 146 -16 Q 123 -29 104.5 -49.5 Q 86 -70 75 -94.5 Q 64 -119 60 -146 Q 56 -173 56 -200 L 56 -535 Q 56 -562 60 -589 Q 64 -616 75 -640.5 Q 86 -665 104.5 -685.5 Q 123 -706 146 -719 Q 169 -732 196 -737.5 Q 223 -743 250 -743 Q 277 -743 304 -737.5 Q 331 -732 354 -719 Q 377 -706 395.5 -685.5 Q 414 -665 425 -640.5 Q 436 -616 440 -589 Q 444 -562 444 -535 L 444 -200 Q 444 -173 440 -146 Q 436 -119 425 -94.5 Q 414 -70 395.5 -49.5 Q 377 -29 354 -16 Q 331 -3 304 2.5 Q 277 8 250 8 Z M 134 -318 L 366 -503 L 366 -535 Q 366 -552 364 -569 Q 362 -586 356 -602 Q 350 -618 339.5 -632 Q 329 -646 315 -655.5 Q 301 -665 284 -669 Q 267 -673 250 -673 Q 233 -673 216 -669 Q 199 -665 185 -655.5 Q 171 -646 160.5 -632 Q 150 -618 144 -602 Q 138 -586 136 -569 Q 134 -552 134 -535 Z M 250 -62 Q 267 -62 284 -66 Q 301 -70 315 -79.5 Q 329 -89 339.5 -103 Q 350 -117 356 -133 Q 362 -149 364 -166 Q 366 -183 366 -200 L 366 -417 L 134 -232 L 134 -200 Q 134 -183 136 -166 Q 138 -149 144 -133 Q 150 -117 160.5 -103 Q 171 -89 185 -79.5 Q 199 -70 216 -66 Q 233 -62 250 -62 Z " id="path34"/>
<path d="M 241 0 L 241 -646 L 103 -546 L 58 -603 L 241 -735 L 319 -735 L 319 0 Z " id="path35"/>
<path d="M 64 0 L 64 -1 Q 64 -28 65 -55 Q 66 -82 70.5 -109 Q 75 -136 83.5 -162 Q 92 -188 104.5 -211.5 Q 117 -235 133.5 -257 Q 150 -279 169.5 -298 Q 189 -317 210 -333.5 Q 231 -350 253 -366 Q 275 -382 296 -399.5 Q 317 -417 332 -439.5 Q 347 -462 354.5 -488.5 Q 362 -515 362 -542 Q 362 -566 356.5 -590.5 Q 351 -615 336.5 -634.5 Q 322 -654 298.5 -663.5 Q 275 -673 251 -673 Q 229 -673 207 -666 Q 185 -659 169.5 -643 Q 154 -627 147 -605.5 Q 140 -584 140 -561 L 140 -560 L 62 -560 L 62 -563 Q 62 -587 67.5 -611.5 Q 73 -636 85 -657.5 Q 97 -679 115 -696 Q 133 -713 155 -724 Q 177 -735 201.5 -739 Q 226 -743 251 -743 Q 277 -743 303 -738 Q 329 -733 352 -720 Q 375 -707 392.5 -687.5 Q 410 -668 421 -644 Q 432 -620 436 -594 Q 440 -568 440 -542 Q 440 -506 429.5 -470.5 Q 419 -435 398.5 -405.5 Q 378 -376 350.5 -352.5 Q 323 -329 294.5 -306.5 Q 266 -284 239 -259.5 Q 212 -235 192 -205 Q 172 -175 160 -140.5 Q 148 -106 144 -70 L 436 -70 L 436 0 Z " id="path36"/>
<path d="M 253 8 Q 227 8 201.5 4 Q 176 0 153 -11 Q 130 -22 111 -39.5 Q 92 -57 79 -79 Q 66 -101 60 -126.5 Q 54 -152 54 -177 L 54 -178 L 132 -178 Q 132 -154 140.5 -131 Q 149 -108 166 -92 Q 183 -76 206 -69 Q 229 -62 253 -62 Q 278 -62 302.5 -71 Q 327 -80 343.5 -99.5 Q 360 -119 367 -144 Q 374 -169 374 -195 Q 374 -216 369.5 -236.5 Q 365 -257 355 -275.5 Q 345 -294 329.5 -308.5 Q 314 -323 295 -331.5 Q 276 -340 255 -342.5 Q 234 -345 213 -345 L 213 -415 Q 232 -415 251 -417 Q 270 -419 287.5 -426.5 Q 305 -434 319 -447.5 Q 333 -461 341.5 -478 Q 350 -495 354 -514 Q 358 -533 358 -552 Q 358 -574 352.5 -596.5 Q 347 -619 333 -637 Q 319 -655 297.5 -664 Q 276 -673 253 -673 Q 231 -673 210.5 -665.5 Q 190 -658 175.5 -642 Q 161 -626 154.5 -605 Q 148 -584 148 -562 L 148 -560 L 70 -560 L 70 -563 Q 70 -587 75.5 -611 Q 81 -635 92 -656.5 Q 103 -678 120.5 -695.5 Q 138 -713 159.5 -723.5 Q 181 -734 205 -738.5 Q 229 -743 253 -743 Q 278 -743 302.5 -738 Q 327 -733 348.5 -721.5 Q 370 -710 387 -691.5 Q 404 -673 415 -650.5 Q 426 -628 431 -603.5 Q 436 -579 436 -554 Q 436 -527 429.5 -501 Q 423 -475 410 -451.5 Q 397 -428 376.5 -410 Q 356 -392 332 -381 Q 359 -370 382.5 -350.5 Q 406 -331 421.5 -306 Q 437 -281 444.5 -251.5 Q 452 -222 452 -193 Q 452 -166 446.5 -139.5 Q 441 -113 429 -89.5 Q 417 -66 398 -46.5 Q 379 -27 355.5 -14.5 Q 332 -2 305.5 3 Q 279 8 253 8 Z " id="path37"/>
<path d="M 294 0 L 294 -194 L 56 -194 L 56 -264 L 290 -735 L 375 -735 L 141 -264 L 294 -264 L 294 -444 L 372 -444 L 372 -264 L 436 -264 L 436 -194 L 372 -194 L 372 0 Z " id="path38"/>
<path d="M 252 8 Q 228 8 204 3.5 Q 180 -1 159 -12 Q 138 -23 120.5 -40 Q 103 -57 91 -78 Q 79 -99 72.5 -122 Q 66 -145 63 -169 L 63 -174 L 141 -174 L 141 -170 Q 144 -149 152 -128.5 Q 160 -108 174.5 -92.5 Q 189 -77 209.5 -69.5 Q 230 -62 252 -62 Q 271 -62 289.5 -69 Q 308 -76 322 -90 Q 336 -104 344.5 -121.5 Q 353 -139 358 -158 Q 363 -177 364.5 -196.5 Q 366 -216 366 -235 Q 366 -255 364.5 -274 Q 363 -293 358.5 -312 Q 354 -331 345.5 -348.5 Q 337 -366 323.5 -380 Q 310 -394 292 -401 Q 274 -408 254 -408 Q 234 -408 214 -401.5 Q 194 -395 179.5 -380.5 Q 165 -366 157.5 -346 Q 150 -326 149 -305 L 71 -305 L 71 -735 L 417 -735 L 417 -665 L 149 -665 L 149 -451 Q 172 -466 199.5 -472 Q 227 -478 254 -478 Q 283 -478 311.5 -470.5 Q 340 -463 363.5 -445 Q 387 -427 403 -402.5 Q 419 -378 428 -350.5 Q 437 -323 440.5 -293.5 Q 444 -264 444 -235 Q 444 -206 440.5 -176.5 Q 437 -147 427.5 -119.5 Q 418 -92 401.5 -67 Q 385 -42 361.5 -24.5 Q 338 -7 309.5 0.5 Q 281 8 252 8 Z " id="path39"/>
<path d="M 250 8 Q 220 8 191 0 Q 162 -8 138.5 -26 Q 115 -44 98.5 -69.5 Q 82 -95 72.5 -123 Q 63 -151 59.5 -181 Q 56 -211 56 -241 Q 56 -284 65 -326 Q 74 -368 89.5 -408.5 Q 105 -449 124 -487.5 Q 143 -526 163 -564 L 248 -735 L 334 -735 L 232 -533 Q 220 -509 207.5 -485.5 Q 195 -462 181 -439 L 181 -438 Q 180 -437 179.5 -436 Q 179 -435 178 -433 Q 196 -441 214.5 -444 Q 233 -447 252 -447 Q 280 -447 308 -440.5 Q 336 -434 359 -418 Q 382 -402 399 -379 Q 416 -356 426.5 -330 Q 437 -304 440.5 -276 Q 444 -248 444 -220 Q 444 -191 440 -163 Q 436 -135 426 -108.5 Q 416 -82 398.5 -59 Q 381 -36 357.5 -20.5 Q 334 -5 306 1.5 Q 278 8 250 8 Z M 250 -62 Q 268 -62 286 -67.5 Q 304 -73 318.5 -85 Q 333 -97 342.5 -113 Q 352 -129 357 -146.5 Q 362 -164 364 -182.5 Q 366 -201 366 -220 Q 366 -238 364 -256.5 Q 362 -275 357 -292.5 Q 352 -310 342.5 -326 Q 333 -342 319 -354 Q 305 -366 287 -371.5 Q 269 -377 250 -377 Q 232 -377 214 -371.5 Q 196 -366 182 -354.5 Q 168 -343 158.5 -326.5 Q 149 -310 143.5 -292.5 Q 138 -275 136 -256.5 Q 134 -238 134 -220 Q 134 -201 136 -182.5 Q 138 -164 143 -146.5 Q 148 -129 157.5 -113 Q 167 -97 181.5 -85 Q 196 -73 214 -67.5 Q 232 -62 250 -62 Z " id="path40"/>
<path d="M 146 0 L 355 -665 L 64 -665 L 64 -735 L 436 -735 L 436 -665 L 226 0 Z " id="path41"/>
<path d="M 250 8 Q 226 8 201.5 4.5 Q 177 1 154.5 -9 Q 132 -19 113 -35 Q 94 -51 81 -71.5 Q 68 -92 62 -116 Q 56 -140 56 -165 Q 56 -197 67 -228.5 Q 78 -260 96.5 -286.5 Q 115 -313 139 -335 Q 163 -357 189 -377 Q 165 -396 143.5 -417 Q 122 -438 106 -463.5 Q 90 -489 80.5 -518 Q 71 -547 71 -577 Q 71 -600 77 -622.5 Q 83 -645 94 -665 Q 105 -685 122.5 -700.5 Q 140 -716 160.5 -726 Q 181 -736 204 -739.5 Q 227 -743 250 -743 Q 273 -743 296 -739.5 Q 319 -736 339.5 -726 Q 360 -716 377.5 -700.5 Q 395 -685 406 -665 Q 417 -645 423 -622.5 Q 429 -600 429 -577 Q 429 -547 419.5 -518 Q 410 -489 394 -463.5 Q 378 -438 356.5 -417 Q 335 -396 311 -377 Q 337 -357 361 -335 Q 385 -313 403.5 -286.5 Q 422 -260 433 -228.5 Q 444 -197 444 -165 Q 444 -140 438 -116 Q 432 -92 419 -71.5 Q 406 -51 387 -35 Q 368 -19 345.5 -9 Q 323 1 298.5 4.5 Q 274 8 250 8 Z M 250 -421 Q 269 -436 287 -452 Q 305 -468 319 -487 Q 333 -506 342 -529 Q 351 -552 351 -576 Q 351 -595 344 -614.5 Q 337 -634 323 -647.5 Q 309 -661 289.5 -667 Q 270 -673 250 -673 Q 230 -673 210.5 -667 Q 191 -661 177 -647.5 Q 163 -634 156 -614.5 Q 149 -595 149 -576 Q 149 -552 158 -529 Q 167 -506 181 -487 Q 195 -468 213 -452 Q 231 -436 250 -421 Z M 250 -62 Q 272 -62 294 -67.5 Q 316 -73 332.5 -87.5 Q 349 -102 357.5 -123 Q 366 -144 366 -166 Q 366 -193 355.5 -217.5 Q 345 -242 328.5 -262.5 Q 312 -283 291.5 -300 Q 271 -317 250 -332 Q 229 -317 208.5 -300 Q 188 -283 171.5 -262.5 Q 155 -242 144.5 -217.5 Q 134 -193 134 -166 Q 134 -144 142.5 -123 Q 151 -102 167.5 -87.5 Q 184 -73 206 -67.5 Q 228 -62 250 -62 Z " id="path42"/>
<path d="M 252 0 L 166 0 L 268 -202 Q 280 -226 292.5 -249.5 Q 305 -273 319 -296 L 319 -297 Q 320 -298 320.5 -299 Q 321 -300 322 -302 Q 304 -294 285.5 -291 Q 267 -288 248 -288 Q 220 -288 192 -294.5 Q 164 -301 141 -317 Q 118 -333 101 -356 Q 84 -379 73.5 -405 Q 63 -431 59.5 -459 Q 56 -487 56 -515 Q 56 -544 60 -572 Q 64 -600 74 -626.5 Q 84 -653 101.5 -676 Q 119 -699 142.5 -714.5 Q 166 -730 194 -736.5 Q 222 -743 250 -743 Q 280 -743 309 -735 Q 338 -727 361.5 -709 Q 385 -691 401.5 -665.5 Q 418 -640 427.5 -612 Q 437 -584 440.5 -554 Q 444 -524 444 -494 Q 444 -451 435 -409 Q 426 -367 410.5 -326.5 Q 395 -286 376 -247.5 Q 357 -209 337 -171 Z M 250 -358 Q 268 -358 286 -363.5 Q 304 -369 318 -380.5 Q 332 -392 341.5 -408.5 Q 351 -425 356.5 -442.5 Q 362 -460 364 -478.5 Q 366 -497 366 -515 Q 366 -534 364 -552.5 Q 362 -571 357 -588.5 Q 352 -606 342.5 -622 Q 333 -638 318.5 -650 Q 304 -662 286 -667.5 Q 268 -673 250 -673 Q 232 -673 214 -667.5 Q 196 -662 181.5 -650 Q 167 -638 157.5 -622 Q 148 -606 143 -588.5 Q 138 -571 136 -552.5 Q 134 -534 134 -515 Q 134 -497 136 -478.5 Q 138 -460 143 -442.5 Q 148 -425 157.5 -409 Q 167 -393 181 -381 Q 195 -369 213 -363.5 Q 231 -358 250 -358 Z " id="path43"/>
<path d="M 250 8 Q 234 8 219 3.5 Q 204 -1 192.5 -12.5 Q 181 -24 176.5 -39 Q 172 -54 172 -70 Q 172 -86 176.5 -101 Q 181 -116 192.5 -127.5 Q 204 -139 219 -143.5 Q 234 -148 250 -148 Q 266 -148 281 -143.5 Q 296 -139 307.5 -127.5 Q 319 -116 323.5 -101 Q 328 -86 328 -70 Q 328 -54 323.5 -39 Q 319 -24 307.5 -12.5 Q 296 -1 281 3.5 Q 266 8 250 8 Z M 250 -372 Q 234 -372 219 -376.5 Q 204 -381 192.5 -392.5 Q 181 -404 176.5 -419 Q 172 -434 172 -450 Q 172 -466 176.5 -481 Q 181 -496 192.5 -507.5 Q 204 -519 219 -523.5 Q 234 -528 250 -528 Q 266 -528 281 -523.5 Q 296 -519 307.5 -507.5 Q 319 -496 323.5 -481 Q 328 -466 328 -450 Q 328 -434 323.5 -419 Q 319 -404 307.5 -392.5 Q 296 -381 281 -376.5 Q 266 -372 250 -372 Z " id="path44"/>
<path d="M 215 215 L 156 170 Q 188 134 214.5 94 Q 241 54 254 8 L 249 8 Q 234 8 218.5 3 Q 203 -2 192 -13 Q 181 -24 176.5 -39 Q 172 -54 172 -70 Q 172 -86 176.5 -101 Q 181 -116 192.5 -127.5 Q 204 -139 219 -143.5 Q 234 -148 250 -148 Q 266 -148 282 -143 Q 298 -138 309 -126.5 Q 320 -115 324 -99 Q 328 -83 328 -67 Q 328 -28 319 10 Q 310 48 295 83.5 Q 280 119 259.5 152 Q 239 185 215 215 Z M 250 -372 Q 234 -372 219 -376.5 Q 204 -381 192.5 -392.5 Q 181 -404 176.5 -419 Q 172 -434 172 -450 Q 172 -466 176.5 -481 Q 181 -496 192.5 -507.5 Q 204 -519 219 -523.5 Q 234 -528 250 -528 Q 266 -528 281 -523.5 Q 296 -519 307.5 -507.5 Q 319 -496 323.5 -481 Q 328 -466 328 -450 Q 328 -434 323.5 -419 Q 319 -404 307.5 -392.5 Q 296 -381 281 -376.5 Q 266 -372 250 -372 Z " id="path45"/>
<path d="M 416 -81 L 64 -299 L 64 -381 L 416 -599 L 456 -539 L 131 -340 L 456 -141 Z " id="path46"/>
<path d="M 64 -394 L 64 -464 L 436 -464 L 436 -394 Z M 64 -216 L 64 -286 L 436 -286 L 436 -216 Z " id="path47"/>
<path d="M 84 -81 L 44 -141 L 369 -340 L 44 -539 L 84 -599 L 436 -381 L 436 -299 Z " id="path48"/>
<path d="M 211 -221 Q 211 -245 213 -269 Q 215 -293 221.5 -316.5 Q 228 -340 240 -361.5 Q 252 -383 266.5 -402.5 Q 281 -422 297 -440 Q 313 -458 327 -478 Q 341 -498 349.5 -521 Q 358 -544 358 -568 Q 358 -589 350.5 -610 Q 343 -631 327.5 -645.5 Q 312 -660 291 -666.5 Q 270 -673 249 -673 Q 228 -673 207 -667 Q 186 -661 170.5 -646.5 Q 155 -632 147.5 -611.5 Q 140 -591 140 -569 L 140 -565 L 62 -565 L 62 -572 Q 62 -596 68 -619.5 Q 74 -643 86 -663.5 Q 98 -684 116 -700 Q 134 -716 156 -726 Q 178 -736 201.5 -739.5 Q 225 -743 249 -743 Q 273 -743 297 -739 Q 321 -735 343 -725 Q 365 -715 383 -698.5 Q 401 -682 413 -661 Q 425 -640 430.5 -616 Q 436 -592 436 -568 Q 436 -544 430.5 -520 Q 425 -496 415.5 -474 Q 406 -452 393 -431.5 Q 380 -411 365 -392 Q 350 -373 334 -354.5 Q 318 -336 307 -314.5 Q 296 -293 292.5 -269 Q 289 -245 289 -221 Z M 250 8 Q 236 8 222 4 Q 208 0 198 -10.5 Q 188 -21 184 -34.5 Q 180 -48 180 -63 Q 180 -77 184 -90.5 Q 188 -104 198 -114.5 Q 208 -125 222 -129 Q 236 -133 250 -133 Q 264 -133 278 -129 Q 292 -125 302 -114.5 Q 312 -104 316.5 -90.5 Q 321 -77 321 -63 Q 321 -48 316.5 -34.5 Q 312 -21 302 -10.5 Q 292 0 278 4 Q 264 8 250 8 Z " id="path49"/>
<path d="M 401 77 L 250 77 Q 224 77 198 71.5 Q 172 66 149.5 53 Q 127 40 110 20 Q 93 0 82.5 -24 Q 72 -48 68 -74 Q 64 -100 64 -126 L 64 -554 Q 64 -580 68 -606 Q 72 -632 82.5 -656 Q 93 -680 110 -700 Q 127 -720 149.5 -733 Q 172 -746 198 -751.5 Q 224 -757 250 -757 Q 276 -757 302 -751.5 Q 328 -746 350.5 -733 Q 373 -720 390 -700 Q 407 -680 417.5 -656 Q 428 -632 432 -606 Q 436 -580 436 -554 L 436 -226 Q 436 -209 434 -192.5 Q 432 -176 426.5 -160 Q 421 -144 411.5 -129.5 Q 402 -115 389 -105 Q 376 -95 359.5 -91 Q 343 -87 326 -87 Q 309 -87 292 -91 Q 275 -95 260.5 -104.5 Q 246 -114 235.5 -128 Q 225 -142 219 -158 Q 213 -174 210.5 -191.5 Q 208 -209 208 -226 L 208 -413 Q 208 -430 210.5 -447.5 Q 213 -465 219 -481 Q 225 -497 235.5 -511 Q 246 -525 260.5 -534.5 Q 275 -544 292 -548 Q 309 -552 327 -552 L 359 -552 L 359 -554 Q 359 -570 357 -586 Q 355 -602 349.5 -617.5 Q 344 -633 334.5 -646.5 Q 325 -660 311.5 -669.5 Q 298 -679 282 -683 Q 266 -687 250 -687 Q 234 -687 218 -683 Q 202 -679 188.5 -669.5 Q 175 -660 165.5 -646.5 Q 156 -633 150.5 -617.5 Q 145 -602 143 -586 Q 141 -570 141 -554 L 141 -126 Q 141 -110 143 -93.5 Q 145 -77 150.5 -62 Q 156 -47 165.5 -33.5 Q 175 -20 188.5 -10.5 Q 202 -1 218 3 Q 234 7 250 7 L 401 7 Z M 325 -156 Q 336 -156 343.5 -164.5 Q 351 -173 354 -183.5 Q 357 -194 358 -204.5 Q 359 -215 359 -226 L 359 -483 L 327 -483 Q 315 -483 306 -475.5 Q 297 -468 292.5 -457.5 Q 288 -447 286.5 -436 Q 285 -425 285 -413 L 285 -226 Q 285 -215 286.5 -204 Q 288 -193 292 -182.5 Q 296 -172 305 -164 Q 314 -156 325 -156 Z " id="path50"/>
<path d="M 44 0 L 205 -735 L 295 -735 L 349 -490 L 456 0 L 376 0 L 337 -190 L 163 -190 L 124 0 Z M 323 -260 L 276 -490 Q 269 -522 262.5 -554 Q 256 -586 250 -618 Q 244 -586 237.5 -554 Q 231 -522 224 -490 L 177 -260 Z " id="path51"/>
<path d="M 64 0 L 64 -735 L 233 -735 Q 259 -735 284.5 -730.5 Q 310 -726 333 -714.5 Q 356 -703 374.5 -684.5 Q 393 -666 405 -642.5 Q 417 -619 421.5 -593.5 Q 426 -568 426 -542 Q 426 -518 421.5 -493.5 Q 417 -469 405 -448 Q 393 -427 375 -410 Q 357 -393 335 -383 Q 361 -373 384.5 -356 Q 408 -339 423.5 -315 Q 439 -291 445.5 -263 Q 452 -235 452 -206 Q 452 -178 446.5 -149.5 Q 441 -121 427 -96 Q 413 -71 391.5 -52 Q 370 -33 344 -21 Q 318 -9 289.5 -4.5 Q 261 -0 233 0 Z M 142 -416 L 233 -416 Q 249 -416 265 -419 Q 281 -422 295 -430 Q 309 -438 319.5 -450.5 Q 330 -463 336.5 -477.5 Q 343 -492 345.5 -508 Q 348 -524 348 -541 Q 348 -557 345.5 -573 Q 343 -589 336.5 -603.5 Q 330 -618 319.5 -630.5 Q 309 -643 295 -651 Q 281 -659 265 -662 Q 249 -665 233 -665 L 142 -665 Z M 142 -70 L 233 -70 Q 251 -70 270 -73 Q 289 -76 305.5 -84 Q 322 -92 336 -105.5 Q 350 -119 359 -135.5 Q 368 -152 371 -170.5 Q 374 -189 374 -208 Q 374 -226 371 -245 Q 368 -264 359 -280.5 Q 350 -297 336.5 -310 Q 323 -323 306 -331.5 Q 289 -340 270.5 -343 Q 252 -346 233 -346 L 142 -346 Z " id="path52"/>
<path d="M 247 8 Q 221 8 194.5 3 Q 168 -2 145 -15 Q 122 -28 104 -48 Q 86 -68 75 -92 Q 64 -116 60 -142.5 Q 56 -169 56 -195 L 56 -540 Q 56 -566 60 -592.5 Q 64 -619 75 -643 Q 86 -667 104 -687 Q 122 -707 145 -720 Q 168 -733 194.5 -738 Q 221 -743 247 -743 Q 272 -743 296.5 -739 Q 321 -735 343.5 -724 Q 366 -713 384.5 -696 Q 403 -679 414.5 -657 Q 426 -635 432 -611 Q 438 -587 438 -562 L 438 -559 L 360 -559 L 360 -561 Q 360 -583 352.5 -605 Q 345 -627 329.5 -643 Q 314 -659 292 -666 Q 270 -673 247 -673 Q 222 -673 198.5 -663.5 Q 175 -654 160 -634 Q 145 -614 139.5 -589.5 Q 134 -565 134 -540 L 134 -195 Q 134 -170 139.5 -145.5 Q 145 -121 160 -101 Q 175 -81 198.5 -71.5 Q 222 -62 247 -62 Q 270 -62 292 -69 Q 314 -76 329.5 -92 Q 345 -108 352.5 -130 Q 360 -152 360 -174 L 360 -176 L 438 -176 L 438 -173 Q 438 -148 432 -124 Q 426 -100 414.5 -78 Q 403 -56 384.5 -39 Q 366 -22 343.5 -11 Q 321 0 296.5 4 Q 272 8 247 8 Z " id="path53"/>
<path d="M 64 0 L 64 -735 L 222 -735 Q 251 -735 280 -730 Q 309 -725 335.5 -712.5 Q 362 -700 384 -680 Q 406 -660 419.5 -634 Q 433 -608 438.5 -579 Q 444 -550 444 -521 L 444 -215 Q 444 -185 438.5 -156 Q 433 -127 419.5 -101 Q 406 -75 384 -55 Q 362 -35 335.5 -22.5 Q 309 -10 280 -5 Q 251 -0 221 0 Z M 142 -70 L 221 -70 Q 241 -70 260 -73.5 Q 279 -77 296.5 -85.5 Q 314 -94 328 -108 Q 342 -122 350.5 -139.5 Q 359 -157 362.5 -176 Q 366 -195 366 -215 L 366 -521 Q 366 -540 362.5 -559 Q 359 -578 350.5 -595.5 Q 342 -613 328 -627 Q 314 -641 296.5 -649.5 Q 279 -658 260 -661.5 Q 241 -665 221 -665 L 142 -665 Z " id="path54"/>
<path d="M 72 0 L 72 -735 L 436 -735 L 436 -665 L 150 -665 L 150 -417 L 380 -417 L 380 -347 L 150 -347 L 150 -70 L 436 -70 L 436 0 Z " id="path55"/>
<path d="M 96 0 L 96 -735 L 436 -735 L 436 -665 L 174 -665 L 174 -417 L 380 -417 L 380 -347 L 174 -347 L 174 0 Z " id="path56"/>
<path d="M 219 8 Q 194 8 170 1.5 Q 146 -5 126 -19.5 Q 106 -34 92 -54.5 Q 78 -75 70 -98 Q 62 -121 59 -145.5 Q 56 -170 56 -195 L 56 -540 Q 56 -566 60 -592.5 Q 64 -619 75 -643 Q 86 -667 104 -687 Q 122 -707 145 -720 Q 168 -733 194.5 -738 Q 221 -743 247 -743 Q 272 -743 296.5 -739 Q 321 -735 343.5 -724 Q 366 -713 384.5 -696 Q 403 -679 414.5 -657 Q 426 -635 432 -611 Q 438 -587 438 -562 L 438 -559 L 360 -559 L 360 -561 Q 360 -583 352.5 -605 Q 345 -627 329.5 -643 Q 314 -659 292 -666 Q 270 -673 247 -673 Q 222 -673 198.5 -663.5 Q 175 -654 160 -634 Q 145 -614 139.5 -589.5 Q 134 -565 134 -540 L 134 -195 Q 134 -178 136 -161.5 Q 138 -145 144.5 -129.5 Q 151 -114 161.5 -101 Q 172 -88 186 -79 Q 200 -70 216.5 -66 Q 233 -62 249 -62 Q 265 -62 281.5 -66 Q 298 -70 311 -79.5 Q 324 -89 333.5 -102.5 Q 343 -116 348.5 -131 Q 354 -146 356 -162.5 Q 358 -179 358 -195 L 358 -330 L 250 -330 L 250 -400 L 436 -400 L 436 0 L 367 0 L 367 -115 Q 360 -90 347.5 -66.5 Q 335 -43 315.5 -25.5 Q 296 -8 270.5 0 Q 245 8 219 8 Z " id="path57"/>
<path d="M 64 0 L 64 -735 L 142 -735 L 142 -415 L 358 -415 L 358 -735 L 436 -735 L 436 0 L 358 0 L 358 -345 L 142 -345 L 142 0 Z " id="path58"/>
<path d="M 75 0 L 75 -70 L 211 -70 L 211 -665 L 75 -665 L 75 -735 L 425 -735 L 425 -665 L 289 -665 L 289 -70 L 425 -70 L 425 0 Z " id="path59"/>
<path d="M 228 8 Q 204 8 180 3.5 Q 156 -1 134.5 -12 Q 113 -23 96 -41 Q 79 -59 68 -80.5 Q 57 -102 51.5 -126 Q 46 -150 46 -174 L 46 -176 L 124 -176 L 124 -175 Q 124 -153 130.5 -131.5 Q 137 -110 151 -94 Q 165 -78 186 -70 Q 207 -62 228 -62 Q 245 -62 260.5 -66 Q 276 -70 289 -80 Q 302 -90 311 -103.5 Q 320 -117 325 -132 Q 330 -147 332 -163 Q 334 -179 334 -195 L 334 -665 L 198 -665 L 198 -735 L 412 -735 L 412 -195 Q 412 -169 408 -143.5 Q 404 -118 394 -94 Q 384 -70 367 -49.5 Q 350 -29 328 -16 Q 306 -3 280 2.5 Q 254 8 228 8 Z " id="path60"/>
<path d="M 80 0 L 80 -735 L 157 -735 L 157 -398 L 357 -735 L 445 -735 L 247 -402 L 445 0 L 361 0 L 201 -324 L 157 -252 L 157 0 Z " id="path61"/>
<path d="M 96 0 L 96 -735 L 174 -735 L 174 -70 L 442 -70 L 442 0 Z " id="path62"/>
<path d="M 48 0 L 48 -735 L 142 -735 L 250 -332 L 358 -735 L 452 -735 L 452 0 L 374 0 L 374 -147 Q 374 -262 377.5 -376.5 Q 381 -491 383 -605 L 280 -221 L 220 -221 L 117 -605 Q 119 -491 122.5 -376.5 Q 126 -262 126 -147 L 126 0 Z " id="path63"/>
<path d="M 64 0 L 64 -735 L 160 -735 Q 212 -583 263.5 -431.5 Q 315 -280 367 -128 Q 365 -207 361.5 -285 Q 358 -363 358 -441 L 358 -735 L 436 -735 L 436 0 L 340 0 L 133 -607 Q 135 -528 138.5 -450 Q 142 -372 142 -294 L 142 0 Z " id="path64"/>
<path d="M 250 8 Q 223 8 196.5 3 Q 170 -2 147 -14.5 Q 124 -27 105.5 -47 Q 87 -67 76 -91.5 Q 65 -116 60.5 -142 Q 56 -168 56 -195 L 56 -540 Q 56 -567 60.5 -593 Q 65 -619 76 -643.5 Q 87 -668 105.5 -688 Q 124 -708 147 -720.5 Q 170 -733 196.5 -738 Q 223 -743 250 -743 Q 277 -743 303.5 -738 Q 330 -733 353 -720.5 Q 376 -708 394.5 -688 Q 413 -668 424 -643.5 Q 435 -619 439.5 -593 Q 444 -567 444 -540 L 444 -195 Q 444 -168 439.5 -142 Q 435 -116 424 -91.5 Q 413 -67 394.5 -47 Q 376 -27 353 -14.5 Q 330 -2 303.5 3 Q 277 8 250 8 Z M 250 -62 Q 267 -62 283.5 -65.5 Q 300 -69 314 -78 Q 328 -87 338.5 -100.5 Q 349 -114 355.5 -129.5 Q 362 -145 364 -161.5 Q 366 -178 366 -195 L 366 -540 Q 366 -557 364 -573.5 Q 362 -590 355.5 -605.5 Q 349 -621 338.5 -634.5 Q 328 -648 314 -657 Q 300 -666 283.5 -669.5 Q 267 -673 250 -673 Q 233 -673 216.5 -669.5 Q 200 -666 186 -657 Q 172 -648 161.5 -634.5 Q 151 -621 144.5 -605.5 Q 138 -590 136 -573.5 Q 134 -557 134 -540 L 134 -195 Q 134 -178 136 -161.5 Q 138 -145 144.5 -129.5 Q 151 -114 161.5 -100.5 Q 172 -87 186 -78 Q 200 -69 216.5 -65.5 Q 233 -62 250 -62 Z " id="path65"/>
<path d="M 80 0 L 80 -735 L 256 -735 Q 283 -735 310.5 -729.5 Q 338 -724 362 -710 Q 386 -696 404 -674.5 Q 422 -653 433 -627.5 Q 444 -602 448 -574.5 Q 452 -547 452 -520 Q 452 -492 448 -464.5 Q 444 -437 433 -411.5 Q 422 -386 404 -364.5 Q 386 -343 362 -329 Q 338 -315 310.5 -309.5 Q 283 -304 256 -304 L 158 -304 L 158 0 Z M 158 -374 L 256 -374 Q 274 -374 291 -378.5 Q 308 -383 322.5 -393 Q 337 -403 347.5 -418 Q 358 -433 364 -449.5 Q 370 -466 372 -484 Q 374 -502 374 -520 Q 374 -537 372 -555 Q 370 -573 364 -589.5 Q 358 -606 347.5 -621 Q 337 -636 322.5 -646 Q 308 -656 291 -660.5 Q 274 -665 256 -665 L 158 -665 Z " id="path66"/>
<path d="M 381 165 Q 359 165 337.5 161.5 Q 316 158 296.5 148.5 Q 277 139 261 123.5 Q 245 108 235 89 Q 225 70 220.5 49 Q 216 28 216 6 Q 192 3 169.5 -5 Q 147 -13 128 -27 Q 109 -41 94.5 -60.5 Q 80 -80 71 -102 Q 62 -124 59 -147.5 Q 56 -171 56 -195 L 56 -540 Q 56 -567 60.5 -593 Q 65 -619 76 -643.5 Q 87 -668 105.5 -688 Q 124 -708 147 -720.5 Q 170 -733 196.5 -738 Q 223 -743 250 -743 Q 277 -743 303.5 -738 Q 330 -733 353 -720.5 Q 376 -708 394.5 -688 Q 413 -668 424 -643.5 Q 435 -619 439.5 -593 Q 444 -567 444 -540 L 444 -195 Q 444 -172 441 -149 Q 438 -126 430 -104.5 Q 422 -83 408.5 -64 Q 395 -45 377 -30.5 Q 359 -16 337.5 -7.5 Q 316 1 293 5 Q 294 23 299 40 Q 304 57 316 70 Q 328 83 345.5 89 Q 363 95 381 95 L 420 95 L 420 165 Z M 250 -62 Q 267 -62 283.5 -65.5 Q 300 -69 314 -78 Q 328 -87 338.5 -100.5 Q 349 -114 355.5 -129.5 Q 362 -145 364 -161.5 Q 366 -178 366 -195 L 366 -540 Q 366 -557 364 -573.5 Q 362 -590 355.5 -605.5 Q 349 -621 338.5 -634.5 Q 328 -648 314 -657 Q 300 -666 283.5 -669.5 Q 267 -673 250 -673 Q 233 -673 216.5 -669.5 Q 200 -666 186 -657 Q 172 -648 161.5 -634.5 Q 151 -621 144.5 -605.5 Q 138 -590 136 -573.5 Q 134 -557 134 -540 L 134 -195 Q 134 -178 136 -161.5 Q 138 -145 144.5 -129.5 Q 151 -114 161.5 -100.5 Q 172 -87 186 -78 Q 200 -69 216.5 -65.5 Q 233 -62 250 -62 Z " id="path67"/>
<path d="M 64 0 L 64 -735 L 256 -735 Q 283 -735 309.5 -729 Q 336 -723 359 -708.5 Q 382 -694 399 -672.5 Q 416 -651 426.5 -626 Q 437 -601 440.5 -574 Q 444 -547 444 -520 Q 444 -486 438 -452 Q 432 -418 415 -389 Q 398 -360 370.5 -339 Q 343 -318 310 -309 L 460 0 L 375 0 L 228 -304 L 142 -304 L 142 0 Z M 142 -374 L 256 -374 Q 273 -374 290 -379 Q 307 -384 320.5 -394.5 Q 334 -405 343 -420 Q 352 -435 357 -451.5 Q 362 -468 364 -485 Q 366 -502 366 -520 Q 366 -537 364 -554 Q 362 -571 357 -587.5 Q 352 -604 343 -619 Q 334 -634 320.5 -644.5 Q 307 -655 290 -660 Q 273 -665 256 -665 L 142 -665 Z " id="path68"/>
<path d="M 249 8 Q 224 8 199.5 4 Q 175 -0 152 -10 Q 129 -20 110.5 -36.5 Q 92 -53 79 -74.5 Q 66 -96 60 -120.5 Q 54 -145 54 -170 L 54 -174 L 132 -174 L 132 -171 Q 132 -148 140 -126.5 Q 148 -105 165 -90 Q 182 -75 204 -68.5 Q 226 -62 249 -62 Q 272 -62 295 -69 Q 318 -76 334.5 -92.5 Q 351 -109 359 -132 Q 367 -155 367 -178 Q 367 -204 356.5 -228 Q 346 -252 328 -270.5 Q 310 -289 288 -302.5 Q 266 -316 243 -328 Q 220 -340 198 -353 Q 176 -366 156 -382 Q 136 -398 118.5 -417 Q 101 -436 89 -459 Q 77 -482 70.5 -507 Q 64 -532 64 -558 Q 64 -582 69.5 -606.5 Q 75 -631 86.5 -653 Q 98 -675 115.5 -693 Q 133 -711 155 -722.5 Q 177 -734 201.5 -738.5 Q 226 -743 251 -743 Q 275 -743 299.5 -739 Q 324 -735 346 -724.5 Q 368 -714 385.5 -697 Q 403 -680 415 -658.5 Q 427 -637 432.5 -613 Q 438 -589 438 -565 L 438 -561 L 360 -561 L 360 -564 Q 360 -585 353 -606.5 Q 346 -628 331 -643.5 Q 316 -659 294.5 -666 Q 273 -673 251 -673 Q 229 -673 207 -665 Q 185 -657 170 -640.5 Q 155 -624 148 -602 Q 141 -580 141 -557 Q 141 -532 151.5 -507.5 Q 162 -483 179.5 -464.5 Q 197 -446 219.5 -432.5 Q 242 -419 264.5 -407.5 Q 287 -396 309.5 -382.5 Q 332 -369 352 -353 Q 372 -337 389 -318 Q 406 -299 418.5 -276.5 Q 431 -254 437.5 -228.5 Q 444 -203 444 -178 Q 444 -152 438 -127.5 Q 432 -103 420 -80.5 Q 408 -58 389 -40.5 Q 370 -23 347.5 -12 Q 325 -1 299.5 3.5 Q 274 8 249 8 Z " id="path69"/>
<path d="M 211 0 L 211 -665 L 58 -665 L 58 -735 L 442 -735 L 442 -665 L 289 -665 L 289 0 Z " id="path70"/>
<path d="M 250 8 Q 224 8 198 2.5 Q 172 -3 149.5 -16 Q 127 -29 110 -49 Q 93 -69 82.5 -93 Q 72 -117 68 -143 Q 64 -169 64 -195 L 64 -735 L 142 -735 L 142 -195 Q 142 -179 144 -162.5 Q 146 -146 151.5 -131 Q 157 -116 166 -102.5 Q 175 -89 188.5 -79.5 Q 202 -70 218 -66 Q 234 -62 250 -62 Q 266 -62 282 -66 Q 298 -70 311.5 -79.5 Q 325 -89 334 -102.5 Q 343 -116 348.5 -131 Q 354 -146 356 -162.5 Q 358 -179 358 -195 L 358 -735 L 436 -735 L 436 -195 Q 436 -169 432 -143 Q 428 -117 417.5 -93 Q 407 -69 390 -49 Q 373 -29 350.5 -16 Q 328 -3 302 2.5 Q 276 8 250 8 Z " id="path71"/>
<path d="M 205 0 L 44 -735 L 124 -735 L 224 -245 Q 231 -213 237.5 -181 Q 244 -149 250 -117 Q 256 -149 262.5 -181 Q 269 -213 276 -245 L 376 -735 L 456 -735 L 295 0 Z " id="path72"/>
<path d="M 117 0 L 32 -735 L 110 -735 L 158 -106 L 211 -529 L 289 -529 L 342 -106 L 390 -735 L 468 -735 L 383 0 L 306 0 L 250 -394 L 194 0 Z " id="path73"/>
<path d="M 48 0 L 210 -368 L 48 -735 L 133 -735 L 250 -462 L 367 -735 L 452 -735 L 290 -367 L 452 0 L 367 0 L 250 -273 L 133 0 Z " id="path74"/>
<path d="M 211 0 L 211 -292 L 45 -735 L 128 -735 L 250 -402 L 372 -735 L 455 -735 L 289 -292 L 289 0 Z " id="path75"/>
<path d="M 64 0 L 64 -70 L 347 -665 L 64 -665 L 64 -735 L 436 -735 L 436 -665 L 153 -70 L 436 -70 L 436 0 Z " id="path76"/>
<path d="M 123 143 L 123 -823 L 399 -823 L 399 -753 L 201 -753 L 201 73 L 399 73 L 399 143 Z " id="path77"/>
<path d="M 361 143 L 59 -823 L 139 -823 L 441 143 Z " id="path78"/>
<path d="M 101 143 L 101 73 L 299 73 L 299 -753 L 101 -753 L 101 -823 L 377 -823 L 377 143 Z " id="path79"/>
<path d="M 394 -450 L 250 -661 L 106 -450 L 39 -493 L 207 -724 L 293 -724 L 377 -608 L 461 -493 Z " id="path80"/>
<path d="M 64 70 L 64 0 L 436 0 L 436 70 Z " id="path81"/>
<path d="M 270 -542 L 92 -755 L 160 -802 L 325 -581 Z " id="path82"/>
<path d="M 202 8 Q 172 8 143 -1 Q 114 -10 93.5 -32 Q 73 -54 64.5 -83 Q 56 -112 56 -142 Q 56 -167 62.5 -192 Q 69 -217 85 -237 Q 101 -257 122.5 -270.5 Q 144 -284 168.5 -292 Q 193 -300 218 -303 Q 243 -306 269 -306 L 358 -306 L 358 -355 Q 358 -376 351 -397 Q 344 -418 328 -432 Q 312 -446 291 -452 Q 270 -458 249 -458 Q 229 -458 209.5 -454 Q 190 -450 174 -439 Q 158 -428 149 -410 Q 140 -392 140 -373 L 62 -373 Q 62 -396 68.5 -418 Q 75 -440 88 -459 Q 101 -478 119.5 -491.5 Q 138 -505 159 -513.5 Q 180 -522 203 -525 Q 226 -528 249 -528 Q 273 -528 297 -524.5 Q 321 -521 343 -511 Q 365 -501 383.5 -485 Q 402 -469 414 -448 Q 426 -427 431 -403 Q 436 -379 436 -355 L 436 0 L 358 0 L 358 -86 Q 349 -64 332.5 -45.5 Q 316 -27 295 -14.5 Q 274 -2 250 3 Q 226 8 202 8 Z M 232 -62 Q 256 -62 280.5 -68.5 Q 305 -75 323 -91.5 Q 341 -108 349.5 -131.5 Q 358 -155 358 -180 L 358 -236 L 269 -236 Q 254 -236 238.5 -234.5 Q 223 -233 208.5 -229.5 Q 194 -226 180 -219.5 Q 166 -213 155 -203 Q 144 -193 139 -178.5 Q 134 -164 134 -149 Q 134 -131 141 -113 Q 148 -95 162 -83 Q 176 -71 194.5 -66.5 Q 213 -62 232 -62 Z " id="path83"/>
<path d="M 281 8 Q 258 8 235.5 2 Q 213 -4 194.5 -17.5 Q 176 -31 163 -50.5 Q 150 -70 142 -91 L 142 0 L 64 0 L 64 -735 L 142 -735 L 142 -429 Q 150 -450 163 -469.5 Q 176 -489 194.5 -502.5 Q 213 -516 235.5 -522 Q 258 -528 281 -528 Q 306 -528 330.5 -521 Q 355 -514 375 -499 Q 395 -484 408.5 -463 Q 422 -442 430 -418.5 Q 438 -395 441 -370 Q 444 -345 444 -320 L 444 -200 Q 444 -175 441 -150 Q 438 -125 430 -101.5 Q 422 -78 408.5 -57 Q 395 -36 375 -21 Q 355 -6 330.5 1 Q 306 8 281 8 Z M 251 -62 Q 268 -62 284.5 -66 Q 301 -70 315 -79.5 Q 329 -89 339.5 -103 Q 350 -117 356 -133 Q 362 -149 364 -166 Q 366 -183 366 -200 L 366 -320 Q 366 -337 364 -354 Q 362 -371 356 -387 Q 350 -403 339.5 -417 Q 329 -431 315 -440.5 Q 301 -450 284.5 -454 Q 268 -458 251 -458 Q 234 -458 217.5 -454 Q 201 -450 188 -440 Q 175 -430 165.5 -415.5 Q 156 -401 151 -385.5 Q 146 -370 144 -353.5 Q 142 -337 142 -320 L 142 -200 Q 142 -183 144 -166.5 Q 146 -150 151 -134.5 Q 156 -119 165.5 -104.5 Q 175 -90 188 -80 Q 201 -70 217.5 -66 Q 234 -62 251 -62 Z " id="path84"/>
<path d="M 247 8 Q 221 8 194 2.5 Q 167 -3 144 -16.5 Q 121 -30 103.5 -50.5 Q 86 -71 75 -95.5 Q 64 -120 60 -146.5 Q 56 -173 56 -200 L 56 -320 Q 56 -347 60 -373.5 Q 64 -400 75 -424.5 Q 86 -449 103.5 -469.5 Q 121 -490 144 -503.5 Q 167 -517 194 -522.5 Q 221 -528 247 -528 Q 272 -528 297 -523.5 Q 322 -519 344.5 -508 Q 367 -497 385 -479.5 Q 403 -462 415 -440 Q 427 -418 432.5 -393.5 Q 438 -369 438 -344 L 438 -342 L 360 -342 L 360 -343 Q 360 -366 353 -388 Q 346 -410 330 -426.5 Q 314 -443 292 -450.5 Q 270 -458 247 -458 Q 230 -458 213.5 -454 Q 197 -450 183 -440 Q 169 -430 159.5 -416 Q 150 -402 144 -386.5 Q 138 -371 136 -354 Q 134 -337 134 -320 L 134 -200 Q 134 -183 136 -166 Q 138 -149 144 -133.5 Q 150 -118 159.5 -104 Q 169 -90 183 -80 Q 197 -70 213.5 -66 Q 230 -62 247 -62 Q 270 -62 292 -69.5 Q 314 -77 330 -93.5 Q 346 -110 353 -132 Q 360 -154 360 -177 L 360 -178 L 438 -178 L 438 -176 Q 438 -151 432.5 -126.5 Q 427 -102 415 -80 Q 403 -58 385 -40.5 Q 367 -23 344.5 -12 Q 322 -1 297 3.5 Q 272 8 247 8 Z " id="path85"/>
<path d="M 219 8 Q 194 8 169.5 1 Q 145 -6 125 -21 Q 105 -36 91.5 -57 Q 78 -78 70 -101.5 Q 62 -125 59 -150 Q 56 -175 56 -200 L 56 -320 Q 56 -345 59 -370 Q 62 -395 70 -418.5 Q 78 -442 91.5 -463 Q 105 -484 125 -499 Q 145 -514 169.5 -521 Q 194 -528 219 -528 Q 242 -528 264.5 -522 Q 287 -516 305.5 -502.5 Q 324 -489 337 -469.5 Q 350 -450 358 -429 L 358 -735 L 436 -735 L 436 0 L 358 0 L 358 -91 Q 350 -70 337 -50.5 Q 324 -31 305.5 -17.5 Q 287 -4 264.5 2 Q 242 8 219 8 Z M 249 -62 Q 266 -62 282.5 -66 Q 299 -70 312 -80 Q 325 -90 334.5 -104.5 Q 344 -119 349 -134.5 Q 354 -150 356 -166.5 Q 358 -183 358 -200 L 358 -320 Q 358 -337 356 -353.5 Q 354 -370 349 -385.5 Q 344 -401 334.5 -415.5 Q 325 -430 312 -440 Q 299 -450 282.5 -454 Q 266 -458 249 -458 Q 232 -458 215.5 -454 Q 199 -450 185 -440.5 Q 171 -431 160.5 -417 Q 150 -403 144 -387 Q 138 -371 136 -354 Q 134 -337 134 -320 L 134 -200 Q 134 -183 136 -166 Q 138 -149 144 -133 Q 150 -117 160.5 -103 Q 171 -89 185 -79.5 Q 199 -70 215.5 -66 Q 232 -62 249 -62 Z " id="path86"/>
<path d="M 252 8 Q 225 8 198 3 Q 171 -2 147.5 -15.5 Q 124 -29 105.5 -49.5 Q 87 -70 75.5 -94.5 Q 64 -119 60 -146 Q 56 -173 56 -200 L 56 -320 Q 56 -347 60 -374 Q 64 -401 75 -425.5 Q 86 -450 104.5 -470.5 Q 123 -491 146 -504 Q 169 -517 196 -522.5 Q 223 -528 250 -528 Q 277 -528 304 -522.5 Q 331 -517 354 -504 Q 377 -491 395.5 -470.5 Q 414 -450 425 -425.5 Q 436 -401 440 -374 Q 444 -347 444 -320 L 444 -225 L 134 -225 L 134 -200 Q 134 -183 136 -166 Q 138 -149 144.5 -133 Q 151 -117 161.5 -103 Q 172 -89 186.5 -79.5 Q 201 -70 218 -66 Q 235 -62 252 -62 Q 271 -62 290.5 -66 Q 310 -70 326 -80 Q 342 -90 352.5 -107 Q 363 -124 364 -144 L 442 -144 Q 441 -121 433.5 -99.5 Q 426 -78 412.5 -59.5 Q 399 -41 380.5 -27.5 Q 362 -14 341 -6 Q 320 2 297 5 Q 274 8 252 8 Z M 366 -295 L 366 -320 Q 366 -337 364 -354 Q 362 -371 356 -387 Q 350 -403 339.5 -417 Q 329 -431 315 -440.5 Q 301 -450 284 -454 Q 267 -458 250 -458 Q 233 -458 216 -454 Q 199 -450 185 -440.5 Q 171 -431 160.5 -417 Q 150 -403 144 -387 Q 138 -371 136 -354 Q 134 -337 134 -320 L 134 -295 Z " id="path87"/>
<path d="M 175 0 L 175 -402 L 64 -402 L 64 -473 L 175 -473 L 175 -579 Q 175 -599 177.5 -619.5 Q 180 -640 187.5 -659 Q 195 -678 207 -695 Q 219 -712 236.5 -723 Q 254 -734 274 -738.5 Q 294 -743 314 -743 Q 342 -743 369.5 -734.5 Q 397 -726 416 -705.5 Q 435 -685 444 -658 Q 453 -631 453 -603 L 453 -595 L 375 -595 L 375 -599 Q 375 -613 372 -626 Q 369 -639 361 -650.5 Q 353 -662 340.5 -667.5 Q 328 -673 314 -673 Q 298 -673 284.5 -664 Q 271 -655 264 -641 Q 257 -627 254.5 -611 Q 252 -595 252 -579 L 252 -473 L 417 -473 L 417 -403 L 252 -403 L 252 0 Z " id="path88"/>
<path d="M 247 223 Q 224 223 201.5 219.5 Q 179 216 158 207.5 Q 137 199 119 184.5 Q 101 170 88.5 151 Q 76 132 69.5 110 Q 63 88 62 65 L 140 65 Q 141 85 149.5 102.5 Q 158 120 173.5 132 Q 189 144 208 148.5 Q 227 153 247 153 Q 264 153 280.5 149 Q 297 145 310.5 135 Q 324 125 333.5 111 Q 343 97 348.5 81 Q 354 65 356 48.5 Q 358 32 358 15 L 358 -91 Q 350 -70 337 -50.5 Q 324 -31 305.5 -17.5 Q 287 -4 264.5 2 Q 242 8 219 8 Q 194 8 169.5 1 Q 145 -6 125 -21 Q 105 -36 91.5 -57 Q 78 -78 70 -101.5 Q 62 -125 59 -150 Q 56 -175 56 -200 L 56 -320 Q 56 -345 59 -370 Q 62 -395 70 -418.5 Q 78 -442 91.5 -463 Q 105 -484 125 -499 Q 145 -514 169.5 -521 Q 194 -528 219 -528 Q 242 -528 264.5 -522 Q 287 -516 305.5 -502.5 Q 324 -489 337 -469.5 Q 350 -450 358 -429 L 358 -520 L 436 -520 L 436 15 Q 436 42 432 68.5 Q 428 95 417.5 119.5 Q 407 144 389.5 164.5 Q 372 185 349 198.5 Q 326 212 299.5 217.5 Q 273 223 247 223 Z M 249 -62 Q 266 -62 282.5 -66 Q 299 -70 312 -80 Q 325 -90 334.5 -104.5 Q 344 -119 349 -134.5 Q 354 -150 356 -166.5 Q 358 -183 358 -200 L 358 -320 Q 358 -337 356 -353.5 Q 354 -370 349 -385.5 Q 344 -401 334.5 -415.5 Q 325 -430 312 -440 Q 299 -450 282.5 -454 Q 266 -458 249 -458 Q 232 -458 215.5 -454 Q 199 -450 185 -440.5 Q 171 -431 160.5 -417 Q 150 -403 144 -387 Q 138 -371 136 -354 Q 134 -337 134 -320 L 134 -200 Q 134 -183 136 -166 Q 138 -149 144 -133 Q 150 -117 160.5 -103 Q 171 -89 185 -79.5 Q 199 -70 215.5 -66 Q 232 -62 249 -62 Z " id="path89"/>
<path d="M 64 0 L 64 -735 L 142 -735 L 142 -429 Q 150 -450 163 -469 Q 176 -488 194.5 -502 Q 213 -516 235.5 -522 Q 258 -528 280 -528 Q 305 -528 329 -521 Q 353 -514 371.5 -498.5 Q 390 -483 403 -461.5 Q 416 -440 423.5 -416.5 Q 431 -393 433.5 -368.5 Q 436 -344 436 -320 L 436 0 L 358 0 L 358 -320 Q 358 -337 356 -353.5 Q 354 -370 349 -385.5 Q 344 -401 334.5 -415 Q 325 -429 312 -439 Q 299 -449 283 -453.5 Q 267 -458 250 -458 Q 233 -458 217 -453.5 Q 201 -449 188 -439 Q 175 -429 165.5 -415 Q 156 -401 151 -385.5 Q 146 -370 144 -353.5 Q 142 -337 142 -320 L 142 0 Z " id="path90"/>
<path d="M 75 0 L 75 -70 L 218 -70 L 218 -450 L 89 -450 L 89 -520 L 296 -520 L 296 -70 L 425 -70 L 425 0 Z M 257 -608 Q 244 -608 232 -611.5 Q 220 -615 211 -624 Q 202 -633 198.5 -645 Q 195 -657 195 -670 Q 195 -683 198.5 -695 Q 202 -707 211 -716 Q 220 -725 232 -729 Q 244 -733 257 -733 Q 270 -733 282 -729 Q 294 -725 303 -716 Q 312 -707 316 -695 Q 320 -683 320 -670 Q 320 -657 316 -645 Q 312 -633 303 -624 Q 294 -615 282 -611.5 Q 270 -608 257 -608 Z " id="path91"/>
<path d="M 185 223 Q 163 223 141 218.5 Q 119 214 99.5 203.5 Q 80 193 65 176.5 Q 50 160 40 140 Q 30 120 25.5 98.5 Q 21 77 20 55 L 98 55 Q 98 73 103.5 91 Q 109 109 120 123.5 Q 131 138 148.5 145.5 Q 166 153 185 153 Q 200 153 214.5 147.5 Q 229 142 239.5 131.5 Q 250 121 257 107.5 Q 264 94 267.5 79.5 Q 271 65 272.5 50 Q 274 35 274 20 L 274 -450 L 138 -450 L 138 -520 L 352 -520 L 352 20 Q 352 45 349 69.5 Q 346 94 337 117.5 Q 328 141 313.5 161.5 Q 299 182 279 196.5 Q 259 211 234.5 217 Q 210 223 185 223 Z M 300 -608 Q 287 -608 275 -611.5 Q 263 -615 254 -624 Q 245 -633 241.5 -645 Q 238 -657 238 -670 Q 238 -683 241.5 -695 Q 245 -707 254 -716 Q 263 -725 275 -729 Q 287 -733 300 -733 Q 313 -733 325 -729 Q 337 -725 346 -716 Q 355 -707 359 -695 Q 363 -683 363 -670 Q 363 -657 359 -645 Q 355 -633 346 -624 Q 337 -615 325 -611.5 Q 313 -608 300 -608 Z " id="path92"/>
<path d="M 80 0 L 80 -735 L 157 -735 L 157 -278 L 348 -520 L 443 -520 L 256 -283 L 443 0 L 353 0 L 207 -221 L 157 -158 L 157 0 Z " id="path93"/>
<path d="M 75 0 L 75 -70 L 218 -70 L 218 -665 L 89 -665 L 89 -735 L 296 -735 L 296 -70 L 425 -70 L 425 0 Z " id="path94"/>
<path d="M 48 0 L 48 -520 L 126 -520 L 126 -478 Q 131 -489 138 -498.5 Q 145 -508 154.5 -515 Q 164 -522 175.5 -525 Q 187 -528 199 -528 Q 214 -528 228 -523 Q 242 -518 252.5 -508 Q 263 -498 270 -485 Q 277 -472 281 -457 Q 285 -471 292 -484.5 Q 299 -498 309.5 -508 Q 320 -518 333.5 -523 Q 347 -528 362 -528 Q 377 -528 391.5 -522.5 Q 406 -517 417 -506.5 Q 428 -496 434.5 -482 Q 441 -468 445 -453.5 Q 449 -439 450.5 -424 Q 452 -409 452 -394 L 452 0 L 374 0 L 374 -394 Q 374 -405 372.5 -415.5 Q 371 -426 366 -436 Q 361 -446 351.5 -452 Q 342 -458 331 -458 Q 321 -458 311.5 -452 Q 302 -446 297 -436 Q 292 -426 290.5 -415.5 Q 289 -405 289 -394 L 289 0 L 211 0 L 211 -394 Q 211 -405 209.5 -415.5 Q 208 -426 203 -436 Q 198 -446 188.5 -452 Q 179 -458 169 -458 Q 158 -458 148.5 -452 Q 139 -446 134 -436 Q 129 -426 127.5 -415.5 Q 126 -405 126 -394 L 126 0 Z " id="path95"/>
<path d="M 64 0 L 64 -520 L 142 -520 L 142 -429 Q 150 -450 163 -469 Q 176 -488 194.5 -502 Q 213 -516 235.5 -522 Q 258 -528 280 -528 Q 305 -528 329 -521 Q 353 -514 371.5 -498.5 Q 390 -483 403 -461.5 Q 416 -440 423.5 -416.5 Q 431 -393 433.5 -368.5 Q 436 -344 436 -320 L 436 0 L 358 0 L 358 -320 Q 358 -337 356 -353.5 Q 354 -370 349 -385.5 Q 344 -401 334.5 -415 Q 325 -429 312 -439 Q 299 -449 283 -453.5 Q 267 -458 250 -458 Q 233 -458 217 -453.5 Q 201 -449 188 -439 Q 175 -429 165.5 -415 Q 156 -401 151 -385.5 Q 146 -370 144 -353.5 Q 142 -337 142 -320 L 142 0 Z " id="path96"/>
<path d="M 250 8 Q 223 8 196 2.5 Q 169 -3 146 -16 Q 123 -29 104.5 -49.5 Q 86 -70 75 -94.5 Q 64 -119 60 -146 Q 56 -173 56 -200 L 56 -320 Q 56 -347 60 -374 Q 64 -401 75 -425.5 Q 86 -450 104.5 -470.5 Q 123 -491 146 -504 Q 169 -517 196 -522.5 Q 223 -528 250 -528 Q 277 -528 304 -522.5 Q 331 -517 354 -504 Q 377 -491 395.5 -470.5 Q 414 -450 425 -425.5 Q 436 -401 440 -374 Q 444 -347 444 -320 L 444 -200 Q 444 -173 440 -146 Q 436 -119 425 -94.5 Q 414 -70 395.5 -49.5 Q 377 -29 354 -16 Q 331 -3 304 2.5 Q 277 8 250 8 Z M 250 -62 Q 267 -62 284 -66 Q 301 -70 315 -79.5 Q 329 -89 339.5 -103 Q 350 -117 356 -133 Q 362 -149 364 -166 Q 366 -183 366 -200 L 366 -320 Q 366 -337 364 -354 Q 362 -371 356 -387 Q 350 -403 339.5 -417 Q 329 -431 315 -440.5 Q 301 -450 284 -454 Q 267 -458 250 -458 Q 233 -458 216 -454 Q 199 -450 185 -440.5 Q 171 -431 160.5 -417 Q 150 -403 144 -387 Q 138 -371 136 -354 Q 134 -337 134 -320 L 134 -200 Q 134 -183 136 -166 Q 138 -149 144 -133 Q 150 -117 160.5 -103 Q 171 -89 185 -79.5 Q 199 -70 216 -66 Q 233 -62 250 -62 Z " id="path97"/>
<path d="M 64 215 L 64 -520 L 142 -520 L 142 -429 Q 150 -450 163 -469.5 Q 176 -489 194.5 -502.5 Q 213 -516 235.5 -522 Q 258 -528 281 -528 Q 306 -528 330.5 -521 Q 355 -514 375 -499 Q 395 -484 408.5 -463 Q 422 -442 430 -418.5 Q 438 -395 441 -370 Q 444 -345 444 -320 L 444 -200 Q 444 -175 441 -150 Q 438 -125 430 -101.5 Q 422 -78 408.5 -57 Q 395 -36 375 -21 Q 355 -6 330.5 1 Q 306 8 281 8 Q 258 8 235.5 2 Q 213 -4 194.5 -17.5 Q 176 -31 163 -50.5 Q 150 -70 142 -91 L 142 215 Z M 251 -62 Q 268 -62 284.5 -66 Q 301 -70 315 -79.5 Q 329 -89 339.5 -103 Q 350 -117 356 -133 Q 362 -149 364 -166 Q 366 -183 366 -200 L 366 -320 Q 366 -337 364 -354 Q 362 -371 356 -387 Q 350 -403 339.5 -417 Q 329 -431 315 -440.5 Q 301 -450 284.5 -454 Q 268 -458 251 -458 Q 234 -458 217.5 -454 Q 201 -450 188 -440 Q 175 -430 165.5 -415.5 Q 156 -401 151 -385.5 Q 146 -370 144 -353.5 Q 142 -337 142 -320 L 142 -200 Q 142 -183 144 -166.5 Q 146 -150 151 -134.5 Q 156 -119 165.5 -104.5 Q 175 -90 188 -80 Q 201 -70 217.5 -66 Q 234 -62 251 -62 Z " id="path98"/>
<path d="M 358 215 L 358 -91 Q 350 -70 337 -50.5 Q 324 -31 305.5 -17.5 Q 287 -4 264.5 2 Q 242 8 219 8 Q 194 8 169.5 1 Q 145 -6 125 -21 Q 105 -36 91.5 -57 Q 78 -78 70 -101.5 Q 62 -125 59 -150 Q 56 -175 56 -200 L 56 -320 Q 56 -345 59 -370 Q 62 -395 70 -418.5 Q 78 -442 91.5 -463 Q 105 -484 125 -499 Q 145 -514 169.5 -521 Q 194 -528 219 -528 Q 242 -528 264.5 -522 Q 287 -516 305.5 -502.5 Q 324 -489 337 -469.5 Q 350 -450 358 -429 L 358 -520 L 436 -520 L 436 215 Z M 249 -62 Q 266 -62 282.5 -66 Q 299 -70 312 -80 Q 325 -90 334.5 -104.5 Q 344 -119 349 -134.5 Q 354 -150 356 -166.5 Q 358 -183 358 -200 L 358 -320 Q 358 -337 356 -353.5 Q 354 -370 349 -385.5 Q 344 -401 334.5 -415.5 Q 325 -430 312 -440 Q 299 -450 282.5 -454 Q 266 -458 249 -458 Q 232 -458 215.5 -454 Q 199 -450 185 -440.5 Q 171 -431 160.5 -417 Q 150 -403 144 -387 Q 138 -371 136 -354 Q 134 -337 134 -320 L 134 -200 Q 134 -183 136 -166 Q 138 -149 144 -133 Q 150 -117 160.5 -103 Q 171 -89 185 -79.5 Q 199 -70 215.5 -66 Q 232 -62 249 -62 Z " id="path99"/>
<path d="M 124 0 L 124 -520 L 202 -520 L 202 -412 Q 209 -434 219.5 -455 Q 230 -476 246 -493 Q 262 -510 284 -519 Q 306 -528 329 -528 Q 348 -528 366.5 -523.5 Q 385 -519 400 -508.5 Q 415 -498 425 -482 Q 435 -466 441 -448.5 Q 447 -431 449 -412.5 Q 451 -394 451 -375 L 373 -375 Q 373 -390 370.5 -404.5 Q 368 -419 360.5 -432 Q 353 -445 339.5 -451.5 Q 326 -458 311 -458 Q 291 -458 272.5 -449.5 Q 254 -441 241.5 -426 Q 229 -411 221 -392.5 Q 213 -374 209 -354.5 Q 205 -335 203.5 -315 Q 202 -295 202 -276 L 202 0 Z " id="path100"/>
<path d="M 249 8 Q 227 8 205 5.5 Q 183 3 162 -4.5 Q 141 -12 122 -24 Q 103 -36 89.5 -53.5 Q 76 -71 69 -92.5 Q 62 -114 62 -136 L 62 -139 L 140 -139 L 140 -138 Q 140 -119 150.5 -103 Q 161 -87 177 -77.5 Q 193 -68 211.5 -65 Q 230 -62 249 -62 Q 267 -62 285.5 -65 Q 304 -68 320 -76.5 Q 336 -85 347.5 -100.5 Q 359 -116 359 -134 Q 359 -152 349.5 -167.5 Q 340 -183 326 -193 Q 312 -203 295.5 -208.5 Q 279 -214 262 -218 Q 245 -222 228.5 -226 Q 212 -230 195.5 -236 Q 179 -242 163.5 -249.5 Q 148 -257 134 -267.5 Q 120 -278 108.5 -291 Q 97 -304 89 -319.5 Q 81 -335 76.5 -352 Q 72 -369 72 -386 Q 72 -408 78.5 -428.5 Q 85 -449 98 -466.5 Q 111 -484 129 -496 Q 147 -508 167 -515.5 Q 187 -523 208.5 -525.5 Q 230 -528 251 -528 Q 273 -528 294 -525.5 Q 315 -523 335.5 -515.5 Q 356 -508 373.5 -495.5 Q 391 -483 404 -466 Q 417 -449 423.5 -428 Q 430 -407 430 -386 L 430 -383 L 352 -383 L 352 -384 Q 352 -402 343 -417.5 Q 334 -433 319 -442.5 Q 304 -452 286.5 -455 Q 269 -458 251 -458 Q 234 -458 216.5 -455 Q 199 -452 184 -443 Q 169 -434 159 -419 Q 149 -404 149 -386 Q 149 -365 162 -347.5 Q 175 -330 193 -320 Q 211 -310 231.5 -305.5 Q 252 -301 272.5 -296 Q 293 -291 312.5 -284.5 Q 332 -278 350 -267.5 Q 368 -257 384 -243.5 Q 400 -230 411.5 -212.5 Q 423 -195 429.5 -175 Q 436 -155 436 -134 Q 436 -112 429 -91 Q 422 -70 408 -52.5 Q 394 -35 375.5 -23 Q 357 -11 336 -4 Q 315 3 293 5.5 Q 271 8 249 8 Z " id="path101"/>
<path d="M 316 8 Q 294 8 271.5 2.5 Q 249 -3 230.5 -16.5 Q 212 -30 199 -49 Q 186 -68 178.5 -89.5 Q 171 -111 168.5 -133.5 Q 166 -156 166 -179 L 166 -450 L 70 -450 L 70 -520 L 166 -520 L 166 -735 L 244 -735 L 244 -520 L 420 -520 L 420 -450 L 244 -450 L 244 -179 Q 244 -166 245 -153 Q 246 -140 249 -127.5 Q 252 -115 257 -103 Q 262 -91 270.5 -81.5 Q 279 -72 291.5 -67 Q 304 -62 316 -62 Q 328 -62 339.5 -66 Q 351 -70 359.5 -78 Q 368 -86 373.5 -97 Q 379 -108 382.5 -119 Q 386 -130 387.5 -142 Q 389 -154 389 -166 L 389 -172 L 467 -172 L 467 -162 Q 467 -141 463 -119.5 Q 459 -98 451 -78.5 Q 443 -59 429.5 -41.5 Q 416 -24 398 -12.5 Q 380 -1 359 3.5 Q 338 8 316 8 Z " id="path102"/>
<path d="M 220 8 Q 195 8 171 1 Q 147 -6 128.5 -21.5 Q 110 -37 97 -58.5 Q 84 -80 76.5 -103.5 Q 69 -127 66.5 -151.5 Q 64 -176 64 -200 L 64 -520 L 142 -520 L 142 -200 Q 142 -183 144 -166.5 Q 146 -150 151 -134.5 Q 156 -119 165.5 -105 Q 175 -91 188 -81 Q 201 -71 217 -66.5 Q 233 -62 250 -62 Q 267 -62 283 -66.5 Q 299 -71 312 -81 Q 325 -91 334.5 -105 Q 344 -119 349 -134.5 Q 354 -150 356 -166.5 Q 358 -183 358 -200 L 358 -520 L 436 -520 L 436 0 L 358 0 L 358 -91 Q 350 -70 337 -51 Q 324 -32 305.5 -18 Q 287 -4 264.5 2 Q 242 8 220 8 Z " id="path103"/>
<path d="M 205 0 L 44 -520 L 126 -520 L 226 -173 Q 232 -152 238 -131 Q 244 -110 250 -88 Q 256 -110 262 -131 Q 268 -152 274 -173 L 374 -520 L 456 -520 L 295 0 Z " id="path104"/>
<path d="M 117 0 L 32 -520 L 111 -520 L 158 -76 L 211 -374 L 289 -374 L 342 -76 L 389 -520 L 468 -520 L 383 0 L 306 0 L 250 -278 L 194 0 Z " id="path105"/>
<path d="M 53 0 L 207 -260 L 53 -520 L 144 -520 L 250 -334 L 356 -520 L 447 -520 L 293 -260 L 447 0 L 356 0 L 250 -186 L 144 0 Z " id="path106"/>
<path d="M 151 215 Q 160 185 169 154.5 Q 178 124 187 94 L 210 15 L 51 -520 L 132 -520 L 251 -105 L 368 -520 L 449 -520 L 232 215 Z " id="path107"/>
<path d="M 64 0 L 64 -70 L 343 -450 L 64 -450 L 64 -520 L 436 -520 L 436 -450 L 157 -70 L 436 -70 L 436 0 Z " id="path108"/>
<path d="M 399 153 Q 372 153 345 149.5 Q 318 146 292 137 Q 266 128 243 113 Q 220 98 203 77 Q 186 56 178 29.5 Q 170 3 170 -24 Q 170 -47 175.5 -69.5 Q 181 -92 190 -112.5 Q 199 -133 208.5 -154 Q 218 -175 218 -198 Q 218 -214 213.5 -230 Q 209 -246 199.5 -259 Q 190 -272 176 -281.5 Q 162 -291 146.5 -296 Q 131 -301 115 -303 Q 99 -305 83 -305 L 83 -375 Q 99 -375 115 -377 Q 131 -379 146.5 -384 Q 162 -389 176 -398.5 Q 190 -408 199.5 -421 Q 209 -434 213.5 -450 Q 218 -466 218 -482 Q 218 -505 208.5 -526 Q 199 -547 190 -567.5 Q 181 -588 175.5 -610.5 Q 170 -633 170 -656 Q 170 -683 178 -709.5 Q 186 -736 203 -757 Q 220 -778 243 -793 Q 266 -808 292 -817 Q 318 -826 345 -829.5 Q 372 -833 399 -833 L 399 -763 Q 381 -763 364 -761 Q 347 -759 330.5 -754 Q 314 -749 298.5 -740.5 Q 283 -732 271.5 -719 Q 260 -706 254 -689.5 Q 248 -673 248 -656 Q 248 -637 254 -620 Q 260 -603 268 -587 L 269 -585 Q 280 -561 287.5 -535 Q 295 -509 295 -482 Q 295 -459 289 -436 Q 283 -413 269 -394 Q 255 -375 235.5 -361.5 Q 216 -348 195 -340 Q 216 -332 235.5 -318.5 Q 255 -305 269 -286 Q 283 -267 289 -244 Q 295 -221 295 -198 Q 295 -171 287.5 -145 Q 280 -119 269 -95 L 268 -93 Q 260 -77 254 -60 Q 248 -43 248 -24 Q 248 -7 254 9.5 Q 260 26 271.5 39 Q 283 52 298.5 60.5 Q 314 69 330.5 74 Q 347 79 364 81 Q 381 83 399 83 Z " id="path109"/>
<path d="M 211 143 L 211 -823 L 289 -823 L 289 143 Z " id="path110"/>
<path d="M 101 153 L 101 83 Q 119 83 136 81 Q 153 79 169.5 74 Q 186 69 201.5 60.5 Q 217 52 228.5 39 Q 240 26 246 9.5 Q 252 -7 252 -24 Q 252 -43 246 -60 Q 240 -77 232 -93 L 231 -95 Q 220 -119 212.5 -145 Q 205 -171 205 -198 Q 205 -221 211 -244 Q 217 -267 231 -286 Q 245 -305 264.5 -318.5 Q 284 -332 305 -340 Q 284 -348 264.5 -361.5 Q 245 -375 231 -394 Q 217 -413 211 -436 Q 205 -459 205 -482 Q 205 -509 212.5 -535 Q 220 -561 231 -585 L 232 -587 Q 240 -603 246 -620 Q 252 -637 252 -656 Q 252 -673 246 -689.5 Q 240 -706 228.5 -719 Q 217 -732 201.5 -740.5 Q 186 -749 169.5 -754 Q 153 -759 136 -761 Q 119 -763 101 -763 L 101 -833 Q 128 -833 155 -829.5 Q 182 -826 208 -817 Q 234 -808 257 -793 Q 280 -778 297 -757 Q 314 -736 322 -709.5 Q 330 -683 330 -656 Q 330 -633 324.5 -610.5 Q 319 -588 310 -567.5 Q 301 -547 291.5 -526 Q 282 -505 282 -482 Q 282 -466 286.5 -450 Q 291 -434 300.5 -421 Q 310 -408 324 -398.5 Q 338 -389 353.5 -384 Q 369 -379 385 -377 Q 401 -375 417 -375 L 417 -305 Q 401 -305 385 -303 Q 369 -301 353.5 -296 Q 338 -291 324 -281.5 Q 310 -272 300.5 -259 Q 291 -246 286.5 -230 Q 282 -214 282 -198 Q 282 -175 291.5 -154 Q 301 -133 310 -112.5 Q 319 -92 324.5 -69.5 Q 330 -47 330 -24 Q 330 3 322 29.5 Q 314 56 297 77 Q 280 98 257 113 Q 234 128 208 137 Q 182 146 155 149.5 Q 128 153 101 153 Z " id="path111"/>
<path d="M 323 -185 Q 315 -185 308 -186 Q 301 -187 295 -189.5 Q 289 -192 283 -195.5 Q 277 -199 271.5 -203.5 Q 266 -208 261.5 -212.5 Q 257 -217 252.5 -222.5 Q 248 -228 244 -234 Q 240 -240 236.5 -245.5 Q 233 -251 229.5 -257 Q 226 -263 222.5 -269 Q 219 -275 215.5 -281.5 Q 212 -288 208 -294.5 Q 204 -301 200 -307 Q 196 -313 192.5 -318 Q 189 -323 185 -328.5 Q 181 -334 177 -337 Q 174 -334 171.5 -331 Q 169 -328 165 -323 Q 161 -318 158.5 -314.5 Q 156 -311 154.5 -308 Q 153 -305 151 -301.5 Q 149 -298 147 -294.5 Q 145 -291 143 -287 Q 141 -283 139 -278.5 Q 137 -274 134.5 -269.5 Q 132 -265 130 -260 Q 128 -255 125.5 -249.5 Q 123 -244 120.5 -238.5 Q 118 -233 115.5 -227 Q 113 -221 110.5 -214.5 Q 108 -208 105.5 -201.5 Q 103 -195 100 -188 L 28 -212 Q 32 -224 36 -234.5 Q 40 -245 44.5 -255 Q 49 -265 53 -274.5 Q 57 -284 60.5 -292.5 Q 64 -301 68 -308.5 Q 72 -316 76 -323 Q 80 -330 83.5 -336.5 Q 87 -343 91 -349 Q 95 -355 101 -363 Q 107 -371 113.5 -377.5 Q 120 -384 126.5 -389.5 Q 133 -395 141.5 -399.5 Q 150 -404 159 -406.5 Q 168 -409 177 -409 Q 192 -409 205 -404 Q 218 -399 228.5 -390 Q 239 -381 247.5 -370.5 Q 256 -360 263.5 -348.5 Q 271 -337 277.5 -325 Q 284 -313 292 -299.5 Q 300 -286 307 -275.5 Q 314 -265 323 -257 Q 326 -260 328.5 -262.5 Q 331 -265 335 -270 Q 339 -275 341.5 -279 Q 344 -283 345.5 -286 Q 347 -289 349 -292.5 Q 351 -296 353 -299.5 Q 355 -303 357 -307 Q 359 -311 361 -315 Q 363 -319 365.5 -324 Q 368 -329 370 -334 Q 372 -339 374.5 -344 Q 377 -349 379.5 -354.5 Q 382 -360 384.5 -366 Q 387 -372 389.5 -378.5 Q 392 -385 394.5 -392 Q 397 -399 400 -406 L 472 -381 Q 468 -370 464 -359 Q 460 -348 455.5 -338 Q 451 -328 447 -319 Q 443 -310 439.5 -301.5 Q 436 -293 432 -285 Q 428 -277 424 -270 Q 420 -263 416.5 -257 Q 413 -251 409 -245 Q 405 -239 399 -231 Q 393 -223 386.5 -216 Q 380 -209 373.5 -203.5 Q 367 -198 358.5 -194 Q 350 -190 341 -187.5 Q 332 -185 323 -185 Z " id="path112"/>
<path d="M 64 0 L 64 -735 L 436 -735 L 436 0 Z M 94 -634 L 151 -705 L 94 -705 Z M 94 -477 L 276 -705 L 182 -705 L 94 -595 Z M 94 -321 L 401 -705 L 307 -705 L 94 -438 Z M 94 -165 L 406 -554 L 406 -671 L 94 -282 Z M 94 -30 L 112 -30 L 406 -398 L 406 -515 L 94 -126 Z M 143 -30 L 237 -30 L 406 -242 L 406 -359 Z M 268 -30 L 362 -30 L 406 -85 L 406 -203 Z M 406 -30 L 406 -46 L 393 -30 Z " id="path113"/>
</defs>
<g>
<g data-source-text="0" fill="#dee4e3" transform="translate(174 41.292) rotate(0) scale(0.023999998)">
<use href="#path1" transform="translate(0 0)"/>
</g>
</g>
<g>
<g data-source-text="1" fill="#dee4e3" transform="translate(246 41.292) rotate(0) scale(0.023999998)">
<use href="#path2" transform="translate(0 0)"/>
</g>
</g>
<g>
<g data-source-text="2" fill="#dee4e3" transform="translate(318 41.292) rotate(0) scale(0.023999998)">
<use href="#path3" transform="translate(0 0)"/>
</g>
</g>
<g>
<g data-source-text="3" fill="#dee4e3" transform="translate(390 41.292) rotate(0) scale(0.023999998)">
<use href="#path4" transform="translate(0 0)"/>
</g>
</g>
<g>
<g data-source-text="4" fill="#dee4e3" transform="translate(462 41.292) rotate(0) scale(0.023999998)">
<use href="#path5" transform="translate(0 0)"/>
</g>
</g>
<g>
<g data-source-text="5" fill="#dee4e3" transform="translate(534 41.292) rotate(0) scale(0.023999998)">
<use href="#path6" transform="translate(0 0)"/>
</g>
</g>
<g>
<g data-source-text="6" fill="#dee4e3" transform="translate(606 41.292) rotate(0) scale(0.023999998)">
<use href="#path7" transform="translate(0 0)"/>
</g>
</g>
<g>
<g data-source-text="7" fill="#dee4e3" transform="translate(678 41.292) rotate(0) scale(0.023999998)">
<use href="#path8" transform="translate(0 0)"/>
</g>
</g>
<g>
<g data-source-text="8" fill="#dee4e3" transform="translate(750 41.292) rotate(0) scale(0.023999998)">
<use href="#path9" transform="translate(0 0)"/>
</g>
</g>
<g>
<g data-source-text="9" fill="#dee4e3" transform="translate(822 41.292) rotate(0) scale(0.023999998)">
<use href="#path10" transform="translate(0 0)"/>
</g>
</g>
<g>
<g data-source-text="A" fill="#dee4e3" transform="translate(894 41.292) rotate(0) scale(0.023999998)">
<use href="#path11" transform="translate(0 0)"/>
</g>
</g>
<g>
<g data-source-text="B" fill="#dee4e3" transform="translate(966 41.292) rotate(0) scale(0.023999998)">
<use href="#path12" transform="translate(0 0)"/>
</g>
</g>
<g>
<g data-source-text="C" fill="#dee4e3" transform="translate(1038 41.292) rotate(0) scale(0.023999998)">
<use href="#path13" transform="translate(0 0)"/>
</g>
</g>
<g>
<g data-source-text="D" fill="#dee4e3" transform="translate(1110 41.292) rotate(0) scale(0.023999998)">
<use href="#path14" transform="translate(0 0)"/>
</g>
</g>
<g>
<g data-source-text="E" fill="#dee4e3" transform="translate(1182 41.292) rotate(0) scale(0.023999998)">
<use href="#path15" transform="translate(0 0)"/>
</g>
</g>
<g>
<g data-source-text="F" fill="#dee4e3" transform="translate(1254 41.292) rotate(0) scale(0.023999998)">
<use href="#path16" transform="translate(0 0)"/>
</g>
</g>
<g>
<g data-source-text="U+0020" fill="#dee4e3" transform="translate(36 113.292) rotate(0) scale(0.023999998)">
<use href="#path17" transform="translate(0 0)"/>
<use href="#path18" transform="translate(500 0)"/>
<use href="#path1" transform="translate(1000 0)"/>
<use href="#path1" transform="translate(1500 0)"/>
<use href="#path3" transform="translate(2000 0)"/>
<use href="#path1" transform="translate(2500 0)"/>
</g>
</g>
<g>
<g data-source-text=" " fill="#dee4e3" transform="translate(180 118.584) rotate(0) scale(0.047999997)"/>
</g>
<g>
<g data-source-text="!" fill="#dee4e3" transform="translate(240 118.584) rotate(0) scale(0.047999997)">
<use href="#path19" transform="translate(0 0)"/>
</g>
</g>
<g>
<g data-source-text="&quot;" fill="#dee4e3" transform="translate(312 118.584) rotate(0) scale(0.047999997)">
<use href="#path20" transform="translate(0 0)"/>
</g>
</g>
<g>
<g data-source-text="#" fill="#dee4e3" transform="translate(384 118.584) rotate(0) scale(0.047999997)">
<use href="#path21" transform="translate(0 0)"/>
</g>
</g>
<g>
<g data-source-text="$" fill="#dee4e3" transform="translate(456 118.584) rotate(0) scale(0.047999997)">
<use href="#path22" transform="translate(0 0)"/>
</g>
</g>
<g>
<g data-source-text="%" fill="#dee4e3" transform="translate(528 118.584) rotate(0) scale(0.047999997)">
<use href="#path23" transform="translate(0 0)"/>
</g>
</g>
<g>
<g data-source-text="&amp;" fill="#dee4e3" transform="translate(600 118.584) rotate(0) scale(0.047999997)">
<use href="#path24" transform="translate(0 0)"/>
</g>
</g>
<g>
<g data-source-text="&apos;" fill="#dee4e3" transform="translate(672 118.584) rotate(0) scale(0.047999997)">
<use href="#path25" transform="translate(0 0)"/>
</g>
</g>
<g>
<g data-source-text="(" fill="#dee4e3" transform="translate(744 118.584) rotate(0) scale(0.047999997)">
<use href="#path26" transform="translate(0 0)"/>
</g>
</g>
<g>
<g data-source-text=")" fill="#dee4e3" transform="translate(816 118.584) rotate(0) scale(0.047999997)">
<use href="#path27" transform="translate(0 0)"/>
</g>
</g>
<g>
<g data-source-text="*" fill="#dee4e3" transform="translate(888 118.584) rotate(0) scale(0.047999997)">
<use href="#path28" transform="translate(0 0)"/>
</g>
</g>
<g>
<g data-source-text="+" fill="#dee4e3" transform="translate(960 118.584) rotate(0) scale(0.047999997)">
<use href="#path29" transform="translate(0 0)"/>
</g>
</g>
<g>
<g data-source-text="," fill="#dee4e3" transform="translate(1032 118.584) rotate(0) scale(0.047999997)">
<use href="#path30" transform="translate(0 0)"/>
</g>
</g>
<g>
<g data-source-text="-" fill="#dee4e3" transform="translate(1104 118.584) rotate(0) scale(0.047999997)">
<use href="#path31" transform="translate(0 0)"/>
</g>
</g>
<g>
<g data-source-text="." fill="#dee4e3" transform="translate(1176 118.584) rotate(0) scale(0.047999997)">
<use href="#path32" transform="translate(0 0)"/>
</g>
</g>
<g>
<g data-source-text="/" fill="#dee4e3" transform="translate(1248 118.584) rotate(0) scale(0.047999997)">
<use href="#path33" transform="translate(0 0)"/>
</g>
</g>
<g>
<g data-source-text="U+0030" fill="#dee4e3" transform="translate(36 185.292) rotate(0) scale(0.023999998)">
<use href="#path17" transform="translate(0 0)"/>
<use href="#path18" transform="translate(500 0)"/>
<use href="#path1" transform="translate(1000 0)"/>
<use href="#path1" transform="translate(1500 0)"/>
<use href="#path4" transform="translate(2000 0)"/>
<use href="#path1" transform="translate(2500 0)"/>
</g>
</g>
<g>
<g data-source-text="0" fill="#dee4e3" transform="translate(168 190.584) rotate(0) scale(0.047999997)">
<use href="#path34" transform="translate(0 0)"/>
</g>
</g>
<g>
<g data-source-text="1" fill="#dee4e3" transform="translate(240 190.584) rotate(0) scale(0.047999997)">
<use href="#path35" transform="translate(0 0)"/>
</g>
</g>
<g>
<g data-source-text="2" fill="#dee4e3" transform="translate(312 190.584) rotate(0) scale(0.047999997)">
<use href="#path36" transform="translate(0 0)"/>
</g>
</g>
<g>
<g data-source-text="3" fill="#dee4e3" transform="translate(384 190.584) rotate(0) scale(0.047999997)">
<use href="#path37" transform="translate(0 0)"/>
</g>
</g>
<g>
<g data-source-text="4" fill="#dee4e3" transform="translate(456 190.584) rotate(0) scale(0.047999997)">
<use href="#path38" transform="translate(0 0)"/>
</g>
</g>
<g>
<g data-source-text="5" fill="#dee4e3" transform="translate(528 190.584) rotate(0) scale(0.047999997)">
<use href="#path39" transform="translate(0 0)"/>
</g>
</g>
<g>
<g data-source-text="6" fill="#dee4e3" transform="translate(600 190.584) rotate(0) scale(0.047999997)">
<use href="#path40" transform="translate(0 0)"/>
</g>
</g>
<g>
<g data-source-text="7" fill="#dee4e3" transform="translate(672 190.584) rotate(0) scale(0.047999997)">
<use href="#path41" transform="translate(0 0)"/>
</g>
</g>
<g>
<g data-source-text="8" fill="#dee4e3" transform="translate(744 190.584) rotate(0) scale(0.047999997)">
<use href="#path42" transform="translate(0 0)"/>
</g>
</g>
<g>
<g data-source-text="9" fill="#dee4e3" transform="translate(816 190.584) rotate(0) scale(0.047999997)">
<use href="#path43" transform="translate(0 0)"/>
</g>
</g>
<g>
<g data-source-text=":" fill="#dee4e3" transform="translate(888 190.584) rotate(0) scale(0.047999997)">
<use href="#path44" transform="translate(0 0)"/>
</g>
</g>
<g>
<g data-source-text=";" fill="#dee4e3" transform="translate(960 190.584) rotate(0) scale(0.047999997)">
<use href="#path45" transform="translate(0 0)"/>
</g>
</g>
<g>
<g data-source-text="&lt;" fill="#dee4e3" transform="translate(1032 190.584) rotate(0) scale(0.047999997)">
<use href="#path46" transform="translate(0 0)"/>
</g>
</g>
<g>
<g data-source-text="=" fill="#dee4e3" transform="translate(1104 190.584) rotate(0) scale(0.047999997)">
<use href="#path47" transform="translate(0 0)"/>
</g>
</g>
<g>
<g data-source-text="&gt;" fill="#dee4e3" transform="translate(1176 190.584) rotate(0) scale(0.047999997)">
<use href="#path48" transform="translate(0 0)"/>
</g>
</g>
<g>
<g data-source-text="?" fill="#dee4e3" transform="translate(1248 190.584) rotate(0) scale(0.047999997)">
<use href="#path49" transform="translate(0 0)"/>
</g>
</g>
<g>
<g data-source-text="U+0040" fill="#dee4e3" transform="translate(36 257.292) rotate(0) scale(0.023999998)">
<use href="#path17" transform="translate(0 0)"/>
<use href="#path18" transform="translate(500 0)"/>
<use href="#path1" transform="translate(1000 0)"/>
<use href="#path1" transform="translate(1500 0)"/>
<use href="#path5" transform="translate(2000 0)"/>
<use href="#path1" transform="translate(2500 0)"/>
</g>
</g>
<g>
<g data-source-text="@" fill="#dee4e3" transform="translate(168 262.584) rotate(0) scale(0.047999997)">
<use href="#path50" transform="translate(0 0)"/>
</g>
</g>
<g>
<g data-source-text="A" fill="#dee4e3" transform="translate(240 262.584) rotate(0) scale(0.047999997)">
<use href="#path51" transform="translate(0 0)"/>
</g>
</g>
<g>
<g data-source-text="B" fill="#dee4e3" transform="translate(312 262.584) rotate(0) scale(0.047999997)">
<use href="#path52" transform="translate(0 0)"/>
</g>
</g>
<g>
<g data-source-text="C" fill="#dee4e3" transform="translate(384 262.584) rotate(0) scale(0.047999997)">
<use href="#path53" transform="translate(0 0)"/>
</g>
</g>
<g>
<g data-source-text="D" fill="#dee4e3" transform="translate(456 262.584) rotate(0) scale(0.047999997)">
<use href="#path54" transform="translate(0 0)"/>
</g>
</g>
<g>
<g data-source-text="E" fill="#dee4e3" transform="translate(528 262.584) rotate(0) scale(0.047999997)">
<use href="#path55" transform="translate(0 0)"/>
</g>
</g>
<g>
<g data-source-text="F" fill="#dee4e3" transform="translate(600 262.584) rotate(0) scale(0.047999997)">
<use href="#path56" transform="translate(0 0)"/>
</g>
</g>
<g>
<g data-source-text="G" fill="#dee4e3" transform="translate(672 262.584) rotate(0) scale(0.047999997)">
<use href="#path57" transform="translate(0 0)"/>
</g>
</g>
<g>
<g data-source-text="H" fill="#dee4e3" transform="translate(744 262.584) rotate(0) scale(0.047999997)">
<use href="#path58" transform="translate(0 0)"/>
</g>
</g>
<g>
<g data-source-text="I" fill="#dee4e3" transform="translate(816 262.584) rotate(0) scale(0.047999997)">
<use href="#path59" transform="translate(0 0)"/>
</g>
</g>
<g>
<g data-source-text="J" fill="#dee4e3" transform="translate(888 262.584) rotate(0) scale(0.047999997)">
<use href="#path60" transform="translate(0 0)"/>
</g>
</g>
<g>
<g data-source-text="K" fill="#dee4e3" transform="translate(960 262.584) rotate(0) scale(0.047999997)">
<use href="#path61" transform="translate(0 0)"/>
</g>
</g>
<g>
<g data-source-text="L" fill="#dee4e3" transform="translate(1032 262.584) rotate(0) scale(0.047999997)">
<use href="#path62" transform="translate(0 0)"/>
</g>
</g>
<g>
<g data-source-text="M" fill="#dee4e3" transform="translate(1104 262.584) rotate(0) scale(0.047999997)">
<use href="#path63" transform="translate(0 0)"/>
</g>
</g>
<g>
<g data-source-text="N" fill="#dee4e3" transform="translate(1176 262.584) rotate(0) scale(0.047999997)">
<use href="#path64" transform="translate(0 0)"/>
</g>
</g>
<g>
<g data-source-text="O" fill="#dee4e3" transform="translate(1248 262.584) rotate(0) scale(0.047999997)">
<use href="#path65" transform="translate(0 0)"/>
</g>
</g>
<g>
<g data-source-text="U+0050" fill="#dee4e3" transform="translate(36 329.292) rotate(0) scale(0.023999998)">
<use href="#path17" transform="translate(0 0)"/>
<use href="#path18" transform="translate(500 0)"/>
<use href="#path1" transform="translate(1000 0)"/>
<use href="#path1" transform="translate(1500 0)"/>
<use href="#path6" transform="translate(2000 0)"/>
<use href="#path1" transform="translate(2500 0)"/>
</g>
</g>
<g>
<g data-source-text="P" fill="#dee4e3" transform="translate(168 334.584) rotate(0) scale(0.047999997)">
<use href="#path66" transform="translate(0 0)"/>
</g>
</g>
<g>
<g data-source-text="Q" fill="#dee4e3" transform="translate(240 334.584) rotate(0) scale(0.047999997)">
<use href="#path67" transform="translate(0 0)"/>
</g>
</g>
<g>
<g data-source-text="R" fill="#dee4e3" transform="translate(312 334.584) rotate(0) scale(0.047999997)">
<use href="#path68" transform="translate(0 0)"/>
</g>
</g>
<g>
<g data-source-text="S" fill="#dee4e3" transform="translate(384 334.584) rotate(0) scale(0.047999997)">
<use href="#path69" transform="translate(0 0)"/>
</g>
</g>
<g>
<g data-source-text="T" fill="#dee4e3" transform="translate(456 334.584) rotate(0) scale(0.047999997)">
<use href="#path70" transform="translate(0 0)"/>
</g>
</g>
<g>
<g data-source-text="U" fill="#dee4e3" transform="translate(528 334.584) rotate(0) scale(0.047999997)">
<use href="#path71" transform="translate(0 0)"/>
</g>
</g>
<g>
<g data-source-text="V" fill="#dee4e3" transform="translate(600 334.584) rotate(0) scale(0.047999997)">
<use href="#path72" transform="translate(0 0)"/>
</g>
</g>
<g>
<g data-source-text="W" fill="#dee4e3" transform="translate(672 334.584) rotate(0) scale(0.047999997)">
<use href="#path73" transform="translate(0 0)"/>
</g>
</g>
<g>
<g data-source-text="X" fill="#dee4e3" transform="translate(744 334.584) rotate(0) scale(0.047999997)">
<use href="#path74" transform="translate(0 0)"/>
</g>
</g>
<g>
<g data-source-text="Y" fill="#dee4e3" transform="translate(816 334.584) rotate(0) scale(0.047999997)">
<use href="#path75" transform="translate(0 0)"/>
</g>
</g>
<g>
<g data-source-text="Z" fill="#dee4e3" transform="translate(888 334.584) rotate(0) scale(0.047999997)">
<use href="#path76" transform="translate(0 0)"/>
</g>
</g>
<g>
<g data-source-text="[" fill="#dee4e3" transform="translate(960 334.584) rotate(0) scale(0.047999997)">
<use href="#path77" transform="translate(0 0)"/>
</g>
</g>
<g>
<g data-source-text="\" fill="#dee4e3" transform="translate(1032 334.584) rotate(0) scale(0.047999997)">
<use href="#path78" transform="translate(0 0)"/>
</g>
</g>
<g>
<g data-source-text="]" fill="#dee4e3" transform="translate(1104 334.584) rotate(0) scale(0.047999997)">
<use href="#path79" transform="translate(0 0)"/>
</g>
</g>
<g>
<g data-source-text="^" fill="#dee4e3" transform="translate(1176 334.584) rotate(0) scale(0.047999997)">
<use href="#path80" transform="translate(0 0)"/>
</g>
</g>
<g>
<g data-source-text="_" fill="#dee4e3" transform="translate(1248 334.584) rotate(0) scale(0.047999997)">
<use href="#path81" transform="translate(0 0)"/>
</g>
</g>
<g>
<g data-source-text="U+0060" fill="#dee4e3" transform="translate(36 401.292) rotate(0) scale(0.023999998)">
<use href="#path17" transform="translate(0 0)"/>
<use href="#path18" transform="translate(500 0)"/>
<use href="#path1" transform="translate(1000 0)"/>
<use href="#path1" transform="translate(1500 0)"/>
<use href="#path7" transform="translate(2000 0)"/>
<use href="#path1" transform="translate(2500 0)"/>
</g>
</g>
<g>
<g data-source-text="`" fill="#dee4e3" transform="translate(168 406.584) rotate(0) scale(0.047999997)">
<use href="#path82" transform="translate(0 0)"/>
</g>
</g>
<g>
<g data-source-text="a" fill="#dee4e3" transform="translate(240 406.584) rotate(0) scale(0.047999997)">
<use href="#path83" transform="translate(0 0)"/>
</g>
</g>
<g>
<g data-source-text="b" fill="#dee4e3" transform="translate(312 406.584) rotate(0) scale(0.047999997)">
<use href="#path84" transform="translate(0 0)"/>
</g>
</g>
<g>
<g data-source-text="c" fill="#dee4e3" transform="translate(384 406.584) rotate(0) scale(0.047999997)">
<use href="#path85" transform="translate(0 0)"/>
</g>
</g>
<g>
<g data-source-text="d" fill="#dee4e3" transform="translate(456 406.584) rotate(0) scale(0.047999997)">
<use href="#path86" transform="translate(0 0)"/>
</g>
</g>
<g>
<g data-source-text="e" fill="#dee4e3" transform="translate(528 406.584) rotate(0) scale(0.047999997)">
<use href="#path87" transform="translate(0 0)"/>
</g>
</g>
<g>
<g data-source-text="f" fill="#dee4e3" transform="translate(600 406.584) rotate(0) scale(0.047999997)">
<use href="#path88" transform="translate(0 0)"/>
</g>
</g>
<g>
<g data-source-text="g" fill="#dee4e3" transform="translate(672 406.584) rotate(0) scale(0.047999997)">
<use href="#path89" transform="translate(0 0)"/>
</g>
</g>
<g>
<g data-source-text="h" fill="#dee4e3" transform="translate(744 406.584) rotate(0) scale(0.047999997)">
<use href="#path90" transform="translate(0 0)"/>
</g>
</g>
<g>
<g data-source-text="i" fill="#dee4e3" transform="translate(816 406.584) rotate(0) scale(0.047999997)">
<use href="#path91" transform="translate(0 0)"/>
</g>
</g>
<g>
<g data-source-text="j" fill="#dee4e3" transform="translate(888 406.584) rotate(0) scale(0.047999997)">
<use href="#path92" transform="translate(0 0)"/>
</g>
</g>
<g>
<g data-source-text="k" fill="#dee4e3" transform="translate(960 406.584) rotate(0) scale(0.047999997)">
<use href="#path93" transform="translate(0 0)"/>
</g>
</g>
<g>
<g data-source-text="l" fill="#dee4e3" transform="translate(1032 406.584) rotate(0) scale(0.047999997)">
<use href="#path94" transform="translate(0 0)"/>
</g>
</g>
<g>
<g data-source-text="m" fill="#dee4e3" transform="translate(1104 406.584) rotate(0) scale(0.047999997)">
<use href="#path95" transform="translate(0 0)"/>
</g>
</g>
<g>
<g data-source-text="n" fill="#dee4e3" transform="translate(1176 406.584) rotate(0) scale(0.047999997)">
<use href="#path96" transform="translate(0 0)"/>
</g>
</g>
<g>
<g data-source-text="o" fill="#dee4e3" transform="translate(1248 406.584) rotate(0) scale(0.047999997)">
<use href="#path97" transform="translate(0 0)"/>
</g>
</g>
<g>
<g data-source-text="U+0070" fill="#dee4e3" transform="translate(36 473.292) rotate(0) scale(0.023999998)">
<use href="#path17" transform="translate(0 0)"/>
<use href="#path18" transform="translate(500 0)"/>
<use href="#path1" transform="translate(1000 0)"/>
<use href="#path1" transform="translate(1500 0)"/>
<use href="#path8" transform="translate(2000 0)"/>
<use href="#path1" transform="translate(2500 0)"/>
</g>
</g>
<g>
<g data-source-text="p" fill="#dee4e3" transform="translate(168 478.584) rotate(0) scale(0.047999997)">
<use href="#path98" transform="translate(0 0)"/>
</g>
</g>
<g>
<g data-source-text="q" fill="#dee4e3" transform="translate(240 478.584) rotate(0) scale(0.047999997)">
<use href="#path99" transform="translate(0 0)"/>
</g>
</g>
<g>
<g data-source-text="r" fill="#dee4e3" transform="translate(312 478.584) rotate(0) scale(0.047999997)">
<use href="#path100" transform="translate(0 0)"/>
</g>
</g>
<g>
<g data-source-text="s" fill="#dee4e3" transform="translate(384 478.584) rotate(0) scale(0.047999997)">
<use href="#path101" transform="translate(0 0)"/>
</g>
</g>
<g>
<g data-source-text="t" fill="#dee4e3" transform="translate(456 478.584) rotate(0) scale(0.047999997)">
<use href="#path102" transform="translate(0 0)"/>
</g>
</g>
<g>
<g data-source-text="u" fill="#dee4e3" transform="translate(528 478.584) rotate(0) scale(0.047999997)">
<use href="#path103" transform="translate(0 0)"/>
</g>
</g>
<g>
<g data-source-text="v" fill="#dee4e3" transform="translate(600 478.584) rotate(0) scale(0.047999997)">
<use href="#path104" transform="translate(0 0)"/>
</g>
</g>
<g>
<g data-source-text="w" fill="#dee4e3" transform="translate(672 478.584) rotate(0) scale(0.047999997)">
<use href="#path105" transform="translate(0 0)"/>
</g>
</g>
<g>
<g data-source-text="x" fill="#dee4e3" transform="translate(744 478.584) rotate(0) scale(0.047999997)">
<use href="#path106" transform="translate(0 0)"/>
</g>
</g>
<g>
<g data-source-text="y" fill="#dee4e3" transform="translate(816 478.584) rotate(0) scale(0.047999997)">
<use href="#path107" transform="translate(0 0)"/>
</g>
</g>
<g>
<g data-source-text="z" fill="#dee4e3" transform="translate(888 478.584) rotate(0) scale(0.047999997)">
<use href="#path108" transform="translate(0 0)"/>
</g>
</g>
<g>
<g data-source-text="{" fill="#dee4e3" transform="translate(960 478.584) rotate(0) scale(0.047999997)">
<use href="#path109" transform="translate(0 0)"/>
</g>
</g>
<g>
<g data-source-text="|" fill="#dee4e3" transform="translate(1032 478.584) rotate(0) scale(0.047999997)">
<use href="#path110" transform="translate(0 0)"/>
</g>
</g>
<g>
<g data-source-text="}" fill="#dee4e3" transform="translate(1104 478.584) rotate(0) scale(0.047999997)">
<use href="#path111" transform="translate(0 0)"/>
</g>
</g>
<g>
<g data-source-text="~" fill="#dee4e3" transform="translate(1176 478.584) rotate(0) scale(0.047999997)">
<use href="#path112" transform="translate(0 0)"/>
</g>
</g>
<g>
<g data-source-text="" fill="#dee4e340" transform="translate(1248 478.584) rotate(0) scale(0.047999997)">
<use href="#path113" transform="translate(0 0)"/>
</g>
</g>
</svg>