<?xml version="1.0" encoding="UTF-8" standalone="no"?>
<svg height="1224" viewBox="0 0 1296 1224" width="1296" xmlns="http://www.w3.org/2000/svg">
<defs>
<path d="M 250 8 Q 223 8 196 3 Q 169 -2 145 -15 Q 121 -28 102.5 -48.5 Q 84 -69 72.5 -94 Q 61 -119 56.5 -146 Q 52 -173 52 -200 L 52 -535 Q 52 -562 56.5 -589 Q 61 -616 72.5 -641 Q 84 -666 102.5 -686.5 Q 121 -707 145 -720 Q 169 -733 196 -738 Q 223 -743 250 -743 Q 277 -743 304 -738 Q 331 -733 355 -720 Q 379 -707 397.5 -686.5 Q 416 -666 427.5 -641 Q 439 -616 443.5 -589 Q 448 -562 448 -535 L 448 -200 Q 448 -173 443.5 -146 Q 439 -119 427.5 -94 Q 416 -69 397.5 -48.5 Q 379 -28 355 -15 Q 331 -2 304 3 Q 277 8 250 8 Z M 153 -337 L 347 -491 L 347 -535 Q 347 -557 342.5 -578.5 Q 338 -600 325.5 -618 Q 313 -636 292.5 -645.5 Q 272 -655 250 -655 Q 228 -655 207.5 -645.5 Q 187 -636 174.5 -618 Q 162 -600 157.5 -578.5 Q 153 -557 153 -535 Z M 250 -80 Q 272 -80 292.5 -89.5 Q 313 -99 325.5 -117 Q 338 -135 342.5 -156.5 Q 347 -178 347 -200 L 347 -398 L 153 -244 L 153 -200 Q 153 -178 157.5 -156.5 Q 162 -135 174.5 -117 Q 187 -99 207.5 -89.5 Q 228 -80 250 -80 Z " id="path1"/>
<path d="M 230 0 L 230 -631 L 110 -528 L 55 -584 L 230 -735 L 330 -735 L 330 0 Z " id="path2"/>
<path d="M 440 0 L 60 0 L 60 -1 Q 60 -27 61 -53.5 Q 62 -80 66 -106.5 Q 70 -133 77.5 -158.5 Q 85 -184 96.5 -207.5 Q 108 -231 123 -253 Q 138 -275 156 -294.5 Q 174 -314 194 -331 Q 214 -348 235.5 -364 Q 257 -380 277.5 -397 Q 298 -414 313 -435.5 Q 328 -457 335.5 -483 Q 343 -509 343 -535 Q 343 -557 339 -578 Q 335 -599 323.5 -617 Q 312 -635 292 -645 Q 272 -655 251 -655 Q 231 -655 212.5 -647.5 Q 194 -640 182 -625 Q 170 -610 164.5 -591 Q 159 -572 159 -552 L 159 -548 L 58 -548 L 58 -555 Q 58 -581 64 -605.5 Q 70 -630 81.5 -652.5 Q 93 -675 111.5 -693 Q 130 -711 152.5 -722.5 Q 175 -734 200.5 -738.5 Q 226 -743 251 -743 Q 278 -743 304.5 -737.5 Q 331 -732 354.5 -719 Q 378 -706 396 -685.5 Q 414 -665 424.5 -640.5 Q 435 -616 439.5 -589 Q 444 -562 444 -535 Q 444 -501 435 -468 Q 426 -435 407.5 -406 Q 389 -377 364 -353.5 Q 339 -330 312.5 -308.5 Q 286 -287 261 -264 Q 236 -241 216.5 -213 Q 197 -185 184 -153.5 Q 171 -122 166 -88 L 440 -88 Z " id="path3"/>
<path d="M 253 8 Q 227 8 201 4 Q 175 -0 151.5 -11.5 Q 128 -23 108.5 -40.5 Q 89 -58 76 -81 Q 63 -104 56.5 -129.5 Q 50 -155 50 -181 L 50 -187 L 151 -187 L 151 -184 Q 151 -163 157.5 -143 Q 164 -123 178 -108 Q 192 -93 212 -86.5 Q 232 -80 253 -80 Q 275 -80 296 -88.5 Q 317 -97 330.5 -114.5 Q 344 -132 349.5 -154 Q 355 -176 355 -198 Q 355 -217 351 -235.5 Q 347 -254 338.5 -271 Q 330 -288 316.5 -301 Q 303 -314 286 -322 Q 269 -330 250 -332 Q 231 -334 212 -334 L 212 -422 Q 229 -422 246 -424 Q 263 -426 278.5 -433 Q 294 -440 306 -452.5 Q 318 -465 325.5 -480.5 Q 333 -496 336 -513 Q 339 -530 339 -547 Q 339 -566 334.5 -585.5 Q 330 -605 319.5 -621 Q 309 -637 291 -646 Q 273 -655 253 -655 Q 234 -655 216.5 -647 Q 199 -639 187.5 -624 Q 176 -609 171.5 -590 Q 167 -571 167 -553 L 167 -548 L 66 -548 L 66 -556 Q 66 -581 71.5 -605.5 Q 77 -630 88 -652 Q 99 -674 117 -692.5 Q 135 -711 157 -722.5 Q 179 -734 203.5 -738.5 Q 228 -743 253 -743 Q 278 -743 303.5 -738 Q 329 -733 351 -721 Q 373 -709 390 -690 Q 407 -671 418 -648 Q 429 -625 434.5 -600 Q 440 -575 440 -550 Q 440 -524 434 -498.5 Q 428 -473 415.5 -450.5 Q 403 -428 384.5 -409.5 Q 366 -391 343 -379 Q 369 -368 390.5 -348.5 Q 412 -329 427 -304.5 Q 442 -280 449 -252 Q 456 -224 456 -196 Q 456 -168 450 -141.5 Q 444 -115 432 -91 Q 420 -67 401 -47 Q 382 -27 358 -14.5 Q 334 -2 307 3 Q 280 8 253 8 Z " id="path4"/>
<path d="M 282 0 L 282 -188 L 52 -188 L 52 -275 L 276 -735 L 385 -735 L 161 -275 L 282 -275 L 282 -435 L 382 -435 L 382 -275 L 440 -275 L 440 -188 L 382 -188 L 382 0 Z " id="path5"/>
<path d="M 252 8 Q 227 8 202.5 3.5 Q 178 -1 155.5 -12 Q 133 -23 115 -41 Q 97 -59 85 -80.5 Q 73 -102 66.5 -126.5 Q 60 -151 59 -176 L 159 -176 Q 161 -158 167 -139.5 Q 173 -121 185.5 -107 Q 198 -93 216 -86.5 Q 234 -80 252 -80 Q 269 -80 285 -87 Q 301 -94 312 -107 Q 323 -120 330 -135.5 Q 337 -151 340.5 -168 Q 344 -185 345.5 -202 Q 347 -219 347 -236 Q 347 -252 346 -269 Q 345 -286 341 -302 Q 337 -318 331 -334 Q 325 -350 314 -363 Q 303 -376 287.5 -383.5 Q 272 -391 256 -391 Q 240 -391 224.5 -387 Q 209 -383 196 -373.5 Q 183 -364 176 -349.5 Q 169 -335 168 -319 L 68 -319 L 68 -735 L 421 -735 L 421 -647 L 168 -647 L 168 -464 Q 189 -472 211 -475 Q 233 -478 256 -478 Q 285 -478 313.5 -470.5 Q 342 -463 365.5 -445.5 Q 389 -428 405.5 -403 Q 422 -378 431.5 -350.5 Q 441 -323 444.5 -294 Q 448 -265 448 -235 Q 448 -206 444 -176.5 Q 440 -147 430.5 -119 Q 421 -91 404 -66.5 Q 387 -42 363.5 -24.5 Q 340 -7 311 0.5 Q 282 8 252 8 Z " id="path6"/>
<path d="M 250 8 Q 221 8 192.5 1.5 Q 164 -5 140 -21 Q 116 -37 98.5 -60.5 Q 81 -84 70.5 -111 Q 60 -138 56 -166.5 Q 52 -195 52 -224 Q 52 -268 60 -311 Q 68 -354 81.5 -395.5 Q 95 -437 113 -477 Q 131 -517 150 -556 L 238 -735 L 347 -735 L 240 -517 Q 228 -493 216.5 -468.5 Q 205 -444 195 -419 Q 214 -438 239 -447 Q 264 -456 291 -456 Q 317 -456 342.5 -447 Q 368 -438 386.5 -419.5 Q 405 -401 417 -377.5 Q 429 -354 436 -328.5 Q 443 -303 445.5 -276.5 Q 448 -250 448 -224 Q 448 -195 444 -166.5 Q 440 -138 429.5 -111 Q 419 -84 401.5 -60.5 Q 384 -37 360 -21 Q 336 -5 307.5 1.5 Q 279 8 250 8 Z M 250 -80 Q 266 -80 282 -85.5 Q 298 -91 309.5 -102.5 Q 321 -114 328.5 -129 Q 336 -144 340 -159.5 Q 344 -175 345.5 -191.5 Q 347 -208 347 -224 Q 347 -240 345.5 -256.5 Q 344 -273 340 -289 Q 336 -305 328.5 -319.5 Q 321 -334 309.5 -345.5 Q 298 -357 282 -362.5 Q 266 -368 250 -368 Q 235 -368 221 -363.5 Q 207 -359 195.5 -349.5 Q 184 -340 176.5 -327.5 Q 169 -315 164 -301 Q 159 -287 156.5 -272.5 Q 154 -258 153 -243 L 153 -224 Q 153 -208 154.5 -191.5 Q 156 -175 160 -159.5 Q 164 -144 171.5 -129 Q 179 -114 190.5 -102.5 Q 202 -91 218 -85.5 Q 234 -80 250 -80 Z " id="path7"/>
<path d="M 242 0 L 138 0 L 336 -647 L 60 -647 L 60 -735 L 440 -735 L 440 -647 Z " id="path8"/>
<path d="M 250 8 Q 225 8 200 4 Q 175 -0 152 -10 Q 129 -20 109.5 -37 Q 90 -54 77.5 -75.5 Q 65 -97 58.5 -121.5 Q 52 -146 52 -172 Q 52 -203 62 -232.5 Q 72 -262 88.5 -288 Q 105 -314 127 -336 Q 149 -358 174 -378 Q 152 -396 132.5 -417 Q 113 -438 98.5 -462.5 Q 84 -487 76 -514.5 Q 68 -542 68 -570 Q 68 -594 73.5 -617 Q 79 -640 90.5 -661 Q 102 -682 119.5 -698.5 Q 137 -715 158 -725 Q 179 -735 202.5 -739 Q 226 -743 250 -743 Q 274 -743 297.5 -739 Q 321 -735 342 -725 Q 363 -715 380.5 -698.5 Q 398 -682 409.5 -661 Q 421 -640 426.5 -617 Q 432 -594 432 -570 Q 432 -542 424 -514.5 Q 416 -487 401.5 -462.5 Q 387 -438 367.5 -417 Q 348 -396 326 -378 Q 351 -358 373 -336 Q 395 -314 411.5 -288 Q 428 -262 438 -232.5 Q 448 -203 448 -172 Q 448 -146 441.5 -121.5 Q 435 -97 422.5 -75.5 Q 410 -54 390.5 -37 Q 371 -20 348 -10 Q 325 -0 300 4 Q 275 8 250 8 Z M 250 -435 Q 266 -447 280.5 -461.5 Q 295 -476 306.5 -493 Q 318 -510 325 -529.5 Q 332 -549 332 -569 Q 332 -586 326.5 -602.5 Q 321 -619 310 -631.5 Q 299 -644 283 -649.5 Q 267 -655 250 -655 Q 233 -655 217 -649.5 Q 201 -644 190 -631.5 Q 179 -619 173.5 -602.5 Q 168 -586 168 -569 Q 168 -549 175 -529.5 Q 182 -510 193.5 -493 Q 205 -476 219.5 -461.5 Q 234 -447 250 -435 Z M 250 -80 Q 269 -80 287.5 -85.5 Q 306 -91 320 -104 Q 334 -117 340.5 -135.5 Q 347 -154 347 -173 Q 347 -196 338.5 -217.5 Q 330 -239 316.5 -257.5 Q 303 -276 285.5 -291 Q 268 -306 250 -320 Q 232 -306 214.5 -291 Q 197 -276 183.5 -257.5 Q 170 -239 161.5 -217.5 Q 153 -196 153 -173 Q 153 -154 159.5 -135.5 Q 166 -117 180 -104 Q 194 -91 212.5 -85.5 Q 231 -80 250 -80 Z " id="path9"/>
<path d="M 262 0 L 153 0 L 260 -218 Q 272 -242 283.5 -266.5 Q 295 -291 305 -316 Q 286 -297 261 -288 Q 236 -279 209 -279 Q 183 -279 157.5 -288 Q 132 -297 113.5 -315.5 Q 95 -334 83 -357.5 Q 71 -381 64 -406.5 Q 57 -432 54.5 -458.5 Q 52 -485 52 -511 Q 52 -540 56 -568.5 Q 60 -597 70.5 -624 Q 81 -651 98.5 -674.5 Q 116 -698 140 -714 Q 164 -730 192.5 -736.5 Q 221 -743 250 -743 Q 279 -743 307.5 -736.5 Q 336 -730 360 -714 Q 384 -698 401.5 -674.5 Q 419 -651 429.5 -624 Q 440 -597 444 -568.5 Q 448 -540 448 -511 Q 448 -467 440 -424 Q 432 -381 418.5 -339.5 Q 405 -298 387 -258 Q 369 -218 350 -179 Z M 250 -367 Q 265 -367 279 -371.5 Q 293 -376 304.5 -385.5 Q 316 -395 323.5 -407.5 Q 331 -420 336 -434 Q 341 -448 343.5 -462.5 Q 346 -477 347 -492 L 347 -511 Q 347 -527 345.5 -543.5 Q 344 -560 340 -575.5 Q 336 -591 328.5 -606 Q 321 -621 309.5 -632.5 Q 298 -644 282 -649.5 Q 266 -655 250 -655 Q 234 -655 218 -649.5 Q 202 -644 190.5 -632.5 Q 179 -621 171.5 -606 Q 164 -591 160 -575.5 Q 156 -560 154.5 -543.5 Q 153 -527 153 -511 Q 153 -495 154.5 -478.5 Q 156 -462 160 -446 Q 164 -430 171.5 -415.5 Q 179 -401 190.5 -389.5 Q 202 -378 218 -372.5 Q 234 -367 250 -367 Z " id="path10"/>
<path d="M 39 0 L 192 -735 L 308 -735 L 461 0 L 358 0 L 326 -172 L 174 -172 L 142 0 Z M 309 -260 L 265 -490 Q 262 -511 258 -531.5 Q 254 -552 250 -572 Q 246 -552 242 -531.5 Q 238 -511 235 -490 L 191 -260 Z " id="path11"/>
<path d="M 60 0 L 60 -735 L 234 -735 Q 261 -735 287 -730.5 Q 313 -726 336 -714 Q 359 -702 377.5 -682.5 Q 396 -663 408 -639.5 Q 420 -616 424.5 -590 Q 429 -564 429 -538 Q 429 -515 425 -492 Q 421 -469 410.5 -448.5 Q 400 -428 383.5 -411 Q 367 -394 347 -383 Q 372 -373 393.5 -355.5 Q 415 -338 429.5 -314.5 Q 444 -291 450 -264 Q 456 -237 456 -210 Q 456 -181 450 -152.5 Q 444 -124 430 -98.5 Q 416 -73 394.5 -53.5 Q 373 -34 347 -21.5 Q 321 -9 292 -4.5 Q 263 -0 234 0 Z M 161 -424 L 234 -424 Q 255 -424 274.5 -432.5 Q 294 -441 306.5 -457.5 Q 319 -474 324 -494.5 Q 329 -515 329 -536 Q 329 -557 324 -577.5 Q 319 -598 306.5 -614.5 Q 294 -631 274.5 -639 Q 255 -647 234 -647 L 161 -647 Z M 161 -88 L 234 -88 Q 251 -88 267 -91 Q 283 -94 297.5 -101.5 Q 312 -109 323.5 -121 Q 335 -133 342.5 -148 Q 350 -163 352.5 -179 Q 355 -195 355 -212 Q 355 -228 352.5 -244.5 Q 350 -261 343 -276 Q 336 -291 324.5 -303 Q 313 -315 298 -322.5 Q 283 -330 267 -333 Q 251 -336 234 -336 L 161 -336 Z " id="path12"/>
<path d="M 247 8 Q 220 8 193 2.5 Q 166 -3 142.5 -16 Q 119 -29 101 -49.5 Q 83 -70 72 -94.5 Q 61 -119 56.5 -146 Q 52 -173 52 -200 L 52 -535 Q 52 -562 56.5 -589 Q 61 -616 72 -640.5 Q 83 -665 101 -685.5 Q 119 -706 142.5 -719 Q 166 -732 193 -737.5 Q 220 -743 247 -743 Q 273 -743 298 -738.5 Q 323 -734 346 -723 Q 369 -712 387.5 -694 Q 406 -676 418 -653.5 Q 430 -631 436 -606 Q 442 -581 442 -555 L 442 -548 L 341 -548 L 341 -552 Q 341 -572 335.5 -591.5 Q 330 -611 317.5 -626 Q 305 -641 286 -648 Q 267 -655 247 -655 Q 225 -655 205 -645.5 Q 185 -636 173 -618 Q 161 -600 157 -578.5 Q 153 -557 153 -535 L 153 -200 Q 153 -178 157 -156.5 Q 161 -135 173 -117 Q 185 -99 205 -89.5 Q 225 -80 247 -80 Q 267 -80 286 -87 Q 305 -94 317.5 -109 Q 330 -124 335.5 -143.5 Q 341 -163 341 -183 L 341 -187 L 442 -187 L 442 -180 Q 442 -154 436 -129 Q 430 -104 418 -81.5 Q 406 -59 387.5 -41 Q 369 -23 346 -12 Q 323 -1 298 3.5 Q 273 8 247 8 Z " id="path13"/>
<path d="M 60 0 L 60 -735 L 219 -735 Q 249 -735 279 -730 Q 309 -725 336.5 -712 Q 364 -699 386 -678.5 Q 408 -658 422 -631.5 Q 436 -605 442 -575 Q 448 -545 448 -515 L 448 -220 Q 448 -190 442 -160 Q 436 -130 422 -103.5 Q 408 -77 386 -56.5 Q 364 -36 336.5 -23 Q 309 -10 279 -5 Q 249 -0 219 0 Z M 161 -88 L 219 -88 Q 237 -88 254 -91 Q 271 -94 286.5 -102.5 Q 302 -111 314 -124 Q 326 -137 333.5 -152.5 Q 341 -168 344 -185.5 Q 347 -203 347 -220 L 347 -515 Q 347 -532 344 -549.5 Q 341 -567 333.5 -582.5 Q 326 -598 314 -611 Q 302 -624 286.5 -632.5 Q 271 -641 254 -644 Q 237 -647 219 -647 L 161 -647 Z " id="path14"/>
<path d="M 68 0 L 68 -735 L 440 -735 L 440 -647 L 169 -647 L 169 -426 L 383 -426 L 383 -338 L 169 -338 L 169 -88 L 440 -88 L 440 0 Z " id="path15"/>
<path d="M 91 0 L 91 -735 L 440 -735 L 440 -647 L 191 -647 L 191 -426 L 383 -426 L 383 -338 L 191 -338 L 191 0 Z " id="path16"/>
<path d="M 250 8 Q 223 8 196.5 2.5 Q 170 -3 147 -16.5 Q 124 -30 106.5 -50.5 Q 89 -71 78.5 -95.5 Q 68 -120 64 -146.5 Q 60 -173 60 -200 L 60 -735 L 161 -735 L 161 -200 Q 161 -186 162.5 -172 Q 164 -158 168 -144.5 Q 172 -131 179.5 -118.5 Q 187 -106 197.5 -97 Q 208 -88 222 -84 Q 236 -80 250 -80 Q 264 -80 278 -84 Q 292 -88 302.5 -97 Q 313 -106 320.5 -118.5 Q 328 -131 332 -144.5 Q 336 -158 337.5 -172 Q 339 -186 339 -200 L 339 -735 L 440 -735 L 440 -200 Q 440 -173 436 -146.5 Q 432 -120 421.5 -95.5 Q 411 -71 393.5 -50.5 Q 376 -30 353 -16.5 Q 330 -3 303.5 2.5 Q 277 8 250 8 Z " id="path17"/>
<path d="M 300 -143 L 200 -143 L 200 -296 L 60 -296 L 60 -384 L 200 -384 L 200 -537 L 300 -537 L 300 -384 L 440 -384 L 440 -296 L 300 -296 Z " id="path18"/>
<path d="M 64 0 L 64 -735 L 436 -735 L 436 0 Z M 94 -321 L 401 -705 L 308 -705 L 94 -438 Z M 94 -478 L 276 -705 L 182 -705 L 94 -595 Z M 94 -634 L 151 -705 L 94 -705 Z M 94 -165 L 406 -554 L 406 -671 L 94 -282 Z M 94 -30 L 111 -30 L 406 -398 L 406 -515 L 94 -126 Z M 143 -30 L 236 -30 L 406 -242 L 406 -359 Z M 268 -30 L 362 -30 L 406 -85 L 406 -202 Z M 393 -30 L 406 -30 L 406 -46 Z " id="path19"/>
<path d="M 252 223 Q 226 223 199.5 217.5 Q 173 212 150 198.5 Q 127 185 110 164 Q 93 143 82.5 119 Q 72 95 68 68.5 Q 64 42 64 15 L 64 -520 L 142 -485 L 142 -428 Q 150 -450 163.5 -469 Q 177 -488 196 -502 Q 215 -516 238 -522 Q 261 -528 284 -528 Q 309 -528 333.5 -521 Q 358 -514 377 -499 Q 396 -484 409.5 -462.5 Q 423 -441 430.5 -417.5 Q 438 -394 441 -369.5 Q 444 -345 444 -320 L 444 -200 Q 444 -175 441 -150.5 Q 438 -126 430.5 -102.5 Q 423 -79 409.5 -57.5 Q 396 -36 377 -21 Q 358 -6 333.5 1 Q 309 8 284 8 Q 261 8 238 2 Q 215 -4 196 -18 Q 177 -32 163.5 -51 Q 150 -70 142 -92 L 142 15 Q 142 32 144 48.5 Q 146 65 151.5 81 Q 157 97 166.5 111 Q 176 125 189.5 134.5 Q 203 144 219.5 148.5 Q 236 153 252 153 Q 271 153 289 150 Q 307 147 322.5 138 Q 338 129 349 113.5 Q 360 98 360 80 L 438 80 Q 437 102 430 123 Q 423 144 409.5 161 Q 396 178 377.5 190.5 Q 359 203 338.5 210.5 Q 318 218 296 220.5 Q 274 223 252 223 Z M 254 -62 Q 271 -62 287.5 -66 Q 304 -70 317.5 -80 Q 331 -90 341 -104 Q 351 -118 356.5 -134 Q 362 -150 364 -166.5 Q 366 -183 366 -200 L 366 -320 Q 366 -337 364 -353.5 Q 362 -370 356.5 -386 Q 351 -402 341 -416 Q 331 -430 317.5 -440 Q 304 -450 287.5 -454 Q 271 -458 254 -458 Q 237 -458 220.5 -454 Q 204 -450 190.5 -440 Q 177 -430 167 -416 Q 157 -402 151.5 -386 Q 146 -370 144 -353.5 Q 142 -337 142 -320 L 142 -200 Q 142 -183 144 -166.5 Q 146 -150 151.5 -134 Q 157 -118 167 -104 Q 177 -90 190.5 -80 Q 204 -70 220.5 -66 Q 237 -62 254 -62 Z " id="path20"/>
<path d="M 253 8 Q 239 8 224.5 7 Q 210 6 196 3 Q 182 0 168.5 -5.5 Q 155 -11 143 -18.5 Q 131 -26 120 -35.5 Q 109 -45 100 -56 Q 91 -67 84.5 -79.5 Q 78 -92 73 -105.5 Q 68 -119 65 -135.5 Q 62 -152 62 -162 L 62 -180 L 140 -180 L 140 -176 Q 140 -162 142.5 -148 Q 145 -134 151 -121 Q 157 -108 166.5 -97 Q 176 -86 188 -78.5 Q 200 -71 216 -66.5 Q 232 -62 242 -62 L 253 -62 Q 269 -62 284 -65.5 Q 299 -69 312.5 -76.5 Q 326 -84 336 -96 Q 346 -108 352.5 -122 Q 359 -136 362.5 -154 Q 366 -172 366 -183 L 366 -325 Q 366 -334 365.5 -343.5 Q 365 -353 363.5 -362.5 Q 362 -372 359 -381 Q 356 -390 352 -398.5 Q 348 -407 342.5 -415 Q 337 -423 330.5 -429.5 Q 324 -436 316 -441.5 Q 308 -447 299 -450 Q 290 -453 279 -455.5 Q 268 -458 262 -458 L 254 -458 Q 245 -458 235.5 -456.5 Q 226 -455 216.5 -452.5 Q 207 -450 199 -445.5 Q 191 -441 184 -435 Q 177 -429 171 -421.5 Q 165 -414 160 -406 Q 155 -398 151.5 -389 Q 148 -380 146 -371 Q 144 -362 143 -351 Q 142 -340 142 -334 L 142 -302 L 250 -302 L 250 -232 L 64 -232 L 64 -520 L 133 -520 L 133 -404 Q 137 -420 144 -435.5 Q 151 -451 160 -464.5 Q 169 -478 181 -490 Q 193 -502 207.5 -510 Q 222 -518 241 -523 Q 260 -528 271 -528 L 284 -528 Q 298 -528 312 -526 Q 326 -524 339.5 -519.5 Q 353 -515 365 -508 Q 377 -501 387.5 -491.5 Q 398 -482 406 -470 Q 414 -458 420.5 -445.5 Q 427 -433 431 -420 Q 435 -407 438 -393 Q 441 -379 442.5 -362.5 Q 444 -346 444 -337 L 444 -195 Q 444 -180 443 -164.5 Q 442 -149 439 -134 Q 436 -119 430.5 -105 Q 425 -91 417.5 -78 Q 410 -65 400 -53 Q 390 -41 378.5 -31.5 Q 367 -22 353.5 -14.5 Q 340 -7 326 -2.5 Q 312 2 294 5 Q 276 8 266 8 Z " id="path21"/>
<path d="M 57 0 L 244 -283 L 57 -520 L 152 -520 L 343 -278 L 343 -735 L 420 -735 L 420 0 L 343 0 L 343 -158 L 293 -221 L 147 0 Z " id="path22"/>
<path d="M 96 0 L 96 -520 L 174 -520 L 174 -70 L 442 -70 L 442 0 Z M 263 -180 L 61 -180 Q 44 -180 27.5 -184.5 Q 11 -189 -1.5 -200 Q -14 -211 -19.5 -227 Q -25 -243 -25 -260 Q -25 -277 -19.5 -293 Q -14 -309 -1.5 -320 Q 11 -331 27.5 -335.5 Q 44 -340 61 -340 L 135 -340 L 135 -286 L 61 -286 Q 56 -286 50.5 -284.5 Q 45 -283 41.5 -279 Q 38 -275 36.5 -270 Q 35 -265 35 -260 Q 35 -255 36.5 -250 Q 38 -245 41.5 -241 Q 45 -237 50.5 -235.5 Q 56 -234 61 -234 L 263 -234 Z " id="path23"/>
<path d="M 248 223 Q 234 223 220 221.5 Q 206 220 192.5 217.5 Q 179 215 166 210 Q 153 205 141 198 Q 129 191 118.5 181.5 Q 108 172 99 161.5 Q 90 151 83.5 138.5 Q 77 126 73 113 Q 69 100 66.5 83.5 Q 64 67 64 58 L 64 -105 Q 63 -110 62.5 -115.5 Q 62 -121 62 -125 L 62 -127 L 64 -127 L 64 -665 L 18 -665 L 18 -735 L 142 -735 L 142 -520 L 408 -520 L 408 -450 L 298 -318 Q 317 -316 335 -310.5 Q 353 -305 369.5 -296 Q 386 -287 399.5 -274 Q 413 -261 422.5 -245 Q 432 -229 438 -207.5 Q 444 -186 444 -174 L 444 -159 Q 444 -145 442.5 -131.5 Q 441 -118 437 -104.5 Q 433 -91 426.5 -79 Q 420 -67 411.5 -56 Q 403 -45 392.5 -36 Q 382 -27 370.5 -20 Q 359 -13 346 -8 Q 333 -3 319.5 0.5 Q 306 4 290 6 Q 274 8 265 8 L 253 8 Q 245 8 236.5 7.5 Q 228 7 219.5 6.5 Q 211 6 202.5 5 Q 194 4 184.5 2 Q 175 0 167.5 -2 Q 160 -4 155 -6 L 142 -12 L 142 46 Q 142 59 144 72.5 Q 146 86 151.5 98.5 Q 157 111 166 121 Q 175 131 186 138 Q 197 145 212.5 149 Q 228 153 237 153 L 248 153 Z M 245 -62 L 253 -62 Q 266 -62 279 -64 Q 292 -66 305 -70 Q 318 -74 328.5 -81.5 Q 339 -89 347 -99.5 Q 355 -110 360.5 -124.5 Q 366 -139 366 -148 L 366 -159 Q 366 -167 365 -175 Q 364 -183 361.5 -190.5 Q 359 -198 354.5 -205 Q 350 -212 345 -218 Q 340 -224 333.5 -229 Q 327 -234 319.5 -237.5 Q 312 -241 304.5 -243.5 Q 297 -246 289 -247.5 Q 281 -249 271.5 -250 Q 262 -251 257 -251 L 213 -251 L 213 -321 L 321 -450 L 142 -450 L 142 -114 Q 145 -104 151.5 -96 Q 158 -88 166.5 -82.5 Q 175 -77 184.5 -73 Q 194 -69 204 -66.5 Q 214 -64 226 -63 Q 238 -62 245 -62 Z " id="path24"/>
<path d="M 51 0 L 181 -440 L 176 -440 Q 159 -440 142.5 -444.5 Q 126 -449 113.5 -460 Q 101 -471 95.5 -487 Q 90 -503 90 -520 Q 90 -537 95.5 -553 Q 101 -569 113.5 -580 Q 126 -591 142.5 -595.5 Q 159 -600 176 -600 L 228 -600 L 268 -735 L 349 -735 Q 346 -726 343.5 -717.5 Q 341 -709 338.5 -700 Q 336 -691 333 -681.5 Q 330 -672 327 -661.5 Q 324 -651 321.5 -643 Q 319 -635 318 -629 L 313 -614 L 290 -535 L 302 -494 L 378 -494 L 378 -440 L 318 -440 L 449 0 L 368 0 L 249 -415 L 132 0 Z M 176 -494 L 197 -494 L 212 -546 L 176 -546 Q 171 -546 166 -544.5 Q 161 -543 157 -539 Q 153 -535 151.5 -530 Q 150 -525 150 -520 Q 150 -515 151.5 -510 Q 153 -505 157 -501 Q 161 -497 166 -495.5 Q 171 -494 176 -494 Z " id="path25"/>
<path d="M 252 215 Q 227 215 202 210.5 Q 177 206 154.5 195 Q 132 184 114 166 Q 96 148 84.5 126 Q 73 104 68.5 79 Q 64 54 64 29 L 64 -320 Q 64 -344 66.5 -368.5 Q 69 -393 76.5 -416.5 Q 84 -440 97 -461.5 Q 110 -483 128.5 -498.5 Q 147 -514 171 -521 Q 195 -528 220 -528 Q 242 -528 264.5 -522 Q 287 -516 305.5 -502.5 Q 324 -489 337 -469.5 Q 350 -450 358 -429 L 358 -520 L 436 -520 L 436 0 L 358 0 L 358 -320 Q 358 -337 356 -353.5 Q 354 -370 349 -385.5 Q 344 -401 334.5 -415 Q 325 -429 312 -439 Q 299 -449 283 -453.5 Q 267 -458 250 -458 Q 233 -458 217 -453.5 Q 201 -449 188 -439 Q 175 -429 165.5 -415 Q 156 -401 151 -385.5 Q 146 -370 144 -353.5 Q 142 -337 142 -320 L 142 29 Q 142 52 148 74 Q 154 96 169.5 113 Q 185 130 207 137.5 Q 229 145 252 145 L 273 145 L 273 215 Z " id="path26"/>
<path d="M 482 223 Q 458 223 434 219 Q 410 215 388 204.5 Q 366 194 348 177.5 Q 330 161 318.5 139.5 Q 307 118 302.5 94 Q 298 70 298 46 L 298 -108 Q 291 -86 280.5 -65 Q 270 -44 254 -27 Q 238 -10 216 -1 Q 194 8 171 8 Q 152 8 133.5 3.5 Q 115 -1 100 -11.5 Q 85 -22 75 -38 Q 65 -54 59 -71.5 Q 53 -89 51 -107.5 Q 49 -126 49 -145 L 127 -145 Q 127 -130 129.5 -115.5 Q 132 -101 139.5 -88 Q 147 -75 160.5 -68.5 Q 174 -62 189 -62 Q 209 -62 227.5 -70.5 Q 246 -79 258.5 -94 Q 271 -109 279 -127.5 Q 287 -146 291 -165.5 Q 295 -185 296.5 -205 Q 298 -225 298 -244 L 298 -735 L 376 -735 L 376 46 Q 376 67 382.5 88 Q 389 109 404 124.5 Q 419 140 440 146.5 Q 461 153 482 153 Z " id="path27"/>
<path d="M 191 -566 Q 191 -590 195.5 -614 Q 200 -638 211.5 -659.5 Q 223 -681 241 -697.5 Q 259 -714 281 -724.5 Q 303 -735 327 -739 Q 351 -743 375 -743 L 375 -673 Q 353 -673 332.5 -666.5 Q 312 -660 296.5 -644.5 Q 281 -629 275 -608 Q 269 -587 269 -566 Z M 400 215 Q 371 215 343 210 Q 315 205 289.5 192 Q 264 179 244 158 Q 224 137 212 111 Q 200 85 195.5 56.5 Q 191 28 191 0 L 191 -450 L 64 -450 L 64 -520 L 191 -520 L 191 -566 L 269 -566 L 269 -520 L 436 -520 L 436 -450 L 269 -450 L 269 0 Q 269 19 271.5 37.5 Q 274 56 281 73 Q 288 90 300.5 104.5 Q 313 119 329 128.5 Q 345 138 363 141.5 Q 381 145 400 145 Z " id="path28"/>
<path d="M 211 -260 L 211 -735 L 289 -735 L 289 -260 Z M 395 223 Q 371 223 347 219 Q 323 215 301 205 Q 279 195 261 178 Q 243 161 232 139.5 Q 221 118 216.5 94.5 Q 212 71 212 46 L 212 0 Q 204 -4 198 -10 Q 192 -16 188 -23.5 Q 184 -31 181.5 -40.5 Q 179 -50 179 -56 L 179 -63 Q 179 -72 181 -80.5 Q 183 -89 186.5 -97 Q 190 -105 196 -112 Q 202 -119 209.5 -123.5 Q 217 -128 227 -130.5 Q 237 -133 243 -133 L 250 -133 Q 259 -133 267.5 -131.5 Q 276 -130 284.5 -126.5 Q 293 -123 299.5 -117 Q 306 -111 310.5 -103.5 Q 315 -96 317.5 -86 Q 320 -76 320 -70 L 320 -63 Q 320 -53 318.5 -44 Q 317 -35 313 -27 Q 309 -19 303 -11.5 Q 297 -4 288 0 L 288 46 Q 288 68 294.5 89 Q 301 110 316 125.5 Q 331 141 352 147.5 Q 373 154 395 154 Z " id="path29"/>
<path d="M 101 215 L 63 215 L 63 145 L 101 145 Q 117 145 133 141 Q 149 137 163 128 Q 177 119 186.5 105 Q 196 91 201.5 75.5 Q 207 60 209 44 Q 211 28 211 11 L 211 -531 Q 211 -558 215 -584 Q 219 -610 229.5 -634 Q 240 -658 257.5 -678.5 Q 275 -699 298 -712 Q 321 -725 347 -730 Q 373 -735 399 -735 L 438 -735 L 438 -665 L 399 -665 Q 383 -665 367 -661 Q 351 -657 337 -648 Q 323 -639 313.5 -625 Q 304 -611 298.5 -595.5 Q 293 -580 291 -564 Q 289 -548 289 -531 L 289 11 Q 289 38 285 64 Q 281 90 270.5 114 Q 260 138 242.5 158.5 Q 225 179 202 192 Q 179 205 153 210 Q 127 215 101 215 Z M 119 -320 L 119 -385 L 381 -385 L 381 -320 Z M 119 -173 L 119 -238 L 381 -238 L 381 -173 Z " id="path30"/>
<path d="M 414 223 Q 399 204 384 184 Q 369 164 353 145 Q 337 126 319.5 108 Q 302 90 282 76 Q 280 94 276 111.5 Q 272 129 265 145.5 Q 258 162 247.5 177 Q 237 192 222.5 202.5 Q 208 213 190.5 218 Q 173 223 155 223 Q 130 223 105.5 215.5 Q 81 208 63 190 Q 45 172 37.5 147.5 Q 30 123 30 98 Q 30 79 34 61 Q 38 43 47.5 27.5 Q 57 12 71.5 0.5 Q 86 -11 103 -18 Q 120 -25 138 -27.5 Q 156 -30 174 -30 Q 182 -30 190 -29.5 Q 198 -29 205 -28 L 205 -531 Q 205 -558 209 -584 Q 213 -610 223.5 -634 Q 234 -658 251.5 -678.5 Q 269 -699 292 -712 Q 315 -725 341 -730 Q 367 -735 393 -735 L 432 -735 L 432 -665 L 393 -665 Q 377 -665 361 -661 Q 345 -657 331 -648 Q 317 -639 307.5 -625 Q 298 -611 292.5 -595.5 Q 287 -580 285 -564 Q 283 -548 283 -531 L 283 -3 Q 313 12 339 33 Q 365 54 388.5 78 Q 412 102 433 128 Q 454 154 474 180 Z M 155 154 Q 166 154 175 146.5 Q 184 139 189.5 129 Q 195 119 197.5 108.5 Q 200 98 202 87 Q 204 76 204.5 64.5 Q 205 53 205 42 Q 198 40 190 39.5 Q 182 39 174 39 Q 162 39 149 42 Q 136 45 126 53 Q 116 61 111.5 73 Q 107 85 107 98 Q 107 108 109.5 118.5 Q 112 129 118.5 137 Q 125 145 134.5 149.5 Q 144 154 155 154 Z M 119 -320 L 119 -385 L 381 -385 L 381 -320 Z M 119 -173 L 119 -238 L 381 -238 L 381 -173 Z " id="path31"/>
<path d="M 57 0 L 244 -237 L 57 -520 L 147 -520 L 293 -299 L 343 -362 L 343 -520 L 420 -520 L 420 0 L 343 0 L 343 -242 L 152 0 Z " id="path32"/>
<path d="M 126 8 Q 111 8 98 -1 Q 85 -10 77 -23 Q 69 -36 64 -50.5 Q 59 -65 55.5 -79.5 Q 52 -94 49.5 -109 Q 47 -124 46 -139 Q 45 -154 44.5 -169.5 Q 44 -185 44 -200 L 44 -320 Q 44 -335 44.5 -350.5 Q 45 -366 46 -381 Q 47 -396 49.5 -411 Q 52 -426 55.5 -440.5 Q 59 -455 64 -469.5 Q 69 -484 77 -497 Q 85 -510 98 -519 Q 111 -528 126 -528 Q 141 -528 154 -518.5 Q 167 -509 175 -496.5 Q 183 -484 188 -469.5 Q 193 -455 196 -440 L 196 -735 L 257 -735 L 257 0 L 196 0 L 196 -80 Q 193 -65 188 -50.5 Q 183 -36 175 -23.5 Q 167 -11 154 -1.5 Q 141 8 126 8 Z M 151 -62 Q 160 -62 167.5 -69 Q 175 -76 179 -85 Q 183 -94 186 -103.5 Q 189 -113 190.5 -122.5 Q 192 -132 193.5 -141.5 Q 195 -151 195.5 -161 Q 196 -171 196 -180.5 Q 196 -190 196 -200 L 196 -320 Q 196 -330 196 -339.5 Q 196 -349 195.5 -359 Q 195 -369 193.5 -378.5 Q 192 -388 190.5 -397.5 Q 189 -407 186 -416.5 Q 183 -426 179 -435 Q 175 -444 167.5 -451 Q 160 -458 151 -458 Q 141 -458 133.5 -451 Q 126 -444 122 -435 Q 118 -426 115.5 -416.5 Q 113 -407 111 -397.5 Q 109 -388 108 -378.5 Q 107 -369 106 -359 Q 105 -349 105 -339.5 Q 105 -330 105 -320 L 105 -200 Q 105 -190 105 -180.5 Q 105 -171 106 -161 Q 107 -151 108 -141.5 Q 109 -132 111 -122.5 Q 113 -113 115.5 -103.5 Q 118 -94 122 -85 Q 126 -76 133.5 -69 Q 141 -62 151 -62 Z M 390 228 L 390 135 Q 395 122 396.5 108.5 Q 398 95 398 81 L 398 29 L 396 29 Q 396 43 395 57.5 Q 394 72 392 86.5 Q 390 101 387.5 115 Q 385 129 381 143 Q 377 157 371.5 170.5 Q 366 184 357.5 195.5 Q 349 207 336.5 215 Q 324 223 309 223 Q 295 223 282.5 216 Q 270 209 261.5 198 Q 253 187 247 173.5 Q 241 160 237 146.5 Q 233 133 230.5 119.5 Q 228 106 226 92 Q 224 78 223.5 63.5 Q 223 49 223 35 L 279 35 Q 279 42 279 48.5 Q 279 55 279.5 61.5 Q 280 68 280.5 75 Q 281 82 281.5 88.5 Q 282 95 283 101.5 Q 284 108 285 114.5 Q 286 121 288 127.5 Q 290 134 292 140.5 Q 294 147 298.5 152.5 Q 303 158 309 158 Q 316 158 320 151.5 Q 324 145 326.5 138 Q 329 131 330.5 124.5 Q 332 118 333 111 Q 334 104 335 97 Q 336 90 337 83 Q 338 76 338.5 69 Q 339 62 339 54.5 Q 339 47 339.5 40 Q 340 33 340 26 Q 340 19 340 12 Q 340 5 340 -2 Q 340 -10 340 -18.5 Q 340 -27 340 -35 Q 340 -43 339.5 -51.5 Q 339 -60 338.5 -68.5 Q 338 -77 337 -85 Q 336 -93 334.5 -101 Q 333 -109 331.5 -117.5 Q 330 -126 327 -133.5 Q 324 -141 320 -149 Q 316 -157 307 -157 L 258 -157 L 258 -222 L 325 -455 L 224 -455 L 224 -520 L 378 -520 L 378 -455 L 311 -222 Q 329 -221 343 -208.5 Q 357 -196 365.5 -180.5 Q 374 -165 379.5 -147.5 Q 385 -130 388 -112.5 Q 391 -95 393 -77 Q 395 -59 396 -41 L 449 -41 L 449 81 Q 449 101 446.5 121.5 Q 444 142 437 162 Q 430 182 418.5 199 Q 407 216 390 228 Z " id="path33"/>
<path d="M 280 223 L 280 154 Q 302 154 323 147.5 Q 344 141 359 125.5 Q 374 110 380.5 89 Q 387 68 387 46 L 387 0 L 75 0 L 75 -70 L 218 -70 L 218 -665 L 89 -665 L 89 -735 L 296 -735 L 296 -70 L 463 -70 L 463 46 Q 463 71 458.5 94.5 Q 454 118 443 139.5 Q 432 161 414 178 Q 396 195 374 205 Q 352 215 328 219 Q 304 223 280 223 Z M 385 -302 L 183 -302 Q 166 -302 149.5 -306.5 Q 133 -311 120.5 -322 Q 108 -333 102.5 -349 Q 97 -365 97 -382 Q 97 -399 102.5 -415 Q 108 -431 120.5 -442 Q 133 -453 149.5 -457.5 Q 166 -462 183 -462 L 257 -462 L 257 -408 L 183 -408 Q 178 -408 173 -406.5 Q 168 -405 164 -401 Q 160 -397 158.5 -392 Q 157 -387 157 -382 Q 157 -377 158.5 -372 Q 160 -367 164 -363 Q 168 -359 173 -357.5 Q 178 -356 183 -356 L 385 -356 Z " id="path34"/>
<path d="M 316 216 L 316 137 Q 327 130 335.5 120 Q 344 110 349.5 98 Q 355 86 357 73 Q 359 60 359 46 L 359 0 L 316 0 L 316 29 Q 316 54 311.5 79 Q 307 104 296 126 Q 285 148 266.5 166 Q 248 184 225.5 195 Q 203 206 178 210.5 Q 153 215 128 215 L 107 215 L 107 145 L 128 145 Q 151 145 173 137.5 Q 195 130 210.5 113 Q 226 96 232.5 74 Q 239 52 239 29 L 239 -320 Q 239 -333 238.5 -346.5 Q 238 -360 236 -373 Q 234 -386 231.5 -399 Q 229 -412 224 -424.5 Q 219 -437 210 -447.5 Q 201 -458 188 -458 Q 174 -458 165 -447.5 Q 156 -437 151 -424.5 Q 146 -412 143.5 -399 Q 141 -386 139 -373 Q 137 -360 136.5 -346.5 Q 136 -333 136 -320 L 136 0 L 59 0 L 59 -520 L 136 -520 L 136 -451 Q 141 -465 148 -478.5 Q 155 -492 165 -503.5 Q 175 -515 189 -521.5 Q 203 -528 218 -528 Q 234 -528 248.5 -521 Q 263 -514 273 -501.5 Q 283 -489 290 -474.5 Q 297 -460 301.5 -445 Q 306 -430 309 -414.5 Q 312 -399 313.5 -383 Q 315 -367 315.5 -351.5 Q 316 -336 316 -320 L 316 -70 L 436 -70 L 436 46 Q 436 75 429.5 102.5 Q 423 130 407 153.5 Q 391 177 367 192.5 Q 343 208 316 216 Z " id="path35"/>
<path d="M 239 223 L 239 154 Q 260 154 281 147.5 Q 302 141 317 125.5 Q 332 110 338.5 89 Q 345 68 345 46 L 345 0 L 298 0 L 298 -108 Q 291 -86 280.5 -65 Q 270 -44 254 -27 Q 238 -10 216 -1 Q 194 8 171 8 Q 152 8 133.5 3.5 Q 115 -1 100 -11.5 Q 85 -22 75 -38 Q 65 -54 59 -71.5 Q 53 -89 51 -107.5 Q 49 -126 49 -145 L 127 -145 Q 127 -130 129.5 -115.5 Q 132 -101 139.5 -88 Q 147 -75 160.5 -68.5 Q 174 -62 189 -62 Q 209 -62 227.5 -70.5 Q 246 -79 258.5 -94 Q 271 -109 279 -127.5 Q 287 -146 291 -165.5 Q 295 -185 296.5 -205 Q 298 -225 298 -244 L 298 -520 L 376 -520 L 376 -70 L 422 -70 L 422 46 Q 422 71 417.5 94.5 Q 413 118 401.5 139.5 Q 390 161 372.5 178 Q 355 195 333 205 Q 311 215 287 219 Q 263 223 239 223 Z " id="path36"/>
<path d="M 126 223 L 126 154 Q 148 154 169 147.5 Q 190 141 205 125.5 Q 220 110 226.5 89 Q 233 68 233 46 L 233 0 L 124 0 L 124 -320 Q 124 -334 125 -348.5 Q 126 -363 128 -377.5 Q 130 -392 134 -406 Q 138 -420 144 -433 Q 150 -446 158 -458.5 Q 166 -471 175.5 -482 Q 185 -493 197 -501 Q 209 -509 222.5 -515 Q 236 -521 252.5 -524.5 Q 269 -528 279 -528 L 291 -528 Q 308 -528 325.5 -526 Q 343 -524 360 -519 Q 377 -514 392 -505.5 Q 407 -497 419 -484.5 Q 431 -472 441 -454 Q 451 -436 452 -424 L 453 -410 L 375 -410 Q 374 -418 370 -425.5 Q 366 -433 359.5 -438.5 Q 353 -444 346 -447.5 Q 339 -451 331 -453 Q 323 -455 313.5 -456.5 Q 304 -458 298 -458 L 291 -458 Q 282 -458 273.5 -456 Q 265 -454 257 -450.5 Q 249 -447 242 -441 Q 235 -435 229.5 -428 Q 224 -421 220 -413 Q 216 -405 213 -397 Q 210 -389 208 -380.5 Q 206 -372 204.5 -363 Q 203 -354 202.5 -343.5 Q 202 -333 202 -328 L 202 -70 L 310 -70 L 310 46 Q 310 71 305.5 94.5 Q 301 118 289.5 139.5 Q 278 161 260 178 Q 242 195 220.5 205 Q 199 215 175 219 Q 151 223 126 223 Z " id="path37"/>
<path d="M 173 8 Q 158 8 144 2 Q 130 -4 120 -15.5 Q 110 -27 103.5 -41 Q 97 -55 93.5 -70 Q 90 -85 89 -100 Q 88 -115 88 -130 L 88 -450 L 42 -450 L 42 -520 L 88 -520 L 88 -735 L 149 -735 L 149 -520 L 346 -520 L 346 -450 L 149 -450 L 149 -130 Q 149 -124 149 -117.5 Q 149 -111 150 -104.5 Q 151 -98 152 -91.5 Q 153 -85 155.5 -79 Q 158 -73 162.5 -67.5 Q 167 -62 173 -62 Q 179 -62 182.5 -67.5 Q 186 -73 188.5 -78.5 Q 191 -84 192 -90 Q 193 -96 194 -102 Q 195 -108 196 -114 Q 197 -120 197.5 -126 Q 198 -132 198.5 -138 Q 199 -144 199 -150 Q 199 -156 199 -162 Q 199 -168 199 -174 L 199 -180 L 260 -180 L 260 -171 Q 260 -158 259.5 -144 Q 259 -130 257 -116.5 Q 255 -103 252.5 -89.5 Q 250 -76 246 -63 Q 242 -50 236 -37.5 Q 230 -25 221 -14.5 Q 212 -4 199.5 2 Q 187 8 173 8 Z M 199 215 L 199 145 L 229 145 Q 244 145 258 139.5 Q 272 134 282.5 123.5 Q 293 113 299.5 99 Q 306 85 309.5 70.5 Q 313 56 314 41 Q 315 26 315 11 L 315 -531 Q 315 -555 317.5 -578.5 Q 320 -602 327 -625 Q 334 -648 345.5 -669 Q 357 -690 375.5 -705.5 Q 394 -721 416.5 -728 Q 439 -735 463 -735 L 493 -735 L 493 -665 L 463 -665 Q 448 -665 433.5 -659.5 Q 419 -654 409 -643.5 Q 399 -633 392.5 -619 Q 386 -605 382.5 -590.5 Q 379 -576 377.5 -561 Q 376 -546 376 -531 L 376 -70 L 449 -70 L 449 51 Q 449 74 446 96.5 Q 443 119 434.5 140.5 Q 426 162 411 179.5 Q 396 197 376 208 L 376 131 Q 389 114 393 93 Q 397 72 397 51 L 397 0 L 376 0 L 376 11 Q 376 35 374 58.5 Q 372 82 365 105 Q 358 128 346.5 149 Q 335 170 316.5 185.5 Q 298 201 275 208 Q 252 215 229 215 Z " id="path38"/>
<path d="M 316 246 L 316 168 Q 327 161 335.5 150.5 Q 344 140 349.5 128 Q 355 116 357 103 Q 359 90 359 77 L 359 30 L 323 30 Q 322 52 319 73.5 Q 316 95 309.5 116 Q 303 137 293 156.5 Q 283 176 268 191.5 Q 253 207 232.5 215 Q 212 223 190 223 Q 168 223 147.5 216 Q 127 209 111.5 194 Q 96 179 85.5 160 Q 75 141 69 120 Q 63 99 60 78 Q 57 57 57 35 L 134 35 Q 134 47 135 59 Q 136 71 138 82.5 Q 140 94 143.5 105.5 Q 147 117 153 127.5 Q 159 138 168.5 145.5 Q 178 153 190 153 Q 201 153 210 145.5 Q 219 138 224.5 128 Q 230 118 233.5 107.5 Q 237 97 239 86 Q 241 75 242.5 64 Q 244 53 245 41.5 Q 246 30 246.5 19 Q 247 8 247 -4 Q 247 -18 246 -33 Q 245 -48 243.5 -62.5 Q 242 -77 238.5 -91 Q 235 -105 229.5 -118.5 Q 224 -132 213 -143 Q 202 -154 188 -154 L 110 -154 L 110 -224 L 221 -450 L 59 -450 L 59 -520 L 297 -520 L 297 -450 L 187 -224 L 188 -224 Q 203 -224 219 -220.5 Q 235 -217 248.5 -208.5 Q 262 -200 272.5 -188 Q 283 -176 291 -162 Q 299 -148 304.5 -133 Q 310 -118 314 -102.5 Q 318 -87 320 -71.5 Q 322 -56 323 -40 L 436 -40 L 436 77 Q 436 105 429.5 133 Q 423 161 407 184 Q 391 207 367 223 Q 343 239 316 246 Z " id="path39"/>
<path d="M 570 223 Q 546 223 522 219 Q 498 215 476 205 Q 454 195 436 178 Q 418 161 407 139.5 Q 396 118 391.5 94.5 Q 387 71 387 46 L 387 0 L 75 0 L 75 -70 L 218 -70 L 218 -450 L 89 -450 L 89 -520 L 296 -520 L 296 -70 L 463 -70 L 463 46 Q 463 68 469.5 89 Q 476 110 491 125.5 Q 506 141 527 147.5 Q 548 154 570 154 Z M 255 -608 Q 242 -608 230 -611.5 Q 218 -615 209 -624 Q 200 -633 196.5 -645 Q 193 -657 193 -670 Q 193 -683 196.5 -695 Q 200 -707 209 -716 Q 218 -725 230 -729 Q 242 -733 255 -733 Q 268 -733 280 -729 Q 292 -725 301 -716 Q 310 -707 314 -695 Q 318 -683 318 -670 Q 318 -657 314 -645 Q 310 -633 301 -624 Q 292 -615 280 -611.5 Q 268 -608 255 -608 Z M 388 -238 L 126 -238 L 126 -302 L 388 -302 Z " id="path40"/>
<path d="M 294 223 Q 270 223 246 219 Q 222 215 200 205 Q 178 195 160 178 Q 142 161 131 139.5 Q 120 118 115.5 94.5 Q 111 71 111 46 L 111 -43 Q 101 -52 93.5 -63 Q 86 -74 79.5 -85.5 Q 73 -97 69 -109 Q 65 -121 62 -134 Q 59 -147 57.5 -162.5 Q 56 -178 56 -187 L 56 -320 Q 56 -335 57 -350.5 Q 58 -366 61 -381.5 Q 64 -397 69.5 -411.5 Q 75 -426 82.5 -439.5 Q 90 -453 100 -465 Q 110 -477 122 -487 Q 134 -497 147.5 -504.5 Q 161 -512 175.5 -517 Q 190 -522 208 -525 Q 226 -528 237 -528 L 250 -528 Q 266 -528 281 -526.5 Q 296 -525 311.5 -521 Q 327 -517 341 -510.5 Q 355 -504 367.5 -495.5 Q 380 -487 391 -475.5 Q 402 -464 410.5 -451 Q 419 -438 425.5 -424 Q 432 -410 436 -395 Q 440 -380 442 -362 Q 444 -344 444 -334 L 444 -200 Q 444 -185 443 -169.5 Q 442 -154 439 -138.5 Q 436 -123 430.5 -108.5 Q 425 -94 417.5 -80.5 Q 410 -67 400 -55 Q 390 -43 378 -33 Q 366 -23 352.5 -15.5 Q 339 -8 324.5 -3 Q 310 2 292 5 Q 274 8 264 8 L 250 8 Q 234 8 218.5 6 Q 203 4 187 0 L 187 46 Q 187 68 193.5 89 Q 200 110 215 125.5 Q 230 141 251 147.5 Q 272 154 294 154 Z M 242 -62 L 250 -62 Q 260 -62 269.5 -63.5 Q 279 -65 288.5 -67.5 Q 298 -70 307 -74.5 Q 316 -79 323.5 -85.5 Q 331 -92 337 -99.5 Q 343 -107 348 -115.5 Q 353 -124 356.5 -133.5 Q 360 -143 362 -152.5 Q 364 -162 365 -173.5 Q 366 -185 366 -192 L 366 -320 Q 366 -330 365.5 -339.5 Q 365 -349 363.5 -359 Q 362 -369 359 -378.5 Q 356 -388 352 -396.5 Q 348 -405 342 -413.5 Q 336 -422 329 -429 Q 322 -436 314 -441 Q 306 -446 297 -450 Q 288 -454 276.5 -456 Q 265 -458 259 -458 L 250 -458 Q 240 -458 230.5 -456.5 Q 221 -455 211.5 -452.5 Q 202 -450 193 -445.5 Q 184 -441 176.5 -434.5 Q 169 -428 163 -420.5 Q 157 -413 152 -404.5 Q 147 -396 143.5 -386.5 Q 140 -377 138 -367.5 Q 136 -358 135 -346.5 Q 134 -335 134 -329 L 134 -200 Q 134 -190 134.5 -180.5 Q 135 -171 136.5 -161 Q 138 -151 141 -141.5 Q 144 -132 148 -123.5 Q 152 -115 158 -106.5 Q 164 -98 171 -91 Q 178 -84 186 -79 Q 194 -74 203 -70 Q 212 -66 223.5 -64 Q 235 -62 242 -62 Z " id="path41"/>
<path d="M 543 223 Q 518 223 494 219 Q 470 215 448.5 205 Q 427 195 409 178 Q 391 161 379.5 139.5 Q 368 118 363.5 94.5 Q 359 71 359 46 L 359 -63 Q 348 -46 333.5 -31.5 Q 319 -17 300.5 -8 Q 282 1 262 4.5 Q 242 8 221 8 Q 196 8 171.5 1.5 Q 147 -5 127 -20 Q 107 -35 92.5 -56 Q 78 -77 70 -101 Q 62 -125 59 -150 Q 56 -175 56 -200 L 56 -320 Q 56 -347 60 -373.5 Q 64 -400 75 -424.5 Q 86 -449 103.5 -469.5 Q 121 -490 144 -503.5 Q 167 -517 193.5 -522.5 Q 220 -528 247 -528 Q 272 -528 297 -524 Q 322 -520 344 -509 Q 366 -498 384.5 -480.5 Q 403 -463 415 -441 Q 427 -419 432.5 -394.5 Q 438 -370 438 -345 L 438 -340 L 360 -340 L 360 -343 Q 360 -366 353 -388 Q 346 -410 330 -426.5 Q 314 -443 292 -450.5 Q 270 -458 247 -458 Q 230 -458 213.5 -454 Q 197 -450 183 -440 Q 169 -430 159.5 -416 Q 150 -402 144 -386.5 Q 138 -371 136 -354 Q 134 -337 134 -320 L 134 -200 Q 134 -183 136 -166.5 Q 138 -150 143.5 -134 Q 149 -118 159 -104 Q 169 -90 182.5 -80 Q 196 -70 213 -66 Q 230 -62 246 -62 Q 270 -62 292.5 -69.5 Q 315 -77 330.5 -94 Q 346 -111 352.5 -134 Q 359 -157 359 -180 L 436 -180 L 436 46 Q 436 68 442.5 89 Q 449 110 464 125.5 Q 479 141 500 147.5 Q 521 154 543 154 Z " id="path42"/>
<path d="M 443 10 Q 432 -3 420 -15.5 Q 408 -28 395 -39 Q 381 -26 362.5 -16.5 Q 344 -7 324.5 -1.5 Q 305 4 285 6 Q 265 8 245 8 Q 230 8 215 7.5 Q 200 7 185.5 5 Q 171 3 156 0 Q 141 -3 127 -8 Q 113 -13 100 -20.5 Q 87 -28 76.5 -38.5 Q 66 -49 61 -63.5 Q 56 -78 56 -93 Q 56 -109 62 -124.5 Q 68 -140 79.5 -151.5 Q 91 -163 106 -170.5 Q 121 -178 136.5 -182.5 Q 152 -187 168.5 -188.5 Q 185 -190 201 -190 Q 242 -190 281 -179.5 Q 320 -169 356 -151 Q 350 -169 334 -182 Q 318 -195 300 -202.5 Q 282 -210 263 -215.5 Q 244 -221 225 -227.5 Q 206 -234 188 -242 Q 170 -250 153 -260 Q 136 -270 121.5 -283.5 Q 107 -297 95.5 -313 Q 84 -329 78 -348 Q 72 -367 72 -387 Q 72 -408 78.5 -429 Q 85 -450 98 -467 Q 111 -484 129 -496 Q 147 -508 167 -515.5 Q 187 -523 208.5 -525.5 Q 230 -528 251 -528 Q 272 -528 293 -525.5 Q 314 -523 334 -516 Q 354 -509 372 -497.5 Q 390 -486 403 -469.5 Q 416 -453 423 -432.5 Q 430 -412 430 -391 L 430 -385 L 352 -385 L 352 -388 Q 352 -405 342.5 -420 Q 333 -435 318 -443.5 Q 303 -452 285.5 -455 Q 268 -458 251 -458 Q 234 -458 216.5 -455 Q 199 -452 184 -443.5 Q 169 -435 159 -419.5 Q 149 -404 149 -387 Q 149 -370 159 -355 Q 169 -340 183 -330.5 Q 197 -321 213.5 -315 Q 230 -309 246.5 -304 Q 263 -299 279 -293.5 Q 295 -288 311 -281.5 Q 327 -275 342 -267 Q 357 -259 371 -248.5 Q 385 -238 397 -226 Q 409 -214 418 -199 Q 427 -184 431.5 -167.5 Q 436 -151 436 -133 Q 436 -125 435 -117 Q 434 -109 432 -101 Q 450 -85 467 -68.5 Q 484 -52 500 -34 Z M 243 -59 Q 255 -59 267 -60 Q 279 -61 291 -64 Q 303 -67 314 -72 Q 325 -77 334 -84 Q 304 -102 270 -112 Q 236 -122 201 -122 Q 194 -122 187.5 -122 Q 181 -122 174 -121 Q 167 -120 160 -118 Q 153 -116 147 -113.5 Q 141 -111 136 -105.5 Q 131 -100 131 -93 Q 131 -85 137 -80 Q 143 -75 150.5 -72 Q 158 -69 165.5 -67 Q 173 -65 181 -63.5 Q 189 -62 196.5 -61.5 Q 204 -61 212 -60.5 Q 220 -60 227.5 -59.5 Q 235 -59 243 -59 Z " id="path43"/>
</defs>
<g>
<g data-source-text="0" fill="#dee4e3" transform="translate(174 41.292) rotate(0) scale(0.023999998)">
<use href="#path1" transform="translate(0 0)"/>
</g>
</g>
<g>
<g data-source-text="1" fill="#dee4e3" transform="translate(246 41.292) rotate(0) scale(0.023999998)">
<use href="#path2" transform="translate(0 0)"/>
</g>
</g>
<g>
<g data-source-text="2" fill="#dee4e3" transform="translate(318 41.292) rotate(0) scale(0.023999998)">
<use href="#path3" transform="translate(0 0)"/>
</g>
</g>
<g>
<g data-source-text="3" fill="#dee4e3" transform="translate(390 41.292) rotate(0) scale(0.023999998)">
<use href="#path4" transform="translate(0 0)"/>
</g>
</g>
<g>
<g data-source-text="4" fill="#dee4e3" transform="translate(462 41.292) rotate(0) scale(0.023999998)">
<use href="#path5" transform="translate(0 0)"/>
</g>
</g>
<g>
<g data-source-text="5" fill="#dee4e3" transform="translate(534 41.292) rotate(0) scale(0.023999998)">
<use href="#path6" transform="translate(0 0)"/>
</g>
</g>
<g>
<g data-source-text="6" fill="#dee4e3" transform="translate(606 41.292) rotate(0) scale(0.023999998)">
<use href="#path7" transform="translate(0 0)"/>
</g>
</g>
<g>
<g data-source-text="7" fill="#dee4e3" transform="translate(678 41.292) rotate(0) scale(0.023999998)">
<use href="#path8" transform="translate(0 0)"/>
</g>
</g>
<g>
<g data-source-text="8" fill="#dee4e3" transform="translate(750 41.292) rotate(0) scale(0.023999998)">
<use href="#path9" transform="translate(0 0)"/>
</g>
</g>
<g>
<g data-source-text="9" fill="#dee4e3" transform="translate(822 41.292) rotate(0) scale(0.023999998)">
<use href="#path10" transform="translate(0 0)"/>
</g>
</g>
<g>
<g data-source-text="A" fill="#dee4e3" transform="translate(894 41.292) rotate(0) scale(0.023999998)">
<use href="#path11" transform="translate(0 0)"/>
</g>
</g>
<g>
<g data-source-text="B" fill="#dee4e3" transform="translate(966 41.292) rotate(0) scale(0.023999998)">
<use href="#path12" transform="translate(0 0)"/>
</g>
</g>
<g>
<g data-source-text="C" fill="#dee4e3" transform="translate(1038 41.292) rotate(0) scale(0.023999998)">
<use href="#path13" transform="translate(0 0)"/>
</g>
</g>
<g>
<g data-source-text="D" fill="#dee4e3" transform="translate(1110 41.292) rotate(0) scale(0.023999998)">
<use href="#path14" transform="translate(0 0)"/>
</g>
</g>
<g>
<g data-source-text="E" fill="#dee4e3" transform="translate(1182 41.292) rotate(0) scale(0.023999998)">
<use href="#path15" transform="translate(0 0)"/>
</g>
</g>
<g>
<g data-source-text="F" fill="#dee4e3" transform="translate(1254 41.292) rotate(0) scale(0.023999998)">
<use href="#path16" transform="translate(0 0)"/>
</g>
</g>
<g>
<g data-source-text="U+1DF00" fill="#dee4e3" transform="translate(30 113.292) rotate(0) scale(0.023999998)">
<use href="#path17" transform="translate(0 0)"/>
<use href="#path18" transform="translate(500 0)"/>
<use href="#path2" transform="translate(1000 0)"/>
<use href="#path14" transform="translate(1500 0)"/>
<use href="#path16" transform="translate(2000 0)"/>
<use href="#path1" transform="translate(2500 0)"/>
<use href="#path1" transform="translate(3000 0)"/>
</g>
</g>
<g>
<g data-source-text="ï€" fill="#dee4e340" transform="translate(168 118.584) rotate(0) scale(0.047999997)">
<use href="#path19" transform="translate(0 0)"/>
</g>
</g>
<g>
<g data-source-text="ð¼" fill="#dee4e3" transform="translate(240 118.584) rotate(0) scale(0.047999997)">
<use href="#path20" transform="translate(0 0)"/>
</g>
</g>
<g>
<g data-source-text="ð¼‚" fill="#dee4e3" transform="translate(312 118.584) rotate(0) scale(0.047999997)">
<use href="#path21" transform="translate(0 0)"/>
</g>
</g>
<g>
<g data-source-text="ð¼ƒ" fill="#dee4e3" transform="translate(384 118.584) rotate(0) scale(0.047999997)">
<use href="#path22" transform="translate(0 0)"/>
</g>
</g>
<g>
<g data-source-text="ð¼„" fill="#dee4e3" transform="translate(456 118.584) rotate(0) scale(0.047999997)">
<use href="#path23" transform="translate(0 0)"/>
</g>
</g>
<g>
<g data-source-text="ð¼…" fill="#dee4e3" transform="translate(528 118.584) rotate(0) scale(0.047999997)">
<use href="#path24" transform="translate(0 0)"/>
</g>
</g>
<g>
<g data-source-text="ð¼†" fill="#dee4e3" transform="translate(600 118.584) rotate(0) scale(0.047999997)">
<use href="#path25" transform="translate(0 0)"/>
</g>
</g>
<g>
<g data-source-text="ð¼‡" fill="#dee4e3" transform="translate(672 118.584) rotate(0) scale(0.047999997)">
<use href="#path26" transform="translate(0 0)"/>
</g>
</g>
<g>
<g data-source-text="ð¼ˆ" fill="#dee4e3" transform="translate(744 118.584) rotate(0) scale(0.047999997)">
<use href="#path27" transform="translate(0 0)"/>
</g>
</g>
<g>
<g data-source-text="ð¼‰" fill="#dee4e3" transform="translate(816 118.584) rotate(0) scale(0.047999997)">
<use href="#path28" transform="translate(0 0)"/>
</g>
</g>
<g>
<g data-source-text="ð¼Š" fill="#dee4e3" transform="translate(888 118.584) rotate(0) scale(0.047999997)">
<use href="#path29" transform="translate(0 0)"/>
</g>
</g>
<g>
<g data-source-text="ð¼‹" fill="#dee4e3" transform="translate(960 118.584) rotate(0) scale(0.047999997)">
<use href="#path30" transform="translate(0 0)"/>
</g>
</g>
<g>
<g data-source-text="ð¼Œ" fill="#dee4e3" transform="translate(1032 118.584) rotate(0) scale(0.047999997)">
<use href="#path31" transform="translate(0 0)"/>
</g>
</g>
<g>
<g data-source-text="ï€" fill="#dee4e340" transform="translate(1104 118.584) rotate(0) scale(0.047999997)">
<use href="#path19" transform="translate(0 0)"/>
</g>
</g>
<g>
<g data-source-text="ï€" fill="#dee4e340" transform="translate(1176 118.584) rotate(0) scale(0.047999997)">
<use href="#path19" transform="translate(0 0)"/>
</g>
</g>
<g>
<g data-source-text="ï€" fill="#dee4e340" transform="translate(1248 118.584) rotate(0) scale(0.047999997)">
<use href="#path19" transform="translate(0 0)"/>
</g>
</g>
<g>
<g data-source-text="U+1DF10" fill="#dee4e3" transform="translate(30 185.292) rotate(0) scale(0.023999998)">
<use href="#path17" transform="translate(0 0)"/>
<use href="#path18" transform="translate(500 0)"/>
<use href="#path2" transform="translate(1000 0)"/>
<use href="#path14" transform="translate(1500 0)"/>
<use href="#path16" transform="translate(2000 0)"/>
<use href="#path2" transform="translate(2500 0)"/>
<use href="#path1" transform="translate(3000 0)"/>
</g>
</g>
<g>
<g data-source-text="ð¼" fill="#dee4e3" transform="translate(168 190.584) rotate(0) scale(0.047999997)">
<use href="#path32" transform="translate(0 0)"/>
</g>
</g>
<g>
<g data-source-text="ï€" fill="#dee4e340" transform="translate(240 190.584) rotate(0) scale(0.047999997)">
<use href="#path19" transform="translate(0 0)"/>
</g>
</g>
<g>
<g data-source-text="ð¼’" fill="#dee4e3" transform="translate(312 190.584) rotate(0) scale(0.047999997)">
<use href="#path33" transform="translate(0 0)"/>
</g>
</g>
<g>
<g data-source-text="ð¼“" fill="#dee4e3" transform="translate(384 190.584) rotate(0) scale(0.047999997)">
<use href="#path34" transform="translate(0 0)"/>
</g>
</g>
<g>
<g data-source-text="ð¼”" fill="#dee4e3" transform="translate(456 190.584) rotate(0) scale(0.047999997)">
<use href="#path35" transform="translate(0 0)"/>
</g>
</g>
<g>
<g data-source-text="ð¼•" fill="#dee4e3" transform="translate(528 190.584) rotate(0) scale(0.047999997)">
<use href="#path36" transform="translate(0 0)"/>
</g>
</g>
<g>
<g data-source-text="ð¼–" fill="#dee4e3" transform="translate(600 190.584) rotate(0) scale(0.047999997)">
<use href="#path37" transform="translate(0 0)"/>
</g>
</g>
<g>
<g data-source-text="ð¼—" fill="#dee4e3" transform="translate(672 190.584) rotate(0) scale(0.047999997)">
<use href="#path38" transform="translate(0 0)"/>
</g>
</g>
<g>
<g data-source-text="ð¼˜" fill="#dee4e3" transform="translate(744 190.584) rotate(0) scale(0.047999997)">
<use href="#path39" transform="translate(0 0)"/>
</g>
</g>
<g>
<g data-source-text="ï€" fill="#dee4e340" transform="translate(816 190.584) rotate(0) scale(0.047999997)">
<use href="#path19" transform="translate(0 0)"/>
</g>
</g>
<g>
<g data-source-text="ð¼š" fill="#dee4e3" transform="translate(888 190.584) rotate(0) scale(0.047999997)">
<use href="#path40" transform="translate(0 0)"/>
</g>
</g>
<g>
<g data-source-text="ð¼›" fill="#dee4e3" transform="translate(960 190.584) rotate(0) scale(0.047999997)">
<use href="#path41" transform="translate(0 0)"/>
</g>
</g>
<g>
<g data-source-text="ï€" fill="#dee4e340" transform="translate(1032 190.584) rotate(0) scale(0.047999997)">
<use href="#path19" transform="translate(0 0)"/>
</g>
</g>
<g>
<g data-source-text="ð¼" fill="#dee4e3" transform="translate(1104 190.584) rotate(0) scale(0.047999997)">
<use href="#path42" transform="translate(0 0)"/>
</g>
</g>
<g>
<g data-source-text="ð¼ž" fill="#dee4e3" transform="translate(1176 190.584) rotate(0) scale(0.047999997)">
<use href="#path43" transform="translate(0 0)"/>
</g>
</g>
<g>
<g data-source-text="ï€" fill="#dee4e340" transform="translate(1248 190.584) rotate(0) scale(0.047999997)">
<use href="#path19" transform="translate(0 0)"/>
</g>
</g>
<g>
<g data-source-text="U+1DF20" fill="#dee4e3" transform="translate(30 257.292) rotate(0) scale(0.023999998)">
<use href="#path17" transform="translate(0 0)"/>
<use href="#path18" transform="translate(500 0)"/>
<use href="#path2" transform="translate(1000 0)"/>
<use href="#path14" transform="translate(1500 0)"/>
<use href="#path16" transform="translate(2000 0)"/>
<use href="#path3" transform="translate(2500 0)"/>
<use href="#path1" transform="translate(3000 0)"/>
</g>
</g>
<g>
<g data-source-text="ï€" fill="#dee4e340" transform="translate(168 262.584) rotate(0) scale(0.047999997)">
<use href="#path19" transform="translate(0 0)"/>
</g>
</g>
<g>
<g data-source-text="ï€" fill="#dee4e340" transform="translate(240 262.584) rotate(0) scale(0.047999997)">
<use href="#path19" transform="translate(0 0)"/>
</g>
</g>
<g>
<g data-source-text="ï€" fill="#dee4e340" transform="translate(312 262.584) rotate(0) scale(0.047999997)">
<use href="#path19" transform="translate(0 0)"/>
</g>
</g>
<g>
<g data-source-text="ï€" fill="#dee4e340" transform="translate(384 262.584) rotate(0) scale(0.047999997)">
<use href="#path19" transform="translate(0 0)"/>
</g>
</g>
<g>
<g data-source-text="ï€" fill="#dee4e340" transform="translate(456 262.584) rotate(0) scale(0.047999997)">
<use href="#path19" transform="translate(0 0)"/>
</g>
</g>
<g>
<g data-source-text="ï€" fill="#dee4e340" transform="translate(528 262.584) rotate(0) scale(0.047999997)">
<use href="#path19" transform="translate(0 0)"/>
</g>
</g>
<g>
<g data-source-text="ï€" fill="#dee4e340" transform="translate(600 262.584) rotate(0) scale(0.047999997)">
<use href="#path19" transform="translate(0 0)"/>
</g>
</g>
<g>
<g data-source-text="ï€" fill="#dee4e340" transform="translate(672 262.584) rotate(0) scale(0.047999997)">
<use href="#path19" transform="translate(0 0)"/>
</g>
</g>
<g>
<g data-source-text="ï€" fill="#dee4e340" transform="translate(744 262.584) rotate(0) scale(0.047999997)">
<use href="#path19" transform="translate(0 0)"/>
</g>
</g>
<g>
<g data-source-text="ï€" fill="#dee4e340" transform="translate(816 262.584) rotate(0) scale(0.047999997)">
<use href="#path19" transform="translate(0 0)"/>
</g>
</g>
<g>
<g data-source-text="ï€" fill="#dee4e340" transform="translate(888 262.584) rotate(0) scale(0.047999997)">
<use href="#path19" transform="translate(0 0)"/>
</g>
</g>
<g>
<g data-source-text="ï€" fill="#dee4e340" transform="translate(960 262.584) rotate(0) scale(0.047999997)">
<use href="#path19" transform="translate(0 0)"/>
</g>
</g>
<g>
<g data-source-text="ï€" fill="#dee4e340" transform="translate(1032 262.584) rotate(0) scale(0.047999997)">
<use href="#path19" transform="translate(0 0)"/>
</g>
</g>
<g>
<g data-source-text="ï€" fill="#dee4e340" transform="translate(1104 262.584) rotate(0) scale(0.047999997)">
<use href="#path19" transform="translate(0 0)"/>
</g>
</g>
<g>
<g data-source-text="ï€" fill="#dee4e340" transform="translate(1176 262.584) rotate(0) scale(0.047999997)">
<use href="#path19" transform="translate(0 0)"/>
</g>
</g>
<g>
<g data-source-text="ï€" fill="#dee4e340" transform="translate(1248 262.584) rotate(0) scale(0.047999997)">
<use href="#path19" transform="translate(0 0)"/>
</g>
</g>
<g>
<g data-source-text="U+1DF30" fill="#dee4e3" transform="translate(30 329.292) rotate(0) scale(0.023999998)">
<use href="#path17" transform="translate(0 0)"/>
<use href="#path18" transform="translate(500 0)"/>
<use href="#path2" transform="translate(1000 0)"/>
<use href="#path14" transform="translate(1500 0)"/>
<use href="#path16" transform="translate(2000 0)"/>
<use href="#path4" transform="translate(2500 0)"/>
<use href="#path1" transform="translate(3000 0)"/>
</g>
</g>
<g>
<g data-source-text="ï€" fill="#dee4e340" transform="translate(168 334.584) rotate(0) scale(0.047999997)">
<use href="#path19" transform="translate(0 0)"/>
</g>
</g>
<g>
<g data-source-text="ï€" fill="#dee4e340" transform="translate(240 334.584) rotate(0) scale(0.047999997)">
<use href="#path19" transform="translate(0 0)"/>
</g>
</g>
<g>
<g data-source-text="ï€" fill="#dee4e340" transform="translate(312 334.584) rotate(0) scale(0.047999997)">
<use href="#path19" transform="translate(0 0)"/>
</g>
</g>
<g>
<g data-source-text="ï€" fill="#dee4e340" transform="translate(384 334.584) rotate(0) scale(0.047999997)">
<use href="#path19" transform="translate(0 0)"/>
</g>
</g>
<g>
<g data-source-text="ï€" fill="#dee4e340" transform="translate(456 334.584) rotate(0) scale(0.047999997)">
<use href="#path19" transform="translate(0 0)"/>
</g>
</g>
<g>
<g data-source-text="ï€" fill="#dee4e340" transform="translate(528 334.584) rotate(0) scale(0.047999997)">
<use href="#path19" transform="translate(0 0)"/>
</g>
</g>
<g>
<g data-source-text="ï€" fill="#dee4e340" transform="translate(600 334.584) rotate(0) scale(0.047999997)">
<use href="#path19" transform="translate(0 0)"/>
</g>
</g>
<g>
<g data-source-text="ï€" fill="#dee4e340" transform="translate(672 334.584) rotate(0) scale(0.047999997)">
<use href="#path19" transform="translate(0 0)"/>
</g>
</g>
<g>
<g data-source-text="ï€" fill="#dee4e340" transform="translate(744 334.584) rotate(0) scale(0.047999997)">
<use href="#path19" transform="translate(0 0)"/>
</g>
</g>
<g>
<g data-source-text="ï€" fill="#dee4e340" transform="translate(816 334.584) rotate(0) scale(0.047999997)">
<use href="#path19" transform="translate(0 0)"/>
</g>
</g>
<g>
<g data-source-text="ï€" fill="#dee4e340" transform="translate(888 334.584) rotate(0) scale(0.047999997)">
<use href="#path19" transform="translate(0 0)"/>
</g>
</g>
<g>
<g data-source-text="ï€" fill="#dee4e340" transform="translate(960 334.584) rotate(0) scale(0.047999997)">
<use href="#path19" transform="translate(0 0)"/>
</g>
</g>
<g>
<g data-source-text="ï€" fill="#dee4e340" transform="translate(1032 334.584) rotate(0) scale(0.047999997)">
<use href="#path19" transform="translate(0 0)"/>
</g>
</g>
<g>
<g data-source-text="ï€" fill="#dee4e340" transform="translate(1104 334.584) rotate(0) scale(0.047999997)">
<use href="#path19" transform="translate(0 0)"/>
</g>
</g>
<g>
<g data-source-text="ï€" fill="#dee4e340" transform="translate(1176 334.584) rotate(0) scale(0.047999997)">
<use href="#path19" transform="translate(0 0)"/>
</g>
</g>
<g>
<g data-source-text="ï€" fill="#dee4e340" transform="translate(1248 334.584) rotate(0) scale(0.047999997)">
<use href="#path19" transform="translate(0 0)"/>
</g>
</g>
<g>
<g data-source-text="U+1DF40" fill="#dee4e3" transform="translate(30 401.292) rotate(0) scale(0.023999998)">
<use href="#path17" transform="translate(0 0)"/>
<use href="#path18" transform="translate(500 0)"/>
<use href="#path2" transform="translate(1000 0)"/>
<use href="#path14" transform="translate(1500 0)"/>
<use href="#path16" transform="translate(2000 0)"/>
<use href="#path5" transform="translate(2500 0)"/>
<use href="#path1" transform="translate(3000 0)"/>
</g>
</g>
<g>
<g data-source-text="ï€" fill="#dee4e340" transform="translate(168 406.584) rotate(0) scale(0.047999997)">
<use href="#path19" transform="translate(0 0)"/>
</g>
</g>
<g>
<g data-source-text="ï€" fill="#dee4e340" transform="translate(240 406.584) rotate(0) scale(0.047999997)">
<use href="#path19" transform="translate(0 0)"/>
</g>
</g>
<g>
<g data-source-text="ï€" fill="#dee4e340" transform="translate(312 406.584) rotate(0) scale(0.047999997)">
<use href="#path19" transform="translate(0 0)"/>
</g>
</g>
<g>
<g data-source-text="ï€" fill="#dee4e340" transform="translate(384 406.584) rotate(0) scale(0.047999997)">
<use href="#path19" transform="translate(0 0)"/>
</g>
</g>
<g>
<g data-source-text="ï€" fill="#dee4e340" transform="translate(456 406.584) rotate(0) scale(0.047999997)">
<use href="#path19" transform="translate(0 0)"/>
</g>
</g>
<g>
<g data-source-text="ï€" fill="#dee4e340" transform="translate(528 406.584) rotate(0) scale(0.047999997)">
<use href="#path19" transform="translate(0 0)"/>
</g>
</g>
<g>
<g data-source-text="ï€" fill="#dee4e340" transform="translate(600 406.584) rotate(0) scale(0.047999997)">
<use href="#path19" transform="translate(0 0)"/>
</g>
</g>
<g>
<g data-source-text="ï€" fill="#dee4e340" transform="translate(672 406.584) rotate(0) scale(0.047999997)">
<use href="#path19" transform="translate(0 0)"/>
</g>
</g>
<g>
<g data-source-text="ï€" fill="#dee4e340" transform="translate(744 406.584) rotate(0) scale(0.047999997)">
<use href="#path19" transform="translate(0 0)"/>
</g>
</g>
<g>
<g data-source-text="ï€" fill="#dee4e340" transform="translate(816 406.584) rotate(0) scale(0.047999997)">
<use href="#path19" transform="translate(0 0)"/>
</g>
</g>
<g>
<g data-source-text="ï€" fill="#dee4e340" transform="translate(888 406.584) rotate(0) scale(0.047999997)">
<use href="#path19" transform="translate(0 0)"/>
</g>
</g>
<g>
<g data-source-text="ï€" fill="#dee4e340" transform="translate(960 406.584) rotate(0) scale(0.047999997)">
<use href="#path19" transform="translate(0 0)"/>
</g>
</g>
<g>
<g data-source-text="ï€" fill="#dee4e340" transform="translate(1032 406.584) rotate(0) scale(0.047999997)">
<use href="#path19" transform="translate(0 0)"/>
</g>
</g>
<g>
<g data-source-text="ï€" fill="#dee4e340" transform="translate(1104 406.584) rotate(0) scale(0.047999997)">
<use href="#path19" transform="translate(0 0)"/>
</g>
</g>
<g>
<g data-source-text="ï€" fill="#dee4e340" transform="translate(1176 406.584) rotate(0) scale(0.047999997)">
<use href="#path19" transform="translate(0 0)"/>
</g>
</g>
<g>
<g data-source-text="ï€" fill="#dee4e340" transform="translate(1248 406.584) rotate(0) scale(0.047999997)">
<use href="#path19" transform="translate(0 0)"/>
</g>
</g>
<g>
<g data-source-text="U+1DF50" fill="#dee4e3" transform="translate(30 473.292) rotate(0) scale(0.023999998)">
<use href="#path17" transform="translate(0 0)"/>
<use href="#path18" transform="translate(500 0)"/>
<use href="#path2" transform="translate(1000 0)"/>
<use href="#path14" transform="translate(1500 0)"/>
<use href="#path16" transform="translate(2000 0)"/>
<use href="#path6" transform="translate(2500 0)"/>
<use href="#path1" transform="translate(3000 0)"/>
</g>
</g>
<g>
<g data-source-text="ï€" fill="#dee4e340" transform="translate(168 478.584) rotate(0) scale(0.047999997)">
<use href="#path19" transform="translate(0 0)"/>
</g>
</g>
<g>
<g data-source-text="ï€" fill="#dee4e340" transform="translate(240 478.584) rotate(0) scale(0.047999997)">
<use href="#path19" transform="translate(0 0)"/>
</g>
</g>
<g>
<g data-source-text="ï€" fill="#dee4e340" transform="translate(312 478.584) rotate(0) scale(0.047999997)">
<use href="#path19" transform="translate(0 0)"/>
</g>
</g>
<g>
<g data-source-text="ï€" fill="#dee4e340" transform="translate(384 478.584) rotate(0) scale(0.047999997)">
<use href="#path19" transform="translate(0 0)"/>
</g>
</g>
<g>
<g data-source-text="ï€" fill="#dee4e340" transform="translate(456 478.584) rotate(0) scale(0.047999997)">
<use href="#path19" transform="translate(0 0)"/>
</g>
</g>
<g>
<g data-source-text="ï€" fill="#dee4e340" transform="translate(528 478.584) rotate(0) scale(0.047999997)">
<use href="#path19" transform="translate(0 0)"/>
</g>
</g>
<g>
<g data-source-text="ï€" fill="#dee4e340" transform="translate(600 478.584) rotate(0) scale(0.047999997)">
<use href="#path19" transform="translate(0 0)"/>
</g>
</g>
<g>
<g data-source-text="ï€" fill="#dee4e340" transform="translate(672 478.584) rotate(0) scale(0.047999997)">
<use href="#path19" transform="translate(0 0)"/>
</g>
</g>
<g>
<g data-source-text="ï€" fill="#dee4e340" transform="translate(744 478.584) rotate(0) scale(0.047999997)">
<use href="#path19" transform="translate(0 0)"/>
</g>
</g>
<g>
<g data-source-text="ï€" fill="#dee4e340" transform="translate(816 478.584) rotate(0) scale(0.047999997)">
<use href="#path19" transform="translate(0 0)"/>
</g>
</g>
<g>
<g data-source-text="ï€" fill="#dee4e340" transform="translate(888 478.584) rotate(0) scale(0.047999997)">
<use href="#path19" transform="translate(0 0)"/>
</g>
</g>
<g>
<g data-source-text="ï€" fill="#dee4e340" transform="translate(960 478.584) rotate(0) scale(0.047999997)">
<use href="#path19" transform="translate(0 0)"/>
</g>
</g>
<g>
<g data-source-text="ï€" fill="#dee4e340" transform="translate(1032 478.584) rotate(0) scale(0.047999997)">
<use href="#path19" transform="translate(0 0)"/>
</g>
</g>
<g>
<g data-source-text="ï€" fill="#dee4e340" transform="translate(1104 478.584) rotate(0) scale(0.047999997)">
<use href="#path19" transform="translate(0 0)"/>
</g>
</g>
<g>
<g data-source-text="ï€" fill="#dee4e340" transform="translate(1176 478.584) rotate(0) scale(0.047999997)">
<use href="#path19" transform="translate(0 0)"/>
</g>
</g>
<g>
<g data-source-text="ï€" fill="#dee4e340" transform="translate(1248 478.584) rotate(0) scale(0.047999997)">
<use href="#path19" transform="translate(0 0)"/>
</g>
</g>
<g>
<g data-source-text="U+1DF60" fill="#dee4e3" transform="translate(30 545.292) rotate(0) scale(0.023999998)">
<use href="#path17" transform="translate(0 0)"/>
<use href="#path18" transform="translate(500 0)"/>
<use href="#path2" transform="translate(1000 0)"/>
<use href="#path14" transform="translate(1500 0)"/>
<use href="#path16" transform="translate(2000 0)"/>
<use href="#path7" transform="translate(2500 0)"/>
<use href="#path1" transform="translate(3000 0)"/>
</g>
</g>
<g>
<g data-source-text="ï€" fill="#dee4e340" transform="translate(168 550.584) rotate(0) scale(0.047999997)">
<use href="#path19" transform="translate(0 0)"/>
</g>
</g>
<g>
<g data-source-text="ï€" fill="#dee4e340" transform="translate(240 550.584) rotate(0) scale(0.047999997)">
<use href="#path19" transform="translate(0 0)"/>
</g>
</g>
<g>
<g data-source-text="ï€" fill="#dee4e340" transform="translate(312 550.584) rotate(0) scale(0.047999997)">
<use href="#path19" transform="translate(0 0)"/>
</g>
</g>
<g>
<g data-source-text="ï€" fill="#dee4e340" transform="translate(384 550.584) rotate(0) scale(0.047999997)">
<use href="#path19" transform="translate(0 0)"/>
</g>
</g>
<g>
<g data-source-text="ï€" fill="#dee4e340" transform="translate(456 550.584) rotate(0) scale(0.047999997)">
<use href="#path19" transform="translate(0 0)"/>
</g>
</g>
<g>
<g data-source-text="ï€" fill="#dee4e340" transform="translate(528 550.584) rotate(0) scale(0.047999997)">
<use href="#path19" transform="translate(0 0)"/>
</g>
</g>
<g>
<g data-source-text="ï€" fill="#dee4e340" transform="translate(600 550.584) rotate(0) scale(0.047999997)">
<use href="#path19" transform="translate(0 0)"/>
</g>
</g>
<g>
<g data-source-text="ï€" fill="#dee4e340" transform="translate(672 550.584) rotate(0) scale(0.047999997)">
<use href="#path19" transform="translate(0 0)"/>
</g>
</g>
<g>
<g data-source-text="ï€" fill="#dee4e340" transform="translate(744 550.584) rotate(0) scale(0.047999997)">
<use href="#path19" transform="translate(0 0)"/>
</g>
</g>
<g>
<g data-source-text="ï€" fill="#dee4e340" transform="translate(816 550.584) rotate(0) scale(0.047999997)">
<use href="#path19" transform="translate(0 0)"/>
</g>
</g>
<g>
<g data-source-text="ï€" fill="#dee4e340" transform="translate(888 550.584) rotate(0) scale(0.047999997)">
<use href="#path19" transform="translate(0 0)"/>
</g>
</g>
<g>
<g data-source-text="ï€" fill="#dee4e340" transform="translate(960 550.584) rotate(0) scale(0.047999997)">
<use href="#path19" transform="translate(0 0)"/>
</g>
</g>
<g>
<g data-source-text="ï€" fill="#dee4e340" transform="translate(1032 550.584) rotate(0) scale(0.047999997)">
<use href="#path19" transform="translate(0 0)"/>
</g>
</g>
<g>
<g data-source-text="ï€" fill="#dee4e340" transform="translate(1104 550.584) rotate(0) scale(0.047999997)">
<use href="#path19" transform="translate(0 0)"/>
</g>
</g>
<g>
<g data-source-text="ï€" fill="#dee4e340" transform="translate(1176 550.584) rotate(0) scale(0.047999997)">
<use href="#path19" transform="translate(0 0)"/>
</g>
</g>
<g>
<g data-source-text="ï€" fill="#dee4e340" transform="translate(1248 550.584) rotate(0) scale(0.047999997)">
<use href="#path19" transform="translate(0 0)"/>
</g>
</g>
<g>
<g data-source-text="U+1DF70" fill="#dee4e3" transform="translate(30 617.292) rotate(0) scale(0.023999998)">
<use href="#path17" transform="translate(0 0)"/>
<use href="#path18" transform="translate(500 0)"/>
<use href="#path2" transform="translate(1000 0)"/>
<use href="#path14" transform="translate(1500 0)"/>
<use href="#path16" transform="translate(2000 0)"/>
<use href="#path8" transform="translate(2500 0)"/>
<use href="#path1" transform="translate(3000 0)"/>
</g>
</g>
<g>
<g data-source-text="ï€" fill="#dee4e340" transform="translate(168 622.584) rotate(0) scale(0.047999997)">
<use href="#path19" transform="translate(0 0)"/>
</g>
</g>
<g>
<g data-source-text="ï€" fill="#dee4e340" transform="translate(240 622.584) rotate(0) scale(0.047999997)">
<use href="#path19" transform="translate(0 0)"/>
</g>
</g>
<g>
<g data-source-text="ï€" fill="#dee4e340" transform="translate(312 622.584) rotate(0) scale(0.047999997)">
<use href="#path19" transform="translate(0 0)"/>
</g>
</g>
<g>
<g data-source-text="ï€" fill="#dee4e340" transform="translate(384 622.584) rotate(0) scale(0.047999997)">
<use href="#path19" transform="translate(0 0)"/>
</g>
</g>
<g>
<g data-source-text="ï€" fill="#dee4e340" transform="translate(456 622.584) rotate(0) scale(0.047999997)">
<use href="#path19" transform="translate(0 0)"/>
</g>
</g>
<g>
<g data-source-text="ï€" fill="#dee4e340" transform="translate(528 622.584) rotate(0) scale(0.047999997)">
<use href="#path19" transform="translate(0 0)"/>
</g>
</g>
<g>
<g data-source-text="ï€" fill="#dee4e340" transform="translate(600 622.584) rotate(0) scale(0.047999997)">
<use href="#path19" transform="translate(0 0)"/>
</g>
</g>
<g>
<g data-source-text="ï€" fill="#dee4e340" transform="translate(672 622.584) rotate(0) scale(0.047999997)">
<use href="#path19" transform="translate(0 0)"/>
</g>
</g>
<g>
<g data-source-text="ï€" fill="#dee4e340" transform="translate(744 622.584) rotate(0) scale(0.047999997)">
<use href="#path19" transform="translate(0 0)"/>
</g>
</g>
<g>
<g data-source-text="ï€" fill="#dee4e340" transform="translate(816 622.584) rotate(0) scale(0.047999997)">
<use href="#path19" transform="translate(0 0)"/>
</g>
</g>
<g>
<g data-source-text="ï€" fill="#dee4e340" transform="translate(888 622.584) rotate(0) scale(0.047999997)">
<use href="#path19" transform="translate(0 0)"/>
</g>
</g>
<g>
<g data-source-text="ï€" fill="#dee4e340" transform="translate(960 622.584) rotate(0) scale(0.047999997)">
<use href="#path19" transform="translate(0 0)"/>
</g>
</g>
<g>
<g data-source-text="ï€" fill="#dee4e340" transform="translate(1032 622.584) rotate(0) scale(0.047999997)">
<use href="#path19" transform="translate(0 0)"/>
</g>
</g>
<g>
<g data-source-text="ï€" fill="#dee4e340" transform="translate(1104 622.584) rotate(0) scale(0.047999997)">
<use href="#path19" transform="translate(0 0)"/>
</g>
</g>
<g>
<g data-source-text="ï€" fill="#dee4e340" transform="translate(1176 622.584) rotate(0) scale(0.047999997)">
<use href="#path19" transform="translate(0 0)"/>
</g>
</g>
<g>
<g data-source-text="ï€" fill="#dee4e340" transform="translate(1248 622.584) rotate(0) scale(0.047999997)">
<use href="#path19" transform="translate(0 0)"/>
</g>
</g>
<g>
<g data-source-text="U+1DF80" fill="#dee4e3" transform="translate(30 689.292) rotate(0) scale(0.023999998)">
<use href="#path17" transform="translate(0 0)"/>
<use href="#path18" transform="translate(500 0)"/>
<use href="#path2" transform="translate(1000 0)"/>
<use href="#path14" transform="translate(1500 0)"/>
<use href="#path16" transform="translate(2000 0)"/>
<use href="#path9" transform="translate(2500 0)"/>
<use href="#path1" transform="translate(3000 0)"/>
</g>
</g>
<g>
<g data-source-text="ï€" fill="#dee4e340" transform="translate(168 694.584) rotate(0) scale(0.047999997)">
<use href="#path19" transform="translate(0 0)"/>
</g>
</g>
<g>
<g data-source-text="ï€" fill="#dee4e340" transform="translate(240 694.584) rotate(0) scale(0.047999997)">
<use href="#path19" transform="translate(0 0)"/>
</g>
</g>
<g>
<g data-source-text="ï€" fill="#dee4e340" transform="translate(312 694.584) rotate(0) scale(0.047999997)">
<use href="#path19" transform="translate(0 0)"/>
</g>
</g>
<g>
<g data-source-text="ï€" fill="#dee4e340" transform="translate(384 694.584) rotate(0) scale(0.047999997)">
<use href="#path19" transform="translate(0 0)"/>
</g>
</g>
<g>
<g data-source-text="ï€" fill="#dee4e340" transform="translate(456 694.584) rotate(0) scale(0.047999997)">
<use href="#path19" transform="translate(0 0)"/>
</g>
</g>
<g>
<g data-source-text="ï€" fill="#dee4e340" transform="translate(528 694.584) rotate(0) scale(0.047999997)">
<use href="#path19" transform="translate(0 0)"/>
</g>
</g>
<g>
<g data-source-text="ï€" fill="#dee4e340" transform="translate(600 694.584) rotate(0) scale(0.047999997)">
<use href="#path19" transform="translate(0 0)"/>
</g>
</g>
<g>
<g data-source-text="ï€" fill="#dee4e340" transform="translate(672 694.584) rotate(0) scale(0.047999997)">
<use href="#path19" transform="translate(0 0)"/>
</g>
</g>
<g>
<g data-source-text="ï€" fill="#dee4e340" transform="translate(744 694.584) rotate(0) scale(0.047999997)">
<use href="#path19" transform="translate(0 0)"/>
</g>
</g>
<g>
<g data-source-text="ï€" fill="#dee4e340" transform="translate(816 694.584) rotate(0) scale(0.047999997)">
<use href="#path19" transform="translate(0 0)"/>
</g>
</g>
<g>
<g data-source-text="ï€" fill="#dee4e340" transform="translate(888 694.584) rotate(0) scale(0.047999997)">
<use href="#path19" transform="translate(0 0)"/>
</g>
</g>
<g>
<g data-source-text="ï€" fill="#dee4e340" transform="translate(960 694.584) rotate(0) scale(0.047999997)">
<use href="#path19" transform="translate(0 0)"/>
</g>
</g>
<g>
<g data-source-text="ï€" fill="#dee4e340" transform="translate(1032 694.584) rotate(0) scale(0.047999997)">
<use href="#path19" transform="translate(0 0)"/>
</g>
</g>
<g>
<g data-source-text="ï€" fill="#dee4e340" transform="translate(1104 694.584) rotate(0) scale(0.047999997)">
<use href="#path19" transform="translate(0 0)"/>
</g>
</g>
<g>
<g data-source-text="ï€" fill="#dee4e340" transform="translate(1176 694.584) rotate(0) scale(0.047999997)">
<use href="#path19" transform="translate(0 0)"/>
</g>
</g>
<g>
<g data-source-text="ï€" fill="#dee4e340" transform="translate(1248 694.584) rotate(0) scale(0.047999997)">
<use href="#path19" transform="translate(0 0)"/>
</g>
</g>
<g>
<g data-source-text="U+1DF90" fill="#dee4e3" transform="translate(30 761.292) rotate(0) scale(0.023999998)">
<use href="#path17" transform="translate(0 0)"/>
<use href="#path18" transform="translate(500 0)"/>
<use href="#path2" transform="translate(1000 0)"/>
<use href="#path14" transform="translate(1500 0)"/>
<use href="#path16" transform="translate(2000 0)"/>
<use href="#path10" transform="translate(2500 0)"/>
<use href="#path1" transform="translate(3000 0)"/>
</g>
</g>
<g>
<g data-source-text="ï€" fill="#dee4e340" transform="translate(168 766.584) rotate(0) scale(0.047999997)">
<use href="#path19" transform="translate(0 0)"/>
</g>
</g>
<g>
<g data-source-text="ï€" fill="#dee4e340" transform="translate(240 766.584) rotate(0) scale(0.047999997)">
<use href="#path19" transform="translate(0 0)"/>
</g>
</g>
<g>
<g data-source-text="ï€" fill="#dee4e340" transform="translate(312 766.584) rotate(0) scale(0.047999997)">
<use href="#path19" transform="translate(0 0)"/>
</g>
</g>
<g>
<g data-source-text="ï€" fill="#dee4e340" transform="translate(384 766.584) rotate(0) scale(0.047999997)">
<use href="#path19" transform="translate(0 0)"/>
</g>
</g>
<g>
<g data-source-text="ï€" fill="#dee4e340" transform="translate(456 766.584) rotate(0) scale(0.047999997)">
<use href="#path19" transform="translate(0 0)"/>
</g>
</g>
<g>
<g data-source-text="ï€" fill="#dee4e340" transform="translate(528 766.584) rotate(0) scale(0.047999997)">
<use href="#path19" transform="translate(0 0)"/>
</g>
</g>
<g>
<g data-source-text="ï€" fill="#dee4e340" transform="translate(600 766.584) rotate(0) scale(0.047999997)">
<use href="#path19" transform="translate(0 0)"/>
</g>
</g>
<g>
<g data-source-text="ï€" fill="#dee4e340" transform="translate(672 766.584) rotate(0) scale(0.047999997)">
<use href="#path19" transform="translate(0 0)"/>
</g>
</g>
<g>
<g data-source-text="ï€" fill="#dee4e340" transform="translate(744 766.584) rotate(0) scale(0.047999997)">
<use href="#path19" transform="translate(0 0)"/>
</g>
</g>
<g>
<g data-source-text="ï€" fill="#dee4e340" transform="translate(816 766.584) rotate(0) scale(0.047999997)">
<use href="#path19" transform="translate(0 0)"/>
</g>
</g>
<g>
<g data-source-text="ï€" fill="#dee4e340" transform="translate(888 766.584) rotate(0) scale(0.047999997)">
<use href="#path19" transform="translate(0 0)"/>
</g>
</g>
<g>
<g data-source-text="ï€" fill="#dee4e340" transform="translate(960 766.584) rotate(0) scale(0.047999997)">
<use href="#path19" transform="translate(0 0)"/>
</g>
</g>
<g>
<g data-source-text="ï€" fill="#dee4e340" transform="translate(1032 766.584) rotate(0) scale(0.047999997)">
<use href="#path19" transform="translate(0 0)"/>
</g>
</g>
<g>
<g data-source-text="ï€" fill="#dee4e340" transform="translate(1104 766.584) rotate(0) scale(0.047999997)">
<use href="#path19" transform="translate(0 0)"/>
</g>
</g>
<g>
<g data-source-text="ï€" fill="#dee4e340" transform="translate(1176 766.584) rotate(0) scale(0.047999997)">
<use href="#path19" transform="translate(0 0)"/>
</g>
</g>
<g>
<g data-source-text="ï€" fill="#dee4e340" transform="translate(1248 766.584) rotate(0) scale(0.047999997)">
<use href="#path19" transform="translate(0 0)"/>
</g>
</g>
<g>
<g data-source-text="U+1DFA0" fill="#dee4e3" transform="translate(30 833.292) rotate(0) scale(0.023999998)">
<use href="#path17" transform="translate(0 0)"/>
<use href="#path18" transform="translate(500 0)"/>
<use href="#path2" transform="translate(1000 0)"/>
<use href="#path14" transform="translate(1500 0)"/>
<use href="#path16" transform="translate(2000 0)"/>
<use href="#path11" transform="translate(2500 0)"/>
<use href="#path1" transform="translate(3000 0)"/>
</g>
</g>
<g>
<g data-source-text="ï€" fill="#dee4e340" transform="translate(168 838.584) rotate(0) scale(0.047999997)">
<use href="#path19" transform="translate(0 0)"/>
</g>
</g>
<g>
<g data-source-text="ï€" fill="#dee4e340" transform="translate(240 838.584) rotate(0) scale(0.047999997)">
<use href="#path19" transform="translate(0 0)"/>
</g>
</g>
<g>
<g data-source-text="ï€" fill="#dee4e340" transform="translate(312 838.584) rotate(0) scale(0.047999997)">
<use href="#path19" transform="translate(0 0)"/>
</g>
</g>
<g>
<g data-source-text="ï€" fill="#dee4e340" transform="translate(384 838.584) rotate(0) scale(0.047999997)">
<use href="#path19" transform="translate(0 0)"/>
</g>
</g>
<g>
<g data-source-text="ï€" fill="#dee4e340" transform="translate(456 838.584) rotate(0) scale(0.047999997)">
<use href="#path19" transform="translate(0 0)"/>
</g>
</g>
<g>
<g data-source-text="ï€" fill="#dee4e340" transform="translate(528 838.584) rotate(0) scale(0.047999997)">
<use href="#path19" transform="translate(0 0)"/>
</g>
</g>
<g>
<g data-source-text="ï€" fill="#dee4e340" transform="translate(600 838.584) rotate(0) scale(0.047999997)">
<use href="#path19" transform="translate(0 0)"/>
</g>
</g>
<g>
<g data-source-text="ï€" fill="#dee4e340" transform="translate(672 838.584) rotate(0) scale(0.047999997)">
<use href="#path19" transform="translate(0 0)"/>
</g>
</g>
<g>
<g data-source-text="ï€" fill="#dee4e340" transform="translate(744 838.584) rotate(0) scale(0.047999997)">
<use href="#path19" transform="translate(0 0)"/>
</g>
</g>
<g>
<g data-source-text="ï€" fill="#dee4e340" transform="translate(816 838.584) rotate(0) scale(0.047999997)">
<use href="#path19" transform="translate(0 0)"/>
</g>
</g>
<g>
<g data-source-text="ï€" fill="#dee4e340" transform="translate(888 838.584) rotate(0) scale(0.047999997)">
<use href="#path19" transform="translate(0 0)"/>
</g>
</g>
<g>
<g data-source-text="ï€" fill="#dee4e340" transform="translate(960 838.584) rotate(0) scale(0.047999997)">
<use href="#path19" transform="translate(0 0)"/>
</g>
</g>
<g>
<g data-source-text="ï€" fill="#dee4e340" transform="translate(1032 838.584) rotate(0) scale(0.047999997)">
<use href="#path19" transform="translate(0 0)"/>
</g>
</g>
<g>
<g data-source-text="ï€" fill="#dee4e340" transform="translate(1104 838.584) rotate(0) scale(0.047999997)">
<use href="#path19" transform="translate(0 0)"/>
</g>
</g>
<g>
<g data-source-text="ï€" fill="#dee4e340" transform="translate(1176 838.584) rotate(0) scale(0.047999997)">
<use href="#path19" transform="translate(0 0)"/>
</g>
</g>
<g>
<g data-source-text="ï€" fill="#dee4e340" transform="translate(1248 838.584) rotate(0) scale(0.047999997)">
<use href="#path19" transform="translate(0 0)"/>
</g>
</g>
<g>
<g data-source-text="U+1DFB0" fill="#dee4e3" transform="translate(30 905.292) rotate(0) scale(0.023999998)">
<use href="#path17" transform="translate(0 0)"/>
<use href="#path18" transform="translate(500 0)"/>
<use href="#path2" transform="translate(1000 0)"/>
<use href="#path14" transform="translate(1500 0)"/>
<use href="#path16" transform="translate(2000 0)"/>
<use href="#path12" transform="translate(2500 0)"/>
<use href="#path1" transform="translate(3000 0)"/>
</g>
</g>
<g>
<g data-source-text="ï€" fill="#dee4e340" transform="translate(168 910.584) rotate(0) scale(0.047999997)">
<use href="#path19" transform="translate(0 0)"/>
</g>
</g>
<g>
<g data-source-text="ï€" fill="#dee4e340" transform="translate(240 910.584) rotate(0) scale(0.047999997)">
<use href="#path19" transform="translate(0 0)"/>
</g>
</g>
<g>
<g data-source-text="ï€" fill="#dee4e340" transform="translate(312 910.584) rotate(0) scale(0.047999997)">
<use href="#path19" transform="translate(0 0)"/>
</g>
</g>
<g>
<g data-source-text="ï€" fill="#dee4e340" transform="translate(384 910.584) rotate(0) scale(0.047999997)">
<use href="#path19" transform="translate(0 0)"/>
</g>
</g>
<g>
<g data-source-text="ï€" fill="#dee4e340" transform="translate(456 910.584) rotate(0) scale(0.047999997)">
<use href="#path19" transform="translate(0 0)"/>
</g>
</g>
<g>
<g data-source-text="ï€" fill="#dee4e340" transform="translate(528 910.584) rotate(0) scale(0.047999997)">
<use href="#path19" transform="translate(0 0)"/>
</g>
</g>
<g>
<g data-source-text="ï€" fill="#dee4e340" transform="translate(600 910.584) rotate(0) scale(0.047999997)">
<use href="#path19" transform="translate(0 0)"/>
</g>
</g>
<g>
<g data-source-text="ï€" fill="#dee4e340" transform="translate(672 910.584) rotate(0) scale(0.047999997)">
<use href="#path19" transform="translate(0 0)"/>
</g>
</g>
<g>
<g data-source-text="ï€" fill="#dee4e340" transform="translate(744 910.584) rotate(0) scale(0.047999997)">
<use href="#path19" transform="translate(0 0)"/>
</g>
</g>
<g>
<g data-source-text="ï€" fill="#dee4e340" transform="translate(816 910.584) rotate(0) scale(0.047999997)">
<use href="#path19" transform="translate(0 0)"/>
</g>
</g>
<g>
<g data-source-text="ï€" fill="#dee4e340" transform="translate(888 910.584) rotate(0) scale(0.047999997)">
<use href="#path19" transform="translate(0 0)"/>
</g>
</g>
<g>
<g data-source-text="ï€" fill="#dee4e340" transform="translate(960 910.584) rotate(0) scale(0.047999997)">
<use href="#path19" transform="translate(0 0)"/>
</g>
</g>
<g>
<g data-source-text="ï€" fill="#dee4e340" transform="translate(1032 910.584) rotate(0) scale(0.047999997)">
<use href="#path19" transform="translate(0 0)"/>
</g>
</g>
<g>
<g data-source-text="ï€" fill="#dee4e340" transform="translate(1104 910.584) rotate(0) scale(0.047999997)">
<use href="#path19" transform="translate(0 0)"/>
</g>
</g>
<g>
<g data-source-text="ï€" fill="#dee4e340" transform="translate(1176 910.584) rotate(0) scale(0.047999997)">
<use href="#path19" transform="translate(0 0)"/>
</g>
</g>
<g>
<g data-source-text="ï€" fill="#dee4e340" transform="translate(1248 910.584) rotate(0) scale(0.047999997)">
<use href="#path19" transform="translate(0 0)"/>
</g>
</g>
<g>
<g data-source-text="U+1DFC0" fill="#dee4e3" transform="translate(30 977.292) rotate(0) scale(0.023999998)">
<use href="#path17" transform="translate(0 0)"/>
<use href="#path18" transform="translate(500 0)"/>
<use href="#path2" transform="translate(1000 0)"/>
<use href="#path14" transform="translate(1500 0)"/>
<use href="#path16" transform="translate(2000 0)"/>
<use href="#path13" transform="translate(2500 0)"/>
<use href="#path1" transform="translate(3000 0)"/>
</g>
</g>
<g>
<g data-source-text="ï€" fill="#dee4e340" transform="translate(168 982.584) rotate(0) scale(0.047999997)">
<use href="#path19" transform="translate(0 0)"/>
</g>
</g>
<g>
<g data-source-text="ï€" fill="#dee4e340" transform="translate(240 982.584) rotate(0) scale(0.047999997)">
<use href="#path19" transform="translate(0 0)"/>
</g>
</g>
<g>
<g data-source-text="ï€" fill="#dee4e340" transform="translate(312 982.584) rotate(0) scale(0.047999997)">
<use href="#path19" transform="translate(0 0)"/>
</g>
</g>
<g>
<g data-source-text="ï€" fill="#dee4e340" transform="translate(384 982.584) rotate(0) scale(0.047999997)">
<use href="#path19" transform="translate(0 0)"/>
</g>
</g>
<g>
<g data-source-text="ï€" fill="#dee4e340" transform="translate(456 982.584) rotate(0) scale(0.047999997)">
<use href="#path19" transform="translate(0 0)"/>
</g>
</g>
<g>
<g data-source-text="ï€" fill="#dee4e340" transform="translate(528 982.584) rotate(0) scale(0.047999997)">
<use href="#path19" transform="translate(0 0)"/>
</g>
</g>
<g>
<g data-source-text="ï€" fill="#dee4e340" transform="translate(600 982.584) rotate(0) scale(0.047999997)">
<use href="#path19" transform="translate(0 0)"/>
</g>
</g>
<g>
<g data-source-text="ï€" fill="#dee4e340" transform="translate(672 982.584) rotate(0) scale(0.047999997)">
<use href="#path19" transform="translate(0 0)"/>
</g>
</g>
<g>
<g data-source-text="ï€" fill="#dee4e340" transform="translate(744 982.584) rotate(0) scale(0.047999997)">
<use href="#path19" transform="translate(0 0)"/>
</g>
</g>
<g>
<g data-source-text="ï€" fill="#dee4e340" transform="translate(816 982.584) rotate(0) scale(0.047999997)">
<use href="#path19" transform="translate(0 0)"/>
</g>
</g>
<g>
<g data-source-text="ï€" fill="#dee4e340" transform="translate(888 982.584) rotate(0) scale(0.047999997)">
<use href="#path19" transform="translate(0 0)"/>
</g>
</g>
<g>
<g data-source-text="ï€" fill="#dee4e340" transform="translate(960 982.584) rotate(0) scale(0.047999997)">
<use href="#path19" transform="translate(0 0)"/>
</g>
</g>
<g>
<g data-source-text="ï€" fill="#dee4e340" transform="translate(1032 982.584) rotate(0) scale(0.047999997)">
<use href="#path19" transform="translate(0 0)"/>
</g>
</g>
<g>
<g data-source-text="ï€" fill="#dee4e340" transform="translate(1104 982.584) rotate(0) scale(0.047999997)">
<use href="#path19" transform="translate(0 0)"/>
</g>
</g>
<g>
<g data-source-text="ï€" fill="#dee4e340" transform="translate(1176 982.584) rotate(0) scale(0.047999997)">
<use href="#path19" transform="translate(0 0)"/>
</g>
</g>
<g>
<g data-source-text="ï€" fill="#dee4e340" transform="translate(1248 982.584) rotate(0) scale(0.047999997)">
<use href="#path19" transform="translate(0 0)"/>
</g>
</g>
<g>
<g data-source-text="U+1DFD0" fill="#dee4e3" transform="translate(30 1049.292) rotate(0) scale(0.023999998)">
<use href="#path17" transform="translate(0 0)"/>
<use href="#path18" transform="translate(500 0)"/>
<use href="#path2" transform="translate(1000 0)"/>
<use href="#path14" transform="translate(1500 0)"/>
<use href="#path16" transform="translate(2000 0)"/>
<use href="#path14" transform="translate(2500 0)"/>
<use href="#path1" transform="translate(3000 0)"/>
</g>
</g>
<g>
<g data-source-text="ï€" fill="#dee4e340" transform="translate(168 1054.584) rotate(0) scale(0.047999997)">
<use href="#path19" transform="translate(0 0)"/>
</g>
</g>
<g>
<g data-source-text="ï€" fill="#dee4e340" transform="translate(240 1054.584) rotate(0) scale(0.047999997)">
<use href="#path19" transform="translate(0 0)"/>
</g>
</g>
<g>
<g data-source-text="ï€" fill="#dee4e340" transform="translate(312 1054.584) rotate(0) scale(0.047999997)">
<use href="#path19" transform="translate(0 0)"/>
</g>
</g>
<g>
<g data-source-text="ï€" fill="#dee4e340" transform="translate(384 1054.584) rotate(0) scale(0.047999997)">
<use href="#path19" transform="translate(0 0)"/>
</g>
</g>
<g>
<g data-source-text="ï€" fill="#dee4e340" transform="translate(456 1054.584) rotate(0) scale(0.047999997)">
<use href="#path19" transform="translate(0 0)"/>
</g>
</g>
<g>
<g data-source-text="ï€" fill="#dee4e340" transform="translate(528 1054.584) rotate(0) scale(0.047999997)">
<use href="#path19" transform="translate(0 0)"/>
</g>
</g>
<g>
<g data-source-text="ï€" fill="#dee4e340" transform="translate(600 1054.584) rotate(0) scale(0.047999997)">
<use href="#path19" transform="translate(0 0)"/>
</g>
</g>
<g>
<g data-source-text="ï€" fill="#dee4e340" transform="translate(672 1054.584) rotate(0) scale(0.047999997)">
<use href="#path19" transform="translate(0 0)"/>
</g>
</g>
<g>
<g data-source-text="ï€" fill="#dee4e340" transform="translate(744 1054.584) rotate(0) scale(0.047999997)">
<use href="#path19" transform="translate(0 0)"/>
</g>
</g>
<g>
<g data-source-text="ï€" fill="#dee4e340" transform="translate(816 1054.584) rotate(0) scale(0.047999997)">
<use href="#path19" transform="translate(0 0)"/>
</g>
</g>
<g>
<g data-source-text="ï€" fill="#dee4e340" transform="translate(888 1054.584) rotate(0) scale(0.047999997)">
<use href="#path19" transform="translate(0 0)"/>
</g>
</g>
<g>
<g data-source-text="ï€" fill="#dee4e340" transform="translate(960 1054.584) rotate(0) scale(0.047999997)">
<use href="#path19" transform="translate(0 0)"/>
</g>
</g>
<g>
<g data-source-text="ï€" fill="#dee4e340" transform="translate(1032 1054.584) rotate(0) scale(0.047999997)">
<use href="#path19" transform="translate(0 0)"/>
</g>
</g>
<g>
<g data-source-text="ï€" fill="#dee4e340" transform="translate(1104 1054.584) rotate(0) scale(0.047999997)">
<use href="#path19" transform="translate(0 0)"/>
</g>
</g>
<g>
<g data-source-text="ï€" fill="#dee4e340" transform="translate(1176 1054.584) rotate(0) scale(0.047999997)">
<use href="#path19" transform="translate(0 0)"/>
</g>
</g>
<g>
<g data-source-text="ï€" fill="#dee4e340" transform="translate(1248 1054.584) rotate(0) scale(0.047999997)">
<use href="#path19" transform="translate(0 0)"/>
</g>
</g>
<g>
<g data-source-text="U+1DFE0" fill="#dee4e3" transform="translate(30 1121.292) rotate(0) scale(0.023999998)">
<use href="#path17" transform="translate(0 0)"/>
<use href="#path18" transform="translate(500 0)"/>
<use href="#path2" transform="translate(1000 0)"/>
<use href="#path14" transform="translate(1500 0)"/>
<use href="#path16" transform="translate(2000 0)"/>
<use href="#path15" transform="translate(2500 0)"/>
<use href="#path1" transform="translate(3000 0)"/>
</g>
</g>
<g>
<g data-source-text="ï€" fill="#dee4e340" transform="translate(168 1126.584) rotate(0) scale(0.047999997)">
<use href="#path19" transform="translate(0 0)"/>
</g>
</g>
<g>
<g data-source-text="ï€" fill="#dee4e340" transform="translate(240 1126.584) rotate(0) scale(0.047999997)">
<use href="#path19" transform="translate(0 0)"/>
</g>
</g>
<g>
<g data-source-text="ï€" fill="#dee4e340" transform="translate(312 1126.584) rotate(0) scale(0.047999997)">
<use href="#path19" transform="translate(0 0)"/>
</g>
</g>
<g>
<g data-source-text="ï€" fill="#dee4e340" transform="translate(384 1126.584) rotate(0) scale(0.047999997)">
<use href="#path19" transform="translate(0 0)"/>
</g>
</g>
<g>
<g data-source-text="ï€" fill="#dee4e340" transform="translate(456 1126.584) rotate(0) scale(0.047999997)">
<use href="#path19" transform="translate(0 0)"/>
</g>
</g>
<g>
<g data-source-text="ï€" fill="#dee4e340" transform="translate(528 1126.584) rotate(0) scale(0.047999997)">
<use href="#path19" transform="translate(0 0)"/>
</g>
</g>
<g>
<g data-source-text="ï€" fill="#dee4e340" transform="translate(600 1126.584) rotate(0) scale(0.047999997)">
<use href="#path19" transform="translate(0 0)"/>
</g>
</g>
<g>
<g data-source-text="ï€" fill="#dee4e340" transform="translate(672 1126.584) rotate(0) scale(0.047999997)">
<use href="#path19" transform="translate(0 0)"/>
</g>
</g>
<g>
<g data-source-text="ï€" fill="#dee4e340" transform="translate(744 1126.584) rotate(0) scale(0.047999997)">
<use href="#path19" transform="translate(0 0)"/>
</g>
</g>
<g>
<g data-source-text="ï€" fill="#dee4e340" transform="translate(816 1126.584) rotate(0) scale(0.047999997)">
<use href="#path19" transform="translate(0 0)"/>
</g>
</g>
<g>
<g data-source-text="ï€" fill="#dee4e340" transform="translate(888 1126.584) rotate(0) scale(0.047999997)">
<use href="#path19" transform="translate(0 0)"/>
</g>
</g>
<g>
<g data-source-text="ï€" fill="#dee4e340" transform="translate(960 1126.584) rotate(0) scale(0.047999997)">
<use href="#path19" transform="translate(0 0)"/>
</g>
</g>
<g>
<g data-source-text="ï€" fill="#dee4e340" transform="translate(1032 1126.584) rotate(0) scale(0.047999997)">
<use href="#path19" transform="translate(0 0)"/>
</g>
</g>
<g>
<g data-source-text="ï€" fill="#dee4e340" transform="translate(1104 1126.584) rotate(0) scale(0.047999997)">
<use href="#path19" transform="translate(0 0)"/>
</g>
</g>
<g>
<g data-source-text="ï€" fill="#dee4e340" transform="translate(1176 1126.584) rotate(0) scale(0.047999997)">
<use href="#path19" transform="translate(0 0)"/>
</g>
</g>
<g>
<g data-source-text="ï€" fill="#dee4e340" transform="translate(1248 1126.584) rotate(0) scale(0.047999997)">
<use href="#path19" transform="translate(0 0)"/>
</g>
</g>
<g>
<g data-source-text="U+1DFF0" fill="#dee4e3" transform="translate(30 1193.292) rotate(0) scale(0.023999998)">
<use href="#path17" transform="translate(0 0)"/>
<use href="#path18" transform="translate(500 0)"/>
<use href="#path2" transform="translate(1000 0)"/>
<use href="#path14" transform="translate(1500 0)"/>
<use href="#path16" transform="translate(2000 0)"/>
<use href="#path16" transform="translate(2500 0)"/>
<use href="#path1" transform="translate(3000 0)"/>
</g>
</g>
<g>
<g data-source-text="ï€" fill="#dee4e340" transform="translate(168 1198.584) rotate(0) scale(0.047999997)">
<use href="#path19" transform="translate(0 0)"/>
</g>
</g>
<g>
<g data-source-text="ï€" fill="#dee4e340" transform="translate(240 1198.584) rotate(0) scale(0.047999997)">
<use href="#path19" transform="translate(0 0)"/>
</g>
</g>
<g>
<g data-source-text="ï€" fill="#dee4e340" transform="translate(312 1198.584) rotate(0) scale(0.047999997)">
<use href="#path19" transform="translate(0 0)"/>
</g>
</g>
<g>
<g data-source-text="ï€" fill="#dee4e340" transform="translate(384 1198.584) rotate(0) scale(0.047999997)">
<use href="#path19" transform="translate(0 0)"/>
</g>
</g>
<g>
<g data-source-text="ï€" fill="#dee4e340" transform="translate(456 1198.584) rotate(0) scale(0.047999997)">
<use href="#path19" transform="translate(0 0)"/>
</g>
</g>
<g>
<g data-source-text="ï€" fill="#dee4e340" transform="translate(528 1198.584) rotate(0) scale(0.047999997)">
<use href="#path19" transform="translate(0 0)"/>
</g>
</g>
<g>
<g data-source-text="ï€" fill="#dee4e340" transform="translate(600 1198.584) rotate(0) scale(0.047999997)">
<use href="#path19" transform="translate(0 0)"/>
</g>
</g>
<g>
<g data-source-text="ï€" fill="#dee4e340" transform="translate(672 1198.584) rotate(0) scale(0.047999997)">
<use href="#path19" transform="translate(0 0)"/>
</g>
</g>
<g>
<g data-source-text="ï€" fill="#dee4e340" transform="translate(744 1198.584) rotate(0) scale(0.047999997)">
<use href="#path19" transform="translate(0 0)"/>
</g>
</g>
<g>
<g data-source-text="ï€" fill="#dee4e340" transform="translate(816 1198.584) rotate(0) scale(0.047999997)">
<use href="#path19" transform="translate(0 0)"/>
</g>
</g>
<g>
<g data-source-text="ï€" fill="#dee4e340" transform="translate(888 1198.584) rotate(0) scale(0.047999997)">
<use href="#path19" transform="translate(0 0)"/>
</g>
</g>
<g>
<g data-source-text="ï€" fill="#dee4e340" transform="translate(960 1198.584) rotate(0) scale(0.047999997)">
<use href="#path19" transform="translate(0 0)"/>
</g>
</g>
<g>
<g data-source-text="ï€" fill="#dee4e340" transform="translate(1032 1198.584) rotate(0) scale(0.047999997)">
<use href="#path19" transform="translate(0 0)"/>
</g>
</g>
<g>
<g data-source-text="ï€" fill="#dee4e340" transform="translate(1104 1198.584) rotate(0) scale(0.047999997)">
<use href="#path19" transform="translate(0 0)"/>
</g>
</g>
<g>
<g data-source-text="ï€" fill="#dee4e340" transform="translate(1176 1198.584) rotate(0) scale(0.047999997)">
<use href="#path19" transform="translate(0 0)"/>
</g>
</g>
<g>
<g data-source-text="ï€" fill="#dee4e340" transform="translate(1248 1198.584) rotate(0) scale(0.047999997)">
<use href="#path19" transform="translate(0 0)"/>
</g>
</g>
</svg>