<?xml version="1.0" encoding="UTF-8" standalone="no"?>
<svg height="288" viewBox="0 0 1296 288" width="1296" xmlns="http://www.w3.org/2000/svg">
<defs>
<path d="M 250 8 Q 223 8 196 3 Q 169 -2 145 -15 Q 121 -28 102.5 -48.5 Q 84 -69 72.5 -94 Q 61 -119 56.5 -146 Q 52 -173 52 -200 L 52 -535 Q 52 -562 56.5 -589 Q 61 -616 72.5 -641 Q 84 -666 102.5 -686.5 Q 121 -707 145 -720 Q 169 -733 196 -738 Q 223 -743 250 -743 Q 277 -743 304 -738 Q 331 -733 355 -720 Q 379 -707 397.5 -686.5 Q 416 -666 427.5 -641 Q 439 -616 443.5 -589 Q 448 -562 448 -535 L 448 -200 Q 448 -173 443.5 -146 Q 439 -119 427.5 -94 Q 416 -69 397.5 -48.5 Q 379 -28 355 -15 Q 331 -2 304 3 Q 277 8 250 8 Z M 153 -337 L 347 -491 L 347 -535 Q 347 -557 342.5 -578.5 Q 338 -600 325.5 -618 Q 313 -636 292.5 -645.5 Q 272 -655 250 -655 Q 228 -655 207.5 -645.5 Q 187 -636 174.5 -618 Q 162 -600 157.5 -578.5 Q 153 -557 153 -535 Z M 250 -80 Q 272 -80 292.5 -89.5 Q 313 -99 325.5 -117 Q 338 -135 342.5 -156.5 Q 347 -178 347 -200 L 347 -398 L 153 -244 L 153 -200 Q 153 -178 157.5 -156.5 Q 162 -135 174.5 -117 Q 187 -99 207.5 -89.5 Q 228 -80 250 -80 Z " id="path1"/>
<path d="M 230 0 L 230 -631 L 110 -528 L 55 -584 L 230 -735 L 330 -735 L 330 0 Z " id="path2"/>
<path d="M 440 0 L 60 0 L 60 -1 Q 60 -27 61 -53.5 Q 62 -80 66 -106.5 Q 70 -133 77.5 -158.5 Q 85 -184 96.5 -207.5 Q 108 -231 123 -253 Q 138 -275 156 -294.5 Q 174 -314 194 -331 Q 214 -348 235.5 -364 Q 257 -380 277.5 -397 Q 298 -414 313 -435.5 Q 328 -457 335.5 -483 Q 343 -509 343 -535 Q 343 -557 339 -578 Q 335 -599 323.5 -617 Q 312 -635 292 -645 Q 272 -655 251 -655 Q 231 -655 212.5 -647.5 Q 194 -640 182 -625 Q 170 -610 164.5 -591 Q 159 -572 159 -552 L 159 -548 L 58 -548 L 58 -555 Q 58 -581 64 -605.5 Q 70 -630 81.5 -652.5 Q 93 -675 111.5 -693 Q 130 -711 152.5 -722.5 Q 175 -734 200.5 -738.5 Q 226 -743 251 -743 Q 278 -743 304.5 -737.5 Q 331 -732 354.5 -719 Q 378 -706 396 -685.5 Q 414 -665 424.5 -640.5 Q 435 -616 439.5 -589 Q 444 -562 444 -535 Q 444 -501 435 -468 Q 426 -435 407.5 -406 Q 389 -377 364 -353.5 Q 339 -330 312.5 -308.5 Q 286 -287 261 -264 Q 236 -241 216.5 -213 Q 197 -185 184 -153.5 Q 171 -122 166 -88 L 440 -88 Z " id="path3"/>
<path d="M 253 8 Q 227 8 201 4 Q 175 -0 151.5 -11.5 Q 128 -23 108.5 -40.5 Q 89 -58 76 -81 Q 63 -104 56.5 -129.5 Q 50 -155 50 -181 L 50 -187 L 151 -187 L 151 -184 Q 151 -163 157.5 -143 Q 164 -123 178 -108 Q 192 -93 212 -86.5 Q 232 -80 253 -80 Q 275 -80 296 -88.5 Q 317 -97 330.5 -114.5 Q 344 -132 349.5 -154 Q 355 -176 355 -198 Q 355 -217 351 -235.5 Q 347 -254 338.5 -271 Q 330 -288 316.5 -301 Q 303 -314 286 -322 Q 269 -330 250 -332 Q 231 -334 212 -334 L 212 -422 Q 229 -422 246 -424 Q 263 -426 278.5 -433 Q 294 -440 306 -452.5 Q 318 -465 325.5 -480.5 Q 333 -496 336 -513 Q 339 -530 339 -547 Q 339 -566 334.5 -585.5 Q 330 -605 319.5 -621 Q 309 -637 291 -646 Q 273 -655 253 -655 Q 234 -655 216.5 -647 Q 199 -639 187.5 -624 Q 176 -609 171.5 -590 Q 167 -571 167 -553 L 167 -548 L 66 -548 L 66 -556 Q 66 -581 71.5 -605.5 Q 77 -630 88 -652 Q 99 -674 117 -692.5 Q 135 -711 157 -722.5 Q 179 -734 203.5 -738.5 Q 228 -743 253 -743 Q 278 -743 303.5 -738 Q 329 -733 351 -721 Q 373 -709 390 -690 Q 407 -671 418 -648 Q 429 -625 434.5 -600 Q 440 -575 440 -550 Q 440 -524 434 -498.5 Q 428 -473 415.5 -450.5 Q 403 -428 384.5 -409.5 Q 366 -391 343 -379 Q 369 -368 390.5 -348.5 Q 412 -329 427 -304.5 Q 442 -280 449 -252 Q 456 -224 456 -196 Q 456 -168 450 -141.5 Q 444 -115 432 -91 Q 420 -67 401 -47 Q 382 -27 358 -14.5 Q 334 -2 307 3 Q 280 8 253 8 Z " id="path4"/>
<path d="M 282 0 L 282 -188 L 52 -188 L 52 -275 L 276 -735 L 385 -735 L 161 -275 L 282 -275 L 282 -435 L 382 -435 L 382 -275 L 440 -275 L 440 -188 L 382 -188 L 382 0 Z " id="path5"/>
<path d="M 252 8 Q 227 8 202.5 3.5 Q 178 -1 155.5 -12 Q 133 -23 115 -41 Q 97 -59 85 -80.5 Q 73 -102 66.5 -126.5 Q 60 -151 59 -176 L 159 -176 Q 161 -158 167 -139.5 Q 173 -121 185.5 -107 Q 198 -93 216 -86.5 Q 234 -80 252 -80 Q 269 -80 285 -87 Q 301 -94 312 -107 Q 323 -120 330 -135.5 Q 337 -151 340.5 -168 Q 344 -185 345.5 -202 Q 347 -219 347 -236 Q 347 -252 346 -269 Q 345 -286 341 -302 Q 337 -318 331 -334 Q 325 -350 314 -363 Q 303 -376 287.5 -383.5 Q 272 -391 256 -391 Q 240 -391 224.5 -387 Q 209 -383 196 -373.5 Q 183 -364 176 -349.5 Q 169 -335 168 -319 L 68 -319 L 68 -735 L 421 -735 L 421 -647 L 168 -647 L 168 -464 Q 189 -472 211 -475 Q 233 -478 256 -478 Q 285 -478 313.5 -470.5 Q 342 -463 365.5 -445.5 Q 389 -428 405.5 -403 Q 422 -378 431.5 -350.5 Q 441 -323 444.5 -294 Q 448 -265 448 -235 Q 448 -206 444 -176.5 Q 440 -147 430.5 -119 Q 421 -91 404 -66.5 Q 387 -42 363.5 -24.5 Q 340 -7 311 0.5 Q 282 8 252 8 Z " id="path6"/>
<path d="M 250 8 Q 221 8 192.5 1.5 Q 164 -5 140 -21 Q 116 -37 98.5 -60.5 Q 81 -84 70.5 -111 Q 60 -138 56 -166.5 Q 52 -195 52 -224 Q 52 -268 60 -311 Q 68 -354 81.5 -395.5 Q 95 -437 113 -477 Q 131 -517 150 -556 L 238 -735 L 347 -735 L 240 -517 Q 228 -493 216.5 -468.5 Q 205 -444 195 -419 Q 214 -438 239 -447 Q 264 -456 291 -456 Q 317 -456 342.5 -447 Q 368 -438 386.5 -419.5 Q 405 -401 417 -377.5 Q 429 -354 436 -328.5 Q 443 -303 445.5 -276.5 Q 448 -250 448 -224 Q 448 -195 444 -166.5 Q 440 -138 429.5 -111 Q 419 -84 401.5 -60.5 Q 384 -37 360 -21 Q 336 -5 307.5 1.5 Q 279 8 250 8 Z M 250 -80 Q 266 -80 282 -85.5 Q 298 -91 309.5 -102.5 Q 321 -114 328.5 -129 Q 336 -144 340 -159.5 Q 344 -175 345.5 -191.5 Q 347 -208 347 -224 Q 347 -240 345.5 -256.5 Q 344 -273 340 -289 Q 336 -305 328.5 -319.5 Q 321 -334 309.5 -345.5 Q 298 -357 282 -362.5 Q 266 -368 250 -368 Q 235 -368 221 -363.5 Q 207 -359 195.5 -349.5 Q 184 -340 176.5 -327.5 Q 169 -315 164 -301 Q 159 -287 156.5 -272.5 Q 154 -258 153 -243 L 153 -224 Q 153 -208 154.5 -191.5 Q 156 -175 160 -159.5 Q 164 -144 171.5 -129 Q 179 -114 190.5 -102.5 Q 202 -91 218 -85.5 Q 234 -80 250 -80 Z " id="path7"/>
<path d="M 242 0 L 138 0 L 336 -647 L 60 -647 L 60 -735 L 440 -735 L 440 -647 Z " id="path8"/>
<path d="M 250 8 Q 225 8 200 4 Q 175 -0 152 -10 Q 129 -20 109.5 -37 Q 90 -54 77.5 -75.5 Q 65 -97 58.5 -121.5 Q 52 -146 52 -172 Q 52 -203 62 -232.5 Q 72 -262 88.5 -288 Q 105 -314 127 -336 Q 149 -358 174 -378 Q 152 -396 132.5 -417 Q 113 -438 98.5 -462.5 Q 84 -487 76 -514.5 Q 68 -542 68 -570 Q 68 -594 73.5 -617 Q 79 -640 90.5 -661 Q 102 -682 119.5 -698.5 Q 137 -715 158 -725 Q 179 -735 202.5 -739 Q 226 -743 250 -743 Q 274 -743 297.5 -739 Q 321 -735 342 -725 Q 363 -715 380.5 -698.5 Q 398 -682 409.5 -661 Q 421 -640 426.5 -617 Q 432 -594 432 -570 Q 432 -542 424 -514.5 Q 416 -487 401.5 -462.5 Q 387 -438 367.5 -417 Q 348 -396 326 -378 Q 351 -358 373 -336 Q 395 -314 411.5 -288 Q 428 -262 438 -232.5 Q 448 -203 448 -172 Q 448 -146 441.5 -121.5 Q 435 -97 422.5 -75.5 Q 410 -54 390.5 -37 Q 371 -20 348 -10 Q 325 -0 300 4 Q 275 8 250 8 Z M 250 -435 Q 266 -447 280.5 -461.5 Q 295 -476 306.5 -493 Q 318 -510 325 -529.5 Q 332 -549 332 -569 Q 332 -586 326.5 -602.5 Q 321 -619 310 -631.5 Q 299 -644 283 -649.5 Q 267 -655 250 -655 Q 233 -655 217 -649.5 Q 201 -644 190 -631.5 Q 179 -619 173.5 -602.5 Q 168 -586 168 -569 Q 168 -549 175 -529.5 Q 182 -510 193.5 -493 Q 205 -476 219.5 -461.5 Q 234 -447 250 -435 Z M 250 -80 Q 269 -80 287.5 -85.5 Q 306 -91 320 -104 Q 334 -117 340.5 -135.5 Q 347 -154 347 -173 Q 347 -196 338.5 -217.5 Q 330 -239 316.5 -257.5 Q 303 -276 285.5 -291 Q 268 -306 250 -320 Q 232 -306 214.5 -291 Q 197 -276 183.5 -257.5 Q 170 -239 161.5 -217.5 Q 153 -196 153 -173 Q 153 -154 159.5 -135.5 Q 166 -117 180 -104 Q 194 -91 212.5 -85.5 Q 231 -80 250 -80 Z " id="path9"/>
<path d="M 262 0 L 153 0 L 260 -218 Q 272 -242 283.5 -266.5 Q 295 -291 305 -316 Q 286 -297 261 -288 Q 236 -279 209 -279 Q 183 -279 157.5 -288 Q 132 -297 113.5 -315.5 Q 95 -334 83 -357.5 Q 71 -381 64 -406.5 Q 57 -432 54.5 -458.5 Q 52 -485 52 -511 Q 52 -540 56 -568.5 Q 60 -597 70.5 -624 Q 81 -651 98.5 -674.5 Q 116 -698 140 -714 Q 164 -730 192.5 -736.5 Q 221 -743 250 -743 Q 279 -743 307.5 -736.5 Q 336 -730 360 -714 Q 384 -698 401.5 -674.5 Q 419 -651 429.5 -624 Q 440 -597 444 -568.5 Q 448 -540 448 -511 Q 448 -467 440 -424 Q 432 -381 418.5 -339.5 Q 405 -298 387 -258 Q 369 -218 350 -179 Z M 250 -367 Q 265 -367 279 -371.5 Q 293 -376 304.5 -385.5 Q 316 -395 323.5 -407.5 Q 331 -420 336 -434 Q 341 -448 343.5 -462.5 Q 346 -477 347 -492 L 347 -511 Q 347 -527 345.5 -543.5 Q 344 -560 340 -575.5 Q 336 -591 328.5 -606 Q 321 -621 309.5 -632.5 Q 298 -644 282 -649.5 Q 266 -655 250 -655 Q 234 -655 218 -649.5 Q 202 -644 190.5 -632.5 Q 179 -621 171.5 -606 Q 164 -591 160 -575.5 Q 156 -560 154.5 -543.5 Q 153 -527 153 -511 Q 153 -495 154.5 -478.5 Q 156 -462 160 -446 Q 164 -430 171.5 -415.5 Q 179 -401 190.5 -389.5 Q 202 -378 218 -372.5 Q 234 -367 250 -367 Z " id="path10"/>
<path d="M 39 0 L 192 -735 L 308 -735 L 461 0 L 358 0 L 326 -172 L 174 -172 L 142 0 Z M 309 -260 L 265 -490 Q 262 -511 258 -531.5 Q 254 -552 250 -572 Q 246 -552 242 -531.5 Q 238 -511 235 -490 L 191 -260 Z " id="path11"/>
<path d="M 60 0 L 60 -735 L 234 -735 Q 261 -735 287 -730.5 Q 313 -726 336 -714 Q 359 -702 377.5 -682.5 Q 396 -663 408 -639.5 Q 420 -616 424.5 -590 Q 429 -564 429 -538 Q 429 -515 425 -492 Q 421 -469 410.5 -448.5 Q 400 -428 383.5 -411 Q 367 -394 347 -383 Q 372 -373 393.5 -355.5 Q 415 -338 429.5 -314.5 Q 444 -291 450 -264 Q 456 -237 456 -210 Q 456 -181 450 -152.5 Q 444 -124 430 -98.5 Q 416 -73 394.5 -53.5 Q 373 -34 347 -21.5 Q 321 -9 292 -4.5 Q 263 -0 234 0 Z M 161 -424 L 234 -424 Q 255 -424 274.5 -432.5 Q 294 -441 306.5 -457.5 Q 319 -474 324 -494.5 Q 329 -515 329 -536 Q 329 -557 324 -577.5 Q 319 -598 306.5 -614.5 Q 294 -631 274.5 -639 Q 255 -647 234 -647 L 161 -647 Z M 161 -88 L 234 -88 Q 251 -88 267 -91 Q 283 -94 297.5 -101.5 Q 312 -109 323.5 -121 Q 335 -133 342.5 -148 Q 350 -163 352.5 -179 Q 355 -195 355 -212 Q 355 -228 352.5 -244.5 Q 350 -261 343 -276 Q 336 -291 324.5 -303 Q 313 -315 298 -322.5 Q 283 -330 267 -333 Q 251 -336 234 -336 L 161 -336 Z " id="path12"/>
<path d="M 247 8 Q 220 8 193 2.5 Q 166 -3 142.5 -16 Q 119 -29 101 -49.5 Q 83 -70 72 -94.5 Q 61 -119 56.5 -146 Q 52 -173 52 -200 L 52 -535 Q 52 -562 56.5 -589 Q 61 -616 72 -640.5 Q 83 -665 101 -685.5 Q 119 -706 142.5 -719 Q 166 -732 193 -737.5 Q 220 -743 247 -743 Q 273 -743 298 -738.5 Q 323 -734 346 -723 Q 369 -712 387.5 -694 Q 406 -676 418 -653.5 Q 430 -631 436 -606 Q 442 -581 442 -555 L 442 -548 L 341 -548 L 341 -552 Q 341 -572 335.5 -591.5 Q 330 -611 317.5 -626 Q 305 -641 286 -648 Q 267 -655 247 -655 Q 225 -655 205 -645.5 Q 185 -636 173 -618 Q 161 -600 157 -578.5 Q 153 -557 153 -535 L 153 -200 Q 153 -178 157 -156.5 Q 161 -135 173 -117 Q 185 -99 205 -89.5 Q 225 -80 247 -80 Q 267 -80 286 -87 Q 305 -94 317.5 -109 Q 330 -124 335.5 -143.5 Q 341 -163 341 -183 L 341 -187 L 442 -187 L 442 -180 Q 442 -154 436 -129 Q 430 -104 418 -81.5 Q 406 -59 387.5 -41 Q 369 -23 346 -12 Q 323 -1 298 3.5 Q 273 8 247 8 Z " id="path13"/>
<path d="M 60 0 L 60 -735 L 219 -735 Q 249 -735 279 -730 Q 309 -725 336.5 -712 Q 364 -699 386 -678.5 Q 408 -658 422 -631.5 Q 436 -605 442 -575 Q 448 -545 448 -515 L 448 -220 Q 448 -190 442 -160 Q 436 -130 422 -103.5 Q 408 -77 386 -56.5 Q 364 -36 336.5 -23 Q 309 -10 279 -5 Q 249 -0 219 0 Z M 161 -88 L 219 -88 Q 237 -88 254 -91 Q 271 -94 286.5 -102.5 Q 302 -111 314 -124 Q 326 -137 333.5 -152.5 Q 341 -168 344 -185.5 Q 347 -203 347 -220 L 347 -515 Q 347 -532 344 -549.5 Q 341 -567 333.5 -582.5 Q 326 -598 314 -611 Q 302 -624 286.5 -632.5 Q 271 -641 254 -644 Q 237 -647 219 -647 L 161 -647 Z " id="path14"/>
<path d="M 68 0 L 68 -735 L 440 -735 L 440 -647 L 169 -647 L 169 -426 L 383 -426 L 383 -338 L 169 -338 L 169 -88 L 440 -88 L 440 0 Z " id="path15"/>
<path d="M 91 0 L 91 -735 L 440 -735 L 440 -647 L 191 -647 L 191 -426 L 383 -426 L 383 -338 L 191 -338 L 191 0 Z " id="path16"/>
<path d="M 250 8 Q 223 8 196.5 2.5 Q 170 -3 147 -16.5 Q 124 -30 106.5 -50.5 Q 89 -71 78.5 -95.5 Q 68 -120 64 -146.5 Q 60 -173 60 -200 L 60 -735 L 161 -735 L 161 -200 Q 161 -186 162.5 -172 Q 164 -158 168 -144.5 Q 172 -131 179.5 -118.5 Q 187 -106 197.5 -97 Q 208 -88 222 -84 Q 236 -80 250 -80 Q 264 -80 278 -84 Q 292 -88 302.5 -97 Q 313 -106 320.5 -118.5 Q 328 -131 332 -144.5 Q 336 -158 337.5 -172 Q 339 -186 339 -200 L 339 -735 L 440 -735 L 440 -200 Q 440 -173 436 -146.5 Q 432 -120 421.5 -95.5 Q 411 -71 393.5 -50.5 Q 376 -30 353 -16.5 Q 330 -3 303.5 2.5 Q 277 8 250 8 Z " id="path17"/>
<path d="M 300 -143 L 200 -143 L 200 -296 L 60 -296 L 60 -384 L 200 -384 L 200 -537 L 300 -537 L 300 -384 L 440 -384 L 440 -296 L 300 -296 Z " id="path18"/>
<path d="M 436 0 L 262 0 Q 233 0 205 -5.5 Q 177 -11 152 -25 Q 127 -39 107.5 -60.5 Q 88 -82 76.5 -108 Q 65 -134 60.5 -162.5 Q 56 -191 56 -220 Q 56 -248 60.5 -276.5 Q 65 -305 76.5 -331 Q 88 -357 107.5 -378.5 Q 127 -400 152 -414 Q 177 -428 205 -433.5 Q 233 -439 262 -439 L 358 -439 L 358 -735 L 436 -735 Z M 262 -70 L 358 -70 L 358 -369 L 262 -369 Q 243 -369 224.5 -365 Q 206 -361 190.5 -350.5 Q 175 -340 163.5 -325 Q 152 -310 145.5 -292.5 Q 139 -275 136.5 -256.5 Q 134 -238 134 -220 Q 134 -201 136.5 -182.5 Q 139 -164 145.5 -146.5 Q 152 -129 163.5 -114 Q 175 -99 190.5 -89 Q 206 -79 224.5 -74.5 Q 243 -70 262 -70 Z " id="path19"/>
<path d="M 216 8 Q 191 8 166.5 1 Q 142 -6 123 -21 Q 104 -36 90.5 -57.5 Q 77 -79 69.5 -102.5 Q 62 -126 59 -150.5 Q 56 -175 56 -200 L 56 -320 Q 56 -345 59 -369.5 Q 62 -394 69.5 -417.5 Q 77 -441 90.5 -462.5 Q 104 -484 123 -499 Q 142 -514 166.5 -521 Q 191 -528 216 -528 Q 239 -528 262 -522 Q 285 -516 304 -502 Q 323 -488 336.5 -469 Q 350 -450 358 -428 L 358 -735 L 436 -735 L 436 0 L 358 0 L 358 -92 Q 350 -70 336.5 -51 Q 323 -32 304 -18 Q 285 -4 262 2 Q 239 8 216 8 Z M 246 -62 Q 263 -62 279.5 -66 Q 296 -70 309.5 -80 Q 323 -90 333 -104 Q 343 -118 348.5 -134 Q 354 -150 356 -166.5 Q 358 -183 358 -200 L 358 -320 Q 358 -337 356 -353.5 Q 354 -370 348.5 -386 Q 343 -402 333 -416 Q 323 -430 309.5 -440 Q 296 -450 279.5 -454 Q 263 -458 246 -458 Q 229 -458 212.5 -454 Q 196 -450 182.5 -440 Q 169 -430 159 -416 Q 149 -402 143.5 -386 Q 138 -370 136 -353.5 Q 134 -337 134 -320 L 134 -200 Q 134 -183 136 -166.5 Q 138 -150 143.5 -134 Q 149 -118 159 -104 Q 169 -90 182.5 -80 Q 196 -70 212.5 -66 Q 229 -62 246 -62 Z " id="path20"/>
<path d="M 165 8 Q 147 8 129.5 1.5 Q 112 -5 99 -17 Q 86 -29 77 -44.5 Q 68 -60 61.5 -77 Q 55 -94 51 -111.5 Q 47 -129 44.5 -147 Q 42 -165 41 -183 Q 40 -201 40 -219 L 40 -220 Q 40 -237 41 -255 Q 42 -273 44.5 -290.5 Q 47 -308 51.5 -325.5 Q 56 -343 63 -359 Q 70 -375 79.5 -390 Q 89 -405 103 -416.5 Q 117 -428 134 -433.5 Q 151 -439 169 -439 L 211 -439 L 211 -735 L 289 -735 L 289 -120 Q 289 -110 290.5 -100 Q 292 -90 297.5 -81 Q 303 -72 312 -67 Q 321 -62 331 -62 Q 342 -62 351 -67 Q 360 -72 365 -81 Q 370 -90 372 -100 Q 374 -110 374 -120 L 374 -368 L 452 -368 L 452 -120 Q 452 -103 449 -86.5 Q 446 -70 439.5 -55 Q 433 -40 421.5 -27.5 Q 410 -15 395.5 -6.5 Q 381 2 364.5 5 Q 348 8 331 8 Q 306 8 281.5 -0.5 Q 257 -9 240 -28 Q 227 -11 206.5 -1.5 Q 186 8 165 8 Z M 165 -62 Q 176 -62 183 -71 Q 190 -80 194 -90 Q 198 -100 201 -111 Q 204 -122 205.5 -132.5 Q 207 -143 208 -154 Q 209 -165 210 -176 Q 211 -187 211 -198 Q 211 -209 211 -220 L 211 -369 L 169 -369 Q 158 -369 150 -361.5 Q 142 -354 137 -344.5 Q 132 -335 129.5 -324.5 Q 127 -314 124.5 -303.5 Q 122 -293 121 -282.5 Q 120 -272 119.5 -261 Q 119 -250 118.5 -239.5 Q 118 -229 118 -218 Q 118 -207 118.5 -196.5 Q 119 -186 119.5 -175 Q 120 -164 121 -153 Q 122 -142 124 -131.5 Q 126 -121 128.5 -110.5 Q 131 -100 135 -90 Q 139 -80 146.5 -71 Q 154 -62 165 -62 Z " id="path21"/>
<path d="M 134 8 Q 118 8 103 2 Q 88 -4 76.5 -15.5 Q 65 -27 58 -41.5 Q 51 -56 47 -71.5 Q 43 -87 41.5 -103 Q 40 -119 40 -135 L 40 -385 Q 40 -401 41.5 -417 Q 43 -433 47 -448.5 Q 51 -464 58 -478.5 Q 65 -493 76.5 -504.5 Q 88 -516 103 -522 Q 118 -528 134 -528 Q 146 -528 158.5 -525 Q 171 -522 181 -514.5 Q 191 -507 198.5 -497.5 Q 206 -488 211 -477 L 211 -735 L 289 -735 L 289 -135 Q 289 -123 290.5 -111.5 Q 292 -100 296.5 -89 Q 301 -78 310.5 -70 Q 320 -62 331 -62 Q 343 -62 352.5 -70 Q 362 -78 366.5 -89 Q 371 -100 372.5 -111.5 Q 374 -123 374 -135 L 374 -260 L 452 -260 L 452 -135 Q 452 -117 449.5 -99.5 Q 447 -82 441 -65.5 Q 435 -49 424 -34.5 Q 413 -20 398.5 -10 Q 384 -0 366.5 4 Q 349 8 331 8 Q 313 8 295 3.5 Q 277 -1 262.5 -11.5 Q 248 -22 237.5 -37 Q 227 -52 221 -69 Q 216 -54 209 -40 Q 202 -26 191 -14.5 Q 180 -3 165 2.5 Q 150 8 134 8 Z M 165 -62 Q 177 -62 187 -69.5 Q 197 -77 202.5 -87.5 Q 208 -98 209.5 -110.5 Q 211 -123 211 -135 L 211 -385 Q 211 -397 209.5 -409.5 Q 208 -422 202.5 -432.5 Q 197 -443 187 -450.5 Q 177 -458 165 -458 Q 152 -458 142 -450.5 Q 132 -443 126.5 -432.5 Q 121 -422 119.5 -409.5 Q 118 -397 118 -385 L 118 -135 Q 118 -123 119.5 -110.5 Q 121 -98 126.5 -87.5 Q 132 -77 142 -69.5 Q 152 -62 165 -62 Z " id="path22"/>
<path d="M 227 -209 Q 227 -222 226.5 -236 Q 226 -250 224 -263.5 Q 222 -277 218.5 -290.5 Q 215 -304 209.5 -316 Q 204 -328 193 -337.5 Q 182 -347 169 -347 L 133 -347 L 133 -417 L 169 -417 Q 180 -417 188 -427 Q 196 -437 199.5 -448.5 Q 203 -460 205.5 -471.5 Q 208 -483 209 -495 Q 210 -507 210.5 -519 Q 211 -531 211 -542 Q 211 -551 211 -560.5 Q 211 -570 210.5 -579 Q 210 -588 209 -597 Q 208 -606 206.5 -615 Q 205 -624 202.5 -633 Q 200 -642 196.5 -650 Q 193 -658 187 -665.5 Q 181 -673 172 -673 Q 161 -673 154 -663.5 Q 147 -654 143.5 -644 Q 140 -634 138 -623 Q 136 -612 134.5 -601.5 Q 133 -591 132.5 -580 Q 132 -569 132 -558 L 132 -555 L 54 -555 L 54 -560 Q 54 -581 56.5 -601 Q 59 -621 64 -640.5 Q 69 -660 77.5 -678.5 Q 86 -697 99.5 -712 Q 113 -727 132 -735 Q 151 -743 172 -743 Q 193 -743 213 -733.5 Q 233 -724 246.5 -707 Q 260 -690 268 -670 Q 276 -650 280.5 -629 Q 285 -608 287 -586.5 Q 289 -565 289 -544 Q 289 -522 287 -500 Q 285 -478 278.5 -457 Q 272 -436 261 -416.5 Q 250 -397 232 -384 Q 253 -371 268 -350.5 Q 283 -330 291 -306.5 Q 299 -283 302 -258 Q 305 -233 305 -209 Z M 339 8 Q 323 8 307.5 4.5 Q 292 1 278.5 -7 Q 265 -15 254.5 -27.5 Q 244 -40 238 -54.5 Q 232 -69 229.5 -85 Q 227 -101 227 -117 L 227 -209 L 305 -209 L 305 -117 Q 305 -108 306 -99 Q 307 -90 311 -81.5 Q 315 -73 322.5 -67.5 Q 330 -62 339 -62 Q 349 -62 356.5 -67.5 Q 364 -73 367.5 -81.5 Q 371 -90 372.5 -99 Q 374 -108 374 -117 L 374 -368 L 452 -368 L 452 -117 Q 452 -101 449.5 -85 Q 447 -69 441 -54.5 Q 435 -40 424.5 -27.5 Q 414 -15 400.5 -7 Q 387 1 371 4.5 Q 355 8 339 8 Z " id="path23"/>
<path d="M 227 -153 Q 227 -167 224.5 -181.5 Q 222 -196 215 -208 Q 208 -220 195.5 -227.5 Q 183 -235 169 -235 L 133 -235 L 133 -305 L 169 -305 Q 180 -305 189.5 -313 Q 199 -321 203.5 -332 Q 208 -343 209.5 -355 Q 211 -367 211 -379 Q 211 -391 210 -403.5 Q 209 -416 205 -427.5 Q 201 -439 192.5 -448.5 Q 184 -458 172 -458 Q 160 -458 151.5 -450 Q 143 -442 139 -431.5 Q 135 -421 133.5 -410 Q 132 -399 132 -388 L 132 -385 L 54 -385 L 54 -390 Q 54 -416 60.5 -441 Q 67 -466 82.5 -486.5 Q 98 -507 122 -517.5 Q 146 -528 172 -528 Q 189 -528 206.5 -523.5 Q 224 -519 238.5 -508 Q 253 -497 263 -482 Q 273 -467 278.5 -450.5 Q 284 -434 286.5 -416 Q 289 -398 289 -380 Q 289 -365 287 -349.5 Q 285 -334 279.5 -320 Q 274 -306 264 -293.5 Q 254 -281 242 -272 Q 257 -264 270 -251 Q 283 -238 291 -222 Q 299 -206 302 -188.5 Q 305 -171 305 -153 Z M 339 8 Q 323 8 307 4.5 Q 291 1 277.5 -7.5 Q 264 -16 254 -29 Q 244 -42 238 -57 Q 232 -72 229.5 -88 Q 227 -104 227 -120 L 227 -153 L 305 -153 L 305 -120 Q 305 -111 306 -101.5 Q 307 -92 311 -83 Q 315 -74 322.5 -68 Q 330 -62 339 -62 Q 349 -62 356.5 -68 Q 364 -74 368 -83 Q 372 -92 373 -101.5 Q 374 -111 374 -120 L 374 -260 L 452 -260 L 452 -120 Q 452 -104 449.5 -88 Q 447 -72 441 -57 Q 435 -42 425 -29 Q 415 -16 401 -7.5 Q 387 1 371.5 4.5 Q 356 8 339 8 Z " id="path24"/>
<path d="M 421 157 L 421 0 L 374 0 L 374 -191 Q 374 -210 373 -229.5 Q 372 -249 366 -267 Q 360 -285 349 -301 Q 338 -317 322.5 -327.5 Q 307 -338 288 -342.5 Q 269 -347 250 -347 L 194 -347 L 194 -417 L 250 -417 Q 274 -417 296.5 -426 Q 319 -435 333.5 -453.5 Q 348 -472 353 -495.5 Q 358 -519 358 -543 Q 358 -567 353 -590.5 Q 348 -614 334.5 -633.5 Q 321 -653 299 -663 Q 277 -673 253 -673 Q 231 -673 210 -665 Q 189 -657 174.5 -640.5 Q 160 -624 154 -602.5 Q 148 -581 148 -559 L 148 -555 L 70 -555 L 70 -561 Q 70 -586 75.5 -610 Q 81 -634 92 -655.5 Q 103 -677 120 -694.5 Q 137 -712 158.5 -723 Q 180 -734 204.5 -738.5 Q 229 -743 253 -743 Q 279 -743 304 -738 Q 329 -733 351 -720 Q 373 -707 390 -687 Q 407 -667 417.5 -644 Q 428 -621 432 -595.5 Q 436 -570 436 -544 Q 436 -520 432 -495.5 Q 428 -471 416.5 -449.5 Q 405 -428 386.5 -411 Q 368 -394 346 -383 Q 365 -375 382 -363 Q 399 -351 412.5 -335 Q 426 -319 434.5 -300 Q 443 -281 447 -260.5 Q 451 -240 451.5 -219 Q 452 -198 452 -177 L 452 -70 L 498 -70 L 498 157 Z " id="path25"/>
<path d="M 421 157 L 421 0 L 374 0 L 374 -78 Q 374 -92 374.5 -107 Q 375 -122 375 -137 Q 375 -152 372.5 -167.5 Q 370 -183 360.5 -195 Q 351 -207 338 -215 Q 325 -223 310.5 -227.5 Q 296 -232 280.5 -233.5 Q 265 -235 250 -235 L 194 -235 L 194 -305 L 250 -305 Q 262 -305 274.5 -306.5 Q 287 -308 299 -311 Q 311 -314 322 -320 Q 333 -326 341.5 -335 Q 350 -344 354 -356 Q 358 -368 358 -380 Q 358 -399 349 -415.5 Q 340 -432 324 -441.5 Q 308 -451 289.5 -454.5 Q 271 -458 253 -458 Q 235 -458 217.5 -455 Q 200 -452 184.5 -444 Q 169 -436 158.5 -420.5 Q 148 -405 148 -388 L 148 -385 L 70 -385 L 70 -390 Q 70 -412 77 -432.5 Q 84 -453 97.5 -470 Q 111 -487 129.5 -498.5 Q 148 -510 168.5 -516.5 Q 189 -523 210.5 -525.5 Q 232 -528 253 -528 Q 275 -528 297 -525.5 Q 319 -523 340 -515.5 Q 361 -508 379.5 -495 Q 398 -482 411 -464.5 Q 424 -447 430 -425 Q 436 -403 436 -381 Q 436 -363 432 -345.5 Q 428 -328 417.5 -313.5 Q 407 -299 392 -288.5 Q 377 -278 361 -272 Q 375 -266 389 -258.5 Q 403 -251 414.5 -240.5 Q 426 -230 434.5 -216.5 Q 443 -203 447 -188 Q 451 -173 452 -157 Q 453 -141 453 -126 Q 453 -112 452.5 -98 Q 452 -84 452 -70 L 498 -70 L 498 157 Z " id="path26"/>
<path d="M 331 8 Q 315 8 298.5 5 Q 282 2 267.5 -6.5 Q 253 -15 241.5 -27.5 Q 230 -40 223 -55 Q 216 -70 213.5 -86.5 Q 211 -103 211 -120 L 211 -665 L 144 -665 L 144 -306 Q 144 -287 144 -268.5 Q 144 -250 143.5 -231.5 Q 143 -213 141.5 -194.5 Q 140 -176 137.5 -157.5 Q 135 -139 131 -121 Q 127 -103 121.5 -85.5 Q 116 -68 107.5 -51.5 Q 99 -35 84.5 -23 Q 70 -11 52.5 -5.5 Q 35 0 16 0 L 16 -70 Q 24 -70 31 -74.5 Q 38 -79 42 -86 Q 46 -93 49 -100.5 Q 52 -108 54 -116 Q 56 -124 57 -132 Q 58 -140 59 -148 Q 60 -156 61 -164 Q 62 -172 62.5 -180 Q 63 -188 63.5 -196 Q 64 -204 64.5 -212 Q 65 -220 65.5 -228 Q 66 -236 66 -244 Q 66 -252 66 -260.5 Q 66 -269 66 -277 Q 66 -285 66 -293 Q 66 -301 66 -309 L 66 -735 L 289 -735 L 289 -120 Q 289 -110 290.5 -100 Q 292 -90 297.5 -81 Q 303 -72 312 -67 Q 321 -62 331 -62 Q 342 -62 351 -67 Q 360 -72 365 -81 Q 370 -90 372 -100 Q 374 -110 374 -120 L 374 -368 L 452 -368 L 452 -120 Q 452 -103 449 -86.5 Q 446 -70 439.5 -55 Q 433 -40 421.5 -27.5 Q 410 -15 395.5 -6.5 Q 381 2 364.5 5 Q 348 8 331 8 Z " id="path27"/>
<path d="M 331 8 Q 315 8 298.5 5 Q 282 2 267.5 -6.5 Q 253 -15 241.5 -27.5 Q 230 -40 223 -55 Q 216 -70 213.5 -86.5 Q 211 -103 211 -120 L 211 -450 L 144 -450 L 144 -255 Q 144 -235 144 -214.5 Q 144 -194 142.5 -174 Q 141 -154 138 -133.5 Q 135 -113 129.5 -94 Q 124 -75 115.5 -56 Q 107 -37 91.5 -24 Q 76 -11 56 -5.5 Q 36 0 16 0 L 16 -70 Q 29 -70 38.5 -79.5 Q 48 -89 52.5 -101 Q 57 -113 59 -126 Q 61 -139 62.5 -152 Q 64 -165 64.5 -177.5 Q 65 -190 65.5 -203 Q 66 -216 66 -229 Q 66 -242 66 -255 L 66 -520 L 289 -520 L 289 -120 Q 289 -110 290.5 -100 Q 292 -90 297.5 -81 Q 303 -72 312 -67 Q 321 -62 331 -62 Q 342 -62 351 -67 Q 360 -72 365 -81 Q 370 -90 372 -100 Q 374 -110 374 -120 L 374 -260 L 452 -260 L 452 -120 Q 452 -103 449 -86.5 Q 446 -70 439.5 -55 Q 433 -40 421.5 -27.5 Q 410 -15 395.5 -6.5 Q 381 2 364.5 5 Q 348 8 331 8 Z " id="path28"/>
<path d="M 331 8 Q 315 8 298.5 5 Q 282 2 267.5 -6.5 Q 253 -15 241.5 -27.5 Q 230 -40 223 -55 Q 216 -70 213.5 -86.5 Q 211 -103 211 -120 L 211 -333 L 126 -333 L 126 0 L 48 0 L 48 -735 L 126 -735 L 126 -403 L 211 -403 L 211 -735 L 289 -735 L 289 -120 Q 289 -110 290.5 -100 Q 292 -90 297.5 -81 Q 303 -72 312 -67 Q 321 -62 331 -62 Q 342 -62 351 -67 Q 360 -72 365 -81 Q 370 -90 372 -100 Q 374 -110 374 -120 L 374 -368 L 452 -368 L 452 -120 Q 452 -103 449 -86.5 Q 446 -70 439.5 -55 Q 433 -40 421.5 -27.5 Q 410 -15 395.5 -6.5 Q 381 2 364.5 5 Q 348 8 331 8 Z " id="path29"/>
<path d="M 331 8 Q 315 8 298.5 5 Q 282 2 267.5 -6.5 Q 253 -15 241.5 -27.5 Q 230 -40 223 -55 Q 216 -70 213.5 -86.5 Q 211 -103 211 -120 L 211 -225 L 126 -225 L 126 0 L 48 0 L 48 -520 L 126 -520 L 126 -295 L 211 -295 L 211 -520 L 289 -520 L 289 -120 Q 289 -110 290.5 -100 Q 292 -90 297.5 -81 Q 303 -72 312 -67 Q 321 -62 331 -62 Q 342 -62 351 -67 Q 360 -72 365 -81 Q 370 -90 372 -100 Q 374 -110 374 -120 L 374 -260 L 452 -260 L 452 -120 Q 452 -103 449 -86.5 Q 446 -70 439.5 -55 Q 433 -40 421.5 -27.5 Q 410 -15 395.5 -6.5 Q 381 2 364.5 5 Q 348 8 331 8 Z " id="path30"/>
<path d="M 246 8 Q 220 8 193.5 3 Q 167 -2 144 -15 Q 121 -28 103.5 -48 Q 86 -68 75 -92 Q 64 -116 60 -142.5 Q 56 -169 56 -195 L 56 -540 Q 56 -566 60 -592.5 Q 64 -619 75 -643 Q 86 -667 104 -687 Q 122 -707 145 -720 Q 168 -733 194.5 -738 Q 221 -743 247 -743 Q 272 -743 296.5 -739 Q 321 -735 343.5 -724 Q 366 -713 384.5 -695.5 Q 403 -678 415 -656.5 Q 427 -635 432.5 -610.5 Q 438 -586 438 -561 L 438 -555 L 360 -555 L 360 -559 Q 360 -582 353 -604 Q 346 -626 330 -642.5 Q 314 -659 292 -666 Q 270 -673 247 -673 Q 222 -673 198.5 -663.5 Q 175 -654 160 -634 Q 145 -614 139.5 -589.5 Q 134 -565 134 -540 L 134 -195 Q 134 -179 136 -162.5 Q 138 -146 144 -130.5 Q 150 -115 160 -101.5 Q 170 -88 183.5 -79 Q 197 -70 213.5 -66 Q 230 -62 246 -62 Q 262 -62 278.5 -66 Q 295 -70 308.5 -79 Q 322 -88 332 -101.5 Q 342 -115 348 -130.5 Q 354 -146 356 -162.5 Q 358 -179 358 -195 L 358 -368 L 436 -368 L 436 -195 Q 436 -169 432 -142.5 Q 428 -116 417 -92 Q 406 -68 388.5 -48 Q 371 -28 348 -15 Q 325 -2 298.5 3 Q 272 8 246 8 Z " id="path31"/>
<path d="M 246 8 Q 219 8 192.5 2.5 Q 166 -3 143 -16.5 Q 120 -30 102.5 -50.5 Q 85 -71 74.5 -95.5 Q 64 -120 60 -146.5 Q 56 -173 56 -200 L 56 -320 Q 56 -347 60 -373.5 Q 64 -400 75 -424.5 Q 86 -449 103.5 -469.5 Q 121 -490 144 -503.5 Q 167 -517 193.5 -522.5 Q 220 -528 247 -528 Q 272 -528 297 -524 Q 322 -520 344 -509 Q 366 -498 384.5 -480.5 Q 403 -463 415 -441 Q 427 -419 432.5 -394.5 Q 438 -370 438 -345 L 438 -340 L 360 -340 L 360 -343 Q 360 -366 353 -388 Q 346 -410 330 -426.5 Q 314 -443 292 -450.5 Q 270 -458 247 -458 Q 230 -458 213.5 -454 Q 197 -450 183 -440 Q 169 -430 159.5 -416 Q 150 -402 144 -386.5 Q 138 -371 136 -354 Q 134 -337 134 -320 L 134 -200 Q 134 -183 136 -166.5 Q 138 -150 143.5 -134 Q 149 -118 159 -104 Q 169 -90 182.5 -80 Q 196 -70 212.5 -66 Q 229 -62 246 -62 Q 263 -62 279.5 -66 Q 296 -70 309.5 -80 Q 323 -90 333 -104 Q 343 -118 348.5 -134 Q 354 -150 356 -166.5 Q 358 -183 358 -200 L 358 -260 L 436 -260 L 436 -200 Q 436 -173 432 -146.5 Q 428 -120 417.5 -95.5 Q 407 -71 389.5 -50.5 Q 372 -30 349 -16.5 Q 326 -3 299.5 2.5 Q 273 8 246 8 Z " id="path32"/>
<path d="M 307 8 Q 288 8 270 5.5 Q 252 3 235 -4 Q 218 -11 203.5 -22.5 Q 189 -34 179 -50 Q 169 -66 165 -84 Q 161 -102 161 -120 L 161 -665 L 2 -665 L 2 -735 L 398 -735 L 398 -665 L 239 -665 L 239 -120 Q 239 -107 244 -95 Q 249 -83 259 -75.5 Q 269 -68 281.5 -65 Q 294 -62 307 -62 Q 319 -62 331.5 -65 Q 344 -68 354 -75.5 Q 364 -83 369 -95 Q 374 -107 374 -120 L 374 -368 L 452 -368 L 452 -120 Q 452 -102 448 -84 Q 444 -66 434 -50 Q 424 -34 409.5 -22.5 Q 395 -11 378 -4 Q 361 3 343 5.5 Q 325 8 307 8 Z " id="path33"/>
<path d="M 307 8 Q 288 8 270 5.5 Q 252 3 235 -4 Q 218 -11 203.5 -22.5 Q 189 -34 179 -50 Q 169 -66 165 -84 Q 161 -102 161 -120 L 161 -450 L 2 -450 L 2 -520 L 398 -520 L 398 -450 L 239 -450 L 239 -120 Q 239 -107 244 -95 Q 249 -83 259 -75.5 Q 269 -68 281.5 -65 Q 294 -62 307 -62 Q 319 -62 331.5 -65 Q 344 -68 354 -75.5 Q 364 -83 369 -95 Q 374 -107 374 -120 L 374 -260 L 452 -260 L 452 -120 Q 452 -102 448 -84 Q 444 -66 434 -50 Q 424 -34 409.5 -22.5 Q 395 -11 378 -4 Q 361 3 343 5.5 Q 325 8 307 8 Z " id="path34"/>
<path d="M 247 8 Q 220 8 192.5 2.5 Q 165 -3 141 -16.5 Q 117 -30 98.5 -51 Q 80 -72 68.5 -97.5 Q 57 -123 52.5 -150.5 Q 48 -178 48 -205 Q 48 -233 53 -260.5 Q 58 -288 71.5 -312 Q 85 -336 106.5 -354.5 Q 128 -373 154 -383 Q 132 -394 113.5 -411 Q 95 -428 83.5 -449.5 Q 72 -471 68 -495.5 Q 64 -520 64 -544 Q 64 -570 68 -595.5 Q 72 -621 82.5 -644 Q 93 -667 110 -687 Q 127 -707 149 -720 Q 171 -733 196 -738 Q 221 -743 247 -743 Q 271 -743 295.5 -738.5 Q 320 -734 341.5 -723 Q 363 -712 380 -694.5 Q 397 -677 408 -655.5 Q 419 -634 424.5 -610 Q 430 -586 430 -561 L 430 -555 L 352 -555 L 352 -559 Q 352 -581 346 -602.5 Q 340 -624 325.5 -640.5 Q 311 -657 290 -665 Q 269 -673 247 -673 Q 223 -673 201 -663 Q 179 -653 165.5 -633.5 Q 152 -614 147 -590.5 Q 142 -567 142 -543 Q 142 -519 147 -495.5 Q 152 -472 166.5 -453.5 Q 181 -435 203.5 -426 Q 226 -417 250 -417 L 306 -417 L 306 -347 L 250 -347 Q 232 -347 214.5 -343.5 Q 197 -340 182 -330.5 Q 167 -321 155.5 -307 Q 144 -293 137.5 -276.5 Q 131 -260 128.5 -242.5 Q 126 -225 126 -207 Q 126 -189 128.5 -171 Q 131 -153 137 -136.5 Q 143 -120 154 -105.5 Q 165 -91 179.5 -80.5 Q 194 -70 211.5 -66 Q 229 -62 247 -62 Q 271 -62 294 -69 Q 317 -76 334.5 -92.5 Q 352 -109 360 -131.5 Q 368 -154 368 -178 L 368 -180 L 446 -180 L 446 -177 Q 446 -151 440 -126 Q 434 -101 421 -79 Q 408 -57 389 -39.5 Q 370 -22 347 -11 Q 324 0 298.5 4 Q 273 8 247 8 Z " id="path35"/>
<path d="M 247 8 Q 223 8 199.5 5 Q 176 2 153 -5.5 Q 130 -13 110 -26.5 Q 90 -40 75.5 -59.5 Q 61 -79 54.5 -102 Q 48 -125 48 -149 Q 48 -170 53.5 -190 Q 59 -210 72 -226 Q 85 -242 102.5 -253 Q 120 -264 139 -271 Q 123 -278 108 -288.5 Q 93 -299 82.5 -313.5 Q 72 -328 68 -345.5 Q 64 -363 64 -381 Q 64 -403 70 -425 Q 76 -447 89 -464.5 Q 102 -482 120.5 -495 Q 139 -508 160 -515.5 Q 181 -523 203 -525.5 Q 225 -528 247 -528 Q 268 -528 289.5 -525.5 Q 311 -523 331.5 -516.5 Q 352 -510 370.5 -498.5 Q 389 -487 402.5 -470 Q 416 -453 423 -432.5 Q 430 -412 430 -390 L 430 -385 L 352 -385 L 352 -388 Q 352 -405 341.5 -420.5 Q 331 -436 315.5 -444 Q 300 -452 282.5 -455 Q 265 -458 247 -458 Q 229 -458 210.5 -454.5 Q 192 -451 176 -441.5 Q 160 -432 151 -415.5 Q 142 -399 142 -380 Q 142 -368 146 -356 Q 150 -344 158.5 -335 Q 167 -326 178 -320 Q 189 -314 201 -311 Q 213 -308 225.5 -306.5 Q 238 -305 250 -305 L 306 -305 L 306 -235 L 250 -235 Q 236 -235 222 -234 Q 208 -233 194 -229 Q 180 -225 167.5 -218.5 Q 155 -212 145 -202 Q 135 -192 130.5 -178.5 Q 126 -165 126 -150 Q 126 -129 136.5 -110 Q 147 -91 165.5 -80 Q 184 -69 205 -65.5 Q 226 -62 247 -62 Q 260 -62 273 -63 Q 286 -64 299 -67 Q 312 -70 324 -75 Q 336 -80 346 -88.5 Q 356 -97 362 -109 Q 368 -121 368 -134 L 368 -135 L 446 -135 L 446 -132 Q 446 -109 437.5 -87.5 Q 429 -66 414 -49 Q 399 -32 379 -21 Q 359 -10 337 -3.5 Q 315 3 292.5 5.5 Q 270 8 247 8 Z " id="path36"/>
<path d="M 299 223 L 299 154 Q 320 154 341 147.5 Q 362 141 377 125.5 Q 392 110 398.5 89 Q 405 68 405 46 L 405 0 L 358 0 L 358 -665 L 170 -665 L 170 -269 L 169 -230 Q 168 -217 167 -204.5 Q 166 -192 164.5 -179.5 Q 163 -167 161 -154.5 Q 159 -142 156 -129.5 Q 153 -117 149.5 -105.5 Q 146 -94 141.5 -82 Q 137 -70 130.5 -59 Q 124 -48 115.5 -38.5 Q 107 -29 97 -21.5 Q 87 -14 75.5 -9.5 Q 64 -5 49.5 -2.5 Q 35 -0 26 0 L 16 0 L 16 -70 Q 29 -70 41.5 -76 Q 54 -82 61.5 -92.5 Q 69 -103 73 -116 Q 77 -129 80 -141.5 Q 83 -154 85 -167 Q 87 -180 88 -194 L 90 -217 Q 91 -222 91 -228 Q 91 -234 91 -239 L 91 -256 L 92 -267 L 92 -735 L 436 -735 L 436 -70 L 482 -70 L 482 46 Q 482 71 477.5 94.5 Q 473 118 461.5 139.5 Q 450 161 432.5 178 Q 415 195 393 205 Q 371 215 347 219 Q 323 223 299 223 Z " id="path37"/>
<path d="M 299 223 L 299 154 Q 320 154 341 147.5 Q 362 141 377 125.5 Q 392 110 398.5 89 Q 405 68 405 46 L 405 0 L 358 0 L 358 -450 L 170 -450 L 170 -257 Q 170 -245 170 -233 Q 170 -221 169.5 -209 Q 169 -197 168 -185.5 Q 167 -174 166 -162 Q 165 -150 163 -138 Q 161 -126 158 -114.5 Q 155 -103 151 -92 Q 147 -81 142 -70 Q 137 -59 130.5 -49 Q 124 -39 115.5 -31 Q 107 -23 96 -17 Q 85 -11 74 -7.5 Q 63 -4 49 -2 Q 35 -0 27 0 L 16 0 L 16 -70 Q 32 -70 47 -78 Q 62 -86 70 -100 Q 78 -114 81.5 -130 Q 85 -146 87 -162 Q 89 -178 90.5 -194 Q 92 -210 92 -227 L 92 -520 L 436 -520 L 436 -70 L 482 -70 L 482 46 Q 482 71 477.5 94.5 Q 473 118 461.5 139.5 Q 450 161 432.5 178 Q 415 195 393 205 Q 371 215 347 219 Q 323 223 299 223 Z " id="path38"/>
<path d="M 162 0 L 278 -367 L 184 -665 L 134 -665 L 134 -305 Q 134 -290 134 -275 Q 134 -260 133.5 -244.5 Q 133 -229 132.5 -214 Q 132 -199 130.5 -184 Q 129 -169 127 -154 Q 125 -139 122.5 -124 Q 120 -109 116 -94.5 Q 112 -80 107 -66 Q 102 -52 93 -39 Q 84 -26 72.5 -17 Q 61 -8 46 -4 Q 31 -0 16 0 L 16 -70 Q 24 -70 29.5 -76 Q 35 -82 38 -89.5 Q 41 -97 43.5 -105 Q 46 -113 47 -121 Q 48 -129 49 -137 Q 50 -145 51 -153 Q 52 -161 52.5 -169 Q 53 -177 53.5 -185 Q 54 -193 54.5 -201.5 Q 55 -210 55 -218 Q 55 -226 55.5 -234 Q 56 -242 56 -250 Q 56 -258 56 -266 Q 56 -274 56 -282.5 Q 56 -291 56 -299 Q 56 -307 56 -315 L 56 -735 L 243 -735 L 317 -495 L 391 -735 L 472 -735 L 356 -367 L 472 0 L 391 0 L 317 -240 L 243 0 Z " id="path39"/>
<path d="M 468 0 L 383 0 L 317 -162 L 251 0 L 167 0 L 277 -260 L 196 -450 L 134 -450 L 134 -254 Q 134 -234 133.5 -214.5 Q 133 -195 132 -175 Q 131 -155 128.5 -135.5 Q 126 -116 121 -97 Q 116 -78 109 -59 Q 102 -40 88 -26.5 Q 74 -13 55 -6.5 Q 36 0 16 0 L 16 -70 Q 29 -70 36 -81.5 Q 43 -93 46 -105.5 Q 49 -118 50.5 -130.5 Q 52 -143 53 -155.5 Q 54 -168 54.5 -180.5 Q 55 -193 55.5 -205.5 Q 56 -218 56 -231 Q 56 -244 56 -256 L 56 -520 L 251 -520 L 317 -358 L 383 -520 L 468 -520 L 358 -260 Z " id="path40"/>
<path d="M 60 0 L 60 -735 L 153 -735 Q 173 -735 192.5 -731 Q 212 -727 229.5 -717.5 Q 247 -708 261 -693.5 Q 275 -679 285 -662 Q 295 -645 302 -626 Q 309 -607 312 -588 L 381 -735 L 467 -735 L 291 -368 L 467 0 L 381 0 L 230 -322 Q 213 -312 193 -308 Q 173 -304 153 -304 L 138 -304 L 138 0 Z M 153 -374 Q 169 -374 183.5 -381 Q 198 -388 208 -400 Q 218 -412 224.5 -426.5 Q 231 -441 234 -456.5 Q 237 -472 238.5 -488 Q 240 -504 240 -520 Q 240 -535 238.5 -551 Q 237 -567 234 -582.5 Q 231 -598 224.5 -612.5 Q 218 -627 208 -639.5 Q 198 -652 183.5 -658.5 Q 169 -665 153 -665 L 138 -665 L 138 -374 Z " id="path41"/>
<path d="M 48 215 L 48 -520 L 126 -520 L 126 -455 Q 130 -469 136 -481.5 Q 142 -494 151 -504.5 Q 160 -515 172.5 -521.5 Q 185 -528 199 -528 Q 214 -528 227.5 -520.5 Q 241 -513 250 -500.5 Q 259 -488 265 -474 Q 271 -460 275 -445.5 Q 279 -431 281.5 -416.5 Q 284 -402 286 -387 L 369 -520 L 463 -520 L 294 -260 L 463 0 L 369 0 L 286 -133 Q 284 -118 281.5 -103.5 Q 279 -89 275 -74.5 Q 271 -60 265 -46 Q 259 -32 250 -19.5 Q 241 -7 227.5 0.5 Q 214 8 199 8 Q 185 8 172.5 1.5 Q 160 -5 151 -15.5 Q 142 -26 136 -38.5 Q 130 -51 126 -65 L 126 215 Z M 169 -62 Q 178 -62 185 -69.5 Q 192 -77 195.5 -86 Q 199 -95 201.5 -104.5 Q 204 -114 205.5 -123.5 Q 207 -133 208.5 -142.5 Q 210 -152 210.5 -161.5 Q 211 -171 211 -180.5 Q 211 -190 211 -200 L 211 -320 Q 211 -330 211 -339.5 Q 211 -349 210.5 -358.5 Q 210 -368 208.5 -377.5 Q 207 -387 205.5 -396.5 Q 204 -406 201.5 -415.5 Q 199 -425 195.5 -434 Q 192 -443 185 -450.5 Q 178 -458 169 -458 Q 159 -458 152 -450.5 Q 145 -443 141.5 -434 Q 138 -425 135.5 -415.5 Q 133 -406 131.5 -396.5 Q 130 -387 129 -377.5 Q 128 -368 127 -358.5 Q 126 -349 126 -339.5 Q 126 -330 126 -320 L 126 -200 Q 126 -190 126 -180.5 Q 126 -171 127 -161.5 Q 128 -152 129 -142.5 Q 130 -133 131.5 -123.5 Q 133 -114 135.5 -104.5 Q 138 -95 141.5 -86 Q 145 -77 152 -69.5 Q 159 -62 169 -62 Z " id="path42"/>
<path d="M 105 0 L 24 0 L 130 -319 Q 104 -333 86 -356 Q 68 -379 58 -406 Q 48 -433 44 -462 Q 40 -491 40 -520 Q 40 -545 43 -570 Q 46 -595 53 -619 Q 60 -643 73 -665.5 Q 86 -688 105.5 -704 Q 125 -720 149.5 -727.5 Q 174 -735 199 -735 L 452 -735 L 452 -665 L 308 -665 L 308 -417 L 434 -417 L 434 -347 L 308 -347 L 308 -70 L 452 -70 L 452 0 L 231 0 L 231 -304 L 206 -304 Z M 199 -374 L 231 -374 L 231 -665 L 199 -665 Q 183 -665 169.5 -657.5 Q 156 -650 146.5 -637.5 Q 137 -625 131.5 -610.5 Q 126 -596 123 -581 Q 120 -566 119 -550.5 Q 118 -535 118 -520 Q 118 -504 119 -488.5 Q 120 -473 123 -458 Q 126 -443 131.5 -428.5 Q 137 -414 146.5 -401.5 Q 156 -389 169.5 -381.5 Q 183 -374 199 -374 Z " id="path43"/>
<path d="M 334 8 Q 317 8 299 4 Q 281 -0 266 -9.5 Q 251 -19 240 -33.5 Q 229 -48 222.5 -64.5 Q 216 -81 213.5 -99 Q 211 -117 211 -135 L 211 -200 L 193 -200 L 107 0 L 24 0 L 114 -212 Q 95 -221 79.5 -237.5 Q 64 -254 55.5 -274 Q 47 -294 43.5 -316 Q 40 -338 40 -360 Q 40 -380 42.5 -399.5 Q 45 -419 52 -437.5 Q 59 -456 70.5 -472 Q 82 -488 98.5 -499 Q 115 -510 134 -515 Q 153 -520 173 -520 L 286 -520 Q 298 -524 310.5 -526 Q 323 -528 335 -528 Q 353 -528 371 -524 Q 389 -520 404 -510.5 Q 419 -501 430 -486.5 Q 441 -472 448 -455.5 Q 455 -439 457.5 -421 Q 460 -403 460 -385 L 460 -225 L 289 -225 L 289 -135 Q 289 -123 290.5 -111 Q 292 -99 297 -88 Q 302 -77 312 -69.5 Q 322 -62 334 -62 Q 347 -62 357 -71 Q 367 -80 371.5 -91.5 Q 376 -103 378 -115.5 Q 380 -128 380 -141 L 380 -145 L 458 -145 L 458 -137 Q 458 -119 455 -101.5 Q 452 -84 445.5 -67 Q 439 -50 428 -35.5 Q 417 -21 402.5 -11 Q 388 -1 370 3.5 Q 352 8 334 8 Z M 289 -295 L 382 -295 L 382 -385 Q 382 -397 380.5 -409.5 Q 379 -422 373.5 -432.5 Q 368 -443 358 -450.5 Q 348 -458 335 -458 Q 323 -458 313 -450.5 Q 303 -443 297.5 -432.5 Q 292 -422 290.5 -409.5 Q 289 -397 289 -385 Z M 211 -270 L 211 -450 L 173 -450 Q 158 -450 146 -440.5 Q 134 -431 128 -417.5 Q 122 -404 120 -389.5 Q 118 -375 118 -360 Q 118 -345 120 -330.5 Q 122 -316 128 -302.5 Q 134 -289 146 -279.5 Q 158 -270 173 -270 Z " id="path44"/>
<path d="M 396 180 Q 372 180 348.5 176 Q 325 172 304 161.5 Q 283 151 265.5 134.5 Q 248 118 237 97 Q 226 76 221 53 Q 216 30 216 6 Q 192 3 169.5 -5 Q 147 -13 128 -27 Q 109 -41 94.5 -60.5 Q 80 -80 71.5 -102 Q 63 -124 59.5 -147.5 Q 56 -171 56 -195 L 56 -540 Q 56 -567 60.5 -593.5 Q 65 -620 76 -644 Q 87 -668 105.5 -688 Q 124 -708 147 -720.5 Q 170 -733 196.5 -738 Q 223 -743 250 -743 Q 277 -743 303.5 -738 Q 330 -733 353 -720.5 Q 376 -708 394.5 -688 Q 413 -668 424 -644 Q 435 -620 439.5 -593.5 Q 444 -567 444 -540 L 444 -195 Q 444 -172 441 -149 Q 438 -126 430 -104.5 Q 422 -83 408.5 -64 Q 395 -45 377 -30.5 Q 359 -16 337.5 -7.5 Q 316 1 293 5 Q 294 26 300 46 Q 306 66 320.5 81 Q 335 96 355 103 Q 375 110 396 110 L 420 110 L 420 180 Z M 250 -62 Q 267 -62 283.5 -65.5 Q 300 -69 314 -78 Q 328 -87 338.5 -100.5 Q 349 -114 355.5 -129.5 Q 362 -145 364 -161.5 Q 366 -178 366 -195 L 366 -540 Q 366 -557 364 -573.5 Q 362 -590 355.5 -605.5 Q 349 -621 338.5 -634.5 Q 328 -648 314 -657 Q 300 -666 283.5 -669.5 Q 267 -673 250 -673 Q 233 -673 216.5 -669.5 Q 200 -666 186 -657 Q 172 -648 161.5 -634.5 Q 151 -621 144.5 -605.5 Q 138 -590 136 -573.5 Q 134 -557 134 -540 L 134 -195 Q 134 -178 136 -161.5 Q 138 -145 144.5 -129.5 Q 151 -114 161.5 -100.5 Q 172 -87 186 -78 Q 200 -69 216.5 -65.5 Q 233 -62 250 -62 Z " id="path45"/>
<path d="M 358 215 L 358 -92 Q 350 -70 336.5 -51 Q 323 -32 304 -18 Q 285 -4 262 2 Q 239 8 216 8 Q 191 8 166.5 1 Q 142 -6 123 -21 Q 104 -36 90.5 -57.5 Q 77 -79 69.5 -102.5 Q 62 -126 59 -150.5 Q 56 -175 56 -200 L 56 -320 Q 56 -345 59 -369.5 Q 62 -394 69.5 -417.5 Q 77 -441 90.5 -462.5 Q 104 -484 123 -499 Q 142 -514 166.5 -521 Q 191 -528 216 -528 Q 239 -528 262 -522 Q 285 -516 304 -502 Q 323 -488 336.5 -469 Q 350 -450 358 -428 L 358 -520 L 436 -520 L 436 215 Z M 246 -62 Q 263 -62 279.5 -66 Q 296 -70 309.5 -80 Q 323 -90 333 -104 Q 343 -118 348.5 -134 Q 354 -150 356 -166.5 Q 358 -183 358 -200 L 358 -320 Q 358 -337 356 -353.5 Q 354 -370 348.5 -386 Q 343 -402 333 -416 Q 323 -430 309.5 -440 Q 296 -450 279.5 -454 Q 263 -458 246 -458 Q 229 -458 212.5 -454 Q 196 -450 182.5 -440 Q 169 -430 159 -416 Q 149 -402 143.5 -386 Q 138 -370 136 -353.5 Q 134 -337 134 -320 L 134 -200 Q 134 -183 136 -166.5 Q 138 -150 143.5 -134 Q 149 -118 159 -104 Q 169 -90 182.5 -80 Q 196 -70 212.5 -66 Q 229 -62 246 -62 Z " id="path46"/>
<path d="M 194 0 L 117 0 L 32 -735 L 110 -735 L 158 -106 L 211 -529 L 289 -529 L 342 -106 L 390 -735 L 468 -735 L 383 0 L 306 0 L 250 -394 Z " id="path47"/>
<path d="M 383 0 L 306 0 L 250 -278 L 194 0 L 117 0 L 32 -520 L 111 -520 L 158 -76 L 211 -374 L 289 -374 L 342 -76 L 389 -520 L 468 -520 Z " id="path48"/>
<path d="M 360 0 L 195 -333 L 157 -333 L 157 0 L 80 0 L 80 -735 L 157 -735 L 157 -403 L 195 -403 L 360 -735 L 445 -735 L 262 -367 L 445 0 Z M 394 -428 L 194 -628 L 244 -674 L 444 -474 Z " id="path49"/>
<path d="M 353 0 L 205 -225 L 157 -225 L 157 0 L 80 0 L 80 -520 L 157 -520 L 157 -295 L 205 -295 L 353 -520 L 443 -520 L 271 -260 L 443 0 Z M 399 -267 L 199 -467 L 249 -513 L 449 -313 Z " id="path50"/>
<path d="M 289 215 L 289 145 Q 309 145 327.5 135 Q 346 125 356.5 107.5 Q 367 90 370.5 69.5 Q 374 49 374 29 L 374 -282 Q 374 -291 374 -300.5 Q 374 -310 373 -319.5 Q 372 -329 371 -338 Q 370 -347 368.5 -356 Q 367 -365 364.5 -374.5 Q 362 -384 358 -392.5 Q 354 -401 347.5 -408 Q 341 -415 331 -415 Q 322 -415 315 -408 Q 308 -401 304.5 -392.5 Q 301 -384 298.5 -374.5 Q 296 -365 294.5 -356 Q 293 -347 291.5 -338 Q 290 -329 289.5 -319.5 Q 289 -310 289 -300.5 Q 289 -291 289 -282 L 289 0 L 211 0 L 211 -665 L 144 -665 L 144 -306 Q 144 -287 144 -268.5 Q 144 -250 143.5 -231.5 Q 143 -213 141.5 -194.5 Q 140 -176 137.5 -157.5 Q 135 -139 131 -121 Q 127 -103 121.5 -85.5 Q 116 -68 107.5 -51.5 Q 99 -35 84.5 -23 Q 70 -11 52.5 -5.5 Q 35 0 16 0 L 16 -70 Q 24 -70 31 -74.5 Q 38 -79 42 -86 Q 46 -93 49 -100.5 Q 52 -108 54 -116 Q 56 -124 57 -132 Q 58 -140 59 -148 Q 60 -156 61 -164 Q 62 -172 62.5 -180 Q 63 -188 63.5 -196 Q 64 -204 64.5 -212 Q 65 -220 65.5 -228 Q 66 -236 66 -244 Q 66 -252 66 -260.5 Q 66 -269 66 -277 Q 66 -285 66 -293 Q 66 -301 66 -309 L 66 -735 L 289 -735 L 289 -414 Q 293 -427 299 -439.5 Q 305 -452 314 -462.5 Q 323 -473 335.5 -479 Q 348 -485 362 -485 Q 377 -485 390.5 -477.5 Q 404 -470 413 -457.5 Q 422 -445 428 -431 Q 434 -417 438 -402.5 Q 442 -388 445 -373 Q 448 -358 449.5 -342.5 Q 451 -327 451.5 -312 Q 452 -297 452 -282 L 452 29 Q 452 52 448.5 75.5 Q 445 99 436.5 120.5 Q 428 142 413 161 Q 398 180 378 192.5 Q 358 205 335 210 Q 312 215 289 215 Z " id="path51"/>
<path d="M 289 215 L 289 145 Q 309 145 327.5 135 Q 346 125 356.5 107.5 Q 367 90 370.5 69.5 Q 374 49 374 29 L 374 -148 Q 374 -157 374 -166.5 Q 374 -176 373 -185 Q 372 -194 371 -203.5 Q 370 -213 368.5 -222 Q 367 -231 364.5 -240 Q 362 -249 358 -257.5 Q 354 -266 347.5 -273 Q 341 -280 331 -280 Q 322 -280 315 -273 Q 308 -266 304.5 -257.5 Q 301 -249 298.5 -240 Q 296 -231 294.5 -222 Q 293 -213 291.5 -203.5 Q 290 -194 289.5 -185 Q 289 -176 289 -166.5 Q 289 -157 289 -148 L 289 0 L 211 0 L 211 -450 L 144 -450 L 144 -255 Q 144 -235 144 -214.5 Q 144 -194 142.5 -174 Q 141 -154 138 -133.5 Q 135 -113 129.5 -94 Q 124 -75 115.5 -56 Q 107 -37 91.5 -24 Q 76 -11 56 -5.5 Q 36 0 16 0 L 16 -70 Q 29 -70 38.5 -79.5 Q 48 -89 52.5 -101 Q 57 -113 59 -126 Q 61 -139 62.5 -152 Q 64 -165 64.5 -177.5 Q 65 -190 65.5 -203 Q 66 -216 66 -229 Q 66 -242 66 -255 L 66 -520 L 289 -520 L 289 -280 Q 293 -293 299 -305 Q 305 -317 314 -327.5 Q 323 -338 335.5 -344 Q 348 -350 362 -350 Q 377 -350 390.5 -342.5 Q 404 -335 413 -323 Q 422 -311 428 -297 Q 434 -283 438 -268 Q 442 -253 445 -238 Q 448 -223 449.5 -208 Q 451 -193 451.5 -178 Q 452 -163 452 -148 L 452 29 Q 452 52 448.5 75.5 Q 445 99 436.5 120.5 Q 428 142 413 161 Q 398 180 378 192.5 Q 358 205 335 210 Q 312 215 289 215 Z " id="path52"/>
<path d="M 289 215 L 289 145 Q 309 145 327.5 135 Q 346 125 356.5 107.5 Q 367 90 370.5 69.5 Q 374 49 374 29 L 374 -282 Q 374 -291 374 -300.5 Q 374 -310 373 -319.5 Q 372 -329 371 -338 Q 370 -347 368.5 -356 Q 367 -365 364.5 -374.5 Q 362 -384 358 -392.5 Q 354 -401 347.5 -408 Q 341 -415 331 -415 Q 322 -415 315 -408 Q 308 -401 304.5 -392.5 Q 301 -384 298.5 -374.5 Q 296 -365 294.5 -356 Q 293 -347 291.5 -338 Q 290 -329 289.5 -319.5 Q 289 -310 289 -300.5 Q 289 -291 289 -282 L 289 0 L 211 0 L 211 -345 L 126 -345 L 126 0 L 48 0 L 48 -735 L 126 -735 L 126 -415 L 211 -415 L 211 -735 L 289 -735 L 289 -414 Q 293 -427 299 -439.5 Q 305 -452 314 -462.5 Q 323 -473 335.5 -479 Q 348 -485 362 -485 Q 377 -485 390.5 -477.5 Q 404 -470 413 -457.5 Q 422 -445 428 -431 Q 434 -417 438 -402.5 Q 442 -388 445 -373 Q 448 -358 449.5 -342.5 Q 451 -327 451.5 -312 Q 452 -297 452 -282 L 452 29 Q 452 52 448.5 75.5 Q 445 99 436.5 120.5 Q 428 142 413 161 Q 398 180 378 192.5 Q 358 205 335 210 Q 312 215 289 215 Z " id="path53"/>
<path d="M 289 215 L 289 145 Q 309 145 327.5 135 Q 346 125 356.5 107.5 Q 367 90 370.5 69.5 Q 374 49 374 29 L 374 -148 Q 374 -157 374 -166.5 Q 374 -176 373 -185 Q 372 -194 371 -203.5 Q 370 -213 368.5 -222 Q 367 -231 364.5 -240 Q 362 -249 358 -257.5 Q 354 -266 347.5 -273 Q 341 -280 331 -280 Q 322 -280 315 -273 Q 308 -266 304.5 -257.5 Q 301 -249 298.5 -240 Q 296 -231 294.5 -222 Q 293 -213 291.5 -203.5 Q 290 -194 289.5 -185 Q 289 -176 289 -166.5 Q 289 -157 289 -148 L 289 0 L 211 0 L 211 -234 L 126 -234 L 126 0 L 48 0 L 48 -520 L 126 -520 L 126 -304 L 211 -304 L 211 -520 L 289 -520 L 289 -280 Q 293 -293 299 -305 Q 305 -317 314 -327.5 Q 323 -338 335.5 -344 Q 348 -350 362 -350 Q 377 -350 390.5 -342.5 Q 404 -335 413 -323 Q 422 -311 428 -297 Q 434 -283 438 -268 Q 442 -253 445 -238 Q 448 -223 449.5 -208 Q 451 -193 451.5 -178 Q 452 -163 452 -148 L 452 29 Q 452 52 448.5 75.5 Q 445 99 436.5 120.5 Q 428 142 413 161 Q 398 180 378 192.5 Q 358 205 335 210 Q 312 215 289 215 Z " id="path54"/>
<path d="M 405 157 L 405 0 L 358 0 L 358 -665 L 142 -665 L 142 0 L 64 0 L 64 -735 L 436 -735 L 436 -70 L 482 -70 L 482 157 Z " id="path55"/>
<path d="M 405 157 L 405 0 L 358 0 L 358 -450 L 142 -450 L 142 0 L 64 0 L 64 -520 L 436 -520 L 436 -70 L 482 -70 L 482 157 Z " id="path56"/>
<path d="M 405 157 L 405 0 L 358 0 L 358 -254 Q 358 -264 358 -273 Q 358 -282 357 -291.5 Q 356 -301 353.5 -310 Q 351 -319 347 -327.5 Q 343 -336 337.5 -343.5 Q 332 -351 325.5 -358 Q 319 -365 311 -370 Q 303 -375 294.5 -378.5 Q 286 -382 275 -384.5 Q 264 -387 258 -387 L 250 -387 Q 242 -387 234 -386.5 Q 226 -386 218 -385.5 Q 210 -385 201.5 -383.5 Q 193 -382 184 -380.5 Q 175 -379 167.5 -377 Q 160 -375 155 -374 L 142 -369 L 142 0 L 64 0 L 64 -735 L 142 -735 L 142 -439 Q 150 -442 157.5 -444 Q 165 -446 173 -448 Q 181 -450 189 -451.5 Q 197 -453 206.5 -454.5 Q 216 -456 223.5 -456.5 Q 231 -457 236 -457 L 250 -457 Q 265 -457 280 -455.5 Q 295 -454 310 -450.5 Q 325 -447 339 -441 Q 353 -435 365.5 -426.5 Q 378 -418 388.5 -407 Q 399 -396 407.5 -383.5 Q 416 -371 421.5 -357 Q 427 -343 430.5 -328 Q 434 -313 435 -295.5 Q 436 -278 436 -268 L 436 -70 L 482 -70 L 482 157 Z " id="path57"/>
<path d="M 405 157 L 405 0 L 358 0 L 358 -320 Q 358 -330 357.5 -339 Q 357 -348 355.5 -357.5 Q 354 -367 351.5 -376.5 Q 349 -386 345.5 -394.5 Q 342 -403 337 -411.5 Q 332 -420 325.5 -427 Q 319 -434 311.5 -439.5 Q 304 -445 295.5 -449 Q 287 -453 276 -455.5 Q 265 -458 259 -458 L 250 -458 Q 240 -458 231 -456.5 Q 222 -455 212.5 -452 Q 203 -449 195 -444 Q 187 -439 180.5 -432.5 Q 174 -426 168 -418 Q 162 -410 158 -402 Q 154 -394 151 -385 Q 148 -376 146 -366.5 Q 144 -357 143 -346 Q 142 -335 142 -329 L 142 0 L 64 0 L 64 -735 L 142 -735 L 142 -429 Q 147 -442 154 -455 Q 161 -468 170 -479 Q 179 -490 190 -499 Q 201 -508 214 -514 Q 227 -520 243.5 -524 Q 260 -528 269 -528 L 280 -528 Q 294 -528 308 -526 Q 322 -524 335.5 -519 Q 349 -514 360.5 -506.5 Q 372 -499 382 -489 Q 392 -479 400 -466.5 Q 408 -454 414 -441.5 Q 420 -429 424 -415.5 Q 428 -402 430.5 -388 Q 433 -374 434.5 -357.5 Q 436 -341 436 -332 L 436 -70 L 482 -70 L 482 157 Z " id="path58"/>
<path d="M -42 223 L -42 153 Q -21 153 0 146.5 Q 21 140 36 124.5 Q 51 109 57.5 88 Q 64 67 64 46 L 64 -735 L 142 -735 L 142 -415 L 358 -415 L 358 -735 L 436 -735 L 436 0 L 358 0 L 358 -345 L 142 -345 L 142 46 Q 142 70 137.5 94 Q 133 118 121.5 139.5 Q 110 161 92 177.5 Q 74 194 52 204.5 Q 30 215 6 219 Q -18 223 -42 223 Z " id="path59"/>
<path d="M -42 223 L -42 153 Q -21 153 0 146.5 Q 21 140 36 124.5 Q 51 109 57.5 88 Q 64 67 64 46 L 64 -520 L 142 -520 L 142 -304 L 358 -304 L 358 -520 L 436 -520 L 436 0 L 358 0 L 358 -234 L 142 -234 L 142 46 Q 142 70 137.5 94 Q 133 118 121.5 139.5 Q 110 161 92 177.5 Q 74 194 52 204.5 Q 30 215 6 219 Q -18 223 -42 223 Z " id="path60"/>
<path d="M 23 157 L 23 -49 L 37 -49 Q 51 -151 55 -254 Q 59 -357 59 -459 L 59 -735 L 211 -735 L 211 -392 L 283 -392 L 283 -735 L 338 -735 L 338 -392 L 357 -392 L 426 -735 L 481 -735 L 407 -367 L 481 0 L 426 0 L 357 -343 L 338 -343 L 338 0 L 283 0 L 283 -343 L 211 -343 L 211 -49 L 233 -49 L 233 157 L 178 157 L 178 0 L 78 0 L 78 157 Z M 92 -49 L 157 -49 L 157 -686 L 114 -686 L 114 -459 Q 114 -357 110 -254 Q 106 -151 92 -49 Z " id="path61"/>
<path d="M 23 157 L 23 -49 L 37 -49 Q 51 -117 55 -186.5 Q 59 -256 59 -325 L 59 -520 L 211 -520 L 211 -285 L 283 -285 L 283 -520 L 338 -520 L 338 -285 L 360 -285 L 425 -520 L 481 -520 L 410 -260 L 481 0 L 425 0 L 360 -235 L 338 -235 L 338 0 L 283 0 L 283 -235 L 211 -235 L 211 -49 L 233 -49 L 233 157 L 178 157 L 178 0 L 78 0 L 78 157 Z M 157 -49 L 157 -471 L 114 -471 L 114 -325 Q 114 -256 110 -186.5 Q 106 -117 92 -49 Z " id="path62"/>
<path d="M 36 157 L 36 -70 L 64 -70 L 153 -271 Q 129 -283 110 -303 Q 91 -323 80 -348 Q 69 -373 66.5 -400 Q 64 -427 64 -454 L 64 -735 L 142 -735 L 142 -454 Q 142 -438 143 -422.5 Q 144 -407 149 -392 Q 154 -377 163 -364 Q 172 -351 184 -342 L 358 -735 L 436 -735 L 436 -70 L 464 -70 L 464 157 L 386 157 L 386 0 L 114 0 L 114 157 Z M 258 -321 Q 284 -322 309 -326.5 Q 334 -331 358 -339 L 358 -548 Z M 147 -70 L 358 -70 L 358 -269 Q 332 -260 305 -255.5 Q 278 -251 250 -251 Q 244 -251 238.5 -251 Q 233 -251 227 -252 Z " id="path63"/>
<path d="M 36 157 L 36 -70 L 64 -70 L 143 -191 Q 121 -204 104 -223.5 Q 87 -243 77.5 -267 Q 68 -291 66 -316.5 Q 64 -342 64 -368 L 64 -520 L 142 -520 L 142 -368 Q 142 -352 143 -336.5 Q 144 -321 149 -306 Q 154 -291 163 -277.5 Q 172 -264 185 -255 L 358 -520 L 436 -520 L 436 -70 L 464 -70 L 464 157 L 386 157 L 386 0 L 114 0 L 114 157 Z M 261 -235 Q 286 -236 310.5 -240.5 Q 335 -245 358 -253 L 358 -384 Z M 153 -70 L 358 -70 L 358 -183 Q 332 -174 305 -169.5 Q 278 -165 250 -165 Q 242 -165 233.5 -165.5 Q 225 -166 217 -167 Z " id="path64"/>
<path d="M 405 157 L 405 0 L 358 0 L 358 -665 L 170 -665 L 170 -269 L 169 -230 Q 168 -217 167 -204.5 Q 166 -192 164.5 -179.5 Q 163 -167 161 -154.5 Q 159 -142 156 -129.5 Q 153 -117 149.5 -105.5 Q 146 -94 141.5 -82 Q 137 -70 130.5 -59 Q 124 -48 115.5 -38.5 Q 107 -29 97 -21.5 Q 87 -14 75.5 -9.5 Q 64 -5 49.5 -2.5 Q 35 -0 26 0 L 16 0 L 16 -70 Q 29 -70 41.5 -76 Q 54 -82 61.5 -92.5 Q 69 -103 73 -116 Q 77 -129 80 -141.5 Q 83 -154 85 -167 Q 87 -180 88 -194 L 90 -217 Q 91 -222 91 -228 Q 91 -234 91 -239 L 91 -256 L 92 -267 L 92 -735 L 436 -735 L 436 -70 L 482 -70 L 482 157 Z " id="path65"/>
<path d="M 405 157 L 405 0 L 358 0 L 358 -450 L 170 -450 L 170 -257 Q 170 -245 170 -233 Q 170 -221 169.5 -209 Q 169 -197 168 -185.5 Q 167 -174 166 -162 Q 165 -150 163 -138 Q 161 -126 158 -114.5 Q 155 -103 151 -92 Q 147 -81 142 -70 Q 137 -59 130.5 -49 Q 124 -39 115.5 -31 Q 107 -23 96 -17 Q 85 -11 74 -7.5 Q 63 -4 49 -2 Q 35 -0 27 0 L 16 0 L 16 -70 Q 32 -70 47 -78 Q 62 -86 70 -100 Q 78 -114 81.5 -130 Q 85 -146 87 -162 Q 89 -178 90.5 -194 Q 92 -210 92 -227 L 92 -520 L 436 -520 L 436 -70 L 482 -70 L 482 157 Z " id="path66"/>
</defs>
<g>
<g data-source-text="0" fill="#dee4e3" transform="translate(174 41.292) rotate(0) scale(0.023999998)">
<use href="#path1" transform="translate(0 0)"/>
</g>
</g>
<g>
<g data-source-text="1" fill="#dee4e3" transform="translate(246 41.292) rotate(0) scale(0.023999998)">
<use href="#path2" transform="translate(0 0)"/>
</g>
</g>
<g>
<g data-source-text="2" fill="#dee4e3" transform="translate(318 41.292) rotate(0) scale(0.023999998)">
<use href="#path3" transform="translate(0 0)"/>
</g>
</g>
<g>
<g data-source-text="3" fill="#dee4e3" transform="translate(390 41.292) rotate(0) scale(0.023999998)">
<use href="#path4" transform="translate(0 0)"/>
</g>
</g>
<g>
<g data-source-text="4" fill="#dee4e3" transform="translate(462 41.292) rotate(0) scale(0.023999998)">
<use href="#path5" transform="translate(0 0)"/>
</g>
</g>
<g>
<g data-source-text="5" fill="#dee4e3" transform="translate(534 41.292) rotate(0) scale(0.023999998)">
<use href="#path6" transform="translate(0 0)"/>
</g>
</g>
<g>
<g data-source-text="6" fill="#dee4e3" transform="translate(606 41.292) rotate(0) scale(0.023999998)">
<use href="#path7" transform="translate(0 0)"/>
</g>
</g>
<g>
<g data-source-text="7" fill="#dee4e3" transform="translate(678 41.292) rotate(0) scale(0.023999998)">
<use href="#path8" transform="translate(0 0)"/>
</g>
</g>
<g>
<g data-source-text="8" fill="#dee4e3" transform="translate(750 41.292) rotate(0) scale(0.023999998)">
<use href="#path9" transform="translate(0 0)"/>
</g>
</g>
<g>
<g data-source-text="9" fill="#dee4e3" transform="translate(822 41.292) rotate(0) scale(0.023999998)">
<use href="#path10" transform="translate(0 0)"/>
</g>
</g>
<g>
<g data-source-text="A" fill="#dee4e3" transform="translate(894 41.292) rotate(0) scale(0.023999998)">
<use href="#path11" transform="translate(0 0)"/>
</g>
</g>
<g>
<g data-source-text="B" fill="#dee4e3" transform="translate(966 41.292) rotate(0) scale(0.023999998)">
<use href="#path12" transform="translate(0 0)"/>
</g>
</g>
<g>
<g data-source-text="C" fill="#dee4e3" transform="translate(1038 41.292) rotate(0) scale(0.023999998)">
<use href="#path13" transform="translate(0 0)"/>
</g>
</g>
<g>
<g data-source-text="D" fill="#dee4e3" transform="translate(1110 41.292) rotate(0) scale(0.023999998)">
<use href="#path14" transform="translate(0 0)"/>
</g>
</g>
<g>
<g data-source-text="E" fill="#dee4e3" transform="translate(1182 41.292) rotate(0) scale(0.023999998)">
<use href="#path15" transform="translate(0 0)"/>
</g>
</g>
<g>
<g data-source-text="F" fill="#dee4e3" transform="translate(1254 41.292) rotate(0) scale(0.023999998)">
<use href="#path16" transform="translate(0 0)"/>
</g>
</g>
<g>
<g data-source-text="U+0500" fill="#dee4e3" transform="translate(36 113.292) rotate(0) scale(0.023999998)">
<use href="#path17" transform="translate(0 0)"/>
<use href="#path18" transform="translate(500 0)"/>
<use href="#path1" transform="translate(1000 0)"/>
<use href="#path6" transform="translate(1500 0)"/>
<use href="#path1" transform="translate(2000 0)"/>
<use href="#path1" transform="translate(2500 0)"/>
</g>
</g>
<g>
<g data-source-text="" fill="#dee4e3" transform="translate(168 118.584) rotate(0) scale(0.047999997)">
<use href="#path19" transform="translate(0 0)"/>
</g>
</g>
<g>
<g data-source-text="" fill="#dee4e3" transform="translate(240 118.584) rotate(0) scale(0.047999997)">
<use href="#path20" transform="translate(0 0)"/>
</g>
</g>
<g>
<g data-source-text="" fill="#dee4e3" transform="translate(312 118.584) rotate(0) scale(0.047999997)">
<use href="#path21" transform="translate(0 0)"/>
</g>
</g>
<g>
<g data-source-text="" fill="#dee4e3" transform="translate(384 118.584) rotate(0) scale(0.047999997)">
<use href="#path22" transform="translate(0 0)"/>
</g>
</g>
<g>
<g data-source-text="" fill="#dee4e3" transform="translate(456 118.584) rotate(0) scale(0.047999997)">
<use href="#path23" transform="translate(0 0)"/>
</g>
</g>
<g>
<g data-source-text="" fill="#dee4e3" transform="translate(528 118.584) rotate(0) scale(0.047999997)">
<use href="#path24" transform="translate(0 0)"/>
</g>
</g>
<g>
<g data-source-text="" fill="#dee4e3" transform="translate(600 118.584) rotate(0) scale(0.047999997)">
<use href="#path25" transform="translate(0 0)"/>
</g>
</g>
<g>
<g data-source-text="" fill="#dee4e3" transform="translate(672 118.584) rotate(0) scale(0.047999997)">
<use href="#path26" transform="translate(0 0)"/>
</g>
</g>
<g>
<g data-source-text="" fill="#dee4e3" transform="translate(744 118.584) rotate(0) scale(0.047999997)">
<use href="#path27" transform="translate(0 0)"/>
</g>
</g>
<g>
<g data-source-text="" fill="#dee4e3" transform="translate(816 118.584) rotate(0) scale(0.047999997)">
<use href="#path28" transform="translate(0 0)"/>
</g>
</g>
<g>
<g data-source-text="" fill="#dee4e3" transform="translate(888 118.584) rotate(0) scale(0.047999997)">
<use href="#path29" transform="translate(0 0)"/>
</g>
</g>
<g>
<g data-source-text="" fill="#dee4e3" transform="translate(960 118.584) rotate(0) scale(0.047999997)">
<use href="#path30" transform="translate(0 0)"/>
</g>
</g>
<g>
<g data-source-text="" fill="#dee4e3" transform="translate(1032 118.584) rotate(0) scale(0.047999997)">
<use href="#path31" transform="translate(0 0)"/>
</g>
</g>
<g>
<g data-source-text="" fill="#dee4e3" transform="translate(1104 118.584) rotate(0) scale(0.047999997)">
<use href="#path32" transform="translate(0 0)"/>
</g>
</g>
<g>
<g data-source-text="" fill="#dee4e3" transform="translate(1176 118.584) rotate(0) scale(0.047999997)">
<use href="#path33" transform="translate(0 0)"/>
</g>
</g>
<g>
<g data-source-text="" fill="#dee4e3" transform="translate(1248 118.584) rotate(0) scale(0.047999997)">
<use href="#path34" transform="translate(0 0)"/>
</g>
</g>
<g>
<g data-source-text="U+0510" fill="#dee4e3" transform="translate(36 185.292) rotate(0) scale(0.023999998)">
<use href="#path17" transform="translate(0 0)"/>
<use href="#path18" transform="translate(500 0)"/>
<use href="#path1" transform="translate(1000 0)"/>
<use href="#path6" transform="translate(1500 0)"/>
<use href="#path2" transform="translate(2000 0)"/>
<use href="#path1" transform="translate(2500 0)"/>
</g>
</g>
<g>
<g data-source-text="" fill="#dee4e3" transform="translate(168 190.584) rotate(0) scale(0.047999997)">
<use href="#path35" transform="translate(0 0)"/>
</g>
</g>
<g>
<g data-source-text="" fill="#dee4e3" transform="translate(240 190.584) rotate(0) scale(0.047999997)">
<use href="#path36" transform="translate(0 0)"/>
</g>
</g>
<g>
<g data-source-text="" fill="#dee4e3" transform="translate(312 190.584) rotate(0) scale(0.047999997)">
<use href="#path37" transform="translate(0 0)"/>
</g>
</g>
<g>
<g data-source-text="" fill="#dee4e3" transform="translate(384 190.584) rotate(0) scale(0.047999997)">
<use href="#path38" transform="translate(0 0)"/>
</g>
</g>
<g>
<g data-source-text="" fill="#dee4e3" transform="translate(456 190.584) rotate(0) scale(0.047999997)">
<use href="#path39" transform="translate(0 0)"/>
</g>
</g>
<g>
<g data-source-text="" fill="#dee4e3" transform="translate(528 190.584) rotate(0) scale(0.047999997)">
<use href="#path40" transform="translate(0 0)"/>
</g>
</g>
<g>
<g data-source-text="" fill="#dee4e3" transform="translate(600 190.584) rotate(0) scale(0.047999997)">
<use href="#path41" transform="translate(0 0)"/>
</g>
</g>
<g>
<g data-source-text="" fill="#dee4e3" transform="translate(672 190.584) rotate(0) scale(0.047999997)">
<use href="#path42" transform="translate(0 0)"/>
</g>
</g>
<g>
<g data-source-text="" fill="#dee4e3" transform="translate(744 190.584) rotate(0) scale(0.047999997)">
<use href="#path43" transform="translate(0 0)"/>
</g>
</g>
<g>
<g data-source-text="" fill="#dee4e3" transform="translate(816 190.584) rotate(0) scale(0.047999997)">
<use href="#path44" transform="translate(0 0)"/>
</g>
</g>
<g>
<g data-source-text="" fill="#dee4e3" transform="translate(888 190.584) rotate(0) scale(0.047999997)">
<use href="#path45" transform="translate(0 0)"/>
</g>
</g>
<g>
<g data-source-text="" fill="#dee4e3" transform="translate(960 190.584) rotate(0) scale(0.047999997)">
<use href="#path46" transform="translate(0 0)"/>
</g>
</g>
<g>
<g data-source-text="" fill="#dee4e3" transform="translate(1032 190.584) rotate(0) scale(0.047999997)">
<use href="#path47" transform="translate(0 0)"/>
</g>
</g>
<g>
<g data-source-text="" fill="#dee4e3" transform="translate(1104 190.584) rotate(0) scale(0.047999997)">
<use href="#path48" transform="translate(0 0)"/>
</g>
</g>
<g>
<g data-source-text="" fill="#dee4e3" transform="translate(1176 190.584) rotate(0) scale(0.047999997)">
<use href="#path49" transform="translate(0 0)"/>
</g>
</g>
<g>
<g data-source-text="" fill="#dee4e3" transform="translate(1248 190.584) rotate(0) scale(0.047999997)">
<use href="#path50" transform="translate(0 0)"/>
</g>
</g>
<g>
<g data-source-text="U+0520" fill="#dee4e3" transform="translate(36 257.292) rotate(0) scale(0.023999998)">
<use href="#path17" transform="translate(0 0)"/>
<use href="#path18" transform="translate(500 0)"/>
<use href="#path1" transform="translate(1000 0)"/>
<use href="#path6" transform="translate(1500 0)"/>
<use href="#path3" transform="translate(2000 0)"/>
<use href="#path1" transform="translate(2500 0)"/>
</g>
</g>
<g>
<g data-source-text="" fill="#dee4e3" transform="translate(168 262.584) rotate(0) scale(0.047999997)">
<use href="#path51" transform="translate(0 0)"/>
</g>
</g>
<g>
<g data-source-text="" fill="#dee4e3" transform="translate(240 262.584) rotate(0) scale(0.047999997)">
<use href="#path52" transform="translate(0 0)"/>
</g>
</g>
<g>
<g data-source-text="" fill="#dee4e3" transform="translate(312 262.584) rotate(0) scale(0.047999997)">
<use href="#path53" transform="translate(0 0)"/>
</g>
</g>
<g>
<g data-source-text="" fill="#dee4e3" transform="translate(384 262.584) rotate(0) scale(0.047999997)">
<use href="#path54" transform="translate(0 0)"/>
</g>
</g>
<g>
<g data-source-text="" fill="#dee4e3" transform="translate(456 262.584) rotate(0) scale(0.047999997)">
<use href="#path55" transform="translate(0 0)"/>
</g>
</g>
<g>
<g data-source-text="" fill="#dee4e3" transform="translate(528 262.584) rotate(0) scale(0.047999997)">
<use href="#path56" transform="translate(0 0)"/>
</g>
</g>
<g>
<g data-source-text="" fill="#dee4e3" transform="translate(600 262.584) rotate(0) scale(0.047999997)">
<use href="#path57" transform="translate(0 0)"/>
</g>
</g>
<g>
<g data-source-text="" fill="#dee4e3" transform="translate(672 262.584) rotate(0) scale(0.047999997)">
<use href="#path58" transform="translate(0 0)"/>
</g>
</g>
<g>
<g data-source-text="" fill="#dee4e3" transform="translate(744 262.584) rotate(0) scale(0.047999997)">
<use href="#path59" transform="translate(0 0)"/>
</g>
</g>
<g>
<g data-source-text="" fill="#dee4e3" transform="translate(816 262.584) rotate(0) scale(0.047999997)">
<use href="#path60" transform="translate(0 0)"/>
</g>
</g>
<g>
<g data-source-text="" fill="#dee4e3" transform="translate(888 262.584) rotate(0) scale(0.047999997)">
<use href="#path61" transform="translate(0 0)"/>
</g>
</g>
<g>
<g data-source-text="" fill="#dee4e3" transform="translate(960 262.584) rotate(0) scale(0.047999997)">
<use href="#path62" transform="translate(0 0)"/>
</g>
</g>
<g>
<g data-source-text="" fill="#dee4e3" transform="translate(1032 262.584) rotate(0) scale(0.047999997)">
<use href="#path63" transform="translate(0 0)"/>
</g>
</g>
<g>
<g data-source-text="" fill="#dee4e3" transform="translate(1104 262.584) rotate(0) scale(0.047999997)">
<use href="#path64" transform="translate(0 0)"/>
</g>
</g>
<g>
<g data-source-text="" fill="#dee4e3" transform="translate(1176 262.584) rotate(0) scale(0.047999997)">
<use href="#path65" transform="translate(0 0)"/>
</g>
</g>
<g>
<g data-source-text="" fill="#dee4e3" transform="translate(1248 262.584) rotate(0) scale(0.047999997)">
<use href="#path66" transform="translate(0 0)"/>
</g>
</g>
</svg>