<?xml version="1.0" encoding="UTF-8" standalone="no"?>
<svg height="360" viewBox="0 0 1296 360" width="1296" xmlns="http://www.w3.org/2000/svg">
<defs>
<path d="M 250 8 Q 223 8 196 3 Q 169 -2 145 -15 Q 121 -28 102.5 -48.5 Q 84 -69 72.5 -94 Q 61 -119 56.5 -146 Q 52 -173 52 -200 L 52 -535 Q 52 -562 56.5 -589 Q 61 -616 72.5 -641 Q 84 -666 102.5 -686.5 Q 121 -707 145 -720 Q 169 -733 196 -738 Q 223 -743 250 -743 Q 277 -743 304 -738 Q 331 -733 355 -720 Q 379 -707 397.5 -686.5 Q 416 -666 427.5 -641 Q 439 -616 443.5 -589 Q 448 -562 448 -535 L 448 -200 Q 448 -173 443.5 -146 Q 439 -119 427.5 -94 Q 416 -69 397.5 -48.5 Q 379 -28 355 -15 Q 331 -2 304 3 Q 277 8 250 8 Z M 152 -337 L 348 -492 L 348 -535 Q 348 -557 343 -579 Q 338 -601 325.5 -618.5 Q 313 -636 292.5 -645.5 Q 272 -655 250 -655 Q 228 -655 207.5 -645.5 Q 187 -636 174.5 -618.5 Q 162 -601 157 -579 Q 152 -557 152 -535 Z M 250 -80 Q 272 -80 292.5 -89.5 Q 313 -99 325.5 -116.5 Q 338 -134 343 -156 Q 348 -178 348 -200 L 348 -398 L 152 -243 L 152 -200 Q 152 -178 157 -156 Q 162 -134 174.5 -116.5 Q 187 -99 207.5 -89.5 Q 228 -80 250 -80 Z " id="path1"/>
<path d="M 230 0 L 230 -631 L 110 -528 L 55 -584 L 230 -735 L 330 -735 L 330 0 Z " id="path2"/>
<path d="M 60 0 L 60 -1 Q 60 -27 61 -54 Q 62 -81 65.5 -107 Q 69 -133 77 -158.5 Q 85 -184 96.5 -208 Q 108 -232 123 -253.5 Q 138 -275 156 -294.5 Q 174 -314 194 -331 Q 214 -348 235.5 -364 Q 257 -380 277.5 -397 Q 298 -414 313 -435.5 Q 328 -457 336 -483 Q 344 -509 344 -535 Q 344 -557 339.5 -578 Q 335 -599 323.5 -617 Q 312 -635 292 -645 Q 272 -655 251 -655 Q 231 -655 212.5 -647.5 Q 194 -640 181.5 -625 Q 169 -610 163.5 -591 Q 158 -572 158 -552 L 158 -548 L 58 -548 L 58 -555 Q 58 -581 63.5 -606 Q 69 -631 81 -653 Q 93 -675 111.5 -693 Q 130 -711 152.5 -722.5 Q 175 -734 200.5 -738.5 Q 226 -743 251 -743 Q 278 -743 304.5 -737.5 Q 331 -732 354.5 -719 Q 378 -706 396 -685.5 Q 414 -665 425 -640.5 Q 436 -616 440 -589 Q 444 -562 444 -535 Q 444 -501 435 -468 Q 426 -435 407.5 -406 Q 389 -377 364 -353.5 Q 339 -330 312.5 -308.5 Q 286 -287 261 -264 Q 236 -241 216 -213 Q 196 -185 183 -153.5 Q 170 -122 165 -88 L 440 -88 L 440 0 Z " id="path3"/>
<path d="M 253 8 Q 227 8 201 4 Q 175 -0 151 -11.5 Q 127 -23 107.5 -40.5 Q 88 -58 75.5 -81 Q 63 -104 56.5 -129.5 Q 50 -155 50 -181 L 50 -187 L 150 -187 L 150 -184 Q 150 -163 157 -143 Q 164 -123 178 -108 Q 192 -93 212 -86.5 Q 232 -80 253 -80 Q 275 -80 296 -88.5 Q 317 -97 330.5 -114.5 Q 344 -132 350 -154 Q 356 -176 356 -198 Q 356 -217 352 -235.5 Q 348 -254 339 -271 Q 330 -288 316.5 -301 Q 303 -314 286 -322 Q 269 -330 250 -332 Q 231 -334 212 -334 L 212 -422 Q 229 -422 246 -424 Q 263 -426 278.5 -433 Q 294 -440 306 -452.5 Q 318 -465 325.5 -480.5 Q 333 -496 336.5 -513 Q 340 -530 340 -547 Q 340 -566 335.5 -585.5 Q 331 -605 320 -621.5 Q 309 -638 291 -646.5 Q 273 -655 253 -655 Q 234 -655 216 -647 Q 198 -639 187 -624 Q 176 -609 171 -590 Q 166 -571 166 -553 L 166 -548 L 66 -548 L 66 -556 Q 66 -581 71.5 -605.5 Q 77 -630 88 -652 Q 99 -674 116.5 -692.5 Q 134 -711 156.5 -722.5 Q 179 -734 203.5 -738.5 Q 228 -743 253 -743 Q 278 -743 303.5 -738 Q 329 -733 351 -721 Q 373 -709 390.5 -690 Q 408 -671 419 -648 Q 430 -625 435 -600 Q 440 -575 440 -550 Q 440 -524 434 -498.5 Q 428 -473 416 -450.5 Q 404 -428 385 -409.5 Q 366 -391 343 -379 Q 370 -368 391.5 -348.5 Q 413 -329 427.5 -304.5 Q 442 -280 449 -252 Q 456 -224 456 -196 Q 456 -168 450 -141.5 Q 444 -115 432 -91 Q 420 -67 401 -47 Q 382 -27 358 -14.5 Q 334 -2 307 3 Q 280 8 253 8 Z " id="path4"/>
<path d="M 282 0 L 282 -188 L 52 -188 L 52 -275 L 276 -735 L 385 -735 L 161 -275 L 282 -275 L 282 -435 L 383 -435 L 383 -275 L 440 -275 L 440 -188 L 383 -188 L 383 0 Z " id="path5"/>
<path d="M 252 8 Q 227 8 202.5 3.5 Q 178 -1 155.5 -12 Q 133 -23 114.5 -41 Q 96 -59 84 -80.5 Q 72 -102 65.5 -126.5 Q 59 -151 58 -176 L 159 -176 Q 160 -158 166.5 -139.5 Q 173 -121 185.5 -107 Q 198 -93 216 -86.5 Q 234 -80 252 -80 Q 269 -80 285 -87 Q 301 -94 312.5 -107 Q 324 -120 330.5 -135.5 Q 337 -151 341 -167.5 Q 345 -184 346.5 -201 Q 348 -218 348 -235 Q 348 -252 346.5 -269 Q 345 -286 341.5 -302.5 Q 338 -319 331.5 -334.5 Q 325 -350 314.5 -363 Q 304 -376 288 -383.5 Q 272 -391 256 -391 Q 240 -391 224 -387 Q 208 -383 195.5 -373.5 Q 183 -364 176 -349.5 Q 169 -335 168 -319 L 68 -319 L 68 -735 L 421 -735 L 421 -647 L 168 -647 L 168 -464 Q 189 -472 211 -475 Q 233 -478 256 -478 Q 285 -478 313.5 -470.5 Q 342 -463 365.5 -445.5 Q 389 -428 405.5 -403 Q 422 -378 431.5 -350.5 Q 441 -323 444.5 -294 Q 448 -265 448 -235 Q 448 -206 444.5 -176.5 Q 441 -147 431 -119 Q 421 -91 404.5 -66.5 Q 388 -42 364 -24.5 Q 340 -7 311 0.5 Q 282 8 252 8 Z " id="path6"/>
<path d="M 250 8 Q 221 8 192.5 1.5 Q 164 -5 140 -21 Q 116 -37 98.5 -60.5 Q 81 -84 70.5 -111 Q 60 -138 56 -166.5 Q 52 -195 52 -224 Q 52 -268 59.5 -311 Q 67 -354 81 -395.5 Q 95 -437 113 -477 Q 131 -517 150 -556 L 238 -735 L 347 -735 L 240 -517 Q 228 -493 216.5 -468.5 Q 205 -444 195 -419 Q 214 -438 239.5 -447 Q 265 -456 291 -456 Q 317 -456 342.5 -447 Q 368 -438 386.5 -419.5 Q 405 -401 417 -377.5 Q 429 -354 436 -328.5 Q 443 -303 445.5 -276.5 Q 448 -250 448 -224 Q 448 -195 444 -166.5 Q 440 -138 429.5 -111 Q 419 -84 401.5 -60.5 Q 384 -37 360 -21 Q 336 -5 307.5 1.5 Q 279 8 250 8 Z M 250 -80 Q 266 -80 282 -85.5 Q 298 -91 309.5 -102.5 Q 321 -114 328.5 -129 Q 336 -144 340.5 -159.5 Q 345 -175 346.5 -191.5 Q 348 -208 348 -224 Q 348 -240 346.5 -256.5 Q 345 -273 340.5 -289 Q 336 -305 328.5 -319.5 Q 321 -334 309.5 -345.5 Q 298 -357 282 -362.5 Q 266 -368 250 -368 Q 235 -368 221 -363.5 Q 207 -359 195.5 -349.5 Q 184 -340 176 -327.5 Q 168 -315 163.5 -301 Q 159 -287 156.5 -272.5 Q 154 -258 153 -243 Q 153 -238 152.5 -233.5 Q 152 -229 152 -224 Q 152 -208 153.5 -191.5 Q 155 -175 159.5 -159.5 Q 164 -144 171.5 -129 Q 179 -114 190.5 -102.5 Q 202 -91 218 -85.5 Q 234 -80 250 -80 Z " id="path7"/>
<path d="M 138 0 L 336 -647 L 60 -647 L 60 -735 L 440 -735 L 440 -647 L 242 0 Z " id="path8"/>
<path d="M 250 8 Q 225 8 200 4 Q 175 -0 152 -10 Q 129 -20 109.5 -37 Q 90 -54 77.5 -75.5 Q 65 -97 58.5 -121.5 Q 52 -146 52 -172 Q 52 -203 61.5 -232.5 Q 71 -262 88 -288.5 Q 105 -315 127 -336.5 Q 149 -358 174 -378 Q 152 -396 132.5 -417 Q 113 -438 98.5 -462.5 Q 84 -487 76 -514.5 Q 68 -542 68 -570 Q 68 -594 73.5 -617.5 Q 79 -641 90.5 -661.5 Q 102 -682 119.5 -698.5 Q 137 -715 158 -725 Q 179 -735 202.5 -739 Q 226 -743 250 -743 Q 274 -743 297.5 -739 Q 321 -735 342 -725 Q 363 -715 380.5 -698.5 Q 398 -682 409.5 -661.5 Q 421 -641 426.5 -617.5 Q 432 -594 432 -570 Q 432 -542 424 -514.5 Q 416 -487 401.5 -462.5 Q 387 -438 367.5 -417 Q 348 -396 326 -378 Q 351 -358 373 -336.5 Q 395 -315 412 -288.5 Q 429 -262 438.5 -232.5 Q 448 -203 448 -172 Q 448 -146 441.5 -121.5 Q 435 -97 422.5 -75.5 Q 410 -54 390.5 -37 Q 371 -20 348 -10 Q 325 -0 300 4 Q 275 8 250 8 Z M 250 -434 Q 266 -447 280.5 -461.5 Q 295 -476 306.5 -493 Q 318 -510 325 -529.5 Q 332 -549 332 -569 Q 332 -586 327 -602.5 Q 322 -619 310.5 -631.5 Q 299 -644 283 -649.5 Q 267 -655 250 -655 Q 233 -655 217 -649.5 Q 201 -644 189.5 -631.5 Q 178 -619 173 -602.5 Q 168 -586 168 -569 Q 168 -549 175 -529.5 Q 182 -510 193.5 -493 Q 205 -476 219.5 -461.5 Q 234 -447 250 -434 Z M 250 -80 Q 269 -80 288 -85.5 Q 307 -91 320.5 -104 Q 334 -117 341 -135.5 Q 348 -154 348 -173 Q 348 -196 339.5 -217.5 Q 331 -239 317 -257.5 Q 303 -276 285.5 -291 Q 268 -306 250 -320 Q 232 -306 214.5 -291 Q 197 -276 183 -257.5 Q 169 -239 160.5 -217.5 Q 152 -196 152 -173 Q 152 -154 159 -135.5 Q 166 -117 179.5 -104 Q 193 -91 212 -85.5 Q 231 -80 250 -80 Z " id="path9"/>
<path d="M 262 0 L 153 0 L 260 -218 Q 272 -242 283.5 -266.5 Q 295 -291 305 -316 Q 286 -297 260.5 -288 Q 235 -279 209 -279 Q 183 -279 157.5 -288 Q 132 -297 113.5 -315.5 Q 95 -334 83 -357.5 Q 71 -381 64 -406.5 Q 57 -432 54.5 -458.5 Q 52 -485 52 -511 Q 52 -540 56 -568.5 Q 60 -597 70.5 -624 Q 81 -651 98.5 -674.5 Q 116 -698 140 -714 Q 164 -730 192.5 -736.5 Q 221 -743 250 -743 Q 279 -743 307.5 -736.5 Q 336 -730 360 -714 Q 384 -698 401.5 -674.5 Q 419 -651 429.5 -624 Q 440 -597 444 -568.5 Q 448 -540 448 -511 Q 448 -467 440.5 -424 Q 433 -381 419 -339.5 Q 405 -298 387 -258 Q 369 -218 350 -179 Z M 250 -367 Q 265 -367 279 -371.5 Q 293 -376 304.5 -385.5 Q 316 -395 324 -407.5 Q 332 -420 336.5 -434 Q 341 -448 343.5 -462.5 Q 346 -477 347 -492 Q 347 -497 347.5 -501.5 Q 348 -506 348 -511 Q 348 -527 346.5 -543.5 Q 345 -560 340.5 -575.5 Q 336 -591 328.5 -606 Q 321 -621 309.5 -632.5 Q 298 -644 282 -649.5 Q 266 -655 250 -655 Q 234 -655 218 -649.5 Q 202 -644 190.5 -632.5 Q 179 -621 171.5 -606 Q 164 -591 159.5 -575.5 Q 155 -560 153.5 -543.5 Q 152 -527 152 -511 Q 152 -495 153.5 -478.5 Q 155 -462 159.5 -446 Q 164 -430 171.5 -415.5 Q 179 -401 190.5 -389.5 Q 202 -378 218 -372.5 Q 234 -367 250 -367 Z " id="path10"/>
<path d="M 39 0 L 53 -70 L 192 -735 L 308 -735 L 461 0 L 359 0 L 326 -172 L 174 -172 L 141 0 Z M 191 -260 L 309 -260 L 266 -490 Q 262 -511 258 -531.5 Q 254 -552 250 -573 Q 246 -552 242 -531.5 Q 238 -511 234 -490 Z " id="path11"/>
<path d="M 60 0 L 60 -735 L 235 -735 Q 261 -735 287 -730.5 Q 313 -726 336.5 -714 Q 360 -702 378.5 -682.5 Q 397 -663 408.5 -639.5 Q 420 -616 424.5 -590 Q 429 -564 429 -538 Q 429 -515 425.5 -492 Q 422 -469 411.5 -448.5 Q 401 -428 384.5 -411 Q 368 -394 348 -383 Q 373 -373 394.5 -355.5 Q 416 -338 430.5 -314.5 Q 445 -291 450.5 -264 Q 456 -237 456 -210 Q 456 -181 450.5 -152.5 Q 445 -124 431 -98.5 Q 417 -73 395.5 -53.5 Q 374 -34 347.5 -21.5 Q 321 -9 292.5 -4.5 Q 264 -0 235 0 Z M 160 -424 L 235 -424 Q 256 -424 275.5 -432.5 Q 295 -441 307.5 -457.5 Q 320 -474 324.5 -494.5 Q 329 -515 329 -536 Q 329 -557 324.5 -577.5 Q 320 -598 307.5 -614.5 Q 295 -631 275.5 -639 Q 256 -647 235 -647 L 160 -647 Z M 160 -88 L 235 -88 Q 251 -88 267.5 -91 Q 284 -94 298.5 -101.5 Q 313 -109 324.5 -121 Q 336 -133 343 -148 Q 350 -163 353 -179 Q 356 -195 356 -212 Q 356 -228 353 -244.5 Q 350 -261 343 -276 Q 336 -291 324.5 -303 Q 313 -315 298.5 -322.5 Q 284 -330 267.5 -333 Q 251 -336 235 -336 L 160 -336 Z " id="path12"/>
<path d="M 247 8 Q 220 8 193 3 Q 166 -2 142.5 -15.5 Q 119 -29 101 -49.5 Q 83 -70 71.5 -94.5 Q 60 -119 56 -146 Q 52 -173 52 -200 L 52 -535 Q 52 -562 56 -589 Q 60 -616 71.5 -640.5 Q 83 -665 101 -685.5 Q 119 -706 142.5 -719.5 Q 166 -733 193 -738 Q 220 -743 247 -743 Q 273 -743 298 -738.5 Q 323 -734 346 -723 Q 369 -712 387.5 -694 Q 406 -676 418 -653.5 Q 430 -631 436 -606 Q 442 -581 442 -555 L 442 -548 L 342 -548 L 342 -552 Q 342 -572 336 -591.5 Q 330 -611 317.5 -626 Q 305 -641 286 -648 Q 267 -655 247 -655 Q 225 -655 205 -645.5 Q 185 -636 173 -618 Q 161 -600 156.5 -578.5 Q 152 -557 152 -535 L 152 -200 Q 152 -178 156.5 -156.5 Q 161 -135 173 -117 Q 185 -99 205 -89.5 Q 225 -80 247 -80 Q 267 -80 286 -87 Q 305 -94 317.5 -109 Q 330 -124 336 -143.5 Q 342 -163 342 -183 L 342 -187 L 442 -187 L 442 -180 Q 442 -154 436 -129 Q 430 -104 418 -81.5 Q 406 -59 387.5 -41 Q 369 -23 346 -12 Q 323 -1 298 3.5 Q 273 8 247 8 Z " id="path13"/>
<path d="M 60 0 L 60 -735 L 220 -735 Q 250 -735 280 -730 Q 310 -725 337 -712 Q 364 -699 386.5 -678.5 Q 409 -658 423 -631.5 Q 437 -605 442.5 -575 Q 448 -545 448 -515 L 448 -220 Q 448 -190 442.5 -160 Q 437 -130 423 -103.5 Q 409 -77 386.5 -56.5 Q 364 -36 337 -23 Q 310 -10 280 -5 Q 250 -0 220 0 Z M 160 -88 L 220 -88 Q 237 -88 254.5 -91 Q 272 -94 287.5 -102.5 Q 303 -111 315 -124 Q 327 -137 334.5 -152.5 Q 342 -168 345 -185.5 Q 348 -203 348 -220 L 348 -515 Q 348 -532 345 -549.5 Q 342 -567 334.5 -582.5 Q 327 -598 315 -611 Q 303 -624 287.5 -632.5 Q 272 -641 254.5 -644 Q 237 -647 220 -647 L 160 -647 Z " id="path14"/>
<path d="M 68 0 L 68 -735 L 440 -735 L 440 -647 L 168 -647 L 168 -426 L 383 -426 L 383 -338 L 168 -338 L 168 -88 L 440 -88 L 440 0 Z " id="path15"/>
<path d="M 90 0 L 90 -735 L 440 -735 L 440 -647 L 190 -647 L 190 -426 L 383 -426 L 383 -338 L 190 -338 L 190 0 Z " id="path16"/>
<path d="M 250 8 Q 223 8 196.5 2.5 Q 170 -3 147 -16.5 Q 124 -30 106.5 -50.5 Q 89 -71 78.5 -95.5 Q 68 -120 64 -146.5 Q 60 -173 60 -200 L 60 -735 L 160 -735 L 160 -200 Q 160 -186 161.5 -172 Q 163 -158 167.5 -144.5 Q 172 -131 179.5 -118.5 Q 187 -106 197.5 -97 Q 208 -88 222 -84 Q 236 -80 250 -80 Q 264 -80 278 -84 Q 292 -88 302.5 -97 Q 313 -106 320.5 -118.5 Q 328 -131 332.5 -144.5 Q 337 -158 338.5 -172 Q 340 -186 340 -200 L 340 -735 L 440 -735 L 440 -200 Q 440 -173 436 -146.5 Q 432 -120 421.5 -95.5 Q 411 -71 393.5 -50.5 Q 376 -30 353 -16.5 Q 330 -3 303.5 2.5 Q 277 8 250 8 Z " id="path17"/>
<path d="M 300 -142 L 200 -142 L 200 -296 L 60 -296 L 60 -384 L 200 -384 L 200 -538 L 300 -538 L 300 -384 L 440 -384 L 440 -296 L 300 -296 Z " id="path18"/>
<path d="M 64 0 L 64 -735 L 436 -735 L 436 0 Z M 94 -321 L 401 -705 L 307 -705 L 94 -438 Z M 94 -477 L 276 -705 L 182 -705 L 94 -595 Z M 94 -634 L 151 -705 L 94 -705 Z M 94 -165 L 406 -554 L 406 -671 L 94 -282 Z M 94 -30 L 112 -30 L 406 -398 L 406 -515 L 94 -126 Z M 143 -30 L 237 -30 L 406 -242 L 406 -359 Z M 362 -30 L 406 -85 L 406 -203 L 268 -30 Z M 393 -30 L 406 -30 L 406 -46 Z " id="path19"/>
<path d="M 250 -526 Q 240 -526 233 -533 Q 226 -540 226 -550 Q 226 -560 233 -567 Q 240 -574 250 -574 Q 260 -574 267 -567 Q 274 -560 274 -550 Q 274 -540 267 -533 Q 260 -526 250 -526 Z M 145 -498 Q 135 -498 128 -505 Q 121 -512 121 -522 Q 121 -531 128 -538.5 Q 135 -546 145 -546 Q 155 -546 162 -538.5 Q 169 -531 169 -522 Q 169 -512 162 -505 Q 155 -498 145 -498 Z M 355 -498 Q 345 -498 338 -505 Q 331 -512 331 -522 Q 331 -531 338 -538.5 Q 345 -546 355 -546 Q 365 -546 372 -538.5 Q 379 -531 379 -522 Q 379 -512 372 -505 Q 365 -498 355 -498 Z M 68 -421 Q 59 -421 51.5 -428 Q 44 -435 44 -445 Q 44 -455 51.5 -462 Q 59 -469 68 -469 Q 78 -469 85 -462 Q 92 -455 92 -445 Q 92 -435 85 -428 Q 78 -421 68 -421 Z M 432 -421 Q 422 -421 415 -428 Q 408 -435 408 -445 Q 408 -455 415 -462 Q 422 -469 432 -469 Q 441 -469 448.5 -462 Q 456 -455 456 -445 Q 456 -435 448.5 -428 Q 441 -421 432 -421 Z M 40 -316 Q 30 -316 23 -323 Q 16 -330 16 -340 Q 16 -350 23 -357 Q 30 -364 40 -364 Q 50 -364 57 -357 Q 64 -350 64 -340 Q 64 -330 57 -323 Q 50 -316 40 -316 Z M 460 -316 Q 450 -316 443 -323 Q 436 -330 436 -340 Q 436 -350 443 -357 Q 450 -364 460 -364 Q 470 -364 477 -357 Q 484 -350 484 -340 Q 484 -330 477 -323 Q 470 -316 460 -316 Z M 432 -211 Q 422 -211 415 -218 Q 408 -225 408 -235 Q 408 -245 415 -252 Q 422 -259 432 -259 Q 441 -259 448.5 -252 Q 456 -245 456 -235 Q 456 -225 448.5 -218 Q 441 -211 432 -211 Z M 68 -211 Q 59 -211 51.5 -218 Q 44 -225 44 -235 Q 44 -245 51.5 -252 Q 59 -259 68 -259 Q 78 -259 85 -252 Q 92 -245 92 -235 Q 92 -225 85 -218 Q 78 -211 68 -211 Z M 355 -134 Q 345 -134 338 -141.5 Q 331 -149 331 -158 Q 331 -168 338 -175 Q 345 -182 355 -182 Q 365 -182 372 -175 Q 379 -168 379 -158 Q 379 -149 372 -141.5 Q 365 -134 355 -134 Z M 145 -134 Q 135 -134 128 -141.5 Q 121 -149 121 -158 Q 121 -168 128 -175 Q 135 -182 145 -182 Q 155 -182 162 -175 Q 169 -168 169 -158 Q 169 -149 162 -141.5 Q 155 -134 145 -134 Z M 250 -106 Q 240 -106 233 -113 Q 226 -120 226 -130 Q 226 -140 233 -147 Q 240 -154 250 -154 Q 260 -154 267 -147 Q 274 -140 274 -130 Q 274 -120 267 -113 Q 260 -106 250 -106 Z " id="path20"/>
<path d="M -250 -600 Q -280 -600 -309.5 -607.5 Q -339 -615 -362 -634 Q -385 -653 -396 -681.5 Q -407 -710 -407 -740 L -333 -740 Q -333 -724 -327 -709 Q -321 -694 -309 -684.5 Q -297 -675 -281.5 -671 Q -266 -667 -250 -667 Q -232 -667 -215 -672.5 Q -198 -678 -181.5 -686 Q -165 -694 -150 -703.5 Q -135 -713 -118.5 -721 Q -102 -729 -85 -734.5 Q -68 -740 -50 -740 L -50 -673 Q -68 -673 -85 -667.5 Q -102 -662 -118.5 -654 Q -135 -646 -150 -636.5 Q -165 -627 -181.5 -619 Q -198 -611 -215 -605.5 Q -232 -600 -250 -600 Z " id="path21"/>
<path d="M -369 -600 L -369 -661 L -246 -661 L -153 -769 L -110 -740 L -201 -600 Z " id="path22"/>
<path d="M -299 -600 L -390 -740 L -347 -769 L -254 -661 L -131 -661 L -131 -600 Z " id="path23"/>
<path d="M -153 -592 L -246 -701 L -369 -701 L -369 -761 L -201 -761 L -110 -622 Z " id="path24"/>
<path d="M -347 -592 L -390 -622 L -299 -761 L -131 -761 L -131 -701 L -254 -701 Z " id="path25"/>
<path d="M -300 288 L -300 80 L -262 80 L -262 120 Q -259 112 -255.5 104 Q -252 96 -246 90 Q -240 84 -232 80.5 Q -224 77 -215 77 Q -204 77 -194 82.5 Q -184 88 -178.5 98 Q -173 108 -171.5 119 Q -170 130 -170 141 L -208 141 Q -208 136 -209 131 Q -210 126 -212 121.5 Q -214 117 -218.5 114.5 Q -223 112 -228 112 Q -238 112 -245.5 119.5 Q -253 127 -256.5 137 Q -260 147 -261 157 Q -262 167 -262 178 L -262 288 Z " id="path26"/>
<path d="M -316 -600 Q -333 -600 -349 -605 Q -365 -610 -377.5 -620.5 Q -390 -631 -398.5 -645 Q -407 -659 -411.5 -675 Q -416 -691 -418 -707.5 Q -420 -724 -420 -740 L -346 -740 Q -346 -733 -345.5 -726 Q -345 -719 -344 -711.5 Q -343 -704 -341.5 -697 Q -340 -690 -337 -683.5 Q -334 -677 -329 -672 Q -324 -667 -316 -667 Q -309 -667 -304 -672 Q -299 -677 -296 -683.5 Q -293 -690 -291.5 -697 Q -290 -704 -289 -711.5 Q -288 -719 -287.5 -726 Q -287 -733 -287 -740 L -99 -740 L -99 -673 L -222 -673 Q -227 -658 -235.5 -644 Q -244 -630 -256.5 -619.5 Q -269 -609 -284.5 -604.5 Q -300 -600 -316 -600 Z " id="path27"/>
<path d="M -184 -600 Q -200 -600 -215.5 -604.5 Q -231 -609 -243.5 -619.5 Q -256 -630 -264.5 -644 Q -273 -658 -278 -673 L -401 -673 L -401 -740 L -213 -740 Q -213 -733 -212.5 -726 Q -212 -719 -211 -711.5 Q -210 -704 -208.5 -697 Q -207 -690 -204 -683.5 Q -201 -677 -196 -672 Q -191 -667 -184 -667 Q -176 -667 -171 -672 Q -166 -677 -163 -683.5 Q -160 -690 -158.5 -697 Q -157 -704 -156 -711.5 Q -155 -719 -154.5 -726 Q -154 -733 -154 -740 L -80 -740 Q -80 -724 -82 -707.5 Q -84 -691 -88.5 -675 Q -93 -659 -101.5 -645 Q -110 -631 -122.5 -620.5 Q -135 -610 -151 -605 Q -167 -600 -184 -600 Z " id="path28"/>
<path d="M -367 -814 L -383 -861 L -15 -1002 L 15 -1002 L 383 -861 L 367 -814 L 0 -914 Z " id="path29"/>
<path d="M -300 -512 L -300 -520 Q -286 -529 -274.5 -541.5 Q -263 -554 -254.5 -568.5 Q -246 -583 -239.5 -598.5 Q -233 -614 -233 -631 Q -233 -641 -237.5 -650.5 Q -242 -660 -250 -665.5 Q -258 -671 -268.5 -673.5 Q -279 -676 -289 -676 Q -297 -676 -305.5 -674.5 Q -314 -673 -322 -672 L -322 -739 Q -311 -741 -299.5 -742 Q -288 -743 -276 -743 Q -255 -743 -234 -738.5 Q -213 -734 -195.5 -721.5 Q -178 -709 -168 -689.5 Q -158 -670 -158 -649 Q -158 -628 -166.5 -607.5 Q -175 -587 -188 -569.5 Q -201 -552 -217.5 -537.5 Q -234 -523 -252 -512 Z " id="path30"/>
<path d="M -234 220 L -226 180 L -355 180 L -335 80 L -266 80 L -274 120 L -145 120 L -165 220 Z " id="path31"/>
<path d="M -292 -600 Q -303 -600 -313.5 -605 Q -324 -610 -331 -618.5 Q -338 -627 -342.5 -637.5 Q -347 -648 -349 -659 Q -351 -670 -352 -681.5 Q -353 -693 -353 -704 L -315 -704 Q -315 -697 -314.5 -690.5 Q -314 -684 -313.5 -677.5 Q -313 -671 -312 -664.5 Q -311 -658 -309 -652 Q -307 -646 -302.5 -640 Q -298 -634 -292 -634 Q -285 -634 -281 -640 Q -277 -646 -275 -652 Q -273 -658 -272 -664.5 Q -271 -671 -270.5 -677.5 Q -270 -684 -269.5 -690.5 Q -269 -697 -269 -704 L -231 -704 Q -231 -697 -230.5 -690.5 Q -230 -684 -229.5 -677.5 Q -229 -671 -228 -664.5 Q -227 -658 -225 -652 Q -223 -646 -219 -640 Q -215 -634 -208 -634 Q -202 -634 -197.5 -640 Q -193 -646 -191 -652 Q -189 -658 -188 -664.5 Q -187 -671 -186.5 -677.5 Q -186 -684 -185.5 -690.5 Q -185 -697 -185 -704 L -147 -704 Q -147 -693 -148 -681.5 Q -149 -670 -151 -659 Q -153 -648 -157.5 -637.5 Q -162 -627 -169 -618.5 Q -176 -610 -186.5 -605 Q -197 -600 -208 -600 Q -220 -600 -231.5 -606 Q -243 -612 -250 -623 Q -257 -612 -268.5 -606 Q -280 -600 -292 -600 Z " id="path32"/>
<path d="M -284 -597 Q -296 -597 -307 -601.5 Q -318 -606 -325 -615.5 Q -332 -625 -334.5 -636.5 Q -337 -648 -337 -660 Q -337 -672 -334 -684.5 Q -331 -697 -322.5 -706.5 Q -314 -716 -302 -720.5 Q -290 -725 -277 -725 L -269 -725 L -269 -763 Q -269 -769 -273 -773 Q -277 -777 -283 -777 Q -287 -777 -290 -774 Q -293 -771 -294 -767 Q -295 -763 -295.5 -759 Q -296 -755 -296 -751 L -296 -750 L -335 -750 L -335 -753 Q -335 -764 -332 -775 Q -329 -786 -322 -794.5 Q -315 -803 -304.5 -807 Q -294 -811 -283 -811 Q -274 -811 -265 -809 Q -256 -807 -249 -802 Q -242 -807 -233.5 -809 Q -225 -811 -216 -811 Q -205 -811 -194 -807.5 Q -183 -804 -176 -795.5 Q -169 -787 -166 -776 Q -163 -765 -163 -754 L -163 -687 L -231 -687 L -231 -654 Q -231 -646 -227.5 -638.5 Q -224 -631 -216 -631 Q -212 -631 -209 -634 Q -206 -637 -204.5 -640.5 Q -203 -644 -202.5 -648.5 Q -202 -653 -202 -657 L -202 -658 L -164 -658 L -164 -655 Q -164 -644 -167 -633 Q -170 -622 -177 -613.5 Q -184 -605 -194.5 -601 Q -205 -597 -216 -597 Q -226 -597 -235 -599.5 Q -244 -602 -251 -608 Q -258 -602 -266.5 -599.5 Q -275 -597 -284 -597 Z M -231 -721 L -201 -721 L -201 -754 Q -201 -762 -204.5 -769.5 Q -208 -777 -216 -777 Q -224 -777 -227.5 -769.5 Q -231 -762 -231 -754 Z M -284 -631 Q -279 -631 -276 -635 Q -273 -639 -271.5 -643.5 Q -270 -648 -269.5 -653 Q -269 -658 -269 -662 L -269 -691 L -277 -691 Q -282 -691 -287 -688.5 Q -292 -686 -294.5 -681.5 Q -297 -677 -298 -671.5 Q -299 -666 -299 -661 Q -299 -657 -298.5 -652 Q -298 -647 -296.5 -643 Q -295 -639 -292 -635 Q -289 -631 -284 -631 Z " id="path33"/>
<path d="M -284 -597 Q -296 -597 -307 -601.5 Q -318 -606 -325 -615.5 Q -332 -625 -334.5 -636.5 Q -337 -648 -337 -660 Q -337 -672 -334 -684.5 Q -331 -697 -322.5 -706.5 Q -314 -716 -302 -720.5 Q -290 -725 -277 -725 L -269 -725 L -269 -763 Q -269 -769 -273 -773 Q -277 -777 -283 -777 Q -287 -777 -290 -774 Q -293 -771 -294 -767 Q -295 -763 -295.5 -759 Q -296 -755 -296 -751 L -296 -750 L -335 -750 L -335 -753 Q -335 -764 -332 -775 Q -329 -786 -322 -794.5 Q -315 -803 -304.5 -807 Q -294 -811 -283 -811 Q -274 -811 -265 -809 Q -256 -807 -249 -802 Q -242 -807 -233.5 -809 Q -225 -811 -216 -811 Q -205 -811 -194 -807.5 Q -183 -804 -176 -795.5 Q -169 -787 -166 -776 Q -163 -765 -163 -754 L -163 -654 Q -163 -643 -166 -632 Q -169 -621 -176 -612.5 Q -183 -604 -194 -600.5 Q -205 -597 -216 -597 Q -225 -597 -234.5 -599.5 Q -244 -602 -251 -608 Q -258 -602 -266.5 -599.5 Q -275 -597 -284 -597 Z M -216 -631 Q -208 -631 -204.5 -638.5 Q -201 -646 -201 -654 L -201 -754 Q -201 -762 -204.5 -769.5 Q -208 -777 -216 -777 Q -224 -777 -227.5 -769.5 Q -231 -762 -231 -754 L -231 -654 Q -231 -646 -227.5 -638.5 Q -224 -631 -216 -631 Z M -284 -631 Q -279 -631 -276 -635 Q -273 -639 -271.5 -643.5 Q -270 -648 -269.5 -653 Q -269 -658 -269 -662 L -269 -691 L -277 -691 Q -282 -691 -287 -688.5 Q -292 -686 -294.5 -681.5 Q -297 -677 -298 -671.5 Q -299 -666 -299 -661 Q -299 -657 -298.5 -652 Q -298 -647 -296.5 -643 Q -295 -639 -292 -635 Q -289 -631 -284 -631 Z " id="path34"/>
<path d="M -290 -594 L -290 -623 L -250 -623 Q -244 -623 -238 -625.5 Q -232 -628 -232 -634 Q -232 -641 -238 -644.5 Q -244 -648 -250 -648 L -266 -648 L -266 -680 Q -280 -682 -292.5 -689 Q -305 -696 -313 -708 Q -321 -720 -324.5 -734 Q -328 -748 -328 -762 L -328 -810 Q -328 -826 -323.5 -842 Q -319 -858 -308.5 -870 Q -298 -882 -282.5 -887.5 Q -267 -893 -251 -893 Q -236 -893 -221.5 -888.5 Q -207 -884 -196 -874 Q -185 -864 -180 -849.5 Q -175 -835 -175 -820 L -175 -818 L -213 -818 L -213 -819 Q -213 -827 -215.5 -834.5 Q -218 -842 -223.5 -847.5 Q -229 -853 -236 -855.5 Q -243 -858 -251 -858 Q -260 -858 -268 -854.5 Q -276 -851 -281 -843.5 Q -286 -836 -287.5 -827.5 Q -289 -819 -289 -810 L -289 -762 Q -289 -753 -287.5 -744.5 Q -286 -736 -281 -728.5 Q -276 -721 -268 -717.5 Q -260 -714 -251 -714 Q -243 -714 -236 -716.5 Q -229 -719 -223.5 -724.5 Q -218 -730 -215.5 -737.5 Q -213 -745 -213 -753 L -213 -754 L -175 -754 L -175 -752 Q -175 -739 -178.5 -726.5 Q -182 -714 -190 -704 Q -198 -694 -209.5 -688 Q -221 -682 -234 -680 L -234 -663 Q -223 -661 -215 -651 Q -207 -641 -207 -630 Q -207 -622 -210 -614.5 Q -213 -607 -219.5 -602 Q -226 -597 -234 -595.5 Q -242 -594 -250 -594 Z " id="path35"/>
<path d="M -250 -597 Q -267 -597 -283.5 -604 Q -300 -611 -310 -624.5 Q -320 -638 -324 -655 Q -328 -672 -328 -689 Q -328 -705 -325.5 -720.5 Q -323 -736 -315.5 -749.5 Q -308 -763 -294.5 -771.5 Q -281 -780 -266 -780 Q -257 -780 -249 -777.5 Q -241 -775 -234 -770 Q -227 -765 -222 -758 Q -217 -751 -213 -744 Q -216 -762 -222.5 -780.5 Q -229 -799 -239.5 -815 Q -250 -831 -265 -843 Q -280 -855 -298 -861 L -286 -894 Q -257 -885 -233.5 -864.5 Q -210 -844 -196.5 -817 Q -183 -790 -177.5 -760 Q -172 -730 -172 -699 L -172 -688 Q -172 -671 -176 -654 Q -180 -637 -190.5 -623.5 Q -201 -610 -217 -603.5 Q -233 -597 -250 -597 Z M -250 -632 Q -240 -632 -231.5 -637 Q -223 -642 -218.5 -650.5 Q -214 -659 -212.5 -668.5 Q -211 -678 -211 -688 Q -211 -698 -212.5 -707.5 Q -214 -717 -218.5 -725.5 Q -223 -734 -231.5 -739.5 Q -240 -745 -250 -745 Q -260 -745 -268.5 -739.5 Q -277 -734 -281.5 -725.5 Q -286 -717 -287.5 -707.5 Q -289 -698 -289 -688 Q -289 -679 -287.5 -669 Q -286 -659 -281.5 -650.5 Q -277 -642 -268.5 -637 Q -260 -632 -250 -632 Z " id="path36"/>
<path d="M -250 -597 Q -267 -597 -283.5 -604 Q -300 -611 -310 -624.5 Q -320 -638 -324 -655 Q -328 -672 -328 -689 Q -328 -705 -325.5 -720.5 Q -323 -736 -315.5 -749.5 Q -308 -763 -294.5 -771.5 Q -281 -780 -266 -780 Q -257 -780 -249 -777.5 Q -241 -775 -234 -770 Q -227 -765 -222 -758 Q -217 -751 -213 -744 Q -216 -761 -221.5 -777.5 Q -227 -794 -236 -809 L -306 -790 L -314 -817 L -254 -833 Q -263 -843 -274.5 -850 Q -286 -857 -298 -861 L -286 -894 Q -265 -888 -246 -875 Q -227 -862 -214 -844 L -187 -851 L -179 -825 L -198 -820 Q -183 -792 -177.5 -761 Q -172 -730 -172 -699 L -172 -688 Q -172 -671 -176 -654 Q -180 -637 -190.5 -623.5 Q -201 -610 -217 -603.5 Q -233 -597 -250 -597 Z M -250 -632 Q -240 -632 -231.5 -637 Q -223 -642 -218.5 -650.5 Q -214 -659 -212.5 -668.5 Q -211 -678 -211 -688 Q -211 -698 -212.5 -707.5 Q -214 -717 -218.5 -725.5 Q -223 -734 -231.5 -739.5 Q -240 -745 -250 -745 Q -260 -745 -268.5 -739.5 Q -277 -734 -281.5 -725.5 Q -286 -717 -287.5 -707.5 Q -289 -698 -289 -688 Q -289 -679 -287.5 -669 Q -286 -659 -281.5 -650.5 Q -277 -642 -268.5 -637 Q -260 -632 -250 -632 Z " id="path37"/>
<path d="M -251 -597 Q -264 -597 -277 -599.5 Q -290 -602 -301 -609.5 Q -312 -617 -318.5 -629 Q -325 -641 -325 -654 L -287 -654 Q -286 -648 -282.5 -643 Q -279 -638 -273.5 -635.5 Q -268 -633 -262.5 -632.5 Q -257 -632 -251 -632 Q -242 -632 -234.5 -636 Q -227 -640 -222 -647 Q -217 -654 -215.5 -662.5 Q -214 -671 -214 -680 L -214 -721 Q -217 -713 -222 -705.5 Q -227 -698 -234 -692.5 Q -241 -687 -250 -685 Q -259 -683 -267 -683 Q -282 -683 -295 -690 Q -308 -697 -315.5 -710 Q -323 -723 -325.5 -737 Q -328 -751 -328 -766 L -328 -814 Q -328 -829 -325.5 -843 Q -323 -857 -315.5 -870 Q -308 -883 -295 -890 Q -282 -897 -267 -897 Q -259 -897 -250 -895 Q -241 -893 -234 -887.5 Q -227 -882 -222 -874.5 Q -217 -867 -214 -859 L -214 -894 L -176 -894 L -176 -680 Q -176 -664 -180 -648 Q -184 -632 -194 -620 Q -204 -608 -219.5 -602.5 Q -235 -597 -251 -597 Z M -252 -718 Q -243 -718 -235 -721.5 Q -227 -725 -222 -732.5 Q -217 -740 -215.5 -748.5 Q -214 -757 -214 -766 L -214 -814 Q -214 -823 -215.5 -831.5 Q -217 -840 -222 -847.5 Q -227 -855 -235 -858.5 Q -243 -862 -252 -862 Q -260 -862 -268 -858.5 Q -276 -855 -281 -847.5 Q -286 -840 -287.5 -831.5 Q -289 -823 -289 -814 L -289 -766 Q -289 -757 -287.5 -748.5 Q -286 -740 -281 -732.5 Q -276 -725 -268 -721.5 Q -260 -718 -252 -718 Z " id="path38"/>
<path d="M -267 -597 Q -282 -597 -295 -604 Q -308 -611 -315 -623 Q -322 -635 -325 -649.5 Q -328 -664 -328 -678 L -328 -730 Q -328 -746 -323.5 -761.5 Q -319 -777 -308.5 -789 Q -298 -801 -282.5 -806 Q -267 -811 -251 -811 Q -236 -811 -221.5 -807 Q -207 -803 -196 -792.5 Q -185 -782 -180 -767.5 Q -175 -753 -175 -738 L -175 -736 L -213 -736 L -213 -737 Q -213 -745 -215.5 -752.5 Q -218 -760 -223.5 -765.5 Q -229 -771 -236 -773.5 Q -243 -776 -251 -776 Q -260 -776 -268 -772.5 Q -276 -769 -281 -762 Q -286 -755 -287.5 -747 Q -289 -739 -289 -730 L -289 -678 Q -289 -670 -287.5 -661.5 Q -286 -653 -281 -646 Q -276 -639 -268 -635.5 Q -260 -632 -252 -632 Q -243 -632 -235 -635.5 Q -227 -639 -222.5 -646 Q -218 -653 -216 -661.5 Q -214 -670 -214 -678 L -214 -682 L -250 -682 L -250 -717 L -176 -717 L -176 -600 L -211 -600 L -211 -645 Q -213 -635 -218 -626 Q -223 -617 -230.5 -610 Q -238 -603 -247.5 -600 Q -257 -597 -267 -597 Z " id="path39"/>
<path d="M -318 -600 L -318 -894 L -280 -894 L -280 -715 L -216 -808 L -171 -808 L -240 -713 L -171 -600 L -214 -600 L -262 -683 L -280 -658 L -280 -600 Z " id="path40"/>
<path d="M -320 -600 L -320 -635 L -266 -635 L -266 -859 L -314 -859 L -314 -894 L -228 -894 L -228 -635 L -180 -635 L -180 -600 Z " id="path41"/>
<path d="M -312 -600 L -312 -808 L -273 -808 L -273 -635 L -173 -635 L -173 -600 Z " id="path42"/>
<path d="M -334 -600 L -334 -808 L -294 -808 L -250 -695 L -206 -808 L -166 -808 L -166 -600 L -205 -600 L -205 -642 Q -205 -674 -201.5 -705.5 Q -198 -737 -196 -769 L -237 -662 L -263 -662 L -304 -769 Q -302 -737 -298.5 -705.5 Q -295 -674 -295 -642 L -295 -600 Z " id="path43"/>
<path d="M -324 -600 L -324 -808 L -286 -808 L -286 -774 Q -283 -782 -278 -789 Q -273 -796 -266.5 -801 Q -260 -806 -251.5 -808.5 Q -243 -811 -234 -811 Q -220 -811 -207 -803.5 Q -194 -796 -187 -783.5 Q -180 -771 -178 -756.5 Q -176 -742 -176 -728 L -176 -600 L -214 -600 L -214 -728 Q -214 -737 -215.5 -745.5 Q -217 -754 -221.5 -761 Q -226 -768 -233.5 -772 Q -241 -776 -250 -776 Q -259 -776 -266.5 -772 Q -274 -768 -278.5 -761 Q -283 -754 -284.5 -745.5 Q -286 -737 -286 -728 L -286 -600 Z " id="path44"/>
<path d="M -324 -600 L -324 -808 L -283 -808 L -207 -645 Q -209 -665 -211.5 -685 Q -214 -705 -214 -725 L -214 -808 L -176 -808 L -176 -600 L -217 -600 L -293 -763 Q -291 -743 -288.5 -723 Q -286 -703 -286 -683 L -286 -600 Z " id="path45"/>
<path d="M -324 -600 L -324 -808 L -239 -808 Q -225 -808 -212 -804 Q -199 -800 -189.5 -790.5 Q -180 -781 -176 -768 Q -172 -755 -172 -742 Q -172 -731 -174.5 -721 Q -177 -711 -182.5 -702 Q -188 -693 -197 -687 Q -206 -681 -216 -678 L -166 -600 L -210 -600 L -258 -675 L -286 -675 L -286 -600 Z M -239 -710 Q -233 -710 -227 -712.5 Q -221 -715 -217.5 -719.5 Q -214 -724 -212.5 -730 Q -211 -736 -211 -742 Q -211 -748 -212.5 -754 Q -214 -760 -217.5 -764.5 Q -221 -769 -227 -771 Q -233 -773 -239 -773 L -286 -773 L -286 -710 Z " id="path46"/>
<path d="M -211 -600 L -257 -667 L -272 -667 L -272 -702 L -250 -702 Q -242 -702 -234.5 -704 Q -227 -706 -221.5 -711 Q -216 -716 -213.5 -723.5 Q -211 -731 -211 -738 Q -211 -746 -213 -753.5 Q -215 -761 -220 -766.5 Q -225 -772 -232.5 -774 Q -240 -776 -247 -776 Q -254 -776 -260 -775 Q -266 -774 -271.5 -771 Q -277 -768 -280 -762 Q -283 -756 -283 -750 L -322 -750 L -322 -751 Q -322 -764 -316 -776.5 Q -310 -789 -299 -797 Q -288 -805 -274.5 -808 Q -261 -811 -247 -811 Q -232 -811 -217.5 -807 Q -203 -803 -192.5 -792.5 Q -182 -782 -177 -767.5 Q -172 -753 -172 -738 Q -172 -728 -174.5 -717.5 Q -177 -707 -182.5 -698 Q -188 -689 -197 -682.5 Q -206 -676 -216 -672 L -166 -600 Z " id="path47"/>
<path d="M -250 -597 Q -263 -597 -276 -599.5 Q -289 -602 -300.5 -608.5 Q -312 -615 -318.5 -627 Q -325 -639 -325 -652 L -325 -654 L -287 -654 L -287 -653 Q -287 -647 -283 -642.5 Q -279 -638 -273.5 -635.5 Q -268 -633 -262 -632.5 Q -256 -632 -250 -632 Q -244 -632 -238 -632.5 Q -232 -633 -227 -635.5 Q -222 -638 -218 -643 Q -214 -648 -214 -654 Q -214 -664 -222.5 -670.5 Q -231 -677 -240 -680.5 Q -249 -684 -258.5 -687 Q -268 -690 -277 -694 Q -286 -698 -294 -704 Q -302 -710 -308 -717.5 Q -314 -725 -317.5 -734.5 Q -321 -744 -321 -754 Q -321 -767 -315 -779 Q -309 -791 -298.5 -798.5 Q -288 -806 -275 -808.5 Q -262 -811 -250 -811 Q -237 -811 -224.5 -808.5 Q -212 -806 -201 -799 Q -190 -792 -184 -780.5 Q -178 -769 -178 -756 L -178 -754 L -217 -754 L -217 -755 Q -217 -760 -220 -765 Q -223 -770 -228 -772.5 Q -233 -775 -238.5 -775.5 Q -244 -776 -250 -776 Q -255 -776 -260.5 -775.5 Q -266 -775 -271 -772 Q -276 -769 -279.5 -764 Q -283 -759 -283 -754 Q -283 -744 -274.5 -737.5 Q -266 -731 -257 -727.5 Q -248 -724 -238.5 -721 Q -229 -718 -220 -714 Q -211 -710 -203 -704 Q -195 -698 -189 -690.5 Q -183 -683 -179.5 -673.5 Q -176 -664 -176 -654 Q -176 -641 -182.5 -629 Q -189 -617 -200 -609.5 Q -211 -602 -224 -599.5 Q -237 -597 -250 -597 Z " id="path48"/>
<path d="M -294 -600 L -294 -816 Q -294 -831 -291.5 -845.5 Q -289 -860 -281 -872 Q -273 -884 -259.5 -890.5 Q -246 -897 -232 -897 Q -218 -897 -205 -891.5 Q -192 -886 -184 -875.5 Q -176 -865 -172.5 -851.5 Q -169 -838 -169 -824 L -169 -822 L -207 -822 L -207 -823 Q -207 -830 -208 -836 Q -209 -842 -212 -848 Q -215 -854 -220 -858 Q -225 -862 -232 -862 Q -239 -862 -244.5 -857 Q -250 -852 -252 -845 Q -254 -838 -255 -830.5 Q -256 -823 -256 -816 L -256 -600 Z " id="path49"/>
<path d="M -324 -600 L -324 -635 L -218 -773 L -324 -773 L -324 -808 L -176 -808 L -176 -773 L -282 -635 L -176 -635 L -176 -600 Z " id="path50"/>
<path d="M -267 -597 Q -282 -597 -295 -604 Q -308 -611 -315.5 -624 Q -323 -637 -325.5 -651 Q -328 -665 -328 -680 L -328 -728 Q -328 -743 -325.5 -757 Q -323 -771 -315.5 -784 Q -308 -797 -295 -804 Q -282 -811 -267 -811 Q -259 -811 -250 -809 Q -241 -807 -234 -801.5 Q -227 -796 -222 -788.5 Q -217 -781 -214 -773 L -214 -791 L -176 -808 L -176 -600 L -214 -600 L -214 -635 Q -217 -627 -222 -619.5 Q -227 -612 -234 -606.5 Q -241 -601 -250 -599 Q -259 -597 -267 -597 Z M -252 -632 Q -243 -632 -235 -635.5 Q -227 -639 -222 -646.5 Q -217 -654 -215.5 -662.5 Q -214 -671 -214 -680 L -214 -728 Q -214 -737 -215.5 -745.5 Q -217 -754 -222 -761.5 Q -227 -769 -235 -772.5 Q -243 -776 -252 -776 Q -260 -776 -268 -772.5 Q -276 -769 -281 -761.5 Q -286 -754 -287.5 -745.5 Q -289 -737 -289 -728 L -289 -680 Q -289 -671 -287.5 -662.5 Q -286 -654 -281 -646.5 Q -276 -639 -268 -635.5 Q -260 -632 -252 -632 Z " id="path51"/>
<path d="M -233 -597 Q -241 -597 -250 -599 Q -259 -601 -266 -606.5 Q -273 -612 -278 -619.5 Q -283 -627 -286 -635 L -286 -600 L -324 -600 L -324 -894 L -286 -894 L -286 -773 Q -283 -781 -278 -788.5 Q -273 -796 -266 -801.5 Q -259 -807 -250 -809 Q -241 -811 -233 -811 Q -218 -811 -205 -804 Q -192 -797 -184.5 -784 Q -177 -771 -174.5 -757 Q -172 -743 -172 -728 L -172 -680 Q -172 -665 -174.5 -651 Q -177 -637 -184.5 -624 Q -192 -611 -205 -604 Q -218 -597 -233 -597 Z M -248 -632 Q -240 -632 -232 -635.5 Q -224 -639 -219 -646.5 Q -214 -654 -212.5 -662.5 Q -211 -671 -211 -680 L -211 -728 Q -211 -737 -212.5 -745.5 Q -214 -754 -219 -761.5 Q -224 -769 -232 -772.5 Q -240 -776 -248 -776 Q -257 -776 -265 -772.5 Q -273 -769 -278 -761.5 Q -283 -754 -284.5 -745.5 Q -286 -737 -286 -728 L -286 -680 Q -286 -671 -284.5 -662.5 Q -283 -654 -278 -646.5 Q -273 -639 -265 -635.5 Q -257 -632 -248 -632 Z " id="path52"/>
<path d="M -324 -600 L -324 -900 Q -324 -916 -320.5 -931 Q -317 -946 -307.5 -958.5 Q -298 -971 -283.5 -977 Q -269 -983 -253 -983 Q -238 -983 -223.5 -977.5 Q -209 -972 -199.5 -960 Q -190 -948 -186 -933 Q -182 -918 -182 -903 Q -182 -885 -189 -868 Q -196 -851 -211 -842 Q -201 -837 -193 -829.5 Q -185 -822 -180.5 -812 Q -176 -802 -174 -791.5 Q -172 -781 -172 -770 Q -172 -755 -175 -740 Q -178 -725 -185 -712 Q -192 -699 -205 -691 Q -218 -683 -233 -683 Q -249 -683 -264 -690 Q -279 -697 -286 -711 L -286 -600 Z M -249 -718 Q -240 -718 -231.5 -722.5 Q -223 -727 -218.5 -735.5 Q -214 -744 -212.5 -753 Q -211 -762 -211 -771 Q -211 -781 -212.5 -790 Q -214 -799 -219 -807 Q -224 -815 -232.5 -819 Q -241 -823 -250 -823 L -264 -823 L -264 -858 L -250 -858 Q -243 -858 -236.5 -862 Q -230 -866 -226.5 -873 Q -223 -880 -222 -887 Q -221 -894 -221 -902 Q -221 -910 -222 -918 Q -223 -926 -227 -933 Q -231 -940 -238 -944 Q -245 -948 -253 -948 Q -261 -948 -268.5 -943.5 Q -276 -939 -279.5 -932 Q -283 -925 -284.5 -916.5 Q -286 -908 -286 -900 L -286 -742 Q -285 -735 -281.5 -730 Q -278 -725 -272.5 -722 Q -267 -719 -261 -718.5 Q -255 -718 -249 -718 Z " id="path53"/>
<path d="M -250 -597 Q -266 -597 -282 -602.5 Q -298 -608 -308.5 -620 Q -319 -632 -323.5 -648 Q -328 -664 -328 -680 L -328 -721 L -211 -721 L -211 -728 Q -211 -737 -213 -745.5 Q -215 -754 -220 -761.5 Q -225 -769 -233 -772.5 Q -241 -776 -250 -776 Q -256 -776 -262.5 -775 Q -269 -774 -275 -771 Q -281 -768 -284.5 -762 Q -288 -756 -288 -750 L -327 -750 Q -327 -764 -320.5 -776.5 Q -314 -789 -302.5 -797 Q -291 -805 -277.5 -808 Q -264 -811 -250 -811 Q -234 -811 -218 -805.5 Q -202 -800 -191.5 -788 Q -181 -776 -176.5 -760 Q -172 -744 -172 -728 L -172 -680 Q -172 -664 -176.5 -648 Q -181 -632 -191.5 -620 Q -202 -608 -218 -602.5 Q -234 -597 -250 -597 Z M -250 -632 Q -241 -632 -233 -635.5 Q -225 -639 -220 -646.5 Q -215 -654 -213 -662.5 Q -211 -671 -211 -680 L -211 -687 L -289 -687 L -289 -680 Q -289 -671 -287 -662.5 Q -285 -654 -280 -646.5 Q -275 -639 -267 -635.5 Q -259 -632 -250 -632 Z " id="path54"/>
<path d="M -282 -600 L -282 -756 L -324 -756 L -324 -791 L -282 -791 L -282 -832 Q -282 -844 -279 -856 Q -276 -868 -268.5 -878 Q -261 -888 -249.5 -892.5 Q -238 -897 -225 -897 Q -214 -897 -203 -893.5 Q -192 -890 -184 -882 Q -176 -874 -172.5 -863 Q -169 -852 -169 -841 L -169 -840 L -207 -840 Q -207 -848 -212 -855 Q -217 -862 -225 -862 Q -230 -862 -234 -859 Q -238 -856 -240 -851.5 Q -242 -847 -242.5 -842 Q -243 -837 -243 -832 L -243 -791 L -183 -791 L -183 -756 L -243 -756 L -243 -600 Z " id="path55"/>
<path d="M -320 -600 L -320 -635 L -266 -635 L -266 -731 L -269 -732 Q -271 -732 -273 -729 Q -275 -726 -276.5 -724.5 Q -278 -723 -280 -720.5 Q -282 -718 -283.5 -715 Q -285 -712 -287 -708.5 Q -289 -705 -291 -701 L -314 -712 Q -309 -721 -304.5 -728 Q -300 -735 -295.5 -740 Q -291 -745 -284 -750 Q -277 -755 -269 -755 L -266 -755 L -266 -781 L -269 -783 Q -271 -783 -273 -780 Q -275 -777 -276.5 -775 Q -278 -773 -280 -771 Q -282 -769 -283.5 -766 Q -285 -763 -287 -759.5 Q -289 -756 -291 -752 L -314 -762 Q -309 -772 -304.5 -779 Q -300 -786 -295.5 -791 Q -291 -796 -284 -800.5 Q -277 -805 -269 -805 L -266 -805 L -266 -859 L -314 -859 L -314 -894 L -228 -894 L -228 -775 Q -227 -775 -226 -775 L -226 -774 Q -224 -774 -221.5 -776.5 Q -219 -779 -217.5 -781 Q -216 -783 -214.5 -785.5 Q -213 -788 -211 -790.5 Q -209 -793 -207 -796.5 Q -205 -800 -203 -804 L -180 -794 Q -185 -784 -189.5 -777.5 Q -194 -771 -198.5 -765.5 Q -203 -760 -210.5 -755.5 Q -218 -751 -226 -751 L -228 -751 L -228 -725 L -226 -723 Q -221 -728 -215 -735 Q -209 -742 -203 -754 L -180 -743 Q -185 -734 -189.5 -727 Q -194 -720 -198.5 -715 Q -203 -710 -210.5 -705 Q -218 -700 -226 -700 L -228 -700 L -228 -635 L -180 -635 L -180 -600 Z " id="path56"/>
<path d="M -325 -622 L -350 -634 L -310 -708 Q -320 -720 -324 -735 Q -328 -750 -328 -766 L -328 -814 Q -328 -830 -323.5 -846 Q -319 -862 -308.5 -874 Q -298 -886 -282 -891.5 Q -266 -897 -250 -897 Q -234 -897 -218 -891.5 Q -202 -886 -191.5 -874 Q -181 -862 -176.5 -846 Q -172 -830 -172 -814 L -172 -766 Q -172 -750 -176.5 -734 Q -181 -718 -191.5 -706 Q -202 -694 -218 -688.5 Q -234 -683 -250 -683 Q -260 -683 -269.5 -684.5 Q -279 -686 -288 -690 Z M -250 -718 Q -241 -718 -233 -721.5 Q -225 -725 -220 -732.5 Q -215 -740 -213 -748.5 Q -211 -757 -211 -766 L -211 -814 Q -211 -823 -213 -831.5 Q -215 -840 -220 -847.5 Q -225 -855 -233 -858.5 Q -241 -862 -250 -862 Q -259 -862 -267 -858.5 Q -275 -855 -280 -847.5 Q -285 -840 -287 -831.5 Q -289 -823 -289 -814 L -289 -766 Q -289 -757 -287 -748.5 Q -285 -740 -280 -732.5 Q -275 -725 -267 -721.5 Q -259 -718 -250 -718 Z " id="path57"/>
<path d="M -324 -600 L -324 -894 L -286 -894 L -286 -859 Q -283 -867 -278 -874.5 Q -273 -882 -266 -887.5 Q -259 -893 -250 -895 Q -241 -897 -233 -897 Q -218 -897 -205 -890 Q -192 -883 -184.5 -870 Q -177 -857 -174.5 -843 Q -172 -829 -172 -814 L -172 -766 Q -172 -751 -174.5 -737 Q -177 -723 -184.5 -710 Q -192 -697 -205 -690 Q -218 -683 -233 -683 Q -241 -683 -250 -685 Q -259 -687 -266 -692.5 Q -273 -698 -278 -705.5 Q -283 -713 -286 -721 L -286 -600 Z M -248 -718 Q -240 -718 -232 -721.5 Q -224 -725 -219 -732.5 Q -214 -740 -212.5 -748.5 Q -211 -757 -211 -766 L -211 -814 Q -211 -823 -212.5 -831.5 Q -214 -840 -219 -847.5 Q -224 -855 -232 -858.5 Q -240 -862 -248 -862 Q -257 -862 -265 -858.5 Q -273 -855 -278 -847.5 Q -283 -840 -284.5 -831.5 Q -286 -823 -286 -814 L -286 -766 Q -286 -757 -284.5 -748.5 Q -283 -740 -278 -732.5 Q -273 -725 -265 -721.5 Q -257 -718 -248 -718 Z " id="path58"/>
<path d="M -327 -600 L -327 -635 L -308 -635 Q -299 -635 -290.5 -639 Q -282 -643 -277.5 -650.5 Q -273 -658 -271 -667 Q -269 -676 -269 -685 L -269 -895 Q -269 -911 -265 -927.5 Q -261 -944 -250.5 -956.5 Q -240 -969 -224 -974.5 Q -208 -980 -192 -980 L -173 -980 L -173 -945 L -192 -945 Q -201 -945 -209.5 -941 Q -218 -937 -222.5 -929.5 Q -227 -922 -229 -913 Q -231 -904 -231 -895 L -231 -685 Q -231 -669 -235 -652.5 Q -239 -636 -249.5 -623.5 Q -260 -611 -276 -605.5 Q -292 -600 -308 -600 Z " id="path59"/>
<path d="M -322 -627 L -350 -634 L -322 -736 Q -323 -743 -323.5 -750.5 Q -324 -758 -324 -766 L -324 -894 L -286 -894 L -286 -766 Q -286 -757 -284.5 -748.5 Q -283 -740 -278.5 -733 Q -274 -726 -266.5 -722 Q -259 -718 -250 -718 Q -241 -718 -233.5 -722 Q -226 -726 -221.5 -733 Q -217 -740 -215.5 -748.5 Q -214 -757 -214 -766 L -214 -894 L -176 -894 L -176 -686 L -214 -686 L -214 -720 Q -217 -712 -222 -705 Q -227 -698 -233.5 -693 Q -240 -688 -248.5 -685.5 Q -257 -683 -266 -683 Q -276 -683 -286 -686.5 Q -296 -690 -303 -697 Z " id="path60"/>
<path d="M -305 -600 L -340 -808 L -301 -808 L -287 -635 L -266 -750 L -234 -750 L -213 -635 L -199 -808 L -160 -808 L -195 -600 L -227 -600 L -250 -710 L -273 -600 Z " id="path61"/>
<path d="M -210 -840 Q -216 -840 -221.5 -841.5 Q -227 -843 -231 -847 Q -235 -851 -236.5 -856.5 Q -238 -862 -238 -868 Q -238 -874 -236.5 -879.5 Q -235 -885 -231 -889 Q -227 -893 -221.5 -894.5 Q -216 -896 -210 -896 Q -204 -896 -198.5 -894.5 Q -193 -893 -189 -889 Q -185 -885 -183.5 -879.5 Q -182 -874 -182 -868 Q -182 -862 -183.5 -856.5 Q -185 -851 -189 -847 Q -193 -843 -198.5 -841.5 Q -204 -840 -210 -840 Z M -290 -840 Q -296 -840 -301.5 -841.5 Q -307 -843 -311 -847 Q -315 -851 -316.5 -856.5 Q -318 -862 -318 -868 Q -318 -874 -316.5 -879.5 Q -315 -885 -311 -889 Q -307 -893 -301.5 -894.5 Q -296 -896 -290 -896 Q -284 -896 -278.5 -894.5 Q -273 -893 -269 -889 Q -265 -885 -263.5 -879.5 Q -262 -874 -262 -868 Q -262 -862 -263.5 -856.5 Q -265 -851 -269 -847 Q -273 -843 -278.5 -841.5 Q -284 -840 -290 -840 Z M -267 -597 Q -280 -597 -291.5 -600.5 Q -303 -604 -311.5 -613 Q -320 -622 -324 -633.5 Q -328 -645 -328 -658 Q -328 -673 -321 -687.5 Q -314 -702 -301.5 -710.5 Q -289 -719 -273.5 -722 Q -258 -725 -243 -725 L -214 -725 L -214 -743 Q -214 -750 -216.5 -757 Q -219 -764 -224.5 -768.5 Q -230 -773 -236.5 -774.5 Q -243 -776 -250 -776 Q -257 -776 -263 -775 Q -269 -774 -274.5 -771 Q -280 -768 -283.5 -762.5 Q -287 -757 -287 -751 L -287 -750 L -325 -750 L -325 -752 Q -325 -765 -319 -777.5 Q -313 -790 -302 -797.5 Q -291 -805 -277.5 -808 Q -264 -811 -250 -811 Q -236 -811 -222 -807.5 Q -208 -804 -197 -794.5 Q -186 -785 -181 -771.5 Q -176 -758 -176 -743 L -176 -600 L -214 -600 L -214 -631 Q -217 -623 -222.5 -616.5 Q -228 -610 -235 -605.5 Q -242 -601 -250.5 -599 Q -259 -597 -267 -597 Z M -252 -632 Q -244 -632 -236.5 -634.5 Q -229 -637 -223.5 -643 Q -218 -649 -216 -656.5 Q -214 -664 -214 -672 L -214 -690 L -243 -690 Q -250 -690 -258 -689 Q -266 -688 -273 -685 Q -280 -682 -284.5 -675.5 Q -289 -669 -289 -661 Q -289 -655 -286 -648.5 Q -283 -642 -277.5 -638 Q -272 -634 -265.5 -633 Q -259 -632 -252 -632 Z " id="path62"/>
<path d="M -210 -840 Q -216 -840 -221.5 -841.5 Q -227 -843 -231 -847 Q -235 -851 -236.5 -856.5 Q -238 -862 -238 -868 Q -238 -874 -236.5 -879.5 Q -235 -885 -231 -889 Q -227 -893 -221.5 -894.5 Q -216 -896 -210 -896 Q -204 -896 -198.5 -894.5 Q -193 -893 -189 -889 Q -185 -885 -183.5 -879.5 Q -182 -874 -182 -868 Q -182 -862 -183.5 -856.5 Q -185 -851 -189 -847 Q -193 -843 -198.5 -841.5 Q -204 -840 -210 -840 Z M -290 -840 Q -296 -840 -301.5 -841.5 Q -307 -843 -311 -847 Q -315 -851 -316.5 -856.5 Q -318 -862 -318 -868 Q -318 -874 -316.5 -879.5 Q -315 -885 -311 -889 Q -307 -893 -301.5 -894.5 Q -296 -896 -290 -896 Q -284 -896 -278.5 -894.5 Q -273 -893 -269 -889 Q -265 -885 -263.5 -879.5 Q -262 -874 -262 -868 Q -262 -862 -263.5 -856.5 Q -265 -851 -269 -847 Q -273 -843 -278.5 -841.5 Q -284 -840 -290 -840 Z M -250 -597 Q -266 -597 -282 -602.5 Q -298 -608 -308.5 -620 Q -319 -632 -323.5 -648 Q -328 -664 -328 -680 L -328 -728 Q -328 -744 -323.5 -760 Q -319 -776 -308.5 -788 Q -298 -800 -282 -805.5 Q -266 -811 -250 -811 Q -234 -811 -218 -805.5 Q -202 -800 -191.5 -788 Q -181 -776 -176.5 -760 Q -172 -744 -172 -728 L -172 -680 Q -172 -664 -176.5 -648 Q -181 -632 -191.5 -620 Q -202 -608 -218 -602.5 Q -234 -597 -250 -597 Z M -250 -632 Q -241 -632 -233 -635.5 Q -225 -639 -220 -646.5 Q -215 -654 -213 -662.5 Q -211 -671 -211 -680 L -211 -728 Q -211 -737 -213 -745.5 Q -215 -754 -220 -761.5 Q -225 -769 -233 -772.5 Q -241 -776 -250 -776 Q -259 -776 -267 -772.5 Q -275 -769 -280 -761.5 Q -285 -754 -287 -745.5 Q -289 -737 -289 -728 L -289 -680 Q -289 -671 -287 -662.5 Q -285 -654 -280 -646.5 Q -275 -639 -267 -635.5 Q -259 -632 -250 -632 Z " id="path63"/>
<path d="M -210 -840 Q -216 -840 -221.5 -841.5 Q -227 -843 -231 -847 Q -235 -851 -236.5 -856.5 Q -238 -862 -238 -868 Q -238 -874 -236.5 -879.5 Q -235 -885 -231 -889 Q -227 -893 -221.5 -894.5 Q -216 -896 -210 -896 Q -204 -896 -198.5 -894.5 Q -193 -893 -189 -889 Q -185 -885 -183.5 -879.5 Q -182 -874 -182 -868 Q -182 -862 -183.5 -856.5 Q -185 -851 -189 -847 Q -193 -843 -198.5 -841.5 Q -204 -840 -210 -840 Z M -290 -840 Q -296 -840 -301.5 -841.5 Q -307 -843 -311 -847 Q -315 -851 -316.5 -856.5 Q -318 -862 -318 -868 Q -318 -874 -316.5 -879.5 Q -315 -885 -311 -889 Q -307 -893 -301.5 -894.5 Q -296 -896 -290 -896 Q -284 -896 -278.5 -894.5 Q -273 -893 -269 -889 Q -265 -885 -263.5 -879.5 Q -262 -874 -262 -868 Q -262 -862 -263.5 -856.5 Q -265 -851 -269 -847 Q -273 -843 -278.5 -841.5 Q -284 -840 -290 -840 Z M -266 -597 Q -280 -597 -293 -604.5 Q -306 -612 -313 -624.5 Q -320 -637 -322 -651.5 Q -324 -666 -324 -680 L -324 -808 L -286 -808 L -286 -680 Q -286 -671 -284.5 -662.5 Q -283 -654 -278.5 -647 Q -274 -640 -266.5 -636 Q -259 -632 -250 -632 Q -241 -632 -233.5 -636 Q -226 -640 -221.5 -647 Q -217 -654 -215.5 -662.5 Q -214 -671 -214 -680 L -214 -808 L -176 -808 L -176 -600 L -214 -600 L -214 -634 Q -217 -626 -222 -619 Q -227 -612 -233.5 -607 Q -240 -602 -248.5 -599.5 Q -257 -597 -266 -597 Z " id="path64"/>
<path d="M -350 -600 L -350 -661 L -284 -661 L -284 -740 L -216 -740 L -216 -661 L -150 -661 L -150 -600 Z " id="path65"/>
<path d="M 0 -600 Q -29 -600 -58 -607.5 Q -87 -615 -108.5 -634.5 Q -130 -654 -140 -682.5 Q -150 -711 -150 -740 L -75 -740 Q -75 -725 -70.5 -710.5 Q -66 -696 -55 -686 Q -44 -676 -29.5 -671.5 Q -15 -667 0 -667 Q 15 -667 29.5 -671.5 Q 44 -676 55 -686 Q 66 -696 70.5 -710.5 Q 75 -725 75 -740 L 150 -740 Q 150 -711 140 -682.5 Q 130 -654 108.5 -634.5 Q 87 -615 58 -607.5 Q 29 -600 0 -600 Z " id="path66"/>
<path d="M -45 -559 Q -57 -559 -68 -562.5 Q -79 -566 -87 -574 Q -95 -582 -98.5 -593 Q -102 -604 -102 -616 Q -102 -627 -98.5 -638 Q -95 -649 -87 -657.5 Q -79 -666 -68 -669 Q -57 -672 -45 -672 Q -34 -672 -23 -669 Q -12 -666 -3.5 -657.5 Q 5 -649 8 -638 Q 11 -627 11 -616 Q 11 -604 8 -593 Q 5 -582 -3.5 -574 Q -12 -566 -23 -562.5 Q -34 -559 -45 -559 Z " id="path67"/>
<path d="M -470 220 L -470 80 L -402 80 L -402 159 L -98 159 L -98 80 L -30 80 L -30 220 Z " id="path68"/>
<path d="M -45 152 Q -57 152 -68 149 Q -79 146 -87 137.5 Q -95 129 -98.5 118 Q -102 107 -102 96 Q -102 84 -98.5 73 Q -95 62 -87 54 Q -79 46 -68 42.5 Q -57 39 -45 39 Q -34 39 -23 42.5 Q -12 46 -3.5 54 Q 5 62 8 73 Q 11 84 11 96 Q 11 107 8 118 Q 5 129 -3.5 137.5 Q -12 146 -23 149 Q -34 152 -45 152 Z " id="path69"/>
<path d="M -228 -600 L -172 -740 L -128 -740 L -192 -600 Z M -298 -600 L -242 -740 L -198 -740 L -261 -600 Z M -368 -600 L -312 -740 L -268 -740 L -331 -600 Z " id="path70"/>
<path d="M -354 558 L -396 502 Q -352 473 -304.5 449.5 Q -257 426 -207 409 Q -157 392 -105 383 Q -53 374 0 374 Q 53 374 105 383 Q 157 392 207 409 Q 257 426 304.5 449.5 Q 352 473 396 502 L 354 558 Q 315 532 272.5 510.5 Q 230 489 185.5 473.5 Q 141 458 94 449.5 Q 47 441 0 441 Q -47 441 -94 449.5 Q -141 458 -185.5 473.5 Q -230 489 -272.5 510.5 Q -315 532 -354 558 Z " id="path71"/>
<path d="M -192 248 Q -198 248 -204 247 Q -210 246 -215.5 244 Q -221 242 -226 240 Q -231 238 -235.5 235 Q -240 232 -245 228.5 Q -250 225 -254.5 221 Q -259 217 -262.5 214 Q -266 211 -271 206 Q -276 201 -280.5 197 Q -285 193 -289 189.5 Q -293 186 -298.5 183 Q -304 180 -308 180 Q -311 180 -312 180 Q -313 180 -315.5 181.5 Q -318 183 -321 184.5 Q -324 186 -328 189.5 Q -332 193 -333 194 Q -334 195 -335.5 196.5 Q -337 198 -339 199.5 Q -341 201 -342.5 203 Q -344 205 -346 207 Q -348 209 -350 211 Q -352 213 -354 215.5 Q -356 218 -358 221 Q -360 224 -362 226.5 Q -364 229 -366 232 Q -368 235 -370.5 238.5 Q -373 242 -375 245 L -425 215 Q -416 202 -407.5 191 Q -399 180 -391 171 Q -383 162 -374.5 154.5 Q -366 147 -355 140 Q -344 133 -332.5 129.5 Q -321 126 -308 126 Q -302 126 -296 127 Q -290 128 -284.5 129.5 Q -279 131 -274 133.5 Q -269 136 -264.5 138.5 Q -260 141 -255 145 Q -250 149 -245.5 152.5 Q -241 156 -237.5 159.5 Q -234 163 -229 167.5 Q -224 172 -219.5 176.5 Q -215 181 -211 184 Q -207 187 -201.5 190.5 Q -196 194 -192 194 Q -189 194 -188 193.5 Q -187 193 -184.5 192 Q -182 191 -179 189 Q -176 187 -172 184 Q -168 181 -167 180 Q -166 179 -164.5 177.5 Q -163 176 -161 174 Q -159 172 -157.5 170.5 Q -156 169 -154 166.5 Q -152 164 -150 162 Q -148 160 -146 157.5 Q -144 155 -142 152.5 Q -140 150 -138 147 Q -136 144 -134 141 Q -132 138 -129.5 134.5 Q -127 131 -125 128 L -75 158 Q -84 171 -92.5 182 Q -101 193 -109 202 Q -117 211 -125.5 218.5 Q -134 226 -145 233 Q -156 240 -167.5 244 Q -179 248 -192 248 Z M -192 143 Q -198 143 -204 142 Q -210 141 -215.5 139 Q -221 137 -226 135 Q -231 133 -235.5 130 Q -240 127 -245 123.5 Q -250 120 -254.5 116 Q -259 112 -262.5 109 Q -266 106 -271 101 Q -276 96 -280.5 92 Q -285 88 -289 84.5 Q -293 81 -298.5 78 Q -304 75 -308 75 Q -311 75 -312 75.5 Q -313 76 -315.5 77 Q -318 78 -321 80 Q -324 82 -328 85 Q -332 88 -333 89 Q -334 90 -335.5 91.5 Q -337 93 -339 94.5 Q -341 96 -342.5 98 Q -344 100 -346 102 Q -348 104 -350 106.5 Q -352 109 -354 111.5 Q -356 114 -358 116.5 Q -360 119 -362 122 Q -364 125 -366 128 Q -368 131 -370.5 134 Q -373 137 -375 141 L -425 111 Q -416 97 -407.5 86 Q -399 75 -391 66.5 Q -383 58 -374.5 50 Q -366 42 -355 35 Q -344 28 -332.5 24.5 Q -321 21 -308 21 Q -302 21 -296 22 Q -290 23 -284.5 24.5 Q -279 26 -274 28.5 Q -269 31 -264.5 33.5 Q -260 36 -255 40 Q -250 44 -245.5 48 Q -241 52 -237.5 55 Q -234 58 -229 62.5 Q -224 67 -219.5 71.5 Q -215 76 -211 79 Q -207 82 -201.5 85.5 Q -196 89 -192 89 Q -189 89 -188 88.5 Q -187 88 -184.5 87 Q -182 86 -179 84 Q -176 82 -172 79 Q -168 76 -167 75 Q -166 74 -164.5 72.5 Q -163 71 -161 69.5 Q -159 68 -157.5 66 Q -156 64 -154 62 Q -152 60 -150 57.5 Q -148 55 -146 52.5 Q -144 50 -142 47.5 Q -140 45 -138 42 Q -136 39 -134 36 Q -132 33 -129.5 30 Q -127 27 -125 23 L -75 53 Q -84 66 -92.5 77 Q -101 88 -109 97 Q -117 106 -125.5 113.5 Q -134 121 -145 128 Q -156 135 -167.5 139 Q -179 143 -192 143 Z " id="path72"/>
<path d="M -161 -571 L -350 -644 L -350 -696 L -161 -769 L -139 -711 L -268 -670 L -139 -629 Z " id="path73"/>
<path d="M -439 249 L -461 191 L -332 150 L -461 109 L -439 51 L -250 124 L -250 176 Z M -190 220 L -277 98 L -223 62 L -150 164 L -77 62 L -23 98 L -110 220 Z " id="path74"/>
</defs>
<g>
<g data-source-text="0" fill="#20242e" transform="translate(174 41.292) rotate(0) scale(0.023999998)">
<use href="#path1" transform="translate(0 0)"/>
</g>
</g>
<g>
<g data-source-text="1" fill="#20242e" transform="translate(246 41.292) rotate(0) scale(0.023999998)">
<use href="#path2" transform="translate(0 0)"/>
</g>
</g>
<g>
<g data-source-text="2" fill="#20242e" transform="translate(318 41.292) rotate(0) scale(0.023999998)">
<use href="#path3" transform="translate(0 0)"/>
</g>
</g>
<g>
<g data-source-text="3" fill="#20242e" transform="translate(390 41.292) rotate(0) scale(0.023999998)">
<use href="#path4" transform="translate(0 0)"/>
</g>
</g>
<g>
<g data-source-text="4" fill="#20242e" transform="translate(462 41.292) rotate(0) scale(0.023999998)">
<use href="#path5" transform="translate(0 0)"/>
</g>
</g>
<g>
<g data-source-text="5" fill="#20242e" transform="translate(534 41.292) rotate(0) scale(0.023999998)">
<use href="#path6" transform="translate(0 0)"/>
</g>
</g>
<g>
<g data-source-text="6" fill="#20242e" transform="translate(606 41.292) rotate(0) scale(0.023999998)">
<use href="#path7" transform="translate(0 0)"/>
</g>
</g>
<g>
<g data-source-text="7" fill="#20242e" transform="translate(678 41.292) rotate(0) scale(0.023999998)">
<use href="#path8" transform="translate(0 0)"/>
</g>
</g>
<g>
<g data-source-text="8" fill="#20242e" transform="translate(750 41.292) rotate(0) scale(0.023999998)">
<use href="#path9" transform="translate(0 0)"/>
</g>
</g>
<g>
<g data-source-text="9" fill="#20242e" transform="translate(822 41.292) rotate(0) scale(0.023999998)">
<use href="#path10" transform="translate(0 0)"/>
</g>
</g>
<g>
<g data-source-text="A" fill="#20242e" transform="translate(894 41.292) rotate(0) scale(0.023999998)">
<use href="#path11" transform="translate(0 0)"/>
</g>
</g>
<g>
<g data-source-text="B" fill="#20242e" transform="translate(966 41.292) rotate(0) scale(0.023999998)">
<use href="#path12" transform="translate(0 0)"/>
</g>
</g>
<g>
<g data-source-text="C" fill="#20242e" transform="translate(1038 41.292) rotate(0) scale(0.023999998)">
<use href="#path13" transform="translate(0 0)"/>
</g>
</g>
<g>
<g data-source-text="D" fill="#20242e" transform="translate(1110 41.292) rotate(0) scale(0.023999998)">
<use href="#path14" transform="translate(0 0)"/>
</g>
</g>
<g>
<g data-source-text="E" fill="#20242e" transform="translate(1182 41.292) rotate(0) scale(0.023999998)">
<use href="#path15" transform="translate(0 0)"/>
</g>
</g>
<g>
<g data-source-text="F" fill="#20242e" transform="translate(1254 41.292) rotate(0) scale(0.023999998)">
<use href="#path16" transform="translate(0 0)"/>
</g>
</g>
<g>
<g data-source-text="U+1DC0" fill="#20242e" transform="translate(36 113.292) rotate(0) scale(0.023999998)">
<use href="#path17" transform="translate(0 0)"/>
<use href="#path18" transform="translate(500 0)"/>
<use href="#path2" transform="translate(1000 0)"/>
<use href="#path14" transform="translate(1500 0)"/>
<use href="#path13" transform="translate(2000 0)"/>
<use href="#path1" transform="translate(2500 0)"/>
</g>
</g>
<g>
<g data-source-text="" fill="#20242e40" transform="translate(168 118.584) rotate(0) scale(0.047999997)">
<use href="#path19" transform="translate(0 0)"/>
</g>
</g>
<g>
<g data-source-text="" fill="#20242e40" transform="translate(240 118.584) rotate(0) scale(0.047999997)">
<use href="#path19" transform="translate(0 0)"/>
</g>
</g>
<g>
<g data-source-text="" fill="#20242e40" transform="translate(312 118.584) rotate(0) scale(0.047999997)">
<use href="#path19" transform="translate(0 0)"/>
</g>
</g>
<g>
<g data-source-text="" fill="#048fbf" transform="translate(384 118.584) rotate(0) scale(0.047999997)">
<use href="#path20" transform="translate(0 0)"/>
</g>
</g>
<g>
<g data-source-text="" fill="#20242e" transform="translate(384 118.584) rotate(0) scale(0.047999997)">
<use href="#path19" transform="translate(0 0)"/>
<use href="#path21" transform="translate(500 0)"/>
</g>
</g>
<g>
<g data-source-text="" fill="#048fbf" transform="translate(456 118.584) rotate(0) scale(0.047999997)">
<use href="#path20" transform="translate(0 0)"/>
</g>
</g>
<g>
<g data-source-text="" fill="#20242e" transform="translate(456 118.584) rotate(0) scale(0.047999997)">
<use href="#path19" transform="translate(0 0)"/>
<use href="#path22" transform="translate(500 0)"/>
</g>
</g>
<g>
<g data-source-text="" fill="#048fbf" transform="translate(528 118.584) rotate(0) scale(0.047999997)">
<use href="#path20" transform="translate(0 0)"/>
</g>
</g>
<g>
<g data-source-text="" fill="#20242e" transform="translate(528 118.584) rotate(0) scale(0.047999997)">
<use href="#path19" transform="translate(0 0)"/>
<use href="#path23" transform="translate(500 0)"/>
</g>
</g>
<g>
<g data-source-text="" fill="#048fbf" transform="translate(600 118.584) rotate(0) scale(0.047999997)">
<use href="#path20" transform="translate(0 0)"/>
</g>
</g>
<g>
<g data-source-text="" fill="#20242e" transform="translate(600 118.584) rotate(0) scale(0.047999997)">
<use href="#path19" transform="translate(0 0)"/>
<use href="#path24" transform="translate(500 0)"/>
</g>
</g>
<g>
<g data-source-text="" fill="#048fbf" transform="translate(672 118.584) rotate(0) scale(0.047999997)">
<use href="#path20" transform="translate(0 0)"/>
</g>
</g>
<g>
<g data-source-text="" fill="#20242e" transform="translate(672 118.584) rotate(0) scale(0.047999997)">
<use href="#path19" transform="translate(0 0)"/>
<use href="#path25" transform="translate(500 0)"/>
</g>
</g>
<g>
<g data-source-text="" fill="#20242e40" transform="translate(744 118.584) rotate(0) scale(0.047999997)">
<use href="#path19" transform="translate(0 0)"/>
</g>
</g>
<g>
<g data-source-text="" fill="#20242e40" transform="translate(816 118.584) rotate(0) scale(0.047999997)">
<use href="#path19" transform="translate(0 0)"/>
</g>
</g>
<g>
<g data-source-text="" fill="#048fbf" transform="translate(888 118.584) rotate(0) scale(0.047999997)">
<use href="#path20" transform="translate(0 0)"/>
</g>
</g>
<g>
<g data-source-text="" fill="#20242e" transform="translate(888 118.584) rotate(0) scale(0.047999997)">
<use href="#path19" transform="translate(0 0)"/>
<use href="#path26" transform="translate(500 0)"/>
</g>
</g>
<g>
<g data-source-text="" fill="#048fbf" transform="translate(960 118.584) rotate(0) scale(0.047999997)">
<use href="#path20" transform="translate(0 0)"/>
</g>
</g>
<g>
<g data-source-text="" fill="#20242e" transform="translate(960 118.584) rotate(0) scale(0.047999997)">
<use href="#path19" transform="translate(0 0)"/>
<use href="#path27" transform="translate(500 0)"/>
</g>
</g>
<g>
<g data-source-text="" fill="#048fbf" transform="translate(1032 118.584) rotate(0) scale(0.047999997)">
<use href="#path20" transform="translate(0 0)"/>
</g>
</g>
<g>
<g data-source-text="" fill="#20242e" transform="translate(1032 118.584) rotate(0) scale(0.047999997)">
<use href="#path19" transform="translate(0 0)"/>
<use href="#path28" transform="translate(500 0)"/>
</g>
</g>
<g>
<g data-source-text="" fill="#048fbf" transform="translate(1104 118.584) rotate(0) scale(0.047999997)">
<use href="#path20" transform="translate(0 0)"/>
</g>
</g>
<g>
<g data-source-text="" fill="#20242e" transform="translate(1104 118.584) rotate(0) scale(0.047999997)">
<use href="#path19" transform="translate(0 0)"/>
<use href="#path29" transform="translate(500 0)"/>
</g>
</g>
<g>
<g data-source-text="" fill="#048fbf" transform="translate(1176 118.584) rotate(0) scale(0.047999997)">
<use href="#path20" transform="translate(0 0)"/>
</g>
</g>
<g>
<g data-source-text="" fill="#20242e" transform="translate(1176 118.584) rotate(0) scale(0.047999997)">
<use href="#path19" transform="translate(0 0)"/>
<use href="#path30" transform="translate(500 0)"/>
</g>
</g>
<g>
<g data-source-text="" fill="#048fbf" transform="translate(1248 118.584) rotate(0) scale(0.047999997)">
<use href="#path20" transform="translate(0 0)"/>
</g>
</g>
<g>
<g data-source-text="" fill="#20242e" transform="translate(1248 118.584) rotate(0) scale(0.047999997)">
<use href="#path19" transform="translate(0 0)"/>
<use href="#path31" transform="translate(500 0)"/>
</g>
</g>
<g>
<g data-source-text="U+1DD0" fill="#20242e" transform="translate(36 185.292) rotate(0) scale(0.023999998)">
<use href="#path17" transform="translate(0 0)"/>
<use href="#path18" transform="translate(500 0)"/>
<use href="#path2" transform="translate(1000 0)"/>
<use href="#path14" transform="translate(1500 0)"/>
<use href="#path14" transform="translate(2000 0)"/>
<use href="#path1" transform="translate(2500 0)"/>
</g>
</g>
<g>
<g data-source-text="" fill="#20242e40" transform="translate(168 190.584) rotate(0) scale(0.047999997)">
<use href="#path19" transform="translate(0 0)"/>
</g>
</g>
<g>
<g data-source-text="" fill="#20242e40" transform="translate(240 190.584) rotate(0) scale(0.047999997)">
<use href="#path19" transform="translate(0 0)"/>
</g>
</g>
<g>
<g data-source-text="" fill="#20242e40" transform="translate(312 190.584) rotate(0) scale(0.047999997)">
<use href="#path19" transform="translate(0 0)"/>
</g>
</g>
<g>
<g data-source-text="" fill="#048fbf" transform="translate(384 190.584) rotate(0) scale(0.047999997)">
<use href="#path20" transform="translate(0 0)"/>
</g>
</g>
<g>
<g data-source-text="" fill="#20242e" transform="translate(384 190.584) rotate(0) scale(0.047999997)">
<use href="#path19" transform="translate(0 0)"/>
<use href="#path32" transform="translate(500 0)"/>
</g>
</g>
<g>
<g data-source-text="" fill="#048fbf" transform="translate(456 190.584) rotate(0) scale(0.047999997)">
<use href="#path20" transform="translate(0 0)"/>
</g>
</g>
<g>
<g data-source-text="" fill="#20242e" transform="translate(456 190.584) rotate(0) scale(0.047999997)">
<use href="#path19" transform="translate(0 0)"/>
<use href="#path33" transform="translate(500 0)"/>
</g>
</g>
<g>
<g data-source-text="" fill="#048fbf" transform="translate(528 190.584) rotate(0) scale(0.047999997)">
<use href="#path20" transform="translate(0 0)"/>
</g>
</g>
<g>
<g data-source-text="" fill="#20242e" transform="translate(528 190.584) rotate(0) scale(0.047999997)">
<use href="#path19" transform="translate(0 0)"/>
<use href="#path34" transform="translate(500 0)"/>
</g>
</g>
<g>
<g data-source-text="" fill="#20242e40" transform="translate(600 190.584) rotate(0) scale(0.047999997)">
<use href="#path19" transform="translate(0 0)"/>
</g>
</g>
<g>
<g data-source-text="" fill="#048fbf" transform="translate(672 190.584) rotate(0) scale(0.047999997)">
<use href="#path20" transform="translate(0 0)"/>
</g>
</g>
<g>
<g data-source-text="" fill="#20242e" transform="translate(672 190.584) rotate(0) scale(0.047999997)">
<use href="#path19" transform="translate(0 0)"/>
<use href="#path35" transform="translate(500 0)"/>
</g>
</g>
<g>
<g data-source-text="" fill="#048fbf" transform="translate(744 190.584) rotate(0) scale(0.047999997)">
<use href="#path20" transform="translate(0 0)"/>
</g>
</g>
<g>
<g data-source-text="" fill="#20242e" transform="translate(744 190.584) rotate(0) scale(0.047999997)">
<use href="#path19" transform="translate(0 0)"/>
<use href="#path36" transform="translate(500 0)"/>
</g>
</g>
<g>
<g data-source-text="" fill="#048fbf" transform="translate(816 190.584) rotate(0) scale(0.047999997)">
<use href="#path20" transform="translate(0 0)"/>
</g>
</g>
<g>
<g data-source-text="" fill="#20242e" transform="translate(816 190.584) rotate(0) scale(0.047999997)">
<use href="#path19" transform="translate(0 0)"/>
<use href="#path37" transform="translate(500 0)"/>
</g>
</g>
<g>
<g data-source-text="" fill="#048fbf" transform="translate(888 190.584) rotate(0) scale(0.047999997)">
<use href="#path20" transform="translate(0 0)"/>
</g>
</g>
<g>
<g data-source-text="" fill="#20242e" transform="translate(888 190.584) rotate(0) scale(0.047999997)">
<use href="#path19" transform="translate(0 0)"/>
<use href="#path38" transform="translate(500 0)"/>
</g>
</g>
<g>
<g data-source-text="" fill="#048fbf" transform="translate(960 190.584) rotate(0) scale(0.047999997)">
<use href="#path20" transform="translate(0 0)"/>
</g>
</g>
<g>
<g data-source-text="" fill="#20242e" transform="translate(960 190.584) rotate(0) scale(0.047999997)">
<use href="#path19" transform="translate(0 0)"/>
<use href="#path39" transform="translate(500 0)"/>
</g>
</g>
<g>
<g data-source-text="" fill="#048fbf" transform="translate(1032 190.584) rotate(0) scale(0.047999997)">
<use href="#path20" transform="translate(0 0)"/>
</g>
</g>
<g>
<g data-source-text="" fill="#20242e" transform="translate(1032 190.584) rotate(0) scale(0.047999997)">
<use href="#path19" transform="translate(0 0)"/>
<use href="#path40" transform="translate(500 0)"/>
</g>
</g>
<g>
<g data-source-text="" fill="#048fbf" transform="translate(1104 190.584) rotate(0) scale(0.047999997)">
<use href="#path20" transform="translate(0 0)"/>
</g>
</g>
<g>
<g data-source-text="" fill="#20242e" transform="translate(1104 190.584) rotate(0) scale(0.047999997)">
<use href="#path19" transform="translate(0 0)"/>
<use href="#path41" transform="translate(500 0)"/>
</g>
</g>
<g>
<g data-source-text="" fill="#048fbf" transform="translate(1176 190.584) rotate(0) scale(0.047999997)">
<use href="#path20" transform="translate(0 0)"/>
</g>
</g>
<g>
<g data-source-text="" fill="#20242e" transform="translate(1176 190.584) rotate(0) scale(0.047999997)">
<use href="#path19" transform="translate(0 0)"/>
<use href="#path42" transform="translate(500 0)"/>
</g>
</g>
<g>
<g data-source-text="" fill="#048fbf" transform="translate(1248 190.584) rotate(0) scale(0.047999997)">
<use href="#path20" transform="translate(0 0)"/>
</g>
</g>
<g>
<g data-source-text="" fill="#20242e" transform="translate(1248 190.584) rotate(0) scale(0.047999997)">
<use href="#path19" transform="translate(0 0)"/>
<use href="#path43" transform="translate(500 0)"/>
</g>
</g>
<g>
<g data-source-text="U+1DE0" fill="#20242e" transform="translate(36 257.292) rotate(0) scale(0.023999998)">
<use href="#path17" transform="translate(0 0)"/>
<use href="#path18" transform="translate(500 0)"/>
<use href="#path2" transform="translate(1000 0)"/>
<use href="#path14" transform="translate(1500 0)"/>
<use href="#path15" transform="translate(2000 0)"/>
<use href="#path1" transform="translate(2500 0)"/>
</g>
</g>
<g>
<g data-source-text="" fill="#048fbf" transform="translate(168 262.584) rotate(0) scale(0.047999997)">
<use href="#path20" transform="translate(0 0)"/>
</g>
</g>
<g>
<g data-source-text="" fill="#20242e" transform="translate(168 262.584) rotate(0) scale(0.047999997)">
<use href="#path19" transform="translate(0 0)"/>
<use href="#path44" transform="translate(500 0)"/>
</g>
</g>
<g>
<g data-source-text="" fill="#048fbf" transform="translate(240 262.584) rotate(0) scale(0.047999997)">
<use href="#path20" transform="translate(0 0)"/>
</g>
</g>
<g>
<g data-source-text="" fill="#20242e" transform="translate(240 262.584) rotate(0) scale(0.047999997)">
<use href="#path19" transform="translate(0 0)"/>
<use href="#path45" transform="translate(500 0)"/>
</g>
</g>
<g>
<g data-source-text="" fill="#048fbf" transform="translate(312 262.584) rotate(0) scale(0.047999997)">
<use href="#path20" transform="translate(0 0)"/>
</g>
</g>
<g>
<g data-source-text="" fill="#20242e" transform="translate(312 262.584) rotate(0) scale(0.047999997)">
<use href="#path19" transform="translate(0 0)"/>
<use href="#path46" transform="translate(500 0)"/>
</g>
</g>
<g>
<g data-source-text="" fill="#048fbf" transform="translate(384 262.584) rotate(0) scale(0.047999997)">
<use href="#path20" transform="translate(0 0)"/>
</g>
</g>
<g>
<g data-source-text="" fill="#20242e" transform="translate(384 262.584) rotate(0) scale(0.047999997)">
<use href="#path19" transform="translate(0 0)"/>
<use href="#path47" transform="translate(500 0)"/>
</g>
</g>
<g>
<g data-source-text="" fill="#048fbf" transform="translate(456 262.584) rotate(0) scale(0.047999997)">
<use href="#path20" transform="translate(0 0)"/>
</g>
</g>
<g>
<g data-source-text="" fill="#20242e" transform="translate(456 262.584) rotate(0) scale(0.047999997)">
<use href="#path19" transform="translate(0 0)"/>
<use href="#path48" transform="translate(500 0)"/>
</g>
</g>
<g>
<g data-source-text="" fill="#048fbf" transform="translate(528 262.584) rotate(0) scale(0.047999997)">
<use href="#path20" transform="translate(0 0)"/>
</g>
</g>
<g>
<g data-source-text="" fill="#20242e" transform="translate(528 262.584) rotate(0) scale(0.047999997)">
<use href="#path19" transform="translate(0 0)"/>
<use href="#path49" transform="translate(500 0)"/>
</g>
</g>
<g>
<g data-source-text="" fill="#048fbf" transform="translate(600 262.584) rotate(0) scale(0.047999997)">
<use href="#path20" transform="translate(0 0)"/>
</g>
</g>
<g>
<g data-source-text="" fill="#20242e" transform="translate(600 262.584) rotate(0) scale(0.047999997)">
<use href="#path19" transform="translate(0 0)"/>
<use href="#path50" transform="translate(500 0)"/>
</g>
</g>
<g>
<g data-source-text="" fill="#048fbf" transform="translate(672 262.584) rotate(0) scale(0.047999997)">
<use href="#path20" transform="translate(0 0)"/>
</g>
</g>
<g>
<g data-source-text="" fill="#20242e" transform="translate(672 262.584) rotate(0) scale(0.047999997)">
<use href="#path19" transform="translate(0 0)"/>
<use href="#path51" transform="translate(500 0)"/>
</g>
</g>
<g>
<g data-source-text="" fill="#048fbf" transform="translate(744 262.584) rotate(0) scale(0.047999997)">
<use href="#path20" transform="translate(0 0)"/>
</g>
</g>
<g>
<g data-source-text="" fill="#20242e" transform="translate(744 262.584) rotate(0) scale(0.047999997)">
<use href="#path19" transform="translate(0 0)"/>
<use href="#path52" transform="translate(500 0)"/>
</g>
</g>
<g>
<g data-source-text="" fill="#048fbf" transform="translate(816 262.584) rotate(0) scale(0.047999997)">
<use href="#path20" transform="translate(0 0)"/>
</g>
</g>
<g>
<g data-source-text="" fill="#20242e" transform="translate(816 262.584) rotate(0) scale(0.047999997)">
<use href="#path19" transform="translate(0 0)"/>
<use href="#path53" transform="translate(500 0)"/>
</g>
</g>
<g>
<g data-source-text="" fill="#048fbf" transform="translate(888 262.584) rotate(0) scale(0.047999997)">
<use href="#path20" transform="translate(0 0)"/>
</g>
</g>
<g>
<g data-source-text="" fill="#20242e" transform="translate(888 262.584) rotate(0) scale(0.047999997)">
<use href="#path19" transform="translate(0 0)"/>
<use href="#path54" transform="translate(500 0)"/>
</g>
</g>
<g>
<g data-source-text="" fill="#048fbf" transform="translate(960 262.584) rotate(0) scale(0.047999997)">
<use href="#path20" transform="translate(0 0)"/>
</g>
</g>
<g>
<g data-source-text="" fill="#20242e" transform="translate(960 262.584) rotate(0) scale(0.047999997)">
<use href="#path19" transform="translate(0 0)"/>
<use href="#path55" transform="translate(500 0)"/>
</g>
</g>
<g>
<g data-source-text="" fill="#048fbf" transform="translate(1032 262.584) rotate(0) scale(0.047999997)">
<use href="#path20" transform="translate(0 0)"/>
</g>
</g>
<g>
<g data-source-text="" fill="#20242e" transform="translate(1032 262.584) rotate(0) scale(0.047999997)">
<use href="#path19" transform="translate(0 0)"/>
<use href="#path56" transform="translate(500 0)"/>
</g>
</g>
<g>
<g data-source-text="" fill="#048fbf" transform="translate(1104 262.584) rotate(0) scale(0.047999997)">
<use href="#path20" transform="translate(0 0)"/>
</g>
</g>
<g>
<g data-source-text="" fill="#20242e" transform="translate(1104 262.584) rotate(0) scale(0.047999997)">
<use href="#path19" transform="translate(0 0)"/>
<use href="#path57" transform="translate(500 0)"/>
</g>
</g>
<g>
<g data-source-text="" fill="#048fbf" transform="translate(1176 262.584) rotate(0) scale(0.047999997)">
<use href="#path20" transform="translate(0 0)"/>
</g>
</g>
<g>
<g data-source-text="" fill="#20242e" transform="translate(1176 262.584) rotate(0) scale(0.047999997)">
<use href="#path19" transform="translate(0 0)"/>
<use href="#path58" transform="translate(500 0)"/>
</g>
</g>
<g>
<g data-source-text="" fill="#048fbf" transform="translate(1248 262.584) rotate(0) scale(0.047999997)">
<use href="#path20" transform="translate(0 0)"/>
</g>
</g>
<g>
<g data-source-text="" fill="#20242e" transform="translate(1248 262.584) rotate(0) scale(0.047999997)">
<use href="#path19" transform="translate(0 0)"/>
<use href="#path59" transform="translate(500 0)"/>
</g>
</g>
<g>
<g data-source-text="U+1DF0" fill="#20242e" transform="translate(36 329.292) rotate(0) scale(0.023999998)">
<use href="#path17" transform="translate(0 0)"/>
<use href="#path18" transform="translate(500 0)"/>
<use href="#path2" transform="translate(1000 0)"/>
<use href="#path14" transform="translate(1500 0)"/>
<use href="#path16" transform="translate(2000 0)"/>
<use href="#path1" transform="translate(2500 0)"/>
</g>
</g>
<g>
<g data-source-text="" fill="#048fbf" transform="translate(168 334.584) rotate(0) scale(0.047999997)">
<use href="#path20" transform="translate(0 0)"/>
</g>
</g>
<g>
<g data-source-text="" fill="#20242e" transform="translate(168 334.584) rotate(0) scale(0.047999997)">
<use href="#path19" transform="translate(0 0)"/>
<use href="#path60" transform="translate(500 0)"/>
</g>
</g>
<g>
<g data-source-text="" fill="#048fbf" transform="translate(240 334.584) rotate(0) scale(0.047999997)">
<use href="#path20" transform="translate(0 0)"/>
</g>
</g>
<g>
<g data-source-text="" fill="#20242e" transform="translate(240 334.584) rotate(0) scale(0.047999997)">
<use href="#path19" transform="translate(0 0)"/>
<use href="#path61" transform="translate(500 0)"/>
</g>
</g>
<g>
<g data-source-text="" fill="#048fbf" transform="translate(312 334.584) rotate(0) scale(0.047999997)">
<use href="#path20" transform="translate(0 0)"/>
</g>
</g>
<g>
<g data-source-text="" fill="#20242e" transform="translate(312 334.584) rotate(0) scale(0.047999997)">
<use href="#path19" transform="translate(0 0)"/>
<use href="#path62" transform="translate(500 0)"/>
</g>
</g>
<g>
<g data-source-text="" fill="#048fbf" transform="translate(384 334.584) rotate(0) scale(0.047999997)">
<use href="#path20" transform="translate(0 0)"/>
</g>
</g>
<g>
<g data-source-text="" fill="#20242e" transform="translate(384 334.584) rotate(0) scale(0.047999997)">
<use href="#path19" transform="translate(0 0)"/>
<use href="#path63" transform="translate(500 0)"/>
</g>
</g>
<g>
<g data-source-text="" fill="#048fbf" transform="translate(456 334.584) rotate(0) scale(0.047999997)">
<use href="#path20" transform="translate(0 0)"/>
</g>
</g>
<g>
<g data-source-text="" fill="#20242e" transform="translate(456 334.584) rotate(0) scale(0.047999997)">
<use href="#path19" transform="translate(0 0)"/>
<use href="#path64" transform="translate(500 0)"/>
</g>
</g>
<g>
<g data-source-text="" fill="#048fbf" transform="translate(528 334.584) rotate(0) scale(0.047999997)">
<use href="#path20" transform="translate(0 0)"/>
</g>
</g>
<g>
<g data-source-text="" fill="#20242e" transform="translate(528 334.584) rotate(0) scale(0.047999997)">
<use href="#path19" transform="translate(0 0)"/>
<use href="#path65" transform="translate(500 0)"/>
</g>
</g>
<g>
<g data-source-text="" fill="#048fbf" transform="translate(600 334.584) rotate(0) scale(0.047999997)">
<use href="#path20" transform="translate(0 0)"/>
</g>
</g>
<g>
<g data-source-text="" fill="#20242e" transform="translate(600 334.584) rotate(0) scale(0.047999997)">
<use href="#path19" transform="translate(0 0)"/>
<use href="#path66" transform="translate(500 0)"/>
</g>
</g>
<g>
<g data-source-text="" fill="#048fbf" transform="translate(672 334.584) rotate(0) scale(0.047999997)">
<use href="#path20" transform="translate(0 0)"/>
</g>
</g>
<g>
<g data-source-text="" fill="#20242e" transform="translate(672 334.584) rotate(0) scale(0.047999997)">
<use href="#path19" transform="translate(0 0)"/>
<use href="#path66" transform="translate(500 0)"/>
</g>
</g>
<g>
<g data-source-text="" fill="#048fbf" transform="translate(744 334.584) rotate(0) scale(0.047999997)">
<use href="#path20" transform="translate(0 0)"/>
</g>
</g>
<g>
<g data-source-text="" fill="#20242e" transform="translate(744 334.584) rotate(0) scale(0.047999997)">
<use href="#path19" transform="translate(0 0)"/>
<use href="#path67" transform="translate(500 0)"/>
</g>
</g>
<g>
<g data-source-text="" fill="#048fbf" transform="translate(816 334.584) rotate(0) scale(0.047999997)">
<use href="#path20" transform="translate(0 0)"/>
</g>
</g>
<g>
<g data-source-text="" fill="#20242e" transform="translate(816 334.584) rotate(0) scale(0.047999997)">
<use href="#path19" transform="translate(0 0)"/>
<use href="#path68" transform="translate(500 0)"/>
</g>
</g>
<g>
<g data-source-text="" fill="#048fbf" transform="translate(888 334.584) rotate(0) scale(0.047999997)">
<use href="#path20" transform="translate(0 0)"/>
</g>
</g>
<g>
<g data-source-text="" fill="#20242e" transform="translate(888 334.584) rotate(0) scale(0.047999997)">
<use href="#path19" transform="translate(0 0)"/>
</g>
<g data-source-text="" fill="#20242e" transform="translate(912 334.584) rotate(0) scale(0.047999997)">
<use href="#path69" transform="translate(0 0)"/>
</g>
</g>
<g>
<g data-source-text="" fill="#048fbf" transform="translate(960 334.584) rotate(0) scale(0.047999997)">
<use href="#path20" transform="translate(0 0)"/>
</g>
</g>
<g>
<g data-source-text="" fill="#20242e" transform="translate(960 334.584) rotate(0) scale(0.047999997)">
<use href="#path19" transform="translate(0 0)"/>
<use href="#path70" transform="translate(500 0)"/>
</g>
</g>
<g>
<g data-source-text="" fill="#048fbf" transform="translate(1032 334.584) rotate(0) scale(0.047999997)">
<use href="#path20" transform="translate(0 0)"/>
</g>
</g>
<g>
<g data-source-text="" fill="#20242e" transform="translate(1032 334.584) rotate(0) scale(0.047999997)">
<use href="#path19" transform="translate(0 0)"/>
<use href="#path71" transform="translate(500 0)"/>
</g>
</g>
<g>
<g data-source-text="" fill="#048fbf" transform="translate(1104 334.584) rotate(0) scale(0.047999997)">
<use href="#path20" transform="translate(0 0)"/>
</g>
</g>
<g>
<g data-source-text="" fill="#20242e" transform="translate(1104 334.584) rotate(0) scale(0.047999997)">
<use href="#path19" transform="translate(0 0)"/>
<use href="#path72" transform="translate(500 0)"/>
</g>
</g>
<g>
<g data-source-text="" fill="#048fbf" transform="translate(1176 334.584) rotate(0) scale(0.047999997)">
<use href="#path20" transform="translate(0 0)"/>
</g>
</g>
<g>
<g data-source-text="" fill="#20242e" transform="translate(1176 334.584) rotate(0) scale(0.047999997)">
<use href="#path19" transform="translate(0 0)"/>
<use href="#path73" transform="translate(500 0)"/>
</g>
</g>
<g>
<g data-source-text="" fill="#048fbf" transform="translate(1248 334.584) rotate(0) scale(0.047999997)">
<use href="#path20" transform="translate(0 0)"/>
</g>
</g>
<g>
<g data-source-text="" fill="#20242e" transform="translate(1248 334.584) rotate(0) scale(0.047999997)">
<use href="#path19" transform="translate(0 0)"/>
<use href="#path74" transform="translate(500 0)"/>
</g>
</g>
</svg>