<?xml version="1.0" encoding="UTF-8" standalone="no"?>
<svg height="160" viewBox="0 0 128 160" width="128" xmlns="http://www.w3.org/2000/svg">
<defs>
<path d="M 242 8 Q 220 8 197.5 4.5 Q 175 1 153.5 -7 Q 132 -15 113 -28 Q 94 -41 81 -59.5 Q 68 -78 62 -100 Q 56 -122 56 -145 Q 56 -170 63 -194.5 Q 70 -219 86 -238.5 Q 102 -258 124 -271.5 Q 146 -285 169.5 -292.5 Q 193 -300 218 -303 Q 243 -306 269 -306 L 358 -306 L 358 -355 Q 358 -375 354 -395 Q 350 -415 336.5 -430 Q 323 -445 303.5 -451.5 Q 284 -458 264 -458 Q 232 -458 201.5 -449 Q 171 -440 141 -428 L 141 -328 L 64 -328 L 64 -474 Q 89 -485 115 -494.5 Q 141 -504 168 -511.5 Q 195 -519 222 -524 Q 249 -529 277 -529 Q 300 -529 322 -524.5 Q 344 -520 364 -509 Q 384 -498 399.5 -481 Q 415 -464 423.5 -443 Q 432 -422 434 -399.5 Q 436 -377 436 -355 L 436 -46 Q 392 -21 342.5 -6.5 Q 293 8 242 8 Z M 244 -62 Q 274 -62 302.5 -69 Q 331 -76 358 -87 L 358 -236 L 269 -236 Q 254 -236 239 -234.5 Q 224 -233 209.5 -229.5 Q 195 -226 181 -220 Q 167 -214 156 -204 Q 145 -194 139.5 -179.5 Q 134 -165 134 -150 Q 134 -130 143 -111.5 Q 152 -93 168.5 -82 Q 185 -71 204.5 -66.5 Q 224 -62 244 -62 Z " id="path1"/>
</defs>
<g>
<g data-source-text="a" fill="#20242e" transform="translate(40 104.99201) rotate(0) scale(0.09599999)">
<use href="#path1" transform="translate(0 0)"/>
</g>
</g>
</svg>