<?xml version="1.0" encoding="UTF-8" standalone="no"?>
<svg height="160" viewBox="0 0 128 160" width="128" xmlns="http://www.w3.org/2000/svg">
<defs>
<path d="M 204 8 Q 180 8 156.5 0 Q 133 -8 114 -23.5 Q 95 -39 82 -60 Q 69 -81 61.5 -104 Q 54 -127 51 -151.5 Q 48 -176 48 -200 Q 48 -228 53 -256.5 Q 58 -285 71.5 -309.5 Q 85 -334 107 -353 Q 129 -372 155 -383 Q 132 -394 113.5 -411.5 Q 95 -429 83.5 -451 Q 72 -473 68 -498 Q 64 -523 64 -548 Q 64 -573 68 -597.5 Q 72 -622 81.5 -645 Q 91 -668 106.5 -687 Q 122 -706 143 -719 Q 164 -732 188.5 -737.5 Q 213 -743 238 -743 Q 269 -743 300 -735.5 Q 331 -728 356 -709 Q 381 -690 394.5 -660.5 Q 408 -631 409 -600 L 331 -600 Q 331 -617 323 -632 Q 315 -647 301 -656.5 Q 287 -666 270.5 -669.5 Q 254 -673 238 -673 Q 223 -673 208 -668.5 Q 193 -664 181.5 -655 Q 170 -646 162 -633 Q 154 -620 149.5 -605.5 Q 145 -591 143.5 -576.5 Q 142 -562 142 -547 Q 142 -523 147 -499 Q 152 -475 166.5 -455.5 Q 181 -436 203.5 -426.5 Q 226 -417 250 -417 L 329 -417 L 329 -486 L 407 -486 L 407 -417 L 454 -417 L 454 -347 L 407 -347 L 407 0 L 338 0 L 338 -91 Q 329 -71 316 -52.5 Q 303 -34 286 -20 Q 269 -6 247.5 1 Q 226 8 204 8 Z M 231 -62 Q 253 -62 273 -74 Q 293 -86 305.5 -104.5 Q 318 -123 323.5 -145 Q 329 -167 329 -190 L 329 -347 L 250 -347 Q 232 -347 214 -343 Q 196 -339 181 -329.5 Q 166 -320 155 -305.5 Q 144 -291 137 -274 Q 130 -257 128 -239 Q 126 -221 126 -203 Q 126 -178 130.5 -153.5 Q 135 -129 148 -108 Q 161 -87 183.5 -74.5 Q 206 -62 231 -62 Z " id="path1"/>
</defs>
<g>
<g data-source-text="&amp;" fill="#dee4e3" transform="translate(40 104.99201) rotate(0) scale(0.09599999)">
<use href="#path1" transform="translate(0 0)"/>
</g>
</g>
</svg>