<?xml version="1.0" encoding="UTF-8" standalone="no"?>
<svg height="160" viewBox="0 0 128 160" width="128" xmlns="http://www.w3.org/2000/svg">
<defs>
<path d="M 236 8 Q 209 8 182.5 1 Q 156 -6 134.5 -21.5 Q 113 -37 97.5 -59.5 Q 82 -82 73 -107.5 Q 64 -133 60 -159.5 Q 56 -186 56 -213 L 56 -221 Q 57 -248 61.5 -274 Q 66 -300 77 -324.5 Q 88 -349 106 -369 Q 124 -389 147.5 -402 Q 171 -415 197 -420.5 Q 223 -426 250 -426 L 276 -426 L 92 -665 L 92 -735 L 436 -735 L 436 -665 L 177 -665 L 362 -426 L 362 -356 L 250 -356 Q 233 -356 216 -352 Q 199 -348 185 -338 Q 171 -328 161 -314 Q 151 -300 145 -284 Q 139 -268 136.5 -251 Q 134 -234 134 -217 Q 134 -199 135.5 -182 Q 137 -165 141.5 -148 Q 146 -131 154 -115.5 Q 162 -100 174 -87.5 Q 186 -75 202.5 -68.5 Q 219 -62 236 -62 Q 252 -62 267 -66 Q 282 -70 294.5 -79 Q 307 -88 315.5 -101 Q 324 -114 329 -129 Q 334 -144 336 -159 Q 338 -174 338 -190 L 338 -225 L 283 -225 L 283 -294 L 454 -294 L 454 -225 L 415 -225 L 415 -190 Q 415 -165 411.5 -139.5 Q 408 -114 398 -91 Q 388 -68 371.5 -48 Q 355 -28 333 -15 Q 311 -2 286 3 Q 261 8 236 8 Z " id="path1"/>
</defs>
<g>
<g data-source-text="&amp;" fill="#20242e" transform="translate(40 104.99201) rotate(0) scale(0.09599999)">
<use href="#path1" transform="translate(0 0)"/>
</g>
</g>
</svg>