<svg xmlns="http://www.w3.org/2000/svg" height="160" viewBox="0 0 128 160" width="128"><defs><path d="M 205.00002 8 C 189 8 172.99998 5.6666665 157.00002 1 C 141 -3.6666665 126.66667 -11.166667 114.00001 -21.500002 C 101.333336 -31.833332 90.666664 -44.166664 82.00001 -58.500004 C 73.333336 -72.833336 66.5 -87.66667 61.500004 -103.00001 C 56.5 -118.333336 53 -134.16666 51 -150.5 C 48.999996 -166.83333 48 -183 48 -199 C 48 -218.33333 49.666664 -237.5 53 -256.5 C 56.33333 -275.5 62.5 -293.1667 71.5 -309.5 C 80.5 -325.83334 92.166664 -340.3333 106.5 -353.00003 C 120.83333 -365.6667 137 -375.66672 155 -383.00003 C 139.66666 -390.33334 125.83333 -399.83337 113.5 -411.50003 C 101.16667 -423.1667 91.16666 -436.33334 83.5 -451.00003 C 75.833336 -465.66672 70.66667 -481.33334 68 -498 C 65.333336 -514.6666 64 -531.3333 64 -548.00006 C 64 -564.6667 65.166664 -581 67.5 -597 C 69.83333 -613 74.166664 -628.6667 80.50001 -644.00006 C 86.83334 -659.3333 95 -673.5 105 -686.5 C 115 -699.5 127 -710.3334 141 -719.00006 C 155 -727.66675 170 -733.8333 186.00002 -737.50006 C 201.99998 -741.1667 218 -743.00006 234.00002 -743.00006 C 255.33333 -743.00006 276.5 -739.8334 297.5 -733.5 C 318.5 -727.1667 336.83334 -716.6666 352.5 -702 C 368.1667 -687.3333 380 -669.6666 388.00003 -649 C 396 -628.3334 400.33334 -607.3334 401.00003 -586 L 323 -586 C 323 -598 320.83334 -609.5 316.50003 -620.5 C 312.16666 -631.5 306 -641.1667 298 -649.50006 C 290 -657.8334 280.33334 -663.8334 269 -667.50006 C 257.66666 -671.1667 246 -673.00006 234.00002 -673.00006 C 224.66669 -673.00006 215.16667 -671.50006 205.50002 -668.50006 C 195.83333 -665.5 187.33334 -660.8333 180.00002 -654.5 C 172.66667 -648.1667 166.5 -640.6667 161.5 -632 C 156.5 -623.3333 152.50002 -614.3333 149.5 -605.00006 C 146.5 -595.6667 144.5 -586.1667 143.5 -576.50006 C 142.5 -566.8334 142 -557 142 -547 C 142 -531 143.66667 -514.99994 147.00002 -499 C 150.33334 -483 156.83333 -468.6667 166.5 -456.00003 C 176.16666 -443.3333 188.5 -433.6667 203.5 -427.00003 C 218.5 -420.33334 234.00002 -417.00003 250 -417.00003 L 329 -417.00003 L 329 -491.00003 L 407 -491.00003 L 407 -417.00003 L 454 -417.00003 L 454 -347 L 407 -347 L 407 0 L 338.00003 0 L 338.00003 -109 C 334 -93.66667 328.33334 -78.66667 321 -64 C 313.66666 -49.333336 304.33334 -36.333332 293 -25.000002 C 281.6667 -13.666667 268.16666 -5.333333 252.5 0 C 236.83333 5.333333 221 8 205.00002 8 Z M 235 -62.000004 C 245.66667 -62.000004 255.83333 -63.5 265.50003 -66.5 C 275.1667 -69.5 283.6667 -74.166664 291.00003 -80.50001 C 298.33334 -86.83334 304.5 -94.5 309.5 -103.5 C 314.50003 -112.50001 318.5 -121.66667 321.5 -131 C 324.5 -140.33334 326.5 -150 327.50003 -160.00002 C 328.5 -170 329 -180 329 -190 L 329 -347 L 250 -347 C 238 -346.99997 226 -345.66666 214.00002 -343.00003 C 202.00002 -340.3333 190.99998 -335.8333 181 -329.5 C 171.00002 -323.1667 162.33333 -315.1667 155 -305.50003 C 147.66667 -295.83334 141.66667 -285.3333 137.00002 -274.00003 C 132.33334 -262.66666 129.33334 -251.00002 128 -239.00002 C 126.66667 -227 125.99999 -215 126 -203.00002 C 125.99999 -191.66669 126.66667 -180.5 128 -169.5 C 129.33334 -158.49998 131.66667 -147.66666 135 -137.00002 C 138.33334 -126.33334 143.16667 -116.166664 149.5 -106.5 C 155.83334 -96.83333 163.5 -88.49999 172.5 -81.5 C 181.5 -74.5 191.50002 -69.5 202.50002 -66.5 C 213.49998 -63.5 224.33333 -62.000004 235 -62.000004 Z " id="path1"/></defs><g><g fill="#000000" transform="translate(40 105.20961) rotate(0)"><use href="#path1" transform="translate(0 0) scale(0.09599999)"/></g></g></svg>