<?xml version="1.0" encoding="UTF-8" standalone="no"?>
<svg height="160" viewBox="0 0 1024 160" width="1024" xmlns="http://www.w3.org/2000/svg">
<defs>
<path d="M 44 0 L 205 -735 L 295 -735 L 456 0 Z M 138 -70 L 362 -70 L 276 -490 Q 269 -522 262.5 -554 Q 256 -586 250 -618 Q 244 -586 237.5 -554 Q 231 -522 224 -490 Z " id="path1"/>
<path d="M 205 0 L 44 -735 L 456 -735 L 295 0 Z M 250 -117 Q 252 -126 253.5 -135.5 Q 255 -145 257 -154.5 Q 259 -164 261 -173.5 Q 263 -183 265.5 -194.5 Q 268 -206 269.5 -214.5 Q 271 -223 273 -229 L 276 -245 L 362 -665 L 138 -665 L 224 -245 Q 226 -236 228 -226.5 Q 230 -217 232 -207.5 Q 234 -198 236 -188.5 Q 238 -179 240 -168 Q 242 -157 244 -148 Q 246 -139 247 -133 Z " id="path2"/>
<path d="M 436 -168 L 236 -168 Q 212 -168 188.5 -172 Q 165 -176 144 -186 Q 123 -196 105 -212 Q 87 -228 76 -249 Q 65 -270 60.5 -293 Q 56 -316 56 -340 Q 56 -364 60.5 -387 Q 65 -410 76 -431 Q 87 -452 105 -468 Q 123 -484 144 -494 Q 165 -504 188.5 -508 Q 212 -512 236 -512 L 436 -512 L 436 -453 L 236 -453 Q 216 -453 197 -448.5 Q 178 -444 162.5 -433 Q 147 -422 137 -405 Q 127 -388 123 -369 L 436 -369 L 436 -311 L 123 -311 Q 127 -292 137 -275 Q 147 -258 162.5 -247 Q 178 -236 197 -231.5 Q 216 -227 236 -227 L 436 -227 Z " id="path3"/>
<path d="M 500 -19 Q 458 -19 417 -30 Q 376 -41 339.5 -62 Q 303 -83 273 -113 Q 243 -143 222 -179.5 Q 201 -216 190 -257 Q 179 -298 179 -340 Q 179 -382 190 -423 Q 201 -464 222 -500.5 Q 243 -537 273 -567 Q 303 -597 339.5 -618 Q 376 -639 417 -650 Q 458 -661 500 -661 Q 542 -661 583 -650 Q 624 -639 660.5 -618 Q 697 -597 727 -567 Q 757 -537 778 -500.5 Q 799 -464 810 -423 Q 821 -382 821 -340 Q 821 -298 810 -257 Q 799 -216 778 -179.5 Q 757 -143 727 -113 Q 697 -83 660.5 -62 Q 624 -41 583 -30 Q 542 -19 500 -19 Z M 500 -79 Q 534 -79 567.5 -88 Q 601 -97 630.5 -114 Q 660 -131 684.5 -155.5 Q 709 -180 726 -209.5 Q 743 -239 752 -272.5 Q 761 -306 761 -340 Q 761 -374 752 -407.5 Q 743 -441 726 -470.5 Q 709 -500 684.5 -524.5 Q 660 -549 630.5 -566 Q 601 -583 567.5 -592 Q 534 -601 500 -601 Q 466 -601 432.5 -592 Q 399 -583 369.5 -566 Q 340 -549 315.5 -524.5 Q 291 -500 274 -470.5 Q 257 -441 248 -407.5 Q 239 -374 239 -340 Q 239 -306 248 -272.5 Q 257 -239 274 -209.5 Q 291 -180 315.5 -155.5 Q 340 -131 369.5 -114 Q 399 -97 432.5 -88 Q 466 -79 500 -79 Z " id="path4"/>
<path d="M 291 -91 L 42 -340 L 291 -589 L 329 -555 L 153 -375 L 942 -375 L 942 -305 L 153 -305 L 329 -125 Z " id="path5"/>
<path d="M 709 -91 L 671 -125 L 847 -305 L 58 -305 L 58 -375 L 847 -375 L 671 -555 L 709 -589 L 958 -340 Z " id="path6"/>
<path d="M 465 102 L 465 -687 L 285 -511 L 251 -549 L 500 -798 L 749 -549 L 715 -511 L 535 -687 L 535 102 Z " id="path7"/>
<path d="M 500 118 L 251 -131 L 285 -169 L 465 7 L 465 -782 L 535 -782 L 535 7 L 715 -169 L 749 -131 Z " id="path8"/>
</defs>
<g>
<g data-source-text="∆" fill="#dee4e3" transform="translate(40 104.99201) rotate(0) scale(0.09599999)">
<use href="#path1" transform="translate(0 0)"/>
</g>
</g>
<g>
<g data-source-text="∇" fill="#dee4e3" transform="translate(168 104.99201) rotate(0) scale(0.09599999)">
<use href="#path2" transform="translate(0 0)"/>
</g>
</g>
<g>
<g data-source-text="∊" fill="#dee4e3" transform="translate(296 104.99201) rotate(0) scale(0.09599999)">
<use href="#path3" transform="translate(0 0)"/>
</g>
</g>
<g>
<g data-source-text="○" fill="#dee4e3" transform="translate(400 104.99201) rotate(0) scale(0.09599999)">
<use href="#path4" transform="translate(0 0)"/>
</g>
</g>
<g>
<g data-source-text="←" fill="#dee4e3" transform="translate(528 104.99201) rotate(0) scale(0.09599999)">
<use href="#path5" transform="translate(0 0)"/>
</g>
</g>
<g>
<g data-source-text="→" fill="#dee4e3" transform="translate(656 104.99201) rotate(0) scale(0.09599999)">
<use href="#path6" transform="translate(0 0)"/>
</g>
</g>
<g>
<g data-source-text="↑" fill="#dee4e3" transform="translate(784 104.99201) rotate(0) scale(0.09599999)">
<use href="#path7" transform="translate(0 0)"/>
</g>
</g>
<g>
<g data-source-text="↓" fill="#dee4e3" transform="translate(912 104.99201) rotate(0) scale(0.09599999)">
<use href="#path8" transform="translate(0 0)"/>
</g>
</g>
</svg>