<svg xmlns="http://www.w3.org/2000/svg" height="160" viewBox="0 0 128 160" width="128"><defs><path d="M 235 8 Q 208 8 182 2 Q 156 -4 133.5 -18 Q 111 -32 94 -52.5 Q 77 -73 66.5 -97.5 Q 56 -122 52 -148.5 Q 48 -175 48 -202 Q 48 -230 53 -258 Q 58 -286 72 -310.5 Q 86 -335 107.5 -353.5 Q 129 -372 155 -383 Q 132 -394 113.5 -411.5 Q 95 -429 83.5 -451 Q 72 -473 68 -498 Q 64 -523 64 -548 Q 64 -573 67.5 -597 Q 71 -621 80.5 -644 Q 90 -667 105 -686.5 Q 120 -706 141 -719 Q 162 -732 186 -737.5 Q 210 -743 234 -743 Q 266 -743 297.5 -733.5 Q 329 -724 352.5 -702 Q 376 -680 388 -649 Q 400 -618 401 -586 L 323 -586 Q 323 -604 316.5 -620.5 Q 310 -637 298 -649.5 Q 286 -662 269 -667.5 Q 252 -673 234 -673 Q 220 -673 205.5 -668.5 Q 191 -664 180 -654.5 Q 169 -645 161.5 -632 Q 154 -619 149.5 -605 Q 145 -591 143.5 -576.5 Q 142 -562 142 -547 Q 142 -523 147 -499 Q 152 -475 166.5 -456 Q 181 -437 203.5 -427 Q 226 -417 250 -417 L 329 -417 L 329 -491 L 407 -491 L 407 -417 L 454 -417 L 454 -347 L 407 -347 L 407 -190 Q 407 -165 403.5 -140.5 Q 400 -116 391 -92.5 Q 382 -69 366.5 -49.5 Q 351 -30 330 -16.5 Q 309 -3 284.5 2.5 Q 260 8 235 8 Z M 234 -62 Q 249 -62 264 -66.5 Q 279 -71 290.5 -80.5 Q 302 -90 309.5 -103 Q 317 -116 321.5 -130.5 Q 326 -145 327.5 -160 Q 329 -175 329 -190 L 329 -347 L 250 -347 Q 232 -347 214 -343 Q 196 -339 181 -329.5 Q 166 -320 155 -305.5 Q 144 -291 137 -274 Q 130 -257 128 -239 Q 126 -221 126 -203 Q 126 -186 128 -169.5 Q 130 -153 135 -137 Q 140 -121 149 -106.5 Q 158 -92 171.5 -82 Q 185 -72 201 -67 Q 217 -62 234 -62 Z " id="path1"/></defs><g><g fill="#20242e" transform="translate(40 105.20961) rotate(0)"><use href="#path1" transform="translate(0 0) scale(0.09599999)"/></g></g></svg>