<svg xmlns="http://www.w3.org/2000/svg" height="160" viewBox="0 0 128 160" width="128"><defs><path d="M 215 -421.00003 L 157.00002 -466 C 178.33333 -489.3333 197.66667 -514.3333 215 -541 C 232.33333 -567.6667 245.33333 -596 254.00002 -626 C 253.33334 -626 252.5 -626 251.50002 -626 C 250.50002 -626 249.66666 -626 249 -626 C 239.00002 -626 229.00002 -627.5 219.00002 -630.5 C 209 -633.49994 200.33333 -638.6666 193 -646 C 185.66667 -653.3334 180.5 -662.00006 177.50002 -672.00006 C 174.5 -682 173 -692.3333 173 -703 C 173 -713 174.5 -723.1666 177.50002 -733.5 C 180.5 -743.8333 185.66667 -752.6666 193 -760 C 200.33333 -767.3334 209 -772.5 219.00002 -775.5 C 229.00002 -778.49994 239.33334 -779.99994 250 -780 C 260.66666 -779.99994 271.16666 -778.3333 281.5 -775.00006 C 291.83334 -771.6666 300.6667 -766.1666 308.00003 -758.50006 C 315.33334 -750.8333 320.33334 -741.8333 323 -731.5 C 325.6667 -721.1666 327 -710.6667 327 -700 C 327 -673.99994 324.16666 -648.5 318.5 -623.5 C 312.8333 -598.5 305 -574.3333 295 -551 C 285 -527.6667 273.1667 -505.16666 259.5 -483.50003 C 245.83334 -461.83334 231 -441 215 -421.00003 Z " id="path1"/></defs><g><g fill="#ffffff" transform="translate(40 105.20961) rotate(0)"><use href="#path1" transform="translate(0 0) scale(0.09599999)"/></g></g></svg>