<?xml version="1.0" encoding="UTF-8" standalone="no"?>
<svg height="160" viewBox="0 0 1024 160" width="1024" xmlns="http://www.w3.org/2000/svg">
<defs>
<path d="M 44 -42 L 208 -638 L 292 -638 L 456 -42 Z M 362 -109 L 277 -439 Q 270 -466 263 -492.5 Q 256 -519 250 -546 Q 244 -519 237 -492.5 Q 230 -466 223 -439 L 138 -109 Z " id="path1"/>
<path d="M 208 -42 L 44 -638 L 456 -638 L 292 -42 Z M 250 -134 Q 256 -161 263 -187.5 Q 270 -214 277 -241 L 362 -571 L 138 -571 L 223 -241 Q 230 -214 237 -187.5 Q 244 -161 250 -134 Z " id="path2"/>
<path d="M 436 0 L 324 0 Q 289 0 253.5 -6 Q 218 -12 186 -27 Q 154 -42 128 -67 Q 102 -92 85.5 -123 Q 69 -154 62.5 -189.5 Q 56 -225 56 -260 Q 56 -295 62.5 -330.5 Q 69 -366 85.5 -397 Q 102 -428 128 -453 Q 154 -478 186 -493 Q 218 -508 253.5 -514 Q 289 -520 324 -520 L 436 -520 L 436 -455 L 324 -455 Q 301 -455 277.5 -451.5 Q 254 -448 232.5 -438.5 Q 211 -429 192.5 -414.5 Q 174 -400 160.5 -380.5 Q 147 -361 140 -338.5 Q 133 -316 130 -293 L 436 -293 L 436 -227 L 130 -227 Q 133 -204 140 -181.5 Q 147 -159 160.5 -139.5 Q 174 -120 192.5 -105.5 Q 211 -91 232.5 -81.5 Q 254 -72 277.5 -68.5 Q 301 -65 324 -65 L 436 -65 Z " id="path3"/>
<path d="M 250 -130 Q 223 -130 196 -137 Q 169 -144 145 -158 Q 121 -172 101.5 -191.5 Q 82 -211 68 -235 Q 54 -259 47 -286 Q 40 -313 40 -340 Q 40 -367 47 -394 Q 54 -421 68 -445 Q 82 -469 101.5 -488.5 Q 121 -508 145 -522 Q 169 -536 196 -543 Q 223 -550 250 -550 Q 277 -550 304 -543 Q 331 -536 355 -522 Q 379 -508 398.5 -488.5 Q 418 -469 432 -445 Q 446 -421 453 -394 Q 460 -367 460 -340 Q 460 -313 453 -286 Q 446 -259 432 -235 Q 418 -211 398.5 -191.5 Q 379 -172 355 -158 Q 331 -144 304 -137 Q 277 -130 250 -130 Z M 250 -190 Q 280 -190 307.5 -201.5 Q 335 -213 356 -234 Q 377 -255 388.5 -282.5 Q 400 -310 400 -340 Q 400 -370 388.5 -397.5 Q 377 -425 356 -446 Q 335 -467 307.5 -478.5 Q 280 -490 250 -490 Q 220 -490 192.5 -478.5 Q 165 -467 144 -446 Q 123 -425 111.5 -397.5 Q 100 -370 100 -340 Q 100 -310 111.5 -282.5 Q 123 -255 144 -234 Q 165 -213 192.5 -201.5 Q 220 -190 250 -190 Z " id="path4"/>
<path d="M 176 -164 L 0 -340 L 176 -516 L 218 -478 L 105 -373 L 484 -373 L 484 -307 L 105 -307 L 218 -202 Z " id="path5"/>
<path d="M 324 -164 L 282 -202 L 395 -307 L 16 -307 L 16 -373 L 395 -373 L 282 -478 L 324 -516 L 500 -340 Z " id="path6"/>
<path d="M 217 11 L 217 -602 L 112 -489 L 74 -531 L 250 -707 L 426 -531 L 388 -489 L 283 -602 L 283 11 Z " id="path7"/>
<path d="M 250 27 L 74 -149 L 112 -191 L 217 -78 L 217 -691 L 283 -691 L 283 -78 L 388 -191 L 426 -149 Z " id="path8"/>
</defs>
<g>
<g data-source-text="∆" fill="#20242e" transform="translate(40 104.99201) rotate(0) scale(0.09599999)">
<use href="#path1" transform="translate(0 0)"/>
</g>
</g>
<g>
<g data-source-text="∇" fill="#20242e" transform="translate(168 104.99201) rotate(0) scale(0.09599999)">
<use href="#path2" transform="translate(0 0)"/>
</g>
</g>
<g>
<g data-source-text="∊" fill="#20242e" transform="translate(296 104.99201) rotate(0) scale(0.09599999)">
<use href="#path3" transform="translate(0 0)"/>
</g>
</g>
<g>
<g data-source-text="○" fill="#20242e" transform="translate(424 104.99201) rotate(0) scale(0.09599999)">
<use href="#path4" transform="translate(0 0)"/>
</g>
</g>
<g>
<g data-source-text="←" fill="#20242e" transform="translate(552 104.99201) rotate(0) scale(0.09599999)">
<use href="#path5" transform="translate(0 0)"/>
</g>
</g>
<g>
<g data-source-text="→" fill="#20242e" transform="translate(680 104.99201) rotate(0) scale(0.09599999)">
<use href="#path6" transform="translate(0 0)"/>
</g>
</g>
<g>
<g data-source-text="↑" fill="#20242e" transform="translate(808 104.99201) rotate(0) scale(0.09599999)">
<use href="#path7" transform="translate(0 0)"/>
</g>
</g>
<g>
<g data-source-text="↓" fill="#20242e" transform="translate(936 104.99201) rotate(0) scale(0.09599999)">
<use href="#path8" transform="translate(0 0)"/>
</g>
</g>
</svg>