<?xml version="1.0" encoding="UTF-8" standalone="no"?>
<svg height="160" viewBox="0 0 128 160" width="128" xmlns="http://www.w3.org/2000/svg">
<defs>
<path d="M 229 8 Q 205 8 180.5 2 Q 156 -4 135.5 -17.5 Q 115 -31 99.5 -51 Q 84 -71 74.5 -93.5 Q 65 -116 60.5 -140.5 Q 56 -165 56 -190 Q 56 -220 64 -249 Q 72 -278 86.5 -304 Q 101 -330 121 -352 Q 141 -374 164 -394 Q 149 -416 134.5 -439 Q 120 -462 108.5 -486 Q 97 -510 89.5 -536 Q 82 -562 82 -589 Q 82 -619 91.5 -648.5 Q 101 -678 121.5 -700.5 Q 142 -723 171 -733 Q 200 -743 230 -743 Q 260 -743 289.5 -733 Q 319 -723 339 -700.5 Q 359 -678 368.5 -648.5 Q 378 -619 378 -589 Q 378 -558 368.5 -528 Q 359 -498 342.5 -471.5 Q 326 -445 304 -423 Q 282 -401 258 -381 Q 262 -374 266 -367.5 Q 270 -361 273 -355 L 363 -203 L 404 -309 L 481 -309 L 421 -155 Q 418 -147 415 -139.5 Q 412 -132 409 -125 L 483 0 L 398 0 L 362 -61 Q 348 -42 329.5 -26 Q 311 -10 288 -2 Q 274 3 259 5.5 Q 244 8 229 8 Z M 219 -441 L 220 -442 Q 236 -456 251 -472 Q 266 -488 277.5 -506.5 Q 289 -525 296 -545.5 Q 303 -566 303 -588 Q 303 -604 299 -620 Q 295 -636 285.5 -649 Q 276 -662 261 -668.5 Q 246 -675 230 -675 Q 214 -675 199 -668.5 Q 184 -662 174.5 -648.5 Q 165 -635 161.5 -619.5 Q 158 -604 158 -588 Q 158 -567 163.5 -547.5 Q 169 -528 177.5 -510 Q 186 -492 197 -475 Q 208 -458 219 -441 Z M 236 -60 Q 250 -60 264 -64.5 Q 278 -69 289.5 -77 Q 301 -85 310.5 -96 Q 320 -107 327 -120 L 209 -320 Q 207 -323 205 -326 Q 203 -329 202 -332 Q 187 -318 173.5 -302.5 Q 160 -287 150.5 -269 Q 141 -251 136 -231 Q 131 -211 131 -190 Q 131 -175 133.5 -159.5 Q 136 -144 141.5 -129 Q 147 -114 156 -100.5 Q 165 -87 177.5 -77.5 Q 190 -68 205 -64 Q 220 -60 236 -60 Z " id="path1"/>
</defs>
<g>
<g data-source-text="&amp;" fill="#dee4e3" transform="translate(40 104.99201) rotate(0) scale(0.09599999)">
<use href="#path1" transform="translate(0 0)"/>
</g>
</g>
</svg>