<?xml version="1.0" encoding="UTF-8" standalone="no"?>
<svg height="160" viewBox="0 0 128 160" width="128" xmlns="http://www.w3.org/2000/svg">
<defs>
<path d="M 249 8 Q 225 8 202 5 Q 179 2 157 -5.5 Q 135 -13 115.5 -26 Q 96 -39 82 -57.5 Q 68 -76 62 -99 Q 56 -122 56 -145 Q 56 -170 63 -194.5 Q 70 -219 86 -238.5 Q 102 -258 123.5 -271.5 Q 145 -285 169 -292.5 Q 193 -300 218 -303 Q 243 -306 269 -306 L 358 -306 L 358 -355 Q 358 -376 351.5 -396.5 Q 345 -417 329 -431.5 Q 313 -446 292 -452 Q 271 -458 250 -458 Q 222 -458 194 -451.5 Q 166 -445 141 -433 L 141 -326 L 64 -326 L 64 -471 Q 105 -498 153 -513 Q 201 -528 250 -528 Q 274 -528 298 -524.5 Q 322 -521 344 -511 Q 366 -501 384.5 -484.5 Q 403 -468 414.5 -447 Q 426 -426 431 -402.5 Q 436 -379 436 -355 L 436 -153 Q 436 -129 430.5 -106 Q 425 -83 412.5 -63.5 Q 400 -44 381 -29.5 Q 362 -15 340.5 -6.5 Q 319 2 295.5 5 Q 272 8 249 8 Z M 249 -62 Q 270 -62 290 -66.5 Q 310 -71 326 -83 Q 342 -95 350 -114 Q 358 -133 358 -153 L 358 -236 L 269 -236 Q 254 -236 239 -234.5 Q 224 -233 209.5 -229.5 Q 195 -226 181 -220 Q 167 -214 156 -204 Q 145 -194 139.5 -179.5 Q 134 -165 134 -150 Q 134 -130 143.5 -111 Q 153 -92 170.5 -81 Q 188 -70 208 -66 Q 228 -62 249 -62 Z " id="path1"/>
</defs>
<g>
<g data-source-text="a" fill="#dee4e3" transform="translate(40 104.99201) rotate(0) scale(0.09599999)">
<use href="#path1" transform="translate(0 0)"/>
</g>
</g>
</svg>