<?xml version="1.0" encoding="UTF-8" standalone="no"?>
<svg height="160" viewBox="0 0 128 160" width="128" xmlns="http://www.w3.org/2000/svg">
<defs>
<path d="M 250 128 Q 222 128 195 123.5 Q 168 119 143 107 Q 118 95 97.5 75.5 Q 77 56 64.5 31.5 Q 52 7 47 -20.5 Q 42 -48 42 -75 L 42 -605 Q 42 -632 47 -659.5 Q 52 -687 64.5 -711.5 Q 77 -736 97.5 -755.5 Q 118 -775 143 -787 Q 168 -799 195 -803.5 Q 222 -808 250 -808 Q 278 -808 305 -803.5 Q 332 -799 357 -787 Q 382 -775 402.5 -755.5 Q 423 -736 435.5 -711.5 Q 448 -687 453 -659.5 Q 458 -632 458 -605 L 458 -169 Q 458 -147 450 -125.5 Q 442 -104 425 -89.5 Q 408 -75 386 -69.5 Q 364 -64 342 -64 L 248 -64 Q 234 -64 223 -73.5 Q 212 -83 206 -96 Q 200 -109 198.5 -123 Q 197 -137 197 -152 L 197 -482 Q 197 -493 197.5 -503 Q 198 -513 200 -523 Q 202 -533 205.5 -542.5 Q 209 -552 215 -560 Q 221 -568 230.5 -573 Q 240 -578 250 -578 Q 260 -578 269.5 -573 Q 279 -568 285 -560 Q 291 -552 294.5 -542.5 Q 298 -533 300 -523 Q 302 -513 302.5 -503 Q 303 -493 303 -482 L 303 -134 L 342 -134 Q 349 -134 356.5 -136 Q 364 -138 369.5 -142.5 Q 375 -147 377.5 -154.5 Q 380 -162 380 -169 L 380 -605 Q 380 -622 377 -640 Q 374 -658 366.5 -673.5 Q 359 -689 346.5 -702 Q 334 -715 318.5 -723 Q 303 -731 285.5 -734.5 Q 268 -738 250 -738 Q 232 -738 214.5 -734.5 Q 197 -731 181.5 -723 Q 166 -715 153.5 -702 Q 141 -689 133.5 -673.5 Q 126 -658 123 -640 Q 120 -622 120 -605 L 120 -75 Q 120 -58 123 -40 Q 126 -22 133.5 -6.5 Q 141 9 153.5 22 Q 166 35 181.5 43 Q 197 51 214.5 54.5 Q 232 58 250 58 L 423 58 L 423 128 Z " id="path1"/>
</defs>
<g>
<g data-source-text="@" fill="#20242e" transform="translate(40 104.99201) rotate(0) scale(0.09599999)">
<use href="#path1" transform="translate(0 0)"/>
</g>
</g>
</svg>