<svg xmlns="http://www.w3.org/2000/svg" height="160" viewBox="0 0 128 160" width="128"><defs><path d="M 236.00002 8 C 218 8 200.16667 5.6666665 182.50002 1 C 164.83333 -3.6666665 148.83333 -11.333333 134.5 -22 C 120.166664 -32.666668 107.83333 -45.333336 97.5 -60.000004 C 87.16667 -74.666664 79 -90.5 73 -107.5 C 67 -124.5 62.666668 -141.83333 60.000004 -159.50002 C 57.333332 -177.16667 55.999996 -195.00002 56 -213 C 55.999996 -213.66667 55.999996 -214.16667 56 -214.50002 C 55.999996 -214.83333 55.999996 -215 56 -215 C 55.999996 -215.66666 55.999996 -216 56 -216 C 55.999996 -216 55.999996 -216.33334 56 -217.00002 C 55.999996 -217.66667 55.999996 -218.33333 56 -219.00002 C 55.999996 -219.66669 55.999996 -220.33334 56 -221 C 56.666664 -239.00002 58.500004 -256.66666 61.500004 -274.00003 C 64.49999 -291.3333 69.666664 -308.1667 77.00001 -324.5 C 84.333336 -340.83334 93.99999 -355.6667 106 -369 C 118.00001 -382.33337 131.83334 -393.33337 147.5 -402 C 163.16667 -410.6667 179.66666 -416.83334 197.00002 -420.5 C 214.33334 -424.16666 232 -425.99997 250 -426 L 268 -426 L 92 -665 L 92 -735 L 436 -735 L 436 -665 L 185.00002 -665 L 362 -426 L 362 -356 L 250 -356 C 238.66666 -356 227.33333 -354.66666 216 -352 C 204.66666 -349.33334 194.33333 -344.6667 185.00002 -338.00003 C 175.66666 -331.33334 167.66667 -323.33334 161.00002 -314.00003 C 154.33334 -304.66666 149 -294.66666 145 -284 C 141 -273.3333 138.16666 -262.3333 136.5 -251.00002 C 134.83333 -239.66667 134 -228.33334 134 -217.00002 C 134 -205.00002 134.5 -193.33333 135.50002 -182 C 136.5 -170.66666 138.5 -159.33333 141.50002 -148 C 144.5 -136.66667 148.49998 -125.833336 153.5 -115.50001 C 158.5 -105.16668 165.16667 -95.833336 173.5 -87.5 C 181.83336 -79.166664 191.50002 -72.83333 202.50002 -68.50001 C 213.49998 -64.166664 224.66666 -62.000004 236.00002 -62.000004 C 246 -62.000004 256.16666 -63.333336 266.5 -66 C 276.8333 -68.66667 286.16666 -73.00001 294.5 -79 C 302.8333 -85 309.83334 -92.33333 315.5 -101.00001 C 321.16666 -109.66667 325.66666 -119 329 -129 C 332.3333 -139 334.66666 -149 336.00003 -159 C 337.33337 -169 338.00003 -179.33333 338.00003 -190 L 338.00003 -225.00002 L 283.00003 -225.00002 L 283.00003 -294.00003 L 454 -294.00003 L 454 -225.00002 L 415 -225.00002 L 415 -190 C 415 -173.33333 413.83334 -156.5 411.50003 -139.5 C 409.16666 -122.50001 404.6667 -106.333336 398 -91 C 391.33334 -75.66667 382.50003 -61.333332 371.50003 -48 C 360.50003 -34.666664 347.66666 -23.666666 333 -15.000001 C 318.33334 -6.333334 302.6667 -0.33333325 286 3 C 269.33334 6.3333335 252.66666 8 236.00002 8 Z " id="path1"/></defs><g><g fill="#ffffff" transform="translate(40 105.20961) rotate(0)"><use href="#path1" transform="translate(0 0) scale(0.09599999)"/></g></g></svg>