<?xml version="1.0" encoding="UTF-8" standalone="no"?>
<svg height="160" viewBox="0 0 128 160" width="128" xmlns="http://www.w3.org/2000/svg">
<defs>
<path d="M 285 -421 Q 277 -430 270 -439.5 Q 263 -449 256.5 -459 Q 250 -469 243.5 -479 Q 237 -489 231 -499.5 Q 225 -510 219.5 -521 Q 214 -532 209 -542.5 Q 204 -553 200 -564 Q 196 -575 192 -586.5 Q 188 -598 185 -609.5 Q 182 -621 179 -635.5 Q 176 -650 174.5 -661 Q 173 -672 173 -680 L 173 -699 Q 173 -709 174 -719 Q 175 -729 179 -738.5 Q 183 -748 189 -755.5 Q 195 -763 203.5 -768.5 Q 212 -774 224 -777 Q 236 -780 242 -780 L 250 -780 Q 260 -780 269.5 -778.5 Q 279 -777 288 -773 Q 297 -769 304.5 -762.5 Q 312 -756 316.5 -747.5 Q 321 -739 324 -728 Q 327 -717 327 -711 L 327 -703 Q 327 -693 325.5 -683.5 Q 324 -674 320 -665 Q 316 -656 309.5 -649 Q 303 -642 295 -637 Q 287 -632 276 -629 Q 265 -626 258 -626 L 246 -626 Q 250 -612 255 -599.5 Q 260 -587 266 -574.5 Q 272 -562 279.5 -549.5 Q 287 -537 296.5 -523.5 Q 306 -510 313.5 -500 Q 321 -490 327 -483 L 343 -466 Z " id="path1"/>
</defs>
<g>
<g data-source-text="`" fill="#dee4e3" transform="translate(40 104.99201) rotate(0) scale(0.09599999)">
<use href="#path1" transform="translate(0 0)"/>
</g>
</g>
</svg>