<?xml version="1.0" encoding="UTF-8" standalone="no"?>
<svg height="160" viewBox="0 0 128 160" width="128" xmlns="http://www.w3.org/2000/svg">
<defs>
<path d="M 401 77 L 250 77 Q 224 77 198 71.5 Q 172 66 149.5 53 Q 127 40 110 20 Q 93 0 82.5 -24 Q 72 -48 68 -74 Q 64 -100 64 -126 L 64 -554 Q 64 -580 68 -606 Q 72 -632 82.5 -656 Q 93 -680 110 -700 Q 127 -720 149.5 -733 Q 172 -746 198 -751.5 Q 224 -757 250 -757 Q 276 -757 302 -751.5 Q 328 -746 350.5 -733 Q 373 -720 390 -700 Q 407 -680 417.5 -656 Q 428 -632 432 -606 Q 436 -580 436 -554 L 436 -202 Q 436 -181 431.5 -160 Q 427 -139 415 -122 Q 403 -105 383.5 -96 Q 364 -87 343 -87 Q 322 -87 302.5 -96 Q 283 -105 271 -122 Q 259 -139 254.5 -160 Q 250 -181 250 -202 L 250 -437 Q 250 -459 254.5 -480 Q 259 -501 272 -518 Q 285 -535 305 -543.5 Q 325 -552 347 -552 L 359 -552 L 359 -554 Q 359 -578 354 -602.5 Q 349 -627 334.5 -646.5 Q 320 -666 297 -676.5 Q 274 -687 250 -687 Q 226 -687 203 -676.5 Q 180 -666 165.5 -646.5 Q 151 -627 146 -602.5 Q 141 -578 141 -554 L 141 -126 Q 141 -102 146 -77.5 Q 151 -53 165.5 -33.5 Q 180 -14 203 -3.5 Q 226 7 250 7 L 401 7 Z " id="path1"/>
</defs>
<g>
<g data-source-text="@" fill="#20242e" transform="translate(40 104.99201) rotate(0) scale(0.09599999)">
<use href="#path1" transform="translate(0 0)"/>
</g>
</g>
</svg>