<svg xmlns="http://www.w3.org/2000/svg" height="160" viewBox="0 0 128 160" width="128"><defs><path d="M 236.00002 8 C 219.33334 8 202.83334 6.3333335 186.5 3 C 170.16666 -0.33333325 155 -6.166667 141 -14.5 C 127 -22.833334 114.5 -33.166668 103.5 -45.5 C 92.50001 -57.833336 83.5 -71.5 76.5 -86.5 C 69.5 -101.5 64.33333 -117.166664 61 -133.5 C 57.666668 -149.83334 55.999996 -166 56 -182 C 55.999996 -202.66667 58.666668 -222.83333 64 -242.50002 C 69.333336 -262.16666 77.16667 -280.6667 87.5 -298 C 97.833336 -315.33334 109.66667 -331.66666 123.00001 -347 C 136.33333 -362.3333 150.33333 -376.66663 165 -390 C 155.66667 -405.33328 146 -420.8333 136 -436.5 C 126 -452.16666 117 -468.1667 109 -484.50003 C 100.99999 -500.83337 94.5 -517.8334 89.5 -535.5 C 84.5 -553.1667 82 -571 82.00001 -589 C 82 -609 85.166664 -628.8333 91.50001 -648.5 C 97.833336 -668.1667 107.833336 -685.5 121.50001 -700.50006 C 135.16667 -715.5 151.66667 -726.3333 171.00002 -733.00006 C 190.33333 -739.6666 210 -743.00006 230 -743.00006 C 250.66667 -743.00006 270.66666 -739.6666 290 -733.00006 C 309.33334 -726.3333 325.83334 -715.5 339.5 -700.50006 C 353.16666 -685.5 363 -668.1667 369 -648.5 C 375 -628.8333 378.00003 -609 378.00003 -589 C 378.00003 -568.3333 375 -548.1667 369 -528.5 C 363 -508.83334 354.6667 -490.1667 344.00003 -472.50003 C 333.33334 -454.83337 321.16666 -438.50003 307.5 -423.50003 C 293.8333 -408.5 279.3333 -394.1667 264 -380.5 C 248.66666 -366.83334 233.33331 -353.16666 218 -339.5 C 202.66664 -325.83334 188.66667 -311 176 -295 C 163.33333 -279 153 -261.33334 145 -242.00002 C 137 -222.66667 133 -203 133 -183.00002 C 133 -168.33334 135 -153.66667 139 -139 C 143 -124.333336 149.33334 -111.00001 158 -99 C 166.66667 -86.99999 178 -77.83333 192 -71.5 C 206 -65.16667 220.33333 -62.000004 235 -62.000004 C 235 -62.000004 235 -62.000004 235 -62.000004 C 235 -62.000004 235 -62.000004 235 -62.000004 C 245.66667 -62.000004 256.16666 -63.5 266.5 -66.5 C 276.8333 -69.5 286.16666 -74.166664 294.5 -80.50001 C 302.8333 -86.83334 309.83334 -94.666664 315.5 -104.00001 C 321.16666 -113.33333 325.66666 -123 329 -133 C 332.3333 -142.99998 334.5 -153.16667 335.5 -163.5 C 336.50003 -173.83333 336.99997 -184.33333 337.00003 -195 L 337.00003 -261 L 283.00003 -261 L 283.00003 -331.00003 L 454 -331.00003 L 454 -261 L 415 -261 L 415 -195 C 415 -177.66667 413.83334 -160.5 411.50003 -143.5 C 409.16666 -126.49999 404.6667 -110.16667 398 -94.50001 C 391.33334 -78.833336 382.6667 -64.166664 372.00003 -50.500004 C 361.33334 -36.833336 348.6667 -25.5 334 -16.5 C 319.3333 -7.5 303.5 -1.1666665 286.5 2.5000002 C 269.5 6.1666665 252.66666 8 236.00002 8 Z M 221 -441 C 231.66667 -451 241.66669 -461.33334 251.00002 -472.00003 C 260.33334 -482.66666 268.6667 -494.16666 276 -506.50003 C 283.33334 -518.8333 289.16666 -531.8334 293.5 -545.5 C 297.83334 -559.1667 300 -573.3334 300.00003 -588.00006 C 300 -598 298.83334 -608.1667 296.50003 -618.5 C 294.1667 -628.8334 290 -638.1667 284 -646.5 C 278 -654.8333 270.16666 -661.3333 260.5 -666 C 250.83334 -670.6667 240.66667 -673.00006 230 -673.00006 C 220 -673.00006 210.16666 -670.6667 200.50002 -666 C 190.83334 -661.3333 183.00002 -654.8333 177.00002 -646.5 C 171.00002 -638.1667 166.66667 -628.8334 164.00002 -618.5 C 161.33334 -608.1667 160.00002 -597.6667 160.00002 -587 C 160.00002 -573.6667 161.83334 -560.5 165.50002 -547.50006 C 169.16667 -534.5 173.99998 -522 180.00002 -510 C 186 -498 192.5 -486.33334 199.50002 -475.00003 C 206.5 -463.66666 213.66667 -452.3333 221 -441 Z " id="path1"/></defs><g><g fill="#ffffff" transform="translate(40 105.20961) rotate(0)"><use href="#path1" transform="translate(0 0) scale(0.09599999)"/></g></g></svg>