<?xml version="1.0" encoding="UTF-8" standalone="no"?>
<svg height="160" viewBox="0 0 128 160" width="128" xmlns="http://www.w3.org/2000/svg">
<defs>
<path d="M 235 8 Q 211 8 186.5 3 Q 162 -2 141 -14.5 Q 120 -27 103.5 -45.5 Q 87 -64 76.5 -86.5 Q 66 -109 61 -133.5 Q 56 -158 56 -182 Q 56 -213 64 -242.5 Q 72 -272 87.5 -298 Q 103 -324 123 -347 Q 143 -370 165 -390 Q 151 -413 136 -436.5 Q 121 -460 109 -484.5 Q 97 -509 89.5 -535.5 Q 82 -562 82 -589 Q 82 -619 91.5 -648.5 Q 101 -678 121.5 -700.5 Q 142 -723 171 -733 Q 200 -743 230 -743 Q 261 -743 290 -733 Q 319 -723 339.5 -700.5 Q 360 -678 369 -648.5 Q 378 -619 378 -589 Q 378 -558 369 -528.5 Q 360 -499 344 -472.5 Q 328 -446 307.5 -423.5 Q 287 -401 264 -380.5 Q 241 -360 218 -339.5 Q 195 -319 176 -295 Q 157 -271 145 -242 Q 133 -213 133 -183 Q 133 -161 139 -139 Q 145 -117 158 -99 Q 171 -81 192 -71.5 Q 213 -62 235 -62 Q 251 -62 266.5 -66.5 Q 282 -71 294.5 -80.5 Q 307 -90 315.5 -104 Q 324 -118 329 -133 Q 334 -148 335.5 -163.5 Q 337 -179 337 -195 L 337 -261 L 283 -261 L 283 -331 L 454 -331 L 454 -261 L 415 -261 L 415 -195 Q 415 -169 411.5 -143.5 Q 408 -118 398 -94.5 Q 388 -71 372 -50.5 Q 356 -30 334 -16.5 Q 312 -3 286.5 2.5 Q 261 8 235 8 Z M 221 -441 Q 237 -456 251 -472 Q 265 -488 276 -506.5 Q 287 -525 293.5 -545.5 Q 300 -566 300 -588 Q 300 -603 296.5 -618.5 Q 293 -634 284 -646.5 Q 275 -659 260.5 -666 Q 246 -673 230 -673 Q 215 -673 200.5 -666 Q 186 -659 177 -646.5 Q 168 -634 164 -618.5 Q 160 -603 160 -587 Q 160 -567 165.5 -547.5 Q 171 -528 180 -510 Q 189 -492 199.5 -475 Q 210 -458 221 -441 Z " id="path1"/>
</defs>
<g>
<g data-source-text="&amp;" fill="#dee4e3" transform="translate(40 104.99201) rotate(0) scale(0.09599999)">
<use href="#path1" transform="translate(0 0)"/>
</g>
</g>
</svg>