<?xml version="1.0" encoding="UTF-8" standalone="no"?>
<svg height="160" viewBox="0 0 128 160" width="128" xmlns="http://www.w3.org/2000/svg">
<defs>
<path d="M 246 8 Q 223 8 200 5 Q 177 2 155.5 -5.5 Q 134 -13 114.5 -26 Q 95 -39 81.5 -57.5 Q 68 -76 62 -99 Q 56 -122 56 -145 Q 56 -170 63 -194.5 Q 70 -219 86 -238.5 Q 102 -258 124 -271.5 Q 146 -285 169.5 -292.5 Q 193 -300 218 -303 Q 243 -306 269 -306 L 358 -306 L 358 -355 Q 358 -377 350 -398 Q 342 -419 325.5 -433 Q 309 -447 287 -452.5 Q 265 -458 243 -458 Q 217 -458 191 -451.5 Q 165 -445 141 -433 L 141 -326 L 64 -326 L 64 -471 Q 103 -498 149 -513 Q 195 -528 243 -528 Q 268 -528 292.5 -524.5 Q 317 -521 339.5 -511.5 Q 362 -502 381 -486 Q 400 -470 413 -449 Q 426 -428 431 -403.5 Q 436 -379 436 -355 L 436 -153 Q 436 -129 430.5 -106 Q 425 -83 412 -63.5 Q 399 -44 380 -29.5 Q 361 -15 339 -6.5 Q 317 2 293.5 5 Q 270 8 246 8 Z M 246 -62 Q 266 -62 286.5 -66.5 Q 307 -71 324 -82.5 Q 341 -94 349.5 -113 Q 358 -132 358 -153 L 358 -236 L 269 -236 Q 254 -236 239 -234.5 Q 224 -233 209.5 -229.5 Q 195 -226 181 -220 Q 167 -214 156 -204 Q 145 -194 139.5 -179.5 Q 134 -165 134 -150 Q 134 -130 143 -111.5 Q 152 -93 169 -81.5 Q 186 -70 206 -66 Q 226 -62 246 -62 Z " id="path1"/>
</defs>
<g>
<g data-source-text="a" fill="#dee4e3" transform="translate(40 104.99201) rotate(0) scale(0.09599999)">
<use href="#path1" transform="translate(0 0)"/>
</g>
</g>
</svg>