<?xml version="1.0" encoding="UTF-8" standalone="no"?>
<svg height="160" viewBox="0 0 1024 160" width="1024" xmlns="http://www.w3.org/2000/svg">
<defs>
<path d="M 44 0 L 153 -490 L 208 -735 L 292 -735 L 320 -613 L 456 0 Z M 366 -66 L 278 -490 Q 271 -524 264 -558 Q 257 -592 250 -626 Q 243 -592 236 -558 Q 229 -524 222 -490 L 134 -66 Z " id="path1"/>
<path d="M 208 0 L 180 -123 L 44 -735 L 456 -735 L 347 -245 L 292 0 Z M 250 -109 Q 257 -143 264 -177 Q 271 -211 278 -245 L 366 -669 L 134 -669 L 222 -245 Q 229 -211 236 -177 Q 243 -143 250 -109 Z " id="path2"/>
<path d="M 436 -168 L 236 -168 Q 212 -168 188.5 -172 Q 165 -176 144 -186 Q 123 -196 105 -212 Q 87 -228 76 -249 Q 65 -270 60.5 -293 Q 56 -316 56 -340 Q 56 -364 60.5 -387 Q 65 -410 76 -431 Q 87 -452 105 -468 Q 123 -484 144 -494 Q 165 -504 188.5 -508 Q 212 -512 236 -512 L 436 -512 L 436 -447 L 236 -447 Q 218 -447 201 -443 Q 184 -439 169.5 -429 Q 155 -419 145.5 -404.5 Q 136 -390 132 -373 L 436 -373 L 436 -307 L 132 -307 Q 136 -290 145.5 -275.5 Q 155 -261 169.5 -251 Q 184 -241 201 -237 Q 218 -233 236 -233 L 436 -233 Z " id="path3"/>
<path d="M 500 -19 Q 458 -19 417 -30 Q 376 -41 339.5 -62 Q 303 -83 273 -113 Q 243 -143 222 -179.5 Q 201 -216 190 -257 Q 179 -298 179 -340 Q 179 -382 190 -423 Q 201 -464 222 -500.5 Q 243 -537 273 -567 Q 303 -597 339.5 -618 Q 376 -639 417 -650 Q 458 -661 500 -661 Q 542 -661 583 -650 Q 624 -639 660.5 -618 Q 697 -597 727 -567 Q 757 -537 778 -500.5 Q 799 -464 810 -423 Q 821 -382 821 -340 Q 821 -298 810 -257 Q 799 -216 778 -179.5 Q 757 -143 727 -113 Q 697 -83 660.5 -62 Q 624 -41 583 -30 Q 542 -19 500 -19 Z M 500 -78 Q 534 -78 567.5 -87 Q 601 -96 631 -113.5 Q 661 -131 685 -155 Q 709 -179 726.5 -209 Q 744 -239 753 -272.5 Q 762 -306 762 -340 Q 762 -374 753 -407.5 Q 744 -441 726.5 -471 Q 709 -501 685 -525 Q 661 -549 631 -566.5 Q 601 -584 567.5 -593 Q 534 -602 500 -602 Q 466 -602 432.5 -593 Q 399 -584 369 -566.5 Q 339 -549 315 -525 Q 291 -501 273.5 -471 Q 256 -441 247 -407.5 Q 238 -374 238 -340 Q 238 -306 247 -272.5 Q 256 -239 273.5 -209 Q 291 -179 315 -155 Q 339 -131 369 -113.5 Q 399 -96 432.5 -87 Q 466 -78 500 -78 Z " id="path4"/>
<path d="M 289 -93 L 42 -340 L 289 -587 L 331 -549 L 146 -373 L 942 -373 L 942 -307 L 146 -307 L 331 -131 Z " id="path5"/>
<path d="M 711 -93 L 669 -131 L 854 -307 L 58 -307 L 58 -373 L 854 -373 L 669 -549 L 711 -587 L 958 -340 Z " id="path6"/>
<path d="M 467 102 L 467 -694 L 291 -509 L 253 -551 L 500 -798 L 747 -551 L 709 -509 L 533 -694 L 533 102 Z " id="path7"/>
<path d="M 500 118 L 253 -129 L 291 -171 L 467 14 L 467 -782 L 533 -782 L 533 14 L 709 -171 L 747 -129 Z " id="path8"/>
</defs>
<g>
<g data-source-text="∆" fill="#20242e" transform="translate(40 104.99201) rotate(0) scale(0.09599999)">
<use href="#path1" transform="translate(0 0)"/>
</g>
</g>
<g>
<g data-source-text="∇" fill="#20242e" transform="translate(168 104.99201) rotate(0) scale(0.09599999)">
<use href="#path2" transform="translate(0 0)"/>
</g>
</g>
<g>
<g data-source-text="∊" fill="#20242e" transform="translate(296 104.99201) rotate(0) scale(0.09599999)">
<use href="#path3" transform="translate(0 0)"/>
</g>
</g>
<g>
<g data-source-text="○" fill="#20242e" transform="translate(400 104.99201) rotate(0) scale(0.09599999)">
<use href="#path4" transform="translate(0 0)"/>
</g>
</g>
<g>
<g data-source-text="←" fill="#20242e" transform="translate(528 104.99201) rotate(0) scale(0.09599999)">
<use href="#path5" transform="translate(0 0)"/>
</g>
</g>
<g>
<g data-source-text="→" fill="#20242e" transform="translate(656 104.99201) rotate(0) scale(0.09599999)">
<use href="#path6" transform="translate(0 0)"/>
</g>
</g>
<g>
<g data-source-text="↑" fill="#20242e" transform="translate(784 104.99201) rotate(0) scale(0.09599999)">
<use href="#path7" transform="translate(0 0)"/>
</g>
</g>
<g>
<g data-source-text="↓" fill="#20242e" transform="translate(912 104.99201) rotate(0) scale(0.09599999)">
<use href="#path8" transform="translate(0 0)"/>
</g>
</g>
</svg>