<?xml version="1.0" encoding="UTF-8" standalone="no"?>
<svg height="160" viewBox="0 0 128 160" width="128" xmlns="http://www.w3.org/2000/svg">
<defs>
<path d="M 433 77 L 250 77 Q 222 77 194 72.5 Q 166 68 140 56.5 Q 114 45 92.5 26 Q 71 7 57 -17.5 Q 43 -42 37.5 -70 Q 32 -98 32 -126 L 32 -554 Q 32 -582 37.5 -610 Q 43 -638 57 -662.5 Q 71 -687 92.5 -706 Q 114 -725 140 -736.5 Q 166 -748 194 -752.5 Q 222 -757 250 -757 Q 278 -757 306 -752.5 Q 334 -748 360 -736.5 Q 386 -725 407.5 -706 Q 429 -687 443 -662.5 Q 457 -638 462.5 -610 Q 468 -582 468 -554 L 468 -186 Q 468 -166 461 -147.5 Q 454 -129 439 -116.5 Q 424 -104 405 -99.5 Q 386 -95 367 -95 L 250 -95 Q 232 -95 214 -99.5 Q 196 -104 182 -115.5 Q 168 -127 161.5 -144.5 Q 155 -162 155 -180 L 155 -459 Q 155 -478 161 -496.5 Q 167 -515 180.5 -528 Q 194 -541 212.5 -546.5 Q 231 -552 250 -552 Q 269 -552 287.5 -546.5 Q 306 -541 319.5 -528 Q 333 -515 339 -496.5 Q 345 -478 345 -459 L 345 -155 L 367 -155 Q 373 -155 379.5 -157 Q 386 -159 391 -163 Q 396 -167 398 -173 Q 400 -179 400 -186 L 400 -554 Q 400 -573 396.5 -592 Q 393 -611 383 -628 Q 373 -645 358 -658 Q 343 -671 325.5 -678.5 Q 308 -686 288.5 -689 Q 269 -692 250 -692 Q 231 -692 211.5 -689 Q 192 -686 174.5 -678.5 Q 157 -671 142 -658 Q 127 -645 117 -628 Q 107 -611 103.5 -592 Q 100 -573 100 -554 L 100 -126 Q 100 -107 104 -88.5 Q 108 -70 118 -53.5 Q 128 -37 143 -25 Q 158 -13 175.5 -6 Q 193 1 212 4 Q 231 7 250 7 L 433 7 Z M 250 -155 L 278 -155 L 278 -459 Q 278 -465 276.5 -471 Q 275 -477 271.5 -482 Q 268 -487 262 -489.5 Q 256 -492 250 -492 Q 244 -492 238 -489.5 Q 232 -487 228.5 -482 Q 225 -477 223.5 -471 Q 222 -465 222 -459 L 222 -180 Q 222 -175 224 -170 Q 226 -165 230 -161.5 Q 234 -158 239.5 -156.5 Q 245 -155 250 -155 Z " id="path1"/>
</defs>
<g>
<g data-source-text="@" fill="#20242e" transform="translate(40 104.99201) rotate(0) scale(0.09599999)">
<use href="#path1" transform="translate(0 0)"/>
</g>
</g>
</svg>