<?xml version="1.0" encoding="UTF-8" standalone="no"?>
<svg height="160" viewBox="0 0 1024 160" width="1024" xmlns="http://www.w3.org/2000/svg">
<defs>
<path d="M 44 -42 L 205 -638 L 295 -638 L 456 -42 Z M 143 -112 L 357 -112 L 275 -439 Q 268 -464 262 -489 Q 256 -514 250 -539 Q 244 -514 238 -489 Q 232 -464 225 -439 Z " id="path1"/>
<path d="M 205 -42 L 44 -638 L 456 -638 L 295 -42 Z M 250 -141 L 262 -191 Q 265 -204 267.5 -213 Q 270 -222 272 -229 L 357 -568 L 143 -568 L 225 -241 Q 229 -229 232 -216.5 Q 235 -204 238 -191 Z " id="path2"/>
<path d="M 436 0 L 324 0 Q 289 0 253.5 -6 Q 218 -12 186 -27 Q 154 -42 128 -67 Q 102 -92 85.5 -123 Q 69 -154 62.5 -189.5 Q 56 -225 56 -260 Q 56 -295 62.5 -330.5 Q 69 -366 85.5 -397 Q 102 -428 128 -453 Q 154 -478 186 -493 Q 218 -508 253.5 -514 Q 289 -520 324 -520 L 436 -520 L 436 -462 L 324 -462 Q 299 -462 274.5 -458 Q 250 -454 227.5 -444 Q 205 -434 185.5 -418.5 Q 166 -403 152.5 -382.5 Q 139 -362 132 -338 Q 125 -314 122 -289 L 436 -289 L 436 -231 L 122 -231 Q 125 -206 132 -182 Q 139 -158 152.5 -137.5 Q 166 -117 185.5 -101.5 Q 205 -86 227.5 -76 Q 250 -66 274.5 -62 Q 299 -58 324 -58 L 436 -58 Z " id="path3"/>
<path d="M 250 -130 Q 223 -130 196 -137 Q 169 -144 145 -158 Q 121 -172 101.5 -191.5 Q 82 -211 68 -235 Q 54 -259 47 -286 Q 40 -313 40 -340 Q 40 -367 47 -394 Q 54 -421 68 -445 Q 82 -469 101.5 -488.5 Q 121 -508 145 -522 Q 169 -536 196 -543 Q 223 -550 250 -550 Q 277 -550 304 -543 Q 331 -536 355 -522 Q 379 -508 398.5 -488.5 Q 418 -469 432 -445 Q 446 -421 453 -394 Q 460 -367 460 -340 Q 460 -313 453 -286 Q 446 -259 432 -235 Q 418 -211 398.5 -191.5 Q 379 -172 355 -158 Q 331 -144 304 -137 Q 277 -130 250 -130 Z M 250 -191 Q 279 -191 307 -202.5 Q 335 -214 355.5 -234.5 Q 376 -255 387.5 -283 Q 399 -311 399 -340 Q 399 -369 387.5 -397 Q 376 -425 355.5 -445.5 Q 335 -466 307 -477.5 Q 279 -489 250 -489 Q 221 -489 193 -477.5 Q 165 -466 144.5 -445.5 Q 124 -425 112.5 -397 Q 101 -369 101 -340 Q 101 -311 112.5 -283 Q 124 -255 144.5 -234.5 Q 165 -214 193 -202.5 Q 221 -191 250 -191 Z " id="path4"/>
<path d="M 178 -162 L 0 -340 L 178 -518 L 216 -484 L 111 -375 L 484 -375 L 484 -305 L 111 -305 L 216 -196 Z " id="path5"/>
<path d="M 322 -162 L 284 -196 L 389 -305 L 16 -305 L 16 -375 L 389 -375 L 284 -484 L 322 -518 L 500 -340 Z " id="path6"/>
<path d="M 215 11 L 215 -596 L 106 -491 L 72 -529 L 250 -707 L 428 -529 L 394 -491 L 285 -596 L 285 11 Z " id="path7"/>
<path d="M 250 27 L 72 -151 L 106 -189 L 215 -84 L 215 -691 L 285 -691 L 285 -84 L 394 -189 L 428 -151 Z " id="path8"/>
</defs>
<g>
<g data-source-text="∆" fill="#dee4e3" transform="translate(40 104.99201) rotate(0) scale(0.09599999)">
<use href="#path1" transform="translate(0 0)"/>
</g>
</g>
<g>
<g data-source-text="∇" fill="#dee4e3" transform="translate(168 104.99201) rotate(0) scale(0.09599999)">
<use href="#path2" transform="translate(0 0)"/>
</g>
</g>
<g>
<g data-source-text="∊" fill="#dee4e3" transform="translate(296 104.99201) rotate(0) scale(0.09599999)">
<use href="#path3" transform="translate(0 0)"/>
</g>
</g>
<g>
<g data-source-text="○" fill="#dee4e3" transform="translate(424 104.99201) rotate(0) scale(0.09599999)">
<use href="#path4" transform="translate(0 0)"/>
</g>
</g>
<g>
<g data-source-text="←" fill="#dee4e3" transform="translate(552 104.99201) rotate(0) scale(0.09599999)">
<use href="#path5" transform="translate(0 0)"/>
</g>
</g>
<g>
<g data-source-text="→" fill="#dee4e3" transform="translate(680 104.99201) rotate(0) scale(0.09599999)">
<use href="#path6" transform="translate(0 0)"/>
</g>
</g>
<g>
<g data-source-text="↑" fill="#dee4e3" transform="translate(808 104.99201) rotate(0) scale(0.09599999)">
<use href="#path7" transform="translate(0 0)"/>
</g>
</g>
<g>
<g data-source-text="↓" fill="#dee4e3" transform="translate(936 104.99201) rotate(0) scale(0.09599999)">
<use href="#path8" transform="translate(0 0)"/>
</g>
</g>
</svg>