<?xml version="1.0" encoding="UTF-8" standalone="no"?>
<svg height="160" viewBox="0 0 128 160" width="128" xmlns="http://www.w3.org/2000/svg">
<defs>
<path d="M 423 77 L 250 77 Q 222 77 195 72.5 Q 168 68 143 56 Q 118 44 97.5 24.5 Q 77 5 64.5 -19.5 Q 52 -44 47 -71.5 Q 42 -99 42 -126 L 42 -554 Q 42 -581 47 -608.5 Q 52 -636 64.5 -660.5 Q 77 -685 97.5 -704.5 Q 118 -724 143 -736 Q 168 -748 195 -752.5 Q 222 -757 250 -757 Q 278 -757 305 -752.5 Q 332 -748 357 -736 Q 382 -724 402.5 -704.5 Q 423 -685 435.5 -660.5 Q 448 -636 453 -608.5 Q 458 -581 458 -554 L 458 -200 Q 458 -177 450 -156 Q 442 -135 425 -120.5 Q 408 -106 386 -100.5 Q 364 -95 342 -95 L 248 -95 Q 234 -95 223 -104.5 Q 212 -114 206 -127 Q 200 -140 198.5 -154 Q 197 -168 197 -182 L 197 -457 Q 197 -467 197.5 -477 Q 198 -487 200 -497 Q 202 -507 205.5 -516.5 Q 209 -526 215 -534.5 Q 221 -543 230.5 -547.5 Q 240 -552 250 -552 Q 260 -552 269.5 -547.5 Q 279 -543 285 -534.5 Q 291 -526 294.5 -516.5 Q 298 -507 300 -497 Q 302 -487 302.5 -477 Q 303 -467 303 -457 L 303 -165 L 342 -165 Q 349 -165 356.5 -166.5 Q 364 -168 369.5 -173 Q 375 -178 377.5 -185 Q 380 -192 380 -200 L 380 -554 Q 380 -572 377 -589.5 Q 374 -607 366.5 -622.5 Q 359 -638 346.5 -651 Q 334 -664 318.5 -672.5 Q 303 -681 285.5 -684 Q 268 -687 250 -687 Q 232 -687 214.5 -684 Q 197 -681 181.5 -672.5 Q 166 -664 153.5 -651 Q 141 -638 133.5 -622.5 Q 126 -607 123 -589.5 Q 120 -572 120 -554 L 120 -126 Q 120 -108 123 -90.5 Q 126 -73 133.5 -57.5 Q 141 -42 153.5 -29 Q 166 -16 181.5 -8 Q 197 -0 214.5 3.5 Q 232 7 250 7 L 423 7 Z " id="path1"/>
</defs>
<g>
<g data-source-text="@" fill="#dee4e3" transform="translate(40 104.99201) rotate(0) scale(0.09599999)">
<use href="#path1" transform="translate(0 0)"/>
</g>
</g>
</svg>