<?xml version="1.0" encoding="UTF-8" standalone="no"?>
<svg height="160" viewBox="0 0 128 160" width="128" xmlns="http://www.w3.org/2000/svg">
<defs>
<path d="M 432 128 L 250 128 Q 222 128 194 123.5 Q 166 119 140 107.5 Q 114 96 92.5 77 Q 71 58 57.5 33.5 Q 44 9 38.5 -19 Q 33 -47 33 -75 L 33 -605 Q 33 -633 38.5 -661 Q 44 -689 57.5 -713.5 Q 71 -738 92.5 -757 Q 114 -776 140 -787.5 Q 166 -799 194 -803.5 Q 222 -808 250 -808 Q 278 -808 306 -803.5 Q 334 -799 360 -787.5 Q 386 -776 407.5 -757 Q 429 -738 442.5 -713.5 Q 456 -689 461.5 -661 Q 467 -633 467 -605 L 467 -154 Q 467 -135 460.5 -116.5 Q 454 -98 439.5 -86 Q 425 -74 406 -69 Q 387 -64 368 -64 L 250 -64 Q 232 -64 214 -68.5 Q 196 -73 182.5 -84.5 Q 169 -96 162.5 -113.5 Q 156 -131 156 -149 L 156 -485 Q 156 -504 161.5 -522.5 Q 167 -541 180.5 -554 Q 194 -567 212.5 -572.5 Q 231 -578 250 -578 Q 269 -578 287.5 -572.5 Q 306 -567 319.5 -554 Q 333 -541 338.5 -522.5 Q 344 -504 344 -485 L 344 -124 L 368 -124 Q 374 -124 380.5 -125.5 Q 387 -127 392 -131 Q 397 -135 399 -141 Q 401 -147 401 -154 L 401 -605 Q 401 -624 397 -643.5 Q 393 -663 383.5 -680.5 Q 374 -698 359.5 -711 Q 345 -724 327 -732.5 Q 309 -741 289.5 -744 Q 270 -747 250 -747 Q 230 -747 210.5 -744 Q 191 -741 173 -732.5 Q 155 -724 140.5 -711 Q 126 -698 116.5 -680.5 Q 107 -663 103 -643.5 Q 99 -624 99 -605 L 99 -75 Q 99 -56 103 -37 Q 107 -18 117 -2 Q 127 14 142.5 26 Q 158 38 175.5 45 Q 193 52 212 55 Q 231 58 250 58 L 432 58 Z M 278 -124 L 278 -485 Q 278 -491 277 -497.5 Q 276 -504 272 -508.5 Q 268 -513 262 -515.5 Q 256 -518 250 -518 Q 244 -518 238 -515.5 Q 232 -513 228 -508.5 Q 224 -504 223 -497.5 Q 222 -491 222 -485 L 222 -149 Q 222 -144 224 -138.5 Q 226 -133 230 -129.5 Q 234 -126 239.5 -125 Q 245 -124 250 -124 Z " id="path1"/>
</defs>
<g>
<g data-source-text="@" fill="#dee4e3" transform="translate(40 104.99201) rotate(0) scale(0.09599999)">
<use href="#path1" transform="translate(0 0)"/>
</g>
</g>
</svg>