<?xml version="1.0" encoding="UTF-8" standalone="no"?>
<svg height="160" viewBox="0 0 128 160" width="128" xmlns="http://www.w3.org/2000/svg">
<defs>
<path d="M 203 8 Q 178 8 154.5 0.5 Q 131 -7 112.5 -22.5 Q 94 -38 81.5 -59 Q 69 -80 61.5 -103.5 Q 54 -127 51 -151 Q 48 -175 48 -200 Q 48 -228 53 -256.5 Q 58 -285 71.5 -309.5 Q 85 -334 107 -353 Q 129 -372 155 -383 Q 132 -394 113.5 -411.5 Q 95 -429 83.5 -451 Q 72 -473 68 -498 Q 64 -523 64 -548 Q 64 -573 68 -597.5 Q 72 -622 81.5 -644.5 Q 91 -667 106.5 -686.5 Q 122 -706 143 -719 Q 164 -732 188.5 -737.5 Q 213 -743 238 -743 Q 269 -743 300 -735.5 Q 331 -728 356 -709 Q 381 -690 394.5 -660.5 Q 408 -631 409 -600 L 331 -600 Q 331 -617 323 -632 Q 315 -647 301 -656.5 Q 287 -666 270.5 -669.5 Q 254 -673 238 -673 Q 223 -673 208 -669 Q 193 -665 181.5 -655.5 Q 170 -646 162 -633 Q 154 -620 149.5 -605.5 Q 145 -591 143.5 -576.5 Q 142 -562 142 -547 Q 142 -523 147 -499 Q 152 -475 166.5 -455.5 Q 181 -436 203.5 -426.5 Q 226 -417 250 -417 L 329 -417 L 329 -486 L 407 -486 L 407 -417 L 454 -417 L 454 -347 L 407 -347 L 407 -93 Q 407 -87 409 -81 Q 411 -75 415.5 -70.5 Q 420 -66 426 -64 Q 432 -62 438 -62 L 453 -62 L 453 8 L 438 8 Q 420 8 402.5 4.5 Q 385 1 370 -9 Q 355 -19 345 -34 Q 335 -49 331 -67 Q 322 -49 308.5 -34.5 Q 295 -20 278 -10 Q 261 -0 241.5 4 Q 222 8 203 8 Z M 228 -62 Q 243 -62 258 -66 Q 273 -70 285.5 -79 Q 298 -88 307 -101 Q 316 -114 321 -129 Q 326 -144 327.5 -159 Q 329 -174 329 -190 L 329 -347 L 250 -347 Q 232 -347 214 -343 Q 196 -339 181 -329.5 Q 166 -320 154.5 -305 Q 143 -290 136.5 -273.5 Q 130 -257 128 -238.5 Q 126 -220 126 -202 Q 126 -186 127.5 -169.5 Q 129 -153 134 -137.5 Q 139 -122 147 -108 Q 155 -94 167.5 -83 Q 180 -72 195.5 -67 Q 211 -62 228 -62 Z " id="path1"/>
</defs>
<g>
<g data-source-text="&amp;" fill="#20242e" transform="translate(40 104.99201) rotate(0) scale(0.09599999)">
<use href="#path1" transform="translate(0 0)"/>
</g>
</g>
</svg>