<svg xmlns="http://www.w3.org/2000/svg" height="160" viewBox="0 0 128 160" width="128"><defs><path d="M 250 -434.00003 C 239.33334 -434.00003 228.83334 -435.66666 218.5 -439.00003 C 208.16667 -442.3333 199.33334 -447.8333 192 -455.50003 C 184.66666 -463.16666 179.66666 -472.1667 177.00002 -482.5 C 174.33334 -492.8333 173 -503.33334 173 -514.00006 C 173 -539.3334 175.83333 -564.50006 181.5 -589.5 C 187.16666 -614.5 195 -638.8334 205.00002 -662.50006 C 215 -686.1667 226.83334 -708.8334 240.5 -730.5 C 254.16666 -752.1666 269 -772.99994 285 -793 L 343.00003 -748 C 321.6667 -724.6666 302.33334 -699.6667 285 -673.00006 C 267.66666 -646.3333 254.66666 -618 246.00002 -588.00006 C 246.66667 -588.00006 247.49998 -588.00006 248.50002 -588.00006 C 249.5 -588.00006 250.33334 -588.00006 251.00002 -588.00006 C 261 -588.00006 271 -586.3334 281 -583.00006 C 291 -579.6667 299.66666 -574.5 307 -567.5 C 314.33334 -560.5 319.50003 -551.8333 322.50003 -541.5 C 325.50003 -531.1666 327 -521 327 -511 C 327 -500.3333 325.50003 -490.00003 322.50003 -480.00003 C 319.50003 -470 314.33334 -461.33334 307 -454 C 299.66666 -446.66666 291 -441.5 281 -438.50003 C 271 -435.5 260.66666 -434.00003 250 -434.00003 Z " id="path1"/></defs><g><g fill="#ffffff" transform="translate(40 105.20961) rotate(0)"><use href="#path1" transform="translate(0 0) scale(0.09599999)"/></g></g></svg>