<svg xmlns="http://www.w3.org/2000/svg" height="160" viewBox="0 0 128 160" width="128"><defs><path d="M 329 41.000004 C 321.66666 41 314.33334 40 307 38 C 299.66666 36.000004 293 32.833332 287 28.500002 C 281 24.166666 275.83334 19 271.50003 13.000001 C 267.16666 7 263.5 0.4999998 260.5 -6.5000005 C 257.5 -13.5 255.16666 -20.5 253.50002 -27.500002 C 251.83333 -34.5 250.33334 -41.666668 249 -49 C 245.66667 -41 241.83334 -33.333332 237.50002 -26.000002 C 233.16666 -18.666668 227.83334 -12.333334 221.5 -7 C 215.16666 -1.6666669 207.83334 2.1666667 199.50002 4.5000005 C 191.16667 6.833333 182.66667 8 174.00002 8 C 157.33334 8 141.33333 4.1666665 126 -3.5 C 110.66668 -11.166667 98.166664 -21.833334 88.50001 -35.5 C 78.833336 -49.166664 72.333336 -64.33333 69 -81 C 65.666664 -97.666664 64 -114.333336 64 -131 L 64 -365.00003 C 64 -381.6667 65.666664 -398.3333 69 -415 C 72.333336 -431.66672 78.833336 -446.83334 88.50001 -460.50003 C 98.166664 -474.16666 110.66668 -484.83334 126 -492.5 C 141.33333 -500.16666 157.33334 -503.99997 174.00002 -504 C 180.66667 -503.99997 187.16666 -503.33334 193.50002 -502.00003 C 199.83334 -500.6667 206 -498.5 212 -495.50003 C 218 -492.5 223.16667 -488.5 227.50002 -483.50003 C 231.83334 -478.49997 235.66669 -473.33334 239.00002 -468.00003 L 245.00002 -496.00003 L 292 -496.00003 L 292 -98 C 292 -91.333336 292.33334 -84.333336 293 -77.00001 C 293.6667 -69.666664 295.1667 -62.666668 297.5 -56 C 299.8333 -49.333336 303.5 -43 308.50003 -37 C 313.50003 -31 319.6667 -27.999998 327 -28 C 333.66666 -27.999998 339.33334 -31 344.00003 -37 C 348.6667 -43 352 -49.5 354.00003 -56.500004 C 356 -63.5 357.3333 -70.5 358 -77.5 C 358.66666 -84.5 359.00003 -91.333336 359.00003 -98 L 359.00003 -540 C 359.00003 -556.6667 357.33334 -573 354.00003 -589 C 350.6667 -605 344.1667 -619.6667 334.5 -633.00006 C 324.83334 -646.3333 312.1667 -656.49994 296.50003 -663.5 C 280.83334 -670.5 265 -673.99994 249 -674.00006 C 233.66667 -673.99994 218.83333 -671.5 204.5 -666.50006 C 190.16667 -661.5 178.00002 -653.5 168.00002 -642.5 C 158 -631.5 150.66666 -618.8334 146 -604.50006 C 141.33333 -590.1667 139 -575.3334 139 -560.00006 C 139 -560.00006 139 -559.8334 139 -559.50006 C 139 -559.1667 139 -559 139 -559.00006 L 62.000004 -559.00006 C 62.000004 -559 62.000004 -559.3333 62.000004 -560.00006 C 62.000004 -560.6667 62.000004 -560.99994 62.000004 -561 C 62.000004 -577.6667 63.83334 -594 67.5 -610.00006 C 71.166664 -626 76.83333 -641.3334 84.50001 -656.00006 C 92.166664 -670.6666 102 -683.8333 114.00001 -695.5 C 125.99999 -707.1667 139.16666 -716.5 153.5 -723.50006 C 167.83333 -730.49994 183.16667 -735.49994 199.50002 -738.50006 C 215.83333 -741.5 232.33333 -743.00006 249 -743.00006 C 266.33334 -743.00006 283.66666 -741.3334 301 -738 C 318.33334 -734.6667 334.5 -728.5 349.50003 -719.5 C 364.50003 -710.5 377.83337 -699.3334 389.50003 -686.00006 C 401.1667 -672.6666 410.49997 -658 417.50003 -642 C 424.5 -626 429.33334 -609.3333 432 -592 C 434.66666 -574.6667 435.99997 -557.3333 436 -540 L 436 -98 C 435.99997 -82 434.33334 -65.666664 431 -49 C 427.6667 -32.333336 421.49997 -17.166666 412.5 -3.5 C 403.5 10.166666 391.5 20.999998 376.50003 29 C 361.50003 37 345.66666 41 329 41.000004 Z M 178 -61 C 185.33334 -61 191.66667 -63.833332 197.00002 -69.5 C 202.33334 -75.166664 206.16667 -81.33333 208.50002 -88 C 210.83334 -94.666664 212.5 -101.66667 213.50002 -109 C 214.5 -116.33333 215 -123.666664 215 -131 L 215 -365.00003 C 215 -372.33334 214.5 -379.66666 213.50002 -387.00003 C 212.5 -394.33334 210.83334 -401.33334 208.50002 -408 C 206.16667 -414.66666 202.33334 -420.83337 197.00002 -426.50003 C 191.66667 -432.16666 185.33334 -435.00003 178 -435.00003 C 170.66666 -435.00003 164.33333 -432.16666 159 -426.50003 C 153.66667 -420.83337 149.66667 -414.66666 147.00002 -408 C 144.33334 -401.33334 142.66666 -394.33334 142 -387.00003 C 141.33333 -379.66666 141 -372.33334 141 -365.00003 L 141 -131 C 141 -123.666664 141.33333 -116.33333 142 -109 C 142.66666 -101.66667 144.33334 -94.666664 147.00002 -88 C 149.66667 -81.33333 153.66667 -75.166664 159 -69.5 C 164.33333 -63.833332 170.66666 -61 178 -61 Z " id="path1"/></defs><g><g fill="#ffffff" transform="translate(40 105.20961) rotate(0)"><use href="#path1" transform="translate(0 0) scale(0.09599999)"/></g></g></svg>