<?xml version="1.0" encoding="UTF-8" standalone="no"?>
<svg height="160" viewBox="0 0 128 160" width="128" xmlns="http://www.w3.org/2000/svg">
<defs>
<path d="M 215 -421 L 157 -466 Q 159 -468 161 -470.5 Q 163 -473 166 -476 L 175 -486 Q 177 -488 179 -491 Q 181 -494 183 -496 L 191 -507 Q 195 -513 198.5 -518 Q 202 -523 206 -529 Q 210 -535 214 -540 Q 218 -545 222 -551 L 229 -563 Q 230 -566 232 -569 Q 234 -572 235 -575 L 242 -588 Q 243 -591 244 -593.5 Q 245 -596 246 -596 L 246 -598 L 248 -603 L 254 -626 L 249 -626 Q 245 -626 241 -626 Q 237 -626 233 -626.5 Q 229 -627 225.5 -628.5 Q 222 -630 218 -631 Q 214 -632 210.5 -634 Q 207 -636 204 -638 Q 201 -640 198 -642.5 Q 195 -645 192 -648 Q 189 -651 186.5 -654 Q 184 -657 182.5 -660.5 Q 181 -664 179.5 -667.5 Q 178 -671 177 -675 Q 176 -679 174.5 -684.5 Q 173 -690 173 -691 L 173 -703 Q 173 -707 173 -711 Q 173 -715 174 -719 Q 175 -723 175.5 -727 Q 176 -731 177.5 -734.5 Q 179 -738 180.5 -741.5 Q 182 -745 184.5 -748.5 Q 187 -752 189.5 -755 Q 192 -758 194.5 -761 Q 197 -764 200.5 -766.5 Q 204 -769 207.5 -770.5 Q 211 -772 214.5 -773.5 Q 218 -775 222 -776.5 Q 226 -778 231.5 -779 Q 237 -780 238 -780 L 250 -780 Q 254 -780 258 -779.5 Q 262 -779 266 -778.5 Q 270 -778 274.5 -777.5 Q 279 -777 282.5 -775.5 Q 286 -774 290 -772.5 Q 294 -771 297.5 -768.5 Q 301 -766 304 -763.5 Q 307 -761 309.5 -758 Q 312 -755 314.5 -751.5 Q 317 -748 319 -744 Q 321 -740 322 -736.5 Q 323 -733 324 -729 Q 325 -725 326 -719.5 Q 327 -714 327 -712 L 327 -700 Q 327 -678 324.5 -656 Q 322 -634 316 -612 L 311 -595 Q 309 -591 308 -587 Q 307 -583 305 -578 L 299 -561 Q 296 -553 292.5 -545.5 Q 289 -538 285 -530 L 277 -514 Q 271 -501 263.5 -489.5 Q 256 -478 249 -467 L 238 -451 Q 235 -446 233 -443.5 Q 231 -441 231 -440 L 229 -439 L 227 -436 Z " id="path1"/>
</defs>
<g>
<g data-source-text="&apos;" fill="#dee4e3" transform="translate(40 104.99201) rotate(0) scale(0.09599999)">
<use href="#path1" transform="translate(0 0)"/>
</g>
</g>
</svg>