<?xml version="1.0" encoding="UTF-8" standalone="no"?>
<svg height="160" viewBox="0 0 128 160" width="128" xmlns="http://www.w3.org/2000/svg">
<defs>
<path d="M 214 8 Q 183 8 152.5 -0.5 Q 122 -9 99.5 -30 Q 77 -51 66.5 -81.5 Q 56 -112 56 -143 Q 56 -168 62.5 -193 Q 69 -218 85 -237.5 Q 101 -257 123 -270.5 Q 145 -284 169 -292 Q 193 -300 218 -303 Q 243 -306 269 -306 L 358 -306 L 358 -355 Q 358 -377 350 -398 Q 342 -419 325.5 -433 Q 309 -447 287 -452.5 Q 265 -458 243 -458 Q 214 -458 186 -450.5 Q 158 -443 133 -429 L 133 -326 L 64 -326 L 64 -471 Q 103 -498 149 -513 Q 195 -528 243 -528 Q 268 -528 292.5 -524.5 Q 317 -521 339.5 -511.5 Q 362 -502 381 -486 Q 400 -470 413 -449 Q 426 -428 431 -403.5 Q 436 -379 436 -355 L 436 0 L 358 0 L 358 -86 Q 350 -65 335.5 -46.5 Q 321 -28 302 -15 Q 283 -2 260 3 Q 237 8 214 8 Z M 246 -62 Q 269 -62 291.5 -69.5 Q 314 -77 329.5 -94 Q 345 -111 351.5 -134 Q 358 -157 358 -180 L 358 -236 L 269 -236 Q 254 -236 239 -234.5 Q 224 -233 209.5 -229.5 Q 195 -226 181 -220 Q 167 -214 156 -204 Q 145 -194 139.5 -179.5 Q 134 -165 134 -150 Q 134 -130 143 -111.5 Q 152 -93 168.5 -81.5 Q 185 -70 205 -66 Q 225 -62 246 -62 Z " id="path1"/>
</defs>
<g>
<g data-source-text="a" fill="#dee4e3" transform="translate(40 104.99201) rotate(0) scale(0.09599999)">
<use href="#path1" transform="translate(0 0)"/>
</g>
</g>
</svg>