<?xml version="1.0" encoding="UTF-8" standalone="no"?>
<svg height="160" viewBox="0 0 128 160" width="128" xmlns="http://www.w3.org/2000/svg">
<defs>
<path d="M 242 8 Q 220 8 197.5 4.5 Q 175 1 153.5 -7 Q 132 -15 113 -28 Q 94 -41 81 -59.5 Q 68 -78 62 -100 Q 56 -122 56 -145 Q 56 -170 63 -194.5 Q 70 -219 86 -238.5 Q 102 -258 123.5 -271.5 Q 145 -285 169 -292.5 Q 193 -300 218 -303 Q 243 -306 269 -306 L 358 -306 L 358 -355 Q 358 -376 351.5 -396.5 Q 345 -417 329 -431.5 Q 313 -446 292 -452 Q 271 -458 250 -458 Q 222 -458 194.5 -452 Q 167 -446 141 -435 L 141 -328 L 64 -328 L 64 -474 Q 106 -500 153.5 -514 Q 201 -528 250 -528 Q 274 -528 298 -524.5 Q 322 -521 344 -511 Q 366 -501 384.5 -484.5 Q 403 -468 414.5 -447 Q 426 -426 431 -402.5 Q 436 -379 436 -355 L 436 -46 Q 392 -21 342.5 -6.5 Q 293 8 242 8 Z M 244 -62 Q 274 -62 302.5 -69 Q 331 -76 358 -87 L 358 -236 L 269 -236 Q 254 -236 239 -234.5 Q 224 -233 209.5 -229.5 Q 195 -226 181 -220 Q 167 -214 156 -204 Q 145 -194 139.5 -179.5 Q 134 -165 134 -150 Q 134 -130 143 -111.5 Q 152 -93 168.5 -82 Q 185 -71 204.5 -66.5 Q 224 -62 244 -62 Z " id="path1"/>
</defs>
<g>
<g data-source-text="a" fill="#dee4e3" transform="translate(40 104.99201) rotate(0) scale(0.09599999)">
<use href="#path1" transform="translate(0 0)"/>
</g>
</g>
</svg>