<?xml version="1.0" encoding="UTF-8" standalone="no"?>
<svg height="160" viewBox="0 0 128 160" width="128" xmlns="http://www.w3.org/2000/svg">
<defs>
<path d="M 401 77 L 250 77 Q 224 77 198 71.5 Q 172 66 149.5 53 Q 127 40 110 20 Q 93 0 82.5 -24 Q 72 -48 68 -74 Q 64 -100 64 -126 L 64 -554 Q 64 -580 68 -606 Q 72 -632 82.5 -656 Q 93 -680 110 -700 Q 127 -720 149.5 -733 Q 172 -746 198 -751.5 Q 224 -757 250 -757 Q 276 -757 302 -751.5 Q 328 -746 350.5 -733 Q 373 -720 390 -700 Q 407 -680 417.5 -656 Q 428 -632 432 -606 Q 436 -580 436 -554 L 436 -202 Q 436 -188 434.5 -174.5 Q 433 -161 428.5 -147.5 Q 424 -134 416.5 -122.5 Q 409 -111 398 -102.5 Q 387 -94 373.5 -90.5 Q 360 -87 346 -87 Q 325 -87 305 -95.5 Q 285 -104 272 -121 Q 259 -138 254.5 -159.5 Q 250 -181 250 -202 L 250 -437 Q 250 -459 254.5 -480 Q 259 -501 272 -518 Q 285 -535 305 -543.5 Q 325 -552 347 -552 L 359 -552 L 359 -554 Q 359 -570 357 -586 Q 355 -602 349.5 -617.5 Q 344 -633 334.5 -646.5 Q 325 -660 311.5 -669.5 Q 298 -679 282 -683 Q 266 -687 250 -687 Q 234 -687 218 -683 Q 202 -679 188.5 -669.5 Q 175 -660 165.5 -646.5 Q 156 -633 150.5 -617.5 Q 145 -602 143 -586 Q 141 -570 141 -554 L 141 -126 Q 141 -110 143 -93.5 Q 145 -77 150.5 -62 Q 156 -47 165.5 -33.5 Q 175 -20 188.5 -10.5 Q 202 -1 218 3 Q 234 7 250 7 L 401 7 Z " id="path1"/>
</defs>
<g>
<g data-source-text="@" fill="#20242e" transform="translate(40 104.99201) rotate(0) scale(0.09599999)">
<use href="#path1" transform="translate(0 0)"/>
</g>
</g>
</svg>