<?xml version="1.0" encoding="UTF-8" standalone="no"?>
<svg height="160" viewBox="0 0 128 160" width="128" xmlns="http://www.w3.org/2000/svg">
<defs>
<path d="M 401 77 L 250 77 Q 224 77 198 71.5 Q 172 66 149.5 53 Q 127 40 110 20 Q 93 0 82.5 -24 Q 72 -48 68 -74 Q 64 -100 64 -126 L 64 -554 Q 64 -580 68 -606 Q 72 -632 82.5 -656 Q 93 -680 110 -700 Q 127 -720 149.5 -733 Q 172 -746 198 -751.5 Q 224 -757 250 -757 Q 276 -757 302 -751.5 Q 328 -746 350.5 -733 Q 373 -720 390 -700 Q 407 -680 417.5 -656 Q 428 -632 432 -606 Q 436 -580 436 -554 L 436 -202 Q 436 -181 431.5 -160 Q 427 -139 415 -122 Q 403 -105 383.5 -96 Q 364 -87 343 -87 Q 322 -87 302.5 -96 Q 283 -105 271 -122 Q 259 -139 254.5 -160 Q 250 -181 250 -202 L 250 -437 Q 250 -459 254.5 -480 Q 259 -501 272 -518 Q 285 -535 305 -543.5 Q 325 -552 347 -552 L 367 -552 L 367 -554 Q 367 -571 364.5 -587.5 Q 362 -604 355.5 -619.5 Q 349 -635 338.5 -648.5 Q 328 -662 314 -671 Q 300 -680 283.5 -683.5 Q 267 -687 250 -687 Q 233 -687 216.5 -683.5 Q 200 -680 186 -671 Q 172 -662 161.5 -648.5 Q 151 -635 144.5 -619.5 Q 138 -604 135.5 -587.5 Q 133 -571 133 -554 L 133 -126 Q 133 -109 135.5 -92.5 Q 138 -76 144.5 -60.5 Q 151 -45 161.5 -31.5 Q 172 -18 186 -9.5 Q 200 -1 216.5 3 Q 233 7 250 7 L 401 7 Z " id="path1"/>
</defs>
<g>
<g data-source-text="@" fill="#20242e" transform="translate(40 104.99201) rotate(0) scale(0.09599999)">
<use href="#path1" transform="translate(0 0)"/>
</g>
</g>
</svg>