<?xml version="1.0" encoding="UTF-8" standalone="no"?>
<svg height="160" viewBox="0 0 128 160" width="128" xmlns="http://www.w3.org/2000/svg">
<defs>
<path d="M 250 -434 Q 244 -434 238.5 -434.5 Q 233 -435 227 -436 Q 221 -437 215.5 -439 Q 210 -441 205 -444 Q 200 -447 195.5 -451 Q 191 -455 187.5 -459.5 Q 184 -464 181.5 -469 Q 179 -474 177.5 -479.5 Q 176 -485 174.5 -492.5 Q 173 -500 173 -503 L 173 -514 Q 173 -523 173.5 -532 Q 174 -541 175 -549.5 Q 176 -558 177.5 -567 Q 179 -576 180.5 -584.5 Q 182 -593 184.5 -601.5 Q 187 -610 189.5 -618.5 Q 192 -627 195 -635.5 Q 198 -644 201 -652.5 Q 204 -661 207.5 -668.5 Q 211 -676 215 -684 Q 219 -692 223 -700 Q 227 -708 231.5 -715.5 Q 236 -723 241 -731 Q 246 -739 251 -746.5 Q 256 -754 262 -763 Q 268 -772 271 -775 L 273 -778 L 285 -793 L 343 -748 Q 339 -743 334.5 -738 Q 330 -733 325.5 -728 Q 321 -723 317 -717.5 Q 313 -712 309 -706.5 Q 305 -701 301.5 -696 Q 298 -691 294 -685 Q 290 -679 286 -674 Q 282 -669 278.5 -663 Q 275 -657 271.5 -651 Q 268 -645 265 -639 Q 262 -633 258.5 -626 Q 255 -619 254 -616 L 252 -611 L 246 -588 L 251 -588 Q 256 -588 262 -587.5 Q 268 -587 273.5 -585.5 Q 279 -584 284 -582 Q 289 -580 293.5 -577.5 Q 298 -575 302.5 -571 Q 307 -567 311 -563 Q 315 -559 317 -554.5 Q 319 -550 321 -544.5 Q 323 -539 325 -531.5 Q 327 -524 327 -522 L 327 -511 Q 327 -505 326.5 -499.5 Q 326 -494 325 -488.5 Q 324 -483 322 -477.5 Q 320 -472 317 -467 Q 314 -462 310.5 -458 Q 307 -454 302.5 -450 Q 298 -446 293.5 -443.5 Q 289 -441 283.5 -439 Q 278 -437 270.5 -435.5 Q 263 -434 261 -434 Z " id="path1"/>
</defs>
<g>
<g data-source-text="`" fill="#dee4e3" transform="translate(40 104.99201) rotate(0) scale(0.09599999)">
<use href="#path1" transform="translate(0 0)"/>
</g>
</g>
</svg>