<svg xmlns="http://www.w3.org/2000/svg" height="160" viewBox="0 0 128 160" width="128"><defs><path d="M 231.00002 8 C 215 8 199 6.3333335 183.00002 3 C 167 -0.33333325 152.16667 -6.166667 138.50002 -14.5 C 124.83333 -22.833334 112.66667 -33.333332 102 -46 C 91.333336 -58.666668 82.66667 -72.333336 76 -87.00001 C 69.33333 -101.666664 64.166664 -116.833336 60.500004 -132.5 C 56.83334 -148.16666 55.000004 -164.33333 55.000004 -181 C 55.000004 -201 58.166668 -220.66667 64.5 -240.00002 C 70.833336 -259.3333 79.166664 -277.66666 89.5 -295 C 99.833336 -312.33334 111.833336 -328.5 125.50001 -343.50003 C 139.16666 -358.5 152.99998 -373.33334 167 -388.00003 C 157 -403.33334 147 -418.83334 137.00002 -434.50003 C 127 -450.16663 118.00001 -466.3333 110.00001 -483 C 102 -499.66666 95.33334 -517 90.00001 -535 C 84.66667 -553 82 -571 82.00001 -589 C 82 -609 85.166664 -628.8333 91.50001 -648.5 C 97.833336 -668.1667 107.833336 -685.5 121.50001 -700.50006 C 135.16667 -715.5 151.66667 -726.3333 171.00002 -733.00006 C 190.33333 -739.6666 210 -743.00006 230 -743.00006 C 251.33334 -743.00006 272 -739.3333 292 -732.00006 C 312 -724.6667 328.6667 -713 342.00003 -697.00006 C 355.33334 -681 364.66663 -662.6667 370.00003 -642 C 375.3333 -621.3334 378.00003 -600.6667 378.00003 -580 L 300.00003 -580 C 300 -591.3333 299 -602.3333 297.00003 -613 C 295 -623.6667 291.1667 -633.6666 285.50003 -643 C 279.8333 -652.3334 272 -659.6667 262 -665 C 252 -670.3333 241.33333 -673.00006 230 -673.00006 C 220 -673.00006 210.16666 -670.6667 200.50002 -666 C 190.83334 -661.3333 183.00002 -654.8333 177.00002 -646.5 C 171.00002 -638.1667 166.66667 -628.8334 164.00002 -618.5 C 161.33334 -608.1667 160.00002 -597.6667 160.00002 -587 C 160.00002 -573 162.16667 -559.00006 166.5 -545 C 170.83333 -531 176.33333 -517.5 183.00002 -504.5 C 189.66667 -491.5 197 -478.83334 205.00002 -466.50003 C 213 -454.16666 221 -442 229 -430 C 237 -418 244.83331 -405.6667 252.5 -393.00003 C 260.16666 -380.33334 267.66666 -368 275 -356 L 360.00003 -210 L 399.00003 -311.00003 L 481 -311.00003 L 421.00003 -155 C 419 -150.33333 417.1667 -145.5 415.50003 -140.5 C 413.8333 -135.5 412 -130.66666 410.00003 -126 L 483 0 L 396 0 L 357 -65.00001 C 346.99997 -48.33334 334.33334 -33.833336 319.00003 -21.500002 C 303.66666 -9.166668 286.66666 -0.6666665 268 4 L 262 5.0000005 L 255 6 C 251 6.6666665 247 7.1666665 243.00002 7.5000005 C 239.00002 7.8333335 235 8 231.00002 8 Z M 236.00002 -62.000004 C 245.33333 -62.000004 254.5 -63.666668 263.5 -67 C 272.5 -70.333336 280.6667 -74.66667 288.00003 -80.00001 C 295.33334 -85.33333 302 -91.666664 308.00003 -99 C 314.00003 -106.333336 319.33334 -114.333336 324 -123.00001 L 208.00002 -320.00003 C 207.33333 -321.33334 206.66667 -322.33334 206.00002 -323 C 205.33334 -323.66666 205.00002 -324.3333 205.00002 -325.00003 C 195 -315.6667 185.66667 -305.6667 177.00002 -295 C 168.33334 -284.33334 160.66667 -273 154.00002 -261 C 147.33334 -249 142.16667 -236.33334 138.50002 -223.00002 C 134.83333 -209.66667 133 -196 133 -182 C 133 -167.33333 135 -152.66667 139 -138 C 143 -123.333336 149.5 -110 158.50002 -98 C 167.50003 -86.00001 179 -77.00001 193 -71 C 207 -65 221.33333 -62.000004 236.00002 -62.000004 Z " id="path1"/></defs><g><g fill="#ffffff" transform="translate(40 105.20961) rotate(0)"><use href="#path1" transform="translate(0 0) scale(0.09599999)"/></g></g></svg>