<?xml version="1.0" encoding="UTF-8" standalone="no"?>
<svg height="160" viewBox="0 0 128 160" width="128" xmlns="http://www.w3.org/2000/svg">
<defs>
<path d="M 250 -434 Q 234 -434 218.5 -439 Q 203 -444 192 -455.5 Q 181 -467 177 -482.5 Q 173 -498 173 -514 Q 173 -552 181.5 -589.5 Q 190 -627 205 -662.5 Q 220 -698 240.5 -730.5 Q 261 -763 285 -793 L 343 -748 Q 311 -713 285 -673 Q 259 -633 246 -588 L 251 -588 Q 266 -588 281 -583 Q 296 -578 307 -567.5 Q 318 -557 322.5 -541.5 Q 327 -526 327 -511 Q 327 -495 322.5 -480 Q 318 -465 307 -454 Q 296 -443 281 -438.5 Q 266 -434 250 -434 Z " id="path1"/>
</defs>
<g>
<g data-source-text="`" fill="#dee4e3" transform="translate(40 104.99201) rotate(0) scale(0.09599999)">
<use href="#path1" transform="translate(0 0)"/>
</g>
</g>
</svg>