<?xml version="1.0" encoding="UTF-8" standalone="no"?>
<svg height="160" viewBox="0 0 128 160" width="128" xmlns="http://www.w3.org/2000/svg">
<defs>
<path d="M 235 8 Q 211 8 186.5 3 Q 162 -2 141 -14.5 Q 120 -27 103.5 -45.5 Q 87 -64 76.5 -86.5 Q 66 -109 61 -133.5 Q 56 -158 56 -182 Q 56 -213 64 -242.5 Q 72 -272 87.5 -298 Q 103 -324 123.5 -346.5 Q 144 -369 166 -390 Q 151 -413 136.5 -436 Q 122 -459 110 -484 Q 98 -509 90 -535.5 Q 82 -562 82 -589 Q 82 -619 91.5 -648.5 Q 101 -678 121.5 -700.5 Q 142 -723 171 -733 Q 200 -743 230 -743 Q 261 -743 290 -733 Q 319 -723 339.5 -700.5 Q 360 -678 369 -648.5 Q 378 -619 378 -589 Q 378 -558 369 -528 Q 360 -498 344 -472 Q 328 -446 307 -423.5 Q 286 -401 263 -380.5 Q 240 -360 216.5 -339.5 Q 193 -319 174 -295 Q 155 -271 143 -242 Q 131 -213 131 -183 Q 131 -160 137 -137.5 Q 143 -115 156.5 -97 Q 170 -79 191.5 -69.5 Q 213 -60 235 -60 Q 252 -60 267.5 -64.5 Q 283 -69 296 -78.5 Q 309 -88 317.5 -102 Q 326 -116 331 -131.5 Q 336 -147 338 -163 Q 340 -179 340 -195 L 340 -268 L 283 -268 L 283 -331 L 454 -331 L 454 -268 L 415 -268 L 415 -195 Q 415 -169 411.5 -143.5 Q 408 -118 398 -94.5 Q 388 -71 372 -50.5 Q 356 -30 334 -16.5 Q 312 -3 286.5 2.5 Q 261 8 235 8 Z M 221 -439 Q 237 -454 251.5 -470 Q 266 -486 277.5 -505 Q 289 -524 296 -545 Q 303 -566 303 -588 Q 303 -604 299 -620 Q 295 -636 285.5 -649 Q 276 -662 261 -668.5 Q 246 -675 230 -675 Q 214 -675 199 -668.5 Q 184 -662 174.5 -648.5 Q 165 -635 161.5 -619.5 Q 158 -604 158 -588 Q 158 -567 163.5 -547 Q 169 -527 178 -508.5 Q 187 -490 198 -473 Q 209 -456 221 -439 Z " id="path1"/>
</defs>
<g>
<g data-source-text="&amp;" fill="#20242e" transform="translate(40 104.99201) rotate(0) scale(0.09599999)">
<use href="#path1" transform="translate(0 0)"/>
</g>
</g>
</svg>