<?xml version="1.0" encoding="UTF-8" standalone="no"?>
<svg height="160" viewBox="0 0 128 160" width="128" xmlns="http://www.w3.org/2000/svg">
<defs>
<path d="M 251 8 Q 228 8 204.5 5.5 Q 181 3 159 -4 Q 137 -11 117.5 -23.5 Q 98 -36 83.5 -54 Q 69 -72 62.5 -95 Q 56 -118 56 -141 Q 56 -166 63 -191 Q 70 -216 85.5 -236 Q 101 -256 123 -270 Q 145 -284 169 -292 Q 193 -300 218 -303 Q 243 -306 269 -306 L 358 -306 L 358 -355 Q 358 -377 350 -398 Q 342 -419 325.5 -433 Q 309 -447 287 -452.5 Q 265 -458 243 -458 Q 214 -458 186 -450.5 Q 158 -443 133 -429 L 133 -375 L 64 -375 L 64 -471 Q 103 -498 149 -513 Q 195 -528 243 -528 Q 268 -528 292.5 -524.5 Q 317 -521 339.5 -511.5 Q 362 -502 381 -486 Q 400 -470 413 -449 Q 426 -428 431 -403.5 Q 436 -379 436 -355 L 436 -49 Q 395 -22 347.5 -7 Q 300 8 251 8 Z M 251 -62 Q 279 -62 306 -68.5 Q 333 -75 358 -87 L 358 -236 L 269 -236 Q 253 -236 238 -234.5 Q 223 -233 208.5 -229 Q 194 -225 180 -218.5 Q 166 -212 155.5 -201.5 Q 145 -191 139.5 -176.5 Q 134 -162 134 -146 Q 134 -133 138 -119.5 Q 142 -106 151 -96 Q 160 -86 172 -79.5 Q 184 -73 197 -69 Q 210 -65 223.5 -63.5 Q 237 -62 251 -62 Z " id="path1"/>
</defs>
<g>
<g data-source-text="a" fill="#dee4e3" transform="translate(40 104.99201) rotate(0) scale(0.09599999)">
<use href="#path1" transform="translate(0 0)"/>
</g>
</g>
</svg>