<svg xmlns="http://www.w3.org/2000/svg" height="160" viewBox="0 0 128 160" width="128"><defs><path d="M 231 8 Q 207 8 183 3 Q 159 -2 138 -14.5 Q 117 -27 101 -46 Q 85 -65 75.5 -87.5 Q 66 -110 61 -134 Q 56 -158 56 -182 Q 56 -212 64 -241.5 Q 72 -271 87 -297.5 Q 102 -324 122.5 -347 Q 143 -370 165 -390 Q 151 -413 136 -436.5 Q 121 -460 109 -484.5 Q 97 -509 89.5 -535.5 Q 82 -562 82 -589 Q 82 -619 91.5 -648.5 Q 101 -678 121.5 -700.5 Q 142 -723 171 -733 Q 200 -743 230 -743 Q 261 -743 290 -733 Q 319 -723 339.5 -700.5 Q 360 -678 369 -648.5 Q 378 -619 378 -589 Q 378 -557 368.5 -527 Q 359 -497 343 -470.5 Q 327 -444 306 -421.5 Q 285 -399 262 -378 Q 265 -372 268 -366.5 Q 271 -361 275 -356 L 360 -210 L 399 -311 L 481 -311 L 421 -155 Q 418 -148 415.5 -140.5 Q 413 -133 410 -126 L 483 0 L 396 0 L 357 -65 Q 342 -40 319 -21.5 Q 296 -3 268 4 L 262 5 L 255 6 Q 249 7 243 7.5 Q 237 8 231 8 Z M 221 -441 Q 237 -456 251 -472 Q 265 -488 276 -506.5 Q 287 -525 293.5 -545.5 Q 300 -566 300 -588 Q 300 -603 296.5 -618.5 Q 293 -634 284 -646.5 Q 275 -659 260.5 -666 Q 246 -673 230 -673 Q 215 -673 200.5 -666 Q 186 -659 177 -646.5 Q 168 -634 164 -618.5 Q 160 -603 160 -587 Q 160 -567 165.5 -547.5 Q 171 -528 180 -510 Q 189 -492 199.5 -475 Q 210 -458 221 -441 Z M 236 -62 Q 250 -62 263.5 -67 Q 277 -72 288 -80 Q 299 -88 308 -99 Q 317 -110 324 -123 L 208 -320 Q 207 -322 206 -323.5 Q 205 -325 204 -326 Q 190 -312 177 -296 Q 164 -280 154 -261.5 Q 144 -243 138.5 -223 Q 133 -203 133 -183 Q 133 -160 139 -138 Q 145 -116 158.5 -98.5 Q 172 -81 193 -71.5 Q 214 -62 236 -62 Z " id="path1"/></defs><g><g fill="#dee4e3" transform="translate(40 105.20961) rotate(0)"><use href="#path1" transform="translate(0 0) scale(0.09599999)"/></g></g></svg>