<?xml version="1.0" encoding="UTF-8" standalone="no"?>
<svg height="160" viewBox="0 0 128 160" width="128" xmlns="http://www.w3.org/2000/svg">
<defs>
<path d="M 432 77 L 250 77 Q 222 77 194 72.5 Q 166 68 140 56.5 Q 114 45 92.5 26 Q 71 7 57.5 -17.5 Q 44 -42 38.5 -70 Q 33 -98 33 -126 L 33 -554 Q 33 -582 38.5 -610 Q 44 -638 57.5 -662.5 Q 71 -687 92.5 -706 Q 114 -725 140 -736.5 Q 166 -748 194 -752.5 Q 222 -757 250 -757 Q 278 -757 306 -752.5 Q 334 -748 360 -736.5 Q 386 -725 407.5 -706 Q 429 -687 442.5 -662.5 Q 456 -638 461.5 -610 Q 467 -582 467 -554 L 467 -184 Q 467 -165 460.5 -147 Q 454 -129 439.5 -116.5 Q 425 -104 406 -99.5 Q 387 -95 368 -95 L 250 -95 Q 232 -95 214 -99.5 Q 196 -104 182.5 -115.5 Q 169 -127 162.5 -144 Q 156 -161 156 -179 L 156 -460 Q 156 -478 161.5 -496.5 Q 167 -515 180.5 -528 Q 194 -541 212.5 -546.5 Q 231 -552 250 -552 Q 269 -552 287.5 -546.5 Q 306 -541 319.5 -528 Q 333 -515 338.5 -496.5 Q 344 -478 344 -460 L 344 -154 L 368 -154 Q 374 -154 380.5 -155.5 Q 387 -157 392 -161.5 Q 397 -166 399 -172 Q 401 -178 401 -184 L 401 -554 Q 401 -574 397 -593 Q 393 -612 383.5 -629.5 Q 374 -647 359.5 -660 Q 345 -673 327 -681.5 Q 309 -690 289.5 -693 Q 270 -696 250 -696 Q 230 -696 210.5 -693 Q 191 -690 173 -681.5 Q 155 -673 140.5 -660 Q 126 -647 116.5 -629.5 Q 107 -612 103 -593 Q 99 -574 99 -554 L 99 -126 Q 99 -107 103 -88 Q 107 -69 117 -53 Q 127 -37 142.5 -25 Q 158 -13 175.5 -6 Q 193 1 212 4 Q 231 7 250 7 L 432 7 Z M 250 -154 L 278 -154 L 278 -460 Q 278 -466 277 -472 Q 276 -478 272 -483 Q 268 -488 262 -490.5 Q 256 -493 250 -493 Q 244 -493 238 -490.5 Q 232 -488 228 -483 Q 224 -478 223 -472 Q 222 -466 222 -460 L 222 -179 Q 222 -174 224 -169 Q 226 -164 230 -160.5 Q 234 -157 239.5 -155.5 Q 245 -154 250 -154 Z " id="path1"/>
</defs>
<g>
<g data-source-text="@" fill="#dee4e3" transform="translate(40 104.99201) rotate(0) scale(0.09599999)">
<use href="#path1" transform="translate(0 0)"/>
</g>
</g>
</svg>