<?xml version="1.0" encoding="UTF-8" standalone="no"?>
<svg height="160" viewBox="0 0 128 160" width="128" xmlns="http://www.w3.org/2000/svg">
<defs>
<path d="M 236 8 Q 209 8 182.5 1 Q 156 -6 134.5 -21.5 Q 113 -37 97.5 -59.5 Q 82 -82 73 -107.5 Q 64 -133 60 -159.5 Q 56 -186 56 -213 L 56 -221 Q 57 -248 61.5 -274 Q 66 -300 77 -324.5 Q 88 -349 106 -369 Q 124 -389 147.5 -402 Q 171 -415 197 -420.5 Q 223 -426 250 -426 L 276 -426 L 92 -665 L 92 -735 L 436 -735 L 436 -665 L 177 -665 L 362 -426 L 362 -356 L 250 -356 Q 233 -356 216 -352 Q 199 -348 185 -338 Q 171 -328 161 -314 Q 151 -300 145 -284 Q 139 -268 136.5 -251 Q 134 -234 134 -217 Q 134 -199 136 -181.5 Q 138 -164 142.5 -147 Q 147 -130 155 -114.5 Q 163 -99 176 -86.5 Q 189 -74 205.5 -68 Q 222 -62 240 -62 Q 263 -62 285.5 -71.5 Q 308 -81 322 -100 Q 336 -119 341 -142.5 Q 346 -166 346 -189 L 346 -232 L 283 -232 L 283 -294 L 454 -294 L 454 -232 L 415 -232 L 415 -189 Q 415 -164 411.5 -139 Q 408 -114 398 -90.5 Q 388 -67 371.5 -47.5 Q 355 -28 333 -15 Q 311 -2 286 3 Q 261 8 236 8 Z " id="path1"/>
</defs>
<g>
<g data-source-text="&amp;" fill="#dee4e3" transform="translate(40 104.99201) rotate(0) scale(0.09599999)">
<use href="#path1" transform="translate(0 0)"/>
</g>
</g>
</svg>