<?xml version="1.0" encoding="UTF-8" standalone="no"?>
<svg height="160" viewBox="0 0 128 160" width="128" xmlns="http://www.w3.org/2000/svg">
<defs>
<path d="M 229 8 Q 205 8 180.5 2.5 Q 156 -3 135.5 -16.5 Q 115 -30 100 -50 Q 85 -70 75.5 -92.5 Q 66 -115 60.5 -139 Q 55 -163 55 -188 Q 55 -218 64 -246.5 Q 73 -275 88.5 -300.5 Q 104 -326 124 -348 Q 144 -370 165 -391 Q 151 -414 136 -437 Q 121 -460 109 -484.5 Q 97 -509 89.5 -535.5 Q 82 -562 82 -589 Q 82 -619 91.5 -648.5 Q 101 -678 121.5 -700.5 Q 142 -723 171 -733 Q 200 -743 230 -743 Q 251 -743 271.5 -738.5 Q 292 -734 310 -723.5 Q 328 -713 341.5 -697 Q 355 -681 363.5 -662 Q 372 -643 375 -622 Q 378 -601 378 -580 L 303 -580 Q 303 -597 299.5 -614 Q 296 -631 287 -645 Q 278 -659 262.5 -667 Q 247 -675 230 -675 Q 214 -675 199 -668.5 Q 184 -662 174.5 -648.5 Q 165 -635 161.5 -619.5 Q 158 -604 158 -588 Q 158 -566 164.5 -544.5 Q 171 -523 181 -503.5 Q 191 -484 203 -465.5 Q 215 -447 227 -429 Q 239 -411 250.5 -392.5 Q 262 -374 273 -355 L 363 -203 L 404 -309 L 481 -309 L 421 -155 Q 418 -147 415 -139.5 Q 412 -132 409 -125 L 483 0 L 398 0 L 362 -61 Q 348 -42 329.5 -26 Q 311 -10 288 -2 Q 274 3 259 5.5 Q 244 8 229 8 Z M 236 -60 Q 250 -60 264 -64.5 Q 278 -69 289.5 -77 Q 301 -85 310.5 -96 Q 320 -107 327 -120 L 209 -320 Q 207 -323 205.5 -326 Q 204 -329 202 -332 Q 187 -317 174 -301.5 Q 161 -286 151 -268 Q 141 -250 136 -230 Q 131 -210 131 -190 Q 131 -174 133.5 -158.5 Q 136 -143 141.5 -128.5 Q 147 -114 156 -100.5 Q 165 -87 177.5 -77.5 Q 190 -68 205 -64 Q 220 -60 236 -60 Z " id="path1"/>
</defs>
<g>
<g data-source-text="&amp;" fill="#20242e" transform="translate(40 104.99201) rotate(0) scale(0.09599999)">
<use href="#path1" transform="translate(0 0)"/>
</g>
</g>
</svg>