<?xml version="1.0" encoding="UTF-8" standalone="no"?>
<svg height="160" viewBox="0 0 128 160" width="128" xmlns="http://www.w3.org/2000/svg">
<defs>
<path d="M 249 8 Q 225 8 202 5 Q 179 2 157 -5.5 Q 135 -13 115.5 -26 Q 96 -39 82 -57.5 Q 68 -76 62 -99 Q 56 -122 56 -145 Q 56 -170 63 -194.5 Q 70 -219 86 -238.5 Q 102 -258 123.5 -271.5 Q 145 -285 169 -292.5 Q 193 -300 218 -303 Q 243 -306 269 -306 L 358 -306 L 358 -355 Q 358 -376 351 -397 Q 344 -418 328 -432 Q 312 -446 291 -452 Q 270 -458 249 -458 Q 230 -458 211 -454.5 Q 192 -451 175.5 -440.5 Q 159 -430 149.5 -413 Q 140 -396 140 -377 L 140 -375 L 62 -375 L 62 -378 Q 62 -401 69 -422.5 Q 76 -444 89 -462.5 Q 102 -481 120.5 -494 Q 139 -507 160.5 -514.5 Q 182 -522 204 -525 Q 226 -528 249 -528 Q 273 -528 297 -524.5 Q 321 -521 343 -511 Q 365 -501 383.5 -485 Q 402 -469 414 -448 Q 426 -427 431 -403 Q 436 -379 436 -355 L 436 -153 Q 436 -129 430.5 -106 Q 425 -83 412.5 -63.5 Q 400 -44 381 -29.5 Q 362 -15 340.5 -6.5 Q 319 2 295.5 5 Q 272 8 249 8 Z M 249 -62 Q 270 -62 290 -66.5 Q 310 -71 326 -83 Q 342 -95 350 -114 Q 358 -133 358 -153 L 358 -236 L 269 -236 Q 254 -236 239 -234.5 Q 224 -233 209.5 -229.5 Q 195 -226 181 -220 Q 167 -214 156 -204 Q 145 -194 139.5 -179.5 Q 134 -165 134 -150 Q 134 -130 143.5 -111 Q 153 -92 170.5 -81 Q 188 -70 208 -66 Q 228 -62 249 -62 Z " id="path1"/>
</defs>
<g>
<g data-source-text="a" fill="#20242e" transform="translate(40 104.99201) rotate(0) scale(0.09599999)">
<use href="#path1" transform="translate(0 0)"/>
</g>
</g>
</svg>