<?xml version="1.0" encoding="UTF-8" standalone="no"?>
<svg height="160" viewBox="0 0 128 160" width="128" xmlns="http://www.w3.org/2000/svg">
<defs>
<path d="M 238 8 Q 211 8 184.5 2.5 Q 158 -3 135 -17 Q 112 -31 94.5 -52 Q 77 -73 66.5 -97.5 Q 56 -122 52 -148.5 Q 48 -175 48 -202 Q 48 -230 53 -258 Q 58 -286 72 -310.5 Q 86 -335 107.5 -353.5 Q 129 -372 155 -383 Q 132 -394 113.5 -411.5 Q 95 -429 83.5 -451 Q 72 -473 68 -498 Q 64 -523 64 -548 Q 64 -573 68 -597.5 Q 72 -622 81.5 -644.5 Q 91 -667 106.5 -686.5 Q 122 -706 143 -719 Q 164 -732 188.5 -737.5 Q 213 -743 238 -743 Q 269 -743 300 -735.5 Q 331 -728 356 -709 Q 381 -690 394.5 -660.5 Q 408 -631 409 -600 L 331 -600 Q 331 -617 323 -632 Q 315 -647 301 -656.5 Q 287 -666 270.5 -669.5 Q 254 -673 238 -673 Q 223 -673 208 -669 Q 193 -665 181.5 -655.5 Q 170 -646 162 -633 Q 154 -620 149.5 -605.5 Q 145 -591 143.5 -576.5 Q 142 -562 142 -547 Q 142 -523 147 -499 Q 152 -475 166.5 -455.5 Q 181 -436 203.5 -426.5 Q 226 -417 250 -417 L 329 -417 L 329 -486 L 407 -486 L 407 -417 L 454 -417 L 454 -347 L 407 -347 L 407 -49 Q 371 -22 327 -7 Q 283 8 238 8 Z M 238 -62 Q 262 -62 285 -68 Q 308 -74 329 -85 L 329 -347 L 250 -347 Q 232 -347 214.5 -343 Q 197 -339 181.5 -329.5 Q 166 -320 155 -305.5 Q 144 -291 137 -274 Q 130 -257 128 -239 Q 126 -221 126 -203 Q 126 -186 128 -169 Q 130 -152 135.5 -136 Q 141 -120 150.5 -105.5 Q 160 -91 174 -81 Q 188 -71 204.5 -66.5 Q 221 -62 238 -62 Z " id="path1"/>
</defs>
<g>
<g data-source-text="&amp;" fill="#20242e" transform="translate(40 104.99201) rotate(0) scale(0.09599999)">
<use href="#path1" transform="translate(0 0)"/>
</g>
</g>
</svg>