<svg xmlns="http://www.w3.org/2000/svg" height="160" viewBox="0 0 896 160" width="896"><defs><path d="M 205.00002 -42.000004 L 151 -241 L 44 -638.00006 L 456.00003 -638.00006 L 349.00003 -241 L 295 -42.000004 Z M 250 -140.00002 C 254 -157.33334 258 -174.33334 262 -191.00002 C 266 -207.66669 270.33334 -224.33333 275 -241 L 357 -568 L 143 -568 L 225.00002 -241 C 229.66666 -224.33333 234 -207.66669 238 -191.00002 C 241.99998 -174.33334 246 -157.33334 250 -140.00002 Z " id="path2"/><path d="M 250 -130.00002 C 232 -130 214 -132.33334 196 -137.00002 C 178.00002 -141.66667 161.00002 -148.66667 145 -158 C 129 -167.33334 114.5 -178.50002 101.50001 -191.50002 C 88.50001 -204.5 77.333336 -219.00002 68 -235 C 58.666668 -251 51.666668 -268 47.000004 -286 C 42.333336 -304 40.000004 -322 40.000004 -340 C 40.000004 -357.99997 42.333336 -375.99997 47.000004 -394.00003 C 51.666668 -412 58.666668 -429 68 -445.00003 C 77.333336 -461.00003 88.50001 -475.5 101.50001 -488.5 C 114.5 -501.5 129 -512.6666 145 -522 C 161.00002 -531.3333 178.00002 -538.3334 196 -543.00006 C 214 -547.6666 232 -549.99994 250 -550 C 268 -549.99994 286 -547.6666 304 -543.00006 C 322.00003 -538.3334 339 -531.3333 355.00003 -522 C 370.99997 -512.6666 385.5 -501.5 398.50003 -488.5 C 411.5 -475.5 422.6667 -461.00003 432 -445.00003 C 441.33334 -429 448.33334 -412 453 -394.00003 C 457.66666 -375.99997 460 -357.99997 460 -340 C 460 -322 457.66666 -304 453 -286 C 448.33334 -268 441.33334 -251 432 -235 C 422.6667 -219.00002 411.5 -204.5 398.50003 -191.50002 C 385.5 -178.50002 370.99997 -167.33334 355.00003 -158 C 339 -148.66667 322.00003 -141.66667 304 -137.00002 C 286 -132.33334 268 -130 250 -130.00002 Z M 250 -191.00002 C 269.33334 -191.00002 288.33334 -194.83334 307 -202.50002 C 325.6667 -210.16666 341.83337 -220.83334 355.50003 -234.50002 C 369.16672 -248.16664 379.83334 -264.33334 387.50003 -283.00003 C 395.1667 -301.66666 399.00003 -320.6667 399.00003 -340 C 399.00003 -359.3333 395.1667 -378.33334 387.50003 -397 C 379.83334 -415.6667 369.16672 -431.8333 355.50003 -445.50003 C 341.83337 -459.16666 325.6667 -469.8333 307 -477.50003 C 288.33334 -485.16666 269.33334 -489.00003 250 -489.00003 C 230.66667 -489.00003 211.66667 -485.16666 193 -477.50003 C 174.33334 -469.8333 158.16667 -459.16666 144.5 -445.50003 C 130.83333 -431.8333 120.16667 -415.6667 112.50001 -397 C 104.833336 -378.33334 101.00001 -359.3333 101.00001 -340 C 101.00001 -320.6667 104.833336 -301.66666 112.50001 -283.00003 C 120.16667 -264.33334 130.83333 -248.16664 144.5 -234.50002 C 158.16667 -220.83334 174.33334 -210.16666 193 -202.50002 C 211.66667 -194.83334 230.66667 -191.00002 250 -191.00002 Z " id="path3"/><path d="M 178 -162 L 0 -340 L 178 -518 L 216 -484.00003 L 111.00001 -375 L 484.00003 -375 L 484.00003 -305.00003 L 111.00001 -305.00003 L 216 -196 Z " id="path4"/><path d="M 322.00003 -162 L 284 -196 L 389.00003 -305.00003 L 16 -305.00003 L 16 -375 L 389.00003 -375 L 284 -484.00003 L 322.00003 -518 L 500 -340 Z " id="path5"/><path d="M 215 11 L 215 -596 L 106 -491.00003 L 72.00001 -529 L 250 -707.00006 L 428.00003 -529 L 394.00003 -491.00003 L 285 -596 L 285 11 Z " id="path6"/><path d="M 250 27 L 72.00001 -151 L 106 -189.00002 L 215 -84.00001 L 215 -691 L 285 -691 L 285 -84.00001 L 394.00003 -189.00002 L 428.00003 -151 Z " id="path7"/><path d="M 456.00003 -42.000004 L 44 -42.000004 L 151 -439.00003 L 205.00002 -638.00006 L 295 -638.00006 L 349.00003 -439.00003 Z M 357 -112 L 275 -439.00003 C 270.33334 -455.66663 266 -472.3333 262 -489.00003 C 258 -505.66666 254 -522.6667 250 -540 C 246 -522.6667 241.99998 -505.66666 238 -489.00003 C 234 -472.3333 229.66666 -455.66663 225.00002 -439.00003 L 143 -112 Z " id="path1"/></defs><g><g fill="#000000" transform="translate(40 105.20961) rotate(0)"><use href="#path1" transform="translate(0 0) scale(0.09599999)"/></g><g fill="#000000" transform="translate(168 105.20961) rotate(0)"><use href="#path2" transform="translate(0 0) scale(0.09599999)"/></g><g fill="#000000" transform="translate(296 105.20961) rotate(0)"><use href="#path3" transform="translate(0 0) scale(0.09599999)"/></g><g fill="#000000" transform="translate(424 105.20961) rotate(0)"><use href="#path4" transform="translate(0 0) scale(0.09599999)"/></g><g fill="#000000" transform="translate(552 105.20961) rotate(0)"><use href="#path5" transform="translate(0 0) scale(0.09599999)"/></g><g fill="#000000" transform="translate(680 105.20961) rotate(0)"><use href="#path6" transform="translate(0 0) scale(0.09599999)"/></g><g fill="#000000" transform="translate(808 105.20961) rotate(0)"><use href="#path7" transform="translate(0 0) scale(0.09599999)"/></g></g></svg>