<?xml version="1.0" encoding="UTF-8" standalone="no"?>
<svg height="160" viewBox="0 0 128 160" width="128" xmlns="http://www.w3.org/2000/svg">
<defs>
<path d="M 401 128 L 250 128 Q 224 128 198 122.5 Q 172 117 149.5 104 Q 127 91 110 71 Q 93 51 82.5 27 Q 72 3 68 -23 Q 64 -49 64 -75 L 64 -605 Q 64 -631 68 -657 Q 72 -683 82.5 -707 Q 93 -731 110 -751 Q 127 -771 149.5 -784 Q 172 -797 198 -802.5 Q 224 -808 250 -808 Q 276 -808 302 -802.5 Q 328 -797 350.5 -784 Q 373 -771 390 -751 Q 407 -731 417.5 -707 Q 428 -683 432 -657 Q 436 -631 436 -605 L 436 -195 Q 436 -179 434 -162 Q 432 -145 426.5 -129 Q 421 -113 411.5 -99 Q 402 -85 389 -75 Q 376 -65 359 -60.5 Q 342 -56 326 -56 Q 308 -56 291.5 -60 Q 275 -64 260.5 -74 Q 246 -84 235.5 -98 Q 225 -112 219 -128 Q 213 -144 210.5 -161 Q 208 -178 208 -195 L 208 -439 Q 208 -456 210.5 -473 Q 213 -490 219 -506.5 Q 225 -523 235.5 -537 Q 246 -551 260.5 -560.5 Q 275 -570 292 -574 Q 309 -578 327 -578 L 359 -578 L 359 -605 Q 359 -621 357 -637 Q 355 -653 349.5 -668.5 Q 344 -684 334.5 -697.5 Q 325 -711 311.5 -720.5 Q 298 -730 282 -734 Q 266 -738 250 -738 Q 234 -738 218 -734 Q 202 -730 188.5 -720.5 Q 175 -711 165.5 -697.5 Q 156 -684 150.5 -668.5 Q 145 -653 143 -637 Q 141 -621 141 -605 L 141 -75 Q 141 -59 143 -42.5 Q 145 -26 150.5 -11 Q 156 4 165.5 17.5 Q 175 31 188.5 40.5 Q 202 50 218 54 Q 234 58 250 58 L 401 58 Z M 325 -125 Q 336 -125 343.5 -134 Q 351 -143 354 -153 Q 357 -163 358 -174 Q 359 -185 359 -195 L 359 -509 L 327 -509 Q 315 -509 306 -501.5 Q 297 -494 292.5 -483.5 Q 288 -473 286.5 -461.5 Q 285 -450 285 -439 L 285 -195 Q 285 -184 286.5 -173 Q 288 -162 292 -151.5 Q 296 -141 305 -133 Q 314 -125 325 -125 Z " id="path1"/>
</defs>
<g>
<g data-source-text="@" fill="#20242e" transform="translate(40 104.99201) rotate(0) scale(0.09599999)">
<use href="#path1" transform="translate(0 0)"/>
</g>
</g>
</svg>