<?xml version="1.0" encoding="UTF-8" standalone="no"?>
<svg height="160" viewBox="0 0 128 160" width="128" xmlns="http://www.w3.org/2000/svg">
<defs>
<path d="M 215 -421 L 157 -466 Q 189 -501 215 -541 Q 241 -581 254 -626 L 249 -626 Q 234 -626 219 -630.5 Q 204 -635 193 -646 Q 182 -657 177.5 -672 Q 173 -687 173 -703 Q 173 -718 177.5 -733.5 Q 182 -749 193 -760 Q 204 -771 219 -775.5 Q 234 -780 250 -780 Q 266 -780 281.5 -775 Q 297 -770 308 -758.5 Q 319 -747 323 -731.5 Q 327 -716 327 -700 Q 327 -661 318.5 -623.5 Q 310 -586 295 -551 Q 280 -516 259.5 -483.5 Q 239 -451 215 -421 Z " id="path1"/>
</defs>
<g>
<g data-source-text="&apos;" fill="#dee4e3" transform="translate(40 104.99201) rotate(0) scale(0.09599999)">
<use href="#path1" transform="translate(0 0)"/>
</g>
</g>
</svg>