<?xml version="1.0" encoding="UTF-8" standalone="no"?>
<svg height="160" viewBox="0 0 128 160" width="128" xmlns="http://www.w3.org/2000/svg">
<defs>
<path d="M 401 128 L 250 128 Q 224 128 198 122.5 Q 172 117 149.5 104 Q 127 91 110 71 Q 93 51 82.5 27 Q 72 3 68 -23 Q 64 -49 64 -75 L 64 -605 Q 64 -631 68 -657 Q 72 -683 82.5 -707 Q 93 -731 110 -751 Q 127 -771 149.5 -784 Q 172 -797 198 -802.5 Q 224 -808 250 -808 Q 276 -808 302 -802.5 Q 328 -797 350.5 -784 Q 373 -771 390 -751 Q 407 -731 417.5 -707 Q 428 -683 432 -657 Q 436 -631 436 -605 L 436 -194 Q 436 -177 434 -160 Q 432 -143 426 -127.5 Q 420 -112 410.5 -98 Q 401 -84 387.5 -74 Q 374 -64 357 -60 Q 340 -56 324 -56 Q 307 -56 290.5 -60 Q 274 -64 260 -74 Q 246 -84 236.5 -98 Q 227 -112 221.5 -127.5 Q 216 -143 213.5 -160 Q 211 -177 211 -194 L 211 -440 Q 211 -457 213.5 -474 Q 216 -491 222 -507 Q 228 -523 238.5 -537 Q 249 -551 263 -560.5 Q 277 -570 294 -574 Q 311 -578 328 -578 L 367 -578 L 367 -605 Q 367 -622 364.5 -638.5 Q 362 -655 355.5 -670.5 Q 349 -686 338.5 -699.5 Q 328 -713 314 -722 Q 300 -731 283.5 -734.5 Q 267 -738 250 -738 Q 233 -738 216.5 -734.5 Q 200 -731 186 -722 Q 172 -713 161.5 -699.5 Q 151 -686 144.5 -670.5 Q 138 -655 135.5 -638.5 Q 133 -622 133 -605 L 133 -75 Q 133 -58 135.5 -41.5 Q 138 -25 144.5 -9.5 Q 151 6 161.5 19.5 Q 172 33 186 41.5 Q 200 50 216.5 54 Q 233 58 250 58 L 401 58 Z M 324 -119 Q 336 -119 345.5 -127 Q 355 -135 359.5 -146 Q 364 -157 365.5 -169.5 Q 367 -182 367 -194 L 367 -515 L 328 -515 Q 316 -515 305.5 -507.5 Q 295 -500 289.5 -489 Q 284 -478 282.5 -465.5 Q 281 -453 281 -440 L 281 -194 Q 281 -182 282.5 -169.5 Q 284 -157 288.5 -146 Q 293 -135 302.5 -127 Q 312 -119 324 -119 Z " id="path1"/>
</defs>
<g>
<g data-source-text="@" fill="#20242e" transform="translate(40 104.99201) rotate(0) scale(0.09599999)">
<use href="#path1" transform="translate(0 0)"/>
</g>
</g>
</svg>