<?xml version="1.0" encoding="UTF-8" standalone="no"?>
<svg height="160" viewBox="0 0 128 160" width="128" xmlns="http://www.w3.org/2000/svg">
<defs>
<path d="M 329 41 Q 318 41 307 38 Q 296 35 287 28.5 Q 278 22 271.5 13 Q 265 4 260.5 -6.5 Q 256 -17 253.5 -27.5 Q 251 -38 249 -49 Q 244 -37 237.5 -26 Q 231 -15 221.5 -7 Q 212 1 199.5 4.5 Q 187 8 174 8 Q 158 8 141.5 3 Q 125 -2 111.5 -12 Q 98 -22 88.5 -36 Q 79 -50 73.5 -65.5 Q 68 -81 66 -98 Q 64 -115 64 -131 L 64 -365 Q 64 -382 66 -398.5 Q 68 -415 73.5 -430.5 Q 79 -446 88.5 -460.5 Q 98 -475 111.5 -485 Q 125 -495 141.5 -499.5 Q 158 -504 174 -504 Q 184 -504 193.5 -502 Q 203 -500 212 -495.5 Q 221 -491 227.5 -483.5 Q 234 -476 239 -468 L 245 -496 L 292 -496 L 292 -98 Q 292 -88 293 -77 Q 294 -66 297.5 -56 Q 301 -46 308.5 -37 Q 316 -28 327 -28 Q 337 -28 344 -37 Q 351 -46 354 -56.5 Q 357 -67 358 -77.5 Q 359 -88 359 -98 L 359 -540 Q 359 -565 354 -589 Q 349 -613 334.5 -633 Q 320 -653 296.5 -663.5 Q 273 -674 249 -674 Q 226 -674 204.5 -666.5 Q 183 -659 168 -642.5 Q 153 -626 146 -604.5 Q 139 -583 139 -560 L 139 -559 L 62 -559 L 62 -561 Q 62 -586 67.5 -610 Q 73 -634 84.5 -656 Q 96 -678 114 -695.5 Q 132 -713 153.5 -723.5 Q 175 -734 199.5 -738.5 Q 224 -743 249 -743 Q 275 -743 301 -738 Q 327 -733 349.5 -719.5 Q 372 -706 389.5 -686 Q 407 -666 417.5 -642 Q 428 -618 432 -592 Q 436 -566 436 -540 L 436 -98 Q 436 -74 431 -49 Q 426 -24 412.5 -3.5 Q 399 17 376.5 29 Q 354 41 329 41 Z M 178 -61 Q 189 -61 197 -69.5 Q 205 -78 208.5 -88 Q 212 -98 213.5 -109 Q 215 -120 215 -131 L 215 -365 Q 215 -376 213.5 -387 Q 212 -398 208.5 -408 Q 205 -418 197 -426.5 Q 189 -435 178 -435 Q 167 -435 159 -426.5 Q 151 -418 147 -408 Q 143 -398 142 -387 Q 141 -376 141 -365 L 141 -131 Q 141 -120 142 -109 Q 143 -98 147 -88 Q 151 -78 159 -69.5 Q 167 -61 178 -61 Z " id="path1"/>
</defs>
<g>
<g data-source-text="@" fill="#20242e" transform="translate(40 104.99201) rotate(0) scale(0.09599999)">
<use href="#path1" transform="translate(0 0)"/>
</g>
</g>
</svg>