<svg xmlns="http://www.w3.org/2000/svg" height="160" viewBox="0 0 128 160" width="128"><defs><path d="M 423.00003 128 L 250 128 C 231.33334 128 212.99998 126.49999 195 123.5 C 177.00002 120.49999 159.66667 114.99999 143 107.00001 C 126.33334 99 111.16666 88.49999 97.5 75.5 C 83.833336 62.5 72.833336 47.83333 64.5 31.5 C 56.16667 15.166667 50.333332 -2.1666675 47.000004 -20.500002 C 43.666668 -38.833332 42.000004 -57.000004 42.000004 -75.00001 L 42.000004 -605.00006 C 42.000004 -623 43.666668 -641.1667 47.000004 -659.5 C 50.333332 -677.8333 56.16667 -695.1667 64.5 -711.50006 C 72.833336 -727.8333 83.833336 -742.5 97.5 -755.5 C 111.16666 -768.50006 126.33334 -779 143 -787.00006 C 159.66667 -795 177.00002 -800.5 195 -803.50006 C 212.99998 -806.5 231.33334 -808.00006 250 -808.00006 C 268.66666 -808.00006 287 -806.5 305.00003 -803.50006 C 323 -800.5 340.3333 -795 357 -787.00006 C 373.6667 -779 388.83334 -768.50006 402.5 -755.5 C 416.1667 -742.5 427.1667 -727.8333 435.5 -711.50006 C 443.8333 -695.1667 449.6667 -677.8333 453 -659.5 C 456.33334 -641.1667 457.99997 -623 458 -605.00006 L 458 -169.00002 C 457.99997 -154.33334 455.3333 -139.83333 450.00003 -125.50001 C 444.6667 -111.16667 436.33334 -99.166664 425 -89.5 C 413.66666 -79.83333 400.66666 -73.166664 386 -69.5 C 371.33334 -65.833336 356.66666 -64 342.00003 -64 L 250 -64 C 250 -64 249.83333 -64 249.5 -64 C 249.16666 -64 248.66667 -64 248.00002 -64 C 238.66669 -64 230.33333 -67.16667 223.00002 -73.50001 C 215.66666 -79.833336 210 -87.333336 206.00002 -96 C 202.00002 -104.666664 199.50002 -113.666664 198.5 -123.00001 C 197.5 -132.33334 197.00002 -142 197.00002 -152 L 197.00002 -482 C 197.00002 -492 197.66667 -501.6667 199 -511 C 200.33333 -520.3334 202.83334 -529.5 206.5 -538.5 C 210.16666 -547.5 216 -555 224 -561 C 232 -567 240.66667 -570 250 -570 C 259.3333 -570 268 -567 276 -561 C 284 -555 289.83334 -547.5 293.5 -538.5 C 297.1667 -529.5 299.6667 -520.3334 301 -511 C 302.3333 -501.6667 302.99997 -492 303 -482 L 303 -134 L 342.00003 -134 C 346.66666 -134 351.5 -134.66667 356.5 -136 C 361.5 -137.33334 365.83334 -139.5 369.5 -142.5 C 373.16666 -145.50002 375.8333 -149.5 377.50003 -154.5 C 379.16666 -159.5 379.99997 -164.33333 380 -169.00002 L 380 -605.00006 C 379.99997 -616.3334 379 -628.00006 377.00003 -640.00006 C 375 -652 371.50003 -663.1666 366.50003 -673.5 C 361.50003 -683.8333 354.83334 -693.3333 346.5 -702 C 338.16666 -710.6667 328.8333 -717.8334 318.5 -723.50006 C 308.1667 -729.1667 297.1667 -733 285.50003 -735 C 273.8333 -737 262 -738 250 -738 C 238 -738 226.16666 -737 214.50002 -735 C 202.83334 -733 191.83334 -729.1667 181.5 -723.50006 C 171.16666 -717.8334 161.83333 -710.6667 153.5 -702 C 145.16666 -693.3333 138.5 -683.8333 133.5 -673.5 C 128.5 -663.1666 125 -652 123.00001 -640.00006 C 121.00001 -628.00006 120.00001 -616.3334 120.00001 -605.00006 L 120.00001 -75.00001 C 120.00001 -63.666664 121.00001 -51.999996 123.00001 -40.000004 C 125 -28 128.5 -16.833334 133.5 -6.5000005 C 138.5 3.8333333 145.16666 13.333333 153.5 22 C 161.83333 30.666668 171.16666 37.666668 181.5 43.000004 C 191.83334 48.333332 202.83334 52.166664 214.50002 54.5 C 226.16666 56.83333 238 58 250 58 L 423.00003 58 Z " id="path1"/></defs><g><g fill="#ffffff" transform="translate(40 105.20961) rotate(0)"><use href="#path1" transform="translate(0 0) scale(0.09599999)"/></g></g></svg>