<?xml version="1.0" encoding="UTF-8" standalone="no"?>
<svg height="160" viewBox="0 0 128 160" width="128" xmlns="http://www.w3.org/2000/svg">
<defs>
<path d="M 401 128 L 250 128 Q 224 128 198 122.5 Q 172 117 149.5 104 Q 127 91 110 71 Q 93 51 82.5 27 Q 72 3 68 -23 Q 64 -49 64 -75 L 64 -605 Q 64 -631 68 -657 Q 72 -683 82.5 -707 Q 93 -731 110 -751 Q 127 -771 149.5 -784 Q 172 -797 198 -802.5 Q 224 -808 250 -808 Q 276 -808 302 -802.5 Q 328 -797 350.5 -784 Q 373 -771 390 -751 Q 407 -731 417.5 -707 Q 428 -683 432 -657 Q 436 -631 436 -605 L 436 -195 Q 436 -178 434 -161 Q 432 -144 426 -128 Q 420 -112 410 -98 Q 400 -84 386.5 -74.5 Q 373 -65 356 -60.5 Q 339 -56 322 -56 Q 305 -56 288.5 -60.5 Q 272 -65 258 -74.5 Q 244 -84 234 -98 Q 224 -112 218.5 -128 Q 213 -144 210.5 -161 Q 208 -178 208 -195 L 208 -439 Q 208 -456 210.5 -473 Q 213 -490 219 -506.5 Q 225 -523 235.5 -537 Q 246 -551 260.5 -560.5 Q 275 -570 292 -574 Q 309 -578 327 -578 L 359 -578 L 359 -605 Q 359 -629 354 -653.5 Q 349 -678 334.5 -697.5 Q 320 -717 297 -727.5 Q 274 -738 250 -738 Q 226 -738 203 -727.5 Q 180 -717 165.5 -697.5 Q 151 -678 146 -653.5 Q 141 -629 141 -605 L 141 -75 Q 141 -51 146 -26.5 Q 151 -2 165.5 17.5 Q 180 37 203 47.5 Q 226 58 250 58 L 401 58 Z M 322 -125 Q 333 -125 341 -133.5 Q 349 -142 353 -152.5 Q 357 -163 358 -173.5 Q 359 -184 359 -195 L 359 -509 L 327 -509 Q 315 -509 306 -501.5 Q 297 -494 292.5 -483.5 Q 288 -473 286.5 -461.5 Q 285 -450 285 -439 L 285 -195 Q 285 -184 286.5 -173.5 Q 288 -163 291.5 -152.5 Q 295 -142 303 -133.5 Q 311 -125 322 -125 Z " id="path1"/>
</defs>
<g>
<g data-source-text="@" fill="#dee4e3" transform="translate(40 104.99201) rotate(0) scale(0.09599999)">
<use href="#path1" transform="translate(0 0)"/>
</g>
</g>
</svg>