<?xml version="1.0" encoding="UTF-8" standalone="no"?>
<svg height="160" viewBox="0 0 128 160" width="128" xmlns="http://www.w3.org/2000/svg">
<defs>
<path d="M 401 77 L 250 77 Q 224 77 198 71.5 Q 172 66 149.5 53 Q 127 40 110 20 Q 93 0 82.5 -24 Q 72 -48 68 -74 Q 64 -100 64 -126 L 64 -554 Q 64 -580 68 -606 Q 72 -632 82.5 -656 Q 93 -680 110 -700 Q 127 -720 149.5 -733 Q 172 -746 198 -751.5 Q 224 -757 250 -757 Q 276 -757 302 -751.5 Q 328 -746 350.5 -733 Q 373 -720 390 -700 Q 407 -680 417.5 -656 Q 428 -632 432 -606 Q 436 -580 436 -554 L 436 -226 Q 436 -209 434 -192 Q 432 -175 426 -159 Q 420 -143 410 -129 Q 400 -115 386.5 -105 Q 373 -95 356 -91 Q 339 -87 322 -87 Q 305 -87 288.5 -91 Q 272 -95 258 -105 Q 244 -115 234 -129 Q 224 -143 218.5 -159 Q 213 -175 210.5 -192 Q 208 -209 208 -226 L 208 -413 Q 208 -430 210.5 -447.5 Q 213 -465 219 -481 Q 225 -497 235.5 -511 Q 246 -525 260.5 -534.5 Q 275 -544 292 -548 Q 309 -552 327 -552 L 359 -552 L 359 -554 Q 359 -578 354 -602.5 Q 349 -627 334.5 -646.5 Q 320 -666 297 -676.5 Q 274 -687 250 -687 Q 226 -687 203 -676.5 Q 180 -666 165.5 -646.5 Q 151 -627 146 -602.5 Q 141 -578 141 -554 L 141 -126 Q 141 -102 146 -77.5 Q 151 -53 165.5 -33.5 Q 180 -14 203 -3.5 Q 226 7 250 7 L 401 7 Z M 322 -156 Q 333 -156 341 -164 Q 349 -172 353 -182.5 Q 357 -193 358 -204 Q 359 -215 359 -226 L 359 -483 L 327 -483 Q 315 -483 306 -475.5 Q 297 -468 292.5 -457.5 Q 288 -447 286.5 -436 Q 285 -425 285 -413 L 285 -226 Q 285 -215 286.5 -204 Q 288 -193 291.5 -182.5 Q 295 -172 303 -164 Q 311 -156 322 -156 Z " id="path1"/>
</defs>
<g>
<g data-source-text="@" fill="#dee4e3" transform="translate(40 104.99201) rotate(0) scale(0.09599999)">
<use href="#path1" transform="translate(0 0)"/>
</g>
</g>
</svg>