<?xml version="1.0" encoding="UTF-8" standalone="no"?>
<svg height="160" viewBox="0 0 128 160" width="128" xmlns="http://www.w3.org/2000/svg">
<defs>
<path d="M 235 8 Q 208 8 182 2 Q 156 -4 133 -18 Q 110 -32 93 -52.5 Q 76 -73 66 -98 Q 56 -123 52 -149 Q 48 -175 48 -202 Q 48 -230 53 -258 Q 58 -286 72 -310.5 Q 86 -335 107.5 -353.5 Q 129 -372 155 -383 Q 132 -394 113.5 -411.5 Q 95 -429 83.5 -451 Q 72 -473 68 -498 Q 64 -523 64 -548 Q 64 -573 68 -597.5 Q 72 -622 81.5 -645 Q 91 -668 106.5 -687.5 Q 122 -707 143.5 -719.5 Q 165 -732 189.5 -737.5 Q 214 -743 238 -743 Q 271 -743 302.5 -734 Q 334 -725 358.5 -703 Q 383 -681 395.5 -650 Q 408 -619 409 -587 L 331 -587 Q 331 -605 324 -622 Q 317 -639 304 -651 Q 291 -663 273.5 -668 Q 256 -673 238 -673 Q 223 -673 208.5 -669 Q 194 -665 182.5 -655.5 Q 171 -646 162.5 -633 Q 154 -620 149.5 -606 Q 145 -592 143.5 -577 Q 142 -562 142 -547 Q 142 -523 147 -499 Q 152 -475 166.5 -455.5 Q 181 -436 203.5 -426.5 Q 226 -417 250 -417 L 329 -417 L 329 -491 L 407 -491 L 407 -417 L 454 -417 L 454 -347 L 407 -347 L 407 -190 Q 407 -165 403.5 -140.5 Q 400 -116 391 -92.5 Q 382 -69 366.5 -49 Q 351 -29 330 -16 Q 309 -3 284.5 2.5 Q 260 8 235 8 Z M 234 -62 Q 249 -62 264 -66.5 Q 279 -71 290.5 -80.5 Q 302 -90 309.5 -103 Q 317 -116 321.5 -130.5 Q 326 -145 327.5 -160 Q 329 -175 329 -190 L 329 -347 L 250 -347 Q 232 -347 214 -343 Q 196 -339 181 -329.5 Q 166 -320 155 -305.5 Q 144 -291 137 -274 Q 130 -257 128 -239 Q 126 -221 126 -203 Q 126 -186 128 -169.5 Q 130 -153 135 -137 Q 140 -121 149 -106.5 Q 158 -92 171.5 -82 Q 185 -72 201 -67 Q 217 -62 234 -62 Z " id="path1"/>
</defs>
<g>
<g data-source-text="&amp;" fill="#dee4e3" transform="translate(40 104.99201) rotate(0) scale(0.09599999)">
<use href="#path1" transform="translate(0 0)"/>
</g>
</g>
</svg>