<?xml version="1.0" encoding="UTF-8" standalone="no"?>
<svg height="160" viewBox="0 0 128 160" width="128" xmlns="http://www.w3.org/2000/svg">
<defs>
<path d="M 250 128 Q 223 128 195.5 123 Q 168 118 143.5 106 Q 119 94 99.5 74.5 Q 80 55 67.5 30.5 Q 55 6 50 -21 Q 45 -48 45 -75 L 45 -605 Q 45 -632 50 -659 Q 55 -686 67.5 -710.5 Q 80 -735 99.5 -754.5 Q 119 -774 143.5 -786 Q 168 -798 195.5 -803 Q 223 -808 250 -808 Q 277 -808 304.5 -803.5 Q 332 -799 356.5 -786.5 Q 381 -774 400.5 -754.5 Q 420 -735 432.5 -710.5 Q 445 -686 450 -659 Q 455 -632 455 -605 L 455 -160 Q 455 -139 447.5 -119.5 Q 440 -100 424.5 -87 Q 409 -74 389 -69 Q 369 -64 349 -64 L 248 -64 Q 235 -64 224 -72.5 Q 213 -81 207.5 -93 Q 202 -105 200 -118 Q 198 -131 198 -144 L 198 -490 Q 198 -504 200 -518.5 Q 202 -533 207.5 -546 Q 213 -559 224.5 -568.5 Q 236 -578 250 -578 Q 264 -578 275.5 -568.5 Q 287 -559 292.5 -546 Q 298 -533 300 -518.5 Q 302 -504 302 -490 L 302 -128 L 349 -128 Q 356 -128 362.5 -129.5 Q 369 -131 374 -135.5 Q 379 -140 381.5 -146.5 Q 384 -153 384 -160 L 384 -605 Q 384 -623 381 -641.5 Q 378 -660 370.5 -676.5 Q 363 -693 350 -706.5 Q 337 -720 321 -728.5 Q 305 -737 286.5 -740.5 Q 268 -744 250 -744 Q 232 -744 213.5 -740.5 Q 195 -737 179 -728.5 Q 163 -720 150 -706.5 Q 137 -693 129.5 -676.5 Q 122 -660 119 -641.5 Q 116 -623 116 -605 L 116 -75 Q 116 -57 119 -39.5 Q 122 -22 130 -6 Q 138 10 151 23 Q 164 36 180.5 44 Q 197 52 214.5 55 Q 232 58 250 58 L 420 58 L 420 128 Z " id="path1"/>
</defs>
<g>
<g data-source-text="@" fill="#20242e" transform="translate(40 104.99201) rotate(0) scale(0.09599999)">
<use href="#path1" transform="translate(0 0)"/>
</g>
</g>
</svg>