<svg xmlns="http://www.w3.org/2000/svg" height="160" viewBox="0 0 128 160" width="128"><defs><path d="M 231 8 Q 207 8 183 3 Q 159 -2 138.5 -14.5 Q 118 -27 102 -46 Q 86 -65 76 -87 Q 66 -109 60.5 -132.5 Q 55 -156 55 -181 Q 55 -211 64.5 -240 Q 74 -269 89.5 -295 Q 105 -321 125.5 -343.5 Q 146 -366 167 -388 Q 152 -411 137 -434.5 Q 122 -458 110 -483 Q 98 -508 90 -535 Q 82 -562 82 -589 Q 82 -619 91.5 -648.5 Q 101 -678 121.5 -700.5 Q 142 -723 171 -733 Q 200 -743 230 -743 Q 262 -743 292 -732 Q 322 -721 342 -697 Q 362 -673 370 -642 Q 378 -611 378 -580 L 300 -580 Q 300 -597 297 -613 Q 294 -629 285.5 -643 Q 277 -657 262 -665 Q 247 -673 230 -673 Q 215 -673 200.5 -666 Q 186 -659 177 -646.5 Q 168 -634 164 -618.5 Q 160 -603 160 -587 Q 160 -566 166.5 -545 Q 173 -524 183 -504.5 Q 193 -485 205 -466.5 Q 217 -448 229 -430 Q 241 -412 252.5 -393 Q 264 -374 275 -356 L 360 -210 L 399 -311 L 481 -311 L 421 -155 Q 418 -148 415.5 -140.5 Q 413 -133 410 -126 L 483 0 L 396 0 L 357 -65 Q 342 -40 319 -21.5 Q 296 -3 268 4 L 262 5 L 255 6 Q 249 7 243 7.5 Q 237 8 231 8 Z M 236 -62 Q 250 -62 263.5 -67 Q 277 -72 288 -80 Q 299 -88 308 -99 Q 317 -110 324 -123 L 208 -320 Q 207 -322 206 -323 Q 205 -324 205 -325 Q 190 -311 177 -295 Q 164 -279 154 -261 Q 144 -243 138.5 -223 Q 133 -203 133 -182 Q 133 -160 139 -138 Q 145 -116 158.5 -98 Q 172 -80 193 -71 Q 214 -62 236 -62 Z " id="path1"/></defs><g><g fill="#dee4e3" transform="translate(40 105.20961) rotate(0)"><use href="#path1" transform="translate(0 0) scale(0.09599999)"/></g></g></svg>