<svg xmlns="http://www.w3.org/2000/svg" height="160" viewBox="0 0 128 160" width="128"><defs><path d="M 205 8 Q 181 8 157 1 Q 133 -6 114 -21.5 Q 95 -37 82 -58.5 Q 69 -80 61.5 -103 Q 54 -126 51 -150.5 Q 48 -175 48 -199 Q 48 -228 53 -256.5 Q 58 -285 71.5 -309.5 Q 85 -334 106.5 -353 Q 128 -372 155 -383 Q 132 -394 113.5 -411.5 Q 95 -429 83.5 -451 Q 72 -473 68 -498 Q 64 -523 64 -548 Q 64 -573 67.5 -597 Q 71 -621 80.5 -644 Q 90 -667 105 -686.5 Q 120 -706 141 -719 Q 162 -732 186 -737.5 Q 210 -743 234 -743 Q 266 -743 297.5 -733.5 Q 329 -724 352.5 -702 Q 376 -680 388 -649 Q 400 -618 401 -586 L 323 -586 Q 323 -604 316.5 -620.5 Q 310 -637 298 -649.5 Q 286 -662 269 -667.5 Q 252 -673 234 -673 Q 220 -673 205.5 -668.5 Q 191 -664 180 -654.5 Q 169 -645 161.5 -632 Q 154 -619 149.5 -605 Q 145 -591 143.5 -576.5 Q 142 -562 142 -547 Q 142 -523 147 -499 Q 152 -475 166.5 -456 Q 181 -437 203.5 -427 Q 226 -417 250 -417 L 329 -417 L 329 -491 L 407 -491 L 407 -417 L 454 -417 L 454 -347 L 407 -347 L 407 0 L 338 0 L 338 -109 Q 332 -86 321 -64 Q 310 -42 293 -25 Q 276 -8 252.5 0 Q 229 8 205 8 Z M 235 -62 Q 251 -62 265.5 -66.5 Q 280 -71 291 -80.5 Q 302 -90 309.5 -103.5 Q 317 -117 321.5 -131 Q 326 -145 327.5 -160 Q 329 -175 329 -190 L 329 -347 L 250 -347 Q 232 -347 214 -343 Q 196 -339 181 -329.5 Q 166 -320 155 -305.5 Q 144 -291 137 -274 Q 130 -257 128 -239 Q 126 -221 126 -203 Q 126 -186 128 -169.5 Q 130 -153 135 -137 Q 140 -121 149.5 -106.5 Q 159 -92 172.5 -81.5 Q 186 -71 202.5 -66.5 Q 219 -62 235 -62 Z " id="path1"/></defs><g><g fill="#dee4e3" transform="translate(40 105.20961) rotate(0)"><use href="#path1" transform="translate(0 0) scale(0.09599999)"/></g></g></svg>