<svg xmlns="http://www.w3.org/2000/svg" height="160" viewBox="0 0 128 160" width="128"><defs><path d="M 433.00003 77.00001 L 250 77.00001 C 231.33334 77.00001 212.66667 75.5 194.00002 72.5 C 175.33334 69.5 157.33334 64.166664 140.00002 56.500004 C 122.66667 48.833332 106.833336 38.666668 92.50001 26.000002 C 78.166664 13.333333 66.333336 -1.1666678 57.000004 -17.500002 C 47.66667 -33.833336 41.166668 -51.33334 37.500004 -70.00001 C 33.833332 -88.66667 32 -107.333336 32 -126 L 32 -554.00006 C 32 -572.6667 33.833332 -591.3333 37.500004 -610.00006 C 41.166668 -628.6667 47.66667 -646.1667 57.000004 -662.50006 C 66.333336 -678.8334 78.166664 -693.3333 92.50001 -706.00006 C 106.833336 -718.6666 122.50001 -728.8334 139.5 -736.50006 C 156.5 -744.1667 174.5 -749.5 193.50002 -752.5 C 212.5 -755.49994 231.33334 -757 250 -757 C 268.66666 -757 287.5 -755.49994 306.5 -752.5 C 325.5 -749.5 343.5 -744.1667 360.50003 -736.50006 C 377.5 -728.8334 393.1667 -718.6666 407.5 -706.00006 C 421.83334 -693.3333 433.6667 -678.8334 443 -662.50006 C 452.33334 -646.1667 458.83334 -628.6667 462.50003 -610.00006 C 466.16666 -591.3333 468.00003 -572.6667 468.00003 -554.00006 L 468.00003 -186.00002 C 468.00003 -172.66667 465.66672 -159.83334 461.00003 -147.5 C 456.33334 -135.16667 448.99997 -124.83333 439.00003 -116.5 C 429 -108.16667 417.6667 -102.50001 405.00003 -99.5 C 392.33337 -96.5 379.66666 -94.99999 367 -95 L 250 -95 C 238 -94.99999 226 -96.5 214.00002 -99.5 C 202.00002 -102.50001 191.33334 -107.83333 182 -115.50001 C 172.66667 -123.166664 165.83334 -132.83333 161.5 -144.5 C 157.16667 -156.16666 155 -167.99998 155 -180.00002 L 155 -459 C 155 -471.66666 157 -484.1667 161.00002 -496.50003 C 165 -508.8333 171.5 -519.3333 180.50002 -528 C 189.5 -536.6666 200.16667 -542.8334 212.5 -546.5 C 224.83334 -550.1667 237.33334 -552 250 -552 C 262.66666 -552 275.16666 -550.1667 287.5 -546.5 C 299.8333 -542.8334 310.5 -536.6666 319.50003 -528 C 328.5 -519.3333 334.99997 -508.8333 339 -496.50003 C 343 -484.1667 345 -471.66666 345 -459 L 345 -155 L 367 -155 C 370.99997 -155 375.16666 -155.66666 379.5 -157.00002 C 383.83334 -158.33334 387.6667 -160.33334 391 -163 C 394.33334 -165.66667 396.66666 -169 398 -173 C 399.33334 -177.00002 400.00003 -181.33334 400.00003 -186.00002 L 400.00003 -554.00006 C 400.00003 -566.6667 398.83337 -579.3333 396.5 -592 C 394.16663 -604.6667 389.66666 -616.6667 383.00003 -628.00006 C 376.3333 -639.3334 368 -649.3333 358 -658 C 348.00003 -666.6666 337.1667 -673.5 325.50003 -678.50006 C 313.83334 -683.5 301.5 -687 288.50003 -689 C 275.5 -691 262.66666 -692 250 -692 C 237.33334 -692 224.5 -691 211.50002 -689 C 198.5 -687 186.16667 -683.5 174.50002 -678.50006 C 162.83334 -673.5 152 -666.6666 142 -658 C 132 -649.3333 123.666664 -639.3334 117.00001 -628.00006 C 110.333336 -616.6667 105.833336 -604.6667 103.5 -592 C 101.16667 -579.3333 100.00001 -566.6667 100.00001 -554.00006 L 100.00001 -126 C 100.00001 -113.33333 101.16667 -100.5 103.5 -87.5 C 105.833336 -74.5 110.333336 -62.5 117.00001 -51.500004 C 123.666664 -40.5 132 -30.666668 142 -22 C 152 -13.333333 162.83334 -6.4999995 174.50002 -1.5 C 186.16667 3.4999998 198.5 7 211.50002 9.000001 C 224.5 11 237.33334 12 250 12 L 433.00003 12 Z M 250 -155 L 278 -155 L 278 -459 C 278 -463 277.5 -467.00003 276.5 -471 C 275.5 -475 273.8333 -478.66663 271.50003 -482 C 269.1667 -485.3333 266 -487.8333 262 -489.50003 C 258 -491.1667 254 -492.00003 250 -492.00003 C 246 -492.00003 241.99998 -491.1667 238 -489.50003 C 234 -487.8333 230.83334 -485.3333 228.50002 -482 C 226.16667 -478.66663 224.5 -475 223.5 -471 C 222.5 -467.00003 222.00002 -463 222.00002 -459 L 222.00002 -180.00002 C 222.00002 -176.66666 222.66667 -173.33333 224 -170 C 225.33334 -166.66667 227.33333 -163.83333 230 -161.5 C 232.66667 -159.16667 235.83333 -157.5 239.50002 -156.5 C 243.16667 -155.5 246.66667 -155 250 -155 Z " id="path1"/></defs><g><g fill="#000000" transform="translate(40 105.20961) rotate(0)"><use href="#path1" transform="translate(0 0) scale(0.09599999)"/></g></g></svg>