<svg xmlns="http://www.w3.org/2000/svg" height="160" viewBox="0 0 128 160" width="128"><defs><path d="M 250 128 C 232.66666 128 215.33333 126.166664 198 122.50001 C 180.66667 118.833336 164.50002 112.66667 149.5 104.00001 C 134.5 95.33334 121.333336 84.333336 110.00001 71 C 98.66667 57.666668 89.5 43 82.5 27 C 75.5 11 70.66667 -5.666667 68 -23 C 65.333336 -40.333336 64 -57.66667 64 -75.00001 L 64 -605.00006 C 64 -622.3334 65.333336 -639.6667 68 -657.00006 C 70.66667 -674.3334 75.5 -691 82.5 -707.00006 C 89.5 -723.00006 98.66667 -737.6667 110.00001 -751 C 121.333336 -764.3334 134.5 -775.3334 149.5 -784 C 164.50002 -792.6667 180.66667 -798.8334 198 -802.50006 C 215.33333 -806.1667 232.66666 -808.00006 250 -808.00006 C 267.33334 -808.00006 284.66666 -806.1667 302 -802.50006 C 319.3333 -798.8334 335.5 -792.6667 350.5 -784 C 365.49997 -775.3334 378.66666 -764.3334 390 -751 C 401.33334 -737.6667 410.49997 -723.00006 417.50003 -707.00006 C 424.5 -691 429.33334 -674.3334 432 -657.00006 C 434.66666 -639.6667 435.99997 -622.3334 436 -605.00006 L 436 -195 C 435.99997 -184.33333 435.33334 -173.33333 434.00003 -162 C 432.6667 -150.66667 430.16666 -139.66667 426.50003 -129 C 422.83334 -118.33334 417.83334 -108.333336 411.50003 -99 C 405.1667 -89.666664 397.66666 -81.666664 389.00003 -75.00001 C 380.33334 -68.333336 370.50003 -63.5 359.50003 -60.500004 C 348.50003 -57.499996 337.33334 -55.999996 326 -56 C 314.6667 -55.999996 303.33334 -57.333332 292 -60.000004 C 280.66666 -62.666668 270.16666 -67.333336 260.5 -74 C 250.83334 -80.66667 242.5 -88.66667 235.5 -98 C 228.50002 -107.33333 223.00002 -117.333336 219.00002 -128 C 215 -138.66667 212.16667 -149.66667 210.50002 -161.00002 C 208.83334 -172.33333 207.99998 -183.66667 208.00002 -195 L 208.00002 -439.00003 C 207.99998 -450.33334 208.83334 -461.6667 210.50002 -473.00003 C 212.16667 -484.33334 215 -495.50003 219.00002 -506.50003 C 223.00002 -517.5 228.50002 -527.6667 235.5 -537.00006 C 242.5 -546.3333 250.83334 -554.1666 260.5 -560.5 C 270.16666 -566.8334 280.66666 -571.3334 292 -574 C 303.33334 -576.6666 315 -578 327 -578 L 359.00003 -578 L 359.00003 -605.00006 C 359.00003 -621 357.33334 -637.1667 354.00003 -653.5 C 350.6667 -669.8333 344.1667 -684.49994 334.5 -697.5 C 324.83334 -710.49994 312.33334 -720.5 297.00003 -727.50006 C 281.6667 -734.50006 266 -738 250 -738 C 234.00002 -738 218.33333 -734.50006 203.00002 -727.50006 C 187.66666 -720.5 175.16667 -710.49994 165.50002 -697.5 C 155.83334 -684.49994 149.33333 -669.8333 146 -653.5 C 142.66666 -637.1667 141 -621 141 -605.00006 L 141 -75.00001 C 141 -58.999996 142.66666 -42.83333 146 -26.5 C 149.33333 -10.166666 155.83334 4.500001 165.50002 17.500002 C 175.16667 30.5 187.66666 40.5 203.00002 47.5 C 218.33333 54.499996 234.00002 58 250 58 L 401.00003 58 L 401.00003 128 Z M 325.00003 -125 C 332.33334 -125 338.50003 -128 343.50003 -134 C 348.50003 -140 352 -146.33333 354.00003 -153 C 356 -159.66666 357.3333 -166.66667 358 -174.00002 C 358.66666 -181.33333 359.00003 -188.33331 359.00003 -195 L 359.00003 -509.00003 L 327 -509.00003 C 319 -509.00003 312 -506.50003 306 -501.50003 C 300 -496.5 295.5 -490.5 292.5 -483.50003 C 289.5 -476.5 287.5 -469.1667 286.5 -461.50003 C 285.50003 -453.83334 285 -446.33334 285 -439.00003 L 285 -195 C 285 -187.66666 285.50003 -180.33334 286.5 -173 C 287.5 -165.66667 289.33334 -158.5 292 -151.5 C 294.66666 -144.5 299 -138.33333 305.00003 -133 C 311 -127.666664 317.66666 -125 325.00003 -125 Z " id="path1"/></defs><g><g fill="#ffffff" transform="translate(40 105.20961) rotate(0)"><use href="#path1" transform="translate(0 0) scale(0.09599999)"/></g></g></svg>