<svg xmlns="http://www.w3.org/2000/svg" height="160" viewBox="0 0 128 160" width="128"><defs><path d="M 250 77.00001 C 231.33334 77.00001 212.99998 75.5 195 72.5 C 177.00002 69.5 159.66667 64 143 56 C 126.33334 48 111.16666 37.5 97.5 24.5 C 83.833336 11.500001 72.833336 -3.166667 64.5 -19.5 C 56.16667 -35.833332 50.333332 -53.166668 47.000004 -71.5 C 43.666668 -89.83333 42.000004 -108 42.000004 -126 L 42.000004 -554.00006 C 42.000004 -572 43.666668 -590.1667 47.000004 -608.5 C 50.333332 -626.8333 56.16667 -644.1667 64.5 -660.5 C 72.833336 -676.8333 83.833336 -691.50006 97.5 -704.50006 C 111.16666 -717.5 126.33334 -727.99994 143 -736 C 159.66667 -744 177.00002 -749.5 195 -752.5 C 212.99998 -755.49994 231.33334 -757 250 -757 C 268.66666 -757 287 -755.49994 305.00003 -752.5 C 323 -749.5 340.3333 -744 357 -736 C 373.6667 -727.99994 388.83334 -717.5 402.5 -704.50006 C 416.1667 -691.50006 427.1667 -676.8333 435.5 -660.5 C 443.8333 -644.1667 449.6667 -626.8333 453 -608.5 C 456.33334 -590.1667 457.99997 -572 458 -554.00006 L 458 -200.00002 C 457.99997 -184.66667 455.3333 -170 450.00003 -156 C 444.6667 -142 436.33334 -130.16666 425 -120.5 C 413.66666 -110.83333 400.66666 -104.16667 386 -100.5 C 371.33334 -96.83333 356.66666 -94.99999 342.00003 -95 L 250 -95 C 250 -94.99999 249.83333 -94.99999 249.5 -95 C 249.16666 -94.99999 248.66667 -94.99999 248.00002 -95 C 238.66669 -94.99999 230.33333 -98.166664 223.00002 -104.50001 C 215.66666 -110.83333 210 -118.333336 206.00002 -127.00001 C 202.00002 -135.66667 199.50002 -144.66667 198.5 -154.00002 C 197.5 -163.33334 197.00002 -172.66667 197.00002 -182 L 197.00002 -457.00003 C 197.00002 -466.3333 197.66667 -475.83334 199 -485.50003 C 200.33333 -495.1667 202.83334 -504.33334 206.5 -513 C 210.16666 -521.6667 216 -529 224 -535 C 232 -541 240.66667 -544 250 -544 C 259.3333 -544 268 -541 276 -535 C 284 -529 289.83334 -521.6667 293.5 -513 C 297.1667 -504.33334 299.6667 -495.1667 301 -485.50003 C 302.3333 -475.83334 302.99997 -466.3333 303 -457.00003 L 303 -165 L 342.00003 -165 C 346.66666 -165 351.5 -165.5 356.5 -166.5 C 361.5 -167.5 365.83334 -169.66667 369.5 -173 C 373.16666 -176.33333 375.8333 -180.33334 377.50003 -185.00002 C 379.16666 -189.66667 379.99997 -194.66667 380 -200.00002 L 380 -554.00006 C 379.99997 -566 379 -577.8334 377.00003 -589.5 C 375 -601.1667 371.50003 -612.1667 366.50003 -622.50006 C 361.50003 -632.8333 354.83334 -642.3333 346.5 -651.00006 C 338.16666 -659.6667 328.8333 -666.8333 318.5 -672.5 C 308.1667 -678.1666 297.1667 -682 285.50003 -684.00006 C 273.8333 -686.00006 262 -687 250 -687.00006 C 238 -687 226.16666 -686.00006 214.50002 -684.00006 C 202.83334 -682 191.83334 -678.1666 181.5 -672.5 C 171.16666 -666.8333 161.83333 -659.6667 153.5 -651.00006 C 145.16666 -642.3333 138.5 -632.8333 133.5 -622.50006 C 128.5 -612.1667 125 -601.1667 123.00001 -589.5 C 121.00001 -577.8334 120.00001 -566 120.00001 -554.00006 L 120.00001 -126 C 120.00001 -114.00001 121.00001 -102.166664 123.00001 -90.5 C 125 -78.83333 128.5 -67.83333 133.5 -57.5 C 138.5 -47.166668 145.16666 -37.666668 153.5 -29 C 161.83333 -20.333332 171.16666 -13.333333 181.5 -8 C 191.83334 -2.666667 202.83334 1.1666667 214.50002 3.5 C 226.16666 5.833333 238 6.9999995 250 7 L 423.00003 7 L 423.00003 77.00001 Z " id="path1"/></defs><g><g fill="#ffffff" transform="translate(40 105.20961) rotate(0)"><use href="#path1" transform="translate(0 0) scale(0.09599999)"/></g></g></svg>