<svg xmlns="http://www.w3.org/2000/svg" height="160" viewBox="0 0 128 160" width="128"><defs><path d="M 202.00002 8 C 182 8 162.33334 4.9999995 143 -1 C 123.666664 -7 107.16667 -17.333334 93.5 -32 C 79.83333 -46.666668 70.166664 -63.666668 64.5 -83 C 58.833332 -102.33333 55.999996 -121.666664 56 -141 C 55.999996 -158.33333 58.166664 -175.33333 62.5 -192 C 66.833336 -208.66667 74.166664 -223.66667 84.50001 -237.00002 C 94.833336 -250.33336 107.333336 -261.5 122 -270.5 C 136.66667 -279.5 152.16667 -286.66666 168.50002 -292 C 184.83333 -297.33334 201.33333 -301 218 -303 C 234.66667 -305 251.66667 -305.99997 269 -306 L 358 -306 L 358 -355.00003 C 358 -369 355.66666 -383 351 -397 C 346.33334 -411.00003 338.6667 -422.6667 328.00003 -432 C 317.33334 -441.33334 305 -448 291.00003 -452.00003 C 277 -455.99997 263 -457.99997 249 -458 C 235.66666 -457.99997 222.5 -456.66666 209.5 -454 C 196.49998 -451.33334 184.66666 -446.33334 174.00002 -439.00003 C 163.33334 -431.66666 155 -422.00003 149 -410.00003 C 143.00002 -398 140.00002 -385.66666 140.00002 -373 C 140.00002 -373 140.00002 -373 140.00002 -373 C 140.00002 -373 140.00002 -373 140.00002 -373 C 140.00002 -373 140.00002 -373 140.00002 -373 C 140.00002 -373 140.00002 -373 140.00002 -373 C 140.00002 -373 140.00002 -373 140.00002 -373 C 140.00002 -373 140.00002 -373 140.00002 -373 L 62.000004 -373 C 62.000004 -373 62.000004 -373 62.000004 -373 C 62.000004 -373 62.000004 -373 62.000004 -373 C 62.000004 -388.33334 64.166664 -403.33334 68.50001 -418.00003 C 72.83333 -432.66672 79.333336 -446.33334 88 -459 C 96.666664 -471.66666 107.16667 -482.5 119.50001 -491.50003 C 131.83334 -500.49997 145 -507.83334 159 -513.50006 C 173 -519.1666 187.66666 -523 203.00002 -525.00006 C 218.33333 -526.99994 233.66667 -528 249 -528 C 265 -528 281 -526.8333 297.00003 -524.5 C 313 -522.1667 328.33334 -517.6667 343.00003 -511 C 357.66666 -504.33334 371.1667 -495.6667 383.50003 -485.00003 C 395.83334 -474.33334 406 -462 414 -448 C 421.99997 -434.00003 427.6667 -419 431 -403 C 434.33334 -387.00003 435.99997 -370.99997 436 -355.00003 L 436 -70.00001 L 482 -70.00001 L 482 0 L 358 0 L 358 -86.00001 C 352 -71.333336 343.50003 -57.833336 332.5 -45.5 C 321.5 -33.166668 309 -22.833334 295 -14.5 C 281 -6.166667 266 -0.33333325 250 3 C 234.00002 6.3333335 218 8 202.00002 8 Z M 232 -62.000004 C 248 -62.000004 264.16666 -64.166664 280.5 -68.50001 C 296.8333 -72.83333 311 -80.5 323 -91.50001 C 335 -102.50001 343.83334 -115.833336 349.50003 -131.50002 C 355.1667 -147.16666 358 -163.33333 358 -180.00002 L 358 -236.00002 L 269 -236.00002 C 259 -235.99998 248.83333 -235.5 238.5 -234.50002 C 228.16667 -233.50002 218.16667 -231.83333 208.50002 -229.5 C 198.83333 -227.16666 189.33333 -223.83333 180.00002 -219.50002 C 170.66666 -215.16666 162.33333 -209.66666 155 -203.00002 C 147.66667 -196.33333 142.33333 -188.16666 139 -178.5 C 135.66666 -168.83334 134 -159 134 -149 C 134 -137.00002 136.33333 -125 141 -113.00001 C 145.66666 -100.99999 152.66666 -91 162 -83 C 171.33331 -75 182.16666 -69.5 194.50002 -66.5 C 206.83333 -63.5 219.33334 -62.000004 232 -62.000004 Z " id="path1"/></defs><g><g fill="#000000" transform="translate(40 105.20961) rotate(0)"><use href="#path1" transform="translate(0 0) scale(0.09599999)"/></g></g></svg>