<?xml version="1.0" encoding="UTF-8" standalone="no"?>
<svg height="160" viewBox="0 0 128 160" width="128" xmlns="http://www.w3.org/2000/svg">
<defs>
<path d="M 228 8 Q 202 8 176 2 Q 150 -4 128.5 -18.5 Q 107 -33 91 -54 Q 75 -75 65.5 -99 Q 56 -123 52 -149 Q 48 -175 48 -201 Q 48 -229 53 -257.5 Q 58 -286 72 -310.5 Q 86 -335 108 -353.5 Q 130 -372 156 -383 Q 133 -394 114.5 -411.5 Q 96 -429 84 -451 Q 72 -473 68 -498 Q 64 -523 64 -549 Q 64 -573 68 -597.5 Q 72 -622 81.5 -645 Q 91 -668 106.5 -687.5 Q 122 -707 143 -719.5 Q 164 -732 188.5 -737.5 Q 213 -743 238 -743 Q 269 -743 300 -735.5 Q 331 -728 356 -709 Q 381 -690 394.5 -660.5 Q 408 -631 409 -600 L 331 -600 Q 331 -617 323 -632 Q 315 -647 301 -656.5 Q 287 -666 270.5 -669.5 Q 254 -673 238 -673 Q 223 -673 208 -669 Q 193 -665 181.5 -655.5 Q 170 -646 162 -633 Q 154 -620 149.5 -606 Q 145 -592 143.5 -577 Q 142 -562 142 -547 Q 142 -523 147 -499 Q 152 -475 166 -455.5 Q 180 -436 203 -426 Q 226 -416 250 -416 L 329 -416 L 329 -485 L 407 -485 L 407 -416 L 454 -416 L 454 -348 L 407 -348 L 407 -189 Q 407 -164 403 -139 Q 399 -114 389.5 -90.5 Q 380 -67 363 -47.5 Q 346 -28 324.5 -15 Q 303 -2 278 3 Q 253 8 228 8 Z M 228 -62 Q 243 -62 258 -66 Q 273 -70 285.5 -79 Q 298 -88 306.5 -101 Q 315 -114 320.5 -128.5 Q 326 -143 327.5 -158.5 Q 329 -174 329 -189 L 329 -348 L 250 -348 Q 232 -348 214 -344 Q 196 -340 181 -330 Q 166 -320 154.5 -305.5 Q 143 -291 136.5 -274 Q 130 -257 128 -238.5 Q 126 -220 126 -202 Q 126 -186 127.5 -169.5 Q 129 -153 134 -137.5 Q 139 -122 147 -107.5 Q 155 -93 167.5 -82.5 Q 180 -72 195.5 -67 Q 211 -62 228 -62 Z " id="path1"/>
</defs>
<g>
<g data-source-text="&amp;" fill="#dee4e3" transform="translate(40 104.99201) rotate(0) scale(0.09599999)">
<use href="#path1" transform="translate(0 0)"/>
</g>
</g>
</svg>