<svg xmlns="http://www.w3.org/2000/svg" height="160" viewBox="0 0 128 160" width="128"><defs><path d="M 249 8 C 233 8 217.33334 7 202.00002 5.0000005 C 186.66667 3 171.66667 -0.5000001 157.00002 -5.5 C 142.33333 -10.499999 128.5 -17.333334 115.50001 -26.000002 C 102.50001 -34.666664 91.333336 -45.166668 82.00001 -57.5 C 72.666664 -69.833336 66 -83.666664 62.000004 -99 C 58 -114.333336 55.999996 -129.66667 56 -145 C 55.999996 -145 55.999996 -145 56 -145 C 55.999996 -145 55.999996 -145 56 -145 C 55.999996 -161.66667 58.33333 -178.16667 63 -194.50002 C 67.66667 -210.83334 75.333336 -225.5 86.00001 -238.5 C 96.666664 -251.5 109.33333 -262.50003 124.00001 -271.50003 C 138.66666 -280.50003 153.83333 -287.5 169.5 -292.5 C 185.16666 -297.5 201.33333 -301 218 -303 C 234.66667 -305 251.66667 -305.99997 269 -306 L 358 -306 L 358 -355.00003 C 358 -369 355.66666 -383 351 -397 C 346.33334 -411.00003 338.6667 -422.6667 328.00003 -432 C 317.33334 -441.33334 305 -448 291.00003 -452.00003 C 277 -455.99997 263 -457.99997 249 -458 C 235.66666 -457.99997 222.5 -456.66666 209.5 -454 C 196.49998 -451.33334 184.66666 -446.33334 174.00002 -439.00003 C 163.33334 -431.66666 155 -422.00003 149 -410.00003 C 143.00002 -398 140.00002 -385.66666 140.00002 -373 C 140.00002 -373 140.00002 -373 140.00002 -373 C 140.00002 -373 140.00002 -373 140.00002 -373 C 140.00002 -373 140.00002 -373 140.00002 -373 C 140.00002 -373 140.00002 -373 140.00002 -373 C 140.00002 -373 140.00002 -373 140.00002 -373 C 140.00002 -373 140.00002 -373 140.00002 -373 L 62.000004 -373 C 62.000004 -373 62.000004 -373 62.000004 -373 C 62.000004 -373 62.000004 -373 62.000004 -373 C 62.000004 -388.33334 64.166664 -403.33334 68.50001 -418.00003 C 72.83333 -432.66672 79.333336 -446.33334 88 -459 C 96.666664 -471.66666 107.16667 -482.5 119.50001 -491.50003 C 131.83334 -500.49997 145 -507.83334 159 -513.50006 C 173 -519.1666 187.66666 -523 203.00002 -525.00006 C 218.33333 -526.99994 233.66667 -528 249 -528 C 265 -528 281 -526.8333 297.00003 -524.5 C 313 -522.1667 328.33334 -517.6667 343.00003 -511 C 357.66666 -504.33334 371.1667 -495.6667 383.50003 -485.00003 C 395.83334 -474.33334 406 -462 414 -448 C 421.99997 -434.00003 427.6667 -419 431 -403 C 434.33334 -387.00003 435.99997 -370.99997 436 -355.00003 L 436 -153 C 435.99997 -137 434.16666 -121.333336 430.5 -106 C 426.8333 -90.666664 420.8333 -76.5 412.5 -63.500004 C 404.16666 -50.499996 393.6667 -39.166664 381 -29.500002 C 368.3333 -19.833334 354.83328 -12.166667 340.5 -6.5000005 C 326.16666 -0.8333335 311.16666 3 295.5 5.0000005 C 279.8333 7 264.33334 8 249 8 Z M 249 -62.000004 L 249 -62.000004 C 249 -62.000004 249 -62.000004 249 -62.000004 C 249 -62.000004 249.33333 -62.000004 250 -62.000004 C 263.33334 -62.000004 276.66666 -63.5 290 -66.5 C 303.33334 -69.5 315.33334 -75 326 -83 C 336.6667 -91 344.66666 -101.333336 350 -114.00001 C 355.33334 -126.66667 358 -139.66666 358 -153 L 358 -236.00002 L 269 -236.00002 C 259 -235.99998 249 -235.5 239.00002 -234.50002 C 229 -233.50002 219.16666 -231.83333 209.5 -229.5 C 199.83331 -227.16666 190.33333 -224 181 -220.00002 C 171.66667 -216 163.33333 -210.66666 156 -204 C 148.66667 -197.33334 143.16667 -189.16667 139.5 -179.50002 C 135.83333 -169.83334 134 -160 134 -150.00002 C 134 -136.66667 137.16666 -123.666664 143.5 -111.00001 C 149.83333 -98.33333 158.83333 -88.33333 170.5 -81 C 182.16666 -73.66667 194.66667 -68.66667 208.00002 -66 C 221.33333 -63.333336 235 -62.000004 249 -62.000004 Z " id="path1"/></defs><g><g fill="#ffffff" transform="translate(40 105.20961) rotate(0)"><use href="#path1" transform="translate(0 0) scale(0.09599999)"/></g></g></svg>