<?xml version="1.0" encoding="UTF-8" standalone="no"?>
<svg height="160" viewBox="0 0 128 160" width="128" xmlns="http://www.w3.org/2000/svg">
<defs>
<path d="M 401 128 L 250 128 Q 224 128 198 122.5 Q 172 117 149.5 104 Q 127 91 110 71 Q 93 51 82.5 27 Q 72 3 68 -23 Q 64 -49 64 -75 L 64 -605 Q 64 -631 68 -657 Q 72 -683 82.5 -707 Q 93 -731 110 -751 Q 127 -771 149.5 -784 Q 172 -797 198 -802.5 Q 224 -808 250 -808 Q 276 -808 302 -802.5 Q 328 -797 350.5 -784 Q 373 -771 390 -751 Q 407 -731 417.5 -707 Q 428 -683 432 -657 Q 436 -631 436 -605 L 436 -171 Q 436 -150 431.5 -129.5 Q 427 -109 415 -91.5 Q 403 -74 383.5 -65 Q 364 -56 343 -56 Q 322 -56 302.5 -65 Q 283 -74 271 -91.5 Q 259 -109 254.5 -129.5 Q 250 -150 250 -171 L 250 -463 Q 250 -484 254.5 -505 Q 259 -526 272 -543.5 Q 285 -561 305 -569.5 Q 325 -578 347 -578 L 359 -578 L 359 -605 Q 359 -629 354 -653.5 Q 349 -678 334.5 -697.5 Q 320 -717 297 -727.5 Q 274 -738 250 -738 Q 226 -738 203 -727.5 Q 180 -717 165.5 -697.5 Q 151 -678 146 -653.5 Q 141 -629 141 -605 L 141 -75 Q 141 -51 146 -26.5 Q 151 -2 165.5 17.5 Q 180 37 203 47.5 Q 226 58 250 58 L 401 58 Z " id="path1"/>
</defs>
<g>
<g data-source-text="@" fill="#dee4e3" transform="translate(40 104.99201) rotate(0) scale(0.09599999)">
<use href="#path1" transform="translate(0 0)"/>
</g>
</g>
</svg>