<?xml version="1.0" encoding="UTF-8" standalone="no"?>
<svg height="160" viewBox="0 0 128 160" width="128" xmlns="http://www.w3.org/2000/svg">
<defs>
<path d="M 215 8 Q 190 8 166 1 Q 142 -6 122.5 -21.5 Q 103 -37 90 -58 Q 77 -79 69 -102.5 Q 61 -126 58.5 -150.5 Q 56 -175 56 -200 L 56 -320 Q 56 -347 60 -374 Q 64 -401 75 -425.5 Q 86 -450 104.5 -470.5 Q 123 -491 146.5 -504 Q 170 -517 196.5 -522.5 Q 223 -528 250 -528 Q 300 -528 348 -514.5 Q 396 -501 436 -471 L 436 -87 Q 436 -82 437.5 -77 Q 439 -72 442.5 -68.5 Q 446 -65 451 -63.5 Q 456 -62 461 -62 L 482 -62 L 482 8 L 461 8 Q 441 8 421.5 3 Q 402 -2 387 -15.5 Q 372 -29 365 -48 Q 358 -67 358 -87 L 358 -96 Q 350 -73 336.5 -53 Q 323 -33 304 -19 Q 285 -5 262 1.5 Q 239 8 215 8 Z M 246 -62 Q 263 -62 279.5 -66 Q 296 -70 309.5 -80 Q 323 -90 333 -104 Q 343 -118 348.5 -134 Q 354 -150 356 -166.5 Q 358 -183 358 -200 L 358 -435 Q 333 -448 305.5 -453 Q 278 -458 250 -458 Q 233 -458 216 -454 Q 199 -450 185 -440.5 Q 171 -431 160.5 -417 Q 150 -403 144 -387 Q 138 -371 136 -354 Q 134 -337 134 -320 L 134 -200 Q 134 -183 136 -166.5 Q 138 -150 143.5 -134 Q 149 -118 159 -104 Q 169 -90 182.5 -80 Q 196 -70 212.5 -66 Q 229 -62 246 -62 Z " id="path1"/>
</defs>
<g>
<g data-source-text="a" fill="#20242e" transform="translate(40 104.99201) rotate(0) scale(0.09599999)">
<use href="#path1" transform="translate(0 0)"/>
</g>
</g>
</svg>