<?xml version="1.0" encoding="UTF-8" standalone="no"?>
<svg height="160" viewBox="0 0 128 160" width="128" xmlns="http://www.w3.org/2000/svg">
<defs>
<path d="M 401 77 L 250 77 Q 224 77 198 71.5 Q 172 66 149.5 53 Q 127 40 110 20 Q 93 0 82.5 -24 Q 72 -48 68 -74 Q 64 -100 64 -126 L 64 -554 Q 64 -580 68 -606 Q 72 -632 82.5 -656 Q 93 -680 110 -700 Q 127 -720 149.5 -733 Q 172 -746 198 -751.5 Q 224 -757 250 -757 Q 276 -757 302 -751.5 Q 328 -746 350.5 -733 Q 373 -720 390 -700 Q 407 -680 417.5 -656 Q 428 -632 432 -606 Q 436 -580 436 -554 L 436 -226 Q 436 -209 434 -192.5 Q 432 -176 426.5 -160 Q 421 -144 411.5 -129.5 Q 402 -115 389 -105 Q 376 -95 359 -91 Q 342 -87 326 -87 Q 308 -87 291.5 -91 Q 275 -95 260.5 -104.5 Q 246 -114 235.5 -128 Q 225 -142 219 -158 Q 213 -174 210.5 -191.5 Q 208 -209 208 -226 L 208 -413 Q 208 -430 210.5 -447.5 Q 213 -465 219 -481 Q 225 -497 235.5 -511 Q 246 -525 260.5 -534.5 Q 275 -544 292 -548 Q 309 -552 327 -552 L 359 -552 L 359 -554 Q 359 -570 357 -586.5 Q 355 -603 349.5 -618 Q 344 -633 334.5 -646.5 Q 325 -660 311.5 -669.5 Q 298 -679 282 -683 Q 266 -687 250 -687 Q 234 -687 218 -683 Q 202 -679 188.5 -669.5 Q 175 -660 165.5 -646.5 Q 156 -633 150.5 -618 Q 145 -603 143 -586.5 Q 141 -570 141 -554 L 141 -126 Q 141 -110 143 -93.5 Q 145 -77 150.5 -62 Q 156 -47 165.5 -33.5 Q 175 -20 188.5 -10.5 Q 202 -1 218 3 Q 234 7 250 7 L 401 7 Z M 325 -156 Q 336 -156 343.5 -164.5 Q 351 -173 354 -183.5 Q 357 -194 358 -204.5 Q 359 -215 359 -226 L 359 -483 L 327 -483 Q 315 -483 306 -475.5 Q 297 -468 292.5 -457.5 Q 288 -447 286.5 -436 Q 285 -425 285 -413 L 285 -226 Q 285 -215 286.5 -203.5 Q 288 -192 292 -182 Q 296 -172 305 -164 Q 314 -156 325 -156 Z " id="path1"/>
</defs>
<g>
<g data-source-text="@" fill="#dee4e3" transform="translate(40 104.99201) rotate(0) scale(0.09599999)">
<use href="#path1" transform="translate(0 0)"/>
</g>
</g>
</svg>