<?xml version="1.0" encoding="UTF-8" standalone="no"?>
<svg height="160" viewBox="0 0 128 160" width="128" xmlns="http://www.w3.org/2000/svg">
<defs>
<path d="M 202 8 Q 178 8 154.5 1 Q 131 -6 112.5 -22 Q 94 -38 81 -59 Q 68 -80 61 -103 Q 54 -126 51 -150.5 Q 48 -175 48 -199 Q 48 -228 53 -256.5 Q 58 -285 72 -310 Q 86 -335 108 -353.5 Q 130 -372 156 -383 Q 133 -394 114.5 -411.5 Q 96 -429 84 -451 Q 72 -473 68 -498 Q 64 -523 64 -549 Q 64 -573 68 -597.5 Q 72 -622 81.5 -645 Q 91 -668 106.5 -687.5 Q 122 -707 143 -719.5 Q 164 -732 188.5 -737.5 Q 213 -743 238 -743 Q 269 -743 300 -735.5 Q 331 -728 356 -709 Q 381 -690 394.5 -660.5 Q 408 -631 409 -600 L 331 -600 Q 331 -617 323 -632 Q 315 -647 301 -656.5 Q 287 -666 270.5 -669.5 Q 254 -673 238 -673 Q 223 -673 208 -669 Q 193 -665 181.5 -655.5 Q 170 -646 162 -633 Q 154 -620 149.5 -606 Q 145 -592 143.5 -577 Q 142 -562 142 -547 Q 142 -523 147 -499 Q 152 -475 166 -455.5 Q 180 -436 203 -426 Q 226 -416 250 -416 L 329 -416 L 329 -485 L 407 -485 L 407 -416 L 454 -416 L 454 -348 L 407 -348 L 407 0 L 337 0 L 337 -79 Q 328 -60 315 -43 Q 302 -26 284 -14 Q 266 -2 245 3 Q 224 8 202 8 Z M 228 -62 Q 251 -62 272.5 -72 Q 294 -82 307 -101 Q 320 -120 324.5 -143 Q 329 -166 329 -189 L 329 -348 L 250 -348 Q 232 -348 214 -344 Q 196 -340 180.5 -330 Q 165 -320 154 -305 Q 143 -290 136.5 -273 Q 130 -256 128 -238 Q 126 -220 126 -202 Q 126 -186 127.5 -169.5 Q 129 -153 134 -137.5 Q 139 -122 147 -107.5 Q 155 -93 167.5 -82.5 Q 180 -72 195.5 -67 Q 211 -62 228 -62 Z " id="path1"/>
</defs>
<g>
<g data-source-text="&amp;" fill="#20242e" transform="translate(40 104.99201) rotate(0) scale(0.09599999)">
<use href="#path1" transform="translate(0 0)"/>
</g>
</g>
</svg>