<?xml version="1.0" encoding="UTF-8" standalone="no"?>
<svg height="160" viewBox="0 0 128 160" width="128" xmlns="http://www.w3.org/2000/svg">
<defs>
<path d="M 285 -421 Q 261 -451 240.5 -483.5 Q 220 -516 205 -551 Q 190 -586 181.5 -623.5 Q 173 -661 173 -700 Q 173 -716 177 -731.5 Q 181 -747 192 -758.5 Q 203 -770 218.5 -775 Q 234 -780 250 -780 Q 266 -780 281 -775.5 Q 296 -771 307 -760 Q 318 -749 322.5 -733.5 Q 327 -718 327 -703 Q 327 -687 322.5 -672 Q 318 -657 307 -646 Q 296 -635 281 -630.5 Q 266 -626 251 -626 L 246 -626 Q 259 -581 285 -541 Q 311 -501 343 -466 Z " id="path1"/>
</defs>
<g>
<g data-source-text="`" fill="#20242e" transform="translate(40 104.99201) rotate(0) scale(0.09599999)">
<use href="#path1" transform="translate(0 0)"/>
</g>
</g>
</svg>