<?xml version="1.0" encoding="UTF-8" standalone="no"?>
<svg height="160" viewBox="0 0 128 160" width="128" xmlns="http://www.w3.org/2000/svg">
<defs>
<path d="M 228 8 Q 201 8 175.5 2 Q 150 -4 128 -18.5 Q 106 -33 90.5 -54 Q 75 -75 65 -99 Q 55 -123 51.5 -149 Q 48 -175 48 -201 Q 48 -230 53 -258 Q 58 -286 71.5 -310.5 Q 85 -335 107 -353.5 Q 129 -372 155 -383 Q 132 -394 113.5 -411.5 Q 95 -429 83.5 -451 Q 72 -473 68 -498 Q 64 -523 64 -548 Q 64 -573 68 -597.5 Q 72 -622 81.5 -644.5 Q 91 -667 106.5 -686.5 Q 122 -706 143 -719 Q 164 -732 188.5 -737.5 Q 213 -743 238 -743 Q 269 -743 300 -735.5 Q 331 -728 356 -709 Q 381 -690 394.5 -660.5 Q 408 -631 409 -600 L 331 -600 Q 331 -617 323 -632 Q 315 -647 301 -656.5 Q 287 -666 270.5 -669.5 Q 254 -673 238 -673 Q 223 -673 208 -669 Q 193 -665 181.5 -655.5 Q 170 -646 162 -633 Q 154 -620 149.5 -605.5 Q 145 -591 143.5 -576.5 Q 142 -562 142 -547 Q 142 -523 147 -499 Q 152 -475 166.5 -455.5 Q 181 -436 203.5 -426.5 Q 226 -417 250 -417 L 329 -417 L 329 -486 L 407 -486 L 407 -417 L 454 -417 L 454 -347 L 407 -347 L 407 -190 Q 407 -165 403.5 -139.5 Q 400 -114 390 -91 Q 380 -68 363.5 -48 Q 347 -28 325 -15 Q 303 -2 278 3 Q 253 8 228 8 Z M 228 -62 Q 243 -62 258 -66 Q 273 -70 285.5 -79 Q 298 -88 306.5 -101.5 Q 315 -115 320.5 -129.5 Q 326 -144 327.5 -159 Q 329 -174 329 -190 L 329 -347 L 250 -347 Q 232 -347 214 -343 Q 196 -339 181 -329.5 Q 166 -320 154.5 -305 Q 143 -290 136.5 -273.5 Q 130 -257 128 -238.5 Q 126 -220 126 -202 Q 126 -186 127.5 -170 Q 129 -154 134 -138 Q 139 -122 147 -108 Q 155 -94 167.5 -83 Q 180 -72 195.5 -67 Q 211 -62 228 -62 Z " id="path1"/>
</defs>
<g>
<g data-source-text="&amp;" fill="#20242e" transform="translate(40 104.99201) rotate(0) scale(0.09599999)">
<use href="#path1" transform="translate(0 0)"/>
</g>
</g>
</svg>