<svg xmlns="http://www.w3.org/2000/svg" height="160" viewBox="0 0 128 160" width="128"><defs><path d="M 401.00003 77.00001 L 250 77.00001 C 232.66666 77.00001 215.33333 75.16667 198 71.5 C 180.66667 67.83333 164.50002 61.666664 149.5 53 C 134.5 44.333336 121.333336 33.333336 110.00001 20.000002 C 98.66667 6.6666675 89.5 -8 82.5 -24 C 75.5 -39.999996 70.66667 -56.666664 68 -74 C 65.333336 -91.333336 64 -108.66667 64 -126 L 64 -554.00006 C 64 -571.3334 65.333336 -588.6667 68 -606 C 70.66667 -623.3333 75.5 -640 82.5 -656.00006 C 89.5 -671.99994 98.66667 -686.6667 110.00001 -700 C 121.333336 -713.3333 134.5 -724.3333 149.5 -733.00006 C 164.50002 -741.6667 180.66667 -747.83325 198 -751.5 C 215.33333 -755.1666 232.66666 -757 250 -757 C 267.33334 -757 284.66666 -755.1666 302 -751.5 C 319.3333 -747.83325 335.5 -741.6667 350.5 -733.00006 C 365.49997 -724.3333 378.66666 -713.3333 390 -700 C 401.33334 -686.6667 410.49997 -671.99994 417.50003 -656.00006 C 424.5 -640 429.33334 -623.3333 432 -606 C 434.66666 -588.6667 435.99997 -571.3334 436 -554.00006 L 436 -226.00002 C 435.99997 -214.66667 435.33334 -203.5 434.00003 -192.5 C 432.6667 -181.5 430.16666 -170.66666 426.50003 -160.00002 C 422.83334 -149.33334 417.83334 -139.16667 411.50003 -129.5 C 405.1667 -119.833336 397.66666 -111.666664 389.00003 -105 C 380.33334 -98.33333 370.50003 -93.666664 359.50003 -91 C 348.50003 -88.33333 337.33334 -87.00001 326 -87.00001 C 314.6667 -87.00001 303.33334 -88.33333 292 -91 C 280.66666 -93.666664 270.16666 -98.166664 260.5 -104.50001 C 250.83334 -110.83333 242.5 -118.66667 235.5 -128 C 228.50002 -137.33334 223.00002 -147.33333 219.00002 -158 C 215 -168.66667 212.16667 -179.83334 210.50002 -191.50002 C 208.83334 -203.16667 207.99998 -214.66667 208.00002 -226.00002 L 208.00002 -413 C 207.99998 -424.3333 208.83334 -435.8333 210.50002 -447.5 C 212.16667 -459.16666 215 -470.33334 219.00002 -481 C 223.00002 -491.66666 228.50002 -501.6667 235.5 -511 C 242.5 -520.3334 250.83334 -528.1667 260.5 -534.5 C 270.16666 -540.8333 280.66666 -545.3333 292 -548.00006 C 303.33334 -550.6667 315 -552 327 -552 L 359.00003 -552 L 359.00003 -554.00006 C 359.00003 -570 357.33334 -586.1666 354.00003 -602.5 C 350.6667 -618.8333 344.1667 -633.5 334.5 -646.5 C 324.83334 -659.5 312.33334 -669.5 297.00003 -676.5 C 281.6667 -683.5 266 -687 250 -687.00006 C 234.00002 -687 218.33333 -683.5 203.00002 -676.5 C 187.66666 -669.5 175.16667 -659.5 165.50002 -646.5 C 155.83334 -633.5 149.33333 -618.8333 146 -602.5 C 142.66666 -586.1666 141 -570 141 -554.00006 L 141 -126 C 141 -110 142.66666 -93.83333 146 -77.5 C 149.33333 -61.166664 155.83334 -46.5 165.50002 -33.5 C 175.16667 -20.5 187.66666 -10.499999 203.00002 -3.5 C 218.33333 3.4999998 234.00002 6.9999995 250 7 L 401.00003 7 Z M 325.00003 -156 C 332.33334 -156 338.50003 -158.83333 343.50003 -164.5 C 348.50003 -170.16666 352 -176.50002 354.00003 -183.5 C 356 -190.49998 357.3333 -197.5 358 -204.5 C 358.66666 -211.5 359.00003 -218.66666 359.00003 -226.00002 L 359.00003 -483 L 327 -483 C 319 -483 312 -480.5 306 -475.5 C 300 -470.5 295.5 -464.50003 292.5 -457.50003 C 289.5 -450.50003 287.5 -443.3333 286.5 -436 C 285.50003 -428.66666 285 -420.99997 285 -413 L 285 -226.00002 C 285 -218.66666 285.50003 -211.33333 286.5 -204 C 287.5 -196.66666 289.33334 -189.5 292 -182.50002 C 294.66666 -175.5 299 -169.33334 305.00003 -164.00002 C 311 -158.66667 317.66666 -156 325.00003 -156 Z " id="path1"/></defs><g><g fill="#000000" transform="translate(40 105.20961) rotate(0)"><use href="#path1" transform="translate(0 0) scale(0.09599999)"/></g></g></svg>