<svg xmlns="http://www.w3.org/2000/svg" height="160" viewBox="0 0 128 160" width="128"><defs><path d="M 285 -421.00003 C 269 -441 254.16666 -461.83334 240.5 -483.50003 C 226.83334 -505.16666 215 -527.6667 205.00002 -551 C 195 -574.3333 187.16666 -598.5 181.5 -623.5 C 175.83333 -648.5 173 -673.99994 173 -700 C 173 -710.6667 174.33334 -721.1666 177.00002 -731.5 C 179.66666 -741.8333 184.66666 -750.8333 192 -758.50006 C 199.33334 -766.1666 208.16667 -771.6666 218.5 -775.00006 C 228.83334 -778.3333 239.33334 -779.99994 250 -780 C 260.66666 -779.99994 271 -778.49994 281 -775.5 C 291 -772.5 299.66666 -767.3334 307 -760 C 314.33334 -752.6666 319.50003 -743.8333 322.50003 -733.5 C 325.50003 -723.1666 327 -713 327 -703 C 327 -692.3333 325.50003 -682 322.50003 -672.00006 C 319.50003 -662.00006 314.33334 -653.3334 307 -646 C 299.66666 -638.6666 291 -633.49994 281 -630.5 C 271 -627.5 261 -626 251.00002 -626 C 250.33334 -626 249.5 -626 248.50002 -626 C 247.49998 -626 246.66667 -626 246.00002 -626 C 254.66666 -596 267.66666 -567.6667 285 -541 C 302.33334 -514.3333 321.6667 -489.3333 343.00003 -466 Z " id="path1"/></defs><g><g fill="#ffffff" transform="translate(40 105.20961) rotate(0)"><use href="#path1" transform="translate(0 0) scale(0.09599999)"/></g></g></svg>