<?xml version="1.0" encoding="UTF-8" standalone="no"?>
<svg height="160" viewBox="0 0 128 160" width="128" xmlns="http://www.w3.org/2000/svg">
<defs>
<path d="M 433 128 L 250 128 Q 222 128 194 123.5 Q 166 119 140 107.5 Q 114 96 92.5 77 Q 71 58 57 33.5 Q 43 9 37.5 -19 Q 32 -47 32 -75 L 32 -605 Q 32 -633 37.5 -661 Q 43 -689 57 -713.5 Q 71 -738 92.5 -757 Q 114 -776 140 -787.5 Q 166 -799 194 -803.5 Q 222 -808 250 -808 Q 278 -808 306 -803.5 Q 334 -799 360 -787.5 Q 386 -776 407.5 -757 Q 429 -738 443 -713.5 Q 457 -689 462.5 -661 Q 468 -633 468 -605 L 468 -155 Q 468 -136 461 -117.5 Q 454 -99 439 -86.5 Q 424 -74 405 -69 Q 386 -64 367 -64 L 250 -64 Q 232 -64 214 -68.5 Q 196 -73 182 -84.5 Q 168 -96 161.5 -113.5 Q 155 -131 155 -149 L 155 -485 Q 155 -504 161 -522.5 Q 167 -541 180.5 -554 Q 194 -567 212.5 -572.5 Q 231 -578 250 -578 Q 269 -578 287.5 -572.5 Q 306 -567 319.5 -554 Q 333 -541 339 -522.5 Q 345 -504 345 -485 L 345 -125 L 367 -125 Q 373 -125 379.5 -126.5 Q 386 -128 391 -132 Q 396 -136 398 -142.5 Q 400 -149 400 -155 L 400 -605 Q 400 -624 396.5 -643 Q 393 -662 383 -679 Q 373 -696 358 -709 Q 343 -722 325.5 -729.5 Q 308 -737 288.5 -740 Q 269 -743 250 -743 Q 231 -743 211.5 -740 Q 192 -737 174.5 -729.5 Q 157 -722 142 -709 Q 127 -696 117 -679 Q 107 -662 103.5 -643 Q 100 -624 100 -605 L 100 -75 Q 100 -56 104 -37.5 Q 108 -19 118 -2.5 Q 128 14 143 26 Q 158 38 175.5 45 Q 193 52 212 55 Q 231 58 250 58 L 433 58 Z M 250 -125 L 278 -125 L 278 -485 Q 278 -491 276.5 -497 Q 275 -503 271.5 -507.5 Q 268 -512 262 -514.5 Q 256 -517 250 -517 Q 244 -517 238 -514.5 Q 232 -512 228.5 -507.5 Q 225 -503 223.5 -497 Q 222 -491 222 -485 L 222 -149 Q 222 -144 224 -139 Q 226 -134 230 -130.5 Q 234 -127 239.5 -126 Q 245 -125 250 -125 Z " id="path1"/>
</defs>
<g>
<g data-source-text="@" fill="#dee4e3" transform="translate(40 104.99201) rotate(0) scale(0.09599999)">
<use href="#path1" transform="translate(0 0)"/>
</g>
</g>
</svg>