<?xml version="1.0" encoding="UTF-8" standalone="no"?>
<svg xmlns="http://www.w3.org/2000/svg" height="160" viewBox="0 0 128 160" width="128"><defs><path d="M 231 8 Q 206 8 181.5 2.5 Q 157 -3 136.5 -17 Q 116 -31 100.5 -50.5 Q 85 -70 75.5 -93 Q 66 -116 61 -140.5 Q 56 -165 56 -190 Q 56 -220 63.5 -249 Q 71 -278 86 -304 Q 101 -330 121 -352 Q 141 -374 163 -394 Q 148 -417 134 -439.5 Q 120 -462 108.5 -486 Q 97 -510 89.5 -536 Q 82 -562 82 -589 Q 82 -619 91.5 -648.5 Q 101 -678 121.5 -700.5 Q 142 -723 171 -733 Q 200 -743 230 -743 Q 260 -743 289.5 -733 Q 319 -723 339.5 -700.5 Q 360 -678 369 -648.5 Q 378 -619 378 -589 Q 378 -558 368.5 -528 Q 359 -498 343 -472 Q 327 -446 305 -423.5 Q 283 -401 260 -381 Q 264 -375 267.5 -368.5 Q 271 -362 275 -356 L 360 -210 L 399 -311 L 481 -311 L 421 -155 Q 418 -148 415.5 -140.5 Q 413 -133 410 -126 L 483 0 L 396 0 L 357 -65 Q 342 -40 319 -21.5 Q 296 -3 268 4 L 262 5 L 255 6 Q 249 7 243 7.5 Q 237 8 231 8 Z M 220 -444 Q 235 -458 249.5 -474 Q 264 -490 275.5 -508 Q 287 -526 293.5 -546.5 Q 300 -567 300 -588 Q 300 -603 296.5 -618.5 Q 293 -634 284 -647 Q 275 -660 260.5 -666.5 Q 246 -673 230 -673 Q 215 -673 200.5 -666 Q 186 -659 177 -646.5 Q 168 -634 164 -618.5 Q 160 -603 160 -587 Q 160 -568 165.5 -548.5 Q 171 -529 179.5 -511.5 Q 188 -494 198.5 -477 Q 209 -460 220 -444 Z M 236 -62 Q 250 -62 263.5 -67 Q 277 -72 288 -80 Q 299 -88 308 -99 Q 317 -110 324 -123 L 208 -320 Q 206 -323 204.5 -325.5 Q 203 -328 202 -330 Q 187 -316 174.5 -300.5 Q 162 -285 152.5 -267.5 Q 143 -250 138 -230.5 Q 133 -211 133 -191 Q 133 -175 136 -160 Q 139 -145 144 -130 Q 149 -115 157.5 -102 Q 166 -89 178.5 -79.5 Q 191 -70 206 -66 Q 221 -62 236 -62 Z " id="path1"/></defs><g><g data-source-text="&amp;" fill="#dee4e3" transform="translate(40 104.99201) rotate(0) scale(0.09599999)"><use href="#path1" transform="translate(0 0)"/></g></g></svg>