<?xml version="1.0" encoding="UTF-8" standalone="no"?>
<svg height="160" viewBox="0 0 128 160" width="128" xmlns="http://www.w3.org/2000/svg">
<defs>
<path d="M 203 8 Q 179 8 155.5 0 Q 132 -8 113.5 -23.5 Q 95 -39 82 -60 Q 69 -81 61.5 -104.5 Q 54 -128 51 -152 Q 48 -176 48 -200 Q 48 -229 53 -257 Q 58 -285 71.5 -310 Q 85 -335 107 -353.5 Q 129 -372 155 -383 Q 132 -394 113.5 -411.5 Q 95 -429 83.5 -451 Q 72 -473 68 -498 Q 64 -523 64 -548 Q 64 -573 68 -597.5 Q 72 -622 81.5 -645 Q 91 -668 106.5 -687.5 Q 122 -707 143.5 -719.5 Q 165 -732 189.5 -737.5 Q 214 -743 238 -743 Q 271 -743 302.5 -734 Q 334 -725 358.5 -703 Q 383 -681 395.5 -650 Q 408 -619 409 -587 L 331 -587 Q 331 -605 324 -622 Q 317 -639 304 -651 Q 291 -663 273.5 -668 Q 256 -673 238 -673 Q 223 -673 208.5 -669 Q 194 -665 182.5 -655.5 Q 171 -646 162.5 -633 Q 154 -620 149.5 -605.5 Q 145 -591 143.5 -576.5 Q 142 -562 142 -547 Q 142 -523 147 -499 Q 152 -475 166.5 -455.5 Q 181 -436 203.5 -426.5 Q 226 -417 250 -417 L 329 -417 L 329 -491 L 407 -491 L 407 -417 L 454 -417 L 454 -347 L 407 -347 L 407 -93 Q 407 -87 409 -81 Q 411 -75 415.5 -70.5 Q 420 -66 426 -64 Q 432 -62 438 -62 L 453 -62 L 453 8 L 438 8 Q 418 8 399 3.5 Q 380 -1 364.5 -13 Q 349 -25 340 -43 Q 331 -61 330 -81 Q 320 -63 308 -46.5 Q 296 -30 279.5 -17 Q 263 -4 243.5 2 Q 224 8 203 8 Z M 230 -62 Q 246 -62 261.5 -68.5 Q 277 -75 288 -86.5 Q 299 -98 307 -112.5 Q 315 -127 320 -142.5 Q 325 -158 327 -174 Q 329 -190 329 -206 L 329 -347 L 250 -347 Q 232 -347 214 -343 Q 196 -339 181 -329.5 Q 166 -320 155 -305.5 Q 144 -291 137 -274 Q 130 -257 128 -239 Q 126 -221 126 -203 Q 126 -178 130.5 -153.5 Q 135 -129 148 -108.5 Q 161 -88 183 -75 Q 205 -62 230 -62 Z " id="path1"/>
</defs>
<g>
<g data-source-text="&amp;" fill="#dee4e3" transform="translate(40 104.99201) rotate(0) scale(0.09599999)">
<use href="#path1" transform="translate(0 0)"/>
</g>
</g>
</svg>