<?xml version="1.0" encoding="UTF-8" standalone="no"?>
<svg height="160" viewBox="0 0 128 160" width="128" xmlns="http://www.w3.org/2000/svg">
<defs>
<path d="M 202 8 Q 172 8 143 -1 Q 114 -10 93.5 -32 Q 73 -54 64.5 -83 Q 56 -112 56 -142 Q 56 -167 62.5 -192 Q 69 -217 84.5 -237 Q 100 -257 122 -270.5 Q 144 -284 168.5 -292 Q 193 -300 218 -303 Q 243 -306 269 -306 L 358 -306 L 358 -355 Q 358 -376 351.5 -396.5 Q 345 -417 329 -431.5 Q 313 -446 292 -452 Q 271 -458 250 -458 Q 222 -458 194 -451.5 Q 166 -445 141 -433 L 141 -326 L 64 -326 L 64 -471 Q 105 -498 153 -513 Q 201 -528 250 -528 Q 274 -528 298 -524.5 Q 322 -521 344 -511 Q 366 -501 384.5 -484.5 Q 403 -468 414.5 -447 Q 426 -426 431 -402.5 Q 436 -379 436 -355 L 436 -93 Q 436 -87 438 -81 Q 440 -75 444.5 -70.5 Q 449 -66 455 -64 Q 461 -62 467 -62 L 482 -62 L 482 8 L 467 8 Q 447 8 427 3 Q 407 -2 391 -15 Q 375 -28 367 -47 Q 359 -66 358 -87 Q 349 -64 332.5 -45.5 Q 316 -27 295 -14.5 Q 274 -2 250 3 Q 226 8 202 8 Z M 232 -62 Q 256 -62 280.5 -69 Q 305 -76 323 -92 Q 341 -108 349.5 -131.5 Q 358 -155 358 -180 L 358 -236 L 269 -236 Q 254 -236 238.5 -234.5 Q 223 -233 208.5 -229.5 Q 194 -226 180 -219.5 Q 166 -213 155 -203 Q 144 -193 139 -178.5 Q 134 -164 134 -149 Q 134 -130 141 -112.5 Q 148 -95 162 -83 Q 176 -71 194.5 -66.5 Q 213 -62 232 -62 Z " id="path1"/>
</defs>
<g>
<g data-source-text="a" fill="#20242e" transform="translate(40 104.99201) rotate(0) scale(0.09599999)">
<use href="#path1" transform="translate(0 0)"/>
</g>
</g>
</svg>