<?xml version="1.0" encoding="UTF-8" standalone="no"?>
<svg height="160" viewBox="0 0 128 160" width="128" xmlns="http://www.w3.org/2000/svg">
<defs>
<path d="M 250 8 Q 200 8 151.5 -5.5 Q 103 -19 64 -49 L 64 -665 L 18 -665 L 18 -735 L 142 -735 L 142 -429 Q 150 -450 163 -469.5 Q 176 -489 194.5 -502.5 Q 213 -516 235.5 -522 Q 258 -528 281 -528 Q 306 -528 330.5 -521 Q 355 -514 375 -499 Q 395 -484 408.5 -463 Q 422 -442 430 -418.5 Q 438 -395 441 -370 Q 444 -345 444 -320 L 444 -200 Q 444 -173 440 -146 Q 436 -119 425 -94.5 Q 414 -70 395.5 -49.5 Q 377 -29 353.5 -16 Q 330 -3 303.5 2.5 Q 277 8 250 8 Z M 250 -62 Q 267 -62 284 -66 Q 301 -70 315 -79.5 Q 329 -89 339.5 -103 Q 350 -117 356 -133 Q 362 -149 364 -166 Q 366 -183 366 -200 L 366 -320 Q 366 -337 364 -354 Q 362 -371 356 -387 Q 350 -403 339.5 -417 Q 329 -431 315 -440.5 Q 301 -450 284.5 -454 Q 268 -458 251 -458 Q 234 -458 218 -454 Q 202 -450 188.5 -440 Q 175 -430 165.5 -415.5 Q 156 -401 151 -385.5 Q 146 -370 144 -353.5 Q 142 -337 142 -320 L 142 -85 Q 166 -72 194 -67 Q 222 -62 250 -62 Z " id="path1"/>
</defs>
<g>
<g data-source-text="b" fill="#20242e" transform="translate(40 104.99201) rotate(0) scale(0.09599999)">
<use href="#path1" transform="translate(0 0)"/>
</g>
</g>
</svg>