<?xml version="1.0" encoding="UTF-8" standalone="no"?>
<svg height="160" viewBox="0 0 256 160" width="256" xmlns="http://www.w3.org/2000/svg">
<defs>
<path d="M 65 -648 L 65 -768 L 185 -768 L 185 -648 Z M 185 -157 L 65 -157 L 65 -277 L 185 -277 Z M 65 88 L 65 -32 L 185 -32 L 185 88 Z M 315 -648 L 315 -768 L 435 -768 L 435 -648 Z M 315 -403 L 315 -523 L 435 -523 L 435 -403 Z M 315 88 L 315 -32 L 435 -32 L 435 88 Z " id="path1"/>
<path d="M 65 -648 L 65 -768 L 185 -768 L 185 -648 Z M 65 88 L 65 -32 L 185 -32 L 185 88 Z M 315 -403 L 315 -523 L 435 -523 L 435 -403 Z M 315 88 L 315 -32 L 435 -32 L 435 88 Z " id="path2"/>
</defs>
<g>
<g data-source-text="⣝" fill="#20242e" transform="translate(40 104.99201) rotate(0) scale(0.09599999)">
<use href="#path1" transform="translate(0 0)"/>
</g>
</g>
<g>
<g data-source-text="⣑" fill="#20242e" transform="translate(168 104.99201) rotate(0) scale(0.09599999)">
<use href="#path2" transform="translate(0 0)"/>
</g>
</g>
</svg>