<?xml version="1.0" encoding="UTF-8" standalone="no"?>
<svg xmlns="http://www.w3.org/2000/svg" height="160" viewBox="0 0 256 160" width="256"><defs><path d="M 417 153 Q 389 153 361.5 149.5 Q 334 146 307.5 137.5 Q 281 129 256.5 114.5 Q 232 100 214 78.5 Q 196 57 187 30.5 Q 178 4 178 -24 Q 178 -40 180 -55 Q 182 -70 187 -84.5 Q 192 -99 198.5 -112.5 Q 205 -126 212 -139.5 Q 219 -153 223.5 -168 Q 228 -183 228 -198 Q 228 -215 223 -231.5 Q 218 -248 207 -261 Q 196 -274 181 -282.5 Q 166 -291 150 -296 Q 134 -301 117 -303 Q 100 -305 83 -305 L 83 -375 Q 100 -375 117 -377 Q 134 -379 150 -384 Q 166 -389 181 -397.5 Q 196 -406 207 -419 Q 218 -432 223 -448.5 Q 228 -465 228 -482 Q 228 -497 223.5 -512 Q 219 -527 212 -540.5 Q 205 -554 198.5 -567.5 Q 192 -581 187 -595.5 Q 182 -610 180 -625 Q 178 -640 178 -656 Q 178 -684 187 -710.5 Q 196 -737 214 -758.5 Q 232 -780 256.5 -794.5 Q 281 -809 307.5 -817.5 Q 334 -826 361.5 -829.5 Q 389 -833 417 -833 L 417 -763 Q 399 -763 381 -761 Q 363 -759 345.5 -754 Q 328 -749 312 -741 Q 296 -733 283 -720.5 Q 270 -708 262.5 -691 Q 255 -674 255 -656 Q 255 -640 260 -625.5 Q 265 -611 271.5 -597.5 Q 278 -584 284.5 -570 Q 291 -556 296 -541.5 Q 301 -527 303.5 -512 Q 306 -497 306 -482 Q 306 -458 299 -435 Q 292 -412 277.5 -393 Q 263 -374 242.5 -361 Q 222 -348 200 -340 Q 222 -332 242.5 -319 Q 263 -306 277.5 -287 Q 292 -268 299 -245 Q 306 -222 306 -198 Q 306 -183 303.5 -168 Q 301 -153 296 -138.5 Q 291 -124 284.5 -110 Q 278 -96 271.5 -82.5 Q 265 -69 260 -54.5 Q 255 -40 255 -24 Q 255 -6 262.5 11 Q 270 28 283 40.5 Q 296 53 312 61 Q 328 69 345.5 74 Q 363 79 381 81 Q 399 83 417 83 Z " id="path1"/><path d="M 83 153 L 83 83 Q 101 83 119 81 Q 137 79 154.5 74 Q 172 69 188 61 Q 204 53 217 40.5 Q 230 28 237.5 11 Q 245 -6 245 -24 Q 245 -40 240 -54.5 Q 235 -69 228.5 -82.5 Q 222 -96 215.5 -110 Q 209 -124 204 -138.5 Q 199 -153 196.5 -168 Q 194 -183 194 -198 Q 194 -222 201 -245 Q 208 -268 222.5 -287 Q 237 -306 257.5 -319 Q 278 -332 300 -340 Q 278 -348 257.5 -361 Q 237 -374 222.5 -393 Q 208 -412 201 -435 Q 194 -458 194 -482 Q 194 -497 196.5 -512 Q 199 -527 204 -541.5 Q 209 -556 215.5 -570 Q 222 -584 228.5 -597.5 Q 235 -611 240 -625.5 Q 245 -640 245 -656 Q 245 -674 237.5 -691 Q 230 -708 217 -720.5 Q 204 -733 188 -741 Q 172 -749 154.5 -754 Q 137 -759 119 -761 Q 101 -763 83 -763 L 83 -833 Q 111 -833 138.5 -829.5 Q 166 -826 192.5 -817.5 Q 219 -809 243.5 -794.5 Q 268 -780 286 -758.5 Q 304 -737 313 -710.5 Q 322 -684 322 -656 Q 322 -640 320 -625 Q 318 -610 313 -595.5 Q 308 -581 301.5 -567.5 Q 295 -554 288 -540.5 Q 281 -527 276.5 -512 Q 272 -497 272 -482 Q 272 -465 277 -448.5 Q 282 -432 293 -419 Q 304 -406 319 -397.5 Q 334 -389 350 -384 Q 366 -379 383 -377 Q 400 -375 417 -375 L 417 -358 L 417 -305 Q 400 -305 383 -303 Q 366 -301 350 -296 Q 334 -291 319 -282.5 Q 304 -274 293 -261 Q 282 -248 277 -231.5 Q 272 -215 272 -198 Q 272 -183 276.5 -168 Q 281 -153 288 -139.5 Q 295 -126 301.5 -112.5 Q 308 -99 313 -84.5 Q 318 -70 320 -55 Q 322 -40 322 -24 Q 322 4 313 30.5 Q 304 57 286 78.5 Q 268 100 243.5 114.5 Q 219 129 192.5 137.5 Q 166 146 138.5 149.5 Q 111 153 83 153 Z " id="path2"/></defs><g><g data-source-text="{" fill="#dee4e3" transform="translate(40 104.99201) rotate(0) scale(0.09599999)"><use href="#path1" transform="translate(0 0)"/></g><g data-source-text="}" fill="#dee4e3" transform="translate(168 104.99201) rotate(0) scale(0.09599999)"><use href="#path2" transform="translate(0 0)"/></g></g></svg>