<?xml version="1.0" encoding="UTF-8" standalone="no"?>
<svg height="160" viewBox="0 0 256 160" width="256" xmlns="http://www.w3.org/2000/svg">
<defs>
<path d="M 320 153 Q 297 153 274.5 150.5 Q 252 148 231 139.5 Q 210 131 192.5 116.5 Q 175 102 164.5 82 Q 154 62 150.5 39.5 Q 147 17 147 -5 Q 147 -21 149 -36.5 Q 151 -52 156 -67 Q 161 -82 169 -96 Q 177 -110 185 -123 Q 196 -142 205 -162 Q 214 -182 214 -204 Q 214 -226 206 -247 Q 198 -268 180.5 -281.5 Q 163 -295 141.5 -300 Q 120 -305 98 -305 L 83 -305 L 83 -375 L 98 -375 Q 120 -375 141.5 -380 Q 163 -385 180.5 -398.5 Q 198 -412 206 -433 Q 214 -454 214 -476 Q 214 -498 205 -518 Q 196 -538 185 -557 Q 177 -570 169 -584 Q 161 -598 156 -613 Q 151 -628 149 -643.5 Q 147 -659 147 -675 Q 147 -697 150.5 -719.5 Q 154 -742 164.5 -762 Q 175 -782 192.5 -796.5 Q 210 -811 231 -819.5 Q 252 -828 274.5 -830.5 Q 297 -833 320 -833 L 399 -833 L 399 -763 L 320 -763 Q 301 -763 282.5 -759 Q 264 -755 249.5 -742.5 Q 235 -730 229.5 -712 Q 224 -694 224 -675 Q 224 -657 230 -640 Q 236 -623 245 -608 Q 254 -593 263.5 -577.5 Q 273 -562 279 -545.5 Q 285 -529 288.5 -511.5 Q 292 -494 292 -476 Q 292 -454 286.5 -432.5 Q 281 -411 269 -393 Q 257 -375 239.5 -361.5 Q 222 -348 202 -340 Q 222 -332 239.5 -318.5 Q 257 -305 269 -287 Q 281 -269 286.5 -247.5 Q 292 -226 292 -204 Q 292 -186 288.5 -168.5 Q 285 -151 279 -134.5 Q 273 -118 263.5 -102.5 Q 254 -87 245 -72 Q 236 -57 230 -40 Q 224 -23 224 -5 Q 224 14 229.5 32 Q 235 50 249.5 62.5 Q 264 75 282.5 79 Q 301 83 320 83 L 399 83 L 399 153 Z " id="path1"/>
<path d="M 101 153 L 101 83 L 180 83 Q 199 83 217.5 79 Q 236 75 250.5 62.5 Q 265 50 270.5 32 Q 276 14 276 -5 Q 276 -23 270 -40 Q 264 -57 255 -72 Q 246 -87 236.5 -102.5 Q 227 -118 221 -134.5 Q 215 -151 211.5 -168.5 Q 208 -186 208 -204 Q 208 -226 213.5 -247.5 Q 219 -269 231 -287 Q 243 -305 260.5 -318.5 Q 278 -332 298 -340 Q 278 -348 260.5 -361.5 Q 243 -375 231 -393 Q 219 -411 213.5 -432.5 Q 208 -454 208 -476 Q 208 -494 211.5 -511.5 Q 215 -529 221 -545.5 Q 227 -562 236.5 -577.5 Q 246 -593 255 -608 Q 264 -623 270 -640 Q 276 -657 276 -675 Q 276 -694 270.5 -712 Q 265 -730 250.5 -742.5 Q 236 -755 217.5 -759 Q 199 -763 180 -763 L 101 -763 L 101 -833 L 180 -833 Q 203 -833 225.5 -830.5 Q 248 -828 269 -819.5 Q 290 -811 307.5 -796.5 Q 325 -782 335.5 -762 Q 346 -742 349.5 -719.5 Q 353 -697 353 -675 Q 353 -659 351 -643.5 Q 349 -628 344 -613 Q 339 -598 331 -584 Q 323 -570 315 -557 Q 304 -538 295 -518 Q 286 -498 286 -476 Q 286 -454 294 -433 Q 302 -412 319.5 -398.5 Q 337 -385 358.5 -380 Q 380 -375 402 -375 L 417 -375 L 417 -305 L 402 -305 Q 380 -305 358.5 -300 Q 337 -295 319.5 -281.5 Q 302 -268 294 -247 Q 286 -226 286 -204 Q 286 -182 295 -162 Q 304 -142 315 -123 Q 323 -110 331 -96 Q 339 -82 344 -67 Q 349 -52 351 -36.5 Q 353 -21 353 -5 Q 353 17 349.5 39.5 Q 346 62 335.5 82 Q 325 102 307.5 116.5 Q 290 131 269 139.5 Q 248 148 225.5 150.5 Q 203 153 180 153 Z " id="path2"/>
</defs>
<g>
<g data-source-text="{" fill="#20242e" transform="translate(40 104.99201) rotate(0) scale(0.09599999)">
<use href="#path1" transform="translate(0 0)"/>
</g>
</g>
<g>
<g data-source-text="}" fill="#20242e" transform="translate(168 104.99201) rotate(0) scale(0.09599999)">
<use href="#path2" transform="translate(0 0)"/>
</g>
</g>
</svg>