<?xml version="1.0" encoding="UTF-8" standalone="no"?>
<svg height="160" viewBox="0 0 256 160" width="256" xmlns="http://www.w3.org/2000/svg">
<defs>
<path d="M 399 153 Q 372 153 345 149.5 Q 318 146 292 137 Q 266 128 243 113 Q 220 98 203 76.5 Q 186 55 178 29 Q 170 3 170 -24 Q 170 -47 175.5 -69.5 Q 181 -92 190 -112.5 Q 199 -133 208.5 -154 Q 218 -175 218 -198 Q 218 -214 213.5 -230 Q 209 -246 199.5 -259 Q 190 -272 176 -281.5 Q 162 -291 146.5 -296 Q 131 -301 115 -303 Q 99 -305 83 -305 L 83 -375 Q 99 -375 115 -377 Q 131 -379 146.5 -384 Q 162 -389 176 -398.5 Q 190 -408 199.5 -421 Q 209 -434 213.5 -450 Q 218 -466 218 -482 Q 218 -505 208.5 -526 Q 199 -547 190 -567.5 Q 181 -588 175.5 -610.5 Q 170 -633 170 -656 Q 170 -683 178 -709 Q 186 -735 203 -756.5 Q 220 -778 243 -793 Q 266 -808 292 -817 Q 318 -826 345 -829.5 Q 372 -833 399 -833 L 399 -763 Q 381 -763 364 -761 Q 347 -759 330.5 -754 Q 314 -749 298.5 -740.5 Q 283 -732 271.5 -719 Q 260 -706 254 -689.5 Q 248 -673 248 -656 Q 248 -640 252.5 -625.5 Q 257 -611 263 -597.5 Q 269 -584 275.5 -570 Q 282 -556 286.5 -541.5 Q 291 -527 293 -512 Q 295 -497 295 -482 Q 295 -459 289 -436 Q 283 -413 269 -394 Q 255 -375 235.5 -361.5 Q 216 -348 195 -340 Q 216 -332 235.5 -318.5 Q 255 -305 269 -286 Q 283 -267 289 -244 Q 295 -221 295 -198 Q 295 -183 293 -168 Q 291 -153 286.5 -138.5 Q 282 -124 275.5 -110 Q 269 -96 263 -82.5 Q 257 -69 252.5 -54.5 Q 248 -40 248 -24 Q 248 -7 254 9.5 Q 260 26 271.5 39 Q 283 52 298.5 60.5 Q 314 69 330.5 74 Q 347 79 364 81 Q 381 83 399 83 Z " id="path1"/>
<path d="M 101 153 L 101 83 Q 111 83 121 82.5 Q 131 82 141 80.5 Q 151 79 160.5 76.5 Q 170 74 179 70.5 Q 188 67 197.5 62.5 Q 207 58 214.5 52 Q 222 46 228.5 38.5 Q 235 31 240 22.5 Q 245 14 248.5 2.5 Q 252 -9 252 -16 L 252 -24 Q 252 -33 250.5 -41.5 Q 249 -50 246.5 -58.5 Q 244 -67 240.5 -75 Q 237 -83 233.5 -90.5 Q 230 -98 226 -106 Q 222 -114 219 -122.5 Q 216 -131 213.5 -139 Q 211 -147 209 -155.5 Q 207 -164 206 -174.5 Q 205 -185 205 -191 L 205 -198 Q 205 -212 207.5 -227 Q 210 -242 215 -255.5 Q 220 -269 228 -281 Q 236 -293 246.5 -303.5 Q 257 -314 271.5 -323.5 Q 286 -333 295 -336 L 305 -340 Q 292 -345 279 -352.5 Q 266 -360 254.5 -369 Q 243 -378 234 -389.5 Q 225 -401 219 -414 Q 213 -427 209 -444 Q 205 -461 205 -471 L 205 -482 Q 205 -491 205.5 -499.5 Q 206 -508 207.5 -516.5 Q 209 -525 211.5 -533.5 Q 214 -542 216.5 -550 Q 219 -558 223 -566.5 Q 227 -575 230.5 -582.5 Q 234 -590 237.5 -598 Q 241 -606 244 -614 Q 247 -622 249.5 -632 Q 252 -642 252 -648 L 252 -656 Q 252 -666 250 -676 Q 248 -686 244 -695 Q 240 -704 234 -712 Q 228 -720 221 -726.5 Q 214 -733 205 -738.5 Q 196 -744 187 -747.5 Q 178 -751 168.5 -754 Q 159 -757 149.5 -759 Q 140 -761 128.5 -762 Q 117 -763 110 -763 L 101 -763 L 101 -833 Q 117 -833 132.5 -832 Q 148 -831 163.5 -828.5 Q 179 -826 194 -821.5 Q 209 -817 223 -811 Q 237 -805 250.5 -797 Q 264 -789 276 -778.5 Q 288 -768 297.5 -755.5 Q 307 -743 314 -729 Q 321 -715 325.5 -697.5 Q 330 -680 330 -670 L 330 -656 Q 330 -642 328 -628 Q 326 -614 322 -600 Q 318 -586 312.5 -573 Q 307 -560 301 -547 Q 295 -534 288.5 -518.5 Q 282 -503 282 -494 L 282 -482 Q 282 -473 283.5 -463.5 Q 285 -454 288 -445 Q 291 -436 295.5 -428 Q 300 -420 306.5 -413.5 Q 313 -407 320.5 -401 Q 328 -395 336.5 -391 Q 345 -387 354 -384 Q 363 -381 372 -379 Q 381 -377 392 -376 Q 403 -375 409 -375 L 417 -375 L 417 -305 Q 408 -305 398.5 -304.5 Q 389 -304 380 -302.5 Q 371 -301 361.5 -298.5 Q 352 -296 343.5 -292.5 Q 335 -289 327 -284 Q 319 -279 312 -272.5 Q 305 -266 300 -258.5 Q 295 -251 291 -242.5 Q 287 -234 284.5 -223 Q 282 -212 282 -206 L 282 -198 Q 282 -184 286 -170 Q 290 -156 296 -143 Q 302 -130 308 -117.5 Q 314 -105 318.5 -91.5 Q 323 -78 326.5 -61.5 Q 330 -45 330 -36 L 330 -24 Q 330 -8 327.5 7.5 Q 325 23 319.5 37.5 Q 314 52 305.5 65 Q 297 78 286 89.5 Q 275 101 262 110 Q 249 119 235 125.5 Q 221 132 206.5 137.5 Q 192 143 176.5 146 Q 161 149 143 151 Q 125 153 115 153 Z " id="path2"/>
</defs>
<g>
<g data-source-text="{" fill="#20242e" transform="translate(40 104.99201) rotate(0) scale(0.09599999)">
<use href="#path1" transform="translate(0 0)"/>
</g>
</g>
<g>
<g data-source-text="}" fill="#20242e" transform="translate(168 104.99201) rotate(0) scale(0.09599999)">
<use href="#path2" transform="translate(0 0)"/>
</g>
</g>
</svg>