<?xml version="1.0" encoding="UTF-8" standalone="no"?>
<svg height="160" viewBox="0 0 256 160" width="256" xmlns="http://www.w3.org/2000/svg">
<defs>
<path d="M 320 153 Q 297 153 274.5 150.5 Q 252 148 231 139.5 Q 210 131 192.5 116.5 Q 175 102 164.5 82 Q 154 62 150.5 39.5 Q 147 17 147 -5 Q 147 -23 150 -40.5 Q 153 -58 159.5 -74.5 Q 166 -91 175 -106.5 Q 184 -122 193 -137 Q 202 -152 208 -169 Q 214 -186 214 -204 Q 214 -226 206 -247 Q 198 -268 180.5 -281.5 Q 163 -295 141.5 -300 Q 120 -305 98 -305 L 83 -305 L 83 -375 L 98 -375 Q 120 -375 141.5 -380 Q 163 -385 180.5 -398.5 Q 198 -412 206 -433 Q 214 -454 214 -476 Q 214 -494 208 -511 Q 202 -528 193 -543 Q 184 -558 175 -573.5 Q 166 -589 159.5 -605.5 Q 153 -622 150 -639.5 Q 147 -657 147 -675 Q 147 -697 150.5 -719.5 Q 154 -742 164.5 -762 Q 175 -782 192.5 -796.5 Q 210 -811 231 -819.5 Q 252 -828 274.5 -830.5 Q 297 -833 320 -833 L 399 -833 L 399 -763 L 320 -763 Q 301 -763 282.5 -759 Q 264 -755 249.5 -742.5 Q 235 -730 229.5 -712 Q 224 -694 224 -675 Q 224 -657 230 -640 Q 236 -623 245 -608 Q 254 -593 263.5 -577.5 Q 273 -562 279 -545.5 Q 285 -529 288.5 -511.5 Q 292 -494 292 -476 Q 292 -454 286.5 -432.5 Q 281 -411 269 -393 Q 257 -375 239.5 -361.5 Q 222 -348 202 -340 Q 222 -332 239.5 -318.5 Q 257 -305 269 -287 Q 281 -269 286.5 -247.5 Q 292 -226 292 -204 Q 292 -186 288.5 -168.5 Q 285 -151 279 -134.5 Q 273 -118 263.5 -102.5 Q 254 -87 245 -72 Q 236 -57 230 -40 Q 224 -23 224 -5 Q 224 14 229.5 32 Q 235 50 249.5 62.5 Q 264 75 282.5 79 Q 301 83 320 83 L 399 83 L 399 153 Z " id="path1"/>
<path d="M 101 153 L 101 83 L 180 83 Q 192 83 203.5 81.5 Q 215 80 226 76.5 Q 237 73 246.5 65.5 Q 256 58 262.5 48.5 Q 269 39 272.5 25.5 Q 276 12 276 4 L 276 -5 Q 276 -15 274 -25 Q 272 -35 268 -45 Q 264 -55 259.5 -63.5 Q 255 -72 249.5 -81 Q 244 -90 238.5 -98.5 Q 233 -107 228.5 -116.5 Q 224 -126 220.5 -135.5 Q 217 -145 214.5 -155 Q 212 -165 210 -176.5 Q 208 -188 208 -195 L 208 -204 Q 208 -218 210 -231.5 Q 212 -245 216.5 -258 Q 221 -271 228 -282.5 Q 235 -294 244.5 -304 Q 254 -314 267 -323.5 Q 280 -333 288 -336 L 298 -340 Q 285 -345 273.5 -352 Q 262 -359 252 -368.5 Q 242 -378 234 -389 Q 226 -400 220.5 -412.5 Q 215 -425 211.5 -440.5 Q 208 -456 208 -465 L 208 -476 Q 208 -486 209 -496.5 Q 210 -507 212.5 -517 Q 215 -527 218 -536.5 Q 221 -546 225 -555.5 Q 229 -565 234.5 -574 Q 240 -583 245 -591.5 Q 250 -600 255.5 -608.5 Q 261 -617 265 -626.5 Q 269 -636 272.5 -647.5 Q 276 -659 276 -666 L 276 -675 Q 276 -687 274 -698.5 Q 272 -710 267 -720.5 Q 262 -731 253.5 -739.5 Q 245 -748 234.5 -753 Q 224 -758 210.5 -760.5 Q 197 -763 190 -763 L 101 -763 L 101 -833 L 180 -833 Q 193 -833 206 -832.5 Q 219 -832 232 -830 Q 245 -828 257 -824 Q 269 -820 280.5 -814 Q 292 -808 302.5 -800 Q 313 -792 321.5 -782.5 Q 330 -773 336 -761.5 Q 342 -750 345.5 -737.5 Q 349 -725 351 -709.5 Q 353 -694 353 -686 L 353 -675 Q 353 -665 352 -654.5 Q 351 -644 349 -634 Q 347 -624 344 -614.5 Q 341 -605 336.5 -595.5 Q 332 -586 327 -577 Q 322 -568 317 -559.5 Q 312 -551 306.5 -542.5 Q 301 -534 297 -524.5 Q 293 -515 289.5 -503.5 Q 286 -492 286 -485 L 286 -476 Q 286 -462 289 -448.5 Q 292 -435 298.5 -423 Q 305 -411 315.5 -402 Q 326 -393 338 -387 Q 350 -381 366 -378 Q 382 -375 391 -375 L 417 -375 L 417 -305 L 402 -305 Q 388 -305 374.5 -303 Q 361 -301 348 -297 Q 335 -293 323.5 -285 Q 312 -277 304 -266 Q 296 -255 291 -239.5 Q 286 -224 286 -215 L 286 -204 Q 286 -194 288 -184 Q 290 -174 294 -164 Q 298 -154 302.5 -145.5 Q 307 -137 312.5 -128 Q 318 -119 323 -110.5 Q 328 -102 332.5 -92.5 Q 337 -83 341 -73.5 Q 345 -64 347.5 -54 Q 350 -44 351.5 -32.5 Q 353 -21 353 -14 L 353 -5 Q 353 8 352 21 Q 351 34 348.5 46.5 Q 346 59 341 71 Q 336 83 328.5 93.5 Q 321 104 311.5 113 Q 302 122 291 128.5 Q 280 135 267.5 140 Q 255 145 242.5 147.5 Q 230 150 215 151.5 Q 200 153 192 153 Z " id="path2"/>
</defs>
<g>
<g data-source-text="{" fill="#dee4e3" transform="translate(40 104.99201) rotate(0) scale(0.09599999)">
<use href="#path1" transform="translate(0 0)"/>
</g>
</g>
<g>
<g data-source-text="}" fill="#dee4e3" transform="translate(168 104.99201) rotate(0) scale(0.09599999)">
<use href="#path2" transform="translate(0 0)"/>
</g>
</g>
</svg>