<svg xmlns="http://www.w3.org/2000/svg" height="160" viewBox="0 0 256 160" width="256"><defs><path d="M 417.00003 153 C 398.99997 152.99998 380.99997 151.33333 363 148 C 345 144.66667 327.6667 139 311.00003 131 C 294.33334 123 279.3333 112.66667 266 100.00001 C 252.66669 87.333336 241.83334 72.83333 233.50002 56.500004 C 225.16667 40.166668 219.33334 23 216 5.0000005 C 212.66667 -12.999999 211.00002 -31.333334 211.00002 -50.000004 L 211.00002 -173 C 211.00002 -184.33333 210 -195.83333 208.00002 -207.5 C 206.00002 -219.16669 202.50002 -230.16669 197.50002 -240.5 C 192.5 -250.83331 186 -260.3333 178 -269 C 170 -277.66666 160.83333 -284.8333 150.5 -290.5 C 140.16667 -296.16666 129.16667 -300 117.5 -302 C 105.833336 -304 94.333336 -305 83 -305.00003 L 83 -375 C 94.333336 -375 105.833336 -376.00003 117.5 -378.00003 C 129.16667 -380 140.16667 -383.83334 150.5 -389.50003 C 160.83333 -395.16666 170 -402.33334 178 -411.00003 C 186 -419.66666 192.5 -429.16666 197.50002 -439.50003 C 202.50002 -449.8333 206.00002 -460.8333 208.00002 -472.50003 C 210 -484.1667 211.00002 -495.6667 211.00002 -507.00003 L 211.00002 -630 C 211.00002 -648.6666 212.66667 -667 216 -685.00006 C 219.33334 -703 225.16667 -720.1667 233.50002 -736.50006 C 241.83334 -752.8334 252.66669 -767.3334 266 -780 C 279.3333 -792.6666 294.33334 -803 311.00003 -811.00006 C 327.6667 -819.00006 345 -824.6667 363 -828 C 380.99997 -831.3334 398.99997 -833.00006 417.00003 -833.00006 L 417.00003 -763.00006 C 405.6667 -763.00006 394.1667 -761.8334 382.50003 -759.50006 C 370.83334 -757.16675 359.83334 -753.3334 349.50003 -748 C 339.16666 -742.6667 330 -735.6666 322.00003 -727 C 314 -718.33325 307.5 -708.6667 302.50003 -698.00006 C 297.5 -687.3334 294 -676.3334 292 -665 C 290 -653.6667 289 -642 289 -630 L 289 -507.00003 C 289 -491.00003 287.83334 -475.16666 285.50003 -459.5 C 283.16666 -443.8333 278.8333 -428.66666 272.5 -414 C 266.16666 -399.33334 257.83334 -385.66666 247.50002 -373 C 237.16666 -360.33334 225.66666 -349.33334 213 -340 C 225.66666 -330.66666 237.16666 -319.6667 247.50002 -307 C 257.83334 -294.33334 266.16666 -280.6667 272.5 -266 C 278.8333 -251.33333 283.16666 -236.16666 285.50003 -220.5 C 287.83334 -204.83333 289 -189.00002 289 -173 L 289 -50.000004 C 289 -38 290 -26.333332 292 -15.000001 C 294 -3.666667 297.5 7.3333335 302.50003 18.000002 C 307.5 28.666666 314 38.333332 322.00003 47.000004 C 330 55.666668 339.16666 62.666668 349.50003 68 C 359.83334 73.333336 370.83334 77.16667 382.50003 79.5 C 394.1667 81.833336 405.6667 83 417.00003 83 Z " id="path1"/><path d="M 83 153 L 83 83 C 94.333336 83 105.833336 81.833336 117.5 79.5 C 129.16667 77.16667 140.16667 73.333336 150.5 68 C 160.83333 62.666668 170 55.666668 178 47.000004 C 186 38.333332 192.5 28.666666 197.50002 18.000002 C 202.50002 7.3333335 206.00002 -3.666667 208.00002 -15.000001 C 210 -26.333332 211.00002 -38 211.00002 -50.000004 L 211.00002 -173 C 211.00002 -189.00002 212.16667 -204.83333 214.50002 -220.5 C 216.83331 -236.16666 221.16666 -251.33333 227.50002 -266 C 233.83334 -280.6667 242.16667 -294.33334 252.5 -307 C 262.8333 -319.6667 274.3333 -330.66666 287 -340 C 274.3333 -349.33334 262.8333 -360.33334 252.5 -373 C 242.16667 -385.66666 233.83334 -399.33334 227.50002 -414 C 221.16666 -428.66666 216.83331 -443.8333 214.50002 -459.5 C 212.16667 -475.16666 211.00002 -491.00003 211.00002 -507.00003 L 211.00002 -630 C 211.00002 -642 210 -653.6667 208.00002 -665 C 206.00002 -676.3334 202.50002 -687.3334 197.50002 -698.00006 C 192.5 -708.6667 186 -718.33325 178 -727 C 170 -735.6666 160.83333 -742.6667 150.5 -748 C 140.16667 -753.3334 129.16667 -757.16675 117.5 -759.50006 C 105.833336 -761.8334 94.333336 -763.00006 83 -763.00006 L 83 -833.00006 C 101.00001 -833.00006 119 -831.3334 137.00002 -828 C 155 -824.6667 172.33333 -819.00006 189.00002 -811.00006 C 205.66667 -803 220.66667 -792.6666 234.00002 -780 C 247.33333 -767.3334 258.16666 -752.8334 266.5 -736.50006 C 274.83334 -720.1667 280.6667 -703 284 -685.00006 C 287.33334 -667 289 -648.6666 289 -630 L 289 -507.00003 C 289 -495.6667 290 -484.1667 292 -472.50003 C 294 -460.8333 297.5 -449.8333 302.50003 -439.50003 C 307.5 -429.16666 314 -419.66666 322.00003 -411.00003 C 330 -402.33334 339.16666 -395.16666 349.50003 -389.50003 C 359.83334 -383.83334 370.83334 -380 382.50003 -378.00003 C 394.1667 -376.00003 405.6667 -375 417.00003 -375 L 417.00003 -305.00003 C 405.6667 -305 394.1667 -304 382.50003 -302 C 370.83334 -300 359.83334 -296.16666 349.50003 -290.5 C 339.16666 -284.8333 330 -277.66666 322.00003 -269 C 314 -260.3333 307.5 -250.83331 302.50003 -240.5 C 297.5 -230.16669 294 -219.16669 292 -207.5 C 290 -195.83333 289 -184.33333 289 -173 L 289 -50.000004 C 289 -31.333334 287.33334 -12.999999 284 5.0000005 C 280.6667 23 274.83334 40.166668 266.5 56.500004 C 258.16666 72.83333 247.33333 87.333336 234.00002 100.00001 C 220.66667 112.66667 205.66667 123 189.00002 131 C 172.33333 139 155 144.66667 137.00002 148 C 119 151.33333 101.00001 152.99998 83 153 Z " id="path2"/></defs><g><g fill="#ffffff" transform="translate(40 105.20961) rotate(0)"><use href="#path1" transform="translate(0 0) scale(0.09599999)"/></g><g fill="#ffffff" transform="translate(168 105.20961) rotate(0)"><use href="#path2" transform="translate(0 0) scale(0.09599999)"/></g></g></svg>