<?xml version="1.0" encoding="UTF-8" standalone="no"?>
<svg height="160" viewBox="0 0 512 160" width="512" xmlns="http://www.w3.org/2000/svg">
<defs>
<path d="M 211 143 L 211 -823 L 289 -823 L 289 143 Z " id="path1"/>
<path d="M 131 143 L 291 -823 L 369 -823 L 209 143 Z " id="path2"/>
<path d="M 211 -386 L 211 -823 L 289 -823 L 289 -386 Z M 211 143 L 211 -294 L 289 -294 L 289 143 Z " id="path3"/>
<path d="M 219 -386 L 291 -823 L 369 -823 L 297 -386 Z M 131 143 L 203 -294 L 281 -294 L 209 143 Z " id="path4"/>
</defs>
<g>
<g data-source-text="|" fill="#20242e" transform="translate(40 104.99201) rotate(0) scale(0.09599999)">
<use href="#path1" transform="translate(0 0)"/>
</g>
</g>
<g>
<g data-source-text="|" fill="#20242e" transform="translate(168 104.99201) rotate(0) scale(0.09599999)">
<use href="#path2" transform="translate(0 0)"/>
</g>
</g>
<g>
<g data-source-text="¦" fill="#20242e" transform="translate(296 104.99201) rotate(0) scale(0.09599999)">
<use href="#path3" transform="translate(0 0)"/>
</g>
</g>
<g>
<g data-source-text="¦" fill="#20242e" transform="translate(424 104.99201) rotate(0) scale(0.09599999)">
<use href="#path4" transform="translate(0 0)"/>
</g>
</g>
</svg>