<?xml version="1.0" encoding="UTF-8" standalone="no"?>
<svg height="160" viewBox="0 0 256 160" width="256" xmlns="http://www.w3.org/2000/svg">
<defs>
<path d="M 125 -637 Q 111 -637 97 -641.5 Q 83 -646 72.5 -656 Q 62 -666 58 -680 Q 54 -694 54 -708 Q 54 -723 58 -737 Q 62 -751 72.5 -761 Q 83 -771 97 -775 Q 111 -779 125 -779 Q 139 -779 153 -775 Q 167 -771 177.5 -761 Q 188 -751 192 -737 Q 196 -723 196 -708 Q 196 -694 192 -680 Q 188 -666 177.5 -656 Q 167 -646 153 -641.5 Q 139 -637 125 -637 Z M 125 -146 Q 111 -146 97 -150.5 Q 83 -155 72.5 -165 Q 62 -175 58 -189 Q 54 -203 54 -217 Q 54 -232 58 -246 Q 62 -260 72.5 -270 Q 83 -280 97 -284 Q 111 -288 125 -288 Q 139 -288 153 -284 Q 167 -280 177.5 -270 Q 188 -260 192 -246 Q 196 -232 196 -217 Q 196 -203 192 -189 Q 188 -175 177.5 -165 Q 167 -155 153 -150.5 Q 139 -146 125 -146 Z M 125 99 Q 111 99 97 95 Q 83 91 72.5 81 Q 62 71 58 57 Q 54 43 54 28 Q 54 14 58 0 Q 62 -14 72.5 -24 Q 83 -34 97 -38.5 Q 111 -43 125 -43 Q 139 -43 153 -38.5 Q 167 -34 177.5 -24 Q 188 -14 192 0 Q 196 14 196 28 Q 196 43 192 57 Q 188 71 177.5 81 Q 167 91 153 95 Q 139 99 125 99 Z M 375 -637 Q 361 -637 347 -641.5 Q 333 -646 322.5 -656 Q 312 -666 308 -680 Q 304 -694 304 -708 Q 304 -723 308 -737 Q 312 -751 322.5 -761 Q 333 -771 347 -775 Q 361 -779 375 -779 Q 389 -779 403 -775 Q 417 -771 427.5 -761 Q 438 -751 442 -737 Q 446 -723 446 -708 Q 446 -694 442 -680 Q 438 -666 427.5 -656 Q 417 -646 403 -641.5 Q 389 -637 375 -637 Z M 375 -392 Q 361 -392 347 -396 Q 333 -400 322.5 -410 Q 312 -420 308 -434 Q 304 -448 304 -463 Q 304 -477 308 -491 Q 312 -505 322.5 -515 Q 333 -525 347 -529.5 Q 361 -534 375 -534 Q 389 -534 403 -529.5 Q 417 -525 427.5 -515 Q 438 -505 442 -491 Q 446 -477 446 -463 Q 446 -448 442 -434 Q 438 -420 427.5 -410 Q 417 -400 403 -396 Q 389 -392 375 -392 Z M 375 99 Q 361 99 347 95 Q 333 91 322.5 81 Q 312 71 308 57 Q 304 43 304 28 Q 304 14 308 0 Q 312 -14 322.5 -24 Q 333 -34 347 -38.5 Q 361 -43 375 -43 Q 389 -43 403 -38.5 Q 417 -34 427.5 -24 Q 438 -14 442 0 Q 446 14 446 28 Q 446 43 442 57 Q 438 71 427.5 81 Q 417 91 403 95 Q 389 99 375 99 Z " id="path1"/>
<path d="M 125 -637 Q 111 -637 97 -641.5 Q 83 -646 72.5 -656 Q 62 -666 58 -680 Q 54 -694 54 -708 Q 54 -723 58 -737 Q 62 -751 72.5 -761 Q 83 -771 97 -775 Q 111 -779 125 -779 Q 139 -779 153 -775 Q 167 -771 177.5 -761 Q 188 -751 192 -737 Q 196 -723 196 -708 Q 196 -694 192 -680 Q 188 -666 177.5 -656 Q 167 -646 153 -641.5 Q 139 -637 125 -637 Z M 125 99 Q 111 99 97 95 Q 83 91 72.5 81 Q 62 71 58 57 Q 54 43 54 28 Q 54 14 58 0 Q 62 -14 72.5 -24 Q 83 -34 97 -38.5 Q 111 -43 125 -43 Q 139 -43 153 -38.5 Q 167 -34 177.5 -24 Q 188 -14 192 0 Q 196 14 196 28 Q 196 43 192 57 Q 188 71 177.5 81 Q 167 91 153 95 Q 139 99 125 99 Z M 375 -392 Q 361 -392 347 -396 Q 333 -400 322.5 -410 Q 312 -420 308 -434 Q 304 -448 304 -463 Q 304 -477 308 -491 Q 312 -505 322.5 -515 Q 333 -525 347 -529.5 Q 361 -534 375 -534 Q 389 -534 403 -529.5 Q 417 -525 427.5 -515 Q 438 -505 442 -491 Q 446 -477 446 -463 Q 446 -448 442 -434 Q 438 -420 427.5 -410 Q 417 -400 403 -396 Q 389 -392 375 -392 Z M 375 99 Q 361 99 347 95 Q 333 91 322.5 81 Q 312 71 308 57 Q 304 43 304 28 Q 304 14 308 0 Q 312 -14 322.5 -24 Q 333 -34 347 -38.5 Q 361 -43 375 -43 Q 389 -43 403 -38.5 Q 417 -34 427.5 -24 Q 438 -14 442 0 Q 446 14 446 28 Q 446 43 442 57 Q 438 71 427.5 81 Q 417 91 403 95 Q 389 99 375 99 Z " id="path2"/>
</defs>
<g>
<g data-source-text="⣝" fill="#dee4e3" transform="translate(40 104.99201) rotate(0) scale(0.09599999)">
<use href="#path1" transform="translate(0 0)"/>
</g>
</g>
<g>
<g data-source-text="⣑" fill="#dee4e3" transform="translate(168 104.99201) rotate(0) scale(0.09599999)">
<use href="#path2" transform="translate(0 0)"/>
</g>
</g>
</svg>