<?xml version="1.0" encoding="UTF-8" standalone="no"?>
<svg height="160" viewBox="0 0 256 160" width="256" xmlns="http://www.w3.org/2000/svg">
<defs>
<path d="M 399 153 Q 372 153 345 149.5 Q 318 146 292 137 Q 266 128 243 113 Q 220 98 203 77 Q 186 56 178 29.5 Q 170 3 170 -24 Q 170 -47 175.5 -69.5 Q 181 -92 190 -112.5 Q 199 -133 208.5 -154 Q 218 -175 218 -198 Q 218 -214 213.5 -230 Q 209 -246 199.5 -259 Q 190 -272 176 -281.5 Q 162 -291 146.5 -296 Q 131 -301 115 -303 Q 99 -305 83 -305 L 83 -375 Q 99 -375 115 -377 Q 131 -379 146.5 -384 Q 162 -389 176 -398.5 Q 190 -408 199.5 -421 Q 209 -434 213.5 -450 Q 218 -466 218 -482 Q 218 -505 208.5 -526 Q 199 -547 190 -567.5 Q 181 -588 175.5 -610.5 Q 170 -633 170 -656 Q 170 -683 178 -709.5 Q 186 -736 203 -757 Q 220 -778 243 -793 Q 266 -808 292 -817 Q 318 -826 345 -829.5 Q 372 -833 399 -833 L 399 -763 Q 381 -763 364 -761 Q 347 -759 330.5 -754 Q 314 -749 298.5 -740.5 Q 283 -732 271.5 -719 Q 260 -706 254 -689.5 Q 248 -673 248 -656 Q 248 -637 254 -620 Q 260 -603 268 -587 L 269 -585 Q 280 -561 287.5 -535 Q 295 -509 295 -482 Q 295 -459 289 -436 Q 283 -413 269 -394 Q 255 -375 235.5 -361.5 Q 216 -348 195 -340 Q 216 -332 235.5 -318.5 Q 255 -305 269 -286 Q 283 -267 289 -244 Q 295 -221 295 -198 Q 295 -171 287.5 -145 Q 280 -119 269 -95 L 268 -93 Q 260 -77 254 -60 Q 248 -43 248 -24 Q 248 -7 254 9.5 Q 260 26 271.5 39 Q 283 52 298.5 60.5 Q 314 69 330.5 74 Q 347 79 364 81 Q 381 83 399 83 Z " id="path1"/>
<path d="M 101 153 L 101 83 Q 119 83 136 81 Q 153 79 169.5 74 Q 186 69 201.5 60.5 Q 217 52 228.5 39 Q 240 26 246 9.5 Q 252 -7 252 -24 Q 252 -43 246 -60 Q 240 -77 232 -93 L 231 -95 Q 220 -119 212.5 -145 Q 205 -171 205 -198 Q 205 -221 211 -244 Q 217 -267 231 -286 Q 245 -305 264.5 -318.5 Q 284 -332 305 -340 Q 284 -348 264.5 -361.5 Q 245 -375 231 -394 Q 217 -413 211 -436 Q 205 -459 205 -482 Q 205 -509 212.5 -535 Q 220 -561 231 -585 L 232 -587 Q 240 -603 246 -620 Q 252 -637 252 -656 Q 252 -673 246 -689.5 Q 240 -706 228.5 -719 Q 217 -732 201.5 -740.5 Q 186 -749 169.5 -754 Q 153 -759 136 -761 Q 119 -763 101 -763 L 101 -833 Q 128 -833 155 -829.5 Q 182 -826 208 -817 Q 234 -808 257 -793 Q 280 -778 297 -757 Q 314 -736 322 -709.5 Q 330 -683 330 -656 Q 330 -633 324.5 -610.5 Q 319 -588 310 -567.5 Q 301 -547 291.5 -526 Q 282 -505 282 -482 Q 282 -466 286.5 -450 Q 291 -434 300.5 -421 Q 310 -408 324 -398.5 Q 338 -389 353.5 -384 Q 369 -379 385 -377 Q 401 -375 417 -375 L 417 -305 Q 401 -305 385 -303 Q 369 -301 353.5 -296 Q 338 -291 324 -281.5 Q 310 -272 300.5 -259 Q 291 -246 286.5 -230 Q 282 -214 282 -198 Q 282 -175 291.5 -154 Q 301 -133 310 -112.5 Q 319 -92 324.5 -69.5 Q 330 -47 330 -24 Q 330 3 322 29.5 Q 314 56 297 77 Q 280 98 257 113 Q 234 128 208 137 Q 182 146 155 149.5 Q 128 153 101 153 Z " id="path2"/>
</defs>
<g>
<g data-source-text="{" fill="#20242e" transform="translate(40 104.99201) rotate(0) scale(0.09599999)">
<use href="#path1" transform="translate(0 0)"/>
</g>
</g>
<g>
<g data-source-text="}" fill="#20242e" transform="translate(168 104.99201) rotate(0) scale(0.09599999)">
<use href="#path2" transform="translate(0 0)"/>
</g>
</g>
</svg>