<svg xmlns="http://www.w3.org/2000/svg" height="160" viewBox="0 0 256 160" width="256"><defs><path d="M 334 153 C 318.66666 152.99998 303.33334 152.16666 288.00003 150.5 C 272.66666 148.83333 257.6667 145.33333 243.00002 140.00002 C 228.33334 134.66667 214.83334 127.33333 202.50002 118.00001 C 190.16667 108.666664 180 97.333336 172.00002 84.00001 C 164.00002 70.66667 158.83334 56.333336 156.5 41.000004 C 154.16666 25.666668 152.99998 10.333333 153 -5.0000005 C 152.99998 -15.666667 153.66666 -26.333332 155 -37 C 156.33333 -47.666664 158.83333 -57.833336 162.50002 -67.5 C 166.16667 -77.16667 170.83333 -86.666664 176.50002 -96 C 182.16666 -105.33333 188.00002 -114.333336 194.00002 -123.00001 C 202.00002 -135 209 -147.5 215 -160.5 C 221 -173.5 223.99998 -187.33333 224 -202.00002 C 223.99998 -217.33334 220.83333 -232.16667 214.50002 -246.5 C 208.16669 -260.83334 198.83333 -272.5 186.5 -281.5 C 174.16667 -290.5 160.33334 -296.66666 145 -300.00003 C 129.66667 -303.33334 114.333336 -305 99 -305.00003 L 83 -305.00003 L 83 -375 L 99 -375 C 114.333336 -375 129.66667 -376.66663 145 -380 C 160.33334 -383.33328 174.16667 -389.5 186.5 -398.50003 C 198.83333 -407.50003 208.16669 -419.1667 214.50002 -433.50003 C 220.83333 -447.83334 223.99998 -462.6667 224 -478.00003 C 223.99998 -492.66666 221 -506.50003 215 -519.50006 C 209 -532.5 202.00002 -545 194.00002 -557 C 188.00002 -565.6667 182.16666 -574.6667 176.50002 -584 C 170.83333 -593.3333 166.16667 -602.8334 162.50002 -612.5 C 158.83333 -622.1666 156.33333 -632.3333 155 -643 C 153.66666 -653.6667 152.99998 -664.3334 153 -675.00006 C 152.99998 -690.3334 154.16666 -705.66675 156.5 -721.00006 C 158.83334 -736.3334 164.00002 -750.66675 172.00002 -764.00006 C 180 -777.3334 190.16667 -788.6667 202.50002 -798.00006 C 214.83334 -807.3333 228.33334 -814.6667 243.00002 -820.00006 C 257.6667 -825.3333 272.66666 -828.8334 288.00003 -830.50006 C 303.33334 -832.1667 318.66666 -833.00006 334 -833.00006 L 417.00003 -833.00006 L 417.00003 -763.00006 L 334 -763.00006 C 320.66666 -763.00006 307.5 -761.8334 294.5 -759.50006 C 281.5 -757.16675 269.83334 -752.00006 259.5 -744.00006 C 249.16667 -736.00006 241.66669 -725.6667 237.00002 -713 C 232.33334 -700.3333 230 -687.6667 230 -675.00006 C 230 -661.00006 233 -647.3334 239.00002 -634.00006 C 245.00002 -620.6667 252.00002 -608.3333 260.00003 -597 L 261 -596 C 267 -587.3334 272.66666 -578.3334 278 -569 C 283.33334 -559.6666 287.83334 -550.1667 291.50003 -540.5 C 295.1667 -530.8333 297.83334 -520.6666 299.50003 -510 C 301.16666 -499.3333 302 -488.66666 302 -478.00003 C 302 -463.33334 300.1667 -448.66666 296.50003 -434.00003 C 292.83334 -419.33334 286.66666 -405.83334 278 -393.50003 C 269.33334 -381.16666 258.83334 -370.49997 246.5 -361.5 C 234.16667 -352.5 221 -345.33334 207 -340 C 221 -334.66666 234.16667 -327.5 246.5 -318.5 C 258.83334 -309.5 269.33334 -298.83334 278 -286.5 C 286.66666 -274.1667 292.83334 -260.66666 296.50003 -246.00002 C 300.1667 -231.33334 302 -216.66667 302 -202.00002 C 302 -191.33334 301.16666 -180.66667 299.50003 -170 C 297.83334 -159.33333 295.1667 -149.16667 291.50003 -139.5 C 287.83334 -129.83333 283.33334 -120.333336 278 -111.00001 C 272.66666 -101.66667 267 -92.66667 261 -84.00001 L 260.00003 -83 C 252.00002 -71.666664 245.00002 -59.333332 239.00002 -46 C 233 -32.666668 230 -19 230 -5.0000005 C 230 7.6666656 232.33334 20.333332 237.00002 33 C 241.66669 45.666668 249.16667 56 259.5 64 C 269.83334 72 281.5 77.16667 294.5 79.5 C 307.5 81.833336 320.66666 83 334 83 L 417.00003 83 L 417.00003 153 Z " id="path1"/><path d="M 83 153 L 83 83 L 166 83 C 179.33333 83 192.5 81.833336 205.50002 79.5 C 218.5 77.16667 230.16669 72 240.5 64 C 250.83331 56 258.33334 45.666668 263.00003 33 C 267.66666 20.333332 270 7.6666656 270 -5.0000005 C 270 -19 267 -32.666668 261 -46 C 255 -59.333332 248 -71.666664 240.00002 -83 L 239.00002 -84.00001 C 233 -92.66667 227.33333 -101.66667 222.00002 -111.00001 C 216.66667 -120.333336 212.16667 -129.83333 208.50002 -139.5 C 204.83333 -149.16667 202.16669 -159.33333 200.50002 -170 C 198.83333 -180.66667 198 -191.33334 198 -202.00002 C 198 -216.66667 199.83331 -231.33334 203.5 -246.00002 C 207.16667 -260.66666 213.33333 -274.1667 222.00002 -286.5 C 230.66667 -298.83334 241.16667 -309.5 253.50002 -318.5 C 265.83334 -327.5 279 -334.66666 293 -340 C 279 -345.33334 265.83334 -352.5 253.50002 -361.5 C 241.16667 -370.49997 230.66667 -381.16666 222.00002 -393.50003 C 213.33333 -405.83334 207.16667 -419.33334 203.5 -434.00003 C 199.83331 -448.66666 198 -463.33334 198 -478.00003 C 198 -488.66666 198.83333 -499.3333 200.50002 -510 C 202.16669 -520.6666 204.83333 -530.8333 208.50002 -540.5 C 212.16667 -550.1667 216.66667 -559.6666 222.00002 -569 C 227.33333 -578.3334 233 -587.3334 239.00002 -596 L 240.00002 -597 C 248 -608.3333 255 -620.6667 261 -634.00006 C 267 -647.3334 270 -661.00006 270 -675.00006 C 270 -687.6667 267.66666 -700.3333 263.00003 -713 C 258.33334 -725.6667 250.83331 -736.00006 240.5 -744.00006 C 230.16669 -752.00006 218.5 -757.16675 205.50002 -759.50006 C 192.5 -761.8334 179.33333 -763.00006 166 -763.00006 L 83 -763.00006 L 83 -833.00006 L 166 -833.00006 C 181.33334 -833.00006 196.66666 -832.1667 212 -830.50006 C 227.33333 -828.8334 242.33334 -825.3333 257.00003 -820.00006 C 271.6667 -814.6667 285.16666 -807.3333 297.5 -798.00006 C 309.83334 -788.6667 320 -777.3334 328.00003 -764.00006 C 335.99997 -750.66675 341.16666 -736.3334 343.50003 -721.00006 C 345.8333 -705.66675 346.99997 -690.3334 347 -675.00006 C 346.99997 -664.3334 346.3333 -653.6667 345 -643 C 343.6667 -632.3333 341.16666 -622.1666 337.50003 -612.5 C 333.83334 -602.8334 329.16666 -593.3333 323.5 -584 C 317.8333 -574.6667 312 -565.6667 306 -557 C 298 -545 291.00003 -532.5 285 -519.50006 C 279 -506.50003 276 -492.66666 276 -478.00003 C 276 -462.6667 279.16666 -447.83334 285.50003 -433.50003 C 291.83334 -419.1667 301.16666 -407.50003 313.50003 -398.50003 C 325.83334 -389.5 339.6667 -383.33328 355.00003 -380 C 370.33337 -376.66663 385.6667 -375 401.00003 -375 L 417.00003 -375 L 417.00003 -305.00003 L 401.00003 -305.00003 C 385.6667 -305 370.33337 -303.33334 355.00003 -300.00003 C 339.6667 -296.66666 325.83334 -290.5 313.50003 -281.5 C 301.16666 -272.5 291.83334 -260.83334 285.50003 -246.5 C 279.16666 -232.16667 276 -217.33334 276 -202.00002 C 276 -187.33333 279 -173.5 285 -160.5 C 291.00003 -147.5 298 -135 306 -123.00001 C 312 -114.333336 317.8333 -105.33333 323.5 -96 C 329.16666 -86.666664 333.83334 -77.16667 337.50003 -67.5 C 341.16666 -57.833336 343.6667 -47.666664 345 -37 C 346.3333 -26.333332 346.99997 -15.666667 347 -5.0000005 C 346.99997 10.333333 345.8333 25.666668 343.50003 41.000004 C 341.16666 56.333336 335.99997 70.66667 328.00003 84.00001 C 320 97.333336 309.83334 108.666664 297.5 118.00001 C 285.16666 127.33333 271.6667 134.66667 257.00003 140.00002 C 242.33334 145.33333 227.33333 148.83333 212 150.5 C 196.66666 152.16666 181.33334 152.99998 166 153 Z " id="path2"/></defs><g><g fill="#000000" transform="translate(40 105.20961) rotate(0)"><use href="#path1" transform="translate(0 0) scale(0.09599999)"/></g><g fill="#000000" transform="translate(168 105.20961) rotate(0)"><use href="#path2" transform="translate(0 0) scale(0.09599999)"/></g></g></svg>