<?xml version="1.0" encoding="UTF-8" standalone="no"?>
<svg height="160" viewBox="0 0 256 160" width="256" xmlns="http://www.w3.org/2000/svg">
<defs>
<path d="M 399 153 Q 373 153 347 148.5 Q 321 144 297.5 132.5 Q 274 121 254.5 102.5 Q 235 84 223 61 Q 211 38 206.5 12 Q 202 -14 202 -40 L 202 -182 Q 202 -198 199 -214 Q 196 -230 189.5 -245 Q 183 -260 171.5 -272 Q 160 -284 145.5 -291.5 Q 131 -299 115 -302 Q 99 -305 83 -305 L 83 -375 Q 99 -375 115 -378 Q 131 -381 145.5 -388.5 Q 160 -396 171.5 -408 Q 183 -420 189.5 -435 Q 196 -450 199 -466 Q 202 -482 202 -498 L 202 -640 Q 202 -666 206.5 -692 Q 211 -718 223 -741 Q 235 -764 254.5 -782.5 Q 274 -801 297.5 -812.5 Q 321 -824 347 -828.5 Q 373 -833 399 -833 L 399 -763 Q 383 -763 366.5 -760 Q 350 -757 336 -749.5 Q 322 -742 310.5 -729.5 Q 299 -717 292 -702.5 Q 285 -688 282.5 -672 Q 280 -656 280 -640 L 280 -498 Q 280 -476 276.5 -453.5 Q 273 -431 264 -410 Q 255 -389 241 -371 Q 227 -353 209 -340 Q 227 -327 241 -309 Q 255 -291 264 -270 Q 273 -249 276.5 -226.5 Q 280 -204 280 -182 L 280 -40 Q 280 -24 282.5 -8 Q 285 8 292 22.5 Q 299 37 310.5 49.5 Q 322 62 336 69.5 Q 350 77 366.5 80 Q 383 83 399 83 Z " id="path1"/>
<path d="M 101 153 L 101 83 Q 110 83 119.5 82 Q 129 81 138 79 Q 147 77 155.5 73.5 Q 164 70 172 64.5 Q 180 59 186.5 52.5 Q 193 46 198.5 38.5 Q 204 31 208 22.5 Q 212 14 214.5 5 Q 217 -4 218.5 -15 Q 220 -26 220 -32 L 220 -182 Q 220 -196 221.5 -210 Q 223 -224 226 -238 Q 229 -252 234 -265 Q 239 -278 246 -290 Q 253 -302 263.5 -315 Q 274 -328 282 -334 L 291 -340 Q 280 -348 270 -358.5 Q 260 -369 252 -380.5 Q 244 -392 238 -405 Q 232 -418 228 -431.5 Q 224 -445 222 -461.5 Q 220 -478 220 -487 L 220 -640 Q 220 -649 219 -658.5 Q 218 -668 216.5 -677 Q 215 -686 211.5 -695 Q 208 -704 203 -711.5 Q 198 -719 192 -726.5 Q 186 -734 178.5 -740 Q 171 -746 163 -750 Q 155 -754 146 -757 Q 137 -760 126 -761.5 Q 115 -763 109 -763 L 101 -763 L 101 -833 Q 116 -833 131 -831.5 Q 146 -830 161 -827 Q 176 -824 190 -818.5 Q 204 -813 216.5 -805 Q 229 -797 240.5 -787 Q 252 -777 261.5 -765 Q 271 -753 277.5 -740 Q 284 -727 288.5 -712.5 Q 293 -698 295.5 -680.5 Q 298 -663 298 -653 L 298 -498 Q 298 -489 299 -479.5 Q 300 -470 302 -461 Q 304 -452 307 -443 Q 310 -434 315 -426 Q 320 -418 326 -411 Q 332 -404 339.5 -398 Q 347 -392 355 -388 Q 363 -384 372 -381 Q 381 -378 392 -376.5 Q 403 -375 409 -375 L 417 -375 L 417 -305 Q 408 -305 398.5 -304 Q 389 -303 380 -301 Q 371 -299 362.5 -295.5 Q 354 -292 346 -286.5 Q 338 -281 331 -274.5 Q 324 -268 319 -260.5 Q 314 -253 310.5 -244.5 Q 307 -236 304 -227 Q 301 -218 299.5 -207 Q 298 -196 298 -190 L 298 -40 Q 298 -25 296.5 -10 Q 295 5 292 20 Q 289 35 283 48.5 Q 277 62 269 74.5 Q 261 87 250 98 Q 239 109 227 118 Q 215 127 201.5 133.5 Q 188 140 173.5 144 Q 159 148 141.5 150.5 Q 124 153 114 153 Z " id="path2"/>
</defs>
<g>
<g data-source-text="{" fill="#dee4e3" transform="translate(40 104.99201) rotate(0) scale(0.09599999)">
<use href="#path1" transform="translate(0 0)"/>
</g>
</g>
<g>
<g data-source-text="}" fill="#dee4e3" transform="translate(168 104.99201) rotate(0) scale(0.09599999)">
<use href="#path2" transform="translate(0 0)"/>
</g>
</g>
</svg>