<?xml version="1.0" encoding="UTF-8" standalone="no"?>
<svg height="160" viewBox="0 0 128 160" width="128" xmlns="http://www.w3.org/2000/svg">
<defs>
<path d="M 254 8 Q 227 8 200.5 2.5 Q 174 -3 151 -16.5 Q 128 -30 110.5 -50.5 Q 93 -71 82.5 -95.5 Q 72 -120 68 -146.5 Q 64 -173 64 -200 L 64 -665 L 18 -665 L 18 -735 L 142 -735 L 142 -428 Q 150 -450 163.5 -469 Q 177 -488 196 -502 Q 215 -516 238 -522 Q 261 -528 284 -528 Q 309 -528 333.5 -521 Q 358 -514 377 -499 Q 396 -484 409.5 -462.5 Q 423 -441 430.5 -417.5 Q 438 -394 441 -369.5 Q 444 -345 444 -320 L 444 -200 Q 444 -173 440 -146.5 Q 436 -120 425.5 -95.5 Q 415 -71 397.5 -50.5 Q 380 -30 357 -16.5 Q 334 -3 307.5 2.5 Q 281 8 254 8 Z M 254 -62 Q 271 -62 287.5 -66 Q 304 -70 317.5 -80 Q 331 -90 341 -104 Q 351 -118 356.5 -134 Q 362 -150 364 -166.5 Q 366 -183 366 -200 L 366 -320 Q 366 -337 364 -353.5 Q 362 -370 356.5 -386 Q 351 -402 341 -416 Q 331 -430 317.5 -440 Q 304 -450 287.5 -454 Q 271 -458 254 -458 Q 237 -458 220.5 -454 Q 204 -450 190.5 -440 Q 177 -430 167 -416 Q 157 -402 151.5 -386 Q 146 -370 144 -353.5 Q 142 -337 142 -320 L 142 -200 Q 142 -183 144 -166.5 Q 146 -150 151.5 -134 Q 157 -118 167 -104 Q 177 -90 190.5 -80 Q 204 -70 220.5 -66 Q 237 -62 254 -62 Z " id="path1"/>
</defs>
<g>
<g data-source-text="b" fill="#20242e" transform="translate(40 104.99201) rotate(0) scale(0.09599999)">
<use href="#path1" transform="translate(0 0)"/>
</g>
</g>
</svg>