<svg xmlns="http://www.w3.org/2000/svg" height="160" viewBox="0 0 256 160" width="256"><defs><path d="M 417.00003 153 C 398.33337 152.99998 379.83334 151.83333 361.5 149.5 C 343.16663 147.16666 325.16666 143.16667 307.5 137.5 C 289.83334 131.83334 272.83334 124.16667 256.5 114.5 C 240.16667 104.833336 226 92.83334 214.00002 78.50001 C 202.00002 64.166664 193 48.166664 187 30.5 C 181 12.833334 178 -5.333334 178 -24 C 178 -34.666668 178.66667 -45.000004 180.00002 -55.000004 C 181.33334 -65.00001 183.66667 -74.833336 187 -84.50001 C 190.33333 -94.16667 194.16667 -103.5 198.5 -112.50001 C 202.83334 -121.5 207.33333 -130.5 212 -139.5 C 216.66667 -148.49998 220.5 -158 223.5 -168.00002 C 226.5 -178.00002 228.00002 -188.00002 228.00002 -198 C 228.00002 -209.33333 226.33334 -220.5 223.00002 -231.50002 C 219.66667 -242.50002 214.33333 -252.33333 207 -261 C 199.66667 -269.6667 190.99998 -276.83334 181 -282.50003 C 171.00002 -288.16666 160.66667 -292.66666 150.00002 -296 C 139.33333 -299.3333 128.33333 -301.66666 117.00001 -303 C 105.66667 -304.33334 94.333336 -305 83 -305.00003 L 83 -375 C 94.333336 -375 105.66667 -375.66666 117.00001 -377.00003 C 128.33333 -378.33334 139.33333 -380.66666 150.00002 -384 C 160.66667 -387.3333 171.00002 -391.83334 181 -397.5 C 190.99998 -403.16666 199.66667 -410.3333 207 -419 C 214.33333 -427.6667 219.66667 -437.5 223.00002 -448.5 C 226.33334 -459.5 228.00002 -470.66666 228.00002 -482 C 228.00002 -492 226.5 -502.00003 223.5 -512 C 220.5 -522 216.66667 -531.5 212 -540.5 C 207.33333 -549.5 202.83334 -558.5 198.5 -567.5 C 194.16667 -576.5 190.33333 -585.8333 187 -595.5 C 183.66667 -605.1666 181.33334 -615 180.00002 -625 C 178.66667 -635 178 -645.3334 178 -656.00006 C 178 -674.6667 181 -692.8333 187 -710.5 C 193 -728.1666 202.00002 -744.1666 214.00002 -758.50006 C 226 -772.8333 240.16667 -784.8333 256.5 -794.50006 C 272.83334 -804.1667 289.83334 -811.8333 307.5 -817.50006 C 325.16666 -823.1666 343.16663 -827.1667 361.5 -829.50006 C 379.83334 -831.8334 398.33337 -833.00006 417.00003 -833.00006 L 417.00003 -763.00006 C 405.00003 -763.00006 393.00003 -762.3333 381 -761 C 369 -759.6666 357.16666 -757.3333 345.5 -754.00006 C 333.8333 -750.6666 322.66666 -746.3333 312 -741.00006 C 301.3333 -735.6667 291.6667 -728.8334 283.00003 -720.5 C 274.3333 -712.1666 267.5 -702.3333 262.50003 -691 C 257.49997 -679.6667 254.99998 -668 255 -656.00006 C 254.99998 -645.3334 256.66666 -635.1667 260.00003 -625.5 C 263.33334 -615.8334 267.16666 -606.5 271.50003 -597.5 C 275.83334 -588.49994 280.16666 -579.3333 284.5 -570 C 288.83334 -560.6667 292.66666 -551.1666 296 -541.5 C 299.3333 -531.8334 301.8333 -522 303.5 -512 C 305.16666 -502.00003 305.99997 -492 306 -482 C 305.99997 -465.99997 303.66666 -450.33334 299 -435.00003 C 294.3333 -419.6667 287.16666 -405.6667 277.5 -393.00003 C 267.8333 -380.33334 256.16666 -369.66666 242.50002 -361.00003 C 228.83333 -352.33334 214.66667 -345.33334 200.00002 -340 C 214.66667 -334.66666 228.83333 -327.66666 242.50002 -319.00003 C 256.16666 -310.3333 267.8333 -299.66666 277.5 -287 C 287.16666 -274.3333 294.3333 -260.3333 299 -245.00002 C 303.66666 -229.66667 305.99997 -214 306 -198 C 305.99997 -188.00002 305.16666 -178.00002 303.5 -168.00002 C 301.8333 -158 299.3333 -148.16666 296 -138.50002 C 292.66666 -128.83334 288.83334 -119.33334 284.5 -110.00001 C 280.16666 -100.666664 275.83334 -91.5 271.50003 -82.5 C 267.16666 -73.5 263.33334 -64.166664 260.00003 -54.5 C 256.66666 -44.833332 254.99998 -34.666668 255 -24 C 254.99998 -12 257.49997 -0.33333308 262.50003 11 C 267.5 22.333332 274.3333 32.166664 283.00003 40.5 C 291.6667 48.833332 301.3333 55.666668 312 61 C 322.66666 66.333336 333.8333 70.66667 345.5 74 C 357.16666 77.333336 369 79.666664 381 81 C 393.00003 82.333336 405.00003 83 417.00003 83 Z " id="path1"/><path d="M 83 153 L 83 83 C 95 83 107 82.333336 119 81 C 131 79.666664 142.83334 77.333336 154.5 74 C 166.16667 70.66667 177.33334 66.333336 188.00002 61 C 198.66666 55.666668 208.33334 48.833332 217.00002 40.5 C 225.66667 32.166664 232.5 22.333332 237.50002 11 C 242.5 -0.33333308 245.00002 -12 245.00002 -24 C 245.00002 -34.666668 243.33334 -44.833332 240.00002 -54.5 C 236.66667 -64.166664 232.83333 -73.5 228.50002 -82.5 C 224.16667 -91.5 219.83334 -100.666664 215.5 -110.00001 C 211.16667 -119.33334 207.33333 -128.83334 204 -138.50002 C 200.66667 -148.16666 198.16666 -158 196.50002 -168.00002 C 194.83333 -178.00002 194.00002 -188.00002 194.00002 -198 C 194.00002 -214 196.33333 -229.66667 201 -245.00002 C 205.66667 -260.3333 212.83333 -274.3333 222.50002 -287 C 232.16667 -299.66666 243.83333 -310.3333 257.5 -319.00003 C 271.16666 -327.66666 285.3333 -334.66666 300.00003 -340 C 285.3333 -345.33334 271.16666 -352.33334 257.5 -361.00003 C 243.83333 -369.66666 232.16667 -380.33334 222.50002 -393.00003 C 212.83333 -405.6667 205.66667 -419.6667 201 -435.00003 C 196.33333 -450.33334 194.00002 -465.99997 194.00002 -482 C 194.00002 -492 194.83333 -502.00003 196.50002 -512 C 198.16666 -522 200.66667 -531.8334 204 -541.5 C 207.33333 -551.1666 211.16667 -560.6667 215.5 -570 C 219.83334 -579.3333 224.16667 -588.49994 228.50002 -597.5 C 232.83333 -606.5 236.66667 -615.8334 240.00002 -625.5 C 243.33334 -635.1667 245.00002 -645.3334 245.00002 -656.00006 C 245.00002 -668 242.5 -679.6667 237.50002 -691 C 232.5 -702.3333 225.66667 -712.1666 217.00002 -720.5 C 208.33334 -728.8334 198.66666 -735.6667 188.00002 -741.00006 C 177.33334 -746.3333 166.16667 -750.6666 154.5 -754.00006 C 142.83334 -757.3333 131 -759.6666 119 -761 C 107 -762.3333 95 -763.00006 83 -763.00006 L 83 -833.00006 C 101.66667 -833.00006 120.166664 -831.8334 138.50002 -829.50006 C 156.83333 -827.1667 174.83334 -823.1666 192.5 -817.50006 C 210.16666 -811.8333 227.16666 -804.1667 243.5 -794.50006 C 259.8333 -784.8333 274 -772.8333 286 -758.50006 C 298 -744.1666 307 -728.1666 313 -710.5 C 319.00003 -692.8333 322.00003 -674.6667 322.00003 -656.00006 C 322.00003 -645.3334 321.33334 -635 320.00003 -625 C 318.66666 -615 316.33334 -605.1666 313 -595.5 C 309.6667 -585.8333 305.83334 -576.5 301.5 -567.5 C 297.1667 -558.5 292.6667 -549.5 288.00003 -540.5 C 283.33334 -531.5 279.50003 -522 276.5 -512 C 273.5 -502.00003 272 -492 272 -482 C 272 -470.66666 273.66666 -459.5 277.00003 -448.5 C 280.33334 -437.5 285.6667 -427.6667 293 -419 C 300.33334 -410.3333 309 -403.16666 319.00003 -397.5 C 329 -391.83334 339.3333 -387.3333 350 -384 C 360.6667 -380.66666 371.6667 -378.33334 383.00003 -377.00003 C 394.33337 -375.66666 405.6667 -375 417.00003 -375 L 417.00003 -358 L 417.00003 -305.00003 C 405.6667 -305 394.33337 -304.33334 383.00003 -303 C 371.6667 -301.66666 360.6667 -299.3333 350 -296 C 339.3333 -292.66666 329 -288.16666 319.00003 -282.50003 C 309 -276.83334 300.33334 -269.6667 293 -261 C 285.6667 -252.33333 280.33334 -242.50002 277.00003 -231.50002 C 273.66666 -220.5 272 -209.33333 272 -198 C 272 -188.00002 273.5 -178.00002 276.5 -168.00002 C 279.50003 -158 283.33334 -148.49998 288.00003 -139.5 C 292.6667 -130.5 297.1667 -121.5 301.5 -112.50001 C 305.83334 -103.5 309.6667 -94.16667 313 -84.50001 C 316.33334 -74.833336 318.66666 -65.00001 320.00003 -55.000004 C 321.33334 -45.000004 322.00003 -34.666668 322.00003 -24 C 322.00003 -5.333334 319.00003 12.833334 313 30.5 C 307 48.166664 298 64.166664 286 78.50001 C 274 92.83334 259.8333 104.833336 243.5 114.5 C 227.16666 124.16667 210.16666 131.83334 192.5 137.5 C 174.83334 143.16667 156.83333 147.16666 138.50002 149.5 C 120.166664 151.83333 101.66667 152.99998 83 153 Z " id="path2"/></defs><g><g fill="#ffffff" transform="translate(40 105.20961) rotate(0)"><use href="#path1" transform="translate(0 0) scale(0.09599999)"/></g><g fill="#ffffff" transform="translate(168 105.20961) rotate(0)"><use href="#path2" transform="translate(0 0) scale(0.09599999)"/></g></g></svg>