<?xml version="1.0" encoding="UTF-8" standalone="no"?>
<svg height="160" viewBox="0 0 256 160" width="256" xmlns="http://www.w3.org/2000/svg">
<defs>
<path d="M 125 -630 Q 109 -630 94 -635 Q 79 -640 67.5 -651 Q 56 -662 51.5 -677.5 Q 47 -693 47 -708 Q 47 -724 51.5 -739.5 Q 56 -755 67.5 -766 Q 79 -777 94 -781.5 Q 109 -786 125 -786 Q 141 -786 156 -781.5 Q 171 -777 182.5 -766 Q 194 -755 198.5 -739.5 Q 203 -724 203 -708 Q 203 -693 198.5 -677.5 Q 194 -662 182.5 -651 Q 171 -640 156 -635 Q 141 -630 125 -630 Z M 125 -139 Q 109 -139 94 -144 Q 79 -149 67.5 -160 Q 56 -171 51.5 -186.5 Q 47 -202 47 -217 Q 47 -233 51.5 -248.5 Q 56 -264 67.5 -275 Q 79 -286 94 -290.5 Q 109 -295 125 -295 Q 141 -295 156 -290.5 Q 171 -286 182.5 -275 Q 194 -264 198.5 -248.5 Q 203 -233 203 -217 Q 203 -202 198.5 -186.5 Q 194 -171 182.5 -160 Q 171 -149 156 -144 Q 141 -139 125 -139 Z M 375 -630 Q 359 -630 344 -635 Q 329 -640 317.5 -651 Q 306 -662 301.5 -677.5 Q 297 -693 297 -708 Q 297 -724 301.5 -739.5 Q 306 -755 317.5 -766 Q 329 -777 344 -781.5 Q 359 -786 375 -786 Q 391 -786 406 -781.5 Q 421 -777 432.5 -766 Q 444 -755 448.5 -739.5 Q 453 -724 453 -708 Q 453 -693 448.5 -677.5 Q 444 -662 432.5 -651 Q 421 -640 406 -635 Q 391 -630 375 -630 Z M 375 -139 Q 359 -139 344 -144 Q 329 -149 317.5 -160 Q 306 -171 301.5 -186.5 Q 297 -202 297 -217 Q 297 -233 301.5 -248.5 Q 306 -264 317.5 -275 Q 329 -286 344 -290.5 Q 359 -295 375 -295 Q 391 -295 406 -290.5 Q 421 -286 432.5 -275 Q 444 -264 448.5 -248.5 Q 453 -233 453 -217 Q 453 -202 448.5 -186.5 Q 444 -171 432.5 -160 Q 421 -149 406 -144 Q 391 -139 375 -139 Z " id="path1"/>
<path d="M 125 -630 Q 109 -630 94 -635 Q 79 -640 67.5 -651 Q 56 -662 51.5 -677.5 Q 47 -693 47 -708 Q 47 -724 51.5 -739.5 Q 56 -755 67.5 -766 Q 79 -777 94 -781.5 Q 109 -786 125 -786 Q 141 -786 156 -781.5 Q 171 -777 182.5 -766 Q 194 -755 198.5 -739.5 Q 203 -724 203 -708 Q 203 -693 198.5 -677.5 Q 194 -662 182.5 -651 Q 171 -640 156 -635 Q 141 -630 125 -630 Z M 125 -139 Q 109 -139 94 -144 Q 79 -149 67.5 -160 Q 56 -171 51.5 -186.5 Q 47 -202 47 -217 Q 47 -233 51.5 -248.5 Q 56 -264 67.5 -275 Q 79 -286 94 -290.5 Q 109 -295 125 -295 Q 141 -295 156 -290.5 Q 171 -286 182.5 -275 Q 194 -264 198.5 -248.5 Q 203 -233 203 -217 Q 203 -202 198.5 -186.5 Q 194 -171 182.5 -160 Q 171 -149 156 -144 Q 141 -139 125 -139 Z M 375 -630 Q 359 -630 344 -635 Q 329 -640 317.5 -651 Q 306 -662 301.5 -677.5 Q 297 -693 297 -708 Q 297 -724 301.5 -739.5 Q 306 -755 317.5 -766 Q 329 -777 344 -781.5 Q 359 -786 375 -786 Q 391 -786 406 -781.5 Q 421 -777 432.5 -766 Q 444 -755 448.5 -739.5 Q 453 -724 453 -708 Q 453 -693 448.5 -677.5 Q 444 -662 432.5 -651 Q 421 -640 406 -635 Q 391 -630 375 -630 Z M 375 -385 Q 359 -385 344 -389.5 Q 329 -394 317.5 -405 Q 306 -416 301.5 -431.5 Q 297 -447 297 -463 Q 297 -478 301.5 -493.5 Q 306 -509 317.5 -520 Q 329 -531 344 -536 Q 359 -541 375 -541 Q 391 -541 406 -536 Q 421 -531 432.5 -520 Q 444 -509 448.5 -493.5 Q 453 -478 453 -463 Q 453 -447 448.5 -431.5 Q 444 -416 432.5 -405 Q 421 -394 406 -389.5 Q 391 -385 375 -385 Z M 375 -139 Q 359 -139 344 -144 Q 329 -149 317.5 -160 Q 306 -171 301.5 -186.5 Q 297 -202 297 -217 Q 297 -233 301.5 -248.5 Q 306 -264 317.5 -275 Q 329 -286 344 -290.5 Q 359 -295 375 -295 Q 391 -295 406 -290.5 Q 421 -286 432.5 -275 Q 444 -264 448.5 -248.5 Q 453 -233 453 -217 Q 453 -202 448.5 -186.5 Q 444 -171 432.5 -160 Q 421 -149 406 -144 Q 391 -139 375 -139 Z " id="path2"/>
</defs>
<g>
<g data-source-text="тан" fill="#20242e" transform="translate(40 104.99201) rotate(0) scale(0.09599999)">
<use href="#path1" transform="translate(0 0)"/>
</g>
</g>
<g>
<g data-source-text="та╜" fill="#20242e" transform="translate(168 104.99201) rotate(0) scale(0.09599999)">
<use href="#path2" transform="translate(0 0)"/>
</g>
</g>
</svg>