<?xml version="1.0" encoding="UTF-8" standalone="no"?>
<svg height="160" viewBox="0 0 256 160" width="256" xmlns="http://www.w3.org/2000/svg">
<defs>
<path d="M 399 153 Q 373 153 347 148.5 Q 321 144 297.5 132.5 Q 274 121 254.5 102.5 Q 235 84 223 61 Q 211 38 206.5 12 Q 202 -14 202 -40 L 202 -182 Q 202 -198 199 -214 Q 196 -230 189.5 -245 Q 183 -260 171.5 -272 Q 160 -284 145.5 -291.5 Q 131 -299 115 -302 Q 99 -305 83 -305 L 83 -375 Q 99 -375 115 -378 Q 131 -381 145.5 -388.5 Q 160 -396 171.5 -408 Q 183 -420 189.5 -435 Q 196 -450 199 -466 Q 202 -482 202 -498 L 202 -640 Q 202 -666 206.5 -692 Q 211 -718 223 -741 Q 235 -764 254.5 -782.5 Q 274 -801 297.5 -812.5 Q 321 -824 347 -828.5 Q 373 -833 399 -833 L 399 -763 Q 383 -763 366.5 -760 Q 350 -757 336 -749.5 Q 322 -742 310.5 -729.5 Q 299 -717 292 -702.5 Q 285 -688 282.5 -672 Q 280 -656 280 -640 L 280 -498 Q 280 -476 276.5 -453.5 Q 273 -431 264 -410 Q 255 -389 241 -371 Q 227 -353 209 -340 Q 227 -327 241 -309 Q 255 -291 264 -270 Q 273 -249 276.5 -226.5 Q 280 -204 280 -182 L 280 -40 Q 280 -24 282.5 -8 Q 285 8 292 22.5 Q 299 37 310.5 49.5 Q 322 62 336 69.5 Q 350 77 366.5 80 Q 383 83 399 83 Z " id="path1"/>
<path d="M 101 153 L 101 83 Q 117 83 133.5 80 Q 150 77 164 69.5 Q 178 62 189.5 49.5 Q 201 37 208 22.5 Q 215 8 217.5 -8 Q 220 -24 220 -40 L 220 -182 Q 220 -204 223.5 -226.5 Q 227 -249 236 -270 Q 245 -291 259 -309 Q 273 -327 291 -340 Q 273 -353 259 -371 Q 245 -389 236 -410 Q 227 -431 223.5 -453.5 Q 220 -476 220 -498 L 220 -640 Q 220 -656 217.5 -672 Q 215 -688 208 -702.5 Q 201 -717 189.5 -729.5 Q 178 -742 164 -749.5 Q 150 -757 133.5 -760 Q 117 -763 101 -763 L 101 -833 Q 127 -833 153 -828.5 Q 179 -824 202.5 -812.5 Q 226 -801 245.5 -782.5 Q 265 -764 277 -741 Q 289 -718 293.5 -692 Q 298 -666 298 -640 L 298 -498 Q 298 -482 301 -466 Q 304 -450 310.5 -435 Q 317 -420 328.5 -408 Q 340 -396 354.5 -388.5 Q 369 -381 385 -378 Q 401 -375 417 -375 L 417 -305 Q 401 -305 385 -302 Q 369 -299 354.5 -291.5 Q 340 -284 328.5 -272 Q 317 -260 310.5 -245 Q 304 -230 301 -214 Q 298 -198 298 -182 L 298 -40 Q 298 -14 293.5 12 Q 289 38 277 61 Q 265 84 245.5 102.5 Q 226 121 202.5 132.5 Q 179 144 153 148.5 Q 127 153 101 153 Z " id="path2"/>
</defs>
<g>
<g data-source-text="{" fill="#20242e" transform="translate(40 104.99201) rotate(0) scale(0.09599999)">
<use href="#path1" transform="translate(0 0)"/>
</g>
</g>
<g>
<g data-source-text="}" fill="#20242e" transform="translate(168 104.99201) rotate(0) scale(0.09599999)">
<use href="#path2" transform="translate(0 0)"/>
</g>
</g>
</svg>