<svg xmlns="http://www.w3.org/2000/svg" height="160" viewBox="0 0 128 160" width="128"><defs><path d="M 250 8 C 232.66666 8 215.16666 6.1666665 197.50002 2.5000002 C 179.83334 -1.1666665 163.5 -7.666667 148.50002 -17 C 133.5 -26.333332 120.33333 -37.833336 109 -51.500004 C 97.666664 -65.16667 88.666664 -80.16667 82.00001 -96.5 C 75.333336 -112.833336 70.66667 -129.83333 68 -147.5 C 65.333336 -165.16667 64 -182.66667 64 -200.00002 L 64 -735 L 142 -735 L 142 -429.00003 C 147.33333 -443 154.33334 -456.5 163 -469.5 C 171.66667 -482.5 182.16666 -493.5 194.50002 -502.50003 C 206.83333 -511.50003 220.5 -518 235.5 -522 C 250.50002 -525.99994 265.6667 -528 281 -528 C 297.66666 -528 314.16666 -525.6666 330.50003 -521 C 346.8333 -516.3334 361.6667 -509 375 -499 C 388.33334 -489.00003 399.50003 -477 408.5 -463.00003 C 417.50003 -449 424.66666 -434.1667 430 -418.5 C 435.33334 -402.83334 438.99997 -386.66672 441 -370.00003 C 443 -353.3333 444.00003 -336.6667 444.00003 -320.00003 L 444.00003 -200.00002 C 444.00003 -182 442.66666 -164 440.00003 -146 C 437.3333 -127.99999 432.3333 -110.83333 425 -94.50001 C 417.6667 -78.16667 407.83334 -63.16667 395.5 -49.5 C 383.1667 -35.833332 369.33334 -24.666666 354.00003 -16 C 338.6667 -7.3333335 322.00003 -1.1666665 304 2.5000002 C 286 6.1666665 268 8 250 8 Z M 250 -62.000004 C 261.33334 -62.000004 272.66666 -63.333336 284 -66 C 295.3333 -68.66667 305.66666 -73.16667 315 -79.5 C 324.3333 -85.833336 332.5 -93.666664 339.5 -103.00001 C 346.5 -112.33334 352 -122.33333 356 -133 C 360 -143.66667 362.66666 -154.66667 364 -166 C 365.33334 -177.33334 366.00003 -188.66667 366.00003 -200.00002 L 366.00003 -320.00003 C 366.00003 -331.33334 365.33334 -342.6667 364 -354.00003 C 362.66666 -365.33334 360 -376.3333 356 -387.00003 C 352 -397.66666 346.5 -407.66666 339.5 -417.00003 C 332.5 -426.3333 324.3333 -434.1667 315 -440.50003 C 305.66666 -446.83334 295.5 -451.33334 284.5 -454 C 273.5 -456.66666 262.3333 -457.99997 251.00002 -458 C 239.66667 -457.99997 228.50002 -456.66666 217.50002 -454 C 206.5 -451.33334 196.66666 -446.6667 188.00002 -440.00003 C 179.33333 -433.33334 171.83333 -425.16666 165.50002 -415.50003 C 159.16667 -405.83334 154.33334 -395.83334 151 -385.5 C 147.66666 -375.16666 145.33333 -364.49997 144.00002 -353.50003 C 142.66666 -342.49997 142 -331.33334 142 -320.00003 L 142 -200.00002 C 142 -188.66667 142.66666 -177.50002 144.00002 -166.5 C 145.33333 -155.5 147.66666 -144.83333 151 -134.5 C 154.33334 -124.166664 159.16667 -114.333336 165.50002 -105 C 171.83333 -95.66667 179.33333 -87.66667 188.00002 -81 C 196.66666 -74.333336 206.33333 -69.5 217.00002 -66.5 C 227.66666 -63.5 238.66666 -62.000004 250 -62.000004 Z " id="path1"/></defs><g><g fill="#000000" transform="translate(40 105.20961) rotate(0)"><use href="#path1" transform="translate(0 0) scale(0.09599999)"/></g></g></svg>