<svg xmlns="http://www.w3.org/2000/svg" height="160" viewBox="0 0 128 160" width="128"><defs><path d="M 280 165 L 241 8 Q 215 7 189.5 1 Q 164 -5 141.5 -18 Q 119 -31 102 -51 Q 85 -71 74.5 -94.5 Q 64 -118 60 -143.5 Q 56 -169 56 -195 L 56 -540 Q 56 -567 60.5 -593.5 Q 65 -620 76 -644 Q 87 -668 105.5 -688 Q 124 -708 147.5 -720.5 Q 171 -733 197 -739.5 Q 223 -746 250 -746 Q 277 -746 303 -739.5 Q 329 -733 352.5 -720.5 Q 376 -708 394.5 -688 Q 413 -668 424 -644 Q 435 -620 439.5 -593.5 Q 444 -567 444 -540 L 444 -195 Q 444 -164 437.5 -133 Q 431 -102 415 -75 Q 399 -48 373.5 -28.5 Q 348 -9 318 -1 L 358 165 Z M 250 -62 Q 267 -62 283.5 -65.5 Q 300 -69 314 -78 Q 328 -87 338.5 -100.5 Q 349 -114 355.5 -129.5 Q 362 -145 364 -161.5 Q 366 -178 366 -195 L 366 -540 Q 366 -557 364 -573.5 Q 362 -590 355.5 -606 Q 349 -622 338.5 -635.5 Q 328 -649 313.5 -657.5 Q 299 -666 282 -669.5 Q 265 -673 248 -673 Q 232 -673 215.5 -669 Q 199 -665 185 -656 Q 171 -647 161 -633.5 Q 151 -620 144.5 -605 Q 138 -590 136 -573.5 Q 134 -557 134 -540 L 134 -195 Q 134 -178 136 -161.5 Q 138 -145 144.5 -129.5 Q 151 -114 161.5 -100.5 Q 172 -87 186 -78 Q 200 -69 216.5 -65.5 Q 233 -62 250 -62 Z " id="path1"/></defs><g><g fill="#20242e" transform="translate(40 105.20961) rotate(0)"><use href="#path1" transform="translate(0 0) scale(0.09599999)"/></g></g></svg>