<?xml version="1.0" encoding="UTF-8" standalone="no"?>
<svg height="160" viewBox="0 0 128 160" width="128" xmlns="http://www.w3.org/2000/svg">
<defs>
<path d="M 40 0 L 177 -203 Q 150 -208 126 -222 Q 102 -236 85.5 -257.5 Q 69 -279 62.5 -306 Q 56 -333 56 -360 Q 56 -382 60 -403.5 Q 64 -425 74 -444 Q 84 -463 100 -478.5 Q 116 -494 135.5 -503.5 Q 155 -513 176.5 -516.5 Q 198 -520 219 -520 L 436 -520 L 436 0 L 358 0 L 358 -200 L 265 -200 L 131 0 Z M 358 -270 L 358 -450 L 219 -450 Q 202 -450 184.5 -444.5 Q 167 -439 155 -425.5 Q 143 -412 138.5 -395 Q 134 -378 134 -360 Q 134 -342 138.5 -325 Q 143 -308 155 -295 Q 167 -282 184.5 -276 Q 202 -270 219 -270 Z " id="path1"/>
</defs>
<g>
<g data-source-text="Ñ" fill="#20242e" transform="translate(40 104.99201) rotate(0) scale(0.09599999)">
<use href="#path1" transform="translate(0 0)"/>
</g>
</g>
</svg>