<?xml version="1.0" encoding="UTF-8" standalone="no"?>
<svg height="160" viewBox="0 0 128 160" width="128" xmlns="http://www.w3.org/2000/svg">
<defs>
<path d="M 210 215 L 18 215 L 18 145 L 64 145 L 64 -320 Q 64 -347 68 -373 Q 72 -399 82 -423.5 Q 92 -448 109 -469 Q 126 -490 149 -503.5 Q 172 -517 198 -522.5 Q 224 -528 251 -528 Q 278 -528 304.5 -522.5 Q 331 -517 354.5 -504 Q 378 -491 396 -470 Q 414 -449 425 -424.5 Q 436 -400 440 -373.5 Q 444 -347 444 -320 L 444 -200 Q 444 -175 441 -150 Q 438 -125 430 -101.5 Q 422 -78 408.5 -57 Q 395 -36 375 -21 Q 355 -6 330.5 1 Q 306 8 281 8 Q 258 8 235.5 2 Q 213 -4 194.5 -17.5 Q 176 -31 163 -50.5 Q 150 -70 142 -91 L 142 145 L 210 145 Z M 251 -62 Q 268 -62 284.5 -66 Q 301 -70 315 -79.5 Q 329 -89 339.5 -103 Q 350 -117 356 -133 Q 362 -149 364 -166 Q 366 -183 366 -200 L 366 -320 Q 366 -337 364 -354 Q 362 -371 356 -387 Q 350 -403 340 -417 Q 330 -431 316 -440.5 Q 302 -450 285 -454 Q 268 -458 251 -458 Q 234 -458 218 -454 Q 202 -450 188.5 -440 Q 175 -430 165.5 -415.5 Q 156 -401 151 -385.5 Q 146 -370 144 -353.5 Q 142 -337 142 -320 L 142 -200 Q 142 -183 144 -166.5 Q 146 -150 151 -134.5 Q 156 -119 165.5 -104.5 Q 175 -90 188.5 -80 Q 202 -70 218 -66 Q 234 -62 251 -62 Z " id="path1"/>
</defs>
<g>
<g data-source-text="р" fill="#20242e" transform="translate(40 104.99201) rotate(0) scale(0.09599999)">
<use href="#path1" transform="translate(0 0)"/>
</g>
</g>
</svg>