<svg xmlns="http://www.w3.org/2000/svg" height="160" viewBox="0 0 128 160" width="128"><defs><path d="M 244 8 C 226.66666 8 209.33333 6 192 2 C 174.66667 -1.9999998 158.5 -8.333334 143.5 -17 C 128.5 -25.666668 115.166664 -36.5 103.5 -49.5 C 91.833336 -62.5 82.333336 -77.00001 75.00001 -93.00001 C 67.666664 -109.00001 62.666668 -125.66667 60.000004 -143 C 57.333332 -160.33334 55.999996 -177.66667 56 -195 L 56 -540 C 55.999996 -557.3333 57.333332 -574.6667 60.000004 -592 C 62.666668 -609.3333 67.666664 -626 75.00001 -642 C 82.333336 -658 92.00001 -672.6666 104.00001 -686.00006 C 116 -699.3334 129.66667 -710.3334 145 -719.00006 C 160.33334 -727.66675 176.50002 -733.8333 193.50002 -737.50006 C 210.50002 -741.1667 228.00002 -743.00006 246.00002 -743.00006 C 279.3333 -743.00006 312 -738.1667 344.00003 -728.5 C 376.00003 -718.8333 406.6667 -705.6666 436 -689 L 436 -555 L 359.00003 -555 L 359.00003 -647 C 341 -654.3333 322.83334 -660.5 304.5 -665.5 C 286.1667 -670.5 267.33334 -673.00006 248.00002 -673.00006 C 236.66667 -673.00006 225.66667 -671.6666 215 -669 C 204.33333 -666.3333 194.33333 -662 185.00002 -656.00006 C 175.66666 -650 167.5 -642.5 160.5 -633.50006 C 153.5 -624.5 148 -615 144.00002 -605.00006 C 140.00002 -595 137.33334 -584.5 136 -573.5 C 134.66667 -562.5 134 -551.3334 134 -540 L 134 -195 C 134 -178.99998 135.83333 -162.83334 139.5 -146.5 C 143.16667 -130.16667 149.83334 -115.5 159.50002 -102.50001 C 169.16667 -89.5 181.5 -79.5 196.50002 -72.5 C 211.5 -65.5 227.33333 -62.000004 244 -62.000004 C 254.66667 -62.000004 265.5 -63.5 276.5 -66.5 C 287.5 -69.5 297.6667 -73.833336 307 -79.5 C 316.33334 -85.166664 324.66666 -92.33333 332 -101.00001 C 339.33334 -109.66667 345.00003 -119.166664 349.00003 -129.5 C 353.00003 -139.83333 355.5 -150.5 356.5 -161.5 C 357.5 -172.5 358 -183.66667 358 -195 L 358 -330 L 250 -330 L 250 -400.00003 L 476 -400.00003 L 476 -330 L 436 -330 L 436 -195 C 435.99997 -177.00002 435 -159.16667 433.00003 -141.50002 C 431 -123.83334 426.3333 -107 419 -91 C 411.66666 -75 401.66666 -60.499996 389.00003 -47.5 C 376.3333 -34.5 362.16666 -23.833332 346.5 -15.500001 C 330.8333 -7.166667 314.1667 -1.1666665 296.50003 2.5000002 C 278.83334 6.1666665 261.33334 8 244 8 Z " id="path1"/></defs><g><g fill="#000000" transform="translate(40 105.20961) rotate(0)"><use href="#path1" transform="translate(0 0) scale(0.09599999)"/></g></g></svg>