<svg xmlns="http://www.w3.org/2000/svg" height="160" viewBox="0 0 128 160" width="128"><defs><path d="M 247 8 Q 221 8 194.5 3 Q 168 -2 145 -15 Q 122 -28 104 -48 Q 86 -68 75 -92 Q 64 -116 60 -142.5 Q 56 -169 56 -195 L 56 -540 Q 56 -565 59 -590 Q 62 -615 71 -638.5 Q 80 -662 95 -682.5 Q 110 -703 130.5 -717 Q 151 -731 175.5 -737 Q 200 -743 225 -743 Q 245 -743 264.5 -739.5 Q 284 -736 302 -727 Q 320 -718 334.5 -704 Q 349 -690 359 -673 L 359 -735 L 436 -735 L 436 -554 L 359 -554 Q 359 -577 353 -599.5 Q 347 -622 332 -639.5 Q 317 -657 295 -665 Q 273 -673 250 -673 Q 233 -673 216.5 -669.5 Q 200 -666 186 -657 Q 172 -648 161.5 -634.5 Q 151 -621 144.5 -605.5 Q 138 -590 136 -573.5 Q 134 -557 134 -540 L 134 -195 Q 134 -170 139.5 -145.5 Q 145 -121 160 -101 Q 175 -81 198.5 -71.5 Q 222 -62 247 -62 Q 270 -62 292 -69 Q 314 -76 329.5 -92 Q 345 -108 352.5 -130 Q 360 -152 360 -174 Q 360 -175 360 -175.5 Q 360 -176 360 -176 L 438 -176 Q 438 -175 438 -174.5 Q 438 -174 438 -173 Q 438 -148 432 -124 Q 426 -100 414.5 -78 Q 403 -56 384.5 -39 Q 366 -22 343.5 -11 Q 321 0 296.5 4 Q 272 8 247 8 Z " id="path1"/></defs><g><g fill="#20242e" transform="translate(40 105.20961) rotate(0)"><use href="#path1" transform="translate(0 0) scale(0.09599999)"/></g></g></svg>