<?xml version="1.0" encoding="UTF-8" standalone="no"?>
<svg height="160" viewBox="0 0 128 160" width="128" xmlns="http://www.w3.org/2000/svg">
<defs>
<path d="M 219 8 Q 195 8 171 1 Q 147 -6 127 -20.5 Q 107 -35 93 -55.5 Q 79 -76 70.5 -99 Q 62 -122 59 -146 Q 56 -170 56 -195 L 56 -540 Q 56 -565 59 -589 Q 62 -613 70.5 -636 Q 79 -659 93 -679.5 Q 107 -700 127 -714.5 Q 147 -729 171 -736 Q 195 -743 219 -743 Q 241 -743 261.5 -737.5 Q 282 -732 300.5 -721 Q 319 -710 333.5 -694 Q 348 -678 359 -660 L 359 -735 L 436 -735 L 436 -554 L 359 -554 Q 359 -577 351 -599 Q 343 -621 327.5 -638 Q 312 -655 290.5 -664 Q 269 -673 246 -673 Q 230 -673 213.5 -668.5 Q 197 -664 183.5 -655 Q 170 -646 160 -633 Q 150 -620 144 -604.5 Q 138 -589 136 -572.5 Q 134 -556 134 -540 L 134 -195 Q 134 -179 136 -162.5 Q 138 -146 144 -130.5 Q 150 -115 160 -102 Q 170 -89 183.5 -80 Q 197 -71 213.5 -66.5 Q 230 -62 246 -62 Q 269 -62 290.5 -71 Q 312 -80 327.5 -97 Q 343 -114 351 -136 Q 359 -158 359 -181 L 436 -181 L 436 0 L 359 0 L 359 -75 Q 348 -57 333.5 -41 Q 319 -25 300.5 -14 Q 282 -3 261.5 2.5 Q 241 8 219 8 Z " id="path1"/>
</defs>
<g>
<g data-source-text="C" fill="#dee4e3" transform="translate(40 104.99201) rotate(0) scale(0.09599999)">
<use href="#path1" transform="translate(0 0)"/>
</g>
</g>
</svg>