<?xml version="1.0" encoding="UTF-8" standalone="no"?>
<svg height="160" viewBox="0 0 128 160" width="128" xmlns="http://www.w3.org/2000/svg">
<defs>
<path d="M 253 8 Q 227 8 201.5 4 Q 176 0 153 -11 Q 130 -22 111 -39.5 Q 92 -57 79 -79 Q 66 -101 60 -126 Q 54 -151 54 -177 L 54 -180 L 132 -180 L 132 -178 Q 132 -154 140 -131.5 Q 148 -109 165.5 -92.5 Q 183 -76 206 -69 Q 229 -62 253 -62 Q 271 -62 288.5 -66 Q 306 -70 320.5 -80.5 Q 335 -91 346 -105.5 Q 357 -120 363 -136.5 Q 369 -153 371.5 -171 Q 374 -189 374 -207 Q 374 -225 371.5 -242.5 Q 369 -260 362.5 -276.5 Q 356 -293 344.5 -307 Q 333 -321 318 -330.5 Q 303 -340 285.5 -343.5 Q 268 -347 250 -347 L 194 -347 L 194 -417 L 250 -417 Q 274 -417 296 -426 Q 318 -435 332.5 -453.5 Q 347 -472 352.5 -495.5 Q 358 -519 358 -542 Q 358 -566 353 -590 Q 348 -614 333.5 -633.5 Q 319 -653 296.5 -663 Q 274 -673 250 -673 Q 227 -673 205 -665 Q 183 -657 168 -640 Q 153 -623 147 -600.5 Q 141 -578 141 -555 L 64 -555 L 64 -735 L 141 -735 L 141 -673 Q 151 -690 165.5 -704 Q 180 -718 197.5 -727 Q 215 -736 235 -739.5 Q 255 -743 275 -743 Q 299 -743 322.5 -737 Q 346 -731 365.5 -717 Q 385 -703 399 -682.5 Q 413 -662 421 -639.5 Q 429 -617 432.5 -593 Q 436 -569 436 -545 Q 436 -521 432 -496 Q 428 -471 416.5 -449.5 Q 405 -428 386.5 -411 Q 368 -394 346 -383 Q 372 -373 393.5 -354.5 Q 415 -336 428.5 -312 Q 442 -288 447 -260.5 Q 452 -233 452 -205 Q 452 -178 447.5 -150.5 Q 443 -123 431.5 -97.5 Q 420 -72 401.5 -51 Q 383 -30 359 -16.5 Q 335 -3 307.5 2.5 Q 280 8 253 8 Z " id="path1"/>
</defs>
<g>
<g data-source-text="З" fill="#20242e" transform="translate(40 104.99201) rotate(0) scale(0.09599999)">
<use href="#path1" transform="translate(0 0)"/>
</g>
</g>
</svg>