<?xml version="1.0" encoding="UTF-8" standalone="no"?>
<svg height="160" viewBox="0 0 128 160" width="128" xmlns="http://www.w3.org/2000/svg">
<defs>
<path d="M 16 0 L 16 -70 Q 30 -70 43 -75.5 Q 56 -81 64.5 -92 Q 73 -103 77.5 -116.5 Q 82 -130 84.5 -144 Q 87 -158 88.5 -172 Q 90 -186 91 -199.5 Q 92 -213 92 -227 Q 92 -241 92 -255 L 92 -520 L 436 -520 L 436 0 L 358 0 L 358 -450 L 170 -450 L 170 -259 Q 170 -237 169.5 -215.5 Q 169 -194 167 -172.5 Q 165 -151 161 -129.5 Q 157 -108 149.5 -87.5 Q 142 -67 130 -49 Q 118 -31 99.5 -19.5 Q 81 -8 59.5 -4 Q 38 -0 16 0 Z " id="path1"/>
</defs>
<g>
<g data-source-text="л" fill="#dee4e3" transform="translate(40 104.99201) rotate(0) scale(0.09599999)">
<use href="#path1" transform="translate(0 0)"/>
</g>
</g>
</svg>