<?xml version="1.0" encoding="UTF-8" standalone="no"?>
<svg xmlns="http://www.w3.org/2000/svg" height="160" viewBox="0 0 128 160" width="128"><defs><path d="M 249 8 Q 224 8 199.5 4 Q 175 -0 152.5 -10 Q 130 -20 111 -36 Q 92 -52 79 -73.5 Q 66 -95 60 -119 Q 54 -143 54 -168 Q 54 -169 54 -170.5 Q 54 -172 54 -173 L 132 -173 Q 132 -172 132 -171.5 Q 132 -171 132 -170 Q 132 -147 140.5 -125.5 Q 149 -104 165.5 -89 Q 182 -74 204 -68 Q 226 -62 249 -62 Q 272 -62 294.5 -69 Q 317 -76 333.5 -92 Q 350 -108 358.5 -130 Q 367 -152 367 -175 Q 367 -201 356.5 -225.5 Q 346 -250 328 -268.5 Q 310 -287 288 -301 Q 266 -315 243.5 -327.5 Q 221 -340 198.5 -353.5 Q 176 -367 156 -383.5 Q 136 -400 119 -419.5 Q 102 -439 89.5 -462 Q 77 -485 70.5 -510 Q 64 -535 64 -561 Q 64 -585 69.5 -609 Q 75 -633 86 -654.5 Q 97 -676 114 -693.5 Q 131 -711 152.5 -722 Q 174 -733 198 -738 Q 222 -743 246 -743 Q 296 -743 344 -728 Q 392 -713 436 -689 L 436 -555 L 359 -555 L 359 -646 Q 332 -657 304 -665 Q 276 -673 248 -673 Q 226 -673 205 -665.5 Q 184 -658 169.5 -641.5 Q 155 -625 148 -604 Q 141 -583 141 -561 Q 141 -535 151.5 -511 Q 162 -487 179.5 -468 Q 197 -449 219 -435 Q 241 -421 264 -408 Q 287 -395 309 -381.5 Q 331 -368 351 -352 Q 371 -336 388.5 -316.5 Q 406 -297 418.5 -274.5 Q 431 -252 437.5 -226.5 Q 444 -201 444 -175 Q 444 -150 438 -125 Q 432 -100 419.5 -78 Q 407 -56 388.5 -39 Q 370 -22 347 -11 Q 324 0 299 4 Q 274 8 249 8 Z " id="path1"/></defs><g><g data-source-text="S" fill="#20242e" transform="translate(40 104.99201) rotate(0) scale(0.09599999)"><use href="#path1" transform="translate(0 0)"/></g></g></svg>