<svg xmlns="http://www.w3.org/2000/svg" height="160" viewBox="0 0 128 160" width="128"><defs><path d="M 64 0 L 64 -46 Q 64 -102 81 -156 Q 98 -210 129 -256 L 203 -365 L 105 -405 L 132 -465 L 241 -421 L 306 -518 Q 328 -551 341 -588.5 Q 354 -626 357 -665 L 64 -665 L 64 -735 L 436 -735 L 436 -689 Q 436 -633 419 -579 Q 402 -525 371 -479 L 312 -393 L 395 -360 L 368 -300 L 275 -337 L 194 -217 Q 172 -184 159 -146.5 Q 146 -109 143 -70 L 359 -70 L 359 -145 L 436 -145 L 436 0 Z " id="path1"/></defs><g><g fill="#20242e" transform="translate(40 105.20961) rotate(0)"><use href="#path1" transform="translate(0 0) scale(0.09599999)"/></g></g></svg>