<?xml version="1.0" encoding="UTF-8" standalone="no"?>
<svg height="160" viewBox="0 0 128 160" width="128" xmlns="http://www.w3.org/2000/svg">
<defs>
<path d="M 358 0 L 358 -190 Q 331 -182 303 -177.5 Q 275 -173 247 -173 Q 221 -173 196 -178 Q 171 -183 148 -195 Q 125 -207 107 -225.5 Q 89 -244 79 -267.5 Q 69 -291 66.5 -316.5 Q 64 -342 64 -368 L 64 -520 L 142 -520 L 142 -368 Q 142 -351 143.5 -334.5 Q 145 -318 152 -303 Q 159 -288 170.5 -276 Q 182 -264 197 -256.5 Q 212 -249 228 -246 Q 244 -243 261 -243 Q 286 -243 310.5 -248 Q 335 -253 358 -260 L 358 -520 L 436 -520 L 436 0 Z " id="path1"/>
</defs>
<g>
<g data-source-text="ч" fill="#dee4e3" transform="translate(40 104.99201) rotate(0) scale(0.09599999)">
<use href="#path1" transform="translate(0 0)"/>
</g>
</g>
</svg>