<?xml version="1.0" encoding="UTF-8" standalone="no"?>
<svg height="160" viewBox="0 0 128 160" width="128" xmlns="http://www.w3.org/2000/svg">
<defs>
<path d="M 181 0 L 190 -105 Q 158 -113 130.5 -133 Q 103 -153 86 -181 Q 69 -209 62.5 -242 Q 56 -275 56 -308 L 56 -428 Q 56 -453 59.5 -478.5 Q 63 -504 73 -527.5 Q 83 -551 99 -571.5 Q 115 -592 136 -606 Q 157 -620 182 -627 Q 207 -634 233 -635 L 241 -735 L 319 -735 L 310 -629 Q 338 -621 363 -604.5 Q 388 -588 405 -564 Q 422 -540 430 -511 Q 438 -482 438 -453 L 438 -448 L 360 -448 L 360 -451 Q 360 -474 353 -496 Q 346 -518 330 -534.5 Q 314 -551 292 -558 Q 270 -565 247 -565 Q 230 -565 213.5 -561 Q 197 -557 183 -547.5 Q 169 -538 159.5 -524 Q 150 -510 144 -494 Q 138 -478 136 -461 Q 134 -444 134 -428 L 134 -308 Q 134 -291 136 -274 Q 138 -257 144 -241 Q 150 -225 159.5 -211 Q 169 -197 183 -187.5 Q 197 -178 213.5 -174 Q 230 -170 247 -170 Q 270 -170 292 -177 Q 314 -184 330 -200.5 Q 346 -217 353 -239 Q 360 -261 360 -284 L 360 -288 L 438 -288 L 438 -282 Q 438 -248 426.5 -214 Q 415 -180 391.5 -154.5 Q 368 -129 335 -115.5 Q 302 -102 267 -100 L 259 0 Z " id="path1"/>
</defs>
<g>
<g data-source-text="¢" fill="#dee4e3" transform="translate(40 104.99201) rotate(0) scale(0.09599999)">
<use href="#path1" transform="translate(0 0)"/>
</g>
</g>
</svg>