<?xml version="1.0" encoding="UTF-8" standalone="no"?>
<svg height="160" viewBox="0 0 128 160" width="128" xmlns="http://www.w3.org/2000/svg">
<defs>
<path d="M 253 8 Q 229 8 206 5.5 Q 183 3 160.5 -4.5 Q 138 -12 118.5 -24.5 Q 99 -37 84.5 -55.5 Q 70 -74 62 -96.5 Q 54 -119 54 -142 L 54 -143 L 132 -143 Q 132 -122 144 -105 Q 156 -88 174 -78 Q 192 -68 212 -65 Q 232 -62 253 -62 Q 274 -62 295 -65.5 Q 316 -69 334.5 -80 Q 353 -91 363.5 -110 Q 374 -129 374 -150 Q 374 -165 369.5 -178.5 Q 365 -192 355 -202 Q 345 -212 332.5 -218.5 Q 320 -225 306 -229 Q 292 -233 278 -234 Q 264 -235 250 -235 L 194 -235 L 194 -305 L 250 -305 Q 262 -305 274.5 -306.5 Q 287 -308 299 -311 Q 311 -314 322 -320 Q 333 -326 341.5 -334.5 Q 350 -343 354 -355 Q 358 -367 358 -380 Q 358 -398 349 -414.5 Q 340 -431 324.5 -441 Q 309 -451 290.5 -454.5 Q 272 -458 253 -458 Q 241 -458 228.5 -456.5 Q 216 -455 204.5 -451.5 Q 193 -448 182 -442 Q 171 -436 162 -427.5 Q 153 -419 147 -407.5 Q 141 -396 141 -384 L 64 -384 L 64 -520 L 141 -520 L 141 -464 Q 153 -480 169 -492.5 Q 185 -505 203 -513 Q 221 -521 240.5 -524.5 Q 260 -528 280 -528 Q 310 -528 340 -519 Q 370 -510 392 -490 Q 414 -470 425 -441 Q 436 -412 436 -382 Q 436 -364 432 -346.5 Q 428 -329 417.5 -314.5 Q 407 -300 392 -289 Q 377 -278 361 -271 Q 380 -264 397.5 -253 Q 415 -242 428 -226 Q 441 -210 446.5 -190 Q 452 -170 452 -149 Q 452 -125 445 -101.5 Q 438 -78 424 -59 Q 410 -40 389.5 -26.5 Q 369 -13 346.5 -5.5 Q 324 2 300 5 Q 276 8 253 8 Z " id="path1"/>
</defs>
<g>
<g data-source-text="ли" fill="#dee4e3" transform="translate(40 104.99201) rotate(0) scale(0.09599999)">
<use href="#path1" transform="translate(0 0)"/>
</g>
</g>
</svg>