<?xml version="1.0" encoding="UTF-8" standalone="no"?>
<svg height="160" viewBox="0 0 128 160" width="128" xmlns="http://www.w3.org/2000/svg">
<defs>
<path d="M 253 8 Q 229 8 206 5.5 Q 183 3 161 -4.5 Q 139 -12 119 -24.5 Q 99 -37 84.5 -55.5 Q 70 -74 62 -96.5 Q 54 -119 54 -142 L 54 -143 L 132 -143 Q 132 -122 144 -105 Q 156 -88 174 -78 Q 192 -68 212 -65 Q 232 -62 253 -62 Q 274 -62 295 -65.5 Q 316 -69 334.5 -80 Q 353 -91 363.5 -110 Q 374 -129 374 -150 Q 374 -165 369.5 -178.5 Q 365 -192 355 -202 Q 345 -212 332.5 -218.5 Q 320 -225 306 -229 Q 292 -233 278 -234 Q 264 -235 250 -235 L 194 -235 L 194 -305 L 250 -305 Q 262 -305 274.5 -306.5 Q 287 -308 299 -311 Q 311 -314 322 -320 Q 333 -326 341.5 -334.5 Q 350 -343 354 -355 Q 358 -367 358 -379 Q 358 -398 349.5 -414.5 Q 341 -431 325.5 -440.5 Q 310 -450 292 -454 Q 274 -458 255 -458 Q 226 -458 197 -450.5 Q 168 -443 141 -432 L 141 -385 L 64 -385 L 64 -474 Q 108 -499 157 -513.5 Q 206 -528 257 -528 Q 279 -528 300.5 -524.5 Q 322 -521 342.5 -513.5 Q 363 -506 381 -493 Q 399 -480 411.5 -462.5 Q 424 -445 430 -423.5 Q 436 -402 436 -381 Q 436 -363 431.5 -345.5 Q 427 -328 416.5 -313.5 Q 406 -299 391.5 -288.5 Q 377 -278 361 -271 Q 380 -264 397.5 -253 Q 415 -242 428 -226 Q 441 -210 446.5 -190 Q 452 -170 452 -149 Q 452 -125 445.5 -102 Q 439 -79 424.5 -59.5 Q 410 -40 389.5 -26.5 Q 369 -13 346.5 -5.5 Q 324 2 300 5 Q 276 8 253 8 Z " id="path1"/>
</defs>
<g>
<g data-source-text="ли" fill="#dee4e3" transform="translate(40 104.99201) rotate(0) scale(0.09599999)">
<use href="#path1" transform="translate(0 0)"/>
</g>
</g>
</svg>