<svg xmlns="http://www.w3.org/2000/svg" height="160" viewBox="0 0 128 160" width="128"><defs><path d="M 80.00001 215 L 80.00001 145 L 197.00002 145 C 207.66666 145 218.33333 143.16667 229 139.5 C 239.66667 135.83333 248.5 129.83333 255.5 121.50001 C 262.5 113.166664 267.3333 103.666664 270 93.00001 C 272.66666 82.333336 274.00003 71.333336 274.00003 60.000004 L 274.00003 -665 L 138 -665 L 138 -735 L 352 -735 L 352 60.000004 C 352 74 350.83334 87.83333 348.50003 101.50001 C 346.16666 115.166664 341.8333 128.33333 335.5 141 C 329.16666 153.66667 321.16666 165 311.5 175 C 301.83334 184.99998 290.66666 193 278 199 C 265.3333 205.00002 252.16666 209.16667 238.5 211.50002 C 224.83334 213.83334 210.99998 215 197.00002 215 Z " id="path1"/></defs><g><g fill="#000000" transform="translate(40 105.20961) rotate(0)"><use href="#path1" transform="translate(0 0) scale(0.09599999)"/></g></g></svg>