<svg xmlns="http://www.w3.org/2000/svg" height="160" viewBox="0 0 128 160" width="128"><defs><path d="M 76 0 L 76 -70.00001 L 129 -70.00001 C 135.66666 -70.00001 142.66666 -70.833336 150.00002 -72.5 C 157.33334 -74.166664 163.5 -77.666664 168.50002 -83 C 173.49998 -88.33333 177.33333 -94.333336 180.00002 -101.00001 C 182.66667 -107.666664 184.99998 -114.333336 187 -121.00001 L 210 -200.00002 L 51 -735 L 132 -735 L 251.00002 -320.00003 L 368 -735 L 449 -735 L 262 -102 C 261.33334 -100 260.83334 -98.33333 260.5 -97.00001 C 260.1667 -95.66667 259.66666 -93.99999 259 -92 L 259 -92 C 254.33333 -78 248.5 -64.5 241.5 -51.500004 C 234.5 -38.500004 224.99998 -27.833334 213 -19.5 C 200.99998 -11.166667 187.66666 -5.833333 173 -3.5 C 158.33334 -1.1666667 143.66667 0 129 0 Z " id="path1"/></defs><g><g fill="#000000" transform="translate(40 105.20961) rotate(0)"><use href="#path1" transform="translate(0 0) scale(0.09599999)"/></g></g></svg>