<?xml version="1.0" encoding="UTF-8" standalone="no"?>
<svg height="160" viewBox="0 0 128 160" width="128" xmlns="http://www.w3.org/2000/svg">
<defs>
<path d="M 64 0 L 64 -735 L 208 -735 Q 232 -735 256.5 -732 Q 281 -729 304 -720 Q 327 -711 347 -696.5 Q 367 -682 381 -662 Q 395 -642 401 -617.5 Q 407 -593 407 -569 Q 407 -547 402 -526 Q 397 -505 385 -487 Q 373 -469 355.5 -456 Q 338 -443 318 -435 Q 349 -424 375.5 -404.5 Q 402 -385 420 -357.5 Q 438 -330 445 -297.5 Q 452 -265 452 -233 Q 452 -201 446 -169 Q 440 -137 424.5 -109 Q 409 -81 385 -59 Q 361 -37 332 -23.5 Q 303 -10 271.5 -5 Q 240 -0 208 0 Z M 142 -469 L 208 -469 Q 230 -469 252 -473.5 Q 274 -478 292.5 -491 Q 311 -504 320.5 -524.5 Q 330 -545 330 -567 Q 330 -590 320 -610.5 Q 310 -631 292 -643.5 Q 274 -656 252 -660.5 Q 230 -665 208 -665 L 142 -665 Z M 142 -70 L 208 -70 Q 230 -70 252 -74 Q 274 -78 294 -87.5 Q 314 -97 330 -113 Q 346 -129 356 -148.5 Q 366 -168 370 -190 Q 374 -212 374 -234 Q 374 -257 370 -279 Q 366 -301 356 -320.5 Q 346 -340 330 -356 Q 314 -372 294 -381.5 Q 274 -391 252 -395 Q 230 -399 208 -399 L 142 -399 Z " id="path1"/>
</defs>
<g>
<g data-source-text="B" fill="#20242e" transform="translate(40 104.99201) rotate(0) scale(0.09599999)">
<use href="#path1" transform="translate(0 0)"/>
</g>
</g>
</svg>