<?xml version="1.0" encoding="UTF-8" standalone="no"?>
<svg height="160" viewBox="0 0 128 160" width="128" xmlns="http://www.w3.org/2000/svg">
<defs>
<path d="M 256 8 Q 229 8 202 3 Q 175 -2 151 -14 Q 127 -26 108 -46 Q 89 -66 77 -90 Q 65 -114 60.5 -141 Q 56 -168 56 -195 L 56 -540 Q 56 -566 60 -592.5 Q 64 -619 75 -643 Q 86 -667 104 -687 Q 122 -707 145 -720 Q 168 -733 194.5 -738 Q 221 -743 247 -743 Q 272 -743 296.5 -739 Q 321 -735 343.5 -724 Q 366 -713 384.5 -695.5 Q 403 -678 415 -656.5 Q 427 -635 432.5 -610.5 Q 438 -586 438 -561 L 438 -555 L 360 -555 L 360 -559 Q 360 -582 353 -604 Q 346 -626 330 -642.5 Q 314 -659 292 -666 Q 270 -673 247 -673 Q 222 -673 198.5 -663.5 Q 175 -654 160 -634 Q 145 -614 139.5 -589.5 Q 134 -565 134 -540 L 134 -195 Q 134 -178 136.5 -161 Q 139 -144 145.5 -128.5 Q 152 -113 163.5 -99.5 Q 175 -86 190 -77.5 Q 205 -69 222 -65.5 Q 239 -62 256 -62 Q 282 -62 308.5 -68 Q 335 -74 358 -86 L 358 -330 L 250 -330 L 250 -400 L 436 -400 L 436 -49 Q 397 -22 350.5 -7 Q 304 8 256 8 Z " id="path1"/>
</defs>
<g>
<g data-source-text="G" fill="#20242e" transform="translate(40 104.99201) rotate(0) scale(0.09599999)">
<use href="#path1" transform="translate(0 0)"/>
</g>
</g>
</svg>