<svg xmlns="http://www.w3.org/2000/svg" height="160" viewBox="0 0 128 160" width="128"><defs><path d="M 253 8 Q 227 8 201.5 4 Q 176 0 153 -11 Q 130 -22 110.5 -39.5 Q 91 -57 78.5 -79.5 Q 66 -102 60 -127 Q 54 -152 54 -178 Q 54 -178 54 -178.5 Q 54 -179 54 -179 L 132 -179 Q 132 -179 132 -178.5 Q 132 -178 132 -178 Q 132 -155 140 -132 Q 148 -109 165 -92.5 Q 182 -76 205.5 -69 Q 229 -62 253 -62 Q 279 -62 304.5 -72.5 Q 330 -83 346 -104 Q 362 -125 368 -151 Q 374 -177 374 -204 Q 374 -204 374 -204 Q 374 -204 374 -204 L 374 -204 Q 374 -204 374 -204 Q 374 -204 374 -204 Q 374 -222 371.5 -240 Q 369 -258 362.5 -274.5 Q 356 -291 345 -305.5 Q 334 -320 318.5 -329.5 Q 303 -339 285.5 -343 Q 268 -347 250 -347 L 194 -347 L 194 -417 L 250 -417 Q 274 -417 296.5 -426.5 Q 319 -436 333.5 -455 Q 348 -474 353 -497.5 Q 358 -521 358 -545 Q 358 -569 353 -592.5 Q 348 -616 334 -635 Q 320 -654 297.5 -663.5 Q 275 -673 252 -673 Q 223 -673 195 -665 Q 167 -657 141 -646 L 141 -555 L 64 -555 L 64 -689 Q 108 -713 156 -728 Q 204 -743 254 -743 Q 279 -743 304 -737.5 Q 329 -732 351 -719.5 Q 373 -707 390 -688 Q 407 -669 417.5 -645.5 Q 428 -622 432 -597 Q 436 -572 436 -547 Q 436 -522 431.5 -497.5 Q 427 -473 415.5 -451 Q 404 -429 386 -411.5 Q 368 -394 345 -383 Q 371 -372 392.5 -353.5 Q 414 -335 428 -310.5 Q 442 -286 447 -258 Q 452 -230 452 -202 Q 452 -175 447.5 -147.5 Q 443 -120 431.5 -95 Q 420 -70 401 -49.5 Q 382 -29 358 -16 Q 334 -3 307 2.5 Q 280 8 253 8 Z " id="path1"/></defs><g><g fill="#20242e" transform="translate(40 105.20961) rotate(0)"><use href="#path1" transform="translate(0 0) scale(0.09599999)"/></g></g></svg>