<svg xmlns="http://www.w3.org/2000/svg" height="160" viewBox="0 0 128 160" width="128"><defs><path d="M 250 -70.00001 C 266 -70.00001 281.33334 -73.00001 296 -79 C 310.66666 -85 322.83334 -94.16666 332.5 -106.5 C 342.1667 -118.83333 348.83334 -132.66667 352.5 -148 C 356.1667 -163.33333 358 -178.99998 358 -195 L 358 -540 C 358 -550.6667 357.33334 -561.5 356 -572.5 C 354.6667 -583.49994 352.16666 -593.99994 348.50003 -604 C 344.83334 -614 340 -623.5 334 -632.50006 C 328 -641.5 320.5 -649.1667 311.5 -655.50006 C 302.5 -661.8334 292.66666 -666.3333 282 -669 C 271.3333 -671.6666 260.66666 -673.00006 250 -673.00006 C 239.33334 -673.00006 228.66667 -671.6666 218 -669 C 207.33333 -666.3333 197.5 -661.8334 188.50002 -655.50006 C 179.49998 -649.1667 172 -641.5 166 -632.50006 C 160 -623.5 155.16667 -614 151.5 -604 C 147.83333 -593.99994 145.33333 -583.49994 144.00002 -572.5 C 142.66666 -561.5 142 -550.6667 142 -540 L 142 -195 C 142 -178.99998 143.83333 -163.33333 147.5 -148 C 151.16666 -132.66667 157.83333 -118.83333 167.5 -106.5 C 177.16667 -94.16666 189.33333 -85 204 -79 C 218.66667 -73.00001 234.00002 -70.00001 250 -70.00001 Z M 250 0 C 232.66666 0 215.66666 -1.6666669 199 -5.0000005 C 182.33334 -8.333334 166.5 -14 151.5 -22 C 136.5 -30 123.166664 -40.333332 111.50001 -53 C 99.833336 -65.666664 90.333336 -79.833336 83 -95.50001 C 75.66667 -111.16666 70.66667 -127.33333 68 -144.00002 C 65.333336 -160.66667 64 -177.66667 64 -195 L 64 -540 C 64 -557.3333 65.333336 -574.6667 68 -592 C 70.66667 -609.3333 75.5 -626 82.5 -642 C 89.5 -658 98.66667 -672.6666 110.00001 -686.00006 C 121.333336 -699.3334 134.5 -710.3334 149.5 -719.00006 C 164.50002 -727.66675 180.66667 -733.8333 198 -737.50006 C 215.33333 -741.1667 232.66666 -743.00006 250 -743.00006 C 267.33334 -743.00006 284.66666 -741.1667 302 -737.50006 C 319.3333 -733.8333 335.5 -727.66675 350.5 -719.00006 C 365.49997 -710.3334 378.66666 -699.3334 390 -686.00006 C 401.33334 -672.6666 410.49997 -658 417.50003 -642 C 424.5 -626 429.33334 -609.3333 432 -592 C 434.66666 -574.6667 435.99997 -557.3333 436 -540 L 436 -195 C 435.99997 -182.33331 434.66666 -169.66666 432 -157.00002 C 429.33334 -144.33334 424.66666 -132.33334 418.00003 -121.00001 C 411.33334 -109.66667 402.99997 -99.833336 393.00003 -91.50001 C 383 -83.16667 372.33334 -76 361.00003 -70.00001 L 468.00003 -70.00001 L 468.00003 0 Z " id="path1"/></defs><g><g fill="#ffffff" transform="translate(40 105.20961) rotate(0)"><use href="#path1" transform="translate(0 0) scale(0.09599999)"/></g></g></svg>