<?xml version="1.0" encoding="UTF-8" standalone="no"?>
<svg height="160" viewBox="0 0 256 160" width="256" xmlns="http://www.w3.org/2000/svg">
<defs>
<path d="M 64 0 L 64 -520 L 142 -520 L 142 -321 L 280 -321 Q 302 -321 323.5 -317.5 Q 345 -314 364.5 -304.5 Q 384 -295 400 -279.5 Q 416 -264 426 -244.5 Q 436 -225 440 -203.5 Q 444 -182 444 -161 Q 444 -139 440 -117.5 Q 436 -96 426 -76.5 Q 416 -57 400 -41.5 Q 384 -26 364.5 -16.5 Q 345 -7 323.5 -3.5 Q 302 0 280 0 Z M 142 -70 L 280 -70 Q 298 -70 315.5 -76 Q 333 -82 345 -95 Q 357 -108 361.5 -125.5 Q 366 -143 366 -161 Q 366 -178 361.5 -195.5 Q 357 -213 345 -226 Q 333 -239 315.5 -245 Q 298 -251 280 -251 L 142 -251 Z " id="path1"/>
<path d="M 119 0 L 119 -450 L 24 -450 L 24 -520 L 197 -520 L 197 -321 L 292 -321 Q 313 -321 334 -317 Q 355 -313 373.5 -303 Q 392 -293 406 -277 Q 420 -261 428.5 -242 Q 437 -223 440.5 -202 Q 444 -181 444 -161 Q 444 -140 440.5 -119 Q 437 -98 428.5 -79 Q 420 -60 406 -44 Q 392 -28 373.5 -18 Q 355 -8 334 -4 Q 313 -0 292 0 Z M 197 -70 L 292 -70 Q 309 -70 324.5 -77 Q 340 -84 349.5 -97.5 Q 359 -111 362.5 -127.5 Q 366 -144 366 -160 Q 366 -177 362.5 -193.5 Q 359 -210 349.5 -223.5 Q 340 -237 324.5 -244 Q 309 -251 292 -251 L 197 -251 Z " id="path2"/>
</defs>
<g>
<g data-source-text="ь" fill="#dee4e3" transform="translate(40 104.99201) rotate(0) scale(0.09599999)">
<use href="#path1" transform="translate(0 0)"/>
</g>
</g>
<g>
<g data-source-text="ъ" fill="#dee4e3" transform="translate(168 104.99201) rotate(0) scale(0.09599999)">
<use href="#path2" transform="translate(0 0)"/>
</g>
</g>
</svg>