<?xml version="1.0" encoding="UTF-8" standalone="no"?>
<svg height="160" viewBox="0 0 128 160" width="128" xmlns="http://www.w3.org/2000/svg">
<defs>
<path d="M 244 8 Q 218 8 192 2 Q 166 -4 143.5 -17 Q 121 -30 103.5 -49.5 Q 86 -69 75 -93 Q 64 -117 60 -143 Q 56 -169 56 -195 L 56 -540 Q 56 -566 60 -592.5 Q 64 -619 75 -643 Q 86 -667 104 -687 Q 122 -707 145 -720 Q 168 -733 194.5 -738 Q 221 -743 247 -743 Q 272 -743 296.5 -739 Q 321 -735 343.5 -724 Q 366 -713 384.5 -696 Q 403 -679 414.5 -657 Q 426 -635 432 -611 Q 438 -587 438 -562 L 438 -559 L 360 -559 L 360 -561 Q 360 -583 352.5 -605 Q 345 -627 329.5 -643 Q 314 -659 292 -666 Q 270 -673 247 -673 Q 222 -673 198.5 -663.5 Q 175 -654 160 -634 Q 145 -614 139.5 -589.5 Q 134 -565 134 -540 L 134 -195 Q 134 -171 139.5 -146.5 Q 145 -122 159.5 -102.5 Q 174 -83 196.5 -72.5 Q 219 -62 244 -62 Q 260 -62 276.5 -66.5 Q 293 -71 307 -79.5 Q 321 -88 332 -101 Q 343 -114 349 -129.5 Q 355 -145 356.5 -161.5 Q 358 -178 358 -195 L 358 -400 L 436 -400 L 436 -195 Q 436 -168 433 -141.5 Q 430 -115 419 -91 Q 408 -67 389 -47.5 Q 370 -28 346.5 -15.5 Q 323 -3 296.5 2.5 Q 270 8 244 8 Z " id="path1"/>
</defs>
<g>
<g data-source-text="G" fill="#20242e" transform="translate(40 104.99201) rotate(0) scale(0.09599999)">
<use href="#path1" transform="translate(0 0)"/>
</g>
</g>
</svg>