<?xml version="1.0" encoding="UTF-8" standalone="no"?>
<svg height="160" viewBox="0 0 128 160" width="128" xmlns="http://www.w3.org/2000/svg">
<defs>
<path d="M 250 215 L 105 215 L 105 145 L 172 145 L 172 141 Q 172 94 180 47 Q 188 0 208 -43 L 94 -289 Q 77 -326 70.5 -366 Q 64 -406 64 -447 L 64 -450 L 18 -450 L 18 -520 L 188 -520 L 188 -450 L 142 -450 L 142 -447 Q 142 -414 146.5 -381 Q 151 -348 165 -318 L 248 -129 L 336 -318 Q 350 -348 354 -381 Q 358 -414 358 -447 L 358 -450 L 312 -450 L 312 -520 L 482 -520 L 482 -450 L 436 -450 L 436 -447 Q 436 -406 429.5 -366 Q 423 -326 406 -289 L 280 -16 Q 263 21 256.5 61 Q 250 101 250 141 Z " id="path1"/>
</defs>
<g>
<g data-source-text="у" fill="#20242e" transform="translate(40 104.99201) rotate(0) scale(0.09599999)">
<use href="#path1" transform="translate(0 0)"/>
</g>
</g>
</svg>