<?xml version="1.0" encoding="UTF-8" standalone="no"?>
<svg height="160" viewBox="0 0 128 160" width="128" xmlns="http://www.w3.org/2000/svg">
<defs>
<path d="M 15 0 L 15 -66 L 53 -66 L 57 -147 Q 62 -277 70.5 -407.5 Q 79 -538 80 -669 L 44 -669 L 44 -735 L 193 -735 L 250 -304 L 307 -735 L 456 -735 L 456 -669 L 420 -669 Q 421 -538 429.5 -407.5 Q 438 -277 443 -147 L 447 -66 L 485 -66 L 485 0 L 342 0 L 342 -66 L 373 -66 L 370 -147 Q 365 -264 360 -380.5 Q 355 -497 354 -614 L 281 -66 L 219 -66 L 146 -614 Q 145 -497 140 -380.5 Q 135 -264 130 -147 L 127 -66 L 158 -66 L 158 0 Z " id="path1"/>
</defs>
<g>
<g data-source-text="M" fill="#20242e" transform="translate(40 104.99201) rotate(0) scale(0.09599999)">
<use href="#path1" transform="translate(0 0)"/>
</g>
</g>
</svg>