<?xml version="1.0" encoding="UTF-8" standalone="no"?>
<svg height="160" viewBox="0 0 128 160" width="128" xmlns="http://www.w3.org/2000/svg">
<defs>
<path d="M 256 8 Q 229 8 201.5 3 Q 174 -2 150 -15 Q 126 -28 107 -48.5 Q 88 -69 76.5 -93.5 Q 65 -118 60.5 -145.5 Q 56 -173 56 -200 L 56 -320 Q 56 -347 60.5 -374.5 Q 65 -402 76.5 -426.5 Q 88 -451 107 -471.5 Q 126 -492 150 -505 Q 174 -518 201.5 -523 Q 229 -528 256 -528 Q 304 -528 350.5 -513 Q 397 -498 436 -471 L 436 -340 L 359 -340 L 359 -433 Q 335 -445 309 -451.5 Q 283 -458 256 -458 Q 239 -458 221.5 -454.5 Q 204 -451 189 -441.5 Q 174 -432 163 -418.5 Q 152 -405 145.5 -388.5 Q 139 -372 136.5 -354.5 Q 134 -337 134 -320 L 134 -200 Q 134 -183 136.5 -165.5 Q 139 -148 145.5 -131.5 Q 152 -115 163 -101.5 Q 174 -88 189 -78.5 Q 204 -69 221.5 -65.5 Q 239 -62 256 -62 Q 283 -62 309 -68.5 Q 335 -75 359 -87 L 359 -180 L 436 -180 L 436 -49 Q 397 -22 350.5 -7 Q 304 8 256 8 Z " id="path1"/>
</defs>
<g>
<g data-source-text="c" fill="#dee4e3" transform="translate(40 104.99201) rotate(0) scale(0.09599999)">
<use href="#path1" transform="translate(0 0)"/>
</g>
</g>
</svg>