<svg xmlns="http://www.w3.org/2000/svg" height="160" viewBox="0 0 128 160" width="128"><defs><path d="M 228 8 Q 204 8 180 3.5 Q 156 -1 134.5 -12 Q 113 -23 96 -41 Q 79 -59 68 -80.5 Q 57 -102 51.5 -126 Q 46 -150 46 -174 Q 46 -174 46 -175 Q 46 -176 46 -176 L 124 -176 Q 124 -176 124 -175.5 Q 124 -175 124 -175 Q 124 -153 130.5 -131.5 Q 137 -110 151 -94 Q 165 -78 186 -70 Q 207 -62 228 -62 Q 245 -62 260.5 -66 Q 276 -70 289 -80 Q 302 -90 311 -103.5 Q 320 -117 325 -132 Q 330 -147 332 -163 Q 334 -179 334 -195 L 334 -735 L 412 -735 L 412 -195 Q 412 -169 408 -143.5 Q 404 -118 394 -94 Q 384 -70 367 -49.5 Q 350 -29 328 -16 Q 306 -3 280 2.5 Q 254 8 228 8 Z " id="path1"/></defs><g><g fill="#20242e" transform="translate(40 105.20961) rotate(0)"><use href="#path1" transform="translate(0 0) scale(0.09599999)"/></g></g></svg>