<svg xmlns="http://www.w3.org/2000/svg" height="160" viewBox="0 0 128 160" width="128"><defs><path d="M 148 0 L 148 -7 C 148 -25 149 -42.666664 151 -60.000004 C 153 -77.333336 157.33334 -94.333336 164.00002 -111.00001 L 209.00002 -227 L 98 -516 C 88.66667 -539.3333 80.66667 -563.1666 74 -587.50006 C 67.333336 -611.8334 64 -636.6667 64 -662.00006 L 64 -735 L 142 -735 L 142 -662.00006 C 142 -651.3334 142.83334 -640.8333 144.5 -630.5 C 146.16667 -620.1666 148.16667 -610 150.5 -600.00006 C 152.83334 -590 155.83334 -580 159.50002 -570 C 163.16667 -560 166.66667 -549.99994 170 -540 L 248.00002 -329 L 330 -541 C 337.33334 -560.3334 343.83334 -580 349.50003 -600.00006 C 355.1667 -620 358 -640.6667 358 -662.00006 L 358 -735 L 436 -735 L 436 -662.00006 C 435.99997 -636.6667 432.66663 -611.8334 426 -587.50006 C 419.3333 -563.1666 411.33334 -539.3333 402 -516 L 236.00002 -86.00001 C 231.33333 -73.333336 228.5 -60.333332 227.50002 -47.000004 C 226.5 -33.666668 226 -20.333332 226.00002 -7 L 226.00002 0 Z " id="path1"/></defs><g><g fill="#ffffff" transform="translate(40 105.20961) rotate(0)"><use href="#path1" transform="translate(0 0) scale(0.09599999)"/></g></g></svg>