<?xml version="1.0" encoding="UTF-8" standalone="no"?>
<svg height="160" viewBox="0 0 128 160" width="128" xmlns="http://www.w3.org/2000/svg">
<defs>
<path d="M 64 0 L 64 -735 L 256 -735 Q 283 -735 309.5 -729 Q 336 -723 359 -708.5 Q 382 -694 399 -672.5 Q 416 -651 426.5 -626 Q 437 -601 440.5 -574 Q 444 -547 444 -520 Q 444 -487 438 -454 Q 432 -421 416 -392 Q 400 -363 374 -342 Q 348 -321 317 -311 Q 341 -276 363 -239.5 Q 385 -203 402.5 -164 Q 420 -125 432 -84 Q 444 -43 444 0 L 366 0 Q 366 -42 353 -83 Q 340 -124 320.5 -161.5 Q 301 -199 278 -234.5 Q 255 -270 230 -304 L 142 -304 L 142 0 Z M 256 -374 Q 273 -374 290 -379 Q 307 -384 320.5 -394.5 Q 334 -405 343 -420 Q 352 -435 357 -451.5 Q 362 -468 364 -485 Q 366 -502 366 -520 Q 366 -537 364 -554 Q 362 -571 357 -587.5 Q 352 -604 343 -619 Q 334 -634 320.5 -644.5 Q 307 -655 290 -660 Q 273 -665 256 -665 L 142 -665 L 142 -374 Z " id="path1"/>
</defs>
<g>
<g data-source-text="R" fill="#dee4e3" transform="translate(40 104.99201) rotate(0) scale(0.09599999)">
<use href="#path1" transform="translate(0 0)"/>
</g>
</g>
</svg>