<?xml version="1.0" encoding="UTF-8" standalone="no"?>
<svg height="160" viewBox="0 0 128 160" width="128" xmlns="http://www.w3.org/2000/svg">
<defs>
<path d="M 250 8 Q 201 8 153.5 -6 Q 106 -20 64 -46 L 64 -188 L 141 -188 L 141 -85 Q 167 -74 194.5 -68 Q 222 -62 250 -62 Q 273 -62 295.5 -69 Q 318 -76 334.5 -92.5 Q 351 -109 359 -131.5 Q 367 -154 367 -177 Q 367 -202 356 -226.5 Q 345 -251 327.5 -269.5 Q 310 -288 288 -301.5 Q 266 -315 243.5 -327.5 Q 221 -340 199 -353.5 Q 177 -367 156.5 -383 Q 136 -399 119 -418.5 Q 102 -438 89.5 -460.5 Q 77 -483 70.5 -508 Q 64 -533 64 -559 Q 64 -583 69.5 -607.5 Q 75 -632 86.5 -654 Q 98 -676 115.5 -693.5 Q 133 -711 154.5 -722.5 Q 176 -734 200.5 -738.5 Q 225 -743 250 -743 Q 299 -743 346.5 -729 Q 394 -715 436 -689 L 436 -555 L 359 -555 L 359 -650 Q 333 -661 305.5 -667 Q 278 -673 250 -673 Q 228 -673 206.5 -665.5 Q 185 -658 170 -641 Q 155 -624 148 -602.5 Q 141 -581 141 -559 Q 141 -533 151.5 -509 Q 162 -485 180 -466 Q 198 -447 220 -433.5 Q 242 -420 264.5 -407.5 Q 287 -395 309 -382 Q 331 -369 351 -352.5 Q 371 -336 388.5 -317 Q 406 -298 418.5 -275.5 Q 431 -253 437.5 -228 Q 444 -203 444 -177 Q 444 -152 438 -127 Q 432 -102 420 -80 Q 408 -58 389.5 -40.5 Q 371 -23 348 -12 Q 325 -1 300 3.5 Q 275 8 250 8 Z " id="path1"/>
</defs>
<g>
<g data-source-text="S" fill="#20242e" transform="translate(40 104.99201) rotate(0) scale(0.09599999)">
<use href="#path1" transform="translate(0 0)"/>
</g>
</g>
</svg>