<?xml version="1.0" encoding="UTF-8" standalone="no"?>
<svg xmlns="http://www.w3.org/2000/svg" height="160" viewBox="0 0 128 160" width="128"><defs><path d="M 225 8 Q 200 8 175 1.5 Q 150 -5 129.5 -19.5 Q 109 -34 94 -55 Q 79 -76 70.5 -100 Q 62 -124 59 -149.5 Q 56 -175 56 -200 L 56 -320 Q 56 -345 59 -370.5 Q 62 -396 70.5 -420 Q 79 -444 94 -465 Q 109 -486 129.5 -500.5 Q 150 -515 175 -521.5 Q 200 -528 225 -528 Q 245 -528 265 -524.5 Q 285 -521 302.5 -512 Q 320 -503 334.5 -489 Q 349 -475 359 -458 L 359 -520 L 436 -520 L 436 -339 L 359 -339 Q 359 -362 353 -384.5 Q 347 -407 332 -424.5 Q 317 -442 295 -450 Q 273 -458 250 -458 Q 233 -458 216 -454 Q 199 -450 185 -440.5 Q 171 -431 160.5 -417 Q 150 -403 144 -387 Q 138 -371 136 -354 Q 134 -337 134 -320 L 134 -200 Q 134 -183 136 -166 Q 138 -149 144 -133 Q 150 -117 160.5 -103 Q 171 -89 185 -79.5 Q 199 -70 216 -66 Q 233 -62 250 -62 Q 273 -62 295 -70 Q 317 -78 332 -95.5 Q 347 -113 353 -135.5 Q 359 -158 359 -181 L 436 -181 L 436 0 L 359 0 L 359 -62 Q 349 -45 334.5 -31 Q 320 -17 302.5 -8 Q 285 1 265 4.5 Q 245 8 225 8 Z " id="path1"/></defs><g><g data-source-text="c" fill="#20242e" transform="translate(40 104.99201) rotate(0) scale(0.09599999)"><use href="#path1" transform="translate(0 0)"/></g></g></svg>