<?xml version="1.0" encoding="UTF-8" standalone="no"?>
<svg height="160" viewBox="0 0 128 160" width="128" xmlns="http://www.w3.org/2000/svg">
<defs>
<path d="M 253 8 Q 228 8 203 4 Q 178 0 156 -11 Q 134 -22 115.5 -39.5 Q 97 -57 85 -79 Q 73 -101 67.5 -125.5 Q 62 -150 62 -175 L 62 -180 L 140 -180 L 140 -177 Q 140 -154 147 -132 Q 154 -110 170 -93.5 Q 186 -77 208 -69.5 Q 230 -62 253 -62 Q 270 -62 286.5 -66 Q 303 -70 317 -80 Q 331 -90 340.5 -104 Q 350 -118 356 -133.5 Q 362 -149 364 -166 Q 366 -183 366 -200 L 366 -225 L 194 -225 L 194 -295 L 366 -295 L 366 -320 Q 366 -337 363.5 -354.5 Q 361 -372 354.5 -388.5 Q 348 -405 337 -418.5 Q 326 -432 311 -441.5 Q 296 -451 278.5 -454.5 Q 261 -458 244 -458 Q 217 -458 191 -451.5 Q 165 -445 141 -433 L 141 -340 L 64 -340 L 64 -471 Q 103 -498 149.5 -513 Q 196 -528 244 -528 Q 271 -528 298.5 -523 Q 326 -518 350 -505 Q 374 -492 393 -471.5 Q 412 -451 423.5 -426.5 Q 435 -402 439.5 -374.5 Q 444 -347 444 -320 L 444 -200 Q 444 -173 440 -146.5 Q 436 -120 425 -95.5 Q 414 -71 396.5 -50.5 Q 379 -30 356 -16.5 Q 333 -3 306.5 2.5 Q 280 8 253 8 Z " id="path1"/>
</defs>
<g>
<g data-source-text="Ñ" fill="#20242e" transform="translate(40 104.99201) rotate(0) scale(0.09599999)">
<use href="#path1" transform="translate(0 0)"/>
</g>
</g>
</svg>