<?xml version="1.0" encoding="UTF-8" standalone="no"?>
<svg height="160" viewBox="0 0 128 160" width="128" xmlns="http://www.w3.org/2000/svg">
<defs>
<path d="M 253 8 Q 230 8 207.5 5.5 Q 185 3 163 -3.5 Q 141 -10 121 -21 Q 101 -32 86 -49 Q 71 -66 62.5 -87.5 Q 54 -109 54 -132 L 54 -135 L 132 -135 L 132 -134 Q 132 -121 138 -109 Q 144 -97 154 -88.5 Q 164 -80 176 -75 Q 188 -70 201 -67 Q 214 -64 227 -63 Q 240 -62 253 -62 Q 274 -62 295 -65.5 Q 316 -69 334.5 -80 Q 353 -91 363.5 -110 Q 374 -129 374 -150 Q 374 -165 369.5 -178.5 Q 365 -192 355 -202 Q 345 -212 332.5 -218.5 Q 320 -225 306 -229 Q 292 -233 278 -234 Q 264 -235 250 -235 L 194 -235 L 194 -305 L 250 -305 Q 262 -305 274.5 -306.5 Q 287 -308 299 -311 Q 311 -314 322 -319.5 Q 333 -325 341.5 -334 Q 350 -343 354 -355 Q 358 -367 358 -379 Q 358 -392 354 -404.5 Q 350 -417 341 -426.5 Q 332 -436 320.5 -442 Q 309 -448 296.5 -451.5 Q 284 -455 271 -456.5 Q 258 -458 245 -458 Q 218 -458 191.5 -451.5 Q 165 -445 141 -433 L 141 -385 L 64 -385 L 64 -471 Q 103 -498 150 -513 Q 197 -528 245 -528 Q 268 -528 290.5 -525.5 Q 313 -523 334.5 -515.5 Q 356 -508 375.5 -495.5 Q 395 -483 409 -465 Q 423 -447 429.5 -425 Q 436 -403 436 -380 Q 436 -363 431.5 -345.5 Q 427 -328 416.5 -313.5 Q 406 -299 391.5 -288.5 Q 377 -278 361 -271 Q 380 -264 397.5 -253 Q 415 -242 428 -226 Q 441 -210 446.5 -190 Q 452 -170 452 -149 Q 452 -125 445.5 -102 Q 439 -79 424.5 -59.5 Q 410 -40 390 -26.5 Q 370 -13 347 -5.5 Q 324 2 300.5 5 Q 277 8 253 8 Z " id="path1"/>
</defs>
<g>
<g data-source-text="ли" fill="#20242e" transform="translate(40 104.99201) rotate(0) scale(0.09599999)">
<use href="#path1" transform="translate(0 0)"/>
</g>
</g>
</svg>