<?xml version="1.0" encoding="UTF-8" standalone="no"?>
<svg height="160" viewBox="0 0 128 160" width="128" xmlns="http://www.w3.org/2000/svg">
<defs>
<path d="M 18 0 L 18 -70 L 79 -70 L 210 -368 L 79 -665 L 18 -665 L 18 -735 L 188 -735 L 188 -665 L 163 -665 L 250 -462 L 337 -665 L 312 -665 L 312 -735 L 482 -735 L 482 -665 L 421 -665 L 290 -367 L 421 -70 L 482 -70 L 482 0 L 312 0 L 312 -70 L 337 -70 L 250 -273 L 163 -70 L 188 -70 L 188 0 Z " id="path1"/>
</defs>
<g>
<g data-source-text="X" fill="#dee4e3" transform="translate(40 104.99201) rotate(0) scale(0.09599999)">
<use href="#path1" transform="translate(0 0)"/>
</g>
</g>
</svg>