<svg xmlns="http://www.w3.org/2000/svg" height="160" viewBox="0 0 128 160" width="128"><defs><path d="M 48 0 L 54 -147.00002 C 57.333332 -233.66667 61.833332 -320 67.5 -406.00003 C 73.16667 -492 76.333336 -578.3333 77.00001 -665 L 32 -665 L 32 -735 L 188.00002 -735 L 250 -240.00002 L 312 -735 L 422.00003 -735 C 422.00003 -637 425 -539 431 -441 C 437 -343.00003 442 -245.00002 446.00003 -147.00002 L 452.00003 0 L 374 0 L 368 -147.00002 C 364.6667 -223.66667 362 -300.1667 360.00003 -376.50003 C 357.99997 -452.83334 356.66666 -529.3334 356 -606 L 280.00003 0 L 220.00002 0 L 144.00002 -606 C 143.33334 -529.3334 142 -452.83334 140.00002 -376.50003 C 138 -300.1667 135.33333 -223.66667 132 -147.00002 L 126 0 Z " id="path1"/></defs><g><g fill="#000000" transform="translate(40 105.20961) rotate(0)"><use href="#path1" transform="translate(0 0) scale(0.09599999)"/></g></g></svg>