<?xml version="1.0" encoding="UTF-8" standalone="no"?>
<svg height="160" viewBox="0 0 128 160" width="128" xmlns="http://www.w3.org/2000/svg">
<defs>
<path d="M 161 0 L 14 0 L 14 -70 L 48 -70 L 48 -665 L 14 -665 L 14 -735 L 142 -735 L 250 -332 L 358 -735 L 486 -735 L 486 -665 L 452 -665 L 452 -70 L 486 -70 L 486 0 L 339 0 L 339 -70 L 374 -70 L 374 -147 Q 374 -262 378 -377 Q 382 -492 384 -607 L 280 -221 L 220 -221 L 116 -607 Q 118 -492 122 -377 Q 126 -262 126 -147 L 126 -70 L 161 -70 Z " id="path1"/>
</defs>
<g>
<g data-source-text="M" fill="#dee4e3" transform="translate(40 104.99201) rotate(0) scale(0.09599999)">
<use href="#path1" transform="translate(0 0)"/>
</g>
</g>
</svg>