<svg xmlns="http://www.w3.org/2000/svg" height="160" viewBox="0 0 128 160" width="128"><defs><path d="M 341 8 C 325.6667 8 310.66666 4.9999995 296 -1 C 281.33334 -7 267.16666 -13.166666 253.50002 -19.5 C 239.83333 -25.833332 225.83334 -31.666668 211.50002 -37 C 197.16667 -42.333336 182.66667 -47.333332 168.00002 -52.000004 L 134 -62.000004 L 134 0 L 64 0 L 64 -145 L 354.00003 -606 L 323 -617.00006 C 309 -622.3333 295.33334 -627.6666 282 -633.00006 C 268.6667 -638.3333 255.33336 -643.8333 242.00002 -649.50006 C 228.66667 -655.1666 215.16666 -660.5 201.5 -665.5 C 187.83331 -670.5 173.66666 -673.00006 159 -673.00006 C 151.66667 -673.00006 145.5 -669.6666 140.5 -663 C 135.5 -656.3333 132 -649.3333 130.00002 -642 C 128 -634.6667 126.66667 -627.00006 126 -619 C 125.333336 -611 125 -603.3333 125 -596 L 125 -553 L 48 -553 L 48 -596 C 48 -607.3334 48.666668 -618.8333 50.000004 -630.5 C 51.333336 -642.1666 53.666668 -653.5 57.000004 -664.5 C 60.333332 -675.49994 65.16667 -686 71.5 -696.00006 C 77.83333 -706.00006 85.50001 -714.6667 94.50001 -722.00006 C 103.5 -729.3334 113.666664 -734.6667 125 -738 C 136.33333 -741.3334 147.66667 -743.00006 159 -743.00006 C 175.66666 -743.00006 192 -740.5 208.00002 -735.50006 C 223.99998 -730.5 239.83333 -725 255.5 -719.00006 C 271.16666 -713 286.6667 -706.99994 302 -701 C 317.33334 -695.00006 333 -689 349.00003 -683 L 366.00003 -677 L 366.00003 -735 L 436 -735 L 436 -590 L 147.00002 -131 L 190 -119 C 198.66666 -116.33333 207.16667 -113.5 215.5 -110.5 C 223.83333 -107.5 232.16666 -104.16667 240.5 -100.5 C 248.83334 -96.83333 257.00003 -92.833336 265 -88.50001 C 273 -84.16667 281 -80.166664 289 -76.5 C 296.99997 -72.83333 305.3333 -69.5 314.00003 -66.5 C 322.6667 -63.5 331.6667 -62.000004 341 -62.000004 C 348.33334 -62.000004 354.5 -65.333336 359.50003 -72.00001 C 364.49997 -78.66667 367.99997 -85.66667 370.00003 -93.00001 C 372 -100.333336 373.3333 -108 374 -116 C 374.66666 -124 375 -131.66667 375 -139 L 375 -183.00002 L 452.00003 -183.00002 L 452.00003 -139 C 452 -127.666664 451.33334 -116.16667 450.00003 -104.50001 C 448.66666 -92.83334 446.33334 -81.5 443 -70.5 C 439.6667 -59.5 434.83334 -49 428.50003 -39 C 422.1667 -29 414.5 -20.333332 405.50003 -13.000001 C 396.5 -5.666667 386.3333 -0.33333325 375 3 C 363.66666 6.3333335 352.3333 8 341 8 Z " id="path1"/></defs><g><g fill="#ffffff" transform="translate(40 105.20961) rotate(0)"><use href="#path1" transform="translate(0 0) scale(0.09599999)"/></g></g></svg>