<svg xmlns="http://www.w3.org/2000/svg" height="160" viewBox="0 0 128 160" width="128"><defs><path d="M 56 0 C 55.999996 -20 59.666664 -39.333336 67 -58 C 74.333336 -76.66667 83.333336 -94.50001 94.00001 -111.50001 C 104.66667 -128.50002 116.16667 -144.66667 128.50002 -160.00002 C 140.83334 -175.33334 154.00002 -190.33333 168.00002 -205.00002 C 150.66667 -209 134.66667 -215.83336 120.00001 -225.50002 C 105.33333 -235.16667 93 -247.16669 83 -261.5 C 73 -275.83334 66 -291.50003 62.000004 -308.50003 C 58 -325.49997 55.999996 -342.66663 56 -360.00003 C 55.999996 -374.6667 57.333332 -389.1667 60.000004 -403.5 C 62.666668 -417.83334 67.333336 -431.3333 74 -444.00003 C 80.66667 -456.6667 89.333336 -468.1667 100.00001 -478.50003 C 110.666664 -488.8333 122.50001 -497.16666 135.50002 -503.5 C 148.5 -509.8333 162.16666 -514.1666 176.50002 -516.5 C 190.83334 -518.8333 205.00002 -520 219.00002 -520.00006 L 436 -520.00006 L 436 0 L 358 0 L 358 -200.00002 L 266 -200.00002 C 256 -190.66669 246 -181.33334 236.00002 -172.00002 C 226 -162.66667 216.50002 -152.83334 207.5 -142.5 C 198.5 -132.16667 189.83333 -121.666664 181.5 -111.00001 C 173.16667 -100.333336 165.50002 -89 158.50002 -77.00001 C 151.5 -65 145.66666 -52.5 141 -39.5 C 136.33333 -26.500002 134 -13.333333 134 0 Z M 219.00002 -270 L 358 -270 L 358 -450.00003 L 219.00002 -450.00003 C 207.66669 -450.00003 196.16669 -448.1667 184.5 -444.50003 C 172.83333 -440.83334 163 -434.5 155 -425.5 C 147 -416.50003 141.5 -406.33337 138.50002 -395.00003 C 135.5 -383.6667 134 -372 134 -360.00003 C 134 -347.99997 135.5 -336.3333 138.50002 -325.00003 C 141.5 -313.66666 147 -303.6667 155 -295 C 163 -286.33334 172.83333 -280 184.5 -276 C 196.16669 -272 207.66669 -270 219.00002 -270 Z " id="path1"/></defs><g><g fill="#ffffff" transform="translate(40 105.20961) rotate(0)"><use href="#path1" transform="translate(0 0) scale(0.09599999)"/></g></g></svg>