<?xml version="1.0" encoding="UTF-8" standalone="no"?>
<svg xmlns="http://www.w3.org/2000/svg" height="160" viewBox="0 0 128 160" width="128"><defs><path d="M 276 8 Q 256 8 236 4.5 Q 216 1 198 -8 Q 180 -17 165.5 -31 Q 151 -45 141 -62 L 141 0 L 64 0 L 64 -181 L 141 -181 Q 141 -158 147 -135 Q 153 -112 168 -95 Q 183 -78 205.5 -70 Q 228 -62 251 -62 Q 273 -62 295.5 -69 Q 318 -76 334.5 -92 Q 351 -108 359 -130 Q 367 -152 367 -174 Q 367 -200 356 -224.5 Q 345 -249 327.5 -268 Q 310 -287 287.5 -301 Q 265 -315 242.5 -327.5 Q 220 -340 198 -354 Q 176 -368 156 -384.5 Q 136 -401 118.5 -420.5 Q 101 -440 89 -463 Q 77 -486 70.5 -511.5 Q 64 -537 64 -563 Q 64 -585 68.5 -607.5 Q 73 -630 81.5 -651 Q 90 -672 104.5 -690 Q 119 -708 138 -720.5 Q 157 -733 179.5 -738 Q 202 -743 225 -743 Q 225 -743 225 -743 Q 225 -743 225 -743 Q 245 -743 265 -739.5 Q 285 -736 302.5 -727 Q 320 -718 334.5 -704 Q 349 -690 359 -673 L 359 -735 L 436 -735 L 436 -554 L 359 -554 Q 359 -577 353 -599.5 Q 347 -622 332 -639.5 Q 317 -657 295 -665 Q 273 -673 250 -673 Q 228 -673 206.5 -665.5 Q 185 -658 170.5 -642 Q 156 -626 148.5 -604.5 Q 141 -583 141 -561 Q 141 -535 152 -511 Q 163 -487 180.5 -467.5 Q 198 -448 220 -434 Q 242 -420 264.5 -407.5 Q 287 -395 309.5 -381.5 Q 332 -368 352 -351.5 Q 372 -335 389 -315 Q 406 -295 418.5 -272.5 Q 431 -250 437.5 -224.5 Q 444 -199 444 -173 Q 444 -150 439.5 -127 Q 435 -104 425 -82.5 Q 415 -61 400 -43.5 Q 385 -26 365 -14 Q 345 -2 322 3 Q 299 8 276 8 Z " id="path1"/></defs><g><g data-source-text="S" fill="#20242e" transform="translate(40 104.99201) rotate(0) scale(0.09599999)"><use href="#path1" transform="translate(0 0)"/></g></g></svg>