<?xml version="1.0" encoding="UTF-8" standalone="no"?>
<svg height="160" viewBox="0 0 128 160" width="128" xmlns="http://www.w3.org/2000/svg">
<defs>
<path d="M 184 108 L 193 3 Q 171 -2 151 -12.5 Q 131 -23 115 -38 Q 99 -53 87 -72 Q 75 -91 68 -112.5 Q 61 -134 58.5 -156 Q 56 -178 56 -200 L 56 -320 Q 56 -346 59.5 -371.5 Q 63 -397 73 -421 Q 83 -445 99.5 -465.5 Q 116 -486 137.5 -500 Q 159 -514 184.5 -520.5 Q 210 -527 236 -528 L 244 -628 L 316 -628 L 307 -522 Q 336 -515 361.5 -498.5 Q 387 -482 404.5 -457.5 Q 422 -433 430 -404 Q 438 -375 438 -345 L 438 -340 L 360 -340 L 360 -343 Q 360 -366 353 -388 Q 346 -410 330 -426.5 Q 314 -443 292 -450.5 Q 270 -458 247 -458 Q 230 -458 213.5 -454 Q 197 -450 183 -440 Q 169 -430 159.5 -416 Q 150 -402 144 -386.5 Q 138 -371 136 -354 Q 134 -337 134 -320 L 134 -200 Q 134 -183 136 -166 Q 138 -149 144 -133.5 Q 150 -118 159.5 -104 Q 169 -90 183 -80 Q 197 -70 213.5 -66 Q 230 -62 247 -62 Q 270 -62 292 -69.5 Q 314 -77 330 -93.5 Q 346 -110 353 -132 Q 360 -154 360 -177 L 360 -180 L 438 -180 L 438 -175 Q 438 -140 426.5 -106 Q 415 -72 391 -46 Q 367 -20 333.5 -7 Q 300 6 264 8 L 256 108 Z " id="path1"/>
</defs>
<g>
<g data-source-text="¢" fill="#20242e" transform="translate(40 104.99201) rotate(0) scale(0.09599999)">
<use href="#path1" transform="translate(0 0)"/>
</g>
</g>
</svg>