<?xml version="1.0" encoding="UTF-8" standalone="no"?>
<svg height="160" viewBox="0 0 128 160" width="128" xmlns="http://www.w3.org/2000/svg">
<defs>
<path d="M 184 0 L 193 -105 Q 171 -110 151 -120 Q 131 -130 115 -145.5 Q 99 -161 87 -180 Q 75 -199 68 -220 Q 61 -241 58.5 -263 Q 56 -285 56 -308 L 56 -428 Q 56 -453 59.5 -479 Q 63 -505 73 -528.5 Q 83 -552 99.5 -572.5 Q 116 -593 137.5 -607 Q 159 -621 184.5 -628 Q 210 -635 236 -635 L 244 -735 L 316 -735 L 307 -629 Q 336 -622 361.5 -605.5 Q 387 -589 404.5 -565 Q 422 -541 430 -511.5 Q 438 -482 438 -453 L 438 -448 L 360 -448 L 360 -451 Q 360 -474 353 -496 Q 346 -518 330 -534.5 Q 314 -551 292 -558 Q 270 -565 247 -565 Q 230 -565 213.5 -561 Q 197 -557 183 -547.5 Q 169 -538 159.5 -524 Q 150 -510 144 -494 Q 138 -478 136 -461 Q 134 -444 134 -428 L 134 -308 Q 134 -291 136 -274 Q 138 -257 144 -241 Q 150 -225 159.5 -211 Q 169 -197 183 -187.5 Q 197 -178 213.5 -174 Q 230 -170 247 -170 Q 270 -170 292 -177 Q 314 -184 330 -200.5 Q 346 -217 353 -239 Q 360 -261 360 -284 L 360 -288 L 438 -288 L 438 -282 Q 438 -247 426.5 -213 Q 415 -179 391 -153.5 Q 367 -128 333.5 -115 Q 300 -102 264 -100 L 256 0 Z " id="path1"/>
</defs>
<g>
<g data-source-text="¢" fill="#20242e" transform="translate(40 104.99201) rotate(0) scale(0.09599999)">
<use href="#path1" transform="translate(0 0)"/>
</g>
</g>
</svg>