<svg xmlns="http://www.w3.org/2000/svg" height="160" viewBox="0 0 128 160" width="128"><defs><path d="M 467.00003 8 C 453 8 438.99997 6.1666665 425 2.5000002 C 411.00003 -1.1666665 398.83337 -7.666667 388.50003 -17 C 378.1667 -26.333332 370.50003 -37.833336 365.50003 -51.500004 C 360.50003 -65.16667 358 -79 358 -93.00001 L 358 -450.00003 L 219.00002 -450.00003 C 207.66669 -450.00003 196.16669 -448.1667 184.5 -444.50003 C 172.83333 -440.83334 163 -434.5 155 -425.5 C 147 -416.50003 141.5 -406.33337 138.50002 -395.00003 C 135.5 -383.6667 134 -372 134 -360.00003 C 134 -347.99997 135.5 -336.3333 138.50002 -325.00003 C 141.5 -313.66666 147 -303.6667 155 -295 C 163 -286.33334 172.83333 -280 184.5 -276 C 196.16669 -272 207.66669 -270 219.00002 -270 L 301 -270 L 301 -200.00002 L 268 -200.00002 L 123.00001 0 L 35.000004 0 L 182 -202.00002 C 164 -204.66669 146.5 -210.50002 129.5 -219.50002 C 112.49999 -228.5 98.33333 -240.33333 87.00001 -255 C 75.66667 -269.66666 67.66667 -286.1667 63 -304.5 C 58.33333 -322.83334 55.999996 -341.3333 56 -360.00003 C 55.999996 -374.6667 57.333332 -389.1667 60.000004 -403.5 C 62.666668 -417.83334 67.333336 -431.3333 74 -444.00003 C 80.66667 -456.6667 89.333336 -468.1667 100.00001 -478.50003 C 110.666664 -488.8333 122.50001 -497.16666 135.50002 -503.5 C 148.5 -509.8333 162.16666 -514.1666 176.50002 -516.5 C 190.83334 -518.8333 205.00002 -520 219.00002 -520.00006 L 436 -520.00006 L 436 -93.00001 C 435.99997 -89.00001 436.66666 -85 438.00003 -81 C 439.33337 -77 441.50003 -73.5 444.50003 -70.5 C 447.5 -67.5 451 -65.33333 455.00003 -64 C 459 -62.666668 463 -62.000004 467.00003 -62.000004 L 482 -62.000004 L 482 8 Z " id="path1"/></defs><g><g fill="#000000" transform="translate(40 105.20961) rotate(0)"><use href="#path1" transform="translate(0 0) scale(0.09599999)"/></g></g></svg>