<?xml version="1.0" encoding="UTF-8" standalone="no"?>
<svg xmlns="http://www.w3.org/2000/svg" height="160" viewBox="0 0 128 160" width="128"><defs><path d="M 95 0 L 95 -665 L 49 -665 L 49 -735 L 173 -735 L 173 -391 Q 194 -416 214.5 -442 Q 235 -468 254.5 -495 Q 274 -522 291.5 -550 Q 309 -578 324 -608 Q 339 -638 348.5 -670 Q 358 -702 358 -735 L 436 -735 Q 436 -706 429 -677.5 Q 422 -649 411 -621.5 Q 400 -594 386 -568.5 Q 372 -543 356.5 -518.5 Q 341 -494 324 -470 Q 307 -446 290 -422 Q 308 -389 325 -355.5 Q 342 -322 358 -287.5 Q 374 -253 388.5 -218 Q 403 -183 415 -147.5 Q 427 -112 435.5 -75 Q 444 -38 444 0 L 366 0 Q 366 -32 359.5 -63.5 Q 353 -95 343 -125 Q 333 -155 321.5 -185 Q 310 -215 296.5 -244 Q 283 -273 269 -301.5 Q 255 -330 240 -358 Q 223 -337 206.5 -316.5 Q 190 -296 173 -276 L 173 0 Z " id="path1"/></defs><g><g data-source-text="К" fill="#20242e" transform="translate(40 104.99201) rotate(0) scale(0.09599999)"><use href="#path1" transform="translate(0 0)"/></g></g></svg>