<?xml version="1.0" encoding="UTF-8" standalone="no"?>
<svg height="160" viewBox="0 0 128 160" width="128" xmlns="http://www.w3.org/2000/svg">
<defs>
<path d="M 247 8 Q 221 8 194.5 3 Q 168 -2 145 -15 Q 122 -28 104 -48 Q 86 -68 75 -92 Q 64 -116 60 -142.5 Q 56 -169 56 -195 L 56 -540 Q 56 -567 60.5 -593.5 Q 65 -620 76 -644 Q 87 -668 105.5 -688 Q 124 -708 147 -720.5 Q 170 -733 196.5 -738 Q 223 -743 250 -743 Q 299 -743 346.5 -729 Q 394 -715 436 -689 L 436 -555 L 359 -555 L 359 -650 Q 333 -661 305.5 -667 Q 278 -673 250 -673 Q 233 -673 216.5 -669.5 Q 200 -666 186 -657 Q 172 -648 161.5 -634.5 Q 151 -621 144.5 -605.5 Q 138 -590 136 -573.5 Q 134 -557 134 -540 L 134 -195 Q 134 -170 139.5 -145.5 Q 145 -121 160 -101 Q 175 -81 198.5 -71.5 Q 222 -62 247 -62 Q 270 -62 292 -69 Q 314 -76 329.5 -92 Q 345 -108 352.5 -130 Q 360 -152 360 -174 L 360 -176 L 438 -176 L 438 -173 Q 438 -148 432 -124 Q 426 -100 414.5 -78 Q 403 -56 384.5 -39 Q 366 -22 343.5 -11 Q 321 0 296.5 4 Q 272 8 247 8 Z " id="path1"/>
</defs>
<g>
<g data-source-text="C" fill="#20242e" transform="translate(40 104.99201) rotate(0) scale(0.09599999)">
<use href="#path1" transform="translate(0 0)"/>
</g>
</g>
</svg>