<?xml version="1.0" encoding="UTF-8" standalone="no"?>
<svg height="160" viewBox="0 0 128 160" width="128" xmlns="http://www.w3.org/2000/svg">
<defs>
<path d="M 258 8 Q 233 8 207.5 4 Q 182 0 159 -10.5 Q 136 -21 117 -38.5 Q 98 -56 86 -78 Q 74 -100 69 -125 Q 64 -150 64 -176 L 64 -345 Q 64 -369 68 -393.5 Q 72 -418 83 -439.5 Q 94 -461 111.5 -479 Q 129 -497 150.5 -508 Q 172 -519 196.5 -523.5 Q 221 -528 245 -528 Q 267 -528 289.5 -525 Q 312 -522 332.5 -514.5 Q 353 -507 371 -494 Q 389 -481 402 -463 Q 415 -445 420.5 -423 Q 426 -401 426 -379 Q 426 -362 422.5 -345.5 Q 419 -329 410 -315 Q 401 -301 388 -290 Q 375 -279 360 -271 Q 380 -265 397.5 -253.5 Q 415 -242 428 -226 Q 441 -210 446.5 -190 Q 452 -170 452 -149 Q 452 -126 445.5 -102.5 Q 439 -79 425.5 -60 Q 412 -41 392.5 -27.5 Q 373 -14 351 -6 Q 329 2 305.5 5 Q 282 8 258 8 Z M 142 -304 L 257 -304 Q 274 -304 290.5 -307.5 Q 307 -311 320.5 -320.5 Q 334 -330 341 -345.5 Q 348 -361 348 -378 Q 348 -396 340 -413 Q 332 -430 316.5 -440.5 Q 301 -451 282.5 -454.5 Q 264 -458 245 -458 Q 224 -458 202.5 -450.5 Q 181 -443 167 -426.5 Q 153 -410 147.5 -388 Q 142 -366 142 -345 Z M 258 -62 Q 279 -62 299.5 -66 Q 320 -70 337.5 -81 Q 355 -92 364.5 -111 Q 374 -130 374 -150 Q 374 -164 370 -177 Q 366 -190 357 -200 Q 348 -210 336 -217 Q 324 -224 311 -227.5 Q 298 -231 284.5 -232.5 Q 271 -234 257 -234 L 142 -234 L 142 -176 Q 142 -152 149 -129.5 Q 156 -107 173 -91 Q 190 -75 212.5 -68.5 Q 235 -62 258 -62 Z " id="path1"/>
</defs>
<g>
<g data-source-text="в" fill="#20242e" transform="translate(40 104.99201) rotate(0) scale(0.09599999)">
<use href="#path1" transform="translate(0 0)"/>
</g>
</g>
</svg>