<?xml version="1.0" encoding="UTF-8" standalone="no"?>
<svg height="160" viewBox="0 0 128 160" width="128" xmlns="http://www.w3.org/2000/svg">
<defs>
<path d="M 281 0 L 219 0 L 117 -630 Q 118 -592 118.5 -554 Q 119 -516 120 -478 L 122 -404 Q 123 -340 124 -275.5 Q 125 -211 125 -147 L 125 0 L 51 0 L 51 -669 L 15 -669 L 15 -735 L 163 -735 L 250 -196 L 337 -735 L 449 -735 L 449 0 L 375 0 L 375 -147 Q 375 -211 376 -275.5 Q 377 -340 378 -404 L 380 -478 Q 381 -513 381.5 -548.5 Q 382 -584 383 -619 L 383 -630 Z " id="path1"/>
</defs>
<g>
<g data-source-text="M" fill="#20242e" transform="translate(40 104.99201) rotate(0) scale(0.09599999)">
<use href="#path1" transform="translate(0 0)"/>
</g>
</g>
</svg>