<?xml version="1.0" encoding="UTF-8" standalone="no"?>
<svg height="160" viewBox="0 0 128 160" width="128" xmlns="http://www.w3.org/2000/svg">
<defs>
<path d="M 64 0 L 64 -540 Q 64 -566 68 -592.5 Q 72 -619 83 -643 Q 94 -667 112 -687 Q 130 -707 153.5 -720 Q 177 -733 203 -738 Q 229 -743 256 -743 Q 302 -743 346.5 -728 Q 391 -713 428 -686 L 298 -424 Q 332 -415 362.5 -396 Q 393 -377 414 -348.5 Q 435 -320 443.5 -285.5 Q 452 -251 452 -216 Q 452 -186 446 -156 Q 440 -126 425 -99.5 Q 410 -73 386.5 -53 Q 363 -33 335.5 -21 Q 308 -9 277.5 -4.5 Q 247 -0 217 0 L 176 0 L 176 -70 L 217 -70 Q 238 -70 258 -73 Q 278 -76 296.5 -84.5 Q 315 -93 330.5 -106.5 Q 346 -120 356 -137.5 Q 366 -155 370 -175.5 Q 374 -196 374 -216 Q 374 -245 364.5 -273.5 Q 355 -302 334 -322.5 Q 313 -343 284.5 -352.5 Q 256 -362 226 -362 L 217 -362 L 217 -432 L 330 -659 Q 312 -666 293.5 -669.5 Q 275 -673 256 -673 Q 239 -673 222.5 -669 Q 206 -665 192.5 -656 Q 179 -647 168.5 -633.5 Q 158 -620 152 -605 Q 146 -590 144 -573.5 Q 142 -557 142 -540 L 142 0 Z " id="path1"/>
</defs>
<g>
<g data-source-text="ẞ" fill="#dee4e3" transform="translate(40 104.99201) rotate(0) scale(0.09599999)">
<use href="#path1" transform="translate(0 0)"/>
</g>
</g>
</svg>