<?xml version="1.0" encoding="UTF-8" standalone="no"?>
<svg height="160" viewBox="0 0 128 160" width="128" xmlns="http://www.w3.org/2000/svg">
<defs>
<path d="M 211 0 L 211 -195 Q 202 -204 193 -213 Q 184 -222 175 -231 Q 163 -203 152.5 -175 Q 142 -147 133 -118 Q 124 -89 117 -59.5 Q 110 -30 110 0 L 32 0 Q 32 -39 42 -76.5 Q 52 -114 65 -151 Q 78 -188 93 -223.5 Q 108 -259 124 -295 Q 107 -320 91 -346.5 Q 75 -373 62.5 -401 Q 50 -429 41 -459 Q 32 -489 32 -520 L 110 -520 Q 110 -489 120 -459 Q 130 -429 144 -401 Q 158 -373 175 -347 Q 192 -321 211 -297 L 211 -520 L 289 -520 L 289 -297 Q 308 -321 325 -347 Q 342 -373 356 -401 Q 370 -429 380 -459 Q 390 -489 390 -520 L 468 -520 Q 468 -489 459 -459 Q 450 -429 437.5 -401 Q 425 -373 409 -346.5 Q 393 -320 376 -295 Q 392 -259 407 -223.5 Q 422 -188 435 -151 Q 448 -114 458 -76.5 Q 468 -39 468 0 L 390 0 Q 390 -30 383 -59.5 Q 376 -89 367 -118 Q 358 -147 347.5 -175 Q 337 -203 325 -231 Q 316 -222 307 -213 Q 298 -204 289 -195 L 289 0 Z " id="path1"/>
</defs>
<g>
<g data-source-text="ж" fill="#20242e" transform="translate(40 104.99201) rotate(0) scale(0.09599999)">
<use href="#path1" transform="translate(0 0)"/>
</g>
</g>
</svg>