<svg xmlns="http://www.w3.org/2000/svg" height="160" viewBox="0 0 128 160" width="128"><defs><path d="M 80.00001 0 L 80.00001 -665 L 34 -665 L 34 -735 L 256 -735 C 274.00003 -735 292.1667 -733.1666 310.50003 -729.5 C 328.83334 -725.83325 346 -719.3334 362 -710.00006 C 378 -700.6667 392 -688.8333 404.00003 -674.5 C 416.00003 -660.1666 425.66666 -644.5 433.00003 -627.50006 C 440.33334 -610.5 445.33334 -592.8333 448 -574.5 C 450.6667 -556.1667 452 -538.00006 452.00003 -520.00006 C 452 -501.33334 450.6667 -482.8333 448 -464.5 C 445.33334 -446.1667 440.33334 -428.50003 433.00003 -411.50003 C 425.66666 -394.50003 416.00003 -378.83334 404.00003 -364.50003 C 392 -350.1667 378 -338.33334 362 -329 C 346 -319.66666 328.83334 -313.16666 310.50003 -309.5 C 292.1667 -305.83334 274.00003 -304 256 -304 L 215 -304 L 215 -374 L 256 -374 C 268 -374 279.66666 -375.49997 291.00003 -378.5 C 302.33334 -381.50003 312.83334 -386.3333 322.50003 -393.00003 C 332.1667 -399.66663 340.5 -408 347.50003 -418.00003 C 354.5 -428 360 -438.50003 364 -449.50003 C 368 -460.50003 370.6667 -471.99997 372.00003 -484.00003 C 373.33334 -496 374 -508 374 -520.00006 C 374 -531.3334 373.33334 -543 372.00003 -555 C 370.6667 -567 368 -578.5 364 -589.5 C 360 -600.49994 354.5 -611 347.50003 -621.00006 C 340.5 -631 332.1667 -639.3334 322.50003 -646 C 312.83334 -652.6667 302.33334 -657.5 291.00003 -660.5 C 279.66666 -663.5 268 -665 256 -665 L 158 -665 L 158 0 Z " id="path1"/></defs><g><g fill="#000000" transform="translate(40 105.20961) rotate(0)"><use href="#path1" transform="translate(0 0) scale(0.09599999)"/></g></g></svg>