<svg xmlns="http://www.w3.org/2000/svg" height="160" viewBox="0 0 128 160" width="128"><defs><path d="M 136 0 C 128.66666 -30 121.83333 -60.333332 115.50001 -91 C 109.166664 -121.66667 103 -152.16667 97.00001 -182.50002 C 91 -212.83333 85.33333 -243.33334 80.00001 -274.00003 C 74.66667 -304.6667 69.666664 -335.33334 65.00001 -366.00003 C 60.333332 -396.6667 56.33333 -427.50003 53 -458.5 C 49.666664 -489.49997 48 -520.3333 48 -551 L 48 -665 L 2 -665 L 2 -735 L 126 -735 L 126 -551 C 125.99999 -513 127.33333 -474.83334 130.00002 -436.5 C 132.66667 -398.16666 135.83333 -359.83334 139.5 -321.5 C 143.16667 -283.16666 147.16667 -244.83331 151.5 -206.5 C 155.83333 -168.16666 160.33334 -130 165 -92 L 223.00002 -441 L 277.00003 -441 L 335 -92 C 339.66666 -130 344.1667 -168.16666 348.50003 -206.5 C 352.83337 -244.83331 356.83334 -283.16666 360.50003 -321.5 C 364.16666 -359.83334 367.33334 -398.16666 370.00003 -436.5 C 372.6667 -474.83334 374 -513 374 -551 L 374 -735 L 452.00003 -735 L 452.00003 -551 C 452 -520.3333 450.33334 -489.49997 447 -458.5 C 443.66666 -427.50003 439.6667 -396.6667 435.00003 -366.00003 C 430.33334 -335.33334 425.33334 -304.6667 420 -274.00003 C 414.66666 -243.33334 409 -212.83333 403 -182.50002 C 397 -152.16667 390.83334 -121.66667 384.5 -91 C 378.16666 -60.333332 371.33334 -30 364 0 L 310 0 L 250 -360.00003 L 190 0 Z " id="path1"/></defs><g><g fill="#000000" transform="translate(40 105.20961) rotate(0)"><use href="#path1" transform="translate(0 0) scale(0.09599999)"/></g></g></svg>