<?xml version="1.0" encoding="UTF-8" standalone="no"?>
<svg xmlns="http://www.w3.org/2000/svg" height="160" viewBox="0 0 128 160" width="128"><defs><path d="M 253 8 Q 229 8 206 5.5 Q 183 3 161 -4.5 Q 139 -12 119 -24.5 Q 99 -37 84.5 -55 Q 70 -73 62 -95.5 Q 54 -118 54 -141 Q 54 -141 54 -141.5 Q 54 -142 54 -142 L 132 -142 Q 132 -142 132 -142 Q 132 -142 132 -142 Q 132 -122 144 -104.5 Q 156 -87 174 -77.5 Q 192 -68 212 -65 Q 232 -62 253 -62 Q 267 -62 281 -63.5 Q 295 -65 308 -68.5 Q 321 -72 333.5 -79 Q 346 -86 355.5 -96.5 Q 365 -107 369.5 -120.5 Q 374 -134 374 -147 Q 374 -162 369.5 -176 Q 365 -190 355.5 -200.5 Q 346 -211 333 -218 Q 320 -225 306.5 -229 Q 293 -233 278.5 -234 Q 264 -235 250 -235 L 194 -235 L 194 -305 L 250 -305 Q 262 -305 274.5 -306.5 Q 287 -308 299 -311.5 Q 311 -315 322.5 -321 Q 334 -327 342 -336.5 Q 350 -346 354 -358 Q 358 -370 358 -382 Q 358 -382 358 -382 Q 358 -382 358 -382 Q 358 -400 349 -416.5 Q 340 -433 324.5 -442 Q 309 -451 291.5 -454.5 Q 274 -458 256 -458 Q 226 -458 197 -451 Q 168 -444 141 -432 L 141 -340 L 64 -340 L 64 -474 Q 108 -499 157.5 -513.5 Q 207 -528 257 -528 Q 279 -528 300.5 -525 Q 322 -522 342 -514.5 Q 362 -507 380 -494.5 Q 398 -482 411 -465 Q 424 -448 430 -426.5 Q 436 -405 436 -384 Q 436 -366 431.5 -348 Q 427 -330 416.5 -315 Q 406 -300 391 -289.5 Q 376 -279 359 -272 Q 379 -264 397 -252.5 Q 415 -241 428 -224.5 Q 441 -208 446.5 -187.5 Q 452 -167 452 -146 Q 452 -122 445 -99 Q 438 -76 423.5 -57.5 Q 409 -39 389 -26 Q 369 -13 346.5 -5 Q 324 3 300 5.5 Q 276 8 253 8 Z " id="path1"/></defs><g><g data-source-text="ли" fill="#dee4e3" transform="translate(40 104.99201) rotate(0) scale(0.09599999)"><use href="#path1" transform="translate(0 0)"/></g></g></svg>