<?xml version="1.0" encoding="UTF-8" standalone="no"?>
<svg height="160" viewBox="0 0 128 160" width="128" xmlns="http://www.w3.org/2000/svg">
<defs>
<path d="M 18 0 L 18 -70 L 59 -70 L 190 -665 L 124 -665 L 124 -735 L 295 -735 L 402 -245 L 441 -70 L 482 -70 L 482 0 L 312 0 L 312 -70 L 362 -70 L 328 -235 L 172 -235 L 138 -70 L 188 -70 L 188 0 Z M 186 -305 L 314 -305 L 276 -490 Q 269 -522 262.5 -554 Q 256 -586 250 -618 Q 244 -586 237.5 -554 Q 231 -522 224 -490 Z " id="path1"/>
</defs>
<g>
<g data-source-text="A" fill="#dee4e3" transform="translate(40 104.99201) rotate(0) scale(0.09599999)">
<use href="#path1" transform="translate(0 0)"/>
</g>
</g>
</svg>