<?xml version="1.0" encoding="UTF-8" standalone="no"?>
<svg height="160" viewBox="0 0 128 160" width="128" xmlns="http://www.w3.org/2000/svg">
<defs>
<path d="M 15 0 L 15 -66 L 51 -66 L 51 -454 L 15 -454 L 15 -520 L 163 -520 L 250 -139 L 337 -520 L 485 -520 L 485 -454 L 449 -454 L 449 -66 L 485 -66 L 485 0 L 342 0 L 342 -66 L 375 -66 L 375 -104 Q 375 -188 378.5 -271.5 Q 382 -355 383 -438 L 383 -446 L 281 0 L 219 0 L 117 -446 Q 118 -360 121.5 -274.5 Q 125 -189 125 -104 L 125 -66 L 158 -66 L 158 0 Z " id="path1"/>
</defs>
<g>
<g data-source-text="м" fill="#dee4e3" transform="translate(40 104.99201) rotate(0) scale(0.09599999)">
<use href="#path1" transform="translate(0 0)"/>
</g>
</g>
</svg>