<svg xmlns="http://www.w3.org/2000/svg" height="160" viewBox="0 0 128 160" width="128"><defs><path d="M 18.000002 0 L 18.000002 -70.00001 L 64 -70.00001 L 64 -450.00003 L 18.000002 -450.00003 L 18.000002 -520.00006 L 188.00002 -520.00006 L 188.00002 -450.00003 L 142 -450.00003 L 142 -304 L 358 -304 L 358 -450.00003 L 312 -450.00003 L 312 -520.00006 L 482 -520.00006 L 482 -450.00003 L 436 -450.00003 L 436 -70.00001 L 482 -70.00001 L 482 0 L 312 0 L 312 -70.00001 L 358 -70.00001 L 358 -234.00002 L 142 -234.00002 L 142 -70.00001 L 188.00002 -70.00001 L 188.00002 0 Z " id="path1"/></defs><g><g fill="#000000" transform="translate(40 105.20961) rotate(0)"><use href="#path1" transform="translate(0 0) scale(0.09599999)"/></g></g></svg>