<?xml version="1.0" encoding="UTF-8" standalone="no"?>
<svg height="160" viewBox="0 0 128 160" width="128" xmlns="http://www.w3.org/2000/svg">
<defs>
<path d="M 481 0 L 250 0 Q 224 -0 198 -4.5 Q 172 -9 149 -21 Q 126 -33 107 -51.5 Q 88 -70 76.5 -93.5 Q 65 -117 60.5 -143 Q 56 -169 56 -195 L 56 -540 Q 56 -567 60.5 -593.5 Q 65 -620 76 -644 Q 87 -668 105.5 -688 Q 124 -708 147 -720.5 Q 170 -733 196.5 -738 Q 223 -743 250 -743 Q 277 -743 303.5 -738 Q 330 -733 353 -720.5 Q 376 -708 394.5 -688 Q 413 -668 424 -644 Q 435 -620 439.5 -593.5 Q 444 -567 444 -540 L 444 -195 Q 444 -175 439.5 -155.5 Q 435 -136 424 -119.5 Q 413 -103 397.5 -90.5 Q 382 -78 364 -70 L 481 -70 Z M 250 -70 Q 266 -70 282 -73 Q 298 -76 312 -84 Q 326 -92 337 -104.5 Q 348 -117 354.5 -132 Q 361 -147 363.5 -163 Q 366 -179 366 -195 L 366 -540 Q 366 -557 364 -573.5 Q 362 -590 355.5 -605.5 Q 349 -621 338.5 -634.5 Q 328 -648 314 -657 Q 300 -666 283.5 -669.5 Q 267 -673 250 -673 Q 233 -673 216.5 -669.5 Q 200 -666 186 -657 Q 172 -648 161.5 -634.5 Q 151 -621 144.5 -605.5 Q 138 -590 136 -573.5 Q 134 -557 134 -540 L 134 -195 Q 134 -179 136.5 -163 Q 139 -147 145.5 -132 Q 152 -117 163 -104.5 Q 174 -92 188 -84 Q 202 -76 218 -73 Q 234 -70 250 -70 Z " id="path1"/>
</defs>
<g>
<g data-source-text="Q" fill="#20242e" transform="translate(40 104.99201) rotate(0) scale(0.09599999)">
<use href="#path1" transform="translate(0 0)"/>
</g>
</g>
</svg>