<?xml version="1.0" encoding="UTF-8" standalone="no"?>
<svg height="160" viewBox="0 0 128 160" width="128" xmlns="http://www.w3.org/2000/svg">
<defs>
<path d="M 18 0 L 18 -70 L 64 -70 L 64 -665 L 18 -665 L 18 -735 L 222 -735 Q 251 -735 281 -730.5 Q 311 -726 338 -714 Q 365 -702 388 -681.5 Q 411 -661 425.5 -635 Q 440 -609 446 -579.5 Q 452 -550 452 -521 L 452 -215 Q 452 -185 446 -155.5 Q 440 -126 425.5 -100 Q 411 -74 388 -53.5 Q 365 -33 338 -21 Q 311 -9 281 -4.5 Q 251 -0 221 0 Z M 142 -70 L 221 -70 Q 241 -70 261 -73 Q 281 -76 299 -84.5 Q 317 -93 332 -106.5 Q 347 -120 357 -137.5 Q 367 -155 370.5 -175 Q 374 -195 374 -215 L 374 -521 Q 374 -540 370.5 -560 Q 367 -580 357 -597.5 Q 347 -615 332 -628.5 Q 317 -642 299 -650.5 Q 281 -659 261 -662 Q 241 -665 222 -665 L 142 -665 Z " id="path1"/>
</defs>
<g>
<g data-source-text="D" fill="#dee4e3" transform="translate(40 104.99201) rotate(0) scale(0.09599999)">
<use href="#path1" transform="translate(0 0)"/>
</g>
</g>
</svg>