<?xml version="1.0" encoding="UTF-8" standalone="no"?>
<svg height="160" viewBox="0 0 128 160" width="128" xmlns="http://www.w3.org/2000/svg">
<defs>
<path d="M 246 8 Q 220 8 193.5 3 Q 167 -2 144 -15 Q 121 -28 103.5 -48 Q 86 -68 75 -92 Q 64 -116 60 -142.5 Q 56 -169 56 -195 L 56 -540 Q 56 -565 59 -589.5 Q 62 -614 70.5 -637.5 Q 79 -661 93.5 -681.5 Q 108 -702 128 -716.5 Q 148 -731 172.5 -737 Q 197 -743 221 -743 Q 242 -743 262 -739.5 Q 282 -736 300.5 -727 Q 319 -718 333.5 -703.5 Q 348 -689 359 -672 L 359 -735 L 436 -735 L 436 -555 L 359 -555 Q 359 -578 352.5 -601 Q 346 -624 330.5 -641 Q 315 -658 292.5 -665.5 Q 270 -673 246 -673 Q 230 -673 213.5 -669 Q 197 -665 183.5 -656 Q 170 -647 160 -633.5 Q 150 -620 144 -604.5 Q 138 -589 136 -573 Q 134 -557 134 -540 L 134 -195 Q 134 -179 136 -162.5 Q 138 -146 144 -130.5 Q 150 -115 160 -101.5 Q 170 -88 183.5 -79 Q 197 -70 213.5 -66 Q 230 -62 246 -62 Q 262 -62 278.5 -66 Q 295 -70 308.5 -79 Q 322 -88 332 -101.5 Q 342 -115 348 -130.5 Q 354 -146 356 -162.5 Q 358 -179 358 -195 L 358 -400 L 436 -400 L 436 -195 Q 436 -169 432 -142.5 Q 428 -116 417 -92 Q 406 -68 388.5 -48 Q 371 -28 348 -15 Q 325 -2 298.5 3 Q 272 8 246 8 Z " id="path1"/>
</defs>
<g>
<g data-source-text="G" fill="#dee4e3" transform="translate(40 104.99201) rotate(0) scale(0.09599999)">
<use href="#path1" transform="translate(0 0)"/>
</g>
</g>
</svg>