<?xml version="1.0" encoding="UTF-8" standalone="no"?>
<svg height="160" viewBox="0 0 128 160" width="128" xmlns="http://www.w3.org/2000/svg">
<defs>
<path d="M 244 8 Q 196 8 149.5 -7 Q 103 -22 64 -49 L 64 -180 L 133 -180 L 133 -91 Q 159 -77 187 -69.5 Q 215 -62 244 -62 Q 261 -62 278 -65.5 Q 295 -69 310 -77.5 Q 325 -86 336.5 -99.5 Q 348 -113 354.5 -128.5 Q 361 -144 363.5 -161 Q 366 -178 366 -195 L 366 -225 L 194 -225 L 194 -295 L 366 -295 L 366 -325 Q 366 -342 363.5 -359 Q 361 -376 354.5 -391.5 Q 348 -407 336.5 -420.5 Q 325 -434 310 -442.5 Q 295 -451 278 -454.5 Q 261 -458 244 -458 Q 215 -458 187 -450.5 Q 159 -443 133 -429 L 133 -340 L 64 -340 L 64 -471 Q 103 -498 149.5 -513 Q 196 -528 244 -528 Q 271 -528 298 -523 Q 325 -518 349 -506 Q 373 -494 392 -474 Q 411 -454 423 -430 Q 435 -406 439.5 -379 Q 444 -352 444 -325 L 444 -195 Q 444 -168 439.5 -141 Q 435 -114 423 -90 Q 411 -66 392 -46 Q 373 -26 349 -14 Q 325 -2 298 3 Q 271 8 244 8 Z " id="path1"/>
</defs>
<g>
<g data-source-text="Ñ" fill="#20242e" transform="translate(40 104.99201) rotate(0) scale(0.09599999)">
<use href="#path1" transform="translate(0 0)"/>
</g>
</g>
</svg>