<?xml version="1.0" encoding="UTF-8" standalone="no"?>
<svg height="160" viewBox="0 0 128 160" width="128" xmlns="http://www.w3.org/2000/svg">
<defs>
<path d="M 51 0 L 51 -665 L 16 -665 L 16 -735 L 126 -735 L 126 -588 Q 126 -469 125 -350 Q 124 -231 123 -112 L 219 -404 L 219 -735 L 281 -735 L 281 -404 L 377 -112 Q 376 -231 375 -350 Q 374 -469 374 -588 L 374 -735 L 484 -735 L 484 -665 L 449 -665 L 449 0 L 350 0 L 250 -307 L 150 0 Z " id="path1"/>
</defs>
<g>
<g data-source-text="W" fill="#20242e" transform="translate(40 104.99201) rotate(0) scale(0.09599999)">
<use href="#path1" transform="translate(0 0)"/>
</g>
</g>
</svg>