<?xml version="1.0" encoding="UTF-8" standalone="no"?>
<svg height="160" viewBox="0 0 128 160" width="128" xmlns="http://www.w3.org/2000/svg">
<defs>
<path d="M 64 0 L 64 -46 Q 64 -102 81 -156 Q 98 -210 129 -256 L 218 -387 L 306 -518 Q 328 -551 341 -588.5 Q 354 -626 357 -665 L 141 -665 L 141 -590 L 64 -590 L 64 -735 L 436 -735 L 436 -689 Q 436 -633 419 -579 Q 402 -525 371 -479 L 194 -217 Q 172 -184 159 -146.5 Q 146 -109 143 -70 L 359 -70 L 359 -145 L 436 -145 L 436 0 Z " id="path1"/>
</defs>
<g>
<g data-source-text="Z" fill="#dee4e3" transform="translate(40 104.99201) rotate(0) scale(0.09599999)">
<use href="#path1" transform="translate(0 0)"/>
</g>
</g>
</svg>