<?xml version="1.0" encoding="UTF-8" standalone="no"?>
<svg height="160" viewBox="0 0 128 160" width="128" xmlns="http://www.w3.org/2000/svg">
<defs>
<path d="M 250 8 Q 201 8 153.5 -6 Q 106 -20 64 -46 L 64 -188 L 141 -188 L 141 -85 Q 167 -74 194.5 -68 Q 222 -62 250 -62 Q 268 -62 286 -66 Q 304 -70 319 -80 Q 334 -90 345 -105 Q 356 -120 362.5 -136.5 Q 369 -153 371.5 -171 Q 374 -189 374 -208 Q 374 -225 371.5 -243 Q 369 -261 362.5 -277 Q 356 -293 344.5 -307 Q 333 -321 318 -330.5 Q 303 -340 285.5 -343.5 Q 268 -347 250 -347 L 194 -347 L 194 -417 L 250 -417 Q 274 -417 296 -426 Q 318 -435 332.5 -453.5 Q 347 -472 352.5 -495.5 Q 358 -519 358 -542 Q 358 -566 353 -590 Q 348 -614 333.5 -633.5 Q 319 -653 296.5 -663 Q 274 -673 250 -673 Q 222 -673 194.5 -667 Q 167 -661 141 -650 L 141 -555 L 64 -555 L 64 -689 Q 106 -715 153.5 -729 Q 201 -743 250 -743 Q 276 -743 301.5 -738 Q 327 -733 349.5 -720 Q 372 -707 389 -687.5 Q 406 -668 417 -644.5 Q 428 -621 432 -595 Q 436 -569 436 -544 Q 436 -519 432 -495 Q 428 -471 416.5 -449 Q 405 -427 386.5 -410.5 Q 368 -394 346 -383 Q 372 -373 393 -354.5 Q 414 -336 428 -312.5 Q 442 -289 447 -261.5 Q 452 -234 452 -206 Q 452 -178 447.5 -150.5 Q 443 -123 431.5 -97.5 Q 420 -72 401 -51 Q 382 -30 357.5 -16.5 Q 333 -3 305.5 2.5 Q 278 8 250 8 Z " id="path1"/>
</defs>
<g>
<g data-source-text="З" fill="#20242e" transform="translate(40 104.99201) rotate(0) scale(0.09599999)">
<use href="#path1" transform="translate(0 0)"/>
</g>
</g>
</svg>