<?xml version="1.0" encoding="UTF-8" standalone="no"?>
<svg height="160" viewBox="0 0 128 160" width="128" xmlns="http://www.w3.org/2000/svg">
<defs>
<path d="M 220 8 Q 195 8 171.5 1.5 Q 148 -5 129 -20 Q 110 -35 97 -56 Q 84 -77 76.5 -100 Q 69 -123 66.5 -147 Q 64 -171 64 -195 L 64 -735 L 142 -735 L 142 -195 Q 142 -179 144 -162.5 Q 146 -146 151.5 -131 Q 157 -116 166 -102.5 Q 175 -89 188.5 -79.5 Q 202 -70 218 -66 Q 234 -62 250 -62 Q 266 -62 282 -66 Q 298 -70 311.5 -79.5 Q 325 -89 334 -102.5 Q 343 -116 348.5 -131 Q 354 -146 356 -162.5 Q 358 -179 358 -195 L 358 -735 L 436 -735 L 436 0 L 358 0 L 358 -89 Q 350 -68 337 -49 Q 324 -30 305.5 -17 Q 287 -4 264.5 2 Q 242 8 220 8 Z " id="path1"/>
</defs>
<g>
<g data-source-text="U" fill="#20242e" transform="translate(40 104.99201) rotate(0) scale(0.09599999)">
<use href="#path1" transform="translate(0 0)"/>
</g>
</g>
</svg>