<?xml version="1.0" encoding="UTF-8" standalone="no"?>
<svg height="160" viewBox="0 0 128 160" width="128" xmlns="http://www.w3.org/2000/svg">
<defs>
<path d="M 142 0 L 64 0 L 64 -665 L 18 -665 L 18 -735 L 256 -735 Q 283 -735 309.5 -729 Q 336 -723 359 -708.5 Q 382 -694 399 -672.5 Q 416 -651 426.5 -626 Q 437 -601 440.5 -574 Q 444 -547 444 -520 Q 444 -491 439.5 -462.5 Q 435 -434 423.5 -407.5 Q 412 -381 393 -359 Q 374 -337 348 -324 Q 368 -315 383.5 -299 Q 399 -283 408.5 -263.5 Q 418 -244 421.5 -222 Q 425 -200 425 -179 L 425 -70 L 480 -70 L 480 0 L 348 0 L 348 -179 Q 348 -192 347 -205.5 Q 346 -219 343 -232.5 Q 340 -246 334.5 -258.5 Q 329 -271 320.5 -281.5 Q 312 -292 299.5 -298 Q 287 -304 273 -304 L 199 -304 L 199 -374 L 256 -374 Q 273 -374 290 -379 Q 307 -384 320.5 -394.5 Q 334 -405 343 -420 Q 352 -435 357 -451.5 Q 362 -468 364 -485 Q 366 -502 366 -520 Q 366 -537 364 -554 Q 362 -571 357 -587.5 Q 352 -604 343 -619 Q 334 -634 320.5 -644.5 Q 307 -655 290 -660 Q 273 -665 256 -665 L 142 -665 Z " id="path1"/>
</defs>
<g>
<g data-source-text="R" fill="#20242e" transform="translate(40 104.99201) rotate(0) scale(0.09599999)">
<use href="#path1" transform="translate(0 0)"/>
</g>
</g>
</svg>