<?xml version="1.0" encoding="UTF-8" standalone="no"?>
<svg height="160" viewBox="0 0 128 160" width="128" xmlns="http://www.w3.org/2000/svg">
<defs>
<path d="M 211 0 L 211 -286 L 127 -449 Q 101 -500 84.5 -554.5 Q 68 -609 65 -665 L 18 -665 L 18 -735 L 142 -735 L 142 -691 Q 142 -636 156.5 -583 Q 171 -530 196 -481 L 250 -377 L 304 -481 Q 329 -530 343.5 -583 Q 358 -636 358 -691 L 358 -735 L 436 -735 L 436 -691 Q 436 -628 419 -566.5 Q 402 -505 373 -449 L 289 -286 L 289 0 Z " id="path1"/>
</defs>
<g>
<g data-source-text="Y" fill="#dee4e3" transform="translate(40 104.99201) rotate(0) scale(0.09599999)">
<use href="#path1" transform="translate(0 0)"/>
</g>
</g>
</svg>