<?xml version="1.0" encoding="UTF-8" standalone="no"?>
<svg height="160" viewBox="0 0 128 160" width="128" xmlns="http://www.w3.org/2000/svg">
<defs>
<path d="M 253 8 Q 228 8 203.5 4 Q 179 0 156.5 -11 Q 134 -22 115.5 -39.5 Q 97 -57 85 -78.5 Q 73 -100 67.5 -124.5 Q 62 -149 62 -174 L 62 -180 L 140 -180 L 140 -176 Q 140 -153 147 -131 Q 154 -109 170 -92.5 Q 186 -76 208 -69 Q 230 -62 253 -62 Q 278 -62 301.5 -72 Q 325 -82 340 -101.5 Q 355 -121 360.5 -145.5 Q 366 -170 366 -195 L 366 -225 L 194 -225 L 194 -295 L 366 -295 L 366 -325 Q 366 -342 364 -358.5 Q 362 -375 355.5 -390.5 Q 349 -406 338.5 -419.5 Q 328 -433 314 -442 Q 300 -451 283 -454.5 Q 266 -458 250 -458 Q 226 -458 203 -451 Q 180 -444 163.5 -427 Q 147 -410 140 -387 Q 133 -364 133 -340 L 64 -340 L 64 -520 L 133 -520 L 133 -451 Q 144 -469 159 -484.5 Q 174 -500 193 -510 Q 212 -520 233.5 -524 Q 255 -528 276 -528 Q 301 -528 325.5 -522 Q 350 -516 370.5 -501.5 Q 391 -487 406 -466.5 Q 421 -446 429.5 -422.5 Q 438 -399 441 -374.5 Q 444 -350 444 -325 L 444 -195 Q 444 -169 440 -142.5 Q 436 -116 425 -92 Q 414 -68 396 -48 Q 378 -28 355 -15 Q 332 -2 305.5 3 Q 279 8 253 8 Z " id="path1"/>
</defs>
<g>
<g data-source-text="Ñ" fill="#20242e" transform="translate(40 104.99201) rotate(0) scale(0.09599999)">
<use href="#path1" transform="translate(0 0)"/>
</g>
</g>
</svg>