<?xml version="1.0" encoding="UTF-8" standalone="no"?>
<svg height="160" viewBox="0 0 128 160" width="128" xmlns="http://www.w3.org/2000/svg">
<defs>
<path d="M 255 8 Q 228 8 200.5 3 Q 173 -2 149 -15 Q 125 -28 106.5 -48.5 Q 88 -69 76.5 -94 Q 65 -119 60.5 -146 Q 56 -173 56 -200 L 56 -320 Q 56 -347 60 -373.5 Q 64 -400 75 -424.5 Q 86 -449 103.5 -469.5 Q 121 -490 144 -503.5 Q 167 -517 193.5 -522.5 Q 220 -528 247 -528 Q 270 -528 292.5 -525.5 Q 315 -523 336 -516 Q 357 -509 376.5 -496.5 Q 396 -484 409.5 -466.5 Q 423 -449 429.5 -427 Q 436 -405 436 -383 Q 436 -364 431.5 -346 Q 427 -328 416.5 -313.5 Q 406 -299 391 -288 Q 376 -277 359 -270 Q 379 -263 396.5 -251.5 Q 414 -240 427.5 -223.5 Q 441 -207 446.5 -186.5 Q 452 -166 452 -146 Q 452 -122 445.5 -99 Q 439 -76 424.5 -57.5 Q 410 -39 390 -26 Q 370 -13 347.5 -5 Q 325 3 301.5 5.5 Q 278 8 255 8 Z M 255 -62 Q 269 -62 282.5 -63.5 Q 296 -65 309.5 -68.5 Q 323 -72 335 -79 Q 347 -86 356.5 -96.5 Q 366 -107 370 -120 Q 374 -133 374 -147 Q 374 -161 369.5 -175 Q 365 -189 355 -199.5 Q 345 -210 332.5 -216.5 Q 320 -223 306.5 -227 Q 293 -231 278.5 -232.5 Q 264 -234 250 -234 L 194 -234 L 194 -304 L 250 -304 Q 269 -304 287.5 -307 Q 306 -310 322.5 -319.5 Q 339 -329 348.5 -345.5 Q 358 -362 358 -381 Q 358 -394 354 -406 Q 350 -418 341 -427.5 Q 332 -437 321 -443 Q 310 -449 297.5 -452.5 Q 285 -456 272.5 -457 Q 260 -458 247 -458 Q 230 -458 213.5 -454 Q 197 -450 183 -440 Q 169 -430 159.5 -416 Q 150 -402 144 -386.5 Q 138 -371 136 -354 Q 134 -337 134 -320 L 134 -200 Q 134 -183 136.5 -165.5 Q 139 -148 145.5 -132 Q 152 -116 163 -102 Q 174 -88 188.5 -79 Q 203 -70 220.5 -66 Q 238 -62 255 -62 Z " id="path1"/>
</defs>
<g>
<g data-source-text="в" fill="#20242e" transform="translate(40 104.99201) rotate(0) scale(0.09599999)">
<use href="#path1" transform="translate(0 0)"/>
</g>
</g>
</svg>