<?xml version="1.0" encoding="UTF-8" standalone="no"?>
<svg height="160" viewBox="0 0 128 160" width="128" xmlns="http://www.w3.org/2000/svg">
<defs>
<path d="M 105 0 L 105 -70 L 172 -70 L 172 -74 Q 172 -121 180 -168 Q 188 -215 208 -258 L 94 -504 Q 77 -541 70.5 -581 Q 64 -621 64 -662 L 64 -665 L 18 -665 L 18 -735 L 188 -735 L 188 -665 L 142 -665 L 142 -662 Q 142 -629 146.5 -596 Q 151 -563 165 -533 L 248 -344 L 336 -533 Q 350 -563 354 -596 Q 358 -629 358 -662 L 358 -665 L 312 -665 L 312 -735 L 482 -735 L 482 -665 L 436 -665 L 436 -662 Q 436 -621 429.5 -581 Q 423 -541 406 -504 L 280 -231 Q 263 -194 256.5 -154 Q 250 -114 250 -74 L 250 0 Z " id="path1"/>
</defs>
<g>
<g data-source-text="У" fill="#dee4e3" transform="translate(40 104.99201) rotate(0) scale(0.09599999)">
<use href="#path1" transform="translate(0 0)"/>
</g>
</g>
</svg>