<?xml version="1.0" encoding="UTF-8" standalone="no"?>
<svg height="160" viewBox="0 0 128 160" width="128" xmlns="http://www.w3.org/2000/svg">
<defs>
<path d="M 210 215 L 18 215 L 18 145 L 64 145 L 64 -320 Q 64 -347 68 -373.5 Q 72 -400 82.5 -424.5 Q 93 -449 110.5 -469.5 Q 128 -490 151 -503.5 Q 174 -517 200.5 -522.5 Q 227 -528 254 -528 Q 281 -528 307.5 -522.5 Q 334 -517 357 -503.5 Q 380 -490 397.5 -469.5 Q 415 -449 425.5 -424.5 Q 436 -400 440 -373.5 Q 444 -347 444 -320 L 444 -200 Q 444 -175 441 -150.5 Q 438 -126 430.5 -102.5 Q 423 -79 409.5 -57.5 Q 396 -36 377 -21 Q 358 -6 333.5 1 Q 309 8 284 8 Q 261 8 238 2 Q 215 -4 196 -18 Q 177 -32 163.5 -51 Q 150 -70 142 -92 L 142 145 L 210 145 Z M 254 -62 Q 271 -62 287.5 -66 Q 304 -70 317.5 -80 Q 331 -90 341 -104 Q 351 -118 356.5 -134 Q 362 -150 364 -166.5 Q 366 -183 366 -200 L 366 -320 Q 366 -337 364 -353.5 Q 362 -370 356.5 -386 Q 351 -402 341 -416 Q 331 -430 317.5 -440 Q 304 -450 287.5 -454 Q 271 -458 254 -458 Q 237 -458 220.5 -454 Q 204 -450 190.5 -440 Q 177 -430 167 -416 Q 157 -402 151.5 -386 Q 146 -370 144 -353.5 Q 142 -337 142 -320 L 142 -200 Q 142 -183 144 -166.5 Q 146 -150 151.5 -134 Q 157 -118 167 -104 Q 177 -90 190.5 -80 Q 204 -70 220.5 -66 Q 237 -62 254 -62 Z " id="path1"/>
</defs>
<g>
<g data-source-text="р" fill="#dee4e3" transform="translate(40 104.99201) rotate(0) scale(0.09599999)">
<use href="#path1" transform="translate(0 0)"/>
</g>
</g>
</svg>