<svg xmlns="http://www.w3.org/2000/svg" height="160" viewBox="0 0 128 160" width="128"><defs><path d="M 64 0 L 64 -735 L 142 -735 L 142 -387 Q 155 -402 168 -418 Q 181 -434 194 -450 Q 207 -466 219 -482.5 Q 231 -499 243 -516 Q 255 -533 266.5 -550 Q 278 -567 289 -584.5 Q 300 -602 310 -620 Q 320 -638 328.5 -656.5 Q 337 -675 344 -694.5 Q 351 -714 351 -735 L 436 -735 Q 436 -712 428.5 -690.5 Q 421 -669 411.5 -648.5 Q 402 -628 391 -608.5 Q 380 -589 368.5 -569.5 Q 357 -550 344.5 -531 Q 332 -512 319 -494 Q 306 -476 292.5 -457.5 Q 279 -439 265 -421 Q 279 -397 293.5 -371.5 Q 308 -346 321.5 -321 Q 335 -296 348.5 -270 Q 362 -244 374.5 -218 Q 387 -192 398.5 -165.5 Q 410 -139 419.5 -112 Q 429 -85 436.5 -57 Q 444 -29 444 0 L 366 0 Q 366 -25 360 -49 Q 354 -73 346 -96 Q 338 -119 328.5 -141.5 Q 319 -164 308.5 -186.5 Q 298 -209 286.5 -231 Q 275 -253 263.5 -274.5 Q 252 -296 240 -317.5 Q 228 -339 216 -360 Q 198 -339 179.5 -317.5 Q 161 -296 142 -276 L 142 0 Z " id="path1"/></defs><g><g fill="#20242e" transform="translate(40 105.20961) rotate(0)"><use href="#path1" transform="translate(0 0) scale(0.09599999)"/></g></g></svg>