<?xml version="1.0" encoding="UTF-8" standalone="no"?>
<svg height="160" viewBox="0 0 128 160" width="128" xmlns="http://www.w3.org/2000/svg">
<defs>
<path d="M 247 8 Q 221 8 195.5 2.5 Q 170 -3 148 -16.5 Q 126 -30 109 -50 Q 92 -70 82 -94 Q 72 -118 68 -143.5 Q 64 -169 64 -195 L 64 -665 L 18 -665 L 18 -735 L 142 -735 L 142 -195 Q 142 -171 147 -147 Q 152 -123 165.5 -103 Q 179 -83 202 -72.5 Q 225 -62 249 -62 Q 277 -62 304.5 -70 Q 332 -78 358 -89 L 358 -735 L 482 -735 L 482 -665 L 436 -665 L 436 -46 Q 392 -22 344 -7 Q 296 8 247 8 Z " id="path1"/>
</defs>
<g>
<g data-source-text="U" fill="#dee4e3" transform="translate(40 104.99201) rotate(0) scale(0.09599999)">
<use href="#path1" transform="translate(0 0)"/>
</g>
</g>
</svg>