<?xml version="1.0" encoding="UTF-8" standalone="no"?>
<svg height="160" viewBox="0 0 128 160" width="128" xmlns="http://www.w3.org/2000/svg">
<defs>
<path d="M 80 215 L 80 145 L 197 145 Q 213 145 229 139.5 Q 245 134 255.5 121.5 Q 266 109 270 93 Q 274 77 274 60 L 274 -665 L 138 -665 L 138 -735 L 352 -735 L 352 60 Q 352 81 348.5 101.5 Q 345 122 335.5 141 Q 326 160 311.5 175 Q 297 190 278 199 Q 259 208 238.5 211.5 Q 218 215 197 215 Z " id="path1"/>
</defs>
<g>
<g data-source-text="J" fill="#20242e" transform="translate(40 104.99201) rotate(0) scale(0.09599999)">
<use href="#path1" transform="translate(0 0)"/>
</g>
</g>
</svg>