<svg xmlns="http://www.w3.org/2000/svg" height="160" viewBox="0 0 128 160" width="128"><defs><path d="M 250 8 Q 223 8 196.5 3 Q 170 -2 147 -14.5 Q 124 -27 105.5 -47 Q 87 -67 76 -91.5 Q 65 -116 60.5 -142 Q 56 -168 56 -195 L 56 -540 Q 56 -567 60.5 -593.5 Q 65 -620 76 -644 Q 87 -668 105.5 -688 Q 124 -708 147.5 -720.5 Q 171 -733 197 -739.5 Q 223 -746 250 -746 Q 277 -746 303 -739.5 Q 329 -733 352.5 -720.5 Q 376 -708 394.5 -688 Q 413 -668 424 -644 Q 435 -620 439.5 -593.5 Q 444 -567 444 -540 L 444 -195 Q 444 -168 439.5 -142 Q 435 -116 424 -91.5 Q 413 -67 394.5 -47 Q 376 -27 353 -14.5 Q 330 -2 303.5 3 Q 277 8 250 8 Z M 250 -62 Q 267 -62 283.5 -65.5 Q 300 -69 314 -78 Q 328 -87 338.5 -100.5 Q 349 -114 355.5 -129.5 Q 362 -145 364 -161.5 Q 366 -178 366 -195 L 366 -540 Q 366 -557 364 -573.5 Q 362 -590 355.5 -606 Q 349 -622 338.5 -635.5 Q 328 -649 313.5 -657.5 Q 299 -666 282 -669.5 Q 265 -673 248 -673 Q 232 -673 215.5 -669 Q 199 -665 185 -656 Q 171 -647 161 -633.5 Q 151 -620 144.5 -605 Q 138 -590 136 -573.5 Q 134 -557 134 -540 L 134 -195 Q 134 -178 136 -161.5 Q 138 -145 144.5 -129.5 Q 151 -114 161.5 -100.5 Q 172 -87 186 -78 Q 200 -69 216.5 -65.5 Q 233 -62 250 -62 Z M 484 196 L 250 115 L 250 45 L 484 126 Z " id="path1"/></defs><g><g fill="#20242e" transform="translate(40 105.20961) rotate(0)"><use href="#path1" transform="translate(0 0) scale(0.09599999)"/></g></g></svg>