<svg xmlns="http://www.w3.org/2000/svg" height="160" viewBox="0 0 128 160" width="128"><defs><path d="M 18.000002 0 L 18.000002 -70.00001 L 59.000004 -70.00001 L 205.00002 -735 L 295 -735 L 349.00003 -490.00003 L 441 -70.00001 L 482 -70.00001 L 482 0 L 312 0 L 312 -70.00001 L 362 -70.00001 L 328.00003 -235 L 172.00002 -235 L 138 -70.00001 L 188.00002 -70.00001 L 188.00002 0 Z M 186.00002 -305.00003 L 314.00003 -305.00003 L 276 -490.00003 C 271.3333 -511.3333 266.8333 -532.6667 262.50003 -554.00006 C 258.1667 -575.3333 254 -596.6667 250 -618 C 246 -596.6667 241.83334 -575.3333 237.50002 -554.00006 C 233.16666 -532.6667 228.66667 -511.3333 224 -490.00003 Z " id="path1"/></defs><g><g fill="#000000" transform="translate(40 105.20961) rotate(0)"><use href="#path1" transform="translate(0 0) scale(0.09599999)"/></g></g></svg>