<?xml version="1.0" encoding="UTF-8" standalone="no"?>
<svg height="160" viewBox="0 0 128 160" width="128" xmlns="http://www.w3.org/2000/svg">
<defs>
<path d="M 211 0 L 211 -102 Q 188 -105 165.5 -113.5 Q 143 -122 124.5 -137 Q 106 -152 92.5 -172 Q 79 -192 70.5 -214 Q 62 -236 59 -260 Q 56 -284 56 -308 L 56 -428 Q 56 -451 59 -475 Q 62 -499 70.5 -521 Q 79 -543 92.5 -563 Q 106 -583 124.5 -598 Q 143 -613 165.5 -621.5 Q 188 -630 211 -633 L 211 -735 L 289 -735 L 289 -633 Q 321 -628 350 -612.5 Q 379 -597 399 -572 Q 419 -547 428.5 -516 Q 438 -485 438 -453 L 438 -448 L 360 -448 L 360 -451 Q 360 -469 355.5 -487.5 Q 351 -506 340.5 -521.5 Q 330 -537 314 -547.5 Q 298 -558 280 -562 L 280 -173 Q 298 -177 314 -187.5 Q 330 -198 340.5 -213.5 Q 351 -229 355.5 -247.5 Q 360 -266 360 -284 L 360 -288 L 438 -288 L 438 -282 Q 438 -250 428.5 -219 Q 419 -188 399 -163 Q 379 -138 350 -122.5 Q 321 -107 289 -102 L 289 0 Z M 220 -172 L 220 -563 Q 198 -559 180 -545 Q 162 -531 151.5 -512 Q 141 -493 137.5 -471 Q 134 -449 134 -428 L 134 -308 Q 134 -286 137.5 -264 Q 141 -242 151.5 -223 Q 162 -204 180 -190 Q 198 -176 220 -172 Z " id="path1"/>
</defs>
<g>
<g data-source-text="¢" fill="#dee4e3" transform="translate(40 104.99201) rotate(0) scale(0.09599999)">
<use href="#path1" transform="translate(0 0)"/>
</g>
</g>
</svg>