<?xml version="1.0" encoding="UTF-8" standalone="no"?>
<svg height="160" viewBox="0 0 128 160" width="128" xmlns="http://www.w3.org/2000/svg">
<defs>
<path d="M 249 8 Q 224 8 199.5 4 Q 175 -0 152 -10 Q 129 -20 110.5 -36.5 Q 92 -53 79 -74.5 Q 66 -96 60 -120.5 Q 54 -145 54 -170 L 54 -174 L 132 -174 L 132 -171 Q 132 -148 140 -126.5 Q 148 -105 165 -90 Q 182 -75 204 -68.5 Q 226 -62 249 -62 Q 272 -62 295 -69 Q 318 -76 334.5 -92.5 Q 351 -109 359 -131.5 Q 367 -154 367 -178 Q 367 -204 356.5 -228 Q 346 -252 328 -270.5 Q 310 -289 288 -302.5 Q 266 -316 243 -328 Q 220 -340 198 -353 Q 176 -366 156 -382.5 Q 136 -399 119 -418 Q 102 -437 89.5 -460 Q 77 -483 70.5 -508 Q 64 -533 64 -559 Q 64 -583 69.5 -607.5 Q 75 -632 86.5 -654 Q 98 -676 115.5 -693.5 Q 133 -711 154.5 -722.5 Q 176 -734 200.5 -738.5 Q 225 -743 250 -743 Q 299 -743 346.5 -729 Q 394 -715 436 -689 L 436 -555 L 359 -555 L 359 -650 Q 333 -661 305.5 -667 Q 278 -673 250 -673 Q 228 -673 206.5 -665.5 Q 185 -658 170 -641 Q 155 -624 148 -602.5 Q 141 -581 141 -559 Q 141 -533 151.5 -509 Q 162 -485 179.5 -466 Q 197 -447 219 -433.5 Q 241 -420 264 -408 Q 287 -396 309 -382.5 Q 331 -369 351 -353 Q 371 -337 388.5 -318 Q 406 -299 418.5 -276.5 Q 431 -254 437.5 -228.5 Q 444 -203 444 -178 Q 444 -152 438 -127 Q 432 -102 420 -80 Q 408 -58 389 -40.5 Q 370 -23 347.5 -11.5 Q 325 -0 299.5 4 Q 274 8 249 8 Z " id="path1"/>
</defs>
<g>
<g data-source-text="S" fill="#dee4e3" transform="translate(40 104.99201) rotate(0) scale(0.09599999)">
<use href="#path1" transform="translate(0 0)"/>
</g>
</g>
</svg>