<svg xmlns="http://www.w3.org/2000/svg" height="160" viewBox="0 0 128 160" width="128"><defs><path d="M 219.00002 8 C 202.33334 8 186 5.833333 170 1.5 C 153.99998 -2.8333333 139.33333 -9.833334 126 -19.5 C 112.66667 -29.166668 101.333336 -40.833332 92 -54.5 C 82.666664 -68.166664 75.333336 -82.666664 70.00001 -98 C 64.66667 -113.33333 61 -129.16667 59.000004 -145.50002 C 56.999996 -161.83333 55.999996 -178.33333 56 -195 L 56 -540 C 55.999996 -557.3333 57.333332 -574.8333 60.000004 -592.5 C 62.666668 -610.1666 67.666664 -627 75.00001 -643 C 82.333336 -659 92.00001 -673.6667 104.00001 -687.00006 C 116 -700.3333 129.66667 -711.3333 145 -720.00006 C 160.33334 -728.6666 176.83334 -734.6667 194.50002 -738 C 212.16667 -741.3334 229.66667 -743.00006 247 -743.00006 C 263.6667 -743.00006 280.1667 -741.6667 296.50003 -739 C 312.83334 -736.3333 328.5 -731.33325 343.50003 -724 C 358.5 -716.6666 372.1667 -707.3334 384.5 -696.00006 C 396.8333 -684.6666 406.83334 -671.6666 414.5 -657.00006 C 422.1667 -642.3333 428 -627 432 -611.00006 C 436 -595 437.99997 -578.6667 438.00003 -562 C 437.99997 -561.3333 437.99997 -560.8333 438.00003 -560.5 C 437.99997 -560.1667 437.99997 -559.6667 438.00003 -559.00006 L 360.00003 -559.00006 C 360 -559 360 -559.1667 360.00003 -559.50006 C 360 -559.8334 360 -560.3334 360.00003 -561 C 360 -575.6667 357.5 -590.3334 352.5 -605.00006 C 347.50003 -619.6667 339.83334 -632.3333 329.5 -643 C 319.16666 -653.6667 306.66666 -661.3333 292 -666 C 277.3333 -670.6667 262.3333 -673.00006 247 -673.00006 C 230.33333 -673.00006 214.16667 -669.8334 198.5 -663.5 C 182.83331 -657.1667 170 -647.3334 160.00002 -634.00006 C 150 -620.6667 143.16667 -605.8333 139.5 -589.5 C 135.83333 -573.1667 134 -556.6667 134 -540 L 134 -195 C 134 -183.66667 134.66667 -172.5 136 -161.5 C 137.33334 -150.5 140.16667 -139.83333 144.5 -129.5 C 148.83334 -119.166664 154.33334 -109.66667 161.00002 -101.00001 C 167.66667 -92.33333 175.83333 -85 185.50002 -79 C 195.16667 -73.00001 205.33334 -68.66667 216 -66 C 226.66666 -63.333336 237.66666 -62.000004 249 -62.000004 C 259.66666 -62.000004 270.5 -63.333336 281.5 -66 C 292.5 -68.66667 302.3333 -73.16667 311.00003 -79.5 C 319.6667 -85.833336 327.16666 -93.5 333.5 -102.50001 C 339.83334 -111.5 344.83334 -120.99999 348.50003 -131 C 352.16666 -141 354.6667 -151.49998 356 -162.50002 C 357.33334 -173.5 358 -184.33333 358 -195 L 358 -330 L 250 -330 L 250 -400.00003 L 476 -400.00003 L 476 -330 L 436 -330 L 436 0 L 367 0 L 367 -115 C 362.3333 -98.33333 355.83334 -82.166664 347.50003 -66.5 C 339.16666 -50.833336 328.5 -37.166668 315.5 -25.5 C 302.5 -13.833333 287.5 -5.333333 270.5 0 C 253.5 5.333333 236.33334 8 219.00002 8 Z " id="path1"/></defs><g><g fill="#000000" transform="translate(40 105.20961) rotate(0)"><use href="#path1" transform="translate(0 0) scale(0.09599999)"/></g></g></svg>