<?xml version="1.0" encoding="UTF-8" standalone="no"?>
<svg height="160" viewBox="0 0 128 160" width="128" xmlns="http://www.w3.org/2000/svg">
<defs>
<path d="M 51 0 L 57 -147 Q 62 -277 70.5 -407.5 Q 79 -538 80 -669 L 44 -669 L 44 -735 L 193 -735 L 250 -261 L 307 -735 L 420 -735 Q 420 -588 428.5 -441 Q 437 -294 443 -147 L 449 0 L 375 0 L 370 -147 Q 365 -261 360.5 -375 Q 356 -489 354 -603 L 281 0 L 219 0 L 146 -603 Q 144 -489 139.5 -375 Q 135 -261 130 -147 L 125 0 Z " id="path1"/>
</defs>
<g>
<g data-source-text="M" fill="#20242e" transform="translate(40 104.99201) rotate(0) scale(0.09599999)">
<use href="#path1" transform="translate(0 0)"/>
</g>
</g>
</svg>