<?xml version="1.0" encoding="UTF-8" standalone="no"?>
<svg height="160" viewBox="0 0 128 160" width="128" xmlns="http://www.w3.org/2000/svg">
<defs>
<path d="M 18 0 L 18 -70 L 64 -70 Q 64 -95 69 -120 Q 74 -145 83 -168.5 Q 92 -192 103.5 -214 Q 115 -236 130 -257 L 205 -368 L 130 -478 Q 115 -499 103.5 -521 Q 92 -543 83 -566.5 Q 74 -590 69 -615 Q 64 -640 64 -665 L 18 -665 L 18 -735 L 188 -735 L 188 -665 L 142 -665 Q 142 -625 157 -587.5 Q 172 -550 194 -517 L 250 -434 L 306 -517 Q 328 -550 343 -587.5 Q 358 -625 358 -665 L 312 -665 L 312 -735 L 482 -735 L 482 -665 L 436 -665 Q 436 -640 431 -615 Q 426 -590 417 -566.5 Q 408 -543 396.5 -521 Q 385 -499 370 -478 L 295 -367 L 370 -257 Q 385 -236 396.5 -214 Q 408 -192 417 -168.5 Q 426 -145 431 -120 Q 436 -95 436 -70 L 482 -70 L 482 0 L 312 0 L 312 -70 L 358 -70 Q 358 -110 343 -147.5 Q 328 -185 306 -218 L 250 -301 L 194 -218 Q 172 -185 157 -147.5 Q 142 -110 142 -70 L 188 -70 L 188 0 Z " id="path1"/>
</defs>
<g>
<g data-source-text="X" fill="#20242e" transform="translate(40 104.99201) rotate(0) scale(0.09599999)">
<use href="#path1" transform="translate(0 0)"/>
</g>
</g>
</svg>