<?xml version="1.0" encoding="UTF-8" standalone="no"?>
<svg height="160" viewBox="0 0 128 160" width="128" xmlns="http://www.w3.org/2000/svg">
<defs>
<path d="M 80 0 L 80 -665 L 34 -665 L 34 -735 L 158 -735 L 158 -624 L 216 -624 Q 246 -624 276 -619 Q 306 -614 333 -601 Q 360 -588 382.5 -567.5 Q 405 -547 419 -520.5 Q 433 -494 438.5 -464 Q 444 -434 444 -404 Q 444 -374 438.5 -344 Q 433 -314 419 -287.5 Q 405 -261 382.5 -240 Q 360 -219 333 -206.5 Q 306 -194 276 -189 Q 246 -184 216 -184 L 158 -184 L 158 0 Z M 158 -254 L 216 -254 Q 236 -254 256 -257.5 Q 276 -261 294 -270 Q 312 -279 326.5 -293.5 Q 341 -308 350 -326 Q 359 -344 362.5 -364 Q 366 -384 366 -404 Q 366 -424 362.5 -444 Q 359 -464 350 -482 Q 341 -500 326.5 -514.5 Q 312 -529 294 -538 Q 276 -547 256 -550.5 Q 236 -554 216 -554 L 158 -554 Z " id="path1"/>
</defs>
<g>
<g data-source-text="Þ" fill="#dee4e3" transform="translate(40 104.99201) rotate(0) scale(0.09599999)">
<use href="#path1" transform="translate(0 0)"/>
</g>
</g>
</svg>