<?xml version="1.0" encoding="UTF-8" standalone="no"?>
<svg height="160" viewBox="0 0 128 160" width="128" xmlns="http://www.w3.org/2000/svg">
<defs>
<path d="M 219 8 Q 194 8 170 0.5 Q 146 -7 126 -22 Q 106 -37 92 -58 Q 78 -79 70 -102.5 Q 62 -126 59 -150.5 Q 56 -175 56 -200 L 56 -320 Q 56 -345 59 -369.5 Q 62 -394 70 -417.5 Q 78 -441 92 -462 Q 106 -483 126 -498 Q 146 -513 170 -520.5 Q 194 -528 219 -528 Q 241 -528 262 -522.5 Q 283 -517 301 -506 Q 319 -495 333.5 -479 Q 348 -463 359 -445 L 359 -520 L 436 -520 L 436 -339 L 359 -339 Q 359 -362 351 -384 Q 343 -406 327.5 -423 Q 312 -440 290.5 -449 Q 269 -458 246 -458 Q 230 -458 213.5 -453.5 Q 197 -449 183 -439 Q 169 -429 159.5 -415.5 Q 150 -402 144 -386 Q 138 -370 136 -353.5 Q 134 -337 134 -320 L 134 -200 Q 134 -183 136 -166.5 Q 138 -150 144 -134 Q 150 -118 159.5 -104.5 Q 169 -91 183 -81 Q 197 -71 213.5 -66.5 Q 230 -62 246 -62 Q 269 -62 290.5 -71 Q 312 -80 327.5 -97 Q 343 -114 351 -136 Q 359 -158 359 -181 L 436 -181 L 436 0 L 359 0 L 359 -75 Q 348 -57 333.5 -41 Q 319 -25 301 -14 Q 283 -3 262 2.5 Q 241 8 219 8 Z " id="path1"/>
</defs>
<g>
<g data-source-text="c" fill="#20242e" transform="translate(40 104.99201) rotate(0) scale(0.09599999)">
<use href="#path1" transform="translate(0 0)"/>
</g>
</g>
</svg>