<?xml version="1.0" encoding="UTF-8" standalone="no"?>
<svg height="160" viewBox="0 0 128 160" width="128" xmlns="http://www.w3.org/2000/svg">
<defs>
<path d="M 87 0 L 87 -70 L 172 -70 Q 176 -83 179.5 -96 Q 183 -109 187 -121 L 210 -200 Q 202 -228 193.5 -256.5 Q 185 -285 177 -313 L 72 -665 L 18 -665 L 18 -735 L 188 -735 L 188 -665 L 152 -665 L 251 -320 L 348 -665 L 312 -665 L 312 -735 L 482 -735 L 482 -665 L 428 -665 L 232 0 Z " id="path1"/>
</defs>
<g>
<g data-source-text="У" fill="#dee4e3" transform="translate(40 104.99201) rotate(0) scale(0.09599999)">
<use href="#path1" transform="translate(0 0)"/>
</g>
</g>
</svg>