<?xml version="1.0" encoding="UTF-8" standalone="no"?>
<svg height="160" viewBox="0 0 128 160" width="128" xmlns="http://www.w3.org/2000/svg">
<defs>
<path d="M 249 8 Q 224 8 199.5 4 Q 175 -0 152 -10 Q 129 -20 110.5 -36.5 Q 92 -53 79 -74.5 Q 66 -96 60 -120.5 Q 54 -145 54 -170 L 54 -174 L 132 -174 L 132 -171 Q 132 -148 140 -126.5 Q 148 -105 165 -90 Q 182 -75 204 -68.5 Q 226 -62 249 -62 Q 272 -62 295 -69 Q 318 -76 334.5 -92.5 Q 351 -109 359 -132 Q 367 -155 367 -178 Q 367 -204 356.5 -228 Q 346 -252 328 -270.5 Q 310 -289 287.5 -302.5 Q 265 -316 242.5 -328 Q 220 -340 197.5 -353.5 Q 175 -367 155 -383 Q 135 -399 118 -418.5 Q 101 -438 88.5 -461 Q 76 -484 70 -509 Q 64 -534 64 -560 Q 64 -582 68 -604.5 Q 72 -627 80.5 -648 Q 89 -669 102.5 -687 Q 116 -705 134.5 -718 Q 153 -731 175 -737 Q 197 -743 220 -743 Q 241 -743 262 -737.5 Q 283 -732 301 -721 Q 319 -710 333.5 -694 Q 348 -678 359 -660 L 359 -735 L 436 -735 L 436 -554 L 359 -554 Q 359 -577 351 -599 Q 343 -621 327.5 -638 Q 312 -655 290.5 -664 Q 269 -673 246 -673 Q 225 -673 204 -664.5 Q 183 -656 169 -639.5 Q 155 -623 148 -602 Q 141 -581 141 -559 Q 141 -533 151.5 -509 Q 162 -485 179.5 -466 Q 197 -447 219 -433.5 Q 241 -420 264 -408 Q 287 -396 309 -382.5 Q 331 -369 351 -353 Q 371 -337 388.5 -318 Q 406 -299 418.5 -276.5 Q 431 -254 437.5 -228.5 Q 444 -203 444 -178 Q 444 -152 438 -127 Q 432 -102 420 -80 Q 408 -58 389 -40.5 Q 370 -23 347.5 -11.5 Q 325 -0 299.5 4 Q 274 8 249 8 Z " id="path1"/>
</defs>
<g>
<g data-source-text="S" fill="#20242e" transform="translate(40 104.99201) rotate(0) scale(0.09599999)">
<use href="#path1" transform="translate(0 0)"/>
</g>
</g>
</svg>