<svg xmlns="http://www.w3.org/2000/svg" height="160" viewBox="0 0 128 160" width="128"><defs><path d="M 249 8 C 232.33333 8 215.66666 6.6666665 199 4 C 182.33334 1.3333335 166.5 -3.5000005 151.5 -10.500001 C 136.5 -17.500002 122.66667 -26.666666 110.00001 -38 C 97.333336 -49.333336 86.83334 -62.166668 78.50001 -76.5 C 70.166664 -90.83333 63.999996 -106.166664 60.000004 -122.50001 C 56 -138.83334 54 -155.33334 54 -172.00002 C 54 -172.66667 54 -173.16667 54 -173.5 C 54 -173.83333 54 -174.33334 54 -175 L 132 -175 C 132 -175 132 -174.83334 132 -174.50002 C 132 -174.16669 132 -173.66669 132 -173 C 132 -158.33334 134.66667 -143.66667 140.00002 -129 C 145.33333 -114.333336 153.5 -101.66667 164.5 -91 C 175.5 -80.333336 188.5 -72.83333 203.5 -68.50001 C 218.5 -64.166664 233.66667 -62.000004 249 -62.000004 C 264.33334 -62.000004 279.8333 -64.5 295.5 -69.5 C 311.16666 -74.5 324.3333 -82.833336 335 -94.50001 C 345.66666 -106.166664 353.6667 -119.66666 359.00003 -135 C 364.3333 -150.33333 366.99997 -166 367 -182 C 366.99997 -198.66666 363.49997 -215 356.5 -231.00002 C 349.5 -246.99998 340 -261.16666 328.00003 -273.5 C 316 -285.8333 302.6667 -296.16666 288.00003 -304.5 C 273.3333 -312.83334 258.33334 -320.83334 243.00002 -328.50003 C 227.66669 -336.16666 212.66667 -344.1667 198 -352.5 C 183.33333 -360.83334 169.33333 -370.16666 156 -380.5 C 142.66666 -390.8333 130.16667 -402.5 118.50001 -415.50003 C 106.83334 -428.50003 97.00001 -442.33334 89 -457.00003 C 81 -471.66666 74.833336 -487.3333 70.5 -504 C 66.166664 -520.6667 64 -537.6666 64 -555 C 64 -570.99994 65.833336 -587.1666 69.5 -603.5 C 73.166664 -619.8333 78.5 -635.3333 85.50001 -650.00006 C 92.49999 -664.6667 101.66667 -678.16675 113.00001 -690.50006 C 124.333336 -702.8334 137.16666 -713 151.5 -721.00006 C 165.83334 -729.00006 181.16667 -734.6667 197.50002 -738 C 213.83334 -741.3334 230.33333 -743.00006 247 -743.00006 C 279.66666 -743.00006 312 -738 344.00003 -728 C 376.00003 -717.99994 406.6667 -704.99994 436 -689 L 436 -555 L 359.00003 -555 L 359.00003 -646 C 341.66666 -653.3334 323.66666 -659.6667 305.00003 -665 C 286.33334 -670.3333 267.33334 -673.00006 248.00002 -673.00006 C 233.33334 -673.00006 218.83333 -670.1667 204.5 -664.5 C 190.16667 -658.8333 178.33334 -650.1667 169.00002 -638.50006 C 159.66666 -626.8334 152.66666 -613.8334 148 -599.50006 C 143.33333 -585.1667 141 -570.3333 141 -555 C 141 -538.3334 144.5 -522 151.5 -506.00003 C 158.5 -490.00003 167.83333 -475.83334 179.50002 -463.50003 C 191.16669 -451.1667 204.33336 -440.6667 219.00002 -432 C 233.66667 -423.33334 248.66666 -415.16666 264 -407.5 C 279.3333 -399.83334 294.3333 -391.8333 309 -383.50003 C 323.6667 -375.16666 337.83334 -365.83337 351.5 -355.50003 C 365.1667 -345.1667 377.83337 -333.66666 389.50003 -321 C 401.1667 -308.3333 411 -294.5 419 -279.50003 C 426.99997 -264.5 433.1667 -248.66667 437.5 -232 C 441.83334 -215.33333 444.00003 -198.66666 444.00003 -182 C 444.00003 -164.66667 442 -147.66667 438.00003 -131 C 434.00003 -114.333336 428 -98.33333 420 -83 C 412 -67.66667 401.8333 -54 389.50003 -42.000004 C 377.1667 -30.000002 363.33334 -20.166666 348.00003 -12.500001 C 332.6667 -4.833334 316.5 0.5000001 299.50003 3.5 C 282.5 6.4999995 265.6667 8 249 8 Z " id="path1"/></defs><g><g fill="#ffffff" transform="translate(40 105.20961) rotate(0)"><use href="#path1" transform="translate(0 0) scale(0.09599999)"/></g></g></svg>