<?xml version="1.0" encoding="UTF-8" standalone="no"?>
<svg height="160" viewBox="0 0 128 160" width="128" xmlns="http://www.w3.org/2000/svg">
<defs>
<path d="M 342 8 Q 327 8 312 3.5 Q 297 -1 282.5 -7.5 Q 268 -14 254.5 -21 Q 241 -28 226.5 -34.5 Q 212 -41 197.5 -46 Q 183 -51 168 -56 L 134 -67 L 134 0 L 64 0 L 64 -159 L 208 -366 L 106 -406 L 131 -463 L 244 -418 L 366 -594 L 366 -596 L 321 -613 Q 300 -621 280 -630 Q 260 -639 240.5 -648.5 Q 221 -658 200 -665.5 Q 179 -673 158 -673 Q 149 -673 143.5 -666.5 Q 138 -660 134.5 -652 Q 131 -644 129.5 -636 Q 128 -628 127 -619.5 Q 126 -611 125.5 -602.5 Q 125 -594 125 -586 L 125 -538 L 56 -538 L 56 -586 Q 56 -603 57.5 -620.5 Q 59 -638 63.5 -655 Q 68 -672 75.5 -688 Q 83 -704 95 -717 Q 107 -730 123.5 -736.5 Q 140 -743 158 -743 Q 183 -743 207.5 -735 Q 232 -727 255 -717.5 Q 278 -708 301.5 -698 Q 325 -688 349 -679 L 366 -672 L 366 -735 L 436 -735 L 436 -576 L 308 -392 L 394 -358 L 369 -301 L 272 -340 L 134 -142 L 192 -123 Q 205 -119 218 -114 Q 231 -109 243 -103 Q 255 -97 267 -90.5 Q 279 -84 291 -77.5 Q 303 -71 316 -66.5 Q 329 -62 342 -62 Q 351 -62 356.5 -68.5 Q 362 -75 365.5 -83 Q 369 -91 370.5 -99 Q 372 -107 373 -115.5 Q 374 -124 374.5 -132.5 Q 375 -141 375 -149 L 375 -198 L 444 -198 L 444 -149 Q 444 -132 442.5 -114.5 Q 441 -97 436.5 -80 Q 432 -63 424.5 -47 Q 417 -31 405 -18 Q 393 -5 376.5 1.5 Q 360 8 342 8 Z " id="path1"/>
</defs>
<g>
<g data-source-text="Z" fill="#20242e" transform="translate(40 104.99201) rotate(0) scale(0.09599999)">
<use href="#path1" transform="translate(0 0)"/>
</g>
</g>
</svg>