<svg xmlns="http://www.w3.org/2000/svg" height="160" viewBox="0 0 128 160" width="128"><defs><path d="M 64 0 L 64 -665 L 18 -665 L 18 -735 L 160 -735 Q 212 -583 263.5 -431.5 Q 315 -280 367 -128 Q 367 -138 366.5 -147 Q 366 -156 366 -165 L 361 -276 Q 360 -317 359 -358.5 Q 358 -400 358 -441 L 358 -735 L 436 -735 L 436 0 L 340 0 L 133 -607 Q 133 -597 133.5 -588 Q 134 -579 134 -570 L 139 -459 Q 140 -418 141 -376.5 Q 142 -335 142 -294 L 142 0 Z " id="path1"/></defs><g><g fill="#dee4e3" transform="translate(40 105.20961) rotate(0)"><use href="#path1" transform="translate(0 0) scale(0.09599999)"/></g></g></svg>