<?xml version="1.0" encoding="UTF-8" standalone="no"?>
<svg height="160" viewBox="0 0 128 160" width="128" xmlns="http://www.w3.org/2000/svg">
<defs>
<path d="M 246 8 Q 223 8 200.5 5.5 Q 178 3 156 -4.5 Q 134 -12 115 -24.5 Q 96 -37 82 -55 Q 68 -73 62 -95.5 Q 56 -118 56 -141 Q 56 -166 63 -191 Q 70 -216 85.5 -236 Q 101 -256 122.5 -270 Q 144 -284 168.5 -292 Q 193 -300 218 -303 Q 243 -306 269 -306 L 358 -306 L 358 -355 Q 358 -377 350 -398 Q 342 -419 325.5 -433 Q 309 -447 287 -452.5 Q 265 -458 243 -458 Q 214 -458 186 -450.5 Q 158 -443 133 -429 L 133 -375 L 64 -375 L 64 -471 Q 103 -498 149 -513 Q 195 -528 243 -528 Q 268 -528 292.5 -524.5 Q 317 -521 339.5 -511.5 Q 362 -502 381 -486 Q 400 -470 413 -449 Q 426 -428 431 -403.5 Q 436 -379 436 -355 L 436 -153 Q 436 -129 430.5 -106 Q 425 -83 412 -63.5 Q 399 -44 380 -29.5 Q 361 -15 339 -6.5 Q 317 2 293.5 5 Q 270 8 246 8 Z M 246 -62 Q 266 -62 286.5 -66 Q 307 -70 324 -82 Q 341 -94 349.5 -113 Q 358 -132 358 -153 L 358 -236 L 269 -236 Q 253 -236 238 -234.5 Q 223 -233 208.5 -229 Q 194 -225 180 -218.5 Q 166 -212 155 -201 Q 144 -190 139 -175.5 Q 134 -161 134 -146 Q 134 -126 143.5 -108 Q 153 -90 170 -79.5 Q 187 -69 206.5 -65.5 Q 226 -62 246 -62 Z " id="path1"/>
</defs>
<g>
<g data-source-text="а" fill="#20242e" transform="translate(40 104.99201) rotate(0) scale(0.09599999)">
<use href="#path1" transform="translate(0 0)"/>
</g>
</g>
</svg>