<?xml version="1.0" encoding="UTF-8" standalone="no"?>
<svg height="160" viewBox="0 0 128 160" width="128" xmlns="http://www.w3.org/2000/svg">
<defs>
<path d="M 214 8 Q 184 8 153.5 0 Q 123 -8 100 -28.5 Q 77 -49 66.5 -78.5 Q 56 -108 56 -139 Q 56 -164 62.5 -189 Q 69 -214 84.5 -234.5 Q 100 -255 122 -269 Q 144 -283 168 -291.5 Q 192 -300 217.5 -303 Q 243 -306 269 -306 L 358 -306 L 358 -355 Q 358 -376 351 -397 Q 344 -418 328 -432 Q 312 -446 291 -452 Q 270 -458 249 -458 Q 230 -458 211 -454.5 Q 192 -451 175.5 -440.5 Q 159 -430 149.5 -413 Q 140 -396 140 -377 L 140 -375 L 62 -375 L 62 -378 Q 62 -401 69 -422.5 Q 76 -444 89 -462.5 Q 102 -481 120.5 -494 Q 139 -507 160.5 -514.5 Q 182 -522 204 -525 Q 226 -528 249 -528 Q 273 -528 297 -524.5 Q 321 -521 343 -511 Q 365 -501 383.5 -485 Q 402 -469 414 -448 Q 426 -427 431 -403 Q 436 -379 436 -355 L 436 -87 Q 436 -82 437.5 -77 Q 439 -72 442.5 -68.5 Q 446 -65 451 -63.5 Q 456 -62 461 -62 L 482 -62 L 482 8 L 461 8 Q 441 8 421.5 3 Q 402 -2 387 -15 Q 372 -28 365 -47 Q 358 -66 358 -86 Q 350 -65 335.5 -46.5 Q 321 -28 302 -15 Q 283 -2 260 3 Q 237 8 214 8 Z M 245 -62 Q 269 -62 291.5 -69.5 Q 314 -77 329.5 -94 Q 345 -111 351.5 -134 Q 358 -157 358 -180 L 358 -236 L 269 -236 Q 253 -236 238 -234.5 Q 223 -233 208.5 -229 Q 194 -225 180 -218.5 Q 166 -212 155 -201 Q 144 -190 139 -175.5 Q 134 -161 134 -146 Q 134 -126 143.5 -108 Q 153 -90 169.5 -79.5 Q 186 -69 206 -65.5 Q 226 -62 245 -62 Z " id="path1"/>
</defs>
<g>
<g data-source-text="а" fill="#20242e" transform="translate(40 104.99201) rotate(0) scale(0.09599999)">
<use href="#path1" transform="translate(0 0)"/>
</g>
</g>
</svg>