<svg xmlns="http://www.w3.org/2000/svg" height="160" viewBox="0 0 128 160" width="128"><defs><path d="M 247 8 C 229.66667 8 212.16667 6.3333335 194.50002 3 C 176.83334 -0.33333325 160.33334 -6.333334 145 -15.000001 C 129.66667 -23.666666 116 -34.666664 104.00001 -48 C 92.00001 -61.333332 82.333336 -76 75.00001 -92 C 67.666664 -107.99999 62.666668 -124.83333 60.000004 -142.5 C 57.333332 -160.16667 55.999996 -177.66667 56 -195 L 56 -540 C 55.999996 -557.3333 57.333332 -574.6667 60.000004 -592 C 62.666668 -609.3333 67.666664 -626 75.00001 -642 C 82.333336 -658 92.00001 -672.6666 104.00001 -686.00006 C 116 -699.3334 129.66667 -710.3334 145 -719.00006 C 160.33334 -727.66675 176.50002 -733.8333 193.50002 -737.50006 C 210.50002 -741.1667 228.00002 -743.00006 246.00002 -743.00006 C 279.3333 -743.00006 312 -738.1667 344.00003 -728.5 C 376.00003 -718.8333 406.6667 -705.6666 436 -689 L 436 -555 L 359.00003 -555 L 359.00003 -647 C 341 -654.3333 322.83334 -660.5 304.5 -665.5 C 286.1667 -670.5 267.33334 -673.00006 248.00002 -673.00006 C 236.66667 -673.00006 225.66667 -671.6666 215 -669 C 204.33333 -666.3333 194.33333 -662 185.00002 -656.00006 C 175.66666 -650 167.5 -642.5 160.5 -633.50006 C 153.5 -624.5 148 -615 144.00002 -605.00006 C 140.00002 -595 137.33334 -584.5 136 -573.5 C 134.66667 -562.5 134 -551.3334 134 -540 L 134 -195 C 134 -178.33333 135.83333 -161.83333 139.5 -145.50002 C 143.16667 -129.16667 150 -114.333336 160.00002 -101.00001 C 170 -87.666664 182.83331 -77.83333 198.5 -71.5 C 214.16667 -65.16667 230.33333 -62.000004 247 -62.000004 C 262.3333 -62.000004 277.3333 -64.333336 292 -69 C 306.66666 -73.66667 319.16666 -81.33333 329.5 -92 C 339.83334 -102.66667 347.50003 -115.33334 352.5 -130.00002 C 357.5 -144.66667 360 -159.33333 360.00003 -174.00002 C 360 -174.66667 360 -175.16666 360.00003 -175.5 C 360 -175.83333 360 -176 360.00003 -176 L 438.00003 -176 C 437.99997 -175.33333 437.99997 -174.83334 438.00003 -174.50002 C 437.99997 -174.16669 437.99997 -173.66669 438.00003 -173 C 437.99997 -156.33333 436 -140 432 -124.00001 C 428 -108 422.1667 -92.66667 414.5 -78 C 406.83334 -63.333336 396.8333 -50.333332 384.5 -39 C 372.1667 -27.666666 358.5 -18.333332 343.50003 -11 C 328.5 -3.6666667 312.83334 1.3333335 296.50003 4 C 280.1667 6.6666665 263.6667 8 247 8 Z " id="path1"/></defs><g><g fill="#ffffff" transform="translate(40 105.20961) rotate(0)"><use href="#path1" transform="translate(0 0) scale(0.09599999)"/></g></g></svg>