<?xml version="1.0" encoding="UTF-8" standalone="no"?>
<svg height="160" viewBox="0 0 128 160" width="128" xmlns="http://www.w3.org/2000/svg">
<defs>
<path d="M 250 8 Q 224 8 198 2.5 Q 172 -3 149.5 -16 Q 127 -29 110 -49 Q 93 -69 82.5 -93 Q 72 -117 68 -143 Q 64 -169 64 -195 L 64 -665 L 18 -665 L 18 -735 L 188 -735 L 188 -665 L 142 -665 L 142 -195 Q 142 -179 144 -162.5 Q 146 -146 151.5 -131 Q 157 -116 166 -102.5 Q 175 -89 188.5 -79.5 Q 202 -70 218 -66 Q 234 -62 250 -62 Q 266 -62 282 -66 Q 298 -70 311.5 -79.5 Q 325 -89 334 -102.5 Q 343 -116 348.5 -131 Q 354 -146 356 -162.5 Q 358 -179 358 -195 L 358 -665 L 312 -665 L 312 -735 L 482 -735 L 482 -665 L 436 -665 L 436 -195 Q 436 -169 432 -143 Q 428 -117 417.5 -93 Q 407 -69 390 -49 Q 373 -29 350.5 -16 Q 328 -3 302 2.5 Q 276 8 250 8 Z " id="path1"/>
</defs>
<g>
<g data-source-text="U" fill="#20242e" transform="translate(40 104.99201) rotate(0) scale(0.09599999)">
<use href="#path1" transform="translate(0 0)"/>
</g>
</g>
</svg>