<?xml version="1.0" encoding="UTF-8" standalone="no"?>
<svg height="160" viewBox="0 0 128 160" width="128" xmlns="http://www.w3.org/2000/svg">
<defs>
<path d="M 10 0 L 10 -70 L 64 -70 L 64 -115 Q 64 -132 68 -148 Q 72 -164 81 -177.5 Q 90 -191 103.5 -201.5 Q 117 -212 132 -218 Q 113 -228 98 -243.5 Q 83 -259 73 -278 Q 63 -297 59.5 -318 Q 56 -339 56 -360 Q 56 -382 60 -403.5 Q 64 -425 74 -444 Q 84 -463 100 -478.5 Q 116 -494 135.5 -503.5 Q 155 -513 176.5 -516.5 Q 198 -520 219 -520 L 436 -520 L 436 0 L 358 0 L 358 -450 L 219 -450 Q 202 -450 184.5 -444.5 Q 167 -439 155 -425.5 Q 143 -412 138.5 -395 Q 134 -378 134 -360 Q 134 -342 138.5 -325 Q 143 -308 155 -295 Q 167 -282 184.5 -276 Q 202 -270 219 -270 L 301 -270 L 301 -200 L 226 -200 Q 209 -200 192 -195 Q 175 -190 163.5 -177.5 Q 152 -165 147 -148.5 Q 142 -132 142 -115 L 142 0 Z " id="path1"/>
</defs>
<g>
<g data-source-text="Ñ" fill="#dee4e3" transform="translate(40 104.99201) rotate(0) scale(0.09599999)">
<use href="#path1" transform="translate(0 0)"/>
</g>
</g>
</svg>