<?xml version="1.0" encoding="UTF-8" standalone="no"?>
<svg height="160" viewBox="0 0 128 160" width="128" xmlns="http://www.w3.org/2000/svg">
<defs>
<path d="M 10 0 L 10 -70 L 75 -70 Q 82 -103 93.5 -134 Q 105 -165 119.5 -195 Q 134 -225 150.5 -254 Q 167 -283 185 -311 Q 153 -320 126.5 -341 Q 100 -362 84 -391 Q 68 -420 62 -453 Q 56 -486 56 -520 Q 56 -547 59.5 -574 Q 63 -601 73.5 -626 Q 84 -651 101 -672.5 Q 118 -694 141 -708.5 Q 164 -723 190.5 -729 Q 217 -735 244 -735 L 482 -735 L 482 -665 L 436 -665 L 436 -70 L 482 -70 L 482 0 L 312 0 L 312 -70 L 358 -70 L 358 -304 L 271 -304 Q 247 -270 225.5 -234 Q 204 -198 186.5 -160.5 Q 169 -123 156.5 -82.5 Q 144 -42 144 0 Z M 244 -374 L 358 -374 L 358 -665 L 244 -665 Q 227 -665 210 -660 Q 193 -655 179.5 -644.5 Q 166 -634 157 -619 Q 148 -604 143 -587.5 Q 138 -571 136 -554 Q 134 -537 134 -520 Q 134 -502 136 -485 Q 138 -468 143 -451.5 Q 148 -435 157 -420 Q 166 -405 179.5 -394.5 Q 193 -384 210 -379 Q 227 -374 244 -374 Z " id="path1"/>
</defs>
<g>
<g data-source-text="Я" fill="#dee4e3" transform="translate(40 104.99201) rotate(0) scale(0.09599999)">
<use href="#path1" transform="translate(0 0)"/>
</g>
</g>
</svg>