<svg xmlns="http://www.w3.org/2000/svg" height="160" viewBox="0 0 128 160" width="128"><defs><path d="M 255 8 C 221.66666 8 188.83334 3.1666663 156.5 -6.5000005 C 124.16667 -16.166668 93.333336 -29.333334 64 -46 L 64 -188.00002 L 141 -188.00002 L 141 -88 C 159 -80.66667 177.33334 -74.5 196 -69.5 C 214.66666 -64.5 233.33331 -62.000004 252 -62.000004 C 270 -62.000004 287.33334 -65.5 304 -72.5 C 320.66666 -79.5 334.5 -90 345.5 -104.00001 C 356.5 -117.99999 363.99997 -133.83333 368 -151.5 C 372 -169.16667 374 -186.66666 374 -204 C 374 -216 373.16666 -228.00002 371.50003 -240.00002 C 369.8333 -252 366.83334 -263.5 362.5 -274.5 C 358.16666 -285.5 352.3333 -295.83334 345 -305.50003 C 337.66663 -315.1667 328.8333 -323.1667 318.5 -329.5 C 308.1667 -335.8333 297.1667 -340.3333 285.50003 -343.00003 C 273.8333 -345.66666 262 -346.99997 250 -347 L 194.00002 -347 L 194.00002 -417.00003 L 250 -417.00003 C 266 -417.00003 281.5 -420.16666 296.50003 -426.50003 C 311.5 -432.8333 323.8333 -442.3333 333.5 -455.00003 C 343.1667 -467.6667 349.6667 -481.83334 353.00003 -497.50003 C 356.33334 -513.1667 358 -529 358 -545 C 358 -560.99994 356.33334 -576.8334 353.00003 -592.5 C 349.6667 -608.1667 343.33334 -622.3334 334 -635 C 324.66666 -647.6667 312.5 -657.1667 297.5 -663.5 C 282.5 -669.8334 267.3333 -673.00006 252 -673.00006 C 232.66666 -673.00006 213.66667 -670.3333 195 -665 C 176.33331 -659.6667 158.33333 -653.3334 141 -646 L 141 -555 L 64 -555 L 64 -689 C 93.333336 -704.99994 124 -717.99994 156 -728 C 187.99998 -738 220.66666 -743.00006 254.00002 -743.00006 C 270.66666 -743.00006 287.33334 -741.1667 304 -737.50006 C 320.66666 -733.8333 336.3333 -727.8334 351 -719.5 C 365.66663 -711.1666 378.66666 -700.6667 390 -688.00006 C 401.33334 -675.3334 410.49997 -661.1667 417.50003 -645.50006 C 424.5 -629.8334 429.33334 -613.6667 432 -597 C 434.66666 -580.3333 435.99997 -563.6667 436 -547 C 435.99997 -530.3333 434.5 -513.8333 431.5 -497.50003 C 428.50003 -481.1667 423.1667 -465.66672 415.50003 -451.00003 C 407.83334 -436.33334 398 -423.1667 386 -411.50003 C 374 -399.83337 360.33334 -390.33334 345 -383.00003 C 362.33334 -375.66672 378.1667 -365.83337 392.5 -353.50003 C 406.83334 -341.16666 418.6667 -327 428.00003 -311.00003 C 437.33334 -295 443.66666 -277.66666 447 -259 C 450.33334 -240.33333 452 -221.66666 452.00003 -203.00002 C 452 -184.99998 450.50003 -166.83333 447.5 -148.50002 C 444.49997 -130.16667 439.16663 -112.833336 431.5 -96.5 C 423.8333 -80.16667 413.8333 -65.16667 401.5 -51.500004 C 389.1667 -37.833336 375.16666 -26.500002 359.50003 -17.500002 C 343.83334 -8.500001 327 -1.9999998 309 2 C 291 6 273 8 255 8 Z " id="path1"/></defs><g><g fill="#000000" transform="translate(40 105.20961) rotate(0)"><use href="#path1" transform="translate(0 0) scale(0.09599999)"/></g></g></svg>