<?xml version="1.0" encoding="UTF-8" standalone="no"?>
<svg height="160" viewBox="0 0 128 160" width="128" xmlns="http://www.w3.org/2000/svg">
<defs>
<path d="M 249 8 Q 224 8 199 4 Q 174 0 151.5 -10.5 Q 129 -21 110 -38 Q 91 -55 78.5 -76.5 Q 66 -98 60 -123 Q 54 -148 54 -173 L 54 -180 L 132 -180 L 132 -175 Q 132 -152 140 -130 Q 148 -108 164.5 -92 Q 181 -76 203.5 -69 Q 226 -62 249 -62 Q 272 -62 295 -69 Q 318 -76 334.5 -93 Q 351 -110 359 -132.5 Q 367 -155 367 -178 Q 367 -204 356.5 -228.5 Q 346 -253 328.5 -271.5 Q 311 -290 288.5 -303 Q 266 -316 243 -328 Q 220 -340 197.5 -352.5 Q 175 -365 155 -381 Q 135 -397 118 -416.5 Q 101 -436 88.5 -458.5 Q 76 -481 70 -506.5 Q 64 -532 64 -558 Q 64 -582 69.5 -606.5 Q 75 -631 86.5 -653 Q 98 -675 115.5 -693 Q 133 -711 155 -722.5 Q 177 -734 201.5 -738.5 Q 226 -743 251 -743 Q 276 -743 300 -739 Q 324 -735 346 -724 Q 368 -713 386 -695.5 Q 404 -678 415.5 -656.5 Q 427 -635 432.5 -611 Q 438 -587 438 -562 L 438 -555 L 360 -555 L 360 -560 Q 360 -582 353 -603.5 Q 346 -625 331 -641.5 Q 316 -658 294.5 -665.5 Q 273 -673 251 -673 Q 229 -673 207 -665 Q 185 -657 170 -640.5 Q 155 -624 148 -602 Q 141 -580 141 -557 Q 141 -531 151 -507 Q 161 -483 179 -464 Q 197 -445 219 -432 Q 241 -419 264 -407.5 Q 287 -396 309.5 -383 Q 332 -370 352.5 -354 Q 373 -338 390 -318.5 Q 407 -299 419 -276.5 Q 431 -254 437.5 -229 Q 444 -204 444 -178 Q 444 -152 438 -127.5 Q 432 -103 420 -80.5 Q 408 -58 389 -40.5 Q 370 -23 347.5 -12 Q 325 -1 299.5 3.5 Q 274 8 249 8 Z " id="path1"/>
</defs>
<g>
<g data-source-text="S" fill="#dee4e3" transform="translate(40 104.99201) rotate(0) scale(0.09599999)">
<use href="#path1" transform="translate(0 0)"/>
</g>
</g>
</svg>