<?xml version="1.0" encoding="UTF-8" standalone="no"?>
<svg height="160" viewBox="0 0 256 160" width="256" xmlns="http://www.w3.org/2000/svg">
<defs>
<path d="M 254 8 Q 230 8 206 4.5 Q 182 1 159.5 -8 Q 137 -17 118 -32.5 Q 99 -48 86.5 -68.5 Q 74 -89 69 -112.5 Q 64 -136 64 -161 L 64 -520 L 142 -520 L 142 -321 L 250 -321 Q 274 -321 298 -318 Q 322 -315 344 -306.5 Q 366 -298 386 -284 Q 406 -270 419.5 -250.5 Q 433 -231 438.5 -207 Q 444 -183 444 -159 Q 444 -135 438.5 -111.5 Q 433 -88 420.5 -67.5 Q 408 -47 389 -32 Q 370 -17 348 -8 Q 326 1 302 4.5 Q 278 8 254 8 Z M 254 -62 Q 275 -62 296 -67 Q 317 -72 333.5 -85 Q 350 -98 358 -118 Q 366 -138 366 -159 Q 366 -173 362.5 -187 Q 359 -201 350.5 -212 Q 342 -223 330.5 -231 Q 319 -239 305.5 -243.5 Q 292 -248 278 -249.5 Q 264 -251 250 -251 L 142 -251 L 142 -161 Q 142 -139 150 -119 Q 158 -99 174.5 -85.5 Q 191 -72 212 -67 Q 233 -62 254 -62 Z " id="path1"/>
<path d="M 281 8 Q 259 8 237 4 Q 215 0 195.5 -10.5 Q 176 -21 160.5 -37.5 Q 145 -54 135.5 -74 Q 126 -94 122.5 -116 Q 119 -138 119 -161 L 119 -450 L 24 -450 L 24 -520 L 197 -520 L 197 -321 L 277 -321 Q 300 -321 321.5 -317.5 Q 343 -314 363 -304.5 Q 383 -295 399.5 -279.5 Q 416 -264 426 -244.5 Q 436 -225 440 -203 Q 444 -181 444 -159 Q 444 -137 440.5 -115 Q 437 -93 427 -73 Q 417 -53 402 -37 Q 387 -21 367.5 -10.5 Q 348 0 326 4 Q 304 8 281 8 Z M 281 -62 Q 300 -62 317.5 -69 Q 335 -76 346 -90.5 Q 357 -105 361.5 -123 Q 366 -141 366 -159 Q 366 -177 361 -195 Q 356 -213 343.5 -226.5 Q 331 -240 313.5 -245.5 Q 296 -251 277 -251 L 197 -251 L 197 -161 Q 197 -142 201 -123.5 Q 205 -105 216.5 -90.5 Q 228 -76 245.5 -69 Q 263 -62 281 -62 Z " id="path2"/>
</defs>
<g>
<g data-source-text="ь" fill="#20242e" transform="translate(40 104.99201) rotate(0) scale(0.09599999)">
<use href="#path1" transform="translate(0 0)"/>
</g>
</g>
<g>
<g data-source-text="ъ" fill="#20242e" transform="translate(168 104.99201) rotate(0) scale(0.09599999)">
<use href="#path2" transform="translate(0 0)"/>
</g>
</g>
</svg>