<?xml version="1.0" encoding="UTF-8" standalone="no"?>
<svg height="160" viewBox="0 0 128 160" width="128" xmlns="http://www.w3.org/2000/svg">
<defs>
<path d="M 257 0 L 18 0 L 18 -70 L 64 -70 L 64 -345 Q 64 -369 68 -393.5 Q 72 -418 83 -439.5 Q 94 -461 111.5 -479 Q 129 -497 150.5 -508 Q 172 -519 196.5 -523.5 Q 221 -528 245 -528 Q 267 -528 289.5 -525 Q 312 -522 332.5 -514.5 Q 353 -507 371 -494 Q 389 -481 402 -463 Q 415 -445 420.5 -423 Q 426 -401 426 -379 Q 426 -362 422.5 -345.5 Q 419 -329 410 -315 Q 401 -301 388 -290 Q 375 -279 360 -271 Q 380 -265 397.5 -253.5 Q 415 -242 428 -226.5 Q 441 -211 446.5 -191 Q 452 -171 452 -150 Q 452 -127 445.5 -104.5 Q 439 -82 424.5 -63.5 Q 410 -45 390.5 -32.5 Q 371 -20 349 -12.5 Q 327 -5 303.5 -2.5 Q 280 -0 257 0 Z M 142 -70 L 257 -70 Q 271 -70 284 -71.5 Q 297 -73 310 -76.5 Q 323 -80 335 -86.5 Q 347 -93 356 -102.5 Q 365 -112 369.5 -125 Q 374 -138 374 -152 Q 374 -165 370 -178 Q 366 -191 356.5 -201 Q 347 -211 335 -217.5 Q 323 -224 310.5 -227.5 Q 298 -231 284.5 -232.5 Q 271 -234 257 -234 L 199 -234 L 199 -304 L 257 -304 Q 274 -304 290.5 -307.5 Q 307 -311 320.5 -320.5 Q 334 -330 341 -345.5 Q 348 -361 348 -378 Q 348 -396 340 -413 Q 332 -430 316.5 -440.5 Q 301 -451 282.5 -454.5 Q 264 -458 245 -458 Q 224 -458 202.5 -450.5 Q 181 -443 167 -426.5 Q 153 -410 147.5 -388 Q 142 -366 142 -345 Z " id="path1"/>
</defs>
<g>
<g data-source-text="в" fill="#dee4e3" transform="translate(40 104.99201) rotate(0) scale(0.09599999)">
<use href="#path1" transform="translate(0 0)"/>
</g>
</g>
</svg>