<svg xmlns="http://www.w3.org/2000/svg" height="160" viewBox="0 0 128 160" width="128"><defs><path d="M 275 8 L 275 8 C 261.66666 8 248.5 6.833333 235.5 4.5000005 C 222.50002 2.1666667 210 -2.0000002 198 -8 C 186 -14 175.16667 -21.666666 165.50002 -31.000002 C 155.83334 -40.333336 147.66667 -50.666668 141 -62.000004 L 141 0 L 64 0 L 64 -181 L 141 -181 C 141 -165.66667 143 -150.5 147.00002 -135.50002 C 151 -120.500015 158 -107.16667 168.00002 -95.50001 C 178.00002 -83.833336 190.33333 -75.333336 205.00002 -70.00001 C 219.66667 -64.66667 234.66667 -62.000004 250 -62.000004 C 250 -62.000004 250 -62.000004 250 -62.000004 C 250 -62.000004 250 -62.000004 250 -62.000004 C 268 -62.000004 285.5 -65.333336 302.50003 -72.00001 C 319.5 -78.66667 333.66666 -89 345 -103.00001 C 356.3333 -117.00001 363.99997 -132.83334 368 -150.5 C 372 -168.16669 374 -186 374 -204 C 374 -204 374 -204 374 -204 C 374 -204 374 -204 374 -204 C 374 -216 373.16666 -228.00002 371.50003 -240.00002 C 369.8333 -252 366.83334 -263.5 362.5 -274.5 C 358.16666 -285.5 352.3333 -295.83334 345 -305.50003 C 337.66663 -315.1667 328.8333 -323.1667 318.5 -329.5 C 308.1667 -335.8333 297.1667 -340.3333 285.50003 -343.00003 C 273.8333 -345.66666 262 -346.99997 250 -347 L 194.00002 -347 L 194.00002 -417.00003 L 250 -417.00003 C 266 -417.00003 281.5 -420.16666 296.50003 -426.50003 C 311.5 -432.8333 323.8333 -442.3333 333.5 -455.00003 C 343.1667 -467.6667 349.6667 -482 353.00003 -498 C 356.33334 -514 358 -529.6667 358 -545 C 358 -560.99994 356.33334 -577 353.00003 -593.00006 C 349.6667 -609 343.1667 -623.1667 333.5 -635.5 C 323.8333 -647.8334 311.3333 -657.1667 296 -663.5 C 280.66666 -669.8334 265 -673.00006 249 -673.00006 C 234.33333 -673.00006 219.49998 -670.3333 204.5 -665 C 189.5 -659.6667 177.16667 -651.1667 167.5 -639.50006 C 157.83333 -627.8334 151 -614.5 147.00002 -599.50006 C 143 -584.5 141 -569.3333 141 -554.00006 L 64 -554.00006 L 64 -735 L 141 -735 L 141 -673.00006 C 147.66667 -684.3334 155.83334 -694.6666 165.50002 -704 C 175.16667 -713.3333 185.83334 -721.00006 197.50002 -727 C 209.16666 -733 221.66666 -737.1667 235 -739.50006 C 248.33333 -741.8334 261.3333 -743.00006 274.00003 -743.00006 C 290 -743.00006 305.83334 -741.1667 321.5 -737.50006 C 337.16663 -733.8333 351.66666 -727.33344 365.00003 -718.00006 C 378.33334 -708.6667 389.66666 -697.49994 399.00003 -684.5 C 408.3333 -671.5 415.6667 -657.5 421.00003 -642.5 C 426.33337 -627.5 430.16666 -612.1667 432.50003 -596.5 C 434.8333 -580.8333 435.99997 -565 436 -549 C 435.99997 -532.3334 434.66666 -515.6667 432 -499 C 429.33334 -482.33334 424.1667 -466.50003 416.50003 -451.50003 C 408.83334 -436.5 398.83337 -423.1667 386.5 -411.50003 C 374.16666 -399.83337 360.33334 -390.33334 345 -383.00003 C 362.33334 -375.66672 378.33334 -365.83337 393.00003 -353.50003 C 407.6667 -341.16666 419.5 -326.66666 428.50003 -310 C 437.5 -293.33334 443.66666 -275.6667 447 -257.00003 C 450.33334 -238.33333 452 -219.66664 452.00003 -201 C 452 -183.66667 450.83334 -166.5 448.5 -149.5 C 446.1667 -132.5 441.83334 -115.833336 435.5 -99.5 C 429.16666 -83.166664 420.8333 -68 410.50003 -54 C 400.1667 -39.999996 387.83337 -28.166664 373.5 -18.5 C 359.16663 -8.833334 343.5 -1.9999998 326.5 2 C 309.5 6 292.33334 8 275 8 Z " id="path1"/></defs><g><g fill="#ffffff" transform="translate(40 105.20961) rotate(0)"><use href="#path1" transform="translate(0 0) scale(0.09599999)"/></g></g></svg>