<svg xmlns="http://www.w3.org/2000/svg" height="160" viewBox="0 0 128 160" width="128"><defs><path d="M 18.000002 0 L 18.000002 -70.00001 L 66 -70.00001 C 68.66667 -100.666664 75.66667 -130.66667 87.00001 -160.00002 C 98.33333 -189.33333 112.33334 -217 129 -243.00002 L 206.00002 -368 L 129 -492.00003 C 112.33334 -518 98.33333 -545.6667 87.00001 -575 C 75.66667 -604.3333 68.66667 -634.3333 66 -665 L 18.000002 -665 L 18.000002 -735 L 188.00002 -735 L 188.00002 -665 L 144.00002 -665 C 146.66667 -641 152.5 -617.5 161.5 -594.5 C 170.5 -571.5 181.66666 -549.6667 195 -529 L 250 -439.00003 L 305.00003 -529 C 318.33334 -549.6667 329.5 -571.5 338.5 -594.5 C 347.49997 -617.5 353.3333 -641 356 -665 L 312 -665 L 312 -735 L 482 -735 L 482 -665 L 434.00003 -665 C 431.3333 -634.3333 424.3333 -604.3333 413 -575 C 401.66666 -545.6667 387.6667 -518 371.00003 -492.00003 L 294.00003 -367 L 371.00003 -243.00002 C 387.6667 -217 401.66666 -189.33333 413 -160.00002 C 424.3333 -130.66667 431.3333 -100.666664 434.00003 -70.00001 L 482 -70.00001 L 482 0 L 312 0 L 312 -70.00001 L 356 -70.00001 C 353.3333 -94.00001 347.49997 -117.5 338.5 -140.5 C 329.5 -163.5 318.33334 -185.33334 305.00003 -206.00002 L 250 -296 L 195 -206.00002 C 181.66666 -185.33334 170.5 -163.5 161.5 -140.5 C 152.5 -117.5 146.66667 -94.00001 144.00002 -70.00001 L 188.00002 -70.00001 L 188.00002 0 Z " id="path1"/></defs><g><g fill="#ffffff" transform="translate(40 105.20961) rotate(0)"><use href="#path1" transform="translate(0 0) scale(0.09599999)"/></g></g></svg>