<?xml version="1.0" encoding="UTF-8" standalone="no"?>
<svg height="160" viewBox="0 0 128 160" width="128" xmlns="http://www.w3.org/2000/svg">
<defs>
<path d="M 64 0 L 64 -665 L 18 -665 L 18 -735 L 142 -735 L 142 -374 Q 166 -400 189.5 -427 Q 213 -454 235 -482 Q 257 -510 278 -539 Q 299 -568 316.5 -599.5 Q 334 -631 346 -665 Q 358 -699 358 -735 L 436 -735 Q 436 -705 427.5 -675.5 Q 419 -646 406.5 -618.5 Q 394 -591 378 -565 Q 362 -539 344 -514 Q 326 -489 307.5 -465.5 Q 289 -442 269 -418 Q 289 -386 308.5 -353 Q 328 -320 346 -286.5 Q 364 -253 380.5 -218.5 Q 397 -184 410.5 -148 Q 424 -112 434 -75 Q 444 -38 444 0 L 366 0 Q 366 -33 358 -65 Q 350 -97 339 -128 Q 328 -159 314.5 -189 Q 301 -219 286 -248.5 Q 271 -278 255 -307 Q 239 -336 222 -364 Q 202 -342 182 -320 Q 162 -298 142 -276 L 142 0 Z " id="path1"/>
</defs>
<g>
<g data-source-text="К" fill="#dee4e3" transform="translate(40 104.99201) rotate(0) scale(0.09599999)">
<use href="#path1" transform="translate(0 0)"/>
</g>
</g>
</svg>