<svg xmlns="http://www.w3.org/2000/svg" height="160" viewBox="0 0 128 160" width="128"><defs><path d="M 247 8 C 231.66666 8 216.49998 6.833333 201.5 4.5000005 C 186.5 2.1666667 172 -1.8333335 158 -7.5000005 C 144 -13.166666 131 -20.833334 119 -30.5 C 107 -40.166668 96.83333 -51.333336 88.50001 -64 C 80.16667 -76.666664 73.833336 -90.333336 69.5 -105 C 65.166664 -119.66666 62.666668 -134.66667 62.000004 -150.00002 L 140.00002 -150.00002 C 140.66667 -136.66667 143.83333 -124.16667 149.5 -112.50001 C 155.16667 -100.83333 163.16667 -91 173.5 -83 C 183.83333 -75 195.33333 -69.5 208.00002 -66.5 C 220.66666 -63.5 233.66667 -62.000004 247 -62.000004 C 258.33334 -62.000004 269.5 -63.333336 280.5 -66 C 291.5 -68.66667 301.5 -73.333336 310.50003 -80.00001 C 319.5 -86.666664 327.16666 -94.666664 333.5 -104.00001 C 339.83334 -113.33333 344.83334 -123.333336 348.50003 -134 C 352.16666 -144.66667 354.6667 -155.5 356 -166.5 C 357.33334 -177.50002 358 -188.66667 358 -200.00002 L 358 -306 C 352.66666 -292 345.66666 -278.66666 337.00003 -266 C 328.33334 -253.33334 317.83334 -242.33334 305.50003 -233 C 293.16666 -223.66667 279.5 -217 264.5 -213 C 249.5 -209 234.66667 -207 220.00002 -207 C 203.33333 -207 187 -209.33334 171.00002 -214.00002 C 155 -218.66667 140.83334 -226.16667 128.50002 -236.50002 C 116.16667 -246.83333 105.66667 -259.16666 97.00001 -273.5 C 88.33333 -287.83334 81.5 -302.8333 76.5 -318.5 C 71.5 -334.16666 68.166664 -350.16666 66.5 -366.50003 C 64.833336 -382.83334 64 -399.00003 64 -415 L 64 -735 L 142 -735 L 142 -415 C 142 -403.66666 142.66666 -392.5 144.00002 -381.50003 C 145.33333 -370.50003 147.66666 -359.83334 151 -349.50003 C 154.33334 -339.16666 159.16667 -329.3333 165.50002 -320.00003 C 171.83333 -310.66666 179.33333 -302.66666 188.00002 -296 C 196.66666 -289.33334 206.33333 -284.5 217.00002 -281.5 C 227.66666 -278.5 238.66666 -277 250 -277.00003 C 261.33334 -277 272.33334 -278.5 283.00003 -281.5 C 293.6667 -284.5 303.33334 -289.33334 312 -296 C 320.6667 -302.66666 328.1667 -310.66666 334.5 -320.00003 C 340.83334 -329.3333 345.6667 -339.16666 349.00003 -349.50003 C 352.33334 -359.83334 354.6667 -370.50003 356 -381.50003 C 357.33334 -392.5 358 -403.66666 358 -415 L 358 -735 L 436 -735 L 436 -200.00002 C 435.99997 -182 434.66666 -164.16667 432 -146.5 C 429.33334 -128.83334 424.5 -111.833336 417.50003 -95.50001 C 410.49997 -79.16667 401.1667 -64.166664 389.50003 -50.500004 C 377.83337 -36.833336 364.33337 -25.5 349.00003 -16.5 C 333.66666 -7.5 317.16666 -1.1666665 299.50003 2.5000002 C 281.83334 6.1666665 264.33334 8 247 8 Z " id="path1"/></defs><g><g fill="#ffffff" transform="translate(40 105.20961) rotate(0)"><use href="#path1" transform="translate(0 0) scale(0.09599999)"/></g></g></svg>