<?xml version="1.0" encoding="UTF-8" standalone="no"?>
<svg height="160" viewBox="0 0 128 160" width="128" xmlns="http://www.w3.org/2000/svg">
<defs>
<path d="M 249 8 Q 224 8 199 4 Q 174 0 151.5 -10.5 Q 129 -21 110 -38 Q 91 -55 78.5 -76.5 Q 66 -98 60 -123 Q 54 -148 54 -173 L 54 -180 L 132 -180 L 132 -175 Q 132 -152 140 -130 Q 148 -108 164.5 -92 Q 181 -76 203.5 -69 Q 226 -62 249 -62 Q 272 -62 295 -69 Q 318 -76 334.5 -93 Q 351 -110 359 -132.5 Q 367 -155 367 -178 Q 367 -204 356.5 -228.5 Q 346 -253 328.5 -271.5 Q 311 -290 288.5 -303 Q 266 -316 243 -328 Q 220 -340 197.5 -352.5 Q 175 -365 155 -381 Q 135 -397 118 -416.5 Q 101 -436 89 -458.5 Q 77 -481 70.5 -506.5 Q 64 -532 64 -558 Q 64 -583 70 -608 Q 76 -633 88 -655 Q 100 -677 119 -694.5 Q 138 -712 160.5 -723.5 Q 183 -735 208.5 -739 Q 234 -743 259 -743 Q 306 -743 352 -728 Q 398 -713 436 -686 L 436 -555 L 359 -555 L 359 -649 Q 336 -661 310.5 -667 Q 285 -673 259 -673 Q 236 -673 213 -666 Q 190 -659 173.5 -642.5 Q 157 -626 149 -603 Q 141 -580 141 -557 Q 141 -531 151.5 -507 Q 162 -483 179.5 -464 Q 197 -445 219 -432 Q 241 -419 264 -407.5 Q 287 -396 309.5 -383 Q 332 -370 352.5 -354 Q 373 -338 390 -318.5 Q 407 -299 419 -276.5 Q 431 -254 437.5 -229 Q 444 -204 444 -178 Q 444 -152 438 -127.5 Q 432 -103 420 -80.5 Q 408 -58 389 -40.5 Q 370 -23 347.5 -12 Q 325 -1 299.5 3.5 Q 274 8 249 8 Z " id="path1"/>
</defs>
<g>
<g data-source-text="S" fill="#20242e" transform="translate(40 104.99201) rotate(0) scale(0.09599999)">
<use href="#path1" transform="translate(0 0)"/>
</g>
</g>
</svg>