<?xml version="1.0" encoding="UTF-8" standalone="no"?>
<svg height="160" viewBox="0 0 128 160" width="128" xmlns="http://www.w3.org/2000/svg">
<defs>
<path d="M 64 215 L 64 150 L 117 150 Q 138 150 157 143 Q 176 136 189.5 121 Q 203 106 208.5 86 Q 214 66 214 46 L 214 -46 Q 209 -35 201.5 -24.5 Q 194 -14 183.5 -6.5 Q 173 1 161 4.5 Q 149 8 136 8 Q 120 8 105 2 Q 90 -4 78.5 -15.5 Q 67 -27 60.5 -41.5 Q 54 -56 50 -71.5 Q 46 -87 44.5 -103 Q 43 -119 43 -135 L 43 -385 Q 43 -401 44.5 -417 Q 46 -433 50 -448.5 Q 54 -464 60.5 -478.5 Q 67 -493 78.5 -504.5 Q 90 -516 105 -522 Q 120 -528 136 -528 Q 149 -528 161 -524.5 Q 173 -521 183.5 -513.5 Q 194 -506 201.5 -495.5 Q 209 -485 214 -474 L 214 -566 Q 214 -589 218 -611.5 Q 222 -634 232 -654 Q 242 -674 258.5 -690.5 Q 275 -707 295 -717 Q 315 -727 337.5 -731 Q 360 -735 383 -735 L 436 -735 L 436 -670 L 383 -670 Q 362 -670 343 -663 Q 324 -656 310.5 -641 Q 297 -626 291.5 -606 Q 286 -586 286 -566 L 286 -474 Q 291 -485 298.5 -495.5 Q 306 -506 316.5 -513.5 Q 327 -521 339 -524.5 Q 351 -528 364 -528 Q 380 -528 395 -522 Q 410 -516 421.5 -504.5 Q 433 -493 439.5 -478.5 Q 446 -464 450 -448.5 Q 454 -433 455.5 -417 Q 457 -401 457 -385 L 457 -135 Q 457 -119 455.5 -103 Q 454 -87 450 -71.5 Q 446 -56 439.5 -41.5 Q 433 -27 421.5 -15.5 Q 410 -4 395 2 Q 380 8 364 8 Q 351 8 339 4.5 Q 327 1 316.5 -6.5 Q 306 -14 298.5 -24.5 Q 291 -35 286 -46 L 286 46 Q 286 69 282 91.5 Q 278 114 268 134 Q 258 154 241.5 170.5 Q 225 187 205 197 Q 185 207 162.5 211 Q 140 215 117 215 Z M 336 -57 Q 348 -57 359 -65 Q 370 -73 375.5 -84.5 Q 381 -96 383 -109 Q 385 -122 385 -135 L 385 -385 Q 385 -398 383 -411 Q 381 -424 375.5 -435.5 Q 370 -447 359 -455 Q 348 -463 336 -463 Q 323 -463 312 -455 Q 301 -447 295.5 -435.5 Q 290 -424 288 -411 Q 286 -398 286 -385 L 286 -135 Q 286 -122 288 -109 Q 290 -96 295.5 -84.5 Q 301 -73 312 -65 Q 323 -57 336 -57 Z M 164 -57 Q 177 -57 188 -65 Q 199 -73 204.5 -84.5 Q 210 -96 212 -109 Q 214 -122 214 -135 L 214 -385 Q 214 -398 212 -411 Q 210 -424 204.5 -435.5 Q 199 -447 188 -455 Q 177 -463 164 -463 Q 152 -463 141 -455 Q 130 -447 124.5 -435.5 Q 119 -424 117 -411 Q 115 -398 115 -385 L 115 -135 Q 115 -122 117 -109 Q 119 -96 124.5 -84.5 Q 130 -73 141 -65 Q 152 -57 164 -57 Z " id="path1"/>
</defs>
<g>
<g data-source-text="ф" fill="#20242e" transform="translate(40 104.99201) rotate(0) scale(0.09599999)">
<use href="#path1" transform="translate(0 0)"/>
</g>
</g>
</svg>