<?xml version="1.0" encoding="UTF-8" standalone="no"?>
<svg height="160" viewBox="0 0 128 160" width="128" xmlns="http://www.w3.org/2000/svg">
<defs>
<path d="M 467 8 Q 446 8 425 2.5 Q 404 -3 388.5 -17 Q 373 -31 365.5 -51.5 Q 358 -72 358 -93 L 358 -450 L 170 -450 L 170 -260 Q 170 -238 169.5 -216.5 Q 169 -195 167 -173 Q 165 -151 161 -129.5 Q 157 -108 149.5 -88 Q 142 -68 130 -49.5 Q 118 -31 99.5 -19.5 Q 81 -8 59.5 -4 Q 38 -0 16 0 L 16 -70 Q 30 -70 43.5 -76 Q 57 -82 65.5 -93 Q 74 -104 78 -118 Q 82 -132 84.5 -145.5 Q 87 -159 88.5 -173 Q 90 -187 91 -201.5 Q 92 -216 92 -230 Q 92 -244 92 -258 L 92 -520 L 436 -520 L 436 -93 Q 436 -87 438 -81 Q 440 -75 444.5 -70.5 Q 449 -66 455 -64 Q 461 -62 467 -62 L 482 -62 L 482 8 Z " id="path1"/>
</defs>
<g>
<g data-source-text="л" fill="#dee4e3" transform="translate(40 104.99201) rotate(0) scale(0.09599999)">
<use href="#path1" transform="translate(0 0)"/>
</g>
</g>
</svg>