<?xml version="1.0" encoding="UTF-8" standalone="no"?>
<svg height="160" viewBox="0 0 128 160" width="128" xmlns="http://www.w3.org/2000/svg">
<defs>
<path d="M 18 0 L 18 -70 L 64 -70 L 64 -665 L 18 -665 L 18 -735 L 233 -735 Q 259 -735 284.5 -730.5 Q 310 -726 333 -714.5 Q 356 -703 374.5 -684.5 Q 393 -666 405 -642.5 Q 417 -619 421.5 -593.5 Q 426 -568 426 -542 Q 426 -518 421.5 -493.5 Q 417 -469 405 -448 Q 393 -427 375 -410 Q 357 -393 335 -383 Q 361 -373 384.5 -356 Q 408 -339 423.5 -315 Q 439 -291 445.5 -263 Q 452 -235 452 -206 Q 452 -178 446.5 -149.5 Q 441 -121 427 -96 Q 413 -71 391.5 -52 Q 370 -33 344 -21 Q 318 -9 289.5 -4.5 Q 261 -0 233 0 Z M 142 -416 L 233 -416 Q 257 -416 280.5 -424 Q 304 -432 320 -450.5 Q 336 -469 342 -492.5 Q 348 -516 348 -541 Q 348 -565 342 -588.5 Q 336 -612 320 -630.5 Q 304 -649 280.5 -657 Q 257 -665 233 -665 L 142 -665 Z M 142 -70 L 233 -70 Q 252 -70 270.5 -73 Q 289 -76 305.5 -84 Q 322 -92 336 -105.5 Q 350 -119 359 -135.5 Q 368 -152 371 -170.5 Q 374 -189 374 -208 Q 374 -226 371 -245 Q 368 -264 359 -280.5 Q 350 -297 336.5 -310 Q 323 -323 306 -331.5 Q 289 -340 270.5 -343 Q 252 -346 233 -346 L 142 -346 Z " id="path1"/>
</defs>
<g>
<g data-source-text="B" fill="#20242e" transform="translate(40 104.99201) rotate(0) scale(0.09599999)">
<use href="#path1" transform="translate(0 0)"/>
</g>
</g>
</svg>