<?xml version="1.0" encoding="UTF-8" standalone="no"?>
<svg height="160" viewBox="0 0 128 160" width="128" xmlns="http://www.w3.org/2000/svg">
<defs>
<path d="M 250 8 Q 223 8 196.5 2.5 Q 170 -3 146.5 -16 Q 123 -29 104.5 -49.5 Q 86 -70 75 -94.5 Q 64 -119 60 -146 Q 56 -173 56 -200 L 56 -320 Q 56 -347 60 -374 Q 64 -401 75 -425.5 Q 86 -450 104.5 -470.5 Q 123 -491 146.5 -504 Q 170 -517 196.5 -522.5 Q 223 -528 250 -528 Q 299 -528 346.5 -514 Q 394 -500 436 -474 L 436 -340 L 359 -340 L 359 -435 Q 333 -446 305.5 -452 Q 278 -458 250 -458 Q 233 -458 216 -454 Q 199 -450 185 -440.5 Q 171 -431 160.5 -417 Q 150 -403 144 -387 Q 138 -371 136 -354 Q 134 -337 134 -320 L 134 -200 Q 134 -183 136 -166 Q 138 -149 144 -133 Q 150 -117 160.5 -103 Q 171 -89 185 -79.5 Q 199 -70 216 -66 Q 233 -62 250 -62 Q 278 -62 305.5 -68 Q 333 -74 359 -85 L 359 -180 L 436 -180 L 436 -46 Q 394 -20 346.5 -6 Q 299 8 250 8 Z " id="path1"/>
</defs>
<g>
<g data-source-text="c" fill="#20242e" transform="translate(40 104.99201) rotate(0) scale(0.09599999)">
<use href="#path1" transform="translate(0 0)"/>
</g>
</g>
</svg>