<?xml version="1.0" encoding="UTF-8" standalone="no"?>
<svg height="160" viewBox="0 0 128 160" width="128" xmlns="http://www.w3.org/2000/svg">
<defs>
<path d="M 211 0 L 211 -276 Q 202 -288 192.5 -301 Q 183 -314 175 -327 Q 163 -287 152 -246.5 Q 141 -206 132 -165.5 Q 123 -125 116.5 -83.5 Q 110 -42 110 0 L 32 0 Q 32 -53 42 -106 Q 52 -159 65 -210.5 Q 78 -262 93 -313 Q 108 -364 125 -415 Q 106 -452 90 -491 Q 74 -530 61.5 -570 Q 49 -610 40.5 -651.5 Q 32 -693 32 -735 L 110 -735 Q 110 -692 119.5 -649.5 Q 129 -607 142.5 -565.5 Q 156 -524 173.5 -484.5 Q 191 -445 211 -407 L 211 -735 L 289 -735 L 289 -407 Q 309 -445 326.5 -484.5 Q 344 -524 357.5 -565.5 Q 371 -607 380.5 -649.5 Q 390 -692 390 -735 L 468 -735 Q 468 -693 459.5 -651.5 Q 451 -610 438.5 -570 Q 426 -530 410 -491 Q 394 -452 375 -415 Q 392 -364 407 -313 Q 422 -262 435 -210.5 Q 448 -159 458 -106 Q 468 -53 468 0 L 390 0 Q 390 -42 383.5 -83.5 Q 377 -125 368 -165.5 Q 359 -206 348 -246.5 Q 337 -287 325 -327 Q 317 -314 307.5 -301 Q 298 -288 289 -276 L 289 0 Z " id="path1"/>
</defs>
<g>
<g data-source-text="Ж" fill="#20242e" transform="translate(40 104.99201) rotate(0) scale(0.09599999)">
<use href="#path1" transform="translate(0 0)"/>
</g>
</g>
</svg>