<?xml version="1.0" encoding="UTF-8" standalone="no"?>
<svg height="160" viewBox="0 0 128 160" width="128" xmlns="http://www.w3.org/2000/svg">
<defs>
<path d="M 15 0 L 15 -68 L 53 -68 L 57 -147 Q 62 -277 70.5 -407 Q 79 -537 80 -667 L 45 -667 L 45 -735 L 176 -735 L 250 -374 L 324 -735 L 455 -735 L 455 -667 L 420 -667 Q 421 -537 429.5 -407 Q 438 -277 443 -147 L 447 -68 L 485 -68 L 485 0 L 339 0 L 339 -68 L 371 -68 L 368 -147 Q 364 -254 360 -361.5 Q 356 -469 354 -577 L 281 -221 L 219 -221 L 146 -577 Q 144 -469 140 -361.5 Q 136 -254 132 -147 L 129 -68 L 161 -68 L 161 0 Z " id="path1"/>
</defs>
<g>
<g data-source-text="M" fill="#20242e" transform="translate(40 104.99201) rotate(0) scale(0.09599999)">
<use href="#path1" transform="translate(0 0)"/>
</g>
</g>
</svg>