<?xml version="1.0" encoding="UTF-8" standalone="no"?>
<svg height="160" viewBox="0 0 128 160" width="128" xmlns="http://www.w3.org/2000/svg">
<defs>
<path d="M -1 0 L -1 -70 L 72 -70 Q 89 -108 114 -141.5 Q 139 -175 168 -205 Q 142 -211 120 -225.5 Q 98 -240 83 -261.5 Q 68 -283 62 -308.5 Q 56 -334 56 -360 Q 56 -382 60 -403.5 Q 64 -425 74 -444 Q 84 -463 100 -478.5 Q 116 -494 135.5 -503.5 Q 155 -513 176.5 -516.5 Q 198 -520 219 -520 L 436 -520 L 436 0 L 358 0 L 358 -450 L 219 -450 Q 202 -450 184.5 -444.5 Q 167 -439 155 -425.5 Q 143 -412 138.5 -395 Q 134 -378 134 -360 Q 134 -342 138.5 -325 Q 143 -308 155 -295 Q 167 -282 184.5 -276 Q 202 -270 219 -270 L 301 -270 L 301 -200 L 266 -200 Q 251 -186 236 -172 Q 221 -158 207.5 -142.5 Q 194 -127 181.5 -111 Q 169 -95 158.5 -77 Q 148 -59 141 -39.5 Q 134 -20 134 0 Z " id="path1"/>
</defs>
<g>
<g data-source-text="Ñ" fill="#dee4e3" transform="translate(40 104.99201) rotate(0) scale(0.09599999)">
<use href="#path1" transform="translate(0 0)"/>
</g>
</g>
</svg>