<svg xmlns="http://www.w3.org/2000/svg" height="160" viewBox="0 0 128 160" width="128"><defs><path d="M 249 8 C 232.33333 8 215.66666 6.6666665 199 4 C 182.33334 1.3333335 166.5 -3.5000005 151.5 -10.500001 C 136.5 -17.500002 122.66667 -26.666666 110.00001 -38 C 97.333336 -49.333336 86.83334 -62.166668 78.50001 -76.5 C 70.166664 -90.83333 63.999996 -106.166664 60.000004 -122.50001 C 56 -138.83334 54 -155.33334 54 -172.00002 C 54 -172.66667 54 -173.16667 54 -173.5 C 54 -173.83333 54 -174.33334 54 -175 L 132 -175 C 132 -175 132 -174.83334 132 -174.50002 C 132 -174.16669 132 -173.66669 132 -173 C 132 -158.33334 134.66667 -143.66667 140.00002 -129 C 145.33333 -114.333336 153.5 -101.66667 164.5 -91 C 175.5 -80.333336 188.5 -72.83333 203.5 -68.50001 C 218.5 -64.166664 233.66667 -62.000004 249 -62.000004 C 264.33334 -62.000004 279.8333 -64.5 295.5 -69.5 C 311.16666 -74.5 324.3333 -82.833336 335 -94.50001 C 345.66666 -106.166664 353.6667 -119.66666 359.00003 -135 C 364.3333 -150.33333 366.99997 -166 367 -182 C 366.99997 -198.66666 363.49997 -215 356.5 -231.00002 C 349.5 -246.99998 340 -261.16666 328.00003 -273.5 C 316 -285.8333 302.5 -296.16666 287.5 -304.5 C 272.5 -312.83334 257.3333 -320.83334 242.00002 -328.50003 C 226.66666 -336.16666 211.66667 -344.1667 197.00002 -352.5 C 182.33334 -360.83334 168.33334 -370.3333 155 -381 C 141.66667 -391.66666 129.16667 -403.33334 117.5 -416.00003 C 105.833336 -428.6667 96 -442.50006 88 -457.50003 C 80 -472.50003 73.833336 -488.3333 69.5 -505 C 65.166664 -521.6667 62.999996 -538.6667 63 -556 C 62.999996 -571.3333 64.666664 -586.6666 68 -602 C 71.33333 -617.3333 75.833336 -632.1666 81.5 -646.5 C 87.16667 -660.8333 94.666664 -674.33325 104.00001 -687.00006 C 113.33333 -699.6667 124.5 -710.3334 137.5 -719.00006 C 150.5 -727.66675 164.66667 -733.8333 180.00002 -737.50006 C 195.33333 -741.1667 210.66666 -743.00006 226.00002 -743.00006 C 239.33334 -743.00006 252.5 -741.8334 265.50003 -739.50006 C 278.5 -737.1667 290.83334 -732.8333 302.50003 -726.50006 C 314.1667 -720.1667 324.83334 -712.49994 334.5 -703.50006 C 344.1667 -694.5 352.33334 -684.3334 359.00003 -673.00006 L 359.00003 -735 L 436 -735 L 436 -554.00006 L 359.00003 -554.00006 C 359.00003 -569.3333 357 -584.5 353.00003 -599.50006 C 349 -614.5 342.1667 -627.8334 332.5 -639.50006 C 322.83334 -651.1667 310.5 -659.6667 295.5 -665 C 280.49997 -670.3333 265.66666 -673.00006 251.00002 -673.00006 C 235.66669 -673.00006 220.66667 -670.3333 206.00002 -665 C 191.33334 -659.6667 179.16666 -651.1667 169.5 -639.50006 C 159.83333 -627.8334 152.66666 -614.6667 148 -600.00006 C 143.33333 -585.3333 141 -570.3333 141 -555 C 141 -538.3334 144.5 -522 151.5 -506.00003 C 158.5 -490.00003 167.83333 -475.83334 179.50002 -463.50003 C 191.16669 -451.1667 204.33336 -440.6667 219.00002 -432 C 233.66667 -423.33334 248.66666 -415.16666 264 -407.5 C 279.3333 -399.83334 294.3333 -391.8333 309 -383.50003 C 323.6667 -375.16666 337.83334 -365.83337 351.5 -355.50003 C 365.1667 -345.1667 377.6667 -333.66666 389.00003 -321 C 400.33334 -308.3333 410.1667 -294.5 418.5 -279.50003 C 426.8333 -264.5 433.1667 -248.66667 437.5 -232 C 441.83334 -215.33333 444.00003 -198.66666 444.00003 -182 C 444.00003 -164.66667 442 -147.66667 438.00003 -131 C 434.00003 -114.333336 428 -98.33333 420 -83 C 412 -67.66667 401.8333 -54 389.50003 -42.000004 C 377.1667 -30.000002 363.33334 -20.166666 348.00003 -12.500001 C 332.6667 -4.833334 316.5 0.5000001 299.50003 3.5 C 282.5 6.4999995 265.6667 8 249 8 Z " id="path1"/></defs><g><g fill="#ffffff" transform="translate(40 105.20961) rotate(0)"><use href="#path1" transform="translate(0 0) scale(0.09599999)"/></g></g></svg>