<?xml version="1.0" encoding="UTF-8" standalone="no"?>
<svg height="160" viewBox="0 0 128 160" width="128" xmlns="http://www.w3.org/2000/svg">
<defs>
<path d="M 203 223 Q 189 223 176 219.5 Q 163 216 152 208 L -12 73 L 32 24 L 196 159 Q 198 160 199.5 160 Q 201 160 203 160 Q 208 160 209.5 154.5 Q 211 149 211 144 L 211 0 L 209 0 Q 184 0 160 -6 Q 136 -12 115.5 -26 Q 95 -40 80.5 -60 Q 66 -80 57.5 -103 Q 49 -126 46 -150.5 Q 43 -175 43 -200 L 43 -320 Q 43 -345 46 -369.5 Q 49 -394 57.5 -417 Q 66 -440 80.5 -460 Q 95 -480 115.5 -494 Q 136 -508 160 -514 Q 184 -520 209 -520 L 211 -520 L 211 -566 Q 211 -589 215 -611.5 Q 219 -634 229 -654 Q 239 -674 255.5 -690.5 Q 272 -707 292 -717 Q 312 -727 334.5 -731 Q 357 -735 380 -735 L 436 -735 L 436 -665 L 380 -665 Q 361 -665 342.5 -658.5 Q 324 -652 311.5 -637.5 Q 299 -623 294 -604 Q 289 -585 289 -566 L 289 -520 L 291 -520 Q 316 -520 340 -514 Q 364 -508 384.5 -494 Q 405 -480 419.5 -460 Q 434 -440 442.5 -417 Q 451 -394 454 -369.5 Q 457 -345 457 -320 L 457 -200 Q 457 -175 454 -150.5 Q 451 -126 442.5 -103 Q 434 -80 419.5 -60 Q 405 -40 384.5 -26 Q 364 -12 340 -6 Q 316 0 291 0 L 289 0 L 289 144 Q 289 161 283 177 Q 277 193 264.5 203.5 Q 252 214 236 218.5 Q 220 223 203 223 Z M 209 -65 L 214 -65 L 214 -455 L 209 -455 Q 194 -455 179 -450 Q 164 -445 152.5 -434.5 Q 141 -424 134 -410 Q 127 -396 122.5 -381 Q 118 -366 116.5 -350.5 Q 115 -335 115 -320 L 115 -200 Q 115 -185 116.5 -169.5 Q 118 -154 122.5 -139 Q 127 -124 134 -110 Q 141 -96 152.5 -85.5 Q 164 -75 179 -70 Q 194 -65 209 -65 Z M 286 -65 L 291 -65 Q 306 -65 321 -70 Q 336 -75 347.5 -85.5 Q 359 -96 366 -110 Q 373 -124 377.5 -139 Q 382 -154 383.5 -169.5 Q 385 -185 385 -200 L 385 -320 Q 385 -335 383.5 -350.5 Q 382 -366 377.5 -381 Q 373 -396 366 -410 Q 359 -424 347.5 -434.5 Q 336 -445 321 -450 Q 306 -455 291 -455 L 286 -455 Z " id="path1"/>
</defs>
<g>
<g data-source-text="ф" fill="#dee4e3" transform="translate(40 104.99201) rotate(0) scale(0.09599999)">
<use href="#path1" transform="translate(0 0)"/>
</g>
</g>
</svg>