<svg xmlns="http://www.w3.org/2000/svg" height="160" viewBox="0 0 128 160" width="128"><defs><path d="M 358 0 L 358 -190 C 340 -184.66667 321.6667 -180.5 303 -177.50002 C 284.3333 -174.5 265.66666 -173 247 -173 C 229.66667 -173 212.66667 -174.66667 196 -178 C 179.33333 -181.33334 163.33333 -186.83334 148 -194.50002 C 132.66667 -202.16669 119 -212.33334 107.00001 -225.00002 C 95 -237.66667 85.66667 -251.83333 79 -267.5 C 72.333336 -283.16666 68.166664 -299.5 66.5 -316.50003 C 64.833336 -333.5 64 -350.66666 64 -368 L 64 -520.00006 L 142 -520.00006 L 142 -368 C 142 -356.66666 142.5 -345.5 143.5 -334.5 C 144.5 -323.5 147.33334 -313 152 -303 C 156.66667 -293 162.83334 -284 170.5 -276 C 178.16667 -268 187 -261.5 197.00002 -256.5 C 207 -251.5 217.5 -248 228.50002 -246.00002 C 239.50002 -244 250.33334 -243.00002 261 -243.00002 C 277.66666 -243.00002 294.1667 -244.50002 310.50003 -247.50002 C 326.83334 -250.49998 342.6667 -254.66666 358 -260.00003 L 358 -520.00006 L 436 -520.00006 L 436 0 Z " id="path1"/></defs><g><g fill="#000000" transform="translate(40 105.20961) rotate(0)"><use href="#path1" transform="translate(0 0) scale(0.09599999)"/></g></g></svg>