<svg xmlns="http://www.w3.org/2000/svg" height="160" viewBox="0 0 128 160" width="128"><defs><path d="M 251.00002 8 C 235 8 218.99998 6.833333 203.00002 4.5000005 C 187 2.1666667 171.66667 -2.0000002 157.00002 -8 C 142.33333 -14 128.83334 -22.166668 116.5 -32.500004 C 104.16667 -42.833336 94.00001 -55 86.00001 -69 C 78 -83 72.333336 -97.833336 69 -113.5 C 65.666664 -129.16667 64 -145 64 -161.00002 L 64 -520.00006 L 142 -520.00006 L 142 -321 L 250 -321 C 266 -321 281.83334 -320 297.5 -318 C 313.16666 -316 328.5 -312.16666 343.50003 -306.5 C 358.5 -300.83334 372.6667 -293.33334 386 -284 C 399.33334 -274.6667 410.49997 -263.5 419.5 -250.50002 C 428.5 -237.5 434.83334 -223.16667 438.50003 -207.5 C 442.16666 -191.83334 444.00003 -176 444.00003 -160.00002 C 444.00003 -143.33334 442.16666 -127.16667 438.50003 -111.50001 C 434.83334 -95.833336 428.6667 -81.166664 420 -67.5 C 411.33334 -53.833336 400.5 -42.000004 387.50003 -32 C 374.5 -22 360.5 -14 345.5 -8 C 330.5 -2.0000002 315 2.1666667 299 4.5000005 C 283 6.833333 267 8 251.00002 8 Z M 251.00002 -62.000004 C 265 -62.000004 279.16666 -63.666668 293.5 -67 C 307.8333 -70.333336 320.66666 -76.333336 332 -85 C 343.33334 -93.666664 351.83334 -104.66667 357.5 -118.00001 C 363.16666 -131.33333 366.00003 -145 366.00003 -159 C 366.00003 -168.33334 364.83337 -177.66667 362.5 -187 C 360.1667 -196.33333 356.1667 -204.66666 350.5 -212 C 344.8333 -219.33334 338 -225.66667 330 -231.00002 C 322 -236.33334 313.66666 -240.5 305.00003 -243.5 C 296.3333 -246.5 287.3333 -248.5 278 -249.5 C 268.66666 -250.50002 259.3333 -251.00002 250 -251.00002 L 142 -251.00002 L 142 -161.00002 C 142 -147.00002 144.5 -133.16667 149.5 -119.50001 C 154.5 -105.833336 162.33333 -94.5 173 -85.50001 C 183.66667 -76.5 195.83333 -70.333336 209.5 -67 C 223.16667 -63.666668 237 -62.000004 251.00002 -62.000004 Z " id="path1"/></defs><g><g fill="#000000" transform="translate(40 105.20961) rotate(0)"><use href="#path1" transform="translate(0 0) scale(0.09599999)"/></g></g></svg>