<?xml version="1.0" encoding="UTF-8" standalone="no"?>
<svg height="160" viewBox="0 0 128 160" width="128" xmlns="http://www.w3.org/2000/svg">
<defs>
<path d="M 135 0 Q 125 -45 115.5 -91 Q 106 -137 97.5 -182.5 Q 89 -228 81 -274 Q 73 -320 66.5 -366 Q 60 -412 55.5 -458.5 Q 51 -505 51 -551 L 51 -665 L 16 -665 L 16 -735 L 159 -735 L 159 -665 L 126 -665 L 126 -551 Q 126 -495 130 -438.5 Q 134 -382 140 -326 Q 146 -270 152.5 -214 Q 159 -158 166 -102 L 220 -441 L 220 -665 L 280 -665 L 280 -441 L 334 -102 Q 341 -158 347.5 -214 Q 354 -270 360 -326 Q 366 -382 370 -438.5 Q 374 -495 374 -551 L 374 -665 L 341 -665 L 341 -735 L 484 -735 L 484 -665 L 449 -665 L 449 -551 Q 449 -505 444.5 -458.5 Q 440 -412 433.5 -366 Q 427 -320 419 -274 Q 411 -228 402.5 -182.5 Q 394 -137 384.5 -91 Q 375 -45 365 0 L 305 0 L 250 -346 L 195 0 Z " id="path1"/>
</defs>
<g>
<g data-source-text="W" fill="#20242e" transform="translate(40 104.99201) rotate(0) scale(0.09599999)">
<use href="#path1" transform="translate(0 0)"/>
</g>
</g>
</svg>