<?xml version="1.0" encoding="UTF-8" standalone="no"?>
<svg height="160" viewBox="0 0 128 160" width="128" xmlns="http://www.w3.org/2000/svg">
<defs>
<path d="M 495 8 L 474 8 Q 456 8 437 3 Q 418 -2 404 -14.5 Q 390 -27 383.5 -45 Q 377 -63 377 -82 L 377 -520 L 449 -520 L 449 -82 Q 449 -77 450.5 -72 Q 452 -67 455.5 -63.5 Q 459 -60 464 -58.5 Q 469 -57 474 -57 L 495 -57 Z M 51 0 L 51 -520 L 123 -520 L 123 -321 L 179 -321 Q 199 -321 219 -316.5 Q 239 -312 255.5 -301 Q 272 -290 284.5 -274 Q 297 -258 304.5 -239 Q 312 -220 314.5 -200.5 Q 317 -181 317 -161 Q 317 -140 314.5 -120.5 Q 312 -101 304.5 -82 Q 297 -63 284.5 -47 Q 272 -31 255.5 -20 Q 239 -9 219 -4.5 Q 199 -0 179 0 Z M 123 -65 L 179 -65 Q 196 -65 210 -74 Q 224 -83 231.5 -97.5 Q 239 -112 242 -128 Q 245 -144 245 -161 Q 245 -177 242 -193 Q 239 -209 231.5 -223.5 Q 224 -238 210 -247 Q 196 -256 179 -256 L 123 -256 Z " id="path1"/>
</defs>
<g>
<g data-source-text="ы" fill="#dee4e3" transform="translate(40 104.99201) rotate(0) scale(0.09599999)">
<use href="#path1" transform="translate(0 0)"/>
</g>
</g>
</svg>