<svg xmlns="http://www.w3.org/2000/svg" height="160" viewBox="0 0 128 160" width="128"><defs><path d="M 64 0 L 64 -665 L 18.000002 -665 L 18.000002 -735 L 208.00002 -735 C 223.99998 -735 240.16667 -734 256.5 -732.00006 C 272.83334 -730.00006 288.6667 -726 304 -720.00006 C 319.33334 -714.00006 333.66666 -706.1667 347 -696.5 C 360.33328 -686.8333 371.66666 -675.3334 381 -662.00006 C 390.33334 -648.6667 397 -633.8334 401.00003 -617.5 C 404.99997 -601.1667 407 -585 407 -569 C 407 -554.3334 405.33334 -540 402 -526.00006 C 398.6667 -511.99997 392.99997 -498.99997 385 -487 C 377 -475 367.1667 -464.6667 355.50003 -456.00003 C 343.83337 -447.33334 331.33334 -440.33334 318 -435.00003 C 338.6667 -427.6667 357.83334 -417.5 375.5 -404.50003 C 393.1667 -391.5 408 -375.8333 420 -357.5 C 432 -339.16666 440.33334 -319.16666 445.00003 -297.5 C 449.6667 -275.83334 452 -254.33334 452.00003 -233 C 452 -211.66667 450.00003 -190.33333 446.00003 -169.00002 C 442 -147.66667 434.83334 -127.666664 424.5 -109 C 414.16666 -90.33333 401 -73.666664 385 -59.000004 C 369 -44.333332 351.33334 -32.5 332 -23.500002 C 312.66666 -14.5 292.5 -8.333334 271.50003 -5.0000005 C 250.50002 -1.6666669 229.33333 0 208.00002 0 Z M 142 -469.00003 L 208.00002 -469.00003 C 222.66667 -469.00003 237.33334 -470.5 252 -473.50003 C 266.66666 -476.5 280.1667 -482.33334 292.5 -491.00003 C 304.83334 -499.66666 314.1667 -510.8333 320.5 -524.5 C 326.83334 -538.1667 330 -552.3333 330 -567 C 330 -581.6666 326.6667 -596 320.00003 -610.00006 C 313.3333 -624 304 -635.1667 292 -643.5 C 280 -651.8333 266.66666 -657.5 252 -660.5 C 237.33334 -663.5 222.66667 -665 208.00002 -665 L 142 -665 Z M 208.00002 -70.00001 C 222.66667 -70.00001 237.33334 -71.333336 252 -74 C 266.66666 -76.666664 280.6667 -81.166664 294.00003 -87.5 C 307.33334 -93.83333 319.3333 -102.33333 330 -113.00001 C 340.66666 -123.666664 349.33334 -135.5 356 -148.50002 C 362.6667 -161.5 367.33334 -175.33334 370.00003 -190 C 372.6667 -204.66666 374 -219.33334 374 -234.00002 C 374 -249.33334 372.6667 -264.33334 370.00003 -279 C 367.33334 -293.66666 362.6667 -307.5 356 -320.5 C 349.33334 -333.5 340.66666 -345.33334 330 -356 C 319.3333 -366.6667 307.33334 -375.16666 294.00003 -381.50003 C 280.6667 -387.83334 266.66666 -392.33337 252 -395.00003 C 237.33334 -397.66672 222.66667 -399.00003 208.00002 -399.00003 L 142 -399.00003 L 142 -70.00001 Z " id="path1"/></defs><g><g fill="#ffffff" transform="translate(40 105.20961) rotate(0)"><use href="#path1" transform="translate(0 0) scale(0.09599999)"/></g></g></svg>