<?xml version="1.0" encoding="UTF-8" standalone="no"?>
<svg height="160" viewBox="0 0 128 160" width="128" xmlns="http://www.w3.org/2000/svg">
<defs>
<path d="M 252 8 Q 227 8 201.5 3.5 Q 176 -1 152.5 -12 Q 129 -23 110 -41 Q 91 -59 78.5 -81.5 Q 66 -104 60 -129 Q 54 -154 54 -180 L 132 -180 Q 132 -156 140 -133 Q 148 -110 165 -93.5 Q 182 -77 205.5 -69.5 Q 229 -62 252 -62 Q 270 -62 288 -66 Q 306 -70 320.5 -80.5 Q 335 -91 346 -105.5 Q 357 -120 363 -136.5 Q 369 -153 371.5 -171 Q 374 -189 374 -207 Q 374 -225 371.5 -242.5 Q 369 -260 362.5 -276.5 Q 356 -293 344.5 -307 Q 333 -321 318 -330.5 Q 303 -340 285.5 -343.5 Q 268 -347 250 -347 L 194 -347 L 194 -417 L 250 -417 Q 274 -417 296 -426 Q 318 -435 332.5 -453.5 Q 347 -472 352.5 -495.5 Q 358 -519 358 -542 Q 358 -566 353 -590 Q 348 -614 334 -633.5 Q 320 -653 297.5 -663 Q 275 -673 251 -673 Q 223 -673 195 -665 Q 167 -657 141 -646 L 141 -555 L 64 -555 L 64 -689 Q 108 -713 156 -728 Q 204 -743 253 -743 Q 279 -743 304 -737.5 Q 329 -732 351 -719 Q 373 -706 390 -686.5 Q 407 -667 417.5 -643.5 Q 428 -620 432 -594.5 Q 436 -569 436 -544 Q 436 -519 432 -495 Q 428 -471 416.5 -449 Q 405 -427 386.5 -410.5 Q 368 -394 346 -383 Q 372 -373 393 -354.5 Q 414 -336 428 -312 Q 442 -288 447 -260.5 Q 452 -233 452 -205 Q 452 -178 447.5 -150.5 Q 443 -123 431.5 -97.5 Q 420 -72 401.5 -51 Q 383 -30 359 -16.5 Q 335 -3 307.5 2.5 Q 280 8 252 8 Z " id="path1"/>
</defs>
<g>
<g data-source-text="З" fill="#20242e" transform="translate(40 104.99201) rotate(0) scale(0.09599999)">
<use href="#path1" transform="translate(0 0)"/>
</g>
</g>
</svg>