<?xml version="1.0" encoding="UTF-8" standalone="no"?>
<svg height="160" viewBox="0 0 128 160" width="128" xmlns="http://www.w3.org/2000/svg">
<defs>
<path d="M 253 8 Q 228 8 203 4 Q 178 0 156 -11 Q 134 -22 115.5 -39.5 Q 97 -57 85 -79 Q 73 -101 67.5 -125.5 Q 62 -150 62 -175 L 62 -180 L 140 -180 L 140 -177 Q 140 -154 147 -132 Q 154 -110 170 -93.5 Q 186 -77 208 -69.5 Q 230 -62 253 -62 Q 270 -62 286.5 -66 Q 303 -70 317 -80 Q 331 -90 340.5 -104 Q 350 -118 356 -133.5 Q 362 -149 364 -166 Q 366 -183 366 -200 L 366 -225 L 194 -225 L 194 -295 L 366 -295 L 366 -320 Q 366 -337 364 -354 Q 362 -371 356 -386.5 Q 350 -402 340.5 -416 Q 331 -430 317 -440 Q 303 -450 286.5 -454 Q 270 -458 253 -458 Q 230 -458 208 -450.5 Q 186 -443 170 -426.5 Q 154 -410 147 -388 Q 140 -366 140 -343 L 140 -340 L 62 -340 L 62 -345 Q 62 -370 67.5 -394.5 Q 73 -419 85 -441 Q 97 -463 115.5 -480.5 Q 134 -498 156 -509 Q 178 -520 203 -524 Q 228 -528 253 -528 Q 280 -528 306.5 -522.5 Q 333 -517 356 -503.5 Q 379 -490 396.5 -469.5 Q 414 -449 425 -424.5 Q 436 -400 440 -373.5 Q 444 -347 444 -320 L 444 -200 Q 444 -173 440 -146.5 Q 436 -120 425 -95.5 Q 414 -71 396.5 -50.5 Q 379 -30 356 -16.5 Q 333 -3 306.5 2.5 Q 280 8 253 8 Z " id="path1"/>
</defs>
<g>
<g data-source-text="Ñ" fill="#dee4e3" transform="translate(40 104.99201) rotate(0) scale(0.09599999)">
<use href="#path1" transform="translate(0 0)"/>
</g>
</g>
</svg>