<?xml version="1.0" encoding="UTF-8" standalone="no"?>
<svg height="160" viewBox="0 0 128 160" width="128" xmlns="http://www.w3.org/2000/svg">
<defs>
<path d="M 76 0 L 76 -70 L 129 -70 Q 139 -70 150 -72.5 Q 161 -75 168.5 -83 Q 176 -91 180 -101 Q 184 -111 187 -121 L 210 -200 Q 202 -228 193.5 -256.5 Q 185 -285 177 -313 L 72 -665 L 18 -665 L 18 -735 L 132 -735 L 251 -320 L 368 -735 L 449 -735 L 262 -102 Q 255 -79 245 -58 Q 235 -37 216.5 -22.5 Q 198 -8 175 -4 Q 152 -0 129 0 Z " id="path1"/>
</defs>
<g>
<g data-source-text="У" fill="#dee4e3" transform="translate(40 104.99201) rotate(0) scale(0.09599999)">
<use href="#path1" transform="translate(0 0)"/>
</g>
</g>
</svg>