<?xml version="1.0" encoding="UTF-8" standalone="no"?>
<svg height="160" viewBox="0 0 128 160" width="128" xmlns="http://www.w3.org/2000/svg">
<defs>
<path d="M 64 0 L 64 -46 Q 64 -102 81 -156 Q 98 -210 129 -256 L 204 -367 L 106 -406 L 131 -463 L 240 -420 L 306 -518 Q 328 -551 341 -588.5 Q 354 -626 357 -665 L 64 -665 L 64 -735 L 436 -735 L 436 -689 Q 436 -633 419 -579 Q 402 -525 371 -479 L 311 -391 L 394 -358 L 369 -301 L 276 -338 L 194 -217 Q 172 -184 159 -146.5 Q 146 -109 143 -70 L 367 -70 L 367 -145 L 436 -145 L 436 0 Z " id="path1"/>
</defs>
<g>
<g data-source-text="Z" fill="#20242e" transform="translate(40 104.99201) rotate(0) scale(0.09599999)">
<use href="#path1" transform="translate(0 0)"/>
</g>
</g>
</svg>