<?xml version="1.0" encoding="UTF-8" standalone="no"?>
<svg xmlns='http://www.w3.org/2000/svg' height="160" viewBox="0 0 128 160" width="128"><defs><path d="M 16 0 L 16 -70 Q 27 -70 38 -73.5 Q 49 -77 57.5 -84.5 Q 66 -92 72 -101.5 Q 78 -111 81.5 -121.5 Q 85 -132 87.5 -143 Q 90 -154 91 -165 Q 92 -176 92 -187 Q 92 -198 92 -209 L 92 -520 L 436 -520 L 436 0 L 358 0 L 358 -450 L 170 -450 L 170 -256 Q 170 -235 169.5 -213.5 Q 169 -192 167.5 -170.5 Q 166 -149 162 -127.5 Q 158 -106 150 -86 Q 142 -66 129 -48.5 Q 116 -31 98.5 -19 Q 81 -7 59.5 -3.5 Q 38 0 16 0 Z " id="path1"/></defs><g><g data-source-text="л" fill="#dee4e3" transform="translate(40 104.99201) rotate(0) scale(0.09599999)"><use href="#path1" transform="translate(0 0)"/></g></g></svg>