<?xml version="1.0" encoding="UTF-8" standalone="no"?>
<svg height="160" viewBox="0 0 128 160" width="128" xmlns="http://www.w3.org/2000/svg">
<defs>
<path d="M 67 215 L 67 145 L 150 145 Q 166 145 182 139.5 Q 198 134 208.5 121.5 Q 219 109 223 93 Q 227 77 227 60 L 227 -735 L 305 -735 L 305 60 Q 305 81 301.5 101.5 Q 298 122 288.5 141 Q 279 160 264 175 Q 249 190 230.5 199 Q 212 208 191.5 211.5 Q 171 215 150 215 Z " id="path1"/>
</defs>
<g>
<g data-source-text="J" fill="#dee4e3" transform="translate(40 104.99201) rotate(0) scale(0.09599999)">
<use href="#path1" transform="translate(0 0)"/>
</g>
</g>
</svg>