<svg xmlns="http://www.w3.org/2000/svg" height="160" viewBox="0 0 128 160" width="128"><defs><path d="M 64 0 L 64 -735 L 142 -735 L 142 -356 C 150.66666 -367.33334 159.5 -378.8333 168.50002 -390.5 C 177.50002 -402.16666 186.16667 -413.8333 194.50002 -425.5 C 202.83334 -437.16666 211.16667 -448.99997 219.50002 -461.00003 C 227.83331 -472.99997 235.99998 -485.1667 244 -497.50003 C 252 -509.83334 260 -522.1667 268 -534.5 C 276 -546.8333 283.5 -559.3333 290.5 -572 C 297.49997 -584.6667 304.33334 -597.5 311.00003 -610.50006 C 317.66666 -623.49994 323.83334 -636.8333 329.5 -650.50006 C 335.16672 -664.1667 340.33334 -678 345 -692 C 349.66666 -706.00006 352 -720.33325 352 -735 L 436 -735 C 435.99997 -719.6667 433.66663 -704.5 429.00003 -689.50006 C 424.33334 -674.5 419 -660 413 -646 C 407 -632 400.6667 -618 394.00003 -604 C 387.3333 -590 380.16666 -576.3334 372.50003 -563 C 364.83337 -549.6667 357.00003 -536.5 349.00003 -523.5 C 341 -510.49997 332.83334 -497.5 324.5 -484.50003 C 316.16666 -471.5 307.66666 -458.5 299 -445.50003 C 290.33334 -432.49997 281.66666 -420 273 -408 C 288.3333 -380.66666 303.5 -353.3333 318.5 -326 C 333.5 -298.6667 347.99997 -271.00003 362 -243.00002 C 376.00003 -215 389.1667 -186.66667 401.5 -158 C 413.8333 -129.33334 424.33334 -100.00001 433.00003 -70.00001 L 482 -70.00001 L 482 0 L 366.00003 0 C 366.00003 -20.666666 363 -41 357 -61 C 351 -81 344.33334 -100.666664 337.00003 -120.00001 C 329.66666 -139.33333 321.5 -158.5 312.5 -177.50002 C 303.5 -196.50002 294.33334 -215.33334 285 -234.00002 C 275.6667 -252.66669 266 -271 256 -289 C 246 -307 235.66666 -325.00003 225.00002 -343.00003 C 211.66667 -325.6667 198 -308.1667 184 -290.5 C 170 -272.8333 156 -255.66666 142 -239.00002 L 142 0 Z " id="path1"/></defs><g><g fill="#ffffff" transform="translate(40 105.20961) rotate(0)"><use href="#path1" transform="translate(0 0) scale(0.09599999)"/></g></g></svg>