<?xml version="1.0" encoding="UTF-8" standalone="no"?>
<svg height="160" viewBox="0 0 128 160" width="128" xmlns="http://www.w3.org/2000/svg">
<defs>
<path d="M 254 8 Q 230 8 206 4.5 Q 182 1 159.5 -8 Q 137 -17 118 -32.5 Q 99 -48 86.5 -68.5 Q 74 -89 69 -112.5 Q 64 -136 64 -161 L 64 -520 L 142 -520 L 142 -248 Q 151 -268 166 -284 Q 181 -300 200 -310.5 Q 219 -321 241 -325 Q 263 -329 284 -329 Q 306 -329 328 -325 Q 350 -321 369 -310.5 Q 388 -300 403 -283.5 Q 418 -267 427.5 -247.5 Q 437 -228 440.5 -206 Q 444 -184 444 -163 Q 444 -138 439 -114 Q 434 -90 421.5 -69.5 Q 409 -49 390 -33.5 Q 371 -18 349 -8.5 Q 327 1 302.5 4.5 Q 278 8 254 8 Z M 254 -62 Q 275 -62 296 -67 Q 317 -72 333.5 -85.5 Q 350 -99 358 -119 Q 366 -139 366 -161 Q 366 -182 358 -202.5 Q 350 -223 333.5 -236 Q 317 -249 296 -254 Q 275 -259 254 -259 Q 233 -259 212 -254 Q 191 -249 174.5 -235.5 Q 158 -222 150 -202 Q 142 -182 142 -161 Q 142 -139 150 -119 Q 158 -99 174.5 -85.5 Q 191 -72 212 -67 Q 233 -62 254 -62 Z " id="path1"/>
</defs>
<g>
<g data-source-text="ь" fill="#20242e" transform="translate(40 104.99201) rotate(0) scale(0.09599999)">
<use href="#path1" transform="translate(0 0)"/>
</g>
</g>
</svg>