<svg xmlns="http://www.w3.org/2000/svg" height="160" viewBox="0 0 128 160" width="128"><defs><path d="M 49 0 L 49 -70 L 95 -70 L 95 -450 L 49 -450 L 49 -520 L 219 -520 L 219 -450 L 173 -450 L 173 -270 Q 184 -281 194.5 -292 Q 205 -303 215.5 -314.5 Q 226 -326 236.5 -337.5 Q 247 -349 257 -361 Q 267 -373 276.5 -385 Q 286 -397 295.5 -409.5 Q 305 -422 313.5 -435 Q 322 -448 329.5 -461.5 Q 337 -475 343 -489.5 Q 349 -504 349 -520 L 482 -520 L 482 -450 L 412 -450 Q 388 -407 357 -368 Q 326 -329 293 -292 Q 312 -265 330.5 -238.5 Q 349 -212 366 -184.5 Q 383 -157 398.5 -128.5 Q 414 -100 427 -70 L 482 -70 L 482 0 L 366 0 Q 366 -23 358 -44 Q 350 -65 340 -85.5 Q 330 -106 318.5 -125.5 Q 307 -145 294.5 -164 Q 282 -183 269.5 -201.5 Q 257 -220 243 -238 Q 226 -220 208.5 -203 Q 191 -186 173 -169 L 173 -70 L 219 -70 L 219 0 Z " id="path1"/></defs><g><g fill="#dee4e3" transform="translate(40 105.20961) rotate(0)"><use href="#path1" transform="translate(0 0) scale(0.09599999)"/></g></g></svg>