<svg xmlns="http://www.w3.org/2000/svg" height="160" viewBox="0 0 128 160" width="128"><defs><path d="M 49 0 L 49 -70.00001 L 95 -70.00001 L 95 -450.00003 L 49 -450.00003 L 49 -520.00006 L 219.00002 -520.00006 L 219.00002 -450.00003 L 173 -450.00003 L 173 -294.00003 L 192 -317.00003 L 362 -520.00006 L 482 -520.00006 L 482 -450.00003 L 401.00003 -450.00003 L 276 -301 L 241 -260.00003 L 401.00003 -70.00001 L 482 -70.00001 L 482 0 L 362 0 L 183.00002 -213 L 173 -226.00002 L 173 -70.00001 L 219.00002 -70.00001 L 219.00002 0 Z " id="path1"/></defs><g><g fill="#ffffff" transform="translate(40 105.20961) rotate(0)"><use href="#path1" transform="translate(0 0) scale(0.09599999)"/></g></g></svg>