<?xml version="1.0" encoding="UTF-8" standalone="no"?>
<svg height="160" viewBox="0 0 128 160" width="128" xmlns="http://www.w3.org/2000/svg">
<defs>
<path d="M 276 8 Q 255 8 233.5 4 Q 212 -0 193 -10 Q 174 -20 159 -35.5 Q 144 -51 133 -69 L 133 0 L 64 0 L 64 -180 L 133 -180 Q 133 -156 140 -133 Q 147 -110 163.5 -93 Q 180 -76 203 -69 Q 226 -62 250 -62 Q 266 -62 283 -65.5 Q 300 -69 314 -78 Q 328 -87 338.5 -100.5 Q 349 -114 355.5 -129.5 Q 362 -145 364 -161.5 Q 366 -178 366 -195 L 366 -332 L 194 -332 L 194 -403 L 366 -403 L 366 -540 Q 366 -565 360.5 -589.5 Q 355 -614 340 -633.5 Q 325 -653 301.5 -663 Q 278 -673 253 -673 Q 230 -673 208 -666 Q 186 -659 170 -642.5 Q 154 -626 147 -604 Q 140 -582 140 -559 L 140 -555 L 62 -555 L 62 -561 Q 62 -586 67.5 -610.5 Q 73 -635 85 -656.5 Q 97 -678 115.5 -695.5 Q 134 -713 156.5 -724 Q 179 -735 203.5 -739 Q 228 -743 253 -743 Q 279 -743 305.5 -738 Q 332 -733 355 -720 Q 378 -707 396 -687 Q 414 -667 425 -643 Q 436 -619 440 -592.5 Q 444 -566 444 -540 L 444 -195 Q 444 -170 441 -145.5 Q 438 -121 429.5 -97.5 Q 421 -74 406 -53.5 Q 391 -33 370.5 -18.5 Q 350 -4 325.5 2 Q 301 8 276 8 Z " id="path1"/>
</defs>
<g>
<g data-source-text="Э" fill="#20242e" transform="translate(40 104.99201) rotate(0) scale(0.09599999)">
<use href="#path1" transform="translate(0 0)"/>
</g>
</g>
</svg>