<?xml version="1.0" encoding="UTF-8" standalone="no"?>
<svg height="160" viewBox="0 0 128 160" width="128" xmlns="http://www.w3.org/2000/svg">
<defs>
<path d="M 279 223 Q 258 223 238 220.5 Q 218 218 198.5 211 Q 179 204 162 192 Q 145 180 133 164 L 133 215 L 64 215 L 64 80 L 133 80 Q 133 93 138.5 105 Q 144 117 154 125.5 Q 164 134 176 139.5 Q 188 145 200.5 148 Q 213 151 226 152 Q 239 153 252 153 Q 270 153 287.5 149 Q 305 145 320 134.5 Q 335 124 346 109.5 Q 357 95 363.5 78.5 Q 370 62 372 44 Q 374 26 374 8 Q 374 -10 371.5 -27.5 Q 369 -45 362.5 -61.5 Q 356 -78 344.5 -92 Q 333 -106 318 -115.5 Q 303 -125 285.5 -128.5 Q 268 -132 250 -132 L 194 -132 L 194 -202 L 250 -202 Q 273 -202 295.5 -211 Q 318 -220 332.5 -238.5 Q 347 -257 352.5 -280 Q 358 -303 358 -327 Q 358 -352 352.5 -376 Q 347 -400 331.5 -419.5 Q 316 -439 292.5 -448.5 Q 269 -458 245 -458 Q 232 -458 219.5 -457 Q 207 -456 195 -453 Q 183 -450 171.5 -444.5 Q 160 -439 151 -430 Q 142 -421 137.5 -409 Q 133 -397 133 -385 L 64 -385 L 64 -520 L 133 -520 L 133 -470 Q 145 -486 161 -497.5 Q 177 -509 195 -516 Q 213 -523 232.5 -525.5 Q 252 -528 271 -528 Q 296 -528 319.5 -522 Q 343 -516 363 -502 Q 383 -488 397.5 -468 Q 412 -448 420.5 -425.5 Q 429 -403 432.5 -378.5 Q 436 -354 436 -330 Q 436 -305 432 -280.5 Q 428 -256 416.5 -234.5 Q 405 -213 386.5 -196 Q 368 -179 346 -168 Q 372 -158 393.5 -139.5 Q 415 -121 428.5 -96.5 Q 442 -72 447 -44.5 Q 452 -17 452 11 Q 452 37 448.5 62.5 Q 445 88 436 112.5 Q 427 137 412 158.5 Q 397 180 376 195 Q 355 210 330 216.5 Q 305 223 279 223 Z " id="path1"/>
</defs>
<g>
<g data-source-text="з" fill="#dee4e3" transform="translate(40 104.99201) rotate(0) scale(0.09599999)">
<use href="#path1" transform="translate(0 0)"/>
</g>
</g>
</svg>