<?xml version="1.0" encoding="UTF-8" standalone="no"?>
<svg height="160" viewBox="0 0 128 160" width="128" xmlns="http://www.w3.org/2000/svg">
<defs>
<path d="M 80 215 L 80 145 L 183 145 Q 202 145 220.5 138.5 Q 239 132 251.5 117.5 Q 264 103 269 84 Q 274 65 274 46 L 274 -665 L 138 -665 L 138 -735 L 352 -735 L 352 46 Q 352 69 348 91.5 Q 344 114 334 134.5 Q 324 155 308 171 Q 292 187 271.5 197 Q 251 207 228.5 211 Q 206 215 183 215 Z " id="path1"/>
</defs>
<g>
<g data-source-text="J" fill="#20242e" transform="translate(40 104.99201) rotate(0) scale(0.09599999)">
<use href="#path1" transform="translate(0 0)"/>
</g>
</g>
</svg>