<svg xmlns="http://www.w3.org/2000/svg" height="160" viewBox="0 0 128 160" width="128"><defs><path d="M 48 0 Q 48 -34 54.5 -68 Q 61 -102 69.5 -135.5 Q 78 -169 87.5 -202 Q 97 -235 108 -268 Q 119 -301 130 -333.5 Q 141 -366 153 -398 Q 141 -425 130 -452.5 Q 119 -480 108.5 -507.5 Q 98 -535 88 -563 Q 78 -591 70 -619.5 Q 62 -648 55 -676.5 Q 48 -705 48 -735 L 126 -735 Q 126 -711 131 -687.5 Q 136 -664 142.5 -641 Q 149 -618 156.5 -595.5 Q 164 -573 172.5 -550.5 Q 181 -528 189.5 -506 Q 198 -484 208 -462 L 211 -454 L 211 -735 L 289 -735 L 289 -454 Q 299 -476 308 -499 Q 317 -522 325.5 -545 Q 334 -568 342 -591.5 Q 350 -615 356.5 -638.5 Q 363 -662 368.5 -686 Q 374 -710 374 -735 L 452 -735 Q 452 -705 445 -676.5 Q 438 -648 430 -619.5 Q 422 -591 412 -563 Q 402 -535 391.5 -507.5 Q 381 -480 370 -452.5 Q 359 -425 347 -398 Q 359 -366 370 -333.5 Q 381 -301 392 -268 Q 403 -235 412.5 -202 Q 422 -169 430.5 -135.5 Q 439 -102 445.5 -68 Q 452 -34 452 0 L 374 0 Q 374 -39 366 -77 Q 358 -115 347.5 -152.5 Q 337 -190 325.5 -227 Q 314 -264 301 -300 Q 298 -294 295 -288 Q 292 -282 289 -276 L 289 0 L 211 0 L 211 -276 Q 208 -282 205 -288 Q 202 -294 199 -300 Q 186 -264 174.5 -227 Q 163 -190 153 -152.5 Q 143 -115 134.5 -77 Q 126 -39 126 0 Z " id="path1"/></defs><g><g fill="#20242e" transform="translate(40 105.20961) rotate(0)"><use href="#path1" transform="translate(0 0) scale(0.09599999)"/></g></g></svg>