<?xml version="1.0" encoding="UTF-8" standalone="no"?>
<svg xmlns="http://www.w3.org/2000/svg" height="160" viewBox="0 0 128 160" width="128"><defs><path d="M 249 8 Q 224 8 199.5 4 Q 175 -0 152.5 -10 Q 130 -20 111 -36 Q 92 -52 79 -73.5 Q 66 -95 60 -119 Q 54 -143 54 -168 Q 54 -169 54 -170.5 Q 54 -172 54 -173 L 132 -173 Q 132 -172 132 -171.5 Q 132 -171 132 -170 Q 132 -147 140.5 -125.5 Q 149 -104 165.5 -89 Q 182 -74 204 -68 Q 226 -62 249 -62 Q 272 -62 294.5 -69 Q 317 -76 333.5 -92 Q 350 -108 358.5 -130 Q 367 -152 367 -175 Q 367 -201 356 -225.5 Q 345 -250 327.5 -269 Q 310 -288 287.5 -301.5 Q 265 -315 242.5 -327.5 Q 220 -340 198 -354 Q 176 -368 155.5 -384.5 Q 135 -401 118 -420.5 Q 101 -440 89 -463 Q 77 -486 70.5 -511.5 Q 64 -537 64 -562 Q 64 -585 68.5 -607.5 Q 73 -630 81.5 -651 Q 90 -672 104.5 -690 Q 119 -708 138 -720.5 Q 157 -733 179.5 -738 Q 202 -743 225 -743 Q 225 -743 225 -743 Q 225 -743 225 -743 Q 245 -743 265 -739.5 Q 285 -736 302.5 -727 Q 320 -718 334.5 -704 Q 349 -690 359 -673 L 359 -735 L 436 -735 L 436 -554 L 359 -554 Q 359 -577 353 -599.5 Q 347 -622 332 -639.5 Q 317 -657 295 -665 Q 273 -673 250 -673 Q 228 -673 206.5 -665.5 Q 185 -658 170.5 -642 Q 156 -626 148.5 -604.5 Q 141 -583 141 -561 Q 141 -535 151.5 -511 Q 162 -487 180 -468 Q 198 -449 219.5 -435 Q 241 -421 264 -408 Q 287 -395 309 -381.5 Q 331 -368 351 -352 Q 371 -336 388.5 -316.5 Q 406 -297 418.5 -274.5 Q 431 -252 437.5 -226.5 Q 444 -201 444 -175 Q 444 -150 438 -125 Q 432 -100 419.5 -78 Q 407 -56 388.5 -39 Q 370 -22 347 -11 Q 324 0 299 4 Q 274 8 249 8 Z " id="path1"/></defs><g><g data-source-text="S" fill="#20242e" transform="translate(40 104.99201) rotate(0) scale(0.09599999)"><use href="#path1" transform="translate(0 0)"/></g></g></svg>