<?xml version="1.0" encoding="UTF-8" standalone="no"?>
<svg height="160" viewBox="0 0 128 160" width="128" xmlns="http://www.w3.org/2000/svg">
<defs>
<path d="M 27 0 L 27 -64 Q 37 -64 47.5 -67.5 Q 58 -71 65 -79 Q 72 -87 77.5 -96 Q 83 -105 87.5 -115 Q 92 -125 95.5 -135 Q 99 -145 102 -155.5 Q 105 -166 107.5 -176.5 Q 110 -187 112 -197.5 Q 114 -208 115.5 -218.5 Q 117 -229 118 -239.5 Q 119 -250 120 -260.5 Q 121 -271 122 -282 Q 123 -293 123.5 -303.5 Q 124 -314 124 -324.5 Q 124 -335 124 -346 Q 124 -357 124 -367 Q 124 -378 124 -389 Q 124 -400 124 -410.5 Q 124 -421 123.5 -431.5 Q 123 -442 122 -453 Q 121 -464 120 -474.5 Q 119 -485 118 -495.5 Q 117 -506 115.5 -516.5 Q 114 -527 112 -537.5 Q 110 -548 107.5 -558.5 Q 105 -569 102 -579.5 Q 99 -590 95.5 -600 Q 92 -610 87.5 -620 Q 83 -630 77.5 -639 Q 72 -648 65 -656 Q 58 -664 47.5 -667.5 Q 37 -671 27 -671 L 27 -735 Q 44 -735 60.5 -730.5 Q 77 -726 90.5 -715.5 Q 104 -705 115 -691.5 Q 126 -678 134 -663.5 Q 142 -649 148.5 -633 Q 155 -617 160.5 -601 Q 166 -585 170 -568.5 Q 174 -552 177 -535 Q 180 -518 182 -501 Q 184 -484 185.5 -467 Q 187 -450 187.5 -433 Q 188 -416 189 -399 L 215 -399 L 215 -735 L 285 -735 L 285 -399 L 311 -399 Q 312 -416 312.5 -433 Q 313 -450 314.5 -467 Q 316 -484 318 -501 Q 320 -518 323 -535 Q 326 -552 330 -568.5 Q 334 -585 339.5 -601 Q 345 -617 351.5 -633 Q 358 -649 366 -663.5 Q 374 -678 385 -691.5 Q 396 -705 409.5 -715.5 Q 423 -726 439.5 -730.5 Q 456 -735 473 -735 L 473 -671 Q 463 -671 452.5 -667.5 Q 442 -664 435 -656 Q 428 -648 422.5 -639 Q 417 -630 412.5 -620 Q 408 -610 404.5 -600 Q 401 -590 398 -579.5 Q 395 -569 392.5 -558.5 Q 390 -548 388 -537.5 Q 386 -527 384.5 -516.5 Q 383 -506 382 -495.5 Q 381 -485 380 -474.5 Q 379 -464 378 -453 Q 377 -442 376.5 -431.5 Q 376 -421 376 -410.5 Q 376 -400 376 -389 Q 376 -378 376 -368 Q 376 -357 376 -346 Q 376 -335 376 -324.5 Q 376 -314 376.5 -303.5 Q 377 -293 378 -282 Q 379 -271 380 -260.5 Q 381 -250 382 -239.5 Q 383 -229 384.5 -218.5 Q 386 -208 388 -197.5 Q 390 -187 392.5 -176.5 Q 395 -166 398 -155.5 Q 401 -145 404.5 -135 Q 408 -125 412.5 -115 Q 417 -105 422.5 -96 Q 428 -87 435 -79 Q 442 -71 452.5 -67.5 Q 463 -64 473 -64 L 473 0 Q 456 -0 439.5 -4.5 Q 423 -9 409.5 -19.5 Q 396 -30 385 -43.5 Q 374 -57 366 -71.5 Q 358 -86 351.5 -102 Q 345 -118 339.5 -134 Q 334 -150 330 -166.5 Q 326 -183 323 -200 Q 320 -217 318 -234 Q 316 -251 314.5 -268 Q 313 -285 312.5 -302 Q 312 -319 311 -336 L 285 -336 L 285 0 L 215 0 L 215 -336 L 189 -336 Q 188 -319 187.5 -302 Q 187 -285 185.5 -268 Q 184 -251 182 -234 Q 180 -217 177 -200 Q 174 -183 170 -166.5 Q 166 -150 160.5 -134 Q 155 -118 148.5 -102 Q 142 -86 134 -71.5 Q 126 -57 115 -43.5 Q 104 -30 90.5 -19.5 Q 77 -9 60.5 -4.5 Q 44 -0 27 0 Z " id="path1"/>
</defs>
<g>
<g data-source-text="Ж" fill="#dee4e3" transform="translate(40 104.99201) rotate(0) scale(0.09599999)">
<use href="#path1" transform="translate(0 0)"/>
</g>
</g>
</svg>