<svg xmlns="http://www.w3.org/2000/svg" height="160" viewBox="0 0 128 160" width="128"><defs><path d="M 64 0 L 64 -735 L 256 -735 C 274.00003 -735 291.83334 -733 309.5 -729.00006 C 327.1667 -725 343.6667 -718.1667 359.00003 -708.5 C 374.33334 -698.8333 387.6667 -686.8333 399.00003 -672.5 C 410.3333 -658.1667 419.5 -642.6667 426.50003 -626 C 433.5 -609.3333 438.16666 -592 440.50003 -574 C 442.83334 -556 444.00003 -538.00006 444.00003 -520.00006 C 444.00003 -496.6667 441.83334 -473.6667 437.5 -451.00003 C 433.1667 -428.33337 425.3333 -407.1667 414 -387.50003 C 402.66666 -367.83334 387.49997 -351 368.5 -337.00003 C 349.5 -323 329 -313.66666 307 -309 L 463.00003 0 L 380 0 L 226.00002 -304 L 142 -304 L 142 0 Z M 142 -374 L 256 -374 C 267.3333 -374 278.66666 -375.66666 290 -379 C 301.33334 -382.33334 311.5 -387.49997 320.5 -394.50003 C 329.5 -401.5 336.99997 -410.00003 343.00003 -420 C 349 -430 353.66663 -440.50003 357 -451.50003 C 360.33328 -462.50003 362.66666 -473.6667 364 -485.00003 C 365.33334 -496.33334 366.00003 -508 366.00003 -520.00006 C 366.00003 -531.3334 365.33334 -542.6667 364 -554.00006 C 362.66666 -565.3334 360.33328 -576.50006 357 -587.50006 C 353.66663 -598.50006 349 -609 343.00003 -619 C 336.99997 -629.00006 329.5 -637.5 320.5 -644.50006 C 311.5 -651.5 301.33334 -656.6667 290 -660 C 278.66666 -663.3334 267.3333 -665 256 -665 L 142 -665 Z " id="path1"/></defs><g><g fill="#000000" transform="translate(40 105.20961) rotate(0)"><use href="#path1" transform="translate(0 0) scale(0.09599999)"/></g></g></svg>