<?xml version="1.0" encoding="UTF-8" standalone="no"?>
<svg height="160" viewBox="0 0 128 160" width="128" xmlns="http://www.w3.org/2000/svg">
<defs>
<path d="M 482 8 L 467 8 Q 446 8 425 2.5 Q 404 -3 388.5 -17 Q 373 -31 365.5 -51.5 Q 358 -72 358 -93 L 358 -200 L 226 -200 Q 209 -200 192 -195 Q 175 -190 163.5 -177.5 Q 152 -165 147 -148.5 Q 142 -132 142 -115 L 142 -47 Q 142 -34 138.5 -21.5 Q 135 -9 126 0 L 48 0 Q 57 -9 60.5 -21.5 Q 64 -34 64 -47 L 64 -115 Q 64 -132 68 -148 Q 72 -164 81 -177.5 Q 90 -191 103.5 -201.5 Q 117 -212 132 -218 Q 113 -228 98 -243.5 Q 83 -259 73 -278 Q 63 -297 59.5 -318 Q 56 -339 56 -360 Q 56 -382 60 -403.5 Q 64 -425 74 -444 Q 84 -463 100 -478.5 Q 116 -494 135.5 -503.5 Q 155 -513 176.5 -516.5 Q 198 -520 219 -520 L 436 -520 L 436 -93 Q 436 -87 438 -81 Q 440 -75 444.5 -70.5 Q 449 -66 455 -64 Q 461 -62 467 -62 L 482 -62 Z M 358 -270 L 358 -450 L 219 -450 Q 202 -450 184.5 -444.5 Q 167 -439 155 -425.5 Q 143 -412 138.5 -395 Q 134 -378 134 -360 Q 134 -342 138.5 -325 Q 143 -308 155 -295 Q 167 -282 184.5 -276 Q 202 -270 219 -270 Z " id="path1"/>
</defs>
<g>
<g data-source-text="Ñ" fill="#dee4e3" transform="translate(40 104.99201) rotate(0) scale(0.09599999)">
<use href="#path1" transform="translate(0 0)"/>
</g>
</g>
</svg>