<svg xmlns="http://www.w3.org/2000/svg" height="160" viewBox="0 0 128 160" width="128"><defs><path d="M 64 0 L 64 -665 L 18.000002 -665 L 18.000002 -735 L 192 -735 C 208.66667 -735 225.33334 -733.6667 242.00002 -731.00006 C 258.6667 -728.3333 274.5 -723.3333 289.5 -716 C 304.5 -708.6667 318.66666 -699.6667 332 -689 C 345.33334 -678.3333 357.16666 -666.3333 367.5 -653 C 377.83334 -639.6666 386.83337 -625.6667 394.50003 -611.00006 C 402.1667 -596.3333 408.83334 -581.1666 414.5 -565.50006 C 420.16666 -549.8334 425 -533.8334 429.00003 -517.5 C 433.00003 -501.1667 436.00003 -484.6667 438.00003 -468.00003 C 440 -451.33334 441.49997 -434.66666 442.5 -418.00003 C 443.49997 -401.33334 444.00003 -384.66666 444.00003 -368 C 444.00003 -350.66666 443.49997 -333.66666 442.5 -317.00003 C 441.49997 -300.33334 440 -283.66666 438.00003 -267 C 436.00003 -250.33334 433.00003 -233.83334 429.00003 -217.50002 C 425 -201.16667 420.16666 -185.16666 414.5 -169.5 C 408.83334 -153.83333 402.1667 -138.66666 394.50003 -124.00001 C 386.83337 -109.33333 377.83334 -95.33333 367.5 -82.00001 C 357.16666 -68.66667 345.33334 -56.666668 332 -46 C 318.66666 -35.333336 304.5 -26.333332 289.5 -19 C 274.5 -11.666667 258.6667 -6.6666665 242.00002 -4 C 225.33334 -1.3333335 208.66667 0 192 0 Z M 192 -70.00001 C 205.33331 -70.00001 218.16667 -71.50001 230.50002 -74.5 C 242.83334 -77.5 254.5 -82.333336 265.50003 -89 C 276.5 -95.66667 286.33334 -103.83333 295 -113.5 C 303.6667 -123.166664 311.33334 -133.5 318 -144.5 C 324.66666 -155.5 330.5 -166.83333 335.5 -178.5 C 340.5 -190.16667 344.83334 -202.16669 348.50003 -214.50002 C 352.16666 -226.83333 355.1667 -239.33331 357.5 -252 C 359.83334 -264.6667 361.6667 -277.5 363 -290.5 C 364.3333 -303.5 365.1667 -316.3333 365.50003 -329 C 365.83337 -341.66666 366.00003 -354.6667 366.00003 -368 C 366.00003 -380.66666 365.83337 -393.33337 365.50003 -406.00003 C 365.1667 -418.66666 364.3333 -431.49997 363 -444.50003 C 361.6667 -457.5 359.83334 -470.3333 357.5 -483 C 355.1667 -495.6667 352.16666 -508.1667 348.50003 -520.50006 C 344.83334 -532.8334 340.5 -544.8334 335.5 -556.5 C 330.5 -568.1667 324.66666 -579.5 318 -590.5 C 311.33334 -601.5 303.6667 -611.8333 295 -621.50006 C 286.33334 -631.1667 276.5 -639.3334 265.50003 -646 C 254.5 -652.6667 242.83334 -657.5 230.50002 -660.5 C 218.16667 -663.5 205.33331 -665 192 -665 L 142 -665 L 142 -70.00001 Z " id="path1"/></defs><g><g fill="#ffffff" transform="translate(40 105.20961) rotate(0)"><use href="#path1" transform="translate(0 0) scale(0.09599999)"/></g></g></svg>