<?xml version="1.0" encoding="UTF-8" standalone="no"?>
<svg height="160" viewBox="0 0 128 160" width="128" xmlns="http://www.w3.org/2000/svg">
<defs>
<path d="M 332 8 Q 310 8 289 -1 Q 268 -10 248 -19.5 Q 228 -29 207 -37 Q 186 -45 164 -52 L 134 -61 L 134 0 L 64 0 L 64 -159 L 366 -594 L 366 -602 L 323 -617 Q 304 -624 285.5 -631.5 Q 267 -639 249 -648 L 247 -649 L 246 -649 Q 228 -658 208.5 -665.5 Q 189 -673 168 -673 Q 156 -673 148.5 -663 Q 141 -653 138 -642 Q 135 -631 134 -619 Q 133 -607 133 -596 L 133 -553 L 56 -553 L 56 -596 Q 56 -613 58 -630.5 Q 60 -648 65.5 -664.5 Q 71 -681 80 -696 Q 89 -711 102.5 -722 Q 116 -733 133.5 -738 Q 151 -743 168 -743 Q 192 -743 215 -735.5 Q 238 -728 260 -718.5 Q 282 -709 304 -700 Q 326 -691 349 -683 L 366 -677 L 366 -735 L 436 -735 L 436 -576 L 134 -141 L 134 -135 L 187 -118 Q 200 -115 212 -110.5 Q 224 -106 236 -100.5 Q 248 -95 259.5 -88.5 Q 271 -82 282.5 -76.5 Q 294 -71 306.5 -66.5 Q 319 -62 332 -62 Q 344 -62 351.5 -72 Q 359 -82 362 -93 Q 365 -104 366 -116 Q 367 -128 367 -139 L 367 -183 L 444 -183 L 444 -139 Q 444 -122 442 -104.5 Q 440 -87 434.5 -70.5 Q 429 -54 420 -39 Q 411 -24 397.5 -13 Q 384 -2 366.5 3 Q 349 8 332 8 Z " id="path1"/>
</defs>
<g>
<g data-source-text="Z" fill="#20242e" transform="translate(40 104.99201) rotate(0) scale(0.09599999)">
<use href="#path1" transform="translate(0 0)"/>
</g>
</g>
</svg>