<?xml version="1.0" encoding="UTF-8" standalone="no"?>
<svg height="160" viewBox="0 0 128 160" width="128" xmlns="http://www.w3.org/2000/svg">
<defs>
<path d="M 64 0 L 64 -74 Q 64 -124 70.5 -174 Q 77 -224 86.5 -273.5 Q 96 -323 107 -372.5 Q 118 -422 130.5 -470.5 Q 143 -519 156.5 -568 Q 170 -617 184 -665 L 109 -665 L 109 -735 L 295 -735 Q 311 -681 327 -626.5 Q 343 -572 357.5 -517.5 Q 372 -463 385 -408 Q 398 -353 409 -297.5 Q 420 -242 428 -186 Q 436 -130 436 -74 L 436 0 L 358 0 L 358 -74 Q 358 -103 356 -132 Q 354 -161 350 -190 L 150 -190 Q 146 -161 144 -132 Q 142 -103 142 -74 L 142 0 Z M 160 -260 L 340 -260 Q 324 -362 300 -463 Q 276 -564 250 -664 Q 224 -564 200 -463 Q 176 -362 160 -260 Z " id="path1"/>
</defs>
<g>
<g data-source-text="A" fill="#20242e" transform="translate(40 104.99201) rotate(0) scale(0.09599999)">
<use href="#path1" transform="translate(0 0)"/>
</g>
</g>
</svg>