<?xml version="1.0" encoding="UTF-8" standalone="no"?>
<svg height="160" viewBox="0 0 128 160" width="128" xmlns="http://www.w3.org/2000/svg">
<defs>
<path d="M 211 107 L 211 6 Q 188 3 165.5 -6 Q 143 -15 124.5 -30 Q 106 -45 92.5 -64.5 Q 79 -84 70.5 -106.5 Q 62 -129 59 -152.5 Q 56 -176 56 -200 L 56 -320 Q 56 -344 59 -367.5 Q 62 -391 70.5 -413.5 Q 79 -436 92.5 -455.5 Q 106 -475 124.5 -490 Q 143 -505 165.5 -514 Q 188 -523 211 -526 L 211 -628 L 289 -628 L 289 -525 Q 321 -521 350 -505.5 Q 379 -490 399 -465 Q 419 -440 428.5 -408.5 Q 438 -377 438 -345 L 438 -340 L 360 -340 L 360 -343 Q 360 -361 355.5 -379 Q 351 -397 341 -412.5 Q 331 -428 316 -438.5 Q 301 -449 283 -454 L 280 -293 L 220 -293 L 217 -455 Q 196 -450 178.5 -436 Q 161 -422 151 -403 Q 141 -384 137.5 -363 Q 134 -342 134 -320 L 134 -200 Q 134 -178 137.5 -157 Q 141 -136 151 -117 Q 161 -98 178.5 -84 Q 196 -70 217 -65 L 220 -227 L 280 -227 L 283 -66 Q 301 -71 316 -81.5 Q 331 -92 341 -107.5 Q 351 -123 355.5 -141 Q 360 -159 360 -177 L 360 -180 L 438 -180 L 438 -175 Q 438 -143 428.5 -111.5 Q 419 -80 399 -55 Q 379 -30 350 -14.5 Q 321 1 289 5 L 289 107 Z " id="path1"/>
</defs>
<g>
<g data-source-text="¢" fill="#dee4e3" transform="translate(40 104.99201) rotate(0) scale(0.09599999)">
<use href="#path1" transform="translate(0 0)"/>
</g>
</g>
</svg>