<svg xmlns="http://www.w3.org/2000/svg" height="160" viewBox="0 0 128 160" width="128"><defs><path d="M 254 8 Q 204 8 156 -6.5 Q 108 -21 64 -46 L 64 -188 L 141 -188 L 141 -88 Q 168 -77 196 -69.5 Q 224 -62 253 -62 Q 276 -62 298 -70 Q 320 -78 336 -95 Q 352 -112 359.5 -134.5 Q 367 -157 367 -180 Q 367 -206 356.5 -230 Q 346 -254 328 -272 Q 310 -290 288 -303 Q 266 -316 243 -328 Q 220 -340 198 -352.5 Q 176 -365 156 -381 Q 136 -397 119 -416 Q 102 -435 89.5 -457 Q 77 -479 70.5 -504 Q 64 -529 64 -555 Q 64 -579 69.5 -603.5 Q 75 -628 85.5 -650 Q 96 -672 113 -690.5 Q 130 -709 151.5 -721 Q 173 -733 197.5 -738 Q 222 -743 247 -743 Q 296 -743 344 -728 Q 392 -713 436 -689 L 436 -555 L 359 -555 L 359 -646 Q 333 -657 305 -665 Q 277 -673 248 -673 Q 226 -673 204.5 -664.5 Q 183 -656 169 -638.5 Q 155 -621 148 -599.5 Q 141 -578 141 -555 Q 141 -530 151.5 -506 Q 162 -482 179.5 -463.5 Q 197 -445 219.5 -432 Q 242 -419 264.5 -407.5 Q 287 -396 309 -383 Q 331 -370 351.5 -354.5 Q 372 -339 389 -320 Q 406 -301 418.5 -278.5 Q 431 -256 437.5 -231 Q 444 -206 444 -181 Q 444 -156 438 -131 Q 432 -106 420.5 -84 Q 409 -62 391.5 -43.5 Q 374 -25 351.5 -13.5 Q 329 -2 304 3 Q 279 8 254 8 Z " id="path1"/></defs><g><g fill="#dee4e3" transform="translate(40 105.20961) rotate(0)"><use href="#path1" transform="translate(0 0) scale(0.09599999)"/></g></g></svg>