<svg xmlns="http://www.w3.org/2000/svg" height="160" viewBox="0 0 128 160" width="128"><defs><path d="M 76 0 L 76 -70.00001 L 129 -70.00001 C 136.33334 -70.00001 143.5 -71 150.5 -73 C 157.5 -75 163.5 -78.833336 168.50002 -84.50001 C 173.49998 -90.16667 177.33333 -96.5 180.00002 -103.5 C 182.66667 -110.5 184.99998 -117.333336 187 -124.00001 L 209.00002 -189.00002 L 93.00001 -533 C 89.666664 -543 86.333336 -553.3333 83 -564 C 79.666664 -574.6667 76.666664 -585.3334 74 -596 C 71.333336 -606.6667 69 -617.5 67 -628.50006 C 65 -639.5 64 -650.6667 64 -662.00006 L 64 -735 L 142 -735 L 142 -662.00006 C 142 -646.6667 144 -631.6667 148 -617.00006 C 152 -602.3333 156.33334 -587.6667 161.00002 -573 L 161.00002 -573 C 161.00002 -573 161.00002 -573 161.00002 -573 C 161.00002 -573 161.00002 -573 161.00002 -573 C 161.00002 -573 161.00002 -572.8333 161.00002 -572.5 C 161.00002 -572.1667 161.00002 -572 161.00002 -572 L 161.00002 -572 L 161.00002 -572 C 161.66667 -570.6667 162.16666 -569.3333 162.50002 -568 C 162.83334 -566.6667 163.33333 -565.3334 164.00002 -564 L 164.00002 -563 C 164.66667 -561.6667 165.33333 -560.3333 166 -559.00006 C 166.66666 -557.6667 166.99998 -556.3333 167 -555 L 250 -298 L 333 -555 C 333 -556.3333 333.3333 -557.6667 334 -559.00006 C 334.66666 -560.3333 335.33334 -561.6667 336.00003 -563 C 336.00003 -563 336.00003 -563 336.00003 -563 C 336.00003 -563 336.00003 -563 336.00003 -563 L 336.00003 -563 C 336.00003 -563 336.00003 -563 336.00003 -563 C 336.00003 -563 336.00003 -563 336.00003 -563 C 336.00003 -563 336.00003 -563 336.00003 -563 C 336.00003 -563 336.00003 -563.3333 336.00003 -564 C 336.6667 -565.3334 337.1667 -566.6667 337.50003 -568 C 337.83334 -569.3333 338.33334 -570.6667 339 -572 L 339 -573 C 343.66666 -587 347.99997 -601.5 352 -616.50006 C 356 -631.5 358 -646.6667 358 -662.00006 L 358 -735 L 436 -735 L 436 -662.00006 C 435.99997 -650.6667 435 -639.5 433.00003 -628.50006 C 431 -617.5 428.66666 -606.6667 426 -596 C 423.33334 -585.3334 420.33334 -574.6667 417.00003 -564 C 413.6667 -553.3333 410.3333 -543 407 -533 L 261 -102 C 260.33334 -100.666664 259.83334 -99.5 259.5 -98.50001 C 259.16666 -97.5 259 -96.33333 259 -95 L 259 -95 L 259 -95 C 254.33333 -81 248.33333 -67.333336 241 -54 C 233.66667 -40.666664 224.16667 -29.666668 212.5 -21.000002 C 200.83333 -12.333334 187.66666 -6.6666665 173 -4 C 158.33334 -1.3333335 143.66667 0 129 0 Z " id="path1"/></defs><g><g fill="#000000" transform="translate(40 105.20961) rotate(0)"><use href="#path1" transform="translate(0 0) scale(0.09599999)"/></g></g></svg>