<?xml version="1.0" encoding="UTF-8" standalone="no"?>
<svg height="160" viewBox="0 0 128 160" width="128" xmlns="http://www.w3.org/2000/svg">
<defs>
<path d="M 279 8 Q 258 8 238 4.5 Q 218 1 199.5 -8 Q 181 -17 166.5 -31.5 Q 152 -46 141 -63 L 141 0 L 64 0 L 64 -180 L 141 -180 Q 141 -157 147.5 -134 Q 154 -111 169.5 -94 Q 185 -77 207.5 -69.5 Q 230 -62 254 -62 Q 270 -62 287 -66 Q 304 -70 317.5 -80 Q 331 -90 341 -104 Q 351 -118 356.5 -134 Q 362 -150 364 -166.5 Q 366 -183 366 -200 L 366 -225 L 194 -225 L 194 -295 L 366 -295 L 366 -320 Q 366 -337 364 -353.5 Q 362 -370 356.5 -386 Q 351 -402 341 -416 Q 331 -430 317.5 -440 Q 304 -450 287 -454 Q 270 -458 254 -458 Q 230 -458 207.5 -450.5 Q 185 -443 169.5 -426 Q 154 -409 147.5 -386 Q 141 -363 141 -340 L 64 -340 L 64 -520 L 141 -520 L 141 -457 Q 152 -474 166.5 -488.5 Q 181 -503 199.5 -512 Q 218 -521 238 -524.5 Q 258 -528 279 -528 Q 304 -528 328.5 -521.5 Q 353 -515 373 -500 Q 393 -485 407.5 -464 Q 422 -443 430 -419 Q 438 -395 441 -370 Q 444 -345 444 -320 L 444 -200 Q 444 -175 441 -150 Q 438 -125 430 -101 Q 422 -77 407.5 -56 Q 393 -35 373 -20 Q 353 -5 328.5 1.5 Q 304 8 279 8 Z " id="path1"/>
</defs>
<g>
<g data-source-text="Ñ" fill="#dee4e3" transform="translate(40 104.99201) rotate(0) scale(0.09599999)">
<use href="#path1" transform="translate(0 0)"/>
</g>
</g>
</svg>