<?xml version="1.0" encoding="UTF-8" standalone="no"?>
<svg height="160" viewBox="0 0 128 160" width="128" xmlns="http://www.w3.org/2000/svg">
<defs>
<path d="M 482 8 L 467 8 Q 446 8 425 2.5 Q 404 -3 388.5 -17 Q 373 -31 365.5 -51.5 Q 358 -72 358 -93 L 358 -191 Q 331 -183 302.5 -178 Q 274 -173 245 -173 Q 219 -173 194 -178 Q 169 -183 146.5 -195 Q 124 -207 106.5 -226 Q 89 -245 79 -268.5 Q 69 -292 66.5 -317.5 Q 64 -343 64 -368 L 64 -520 L 142 -520 L 142 -368 Q 142 -352 143.5 -335 Q 145 -318 151.5 -303 Q 158 -288 169.5 -276 Q 181 -264 196 -256.5 Q 211 -249 227.5 -246 Q 244 -243 260 -243 Q 285 -243 309.5 -248 Q 334 -253 358 -261 L 358 -520 L 436 -520 L 436 -93 Q 436 -87 438 -81 Q 440 -75 444.5 -70.5 Q 449 -66 455 -64 Q 461 -62 467 -62 L 482 -62 Z " id="path1"/>
</defs>
<g>
<g data-source-text="ч" fill="#dee4e3" transform="translate(40 104.99201) rotate(0) scale(0.09599999)">
<use href="#path1" transform="translate(0 0)"/>
</g>
</g>
</svg>