<?xml version="1.0" encoding="UTF-8" standalone="no"?>
<svg height="160" viewBox="0 0 128 160" width="128" xmlns="http://www.w3.org/2000/svg">
<defs>
<path d="M 249 8 Q 224 8 199.5 4 Q 175 -0 152 -10 Q 129 -20 110.5 -36.5 Q 92 -53 79 -74.5 Q 66 -96 60 -120.5 Q 54 -145 54 -170 L 54 -174 L 132 -174 L 132 -171 Q 132 -148 140 -126.5 Q 148 -105 165 -90 Q 182 -75 204 -68.5 Q 226 -62 249 -62 Q 272 -62 295 -69 Q 318 -76 334.5 -92.5 Q 351 -109 359 -132 Q 367 -155 367 -178 Q 367 -204 356.5 -228 Q 346 -252 328 -270.5 Q 310 -289 288 -302.5 Q 266 -316 243 -328 Q 220 -340 198 -353 Q 176 -366 156 -382 Q 136 -398 118.5 -417 Q 101 -436 89 -459 Q 77 -482 70.5 -507 Q 64 -532 64 -558 Q 64 -582 69.5 -606.5 Q 75 -631 86.5 -653 Q 98 -675 115.5 -693 Q 133 -711 155 -722.5 Q 177 -734 201.5 -738.5 Q 226 -743 251 -743 Q 275 -743 299.5 -739 Q 324 -735 346 -724.5 Q 368 -714 385.5 -697 Q 403 -680 415 -658.5 Q 427 -637 432.5 -613 Q 438 -589 438 -565 L 438 -561 L 360 -561 L 360 -564 Q 360 -585 353 -606.5 Q 346 -628 331 -643.5 Q 316 -659 294.5 -666 Q 273 -673 251 -673 Q 229 -673 207 -665 Q 185 -657 170 -640.5 Q 155 -624 148 -602 Q 141 -580 141 -557 Q 141 -532 151.5 -507.5 Q 162 -483 179.5 -464.5 Q 197 -446 219.5 -432.5 Q 242 -419 264.5 -407.5 Q 287 -396 309.5 -382.5 Q 332 -369 352 -353 Q 372 -337 389 -318 Q 406 -299 418.5 -276.5 Q 431 -254 437.5 -228.5 Q 444 -203 444 -178 Q 444 -152 438 -127.5 Q 432 -103 420 -80.5 Q 408 -58 389 -40.5 Q 370 -23 347.5 -12 Q 325 -1 299.5 3.5 Q 274 8 249 8 Z " id="path1"/>
</defs>
<g>
<g data-source-text="S" fill="#dee4e3" transform="translate(40 104.99201) rotate(0) scale(0.09599999)">
<use href="#path1" transform="translate(0 0)"/>
</g>
</g>
</svg>