<?xml version="1.0" encoding="UTF-8" standalone="no"?>
<svg height="160" viewBox="0 0 128 160" width="128" xmlns="http://www.w3.org/2000/svg">
<defs>
<path d="M 246 8 Q 220 8 193.5 3 Q 167 -2 144 -15 Q 121 -28 103.5 -48 Q 86 -68 75 -92 Q 64 -116 60 -142.5 Q 56 -169 56 -195 L 56 -540 Q 56 -567 60.5 -594 Q 65 -621 77 -645 Q 89 -669 108 -689 Q 127 -709 151 -721 Q 175 -733 202 -738 Q 229 -743 256 -743 Q 304 -743 350.5 -728 Q 397 -713 436 -686 L 436 -555 L 359 -555 L 359 -648 Q 335 -660 308.5 -666.5 Q 282 -673 256 -673 Q 239 -673 222 -669.5 Q 205 -666 190 -657.5 Q 175 -649 163.5 -635.5 Q 152 -622 145.5 -606.5 Q 139 -591 136.5 -574 Q 134 -557 134 -540 L 134 -195 Q 134 -179 136 -162.5 Q 138 -146 144 -130.5 Q 150 -115 160 -101.5 Q 170 -88 183.5 -79 Q 197 -70 213.5 -66 Q 230 -62 246 -62 Q 262 -62 278.5 -66 Q 295 -70 308.5 -79 Q 322 -88 332 -101.5 Q 342 -115 348 -130.5 Q 354 -146 356 -162.5 Q 358 -179 358 -195 L 358 -400 L 436 -400 L 436 -195 Q 436 -169 432 -142.5 Q 428 -116 417 -92 Q 406 -68 388.5 -48 Q 371 -28 348 -15 Q 325 -2 298.5 3 Q 272 8 246 8 Z " id="path1"/>
</defs>
<g>
<g data-source-text="G" fill="#20242e" transform="translate(40 104.99201) rotate(0) scale(0.09599999)">
<use href="#path1" transform="translate(0 0)"/>
</g>
</g>
</svg>