<svg xmlns="http://www.w3.org/2000/svg" height="160" viewBox="0 0 128 160" width="128"><defs><path d="M 228.00002 8 C 212 8 195.99998 6.4999995 180.00002 3.5 C 164 0.5000001 148.83333 -4.666667 134.5 -12 C 120.166664 -19.333334 107.333336 -29 96 -41.000004 C 84.66667 -53 75.333336 -66.16667 68 -80.50001 C 60.666668 -94.833336 55.166668 -110 51.500004 -126 C 47.833336 -142 46 -158 46 -174.00002 C 46 -174.00002 46 -174.33334 46 -175 C 46 -175.66666 46 -176 46 -176 L 124.00001 -176 C 124.00001 -176 124.00001 -175.83333 124.00001 -175.5 C 124.00001 -175.16666 124.00001 -175 124.00001 -175 C 124.00001 -160.33331 126.166664 -145.83333 130.5 -131.50002 C 134.83334 -117.16667 141.66667 -104.66667 151 -94.00001 C 160.33334 -83.333336 172.00002 -75.333336 186.00002 -70.00001 C 200.00002 -64.66667 214 -62.000004 228.00002 -62.000004 C 239.33334 -62.000004 250.16666 -63.333336 260.5 -66 C 270.83334 -68.66667 280.33334 -73.333336 289 -80.00001 C 297.6667 -86.666664 305 -94.5 311.00003 -103.5 C 317 -112.50001 321.6667 -122 325.00003 -132 C 328.33334 -142 330.66666 -152.33334 332 -163 C 333.3333 -173.66666 333.99997 -184.33333 334 -195 L 334 -735 L 412.00003 -735 L 412.00003 -195 C 412.00003 -177.66667 410.6667 -160.5 408 -143.5 C 405.33334 -126.49999 400.6667 -110 394.00003 -94.00001 C 387.3333 -78 378.33334 -63.16667 367 -49.5 C 355.66666 -35.833332 342.66663 -24.666666 328.00003 -16 C 313.3333 -7.3333335 297.33334 -1.1666665 280.00003 2.5000002 C 262.66666 6.1666665 245.33333 8 228.00002 8 Z " id="path1"/></defs><g><g fill="#000000" transform="translate(40 105.20961) rotate(0)"><use href="#path1" transform="translate(0 0) scale(0.09599999)"/></g></g></svg>