<svg xmlns="http://www.w3.org/2000/svg" height="160" viewBox="0 0 128 160" width="128"><defs><path d="M 48 0 C 54.666664 -10 58.999996 -20.833334 61 -32.500004 C 63 -44.16667 64 -56.000008 64 -68 L 64 -169.00002 C 64 -185.00002 65.333336 -200.83333 68 -216.50002 C 70.66667 -232.16667 75.66667 -247 83 -261 C 90.333336 -274.99997 99.66667 -287.5 111.00001 -298.5 C 122.33333 -309.5 135.33333 -318.3333 150.00002 -325.00003 C 133.33333 -334.3333 118.666664 -346.16666 106 -360.50003 C 93.333336 -374.83334 83.16667 -390.66666 75.5 -408 C 67.833336 -425.33334 62.666668 -443.50003 60.000004 -462.50003 C 57.333332 -481.5 55.999996 -500.66672 56 -520.00006 C 55.999996 -538.00006 57.166668 -556 59.5 -574 C 61.833332 -592 66.5 -609.3333 73.50001 -626 C 80.50001 -642.6667 89.666664 -658.1667 101.00001 -672.5 C 112.33333 -686.8333 125.666664 -698.8333 141 -708.5 C 156.33333 -718.1667 172.83333 -725 190.5 -729.00006 C 208.16667 -733 226 -735 244 -735 L 436 -735 L 436 0 L 358 0 L 358 -304 L 226.00002 -304 C 216 -304 206.33334 -302 197.00002 -298 C 187.66669 -294 179.66669 -288.3333 173 -281 C 166.33333 -273.66666 161 -265.5 157.00002 -256.5 C 153 -247.50002 149.83334 -238.16667 147.5 -228.50002 C 145.16667 -218.83333 143.66667 -209 143 -199 C 142.33333 -189 142 -179 142 -169.00002 L 142 -68 C 142 -56.000008 140.83333 -44.16667 138.50002 -32.500004 C 136.16667 -20.833334 132 -10 126 0 Z M 244 -374 L 358 -374 L 358 -665 L 244 -665 C 232.66666 -665 221.33333 -663.3334 210 -660 C 198.66666 -656.6667 188.50002 -651.5 179.50002 -644.50006 C 170.5 -637.5 163 -629.00006 157.00002 -619 C 151 -609 146.33333 -598.50006 143 -587.50006 C 139.66667 -576.50006 137.33334 -565.3334 136 -554.00006 C 134.66667 -542.6667 134 -531.3334 134 -520.00006 C 134 -508 134.66667 -496.33334 136 -485.00003 C 137.33334 -473.6667 139.66667 -462.50003 143 -451.50003 C 146.33333 -440.50003 151 -430 157.00002 -420 C 163 -410.00003 170.5 -401.5 179.50002 -394.50003 C 188.50002 -387.49997 198.66666 -382.33334 210 -379 C 221.33333 -375.66666 232.66666 -374 244 -374 Z " id="path1"/></defs><g><g fill="#ffffff" transform="translate(40 105.20961) rotate(0)"><use href="#path1" transform="translate(0 0) scale(0.09599999)"/></g></g></svg>