<svg xmlns="http://www.w3.org/2000/svg" height="160" viewBox="0 0 128 160" width="128"><defs><path d="M 276 8 L 275 8 C 263.00003 8 250.66667 7.1666665 238 5.5 C 225.33334 3.8333333 213.16666 0.9999999 201.5 -3 C 189.83333 -7 178.83333 -12.666668 168.50002 -20.000002 C 158.16666 -27.333334 149 -36 141 -46 L 141 0 L 64 0 L 64 -181 L 141 -181 L 141 -136 C 141 -128 142.5 -120.00001 145.50002 -112 C 148.5 -104.00001 152.83334 -97.00001 158.50002 -91 C 164.16667 -85 170.66666 -80.166664 178 -76.5 C 185.33334 -72.83333 193 -69.83333 201 -67.5 C 209 -65.166664 217.16667 -63.666664 225.50002 -63 C 233.83331 -62.333336 241.99998 -62.000004 250 -62.000004 C 260 -62.000004 269.6667 -62.5 279 -63.500004 C 288.33334 -64.5 297.5 -66.16667 306.5 -68.50001 C 315.5 -70.833336 324.33334 -74.333336 333 -79 C 341.66666 -83.66667 349.1667 -89.333336 355.50003 -96 C 361.83334 -102.66666 366.5 -110.666664 369.5 -120.00001 C 372.5 -129.33333 374 -138.66666 374 -148 C 374 -157.33333 372.5 -166.66666 369.5 -176 C 366.5 -185.33334 361.83334 -193.50002 355.50003 -200.50002 C 349.1667 -207.5 341.66666 -213.33333 333 -218 C 324.33334 -222.66667 315.5 -226.33334 306.5 -229 C 297.5 -231.66666 288.16666 -233.33334 278.5 -234.00002 C 268.8333 -234.66667 259.3333 -235 250 -235 L 194.00002 -235 L 194.00002 -305.00003 L 250 -305.00003 C 262.66666 -305 275.16666 -306.16666 287.5 -308.50003 C 299.8333 -310.83334 311.5 -315 322.50003 -321 C 333.5 -327 342.1667 -335.66666 348.50003 -347 C 354.83334 -358.33337 358 -370.00003 358 -382.00003 C 358 -390.6667 356.66666 -399.00003 354.00003 -407 C 351.3333 -414.99997 347.16666 -422.00003 341.5 -428.00003 C 335.8333 -434.00003 329.33334 -438.99997 322.00003 -443 C 314.6667 -447 307 -450.16663 299 -452.5 C 291 -454.8333 282.8333 -456.33334 274.5 -457.00003 C 266.1667 -457.66666 258 -457.99997 250 -458 C 250 -457.99997 250 -457.99997 250 -458 C 250 -457.99997 250 -457.99997 250 -458 C 241.33333 -457.99997 233 -457.66666 225.00002 -457.00003 C 217 -456.33334 209 -454.8333 201 -452.5 C 193 -450.16663 185.33334 -447.16666 178 -443.50003 C 170.66666 -439.83334 164 -435 158 -429.00003 C 152 -423 147.66667 -415.99997 145 -408 C 142.33333 -400 141 -391.99997 141 -384 L 141 -339 L 64 -339 L 64 -520.00006 L 141 -520.00006 L 141 -474.00003 C 149 -483.99997 158.16666 -492.5 168.50002 -499.5 C 178.83333 -506.49997 189.83333 -512.1666 201.5 -516.5 C 213.16666 -520.8333 225.16667 -523.8333 237.50002 -525.50006 C 249.83333 -527.1667 262.3333 -528 275 -528 C 274.99997 -528 274.99997 -528 275 -528 C 274.99997 -528 274.99997 -528 275 -528 C 295.66666 -528 316 -525.5 336.00003 -520.50006 C 356.00003 -515.5 373.83334 -506.49997 389.50003 -493.5 C 405.16663 -480.5 416.83334 -464.33334 424.5 -445.00003 C 432.16666 -425.66666 435.99997 -405.6667 436 -385 C 435.99997 -373 434.5 -360.83334 431.5 -348.50003 C 428.50003 -336.16666 423.5 -325.1667 416.50003 -315.5 C 409.50003 -305.83334 401 -297.33334 391 -290 C 381 -282.6667 370.33337 -276.66666 359.00003 -272 C 372.33334 -266.66666 385 -260.16666 397 -252.5 C 409 -244.83331 419.33334 -235.49998 428.00003 -224.5 C 436.66666 -213.49998 442.8333 -201 446.50003 -187 C 450.1667 -173 452 -159 452.00003 -145 C 452 -130.33334 450.1667 -115.833336 446.50003 -101.50001 C 442.8333 -87.16667 437.16666 -73.833336 429.50003 -61.500004 C 421.83337 -49.16667 412.1667 -38.333336 400.50003 -29 C 388.83334 -19.666668 376.1667 -12.166667 362.5 -6.5000005 C 348.83334 -0.8333335 334.66666 3 320.00003 5.0000005 C 305.33334 7 290.66666 8 276 8 Z " id="path1"/></defs><g><g fill="#000000" transform="translate(40 105.20961) rotate(0)"><use href="#path1" transform="translate(0 0) scale(0.09599999)"/></g></g></svg>