<?xml version="1.0" encoding="UTF-8" standalone="no"?>
<svg height="160" viewBox="0 0 128 160" width="128" xmlns="http://www.w3.org/2000/svg">
<defs>
<path d="M 374 0 L 374 -520 L 452 -520 L 452 0 Z M 48 0 L 48 -520 L 126 -520 L 126 -321 L 180 -321 Q 200 -321 219.5 -316.5 Q 239 -312 256 -301 Q 273 -290 285.5 -274 Q 298 -258 305.5 -239.5 Q 313 -221 315.5 -201 Q 318 -181 318 -161 Q 318 -140 315.5 -120 Q 313 -100 305.5 -81.5 Q 298 -63 285.5 -47 Q 273 -31 256 -20 Q 239 -9 219.5 -4.5 Q 200 -0 180 0 Z M 126 -70 L 180 -70 Q 195 -70 208.5 -78.5 Q 222 -87 229 -100.5 Q 236 -114 238 -129.5 Q 240 -145 240 -161 Q 240 -176 238 -191.5 Q 236 -207 229 -220.5 Q 222 -234 208.5 -242.5 Q 195 -251 180 -251 L 126 -251 Z " id="path1"/>
</defs>
<g>
<g data-source-text="ы" fill="#dee4e3" transform="translate(40 104.99201) rotate(0) scale(0.09599999)">
<use href="#path1" transform="translate(0 0)"/>
</g>
</g>
</svg>