<svg xmlns="http://www.w3.org/2000/svg" height="160" viewBox="0 0 128 160" width="128"><defs><path d="M 219 8 Q 194 8 170 1.5 Q 146 -5 126 -19.5 Q 106 -34 92 -54.5 Q 78 -75 70 -98 Q 62 -121 59 -145.5 Q 56 -170 56 -195 L 56 -540 Q 56 -565 59 -590 Q 62 -615 71 -638.5 Q 80 -662 95 -682.5 Q 110 -703 130.5 -717 Q 151 -731 175.5 -737 Q 200 -743 225 -743 Q 225 -743 225 -743 Q 225 -743 225 -743 Q 245 -743 264.5 -739.5 Q 284 -736 302 -727 Q 320 -718 334.5 -704 Q 349 -690 359 -673 L 359 -735 L 436 -735 L 436 -554 L 359 -554 Q 359 -577 353 -599.5 Q 347 -622 332 -639.5 Q 317 -657 295 -665 Q 273 -673 250 -673 Q 233 -673 216.5 -669.5 Q 200 -666 186 -657 Q 172 -648 161.5 -634.5 Q 151 -621 144.5 -605.5 Q 138 -590 136 -573.5 Q 134 -557 134 -540 L 134 -195 Q 134 -178 136 -161.5 Q 138 -145 144.5 -129.5 Q 151 -114 161 -101 Q 171 -88 185.5 -79 Q 200 -70 216 -66 Q 232 -62 249 -62 Q 265 -62 281.5 -66 Q 298 -70 311 -79.5 Q 324 -89 333.5 -102.5 Q 343 -116 348.5 -131 Q 354 -146 356 -162.5 Q 358 -179 358 -195 L 358 -400 L 436 -400 L 436 0 L 367 0 L 367 -115 Q 360 -90 347.5 -66.5 Q 335 -43 315.5 -25.5 Q 296 -8 270.5 0 Q 245 8 219 8 Z " id="path1"/></defs><g><g fill="#dee4e3" transform="translate(40 105.20961) rotate(0)"><use href="#path1" transform="translate(0 0) scale(0.09599999)"/></g></g></svg>