<svg xmlns="http://www.w3.org/2000/svg" height="160" viewBox="0 0 128 160" width="128"><defs><path d="M 247 8 Q 221 8 194 2.5 Q 167 -3 144 -16.5 Q 121 -30 103.5 -50.5 Q 86 -71 75 -95.5 Q 64 -120 60 -146.5 Q 56 -173 56 -200 L 56 -320 Q 56 -345 59 -370.5 Q 62 -396 70.5 -420 Q 79 -444 94 -465 Q 109 -486 129.5 -500.5 Q 150 -515 175 -521.5 Q 200 -528 225 -528 Q 245 -528 265 -524.5 Q 285 -521 302.5 -512 Q 320 -503 334.5 -489 Q 349 -475 359 -458 L 359 -520 L 436 -520 L 436 -339 L 359 -339 Q 359 -362 353 -384.5 Q 347 -407 332 -424.5 Q 317 -442 295 -450 Q 273 -458 250 -458 Q 233 -458 216 -454 Q 199 -450 185 -440.5 Q 171 -431 160.5 -417 Q 150 -403 144 -387 Q 138 -371 136 -354 Q 134 -337 134 -320 L 134 -200 Q 134 -183 136 -166 Q 138 -149 144 -133.5 Q 150 -118 159.5 -104 Q 169 -90 183 -80 Q 197 -70 213.5 -66 Q 230 -62 247 -62 Q 270 -62 292 -69.5 Q 314 -77 330 -93.5 Q 346 -110 353 -132 Q 360 -154 360 -177 Q 360 -177 360 -177.5 Q 360 -178 360 -178 L 438 -178 Q 438 -177 438 -176.5 Q 438 -176 438 -176 Q 438 -151 432.5 -126.5 Q 427 -102 415 -80 Q 403 -58 385 -40.5 Q 367 -23 344.5 -12 Q 322 -1 297 3.5 Q 272 8 247 8 Z " id="path1"/></defs><g><g fill="#20242e" transform="translate(40 105.20961) rotate(0)"><use href="#path1" transform="translate(0 0) scale(0.09599999)"/></g></g></svg>