<svg xmlns="http://www.w3.org/2000/svg" height="160" viewBox="0 0 128 160" width="128"><defs><path d="M 67 215 L 67 145 L 150.00002 145 C 160.66667 145 171.33334 143.16667 182 139.5 C 192.66666 135.83333 201.5 129.83333 208.50002 121.50001 C 215.5 113.166664 220.33334 103.666664 223.00002 93.00001 C 225.66667 82.333336 227 71.333336 227 60.000004 L 227 -735 L 305.00003 -735 L 305.00003 60.000004 C 305 74 303.83334 87.83333 301.5 101.50001 C 299.16666 115.166664 294.83334 128.33333 288.50003 141 C 282.16666 153.66667 274 165 264 175 C 254 184.99998 242.83334 193 230.50002 199 C 218.16667 205.00002 205.16666 209.16667 191.50002 211.50002 C 177.83333 213.83334 164 215 150.00002 215 Z " id="path1"/></defs><g><g fill="#ffffff" transform="translate(40 105.20961) rotate(0)"><use href="#path1" transform="translate(0 0) scale(0.09599999)"/></g></g></svg>