<?xml version="1.0" encoding="UTF-8" standalone="no"?>
<svg height="160" viewBox="0 0 128 160" width="128" xmlns="http://www.w3.org/2000/svg">
<defs>
<path d="M 34 0 L 34 -70 L 80 -70 L 80 -665 L 34 -665 L 34 -735 L 226 -735 L 226 -665 L 158 -665 L 158 -569 L 234 -569 Q 262 -569 289.5 -564.5 Q 317 -560 342 -548.5 Q 367 -537 387.5 -517.5 Q 408 -498 421 -474 Q 434 -450 439 -422.5 Q 444 -395 444 -368 Q 444 -340 439 -312.5 Q 434 -285 421 -261 Q 408 -237 387.5 -217.5 Q 367 -198 342 -186.5 Q 317 -175 289.5 -170.5 Q 262 -166 234 -166 L 158 -166 L 158 -70 L 226 -70 L 226 0 Z M 158 -236 L 234 -236 Q 252 -236 269.5 -239 Q 287 -242 303 -250 Q 319 -258 331.5 -270.5 Q 344 -283 352 -299 Q 360 -315 363 -332.5 Q 366 -350 366 -367 Q 366 -385 363 -402.5 Q 360 -420 352 -436 Q 344 -452 331.5 -464.5 Q 319 -477 303 -485 Q 287 -493 269.5 -496 Q 252 -499 234 -499 L 158 -499 Z " id="path1"/>
</defs>
<g>
<g data-source-text="Þ" fill="#dee4e3" transform="translate(40 104.99201) rotate(0) scale(0.09599999)">
<use href="#path1" transform="translate(0 0)"/>
</g>
</g>
</svg>