<?xml version="1.0" encoding="UTF-8" standalone="no"?>
<svg height="160" viewBox="0 0 128 160" width="128" xmlns="http://www.w3.org/2000/svg">
<defs>
<path d="M 246 8 Q 219 8 193 2 Q 167 -4 144 -17.5 Q 121 -31 103.5 -51.5 Q 86 -72 75 -96 Q 64 -120 60 -146.5 Q 56 -173 56 -200 L 56 -320 Q 56 -347 60 -373.5 Q 64 -400 75 -424 Q 86 -448 103.5 -468.5 Q 121 -489 144 -502.5 Q 167 -516 193 -522 Q 219 -528 246 -528 Q 296 -528 344 -513.5 Q 392 -499 436 -474 L 436 -340 L 359 -340 L 359 -432 Q 333 -443 305 -450.5 Q 277 -458 248 -458 Q 231 -458 214.5 -454 Q 198 -450 184 -440 Q 170 -430 160 -416 Q 150 -402 144 -386.5 Q 138 -371 136 -354 Q 134 -337 134 -320 L 134 -200 Q 134 -183 136 -166 Q 138 -149 144 -133.5 Q 150 -118 160 -104 Q 170 -90 184 -80 Q 198 -70 214.5 -66 Q 231 -62 248 -62 Q 277 -62 305 -69.5 Q 333 -77 359 -88 L 359 -188 L 436 -188 L 436 -46 Q 392 -21 344 -6.5 Q 296 8 246 8 Z " id="path1"/>
</defs>
<g>
<g data-source-text="c" fill="#20242e" transform="translate(40 104.99201) rotate(0) scale(0.09599999)">
<use href="#path1" transform="translate(0 0)"/>
</g>
</g>
</svg>