<?xml version="1.0" encoding="UTF-8" standalone="no"?>
<svg height="160" viewBox="0 0 128 160" width="128" xmlns="http://www.w3.org/2000/svg">
<defs>
<path d="M 53 215 L 53 145 L 136 145 Q 155 145 173.5 138.5 Q 192 132 204.5 117.5 Q 217 103 222 84 Q 227 65 227 46 L 227 -735 L 305 -735 L 305 46 Q 305 69 301 91.5 Q 297 114 287 134.5 Q 277 155 260.5 171 Q 244 187 224 197 Q 204 207 181.5 211 Q 159 215 136 215 Z " id="path1"/>
</defs>
<g>
<g data-source-text="J" fill="#20242e" transform="translate(40 104.99201) rotate(0) scale(0.09599999)">
<use href="#path1" transform="translate(0 0)"/>
</g>
</g>
</svg>