<svg xmlns="http://www.w3.org/2000/svg" height="160" viewBox="0 0 128 160" width="128"><defs><path d="M 205.00002 0 C 194.33334 -36 183.66667 -72.16667 173 -108.50001 C 162.33333 -144.83333 152.16667 -181.16667 142.5 -217.50002 C 132.83334 -253.83334 123.666664 -290.33334 115 -327 C 106.33333 -363.66672 98.33333 -400.5 91 -437.5 C 83.666664 -474.5 77.333336 -511.66666 72.00001 -549 C 66.666664 -586.3333 64 -624 64 -662.00006 L 64 -735 L 142 -735 L 142 -662.00006 C 142 -628.00006 144 -594.5 148 -561.5 C 152 -528.5 156.66667 -495.50003 162 -462.50003 C 167.33333 -429.5 173.33333 -396.66666 180.00002 -364 C 186.66666 -331.33334 193.83331 -298.66666 201.5 -266 C 209.16666 -233.33334 217 -200.83333 225.00002 -168.50002 C 233 -136.16667 241.33333 -103.666664 250 -71 C 258.66666 -103.666664 267 -136.16667 275 -168.50002 C 283 -200.83333 290.8333 -233.33334 298.5 -266 C 306.16666 -298.66666 313.3333 -331.33334 320.00003 -364 C 326.6667 -396.66666 332.6667 -429.5 338.00003 -462.50003 C 343.33334 -495.50003 347.99997 -528.5 352 -561.5 C 356 -594.5 358 -628.00006 358 -662.00006 L 358 -735 L 436 -735 L 436 -662.00006 C 435.99997 -624 433.33334 -586.3333 428.00003 -549 C 422.66666 -511.66666 416.33334 -474.5 409 -437.5 C 401.66666 -400.5 393.6667 -363.66672 385 -327 C 376.3333 -290.33334 367.1667 -253.83334 357.5 -217.50002 C 347.8333 -181.16667 337.6667 -144.83333 327 -108.50001 C 316.33334 -72.16667 305.6667 -36 295 0 Z " id="path1"/></defs><g><g fill="#000000" transform="translate(40 105.20961) rotate(0)"><use href="#path1" transform="translate(0 0) scale(0.09599999)"/></g></g></svg>