<?xml version="1.0" encoding="UTF-8" standalone="no"?>
<svg height="160" viewBox="0 0 128 160" width="128" xmlns="http://www.w3.org/2000/svg">
<defs>
<path d="M 256 8 Q 229 8 202 3 Q 175 -2 151 -14 Q 127 -26 108 -46 Q 89 -66 77 -90 Q 65 -114 60.5 -141 Q 56 -168 56 -195 L 56 -540 Q 56 -565 59 -589.5 Q 62 -614 70.5 -637.5 Q 79 -661 94 -681.5 Q 109 -702 129.5 -716.5 Q 150 -731 174.5 -737 Q 199 -743 224 -743 Q 245 -743 266.5 -739 Q 288 -735 307 -725 Q 326 -715 341 -699.5 Q 356 -684 367 -666 L 367 -735 L 436 -735 L 436 -555 L 367 -555 Q 367 -579 360 -602 Q 353 -625 336.5 -642 Q 320 -659 297 -666 Q 274 -673 250 -673 Q 234 -673 217 -669.5 Q 200 -666 186 -657 Q 172 -648 161.5 -634.5 Q 151 -621 144.5 -605.5 Q 138 -590 136 -573.5 Q 134 -557 134 -540 L 134 -195 Q 134 -178 136.5 -161 Q 139 -144 145.5 -128.5 Q 152 -113 163.5 -99.5 Q 175 -86 190 -77.5 Q 205 -69 222 -65.5 Q 239 -62 256 -62 Q 282 -62 308.5 -68 Q 335 -74 358 -86 L 358 -330 L 250 -330 L 250 -400 L 436 -400 L 436 -49 Q 397 -22 350.5 -7 Q 304 8 256 8 Z " id="path1"/>
</defs>
<g>
<g data-source-text="G" fill="#dee4e3" transform="translate(40 104.99201) rotate(0) scale(0.09599999)">
<use href="#path1" transform="translate(0 0)"/>
</g>
</g>
</svg>