<?xml version="1.0" encoding="UTF-8" standalone="no"?>
<svg height="160" viewBox="0 0 128 160" width="128" xmlns="http://www.w3.org/2000/svg">
<defs>
<path d="M 260 8 Q 233 8 206.5 3 Q 180 -2 156.5 -14.5 Q 133 -27 114.5 -47 Q 96 -67 84.5 -91 Q 73 -115 68.5 -141.5 Q 64 -168 64 -195 L 64 -665 L 18 -665 L 18 -735 L 142 -735 L 142 -195 Q 142 -178 144 -161.5 Q 146 -145 152.5 -129.5 Q 159 -114 170 -100.5 Q 181 -87 195 -78 Q 209 -69 226 -65.5 Q 243 -62 260 -62 Q 285 -62 310.5 -68 Q 336 -74 358 -86 L 358 -735 L 436 -735 L 436 -49 Q 398 -22 352.5 -7 Q 307 8 260 8 Z " id="path1"/>
</defs>
<g>
<g data-source-text="U" fill="#dee4e3" transform="translate(40 104.99201) rotate(0) scale(0.09599999)">
<use href="#path1" transform="translate(0 0)"/>
</g>
</g>
</svg>