<?xml version="1.0" encoding="UTF-8" standalone="no"?>
<svg height="160" viewBox="0 0 128 160" width="128" xmlns="http://www.w3.org/2000/svg">
<defs>
<path d="M 279 8 Q 258 8 238 4.5 Q 218 1 199.5 -8 Q 181 -17 166.5 -31.5 Q 152 -46 141 -63 L 141 0 L 64 0 L 64 -180 L 141 -180 Q 141 -157 147.5 -134 Q 154 -111 169.5 -94 Q 185 -77 207.5 -69.5 Q 230 -62 254 -62 Q 276 -62 298.5 -69.5 Q 321 -77 336.5 -93.5 Q 352 -110 359.5 -132.5 Q 367 -155 367 -177 Q 367 -203 356.5 -227.5 Q 346 -252 328.5 -271 Q 311 -290 288.5 -303.5 Q 266 -317 243 -328.5 Q 220 -340 197.5 -352.5 Q 175 -365 154.5 -381.5 Q 134 -398 117 -417.5 Q 100 -437 88 -460 Q 76 -483 70 -508.5 Q 64 -534 64 -560 Q 64 -583 68.5 -605.5 Q 73 -628 81.5 -649 Q 90 -670 104.5 -688.5 Q 119 -707 138 -719.5 Q 157 -732 179.5 -737.5 Q 202 -743 225 -743 Q 245 -743 265 -739.5 Q 285 -736 302.5 -727 Q 320 -718 334.5 -704 Q 349 -690 359 -673 L 359 -735 L 436 -735 L 436 -555 L 359 -555 Q 359 -578 353 -600.5 Q 347 -623 332 -640 Q 317 -657 295 -665 Q 273 -673 250 -673 Q 228 -673 206.5 -665 Q 185 -657 170 -640.5 Q 155 -624 148 -602 Q 141 -580 141 -558 Q 141 -532 151.5 -507.5 Q 162 -483 179.5 -464 Q 197 -445 219.5 -432 Q 242 -419 265 -407 Q 288 -395 310.5 -382.5 Q 333 -370 353.5 -354 Q 374 -338 391 -318 Q 408 -298 420 -275 Q 432 -252 438 -227 Q 444 -202 444 -176 Q 444 -152 439.5 -129.5 Q 435 -107 426 -85.5 Q 417 -64 402 -45.5 Q 387 -27 367.5 -14.5 Q 348 -2 325 3 Q 302 8 279 8 Z " id="path1"/>
</defs>
<g>
<g data-source-text="S" fill="#20242e" transform="translate(40 104.99201) rotate(0) scale(0.09599999)">
<use href="#path1" transform="translate(0 0)"/>
</g>
</g>
</svg>