<?xml version="1.0" encoding="UTF-8" standalone="no"?>
<svg height="160" viewBox="0 0 128 160" width="128" xmlns="http://www.w3.org/2000/svg">
<defs>
<path d="M 280 8 Q 260 8 239.5 5.5 Q 219 3 199.5 -4 Q 180 -11 162.5 -23 Q 145 -35 133 -52 L 133 0 L 64 0 L 64 -135 L 133 -135 Q 133 -122 138.5 -109.5 Q 144 -97 154 -88.5 Q 164 -80 176.5 -75 Q 189 -70 201.5 -67 Q 214 -64 227.5 -63 Q 241 -62 254 -62 Q 275 -62 296 -66 Q 317 -70 335 -80.5 Q 353 -91 363.5 -110 Q 374 -129 374 -151 Q 374 -165 369.5 -178.5 Q 365 -192 355 -202 Q 345 -212 332.5 -218.5 Q 320 -225 306 -229 Q 292 -233 278 -234 Q 264 -235 250 -235 L 194 -235 L 194 -305 L 250 -305 Q 262 -305 274.5 -306.5 Q 287 -308 299 -311 Q 311 -314 322 -320 Q 333 -326 341.5 -335 Q 350 -344 354 -356 Q 358 -368 358 -380 Q 358 -399 349 -415.5 Q 340 -432 324 -441.5 Q 308 -451 289.5 -454.5 Q 271 -458 253 -458 Q 235 -458 217.5 -455 Q 200 -452 184.5 -444 Q 169 -436 158.5 -420.5 Q 148 -405 148 -388 L 148 -385 L 70 -385 L 70 -390 Q 70 -412 77 -432.5 Q 84 -453 97.5 -470 Q 111 -487 129.5 -498.5 Q 148 -510 168.5 -516.5 Q 189 -523 210.5 -525.5 Q 232 -528 253 -528 Q 275 -528 297 -525.5 Q 319 -523 340 -515.5 Q 361 -508 379.5 -495 Q 398 -482 411 -464.5 Q 424 -447 430 -425 Q 436 -403 436 -381 Q 436 -363 432 -345.5 Q 428 -328 417.5 -314 Q 407 -300 392 -289.5 Q 377 -279 361 -272 Q 380 -264 397.5 -253 Q 415 -242 428 -226 Q 441 -210 446.5 -189.5 Q 452 -169 452 -148 Q 452 -126 447 -104.5 Q 442 -83 431 -64 Q 420 -45 403 -30.5 Q 386 -16 366 -7.5 Q 346 1 324 4.5 Q 302 8 280 8 Z " id="path1"/>
</defs>
<g>
<g data-source-text="ли" fill="#20242e" transform="translate(40 104.99201) rotate(0) scale(0.09599999)">
<use href="#path1" transform="translate(0 0)"/>
</g>
</g>
</svg>