<?xml version="1.0" encoding="UTF-8" standalone="no"?>
<svg height="160" viewBox="0 0 128 160" width="128" xmlns="http://www.w3.org/2000/svg">
<defs>
<path d="M 377 0 L 377 -520 L 449 -520 L 449 0 Z M 184 8 Q 164 8 145 3.5 Q 126 -1 109.5 -12 Q 93 -23 81.5 -39 Q 70 -55 63 -73.5 Q 56 -92 53.5 -111.5 Q 51 -131 51 -151 L 51 -520 L 123 -520 L 123 -260 Q 129 -274 137 -286.5 Q 145 -299 157 -308.5 Q 169 -318 183.5 -322.5 Q 198 -327 213 -327 Q 231 -327 248 -319.5 Q 265 -312 277.5 -298.5 Q 290 -285 297.5 -268.5 Q 305 -252 309 -234 Q 313 -216 315 -198 Q 317 -180 317 -162 Q 317 -141 314.5 -121 Q 312 -101 306 -81.5 Q 300 -62 288.5 -44.5 Q 277 -27 260.5 -15 Q 244 -3 224 2.5 Q 204 8 184 8 Z M 184 -57 Q 195 -57 205 -62 Q 215 -67 222.5 -75.5 Q 230 -84 234 -94.5 Q 238 -105 240.5 -115.5 Q 243 -126 244 -137 Q 245 -148 245 -159 Q 245 -171 244 -182 Q 243 -193 240.5 -203.5 Q 238 -214 234 -224.5 Q 230 -235 222.5 -243.5 Q 215 -252 205 -256.5 Q 195 -261 184 -261 Q 168 -261 154.5 -252 Q 141 -243 134.5 -229 Q 128 -215 125.5 -199.5 Q 123 -184 123 -168 L 123 -151 Q 123 -135 125.5 -119.5 Q 128 -104 134.5 -90 Q 141 -76 154.5 -66.5 Q 168 -57 184 -57 Z " id="path1"/>
</defs>
<g>
<g data-source-text="ы" fill="#20242e" transform="translate(40 104.99201) rotate(0) scale(0.09599999)">
<use href="#path1" transform="translate(0 0)"/>
</g>
</g>
</svg>