<?xml version="1.0" encoding="UTF-8" standalone="no"?>
<svg height="160" viewBox="0 0 128 160" width="128" xmlns="http://www.w3.org/2000/svg">
<defs>
<path d="M 247 8 Q 220 8 193.5 2.5 Q 167 -3 144 -16.5 Q 121 -30 103.5 -50.5 Q 86 -71 75 -95.5 Q 64 -120 60 -146.5 Q 56 -173 56 -200 L 56 -320 Q 56 -347 60.5 -374.5 Q 65 -402 76.5 -426.5 Q 88 -451 107 -471.5 Q 126 -492 150 -505 Q 174 -518 201.5 -523 Q 229 -528 256 -528 Q 304 -528 350.5 -513 Q 397 -498 436 -471 L 436 -340 L 359 -340 L 359 -433 Q 335 -445 309 -451.5 Q 283 -458 256 -458 Q 239 -458 221.5 -454.5 Q 204 -451 189 -441.5 Q 174 -432 163 -418.5 Q 152 -405 145.5 -388.5 Q 139 -372 136.5 -354.5 Q 134 -337 134 -320 L 134 -200 Q 134 -183 136 -166 Q 138 -149 144 -133.5 Q 150 -118 159.5 -104 Q 169 -90 183 -80 Q 197 -70 213.5 -66 Q 230 -62 247 -62 Q 270 -62 292 -69.5 Q 314 -77 330 -93.5 Q 346 -110 353 -132 Q 360 -154 360 -177 L 360 -180 L 438 -180 L 438 -175 Q 438 -150 432.5 -125.5 Q 427 -101 415 -79 Q 403 -57 384.5 -39.5 Q 366 -22 344 -11 Q 322 0 297 4 Q 272 8 247 8 Z " id="path1"/>
</defs>
<g>
<g data-source-text="c" fill="#20242e" transform="translate(40 104.99201) rotate(0) scale(0.09599999)">
<use href="#path1" transform="translate(0 0)"/>
</g>
</g>
</svg>