<?xml version="1.0" encoding="UTF-8" standalone="no"?>
<svg height="160" viewBox="0 0 128 160" width="128" xmlns="http://www.w3.org/2000/svg">
<defs>
<path d="M 377 0 L 377 -520 L 449 -520 L 449 0 Z M 184 8 Q 164 8 145 3.5 Q 126 -1 109.5 -12 Q 93 -23 81.5 -39 Q 70 -55 63 -73.5 Q 56 -92 53.5 -111.5 Q 51 -131 51 -151 L 51 -520 L 123 -520 L 123 -319 L 180 -319 Q 200 -319 219.5 -314.5 Q 239 -310 255.5 -299 Q 272 -288 284.5 -272 Q 297 -256 304 -237.5 Q 311 -219 314 -199 Q 317 -179 317 -159 Q 317 -139 314.5 -119 Q 312 -99 305.5 -80 Q 299 -61 287.5 -44 Q 276 -27 260 -14.5 Q 244 -2 224 3 Q 204 8 184 8 Z M 184 -57 Q 195 -57 205 -62 Q 215 -67 222 -75.5 Q 229 -84 233.5 -94 Q 238 -104 240.5 -115 Q 243 -126 244 -137 Q 245 -148 245 -159 Q 245 -175 242.5 -191 Q 240 -207 232 -221.5 Q 224 -236 210 -244.5 Q 196 -253 180 -253 L 123 -253 L 123 -151 Q 123 -135 125.5 -119.5 Q 128 -104 134.5 -90 Q 141 -76 154.5 -66.5 Q 168 -57 184 -57 Z " id="path1"/>
</defs>
<g>
<g data-source-text="ы" fill="#dee4e3" transform="translate(40 104.99201) rotate(0) scale(0.09599999)">
<use href="#path1" transform="translate(0 0)"/>
</g>
</g>
</svg>