<?xml version="1.0" encoding="UTF-8" standalone="no"?>
<svg height="160" viewBox="0 0 128 160" width="128" xmlns="http://www.w3.org/2000/svg">
<defs>
<path d="M 18 0 L 18 -70 L 64 -70 L 64 -665 L 18 -665 L 18 -735 L 158 -735 L 284 -371 L 368 -124 Q 366 -204 362 -283 Q 358 -362 358 -441 L 358 -665 L 312 -665 L 312 -735 L 482 -735 L 482 -665 L 436 -665 L 436 0 L 342 0 L 132 -611 Q 134 -531 138 -452 Q 142 -373 142 -294 L 142 -70 L 188 -70 L 188 0 Z " id="path1"/>
</defs>
<g>
<g data-source-text="N" fill="#20242e" transform="translate(40 104.99201) rotate(0) scale(0.09599999)">
<use href="#path1" transform="translate(0 0)"/>
</g>
</g>
</svg>