<?xml version="1.0" encoding="UTF-8" standalone="no"?>
<svg height="160" viewBox="0 0 128 160" width="128" xmlns="http://www.w3.org/2000/svg">
<defs>
<path d="M 148 0 L 148 -7 Q 148 -34 151 -60 Q 154 -86 164 -111 L 209 -227 L 98 -516 Q 84 -551 74 -587.5 Q 64 -624 64 -662 L 64 -735 L 142 -735 L 142 -662 Q 142 -646 144.5 -630.5 Q 147 -615 150.5 -600 Q 154 -585 159.5 -570 Q 165 -555 170 -540 L 248 -329 L 330 -541 Q 341 -570 349.5 -600 Q 358 -630 358 -662 L 358 -735 L 436 -735 L 436 -662 Q 436 -624 426 -587.5 Q 416 -551 402 -516 L 236 -86 Q 229 -67 227.5 -47 Q 226 -27 226 -7 L 226 0 Z " id="path1"/>
</defs>
<g>
<g data-source-text="У" fill="#20242e" transform="translate(40 104.99201) rotate(0) scale(0.09599999)">
<use href="#path1" transform="translate(0 0)"/>
</g>
</g>
</svg>