<?xml version="1.0" encoding="UTF-8" standalone="no"?>
<svg height="160" viewBox="0 0 128 160" width="128" xmlns="http://www.w3.org/2000/svg">
<defs>
<path d="M 280 8 Q 258 8 236.5 4 Q 215 -0 195.5 -10 Q 176 -20 160 -35.5 Q 144 -51 133 -70 L 133 0 L 64 0 L 64 -180 L 133 -180 Q 133 -156 140.5 -132.5 Q 148 -109 165.5 -92.5 Q 183 -76 206.5 -69 Q 230 -62 254 -62 Q 271 -62 289 -66.5 Q 307 -71 321.5 -81 Q 336 -91 346.5 -105.5 Q 357 -120 363.5 -137 Q 370 -154 372 -171.5 Q 374 -189 374 -207 Q 374 -225 371.5 -242.5 Q 369 -260 362.5 -276.5 Q 356 -293 344.5 -307 Q 333 -321 318 -330.5 Q 303 -340 285.5 -343.5 Q 268 -347 250 -347 L 194 -347 L 194 -417 L 250 -417 Q 274 -417 296.5 -426 Q 319 -435 333.5 -453.5 Q 348 -472 353 -495.5 Q 358 -519 358 -543 Q 358 -567 353 -590.5 Q 348 -614 334.5 -633.5 Q 321 -653 299 -663 Q 277 -673 253 -673 Q 231 -673 210 -665 Q 189 -657 174.5 -640.5 Q 160 -624 154 -602.5 Q 148 -581 148 -559 L 148 -555 L 70 -555 L 70 -561 Q 70 -586 75.5 -610 Q 81 -634 92 -655.5 Q 103 -677 120 -694.5 Q 137 -712 158.5 -723 Q 180 -734 204.5 -738.5 Q 229 -743 253 -743 Q 279 -743 304 -738 Q 329 -733 351 -720 Q 373 -707 390 -687 Q 407 -667 417.5 -644 Q 428 -621 432 -595.5 Q 436 -570 436 -544 Q 436 -520 432 -495.5 Q 428 -471 416.5 -449.5 Q 405 -428 386.5 -411 Q 368 -394 346 -383 Q 372 -373 393.5 -354.5 Q 415 -336 428.5 -311.5 Q 442 -287 447 -259.5 Q 452 -232 452 -204 Q 452 -178 448.5 -152.5 Q 445 -127 436.5 -103 Q 428 -79 413 -57.5 Q 398 -36 377.5 -20.5 Q 357 -5 331.5 1.5 Q 306 8 280 8 Z " id="path1"/>
</defs>
<g>
<g data-source-text="З" fill="#dee4e3" transform="translate(40 104.99201) rotate(0) scale(0.09599999)">
<use href="#path1" transform="translate(0 0)"/>
</g>
</g>
</svg>