<svg xmlns="http://www.w3.org/2000/svg" height="160" viewBox="0 0 128 160" width="128"><defs><path d="M 225.00002 8 C 208.33334 8 191.66667 5.833333 175 1.5 C 158.33333 -2.8333333 143.16667 -9.833334 129.5 -19.5 C 115.83333 -29.166668 103.99999 -41 94.00001 -55.000004 C 84.00001 -69 76.166664 -84.00001 70.5 -100.00001 C 64.833336 -116 61 -132.5 59.000004 -149.5 C 56.999996 -166.5 55.999996 -183.33333 56 -200.00002 L 56 -320.00003 C 55.999996 -336.6667 56.999996 -353.49997 59.000004 -370.50003 C 61 -387.49997 64.833336 -403.99997 70.5 -420 C 76.166664 -436 84.00001 -451 94.00001 -465 C 103.99999 -479.00003 115.83333 -490.83337 129.5 -500.50003 C 143.16667 -510.16666 158.33333 -517.1666 175 -521.5 C 191.66667 -525.8333 208.33334 -528 225.00002 -528 C 238.33333 -528 251.66667 -526.8333 265 -524.5 C 278.33334 -522.1667 290.83334 -518 302.50003 -512 C 314.1667 -505.99997 324.83334 -498.3333 334.5 -489.00003 C 344.1667 -479.6667 352.33334 -469.33334 359.00003 -458 L 359.00003 -520.00006 L 436 -520.00006 L 436 -339 L 359.00003 -339 C 359.00003 -354.33334 357 -369.49997 353.00003 -384.5 C 349 -399.5 342.00003 -412.8333 332 -424.5 C 322.00003 -436.16666 309.6667 -444.6667 295 -450.00003 C 280.33334 -455.3333 265.3333 -457.99997 250 -458 C 238.66666 -457.99997 227.33333 -456.66666 216 -454 C 204.66666 -451.33334 194.33333 -446.83334 185.00002 -440.50003 C 175.66666 -434.1667 167.5 -426.3333 160.5 -417.00003 C 153.5 -407.66666 148 -397.66666 144.00002 -387.00003 C 140.00002 -376.3333 137.33334 -365.33334 136 -354.00003 C 134.66667 -342.6667 134 -331.33334 134 -320.00003 L 134 -200.00002 C 134 -188.66667 134.66667 -177.33334 136 -166 C 137.33334 -154.66667 140.00002 -143.66667 144.00002 -133 C 148 -122.33333 153.5 -112.33334 160.5 -103.00001 C 167.5 -93.666664 175.66666 -85.833336 185.00002 -79.5 C 194.33333 -73.16667 204.66666 -68.66667 216 -66 C 227.33333 -63.333336 238.66666 -62.000004 250 -62.000004 C 265.3333 -62.000004 280.33334 -64.66667 295 -70.00001 C 309.6667 -75.333336 322.00003 -83.833336 332 -95.50001 C 342.00003 -107.16667 349 -120.500015 353.00003 -135.50002 C 357 -150.5 359.00003 -165.66667 359.00003 -181 L 436 -181 L 436 0 L 359.00003 0 L 359.00003 -62.000004 C 352.33334 -50.666668 344.1667 -40.333336 334.5 -31.000002 C 324.83334 -21.666666 314.1667 -14 302.50003 -8 C 290.83334 -2.0000002 278.33334 2.1666667 265 4.5000005 C 251.66667 6.833333 238.33333 8 225.00002 8 Z " id="path1"/></defs><g><g fill="#000000" transform="translate(40 105.20961) rotate(0)"><use href="#path1" transform="translate(0 0) scale(0.09599999)"/></g></g></svg>