<?xml version="1.0" encoding="UTF-8" standalone="no"?>
<svg height="160" viewBox="0 0 128 160" width="128" xmlns="http://www.w3.org/2000/svg">
<defs>
<path d="M 76 0 L 76 -70 L 129 -70 Q 140 -70 150.5 -73 Q 161 -76 168.5 -84.5 Q 176 -93 180 -103.5 Q 184 -114 187 -124 L 209 -189 L 93 -533 Q 88 -548 83 -564 Q 78 -580 74 -596 Q 70 -612 67 -628.5 Q 64 -645 64 -662 L 64 -735 L 142 -735 L 142 -662 Q 142 -639 148 -617 Q 154 -595 161 -573 L 161 -572 Q 162 -570 162.5 -568 Q 163 -566 164 -564 L 164 -563 Q 165 -561 166 -559 Q 167 -557 167 -555 L 250 -298 L 333 -555 Q 333 -557 334 -559 Q 335 -561 335 -563 L 336 -563 Q 337 -566 337.5 -568 Q 338 -570 339 -572 L 339 -573 Q 346 -594 352 -616.5 Q 358 -639 358 -662 L 358 -735 L 436 -735 L 436 -662 Q 436 -645 433 -628.5 Q 430 -612 426 -596 Q 422 -580 417 -564 Q 412 -548 407 -533 L 261 -102 Q 254 -80 243.5 -59 Q 233 -38 215.5 -23.5 Q 198 -9 175 -4.5 Q 152 -0 129 0 Z " id="path1"/>
</defs>
<g>
<g data-source-text="У" fill="#dee4e3" transform="translate(40 104.99201) rotate(0) scale(0.09599999)">
<use href="#path1" transform="translate(0 0)"/>
</g>
</g>
</svg>