<?xml version="1.0" encoding="UTF-8" standalone="no"?>
<svg xmlns="http://www.w3.org/2000/svg" height="160" viewBox="0 0 128 160" width="128"><defs><path d="M 249 8 Q 224 8 199.5 4 Q 175 -0 152.5 -10 Q 130 -20 111 -36 Q 92 -52 79 -73.5 Q 66 -95 60 -119 Q 54 -143 54 -168 Q 54 -169 54 -170.5 Q 54 -172 54 -173 L 132 -173 Q 132 -172 132 -171.5 Q 132 -171 132 -170 Q 132 -147 140.5 -125.5 Q 149 -104 165.5 -89 Q 182 -74 204 -68 Q 226 -62 249 -62 Q 272 -62 294.5 -69 Q 317 -76 333.5 -92 Q 350 -108 358.5 -130 Q 367 -152 367 -175 Q 367 -201 356.5 -225.5 Q 346 -250 328 -269 Q 310 -288 288 -301.5 Q 266 -315 243.5 -327.5 Q 221 -340 198.5 -353.5 Q 176 -367 156 -383 Q 136 -399 119 -418.5 Q 102 -438 89.5 -461 Q 77 -484 70.5 -509 Q 64 -534 64 -560 Q 64 -585 69.5 -609 Q 75 -633 86.5 -655 Q 98 -677 116 -694.5 Q 134 -712 156 -723 Q 178 -734 202 -738.5 Q 226 -743 251 -743 Q 275 -743 299 -739 Q 323 -735 345 -724.5 Q 367 -714 385 -697.5 Q 403 -681 415 -660 Q 427 -639 432.5 -615 Q 438 -591 438 -567 Q 438 -566 438 -564.5 Q 438 -563 438 -562 L 360 -562 Q 360 -563 360 -563.5 Q 360 -564 360 -565 Q 360 -587 353 -608 Q 346 -629 330.5 -644.5 Q 315 -660 294 -666.5 Q 273 -673 251 -673 Q 229 -673 207.5 -665.5 Q 186 -658 171 -642 Q 156 -626 148.5 -604 Q 141 -582 141 -560 Q 141 -534 151.5 -510 Q 162 -486 179.5 -467 Q 197 -448 219 -434 Q 241 -420 264 -407.5 Q 287 -395 309 -381.5 Q 331 -368 351.5 -352 Q 372 -336 389 -316.5 Q 406 -297 418.5 -274.5 Q 431 -252 437.5 -226.5 Q 444 -201 444 -175 Q 444 -150 438 -125 Q 432 -100 419.5 -78 Q 407 -56 388.5 -39 Q 370 -22 347 -11 Q 324 0 299 4 Q 274 8 249 8 Z " id="path1"/></defs><g><g data-source-text="S" fill="#dee4e3" transform="translate(40 104.99201) rotate(0) scale(0.09599999)"><use href="#path1" transform="translate(0 0)"/></g></g></svg>