<svg xmlns="http://www.w3.org/2000/svg" height="160" viewBox="0 0 128 160" width="128"><defs><path d="M 18.000002 0 L 18.000002 -70.00001 L 64 -70.00001 L 64 -74 C 64 -107.333336 66.166664 -140.66667 70.5 -174.00002 C 74.833336 -207.33333 80.16667 -240.5 86.5 -273.5 C 92.833336 -306.5 99.66667 -339.5 107.00001 -372.50003 C 114.333336 -405.50003 122.166664 -438.16666 130.5 -470.5 C 138.83333 -502.83334 147.5 -535.3333 156.5 -568 C 165.5 -600.6667 174.66667 -633 184 -665 L 124.00001 -665 L 124.00001 -735 L 295 -735 C 305.6667 -699 316.33334 -662.8333 327 -626.5 C 337.6667 -590.1667 347.8333 -553.8333 357.5 -517.5 C 367.1667 -481.1667 376.3333 -444.6667 385 -408 C 393.6667 -371.33334 401.66666 -334.5 409 -297.5 C 416.33334 -260.5 422.66666 -223.33333 428.00003 -186.00002 C 433.33334 -148.66667 435.99997 -111.333336 436 -74 L 436 -70.00001 L 482 -70.00001 L 482 0 L 312 0 L 312 -70.00001 L 358 -70.00001 L 358 -74 C 358 -100.666664 356.66666 -127.5 354.00003 -154.5 C 351.3333 -181.5 347.99997 -208.33331 344.00003 -235 L 156 -235 C 152 -208.33331 148.66667 -181.5 146 -154.5 C 143.33333 -127.5 142 -100.666664 142 -74 L 142 -70.00001 L 188.00002 -70.00001 L 188.00002 0 Z M 168.00002 -305.00003 L 332 -305.00003 C 321.33334 -365.66663 309 -425.8333 295 -485.50003 C 281 -545.1667 266 -604.6667 250 -664 C 234.00002 -604.6667 219.00002 -545.1667 205.00002 -485.50003 C 190.99998 -425.8333 178.66667 -365.66663 168.00002 -305.00003 Z " id="path1"/></defs><g><g fill="#ffffff" transform="translate(40 105.20961) rotate(0)"><use href="#path1" transform="translate(0 0) scale(0.09599999)"/></g></g></svg>