<svg xmlns="http://www.w3.org/2000/svg" height="160" viewBox="0 0 128 160" width="128"><defs><path d="M 48 0 Q 48 -25 55 -49.5 Q 62 -74 70.5 -98 Q 79 -122 88.5 -145 Q 98 -168 108.5 -191 Q 119 -214 130.5 -236.5 Q 142 -259 153 -282 Q 142 -300 130.5 -319 Q 119 -338 109 -357.5 Q 99 -377 89 -396.5 Q 79 -416 70.5 -436 Q 62 -456 55 -477 Q 48 -498 48 -520 L 126 -520 Q 126 -502 131.5 -485 Q 137 -468 144 -452 Q 151 -436 159 -420 Q 167 -404 175.5 -388.5 Q 184 -373 193 -358 Q 202 -343 211 -328 L 211 -520 L 289 -520 L 289 -328 Q 298 -343 307 -358 Q 316 -373 324.5 -388.5 Q 333 -404 341 -420 Q 349 -436 356 -452 Q 363 -468 368.5 -485 Q 374 -502 374 -520 L 452 -520 Q 452 -498 445 -477 Q 438 -456 429.5 -436 Q 421 -416 411 -396.5 Q 401 -377 391 -357.5 Q 381 -338 369.5 -319 Q 358 -300 347 -282 Q 358 -259 369.5 -236.5 Q 381 -214 391.5 -191 Q 402 -168 411.5 -145 Q 421 -122 429.5 -98 Q 438 -74 445 -49.5 Q 452 -25 452 0 L 374 0 Q 374 -19 369.5 -37 Q 365 -55 359 -73 Q 353 -91 346 -108.5 Q 339 -126 331.5 -143 Q 324 -160 316 -177 Q 308 -194 300 -210 Q 297 -207 294.5 -203 Q 292 -199 289 -195 L 289 0 L 211 0 L 211 -195 Q 208 -199 205.5 -203 Q 203 -207 200 -210 Q 192 -194 184 -177 Q 176 -160 168.5 -143 Q 161 -126 154 -108.5 Q 147 -91 141 -73 Q 135 -55 130.5 -37 Q 126 -19 126 0 Z " id="path1"/></defs><g><g fill="#20242e" transform="translate(40 105.20961) rotate(0)"><use href="#path1" transform="translate(0 0) scale(0.09599999)"/></g></g></svg>