<?xml version="1.0" encoding="UTF-8" standalone="no"?>
<svg height="160" viewBox="0 0 128 160" width="128" xmlns="http://www.w3.org/2000/svg">
<defs>
<path d="M 245 8 Q 219 8 193 2.5 Q 167 -3 144.5 -16 Q 122 -29 104 -49 Q 86 -69 75 -93 Q 64 -117 60 -143 Q 56 -169 56 -195 L 56 -540 Q 56 -566 60 -592.5 Q 64 -619 75 -643 Q 86 -667 104 -687 Q 122 -707 145 -720 Q 168 -733 194.5 -738 Q 221 -743 247 -743 Q 272 -743 296.5 -739 Q 321 -735 343.5 -724 Q 366 -713 384.5 -695.5 Q 403 -678 415 -656.5 Q 427 -635 432.5 -610.5 Q 438 -586 438 -561 L 438 -555 L 360 -555 L 360 -559 Q 360 -582 353 -604 Q 346 -626 330 -642.5 Q 314 -659 292 -666 Q 270 -673 247 -673 Q 222 -673 198.5 -663 Q 175 -653 160 -633.5 Q 145 -614 139.5 -589.5 Q 134 -565 134 -540 L 134 -195 Q 134 -178 136 -162 Q 138 -146 144 -130.5 Q 150 -115 160.5 -101.5 Q 171 -88 184.5 -79 Q 198 -70 214.5 -66 Q 231 -62 247 -62 Q 276 -62 304 -70 Q 332 -78 358 -90 L 358 -330 L 250 -330 L 250 -400 L 436 -400 L 436 -49 Q 393 -23 344.5 -7.5 Q 296 8 245 8 Z " id="path1"/>
</defs>
<g>
<g data-source-text="G" fill="#dee4e3" transform="translate(40 104.99201) rotate(0) scale(0.09599999)">
<use href="#path1" transform="translate(0 0)"/>
</g>
</g>
</svg>