<?xml version="1.0" encoding="UTF-8" standalone="no"?>
<svg height="160" viewBox="0 0 128 160" width="128" xmlns="http://www.w3.org/2000/svg">
<defs>
<path d="M 235 0 L 176 0 L 176 -70 L 235 -70 Q 252 -70 269.5 -73 Q 287 -76 303 -84 Q 319 -92 331.5 -104.5 Q 344 -117 352 -132.5 Q 360 -148 363 -165.5 Q 366 -183 366 -200 Q 366 -227 357.5 -253 Q 349 -279 329 -297.5 Q 309 -316 282.5 -324.5 Q 256 -333 229 -333 L 221 -333 L 217 -403 L 343 -563 Q 341 -584 334.5 -604 Q 328 -624 315.5 -640 Q 303 -656 283.5 -664.5 Q 264 -673 243 -673 Q 226 -673 209.5 -667 Q 193 -661 181 -648.5 Q 169 -636 161.5 -620.5 Q 154 -605 149.5 -588.5 Q 145 -572 143.5 -554.5 Q 142 -537 142 -520 L 142 0 L 64 0 L 64 -520 Q 64 -547 67 -574 Q 70 -601 79.5 -626.5 Q 89 -652 104 -674.5 Q 119 -697 141 -713 Q 163 -729 189.5 -736 Q 216 -743 243 -743 Q 268 -743 293 -737.5 Q 318 -732 339 -719 Q 360 -706 376.5 -686 Q 393 -666 403 -643 Q 413 -620 417.5 -595.5 Q 422 -571 422 -546 L 422 -540 L 420 -540 L 304 -392 Q 335 -383 363 -365.5 Q 391 -348 409.5 -322 Q 428 -296 436 -264 Q 444 -232 444 -200 Q 444 -173 439 -145.5 Q 434 -118 420.5 -94 Q 407 -70 386.5 -51 Q 366 -32 341.5 -20.5 Q 317 -9 289.5 -4.5 Q 262 -0 235 0 Z " id="path1"/>
</defs>
<g>
<g data-source-text="ẞ" fill="#20242e" transform="translate(40 104.99201) rotate(0) scale(0.09599999)">
<use href="#path1" transform="translate(0 0)"/>
</g>
</g>
</svg>