<?xml version="1.0" encoding="UTF-8" standalone="no"?>
<svg height="160" viewBox="0 0 256 160" width="256" xmlns="http://www.w3.org/2000/svg">
<defs>
<path d="M 254 8 Q 230 8 206 4.5 Q 182 1 159.5 -8 Q 137 -17 118 -32.5 Q 99 -48 86.5 -68.5 Q 74 -89 69 -112.5 Q 64 -136 64 -161 L 64 -520 L 142 -520 L 142 -321 L 280 -321 Q 302 -321 323.5 -317.5 Q 345 -314 364.5 -304.5 Q 384 -295 400 -280 Q 416 -265 426 -246 Q 436 -227 440 -205.5 Q 444 -184 444 -162 Q 444 -138 439 -114 Q 434 -90 421.5 -69.5 Q 409 -49 390 -33 Q 371 -17 348.5 -8 Q 326 1 302 4.5 Q 278 8 254 8 Z M 254 -62 Q 275 -62 296.5 -67 Q 318 -72 334.5 -86 Q 351 -100 358.5 -120.5 Q 366 -141 366 -162 Q 366 -180 361 -197 Q 356 -214 344 -227 Q 332 -240 315 -245.5 Q 298 -251 280 -251 L 142 -251 L 142 -161 Q 142 -139 150 -119 Q 158 -99 174.5 -85.5 Q 191 -72 212 -67 Q 233 -62 254 -62 Z " id="path1"/>
<path d="M 282 8 Q 260 8 238 4 Q 216 0 196.5 -10.5 Q 177 -21 161.5 -37.5 Q 146 -54 136.5 -74 Q 127 -94 123.5 -116 Q 120 -138 120 -160 L 120 -454 L 24 -454 L 24 -520 L 194 -520 L 194 -319 L 293 -319 Q 314 -319 334.5 -315 Q 355 -311 373 -301 Q 391 -291 405.5 -275.5 Q 420 -260 428.5 -241.5 Q 437 -223 440.5 -202 Q 444 -181 444 -161 Q 444 -138 440.5 -116 Q 437 -94 427.5 -74 Q 418 -54 402.5 -37.5 Q 387 -21 367.5 -10.5 Q 348 0 326 4 Q 304 8 282 8 Z M 282 -58 Q 301 -58 319.5 -65.5 Q 338 -73 349.5 -88 Q 361 -103 365.5 -122 Q 370 -141 370 -160 Q 370 -177 366.5 -194 Q 363 -211 352.5 -225 Q 342 -239 326 -246 Q 310 -253 293 -253 L 194 -253 L 194 -160 Q 194 -141 198.5 -122 Q 203 -103 214.5 -88 Q 226 -73 244.5 -65.5 Q 263 -58 282 -58 Z " id="path2"/>
</defs>
<g>
<g data-source-text="ь" fill="#dee4e3" transform="translate(40 104.99201) rotate(0) scale(0.09599999)">
<use href="#path1" transform="translate(0 0)"/>
</g>
</g>
<g>
<g data-source-text="ъ" fill="#dee4e3" transform="translate(168 104.99201) rotate(0) scale(0.09599999)">
<use href="#path2" transform="translate(0 0)"/>
</g>
</g>
</svg>