<?xml version="1.0" encoding="UTF-8" standalone="no"?>
<svg height="160" viewBox="0 0 128 160" width="128" xmlns="http://www.w3.org/2000/svg">
<defs>
<path d="M 245 8 Q 197 8 150 -7 Q 103 -22 64 -49 L 64 -180 L 141 -180 L 141 -87 Q 165 -75 191.5 -68.5 Q 218 -62 245 -62 Q 269 -62 292 -69 Q 315 -76 332 -92 Q 349 -108 358 -130.5 Q 367 -153 367 -177 Q 367 -203 356 -227 Q 345 -251 327.5 -269.5 Q 310 -288 288 -301.5 Q 266 -315 243.5 -327.5 Q 221 -340 199 -353.5 Q 177 -367 157 -383 Q 137 -399 119.5 -418 Q 102 -437 89.5 -459.5 Q 77 -482 70.5 -507 Q 64 -532 64 -558 Q 64 -583 70 -608 Q 76 -633 88 -655 Q 100 -677 119 -695 Q 138 -713 160.5 -724 Q 183 -735 208.5 -739 Q 234 -743 259 -743 Q 306 -743 352 -728 Q 398 -713 436 -686 L 436 -555 L 359 -555 L 359 -649 Q 336 -661 310.5 -667 Q 285 -673 259 -673 Q 236 -673 213.5 -666 Q 191 -659 174.5 -642.5 Q 158 -626 149.5 -603.5 Q 141 -581 141 -558 Q 141 -532 152 -508 Q 163 -484 180.5 -465.5 Q 198 -447 220 -433.5 Q 242 -420 264.5 -407.5 Q 287 -395 309 -382 Q 331 -369 351 -352.5 Q 371 -336 388.5 -317 Q 406 -298 418.5 -275.5 Q 431 -253 437.5 -228 Q 444 -203 444 -177 Q 444 -152 437.5 -126.5 Q 431 -101 418.5 -79 Q 406 -57 387 -39.5 Q 368 -22 344.5 -11 Q 321 0 296 4 Q 271 8 245 8 Z " id="path1"/>
</defs>
<g>
<g data-source-text="S" fill="#dee4e3" transform="translate(40 104.99201) rotate(0) scale(0.09599999)">
<use href="#path1" transform="translate(0 0)"/>
</g>
</g>
</svg>