<?xml version="1.0" encoding="UTF-8" standalone="no"?>
<svg height="160" viewBox="0 0 128 160" width="128" xmlns="http://www.w3.org/2000/svg">
<defs>
<path d="M 281 8 Q 260 8 239 2.5 Q 218 -3 199.5 -14 Q 181 -25 166.5 -41 Q 152 -57 141 -75 L 141 0 L 64 0 L 64 -181 L 141 -181 Q 141 -158 149 -136 Q 157 -114 172.5 -97 Q 188 -80 210 -71 Q 232 -62 255 -62 Q 277 -62 298.5 -70 Q 320 -78 336 -94.5 Q 352 -111 359.5 -132.5 Q 367 -154 367 -177 Q 367 -202 356 -226.5 Q 345 -251 327.5 -269.5 Q 310 -288 287.5 -302 Q 265 -316 242.5 -328 Q 220 -340 198 -353.5 Q 176 -367 155.5 -383 Q 135 -399 118 -418.5 Q 101 -438 88.5 -461 Q 76 -484 70 -509 Q 64 -534 64 -560 Q 64 -583 68 -605 Q 72 -627 80.5 -648 Q 89 -669 102.5 -687 Q 116 -705 134.5 -718 Q 153 -731 175 -737 Q 197 -743 220 -743 Q 241 -743 262 -737.5 Q 283 -732 301 -721 Q 319 -710 333.5 -694 Q 348 -678 359 -660 L 359 -735 L 436 -735 L 436 -554 L 359 -554 Q 359 -577 351 -599 Q 343 -621 327.5 -638 Q 312 -655 290.5 -664 Q 269 -673 246 -673 Q 225 -673 204 -664.5 Q 183 -656 169 -639.5 Q 155 -623 148 -602 Q 141 -581 141 -559 Q 141 -533 151.5 -509 Q 162 -485 180 -466 Q 198 -447 220 -433.5 Q 242 -420 264.5 -407.5 Q 287 -395 309.5 -381.5 Q 332 -368 352 -352 Q 372 -336 389.5 -316.5 Q 407 -297 419 -274.5 Q 431 -252 437.5 -226.5 Q 444 -201 444 -175 Q 444 -152 439.5 -129.5 Q 435 -107 426 -86 Q 417 -65 402.5 -47 Q 388 -29 368.5 -16.5 Q 349 -4 326.5 2 Q 304 8 281 8 Z " id="path1"/>
</defs>
<g>
<g data-source-text="S" fill="#dee4e3" transform="translate(40 104.99201) rotate(0) scale(0.09599999)">
<use href="#path1" transform="translate(0 0)"/>
</g>
</g>
</svg>