<?xml version="1.0" encoding="UTF-8" standalone="no"?>
<svg height="160" viewBox="0 0 128 160" width="128" xmlns="http://www.w3.org/2000/svg">
<defs>
<path d="M 158 0 L 14 0 L 14 -70 L 51 -70 L 52 -104 Q 56 -191 62 -277 Q 68 -363 69 -450 L 35 -450 L 35 -520 L 180 -520 L 250 -155 L 320 -520 L 465 -520 L 465 -450 L 431 -450 Q 432 -363 438 -277 Q 444 -191 448 -104 L 449 -70 L 486 -70 L 486 0 L 342 0 L 342 -70 L 371 -70 L 370 -104 Q 367 -186 365 -268 Q 363 -350 363 -433 L 280 0 L 220 0 L 137 -433 Q 137 -350 135 -268 Q 133 -186 130 -104 L 129 -70 L 158 -70 Z " id="path1"/>
</defs>
<g>
<g data-source-text="м" fill="#20242e" transform="translate(40 104.99201) rotate(0) scale(0.09599999)">
<use href="#path1" transform="translate(0 0)"/>
</g>
</g>
</svg>