<?xml version="1.0" encoding="UTF-8" standalone="no"?>
<svg height="160" viewBox="0 0 128 160" width="128" xmlns="http://www.w3.org/2000/svg">
<defs>
<path d="M 18 0 L 18 -70 L 64 -70 L 64 -540 Q 64 -566 68 -592 Q 72 -618 82.5 -642 Q 93 -666 110 -686 Q 127 -706 149.5 -719 Q 172 -732 198 -737.5 Q 224 -743 250 -743 Q 276 -743 302 -737.5 Q 328 -732 350.5 -719 Q 373 -706 390 -686 Q 407 -666 417.5 -642 Q 428 -618 432 -592 Q 436 -566 436 -540 L 436 -70 L 482 -70 L 482 0 L 312 0 L 312 -70 L 358 -70 L 358 -332 L 142 -332 L 142 -70 L 188 -70 L 188 0 Z M 358 -403 L 358 -540 Q 358 -556 356 -572.5 Q 354 -589 348.5 -604 Q 343 -619 334 -632.5 Q 325 -646 311.5 -655.5 Q 298 -665 282 -669 Q 266 -673 250 -673 Q 234 -673 218 -669 Q 202 -665 188.5 -655.5 Q 175 -646 166 -632.5 Q 157 -619 151.5 -604 Q 146 -589 144 -572.5 Q 142 -556 142 -540 L 142 -403 Z " id="path1"/>
</defs>
<g>
<g data-source-text="A" fill="#dee4e3" transform="translate(40 104.99201) rotate(0) scale(0.09599999)">
<use href="#path1" transform="translate(0 0)"/>
</g>
</g>
</svg>