<?xml version="1.0" encoding="UTF-8" standalone="no"?>
<svg height="160" viewBox="0 0 128 160" width="128" xmlns="http://www.w3.org/2000/svg">
<defs>
<path d="M 229 8 Q 204 8 180 3.5 Q 156 -1 134.5 -12 Q 113 -23 96 -40.5 Q 79 -58 67.5 -80 Q 56 -102 51 -126 Q 46 -150 46 -174 L 46 -180 L 124 -180 L 124 -176 Q 124 -154 130 -132.5 Q 136 -111 150.5 -94.5 Q 165 -78 186 -70 Q 207 -62 229 -62 Q 245 -62 260.5 -66 Q 276 -70 289 -80 Q 302 -90 311 -103.5 Q 320 -117 325 -132 Q 330 -147 332 -163 Q 334 -179 334 -195 L 334 -665 L 198 -665 L 198 -735 L 458 -735 L 458 -665 L 411 -665 L 411 -195 Q 411 -169 407.5 -143.5 Q 404 -118 394 -94 Q 384 -70 367 -49.5 Q 350 -29 328 -16 Q 306 -3 280.5 2.5 Q 255 8 229 8 Z " id="path1"/>
</defs>
<g>
<g data-source-text="J" fill="#dee4e3" transform="translate(40 104.99201) rotate(0) scale(0.09599999)">
<use href="#path1" transform="translate(0 0)"/>
</g>
</g>
</svg>