<?xml version="1.0" encoding="UTF-8" standalone="no"?>
<svg height="160" viewBox="0 0 128 160" width="128" xmlns="http://www.w3.org/2000/svg">
<defs>
<path d="M 495 8 L 474 8 Q 456 8 437 3 Q 418 -2 404 -14.5 Q 390 -27 383.5 -45 Q 377 -63 377 -82 L 377 -520 L 449 -520 L 449 -82 Q 449 -77 450.5 -72 Q 452 -67 455.5 -63.5 Q 459 -60 464 -58.5 Q 469 -57 474 -57 L 495 -57 Z M 51 0 L 51 -520 L 123 -520 L 123 -319 L 180 -319 Q 200 -319 219.5 -314.5 Q 239 -310 255.5 -299 Q 272 -288 284.5 -272 Q 297 -256 304 -237.5 Q 311 -219 314 -199 Q 317 -179 317 -159 Q 317 -139 314 -119.5 Q 311 -100 304 -81.5 Q 297 -63 284.5 -47 Q 272 -31 255.5 -20 Q 239 -9 219.5 -4.5 Q 200 -0 180 0 Z M 123 -65 L 180 -65 Q 196 -65 210 -74 Q 224 -83 231.5 -97 Q 239 -111 242 -127 Q 245 -143 245 -159 Q 245 -175 242 -191.5 Q 239 -208 231.5 -222 Q 224 -236 210 -244.5 Q 196 -253 180 -253 L 123 -253 Z " id="path1"/>
</defs>
<g>
<g data-source-text="ы" fill="#20242e" transform="translate(40 104.99201) rotate(0) scale(0.09599999)">
<use href="#path1" transform="translate(0 0)"/>
</g>
</g>
</svg>