<?xml version="1.0" encoding="UTF-8" standalone="no"?>
<svg height="160" viewBox="0 0 128 160" width="128" xmlns="http://www.w3.org/2000/svg">
<defs>
<path d="M 365 223 Q 343 223 323.5 214 Q 304 205 285.5 195 Q 267 185 247 176 Q 227 167 206 167 Q 194 167 183 170.5 Q 172 174 162 180.5 Q 152 187 145 196 Q 138 205 133 216 L 61 193 Q 72 162 90 134.5 Q 108 107 132 85 Q 156 63 185 47.5 Q 214 32 242.5 16 Q 271 0 297 -20.5 Q 323 -41 339.5 -69 Q 356 -97 361 -129.5 Q 366 -162 366 -195 L 366 -540 Q 366 -557 364 -573.5 Q 362 -590 355.5 -605.5 Q 349 -621 338.5 -634.5 Q 328 -648 314 -657 Q 300 -666 283.5 -669.5 Q 267 -673 250 -673 Q 233 -673 216.5 -669.5 Q 200 -666 186 -657 Q 172 -648 161.5 -634.5 Q 151 -621 144.5 -605.5 Q 138 -590 136 -573.5 Q 134 -557 134 -540 L 134 -238 Q 134 -215 139 -191.5 Q 144 -168 157.5 -148.5 Q 171 -129 193 -117.5 Q 215 -106 238 -105 L 168 -48 Q 141 -59 118 -78.5 Q 95 -98 81 -124 Q 67 -150 61.5 -179.5 Q 56 -209 56 -238 L 56 -540 Q 56 -567 60.5 -593.5 Q 65 -620 76 -644 Q 87 -668 105.5 -688 Q 124 -708 147 -720.5 Q 170 -733 196.5 -738 Q 223 -743 250 -743 Q 277 -743 303.5 -738 Q 330 -733 353 -720.5 Q 376 -708 394.5 -688 Q 413 -668 424 -644 Q 435 -620 439.5 -593.5 Q 444 -567 444 -540 L 444 -195 Q 444 -168 442 -141.5 Q 440 -115 431.5 -90 Q 423 -65 408.5 -42.5 Q 394 -20 374.5 -2 Q 355 16 332.5 30 Q 310 44 286.5 57 Q 263 70 240.5 84 Q 218 98 198 116 Q 203 115 207.5 115 Q 212 115 216 115 Q 234 115 250.5 121 Q 267 127 283 134 Q 299 141 316 147 Q 333 153 350 153 Q 361 153 370.5 147 Q 380 141 385.5 131.5 Q 391 122 394.5 112 Q 398 102 400 91 Q 402 80 403 69.5 Q 404 59 404 48 L 404 41 L 481 41 L 481 52 Q 481 71 478.5 90.5 Q 476 110 470.5 128.5 Q 465 147 456.5 164.5 Q 448 182 434.5 195.5 Q 421 209 402.5 216 Q 384 223 365 223 Z " id="path1"/>
</defs>
<g>
<g data-source-text="Q" fill="#20242e" transform="translate(40 104.99201) rotate(0) scale(0.09599999)">
<use href="#path1" transform="translate(0 0)"/>
</g>
</g>
</svg>