<svg xmlns="http://www.w3.org/2000/svg" height="160" viewBox="0 0 128 160" width="128"><defs><path d="M 95 0 L 95 -665 L 49 -665 L 49 -735 L 173 -735 L 173 -360 Q 194 -389 215 -417.5 Q 236 -446 255.5 -475.5 Q 275 -505 292.5 -535.5 Q 310 -566 324.5 -598.5 Q 339 -631 348.5 -665.5 Q 358 -700 358 -735 L 436 -735 Q 436 -690 422.5 -646.5 Q 409 -603 389.5 -562.5 Q 370 -522 346.5 -483.5 Q 323 -445 297 -408 Q 319 -368 339.5 -327 Q 360 -286 378 -243.5 Q 396 -201 411.5 -158 Q 427 -115 436 -70 L 482 -70 L 482 0 L 366 0 Q 366 -30 360 -60 Q 354 -90 345 -119 Q 336 -148 325 -176 Q 314 -204 302 -231.5 Q 290 -259 276.5 -286.5 Q 263 -314 249 -341 Q 230 -315 211 -289.5 Q 192 -264 173 -239 L 173 0 Z " id="path1"/></defs><g><g fill="#20242e" transform="translate(40 105.20961) rotate(0)"><use href="#path1" transform="translate(0 0) scale(0.09599999)"/></g></g></svg>