<svg xmlns="http://www.w3.org/2000/svg" height="160" viewBox="0 0 128 160" width="128"><defs><path d="M 253.00002 8 C 237 8 221.33333 7.1666665 206.00002 5.5 C 190.66669 3.8333333 175.66667 0.4999998 161.00002 -4.5000005 C 146.33333 -9.5 132.33333 -16.166668 119 -24.5 C 105.666664 -32.833332 94.16667 -43 84.50001 -55.000004 C 74.833336 -67 67.333336 -80.5 62.000004 -95.50001 C 56.666668 -110.5 54 -125.666664 54 -141 C 54 -141 54 -141.16667 54 -141.50002 C 54 -141.83333 54 -142 54 -142 L 132 -142 C 132 -142 132 -142 132 -142 C 132 -142 132 -142 132 -142 C 132 -128.66666 136 -116.16667 144.00002 -104.50001 C 152 -92.83334 162 -83.833336 174.00002 -77.5 C 186 -71.166664 198.66666 -67 212 -65.00001 C 225.33331 -63.000004 239.00002 -62.000004 253.00002 -62.000004 C 262.33334 -62.000004 271.6667 -62.5 281 -63.500004 C 290.33334 -64.5 299.33334 -66.16667 308.00003 -68.50001 C 316.6667 -70.833336 325.1667 -74.333336 333.5 -79 C 341.8333 -83.66667 349.1667 -89.5 355.50003 -96.5 C 361.83334 -103.5 366.5 -111.5 369.5 -120.5 C 372.5 -129.5 374 -138.33333 374 -147.00002 C 374 -157 372.5 -166.66666 369.5 -176 C 366.5 -185.33334 361.83334 -193.50002 355.50003 -200.50002 C 349.1667 -207.5 341.66666 -213.33333 333 -218 C 324.33334 -222.66667 315.5 -226.33334 306.5 -229 C 297.5 -231.66666 288.16666 -233.33334 278.5 -234.00002 C 268.8333 -234.66667 259.3333 -235 250 -235 L 194.00002 -235 L 194.00002 -305.00003 L 250 -305.00003 C 258 -305 266.1667 -305.5 274.5 -306.5 C 282.8333 -307.5 291 -309.1667 299 -311.5 C 307 -313.8333 314.83334 -317 322.50003 -321 C 330.16666 -325.00003 336.6667 -330.16666 342.00003 -336.50003 C 347.3333 -342.83334 351.3333 -350 354.00003 -358 C 356.66666 -366 358 -374 358 -382.00003 C 358 -382.00003 358 -382.00003 358 -382.00003 C 358 -382.00003 358 -382.00003 358 -382.00003 C 358 -394.00003 355.00003 -405.50003 349.00003 -416.50003 C 343.00003 -427.50003 334.8333 -436 324.5 -442 C 314.1667 -448 303.1667 -452.16666 291.50003 -454.5 C 279.83334 -456.83328 268 -457.99997 256 -458 C 236.00002 -457.99997 216.33334 -455.66663 197.00002 -451.00003 C 177.66667 -446.33334 159 -440 141 -432 L 141 -340 L 64 -340 L 64 -474.00003 C 93.333336 -490.66666 124.5 -503.8333 157.5 -513.50006 C 190.49998 -523.1667 223.66667 -528 257.00003 -528 C 271.6667 -528 286.1667 -526.99994 300.5 -525.00006 C 314.83334 -523 328.6667 -519.5 342.00003 -514.50006 C 355.33334 -509.5 367.99997 -502.83334 380 -494.50003 C 391.99997 -486.16666 402.33334 -476.3333 411.00003 -465 C 419.66666 -453.66666 425.99997 -440.83334 430 -426.50003 C 434 -412.1667 435.99997 -398 436 -384 C 435.99997 -372 434.5 -360.00003 431.5 -348.00003 C 428.50003 -336.00003 423.5 -325 416.50003 -315 C 409.50003 -305 401 -296.5 391 -289.5 C 381 -282.5 370.33337 -276.66666 359.00003 -272 C 372.33334 -266.66666 385 -260.16666 397 -252.5 C 409 -244.83331 419.33334 -235.49998 428.00003 -224.5 C 436.66666 -213.49998 442.8333 -201.16667 446.50003 -187.5 C 450.1667 -173.83333 452 -159.99998 452.00003 -146 C 452 -130 449.6667 -114.333336 445.00003 -99 C 440.33334 -83.666664 433.1667 -69.833336 423.50003 -57.5 C 413.83334 -45.166668 402.33334 -34.666664 389.00003 -26.000002 C 375.66666 -17.333334 361.5 -10.333333 346.5 -5.0000005 C 331.49997 0.33333308 316 3.8333333 300.00003 5.5 C 284 7.1666665 268.33334 8 253.00002 8 Z " id="path1"/></defs><g><g fill="#ffffff" transform="translate(40 105.20961) rotate(0)"><use href="#path1" transform="translate(0 0) scale(0.09599999)"/></g></g></svg>