<svg xmlns="http://www.w3.org/2000/svg" height="160" viewBox="0 0 128 160" width="128"><defs><path d="M 64 0 L 64 -74 C 64 -107.333336 66.166664 -140.66667 70.5 -174.00002 C 74.833336 -207.33333 80.16667 -240.5 86.5 -273.5 C 92.833336 -306.5 99.66667 -339.5 107.00001 -372.50003 C 114.333336 -405.50003 122.166664 -438.16666 130.5 -470.5 C 138.83333 -502.83334 147.5 -535.3333 156.5 -568 C 165.5 -600.6667 174.66667 -633 184 -665 L 109 -665 L 109 -735 L 295 -735 C 305.6667 -699 316.33334 -662.8333 327 -626.5 C 337.6667 -590.1667 347.8333 -553.8333 357.5 -517.5 C 367.1667 -481.1667 376.3333 -444.6667 385 -408 C 393.6667 -371.33334 401.66666 -334.5 409 -297.5 C 416.33334 -260.5 422.66666 -223.33333 428.00003 -186.00002 C 433.33334 -148.66667 435.99997 -111.333336 436 -74 L 436 0 L 358 0 L 358 -74 C 358 -93.333336 357.33334 -112.66667 356 -132 C 354.6667 -151.33334 352.66666 -170.66666 350 -190 L 150.00002 -190 C 147.33333 -170.66666 145.33333 -151.33334 144.00002 -132 C 142.66666 -112.66667 142 -93.333336 142 -74 L 142 0 Z M 340 -260.00003 C 329.3333 -328 316 -395.66666 300.00003 -463.00003 C 284 -530.3333 267.33334 -597.3333 250 -664 C 232.66666 -597.3333 216 -530.3333 200.00002 -463.00003 C 184 -395.66666 170.66666 -328 160.00002 -260.00003 Z " id="path1"/></defs><g><g fill="#ffffff" transform="translate(40 105.20961) rotate(0)"><use href="#path1" transform="translate(0 0) scale(0.09599999)"/></g></g></svg>