<?xml version="1.0" encoding="UTF-8" standalone="no"?>
<svg height="160" viewBox="0 0 128 160" width="128" xmlns="http://www.w3.org/2000/svg">
<defs>
<path d="M 24 0 L 24 -70 Q 35 -70 45 -73.5 Q 55 -77 62 -85 Q 69 -93 74.5 -102 Q 80 -111 85 -120 Q 90 -129 93 -139 Q 96 -149 99 -159 Q 102 -169 104.5 -179.5 Q 107 -190 109 -200.5 Q 111 -211 112.5 -221 Q 114 -231 115 -241.5 Q 116 -252 117 -262.5 Q 118 -273 119 -283.5 Q 120 -294 120.5 -304.5 Q 121 -315 121 -325.5 Q 121 -336 121 -346.5 Q 121 -357 121 -367 Q 121 -378 121 -388.5 Q 121 -399 121 -409.5 Q 121 -420 120.5 -430.5 Q 120 -441 119 -451.5 Q 118 -462 117 -472.5 Q 116 -483 115 -493.5 Q 114 -504 112.5 -514 Q 111 -524 109 -534.5 Q 107 -545 104.5 -555.5 Q 102 -566 99 -576 Q 96 -586 93 -596 Q 90 -606 85 -615 Q 80 -624 74.5 -633 Q 69 -642 62 -650 Q 55 -658 45 -661.5 Q 35 -665 24 -665 L 24 -735 Q 41 -735 57.5 -730.5 Q 74 -726 87.5 -715.5 Q 101 -705 111.5 -692 Q 122 -679 130.5 -664.5 Q 139 -650 145.5 -634 Q 152 -618 157 -602 Q 162 -586 166 -569.5 Q 170 -553 173 -536.5 Q 176 -520 178 -503.5 Q 180 -487 181.5 -470 Q 183 -453 184 -436 Q 185 -419 185 -402 L 211 -402 L 211 -735 L 289 -735 L 289 -402 L 315 -402 Q 315 -419 316 -436 Q 317 -453 318.5 -470 Q 320 -487 322 -503.5 Q 324 -520 327 -536.5 Q 330 -553 334 -569.5 Q 338 -586 343 -602 Q 348 -618 354.5 -634 Q 361 -650 369.5 -664.5 Q 378 -679 388.5 -692 Q 399 -705 412.5 -715.5 Q 426 -726 442.5 -730.5 Q 459 -735 476 -735 L 476 -665 Q 465 -665 455 -661.5 Q 445 -658 438 -650 Q 431 -642 425.5 -633 Q 420 -624 415 -615 Q 410 -606 407 -596 Q 404 -586 401 -576 Q 398 -566 395.5 -555.5 Q 393 -545 391 -534.5 Q 389 -524 387.5 -514 Q 386 -504 385 -493.5 Q 384 -483 383 -472.5 Q 382 -462 381 -451.5 Q 380 -441 379.5 -430.5 Q 379 -420 379 -409.5 Q 379 -399 379 -388.5 Q 379 -378 379 -368 Q 379 -357 379 -346.5 Q 379 -336 379 -325.5 Q 379 -315 379.5 -304.5 Q 380 -294 381 -283.5 Q 382 -273 383 -262.5 Q 384 -252 385 -241.5 Q 386 -231 387.5 -221 Q 389 -211 391 -200.5 Q 393 -190 395.5 -179.5 Q 398 -169 401 -159 Q 404 -149 407 -139 Q 410 -129 415 -120 Q 420 -111 425.5 -102 Q 431 -93 438 -85 Q 445 -77 455 -73.5 Q 465 -70 476 -70 L 476 0 Q 459 -0 442.5 -4.5 Q 426 -9 412.5 -19.5 Q 399 -30 388.5 -43 Q 378 -56 369.5 -70.5 Q 361 -85 354.5 -101 Q 348 -117 343 -133 Q 338 -149 334 -165.5 Q 330 -182 327 -198.5 Q 324 -215 322 -231.5 Q 320 -248 318.5 -265 Q 317 -282 316 -299 Q 315 -316 315 -333 L 289 -333 L 289 0 L 211 0 L 211 -332 L 185 -332 Q 185 -316 184 -299 Q 183 -282 181.5 -265 Q 180 -248 178 -231.5 Q 176 -215 173 -198.5 Q 170 -182 166 -165.5 Q 162 -149 157 -133 Q 152 -117 145.5 -101 Q 139 -85 130.5 -70.5 Q 122 -56 111.5 -43 Q 101 -30 87.5 -19.5 Q 74 -9 57.5 -4.5 Q 41 -0 24 0 Z " id="path1"/>
</defs>
<g>
<g data-source-text="Ж" fill="#20242e" transform="translate(40 104.99201) rotate(0) scale(0.09599999)">
<use href="#path1" transform="translate(0 0)"/>
</g>
</g>
</svg>