<svg xmlns="http://www.w3.org/2000/svg" height="160" viewBox="0 0 128 160" width="128"><defs><path d="M 244 8 C 226.66666 8 209.33333 6 192 2 C 174.66667 -1.9999998 158.5 -8.333334 143.5 -17 C 128.5 -25.666668 115.166664 -36.5 103.5 -49.5 C 91.833336 -62.5 82.333336 -77.00001 75.00001 -93.00001 C 67.666664 -109.00001 62.666668 -125.66667 60.000004 -143 C 57.333332 -160.33334 55.999996 -177.66667 56 -195 L 56 -540 C 55.999996 -557.3333 57.333332 -574.8333 60.000004 -592.5 C 62.666668 -610.1666 67.666664 -627 75.00001 -643 C 82.333336 -659 92.00001 -673.6667 104.00001 -687.00006 C 116 -700.3333 129.66667 -711.3333 145 -720.00006 C 160.33334 -728.6666 176.83334 -734.6667 194.50002 -738 C 212.16667 -741.3334 229.66667 -743.00006 247 -743.00006 C 263.6667 -743.00006 280.1667 -741.6667 296.50003 -739 C 312.83334 -736.3333 328.5 -731.33325 343.50003 -724 C 358.5 -716.6666 372.1667 -707.3334 384.5 -696.00006 C 396.8333 -684.6666 406.83334 -671.6666 414.5 -657.00006 C 422.1667 -642.3333 428 -627 432 -611.00006 C 436 -595 437.99997 -578.6667 438.00003 -562 C 437.99997 -561.3333 437.99997 -560.8333 438.00003 -560.5 C 437.99997 -560.1667 437.99997 -559.6667 438.00003 -559.00006 L 360.00003 -559.00006 C 360 -559 360 -559.1667 360.00003 -559.50006 C 360 -559.8334 360 -560.3334 360.00003 -561 C 360 -575.6667 357.5 -590.3334 352.5 -605.00006 C 347.50003 -619.6667 339.83334 -632.3333 329.5 -643 C 319.16666 -653.6667 306.66666 -661.3333 292 -666 C 277.3333 -670.6667 262.3333 -673.00006 247 -673.00006 C 230.33333 -673.00006 214.16667 -669.8334 198.5 -663.5 C 182.83331 -657.1667 170 -647.3334 160.00002 -634.00006 C 150 -620.6667 143.16667 -605.8333 139.5 -589.5 C 135.83333 -573.1667 134 -556.6667 134 -540 L 134 -195 C 134 -178.99998 135.83333 -162.83334 139.5 -146.5 C 143.16667 -130.16667 149.83334 -115.5 159.50002 -102.50001 C 169.16667 -89.5 181.5 -79.5 196.50002 -72.5 C 211.5 -65.5 227.33333 -62.000004 244 -62.000004 C 254.66667 -62.000004 265.5 -63.5 276.5 -66.5 C 287.5 -69.5 297.6667 -73.833336 307 -79.5 C 316.33334 -85.166664 324.66666 -92.33333 332 -101.00001 C 339.33334 -109.66667 345.00003 -119.166664 349.00003 -129.5 C 353.00003 -139.83333 355.5 -150.5 356.5 -161.5 C 357.5 -172.5 358 -183.66667 358 -195 L 358 -330 L 250 -330 L 250 -400.00003 L 476 -400.00003 L 476 -330 L 436 -330 L 436 -195 C 435.99997 -177.00002 435 -159.16667 433.00003 -141.50002 C 431 -123.83334 426.3333 -107 419 -91 C 411.66666 -75 401.66666 -60.499996 389.00003 -47.5 C 376.3333 -34.5 362.16666 -23.833332 346.5 -15.500001 C 330.8333 -7.166667 314.1667 -1.1666665 296.50003 2.5000002 C 278.83334 6.1666665 261.33334 8 244 8 Z " id="path1"/></defs><g><g fill="#ffffff" transform="translate(40 105.20961) rotate(0)"><use href="#path1" transform="translate(0 0) scale(0.09599999)"/></g></g></svg>