<svg xmlns="http://www.w3.org/2000/svg" height="160" viewBox="0 0 128 160" width="128"><defs><path d="M 64 0 L 64 -37 C 64 -73.666664 70 -109.333336 82.00001 -144.00002 C 94.00001 -178.66667 109.66667 -211.66667 129 -243.00002 L 206.00002 -368 L 129 -492.00003 C 112.33334 -518 98.33333 -545.6667 87.00001 -575 C 75.66667 -604.3333 68.66667 -634.3333 66 -665 L 18.000002 -665 L 18.000002 -735 L 142 -735 L 142 -698.00006 C 142 -668 146.83333 -638.6666 156.5 -610.00006 C 166.16667 -581.3333 178.99998 -554.3334 195 -529 L 250 -439.00003 L 305.00003 -529 C 321 -554.3334 333.8333 -581.3333 343.50003 -610.00006 C 353.16666 -638.6666 358 -668 358 -698.00006 L 358 -735 L 436 -735 L 436 -698.00006 C 435.99997 -661.3333 430 -625.6666 418.00003 -591 C 406.00003 -556.3333 390.33334 -523.3333 371.00003 -492.00003 L 294.00003 -367 L 371.00003 -243.00002 C 390.33334 -211.66667 406.00003 -178.66667 418.00003 -144.00002 C 430 -109.333336 435.99997 -73.666664 436 -37 L 436 0 L 358 0 L 358 -37 C 358 -67 353.16666 -96.33333 343.50003 -125 C 333.8333 -153.66667 321 -180.66667 305.00003 -206.00002 L 250 -296 L 195 -206.00002 C 178.99998 -180.66667 166.16667 -153.66667 156.5 -125 C 146.83333 -96.33333 142 -67 142 -37 L 142 0 Z " id="path1"/></defs><g><g fill="#ffffff" transform="translate(40 105.20961) rotate(0)"><use href="#path1" transform="translate(0 0) scale(0.09599999)"/></g></g></svg>