<?xml version="1.0" encoding="UTF-8" standalone="no"?>
<svg height="160" viewBox="0 0 128 160" width="128" xmlns="http://www.w3.org/2000/svg">
<defs>
<path d="M 247 8 Q 198 8 151 -7 Q 104 -22 64 -49 L 64 -180 L 141 -180 L 141 -87 Q 166 -75 193 -68.5 Q 220 -62 247 -62 Q 275 -62 301 -72.5 Q 327 -83 344 -104.5 Q 361 -126 367.5 -153 Q 374 -180 374 -208 Q 374 -226 371.5 -243.5 Q 369 -261 362.5 -277.5 Q 356 -294 344.5 -307.5 Q 333 -321 318 -330.5 Q 303 -340 285.5 -343.5 Q 268 -347 250 -347 L 194 -347 L 194 -417 L 250 -417 Q 273 -417 295.5 -426 Q 318 -435 332.5 -453 Q 347 -471 352.5 -494.5 Q 358 -518 358 -541 Q 358 -566 352 -591 Q 346 -616 330 -635.5 Q 314 -655 290 -664 Q 266 -673 240 -673 Q 215 -673 189.5 -667 Q 164 -661 141 -649 L 141 -555 L 64 -555 L 64 -686 Q 102 -713 147.5 -728 Q 193 -743 240 -743 Q 267 -743 293.5 -738 Q 320 -733 343 -721 Q 366 -709 385 -689.5 Q 404 -670 415.5 -646 Q 427 -622 431.5 -595.5 Q 436 -569 436 -543 Q 436 -519 431.5 -494.5 Q 427 -470 415.5 -448.5 Q 404 -427 386 -410.5 Q 368 -394 346 -383 Q 372 -373 393 -354.5 Q 414 -336 428 -312.5 Q 442 -289 447 -261.5 Q 452 -234 452 -206 Q 452 -178 447.5 -150 Q 443 -122 431 -97 Q 419 -72 399.5 -51 Q 380 -30 355.5 -16.5 Q 331 -3 303 2.5 Q 275 8 247 8 Z " id="path1"/>
</defs>
<g>
<g data-source-text="З" fill="#dee4e3" transform="translate(40 104.99201) rotate(0) scale(0.09599999)">
<use href="#path1" transform="translate(0 0)"/>
</g>
</g>
</svg>