<?xml version="1.0" encoding="UTF-8" standalone="no"?>
<svg height="160" viewBox="0 0 128 160" width="128" xmlns="http://www.w3.org/2000/svg">
<defs>
<path d="M 396 180 Q 372 180 348.5 176 Q 325 172 304 161.5 Q 283 151 265.5 134.5 Q 248 118 237 97 Q 226 76 221 53 Q 216 30 216 6 Q 192 3 169.5 -5 Q 147 -13 128 -27 Q 109 -41 94.5 -60.5 Q 80 -80 71.5 -102 Q 63 -124 59.5 -147.5 Q 56 -171 56 -195 L 56 -540 Q 56 -567 60.5 -593.5 Q 65 -620 76 -644 Q 87 -668 105.5 -688 Q 124 -708 147 -720.5 Q 170 -733 196.5 -738 Q 223 -743 250 -743 Q 277 -743 303.5 -738 Q 330 -733 353 -720.5 Q 376 -708 394.5 -688 Q 413 -668 424 -644 Q 435 -620 439.5 -593.5 Q 444 -567 444 -540 L 444 -195 Q 444 -172 441 -149 Q 438 -126 430 -104.5 Q 422 -83 408.5 -64 Q 395 -45 377 -30.5 Q 359 -16 337.5 -7.5 Q 316 1 293 5 Q 294 26 300 46 Q 306 66 320.5 81 Q 335 96 355 103 Q 375 110 396 110 L 420 110 L 420 180 Z M 250 -62 Q 267 -62 283.5 -65.5 Q 300 -69 314 -78 Q 328 -87 338.5 -100.5 Q 349 -114 355.5 -129.5 Q 362 -145 364 -161.5 Q 366 -178 366 -195 L 366 -540 Q 366 -557 364 -573.5 Q 362 -590 355.5 -605.5 Q 349 -621 338.5 -634.5 Q 328 -648 314 -657 Q 300 -666 283.5 -669.5 Q 267 -673 250 -673 Q 233 -673 216.5 -669.5 Q 200 -666 186 -657 Q 172 -648 161.5 -634.5 Q 151 -621 144.5 -605.5 Q 138 -590 136 -573.5 Q 134 -557 134 -540 L 134 -195 Q 134 -178 136 -161.5 Q 138 -145 144.5 -129.5 Q 151 -114 161.5 -100.5 Q 172 -87 186 -78 Q 200 -69 216.5 -65.5 Q 233 -62 250 -62 Z " id="path1"/>
</defs>
<g>
<g data-source-text="Q" fill="#20242e" transform="translate(40 104.99201) rotate(0) scale(0.09599999)">
<use href="#path1" transform="translate(0 0)"/>
</g>
</g>
</svg>