<svg xmlns="http://www.w3.org/2000/svg" height="160" viewBox="0 0 128 160" width="128"><defs><path d="M 275 8 C 261.66666 8 248.5 6.833333 235.5 4.5000005 C 222.50002 2.1666667 210 -2.0000002 198 -8 C 186 -14 175.16667 -21.666666 165.50002 -31.000002 C 155.83334 -40.333336 147.66667 -50.666668 141 -62.000004 L 141 0 L 64 0 L 64 -181 L 141 -181 C 141 -165.66667 143 -150.5 147.00002 -135.50002 C 151 -120.500015 158 -107.16667 168.00002 -95.50001 C 178.00002 -83.833336 190.33333 -75.333336 205.00002 -70.00001 C 219.66667 -64.66667 234.66667 -62.000004 250 -62.000004 C 250 -62.000004 250 -62.000004 250 -62.000004 C 250 -62.000004 250 -62.000004 250 -62.000004 C 266 -62.000004 281.5 -64.5 296.50003 -69.5 C 311.5 -74.5 324.3333 -82.666664 335 -94.00001 C 345.66666 -105.33333 353.6667 -118.66667 359.00003 -134 C 364.3333 -149.33333 366.99997 -164.66667 367 -180.00002 C 366.99997 -197.33334 363.49997 -214.00002 356.5 -230 C 349.5 -246 340 -260.16666 328.00003 -272.5 C 316 -284.8333 302.5 -295.33334 287.5 -304 C 272.5 -312.6667 257.5 -320.83334 242.50002 -328.50003 C 227.50002 -336.16666 212.50002 -344.33334 197.50002 -353.00003 C 182.50002 -361.6667 168.33334 -371.1667 155 -381.50003 C 141.66667 -391.8333 129.33333 -403.33334 118.00001 -416.00003 C 106.666664 -428.6667 96.83333 -442.50006 88.50001 -457.50003 C 80.16667 -472.50003 73.833336 -488.5 69.5 -505.5 C 65.166664 -522.5 62.999996 -539.3333 63 -556 C 62.999996 -571.3333 64.666664 -586.6666 68 -602 C 71.33333 -617.3333 75.833336 -632.1666 81.5 -646.5 C 87.16667 -660.8333 94.666664 -674.33325 104.00001 -687.00006 C 113.33333 -699.6667 124.5 -710.3334 137.5 -719.00006 C 150.5 -727.66675 164.66667 -733.8333 180.00002 -737.50006 C 195.33333 -741.1667 210.66666 -743.00006 226.00002 -743.00006 C 239.33334 -743.00006 252.5 -741.8334 265.50003 -739.50006 C 278.5 -737.1667 290.83334 -732.8333 302.50003 -726.50006 C 314.1667 -720.1667 324.83334 -712.49994 334.5 -703.50006 C 344.1667 -694.5 352.33334 -684.3334 359.00003 -673.00006 L 359.00003 -735 L 436 -735 L 436 -554.00006 L 359.00003 -554.00006 C 359.00003 -569.3333 357 -584.5 353.00003 -599.50006 C 349 -614.5 342.1667 -627.8334 332.5 -639.50006 C 322.83334 -651.1667 310.5 -659.6667 295.5 -665 C 280.49997 -670.3333 265.66666 -673.00006 251.00002 -673.00006 C 235.66669 -673.00006 220.66667 -670.3333 206.00002 -665 C 191.33334 -659.6667 179.16666 -651.1667 169.5 -639.50006 C 159.83333 -627.8334 152.66666 -614.6667 148 -600.00006 C 143.33333 -585.3333 141 -570.3333 141 -555 C 141 -538.3334 144.5 -522 151.5 -506.00003 C 158.5 -490.00003 167.99998 -475.83334 180.00002 -463.50003 C 192 -451.1667 205.33334 -440.6667 220.00002 -432 C 234.66667 -423.33334 249.66666 -414.99997 265 -407 C 280.33334 -399.00003 295.33334 -390.83334 310 -382.50003 C 324.66666 -374.16666 338.6667 -364.6667 352 -354.00003 C 365.33334 -343.33334 377.83337 -331.6667 389.50003 -319.00003 C 401.1667 -306.33334 411.1667 -292.5 419.5 -277.5 C 427.83334 -262.49997 434.00003 -246.66666 438.00003 -230 C 442 -213.33333 444.00003 -196.33333 444.00003 -179 C 444.00003 -163.66667 442.5 -148.16666 439.50003 -132.5 C 436.5 -116.833336 431.83337 -101.666664 425.5 -87.00001 C 419.16666 -72.333336 411.00003 -58.833332 401.00003 -46.500004 C 391 -34.166668 379.33334 -23.666666 366.00003 -15.000001 C 352.66666 -6.333334 338.1667 -0.33333325 322.50003 3 C 306.83334 6.3333335 291.00003 8 275 8 Z " id="path1"/></defs><g><g fill="#ffffff" transform="translate(40 105.20961) rotate(0)"><use href="#path1" transform="translate(0 0) scale(0.09599999)"/></g></g></svg>