<svg xmlns="http://www.w3.org/2000/svg" height="160" viewBox="0 0 128 160" width="128"><defs><path d="M 18 0 L 18 -70 L 76 -70 L 209 -368 L 76 -665 L 18 -665 L 18 -735 L 188 -735 L 188 -665 L 160 -665 L 250 -460 L 340 -665 L 312 -665 L 312 -735 L 482 -735 L 482 -665 L 424 -665 L 291 -367 L 424 -70 L 482 -70 L 482 0 L 312 0 L 312 -70 L 340 -70 L 250 -275 L 160 -70 L 188 -70 L 188 0 Z " id="path1"/></defs><g><g fill="#dee4e3" transform="translate(40 105.20961) rotate(0)"><use href="#path1" transform="translate(0 0) scale(0.09599999)"/></g></g></svg>