<svg xmlns="http://www.w3.org/2000/svg" height="160" viewBox="0 0 128 160" width="128"><defs><path d="M 250 8 C 232.66666 8 215.33333 6.1666665 198 2.5000002 C 180.66667 -1.1666665 164.50002 -7.3333335 149.5 -16 C 134.5 -24.666666 121.333336 -35.666664 110.00001 -49 C 98.66667 -62.333336 89.5 -77.00001 82.5 -93.00001 C 75.5 -109.00001 70.66667 -125.66667 68 -143 C 65.333336 -160.33334 64 -177.66667 64 -195 L 64 -665 L 18.000002 -665 L 18.000002 -735 L 142 -735 L 142 -195 C 142 -184.33333 142.66666 -173.5 144.00002 -162.50002 C 145.33333 -151.49998 147.83333 -141 151.5 -131 C 155.16667 -120.99999 160 -111.5 166 -102.50001 C 172 -93.5 179.49998 -85.833336 188.50002 -79.5 C 197.5 -73.16667 207.33333 -68.66667 218 -66 C 228.66667 -63.333336 239.33334 -62.000004 250 -62.000004 C 260.66666 -62.000004 271.3333 -63.333336 282 -66 C 292.66666 -68.66667 302.5 -73.16667 311.5 -79.5 C 320.5 -85.833336 328 -93.5 334 -102.50001 C 340 -111.5 344.83334 -120.99999 348.50003 -131 C 352.16666 -141 354.6667 -151.49998 356 -162.50002 C 357.33334 -173.5 358 -184.33333 358 -195 L 358 -735 L 482 -735 L 482 -665 L 436 -665 L 436 -195 C 435.99997 -177.66667 434.66666 -160.33334 432 -143 C 429.33334 -125.66667 424.5 -109.00001 417.50003 -93.00001 C 410.49997 -77.00001 401.33334 -62.333336 390 -49 C 378.66666 -35.666664 365.49997 -24.666666 350.5 -16 C 335.5 -7.3333335 319.3333 -1.1666665 302 2.5000002 C 284.66666 6.1666665 267.33334 8 250 8 Z " id="path1"/></defs><g><g fill="#ffffff" transform="translate(40 105.20961) rotate(0)"><use href="#path1" transform="translate(0 0) scale(0.09599999)"/></g></g></svg>