<?xml version="1.0" encoding="UTF-8" standalone="no"?>
<svg height="160" viewBox="0 0 128 160" width="128" xmlns="http://www.w3.org/2000/svg">
<defs>
<path d="M 246 8 Q 219 8 193.5 2.5 Q 168 -3 145 -16 Q 122 -29 104 -49 Q 86 -69 75 -93 Q 64 -117 60 -143 Q 56 -169 56 -195 L 56 -540 Q 56 -566 60 -592 Q 64 -618 75 -642 Q 86 -666 104 -686 Q 122 -706 145 -719 Q 168 -732 193.5 -737.5 Q 219 -743 246 -743 Q 296 -743 344 -728.5 Q 392 -714 436 -689 L 436 -555 L 359 -555 L 359 -647 Q 332 -658 304.5 -665.5 Q 277 -673 248 -673 Q 231 -673 215 -669 Q 199 -665 185 -656 Q 171 -647 160.5 -633.5 Q 150 -620 144 -605 Q 138 -590 136 -573.5 Q 134 -557 134 -540 L 134 -195 Q 134 -178 136 -161.5 Q 138 -145 144 -130 Q 150 -115 160.5 -101.5 Q 171 -88 185 -79 Q 199 -70 215 -66 Q 231 -62 248 -62 Q 276 -62 304 -69.5 Q 332 -77 358 -88 L 358 -400 L 436 -400 L 436 -46 Q 392 -21 344 -6.5 Q 296 8 246 8 Z " id="path1"/>
</defs>
<g>
<g data-source-text="G" fill="#20242e" transform="translate(40 104.99201) rotate(0) scale(0.09599999)">
<use href="#path1" transform="translate(0 0)"/>
</g>
</g>
</svg>