<?xml version="1.0" encoding="UTF-8" standalone="no"?>
<svg height="160" viewBox="0 0 128 160" width="128" xmlns="http://www.w3.org/2000/svg">
<defs>
<path d="M 27 0 L 27 -64 Q 39 -64 50.5 -67.5 Q 62 -71 71.5 -79 Q 81 -87 88 -97 Q 95 -107 100 -118 Q 105 -129 109 -140.5 Q 113 -152 115.5 -163.5 Q 118 -175 119.5 -187 Q 121 -199 122.5 -211.5 Q 124 -224 124 -236 Q 124 -248 124 -260 Q 124 -272 124 -284 Q 124 -296 122.5 -308.5 Q 121 -321 119.5 -333 Q 118 -345 115.5 -356.5 Q 113 -368 109 -379.5 Q 105 -391 100 -402 Q 95 -413 88 -423 Q 81 -433 71.5 -441 Q 62 -449 50.5 -452.5 Q 39 -456 27 -456 L 27 -520 Q 46 -520 65 -515.5 Q 84 -511 100.5 -500 Q 117 -489 130 -474 Q 143 -459 152.5 -442 Q 162 -425 168.5 -406.5 Q 175 -388 179 -369 Q 183 -350 185.5 -330.5 Q 188 -311 189 -292 L 215 -292 L 215 -520 L 285 -520 L 285 -292 L 311 -292 Q 312 -311 314.5 -330.5 Q 317 -350 321 -369 Q 325 -388 331.5 -406.5 Q 338 -425 347.5 -442 Q 357 -459 370 -474 Q 383 -489 399.5 -500 Q 416 -511 435 -515.5 Q 454 -520 473 -520 L 473 -456 Q 461 -456 449.5 -452.5 Q 438 -449 428.5 -441 Q 419 -433 412 -423 Q 405 -413 400 -402 Q 395 -391 391 -379.5 Q 387 -368 384.5 -356.5 Q 382 -345 380.5 -333 Q 379 -321 377.5 -308.5 Q 376 -296 376 -284 Q 376 -272 376 -260 Q 376 -248 376 -236 Q 376 -224 377.5 -211.5 Q 379 -199 380.5 -187 Q 382 -175 384.5 -163.5 Q 387 -152 391 -140.5 Q 395 -129 400 -118 Q 405 -107 412 -97 Q 419 -87 428.5 -79 Q 438 -71 449.5 -67.5 Q 461 -64 473 -64 L 473 0 Q 454 -0 435 -4.5 Q 416 -9 399.5 -20 Q 383 -31 370 -46 Q 357 -61 347.5 -78 Q 338 -95 331.5 -113.5 Q 325 -132 321 -151 Q 317 -170 314.5 -189.5 Q 312 -209 311 -228 L 285 -228 L 285 0 L 215 0 L 215 -228 L 189 -228 Q 188 -209 185.5 -189.5 Q 183 -170 179 -151 Q 175 -132 168.5 -113.5 Q 162 -95 152.5 -78 Q 143 -61 130 -46 Q 117 -31 100.5 -20 Q 84 -9 65 -4.5 Q 46 -0 27 0 Z " id="path1"/>
</defs>
<g>
<g data-source-text="ж" fill="#20242e" transform="translate(40 104.99201) rotate(0) scale(0.09599999)">
<use href="#path1" transform="translate(0 0)"/>
</g>
</g>
</svg>