<?xml version="1.0" encoding="UTF-8" standalone="no"?>
<svg xmlns='http://www.w3.org/2000/svg' height="160" viewBox="0 0 128 160" width="128"><defs><path d="M 14 0 L 14 -70 L 51 -70 L 54 -147 Q 59 -277 67.5 -406 Q 76 -535 77 -665 L 43 -665 L 43 -735 L 188 -735 L 250 -240 L 312 -735 L 457 -735 L 457 -665 L 423 -665 Q 424 -535 432.5 -406 Q 441 -277 446 -147 L 449 -70 L 486 -70 L 486 0 L 342 0 L 342 -70 L 371 -70 L 368 -147 Q 363 -262 360 -376.5 Q 357 -491 356 -606 L 280 0 L 220 0 L 144 -606 Q 143 -491 140 -376.5 Q 137 -262 132 -147 L 129 -70 L 158 -70 L 158 0 Z " id="path1"/></defs><g><g data-source-text="M" fill="#dee4e3" transform="translate(40 104.99201) rotate(0) scale(0.09599999)"><use href="#path1" transform="translate(0 0)"/></g></g></svg>