<svg xmlns="http://www.w3.org/2000/svg" height="160" viewBox="0 0 128 160" width="128"><defs><path d="M 253 8 Q 229 8 206 5.5 Q 183 3 161 -4.5 Q 139 -12 119 -24.5 Q 99 -37 84.5 -55 Q 70 -73 62 -95.5 Q 54 -118 54 -141 Q 54 -141 54 -141.5 Q 54 -142 54 -142 L 132 -142 Q 132 -142 132 -142 Q 132 -142 132 -142 Q 132 -122 144 -104.5 Q 156 -87 174 -77.5 Q 192 -68 212 -65 Q 232 -62 253 -62 Q 267 -62 281 -63.5 Q 295 -65 308 -68.5 Q 321 -72 333.5 -79 Q 346 -86 355.5 -96.5 Q 365 -107 369.5 -120.5 Q 374 -134 374 -147 Q 374 -162 369.5 -176 Q 365 -190 355.5 -200.5 Q 346 -211 333 -218 Q 320 -225 306.5 -229 Q 293 -233 278.5 -234 Q 264 -235 250 -235 L 194 -235 L 194 -305 L 250 -305 Q 263 -305 275.5 -306.5 Q 288 -308 300 -311.5 Q 312 -315 323 -321 Q 334 -327 342.5 -336.5 Q 351 -346 354.5 -358 Q 358 -370 358 -383 Q 358 -401 348.5 -417.5 Q 339 -434 323.5 -443 Q 308 -452 289.5 -455 Q 271 -458 253 -458 Q 235 -458 217 -455 Q 199 -452 183.5 -443 Q 168 -434 158 -418 Q 148 -402 148 -384 Q 148 -384 148 -383.5 Q 148 -383 148 -382 L 70 -382 Q 70 -383 70 -384 Q 70 -385 70 -386 Q 70 -407 77 -428 Q 84 -449 97 -466.5 Q 110 -484 128.5 -496 Q 147 -508 167.5 -515.5 Q 188 -523 209.5 -525.5 Q 231 -528 253 -528 Q 275 -528 297 -525.5 Q 319 -523 339.5 -516 Q 360 -509 378.5 -496.5 Q 397 -484 410.5 -466.5 Q 424 -449 430 -427.5 Q 436 -406 436 -384 Q 436 -366 431.5 -348 Q 427 -330 416.5 -315 Q 406 -300 391 -289.5 Q 376 -279 359 -272 Q 379 -264 397 -252.5 Q 415 -241 428 -224.5 Q 441 -208 446.5 -187.5 Q 452 -167 452 -146 Q 452 -122 445 -99 Q 438 -76 423.5 -57.5 Q 409 -39 389 -26 Q 369 -13 346.5 -5 Q 324 3 300 5.5 Q 276 8 253 8 Z " id="path1"/></defs><g><g fill="#20242e" transform="translate(40 105.20961) rotate(0)"><use href="#path1" transform="translate(0 0) scale(0.09599999)"/></g></g></svg>