<?xml version="1.0" encoding="UTF-8" standalone="no"?>
<svg height="160" viewBox="0 0 128 160" width="128" xmlns="http://www.w3.org/2000/svg">
<defs>
<path d="M 282 8 Q 262 8 242 4.5 Q 222 1 203.5 -7 Q 185 -15 169 -27 Q 153 -39 141 -55 L 141 0 L 64 0 L 64 -135 L 141 -135 Q 141 -123 147 -111.5 Q 153 -100 162 -91.5 Q 171 -83 182.5 -77.5 Q 194 -72 205.5 -68.5 Q 217 -65 229.5 -63.5 Q 242 -62 254 -62 Q 275 -62 296 -66 Q 317 -70 335 -81 Q 353 -92 363.5 -111 Q 374 -130 374 -151 Q 374 -165 369.5 -178.5 Q 365 -192 355 -202 Q 345 -212 332.5 -218.5 Q 320 -225 306 -229 Q 292 -233 278 -234 Q 264 -235 250 -235 L 194 -235 L 194 -305 L 250 -305 Q 262 -305 274.5 -306.5 Q 287 -308 299 -311 Q 311 -314 322 -320 Q 333 -326 341.5 -334.5 Q 350 -343 354 -355 Q 358 -367 358 -380 Q 358 -398 349 -414.5 Q 340 -431 324 -441 Q 308 -451 290 -454.5 Q 272 -458 253 -458 Q 241 -458 229 -456.5 Q 217 -455 205 -451.5 Q 193 -448 182 -442 Q 171 -436 162 -428 Q 153 -420 147 -408.5 Q 141 -397 141 -385 L 64 -385 L 64 -520 L 141 -520 L 141 -465 Q 153 -481 169 -493 Q 185 -505 203 -513 Q 221 -521 240.5 -524.5 Q 260 -528 280 -528 Q 310 -528 339.5 -519 Q 369 -510 391.5 -490 Q 414 -470 425 -441 Q 436 -412 436 -382 Q 436 -364 432 -346.5 Q 428 -329 417.5 -314.5 Q 407 -300 392 -289 Q 377 -278 361 -271 Q 380 -264 397.5 -253 Q 415 -242 428 -226 Q 441 -210 446.5 -189.5 Q 452 -169 452 -149 Q 452 -116 440 -84.5 Q 428 -53 403 -32 Q 378 -11 346 -1.5 Q 314 8 282 8 Z " id="path1"/>
</defs>
<g>
<g data-source-text="ли" fill="#dee4e3" transform="translate(40 104.99201) rotate(0) scale(0.09599999)">
<use href="#path1" transform="translate(0 0)"/>
</g>
</g>
</svg>