<?xml version="1.0" encoding="UTF-8" standalone="no"?>
<svg height="160" viewBox="0 0 128 160" width="128" xmlns="http://www.w3.org/2000/svg">
<defs>
<path d="M 279 8 Q 258 8 238 4.5 Q 218 1 199.5 -8 Q 181 -17 166.5 -31.5 Q 152 -46 141 -63 L 141 0 L 64 0 L 64 -180 L 141 -180 Q 141 -157 147.5 -134 Q 154 -111 169.5 -94 Q 185 -77 207.5 -69.5 Q 230 -62 254 -62 Q 276 -62 298 -69.5 Q 320 -77 336 -93.5 Q 352 -110 359.5 -132 Q 367 -154 367 -176 Q 367 -202 356 -226.5 Q 345 -251 327.5 -269.5 Q 310 -288 288 -301.5 Q 266 -315 243 -327.5 Q 220 -340 198 -353.5 Q 176 -367 156 -383 Q 136 -399 118.5 -418.5 Q 101 -438 89 -461 Q 77 -484 70.5 -509 Q 64 -534 64 -560 Q 64 -583 68.5 -605.5 Q 73 -628 81.5 -649.5 Q 90 -671 104.5 -689 Q 119 -707 138 -719.5 Q 157 -732 179.5 -737.5 Q 202 -743 225 -743 Q 245 -743 265 -739.5 Q 285 -736 302.5 -727 Q 320 -718 334.5 -704 Q 349 -690 359 -673 L 359 -735 L 436 -735 L 436 -555 L 359 -555 Q 359 -578 353 -600.5 Q 347 -623 332 -640 Q 317 -657 295 -665 Q 273 -673 250 -673 Q 228 -673 206.5 -665.5 Q 185 -658 170 -641.5 Q 155 -625 148 -603 Q 141 -581 141 -559 Q 141 -533 151.5 -509 Q 162 -485 180 -466 Q 198 -447 220 -433.5 Q 242 -420 265 -407.5 Q 288 -395 310 -381.5 Q 332 -368 352 -352 Q 372 -336 389.5 -316.5 Q 407 -297 419 -274.5 Q 431 -252 437.5 -226.5 Q 444 -201 444 -175 Q 444 -152 439.5 -129 Q 435 -106 426 -85 Q 417 -64 402 -45.5 Q 387 -27 367.5 -14.5 Q 348 -2 325 3 Q 302 8 279 8 Z " id="path1"/>
</defs>
<g>
<g data-source-text="S" fill="#20242e" transform="translate(40 104.99201) rotate(0) scale(0.09599999)">
<use href="#path1" transform="translate(0 0)"/>
</g>
</g>
</svg>