<?xml version="1.0" encoding="UTF-8" standalone="no"?>
<svg height="160" viewBox="0 0 128 160" width="128" xmlns="http://www.w3.org/2000/svg">
<defs>
<path d="M 219 8 Q 194 8 170 1.5 Q 146 -5 126 -19.5 Q 106 -34 92 -54.5 Q 78 -75 70 -98 Q 62 -121 59 -145.5 Q 56 -170 56 -195 L 56 -540 Q 56 -566 60 -592.5 Q 64 -619 75 -643 Q 86 -667 104 -687 Q 122 -707 145 -720 Q 168 -733 194.5 -738 Q 221 -743 247 -743 Q 272 -743 296.5 -739 Q 321 -735 343.5 -724 Q 366 -713 384.5 -695.5 Q 403 -678 415 -656.5 Q 427 -635 432.5 -610.5 Q 438 -586 438 -561 L 438 -555 L 360 -555 L 360 -559 Q 360 -582 353 -604 Q 346 -626 330 -642.5 Q 314 -659 292 -666 Q 270 -673 247 -673 Q 222 -673 198.5 -663 Q 175 -653 160 -633.5 Q 145 -614 139.5 -589.5 Q 134 -565 134 -540 L 134 -195 Q 134 -178 136 -161.5 Q 138 -145 144.5 -129.5 Q 151 -114 161.5 -101 Q 172 -88 186 -79 Q 200 -70 216 -66 Q 232 -62 249 -62 Q 265 -62 281.5 -66 Q 298 -70 311 -79.5 Q 324 -89 333.5 -102.5 Q 343 -116 348.5 -131 Q 354 -146 356 -162.5 Q 358 -179 358 -195 L 358 -330 L 250 -330 L 250 -400 L 436 -400 L 436 0 L 367 0 L 367 -115 Q 360 -90 347.5 -66.5 Q 335 -43 315.5 -25.5 Q 296 -8 270.5 0 Q 245 8 219 8 Z " id="path1"/>
</defs>
<g>
<g data-source-text="G" fill="#20242e" transform="translate(40 104.99201) rotate(0) scale(0.09599999)">
<use href="#path1" transform="translate(0 0)"/>
</g>
</g>
</svg>