<svg xmlns="http://www.w3.org/2000/svg" height="160" viewBox="0 0 128 160" width="128"><defs><path d="M 253.00002 8 C 237 8 221.33333 7.1666665 206.00002 5.5 C 190.66669 3.8333333 175.66667 0.4999998 161.00002 -4.5000005 C 146.33333 -9.5 132.33333 -16.166668 119 -24.5 C 105.666664 -32.833332 94.16667 -43 84.50001 -55.000004 C 74.833336 -67 67.333336 -80.5 62.000004 -95.50001 C 56.666668 -110.5 54 -125.666664 54 -141 C 54 -141 54 -141.16667 54 -141.50002 C 54 -141.83333 54 -142 54 -142 L 132 -142 C 132 -142 132 -142 132 -142 C 132 -142 132 -142 132 -142 C 132 -128.66666 136 -116.16667 144.00002 -104.50001 C 152 -92.83334 162 -83.833336 174.00002 -77.5 C 186 -71.166664 198.66666 -67 212 -65.00001 C 225.33331 -63.000004 239.00002 -62.000004 253.00002 -62.000004 C 262.33334 -62.000004 271.6667 -62.5 281 -63.500004 C 290.33334 -64.5 299.33334 -66.16667 308.00003 -68.50001 C 316.6667 -70.833336 325.1667 -74.333336 333.5 -79 C 341.8333 -83.66667 349.1667 -89.5 355.50003 -96.5 C 361.83334 -103.5 366.5 -111.5 369.5 -120.5 C 372.5 -129.5 374 -138.33333 374 -147.00002 C 374 -157 372.5 -166.66666 369.5 -176 C 366.5 -185.33334 361.83334 -193.50002 355.50003 -200.50002 C 349.1667 -207.5 341.66666 -213.33333 333 -218 C 324.33334 -222.66667 315.5 -226.33334 306.5 -229 C 297.5 -231.66666 288.16666 -233.33334 278.5 -234.00002 C 268.8333 -234.66667 259.3333 -235 250 -235 L 194.00002 -235 L 194.00002 -305.00003 L 250 -305.00003 C 258.66666 -305 267.16666 -305.5 275.5 -306.5 C 283.83334 -307.5 292 -309.1667 300.00003 -311.5 C 308 -313.8333 315.66666 -317 323 -321 C 330.3333 -325.00003 336.83334 -330.16666 342.50003 -336.50003 C 348.1667 -342.83334 352.16666 -350 354.50003 -358 C 356.83334 -366 358 -374.3333 358 -383.00003 C 358 -395 354.83334 -406.50003 348.50003 -417.50003 C 342.1667 -428.50003 333.8333 -437 323.5 -443 C 313.16666 -449 301.83334 -453 289.5 -455.00003 C 277.1667 -457 265 -457.99997 253.00002 -458 C 241 -457.99997 229 -457 217.00002 -455.00003 C 205.00002 -453 193.83331 -449 183.5 -443 C 173.16667 -437 164.66667 -428.6667 158 -418.00003 C 151.33334 -407.33334 148 -396 148 -384 C 148 -384 148 -383.83334 148 -383.50003 C 148 -383.1667 148 -382.6667 148 -382.00003 L 70.00001 -382.00003 C 70.00001 -382.6667 70.00001 -383.33334 70.00001 -384 C 70.00001 -384.66666 70.00001 -385.3333 70.00001 -386 C 70.00001 -400 72.333336 -414 77.00001 -428.00003 C 81.66667 -442 88.33333 -454.8333 97.00001 -466.50003 C 105.66667 -478.1667 116.16667 -488 128.50002 -496.00003 C 140.83334 -504 153.83333 -510.49997 167.5 -515.5 C 181.16667 -520.49994 195.16667 -523.8333 209.5 -525.50006 C 223.83333 -527.1667 238.33336 -528 253.00002 -528 C 267.66666 -528 282.33334 -527.1667 297.00003 -525.50006 C 311.66666 -523.8333 325.83334 -520.6666 339.5 -516 C 353.16666 -511.33337 366.1667 -504.83334 378.5 -496.50003 C 390.8333 -488.16666 401.5 -478.1667 410.50003 -466.50003 C 419.5 -454.8333 425.99997 -441.83334 430 -427.50003 C 434 -413.1667 435.99997 -398.6667 436 -384 C 435.99997 -372 434.5 -360.00003 431.5 -348.00003 C 428.50003 -336.00003 423.5 -325 416.50003 -315 C 409.50003 -305 401 -296.5 391 -289.5 C 381 -282.5 370.33337 -276.66666 359.00003 -272 C 372.33334 -266.66666 385 -260.16666 397 -252.5 C 409 -244.83331 419.33334 -235.49998 428.00003 -224.5 C 436.66666 -213.49998 442.8333 -201.16667 446.50003 -187.5 C 450.1667 -173.83333 452 -159.99998 452.00003 -146 C 452 -130 449.6667 -114.333336 445.00003 -99 C 440.33334 -83.666664 433.1667 -69.833336 423.50003 -57.5 C 413.83334 -45.166668 402.33334 -34.666664 389.00003 -26.000002 C 375.66666 -17.333334 361.5 -10.333333 346.5 -5.0000005 C 331.49997 0.33333308 316 3.8333333 300.00003 5.5 C 284 7.1666665 268.33334 8 253.00002 8 Z " id="path1"/></defs><g><g fill="#ffffff" transform="translate(40 105.20961) rotate(0)"><use href="#path1" transform="translate(0 0) scale(0.09599999)"/></g></g></svg>