<?xml version="1.0" encoding="UTF-8" standalone="no"?>
<svg height="160" viewBox="0 0 128 160" width="128" xmlns="http://www.w3.org/2000/svg">
<defs>
<path d="M 251 8 Q 228 8 204.5 5.5 Q 181 3 159 -4.5 Q 137 -12 117 -25 Q 97 -38 82.5 -57 Q 68 -76 62 -98.5 Q 56 -121 56 -145 Q 56 -170 63 -194.5 Q 70 -219 86 -238.5 Q 102 -258 124 -271.5 Q 146 -285 169.5 -292.5 Q 193 -300 218 -303 Q 243 -306 269 -306 L 358 -306 L 358 -355 Q 358 -377 350 -398 Q 342 -419 325.5 -433 Q 309 -447 287 -452.5 Q 265 -458 243 -458 Q 217 -458 191 -451.5 Q 165 -445 141 -433 L 141 -326 L 64 -326 L 64 -471 Q 103 -498 149 -513 Q 195 -528 243 -528 Q 268 -528 292.5 -524.5 Q 317 -521 339.5 -511.5 Q 362 -502 381 -486 Q 400 -470 413 -449 Q 426 -428 431 -403.5 Q 436 -379 436 -355 L 436 -49 Q 396 -22 348 -7 Q 300 8 251 8 Z M 251 -62 Q 279 -62 306 -68.5 Q 333 -75 358 -87 L 358 -236 L 269 -236 Q 254 -236 239 -234.5 Q 224 -233 209.5 -229.5 Q 195 -226 181 -220 Q 167 -214 156 -204 Q 145 -194 139.5 -179.5 Q 134 -165 134 -150 Q 134 -130 144 -111 Q 154 -92 171.5 -81 Q 189 -70 209.5 -66 Q 230 -62 251 -62 Z " id="path1"/>
</defs>
<g>
<g data-source-text="а" fill="#20242e" transform="translate(40 104.99201) rotate(0) scale(0.09599999)">
<use href="#path1" transform="translate(0 0)"/>
</g>
</g>
</svg>