<?xml version="1.0" encoding="UTF-8" standalone="no"?>
<svg xmlns="http://www.w3.org/2000/svg" height="160" viewBox="0 0 128 160" width="128"><defs><path d="M 253 8 Q 229 8 206 5.5 Q 183 3 161 -4.5 Q 139 -12 119 -24.5 Q 99 -37 84.5 -55 Q 70 -73 62 -95.5 Q 54 -118 54 -141 Q 54 -141 54 -141.5 Q 54 -142 54 -142 L 132 -142 Q 132 -142 132 -142 Q 132 -142 132 -142 Q 132 -122 144 -104.5 Q 156 -87 174 -77.5 Q 192 -68 212 -65 Q 232 -62 253 -62 Q 267 -62 281 -63.5 Q 295 -65 308 -68.5 Q 321 -72 333.5 -79 Q 346 -86 355.5 -96.5 Q 365 -107 369.5 -120.5 Q 374 -134 374 -147 Q 374 -162 369.5 -176 Q 365 -190 355.5 -200.5 Q 346 -211 333 -218 Q 320 -225 306.5 -229 Q 293 -233 278.5 -234 Q 264 -235 250 -235 L 194 -235 L 194 -305 L 250 -305 Q 269 -305 287.5 -308.5 Q 306 -312 322.5 -321 Q 339 -330 348.5 -347 Q 358 -364 358 -382 Q 358 -395 354 -407 Q 350 -419 341.5 -428 Q 333 -437 322 -443 Q 311 -449 299 -452.5 Q 287 -456 274.5 -457 Q 262 -458 250 -458 Q 250 -458 250 -458 Q 250 -458 250 -458 Q 237 -458 225 -457 Q 213 -456 201 -452.5 Q 189 -449 178 -443.5 Q 167 -438 158 -429 Q 149 -420 145 -408 Q 141 -396 141 -384 L 141 -339 L 64 -339 L 64 -520 L 141 -520 L 141 -474 Q 153 -489 168.5 -499.5 Q 184 -510 201.5 -516.5 Q 219 -523 237.5 -525.5 Q 256 -528 275 -528 Q 275 -528 275 -528 Q 275 -528 275 -528 Q 306 -528 336 -520.5 Q 366 -513 389.5 -493.5 Q 413 -474 424.5 -445 Q 436 -416 436 -385 Q 436 -367 431.5 -348.5 Q 427 -330 416.5 -315.5 Q 406 -301 391 -290 Q 376 -279 359 -272 Q 379 -264 397 -252.5 Q 415 -241 428 -224.5 Q 441 -208 446.5 -187.5 Q 452 -167 452 -146 Q 452 -122 445 -99 Q 438 -76 423.5 -57.5 Q 409 -39 389 -26 Q 369 -13 346.5 -5 Q 324 3 300 5.5 Q 276 8 253 8 Z " id="path1"/></defs><g><g data-source-text="ли" fill="#20242e" transform="translate(40 104.99201) rotate(0) scale(0.09599999)"><use href="#path1" transform="translate(0 0)"/></g></g></svg>