<svg xmlns="http://www.w3.org/2000/svg" height="160" viewBox="0 0 128 160" width="128"><defs><path d="M 253.00002 8 C 235.66669 8 218.49998 6.6666665 201.5 4 C 184.49998 1.3333335 168.33334 -3.6666667 153 -11 C 137.66667 -18.333332 123.5 -27.833334 110.5 -39.5 C 97.5 -51.166664 86.83334 -64.5 78.50001 -79.5 C 70.166664 -94.5 63.999996 -110.33333 60.000004 -127.00001 C 56 -143.66667 54 -160.66667 54 -178 C 54 -178 54 -178.16667 54 -178.5 C 54 -178.83333 54 -179 54 -179 L 132 -179 C 132 -179 132 -178.83333 132 -178.5 C 132 -178.16667 132 -178 132 -178 C 132 -162.66666 134.66667 -147.33333 140.00002 -132 C 145.33333 -116.66666 153.66666 -103.49999 165 -92.50001 C 176.33333 -81.5 189.83333 -73.66667 205.50002 -69 C 221.16666 -64.333336 237 -62.000004 253.00002 -62.000004 C 270.33334 -62.000004 287.5 -65.5 304.5 -72.5 C 321.5 -79.5 335.33334 -90 346 -104.00001 C 356.66666 -117.99999 363.99997 -133.66667 368 -151 C 372 -168.33334 374 -186 374 -204 C 374 -204 374 -204 374 -204 C 374 -204 374 -204 374 -204 L 374 -204 C 374 -204 374 -204 374 -204 C 374 -204 374 -204 374 -204 C 374 -216 373.16666 -228.00002 371.50003 -240.00002 C 369.8333 -252 366.83334 -263.5 362.5 -274.5 C 358.16666 -285.5 352.3333 -295.83334 345 -305.50003 C 337.66663 -315.1667 328.8333 -323.1667 318.5 -329.5 C 308.1667 -335.8333 297.1667 -340.3333 285.50003 -343.00003 C 273.8333 -345.66666 262 -346.99997 250 -347 L 194.00002 -347 L 194.00002 -417.00003 L 250 -417.00003 C 266 -417.00003 281.5 -420.16666 296.50003 -426.50003 C 311.5 -432.8333 323.8333 -442.3333 333.5 -455.00003 C 343.1667 -467.6667 349.6667 -482 353.00003 -498 C 356.33334 -514 358 -529.6667 358 -545 C 358 -560.99994 356.33334 -577 353.00003 -593.00006 C 349.6667 -609 343.1667 -623.1667 333.5 -635.5 C 323.8333 -647.8334 311.3333 -657.1667 296 -663.5 C 280.66666 -669.8334 265 -673.00006 249 -673.00006 C 234.33333 -673.00006 219.49998 -670.3333 204.5 -665 C 189.5 -659.6667 177.16667 -651.1667 167.5 -639.50006 C 157.83333 -627.8334 151 -614.5 147.00002 -599.50006 C 143 -584.5 141 -569.3333 141 -554.00006 L 64 -554.00006 L 64 -735 L 141 -735 L 141 -673.00006 C 147.66667 -684.3334 155.83334 -694.6666 165.50002 -704 C 175.16667 -713.3333 185.83334 -721.00006 197.50002 -727 C 209.16666 -733 221.66666 -737.1667 235 -739.50006 C 248.33333 -741.8334 261.3333 -743.00006 274.00003 -743.00006 C 290 -743.00006 305.83334 -741.1667 321.5 -737.50006 C 337.16663 -733.8333 351.66666 -727.33344 365.00003 -718.00006 C 378.33334 -708.6667 389.66666 -697.49994 399.00003 -684.5 C 408.3333 -671.5 415.6667 -657.5 421.00003 -642.5 C 426.33337 -627.5 430.16666 -612.1667 432.50003 -596.5 C 434.8333 -580.8333 435.99997 -565 436 -549 C 435.99997 -532.3334 434.66666 -515.6667 432 -499 C 429.33334 -482.33334 424.1667 -466.50003 416.50003 -451.50003 C 408.83334 -436.5 398.83337 -423.1667 386.5 -411.50003 C 374.16666 -399.83337 360.33334 -390.33334 345 -383.00003 C 362.33334 -375.66672 378.1667 -365.83337 392.5 -353.50003 C 406.83334 -341.16666 418.6667 -326.83334 428.00003 -310.50003 C 437.33334 -294.1667 443.66666 -276.66666 447 -258 C 450.33334 -239.33334 452 -220.66667 452.00003 -202.00002 C 452 -184 450.50003 -165.83333 447.5 -147.5 C 444.49997 -129.16667 439.16663 -111.666664 431.5 -95 C 423.8333 -78.333336 413.66666 -63.16667 401.00003 -49.5 C 388.33334 -35.833332 374 -24.666666 358 -16 C 341.99997 -7.3333335 324.99997 -1.1666665 307 2.5000002 C 289 6.1666665 271.00003 8 253.00002 8 Z " id="path1"/></defs><g><g fill="#ffffff" transform="translate(40 105.20961) rotate(0)"><use href="#path1" transform="translate(0 0) scale(0.09599999)"/></g></g></svg>