<?xml version="1.0" encoding="UTF-8" standalone="no"?>
<svg height="160" viewBox="0 0 128 160" width="128" xmlns="http://www.w3.org/2000/svg">
<defs>
<path d="M 158 0 L 14 0 L 14 -70 L 48 -70 L 48 -450 L 14 -450 L 14 -520 L 159 -520 L 250 -129 L 341 -520 L 486 -520 L 486 -450 L 452 -450 L 452 -70 L 486 -70 L 486 0 L 342 0 L 342 -70 L 374 -70 L 374 -104 Q 374 -150 375 -195.5 Q 376 -241 378 -286 L 380 -338 Q 382 -365 382.5 -392 Q 383 -419 384 -446 L 280 0 L 220 0 L 116 -446 Q 117 -419 117.5 -392 Q 118 -365 120 -338 L 122 -286 Q 124 -241 125 -195.5 Q 126 -150 126 -104 L 126 -70 L 158 -70 Z " id="path1"/>
</defs>
<g>
<g data-source-text="м" fill="#dee4e3" transform="translate(40 104.99201) rotate(0) scale(0.09599999)">
<use href="#path1" transform="translate(0 0)"/>
</g>
</g>
</svg>