<?xml version="1.0" encoding="UTF-8" standalone="no"?>
<svg height="160" viewBox="0 0 256 160" width="256" xmlns="http://www.w3.org/2000/svg">
<defs>
<path d="M 64 0 L 64 -520 L 142 -520 L 142 -321 L 280 -321 Q 302 -321 323.5 -317.5 Q 345 -314 364.5 -304.5 Q 384 -295 400 -279.5 Q 416 -264 426 -244.5 Q 436 -225 440 -203.5 Q 444 -182 444 -161 Q 444 -139 440 -117.5 Q 436 -96 426 -76.5 Q 416 -57 400 -41.5 Q 384 -26 364.5 -16.5 Q 345 -7 323.5 -3.5 Q 302 0 280 0 Z M 142 -70 L 280 -70 Q 298 -70 315.5 -76 Q 333 -82 345 -95 Q 357 -108 361.5 -125.5 Q 366 -143 366 -161 Q 366 -178 361.5 -195.5 Q 357 -213 345 -226 Q 333 -239 315.5 -245 Q 298 -251 280 -251 L 142 -251 Z " id="path1"/>
<path d="M 120 0 L 120 -454 L 24 -454 L 24 -520 L 194 -520 L 194 -319 L 293 -319 Q 314 -319 334.5 -315 Q 355 -311 373.5 -301 Q 392 -291 406 -275.5 Q 420 -260 428.5 -241 Q 437 -222 440.5 -201 Q 444 -180 444 -160 Q 444 -139 440.5 -118 Q 437 -97 428.5 -78 Q 420 -59 406 -43.5 Q 392 -28 373.5 -18 Q 355 -8 334.5 -4 Q 314 -0 293 0 Z M 293 -66 Q 310 -66 326.5 -73.5 Q 343 -81 353 -94.5 Q 363 -108 366.5 -125 Q 370 -142 370 -160 Q 370 -177 366.5 -194 Q 363 -211 353 -225 Q 343 -239 326.5 -246 Q 310 -253 293 -253 L 194 -253 L 194 -66 Z " id="path2"/>
</defs>
<g>
<g data-source-text="ь" fill="#20242e" transform="translate(40 104.99201) rotate(0) scale(0.09599999)">
<use href="#path1" transform="translate(0 0)"/>
</g>
</g>
<g>
<g data-source-text="ъ" fill="#20242e" transform="translate(168 104.99201) rotate(0) scale(0.09599999)">
<use href="#path2" transform="translate(0 0)"/>
</g>
</g>
</svg>