<?xml version="1.0" encoding="UTF-8" standalone="no"?>
<svg height="160" viewBox="0 0 128 160" width="128" xmlns="http://www.w3.org/2000/svg">
<defs>
<path d="M 482 8 L 467 8 Q 446 8 425 2.5 Q 404 -3 388.5 -17 Q 373 -31 365.5 -51.5 Q 358 -72 358 -93 L 358 -450 L 219 -450 Q 202 -450 184.5 -444.5 Q 167 -439 155 -425.5 Q 143 -412 138.5 -395 Q 134 -378 134 -360 Q 134 -342 138.5 -325 Q 143 -308 155 -295 Q 167 -282 184.5 -276 Q 202 -270 219 -270 L 301 -270 L 301 -200 L 267 -200 Q 252 -186 238.5 -171.5 Q 225 -157 212 -141.5 Q 199 -126 187.5 -110 Q 176 -94 166.5 -76 Q 157 -58 150.5 -39 Q 144 -20 144 0 L 10 0 L 10 -70 L 82 -70 Q 97 -107 120.5 -140.5 Q 144 -174 171 -204 Q 145 -210 122 -224 Q 99 -238 83.5 -259.5 Q 68 -281 62 -307.5 Q 56 -334 56 -360 Q 56 -382 60 -403.5 Q 64 -425 74 -444 Q 84 -463 100 -478.5 Q 116 -494 135.5 -503.5 Q 155 -513 176.5 -516.5 Q 198 -520 219 -520 L 482 -520 L 482 -450 L 436 -450 L 436 -93 Q 436 -87 438 -81 Q 440 -75 444.5 -70.5 Q 449 -66 455 -64 Q 461 -62 467 -62 L 482 -62 Z " id="path1"/>
</defs>
<g>
<g data-source-text="Ñ" fill="#dee4e3" transform="translate(40 104.99201) rotate(0) scale(0.09599999)">
<use href="#path1" transform="translate(0 0)"/>
</g>
</g>
</svg>