<?xml version="1.0" encoding="UTF-8" standalone="no"?>
<svg height="160" viewBox="0 0 128 160" width="128" xmlns="http://www.w3.org/2000/svg">
<defs>
<path d="M 64 0 L 64 -70 L 179 -70 Q 203 -70 226.5 -76 Q 250 -82 268.5 -96.5 Q 287 -111 300.5 -131 Q 314 -151 321.5 -173.5 Q 329 -196 331.5 -219.5 Q 334 -243 334 -267 L 334 -665 L 255 -665 L 255 -735 L 474 -735 L 474 -665 L 412 -665 L 412 -267 Q 412 -242 409.5 -217 Q 407 -192 400.5 -167.5 Q 394 -143 383.5 -120 Q 373 -97 357.5 -77 Q 342 -57 321.5 -42 Q 301 -27 278 -17 Q 255 -7 230 -3.5 Q 205 0 179 0 Z " id="path1"/>
</defs>
<g>
<g data-source-text="J" fill="#20242e" transform="translate(40 104.99201) rotate(0) scale(0.09599999)">
<use href="#path1" transform="translate(0 0)"/>
</g>
</g>
</svg>