<?xml version="1.0" encoding="UTF-8" standalone="no"?>
<svg xmlns="http://www.w3.org/2000/svg" height="160" viewBox="0 0 128 160" width="128"><defs><path d="M 255 8 Q 205 8 156.5 -6.5 Q 108 -21 64 -46 L 64 -188 L 141 -188 L 141 -88 Q 168 -77 196 -69.5 Q 224 -62 252 -62 Q 279 -62 304 -72.5 Q 329 -83 345.5 -104 Q 362 -125 368 -151.5 Q 374 -178 374 -204 Q 374 -222 371.5 -240 Q 369 -258 362.5 -274.5 Q 356 -291 345 -305.5 Q 334 -320 318.5 -329.5 Q 303 -339 285.5 -343 Q 268 -347 250 -347 L 194 -347 L 194 -417 L 250 -417 Q 274 -417 296.5 -426.5 Q 319 -436 333.5 -455 Q 348 -474 353 -497.5 Q 358 -521 358 -545 Q 358 -569 353 -592.5 Q 348 -616 334 -635 Q 320 -654 297.5 -663.5 Q 275 -673 252 -673 Q 223 -673 195 -665 Q 167 -657 141 -646 L 141 -555 L 64 -555 L 64 -689 Q 108 -713 156 -728 Q 204 -743 254 -743 Q 279 -743 304 -737.5 Q 329 -732 351 -719.5 Q 373 -707 390 -688 Q 407 -669 417.5 -645.5 Q 428 -622 432 -597 Q 436 -572 436 -547 Q 436 -522 431.5 -497.5 Q 427 -473 415.5 -451 Q 404 -429 386 -411.5 Q 368 -394 345 -383 Q 371 -372 392.5 -353.5 Q 414 -335 428 -311 Q 442 -287 447 -259 Q 452 -231 452 -203 Q 452 -176 447.5 -148.5 Q 443 -121 431.5 -96.5 Q 420 -72 401.5 -51.5 Q 383 -31 359.5 -17.5 Q 336 -4 309 2 Q 282 8 255 8 Z " id="path1"/></defs><g><g data-source-text="З" fill="#dee4e3" transform="translate(40 104.99201) rotate(0) scale(0.09599999)"><use href="#path1" transform="translate(0 0)"/></g></g></svg>