<?xml version="1.0" encoding="UTF-8" standalone="no"?>
<svg height="160" viewBox="0 0 128 160" width="128" xmlns="http://www.w3.org/2000/svg">
<defs>
<path d="M 244 8 Q 196 8 149.5 -7 Q 103 -22 64 -49 L 64 -180 L 141 -180 L 141 -87 Q 165 -75 191.5 -68.5 Q 218 -62 244 -62 Q 261 -62 278 -65.5 Q 295 -69 310 -77.5 Q 325 -86 336.5 -99.5 Q 348 -113 354.5 -128.5 Q 361 -144 363.5 -161 Q 366 -178 366 -195 L 366 -332 L 194 -332 L 194 -403 L 366 -403 L 366 -540 Q 366 -565 360.5 -589.5 Q 355 -614 340 -633.5 Q 325 -653 301.5 -663 Q 278 -673 253 -673 Q 230 -673 208 -666 Q 186 -659 170 -642.5 Q 154 -626 147 -604 Q 140 -582 140 -559 L 140 -555 L 62 -555 L 62 -561 Q 62 -586 67.5 -610.5 Q 73 -635 85 -656.5 Q 97 -678 115.5 -695.5 Q 134 -713 156.5 -724 Q 179 -735 203.5 -739 Q 228 -743 253 -743 Q 279 -743 305.5 -738 Q 332 -733 355 -720 Q 378 -707 396 -687 Q 414 -667 425 -643 Q 436 -619 440 -592.5 Q 444 -566 444 -540 L 444 -195 Q 444 -168 439.5 -141 Q 435 -114 423 -90 Q 411 -66 392 -46 Q 373 -26 349 -14 Q 325 -2 298 3 Q 271 8 244 8 Z " id="path1"/>
</defs>
<g>
<g data-source-text="Э" fill="#dee4e3" transform="translate(40 104.99201) rotate(0) scale(0.09599999)">
<use href="#path1" transform="translate(0 0)"/>
</g>
</g>
</svg>