<?xml version="1.0" encoding="UTF-8" standalone="no"?>
<svg height="160" viewBox="0 0 128 160" width="128" xmlns="http://www.w3.org/2000/svg">
<defs>
<path d="M 216 8 Q 191 8 166.5 1 Q 142 -6 123 -21 Q 104 -36 90.5 -57.5 Q 77 -79 69.5 -102.5 Q 62 -126 59 -150.5 Q 56 -175 56 -200 L 56 -320 Q 56 -347 60 -373.5 Q 64 -400 74.5 -424.5 Q 85 -449 102.5 -469.5 Q 120 -490 143 -503.5 Q 166 -517 192.5 -522.5 Q 219 -528 246 -528 Q 273 -528 299.5 -522.5 Q 326 -517 349 -503.5 Q 372 -490 389.5 -469.5 Q 407 -449 417.5 -424.5 Q 428 -400 432 -373.5 Q 436 -347 436 -320 L 436 0 L 358 0 L 358 -92 Q 350 -70 336.5 -51 Q 323 -32 304 -18 Q 285 -4 262 2 Q 239 8 216 8 Z M 246 -62 Q 263 -62 279.5 -66 Q 296 -70 309.5 -80 Q 323 -90 333 -104 Q 343 -118 348.5 -134 Q 354 -150 356 -166.5 Q 358 -183 358 -200 L 358 -320 Q 358 -337 356 -353.5 Q 354 -370 348.5 -386 Q 343 -402 333 -416 Q 323 -430 309.5 -440 Q 296 -450 279.5 -454 Q 263 -458 246 -458 Q 229 -458 212.5 -454 Q 196 -450 182.5 -440 Q 169 -430 159 -416 Q 149 -402 143.5 -386 Q 138 -370 136 -353.5 Q 134 -337 134 -320 L 134 -200 Q 134 -183 136 -166.5 Q 138 -150 143.5 -134 Q 149 -118 159 -104 Q 169 -90 182.5 -80 Q 196 -70 212.5 -66 Q 229 -62 246 -62 Z " id="path1"/>
</defs>
<g>
<g data-source-text="а" fill="#20242e" transform="translate(40 104.99201) rotate(0) scale(0.09599999)">
<use href="#path1" transform="translate(0 0)"/>
</g>
</g>
</svg>