<svg xmlns="http://www.w3.org/2000/svg" height="160" viewBox="0 0 128 160" width="128"><defs><path d="M 64 0 L 64 -74 Q 64 -130 72 -186 Q 80 -242 91 -297.5 Q 102 -353 115 -408 Q 128 -463 142.5 -517.5 Q 157 -572 173 -626.5 Q 189 -681 205 -735 L 295 -735 Q 311 -681 327 -626.5 Q 343 -572 357.5 -517.5 Q 372 -463 385 -408 Q 398 -353 409 -297.5 Q 420 -242 428 -186 Q 436 -130 436 -74 L 436 0 L 358 0 L 358 -74 Q 358 -103 356 -132 Q 354 -161 350 -190 L 150 -190 Q 146 -161 144 -132 Q 142 -103 142 -74 L 142 0 Z M 340 -260 Q 324 -362 300 -463 Q 276 -564 250 -664 Q 224 -564 200 -463 Q 176 -362 160 -260 Z " id="path1"/></defs><g><g fill="#20242e" transform="translate(40 105.20961) rotate(0)"><use href="#path1" transform="translate(0 0) scale(0.09599999)"/></g></g></svg>