<?xml version="1.0" encoding="UTF-8" standalone="no"?>
<svg height="160" viewBox="0 0 128 160" width="128" xmlns="http://www.w3.org/2000/svg">
<defs>
<path d="M 76 215 L 76 145 L 129 145 Q 139 145 150 142.5 Q 161 140 168.5 132 Q 176 124 180 114 Q 184 104 187 94 L 210 15 L 72 -450 L 18 -450 L 18 -520 L 188 -520 L 188 -450 L 152 -450 L 251 -105 L 348 -450 L 312 -450 L 312 -520 L 482 -520 L 482 -450 L 428 -450 L 262 113 Q 255 136 245 157 Q 235 178 216.5 192.5 Q 198 207 175 211 Q 152 215 129 215 Z " id="path1"/>
</defs>
<g>
<g data-source-text="у" fill="#20242e" transform="translate(40 104.99201) rotate(0) scale(0.09599999)">
<use href="#path1" transform="translate(0 0)"/>
</g>
</g>
</svg>