<svg xmlns="http://www.w3.org/2000/svg" height="160" viewBox="0 0 128 160" width="128"><defs><path d="M 64 0 L 64 -735 L 221 -735 C 241 -735 260.6667 -733.3333 280.00003 -730.00006 C 299.33334 -726.6666 317.83334 -720.8333 335.5 -712.50006 C 353.16666 -704.1667 369.3333 -693.3333 384 -680 C 398.6667 -666.6667 410.49997 -651.3334 419.5 -634.00006 C 428.5 -616.6667 434.83334 -598.3333 438.50003 -579 C 442.16666 -559.6666 444.00003 -540.3333 444.00003 -521 L 444.00003 -215 C 444.00003 -195 442.16666 -175.33333 438.50003 -156 C 434.83334 -136.66666 428.5 -118.333336 419.5 -101.00001 C 410.49997 -83.666664 398.6667 -68.333336 384 -55.000004 C 369.3333 -41.666668 353.16666 -30.833334 335.5 -22.500002 C 317.83334 -14.166667 299.33334 -8.333334 280.00003 -5.0000005 C 260.6667 -1.6666669 241 0 221 0 Z M 221 -70.00001 C 234.33333 -70.00001 247.33333 -71.16667 260.00003 -73.50001 C 272.66666 -75.833336 284.83334 -79.833336 296.50003 -85.50001 C 308.1667 -91.16667 318.66666 -98.66667 328.00003 -108 C 337.33334 -117.333336 344.8333 -127.83333 350.5 -139.5 C 356.1667 -151.16666 360.1667 -163.33333 362.5 -176 C 364.83337 -188.66667 366.00003 -201.66666 366.00003 -215 L 366.00003 -521 C 366.00003 -533.6667 364.83337 -546.3333 362.5 -559.00006 C 360.1667 -571.6666 356.1667 -583.8333 350.5 -595.5 C 344.8333 -607.1667 337.33334 -617.6667 328.00003 -627.00006 C 318.66666 -636.3333 308.1667 -643.8333 296.50003 -649.50006 C 284.83334 -655.1666 272.66666 -659.1667 260.00003 -661.50006 C 247.33333 -663.8333 234.66667 -665 222.00002 -665 L 142 -665 L 142 -70.00001 Z " id="path1"/></defs><g><g fill="#000000" transform="translate(40 105.20961) rotate(0)"><use href="#path1" transform="translate(0 0) scale(0.09599999)"/></g></g></svg>