<?xml version="1.0" encoding="UTF-8" standalone="no"?>
<svg height="160" viewBox="0 0 128 160" width="128" xmlns="http://www.w3.org/2000/svg">
<defs>
<path d="M 51 0 L 57 -147 Q 63 -294 71.5 -441 Q 80 -588 80 -735 L 176 -735 L 250 -374 L 324 -735 L 420 -735 Q 420 -588 428.5 -441 Q 437 -294 443 -147 L 449 0 L 374 0 L 368 -147 Q 364 -254 360 -361.5 Q 356 -469 354 -577 L 281 -221 L 219 -221 L 146 -577 Q 144 -469 140 -361.5 Q 136 -254 132 -147 L 126 0 Z " id="path1"/>
</defs>
<g>
<g data-source-text="M" fill="#dee4e3" transform="translate(40 104.99201) rotate(0) scale(0.09599999)">
<use href="#path1" transform="translate(0 0)"/>
</g>
</g>
</svg>