<svg xmlns="http://www.w3.org/2000/svg" height="160" viewBox="0 0 128 160" width="128"><defs><path d="M 64 0 L 64 -520.00006 L 142 -520.00006 L 142 -321 L 280.00003 -321 C 294.6667 -321 309.1667 -319.8333 323.5 -317.5 C 337.83334 -315.16666 351.5 -310.83334 364.50003 -304.5 C 377.5 -298.1667 389.33334 -289.83334 400.00003 -279.50003 C 410.6667 -269.16666 419.3333 -257.49997 426 -244.50002 C 432.66663 -231.5 437.3333 -217.83333 440.00003 -203.5 C 442.66666 -189.16667 444.00003 -175 444.00003 -161.00002 C 444.00003 -146.33333 442.66666 -131.83333 440.00003 -117.5 C 437.3333 -103.166664 432.66663 -89.49999 426 -76.5 C 419.3333 -63.5 410.6667 -51.833332 400.00003 -41.5 C 389.33334 -31.166668 377.5 -22.833334 364.50003 -16.5 C 351.5 -10.166666 337.83334 -5.833333 323.5 -3.5 C 309.1667 -1.1666667 294.6667 0 280.00003 0 Z M 142 -70.00001 L 280.00003 -70.00001 C 292 -70.00001 303.83334 -72.00001 315.5 -76 C 327.16666 -80 336.99997 -86.333336 345 -95 C 352.99997 -103.666664 358.49997 -113.83333 361.5 -125.50001 C 364.50003 -137.16666 366.00003 -149 366.00003 -161.00002 C 366.00003 -172.33333 364.50003 -183.83333 361.5 -195.5 C 358.49997 -207.16666 352.99997 -217.33333 345 -226.00002 C 336.99997 -234.66667 327.16666 -241 315.5 -245.00002 C 303.83334 -249 292 -251.00002 280.00003 -251.00002 L 142 -251.00002 Z " id="path1"/></defs><g><g fill="#000000" transform="translate(40 105.20961) rotate(0)"><use href="#path1" transform="translate(0 0) scale(0.09599999)"/></g></g></svg>