<?xml version="1.0" encoding="UTF-8" standalone="no"?>
<svg height="160" viewBox="0 0 128 160" width="128" xmlns="http://www.w3.org/2000/svg">
<defs>
<path d="M 247 8 Q 221 8 194 2.5 Q 167 -3 144 -16.5 Q 121 -30 103.5 -50.5 Q 86 -71 75 -95.5 Q 64 -120 60 -146.5 Q 56 -173 56 -200 L 56 -320 Q 56 -345 59 -369.5 Q 62 -394 70 -417.5 Q 78 -441 92 -462 Q 106 -483 126 -498 Q 146 -513 170 -520.5 Q 194 -528 219 -528 Q 241 -528 262 -522.5 Q 283 -517 301 -506 Q 319 -495 333.5 -479 Q 348 -463 359 -445 L 359 -520 L 436 -520 L 436 -339 L 359 -339 Q 359 -362 351 -384 Q 343 -406 327.5 -423 Q 312 -440 290.5 -449 Q 269 -458 246 -458 Q 229 -458 213 -453.5 Q 197 -449 183 -439 Q 169 -429 159.5 -415.5 Q 150 -402 144 -386 Q 138 -370 136 -353.5 Q 134 -337 134 -320 L 134 -200 Q 134 -183 136 -166 Q 138 -149 144 -133.5 Q 150 -118 159.5 -104 Q 169 -90 183 -80 Q 197 -70 213.5 -66 Q 230 -62 247 -62 Q 270 -62 292 -69.5 Q 314 -77 330 -93.5 Q 346 -110 353 -132 Q 360 -154 360 -177 L 360 -178 L 438 -178 L 438 -176 Q 438 -151 432.5 -126.5 Q 427 -102 415 -80 Q 403 -58 385 -40.5 Q 367 -23 344.5 -12 Q 322 -1 297 3.5 Q 272 8 247 8 Z " id="path1"/>
</defs>
<g>
<g data-source-text="c" fill="#dee4e3" transform="translate(40 104.99201) rotate(0) scale(0.09599999)">
<use href="#path1" transform="translate(0 0)"/>
</g>
</g>
</svg>