<?xml version="1.0" encoding="UTF-8" standalone="no"?>
<svg height="160" viewBox="0 0 128 160" width="128" xmlns="http://www.w3.org/2000/svg">
<defs>
<path d="M 258 8 Q 207 8 157.5 -6.5 Q 108 -21 64 -46 L 64 -143 L 141 -143 L 141 -87 Q 168 -76 197.5 -69 Q 227 -62 257 -62 Q 277 -62 298 -66.5 Q 319 -71 336.5 -82 Q 354 -93 364 -111.5 Q 374 -130 374 -151 Q 374 -165 369.5 -178.5 Q 365 -192 355 -202.5 Q 345 -213 332.5 -219 Q 320 -225 306 -229 Q 292 -233 278 -234 Q 264 -235 250 -235 L 194 -235 L 194 -305 L 250 -305 Q 262 -305 274.5 -306.5 Q 287 -308 299 -311 Q 311 -314 322 -320 Q 333 -326 341.5 -334.5 Q 350 -343 354 -355 Q 358 -367 358 -379 Q 358 -398 349.5 -414.5 Q 341 -431 325.5 -440.5 Q 310 -450 292 -454 Q 274 -458 255 -458 Q 226 -458 197 -450.5 Q 168 -443 141 -432 L 141 -385 L 64 -385 L 64 -474 Q 108 -499 157 -513.5 Q 206 -528 257 -528 Q 279 -528 300.5 -524.5 Q 322 -521 342.5 -513.5 Q 363 -506 381 -493 Q 399 -480 411.5 -462.5 Q 424 -445 430 -423.5 Q 436 -402 436 -381 Q 436 -363 431.5 -345.5 Q 427 -328 416.5 -313.5 Q 406 -299 391.5 -288.5 Q 377 -278 361 -271 Q 380 -264 397.5 -253 Q 415 -242 428 -226.5 Q 441 -211 446.5 -190.5 Q 452 -170 452 -150 Q 452 -126 445.5 -103 Q 439 -80 425 -61.5 Q 411 -43 391.5 -29 Q 372 -15 350 -7 Q 328 1 305 4.5 Q 282 8 258 8 Z " id="path1"/>
</defs>
<g>
<g data-source-text="ли" fill="#dee4e3" transform="translate(40 104.99201) rotate(0) scale(0.09599999)">
<use href="#path1" transform="translate(0 0)"/>
</g>
</g>
</svg>