<?xml version="1.0" encoding="UTF-8" standalone="no"?>
<svg height="160" viewBox="0 0 128 160" width="128" xmlns="http://www.w3.org/2000/svg">
<defs>
<path d="M 214 0 L 214 -101 Q 190 -104 167.5 -112.5 Q 145 -121 126 -136 Q 107 -151 93 -171 Q 79 -191 70.5 -213.5 Q 62 -236 59 -259.5 Q 56 -283 56 -308 L 56 -428 Q 56 -452 59 -475.5 Q 62 -499 70.5 -521.5 Q 79 -544 93 -564 Q 107 -584 126 -599 Q 145 -614 167.5 -622.5 Q 190 -631 214 -634 L 214 -735 L 286 -735 L 286 -633 Q 318 -629 347.5 -614 Q 377 -599 397.5 -573.5 Q 418 -548 428 -516.5 Q 438 -485 438 -453 L 438 -448 L 360 -448 L 360 -451 Q 360 -469 355.5 -487 Q 351 -505 341 -520.5 Q 331 -536 315.5 -546.5 Q 300 -557 282 -562 L 282 -173 Q 300 -178 315.5 -188.5 Q 331 -199 341 -214.5 Q 351 -230 355.5 -248 Q 360 -266 360 -284 L 360 -288 L 438 -288 L 438 -282 Q 438 -250 428 -218.5 Q 418 -187 397.5 -161.5 Q 377 -136 347.5 -121 Q 318 -106 286 -102 L 286 0 Z M 218 -172 L 218 -563 Q 197 -558 179.5 -544.5 Q 162 -531 151.5 -511.5 Q 141 -492 137.5 -470.5 Q 134 -449 134 -428 L 134 -308 Q 134 -286 137.5 -264.5 Q 141 -243 151.5 -223.5 Q 162 -204 179.5 -190.5 Q 197 -177 218 -172 Z " id="path1"/>
</defs>
<g>
<g data-source-text="¢" fill="#20242e" transform="translate(40 104.99201) rotate(0) scale(0.09599999)">
<use href="#path1" transform="translate(0 0)"/>
</g>
</g>
</svg>