<?xml version="1.0" encoding="UTF-8" standalone="no"?>
<svg height="160" viewBox="0 0 128 160" width="128" xmlns="http://www.w3.org/2000/svg">
<defs>
<path d="M 281 8 Q 260 8 239 2.5 Q 218 -3 199.5 -14 Q 181 -25 166.5 -41 Q 152 -57 141 -75 L 141 0 L 64 0 L 64 -181 L 141 -181 Q 141 -158 149 -136 Q 157 -114 172.5 -97 Q 188 -80 209.5 -71 Q 231 -62 254 -62 Q 281 -62 306 -73.5 Q 331 -85 346.5 -106.5 Q 362 -128 368 -154.5 Q 374 -181 374 -207 Q 374 -225 371.5 -243 Q 369 -261 362.5 -277 Q 356 -293 344.5 -307 Q 333 -321 318 -330.5 Q 303 -340 285.5 -343.5 Q 268 -347 250 -347 L 194 -347 L 194 -417 L 250 -417 Q 274 -417 296 -426 Q 318 -435 332.5 -453.5 Q 347 -472 352.5 -495.5 Q 358 -519 358 -542 Q 358 -566 353 -589.5 Q 348 -613 334.5 -632.5 Q 321 -652 299 -662.5 Q 277 -673 253 -673 Q 230 -673 209 -663.5 Q 188 -654 172.5 -637.5 Q 157 -621 149 -599 Q 141 -577 141 -554 L 64 -554 L 64 -735 L 141 -735 L 141 -660 Q 152 -678 166.5 -694 Q 181 -710 199 -721 Q 217 -732 238 -737.5 Q 259 -743 280 -743 Q 304 -743 327 -736 Q 350 -729 368.5 -715 Q 387 -701 400.5 -681 Q 414 -661 422 -638.5 Q 430 -616 433 -592.5 Q 436 -569 436 -545 Q 436 -521 432 -496.5 Q 428 -472 416.5 -450 Q 405 -428 386.5 -411 Q 368 -394 346 -383 Q 372 -373 393.5 -354.5 Q 415 -336 428.5 -311.5 Q 442 -287 447 -259.5 Q 452 -232 452 -204 Q 452 -179 448.5 -153.5 Q 445 -128 436 -104 Q 427 -80 412.5 -58.5 Q 398 -37 377.5 -22 Q 357 -7 332 0.5 Q 307 8 281 8 Z " id="path1"/>
</defs>
<g>
<g data-source-text="З" fill="#dee4e3" transform="translate(40 104.99201) rotate(0) scale(0.09599999)">
<use href="#path1" transform="translate(0 0)"/>
</g>
</g>
</svg>