<?xml version="1.0" encoding="UTF-8" standalone="no"?>
<svg height="160" viewBox="0 0 128 160" width="128" xmlns="http://www.w3.org/2000/svg">
<defs>
<path d="M 256 8 Q 229 8 202 3 Q 175 -2 151 -14 Q 127 -26 108 -46 Q 89 -66 77 -90 Q 65 -114 60.5 -141 Q 56 -168 56 -195 L 56 -540 Q 56 -567 60.5 -594 Q 65 -621 77 -645 Q 89 -669 108 -689 Q 127 -709 151 -721 Q 175 -733 202 -738 Q 229 -743 256 -743 Q 304 -743 350.5 -728 Q 397 -713 436 -686 L 436 -555 L 359 -555 L 359 -648 Q 335 -660 308.5 -666.5 Q 282 -673 256 -673 Q 239 -673 222 -669.5 Q 205 -666 190 -657.5 Q 175 -649 163.5 -635.5 Q 152 -622 145.5 -606.5 Q 139 -591 136.5 -574 Q 134 -557 134 -540 L 134 -195 Q 134 -178 136.5 -161 Q 139 -144 145.5 -128.5 Q 152 -113 163.5 -99.5 Q 175 -86 190 -77.5 Q 205 -69 222 -65.5 Q 239 -62 256 -62 Q 282 -62 308.5 -68 Q 335 -74 358 -86 L 358 -330 L 250 -330 L 250 -400 L 436 -400 L 436 -49 Q 397 -22 350.5 -7 Q 304 8 256 8 Z " id="path1"/>
</defs>
<g>
<g data-source-text="G" fill="#dee4e3" transform="translate(40 104.99201) rotate(0) scale(0.09599999)">
<use href="#path1" transform="translate(0 0)"/>
</g>
</g>
</svg>