<?xml version="1.0" encoding="UTF-8" standalone="no"?>
<svg height="160" viewBox="0 0 128 160" width="128" xmlns="http://www.w3.org/2000/svg">
<defs>
<path d="M 332 8 Q 317 8 302.5 3.5 Q 288 -1 274.5 -7.5 Q 261 -14 247.5 -21 Q 234 -28 220.5 -34.5 Q 207 -41 193 -46 Q 179 -51 164 -56 L 134 -66 L 134 0 L 64 0 L 64 -159 L 197 -350 L 119 -350 L 119 -414 L 241 -414 L 366 -594 L 366 -596 L 321 -613 Q 302 -621 283.5 -629.5 Q 265 -638 247 -647 L 246 -647 Q 228 -657 208.5 -665 Q 189 -673 168 -673 Q 159 -673 153 -666.5 Q 147 -660 143.5 -652.5 Q 140 -645 138 -636.5 Q 136 -628 135 -619.5 Q 134 -611 133.5 -602.5 Q 133 -594 133 -586 L 133 -538 L 56 -538 L 56 -586 Q 56 -604 58 -622 Q 60 -640 65 -657.5 Q 70 -675 79 -691 Q 88 -707 101.5 -719.5 Q 115 -732 132.5 -737.5 Q 150 -743 168 -743 Q 192 -743 215 -735 Q 238 -727 260 -717 Q 282 -707 304 -697 Q 326 -687 349 -679 L 366 -672 L 366 -735 L 436 -735 L 436 -576 L 324 -414 L 381 -414 L 381 -350 L 279 -350 L 134 -141 L 189 -123 Q 202 -118 214 -113.5 Q 226 -109 237.5 -103 Q 249 -97 260 -90.5 Q 271 -84 282.5 -77.5 Q 294 -71 306.5 -66.5 Q 319 -62 332 -62 Q 341 -62 347 -68.5 Q 353 -75 356.5 -82.5 Q 360 -90 362 -98.5 Q 364 -107 365 -115.5 Q 366 -124 366.5 -132.5 Q 367 -141 367 -149 L 367 -198 L 444 -198 L 444 -149 Q 444 -131 442 -113 Q 440 -95 435 -77.5 Q 430 -60 421 -44 Q 412 -28 398.5 -15.5 Q 385 -3 367.5 2.5 Q 350 8 332 8 Z " id="path1"/>
</defs>
<g>
<g data-source-text="Z" fill="#20242e" transform="translate(40 104.99201) rotate(0) scale(0.09599999)">
<use href="#path1" transform="translate(0 0)"/>
</g>
</g>
</svg>