<?xml version="1.0" encoding="UTF-8" standalone="no"?>
<svg height="160" viewBox="0 0 128 160" width="128" xmlns="http://www.w3.org/2000/svg">
<defs>
<path d="M 64 0 L 64 -735 L 142 -735 L 142 -383 Q 166 -408 189.5 -434.5 Q 213 -461 235 -488 Q 257 -515 278 -543.5 Q 299 -572 316.5 -602.5 Q 334 -633 346 -666.5 Q 358 -700 358 -735 L 436 -735 Q 436 -705 427.5 -675.5 Q 419 -646 406.5 -619 Q 394 -592 378.5 -566 Q 363 -540 345.5 -515.5 Q 328 -491 309 -467 Q 290 -443 271 -420 Q 291 -388 310 -354.5 Q 329 -321 347 -287.5 Q 365 -254 381 -219 Q 397 -184 410.5 -148.5 Q 424 -113 434 -75.5 Q 444 -38 444 0 L 366 0 Q 366 -33 358 -65 Q 350 -97 338.5 -128 Q 327 -159 313.5 -188.5 Q 300 -218 285 -247.5 Q 270 -277 253.5 -305.5 Q 237 -334 220 -362 Q 201 -340 181 -318.5 Q 161 -297 142 -276 L 142 0 Z " id="path1"/>
</defs>
<g>
<g data-source-text="К" fill="#dee4e3" transform="translate(40 104.99201) rotate(0) scale(0.09599999)">
<use href="#path1" transform="translate(0 0)"/>
</g>
</g>
</svg>