<svg xmlns="http://www.w3.org/2000/svg" height="160" viewBox="0 0 128 160" width="128"><defs><path d="M 95 0 L 95 -450 L 49 -450 L 49 -520 L 173 -520 L 173 -292 Q 184 -302 194.5 -312 Q 205 -322 215 -332.5 Q 225 -343 235.5 -353.5 Q 246 -364 255.5 -374.5 Q 265 -385 275 -396 Q 285 -407 294 -418.5 Q 303 -430 311.5 -442 Q 320 -454 327.5 -466 Q 335 -478 341.5 -491.5 Q 348 -505 348 -520 L 436 -520 Q 436 -503 429 -487.5 Q 422 -472 413.5 -457.5 Q 405 -443 395 -429 Q 385 -415 375 -402 Q 365 -389 354 -376 Q 343 -363 332 -350.5 Q 321 -338 309.5 -325.5 Q 298 -313 286 -301 Q 299 -284 311 -266.5 Q 323 -249 335 -231 Q 347 -213 358.5 -195 Q 370 -177 381 -158.5 Q 392 -140 402.5 -121 Q 413 -102 421.5 -82.5 Q 430 -63 437 -42 Q 444 -21 444 0 L 366 0 Q 366 -18 360.5 -35 Q 355 -52 347.5 -68.5 Q 340 -85 331.5 -100.5 Q 323 -116 314 -131.5 Q 305 -147 295.5 -162 Q 286 -177 276 -192 Q 266 -207 255.5 -221.5 Q 245 -236 234 -250 Q 219 -236 204 -222.5 Q 189 -209 173 -195 L 173 0 Z " id="path1"/></defs><g><g fill="#20242e" transform="translate(40 105.20961) rotate(0)"><use href="#path1" transform="translate(0 0) scale(0.09599999)"/></g></g></svg>