<?xml version="1.0" encoding="UTF-8" standalone="no"?>
<svg height="160" viewBox="0 0 128 160" width="128" xmlns="http://www.w3.org/2000/svg">
<defs>
<path d="M 51 215 L 51 145 L 120 145 Q 139 145 157.5 138.5 Q 176 132 188.5 117.5 Q 201 103 206 84 Q 211 65 211 46 L 211 8 L 200 8 Q 176 8 152.5 1.5 Q 129 -5 109.5 -20 Q 90 -35 77 -55.5 Q 64 -76 56 -99 Q 48 -122 45.5 -146.5 Q 43 -171 43 -195 L 43 -325 Q 43 -349 45.5 -373.5 Q 48 -398 56 -421 Q 64 -444 77 -464.5 Q 90 -485 109.5 -500 Q 129 -515 152.5 -521.5 Q 176 -528 200 -528 L 211 -528 L 211 -566 Q 211 -589 215 -611.5 Q 219 -634 229 -654 Q 239 -674 255.5 -690.5 Q 272 -707 292 -717 Q 312 -727 334.5 -731 Q 357 -735 380 -735 L 449 -735 L 449 -665 L 380 -665 Q 361 -665 342.5 -658.5 Q 324 -652 311.5 -637.5 Q 299 -623 294 -604 Q 289 -585 289 -566 L 289 -528 L 300 -528 Q 324 -528 347.5 -521.5 Q 371 -515 390.5 -500 Q 410 -485 423 -464.5 Q 436 -444 444 -421 Q 452 -398 454.5 -373.5 Q 457 -349 457 -325 L 457 -195 Q 457 -171 454.5 -146.5 Q 452 -122 444 -99 Q 436 -76 423 -55.5 Q 410 -35 390.5 -20 Q 371 -5 347.5 1.5 Q 324 8 300 8 L 289 8 L 289 46 Q 289 69 285 91.5 Q 281 114 271 134 Q 261 154 244.5 170.5 Q 228 187 208 197 Q 188 207 165.5 211 Q 143 215 120 215 Z M 214 -57 L 214 -463 L 200 -463 Q 185 -463 171 -457 Q 157 -451 147 -439.5 Q 137 -428 131 -414 Q 125 -400 121 -385 Q 117 -370 116 -355 Q 115 -340 115 -325 L 115 -195 Q 115 -180 116 -165 Q 117 -150 121 -135 Q 125 -120 131 -106 Q 137 -92 147 -80.5 Q 157 -69 171 -63 Q 185 -57 200 -57 Z M 286 -57 L 300 -57 Q 315 -57 329 -63 Q 343 -69 353 -80.5 Q 363 -92 369 -106 Q 375 -120 379 -135 Q 383 -150 384 -165 Q 385 -180 385 -195 L 385 -325 Q 385 -340 384 -355 Q 383 -370 379 -385 Q 375 -400 369 -414 Q 363 -428 353 -439.5 Q 343 -451 329 -457 Q 315 -463 300 -463 L 286 -463 Z " id="path1"/>
</defs>
<g>
<g data-source-text="ф" fill="#20242e" transform="translate(40 104.99201) rotate(0) scale(0.09599999)">
<use href="#path1" transform="translate(0 0)"/>
</g>
</g>
</svg>