<?xml version="1.0" encoding="UTF-8" standalone="no"?>
<svg xmlns="http://www.w3.org/2000/svg" height="160" viewBox="0 0 128 160" width="128"><defs><path d="M 275 8 L 275 8 Q 255 8 235.5 4.5 Q 216 1 198 -8 Q 180 -17 165.5 -31 Q 151 -45 141 -62 L 141 0 L 64 0 L 64 -181 L 141 -181 Q 141 -158 147 -135.5 Q 153 -113 168 -95.5 Q 183 -78 205 -70 Q 227 -62 250 -62 Q 250 -62 250 -62 Q 250 -62 250 -62 Q 277 -62 302.5 -72 Q 328 -82 345 -103 Q 362 -124 368 -150.5 Q 374 -177 374 -204 Q 374 -204 374 -204 Q 374 -204 374 -204 Q 374 -222 371.5 -240 Q 369 -258 362.5 -274.5 Q 356 -291 345 -305.5 Q 334 -320 318.5 -329.5 Q 303 -339 285.5 -343 Q 268 -347 250 -347 L 194 -347 L 194 -417 L 250 -417 Q 274 -417 296.5 -426.5 Q 319 -436 333.5 -455 Q 348 -474 353 -498 Q 358 -522 358 -545 Q 358 -569 353 -593 Q 348 -617 333.5 -635.5 Q 319 -654 296 -663.5 Q 273 -673 249 -673 Q 227 -673 204.5 -665 Q 182 -657 167.5 -639.5 Q 153 -622 147 -599.5 Q 141 -577 141 -554 L 64 -554 L 64 -735 L 141 -735 L 141 -673 Q 151 -690 165.5 -704 Q 180 -718 197.5 -727 Q 215 -736 235 -739.5 Q 255 -743 274 -743 Q 298 -743 321.5 -737.5 Q 345 -732 365 -718 Q 385 -704 399 -684.5 Q 413 -665 421 -642.5 Q 429 -620 432.5 -596.5 Q 436 -573 436 -549 Q 436 -524 432 -499 Q 428 -474 416.5 -451.5 Q 405 -429 386.5 -411.5 Q 368 -394 345 -383 Q 371 -372 393 -353.5 Q 415 -335 428.5 -310 Q 442 -285 447 -257 Q 452 -229 452 -201 Q 452 -175 448.5 -149.5 Q 445 -124 435.5 -99.5 Q 426 -75 410.5 -54 Q 395 -33 373.5 -18.5 Q 352 -4 326.5 2 Q 301 8 275 8 Z " id="path1"/></defs><g><g data-source-text="З" fill="#20242e" transform="translate(40 104.99201) rotate(0) scale(0.09599999)"><use href="#path1" transform="translate(0 0)"/></g></g></svg>