<?xml version="1.0" encoding="UTF-8" standalone="no"?>
<svg height="160" viewBox="0 0 128 160" width="128" xmlns="http://www.w3.org/2000/svg">
<defs>
<path d="M 276 8 Q 255 8 233.5 4 Q 212 -0 193 -10 Q 174 -20 159 -35.5 Q 144 -51 133 -69 L 133 0 L 64 0 L 64 -180 L 133 -180 Q 133 -156 140 -133 Q 147 -110 163.5 -93 Q 180 -76 203 -69 Q 226 -62 250 -62 Q 266 -62 283 -65.5 Q 300 -69 314 -78 Q 328 -87 338.5 -100.5 Q 349 -114 355.5 -129.5 Q 362 -145 364 -161.5 Q 366 -178 366 -195 L 366 -332 L 194 -332 L 194 -403 L 366 -403 L 366 -540 Q 366 -557 364 -573.5 Q 362 -590 355.5 -605.5 Q 349 -621 338.5 -634.5 Q 328 -648 314 -657 Q 300 -666 283 -669.5 Q 266 -673 250 -673 Q 226 -673 203 -666 Q 180 -659 163.5 -642 Q 147 -625 140 -602 Q 133 -579 133 -555 L 64 -555 L 64 -735 L 133 -735 L 133 -666 Q 144 -684 159 -699.5 Q 174 -715 193 -725 Q 212 -735 233.5 -739 Q 255 -743 276 -743 Q 301 -743 325.5 -737 Q 350 -731 370.5 -716.5 Q 391 -702 406 -681.5 Q 421 -661 429.5 -637.5 Q 438 -614 441 -589.5 Q 444 -565 444 -540 L 444 -195 Q 444 -170 441 -145.5 Q 438 -121 429.5 -97.5 Q 421 -74 406 -53.5 Q 391 -33 370.5 -18.5 Q 350 -4 325.5 2 Q 301 8 276 8 Z " id="path1"/>
</defs>
<g>
<g data-source-text="Э" fill="#dee4e3" transform="translate(40 104.99201) rotate(0) scale(0.09599999)">
<use href="#path1" transform="translate(0 0)"/>
</g>
</g>
</svg>