<svg xmlns="http://www.w3.org/2000/svg" height="160" viewBox="0 0 128 160" width="128"><defs><path d="M 225 8 Q 200 8 175.5 2 Q 151 -4 130.5 -18 Q 110 -32 95 -52.5 Q 80 -73 71 -96.5 Q 62 -120 59 -145 Q 56 -170 56 -195 L 56 -540 Q 56 -565 59 -590 Q 62 -615 71 -638.5 Q 80 -662 95 -682.5 Q 110 -703 130.5 -717 Q 151 -731 175.5 -737 Q 200 -743 225 -743 Q 245 -743 264.5 -739.5 Q 284 -736 302 -727 Q 320 -718 334.5 -704 Q 349 -690 359 -673 L 359 -735 L 436 -735 L 436 -554 L 359 -554 Q 359 -577 353 -599.5 Q 347 -622 332 -639.5 Q 317 -657 295 -665 Q 273 -673 250 -673 Q 233 -673 216.5 -669.5 Q 200 -666 186 -657 Q 172 -648 161.5 -634.5 Q 151 -621 144.5 -605.5 Q 138 -590 136 -573.5 Q 134 -557 134 -540 L 134 -195 Q 134 -178 136 -161.5 Q 138 -145 144.5 -129.5 Q 151 -114 161.5 -100.5 Q 172 -87 186 -78 Q 200 -69 216.5 -65.5 Q 233 -62 250 -62 Q 273 -62 295 -70 Q 317 -78 332 -95.5 Q 347 -113 353 -135.5 Q 359 -158 359 -181 L 436 -181 L 436 0 L 359 0 L 359 -62 Q 349 -45 334.5 -31 Q 320 -17 302 -8 Q 284 1 264.5 4.5 Q 245 8 225 8 Z " id="path1"/></defs><g><g fill="#20242e" transform="translate(40 105.20961) rotate(0)"><use href="#path1" transform="translate(0 0) scale(0.09599999)"/></g></g></svg>