<?xml version="1.0" encoding="UTF-8" standalone="no"?>
<svg height="160" viewBox="0 0 128 160" width="128" xmlns="http://www.w3.org/2000/svg">
<defs>
<path d="M 482 8 L 467 8 Q 446 8 425 2.5 Q 404 -3 388.5 -17 Q 373 -31 365.5 -51.5 Q 358 -72 358 -93 L 358 -183 Q 332 -174 305 -169.5 Q 278 -165 250 -165 Q 224 -165 197.5 -170 Q 171 -175 148 -187.5 Q 125 -200 107 -220 Q 89 -240 79 -264.5 Q 69 -289 66.5 -315.5 Q 64 -342 64 -368 L 64 -520 L 142 -520 L 142 -368 Q 142 -352 143 -335.5 Q 144 -319 149.5 -303.5 Q 155 -288 165 -275 Q 175 -262 188.5 -253 Q 202 -244 218 -239.5 Q 234 -235 250 -235 Q 278 -235 305 -239.5 Q 332 -244 358 -253 L 358 -520 L 436 -520 L 436 -93 Q 436 -87 438 -81 Q 440 -75 444.5 -70.5 Q 449 -66 455 -64 Q 461 -62 467 -62 L 482 -62 Z " id="path1"/>
</defs>
<g>
<g data-source-text="ч" fill="#dee4e3" transform="translate(40 104.99201) rotate(0) scale(0.09599999)">
<use href="#path1" transform="translate(0 0)"/>
</g>
</g>
</svg>