<?xml version="1.0" encoding="UTF-8" standalone="no"?>
<svg height="160" viewBox="0 0 128 160" width="128" xmlns="http://www.w3.org/2000/svg">
<defs>
<path d="M 245 8 Q 219 8 193 2.5 Q 167 -3 144.5 -16 Q 122 -29 104 -49 Q 86 -69 75 -93 Q 64 -117 60 -143 Q 56 -169 56 -195 L 56 -540 Q 56 -566 60 -592 Q 64 -618 75 -642 Q 86 -666 104 -686 Q 122 -706 144.5 -719 Q 167 -732 193 -737.5 Q 219 -743 245 -743 Q 296 -743 344.5 -727.5 Q 393 -712 436 -686 L 436 -555 L 359 -555 L 359 -645 Q 333 -657 304.5 -665 Q 276 -673 247 -673 Q 231 -673 214.5 -669 Q 198 -665 184.5 -656 Q 171 -647 160.5 -633.5 Q 150 -620 144 -604.5 Q 138 -589 136 -573 Q 134 -557 134 -540 L 134 -195 Q 134 -178 136 -162 Q 138 -146 144 -130.5 Q 150 -115 160.5 -101.5 Q 171 -88 184.5 -79 Q 198 -70 214.5 -66 Q 231 -62 247 -62 Q 276 -62 304 -70 Q 332 -78 358 -90 L 358 -330 L 250 -330 L 250 -400 L 436 -400 L 436 -49 Q 393 -23 344.5 -7.5 Q 296 8 245 8 Z " id="path1"/>
</defs>
<g>
<g data-source-text="G" fill="#20242e" transform="translate(40 104.99201) rotate(0) scale(0.09599999)">
<use href="#path1" transform="translate(0 0)"/>
</g>
</g>
</svg>