<?xml version="1.0" encoding="UTF-8" standalone="no"?>
<svg height="160" viewBox="0 0 128 160" width="128" xmlns="http://www.w3.org/2000/svg">
<defs>
<path d="M 210 215 L 18 215 L 18 145 L 64 145 L 64 -471 Q 104 -501 152 -514.5 Q 200 -528 250 -528 Q 277 -528 303.5 -522.5 Q 330 -517 353.5 -504 Q 377 -491 395.5 -470.5 Q 414 -450 425 -425.5 Q 436 -401 440 -374 Q 444 -347 444 -320 L 444 -200 Q 444 -175 441 -150.5 Q 438 -126 430.5 -102.5 Q 423 -79 409.5 -57.5 Q 396 -36 377 -21 Q 358 -6 333.5 1 Q 309 8 284 8 Q 261 8 238 2 Q 215 -4 196 -18 Q 177 -32 163.5 -51 Q 150 -70 142 -92 L 142 145 L 210 145 Z M 254 -62 Q 271 -62 287.5 -66 Q 304 -70 317.5 -80 Q 331 -90 341 -104 Q 351 -118 356.5 -134 Q 362 -150 364 -166.5 Q 366 -183 366 -200 L 366 -320 Q 366 -337 364 -354 Q 362 -371 356 -387 Q 350 -403 339.5 -417 Q 329 -431 315 -440.5 Q 301 -450 284 -454 Q 267 -458 250 -458 Q 222 -458 194.5 -453 Q 167 -448 142 -435 L 142 -200 Q 142 -183 144 -166.5 Q 146 -150 151.5 -134 Q 157 -118 167 -104 Q 177 -90 190.5 -80 Q 204 -70 220.5 -66 Q 237 -62 254 -62 Z " id="path1"/>
</defs>
<g>
<g data-source-text="р" fill="#dee4e3" transform="translate(40 104.99201) rotate(0) scale(0.09599999)">
<use href="#path1" transform="translate(0 0)"/>
</g>
</g>
</svg>