<svg xmlns="http://www.w3.org/2000/svg" height="160" viewBox="0 0 128 160" width="128"><defs><path d="M 18.000002 0 L 18.000002 -70.00001 L 64 -70.00001 L 64 -665 L 18.000002 -665 L 18.000002 -735 L 233 -735 C 250.33331 -735 267.5 -733.5 284.5 -730.5 C 301.5 -727.5 317.66666 -722.16675 333 -714.50006 C 348.33334 -706.8334 362.16666 -696.8333 374.5 -684.5 C 386.8333 -672.1667 397 -658.1667 405.00003 -642.5 C 413.00003 -626.8333 418.50003 -610.5 421.50003 -593.50006 C 424.5 -576.5 425.99997 -559.3333 426 -542.00006 C 425.99997 -526 424.5 -509.8333 421.50003 -493.5 C 418.50003 -477.16666 413.00003 -462 405.00003 -448 C 397 -434.00003 387.00003 -421.3333 375 -410.00003 C 363 -398.6667 349.66666 -389.66666 335 -383.00003 C 352.33334 -376.3333 368.83334 -367.33334 384.5 -356 C 400.16666 -344.66666 413.16666 -330.99997 423.50003 -315 C 433.83334 -299 441.16666 -281.66666 445.50003 -263.00003 C 449.8333 -244.33333 452 -225.33334 452.00003 -206.00002 C 452 -187.33333 450.1667 -168.49998 446.50003 -149.5 C 442.8333 -130.5 436.3333 -112.66667 427.00003 -96 C 417.66666 -79.333336 405.83334 -64.666664 391.5 -52.000004 C 377.1667 -39.333332 361.33334 -29 344.00003 -21.000002 C 326.6667 -13.000001 308.5 -7.5 289.5 -4.5000005 C 270.5 -1.5000001 251.66667 0 233 0 Z M 233 -416.00003 C 249 -415.99997 264.83334 -418.66666 280.5 -424 C 296.16666 -429.33334 309.33334 -438.16666 320.00003 -450.50003 C 330.66666 -462.83334 338 -476.83334 342.00003 -492.5 C 346 -508.16666 348.00003 -524.3333 348.00003 -541 C 348.00003 -557 346 -572.8334 342.00003 -588.50006 C 338 -604.1666 330.66666 -618.1666 320.00003 -630.5 C 309.33334 -642.8333 296.16666 -651.6667 280.5 -657.00006 C 264.83334 -662.3334 249 -665 233 -665 L 142 -665 L 142 -416.00003 Z M 233 -70.00001 C 245.66667 -70.00001 258.16666 -71 270.5 -73 C 282.8333 -75 294.5 -78.66667 305.50003 -84.00001 C 316.50003 -89.333336 326.6667 -96.5 336.00003 -105.50001 C 345.33334 -114.5 353.00003 -124.5 359.00003 -135.50002 C 365.00003 -146.5 369 -158.16667 371.00003 -170.5 C 373 -182.83334 374 -195.33333 374 -208.00002 C 374 -220 373 -232.33334 371.00003 -245.00002 C 369 -257.66666 365.00003 -269.5 359.00003 -280.5 C 353.00003 -291.5 345.5 -301.33334 336.50003 -310 C 327.5 -318.66666 317.33334 -325.83334 306 -331.5 C 294.66666 -337.16663 282.8333 -341 270.5 -343.00003 C 258.16666 -345 245.66667 -346 233 -346 L 142 -346 L 142 -70.00001 Z " id="path1"/></defs><g><g fill="#000000" transform="translate(40 105.20961) rotate(0)"><use href="#path1" transform="translate(0 0) scale(0.09599999)"/></g></g></svg>