<?xml version="1.0" encoding="UTF-8" standalone="no"?>
<svg height="160" viewBox="0 0 128 160" width="128" xmlns="http://www.w3.org/2000/svg">
<defs>
<path d="M 64 0 L 64 -665 L 18 -665 L 18 -735 L 142 -735 L 142 -351 Q 166 -380 190 -409 Q 214 -438 236.5 -467.5 Q 259 -497 279.5 -528 Q 300 -559 317.5 -592.5 Q 335 -626 346.5 -662 Q 358 -698 358 -735 L 436 -735 Q 436 -704 428.5 -674 Q 421 -644 409 -615.5 Q 397 -587 382.5 -560 Q 368 -533 351 -507 Q 334 -481 316 -456 Q 298 -431 279 -406 Q 303 -366 326 -325.5 Q 349 -285 369 -243.5 Q 389 -202 407 -158.5 Q 425 -115 435 -70 L 482 -70 L 482 0 L 366 0 Q 366 -31 358.5 -61.5 Q 351 -92 340.5 -121.5 Q 330 -151 317.5 -179.5 Q 305 -208 291 -236 Q 277 -264 261.5 -291 Q 246 -318 230 -345 Q 209 -318 186.5 -291.5 Q 164 -265 142 -239 L 142 0 Z " id="path1"/>
</defs>
<g>
<g data-source-text="К" fill="#20242e" transform="translate(40 104.99201) rotate(0) scale(0.09599999)">
<use href="#path1" transform="translate(0 0)"/>
</g>
</g>
</svg>