<?xml version="1.0" encoding="UTF-8" standalone="no"?>
<svg xmlns="http://www.w3.org/2000/svg" height="160" viewBox="0 0 128 160" width="128"><defs><path d="M 341 8 Q 318 8 296 -1 Q 274 -10 253.5 -19.5 Q 233 -29 211.5 -37 Q 190 -45 168 -52 L 134 -62 L 134 0 L 64 0 L 64 -145 L 193 -350 L 119 -350 L 119 -415 L 234 -415 L 354 -606 L 323 -617 Q 302 -625 282 -633 Q 262 -641 242 -649.5 Q 222 -658 201.5 -665.5 Q 181 -673 159 -673 Q 154 -673 151.5 -668 Q 149 -663 147.5 -658 Q 146 -653 145 -648 Q 144 -643 143 -637.5 Q 142 -632 142 -627 Q 142 -622 141.5 -616.5 Q 141 -611 141 -606 Q 141 -601 141 -596 L 141 -553 L 64 -553 L 64 -596 Q 64 -612 65.5 -628.5 Q 67 -645 71 -661 Q 75 -677 82 -692 Q 89 -707 100.5 -719 Q 112 -731 127.5 -737 Q 143 -743 159 -743 Q 184 -743 208 -735.5 Q 232 -728 255.5 -719 Q 279 -710 302 -701 Q 325 -692 349 -683 L 366 -677 L 366 -735 L 436 -735 L 436 -590 L 326 -415 L 381 -415 L 381 -350 L 285 -350 L 147 -131 L 190 -119 Q 203 -115 215.5 -110.5 Q 228 -106 240.5 -100.5 Q 253 -95 265 -88.5 Q 277 -82 289 -76.5 Q 301 -71 314 -66.5 Q 327 -62 341 -62 Q 346 -62 348.5 -67 Q 351 -72 352.5 -77 Q 354 -82 355 -87 Q 356 -92 357 -97.5 Q 358 -103 358 -108 Q 358 -113 358.5 -118.5 Q 359 -124 359 -129 Q 359 -134 359 -139 L 359 -183 L 436 -183 L 436 -139 Q 436 -123 434.5 -106.5 Q 433 -90 429 -74 Q 425 -58 418 -43 Q 411 -28 399.5 -16 Q 388 -4 372.5 2 Q 357 8 341 8 Z " id="path1"/></defs><g><g data-source-text="Z" fill="#dee4e3" transform="translate(40 104.99201) rotate(0) scale(0.09599999)"><use href="#path1" transform="translate(0 0)"/></g></g></svg>