<?xml version="1.0" encoding="UTF-8" standalone="no"?>
<svg height="160" viewBox="0 0 128 160" width="128" xmlns="http://www.w3.org/2000/svg">
<defs>
<path d="M 244 8 Q 196 8 149.5 -7 Q 103 -22 64 -49 L 64 -180 L 141 -180 L 141 -87 Q 165 -75 191.5 -68.5 Q 218 -62 244 -62 Q 261 -62 278 -65.5 Q 295 -69 310 -77.5 Q 325 -86 336.5 -99.5 Q 348 -113 354.5 -128.5 Q 361 -144 363.5 -161 Q 366 -178 366 -195 L 366 -332 L 194 -332 L 194 -403 L 366 -403 L 366 -540 Q 366 -557 363.5 -574 Q 361 -591 354.5 -606.5 Q 348 -622 336.5 -635.5 Q 325 -649 310 -657.5 Q 295 -666 278 -669.5 Q 261 -673 244 -673 Q 218 -673 191.5 -666.5 Q 165 -660 141 -648 L 141 -555 L 64 -555 L 64 -686 Q 103 -713 149.5 -728 Q 196 -743 244 -743 Q 271 -743 298 -738 Q 325 -733 349 -721 Q 373 -709 392 -689 Q 411 -669 423 -645 Q 435 -621 439.5 -594 Q 444 -567 444 -540 L 444 -195 Q 444 -168 439.5 -141 Q 435 -114 423 -90 Q 411 -66 392 -46 Q 373 -26 349 -14 Q 325 -2 298 3 Q 271 8 244 8 Z " id="path1"/>
</defs>
<g>
<g data-source-text="Э" fill="#20242e" transform="translate(40 104.99201) rotate(0) scale(0.09599999)">
<use href="#path1" transform="translate(0 0)"/>
</g>
</g>
</svg>