<?xml version="1.0" encoding="UTF-8" standalone="no"?>
<svg height="160" viewBox="0 0 128 160" width="128" xmlns="http://www.w3.org/2000/svg">
<defs>
<path d="M 48 0 L 48 -665 L 14 -665 L 14 -735 L 159 -735 L 250 -182 L 341 -735 L 452 -735 L 452 0 L 374 0 L 374 -147 Q 374 -211 375 -275.5 Q 376 -340 378 -404 L 380 -478 Q 382 -516 382.5 -554 Q 383 -592 384 -630 L 280 0 L 220 0 L 116 -630 Q 117 -592 117.5 -554 Q 118 -516 120 -478 L 122 -404 Q 124 -340 125 -275.5 Q 126 -211 126 -147 L 126 0 Z " id="path1"/>
</defs>
<g>
<g data-source-text="M" fill="#dee4e3" transform="translate(40 104.99201) rotate(0) scale(0.09599999)">
<use href="#path1" transform="translate(0 0)"/>
</g>
</g>
</svg>