<?xml version="1.0" encoding="UTF-8" standalone="no"?>
<svg height="160" viewBox="0 0 128 160" width="128" xmlns="http://www.w3.org/2000/svg">
<defs>
<path d="M 253 8 Q 228 8 203.5 4 Q 179 0 156.5 -11 Q 134 -22 115.5 -39.5 Q 97 -57 85 -78.5 Q 73 -100 67.5 -124.5 Q 62 -149 62 -174 L 62 -180 L 140 -180 L 140 -176 Q 140 -153 147 -131 Q 154 -109 170 -92.5 Q 186 -76 208 -69 Q 230 -62 253 -62 Q 278 -62 301.5 -72 Q 325 -82 340 -101.5 Q 355 -121 360.5 -145.5 Q 366 -170 366 -195 L 366 -225 L 194 -225 L 194 -295 L 366 -295 L 366 -325 Q 366 -350 360.5 -374.5 Q 355 -399 340 -418.5 Q 325 -438 301.5 -448 Q 278 -458 253 -458 Q 230 -458 208 -451 Q 186 -444 170 -427.5 Q 154 -411 147 -389 Q 140 -367 140 -344 L 140 -340 L 62 -340 L 62 -346 Q 62 -371 67.5 -395.5 Q 73 -420 85 -441.5 Q 97 -463 115.5 -480.5 Q 134 -498 156.5 -509 Q 179 -520 203.5 -524 Q 228 -528 253 -528 Q 279 -528 305.5 -523 Q 332 -518 355 -505 Q 378 -492 396 -472 Q 414 -452 425 -428 Q 436 -404 440 -377.5 Q 444 -351 444 -325 L 444 -195 Q 444 -169 440 -142.5 Q 436 -116 425 -92 Q 414 -68 396 -48 Q 378 -28 355 -15 Q 332 -2 305.5 3 Q 279 8 253 8 Z " id="path1"/>
</defs>
<g>
<g data-source-text="Ñ" fill="#dee4e3" transform="translate(40 104.99201) rotate(0) scale(0.09599999)">
<use href="#path1" transform="translate(0 0)"/>
</g>
</g>
</svg>