<svg xmlns="http://www.w3.org/2000/svg" height="160" viewBox="0 0 128 160" width="128"><defs><path d="M 395.00003 52.000004 L 350 -13.000001 C 334.66666 -5.0000005 318.5 0.5000001 301.5 3.5 C 284.5 6.4999995 267.33334 8 250 8 C 232 8 214.16667 6.3333335 196.50002 3 C 178.83333 -0.33333325 162.33333 -6.166667 147.00002 -14.5 C 131.66667 -22.833334 117.83334 -33.666668 105.50001 -47.000004 C 93.16667 -60.333332 83.333336 -75.166664 76 -91.50001 C 68.66667 -107.83333 63.5 -124.666664 60.500004 -142 C 57.499996 -159.33333 55.999996 -177.00002 56 -195 L 56 -540 C 55.999996 -558 57.499996 -575.8333 60.500004 -593.50006 C 63.5 -611.1666 68.66667 -628 76 -644.00006 C 83.333336 -660 93.16667 -674.6667 105.50001 -688.00006 C 117.83334 -701.3334 131.83334 -712.1666 147.5 -720.5 C 163.16667 -728.8334 179.66666 -735.16675 197.00002 -739.50006 C 214.33334 -743.8333 232 -746 250 -746 C 268 -746 285.6667 -743.8333 303 -739.50006 C 320.33334 -735.16675 336.83334 -728.8334 352.5 -720.5 C 368.1667 -712.1666 382.1667 -701.3334 394.50003 -688.00006 C 406.83334 -674.6667 416.66663 -660 424 -644.00006 C 431.33334 -628 436.5 -611.1666 439.50003 -593.50006 C 442.5 -575.8333 444.00003 -558 444.00003 -540 L 444.00003 -195 C 444.00003 -182.33331 443.49997 -169.83333 442.5 -157.5 C 441.49997 -145.16666 439.16663 -133.16667 435.5 -121.50001 C 431.8333 -109.833336 427.33334 -98.33333 422.00003 -87.00001 C 416.6667 -75.66667 410.00003 -65.333336 402 -56 L 477 52.000004 Z M 250 -62.000004 C 260 -62.000004 269.83334 -62.833336 279.50003 -64.5 C 289.1667 -66.166664 298.33334 -69.33333 307 -74 L 201 -227 L 283.00003 -227 L 354.00003 -125 C 358.66666 -136.33333 361.83334 -147.83333 363.5 -159.50002 C 365.1667 -171.16666 366.00003 -183.00002 366.00003 -195 L 366.00003 -540 C 366.00003 -551.3334 365.33334 -562.5 364 -573.5 C 362.66666 -584.5 359.83334 -595.3334 355.50003 -606 C 351.1667 -616.6666 345.5 -626.5 338.5 -635.5 C 331.49997 -644.50006 323.16666 -651.8334 313.50003 -657.5 C 303.83334 -663.1667 293.33334 -667.1666 282 -669.50006 C 270.66666 -671.8334 259.33334 -673.00006 248.00002 -673.00006 C 237.33333 -673.00006 226.5 -671.6666 215.5 -669 C 204.5 -666.3333 194.33333 -662 185.00002 -656.00006 C 175.66666 -650 167.66667 -642.5 161.00002 -633.50006 C 154.33334 -624.5 148.83334 -615 144.5 -605.00006 C 140.16667 -595 137.33334 -584.5 136 -573.5 C 134.66667 -562.5 134 -551.3334 134 -540 L 134 -195 C 134 -183.66667 134.66667 -172.5 136 -161.5 C 137.33334 -150.5 140.16667 -139.83333 144.5 -129.5 C 148.83334 -119.166664 154.5 -109.49999 161.5 -100.5 C 168.50002 -91.50001 176.66669 -84.00001 186.00002 -78 C 195.33334 -72 205.50002 -67.833336 216.50002 -65.5 C 227.50002 -63.16667 238.66666 -62.000004 250 -62.000004 Z " id="path1"/></defs><g><g fill="#000000" transform="translate(40 105.20961) rotate(0)"><use href="#path1" transform="translate(0 0) scale(0.09599999)"/></g></g></svg>