<svg xmlns="http://www.w3.org/2000/svg" height="160" viewBox="0 0 128 160" width="128"><defs><path d="M 276 8 L 275 8 Q 257 8 238 5.5 Q 219 3 201.5 -3 Q 184 -9 168.5 -20 Q 153 -31 141 -46 L 141 0 L 64 0 L 64 -181 L 141 -181 L 141 -136 Q 141 -124 145.5 -112 Q 150 -100 158.5 -91 Q 167 -82 178 -76.5 Q 189 -71 201 -67.5 Q 213 -64 225.5 -63 Q 238 -62 250 -62 Q 265 -62 279 -63.5 Q 293 -65 306.5 -68.5 Q 320 -72 333 -79 Q 346 -86 355.5 -96 Q 365 -106 369.5 -120 Q 374 -134 374 -148 Q 374 -162 369.5 -176 Q 365 -190 355.5 -200.5 Q 346 -211 333 -218 Q 320 -225 306.5 -229 Q 293 -233 278.5 -234 Q 264 -235 250 -235 L 194 -235 L 194 -305 L 250 -305 Q 269 -305 287.5 -308.5 Q 306 -312 322.5 -321 Q 339 -330 348.5 -347 Q 358 -364 358 -382 Q 358 -395 354 -407 Q 350 -419 341.5 -428 Q 333 -437 322 -443 Q 311 -449 299 -452.5 Q 287 -456 274.5 -457 Q 262 -458 250 -458 Q 250 -458 250 -458 Q 250 -458 250 -458 Q 237 -458 225 -457 Q 213 -456 201 -452.5 Q 189 -449 178 -443.5 Q 167 -438 158 -429 Q 149 -420 145 -408 Q 141 -396 141 -384 L 141 -339 L 64 -339 L 64 -520 L 141 -520 L 141 -474 Q 153 -489 168.5 -499.5 Q 184 -510 201.5 -516.5 Q 219 -523 237.5 -525.5 Q 256 -528 275 -528 Q 275 -528 275 -528 Q 275 -528 275 -528 Q 306 -528 336 -520.5 Q 366 -513 389.5 -493.5 Q 413 -474 424.5 -445 Q 436 -416 436 -385 Q 436 -367 431.5 -348.5 Q 427 -330 416.5 -315.5 Q 406 -301 391 -290 Q 376 -279 359 -272 Q 379 -264 397 -252.5 Q 415 -241 428 -224.5 Q 441 -208 446.5 -187 Q 452 -166 452 -145 Q 452 -123 446.5 -101.5 Q 441 -80 429.5 -61.5 Q 418 -43 400.5 -29 Q 383 -15 362.5 -6.5 Q 342 2 320 5 Q 298 8 276 8 Z " id="path1"/></defs><g><g fill="#20242e" transform="translate(40 105.20961) rotate(0)"><use href="#path1" transform="translate(0 0) scale(0.09599999)"/></g></g></svg>