<svg xmlns="http://www.w3.org/2000/svg" height="160" viewBox="0 0 128 160" width="128"><defs><path d="M 95 0 L 95 -665 L 49 -665 L 49 -735 L 173 -735 L 173 -395.00003 C 182.33334 -408.33334 191.83334 -421.50003 201.5 -434.50003 C 211.16667 -447.5 220.5 -460.8333 229.5 -474.50003 C 238.5 -488.16666 247.33333 -501.66663 256 -515 C 264.66666 -528.3333 273 -542 281 -556 C 289 -570 296.8333 -584.1667 304.5 -598.50006 C 312.16666 -612.8333 319.3333 -627.3333 326 -642 C 332.6667 -656.6667 338.6667 -671.8334 344.00003 -687.5 C 349.33334 -703.1667 352 -719.00006 352 -735 L 436 -735 C 435.99997 -720.33325 433.83334 -706.00006 429.50003 -692 C 425.1667 -678 420.3333 -664.1667 415 -650.50006 C 409.66666 -636.8333 403.66666 -623.49994 397 -610.50006 C 390.33334 -597.5 383.6667 -584.6667 377.00003 -572 C 370.3333 -559.3333 363.16666 -546.6667 355.50003 -534 C 347.83337 -521.3333 340.1667 -508.8333 332.5 -496.50003 C 324.8333 -484.1667 317 -472.00003 309 -460 C 301 -448 292.6667 -436 284 -424 C 293.33334 -406.66666 302.16666 -389.5 310.50003 -372.50003 C 318.83334 -355.5 327.16666 -338.5 335.5 -321.5 C 343.83334 -304.5 351.83334 -287.33334 359.50003 -270 C 367.1667 -252.66669 374.83334 -235.33333 382.50003 -218 C 390.1667 -200.66667 397.33334 -183.16667 404.00003 -165.50002 C 410.6667 -147.83333 416.83334 -129.83333 422.50003 -111.50001 C 428.16663 -93.16667 433.1667 -74.66667 437.5 -56 C 441.83334 -37.333332 444.00003 -18.666666 444.00003 0 L 366.00003 0 C 366.00003 -21.333332 363.33334 -42.333336 358 -63 C 352.66666 -83.666664 346.5 -104.00001 339.5 -124.00001 C 332.5 -144.00002 325 -163.83333 317.00003 -183.5 C 309 -203.16666 300.5 -222.66667 291.50003 -242.00002 C 282.5 -261.33334 273.3333 -280.50003 264 -299.50003 C 254.66666 -318.5 245.33333 -337.33334 236.00002 -356 C 226 -342.6667 215.66666 -329.1667 205.00002 -315.5 C 194.33334 -301.83334 183.66667 -288.6667 173 -276 L 173 0 Z " id="path1"/></defs><g><g fill="#000000" transform="translate(40 105.20961) rotate(0)"><use href="#path1" transform="translate(0 0) scale(0.09599999)"/></g></g></svg>