<svg xmlns="http://www.w3.org/2000/svg" height="160" viewBox="0 0 128 160" width="128"><defs><path d="M 365.00003 223.00002 C 350.33334 223.00002 336.50003 220 323.5 214.00002 C 310.5 208.00002 297.83334 201.66667 285.50003 195 C 273.16666 188.33331 260.33334 182 247 176 C 233.66667 170 220 166.99998 206.00002 167 C 198 166.99998 190.33333 168.16666 183.00002 170.5 C 175.66667 172.83333 168.66669 176.16667 162 180.50002 C 155.33333 184.83333 149.66667 190 145 196 C 140.33334 202.00002 136.33333 208.66667 133 216 L 61 193 C 67 177.00002 74.5 161.33334 83.5 146 C 92.49999 130.66667 102.66667 116.5 114.00001 103.5 C 125.333336 90.5 138.16667 78.833336 152.50002 68.50001 C 166.83333 58.166664 181.5 48.833332 196.50002 40.5 C 211.5 32.166664 226.83333 24 242.50002 16 C 258.16666 8 273 -1.3333336 287 -12 C 301 -22.666666 313.50003 -34.666664 324.5 -48 C 335.5 -61.333332 344.33334 -76.166664 351 -92.50001 C 357.66666 -108.833336 361.83334 -125.66667 363.5 -143 C 365.1667 -160.33334 366.00003 -177.66667 366.00003 -195 L 366.00003 -540 C 366.00003 -551.3334 365.33334 -562.5 364 -573.5 C 362.66666 -584.5 359.83334 -595.1667 355.50003 -605.50006 C 351.1667 -615.8334 345.5 -625.5 338.5 -634.5 C 331.49997 -643.5 323.33334 -651 314.00003 -657.00006 C 304.66666 -663 294.5 -667.1666 283.5 -669.50006 C 272.5 -671.8334 261.33334 -673.00006 250 -673.00006 C 238.66666 -673.00006 227.50002 -671.8334 216.50002 -669.50006 C 205.50002 -667.1666 195.33334 -663 186.00002 -657.00006 C 176.66669 -651 168.50002 -643.5 161.5 -634.5 C 154.5 -625.5 148.83334 -615.8334 144.5 -605.50006 C 140.16667 -595.1667 137.33334 -584.5 136 -573.5 C 134.66667 -562.5 134 -551.3334 134 -540 L 134 -238 C 134 -222.66667 135.66666 -207.16666 139 -191.50002 C 142.33333 -175.83334 148.5 -161.5 157.5 -148.50002 C 166.5 -135.5 178.33333 -125.16667 193 -117.5 C 207.66666 -109.833336 222.66667 -105.666664 238 -105 L 168.00002 -48 C 150 -55.333332 133.33333 -65.5 118.00001 -78.50001 C 102.66666 -91.50001 90.33333 -106.666664 81 -124.00001 C 71.666664 -141.33334 65.166664 -159.83334 61.500004 -179.50002 C 57.833336 -199.16666 55.999996 -218.66667 56 -238 L 56 -540 C 55.999996 -558 57.499996 -575.6667 60.500004 -593.00006 C 63.5 -610.3333 68.66667 -627.1667 76 -643.5 C 83.333336 -659.8333 93.16667 -674.6667 105.50001 -688.00006 C 117.83334 -701.3334 131.66667 -712.1666 147.00002 -720.5 C 162.33333 -728.8334 178.83333 -734.6667 196.50002 -738 C 214.16667 -741.3334 232 -743.00006 250 -743.00006 C 268 -743.00006 285.8333 -741.3334 303.5 -738 C 321.16666 -734.6667 337.6667 -728.8334 353.00003 -720.5 C 368.33334 -712.1666 382.1667 -701.3334 394.50003 -688.00006 C 406.83334 -674.6667 416.66663 -659.8333 424 -643.5 C 431.33334 -627.1667 436.5 -610.3333 439.50003 -593.00006 C 442.5 -575.6667 444.00003 -558 444.00003 -540 L 444.00003 -195 C 444.00003 -177.00002 443.3333 -159.16667 442 -141.50002 C 440.6667 -123.83334 437.16672 -106.666664 431.5 -90.00001 C 425.8333 -73.333336 418.16666 -57.5 408.5 -42.5 C 398.83337 -27.5 387.50003 -14 374.5 -2 C 361.5 9.999999 347.50003 20.666666 332.5 30.000002 C 317.5 39.333332 302.16666 48.333332 286.5 57.000004 C 270.83334 65.666664 255.5 74.66667 240.5 84.00001 C 225.5 93.333336 211.33333 103.99999 198 116 C 201.33333 115.333336 204.5 115 207.5 115 C 210.50002 115 213.33333 115 216 115 C 228.00002 115 239.50002 117.00001 250.50002 121.00001 C 261.5 125 272.33334 129.33333 283.00003 134 C 293.6667 138.66666 304.6667 143 316 147.00002 C 327.33334 151 338.66666 152.99998 350 153 C 357.33334 152.99998 364.16666 151 370.50003 147.00002 C 376.83334 143 381.8333 137.83333 385.5 131.50002 C 389.1667 125.16667 392.16666 118.66667 394.50003 112 C 396.83334 105.33333 398.6667 98.33333 400.00003 91 C 401.33334 83.666664 402.33334 76.5 403 69.5 C 403.66666 62.5 404.00003 55.333332 404.00003 48 C 404.00003 46.666664 404.00003 45.5 404.00003 44.5 C 404.00003 43.500004 404.00003 42.333336 404.00003 41.000004 L 481 41.000004 C 480.99997 43 480.99997 44.833332 481 46.500004 C 480.99997 48.166668 480.99997 50.000004 481 52.000004 C 480.99997 64.666664 480.16666 77.5 478.50003 90.5 C 476.8333 103.5 474.16666 116.16667 470.5 128.50002 C 466.8333 140.83334 462.1667 152.83334 456.50003 164.5 C 450.83334 176.16666 443.49997 186.5 434.50003 195.5 C 425.5 204.5 414.8333 211.33334 402.5 216 C 390.16666 220.66667 377.66666 223.00002 365.00003 223.00002 Z " id="path1"/></defs><g><g fill="#000000" transform="translate(40 105.20961) rotate(0)"><use href="#path1" transform="translate(0 0) scale(0.09599999)"/></g></g></svg>