<?xml version="1.0" encoding="UTF-8" standalone="no"?>
<svg height="160" viewBox="0 0 128 160" width="128" xmlns="http://www.w3.org/2000/svg">
<defs>
<path d="M 245 8 Q 197 8 150 -7 Q 103 -22 64 -49 L 64 -180 L 141 -180 L 141 -87 Q 165 -75 191.5 -68.5 Q 218 -62 245 -62 Q 269 -62 292 -69 Q 315 -76 332.5 -92.5 Q 350 -109 358.5 -131.5 Q 367 -154 367 -178 Q 367 -204 356.5 -228 Q 346 -252 328.5 -271 Q 311 -290 288.5 -303 Q 266 -316 243 -328 Q 220 -340 197.5 -352.5 Q 175 -365 155 -381 Q 135 -397 118 -416.5 Q 101 -436 89 -458.5 Q 77 -481 70.5 -506.5 Q 64 -532 64 -558 Q 64 -583 70 -608 Q 76 -633 88 -655 Q 100 -677 119 -694.5 Q 138 -712 160.5 -723.5 Q 183 -735 208.5 -739 Q 234 -743 259 -743 Q 306 -743 352 -728 Q 398 -713 436 -686 L 436 -555 L 359 -555 L 359 -649 Q 336 -661 310.5 -667 Q 285 -673 259 -673 Q 236 -673 213 -666 Q 190 -659 173.5 -642.5 Q 157 -626 149 -603 Q 141 -580 141 -557 Q 141 -531 151.5 -507 Q 162 -483 179.5 -464 Q 197 -445 219 -432 Q 241 -419 264 -407.5 Q 287 -396 309.5 -383 Q 332 -370 352.5 -354 Q 373 -338 390 -318.5 Q 407 -299 419 -276.5 Q 431 -254 437.5 -228.5 Q 444 -203 444 -178 Q 444 -152 438 -127 Q 432 -102 419 -79.5 Q 406 -57 387 -39.5 Q 368 -22 345 -11 Q 322 0 296.5 4 Q 271 8 245 8 Z " id="path1"/>
</defs>
<g>
<g data-source-text="S" fill="#20242e" transform="translate(40 104.99201) rotate(0) scale(0.09599999)">
<use href="#path1" transform="translate(0 0)"/>
</g>
</g>
</svg>