<svg xmlns="http://www.w3.org/2000/svg" height="160" viewBox="0 0 128 160" width="128"><defs><path d="M 247 8 C 229.66667 8 212.16667 6.3333335 194.50002 3 C 176.83334 -0.33333325 160.33334 -6.333334 145 -15.000001 C 129.66667 -23.666666 116 -34.666664 104.00001 -48 C 92.00001 -61.333332 82.333336 -76 75.00001 -92 C 67.666664 -107.99999 62.666668 -124.83333 60.000004 -142.5 C 57.333332 -160.16667 55.999996 -177.66667 56 -195 L 56 -540 C 55.999996 -556.6667 56.999996 -573.3334 59.000004 -590 C 61 -606.6667 65 -622.8334 71 -638.50006 C 77.00001 -654.16675 85 -668.8334 95 -682.50006 C 105 -696.1667 116.833336 -707.6667 130.5 -717 C 144.16667 -726.3333 159.16667 -733 175.5 -737 C 191.83334 -741.00006 208.33334 -743.00006 225.00002 -743.00006 C 238.33333 -743.00006 251.50002 -741.8334 264.5 -739.50006 C 277.5 -737.1667 290 -733 302 -727 C 314.00003 -721.00006 324.83334 -713.3333 334.5 -704 C 344.1667 -694.6666 352.33334 -684.3334 359.00003 -673.00006 L 359.00003 -735 L 436 -735 L 436 -554.00006 L 359.00003 -554.00006 C 359.00003 -569.3333 357 -584.5 353.00003 -599.50006 C 349 -614.5 342.00003 -627.8334 332 -639.50006 C 322.00003 -651.1667 309.6667 -659.6667 295 -665 C 280.33334 -670.3333 265.3333 -673.00006 250 -673.00006 C 238.66666 -673.00006 227.50002 -671.8334 216.50002 -669.50006 C 205.50002 -667.1666 195.33334 -663 186.00002 -657.00006 C 176.66669 -651 168.50002 -643.5 161.5 -634.5 C 154.5 -625.5 148.83334 -615.8334 144.5 -605.50006 C 140.16667 -595.1667 137.33334 -584.5 136 -573.5 C 134.66667 -562.5 134 -551.3334 134 -540 L 134 -195 C 134 -178.33333 135.83333 -161.83333 139.5 -145.50002 C 143.16667 -129.16667 150 -114.333336 160.00002 -101.00001 C 170 -87.666664 182.83331 -77.83333 198.5 -71.5 C 214.16667 -65.16667 230.33333 -62.000004 247 -62.000004 C 262.3333 -62.000004 277.3333 -64.333336 292 -69 C 306.66666 -73.66667 319.16666 -81.33333 329.5 -92 C 339.83334 -102.66667 347.50003 -115.33334 352.5 -130.00002 C 357.5 -144.66667 360 -159.33333 360.00003 -174.00002 C 360 -174.66667 360 -175.16666 360.00003 -175.5 C 360 -175.83333 360 -176 360.00003 -176 L 438.00003 -176 C 437.99997 -175.33333 437.99997 -174.83334 438.00003 -174.50002 C 437.99997 -174.16669 437.99997 -173.66669 438.00003 -173 C 437.99997 -156.33333 436 -140 432 -124.00001 C 428 -108 422.1667 -92.66667 414.5 -78 C 406.83334 -63.333336 396.8333 -50.333332 384.5 -39 C 372.1667 -27.666666 358.5 -18.333332 343.50003 -11 C 328.5 -3.6666667 312.83334 1.3333335 296.50003 4 C 280.1667 6.6666665 263.6667 8 247 8 Z " id="path1"/></defs><g><g fill="#000000" transform="translate(40 105.20961) rotate(0)"><use href="#path1" transform="translate(0 0) scale(0.09599999)"/></g></g></svg>