<svg xmlns="http://www.w3.org/2000/svg" height="160" viewBox="0 0 128 160" width="128"><defs><path d="M 49 0 L 49 -70 L 95 -70 L 95 -665 L 49 -665 L 49 -735 L 219 -735 L 219 -665 L 173 -665 L 173 -365 Q 188 -387 202 -408.5 Q 216 -430 230 -452 Q 244 -474 257 -496.5 Q 270 -519 282.5 -542 Q 295 -565 306.5 -588 Q 318 -611 327.5 -635 Q 337 -659 345 -684 Q 353 -709 353 -735 L 482 -735 L 482 -665 L 422 -665 Q 411 -631 396 -598.5 Q 381 -566 364 -534 Q 347 -502 329 -471 Q 311 -440 292 -410 Q 313 -369 333 -327.5 Q 353 -286 371.5 -243.5 Q 390 -201 406.5 -158 Q 423 -115 434 -70 L 482 -70 L 482 0 L 366 0 Q 366 -30 358.5 -59.5 Q 351 -89 341.5 -117.5 Q 332 -146 320.5 -174 Q 309 -202 296.5 -229.5 Q 284 -257 271 -284.5 Q 258 -312 245 -339 Q 227 -313 209 -288 Q 191 -263 173 -239 L 173 -70 L 219 -70 L 219 0 Z " id="path1"/></defs><g><g fill="#dee4e3" transform="translate(40 105.20961) rotate(0)"><use href="#path1" transform="translate(0 0) scale(0.09599999)"/></g></g></svg>