<?xml version="1.0" encoding="UTF-8" standalone="no"?>
<svg height="160" viewBox="0 0 128 160" width="128" xmlns="http://www.w3.org/2000/svg">
<defs>
<path d="M 214 8 Q 184 8 153.5 0 Q 123 -8 100 -28.5 Q 77 -49 66.5 -78.5 Q 56 -108 56 -139 Q 56 -164 62.5 -189 Q 69 -214 84.5 -234.5 Q 100 -255 122 -269 Q 144 -283 168 -291.5 Q 192 -300 217.5 -303 Q 243 -306 269 -306 L 358 -306 L 358 -355 Q 358 -377 350 -398 Q 342 -419 325.5 -433 Q 309 -447 287 -452.5 Q 265 -458 243 -458 Q 214 -458 186 -450.5 Q 158 -443 133 -429 L 133 -375 L 64 -375 L 64 -471 Q 103 -498 149 -513 Q 195 -528 243 -528 Q 268 -528 292.5 -524.5 Q 317 -521 339.5 -511.5 Q 362 -502 381 -486 Q 400 -470 413 -449 Q 426 -428 431 -403.5 Q 436 -379 436 -355 L 436 -70 L 482 -70 L 482 0 L 358 0 L 358 -86 Q 350 -65 335.5 -46.5 Q 321 -28 302 -15 Q 283 -2 260 3 Q 237 8 214 8 Z M 245 -62 Q 269 -62 291.5 -69.5 Q 314 -77 329.5 -94 Q 345 -111 351.5 -134 Q 358 -157 358 -180 L 358 -236 L 269 -236 Q 253 -236 238 -234.5 Q 223 -233 208.5 -229 Q 194 -225 180 -218.5 Q 166 -212 155 -201 Q 144 -190 139 -175.5 Q 134 -161 134 -146 Q 134 -126 143.5 -108 Q 153 -90 169.5 -79.5 Q 186 -69 206 -65.5 Q 226 -62 245 -62 Z " id="path1"/>
</defs>
<g>
<g data-source-text="а" fill="#20242e" transform="translate(40 104.99201) rotate(0) scale(0.09599999)">
<use href="#path1" transform="translate(0 0)"/>
</g>
</g>
</svg>