<?xml version="1.0" encoding="UTF-8" standalone="no"?>
<svg height="160" viewBox="0 0 128 160" width="128" xmlns="http://www.w3.org/2000/svg">
<defs>
<path d="M 136 0 Q 125 -45 115.5 -91 Q 106 -137 97 -182.5 Q 88 -228 80 -274 Q 72 -320 65 -366 Q 58 -412 53 -458.5 Q 48 -505 48 -551 L 48 -735 L 126 -735 L 126 -551 Q 126 -494 130 -436.5 Q 134 -379 139.5 -321.5 Q 145 -264 151.5 -206.5 Q 158 -149 165 -92 L 223 -441 L 277 -441 L 335 -92 Q 342 -149 348.5 -206.5 Q 355 -264 360.5 -321.5 Q 366 -379 370 -436.5 Q 374 -494 374 -551 L 374 -735 L 452 -735 L 452 -551 Q 452 -505 447 -458.5 Q 442 -412 435 -366 Q 428 -320 420 -274 Q 412 -228 403 -182.5 Q 394 -137 384.5 -91 Q 375 -45 364 0 L 310 0 L 250 -360 L 190 0 Z " id="path1"/>
</defs>
<g>
<g data-source-text="W" fill="#dee4e3" transform="translate(40 104.99201) rotate(0) scale(0.09599999)">
<use href="#path1" transform="translate(0 0)"/>
</g>
</g>
</svg>