<svg xmlns="http://www.w3.org/2000/svg" height="160" viewBox="0 0 128 160" width="128"><defs><path d="M 247 8 C 229.66667 8 212.5 6.1666665 195.5 2.5000002 C 178.5 -1.1666665 162.66666 -7.5 148 -16.5 C 133.33333 -25.5 120.33333 -36.666668 109 -50.000004 C 97.666664 -63.333336 88.666664 -78 82.00001 -94.00001 C 75.333336 -110 70.66667 -126.49999 68 -143.5 C 65.333336 -160.5 64 -177.66667 64 -195 L 64 -665 L 18.000002 -665 L 18.000002 -735 L 142 -735 L 142 -195 C 142 -178.99998 143.66667 -163 147.00002 -147.00002 C 150.33334 -131 156.5 -116.333336 165.50002 -103.00001 C 174.5 -89.666664 186.66667 -79.5 202.00002 -72.5 C 217.33334 -65.5 233 -62.000004 249 -62.000004 C 267.66666 -62.000004 286.1667 -64.66667 304.5 -70.00001 C 322.83334 -75.333336 340.66666 -81.666664 358 -89 L 358 -735 L 482 -735 L 482 -665 L 436 -665 L 436 -46 C 406.6667 -30 376.00003 -16.999998 344.00003 -7 C 312 2.9999998 279.66666 8 247 8 Z " id="path1"/></defs><g><g fill="#000000" transform="translate(40 105.20961) rotate(0)"><use href="#path1" transform="translate(0 0) scale(0.09599999)"/></g></g></svg>