<?xml version="1.0" encoding="UTF-8" standalone="no"?>
<svg height="160" viewBox="0 0 128 160" width="128" xmlns="http://www.w3.org/2000/svg">
<defs>
<path d="M 205 0 Q 189 -54 173 -108.5 Q 157 -163 142.5 -217.5 Q 128 -272 115 -327 Q 102 -382 91 -437.5 Q 80 -493 72 -549 Q 64 -605 64 -662 L 64 -665 L 18 -665 L 18 -735 L 142 -735 L 142 -662 Q 142 -611 148 -561.5 Q 154 -512 162 -462.5 Q 170 -413 180 -364 Q 190 -315 201.5 -266 Q 213 -217 225 -168.5 Q 237 -120 250 -71 Q 263 -120 275 -168.5 Q 287 -217 298.5 -266 Q 310 -315 320 -364 Q 330 -413 338 -462.5 Q 346 -512 352 -561.5 Q 358 -611 358 -662 L 358 -735 L 436 -735 L 436 -662 Q 436 -605 428 -549 Q 420 -493 409 -437.5 Q 398 -382 385 -327 Q 372 -272 357.5 -217.5 Q 343 -163 327 -108.5 Q 311 -54 295 0 Z " id="path1"/>
</defs>
<g>
<g data-source-text="V" fill="#20242e" transform="translate(40 104.99201) rotate(0) scale(0.09599999)">
<use href="#path1" transform="translate(0 0)"/>
</g>
</g>
</svg>