<?xml version="1.0" encoding="UTF-8" standalone="no"?>
<svg height="160" viewBox="0 0 128 160" width="128" xmlns="http://www.w3.org/2000/svg">
<defs>
<path d="M 255 8 Q 205 8 156.5 -6.5 Q 108 -21 64 -46 L 64 -188 L 141 -188 L 141 -88 Q 168 -77 196 -69.5 Q 224 -62 253 -62 Q 276 -62 298 -69.5 Q 320 -77 335.5 -93.5 Q 351 -110 359 -132 Q 367 -154 367 -177 Q 367 -202 356 -226.5 Q 345 -251 327.5 -269.5 Q 310 -288 288 -301.5 Q 266 -315 243.5 -327.5 Q 221 -340 199 -353.5 Q 177 -367 156.5 -383 Q 136 -399 119 -418.5 Q 102 -438 89.5 -460.5 Q 77 -483 70.5 -508 Q 64 -533 64 -559 Q 64 -583 69.5 -607 Q 75 -631 86 -652.5 Q 97 -674 114 -692 Q 131 -710 152.5 -721.5 Q 174 -733 198 -738 Q 222 -743 246 -743 Q 296 -743 344 -728 Q 392 -713 436 -689 L 436 -555 L 359 -555 L 359 -646 Q 332 -657 304.5 -665 Q 277 -673 248 -673 Q 226 -673 205 -665 Q 184 -657 169.5 -640.5 Q 155 -624 148 -602.5 Q 141 -581 141 -559 Q 141 -533 151.5 -509 Q 162 -485 179.5 -466 Q 197 -447 219.5 -433.5 Q 242 -420 264.5 -407.5 Q 287 -395 309 -382 Q 331 -369 351 -352.5 Q 371 -336 388.5 -317 Q 406 -298 418.5 -275.5 Q 431 -253 437.5 -227.5 Q 444 -202 444 -177 Q 444 -152 438 -127.5 Q 432 -103 420.5 -81 Q 409 -59 391 -41.5 Q 373 -24 351 -13 Q 329 -2 304.5 3 Q 280 8 255 8 Z " id="path1"/>
</defs>
<g>
<g data-source-text="S" fill="#20242e" transform="translate(40 104.99201) rotate(0) scale(0.09599999)">
<use href="#path1" transform="translate(0 0)"/>
</g>
</g>
</svg>