<?xml version="1.0" encoding="UTF-8" standalone="no"?>
<svg height="160" viewBox="0 0 128 160" width="128" xmlns="http://www.w3.org/2000/svg">
<defs>
<path d="M 64 215 L 64 145 L 120 145 Q 139 145 157.5 138.5 Q 176 132 188.5 117.5 Q 201 103 206 84 Q 211 65 211 46 L 211 0 L 200 0 Q 176 0 152.5 -6.5 Q 129 -13 110 -27.5 Q 91 -42 77.5 -62 Q 64 -82 56 -105 Q 48 -128 45.5 -152 Q 43 -176 43 -200 L 43 -320 Q 43 -344 45.5 -368 Q 48 -392 56 -415 Q 64 -438 77.5 -458 Q 91 -478 110 -492.5 Q 129 -507 152.5 -513.5 Q 176 -520 200 -520 L 211 -520 L 211 -566 Q 211 -589 215 -611.5 Q 219 -634 229 -654 Q 239 -674 255.5 -690.5 Q 272 -707 292 -717 Q 312 -727 334.5 -731 Q 357 -735 380 -735 L 436 -735 L 436 -665 L 380 -665 Q 361 -665 342.5 -658.5 Q 324 -652 311.5 -637.5 Q 299 -623 294 -604 Q 289 -585 289 -566 L 289 -520 L 300 -520 Q 324 -520 347.5 -513.5 Q 371 -507 390 -492.5 Q 409 -478 422.5 -458 Q 436 -438 444 -415 Q 452 -392 454.5 -368 Q 457 -344 457 -320 L 457 -200 Q 457 -176 454.5 -152 Q 452 -128 444 -105 Q 436 -82 422.5 -62 Q 409 -42 390 -27.5 Q 371 -13 347.5 -6.5 Q 324 0 300 0 L 289 0 L 289 46 Q 289 69 285 91.5 Q 281 114 271 134 Q 261 154 244.5 170.5 Q 228 187 208 197 Q 188 207 165.5 211 Q 143 215 120 215 Z M 200 -65 L 214 -65 L 214 -455 L 200 -455 Q 185 -455 171 -449 Q 157 -443 147 -432 Q 137 -421 131 -407.5 Q 125 -394 121.5 -379.5 Q 118 -365 116.5 -350 Q 115 -335 115 -320 L 115 -200 Q 115 -185 116.5 -170 Q 118 -155 121.5 -140.5 Q 125 -126 131 -112.5 Q 137 -99 147 -88 Q 157 -77 171 -71 Q 185 -65 200 -65 Z M 286 -65 L 300 -65 Q 315 -65 329 -71 Q 343 -77 353 -88 Q 363 -99 369 -112.5 Q 375 -126 378.5 -140.5 Q 382 -155 383.5 -170 Q 385 -185 385 -200 L 385 -320 Q 385 -335 383.5 -350 Q 382 -365 378.5 -379.5 Q 375 -394 369 -407.5 Q 363 -421 353 -432 Q 343 -443 329 -449 Q 315 -455 300 -455 L 286 -455 Z " id="path1"/>
</defs>
<g>
<g data-source-text="ф" fill="#dee4e3" transform="translate(40 104.99201) rotate(0) scale(0.09599999)">
<use href="#path1" transform="translate(0 0)"/>
</g>
</g>
</svg>