<?xml version="1.0" encoding="UTF-8" standalone="no"?>
<svg height="160" viewBox="0 0 128 160" width="128" xmlns="http://www.w3.org/2000/svg">
<defs>
<path d="M 252 8 Q 202 8 153.5 -7 Q 105 -22 64 -49 L 64 -135 L 141 -135 L 141 -88 Q 167 -75 195 -68.5 Q 223 -62 252 -62 Q 273 -62 294.5 -65.5 Q 316 -69 334.5 -80 Q 353 -91 363.5 -110.5 Q 374 -130 374 -151 Q 374 -165 369.5 -178.5 Q 365 -192 355 -202 Q 345 -212 332.5 -218.5 Q 320 -225 306 -229 Q 292 -233 278 -234 Q 264 -235 250 -235 L 194 -235 L 194 -305 L 250 -305 Q 262 -305 274.5 -306.5 Q 287 -308 299 -311 Q 311 -314 322 -320 Q 333 -326 341.5 -335 Q 350 -344 354 -356 Q 358 -368 358 -380 Q 358 -399 349 -415.5 Q 340 -432 324 -441.5 Q 308 -451 289.5 -454.5 Q 271 -458 253 -458 Q 235 -458 217.5 -455 Q 200 -452 184.5 -444 Q 169 -436 158.5 -420.5 Q 148 -405 148 -388 L 148 -385 L 70 -385 L 70 -390 Q 70 -412 77 -432.5 Q 84 -453 97.5 -470 Q 111 -487 129.5 -498.5 Q 148 -510 168.5 -516.5 Q 189 -523 210.5 -525.5 Q 232 -528 253 -528 Q 275 -528 297 -525.5 Q 319 -523 340 -515.5 Q 361 -508 379.5 -495 Q 398 -482 411 -464.5 Q 424 -447 430 -425 Q 436 -403 436 -381 Q 436 -363 432 -345.5 Q 428 -328 417.5 -313.5 Q 407 -299 392 -288.5 Q 377 -278 361 -271 Q 380 -264 397.5 -253 Q 415 -242 428 -226 Q 441 -210 446.5 -190 Q 452 -170 452 -150 Q 452 -126 445.5 -102.5 Q 439 -79 424.5 -59.5 Q 410 -40 389.5 -26.5 Q 369 -13 346.5 -5.5 Q 324 2 300 5 Q 276 8 252 8 Z " id="path1"/>
</defs>
<g>
<g data-source-text="ли" fill="#20242e" transform="translate(40 104.99201) rotate(0) scale(0.09599999)">
<use href="#path1" transform="translate(0 0)"/>
</g>
</g>
</svg>