<?xml version="1.0" encoding="UTF-8" standalone="no"?>
<svg height="160" viewBox="0 0 128 160" width="128" xmlns="http://www.w3.org/2000/svg">
<defs>
<path d="M 277 8 Q 255 8 233.5 4 Q 212 -0 193 -10 Q 174 -20 159 -35.5 Q 144 -51 133 -69 L 133 0 L 64 0 L 64 -180 L 133 -180 Q 133 -156 140 -133 Q 147 -110 163.5 -93 Q 180 -76 203 -69 Q 226 -62 250 -62 Q 273 -62 295.5 -69 Q 318 -76 334.5 -92.5 Q 351 -109 359 -131.5 Q 367 -154 367 -178 Q 367 -203 356.5 -227.5 Q 346 -252 328.5 -271 Q 311 -290 288.5 -303.5 Q 266 -317 243 -328.5 Q 220 -340 197.5 -352.5 Q 175 -365 154.5 -381.5 Q 134 -398 117 -417.5 Q 100 -437 88 -460 Q 76 -483 70 -508.5 Q 64 -534 64 -560 Q 64 -583 68.5 -605.5 Q 73 -628 82 -649.5 Q 91 -671 105.5 -689.5 Q 120 -708 139.5 -720.5 Q 159 -733 181.5 -738 Q 204 -743 227 -743 Q 248 -743 269 -739 Q 290 -735 308.5 -725 Q 327 -715 342 -700 Q 357 -685 367 -667 L 367 -735 L 436 -735 L 436 -555 L 367 -555 Q 367 -578 360.5 -601 Q 354 -624 338.5 -641 Q 323 -658 300 -665.5 Q 277 -673 254 -673 Q 231 -673 209 -665.5 Q 187 -658 171.5 -641.5 Q 156 -625 148.5 -602.5 Q 141 -580 141 -558 Q 141 -532 151.5 -507.5 Q 162 -483 179.5 -464 Q 197 -445 219.5 -432 Q 242 -419 265 -407 Q 288 -395 310.5 -382.5 Q 333 -370 353.5 -354 Q 374 -338 391 -318 Q 408 -298 420 -275 Q 432 -252 438 -227 Q 444 -202 444 -176 Q 444 -152 439.5 -129 Q 435 -106 425.5 -84.5 Q 416 -63 401 -45 Q 386 -27 366 -14.5 Q 346 -2 323 3 Q 300 8 277 8 Z " id="path1"/>
</defs>
<g>
<g data-source-text="S" fill="#20242e" transform="translate(40 104.99201) rotate(0) scale(0.09599999)">
<use href="#path1" transform="translate(0 0)"/>
</g>
</g>
</svg>