<?xml version="1.0" encoding="UTF-8" standalone="no"?>
<svg height="160" viewBox="0 0 128 160" width="128" xmlns="http://www.w3.org/2000/svg">
<defs>
<path d="M 280 8 Q 260 8 239.5 5.5 Q 219 3 199.5 -4 Q 180 -11 162.5 -23 Q 145 -35 133 -52 L 133 0 L 64 0 L 64 -135 L 133 -135 Q 133 -122 138.5 -109.5 Q 144 -97 154 -88.5 Q 164 -80 176.5 -75 Q 189 -70 201.5 -67 Q 214 -64 227.5 -63 Q 241 -62 254 -62 Q 275 -62 296 -66 Q 317 -70 335 -80.5 Q 353 -91 363.5 -110 Q 374 -129 374 -151 Q 374 -165 369.5 -178.5 Q 365 -192 355 -202 Q 345 -212 332.5 -218.5 Q 320 -225 306 -229 Q 292 -233 278 -234 Q 264 -235 250 -235 L 194 -235 L 194 -305 L 250 -305 Q 262 -305 274.5 -306.5 Q 287 -308 299 -311 Q 311 -314 322 -320 Q 333 -326 341.5 -334.5 Q 350 -343 354 -355 Q 358 -367 358 -379 Q 358 -392 354 -404.5 Q 350 -417 341 -426.5 Q 332 -436 320.5 -442 Q 309 -448 296.5 -451.5 Q 284 -455 271.5 -456.5 Q 259 -458 246 -458 Q 233 -458 220.5 -457 Q 208 -456 196 -453 Q 184 -450 172.5 -444.5 Q 161 -439 152 -430 Q 143 -421 138 -409.5 Q 133 -398 133 -385 L 64 -385 L 64 -520 L 133 -520 L 133 -470 Q 145 -486 161 -497.5 Q 177 -509 195.5 -516 Q 214 -523 233.5 -525.5 Q 253 -528 273 -528 Q 304 -528 334.5 -520 Q 365 -512 389 -492 Q 413 -472 424.5 -442.5 Q 436 -413 436 -382 Q 436 -364 432 -346.5 Q 428 -329 417.5 -314.5 Q 407 -300 392 -289.5 Q 377 -279 361 -272 Q 380 -264 397.5 -253 Q 415 -242 428 -226 Q 441 -210 446.5 -189.5 Q 452 -169 452 -148 Q 452 -126 447 -104.5 Q 442 -83 431 -64 Q 420 -45 403 -30.5 Q 386 -16 366 -7.5 Q 346 1 324 4.5 Q 302 8 280 8 Z " id="path1"/>
</defs>
<g>
<g data-source-text="ли" fill="#20242e" transform="translate(40 104.99201) rotate(0) scale(0.09599999)">
<use href="#path1" transform="translate(0 0)"/>
</g>
</g>
</svg>