<?xml version="1.0" encoding="UTF-8" standalone="no"?>
<svg height="160" viewBox="0 0 128 160" width="128" xmlns="http://www.w3.org/2000/svg">
<defs>
<path d="M 35 0 Q 35 -53 45 -105.5 Q 55 -158 68 -209.5 Q 81 -261 96.5 -311.5 Q 112 -362 129 -413 Q 110 -451 94 -490 Q 78 -529 65 -569 Q 52 -609 43.5 -651 Q 35 -693 35 -735 L 105 -735 Q 105 -690 115.5 -646 Q 126 -602 140.5 -559 Q 155 -516 173.5 -475 Q 192 -434 215 -395 L 215 -735 L 285 -735 L 285 -395 Q 308 -434 326.5 -475 Q 345 -516 359.5 -559 Q 374 -602 384.5 -646 Q 395 -690 395 -735 L 465 -735 Q 465 -693 456.5 -651 Q 448 -609 435 -569 Q 422 -529 406 -490 Q 390 -451 371 -413 Q 388 -362 403.5 -311.5 Q 419 -261 432 -209.5 Q 445 -158 455 -105.5 Q 465 -53 465 0 L 395 0 Q 395 -43 388 -85 Q 381 -127 371.5 -168.5 Q 362 -210 350 -251 Q 338 -292 325 -333 Q 316 -318 306 -303.5 Q 296 -289 285 -276 L 285 0 L 215 0 L 215 -276 Q 204 -289 194 -303.5 Q 184 -318 175 -333 Q 162 -292 150 -251 Q 138 -210 128.5 -168.5 Q 119 -127 112 -85 Q 105 -43 105 0 Z " id="path1"/>
</defs>
<g>
<g data-source-text="Ж" fill="#20242e" transform="translate(40 104.99201) rotate(0) scale(0.09599999)">
<use href="#path1" transform="translate(0 0)"/>
</g>
</g>
</svg>