<?xml version="1.0" encoding="UTF-8" standalone="no"?>
<svg height="160" viewBox="0 0 128 160" width="128" xmlns="http://www.w3.org/2000/svg">
<defs>
<path d="M 64 0 L 64 -520 Q 64 -547 67.5 -574 Q 71 -601 81 -626 Q 91 -651 108 -672.5 Q 125 -694 147.5 -708.5 Q 170 -723 196.5 -729 Q 223 -735 250 -735 L 428 -735 L 428 -665 L 299 -423 Q 333 -414 363 -395.5 Q 393 -377 414 -348.5 Q 435 -320 443.5 -285.5 Q 452 -251 452 -216 Q 452 -186 446 -156 Q 440 -126 425 -99.5 Q 410 -73 386.5 -53 Q 363 -33 335.5 -21 Q 308 -9 277.5 -4.5 Q 247 -0 217 0 L 176 0 L 176 -70 L 217 -70 Q 238 -70 258 -73 Q 278 -76 296.5 -84.5 Q 315 -93 330.5 -106.5 Q 346 -120 356 -137.5 Q 366 -155 370 -175.5 Q 374 -196 374 -216 Q 374 -245 364.5 -273.5 Q 355 -302 334 -322.5 Q 313 -343 284.5 -352.5 Q 256 -362 226 -362 L 217 -362 L 217 -432 L 342 -665 L 250 -665 Q 233 -665 216.5 -660 Q 200 -655 186.5 -644 Q 173 -633 164.5 -618.5 Q 156 -604 150.5 -587.5 Q 145 -571 143.5 -554 Q 142 -537 142 -520 L 142 0 Z " id="path1"/>
</defs>
<g>
<g data-source-text="ẞ" fill="#dee4e3" transform="translate(40 104.99201) rotate(0) scale(0.09599999)">
<use href="#path1" transform="translate(0 0)"/>
</g>
</g>
</svg>