<?xml version="1.0" encoding="UTF-8" standalone="no"?>
<svg height="160" viewBox="0 0 128 160" width="128" xmlns="http://www.w3.org/2000/svg">
<defs>
<path d="M 18 0 L 18 -70 L 64 -70 L 64 -665 L 18 -665 L 18 -735 L 188 -735 L 188 -665 L 142 -665 L 142 -342 Q 166 -371 190 -401 Q 214 -431 236.5 -461.5 Q 259 -492 279.5 -524 Q 300 -556 317.5 -590 Q 335 -624 346.5 -660.5 Q 358 -697 358 -735 L 482 -735 L 482 -665 L 426 -665 Q 416 -629 400 -594.5 Q 384 -560 364.5 -528 Q 345 -496 323 -465 Q 301 -434 278 -404 Q 302 -365 325 -324.5 Q 348 -284 368.5 -242.5 Q 389 -201 406.5 -158 Q 424 -115 435 -70 L 482 -70 L 482 0 L 366 0 Q 366 -31 359 -61.5 Q 352 -92 341.5 -121.5 Q 331 -151 318.5 -180 Q 306 -209 292 -237 Q 278 -265 263 -292.5 Q 248 -320 232 -347 Q 210 -319 187 -292.5 Q 164 -266 142 -239 L 142 -70 L 188 -70 L 188 0 Z " id="path1"/>
</defs>
<g>
<g data-source-text="К" fill="#20242e" transform="translate(40 104.99201) rotate(0) scale(0.09599999)">
<use href="#path1" transform="translate(0 0)"/>
</g>
</g>
</svg>