<svg xmlns="http://www.w3.org/2000/svg" height="160" viewBox="0 0 128 160" width="128"><defs><path d="M 44 0 L 190 -665 L 109 -665 L 109 -735 L 295 -735 L 349.00003 -490.00003 L 456.00003 0 L 376.00003 0 L 337.00003 -190 L 163 -190 L 124.00001 0 Z M 323 -260.00003 L 276 -490.00003 C 271.3333 -511.3333 266.8333 -532.6667 262.50003 -554.00006 C 258.1667 -575.3333 254 -596.6667 250 -618 C 246 -596.6667 241.83334 -575.3333 237.50002 -554.00006 C 233.16666 -532.6667 228.66667 -511.3333 224 -490.00003 L 177.00002 -260.00003 Z " id="path1"/></defs><g><g fill="#ffffff" transform="translate(40 105.20961) rotate(0)"><use href="#path1" transform="translate(0 0) scale(0.09599999)"/></g></g></svg>