<svg xmlns="http://www.w3.org/2000/svg" height="160" viewBox="0 0 128 160" width="128"><defs><path d="M 381 165 Q 359 165 337.5 161.5 Q 316 158 296.5 148.5 Q 277 139 261 123.5 Q 245 108 235 89 Q 225 70 220.5 49 Q 216 28 216 6 Q 192 3 169.5 -5 Q 147 -13 128 -27 Q 109 -41 94.5 -60.5 Q 80 -80 71 -102 Q 62 -124 59 -147.5 Q 56 -171 56 -195 L 56 -540 Q 56 -567 60.5 -593.5 Q 65 -620 76 -644 Q 87 -668 105.5 -688 Q 124 -708 147.5 -720.5 Q 171 -733 197 -739.5 Q 223 -746 250 -746 Q 277 -746 303 -739.5 Q 329 -733 352.5 -720.5 Q 376 -708 394.5 -688 Q 413 -668 424 -644 Q 435 -620 439.5 -593.5 Q 444 -567 444 -540 L 444 -195 Q 444 -172 441 -149 Q 438 -126 430 -104.5 Q 422 -83 408.5 -64 Q 395 -45 377 -30.5 Q 359 -16 337.5 -7.5 Q 316 1 293 5 Q 294 23 299 40 Q 304 57 316 70 Q 328 83 345.5 89 Q 363 95 381 95 L 420 95 L 420 165 Z M 250 -62 Q 267 -62 283.5 -65.5 Q 300 -69 314 -78 Q 328 -87 338.5 -100.5 Q 349 -114 355.5 -129.5 Q 362 -145 364 -161.5 Q 366 -178 366 -195 L 366 -540 Q 366 -557 364 -573.5 Q 362 -590 355.5 -606 Q 349 -622 338.5 -635.5 Q 328 -649 313.5 -657.5 Q 299 -666 282 -669.5 Q 265 -673 248 -673 Q 232 -673 215.5 -669 Q 199 -665 185 -656 Q 171 -647 161 -633.5 Q 151 -620 144.5 -605 Q 138 -590 136 -573.5 Q 134 -557 134 -540 L 134 -195 Q 134 -178 136 -161.5 Q 138 -145 144.5 -129.5 Q 151 -114 161.5 -100.5 Q 172 -87 186 -78 Q 200 -69 216.5 -65.5 Q 233 -62 250 -62 Z " id="path1"/></defs><g><g fill="#20242e" transform="translate(40 105.20961) rotate(0)"><use href="#path1" transform="translate(0 0) scale(0.09599999)"/></g></g></svg>