<?xml version="1.0" encoding="UTF-8" standalone="no"?>
<svg height="160" viewBox="0 0 128 160" width="128" xmlns="http://www.w3.org/2000/svg">
<defs>
<path d="M 377 0 L 377 -520 L 449 -520 L 449 0 Z M 184 8 Q 164 8 144 3 Q 124 -2 108 -14.5 Q 92 -27 80.5 -44 Q 69 -61 62.5 -80 Q 56 -99 53.5 -119 Q 51 -139 51 -159 L 51 -520 L 123 -520 L 123 -259 Q 129 -273 137 -285.5 Q 145 -298 156.5 -307.5 Q 168 -317 182.5 -322 Q 197 -327 212 -327 Q 230 -327 247.5 -319.5 Q 265 -312 277 -298.5 Q 289 -285 297 -268.5 Q 305 -252 309 -234 Q 313 -216 315 -198 Q 317 -180 317 -162 Q 317 -141 314.5 -121 Q 312 -101 306 -81.5 Q 300 -62 288.5 -44.5 Q 277 -27 260.5 -15 Q 244 -3 224 2.5 Q 204 8 184 8 Z M 184 -57 Q 195 -57 205 -62 Q 215 -67 222.5 -75.5 Q 230 -84 234 -94.5 Q 238 -105 240.5 -115.5 Q 243 -126 244 -137 Q 245 -148 245 -159 Q 245 -171 244 -182 Q 243 -193 240.5 -203.5 Q 238 -214 233.5 -224.5 Q 229 -235 222 -243.5 Q 215 -252 205 -256.5 Q 195 -261 184 -261 Q 173 -261 162.5 -256.5 Q 152 -252 145 -243.5 Q 138 -235 134 -224.5 Q 130 -214 127.5 -203 Q 125 -192 124 -181 Q 123 -170 123 -159 Q 123 -148 124 -137 Q 125 -126 127.5 -115.5 Q 130 -105 134 -94.5 Q 138 -84 145 -75.5 Q 152 -67 162.5 -62 Q 173 -57 184 -57 Z " id="path1"/>
</defs>
<g>
<g data-source-text="ы" fill="#dee4e3" transform="translate(40 104.99201) rotate(0) scale(0.09599999)">
<use href="#path1" transform="translate(0 0)"/>
</g>
</g>
</svg>