<?xml version="1.0" encoding="UTF-8" standalone="no"?>
<svg height="160" viewBox="0 0 128 160" width="128" xmlns="http://www.w3.org/2000/svg">
<defs>
<path d="M 211 107 L 211 6 Q 188 3 165.5 -6 Q 143 -15 124.5 -30 Q 106 -45 92.5 -64.5 Q 79 -84 70.5 -106.5 Q 62 -129 59 -152.5 Q 56 -176 56 -200 L 56 -320 Q 56 -344 59 -367.5 Q 62 -391 70.5 -413.5 Q 79 -436 92.5 -455.5 Q 106 -475 124.5 -490 Q 143 -505 165.5 -514 Q 188 -523 211 -526 L 211 -628 L 289 -628 L 289 -525 Q 321 -521 350 -505.5 Q 379 -490 399 -465 Q 419 -440 428.5 -408.5 Q 438 -377 438 -345 L 438 -340 L 360 -340 L 360 -343 Q 360 -362 355.5 -380 Q 351 -398 341 -413 Q 331 -428 315.5 -439 Q 300 -450 282 -454 L 281 -293 L 219 -293 L 218 -455 Q 197 -450 179.5 -436.5 Q 162 -423 151.5 -404 Q 141 -385 137.5 -363.5 Q 134 -342 134 -320 L 134 -200 Q 134 -178 137.5 -156.5 Q 141 -135 151.5 -116 Q 162 -97 179.5 -83.5 Q 197 -70 218 -65 L 219 -227 L 281 -227 L 282 -66 Q 300 -70 315.5 -81 Q 331 -92 341 -107 Q 351 -122 355.5 -140 Q 360 -158 360 -177 L 360 -180 L 438 -180 L 438 -175 Q 438 -143 428.5 -111.5 Q 419 -80 399 -55 Q 379 -30 350 -14.5 Q 321 1 289 5 L 289 107 Z " id="path1"/>
</defs>
<g>
<g data-source-text="¢" fill="#20242e" transform="translate(40 104.99201) rotate(0) scale(0.09599999)">
<use href="#path1" transform="translate(0 0)"/>
</g>
</g>
</svg>