<?xml version="1.0" encoding="UTF-8" standalone="no"?>
<svg height="160" viewBox="0 0 128 160" width="128" xmlns="http://www.w3.org/2000/svg">
<defs>
<path d="M 18 0 L 18 -70 L 64 -70 L 64 -665 L 18 -665 L 18 -735 L 256 -735 Q 283 -735 309.5 -729 Q 336 -723 359 -708.5 Q 382 -694 399 -672.5 Q 416 -651 426.5 -626 Q 437 -601 440.5 -574 Q 444 -547 444 -520 Q 444 -486 438 -453 Q 432 -420 416 -391 Q 400 -362 373.5 -341 Q 347 -320 315 -311 Q 333 -283 349.5 -254 Q 366 -225 380.5 -195 Q 395 -165 406.5 -134 Q 418 -103 425 -70 L 490 -70 L 490 0 L 356 0 Q 356 -42 343.5 -82.5 Q 331 -123 313.5 -160.5 Q 296 -198 274.5 -234 Q 253 -270 229 -304 L 199 -304 L 199 -374 L 256 -374 Q 273 -374 290 -379 Q 307 -384 320.5 -394.5 Q 334 -405 343 -420 Q 352 -435 357 -451.5 Q 362 -468 364 -485 Q 366 -502 366 -520 Q 366 -537 364 -554 Q 362 -571 357 -587.5 Q 352 -604 343 -619 Q 334 -634 320.5 -644.5 Q 307 -655 290 -660 Q 273 -665 256 -665 L 142 -665 L 142 -70 L 188 -70 L 188 0 Z " id="path1"/>
</defs>
<g>
<g data-source-text="R" fill="#20242e" transform="translate(40 104.99201) rotate(0) scale(0.09599999)">
<use href="#path1" transform="translate(0 0)"/>
</g>
</g>
</svg>