<?xml version="1.0" encoding="UTF-8" standalone="no"?>
<svg xmlns="http://www.w3.org/2000/svg" height="160" viewBox="0 0 128 160" width="128"><defs><path d="M 246 8 Q 220 8 194 2.5 Q 168 -3 145 -16 Q 122 -29 104 -49 Q 86 -69 75 -93 Q 64 -117 60 -143 Q 56 -169 56 -195 L 56 -540 Q 56 -565 59 -590 Q 62 -615 71 -638.5 Q 80 -662 95 -682.5 Q 110 -703 130.5 -717 Q 151 -731 175.5 -737 Q 200 -743 225 -743 Q 225 -743 225 -743 Q 225 -743 225 -743 Q 245 -743 264.5 -739.5 Q 284 -736 302 -727 Q 320 -718 334.5 -704 Q 349 -690 359 -673 L 359 -735 L 436 -735 L 436 -554 L 359 -554 Q 359 -577 353 -599.5 Q 347 -622 332 -639.5 Q 317 -657 295 -665 Q 273 -673 250 -673 Q 233 -673 216.5 -669.5 Q 200 -666 186 -657 Q 172 -648 161.5 -634.5 Q 151 -621 144.5 -605.5 Q 138 -590 136 -573.5 Q 134 -557 134 -540 L 134 -195 Q 134 -178 136 -161.5 Q 138 -145 144 -130 Q 150 -115 160.5 -101.5 Q 171 -88 185 -79 Q 199 -70 215 -66 Q 231 -62 248 -62 Q 276 -62 304 -69.5 Q 332 -77 358 -88 L 358 -330 L 250 -330 L 250 -400 L 476 -400 L 476 -330 L 436 -330 L 436 -46 Q 392 -21 344 -6.5 Q 296 8 246 8 Z " id="path1"/></defs><g><g data-source-text="G" fill="#dee4e3" transform="translate(40 104.99201) rotate(0) scale(0.09599999)"><use href="#path1" transform="translate(0 0)"/></g></g></svg>