<svg xmlns="http://www.w3.org/2000/svg" height="160" viewBox="0 0 128 160" width="128"><defs><path d="M 64 0 L 64 -46 C 64 -83.33333 69.666664 -120 81 -156 C 92.333336 -192 108.333336 -225.33334 129 -256 L 203.00002 -365.00003 L 105 -405.00003 L 132 -465 L 241 -421.00003 L 306 -518 C 320.66666 -540 332.33334 -563.5 341 -588.50006 C 349.6667 -613.5 355.00003 -639.00006 357 -665 L 141 -665 L 141 -590 L 64 -590 L 64 -735 L 436 -735 L 436 -689 C 435.99997 -651.6667 430.3333 -615 419 -579 C 407.66666 -543 391.66666 -509.6667 371.00003 -479.00003 L 312 -393.00003 L 395.00003 -360.00003 L 368 -300.00003 L 275 -337.00003 L 194.00002 -217.00002 C 179.33333 -195 167.66667 -171.5 159 -146.5 C 150.33333 -121.5 145 -96 143 -70.00001 L 359.00003 -70.00001 L 359.00003 -145 L 436 -145 L 436 0 Z " id="path1"/></defs><g><g fill="#000000" transform="translate(40 105.20961) rotate(0)"><use href="#path1" transform="translate(0 0) scale(0.09599999)"/></g></g></svg>