<svg xmlns="http://www.w3.org/2000/svg" height="160" viewBox="0 0 128 160" width="128"><defs><path d="M 64 0 L 64 -520 L 142 -520 L 142 -261 L 142 -261 Q 159 -275 176 -288.5 Q 193 -302 209.5 -316 Q 226 -330 242 -344.5 Q 258 -359 273 -374.5 Q 288 -390 302.5 -406 Q 317 -422 329 -440 Q 341 -458 349.5 -478 Q 358 -498 358 -520 L 436 -520 Q 436 -496 427.5 -473.5 Q 419 -451 406.5 -431 Q 394 -411 379.5 -392.5 Q 365 -374 349 -356.5 Q 333 -339 316 -322 Q 299 -305 281 -289 Q 303 -264 323 -238 Q 343 -212 362 -185 Q 381 -158 398 -129.5 Q 415 -101 428 -70 L 482 -70 L 482 0 L 366 0 Q 366 -24 357.5 -46 Q 349 -68 338 -89 Q 327 -110 314 -130 Q 301 -150 287 -169 Q 273 -188 258.5 -206 Q 244 -224 228 -242 Q 207 -224 185.5 -205.5 Q 164 -187 142 -169 L 142 0 Z " id="path1"/></defs><g><g fill="#dee4e3" transform="translate(40 105.20961) rotate(0)"><use href="#path1" transform="translate(0 0) scale(0.09599999)"/></g></g></svg>