<?xml version="1.0" encoding="UTF-8" standalone="no"?>
<svg height="160" viewBox="0 0 128 160" width="128" xmlns="http://www.w3.org/2000/svg">
<defs>
<path d="M 282 8 Q 262 8 241 4.5 Q 220 1 201.5 -8.5 Q 183 -18 167.5 -32 Q 152 -46 141 -64 L 141 0 L 64 0 L 64 -180 L 141 -180 Q 141 -156 148 -133 Q 155 -110 171.5 -93 Q 188 -76 211 -69 Q 234 -62 257 -62 Q 275 -62 292.5 -66.5 Q 310 -71 324 -81.5 Q 338 -92 348 -106.5 Q 358 -121 364 -137.5 Q 370 -154 372 -171.5 Q 374 -189 374 -207 Q 374 -225 371.5 -242.5 Q 369 -260 362.5 -276.5 Q 356 -293 344.5 -307 Q 333 -321 318 -330.5 Q 303 -340 285.5 -343.5 Q 268 -347 250 -347 L 194 -347 L 194 -417 L 250 -417 Q 274 -417 296 -426 Q 318 -435 332.5 -453.5 Q 347 -472 352.5 -495.5 Q 358 -519 358 -542 Q 358 -566 353 -590 Q 348 -614 333.5 -633.5 Q 319 -653 296.5 -663 Q 274 -673 250 -673 Q 227 -673 205 -665 Q 183 -657 168 -640 Q 153 -623 147 -600.5 Q 141 -578 141 -555 L 64 -555 L 64 -735 L 141 -735 L 141 -673 Q 151 -690 165.5 -704 Q 180 -718 197.5 -727 Q 215 -736 235 -739.5 Q 255 -743 275 -743 Q 299 -743 322.5 -737 Q 346 -731 365.5 -717 Q 385 -703 399 -682.5 Q 413 -662 421 -639.5 Q 429 -617 432.5 -593 Q 436 -569 436 -545 Q 436 -521 432 -496 Q 428 -471 416.5 -449.5 Q 405 -428 386.5 -411 Q 368 -394 346 -383 Q 372 -373 393.5 -354.5 Q 415 -336 428.5 -311.5 Q 442 -287 447 -259.5 Q 452 -232 452 -204 Q 452 -178 448.5 -152.5 Q 445 -127 436.5 -103 Q 428 -79 413.5 -57.5 Q 399 -36 378.5 -20.5 Q 358 -5 333 1.5 Q 308 8 282 8 Z " id="path1"/>
</defs>
<g>
<g data-source-text="З" fill="#dee4e3" transform="translate(40 104.99201) rotate(0) scale(0.09599999)">
<use href="#path1" transform="translate(0 0)"/>
</g>
</g>
</svg>