<?xml version="1.0" encoding="UTF-8" standalone="no"?>
<svg height="160" viewBox="0 0 128 160" width="128" xmlns="http://www.w3.org/2000/svg">
<defs>
<path d="M 248 8 Q 226 8 204 5.5 Q 182 3 161.5 -4.5 Q 141 -12 122.5 -24.5 Q 104 -37 90.5 -54 Q 77 -71 70 -92 Q 63 -113 62 -135 L 140 -135 Q 140 -117 151 -101.5 Q 162 -86 177.5 -77 Q 193 -68 211 -65 Q 229 -62 248 -62 Q 264 -62 280.5 -66.5 Q 297 -71 310.5 -80.5 Q 324 -90 333.5 -104 Q 343 -118 348.5 -134 Q 354 -150 356 -166.5 Q 358 -183 358 -200 L 358 -310 Q 350 -288 337.5 -268 Q 325 -248 306.5 -234 Q 288 -220 265 -213.5 Q 242 -207 219 -207 Q 194 -207 170.5 -214 Q 147 -221 128 -237 Q 109 -253 96.5 -274 Q 84 -295 76.5 -318.5 Q 69 -342 66.5 -366.5 Q 64 -391 64 -415 L 64 -735 L 142 -735 L 142 -415 Q 142 -398 144 -381.5 Q 146 -365 151 -349.5 Q 156 -334 165.5 -320 Q 175 -306 188 -296 Q 201 -286 217 -281.5 Q 233 -277 250 -277 Q 267 -277 283 -281.5 Q 299 -286 312 -296 Q 325 -306 334.5 -320 Q 344 -334 349 -349.5 Q 354 -365 356 -381.5 Q 358 -398 358 -415 L 358 -735 L 436 -735 L 436 -200 Q 436 -173 432 -146.5 Q 428 -120 417.5 -96 Q 407 -72 390 -51 Q 373 -30 350 -16.5 Q 327 -3 300.5 2.5 Q 274 8 248 8 Z " id="path1"/>
</defs>
<g>
<g data-source-text="У" fill="#dee4e3" transform="translate(40 104.99201) rotate(0) scale(0.09599999)">
<use href="#path1" transform="translate(0 0)"/>
</g>
</g>
</svg>