<svg xmlns="http://www.w3.org/2000/svg" height="160" viewBox="0 0 128 160" width="128"><defs><path d="M 254.00002 8 C 220.66666 8 187.99998 3.1666663 156 -6.5000005 C 124 -16.166668 93.333336 -29.333334 64 -46 L 64 -188.00002 L 141 -188.00002 L 141 -88 C 159 -80.66667 177.33334 -74.5 196 -69.5 C 214.66666 -64.5 233.66667 -62.000004 253.00002 -62.000004 C 268.33334 -62.000004 283.33334 -64.66667 298 -70.00001 C 312.66666 -75.333336 325.33334 -83.666664 336.00003 -95 C 346.66666 -106.33333 354.5 -119.49999 359.50003 -134.5 C 364.49997 -149.5 366.99997 -164.66667 367 -180.00002 C 366.99997 -197.33334 363.49997 -214.00002 356.5 -230 C 349.5 -246 340 -260 328.00003 -272 C 316 -284 302.6667 -294.33334 288.00003 -303 C 273.3333 -311.66666 258.33334 -320 243.00002 -328.00003 C 227.66669 -335.99997 212.66667 -344.1667 198 -352.5 C 183.33333 -360.83334 169.33333 -370.3333 156 -381 C 142.66666 -391.66666 130.33333 -403.33334 119 -416.00003 C 107.666664 -428.6667 97.83333 -442.33334 89.5 -457.00003 C 81.166664 -471.66666 74.833336 -487.3333 70.5 -504 C 66.166664 -520.6667 64 -537.6666 64 -555 C 64 -570.99994 65.833336 -587.1666 69.5 -603.5 C 73.166664 -619.8333 78.5 -635.3333 85.50001 -650.00006 C 92.49999 -664.6667 101.66667 -678.16675 113.00001 -690.50006 C 124.333336 -702.8334 137.16666 -713 151.5 -721.00006 C 165.83334 -729.00006 181.16667 -734.6667 197.50002 -738 C 213.83334 -741.3334 230.33333 -743.00006 247 -743.00006 C 279.66666 -743.00006 312 -738 344.00003 -728 C 376.00003 -717.99994 406.6667 -704.99994 436 -689 L 436 -555 L 359.00003 -555 L 359.00003 -646 C 341.66666 -653.3334 323.66666 -659.6667 305.00003 -665 C 286.33334 -670.3333 267.33334 -673.00006 248.00002 -673.00006 C 233.33334 -673.00006 218.83333 -670.1667 204.5 -664.5 C 190.16667 -658.8333 178.33334 -650.1667 169.00002 -638.50006 C 159.66666 -626.8334 152.66666 -613.8334 148 -599.50006 C 143.33333 -585.1667 141 -570.3333 141 -555 C 141 -538.3334 144.5 -522 151.5 -506.00003 C 158.5 -490.00003 167.83333 -475.83334 179.50002 -463.50003 C 191.16669 -451.1667 204.5 -440.6667 219.50002 -432 C 234.5 -423.33334 249.5 -415.16666 264.5 -407.5 C 279.5 -399.83334 294.3333 -391.66666 309 -383.00003 C 323.6667 -374.3333 337.83334 -364.8333 351.5 -354.50003 C 365.1667 -344.16666 377.6667 -332.66666 389.00003 -320.00003 C 400.33334 -307.3333 410.1667 -293.5 418.5 -278.5 C 426.8333 -263.5 433.1667 -247.66667 437.5 -231.00002 C 441.83334 -214.33334 444.00003 -197.66667 444.00003 -181 C 444.00003 -164.33333 442 -147.66667 438.00003 -131 C 434.00003 -114.333336 428.1667 -98.66667 420.5 -84.00001 C 412.83334 -69.333336 403.16666 -55.833336 391.5 -43.500004 C 379.8333 -31.166668 366.5 -21.166668 351.5 -13.5 C 336.49997 -5.8333335 320.66666 -0.33333325 304 3 C 287.33334 6.3333335 270.66666 8 254.00002 8 Z " id="path1"/></defs><g><g fill="#ffffff" transform="translate(40 105.20961) rotate(0)"><use href="#path1" transform="translate(0 0) scale(0.09599999)"/></g></g></svg>