<?xml version="1.0" encoding="UTF-8" standalone="no"?>
<svg height="160" viewBox="0 0 128 160" width="128" xmlns="http://www.w3.org/2000/svg">
<defs>
<path d="M 158 0 L 14 0 L 14 -70 L 48 -70 L 48 -665 L 14 -665 L 14 -735 L 159 -735 L 250 -234 L 341 -735 L 486 -735 L 486 -665 L 452 -665 L 452 -70 L 486 -70 L 486 0 L 342 0 L 342 -70 L 374 -70 L 374 -147 Q 374 -267 378 -387 Q 382 -507 384 -627 L 384 -641 L 280 -70 L 220 -70 L 116 -641 Q 117 -517 121.5 -393.5 Q 126 -270 126 -147 L 126 -70 L 158 -70 Z " id="path1"/>
</defs>
<g>
<g data-source-text="M" fill="#20242e" transform="translate(40 104.99201) rotate(0) scale(0.09599999)">
<use href="#path1" transform="translate(0 0)"/>
</g>
</g>
</svg>