<?xml version="1.0" encoding="UTF-8" standalone="no"?>
<svg height="160" viewBox="0 0 128 160" width="128" xmlns="http://www.w3.org/2000/svg">
<defs>
<path d="M 276 8 Q 255 8 233.5 4 Q 212 -0 193 -10 Q 174 -20 159 -35.5 Q 144 -51 133 -69 L 133 0 L 64 0 L 64 -180 L 133 -180 Q 133 -156 140 -133 Q 147 -110 163.5 -93 Q 180 -76 203 -69 Q 226 -62 250 -62 Q 267 -62 284 -66 Q 301 -70 315 -79.5 Q 329 -89 339.5 -103 Q 350 -117 356 -133 Q 362 -149 364 -166 Q 366 -183 366 -200 L 366 -225 L 194 -225 L 194 -295 L 366 -295 L 366 -320 Q 366 -337 364 -354 Q 362 -371 356 -387 Q 350 -403 339.5 -417 Q 329 -431 315 -440.5 Q 301 -450 284 -454 Q 267 -458 250 -458 Q 226 -458 203 -451 Q 180 -444 163.5 -427 Q 147 -410 140 -387 Q 133 -364 133 -340 L 64 -340 L 64 -520 L 133 -520 L 133 -451 Q 144 -469 159 -484.5 Q 174 -500 193 -510 Q 212 -520 233.5 -524 Q 255 -528 276 -528 Q 302 -528 326.5 -521.5 Q 351 -515 371.5 -500.5 Q 392 -486 406.5 -464.5 Q 421 -443 429.5 -419.5 Q 438 -396 441 -370.5 Q 444 -345 444 -320 L 444 -200 Q 444 -175 441 -149.5 Q 438 -124 429.5 -100.5 Q 421 -77 406.5 -55.5 Q 392 -34 371.5 -19.5 Q 351 -5 326.5 1.5 Q 302 8 276 8 Z " id="path1"/>
</defs>
<g>
<g data-source-text="Ñ" fill="#dee4e3" transform="translate(40 104.99201) rotate(0) scale(0.09599999)">
<use href="#path1" transform="translate(0 0)"/>
</g>
</g>
</svg>