<?xml version="1.0" encoding="UTF-8" standalone="no"?>
<svg height="160" viewBox="0 0 128 160" width="128" xmlns="http://www.w3.org/2000/svg">
<defs>
<path d="M 247 8 Q 221 8 194.5 3 Q 168 -2 145 -15 Q 122 -28 104 -48 Q 86 -68 75 -92 Q 64 -116 60 -142.5 Q 56 -169 56 -195 L 56 -540 Q 56 -566 60 -592.5 Q 64 -619 75 -643 Q 86 -667 104 -687 Q 122 -707 145 -720 Q 168 -733 194.5 -738 Q 221 -743 247 -743 Q 272 -743 296.5 -739 Q 321 -735 343.5 -724 Q 366 -713 384.5 -695.5 Q 403 -678 415 -656.5 Q 427 -635 432.5 -610.5 Q 438 -586 438 -561 L 438 -555 L 360 -555 L 360 -559 Q 360 -582 353 -604 Q 346 -626 330 -642.5 Q 314 -659 292 -666 Q 270 -673 247 -673 Q 222 -673 198.5 -663 Q 175 -653 160 -633.5 Q 145 -614 139.5 -589.5 Q 134 -565 134 -540 L 134 -195 Q 134 -170 139.5 -145.5 Q 145 -121 160 -101.5 Q 175 -82 198.5 -72 Q 222 -62 247 -62 Q 270 -62 292 -69 Q 314 -76 330 -92.5 Q 346 -109 353 -131 Q 360 -153 360 -176 L 360 -180 L 438 -180 L 438 -174 Q 438 -149 432.5 -124.5 Q 427 -100 415 -78.5 Q 403 -57 384.5 -39.5 Q 366 -22 343.5 -11 Q 321 0 296.5 4 Q 272 8 247 8 Z " id="path1"/>
</defs>
<g>
<g data-source-text="C" fill="#20242e" transform="translate(40 104.99201) rotate(0) scale(0.09599999)">
<use href="#path1" transform="translate(0 0)"/>
</g>
</g>
</svg>