<?xml version="1.0" encoding="UTF-8" standalone="no"?>
<svg height="160" viewBox="0 0 128 160" width="128" xmlns="http://www.w3.org/2000/svg">
<defs>
<path d="M 211 215 L 211 8 L 200 8 Q 175 8 151.5 1.5 Q 128 -5 108.5 -19.5 Q 89 -34 75.5 -55 Q 62 -76 54 -99 Q 46 -122 43 -146.5 Q 40 -171 40 -195 L 40 -325 Q 40 -349 43 -373.5 Q 46 -398 54 -421 Q 62 -444 75.5 -465 Q 89 -486 108.5 -500.5 Q 128 -515 151.5 -521.5 Q 175 -528 200 -528 L 211 -528 L 211 -735 L 289 -735 L 289 -528 L 300 -528 Q 325 -528 348.5 -521.5 Q 372 -515 391.5 -500.5 Q 411 -486 424.5 -465 Q 438 -444 446 -421 Q 454 -398 457 -373.5 Q 460 -349 460 -325 L 460 -195 Q 460 -171 457 -146.5 Q 454 -122 446 -99 Q 438 -76 424.5 -55 Q 411 -34 391.5 -19.5 Q 372 -5 348.5 1.5 Q 325 8 300 8 L 289 8 L 289 215 Z M 200 -62 L 211 -62 L 211 -458 L 200 -458 Q 185 -458 171.5 -452 Q 158 -446 148.5 -435 Q 139 -424 133 -410.5 Q 127 -397 123.5 -383 Q 120 -369 119 -354.5 Q 118 -340 118 -325 L 118 -195 Q 118 -180 119 -165.5 Q 120 -151 123.5 -137 Q 127 -123 133 -109.5 Q 139 -96 148.5 -85 Q 158 -74 171.5 -68 Q 185 -62 200 -62 Z M 289 -62 L 300 -62 Q 315 -62 328.5 -68 Q 342 -74 351.5 -85 Q 361 -96 367 -109.5 Q 373 -123 376.5 -137 Q 380 -151 381 -165.5 Q 382 -180 382 -195 L 382 -325 Q 382 -340 381 -354.5 Q 380 -369 376.5 -383 Q 373 -397 367 -410.5 Q 361 -424 351.5 -435 Q 342 -446 328.5 -452 Q 315 -458 300 -458 L 289 -458 Z " id="path1"/>
</defs>
<g>
<g data-source-text="ф" fill="#dee4e3" transform="translate(40 104.99201) rotate(0) scale(0.09599999)">
<use href="#path1" transform="translate(0 0)"/>
</g>
</g>
</svg>