<svg xmlns="http://www.w3.org/2000/svg" height="160" viewBox="0 0 128 160" width="128"><defs><path d="M 249 8 Q 224 8 199 4 Q 174 0 151.5 -10.5 Q 129 -21 110 -38 Q 91 -55 78.5 -76.5 Q 66 -98 60 -122.5 Q 54 -147 54 -172 Q 54 -173 54 -173.5 Q 54 -174 54 -175 L 132 -175 Q 132 -175 132 -174.5 Q 132 -174 132 -173 Q 132 -151 140 -129 Q 148 -107 164.5 -91 Q 181 -75 203.5 -68.5 Q 226 -62 249 -62 Q 272 -62 295.5 -69.5 Q 319 -77 335 -94.5 Q 351 -112 359 -135 Q 367 -158 367 -182 Q 367 -207 356.5 -231 Q 346 -255 328 -273.5 Q 310 -292 288 -304.5 Q 266 -317 243 -328.5 Q 220 -340 198 -352.5 Q 176 -365 156 -380.5 Q 136 -396 118.5 -415.5 Q 101 -435 89 -457 Q 77 -479 70.5 -504 Q 64 -529 64 -555 Q 64 -579 69.5 -603.5 Q 75 -628 85.5 -650 Q 96 -672 113 -690.5 Q 130 -709 151.5 -721 Q 173 -733 197.5 -738 Q 222 -743 247 -743 Q 296 -743 344 -728 Q 392 -713 436 -689 L 436 -555 L 359 -555 L 359 -646 Q 333 -657 305 -665 Q 277 -673 248 -673 Q 226 -673 204.5 -664.5 Q 183 -656 169 -638.5 Q 155 -621 148 -599.5 Q 141 -578 141 -555 Q 141 -530 151.5 -506 Q 162 -482 179.5 -463.5 Q 197 -445 219 -432 Q 241 -419 264 -407.5 Q 287 -396 309 -383.5 Q 331 -371 351.5 -355.5 Q 372 -340 389.5 -321 Q 407 -302 419 -279.5 Q 431 -257 437.5 -232 Q 444 -207 444 -182 Q 444 -156 438 -131 Q 432 -106 420 -83 Q 408 -60 389.5 -42 Q 371 -24 348 -12.5 Q 325 -1 299.5 3.5 Q 274 8 249 8 Z " id="path1"/></defs><g><g fill="#dee4e3" transform="translate(40 105.20961) rotate(0)"><use href="#path1" transform="translate(0 0) scale(0.09599999)"/></g></g></svg>