<?xml version="1.0" encoding="UTF-8" standalone="no"?>
<svg height="160" viewBox="0 0 128 160" width="128" xmlns="http://www.w3.org/2000/svg">
<defs>
<path d="M 24 0 L 24 -70 Q 39 -70 53 -76 Q 67 -82 77 -92.5 Q 87 -103 94 -116 Q 101 -129 106 -143 Q 111 -157 114 -171.5 Q 117 -186 118.5 -201 Q 120 -216 120.5 -230.5 Q 121 -245 121 -260 Q 121 -275 120.5 -289.5 Q 120 -304 118.5 -319 Q 117 -334 114 -348.5 Q 111 -363 106 -377 Q 101 -391 94 -404 Q 87 -417 77 -427.5 Q 67 -438 53 -444 Q 39 -450 24 -450 L 24 -520 Q 44 -520 62.5 -515.5 Q 81 -511 97 -500.5 Q 113 -490 126 -475 Q 139 -460 148.5 -443 Q 158 -426 164.5 -408 Q 171 -390 175 -371.5 Q 179 -353 181.5 -333.5 Q 184 -314 185 -295 L 211 -295 L 211 -520 L 289 -520 L 289 -295 L 315 -295 Q 316 -314 318.5 -333.5 Q 321 -353 325 -371.5 Q 329 -390 335.5 -408 Q 342 -426 351.5 -443 Q 361 -460 374 -475 Q 387 -490 403 -500.5 Q 419 -511 437.5 -515.5 Q 456 -520 476 -520 L 476 -450 Q 461 -450 447 -444 Q 433 -438 423 -427.5 Q 413 -417 406 -404 Q 399 -391 394 -377 Q 389 -363 386 -348.5 Q 383 -334 381.5 -319 Q 380 -304 379.5 -289.5 Q 379 -275 379 -260 Q 379 -245 379.5 -230.5 Q 380 -216 381.5 -201 Q 383 -186 386 -171.5 Q 389 -157 394 -143 Q 399 -129 406 -116 Q 413 -103 423 -92.5 Q 433 -82 447 -76 Q 461 -70 476 -70 L 476 0 Q 456 -0 437.5 -4.5 Q 419 -9 403 -19.5 Q 387 -30 374 -45 Q 361 -60 351.5 -77 Q 342 -94 335.5 -112 Q 329 -130 325 -148.5 Q 321 -167 318.5 -186.5 Q 316 -206 315 -225 L 289 -225 L 289 0 L 211 0 L 211 -225 L 185 -225 Q 184 -206 181.5 -186.5 Q 179 -167 175 -148.5 Q 171 -130 164.5 -112 Q 158 -94 148.5 -77 Q 139 -60 126 -45 Q 113 -30 97 -19.5 Q 81 -9 62.5 -4.5 Q 44 -0 24 0 Z " id="path1"/>
</defs>
<g>
<g data-source-text="ж" fill="#dee4e3" transform="translate(40 104.99201) rotate(0) scale(0.09599999)">
<use href="#path1" transform="translate(0 0)"/>
</g>
</g>
</svg>