<?xml version="1.0" encoding="UTF-8" standalone="no"?>
<svg height="160" viewBox="0 0 128 160" width="128" xmlns="http://www.w3.org/2000/svg">
<defs>
<path d="M 185 223 Q 164 223 142.5 219.5 Q 121 216 102 206.5 Q 83 197 67 181.5 Q 51 166 40.5 147.5 Q 30 129 25 107.5 Q 20 86 20 65 L 98 65 Q 98 83 104 99.5 Q 110 116 122 129 Q 134 142 151 147.5 Q 168 153 185 153 Q 200 153 214.5 147.5 Q 229 142 239.5 131.5 Q 250 121 257 107.5 Q 264 94 268 79.5 Q 272 65 273 50 Q 274 35 274 20 L 274 -665 L 138 -665 L 138 -735 L 398 -735 L 398 -665 L 352 -665 L 352 20 Q 352 45 349 69.5 Q 346 94 337.5 117.5 Q 329 141 314.5 161.5 Q 300 182 279.5 196.5 Q 259 211 234.5 217 Q 210 223 185 223 Z " id="path1"/>
</defs>
<g>
<g data-source-text="J" fill="#20242e" transform="translate(40 104.99201) rotate(0) scale(0.09599999)">
<use href="#path1" transform="translate(0 0)"/>
</g>
</g>
</svg>