<?xml version="1.0" encoding="UTF-8" standalone="no"?>
<svg height="160" viewBox="0 0 256 160" width="256" xmlns="http://www.w3.org/2000/svg">
<defs>
<path d="M 254 8 Q 230 8 206 4.5 Q 182 1 159.5 -8 Q 137 -17 118 -32.5 Q 99 -48 86.5 -68.5 Q 74 -89 69 -112.5 Q 64 -136 64 -161 L 64 -520 L 142 -520 L 142 -248 Q 151 -268 166 -284 Q 181 -300 200 -310.5 Q 219 -321 241 -325 Q 263 -329 284 -329 Q 306 -329 328 -325 Q 350 -321 369 -310.5 Q 388 -300 403 -283.5 Q 418 -267 427.5 -247.5 Q 437 -228 440.5 -206 Q 444 -184 444 -162 Q 444 -138 439 -114 Q 434 -90 421.5 -69.5 Q 409 -49 390 -33.5 Q 371 -18 348.5 -8.5 Q 326 1 302 4.5 Q 278 8 254 8 Z M 254 -62 Q 275 -62 296 -67 Q 317 -72 333.5 -85.5 Q 350 -99 358 -119 Q 366 -139 366 -161 Q 366 -182 358 -202.5 Q 350 -223 333.5 -236 Q 317 -249 296 -254 Q 275 -259 254 -259 Q 233 -259 212 -254 Q 191 -249 174.5 -235.5 Q 158 -222 150 -202 Q 142 -182 142 -161 Q 142 -139 150 -119 Q 158 -99 174.5 -85.5 Q 191 -72 212 -67 Q 233 -62 254 -62 Z " id="path1"/>
<path d="M 281 8 Q 259 8 237 4 Q 215 0 195.5 -10.5 Q 176 -21 160.5 -37.5 Q 145 -54 135.5 -74 Q 126 -94 122.5 -116 Q 119 -138 119 -161 L 119 -450 L 24 -450 L 24 -520 L 197 -520 L 197 -255 Q 204 -271 215.5 -286 Q 227 -301 242.5 -311 Q 258 -321 276 -325 Q 294 -329 312 -329 Q 332 -329 351.5 -323.5 Q 371 -318 387 -306 Q 403 -294 414.5 -277 Q 426 -260 432.5 -241.5 Q 439 -223 441.5 -203 Q 444 -183 444 -163 Q 444 -140 440.5 -118 Q 437 -96 427.5 -75.5 Q 418 -55 403 -38.5 Q 388 -22 368 -11 Q 348 0 326 4 Q 304 8 281 8 Z M 281 -62 Q 300 -62 317.5 -69 Q 335 -76 346.5 -91 Q 358 -106 362 -124 Q 366 -142 366 -161 Q 366 -179 362 -197.5 Q 358 -216 346.5 -230.5 Q 335 -245 317.5 -252 Q 300 -259 281 -259 Q 263 -259 245.5 -252 Q 228 -245 216.5 -230.5 Q 205 -216 201 -197.5 Q 197 -179 197 -161 Q 197 -142 201 -123.5 Q 205 -105 216.5 -90.5 Q 228 -76 245.5 -69 Q 263 -62 281 -62 Z " id="path2"/>
</defs>
<g>
<g data-source-text="ь" fill="#20242e" transform="translate(40 104.99201) rotate(0) scale(0.09599999)">
<use href="#path1" transform="translate(0 0)"/>
</g>
</g>
<g>
<g data-source-text="ъ" fill="#20242e" transform="translate(168 104.99201) rotate(0) scale(0.09599999)">
<use href="#path2" transform="translate(0 0)"/>
</g>
</g>
</svg>