<svg xmlns="http://www.w3.org/2000/svg" height="160" viewBox="0 0 128 160" width="128"><defs><path d="M 246.00002 8 C 228.00002 8 210.33333 6 193 2 C 175.66666 -1.9999998 159.33333 -8.500001 144.00002 -17.500002 C 128.66666 -26.500002 115.166664 -37.833336 103.5 -51.500004 C 91.833336 -65.16667 82.333336 -80 75.00001 -96 C 67.666664 -112 62.666668 -128.83334 60.000004 -146.5 C 57.333332 -164.16667 55.999996 -182 56 -200.00002 L 56 -320.00003 C 55.999996 -338 57.333332 -355.8333 60.000004 -373.5 C 62.666668 -391.1667 67.666664 -408 75.00001 -424 C 82.333336 -440 91.833336 -454.8333 103.5 -468.50003 C 115.166664 -482.16666 128.66666 -493.5 144.00002 -502.50003 C 159.33333 -511.50003 175.66666 -518 193 -522 C 210.33333 -525.99994 228.00002 -528 246.00002 -528 C 279.3333 -528 312 -523.1667 344.00003 -513.50006 C 376.00003 -503.8333 406.6667 -490.66666 436 -474.00003 L 436 -340 L 359.00003 -340 L 359.00003 -432 C 341.66666 -439.33334 323.66666 -445.5 305.00003 -450.50003 C 286.33334 -455.49997 267.33334 -457.99997 248.00002 -458 C 236.66667 -457.99997 225.5 -456.66666 214.50002 -454 C 203.5 -451.33334 193.33333 -446.6667 184 -440.00003 C 174.66667 -433.33334 166.66667 -425.3333 160.00002 -416.00003 C 153.33333 -406.6667 148 -396.83334 144.00002 -386.5 C 140.00002 -376.1667 137.33334 -365.33334 136 -354.00003 C 134.66667 -342.6667 134 -331.33334 134 -320.00003 L 134 -200.00002 C 134 -188.66667 134.66667 -177.33334 136 -166 C 137.33334 -154.66667 140.00002 -143.83333 144.00002 -133.5 C 148 -123.166664 153.33333 -113.33333 160.00002 -104.00001 C 166.66667 -94.666664 174.66667 -86.666664 184 -80.00001 C 193.33333 -73.333336 203.5 -68.66667 214.50002 -66 C 225.5 -63.333336 236.66667 -62.000004 248.00002 -62.000004 C 267.33334 -62.000004 286.33334 -64.5 305.00003 -69.5 C 323.66666 -74.5 341.66666 -80.66667 359.00003 -88 L 359.00003 -188.00002 L 436 -188.00002 L 436 -46 C 406.6667 -29.333334 376.00003 -16.166668 344.00003 -6.5000005 C 312 3.1666663 279.3333 8 246.00002 8 Z " id="path1"/></defs><g><g fill="#000000" transform="translate(40 105.20961) rotate(0)"><use href="#path1" transform="translate(0 0) scale(0.09599999)"/></g></g></svg>