<?xml version="1.0" encoding="UTF-8" standalone="no"?>
<svg height="160" viewBox="0 0 128 160" width="128" xmlns="http://www.w3.org/2000/svg">
<defs>
<path d="M 253 8 Q 228 8 203 4 Q 178 0 156 -11 Q 134 -22 115.5 -39.5 Q 97 -57 85 -79 Q 73 -101 67.5 -125.5 Q 62 -150 62 -175 L 62 -180 L 140 -180 L 140 -177 Q 140 -154 147 -132 Q 154 -110 170 -93.5 Q 186 -77 208 -69.5 Q 230 -62 253 -62 Q 270 -62 286.5 -66 Q 303 -70 317 -80 Q 331 -90 340.5 -104 Q 350 -118 356 -133.5 Q 362 -149 364 -166 Q 366 -183 366 -200 L 366 -225 L 194 -225 L 194 -295 L 366 -295 L 366 -320 Q 366 -337 364 -354 Q 362 -371 356 -387 Q 350 -403 339.5 -417 Q 329 -431 315 -440.5 Q 301 -450 284 -454 Q 267 -458 250 -458 Q 226 -458 203 -451 Q 180 -444 163.5 -427 Q 147 -410 140 -387 Q 133 -364 133 -340 L 64 -340 L 64 -520 L 133 -520 L 133 -451 Q 144 -469 159 -484.5 Q 174 -500 193 -510 Q 212 -520 233.5 -524 Q 255 -528 276 -528 Q 302 -528 326.5 -521.5 Q 351 -515 371.5 -500.5 Q 392 -486 406.5 -464.5 Q 421 -443 429.5 -419.5 Q 438 -396 441 -370.5 Q 444 -345 444 -320 L 444 -200 Q 444 -173 440 -146.5 Q 436 -120 425 -95.5 Q 414 -71 396.5 -50.5 Q 379 -30 356 -16.5 Q 333 -3 306.5 2.5 Q 280 8 253 8 Z " id="path1"/>
</defs>
<g>
<g data-source-text="Ñ" fill="#dee4e3" transform="translate(40 104.99201) rotate(0) scale(0.09599999)">
<use href="#path1" transform="translate(0 0)"/>
</g>
</g>
</svg>