<?xml version="1.0" encoding="UTF-8" standalone="no"?>
<svg height="160" viewBox="0 0 128 160" width="128" xmlns="http://www.w3.org/2000/svg">
<defs>
<path d="M 391 180 Q 367 180 343.5 176 Q 320 172 299 161.5 Q 278 151 260.5 134.5 Q 243 118 232 97 Q 221 76 216 52.5 Q 211 29 211 6 Q 188 2 166 -6.5 Q 144 -15 125.5 -29 Q 107 -43 93 -62 Q 79 -81 70.5 -103 Q 62 -125 59 -148.5 Q 56 -172 56 -195 L 56 -540 Q 56 -567 60.5 -593.5 Q 65 -620 76 -644 Q 87 -668 105.5 -688 Q 124 -708 147 -720.5 Q 170 -733 196.5 -738 Q 223 -743 250 -743 Q 277 -743 303.5 -738 Q 330 -733 353 -720.5 Q 376 -708 394.5 -688 Q 413 -668 424 -644 Q 435 -620 439.5 -593.5 Q 444 -567 444 -540 L 444 -195 Q 444 -172 441 -148.5 Q 438 -125 429.5 -103.5 Q 421 -82 407 -62.5 Q 393 -43 374.5 -29 Q 356 -15 334 -6.5 Q 312 2 289 6 Q 289 26 295.5 46.5 Q 302 67 316 82 Q 330 97 350 103.5 Q 370 110 391 110 L 420 110 L 420 180 Z M 212 -67 L 212 -223 L 288 -223 L 288 -67 Q 308 -72 324 -85.5 Q 340 -99 349.5 -117 Q 359 -135 362.5 -155 Q 366 -175 366 -195 L 366 -540 Q 366 -557 364 -573.5 Q 362 -590 355.5 -605.5 Q 349 -621 338.5 -634.5 Q 328 -648 314 -657 Q 300 -666 283.5 -669.5 Q 267 -673 250 -673 Q 233 -673 216.5 -669.5 Q 200 -666 186 -657 Q 172 -648 161.5 -634.5 Q 151 -621 144.5 -605.5 Q 138 -590 136 -573.5 Q 134 -557 134 -540 L 134 -195 Q 134 -175 137.5 -155 Q 141 -135 150.5 -117 Q 160 -99 176 -85.5 Q 192 -72 212 -67 Z " id="path1"/>
</defs>
<g>
<g data-source-text="Q" fill="#20242e" transform="translate(40 104.99201) rotate(0) scale(0.09599999)">
<use href="#path1" transform="translate(0 0)"/>
</g>
</g>
</svg>