<?xml version="1.0" encoding="UTF-8" standalone="no"?>
<svg height="160" viewBox="0 0 128 160" width="128" xmlns="http://www.w3.org/2000/svg">
<defs>
<path d="M 251 8 Q 227 8 203 4.5 Q 179 1 157 -8 Q 135 -17 116.5 -32.5 Q 98 -48 86 -69 Q 74 -90 69 -113.5 Q 64 -137 64 -161 L 64 -520 L 142 -520 L 142 -321 L 250 -321 Q 274 -321 297.5 -318 Q 321 -315 343.5 -306.5 Q 366 -298 386 -284 Q 406 -270 419.5 -250.5 Q 433 -231 438.5 -207.5 Q 444 -184 444 -160 Q 444 -135 438.5 -111.5 Q 433 -88 420 -67.5 Q 407 -47 387.5 -32 Q 368 -17 345.5 -8 Q 323 1 299 4.5 Q 275 8 251 8 Z M 251 -62 Q 272 -62 293.5 -67 Q 315 -72 332 -85 Q 349 -98 357.5 -118 Q 366 -138 366 -159 Q 366 -173 362.5 -187 Q 359 -201 350.5 -212 Q 342 -223 330 -231 Q 318 -239 305 -243.5 Q 292 -248 278 -249.5 Q 264 -251 250 -251 L 142 -251 L 142 -161 Q 142 -140 149.5 -119.5 Q 157 -99 173 -85.5 Q 189 -72 209.5 -67 Q 230 -62 251 -62 Z " id="path1"/>
</defs>
<g>
<g data-source-text="ь" fill="#20242e" transform="translate(40 104.99201) rotate(0) scale(0.09599999)">
<use href="#path1" transform="translate(0 0)"/>
</g>
</g>
</svg>