<?xml version="1.0" encoding="UTF-8" standalone="no"?>
<svg height="160" viewBox="0 0 128 160" width="128" xmlns="http://www.w3.org/2000/svg">
<defs>
<path d="M 64 0 L 64 -520 Q 64 -547 67.5 -574.5 Q 71 -602 80.5 -627.5 Q 90 -653 105.5 -675.5 Q 121 -698 143.5 -714 Q 166 -730 193 -736.5 Q 220 -743 247 -743 Q 272 -743 297.5 -737.5 Q 323 -732 344.5 -719.5 Q 366 -707 382.5 -687 Q 399 -667 409.5 -644 Q 420 -621 425 -596 Q 430 -571 430 -546 L 430 -540 L 428 -540 L 306 -393 Q 337 -384 366 -367 Q 395 -350 415 -324 Q 435 -298 443.5 -266 Q 452 -234 452 -201 Q 452 -172 445.5 -143 Q 439 -114 423 -89.5 Q 407 -65 383 -47 Q 359 -29 332 -18.5 Q 305 -8 276 -4 Q 247 -0 217 0 L 176 0 L 176 -70 L 217 -70 Q 237 -70 256 -72.5 Q 275 -75 293 -82 Q 311 -89 327 -100.5 Q 343 -112 354 -128 Q 365 -144 369.5 -163 Q 374 -182 374 -201 Q 374 -229 363.5 -255.5 Q 353 -282 331 -299.5 Q 309 -317 281.5 -325 Q 254 -333 226 -333 L 217 -333 L 217 -403 L 351 -564 Q 349 -585 342 -605 Q 335 -625 321.5 -641 Q 308 -657 288 -665 Q 268 -673 247 -673 Q 230 -673 213 -667 Q 196 -661 183.5 -649 Q 171 -637 162.5 -621.5 Q 154 -606 149.5 -589 Q 145 -572 143.5 -554.5 Q 142 -537 142 -520 L 142 0 Z " id="path1"/>
</defs>
<g>
<g data-source-text="ẞ" fill="#20242e" transform="translate(40 104.99201) rotate(0) scale(0.09599999)">
<use href="#path1" transform="translate(0 0)"/>
</g>
</g>
</svg>