<svg xmlns="http://www.w3.org/2000/svg" height="160" viewBox="0 0 128 160" width="128"><defs><path d="M 56 0 C 55.999996 -28.666668 60 -56.666676 68 -84.00001 C 76 -111.333336 85.833336 -138 97.5 -164.00002 C 109.166664 -190 122.33333 -215.16667 137.00002 -239.50002 C 151.66667 -263.83334 167 -287.6667 183.00002 -311.00003 C 162.33333 -317.66666 143.33334 -328 126 -342.00003 C 108.66667 -356 94.66667 -372.6667 84.00001 -392 C 73.333336 -411.33334 66 -432 62.000004 -454 C 58 -476 55.999996 -498 56 -520.00006 C 55.999996 -538.00006 57.166668 -556 59.5 -574 C 61.833332 -592 66.5 -609.3333 73.50001 -626 C 80.50001 -642.6667 89.666664 -658.1667 101.00001 -672.5 C 112.33333 -686.8333 125.666664 -698.8333 141 -708.5 C 156.33333 -718.1667 172.83333 -725 190.5 -729.00006 C 208.16667 -733 226 -735 244 -735 L 436 -735 L 436 0 L 358 0 L 358 -665 L 244 -665 C 232.66666 -665 221.33333 -663.3334 210 -660 C 198.66666 -656.6667 188.50002 -651.5 179.50002 -644.50006 C 170.5 -637.5 163 -629.00006 157.00002 -619 C 151 -609 146.33333 -598.50006 143 -587.50006 C 139.66667 -576.50006 137.33334 -565.3334 136 -554.00006 C 134.66667 -542.6667 134 -531.3334 134 -520.00006 C 134 -508 134.66667 -496.33334 136 -485.00003 C 137.33334 -473.6667 139.66667 -462.50003 143 -451.50003 C 146.33333 -440.50003 151 -430 157.00002 -420 C 163 -410.00003 170.5 -401.5 179.50002 -394.50003 C 188.50002 -387.49997 198.66666 -382.33334 210 -379 C 221.33333 -375.66666 232.66666 -374 244 -374 L 301 -374 L 301 -304 L 270 -304 C 253.33334 -281.33334 237.33334 -258.1667 222.00002 -234.50002 C 206.66667 -210.83334 192.5 -186.5 179.50002 -161.5 C 166.5 -136.5 155.66667 -110.333336 147.00002 -83 C 138.33333 -55.666668 134 -28 134 0 Z " id="path1"/></defs><g><g fill="#000000" transform="translate(40 105.20961) rotate(0)"><use href="#path1" transform="translate(0 0) scale(0.09599999)"/></g></g></svg>