<?xml version="1.0" encoding="UTF-8" standalone="no"?>
<svg height="160" viewBox="0 0 128 160" width="128" xmlns="http://www.w3.org/2000/svg">
<defs>
<path d="M 164 -525 L 170 -527 Q 177 -528 184.5 -528 Q 192 -528 200 -528 Q 193 -528 186 -528 Q 179 -528 172 -527 Z M 165 -422 Q 177 -422 189 -427 Q 201 -432 211 -440 L 211 -458 L 194 -458 Q 178 -457 164.5 -448.5 Q 151 -440 142 -427 Q 147 -425 153 -423.5 Q 159 -422 165 -422 Z M 289 -62 L 300 -62 Q 315 -62 328.5 -68 Q 342 -74 351.5 -85 Q 361 -96 367 -109.5 Q 373 -123 376.5 -137 Q 380 -151 381 -165.5 Q 382 -180 382 -195 L 382 -325 Q 382 -339 380 -352.5 Q 378 -366 372 -378.5 Q 366 -391 357 -402 Q 348 -413 337 -421 Q 326 -429 314 -436 Q 302 -443 289 -447 Z M 200 -62 L 211 -62 L 211 -399 Q 204 -392 194.5 -387.5 Q 185 -383 175 -383 Q 168 -383 161 -385.5 Q 154 -388 149 -393 Q 144 -398 141 -404.5 Q 138 -411 138 -418 L 138 -421 Q 126 -400 122 -375 Q 118 -350 118 -325 L 118 -195 Q 118 -180 119 -165.5 Q 120 -151 123.5 -137 Q 127 -123 133 -109.5 Q 139 -96 148.5 -85 Q 158 -74 171.5 -68 Q 185 -62 200 -62 Z M 48 215 L 48 145 L 120 145 Q 139 145 157.5 138.5 Q 176 132 188.5 117.5 Q 201 103 206 84 Q 211 65 211 46 L 211 8 L 200 8 Q 175 8 151.5 1.5 Q 128 -5 108.5 -19.5 Q 89 -34 75.5 -55 Q 62 -76 54 -99 Q 46 -122 43 -146.5 Q 40 -171 40 -195 L 40 -325 Q 40 -346 42 -366.5 Q 44 -387 49.5 -407.5 Q 55 -428 64.5 -446.5 Q 74 -465 87.5 -481 Q 101 -497 119 -508 Q 137 -519 158 -524 Q 149 -522 140.5 -517 Q 132 -512 126 -505 Q 120 -498 116.5 -489.5 Q 113 -481 113 -471 Q 113 -458 120.5 -446 Q 128 -434 140 -428 Q 142 -436 147.5 -442 Q 153 -448 160.5 -451.5 Q 168 -455 176 -456.5 Q 184 -458 193 -458 L 211 -458 L 211 -566 Q 211 -589 215 -611.5 Q 219 -634 229 -654 Q 239 -674 255.5 -690.5 Q 272 -707 292 -717 Q 312 -727 334.5 -731 Q 357 -735 380 -735 L 452 -735 L 452 -665 L 380 -665 Q 361 -665 342.5 -658.5 Q 324 -652 311.5 -637.5 Q 299 -623 294 -604 Q 289 -585 289 -566 L 289 -510 Q 294 -512 299 -513 Q 304 -514 309 -514 Q 326 -514 340.5 -505.5 Q 355 -497 369.5 -489 Q 384 -481 396.5 -470.5 Q 409 -460 419.5 -447.5 Q 430 -435 438 -420.5 Q 446 -406 451 -390 Q 456 -374 458 -357.5 Q 460 -341 460 -325 L 460 -195 Q 460 -171 457 -146.5 Q 454 -122 446 -99 Q 438 -76 424.5 -55 Q 411 -34 391.5 -19.5 Q 372 -5 348.5 1.5 Q 325 8 300 8 L 289 8 L 289 46 Q 289 69 285 91.5 Q 281 114 271 134 Q 261 154 244.5 170.5 Q 228 187 208 197 Q 188 207 165.5 211 Q 143 215 120 215 Z M 158 -524 L 159 -525 Q 159 -525 160 -525 L 162 -525 Q 161 -525 160 -524.5 Q 159 -524 158 -524 Z " id="path1"/>
</defs>
<g>
<g data-source-text="ф" fill="#20242e" transform="translate(40 104.99201) rotate(0) scale(0.09599999)">
<use href="#path1" transform="translate(0 0)"/>
</g>
</g>
</svg>