<svg xmlns="http://www.w3.org/2000/svg" height="160" viewBox="0 0 128 160" width="128"><defs><path d="M 381 165 C 366.33334 165 351.83334 163.83333 337.50003 161.5 C 323.1667 159.16667 309.5 154.83334 296.50003 148.50002 C 283.5 142.16666 271.66666 133.83333 261 123.5 C 250.33334 113.16667 241.66666 101.66667 235 89 C 228.33334 76.333336 223.5 63.000004 220.5 49 C 217.5 35 216 20.666666 216 6 C 200 4 184.49998 0.33333308 169.5 -5.0000005 C 154.5 -10.333333 140.66667 -17.666668 128 -27 C 115.333336 -36.333332 104.16667 -47.5 94.50001 -60.500004 C 84.833336 -73.5 77.00001 -87.333336 71 -102 C 65 -116.66667 61 -131.83334 59.000004 -147.5 C 56.999996 -163.16667 55.999996 -178.99998 56 -195 L 56 -540 C 55.999996 -558 57.499996 -575.8333 60.500004 -593.50006 C 63.5 -611.1666 68.66667 -628 76 -644.00006 C 83.333336 -660 93.16667 -674.6667 105.50001 -688.00006 C 117.83334 -701.3334 131.83334 -712.1666 147.5 -720.5 C 163.16667 -728.8334 179.66666 -735.16675 197.00002 -739.50006 C 214.33334 -743.8333 232 -746 250 -746 C 268 -746 285.6667 -743.8333 303 -739.50006 C 320.33334 -735.16675 336.83334 -728.8334 352.5 -720.5 C 368.1667 -712.1666 382.1667 -701.3334 394.50003 -688.00006 C 406.83334 -674.6667 416.66663 -660 424 -644.00006 C 431.33334 -628 436.5 -611.1666 439.50003 -593.50006 C 442.5 -575.8333 444.00003 -558 444.00003 -540 L 444.00003 -195 C 444.00003 -179.66669 443 -164.33334 441 -149 C 438.99997 -133.66666 435.33334 -118.83333 430 -104.50001 C 424.66666 -90.16667 417.50003 -76.666664 408.5 -64 C 399.50003 -51.333336 389.00003 -40.166668 377.00003 -30.5 C 365.00003 -20.833334 351.83334 -13.166666 337.50003 -7.5000005 C 323.1667 -1.8333335 308.3333 2.3333335 293 5.0000005 C 293.6667 16.999998 295.6667 28.666666 299 40.000004 C 302.33334 51.333336 308.00003 61.333336 316 70.00001 C 324 78.66667 333.8333 85 345.5 89 C 357.16666 93 369 94.99999 381 95 L 420 95 L 420 165 Z M 250 -62.000004 C 261.33334 -62.000004 272.5 -63.16667 283.5 -65.5 C 294.5 -67.833336 304.66666 -72 314.00003 -78 C 323.33334 -84.00001 331.49997 -91.50001 338.5 -100.5 C 345.5 -109.49999 351.1667 -119.166664 355.50003 -129.5 C 359.83334 -139.83333 362.66666 -150.5 364 -161.5 C 365.33334 -172.5 366.00003 -183.66667 366.00003 -195 L 366.00003 -540 C 366.00003 -551.3334 365.33334 -562.5 364 -573.5 C 362.66666 -584.5 359.83334 -595.3334 355.50003 -606 C 351.1667 -616.6666 345.5 -626.5 338.5 -635.5 C 331.49997 -644.50006 323.16666 -651.8334 313.50003 -657.5 C 303.83334 -663.1667 293.33334 -667.1666 282 -669.50006 C 270.66666 -671.8334 259.33334 -673.00006 248.00002 -673.00006 C 237.33333 -673.00006 226.5 -671.6666 215.5 -669 C 204.5 -666.3333 194.33333 -662 185.00002 -656.00006 C 175.66666 -650 167.66667 -642.5 161.00002 -633.50006 C 154.33334 -624.5 148.83334 -615 144.5 -605.00006 C 140.16667 -595 137.33334 -584.5 136 -573.5 C 134.66667 -562.5 134 -551.3334 134 -540 L 134 -195 C 134 -183.66667 134.66667 -172.5 136 -161.5 C 137.33334 -150.5 140.16667 -139.83333 144.5 -129.5 C 148.83334 -119.166664 154.5 -109.49999 161.5 -100.5 C 168.50002 -91.50001 176.66669 -84.00001 186.00002 -78 C 195.33334 -72 205.50002 -67.833336 216.50002 -65.5 C 227.50002 -63.16667 238.66666 -62.000004 250 -62.000004 Z " id="path1"/></defs><g><g fill="#ffffff" transform="translate(40 105.20961) rotate(0)"><use href="#path1" transform="translate(0 0) scale(0.09599999)"/></g></g></svg>