<?xml version="1.0" encoding="UTF-8" standalone="no"?>
<svg xmlns="http://www.w3.org/2000/svg" height="160" viewBox="0 0 128 160" width="128"><defs><path d="M 255 8 Q 205 8 156.5 -6.5 Q 108 -21 64 -46 L 64 -188 L 141 -188 L 141 -88 Q 168 -77 196 -69.5 Q 224 -62 253 -62 Q 276 -62 297.5 -69 Q 319 -76 335 -92 Q 351 -108 359 -130 Q 367 -152 367 -174 Q 367 -200 356 -224.5 Q 345 -249 327.5 -268 Q 310 -287 288 -301 Q 266 -315 243.5 -327.5 Q 221 -340 199 -353.5 Q 177 -367 157 -383.5 Q 137 -400 119.5 -419.5 Q 102 -439 89.5 -462 Q 77 -485 70.5 -510 Q 64 -535 64 -561 Q 64 -585 69.5 -609 Q 75 -633 86 -654.5 Q 97 -676 114 -693.5 Q 131 -711 152.5 -722 Q 174 -733 198 -738 Q 222 -743 246 -743 Q 296 -743 344 -728 Q 392 -713 436 -689 L 436 -555 L 359 -555 L 359 -646 Q 332 -657 304 -665 Q 276 -673 248 -673 Q 226 -673 205 -665.5 Q 184 -658 169.5 -641.5 Q 155 -625 148 -604 Q 141 -583 141 -561 Q 141 -535 151.5 -511 Q 162 -487 180 -468 Q 198 -449 220 -435 Q 242 -421 264.5 -408 Q 287 -395 309 -381.5 Q 331 -368 351 -351.5 Q 371 -335 388.5 -315.5 Q 406 -296 418.5 -273.5 Q 431 -251 437.5 -225.5 Q 444 -200 444 -174 Q 444 -150 438 -125.5 Q 432 -101 420.5 -79.5 Q 409 -58 391 -40.5 Q 373 -23 350.5 -12 Q 328 -1 304 3.5 Q 280 8 255 8 Z " id="path1"/></defs><g><g data-source-text="S" fill="#20242e" transform="translate(40 104.99201) rotate(0) scale(0.09599999)"><use href="#path1" transform="translate(0 0)"/></g></g></svg>