<?xml version="1.0" encoding="UTF-8" standalone="no"?>
<svg height="160" viewBox="0 0 128 160" width="128" xmlns="http://www.w3.org/2000/svg">
<defs>
<path d="M 246 8 Q 220 8 193.5 3 Q 167 -2 144 -15 Q 121 -28 103.5 -48 Q 86 -68 75 -92 Q 64 -116 60 -142.5 Q 56 -169 56 -195 L 56 -540 Q 56 -565 59 -589.5 Q 62 -614 70.5 -637.5 Q 79 -661 94 -681.5 Q 109 -702 129.5 -716.5 Q 150 -731 174.5 -737 Q 199 -743 224 -743 Q 245 -743 266.5 -739 Q 288 -735 307 -725 Q 326 -715 341 -699.5 Q 356 -684 367 -666 L 367 -735 L 436 -735 L 436 -555 L 367 -555 Q 367 -579 360 -602 Q 353 -625 336.5 -642 Q 320 -659 297 -666 Q 274 -673 250 -673 Q 234 -673 217 -669.5 Q 200 -666 186 -657 Q 172 -648 161.5 -634.5 Q 151 -621 144.5 -605.5 Q 138 -590 136 -573.5 Q 134 -557 134 -540 L 134 -195 Q 134 -179 136 -162.5 Q 138 -146 144 -130.5 Q 150 -115 160 -101.5 Q 170 -88 183.5 -79 Q 197 -70 213.5 -66 Q 230 -62 246 -62 Q 262 -62 278.5 -66 Q 295 -70 308.5 -79 Q 322 -88 332 -101.5 Q 342 -115 348 -130.5 Q 354 -146 356 -162.5 Q 358 -179 358 -195 L 358 -330 L 250 -330 L 250 -400 L 436 -400 L 436 -195 Q 436 -169 432 -142.5 Q 428 -116 417 -92 Q 406 -68 388.5 -48 Q 371 -28 348 -15 Q 325 -2 298.5 3 Q 272 8 246 8 Z " id="path1"/>
</defs>
<g>
<g data-source-text="G" fill="#20242e" transform="translate(40 104.99201) rotate(0) scale(0.09599999)">
<use href="#path1" transform="translate(0 0)"/>
</g>
</g>
</svg>