<?xml version="1.0" encoding="UTF-8" standalone="no"?>
<svg height="160" viewBox="0 0 128 160" width="128" xmlns="http://www.w3.org/2000/svg">
<defs>
<path d="M 220 -400 L 216 -593 L 211 -593 L 211 -735 L 289 -735 L 289 -593 L 284 -593 L 280 -400 Z M 211 0 L 211 -143 L 216 -143 L 220 -335 L 280 -335 L 284 -143 L 289 -143 L 289 0 Z M 247 -100 Q 221 -100 194 -105 Q 167 -110 144 -123.5 Q 121 -137 103.5 -157.5 Q 86 -178 75 -202.5 Q 64 -227 60 -254 Q 56 -281 56 -308 L 56 -428 Q 56 -454 60 -481 Q 64 -508 75 -532.5 Q 86 -557 103.5 -577.5 Q 121 -598 144 -611.5 Q 167 -625 194 -630 Q 221 -635 247 -635 Q 272 -635 297 -631 Q 322 -627 344.5 -616 Q 367 -605 385 -587 Q 403 -569 415 -547.5 Q 427 -526 432.5 -501 Q 438 -476 438 -451 L 438 -450 L 360 -450 L 360 -451 Q 360 -474 353 -496 Q 346 -518 330 -534.5 Q 314 -551 292 -558 Q 270 -565 247 -565 Q 230 -565 213.5 -561 Q 197 -557 183 -547.5 Q 169 -538 159.5 -524 Q 150 -510 144 -494 Q 138 -478 136 -461 Q 134 -444 134 -428 L 134 -308 Q 134 -291 136 -274 Q 138 -257 144 -241 Q 150 -225 159.5 -211 Q 169 -197 183 -187.5 Q 197 -178 213.5 -174 Q 230 -170 247 -170 Q 270 -170 292 -177 Q 314 -184 330 -200.5 Q 346 -217 353 -239 Q 360 -261 360 -284 L 360 -285 L 438 -285 L 438 -284 Q 438 -259 432.5 -234 Q 427 -209 415 -187.5 Q 403 -166 385 -148 Q 367 -130 344.5 -119 Q 322 -108 297 -104 Q 272 -100 247 -100 Z " id="path1"/>
</defs>
<g>
<g data-source-text="¢" fill="#dee4e3" transform="translate(40 104.99201) rotate(0) scale(0.09599999)">
<use href="#path1" transform="translate(0 0)"/>
</g>
</g>
</svg>