<svg xmlns="http://www.w3.org/2000/svg" height="160" viewBox="0 0 128 160" width="128"><defs><path d="M 64 0 L 64 -520 L 142 -520 L 142 -287 Q 152 -295 162 -303.5 Q 172 -312 182 -320.5 Q 192 -329 202 -337.5 Q 212 -346 221.5 -355 Q 231 -364 240.5 -373 Q 250 -382 259 -391.5 Q 268 -401 277 -410.5 Q 286 -420 294.5 -430 Q 303 -440 311 -450.5 Q 319 -461 326.5 -472 Q 334 -483 340 -495 Q 346 -507 346 -520 L 436 -520 Q 436 -502 427.5 -486 Q 419 -470 409.5 -455.5 Q 400 -441 389 -427 Q 378 -413 366 -400 Q 354 -387 342 -374 Q 330 -361 317.5 -348.5 Q 305 -336 292.5 -324 Q 280 -312 267 -300 Q 281 -283 294.5 -265.5 Q 308 -248 321.5 -230.5 Q 335 -213 348 -195 Q 361 -177 373 -159 Q 385 -141 396.5 -122 Q 408 -103 418 -83.5 Q 428 -64 436 -43 Q 444 -22 444 0 L 366 0 Q 366 -19 359 -36.5 Q 352 -54 343.5 -70.5 Q 335 -87 325.5 -103 Q 316 -119 305 -134.5 Q 294 -150 283 -165 Q 272 -180 260.5 -195 Q 249 -210 237.5 -224.5 Q 226 -239 214 -253 Q 196 -238 178 -223.5 Q 160 -209 142 -195 L 142 0 Z " id="path1"/></defs><g><g fill="#dee4e3" transform="translate(40 105.20961) rotate(0)"><use href="#path1" transform="translate(0 0) scale(0.09599999)"/></g></g></svg>