<?xml version="1.0" encoding="UTF-8" standalone="no"?>
<svg height="160" viewBox="0 0 128 160" width="128" xmlns="http://www.w3.org/2000/svg">
<defs>
<path d="M 374 0 L 374 -520 L 452 -520 L 452 0 Z M 183 8 Q 163 8 143 3 Q 123 -2 106.5 -14.5 Q 90 -27 78.5 -44 Q 67 -61 60 -80 Q 53 -99 50.5 -119.5 Q 48 -140 48 -160 L 48 -520 L 126 -520 L 126 -321 L 179 -321 Q 199 -321 219 -316.5 Q 239 -312 256 -301 Q 273 -290 285.5 -274 Q 298 -258 305.5 -239 Q 313 -220 315.5 -200 Q 318 -180 318 -159 Q 318 -139 315.5 -119 Q 313 -99 306.5 -79.5 Q 300 -60 288 -43 Q 276 -26 259.5 -14 Q 243 -2 223.5 3 Q 204 8 183 8 Z M 183 -62 Q 194 -62 203.5 -66.5 Q 213 -71 219.5 -79.5 Q 226 -88 230 -97.5 Q 234 -107 236.5 -117.5 Q 239 -128 239.5 -138.5 Q 240 -149 240 -159 Q 240 -175 238 -190.5 Q 236 -206 229 -219.5 Q 222 -233 208.5 -242 Q 195 -251 179 -251 L 126 -251 L 126 -161 Q 126 -150 127 -139.5 Q 128 -129 130 -118.5 Q 132 -108 136 -98 Q 140 -88 146.5 -80 Q 153 -72 163 -67 Q 173 -62 183 -62 Z " id="path1"/>
</defs>
<g>
<g data-source-text="ы" fill="#20242e" transform="translate(40 104.99201) rotate(0) scale(0.09599999)">
<use href="#path1" transform="translate(0 0)"/>
</g>
</g>
</svg>