<?xml version="1.0" encoding="UTF-8" standalone="no"?>
<svg height="160" viewBox="0 0 128 160" width="128" xmlns="http://www.w3.org/2000/svg">
<defs>
<path d="M 184 108 L 193 3 Q 171 -2 151 -12.5 Q 131 -23 115 -38 Q 99 -53 87 -72 Q 75 -91 68 -112.5 Q 61 -134 58.5 -156 Q 56 -178 56 -200 L 56 -320 Q 56 -346 59.5 -371.5 Q 63 -397 73 -421 Q 83 -445 99.5 -465.5 Q 116 -486 137.5 -500 Q 159 -514 184.5 -520.5 Q 210 -527 236 -528 L 244 -628 L 316 -628 L 307 -522 Q 336 -515 361.5 -498.5 Q 387 -482 404.5 -457.5 Q 422 -433 430 -404 Q 438 -375 438 -345 L 438 -340 L 360 -340 L 360 -343 Q 360 -360 356.5 -376 Q 353 -392 345 -406 Q 337 -420 325 -431.5 Q 313 -443 298 -449 L 284 -292 L 221 -292 L 234 -458 Q 210 -456 189 -443.5 Q 168 -431 155.5 -411 Q 143 -391 138.5 -367.5 Q 134 -344 134 -320 L 134 -200 Q 134 -180 137 -160.5 Q 140 -141 148 -123.5 Q 156 -106 170 -91.5 Q 184 -77 202 -70 L 216 -227 L 279 -227 L 266 -63 Q 287 -65 305.5 -74.5 Q 324 -84 336.5 -100.5 Q 349 -117 354.5 -136.5 Q 360 -156 360 -177 L 360 -180 L 438 -180 L 438 -175 Q 438 -140 426.5 -106 Q 415 -72 391 -46 Q 367 -20 333.5 -7 Q 300 6 264 8 L 256 108 Z " id="path1"/>
</defs>
<g>
<g data-source-text="¢" fill="#20242e" transform="translate(40 104.99201) rotate(0) scale(0.09599999)">
<use href="#path1" transform="translate(0 0)"/>
</g>
</g>
</svg>