<?xml version="1.0" encoding="UTF-8" standalone="no"?>
<svg height="160" viewBox="0 0 128 160" width="128" xmlns="http://www.w3.org/2000/svg">
<defs>
<path d="M 51 0 L 55 -104 Q 58 -191 64 -278.5 Q 70 -366 71 -454 L 35 -454 L 35 -520 L 184 -520 L 250 -168 L 316 -520 L 428 -520 Q 428 -416 434.5 -312 Q 441 -208 445 -104 L 449 0 L 375 0 L 371 -104 Q 368 -186 365.5 -268.5 Q 363 -351 363 -433 L 281 0 L 219 0 L 137 -433 L 137 -403 Q 137 -328 134.5 -253.5 Q 132 -179 129 -104 L 125 0 Z " id="path1"/>
</defs>
<g>
<g data-source-text="м" fill="#dee4e3" transform="translate(40 104.99201) rotate(0) scale(0.09599999)">
<use href="#path1" transform="translate(0 0)"/>
</g>
</g>
</svg>