<svg xmlns="http://www.w3.org/2000/svg" height="160" viewBox="0 0 128 160" width="128"><defs><path d="M 246.00002 8 C 228.00002 8 210.50002 6.1666665 193.50002 2.5000002 C 176.50002 -1.1666665 160.33334 -7.3333335 145 -16 C 129.66667 -24.666666 116 -35.666664 104.00001 -49 C 92.00001 -62.333336 82.333336 -77.00001 75.00001 -93.00001 C 67.666664 -109.00001 62.666668 -125.66667 60.000004 -143 C 57.333332 -160.33334 55.999996 -177.66667 56 -195 L 56 -540 C 55.999996 -557.3333 57.333332 -574.6667 60.000004 -592 C 62.666668 -609.3333 67.666664 -626 75.00001 -642 C 82.333336 -658 92.00001 -672.6666 104.00001 -686.00006 C 116 -699.3334 129.66667 -710.3334 145 -719.00006 C 160.33334 -727.66675 176.50002 -733.8333 193.50002 -737.50006 C 210.50002 -741.1667 228.00002 -743.00006 246.00002 -743.00006 C 279.3333 -743.00006 312 -738.1667 344.00003 -728.5 C 376.00003 -718.8333 406.6667 -705.6666 436 -689 L 436 -555 L 359.00003 -555 L 359.00003 -647 C 341 -654.3333 322.83334 -660.5 304.5 -665.5 C 286.1667 -670.5 267.33334 -673.00006 248.00002 -673.00006 C 236.66667 -673.00006 225.66667 -671.6666 215 -669 C 204.33333 -666.3333 194.33333 -662 185.00002 -656.00006 C 175.66666 -650 167.5 -642.5 160.5 -633.50006 C 153.5 -624.5 148 -615 144.00002 -605.00006 C 140.00002 -595 137.33334 -584.5 136 -573.5 C 134.66667 -562.5 134 -551.3334 134 -540 L 134 -195 C 134 -183.66667 134.66667 -172.5 136 -161.5 C 137.33334 -150.5 140.00002 -140.00002 144.00002 -130.00002 C 148 -120.00001 153.5 -110.5 160.5 -101.50001 C 167.5 -92.49999 175.66666 -85 185.00002 -79 C 194.33333 -73.00001 204.33333 -68.66667 215 -66 C 225.66667 -63.333336 236.66667 -62.000004 248.00002 -62.000004 C 266.6667 -62.000004 285.33334 -64.5 304 -69.5 C 322.6667 -74.5 340.66666 -80.66667 358 -88 L 358 -330 L 250 -330 L 250 -400.00003 L 476 -400.00003 L 476 -330 L 436 -330 L 436 -46 C 406.6667 -29.333334 376.00003 -16.166668 344.00003 -6.5000005 C 312 3.1666663 279.3333 8 246.00002 8 Z " id="path1"/></defs><g><g fill="#000000" transform="translate(40 105.20961) rotate(0)"><use href="#path1" transform="translate(0 0) scale(0.09599999)"/></g></g></svg>