<?xml version="1.0" encoding="UTF-8" standalone="no"?>
<svg height="160" viewBox="0 0 128 160" width="128" xmlns="http://www.w3.org/2000/svg">
<defs>
<path d="M 253 8 Q 228 8 203.5 4 Q 179 0 156.5 -11 Q 134 -22 115.5 -39.5 Q 97 -57 85 -78.5 Q 73 -100 67.5 -124.5 Q 62 -149 62 -174 L 62 -180 L 140 -180 L 140 -176 Q 140 -153 147 -131 Q 154 -109 170 -92.5 Q 186 -76 208 -69 Q 230 -62 253 -62 Q 278 -62 301.5 -72 Q 325 -82 340 -101.5 Q 355 -121 360.5 -145.5 Q 366 -170 366 -195 L 366 -333 L 194 -333 L 194 -403 L 366 -403 L 366 -540 Q 366 -557 363.5 -574 Q 361 -591 354.5 -606.5 Q 348 -622 336.5 -635.5 Q 325 -649 310 -657.5 Q 295 -666 278 -669.5 Q 261 -673 244 -673 Q 218 -673 191.5 -666.5 Q 165 -660 141 -648 L 141 -555 L 64 -555 L 64 -686 Q 103 -713 149.5 -728 Q 196 -743 244 -743 Q 271 -743 298 -738 Q 325 -733 349 -721 Q 373 -709 392 -689 Q 411 -669 423 -645 Q 435 -621 439.5 -594 Q 444 -567 444 -540 L 444 -195 Q 444 -169 440 -142.5 Q 436 -116 425 -92 Q 414 -68 396 -48 Q 378 -28 355 -15 Q 332 -2 305.5 3 Q 279 8 253 8 Z " id="path1"/>
</defs>
<g>
<g data-source-text="Э" fill="#dee4e3" transform="translate(40 104.99201) rotate(0) scale(0.09599999)">
<use href="#path1" transform="translate(0 0)"/>
</g>
</g>
</svg>