<?xml version="1.0" encoding="UTF-8" standalone="no"?>
<svg height="160" viewBox="0 0 128 160" width="128" xmlns="http://www.w3.org/2000/svg">
<defs>
<path d="M 211 107 L 211 6 Q 188 3 165.5 -6 Q 143 -15 124.5 -30 Q 106 -45 92.5 -64.5 Q 79 -84 70.5 -106.5 Q 62 -129 59 -152.5 Q 56 -176 56 -200 L 56 -320 Q 56 -344 59 -367.5 Q 62 -391 70.5 -413.5 Q 79 -436 92.5 -455.5 Q 106 -475 124.5 -490 Q 143 -505 165.5 -514 Q 188 -523 211 -526 L 211 -628 L 289 -628 L 289 -525 Q 321 -521 350 -505.5 Q 379 -490 399 -465 Q 419 -440 428.5 -408.5 Q 438 -377 438 -345 L 438 -340 L 360 -340 L 360 -343 Q 360 -366 353 -388 Q 346 -410 330 -426.5 Q 314 -443 292 -450.5 Q 270 -458 247 -458 Q 230 -458 213.5 -454 Q 197 -450 183 -440 Q 169 -430 159.5 -416 Q 150 -402 144 -386.5 Q 138 -371 136 -354 Q 134 -337 134 -320 L 134 -200 Q 134 -183 136 -166 Q 138 -149 144 -133.5 Q 150 -118 159.5 -104 Q 169 -90 183 -80 Q 197 -70 213.5 -66 Q 230 -62 247 -62 Q 270 -62 292 -69.5 Q 314 -77 330 -93.5 Q 346 -110 353 -132 Q 360 -154 360 -177 L 360 -180 L 438 -180 L 438 -175 Q 438 -143 428.5 -111.5 Q 419 -80 399 -55 Q 379 -30 350 -14.5 Q 321 1 289 5 L 289 107 Z " id="path1"/>
</defs>
<g>
<g data-source-text="¢" fill="#20242e" transform="translate(40 104.99201) rotate(0) scale(0.09599999)">
<use href="#path1" transform="translate(0 0)"/>
</g>
</g>
</svg>