<?xml version="1.0" encoding="UTF-8" standalone="no"?>
<svg height="160" viewBox="0 0 128 160" width="128" xmlns="http://www.w3.org/2000/svg">
<defs>
<path d="M 35 0 Q 35 -26 40 -51.5 Q 45 -77 52 -101.5 Q 59 -126 68 -150.5 Q 77 -175 86.5 -199 Q 96 -223 106.5 -246.5 Q 117 -270 129 -293 Q 110 -318 94.5 -345 Q 79 -372 66 -400.5 Q 53 -429 44 -459 Q 35 -489 35 -520 L 105 -520 Q 105 -487 116 -456 Q 127 -425 142 -396 Q 157 -367 175.5 -340 Q 194 -313 215 -288 L 215 -520 L 285 -520 L 285 -288 Q 306 -313 324.5 -340 Q 343 -367 358 -396 Q 373 -425 384 -456 Q 395 -487 395 -520 L 465 -520 Q 465 -489 456 -459 Q 447 -429 434 -400.5 Q 421 -372 405.5 -345 Q 390 -318 371 -293 Q 383 -270 393.5 -246.5 Q 404 -223 413.5 -199 Q 423 -175 432 -150.5 Q 441 -126 448 -101.5 Q 455 -77 460 -51.5 Q 465 -26 465 0 L 395 0 Q 395 -31 387.5 -61 Q 380 -91 370.5 -120.5 Q 361 -150 349 -178.5 Q 337 -207 325 -235 Q 315 -224 305.5 -214 Q 296 -204 285 -195 L 285 0 L 215 0 L 215 -195 Q 204 -204 194.5 -214 Q 185 -224 175 -235 Q 163 -207 151 -178.5 Q 139 -150 129.5 -120.5 Q 120 -91 112.5 -61 Q 105 -31 105 0 Z " id="path1"/>
</defs>
<g>
<g data-source-text="ж" fill="#20242e" transform="translate(40 104.99201) rotate(0) scale(0.09599999)">
<use href="#path1" transform="translate(0 0)"/>
</g>
</g>
</svg>