<?xml version="1.0" encoding="UTF-8" standalone="no"?>
<svg height="160" viewBox="0 0 128 160" width="128" xmlns="http://www.w3.org/2000/svg">
<defs>
<path d="M 211 0 L 211 -102 Q 188 -105 165.5 -113.5 Q 143 -122 124.5 -137 Q 106 -152 92.5 -172 Q 79 -192 70.5 -214 Q 62 -236 59 -260 Q 56 -284 56 -308 L 56 -428 Q 56 -451 59 -475 Q 62 -499 70.5 -521 Q 79 -543 92.5 -563 Q 106 -583 124.5 -598 Q 143 -613 165.5 -621.5 Q 188 -630 211 -633 L 211 -735 L 289 -735 L 289 -633 Q 321 -628 350 -612.5 Q 379 -597 399 -572 Q 419 -547 428.5 -516 Q 438 -485 438 -453 L 438 -448 L 360 -448 L 360 -451 Q 360 -469 355.5 -487 Q 351 -505 341 -520.5 Q 331 -536 315.5 -546.5 Q 300 -557 282 -562 L 281 -400 L 219 -400 L 218 -563 Q 197 -558 179.5 -544 Q 162 -530 151.5 -511 Q 141 -492 137.5 -470.5 Q 134 -449 134 -428 L 134 -308 Q 134 -286 137.5 -264.5 Q 141 -243 151.5 -224 Q 162 -205 179.5 -191 Q 197 -177 218 -172 L 219 -335 L 281 -335 L 282 -173 Q 300 -178 315.5 -188.5 Q 331 -199 341 -214.5 Q 351 -230 355.5 -248 Q 360 -266 360 -284 L 360 -288 L 438 -288 L 438 -282 Q 438 -250 428.5 -219 Q 419 -188 399 -163 Q 379 -138 350 -122.5 Q 321 -107 289 -102 L 289 0 Z " id="path1"/>
</defs>
<g>
<g data-source-text="¢" fill="#dee4e3" transform="translate(40 104.99201) rotate(0) scale(0.09599999)">
<use href="#path1" transform="translate(0 0)"/>
</g>
</g>
</svg>