<svg xmlns="http://www.w3.org/2000/svg" height="160" viewBox="0 0 128 160" width="128"><defs><path d="M 249 8 Q 224 8 199 4 Q 174 0 151.5 -10.5 Q 129 -21 110 -38 Q 91 -55 78.5 -76.5 Q 66 -98 60 -122.5 Q 54 -147 54 -172 Q 54 -173 54 -173.5 Q 54 -174 54 -175 L 132 -175 Q 132 -175 132 -174.5 Q 132 -174 132 -173 Q 132 -151 140 -129 Q 148 -107 164.5 -91 Q 181 -75 203.5 -68.5 Q 226 -62 249 -62 Q 272 -62 295.5 -69.5 Q 319 -77 335 -94.5 Q 351 -112 359 -135 Q 367 -158 367 -182 Q 367 -207 356.5 -231 Q 346 -255 328 -273.5 Q 310 -292 287.5 -304.5 Q 265 -317 242 -328.5 Q 219 -340 197 -352.5 Q 175 -365 155 -381 Q 135 -397 117.5 -416 Q 100 -435 88 -457.5 Q 76 -480 69.5 -505 Q 63 -530 63 -556 Q 63 -579 68 -602 Q 73 -625 81.5 -646.5 Q 90 -668 104 -687 Q 118 -706 137.5 -719 Q 157 -732 180 -737.5 Q 203 -743 226 -743 Q 246 -743 265.5 -739.5 Q 285 -736 302.5 -726.5 Q 320 -717 334.5 -703.5 Q 349 -690 359 -673 L 359 -735 L 436 -735 L 436 -554 L 359 -554 Q 359 -577 353 -599.5 Q 347 -622 332.5 -639.5 Q 318 -657 295.5 -665 Q 273 -673 251 -673 Q 228 -673 206 -665 Q 184 -657 169.5 -639.5 Q 155 -622 148 -600 Q 141 -578 141 -555 Q 141 -530 151.5 -506 Q 162 -482 179.5 -463.5 Q 197 -445 219 -432 Q 241 -419 264 -407.5 Q 287 -396 309 -383.5 Q 331 -371 351.5 -355.5 Q 372 -340 389 -321 Q 406 -302 418.5 -279.5 Q 431 -257 437.5 -232 Q 444 -207 444 -182 Q 444 -156 438 -131 Q 432 -106 420 -83 Q 408 -60 389.5 -42 Q 371 -24 348 -12.5 Q 325 -1 299.5 3.5 Q 274 8 249 8 Z " id="path1"/></defs><g><g fill="#20242e" transform="translate(40 105.20961) rotate(0)"><use href="#path1" transform="translate(0 0) scale(0.09599999)"/></g></g></svg>