<svg xmlns="http://www.w3.org/2000/svg" height="160" viewBox="0 0 128 160" width="128"><defs><path d="M 251.00002 8 C 235 8 218.99998 6.833333 203.00002 4.5000005 C 187 2.1666667 171.66667 -2.0000002 157.00002 -8 C 142.33333 -14 128.83334 -22.166668 116.5 -32.500004 C 104.16667 -42.833336 94.00001 -55 86.00001 -69 C 78 -83 72.333336 -97.833336 69 -113.5 C 65.666664 -129.16667 64 -145 64 -161.00002 L 64 -520.00006 L 142 -520.00006 L 142 -274.00003 C 150 -282.66666 159 -290.16666 169.00002 -296.50003 C 179 -302.8333 189.5 -307.8333 200.50002 -311.5 C 211.50002 -315.1667 223 -317.6667 235 -319.00003 C 247 -320.33334 258.6667 -321 270 -321 C 285.3333 -321 300.33334 -319.8333 315 -317.5 C 329.66666 -315.16666 343.83334 -311 357.5 -305.00003 C 371.1667 -299 383.83334 -291 395.5 -281 C 407.16666 -271 416.66663 -259.66666 424 -247 C 431.33334 -234.33333 436.5 -220.5 439.50003 -205.50002 C 442.5 -190.5 444.00003 -175.66667 444.00003 -161.00002 C 444.00003 -145 442.16666 -128.83334 438.50003 -112.50001 C 434.83334 -96.166664 428.6667 -81.166664 420 -67.5 C 411.33334 -53.833336 400.66666 -42.000004 388.00003 -32 C 375.3333 -22 361.5 -14 346.5 -8 C 331.49997 -2.0000002 315.83334 2.1666667 299.50003 4.5000005 C 283.16666 6.833333 267 8 251.00002 8 Z M 251.00002 -62.000004 C 265 -62.000004 279.16666 -63.666668 293.5 -67 C 307.8333 -70.333336 320.66666 -76.333336 332 -85 C 343.33334 -93.666664 351.83334 -104.66667 357.5 -118.00001 C 363.16666 -131.33333 366.00003 -145.33333 366.00003 -160.00002 C 366.00003 -168.66667 364.83337 -177.66667 362.5 -187 C 360.1667 -196.33333 356.1667 -204.66666 350.5 -212 C 344.8333 -219.33334 338.16666 -225.66667 330.50003 -231.00002 C 322.83334 -236.33334 314.5 -240.5 305.50003 -243.5 C 296.5 -246.5 287.5 -248.5 278.5 -249.5 C 269.5 -250.50002 260.33334 -251.00002 251.00002 -251.00002 C 237.66667 -251.00002 224.33333 -249.5 211.00002 -246.5 C 197.66667 -243.5 185.50002 -238.16666 174.50002 -230.50002 C 163.5 -222.83333 155.33333 -212.66667 150.00002 -200.00002 C 144.66667 -187.33333 142 -174.33334 142 -161.00002 C 142 -147.00002 144.5 -133.16667 149.5 -119.50001 C 154.5 -105.833336 162.33333 -94.5 173 -85.50001 C 183.66667 -76.5 195.83333 -70.333336 209.5 -67 C 223.16667 -63.666668 237 -62.000004 251.00002 -62.000004 Z " id="path1"/></defs><g><g fill="#000000" transform="translate(40 105.20961) rotate(0)"><use href="#path1" transform="translate(0 0) scale(0.09599999)"/></g></g></svg>