<?xml version="1.0" encoding="UTF-8" standalone="no"?>
<svg height="160" viewBox="0 0 128 160" width="128" xmlns="http://www.w3.org/2000/svg">
<defs>
<path d="M 211 107 L 211 6 Q 188 3 165.5 -6 Q 143 -15 124.5 -30 Q 106 -45 92.5 -64.5 Q 79 -84 70.5 -106.5 Q 62 -129 59 -152.5 Q 56 -176 56 -200 L 56 -320 Q 56 -344 59 -367.5 Q 62 -391 70.5 -413.5 Q 79 -436 92.5 -455.5 Q 106 -475 124.5 -490 Q 143 -505 165.5 -514 Q 188 -523 211 -526 L 211 -628 L 289 -628 L 289 -525 Q 321 -521 350 -505.5 Q 379 -490 399 -464.5 Q 419 -439 428.5 -407.5 Q 438 -376 438 -344 L 438 -342 L 360 -342 L 360 -343 Q 360 -362 355.5 -380 Q 351 -398 340.5 -413.5 Q 330 -429 314 -439.5 Q 298 -450 280 -455 L 280 -65 Q 298 -70 314 -80.5 Q 330 -91 340.5 -106.5 Q 351 -122 355.5 -140 Q 360 -158 360 -177 L 360 -178 L 438 -178 L 438 -176 Q 438 -144 428.5 -112.5 Q 419 -81 399 -55.5 Q 379 -30 350 -14.5 Q 321 1 289 5 L 289 107 Z M 220 -64 L 220 -456 Q 198 -451 180.5 -437.5 Q 163 -424 152 -404.5 Q 141 -385 137.5 -363.5 Q 134 -342 134 -320 L 134 -200 Q 134 -178 137.5 -156.5 Q 141 -135 152 -115.5 Q 163 -96 180.5 -82.5 Q 198 -69 220 -64 Z " id="path1"/>
</defs>
<g>
<g data-source-text="¢" fill="#20242e" transform="translate(40 104.99201) rotate(0) scale(0.09599999)">
<use href="#path1" transform="translate(0 0)"/>
</g>
</g>
</svg>