<svg xmlns="http://www.w3.org/2000/svg" height="160" viewBox="0 0 128 160" width="128"><defs><path d="M 49 0 L 49 -70.00001 L 95 -70.00001 L 95 -450.00003 L 49 -450.00003 L 49 -520.00006 L 219.00002 -520.00006 L 219.00002 -450.00003 L 173 -450.00003 L 173 -270 C 180.33334 -277.33334 187.5 -284.66666 194.50002 -292 C 201.5 -299.3333 208.5 -306.8333 215.5 -314.5 C 222.50002 -322.16666 229.5 -329.83334 236.50002 -337.50003 C 243.5 -345.1667 250.33334 -353.00003 257.00003 -361.00003 C 263.6667 -369 270.1667 -377 276.5 -385 C 282.83334 -392.99997 289.16666 -401.1667 295.5 -409.50003 C 301.8333 -417.83334 307.8333 -426.33337 313.50003 -435.00003 C 319.16666 -443.66666 324.5 -452.5 329.5 -461.50003 C 334.5 -470.5 339 -479.83334 343.00003 -489.50003 C 347 -499.16666 349.00003 -509.3333 349.00003 -520.00006 L 482 -520.00006 L 482 -450.00003 L 412.00003 -450.00003 C 396 -421.3333 377.66666 -394 357 -368 C 336.3333 -341.99997 315 -316.66666 293 -292 C 305.66666 -274 318.16666 -256.16666 330.50003 -238.5 C 342.83337 -220.83333 354.6667 -202.83334 366.00003 -184.5 C 377.33334 -166.16667 388.1667 -147.5 398.50003 -128.50002 C 408.83334 -109.500015 418.33334 -90.00001 427.00003 -70.00001 L 482 -70.00001 L 482 0 L 366.00003 0 C 366.00003 -15.333333 363.33334 -30 358 -44 C 352.66666 -58 346.66666 -71.833336 340 -85.50001 C 333.33334 -99.166664 326.1667 -112.49999 318.5 -125.50001 C 310.83334 -138.5 302.8333 -151.33334 294.5 -164.00002 C 286.16666 -176.66666 277.83334 -189.16667 269.5 -201.5 C 261.1667 -213.83334 252.33334 -226 243.00002 -238 C 231.66667 -226 220.16667 -214.33334 208.50002 -203.00002 C 196.83334 -191.66669 185.00002 -180.33334 173 -169.00002 L 173 -70.00001 L 219.00002 -70.00001 L 219.00002 0 Z " id="path1"/></defs><g><g fill="#ffffff" transform="translate(40 105.20961) rotate(0)"><use href="#path1" transform="translate(0 0) scale(0.09599999)"/></g></g></svg>