<svg xmlns="http://www.w3.org/2000/svg" height="160" viewBox="0 0 128 160" width="128"><defs><path d="M 341 8 Q 318 8 296 -1 Q 274 -10 253.5 -19.5 Q 233 -29 211.5 -37 Q 190 -45 168 -52 L 134 -62 L 134 0 L 64 0 L 64 -145 L 203 -366 L 105 -405 L 132 -465 L 238 -422 L 354 -606 L 323 -617 Q 302 -625 282 -633 Q 262 -641 242 -649.5 Q 222 -658 201.5 -665.5 Q 181 -673 159 -673 Q 148 -673 140.5 -663 Q 133 -653 130 -642 Q 127 -631 126 -619 Q 125 -607 125 -596 L 125 -553 L 48 -553 L 48 -596 Q 48 -613 50 -630.5 Q 52 -648 57 -664.5 Q 62 -681 71.5 -696 Q 81 -711 94.5 -722 Q 108 -733 125 -738 Q 142 -743 159 -743 Q 184 -743 208 -735.5 Q 232 -728 255.5 -719 Q 279 -710 302 -701 Q 325 -692 349 -683 L 366 -677 L 366 -735 L 436 -735 L 436 -590 L 312 -393 L 395 -360 L 368 -300 L 276 -336 L 147 -131 L 190 -119 Q 203 -115 215.5 -110.5 Q 228 -106 240.5 -100.5 Q 253 -95 265 -88.5 Q 277 -82 289 -76.5 Q 301 -71 314 -66.5 Q 327 -62 341 -62 Q 352 -62 359.5 -72 Q 367 -82 370 -93 Q 373 -104 374 -116 Q 375 -128 375 -139 L 375 -183 L 452 -183 L 452 -139 Q 452 -122 450 -104.5 Q 448 -87 443 -70.5 Q 438 -54 428.5 -39 Q 419 -24 405.5 -13 Q 392 -2 375 3 Q 358 8 341 8 Z " id="path1"/></defs><g><g fill="#dee4e3" transform="translate(40 105.20961) rotate(0)"><use href="#path1" transform="translate(0 0) scale(0.09599999)"/></g></g></svg>