<?xml version="1.0" encoding="UTF-8" standalone="no"?>
<svg height="160" viewBox="0 0 128 160" width="128" xmlns="http://www.w3.org/2000/svg">
<defs>
<path d="M 253 8 Q 229 8 206 5.5 Q 183 3 161 -4.5 Q 139 -12 119 -24.5 Q 99 -37 84.5 -55.5 Q 70 -74 62 -96.5 Q 54 -119 54 -142 L 54 -143 L 132 -143 Q 132 -122 144 -105 Q 156 -88 174 -78 Q 192 -68 212 -65 Q 232 -62 253 -62 Q 274 -62 295 -65.5 Q 316 -69 334.5 -80 Q 353 -91 363.5 -110 Q 374 -129 374 -150 Q 374 -165 369.5 -178.5 Q 365 -192 355 -202 Q 345 -212 332.5 -218.5 Q 320 -225 306 -229 Q 292 -233 278 -234 Q 264 -235 250 -235 L 194 -235 L 194 -305 L 250 -305 Q 262 -305 274.5 -306.5 Q 287 -308 299 -311 Q 311 -314 322 -320 Q 333 -326 341.5 -335 Q 350 -344 354 -356 Q 358 -368 358 -380 Q 358 -399 349 -415.5 Q 340 -432 324 -441.5 Q 308 -451 289.5 -454.5 Q 271 -458 253 -458 Q 235 -458 217 -455 Q 199 -452 183 -442.5 Q 167 -433 157.5 -417 Q 148 -401 148 -383 L 148 -382 L 70 -382 L 70 -384 Q 70 -406 77 -427 Q 84 -448 97 -465.5 Q 110 -483 128 -495.5 Q 146 -508 167 -515.5 Q 188 -523 209.5 -525.5 Q 231 -528 253 -528 Q 275 -528 297 -525.5 Q 319 -523 340 -515.5 Q 361 -508 379.5 -495 Q 398 -482 411 -464.5 Q 424 -447 430 -425 Q 436 -403 436 -381 Q 436 -363 431.5 -345.5 Q 427 -328 416.5 -313.5 Q 406 -299 391.5 -288.5 Q 377 -278 361 -271 Q 380 -264 397.5 -253 Q 415 -242 428 -226 Q 441 -210 446.5 -190 Q 452 -170 452 -149 Q 452 -125 445.5 -102 Q 439 -79 424.5 -59.5 Q 410 -40 389.5 -26.5 Q 369 -13 346.5 -5.5 Q 324 2 300 5 Q 276 8 253 8 Z " id="path1"/>
</defs>
<g>
<g data-source-text="ли" fill="#20242e" transform="translate(40 104.99201) rotate(0) scale(0.09599999)">
<use href="#path1" transform="translate(0 0)"/>
</g>
</g>
</svg>