<?xml version="1.0" encoding="UTF-8" standalone="no"?>
<svg height="160" viewBox="0 0 128 160" width="128" xmlns="http://www.w3.org/2000/svg">
<defs>
<path d="M 48 215 L 48 145 L 134 145 Q 150 145 166 139.5 Q 182 134 192.5 121.5 Q 203 109 207 93 Q 211 77 211 60 L 211 -42 Q 206 -31 199 -21.5 Q 192 -12 182 -5 Q 172 2 160.5 5 Q 149 8 137 8 Q 121 8 105.5 2.5 Q 90 -3 78.5 -14.5 Q 67 -26 59.5 -40.5 Q 52 -55 47.5 -70.5 Q 43 -86 41.5 -102.5 Q 40 -119 40 -135 L 40 -385 Q 40 -401 41.5 -417.5 Q 43 -434 47.5 -449.5 Q 52 -465 59.5 -479.5 Q 67 -494 78.5 -505.5 Q 90 -517 105.5 -522.5 Q 121 -528 137 -528 Q 149 -528 160.5 -525 Q 172 -522 182 -515 Q 192 -508 199 -498.5 Q 206 -489 211 -478 L 211 -580 Q 211 -601 214.5 -621.5 Q 218 -642 227.5 -660.5 Q 237 -679 252 -694 Q 267 -709 285.5 -718.5 Q 304 -728 324.5 -731.5 Q 345 -735 366 -735 L 452 -735 L 452 -665 L 366 -665 Q 350 -665 334 -659.5 Q 318 -654 307.5 -641.5 Q 297 -629 293 -613 Q 289 -597 289 -580 L 289 -478 Q 294 -489 301 -498.5 Q 308 -508 318 -515 Q 328 -522 339.5 -525 Q 351 -528 363 -528 Q 379 -528 394.5 -522.5 Q 410 -517 421.5 -505.5 Q 433 -494 440.5 -479.5 Q 448 -465 452.5 -449.5 Q 457 -434 458.5 -417.5 Q 460 -401 460 -385 L 460 -135 Q 460 -119 458.5 -102.5 Q 457 -86 452.5 -70.5 Q 448 -55 440.5 -40.5 Q 433 -26 421.5 -14.5 Q 410 -3 394.5 2.5 Q 379 8 363 8 Q 351 8 339.5 5 Q 328 2 318 -5 Q 308 -12 301 -21.5 Q 294 -31 289 -42 L 289 60 Q 289 81 285.5 101.5 Q 282 122 272.5 140.5 Q 263 159 248 174 Q 233 189 214.5 198.5 Q 196 208 175.5 211.5 Q 155 215 134 215 Z M 332 -62 Q 345 -62 355.5 -69 Q 366 -76 372 -87 Q 378 -98 380 -110 Q 382 -122 382 -135 L 382 -385 Q 382 -398 380 -410 Q 378 -422 372 -433 Q 366 -444 355.5 -451 Q 345 -458 332 -458 Q 320 -458 310.5 -450.5 Q 301 -443 296.5 -432 Q 292 -421 290.5 -409 Q 289 -397 289 -385 L 289 -135 Q 289 -123 290.5 -111 Q 292 -99 296.5 -88 Q 301 -77 311 -69.5 Q 321 -62 332 -62 Z M 168 -62 Q 180 -62 189.5 -69.5 Q 199 -77 203.5 -88 Q 208 -99 209.5 -111 Q 211 -123 211 -135 L 211 -385 Q 211 -397 209.5 -409 Q 208 -421 203.5 -432 Q 199 -443 189 -450.5 Q 179 -458 168 -458 Q 155 -458 144.5 -451 Q 134 -444 128 -433 Q 122 -422 120 -410 Q 118 -398 118 -385 L 118 -135 Q 118 -122 120 -110 Q 122 -98 128 -87 Q 134 -76 144.5 -69 Q 155 -62 168 -62 Z " id="path1"/>
</defs>
<g>
<g data-source-text="ф" fill="#20242e" transform="translate(40 104.99201) rotate(0) scale(0.09599999)">
<use href="#path1" transform="translate(0 0)"/>
</g>
</g>
</svg>