<svg xmlns="http://www.w3.org/2000/svg" height="160" viewBox="0 0 128 160" width="128"><defs><path d="M 211.00002 165 L 211.00002 5.0000005 C 195.66667 3 180.66667 -0.8333335 166 -6.5000005 C 151.33334 -12.166667 137.83334 -19.666668 125.50001 -29 C 113.16667 -38.333336 102.33333 -49.5 93.00001 -62.5 C 83.666664 -75.5 76.166664 -89.166664 70.5 -103.5 C 64.833336 -117.83333 61 -132.83334 59.000004 -148.50002 C 56.999996 -164.16667 55.999996 -179.66669 56 -195 L 56 -540 C 55.999996 -558 57.499996 -575.8333 60.500004 -593.50006 C 63.5 -611.1666 68.66667 -628 76 -644.00006 C 83.333336 -660 93.16667 -674.6667 105.50001 -688.00006 C 117.83334 -701.3334 131.83334 -712.1666 147.5 -720.5 C 163.16667 -728.8334 179.66666 -735.16675 197.00002 -739.50006 C 214.33334 -743.8333 232 -746 250 -746 C 268 -746 285.6667 -743.8333 303 -739.50006 C 320.33334 -735.16675 336.83334 -728.8334 352.5 -720.5 C 368.1667 -712.1666 382.1667 -701.3334 394.50003 -688.00006 C 406.83334 -674.6667 416.66663 -660 424 -644.00006 C 431.33334 -628 436.5 -611.1666 439.50003 -593.50006 C 442.5 -575.8333 444.00003 -558 444.00003 -540 L 444.00003 -195 C 444.00003 -179.66669 443 -164.16667 441 -148.50002 C 438.99997 -132.83334 435.1667 -117.83333 429.50003 -103.5 C 423.83334 -89.166664 416.33334 -75.5 407 -62.5 C 397.66666 -49.5 386.8333 -38.333336 374.5 -29 C 362.16666 -19.666668 348.6667 -12.166667 334 -6.5000005 C 319.3333 -0.8333335 304.33334 3 289 5.0000005 L 289 165 Z M 212 -67 L 212 -223.00002 L 288.00003 -223.00002 L 288.00003 -67 C 301.33334 -70.333336 313.33334 -76.5 324 -85.50001 C 334.66666 -94.5 343.1667 -105 349.50003 -117.00001 C 355.83334 -129 360.1667 -141.66667 362.5 -155 C 364.83337 -168.33334 366.00003 -181.66666 366.00003 -195 L 366.00003 -540 C 366.00003 -551.3334 365.33334 -562.5 364 -573.5 C 362.66666 -584.5 359.83334 -595.3334 355.50003 -606 C 351.1667 -616.6666 345.5 -626.5 338.5 -635.5 C 331.49997 -644.50006 323.16666 -651.8334 313.50003 -657.5 C 303.83334 -663.1667 293.33334 -667.1666 282 -669.50006 C 270.66666 -671.8334 259.33334 -673.00006 248.00002 -673.00006 C 237.33333 -673.00006 226.5 -671.6666 215.5 -669 C 204.5 -666.3333 194.33333 -662 185.00002 -656.00006 C 175.66666 -650 167.66667 -642.5 161.00002 -633.50006 C 154.33334 -624.5 148.83334 -615 144.5 -605.00006 C 140.16667 -595 137.33334 -584.5 136 -573.5 C 134.66667 -562.5 134 -551.3334 134 -540 L 134 -195 C 134 -181.66666 135.16667 -168.33334 137.5 -155 C 139.83333 -141.66667 144.16666 -129 150.5 -117.00001 C 156.83333 -105 165.33333 -94.5 176 -85.50001 C 186.66666 -76.5 198.66666 -70.333336 212 -67 Z " id="path1"/></defs><g><g fill="#000000" transform="translate(40 105.20961) rotate(0)"><use href="#path1" transform="translate(0 0) scale(0.09599999)"/></g></g></svg>