<svg xmlns="http://www.w3.org/2000/svg" height="160" viewBox="0 0 128 160" width="128"><defs><path d="M 211.00002 0 L 211.00002 -286 L 127.00001 -449 C 109.66667 -482.99997 95.50001 -518.1667 84.50001 -554.50006 C 73.5 -590.8334 67 -627.6666 65.00001 -665 L 18.000002 -665 L 18.000002 -735 L 142 -735 L 142 -691 C 142 -654.3333 146.83333 -618.3334 156.5 -583.00006 C 166.16667 -547.6667 179.33333 -513.6666 196 -481 L 250 -377.00003 L 304 -481 C 320.66666 -513.6666 333.8333 -547.6667 343.50003 -583.00006 C 353.16666 -618.3334 358 -654.3333 358 -691 L 358 -735 L 436 -735 L 436 -691 C 435.99997 -649 430.3333 -607.5 419 -566.5 C 407.66666 -525.5 392.3333 -486.3333 373 -449 L 289 -286 L 289 0 Z " id="path1"/></defs><g><g fill="#ffffff" transform="translate(40 105.20961) rotate(0)"><use href="#path1" transform="translate(0 0) scale(0.09599999)"/></g></g></svg>