<?xml version="1.0" encoding="UTF-8" standalone="no"?>
<svg height="160" viewBox="0 0 128 160" width="128" xmlns="http://www.w3.org/2000/svg">
<defs>
<path d="M 374 0 L 374 -520 L 452 -520 L 452 0 Z M 180 8 Q 160 8 140 2.5 Q 120 -3 104 -15 Q 88 -27 77 -44.5 Q 66 -62 59.5 -81 Q 53 -100 50.5 -120 Q 48 -140 48 -161 L 48 -520 L 126 -520 L 126 -291 Q 140 -306 159.5 -313.5 Q 179 -321 200 -321 Q 218 -321 236.5 -315.5 Q 255 -310 269 -298 Q 283 -286 293 -269.5 Q 303 -253 308.5 -235 Q 314 -217 316 -198.5 Q 318 -180 318 -161 Q 318 -141 315.5 -120 Q 313 -99 306 -80 Q 299 -61 287 -43.5 Q 275 -26 258 -14 Q 241 -2 221 3 Q 201 8 180 8 Z M 181 -62 Q 197 -62 210 -72.5 Q 223 -83 229.5 -97.5 Q 236 -112 238 -128 Q 240 -144 240 -160 Q 240 -175 238 -190.5 Q 236 -206 229 -219.5 Q 222 -233 209 -242 Q 196 -251 180 -251 Q 170 -251 161 -247 Q 152 -243 145.5 -235.5 Q 139 -228 135.5 -218.5 Q 132 -209 130 -199.5 Q 128 -190 127 -180 Q 126 -170 126 -161 Q 126 -150 126.5 -139.5 Q 127 -129 129.5 -119 Q 132 -109 135.5 -99 Q 139 -89 145 -80.5 Q 151 -72 160.5 -67 Q 170 -62 181 -62 Z " id="path1"/>
</defs>
<g>
<g data-source-text="ы" fill="#dee4e3" transform="translate(40 104.99201) rotate(0) scale(0.09599999)">
<use href="#path1" transform="translate(0 0)"/>
</g>
</g>
</svg>