<?xml version="1.0" encoding="UTF-8" standalone="no"?>
<svg height="160" viewBox="0 0 128 160" width="128" xmlns="http://www.w3.org/2000/svg">
<defs>
<path d="M 244 8 Q 196 8 149.5 -7 Q 103 -22 64 -49 L 64 -180 L 141 -180 L 141 -87 Q 165 -75 191 -68.5 Q 217 -62 244 -62 Q 261 -62 278.5 -65.5 Q 296 -69 311 -78.5 Q 326 -88 337 -101.5 Q 348 -115 354.5 -131.5 Q 361 -148 363.5 -165.5 Q 366 -183 366 -200 L 366 -225 L 194 -225 L 194 -295 L 366 -295 L 366 -320 Q 366 -337 363.5 -354.5 Q 361 -372 354.5 -388.5 Q 348 -405 337 -418.5 Q 326 -432 311 -441.5 Q 296 -451 278.5 -454.5 Q 261 -458 244 -458 Q 217 -458 191 -451.5 Q 165 -445 141 -433 L 141 -340 L 64 -340 L 64 -471 Q 103 -498 149.5 -513 Q 196 -528 244 -528 Q 271 -528 298.5 -523 Q 326 -518 350 -505 Q 374 -492 393 -471.5 Q 412 -451 423.5 -426.5 Q 435 -402 439.5 -374.5 Q 444 -347 444 -320 L 444 -200 Q 444 -173 439.5 -145.5 Q 435 -118 423.5 -93.5 Q 412 -69 393 -48.5 Q 374 -28 350 -15 Q 326 -2 298.5 3 Q 271 8 244 8 Z " id="path1"/>
</defs>
<g>
<g data-source-text="Ñ" fill="#dee4e3" transform="translate(40 104.99201) rotate(0) scale(0.09599999)">
<use href="#path1" transform="translate(0 0)"/>
</g>
</g>
</svg>