<svg xmlns="http://www.w3.org/2000/svg" height="160" viewBox="0 0 128 160" width="128"><defs><path d="M 49 0 L 49 -70.00001 L 95 -70.00001 L 95 -665 L 49 -665 L 49 -735 L 219.00002 -735 L 219.00002 -665 L 173 -665 L 173 -365.00003 C 183.00002 -379.66666 192.66667 -394.1667 202.00002 -408.5 C 211.33334 -422.83328 220.66667 -437.3333 230 -452.00003 C 239.33334 -466.6667 248.33334 -481.5 257.00003 -496.50003 C 265.6667 -511.50003 274.1667 -526.6667 282.50003 -542.00006 C 290.83334 -557.3334 298.83334 -572.6667 306.5 -588.00006 C 314.1667 -603.3334 321.1667 -619 327.50003 -635 C 333.83334 -651 339.66666 -667.3333 345 -684.00006 C 350.33334 -700.6667 353.00003 -717.6666 353.00003 -735 L 482 -735 L 482 -665 L 422.00003 -665 C 414.66666 -642.3334 406 -620.1667 396 -598.50006 C 386 -576.8334 375.3333 -555.3334 364 -534 C 352.66666 -512.6667 341 -491.66666 329 -471 C 317 -450.33337 304.66666 -430 292 -410.00003 C 306 -382.6667 319.6667 -355.1667 333 -327.50003 C 346.33334 -299.83334 359.1667 -271.83334 371.50003 -243.5 C 383.83334 -215.16666 395.5 -186.66667 406.50003 -158 C 417.50003 -129.33334 426.66666 -100.00001 434.00003 -70.00001 L 482 -70.00001 L 482 0 L 366.00003 0 C 366.00003 -20 363.5 -39.833332 358.5 -59.5 C 353.49997 -79.166664 347.8333 -98.5 341.5 -117.5 C 335.16666 -136.5 328.1667 -155.33333 320.5 -174.00002 C 312.83334 -192.66667 304.83334 -211.16667 296.50003 -229.5 C 288.16666 -247.83334 279.66666 -266.1667 271.00003 -284.5 C 262.33334 -302.8333 253.66667 -321 245.00002 -339 C 233 -321.66666 221 -304.6667 209.00002 -288.00003 C 197.00002 -271.33334 185.00002 -255 173 -239.00002 L 173 -70.00001 L 219.00002 -70.00001 L 219.00002 0 Z " id="path1"/></defs><g><g fill="#ffffff" transform="translate(40 105.20961) rotate(0)"><use href="#path1" transform="translate(0 0) scale(0.09599999)"/></g></g></svg>