<?xml version="1.0" encoding="UTF-8" standalone="no"?>
<svg height="160" viewBox="0 0 128 160" width="128" xmlns="http://www.w3.org/2000/svg">
<defs>
<path d="M 161 0 L 14 0 L 14 -70 L 51 -70 L 52 -104 Q 56 -191 62 -277 Q 68 -363 69 -450 L 35 -450 L 35 -520 L 163 -520 L 250 -249 L 337 -520 L 465 -520 L 465 -450 L 431 -450 Q 432 -363 438 -277 Q 444 -191 448 -104 L 449 -70 L 486 -70 L 486 0 L 339 0 L 339 -70 L 371 -70 L 370 -104 Q 367 -182 365.5 -259.5 Q 364 -337 363 -415 L 280 -156 L 220 -156 L 137 -415 Q 136 -337 134.5 -259.5 Q 133 -182 130 -104 L 129 -70 L 161 -70 Z " id="path1"/>
</defs>
<g>
<g data-source-text="м" fill="#20242e" transform="translate(40 104.99201) rotate(0) scale(0.09599999)">
<use href="#path1" transform="translate(0 0)"/>
</g>
</g>
</svg>