<?xml version="1.0" encoding="UTF-8" standalone="no"?>
<svg height="160" viewBox="0 0 128 160" width="128" xmlns="http://www.w3.org/2000/svg">
<defs>
<path d="M 10 0 L 10 -70 L 64 -70 L 64 -169 Q 64 -193 68 -216.5 Q 72 -240 83 -261 Q 94 -282 111 -298.5 Q 128 -315 150 -325 Q 125 -339 106 -360.5 Q 87 -382 75.5 -408 Q 64 -434 60 -462.5 Q 56 -491 56 -520 Q 56 -547 59.5 -574 Q 63 -601 73.5 -626 Q 84 -651 101 -672.5 Q 118 -694 141 -708.5 Q 164 -723 190.5 -729 Q 217 -735 244 -735 L 436 -735 L 436 0 L 358 0 L 358 -665 L 244 -665 Q 227 -665 210 -660 Q 193 -655 179.5 -644.5 Q 166 -634 157 -619 Q 148 -604 143 -587.5 Q 138 -571 136 -554 Q 134 -537 134 -520 Q 134 -502 136 -485 Q 138 -468 143 -451.5 Q 148 -435 157 -420 Q 166 -405 179.5 -394.5 Q 193 -384 210 -379 Q 227 -374 244 -374 L 301 -374 L 301 -304 L 226 -304 Q 211 -304 197 -298 Q 183 -292 173 -281 Q 163 -270 157 -256.5 Q 151 -243 147.5 -228.5 Q 144 -214 143 -199 Q 142 -184 142 -169 L 142 0 Z " id="path1"/>
</defs>
<g>
<g data-source-text="Я" fill="#20242e" transform="translate(40 104.99201) rotate(0) scale(0.09599999)">
<use href="#path1" transform="translate(0 0)"/>
</g>
</g>
</svg>