<?xml version="1.0" encoding="UTF-8" standalone="no"?>
<svg height="160" viewBox="0 0 128 160" width="128" xmlns="http://www.w3.org/2000/svg">
<defs>
<path d="M 253 8 Q 228 8 203.5 4 Q 179 0 156.5 -11 Q 134 -22 115.5 -39.5 Q 97 -57 85 -78.5 Q 73 -100 67.5 -124.5 Q 62 -149 62 -174 L 62 -180 L 140 -180 L 140 -176 Q 140 -153 147 -131 Q 154 -109 170 -92.5 Q 186 -76 208 -69 Q 230 -62 253 -62 Q 278 -62 301.5 -72 Q 325 -82 340 -101.5 Q 355 -121 360.5 -145.5 Q 366 -170 366 -195 L 366 -333 L 194 -333 L 194 -403 L 366 -403 L 366 -540 Q 366 -565 360.5 -589.5 Q 355 -614 340 -633.5 Q 325 -653 301.5 -663 Q 278 -673 253 -673 Q 230 -673 208 -666 Q 186 -659 170 -642.5 Q 154 -626 147 -604 Q 140 -582 140 -559 L 140 -555 L 62 -555 L 62 -561 Q 62 -586 67.5 -610.5 Q 73 -635 85 -656.5 Q 97 -678 115.5 -695.5 Q 134 -713 156.5 -724 Q 179 -735 203.5 -739 Q 228 -743 253 -743 Q 279 -743 305.5 -738 Q 332 -733 355 -720 Q 378 -707 396 -687 Q 414 -667 425 -643 Q 436 -619 440 -592.5 Q 444 -566 444 -540 L 444 -195 Q 444 -169 440 -142.5 Q 436 -116 425 -92 Q 414 -68 396 -48 Q 378 -28 355 -15 Q 332 -2 305.5 3 Q 279 8 253 8 Z " id="path1"/>
</defs>
<g>
<g data-source-text="Э" fill="#dee4e3" transform="translate(40 104.99201) rotate(0) scale(0.09599999)">
<use href="#path1" transform="translate(0 0)"/>
</g>
</g>
</svg>