<?xml version="1.0" encoding="UTF-8" standalone="no"?>
<svg height="160" viewBox="0 0 128 160" width="128" xmlns="http://www.w3.org/2000/svg">
<defs>
<path d="M 253 8 Q 227 8 201.5 4 Q 176 0 153 -11 Q 130 -22 111 -39.5 Q 92 -57 79 -79 Q 66 -101 60 -126 Q 54 -151 54 -177 L 54 -180 L 132 -180 L 132 -178 Q 132 -154 140 -131.5 Q 148 -109 165.5 -92.5 Q 183 -76 206 -69 Q 229 -62 253 -62 Q 271 -62 288.5 -66 Q 306 -70 320.5 -80.5 Q 335 -91 346 -105.5 Q 357 -120 363 -136.5 Q 369 -153 371.5 -171 Q 374 -189 374 -207 Q 374 -225 371.5 -242.5 Q 369 -260 362.5 -276.5 Q 356 -293 344.5 -307 Q 333 -321 318 -330.5 Q 303 -340 285.5 -343.5 Q 268 -347 250 -347 L 194 -347 L 194 -417 L 250 -417 Q 273 -417 295.5 -426 Q 318 -435 332.5 -453 Q 347 -471 352.5 -494.5 Q 358 -518 358 -541 Q 358 -566 352 -591 Q 346 -616 330 -635.5 Q 314 -655 290 -664 Q 266 -673 240 -673 Q 215 -673 189.5 -667 Q 164 -661 141 -649 L 141 -555 L 64 -555 L 64 -686 Q 102 -713 147.5 -728 Q 193 -743 240 -743 Q 267 -743 293.5 -738 Q 320 -733 343 -721 Q 366 -709 385 -689.5 Q 404 -670 415.5 -646 Q 427 -622 431.5 -595.5 Q 436 -569 436 -543 Q 436 -519 431.5 -494.5 Q 427 -470 415.5 -448.5 Q 404 -427 386 -410.5 Q 368 -394 346 -383 Q 372 -373 393.5 -354.5 Q 415 -336 428.5 -312 Q 442 -288 447 -260.5 Q 452 -233 452 -205 Q 452 -178 447.5 -150.5 Q 443 -123 431.5 -97.5 Q 420 -72 401.5 -51 Q 383 -30 359 -16.5 Q 335 -3 307.5 2.5 Q 280 8 253 8 Z " id="path1"/>
</defs>
<g>
<g data-source-text="З" fill="#dee4e3" transform="translate(40 104.99201) rotate(0) scale(0.09599999)">
<use href="#path1" transform="translate(0 0)"/>
</g>
</g>
</svg>