<?xml version="1.0" encoding="UTF-8" standalone="no"?>
<svg height="160" viewBox="0 0 128 160" width="128" xmlns="http://www.w3.org/2000/svg">
<defs>
<path d="M 214 0 L 214 -101 Q 190 -104 167.5 -112.5 Q 145 -121 126 -136 Q 107 -151 93 -171 Q 79 -191 70.5 -213.5 Q 62 -236 59 -259.5 Q 56 -283 56 -308 L 56 -428 Q 56 -452 59 -475.5 Q 62 -499 70.5 -521.5 Q 79 -544 93 -564 Q 107 -584 126 -599 Q 145 -614 167.5 -622.5 Q 190 -631 214 -634 L 214 -735 L 286 -735 L 286 -633 Q 318 -629 347.5 -614 Q 377 -599 397.5 -573.5 Q 418 -548 428 -516.5 Q 438 -485 438 -453 L 438 -448 L 360 -448 L 360 -451 Q 360 -474 353 -496 Q 346 -518 330 -534.5 Q 314 -551 292 -558 Q 270 -565 247 -565 Q 230 -565 213.5 -561 Q 197 -557 183 -547.5 Q 169 -538 159.5 -524 Q 150 -510 144 -494 Q 138 -478 136 -461 Q 134 -444 134 -428 L 134 -308 Q 134 -291 136 -274 Q 138 -257 144 -241 Q 150 -225 159.5 -211 Q 169 -197 183 -187.5 Q 197 -178 213.5 -174 Q 230 -170 247 -170 Q 270 -170 292 -177 Q 314 -184 330 -200.5 Q 346 -217 353 -239 Q 360 -261 360 -284 L 360 -288 L 438 -288 L 438 -282 Q 438 -250 428 -218.5 Q 418 -187 397.5 -161.5 Q 377 -136 347.5 -121 Q 318 -106 286 -102 L 286 0 Z " id="path1"/>
</defs>
<g>
<g data-source-text="¢" fill="#dee4e3" transform="translate(40 104.99201) rotate(0) scale(0.09599999)">
<use href="#path1" transform="translate(0 0)"/>
</g>
</g>
</svg>