<?xml version="1.0" encoding="UTF-8" standalone="no"?>
<svg height="160" viewBox="0 0 128 160" width="128" xmlns="http://www.w3.org/2000/svg">
<defs>
<path d="M 76 215 L 76 145 L 129 145 Q 140 145 150.5 142 Q 161 139 168.5 130.5 Q 176 122 180 111.5 Q 184 101 187 91 L 209 26 L 150 -151 L 93 -318 Q 88 -333 83 -349 Q 78 -365 74 -381 Q 70 -397 67 -413.5 Q 64 -430 64 -447 L 64 -520 L 142 -520 L 142 -447 Q 142 -424 148 -402 Q 154 -380 161 -358 L 161 -357 Q 162 -355 162.5 -353 Q 163 -351 164 -349 L 164 -348 Q 165 -346 166 -344 Q 167 -342 167 -340 L 250 -83 L 333 -340 Q 333 -342 334 -344 Q 335 -346 335 -348 L 336 -348 Q 337 -351 337.5 -353 Q 338 -355 339 -357 L 339 -358 Q 346 -379 352 -401.5 Q 358 -424 358 -447 L 358 -520 L 436 -520 L 436 -447 Q 436 -430 433 -413.5 Q 430 -397 426 -381 Q 422 -365 417 -349 Q 412 -333 407 -318 L 261 113 Q 254 135 243.5 156 Q 233 177 215.5 191.5 Q 198 206 175 210.5 Q 152 215 129 215 Z " id="path1"/>
</defs>
<g>
<g data-source-text="у" fill="#20242e" transform="translate(40 104.99201) rotate(0) scale(0.09599999)">
<use href="#path1" transform="translate(0 0)"/>
</g>
</g>
</svg>