<?xml version="1.0" encoding="UTF-8" standalone="no"?>
<svg height="160" viewBox="0 0 128 160" width="128" xmlns="http://www.w3.org/2000/svg">
<defs>
<path d="M 249 8 Q 224 8 199 4 Q 174 0 151.5 -10.5 Q 129 -21 110 -38 Q 91 -55 78.5 -76.5 Q 66 -98 60 -123 Q 54 -148 54 -173 L 54 -180 L 132 -180 L 132 -175 Q 132 -152 140 -130 Q 148 -108 164.5 -92 Q 181 -76 203.5 -69 Q 226 -62 249 -62 Q 272 -62 295 -69 Q 318 -76 334.5 -92.5 Q 351 -109 359 -131.5 Q 367 -154 367 -178 Q 367 -203 356.5 -227.5 Q 346 -252 328 -270.5 Q 310 -289 288 -302.5 Q 266 -316 243.5 -328 Q 221 -340 198.5 -353 Q 176 -366 156 -382 Q 136 -398 119 -417.5 Q 102 -437 89.5 -459.5 Q 77 -482 70.5 -507 Q 64 -532 64 -558 Q 64 -583 70 -608 Q 76 -633 88 -655 Q 100 -677 119 -695 Q 138 -713 160.5 -724 Q 183 -735 208.5 -739 Q 234 -743 259 -743 Q 306 -743 352 -728 Q 398 -713 436 -686 L 436 -555 L 359 -555 L 359 -649 Q 336 -661 310.5 -667 Q 285 -673 259 -673 Q 236 -673 213.5 -666 Q 191 -659 174.5 -642.5 Q 158 -626 149.5 -603.5 Q 141 -581 141 -558 Q 141 -532 152 -508 Q 163 -484 180.5 -465.5 Q 198 -447 220 -433.5 Q 242 -420 264.5 -407.5 Q 287 -395 309 -382 Q 331 -369 351.5 -353 Q 372 -337 389 -317.5 Q 406 -298 418.5 -275.5 Q 431 -253 437.5 -228 Q 444 -203 444 -177 Q 444 -152 438 -127 Q 432 -102 420 -80 Q 408 -58 389 -40.5 Q 370 -23 347.5 -12 Q 325 -1 299.5 3.5 Q 274 8 249 8 Z " id="path1"/>
</defs>
<g>
<g data-source-text="S" fill="#dee4e3" transform="translate(40 104.99201) rotate(0) scale(0.09599999)">
<use href="#path1" transform="translate(0 0)"/>
</g>
</g>
</svg>