<?xml version="1.0" encoding="UTF-8" standalone="no"?>
<svg xmlns="http://www.w3.org/2000/svg" height="160" viewBox="0 0 128 160" width="128"><defs><path d="M 95 0 L 95 -450 L 49 -450 L 49 -520 L 173 -520 L 173 -266 Q 193 -284 212.5 -302.5 Q 232 -321 251 -340 Q 270 -359 287.5 -379 Q 305 -399 320.5 -421.5 Q 336 -444 347 -468.5 Q 358 -493 358 -520 L 436 -520 Q 436 -497 429 -475.5 Q 422 -454 411 -433.5 Q 400 -413 387 -394.5 Q 374 -376 359.5 -358.5 Q 345 -341 330 -324 Q 315 -307 299 -291 Q 318 -265 336.5 -238.5 Q 355 -212 372 -184.5 Q 389 -157 404 -128.5 Q 419 -100 430 -70 L 482 -70 L 482 0 L 366 0 Q 366 -23 359 -44.5 Q 352 -66 343 -86.5 Q 334 -107 322.5 -126.5 Q 311 -146 299 -165 Q 287 -184 274 -202.5 Q 261 -221 248 -239 Q 229 -222 210.5 -204 Q 192 -186 173 -169 L 173 0 Z " id="path1"/></defs><g><g data-source-text="ะบ" fill="#dee4e3" transform="translate(40 104.99201) rotate(0) scale(0.09599999)"><use href="#path1" transform="translate(0 0)"/></g></g></svg>