<?xml version="1.0" encoding="UTF-8" standalone="no"?>
<svg height="160" viewBox="0 0 128 160" width="128" xmlns="http://www.w3.org/2000/svg">
<defs>
<path d="M 251 223 Q 229 223 206 220.5 Q 183 218 161.5 211 Q 140 204 120.5 192 Q 101 180 86.5 163 Q 72 146 63.5 124.5 Q 55 103 54 80 L 132 80 Q 133 99 145.5 115 Q 158 131 175.5 139 Q 193 147 212.5 150 Q 232 153 251 153 Q 269 153 287 149 Q 305 145 320 135 Q 335 125 345.5 110 Q 356 95 362.5 78.5 Q 369 62 371.5 44 Q 374 26 374 8 Q 374 -10 371.5 -27.5 Q 369 -45 362.5 -61.5 Q 356 -78 344.5 -92 Q 333 -106 318 -115.5 Q 303 -125 285.5 -128.5 Q 268 -132 250 -132 L 194 -132 L 194 -202 L 250 -202 Q 274 -202 296.5 -211 Q 319 -220 333.5 -238.5 Q 348 -257 353 -280.5 Q 358 -304 358 -328 Q 358 -352 353 -375.5 Q 348 -399 334 -418.5 Q 320 -438 298 -448 Q 276 -458 252 -458 Q 234 -458 216.5 -455 Q 199 -452 183.5 -443 Q 168 -434 158 -418.5 Q 148 -403 148 -385 L 70 -385 Q 71 -407 77.5 -427.5 Q 84 -448 97 -465.5 Q 110 -483 128 -495.5 Q 146 -508 166.5 -515.5 Q 187 -523 208.5 -525.5 Q 230 -528 252 -528 Q 277 -528 302.5 -523 Q 328 -518 350.5 -505 Q 373 -492 390 -472.5 Q 407 -453 417.5 -429.5 Q 428 -406 432 -380.5 Q 436 -355 436 -329 Q 436 -305 432 -280.5 Q 428 -256 416.5 -234.5 Q 405 -213 386.5 -196 Q 368 -179 346 -168 Q 372 -158 393.5 -139.5 Q 415 -121 428.5 -97 Q 442 -73 447 -45.5 Q 452 -18 452 10 Q 452 37 447.5 64.5 Q 443 92 431.5 117.5 Q 420 143 401 164 Q 382 185 358 198.5 Q 334 212 306.5 217.5 Q 279 223 251 223 Z " id="path1"/>
</defs>
<g>
<g data-source-text="з" fill="#20242e" transform="translate(40 104.99201) rotate(0) scale(0.09599999)">
<use href="#path1" transform="translate(0 0)"/>
</g>
</g>
</svg>