<?xml version="1.0" encoding="UTF-8" standalone="no"?>
<svg height="160" viewBox="0 0 128 160" width="128" xmlns="http://www.w3.org/2000/svg">
<defs>
<path d="M 250 8 Q 201 8 153.5 -6 Q 106 -20 64 -46 L 64 -143 L 141 -143 L 141 -85 Q 167 -74 194.5 -68 Q 222 -62 250 -62 Q 264 -62 278.5 -63.5 Q 293 -65 307 -69 Q 321 -73 333.5 -80 Q 346 -87 355.5 -98 Q 365 -109 369.5 -123 Q 374 -137 374 -151 Q 374 -165 369.5 -178.5 Q 365 -192 355 -202.5 Q 345 -213 332.5 -219 Q 320 -225 306 -229 Q 292 -233 278 -234 Q 264 -235 250 -235 L 194 -235 L 194 -305 L 250 -305 Q 262 -305 274.5 -306.5 Q 287 -308 299 -311 Q 311 -314 322 -320 Q 333 -326 341.5 -334.5 Q 350 -343 354 -355 Q 358 -367 358 -379 Q 358 -398 348.5 -415 Q 339 -432 323 -441.5 Q 307 -451 288 -454.5 Q 269 -458 250 -458 Q 222 -458 194.5 -452 Q 167 -446 141 -435 L 141 -385 L 64 -385 L 64 -474 Q 106 -500 153.5 -514 Q 201 -528 250 -528 Q 272 -528 294.5 -525.5 Q 317 -523 338 -515.5 Q 359 -508 378 -495 Q 397 -482 410.5 -464.5 Q 424 -447 430 -425 Q 436 -403 436 -381 Q 436 -363 431.5 -345.5 Q 427 -328 416.5 -313.5 Q 406 -299 391.5 -288.5 Q 377 -278 361 -272 Q 380 -264 397.5 -253 Q 415 -242 428 -226 Q 441 -210 446.5 -190 Q 452 -170 452 -150 Q 452 -126 445 -102 Q 438 -78 423.5 -59 Q 409 -40 388.5 -26.5 Q 368 -13 345 -5.5 Q 322 2 298 5 Q 274 8 250 8 Z " id="path1"/>
</defs>
<g>
<g data-source-text="ли" fill="#dee4e3" transform="translate(40 104.99201) rotate(0) scale(0.09599999)">
<use href="#path1" transform="translate(0 0)"/>
</g>
</g>
</svg>