<?xml version="1.0" encoding="UTF-8" standalone="no"?>
<svg height="160" viewBox="0 0 128 160" width="128" xmlns="http://www.w3.org/2000/svg">
<defs>
<path d="M 143 0 L 143 -70 L 211 -70 L 211 -286 L 127 -449 Q 101 -500 84.5 -554.5 Q 68 -609 65 -665 L 18 -665 L 18 -735 L 188 -735 L 188 -665 L 143 -665 Q 146 -617 160 -570.5 Q 174 -524 196 -481 L 250 -377 L 304 -481 Q 326 -524 340 -570.5 Q 354 -617 357 -665 L 312 -665 L 312 -735 L 482 -735 L 482 -665 L 435 -665 Q 432 -609 415.5 -554.5 Q 399 -500 373 -449 L 289 -286 L 289 -70 L 357 -70 L 357 0 Z " id="path1"/>
</defs>
<g>
<g data-source-text="Y" fill="#20242e" transform="translate(40 104.99201) rotate(0) scale(0.09599999)">
<use href="#path1" transform="translate(0 0)"/>
</g>
</g>
</svg>