<?xml version="1.0" encoding="UTF-8" standalone="no"?>
<svg height="160" viewBox="0 0 128 160" width="128" xmlns="http://www.w3.org/2000/svg">
<defs>
<path d="M 15 0 L 15 -66 L 51 -66 L 51 -669 L 15 -669 L 15 -735 L 163 -735 L 250 -245 L 337 -735 L 485 -735 L 485 -669 L 449 -669 L 449 -66 L 485 -66 L 485 0 L 342 0 L 342 -66 L 375 -66 L 375 -147 Q 375 -211 376 -275.5 Q 377 -340 378 -404 L 380 -478 Q 381 -518 382 -558.5 Q 383 -599 383 -640 L 281 -66 L 219 -66 L 117 -640 Q 117 -599 118 -558.5 Q 119 -518 120 -478 L 122 -404 Q 123 -340 124 -275.5 Q 125 -211 125 -147 L 125 -66 L 158 -66 L 158 0 Z " id="path1"/>
</defs>
<g>
<g data-source-text="M" fill="#dee4e3" transform="translate(40 104.99201) rotate(0) scale(0.09599999)">
<use href="#path1" transform="translate(0 0)"/>
</g>
</g>
</svg>