<?xml version="1.0" encoding="UTF-8" standalone="no"?>
<svg height="160" viewBox="0 0 128 160" width="128" xmlns="http://www.w3.org/2000/svg">
<defs>
<path d="M 211 0 L 211 -102 Q 188 -105 165.5 -113.5 Q 143 -122 124.5 -137 Q 106 -152 92.5 -172 Q 79 -192 70.5 -214 Q 62 -236 59 -260 Q 56 -284 56 -308 L 56 -428 Q 56 -451 59 -475 Q 62 -499 70.5 -521 Q 79 -543 92.5 -563 Q 106 -583 124.5 -598 Q 143 -613 165.5 -621.5 Q 188 -630 211 -633 L 211 -735 L 289 -735 L 289 -633 Q 321 -628 350 -612.5 Q 379 -597 399 -572 Q 419 -547 428.5 -516 Q 438 -485 438 -453 L 438 -448 L 360 -448 L 360 -451 Q 360 -469 355.5 -487 Q 351 -505 341 -520 Q 331 -535 316 -546 Q 301 -557 283 -561 L 280 -400 L 220 -400 L 217 -562 Q 196 -558 178.5 -544 Q 161 -530 151 -511 Q 141 -492 137.5 -470.5 Q 134 -449 134 -428 L 134 -308 Q 134 -286 137.5 -264.5 Q 141 -243 151 -224 Q 161 -205 178.5 -191 Q 196 -177 217 -173 L 220 -335 L 280 -335 L 283 -174 Q 301 -178 316 -189 Q 331 -200 341 -215 Q 351 -230 355.5 -248 Q 360 -266 360 -284 L 360 -288 L 438 -288 L 438 -282 Q 438 -250 428.5 -219 Q 419 -188 399 -163 Q 379 -138 350 -122.5 Q 321 -107 289 -102 L 289 0 Z " id="path1"/>
</defs>
<g>
<g data-source-text="¢" fill="#20242e" transform="translate(40 104.99201) rotate(0) scale(0.09599999)">
<use href="#path1" transform="translate(0 0)"/>
</g>
</g>
</svg>