<svg xmlns="http://www.w3.org/2000/svg" height="160" viewBox="0 0 128 160" width="128"><defs><path d="M 247 8 C 229.66667 8 212 6.1666665 194.00002 2.5000002 C 176 -1.1666665 159.33333 -7.5 144.00002 -16.5 C 128.66666 -25.5 115.166664 -36.833336 103.5 -50.500004 C 91.833336 -64.166664 82.333336 -79.16667 75.00001 -95.50001 C 67.666664 -111.833336 62.666668 -128.83334 60.000004 -146.5 C 57.333332 -164.16667 55.999996 -182 56 -200.00002 L 56 -320.00003 C 55.999996 -336.6667 56.999996 -353.49997 59.000004 -370.50003 C 61 -387.49997 64.833336 -403.99997 70.5 -420 C 76.166664 -436 84.00001 -451 94.00001 -465 C 103.99999 -479.00003 115.83333 -490.83337 129.5 -500.50003 C 143.16667 -510.16666 158.33333 -517.1666 175 -521.5 C 191.66667 -525.8333 208.33334 -528 225.00002 -528 C 238.33333 -528 251.66667 -526.8333 265 -524.5 C 278.33334 -522.1667 290.83334 -518 302.50003 -512 C 314.1667 -505.99997 324.83334 -498.3333 334.5 -489.00003 C 344.1667 -479.6667 352.33334 -469.33334 359.00003 -458 L 359.00003 -520.00006 L 436 -520.00006 L 436 -339 L 359.00003 -339 C 359.00003 -354.33334 357 -369.49997 353.00003 -384.5 C 349 -399.5 342.00003 -412.8333 332 -424.5 C 322.00003 -436.16666 309.6667 -444.6667 295 -450.00003 C 280.33334 -455.3333 265.3333 -457.99997 250 -458 C 238.66666 -457.99997 227.33333 -456.66666 216 -454 C 204.66666 -451.33334 194.33333 -446.83334 185.00002 -440.50003 C 175.66666 -434.1667 167.5 -426.3333 160.5 -417.00003 C 153.5 -407.66666 148 -397.66666 144.00002 -387.00003 C 140.00002 -376.3333 137.33334 -365.33334 136 -354.00003 C 134.66667 -342.6667 134 -331.33334 134 -320.00003 L 134 -200.00002 C 134 -188.66667 134.66667 -177.33334 136 -166 C 137.33334 -154.66667 140.00002 -143.83333 144.00002 -133.5 C 148 -123.166664 153.16667 -113.33333 159.50002 -104.00001 C 165.83334 -94.666664 173.66669 -86.666664 183.00002 -80.00001 C 192.33334 -73.333336 202.50002 -68.66667 213.50002 -66 C 224.5 -63.333336 235.66669 -62.000004 247 -62.000004 C 262.3333 -62.000004 277.3333 -64.5 292 -69.5 C 306.66666 -74.5 319.3333 -82.5 330 -93.5 C 340.66666 -104.5 348.33334 -117.333336 353.00003 -132 C 357.66666 -146.66667 360 -161.66667 360.00003 -177.00002 C 360 -177.00002 360 -177.16667 360.00003 -177.50002 C 360 -177.83333 360 -178 360.00003 -178 L 438.00003 -178 C 437.99997 -177.33334 437.99997 -176.83334 438.00003 -176.50002 C 437.99997 -176.16666 437.99997 -176 438.00003 -176 C 437.99997 -159.33333 436.16666 -142.83334 432.50003 -126.50001 C 428.83334 -110.16667 423.00003 -94.666664 415 -80.00001 C 407 -65.333336 397 -52.166664 385 -40.5 C 373 -28.833334 359.49997 -19.333334 344.5 -12 C 329.5 -4.666667 313.66666 0.5000001 297.00003 3.5 C 280.33334 6.4999995 263.6667 8 247 8 Z " id="path1"/></defs><g><g fill="#ffffff" transform="translate(40 105.20961) rotate(0)"><use href="#path1" transform="translate(0 0) scale(0.09599999)"/></g></g></svg>