<?xml version="1.0" encoding="UTF-8" standalone="no"?>
<svg height="160" viewBox="0 0 128 160" width="128" xmlns="http://www.w3.org/2000/svg">
<defs>
<path d="M 249 8 Q 224 8 199 4 Q 174 0 151.5 -10.5 Q 129 -21 110 -38 Q 91 -55 78.5 -76.5 Q 66 -98 60 -123 Q 54 -148 54 -173 L 54 -180 L 132 -180 L 132 -175 Q 132 -152 140 -130 Q 148 -108 164.5 -92 Q 181 -76 203.5 -69 Q 226 -62 249 -62 Q 272 -62 295 -69 Q 318 -76 334.5 -92.5 Q 351 -109 359 -132 Q 367 -155 367 -178 Q 367 -204 356.5 -228 Q 346 -252 328 -270.5 Q 310 -289 288 -302.5 Q 266 -316 243 -328 Q 220 -340 198 -353 Q 176 -366 156 -382.5 Q 136 -399 119 -418 Q 102 -437 89.5 -460 Q 77 -483 70.5 -508 Q 64 -533 64 -559 Q 64 -583 69.5 -607.5 Q 75 -632 86.5 -654 Q 98 -676 115.5 -693.5 Q 133 -711 154.5 -722.5 Q 176 -734 200.5 -738.5 Q 225 -743 250 -743 Q 299 -743 347 -728 Q 395 -713 436 -686 L 436 -555 L 359 -555 L 359 -648 Q 334 -660 306 -666.5 Q 278 -673 250 -673 Q 228 -673 206.5 -665.5 Q 185 -658 170 -641 Q 155 -624 148 -602.5 Q 141 -581 141 -559 Q 141 -533 151.5 -509 Q 162 -485 179.5 -466 Q 197 -447 219 -433.5 Q 241 -420 264 -408 Q 287 -396 309 -382.5 Q 331 -369 351 -353 Q 371 -337 388.5 -318 Q 406 -299 418.5 -276.5 Q 431 -254 437.5 -228.5 Q 444 -203 444 -178 Q 444 -152 438 -127 Q 432 -102 420 -80 Q 408 -58 389 -40.5 Q 370 -23 347.5 -12 Q 325 -1 299.5 3.5 Q 274 8 249 8 Z " id="path1"/>
</defs>
<g>
<g data-source-text="S" fill="#dee4e3" transform="translate(40 104.99201) rotate(0) scale(0.09599999)">
<use href="#path1" transform="translate(0 0)"/>
</g>
</g>
</svg>