<?xml version="1.0" encoding="UTF-8" standalone="no"?>
<svg height="160" viewBox="0 0 128 160" width="128" xmlns="http://www.w3.org/2000/svg">
<defs>
<path d="M 244 8 Q 196 8 149.5 -7 Q 103 -22 64 -49 L 64 -180 L 141 -180 L 141 -87 Q 165 -75 191 -68.5 Q 217 -62 244 -62 Q 261 -62 278.5 -65.5 Q 296 -69 311 -78.5 Q 326 -88 337 -101.5 Q 348 -115 354.5 -131.5 Q 361 -148 363.5 -165.5 Q 366 -183 366 -200 L 366 -225 L 194 -225 L 194 -295 L 366 -295 L 366 -320 Q 366 -337 364 -354 Q 362 -371 356 -386.5 Q 350 -402 340.5 -416 Q 331 -430 317 -440 Q 303 -450 286.5 -454 Q 270 -458 253 -458 Q 230 -458 208 -450.5 Q 186 -443 170 -426.5 Q 154 -410 147 -388 Q 140 -366 140 -343 L 140 -340 L 62 -340 L 62 -345 Q 62 -370 67.5 -394.5 Q 73 -419 85 -441 Q 97 -463 115.5 -480.5 Q 134 -498 156 -509 Q 178 -520 203 -524 Q 228 -528 253 -528 Q 280 -528 306.5 -522.5 Q 333 -517 356 -503.5 Q 379 -490 396.5 -469.5 Q 414 -449 425 -424.5 Q 436 -400 440 -373.5 Q 444 -347 444 -320 L 444 -200 Q 444 -173 439.5 -145.5 Q 435 -118 423.5 -93.5 Q 412 -69 393 -48.5 Q 374 -28 350 -15 Q 326 -2 298.5 3 Q 271 8 244 8 Z " id="path1"/>
</defs>
<g>
<g data-source-text="Ñ" fill="#dee4e3" transform="translate(40 104.99201) rotate(0) scale(0.09599999)">
<use href="#path1" transform="translate(0 0)"/>
</g>
</g>
</svg>