<?xml version="1.0" encoding="UTF-8" standalone="no"?>
<svg height="160" viewBox="0 0 128 160" width="128" xmlns="http://www.w3.org/2000/svg">
<defs>
<path d="M 14 0 L 14 -70 L 48 -70 L 48 -450 L 14 -450 L 14 -520 L 142 -520 L 250 -235 L 358 -520 L 486 -520 L 486 -450 L 452 -450 L 452 -70 L 486 -70 L 486 0 L 339 0 L 339 -70 L 374 -70 L 374 -104 Q 374 -185 377.5 -266 Q 381 -347 383 -428 L 280 -156 L 220 -156 L 117 -428 Q 119 -347 122.5 -266 Q 126 -185 126 -104 L 126 -70 L 161 -70 L 161 0 Z " id="path1"/>
</defs>
<g>
<g data-source-text="м" fill="#dee4e3" transform="translate(40 104.99201) rotate(0) scale(0.09599999)">
<use href="#path1" transform="translate(0 0)"/>
</g>
</g>
</svg>