<?xml version="1.0" encoding="UTF-8" standalone="no"?>
<svg height="160" viewBox="0 0 128 160" width="128" xmlns="http://www.w3.org/2000/svg">
<defs>
<path d="M 246 8 Q 219 8 193.5 2.5 Q 168 -3 145 -16 Q 122 -29 104 -49 Q 86 -69 75 -93 Q 64 -117 60 -143 Q 56 -169 56 -195 L 56 -540 Q 56 -565 59 -589 Q 62 -613 70.5 -636 Q 79 -659 93 -679.5 Q 107 -700 127 -714.5 Q 147 -729 171 -736 Q 195 -743 219 -743 Q 241 -743 261.5 -737.5 Q 282 -732 300.5 -721 Q 319 -710 333.5 -694 Q 348 -678 359 -660 L 359 -735 L 436 -735 L 436 -554 L 359 -554 Q 359 -577 351 -599 Q 343 -621 327.5 -638 Q 312 -655 290.5 -664 Q 269 -673 246 -673 Q 230 -673 213.5 -668.5 Q 197 -664 183.5 -655 Q 170 -646 160 -633 Q 150 -620 144 -604.5 Q 138 -589 136 -572.5 Q 134 -556 134 -540 L 134 -195 Q 134 -178 136 -161.5 Q 138 -145 144 -130 Q 150 -115 160.5 -101.5 Q 171 -88 185 -79 Q 199 -70 215 -66 Q 231 -62 248 -62 Q 276 -62 304 -69.5 Q 332 -77 358 -88 L 358 -330 L 250 -330 L 250 -400 L 436 -400 L 436 -46 Q 392 -21 344 -6.5 Q 296 8 246 8 Z " id="path1"/>
</defs>
<g>
<g data-source-text="G" fill="#20242e" transform="translate(40 104.99201) rotate(0) scale(0.09599999)">
<use href="#path1" transform="translate(0 0)"/>
</g>
</g>
</svg>