<?xml version="1.0" encoding="UTF-8" standalone="no"?>
<svg xmlns="http://www.w3.org/2000/svg" height="160" viewBox="0 0 128 160" width="128"><defs><path d="M 258 8 Q 207 8 157.5 -6 Q 108 -20 64 -46 L 64 -188 L 141 -188 L 141 -87 Q 168 -76 197.5 -69 Q 227 -62 257 -62 Q 270 -62 284 -64 Q 298 -66 311 -70 Q 324 -74 336 -80.5 Q 348 -87 357 -97.5 Q 366 -108 370 -121.5 Q 374 -135 374 -148 Q 374 -148 374 -148 Q 374 -148 374 -148 Q 374 -163 369.5 -176.5 Q 365 -190 355.5 -200.5 Q 346 -211 333 -218 Q 320 -225 306.5 -229 Q 293 -233 278.5 -234 Q 264 -235 250 -235 L 194 -235 L 194 -305 L 250 -305 Q 262 -305 274.5 -306.5 Q 287 -308 299 -311.5 Q 311 -315 322.5 -321 Q 334 -327 342 -336.5 Q 350 -346 354 -358 Q 358 -370 358 -382 Q 358 -382 358 -382 Q 358 -382 358 -382 Q 358 -400 349 -416.5 Q 340 -433 324.5 -442 Q 309 -451 291.5 -454.5 Q 274 -458 256 -458 Q 226 -458 197 -451 Q 168 -444 141 -432 L 141 -340 L 64 -340 L 64 -474 Q 108 -499 157.5 -513.5 Q 207 -528 257 -528 Q 279 -528 300.5 -525 Q 322 -522 342 -514.5 Q 362 -507 380 -494.5 Q 398 -482 411 -465 Q 424 -448 430 -426.5 Q 436 -405 436 -384 Q 436 -366 431.5 -348 Q 427 -330 416.5 -315 Q 406 -300 391 -289.5 Q 376 -279 359 -272 Q 379 -264 397 -252.5 Q 415 -241 428 -225 Q 441 -209 446.5 -188.5 Q 452 -168 452 -147 Q 452 -123 445.5 -100.5 Q 439 -78 425 -59.5 Q 411 -41 391.5 -28 Q 372 -15 350 -7 Q 328 1 305 4.5 Q 282 8 258 8 Z " id="path1"/></defs><g><g data-source-text="ли" fill="#20242e" transform="translate(40 104.99201) rotate(0) scale(0.09599999)"><use href="#path1" transform="translate(0 0)"/></g></g></svg>