<?xml version="1.0" encoding="UTF-8" standalone="no"?>
<svg height="160" viewBox="0 0 128 160" width="128" xmlns="http://www.w3.org/2000/svg">
<defs>
<path d="M 247 8 Q 220 8 193.5 2.5 Q 167 -3 144 -16.5 Q 121 -30 103.5 -50.5 Q 86 -71 75 -95.5 Q 64 -120 60 -146.5 Q 56 -173 56 -200 L 56 -320 Q 56 -345 59 -370.5 Q 62 -396 70.5 -419.5 Q 79 -443 93.5 -464.5 Q 108 -486 128.5 -500.5 Q 149 -515 173.5 -521.5 Q 198 -528 224 -528 Q 245 -528 266.5 -524 Q 288 -520 307 -510 Q 326 -500 341 -484.5 Q 356 -469 367 -451 L 367 -520 L 436 -520 L 436 -340 L 367 -340 Q 367 -364 360 -387 Q 353 -410 336.5 -427 Q 320 -444 297 -451 Q 274 -458 250 -458 Q 233 -458 216 -454 Q 199 -450 185 -440.5 Q 171 -431 160.5 -417 Q 150 -403 144 -387 Q 138 -371 136 -354 Q 134 -337 134 -320 L 134 -200 Q 134 -183 136 -166 Q 138 -149 144 -133.5 Q 150 -118 159.5 -104 Q 169 -90 183 -80 Q 197 -70 213.5 -66 Q 230 -62 247 -62 Q 270 -62 292 -69.5 Q 314 -77 330 -93.5 Q 346 -110 353 -132 Q 360 -154 360 -177 L 360 -180 L 438 -180 L 438 -175 Q 438 -150 432.5 -125.5 Q 427 -101 415 -79 Q 403 -57 384.5 -39.5 Q 366 -22 344 -11 Q 322 0 297 4 Q 272 8 247 8 Z " id="path1"/>
</defs>
<g>
<g data-source-text="c" fill="#dee4e3" transform="translate(40 104.99201) rotate(0) scale(0.09599999)">
<use href="#path1" transform="translate(0 0)"/>
</g>
</g>
</svg>