<?xml version="1.0" encoding="UTF-8" standalone="no"?>
<svg height="160" viewBox="0 0 128 160" width="128" xmlns="http://www.w3.org/2000/svg">
<defs>
<path d="M 283 8 Q 263 8 243.5 5.5 Q 224 3 205.5 -3.5 Q 187 -10 170 -20.5 Q 153 -31 141 -47 L 141 0 L 64 0 L 64 -135 L 141 -135 Q 141 -122 146 -110 Q 151 -98 160.5 -89.5 Q 170 -81 182 -75.5 Q 194 -70 206.5 -67 Q 219 -64 232 -63 Q 245 -62 258 -62 Q 278 -62 298.5 -66 Q 319 -70 336.5 -81 Q 354 -92 364 -111 Q 374 -130 374 -150 Q 374 -164 369.5 -178 Q 365 -192 355 -202 Q 345 -212 332.5 -218.5 Q 320 -225 306 -229 Q 292 -233 278 -234 Q 264 -235 250 -235 L 194 -235 L 194 -305 L 250 -305 Q 262 -305 274.5 -306.5 Q 287 -308 299 -311 Q 311 -314 322 -320 Q 333 -326 341.5 -335 Q 350 -344 354 -356 Q 358 -368 358 -380 Q 358 -399 349 -415.5 Q 340 -432 324 -441.5 Q 308 -451 289.5 -454.5 Q 271 -458 253 -458 Q 235 -458 217.5 -455 Q 200 -452 184.5 -444 Q 169 -436 158.5 -420.5 Q 148 -405 148 -388 L 148 -385 L 70 -385 L 70 -390 Q 70 -412 77 -432.5 Q 84 -453 97.5 -470 Q 111 -487 129.5 -498.5 Q 148 -510 168.5 -516.5 Q 189 -523 210.5 -525.5 Q 232 -528 253 -528 Q 275 -528 297 -525.5 Q 319 -523 340 -515.5 Q 361 -508 379.5 -495 Q 398 -482 411 -464.5 Q 424 -447 430 -425 Q 436 -403 436 -381 Q 436 -363 432 -345.5 Q 428 -328 417.5 -314 Q 407 -300 392 -289.5 Q 377 -279 361 -272 Q 380 -264 397.5 -253 Q 415 -242 428 -226 Q 441 -210 446.5 -189.5 Q 452 -169 452 -148 Q 452 -126 447 -104.5 Q 442 -83 431.5 -64.5 Q 421 -46 404 -31.5 Q 387 -17 367.5 -8 Q 348 1 326 4.5 Q 304 8 283 8 Z " id="path1"/>
</defs>
<g>
<g data-source-text="ли" fill="#20242e" transform="translate(40 104.99201) rotate(0) scale(0.09599999)">
<use href="#path1" transform="translate(0 0)"/>
</g>
</g>
</svg>