<?xml version="1.0" encoding="UTF-8" standalone="no"?>
<svg height="160" viewBox="0 0 128 160" width="128" xmlns="http://www.w3.org/2000/svg">
<defs>
<path d="M 247 223 Q 198 223 151 208 Q 104 193 64 166 L 64 80 L 133 80 L 133 124 Q 159 138 188 145.5 Q 217 153 247 153 Q 275 153 301 142.5 Q 327 132 344 110.5 Q 361 89 367.5 62 Q 374 35 374 7 Q 374 -11 371.5 -28.5 Q 369 -46 362.5 -62.5 Q 356 -79 344.5 -92.5 Q 333 -106 318 -115.5 Q 303 -125 285.5 -128.5 Q 268 -132 250 -132 L 194 -132 L 194 -202 L 250 -202 Q 273 -202 295.5 -211 Q 318 -220 332.5 -238 Q 347 -256 352.5 -279.5 Q 358 -303 358 -326 Q 358 -351 352 -376 Q 346 -401 330 -420.5 Q 314 -440 290 -449 Q 266 -458 240 -458 Q 212 -458 185 -450.5 Q 158 -443 133 -430 L 133 -385 L 64 -385 L 64 -471 Q 102 -498 147.5 -513 Q 193 -528 240 -528 Q 267 -528 293.5 -523 Q 320 -518 343 -506 Q 366 -494 385 -474.5 Q 404 -455 415.5 -431 Q 427 -407 431.5 -380.5 Q 436 -354 436 -328 Q 436 -304 431.5 -279.5 Q 427 -255 415.5 -233.5 Q 404 -212 386 -195.5 Q 368 -179 346 -168 Q 372 -158 393 -139.5 Q 414 -121 428 -97.5 Q 442 -74 447 -46.5 Q 452 -19 452 9 Q 452 37 447.5 65 Q 443 93 431 118 Q 419 143 399.5 164 Q 380 185 355.5 198.5 Q 331 212 303 217.5 Q 275 223 247 223 Z " id="path1"/>
</defs>
<g>
<g data-source-text="з" fill="#20242e" transform="translate(40 104.99201) rotate(0) scale(0.09599999)">
<use href="#path1" transform="translate(0 0)"/>
</g>
</g>
</svg>