<?xml version="1.0" encoding="UTF-8" standalone="no"?>
<svg height="160" viewBox="0 0 128 160" width="128" xmlns="http://www.w3.org/2000/svg">
<defs>
<path d="M 20 0 L 20 -70 L 75 -70 L 75 -122 Q 75 -137 78.5 -151.5 Q 82 -166 90 -178.5 Q 98 -191 109.5 -201 Q 121 -211 134 -217 Q 115 -227 99.5 -242 Q 84 -257 74 -276.5 Q 64 -296 60 -317 Q 56 -338 56 -360 Q 56 -382 60 -403.5 Q 64 -425 74 -444 Q 84 -463 100 -478.5 Q 116 -494 135.5 -503.5 Q 155 -513 176.5 -516.5 Q 198 -520 219 -520 L 482 -520 L 482 -450 L 436 -450 L 436 -70 L 482 -70 L 482 0 L 358 0 L 358 -450 L 219 -450 Q 202 -450 184.5 -444.5 Q 167 -439 155 -425.5 Q 143 -412 138.5 -395 Q 134 -378 134 -360 Q 134 -342 138.5 -325 Q 143 -308 155 -295 Q 167 -282 184.5 -276 Q 202 -270 219 -270 L 301 -270 L 301 -200 L 227 -200 Q 212 -200 197 -195 Q 182 -190 171.5 -178.5 Q 161 -167 156.5 -152 Q 152 -137 152 -122 L 152 0 Z " id="path1"/>
</defs>
<g>
<g data-source-text="Ñ" fill="#20242e" transform="translate(40 104.99201) rotate(0) scale(0.09599999)">
<use href="#path1" transform="translate(0 0)"/>
</g>
</g>
</svg>