<?xml version="1.0" encoding="UTF-8" standalone="no"?>
<svg height="160" viewBox="0 0 128 160" width="128" xmlns="http://www.w3.org/2000/svg">
<defs>
<path d="M 18 0 L 18 -70 L 64 -70 L 64 -665 L 18 -665 L 18 -735 L 222 -735 Q 251 -735 280 -730 Q 309 -725 335.5 -712.5 Q 362 -700 384 -680 Q 406 -660 419.5 -634 Q 433 -608 438.5 -579 Q 444 -550 444 -521 L 444 -215 Q 444 -185 438.5 -156 Q 433 -127 419.5 -101 Q 406 -75 384 -55 Q 362 -35 335.5 -22.5 Q 309 -10 280 -5 Q 251 -0 222 0 Z M 142 -70 L 221 -70 Q 241 -70 260 -73.5 Q 279 -77 296.5 -85.5 Q 314 -94 328 -108 Q 342 -122 350.5 -139.5 Q 359 -157 362.5 -176 Q 366 -195 366 -215 L 366 -521 Q 366 -540 362.5 -559 Q 359 -578 350.5 -595.5 Q 342 -613 328 -627 Q 314 -641 296.5 -649.5 Q 279 -658 260 -661.5 Q 241 -665 221 -665 L 142 -665 Z " id="path1"/>
</defs>
<g>
<g data-source-text="D" fill="#20242e" transform="translate(40 104.99201) rotate(0) scale(0.09599999)">
<use href="#path1" transform="translate(0 0)"/>
</g>
</g>
</svg>