<?xml version="1.0" encoding="UTF-8" standalone="no"?>
<svg height="160" viewBox="0 0 128 160" width="128" xmlns="http://www.w3.org/2000/svg">
<defs>
<path d="M 249 8 Q 224 8 199 4 Q 174 0 151.5 -10.5 Q 129 -21 110 -38 Q 91 -55 78.5 -76.5 Q 66 -98 60 -123 Q 54 -148 54 -173 L 54 -180 L 132 -180 L 132 -175 Q 132 -152 140 -130 Q 148 -108 164.5 -92 Q 181 -76 203.5 -69 Q 226 -62 249 -62 Q 272 -62 295 -69 Q 318 -76 334.5 -93 Q 351 -110 359 -132.5 Q 367 -155 367 -178 Q 367 -204 356.5 -228.5 Q 346 -253 328.5 -271.5 Q 311 -290 288.5 -303.5 Q 266 -317 243 -328.5 Q 220 -340 197 -352.5 Q 174 -365 154 -381.5 Q 134 -398 117 -417.5 Q 100 -437 88 -460 Q 76 -483 70 -508.5 Q 64 -534 64 -559 Q 64 -583 68.5 -605.5 Q 73 -628 82 -649.5 Q 91 -671 105.5 -689.5 Q 120 -708 139.5 -720.5 Q 159 -733 181.5 -738 Q 204 -743 227 -743 Q 248 -743 269 -739 Q 290 -735 308.5 -725 Q 327 -715 342 -700 Q 357 -685 367 -667 L 367 -735 L 436 -735 L 436 -555 L 367 -555 Q 367 -578 360.5 -601 Q 354 -624 338.5 -641 Q 323 -658 300 -665.5 Q 277 -673 254 -673 Q 231 -673 209 -665.5 Q 187 -658 171.5 -641.5 Q 156 -625 148.5 -602.5 Q 141 -580 141 -558 Q 141 -532 151 -507.5 Q 161 -483 178.5 -464 Q 196 -445 218.5 -432 Q 241 -419 264 -407.5 Q 287 -396 309.5 -383 Q 332 -370 352.5 -354 Q 373 -338 390 -318.5 Q 407 -299 419 -276.5 Q 431 -254 437.5 -229 Q 444 -204 444 -178 Q 444 -152 438 -127.5 Q 432 -103 420 -80.5 Q 408 -58 389 -40.5 Q 370 -23 347.5 -12 Q 325 -1 299.5 3.5 Q 274 8 249 8 Z " id="path1"/>
</defs>
<g>
<g data-source-text="S" fill="#dee4e3" transform="translate(40 104.99201) rotate(0) scale(0.09599999)">
<use href="#path1" transform="translate(0 0)"/>
</g>
</g>
</svg>