<?xml version="1.0" encoding="UTF-8" standalone="no"?>
<svg height="160" viewBox="0 0 128 160" width="128" xmlns="http://www.w3.org/2000/svg">
<defs>
<path d="M 15 0 L 15 -68 L 53 -68 L 55 -104 Q 58 -191 64 -278 Q 70 -365 71 -452 L 36 -452 L 36 -520 L 168 -520 L 250 -257 L 332 -520 L 464 -520 L 464 -452 L 429 -452 Q 430 -365 436 -278 Q 442 -191 445 -104 L 447 -68 L 485 -68 L 485 0 L 339 0 L 339 -68 L 371 -68 L 370 -104 Q 367 -182 365 -259.5 Q 363 -337 362 -415 L 281 -156 L 219 -156 L 138 -415 Q 137 -337 135 -259.5 Q 133 -182 130 -104 L 129 -68 L 161 -68 L 161 0 Z " id="path1"/>
</defs>
<g>
<g data-source-text="м" fill="#20242e" transform="translate(40 104.99201) rotate(0) scale(0.09599999)">
<use href="#path1" transform="translate(0 0)"/>
</g>
</g>
</svg>