<?xml version="1.0" encoding="UTF-8" standalone="no"?>
<svg height="160" viewBox="0 0 128 160" width="128" xmlns="http://www.w3.org/2000/svg">
<defs>
<path d="M 247 8 Q 221 8 194.5 3 Q 168 -2 145 -15 Q 122 -28 104 -48 Q 86 -68 75 -92 Q 64 -116 60 -142.5 Q 56 -169 56 -195 L 56 -540 Q 56 -565 59 -589 Q 62 -613 70.5 -636 Q 79 -659 93 -679.5 Q 107 -700 127 -714.5 Q 147 -729 171 -736 Q 195 -743 219 -743 Q 240 -743 261 -737.5 Q 282 -732 300.5 -721 Q 319 -710 333.5 -694.5 Q 348 -679 359 -660 L 359 -735 L 436 -735 L 436 -555 L 359 -555 Q 359 -578 351 -599.5 Q 343 -621 327.5 -638 Q 312 -655 290.5 -664 Q 269 -673 246 -673 Q 230 -673 213.5 -668.5 Q 197 -664 183.5 -655 Q 170 -646 160 -633 Q 150 -620 144 -604.5 Q 138 -589 136 -572.5 Q 134 -556 134 -540 L 134 -195 Q 134 -170 139.5 -145.5 Q 145 -121 160 -101.5 Q 175 -82 198.5 -72 Q 222 -62 247 -62 Q 270 -62 292 -69 Q 314 -76 330 -92.5 Q 346 -109 353 -131 Q 360 -153 360 -176 L 360 -180 L 438 -180 L 438 -174 Q 438 -149 432.5 -124.5 Q 427 -100 415 -78.5 Q 403 -57 384.5 -39.5 Q 366 -22 343.5 -11 Q 321 0 296.5 4 Q 272 8 247 8 Z " id="path1"/>
</defs>
<g>
<g data-source-text="C" fill="#20242e" transform="translate(40 104.99201) rotate(0) scale(0.09599999)">
<use href="#path1" transform="translate(0 0)"/>
</g>
</g>
</svg>