<?xml version="1.0" encoding="UTF-8" standalone="no"?>
<svg height="160" viewBox="0 0 128 160" width="128" xmlns="http://www.w3.org/2000/svg">
<defs>
<path d="M 251 223 Q 229 223 206 220.5 Q 183 218 161.5 211 Q 140 204 120.5 192 Q 101 180 86.5 163 Q 72 146 63.5 124.5 Q 55 103 54 80 L 132 80 Q 133 99 145.5 115 Q 158 131 175.5 139 Q 193 147 212.5 150 Q 232 153 251 153 Q 269 153 287 149 Q 305 145 320 135 Q 335 125 345.5 110 Q 356 95 362.5 78.5 Q 369 62 371.5 44 Q 374 26 374 8 Q 374 -10 371.5 -27.5 Q 369 -45 362.5 -61.5 Q 356 -78 344.5 -92 Q 333 -106 318 -115.5 Q 303 -125 285.5 -128.5 Q 268 -132 250 -132 L 194 -132 L 194 -202 L 250 -202 Q 273 -202 295.5 -211 Q 318 -220 332.5 -238 Q 347 -256 352.5 -279.5 Q 358 -303 358 -326 Q 358 -351 352 -376 Q 346 -401 330 -420.5 Q 314 -440 290 -449 Q 266 -458 240 -458 Q 212 -458 185 -450.5 Q 158 -443 133 -430 L 133 -385 L 64 -385 L 64 -471 Q 102 -498 147.5 -513 Q 193 -528 240 -528 Q 267 -528 293.5 -523 Q 320 -518 343 -506 Q 366 -494 385 -474.5 Q 404 -455 415.5 -431 Q 427 -407 431.5 -380.5 Q 436 -354 436 -328 Q 436 -304 431.5 -279.5 Q 427 -255 415.5 -233.5 Q 404 -212 386 -195.5 Q 368 -179 346 -168 Q 372 -158 393.5 -139.5 Q 415 -121 428.5 -97 Q 442 -73 447 -45.5 Q 452 -18 452 10 Q 452 37 447.5 64.5 Q 443 92 431.5 117.5 Q 420 143 401 164 Q 382 185 358 198.5 Q 334 212 306.5 217.5 Q 279 223 251 223 Z " id="path1"/>
</defs>
<g>
<g data-source-text="з" fill="#20242e" transform="translate(40 104.99201) rotate(0) scale(0.09599999)">
<use href="#path1" transform="translate(0 0)"/>
</g>
</g>
</svg>