<svg xmlns="http://www.w3.org/2000/svg" height="160" viewBox="0 0 128 160" width="128"><defs><path d="M 244 8 C 226.66666 8 209.33333 6 192 2 C 174.66667 -1.9999998 158.5 -8.333334 143.5 -17 C 128.5 -25.666668 115.166664 -36.5 103.5 -49.5 C 91.833336 -62.5 82.333336 -77.00001 75.00001 -93.00001 C 67.666664 -109.00001 62.666668 -125.66667 60.000004 -143 C 57.333332 -160.33334 55.999996 -177.66667 56 -195 L 56 -540 C 55.999996 -556.6667 56.999996 -573.3334 59.000004 -590 C 61 -606.6667 65 -622.8334 71 -638.50006 C 77.00001 -654.16675 85 -668.8334 95 -682.50006 C 105 -696.1667 116.833336 -707.6667 130.5 -717 C 144.16667 -726.3333 159.16667 -733 175.5 -737 C 191.83334 -741.00006 208.33334 -743.00006 225.00002 -743.00006 C 225.00002 -743.00006 225.00002 -743.00006 225.00002 -743.00006 C 225.00002 -743.00006 225.00002 -743.00006 225.00002 -743.00006 C 238.33333 -743.00006 251.50002 -741.8334 264.5 -739.50006 C 277.5 -737.1667 290 -733 302 -727 C 314.00003 -721.00006 324.83334 -713.3333 334.5 -704 C 344.1667 -694.6666 352.33334 -684.3334 359.00003 -673.00006 L 359.00003 -735 L 436 -735 L 436 -554.00006 L 359.00003 -554.00006 C 359.00003 -569.3333 357 -584.5 353.00003 -599.50006 C 349 -614.5 342.00003 -627.8334 332 -639.50006 C 322.00003 -651.1667 309.6667 -659.6667 295 -665 C 280.33334 -670.3333 265.3333 -673.00006 250 -673.00006 C 238.66666 -673.00006 227.50002 -671.8334 216.50002 -669.50006 C 205.50002 -667.1666 195.33334 -663 186.00002 -657.00006 C 176.66669 -651 168.50002 -643.5 161.5 -634.5 C 154.5 -625.5 148.83334 -615.8334 144.5 -605.50006 C 140.16667 -595.1667 137.33334 -584.5 136 -573.5 C 134.66667 -562.5 134 -551.3334 134 -540 L 134 -195 C 134 -178.99998 135.83333 -162.83334 139.5 -146.5 C 143.16667 -130.16667 149.83334 -115.5 159.50002 -102.50001 C 169.16667 -89.5 181.5 -79.5 196.50002 -72.5 C 211.5 -65.5 227.33333 -62.000004 244 -62.000004 C 254.66667 -62.000004 265.5 -63.5 276.5 -66.5 C 287.5 -69.5 297.6667 -73.833336 307 -79.5 C 316.33334 -85.166664 324.66666 -92.33333 332 -101.00001 C 339.33334 -109.66667 345.00003 -119.166664 349.00003 -129.5 C 353.00003 -139.83333 355.5 -150.5 356.5 -161.5 C 357.5 -172.5 358 -183.66667 358 -195 L 358 -330 L 250 -330 L 250 -400.00003 L 476 -400.00003 L 476 -330 L 436 -330 L 436 -195 C 435.99997 -177.00002 435 -159.16667 433.00003 -141.50002 C 431 -123.83334 426.3333 -107 419 -91 C 411.66666 -75 401.66666 -60.499996 389.00003 -47.5 C 376.3333 -34.5 362.16666 -23.833332 346.5 -15.500001 C 330.8333 -7.166667 314.1667 -1.1666665 296.50003 2.5000002 C 278.83334 6.1666665 261.33334 8 244 8 Z " id="path1"/></defs><g><g fill="#000000" transform="translate(40 105.20961) rotate(0)"><use href="#path1" transform="translate(0 0) scale(0.09599999)"/></g></g></svg>