<svg xmlns="http://www.w3.org/2000/svg" height="160" viewBox="0 0 128 160" width="128"><defs><path d="M 64 0 L 64 -46 Q 64 -102 81 -156 Q 98 -210 129 -256 L 218 -387 L 306 -518 Q 328 -551 341 -588.5 Q 354 -626 357 -665 L 64 -665 L 64 -735 L 436 -735 L 436 -689 Q 436 -633 419 -579 Q 402 -525 371 -479 L 194 -217 Q 172 -184 159 -146.5 Q 146 -109 143 -70 L 436 -70 L 436 0 Z " id="path1"/></defs><g><g fill="#dee4e3" transform="translate(40 105.20961) rotate(0)"><use href="#path1" transform="translate(0 0) scale(0.09599999)"/></g></g></svg>