<svg xmlns="http://www.w3.org/2000/svg" height="160" viewBox="0 0 128 160" width="128"><defs><path d="M 48 0 L 48 -665 L 2 -665 L 2 -735 L 142 -735 L 250 -332 L 358 -735 L 452.00003 -735 L 452.00003 0 L 374 0 L 374 -147.00002 C 374 -223.66667 375.16666 -300.1667 377.50003 -376.50003 C 379.83334 -452.83334 381.6667 -529 383.00003 -605.00006 L 280.00003 -221 L 220.00002 -221 L 117.00001 -605.00006 C 118.333336 -529 120.166664 -452.83334 122.50001 -376.50003 C 124.83333 -300.1667 125.99999 -223.66667 126 -147.00002 L 126 0 Z " id="path1"/></defs><g><g fill="#000000" transform="translate(40 105.20961) rotate(0)"><use href="#path1" transform="translate(0 0) scale(0.09599999)"/></g></g></svg>