<?xml version="1.0" encoding="UTF-8" standalone="no"?>
<svg height="160" viewBox="0 0 128 160" width="128" xmlns="http://www.w3.org/2000/svg">
<defs>
<path d="M 247 223 Q 198 223 151 208 Q 104 193 64 166 L 64 80 L 133 80 L 133 124 Q 159 138 188 145.5 Q 217 153 247 153 Q 275 153 301 142.5 Q 327 132 344 110.5 Q 361 89 367.5 62 Q 374 35 374 7 Q 374 -11 371.5 -28.5 Q 369 -46 362.5 -62.5 Q 356 -79 344.5 -92.5 Q 333 -106 318 -115.5 Q 303 -125 285.5 -128.5 Q 268 -132 250 -132 L 194 -132 L 194 -202 L 250 -202 Q 274 -202 296.5 -211 Q 319 -220 333.5 -238.5 Q 348 -257 353 -280.5 Q 358 -304 358 -328 Q 358 -352 353 -375.5 Q 348 -399 334 -418.5 Q 320 -438 298 -448 Q 276 -458 252 -458 Q 234 -458 216.5 -455 Q 199 -452 183.5 -443 Q 168 -434 158 -418.5 Q 148 -403 148 -385 L 70 -385 Q 71 -407 77.5 -427.5 Q 84 -448 97 -465.5 Q 110 -483 128 -495.5 Q 146 -508 166.5 -515.5 Q 187 -523 208.5 -525.5 Q 230 -528 252 -528 Q 277 -528 302.5 -523 Q 328 -518 350.5 -505 Q 373 -492 390 -472.5 Q 407 -453 417.5 -429.5 Q 428 -406 432 -380.5 Q 436 -355 436 -329 Q 436 -305 432 -280.5 Q 428 -256 416.5 -234.5 Q 405 -213 386.5 -196 Q 368 -179 346 -168 Q 372 -158 393 -139.5 Q 414 -121 428 -97.5 Q 442 -74 447 -46.5 Q 452 -19 452 9 Q 452 37 447.5 65 Q 443 93 431 118 Q 419 143 399.5 164 Q 380 185 355.5 198.5 Q 331 212 303 217.5 Q 275 223 247 223 Z " id="path1"/>
</defs>
<g>
<g data-source-text="з" fill="#20242e" transform="translate(40 104.99201) rotate(0) scale(0.09599999)">
<use href="#path1" transform="translate(0 0)"/>
</g>
</g>
</svg>