<?xml version="1.0" encoding="UTF-8" standalone="no"?>
<svg height="160" viewBox="0 0 128 160" width="128" xmlns="http://www.w3.org/2000/svg">
<defs>
<path d="M 276 8 Q 255 8 233.5 4 Q 212 -0 193 -10 Q 174 -20 159 -35.5 Q 144 -51 133 -69 L 133 0 L 64 0 L 64 -180 L 133 -180 Q 133 -156 140 -133 Q 147 -110 163.5 -93 Q 180 -76 203 -69 Q 226 -62 250 -62 Q 266 -62 283 -65.5 Q 300 -69 314 -78 Q 328 -87 338.5 -100.5 Q 349 -114 355.5 -129.5 Q 362 -145 364 -161.5 Q 366 -178 366 -195 L 366 -225 L 229 -225 L 229 -199 L 160 -199 L 160 -321 L 229 -321 L 229 -295 L 366 -295 L 366 -325 Q 366 -342 364 -358.5 Q 362 -375 355.5 -390.5 Q 349 -406 338.5 -419.5 Q 328 -433 314 -442 Q 300 -451 283 -454.5 Q 266 -458 250 -458 Q 226 -458 203 -451 Q 180 -444 163.5 -427 Q 147 -410 140 -387 Q 133 -364 133 -340 L 64 -340 L 64 -520 L 133 -520 L 133 -451 Q 144 -469 159 -484.5 Q 174 -500 193 -510 Q 212 -520 233.5 -524 Q 255 -528 276 -528 Q 301 -528 325.5 -522 Q 350 -516 370.5 -501.5 Q 391 -487 406 -466.5 Q 421 -446 429.5 -422.5 Q 438 -399 441 -374.5 Q 444 -350 444 -325 L 444 -195 Q 444 -170 441 -145.5 Q 438 -121 429.5 -97.5 Q 421 -74 406 -53.5 Q 391 -33 370.5 -18.5 Q 350 -4 325.5 2 Q 301 8 276 8 Z " id="path1"/>
</defs>
<g>
<g data-source-text="Ñ" fill="#20242e" transform="translate(40 104.99201) rotate(0) scale(0.09599999)">
<use href="#path1" transform="translate(0 0)"/>
</g>
</g>
</svg>