<?xml version="1.0" encoding="UTF-8" standalone="no"?>
<svg height="160" viewBox="0 0 128 160" width="128" xmlns="http://www.w3.org/2000/svg">
<defs>
<path d="M 48 0 L 54 -147 Q 59 -277 67.5 -406 Q 76 -535 77 -665 L 43 -665 L 43 -735 L 188 -735 L 250 -240 L 312 -735 L 422 -735 Q 422 -588 431 -441 Q 440 -294 446 -147 L 452 0 L 374 0 L 368 -147 Q 364 -261 360 -375 Q 356 -489 355 -603 L 280 0 L 220 0 L 145 -603 Q 144 -489 140 -375 Q 136 -261 132 -147 L 126 0 Z " id="path1"/>
</defs>
<g>
<g data-source-text="M" fill="#20242e" transform="translate(40 104.99201) rotate(0) scale(0.09599999)">
<use href="#path1" transform="translate(0 0)"/>
</g>
</g>
</svg>