<?xml version="1.0" encoding="UTF-8" standalone="no"?>
<svg height="160" viewBox="0 0 128 160" width="128" xmlns="http://www.w3.org/2000/svg">
<defs>
<path d="M 214 107 L 214 -30 Q 181 -34 150.5 -48 Q 120 -62 97.5 -86.5 Q 75 -111 64.5 -142.5 Q 54 -174 54 -207 L 54 -217 L 132 -217 L 132 -211 Q 132 -192 137.5 -173 Q 143 -154 154.5 -139 Q 166 -124 183 -114.5 Q 200 -105 218 -101 L 218 -340 Q 188 -353 160 -371.5 Q 132 -390 110.5 -415 Q 89 -440 76.5 -471.5 Q 64 -503 64 -536 Q 64 -567 74 -597 Q 84 -627 105 -650.5 Q 126 -674 154.5 -687 Q 183 -700 214 -704 L 214 -843 L 286 -843 L 286 -704 Q 318 -701 347.5 -686.5 Q 377 -672 397.5 -647 Q 418 -622 428 -591 Q 438 -560 438 -528 L 438 -518 L 360 -518 L 360 -524 Q 360 -542 355.5 -560 Q 351 -578 341 -593.5 Q 331 -609 315.5 -619 Q 300 -629 282 -633 L 282 -399 Q 313 -385 342 -366.5 Q 371 -348 394 -323 Q 417 -298 430.5 -265.5 Q 444 -233 444 -199 Q 444 -167 433 -136.5 Q 422 -106 400 -83 Q 378 -60 348 -47 Q 318 -34 286 -31 L 286 107 Z M 218 -428 L 218 -633 Q 202 -630 187 -621 Q 172 -612 162 -599 Q 152 -586 146.5 -569.5 Q 141 -553 141 -536 Q 141 -518 147 -501.5 Q 153 -485 164 -471 Q 175 -457 189 -446.5 Q 203 -436 218 -428 Z M 282 -101 Q 299 -105 315 -113 Q 331 -121 343 -134.5 Q 355 -148 361 -165 Q 367 -182 367 -200 Q 367 -218 360 -236 Q 353 -254 341 -268 Q 329 -282 313.5 -292.5 Q 298 -303 282 -312 Z " id="path1"/>
</defs>
<g>
<g data-source-text="$" fill="#20242e" transform="translate(40 104.99201) rotate(0) scale(0.09599999)">
<use href="#path1" transform="translate(0 0)"/>
</g>
</g>
</svg>