<svg xmlns="http://www.w3.org/2000/svg" height="160" viewBox="0 0 128 160" width="128"><defs><path d="M 211.00002 0 L 211.00002 -82.00001 C 190.33333 -84.66667 170 -90.16667 150.00002 -98.50001 C 130 -106.833336 112.66667 -118.83333 98 -134.5 C 83.333336 -150.16667 72.333336 -168.16669 65.00001 -188.50002 C 57.66667 -208.83334 54 -229.66667 54 -251.00002 C 54 -252.33333 54 -253.66667 54 -255 C 54 -256.33334 54 -258.00003 54 -260.00003 L 132 -260.00003 C 132 -258.6667 132 -257.6667 132 -257.00003 C 132 -256.33334 132 -255.33333 132 -254.00002 C 132 -241.99998 134 -229.99998 138 -218 C 142 -206.00002 148 -195.33334 156 -186.00002 C 164 -176.66669 173.5 -169.16669 184.5 -163.5 C 195.5 -157.83333 207.33333 -154 220.00002 -152 L 220.00002 -335 C 200 -339.66666 180.66666 -346.33334 162 -355.00003 C 143.33333 -363.66666 126.49999 -375.16666 111.50001 -389.50003 C 96.5 -403.8333 84.83333 -420.66666 76.5 -440.00003 C 68.166664 -459.33334 64 -479.00003 64 -499 C 64 -519 67.666664 -538.3334 75.00001 -557 C 82.333336 -575.6667 92.83334 -591.8334 106.5 -605.50006 C 120.166664 -619.1667 136.16667 -629.8334 154.5 -637.5 C 172.83333 -645.1667 191.66667 -650.3334 211.00002 -653 L 211.00002 -735 L 289 -735 L 289 -653 C 309 -650.3334 328.66666 -644.50006 348.00003 -635.5 C 367.33334 -626.5 383.83334 -614.3333 397.5 -599.00006 C 411.1667 -583.6667 421.3333 -566.1667 428.00003 -546.5 C 434.66666 -526.8333 437.99997 -506.6667 438.00003 -486.00003 C 437.99997 -484.6667 437.99997 -483.16666 438.00003 -481.5 C 437.99997 -479.83334 437.99997 -478.33334 438.00003 -477 L 360.00003 -477 C 360 -477.66666 360 -478.50003 360.00003 -479.50003 C 360 -480.5 360 -481.3333 360.00003 -482 C 360 -493.99997 358.33337 -505.66666 355.00003 -517 C 351.66666 -528.3334 346.5 -538.6667 339.5 -548.00006 C 332.5 -557.3333 323.8333 -564.8333 313.50003 -570.50006 C 303.1667 -576.1666 292 -580 280.00003 -582.00006 L 280.00003 -402 C 300.6667 -397.33334 320.83334 -390.83334 340.5 -382.50003 C 360.16663 -374.16666 377.83334 -362.83334 393.50003 -348.50003 C 409.16666 -334.1667 421.50003 -317.1667 430.5 -297.5 C 439.5 -277.83334 444.00003 -257.3333 444.00003 -236.00002 C 444.00003 -216 440 -196.50002 432 -177.50002 C 424 -158.5 412.66666 -142.16667 398 -128.50002 C 383.33334 -114.833336 366.5 -104.333336 347.50003 -97.00001 C 328.5 -89.666664 309 -84.66667 289 -82.00001 L 289 0 Z M 220.00002 -415 L 220.00002 -582.00006 C 209.33333 -580.6667 199.16666 -577.8334 189.5 -573.5 C 179.83334 -569.1667 171.33331 -563.3333 164.00002 -556 C 156.66666 -548.6666 151 -540 147.00002 -530 C 143 -520 141 -509.99997 141 -500 C 141 -489.3333 143.16667 -479.1667 147.5 -469.5 C 151.83334 -459.8333 157.66667 -451.33334 165 -444.00003 C 172.33333 -436.66666 180.83333 -430.66666 190.5 -426 C 200.16667 -421.3333 210 -417.6667 220.00002 -415 Z M 280.00003 -152 C 291.33334 -154 302.16666 -157 312.5 -161.00002 C 322.83334 -165 332 -170.5 340 -177.50002 C 347.99997 -184.5 354.5 -193.16666 359.50003 -203.5 C 364.49997 -213.83334 366.99997 -224.66666 367 -236.00002 C 366.99997 -246.66666 364.49997 -257.16666 359.50003 -267.5 C 354.5 -277.83334 347.8333 -286.6667 339.5 -294.00003 C 331.1667 -301.33334 321.83334 -307.16666 311.5 -311.5 C 301.16666 -315.83334 290.66666 -319.33334 280.00003 -322.00003 Z " id="path1"/></defs><g><g fill="#000000" transform="translate(40 105.20961) rotate(0)"><use href="#path1" transform="translate(0 0) scale(0.09599999)"/></g></g></svg>