<?xml version="1.0" encoding="UTF-8" standalone="no"?>
<svg height="160" viewBox="0 0 128 160" width="128" xmlns="http://www.w3.org/2000/svg">
<defs>
<path d="M 184 107 L 193 -34 Q 163 -40 136 -55 Q 109 -70 90.5 -94 Q 72 -118 63 -147.5 Q 54 -177 54 -207 L 54 -217 L 132 -217 L 132 -211 Q 132 -194 136 -177.5 Q 140 -161 149 -146.5 Q 158 -132 171.5 -121.5 Q 185 -111 201 -106 L 213 -282 L 275 -262 L 266 -99 Q 285 -101 304 -108 Q 323 -115 337.5 -128.5 Q 352 -142 359.5 -161 Q 367 -180 367 -200 Q 367 -224 355.5 -246 Q 344 -268 325.5 -283.5 Q 307 -299 285 -309.5 Q 263 -320 241 -329.5 Q 219 -339 197 -350 Q 175 -361 155.5 -375 Q 136 -389 119 -406.5 Q 102 -424 89.5 -444.5 Q 77 -465 70.5 -488.5 Q 64 -512 64 -536 Q 64 -570 76 -602.5 Q 88 -635 112 -658.5 Q 136 -682 168.5 -693.5 Q 201 -705 235 -706 L 244 -843 L 316 -843 L 307 -701 Q 336 -694 361.5 -678.5 Q 387 -663 404.5 -639 Q 422 -615 430 -586 Q 438 -557 438 -528 L 438 -518 L 360 -518 L 360 -524 Q 360 -540 356.5 -556 Q 353 -572 345.5 -586 Q 338 -600 326 -611 Q 314 -622 299 -628 L 287 -453 L 225 -473 L 234 -636 Q 216 -634 198 -626.5 Q 180 -619 167 -605 Q 154 -591 147.5 -573 Q 141 -555 141 -536 Q 141 -512 152.5 -489.5 Q 164 -467 182 -451.5 Q 200 -436 222 -425.5 Q 244 -415 266.5 -405.5 Q 289 -396 310.5 -385 Q 332 -374 352 -360 Q 372 -346 389 -329 Q 406 -312 418.5 -291 Q 431 -270 437.5 -246.5 Q 444 -223 444 -199 Q 444 -176 438 -153.5 Q 432 -131 420.5 -111 Q 409 -91 392 -75.5 Q 375 -60 354 -50 Q 333 -40 310.5 -35 Q 288 -30 265 -29 L 256 107 Z " id="path1"/>
</defs>
<g>
<g data-source-text="$" fill="#dee4e3" transform="translate(40 104.99201) rotate(0) scale(0.09599999)">
<use href="#path1" transform="translate(0 0)"/>
</g>
</g>
</svg>