<?xml version="1.0" encoding="UTF-8" standalone="no"?>
<svg height="160" viewBox="0 0 128 160" width="128" xmlns="http://www.w3.org/2000/svg">
<defs>
<path d="M 211 107 L 211 -31 Q 179 -34 149.5 -47 Q 120 -60 98 -83.5 Q 76 -107 65 -137.5 Q 54 -168 54 -200 L 54 -207 L 132 -207 L 132 -203 Q 132 -185 138 -167 Q 144 -149 156 -135 Q 168 -121 184.5 -112.5 Q 201 -104 220 -101 L 220 -339 Q 189 -353 161 -371 Q 133 -389 111 -414 Q 89 -439 76.5 -470.5 Q 64 -502 64 -536 Q 64 -566 74 -596 Q 84 -626 104 -649 Q 124 -672 152.5 -686 Q 181 -700 211 -704 L 211 -843 L 289 -843 L 289 -704 Q 320 -700 348.5 -687 Q 377 -674 397.5 -650.5 Q 418 -627 428 -597 Q 438 -567 438 -536 L 438 -529 L 360 -529 L 360 -533 Q 360 -551 355 -568 Q 350 -585 339.5 -599 Q 329 -613 313.5 -622 Q 298 -631 280 -634 L 280 -400 Q 312 -386 341.5 -368 Q 371 -350 394 -324.5 Q 417 -299 430.5 -266.5 Q 444 -234 444 -200 Q 444 -168 433 -137.5 Q 422 -107 400.5 -84 Q 379 -61 349.5 -48 Q 320 -35 289 -31 L 289 107 Z M 220 -426 L 220 -633 Q 203 -630 188 -621.5 Q 173 -613 162.5 -599.5 Q 152 -586 146.5 -569.5 Q 141 -553 141 -536 Q 141 -518 147 -501 Q 153 -484 164 -470 Q 175 -456 189.5 -445 Q 204 -434 220 -426 Z M 280 -101 Q 298 -104 314.5 -112 Q 331 -120 342.5 -133.5 Q 354 -147 360.5 -164.5 Q 367 -182 367 -200 Q 367 -219 360 -236.5 Q 353 -254 341 -268.5 Q 329 -283 313 -294 Q 297 -305 280 -313 Z " id="path1"/>
</defs>
<g>
<g data-source-text="$" fill="#dee4e3" transform="translate(40 104.99201) rotate(0) scale(0.09599999)">
<use href="#path1" transform="translate(0 0)"/>
</g>
</g>
</svg>