<?xml version="1.0" encoding="UTF-8" standalone="no"?>
<svg height="160" viewBox="0 0 128 160" width="128" xmlns="http://www.w3.org/2000/svg">
<defs>
<path d="M 181 107 L 190 -34 Q 161 -41 134.5 -56 Q 108 -71 90 -95 Q 72 -119 63 -148 Q 54 -177 54 -207 L 54 -217 L 132 -217 L 132 -211 Q 132 -194 136 -177 Q 140 -160 149.5 -145.5 Q 159 -131 173 -120.5 Q 187 -110 203 -105 L 218 -340 Q 188 -354 160 -372.5 Q 132 -391 110.5 -415.5 Q 89 -440 76.5 -471.5 Q 64 -503 64 -536 Q 64 -570 76 -602 Q 88 -634 111.5 -657.5 Q 135 -681 167 -692.5 Q 199 -704 232 -706 L 241 -843 L 319 -843 L 310 -700 Q 338 -693 363 -677 Q 388 -661 405 -637.5 Q 422 -614 430 -585.5 Q 438 -557 438 -528 L 438 -518 L 360 -518 L 360 -524 Q 360 -540 356.5 -556.5 Q 353 -573 345 -587 Q 337 -601 324.5 -612 Q 312 -623 297 -629 L 282 -399 Q 313 -385 342.5 -366.5 Q 372 -348 394.5 -323 Q 417 -298 430.5 -265.5 Q 444 -233 444 -199 Q 444 -165 431 -132.5 Q 418 -100 393 -76.5 Q 368 -53 335 -42 Q 302 -31 268 -29 L 259 107 Z M 223 -425 L 236 -636 Q 217 -634 199 -627 Q 181 -620 168 -606 Q 155 -592 148 -573.5 Q 141 -555 141 -536 Q 141 -518 147.5 -500.5 Q 154 -483 165.5 -469 Q 177 -455 192 -444 Q 207 -433 223 -425 Z M 264 -99 Q 284 -100 303 -107 Q 322 -114 336.5 -127.5 Q 351 -141 359 -160.5 Q 367 -180 367 -200 Q 367 -219 359.5 -237 Q 352 -255 339.5 -269.5 Q 327 -284 310.5 -295 Q 294 -306 277 -314 Z " id="path1"/>
</defs>
<g>
<g data-source-text="$" fill="#dee4e3" transform="translate(40 104.99201) rotate(0) scale(0.09599999)">
<use href="#path1" transform="translate(0 0)"/>
</g>
</g>
</svg>