<?xml version="1.0" encoding="UTF-8" standalone="no"?>
<svg height="160" viewBox="0 0 128 160" width="128" xmlns="http://www.w3.org/2000/svg">
<defs>
<path d="M 214 107 L 214 -30 Q 181 -34 150.5 -48 Q 120 -62 97.5 -86.5 Q 75 -111 64.5 -142.5 Q 54 -174 54 -207 L 54 -217 L 132 -217 L 132 -211 Q 132 -188 140 -166 Q 148 -144 164.5 -128 Q 181 -112 203.5 -105.5 Q 226 -99 249 -99 Q 271 -99 292.5 -104 Q 314 -109 331 -123 Q 348 -137 357.5 -157.5 Q 367 -178 367 -200 Q 367 -224 355.5 -246 Q 344 -268 325.5 -283.5 Q 307 -299 285 -309.5 Q 263 -320 241 -329.5 Q 219 -339 197 -350 Q 175 -361 155.5 -375 Q 136 -389 119 -406.5 Q 102 -424 89.5 -444.5 Q 77 -465 70.5 -488.5 Q 64 -512 64 -536 Q 64 -567 74 -597 Q 84 -627 105 -650.5 Q 126 -674 154.5 -687 Q 183 -700 214 -704 L 214 -843 L 286 -843 L 286 -704 Q 318 -701 347.5 -686.5 Q 377 -672 397.5 -647 Q 418 -622 428 -591 Q 438 -560 438 -528 L 438 -518 L 360 -518 L 360 -524 Q 360 -546 353 -567.5 Q 346 -589 331 -605.5 Q 316 -622 294.5 -629 Q 273 -636 251 -636 Q 230 -636 209.5 -630.5 Q 189 -625 173 -611 Q 157 -597 149 -577 Q 141 -557 141 -536 Q 141 -512 152.5 -489.5 Q 164 -467 182 -451.5 Q 200 -436 222 -425.5 Q 244 -415 266.5 -405.5 Q 289 -396 310.5 -385 Q 332 -374 352 -360 Q 372 -346 389 -329 Q 406 -312 418.5 -291 Q 431 -270 437.5 -246.5 Q 444 -223 444 -199 Q 444 -167 433 -136.5 Q 422 -106 400 -83 Q 378 -60 348 -47 Q 318 -34 286 -31 L 286 107 Z " id="path1"/>
</defs>
<g>
<g data-source-text="$" fill="#20242e" transform="translate(40 104.99201) rotate(0) scale(0.09599999)">
<use href="#path1" transform="translate(0 0)"/>
</g>
</g>
</svg>