<?xml version="1.0" encoding="UTF-8" standalone="no"?>
<svg height="160" viewBox="0 0 128 160" width="128" xmlns="http://www.w3.org/2000/svg">
<defs>
<path d="M 211 0 L 211 -82 Q 179 -86 148.5 -100 Q 118 -114 96.5 -138.5 Q 75 -163 64.5 -194.5 Q 54 -226 54 -259 L 54 -268 L 132 -268 L 132 -262 Q 132 -243 137.5 -224 Q 143 -205 154.5 -190 Q 166 -175 183.5 -165.5 Q 201 -156 220 -152 L 220 -336 Q 190 -345 162 -359 Q 134 -373 112 -394.5 Q 90 -416 77 -445 Q 64 -474 64 -505 Q 64 -534 75 -561 Q 86 -588 107 -608 Q 128 -628 155.5 -638.5 Q 183 -649 211 -653 L 211 -735 L 289 -735 L 289 -653 Q 320 -648 349 -633.5 Q 378 -619 398.5 -594.5 Q 419 -570 428.5 -539 Q 438 -508 438 -476 L 438 -467 L 360 -467 L 360 -473 Q 360 -491 355.5 -509 Q 351 -527 340.5 -542.5 Q 330 -558 314 -568 Q 298 -578 280 -582 L 280 -401 Q 311 -393 340 -379 Q 369 -365 392.5 -343.5 Q 416 -322 430 -292 Q 444 -262 444 -230 Q 444 -201 432 -173 Q 420 -145 397.5 -125.5 Q 375 -106 346.5 -95.5 Q 318 -85 289 -82 L 289 0 Z M 220 -417 L 220 -583 Q 205 -580 190.5 -574.5 Q 176 -569 165 -558.5 Q 154 -548 147.5 -534 Q 141 -520 141 -505 Q 141 -489 148 -474.5 Q 155 -460 166 -448.5 Q 177 -437 191 -429.5 Q 205 -422 220 -417 Z M 280 -152 Q 296 -154 311.5 -159.5 Q 327 -165 339.5 -175 Q 352 -185 359.5 -200 Q 367 -215 367 -231 Q 367 -247 359 -262.5 Q 351 -278 339 -289.5 Q 327 -301 311.5 -308 Q 296 -315 280 -320 Z " id="path1"/>
</defs>
<g>
<g data-source-text="$" fill="#dee4e3" transform="translate(40 104.99201) rotate(0) scale(0.09599999)">
<use href="#path1" transform="translate(0 0)"/>
</g>
</g>
</svg>