<?xml version="1.0" encoding="UTF-8" standalone="no"?>
<svg height="160" viewBox="0 0 128 160" width="128" xmlns="http://www.w3.org/2000/svg">
<defs>
<path d="M 211 0 L 211 -82 Q 179 -86 148.5 -100 Q 118 -114 96.5 -138.5 Q 75 -163 64.5 -194.5 Q 54 -226 54 -259 L 54 -268 L 132 -268 L 132 -262 Q 132 -243 137 -225 Q 142 -207 153.5 -191.5 Q 165 -176 181.5 -166.5 Q 198 -157 217 -153 L 219 -286 L 282 -270 L 283 -152 Q 299 -155 313.5 -160.5 Q 328 -166 340 -176 Q 352 -186 359.5 -200.5 Q 367 -215 367 -231 Q 367 -249 357.5 -265.5 Q 348 -282 333.5 -294 Q 319 -306 301.5 -312.5 Q 284 -319 266.5 -323.5 Q 249 -328 231 -333 Q 213 -338 195.5 -344.5 Q 178 -351 161.5 -359.5 Q 145 -368 130.5 -379 Q 116 -390 103.5 -404 Q 91 -418 82 -434 Q 73 -450 68.5 -468 Q 64 -486 64 -505 Q 64 -534 75 -561 Q 86 -588 107 -608 Q 128 -628 155.5 -638.5 Q 183 -649 211 -653 L 211 -735 L 289 -735 L 289 -653 Q 320 -648 349 -633.5 Q 378 -619 398.5 -594.5 Q 419 -570 428.5 -539 Q 438 -508 438 -476 L 438 -467 L 360 -467 L 360 -473 Q 360 -491 355.5 -508.5 Q 351 -526 341 -541 Q 331 -556 316 -566.5 Q 301 -577 283 -581 L 281 -449 L 218 -465 L 217 -582 Q 202 -580 188.5 -574 Q 175 -568 164 -557.5 Q 153 -547 147 -533.5 Q 141 -520 141 -505 Q 141 -483 154 -463.5 Q 167 -444 186 -432.5 Q 205 -421 226.5 -415.5 Q 248 -410 269.5 -404.5 Q 291 -399 312 -391 Q 333 -383 352.5 -372.5 Q 372 -362 389 -347 Q 406 -332 418 -314 Q 430 -296 437 -274.5 Q 444 -253 444 -230 Q 444 -201 432 -173 Q 420 -145 397.5 -125.5 Q 375 -106 346.5 -95.5 Q 318 -85 289 -82 L 289 0 Z " id="path1"/>
</defs>
<g>
<g data-source-text="$" fill="#dee4e3" transform="translate(40 104.99201) rotate(0) scale(0.09599999)">
<use href="#path1" transform="translate(0 0)"/>
</g>
</g>
</svg>