<?xml version="1.0" encoding="UTF-8" standalone="no"?>
<svg height="160" viewBox="0 0 128 160" width="128" xmlns="http://www.w3.org/2000/svg">
<defs>
<path d="M 253 8 Q 226 8 199 3 Q 172 -2 148 -15 Q 124 -28 105.5 -48.5 Q 87 -69 76 -94 Q 65 -119 60.5 -146 Q 56 -173 56 -200 L 56 -320 Q 56 -345 59 -370 Q 62 -395 70 -418.5 Q 78 -442 91.5 -463 Q 105 -484 125 -499 Q 145 -514 169.5 -521 Q 194 -528 219 -528 Q 242 -528 264.5 -522 Q 287 -516 305.5 -502.5 Q 324 -489 337 -469.5 Q 350 -450 358 -429 L 358 -665 L 312 -665 L 312 -735 L 436 -735 L 436 -49 Q 397 -20 349.5 -6 Q 302 8 253 8 Z M 255 -62 Q 282 -62 308.5 -67.5 Q 335 -73 358 -85 L 358 -320 Q 358 -337 356 -353.5 Q 354 -370 349 -385.5 Q 344 -401 334.5 -415.5 Q 325 -430 311.5 -440 Q 298 -450 282 -454 Q 266 -458 249 -458 Q 232 -458 215.5 -454 Q 199 -450 185 -440.5 Q 171 -431 160.5 -417 Q 150 -403 144 -387 Q 138 -371 136 -354 Q 134 -337 134 -320 L 134 -200 Q 134 -183 136 -165.5 Q 138 -148 144.5 -131.5 Q 151 -115 162 -101 Q 173 -87 188 -78 Q 203 -69 220.5 -65.5 Q 238 -62 255 -62 Z " id="path1"/>
</defs>
<g>
<g data-source-text="d" fill="#20242e" transform="translate(40 104.99201) rotate(0) scale(0.09599999)">
<use href="#path1" transform="translate(0 0)"/>
</g>
</g>
</svg>