<?xml version="1.0" encoding="UTF-8" standalone="no"?>
<svg xmlns="http://www.w3.org/2000/svg" height="160" viewBox="0 0 128 160" width="128"><defs><path d="M 211 107 L 211 -31 Q 180 -34 150 -47 Q 120 -60 98 -83 Q 76 -106 65 -136.5 Q 54 -167 54 -199 Q 54 -201 54 -203 Q 54 -205 54 -207 L 132 -207 Q 132 -206 132 -204.5 Q 132 -203 132 -202 Q 132 -184 137.5 -166.5 Q 143 -149 154.5 -135.5 Q 166 -122 182.5 -113.5 Q 199 -105 217 -101 L 219 -277 L 282 -257 L 283 -102 Q 300 -105 316 -113 Q 332 -121 343.5 -134 Q 355 -147 361 -163.5 Q 367 -180 367 -197 Q 367 -222 355.5 -244 Q 344 -266 325.5 -282 Q 307 -298 285 -309 Q 263 -320 241 -329.5 Q 219 -339 197.5 -350.5 Q 176 -362 156 -376 Q 136 -390 119 -407.5 Q 102 -425 89.5 -446 Q 77 -467 70.5 -490.5 Q 64 -514 64 -538 Q 64 -569 74 -598.5 Q 84 -628 104.5 -650.5 Q 125 -673 153 -686.5 Q 181 -700 211 -704 L 211 -843 L 289 -843 L 289 -704 Q 319 -700 348 -687 Q 377 -674 397.5 -651 Q 418 -628 428 -598 Q 438 -568 438 -537 Q 438 -535 438 -533.5 Q 438 -532 438 -530 L 360 -530 Q 360 -531 360 -532 Q 360 -533 360 -534 Q 360 -551 355 -568 Q 350 -585 340 -598.5 Q 330 -612 315 -621 Q 300 -630 283 -633 L 281 -458 L 218 -478 L 217 -633 Q 201 -629 186.5 -620.5 Q 172 -612 161.5 -599 Q 151 -586 146 -570.5 Q 141 -555 141 -538 Q 141 -514 152.5 -491.5 Q 164 -469 182 -453 Q 200 -437 222 -426 Q 244 -415 266.5 -405.5 Q 289 -396 310.5 -385 Q 332 -374 352 -359.5 Q 372 -345 389 -327.5 Q 406 -310 418.5 -289.5 Q 431 -269 437.5 -245 Q 444 -221 444 -197 Q 444 -166 433 -135.5 Q 422 -105 400.5 -82.5 Q 379 -60 349.5 -47.5 Q 320 -35 289 -31 L 289 107 Z " id="path1"/></defs><g><g data-source-text="$" fill="#dee4e3" transform="translate(40 104.99201) rotate(0) scale(0.09599999)"><use href="#path1" transform="translate(0 0)"/></g></g></svg>