<?xml version="1.0" encoding="UTF-8" standalone="no"?>
<svg xmlns="http://www.w3.org/2000/svg" height="160" viewBox="0 0 128 160" width="128"><defs><path d="M 211 107 L 211 -31 Q 179 -34 149 -47.5 Q 119 -61 97.5 -84.5 Q 76 -108 65 -139 Q 54 -170 54 -202 Q 54 -204 54 -205.5 Q 54 -207 54 -208 L 132 -208 Q 132 -207 132 -206.5 Q 132 -206 132 -205 Q 132 -182 140.5 -161 Q 149 -140 166 -125.5 Q 183 -111 205 -105 Q 227 -99 249 -99 Q 271 -99 293 -104.5 Q 315 -110 332 -124.5 Q 349 -139 358 -160.5 Q 367 -182 367 -204 Q 367 -228 355.5 -250 Q 344 -272 326 -287.5 Q 308 -303 285.5 -312.5 Q 263 -322 240.5 -330 Q 218 -338 196.5 -348.5 Q 175 -359 155 -372 Q 135 -385 118 -402 Q 101 -419 89 -439.5 Q 77 -460 70.5 -483.5 Q 64 -507 64 -531 Q 64 -562 73.5 -592.5 Q 83 -623 103 -647 Q 123 -671 151.5 -685 Q 180 -699 211 -704 L 211 -843 L 289 -843 L 289 -704 Q 320 -700 348.5 -686.5 Q 377 -673 397.5 -649.5 Q 418 -626 428 -595.5 Q 438 -565 438 -534 Q 438 -533 438 -531.5 Q 438 -530 438 -528 L 360 -528 Q 360 -529 360 -530 Q 360 -531 360 -532 Q 360 -553 352.5 -573.5 Q 345 -594 329.5 -609 Q 314 -624 293 -630 Q 272 -636 251 -636 Q 230 -636 209 -630 Q 188 -624 172.5 -609 Q 157 -594 149 -573.5 Q 141 -553 141 -531 Q 141 -507 152 -485 Q 163 -463 181.5 -447.5 Q 200 -432 222 -423 Q 244 -414 266.5 -405.5 Q 289 -397 311 -387 Q 333 -377 353 -363.5 Q 373 -350 390 -333 Q 407 -316 419 -295.5 Q 431 -275 437.5 -251.5 Q 444 -228 444 -204 Q 444 -172 433.5 -141 Q 423 -110 401.5 -86.5 Q 380 -63 350.5 -49 Q 321 -35 289 -31 L 289 107 Z " id="path1"/></defs><g><g data-source-text="$" fill="#dee4e3" transform="translate(40 104.99201) rotate(0) scale(0.09599999)"><use href="#path1" transform="translate(0 0)"/></g></g></svg>