<svg xmlns="http://www.w3.org/2000/svg" height="160" viewBox="0 0 1280 160" width="1280"><defs><path d="M 294.00003 140.00002 L 294.00003 -55.000004 L 56 -55.000004 L 56 -125 L 290 -595 L 375 -595 L 141 -125 L 294.00003 -125 L 294.00003 -304 L 372.00003 -304 L 372.00003 -125 L 436 -125 L 436 -55.000004 L 372.00003 -55.000004 L 372.00003 140.00002 Z " id="path5"/><path d="M 252 148 C 235.99998 148 220 146.5 204 143.5 C 188.00002 140.5 173 135.33333 159 128 C 145 120.666664 132.16667 111.16667 120.5 99.5 C 108.833336 87.83333 99 75.166664 91 61.500004 C 83 47.833336 76.833336 33.166668 72.5 17.500002 C 68.166664 1.8333343 65 -14 63 -30.000002 L 63 -35.000004 L 141 -35.000004 L 142 -23 C 144.66666 -9.666667 148.66667 3.333334 154.00002 16 C 159.33333 28.666668 166.83333 39.833332 176.50002 49.5 C 186.16667 59.166668 197.66667 66.333336 211.00002 71 C 224.33333 75.66667 238 78 252 78 C 264.6667 78 277.1667 75.66667 289.5 71 C 301.83334 66.333336 312.6667 59.333336 322.00003 50.000004 C 331.33334 40.666668 338.83334 30 344.5 18.000002 C 350.16666 6.0000005 354.6667 -6.166667 358 -18.5 C 361.33334 -30.833332 363.5 -43.499996 364.50003 -56.500004 C 365.50003 -69.5 366.00003 -82.666664 366.00003 -96 C 366.00003 -96 366.00003 -96 366.00003 -96 C 366.00003 -96 366.00003 -96 366.00003 -96 C 366.00003 -108.666664 365.50003 -121.5 364.50003 -134.5 C 363.5 -147.5 361.33334 -160.16667 358 -172.5 C 354.6667 -184.83333 350.33334 -196.83334 345 -208.50002 C 339.66666 -220.16667 332.5 -230.66669 323.5 -240.00002 C 314.49997 -249.33333 304 -256.5 292 -261.5 C 280 -266.49997 267.33334 -268.99997 254.00002 -269 C 240.66667 -268.99997 227.33336 -266.66666 214.00002 -262 C 200.66667 -257.3333 189.16667 -250.16666 179.50002 -240.5 C 169.83334 -230.83334 162.5 -219.33334 157.5 -206.00002 C 152.5 -192.66667 149.66667 -179.33333 149 -166 L 71 -166 L 71 -595 L 417.00003 -595 L 417.00003 -525.00006 L 149 -525.00006 L 149 -312 C 164.33334 -322 181.16667 -329 199.50002 -333 C 217.83333 -336.99997 235.99998 -339 254.00002 -339 C 273.33334 -339 292.5 -336.3333 311.5 -331.00003 C 330.5 -325.6667 347.8333 -317.1667 363.5 -305.50003 C 379.1667 -293.83334 392.33337 -279.66666 403 -263.00003 C 413.66666 -246.33333 422.00003 -228.83333 428.00003 -210.50002 C 434.00003 -192.16667 438.16666 -173.33333 440.50003 -154.00002 C 442.83334 -134.66667 444.00003 -115.333336 444.00003 -96 C 444.00003 -76 442.83334 -56.33333 440.50003 -37 C 438.16666 -17.666668 433.83334 1.3333342 427.50003 20.000002 C 421.16666 38.666668 412.5 56.16667 401.5 72.5 C 390.5 88.833336 377.16663 102.833336 361.5 114.5 C 345.83334 126.166664 328.5 134.66667 309.5 140.00002 C 290.5 145.33333 271.33334 148 252 148 Z " id="path6"/><path d="M 241 0 L 241 -516 L 92 -441 L 58 -503.00003 L 241 -595 L 319.00003 -595 L 319.00003 0 Z " id="path2"/><path d="M 250 8 C 232 8 214 6.1666665 196 2.5000002 C 178.00002 -1.1666665 161.33334 -7.3333335 146 -16 C 130.66667 -24.666666 116.833336 -35.833332 104.50001 -49.5 C 92.16667 -63.16667 82.333336 -78.16667 75.00001 -94.50001 C 67.666664 -110.83333 62.666668 -127.99999 60.000004 -146 C 57.333332 -164 55.999996 -182 56 -200.00002 L 56 -395.00003 C 55.999996 -413.00003 57.333332 -431 60.000004 -449 C 62.666668 -466.99997 67.666664 -484.16663 75.00001 -500.50003 C 82.333336 -516.8333 92.16667 -532 104.50001 -546 C 116.833336 -560 130.83333 -571.3334 146.5 -580 C 162.16666 -588.6667 178.83333 -595.1667 196.50002 -599.50006 C 214.16667 -603.8333 232 -605.99994 250 -606 C 268 -605.99994 285.8333 -603.8333 303.5 -599.50006 C 321.16666 -595.1667 337.83334 -588.6667 353.50003 -580 C 369.16672 -571.3334 383.1667 -560 395.5 -546 C 407.83334 -532 417.6667 -516.8333 425 -500.50003 C 432.3333 -484.16663 437.3333 -466.99997 440.00003 -449 C 442.66666 -431 444.00003 -413.00003 444.00003 -395.00003 L 444.00003 -200.00002 C 444.00003 -182 442.66666 -164 440.00003 -146 C 437.3333 -127.99999 432.3333 -110.83333 425 -94.50001 C 417.6667 -78.16667 407.83334 -63.16667 395.5 -49.5 C 383.1667 -35.833332 369.33334 -24.666666 354.00003 -16 C 338.6667 -7.3333335 322.00003 -1.1666665 304 2.5000002 C 286 6.1666665 268 8 250 8 Z M 134 -263.00003 L 366.00003 -412.00003 C 365.33334 -428 362.5 -443.66663 357.5 -459 C 352.49997 -474.3333 344.66666 -487.8333 334 -499.5 C 323.33334 -511.16666 310.33334 -519.6667 295 -525.00006 C 279.66666 -530.3333 264 -532.99994 248.00002 -533 C 236.66667 -532.99994 225.5 -531.6666 214.50002 -529 C 203.5 -526.3334 193.33333 -521.8334 184 -515.5 C 174.66667 -509.16666 166.66667 -501.33334 160.00002 -492.00003 C 153.33333 -482.66666 148 -472.6667 144.00002 -462.00003 C 140.00002 -451.33334 137.33334 -440.33334 136 -429.00003 C 134.66667 -417.6667 134 -406.33337 134 -395.00003 Z M 250 -62.000004 C 261.33334 -62.000004 272.66666 -63.333336 284 -66 C 295.3333 -68.66667 305.66666 -73.16667 315 -79.5 C 324.3333 -85.833336 332.5 -93.666664 339.5 -103.00001 C 346.5 -112.33334 352 -122.33333 356 -133 C 360 -143.66667 362.66666 -154.66667 364 -166 C 365.33334 -177.33334 366.00003 -188.66667 366.00003 -200.00002 L 366.00003 -333 L 134 -183.00002 C 134.66667 -167.66667 137.5 -152.33334 142.5 -137.00002 C 147.5 -121.66667 155.16667 -108.16667 165.50002 -96.5 C 175.83333 -84.833336 188.5 -76.166664 203.5 -70.5 C 218.5 -64.833336 234.00002 -62.000004 250 -62.000004 Z " id="path1"/><path d="M 253.00002 148 C 235.66669 148 218.49998 146.5 201.5 143.5 C 184.49998 140.5 168.33334 135.5 153 128.50002 C 137.66667 121.5 123.666664 112.166664 111.00001 100.5 C 98.33333 88.833336 87.666664 75.66667 79 61 C 70.333336 46.333336 63.999996 30.666666 60.000004 14 C 56 -2.666666 54 -19.666668 54 -37 C 54 -37 54 -37.166668 54 -37.500004 C 54 -37.833336 54 -38 54 -38 L 132 -38 C 132 -38 132 -37.833336 132 -37.500004 C 132 -37.166668 132 -37 132 -37 C 132 -21.666666 134.83333 -6.3333325 140.5 9.000001 C 146.16667 24.333334 154.66667 37.333332 166 48 C 177.33334 58.666668 190.66669 66.333336 206.00002 71 C 221.33333 75.66667 237 78 253.00002 78 C 269.66666 78 285.99997 75 302 69 C 318 63.000004 331.5 53.833336 342.50003 41.5 C 353.50003 29.166668 361.6667 14.833333 367 -1.5 C 372.3333 -17.833332 375 -34.333336 375 -51 C 375 -67 372.5 -82.666664 367.5 -98 C 362.5 -113.33333 355.33334 -127.333336 346 -140.00002 C 336.6667 -152.66667 325.5 -163.66667 312.5 -173 C 299.5 -182.33334 285.5 -189.5 270.5 -194.50002 C 255.5 -199.50002 240.00002 -202.49998 224 -203.5 C 208.00002 -204.5 192.33334 -205.00002 177.00002 -205.00002 L 177.00002 -275 C 190.99998 -274.99997 205.33334 -275.5 220.00002 -276.5 C 234.66667 -277.5 249 -280.33334 263.00003 -285 C 277 -289.66666 290 -296.16666 302 -304.5 C 314.00003 -312.83334 324.33334 -323 333 -335 C 341.66666 -347 348.1667 -360 352.5 -374 C 356.83334 -388.00003 359.00003 -402.33334 359.00003 -417.00003 C 359.00003 -431.66666 356.83334 -446.33334 352.5 -461.00003 C 348.1667 -475.6667 341.3333 -488.66666 332 -500 C 322.6667 -511.3333 310.83334 -519.6667 296.50003 -525.00006 C 282.16666 -530.3333 267.66666 -532.99994 253.00002 -533 C 238.33336 -532.99994 224.16667 -530.6666 210.50002 -526.00006 C 196.83334 -521.3334 185.16666 -513.6667 175.5 -503.00003 C 165.83334 -492.33334 158.83334 -480 154.5 -466 C 150.16667 -452 148 -438.00003 148 -424 C 148 -423.33334 148 -422.83334 148 -422.50003 C 148 -422.1667 148 -421.6667 148 -421.00003 L 70.00001 -421.00003 C 70.00001 -421.6667 70.00001 -422.33334 70.00001 -423.00003 C 70.00001 -423.66666 70.00001 -424.33334 70.00001 -425 C 70.00001 -441 71.833336 -457 75.5 -473.00003 C 79.166664 -489.00003 84.666664 -504 92 -518 C 99.333336 -532 108.833336 -544.6667 120.5 -556 C 132.16667 -567.3333 145.16667 -576.6666 159.50002 -584 C 173.83333 -591.3333 189 -596.3334 205.00002 -599.00006 C 221 -601.6667 237 -603 253.00002 -603 C 269 -603 285.16666 -601.5 301.5 -598.50006 C 317.83334 -595.5 333.16666 -590.1667 347.50003 -582.50006 C 361.83334 -574.8333 374.83334 -565 386.5 -553 C 398.16666 -541 407.5 -527.6667 414.5 -513 C 421.49997 -498.33334 426.8333 -483 430.5 -467.00003 C 434.16666 -451 435.99997 -435 436 -419 C 435.99997 -399.66663 433.33334 -380.66666 428.00003 -362 C 422.66666 -343.33334 414.66666 -326.16666 404.00003 -310.50003 C 393.3333 -294.83334 380.33334 -281 365.00003 -269 C 349.6667 -257 333 -247.66667 315 -241 C 334.99997 -234.33333 353.6667 -224.66666 371.00003 -212 C 388.33334 -199.33334 403.16666 -184.5 415.50003 -167.5 C 427.83334 -150.5 437 -131.83334 443 -111.50001 C 449 -91.16667 452 -70.666664 452.00003 -50.000004 C 452 -32 450.00003 -14.333333 446.00003 3 C 442 20.333332 436.00003 36.833332 428.00003 52.5 C 420 68.166664 409.66666 82.333336 397 95 C 384.33334 107.666664 370.33337 117.99999 355.00003 126 C 339.6667 134 323.1667 139.66667 305.50003 143 C 287.83334 146.33333 270.33334 148 253.00002 148 Z " id="path4"/><path d="M 146 140.00002 L 355.00003 -525.00006 L 64 -525.00006 L 64 -595 L 436 -595 L 436 -525.00006 L 346 -240.00002 L 226.00002 140.00002 Z " id="path8"/><path d="M 250 8 C 234.00002 8 217.83333 6.833333 201.5 4.5000005 C 185.16669 2.1666667 169.5 -2.3333337 154.5 -9.000001 C 139.5 -15.666667 125.666664 -24.333334 113.00001 -35.000004 C 100.333336 -45.666668 89.666664 -58 81 -72.00001 C 72.333336 -86.00001 66 -100.833336 62.000004 -116.5 C 58 -132.16667 55.999996 -148.33333 56 -165 C 55.999996 -186.33334 59.666664 -207.5 67 -228.50002 C 74.333336 -249.5 84.16667 -268.8333 96.5 -286.5 C 108.833336 -304.1667 123 -320.33334 139 -335 C 155 -349.66666 171.66667 -363.66666 189.00002 -377.00003 C 173 -389.66666 157.83333 -403 143.5 -417.00003 C 129.16667 -431 116.66667 -446.5 106 -463.50003 C 95.33333 -480.5 86.83334 -498.66666 80.50001 -518 C 74.166664 -537.3334 71 -557 71 -577.00006 C 71 -592.3333 72.83333 -607.5 76.5 -622.50006 C 80.166664 -637.5 85.833336 -651.6667 93.5 -665 C 101.16667 -678.3334 110.83333 -690.1666 122.50001 -700.50006 C 134.16667 -710.8333 146.83334 -719.1667 160.5 -725.50006 C 174.16667 -731.8333 188.66667 -736.3333 204 -739 C 219.33334 -741.6667 234.66667 -743.00006 250 -743.00006 C 265.3333 -743.00006 280.66666 -741.8334 296 -739.50006 C 311.3333 -737.1667 325.83334 -732.6667 339.5 -726 C 353.16666 -719.3334 365.83334 -710.8333 377.50003 -700.50006 C 389.1667 -690.1666 398.83337 -678.3334 406.50003 -665 C 414.1667 -651.6667 419.83334 -637.5 423.50003 -622.50006 C 427.1667 -607.5 429 -592.3333 429.00003 -577.00006 C 429 -557 425.8333 -537.3334 419.5 -518 C 413.1667 -498.66666 404.6667 -480.5 394.00003 -463.50003 C 383.33334 -446.5 370.83334 -431 356.5 -417.00003 C 342.1667 -403 327 -389.66666 311.00003 -377.00003 C 328.33334 -363.66666 345 -349.66666 361.00003 -335 C 377 -320.33334 391.16666 -304.1667 403.5 -286.5 C 415.8333 -268.8333 425.66666 -249.5 433.00003 -228.50002 C 440.33334 -207.5 444.00003 -186.33334 444.00003 -165 C 444.00003 -148.33333 442 -132.16667 438.00003 -116.5 C 434.00003 -100.833336 427.6667 -86.00001 419 -72.00001 C 410.3333 -58 399.6667 -45.666668 387.00003 -35.000004 C 374.3333 -24.333334 360.5 -15.666667 345.5 -9.000001 C 330.5 -2.3333337 314.83334 2.1666667 298.5 4.5000005 C 282.16666 6.833333 266 8 250 8 Z M 250 -421.00003 C 262.66666 -431 274.99997 -441.3333 287 -452.00003 C 299 -462.6667 309.66666 -474.33334 319.00003 -487 C 328.33334 -499.66666 335.99997 -513.6667 342.00003 -529 C 347.99997 -544.3334 351 -560.00006 351 -576.00006 C 351 -588.6667 348.6667 -601.5 344.00003 -614.5 C 339.33334 -627.50006 332.33334 -638.50006 323 -647.5 C 313.66666 -656.5 302.5 -662.99994 289.5 -667 C 276.5 -671 263.33334 -673.00006 250 -673.00006 C 236.66667 -673.00006 223.5 -671 210.50002 -667 C 197.5 -662.99994 186.33334 -656.5 177.00002 -647.5 C 167.66667 -638.50006 160.66667 -627.50006 156 -614.5 C 151.33334 -601.5 149 -588.6667 149 -576.00006 C 149 -560.00006 152 -544.3334 158 -529 C 164 -513.6667 171.66667 -499.66666 181 -487 C 190.33333 -474.33334 200.99998 -462.6667 213 -452.00003 C 224.99998 -441.3333 237.33334 -431 250 -421.00003 Z M 250 -62.000004 C 264.66666 -62.000004 279.33334 -63.83334 294.00003 -67.5 C 308.6667 -71.166664 321.5 -77.83333 332.5 -87.5 C 343.50003 -97.166664 351.83334 -109 357.5 -123.00001 C 363.16666 -137.00002 366.00003 -151.33334 366.00003 -166 C 366.00003 -184 362.50003 -201.16667 355.50003 -217.50002 C 348.50003 -233.83334 339.5 -248.83334 328.50003 -262.50003 C 317.5 -276.1667 305.16666 -288.6667 291.50003 -300.00003 C 277.83334 -311.33334 264 -322.00003 250 -332 C 235.99998 -322.00003 222.16667 -311.33334 208.50002 -300.00003 C 194.83334 -288.6667 182.50002 -276.1667 171.50002 -262.50003 C 160.5 -248.83334 151.49998 -233.83334 144.5 -217.50002 C 137.49998 -201.16667 134 -184 134 -166 C 134 -151.33334 136.83333 -137.00002 142.5 -123.00001 C 148.16667 -109 156.5 -97.166664 167.5 -87.5 C 178.5 -77.83333 191.33334 -71.166664 206.00002 -67.5 C 220.66667 -63.83334 235.33333 -62.000004 250 -62.000004 Z " id="path9"/><path d="M 252 140.00002 L 166 140.00002 L 268 -62.000004 C 276 -78.66667 284.33334 -95 293 -111.00001 C 301.66666 -127 310.66666 -142.66666 320.00003 -158 L 321 -160.00002 L 321 -161.00002 C 321 -161.00002 321.16666 -161.16667 321.5 -161.5 C 321.83334 -161.83333 322.00003 -162 322.00003 -162 C 310 -156.66667 297.83334 -153 285.50003 -151 C 273.16666 -149 260.6667 -148 248.00002 -148 C 229.33334 -148 210.66666 -150.33333 192 -155 C 173.33333 -159.66666 156.33333 -167.16667 141 -177.50002 C 125.666664 -187.83333 112.166664 -200.66667 100.5 -216 C 88.833336 -231.33334 79.666664 -247.83334 73 -265.50003 C 66.33333 -283.16666 61.833332 -301.3333 59.5 -320.00003 C 57.166668 -338.6667 55.999996 -357.33334 56 -376.00003 C 55.999996 -394.6667 57.333332 -413.5 60.000004 -432.50003 C 62.666668 -451.5 67.333336 -469.66666 74 -487 C 80.66667 -504.3333 89.83334 -520.6666 101.50001 -536 C 113.166664 -551.3333 126.833336 -564.1666 142.5 -574.5 C 158.16667 -584.8333 175.33334 -592.1667 194.00002 -596.5 C 212.66667 -600.8334 231.33334 -603 250 -603 C 270 -603 289.6667 -600.3334 309 -595 C 328.33334 -589.6667 345.83334 -581 361.5 -569 C 377.16663 -557 390.5 -542.5 401.5 -525.50006 C 412.5 -508.50003 421.16666 -490.66666 427.50003 -472.00003 C 433.83334 -453.3333 438.16666 -434.1667 440.50003 -414.5 C 442.83334 -394.83334 444.00003 -375 444.00003 -355.00003 C 444.00003 -326.33334 441 -297.83334 435.00003 -269.5 C 429 -241.16667 420.8333 -213.66667 410.50003 -187 C 400.1667 -160.33334 388.6667 -134.16667 376.00003 -108.50001 C 363.3333 -82.833336 350.3333 -57.000004 337.00003 -31.000002 Z M 250 -218 C 262 -217.99998 274 -219.83333 286 -223.5 C 298 -227.16666 308.6667 -232.99998 318 -241 C 327.33334 -249 335.16666 -258.33334 341.5 -269 C 347.8333 -279.66666 352.8333 -290.83334 356.5 -302.50003 C 360.16663 -314.1667 362.66666 -326.1667 364 -338.5 C 365.33334 -350.8333 366.00003 -363.3333 366.00003 -376.00003 C 366.00003 -388.00003 365.33334 -400.1667 364 -412.5 C 362.66666 -424.8333 360.33328 -436.8333 357 -448.5 C 353.66663 -460.16666 348.83334 -471.5 342.50003 -482.5 C 336.16666 -493.5 328.16666 -502.8333 318.5 -510.5 C 308.83334 -518.1666 298 -523.8333 286 -527.5 C 274 -531.1666 262 -532.99994 250 -533 C 238 -532.99994 226 -531.1666 214.00002 -527.5 C 202.00002 -523.8333 191.16667 -518.1666 181.5 -510.5 C 171.83333 -502.8333 163.83333 -493.5 157.5 -482.5 C 151.16666 -471.5 146.33333 -460.16666 143 -448.5 C 139.66667 -436.8333 137.33334 -424.8333 136 -412.5 C 134.66667 -400.1667 134 -388.00003 134 -376.00003 C 134 -363.3333 134.66667 -351 136 -339 C 137.33334 -327 139.66667 -315 143 -303 C 146.33333 -291.00003 151.16666 -279.66666 157.5 -269 C 163.83333 -258.33334 171.66667 -249 181 -241 C 190.33333 -232.99998 200.99998 -227.16666 213 -223.5 C 224.99998 -219.83333 237.33334 -217.99998 250 -218 Z " id="path10"/><path d="M 64 0 L 64 -1 C 64 -17 64.33333 -32.833332 65.00001 -48.500004 C 65.666664 -64.166664 67.5 -79.666664 70.5 -95 C 73.5 -110.33333 78 -125.333336 84.00001 -140.00002 C 90.00001 -154.66667 97.16667 -168.49998 105.50001 -181.5 C 113.83333 -194.5 123.49999 -206.66667 134.5 -218 C 145.5 -229.33333 157.33334 -239.66667 170 -249 C 182.66667 -258.33334 196 -266.83334 210 -274.5 C 224 -282.16666 238 -289.33334 252 -296 C 266 -302.66666 279.66666 -310.16666 293 -318.5 C 306.33334 -326.83334 318.33334 -336.83334 329 -348.50003 C 339.66666 -360.1667 347.8333 -373.50003 353.50003 -388.50003 C 359.16663 -403.5 362 -418.6667 362 -434.00003 C 362 -448 359.49997 -461.83334 354.50003 -475.5 C 349.5 -489.1667 341.49997 -500.50003 330.50003 -509.5 C 319.5 -518.5 307 -524.6666 293 -528 C 279 -531.3333 265 -532.99994 251.00002 -533 C 237 -532.99994 223.00002 -531.1666 209.00002 -527.5 C 195.00002 -523.8333 182.66667 -517.3333 172.00002 -508.00003 C 161.33334 -498.66666 153.33333 -487.16666 148 -473.50003 C 142.66667 -459.8333 140.00002 -446 140.00002 -432 C 140.00002 -430.66666 140.00002 -429.66666 140.00002 -429.00003 C 140.00002 -428.33334 140.00002 -427.33334 140.00002 -426 L 62.000004 -426 C 62.000004 -428 62.000004 -429.6667 62.000004 -431 C 62.000004 -432.3333 62.000004 -433.6667 62.000004 -435.00003 C 62.000004 -451 64 -466.8333 68 -482.5 C 72 -498.16666 78.166664 -512.6667 86.5 -526.00006 C 94.833336 -539.3333 105.166664 -551.1666 117.5 -561.5 C 129.83333 -571.8333 143.33334 -580.1667 158 -586.5 C 172.66667 -592.8333 187.83333 -597.1667 203.5 -599.50006 C 219.16666 -601.8334 235 -603 251.00002 -603 C 267 -603 283 -601.8334 299 -599.50006 C 315 -597.1667 330.3333 -593 345 -587 C 359.66663 -581 373.3333 -572.8333 386 -562.5 C 398.6667 -552.1667 409.16666 -540.1667 417.50003 -526.5 C 425.8333 -512.8333 431.66666 -498 435.00003 -482 C 438.33337 -465.99997 440.00003 -449.99997 440.00003 -434.00003 C 440.00003 -413.33334 436.83334 -393.16663 430.5 -373.5 C 424.16666 -353.83337 414.66666 -335.83337 402 -319.50003 C 389.33334 -303.1667 374.5 -289.16666 357.5 -277.5 C 340.5 -265.83334 323 -255 305.00003 -245.00002 C 287 -235 269.16666 -224.66669 251.50002 -214.00002 C 233.83334 -203.33334 217.66667 -190.83334 203.00002 -176.50002 C 188.33331 -162.16666 176.16666 -145.83333 166.5 -127.5 C 156.83333 -109.166664 150 -90.00001 146 -70.00001 L 436 -70.00001 L 436 0 Z " id="path3"/><path d="M 250 8 C 230 8 210.33336 5.333333 191.00002 0 C 171.66667 -5.333333 154.16666 -14 138.50002 -26.000002 C 122.833336 -38 109.50001 -52.5 98.50001 -69.5 C 87.5 -86.49999 78.833336 -104.333336 72.5 -123.00001 C 66.166664 -141.66667 61.833332 -161 59.5 -181 C 57.166668 -201 55.999996 -221 56 -241 C 55.999996 -269.66666 58.999996 -298 65.00001 -326 C 71 -353.99997 79.166664 -381.50003 89.5 -408.5 C 99.833336 -435.5 111.333336 -461.83334 124.00001 -487.5 C 136.66667 -513.1667 149.66667 -538.6667 163 -564 L 248.00002 -735 L 334 -735 L 232 -533 C 224 -517 215.66667 -501.00003 207 -485.00003 C 198.33333 -469 189.33333 -453 180.00002 -437 L 179 -435.00003 C 179 -435.00003 179 -435.00003 179 -435.00003 C 179 -435.00003 179 -435.00003 179 -435.00003 L 178 -433.00003 C 190 -438.3333 202.16669 -442 214.50002 -444.00003 C 226.83333 -446 239.33331 -447 252 -447 C 270.6667 -447 289.33334 -444.83334 308.00003 -440.50003 C 326.6667 -436.1667 343.6667 -428.6667 359.00003 -418.00003 C 374.33334 -407.33334 387.83337 -394.33334 399.50003 -379 C 411.1667 -363.66666 420.33334 -347.3333 427.00003 -330 C 433.6667 -312.66666 438.16666 -294.6667 440.50003 -276 C 442.83334 -257.33334 444.00003 -238.66669 444.00003 -220.00002 C 444.00003 -200.66667 442.66666 -181.66667 440.00003 -163 C 437.3333 -144.33333 432.66663 -126.166664 426 -108.50001 C 419.3333 -90.83333 410.1667 -74.333336 398.50003 -59.000004 C 386.83337 -43.666668 373.16666 -30.833334 357.5 -20.500002 C 341.8333 -10.166667 324.66666 -2.8333333 306 1.5 C 287.3333 5.833333 268.66666 8 250 8 Z M 250 -62.000004 C 262 -62.000004 274 -63.83334 286 -67.5 C 298 -71.166664 308.83334 -76.99999 318.5 -85 C 328.16666 -93 336.16666 -102.33333 342.50003 -113.00001 C 348.83334 -123.666664 353.66663 -134.83334 357 -146.5 C 360.33328 -158.16667 362.66666 -170.16666 364 -182.50002 C 365.33334 -194.83333 366.00003 -207.33333 366.00003 -220.00002 C 366.00003 -232 365.33334 -244.16666 364 -256.5 C 362.66666 -268.8333 360.33328 -280.83334 357 -292.5 C 353.66663 -304.16666 348.83334 -315.33334 342.50003 -326 C 336.16666 -336.6667 328.33334 -346 319.00003 -354.00003 C 309.66666 -362 299 -367.83334 287 -371.50003 C 274.99997 -375.16666 262.66666 -377.00003 250 -377.00003 C 238 -377.00003 226 -375.16666 214.00002 -371.50003 C 202.00002 -367.83334 191.33334 -362.1667 182 -354.50003 C 172.66667 -346.83337 164.83334 -337.50003 158.50002 -326.5 C 152.16667 -315.5 147.16666 -304.16666 143.5 -292.5 C 139.83333 -280.83334 137.33334 -268.8333 136 -256.5 C 134.66667 -244.16666 134 -232 134 -220.00002 C 134 -207.33333 134.66667 -194.83333 136 -182.50002 C 137.33334 -170.16666 139.66667 -158.16667 143 -146.5 C 146.33333 -134.83334 151.16666 -123.666664 157.5 -113.00001 C 163.83333 -102.33333 171.83333 -93 181.5 -85 C 191.16667 -76.99999 202.00002 -71.166664 214.00002 -67.5 C 226 -63.83334 238 -62.000004 250 -62.000004 Z " id="path7"/></defs><g><g fill="#000000" transform="translate(40 105.20961) rotate(0)"><use href="#path1" transform="translate(0 0) scale(0.09599999)"/></g><g fill="#000000" transform="translate(168 105.20961) rotate(0)"><use href="#path2" transform="translate(0 0) scale(0.09599999)"/></g><g fill="#000000" transform="translate(296 105.20961) rotate(0)"><use href="#path3" transform="translate(0 0) scale(0.09599999)"/></g><g fill="#000000" transform="translate(424 105.20961) rotate(0)"><use href="#path4" transform="translate(0 0) scale(0.09599999)"/></g><g fill="#000000" transform="translate(552 105.20961) rotate(0)"><use href="#path5" transform="translate(0 0) scale(0.09599999)"/></g><g fill="#000000" transform="translate(680 105.20961) rotate(0)"><use href="#path6" transform="translate(0 0) scale(0.09599999)"/></g><g fill="#000000" transform="translate(808 105.20961) rotate(0)"><use href="#path7" transform="translate(0 0) scale(0.09599999)"/></g><g fill="#000000" transform="translate(936 105.20961) rotate(0)"><use href="#path8" transform="translate(0 0) scale(0.09599999)"/></g><g fill="#000000" transform="translate(1064 105.20961) rotate(0)"><use href="#path9" transform="translate(0 0) scale(0.09599999)"/></g><g fill="#000000" transform="translate(1192 105.20961) rotate(0)"><use href="#path10" transform="translate(0 0) scale(0.09599999)"/></g></g></svg>