<?xml version="1.0" encoding="UTF-8" standalone="no"?>
<svg height="160" viewBox="0 0 1280 160" width="1280" xmlns="http://www.w3.org/2000/svg">
<defs>
<path d="M 250 8 Q 223 8 196.5 2.5 Q 170 -3 146.5 -16 Q 123 -29 104.5 -49.5 Q 86 -70 75 -94.5 Q 64 -119 60 -146 Q 56 -173 56 -200 L 56 -395 Q 56 -422 60 -449 Q 64 -476 75 -500.5 Q 86 -525 104.5 -545.5 Q 123 -566 146.5 -579.5 Q 170 -593 196.5 -598 Q 223 -603 250 -603 Q 277 -603 303.5 -598 Q 330 -593 353.5 -579.5 Q 377 -566 395.5 -545.5 Q 414 -525 425 -500.5 Q 436 -476 440 -449 Q 444 -422 444 -395 L 444 -200 Q 444 -173 440 -146 Q 436 -119 425 -94.5 Q 414 -70 395.5 -49.5 Q 377 -29 353.5 -16 Q 330 -3 303.5 2.5 Q 277 8 250 8 Z M 134 -263 L 366 -412 Q 365 -436 357.5 -458.5 Q 350 -481 334.5 -499 Q 319 -517 296.5 -525 Q 274 -533 250 -533 Q 233 -533 216 -529 Q 199 -525 185 -515.5 Q 171 -506 160.5 -492 Q 150 -478 144 -462 Q 138 -446 136 -429 Q 134 -412 134 -395 Z M 250 -62 Q 267 -62 284 -66 Q 301 -70 315 -79.5 Q 329 -89 339.5 -103 Q 350 -117 356 -133 Q 362 -149 364 -166 Q 366 -183 366 -200 L 366 -333 L 134 -183 Q 135 -160 142.5 -137 Q 150 -114 165.5 -96.5 Q 181 -79 203.5 -70.5 Q 226 -62 250 -62 Z " id="path1"/>
<path d="M 241 0 L 241 -514 L 95 -435 L 58 -496 L 241 -595 L 319 -595 L 319 0 Z " id="path2"/>
<path d="M 64 0 L 64 -1 Q 64 -25 65 -48.5 Q 66 -72 70.5 -95 Q 75 -118 84 -140 Q 93 -162 105.5 -181.5 Q 118 -201 134.5 -218 Q 151 -235 170 -249 Q 189 -263 210 -274.5 Q 231 -286 252 -296 Q 273 -306 293 -318.5 Q 313 -331 329 -348.5 Q 345 -366 353.5 -388.5 Q 362 -411 362 -434 Q 362 -455 354.5 -475.5 Q 347 -496 330.5 -509.5 Q 314 -523 293 -528 Q 272 -533 251 -533 Q 229 -533 207 -526 Q 185 -519 169.5 -503 Q 154 -487 147 -465.5 Q 140 -444 140 -421 L 140 -415 L 62 -415 L 62 -425 Q 62 -449 67.5 -473 Q 73 -497 85 -518.5 Q 97 -540 115.5 -557 Q 134 -574 156 -584.5 Q 178 -595 202.5 -599 Q 227 -603 251 -603 Q 275 -603 299 -599.5 Q 323 -596 345 -587 Q 367 -578 386 -562.5 Q 405 -547 417.5 -526.5 Q 430 -506 435 -482 Q 440 -458 440 -434 Q 440 -403 430.5 -373.5 Q 421 -344 402 -319.5 Q 383 -295 357.5 -277.5 Q 332 -260 305 -245 Q 278 -230 251.5 -214 Q 225 -198 203 -176.5 Q 181 -155 166.5 -127.5 Q 152 -100 146 -70 L 436 -70 L 436 0 Z " id="path3"/>
<path d="M 253 148 Q 227 148 202 143.5 Q 177 139 153.5 128.5 Q 130 118 111 101 Q 92 84 79 62 Q 66 40 60 15 Q 54 -10 54 -36 L 54 -40 L 132 -40 L 132 -38 Q 132 -14 140.5 9 Q 149 32 166 48 Q 183 64 206 71 Q 229 78 253 78 Q 278 78 302.5 68.5 Q 327 59 343.5 39.5 Q 360 20 367 -5 Q 374 -30 374 -55 Q 374 -76 369.5 -96.5 Q 365 -117 355 -135.5 Q 345 -154 329.5 -169 Q 314 -184 295 -192.5 Q 276 -201 255 -203 Q 234 -205 213 -205 L 213 -275 Q 232 -275 251 -277 Q 270 -279 287.5 -287 Q 305 -295 319 -308.5 Q 333 -322 341.5 -339 Q 350 -356 354 -374.5 Q 358 -393 358 -412 Q 358 -435 352.5 -457.5 Q 347 -480 333 -498 Q 319 -516 297.5 -524.5 Q 276 -533 253 -533 Q 231 -533 210 -525.5 Q 189 -518 174.5 -501.5 Q 160 -485 154 -463.5 Q 148 -442 148 -420 L 148 -415 L 70 -415 L 70 -422 Q 70 -447 75.5 -470.5 Q 81 -494 92 -516 Q 103 -538 120 -555.5 Q 137 -573 159 -584 Q 181 -595 205 -599 Q 229 -603 253 -603 Q 278 -603 302.5 -598.5 Q 327 -594 348.5 -582 Q 370 -570 387 -551.5 Q 404 -533 415 -510.5 Q 426 -488 431 -463.5 Q 436 -439 436 -414 Q 436 -388 429.5 -361.5 Q 423 -335 409.5 -312 Q 396 -289 376 -270.5 Q 356 -252 332 -241 Q 359 -230 382.5 -211 Q 406 -192 421.5 -166.5 Q 437 -141 444.5 -112 Q 452 -83 452 -53 Q 452 -26 446.5 0 Q 441 26 429 50 Q 417 74 398 93.5 Q 379 113 355.5 125.5 Q 332 138 305.5 143 Q 279 148 253 148 Z " id="path4"/>
<path d="M 372 140 L 294 140 L 294 -55 L 56 -55 L 56 -125 L 290 -595 L 375 -595 L 141 -125 L 294 -125 L 294 -304 L 372 -304 L 372 -125 L 436 -125 L 436 -55 L 372 -55 Z " id="path5"/>
<path d="M 252 148 Q 227 148 202.5 143.5 Q 178 139 156 128 Q 134 117 116.5 99.5 Q 99 82 87 60 Q 75 38 69 14 Q 63 -10 62 -35 L 140 -35 Q 141 -13 148.5 8.5 Q 156 30 171.5 46.5 Q 187 63 208.5 70.5 Q 230 78 252 78 Q 272 78 290.5 71 Q 309 64 322.5 50 Q 336 36 344.5 18 Q 353 0 358 -18.5 Q 363 -37 364.5 -56.5 Q 366 -76 366 -96 Q 366 -115 364.5 -134.5 Q 363 -154 358.5 -172.5 Q 354 -191 345.5 -208.5 Q 337 -226 324 -240 Q 311 -254 292.5 -261.5 Q 274 -269 255 -269 Q 236 -269 217.5 -265 Q 199 -261 183.5 -250 Q 168 -239 159 -222 Q 150 -205 149 -186 L 71 -186 L 71 -595 L 417 -595 L 417 -525 L 149 -525 L 149 -315 Q 173 -329 200.5 -334 Q 228 -339 255 -339 Q 284 -339 312.5 -331 Q 341 -323 364 -305.5 Q 387 -288 403 -263 Q 419 -238 428 -210.5 Q 437 -183 440.5 -154 Q 444 -125 444 -96 Q 444 -66 440.5 -37 Q 437 -8 427.5 19.5 Q 418 47 402 72 Q 386 97 362.5 114.5 Q 339 132 310 140 Q 281 148 252 148 Z " id="path6"/>
<path d="M 250 8 Q 222 8 194 1.5 Q 166 -5 142.5 -20.5 Q 119 -36 101.5 -59 Q 84 -82 74 -108.5 Q 64 -135 60 -163 Q 56 -191 56 -220 Q 56 -265 64.5 -310 Q 73 -355 88 -398 Q 103 -441 122.5 -482.5 Q 142 -524 163 -564 L 248 -735 L 334 -735 L 232 -533 Q 216 -501 200.5 -468.5 Q 185 -436 172 -402 Q 192 -425 221 -436 Q 250 -447 280 -447 Q 307 -447 332.5 -439 Q 358 -431 378 -413.5 Q 398 -396 411 -372.5 Q 424 -349 431.5 -324 Q 439 -299 441.5 -272.5 Q 444 -246 444 -220 Q 444 -191 440 -163 Q 436 -135 426 -108.5 Q 416 -82 398.5 -59 Q 381 -36 357.5 -20.5 Q 334 -5 306 1.5 Q 278 8 250 8 Z M 250 -62 Q 268 -62 286 -67.5 Q 304 -73 318.5 -85 Q 333 -97 342.5 -113 Q 352 -129 357 -146.5 Q 362 -164 364 -182.5 Q 366 -201 366 -220 Q 366 -238 364 -256.5 Q 362 -275 357 -292.5 Q 352 -310 342.5 -326 Q 333 -342 318.5 -354 Q 304 -366 286 -371.5 Q 268 -377 250 -377 Q 233 -377 217 -373 Q 201 -369 187.5 -359 Q 174 -349 164 -335 Q 154 -321 147.5 -305.5 Q 141 -290 138 -273.5 Q 135 -257 134 -241 L 134 -220 Q 134 -201 136 -182.5 Q 138 -164 143 -146.5 Q 148 -129 157.5 -113 Q 167 -97 181.5 -85 Q 196 -73 214 -67.5 Q 232 -62 250 -62 Z " id="path7"/>
<path d="M 146 140 L 355 -525 L 64 -525 L 64 -595 L 436 -595 L 436 -525 L 226 140 Z " id="path8"/>
<path d="M 250 8 Q 226 8 201.5 4.5 Q 177 1 154.5 -9 Q 132 -19 113 -35 Q 94 -51 81 -72 Q 68 -93 62 -116.5 Q 56 -140 56 -165 Q 56 -197 67 -228.5 Q 78 -260 96.5 -286.5 Q 115 -313 139 -335 Q 163 -357 189 -377 Q 165 -396 143.5 -417 Q 122 -438 106 -463.5 Q 90 -489 80.5 -518 Q 71 -547 71 -577 Q 71 -600 76.5 -622.5 Q 82 -645 93.5 -665 Q 105 -685 122.5 -700.5 Q 140 -716 160.5 -726 Q 181 -736 204 -739.5 Q 227 -743 250 -743 Q 273 -743 296 -739.5 Q 319 -736 339.5 -726 Q 360 -716 377.5 -700.5 Q 395 -685 406.5 -665 Q 418 -645 423.5 -622.5 Q 429 -600 429 -577 Q 429 -547 419.5 -518 Q 410 -489 394 -463.5 Q 378 -438 356.5 -417 Q 335 -396 311 -377 Q 337 -357 361 -335 Q 385 -313 403.5 -286.5 Q 422 -260 433 -228.5 Q 444 -197 444 -165 Q 444 -140 438 -116.5 Q 432 -93 419 -72 Q 406 -51 387 -35 Q 368 -19 345.5 -9 Q 323 1 298.5 4.5 Q 274 8 250 8 Z M 250 -421 Q 269 -436 287 -452 Q 305 -468 319 -487 Q 333 -506 342 -529 Q 351 -552 351 -576 Q 351 -595 344 -614.5 Q 337 -634 323 -647.5 Q 309 -661 289.5 -667 Q 270 -673 250 -673 Q 230 -673 210.5 -667 Q 191 -661 177 -647.5 Q 163 -634 156 -614.5 Q 149 -595 149 -576 Q 149 -552 158 -529 Q 167 -506 181 -487 Q 195 -468 213 -452 Q 231 -436 250 -421 Z M 250 -62 Q 272 -62 294 -67.5 Q 316 -73 332.5 -87.5 Q 349 -102 357.5 -123 Q 366 -144 366 -166 Q 366 -193 355.5 -217.5 Q 345 -242 328.5 -262.5 Q 312 -283 291.5 -300 Q 271 -317 250 -332 Q 229 -317 208.5 -300 Q 188 -283 171.5 -262.5 Q 155 -242 144.5 -217.5 Q 134 -193 134 -166 Q 134 -144 142.5 -123 Q 151 -102 167.5 -87.5 Q 184 -73 206 -67.5 Q 228 -62 250 -62 Z " id="path9"/>
<path d="M 252 140 L 166 140 L 268 -62 Q 284 -95 299.5 -127.5 Q 315 -160 328 -193 Q 308 -171 279 -159.5 Q 250 -148 220 -148 Q 193 -148 167.5 -156.5 Q 142 -165 122 -182 Q 102 -199 89 -222.5 Q 76 -246 68.5 -271.5 Q 61 -297 58.5 -323 Q 56 -349 56 -376 Q 56 -404 60 -432.5 Q 64 -461 74 -487 Q 84 -513 101.5 -536 Q 119 -559 142.5 -574.5 Q 166 -590 194 -596.5 Q 222 -603 250 -603 Q 278 -603 306 -596.5 Q 334 -590 357.5 -574.5 Q 381 -559 398.5 -536 Q 416 -513 426 -487 Q 436 -461 440 -432.5 Q 444 -404 444 -376 Q 444 -330 435.5 -285 Q 427 -240 412 -197 Q 397 -154 377.5 -113 Q 358 -72 337 -31 Z M 250 -218 Q 267 -218 283 -222.5 Q 299 -227 312.5 -236.5 Q 326 -246 336 -260 Q 346 -274 352.5 -289.5 Q 359 -305 362 -321.5 Q 365 -338 366 -355 L 366 -376 Q 366 -394 364 -412.5 Q 362 -431 357 -448.5 Q 352 -466 342.5 -482.5 Q 333 -499 318.5 -510.5 Q 304 -522 286 -527.5 Q 268 -533 250 -533 Q 232 -533 214 -527.5 Q 196 -522 181.5 -510.5 Q 167 -499 157.5 -482.5 Q 148 -466 143 -448.5 Q 138 -431 136 -412.5 Q 134 -394 134 -376 Q 134 -357 136 -338.5 Q 138 -320 143 -302.5 Q 148 -285 157.5 -269 Q 167 -253 181.5 -241 Q 196 -229 214 -223.5 Q 232 -218 250 -218 Z " id="path10"/>
</defs>
<g>
<g data-source-text="0" fill="#dee4e3" transform="translate(40 104.99201) rotate(0) scale(0.09599999)">
<use href="#path1" transform="translate(0 0)"/>
</g>
</g>
<g>
<g data-source-text="1" fill="#dee4e3" transform="translate(168 104.99201) rotate(0) scale(0.09599999)">
<use href="#path2" transform="translate(0 0)"/>
</g>
</g>
<g>
<g data-source-text="2" fill="#dee4e3" transform="translate(296 104.99201) rotate(0) scale(0.09599999)">
<use href="#path3" transform="translate(0 0)"/>
</g>
</g>
<g>
<g data-source-text="3" fill="#dee4e3" transform="translate(424 104.99201) rotate(0) scale(0.09599999)">
<use href="#path4" transform="translate(0 0)"/>
</g>
</g>
<g>
<g data-source-text="4" fill="#dee4e3" transform="translate(552 104.99201) rotate(0) scale(0.09599999)">
<use href="#path5" transform="translate(0 0)"/>
</g>
</g>
<g>
<g data-source-text="5" fill="#dee4e3" transform="translate(680 104.99201) rotate(0) scale(0.09599999)">
<use href="#path6" transform="translate(0 0)"/>
</g>
</g>
<g>
<g data-source-text="6" fill="#dee4e3" transform="translate(808 104.99201) rotate(0) scale(0.09599999)">
<use href="#path7" transform="translate(0 0)"/>
</g>
</g>
<g>
<g data-source-text="7" fill="#dee4e3" transform="translate(936 104.99201) rotate(0) scale(0.09599999)">
<use href="#path8" transform="translate(0 0)"/>
</g>
</g>
<g>
<g data-source-text="8" fill="#dee4e3" transform="translate(1064 104.99201) rotate(0) scale(0.09599999)">
<use href="#path9" transform="translate(0 0)"/>
</g>
</g>
<g>
<g data-source-text="9" fill="#dee4e3" transform="translate(1192 104.99201) rotate(0) scale(0.09599999)">
<use href="#path10" transform="translate(0 0)"/>
</g>
</g>
</svg>