<?xml version="1.0" encoding="UTF-8" standalone="no"?>
<svg height="160" viewBox="0 0 128 160" width="128" xmlns="http://www.w3.org/2000/svg">
<defs>
<path d="M 250 8 Q 223 8 196.5 2.5 Q 170 -3 146.5 -16 Q 123 -29 104.5 -49.5 Q 86 -70 75 -94.5 Q 64 -119 60 -146 Q 56 -173 56 -200 L 56 -320 Q 56 -345 59 -369.5 Q 62 -394 69.5 -417.5 Q 77 -441 90.5 -462.5 Q 104 -484 123 -499 Q 142 -514 166.5 -521 Q 191 -528 216 -528 Q 239 -528 262 -522 Q 285 -516 304 -502 Q 323 -488 336.5 -469 Q 350 -450 358 -428 L 358 -665 L 312 -665 L 312 -735 L 436 -735 L 436 -49 Q 396 -19 348 -5.5 Q 300 8 250 8 Z M 250 -62 Q 278 -62 305.5 -67 Q 333 -72 358 -85 L 358 -320 Q 358 -337 356 -353.5 Q 354 -370 348.5 -386 Q 343 -402 333 -416 Q 323 -430 309.5 -440 Q 296 -450 279.5 -454 Q 263 -458 246 -458 Q 229 -458 212.5 -454 Q 196 -450 182.5 -440 Q 169 -430 159 -416 Q 149 -402 143.5 -386 Q 138 -370 136 -353.5 Q 134 -337 134 -320 L 134 -200 Q 134 -183 136 -166 Q 138 -149 144 -133 Q 150 -117 160.5 -103 Q 171 -89 185 -79.5 Q 199 -70 216 -66 Q 233 -62 250 -62 Z " id="path1"/>
</defs>
<g>
<g data-source-text="d" fill="#dee4e3" transform="translate(40 104.99201) rotate(0) scale(0.09599999)">
<use href="#path1" transform="translate(0 0)"/>
</g>
</g>
</svg>