<?xml version="1.0" encoding="UTF-8" standalone="no"?>
<svg height="160" viewBox="0 0 128 160" width="128" xmlns="http://www.w3.org/2000/svg">
<defs>
<path d="M 211 108 L 211 -31 Q 179 -35 148.5 -49 Q 118 -63 96.5 -87.5 Q 75 -112 64.5 -143.5 Q 54 -175 54 -207 L 54 -217 L 132 -217 L 132 -211 Q 132 -188 140 -166 Q 148 -144 164.5 -128 Q 181 -112 203.5 -105.5 Q 226 -99 249 -99 Q 271 -99 292.5 -104 Q 314 -109 331 -123 Q 348 -137 357.5 -157.5 Q 367 -178 367 -200 Q 367 -224 355.5 -246 Q 344 -268 325.5 -283.5 Q 307 -299 285 -309.5 Q 263 -320 241 -329.5 Q 219 -339 197 -350 Q 175 -361 155.5 -375 Q 136 -389 119 -406.5 Q 102 -424 89.5 -444.5 Q 77 -465 70.5 -488.5 Q 64 -512 64 -536 Q 64 -567 74 -596.5 Q 84 -626 104 -649.5 Q 124 -673 152.5 -686.5 Q 181 -700 211 -704 L 211 -843 L 289 -843 L 289 -704 Q 320 -700 349 -685.5 Q 378 -671 398.5 -646 Q 419 -621 428.5 -590 Q 438 -559 438 -528 L 438 -518 L 360 -518 L 360 -524 Q 360 -546 353 -567.5 Q 346 -589 331 -605.5 Q 316 -622 294.5 -629 Q 273 -636 251 -636 Q 230 -636 209.5 -630.5 Q 189 -625 173 -611 Q 157 -597 149 -577 Q 141 -557 141 -536 Q 141 -512 152.5 -489.5 Q 164 -467 182 -451.5 Q 200 -436 222 -425.5 Q 244 -415 266.5 -405.5 Q 289 -396 310.5 -385 Q 332 -374 352 -360 Q 372 -346 389 -329 Q 406 -312 418.5 -291 Q 431 -270 437.5 -246.5 Q 444 -223 444 -199 Q 444 -168 433 -137.5 Q 422 -107 400.5 -84 Q 379 -61 349.5 -48 Q 320 -35 289 -31 L 289 108 Z " id="path1"/>
</defs>
<g>
<g data-source-text="$" fill="#20242e" transform="translate(40 104.99201) rotate(0) scale(0.09599999)">
<use href="#path1" transform="translate(0 0)"/>
</g>
</g>
</svg>