<svg xmlns="http://www.w3.org/2000/svg" height="160" viewBox="0 0 128 160" width="128"><defs><path d="M 211.00002 0 L 211.00002 -82.00001 C 190.33333 -84.66667 170 -90.16667 150.00002 -98.50001 C 130 -106.833336 112.66667 -118.83333 98 -134.5 C 83.333336 -150.16667 72.333336 -168.16669 65.00001 -188.50002 C 57.66667 -208.83334 54 -229.66667 54 -251.00002 C 54 -252.33333 54 -253.66667 54 -255 C 54 -256.33334 54 -258.00003 54 -260.00003 L 132 -260.00003 C 132 -258.6667 132 -257.6667 132 -257.00003 C 132 -256.33334 132 -255.33333 132 -254.00002 C 132 -241.99998 133.83333 -230.16666 137.5 -218.5 C 141.16667 -206.83333 146.83333 -196.33333 154.5 -187 C 162.16667 -177.66667 171.50002 -170.16666 182.50002 -164.5 C 193.50002 -158.83333 205.00002 -155 217.00002 -153 L 219.00002 -286 L 282 -271.00003 L 283.00003 -153 C 293.6667 -154.33333 304 -157.16667 314.00003 -161.5 C 324 -165.83334 333 -171.50002 341 -178.5 C 349 -185.49998 355.33334 -194.16667 360.00003 -204.5 C 364.66663 -214.83334 366.99997 -225.33334 367 -236.00002 C 366.99997 -250.66667 362.66666 -264.33334 354.00003 -277.00003 C 345.33334 -289.66666 334.66666 -299.5 322.00003 -306.5 C 309.33334 -313.50003 295.66666 -318.5 281 -321.5 C 266.33334 -324.5 251.83333 -327.5 237.50002 -330.50003 C 223.16667 -333.5 209 -337.33334 195 -342.00003 C 181 -346.66666 167.5 -352.33334 154.5 -359.00003 C 141.5 -365.6667 129.33333 -373.83334 118.00001 -383.50003 C 106.666664 -393.1667 97.00001 -404.16666 89 -416.50003 C 81 -428.83334 74.833336 -442 70.5 -456.00003 C 66.166664 -470 64 -484.33334 64 -499 C 64 -519 67.666664 -538.3334 75.00001 -557 C 82.333336 -575.6667 92.83334 -591.8334 106.5 -605.50006 C 120.166664 -619.1667 136.16667 -629.8334 154.5 -637.5 C 172.83333 -645.1667 191.66667 -650.3334 211.00002 -653 L 211.00002 -735 L 289 -735 L 289 -653 C 309 -650.3334 328.66666 -644.50006 348.00003 -635.5 C 367.33334 -626.5 383.83334 -614.3333 397.5 -599.00006 C 411.1667 -583.6667 421.3333 -566.1667 428.00003 -546.5 C 434.66666 -526.8333 437.99997 -506.6667 438.00003 -486.00003 C 437.99997 -484.6667 437.99997 -483.16666 438.00003 -481.5 C 437.99997 -479.83334 437.99997 -478.33334 438.00003 -477 L 360.00003 -477 C 360 -477.66666 360 -478.50003 360.00003 -479.50003 C 360 -480.5 360 -481.3333 360.00003 -482 C 360 -493.3333 358.5 -504.66666 355.50003 -516 C 352.5 -527.3333 347.50003 -537.5 340.5 -546.5 C 333.5 -555.50006 325 -563 315 -569 C 305 -575 294.33334 -579.3333 283.00003 -582.00006 L 281 -449 L 218 -464 L 217.00002 -582.00006 C 207 -580 197.33334 -576.8333 188.00002 -572.5 C 178.66667 -568.1667 170.5 -562.3334 163.5 -555 C 156.5 -547.6666 151 -539.1667 147.00002 -529.5 C 143 -519.8333 141 -509.99997 141 -500 C 141 -485.33334 145.33333 -471.5 154.00002 -458.5 C 162.66666 -445.5 173.33333 -435.33334 186.00002 -428.00003 C 198.66667 -420.66672 212.16667 -415.6667 226.5 -413 C 240.83333 -410.3333 255.33336 -407.5 270 -404.50003 C 284.66666 -401.5 299 -397.83337 313 -393.50003 C 327 -389.1667 340.3333 -383.50003 353.00003 -376.50003 C 365.6667 -369.5 377.6667 -361.1667 389.00003 -351.5 C 400.33334 -341.8333 410.1667 -331 418.5 -319.00003 C 426.8333 -307 433.1667 -293.8333 437.5 -279.50003 C 441.83334 -265.16666 444.00003 -250.66667 444.00003 -236.00002 C 444.00003 -216 440 -196.50002 432 -177.50002 C 424 -158.5 412.66666 -142.16667 398 -128.50002 C 383.33334 -114.833336 366.5 -104.333336 347.50003 -97.00001 C 328.5 -89.666664 309 -84.66667 289 -82.00001 L 289 0 Z " id="path1"/></defs><g><g fill="#ffffff" transform="translate(40 105.20961) rotate(0)"><use href="#path1" transform="translate(0 0) scale(0.09599999)"/></g></g></svg>