<svg xmlns="http://www.w3.org/2000/svg" height="160" viewBox="0 0 128 160" width="128"><defs><path d="M 211.00002 107.00001 L 211.00002 -31.000002 C 189.66667 -33 169 -38.5 149 -47.5 C 128.99998 -56.5 111.83333 -68.833336 97.5 -84.50001 C 83.166664 -100.16667 72.333336 -118.333336 65.00001 -139 C 57.66667 -159.66666 54 -180.66667 54 -202.00002 C 54 -203.33333 54 -204.5 54 -205.50002 C 54 -206.5 54 -207.33333 54 -208.00002 L 132 -208.00002 C 132 -207.33333 132 -206.83333 132 -206.5 C 132 -206.16667 132 -205.66667 132 -205.00002 C 132 -189.66667 134.83333 -175 140.5 -161.00002 C 146.16667 -147.00002 154.66667 -135.16667 166 -125.50001 C 177.33334 -115.833336 190.33333 -109 205.00002 -105 C 219.66667 -100.99999 234.33333 -99 249 -99 C 263.6667 -99 278.33334 -100.833336 293 -104.50001 C 307.66666 -108.16668 320.66666 -114.833336 332 -124.5 C 343.33334 -134.16666 352 -146.16667 358 -160.5 C 363.99997 -174.83334 366.99997 -189.33333 367 -204 C 366.99997 -220 363.16666 -235.33333 355.50003 -250 C 347.83337 -264.66666 338.00003 -277.1667 326 -287.5 C 314.00003 -297.83334 300.5 -306.16666 285.50003 -312.5 C 270.5 -318.83334 255.5 -324.66666 240.5 -330 C 225.5 -335.33334 210.83331 -341.5 196.50002 -348.50003 C 182.16666 -355.5 168.33334 -363.33334 155 -372.00003 C 141.66667 -380.66666 129.33333 -390.66666 118.00001 -402 C 106.666664 -413.33334 97.00001 -425.8333 89 -439.50003 C 81 -453.16666 74.833336 -467.83334 70.5 -483.50003 C 66.166664 -499.16666 64 -515 64 -531.00006 C 64 -551.6667 67.16667 -572.1667 73.50001 -592.5 C 79.833336 -612.8334 89.666664 -631 103.00001 -647 C 116.333336 -662.99994 132.5 -675.6667 151.5 -685.00006 C 170.5 -694.33344 190.33333 -700.6667 211.00002 -704 L 211.00002 -843.00006 L 289 -843.00006 L 289 -704 C 309.6667 -701.3333 329.5 -695.5 348.50003 -686.5 C 367.5 -677.5 383.83334 -665.1667 397.5 -649.50006 C 411.1667 -633.8334 421.3333 -615.8333 428.00003 -595.5 C 434.66666 -575.1667 437.99997 -554.6667 438.00003 -534 C 437.99997 -533.3333 437.99997 -532.49994 438.00003 -531.50006 C 437.99997 -530.50006 437.99997 -529.3333 438.00003 -528 L 360.00003 -528 C 360 -528.6667 360 -529.3334 360.00003 -530 C 360 -530.6667 360 -531.3333 360.00003 -532 C 360 -546 357.5 -559.8334 352.5 -573.5 C 347.50003 -587.1667 339.83334 -599 329.5 -609 C 319.16666 -619 307 -626 293 -630 C 279 -634 265 -636 251.00002 -636 C 237 -636 223.00002 -634 209.00002 -630 C 195.00002 -626 182.83334 -619 172.5 -609 C 162.16666 -599 154.33334 -587.1667 149 -573.5 C 143.66667 -559.8334 141 -545.6667 141 -531.00006 C 141 -515 144.66667 -499.66666 152 -485.00003 C 159.33333 -470.33334 169.16667 -457.83334 181.5 -447.5 C 193.83334 -437.16666 207.33333 -429 222.00002 -423.00003 C 236.66667 -417 251.5 -411.1667 266.5 -405.50003 C 281.5 -399.83334 296.3333 -393.6667 311.00003 -387.00003 C 325.6667 -380.33334 339.66666 -372.50003 353.00003 -363.5 C 366.33334 -354.5 378.66666 -344.33334 390 -333 C 401.33334 -321.66666 411 -309.1667 419 -295.5 C 426.99997 -281.83334 433.1667 -267.16666 437.5 -251.50002 C 441.83334 -235.83333 444.00003 -220 444.00003 -204 C 444.00003 -182.66667 440.5 -161.66667 433.50003 -141 C 426.50003 -120.333336 415.8333 -102.16668 401.5 -86.5 C 387.16666 -70.833336 370.16663 -58.33333 350.5 -49 C 330.8333 -39.666668 310.33334 -33.666668 289 -31.000002 L 289 107.00001 Z " id="path1"/></defs><g><g fill="#000000" transform="translate(40 105.20961) rotate(0)"><use href="#path1" transform="translate(0 0) scale(0.09599999)"/></g></g></svg>