<svg xmlns="http://www.w3.org/2000/svg" height="160" viewBox="0 0 128 160" width="128"><defs><path d="M 211 107 L 211 -31 Q 179 -34 149 -47.5 Q 119 -61 97.5 -84.5 Q 76 -108 65 -139 Q 54 -170 54 -202 Q 54 -204 54 -205.5 Q 54 -207 54 -208 L 132 -208 Q 132 -207 132 -206.5 Q 132 -206 132 -205 Q 132 -186 137.5 -168 Q 143 -150 155 -135.5 Q 167 -121 184 -112.5 Q 201 -104 220 -101 L 220 -338 Q 189 -351 160.5 -368.5 Q 132 -386 110 -410.5 Q 88 -435 76 -466.5 Q 64 -498 64 -531 Q 64 -562 73.5 -592.5 Q 83 -623 103 -647 Q 123 -671 151.5 -685 Q 180 -699 211 -704 L 211 -843 L 289 -843 L 289 -704 Q 320 -700 348.5 -686.5 Q 377 -673 397.5 -649.5 Q 418 -626 428 -595.5 Q 438 -565 438 -534 Q 438 -533 438 -531.5 Q 438 -530 438 -528 L 360 -528 Q 360 -529 360 -530 Q 360 -531 360 -532 Q 360 -549 355 -566.5 Q 350 -584 339.5 -598 Q 329 -612 313.5 -621 Q 298 -630 280 -634 L 280 -400 Q 312 -387 342 -370 Q 372 -353 395 -328 Q 418 -303 431 -270.5 Q 444 -238 444 -204 Q 444 -172 433.5 -141 Q 423 -110 401.5 -86.5 Q 380 -63 350.5 -49 Q 321 -35 289 -31 L 289 107 Z M 220 -424 L 220 -633 Q 203 -630 187.5 -620.5 Q 172 -611 162 -597 Q 152 -583 146.5 -566 Q 141 -549 141 -531 Q 141 -514 147 -497 Q 153 -480 164 -466 Q 175 -452 189.5 -441.5 Q 204 -431 220 -424 Z M 280 -101 Q 298 -105 314.5 -113.5 Q 331 -122 343 -136 Q 355 -150 361 -168 Q 367 -186 367 -204 Q 367 -223 360 -240.5 Q 353 -258 341 -272.5 Q 329 -287 313 -297 Q 297 -307 280 -315 Z " id="path1"/></defs><g><g fill="#20242e" transform="translate(40 105.20961) rotate(0)"><use href="#path1" transform="translate(0 0) scale(0.09599999)"/></g></g></svg>