<?xml version="1.0" encoding="UTF-8" standalone="no"?>
<svg height="160" viewBox="0 0 128 160" width="128" xmlns="http://www.w3.org/2000/svg">
<defs>
<path d="M 211 107 L 211 -31 Q 179 -34 149.5 -47 Q 120 -60 98 -83.5 Q 76 -107 65 -137.5 Q 54 -168 54 -200 L 54 -207 L 132 -207 L 132 -203 Q 132 -181 140.5 -160 Q 149 -139 166 -124.5 Q 183 -110 205 -104.5 Q 227 -99 249 -99 Q 271 -99 292.5 -104 Q 314 -109 331 -123 Q 348 -137 357.5 -157.5 Q 367 -178 367 -200 Q 367 -224 355.5 -246 Q 344 -268 326 -284 Q 308 -300 285.5 -310 Q 263 -320 241 -329.5 Q 219 -339 197 -350 Q 175 -361 155.5 -374.5 Q 136 -388 118.5 -405.5 Q 101 -423 89 -443.5 Q 77 -464 70.5 -488 Q 64 -512 64 -536 Q 64 -566 74 -596 Q 84 -626 104 -649 Q 124 -672 152.5 -686 Q 181 -700 211 -704 L 211 -843 L 289 -843 L 289 -704 Q 320 -700 348.5 -687 Q 377 -674 397.5 -650.5 Q 418 -627 428 -597 Q 438 -567 438 -536 L 438 -529 L 360 -529 L 360 -533 Q 360 -555 352.5 -575 Q 345 -595 329.5 -609.5 Q 314 -624 293 -630 Q 272 -636 251 -636 Q 230 -636 209.5 -630.5 Q 189 -625 173 -611 Q 157 -597 149 -577 Q 141 -557 141 -536 Q 141 -511 152.5 -489 Q 164 -467 182 -451 Q 200 -435 222 -425 Q 244 -415 266.5 -405.5 Q 289 -396 310.5 -385.5 Q 332 -375 352 -361 Q 372 -347 389 -329.5 Q 406 -312 418.5 -291.5 Q 431 -271 437.5 -247.5 Q 444 -224 444 -200 Q 444 -168 433 -137.5 Q 422 -107 400.5 -84 Q 379 -61 349.5 -48 Q 320 -35 289 -31 L 289 107 Z " id="path1"/>
</defs>
<g>
<g data-source-text="$" fill="#20242e" transform="translate(40 104.99201) rotate(0) scale(0.09599999)">
<use href="#path1" transform="translate(0 0)"/>
</g>
</g>
</svg>