<?xml version="1.0" encoding="UTF-8" standalone="no"?>
<svg height="160" viewBox="0 0 128 160" width="128" xmlns="http://www.w3.org/2000/svg">
<defs>
<path d="M 211 0 L 211 -82 Q 179 -86 149.5 -99 Q 120 -112 98 -135.5 Q 76 -159 65 -190 Q 54 -221 54 -253 L 54 -261 L 132 -261 L 132 -256 Q 132 -234 140.5 -212.5 Q 149 -191 166 -176.5 Q 183 -162 205 -156 Q 227 -150 249 -150 Q 269 -150 289 -153.5 Q 309 -157 326.5 -166.5 Q 344 -176 355.5 -193.5 Q 367 -211 367 -231 Q 367 -249 357.5 -265.5 Q 348 -282 333.5 -294 Q 319 -306 301.5 -312.5 Q 284 -319 266.5 -323.5 Q 249 -328 231 -333 Q 213 -338 195.5 -344.5 Q 178 -351 161.5 -359.5 Q 145 -368 130.5 -379 Q 116 -390 103.5 -404 Q 91 -418 82 -434 Q 73 -450 68.5 -468 Q 64 -486 64 -505 Q 64 -534 75 -561 Q 86 -588 107 -608 Q 128 -628 155.5 -638.5 Q 183 -649 211 -653 L 211 -735 L 289 -735 L 289 -653 Q 320 -649 348.5 -635.5 Q 377 -622 397.5 -598.5 Q 418 -575 428 -545 Q 438 -515 438 -484 L 438 -475 L 360 -475 L 360 -481 Q 360 -502 352.5 -522.5 Q 345 -543 329.5 -558 Q 314 -573 293 -579 Q 272 -585 251 -585 Q 232 -585 213 -581.5 Q 194 -578 178 -568 Q 162 -558 151.5 -541 Q 141 -524 141 -505 Q 141 -483 154 -463.5 Q 167 -444 186 -432.5 Q 205 -421 226.5 -415.5 Q 248 -410 269.5 -404.5 Q 291 -399 312 -391 Q 333 -383 352.5 -372.5 Q 372 -362 389 -347 Q 406 -332 418 -313.5 Q 430 -295 437 -274 Q 444 -253 444 -230 Q 444 -201 431.5 -173 Q 419 -145 397 -125.5 Q 375 -106 346.5 -95.5 Q 318 -85 289 -82 L 289 0 Z " id="path1"/>
</defs>
<g>
<g data-source-text="$" fill="#20242e" transform="translate(40 104.99201) rotate(0) scale(0.09599999)">
<use href="#path1" transform="translate(0 0)"/>
</g>
</g>
</svg>