<?xml version="1.0" encoding="UTF-8" standalone="no"?>
<svg xmlns="http://www.w3.org/2000/svg" height="160" viewBox="0 0 128 160" width="128"><defs><path d="M 211 0 L 211 -82 Q 179 -86 149 -99 Q 119 -112 97.5 -135.5 Q 76 -159 65 -190 Q 54 -221 54 -253 Q 54 -256 54 -258 Q 54 -260 54 -262 L 132 -262 Q 132 -261 132 -259.5 Q 132 -258 132 -257 Q 132 -238 137.5 -220.5 Q 143 -203 154.5 -188.5 Q 166 -174 182.5 -165 Q 199 -156 217 -153 L 219 -286 L 282 -270 L 283 -152 Q 299 -155 313.5 -160 Q 328 -165 340 -174.5 Q 352 -184 359 -198.5 Q 366 -213 366 -228 Q 366 -247 357 -263.5 Q 348 -280 333.5 -291.5 Q 319 -303 301.5 -310.5 Q 284 -318 266.5 -323 Q 249 -328 231 -333 Q 213 -338 195.5 -345 Q 178 -352 161.5 -361 Q 145 -370 130.5 -381 Q 116 -392 103.5 -406 Q 91 -420 82 -436.5 Q 73 -453 68.5 -471 Q 64 -489 64 -508 Q 64 -536 75.5 -563 Q 87 -590 108 -609.5 Q 129 -629 156 -639 Q 183 -649 211 -653 L 211 -735 L 289 -735 L 289 -653 Q 320 -649 348.5 -635.5 Q 377 -622 397.5 -598.5 Q 418 -575 428 -544.5 Q 438 -514 438 -483 Q 438 -481 438 -479 Q 438 -477 438 -475 L 360 -475 Q 360 -476 360 -477.5 Q 360 -479 360 -480 Q 360 -497 355.5 -514 Q 351 -531 340.5 -545 Q 330 -559 315 -568.5 Q 300 -578 283 -582 L 281 -449 L 218 -465 L 217 -582 Q 202 -580 188.5 -574 Q 175 -568 164.5 -558.5 Q 154 -549 148 -535.5 Q 142 -522 142 -507 Q 142 -489 151 -472 Q 160 -455 174.5 -443.5 Q 189 -432 206 -424.5 Q 223 -417 241 -412 Q 259 -407 277 -402 Q 295 -397 312 -390 Q 329 -383 345.5 -374.5 Q 362 -366 377 -354.5 Q 392 -343 404.5 -329 Q 417 -315 425.5 -299 Q 434 -283 439 -264.5 Q 444 -246 444 -228 Q 444 -198 431.5 -170.5 Q 419 -143 396.5 -124 Q 374 -105 346 -95 Q 318 -85 289 -82 L 289 0 Z " id="path1"/></defs><g><g data-source-text="$" fill="#dee4e3" transform="translate(40 104.99201) rotate(0) scale(0.09599999)"><use href="#path1" transform="translate(0 0)"/></g></g></svg>