<?xml version="1.0" encoding="UTF-8" standalone="no"?>
<svg height="160" viewBox="0 0 128 160" width="128" xmlns="http://www.w3.org/2000/svg">
<defs>
<path d="M 254 8 Q 227 8 199.5 3.5 Q 172 -1 148 -14.5 Q 124 -28 105.5 -48.5 Q 87 -69 76 -93.5 Q 65 -118 60.5 -145.5 Q 56 -173 56 -200 L 56 -320 Q 56 -345 59 -370 Q 62 -395 70 -418.5 Q 78 -442 91.5 -463 Q 105 -484 125 -499 Q 145 -514 169.5 -521 Q 194 -528 219 -528 Q 242 -528 264.5 -522 Q 287 -516 305.5 -502.5 Q 324 -489 337 -469.5 Q 350 -450 358 -429 L 358 -735 L 436 -735 L 436 -46 Q 397 -18 349.5 -5 Q 302 8 254 8 Z M 256 -62 Q 282 -62 308.5 -67 Q 335 -72 358 -83 L 358 -320 Q 358 -337 356 -353.5 Q 354 -370 349 -385.5 Q 344 -401 334.5 -415.5 Q 325 -430 311.5 -440 Q 298 -450 282 -454 Q 266 -458 249 -458 Q 232 -458 215.5 -454 Q 199 -450 185 -440.5 Q 171 -431 160.5 -417 Q 150 -403 144 -387 Q 138 -371 136 -354 Q 134 -337 134 -320 L 134 -200 Q 134 -182 136 -164.5 Q 138 -147 145 -131 Q 152 -115 163 -101 Q 174 -87 188.5 -77.5 Q 203 -68 220.5 -65 Q 238 -62 256 -62 Z " id="path1"/>
</defs>
<g>
<g data-source-text="d" fill="#20242e" transform="translate(40 104.99201) rotate(0) scale(0.09599999)">
<use href="#path1" transform="translate(0 0)"/>
</g>
</g>
</svg>