<?xml version="1.0" encoding="UTF-8" standalone="no"?>
<svg xmlns="http://www.w3.org/2000/svg" height="160" viewBox="0 0 128 160" width="128"><defs><path d="M 211 107 L 211 -31 Q 180 -34 150 -47 Q 120 -60 98 -83 Q 76 -106 65 -136.5 Q 54 -167 54 -199 Q 54 -201 54 -203 Q 54 -205 54 -207 L 132 -207 Q 132 -206 132 -204.5 Q 132 -203 132 -202 Q 132 -180 140.5 -159 Q 149 -138 166 -124 Q 183 -110 205 -104.5 Q 227 -99 249 -99 Q 271 -99 292 -104 Q 313 -109 330.5 -122 Q 348 -135 357.5 -155.5 Q 367 -176 367 -197 Q 367 -222 355.5 -244 Q 344 -266 325.5 -282 Q 307 -298 285 -309 Q 263 -320 241 -329.5 Q 219 -339 197.5 -350.5 Q 176 -362 156 -376 Q 136 -390 119 -407.5 Q 102 -425 89.5 -446 Q 77 -467 70.5 -490.5 Q 64 -514 64 -538 Q 64 -569 74 -598.5 Q 84 -628 104.5 -650.5 Q 125 -673 153 -686.5 Q 181 -700 211 -704 L 211 -843 L 289 -843 L 289 -704 Q 319 -700 348 -687 Q 377 -674 397.5 -651 Q 418 -628 428 -598 Q 438 -568 438 -537 Q 438 -535 438 -533.5 Q 438 -532 438 -530 L 360 -530 Q 360 -531 360 -532 Q 360 -533 360 -534 Q 360 -555 352.5 -575.5 Q 345 -596 329.5 -610.5 Q 314 -625 293 -630.5 Q 272 -636 251 -636 Q 230 -636 209.5 -630.5 Q 189 -625 173.5 -611.5 Q 158 -598 149.5 -578.5 Q 141 -559 141 -538 Q 141 -514 152.5 -491.5 Q 164 -469 182 -453 Q 200 -437 222 -426 Q 244 -415 266.5 -405.5 Q 289 -396 310.5 -385 Q 332 -374 352 -359.5 Q 372 -345 389 -327.5 Q 406 -310 418.5 -289.5 Q 431 -269 437.5 -245 Q 444 -221 444 -197 Q 444 -166 433 -135.5 Q 422 -105 400.5 -82.5 Q 379 -60 349.5 -47.5 Q 320 -35 289 -31 L 289 107 Z " id="path1"/></defs><g><g data-source-text="$" fill="#20242e" transform="translate(40 104.99201) rotate(0) scale(0.09599999)"><use href="#path1" transform="translate(0 0)"/></g></g></svg>