<?xml version="1.0" encoding="UTF-8" standalone="no"?>
<svg height="160" viewBox="0 0 1280 160" width="1280" xmlns="http://www.w3.org/2000/svg">
<defs>
<path d="M 250 8 Q 223 8 196.5 2.5 Q 170 -3 146.5 -16 Q 123 -29 104.5 -49.5 Q 86 -70 75 -94.5 Q 64 -119 60 -146 Q 56 -173 56 -200 L 56 -535 Q 56 -562 60 -589 Q 64 -616 75 -640.5 Q 86 -665 104.5 -685.5 Q 123 -706 146.5 -719 Q 170 -732 196.5 -737.5 Q 223 -743 250 -743 Q 277 -743 303.5 -737.5 Q 330 -732 353.5 -719 Q 377 -706 395.5 -685.5 Q 414 -665 425 -640.5 Q 436 -616 440 -589 Q 444 -562 444 -535 L 444 -200 Q 444 -173 440 -146 Q 436 -119 425 -94.5 Q 414 -70 395.5 -49.5 Q 377 -29 353.5 -16 Q 330 -3 303.5 2.5 Q 277 8 250 8 Z M 134 -318 L 366 -503 L 366 -535 Q 366 -552 364 -569 Q 362 -586 356 -602 Q 350 -618 339.5 -632 Q 329 -646 315 -655.5 Q 301 -665 284 -669 Q 267 -673 250 -673 Q 233 -673 216 -669 Q 199 -665 185 -655.5 Q 171 -646 160.5 -632 Q 150 -618 144 -602 Q 138 -586 136 -569 Q 134 -552 134 -535 Z M 250 -62 Q 267 -62 284 -66 Q 301 -70 315 -79.5 Q 329 -89 339.5 -103 Q 350 -117 356 -133 Q 362 -149 364 -166 Q 366 -183 366 -200 L 366 -417 L 134 -232 L 134 -200 Q 134 -183 136 -166 Q 138 -149 144 -133 Q 150 -117 160.5 -103 Q 171 -89 185 -79.5 Q 199 -70 216 -66 Q 233 -62 250 -62 Z " id="path1"/>
<path d="M 241 0 L 241 -643 L 105 -537 L 58 -591 L 241 -735 L 319 -735 L 319 0 Z " id="path2"/>
<path d="M 64 0 L 64 -1 Q 64 -28 65 -55 Q 66 -82 70.5 -109 Q 75 -136 83.5 -162 Q 92 -188 104.5 -211.5 Q 117 -235 133.5 -257 Q 150 -279 169.5 -298 Q 189 -317 210 -333.5 Q 231 -350 253 -366 Q 275 -382 296 -399.5 Q 317 -417 332 -439.5 Q 347 -462 354.5 -488.5 Q 362 -515 362 -542 Q 362 -566 356.5 -590.5 Q 351 -615 336.5 -634.5 Q 322 -654 298.5 -663.5 Q 275 -673 251 -673 Q 228 -673 206.5 -665.5 Q 185 -658 169.5 -641.5 Q 154 -625 147 -603.5 Q 140 -582 140 -559 L 140 -555 L 62 -555 L 62 -561 Q 62 -586 67.5 -610.5 Q 73 -635 85 -656.5 Q 97 -678 115 -695.5 Q 133 -713 155 -724 Q 177 -735 201.5 -739 Q 226 -743 251 -743 Q 277 -743 303 -738 Q 329 -733 352 -720 Q 375 -707 392.5 -687.5 Q 410 -668 421 -644 Q 432 -620 436 -594 Q 440 -568 440 -542 Q 440 -513 433.5 -484.5 Q 427 -456 413.5 -430.5 Q 400 -405 380.5 -383 Q 361 -361 339 -342.5 Q 317 -324 294 -306.5 Q 271 -289 249.5 -269.5 Q 228 -250 209.5 -228 Q 191 -206 177 -180.5 Q 163 -155 155 -127 Q 147 -99 144 -70 L 436 -70 L 436 0 Z " id="path3"/>
<path d="M 253 8 Q 227 8 202 4 Q 177 0 153.5 -10.5 Q 130 -21 111 -38.5 Q 92 -56 79 -78 Q 66 -100 60 -125 Q 54 -150 54 -176 L 54 -180 L 132 -180 L 132 -177 Q 132 -154 140.5 -131 Q 149 -108 166 -92 Q 183 -76 206 -69 Q 229 -62 253 -62 Q 278 -62 302.5 -71 Q 327 -80 343.5 -99.5 Q 360 -119 367 -144 Q 374 -169 374 -195 Q 374 -216 369.5 -236.5 Q 365 -257 355 -275.5 Q 345 -294 329.5 -308.5 Q 314 -323 295 -331.5 Q 276 -340 255 -342.5 Q 234 -345 213 -345 L 213 -415 Q 232 -415 251 -417 Q 270 -419 287.5 -426.5 Q 305 -434 319 -447.5 Q 333 -461 341.5 -478 Q 350 -495 354 -514 Q 358 -533 358 -552 Q 358 -575 352.5 -597 Q 347 -619 333 -637 Q 319 -655 297.5 -664 Q 276 -673 253 -673 Q 231 -673 210 -665 Q 189 -657 174.5 -640.5 Q 160 -624 154 -602.5 Q 148 -581 148 -559 L 148 -555 L 70 -555 L 70 -562 Q 70 -586 75.5 -610 Q 81 -634 92 -655.5 Q 103 -677 120 -694.5 Q 137 -712 159 -723 Q 181 -734 205 -738.5 Q 229 -743 253 -743 Q 278 -743 302.5 -738 Q 327 -733 348.5 -721.5 Q 370 -710 387 -691.5 Q 404 -673 415 -650.5 Q 426 -628 431 -603.5 Q 436 -579 436 -554 Q 436 -527 429.5 -501 Q 423 -475 409.5 -451.5 Q 396 -428 376 -410 Q 356 -392 332 -381 Q 359 -370 382.5 -350.5 Q 406 -331 421.5 -306 Q 437 -281 444.5 -251.5 Q 452 -222 452 -193 Q 452 -166 446.5 -139.5 Q 441 -113 429 -89.5 Q 417 -66 398 -46.5 Q 379 -27 355.5 -14.5 Q 332 -2 305.5 3 Q 279 8 253 8 Z " id="path4"/>
<path d="M 294 0 L 294 -194 L 56 -194 L 56 -264 L 290 -735 L 375 -735 L 141 -264 L 294 -264 L 294 -444 L 372 -444 L 372 -264 L 436 -264 L 436 -194 L 372 -194 L 372 0 Z " id="path5"/>
<path d="M 252 8 Q 227 8 202.5 3.5 Q 178 -1 156 -12 Q 134 -23 116.5 -40.5 Q 99 -58 87 -79.5 Q 75 -101 69 -125.5 Q 63 -150 62 -174 L 140 -174 Q 141 -152 148.5 -130.5 Q 156 -109 171.5 -93 Q 187 -77 208.5 -69.5 Q 230 -62 252 -62 Q 272 -62 290.5 -69 Q 309 -76 322.5 -90 Q 336 -104 344.5 -121.5 Q 353 -139 358 -158 Q 363 -177 364.5 -196.5 Q 366 -216 366 -235 Q 366 -255 364.5 -274 Q 363 -293 358.5 -311.5 Q 354 -330 345.5 -348 Q 337 -366 324 -380 Q 311 -394 292.5 -401 Q 274 -408 255 -408 Q 236 -408 217.5 -404 Q 199 -400 183.5 -389 Q 168 -378 159 -361 Q 150 -344 149 -325 L 71 -325 L 71 -735 L 417 -735 L 417 -665 L 149 -665 L 149 -455 Q 173 -468 200.5 -473 Q 228 -478 255 -478 Q 284 -478 312.5 -470.5 Q 341 -463 364 -445 Q 387 -427 403 -402.5 Q 419 -378 428 -350 Q 437 -322 440.5 -293 Q 444 -264 444 -235 Q 444 -206 440.5 -177 Q 437 -148 427.5 -120 Q 418 -92 402 -67.5 Q 386 -43 362.5 -25 Q 339 -7 310 0.5 Q 281 8 252 8 Z " id="path6"/>
<path d="M 250 8 Q 222 8 194 1.5 Q 166 -5 142.5 -20.5 Q 119 -36 101.5 -59 Q 84 -82 74 -108.5 Q 64 -135 60 -163 Q 56 -191 56 -220 Q 56 -265 64.5 -310 Q 73 -355 88 -398 Q 103 -441 122.5 -482.5 Q 142 -524 163 -564 L 248 -735 L 334 -735 L 232 -533 Q 216 -501 200.5 -468.5 Q 185 -436 172 -402 Q 192 -425 221 -436 Q 250 -447 280 -447 Q 307 -447 332.5 -439 Q 358 -431 378 -413.5 Q 398 -396 411 -372.5 Q 424 -349 431.5 -324 Q 439 -299 441.5 -272.5 Q 444 -246 444 -220 Q 444 -191 440 -163 Q 436 -135 426 -108.5 Q 416 -82 398.5 -59 Q 381 -36 357.5 -20.5 Q 334 -5 306 1.5 Q 278 8 250 8 Z M 250 -62 Q 268 -62 286 -67.5 Q 304 -73 318.5 -85 Q 333 -97 342.5 -113 Q 352 -129 357 -146.5 Q 362 -164 364 -182.5 Q 366 -201 366 -220 Q 366 -238 364 -256.5 Q 362 -275 357 -292.5 Q 352 -310 342.5 -326 Q 333 -342 318.5 -354 Q 304 -366 286 -371.5 Q 268 -377 250 -377 Q 233 -377 217 -373 Q 201 -369 187.5 -359 Q 174 -349 164 -335 Q 154 -321 147.5 -305.5 Q 141 -290 138 -273.5 Q 135 -257 134 -241 L 134 -220 Q 134 -201 136 -182.5 Q 138 -164 143 -146.5 Q 148 -129 157.5 -113 Q 167 -97 181.5 -85 Q 196 -73 214 -67.5 Q 232 -62 250 -62 Z " id="path7"/>
<path d="M 146 0 L 355 -665 L 64 -665 L 64 -735 L 436 -735 L 436 -665 L 226 0 Z " id="path8"/>
<path d="M 250 8 Q 226 8 201.5 4.5 Q 177 1 154.5 -9 Q 132 -19 113 -35 Q 94 -51 81 -72 Q 68 -93 62 -116.5 Q 56 -140 56 -165 Q 56 -197 67 -228.5 Q 78 -260 96.5 -286.5 Q 115 -313 139 -335 Q 163 -357 189 -377 Q 165 -396 143.5 -417 Q 122 -438 106 -463.5 Q 90 -489 80.5 -518 Q 71 -547 71 -577 Q 71 -600 76.5 -622.5 Q 82 -645 93.5 -665 Q 105 -685 122.5 -700.5 Q 140 -716 160.5 -726 Q 181 -736 204 -739.5 Q 227 -743 250 -743 Q 273 -743 296 -739.5 Q 319 -736 339.5 -726 Q 360 -716 377.5 -700.5 Q 395 -685 406.5 -665 Q 418 -645 423.5 -622.5 Q 429 -600 429 -577 Q 429 -547 419.5 -518 Q 410 -489 394 -463.5 Q 378 -438 356.5 -417 Q 335 -396 311 -377 Q 337 -357 361 -335 Q 385 -313 403.5 -286.5 Q 422 -260 433 -228.5 Q 444 -197 444 -165 Q 444 -140 438 -116.5 Q 432 -93 419 -72 Q 406 -51 387 -35 Q 368 -19 345.5 -9 Q 323 1 298.5 4.5 Q 274 8 250 8 Z M 250 -421 Q 269 -436 287 -452 Q 305 -468 319 -487 Q 333 -506 342 -529 Q 351 -552 351 -576 Q 351 -595 344 -614.5 Q 337 -634 323 -647.5 Q 309 -661 289.5 -667 Q 270 -673 250 -673 Q 230 -673 210.5 -667 Q 191 -661 177 -647.5 Q 163 -634 156 -614.5 Q 149 -595 149 -576 Q 149 -552 158 -529 Q 167 -506 181 -487 Q 195 -468 213 -452 Q 231 -436 250 -421 Z M 250 -62 Q 272 -62 294 -67.5 Q 316 -73 332.5 -87.5 Q 349 -102 357.5 -123 Q 366 -144 366 -166 Q 366 -193 355.5 -217.5 Q 345 -242 328.5 -262.5 Q 312 -283 291.5 -300 Q 271 -317 250 -332 Q 229 -317 208.5 -300 Q 188 -283 171.5 -262.5 Q 155 -242 144.5 -217.5 Q 134 -193 134 -166 Q 134 -144 142.5 -123 Q 151 -102 167.5 -87.5 Q 184 -73 206 -67.5 Q 228 -62 250 -62 Z " id="path9"/>
<path d="M 252 0 L 166 0 L 268 -202 Q 284 -234 299.5 -266.5 Q 315 -299 328 -333 Q 308 -310 279 -299 Q 250 -288 220 -288 Q 193 -288 167.5 -296 Q 142 -304 122 -321.5 Q 102 -339 89 -362.5 Q 76 -386 68.5 -411 Q 61 -436 58.5 -462.5 Q 56 -489 56 -515 Q 56 -544 60 -572 Q 64 -600 74 -626.5 Q 84 -653 101.5 -676 Q 119 -699 142.5 -714.5 Q 166 -730 194 -736.5 Q 222 -743 250 -743 Q 278 -743 306 -736.5 Q 334 -730 357.5 -714.5 Q 381 -699 398.5 -676 Q 416 -653 426 -626.5 Q 436 -600 440 -572 Q 444 -544 444 -515 Q 444 -470 435.5 -425 Q 427 -380 412 -337 Q 397 -294 377.5 -252.5 Q 358 -211 337 -171 Z M 250 -358 Q 267 -358 283 -362 Q 299 -366 312.5 -376 Q 326 -386 336 -400 Q 346 -414 352.5 -429.5 Q 359 -445 362 -461.5 Q 365 -478 366 -494 L 366 -515 Q 366 -534 364 -552.5 Q 362 -571 357 -588.5 Q 352 -606 342.5 -622 Q 333 -638 318.5 -650 Q 304 -662 286 -667.5 Q 268 -673 250 -673 Q 232 -673 214 -667.5 Q 196 -662 181.5 -650 Q 167 -638 157.5 -622 Q 148 -606 143 -588.5 Q 138 -571 136 -552.5 Q 134 -534 134 -515 Q 134 -497 136 -478.5 Q 138 -460 143 -442.5 Q 148 -425 157.5 -409 Q 167 -393 181.5 -381 Q 196 -369 214 -363.5 Q 232 -358 250 -358 Z " id="path10"/>
</defs>
<g>
<g data-source-text="0" fill="#dee4e3" transform="translate(40 104.99201) rotate(0) scale(0.09599999)">
<use href="#path1" transform="translate(0 0)"/>
</g>
</g>
<g>
<g data-source-text="1" fill="#dee4e3" transform="translate(168 104.99201) rotate(0) scale(0.09599999)">
<use href="#path2" transform="translate(0 0)"/>
</g>
</g>
<g>
<g data-source-text="2" fill="#dee4e3" transform="translate(296 104.99201) rotate(0) scale(0.09599999)">
<use href="#path3" transform="translate(0 0)"/>
</g>
</g>
<g>
<g data-source-text="3" fill="#dee4e3" transform="translate(424 104.99201) rotate(0) scale(0.09599999)">
<use href="#path4" transform="translate(0 0)"/>
</g>
</g>
<g>
<g data-source-text="4" fill="#dee4e3" transform="translate(552 104.99201) rotate(0) scale(0.09599999)">
<use href="#path5" transform="translate(0 0)"/>
</g>
</g>
<g>
<g data-source-text="5" fill="#dee4e3" transform="translate(680 104.99201) rotate(0) scale(0.09599999)">
<use href="#path6" transform="translate(0 0)"/>
</g>
</g>
<g>
<g data-source-text="6" fill="#dee4e3" transform="translate(808 104.99201) rotate(0) scale(0.09599999)">
<use href="#path7" transform="translate(0 0)"/>
</g>
</g>
<g>
<g data-source-text="7" fill="#dee4e3" transform="translate(936 104.99201) rotate(0) scale(0.09599999)">
<use href="#path8" transform="translate(0 0)"/>
</g>
</g>
<g>
<g data-source-text="8" fill="#dee4e3" transform="translate(1064 104.99201) rotate(0) scale(0.09599999)">
<use href="#path9" transform="translate(0 0)"/>
</g>
</g>
<g>
<g data-source-text="9" fill="#dee4e3" transform="translate(1192 104.99201) rotate(0) scale(0.09599999)">
<use href="#path10" transform="translate(0 0)"/>
</g>
</g>
</svg>