<svg xmlns="http://www.w3.org/2000/svg" height="160" viewBox="0 0 640 160" width="640"><defs><path d="M 250 8 C 232 8 214 6.1666665 196 2.5000002 C 178.00002 -1.1666665 161.33334 -7.3333335 146 -16 C 130.66667 -24.666666 116.833336 -35.833332 104.50001 -49.5 C 92.16667 -63.16667 82.333336 -78.16667 75.00001 -94.50001 C 67.666664 -110.83333 62.666668 -127.99999 60.000004 -146 C 57.333332 -164 55.999996 -182 56 -200.00002 L 56 -320.00003 C 55.999996 -338 57.333332 -356 60.000004 -374 C 62.666668 -392 67.666664 -409.16666 75.00001 -425.5 C 82.333336 -441.83334 92.16667 -456.83334 104.50001 -470.5 C 116.833336 -484.1667 130.83333 -495.33337 146.5 -504 C 162.16666 -512.6666 178.83333 -519.3333 196.50002 -524 C 214.16667 -528.6667 232 -531 250 -531.00006 C 268 -531 285.8333 -528.6667 303.5 -524 C 321.16666 -519.3333 337.83334 -512.6666 353.50003 -504 C 369.16672 -495.33337 383.1667 -484.1667 395.5 -470.5 C 407.83334 -456.83334 417.6667 -441.83334 425 -425.5 C 432.3333 -409.16666 437.3333 -392 440.00003 -374 C 442.66666 -356 444.00003 -338 444.00003 -320.00003 L 444.00003 -200.00002 C 444.00003 -182 442.66666 -164 440.00003 -146 C 437.3333 -127.99999 432.3333 -110.83333 425 -94.50001 C 417.6667 -78.16667 407.83334 -63.16667 395.5 -49.5 C 383.1667 -35.833332 369.33334 -24.666666 354.00003 -16 C 338.6667 -7.3333335 322.00003 -1.1666665 304 2.5000002 C 286 6.1666665 268 8 250 8 Z M 250 -62.000004 C 261.33334 -62.000004 272.66666 -63.333336 284 -66 C 295.3333 -68.66667 305.66666 -73.16667 315 -79.5 C 324.3333 -85.833336 332.5 -93.666664 339.5 -103.00001 C 346.5 -112.33334 352 -122.33333 356 -133 C 360 -143.66667 362.66666 -154.66667 364 -166 C 365.33334 -177.33334 366.00003 -188.66667 366.00003 -200.00002 L 366.00003 -320.00003 C 366.00003 -331.33334 365.33334 -342.6667 364 -354.00003 C 362.66666 -365.33334 359.83334 -376.50003 355.50003 -387.50003 C 351.1667 -398.50003 345.66666 -408.66672 339 -418.00003 C 332.3333 -427.33337 324.16666 -435 314.5 -441 C 304.83334 -447 294.33334 -451.33334 283.00003 -454 C 271.66666 -456.66666 260 -457.99997 248.00002 -458 C 236.66667 -457.99997 225.5 -456.5 214.50002 -453.5 C 203.5 -450.5 193.33333 -445.83334 184 -439.50003 C 174.66667 -433.1667 166.66667 -425.3333 160.00002 -416.00003 C 153.33333 -406.6667 148 -396.83334 144.00002 -386.5 C 140.00002 -376.1667 137.33334 -365.33334 136 -354.00003 C 134.66667 -342.6667 134 -331.33334 134 -320.00003 L 134 -200.00002 C 134 -188.66667 134.66667 -177.33334 136 -166 C 137.33334 -154.66667 140.00002 -143.66667 144.00002 -133 C 148 -122.33333 153.5 -112.33334 160.5 -103.00001 C 167.5 -93.666664 175.66666 -85.833336 185.00002 -79.5 C 194.33333 -73.16667 204.66666 -68.66667 216 -66 C 227.33333 -63.333336 238.66666 -62.000004 250 -62.000004 Z M 350 -608 C 341.3333 -608 333 -609.1667 325.00003 -611.50006 C 317 -613.8333 310 -618 304 -624 C 298 -630 293.83334 -637 291.50003 -645.00006 C 289.1667 -653.00006 288 -661.3333 288.00003 -670 C 288 -678.6667 289.1667 -687 291.50003 -695.00006 C 293.83334 -703 298 -710 304 -716 C 310 -722 317 -726.3333 325.00003 -729.00006 C 333 -731.6667 341.3333 -733 350 -733.00006 C 358.66666 -733 367 -731.6667 375 -729.00006 C 383 -726.3333 390 -722 396 -716 C 402 -710 406.33334 -703 409 -695.00006 C 411.66666 -687 412.99997 -678.6667 413 -670 C 412.99997 -661.3333 411.66666 -653.00006 409 -645.00006 C 406.33334 -637 402 -630 396 -624 C 390 -618 383 -613.8333 375 -611.50006 C 367 -609.1667 358.66666 -608 350 -608 Z M 150.00002 -608 C 141.33334 -608 133 -609.1667 125 -611.50006 C 117.00001 -613.8333 110 -618 104.00001 -624 C 97.99999 -630 93.83333 -637 91.50001 -645.00006 C 89.166664 -653.00006 88 -661.3333 88 -670 C 88 -678.6667 89.166664 -687 91.50001 -695.00006 C 93.83333 -703 97.99999 -710 104.00001 -716 C 110 -722 117.00001 -726.3333 125 -729.00006 C 133 -731.6667 141.33334 -733 150.00002 -733.00006 C 158.66667 -733 167 -731.6667 175 -729.00006 C 183 -726.3333 190 -722 196 -716 C 202.00002 -710 206.33334 -703 209.00002 -695.00006 C 211.66667 -687 212.99998 -678.6667 213 -670 C 212.99998 -661.3333 211.66667 -653.00006 209.00002 -645.00006 C 206.33334 -637 202.00002 -630 196 -624 C 190 -618 183 -613.8333 175 -611.50006 C 167 -609.1667 158.66667 -608 150.00002 -608 Z " id="path4"/><path d="M 185.00002 223.00002 C 170.33333 223.00002 155.66666 221.5 141 218.5 C 126.33333 215.5 112.49999 210.50002 99.5 203.5 C 86.5 196.49998 75 187.5 65.00001 176.50002 C 55.000004 165.50002 46.666668 153.33334 40.000004 140.00002 C 33.333336 126.66667 28.500002 112.833336 25.5 98.50001 C 22.5 84.16667 20.666666 69.66667 20.000002 55.000004 L 98 55.000004 C 98 67 99.833336 79 103.5 91 C 107.166664 103 112.66667 113.83333 120.00001 123.5 C 127.333336 133.16667 136.83333 140.5 148.50002 145.50002 C 160.16667 150.5 172.33333 152.99998 185.00002 153 C 195.00002 152.99998 204.83336 151.16666 214.50002 147.5 C 224.16666 143.83333 232.5 138.5 239.50002 131.50002 C 246.5 124.5 252.33333 116.5 257.00003 107.5 C 261.66666 98.5 265.16666 89.166664 267.5 79.5 C 269.83334 69.833336 271.5 60.000004 272.5 50.000004 C 273.5 40.000004 274.00003 30.000002 274.00003 20.000002 L 274.00003 -450.00003 L 138 -450.00003 L 138 -520.00006 L 352 -520.00006 L 352 20.000002 C 352 36.666668 351 53.166668 349.00003 69.5 C 347 85.833336 343.00003 101.833336 337.00003 117.5 C 331 133.16667 323.16666 147.83333 313.50003 161.5 C 303.83334 175.16667 292.33334 186.83334 279 196.50002 C 265.66666 206.16667 250.83331 213 234.50002 217.00002 C 218.16667 221 201.66666 223.00002 185.00002 223.00002 Z M 300.00003 -608 C 291.3333 -608 283 -609.1667 275 -611.50006 C 267 -613.8333 260 -618 254.00002 -624 C 248 -630 243.83333 -637 241.5 -645.00006 C 239.16667 -653.00006 238 -661.3333 238 -670 C 238 -678.6667 239.16667 -687 241.5 -695.00006 C 243.83333 -703 248 -710 254.00002 -716 C 260 -722 267 -726.3333 275 -729.00006 C 283 -731.6667 291.3333 -733 300.00003 -733.00006 C 308.6667 -733 317 -731.6667 325.00003 -729.00006 C 333 -726.3333 340 -722 346 -716 C 352 -710 356.33334 -703 359.00003 -695.00006 C 361.6667 -687 363 -678.6667 363 -670 C 363 -661.3333 361.6667 -653.00006 359.00003 -645.00006 C 356.33334 -637 352 -630 346 -624 C 340 -618 333 -613.8333 325.00003 -611.50006 C 317 -609.1667 308.6667 -608 300.00003 -608 Z " id="path2"/><path d="M 202.00002 8 C 182 8 162.33334 4.9999995 143 -1 C 123.666664 -7 107.16667 -17.333334 93.5 -32 C 79.83333 -46.666668 70.166664 -63.666668 64.5 -83 C 58.833332 -102.33333 55.999996 -121.666664 56 -141 C 55.999996 -158.33333 58.166664 -175.33333 62.5 -192 C 66.833336 -208.66667 74.166664 -223.66667 84.50001 -237.00002 C 94.833336 -250.33336 107.333336 -261.5 122 -270.5 C 136.66667 -279.5 152.16667 -286.66666 168.50002 -292 C 184.83333 -297.33334 201.33333 -301 218 -303 C 234.66667 -305 251.66667 -305.99997 269 -306 L 358 -306 L 358 -355.00003 C 358 -369 355.66666 -383 351 -397 C 346.33334 -411.00003 338.6667 -422.6667 328.00003 -432 C 317.33334 -441.33334 305 -448 291.00003 -452.00003 C 277 -455.99997 263 -457.99997 249 -458 C 235.66666 -457.99997 222.5 -456.66666 209.5 -454 C 196.49998 -451.33334 184.66666 -446.33334 174.00002 -439.00003 C 163.33334 -431.66666 155 -422.00003 149 -410.00003 C 143.00002 -398 140.00002 -385.66666 140.00002 -373 C 140.00002 -373 140.00002 -373 140.00002 -373 C 140.00002 -373 140.00002 -373 140.00002 -373 C 140.00002 -373 140.00002 -373 140.00002 -373 C 140.00002 -373 140.00002 -373 140.00002 -373 C 140.00002 -373 140.00002 -373 140.00002 -373 C 140.00002 -373 140.00002 -373 140.00002 -373 L 62.000004 -373 C 62.000004 -373 62.000004 -373 62.000004 -373 C 62.000004 -373 62.000004 -373 62.000004 -373 C 62.000004 -388.33334 64.166664 -403.33334 68.50001 -418.00003 C 72.83333 -432.66672 79.333336 -446.33334 88 -459 C 96.666664 -471.66666 107.16667 -482.5 119.50001 -491.50003 C 131.83334 -500.49997 145 -507.83334 159 -513.50006 C 173 -519.1666 187.66666 -523 203.00002 -525.00006 C 218.33333 -526.99994 233.66667 -528 249 -528 C 265 -528 281 -526.8333 297.00003 -524.5 C 313 -522.1667 328.33334 -517.6667 343.00003 -511 C 357.66666 -504.33334 371.1667 -495.6667 383.50003 -485.00003 C 395.83334 -474.33334 406 -462 414 -448 C 421.99997 -434.00003 427.6667 -419 431 -403 C 434.33334 -387.00003 435.99997 -370.99997 436 -355.00003 L 436 0 L 358 0 L 358 -86.00001 C 352 -71.333336 343.50003 -57.833336 332.5 -45.5 C 321.5 -33.166668 309 -22.833334 295 -14.5 C 281 -6.166667 266 -0.33333325 250 3 C 234.00002 6.3333335 218 8 202.00002 8 Z M 232 -62.000004 C 248 -62.000004 264.16666 -64.166664 280.5 -68.50001 C 296.8333 -72.83333 311 -80.5 323 -91.50001 C 335 -102.50001 343.83334 -115.833336 349.50003 -131.50002 C 355.1667 -147.16666 358 -163.33333 358 -180.00002 L 358 -236.00002 L 269 -236.00002 C 259 -235.99998 248.83333 -235.5 238.5 -234.50002 C 228.16667 -233.50002 218.16667 -231.83333 208.50002 -229.5 C 198.83333 -227.16666 189.33333 -223.83333 180.00002 -219.50002 C 170.66666 -215.16666 162.33333 -209.66666 155 -203.00002 C 147.66667 -196.33333 142.33333 -188.16666 139 -178.5 C 135.66666 -168.83334 134 -159 134 -149 C 134 -137.00002 136.33333 -125 141 -113.00001 C 145.66666 -100.99999 152.66666 -91 162 -83 C 171.33331 -75 182.16666 -69.5 194.50002 -66.5 C 206.83333 -63.5 219.33334 -62.000004 232 -62.000004 Z M 350 -608 C 341.3333 -608 333 -609.1667 325.00003 -611.50006 C 317 -613.8333 310 -618 304 -624 C 298 -630 293.83334 -637 291.50003 -645.00006 C 289.1667 -653.00006 288 -661.3333 288.00003 -670 C 288 -678.6667 289.1667 -687 291.50003 -695.00006 C 293.83334 -703 298 -710 304 -716 C 310 -722 317 -726.3333 325.00003 -729.00006 C 333 -731.6667 341.3333 -733 350 -733.00006 C 358.66666 -733 367 -731.6667 375 -729.00006 C 383 -726.3333 390 -722 396 -716 C 402 -710 406.33334 -703 409 -695.00006 C 411.66666 -687 412.99997 -678.6667 413 -670 C 412.99997 -661.3333 411.66666 -653.00006 409 -645.00006 C 406.33334 -637 402 -630 396 -624 C 390 -618 383 -613.8333 375 -611.50006 C 367 -609.1667 358.66666 -608 350 -608 Z M 150.00002 -608 C 141.33334 -608 133 -609.1667 125 -611.50006 C 117.00001 -613.8333 110 -618 104.00001 -624 C 97.99999 -630 93.83333 -637 91.50001 -645.00006 C 89.166664 -653.00006 88 -661.3333 88 -670 C 88 -678.6667 89.166664 -687 91.50001 -695.00006 C 93.83333 -703 97.99999 -710 104.00001 -716 C 110 -722 117.00001 -726.3333 125 -729.00006 C 133 -731.6667 141.33334 -733 150.00002 -733.00006 C 158.66667 -733 167 -731.6667 175 -729.00006 C 183 -726.3333 190 -722 196 -716 C 202.00002 -710 206.33334 -703 209.00002 -695.00006 C 211.66667 -687 212.99998 -678.6667 213 -670 C 212.99998 -661.3333 211.66667 -653.00006 209.00002 -645.00006 C 206.33334 -637 202.00002 -630 196 -624 C 190 -618 183 -613.8333 175 -611.50006 C 167 -609.1667 158.66667 -608 150.00002 -608 Z " id="path3"/><path d="M 220.00002 8 C 203.33333 8 187 5.6666665 171.00002 1 C 155 -3.6666665 140.83334 -11.166667 128.50002 -21.500002 C 116.16667 -31.833332 105.66667 -44.166664 97.00001 -58.500004 C 88.33333 -72.833336 81.5 -87.833336 76.5 -103.5 C 71.5 -119.166664 68.166664 -135.16667 66.5 -151.5 C 64.833336 -167.83333 64 -184 64 -200.00002 L 64 -520.00006 L 142 -520.00006 L 142 -200.00002 C 142 -188.66667 142.66666 -177.50002 144.00002 -166.5 C 145.33333 -155.5 147.66666 -144.83333 151 -134.5 C 154.33334 -124.166664 159.16667 -114.333336 165.50002 -105 C 171.83333 -95.66667 179.33333 -87.66667 188.00002 -81 C 196.66666 -74.333336 206.33333 -69.5 217.00002 -66.5 C 227.66666 -63.5 238.66666 -62.000004 250 -62.000004 C 261.33334 -62.000004 272.33334 -63.5 283.00003 -66.5 C 293.6667 -69.5 303.33334 -74.333336 312 -81 C 320.6667 -87.66667 328.1667 -95.66667 334.5 -105 C 340.83334 -114.333336 345.6667 -124.166664 349.00003 -134.5 C 352.33334 -144.83333 354.6667 -155.5 356 -166.5 C 357.33334 -177.50002 358 -188.66667 358 -200.00002 L 358 -520.00006 L 436 -520.00006 L 436 0 L 358 0 L 358 -91 C 352.66666 -77.00001 345.66666 -63.666668 337.00003 -51 C 328.33334 -38.333332 317.83334 -27.333332 305.50003 -18.000002 C 293.16666 -8.666667 279.5 -1.9999998 264.5 2 C 249.5 6 234.66667 8 220.00002 8 Z M 350 -608 C 341.3333 -608 333 -609.1667 325.00003 -611.50006 C 317 -613.8333 310 -618 304 -624 C 298 -630 293.83334 -637 291.50003 -645.00006 C 289.1667 -653.00006 288 -661.3333 288.00003 -670 C 288 -678.6667 289.1667 -687 291.50003 -695.00006 C 293.83334 -703 298 -710 304 -716 C 310 -722 317 -726.3333 325.00003 -729.00006 C 333 -731.6667 341.3333 -733 350 -733.00006 C 358.66666 -733 367 -731.6667 375 -729.00006 C 383 -726.3333 390 -722 396 -716 C 402 -710 406.33334 -703 409 -695.00006 C 411.66666 -687 412.99997 -678.6667 413 -670 C 412.99997 -661.3333 411.66666 -653.00006 409 -645.00006 C 406.33334 -637 402 -630 396 -624 C 390 -618 383 -613.8333 375 -611.50006 C 367 -609.1667 358.66666 -608 350 -608 Z M 150.00002 -608 C 141.33334 -608 133 -609.1667 125 -611.50006 C 117.00001 -613.8333 110 -618 104.00001 -624 C 97.99999 -630 93.83333 -637 91.50001 -645.00006 C 89.166664 -653.00006 88 -661.3333 88 -670 C 88 -678.6667 89.166664 -687 91.50001 -695.00006 C 93.83333 -703 97.99999 -710 104.00001 -716 C 110 -722 117.00001 -726.3333 125 -729.00006 C 133 -731.6667 141.33334 -733 150.00002 -733.00006 C 158.66667 -733 167 -731.6667 175 -729.00006 C 183 -726.3333 190 -722 196 -716 C 202.00002 -710 206.33334 -703 209.00002 -695.00006 C 211.66667 -687 212.99998 -678.6667 213 -670 C 212.99998 -661.3333 211.66667 -653.00006 209.00002 -645.00006 C 206.33334 -637 202.00002 -630 196 -624 C 190 -618 183 -613.8333 175 -611.50006 C 167 -609.1667 158.66667 -608 150.00002 -608 Z " id="path5"/><path d="M 75.00001 0 L 75.00001 -70.00001 L 218 -70.00001 L 218 -450.00003 L 89 -450.00003 L 89 -520.00006 L 296 -520.00006 L 296 -70.00001 L 425 -70.00001 L 425 0 Z M 250 -608 C 241.33333 -608 233 -609.1667 225.00002 -611.50006 C 217 -613.8333 210 -618 204 -624 C 198 -630 193.83331 -637 191.50002 -645.00006 C 189.16667 -653.00006 188.00002 -661.3333 188.00002 -670 C 188.00002 -678.6667 189.16667 -687 191.50002 -695.00006 C 193.83331 -703 198 -710 204 -716 C 210 -722 217 -726.3333 225.00002 -729.00006 C 233 -731.6667 241.33333 -733 250 -733.00006 C 258.66666 -733 267 -731.6667 275 -729.00006 C 283 -726.3333 290 -722 296 -716 C 302 -710 306.33334 -703 309 -695.00006 C 311.6667 -687 313 -678.6667 313 -670 C 313 -661.3333 311.6667 -653.00006 309 -645.00006 C 306.33334 -637 302 -630 296 -624 C 290 -618 283 -613.8333 275 -611.50006 C 267 -609.1667 258.66666 -608 250 -608 Z " id="path1"/></defs><g><g fill="#ffffff" transform="translate(40 105.20961) rotate(0)"><use href="#path1" transform="translate(0 0) scale(0.09599999)"/></g><g fill="#ffffff" transform="translate(168 105.20961) rotate(0)"><use href="#path2" transform="translate(0 0) scale(0.09599999)"/></g><g fill="#ffffff" transform="translate(296 105.20961) rotate(0)"><use href="#path3" transform="translate(0 0) scale(0.09599999)"/></g><g fill="#ffffff" transform="translate(424 105.20961) rotate(0)"><use href="#path4" transform="translate(0 0) scale(0.09599999)"/></g><g fill="#ffffff" transform="translate(552 105.20961) rotate(0)"><use href="#path5" transform="translate(0 0) scale(0.09599999)"/></g></g></svg>