<svg xmlns="http://www.w3.org/2000/svg" height="160" viewBox="0 0 128 160" width="128"><defs><path d="M 249 8 C 231 8 213.16666 6.1666665 195.5 2.5000002 C 177.83334 -1.1666665 161.16667 -7.3333335 145.50002 -16 C 129.83333 -24.666666 116 -35.833332 104.00001 -49.5 C 92.00001 -63.16667 82.333336 -78.333336 75.00001 -95 C 67.666664 -111.666664 62.666668 -128.83334 60.000004 -146.5 C 57.333332 -164.16667 55.999996 -182 56 -200.00002 L 56 -320.00003 C 55.999996 -336.6667 56.999996 -353.3333 59.000004 -370.00003 C 61 -386.66672 64.66667 -402.83334 70.00001 -418.5 C 75.333336 -434.1667 82.5 -449 91.50001 -463.00003 C 100.5 -477 111.666664 -489.00003 125 -499 C 138.33333 -509 153.16667 -516.3334 169.5 -521 C 185.83334 -525.6666 202.33334 -528 219.00002 -528 C 234.33333 -528 249.5 -525.99994 264.5 -522 C 279.5 -518 293.16666 -511.50003 305.50003 -502.50003 C 317.83334 -493.5 328.33334 -482.5 337.00003 -469.5 C 345.66666 -456.5 352.66666 -443 358 -429.00003 L 358 -735 L 436 -735 L 436 -200.00002 C 435.99997 -182 434.66666 -164.33334 432 -147.00002 C 429.33334 -129.66667 424.66666 -112.833336 418.00003 -96.5 C 411.33334 -80.16667 402.3333 -65 391 -51 C 379.66666 -37 366.33334 -25.5 351 -16.5 C 335.66666 -7.5 319.3333 -1.1666665 302 2.5000002 C 284.66666 6.1666665 267 8 249 8 Z M 249 -62.000004 C 260.3333 -62.000004 271.3333 -63.333336 282 -66 C 292.66666 -68.66667 302.5 -73.333336 311.5 -80.00001 C 320.5 -86.666664 328.1667 -94.833336 334.5 -104.50001 C 340.83334 -114.166664 345.6667 -124.166664 349.00003 -134.5 C 352.33334 -144.83333 354.6667 -155.5 356 -166.5 C 357.33334 -177.50002 358 -188.66667 358 -200.00002 L 358 -320.00003 C 358 -331.33334 357.33334 -342.49997 356 -353.50003 C 354.6667 -364.49997 352.33334 -375.16666 349.00003 -385.5 C 345.6667 -395.83334 340.83334 -405.83334 334.5 -415.50003 C 328.1667 -425.16666 320.6667 -433.33334 312 -440.00003 C 303.33334 -446.6667 293.5 -451.33334 282.50003 -454 C 271.5 -456.66666 260.3333 -457.99997 249 -458 C 237.66666 -457.99997 226.5 -456.66666 215.5 -454 C 204.5 -451.33334 194.33333 -446.83334 185.00002 -440.50003 C 175.66666 -434.1667 167.5 -426.3333 160.5 -417.00003 C 153.5 -407.66666 148 -397.66666 144.00002 -387.00003 C 140.00002 -376.3333 137.33334 -365.33334 136 -354.00003 C 134.66667 -342.6667 134 -331.33334 134 -320.00003 L 134 -200.00002 C 134 -188.66667 134.66667 -177.33334 136 -166 C 137.33334 -154.66667 140.00002 -143.66667 144.00002 -133 C 148 -122.33333 153.33333 -112.33334 160.00002 -103.00001 C 166.66667 -93.666664 174.66667 -85.833336 184 -79.5 C 193.33333 -73.16667 203.66666 -68.66667 215 -66 C 226.33333 -63.333336 237.66666 -62.000004 249 -62.000004 Z " id="path1"/></defs><g><g fill="#ffffff" transform="translate(40 105.20961) rotate(0)"><use href="#path1" transform="translate(0 0) scale(0.09599999)"/></g></g></svg>