<?xml version="1.0" encoding="UTF-8" standalone="no"?>
<svg height="160" viewBox="0 0 128 160" width="128" xmlns="http://www.w3.org/2000/svg">
<defs>
<path d="M 246 8 Q 219 8 192.5 2.5 Q 166 -3 143 -16.5 Q 120 -30 102.5 -50.5 Q 85 -71 74.5 -95.5 Q 64 -120 60 -146.5 Q 56 -173 56 -200 L 56 -320 Q 56 -345 59 -369.5 Q 62 -394 69.5 -417.5 Q 77 -441 90.5 -462.5 Q 104 -484 123 -499 Q 142 -514 166.5 -521 Q 191 -528 216 -528 Q 239 -528 262 -522 Q 285 -516 304 -502 Q 323 -488 336.5 -469 Q 350 -450 358 -428 L 358 -665 L 312 -665 L 312 -735 L 436 -735 L 436 -200 Q 436 -173 432 -146.5 Q 428 -120 417.5 -95.5 Q 407 -71 389.5 -50.5 Q 372 -30 349 -16.5 Q 326 -3 299.5 2.5 Q 273 8 246 8 Z M 246 -62 Q 263 -62 279.5 -66 Q 296 -70 309.5 -80 Q 323 -90 333 -104 Q 343 -118 348.5 -134 Q 354 -150 356 -166.5 Q 358 -183 358 -200 L 358 -320 Q 358 -337 356 -353.5 Q 354 -370 348.5 -386 Q 343 -402 333 -416 Q 323 -430 309.5 -440 Q 296 -450 279.5 -454 Q 263 -458 246 -458 Q 229 -458 212.5 -454 Q 196 -450 182.5 -440 Q 169 -430 159 -416 Q 149 -402 143.5 -386 Q 138 -370 136 -353.5 Q 134 -337 134 -320 L 134 -200 Q 134 -183 136 -166.5 Q 138 -150 143.5 -134 Q 149 -118 159 -104 Q 169 -90 182.5 -80 Q 196 -70 212.5 -66 Q 229 -62 246 -62 Z " id="path1"/>
</defs>
<g>
<g data-source-text="d" fill="#20242e" transform="translate(40 104.99201) rotate(0) scale(0.09599999)">
<use href="#path1" transform="translate(0 0)"/>
</g>
</g>
</svg>