<svg xmlns="http://www.w3.org/2000/svg" height="160" viewBox="0 0 128 160" width="128"><defs><path d="M 254.00002 8 C 235.99998 8 217.83333 6.4999995 199.50002 3.5 C 181.16667 0.5000001 164.16667 -5.5 148.50002 -14.5 C 132.83334 -23.499998 118.666664 -34.833332 106 -48.500004 C 93.333336 -62.166668 83.333336 -77.16667 76 -93.5 C 68.66667 -109.833336 63.5 -127.16667 60.500004 -145.50002 C 57.499996 -163.83333 55.999996 -182 56 -200.00002 L 56 -320.00003 C 55.999996 -336.6667 56.999996 -353.3333 59.000004 -370.00003 C 61 -386.66672 64.66667 -402.83334 70.00001 -418.5 C 75.333336 -434.1667 82.5 -449 91.50001 -463.00003 C 100.5 -477 111.666664 -489.00003 125 -499 C 138.33333 -509 153.16667 -516.3334 169.5 -521 C 185.83334 -525.6666 202.33334 -528 219.00002 -528 C 234.33333 -528 249.5 -525.99994 264.5 -522 C 279.5 -518 293.16666 -511.50003 305.50003 -502.50003 C 317.83334 -493.5 328.33334 -482.5 337.00003 -469.5 C 345.66666 -456.5 352.66666 -443 358 -429.00003 L 358 -735 L 436 -735 L 436 -46 C 410.00003 -27.333334 381.16666 -13.666666 349.50003 -5.0000005 C 317.83334 3.666666 286 8 254.00002 8 Z M 257.00003 -62.000004 C 274.33334 -62.000004 291.6667 -63.666668 309 -67 C 326.33334 -70.333336 342.6667 -75.66667 358 -83 L 358 -320.00003 C 358 -331.33334 357.33334 -342.49997 356 -353.50003 C 354.6667 -364.49997 352.33334 -375.16666 349.00003 -385.5 C 345.6667 -395.83334 340.83334 -405.83334 334.5 -415.50003 C 328.1667 -425.16666 320.6667 -433.33334 312 -440.00003 C 303.33334 -446.6667 293.5 -451.33334 282.50003 -454 C 271.5 -456.66666 260.3333 -457.99997 249 -458 C 237.66666 -457.99997 226.5 -456.66666 215.5 -454 C 204.5 -451.33334 194.33333 -446.83334 185.00002 -440.50003 C 175.66666 -434.1667 167.5 -426.3333 160.5 -417.00003 C 153.5 -407.66666 148 -397.66666 144.00002 -387.00003 C 140.00002 -376.3333 137.33334 -365.33334 136 -354.00003 C 134.66667 -342.6667 134 -331.33334 134 -320.00003 L 134 -200.00002 C 134 -188.00002 134.83333 -176.16666 136.5 -164.5 C 138.16666 -152.83334 141.16666 -141.66667 145.50002 -131 C 149.83334 -120.333336 155.66667 -110.333336 163 -101.00001 C 170.33333 -91.66667 179 -83.833336 189.00002 -77.5 C 199 -71.166664 209.83333 -67 221.5 -65.00001 C 233.16666 -63.000004 245.00002 -62.000004 257.00003 -62.000004 Z " id="path1"/></defs><g><g fill="#ffffff" transform="translate(40 105.20961) rotate(0)"><use href="#path1" transform="translate(0 0) scale(0.09599999)"/></g></g></svg>