<?xml version="1.0" encoding="UTF-8" standalone="no"?>
<svg height="160" viewBox="0 0 384 160" width="384" xmlns="http://www.w3.org/2000/svg">
<defs>
<path d="M 215 8 Q 184 8 153.5 -0.5 Q 123 -9 100 -30 Q 77 -51 66.5 -81.5 Q 56 -112 56 -143 Q 56 -168 62.5 -193 Q 69 -218 85 -237.5 Q 101 -257 123 -270.5 Q 145 -284 169 -292 Q 193 -300 218 -303 Q 243 -306 269 -306 L 358 -306 L 358 -355 Q 358 -376 351 -397 Q 344 -418 328 -432 Q 312 -446 291 -452 Q 270 -458 249 -458 Q 230 -458 211 -454.5 Q 192 -451 175.5 -440.5 Q 159 -430 149.5 -413 Q 140 -396 140 -377 L 140 -375 L 62 -375 L 62 -378 Q 62 -401 69 -422.5 Q 76 -444 89 -462.5 Q 102 -481 120.5 -494 Q 139 -507 160.5 -514.5 Q 182 -522 204 -525 Q 226 -528 249 -528 Q 273 -528 297 -524.5 Q 321 -521 343 -511 Q 365 -501 383.5 -485 Q 402 -469 414 -448 Q 426 -427 431 -403 Q 436 -379 436 -355 L 436 0 L 358 0 L 358 -83 Q 350 -62 335.5 -44 Q 321 -26 302 -14 Q 283 -2 260.5 3 Q 238 8 215 8 Z M 246 -62 Q 269 -62 291.5 -69.5 Q 314 -77 329.5 -94 Q 345 -111 351.5 -134 Q 358 -157 358 -180 L 358 -236 L 269 -236 Q 254 -236 239 -234.5 Q 224 -233 209.5 -229.5 Q 195 -226 181 -220 Q 167 -214 156 -204 Q 145 -194 139.5 -179.5 Q 134 -165 134 -150 Q 134 -130 143 -111.5 Q 152 -93 168.5 -81.5 Q 185 -70 205 -66 Q 225 -62 246 -62 Z " id="path1"/>
<path d="M -150 -608 Q -163 -608 -175 -611.5 Q -187 -615 -196 -624 Q -205 -633 -208.5 -645 Q -212 -657 -212 -670 Q -212 -683 -208.5 -695 Q -205 -707 -196 -716 Q -187 -725 -175 -729 Q -163 -733 -150 -733 Q -137 -733 -125 -729 Q -113 -725 -104 -716 Q -95 -707 -91 -695 Q -87 -683 -87 -670 Q -87 -657 -91 -645 Q -95 -633 -104 -624 Q -113 -615 -125 -611.5 Q -137 -608 -150 -608 Z M -350 -608 Q -363 -608 -375 -611.5 Q -387 -615 -396 -624 Q -405 -633 -408.5 -645 Q -412 -657 -412 -670 Q -412 -683 -408.5 -695 Q -405 -707 -396 -716 Q -387 -725 -375 -729 Q -363 -733 -350 -733 Q -337 -733 -325 -729 Q -313 -725 -304 -716 Q -295 -707 -291 -695 Q -287 -683 -287 -670 Q -287 -657 -291 -645 Q -295 -633 -304 -624 Q -313 -615 -325 -611.5 Q -337 -608 -350 -608 Z " id="path2"/>
<path d="M 250 8 Q 223 8 196.5 2.5 Q 170 -3 146.5 -16 Q 123 -29 104.5 -49.5 Q 86 -70 75 -94.5 Q 64 -119 60 -146 Q 56 -173 56 -200 L 56 -320 Q 56 -347 60 -374 Q 64 -401 75 -425.5 Q 86 -450 104.5 -470.5 Q 123 -491 146.5 -504 Q 170 -517 196.5 -522.5 Q 223 -528 250 -528 Q 277 -528 303.5 -522.5 Q 330 -517 353.5 -504 Q 377 -491 395.5 -470.5 Q 414 -450 425 -425.5 Q 436 -401 440 -374 Q 444 -347 444 -320 L 444 -200 Q 444 -173 440 -146 Q 436 -119 425 -94.5 Q 414 -70 395.5 -49.5 Q 377 -29 353.5 -16 Q 330 -3 303.5 2.5 Q 277 8 250 8 Z M 250 -62 Q 267 -62 284 -66 Q 301 -70 315 -79.5 Q 329 -89 339.5 -103 Q 350 -117 356 -133 Q 362 -149 364 -166 Q 366 -183 366 -200 L 366 -320 Q 366 -337 364 -354 Q 362 -371 356 -387 Q 350 -403 339.5 -417 Q 329 -431 315 -440.5 Q 301 -450 284 -454 Q 267 -458 250 -458 Q 233 -458 216 -454 Q 199 -450 185 -440.5 Q 171 -431 160.5 -417 Q 150 -403 144 -387 Q 138 -371 136 -354 Q 134 -337 134 -320 L 134 -200 Q 134 -183 136 -166 Q 138 -149 144 -133 Q 150 -117 160.5 -103 Q 171 -89 185 -79.5 Q 199 -70 216 -66 Q 233 -62 250 -62 Z " id="path3"/>
<path d="M 220 8 Q 195 8 171 1 Q 147 -6 128.5 -21.5 Q 110 -37 97 -58.5 Q 84 -80 76.5 -103.5 Q 69 -127 66.5 -151.5 Q 64 -176 64 -200 L 64 -520 L 142 -520 L 142 -200 Q 142 -183 144 -166.5 Q 146 -150 151 -134.5 Q 156 -119 165.5 -105 Q 175 -91 188 -81 Q 201 -71 217 -66.5 Q 233 -62 250 -62 Q 267 -62 283 -66.5 Q 299 -71 312 -81 Q 325 -91 334.5 -105 Q 344 -119 349 -134.5 Q 354 -150 356 -166.5 Q 358 -183 358 -200 L 358 -520 L 436 -520 L 436 0 L 358 0 L 358 -91 Q 350 -70 337 -50.5 Q 324 -31 305.5 -17.5 Q 287 -4 264.5 2 Q 242 8 220 8 Z " id="path4"/>
</defs>
<g>
<g data-source-text="ä" fill="#dee4e3" transform="translate(40 104.99201) rotate(0) scale(0.09599999)">
<use href="#path1" transform="translate(0 0)"/>
<use href="#path2" transform="translate(500 0)"/>
</g>
</g>
<g>
<g data-source-text="ö" fill="#dee4e3" transform="translate(168 104.99201) rotate(0) scale(0.09599999)">
<use href="#path3" transform="translate(0 0)"/>
<use href="#path2" transform="translate(500 0)"/>
</g>
</g>
<g>
<g data-source-text="ü" fill="#dee4e3" transform="translate(296 104.99201) rotate(0) scale(0.09599999)">
<use href="#path4" transform="translate(0 0)"/>
<use href="#path2" transform="translate(500 0)"/>
</g>
</g>
</svg>