<?xml version="1.0" encoding="UTF-8" standalone="no"?>
<svg height="160" viewBox="0 0 128 160" width="128" xmlns="http://www.w3.org/2000/svg">
<defs>
<path d="M 181 0 L 188 -86 Q 159 -93 133 -108.5 Q 107 -124 89 -147.5 Q 71 -171 62.5 -200 Q 54 -229 54 -259 L 54 -268 L 132 -268 L 132 -262 Q 132 -245 136 -228.5 Q 140 -212 149.5 -197.5 Q 159 -183 172.5 -172.5 Q 186 -162 203 -157 L 217 -338 Q 189 -349 162 -363.5 Q 135 -378 113 -399 Q 91 -420 77.5 -448 Q 64 -476 64 -506 Q 64 -527 70 -547.5 Q 76 -568 88 -585.5 Q 100 -603 116.5 -616 Q 133 -629 152.5 -637.5 Q 172 -646 192.5 -650 Q 213 -654 234 -655 L 241 -735 L 319 -735 L 312 -648 Q 340 -641 364.5 -625 Q 389 -609 405.5 -585.5 Q 422 -562 430 -533.5 Q 438 -505 438 -476 L 438 -467 L 360 -467 L 360 -473 Q 360 -489 356.5 -505 Q 353 -521 345 -535 Q 337 -549 324.5 -560 Q 312 -571 297 -577 L 283 -399 Q 312 -389 340.5 -374.5 Q 369 -360 392 -339 Q 415 -318 429.5 -289.5 Q 444 -261 444 -229 Q 444 -208 437.5 -187 Q 431 -166 418.5 -148.5 Q 406 -131 388 -118 Q 370 -105 350 -97 Q 330 -89 308.5 -85 Q 287 -81 266 -80 L 259 0 Z M 224 -420 L 237 -584 Q 220 -584 203 -579 Q 186 -574 172 -564 Q 158 -554 149.5 -538.5 Q 141 -523 141 -506 Q 141 -490 148.5 -475.5 Q 156 -461 168 -450 Q 180 -439 194.5 -432 Q 209 -425 224 -420 Z M 263 -150 Q 281 -151 299 -155.5 Q 317 -160 332 -169.5 Q 347 -179 357 -195.5 Q 367 -212 367 -230 Q 367 -247 358.5 -262 Q 350 -277 337 -288 Q 324 -299 308 -306 Q 292 -313 276 -318 Z " id="path1"/>
</defs>
<g>
<g data-source-text="$" fill="#dee4e3" transform="translate(40 104.99201) rotate(0) scale(0.09599999)">
<use href="#path1" transform="translate(0 0)"/>
</g>
</g>
</svg>