<?xml version="1.0" encoding="UTF-8" standalone="no"?>
<svg height="160" viewBox="0 0 128 160" width="128" xmlns="http://www.w3.org/2000/svg">
<defs>
<path d="M 214 0 L 214 -82 Q 181 -86 150.5 -99.5 Q 120 -113 97.5 -137.5 Q 75 -162 64.5 -194 Q 54 -226 54 -259 L 54 -268 L 132 -268 L 132 -262 Q 132 -243 137 -224.5 Q 142 -206 153.5 -191 Q 165 -176 182 -166.5 Q 199 -157 218 -153 L 218 -289 L 282 -273 L 282 -152 Q 298 -155 313 -160 Q 328 -165 340 -175 Q 352 -185 359.5 -199.5 Q 367 -214 367 -230 Q 367 -248 357 -264 Q 347 -280 332 -291 Q 317 -302 300 -309 Q 283 -316 265.5 -322 Q 248 -328 230.5 -333.5 Q 213 -339 196.5 -346.5 Q 180 -354 163.5 -362.5 Q 147 -371 132.5 -382 Q 118 -393 105 -406.5 Q 92 -420 83 -436 Q 74 -452 69 -470 Q 64 -488 64 -506 Q 64 -535 75.5 -562.5 Q 87 -590 108.5 -609.5 Q 130 -629 157.5 -639.5 Q 185 -650 214 -653 L 214 -735 L 286 -735 L 286 -653 Q 318 -649 347.5 -634.5 Q 377 -620 397.5 -595.5 Q 418 -571 428 -539.5 Q 438 -508 438 -476 L 438 -467 L 360 -467 L 360 -473 Q 360 -491 355.5 -509 Q 351 -527 341 -542 Q 331 -557 315.5 -567.5 Q 300 -578 282 -582 L 282 -446 L 218 -462 L 218 -582 Q 203 -580 189 -574 Q 175 -568 164.5 -558 Q 154 -548 147.5 -534.5 Q 141 -521 141 -506 Q 141 -487 151 -471 Q 161 -455 175.5 -444 Q 190 -433 207.5 -426 Q 225 -419 242 -413 Q 259 -407 276.5 -401.5 Q 294 -396 311 -388.5 Q 328 -381 344 -372.5 Q 360 -364 375 -353 Q 390 -342 402.5 -328.5 Q 415 -315 424.5 -299.5 Q 434 -284 439 -266 Q 444 -248 444 -229 Q 444 -200 431.5 -172 Q 419 -144 396 -124.5 Q 373 -105 344.5 -95 Q 316 -85 286 -82 L 286 0 Z " id="path1"/>
</defs>
<g>
<g data-source-text="$" fill="#dee4e3" transform="translate(40 104.99201) rotate(0) scale(0.09599999)">
<use href="#path1" transform="translate(0 0)"/>
</g>
</g>
</svg>