<?xml version="1.0" encoding="UTF-8" standalone="no"?>
<svg height="160" viewBox="0 0 128 160" width="128" xmlns="http://www.w3.org/2000/svg">
<defs>
<path d="M 211 107 L 211 -31 Q 179 -35 148.5 -49 Q 118 -63 96.5 -87.5 Q 75 -112 64.5 -143.5 Q 54 -175 54 -207 L 54 -217 L 132 -217 L 132 -211 Q 132 -192 137 -173.5 Q 142 -155 153.5 -140 Q 165 -125 181.5 -115 Q 198 -105 217 -102 L 219 -277 L 282 -258 L 283 -102 Q 301 -105 316.5 -113.5 Q 332 -122 343.5 -135 Q 355 -148 361 -165 Q 367 -182 367 -200 Q 367 -224 355.5 -246 Q 344 -268 326 -284 Q 308 -300 285.5 -310 Q 263 -320 241 -329.5 Q 219 -339 197 -350 Q 175 -361 155.5 -374.5 Q 136 -388 118.5 -405.5 Q 101 -423 89 -444 Q 77 -465 70.5 -488.5 Q 64 -512 64 -536 Q 64 -567 74 -596.5 Q 84 -626 104 -649 Q 124 -672 152.5 -686 Q 181 -700 211 -704 L 211 -843 L 289 -843 L 289 -704 Q 320 -700 349 -685.5 Q 378 -671 398.5 -646 Q 419 -621 428.5 -590 Q 438 -559 438 -528 L 438 -518 L 360 -518 L 360 -524 Q 360 -542 355.5 -560 Q 351 -578 341 -593 Q 331 -608 316 -618.5 Q 301 -629 283 -633 L 281 -458 L 218 -477 L 217 -633 Q 200 -629 185.5 -620 Q 171 -611 161 -598 Q 151 -585 146 -568.5 Q 141 -552 141 -536 Q 141 -511 152.5 -489 Q 164 -467 182 -451 Q 200 -435 222 -425 Q 244 -415 266.5 -405.5 Q 289 -396 310.5 -385.5 Q 332 -375 352 -361 Q 372 -347 389 -329.5 Q 406 -312 418.5 -291.5 Q 431 -271 437.5 -247.5 Q 444 -224 444 -200 Q 444 -168 433 -137.5 Q 422 -107 400.5 -84 Q 379 -61 349.5 -48 Q 320 -35 289 -31 L 289 107 Z " id="path1"/>
</defs>
<g>
<g data-source-text="$" fill="#20242e" transform="translate(40 104.99201) rotate(0) scale(0.09599999)">
<use href="#path1" transform="translate(0 0)"/>
</g>
</g>
</svg>