<?xml version="1.0" encoding="UTF-8" standalone="no"?>
<svg height="160" viewBox="0 0 128 160" width="128" xmlns="http://www.w3.org/2000/svg">
<defs>
<path d="M 214 0 L 214 -82 Q 181 -86 150.5 -99.5 Q 120 -113 97.5 -137.5 Q 75 -162 64.5 -194 Q 54 -226 54 -259 L 54 -268 L 132 -268 L 132 -262 Q 132 -243 137.5 -224.5 Q 143 -206 154.5 -191 Q 166 -176 183 -166 Q 200 -156 218 -153 L 218 -338 Q 190 -349 162.5 -363.5 Q 135 -378 113 -398.5 Q 91 -419 77.5 -447 Q 64 -475 64 -506 Q 64 -535 75.5 -562.5 Q 87 -590 108.5 -609.5 Q 130 -629 157.5 -639.5 Q 185 -650 214 -653 L 214 -735 L 286 -735 L 286 -653 Q 318 -649 347.5 -634.5 Q 377 -620 397.5 -595.5 Q 418 -571 428 -539.5 Q 438 -508 438 -476 L 438 -467 L 360 -467 L 360 -473 Q 360 -491 355.5 -509 Q 351 -527 341 -542 Q 331 -557 315.5 -567.5 Q 300 -578 282 -582 L 282 -400 Q 311 -389 339.5 -375 Q 368 -361 391.5 -339.5 Q 415 -318 429.5 -289.5 Q 444 -261 444 -229 Q 444 -200 431.5 -172 Q 419 -144 396 -124.5 Q 373 -105 344.5 -95 Q 316 -85 286 -82 L 286 0 Z M 218 -422 L 218 -582 Q 204 -580 190 -574 Q 176 -568 165 -558.5 Q 154 -549 147.5 -535 Q 141 -521 141 -506 Q 141 -491 148 -476.5 Q 155 -462 166 -451.5 Q 177 -441 190.5 -434 Q 204 -427 218 -422 Z M 282 -152 Q 297 -154 312 -159.5 Q 327 -165 339.5 -175 Q 352 -185 359.5 -199.5 Q 367 -214 367 -230 Q 367 -246 359 -260.5 Q 351 -275 339 -286 Q 327 -297 312 -304 Q 297 -311 282 -316 Z " id="path1"/>
</defs>
<g>
<g data-source-text="$" fill="#20242e" transform="translate(40 104.99201) rotate(0) scale(0.09599999)">
<use href="#path1" transform="translate(0 0)"/>
</g>
</g>
</svg>