<?xml version="1.0" encoding="UTF-8" standalone="no"?>
<svg height="160" viewBox="0 0 640 160" width="640" xmlns="http://www.w3.org/2000/svg">
<defs>
<path d="M 75 0 L 75 -70 L 218 -70 L 218 -450 L 89 -450 L 89 -520 L 296 -520 L 296 -70 L 425 -70 L 425 0 Z M 191 -611 L 191 -729 L 309 -729 L 309 -611 Z " id="path1"/>
<path d="M 185 223 Q 163 223 141 218.5 Q 119 214 99.5 203.5 Q 80 193 65 176.5 Q 50 160 40 140 Q 30 120 25.5 98.5 Q 21 77 20 55 L 98 55 Q 98 73 103.5 91 Q 109 109 120 123.5 Q 131 138 148.5 145.5 Q 166 153 185 153 Q 200 153 214.5 147.5 Q 229 142 239.5 131.5 Q 250 121 257 107.5 Q 264 94 267.5 79.5 Q 271 65 272.5 50 Q 274 35 274 20 L 274 -450 L 138 -450 L 138 -520 L 352 -520 L 352 20 Q 352 45 349 69.5 Q 346 94 337 117.5 Q 328 141 313.5 161.5 Q 299 182 279 196.5 Q 259 211 234.5 217 Q 210 223 185 223 Z M 254 -611 L 254 -729 L 372 -729 L 372 -611 Z " id="path2"/>
<path d="M 202 8 Q 172 8 143 -1 Q 114 -10 93.5 -32 Q 73 -54 64.5 -83 Q 56 -112 56 -142 Q 56 -167 62.5 -192 Q 69 -217 85 -237 Q 101 -257 122.5 -270.5 Q 144 -284 168.5 -292 Q 193 -300 218 -303 Q 243 -306 269 -306 L 358 -306 L 358 -355 Q 358 -376 351 -397 Q 344 -418 328 -432 Q 312 -446 291 -452 Q 270 -458 249 -458 Q 229 -458 209.5 -454 Q 190 -450 174 -439 Q 158 -428 149 -410 Q 140 -392 140 -373 L 62 -373 Q 62 -396 68.5 -418 Q 75 -440 88 -459 Q 101 -478 119.5 -491.5 Q 138 -505 159 -513.5 Q 180 -522 203 -525 Q 226 -528 249 -528 Q 273 -528 297 -524.5 Q 321 -521 343 -511 Q 365 -501 383.5 -485 Q 402 -469 414 -448 Q 426 -427 431 -403 Q 436 -379 436 -355 L 436 0 L 358 0 L 358 -86 Q 349 -64 332.5 -45.5 Q 316 -27 295 -14.5 Q 274 -2 250 3 Q 226 8 202 8 Z M 232 -62 Q 256 -62 280.5 -68.5 Q 305 -75 323 -91.5 Q 341 -108 349.5 -131.5 Q 358 -155 358 -180 L 358 -236 L 269 -236 Q 254 -236 238.5 -234.5 Q 223 -233 208.5 -229.5 Q 194 -226 180 -219.5 Q 166 -213 155 -203 Q 144 -193 139 -178.5 Q 134 -164 134 -149 Q 134 -131 141 -113 Q 148 -95 162 -83 Q 176 -71 194.5 -66.5 Q 213 -62 232 -62 Z M 291 -611 L 291 -729 L 409 -729 L 409 -611 Z M 91 -611 L 91 -729 L 209 -729 L 209 -611 Z " id="path3"/>
<path d="M 250 8 Q 223 8 196 2.5 Q 169 -3 146 -16 Q 123 -29 104.5 -49.5 Q 86 -70 75 -94.5 Q 64 -119 60 -146 Q 56 -173 56 -200 L 56 -320 Q 56 -347 60 -374 Q 64 -401 75 -425.5 Q 86 -450 104.5 -470.5 Q 123 -491 146 -504 Q 169 -517 196 -522.5 Q 223 -528 250 -528 Q 277 -528 304 -522.5 Q 331 -517 354 -504 Q 377 -491 395.5 -470.5 Q 414 -450 425 -425.5 Q 436 -401 440 -374 Q 444 -347 444 -320 L 444 -200 Q 444 -173 440 -146 Q 436 -119 425 -94.5 Q 414 -70 395.5 -49.5 Q 377 -29 354 -16 Q 331 -3 304 2.5 Q 277 8 250 8 Z M 250 -62 Q 267 -62 284 -66 Q 301 -70 315 -79.5 Q 329 -89 339.5 -103 Q 350 -117 356 -133 Q 362 -149 364 -166 Q 366 -183 366 -200 L 366 -320 Q 366 -337 364 -354 Q 362 -371 356 -387 Q 350 -403 339.5 -417 Q 329 -431 315 -440.5 Q 301 -450 284 -454 Q 267 -458 250 -458 Q 233 -458 216 -454 Q 199 -450 185 -440.5 Q 171 -431 160.5 -417 Q 150 -403 144 -387 Q 138 -371 136 -354 Q 134 -337 134 -320 L 134 -200 Q 134 -183 136 -166 Q 138 -149 144 -133 Q 150 -117 160.5 -103 Q 171 -89 185 -79.5 Q 199 -70 216 -66 Q 233 -62 250 -62 Z M 291 -611 L 291 -729 L 409 -729 L 409 -611 Z M 91 -611 L 91 -729 L 209 -729 L 209 -611 Z " id="path4"/>
<path d="M 220 8 Q 195 8 171 1 Q 147 -6 128.5 -21.5 Q 110 -37 97 -58.5 Q 84 -80 76.5 -103.5 Q 69 -127 66.5 -151.5 Q 64 -176 64 -200 L 64 -520 L 142 -520 L 142 -200 Q 142 -183 144 -166.5 Q 146 -150 151 -134.5 Q 156 -119 165.5 -105 Q 175 -91 188 -81 Q 201 -71 217 -66.5 Q 233 -62 250 -62 Q 267 -62 283 -66.5 Q 299 -71 312 -81 Q 325 -91 334.5 -105 Q 344 -119 349 -134.5 Q 354 -150 356 -166.5 Q 358 -183 358 -200 L 358 -520 L 436 -520 L 436 0 L 358 0 L 358 -91 Q 350 -70 337 -51 Q 324 -32 305.5 -18 Q 287 -4 264.5 2 Q 242 8 220 8 Z M 291 -611 L 291 -729 L 409 -729 L 409 -611 Z M 91 -611 L 91 -729 L 209 -729 L 209 -611 Z " id="path5"/>
</defs>
<g>
<g data-source-text="i" fill="#20242e" transform="translate(40 104.99201) rotate(0) scale(0.09599999)">
<use href="#path1" transform="translate(0 0)"/>
</g>
</g>
<g>
<g data-source-text="j" fill="#20242e" transform="translate(168 104.99201) rotate(0) scale(0.09599999)">
<use href="#path2" transform="translate(0 0)"/>
</g>
</g>
<g>
<g data-source-text="ä" fill="#20242e" transform="translate(296 104.99201) rotate(0) scale(0.09599999)">
<use href="#path3" transform="translate(0 0)"/>
</g>
</g>
<g>
<g data-source-text="ö" fill="#20242e" transform="translate(424 104.99201) rotate(0) scale(0.09599999)">
<use href="#path4" transform="translate(0 0)"/>
</g>
</g>
<g>
<g data-source-text="ü" fill="#20242e" transform="translate(552 104.99201) rotate(0) scale(0.09599999)">
<use href="#path5" transform="translate(0 0)"/>
</g>
</g>
</svg>