<?xml version="1.0" encoding="UTF-8" standalone="no"?>
<svg xmlns="http://www.w3.org/2000/svg" height="160" viewBox="0 0 128 160" width="128"><defs><path d="M 211 0 L 211 -82 Q 179 -86 149 -99 Q 119 -112 97.5 -135.5 Q 76 -159 65 -190 Q 54 -221 54 -253 Q 54 -256 54 -258 Q 54 -260 54 -262 L 132 -262 Q 132 -261 132 -259.5 Q 132 -258 132 -257 Q 132 -234 140.5 -213 Q 149 -192 166 -177 Q 183 -162 205 -156 Q 227 -150 249 -150 Q 269 -150 288.5 -153 Q 308 -156 325.5 -165.5 Q 343 -175 354.5 -191.5 Q 366 -208 366 -228 Q 366 -247 357 -263.5 Q 348 -280 333.5 -291.5 Q 319 -303 301.5 -310.5 Q 284 -318 266.5 -323 Q 249 -328 231 -333 Q 213 -338 195.5 -345 Q 178 -352 161.5 -361 Q 145 -370 130.5 -381 Q 116 -392 103.5 -406 Q 91 -420 82 -436.5 Q 73 -453 68.5 -471 Q 64 -489 64 -508 Q 64 -536 75.5 -563 Q 87 -590 108 -609.5 Q 129 -629 156 -639 Q 183 -649 211 -653 L 211 -735 L 289 -735 L 289 -653 Q 320 -649 348.5 -635.5 Q 377 -622 397.5 -598.5 Q 418 -575 428 -544.5 Q 438 -514 438 -483 Q 438 -481 438 -479 Q 438 -477 438 -475 L 360 -475 Q 360 -476 360 -477.5 Q 360 -479 360 -480 Q 360 -501 352.5 -522 Q 345 -543 329.5 -557.5 Q 314 -572 293 -578.5 Q 272 -585 251 -585 Q 232 -585 213.5 -581.5 Q 195 -578 178.5 -568.5 Q 162 -559 152 -542.5 Q 142 -526 142 -507 Q 142 -489 151 -472 Q 160 -455 174.5 -443.5 Q 189 -432 206 -424.5 Q 223 -417 241 -412 Q 259 -407 277 -402 Q 295 -397 312 -390 Q 329 -383 345.5 -374.5 Q 362 -366 377 -354.5 Q 392 -343 404.5 -329 Q 417 -315 425.5 -299 Q 434 -283 439 -264.5 Q 444 -246 444 -228 Q 444 -198 431.5 -170.5 Q 419 -143 396.5 -124 Q 374 -105 346 -95 Q 318 -85 289 -82 L 289 0 Z " id="path1"/></defs><g><g data-source-text="$" fill="#20242e" transform="translate(40 104.99201) rotate(0) scale(0.09599999)"><use href="#path1" transform="translate(0 0)"/></g></g></svg>