<?xml version="1.0" encoding="UTF-8" standalone="no"?>
<svg xmlns="http://www.w3.org/2000/svg" height="160" viewBox="0 0 128 160" width="128"><defs><path d="M 211 0 L 211 -82 Q 179 -86 149 -99 Q 119 -112 97.5 -135.5 Q 76 -159 65 -190 Q 54 -221 54 -253 Q 54 -256 54 -258 Q 54 -260 54 -262 L 132 -262 Q 132 -261 132 -259.5 Q 132 -258 132 -257 Q 132 -238 137.5 -220 Q 143 -202 155 -187.5 Q 167 -173 184 -164 Q 201 -155 220 -152 L 220 -337 Q 190 -346 162 -360.5 Q 134 -375 112 -397 Q 90 -419 77 -448 Q 64 -477 64 -508 Q 64 -536 75.5 -563 Q 87 -590 108 -609.5 Q 129 -629 156 -639 Q 183 -649 211 -653 L 211 -735 L 289 -735 L 289 -653 Q 320 -649 348.5 -635.5 Q 377 -622 397.5 -598.5 Q 418 -575 428 -544.5 Q 438 -514 438 -483 Q 438 -481 438 -479 Q 438 -477 438 -475 L 360 -475 Q 360 -476 360 -477.5 Q 360 -479 360 -480 Q 360 -498 355 -515 Q 350 -532 339.5 -546.5 Q 329 -561 313.5 -570 Q 298 -579 280 -582 L 280 -401 Q 311 -392 340 -377.5 Q 369 -363 392.5 -341 Q 416 -319 430 -289.5 Q 444 -260 444 -228 Q 444 -198 431.5 -170.5 Q 419 -143 396.5 -124 Q 374 -105 346 -95 Q 318 -85 289 -82 L 289 0 Z M 220 -419 L 220 -583 Q 205 -580 191 -574.5 Q 177 -569 165.5 -559.5 Q 154 -550 148 -536 Q 142 -522 142 -507 Q 142 -492 148.5 -477 Q 155 -462 166 -451 Q 177 -440 191 -432 Q 205 -424 220 -419 Z M 280 -152 Q 296 -154 311 -159 Q 326 -164 338.5 -173.5 Q 351 -183 358.5 -197.5 Q 366 -212 366 -228 Q 366 -245 358.5 -260.5 Q 351 -276 339 -287 Q 327 -298 311.5 -305.5 Q 296 -313 280 -319 Z " id="path1"/></defs><g><g data-source-text="$" fill="#20242e" transform="translate(40 104.99201) rotate(0) scale(0.09599999)"><use href="#path1" transform="translate(0 0)"/></g></g></svg>