<svg xmlns="http://www.w3.org/2000/svg" height="160" viewBox="0 0 128 160" width="128"><defs><path d="M 211.00002 107.00001 L 211.00002 -31.000002 C 189.66667 -33 169 -38.5 149 -47.5 C 128.99998 -56.5 111.83333 -68.833336 97.5 -84.50001 C 83.166664 -100.16667 72.333336 -118.333336 65.00001 -139 C 57.66667 -159.66666 54 -180.66667 54 -202.00002 C 54 -203.33333 54 -204.5 54 -205.50002 C 54 -206.5 54 -207.33333 54 -208.00002 L 132 -208.00002 C 132 -207.33333 132 -206.83333 132 -206.5 C 132 -206.16667 132 -205.66667 132 -205.00002 C 132 -192.33334 133.83333 -180.00002 137.5 -168.00002 C 141.16667 -156 147 -145.16667 155 -135.50002 C 163 -125.833336 172.66666 -118.16667 184 -112.50001 C 195.33333 -106.833336 207.33333 -103 220.00002 -101.00001 L 220.00002 -338.00003 C 199.33334 -346.66666 179.50002 -356.8333 160.5 -368.5 C 141.5 -380.16666 124.666664 -394.1667 110.00001 -410.50003 C 95.33333 -426.83337 83.99999 -445.50003 76 -466.50003 C 68 -487.5 64 -509 64 -531.00006 C 64 -551.6667 67.16667 -572.1667 73.50001 -592.5 C 79.833336 -612.8334 89.666664 -631 103.00001 -647 C 116.333336 -662.99994 132.5 -675.6667 151.5 -685.00006 C 170.5 -694.33344 190.33333 -700.6667 211.00002 -704 L 211.00002 -843.00006 L 289 -843.00006 L 289 -704 C 309.6667 -701.3333 329.5 -695.5 348.50003 -686.5 C 367.5 -677.5 383.83334 -665.1667 397.5 -649.50006 C 411.1667 -633.8334 421.3333 -615.8333 428.00003 -595.5 C 434.66666 -575.1667 437.99997 -554.6667 438.00003 -534 C 437.99997 -533.3333 437.99997 -532.49994 438.00003 -531.50006 C 437.99997 -530.50006 437.99997 -529.3333 438.00003 -528 L 360.00003 -528 C 360 -528.6667 360 -529.3334 360.00003 -530 C 360 -530.6667 360 -531.3333 360.00003 -532 C 360 -543.3333 358.33337 -554.8334 355.00003 -566.5 C 351.66666 -578.1667 346.5 -588.6666 339.5 -598 C 332.5 -607.3333 323.8333 -615 313.50003 -621.00006 C 303.1667 -627 292 -631.3333 280.00003 -634.00006 L 280.00003 -400.00003 C 301.33334 -391.33334 322 -381.33337 342.00003 -370.00003 C 362 -358.66666 379.6667 -344.66666 395.00003 -328.00003 C 410.3333 -311.3333 422.33334 -292.16666 431 -270.5 C 439.6667 -248.83333 444.00003 -226.66666 444.00003 -204 C 444.00003 -182.66667 440.5 -161.66667 433.50003 -141 C 426.50003 -120.333336 415.8333 -102.16668 401.5 -86.5 C 387.16666 -70.833336 370.16663 -58.33333 350.5 -49 C 330.8333 -39.666668 310.33334 -33.666668 289 -31.000002 L 289 107.00001 Z M 220.00002 -424 L 220.00002 -633.00006 C 208.66667 -631 197.83334 -626.8333 187.5 -620.5 C 177.16667 -614.1667 168.66669 -606.3334 162 -597 C 155.33333 -587.6667 150.16667 -577.3334 146.5 -566.00006 C 142.83334 -554.6667 141 -543 141 -531.00006 C 141 -519.6667 143 -508.33337 147.00002 -497.00003 C 151 -485.6667 156.66666 -475.33334 164.00002 -466 C 171.33331 -456.6667 179.83334 -448.5 189.5 -441.5 C 199.16666 -434.5 209.33333 -428.66666 220.00002 -424 Z M 280.00003 -101.00001 C 292 -103.666664 303.5 -107.83333 314.5 -113.5 C 325.50003 -119.166664 335 -126.66667 343.00003 -136 C 351 -145.33333 357 -156 361.00003 -168.00002 C 364.99997 -180.00002 366.99997 -192 367 -204 C 366.99997 -216.66667 364.66663 -228.83333 360.00003 -240.5 C 355.33334 -252.16667 349 -262.8333 341 -272.5 C 333 -282.16666 323.66666 -290.3333 313 -297.00003 C 302.33334 -303.6667 291.33334 -309.66666 280.00003 -315 Z " id="path1"/></defs><g><g fill="#ffffff" transform="translate(40 105.20961) rotate(0)"><use href="#path1" transform="translate(0 0) scale(0.09599999)"/></g></g></svg>