<?xml version="1.0" encoding="UTF-8" standalone="no"?>
<svg height="160" viewBox="0 0 128 160" width="128" xmlns="http://www.w3.org/2000/svg">
<defs>
<path d="M 184 107 L 193 -34 Q 163 -40 136 -55 Q 109 -70 90.5 -94 Q 72 -118 63 -147.5 Q 54 -177 54 -207 L 54 -217 L 132 -217 L 132 -211 Q 132 -194 136 -177.5 Q 140 -161 149 -146.5 Q 158 -132 172 -121.5 Q 186 -111 202 -106 L 217 -340 Q 187 -354 159.5 -372.5 Q 132 -391 110.5 -416 Q 89 -441 76.5 -472 Q 64 -503 64 -536 Q 64 -570 76 -602.5 Q 88 -635 112 -658.5 Q 136 -682 168.5 -693.5 Q 201 -705 235 -706 L 244 -843 L 316 -843 L 307 -701 Q 336 -694 361.5 -678.5 Q 387 -663 404.5 -639 Q 422 -615 430 -586 Q 438 -557 438 -528 L 438 -518 L 360 -518 L 360 -524 Q 360 -540 356.5 -556 Q 353 -572 345 -586 Q 337 -600 325 -611 Q 313 -622 298 -628 L 284 -398 Q 315 -384 343.5 -366 Q 372 -348 395 -322.5 Q 418 -297 431 -265 Q 444 -233 444 -199 Q 444 -176 438 -153.5 Q 432 -131 420.5 -111 Q 409 -91 392 -75.5 Q 375 -60 354 -50 Q 333 -40 310.5 -35 Q 288 -30 265 -29 L 256 107 Z M 222 -426 L 235 -636 Q 216 -634 198 -626.5 Q 180 -619 167 -605 Q 154 -591 147.5 -573 Q 141 -555 141 -536 Q 141 -518 147.5 -500.5 Q 154 -483 165 -469 Q 176 -455 191 -444.5 Q 206 -434 222 -426 Z M 265 -99 Q 285 -101 304 -107.5 Q 323 -114 337.5 -128 Q 352 -142 359.5 -161 Q 367 -180 367 -200 Q 367 -219 359.5 -237 Q 352 -255 339.5 -269.5 Q 327 -284 311 -294.5 Q 295 -305 278 -313 Z " id="path1"/>
</defs>
<g>
<g data-source-text="$" fill="#20242e" transform="translate(40 104.99201) rotate(0) scale(0.09599999)">
<use href="#path1" transform="translate(0 0)"/>
</g>
</g>
</svg>