<?xml version="1.0" encoding="UTF-8" standalone="no"?>
<svg height="160" viewBox="0 0 1280 160" width="1280" xmlns="http://www.w3.org/2000/svg">
<defs>
<path d="M 250 8 Q 223 8 196 2.5 Q 169 -3 146 -16 Q 123 -29 104.5 -49.5 Q 86 -70 75 -94.5 Q 64 -119 60 -146 Q 56 -173 56 -200 L 56 -535 Q 56 -562 60 -589 Q 64 -616 75 -640.5 Q 86 -665 104.5 -685.5 Q 123 -706 146 -719 Q 169 -732 196 -737.5 Q 223 -743 250 -743 Q 277 -743 304 -737.5 Q 331 -732 354 -719 Q 377 -706 395.5 -685.5 Q 414 -665 425 -640.5 Q 436 -616 440 -589 Q 444 -562 444 -535 L 444 -200 Q 444 -173 440 -146 Q 436 -119 425 -94.5 Q 414 -70 395.5 -49.5 Q 377 -29 354 -16 Q 331 -3 304 2.5 Q 277 8 250 8 Z M 134 -318 L 366 -503 L 366 -535 Q 366 -552 364 -569 Q 362 -586 356 -602 Q 350 -618 339.5 -632 Q 329 -646 315 -655.5 Q 301 -665 284 -669 Q 267 -673 250 -673 Q 233 -673 216 -669 Q 199 -665 185 -655.5 Q 171 -646 160.5 -632 Q 150 -618 144 -602 Q 138 -586 136 -569 Q 134 -552 134 -535 Z M 250 -62 Q 267 -62 284 -66 Q 301 -70 315 -79.5 Q 329 -89 339.5 -103 Q 350 -117 356 -133 Q 362 -149 364 -166 Q 366 -183 366 -200 L 366 -417 L 134 -232 L 134 -200 Q 134 -183 136 -166 Q 138 -149 144 -133 Q 150 -117 160.5 -103 Q 171 -89 185 -79.5 Q 199 -70 216 -66 Q 233 -62 250 -62 Z " id="path1"/>
<path d="M 241 0 L 241 -646 L 103 -546 L 58 -603 L 241 -735 L 319 -735 L 319 0 Z " id="path2"/>
<path d="M 64 0 L 64 -1 Q 64 -28 65 -55 Q 66 -82 70.5 -109 Q 75 -136 83.5 -162 Q 92 -188 104.5 -211.5 Q 117 -235 133.5 -257 Q 150 -279 169.5 -298 Q 189 -317 210 -333.5 Q 231 -350 253 -366 Q 275 -382 296 -399.5 Q 317 -417 332 -439.5 Q 347 -462 354.5 -488.5 Q 362 -515 362 -542 Q 362 -566 356.5 -590.5 Q 351 -615 336.5 -634.5 Q 322 -654 298.5 -663.5 Q 275 -673 251 -673 Q 229 -673 207 -666 Q 185 -659 169.5 -643 Q 154 -627 147 -605.5 Q 140 -584 140 -561 L 140 -560 L 62 -560 L 62 -563 Q 62 -587 67.5 -611.5 Q 73 -636 85 -657.5 Q 97 -679 115 -696 Q 133 -713 155 -724 Q 177 -735 201.5 -739 Q 226 -743 251 -743 Q 277 -743 303 -738 Q 329 -733 352 -720 Q 375 -707 392.5 -687.5 Q 410 -668 421 -644 Q 432 -620 436 -594 Q 440 -568 440 -542 Q 440 -506 429.5 -470.5 Q 419 -435 398.5 -405.5 Q 378 -376 350.5 -352.5 Q 323 -329 294.5 -306.5 Q 266 -284 239 -259.5 Q 212 -235 192 -205 Q 172 -175 160 -140.5 Q 148 -106 144 -70 L 436 -70 L 436 0 Z " id="path3"/>
<path d="M 253 8 Q 227 8 201.5 4 Q 176 0 153 -11 Q 130 -22 111 -39.5 Q 92 -57 79 -79 Q 66 -101 60 -126.5 Q 54 -152 54 -177 L 54 -178 L 132 -178 Q 132 -154 140.5 -131 Q 149 -108 166 -92 Q 183 -76 206 -69 Q 229 -62 253 -62 Q 278 -62 302.5 -71 Q 327 -80 343.5 -99.5 Q 360 -119 367 -144 Q 374 -169 374 -195 Q 374 -216 369.5 -236.5 Q 365 -257 355 -275.5 Q 345 -294 329.5 -308.5 Q 314 -323 295 -331.5 Q 276 -340 255 -342.5 Q 234 -345 213 -345 L 213 -415 Q 232 -415 251 -417 Q 270 -419 287.5 -426.5 Q 305 -434 319 -447.5 Q 333 -461 341.5 -478 Q 350 -495 354 -514 Q 358 -533 358 -552 Q 358 -574 352.5 -596.5 Q 347 -619 333 -637 Q 319 -655 297.5 -664 Q 276 -673 253 -673 Q 231 -673 210.5 -665.5 Q 190 -658 175.5 -642 Q 161 -626 154.5 -605 Q 148 -584 148 -562 L 148 -560 L 70 -560 L 70 -563 Q 70 -587 75.5 -611 Q 81 -635 92 -656.5 Q 103 -678 120.5 -695.5 Q 138 -713 159.5 -723.5 Q 181 -734 205 -738.5 Q 229 -743 253 -743 Q 278 -743 302.5 -738 Q 327 -733 348.5 -721.5 Q 370 -710 387 -691.5 Q 404 -673 415 -650.5 Q 426 -628 431 -603.5 Q 436 -579 436 -554 Q 436 -527 429.5 -501 Q 423 -475 410 -451.5 Q 397 -428 376.5 -410 Q 356 -392 332 -381 Q 359 -370 382.5 -350.5 Q 406 -331 421.5 -306 Q 437 -281 444.5 -251.5 Q 452 -222 452 -193 Q 452 -166 446.5 -139.5 Q 441 -113 429 -89.5 Q 417 -66 398 -46.5 Q 379 -27 355.5 -14.5 Q 332 -2 305.5 3 Q 279 8 253 8 Z " id="path4"/>
<path d="M 294 0 L 294 -194 L 56 -194 L 56 -264 L 290 -735 L 375 -735 L 141 -264 L 294 -264 L 294 -444 L 372 -444 L 372 -264 L 436 -264 L 436 -194 L 372 -194 L 372 0 Z " id="path5"/>
<path d="M 252 8 Q 228 8 204 3.5 Q 180 -1 159 -12 Q 138 -23 120.5 -40 Q 103 -57 91 -78 Q 79 -99 72.5 -122 Q 66 -145 63 -169 L 63 -174 L 141 -174 L 141 -170 Q 144 -149 152 -128.5 Q 160 -108 174.5 -92.5 Q 189 -77 209.5 -69.5 Q 230 -62 252 -62 Q 271 -62 289.5 -69 Q 308 -76 322 -90 Q 336 -104 344.5 -121.5 Q 353 -139 358 -158 Q 363 -177 364.5 -196.5 Q 366 -216 366 -235 Q 366 -255 364.5 -274 Q 363 -293 358.5 -312 Q 354 -331 345.5 -348.5 Q 337 -366 323.5 -380 Q 310 -394 292 -401 Q 274 -408 254 -408 Q 234 -408 214 -401.5 Q 194 -395 179.5 -380.5 Q 165 -366 157.5 -346 Q 150 -326 149 -305 L 71 -305 L 71 -735 L 417 -735 L 417 -665 L 149 -665 L 149 -451 Q 172 -466 199.5 -472 Q 227 -478 254 -478 Q 283 -478 311.5 -470.5 Q 340 -463 363.5 -445 Q 387 -427 403 -402.5 Q 419 -378 428 -350.5 Q 437 -323 440.5 -293.5 Q 444 -264 444 -235 Q 444 -206 440.5 -176.5 Q 437 -147 427.5 -119.5 Q 418 -92 401.5 -67 Q 385 -42 361.5 -24.5 Q 338 -7 309.5 0.5 Q 281 8 252 8 Z " id="path6"/>
<path d="M 250 8 Q 220 8 191 0 Q 162 -8 138.5 -26 Q 115 -44 98.5 -69.5 Q 82 -95 72.5 -123 Q 63 -151 59.5 -181 Q 56 -211 56 -241 Q 56 -284 65 -326 Q 74 -368 89.5 -408.5 Q 105 -449 124 -487.5 Q 143 -526 163 -564 L 248 -735 L 334 -735 L 232 -533 Q 220 -509 207.5 -485.5 Q 195 -462 181 -439 L 181 -438 Q 180 -437 179.5 -436 Q 179 -435 178 -433 Q 196 -441 214.5 -444 Q 233 -447 252 -447 Q 280 -447 308 -440.5 Q 336 -434 359 -418 Q 382 -402 399 -379 Q 416 -356 426.5 -330 Q 437 -304 440.5 -276 Q 444 -248 444 -220 Q 444 -191 440 -163 Q 436 -135 426 -108.5 Q 416 -82 398.5 -59 Q 381 -36 357.5 -20.5 Q 334 -5 306 1.5 Q 278 8 250 8 Z M 250 -62 Q 268 -62 286 -67.5 Q 304 -73 318.5 -85 Q 333 -97 342.5 -113 Q 352 -129 357 -146.5 Q 362 -164 364 -182.5 Q 366 -201 366 -220 Q 366 -238 364 -256.5 Q 362 -275 357 -292.5 Q 352 -310 342.5 -326 Q 333 -342 319 -354 Q 305 -366 287 -371.5 Q 269 -377 250 -377 Q 232 -377 214 -371.5 Q 196 -366 182 -354.5 Q 168 -343 158.5 -326.5 Q 149 -310 143.5 -292.5 Q 138 -275 136 -256.5 Q 134 -238 134 -220 Q 134 -201 136 -182.5 Q 138 -164 143 -146.5 Q 148 -129 157.5 -113 Q 167 -97 181.5 -85 Q 196 -73 214 -67.5 Q 232 -62 250 -62 Z " id="path7"/>
<path d="M 146 0 L 355 -665 L 64 -665 L 64 -735 L 436 -735 L 436 -665 L 226 0 Z " id="path8"/>
<path d="M 250 8 Q 226 8 201.5 4.5 Q 177 1 154.5 -9 Q 132 -19 113 -35 Q 94 -51 81 -71.5 Q 68 -92 62 -116 Q 56 -140 56 -165 Q 56 -197 67 -228.5 Q 78 -260 96.5 -286.5 Q 115 -313 139 -335 Q 163 -357 189 -377 Q 165 -396 143.5 -417 Q 122 -438 106 -463.5 Q 90 -489 80.5 -518 Q 71 -547 71 -577 Q 71 -600 77 -622.5 Q 83 -645 94 -665 Q 105 -685 122.5 -700.5 Q 140 -716 160.5 -726 Q 181 -736 204 -739.5 Q 227 -743 250 -743 Q 273 -743 296 -739.5 Q 319 -736 339.5 -726 Q 360 -716 377.5 -700.5 Q 395 -685 406 -665 Q 417 -645 423 -622.5 Q 429 -600 429 -577 Q 429 -547 419.5 -518 Q 410 -489 394 -463.5 Q 378 -438 356.5 -417 Q 335 -396 311 -377 Q 337 -357 361 -335 Q 385 -313 403.5 -286.5 Q 422 -260 433 -228.5 Q 444 -197 444 -165 Q 444 -140 438 -116 Q 432 -92 419 -71.5 Q 406 -51 387 -35 Q 368 -19 345.5 -9 Q 323 1 298.5 4.5 Q 274 8 250 8 Z M 250 -421 Q 269 -436 287 -452 Q 305 -468 319 -487 Q 333 -506 342 -529 Q 351 -552 351 -576 Q 351 -595 344 -614.5 Q 337 -634 323 -647.5 Q 309 -661 289.5 -667 Q 270 -673 250 -673 Q 230 -673 210.5 -667 Q 191 -661 177 -647.5 Q 163 -634 156 -614.5 Q 149 -595 149 -576 Q 149 -552 158 -529 Q 167 -506 181 -487 Q 195 -468 213 -452 Q 231 -436 250 -421 Z M 250 -62 Q 272 -62 294 -67.5 Q 316 -73 332.5 -87.5 Q 349 -102 357.5 -123 Q 366 -144 366 -166 Q 366 -193 355.5 -217.5 Q 345 -242 328.5 -262.5 Q 312 -283 291.5 -300 Q 271 -317 250 -332 Q 229 -317 208.5 -300 Q 188 -283 171.5 -262.5 Q 155 -242 144.5 -217.5 Q 134 -193 134 -166 Q 134 -144 142.5 -123 Q 151 -102 167.5 -87.5 Q 184 -73 206 -67.5 Q 228 -62 250 -62 Z " id="path9"/>
<path d="M 252 0 L 166 0 L 268 -202 Q 280 -226 292.5 -249.5 Q 305 -273 319 -296 L 319 -297 Q 320 -298 320.5 -299 Q 321 -300 322 -302 Q 304 -294 285.5 -291 Q 267 -288 248 -288 Q 220 -288 192 -294.5 Q 164 -301 141 -317 Q 118 -333 101 -356 Q 84 -379 73.5 -405 Q 63 -431 59.5 -459 Q 56 -487 56 -515 Q 56 -544 60 -572 Q 64 -600 74 -626.5 Q 84 -653 101.5 -676 Q 119 -699 142.5 -714.5 Q 166 -730 194 -736.5 Q 222 -743 250 -743 Q 280 -743 309 -735 Q 338 -727 361.5 -709 Q 385 -691 401.5 -665.5 Q 418 -640 427.5 -612 Q 437 -584 440.5 -554 Q 444 -524 444 -494 Q 444 -451 435 -409 Q 426 -367 410.5 -326.5 Q 395 -286 376 -247.5 Q 357 -209 337 -171 Z M 250 -358 Q 268 -358 286 -363.5 Q 304 -369 318 -380.5 Q 332 -392 341.5 -408.5 Q 351 -425 356.5 -442.5 Q 362 -460 364 -478.5 Q 366 -497 366 -515 Q 366 -534 364 -552.5 Q 362 -571 357 -588.5 Q 352 -606 342.5 -622 Q 333 -638 318.5 -650 Q 304 -662 286 -667.5 Q 268 -673 250 -673 Q 232 -673 214 -667.5 Q 196 -662 181.5 -650 Q 167 -638 157.5 -622 Q 148 -606 143 -588.5 Q 138 -571 136 -552.5 Q 134 -534 134 -515 Q 134 -497 136 -478.5 Q 138 -460 143 -442.5 Q 148 -425 157.5 -409 Q 167 -393 181 -381 Q 195 -369 213 -363.5 Q 231 -358 250 -358 Z " id="path10"/>
</defs>
<g>
<g data-source-text="0" fill="#dee4e3" transform="translate(40 104.99201) rotate(0) scale(0.09599999)">
<use href="#path1" transform="translate(0 0)"/>
</g>
</g>
<g>
<g data-source-text="1" fill="#dee4e3" transform="translate(168 104.99201) rotate(0) scale(0.09599999)">
<use href="#path2" transform="translate(0 0)"/>
</g>
</g>
<g>
<g data-source-text="2" fill="#dee4e3" transform="translate(296 104.99201) rotate(0) scale(0.09599999)">
<use href="#path3" transform="translate(0 0)"/>
</g>
</g>
<g>
<g data-source-text="3" fill="#dee4e3" transform="translate(424 104.99201) rotate(0) scale(0.09599999)">
<use href="#path4" transform="translate(0 0)"/>
</g>
</g>
<g>
<g data-source-text="4" fill="#dee4e3" transform="translate(552 104.99201) rotate(0) scale(0.09599999)">
<use href="#path5" transform="translate(0 0)"/>
</g>
</g>
<g>
<g data-source-text="5" fill="#dee4e3" transform="translate(680 104.99201) rotate(0) scale(0.09599999)">
<use href="#path6" transform="translate(0 0)"/>
</g>
</g>
<g>
<g data-source-text="6" fill="#dee4e3" transform="translate(808 104.99201) rotate(0) scale(0.09599999)">
<use href="#path7" transform="translate(0 0)"/>
</g>
</g>
<g>
<g data-source-text="7" fill="#dee4e3" transform="translate(936 104.99201) rotate(0) scale(0.09599999)">
<use href="#path8" transform="translate(0 0)"/>
</g>
</g>
<g>
<g data-source-text="8" fill="#dee4e3" transform="translate(1064 104.99201) rotate(0) scale(0.09599999)">
<use href="#path9" transform="translate(0 0)"/>
</g>
</g>
<g>
<g data-source-text="9" fill="#dee4e3" transform="translate(1192 104.99201) rotate(0) scale(0.09599999)">
<use href="#path10" transform="translate(0 0)"/>
</g>
</g>
</svg>