<?xml version="1.0" encoding="UTF-8" standalone="no"?>
<svg height="160" viewBox="0 0 128 160" width="128" xmlns="http://www.w3.org/2000/svg">
<defs>
<path d="M 181 0 L 188 -86 Q 159 -93 133 -108.5 Q 107 -124 89 -147.5 Q 71 -171 62.5 -200 Q 54 -229 54 -259 L 54 -268 L 132 -268 L 132 -262 Q 132 -239 140 -217 Q 148 -195 164.5 -179 Q 181 -163 203.5 -156.5 Q 226 -150 249 -150 Q 269 -150 289 -153.5 Q 309 -157 326 -166.5 Q 343 -176 355 -193 Q 367 -210 367 -230 Q 367 -248 357 -264 Q 347 -280 332 -291 Q 317 -302 300 -309 Q 283 -316 265.5 -322 Q 248 -328 230.5 -333.5 Q 213 -339 196.5 -346.5 Q 180 -354 163.5 -362.5 Q 147 -371 132.5 -382 Q 118 -393 105 -406.5 Q 92 -420 83 -436 Q 74 -452 69 -470 Q 64 -488 64 -506 Q 64 -527 70 -547.5 Q 76 -568 88 -585.5 Q 100 -603 116.5 -616 Q 133 -629 152.5 -637.5 Q 172 -646 192.5 -650 Q 213 -654 234 -655 L 241 -735 L 319 -735 L 312 -648 Q 340 -641 364.5 -625 Q 389 -609 405.5 -585.5 Q 422 -562 430 -533.5 Q 438 -505 438 -476 L 438 -467 L 360 -467 L 360 -473 Q 360 -495 353 -516.5 Q 346 -538 331 -554 Q 316 -570 294.5 -577.5 Q 273 -585 251 -585 Q 232 -585 213 -581.5 Q 194 -578 178 -568 Q 162 -558 151.5 -541.5 Q 141 -525 141 -506 Q 141 -487 151 -471 Q 161 -455 175.5 -444 Q 190 -433 207.5 -426 Q 225 -419 242 -413 Q 259 -407 276.5 -401.5 Q 294 -396 311 -388.5 Q 328 -381 344 -372.5 Q 360 -364 375 -353 Q 390 -342 402.5 -328.5 Q 415 -315 424.5 -299.5 Q 434 -284 439 -266 Q 444 -248 444 -229 Q 444 -208 437.5 -187 Q 431 -166 418.5 -148.5 Q 406 -131 388 -118 Q 370 -105 350 -97 Q 330 -89 308.5 -85 Q 287 -81 266 -80 L 259 0 Z " id="path1"/>
</defs>
<g>
<g data-source-text="$" fill="#20242e" transform="translate(40 104.99201) rotate(0) scale(0.09599999)">
<use href="#path1" transform="translate(0 0)"/>
</g>
</g>
</svg>