<?xml version="1.0" encoding="UTF-8" standalone="no"?>
<svg height="160" viewBox="0 0 1280 160" width="1280" xmlns="http://www.w3.org/2000/svg">
<defs>
<path d="M 250 8 Q 223 8 196 2.5 Q 169 -3 146 -16 Q 123 -29 104.5 -49.5 Q 86 -70 75 -94.5 Q 64 -119 60 -146 Q 56 -173 56 -200 L 56 -395 Q 56 -422 60 -449 Q 64 -476 75 -500.5 Q 86 -525 104.5 -545.5 Q 123 -566 146 -579.5 Q 169 -593 196 -598 Q 223 -603 250 -603 Q 277 -603 304 -598 Q 331 -593 354 -579.5 Q 377 -566 395.5 -545.5 Q 414 -525 425 -500.5 Q 436 -476 440 -449 Q 444 -422 444 -395 L 444 -200 Q 444 -173 440 -146 Q 436 -119 425 -94.5 Q 414 -70 395.5 -49.5 Q 377 -29 354 -16 Q 331 -3 304 2.5 Q 277 8 250 8 Z M 134 -263 L 366 -412 Q 365 -436 357.5 -458.5 Q 350 -481 334.5 -499 Q 319 -517 296.5 -525 Q 274 -533 250 -533 Q 233 -533 216 -529 Q 199 -525 185 -515.5 Q 171 -506 160.5 -492 Q 150 -478 144 -462 Q 138 -446 136 -429 Q 134 -412 134 -395 Z M 250 -62 Q 267 -62 284 -66 Q 301 -70 315 -79.5 Q 329 -89 339.5 -103 Q 350 -117 356 -133 Q 362 -149 364 -166 Q 366 -183 366 -200 L 366 -333 L 134 -183 Q 135 -160 142.5 -137 Q 150 -114 165.5 -96.5 Q 181 -79 203.5 -70.5 Q 226 -62 250 -62 Z " id="path1"/>
<path d="M 241 0 L 241 -516 L 92 -441 L 58 -503 L 241 -595 L 319 -595 L 319 0 Z " id="path2"/>
<path d="M 64 0 L 64 -1 Q 64 -25 65 -48.5 Q 66 -72 70.5 -95 Q 75 -118 84 -140 Q 93 -162 105.5 -181.5 Q 118 -201 134.5 -218 Q 151 -235 170 -249 Q 189 -263 210 -274.5 Q 231 -286 252 -296 Q 273 -306 293 -318.5 Q 313 -331 329 -348.5 Q 345 -366 353.5 -388.5 Q 362 -411 362 -434 Q 362 -455 354.5 -475.5 Q 347 -496 330.5 -509.5 Q 314 -523 293 -528 Q 272 -533 251 -533 Q 230 -533 209 -527.5 Q 188 -522 172 -508 Q 156 -494 148 -473.5 Q 140 -453 140 -432 L 140 -426 L 62 -426 L 62 -435 Q 62 -459 68 -482.5 Q 74 -506 86.5 -526 Q 99 -546 117.5 -561.5 Q 136 -577 158 -586.5 Q 180 -596 203.5 -599.5 Q 227 -603 251 -603 Q 275 -603 299 -599.5 Q 323 -596 345 -587 Q 367 -578 386 -562.5 Q 405 -547 417.5 -526.5 Q 430 -506 435 -482 Q 440 -458 440 -434 Q 440 -403 430.5 -373.5 Q 421 -344 402 -319.5 Q 383 -295 357.5 -277.5 Q 332 -260 305 -245 Q 278 -230 251.5 -214 Q 225 -198 203 -176.5 Q 181 -155 166 -127.5 Q 151 -100 146 -70 L 436 -70 L 436 0 Z " id="path3"/>
<path d="M 253 148 Q 227 148 201.5 143.5 Q 176 139 153 128.5 Q 130 118 111 100.5 Q 92 83 79 60.5 Q 66 38 60 13 Q 54 -12 54 -38 L 54 -39 L 132 -39 L 132 -38 Q 132 -14 140.5 8.5 Q 149 31 166 47.5 Q 183 64 206 71 Q 229 78 253 78 Q 278 78 302.5 68.5 Q 327 59 343.5 39.5 Q 360 20 367 -5 Q 374 -30 374 -55 Q 374 -76 369.5 -97 Q 365 -118 355 -136 Q 345 -154 329.5 -169 Q 314 -184 295 -192.5 Q 276 -201 255 -203 Q 234 -205 213 -205 L 213 -275 Q 232 -275 251 -277 Q 270 -279 287.5 -287 Q 305 -295 319 -308.5 Q 333 -322 341.5 -338.5 Q 350 -355 354 -374 Q 358 -393 358 -412 Q 358 -435 352.5 -457.5 Q 347 -480 333 -498 Q 319 -516 297.5 -524.5 Q 276 -533 253 -533 Q 231 -533 210.5 -526 Q 190 -519 175.5 -502.5 Q 161 -486 154.5 -465 Q 148 -444 148 -422 L 148 -420 L 70 -420 L 70 -424 Q 70 -448 75.5 -471.5 Q 81 -495 92 -516.5 Q 103 -538 120.5 -555.5 Q 138 -573 159.5 -584 Q 181 -595 205 -599 Q 229 -603 253 -603 Q 278 -603 302.5 -598.5 Q 327 -594 348.5 -582 Q 370 -570 387 -551.5 Q 404 -533 415 -510.5 Q 426 -488 431 -463.5 Q 436 -439 436 -414 Q 436 -388 429.5 -361.5 Q 423 -335 410 -312 Q 397 -289 376.5 -270.5 Q 356 -252 332 -241 Q 359 -230 382.5 -211 Q 406 -192 421.5 -166.5 Q 437 -141 444.5 -112 Q 452 -83 452 -53 Q 452 -26 446.5 0 Q 441 26 429 50 Q 417 74 398 93.5 Q 379 113 355.5 125.5 Q 332 138 305.5 143 Q 279 148 253 148 Z " id="path4"/>
<path d="M 294 140 L 294 -55 L 56 -55 L 56 -125 L 290 -595 L 375 -595 L 141 -125 L 294 -125 L 294 -304 L 372 -304 L 372 -125 L 436 -125 L 436 -55 L 372 -55 L 372 140 Z " id="path5"/>
<path d="M 252 148 Q 228 148 204 143.5 Q 180 139 159 128 Q 138 117 120.5 99.5 Q 103 82 91 61.5 Q 79 41 72.5 17.5 Q 66 -6 63 -30 L 63 -35 L 141 -35 L 141 -30 Q 144 -9 152 11 Q 160 31 174.5 47 Q 189 63 209.5 70.5 Q 230 78 252 78 Q 271 78 289.5 71 Q 308 64 322 50 Q 336 36 344.5 18 Q 353 0 358 -18.5 Q 363 -37 364.5 -56.5 Q 366 -76 366 -96 Q 366 -115 364.5 -134.5 Q 363 -154 358.5 -172.5 Q 354 -191 345.5 -208.5 Q 337 -226 323.5 -240 Q 310 -254 292 -261.5 Q 274 -269 254 -269 Q 234 -269 214 -262 Q 194 -255 179.5 -240.5 Q 165 -226 157.5 -206 Q 150 -186 149 -166 L 71 -166 L 71 -595 L 417 -595 L 417 -525 L 149 -525 L 149 -312 Q 172 -327 199.5 -333 Q 227 -339 254 -339 Q 283 -339 311.5 -331 Q 340 -323 363.5 -305.5 Q 387 -288 403 -263 Q 419 -238 428 -210.5 Q 437 -183 440.5 -154 Q 444 -125 444 -96 Q 444 -66 440.5 -37 Q 437 -8 427.5 20 Q 418 48 401.5 72.5 Q 385 97 361.5 114.5 Q 338 132 309.5 140 Q 281 148 252 148 Z " id="path6"/>
<path d="M 250 8 Q 220 8 191 0 Q 162 -8 138.5 -26 Q 115 -44 98.5 -69.5 Q 82 -95 72.5 -123 Q 63 -151 59.5 -181 Q 56 -211 56 -241 Q 56 -284 65 -326 Q 74 -368 89.5 -408.5 Q 105 -449 124 -487.5 Q 143 -526 163 -564 L 248 -735 L 334 -735 L 232 -533 Q 220 -509 207.5 -485.5 Q 195 -462 181 -439 L 181 -438 Q 180 -437 179.5 -436 Q 179 -435 178 -433 Q 196 -441 214.5 -444 Q 233 -447 252 -447 Q 280 -447 308 -440.5 Q 336 -434 359 -418 Q 382 -402 399 -379 Q 416 -356 426.5 -330 Q 437 -304 440.5 -276 Q 444 -248 444 -220 Q 444 -191 440 -163 Q 436 -135 426 -108.5 Q 416 -82 398.5 -59 Q 381 -36 357.5 -20.5 Q 334 -5 306 1.5 Q 278 8 250 8 Z M 250 -62 Q 268 -62 286 -67.5 Q 304 -73 318.5 -85 Q 333 -97 342.5 -113 Q 352 -129 357 -146.5 Q 362 -164 364 -182.5 Q 366 -201 366 -220 Q 366 -238 364 -256.5 Q 362 -275 357 -292.5 Q 352 -310 342.5 -326 Q 333 -342 319 -354 Q 305 -366 287 -371.5 Q 269 -377 250 -377 Q 232 -377 214 -371.5 Q 196 -366 182 -354.5 Q 168 -343 158.5 -326.5 Q 149 -310 143.5 -292.5 Q 138 -275 136 -256.5 Q 134 -238 134 -220 Q 134 -201 136 -182.5 Q 138 -164 143 -146.5 Q 148 -129 157.5 -113 Q 167 -97 181.5 -85 Q 196 -73 214 -67.5 Q 232 -62 250 -62 Z " id="path7"/>
<path d="M 146 140 L 355 -525 L 64 -525 L 64 -595 L 436 -595 L 436 -525 L 226 140 Z " id="path8"/>
<path d="M 250 8 Q 226 8 201.5 4.5 Q 177 1 154.5 -9 Q 132 -19 113 -35 Q 94 -51 81 -71.5 Q 68 -92 62 -116 Q 56 -140 56 -165 Q 56 -197 67 -228.5 Q 78 -260 96.5 -286.5 Q 115 -313 139 -335 Q 163 -357 189 -377 Q 165 -396 143.5 -417 Q 122 -438 106 -463.5 Q 90 -489 80.5 -518 Q 71 -547 71 -577 Q 71 -600 77 -622.5 Q 83 -645 94 -665 Q 105 -685 122.5 -700.5 Q 140 -716 160.5 -726 Q 181 -736 204 -739.5 Q 227 -743 250 -743 Q 273 -743 296 -739.5 Q 319 -736 339.5 -726 Q 360 -716 377.5 -700.5 Q 395 -685 406 -665 Q 417 -645 423 -622.5 Q 429 -600 429 -577 Q 429 -547 419.5 -518 Q 410 -489 394 -463.5 Q 378 -438 356.5 -417 Q 335 -396 311 -377 Q 337 -357 361 -335 Q 385 -313 403.5 -286.5 Q 422 -260 433 -228.5 Q 444 -197 444 -165 Q 444 -140 438 -116 Q 432 -92 419 -71.5 Q 406 -51 387 -35 Q 368 -19 345.5 -9 Q 323 1 298.5 4.5 Q 274 8 250 8 Z M 250 -421 Q 269 -436 287 -452 Q 305 -468 319 -487 Q 333 -506 342 -529 Q 351 -552 351 -576 Q 351 -595 344 -614.5 Q 337 -634 323 -647.5 Q 309 -661 289.5 -667 Q 270 -673 250 -673 Q 230 -673 210.5 -667 Q 191 -661 177 -647.5 Q 163 -634 156 -614.5 Q 149 -595 149 -576 Q 149 -552 158 -529 Q 167 -506 181 -487 Q 195 -468 213 -452 Q 231 -436 250 -421 Z M 250 -62 Q 272 -62 294 -67.5 Q 316 -73 332.5 -87.5 Q 349 -102 357.5 -123 Q 366 -144 366 -166 Q 366 -193 355.5 -217.5 Q 345 -242 328.5 -262.5 Q 312 -283 291.5 -300 Q 271 -317 250 -332 Q 229 -317 208.5 -300 Q 188 -283 171.5 -262.5 Q 155 -242 144.5 -217.5 Q 134 -193 134 -166 Q 134 -144 142.5 -123 Q 151 -102 167.5 -87.5 Q 184 -73 206 -67.5 Q 228 -62 250 -62 Z " id="path9"/>
<path d="M 252 140 L 166 140 L 268 -62 Q 280 -86 292.5 -109.5 Q 305 -133 319 -157 L 319 -158 Q 320 -159 320.5 -160 Q 321 -161 322 -162 Q 304 -154 285.5 -151 Q 267 -148 248 -148 Q 220 -148 192 -155 Q 164 -162 141 -177.5 Q 118 -193 101 -216 Q 84 -239 73.5 -265.5 Q 63 -292 59.5 -320 Q 56 -348 56 -376 Q 56 -404 60 -432.5 Q 64 -461 74 -487 Q 84 -513 101.5 -536 Q 119 -559 142.5 -574.5 Q 166 -590 194 -596.5 Q 222 -603 250 -603 Q 280 -603 309 -595 Q 338 -587 361.5 -569 Q 385 -551 401.5 -525.5 Q 418 -500 427.5 -472 Q 437 -444 440.5 -414.5 Q 444 -385 444 -355 Q 444 -312 435 -269.5 Q 426 -227 410.5 -187 Q 395 -147 376 -108.5 Q 357 -70 337 -31 Z M 250 -218 Q 268 -218 286 -223.5 Q 304 -229 318 -241 Q 332 -253 341.5 -269 Q 351 -285 356.5 -302.5 Q 362 -320 364 -338.5 Q 366 -357 366 -376 Q 366 -394 364 -412.5 Q 362 -431 357 -448.5 Q 352 -466 342.5 -482.5 Q 333 -499 318.5 -510.5 Q 304 -522 286 -527.5 Q 268 -533 250 -533 Q 232 -533 214 -527.5 Q 196 -522 181.5 -510.5 Q 167 -499 157.5 -482.5 Q 148 -466 143 -448.5 Q 138 -431 136 -412.5 Q 134 -394 134 -376 Q 134 -357 136 -339 Q 138 -321 143 -303 Q 148 -285 157.5 -269 Q 167 -253 181 -241 Q 195 -229 213 -223.5 Q 231 -218 250 -218 Z " id="path10"/>
</defs>
<g>
<g data-source-text="0" fill="#dee4e3" transform="translate(40 104.99201) rotate(0) scale(0.09599999)">
<use href="#path1" transform="translate(0 0)"/>
</g>
</g>
<g>
<g data-source-text="1" fill="#dee4e3" transform="translate(168 104.99201) rotate(0) scale(0.09599999)">
<use href="#path2" transform="translate(0 0)"/>
</g>
</g>
<g>
<g data-source-text="2" fill="#dee4e3" transform="translate(296 104.99201) rotate(0) scale(0.09599999)">
<use href="#path3" transform="translate(0 0)"/>
</g>
</g>
<g>
<g data-source-text="3" fill="#dee4e3" transform="translate(424 104.99201) rotate(0) scale(0.09599999)">
<use href="#path4" transform="translate(0 0)"/>
</g>
</g>
<g>
<g data-source-text="4" fill="#dee4e3" transform="translate(552 104.99201) rotate(0) scale(0.09599999)">
<use href="#path5" transform="translate(0 0)"/>
</g>
</g>
<g>
<g data-source-text="5" fill="#dee4e3" transform="translate(680 104.99201) rotate(0) scale(0.09599999)">
<use href="#path6" transform="translate(0 0)"/>
</g>
</g>
<g>
<g data-source-text="6" fill="#dee4e3" transform="translate(808 104.99201) rotate(0) scale(0.09599999)">
<use href="#path7" transform="translate(0 0)"/>
</g>
</g>
<g>
<g data-source-text="7" fill="#dee4e3" transform="translate(936 104.99201) rotate(0) scale(0.09599999)">
<use href="#path8" transform="translate(0 0)"/>
</g>
</g>
<g>
<g data-source-text="8" fill="#dee4e3" transform="translate(1064 104.99201) rotate(0) scale(0.09599999)">
<use href="#path9" transform="translate(0 0)"/>
</g>
</g>
<g>
<g data-source-text="9" fill="#dee4e3" transform="translate(1192 104.99201) rotate(0) scale(0.09599999)">
<use href="#path10" transform="translate(0 0)"/>
</g>
</g>
</svg>