<?xml version="1.0" encoding="UTF-8" standalone="no"?>
<svg xmlns="http://www.w3.org/2000/svg" height="160" viewBox="0 0 128 160" width="128"><defs><path d="M 211 107 L 211 -31 Q 180 -34 150 -47 Q 120 -60 98 -83 Q 76 -106 65 -136.5 Q 54 -167 54 -199 Q 54 -201 54 -203 Q 54 -205 54 -207 L 132 -207 Q 132 -206 132 -204.5 Q 132 -203 132 -202 Q 132 -184 138 -166 Q 144 -148 156 -134 Q 168 -120 184.5 -112 Q 201 -104 220 -101 L 220 -339 Q 189 -354 161 -372.5 Q 133 -391 111 -416 Q 89 -441 76.5 -473 Q 64 -505 64 -538 Q 64 -569 74 -598.5 Q 84 -628 104.5 -650.5 Q 125 -673 153 -686.5 Q 181 -700 211 -704 L 211 -843 L 289 -843 L 289 -704 Q 319 -700 348 -687 Q 377 -674 397.5 -651 Q 418 -628 428 -598 Q 438 -568 438 -537 Q 438 -535 438 -533.5 Q 438 -532 438 -530 L 360 -530 Q 360 -531 360 -532 Q 360 -533 360 -534 Q 360 -552 355 -569 Q 350 -586 339.5 -599.5 Q 329 -613 313 -622 Q 297 -631 280 -634 L 280 -399 Q 312 -385 341.5 -366.5 Q 371 -348 394 -322.5 Q 417 -297 430.5 -264.5 Q 444 -232 444 -197 Q 444 -166 433 -135.5 Q 422 -105 400.5 -82.5 Q 379 -60 349.5 -47.5 Q 320 -35 289 -31 L 289 107 Z M 220 -427 L 220 -634 Q 203 -630 188 -622 Q 173 -614 162.5 -601 Q 152 -588 146.5 -571.5 Q 141 -555 141 -538 Q 141 -520 147.5 -503 Q 154 -486 164.5 -472 Q 175 -458 189.5 -447 Q 204 -436 220 -427 Z M 280 -101 Q 298 -104 314 -111.5 Q 330 -119 342 -132.5 Q 354 -146 360.5 -163 Q 367 -180 367 -197 Q 367 -216 360 -234 Q 353 -252 340.5 -266.5 Q 328 -281 312.5 -292 Q 297 -303 280 -312 Z " id="path1"/></defs><g><g data-source-text="$" fill="#20242e" transform="translate(40 104.99201) rotate(0) scale(0.09599999)"><use href="#path1" transform="translate(0 0)"/></g></g></svg>