<?xml version="1.0" encoding="UTF-8" standalone="no"?>
<svg xmlns="http://www.w3.org/2000/svg" height="160" viewBox="0 0 128 160" width="128"><defs><path d="M 211 0 L 211 -82 Q 180 -86 150 -98.5 Q 120 -111 98 -134.5 Q 76 -158 65 -188.5 Q 54 -219 54 -251 Q 54 -253 54 -255 Q 54 -257 54 -260 L 132 -260 Q 132 -258 132 -257 Q 132 -256 132 -254 Q 132 -232 140.5 -211 Q 149 -190 166 -175.5 Q 183 -161 205 -155.5 Q 227 -150 249 -150 Q 269 -150 289.5 -154 Q 310 -158 327.5 -168.5 Q 345 -179 356 -197 Q 367 -215 367 -236 Q 367 -258 354 -277 Q 341 -296 322 -306.5 Q 303 -317 281 -321.5 Q 259 -326 237.5 -330.5 Q 216 -335 195 -342 Q 174 -349 154.5 -359 Q 135 -369 118 -383.5 Q 101 -398 89 -416.5 Q 77 -435 70.5 -456 Q 64 -477 64 -499 Q 64 -529 75 -557 Q 86 -585 106.5 -605.5 Q 127 -626 154.5 -637.5 Q 182 -649 211 -653 L 211 -735 L 289 -735 L 289 -653 Q 319 -649 348 -635.5 Q 377 -622 397.5 -599 Q 418 -576 428 -546.5 Q 438 -517 438 -486 Q 438 -484 438 -481.5 Q 438 -479 438 -477 L 360 -477 Q 360 -478 360 -479.5 Q 360 -481 360 -482 Q 360 -504 352.5 -524 Q 345 -544 329.5 -558.5 Q 314 -573 293 -579 Q 272 -585 251 -585 Q 231 -585 212 -581 Q 193 -577 176.5 -566 Q 160 -555 150.5 -537 Q 141 -519 141 -500 Q 141 -478 154 -458.5 Q 167 -439 186 -428 Q 205 -417 226.5 -413 Q 248 -409 270 -404.5 Q 292 -400 313 -393.5 Q 334 -387 353 -376.5 Q 372 -366 389 -351.5 Q 406 -337 418.5 -319 Q 431 -301 437.5 -279.5 Q 444 -258 444 -236 Q 444 -206 432 -177.5 Q 420 -149 398 -128.5 Q 376 -108 347.5 -97 Q 319 -86 289 -82 L 289 0 Z " id="path1"/></defs><g><g data-source-text="$" fill="#dee4e3" transform="translate(40 104.99201) rotate(0) scale(0.09599999)"><use href="#path1" transform="translate(0 0)"/></g></g></svg>