<?xml version="1.0" encoding="UTF-8" standalone="no"?>
<svg height="160" viewBox="0 0 128 160" width="128" xmlns="http://www.w3.org/2000/svg">
<defs>
<path d="M 211 107 L 211 -72 L 220 -72 L 220 -663 L 211 -663 L 211 -843 L 289 -843 L 289 -663 L 280 -663 L 280 -72 L 289 -72 L 289 107 Z M 249 -29 Q 225 -29 200.5 -32.5 Q 176 -36 153.5 -45.5 Q 131 -55 112 -71 Q 93 -87 80 -107.5 Q 67 -128 60.5 -152 Q 54 -176 54 -200 L 54 -207 L 132 -207 L 132 -203 Q 132 -181 140.5 -160 Q 149 -139 166 -124.5 Q 183 -110 205 -104.5 Q 227 -99 249 -99 Q 271 -99 292.5 -104 Q 314 -109 331 -123 Q 348 -137 357.5 -157.5 Q 367 -178 367 -200 Q 367 -224 355.5 -246 Q 344 -268 326 -284 Q 308 -300 285.5 -310 Q 263 -320 241 -329.5 Q 219 -339 197 -349.5 Q 175 -360 155.5 -374 Q 136 -388 119 -405.5 Q 102 -423 89.5 -443.5 Q 77 -464 70.5 -488 Q 64 -512 64 -536 Q 64 -560 70 -583 Q 76 -606 88 -626.5 Q 100 -647 118 -663 Q 136 -679 158 -689 Q 180 -699 203.5 -702.5 Q 227 -706 251 -706 Q 275 -706 298.5 -702.5 Q 322 -699 344 -689 Q 366 -679 384 -663.5 Q 402 -648 414 -627.5 Q 426 -607 432 -583.5 Q 438 -560 438 -536 L 438 -529 L 360 -529 L 360 -533 Q 360 -555 352.5 -575 Q 345 -595 329.5 -609.5 Q 314 -624 293 -630 Q 272 -636 251 -636 Q 230 -636 209.5 -630.5 Q 189 -625 173 -611 Q 157 -597 149 -577 Q 141 -557 141 -536 Q 141 -511 152.5 -489 Q 164 -467 182 -451 Q 200 -435 222 -425 Q 244 -415 266.5 -405.5 Q 289 -396 310.5 -385.5 Q 332 -375 352 -361 Q 372 -347 389 -329.5 Q 406 -312 418.5 -291.5 Q 431 -271 437.5 -247.5 Q 444 -224 444 -200 Q 444 -175 437.5 -151.5 Q 431 -128 418 -107 Q 405 -86 386 -70.5 Q 367 -55 344.5 -45.5 Q 322 -36 297.5 -32.5 Q 273 -29 249 -29 Z " id="path1"/>
</defs>
<g>
<g data-source-text="$" fill="#20242e" transform="translate(40 104.99201) rotate(0) scale(0.09599999)">
<use href="#path1" transform="translate(0 0)"/>
</g>
</g>
</svg>