<?xml version="1.0" encoding="UTF-8" standalone="no"?>
<svg height="160" viewBox="0 0 128 160" width="128" xmlns="http://www.w3.org/2000/svg">
<defs>
<path d="M 64 0 L 64 -520 Q 64 -547 67.5 -574.5 Q 71 -602 80.5 -627.5 Q 90 -653 106.5 -675.5 Q 123 -698 145.5 -714 Q 168 -730 195 -736.5 Q 222 -743 249 -743 Q 273 -743 297.5 -737.5 Q 322 -732 342 -718.5 Q 362 -705 377 -685 Q 392 -665 401.5 -642.5 Q 411 -620 415.5 -596 Q 420 -572 420 -547 Q 420 -523 415.5 -499.5 Q 411 -476 401 -454 Q 391 -432 376 -412.5 Q 361 -393 343 -378 Q 367 -366 387 -347.5 Q 407 -329 420 -305.5 Q 433 -282 438.5 -255 Q 444 -228 444 -201 Q 444 -173 438 -144.5 Q 432 -116 417 -91.5 Q 402 -67 379 -48.5 Q 356 -30 329.5 -19 Q 303 -8 274.5 -4 Q 246 -0 217 0 L 176 0 L 176 -70 L 217 -70 Q 236 -70 255 -72.5 Q 274 -75 291 -82.5 Q 308 -90 323 -101.5 Q 338 -113 348 -129 Q 358 -145 362 -163.5 Q 366 -182 366 -201 Q 366 -229 355.5 -256.5 Q 345 -284 323 -301.5 Q 301 -319 273 -325.5 Q 245 -332 217 -332 L 217 -403 Q 244 -403 268.5 -415 Q 293 -427 309.5 -447.5 Q 326 -468 334.5 -494 Q 343 -520 343 -547 Q 343 -561 340.5 -576 Q 338 -591 333.5 -605 Q 329 -619 321.5 -632 Q 314 -645 303 -654.5 Q 292 -664 277.5 -668.5 Q 263 -673 249 -673 Q 231 -673 214 -667 Q 197 -661 184.5 -649.5 Q 172 -638 163.5 -622 Q 155 -606 150 -589.5 Q 145 -573 143.5 -555.5 Q 142 -538 142 -520 L 142 0 Z " id="path1"/>
</defs>
<g>
<g data-source-text="ß" fill="#20242e" transform="translate(40 104.99201) rotate(0) scale(0.09599999)">
<use href="#path1" transform="translate(0 0)"/>
</g>
</g>
</svg>