<svg xmlns="http://www.w3.org/2000/svg" height="160" viewBox="0 0 128 160" width="128"><defs><path d="M 64 215 L 64 -520 Q 64 -547 67.5 -574 Q 71 -601 79.5 -626.5 Q 88 -652 103.5 -675 Q 119 -698 141 -714 Q 163 -730 189.5 -736.5 Q 216 -743 243 -743 Q 268 -743 292 -738 Q 316 -733 337 -721 Q 358 -709 374 -690.5 Q 390 -672 400 -650 Q 410 -628 415 -604 Q 420 -580 420 -556 Q 420 -531 415 -506 Q 410 -481 400 -458.5 Q 390 -436 375 -415.5 Q 360 -395 341 -379 Q 365 -367 385.5 -348.5 Q 406 -330 419.5 -306.5 Q 433 -283 438.5 -255.5 Q 444 -228 444 -201 Q 444 -173 438 -144.5 Q 432 -116 417 -91.5 Q 402 -67 379 -48.5 Q 356 -30 329.5 -19 Q 303 -8 274.5 -4 Q 246 -0 217 0 L 204 0 L 204 -70 L 217 -70 Q 236 -70 254.5 -72.5 Q 273 -75 290.5 -82 Q 308 -89 323 -101 Q 338 -113 348 -129 Q 358 -145 362 -163.5 Q 366 -182 366 -201 Q 366 -229 355.5 -256.5 Q 345 -284 323 -301.5 Q 301 -319 273 -325.5 Q 245 -332 217 -332 L 217 -403 Q 245 -403 269.5 -416.5 Q 294 -430 310.5 -452 Q 327 -474 334.5 -500.5 Q 342 -527 342 -554 Q 342 -576 337 -597.5 Q 332 -619 319 -636.5 Q 306 -654 286 -663.5 Q 266 -673 244 -673 Q 227 -673 210 -667 Q 193 -661 181 -649 Q 169 -637 161.5 -621 Q 154 -605 149.5 -588.5 Q 145 -572 143.5 -554.5 Q 142 -537 142 -520 L 142 215 Z " id="path1"/></defs><g><g fill="#20242e" transform="translate(40 105.20961) rotate(0)"><use href="#path1" transform="translate(0 0) scale(0.09599999)"/></g></g></svg>