<?xml version="1.0" encoding="UTF-8" standalone="no"?>
<svg height="160" viewBox="0 0 128 160" width="128" xmlns="http://www.w3.org/2000/svg">
<defs>
<path d="M 813 8 Q 797 8 781.5 3.5 Q 766 -1 755 -12.5 Q 744 -24 739.5 -39 Q 735 -54 735 -70 Q 735 -86 739.5 -101 Q 744 -116 755 -127.5 Q 766 -139 781.5 -143.5 Q 797 -148 813 -148 Q 828 -148 843.5 -143.5 Q 859 -139 870 -127.5 Q 881 -116 886 -101 Q 891 -86 891 -70 Q 891 -54 886 -39 Q 881 -24 870 -12.5 Q 859 -1 843.5 3.5 Q 828 8 813 8 Z M 500 8 Q 484 8 469 3.5 Q 454 -1 442.5 -12.5 Q 431 -24 426.5 -39 Q 422 -54 422 -70 Q 422 -86 426.5 -101 Q 431 -116 442.5 -127.5 Q 454 -139 469 -143.5 Q 484 -148 500 -148 Q 516 -148 531 -143.5 Q 546 -139 557.5 -127.5 Q 569 -116 573.5 -101 Q 578 -86 578 -70 Q 578 -54 573.5 -39 Q 569 -24 557.5 -12.5 Q 546 -1 531 3.5 Q 516 8 500 8 Z M 188 8 Q 172 8 156.5 3.5 Q 141 -1 130 -12.5 Q 119 -24 114 -39 Q 109 -54 109 -70 Q 109 -86 114 -101 Q 119 -116 130 -127.5 Q 141 -139 156.5 -143.5 Q 172 -148 188 -148 Q 203 -148 218.5 -143.5 Q 234 -139 245 -127.5 Q 256 -116 261 -101 Q 266 -86 266 -70 Q 266 -54 261 -39 Q 256 -24 245 -12.5 Q 234 -1 218.5 3.5 Q 203 8 188 8 Z " id="path1"/>
</defs>
<g>
<g data-source-text="…" fill="#dee4e3" transform="translate(16 104.99201) rotate(0) scale(0.09599999)">
<use href="#path1" transform="translate(0 0)"/>
</g>
</g>
</svg>