<svg xmlns="http://www.w3.org/2000/svg" height="160" viewBox="0 0 128 160" width="128"><defs><path d="M 250 8 C 224.66666 8 199.83331 3.1666663 175.5 -6.5000005 C 151.16666 -16.166668 130 -29.833332 112 -47.5 C 94.00001 -65.166664 80.166664 -86.166664 70.5 -110.5 C 60.833332 -134.83334 55.999996 -159.66667 56 -185.00002 C 55.999996 -204.33333 58.666668 -223.5 64 -242.50002 C 69.333336 -261.5 76.5 -279.66666 85.50001 -297.00003 C 94.5 -314.33334 105.50001 -330.66666 118.50001 -346 C 131.50002 -361.33334 145.33333 -375 160.00002 -387.00003 C 146.66667 -397.66666 134.50002 -409.8333 123.5 -423.50003 C 112.49999 -437.16666 103.166664 -451.6667 95.50001 -467.00003 C 87.833336 -482.33334 81.833336 -498.5 77.5 -515.5 C 73.166664 -532.49994 71 -549.6667 71 -567 C 71 -583 72.83333 -598.6667 76.5 -614 C 80.166664 -629.3334 85.50001 -644 92.50001 -658 C 99.5 -671.99994 108.66667 -684.6666 120.00001 -696.00006 C 131.33333 -707.3334 144 -716.6666 158 -724 C 172 -731.33325 186.83334 -736.3333 202.50002 -739 C 218.16667 -741.6667 234.00002 -743.00006 250 -743.00006 C 274 -743.00006 297.1667 -738.1667 319.50003 -728.5 C 341.83337 -718.8333 361.33334 -705.3333 378.00003 -688.00006 C 394.6667 -670.6667 407.16666 -650.6667 415.50003 -628.00006 C 423.83334 -605.3334 428 -582.00006 428.00003 -558 C 428 -540 426 -522.1667 422.00003 -504.5 C 418 -486.83334 412.1667 -469.83334 404.50003 -453.5 C 396.83334 -437.16666 387.6667 -421.50003 377.00003 -406.50003 C 366.33334 -391.5 354.6667 -377.66666 342.00003 -365.00003 C 357.33334 -354.33334 371.33334 -342.00003 384 -328.00003 C 396.66666 -314 407.5 -298.83334 416.50003 -282.50003 C 425.5 -266.1667 432.3333 -248.83334 437 -230.50002 C 441.66666 -212.16667 444.00003 -193.66666 444.00003 -175 C 444.00003 -158.33333 442 -141.66667 438.00003 -125 C 434.00003 -108.333336 428 -92.83334 420 -78.50001 C 412 -64.166664 401.8333 -51.166664 389.50003 -39.5 C 377.1667 -27.833334 363.33334 -18.333332 348.00003 -11 C 332.6667 -3.6666667 316.6667 1.3333335 300.00003 4 C 283.33334 6.6666665 266.66666 8 250 8 Z M 271.00003 -404.00003 C 282.33334 -413.33334 292.83334 -423.83334 302.50003 -435.5 C 312.1667 -447.16666 320.50003 -459.5 327.50003 -472.50003 C 334.5 -485.50003 340.16666 -499.16666 344.5 -513.50006 C 348.83334 -527.8333 351 -542.6667 351 -558 C 351 -571.99994 348.83334 -586 344.5 -600.00006 C 340.16666 -614 333.5 -626.3333 324.5 -637 C 315.5 -647.6666 304.33334 -656.3333 291.00003 -663 C 277.6667 -669.6666 264 -673.00006 250 -673.00006 C 235.99998 -673.00006 222.33331 -670.6667 209.00002 -666 C 195.66667 -661.3333 184.5 -653.8333 175.5 -643.5 C 166.5 -633.1666 159.83334 -621.1666 155.50002 -607.5 C 151.16666 -593.8333 149 -580 149 -566.00006 C 149 -548.6666 152.33333 -531.3334 159 -514.00006 C 165.66667 -496.6667 174.50002 -481 185.50002 -467.00003 C 196.50002 -453 209.5 -441 224.5 -431 C 239.5 -421.00003 255 -412 271.00003 -404.00003 Z M 250 -62.000004 C 265.3333 -62.000004 280.49997 -64.333336 295.5 -69 C 310.5 -73.66667 323.5 -81.33333 334.5 -92 C 345.5 -102.66667 353.49997 -115.5 358.5 -130.5 C 363.5 -145.49998 366.00003 -160.66666 366.00003 -176 C 366.00003 -195.33333 362.33334 -214 355.00003 -232 C 347.66666 -249.99998 337.83334 -266.16666 325.50003 -280.5 C 313.16666 -294.83334 298.83334 -307.16666 282.50003 -317.5 C 266.1667 -327.8333 249.33333 -336.99997 232 -345 L 231.00002 -345 L 230 -346 C 216.66667 -336.6667 204.16666 -326.1667 192.5 -314.5 C 180.83333 -302.8333 170.66666 -290.16666 162 -276.5 C 153.33333 -262.8333 146.5 -248.16667 141.50002 -232.5 C 136.5 -216.83334 134 -201 134 -185.00002 C 134 -169 136.66666 -153.5 142 -138.50002 C 147.33333 -123.49999 155.33333 -110.166664 166 -98.50001 C 176.66666 -86.83333 189.33333 -77.83333 204 -71.5 C 218.66667 -65.16667 234.00002 -62.000004 250 -62.000004 Z " id="path1"/></defs><g><g fill="#000000" transform="translate(40 105.20961) rotate(0)"><use href="#path1" transform="translate(0 0) scale(0.09599999)"/></g></g></svg>