<?xml version="1.0" encoding="UTF-8" standalone="no"?>
<svg height="160" viewBox="0 0 128 160" width="128" xmlns="http://www.w3.org/2000/svg">
<defs>
<path d="M 250 8 Q 224 8 198 2.5 Q 172 -3 149 -16 Q 126 -29 107.5 -48 Q 89 -67 77.5 -90.5 Q 66 -114 61 -140 Q 56 -166 56 -193 Q 56 -221 62 -249.5 Q 68 -278 82.5 -303 Q 97 -328 118.5 -348 Q 140 -368 166 -379 Q 143 -391 124.5 -410 Q 106 -429 94 -452 Q 82 -475 77 -501 Q 72 -527 72 -553 Q 72 -577 76.5 -601.5 Q 81 -626 91.5 -648 Q 102 -670 118.5 -688.5 Q 135 -707 156 -719.5 Q 177 -732 201.5 -737.5 Q 226 -743 250 -743 Q 274 -743 298.5 -737.5 Q 323 -732 344 -719.5 Q 365 -707 381.5 -688.5 Q 398 -670 408.5 -648 Q 419 -626 423.5 -601.5 Q 428 -577 428 -553 Q 428 -527 423 -501 Q 418 -475 406 -452 Q 394 -429 375.5 -410 Q 357 -391 334 -379 Q 360 -368 381.5 -348 Q 403 -328 417.5 -303 Q 432 -278 438 -249.5 Q 444 -221 444 -193 Q 444 -166 439 -140 Q 434 -114 422.5 -90.5 Q 411 -67 392.5 -48 Q 374 -29 351 -16 Q 328 -3 302 2.5 Q 276 8 250 8 Z M 250 -413 Q 274 -413 294.5 -426 Q 315 -439 327.5 -459.5 Q 340 -480 345 -503.5 Q 350 -527 350 -551 Q 350 -573 345 -595 Q 340 -617 327 -635 Q 314 -653 293 -663 Q 272 -673 250 -673 Q 228 -673 207 -663 Q 186 -653 173 -635 Q 160 -617 155 -595 Q 150 -573 150 -551 Q 150 -527 155 -503.5 Q 160 -480 172.5 -459.5 Q 185 -439 205.5 -426 Q 226 -413 250 -413 Z M 250 -62 Q 275 -62 298.5 -72 Q 322 -82 337.5 -101.5 Q 353 -121 359.5 -145.5 Q 366 -170 366 -195 Q 366 -221 360 -247 Q 354 -273 339 -295 Q 324 -317 300 -330 Q 276 -343 250 -343 Q 224 -343 200 -330 Q 176 -317 161 -295 Q 146 -273 140 -247 Q 134 -221 134 -195 Q 134 -170 140.5 -145.5 Q 147 -121 162.5 -101.5 Q 178 -82 201.5 -72 Q 225 -62 250 -62 Z " id="path1"/>
</defs>
<g>
<g data-source-text="8" fill="#20242e" transform="translate(40 104.99201) rotate(0) scale(0.09599999)">
<use href="#path1" transform="translate(0 0)"/>
</g>
</g>
</svg>