<?xml version="1.0" encoding="UTF-8" standalone="no"?>
<svg height="160" viewBox="0 0 128 160" width="128" xmlns="http://www.w3.org/2000/svg">
<defs>
<path d="M 18 0 L 18 -70 L 64 -70 L 64 -450 L 18 -450 L 18 -520 L 64 -520 L 64 -535 Q 64 -561 67.5 -587 Q 71 -613 80.5 -637 Q 90 -661 106 -682 Q 122 -703 143.5 -717 Q 165 -731 190.5 -737 Q 216 -743 242 -743 Q 267 -743 291.5 -737.5 Q 316 -732 337.5 -719 Q 359 -706 375 -686.5 Q 391 -667 400.5 -644 Q 410 -621 415 -596.5 Q 420 -572 420 -547 Q 420 -523 415 -499 Q 410 -475 400.5 -453.5 Q 391 -432 376 -412.5 Q 361 -393 343 -378 Q 367 -366 387 -347.5 Q 407 -329 420 -305.5 Q 433 -282 438.5 -255 Q 444 -228 444 -201 Q 444 -173 438 -144.5 Q 432 -116 417 -91.5 Q 402 -67 379 -48.5 Q 356 -30 329.5 -19 Q 303 -8 274.5 -4 Q 246 -0 217 0 L 176 0 L 176 -70 L 217 -70 Q 236 -70 254.5 -72.5 Q 273 -75 290.5 -82 Q 308 -89 323 -101 Q 338 -113 348 -129 Q 358 -145 362 -163.5 Q 366 -182 366 -201 Q 366 -229 355.5 -256.5 Q 345 -284 323 -301.5 Q 301 -319 273 -325.5 Q 245 -332 217 -332 L 217 -403 Q 244 -403 268.5 -415 Q 293 -427 309.5 -447.5 Q 326 -468 334.5 -494 Q 343 -520 343 -546 Q 343 -561 340.5 -576 Q 338 -591 332.5 -605.5 Q 327 -620 319 -633 Q 311 -646 299 -655.5 Q 287 -665 272 -669 Q 257 -673 242 -673 Q 226 -673 210.5 -668 Q 195 -663 182.5 -652.5 Q 170 -642 162 -628 Q 154 -614 149.5 -598.5 Q 145 -583 143.5 -567 Q 142 -551 142 -535 L 142 0 Z " id="path1"/>
</defs>
<g>
<g data-source-text="ß" fill="#20242e" transform="translate(40 104.99201) rotate(0) scale(0.09599999)">
<use href="#path1" transform="translate(0 0)"/>
</g>
</g>
</svg>