<?xml version="1.0" encoding="UTF-8" standalone="no"?>
<svg height="160" viewBox="0 0 128 160" width="128" xmlns="http://www.w3.org/2000/svg">
<defs>
<path d="M 194 215 L 163 151 Q 190 139 215.5 122.5 Q 241 106 263.5 86.5 Q 286 67 305.5 43.5 Q 325 20 339 -6.5 Q 353 -33 361.5 -62.5 Q 370 -92 370 -122 Q 370 -137 364 -151 Q 358 -165 347 -175 Q 336 -185 322 -191.5 Q 308 -198 293.5 -201.5 Q 279 -205 264 -205.5 Q 249 -206 234 -206 L 190 -206 L 321 -444 L 142 -444 L 142 0 L 64 0 L 64 -403 L 18 -403 L 18 -473 L 64 -473 L 64 -580 Q 64 -601 67.5 -621.5 Q 71 -642 80.5 -660.5 Q 90 -679 105 -694 Q 120 -709 138.5 -718.5 Q 157 -728 177.5 -731.5 Q 198 -735 219 -735 L 382 -735 L 382 -665 L 219 -665 Q 202 -665 186.5 -659.5 Q 171 -654 160.5 -641.5 Q 150 -629 146 -613 Q 142 -597 142 -580 L 142 -515 L 445 -515 L 311 -271 Q 339 -266 364 -254 Q 389 -242 408 -222 Q 427 -202 437.5 -175.5 Q 448 -149 448 -122 Q 448 -85 438 -49 Q 428 -13 410.5 20 Q 393 53 369.5 82 Q 346 111 318.5 135.5 Q 291 160 259.5 180 Q 228 200 194 215 Z " id="path1"/>
</defs>
<g>
<g data-source-text="ß" fill="#dee4e3" transform="translate(40 104.99201) rotate(0) scale(0.09599999)">
<use href="#path1" transform="translate(0 0)"/>
</g>
</g>
</svg>