<?xml version="1.0" encoding="UTF-8" standalone="no"?>
<svg height="160" viewBox="0 0 128 160" width="128" xmlns="http://www.w3.org/2000/svg">
<defs>
<path d="M 64 215 L 64 -579 Q 64 -601 68.5 -623.5 Q 73 -646 83.5 -666 Q 94 -686 111 -701 Q 128 -716 148 -726 Q 168 -736 190.5 -739.5 Q 213 -743 236 -743 Q 268 -743 300 -733 Q 332 -723 355 -699.5 Q 378 -676 387.5 -644 Q 397 -612 397 -579 Q 397 -558 391 -537 Q 385 -516 372.5 -499 Q 360 -482 343 -469 Q 326 -456 308 -444 Q 298 -438 288 -430.5 Q 278 -423 270.5 -414 Q 263 -405 258 -393.5 Q 253 -382 253 -370 Q 253 -350 265.5 -334 Q 278 -318 295 -308.5 Q 312 -299 330.5 -291 Q 349 -283 365.5 -273 Q 382 -263 396.5 -249.5 Q 411 -236 422 -220 Q 433 -204 438.5 -185 Q 444 -166 444 -146 Q 444 -125 438 -104.5 Q 432 -84 420.5 -66 Q 409 -48 392 -35 Q 375 -22 355.5 -14 Q 336 -6 315 -3 Q 294 0 273 0 L 176 0 L 176 -70 L 273 -70 Q 291 -70 308 -74 Q 325 -78 338 -89 Q 351 -100 359 -116.5 Q 367 -133 367 -150 Q 367 -169 355.5 -186 Q 344 -203 327.5 -213 Q 311 -223 293 -230.5 Q 275 -238 258 -247.5 Q 241 -257 226 -269.5 Q 211 -282 199.5 -298 Q 188 -314 182 -332.5 Q 176 -351 176 -371 Q 176 -387 180.5 -403.5 Q 185 -420 193.5 -434 Q 202 -448 213 -460.5 Q 224 -473 237 -483 Q 250 -493 264.5 -501.5 Q 279 -510 292 -520.5 Q 305 -531 312 -546.5 Q 319 -562 319 -579 Q 319 -597 314.5 -614.5 Q 310 -632 299 -646 Q 288 -660 270.5 -666.5 Q 253 -673 235 -673 Q 216 -673 198 -667 Q 180 -661 166.5 -648 Q 153 -635 147.5 -616.5 Q 142 -598 142 -579 L 142 215 Z " id="path1"/>
</defs>
<g>
<g data-source-text="ß" fill="#dee4e3" transform="translate(40 104.99201) rotate(0) scale(0.09599999)">
<use href="#path1" transform="translate(0 0)"/>
</g>
</g>
</svg>