<?xml version="1.0" encoding="UTF-8" standalone="no"?>
<svg height="160" viewBox="0 0 128 160" width="128" xmlns="http://www.w3.org/2000/svg">
<defs>
<path d="M 250 8 Q 223 8 196.5 2.5 Q 170 -3 146.5 -16 Q 123 -29 104.5 -49.5 Q 86 -70 75 -94.5 Q 64 -119 60 -146 Q 56 -173 56 -200 L 56 -320 Q 56 -347 60 -374 Q 64 -401 75.5 -425.5 Q 87 -450 105 -470.5 Q 123 -491 146.5 -504.5 Q 170 -518 197 -523 Q 224 -528 251 -528 Q 274 -528 298 -525 Q 322 -522 344 -513.5 Q 366 -505 385.5 -491 Q 405 -477 418.5 -457.5 Q 432 -438 438 -414.5 Q 444 -391 444 -367 Q 444 -343 438 -320 Q 432 -297 417.5 -278 Q 403 -259 382.5 -246 Q 362 -233 339.5 -225 Q 317 -217 293.5 -214.5 Q 270 -212 246 -212 L 134 -212 L 134 -200 Q 134 -183 136 -166 Q 138 -149 144 -133 Q 150 -117 160.5 -103 Q 171 -89 185 -79.5 Q 199 -70 216 -66 Q 233 -62 250 -62 Q 270 -62 289.5 -65.5 Q 309 -69 326 -79.5 Q 343 -90 353.5 -107.5 Q 364 -125 364 -145 L 442 -145 Q 442 -122 434.5 -100 Q 427 -78 413.5 -59.5 Q 400 -41 381 -27.5 Q 362 -14 340.5 -6 Q 319 2 296 5 Q 273 8 250 8 Z M 134 -282 L 246 -282 Q 260 -282 274 -283.5 Q 288 -285 301 -288.5 Q 314 -292 326.5 -299 Q 339 -306 348.5 -316.5 Q 358 -327 362 -340.5 Q 366 -354 366 -368 Q 366 -388 356.5 -407.5 Q 347 -427 330 -438.5 Q 313 -450 292 -454 Q 271 -458 251 -458 Q 234 -458 217 -454 Q 200 -450 185.5 -440.5 Q 171 -431 160.5 -417 Q 150 -403 144 -387 Q 138 -371 136 -354 Q 134 -337 134 -320 Z " id="path1"/>
</defs>
<g>
<g data-source-text="e" fill="#20242e" transform="translate(40 104.99201) rotate(0) scale(0.09599999)">
<use href="#path1" transform="translate(0 0)"/>
</g>
</g>
</svg>