<?xml version="1.0" encoding="UTF-8" standalone="no"?>
<svg height="160" viewBox="0 0 128 160" width="128" xmlns="http://www.w3.org/2000/svg">
<defs>
<path d="M 833 8 Q 818 8 802.5 3.5 Q 787 -1 776 -12.5 Q 765 -24 760 -39 Q 755 -54 755 -70 Q 755 -86 760 -101 Q 765 -116 776 -127.5 Q 787 -139 802.5 -143.5 Q 818 -148 833 -148 Q 849 -148 864.5 -143.5 Q 880 -139 891 -127.5 Q 902 -116 906.5 -101 Q 911 -86 911 -70 Q 911 -54 906.5 -39 Q 902 -24 891 -12.5 Q 880 -1 864.5 3.5 Q 849 8 833 8 Z M 500 8 Q 484 8 469 3.5 Q 454 -1 442.5 -12.5 Q 431 -24 426.5 -39 Q 422 -54 422 -70 Q 422 -86 426.5 -101 Q 431 -116 442.5 -127.5 Q 454 -139 469 -143.5 Q 484 -148 500 -148 Q 516 -148 531 -143.5 Q 546 -139 557.5 -127.5 Q 569 -116 573.5 -101 Q 578 -86 578 -70 Q 578 -54 573.5 -39 Q 569 -24 557.5 -12.5 Q 546 -1 531 3.5 Q 516 8 500 8 Z M 167 8 Q 151 8 135.5 3.5 Q 120 -1 109 -12.5 Q 98 -24 93.5 -39 Q 89 -54 89 -70 Q 89 -86 93.5 -101 Q 98 -116 109 -127.5 Q 120 -139 135.5 -143.5 Q 151 -148 167 -148 Q 182 -148 197.5 -143.5 Q 213 -139 224 -127.5 Q 235 -116 240 -101 Q 245 -86 245 -70 Q 245 -54 240 -39 Q 235 -24 224 -12.5 Q 213 -1 197.5 3.5 Q 182 8 167 8 Z " id="path1"/>
</defs>
<g>
<g data-source-text="…" fill="#20242e" transform="translate(16 104.99201) rotate(0) scale(0.09599999)">
<use href="#path1" transform="translate(0 0)"/>
</g>
</g>
</svg>