<svg xmlns="http://www.w3.org/2000/svg" height="160" viewBox="0 0 128 160" width="128"><defs><path d="M 252 8 C 234.00002 8 216 6.3333335 198 3 C 180 -0.33333325 163.16667 -6.5000005 147.5 -15.500001 C 131.83334 -24.499998 117.83334 -35.833332 105.50001 -49.5 C 93.16667 -63.16667 83.16667 -78.16667 75.5 -94.50001 C 67.833336 -110.83333 62.666668 -127.99999 60.000004 -146 C 57.333332 -164 55.999996 -182 56 -200.00002 L 56 -320.00003 C 55.999996 -338 57.333332 -356 60.000004 -374 C 62.666668 -392 67.666664 -409.16666 75.00001 -425.5 C 82.333336 -441.83334 92.16667 -456.83334 104.50001 -470.5 C 116.833336 -484.1667 130.66667 -495.33337 146 -504 C 161.33334 -512.6666 178.00002 -518.8333 196 -522.5 C 214 -526.1666 232 -528 250 -528 C 268 -528 286 -526.1666 304 -522.5 C 322.00003 -518.8333 338.6667 -512.6666 354.00003 -504 C 369.33334 -495.33337 383.1667 -484.1667 395.5 -470.5 C 407.83334 -456.83334 417.6667 -441.83334 425 -425.5 C 432.3333 -409.16666 437.3333 -392 440.00003 -374 C 442.66666 -356 444.00003 -338 444.00003 -320.00003 L 444.00003 -225.00002 L 134 -225.00002 L 134 -200.00002 C 134 -188.66667 134.66667 -177.33334 136 -166 C 137.33334 -154.66667 140.16667 -143.66667 144.5 -133 C 148.83334 -122.33333 154.5 -112.33334 161.5 -103.00001 C 168.50002 -93.666664 176.83334 -85.833336 186.5 -79.5 C 196.16666 -73.16667 206.66667 -68.66667 218 -66 C 229.33333 -63.333336 240.66667 -62.000004 252 -62.000004 C 264.6667 -62.000004 277.5 -63.333336 290.5 -66 C 303.5 -68.66667 315.33334 -73.333336 326 -80.00001 C 336.6667 -86.666664 345.5 -95.66667 352.5 -107.00001 C 359.50003 -118.33334 363.3333 -130.66667 364 -144.00002 L 442 -144.00002 C 441.3333 -128.66666 438.49997 -113.83333 433.50003 -99.5 C 428.5 -85.166664 421.49997 -71.833336 412.5 -59.5 C 403.5 -47.166668 392.8333 -36.5 380.5 -27.500002 C 368.16666 -18.5 355 -11.333333 341 -6 C 327 -0.6666668 312.33334 3 297.00003 5.0000005 C 281.6667 7 266.66666 8 252 8 Z M 366.00003 -295 L 366.00003 -320.00003 C 366.00003 -331.33334 365.33334 -342.6667 364 -354.00003 C 362.66666 -365.33334 360 -376.3333 356 -387.00003 C 352 -397.66666 346.5 -407.66666 339.5 -417.00003 C 332.5 -426.3333 324.3333 -434.1667 315 -440.50003 C 305.66666 -446.83334 295.3333 -451.33334 284 -454 C 272.66666 -456.66666 261.33334 -457.99997 250 -458 C 238.66666 -457.99997 227.33333 -456.66666 216 -454 C 204.66666 -451.33334 194.33333 -446.83334 185.00002 -440.50003 C 175.66666 -434.1667 167.5 -426.3333 160.5 -417.00003 C 153.5 -407.66666 148 -397.66666 144.00002 -387.00003 C 140.00002 -376.3333 137.33334 -365.33334 136 -354.00003 C 134.66667 -342.6667 134 -331.33334 134 -320.00003 L 134 -295 Z " id="path1"/></defs><g><g fill="#000000" transform="translate(40 105.20961) rotate(0)"><use href="#path1" transform="translate(0 0) scale(0.09599999)"/></g></g></svg>