<?xml version="1.0" encoding="UTF-8" standalone="no"?>
<svg xmlns="http://www.w3.org/2000/svg" height="160" viewBox="0 0 128 160" width="128"><defs><path d="M 250 8 Q 223 8 196 2.5 Q 169 -3 145.5 -16 Q 122 -29 104 -49.5 Q 86 -70 75 -94.5 Q 64 -119 60 -146 Q 56 -173 56 -200 L 56 -320 Q 56 -347 60.5 -374 Q 65 -401 76 -426 Q 87 -451 105.5 -471.5 Q 124 -492 148 -505 Q 172 -518 199 -523 Q 226 -528 253 -528 Q 277 -528 300.5 -524.5 Q 324 -521 346 -512.5 Q 368 -504 387 -490 Q 406 -476 419.5 -456.5 Q 433 -437 438.5 -414 Q 444 -391 444 -367 Q 444 -343 438 -320 Q 432 -297 417.5 -278 Q 403 -259 382.5 -246 Q 362 -233 339.5 -225 Q 317 -217 293.5 -214.5 Q 270 -212 246 -212 L 134 -212 L 134 -200 Q 134 -183 136 -166 Q 138 -149 144 -133 Q 150 -117 160.5 -103 Q 171 -89 185 -79.5 Q 199 -70 216 -66 Q 233 -62 250 -62 Q 269 -62 288 -66 Q 307 -70 323 -80.5 Q 339 -91 349 -108 Q 359 -125 360 -144 L 438 -144 Q 437 -122 429.5 -100 Q 422 -78 409 -60 Q 396 -42 377.5 -28 Q 359 -14 338 -6 Q 317 2 294.5 5 Q 272 8 250 8 Z M 134 -282 L 246 -282 Q 260 -282 274 -283.5 Q 288 -285 301 -288.5 Q 314 -292 326.5 -299 Q 339 -306 348.5 -316.5 Q 358 -327 362 -340.5 Q 366 -354 366 -368 Q 366 -388 357 -407 Q 348 -426 331.5 -437.5 Q 315 -449 294.5 -453.5 Q 274 -458 254 -458 Q 236 -458 219 -454.5 Q 202 -451 187.5 -441.5 Q 173 -432 162 -418 Q 151 -404 144.5 -388 Q 138 -372 136 -354.5 Q 134 -337 134 -320 Z " id="path1"/></defs><g><g data-source-text="e" fill="#dee4e3" transform="translate(40 104.99201) rotate(0) scale(0.09599999)"><use href="#path1" transform="translate(0 0)"/></g></g></svg>