<?xml version="1.0" encoding="UTF-8" standalone="no"?>
<svg height="160" viewBox="0 0 128 160" width="128" xmlns="http://www.w3.org/2000/svg">
<defs>
<path d="M -42 223 L -42 153 L -32 153 Q -12 153 7 146.5 Q 26 140 39.5 125 Q 53 110 58.5 90.5 Q 64 71 64 51 L 64 -580 Q 64 -601 67.5 -621.5 Q 71 -642 80.5 -660.5 Q 90 -679 105 -694 Q 120 -709 138.5 -718.5 Q 157 -728 177.5 -731.5 Q 198 -735 219 -735 L 382 -735 L 382 -665 L 219 -665 Q 202 -665 186.5 -659.5 Q 171 -654 160.5 -641.5 Q 150 -629 146 -613 Q 142 -597 142 -580 L 142 -515 L 445 -515 L 311 -271 Q 339 -266 364 -254 Q 389 -242 408 -222 Q 427 -202 437.5 -175.5 Q 448 -149 448 -122 Q 448 -70 432.5 -20 Q 417 30 390 73.5 Q 363 117 325.5 153 Q 288 189 243 215 L 204 154 Q 241 133 271 103.5 Q 301 74 323 38 Q 345 2 357.5 -39 Q 370 -80 370 -122 Q 370 -137 364 -151 Q 358 -165 347 -175 Q 336 -185 322 -191.5 Q 308 -198 293.5 -201.5 Q 279 -205 264 -205.5 Q 249 -206 234 -206 L 190 -206 L 321 -444 L 142 -444 L 142 51 Q 142 74 137.5 97 Q 133 120 122.5 141 Q 112 162 95.5 178.5 Q 79 195 58 205 Q 37 215 14 219 Q -9 223 -32 223 Z " id="path1"/>
</defs>
<g>
<g data-source-text="ß" fill="#dee4e3" transform="translate(40 104.99201) rotate(0) scale(0.09599999)">
<use href="#path1" transform="translate(0 0)"/>
</g>
</g>
</svg>