<?xml version="1.0" encoding="UTF-8" standalone="no"?>
<svg height="160" viewBox="0 0 128 160" width="128" xmlns="http://www.w3.org/2000/svg">
<defs>
<path d="M 64 215 L 64 -450 L 18 -450 L 18 -520 L 64 -520 L 64 -579 Q 64 -601 68 -623 Q 72 -645 82 -664.5 Q 92 -684 108 -700 Q 124 -716 144 -726 Q 164 -736 186 -739.5 Q 208 -743 230 -743 Q 253 -743 275 -739.5 Q 297 -736 316.5 -726 Q 336 -716 352.5 -700.5 Q 369 -685 379 -665 Q 389 -645 393 -623 Q 397 -601 397 -579 Q 397 -558 391 -537 Q 385 -516 372 -499 Q 359 -482 342.5 -469 Q 326 -456 308 -444 Q 298 -438 288 -430.5 Q 278 -423 270.5 -414 Q 263 -405 258 -393.5 Q 253 -382 253 -370 Q 253 -350 265.5 -334 Q 278 -318 295 -308.5 Q 312 -299 330.5 -291 Q 349 -283 365.5 -273 Q 382 -263 396.5 -249.5 Q 411 -236 422 -220 Q 433 -204 438.5 -185 Q 444 -166 444 -146 Q 444 -125 438 -104.5 Q 432 -84 420.5 -66 Q 409 -48 392 -35 Q 375 -22 355.5 -14 Q 336 -6 315 -3 Q 294 0 273 0 L 176 0 L 176 -70 L 273 -70 Q 291 -70 308 -74 Q 325 -78 338.5 -89 Q 352 -100 359.5 -116.5 Q 367 -133 367 -150 Q 367 -169 355.5 -186 Q 344 -203 327.5 -213 Q 311 -223 293 -230.5 Q 275 -238 258 -247.5 Q 241 -257 226 -269.5 Q 211 -282 199.5 -298 Q 188 -314 182 -332.5 Q 176 -351 176 -371 Q 176 -387 180.5 -403 Q 185 -419 193 -433.5 Q 201 -448 212.5 -460.5 Q 224 -473 237 -483 Q 250 -493 264.5 -501.5 Q 279 -510 292 -521 Q 305 -532 312 -547 Q 319 -562 319 -579 Q 319 -597 314 -615.5 Q 309 -634 296.5 -647.5 Q 284 -661 266.5 -667 Q 249 -673 230 -673 Q 212 -673 194 -667 Q 176 -661 164 -647.5 Q 152 -634 147 -615.5 Q 142 -597 142 -579 L 142 215 Z " id="path1"/>
</defs>
<g>
<g data-source-text="ß" fill="#dee4e3" transform="translate(40 104.99201) rotate(0) scale(0.09599999)">
<use href="#path1" transform="translate(0 0)"/>
</g>
</g>
</svg>