<?xml version="1.0" encoding="UTF-8" standalone="no"?>
<svg height="160" viewBox="0 0 128 160" width="128" xmlns="http://www.w3.org/2000/svg">
<defs>
<path d="M 64 215 L 64 -520 Q 64 -546 66.5 -571.5 Q 69 -597 76.5 -622 Q 84 -647 97 -670 Q 110 -693 129 -710 Q 148 -727 173 -735 Q 198 -743 224 -743 Q 247 -743 270 -737.5 Q 293 -732 312 -719 Q 331 -706 345 -687 Q 359 -668 367.5 -646.5 Q 376 -625 380 -602.5 Q 384 -580 384 -556 L 384 -555 L 306 -555 L 306 -556 Q 306 -569 304.5 -582.5 Q 303 -596 299 -608.5 Q 295 -621 289 -633 Q 283 -645 273 -654.5 Q 263 -664 250.5 -668.5 Q 238 -673 224 -673 Q 208 -673 193.5 -665 Q 179 -657 170 -644 Q 161 -631 155.5 -615.5 Q 150 -600 147 -584 Q 144 -568 143 -552 Q 142 -536 142 -520 L 142 -515 L 445 -515 L 311 -271 Q 339 -266 364 -254 Q 389 -242 408 -222 Q 427 -202 437.5 -175.5 Q 448 -149 448 -122 Q 448 -70 432.5 -20 Q 417 30 390 73.5 Q 363 117 325.5 153 Q 288 189 243 215 L 204 154 Q 241 133 271 103.5 Q 301 74 323 38 Q 345 2 357.5 -39 Q 370 -80 370 -122 Q 370 -137 364 -151 Q 358 -165 347 -175 Q 336 -185 322 -191.5 Q 308 -198 293.5 -201.5 Q 279 -205 264 -205.5 Q 249 -206 234 -206 L 190 -206 L 321 -444 L 142 -444 L 142 215 Z " id="path1"/>
</defs>
<g>
<g data-source-text="ß" fill="#dee4e3" transform="translate(40 104.99201) rotate(0) scale(0.09599999)">
<use href="#path1" transform="translate(0 0)"/>
</g>
</g>
</svg>