<?xml version="1.0" encoding="UTF-8" standalone="no"?>
<svg height="160" viewBox="0 0 128 160" width="128" xmlns="http://www.w3.org/2000/svg">
<defs>
<path d="M 250 8 Q 212 8 175.5 -6.5 Q 139 -21 112 -47.5 Q 85 -74 70.5 -110.5 Q 56 -147 56 -185 Q 56 -214 64 -242.5 Q 72 -271 85.5 -297 Q 99 -323 118.5 -346 Q 138 -369 160 -387 Q 140 -403 123.5 -423.5 Q 107 -444 95.5 -467 Q 84 -490 77.5 -515.5 Q 71 -541 71 -567 Q 71 -591 76.5 -614 Q 82 -637 92.5 -658 Q 103 -679 120 -696 Q 137 -713 158 -724 Q 179 -735 202.5 -739 Q 226 -743 250 -743 Q 286 -743 319.5 -728.5 Q 353 -714 378 -688 Q 403 -662 415.5 -628 Q 428 -594 428 -558 Q 428 -531 422 -504.5 Q 416 -478 404.5 -453.5 Q 393 -429 377 -406.5 Q 361 -384 342 -365 Q 365 -349 384 -328 Q 403 -307 416.5 -282.5 Q 430 -258 437 -230.5 Q 444 -203 444 -175 Q 444 -150 438 -125 Q 432 -100 420 -78.5 Q 408 -57 389.5 -39.5 Q 371 -22 348 -11 Q 325 0 300 4 Q 275 8 250 8 Z M 271 -404 Q 288 -418 302.5 -435.5 Q 317 -453 327.5 -472.5 Q 338 -492 344.5 -513.5 Q 351 -535 351 -558 Q 351 -579 344.5 -600 Q 338 -621 324.5 -637 Q 311 -653 291 -663 Q 271 -673 250 -673 Q 229 -673 209 -666 Q 189 -659 175.5 -643.5 Q 162 -628 155.5 -607.5 Q 149 -587 149 -566 Q 149 -540 159 -514 Q 169 -488 185.5 -467 Q 202 -446 224.5 -431 Q 247 -416 271 -404 Z M 250 -62 Q 273 -62 295.5 -69 Q 318 -76 334.5 -92 Q 351 -108 358.5 -130.5 Q 366 -153 366 -176 Q 366 -205 355 -232 Q 344 -259 325 -281 Q 306 -303 281.5 -318 Q 257 -333 230 -346 Q 210 -332 192.5 -314.5 Q 175 -297 162 -276.5 Q 149 -256 141.5 -232.5 Q 134 -209 134 -185 Q 134 -161 142 -138.5 Q 150 -116 166 -98.5 Q 182 -81 204 -71.5 Q 226 -62 250 -62 Z " id="path1"/>
</defs>
<g>
<g data-source-text="8" fill="#20242e" transform="translate(40 104.99201) rotate(0) scale(0.09599999)">
<use href="#path1" transform="translate(0 0)"/>
</g>
</g>
</svg>