<svg xmlns="http://www.w3.org/2000/svg" height="160" viewBox="0 0 128 160" width="128"><defs><path d="M 64 0 L 64 -579 C 64 -593.6666 65.5 -608.5 68.50001 -623.5 C 71.49999 -638.5 76.49999 -652.6667 83.5 -666 C 90.5 -679.3334 99.66667 -691 111.00001 -701 C 122.33333 -711 134.66667 -719.3334 148 -726 C 161.33334 -732.6667 175.5 -737.1667 190.5 -739.50006 C 205.5 -741.8334 220.66666 -743.00006 236.00002 -743.00006 C 250.66667 -743.00006 265.16666 -741.6667 279.50003 -739 C 293.8333 -736.3333 307.5 -731.6667 320.5 -725 C 333.5 -718.3334 345 -709.6667 355.00003 -699.00006 C 365.00003 -688.3334 373.3333 -676.5 380 -663.5 C 386.66663 -650.5 391.16666 -636.8334 393.50003 -622.50006 C 395.83334 -608.1667 397 -593.6666 397 -579 C 397 -567.6667 395.83334 -556.5 393.50003 -545.5 C 391.16666 -534.5 387.3333 -524.1667 382.00003 -514.50006 C 376.6667 -504.8333 370.16666 -495.83334 362.5 -487.5 C 354.83334 -479.1667 346.66666 -471.66666 338.00003 -465 C 329.33334 -458.33334 320.1667 -452 310.50003 -446.00003 C 300.83334 -440 291.83334 -433.5 283.5 -426.50003 C 275.1667 -419.5 268 -411.1667 262 -401.5 C 256 -391.8333 253.00002 -381.33337 253.00002 -370.00003 C 253.00002 -356.66666 257.16666 -344.66666 265.50003 -334 C 273.8333 -323.33334 283.66666 -314.83334 295 -308.50003 C 306.33334 -302.16666 318.16666 -296.33334 330.50003 -291.00003 C 342.83337 -285.6667 354.50003 -279.66666 365.50003 -273 C 376.50003 -266.33334 386.83337 -258.5 396.5 -249.5 C 406.16666 -240.5 414.66666 -230.66667 422.00003 -220.00002 C 429.33334 -209.33333 434.83334 -197.66666 438.50003 -185.00002 C 442.16666 -172.33333 444.00003 -159.33333 444.00003 -146 C 444.00003 -132 442 -118.16667 438.00003 -104.50001 C 434.00003 -90.833336 428.1667 -78 420.5 -66 C 412.83334 -54 403.33334 -43.666668 392 -35.000004 C 380.66666 -26.333332 368.5 -19.333334 355.50003 -14 C 342.50003 -8.666667 329 -4.9999995 315 -3 C 301 -1 287 0 273 0 L 176 0 L 176 -70.00001 L 273 -70.00001 C 285 -70.00001 296.66666 -71.333336 308.00003 -74 C 319.33334 -76.666664 329.5 -81.666664 338.5 -89 C 347.49997 -96.333336 354.5 -105.50001 359.50003 -116.5 C 364.49997 -127.5 366.99997 -138.66666 367 -150.00002 C 366.99997 -162.66667 363.16666 -174.66669 355.50003 -186.00002 C 347.83337 -197.33334 338.50003 -206.33333 327.50003 -213 C 316.5 -219.66667 305 -225.5 293 -230.50002 C 281 -235.49998 269.33334 -241.16666 258 -247.50002 C 246.66667 -253.83334 235.99998 -261.1667 226.00002 -269.5 C 216 -277.83334 207.16667 -287.33334 199.50002 -298 C 191.83334 -308.6667 186 -320.1667 182 -332.5 C 178 -344.83334 176 -357.66666 176 -371.00003 C 176 -381.6667 177.5 -392.5 180.50002 -403.5 C 183.5 -414.5 187.66666 -424.66666 193 -434.00003 C 198.33333 -443.3333 204.83333 -452.16666 212.5 -460.50003 C 220.16666 -468.83334 228.33333 -476.33334 237.00002 -483 C 245.66667 -489.6667 254.83334 -495.83334 264.5 -501.50003 C 274.1667 -507.16663 283.33334 -513.5 292 -520.50006 C 300.66666 -527.5 307.3333 -536.1667 312 -546.5 C 316.66666 -556.8334 319 -567.6667 319.00003 -579 C 319 -591 317.5 -602.8333 314.5 -614.5 C 311.5 -626.1667 306.33334 -636.6667 299 -646 C 291.6667 -655.3333 282.16666 -662.1667 270.5 -666.50006 C 258.83334 -670.8334 247 -673.00006 235 -673.00006 C 222.33334 -673.00006 210 -671 198 -667 C 186 -662.99994 175.5 -656.6667 166.5 -648 C 157.5 -639.3333 151.16666 -628.8333 147.5 -616.50006 C 143.83333 -604.1667 142 -591.6667 142 -579 L 142 0 Z " id="path1"/></defs><g><g fill="#ffffff" transform="translate(40 105.20961) rotate(0)"><use href="#path1" transform="translate(0 0) scale(0.09599999)"/></g></g></svg>