<svg xmlns="http://www.w3.org/2000/svg" height="160" viewBox="0 0 128 160" width="128"><defs><path d="M 194.00002 215 L 163 151 C 181 142.99998 198.5 133.5 215.5 122.50001 C 232.5 111.5 248.5 99.5 263.5 86.5 C 278.5 73.5 292.5 59.166668 305.50003 43.500004 C 318.5 27.833334 329.66666 11.166667 339 -6.5000005 C 348.33334 -24.166664 355.83334 -42.83333 361.5 -62.5 C 367.16666 -82.166664 369.99997 -102 370.00003 -122 C 369.99997 -132 368 -141.66667 364 -151 C 360 -160.33334 354.33334 -168.33334 347 -175 C 339.6667 -181.66666 331.33334 -187.16666 322.00003 -191.50002 C 312.6667 -195.83333 303.1667 -199.16666 293.5 -201.5 C 283.83334 -203.83334 274 -205.16666 264 -205.50002 C 254 -205.83334 244 -206.00002 234.00002 -206.00002 L 190 -206.00002 L 321 -444.00003 L 142 -444.00003 L 142 0 C 142 19.333332 139.66666 38.666668 135 58 C 130.33333 77.333336 122.666664 95.166664 112 111.50001 C 101.333336 127.83333 88 141.83333 72.00001 153.5 C 56 165.16666 38.833332 174.5 20.500002 181.5 C 2.1666675 188.5 -16.833334 193.33333 -36.5 196 C -56.16666 198.66667 -75.666664 200.00002 -95 200.00002 L -95 130.00002 C -82.333336 130 -69.5 129.16667 -56.500004 127.5 C -43.499996 125.833336 -30.833332 122.833336 -18.5 118.50001 C -6.166667 114.166664 5.333334 108.16666 16 100.5 C 26.666666 92.833336 35.666668 83.833336 43.000004 73.50001 C 50.333332 63.16667 55.666668 51.5 59.000004 38.500004 C 62.333332 25.5 64 12.666667 64 0 L 64 -520.00006 C 64 -537.3334 64.833336 -554.6666 66.5 -572 C 68.166664 -589.3334 71.5 -606.1667 76.5 -622.50006 C 81.5 -638.8334 88.33333 -654.6667 97.00001 -670 C 105.66667 -685.3334 116.5 -698.6667 129.5 -710.00006 C 142.5 -721.3334 157.33334 -729.6666 174.00002 -735 C 190.66666 -740.3333 207.66666 -743.00006 225.00002 -743.00006 C 240.33334 -743.00006 255.83336 -741.00006 271.50003 -737 C 287.1667 -733 301.16666 -726.16675 313.50003 -716.50006 C 325.83334 -706.8334 336.50003 -695.5 345.5 -682.50006 C 354.5 -669.5 361.83334 -655.6666 367.5 -641 C 373.16666 -626.3333 377.33334 -611.1666 380 -595.5 C 382.6667 -579.8333 384 -564 384 -548.00006 L 306 -548.00006 C 305.99997 -557.3333 305.5 -566.6667 304.5 -576.00006 C 303.5 -585.3334 301.66666 -594.3334 299 -603 C 296.33334 -611.6667 293.16666 -620.3334 289.5 -629 C 285.8333 -637.6666 280.83334 -645.3333 274.5 -652 C 268.16666 -658.6667 260.66666 -663.8334 252 -667.50006 C 243.33334 -671.1667 234.33334 -673.00006 225.00002 -673.00006 C 214.33334 -673.00006 204.16667 -670.3333 194.50002 -665 C 184.83333 -659.6667 176.83334 -652.6667 170.5 -644.00006 C 164.16667 -635.3334 159.16667 -625.8334 155.50002 -615.50006 C 151.83334 -605.1667 149 -594.6667 147.00002 -584 C 145 -573.3333 143.66667 -562.6667 143 -552 C 142.33333 -541.3333 142 -530.6667 142 -520.00006 L 142 -515 L 445.00003 -515 L 311.00003 -271.00003 C 329.66666 -267.66666 347.3333 -262 364 -254.00002 C 380.66666 -246 395.33334 -235.33333 408 -222.00002 C 420.66666 -208.66667 430.5 -193.16666 437.5 -175.5 C 444.49997 -157.83333 447.99997 -140 448 -122 C 447.99997 -97.333336 444.66663 -73 438.00003 -49 C 431.3333 -25.000002 422.1667 -1.9999992 410.50003 20.000002 C 398.8333 41.999996 385.16666 62.666668 369.5 82.00001 C 353.83334 101.333336 336.83334 119.16668 318.5 135.50002 C 300.16666 151.83334 280.5 166.66667 259.5 180.00002 C 238.5 193.33336 216.66667 205.00002 194.00002 215 Z " id="path1"/></defs><g><g fill="#000000" transform="translate(40 105.20961) rotate(0)"><use href="#path1" transform="translate(0 0) scale(0.09599999)"/></g></g></svg>