<svg xmlns="http://www.w3.org/2000/svg" height="160" viewBox="0 0 128 160" width="128"><defs><path d="M 248.00002 8 C 230.66667 8 213.49998 6.1666665 196.50002 2.5000002 C 179.49998 -1.1666665 163.33333 -7.3333335 148 -16 C 132.66667 -24.666666 119 -35.5 107.00001 -48.500004 C 95 -61.5 85.166664 -75.833336 77.5 -91.50001 C 69.83333 -107.16667 64.33333 -123.666664 61 -141 C 57.666668 -158.33333 55.999996 -175.66666 56 -193 C 55.999996 -211.66667 58 -230.49998 62.000004 -249.5 C 66 -268.49997 72.83333 -286.33334 82.5 -303 C 92.166664 -319.6667 104.16667 -334.66666 118.50001 -348.00003 C 132.83334 -361.33334 148.66667 -371.6667 166 -379 C 150.66667 -387.00003 136.83333 -397.3333 124.5 -410.00003 C 112.166664 -422.6667 102 -436.66666 94.00001 -452.00003 C 86 -467.33334 80.333336 -483.6667 77.00001 -501.00003 C 73.66667 -518.3333 72 -535.6666 72.00001 -553 C 72 -569 73.5 -585.1667 76.5 -601.5 C 79.5 -617.8334 84.5 -633.50006 91.50001 -648.5 C 98.5 -663.5 107.666664 -677.1666 119 -689.50006 C 130.33333 -701.8334 143.16667 -712.00006 157.5 -720.00006 C 171.83333 -728 187 -733.8333 203.00002 -737.50006 C 218.99998 -741.1667 235.33333 -743.00006 252 -743.00006 C 268 -743.00006 284 -741.1667 300.00003 -737.50006 C 316 -733.8333 330.99997 -727.8334 345 -719.5 C 359.00003 -711.1666 371.33337 -700.8333 382.00003 -688.5 C 392.66666 -676.1667 401.5 -662.5 408.5 -647.5 C 415.50003 -632.5 420.5 -616.99994 423.50003 -601 C 426.50003 -585 428 -569 428.00003 -553 C 428 -535.6666 426.33337 -518.3333 423.00003 -501.00003 C 419.6667 -483.6667 414 -467.33334 406.00003 -452.00003 C 398 -436.66666 387.83337 -422.6667 375.5 -410.00003 C 363.16666 -397.3333 349.33328 -387.00003 334 -379 C 351.3333 -371.6667 367.1667 -361.33334 381.50003 -348.00003 C 395.83334 -334.66666 407.83334 -319.6667 417.50003 -303 C 427.1667 -286.33334 434.00003 -268.49997 438.00003 -249.5 C 442 -230.49998 444.00003 -211.66667 444.00003 -193 C 444.00003 -175 442.3333 -157.33334 439.00003 -140.00002 C 435.66666 -122.66667 430 -106.166664 422.00003 -90.5 C 414 -74.83333 403.8333 -60.499996 391.5 -47.5 C 379.16666 -34.5 365.33334 -23.833332 350 -15.500001 C 334.66666 -7.166667 318.33334 -1.1666665 301 2.5000002 C 283.66666 6.1666665 266 8 248.00002 8 Z M 250 -413 C 266 -412.99997 280.83334 -417.3333 294.5 -426 C 308.16666 -434.66666 319.16666 -445.83334 327.50003 -459.5 C 335.8333 -473.1667 341.66666 -487.83334 345 -503.5 C 348.33334 -519.1666 350 -535 350 -551 C 350 -565.6666 348.33334 -580.3333 345 -595 C 341.66666 -609.6667 335.66666 -623 327 -635 C 318.33334 -647 307 -656.49994 293 -663.5 C 279 -670.5 264.66666 -673.99994 250 -674.00006 C 235.33333 -673.99994 221 -670.5 207 -663.5 C 193 -656.49994 181.66667 -647 173 -635 C 164.33334 -623 158.33334 -609.6667 155 -595 C 151.66667 -580.3333 150 -565.6666 150.00002 -551 C 150 -535 151.66667 -519.1666 155 -503.5 C 158.33334 -487.83334 164.16667 -473.1667 172.5 -459.5 C 180.83333 -445.83334 191.83334 -434.66666 205.50002 -426 C 219.16669 -417.3333 234.00002 -412.99997 250 -413 Z M 250 -61 C 266.66666 -61 282.8333 -64.5 298.5 -71.5 C 314.1667 -78.5 327.1667 -88.50001 337.50003 -101.50001 C 347.8333 -114.5 355.1667 -129.16667 359.50003 -145.50002 C 363.83337 -161.83333 366.00003 -178.33333 366.00003 -195 C 366.00003 -212.33333 364 -229.66667 360.00003 -247 C 356.00003 -264.33334 349 -280.33334 339 -295 C 329 -309.6667 316 -321.33334 300.00003 -330 C 284 -338.6667 267.33334 -343.00003 250 -343.00003 C 232.66666 -343.00003 216 -338.6667 200.00002 -330 C 184 -321.33334 171.00002 -309.6667 161.00002 -295 C 151 -280.33334 144 -264.33334 140.00002 -247 C 136 -229.66667 134 -212.33333 134 -195 C 134 -178.33333 136.16667 -161.83333 140.5 -145.50002 C 144.83334 -129.16667 152.16667 -114.5 162.50002 -101.50001 C 172.83333 -88.50001 185.83334 -78.5 201.5 -71.5 C 217.16667 -64.5 233.33334 -61 250 -61 Z " id="path1"/></defs><g><g fill="#000000" transform="translate(40 105.20961) rotate(0)"><use href="#path1" transform="translate(0 0) scale(0.09599999)"/></g></g></svg>