<svg xmlns="http://www.w3.org/2000/svg" height="160" viewBox="0 0 128 160" width="128"><defs><path d="M 64 0 L 64 -520.00006 C 64 -538.00006 65.166664 -556 67.5 -574 C 69.83333 -592 73.833336 -609.5 79.5 -626.5 C 85.166664 -643.5 93.166664 -659.6667 103.5 -675.00006 C 113.83333 -690.3334 126.33333 -703.3334 141 -714 C 155.66666 -724.6666 171.83333 -732.1666 189.5 -736.50006 C 207.16667 -740.8333 225.00002 -743.00006 243.00002 -743.00006 C 259.66666 -743.00006 276 -741.3334 292 -738 C 308 -734.6667 323 -729.00006 337.00003 -721.00006 C 351 -713 363.3333 -702.8334 374 -690.50006 C 384.66666 -678.16675 393.3333 -664.6667 400.00003 -650.00006 C 406.6667 -635.3333 411.6667 -620 415 -604 C 418.3333 -588 420 -572 420 -556 C 420 -539.3333 418.3333 -522.6667 415 -506.00003 C 411.6667 -489.3333 406.6667 -473.5 400.00003 -458.5 C 393.3333 -443.49997 385 -429.16666 375 -415.50003 C 365.00003 -401.83334 353.6667 -389.6667 341 -379 C 357 -370.99997 371.83334 -360.83334 385.5 -348.50003 C 399.1667 -336.16666 410.49997 -322.16666 419.5 -306.5 C 428.5 -290.83334 434.83334 -273.83334 438.50003 -255.5 C 442.16666 -237.16667 444.00003 -218.99998 444.00003 -201 C 444.00003 -182.33334 442 -163.5 438.00003 -144.5 C 434.00003 -125.5 427.00003 -107.83333 417.00003 -91.50001 C 407 -75.166664 394.33334 -60.833332 379 -48.500004 C 363.66666 -36.166668 347.16666 -26.333332 329.5 -19 C 311.83334 -11.666667 293.5 -6.6666665 274.5 -4 C 255.5 -1.3333335 236.33334 0 217.00002 0 L 204 0 L 204 -70.00001 L 217.00002 -70.00001 C 229.66667 -70.00001 242.16669 -70.833336 254.50002 -72.5 C 266.83334 -74.166664 278.8333 -77.333336 290.5 -82.00001 C 302.16666 -86.666664 313 -93 323 -101.00001 C 333 -109 341.33337 -118.33334 348.00003 -129 C 354.6667 -139.66667 359.3333 -151.16667 362 -163.5 C 364.6667 -175.83334 366.00003 -188.33334 366.00003 -201 C 366.00003 -219.66664 362.50003 -238.16666 355.50003 -256.5 C 348.50003 -274.83334 337.6667 -289.83334 323 -301.5 C 308.3333 -313.16666 291.66666 -321.16666 273 -325.50003 C 254.33334 -329.83334 235.66669 -332 217.00002 -332 L 217.00002 -403 C 235.66669 -402.99997 253.16669 -407.5 269.5 -416.50003 C 285.83334 -425.5 299.50003 -437.3333 310.50003 -452.00003 C 321.5 -466.6667 329.5 -482.8333 334.5 -500.50003 C 339.5 -518.1666 342.00003 -536 342.00003 -554.00006 C 342.00003 -568.6667 340.3333 -583.1667 337.00003 -597.5 C 333.66666 -611.8334 327.66666 -624.8333 319.00003 -636.5 C 310.3333 -648.1667 299.3333 -657.1667 286 -663.5 C 272.66666 -669.8334 258.66666 -673.00006 244 -673.00006 C 232.66666 -673.00006 221.33333 -671 210 -667 C 198.66666 -662.99994 189 -657 181 -649 C 173 -641 166.5 -631.6667 161.5 -621.00006 C 156.5 -610.3333 152.50002 -599.5 149.5 -588.50006 C 146.5 -577.5 144.5 -566.1667 143.5 -554.50006 C 142.5 -542.8334 142 -531.3334 142 -520.00006 L 142 0 Z " id="path1"/></defs><g><g fill="#000000" transform="translate(40 105.20961) rotate(0)"><use href="#path1" transform="translate(0 0) scale(0.09599999)"/></g></g></svg>