<?xml version="1.0" encoding="UTF-8" standalone="no"?>
<svg height="160" viewBox="0 0 128 160" width="128" xmlns="http://www.w3.org/2000/svg">
<defs>
<path d="M 194 215 L 163 151 Q 190 139 215.5 122.5 Q 241 106 263.5 86.5 Q 286 67 305.5 43.5 Q 325 20 339 -6.5 Q 353 -33 361.5 -62.5 Q 370 -92 370 -122 Q 370 -137 364 -151 Q 358 -165 347 -175 Q 336 -185 322 -191.5 Q 308 -198 293.5 -201.5 Q 279 -205 264 -205.5 Q 249 -206 234 -206 L 190 -206 L 321 -444 L 142 -444 L 142 -70 L 188 -70 L 188 0 L 18 0 L 18 -70 L 64 -70 L 64 -403 L 18 -403 L 18 -473 L 64 -473 L 64 -566 Q 64 -589 68 -611.5 Q 72 -634 82 -654 Q 92 -674 108.5 -690.5 Q 125 -707 145 -717 Q 165 -727 187.5 -731 Q 210 -735 233 -735 L 382 -735 L 382 -665 L 233 -665 Q 214 -665 195.5 -658.5 Q 177 -652 164.5 -637.5 Q 152 -623 147 -604 Q 142 -585 142 -566 L 142 -515 L 445 -515 L 311 -271 Q 339 -266 364 -254 Q 389 -242 408 -222 Q 427 -202 437.5 -175.5 Q 448 -149 448 -122 Q 448 -85 438 -49 Q 428 -13 410.5 20 Q 393 53 369.5 82 Q 346 111 318.5 135.5 Q 291 160 259.5 180 Q 228 200 194 215 Z " id="path1"/>
</defs>
<g>
<g data-source-text="ß" fill="#dee4e3" transform="translate(40 104.99201) rotate(0) scale(0.09599999)">
<use href="#path1" transform="translate(0 0)"/>
</g>
</g>
</svg>