<?xml version="1.0" encoding="UTF-8" standalone="no"?>
<svg height="160" viewBox="0 0 128 160" width="128" xmlns="http://www.w3.org/2000/svg">
<defs>
<path d="M -42 223 L -42 153 Q -21 153 0 146.5 Q 21 140 36 124.5 Q 51 109 57.5 88 Q 64 67 64 46 L 64 -450 L 18 -450 L 18 -520 L 64 -520 L 64 -579 Q 64 -601 68 -623 Q 72 -645 82 -664.5 Q 92 -684 108 -700 Q 124 -716 144 -725.5 Q 164 -735 186 -739 Q 208 -743 230 -743 Q 252 -743 274 -739 Q 296 -735 315.5 -725.5 Q 335 -716 351 -700 Q 367 -684 377.5 -664.5 Q 388 -645 391.5 -623 Q 395 -601 395 -579 Q 395 -562 391.5 -545.5 Q 388 -529 380 -514.5 Q 372 -500 360.5 -487.5 Q 349 -475 336 -465 Q 323 -455 308.5 -446.5 Q 294 -438 281 -427 Q 268 -416 259.5 -401.5 Q 251 -387 251 -370 Q 251 -350 263.5 -334 Q 276 -318 293 -308 Q 310 -298 328.5 -290.5 Q 347 -283 364 -273 Q 381 -263 395.5 -250 Q 410 -237 421 -220.5 Q 432 -204 438 -185 Q 444 -166 444 -146 Q 444 -125 438 -104.5 Q 432 -84 420.5 -66 Q 409 -48 392 -35 Q 375 -22 355.5 -14 Q 336 -6 315 -3 Q 294 0 273 0 L 176 0 L 176 -68 L 273 -68 Q 291 -68 308.5 -72 Q 326 -76 340 -87.5 Q 354 -99 361.5 -115.5 Q 369 -132 369 -150 Q 369 -169 358 -186 Q 347 -203 330 -213.5 Q 313 -224 295 -231 Q 277 -238 260 -247.5 Q 243 -257 227.5 -269.5 Q 212 -282 200.5 -297.5 Q 189 -313 182.5 -332 Q 176 -351 176 -371 Q 176 -387 180.5 -403.5 Q 185 -420 193.5 -434 Q 202 -448 213.5 -460.5 Q 225 -473 238 -483 Q 251 -493 265.5 -501.5 Q 280 -510 293 -520.5 Q 306 -531 313 -546.5 Q 320 -562 320 -579 Q 320 -598 315 -616 Q 310 -634 298 -648 Q 286 -662 268 -668 Q 250 -674 231 -674 Q 212 -674 194 -668 Q 176 -662 164 -648 Q 152 -634 147 -616 Q 142 -598 142 -579 L 142 46 Q 142 70 137.5 94 Q 133 118 121.5 139.5 Q 110 161 92 177.5 Q 74 194 52 204.5 Q 30 215 6 219 Q -18 223 -42 223 Z " id="path1"/>
</defs>
<g>
<g data-source-text="ß" fill="#dee4e3" transform="translate(40 104.99201) rotate(0) scale(0.09599999)">
<use href="#path1" transform="translate(0 0)"/>
</g>
</g>
</svg>