<?xml version="1.0" encoding="UTF-8" standalone="no"?>
<svg height="160" viewBox="0 0 128 160" width="128" xmlns="http://www.w3.org/2000/svg">
<defs>
<path d="M 250 8 Q 223 8 196.5 2.5 Q 170 -3 146.5 -16 Q 123 -29 104.5 -49.5 Q 86 -70 75 -94.5 Q 64 -119 60 -146 Q 56 -173 56 -200 L 56 -261 L 50 -279 Q 51 -279 52.5 -280 Q 54 -281 56 -281 L 56 -320 Q 56 -347 60 -374 Q 64 -401 75.5 -425.5 Q 87 -450 105 -470.5 Q 123 -491 146.5 -504.5 Q 170 -518 197 -523 Q 224 -528 251 -528 Q 274 -528 298 -525 Q 322 -522 344 -513.5 Q 366 -505 385.5 -491 Q 405 -477 418.5 -457.5 Q 432 -438 438 -414.5 Q 444 -391 444 -367 Q 444 -344 438.5 -321.5 Q 433 -299 419.5 -280.5 Q 406 -262 387 -249 Q 368 -236 347 -228 Q 326 -220 303 -216 Q 280 -212 258 -212 Q 243 -212 229 -213.5 Q 215 -215 201 -216.5 Q 187 -218 173 -219 Q 159 -220 145 -220 L 134 -220 L 134 -200 Q 134 -183 136 -166 Q 138 -149 144 -133 Q 150 -117 160.5 -103 Q 171 -89 185 -79.5 Q 199 -70 216 -66 Q 233 -62 250 -62 Q 270 -62 289.5 -65.5 Q 309 -69 326 -79.5 Q 343 -90 353.5 -107.5 Q 364 -125 364 -145 L 442 -145 Q 442 -122 434.5 -100 Q 427 -78 413.5 -59.5 Q 400 -41 381 -27.5 Q 362 -14 340.5 -6 Q 319 2 296 5 Q 273 8 250 8 Z M 256 -282 Q 269 -282 282 -284 Q 295 -286 307.5 -290 Q 320 -294 331.5 -301 Q 343 -308 351 -318.5 Q 359 -329 362.5 -341.5 Q 366 -354 366 -367 Q 366 -388 356.5 -407.5 Q 347 -427 330 -438.5 Q 313 -450 292 -454 Q 271 -458 251 -458 Q 234 -458 217 -454 Q 200 -450 185.5 -440.5 Q 171 -431 160.5 -417 Q 150 -403 144 -387 Q 138 -371 136 -354 Q 134 -337 134 -320 L 134 -296 Q 149 -296 164.5 -294 Q 180 -292 195 -289.5 Q 210 -287 225.5 -284.5 Q 241 -282 256 -282 Z " id="path1"/>
</defs>
<g>
<g data-source-text="e" fill="#20242e" transform="translate(40 104.99201) rotate(0) scale(0.09599999)">
<use href="#path1" transform="translate(0 0)"/>
</g>
</g>
</svg>