<?xml version="1.0" encoding="UTF-8" standalone="no"?>
<svg height="160" viewBox="0 0 128 160" width="128" xmlns="http://www.w3.org/2000/svg">
<defs>
<path d="M -42 223 L -42 153 Q -21 153 0 146.5 Q 21 140 36 124.5 Q 51 109 57.5 88 Q 64 67 64 46 L 64 -403 L 18 -403 L 18 -473 L 64 -473 L 64 -579 Q 64 -601 68.5 -623.5 Q 73 -646 83.5 -666 Q 94 -686 111 -701 Q 128 -716 148 -726 Q 168 -736 190.5 -739.5 Q 213 -743 236 -743 Q 257 -743 279 -739 Q 301 -735 320.5 -725 Q 340 -715 355 -699.5 Q 370 -684 379.5 -664 Q 389 -644 393 -622.5 Q 397 -601 397 -579 Q 397 -562 393.5 -545.5 Q 390 -529 382 -514.5 Q 374 -500 362.5 -487.5 Q 351 -475 338 -465 Q 325 -455 310.5 -446 Q 296 -437 283.5 -426.5 Q 271 -416 262 -401.5 Q 253 -387 253 -370 Q 253 -350 265.5 -334 Q 278 -318 295 -308.5 Q 312 -299 330.5 -291 Q 349 -283 365.5 -273 Q 382 -263 396.5 -249.5 Q 411 -236 422 -220 Q 433 -204 438.5 -185 Q 444 -166 444 -146 Q 444 -125 438 -104.5 Q 432 -84 420.5 -66 Q 409 -48 392 -35 Q 375 -22 355.5 -14 Q 336 -6 315 -3 Q 294 0 273 0 L 176 0 L 176 -70 L 273 -70 Q 291 -70 308 -74.5 Q 325 -79 338.5 -89.5 Q 352 -100 359.5 -116.5 Q 367 -133 367 -150 Q 367 -169 355.5 -186 Q 344 -203 327.5 -213 Q 311 -223 293 -230.5 Q 275 -238 258 -248 Q 241 -258 226 -270 Q 211 -282 199.5 -298 Q 188 -314 182 -332.5 Q 176 -351 176 -371 Q 176 -387 180.5 -403.5 Q 185 -420 193 -434 Q 201 -448 212.5 -460.5 Q 224 -473 237 -483 Q 250 -493 264.5 -501.5 Q 279 -510 292 -520.5 Q 305 -531 312 -546.5 Q 319 -562 319 -579 Q 319 -597 314.5 -614.5 Q 310 -632 299 -646 Q 288 -660 270.5 -666.5 Q 253 -673 235 -673 Q 216 -673 198 -667 Q 180 -661 166.5 -648 Q 153 -635 147.5 -616.5 Q 142 -598 142 -579 L 142 46 Q 142 70 137.5 94 Q 133 118 121.5 139.5 Q 110 161 92 177.5 Q 74 194 52 204.5 Q 30 215 6 219 Q -18 223 -42 223 Z " id="path1"/>
</defs>
<g>
<g data-source-text="ß" fill="#dee4e3" transform="translate(40 104.99201) rotate(0) scale(0.09599999)">
<use href="#path1" transform="translate(0 0)"/>
</g>
</g>
</svg>