<?xml version="1.0" encoding="UTF-8" standalone="no"?>
<svg height="160" viewBox="0 0 128 160" width="128" xmlns="http://www.w3.org/2000/svg">
<defs>
<path d="M 56 0 L 56 -70 L 170 -70 L 170 -450 L 109 -450 L 109 -520 L 170 -520 L 170 -579 Q 170 -599 172.5 -619 Q 175 -639 182 -658 Q 189 -677 200.5 -693.5 Q 212 -710 228.5 -721.5 Q 245 -733 265 -738 Q 285 -743 305 -743 Q 332 -743 358.5 -733.5 Q 385 -724 403.5 -704 Q 422 -684 430.5 -657 Q 439 -630 439 -603 L 439 -600 L 362 -600 L 362 -601 Q 362 -614 359 -627 Q 356 -640 348.5 -650.5 Q 341 -661 329 -667 Q 317 -673 304 -673 Q 289 -673 276.5 -663 Q 264 -653 258 -639 Q 252 -625 250 -609.5 Q 248 -594 248 -579 L 248 -520 L 410 -520 L 410 -450 L 248 -450 L 248 -70 L 402 -70 L 402 0 Z " id="path1"/>
</defs>
<g>
<g data-source-text="f" fill="#20242e" transform="translate(40 104.99201) rotate(0) scale(0.09599999)">
<use href="#path1" transform="translate(0 0)"/>
</g>
</g>
</svg>