<?xml version="1.0" encoding="UTF-8" standalone="no"?>
<svg height="160" viewBox="0 0 128 160" width="128" xmlns="http://www.w3.org/2000/svg">
<defs>
<path d="M 64 215 L 64 145 L 119 145 Q 136 145 151.5 139.5 Q 167 134 177.5 121.5 Q 188 109 192 93 Q 196 77 196 60 L 196 -403 L 64 -403 L 64 -473 L 196 -473 L 196 -579 Q 196 -599 199 -619.5 Q 202 -640 209 -659 Q 216 -678 228.5 -694.5 Q 241 -711 258 -722.5 Q 275 -734 295.5 -738.5 Q 316 -743 336 -743 Q 364 -743 391 -734.5 Q 418 -726 437.5 -705.5 Q 457 -685 466 -658 Q 475 -631 475 -603 L 475 -595 L 397 -595 L 397 -599 Q 397 -613 394 -626.5 Q 391 -640 383 -651 Q 375 -662 362 -667.5 Q 349 -673 336 -673 Q 320 -673 306.5 -664 Q 293 -655 286 -641 Q 279 -627 276.5 -611 Q 274 -595 274 -579 L 274 -472 L 436 -472 L 436 -403 L 274 -403 L 274 60 Q 274 81 270.5 101.5 Q 267 122 258 141 Q 249 160 234 175 Q 219 190 200.5 199 Q 182 208 161 211.5 Q 140 215 119 215 Z " id="path1"/>
</defs>
<g>
<g data-source-text="f" fill="#dee4e3" transform="translate(40 104.99201) rotate(0) scale(0.09599999)">
<use href="#path1" transform="translate(0 0)"/>
</g>
</g>
</svg>