<svg xmlns="http://www.w3.org/2000/svg" height="160" viewBox="0 0 128 160" width="128"><defs><path d="M 64 215 L 64 145 L 134 145 C 144.66667 145 155.33333 143.16667 166 139.5 C 176.66666 135.83333 185.49998 129.83333 192.5 121.50001 C 199.50002 113.166664 204.33333 103.666664 207 93.00001 C 209.66667 82.333336 211.00002 71.333336 211.00002 60.000004 L 211.00002 -403 L 64 -403 L 64 -473.00003 L 211.00002 -473.00003 L 211.00002 -580 C 211.00002 -594 212.16667 -607.8333 214.50002 -621.50006 C 216.83331 -635.1667 221.16666 -648.3333 227.50002 -661.00006 C 233.83334 -673.6667 241.83334 -684.99994 251.50002 -695.00006 C 261.16666 -705 272.33334 -713 285 -719.00006 C 297.6667 -725 310.83334 -729.1667 324.5 -731.5 C 338.16666 -733.8333 352 -735 366.00003 -735 L 436 -735 L 436 -665 L 366.00003 -665 C 355.33334 -665 344.66666 -663.1667 334 -659.5 C 323.33334 -655.8334 314.5 -649.8333 307.5 -641.5 C 300.5 -633.1666 295.66666 -623.6667 293 -613 C 290.3333 -602.3333 289 -591.3333 289 -580 L 289 -473.00003 L 436 -473.00003 L 436 -403 L 289 -403 L 289 60.000004 C 289 74 287.83334 87.83333 285.50003 101.50001 C 283.16666 115.166664 278.8333 128.33333 272.5 141 C 266.16666 153.66667 258.1667 165 248.50002 175 C 238.83336 184.99998 227.66666 193 215 199 C 202.33334 205.00002 189.16667 209.16667 175.5 211.50002 C 161.83333 213.83334 148 215 134 215 Z " id="path1"/></defs><g><g fill="#ffffff" transform="translate(40 105.20961) rotate(0)"><use href="#path1" transform="translate(0 0) scale(0.09599999)"/></g></g></svg>