<?xml version="1.0" encoding="UTF-8" standalone="no"?>
<svg height="160" viewBox="0 0 128 160" width="128" xmlns="http://www.w3.org/2000/svg">
<defs>
<path d="M 191 193 L 191 -403 L 64 -403 L 64 -473 L 191 -473 L 191 -566 Q 191 -589 195 -611.5 Q 199 -634 209 -654.5 Q 219 -675 235 -691 Q 251 -707 271.5 -717 Q 292 -727 314.5 -731 Q 337 -735 360 -735 L 436 -735 L 436 -665 L 360 -665 Q 341 -665 322.5 -658.5 Q 304 -652 291 -637.5 Q 278 -623 273.5 -604 Q 269 -585 269 -566 L 269 -472 L 436 -472 L 436 -403 L 269 -403 L 269 193 Z " id="path1"/>
</defs>
<g>
<g data-source-text="f" fill="#dee4e3" transform="translate(40 104.99201) rotate(0) scale(0.09599999)">
<use href="#path1" transform="translate(0 0)"/>
</g>
</g>
</svg>