<svg xmlns="http://www.w3.org/2000/svg" height="160" viewBox="0 0 128 160" width="128"><defs><path d="M 191.00002 0 L 191.00002 -403 L 64 -403 L 64 -473.00003 L 191.00002 -473.00003 L 191.00002 -580 C 191.00002 -594 192.16667 -607.8333 194.50002 -621.50006 C 196.83334 -635.1667 201.16667 -648.3333 207.5 -661.00006 C 213.83334 -673.6667 221.83333 -684.99994 231.50002 -695.00006 C 241.16667 -705 252.33333 -713 265 -719.00006 C 277.66666 -725 290.8333 -729.1667 304.5 -731.5 C 318.16666 -733.8333 332 -735 346 -735 L 436 -735 L 436 -665 L 346 -665 C 334.66666 -665 323.8333 -663.1667 313.50003 -659.5 C 303.1667 -655.8334 294.5 -649.8333 287.5 -641.5 C 280.5 -633.1666 275.66666 -623.6667 273 -613 C 270.3333 -602.3333 268.99997 -591.3333 269 -580 L 269 -473.00003 L 436 -473.00003 L 436 -403 L 269 -403 L 269 0 Z " id="path1"/></defs><g><g fill="#000000" transform="translate(40 105.20961) rotate(0)"><use href="#path1" transform="translate(0 0) scale(0.09599999)"/></g></g></svg>