<?xml version="1.0" encoding="UTF-8" standalone="no"?>
<svg height="160" viewBox="0 0 128 160" width="128" xmlns="http://www.w3.org/2000/svg">
<defs>
<path d="M 71 0 L 71 -70 L 175 -70 L 175 -450 L 64 -450 L 64 -520 L 175 -520 L 175 -579 Q 175 -599 177.5 -619.5 Q 180 -640 187.5 -659 Q 195 -678 207 -694.5 Q 219 -711 236 -722.5 Q 253 -734 273.5 -738.5 Q 294 -743 314 -743 Q 342 -743 369.5 -734.5 Q 397 -726 416 -705.5 Q 435 -685 444 -658 Q 453 -631 453 -603 L 453 -595 L 375 -595 L 375 -599 Q 375 -613 372 -626.5 Q 369 -640 361 -651 Q 353 -662 340.5 -667.5 Q 328 -673 314 -673 Q 298 -673 284.5 -664 Q 271 -655 264 -641 Q 257 -627 254.5 -611 Q 252 -595 252 -579 L 252 -520 L 417 -520 L 417 -450 L 252 -450 L 252 -70 L 390 -70 L 390 0 Z " id="path1"/>
</defs>
<g>
<g data-source-text="f" fill="#20242e" transform="translate(40 104.99201) rotate(0) scale(0.09599999)">
<use href="#path1" transform="translate(0 0)"/>
</g>
</g>
</svg>