<?xml version="1.0" encoding="UTF-8" standalone="no"?>
<svg height="160" viewBox="0 0 128 160" width="128" xmlns="http://www.w3.org/2000/svg">
<defs>
<path d="M 180 223 Q 165 223 150 219.5 Q 135 216 123 206 L -41 71 L 3 23 L 168 158 Q 170 160 173.5 160 Q 177 160 180 160 Q 188 160 192 152 Q 196 144 196 136 L 196 -403 L 64 -403 L 64 -473 L 196 -473 L 196 -579 Q 196 -599 199 -619.5 Q 202 -640 209 -659 Q 216 -678 228.5 -694.5 Q 241 -711 258 -722.5 Q 275 -734 295 -738.5 Q 315 -743 336 -743 Q 364 -743 391 -734 Q 418 -725 437 -705 Q 456 -685 465.5 -658 Q 475 -631 475 -603 L 475 -600 L 397 -600 L 397 -601 Q 397 -615 393.5 -628 Q 390 -641 382 -651.5 Q 374 -662 361.5 -667.5 Q 349 -673 336 -673 Q 320 -673 306.5 -664 Q 293 -655 286 -640.5 Q 279 -626 276.5 -610.5 Q 274 -595 274 -579 L 274 -473 L 436 -473 L 436 -403 L 274 -403 L 274 136 Q 274 154 268 172 Q 262 190 248 202 Q 234 214 216 218.5 Q 198 223 180 223 Z " id="path1"/>
</defs>
<g>
<g data-source-text="f" fill="#20242e" transform="translate(40 104.99201) rotate(0) scale(0.09599999)">
<use href="#path1" transform="translate(0 0)"/>
</g>
</g>
</svg>