<?xml version="1.0" encoding="UTF-8" standalone="no"?>
<svg height="160" viewBox="0 0 128 160" width="128" xmlns="http://www.w3.org/2000/svg">
<defs>
<path d="M 175 193 L 175 -403 L 64 -403 L 64 -473 L 175 -473 L 175 -579 Q 175 -599 177.5 -619.5 Q 180 -640 187.5 -659 Q 195 -678 207.5 -694.5 Q 220 -711 236.5 -722.5 Q 253 -734 273.5 -738.5 Q 294 -743 314 -743 Q 342 -743 369 -734 Q 396 -725 415.5 -705 Q 435 -685 444 -658 Q 453 -631 453 -603 L 453 -600 L 375 -600 L 375 -601 Q 375 -615 371.5 -628 Q 368 -641 360 -651.5 Q 352 -662 339.5 -667.5 Q 327 -673 314 -673 Q 298 -673 284.5 -664 Q 271 -655 264 -640.5 Q 257 -626 254.5 -610.5 Q 252 -595 252 -579 L 252 -473 L 417 -473 L 417 -403 L 252 -403 L 252 193 Z " id="path1"/>
</defs>
<g>
<g data-source-text="f" fill="#dee4e3" transform="translate(40 104.99201) rotate(0) scale(0.09599999)">
<use href="#path1" transform="translate(0 0)"/>
</g>
</g>
</svg>