<?xml version="1.0" encoding="UTF-8" standalone="no"?>
<svg height="160" viewBox="0 0 128 160" width="128" xmlns="http://www.w3.org/2000/svg">
<defs>
<path d="M 195 223 Q 180 223 165 219.5 Q 150 216 138 206 L -26 71 L 18 23 L 182 158 Q 185 160 188.5 160 Q 192 160 195 160 Q 203 160 207 152 Q 211 144 211 136 L 211 -450 L 64 -450 L 64 -520 L 211 -520 L 211 -566 Q 211 -589 215 -611.5 Q 219 -634 229 -654.5 Q 239 -675 255 -691 Q 271 -707 291.5 -717 Q 312 -727 334.5 -731 Q 357 -735 380 -735 L 436 -735 L 436 -665 L 380 -665 Q 361 -665 342.5 -658.5 Q 324 -652 311.5 -637.5 Q 299 -623 294 -604 Q 289 -585 289 -566 L 289 -520 L 436 -520 L 436 -450 L 289 -450 L 289 136 Q 289 154 282.5 172 Q 276 190 262.5 202 Q 249 214 231 218.5 Q 213 223 195 223 Z " id="path1"/>
</defs>
<g>
<g data-source-text="f" fill="#20242e" transform="translate(40 104.99201) rotate(0) scale(0.09599999)">
<use href="#path1" transform="translate(0 0)"/>
</g>
</g>
</svg>