<svg xmlns="http://www.w3.org/2000/svg" height="160" viewBox="0 0 128 160" width="128"><defs><path d="M 175 193 L 175 -403 L 64 -403 L 64 -473.00003 L 175 -473.00003 L 175 -579 C 175 -592.3333 175.83333 -605.8334 177.50002 -619.5 C 179.16669 -633.1667 182.50002 -646.3334 187.5 -659 C 192.5 -671.6666 198.99998 -683.6666 207 -695.00006 C 215 -706.3333 224.83334 -715.6666 236.50002 -723 C 248.16667 -730.33325 260.66666 -735.49994 274.00003 -738.50006 C 287.33334 -741.5 300.6667 -743.00006 314.00003 -743.00006 C 332.66666 -743.00006 351.16666 -740.1667 369.5 -734.50006 C 387.83334 -728.8334 403.33334 -719.1666 416.00003 -705.5 C 428.6667 -691.8334 438.00003 -676 444.00003 -658 C 449.99997 -640 453 -621.6667 453 -603 C 453 -601.6667 453 -600.3333 453 -599.00006 C 453 -597.6667 453 -596.3333 453 -595 L 375 -595 C 375 -595.6667 375 -596.3333 375 -597 C 375 -597.6667 375 -598.3334 375 -599.00006 C 375 -608.3334 374 -617.5 372.00003 -626.5 C 370.00003 -635.5 366.33334 -643.6667 361.00003 -651.00006 C 355.6667 -658.3334 348.83334 -663.8334 340.5 -667.50006 C 332.16666 -671.1667 323.33334 -673.00006 314.00003 -673.00006 C 303.33334 -673.00006 293.5 -670 284.5 -664 C 275.5 -658 268.6667 -650.3334 264 -641 C 259.33334 -631.6667 256.1667 -621.6667 254.50002 -611.00006 C 252.83333 -600.3334 251.99998 -589.6667 252 -579 L 252 -473.00003 L 417.00003 -473.00003 L 417.00003 -402 L 252 -402 L 252 193 Z " id="path1"/></defs><g><g fill="#000000" transform="translate(40 105.20961) rotate(0)"><use href="#path1" transform="translate(0 0) scale(0.09599999)"/></g></g></svg>