<?xml version="1.0" encoding="UTF-8" standalone="no"?>
<svg height="160" viewBox="0 0 128 160" width="128" xmlns="http://www.w3.org/2000/svg">
<defs>
<path d="M 64 215 L 64 145 L 105 145 Q 125 145 143.5 138.5 Q 162 132 174.5 117.5 Q 187 103 191.5 84 Q 196 65 196 46 L 196 -450 L 64 -450 L 64 -520 L 196 -520 L 196 -579 Q 196 -599 199 -619.5 Q 202 -640 209 -659 Q 216 -678 228.5 -694.5 Q 241 -711 258 -722.5 Q 275 -734 295 -738.5 Q 315 -743 336 -743 Q 364 -743 391 -734 Q 418 -725 437 -705 Q 456 -685 465.5 -658 Q 475 -631 475 -603 L 475 -600 L 397 -600 L 397 -601 Q 397 -615 393.5 -628 Q 390 -641 382 -651.5 Q 374 -662 361.5 -667.5 Q 349 -673 336 -673 Q 320 -673 306.5 -664 Q 293 -655 286 -640.5 Q 279 -626 276.5 -610.5 Q 274 -595 274 -579 L 274 -520 L 436 -520 L 436 -450 L 274 -450 L 274 46 Q 274 69 270.5 91.5 Q 267 114 256.5 134.5 Q 246 155 230 171 Q 214 187 193.5 197 Q 173 207 150.5 211 Q 128 215 105 215 Z " id="path1"/>
</defs>
<g>
<g data-source-text="f" fill="#dee4e3" transform="translate(40 104.99201) rotate(0) scale(0.09599999)">
<use href="#path1" transform="translate(0 0)"/>
</g>
</g>
</svg>