<svg xmlns="http://www.w3.org/2000/svg" height="160" viewBox="0 0 128 160" width="128"><defs><path d="M 180.00002 222.00002 C 174.66669 222.00002 169.33334 221.66666 164.00002 221 C 158.66667 220.33334 153.5 219.33334 148.50002 218 C 143.5 216.66667 138.83333 214.5 134.5 211.50002 C 130.16666 208.5 126 205.33334 122 202.00002 L -20.000002 83 L 28 32 L 170 150.00002 C 171.33334 151.33334 172.83334 152.33333 174.50002 153 C 176.16667 153.66667 178.00002 154.00002 180.00002 154.00002 C 186 154.00002 190.16667 151.16667 192.5 145.50002 C 194.83333 139.83333 196 134.33334 196 129 L 196 -450.00003 L 64 -450.00003 L 64 -520.00006 L 196 -520.00006 L 196 -579 C 196 -592.3333 197 -605.8334 199 -619.5 C 201 -633.1667 204.33336 -646.3334 209.00002 -659 C 213.66669 -671.6666 220.16667 -683.6666 228.50002 -695.00006 C 236.83334 -706.3333 246.66667 -715.6666 258 -723 C 269.33334 -730.33325 281.83334 -735.49994 295.5 -738.50006 C 309.1667 -741.5 322.6667 -743.00006 336.00003 -743.00006 C 354.6667 -743.00006 373 -740.1667 391 -734.50006 C 409 -728.8334 424.5 -719.1666 437.5 -705.5 C 450.50003 -691.8334 460 -676 466 -658 C 472.00003 -640 475 -621.6667 475.00003 -603 C 475 -601.6667 475 -600.3333 475.00003 -599.00006 C 475 -597.6667 475 -596.3333 475.00003 -595 L 397 -595 C 397 -595.6667 397 -596.3333 397 -597 C 397 -597.6667 397 -598.3334 397 -599.00006 C 397 -608.3334 396 -617.5 394.00003 -626.5 C 392 -635.5 388.33334 -643.6667 383.00003 -651.00006 C 377.66666 -658.3334 370.6667 -663.8334 362 -667.50006 C 353.3333 -671.1667 344.6667 -673.00006 336.00003 -673.00006 C 325.33334 -673.00006 315.5 -670 306.5 -664 C 297.5 -658 290.66666 -650.3334 286 -641 C 281.33334 -631.6667 278.16666 -621.6667 276.5 -611.00006 C 274.83334 -600.3334 274.00003 -589.6667 274.00003 -579 L 274.00003 -520.00006 L 436 -520.00006 L 436 -450.00003 L 274.00003 -450.00003 L 274.00003 129 C 274.00003 141.66667 272.1667 154 268.50003 166 C 264.83334 178 258.5 188.50002 249.5 197.50002 C 240.5 206.50002 229.83333 212.83333 217.50002 216.50002 C 205.16666 220.16667 192.66666 222.00002 180.00002 222.00002 Z " id="path1"/></defs><g><g fill="#000000" transform="translate(40 105.20961) rotate(0)"><use href="#path1" transform="translate(0 0) scale(0.09599999)"/></g></g></svg>