<svg xmlns="http://www.w3.org/2000/svg" height="160" viewBox="0 0 128 160" width="128"><defs><path d="M 195 222.00002 C 189.66667 222.00002 184.33333 221.66666 179 221 C 173.66666 220.33334 168.49998 219.33334 163.5 218 C 158.5 216.66667 153.66666 214.5 149 211.50002 C 144.33333 208.5 140 205.33334 136 202.00002 L -5.0000005 83 L 43.000004 32 L 184 150.00002 C 186 151.33334 187.83333 152.33333 189.5 153 C 191.16667 153.66667 193 154.00002 195 154.00002 C 200.33333 154.00002 204.33333 151.16667 207 145.50002 C 209.66667 139.83333 211.00002 134.33334 211.00002 129 L 211.00002 -450.00003 L 64 -450.00003 L 64 -520.00006 L 211.00002 -520.00006 L 211.00002 -580 C 211.00002 -594 212.16667 -607.8333 214.50002 -621.50006 C 216.83331 -635.1667 221.16666 -648.3333 227.50002 -661.00006 C 233.83334 -673.6667 241.83334 -684.99994 251.50002 -695.00006 C 261.16666 -705 272.33334 -713 285 -719.00006 C 297.6667 -725 310.83334 -729.1667 324.5 -731.5 C 338.16666 -733.8333 352 -735 366.00003 -735 L 436 -735 L 436 -665 L 366.00003 -665 C 355.33334 -665 344.66666 -663.1667 334 -659.5 C 323.33334 -655.8334 314.5 -649.8333 307.5 -641.5 C 300.5 -633.1666 295.66666 -623.6667 293 -613 C 290.3333 -602.3333 289 -591.3333 289 -580 L 289 -520.00006 L 436 -520.00006 L 436 -450.00003 L 289 -450.00003 L 289 129 C 289 141.66667 287 154 283.00003 166 C 279 178 272.66666 188.50002 264 197.50002 C 255.33333 206.50002 244.83334 212.83333 232.5 216.50002 C 220.16667 220.16667 207.66666 222.00002 195 222.00002 Z " id="path1"/></defs><g><g fill="#000000" transform="translate(40 105.20961) rotate(0)"><use href="#path1" transform="translate(0 0) scale(0.09599999)"/></g></g></svg>