<?xml version="1.0" encoding="UTF-8" standalone="no"?>
<svg height="160" viewBox="0 0 128 160" width="128" xmlns="http://www.w3.org/2000/svg">
<defs>
<path d="M 180 223 Q 164 223 148.5 219 Q 133 215 120 205 L -36 77 L 12 25 L 168 153 Q 170 155 173.5 155.5 Q 177 156 180 156 Q 188 156 192 148 Q 196 140 196 132 L 196 -450 L 64 -450 L 64 -520 L 196 -520 L 196 -579 Q 196 -599 199 -619.5 Q 202 -640 209 -659 Q 216 -678 228.5 -695 Q 241 -712 258 -723 Q 275 -734 295.5 -738.5 Q 316 -743 336 -743 Q 364 -743 391 -734.5 Q 418 -726 437.5 -705.5 Q 457 -685 466 -658 Q 475 -631 475 -603 L 475 -595 L 397 -595 L 397 -599 Q 397 -613 394 -626 Q 391 -639 383 -650.5 Q 375 -662 362.5 -667.5 Q 350 -673 336 -673 Q 320 -673 306.5 -664 Q 293 -655 286 -641 Q 279 -627 276.5 -611 Q 274 -595 274 -579 L 274 -520 L 436 -520 L 436 -450 L 274 -450 L 274 132 Q 274 150 268 168.5 Q 262 187 249 199.5 Q 236 212 217.5 217.5 Q 199 223 180 223 Z " id="path1"/>
</defs>
<g>
<g data-source-text="f" fill="#20242e" transform="translate(40 104.99201) rotate(0) scale(0.09599999)">
<use href="#path1" transform="translate(0 0)"/>
</g>
</g>
</svg>