<?xml version="1.0" encoding="UTF-8" standalone="no"?>
<svg xmlns='http://www.w3.org/2000/svg' height="160" viewBox="0 0 128 160" width="128"><defs><path d="M 180 222 Q 172 222 164 221 Q 156 220 148.5 218 Q 141 216 134.5 211.5 Q 128 207 122 202 L -20 83 L 28 32 L 170 150 Q 172 152 174.5 153 Q 177 154 180 154 Q 189 154 192.5 145.5 Q 196 137 196 129 L 196 -403 L 64 -403 L 64 -473 L 196 -473 L 196 -579 Q 196 -599 199 -619.5 Q 202 -640 209 -659 Q 216 -678 228.5 -695 Q 241 -712 258 -723 Q 275 -734 295.5 -738.5 Q 316 -743 336 -743 Q 364 -743 391 -734.5 Q 418 -726 437.5 -705.5 Q 457 -685 466 -658 Q 475 -631 475 -603 L 475 -595 L 397 -595 L 397 -599 Q 397 -613 394 -626.5 Q 391 -640 383 -651 Q 375 -662 362 -667.5 Q 349 -673 336 -673 Q 320 -673 306.5 -664 Q 293 -655 286 -641 Q 279 -627 276.5 -611 Q 274 -595 274 -579 L 274 -473 L 436 -473 L 436 -403 L 274 -403 L 274 129 Q 274 148 268.5 166 Q 263 184 249.5 197.5 Q 236 211 217.5 216.5 Q 199 222 180 222 Z " id="path1"/></defs><g><g data-source-text="f" fill="#dee4e3" transform="translate(40 104.99201) rotate(0) scale(0.09599999)"><use href="#path1" transform="translate(0 0)"/></g></g></svg>