<?xml version="1.0" encoding="UTF-8" standalone="no"?>
<svg height="160" viewBox="0 0 128 160" width="128" xmlns="http://www.w3.org/2000/svg">
<defs>
<path d="M 195 223 Q 179 223 163 219 Q 147 215 135 205 L -21 77 L 26 25 L 182 153 Q 183 154 183.5 154 Q 184 154 185 154 Q 188 155 190 155.5 Q 192 156 195 156 Q 203 156 207 148 Q 211 140 211 132 L 211 -450 L 64 -450 L 64 -520 L 211 -520 L 211 -580 Q 211 -601 214.5 -621.5 Q 218 -642 227.5 -661 Q 237 -680 251.5 -695 Q 266 -710 285 -719 Q 304 -728 324.5 -731.5 Q 345 -735 366 -735 L 436 -735 L 436 -665 L 366 -665 Q 350 -665 334 -659.5 Q 318 -654 307.5 -641.5 Q 297 -629 293 -613 Q 289 -597 289 -580 L 289 -520 L 436 -520 L 436 -450 L 289 -450 L 289 132 Q 289 150 283 168.5 Q 277 187 263.5 199.5 Q 250 212 232 217.5 Q 214 223 195 223 Z " id="path1"/>
</defs>
<g>
<g data-source-text="f" fill="#dee4e3" transform="translate(40 104.99201) rotate(0) scale(0.09599999)">
<use href="#path1" transform="translate(0 0)"/>
</g>
</g>
</svg>