<?xml version="1.0" encoding="UTF-8" standalone="no"?>
<svg height="160" viewBox="0 0 128 160" width="128" xmlns="http://www.w3.org/2000/svg">
<defs>
<path d="M 187 223 Q 171 223 156.5 218 Q 142 213 131 203 L -6 71 L 44 24 L 181 156 Q 182 157 183.5 157.5 Q 185 158 187 158 Q 192 158 193.5 152.5 Q 195 147 195 142 L 195 -333 L 121 -333 L 121 -403 L 195 -403 L 195 -579 Q 195 -599 197.5 -619 Q 200 -639 207 -658 Q 214 -677 225.5 -693.5 Q 237 -710 253.5 -721.5 Q 270 -733 290 -738 Q 310 -743 330 -743 Q 357 -743 383.5 -733.5 Q 410 -724 428.5 -704 Q 447 -684 455.5 -657 Q 464 -630 464 -603 L 464 -600 L 386 -600 L 386 -601 Q 386 -614 383 -627 Q 380 -640 373 -650.5 Q 366 -661 354 -667 Q 342 -673 329 -673 Q 314 -673 301.5 -663 Q 289 -653 282.5 -639 Q 276 -625 274.5 -609.5 Q 273 -594 273 -579 L 273 -403 L 413 -403 L 413 -333 L 273 -333 L 273 142 Q 273 159 267 175 Q 261 191 249 202.5 Q 237 214 220.5 218.5 Q 204 223 187 223 Z " id="path1"/>
</defs>
<g>
<g data-source-text="f" fill="#20242e" transform="translate(40 104.99201) rotate(0) scale(0.09599999)">
<use href="#path1" transform="translate(0 0)"/>
</g>
</g>
</svg>