<?xml version="1.0" encoding="UTF-8" standalone="no"?>
<svg height="160" viewBox="0 0 128 160" width="128" xmlns="http://www.w3.org/2000/svg">
<defs>
<path d="M 64 215 L 64 145 L 134 145 Q 150 145 166 139.5 Q 182 134 192.5 121.5 Q 203 109 207 93 Q 211 77 211 60 L 211 -403 L 64 -403 L 64 -473 L 211 -473 L 211 -580 Q 211 -601 214.5 -621.5 Q 218 -642 227.5 -661 Q 237 -680 251.5 -695 Q 266 -710 285 -719 Q 304 -728 324.5 -731.5 Q 345 -735 366 -735 L 436 -735 L 436 -665 L 366 -665 Q 350 -665 334 -659.5 Q 318 -654 307.5 -641.5 Q 297 -629 293 -613 Q 289 -597 289 -580 L 289 -473 L 436 -473 L 436 -403 L 289 -403 L 289 60 Q 289 81 285.5 101.5 Q 282 122 272.5 141 Q 263 160 248.5 175 Q 234 190 215 199 Q 196 208 175.5 211.5 Q 155 215 134 215 Z " id="path1"/>
</defs>
<g>
<g data-source-text="f" fill="#dee4e3" transform="translate(40 104.99201) rotate(0) scale(0.09599999)">
<use href="#path1" transform="translate(0 0)"/>
</g>
</g>
</svg>