<svg xmlns="http://www.w3.org/2000/svg" height="160" viewBox="0 0 128 160" width="128"><defs><path d="M 252 8 C 235.99998 8 220 6.4999995 204 3.5 C 188.00002 0.5000001 173 -4.666667 159 -12 C 145 -19.333334 132.16667 -28.666666 120.5 -40.000004 C 108.833336 -51.333336 99 -64 91 -78 C 83 -92 76.833336 -106.666664 72.5 -122 C 68.166664 -137.33334 65 -153 63 -169.00002 L 63 -174.00002 L 141 -174.00002 L 142 -163 C 144.66666 -149.66667 148.66667 -136.66667 154.00002 -124.00001 C 159.33333 -111.333336 166.83333 -100.166664 176.50002 -90.5 C 186.16667 -80.833336 197.66667 -73.66667 211.00002 -69 C 224.33333 -64.333336 238 -62.000004 252 -62.000004 C 264.6667 -62.000004 277.1667 -64.333336 289.5 -69 C 301.83334 -73.66667 312.6667 -80.66667 322.00003 -90.00001 C 331.33334 -99.33333 338.83334 -109.833336 344.5 -121.50001 C 350.16666 -133.16667 354.6667 -145.33333 358 -158 C 361.33334 -170.66669 363.5 -183.50002 364.50003 -196.50002 C 365.50003 -209.5 366.00003 -222.33334 366.00003 -235 C 366.00003 -235 366.00003 -235 366.00003 -235 C 366.00003 -235 366.00003 -235 366.00003 -235 C 366.00003 -248.33333 365.50003 -261.3333 364.50003 -274.00003 C 363.5 -286.6667 361.33334 -299.33334 358 -312 C 354.6667 -324.66666 350.33334 -336.83334 345 -348.50003 C 339.66666 -360.1667 332.5 -370.6667 323.5 -380 C 314.49997 -389.33334 304 -396.33334 292 -401.00003 C 280 -405.6667 267.33334 -408 254.00002 -408 C 240.66667 -408 227.33336 -405.83334 214.00002 -401.5 C 200.66667 -397.16666 189.16667 -390.1667 179.50002 -380.5 C 169.83334 -370.83334 162.5 -359.33337 157.5 -346 C 152.5 -332.66666 149.66667 -319 149 -305.00003 L 71 -305.00003 L 77.00001 -375 L 89 -520.00006 L 107.00001 -735 L 417.00003 -735 L 417.00003 -665 L 179 -665 L 162 -459 C 176 -466.3333 190.83334 -471.33337 206.5 -474.00003 C 222.16667 -476.66672 238 -478.00003 254.00002 -478.00003 C 273.33334 -478.00003 292.5 -475.5 311.5 -470.5 C 330.5 -465.5 347.8333 -457.00003 363.5 -445.00003 C 379.1667 -433.00003 392.33337 -418.83334 403 -402.5 C 413.66666 -386.16666 422.00003 -368.8333 428.00003 -350.5 C 434.00003 -332.16666 438.16666 -313.16666 440.50003 -293.5 C 442.83334 -273.8333 444.00003 -254.33333 444.00003 -235 C 444.00003 -215.66667 442.83334 -196.16669 440.50003 -176.50002 C 438.16666 -156.83333 433.83334 -137.83334 427.50003 -119.50001 C 421.16666 -101.16667 412.5 -83.666664 401.5 -67 C 390.5 -50.333332 377.16663 -36.166668 361.5 -24.5 C 345.83334 -12.833334 328.5 -4.4999995 309.5 0.5 C 290.5 5.4999995 271.33334 8 252 8 Z " id="path1"/></defs><g><g fill="#ffffff" transform="translate(40 105.20961) rotate(0)"><use href="#path1" transform="translate(0 0) scale(0.09599999)"/></g></g></svg>