<?xml version="1.0" encoding="UTF-8" standalone="no"?>
<svg height="160" viewBox="0 0 128 160" width="128" xmlns="http://www.w3.org/2000/svg">
<defs>
<path d="M 253 8 Q 229 8 205.5 4 Q 182 -0 160.5 -10 Q 139 -20 121 -36 Q 103 -52 90.5 -72 Q 78 -92 71 -115 Q 64 -138 63 -162 L 141 -162 Q 143 -141 151.5 -121.5 Q 160 -102 175.5 -88 Q 191 -74 211.5 -68 Q 232 -62 253 -62 Q 271 -62 288.5 -67.5 Q 306 -73 319.5 -84.5 Q 333 -96 342.5 -112 Q 352 -128 357 -145 Q 362 -162 364 -180 Q 366 -198 366 -216 Q 366 -234 364 -252 Q 362 -270 356.5 -286.5 Q 351 -303 341 -318.5 Q 331 -334 317 -344.5 Q 303 -355 285.5 -360 Q 268 -365 250 -365 L 83 -365 L 83 -735 L 417 -735 L 417 -665 L 160 -665 L 160 -435 L 250 -435 Q 278 -435 305 -429 Q 332 -423 356 -408.5 Q 380 -394 397.5 -372 Q 415 -350 425.5 -324.5 Q 436 -299 440 -271.5 Q 444 -244 444 -216 Q 444 -188 440 -160.5 Q 436 -133 426 -107 Q 416 -81 399 -58 Q 382 -35 358.5 -20 Q 335 -5 307.5 1.5 Q 280 8 253 8 Z " id="path1"/>
</defs>
<g>
<g data-source-text="5" fill="#20242e" transform="translate(40 104.99201) rotate(0) scale(0.09599999)">
<use href="#path1" transform="translate(0 0)"/>
</g>
</g>
</svg>