<?xml version="1.0" encoding="UTF-8" standalone="no"?>
<svg height="160" viewBox="0 0 128 160" width="128" xmlns="http://www.w3.org/2000/svg">
<defs>
<path d="M 64 215 L 64 145 L 120 145 Q 139 145 157.5 138.5 Q 176 132 188.5 117.5 Q 201 103 206 84 Q 211 65 211 46 L 211 -403 L 64 -403 L 64 -473 L 211 -473 L 211 -566 Q 211 -589 215 -611.5 Q 219 -634 229 -654.5 Q 239 -675 255 -691 Q 271 -707 291.5 -717 Q 312 -727 334.5 -731 Q 357 -735 380 -735 L 436 -735 L 436 -665 L 380 -665 Q 361 -665 342.5 -658.5 Q 324 -652 311.5 -637.5 Q 299 -623 294 -604 Q 289 -585 289 -566 L 289 -472 L 436 -472 L 436 -403 L 289 -403 L 289 46 Q 289 69 285 91.5 Q 281 114 271 134.5 Q 261 155 245 171 Q 229 187 208.5 197 Q 188 207 165.5 211 Q 143 215 120 215 Z " id="path1"/>
</defs>
<g>
<g data-source-text="f" fill="#dee4e3" transform="translate(40 104.99201) rotate(0) scale(0.09599999)">
<use href="#path1" transform="translate(0 0)"/>
</g>
</g>
</svg>