<?xml version="1.0" encoding="UTF-8" standalone="no"?>
<svg height="160" viewBox="0 0 128 160" width="128" xmlns="http://www.w3.org/2000/svg">
<defs>
<path d="M 252 8 Q 218 8 184.5 -1.5 Q 151 -11 125 -33.5 Q 99 -56 84 -87.5 Q 69 -119 64 -152 L 63 -162 L 141 -162 L 142 -157 Q 146 -138 154.5 -119.5 Q 163 -101 178 -87.5 Q 193 -74 212.5 -68 Q 232 -62 252 -62 Q 270 -62 287.5 -67.5 Q 305 -73 319 -84.5 Q 333 -96 342.5 -112 Q 352 -128 357 -145 Q 362 -162 364 -180 Q 366 -198 366 -216 Q 366 -234 364 -252 Q 362 -270 356.5 -287 Q 351 -304 341 -319 Q 331 -334 317 -344.5 Q 303 -355 285.5 -360 Q 268 -365 250 -365 L 82 -365 L 113 -735 L 417 -735 L 417 -590 L 340 -590 L 340 -665 L 185 -665 L 166 -435 L 250 -435 Q 278 -435 305 -429 Q 332 -423 356 -408.5 Q 380 -394 397.5 -372 Q 415 -350 425.5 -324.5 Q 436 -299 440 -271.5 Q 444 -244 444 -216 Q 444 -188 440 -160 Q 436 -132 426 -106 Q 416 -80 399 -57.5 Q 382 -35 358.5 -20 Q 335 -5 307.5 1.5 Q 280 8 252 8 Z " id="path1"/>
</defs>
<g>
<g data-source-text="5" fill="#dee4e3" transform="translate(40 104.99201) rotate(0) scale(0.09599999)">
<use href="#path1" transform="translate(0 0)"/>
</g>
</g>
</svg>