<?xml version="1.0" encoding="UTF-8" standalone="no"?>
<svg height="160" viewBox="0 0 128 160" width="128" xmlns="http://www.w3.org/2000/svg">
<defs>
<path d="M 252 8 Q 227 8 202.5 3.5 Q 178 -1 156 -12 Q 134 -23 116.5 -40.5 Q 99 -58 87 -79.5 Q 75 -101 69 -125.5 Q 63 -150 62 -174 L 140 -174 Q 141 -152 148.5 -130.5 Q 156 -109 171.5 -93 Q 187 -77 208.5 -69.5 Q 230 -62 252 -62 Q 272 -62 290.5 -69 Q 309 -76 322.5 -90 Q 336 -104 344.5 -121.5 Q 353 -139 358 -158 Q 363 -177 364.5 -196.5 Q 366 -216 366 -235 Q 366 -255 364.5 -274 Q 363 -293 358.5 -311.5 Q 354 -330 345.5 -348 Q 337 -366 324 -380 Q 311 -394 292.5 -401 Q 274 -408 255 -408 Q 236 -408 217.5 -404 Q 199 -400 183.5 -389 Q 168 -378 159 -361 Q 150 -344 149 -325 L 71 -325 L 105 -735 L 417 -735 L 417 -590 L 340 -590 L 340 -665 L 177 -665 L 160 -460 Q 182 -471 206.5 -474.5 Q 231 -478 255 -478 Q 284 -478 312.5 -470.5 Q 341 -463 364 -445 Q 387 -427 403 -402.5 Q 419 -378 428 -350 Q 437 -322 440.5 -293 Q 444 -264 444 -235 Q 444 -206 440.5 -177 Q 437 -148 427.5 -120 Q 418 -92 402 -67.5 Q 386 -43 362.5 -25 Q 339 -7 310 0.5 Q 281 8 252 8 Z " id="path1"/>
</defs>
<g>
<g data-source-text="5" fill="#20242e" transform="translate(40 104.99201) rotate(0) scale(0.09599999)">
<use href="#path1" transform="translate(0 0)"/>
</g>
</g>
</svg>