<svg xmlns="http://www.w3.org/2000/svg" height="160" viewBox="0 0 128 160" width="128"><defs><path d="M 195 222 Q 187 222 179 221 Q 171 220 163.5 218 Q 156 216 149 211.5 Q 142 207 136 202 L -5 83 L 43 32 L 184 150 Q 187 152 189.5 153 Q 192 154 195 154 Q 203 154 207 145.5 Q 211 137 211 129 L 211 -450 L 64 -450 L 64 -520 L 211 -520 L 211 -580 Q 211 -601 214.5 -621.5 Q 218 -642 227.5 -661 Q 237 -680 251.5 -695 Q 266 -710 285 -719 Q 304 -728 324.5 -731.5 Q 345 -735 366 -735 L 436 -735 L 436 -665 L 366 -665 Q 350 -665 334 -659.5 Q 318 -654 307.5 -641.5 Q 297 -629 293 -613 Q 289 -597 289 -580 L 289 -520 L 436 -520 L 436 -450 L 289 -450 L 289 129 Q 289 148 283 166 Q 277 184 264 197.5 Q 251 211 232.5 216.5 Q 214 222 195 222 Z " id="path1"/></defs><g><g fill="#20242e" transform="translate(40 105.20961) rotate(0)"><use href="#path1" transform="translate(0 0) scale(0.09599999)"/></g></g></svg>