<?xml version="1.0" encoding="UTF-8" standalone="no"?>
<svg height="160" viewBox="0 0 256 160" width="256" xmlns="http://www.w3.org/2000/svg">
<defs>
<path d="M 395 -87 Q 381 -122 363.5 -154.5 Q 346 -187 325 -217.5 Q 304 -248 278 -274.5 Q 252 -301 222 -323 L 222 -358 Q 252 -379 278 -405.5 Q 304 -432 325 -462.5 Q 346 -493 363.5 -525.5 Q 381 -558 395 -593 L 458 -570 Q 433 -507 398 -447.5 Q 363 -388 314 -340 Q 363 -292 398 -232.5 Q 433 -173 458 -110 Z M 209 -87 Q 195 -122 177.5 -154.5 Q 160 -187 139 -217.5 Q 118 -248 92 -274.5 Q 66 -301 36 -323 L 36 -358 Q 66 -379 92 -405.5 Q 118 -432 139 -462.5 Q 160 -493 177.5 -525.5 Q 195 -558 209 -593 L 272 -570 Q 247 -507 212 -447.5 Q 177 -388 128 -340 Q 177 -292 212 -232.5 Q 247 -173 272 -110 Z " id="path1"/>
<path d="M 291 -87 L 228 -110 Q 253 -173 288 -232.5 Q 323 -292 372 -340 Q 323 -388 288 -447.5 Q 253 -507 228 -570 L 291 -593 Q 305 -558 322.5 -525.5 Q 340 -493 361 -462.5 Q 382 -432 408 -405.5 Q 434 -379 464 -358 L 464 -323 Q 434 -301 408 -274.5 Q 382 -248 361 -217.5 Q 340 -187 322.5 -154.5 Q 305 -122 291 -87 Z M 105 -87 L 42 -110 Q 67 -173 102 -232.5 Q 137 -292 186 -340 Q 137 -388 102 -447.5 Q 67 -507 42 -570 L 105 -593 Q 119 -558 136.5 -525.5 Q 154 -493 175 -462.5 Q 196 -432 222 -405.5 Q 248 -379 278 -358 L 278 -323 Q 248 -301 222 -274.5 Q 196 -248 175 -217.5 Q 154 -187 136.5 -154.5 Q 119 -122 105 -87 Z " id="path2"/>
</defs>
<g>
<g data-source-text="«" fill="#dee4e3" transform="translate(40 104.99201) rotate(0) scale(0.09599999)">
<use href="#path1" transform="translate(0 0)"/>
</g>
</g>
<g>
<g data-source-text="»" fill="#dee4e3" transform="translate(168 104.99201) rotate(0) scale(0.09599999)">
<use href="#path2" transform="translate(0 0)"/>
</g>
</g>
</svg>