<?xml version="1.0" encoding="UTF-8" standalone="no"?>
<svg height="160" viewBox="0 0 256 160" width="256" xmlns="http://www.w3.org/2000/svg">
<defs>
<path d="M 395 -87 Q 381 -122 363.5 -154.5 Q 346 -187 325 -217.5 Q 304 -248 278 -274.5 Q 252 -301 222 -323 L 222 -358 Q 252 -379 278 -405.5 Q 304 -432 325 -462.5 Q 346 -493 363.5 -525.5 Q 381 -558 395 -593 L 458 -570 Q 446 -538 430.5 -507.5 Q 415 -477 397.5 -447.5 Q 380 -418 359.5 -391 Q 339 -364 314 -340 Q 339 -316 359.5 -289 Q 380 -262 397.5 -232.5 Q 415 -203 430.5 -172.5 Q 446 -142 458 -110 Z M 209 -87 Q 195 -122 177.5 -154.5 Q 160 -187 139 -217.5 Q 118 -248 92 -274.5 Q 66 -301 36 -323 L 36 -358 Q 66 -379 92 -405.5 Q 118 -432 139 -462.5 Q 160 -493 177.5 -525.5 Q 195 -558 209 -593 L 272 -570 Q 260 -538 244.5 -507.5 Q 229 -477 211.5 -447.5 Q 194 -418 173.5 -391 Q 153 -364 128 -340 Q 153 -316 173.5 -289 Q 194 -262 211.5 -232.5 Q 229 -203 244.5 -172.5 Q 260 -142 272 -110 Z " id="path1"/>
<path d="M 105 -87 L 42 -110 Q 46 -120 50 -130 Q 54 -140 58.5 -149.5 Q 63 -159 67.5 -168.5 Q 72 -178 77 -187.5 Q 82 -197 87.5 -206.5 Q 93 -216 98 -225 Q 103 -234 109 -243 Q 115 -252 121 -261 Q 127 -270 133 -278.5 Q 139 -287 147 -297.5 Q 155 -308 161.5 -315.5 Q 168 -323 174 -328 L 186 -340 Q 178 -347 170.5 -355 Q 163 -363 156.5 -371 Q 150 -379 143.5 -387.5 Q 137 -396 130.5 -404.5 Q 124 -413 118 -422 Q 112 -431 106.5 -440 Q 101 -449 96 -458.5 Q 91 -468 85.5 -477.5 Q 80 -487 75 -496.5 Q 70 -506 64.5 -517.5 Q 59 -529 55 -538 Q 51 -547 48 -554 L 42 -570 L 105 -593 Q 109 -582 114 -571.5 Q 119 -561 124 -550.5 Q 129 -540 134.5 -530 Q 140 -520 145.5 -510 Q 151 -500 157 -490 Q 163 -480 169.5 -470.5 Q 176 -461 183 -451.5 Q 190 -442 197.5 -433 Q 205 -424 212.5 -415.5 Q 220 -407 230 -397 Q 240 -387 248.5 -380 Q 257 -373 263 -368 L 278 -357 L 278 -322 Q 269 -315 260 -308 Q 251 -301 242 -293.5 Q 233 -286 225 -277.5 Q 217 -269 209 -260.5 Q 201 -252 194 -243 Q 187 -234 180 -224.5 Q 173 -215 167 -205.5 Q 161 -196 155 -186 Q 149 -176 143 -166 Q 137 -156 130.5 -143.5 Q 124 -131 119.5 -121.5 Q 115 -112 112 -105 Z M 291 -87 L 228 -110 Q 232 -120 236 -130 Q 240 -140 244.5 -149.5 Q 249 -159 253.5 -168.5 Q 258 -178 263 -187.5 Q 268 -197 273.5 -206.5 Q 279 -216 284 -225 Q 289 -234 295 -243 Q 301 -252 307 -261 Q 313 -270 319 -278.5 Q 325 -287 333 -297.5 Q 341 -308 347.5 -315.5 Q 354 -323 360 -328 L 372 -340 Q 364 -347 356.5 -355 Q 349 -363 342.5 -371 Q 336 -379 329.5 -387.5 Q 323 -396 316.5 -404.5 Q 310 -413 304 -422 Q 298 -431 292.5 -440 Q 287 -449 282 -458.5 Q 277 -468 271.5 -477.5 Q 266 -487 261 -496.5 Q 256 -506 250.5 -517.5 Q 245 -529 241 -538 Q 237 -547 234 -554 L 228 -570 L 291 -593 Q 295 -582 300 -571.5 Q 305 -561 310 -550.5 Q 315 -540 320.5 -530 Q 326 -520 331.5 -510 Q 337 -500 343 -490 Q 349 -480 355.5 -470.5 Q 362 -461 369 -451.5 Q 376 -442 383.5 -433 Q 391 -424 398.5 -415.5 Q 406 -407 416 -397 Q 426 -387 434.5 -380 Q 443 -373 449 -368 L 464 -357 L 464 -322 Q 455 -315 446 -308 Q 437 -301 428 -293.5 Q 419 -286 411 -277.5 Q 403 -269 395 -260.5 Q 387 -252 380 -243 Q 373 -234 366 -224.5 Q 359 -215 353 -205.5 Q 347 -196 341 -186 Q 335 -176 329 -166 Q 323 -156 316.5 -143.5 Q 310 -131 305.5 -121.5 Q 301 -112 298 -105 Z " id="path2"/>
</defs>
<g>
<g data-source-text="«" fill="#20242e" transform="translate(40 104.99201) rotate(0) scale(0.09599999)">
<use href="#path1" transform="translate(0 0)"/>
</g>
</g>
<g>
<g data-source-text="»" fill="#20242e" transform="translate(168 104.99201) rotate(0) scale(0.09599999)">
<use href="#path2" transform="translate(0 0)"/>
</g>
</g>
</svg>