<?xml version="1.0" encoding="UTF-8" standalone="no"?>
<svg height="160" viewBox="0 0 128 160" width="128" xmlns="http://www.w3.org/2000/svg">
<defs>
<path d="M 247 223 Q 224 223 201.5 219.5 Q 179 216 158 207.5 Q 137 199 119 184.5 Q 101 170 88.5 151 Q 76 132 69.5 110 Q 63 88 62 65 L 140 65 Q 141 85 149.5 102.5 Q 158 120 173.5 132 Q 189 144 208 148.5 Q 227 153 247 153 Q 264 153 280.5 149 Q 297 145 310.5 135 Q 324 125 333.5 111 Q 343 97 348.5 81 Q 354 65 356 48.5 Q 358 32 358 15 L 358 -91 Q 350 -70 337 -50.5 Q 324 -31 305.5 -17.5 Q 287 -4 264.5 2 Q 242 8 219 8 Q 194 8 169.5 1 Q 145 -6 125 -21 Q 105 -36 91.5 -57 Q 78 -78 70 -101.5 Q 62 -125 59 -150 Q 56 -175 56 -200 L 56 -320 Q 56 -345 59 -370 Q 62 -395 70 -418.5 Q 78 -442 91.5 -463 Q 105 -484 125 -499 Q 145 -514 169.5 -521 Q 194 -528 219 -528 Q 242 -528 264.5 -522 Q 287 -516 305.5 -502.5 Q 324 -489 337 -469.5 Q 350 -450 358 -429 L 358 -520 L 436 -520 L 436 15 Q 436 42 432 68.5 Q 428 95 417.5 119.5 Q 407 144 389.5 164.5 Q 372 185 349 198.5 Q 326 212 299.5 217.5 Q 273 223 247 223 Z M 249 -62 Q 266 -62 282 -66 Q 298 -70 311.5 -80 Q 325 -90 334.5 -104.5 Q 344 -119 349 -134.5 Q 354 -150 356 -166.5 Q 358 -183 358 -200 L 358 -320 Q 358 -337 356 -353.5 Q 354 -370 349 -385.5 Q 344 -401 334.5 -415.5 Q 325 -430 311.5 -440 Q 298 -450 282 -454 Q 266 -458 249 -458 Q 232 -458 215.5 -454 Q 199 -450 185 -440.5 Q 171 -431 160.5 -417 Q 150 -403 144 -387 Q 138 -371 136 -354 Q 134 -337 134 -320 L 134 -200 Q 134 -183 136 -166 Q 138 -149 144 -133 Q 150 -117 160.5 -103 Q 171 -89 185 -79.5 Q 199 -70 215.5 -66 Q 232 -62 249 -62 Z " id="path1"/>
</defs>
<g>
<g data-source-text="g" fill="#20242e" transform="translate(40 104.99201) rotate(0) scale(0.09599999)">
<use href="#path1" transform="translate(0 0)"/>
</g>
</g>
</svg>