<?xml version="1.0" encoding="UTF-8" standalone="no"?>
<svg height="160" viewBox="0 0 256 160" width="256" xmlns="http://www.w3.org/2000/svg">
<defs>
<path d="M 399 -82 L 222 -340 L 399 -598 L 455 -565 L 312 -340 L 455 -115 Z M 213 -82 L 36 -340 L 213 -598 L 269 -565 L 126 -340 L 269 -115 Z " id="path1"/>
<path d="M 101 -82 L 45 -115 L 188 -340 L 45 -565 L 101 -598 L 278 -340 Z M 287 -82 L 231 -115 L 374 -340 L 231 -565 L 287 -598 L 464 -340 Z " id="path2"/>
</defs>
<g>
<g data-source-text="«" fill="#20242e" transform="translate(40 104.99201) rotate(0) scale(0.09599999)">
<use href="#path1" transform="translate(0 0)"/>
</g>
</g>
<g>
<g data-source-text="»" fill="#20242e" transform="translate(168 104.99201) rotate(0) scale(0.09599999)">
<use href="#path2" transform="translate(0 0)"/>
</g>
</g>
</svg>