<svg xmlns="http://www.w3.org/2000/svg" height="160" viewBox="0 0 128 160" width="128"><defs><path d="M 247 223.00002 C 231.66666 223.00002 216.49998 221.83333 201.5 219.50002 C 186.5 217.16667 172 213.16669 158 207.5 C 144 201.83333 131 194.16667 119 184.5 C 107 174.83334 96.83333 163.66667 88.50001 151 C 80.16667 138.33333 73.833336 124.666664 69.5 110.00001 C 65.166664 95.33333 62.666668 80.333336 62.000004 65.00001 L 140.00002 65.00001 C 140.66667 78.33333 143.83333 90.83333 149.5 102.50001 C 155.16667 114.16667 163.16667 124 173.5 132 C 183.83333 140 195.33333 145.50002 208.00002 148.50002 C 220.66666 151.49998 233.66667 152.99998 247 153 C 258.33334 152.99998 269.5 151.66667 280.5 149 C 291.5 146.33334 301.5 141.66667 310.50003 135 C 319.5 128.33333 327.16666 120.333336 333.5 111.00001 C 339.83334 101.66667 344.83334 91.666664 348.50003 81 C 352.16666 70.333336 354.6667 59.5 356 48.500004 C 357.33334 37.5 358 26.333332 358 15.000001 L 358 -91 C 352.66666 -77.00001 345.66666 -63.500004 337.00003 -50.500004 C 328.33334 -37.5 317.83334 -26.500002 305.50003 -17.500002 C 293.16666 -8.500001 279.5 -1.9999998 264.5 2 C 249.5 6 234.33333 8 219.00002 8 C 202.33334 8 185.83334 5.6666665 169.5 1 C 153.16667 -3.6666665 138.33333 -11 125 -21.000002 C 111.666664 -31 100.5 -43.000004 91.50001 -57.000004 C 82.5 -71 75.333336 -85.833336 70.00001 -101.50001 C 64.66667 -117.166664 61 -133.33333 59.000004 -150.00002 C 56.999996 -166.66666 55.999996 -183.33333 56 -200.00002 L 56 -320.00003 C 55.999996 -336.6667 56.999996 -353.3333 59.000004 -370.00003 C 61 -386.66672 64.66667 -402.83334 70.00001 -418.5 C 75.333336 -434.1667 82.5 -449 91.50001 -463.00003 C 100.5 -477 111.666664 -489.00003 125 -499 C 138.33333 -509 153.16667 -516.3334 169.5 -521 C 185.83334 -525.6666 202.33334 -528 219.00002 -528 C 234.33333 -528 249.5 -525.99994 264.5 -522 C 279.5 -518 293.16666 -511.50003 305.50003 -502.50003 C 317.83334 -493.5 328.33334 -482.5 337.00003 -469.5 C 345.66666 -456.5 352.66666 -443 358 -429.00003 L 358 -520.00006 L 482 -520.00006 L 482 -450.00003 L 436 -450.00003 L 436 15.000001 C 435.99997 33 434.66666 50.833336 432 68.50001 C 429.33334 86.166664 424.5 103.166664 417.50003 119.50001 C 410.49997 135.83334 401.1667 150.83333 389.50003 164.5 C 377.83337 178.16667 364.33337 189.5 349.00003 198.5 C 333.66666 207.49998 317.16666 213.83334 299.50003 217.50002 C 281.83334 221.16667 264.33334 223.00002 247 223.00002 Z M 249 -62.000004 C 260.3333 -62.000004 271.5 -63.333336 282.50003 -66 C 293.5 -68.66667 303.33334 -73.333336 312 -80.00001 C 320.6667 -86.666664 328.1667 -94.833336 334.5 -104.50001 C 340.83334 -114.166664 345.6667 -124.166664 349.00003 -134.5 C 352.33334 -144.83333 354.6667 -155.5 356 -166.5 C 357.33334 -177.50002 358 -188.66667 358 -200.00002 L 358 -320.00003 C 358 -331.33334 357.33334 -342.49997 356 -353.50003 C 354.6667 -364.49997 352.33334 -375.16666 349.00003 -385.5 C 345.6667 -395.83334 340.83334 -405.83334 334.5 -415.50003 C 328.1667 -425.16666 320.6667 -433.33334 312 -440.00003 C 303.33334 -446.6667 293.5 -451.33334 282.50003 -454 C 271.5 -456.66666 260.3333 -457.99997 249 -458 C 237.66666 -457.99997 226.5 -456.66666 215.5 -454 C 204.5 -451.33334 194.33333 -446.83334 185.00002 -440.50003 C 175.66666 -434.1667 167.5 -426.3333 160.5 -417.00003 C 153.5 -407.66666 148 -397.66666 144.00002 -387.00003 C 140.00002 -376.3333 137.33334 -365.33334 136 -354.00003 C 134.66667 -342.6667 134 -331.33334 134 -320.00003 L 134 -200.00002 C 134 -188.66667 134.66667 -177.33334 136 -166 C 137.33334 -154.66667 140.00002 -143.66667 144.00002 -133 C 148 -122.33333 153.5 -112.33334 160.5 -103.00001 C 167.5 -93.666664 175.66666 -85.833336 185.00002 -79.5 C 194.33333 -73.16667 204.5 -68.66667 215.5 -66 C 226.5 -63.333336 237.66666 -62.000004 249 -62.000004 Z " id="path1"/></defs><g><g fill="#000000" transform="translate(40 105.20961) rotate(0)"><use href="#path1" transform="translate(0 0) scale(0.09599999)"/></g></g></svg>