<?xml version="1.0" encoding="UTF-8" standalone="no"?>
<svg height="160" viewBox="0 0 256 160" width="256" xmlns="http://www.w3.org/2000/svg">
<defs>
<path d="M 396 -87 Q 382 -122 364.5 -155 Q 347 -188 325.5 -218.5 Q 304 -249 278.5 -275.5 Q 253 -302 222 -324 L 222 -356 Q 253 -378 278.5 -404.5 Q 304 -431 325.5 -461.5 Q 347 -492 364.5 -525 Q 382 -558 396 -593 L 457 -570 Q 432 -506 396 -446.5 Q 360 -387 309 -340 Q 360 -293 396 -233.5 Q 432 -174 457 -110 Z M 210 -87 Q 196 -122 178.5 -155 Q 161 -188 139.5 -218.5 Q 118 -249 92.5 -275.5 Q 67 -302 36 -324 L 36 -356 Q 67 -378 92.5 -404.5 Q 118 -431 139.5 -461.5 Q 161 -492 178.5 -525 Q 196 -558 210 -593 L 271 -570 Q 246 -506 210 -446.5 Q 174 -387 123 -340 Q 174 -293 210 -233.5 Q 246 -174 271 -110 Z " id="path1"/>
<path d="M 290 -87 L 229 -110 Q 254 -174 290 -233.5 Q 326 -293 377 -340 Q 326 -387 290 -446.5 Q 254 -506 229 -570 L 290 -593 Q 304 -558 321.5 -525 Q 339 -492 360.5 -461.5 Q 382 -431 407.5 -404.5 Q 433 -378 464 -356 L 464 -324 Q 433 -302 407.5 -275.5 Q 382 -249 360.5 -218.5 Q 339 -188 321.5 -155 Q 304 -122 290 -87 Z M 104 -87 L 43 -110 Q 68 -174 104 -233.5 Q 140 -293 191 -340 Q 140 -387 104 -446.5 Q 68 -506 43 -570 L 104 -593 Q 118 -558 135.5 -525 Q 153 -492 174.5 -461.5 Q 196 -431 221.5 -404.5 Q 247 -378 278 -356 L 278 -324 Q 247 -302 221.5 -275.5 Q 196 -249 174.5 -218.5 Q 153 -188 135.5 -155 Q 118 -122 104 -87 Z " id="path2"/>
</defs>
<g>
<g data-source-text="«" fill="#20242e" transform="translate(40 104.99201) rotate(0) scale(0.09599999)">
<use href="#path1" transform="translate(0 0)"/>
</g>
</g>
<g>
<g data-source-text="»" fill="#20242e" transform="translate(168 104.99201) rotate(0) scale(0.09599999)">
<use href="#path2" transform="translate(0 0)"/>
</g>
</g>
</svg>