<?xml version="1.0" encoding="UTF-8" standalone="no"?>
<svg height="160" viewBox="0 0 128 160" width="128" xmlns="http://www.w3.org/2000/svg">
<defs>
<path d="M 250 223 Q 225 223 200.5 220 Q 176 217 153 209 Q 130 201 109.5 187 Q 89 173 74 153.5 Q 59 134 51.5 110 Q 44 86 44 62 L 44 53 L 122 53 L 122 58 Q 122 80 133.5 100.5 Q 145 121 164 133 Q 183 145 205 149 Q 227 153 250 153 Q 272 153 294.5 148.5 Q 317 144 336.5 132 Q 356 120 367 99.5 Q 378 79 378 57 Q 378 38 370 20 Q 362 2 346.5 -8.5 Q 331 -19 312 -23 Q 293 -27 274 -27 L 226 -27 Q 208 -27 190.5 -28 Q 173 -29 156 -34 Q 139 -39 124 -48.5 Q 109 -58 98 -72 Q 87 -86 81 -103 Q 75 -120 75 -137 Q 75 -162 86 -185.5 Q 97 -209 116 -225 Q 101 -237 89 -252 Q 77 -267 69.5 -284.5 Q 62 -302 59 -321 Q 56 -340 56 -359 Q 56 -383 61 -406.5 Q 66 -430 77.5 -450.5 Q 89 -471 107.5 -486.5 Q 126 -502 148 -511.5 Q 170 -521 193.5 -524.5 Q 217 -528 240 -528 Q 258 -528 275 -526 Q 292 -524 309 -520 L 460 -520 L 460 -450 L 402 -452 Q 415 -431 420 -407 Q 425 -383 425 -359 Q 425 -336 420 -312.5 Q 415 -289 403 -268.5 Q 391 -248 373 -232 Q 355 -216 333 -206.5 Q 311 -197 287.5 -193.5 Q 264 -190 240 -190 Q 223 -190 206 -192 Q 189 -194 173 -198 Q 161 -191 153 -178.5 Q 145 -166 145 -151 Q 145 -138 152.5 -125.5 Q 160 -113 172 -106.5 Q 184 -100 198 -98.5 Q 212 -97 226 -97 L 274 -97 Q 297 -97 319.5 -94.5 Q 342 -92 363 -83.5 Q 384 -75 402.5 -61.5 Q 421 -48 433 -29.5 Q 445 -11 450 11.5 Q 455 34 455 57 Q 455 82 448.5 106 Q 442 130 427.5 150.5 Q 413 171 392 185.5 Q 371 200 347.5 208.5 Q 324 217 299.5 220 Q 275 223 250 223 Z M 240 -260 Q 261 -260 281.5 -265.5 Q 302 -271 317.5 -285 Q 333 -299 340 -319 Q 347 -339 347 -359 Q 347 -378 341.5 -396.5 Q 336 -415 323 -428.5 Q 310 -442 292 -449 Q 274 -456 255 -457 L 240 -458 Q 220 -458 199.5 -452.5 Q 179 -447 163.5 -433.5 Q 148 -420 141 -400 Q 134 -380 134 -359 Q 134 -339 141 -319 Q 148 -299 163.5 -285 Q 179 -271 199.5 -265.5 Q 220 -260 240 -260 Z " id="path1"/>
</defs>
<g>
<g data-source-text="g" fill="#dee4e3" transform="translate(40 104.99201) rotate(0) scale(0.09599999)">
<use href="#path1" transform="translate(0 0)"/>
</g>
</g>
</svg>