<svg xmlns="http://www.w3.org/2000/svg" height="160" viewBox="0 0 128 160" width="128"><defs><path d="M 250 223.00002 C 233.33334 223.00002 216.66667 221.83333 200.00002 219.50002 C 183.33333 217.16667 167.16666 213.16669 151.5 207.5 C 135.83333 201.83333 121.16667 193.99998 107.5 184 C 93.83333 174.00002 82.333336 162.16669 73 148.50002 C 63.666664 134.83334 56.5 120 51.500004 104.00001 C 46.5 88 44 71.66667 44 55.000004 C 44 53 44 51.333336 44 50.000004 C 44 48.666668 44 47.333332 44 46 L 122 46 C 122 46.666668 122 47.5 122 48.500004 C 122 49.5 122 50.333332 122 51 C 122 66.33333 125.50001 81.166664 132.5 95.50001 C 139.5 109.83334 149.33333 121.33334 162 130.00002 C 174.66664 138.66667 188.66667 144.66667 204 148 C 219.33334 151.33333 234.66667 152.99998 250 153 C 264.66666 152.99998 279.5 151.49998 294.5 148.50002 C 309.5 145.50002 323.5 140 336.50003 132 C 349.5 124 359.6667 113.16667 367 99.5 C 374.3333 85.833336 378.00003 71.66667 378.00003 57.000004 C 378.00003 44.333336 375.3333 32 370.00003 20.000002 C 364.66663 8 356.8333 -1.5000002 346.5 -8.5 C 336.16666 -15.5 324.66666 -20.333332 312 -23 C 299.33334 -25.666668 286.6667 -27 274.00003 -27 L 226.00002 -27 C 214 -27 202.16666 -27.333334 190.5 -28 C 178.83333 -28.666666 167.33333 -30.666666 156 -34 C 144.66666 -37.333332 134 -42.166668 124.00001 -48.500004 C 113.99999 -54.833336 105.33333 -62.666668 98 -72.00001 C 90.66667 -81.33334 85 -91.66667 81 -103.00001 C 77 -114.333336 75 -125.66667 75.00001 -137.00002 C 75 -153.66666 78.66667 -169.83333 86.00001 -185.50002 C 93.333336 -201.16667 103.333336 -214.33334 116 -225.00002 C 106 -233 97.00001 -241.99998 89 -252 C 81 -262 74.5 -272.83334 69.5 -284.5 C 64.5 -296.16666 61 -308.3333 59.000004 -321 C 56.999996 -333.66666 55.999996 -346.33334 56 -359.00003 C 55.999996 -375 57.666668 -390.83334 61 -406.50003 C 64.33333 -422.1667 69.99999 -436.8333 78 -450.50003 C 86 -464.16666 96 -476.16666 108 -486.5 C 120 -496.83334 133.33333 -505.16666 148 -511.50003 C 162.66666 -517.8333 177.83333 -522.5 193.50002 -525.50006 C 209.16667 -528.5 224.66669 -530 240.00002 -530 C 250.66667 -530 261 -529.3333 271.00003 -528 C 281 -526.6667 290.66666 -525 300.00003 -523 L 309 -520.00006 L 460 -520.00006 L 460 -450.00003 L 402 -452.00003 C 410.6667 -437.99997 416.6667 -423 420 -407 C 423.33334 -391 424.99997 -375 425 -359.00003 C 424.99997 -343.6667 423.33334 -328.1667 420 -312.5 C 416.6667 -296.8333 411.00003 -282.16666 403 -268.50003 C 395 -254.83334 385 -242.66667 373 -232 C 361 -221.33333 347.66666 -212.83333 333 -206.5 C 318.33334 -200.16667 303.1667 -195.83333 287.5 -193.50002 C 271.83334 -191.16667 255.99998 -189.99998 240.00002 -190 C 228.66667 -189.99998 217.5 -190.66666 206.5 -192 C 195.49998 -193.33333 184.33333 -195.33333 173 -198 C 165 -193.33333 158.33334 -186.83334 153 -178.5 C 147.66667 -170.16666 145 -161 145 -151 C 145 -142.33333 147.5 -133.83333 152.50002 -125.50001 C 157.5 -117.16667 164.00002 -110.83333 172.00002 -106.5 C 180 -102.16668 188.66667 -99.5 198 -98.50001 C 207.33333 -97.5 216.66667 -97.00001 226.00002 -97.00001 L 274.00003 -97.00001 C 289.33334 -97.00001 304.5 -96.16667 319.50003 -94.50001 C 334.5 -92.833336 349 -89.166664 363 -83.5 C 377 -77.83333 390.16666 -70.5 402.5 -61.500004 C 414.8333 -52.5 425 -41.833332 433.00003 -29.500002 C 441 -17.166668 446.6667 -3.4999995 450.00003 11.5 C 453.33334 26.5 455.00003 41.666668 455.00003 57.000004 C 455.00003 73.666664 452.83334 90 448.5 106 C 444.1667 122 437.16666 136.83333 427.50003 150.5 C 417.83334 164.16667 406 175.83333 392 185.50002 C 378.00003 195.16667 363.16666 202.83334 347.50003 208.50002 C 331.83334 214.16667 315.83334 218 299.50003 220.00002 C 283.16666 222.00002 266.66666 223.00002 250 223.00002 Z M 240.00002 -260.00003 C 254 -260 267.8333 -261.83334 281.5 -265.50003 C 295.16666 -269.1667 307.16666 -275.6667 317.5 -285 C 327.8333 -294.33334 335.3333 -305.6667 340 -319.00003 C 344.66666 -332.3333 346.99997 -345.66666 347 -359.00003 C 346.99997 -371.6667 345 -384.33334 341 -397 C 336.99997 -409.66666 330.5 -420.5 321.5 -429.50003 C 312.5 -438.50003 301.83334 -445.1667 289.5 -449.50003 C 277.1667 -453.83334 264.33334 -456.66666 251.00002 -458 L 240.00002 -458 C 240.00002 -457.99997 239.83334 -457.99997 239.50002 -458 C 239.16667 -457.99997 239.00002 -457.99997 239.00002 -458 C 225.66667 -457.99997 212.16667 -456.16663 198.5 -452.5 C 184.83333 -448.8333 173 -442.3333 163 -433.00003 C 153 -423.66666 145.66666 -412.5 141 -399.50003 C 136.33333 -386.49997 134 -373 134 -359.00003 C 134 -345.66666 136.33333 -332.3333 141 -319.00003 C 145.66666 -305.6667 153.16667 -294.33334 163.5 -285 C 173.83333 -275.6667 185.83334 -269.1667 199.50002 -265.50003 C 213.16669 -261.83334 226.66667 -260 240.00002 -260.00003 Z " id="path1"/></defs><g><g fill="#ffffff" transform="translate(40 105.20961) rotate(0)"><use href="#path1" transform="translate(0 0) scale(0.09599999)"/></g></g></svg>