<?xml version="1.0" encoding="UTF-8" standalone="no"?>
<svg height="160" viewBox="0 0 128 160" width="128" xmlns="http://www.w3.org/2000/svg">
<defs>
<path d="M 251 223 Q 226 223 201 220 Q 176 217 152.5 208 Q 129 199 108 184.5 Q 87 170 73 149 Q 59 128 52.5 103.5 Q 46 79 46 54 Q 46 37 49 19.5 Q 52 2 59.5 -13.5 Q 67 -29 78 -42 Q 89 -55 103 -65 Q 90 -80 82.5 -98.5 Q 75 -117 75 -137 Q 75 -162 86 -185.5 Q 97 -209 116 -225 Q 101 -237 89 -252 Q 77 -267 69.5 -284.5 Q 62 -302 59 -321 Q 56 -340 56 -359 Q 56 -383 61 -406.5 Q 66 -430 77.5 -450.5 Q 89 -471 107.5 -486.5 Q 126 -502 148 -511.5 Q 170 -521 193.5 -524.5 Q 217 -528 240 -528 Q 258 -528 275 -526 Q 292 -524 309 -520 L 460 -520 L 460 -450 L 402 -452 Q 415 -431 420 -407 Q 425 -383 425 -359 Q 425 -336 420 -312.5 Q 415 -289 403 -268.5 Q 391 -248 373 -232 Q 355 -216 333 -206.5 Q 311 -197 287.5 -193.5 Q 264 -190 240 -190 Q 223 -190 206 -192 Q 189 -194 173 -198 Q 161 -191 153 -178.5 Q 145 -166 145 -151 Q 145 -139 150.5 -128.5 Q 156 -118 166 -111 Q 176 -104 187.5 -101 Q 199 -98 211 -97 L 274 -97 Q 297 -97 319.5 -94.5 Q 342 -92 362.5 -83.5 Q 383 -75 401.5 -62 Q 420 -49 432.5 -30 Q 445 -11 450 11 Q 455 33 455 56 Q 455 81 448.5 105.5 Q 442 130 427.5 150 Q 413 170 392.5 185 Q 372 200 348.5 208.5 Q 325 217 300.5 220 Q 276 223 251 223 Z M 240 -260 Q 261 -260 281.5 -265.5 Q 302 -271 317.5 -285 Q 333 -299 340 -319 Q 347 -339 347 -359 Q 347 -378 341.5 -396.5 Q 336 -415 323 -428.5 Q 310 -442 292 -449 Q 274 -456 255 -457 L 240 -458 Q 220 -458 199.5 -452.5 Q 179 -447 163.5 -433.5 Q 148 -420 141 -400 Q 134 -380 134 -359 Q 134 -339 141 -319 Q 148 -299 163.5 -285 Q 179 -271 199.5 -265.5 Q 220 -260 240 -260 Z M 251 153 Q 273 153 295.5 148.5 Q 318 144 337 132 Q 356 120 367 99.5 Q 378 79 378 56 Q 378 37 370 19.5 Q 362 2 346 -8.5 Q 330 -19 311.5 -23 Q 293 -27 274 -27 L 215 -27 Q 198 -26 181 -21 Q 164 -16 150.5 -5.5 Q 137 5 130.5 21 Q 124 37 124 54 Q 124 77 134.5 98 Q 145 119 164 131.5 Q 183 144 205.5 148.5 Q 228 153 251 153 Z " id="path1"/>
</defs>
<g>
<g data-source-text="g" fill="#20242e" transform="translate(40 104.99201) rotate(0) scale(0.09599999)">
<use href="#path1" transform="translate(0 0)"/>
</g>
</g>
</svg>