<svg xmlns="http://www.w3.org/2000/svg" height="160" viewBox="0 0 128 160" width="128"><defs><path d="M 250 223.00002 C 233.33334 223.00002 216.66667 222.00002 200.00002 220.00002 C 183.33333 218 167.16666 214 151.5 208.00002 C 135.83333 201.99998 121.16667 194.16667 107.5 184.5 C 93.83333 174.83334 82.333336 163 73 149 C 63.666664 135 56.833332 119.833336 52.5 103.5 C 48.166664 87.16667 46 70.66667 46 54 C 46 42.666664 47.000004 31.333334 49 20.000002 C 51 8.666667 54.5 -2.3333337 59.5 -13.000001 C 64.49999 -23.666666 70.666664 -33.333332 78 -42.000004 C 85.33333 -50.66667 93.666664 -58.33334 103.00001 -65.00001 C 94.333336 -74.333336 87.5 -85.33333 82.5 -98 C 77.5 -110.66668 75 -123.666664 75.00001 -137.00002 C 75 -153.66666 78.66667 -169.83333 86.00001 -185.50002 C 93.333336 -201.16667 103.333336 -214.33334 116 -225.00002 C 106 -233 97.00001 -241.99998 89 -252 C 81 -262 74.5 -272.83334 69.5 -284.5 C 64.5 -296.16666 61 -308.3333 59.000004 -321 C 56.999996 -333.66666 55.999996 -346.33334 56 -359.00003 C 55.999996 -375 57.666668 -390.83334 61 -406.50003 C 64.33333 -422.1667 69.99999 -436.8333 78 -450.50003 C 86 -464.16666 96 -476.16666 108 -486.5 C 120 -496.83334 133.33333 -505.16666 148 -511.50003 C 162.66666 -517.8333 177.83333 -522.5 193.50002 -525.50006 C 209.16667 -528.5 224.66669 -530 240.00002 -530 C 250.66667 -530 261 -529.3333 271.00003 -528 C 281 -526.6667 290.66666 -525 300.00003 -523 L 309 -520.00006 L 460 -520.00006 L 460 -450.00003 L 402 -452.00003 C 410.6667 -437.99997 416.6667 -423 420 -407 C 423.33334 -391 424.99997 -375 425 -359.00003 C 424.99997 -343.6667 423.33334 -328.1667 420 -312.5 C 416.6667 -296.8333 411.00003 -282.16666 403 -268.50003 C 395 -254.83334 385 -242.66667 373 -232 C 361 -221.33333 347.66666 -212.83333 333 -206.5 C 318.33334 -200.16667 303.1667 -195.83333 287.5 -193.50002 C 271.83334 -191.16667 255.99998 -189.99998 240.00002 -190 C 228.66667 -189.99998 217.5 -190.66666 206.5 -192 C 195.49998 -193.33333 184.33333 -195.33333 173 -198 C 165 -193.33333 158.33334 -186.83334 153 -178.5 C 147.66667 -170.16666 145 -161 145 -151 C 145 -142.99998 146.83333 -135.5 150.5 -128.50002 C 154.16666 -121.5 159.33333 -115.66667 166 -111.00001 C 172.66667 -106.333336 179.83334 -103 187.5 -101.00001 C 195.16667 -99 203 -97.666664 211.00002 -97.00001 C 211.66667 -97.00001 212.33333 -97.00001 213 -97.00001 C 213.66667 -97.00001 214.33334 -97.00001 215 -97.00001 C 217 -97.00001 218.83333 -97.00001 220.5 -97.00001 C 222.16667 -97.00001 224 -97.00001 226.00002 -97.00001 L 274.00003 -97.00001 C 289.33334 -97.00001 304.33334 -96.16667 319.00003 -94.50001 C 333.66666 -92.833336 347.99997 -89.166664 362 -83.5 C 376.00003 -77.83333 389.1667 -70.66667 401.5 -62.000004 C 413.8333 -53.333332 424.16666 -42.666664 432.50003 -30.000002 C 440.83334 -17.333334 446.6667 -3.666666 450.00003 11 C 453.33334 25.666664 455.00003 40.666664 455.00003 56 C 455.00003 72.666664 452.83334 89.166664 448.5 105.50001 C 444.1667 121.833336 437.16666 136.83333 427.50003 150.5 C 417.83334 164.16667 406.16666 175.83333 392.5 185.50002 C 378.83334 195.16667 364.16666 202.83334 348.50003 208.50002 C 332.83334 214.16667 316.6667 218 300.00003 220.00002 C 283.33334 222.00002 266.66666 223.00002 250 223.00002 Z M 240.00002 -260.00003 C 254 -260 267.8333 -261.83334 281.5 -265.50003 C 295.16666 -269.1667 307.16666 -275.6667 317.5 -285 C 327.8333 -294.33334 335.3333 -305.6667 340 -319.00003 C 344.66666 -332.3333 346.99997 -345.66666 347 -359.00003 C 346.99997 -371.6667 345 -384.33334 341 -397 C 336.99997 -409.66666 330.5 -420.5 321.5 -429.50003 C 312.5 -438.50003 301.83334 -445.1667 289.5 -449.50003 C 277.1667 -453.83334 264.33334 -456.66666 251.00002 -458 L 240.00002 -458 C 240.00002 -457.99997 239.83334 -457.99997 239.50002 -458 C 239.16667 -457.99997 239.00002 -457.99997 239.00002 -458 C 225.66667 -457.99997 212.16667 -456.16663 198.5 -452.5 C 184.83333 -448.8333 173 -442.3333 163 -433.00003 C 153 -423.66666 145.66666 -412.5 141 -399.50003 C 136.33333 -386.49997 134 -373 134 -359.00003 C 134 -345.66666 136.33333 -332.3333 141 -319.00003 C 145.66666 -305.6667 153.16667 -294.33334 163.5 -285 C 173.83333 -275.6667 185.83334 -269.1667 199.50002 -265.50003 C 213.16669 -261.83334 226.66667 -260 240.00002 -260.00003 Z M 250 153 C 265.3333 152.99998 280.49997 151.49998 295.5 148.50002 C 310.5 145.50002 324.33334 140 337.00003 132 C 349.6667 124 359.6667 113.16667 367 99.5 C 374.3333 85.833336 378.00003 71.33333 378.00003 56 C 378.00003 43.333332 375.3333 31.166666 370.00003 19.5 C 364.66663 7.8333335 356.66666 -1.5000002 346 -8.5 C 335.33334 -15.5 323.83334 -20.333332 311.5 -23 C 299.16666 -25.666668 286.6667 -27 274.00003 -27 L 226.00002 -27 C 224 -27 222.00002 -27 220.00002 -27 C 218 -27 216.33334 -27 215 -27 C 203.66666 -26.333332 192.33333 -24.333334 181 -21.000002 C 169.66666 -17.666668 159.5 -12.5 150.5 -5.5 C 141.5 1.5 134.83334 10.333334 130.5 21.000002 C 126.166664 31.666668 124.00001 42.666664 124.00001 54 C 124.00001 69.333336 127.5 84.00001 134.5 98 C 141.5 111.99999 151.16667 123.166664 163.5 131.50002 C 175.83334 139.83333 189.5 145.50002 204.5 148.50002 C 219.49998 151.49998 234.66667 152.99998 250 153 Z " id="path1"/></defs><g><g fill="#000000" transform="translate(40 105.20961) rotate(0)"><use href="#path1" transform="translate(0 0) scale(0.09599999)"/></g></g></svg>