<?xml version="1.0" encoding="UTF-8" standalone="no"?>
<svg height="160" viewBox="0 0 256 160" width="256" xmlns="http://www.w3.org/2000/svg">
<defs>
<path d="M 395 -87 Q 381 -122 363.5 -154.5 Q 346 -187 325 -217.5 Q 304 -248 278 -274.5 Q 252 -301 222 -323 L 222 -358 Q 252 -379 278 -405.5 Q 304 -432 325 -462.5 Q 346 -493 363.5 -525.5 Q 381 -558 395 -593 L 458 -570 Q 446 -538 430.5 -507.5 Q 415 -477 397.5 -447.5 Q 380 -418 359.5 -391 Q 339 -364 314 -340 Q 339 -316 359.5 -289 Q 380 -262 397.5 -232.5 Q 415 -203 430.5 -172.5 Q 446 -142 458 -110 Z M 209 -87 Q 195 -122 177.5 -154.5 Q 160 -187 139 -217.5 Q 118 -248 92 -274.5 Q 66 -301 36 -323 L 36 -358 Q 66 -379 92 -405.5 Q 118 -432 139 -462.5 Q 160 -493 177.5 -525.5 Q 195 -558 209 -593 L 272 -570 Q 260 -538 244.5 -507.5 Q 229 -477 211.5 -447.5 Q 194 -418 173.5 -391 Q 153 -364 128 -340 Q 153 -316 173.5 -289 Q 194 -262 211.5 -232.5 Q 229 -203 244.5 -172.5 Q 260 -142 272 -110 Z " id="path1"/>
<path d="M 291 -87 L 228 -110 Q 240 -142 255.5 -172.5 Q 271 -203 288.5 -232.5 Q 306 -262 326.5 -289 Q 347 -316 372 -340 Q 347 -364 326.5 -391 Q 306 -418 288.5 -447.5 Q 271 -477 255.5 -507.5 Q 240 -538 228 -570 L 291 -593 Q 305 -558 322.5 -525.5 Q 340 -493 361 -462.5 Q 382 -432 408 -405.5 Q 434 -379 464 -358 L 464 -323 Q 434 -301 408 -274.5 Q 382 -248 361 -217.5 Q 340 -187 322.5 -154.5 Q 305 -122 291 -87 Z M 105 -87 L 42 -110 Q 54 -142 69.5 -172.5 Q 85 -203 102.5 -232.5 Q 120 -262 140.5 -289 Q 161 -316 186 -340 Q 161 -364 140.5 -391 Q 120 -418 102.5 -447.5 Q 85 -477 69.5 -507.5 Q 54 -538 42 -570 L 105 -593 Q 119 -558 136.5 -525.5 Q 154 -493 175 -462.5 Q 196 -432 222 -405.5 Q 248 -379 278 -358 L 278 -323 Q 248 -301 222 -274.5 Q 196 -248 175 -217.5 Q 154 -187 136.5 -154.5 Q 119 -122 105 -87 Z " id="path2"/>
</defs>
<g>
<g data-source-text="«" fill="#20242e" transform="translate(40 104.99201) rotate(0) scale(0.09599999)">
<use href="#path1" transform="translate(0 0)"/>
</g>
</g>
<g>
<g data-source-text="»" fill="#20242e" transform="translate(168 104.99201) rotate(0) scale(0.09599999)">
<use href="#path2" transform="translate(0 0)"/>
</g>
</g>
</svg>