<?xml version="1.0" encoding="UTF-8" standalone="no"?>
<svg height="160" viewBox="0 0 256 160" width="256" xmlns="http://www.w3.org/2000/svg">
<defs>
<path d="M 399 -82 L 222 -340 L 399 -598 L 454 -565 L 306 -340 L 454 -115 Z M 213 -82 L 36 -340 L 213 -598 L 268 -565 L 120 -340 L 268 -115 Z " id="path1"/>
<path d="M 287 -82 L 232 -115 L 380 -340 L 232 -565 L 287 -598 L 464 -340 Z M 101 -82 L 46 -115 L 194 -340 L 46 -565 L 101 -598 L 278 -340 Z " id="path2"/>
</defs>
<g>
<g data-source-text="«" fill="#dee4e3" transform="translate(40 104.99201) rotate(0) scale(0.09599999)">
<use href="#path1" transform="translate(0 0)"/>
</g>
</g>
<g>
<g data-source-text="»" fill="#dee4e3" transform="translate(168 104.99201) rotate(0) scale(0.09599999)">
<use href="#path2" transform="translate(0 0)"/>
</g>
</g>
</svg>