<svg xmlns="http://www.w3.org/2000/svg" height="160" viewBox="0 0 128 160" width="128"><defs><path d="M 367 8 C 351 8 335.16672 6.6666665 319.50003 4 C 303.83334 1.3333335 288.83334 -3.3333337 274.5 -10.000001 C 260.1667 -16.666668 247.16669 -25.5 235.5 -36.5 C 223.83333 -47.499996 214.16664 -59.833336 206.5 -73.50001 C 198.83331 -87.16667 193.66666 -101.833336 191.00002 -117.5 C 188.33334 -133.16667 187 -149 187 -165 L 187 -520.00006 L 264 -520.00006 L 264 -165 C 264 -151 266.16666 -137.33334 270.5 -124.00001 C 274.83334 -110.666664 281.83334 -99.166664 291.50003 -89.5 C 301.16666 -79.83333 312.66666 -72.83333 326 -68.50001 C 339.33334 -64.166664 353.00003 -62.000004 367 -62.000004 C 378.33334 -62.000004 389.66666 -63.333336 401.00003 -66 C 412.33334 -68.66667 423.33334 -72.666664 434.00003 -78 L 434.00003 -8 C 423.33334 -2.666667 412.33334 1.3333335 401.00003 4 C 389.66666 6.6666665 378.33334 8 367 8 Z M 226.00002 -608 C 217.33333 -608 209 -609.1667 201 -611.50006 C 193 -613.8333 186 -618 180.00002 -624 C 173.99998 -630 169.83333 -637 167.5 -645.00006 C 165.16666 -653.00006 164 -661.3333 164.00002 -670 C 164 -678.6667 165.16666 -687 167.5 -695.00006 C 169.83333 -703 173.99998 -710 180.00002 -716 C 186 -722 193 -726.3333 201 -729.00006 C 209 -731.6667 217.33333 -733 226.00002 -733.00006 C 234.66667 -733 243 -731.6667 251.00002 -729.00006 C 259 -726.3333 266 -722 272 -716 C 278 -710 282.33334 -703 285 -695.00006 C 287.66666 -687 289 -678.6667 289 -670 C 289 -661.3333 287.66666 -653.00006 285 -645.00006 C 282.33334 -637 278 -630 272 -624 C 266 -618 259 -613.8333 251.00002 -611.50006 C 243 -609.1667 234.66667 -608 226.00002 -608 Z " id="path1"/></defs><g><g fill="#ffffff" transform="translate(40 105.20961) rotate(0)"><use href="#path1" transform="translate(0 0) scale(0.09599999)"/></g></g></svg>