<?xml version="1.0" encoding="UTF-8" standalone="no"?>
<svg height="160" viewBox="0 0 128 160" width="128" xmlns="http://www.w3.org/2000/svg">
<defs>
<path d="M 409 0 L 355 0 Q 333 -0 310.5 -4 Q 288 -8 267.5 -18 Q 247 -28 230.5 -44 Q 214 -60 204 -80.5 Q 194 -101 190.5 -123.5 Q 187 -146 187 -169 L 187 -520 L 264 -520 L 264 -169 Q 264 -150 269 -131 Q 274 -112 286.5 -97.5 Q 299 -83 317.5 -76.5 Q 336 -70 355 -70 L 409 -70 Z M 226 -608 Q 213 -608 201 -611.5 Q 189 -615 180 -624 Q 171 -633 167.5 -645 Q 164 -657 164 -670 Q 164 -683 167.5 -695 Q 171 -707 180 -716 Q 189 -725 201 -729 Q 213 -733 226 -733 Q 239 -733 251 -729 Q 263 -725 272 -716 Q 281 -707 285 -695 Q 289 -683 289 -670 Q 289 -657 285 -645 Q 281 -633 272 -624 Q 263 -615 251 -611.5 Q 239 -608 226 -608 Z " id="path1"/>
</defs>
<g>
<g data-source-text="i" fill="#dee4e3" transform="translate(40 104.99201) rotate(0) scale(0.09599999)">
<use href="#path1" transform="translate(0 0)"/>
</g>
</g>
</svg>