<svg xmlns="http://www.w3.org/2000/svg" height="160" viewBox="0 0 128 160" width="128"><defs><path d="M 236.00002 0 L 236.00002 -450.00003 L 99 -450.00003 L 99 -520.00006 L 313 -520.00006 L 313 0 Z M 275 -608 C 266.33334 -608 258 -609.1667 250 -611.50006 C 241.99998 -613.8333 234.99998 -618 229 -624 C 223.00002 -630 218.83333 -637 216.50002 -645.00006 C 214.16667 -653.00006 212.99998 -661.3333 213 -670 C 212.99998 -678.6667 214.16667 -687 216.50002 -695.00006 C 218.83333 -703 223.00002 -710 229 -716 C 234.99998 -722 241.99998 -726.3333 250 -729.00006 C 258 -731.6667 266.33334 -733 275 -733.00006 C 283.66666 -733 292 -731.6667 300.00003 -729.00006 C 308 -726.3333 315 -722 321 -716 C 327 -710 331.33334 -703 334 -695.00006 C 336.6667 -687 338.00003 -678.6667 338.00003 -670 C 338.00003 -661.3333 336.6667 -653.00006 334 -645.00006 C 331.33334 -637 327 -630 321 -624 C 315 -618 308 -613.8333 300.00003 -611.50006 C 292 -609.1667 283.66666 -608 275 -608 Z " id="path1"/></defs><g><g fill="#000000" transform="translate(40 105.20961) rotate(0)"><use href="#path1" transform="translate(0 0) scale(0.09599999)"/></g></g></svg>