<?xml version="1.0" encoding="UTF-8" standalone="no"?>
<svg height="160" viewBox="0 0 128 160" width="128" xmlns="http://www.w3.org/2000/svg">
<defs>
<path d="M 75 0 L 75 -70 L 218 -70 L 218 -450 L 89 -450 L 89 -520 L 296 -520 L 296 -70 L 425 -70 L 425 0 Z M 255 -608 Q 242 -608 230 -611.5 Q 218 -615 209 -624 Q 200 -633 196.5 -645 Q 193 -657 193 -670 Q 193 -683 196.5 -695 Q 200 -707 209 -716 Q 218 -725 230 -729 Q 242 -733 255 -733 Q 268 -733 280 -729 Q 292 -725 301 -716 Q 310 -707 314 -695 Q 318 -683 318 -670 Q 318 -657 314 -645 Q 310 -633 301 -624 Q 292 -615 280 -611.5 Q 268 -608 255 -608 Z " id="path1"/>
</defs>
<g>
<g data-source-text="i" fill="#20242e" transform="translate(40 104.99201) rotate(0) scale(0.09599999)">
<use href="#path1" transform="translate(0 0)"/>
</g>
</g>
</svg>