<?xml version="1.0" encoding="UTF-8" standalone="no"?>
<svg height="160" viewBox="0 0 128 160" width="128" xmlns="http://www.w3.org/2000/svg">
<defs>
<path d="M 367 8 Q 343 8 319.5 4 Q 296 -0 274.5 -10 Q 253 -20 235.5 -36.5 Q 218 -53 206.5 -73.5 Q 195 -94 191 -117.5 Q 187 -141 187 -165 L 187 -520 L 264 -520 L 264 -165 Q 264 -144 270.5 -124 Q 277 -104 291.5 -89.5 Q 306 -75 326 -68.5 Q 346 -62 367 -62 Q 384 -62 401 -66 Q 418 -70 434 -78 L 434 -8 Q 418 -0 401 4 Q 384 8 367 8 Z M 250 -608 Q 237 -608 225 -611.5 Q 213 -615 204 -624 Q 195 -633 191.5 -645 Q 188 -657 188 -670 Q 188 -683 191.5 -695 Q 195 -707 204 -716 Q 213 -725 225 -729 Q 237 -733 250 -733 Q 263 -733 275 -729 Q 287 -725 296 -716 Q 305 -707 309 -695 Q 313 -683 313 -670 Q 313 -657 309 -645 Q 305 -633 296 -624 Q 287 -615 275 -611.5 Q 263 -608 250 -608 Z " id="path1"/>
</defs>
<g>
<g data-source-text="i" fill="#20242e" transform="translate(40 104.99201) rotate(0) scale(0.09599999)">
<use href="#path1" transform="translate(0 0)"/>
</g>
</g>
</svg>