<?xml version="1.0" encoding="UTF-8" standalone="no"?>
<svg height="160" viewBox="0 0 128 160" width="128" xmlns="http://www.w3.org/2000/svg">
<defs>
<path d="M 75 0 L 75 -70 L 218 -70 L 218 -450 L 89 -450 L 89 -520 L 296 -520 L 296 -70 L 425 -70 L 425 0 Z M 257 -608 Q 244 -608 232 -611.5 Q 220 -615 211 -624 Q 202 -633 198.5 -645 Q 195 -657 195 -670 Q 195 -683 198.5 -695 Q 202 -707 211 -716 Q 220 -725 232 -729 Q 244 -733 257 -733 Q 270 -733 282 -729 Q 294 -725 303 -716 Q 312 -707 316 -695 Q 320 -683 320 -670 Q 320 -657 316 -645 Q 312 -633 303 -624 Q 294 -615 282 -611.5 Q 270 -608 257 -608 Z " id="path1"/>
</defs>
<g>
<g data-source-text="i" fill="#dee4e3" transform="translate(40 104.99201) rotate(0) scale(0.09599999)">
<use href="#path1" transform="translate(0 0)"/>
</g>
</g>
</svg>