<?xml version="1.0" encoding="UTF-8" standalone="no"?>
<svg height="160" viewBox="0 0 128 160" width="128" xmlns="http://www.w3.org/2000/svg">
<defs>
<path d="M 305 8 Q 287 8 269 3.5 Q 251 -1 237.5 -13 Q 224 -25 217.5 -43 Q 211 -61 211 -79 L 211 -450 L 75 -450 L 75 -520 L 289 -520 L 289 -79 Q 289 -71 293 -63 Q 297 -55 305 -55 Q 308 -55 311.5 -55 Q 315 -55 318 -57 L 461 -175 L 505 -127 L 362 -9 Q 350 1 335 4.5 Q 320 8 305 8 Z M 250 -608 Q 237 -608 225 -611.5 Q 213 -615 204 -624 Q 195 -633 191.5 -645 Q 188 -657 188 -670 Q 188 -683 191.5 -695 Q 195 -707 204 -716 Q 213 -725 225 -729 Q 237 -733 250 -733 Q 263 -733 275 -729 Q 287 -725 296 -716 Q 305 -707 309 -695 Q 313 -683 313 -670 Q 313 -657 309 -645 Q 305 -633 296 -624 Q 287 -615 275 -611.5 Q 263 -608 250 -608 Z " id="path1"/>
</defs>
<g>
<g data-source-text="i" fill="#dee4e3" transform="translate(40 104.99201) rotate(0) scale(0.09599999)">
<use href="#path1" transform="translate(0 0)"/>
</g>
</g>
</svg>