<?xml version="1.0" encoding="UTF-8" standalone="no"?>
<svg height="160" viewBox="0 0 128 160" width="128" xmlns="http://www.w3.org/2000/svg">
<defs>
<path d="M 276 8 Q 259 8 243 3.5 Q 227 -1 214 -11.5 Q 201 -22 195.5 -38 Q 190 -54 190 -71 L 190 -520 L 268 -520 L 268 -71 Q 268 -66 269.5 -60.5 Q 271 -55 276 -55 Q 278 -55 279.5 -55 Q 281 -55 282 -56 L 417 -166 L 461 -118 L 327 -7 Q 316 1 302.5 4.5 Q 289 8 276 8 Z M 229 -608 Q 216 -608 204 -611.5 Q 192 -615 183 -624 Q 174 -633 170.5 -645 Q 167 -657 167 -670 Q 167 -683 170.5 -695 Q 174 -707 183 -716 Q 192 -725 204 -729 Q 216 -733 229 -733 Q 242 -733 254 -729 Q 266 -725 275 -716 Q 284 -707 288 -695 Q 292 -683 292 -670 Q 292 -657 288 -645 Q 284 -633 275 -624 Q 266 -615 254 -611.5 Q 242 -608 229 -608 Z " id="path1"/>
</defs>
<g>
<g data-source-text="i" fill="#20242e" transform="translate(40 104.99201) rotate(0) scale(0.09599999)">
<use href="#path1" transform="translate(0 0)"/>
</g>
</g>
</svg>