<?xml version="1.0" encoding="UTF-8" standalone="no"?>
<svg height="160" viewBox="0 0 128 160" width="128" xmlns="http://www.w3.org/2000/svg">
<defs>
<path d="M 236 0 L 236 -450 L 100 -450 L 100 -520 L 313 -520 L 313 0 Z M 275 -608 Q 262 -608 250 -611.5 Q 238 -615 229 -624 Q 220 -633 216.5 -645 Q 213 -657 213 -670 Q 213 -683 216.5 -695 Q 220 -707 229 -716 Q 238 -725 250 -729 Q 262 -733 275 -733 Q 288 -733 300 -729 Q 312 -725 321 -716 Q 330 -707 334 -695 Q 338 -683 338 -670 Q 338 -657 334 -645 Q 330 -633 321 -624 Q 312 -615 300 -611.5 Q 288 -608 275 -608 Z " id="path1"/>
</defs>
<g>
<g data-source-text="i" fill="#20242e" transform="translate(40 104.99201) rotate(0) scale(0.09599999)">
<use href="#path1" transform="translate(0 0)"/>
</g>
</g>
</svg>