<?xml version="1.0" encoding="UTF-8" standalone="no"?>
<svg height="160" viewBox="0 0 128 160" width="128" xmlns="http://www.w3.org/2000/svg">
<defs>
<path d="M 341 0 Q 321 0 300 -3.5 Q 279 -7 260.5 -16 Q 242 -25 227 -40 Q 212 -55 203 -74 Q 194 -93 190.5 -113.5 Q 187 -134 187 -155 L 187 -520 L 264 -520 L 264 -155 Q 264 -138 268 -122 Q 272 -106 283 -93.5 Q 294 -81 309.5 -75.5 Q 325 -70 341 -70 L 409 -70 L 409 0 Z M 250 -608 Q 237 -608 225 -611.5 Q 213 -615 204 -624 Q 195 -633 191.5 -645 Q 188 -657 188 -670 Q 188 -683 191.5 -695 Q 195 -707 204 -716 Q 213 -725 225 -729 Q 237 -733 250 -733 Q 263 -733 275 -729 Q 287 -725 296 -716 Q 305 -707 309 -695 Q 313 -683 313 -670 Q 313 -657 309 -645 Q 305 -633 296 -624 Q 287 -615 275 -611.5 Q 263 -608 250 -608 Z " id="path1"/>
</defs>
<g>
<g data-source-text="i" fill="#dee4e3" transform="translate(40 104.99201) rotate(0) scale(0.09599999)">
<use href="#path1" transform="translate(0 0)"/>
</g>
</g>
</svg>