<?xml version="1.0" encoding="UTF-8" standalone="no"?>
<svg height="160" viewBox="0 0 128 160" width="128" xmlns="http://www.w3.org/2000/svg">
<defs>
<path d="M 367 8 Q 343 8 319.5 4 Q 296 -0 274.5 -10 Q 253 -20 235.5 -36.5 Q 218 -53 206.5 -73.5 Q 195 -94 191 -117.5 Q 187 -141 187 -165 L 187 -520 L 264 -520 L 264 -165 Q 264 -144 270.5 -124 Q 277 -104 291.5 -89.5 Q 306 -75 326 -68.5 Q 346 -62 367 -62 Q 384 -62 401 -66 Q 418 -70 434 -78 L 434 -8 Q 418 -0 401 4 Q 384 8 367 8 Z M 226 -608 Q 213 -608 201 -611.5 Q 189 -615 180 -624 Q 171 -633 167.5 -645 Q 164 -657 164 -670 Q 164 -683 167.5 -695 Q 171 -707 180 -716 Q 189 -725 201 -729 Q 213 -733 226 -733 Q 239 -733 251 -729 Q 263 -725 272 -716 Q 281 -707 285 -695 Q 289 -683 289 -670 Q 289 -657 285 -645 Q 281 -633 272 -624 Q 263 -615 251 -611.5 Q 239 -608 226 -608 Z " id="path1"/>
</defs>
<g>
<g data-source-text="i" fill="#dee4e3" transform="translate(40 104.99201) rotate(0) scale(0.09599999)">
<use href="#path1" transform="translate(0 0)"/>
</g>
</g>
</svg>