<?xml version="1.0" encoding="UTF-8" standalone="no"?>
<svg height="160" viewBox="0 0 128 160" width="128" xmlns="http://www.w3.org/2000/svg">
<defs>
<path d="M 276 8 Q 259 8 243 3.5 Q 227 -1 214 -11.5 Q 201 -22 195.5 -38 Q 190 -54 190 -71 L 190 -450 L 54 -450 L 54 -520 L 268 -520 L 268 -71 Q 268 -66 269.5 -60.5 Q 271 -55 276 -55 Q 278 -55 279.5 -55 Q 281 -55 282 -56 L 417 -166 L 461 -118 L 327 -7 Q 316 1 302.5 4.5 Q 289 8 276 8 Z M 234 -608 Q 221 -608 209 -611.5 Q 197 -615 188 -624 Q 179 -633 175.5 -645 Q 172 -657 172 -670 Q 172 -683 175.5 -695 Q 179 -707 188 -716 Q 197 -725 209 -729 Q 221 -733 234 -733 Q 247 -733 259 -729 Q 271 -725 280 -716 Q 289 -707 293 -695 Q 297 -683 297 -670 Q 297 -657 293 -645 Q 289 -633 280 -624 Q 271 -615 259 -611.5 Q 247 -608 234 -608 Z " id="path1"/>
</defs>
<g>
<g data-source-text="i" fill="#20242e" transform="translate(40 104.99201) rotate(0) scale(0.09599999)">
<use href="#path1" transform="translate(0 0)"/>
</g>
</g>
</svg>