<svg xmlns="http://www.w3.org/2000/svg" height="160" viewBox="0 0 128 160" width="128"><defs><path d="M 281 7 C 268.33334 6.9999995 255.83333 5.1666665 243.5 1.5 C 231.16667 -2.1666665 220.5 -8.500001 211.50002 -17.500002 C 202.49998 -26.500002 196.16666 -37 192.5 -49 C 188.83333 -61 187 -73.333336 187 -86.00001 L 187 -520.00006 L 264 -520.00006 L 264 -86.00001 C 264 -80.66667 265.3333 -75.166664 268 -69.5 C 270.66666 -63.833332 275 -61 281 -61 C 282.33334 -61 284 -61.333336 286 -62.000004 C 288 -62.666668 289.66666 -63.666664 291.00003 -65.00001 L 432 -183.00002 L 480.00003 -132 L 339 -13.000001 C 331 -6.3333335 321.83334 -1.3333333 311.5 2 C 301.16666 5.333333 291 6.9999995 281 7 Z M 226.00002 -608 C 217.33333 -608 209 -609.1667 201 -611.50006 C 193 -613.8333 186 -618 180.00002 -624 C 173.99998 -630 169.83333 -637 167.5 -645.00006 C 165.16666 -653.00006 164 -661.3333 164.00002 -670 C 164 -678.6667 165.16666 -687 167.5 -695.00006 C 169.83333 -703 173.99998 -710 180.00002 -716 C 186 -722 193 -726.3333 201 -729.00006 C 209 -731.6667 217.33333 -733 226.00002 -733.00006 C 234.66667 -733 243 -731.6667 251.00002 -729.00006 C 259 -726.3333 266 -722 272 -716 C 278 -710 282.33334 -703 285 -695.00006 C 287.66666 -687 289 -678.6667 289 -670 C 289 -661.3333 287.66666 -653.00006 285 -645.00006 C 282.33334 -637 278 -630 272 -624 C 266 -618 259 -613.8333 251.00002 -611.50006 C 243 -609.1667 234.66667 -608 226.00002 -608 Z " id="path1"/></defs><g><g fill="#ffffff" transform="translate(40 105.20961) rotate(0)"><use href="#path1" transform="translate(0 0) scale(0.09599999)"/></g></g></svg>