<?xml version="1.0" encoding="UTF-8" standalone="no"?>
<svg height="160" viewBox="0 0 128 160" width="128" xmlns="http://www.w3.org/2000/svg">
<defs>
<path d="M 333 8 Q 312 8 291.5 3 Q 271 -2 253.5 -13.5 Q 236 -25 223 -42 Q 210 -59 202.5 -78.5 Q 195 -98 192.5 -118.5 Q 190 -139 190 -160 L 190 -520 L 268 -520 L 268 -160 Q 268 -143 270.5 -126.5 Q 273 -110 280.5 -95.5 Q 288 -81 302 -71.5 Q 316 -62 333 -62 Q 348 -62 362 -70.5 Q 376 -79 383.5 -92.5 Q 391 -106 394.5 -122 Q 398 -138 398 -153 L 398 -157 L 475 -157 L 475 -150 Q 475 -130 471.5 -110.5 Q 468 -91 460 -72.5 Q 452 -54 439 -38 Q 426 -22 409 -11.5 Q 392 -1 372.5 3.5 Q 353 8 333 8 Z M 229 -608 Q 216 -608 204 -611.5 Q 192 -615 183 -624 Q 174 -633 170.5 -645 Q 167 -657 167 -670 Q 167 -683 170.5 -695 Q 174 -707 183 -716 Q 192 -725 204 -729 Q 216 -733 229 -733 Q 242 -733 254 -729 Q 266 -725 275 -716 Q 284 -707 288 -695 Q 292 -683 292 -670 Q 292 -657 288 -645 Q 284 -633 275 -624 Q 266 -615 254 -611.5 Q 242 -608 229 -608 Z " id="path1"/>
</defs>
<g>
<g data-source-text="i" fill="#20242e" transform="translate(40 104.99201) rotate(0) scale(0.09599999)">
<use href="#path1" transform="translate(0 0)"/>
</g>
</g>
</svg>