<?xml version="1.0" encoding="UTF-8" standalone="no"?>
<svg height="160" viewBox="0 0 128 160" width="128" xmlns="http://www.w3.org/2000/svg">
<defs>
<path d="M 379 8 Q 354 8 328.5 4 Q 303 -0 280 -11.5 Q 257 -23 238.5 -41 Q 220 -59 208 -81.5 Q 196 -104 191.5 -129 Q 187 -154 187 -180 L 187 -520 L 264 -520 L 264 -180 Q 264 -157 271 -134 Q 278 -111 294 -94 Q 310 -77 333 -69.5 Q 356 -62 379 -62 Q 394 -62 408 -66 Q 422 -70 434 -78 L 434 -8 Q 422 -0 408 4 Q 394 8 379 8 Z M 226 -608 Q 213 -608 201 -611.5 Q 189 -615 180 -624 Q 171 -633 167.5 -645 Q 164 -657 164 -670 Q 164 -683 167.5 -695 Q 171 -707 180 -716 Q 189 -725 201 -729 Q 213 -733 226 -733 Q 239 -733 251 -729 Q 263 -725 272 -716 Q 281 -707 285 -695 Q 289 -683 289 -670 Q 289 -657 285 -645 Q 281 -633 272 -624 Q 263 -615 251 -611.5 Q 239 -608 226 -608 Z " id="path1"/>
</defs>
<g>
<g data-source-text="i" fill="#dee4e3" transform="translate(40 104.99201) rotate(0) scale(0.09599999)">
<use href="#path1" transform="translate(0 0)"/>
</g>
</g>
</svg>