<?xml version="1.0" encoding="UTF-8" standalone="no"?>
<svg height="160" viewBox="0 0 128 160" width="128" xmlns="http://www.w3.org/2000/svg">
<defs>
<path d="M 284 8 Q 266 8 248 3.5 Q 230 -1 216 -13 Q 202 -25 196 -43 Q 190 -61 190 -79 L 190 -450 L 54 -450 L 54 -520 L 268 -520 L 268 -79 Q 268 -71 272 -63 Q 276 -55 284 -55 Q 287 -55 290.5 -55 Q 294 -55 297 -57 L 458 -190 L 502 -142 L 341 -9 Q 329 1 314 4.5 Q 299 8 284 8 Z M 234 -608 Q 221 -608 209 -611.5 Q 197 -615 188 -624 Q 179 -633 175.5 -645 Q 172 -657 172 -670 Q 172 -683 175.5 -695 Q 179 -707 188 -716 Q 197 -725 209 -729 Q 221 -733 234 -733 Q 247 -733 259 -729 Q 271 -725 280 -716 Q 289 -707 293 -695 Q 297 -683 297 -670 Q 297 -657 293 -645 Q 289 -633 280 -624 Q 271 -615 259 -611.5 Q 247 -608 234 -608 Z " id="path1"/>
</defs>
<g>
<g data-source-text="i" fill="#dee4e3" transform="translate(40 104.99201) rotate(0) scale(0.09599999)">
<use href="#path1" transform="translate(0 0)"/>
</g>
</g>
</svg>