<?xml version="1.0" encoding="UTF-8" standalone="no"?>
<svg height="160" viewBox="0 0 128 160" width="128" xmlns="http://www.w3.org/2000/svg">
<defs>
<path d="M 281 8 Q 262 8 243.5 2.5 Q 225 -3 211.5 -15.5 Q 198 -28 192.5 -46.5 Q 187 -65 187 -83 L 187 -520 L 264 -520 L 264 -83 Q 264 -75 268 -67 Q 272 -59 281 -59 Q 284 -59 287.5 -59.5 Q 291 -60 293 -62 L 449 -190 L 497 -138 L 341 -10 Q 328 -0 312.5 4 Q 297 8 281 8 Z M 250 -608 Q 237 -608 225 -611.5 Q 213 -615 204 -624 Q 195 -633 191.5 -645 Q 188 -657 188 -670 Q 188 -683 191.5 -695 Q 195 -707 204 -716 Q 213 -725 225 -729 Q 237 -733 250 -733 Q 263 -733 275 -729 Q 287 -725 296 -716 Q 305 -707 309 -695 Q 313 -683 313 -670 Q 313 -657 309 -645 Q 305 -633 296 -624 Q 287 -615 275 -611.5 Q 263 -608 250 -608 Z " id="path1"/>
</defs>
<g>
<g data-source-text="i" fill="#20242e" transform="translate(40 104.99201) rotate(0) scale(0.09599999)">
<use href="#path1" transform="translate(0 0)"/>
</g>
</g>
</svg>