<svg xmlns="http://www.w3.org/2000/svg" height="160" viewBox="0 0 128 160" width="128"><defs><path d="M 211.00002 0 L 211.00002 -450.00003 L 75.00001 -450.00003 L 75.00001 -520.00006 L 289 -520.00006 L 289 -70.00001 L 425 -70.00001 L 425 0 Z M 250 -608 C 241.33333 -608 233 -609.1667 225.00002 -611.50006 C 217 -613.8333 210 -618 204 -624 C 198 -630 193.83331 -637 191.50002 -645.00006 C 189.16667 -653.00006 188.00002 -661.3333 188.00002 -670 C 188.00002 -678.6667 189.16667 -687 191.50002 -695.00006 C 193.83331 -703 198 -710 204 -716 C 210 -722 217 -726.3333 225.00002 -729.00006 C 233 -731.6667 241.33333 -733 250 -733.00006 C 258.66666 -733 267 -731.6667 275 -729.00006 C 283 -726.3333 290 -722 296 -716 C 302 -710 306.33334 -703 309 -695.00006 C 311.6667 -687 313 -678.6667 313 -670 C 313 -661.3333 311.6667 -653.00006 309 -645.00006 C 306.33334 -637 302 -630 296 -624 C 290 -618 283 -613.8333 275 -611.50006 C 267 -609.1667 258.66666 -608 250 -608 Z " id="path1"/></defs><g><g fill="#000000" transform="translate(40 105.20961) rotate(0)"><use href="#path1" transform="translate(0 0) scale(0.09599999)"/></g></g></svg>