<?xml version="1.0" encoding="UTF-8" standalone="no"?>
<svg height="160" viewBox="0 0 128 160" width="128" xmlns="http://www.w3.org/2000/svg">
<defs>
<path d="M 236 0 L 236 -450 L 100 -450 L 100 -520 L 313 -520 L 313 0 Z M 268 -608 Q 255 -608 243 -611.5 Q 231 -615 222 -624 Q 213 -633 209.5 -645 Q 206 -657 206 -670 Q 206 -683 209.5 -695 Q 213 -707 222 -716 Q 231 -725 243 -729 Q 255 -733 268 -733 Q 281 -733 293 -729 Q 305 -725 314 -716 Q 323 -707 327 -695 Q 331 -683 331 -670 Q 331 -657 327 -645 Q 323 -633 314 -624 Q 305 -615 293 -611.5 Q 281 -608 268 -608 Z " id="path1"/>
</defs>
<g>
<g data-source-text="i" fill="#20242e" transform="translate(40 104.99201) rotate(0) scale(0.09599999)">
<use href="#path1" transform="translate(0 0)"/>
</g>
</g>
</svg>