<?xml version="1.0" encoding="UTF-8" standalone="no"?>
<svg xmlns="http://www.w3.org/2000/svg" height="160" viewBox="0 0 128 160" width="128"><defs><path d="M 305 7 Q 286 7 267.5 1.5 Q 249 -4 236 -17.5 Q 223 -31 217 -49 Q 211 -67 211 -86 L 211 -450 L 75 -450 L 75 -520 L 289 -520 L 289 -86 Q 289 -78 293 -69.5 Q 297 -61 305 -61 Q 308 -61 310.5 -62 Q 313 -63 316 -65 L 457 -183 L 505 -132 L 364 -13 Q 352 -3 336.5 2 Q 321 7 305 7 Z M 250 -608 Q 237 -608 225 -611.5 Q 213 -615 204 -624 Q 195 -633 191.5 -645 Q 188 -657 188 -670 Q 188 -683 191.5 -695 Q 195 -707 204 -716 Q 213 -725 225 -729 Q 237 -733 250 -733 Q 263 -733 275 -729 Q 287 -725 296 -716 Q 305 -707 309 -695 Q 313 -683 313 -670 Q 313 -657 309 -645 Q 305 -633 296 -624 Q 287 -615 275 -611.5 Q 263 -608 250 -608 Z " id="path1"/></defs><g><g data-source-text="i" fill="#dee4e3" transform="translate(40 104.99201) rotate(0) scale(0.09599999)"><use href="#path1" transform="translate(0 0)"/></g></g></svg>