<?xml version="1.0" encoding="UTF-8" standalone="no"?>
<svg height="160" viewBox="0 0 128 160" width="128" xmlns="http://www.w3.org/2000/svg">
<defs>
<path d="M 211 0 L 211 -520 L 289 -520 L 289 0 Z M 250 -608 Q 237 -608 225 -611.5 Q 213 -615 204 -624 Q 195 -633 191.5 -645 Q 188 -657 188 -670 Q 188 -683 191.5 -695 Q 195 -707 204 -716 Q 213 -725 225 -729 Q 237 -733 250 -733 Q 263 -733 275 -729 Q 287 -725 296 -716 Q 305 -707 309 -695 Q 313 -683 313 -670 Q 313 -657 309 -645 Q 305 -633 296 -624 Q 287 -615 275 -611.5 Q 263 -608 250 -608 Z " id="path1"/>
</defs>
<g>
<g data-source-text="i" fill="#dee4e3" transform="translate(40 104.99201) rotate(0) scale(0.09599999)">
<use href="#path1" transform="translate(0 0)"/>
</g>
</g>
</svg>