<?xml version="1.0" encoding="UTF-8" standalone="no"?>
<svg height="160" viewBox="0 0 128 160" width="128" xmlns="http://www.w3.org/2000/svg">
<defs>
<path d="M 276 8 Q 259 8 242.5 3.5 Q 226 -1 213.5 -12.5 Q 201 -24 195.5 -40 Q 190 -56 190 -73 L 190 -450 L 54 -450 L 54 -520 L 268 -520 L 268 -73 Q 268 -68 269.5 -62.5 Q 271 -57 276 -57 Q 277 -57 279 -57.5 Q 281 -58 282 -59 L 403 -176 L 453 -129 L 332 -12 Q 321 -2 306 3 Q 291 8 276 8 Z M 234 -608 Q 221 -608 209 -611.5 Q 197 -615 188 -624 Q 179 -633 175.5 -645 Q 172 -657 172 -670 Q 172 -683 175.5 -695 Q 179 -707 188 -716 Q 197 -725 209 -729 Q 221 -733 234 -733 Q 247 -733 259 -729 Q 271 -725 280 -716 Q 289 -707 293 -695 Q 297 -683 297 -670 Q 297 -657 293 -645 Q 289 -633 280 -624 Q 271 -615 259 -611.5 Q 247 -608 234 -608 Z " id="path1"/>
</defs>
<g>
<g data-source-text="i" fill="#dee4e3" transform="translate(40 104.99201) rotate(0) scale(0.09599999)">
<use href="#path1" transform="translate(0 0)"/>
</g>
</g>
</svg>