<?xml version="1.0" encoding="UTF-8" standalone="no"?>
<svg height="160" viewBox="0 0 128 160" width="128" xmlns="http://www.w3.org/2000/svg">
<defs>
<path d="M 281 8 Q 262 8 243.5 2.5 Q 225 -3 211.5 -15.5 Q 198 -28 192.5 -46.5 Q 187 -65 187 -83 L 187 -520 L 264 -520 L 264 -83 Q 264 -75 268 -67 Q 272 -59 281 -59 Q 284 -59 287.5 -59.5 Q 291 -60 293 -62 L 458 -197 L 505 -145 L 341 -10 Q 328 -0 312.5 4 Q 297 8 281 8 Z M 226 -608 Q 213 -608 201 -611.5 Q 189 -615 180 -624 Q 171 -633 167.5 -645 Q 164 -657 164 -670 Q 164 -683 167.5 -695 Q 171 -707 180 -716 Q 189 -725 201 -729 Q 213 -733 226 -733 Q 239 -733 251 -729 Q 263 -725 272 -716 Q 281 -707 285 -695 Q 289 -683 289 -670 Q 289 -657 285 -645 Q 281 -633 272 -624 Q 263 -615 251 -611.5 Q 239 -608 226 -608 Z " id="path1"/>
</defs>
<g>
<g data-source-text="i" fill="#dee4e3" transform="translate(40 104.99201) rotate(0) scale(0.09599999)">
<use href="#path1" transform="translate(0 0)"/>
</g>
</g>
</svg>