<?xml version="1.0" encoding="UTF-8" standalone="no"?>
<svg height="160" viewBox="0 0 128 160" width="128" xmlns="http://www.w3.org/2000/svg">
<defs>
<path d="M 258 222 Q 250 222 242 221 Q 234 220 226.5 218 Q 219 216 212 211.5 Q 205 207 199 202 L 58 83 L 106 32 L 247 150 Q 250 152 252.5 153 Q 255 154 258 154 Q 266 154 270 145.5 Q 274 137 274 129 L 274 -450 L 138 -450 L 138 -520 L 352 -520 L 352 129 Q 352 148 346 166 Q 340 184 327 197.5 Q 314 211 295.5 216.5 Q 277 222 258 222 Z M 300 -608 Q 287 -608 275 -611.5 Q 263 -615 254 -624 Q 245 -633 241.5 -645 Q 238 -657 238 -670 Q 238 -683 241.5 -695 Q 245 -707 254 -716 Q 263 -725 275 -729 Q 287 -733 300 -733 Q 313 -733 325 -729 Q 337 -725 346 -716 Q 355 -707 359 -695 Q 363 -683 363 -670 Q 363 -657 359 -645 Q 355 -633 346 -624 Q 337 -615 325 -611.5 Q 313 -608 300 -608 Z " id="path1"/>
</defs>
<g data-source-text="j" fill="#20242e" transform="translate(40 104.99201) rotate(0) scale(0.09599999)">
<use href="#path1" transform="translate(0 0)"/>
</g>
</svg>