<?xml version="1.0" encoding="UTF-8" standalone="no"?>
<svg height="160" viewBox="0 0 128 160" width="128" xmlns="http://www.w3.org/2000/svg">
<defs>
<path d="M 211 223 Q 195 223 179 219 Q 163 215 151 205 L -14 70 L 34 18 L 198 153 Q 201 155 204 155.5 Q 207 156 211 156 Q 219 156 223 148 Q 227 140 227 132 L 227 -520 L 305 -520 L 305 132 Q 305 150 299 168.5 Q 293 187 279.5 199.5 Q 266 212 247.5 217.5 Q 229 223 211 223 Z M 266 -608 Q 253 -608 241 -611.5 Q 229 -615 220 -624 Q 211 -633 207.5 -645 Q 204 -657 204 -670 Q 204 -683 207.5 -695 Q 211 -707 220 -716 Q 229 -725 241 -729 Q 253 -733 266 -733 Q 279 -733 291 -729 Q 303 -725 312 -716 Q 321 -707 325 -695 Q 329 -683 329 -670 Q 329 -657 325 -645 Q 321 -633 312 -624 Q 303 -615 291 -611.5 Q 279 -608 266 -608 Z " id="path1"/>
</defs>
<g>
<g data-source-text="j" fill="#dee4e3" transform="translate(40 104.99201) rotate(0) scale(0.09599999)">
<use href="#path1" transform="translate(0 0)"/>
</g>
</g>
</svg>