<?xml version="1.0" encoding="UTF-8" standalone="no"?>
<svg height="160" viewBox="0 0 128 160" width="128" xmlns="http://www.w3.org/2000/svg">
<defs>
<path d="M 185 223 Q 163 223 141 218.5 Q 119 214 99.5 203.5 Q 80 193 65 176.5 Q 50 160 40 140 Q 30 120 25.5 98.5 Q 21 77 20 55 L 98 55 Q 98 73 103.5 91 Q 109 109 120 123.5 Q 131 138 148.5 145.5 Q 166 153 185 153 Q 200 153 214.5 147.5 Q 229 142 239.5 131.5 Q 250 121 257 107.5 Q 264 94 267.5 79.5 Q 271 65 272.5 50 Q 274 35 274 20 L 274 -450 L 138 -450 L 138 -520 L 352 -520 L 352 20 Q 352 45 349 69.5 Q 346 94 337 117.5 Q 328 141 313.5 161.5 Q 299 182 279 196.5 Q 259 211 234.5 217 Q 210 223 185 223 Z M 305 -608 Q 292 -608 280 -611.5 Q 268 -615 259 -624 Q 250 -633 246.5 -645 Q 243 -657 243 -670 Q 243 -683 246.5 -695 Q 250 -707 259 -716 Q 268 -725 280 -729 Q 292 -733 305 -733 Q 318 -733 330 -729 Q 342 -725 351 -716 Q 360 -707 364 -695 Q 368 -683 368 -670 Q 368 -657 364 -645 Q 360 -633 351 -624 Q 342 -615 330 -611.5 Q 318 -608 305 -608 Z " id="path1"/>
</defs>
<g>
<g data-source-text="j" fill="#dee4e3" transform="translate(40 104.99201) rotate(0) scale(0.09599999)">
<use href="#path1" transform="translate(0 0)"/>
</g>
</g>
</svg>