<?xml version="1.0" encoding="UTF-8" standalone="no"?>
<svg height="160" viewBox="0 0 128 160" width="128" xmlns="http://www.w3.org/2000/svg">
<defs>
<path d="M 219 223 Q 204 223 189 219.5 Q 174 216 163 206 L -2 71 L 43 23 L 207 158 Q 209 160 212.5 160 Q 216 160 219 160 Q 228 160 232 152 Q 236 144 236 136 L 236 -450 L 100 -450 L 100 -520 L 313 -520 L 313 136 Q 313 154 307 172 Q 301 190 287.5 202 Q 274 214 256 218.5 Q 238 223 219 223 Z M 271 -608 Q 258 -608 246 -611.5 Q 234 -615 225 -624 Q 216 -633 212.5 -645 Q 209 -657 209 -670 Q 209 -683 212.5 -695 Q 216 -707 225 -716 Q 234 -725 246 -729 Q 258 -733 271 -733 Q 284 -733 296 -729 Q 308 -725 317 -716 Q 326 -707 330 -695 Q 334 -683 334 -670 Q 334 -657 330 -645 Q 326 -633 317 -624 Q 308 -615 296 -611.5 Q 284 -608 271 -608 Z " id="path1"/>
</defs>
<g>
<g data-source-text="j" fill="#dee4e3" transform="translate(40 104.99201) rotate(0) scale(0.09599999)">
<use href="#path1" transform="translate(0 0)"/>
</g>
</g>
</svg>