<?xml version="1.0" encoding="UTF-8" standalone="no"?>
<svg height="160" viewBox="0 0 128 160" width="128" xmlns="http://www.w3.org/2000/svg">
<defs>
<path d="M 228 223 Q 214 223 200.5 219.5 Q 187 216 177 208 L 12 73 L 57 24 L 221 159 Q 222 160 224 160 Q 226 160 228 160 Q 233 160 234.5 154.5 Q 236 149 236 144 L 236 -450 L 100 -450 L 100 -520 L 313 -520 L 313 144 Q 313 161 307.5 177 Q 302 193 289.5 203.5 Q 277 214 260.5 218.5 Q 244 223 228 223 Z M 271 -608 Q 258 -608 246 -611.5 Q 234 -615 225 -624 Q 216 -633 212.5 -645 Q 209 -657 209 -670 Q 209 -683 212.5 -695 Q 216 -707 225 -716 Q 234 -725 246 -729 Q 258 -733 271 -733 Q 284 -733 296 -729 Q 308 -725 317 -716 Q 326 -707 330 -695 Q 334 -683 334 -670 Q 334 -657 330 -645 Q 326 -633 317 -624 Q 308 -615 296 -611.5 Q 284 -608 271 -608 Z " id="path1"/>
</defs>
<g>
<g data-source-text="j" fill="#20242e" transform="translate(40 104.99201) rotate(0) scale(0.09599999)">
<use href="#path1" transform="translate(0 0)"/>
</g>
</g>
</svg>