<?xml version="1.0" encoding="UTF-8" standalone="no"?>
<svg height="160" viewBox="0 0 128 160" width="128" xmlns="http://www.w3.org/2000/svg">
<defs>
<path d="M 228 223 Q 214 223 200.5 219.5 Q 187 216 177 208 L 12 73 L 57 24 L 221 159 Q 222 160 224 160 Q 226 160 228 160 Q 233 160 234.5 154.5 Q 236 149 236 144 L 236 -520 L 313 -520 L 313 144 Q 313 161 307.5 177 Q 302 193 289.5 203.5 Q 277 214 260.5 218.5 Q 244 223 228 223 Z M 275 -608 Q 262 -608 250 -611.5 Q 238 -615 229 -624 Q 220 -633 216.5 -645 Q 213 -657 213 -670 Q 213 -683 216.5 -695 Q 220 -707 229 -716 Q 238 -725 250 -729 Q 262 -733 275 -733 Q 288 -733 300 -729 Q 312 -725 321 -716 Q 330 -707 334 -695 Q 338 -683 338 -670 Q 338 -657 334 -645 Q 330 -633 321 -624 Q 312 -615 300 -611.5 Q 288 -608 275 -608 Z " id="path1"/>
</defs>
<g>
<g data-source-text="j" fill="#dee4e3" transform="translate(40 104.99201) rotate(0) scale(0.09599999)">
<use href="#path1" transform="translate(0 0)"/>
</g>
</g>
</svg>