<svg xmlns="http://www.w3.org/2000/svg" height="160" viewBox="0 0 128 160" width="128"><defs><path d="M 67 215 L 67 145 L 150.00002 145 C 160.66667 145 171.33334 143.16667 182 139.5 C 192.66666 135.83333 201.5 129.83333 208.50002 121.50001 C 215.5 113.166664 220.33334 103.666664 223.00002 93.00001 C 225.66667 82.333336 227 71.333336 227 60.000004 L 227 -520.00006 L 305.00003 -520.00006 L 305.00003 60.000004 C 305 74 303.83334 87.83333 301.5 101.50001 C 299.16666 115.166664 294.83334 128.33333 288.50003 141 C 282.16666 153.66667 274 165 264 175 C 254 184.99998 242.83334 193 230.50002 199 C 218.16667 205.00002 205.16666 209.16667 191.50002 211.50002 C 177.83333 213.83334 164 215 150.00002 215 Z M 266 -608 C 257.3333 -608 249 -609.1667 241 -611.50006 C 232.99998 -613.8333 226 -618 220.00002 -624 C 214.00002 -630 209.83334 -637 207.5 -645.00006 C 205.16666 -653.00006 204 -661.3333 204 -670 C 204 -678.6667 205.16666 -687 207.5 -695.00006 C 209.83334 -703 214.00002 -710 220.00002 -716 C 226 -722 232.99998 -726.3333 241 -729.00006 C 249 -731.6667 257.3333 -733 266 -733.00006 C 274.6667 -733 283 -731.6667 291.00003 -729.00006 C 299 -726.3333 306 -722 312 -716 C 318 -710 322.33334 -703 325.00003 -695.00006 C 327.66666 -687 329 -678.6667 329 -670 C 329 -661.3333 327.66666 -653.00006 325.00003 -645.00006 C 322.33334 -637 318 -630 312 -624 C 306 -618 299 -613.8333 291.00003 -611.50006 C 283 -609.1667 274.6667 -608 266 -608 Z " id="path1"/></defs><g><g fill="#000000" transform="translate(40 105.20961) rotate(0)"><use href="#path1" transform="translate(0 0) scale(0.09599999)"/></g></g></svg>