<?xml version="1.0" encoding="UTF-8" standalone="no"?>
<svg height="160" viewBox="0 0 128 160" width="128" xmlns="http://www.w3.org/2000/svg">
<defs>
<path d="M 258 223 Q 242 223 226 219 Q 210 215 198 205 L 42 77 L 89 25 L 245 153 Q 248 155 251.5 155.5 Q 255 156 258 156 Q 266 156 270 148 Q 274 140 274 132 L 274 -450 L 138 -450 L 138 -520 L 352 -520 L 352 132 Q 352 150 346 168.5 Q 340 187 326.5 199.5 Q 313 212 295 217.5 Q 277 223 258 223 Z M 300 -608 Q 287 -608 275 -611.5 Q 263 -615 254 -624 Q 245 -633 241.5 -645 Q 238 -657 238 -670 Q 238 -683 241.5 -695 Q 245 -707 254 -716 Q 263 -725 275 -729 Q 287 -733 300 -733 Q 313 -733 325 -729 Q 337 -725 346 -716 Q 355 -707 359 -695 Q 363 -683 363 -670 Q 363 -657 359 -645 Q 355 -633 346 -624 Q 337 -615 325 -611.5 Q 313 -608 300 -608 Z " id="path1"/>
</defs>
<g>
<g data-source-text="j" fill="#20242e" transform="translate(40 104.99201) rotate(0) scale(0.09599999)">
<use href="#path1" transform="translate(0 0)"/>
</g>
</g>
</svg>