<svg xmlns="http://www.w3.org/2000/svg" height="160" viewBox="0 0 128 160" width="128"><defs><path d="M 185.00002 223.00002 C 170.33333 223.00002 155.66666 221.5 141 218.5 C 126.33333 215.5 112.49999 210.50002 99.5 203.5 C 86.5 196.49998 75 187.5 65.00001 176.50002 C 55.000004 165.50002 46.666668 153.33334 40.000004 140.00002 C 33.333336 126.66667 28.500002 112.833336 25.5 98.50001 C 22.5 84.16667 20.666666 69.66667 20.000002 55.000004 L 98 55.000004 C 98 67 99.833336 79 103.5 91 C 107.166664 103 112.66667 113.83333 120.00001 123.5 C 127.333336 133.16667 136.83333 140.5 148.50002 145.50002 C 160.16667 150.5 172.33333 152.99998 185.00002 153 C 195.00002 152.99998 204.83336 151.16666 214.50002 147.5 C 224.16666 143.83333 232.5 138.5 239.50002 131.50002 C 246.5 124.5 252.33333 116.5 257.00003 107.5 C 261.66666 98.5 265.16666 89.166664 267.5 79.5 C 269.83334 69.833336 271.5 60.000004 272.5 50.000004 C 273.5 40.000004 274.00003 30.000002 274.00003 20.000002 L 274.00003 -450.00003 L 138 -450.00003 L 138 -520.00006 L 352 -520.00006 L 352 20.000002 C 352 36.666668 351 53.166668 349.00003 69.5 C 347 85.833336 343.00003 101.833336 337.00003 117.5 C 331 133.16667 323.16666 147.83333 313.50003 161.5 C 303.83334 175.16667 292.33334 186.83334 279 196.50002 C 265.66666 206.16667 250.83331 213 234.50002 217.00002 C 218.16667 221 201.66666 223.00002 185.00002 223.00002 Z M 300.00003 -608 C 291.3333 -608 283 -609.1667 275 -611.50006 C 267 -613.8333 260 -618 254.00002 -624 C 248 -630 243.83333 -637 241.5 -645.00006 C 239.16667 -653.00006 238 -661.3333 238 -670 C 238 -678.6667 239.16667 -687 241.5 -695.00006 C 243.83333 -703 248 -710 254.00002 -716 C 260 -722 267 -726.3333 275 -729.00006 C 283 -731.6667 291.3333 -733 300.00003 -733.00006 C 308.6667 -733 317 -731.6667 325.00003 -729.00006 C 333 -726.3333 340 -722 346 -716 C 352 -710 356.33334 -703 359.00003 -695.00006 C 361.6667 -687 363 -678.6667 363 -670 C 363 -661.3333 361.6667 -653.00006 359.00003 -645.00006 C 356.33334 -637 352 -630 346 -624 C 340 -618 333 -613.8333 325.00003 -611.50006 C 317 -609.1667 308.6667 -608 300.00003 -608 Z " id="path1"/></defs><g><g fill="#000000" transform="translate(40 105.20961) rotate(0)"><use href="#path1" transform="translate(0 0) scale(0.09599999)"/></g></g></svg>