<?xml version="1.0" encoding="UTF-8" standalone="no"?>
<svg height="160" viewBox="0 0 128 160" width="128" xmlns="http://www.w3.org/2000/svg">
<defs>
<path d="M 219 223 Q 204 223 189 219.5 Q 174 216 163 206 L -2 71 L 43 23 L 207 158 Q 209 160 212.5 160 Q 216 160 219 160 Q 228 160 232 152 Q 236 144 236 136 L 236 -520 L 313 -520 L 313 136 Q 313 154 307 172 Q 301 190 287.5 202 Q 274 214 256 218.5 Q 238 223 219 223 Z M 275 -608 Q 262 -608 250 -611.5 Q 238 -615 229 -624 Q 220 -633 216.5 -645 Q 213 -657 213 -670 Q 213 -683 216.5 -695 Q 220 -707 229 -716 Q 238 -725 250 -729 Q 262 -733 275 -733 Q 288 -733 300 -729 Q 312 -725 321 -716 Q 330 -707 334 -695 Q 338 -683 338 -670 Q 338 -657 334 -645 Q 330 -633 321 -624 Q 312 -615 300 -611.5 Q 288 -608 275 -608 Z " id="path1"/>
</defs>
<g>
<g data-source-text="j" fill="#dee4e3" transform="translate(40 104.99201) rotate(0) scale(0.09599999)">
<use href="#path1" transform="translate(0 0)"/>
</g>
</g>
</svg>