<?xml version="1.0" encoding="UTF-8" standalone="no"?>
<svg height="160" viewBox="0 0 128 160" width="128" xmlns="http://www.w3.org/2000/svg">
<defs>
<path d="M 80 215 L 80 145 L 197 145 Q 213 145 229 139.5 Q 245 134 255.5 121.5 Q 266 109 270 93 Q 274 77 274 60 L 274 -450 L 138 -450 L 138 -520 L 352 -520 L 352 60 Q 352 81 348.5 101.5 Q 345 122 335.5 141 Q 326 160 311.5 175 Q 297 190 278 199 Q 259 208 238.5 211.5 Q 218 215 197 215 Z M 305 -608 Q 292 -608 280 -611.5 Q 268 -615 259 -624 Q 250 -633 246.5 -645 Q 243 -657 243 -670 Q 243 -683 246.5 -695 Q 250 -707 259 -716 Q 268 -725 280 -729 Q 292 -733 305 -733 Q 318 -733 330 -729 Q 342 -725 351 -716 Q 360 -707 364 -695 Q 368 -683 368 -670 Q 368 -657 364 -645 Q 360 -633 351 -624 Q 342 -615 330 -611.5 Q 318 -608 305 -608 Z " id="path1"/>
</defs>
<g>
<g data-source-text="j" fill="#20242e" transform="translate(40 104.99201) rotate(0) scale(0.09599999)">
<use href="#path1" transform="translate(0 0)"/>
</g>
</g>
</svg>