<?xml version="1.0" encoding="UTF-8" standalone="no"?>
<svg height="160" viewBox="0 0 128 160" width="128" xmlns="http://www.w3.org/2000/svg">
<defs>
<path d="M 258 223 Q 242 223 226 219 Q 210 215 198 205 L 34 70 L 81 18 L 245 153 Q 248 155 251.5 155.5 Q 255 156 258 156 Q 266 156 270 148 Q 274 140 274 132 L 274 -450 L 138 -450 L 138 -520 L 352 -520 L 352 132 Q 352 150 346 168.5 Q 340 187 326.5 199.5 Q 313 212 295 217.5 Q 277 223 258 223 Z M 305 -608 Q 292 -608 280 -611.5 Q 268 -615 259 -624 Q 250 -633 246.5 -645 Q 243 -657 243 -670 Q 243 -683 246.5 -695 Q 250 -707 259 -716 Q 268 -725 280 -729 Q 292 -733 305 -733 Q 318 -733 330 -729 Q 342 -725 351 -716 Q 360 -707 364 -695 Q 368 -683 368 -670 Q 368 -657 364 -645 Q 360 -633 351 -624 Q 342 -615 330 -611.5 Q 318 -608 305 -608 Z " id="path1"/>
</defs>
<g>
<g data-source-text="j" fill="#20242e" transform="translate(40 104.99201) rotate(0) scale(0.09599999)">
<use href="#path1" transform="translate(0 0)"/>
</g>
</g>
</svg>