<?xml version="1.0" encoding="UTF-8" standalone="no"?>
<svg height="160" viewBox="0 0 128 160" width="128" xmlns="http://www.w3.org/2000/svg">
<defs>
<path d="M 80 215 L 80 145 L 183 145 Q 202 145 220.5 138.5 Q 239 132 251.5 117.5 Q 264 103 269 84 Q 274 65 274 46 L 274 -450 L 138 -450 L 138 -520 L 352 -520 L 352 46 Q 352 69 348 91.5 Q 344 114 334 134.5 Q 324 155 308 171 Q 292 187 271.5 197 Q 251 207 228.5 211 Q 206 215 183 215 Z M 305 -608 Q 292 -608 280 -611.5 Q 268 -615 259 -624 Q 250 -633 246.5 -645 Q 243 -657 243 -670 Q 243 -683 246.5 -695 Q 250 -707 259 -716 Q 268 -725 280 -729 Q 292 -733 305 -733 Q 318 -733 330 -729 Q 342 -725 351 -716 Q 360 -707 364 -695 Q 368 -683 368 -670 Q 368 -657 364 -645 Q 360 -633 351 -624 Q 342 -615 330 -611.5 Q 318 -608 305 -608 Z " id="path1"/>
</defs>
<g>
<g data-source-text="j" fill="#dee4e3" transform="translate(40 104.99201) rotate(0) scale(0.09599999)">
<use href="#path1" transform="translate(0 0)"/>
</g>
</g>
</svg>