<svg xmlns="http://www.w3.org/2000/svg" height="160" viewBox="0 0 128 160" width="128"><defs><path d="M 211.00002 222.00002 C 205.66667 222.00002 200.33333 221.66666 195 221 C 189.66667 220.33334 184.5 219.33334 179.50002 218 C 174.50002 216.66667 169.66667 214.5 165 211.50002 C 160.33334 208.5 156 205.33334 152 202.00002 L 11 83 L 59.000004 32 L 200.00002 150.00002 C 201.33333 151.33334 203 152.33333 205.00002 153 C 207 153.66667 209 154.00002 211.00002 154.00002 C 216.33334 154.00002 220.33334 151.16667 223.00002 145.50002 C 225.66667 139.83333 227 134.33334 227 129 L 227 -520.00006 L 305.00003 -520.00006 L 305.00003 129 C 305 141.66667 303 154 299 166 C 295 178 288.5 188.50002 279.50003 197.50002 C 270.5 206.50002 259.8333 212.83333 247.50002 216.50002 C 235.16666 220.16667 223 222.00002 211.00002 222.00002 Z M 266 -608 C 257.3333 -608 249 -609.1667 241 -611.50006 C 232.99998 -613.8333 226 -618 220.00002 -624 C 214.00002 -630 209.83334 -637 207.5 -645.00006 C 205.16666 -653.00006 204 -661.3333 204 -670 C 204 -678.6667 205.16666 -687 207.5 -695.00006 C 209.83334 -703 214.00002 -710 220.00002 -716 C 226 -722 232.99998 -726.3333 241 -729.00006 C 249 -731.6667 257.3333 -733 266 -733.00006 C 274.6667 -733 283 -731.6667 291.00003 -729.00006 C 299 -726.3333 306 -722 312 -716 C 318 -710 322.33334 -703 325.00003 -695.00006 C 327.66666 -687 329 -678.6667 329 -670 C 329 -661.3333 327.66666 -653.00006 325.00003 -645.00006 C 322.33334 -637 318 -630 312 -624 C 306 -618 299 -613.8333 291.00003 -611.50006 C 283 -609.1667 274.6667 -608 266 -608 Z " id="path1"/></defs><g><g fill="#ffffff" transform="translate(40 105.20961) rotate(0)"><use href="#path1" transform="translate(0 0) scale(0.09599999)"/></g></g></svg>