<?xml version="1.0" encoding="UTF-8" standalone="no"?>
<svg height="160" viewBox="0 0 128 160" width="128" xmlns="http://www.w3.org/2000/svg">
<defs>
<path d="M 80 0 L 80 -735 L 157 -735 L 157 -384 Q 165 -412 177.5 -438 Q 190 -464 209 -485 Q 228 -506 255 -517 Q 282 -528 311 -528 Q 327 -528 343 -523.5 Q 359 -519 372 -508.5 Q 385 -498 393.5 -483.5 Q 402 -469 407 -453.5 Q 412 -438 413.5 -421.5 Q 415 -405 415 -389 Q 415 -358 406.5 -328 Q 398 -298 378.5 -274 Q 359 -250 331.5 -234.5 Q 304 -219 275 -210 L 398 -70 L 482 -70 L 482 0 L 360 0 L 184 -201 Q 177 -202 170.5 -204 Q 164 -206 157 -209 L 157 0 Z M 202 -264 Q 219 -264 235.5 -268.5 Q 252 -273 267.5 -279 Q 283 -285 296.5 -295.5 Q 310 -306 319.5 -320 Q 329 -334 333.5 -350.5 Q 338 -367 338 -384 Q 338 -397 335 -410.5 Q 332 -424 325 -435 Q 318 -446 305.5 -452 Q 293 -458 280 -458 Q 259 -458 240 -450 Q 221 -442 207.5 -427 Q 194 -412 185 -393.5 Q 176 -375 170 -355.5 Q 164 -336 161.5 -316 Q 159 -296 158 -275 Q 168 -270 179 -267 Q 190 -264 202 -264 Z " id="path1"/>
</defs>
<g>
<g data-source-text="k" fill="#20242e" transform="translate(40 104.99201) rotate(0) scale(0.09599999)">
<use href="#path1" transform="translate(0 0)"/>
</g>
</g>
</svg>