<?xml version="1.0" encoding="UTF-8" standalone="no"?>
<svg xmlns="http://www.w3.org/2000/svg" height="160" viewBox="0 0 128 160" width="128"><defs><path d="M 80 0 L 80 -735 L 157 -735 L 157 -439 Q 171 -458 188 -474 Q 205 -490 225 -502 Q 245 -514 267.5 -521 Q 290 -528 313 -528 Q 340 -528 365.5 -517 Q 391 -506 409.5 -486.5 Q 428 -467 438 -441.5 Q 448 -416 448 -389 Q 448 -356 436 -324 Q 424 -292 399.5 -269 Q 375 -246 344.5 -232 Q 314 -218 281 -210 L 443 0 L 348 0 L 195 -200 Q 185 -200 176 -200.5 Q 167 -201 157 -202 L 157 0 Z M 192 -267 Q 212 -267 231.5 -270 Q 251 -273 270 -278 Q 289 -283 307 -291.5 Q 325 -300 339.5 -313.5 Q 354 -327 362 -345.5 Q 370 -364 370 -384 Q 370 -398 365.5 -411.5 Q 361 -425 352 -435.5 Q 343 -446 330 -452 Q 317 -458 303 -458 Q 281 -458 261 -448.5 Q 241 -439 225 -424.5 Q 209 -410 197.5 -391.5 Q 186 -373 177.5 -353.5 Q 169 -334 164.5 -312.5 Q 160 -291 158 -270 Q 167 -269 175.5 -268 Q 184 -267 192 -267 Z " id="path1"/></defs><g><g data-source-text="k" fill="#20242e" transform="translate(40 104.99201) rotate(0) scale(0.09599999)"><use href="#path1" transform="translate(0 0)"/></g></g></svg>