<svg xmlns="http://www.w3.org/2000/svg" height="160" viewBox="0 0 128 160" width="128"><defs><path d="M 64 0 L 64 -735 L 142 -735 L 142 -287 C 148.66667 -292.33334 155.33333 -297.83334 162 -303.5 C 168.66669 -309.16666 175.33334 -314.83334 182 -320.5 C 188.66667 -326.16666 195.33333 -331.83334 202.00002 -337.50003 C 208.66667 -343.1667 215.16666 -349 221.5 -355.00003 C 227.83334 -361 234.16667 -367 240.5 -373 C 246.83333 -379 252.99998 -385.16666 259 -391.5 C 265 -397.83337 271 -404.16666 277.00003 -410.50003 C 283 -416.83334 288.83334 -423.33334 294.5 -430 C 300.16666 -436.66666 305.66666 -443.50003 311.00003 -450.50003 C 316.33334 -457.5 321.5 -464.66666 326.5 -472.00003 C 331.49997 -479.33334 335.99997 -487 340 -495.00003 C 344 -503 346 -511.3333 346 -520.00006 L 436 -520.00006 C 435.99997 -508 433.1667 -496.6667 427.50003 -486.00003 C 421.83334 -475.33334 415.8333 -465.16666 409.50003 -455.50003 C 403.16672 -445.8333 396.33334 -436.3333 389.00003 -427.00003 C 381.6667 -417.66666 374 -408.66666 366.00003 -400.00003 C 358 -391.33334 350 -382.6667 342.00003 -374 C 334 -365.33334 325.83334 -356.83334 317.5 -348.50003 C 309.16666 -340.16666 300.83334 -332 292.5 -324 C 284.1667 -316 275.6667 -308 267 -300.00003 C 276.33334 -288.6667 285.5 -277.1667 294.5 -265.50003 C 303.5 -253.83334 312.5 -242.16669 321.5 -230.50002 C 330.5 -218.83333 339.33334 -206.99998 348.00003 -195 C 356.6667 -183.00002 365.00003 -171.00002 373 -159 C 380.99997 -147 388.83328 -134.66667 396.5 -122 C 404.16663 -109.333336 411.33334 -96.5 418.00003 -83.5 C 424.66666 -70.5 430.66666 -57.000004 436 -43.000004 C 441.3333 -29 444.00003 -14.666666 444.00003 0 L 366.00003 0 C 366.00003 -12.666667 363.66672 -24.833332 359.00003 -36.5 C 354.33334 -48.166664 349.16666 -59.5 343.50003 -70.5 C 337.83334 -81.5 331.83334 -92.333336 325.50003 -103.00001 C 319.16666 -113.666664 312.33334 -124.166664 305.00003 -134.5 C 297.6667 -144.83333 290.33337 -155 283.00003 -165 C 275.6667 -175 268.16666 -184.99998 260.5 -195 C 252.83333 -204.99998 245.16667 -214.83333 237.50002 -224.5 C 229.83333 -234.16667 222.00002 -243.66667 214.00002 -253.00002 C 202.00002 -243 190 -233.16666 178 -223.5 C 166 -213.83334 154.00002 -204.33333 142 -195 L 142 0 Z " id="path1"/></defs><g><g fill="#000000" transform="translate(40 105.20961) rotate(0)"><use href="#path1" transform="translate(0 0) scale(0.09599999)"/></g></g></svg>