<?xml version="1.0" encoding="UTF-8" standalone="no"?>
<svg xmlns="http://www.w3.org/2000/svg" height="160" viewBox="0 0 128 160" width="128"><defs><path d="M 49 0 L 49 -70 L 95 -70 L 95 -665 L 49 -665 L 49 -735 L 173 -735 L 173 -443 Q 186 -461 201.5 -476.5 Q 217 -492 235.5 -503.5 Q 254 -515 275 -521.5 Q 296 -528 318 -528 Q 344 -528 368.5 -516.5 Q 393 -505 410 -485.5 Q 427 -466 436.5 -440.5 Q 446 -415 446 -389 Q 446 -358 436 -327.5 Q 426 -297 405 -273.5 Q 384 -250 356 -235.5 Q 328 -221 298 -212 L 410 -70 L 487 -70 L 487 0 L 370 0 L 212 -200 Q 212 -200 211.5 -200 Q 211 -200 211 -200 Q 201 -200 191.5 -200.5 Q 182 -201 173 -202 L 173 -70 L 219 -70 L 219 0 Z M 205 -267 Q 223 -267 242 -270 Q 261 -273 278.5 -278.5 Q 296 -284 313 -293 Q 330 -302 342.5 -315.5 Q 355 -329 361.5 -347 Q 368 -365 368 -384 Q 368 -397 364 -410 Q 360 -423 352.5 -434 Q 345 -445 333 -451.5 Q 321 -458 307 -458 Q 286 -458 267 -448 Q 248 -438 233.5 -422.5 Q 219 -407 208.5 -389 Q 198 -371 191 -351.5 Q 184 -332 179.5 -311.5 Q 175 -291 174 -270 Q 181 -269 189 -268 Q 197 -267 205 -267 Z " id="path1"/></defs><g><g data-source-text="k" fill="#dee4e3" transform="translate(40 104.99201) rotate(0) scale(0.09599999)"><use href="#path1" transform="translate(0 0)"/></g></g></svg>