<svg xmlns="http://www.w3.org/2000/svg" height="160" viewBox="0 0 128 160" width="128"><defs><path d="M 95 0 L 95 -665 L 49 -665 L 49 -735 L 173 -735 L 173 -288 Q 188 -301 202.5 -313 Q 217 -325 231 -337.5 Q 245 -350 259 -363 Q 273 -376 286 -390 Q 299 -404 311 -418.5 Q 323 -433 333.5 -449 Q 344 -465 351 -483 Q 358 -501 358 -520 L 436 -520 Q 436 -498 428 -476.5 Q 420 -455 408.5 -435.5 Q 397 -416 383 -398.5 Q 369 -381 354.5 -364.5 Q 340 -348 324 -332 Q 308 -316 292 -301 Q 309 -278 325.5 -254.5 Q 342 -231 357.5 -207.5 Q 373 -184 387 -159 Q 401 -134 413.5 -108.5 Q 426 -83 435 -55.5 Q 444 -28 444 0 L 366 0 Q 366 -24 358.5 -47 Q 351 -70 341 -91.5 Q 331 -113 319 -133.5 Q 307 -154 293.5 -174 Q 280 -194 266.5 -213.5 Q 253 -233 238 -252 Q 222 -238 205.5 -223.5 Q 189 -209 173 -195 L 173 0 Z " id="path1"/></defs><g><g fill="#dee4e3" transform="translate(40 105.20961) rotate(0)"><use href="#path1" transform="translate(0 0) scale(0.09599999)"/></g></g></svg>