<?xml version="1.0" encoding="UTF-8" standalone="no"?>
<svg height="160" viewBox="0 0 128 160" width="128" xmlns="http://www.w3.org/2000/svg">
<defs>
<path d="M 346 0 L 175 -203 Q 171 -204 166.5 -205.5 Q 162 -207 157 -209 L 157 0 L 80 0 L 80 -665 L 33 -665 L 33 -735 L 157 -735 L 157 -385 Q 166 -413 180 -439.5 Q 194 -466 215.5 -486.5 Q 237 -507 265.5 -517.5 Q 294 -528 323 -528 Q 340 -528 357 -524 Q 374 -520 387.5 -510 Q 401 -500 411 -486 Q 421 -472 426.5 -456 Q 432 -440 434 -423 Q 436 -406 436 -389 Q 436 -355 424.5 -322.5 Q 413 -290 389.5 -266 Q 366 -242 334.5 -228.5 Q 303 -215 270 -206 L 443 0 Z M 206 -266 Q 224 -266 241.5 -270 Q 259 -274 276 -280 Q 293 -286 308.5 -295 Q 324 -304 336 -317.5 Q 348 -331 353.5 -348.5 Q 359 -366 359 -384 Q 359 -398 355.5 -412 Q 352 -426 343 -437 Q 334 -448 320.5 -453 Q 307 -458 293 -458 Q 272 -458 251.5 -451 Q 231 -444 215.5 -430 Q 200 -416 189.5 -397.5 Q 179 -379 172.5 -359 Q 166 -339 162.5 -318.5 Q 159 -298 158 -277 Q 169 -271 181 -268.5 Q 193 -266 206 -266 Z " id="path1"/>
</defs>
<g>
<g data-source-text="k" fill="#dee4e3" transform="translate(40 104.99201) rotate(0) scale(0.09599999)">
<use href="#path1" transform="translate(0 0)"/>
</g>
</g>
</svg>