<?xml version="1.0" encoding="UTF-8" standalone="no"?>
<svg xmlns="http://www.w3.org/2000/svg" height="160" viewBox="0 0 128 160" width="128"><defs><path d="M 373 7 Q 358 7 343 3 Q 328 -1 316 -10 Q 304 -19 296.5 -32.5 Q 289 -46 285 -60 L 238 -201 Q 231 -200 223.5 -200 Q 216 -200 209 -200 Q 200 -200 191 -200.5 Q 182 -201 173 -202 L 173 0 L 95 0 L 95 -665 L 49 -665 L 49 -735 L 173 -735 L 173 -443 Q 186 -461 201.5 -476.5 Q 217 -492 236 -503.5 Q 255 -515 276 -521.5 Q 297 -528 319 -528 Q 345 -528 369.5 -516.5 Q 394 -505 411.5 -485.5 Q 429 -466 438.5 -440.5 Q 448 -415 448 -389 Q 448 -359 439 -330 Q 430 -301 410.5 -278.5 Q 391 -256 365 -240.5 Q 339 -225 310 -216 L 355 -82 Q 358 -75 362 -68 Q 366 -61 373 -61 Q 378 -61 382.5 -64 Q 387 -67 389 -72 L 445 -208 L 514 -182 L 458 -46 Q 453 -34 444 -24 Q 435 -14 423.5 -7 Q 412 0 399 3.5 Q 386 7 373 7 Z M 203 -267 Q 222 -267 241 -270 Q 260 -273 278 -278.5 Q 296 -284 313 -292.5 Q 330 -301 343.5 -314.5 Q 357 -328 363.5 -346.5 Q 370 -365 370 -384 Q 370 -397 366 -410 Q 362 -423 354 -434 Q 346 -445 334 -451.5 Q 322 -458 309 -458 Q 288 -458 268.5 -448 Q 249 -438 234.5 -423 Q 220 -408 209 -389.5 Q 198 -371 191 -351.5 Q 184 -332 179.5 -311 Q 175 -290 174 -269 Q 181 -268 188.5 -267.5 Q 196 -267 203 -267 Z " id="path1"/></defs><g><g data-source-text="k" fill="#20242e" transform="translate(40 104.99201) rotate(0) scale(0.09599999)"><use href="#path1" transform="translate(0 0)"/></g></g></svg>