<?xml version="1.0" encoding="UTF-8" standalone="no"?>
<svg xmlns="http://www.w3.org/2000/svg" height="160" viewBox="0 0 128 160" width="128"><defs><path d="M 80 0 L 80 -735 L 157 -735 L 157 -440 Q 171 -458 187.5 -474.5 Q 204 -491 224 -502.5 Q 244 -514 266 -521 Q 288 -528 311 -528 Q 338 -528 363.5 -517 Q 389 -506 407.5 -486.5 Q 426 -467 436 -441.5 Q 446 -416 446 -389 Q 446 -357 435 -326 Q 424 -295 401.5 -271.5 Q 379 -248 349.5 -234 Q 320 -220 289 -212 L 466 0 L 368 0 L 201 -200 Q 201 -200 200.5 -200 Q 200 -200 200 -200 Q 189 -200 178.5 -200.5 Q 168 -201 157 -203 L 157 0 Z M 194 -267 Q 213 -267 232.5 -270 Q 252 -273 270.5 -278 Q 289 -283 307 -291.5 Q 325 -300 339 -313.5 Q 353 -327 360.5 -345.5 Q 368 -364 368 -384 Q 368 -398 363.5 -411 Q 359 -424 350 -435 Q 341 -446 328 -452 Q 315 -458 301 -458 Q 280 -458 260 -448.5 Q 240 -439 224.5 -424.5 Q 209 -410 197 -391.5 Q 185 -373 177 -353 Q 169 -333 164.5 -312 Q 160 -291 158 -270 Q 167 -269 176 -268 Q 185 -267 194 -267 Z " id="path1"/></defs><g><g data-source-text="k" fill="#20242e" transform="translate(40 104.99201) rotate(0) scale(0.09599999)"><use href="#path1" transform="translate(0 0)"/></g></g></svg>