<?xml version="1.0" encoding="UTF-8" standalone="no"?>
<svg xmlns="http://www.w3.org/2000/svg" height="160" viewBox="0 0 128 160" width="128"><defs><path d="M 373 7 Q 358 7 343 3 Q 328 -1 316 -10 Q 304 -19 296.5 -32.5 Q 289 -46 285 -60 L 237 -202 Q 227 -201 217 -200.5 Q 207 -200 196 -200 Q 190 -200 184.5 -200 Q 179 -200 173 -201 L 173 0 L 95 0 L 95 -665 L 49 -665 L 49 -735 L 173 -735 L 173 -461 Q 186 -476 200.5 -488 Q 215 -500 232 -509 Q 249 -518 268 -523 Q 287 -528 306 -528 Q 332 -528 357 -517 Q 382 -506 400 -486 Q 418 -466 427 -441 Q 436 -416 436 -389 Q 436 -361 428 -333 Q 420 -305 402.5 -282.5 Q 385 -260 360.5 -244.5 Q 336 -229 309 -220 L 355 -82 Q 358 -75 362 -68 Q 366 -61 373 -61 Q 378 -61 382.5 -64 Q 387 -67 389 -72 L 445 -208 L 514 -182 L 458 -46 Q 453 -34 444 -24 Q 435 -14 423.5 -7 Q 412 0 399 3.5 Q 386 7 373 7 Z M 190 -267 Q 209 -267 228 -270 Q 247 -273 265.5 -278.5 Q 284 -284 301 -292.5 Q 318 -301 331.5 -314.5 Q 345 -328 352 -346.5 Q 359 -365 359 -384 Q 359 -397 355 -410.5 Q 351 -424 342.5 -434.5 Q 334 -445 321.5 -451.5 Q 309 -458 296 -458 Q 273 -458 253 -447 Q 233 -436 217.5 -420 Q 202 -404 191 -384.5 Q 180 -365 173 -343 L 173 -268 Q 177 -268 181.5 -267.5 Q 186 -267 190 -267 Z " id="path1"/></defs><g><g data-source-text="k" fill="#dee4e3" transform="translate(40 104.99201) rotate(0) scale(0.09599999)"><use href="#path1" transform="translate(0 0)"/></g></g></svg>