<?xml version="1.0" encoding="UTF-8" standalone="no"?>
<svg xmlns="http://www.w3.org/2000/svg" height="160" viewBox="0 0 128 160" width="128"><defs><path d="M 80 0 L 80 -735 L 157 -735 L 157 -442 Q 170 -460 186 -475.5 Q 202 -491 221 -502.5 Q 240 -514 262 -521 Q 284 -528 306 -528 Q 332 -528 357 -517 Q 382 -506 400 -486 Q 418 -466 427 -441 Q 436 -416 436 -389 Q 436 -357 425.5 -325.5 Q 415 -294 392.5 -271 Q 370 -248 341 -233.5 Q 312 -219 280 -211 L 443 0 L 348 0 L 195 -200 Q 185 -200 176 -200.5 Q 167 -201 157 -202 L 157 0 Z M 190 -267 Q 209 -267 228 -270 Q 247 -273 265.5 -278.5 Q 284 -284 301 -292.5 Q 318 -301 331.5 -314.5 Q 345 -328 352 -346.5 Q 359 -365 359 -384 Q 359 -397 355 -410.5 Q 351 -424 342.5 -434.5 Q 334 -445 321.5 -451.5 Q 309 -458 296 -458 Q 274 -458 255 -448 Q 236 -438 221 -423 Q 206 -408 195 -390 Q 184 -372 176.5 -352 Q 169 -332 164.5 -311.5 Q 160 -291 158 -270 Q 166 -269 174 -268 Q 182 -267 190 -267 Z " id="path1"/></defs><g><g data-source-text="k" fill="#dee4e3" transform="translate(40 104.99201) rotate(0) scale(0.09599999)"><use href="#path1" transform="translate(0 0)"/></g></g></svg>