<?xml version="1.0" encoding="UTF-8" standalone="no"?>
<svg height="160" viewBox="0 0 128 160" width="128" xmlns="http://www.w3.org/2000/svg">
<defs>
<path d="M 64 0 L 64 -665 L 18 -665 L 18 -735 L 142 -735 L 142 -284 Q 158 -296 174.5 -308 Q 191 -320 207.5 -333 Q 224 -346 240 -359 Q 256 -372 271 -385.5 Q 286 -399 300.5 -414 Q 315 -429 327.5 -445.5 Q 340 -462 349 -480.5 Q 358 -499 358 -520 L 436 -520 Q 436 -497 426.5 -475 Q 417 -453 404 -433.5 Q 391 -414 375 -396.5 Q 359 -379 342.5 -362.5 Q 326 -346 308.5 -330 Q 291 -314 273 -299 Q 287 -283 301 -266 Q 315 -249 328 -231.5 Q 341 -214 354 -196 Q 367 -178 379 -160 Q 391 -142 402 -123 Q 413 -104 422 -84 Q 431 -64 437.5 -43 Q 444 -22 444 0 L 366 0 Q 366 -25 357 -48.5 Q 348 -72 336 -94 Q 324 -116 310 -136.5 Q 296 -157 281 -177 Q 266 -197 250 -216.5 Q 234 -236 218 -254 Q 199 -239 180 -224.5 Q 161 -210 142 -195 L 142 0 Z " id="path1"/>
</defs>
<g>
<g data-source-text="k" fill="#20242e" transform="translate(40 104.99201) rotate(0) scale(0.09599999)">
<use href="#path1" transform="translate(0 0)"/>
</g>
</g>
</svg>