<?xml version="1.0" encoding="UTF-8" standalone="no"?>
<svg height="160" viewBox="0 0 128 160" width="128" xmlns="http://www.w3.org/2000/svg">
<defs>
<path d="M 361 8 Q 346 8 332 4 Q 318 -0 306.5 -9.5 Q 295 -19 287.5 -31.5 Q 280 -44 274 -57 L 211 -198 Q 197 -198 183.5 -201 Q 170 -204 157 -209 L 157 0 L 80 0 L 80 -665 L 33 -665 L 33 -735 L 157 -735 L 157 -385 Q 166 -413 180 -439.5 Q 194 -466 215.5 -486.5 Q 237 -507 265.5 -517.5 Q 294 -528 323 -528 Q 340 -528 357 -524 Q 374 -520 387.5 -510 Q 401 -500 411 -486 Q 421 -472 426.5 -456 Q 432 -440 434 -423 Q 436 -406 436 -389 Q 436 -357 426 -326 Q 416 -295 395 -271.5 Q 374 -248 345 -234 Q 316 -220 286 -210 L 342 -85 Q 344 -81 345 -76.5 Q 346 -72 347.5 -68 Q 349 -64 353 -61.5 Q 357 -59 361 -59 Q 366 -59 371 -60 Q 376 -61 377 -66 L 444 -233 L 513 -208 L 447 -41 Q 442 -28 432.5 -18.5 Q 423 -9 411.5 -3 Q 400 3 387 5.5 Q 374 8 361 8 Z M 206 -266 Q 224 -266 241.5 -270 Q 259 -274 276 -280 Q 293 -286 308.5 -295 Q 324 -304 336 -317.5 Q 348 -331 353.5 -348.5 Q 359 -366 359 -384 Q 359 -398 355.5 -412 Q 352 -426 343 -437 Q 334 -448 320.5 -453 Q 307 -458 293 -458 Q 272 -458 251.5 -451 Q 231 -444 215.5 -430 Q 200 -416 189.5 -397.5 Q 179 -379 172.5 -359 Q 166 -339 162.5 -318.5 Q 159 -298 158 -277 Q 169 -271 181 -268.5 Q 193 -266 206 -266 Z " id="path1"/>
</defs>
<g>
<g data-source-text="k" fill="#dee4e3" transform="translate(40 104.99201) rotate(0) scale(0.09599999)">
<use href="#path1" transform="translate(0 0)"/>
</g>
</g>
</svg>