<?xml version="1.0" encoding="UTF-8" standalone="no"?>
<svg height="160" viewBox="0 0 128 160" width="128" xmlns="http://www.w3.org/2000/svg">
<defs>
<path d="M 18 0 L 18 -70 L 64 -70 L 64 -665 L 18 -665 L 18 -735 L 142 -735 L 142 -253 Q 169 -275 195 -297.5 Q 221 -320 246.5 -344 Q 272 -368 295.5 -394 Q 319 -420 336 -450 L 335 -450 L 335 -520 L 482 -520 L 482 -450 L 417 -450 Q 405 -426 389 -404.5 Q 373 -383 355 -363 Q 337 -343 318 -324.5 Q 299 -306 280 -288 Q 301 -263 321.5 -237 Q 342 -211 361 -184 Q 380 -157 397.5 -129 Q 415 -101 428 -70 L 482 -70 L 482 0 L 335 0 L 335 -70 L 348 -70 Q 338 -94 324 -116.5 Q 310 -139 295 -160.5 Q 280 -182 263.5 -203 Q 247 -224 230 -244 Q 208 -225 186 -206 Q 164 -187 142 -169 L 142 -70 L 188 -70 L 188 0 Z " id="path1"/>
</defs>
<g>
<g data-source-text="k" fill="#dee4e3" transform="translate(40 104.99201) rotate(0) scale(0.09599999)">
<use href="#path1" transform="translate(0 0)"/>
</g>
</g>
</svg>