<svg xmlns="http://www.w3.org/2000/svg" height="160" viewBox="0 0 128 160" width="128"><defs><path d="M 387 7 Q 372 7 358 2.5 Q 344 -2 332 -10.5 Q 320 -19 312.5 -32 Q 305 -45 299 -59 L 243 -202 Q 235 -201 227 -200.5 Q 219 -200 211 -200 Q 201 -200 191.5 -200.5 Q 182 -201 173 -202 L 173 0 L 95 0 L 95 -665 L 49 -665 L 49 -735 L 173 -735 L 173 -443 Q 186 -461 201.5 -476.5 Q 217 -492 235.5 -503.5 Q 254 -515 275 -521.5 Q 296 -528 318 -528 Q 344 -528 368.5 -516.5 Q 393 -505 410 -485.5 Q 427 -466 436.5 -440.5 Q 446 -415 446 -389 Q 446 -360 437.5 -331.5 Q 429 -303 411 -280.5 Q 393 -258 368 -242.5 Q 343 -227 316 -218 L 369 -83 Q 372 -76 375.5 -68.5 Q 379 -61 387 -61 Q 392 -61 396.5 -64 Q 401 -67 403 -72 L 459 -208 L 528 -182 L 472 -46 Q 467 -34 458 -24 Q 449 -14 437.5 -7 Q 426 0 413 3.5 Q 400 7 387 7 Z M 205 -267 Q 223 -267 242 -270 Q 261 -273 278.5 -278.5 Q 296 -284 313 -293 Q 330 -302 342.5 -315.5 Q 355 -329 361.5 -347 Q 368 -365 368 -384 Q 368 -397 364 -410 Q 360 -423 352.5 -434 Q 345 -445 333 -451.5 Q 321 -458 307 -458 Q 286 -458 267 -448 Q 248 -438 233.5 -422.5 Q 219 -407 208.5 -389 Q 198 -371 191 -351.5 Q 184 -332 179.5 -311.5 Q 175 -291 174 -270 Q 181 -269 189 -268 Q 197 -267 205 -267 Z " id="path1"/></defs><g><g fill="#20242e" transform="translate(40 105.20961) rotate(0)"><use href="#path1" transform="translate(0 0) scale(0.09599999)"/></g></g></svg>