<svg xmlns="http://www.w3.org/2000/svg" height="160" viewBox="0 0 128 160" width="128"><defs><path d="M 95 0 L 95 -665 L 49 -665 L 49 -735 L 173 -735 L 173 -292 C 180.33334 -298.66666 187.5 -305.33334 194.50002 -312 C 201.5 -318.66666 208.33334 -325.50003 215 -332.5 C 221.66666 -339.5 228.50002 -346.5 235.5 -353.50003 C 242.5 -360.50003 249.16667 -367.5 255.5 -374.5 C 261.83334 -381.49997 268.3333 -388.66666 275 -396 C 281.6667 -403.3333 288.00003 -410.83334 294.00003 -418.5 C 300 -426.16663 305.83334 -434 311.5 -442 C 317.1667 -449.99997 322.5 -458 327.50003 -466 C 332.5 -474 337.1667 -482.5 341.5 -491.50003 C 345.83334 -500.49997 348.00003 -510 348.00003 -520.00006 L 436 -520.00006 C 435.99997 -508.6667 433.66663 -497.83334 429.00003 -487.5 C 424.33334 -477.16666 419.16666 -467.1667 413.5 -457.50003 C 407.83334 -447.8333 401.6667 -438.3333 395.00003 -429.00003 C 388.33334 -419.6667 381.6667 -410.6667 375 -402 C 368.33334 -393.33337 361.33334 -384.6667 354.00003 -376.00003 C 346.66666 -367.33334 339.33334 -358.8333 332 -350.5 C 324.66666 -342.1667 317.16666 -333.83334 309.5 -325.50003 C 301.8333 -317.1667 294 -309 286 -301 C 294.6667 -289.66666 303.00003 -278.16666 311.00003 -266.5 C 319.00003 -254.83333 327 -243 335 -231.00002 C 343 -218.99998 350.83334 -206.99998 358.5 -195 C 366.1667 -183.00002 373.66666 -170.83336 381 -158.50002 C 388.33334 -146.16667 395.5 -133.66667 402.5 -121.00001 C 409.49997 -108.333336 415.8333 -95.49999 421.50003 -82.5 C 427.16663 -69.5 432.3333 -55.999996 437 -42.000004 C 441.66666 -28.000004 444.00003 -14 444.00003 0 L 366.00003 0 C 366.00003 -12 364.16666 -23.666668 360.50003 -35.000004 C 356.83334 -46.333336 352.5 -57.5 347.50003 -68.50001 C 342.49997 -79.5 337.16663 -90.16667 331.5 -100.5 C 325.83334 -110.83333 320 -121.16667 314.00003 -131.50002 C 308 -141.83334 301.8333 -152 295.5 -162 C 289.16666 -172.00002 282.6667 -182 276 -192 C 269.33334 -201.99998 262.5 -211.83333 255.5 -221.5 C 248.5 -231.16667 241.33333 -240.66667 234.00002 -250 C 224 -240.66667 214 -231.5 204 -222.50002 C 194.00002 -213.50002 183.66667 -204.33333 173 -195 L 173 0 Z " id="path1"/></defs><g><g fill="#ffffff" transform="translate(40 105.20961) rotate(0)"><use href="#path1" transform="translate(0 0) scale(0.09599999)"/></g></g></svg>