<svg xmlns="http://www.w3.org/2000/svg" height="160" viewBox="0 0 128 160" width="128"><defs><path d="M 64 0 L 64 -735 L 142 -735 L 142 -264 C 150 -271.3333 158.16667 -278.8333 166.5 -286.5 C 174.83334 -294.16666 183.00002 -301.66666 191.00002 -309 C 199 -316.33334 207 -324 215 -332 C 223 -340 230.83334 -348.00003 238.5 -356 C 246.16667 -364 253.66667 -372.16666 261 -380.5 C 268.3333 -388.83334 275.6667 -397.16666 283.00003 -405.50003 C 290.33337 -413.83334 297.33334 -422.5 304 -431.5 C 310.66666 -440.50003 317 -449.6667 323 -459 C 329 -468.33334 334.5 -478.00003 339.5 -488 C 344.5 -498 346.99997 -508.6667 347 -520.00006 L 436 -520.00006 C 435.99997 -508 433.5 -496.50003 428.50003 -485.50003 C 423.5 -474.50003 417.83334 -464 411.50003 -454 C 405.1667 -444.00003 398.49997 -434.1667 391.5 -424.5 C 384.5 -414.8333 377.33334 -405.33334 370.00003 -396 C 362.6667 -386.66666 355.1667 -377.5 347.50003 -368.5 C 339.83334 -359.50003 332 -350.6667 324 -342.00003 C 316 -333.3333 307.8333 -324.66666 299.50003 -316 C 291.1667 -307.3333 283 -298.66666 275 -290 C 289 -272.66666 302.6667 -255.16666 316 -237.50002 C 329.33334 -219.83334 342.50003 -202.00002 355.50003 -184 C 368.5 -166 380.8333 -147.5 392.5 -128.50002 C 404.16666 -109.500015 414.66666 -90.00001 424 -70.00001 L 482 -70.00001 L 482 0 L 366.00003 0 C 366.00003 -12 364 -23.500002 360.00003 -34.5 C 356.00003 -45.5 351.33334 -56.333336 346 -67 C 340.6667 -77.666664 334.83334 -88 328.50003 -98 C 322.16666 -108 315.83334 -118.00001 309.5 -128 C 303.1667 -138 296.5 -147.83333 289.5 -157.5 C 282.5 -167.16667 275.33334 -176.66669 268 -186.00002 C 260.6667 -195.33334 253.33334 -204.5 246.00002 -213.50002 C 238.66666 -222.5 231.33334 -231.66666 224 -241 C 210.66666 -229 197.16664 -216.83334 183.5 -204.5 C 169.83333 -192.16667 156 -180.33334 142 -169.00002 L 142 0 Z " id="path1"/></defs><g><g fill="#000000" transform="translate(40 105.20961) rotate(0)"><use href="#path1" transform="translate(0 0) scale(0.09599999)"/></g></g></svg>