<?xml version="1.0" encoding="UTF-8" standalone="no"?>
<svg height="160" viewBox="0 0 128 160" width="128" xmlns="http://www.w3.org/2000/svg">
<defs>
<path d="M 80 0 L 80 -665 L 33 -665 L 33 -735 L 157 -735 L 157 -383 Q 165 -411 178 -437.5 Q 191 -464 211 -485 Q 231 -506 258.5 -517 Q 286 -528 315 -528 Q 331 -528 347.5 -523.5 Q 364 -519 377 -508.5 Q 390 -498 399 -484 Q 408 -470 413 -454.5 Q 418 -439 420 -422.5 Q 422 -406 422 -389 Q 422 -357 412.5 -326.5 Q 403 -296 382.5 -272 Q 362 -248 334 -233.5 Q 306 -219 275 -209 L 398 -70 L 482 -70 L 482 0 L 360 0 L 184 -201 Q 177 -202 170.5 -204 Q 164 -206 157 -209 L 157 0 Z M 203 -264 Q 220 -264 237 -268.5 Q 254 -273 270 -279 Q 286 -285 300.5 -295 Q 315 -305 325 -319 Q 335 -333 339.5 -349.5 Q 344 -366 344 -384 Q 344 -397 341.5 -410.5 Q 339 -424 331 -435 Q 323 -446 310 -452 Q 297 -458 284 -458 Q 263 -458 243.5 -450.5 Q 224 -443 210 -428 Q 196 -413 186.5 -394.5 Q 177 -376 171 -356.5 Q 165 -337 162 -316.5 Q 159 -296 158 -275 Q 168 -270 179.5 -267 Q 191 -264 203 -264 Z " id="path1"/>
</defs>
<g>
<g data-source-text="k" fill="#dee4e3" transform="translate(40 104.99201) rotate(0) scale(0.09599999)">
<use href="#path1" transform="translate(0 0)"/>
</g>
</g>
</svg>