<?xml version="1.0" encoding="UTF-8" standalone="no"?>
<svg height="160" viewBox="0 0 128 160" width="128" xmlns="http://www.w3.org/2000/svg">
<defs>
<path d="M 443 0 L 346 0 L 176 -203 Q 172 -204 167 -205.5 Q 162 -207 157 -209 L 157 0 L 80 0 L 80 -665 L 33 -665 L 33 -735 L 157 -735 L 157 -381 Q 165 -410 178.5 -437 Q 192 -464 212.5 -485 Q 233 -506 261.5 -517 Q 290 -528 320 -528 Q 336 -528 352.5 -523.5 Q 369 -519 382.5 -509 Q 396 -499 405.5 -485 Q 415 -471 420.5 -455 Q 426 -439 428 -422.5 Q 430 -406 430 -389 Q 430 -356 419.5 -324 Q 409 -292 386 -268 Q 363 -244 332.5 -229.5 Q 302 -215 270 -207 Z M 206 -264 Q 223 -264 240.5 -268.5 Q 258 -273 274.5 -279 Q 291 -285 306 -294.5 Q 321 -304 331.5 -318 Q 342 -332 347 -349 Q 352 -366 352 -384 Q 352 -397 349 -411 Q 346 -425 337.5 -436 Q 329 -447 315.5 -452.5 Q 302 -458 289 -458 Q 268 -458 248 -450.5 Q 228 -443 213 -429 Q 198 -415 188 -396.5 Q 178 -378 171.5 -358 Q 165 -338 162 -317.5 Q 159 -297 158 -276 Q 169 -270 181 -267 Q 193 -264 206 -264 Z " id="path1"/>
</defs>
<g>
<g data-source-text="k" fill="#20242e" transform="translate(40 104.99201) rotate(0) scale(0.09599999)">
<use href="#path1" transform="translate(0 0)"/>
</g>
</g>
</svg>