<svg xmlns="http://www.w3.org/2000/svg" height="160" viewBox="0 0 128 160" width="128"><defs><path d="M 64 0 L 64 -735 L 142 -735 L 142 -264 Q 154 -275 166.5 -286.5 Q 179 -298 191 -309 Q 203 -320 215 -332 Q 227 -344 238.5 -356 Q 250 -368 261 -380.5 Q 272 -393 283 -405.5 Q 294 -418 304 -431.5 Q 314 -445 323 -459 Q 332 -473 339.5 -488 Q 347 -503 347 -520 L 436 -520 Q 436 -502 428.5 -485.5 Q 421 -469 411.5 -454 Q 402 -439 391.5 -424.5 Q 381 -410 370 -396 Q 359 -382 347.5 -368.5 Q 336 -355 324 -342 Q 312 -329 299.5 -316 Q 287 -303 275 -290 Q 296 -264 316 -237.5 Q 336 -211 355.5 -184 Q 375 -157 392.5 -128.5 Q 410 -100 424 -70 L 482 -70 L 482 0 L 366 0 Q 366 -18 360 -34.5 Q 354 -51 346 -67 Q 338 -83 328.5 -98 Q 319 -113 309.5 -128 Q 300 -143 289.5 -157.5 Q 279 -172 268 -186 Q 257 -200 246 -213.5 Q 235 -227 224 -241 Q 204 -223 183.5 -204.5 Q 163 -186 142 -169 L 142 0 Z " id="path1"/></defs><g><g fill="#20242e" transform="translate(40 105.20961) rotate(0)"><use href="#path1" transform="translate(0 0) scale(0.09599999)"/></g></g></svg>