<?xml version="1.0" encoding="UTF-8" standalone="no"?>
<svg height="160" viewBox="0 0 128 160" width="128" xmlns="http://www.w3.org/2000/svg">
<defs>
<path d="M 80 0 L 80 -665 L 33 -665 L 33 -735 L 157 -735 L 157 -459 Q 170 -475 186 -488.5 Q 202 -502 221 -511 Q 240 -520 260.5 -524 Q 281 -528 301 -528 Q 328 -528 354 -517.5 Q 380 -507 398.5 -487.5 Q 417 -468 426.5 -442 Q 436 -416 436 -389 Q 436 -357 425.5 -325.5 Q 415 -294 392.5 -271 Q 370 -248 341 -233.5 Q 312 -219 280 -211 L 443 0 L 348 0 L 219 -168 L 195 -200 Q 185 -200 176 -200.5 Q 167 -201 157 -202 L 157 0 Z M 191 -267 Q 210 -267 228.5 -270 Q 247 -273 265.5 -278.5 Q 284 -284 301 -292.5 Q 318 -301 331.5 -314.5 Q 345 -328 352 -346.5 Q 359 -365 359 -384 Q 359 -397 354.5 -410.5 Q 350 -424 341.5 -435 Q 333 -446 320 -452 Q 307 -458 294 -458 Q 272 -458 251.5 -450 Q 231 -442 215.5 -427.5 Q 200 -413 189 -394 Q 178 -375 171.5 -354.5 Q 165 -334 162 -312.5 Q 159 -291 158 -270 Q 166 -269 174 -268 Q 182 -267 191 -267 Z " id="path1"/>
</defs>
<g>
<g data-source-text="k" fill="#dee4e3" transform="translate(40 104.99201) rotate(0) scale(0.09599999)">
<use href="#path1" transform="translate(0 0)"/>
</g>
</g>
</svg>