<svg xmlns="http://www.w3.org/2000/svg" height="160" viewBox="0 0 128 160" width="128"><defs><path d="M 387.00003 7 C 377.66666 6.9999995 368.33334 5.4999995 359.00003 2.5000002 C 349.6667 -0.49999985 341.16666 -4.8333335 333.5 -10.500001 C 325.83334 -16.166668 319.33334 -23.166668 314.00003 -31.5 C 308.66666 -39.833332 304 -48.333332 300.00003 -57.000004 L 234.00002 -202.00002 C 228.00002 -201.33333 222.16667 -200.83333 216.50002 -200.50002 C 210.83334 -200.16667 205.33334 -200.00002 200.00002 -200.00002 C 192.66667 -200.00002 185.49998 -200.16667 178.5 -200.50002 C 171.50002 -200.83333 164.33334 -201.66667 157.00002 -203.00002 L 157.00002 0 L 80.00001 0 L 80.00001 -735 L 157.00002 -735 L 157.00002 -440.00003 C 166.33333 -452 176.50002 -463.5 187.5 -474.50003 C 198.5 -485.50003 210.66666 -494.83337 224 -502.50003 C 237.33334 -510.1667 251.33333 -516.3334 266 -521 C 280.6667 -525.6666 295.66666 -528 311.00003 -528 C 329 -528 346.5 -524.3333 363.5 -517 C 380.5 -509.6667 395.1667 -499.5 407.5 -486.5 C 419.8333 -473.5 429.3333 -458.5 436 -441.5 C 442.66666 -424.5 446.00003 -407 446.00003 -389.00003 C 446.00003 -369 442.83334 -349.33334 436.5 -330 C 430.16666 -310.66666 420.5 -293.5 407.5 -278.5 C 394.5 -263.5 379.33334 -251 362 -241 C 344.66666 -231 326.33334 -223.00002 307 -217.00002 L 368 -85 C 369.3333 -82.33333 370.3333 -79.83333 371.00003 -77.5 C 371.6667 -75.166664 372.6667 -72.666664 374 -70.00001 C 375.3333 -67.333336 377.1667 -65.166664 379.5 -63.500004 C 381.8333 -61.833332 384.33334 -61 387.00003 -61 C 390.33334 -61 393.50003 -62 396.5 -64 C 399.5 -66 401.66666 -68.66667 403 -72.00001 L 459 -208.00002 L 528 -182 L 472.00003 -46 C 468.66666 -38 464 -30.666666 458 -24 C 452 -17.333332 445.1667 -11.666666 437.5 -7 C 429.83334 -2.3333335 421.66663 1.1666667 413 3.5 C 404.33337 5.833333 395.6667 6.9999995 387.00003 7 Z M 194.00002 -267 C 206.66667 -267 219.49998 -268 232.5 -270 C 245.5 -272 258.16666 -274.66666 270.5 -278 C 282.8333 -281.33334 295 -285.83334 307 -291.50003 C 319.00003 -297.1667 329.66666 -304.5 339 -313.50003 C 348.33334 -322.5 355.5 -333.16666 360.50003 -345.5 C 365.49997 -357.8333 368 -370.6667 368 -384 C 368 -393.3333 366.5 -402.33334 363.5 -411.00003 C 360.50003 -419.66666 356 -427.6667 350 -435.00003 C 344 -442.33334 336.6667 -448 328.00003 -452.00003 C 319.3333 -455.99997 310.3333 -457.99997 301 -458 C 287 -457.99997 273.33337 -454.8333 260.00003 -448.5 C 246.66667 -442.16666 234.83333 -434.1667 224.5 -424.5 C 214.16667 -414.8333 205.00002 -403.8333 197.00002 -391.5 C 189 -379.16666 182.33334 -366.33334 177.00002 -353.00003 C 171.66667 -339.66666 167.5 -326 164.5 -312 C 161.5 -298 159.33333 -284 158 -270 C 164 -269.33334 170 -268.66666 176 -268 C 182 -267.33334 188.00002 -267 194.00002 -267 Z " id="path1"/></defs><g><g fill="#ffffff" transform="translate(40 105.20961) rotate(0)"><use href="#path1" transform="translate(0 0) scale(0.09599999)"/></g></g></svg>