<svg xmlns="http://www.w3.org/2000/svg" height="160" viewBox="0 0 128 160" width="128"><defs><path d="M 49 0 L 49 -70 L 95 -70 L 95 -665 L 49 -665 L 49 -735 L 173 -735 L 173 -266 Q 193 -284 212.5 -302.5 Q 232 -321 251 -340 Q 270 -359 287.5 -379 Q 305 -399 320.5 -421.5 Q 336 -444 347 -468.5 Q 358 -493 358 -520 L 482 -520 L 482 -450 L 419 -450 Q 409 -427 395 -406 Q 381 -385 365.5 -365.5 Q 350 -346 333 -327.5 Q 316 -309 299 -291 Q 318 -265 336.5 -238.5 Q 355 -212 372 -184.5 Q 389 -157 404 -128.5 Q 419 -100 430 -70 L 482 -70 L 482 0 L 366 0 Q 366 -23 359 -44.5 Q 352 -66 343 -86.5 Q 334 -107 322.5 -126.5 Q 311 -146 299 -165 Q 287 -184 274 -202.5 Q 261 -221 248 -239 Q 229 -222 210.5 -204 Q 192 -186 173 -169 L 173 -70 L 219 -70 L 219 0 Z " id="path1"/></defs><g><g fill="#dee4e3" transform="translate(40 105.20961) rotate(0)"><use href="#path1" transform="translate(0 0) scale(0.09599999)"/></g></g></svg>