<svg xmlns="http://www.w3.org/2000/svg" height="160" viewBox="0 0 128 160" width="128"><defs><path d="M 387 7 Q 373 7 359 2.5 Q 345 -2 333.5 -10.5 Q 322 -19 314 -31.5 Q 306 -44 300 -57 L 234 -202 Q 225 -201 216.5 -200.5 Q 208 -200 200 -200 Q 189 -200 178.5 -200.5 Q 168 -201 157 -203 L 157 0 L 80 0 L 80 -735 L 157 -735 L 157 -440 Q 171 -458 187.5 -474.5 Q 204 -491 224 -502.5 Q 244 -514 266 -521 Q 288 -528 311 -528 Q 338 -528 363.5 -517 Q 389 -506 407.5 -486.5 Q 426 -467 436 -441.5 Q 446 -416 446 -389 Q 446 -359 436.5 -330 Q 427 -301 407.5 -278.5 Q 388 -256 362 -241 Q 336 -226 307 -217 L 368 -85 Q 370 -81 371 -77.5 Q 372 -74 374 -70 Q 376 -66 379.5 -63.5 Q 383 -61 387 -61 Q 392 -61 396.5 -64 Q 401 -67 403 -72 L 459 -208 L 528 -182 L 472 -46 Q 467 -34 458 -24 Q 449 -14 437.5 -7 Q 426 0 413 3.5 Q 400 7 387 7 Z M 194 -267 Q 213 -267 232.5 -270 Q 252 -273 270.5 -278 Q 289 -283 307 -291.5 Q 325 -300 339 -313.5 Q 353 -327 360.5 -345.5 Q 368 -364 368 -384 Q 368 -398 363.5 -411 Q 359 -424 350 -435 Q 341 -446 328 -452 Q 315 -458 301 -458 Q 280 -458 260 -448.5 Q 240 -439 224.5 -424.5 Q 209 -410 197 -391.5 Q 185 -373 177 -353 Q 169 -333 164.5 -312 Q 160 -291 158 -270 Q 167 -269 176 -268 Q 185 -267 194 -267 Z " id="path1"/></defs><g><g fill="#dee4e3" transform="translate(40 105.20961) rotate(0)"><use href="#path1" transform="translate(0 0) scale(0.09599999)"/></g></g></svg>