<?xml version="1.0" encoding="UTF-8" standalone="no"?>
<svg height="160" viewBox="0 0 128 160" width="128" xmlns="http://www.w3.org/2000/svg">
<defs>
<path d="M 367 8 Q 355 8 343.5 6 Q 332 4 321.5 -2 Q 311 -8 304 -17.5 Q 297 -27 292 -38 L 214 -198 Q 199 -198 185 -201 Q 171 -204 157 -209 L 157 0 L 80 0 L 80 -665 L 33 -665 L 33 -735 L 157 -735 L 157 -381 Q 165 -410 178.5 -437 Q 192 -464 212.5 -485 Q 233 -506 261.5 -517 Q 290 -528 320 -528 Q 336 -528 352.5 -523.5 Q 369 -519 382.5 -509 Q 396 -499 405.5 -485 Q 415 -471 420.5 -455 Q 426 -439 428 -422.5 Q 430 -406 430 -389 Q 430 -358 421 -328 Q 412 -298 392 -274.5 Q 372 -251 345 -236 Q 318 -221 289 -212 L 359 -67 Q 360 -64 361.5 -60.5 Q 363 -57 367 -57 Q 369 -57 370.5 -57.5 Q 372 -58 373 -59 L 455 -148 L 508 -104 L 426 -15 Q 415 -3 399 2.5 Q 383 8 367 8 Z M 206 -264 Q 223 -264 240.5 -268.5 Q 258 -273 274.5 -279 Q 291 -285 306 -294.5 Q 321 -304 331.5 -318 Q 342 -332 347 -349 Q 352 -366 352 -384 Q 352 -397 349 -411 Q 346 -425 337.5 -436 Q 329 -447 315.5 -452.5 Q 302 -458 289 -458 Q 268 -458 248 -450.5 Q 228 -443 213 -429 Q 198 -415 188 -396.5 Q 178 -378 171.5 -358 Q 165 -338 162 -317.5 Q 159 -297 158 -276 Q 169 -270 181 -267 Q 193 -264 206 -264 Z " id="path1"/>
</defs>
<g>
<g data-source-text="k" fill="#dee4e3" transform="translate(40 104.99201) rotate(0) scale(0.09599999)">
<use href="#path1" transform="translate(0 0)"/>
</g>
</g>
</svg>