<?xml version="1.0" encoding="UTF-8" standalone="no"?>
<svg height="160" viewBox="0 0 128 160" width="128" xmlns="http://www.w3.org/2000/svg">
<defs>
<path d="M 373 8 Q 358 8 343.5 4 Q 329 -0 317.5 -9.5 Q 306 -19 298.5 -32 Q 291 -45 285 -59 L 228 -201 Q 220 -201 212 -200.5 Q 204 -200 196 -200 Q 187 -200 177 -200.5 Q 167 -201 157 -202 L 157 0 L 80 0 L 80 -735 L 157 -735 L 157 -459 Q 170 -475 186 -488.5 Q 202 -502 221 -510.5 Q 240 -519 260.5 -523.5 Q 281 -528 301 -528 Q 328 -528 354 -518 Q 380 -508 398.5 -488 Q 417 -468 426.5 -442 Q 436 -416 436 -389 Q 436 -359 427.5 -330.5 Q 419 -302 400 -279.5 Q 381 -257 355 -241.5 Q 329 -226 301 -217 L 355 -84 Q 356 -80 357 -76 Q 358 -72 360 -68 Q 362 -64 365.5 -61.5 Q 369 -59 373 -59 Q 378 -59 383 -60 Q 388 -61 389 -66 L 447 -221 L 517 -197 L 459 -43 Q 455 -30 446 -20 Q 437 -10 425 -3.5 Q 413 3 399.5 5.5 Q 386 8 373 8 Z M 191 -267 Q 210 -267 228.5 -270 Q 247 -273 265.5 -278.5 Q 284 -284 301 -292.5 Q 318 -301 331.5 -314.5 Q 345 -328 352 -346.5 Q 359 -365 359 -384 Q 359 -397 354.5 -410.5 Q 350 -424 341.5 -435 Q 333 -446 320 -452 Q 307 -458 293 -458 Q 272 -458 251.5 -450 Q 231 -442 215 -427.5 Q 199 -413 188.5 -394 Q 178 -375 171.5 -354.5 Q 165 -334 162 -312.5 Q 159 -291 158 -270 Q 166 -269 174 -268 Q 182 -267 191 -267 Z " id="path1"/>
</defs>
<g>
<g data-source-text="k" fill="#dee4e3" transform="translate(40 104.99201) rotate(0) scale(0.09599999)">
<use href="#path1" transform="translate(0 0)"/>
</g>
</g>
</svg>