<?xml version="1.0" encoding="UTF-8" standalone="no"?>
<svg height="160" viewBox="0 0 128 160" width="128" xmlns="http://www.w3.org/2000/svg">
<defs>
<path d="M 360 0 L 183 -201 Q 176 -202 169.5 -204 Q 163 -206 157 -209 L 157 -70 L 203 -70 L 203 0 L 33 0 L 33 -70 L 80 -70 L 80 -665 L 33 -665 L 33 -735 L 157 -735 L 157 -387 Q 165 -415 178 -440.5 Q 191 -466 211 -486.5 Q 231 -507 258.5 -517.5 Q 286 -528 314 -528 Q 331 -528 347 -523.5 Q 363 -519 376.5 -509 Q 390 -499 399 -484.5 Q 408 -470 413 -454.5 Q 418 -439 420 -422.5 Q 422 -406 422 -389 Q 422 -357 412.5 -326.5 Q 403 -296 382.5 -272 Q 362 -248 333.5 -233 Q 305 -218 275 -209 L 397 -70 L 482 -70 L 482 0 Z M 202 -267 Q 219 -267 235.5 -271 Q 252 -275 268.5 -280.5 Q 285 -286 299.5 -296 Q 314 -306 324.5 -319.5 Q 335 -333 339.5 -349.5 Q 344 -366 344 -384 Q 344 -397 341.5 -410.5 Q 339 -424 331 -435 Q 323 -446 310.5 -452 Q 298 -458 284 -458 Q 263 -458 243.5 -450.5 Q 224 -443 210 -428 Q 196 -413 186.5 -395 Q 177 -377 171 -357 Q 165 -337 162 -317 Q 159 -297 158 -276 Q 168 -271 179 -269 Q 190 -267 202 -267 Z " id="path1"/>
</defs>
<g>
<g data-source-text="k" fill="#dee4e3" transform="translate(40 104.99201) rotate(0) scale(0.09599999)">
<use href="#path1" transform="translate(0 0)"/>
</g>
</g>
</svg>