<?xml version="1.0" encoding="UTF-8" standalone="no"?>
<svg xmlns="http://www.w3.org/2000/svg" height="160" viewBox="0 0 128 160" width="128"><defs><path d="M 95 0 L 95 -665 L 49 -665 L 49 -735 L 173 -735 L 173 -461 Q 186 -476 200.5 -488 Q 215 -500 232 -509 Q 249 -518 268 -523 Q 287 -528 306 -528 Q 332 -528 357 -517 Q 382 -506 400 -486 Q 418 -466 427 -441 Q 436 -416 436 -389 Q 436 -358 426.5 -327.5 Q 417 -297 395.5 -274 Q 374 -251 346 -236.5 Q 318 -222 288 -213 L 443 0 L 350 0 L 237 -155 L 205 -200 L 196 -200 Q 190 -200 184.5 -200 Q 179 -200 173 -201 L 173 0 Z M 190 -267 Q 209 -267 228 -270 Q 247 -273 265.5 -278.5 Q 284 -284 301 -292.5 Q 318 -301 331.5 -314.5 Q 345 -328 352 -346.5 Q 359 -365 359 -384 Q 359 -397 355 -410.5 Q 351 -424 342.5 -434.5 Q 334 -445 321.5 -451.5 Q 309 -458 296 -458 Q 273 -458 253 -447 Q 233 -436 217.5 -420 Q 202 -404 191 -384.5 Q 180 -365 173 -343 L 173 -268 Q 177 -268 181.5 -267.5 Q 186 -267 190 -267 Z " id="path1"/></defs><g><g data-source-text="k" fill="#dee4e3" transform="translate(40 104.99201) rotate(0) scale(0.09599999)"><use href="#path1" transform="translate(0 0)"/></g></g></svg>