<svg xmlns="http://www.w3.org/2000/svg" height="160" viewBox="0 0 128 160" width="128"><defs><path d="M 80.00001 0 L 80.00001 -735 L 157.00002 -735 L 157.00002 -440.00003 C 166.33333 -452 176.50002 -463.5 187.5 -474.50003 C 198.5 -485.50003 210.66666 -494.83337 224 -502.50003 C 237.33334 -510.1667 251.33333 -516.3334 266 -521 C 280.6667 -525.6666 295.66666 -528 311.00003 -528 C 329 -528 346.5 -524.3333 363.5 -517 C 380.5 -509.6667 395.1667 -499.5 407.5 -486.5 C 419.8333 -473.5 429.3333 -458.5 436 -441.5 C 442.66666 -424.5 446.00003 -407 446.00003 -389.00003 C 446.00003 -367.66666 442.33334 -346.66666 435.00003 -326 C 427.6667 -305.33334 416.5 -287.1667 401.5 -271.50003 C 386.49997 -255.83336 369.16666 -243.33334 349.50003 -234.00002 C 329.83334 -224.66669 309.6667 -217.33334 289 -212 L 466 0 L 368 0 L 201 -200.00002 C 201 -200.00002 200.83333 -200.00002 200.50002 -200.00002 C 200.16667 -200.00002 200.00002 -200.00002 200.00002 -200.00002 C 192.66667 -200.00002 185.49998 -200.16667 178.5 -200.50002 C 171.50002 -200.83333 164.33334 -201.66667 157.00002 -203.00002 L 157.00002 0 Z M 194.00002 -267 C 206.66667 -267 219.49998 -268 232.5 -270 C 245.5 -272 258.16666 -274.66666 270.5 -278 C 282.8333 -281.33334 295 -285.83334 307 -291.50003 C 319.00003 -297.1667 329.66666 -304.5 339 -313.50003 C 348.33334 -322.5 355.5 -333.16666 360.50003 -345.5 C 365.49997 -357.8333 368 -370.6667 368 -384 C 368 -393.3333 366.5 -402.33334 363.5 -411.00003 C 360.50003 -419.66666 356 -427.6667 350 -435.00003 C 344 -442.33334 336.6667 -448 328.00003 -452.00003 C 319.3333 -455.99997 310.3333 -457.99997 301 -458 C 287 -457.99997 273.33337 -454.8333 260.00003 -448.5 C 246.66667 -442.16666 234.83333 -434.1667 224.5 -424.5 C 214.16667 -414.8333 205.00002 -403.8333 197.00002 -391.5 C 189 -379.16666 182.33334 -366.33334 177.00002 -353.00003 C 171.66667 -339.66666 167.5 -326 164.5 -312 C 161.5 -298 159.33333 -284 158 -270 C 164 -269.33334 170 -268.66666 176 -268 C 182 -267.33334 188.00002 -267 194.00002 -267 Z " id="path1"/></defs><g><g fill="#000000" transform="translate(40 105.20961) rotate(0)"><use href="#path1" transform="translate(0 0) scale(0.09599999)"/></g></g></svg>