<?xml version="1.0" encoding="UTF-8" standalone="no"?>
<svg height="160" viewBox="0 0 128 160" width="128" xmlns="http://www.w3.org/2000/svg">
<defs>
<path d="M 64 0 L 64 -735 L 142 -735 L 142 -253 Q 159 -267 175.5 -281 Q 192 -295 209 -310 Q 226 -325 242 -340 Q 258 -355 273 -370.5 Q 288 -386 302.5 -403 Q 317 -420 329 -438.5 Q 341 -457 349.5 -477.5 Q 358 -498 358 -520 L 436 -520 Q 436 -496 427.5 -473.5 Q 419 -451 406.5 -430.5 Q 394 -410 379 -391.5 Q 364 -373 347.5 -355 Q 331 -337 314 -320.5 Q 297 -304 280 -288 Q 301 -263 321.5 -237 Q 342 -211 361 -184 Q 380 -157 397.5 -129 Q 415 -101 428 -70 L 482 -70 L 482 0 L 366 0 Q 366 -24 358 -46.5 Q 350 -69 339 -89.5 Q 328 -110 315 -130 Q 302 -150 288.5 -169.5 Q 275 -189 260 -207.5 Q 245 -226 230 -244 Q 208 -225 186 -206 Q 164 -187 142 -169 L 142 0 Z " id="path1"/>
</defs>
<g>
<g data-source-text="k" fill="#20242e" transform="translate(40 104.99201) rotate(0) scale(0.09599999)">
<use href="#path1" transform="translate(0 0)"/>
</g>
</g>
</svg>