<?xml version="1.0" encoding="UTF-8" standalone="no"?>
<svg xmlns="http://www.w3.org/2000/svg" height="160" viewBox="0 0 128 160" width="128"><defs><path d="M 95 0 L 95 -665 L 49 -665 L 49 -735 L 173 -735 L 173 -443 Q 186 -461 201.5 -476.5 Q 217 -492 236 -503.5 Q 255 -515 276 -521.5 Q 297 -528 319 -528 Q 345 -528 369.5 -516.5 Q 394 -505 411.5 -485.5 Q 429 -466 438.5 -440.5 Q 448 -415 448 -389 Q 448 -357 437 -325.5 Q 426 -294 403.5 -270.5 Q 381 -247 351.5 -232.5 Q 322 -218 290 -210 L 443 0 L 350 0 L 237 -155 L 205 -200 Q 197 -200 189 -200.5 Q 181 -201 173 -202 L 173 0 Z M 203 -267 Q 222 -267 241 -270 Q 260 -273 278 -278.5 Q 296 -284 313 -292.5 Q 330 -301 343.5 -314.5 Q 357 -328 363.5 -346.5 Q 370 -365 370 -384 Q 370 -397 366 -410 Q 362 -423 354 -434 Q 346 -445 334 -451.5 Q 322 -458 309 -458 Q 288 -458 268.5 -448 Q 249 -438 234.5 -423 Q 220 -408 209 -389.5 Q 198 -371 191 -351.5 Q 184 -332 179.5 -311 Q 175 -290 174 -269 Q 181 -268 188.5 -267.5 Q 196 -267 203 -267 Z " id="path1"/></defs><g><g data-source-text="k" fill="#20242e" transform="translate(40 104.99201) rotate(0) scale(0.09599999)"><use href="#path1" transform="translate(0 0)"/></g></g></svg>