<?xml version="1.0" encoding="UTF-8" standalone="no"?>
<svg xmlns="http://www.w3.org/2000/svg" height="160" viewBox="0 0 128 160" width="128"><defs><path d="M 49 0 L 49 -70 L 95 -70 L 95 -665 L 49 -665 L 49 -735 L 173 -735 L 173 -446 Q 185 -463 200 -478 Q 215 -493 232.5 -504 Q 250 -515 270.5 -521.5 Q 291 -528 312 -528 Q 338 -528 362 -516.5 Q 386 -505 402.5 -485 Q 419 -465 427.5 -440 Q 436 -415 436 -389 Q 436 -358 427 -328 Q 418 -298 398 -274.5 Q 378 -251 350.5 -236 Q 323 -221 293 -213 L 405 -70 L 482 -70 L 482 0 L 364 0 L 244 -154 L 209 -200 L 207 -200 Q 199 -200 190.5 -200.5 Q 182 -201 173 -202 L 173 -70 L 219 -70 L 219 0 Z M 201 -267 Q 220 -267 238 -270 Q 256 -273 273.5 -278.5 Q 291 -284 307 -293.5 Q 323 -303 335 -316.5 Q 347 -330 353 -347.5 Q 359 -365 359 -384 Q 359 -397 355.5 -409.5 Q 352 -422 345 -433 Q 338 -444 326.5 -451 Q 315 -458 302 -458 Q 281 -458 262.5 -447.5 Q 244 -437 230 -421.5 Q 216 -406 206 -387.5 Q 196 -369 189.5 -350 Q 183 -331 179 -310.5 Q 175 -290 174 -269 Q 181 -268 187.5 -267.5 Q 194 -267 201 -267 Z " id="path1"/></defs><g><g data-source-text="k" fill="#20242e" transform="translate(40 104.99201) rotate(0) scale(0.09599999)"><use href="#path1" transform="translate(0 0)"/></g></g></svg>