<?xml version="1.0" encoding="UTF-8" standalone="no"?>
<svg height="160" viewBox="0 0 128 160" width="128" xmlns="http://www.w3.org/2000/svg">
<defs>
<path d="M 353 8 Q 339 8 326 4 Q 313 0 302.5 -8.5 Q 292 -17 285 -29 Q 278 -41 273 -53 L 211 -198 Q 197 -199 183.5 -201.5 Q 170 -204 157 -209 L 157 0 L 80 0 L 80 -735 L 157 -735 L 157 -381 Q 165 -410 178.5 -437 Q 192 -464 212.5 -485 Q 233 -506 261.5 -517 Q 290 -528 320 -528 Q 336 -528 352.5 -523.5 Q 369 -519 382.5 -509 Q 396 -499 405.5 -485 Q 415 -471 420.5 -455 Q 426 -439 428 -422.5 Q 430 -406 430 -389 Q 430 -358 420.5 -327.5 Q 411 -297 390.5 -273.5 Q 370 -250 342.5 -235 Q 315 -220 285 -211 L 341 -80 Q 342 -78 342.5 -75.5 Q 343 -73 343 -71 L 343 -65 Q 343 -61 346 -57.5 Q 349 -54 353 -54 Q 355 -54 357.5 -54 Q 360 -54 361 -56 L 428 -223 L 492 -200 L 425 -33 Q 421 -23 413 -14.5 Q 405 -6 395.5 -1 Q 386 4 375 6 Q 364 8 353 8 Z M 206 -264 Q 223 -264 240.5 -268.5 Q 258 -273 274.5 -279 Q 291 -285 306 -294.5 Q 321 -304 331.5 -318 Q 342 -332 347 -349 Q 352 -366 352 -384 Q 352 -397 349 -411 Q 346 -425 337.5 -436 Q 329 -447 315.5 -452.5 Q 302 -458 289 -458 Q 268 -458 248 -450.5 Q 228 -443 213 -429 Q 198 -415 188 -396.5 Q 178 -378 171.5 -358 Q 165 -338 162 -317.5 Q 159 -297 158 -276 Q 169 -270 181 -267 Q 193 -264 206 -264 Z " id="path1"/>
</defs>
<g>
<g data-source-text="k" fill="#20242e" transform="translate(40 104.99201) rotate(0) scale(0.09599999)">
<use href="#path1" transform="translate(0 0)"/>
</g>
</g>
</svg>