<?xml version="1.0" encoding="UTF-8" standalone="no"?>
<svg xmlns="http://www.w3.org/2000/svg" height="160" viewBox="0 0 128 160" width="128"><defs><path d="M 373 7 Q 358 7 344 2.5 Q 330 -2 318 -10.5 Q 306 -19 298.5 -32 Q 291 -45 285 -59 L 228 -201 Q 221 -200 213.5 -200 Q 206 -200 198 -200 Q 188 -200 177.5 -200.5 Q 167 -201 157 -202 L 157 0 L 80 0 L 80 -735 L 157 -735 L 157 -439 Q 171 -458 188 -474 Q 205 -490 225 -502 Q 245 -514 267.5 -521 Q 290 -528 313 -528 Q 340 -528 365.5 -517 Q 391 -506 409.5 -486.5 Q 428 -467 438 -441.5 Q 448 -416 448 -389 Q 448 -358 438 -328.5 Q 428 -299 407 -276.5 Q 386 -254 358.5 -239 Q 331 -224 302 -216 L 355 -84 Q 358 -76 361.5 -68.5 Q 365 -61 373 -61 Q 378 -61 382.5 -64 Q 387 -67 389 -72 L 445 -208 L 514 -182 L 458 -46 Q 453 -34 444 -24 Q 435 -14 423.5 -7 Q 412 0 399 3.5 Q 386 7 373 7 Z M 192 -267 Q 212 -267 231.5 -270 Q 251 -273 270 -278 Q 289 -283 307 -291.5 Q 325 -300 339.5 -313.5 Q 354 -327 362 -345.5 Q 370 -364 370 -384 Q 370 -398 365.5 -411.5 Q 361 -425 352 -435.5 Q 343 -446 330 -452 Q 317 -458 303 -458 Q 281 -458 261 -448.5 Q 241 -439 225 -424.5 Q 209 -410 197.5 -391.5 Q 186 -373 177.5 -353.5 Q 169 -334 164.5 -312.5 Q 160 -291 158 -270 Q 167 -269 175.5 -268 Q 184 -267 192 -267 Z " id="path1"/></defs><g><g data-source-text="k" fill="#20242e" transform="translate(40 104.99201) rotate(0) scale(0.09599999)"><use href="#path1" transform="translate(0 0)"/></g></g></svg>