<?xml version="1.0" encoding="UTF-8" standalone="no"?>
<svg height="160" viewBox="0 0 128 160" width="128" xmlns="http://www.w3.org/2000/svg">
<defs>
<path d="M 211 215 L 211 6 Q 187 3 163.5 -5 Q 140 -13 120 -27.5 Q 100 -42 84.5 -61.5 Q 69 -81 59.5 -103.5 Q 50 -126 46.5 -150.5 Q 43 -175 43 -200 L 43 -320 Q 43 -345 46.5 -369.5 Q 50 -394 59.5 -416.5 Q 69 -439 84.5 -458.5 Q 100 -478 120 -492.5 Q 140 -507 163.5 -515 Q 187 -523 211 -526 L 211 -735 L 289 -735 L 289 -526 Q 313 -523 336.5 -515 Q 360 -507 380 -492.5 Q 400 -478 415.5 -458.5 Q 431 -439 440.5 -416.5 Q 450 -394 453.5 -369.5 Q 457 -345 457 -320 L 457 -200 Q 457 -175 453.5 -150.5 Q 450 -126 440.5 -103.5 Q 431 -81 415.5 -61.5 Q 400 -42 380 -27.5 Q 360 -13 336.5 -5 Q 313 3 289 6 L 289 215 Z M 214 -60 L 214 -460 Q 191 -455 171 -442 Q 151 -429 138 -409.5 Q 125 -390 120 -366.5 Q 115 -343 115 -320 L 115 -200 Q 115 -177 120 -153.5 Q 125 -130 138 -110.5 Q 151 -91 171 -78 Q 191 -65 214 -60 Z M 286 -60 Q 309 -65 329 -78 Q 349 -91 362 -110.5 Q 375 -130 380 -153.5 Q 385 -177 385 -200 L 385 -320 Q 385 -343 380 -366.5 Q 375 -390 362 -409.5 Q 349 -429 329 -442 Q 309 -455 286 -460 Z " id="path1"/>
</defs>
<g>
<g data-source-text="φ" fill="#dee4e3" transform="translate(40 104.99201) rotate(0) scale(0.09599999)">
<use href="#path1" transform="translate(0 0)"/>
</g>
</g>
</svg>