<?xml version="1.0" encoding="UTF-8" standalone="no"?>
<svg height="160" viewBox="0 0 128 160" width="128" xmlns="http://www.w3.org/2000/svg">
<defs>
<path d="M 440 8 L 424 8 Q 403 8 382.5 2.5 Q 362 -3 346 -17 Q 330 -31 323 -51.5 Q 316 -72 316 -93 L 316 -450 L 184 -450 L 184 0 L 107 0 L 107 -450 L 43 -450 L 43 -520 L 457 -520 L 457 -450 L 393 -450 L 393 -93 Q 393 -87 395 -81 Q 397 -75 401.5 -70.5 Q 406 -66 412 -64 Q 418 -62 424 -62 L 440 -62 Z " id="path1"/>
</defs>
<g>
<g data-source-text="π" fill="#20242e" transform="translate(40 104.99201) rotate(0) scale(0.09599999)">
<use href="#path1" transform="translate(0 0)"/>
</g>
</g>
</svg>