<?xml version="1.0" encoding="UTF-8" standalone="no"?>
<svg height="160" viewBox="0 0 128 160" width="128" xmlns="http://www.w3.org/2000/svg">
<defs>
<path d="M 211 215 L 211 6 Q 187 3 163.5 -5 Q 140 -13 120 -27.5 Q 100 -42 84.5 -61.5 Q 69 -81 59.5 -103.5 Q 50 -126 46.5 -150.5 Q 43 -175 43 -200 L 43 -320 Q 43 -348 47.5 -375.5 Q 52 -403 64.5 -428 Q 77 -453 97 -473 Q 117 -493 142 -505.5 Q 167 -518 194.5 -523 Q 222 -528 250 -528 Q 278 -528 305.5 -523 Q 333 -518 358 -505.5 Q 383 -493 403 -473 Q 423 -453 435.5 -428 Q 448 -403 452.5 -375.5 Q 457 -348 457 -320 L 457 -200 Q 457 -175 453.5 -150.5 Q 450 -126 440.5 -103.5 Q 431 -81 415.5 -61.5 Q 400 -42 380 -27.5 Q 360 -13 336.5 -5 Q 313 3 289 6 L 289 215 Z M 214 -60 L 214 -460 Q 191 -455 171 -442 Q 151 -429 138 -409.5 Q 125 -390 120 -366.5 Q 115 -343 115 -320 L 115 -200 Q 115 -177 120 -153.5 Q 125 -130 138 -110.5 Q 151 -91 171 -78 Q 191 -65 214 -60 Z M 286 -60 Q 309 -65 329 -78 Q 349 -91 362 -110.5 Q 375 -130 380 -153.5 Q 385 -177 385 -200 L 385 -320 Q 385 -343 380 -366.5 Q 375 -390 362 -409.5 Q 349 -429 329 -442 Q 309 -455 286 -460 Z " id="path1"/>
</defs>
<g>
<g data-source-text="φ" fill="#20242e" transform="translate(40 104.99201) rotate(0) scale(0.09599999)">
<use href="#path1" transform="translate(0 0)"/>
</g>
</g>
</svg>