<svg xmlns="http://www.w3.org/2000/svg" height="160" viewBox="0 0 256 160" width="256"><defs><path d="M -340 -40 L -360 -108 L 350 -293 L 350 -221 Z " id="path4"/><path d="M 160 -206 L 140 -274 L 712 -423 L 140 -572 L 160 -640 L 850 -459 L 850 -387 Z " id="path3"/><path d="M 340 -40 L -350 -221 L -350 -293 L 360 -108 Z " id="path2"/><path d="M 840 -206 L 150 -387 L 150 -459 L 840 -640 L 860 -572 L 288 -423 L 860 -274 Z " id="path1"/></defs><g><g fill="#dee4e3" transform="translate(16 105.20961) rotate(0)"><use href="#path1" transform="translate(0 0) scale(0.09599999)"/><use href="#path2" transform="translate(48 0) scale(0.09599999)"/></g><g fill="#dee4e3" transform="translate(144 105.20961) rotate(0)"><use href="#path3" transform="translate(0 0) scale(0.09599999)"/><use href="#path4" transform="translate(48 0) scale(0.09599999)"/></g></g></svg>