<?xml version="1.0" encoding="UTF-8" standalone="no"?>
<svg height="160" viewBox="0 0 128 160" width="128" xmlns="http://www.w3.org/2000/svg">
<defs>
<path d="M 64 0 L 142 0 L 142 -74 Q 142 -89 144.5 -104.5 Q 147 -120 150.5 -135 Q 154 -150 159.5 -165 Q 165 -180 170 -195 L 248 -406 L 330 -194 Q 341 -165 349.5 -135 Q 358 -105 358 -74 L 358 0 L 436 0 L 436 -74 Q 436 -111 426 -147.5 Q 416 -184 402 -219 L 236 -649 Q 229 -668 227.5 -688 Q 226 -708 226 -728 L 226 -735 L 148 -735 L 148 -728 Q 148 -701 151 -675 Q 154 -649 164 -624 L 209 -508 L 98 -219 Q 84 -184 74 -147.5 Q 64 -111 64 -74 Z " id="path1"/>
</defs>
<g>
<g data-source-text="λ" fill="#dee4e3" transform="translate(40 104.99201) rotate(0) scale(0.09599999)">
<use href="#path1" transform="translate(0 0)"/>
</g>
</g>
</svg>