<svg xmlns="http://www.w3.org/2000/svg" height="160" viewBox="0 0 128 160" width="128"><defs><path d="M 366.00003 0 C 352 0 338.16666 -1.1666667 324.5 -3.5 C 310.83334 -5.833333 297.6667 -10 285 -16 C 272.33334 -22 261.16666 -30.000002 251.50002 -40.000004 C 241.83334 -50.000004 233.83334 -61.333336 227.50002 -74 C 221.16666 -86.666664 216.83331 -99.833336 214.50002 -113.5 C 212.16667 -127.166664 211.00002 -141 211.00002 -155 L 211.00002 -450.00003 L 75.00001 -450.00003 L 75.00001 -520.00006 L 289 -520.00006 L 289 -155 C 289 -143.66667 290.3333 -132.66667 293 -122 C 295.66666 -111.333336 300.5 -101.83333 307.5 -93.5 C 314.5 -85.166664 323.33334 -79.166664 334 -75.5 C 344.66666 -71.833336 355.33334 -70.00001 366.00003 -70.00001 L 434.00003 -70.00001 L 434.00003 0 Z " id="path1"/></defs><g><g fill="#000000" transform="translate(40 105.20961) rotate(0)"><use href="#path1" transform="translate(0 0) scale(0.09599999)"/></g></g></svg>