<?xml version="1.0" encoding="UTF-8" standalone="no"?>
<svg height="160" viewBox="0 0 128 160" width="128" xmlns="http://www.w3.org/2000/svg">
<defs>
<path d="M 335 8 L 320 8 Q 299 8 278 2.5 Q 257 -3 241 -17 Q 225 -31 218 -51.5 Q 211 -72 211 -93 L 211 -450 L 64 -450 L 64 -520 L 436 -520 L 436 -450 L 289 -450 L 289 -93 Q 289 -87 291 -81 Q 293 -75 297 -70.5 Q 301 -66 307.5 -64 Q 314 -62 320 -62 L 335 -62 Z " id="path1"/>
</defs>
<g>
<g data-source-text="τ" fill="#20242e" transform="translate(40 104.99201) rotate(0) scale(0.09599999)">
<use href="#path1" transform="translate(0 0)"/>
</g>
</g>
</svg>