<?xml version="1.0" encoding="UTF-8" standalone="no"?>
<svg xmlns='http://www.w3.org/2000/svg' height="160" viewBox="0 0 128 160" width="128"><defs><path d="M 64 215 L 64 -450 L 18 -450 L 18 -520 L 142 -520 L 142 -195 Q 142 -171 147 -147 Q 152 -123 165.5 -103 Q 179 -83 202 -72.5 Q 225 -62 249 -62 Q 277 -62 304.5 -70 Q 332 -78 358 -89 L 358 -450 L 312 -450 L 312 -520 L 436 -520 L 436 -46 Q 392 -22 344 -7 Q 296 8 247 8 Q 218 8 189.5 0.5 Q 161 -7 138 -23 Q 140 9 141 42 Q 142 75 142 107 L 142 215 Z " id="path1"/></defs><g><g data-source-text="μ" fill="#dee4e3" transform="translate(40 104.99201) rotate(0) scale(0.09599999)"><use href="#path1" transform="translate(0 0)"/></g></g></svg>