<svg xmlns="http://www.w3.org/2000/svg" height="160" viewBox="0 0 128 160" width="128"><defs><path d="M 220.00002 8 C 203.33333 8 186.5 6 169.5 2 C 152.5 -1.9999998 137.00002 -9.000001 123.00001 -19 C 109 -29 96.99999 -41 87.00001 -55.000004 C 77.00001 -69 69 -84.00001 63 -100.00001 C 57.000004 -116 53 -132.33334 51 -149 C 48.999996 -165.66667 48 -182.66667 48 -200.00002 L 48 -320.00003 C 48 -337.33334 48.999996 -354.33334 51 -371.00003 C 53 -387.6667 57.000004 -403.99997 63 -420 C 69 -436 77.00001 -451 87.00001 -465 C 96.99999 -479.00003 109 -491.00003 123.00001 -501.00003 C 137.00002 -511 152.5 -518 169.5 -522 C 186.5 -525.99994 203.33333 -528 220.00002 -528 C 236.00002 -528 251.5 -524.5 266.5 -517.5 C 281.5 -510.5 294.5 -501.1667 305.50003 -489.50003 C 316.50003 -477.8333 326 -465 334 -451.00003 C 342.00003 -436.99997 349 -422.66666 355.00003 -408 C 357.66666 -426.66666 360.50003 -445.33334 363.5 -464 C 366.5 -482.66666 369.33334 -501.33334 372.00003 -520.00006 L 450.00003 -520.00006 C 441.33334 -477.3333 432.8333 -434.5 424.5 -391.5 C 416.1667 -348.50003 407.33334 -305.6667 398 -263.00003 C 408 -219.66667 417.16666 -176 425.5 -132 C 433.83334 -88 442.66666 -43.999996 452.00003 0 L 374 0 C 371.33334 -19.333332 368.5 -38.666668 365.50003 -58 C 362.50003 -77.333336 359.33337 -96.666664 356 -116 L 356 -118.00001 C 350 -102.66666 343 -87.666664 335 -73 C 327 -58.33333 317.5 -44.833332 306.5 -32.500004 C 295.5 -20.166668 282.5 -10.333333 267.5 -3 C 252.5 4.333333 236.66667 8 220.00002 8 Z M 220.00002 -62.000004 C 234 -62.000004 246.49998 -66.5 257.5 -75.5 C 268.5 -84.5 277.33334 -95 284 -107.00001 C 290.66666 -119 296.33334 -131.5 301 -144.5 C 305.6667 -157.5 309.83334 -170.5 313.50003 -183.5 C 317.16666 -196.49998 320.5 -209.83333 323.5 -223.5 C 326.5 -237.16667 329.33334 -250.66667 332 -264 C 329.33334 -276.66666 326.5 -289.5 323.5 -302.50003 C 320.5 -315.5 317.16666 -328.5 313.50003 -341.5 C 309.83334 -354.50003 305.6667 -367.1667 301 -379.5 C 296.33334 -391.8333 290.5 -403.66666 283.5 -415 C 276.5 -426.33337 267.5 -436.33334 256.5 -445.00003 C 245.50002 -453.66666 233.33334 -457.99997 220.00002 -458 C 210 -457.99997 199.83334 -456.16663 189.5 -452.5 C 179.16669 -448.8333 170.33333 -443.49997 163 -436.5 C 155.66667 -429.5 149.5 -421.16666 144.5 -411.50003 C 139.5 -401.83334 135.66667 -392 133 -382.00003 C 130.33333 -372 128.5 -361.8333 127.5 -351.5 C 126.49999 -341.16666 125.99999 -330.66666 126 -320.00003 L 126 -200.00002 C 125.99999 -189.33333 126.49999 -178.83333 127.5 -168.50002 C 128.5 -158.16666 130.33333 -148 133 -138 C 135.66667 -128 139.5 -118.16667 144.5 -108.50001 C 149.5 -98.833336 155.66667 -90.5 163 -83.5 C 170.33333 -76.49999 179.16669 -71.166664 189.5 -67.5 C 199.83334 -63.83334 210 -62.000004 220.00002 -62.000004 Z " id="path1"/></defs><g><g fill="#ffffff" transform="translate(40 105.20961) rotate(0)"><use href="#path1" transform="translate(0 0) scale(0.09599999)"/></g></g></svg>