<svg xmlns="http://www.w3.org/2000/svg" height="160" viewBox="0 0 128 160" width="128"><defs><path d="M 63 215 L 63 145 L 115 145 C 129.66667 145 143.83333 142 157.5 136 C 171.16666 130 182 120.99999 190 109 C 198 97.00001 203.5 83.666664 206.5 69 C 209.5 54.333336 211.00002 39.666668 211.00002 25.000002 L 211.00002 -545 C 211.00002 -561.6667 212.16667 -578 214.50002 -594.00006 C 216.83331 -610 221.33333 -625.5 228.00002 -640.5 C 234.66667 -655.49994 243.33333 -669.3333 254.00002 -682 C 264.66666 -694.6666 277 -704.99994 291.00003 -713 C 305 -721 320.1667 -726.6666 336.50003 -730.00006 C 352.83337 -733.3333 369 -735 385 -735 L 438.00003 -735 L 438.00003 -665 L 385 -665 C 370.3333 -665 356.1667 -662 342.50003 -656.00006 C 328.83334 -650 318 -641 310 -629 C 302 -617.00006 296.5 -603.6667 293.5 -589 C 290.5 -574.3333 289 -559.6666 289 -545 L 289 25.000002 C 289 41.666668 287.83334 58 285.50003 74 C 283.16666 90 278.66666 105.50001 272 120.5 C 265.33334 135.5 256.66666 149.33333 246.00002 162 C 235.33333 174.66664 223.00002 184.99998 209.00002 193 C 195.00002 201 179.83334 206.66667 163.5 210 C 147.16666 213.33333 131 215 115 215 Z " id="path1"/></defs><g><g fill="#ffffff" transform="translate(40 105.20961) rotate(0)"><use href="#path1" transform="translate(0 0) scale(0.09599999)"/></g></g></svg>