<?xml version="1.0" encoding="UTF-8" standalone="no"?>
<svg height="160" viewBox="0 0 128 160" width="128" xmlns="http://www.w3.org/2000/svg">
<defs>
<path d="M 468 8 Q 444 8 420.5 3 Q 397 -2 378 -16.5 Q 359 -31 346 -51 Q 333 -71 324.5 -93 Q 316 -115 311 -138.5 Q 306 -162 301 -185 L 243 -415 L 167 -180 Q 167 -178 166 -176 Q 165 -174 164 -172 L 164 -171 Q 163 -169 162.5 -167 Q 162 -165 161 -163 L 161 -162 Q 154 -140 148 -118 Q 142 -96 142 -74 L 142 0 L 64 0 L 64 -74 Q 64 -90 67 -106.5 Q 70 -123 74 -139 Q 78 -155 83 -171 Q 88 -187 93 -202 L 207 -538 L 186 -615 Q 183 -626 179 -636 Q 175 -646 167.5 -653 Q 160 -660 149.5 -662.5 Q 139 -665 129 -665 L 76 -665 L 76 -735 L 129 -735 Q 152 -735 175.5 -731 Q 199 -727 217 -713 Q 235 -699 245 -677.5 Q 255 -656 261 -633 L 376 -202 Q 379 -191 381.5 -180 Q 384 -169 386.5 -157.5 Q 389 -146 391.5 -134.5 Q 394 -123 398.5 -112.5 Q 403 -102 409 -92 Q 415 -82 424 -74.5 Q 433 -67 444.5 -64.5 Q 456 -62 468 -62 Z " id="path1"/>
</defs>
<g>
<g data-source-text="λ" fill="#20242e" transform="translate(40 104.99201) rotate(0) scale(0.09599999)">
<use href="#path1" transform="translate(0 0)"/>
</g>
</g>
</svg>