<?xml version="1.0" encoding="UTF-8" standalone="no"?>
<svg height="160" viewBox="0 0 128 160" width="128" xmlns="http://www.w3.org/2000/svg">
<defs>
<path d="M 82 0 L 82 -70 L 148 -70 L 148 -403 L 82 -403 L 82 -473 L 148 -473 L 148 -540 Q 148 -564 150.5 -588 Q 153 -612 160.5 -634.5 Q 168 -657 180.5 -678 Q 193 -699 211.5 -714 Q 230 -729 253.5 -736 Q 277 -743 301 -743 Q 323 -743 345 -737 Q 367 -731 385.5 -718 Q 404 -705 417 -686.5 Q 430 -668 438 -646.5 Q 446 -625 449.5 -603 Q 453 -581 453 -558 L 453 -556 L 375 -556 L 375 -557 Q 375 -570 373.5 -583 Q 372 -596 369 -608.5 Q 366 -621 360.5 -632.5 Q 355 -644 346.5 -653.5 Q 338 -663 326 -668 Q 314 -673 301 -673 Q 287 -673 274 -666.5 Q 261 -660 252.5 -648.5 Q 244 -637 239 -623.5 Q 234 -610 231 -596.5 Q 228 -583 227 -568.5 Q 226 -554 226 -540 L 226 -70 L 323 -70 L 323 0 Z " id="path1"/>
</defs>
<g>
<g data-source-text="ſ" fill="#20242e" transform="translate(40 104.99201) rotate(0) scale(0.09599999)">
<use href="#path1" transform="translate(0 0)"/>
</g>
</g>
</svg>