<?xml version="1.0" encoding="UTF-8" standalone="no"?>
<svg height="160" viewBox="0 0 128 160" width="128" xmlns="http://www.w3.org/2000/svg">
<defs>
<path d="M 250 215 L 250 145 L 279 145 Q 295 145 310 141 Q 325 137 336.5 127 Q 348 117 353 102.5 Q 358 88 358 73 Q 358 54 349 37 Q 340 20 323.5 11.5 Q 307 3 288 1.5 Q 269 -0 250.5 -0.5 Q 232 -1 213.5 -4 Q 195 -7 177 -12.5 Q 159 -18 142.5 -27 Q 126 -36 112 -48 Q 98 -60 87 -75.5 Q 76 -91 69.5 -108.5 Q 63 -126 60 -144.5 Q 57 -163 57 -181 L 57 -182 Q 57 -215 67.5 -247 Q 78 -279 99.5 -303.5 Q 121 -328 150 -344.5 Q 179 -361 211 -370 Q 184 -379 160 -394 Q 136 -409 118.5 -430.5 Q 101 -452 92.5 -479 Q 84 -506 84 -534 Q 84 -554 89 -574.5 Q 94 -595 105 -612 Q 116 -629 132 -642 Q 148 -655 166 -665 L 64 -665 L 64 -735 L 436 -735 L 436 -665 L 343 -665 Q 322 -665 301 -663 Q 280 -661 260 -655 Q 240 -649 221 -638.5 Q 202 -628 188.5 -612 Q 175 -596 168.5 -576 Q 162 -556 162 -535 Q 162 -513 168.5 -493 Q 175 -473 189 -457 Q 203 -441 221.5 -430.5 Q 240 -420 260 -414.5 Q 280 -409 301 -406.5 Q 322 -404 343 -404 L 380 -404 L 380 -334 L 343 -334 Q 319 -334 294.5 -331.5 Q 270 -329 247 -322 Q 224 -315 202.5 -302.5 Q 181 -290 165.5 -272 Q 150 -254 142.5 -230 Q 135 -206 135 -182 Q 135 -160 143 -138.5 Q 151 -117 167.5 -102 Q 184 -87 205.5 -79.5 Q 227 -72 249.5 -70.5 Q 272 -69 294.5 -68.5 Q 317 -68 338.5 -61.5 Q 360 -55 379 -42.5 Q 398 -30 411.5 -12 Q 425 6 430.5 28 Q 436 50 436 72 Q 436 93 432 112.5 Q 428 132 417.5 149.5 Q 407 167 391.5 180 Q 376 193 357.5 201 Q 339 209 319 212 Q 299 215 279 215 Z " id="path1"/>
</defs>
<g>
<g data-source-text="ξ" fill="#20242e" transform="translate(40 104.99201) rotate(0) scale(0.09599999)">
<use href="#path1" transform="translate(0 0)"/>
</g>
</g>
</svg>