<?xml version="1.0" encoding="UTF-8" standalone="no"?>
<svg height="160" viewBox="0 0 128 160" width="128" xmlns="http://www.w3.org/2000/svg">
<defs>
<path d="M 211 215 L 211 6 Q 187 3 164 -5 Q 141 -13 120.5 -26.5 Q 100 -40 84.5 -59 Q 69 -78 59.5 -100.5 Q 50 -123 46.5 -147 Q 43 -171 43 -195 L 43 -325 Q 43 -349 46.5 -373 Q 50 -397 59.5 -419.5 Q 69 -442 84.5 -461 Q 100 -480 120.5 -493.5 Q 141 -507 164 -515 Q 187 -523 211 -526 L 211 -735 L 289 -735 L 289 -526 Q 313 -523 336 -515 Q 359 -507 379.5 -493.5 Q 400 -480 415.5 -461 Q 431 -442 440.5 -419.5 Q 450 -397 453.5 -373 Q 457 -349 457 -325 L 457 -195 Q 457 -171 453.5 -147 Q 450 -123 440.5 -100.5 Q 431 -78 415.5 -59 Q 400 -40 379.5 -26.5 Q 359 -13 336 -5 Q 313 3 289 6 L 289 215 Z M 214 -60 L 214 -460 Q 191 -455 171 -443 Q 151 -431 138 -412 Q 125 -393 120 -370.5 Q 115 -348 115 -325 L 115 -195 Q 115 -172 120 -149.5 Q 125 -127 138 -108 Q 151 -89 171 -77 Q 191 -65 214 -60 Z M 286 -60 Q 309 -65 329 -77 Q 349 -89 362 -108 Q 375 -127 380 -149.5 Q 385 -172 385 -195 L 385 -325 Q 385 -348 380 -370.5 Q 375 -393 362 -412 Q 349 -431 329 -443 Q 309 -455 286 -460 Z " id="path1"/>
</defs>
<g>
<g data-source-text="φ" fill="#20242e" transform="translate(40 104.99201) rotate(0) scale(0.09599999)">
<use href="#path1" transform="translate(0 0)"/>
</g>
</g>
</svg>