<?xml version="1.0" encoding="UTF-8" standalone="no"?>
<svg height="160" viewBox="0 0 128 160" width="128" xmlns="http://www.w3.org/2000/svg">
<defs>
<path d="M 281 8 Q 262 8 243.5 2.5 Q 225 -3 211.5 -15.5 Q 198 -28 192.5 -46.5 Q 187 -65 187 -83 L 187 -520 L 264 -520 L 264 -83 Q 264 -75 268 -67 Q 272 -59 281 -59 Q 283 -59 285.5 -59.5 Q 288 -60 290 -61 Q 291 -61 292 -61 Q 293 -61 293 -62 L 449 -190 L 497 -138 L 341 -10 Q 328 -0 312.5 4 Q 297 8 281 8 Z " id="path1"/>
</defs>
<g>
<g data-source-text="ι" fill="#20242e" transform="translate(40 104.99201) rotate(0) scale(0.09599999)">
<use href="#path1" transform="translate(0 0)"/>
</g>
</g>
</svg>