<?xml version="1.0" encoding="UTF-8" standalone="no"?>
<svg height="160" viewBox="0 0 128 160" width="128" xmlns="http://www.w3.org/2000/svg">
<defs>
<path d="M 250 8 Q 223 8 196 2.5 Q 169 -3 146 -16 Q 123 -29 104.5 -49.5 Q 86 -70 75 -94.5 Q 64 -119 60 -146 Q 56 -173 56 -200 L 56 -273 Q 56 -299 60 -325.5 Q 64 -352 75 -376.5 Q 86 -401 103.5 -421.5 Q 121 -442 144 -455.5 Q 167 -469 193.5 -474.5 Q 220 -480 247 -481 Q 223 -500 201 -521 Q 179 -542 158 -564 L 64 -665 L 64 -735 L 436 -735 L 436 -665 L 165 -665 L 215 -612 Q 240 -585 267 -559 Q 294 -533 321.5 -507.5 Q 349 -482 374.5 -454.5 Q 400 -427 417 -393.5 Q 434 -360 439 -322.5 Q 444 -285 444 -248 L 444 -200 Q 444 -173 440 -146 Q 436 -119 425 -94.5 Q 414 -70 395.5 -49.5 Q 377 -29 354 -16 Q 331 -3 304 2.5 Q 277 8 250 8 Z M 250 -62 Q 267 -62 284 -66.5 Q 301 -71 315 -80.5 Q 329 -90 340 -103.5 Q 351 -117 357 -133 Q 363 -149 364.5 -166 Q 366 -183 366 -200 L 366 -273 Q 366 -290 364 -307 Q 362 -324 356 -340 Q 350 -356 339.5 -369.5 Q 329 -383 315 -393 Q 301 -403 284 -406.5 Q 267 -410 250 -410 Q 233 -410 216 -406 Q 199 -402 185 -392.5 Q 171 -383 160.5 -369 Q 150 -355 144 -339.5 Q 138 -324 136 -307 Q 134 -290 134 -273 L 134 -200 Q 134 -183 136 -166 Q 138 -149 144 -133 Q 150 -117 160.5 -103 Q 171 -89 185 -79.5 Q 199 -70 216 -66 Q 233 -62 250 -62 Z " id="path1"/>
</defs>
<g>
<g data-source-text="δ" fill="#20242e" transform="translate(40 104.99201) rotate(0) scale(0.09599999)">
<use href="#path1" transform="translate(0 0)"/>
</g>
</g>
</svg>