<svg xmlns="http://www.w3.org/2000/svg" height="160" viewBox="0 0 128 160" width="128"><defs><path d="M 48 215 L 48 145 L 100.00001 145 C 114.666664 145 128.83334 142 142.5 136 C 156.16667 130 167.16667 120.99999 175.5 109 C 183.83333 97.00001 189.33333 83.666664 192 69 C 194.66667 54.333336 196 39.666668 196 25.000002 L 196 -540 C 196 -555.3333 196.83334 -570.6666 198.5 -586 C 200.16667 -601.3333 203 -616.5 207 -631.5 C 210.99998 -646.5 216.66667 -660.8333 224 -674.5 C 231.33334 -688.1666 240.5 -700.3334 251.50002 -711.00006 C 262.5 -721.6667 275.5 -729.6666 290.5 -735 C 305.5 -740.3333 320.6667 -743.00006 336.00003 -743.00006 C 350.6667 -743.00006 365.00003 -740.8333 379 -736.50006 C 393.00003 -732.1666 405.50003 -725.1667 416.50003 -715.50006 C 427.50003 -705.8333 436.66666 -694.6666 444.00003 -682 C 451.33334 -669.3333 457.1667 -656.1666 461.50003 -642.5 C 465.83337 -628.8334 469.1667 -614.6667 471.5 -600.00006 C 473.83334 -585.3333 475 -571 475.00003 -557 C 475 -556.3333 475 -555.8333 475.00003 -555.5 C 475 -555.1667 475 -555 475.00003 -555 L 397 -555 C 397 -555 397 -555.1667 397 -555.5 C 397 -555.8333 397 -556 397 -556 C 397 -564 396.66666 -572 396 -580 C 395.33334 -588 394.1667 -596 392.5 -604 C 390.8333 -612 388.66666 -619.8334 386 -627.50006 C 383.33334 -635.1667 379.83334 -642.5 375.5 -649.50006 C 371.1667 -656.5 365.49997 -662.1667 358.5 -666.50006 C 351.5 -670.8334 344.00003 -673.00006 336.00003 -673.00006 C 326.6667 -673.00006 318.33334 -670.1667 311.00003 -664.5 C 303.6667 -658.8333 297.83334 -652.1667 293.5 -644.50006 C 289.16666 -636.8333 285.8333 -628.6667 283.5 -620 C 281.1667 -611.3333 279.33334 -602.5 278 -593.50006 C 276.66666 -584.5 275.6667 -575.5 275 -566.5 C 274.3333 -557.5 274.00003 -548.6666 274.00003 -540 L 274.00003 25.000002 C 274.00003 41.666668 272.83334 58 270.5 74 C 268.16666 90 263.83334 105.50001 257.5 120.5 C 251.16667 135.5 242.50002 149.33333 231.50002 162 C 220.5 174.66664 207.99998 184.99998 194.00002 193 C 180 201 164.83333 206.66667 148.50002 210 C 132.16667 213.33333 116 215 100.00001 215 Z " id="path1"/></defs><g><g fill="#000000" transform="translate(40 105.20961) rotate(0)"><use href="#path1" transform="translate(0 0) scale(0.09599999)"/></g></g></svg>