<svg xmlns="http://www.w3.org/2000/svg" height="160" viewBox="0 0 128 160" width="128"><defs><path d="M 250 8 C 232 8 214 6.1666665 196 2.5000002 C 178.00002 -1.1666665 161.33334 -7.3333335 146 -16 C 130.66667 -24.666666 116.833336 -35.833332 104.50001 -49.5 C 92.16667 -63.16667 82.333336 -78.16667 75.00001 -94.50001 C 67.666664 -110.83333 62.666668 -127.99999 60.000004 -146 C 57.333332 -164 55.999996 -182 56 -200.00002 L 56 -273 C 55.999996 -290.33334 57.333332 -307.83334 60.000004 -325.50003 C 62.666668 -343.1667 67.666664 -360.16663 75.00001 -376.50003 C 82.333336 -392.8333 91.833336 -407.83334 103.5 -421.50003 C 115.166664 -435.1667 128.66666 -446.5 144.00002 -455.50003 C 159.33333 -464.5 175.83333 -470.83334 193.50002 -474.50003 C 211.16667 -478.1667 229.00002 -480.33334 247 -481 C 231 -493.66666 215.66666 -507 201 -521 C 186.33334 -535 172 -549.3334 158 -564 L 64 -665 L 64 -735 L 436 -735 L 436 -665 L 165 -665 L 215 -612 C 231.66667 -594 249 -576.3333 267 -559.00006 C 285 -541.6666 303.1667 -524.5 321.5 -507.50003 C 339.83334 -490.5 357.5 -472.83334 374.5 -454.5 C 391.5 -436.1667 405.50003 -415.8333 416.50003 -393.50003 C 427.50003 -371.1667 434.83334 -347.50003 438.50003 -322.50003 C 442.16666 -297.50003 444.00003 -272.6667 444.00003 -248.00002 L 444.00003 -200.00002 C 444.00003 -182 442.66666 -164 440.00003 -146 C 437.3333 -127.99999 432.3333 -110.83333 425 -94.50001 C 417.6667 -78.16667 407.83334 -63.16667 395.5 -49.5 C 383.1667 -35.833332 369.33334 -24.666666 354.00003 -16 C 338.6667 -7.3333335 322.00003 -1.1666665 304 2.5000002 C 286 6.1666665 268 8 250 8 Z M 250 -62.000004 C 261.33334 -62.000004 272.66666 -63.5 284 -66.5 C 295.3333 -69.5 305.66666 -74.166664 315 -80.50001 C 324.3333 -86.83334 332.66666 -94.5 340 -103.5 C 347.3333 -112.50001 353.00003 -122.33333 357 -133 C 361 -143.66667 363.5 -154.66667 364.50003 -166 C 365.50003 -177.33334 366.00003 -188.66667 366.00003 -200.00002 L 366.00003 -273 C 366.00003 -284.33334 365.33334 -295.66666 364 -307 C 362.66666 -318.3333 360 -329.3333 356 -340 C 352 -350.66666 346.5 -360.5 339.5 -369.5 C 332.5 -378.5 324.3333 -386.3333 315 -393.00003 C 305.66666 -399.66663 295.3333 -404.16666 284 -406.50003 C 272.66666 -408.83334 261.33334 -410.00003 250 -410.00003 C 238.66666 -410.00003 227.33333 -408.66672 216 -406.00003 C 204.66666 -403.33334 194.33333 -398.8333 185.00002 -392.5 C 175.66666 -386.16666 167.5 -378.33334 160.5 -369 C 153.5 -359.6667 148 -349.83334 144.00002 -339.5 C 140.00002 -329.16666 137.33334 -318.3333 136 -307 C 134.66667 -295.66666 134 -284.33334 134 -273 L 134 -200.00002 C 134 -188.66667 134.66667 -177.33334 136 -166 C 137.33334 -154.66667 140.00002 -143.66667 144.00002 -133 C 148 -122.33333 153.5 -112.33334 160.5 -103.00001 C 167.5 -93.666664 175.66666 -85.833336 185.00002 -79.5 C 194.33333 -73.16667 204.66666 -68.66667 216 -66 C 227.33333 -63.333336 238.66666 -62.000004 250 -62.000004 Z " id="path1"/></defs><g><g fill="#ffffff" transform="translate(40 105.20961) rotate(0)"><use href="#path1" transform="translate(0 0) scale(0.09599999)"/></g></g></svg>