<?xml version="1.0" encoding="UTF-8" standalone="no"?>
<svg height="160" viewBox="0 0 128 160" width="128" xmlns="http://www.w3.org/2000/svg">
<defs>
<path d="M 64 215 L 64 -450 L 18 -450 L 18 -520 L 142 -520 L 142 -200 Q 142 -183 144 -166 Q 146 -149 152.5 -132.5 Q 159 -116 169.5 -102.5 Q 180 -89 194.5 -79.5 Q 209 -70 226 -66 Q 243 -62 260 -62 Q 286 -62 311 -68 Q 336 -74 358 -86 L 358 -450 L 312 -450 L 312 -520 L 436 -520 L 436 -49 Q 398 -22 352.5 -7 Q 307 8 260 8 Q 228 8 196 0 Q 164 -8 138 -27 Q 140 7 141 40.5 Q 142 74 142 108 L 142 215 Z " id="path1"/>
</defs>
<g>
<g data-source-text="μ" fill="#20242e" transform="translate(40 104.99201) rotate(0) scale(0.09599999)">
<use href="#path1" transform="translate(0 0)"/>
</g>
</g>
</svg>