<?xml version="1.0" encoding="UTF-8" standalone="no"?>
<svg height="160" viewBox="0 0 128 160" width="128" xmlns="http://www.w3.org/2000/svg">
<defs>
<path d="M 537 -170 L 463 -170 L 463 -749 L 537 -749 Z M 500 77 Q 486 77 473 73 Q 460 69 450.5 59.5 Q 441 50 437 36.5 Q 433 23 433 10 Q 433 -4 437 -17 Q 441 -30 450.5 -39.5 Q 460 -49 473 -53 Q 486 -57 500 -57 Q 514 -57 527 -53 Q 540 -49 549.5 -39.5 Q 559 -30 563 -17 Q 567 -4 567 10 Q 567 23 563 36.5 Q 559 50 549.5 59.5 Q 540 69 527 73 Q 514 77 500 77 Z " id="path1"/>
<path d="M -436 -396 L -436 -463 L 436 -463 L 436 -396 L 30 -396 L 30 -429 L -30 -429 L -30 -396 Z M 436 -217 L -436 -217 L -436 -284 L -30 -284 L -30 -251 L 30 -251 L 30 -284 L 436 -284 Z " id="path2"/>
</defs>
<g>
<g data-source-text="!=" fill="#dee4e3" transform="translate(16 104.99201) rotate(0) scale(0.09599999)">
<use href="#path1" transform="translate(0 0)"/>
<use href="#path2" transform="translate(500 0)"/>
</g>
</g>
</svg>