<?xml version="1.0" encoding="UTF-8" standalone="no"?>
<svg height="160" viewBox="0 0 128 160" width="128" xmlns="http://www.w3.org/2000/svg">
<defs>
<path d="M 196 215 L 196 0 Q 196 -59 185.5 -117 Q 175 -175 158.5 -231.5 Q 142 -288 120.5 -342.5 Q 99 -397 73 -450 L 18 -450 L 18 -520 L 122 -520 Q 147 -475 167.5 -428 Q 188 -381 205.5 -333 Q 223 -285 237 -235.5 Q 251 -186 260 -135 Q 272 -162 283 -189 Q 294 -216 304 -243 Q 314 -270 323.5 -297.5 Q 333 -325 340.5 -353.5 Q 348 -382 353 -410.5 Q 358 -439 358 -468 L 358 -520 L 436 -520 L 436 -468 Q 436 -426 426.5 -385.5 Q 417 -345 404 -305.5 Q 391 -266 376 -227.5 Q 361 -189 344.5 -150.5 Q 328 -112 310 -74.5 Q 292 -37 274 0 L 274 215 Z " id="path1"/>
</defs>
<g>
<g data-source-text="γ" fill="#20242e" transform="translate(40 104.99201) rotate(0) scale(0.09599999)">
<use href="#path1" transform="translate(0 0)"/>
</g>
</g>
</svg>