<?xml version="1.0" encoding="UTF-8" standalone="no"?>
<svg height="160" viewBox="0 0 128 160" width="128" xmlns="http://www.w3.org/2000/svg">
<defs>
<path d="M 48 215 L 210 -153 L 149 -341 Q 145 -353 141.5 -365.5 Q 138 -378 134.5 -390 Q 131 -402 125.5 -414 Q 120 -426 111 -434.5 Q 102 -443 89.5 -446.5 Q 77 -450 64 -450 L 64 -520 Q 85 -520 105.5 -517 Q 126 -514 143.5 -503.5 Q 161 -493 173 -475.5 Q 185 -458 194 -439.5 Q 203 -421 210 -401.5 Q 217 -382 223 -362 L 256 -261 L 367 -520 L 452 -520 L 290 -152 L 351 36 Q 355 48 358.5 60.5 Q 362 73 365.5 85 Q 369 97 374.5 109 Q 380 121 389 129.5 Q 398 138 410.5 141.5 Q 423 145 436 145 L 436 215 Q 415 215 394.5 212 Q 374 209 356.5 198.5 Q 339 188 327 170.5 Q 315 153 306 134.5 Q 297 116 290 96.5 Q 283 77 277 57 L 244 -44 L 133 215 Z " id="path1"/>
</defs>
<g>
<g data-source-text="χ" fill="#dee4e3" transform="translate(40 104.99201) rotate(0) scale(0.09599999)">
<use href="#path1" transform="translate(0 0)"/>
</g>
</g>
</svg>