<?xml version="1.0" encoding="UTF-8" standalone="no"?>
<svg height="160" viewBox="0 0 128 160" width="128" xmlns="http://www.w3.org/2000/svg">
<defs>
<path d="M 250 8 Q 233 8 217 6 Q 201 4 185 -0.5 Q 169 -5 154.5 -13 Q 140 -21 127.5 -31.5 Q 115 -42 104.5 -55 Q 94 -68 86 -82.5 Q 78 -97 72.5 -112 Q 67 -127 63.5 -143 Q 60 -159 58 -178 Q 56 -197 56 -209 L 56 -223 Q 56 -238 57 -253 Q 58 -268 60 -283 Q 62 -298 65.5 -313 Q 69 -328 74.5 -342 Q 80 -356 87 -369.5 Q 94 -383 103 -395 Q 112 -407 123.5 -416.5 Q 135 -426 148.5 -433 Q 162 -440 179 -444.5 Q 196 -449 207 -449 L 220 -449 Q 231 -449 243 -447.5 Q 255 -446 266 -443 Q 277 -440 287 -435 Q 297 -430 306.5 -423.5 Q 316 -417 325.5 -407.5 Q 335 -398 339 -391 L 344 -383 Q 340 -394 335 -405.5 Q 330 -417 324.5 -428 Q 319 -439 312.5 -450.5 Q 306 -462 299 -474.5 Q 292 -487 286.5 -497 Q 281 -507 278 -515 L 273 -522 L 111 -478 L 92 -540 L 243 -582 L 166 -735 L 252 -735 L 318 -602 L 408 -626 L 427 -564 L 349 -543 Q 354 -532 360.5 -519 Q 367 -506 371 -499 L 376 -489 L 377 -489 Q 382 -480 386.5 -471.5 Q 391 -463 395.5 -454 Q 400 -445 404.5 -436 Q 409 -427 413 -418 Q 417 -409 420.5 -400 Q 424 -391 427 -381.5 Q 430 -372 432.5 -362 Q 435 -352 436.5 -342.5 Q 438 -333 439.5 -323 Q 441 -313 442 -301 Q 443 -289 443.5 -280 Q 444 -271 444 -264 L 444 -221 Q 444 -204 443 -188 Q 442 -172 439 -156 Q 436 -140 431 -124 Q 426 -108 419 -93.5 Q 412 -79 403 -65 Q 394 -51 382.5 -40 Q 371 -29 357 -20 Q 343 -11 328 -5 Q 313 1 294 4.5 Q 275 8 264 8 Z M 241 -62 L 250 -62 Q 261 -62 271.5 -63.5 Q 282 -65 292 -69 Q 302 -73 311 -79 Q 320 -85 327 -92.5 Q 334 -100 340 -109 Q 346 -118 350 -128 Q 354 -138 357 -148 Q 360 -158 362 -168.5 Q 364 -179 365 -191.5 Q 366 -204 366 -211 L 366 -220 Q 366 -231 365.5 -241.5 Q 365 -252 363.5 -262.5 Q 362 -273 359.5 -283.5 Q 357 -294 353.5 -304 Q 350 -314 345 -323.5 Q 340 -333 333 -341.5 Q 326 -350 318 -356.5 Q 310 -363 300.5 -368 Q 291 -373 279 -376 Q 267 -379 260 -379 L 250 -379 Q 239 -379 228.5 -377.5 Q 218 -376 208 -372 Q 198 -368 189 -362 Q 180 -356 173 -348.5 Q 166 -341 160 -332 Q 154 -323 150 -313 Q 146 -303 143 -293 Q 140 -283 138 -272.5 Q 136 -262 135 -249.5 Q 134 -237 134 -230 L 134 -221 Q 134 -210 134.5 -199.5 Q 135 -189 136.5 -178.5 Q 138 -168 140.5 -157.5 Q 143 -147 146.5 -137 Q 150 -127 155 -117.5 Q 160 -108 167 -99.5 Q 174 -91 182 -84.5 Q 190 -78 199.5 -73 Q 209 -68 221 -65 Q 233 -62 241 -62 Z " id="path1"/>
</defs>
<g>
<g data-source-text="รฐ" fill="#20242e" transform="translate(40 104.99201) rotate(0) scale(0.09599999)">
<use href="#path1" transform="translate(0 0)"/>
</g>
</g>
</svg>