<svg xmlns="http://www.w3.org/2000/svg" height="160" viewBox="0 0 128 160" width="128"><defs><path d="M 219.00002 8 C 202.33334 8 185.83334 5.6666665 169.5 1 C 153.16667 -3.6666665 138.33333 -11 125 -21.000002 C 111.666664 -31 100.5 -43.000004 91.50001 -57.000004 C 82.5 -71 75.333336 -85.833336 70.00001 -101.50001 C 64.66667 -117.166664 61 -133.33333 59.000004 -150.00002 C 56.999996 -166.66666 55.999996 -183.33333 56 -200.00002 L 56 -320.00003 C 55.999996 -336.6667 56.999996 -353.3333 59.000004 -370.00003 C 61 -386.66672 64.66667 -402.83334 70.00001 -418.5 C 75.333336 -434.1667 82.5 -449 91.50001 -463.00003 C 100.5 -477 111.666664 -489.00003 125 -499 C 138.33333 -509 153.16667 -516.3334 169.5 -521 C 185.83334 -525.6666 202.33334 -528 219.00002 -528 C 234.33333 -528 249.5 -525.99994 264.5 -522 C 279.5 -518 293.16666 -511.50003 305.50003 -502.50003 C 317.83334 -493.5 328.33334 -482.5 337.00003 -469.5 C 345.66666 -456.5 352.66666 -443 358 -429.00003 L 358 -520.00006 L 436 -520.00006 L 436 -93.00001 C 435.99997 -89.00001 436.66666 -85 438.00003 -81 C 439.33337 -77 441.50003 -73.5 444.50003 -70.5 C 447.5 -67.5 451 -65.33333 455.00003 -64 C 459 -62.666668 463 -62.000004 467.00003 -62.000004 L 482 -62.000004 L 482 8 L 467.00003 8 C 453 8 439.1667 6.1666665 425.5 2.5000002 C 411.83334 -1.1666665 399.6667 -7.5 389.00003 -16.5 C 378.33334 -25.5 370.50003 -36.666668 365.50003 -50.000004 C 360.50003 -63.333336 358 -77.00001 358 -91 C 352.66666 -77.00001 345.66666 -63.500004 337.00003 -50.500004 C 328.33334 -37.5 317.83334 -26.500002 305.50003 -17.500002 C 293.16666 -8.500001 279.5 -1.9999998 264.5 2 C 249.5 6 234.33333 8 219.00002 8 Z M 249 -62.000004 C 260.3333 -62.000004 271.5 -63.333336 282.50003 -66 C 293.5 -68.66667 303.33334 -73.333336 312 -80.00001 C 320.6667 -86.666664 328.1667 -94.833336 334.5 -104.50001 C 340.83334 -114.166664 345.6667 -124.166664 349.00003 -134.5 C 352.33334 -144.83333 354.6667 -155.5 356 -166.5 C 357.33334 -177.50002 358 -188.66667 358 -200.00002 L 358 -320.00003 C 358 -331.33334 357.33334 -342.49997 356 -353.50003 C 354.6667 -364.49997 352.33334 -375.16666 349.00003 -385.5 C 345.6667 -395.83334 340.83334 -405.83334 334.5 -415.50003 C 328.1667 -425.16666 320.6667 -433.33334 312 -440.00003 C 303.33334 -446.6667 293.5 -451.33334 282.50003 -454 C 271.5 -456.66666 260.3333 -457.99997 249 -458 C 237.66666 -457.99997 226.5 -456.66666 215.5 -454 C 204.5 -451.33334 194.33333 -446.83334 185.00002 -440.50003 C 175.66666 -434.1667 167.5 -426.3333 160.5 -417.00003 C 153.5 -407.66666 148 -397.66666 144.00002 -387.00003 C 140.00002 -376.3333 137.33334 -365.33334 136 -354.00003 C 134.66667 -342.6667 134 -331.33334 134 -320.00003 L 134 -200.00002 C 134 -188.66667 134.66667 -177.33334 136 -166 C 137.33334 -154.66667 140.00002 -143.66667 144.00002 -133 C 148 -122.33333 153.5 -112.33334 160.5 -103.00001 C 167.5 -93.666664 175.66666 -85.833336 185.00002 -79.5 C 194.33333 -73.16667 204.5 -68.66667 215.5 -66 C 226.5 -63.333336 237.66666 -62.000004 249 -62.000004 Z " id="path1"/></defs><g><g fill="#000000" transform="translate(40 105.20961) rotate(0)"><use href="#path1" transform="translate(0 0) scale(0.09599999)"/></g></g></svg>