<?xml version="1.0" encoding="UTF-8" standalone="no"?>
<svg height="160" viewBox="0 0 128 160" width="128" xmlns="http://www.w3.org/2000/svg">
<defs>
<path d="M 281 7 Q 262 7 243.5 1.5 Q 225 -4 211.5 -17.5 Q 198 -31 192.5 -49 Q 187 -67 187 -86 L 187 -735 L 264 -735 L 264 -86 Q 264 -78 268 -69.5 Q 272 -61 281 -61 Q 283 -61 286 -62 Q 289 -63 291 -65 L 432 -183 L 480 -132 L 339 -13 Q 327 -3 311.5 2 Q 296 7 281 7 Z " id="path1"/>
</defs>
<g data-source-text="l" fill="#20242e" transform="translate(40 104.99201) rotate(0) scale(0.09599999)">
<use href="#path1" transform="translate(0 0)"/>
</g>
</svg>