<?xml version="1.0" encoding="UTF-8" standalone="no"?>
<svg height="160" viewBox="0 0 128 160" width="128" xmlns="http://www.w3.org/2000/svg">
<defs>
<path d="M 476 8 L 476 -62 Q 465 -62 453.5 -64.5 Q 442 -67 433 -74.5 Q 424 -82 418 -92 Q 412 -102 407.5 -112.5 Q 403 -123 400.5 -134.5 Q 398 -146 395.5 -157.5 Q 393 -169 390.5 -180 Q 388 -191 384 -202 L 262 -633 Q 255 -656 245 -677.5 Q 235 -699 216.5 -713 Q 198 -727 175 -731 Q 152 -735 129 -735 L 76 -735 L 76 -665 L 129 -665 Q 139 -665 150 -662.5 Q 161 -660 168.5 -652.5 Q 176 -645 180 -635 Q 184 -625 187 -614 L 210 -533 L 51 0 L 132 0 L 249 -409 L 310 -184 Q 316 -161 320 -137.5 Q 324 -114 333 -92 Q 342 -70 355 -50 Q 368 -30 387 -16 Q 406 -2 429.5 3 Q 453 8 476 8 Z " id="path1"/>
</defs>
<g>
<g data-source-text="λ" fill="#dee4e3" transform="translate(40 104.99201) rotate(0) scale(0.09599999)">
<use href="#path1" transform="translate(0 0)"/>
</g>
</g>
</svg>