<?xml version="1.0" encoding="UTF-8" standalone="no"?>
<svg height="160" viewBox="0 0 128 160" width="128" xmlns="http://www.w3.org/2000/svg">
<defs>
<path d="M 63 215 L 63 145 L 115 145 Q 137 145 157.5 136 Q 178 127 190 109 Q 202 91 206.5 69 Q 211 47 211 25 L 211 -545 Q 211 -570 214.5 -594 Q 218 -618 228 -640.5 Q 238 -663 254 -682 Q 270 -701 291 -713 Q 312 -725 336.5 -730 Q 361 -735 385 -735 L 438 -735 L 438 -665 L 385 -665 Q 363 -665 342.5 -656 Q 322 -647 310 -629 Q 298 -611 293.5 -589 Q 289 -567 289 -545 L 289 25 Q 289 50 285.5 74 Q 282 98 272 120.5 Q 262 143 246 162 Q 230 181 209 193 Q 188 205 163.5 210 Q 139 215 115 215 Z " id="path1"/>
</defs>
<g>
<g data-source-text="ſ" fill="#20242e" transform="translate(40 104.99201) rotate(0) scale(0.09599999)">
<use href="#path1" transform="translate(0 0)"/>
</g>
</g>
</svg>