<?xml version="1.0" encoding="UTF-8" standalone="no"?>
<svg height="160" viewBox="0 0 128 160" width="128" xmlns="http://www.w3.org/2000/svg">
<defs>
<path d="M 188 215 L 18 215 L 18 145 L 64 145 Q 65 122 71 99.5 Q 77 77 86 55.5 Q 95 34 106 13.5 Q 117 -7 129 -26 L 206 -153 L 129 -279 Q 117 -298 106 -318.5 Q 95 -339 86 -360.5 Q 77 -382 71 -404.5 Q 65 -427 64 -450 L 18 -450 L 18 -520 L 142 -520 L 142 -453 Q 142 -435 147 -416.5 Q 152 -398 159.5 -381 Q 167 -364 176 -347.5 Q 185 -331 195 -315 L 250 -225 L 305 -315 Q 315 -331 323.5 -347 Q 332 -363 339.5 -379.5 Q 347 -396 352.5 -414 Q 358 -432 358 -450 L 312 -450 L 312 -520 L 482 -520 L 482 -450 L 436 -450 Q 435 -427 429 -404.5 Q 423 -382 414 -360.5 Q 405 -339 394 -318.5 Q 383 -298 371 -279 L 294 -153 L 371 -26 Q 383 -7 394 13.5 Q 405 34 414 55.5 Q 423 77 429 99.5 Q 435 122 436 145 L 482 145 L 482 215 L 358 215 L 358 148 Q 358 130 353 111.5 Q 348 93 340.5 76 Q 333 59 324 42.5 Q 315 26 305 10 L 250 -80 L 195 10 Q 185 26 176.5 42 Q 168 58 160.5 74.5 Q 153 91 147.5 109 Q 142 127 142 145 L 188 145 Z " id="path1"/>
</defs>
<g>
<g data-source-text="χ" fill="#dee4e3" transform="translate(40 104.99201) rotate(0) scale(0.09599999)">
<use href="#path1" transform="translate(0 0)"/>
</g>
</g>
</svg>