<?xml version="1.0" encoding="UTF-8" standalone="no"?>
<svg height="160" viewBox="0 0 128 160" width="128" xmlns="http://www.w3.org/2000/svg">
<defs>
<path d="M 196 215 L 196 0 Q 196 -44 188.5 -87 Q 181 -130 170 -172 Q 159 -214 144 -255 Q 129 -296 111 -336 Q 93 -376 73 -415 Q 53 -454 30 -490 L 95 -528 Q 124 -483 148.5 -435 Q 173 -387 194 -337 Q 215 -287 231.5 -236 Q 248 -185 259 -132 Q 271 -159 282 -186 Q 293 -213 303.5 -240.5 Q 314 -268 323 -296 Q 332 -324 339.5 -352.5 Q 347 -381 352.5 -410 Q 358 -439 358 -468 L 358 -520 L 436 -520 L 436 -468 Q 436 -426 426.5 -385.5 Q 417 -345 404 -305.5 Q 391 -266 376 -227.5 Q 361 -189 344.5 -150.5 Q 328 -112 310 -74.5 Q 292 -37 274 0 L 274 215 Z " id="path1"/>
</defs>
<g>
<g data-source-text="γ" fill="#20242e" transform="translate(40 104.99201) rotate(0) scale(0.09599999)">
<use href="#path1" transform="translate(0 0)"/>
</g>
</g>
</svg>