<?xml version="1.0" encoding="UTF-8" standalone="no"?>
<svg height="160" viewBox="0 0 128 160" width="128" xmlns="http://www.w3.org/2000/svg">
<defs>
<path d="M 195 223 Q 179 223 163 219 Q 147 215 135 205 L -29 70 L 18 18 L 182 153 Q 185 155 188.5 155.5 Q 192 156 195 156 Q 203 156 207 148 Q 211 140 211 132 L 211 -450 L 129 -450 L 129 -520 L 211 -520 L 211 -531 Q 211 -558 215 -584 Q 219 -610 229.5 -634 Q 240 -658 257.5 -678.5 Q 275 -699 298 -712 Q 321 -725 347 -730 Q 373 -735 399 -735 L 438 -735 L 438 -665 L 399 -665 Q 383 -665 367 -661 Q 351 -657 337 -648 Q 323 -639 313.5 -625 Q 304 -611 298.5 -595.5 Q 293 -580 291 -564 Q 289 -548 289 -531 L 289 132 Q 289 150 283 168.5 Q 277 187 263.5 199.5 Q 250 212 232 217.5 Q 214 223 195 223 Z " id="path1"/>
</defs>
<g>
<g data-source-text="ſ" fill="#20242e" transform="translate(40 104.99201) rotate(0) scale(0.09599999)">
<use href="#path1" transform="translate(0 0)"/>
</g>
</g>
</svg>