<?xml version="1.0" encoding="UTF-8" standalone="no"?>
<svg height="160" viewBox="0 0 128 160" width="128" xmlns="http://www.w3.org/2000/svg">
<defs>
<path d="M 333 8 Q 312 8 291.5 3 Q 271 -2 253.5 -13.5 Q 236 -25 223 -42 Q 210 -59 202.5 -78.5 Q 195 -98 192.5 -118.5 Q 190 -139 190 -160 L 190 -665 L 54 -665 L 54 -735 L 268 -735 L 268 -160 Q 268 -143 270.5 -126.5 Q 273 -110 280.5 -95.5 Q 288 -81 302 -71.5 Q 316 -62 333 -62 Q 344 -62 354.5 -66.5 Q 365 -71 372.5 -79 Q 380 -87 384.5 -97.5 Q 389 -108 392 -119 Q 395 -130 396.5 -141 Q 398 -152 398 -163 L 398 -169 L 475 -169 L 475 -160 Q 475 -139 471.5 -118.5 Q 468 -98 460.5 -78.5 Q 453 -59 440.5 -42 Q 428 -25 411 -13.5 Q 394 -2 373.5 3 Q 353 8 333 8 Z " id="path1"/>
</defs>
<g>
<g data-source-text="l" fill="#dee4e3" transform="translate(40 104.99201) rotate(0) scale(0.09599999)">
<use href="#path1" transform="translate(0 0)"/>
</g>
</g>
</svg>