<?xml version="1.0" encoding="UTF-8" standalone="no"?>
<svg height="160" viewBox="0 0 128 160" width="128" xmlns="http://www.w3.org/2000/svg">
<defs>
<path d="M 199 0 Q 199 -33 191 -65 Q 183 -97 174 -129 Q 165 -161 154.5 -192 Q 144 -223 132.5 -254 Q 121 -285 109 -315.5 Q 97 -346 84 -376 Q 71 -406 56.5 -436 Q 42 -466 27 -495 L 95 -528 Q 121 -481 143 -432 Q 165 -383 184.5 -333 Q 204 -283 222 -232.5 Q 240 -182 254 -130 Q 266 -157 278 -184.5 Q 290 -212 300.5 -239.5 Q 311 -267 321 -295 Q 331 -323 339 -351.5 Q 347 -380 352.5 -409 Q 358 -438 358 -468 L 358 -520 L 436 -520 L 436 -468 Q 436 -427 426.5 -386 Q 417 -345 404.5 -305.5 Q 392 -266 377 -227.5 Q 362 -189 345.5 -151 Q 329 -113 312 -75 Q 295 -37 276 0 Z " id="path1"/>
</defs>
<g>
<g data-source-text="ν" fill="#20242e" transform="translate(40 104.99201) rotate(0) scale(0.09599999)">
<use href="#path1" transform="translate(0 0)"/>
</g>
</g>
</svg>