<?xml version="1.0" encoding="UTF-8" standalone="no"?>
<svg height="160" viewBox="0 0 128 160" width="128" xmlns="http://www.w3.org/2000/svg">
<defs>
<path d="M 64 215 L 64 -450 L 18 -450 L 18 -520 L 142 -520 L 142 -200 Q 142 -183 144 -166.5 Q 146 -150 151 -134.5 Q 156 -119 165.5 -105 Q 175 -91 188 -81 Q 201 -71 217 -66.5 Q 233 -62 250 -62 Q 267 -62 283 -66.5 Q 299 -71 312 -81 Q 325 -91 334.5 -105 Q 344 -119 349 -134.5 Q 354 -150 356 -166.5 Q 358 -183 358 -200 L 358 -520 L 436 -520 L 436 -200 Q 436 -174 432 -147.5 Q 428 -121 418 -96.5 Q 408 -72 391 -51.5 Q 374 -31 351.5 -17 Q 329 -3 302.5 2.5 Q 276 8 250 8 Q 220 8 191 0.5 Q 162 -7 138 -24 Q 140 9 141 42 Q 142 75 142 108 L 142 215 Z " id="path1"/>
</defs>
<g>
<g data-source-text="μ" fill="#20242e" transform="translate(40 104.99201) rotate(0) scale(0.09599999)">
<use href="#path1" transform="translate(0 0)"/>
</g>
</g>
</svg>