<?xml version="1.0" encoding="UTF-8" standalone="no"?>
<svg height="160" viewBox="0 0 128 160" width="128" xmlns="http://www.w3.org/2000/svg">
<defs>
<path d="M 64 215 L 64 178 Q 64 153 70 128.5 Q 76 104 85 80.5 Q 94 57 105 34 Q 116 11 128 -11 L 208 -156 L 149 -341 Q 145 -353 141.5 -365.5 Q 138 -378 134.5 -390 Q 131 -402 125.5 -414 Q 120 -426 111 -435 Q 102 -444 89.5 -447 Q 77 -450 64 -450 L 64 -520 Q 85 -520 105.5 -517 Q 126 -514 143.5 -503.5 Q 161 -493 173 -475.5 Q 185 -458 194 -439.5 Q 203 -421 210 -401.5 Q 217 -382 223 -362 L 260 -248 L 304 -328 Q 314 -346 323.5 -364.5 Q 333 -383 340.5 -402.5 Q 348 -422 353 -442.5 Q 358 -463 358 -483 L 358 -520 L 436 -520 L 436 -483 Q 436 -458 430 -433.5 Q 424 -409 415 -385.5 Q 406 -362 395 -339 Q 384 -316 372 -294 L 292 -149 L 351 36 Q 355 48 358.5 60.5 Q 362 73 365.5 85 Q 369 97 374.5 109 Q 380 121 389 130 Q 398 139 410.5 142 Q 423 145 436 145 L 436 215 Q 415 215 394.5 212 Q 374 209 356.5 198.5 Q 339 188 327 170.5 Q 315 153 306 134.5 Q 297 116 290 96.5 Q 283 77 277 57 L 240 -57 L 196 23 Q 186 41 176.5 59.5 Q 167 78 159.5 97.5 Q 152 117 147 137.5 Q 142 158 142 178 L 142 215 Z " id="path1"/>
</defs>
<g>
<g data-source-text="χ" fill="#20242e" transform="translate(40 104.99201) rotate(0) scale(0.09599999)">
<use href="#path1" transform="translate(0 0)"/>
</g>
</g>
</svg>