<?xml version="1.0" encoding="UTF-8" standalone="no"?>
<svg height="160" viewBox="0 0 128 160" width="128" xmlns="http://www.w3.org/2000/svg">
<defs>
<path d="M 333 8 Q 312 8 291.5 3 Q 271 -2 253.5 -13.5 Q 236 -25 223.5 -42 Q 211 -59 203 -78.5 Q 195 -98 192.5 -118.5 Q 190 -139 190 -160 L 190 -450 L 64 -450 L 64 -520 L 436 -520 L 436 -450 L 268 -450 L 268 -160 Q 268 -143 270.5 -126.5 Q 273 -110 280.5 -95.5 Q 288 -81 302 -71.5 Q 316 -62 333 -62 Q 349 -62 362.5 -71 Q 376 -80 384 -93.5 Q 392 -107 395 -123 Q 398 -139 398 -155 L 398 -157 L 475 -155 L 475 -151 Q 475 -131 471.5 -111 Q 468 -91 460 -72.5 Q 452 -54 439 -38 Q 426 -22 409 -11.5 Q 392 -1 372.5 3.5 Q 353 8 333 8 Z " id="path1"/>
</defs>
<g>
<g data-source-text="τ" fill="#20242e" transform="translate(40 104.99201) rotate(0) scale(0.09599999)">
<use href="#path1" transform="translate(0 0)"/>
</g>
</g>
</svg>