<?xml version="1.0" encoding="UTF-8" standalone="no"?>
<svg height="160" viewBox="0 0 128 160" width="128" xmlns="http://www.w3.org/2000/svg">
<defs>
<path d="M 258 8 Q 232 8 207 4 Q 182 0 159 -10.5 Q 136 -21 117 -38.5 Q 98 -56 86 -78 Q 74 -100 69 -125 Q 64 -150 64 -176 L 64 -560 Q 64 -584 68 -608 Q 72 -632 83 -654 Q 94 -676 111 -694 Q 128 -712 150 -723 Q 172 -734 196 -738.5 Q 220 -743 245 -743 Q 270 -743 295.5 -737.5 Q 321 -732 343 -719 Q 365 -706 381.5 -686.5 Q 398 -667 408 -643.5 Q 418 -620 422 -594.5 Q 426 -569 426 -544 Q 426 -519 421.5 -494.5 Q 417 -470 405.5 -448.5 Q 394 -427 375.5 -410 Q 357 -393 335 -383 Q 362 -373 385.5 -355.5 Q 409 -338 424.5 -314 Q 440 -290 446 -261.5 Q 452 -233 452 -204 Q 452 -177 447.5 -150 Q 443 -123 432 -98 Q 421 -73 403.5 -52 Q 386 -31 362.5 -17 Q 339 -3 312 2.5 Q 285 8 258 8 Z M 258 -62 Q 275 -62 292 -66.5 Q 309 -71 323.5 -81 Q 338 -91 348 -105.5 Q 358 -120 364 -136.5 Q 370 -153 372 -170 Q 374 -187 374 -205 Q 374 -224 371 -243 Q 368 -262 359.5 -278.5 Q 351 -295 337.5 -309 Q 324 -323 306.5 -331 Q 289 -339 270.5 -342.5 Q 252 -346 233 -346 L 199 -346 L 199 -416 L 233 -416 Q 249 -416 265 -419 Q 281 -422 295 -430.5 Q 309 -439 320 -451.5 Q 331 -464 337.5 -479 Q 344 -494 346 -510 Q 348 -526 348 -543 Q 348 -558 346 -574 Q 344 -590 339 -604.5 Q 334 -619 325 -632.5 Q 316 -646 303.5 -655.5 Q 291 -665 276 -669 Q 261 -673 245 -673 Q 223 -673 202 -665.5 Q 181 -658 167 -641 Q 153 -624 147.5 -602.5 Q 142 -581 142 -560 L 142 -176 Q 142 -152 149 -129.5 Q 156 -107 172.5 -91 Q 189 -75 212 -68.5 Q 235 -62 258 -62 Z " id="path1"/>
</defs>
<g>
<g data-source-text="β" fill="#20242e" transform="translate(40 104.99201) rotate(0) scale(0.09599999)">
<use href="#path1" transform="translate(0 0)"/>
</g>
</g>
</svg>