<?xml version="1.0" encoding="UTF-8" standalone="no"?>
<svg height="160" viewBox="0 0 128 160" width="128" xmlns="http://www.w3.org/2000/svg">
<defs>
<path d="M 195 223 Q 179 223 163 219 Q 147 215 135 205 L -21 77 L 26 25 L 182 153 Q 183 154 184 154 L 185 154 Q 188 155 190 155.5 Q 192 156 195 156 Q 203 156 207 148 Q 211 140 211 132 L 211 -545 Q 211 -570 214.5 -594 Q 218 -618 228 -640.5 Q 238 -663 254 -682 Q 270 -701 291 -713 Q 312 -725 336.5 -730 Q 361 -735 385 -735 L 438 -735 L 438 -665 L 385 -665 Q 363 -665 342.5 -656 Q 322 -647 310 -629 Q 298 -611 293.5 -589 Q 289 -567 289 -545 L 289 132 Q 289 150 283 168.5 Q 277 187 263.5 199.5 Q 250 212 232 217.5 Q 214 223 195 223 Z " id="path1"/>
</defs>
<g>
<g data-source-text="ſ" fill="#20242e" transform="translate(40 104.99201) rotate(0) scale(0.09599999)">
<use href="#path1" transform="translate(0 0)"/>
</g>
</g>
</svg>