<?xml version="1.0" encoding="UTF-8" standalone="no"?>
<svg height="160" viewBox="0 0 128 160" width="128" xmlns="http://www.w3.org/2000/svg">
<defs>
<path d="M 281 8 Q 262 8 244 3.5 Q 226 -1 212.5 -13 Q 199 -25 193 -43 Q 187 -61 187 -79 L 187 -450 L 64 -450 L 64 -520 L 436 -520 L 436 -450 L 264 -450 L 264 -79 Q 264 -71 268 -63 Q 272 -55 281 -55 Q 284 -55 287.5 -55 Q 291 -55 293 -57 L 457 -192 L 502 -144 L 337 -9 Q 326 1 311 4.5 Q 296 8 281 8 Z " id="path1"/>
</defs>
<g>
<g data-source-text="τ" fill="#20242e" transform="translate(40 104.99201) rotate(0) scale(0.09599999)">
<use href="#path1" transform="translate(0 0)"/>
</g>
</g>
</svg>