<?xml version="1.0" encoding="UTF-8" standalone="no"?>
<svg height="160" viewBox="0 0 128 160" width="128" xmlns="http://www.w3.org/2000/svg">
<defs>
<path d="M 64 215 L 64 178 Q 64 155 69.5 131.5 Q 75 108 83 86 Q 91 64 101 42.5 Q 111 21 122 0 L 122 -1 Q 124 -3 125 -5.5 Q 126 -8 128 -11 L 208 -156 L 149 -341 Q 145 -353 141.5 -365.5 Q 138 -378 134.5 -390 Q 131 -402 125.5 -414 Q 120 -426 111 -434.5 Q 102 -443 89.5 -446.5 Q 77 -450 64 -450 L 64 -520 Q 85 -520 105.5 -517 Q 126 -514 143.5 -503.5 Q 161 -493 173 -475.5 Q 185 -458 194 -439.5 Q 203 -421 210 -401.5 Q 217 -382 223 -362 L 260 -248 L 304 -328 Q 314 -346 323.5 -364.5 Q 333 -383 340.5 -402.5 Q 348 -422 353 -442.5 Q 358 -463 358 -483 L 358 -520 L 436 -520 L 436 -483 Q 436 -460 430.5 -436.5 Q 425 -413 417 -391 Q 409 -369 399 -347.5 Q 389 -326 378 -305 L 378 -304 Q 376 -302 375 -299.5 Q 374 -297 372 -294 L 292 -149 L 351 36 Q 355 48 358.5 60.5 Q 362 73 365.5 85 Q 369 97 374.5 109 Q 380 121 389 129.5 Q 398 138 410.5 141.5 Q 423 145 436 145 L 436 215 Q 415 215 394.5 212 Q 374 209 356.5 198.5 Q 339 188 327 170.5 Q 315 153 306 134.5 Q 297 116 290 96.5 Q 283 77 277 57 L 240 -57 L 196 23 Q 186 41 176.5 59.5 Q 167 78 159.5 97.5 Q 152 117 147 137.5 Q 142 158 142 178 L 142 215 Z " id="path1"/>
</defs>
<g>
<g data-source-text="χ" fill="#dee4e3" transform="translate(40 104.99201) rotate(0) scale(0.09599999)">
<use href="#path1" transform="translate(0 0)"/>
</g>
</g>
</svg>