<?xml version="1.0" encoding="UTF-8" standalone="no"?>
<svg height="160" viewBox="0 0 128 160" width="128" xmlns="http://www.w3.org/2000/svg">
<defs>
<path d="M 250 8 Q 223 8 196.5 2.5 Q 170 -3 146.5 -16 Q 123 -29 104.5 -49.5 Q 86 -70 75 -94.5 Q 64 -119 60 -146 Q 56 -173 56 -200 L 56 -273 Q 56 -297 59 -322 Q 62 -347 70 -371 Q 78 -395 92 -416 Q 106 -437 126 -452 Q 146 -467 170.5 -473.5 Q 195 -480 220 -480 Q 226 -480 233 -480 Q 240 -480 247 -479 Q 224 -499 201.5 -520.5 Q 179 -542 158 -564 L 64 -665 L 64 -735 L 436 -735 L 436 -665 L 165 -665 L 215 -612 Q 240 -585 267 -559 Q 294 -533 321.5 -507.5 Q 349 -482 374.5 -454.5 Q 400 -427 417 -393.5 Q 434 -360 439 -322.5 Q 444 -285 444 -248 L 444 -200 Q 444 -173 440 -146 Q 436 -119 425 -94.5 Q 414 -70 395.5 -49.5 Q 377 -29 353.5 -16 Q 330 -3 303.5 2.5 Q 277 8 250 8 Z M 250 -62 Q 267 -62 284 -66 Q 301 -70 315 -79.5 Q 329 -89 339.5 -103 Q 350 -117 356 -133 Q 362 -149 364 -166 Q 366 -183 366 -200 L 366 -248 Q 366 -270 364.5 -292.5 Q 363 -315 357 -336 Q 351 -353 341 -367.5 Q 331 -382 316.5 -392 Q 302 -402 284.5 -406 Q 267 -410 250 -410 Q 233 -410 216 -406.5 Q 199 -403 185 -393 Q 171 -383 160.5 -369.5 Q 150 -356 144 -340 Q 138 -324 136 -307 Q 134 -290 134 -273 L 134 -200 Q 134 -183 136 -166 Q 138 -149 144 -133 Q 150 -117 160.5 -103 Q 171 -89 185 -79.5 Q 199 -70 216 -66 Q 233 -62 250 -62 Z " id="path1"/>
</defs>
<g>
<g data-source-text="δ" fill="#20242e" transform="translate(40 104.99201) rotate(0) scale(0.09599999)">
<use href="#path1" transform="translate(0 0)"/>
</g>
</g>
</svg>