<?xml version="1.0" encoding="UTF-8" standalone="no"?>
<svg height="160" viewBox="0 0 128 160" width="128" xmlns="http://www.w3.org/2000/svg">
<defs>
<path d="M 475 -164 L 402 -189 L 617 -761 L 690 -737 Z M 370 77 Q 356 77 342 73 Q 328 69 318 59 Q 308 49 303.5 35 Q 299 21 299 7 Q 299 -7 303.5 -21 Q 308 -35 318 -45 Q 328 -55 342 -59.5 Q 356 -64 370 -64 Q 384 -64 398 -59.5 Q 412 -55 422 -45 Q 432 -35 436 -21 Q 440 -7 440 7 Q 440 21 436 35 Q 432 49 422 59 Q 412 69 398 73 Q 384 77 370 77 Z " id="path1"/>
<path d="M 436 -394 L 27 -394 L 27 -429 L -27 -429 L -27 -394 L -436 -394 L -436 -464 L 436 -464 Z M 436 -216 L -436 -216 L -436 -286 L -27 -286 L -27 -251 L 27 -251 L 27 -286 L 436 -286 Z " id="path2"/>
</defs>
<g>
<g data-source-text="!=" fill="#20242e" transform="translate(16 104.99201) rotate(0) scale(0.09599999)">
<use href="#path1" transform="translate(0 0)"/>
<use href="#path2" transform="translate(500 0)"/>
</g>
</g>
</svg>