<?xml version="1.0" encoding="UTF-8" standalone="no"?>
<svg height="160" viewBox="0 0 128 160" width="128" xmlns="http://www.w3.org/2000/svg">
<defs>
<path d="M 361 0 L 120 0 L 120 -70 L 199 -70 L 199 -580 Q 199 -601 202.5 -621.5 Q 206 -642 215.5 -660.5 Q 225 -679 240 -694 Q 255 -709 273.5 -718.5 Q 292 -728 312.5 -731.5 Q 333 -735 354 -735 L 436 -735 L 436 -665 L 354 -665 Q 337 -665 321.5 -659.5 Q 306 -654 295.5 -641.5 Q 285 -629 281 -613 Q 277 -597 277 -580 L 277 -70 L 361 -70 Z " id="path1"/>
</defs>
<g>
<g data-source-text="ſ" fill="#20242e" transform="translate(40 104.99201) rotate(0) scale(0.09599999)">
<use href="#path1" transform="translate(0 0)"/>
</g>
</g>
</svg>