<?xml version="1.0" encoding="UTF-8" standalone="no"?>
<svg height="160" viewBox="0 0 128 160" width="128" xmlns="http://www.w3.org/2000/svg">
<defs>
<path d="M 220 8 Q 195 8 169.5 2 Q 144 -4 123 -19 Q 102 -34 87 -55 Q 72 -76 63 -100 Q 54 -124 51 -149 Q 48 -174 48 -200 L 48 -320 Q 48 -346 51 -371 Q 54 -396 63 -420 Q 72 -444 87 -465 Q 102 -486 123 -501 Q 144 -516 169.5 -522 Q 195 -528 220 -528 Q 244 -528 266.5 -517.5 Q 289 -507 305.5 -489.5 Q 322 -472 334 -451 Q 346 -430 355 -408 Q 359 -436 363.5 -464 Q 368 -492 372 -520 L 450 -520 Q 437 -456 424.5 -391.5 Q 412 -327 398 -263 Q 413 -198 425.5 -132 Q 438 -66 452 0 L 374 0 Q 370 -28 365.5 -56.5 Q 361 -85 356 -113 L 356 -118 Q 347 -95 335 -73 Q 323 -51 306.5 -32.5 Q 290 -14 267.5 -3 Q 245 8 220 8 Z M 220 -62 Q 241 -62 257.5 -75.5 Q 274 -89 284 -107 Q 294 -125 301 -144.5 Q 308 -164 313.5 -183.5 Q 319 -203 323.5 -223.5 Q 328 -244 332 -264 Q 328 -283 323.5 -302.5 Q 319 -322 313.5 -341.5 Q 308 -361 301 -379.5 Q 294 -398 283.5 -415 Q 273 -432 256.5 -445 Q 240 -458 220 -458 Q 205 -458 189.5 -452.5 Q 174 -447 163 -436.5 Q 152 -426 144.5 -411.5 Q 137 -397 133 -382 Q 129 -367 127.5 -351.5 Q 126 -336 126 -320 L 126 -200 Q 126 -184 127.5 -168.5 Q 129 -153 133 -138 Q 137 -123 144.5 -108.5 Q 152 -94 163 -83.5 Q 174 -73 189.5 -67.5 Q 205 -62 220 -62 Z " id="path1"/>
</defs>
<g>
<g data-source-text="α" fill="#dee4e3" transform="translate(40 104.99201) rotate(0) scale(0.09599999)">
<use href="#path1" transform="translate(0 0)"/>
</g>
</g>
</svg>