<?xml version="1.0" encoding="UTF-8" standalone="no"?>
<svg height="160" viewBox="0 0 128 160" width="128" xmlns="http://www.w3.org/2000/svg">
<defs>
<path d="M 220 8 Q 195 8 169.5 2 Q 144 -4 123 -18.5 Q 102 -33 87 -54.5 Q 72 -76 63 -100 Q 54 -124 51 -149 Q 48 -174 48 -200 L 48 -320 Q 48 -346 51 -371 Q 54 -396 63 -420 Q 72 -444 87 -465.5 Q 102 -487 123 -501.5 Q 144 -516 169.5 -522 Q 195 -528 220 -528 Q 246 -528 269.5 -516.5 Q 293 -505 310 -485.5 Q 327 -466 338.5 -443 Q 350 -420 359 -396 Q 364 -427 369 -458 Q 374 -489 379 -520 L 450 -520 Q 437 -456 424.5 -391.5 Q 412 -327 398 -263 Q 413 -198 425.5 -132 Q 438 -66 452 0 L 381 0 Q 376 -32 370.5 -64 Q 365 -96 360 -128 L 360 -129 Q 351 -104 339.5 -80.5 Q 328 -57 311 -37 Q 294 -17 270 -4.5 Q 246 8 220 8 Z M 220 -62 Q 236 -62 250 -69.5 Q 264 -77 274 -89 Q 284 -101 291 -115 Q 298 -129 304 -143.5 Q 310 -158 314.5 -173 Q 319 -188 323 -203 Q 327 -218 330.5 -233 Q 334 -248 337 -264 Q 333 -283 328 -303 Q 323 -323 317 -342.5 Q 311 -362 304 -380.5 Q 297 -399 286 -416 Q 275 -433 257.5 -445.5 Q 240 -458 220 -458 Q 205 -458 189.5 -452.5 Q 174 -447 163 -436.5 Q 152 -426 144.5 -411.5 Q 137 -397 133 -382 Q 129 -367 127.5 -351.5 Q 126 -336 126 -320 L 126 -200 Q 126 -184 127.5 -168.5 Q 129 -153 133 -138 Q 137 -123 144.5 -108.5 Q 152 -94 163 -83.5 Q 174 -73 189.5 -67.5 Q 205 -62 220 -62 Z " id="path1"/>
</defs>
<g>
<g data-source-text="α" fill="#20242e" transform="translate(40 104.99201) rotate(0) scale(0.09599999)">
<use href="#path1" transform="translate(0 0)"/>
</g>
</g>
</svg>