<svg xmlns="http://www.w3.org/2000/svg" height="160" viewBox="0 0 128 160" width="128"><defs><path d="M 51 0 L 210 -535 L 187 -614 C 184.99998 -620.6667 182.66667 -627.3333 180.00002 -634.00006 C 177.33333 -640.6667 173.49998 -646.6667 168.50002 -652 C 163.5 -657.3333 157.33334 -660.8333 150.00002 -662.50006 C 142.66666 -664.1667 135.66666 -665 129 -665 L 76 -665 L 76 -735 L 129 -735 C 143.66667 -735 158.33334 -733.8333 173 -731.5 C 187.66666 -729.1667 200.99998 -723.8334 213 -715.50006 C 224.99998 -707.1667 234.5 -696.5 241.5 -683.5 C 248.5 -670.5 254.33333 -657 259 -643 L 259 -643 C 259.66666 -641 260.1667 -639.3334 260.5 -638.00006 C 260.83334 -636.6667 261.33334 -635 262 -633.00006 L 449 0 L 368 0 L 251.00002 -415 L 132 0 Z " id="path1"/></defs><g><g fill="#000000" transform="translate(40 105.20961) rotate(0)"><use href="#path1" transform="translate(0 0) scale(0.09599999)"/></g></g></svg>