<?xml version="1.0" encoding="UTF-8" standalone="no"?>
<svg height="160" viewBox="0 0 128 160" width="128" xmlns="http://www.w3.org/2000/svg">
<defs>
<path d="M 402 8 Q 385 8 368.5 3.5 Q 352 -1 339.5 -12.5 Q 327 -24 321.5 -40 Q 316 -56 316 -73 L 316 -450 L 184 -450 L 184 0 L 107 0 L 107 -450 L 43 -450 L 43 -520 L 457 -520 L 457 -450 L 393 -450 L 393 -73 Q 393 -68 395 -62.5 Q 397 -57 402 -57 Q 403 -57 404.5 -57.5 Q 406 -58 407 -59 L 489 -138 L 539 -91 L 457 -12 Q 446 -2 431.5 3 Q 417 8 402 8 Z " id="path1"/>
</defs>
<g>
<g data-source-text="π" fill="#dee4e3" transform="translate(40 104.99201) rotate(0) scale(0.09599999)">
<use href="#path1" transform="translate(0 0)"/>
</g>
</g>
</svg>