<svg xmlns="http://www.w3.org/2000/svg" height="160" viewBox="0 0 128 160" width="128"><defs><path d="M 391 8 C 374.99997 8 359.16663 6.6666665 343.50003 4 C 327.83334 1.3333335 312.83334 -3.3333337 298.5 -10.000001 C 284.16666 -16.666668 271.16666 -25.5 259.5 -36.5 C 247.83334 -47.499996 238.33333 -59.833336 231.00002 -73.50001 C 223.66667 -87.16667 218.5 -101.833336 215.5 -117.5 C 212.5 -133.16667 211.00002 -149 211.00002 -165 L 211.00002 -665 L 75.00001 -665 L 75.00001 -735 L 289 -735 L 289 -165 C 289 -151 291 -137.33334 295 -124.00001 C 299 -110.666664 305.83334 -99.166664 315.5 -89.5 C 325.1667 -79.83333 336.6667 -72.83333 350 -68.50001 C 363.3333 -64.166664 377 -62.000004 391 -62.000004 C 403 -62.000004 414.66666 -63.333336 426 -66 C 437.3333 -68.66667 447.99997 -72.666664 458 -78 L 458 -8 C 447.99997 -2.666667 437.3333 1.3333335 426 4 C 414.66666 6.6666665 403 8 391 8 Z " id="path1"/></defs><g><g fill="#000000" transform="translate(40 105.20961) rotate(0)"><use href="#path1" transform="translate(0 0) scale(0.09599999)"/></g></g></svg>