<?xml version="1.0" encoding="UTF-8" standalone="no"?>
<svg height="160" viewBox="0 0 128 160" width="128" xmlns="http://www.w3.org/2000/svg">
<defs>
<path d="M 205 0 Q 189 -38 173.5 -75.5 Q 158 -113 143.5 -151.5 Q 129 -190 116 -229 Q 103 -268 92 -307 Q 81 -346 72.5 -386.5 Q 64 -427 64 -468 L 64 -520 L 142 -520 L 142 -468 Q 142 -432 148 -397 Q 154 -362 162.5 -327 Q 171 -292 181 -258 Q 191 -224 202 -190 Q 213 -156 225 -122.5 Q 237 -89 250 -56 Q 263 -89 275 -122.5 Q 287 -156 298 -190 Q 309 -224 319 -258 Q 329 -292 337.5 -327 Q 346 -362 352 -397 Q 358 -432 358 -468 L 358 -520 L 436 -520 L 436 -468 Q 436 -427 427.5 -386.5 Q 419 -346 408 -307 Q 397 -268 384 -229 Q 371 -190 356.5 -151.5 Q 342 -113 326.5 -75.5 Q 311 -38 295 0 Z " id="path1"/>
</defs>
<g>
<g data-source-text="ν" fill="#dee4e3" transform="translate(40 104.99201) rotate(0) scale(0.09599999)">
<use href="#path1" transform="translate(0 0)"/>
</g>
</g>
</svg>