<?xml version="1.0" encoding="UTF-8" standalone="no"?>
<svg height="160" viewBox="0 0 128 160" width="128" xmlns="http://www.w3.org/2000/svg">
<defs>
<path d="M 254 8 Q 227 8 200.5 2.5 Q 174 -3 151 -16.5 Q 128 -30 110.5 -50.5 Q 93 -71 82.5 -95.5 Q 72 -120 68 -146.5 Q 64 -173 64 -200 L 64 -520 L 142 -520 L 142 -200 Q 142 -183 144 -166.5 Q 146 -150 151.5 -134 Q 157 -118 167 -104 Q 177 -90 190.5 -80 Q 204 -70 220.5 -66 Q 237 -62 254 -62 Q 271 -62 287 -69 Q 303 -76 314.5 -89 Q 326 -102 334 -117.5 Q 342 -133 347.5 -149 Q 353 -165 356.5 -182 Q 360 -199 362 -216 Q 364 -233 365 -250 Q 366 -267 366 -284 Q 366 -342 355 -399 Q 344 -456 323 -510 L 395 -535 Q 419 -475 431.5 -411.5 Q 444 -348 444 -284 Q 444 -252 440.5 -219.5 Q 437 -187 428.5 -155.5 Q 420 -124 406 -94.5 Q 392 -65 370 -41 Q 348 -17 317 -4.5 Q 286 8 254 8 Z " id="path1"/>
</defs>
<g>
<g data-source-text="υ" fill="#20242e" transform="translate(40 104.99201) rotate(0) scale(0.09599999)">
<use href="#path1" transform="translate(0 0)"/>
</g>
</g>
</svg>