<svg xmlns="http://www.w3.org/2000/svg" height="160" viewBox="0 0 128 160" width="128"><defs><path d="M 305.00003 7 C 292.33334 6.9999995 279.8333 5.1666665 267.5 1.5 C 255.16666 -2.1666665 244.66666 -8.500001 236.00002 -17.500002 C 227.33333 -26.500002 221 -37 217.00002 -49 C 213 -61 211.00002 -73.333336 211.00002 -86.00001 L 211.00002 -665 L 75.00001 -665 L 75.00001 -735 L 289 -735 L 289 -86.00001 C 289 -80.66667 290.3333 -75.166664 293 -69.5 C 295.66666 -63.833332 299.6667 -61 305.00003 -61 C 307 -61 308.83334 -61.333336 310.50003 -62.000004 C 312.1667 -62.666668 314.00003 -63.666664 316 -65.00001 L 457.00003 -183.00002 L 505 -132 L 364 -13.000001 C 356 -6.3333335 346.8333 -1.3333333 336.50003 2 C 326.1667 5.333333 315.66666 6.9999995 305.00003 7 Z " id="path1"/></defs><g><g fill="#ffffff" transform="translate(40 105.20961) rotate(0)"><use href="#path1" transform="translate(0 0) scale(0.09599999)"/></g></g></svg>