<?xml version="1.0" encoding="UTF-8" standalone="no"?>
<svg xmlns='http://www.w3.org/2000/svg' height="160" viewBox="0 0 128 160" width="128"><defs><path d="M 195 222 Q 187 222 179 221 Q 171 220 163.5 218 Q 156 216 149 211.5 Q 142 207 136 202 L -5 83 L 43 32 L 184 150 Q 187 152 189.5 153 Q 192 154 195 154 Q 203 154 207 145.5 Q 211 137 211 129 L 211 -545 Q 211 -570 214.5 -594 Q 218 -618 228 -640.5 Q 238 -663 254 -682 Q 270 -701 291 -713 Q 312 -725 336.5 -730 Q 361 -735 385 -735 L 438 -735 L 438 -665 L 385 -665 Q 363 -665 342.5 -656 Q 322 -647 310 -629 Q 298 -611 293.5 -589 Q 289 -567 289 -545 L 289 129 Q 289 148 283 166 Q 277 184 264 197.5 Q 251 211 232.5 216.5 Q 214 222 195 222 Z " id="path1"/></defs><g><g data-source-text="ſ" fill="#dee4e3" transform="translate(40 104.99201) rotate(0) scale(0.09599999)"><use href="#path1" transform="translate(0 0)"/></g></g></svg>