<?xml version="1.0" encoding="UTF-8" standalone="no"?>
<svg height="160" viewBox="0 0 128 160" width="128" xmlns="http://www.w3.org/2000/svg">
<defs>
<path d="M 64 215 L 64 178 Q 64 155 69.5 131.5 Q 75 108 83 86 Q 91 64 101 42.5 Q 111 21 122 0 L 122 -1 Q 124 -3 125 -5.5 Q 126 -8 128 -11 L 210 -159 L 151 -341 Q 147 -354 143 -366 Q 139 -378 135.5 -390.5 Q 132 -403 126.5 -414.5 Q 121 -426 111.5 -435 Q 102 -444 89.5 -447 Q 77 -450 64 -450 L 64 -520 Q 85 -520 105.5 -517 Q 126 -514 143.5 -503.5 Q 161 -493 172.5 -475.5 Q 184 -458 193 -439 Q 202 -420 209 -401 Q 216 -382 222 -362 L 258 -246 L 304 -328 Q 314 -346 323.5 -364.5 Q 333 -383 340.5 -402.5 Q 348 -422 353 -442.5 Q 358 -463 358 -483 L 358 -520 L 436 -520 L 436 -483 Q 436 -460 430.5 -436.5 Q 425 -413 417 -391 Q 409 -369 399 -347.5 Q 389 -326 378 -305 L 378 -304 Q 376 -302 375 -299.5 Q 374 -297 372 -294 L 290 -146 L 349 36 Q 353 49 357 61 Q 361 73 364.5 85.5 Q 368 98 373.5 109.5 Q 379 121 388.5 130 Q 398 139 410.5 142 Q 423 145 436 145 L 436 215 Q 415 215 394.5 212 Q 374 209 356.5 198.5 Q 339 188 327.5 170.5 Q 316 153 307 134 Q 298 115 291 96 Q 284 77 278 57 L 242 -59 L 196 23 Q 186 41 176.5 59.5 Q 167 78 159.5 97.5 Q 152 117 147 137.5 Q 142 158 142 178 L 142 215 Z " id="path1"/>
</defs>
<g>
<g data-source-text="χ" fill="#dee4e3" transform="translate(40 104.99201) rotate(0) scale(0.09599999)">
<use href="#path1" transform="translate(0 0)"/>
</g>
</g>
</svg>