<?xml version="1.0" encoding="UTF-8" standalone="no"?>
<svg height="160" viewBox="0 0 128 160" width="128" xmlns="http://www.w3.org/2000/svg">
<defs>
<path d="M 476 8 Q 453 8 429.5 3 Q 406 -2 387 -16 Q 368 -30 355 -50 Q 342 -70 333 -92 Q 324 -114 320 -137.5 Q 316 -161 310 -184 L 249 -409 L 132 0 L 51 0 L 210 -533 L 187 -614 Q 184 -625 180 -635 Q 176 -645 168.5 -652.5 Q 161 -660 150 -662.5 Q 139 -665 129 -665 L 76 -665 L 76 -735 L 129 -735 Q 152 -735 175 -731 Q 198 -727 216.5 -713 Q 235 -699 245 -677.5 Q 255 -656 262 -633 L 384 -202 Q 388 -191 390.5 -180 Q 393 -169 395.5 -157.5 Q 398 -146 400.5 -134.5 Q 403 -123 407.5 -112.5 Q 412 -102 418 -92 Q 424 -82 433 -74.5 Q 442 -67 453.5 -64.5 Q 465 -62 476 -62 Z " id="path1"/>
</defs>
<g>
<g data-source-text="λ" fill="#20242e" transform="translate(40 104.99201) rotate(0) scale(0.09599999)">
<use href="#path1" transform="translate(0 0)"/>
</g>
</g>
</svg>