<?xml version="1.0" encoding="UTF-8" standalone="no"?>
<svg height="160" viewBox="0 0 128 160" width="128" xmlns="http://www.w3.org/2000/svg">
<defs>
<path d="M 148 215 L 148 -566 Q 148 -589 152 -611.5 Q 156 -634 166 -654 Q 176 -674 192.5 -690.5 Q 209 -707 229 -717 Q 249 -727 271.5 -731 Q 294 -735 317 -735 L 436 -735 L 436 -665 L 317 -665 Q 298 -665 279.5 -658.5 Q 261 -652 248.5 -637.5 Q 236 -623 231 -604 Q 226 -585 226 -566 L 226 215 Z " id="path1"/>
</defs>
<g>
<g data-source-text="ſ" fill="#dee4e3" transform="translate(40 104.99201) rotate(0) scale(0.09599999)">
<use href="#path1" transform="translate(0 0)"/>
</g>
</g>
</svg>