<?xml version="1.0" encoding="UTF-8" standalone="no"?>
<svg height="160" viewBox="0 0 128 160" width="128" xmlns="http://www.w3.org/2000/svg">
<defs>
<path d="M 409 0 L 341 0 Q 321 0 300 -3.5 Q 279 -7 260.5 -16 Q 242 -25 227 -40 Q 212 -55 203 -74 Q 194 -93 190.5 -113.5 Q 187 -134 187 -155 L 187 -735 L 264 -735 L 264 -155 Q 264 -138 268 -122 Q 272 -106 283 -93.5 Q 294 -81 309.5 -75.5 Q 325 -70 341 -70 L 409 -70 Z " id="path1"/>
</defs>
<g>
<g data-source-text="l" fill="#20242e" transform="translate(40 104.99201) rotate(0) scale(0.09599999)">
<use href="#path1" transform="translate(0 0)"/>
</g>
</g>
</svg>