<?xml version="1.0" encoding="UTF-8" standalone="no"?>
<svg height="160" viewBox="0 0 128 160" width="128" xmlns="http://www.w3.org/2000/svg">
<defs>
<path d="M 250 8 Q 223 8 196.5 2.5 Q 170 -3 146.5 -16 Q 123 -29 104.5 -49.5 Q 86 -70 75 -94.5 Q 64 -119 60 -146 Q 56 -173 56 -200 L 56 -331 L 134 -331 L 134 -200 Q 134 -183 136 -166 Q 138 -149 144 -133 Q 150 -117 160.5 -103 Q 171 -89 185 -79.5 Q 199 -70 216 -66 Q 233 -62 250 -62 Q 267 -62 284 -66 Q 301 -70 315 -79.5 Q 329 -89 339.5 -103 Q 350 -117 356 -133 Q 362 -149 364 -166 Q 366 -183 366 -200 L 366 -332 Q 337 -337 308.5 -347.5 Q 280 -358 255 -374.5 Q 230 -391 208.5 -412 Q 187 -433 171.5 -458.5 Q 156 -484 147 -513.5 Q 138 -543 138 -573 Q 138 -604 148.5 -635 Q 159 -666 180 -690 Q 201 -714 230 -728.5 Q 259 -743 291 -743 Q 313 -743 334 -738.5 Q 355 -734 373.5 -723 Q 392 -712 406.5 -695.5 Q 421 -679 429.5 -659 Q 438 -639 441 -618 Q 444 -597 444 -575 L 444 -395 Q 450 -396 456 -397 Q 462 -398 468 -399 L 468 -332 Q 462 -332 456 -331 Q 450 -330 444 -330 L 444 -200 Q 444 -173 440 -146 Q 436 -119 425 -94.5 Q 414 -70 395.5 -49.5 Q 377 -29 353.5 -16 Q 330 -3 303.5 2.5 Q 277 8 250 8 Z M 366 -398 L 366 -575 Q 366 -593 362.5 -610.5 Q 359 -628 349 -642.5 Q 339 -657 322.5 -665 Q 306 -673 289 -673 Q 271 -673 255.5 -664 Q 240 -655 230 -641 Q 220 -627 215.5 -610.5 Q 211 -594 211 -576 Q 211 -545 224 -515 Q 237 -485 258 -461.5 Q 279 -438 307 -421.5 Q 335 -405 366 -398 Z " id="path1"/>
</defs>
<g>
<g data-source-text="θ" fill="#dee4e3" transform="translate(40 104.99201) rotate(0) scale(0.09599999)">
<use href="#path1" transform="translate(0 0)"/>
</g>
</g>
</svg>