<?xml version="1.0" encoding="UTF-8" standalone="no"?>
<svg height="160" viewBox="0 0 128 160" width="128" xmlns="http://www.w3.org/2000/svg">
<defs>
<path d="M 211 215 L 211 7 L 126 -188 Q 97 -254 80.5 -325 Q 64 -396 64 -468 L 64 -520 L 142 -520 L 142 -468 Q 142 -403 156.5 -339.5 Q 171 -276 197 -216 L 250 -96 L 303 -216 Q 329 -276 343.5 -339.5 Q 358 -403 358 -468 L 358 -520 L 436 -520 L 436 -468 Q 436 -396 419.5 -325 Q 403 -254 374 -188 L 289 7 L 289 215 Z " id="path1"/>
</defs>
<g>
<g data-source-text="γ" fill="#dee4e3" transform="translate(40 104.99201) rotate(0) scale(0.09599999)">
<use href="#path1" transform="translate(0 0)"/>
</g>
</g>
</svg>