<svg xmlns="http://www.w3.org/2000/svg" height="160" viewBox="0 0 256 160" width="256"><defs><path d="M 840 -206.00002 L 150.00002 -387.00003 L 150.00002 -459 L 840 -640.00006 L 860 -572 L 288.00003 -423.00003 L 860 -274.00003 Z " id="path1"/><path d="M 160.00002 -206.00002 L 140.00002 -274.00003 L 712 -423.00003 L 140.00002 -572 L 160.00002 -640.00006 L 850 -459 L 850 -387.00003 Z " id="path3"/><path d="M 340 -40.000004 L -350 -221 L -350 -293 L 360.00003 -108 Z " id="path2"/><path d="M -340 -40.000004 L -360.00003 -108 L 350 -293 L 350 -221 Z " id="path4"/></defs><g><g fill="#ffffff" transform="translate(16 105.20961) rotate(0)"><use href="#path1" transform="translate(0 0) scale(0.09599999)"/><use href="#path2" transform="translate(48 0) scale(0.09599999)"/></g><g fill="#ffffff" transform="translate(144 105.20961) rotate(0)"><use href="#path3" transform="translate(0 0) scale(0.09599999)"/><use href="#path4" transform="translate(48 0) scale(0.09599999)"/></g></g></svg>