<?xml version="1.0" encoding="UTF-8" standalone="no"?>
<svg height="160" viewBox="0 0 128 160" width="128" xmlns="http://www.w3.org/2000/svg">
<defs>
<path d="M 64 215 L 64 -535 Q 64 -561 67.5 -587 Q 71 -613 80.5 -637 Q 90 -661 106 -682 Q 122 -703 143.5 -717 Q 165 -731 190.5 -737 Q 216 -743 242 -743 Q 267 -743 292 -738 Q 317 -733 338.5 -720 Q 360 -707 376.5 -687.5 Q 393 -668 402.5 -645 Q 412 -622 416 -597 Q 420 -572 420 -547 Q 420 -524 416.5 -501 Q 413 -478 403 -457 Q 393 -436 376.5 -419.5 Q 360 -403 340 -392 Q 366 -381 387 -361.5 Q 408 -342 421.5 -317 Q 435 -292 439.5 -264 Q 444 -236 444 -208 Q 444 -183 441 -157.5 Q 438 -132 430.5 -108 Q 423 -84 409.5 -62 Q 396 -40 377 -23.5 Q 358 -7 333 0.5 Q 308 8 283 8 Q 262 8 241 4.5 Q 220 1 201 -8 Q 182 -17 166.5 -32 Q 151 -47 142 -66 L 142 215 Z M 253 -62 Q 270 -62 287.5 -67 Q 305 -72 318.5 -83 Q 332 -94 341.5 -109.5 Q 351 -125 356.5 -141.5 Q 362 -158 364 -176 Q 366 -194 366 -211 Q 366 -229 364 -246.5 Q 362 -264 356.5 -280.5 Q 351 -297 340.5 -311.5 Q 330 -326 316 -336 Q 302 -346 285 -350.5 Q 268 -355 250 -355 L 207 -355 L 207 -425 L 250 -425 Q 271 -425 291 -435 Q 311 -445 322.5 -463 Q 334 -481 338 -502.5 Q 342 -524 342 -545 Q 342 -561 340.5 -576 Q 339 -591 334 -605.5 Q 329 -620 320.5 -633 Q 312 -646 299.5 -655.5 Q 287 -665 272 -669 Q 257 -673 242 -673 Q 226 -673 210.5 -668 Q 195 -663 182.5 -652.5 Q 170 -642 162 -628 Q 154 -614 149.5 -598.5 Q 145 -583 143.5 -567 Q 142 -551 142 -535 L 142 -137 Q 144 -118 154.5 -102.5 Q 165 -87 181 -77.5 Q 197 -68 215.5 -65 Q 234 -62 253 -62 Z " id="path1"/>
</defs>
<g>
<g data-source-text="β" fill="#20242e" transform="translate(40 104.99201) rotate(0) scale(0.09599999)">
<use href="#path1" transform="translate(0 0)"/>
</g>
</g>
</svg>