<svg xmlns="http://www.w3.org/2000/svg" height="160" viewBox="0 0 128 160" width="128"><defs><path d="M 366 0 Q 345 0 324.5 -3.5 Q 304 -7 285 -16 Q 266 -25 251.5 -40 Q 237 -55 227.5 -74 Q 218 -93 214.5 -113.5 Q 211 -134 211 -155 L 211 -450 L 75 -450 L 75 -520 L 289 -520 L 289 -155 Q 289 -138 293 -122 Q 297 -106 307.5 -93.5 Q 318 -81 334 -75.5 Q 350 -70 366 -70 L 434 -70 L 434 0 Z " id="path1"/></defs><g><g fill="#20242e" transform="translate(40 105.20961) rotate(0)"><use href="#path1" transform="translate(0 0) scale(0.09599999)"/></g></g></svg>