<svg xmlns="http://www.w3.org/2000/svg" height="160" viewBox="0 0 128 160" width="128"><defs><path d="M 148 0 L 148 -540 C 148 -556 148.83333 -572 150.5 -588.00006 C 152.16666 -604 155.5 -619.5 160.5 -634.5 C 165.50002 -649.50006 172.16667 -664 180.50002 -678 C 188.83334 -692 199.16666 -704 211.50002 -714 C 223.83333 -724 237.83334 -731.3334 253.50002 -736 C 269.1667 -740.6666 285 -743.00006 301 -743.00006 C 315.66666 -743.00006 330.3333 -741.00006 345 -737 C 359.66663 -733 373.16666 -726.6667 385.5 -718.00006 C 397.83337 -709.3334 408.33334 -698.8333 417.00003 -686.5 C 425.66666 -674.1666 432.66663 -660.8333 438.00003 -646.5 C 443.3333 -632.1666 447.1667 -617.6667 449.50003 -603 C 451.83334 -588.3334 453 -573.3334 453 -558 C 453 -558 453 -557.8333 453 -557.5 C 453 -557.1667 453 -556.6667 453 -556 L 375 -556 C 375 -556.6667 375 -557 375 -557 C 375 -557 375 -557 375 -557 C 375 -565.6667 374.49997 -574.3334 373.5 -583.00006 C 372.50003 -591.6667 371.00003 -600.1667 369 -608.5 C 367.00003 -616.8334 364.16666 -624.8334 360.50003 -632.50006 C 356.83334 -640.1667 352.16666 -647.1667 346.5 -653.5 C 340.83334 -659.8333 334 -664.6666 326 -668 C 318 -671.3333 309.66666 -673.00006 301 -673.00006 C 291.66666 -673.00006 282.66666 -670.8334 274.00003 -666.50006 C 265.33334 -662.1667 258.16666 -656.1666 252.5 -648.5 C 246.83333 -640.8333 242.33334 -632.5 239.00002 -623.5 C 235.66669 -614.5 233 -605.5 231.00002 -596.5 C 229 -587.50006 227.66666 -578.1667 227 -568.5 C 226.33334 -558.8333 226 -549.3334 226.00002 -540 L 226.00002 0 Z " id="path1"/></defs><g><g fill="#ffffff" transform="translate(40 105.20961) rotate(0)"><use href="#path1" transform="translate(0 0) scale(0.09599999)"/></g></g></svg>