<?xml version="1.0" encoding="UTF-8" standalone="no"?>
<svg height="160" viewBox="0 0 128 160" width="128" xmlns="http://www.w3.org/2000/svg">
<defs>
<path d="M 196 215 L 196 -540 Q 196 -563 198.5 -586 Q 201 -609 207 -631.5 Q 213 -654 224 -674.5 Q 235 -695 251.5 -711 Q 268 -727 290 -735 Q 312 -743 336 -743 Q 357 -743 378 -736.5 Q 399 -730 415.5 -716.5 Q 432 -703 443.5 -684.5 Q 455 -666 461.5 -645.5 Q 468 -625 471.5 -603.5 Q 475 -582 475 -561 L 475 -555 L 397 -555 L 397 -558 Q 397 -570 396 -582 Q 395 -594 392.5 -606 Q 390 -618 386 -629.5 Q 382 -641 375.5 -650.5 Q 369 -660 358.5 -666.5 Q 348 -673 336 -673 Q 322 -673 311 -664.5 Q 300 -656 293.5 -644.5 Q 287 -633 283.5 -620 Q 280 -607 278 -593.5 Q 276 -580 275 -566.5 Q 274 -553 274 -540 L 274 215 Z " id="path1"/>
</defs>
<g>
<g data-source-text="ſ" fill="#20242e" transform="translate(40 104.99201) rotate(0) scale(0.09599999)">
<use href="#path1" transform="translate(0 0)"/>
</g>
</g>
</svg>