<?xml version="1.0" encoding="UTF-8" standalone="no"?>
<svg xmlns="http://www.w3.org/2000/svg" height="160" viewBox="0 0 128 160" width="128"><defs><path d="M 436 -394 L 22 -394 L 22 -429 L -22 -429 L -22 -394 L -83 -394 L -83 -464 L 436 -464 Z M -83 -216 L -83 -286 L -22 -286 L -22 -251 L 22 -251 L 22 -286 L 436 -286 L 436 -216 Z " id="path2"/><path d="M 583 -394 L 522 -394 L 522 -429 L 478 -429 L 478 -394 L 64 -394 L 64 -464 L 583 -464 Z M 583 -216 L 64 -216 L 64 -286 L 478 -286 L 478 -251 L 522 -251 L 522 -286 L 583 -286 Z " id="path1"/></defs><g><g data-source-text="==" fill="#20242e" transform="translate(16 104.99201) rotate(0) scale(0.09599999)"><use href="#path1" transform="translate(0 0)"/><use href="#path2" transform="translate(500 0)"/></g></g></svg>