<?xml version="1.0" encoding="UTF-8" standalone="no"?>
<svg height="160" viewBox="0 0 128 160" width="128" xmlns="http://www.w3.org/2000/svg">
<defs>
<path d="M 211 215 L 211 6 Q 187 2 164.5 -6.5 Q 142 -15 122.5 -29.5 Q 103 -44 89 -63.5 Q 75 -83 66 -105.5 Q 57 -128 54 -152 Q 51 -176 51 -200 L 51 -520 L 123 -520 L 123 -200 Q 123 -177 127.5 -155 Q 132 -133 143.5 -113.5 Q 155 -94 173.5 -80 Q 192 -66 214 -61 L 214 -735 L 286 -735 L 286 -61 Q 308 -66 326.5 -80 Q 345 -94 356.5 -113.5 Q 368 -133 372.5 -155 Q 377 -177 377 -200 L 377 -520 L 449 -520 L 449 -200 Q 449 -176 446 -152 Q 443 -128 434 -105.5 Q 425 -83 411 -63.5 Q 397 -44 377.5 -29.5 Q 358 -15 335.5 -6.5 Q 313 2 289 6 L 289 215 Z " id="path1"/>
</defs>
<g>
<g data-source-text="ψ" fill="#dee4e3" transform="translate(40 104.99201) rotate(0) scale(0.09599999)">
<use href="#path1" transform="translate(0 0)"/>
</g>
</g>
</svg>