<?xml version="1.0" encoding="UTF-8" standalone="no"?>
<svg height="160" viewBox="0 0 128 160" width="128" xmlns="http://www.w3.org/2000/svg">
<defs>
<path d="M 305 7 Q 286 7 267.5 1.5 Q 249 -4 236 -17.5 Q 223 -31 217 -49 Q 211 -67 211 -86 L 211 -665 L 75 -665 L 75 -735 L 289 -735 L 289 -86 Q 289 -78 293 -69.5 Q 297 -61 305 -61 Q 308 -61 310.5 -62 Q 313 -63 316 -65 L 457 -183 L 505 -132 L 364 -13 Q 352 -3 336.5 2 Q 321 7 305 7 Z " id="path1"/>
</defs>
<g data-source-text="l" fill="#20242e" transform="translate(40 104.99201) rotate(0) scale(0.09599999)">
<use href="#path1" transform="translate(0 0)"/>
</g>
</svg>