<?xml version="1.0" encoding="UTF-8" standalone="no"?>
<svg height="160" viewBox="0 0 128 160" width="128" xmlns="http://www.w3.org/2000/svg">
<defs>
<path d="M 101 215 L 63 215 L 63 145 L 101 145 Q 117 145 133 141 Q 149 137 163 128 Q 177 119 186.5 105 Q 196 91 201.5 75.5 Q 207 60 209 44 Q 211 28 211 11 L 211 -450 L 129 -450 L 129 -520 L 211 -520 L 211 -531 Q 211 -558 215 -584 Q 219 -610 229.5 -634 Q 240 -658 257.5 -678.5 Q 275 -699 298 -712 Q 321 -725 347 -730 Q 373 -735 399 -735 L 438 -735 L 438 -665 L 399 -665 Q 383 -665 367 -661 Q 351 -657 337 -648 Q 323 -639 313.5 -625 Q 304 -611 298.5 -595.5 Q 293 -580 291 -564 Q 289 -548 289 -531 L 289 11 Q 289 38 285 64 Q 281 90 270.5 114 Q 260 138 242.5 158.5 Q 225 179 202 192 Q 179 205 153 210 Q 127 215 101 215 Z " id="path1"/>
</defs>
<g>
<g data-source-text="ſ" fill="#20242e" transform="translate(40 104.99201) rotate(0) scale(0.09599999)">
<use href="#path1" transform="translate(0 0)"/>
</g>
</g>
</svg>