<svg xmlns="http://www.w3.org/2000/svg" height="160" viewBox="0 0 128 160" width="128"><defs><path d="M 64 0 L 64 -74 C 64 -98.66667 67.333336 -123.166664 74 -147.5 C 80.66667 -171.83333 88.66667 -195.66667 98 -219.00002 L 209.00002 -508.00003 L 164.00002 -624 C 157.33334 -640.6667 153 -657.6667 151 -675.00006 C 149 -692.3333 148 -710 148 -728 L 148 -735 L 226.00002 -735 L 226.00002 -728 C 226 -714.6667 226.5 -701.3334 227.50002 -688.00006 C 228.5 -674.6667 231.33333 -661.6666 236.00002 -649 L 402 -219.00002 C 411.33334 -195.66667 419.3333 -171.83333 426 -147.5 C 432.66663 -123.166664 435.99997 -98.66667 436 -74 L 436 0 L 358 0 L 358 -74 C 358 -94.666664 355.1667 -114.99999 349.50003 -135 C 343.83334 -155 337.33334 -174.66667 330 -194.00002 L 248.00002 -406.00003 L 170 -195 C 166.66667 -184.99998 163.16667 -175 159.50002 -165 C 155.83334 -155 152.83334 -145 150.5 -135 C 148.16667 -125 146.16667 -114.833336 144.5 -104.50001 C 142.83334 -94.16667 142 -83.99999 142 -74 L 142 0 Z " id="path1"/></defs><g><g fill="#000000" transform="translate(40 105.20961) rotate(0)"><use href="#path1" transform="translate(0 0) scale(0.09599999)"/></g></g></svg>