<?xml version="1.0" encoding="UTF-8" standalone="no"?>
<svg height="160" viewBox="0 0 128 160" width="128" xmlns="http://www.w3.org/2000/svg">
<defs>
<path d="M 211 215 L 211 -2 Q 188 -5 166 -12.5 Q 144 -20 125 -33.5 Q 106 -47 91 -65 Q 76 -83 67 -104.5 Q 58 -126 54.5 -149 Q 51 -172 51 -195 L 51 -450 L 5 -450 L 5 -520 L 123 -520 L 123 -195 Q 123 -174 127.5 -153 Q 132 -132 144 -114 Q 156 -96 174.5 -84.5 Q 193 -73 214 -69 L 214 -735 L 286 -735 L 286 -69 Q 307 -73 325.5 -84.5 Q 344 -96 356 -114 Q 368 -132 372.5 -153 Q 377 -174 377 -195 L 377 -520 L 449 -520 L 449 -195 Q 449 -172 445.5 -149 Q 442 -126 433 -104.5 Q 424 -83 409 -65 Q 394 -47 375 -33.5 Q 356 -20 334 -12.5 Q 312 -5 289 -2 L 289 215 Z " id="path1"/>
</defs>
<g>
<g data-source-text="ψ" fill="#20242e" transform="translate(40 104.99201) rotate(0) scale(0.09599999)">
<use href="#path1" transform="translate(0 0)"/>
</g>
</g>
</svg>