<?xml version="1.0" encoding="UTF-8" standalone="no"?>
<svg height="160" viewBox="0 0 128 160" width="128" xmlns="http://www.w3.org/2000/svg">
<defs>
<path d="M 284 8 Q 266 8 248 3.5 Q 230 -1 216 -13 Q 202 -25 196 -43 Q 190 -61 190 -79 L 190 -450 L 54 -450 L 54 -520 L 268 -520 L 268 -79 Q 268 -71 272 -63 Q 276 -55 284 -55 Q 287 -55 290.5 -55 Q 294 -55 297 -57 L 458 -190 L 502 -142 L 341 -9 Q 329 1 314 4.5 Q 299 8 284 8 Z " id="path1"/>
</defs>
<g>
<g data-source-text="ι" fill="#dee4e3" transform="translate(40 104.99201) rotate(0) scale(0.09599999)">
<use href="#path1" transform="translate(0 0)"/>
</g>
</g>
</svg>