<?xml version="1.0" encoding="UTF-8" standalone="no"?>
<svg height="160" viewBox="0 0 128 160" width="128" xmlns="http://www.w3.org/2000/svg">
<defs>
<path d="M 250 8 Q 223 8 196.5 2.5 Q 170 -3 146.5 -16 Q 123 -29 104.5 -49.5 Q 86 -70 75 -94.5 Q 64 -119 60 -146 Q 56 -173 56 -200 L 56 -272 Q 56 -297 60.5 -321 Q 65 -345 76 -366 Q 87 -387 104.5 -404.5 Q 122 -422 144 -433 Q 127 -443 114 -458.5 Q 101 -474 93 -492 Q 85 -510 82 -529.5 Q 79 -549 79 -569 Q 79 -591 83 -613.5 Q 87 -636 96 -656.5 Q 105 -677 120 -694 Q 135 -711 154.5 -722 Q 174 -733 196 -738 Q 218 -743 241 -743 Q 285 -743 327.5 -728.5 Q 370 -714 408 -692 L 369 -632 Q 355 -640 340 -647 Q 325 -654 310 -660 Q 295 -666 279 -669.5 Q 263 -673 247 -673 Q 227 -673 208.5 -666 Q 190 -659 178 -644 Q 166 -629 161 -609.5 Q 156 -590 156 -570 Q 156 -558 158 -545 Q 160 -532 165.5 -520.5 Q 171 -509 180 -500 Q 189 -491 200.5 -485.5 Q 212 -480 224.5 -477.5 Q 237 -475 250 -472 Q 276 -468 301.5 -462 Q 327 -456 350.5 -445 Q 374 -434 394 -416 Q 414 -398 426 -374.5 Q 438 -351 441 -325 Q 444 -299 444 -272 L 444 -200 Q 444 -173 440 -146 Q 436 -119 425 -94.5 Q 414 -70 395.5 -49.5 Q 377 -29 353.5 -16 Q 330 -3 303.5 2.5 Q 277 8 250 8 Z M 250 -62 Q 267 -62 284 -66 Q 301 -70 315 -79.5 Q 329 -89 339.5 -103 Q 350 -117 356 -133 Q 362 -149 364 -166 Q 366 -183 366 -200 L 366 -272 Q 366 -293 363 -313.5 Q 360 -334 348.5 -351 Q 337 -368 319.5 -379 Q 302 -390 282 -395.5 Q 262 -401 242 -404 Q 222 -407 202 -412 Q 183 -403 169 -387.5 Q 155 -372 147 -353 Q 139 -334 136.5 -313.5 Q 134 -293 134 -272 L 134 -200 Q 134 -183 136 -166 Q 138 -149 144 -133 Q 150 -117 160.5 -103 Q 171 -89 185 -79.5 Q 199 -70 216 -66 Q 233 -62 250 -62 Z " id="path1"/>
</defs>
<g>
<g data-source-text="δ" fill="#dee4e3" transform="translate(40 104.99201) rotate(0) scale(0.09599999)">
<use href="#path1" transform="translate(0 0)"/>
</g>
</g>
</svg>