<?xml version="1.0" encoding="UTF-8" standalone="no"?>
<svg height="160" viewBox="0 0 128 160" width="128" xmlns="http://www.w3.org/2000/svg">
<defs>
<path d="M 250 8 Q 222 8 194 1.5 Q 166 -5 142 -20.5 Q 118 -36 101 -59.5 Q 84 -83 73.5 -109.5 Q 63 -136 59.5 -164 Q 56 -192 56 -220 Q 56 -249 59.5 -277 Q 63 -305 73 -331.5 Q 83 -358 100 -381 Q 117 -404 140.5 -419.5 Q 164 -435 192 -442 Q 220 -449 248 -449 Q 269 -449 290.5 -445 Q 312 -441 331 -431 Q 318 -454 304.5 -477 Q 291 -500 278 -524 L 111 -478 L 92 -540 L 247 -583 L 166 -735 L 252 -735 L 322 -603 L 408 -626 L 427 -564 L 353 -544 Q 372 -509 390.5 -474.5 Q 409 -440 422 -403 Q 435 -366 439.5 -326.5 Q 444 -287 444 -248 L 444 -221 Q 444 -192 440 -164 Q 436 -136 426 -109.5 Q 416 -83 399 -60 Q 382 -37 358 -21 Q 334 -5 306 1.5 Q 278 8 250 8 Z M 250 -62 Q 269 -62 286.5 -68.5 Q 304 -75 318.5 -86.5 Q 333 -98 343 -113.5 Q 353 -129 358.5 -147 Q 364 -165 365 -183.5 Q 366 -202 366 -220 Q 366 -239 364 -257.5 Q 362 -276 356.5 -293.5 Q 351 -311 342 -327.5 Q 333 -344 318.5 -356 Q 304 -368 286 -373.5 Q 268 -379 250 -379 Q 231 -379 213 -373.5 Q 195 -368 181 -356 Q 167 -344 157.5 -327.5 Q 148 -311 143 -293.5 Q 138 -276 136 -257.5 Q 134 -239 134 -221 Q 134 -202 136 -183.5 Q 138 -165 143 -147.5 Q 148 -130 157.5 -113.5 Q 167 -97 181 -85 Q 195 -73 213 -67.5 Q 231 -62 250 -62 Z " id="path1"/>
</defs>
<g>
<g data-source-text="รฐ" fill="#dee4e3" transform="translate(40 104.99201) rotate(0) scale(0.09599999)">
<use href="#path1" transform="translate(0 0)"/>
</g>
</g>
</svg>