<?xml version="1.0" encoding="UTF-8" standalone="no"?>
<svg height="160" viewBox="0 0 128 160" width="128" xmlns="http://www.w3.org/2000/svg">
<defs>
<path d="M 188 215 L 18 215 L 18 145 L 65 145 Q 67 123 73.5 101.5 Q 80 80 88.5 59.5 Q 97 39 107 19 Q 117 -1 128 -20 L 206 -152 L 128 -285 Q 117 -304 107 -324 Q 97 -344 88.5 -364.5 Q 80 -385 73.5 -406.5 Q 67 -428 65 -450 L 18 -450 L 18 -520 L 142 -520 L 142 -465 Q 142 -446 147 -427 Q 152 -408 159.5 -390 Q 167 -372 176 -354.5 Q 185 -337 195 -320 L 250 -227 L 305 -320 Q 314 -336 322 -351.5 Q 330 -367 337 -383 Q 344 -399 349.5 -416 Q 355 -433 357 -450 L 312 -450 L 312 -520 L 482 -520 L 482 -450 L 435 -450 Q 433 -428 426.5 -406.5 Q 420 -385 411.5 -364.5 Q 403 -344 393 -324 Q 383 -304 372 -285 L 294 -153 L 372 -20 Q 383 -1 393 19 Q 403 39 411.5 59.5 Q 420 80 426.5 101.5 Q 433 123 435 145 L 482 145 L 482 215 L 358 215 L 358 160 Q 358 141 353 122 Q 348 103 340.5 85 Q 333 67 324 49.5 Q 315 32 305 15 L 250 -78 L 195 15 Q 186 31 178 46.5 Q 170 62 163 78 Q 156 94 150.5 111 Q 145 128 143 145 L 188 145 Z " id="path1"/>
</defs>
<g>
<g data-source-text="χ" fill="#dee4e3" transform="translate(40 104.99201) rotate(0) scale(0.09599999)">
<use href="#path1" transform="translate(0 0)"/>
</g>
</g>
</svg>