<?xml version="1.0" encoding="UTF-8" standalone="no"?>
<svg height="160" viewBox="0 0 128 160" width="128" xmlns="http://www.w3.org/2000/svg">
<defs>
<path d="M 468 8 L 468 -62 Q 456 -62 444.5 -64.5 Q 433 -67 424 -74.5 Q 415 -82 409 -92 Q 403 -102 398.5 -112.5 Q 394 -123 391.5 -134.5 Q 389 -146 386.5 -157.5 Q 384 -169 381.5 -180 Q 379 -191 376 -202 L 261 -633 Q 255 -656 245 -677.5 Q 235 -699 217 -713 Q 199 -727 175.5 -731 Q 152 -735 129 -735 L 76 -735 L 76 -665 L 129 -665 Q 139 -665 149.5 -662.5 Q 160 -660 167.5 -653 Q 175 -646 179 -636 Q 183 -626 186 -615 L 207 -538 L 93 -202 Q 88 -187 83 -171 Q 78 -155 74 -139 Q 70 -123 67 -106.5 Q 64 -90 64 -74 L 64 0 L 142 0 L 142 -74 Q 142 -96 148 -118 Q 154 -140 161 -162 L 161 -163 Q 162 -165 162.5 -167 Q 163 -169 164 -171 L 164 -172 Q 165 -174 166 -176 Q 167 -178 167 -180 L 243 -415 L 301 -185 Q 306 -162 311 -138.5 Q 316 -115 324.5 -93 Q 333 -71 346 -51 Q 359 -31 378 -16.5 Q 397 -2 420.5 3 Q 444 8 468 8 Z " id="path1"/>
</defs>
<g>
<g data-source-text="λ" fill="#dee4e3" transform="translate(40 104.99201) rotate(0) scale(0.09599999)">
<use href="#path1" transform="translate(0 0)"/>
</g>
</g>
</svg>