<?xml version="1.0" encoding="UTF-8" standalone="no"?>
<svg height="160" viewBox="0 0 256 160" width="256" xmlns="http://www.w3.org/2000/svg">
<defs>
<path d="M 838 -161 L 150 -386 L 150 -460 L 838 -685 L 862 -619 L 263 -423 L 862 -228 Z " id="path1"/>
<path d="M 338 5 L -350 -220 L -350 -294 L 362 -61 Z " id="path2"/>
<path d="M 162 -161 L 138 -228 L 737 -423 L 138 -619 L 162 -685 L 850 -460 L 850 -386 Z " id="path3"/>
<path d="M -338 5 L -362 -61 L 350 -294 L 350 -220 Z " id="path4"/>
</defs>
<g>
<g data-source-text="&lt;=" fill="#dee4e3" transform="translate(16 104.99201) rotate(0) scale(0.09599999)">
<use href="#path1" transform="translate(0 0)"/>
<use href="#path2" transform="translate(500 0)"/>
</g>
</g>
<g>
<g data-source-text="&gt;=" fill="#dee4e3" transform="translate(144 104.99201) rotate(0) scale(0.09599999)">
<use href="#path3" transform="translate(0 0)"/>
<use href="#path4" transform="translate(500 0)"/>
</g>
</g>
</svg>