<?xml version="1.0" encoding="UTF-8" standalone="no"?>
<svg height="160" viewBox="0 0 128 160" width="128" xmlns="http://www.w3.org/2000/svg">
<defs>
<path d="M 64 0 L 64 -74 Q 64 -90 67 -106.5 Q 70 -123 74 -139 Q 78 -155 83 -171 Q 88 -187 93 -202 L 209 -546 L 187 -611 Q 184 -622 180 -632.5 Q 176 -643 168.5 -651 Q 161 -659 150.5 -662 Q 140 -665 129 -665 L 76 -665 L 76 -735 L 129 -735 Q 152 -735 175 -730.5 Q 198 -726 215.5 -711.5 Q 233 -697 243.5 -676 Q 254 -655 261 -633 L 407 -202 Q 412 -187 417 -171 Q 422 -155 426 -139 Q 430 -123 433 -106.5 Q 436 -90 436 -74 L 436 0 L 358 0 L 358 -74 Q 358 -96 352 -118 Q 346 -140 339 -162 L 339 -163 Q 338 -165 337.5 -167.5 Q 337 -170 336 -172 Q 335 -174 334 -176 Q 333 -178 333 -180 L 250 -437 L 167 -180 Q 167 -178 166 -176 Q 165 -174 164 -172 L 164 -171 Q 163 -169 162.5 -167 Q 162 -165 161 -163 L 161 -162 Q 154 -140 148 -118 Q 142 -96 142 -74 L 142 0 Z " id="path1"/>
</defs>
<g>
<g data-source-text="λ" fill="#20242e" transform="translate(40 104.99201) rotate(0) scale(0.09599999)">
<use href="#path1" transform="translate(0 0)"/>
</g>
</g>
</svg>