<?xml version="1.0" encoding="UTF-8" standalone="no"?>
<svg height="160" viewBox="0 0 128 160" width="128" xmlns="http://www.w3.org/2000/svg">
<defs>
<path d="M 409 0 L 355 0 Q 333 -0 310.5 -4 Q 288 -8 267.5 -18 Q 247 -28 230.5 -44 Q 214 -60 204 -80.5 Q 194 -101 190.5 -123.5 Q 187 -146 187 -169 L 187 -735 L 264 -735 L 264 -169 Q 264 -150 269 -131 Q 274 -112 286.5 -97.5 Q 299 -83 317.5 -76.5 Q 336 -70 355 -70 L 409 -70 Z " id="path1"/>
</defs>
<g>
<g data-source-text="l" fill="#20242e" transform="translate(40 104.99201) rotate(0) scale(0.09599999)">
<use href="#path1" transform="translate(0 0)"/>
</g>
</g>
</svg>