<svg xmlns="http://www.w3.org/2000/svg" height="160" viewBox="0 0 128 160" width="128"><defs><path d="M 341 0 C 327.66666 0 314 -1.1666667 300.00003 -3.5 C 286 -5.833333 272.83334 -10 260.5 -16 C 248.16667 -22 237 -30.000002 227 -40.000004 C 217 -50.000004 209 -61.333336 203.00002 -74 C 197 -86.666664 192.83333 -99.833336 190.5 -113.5 C 188.16666 -127.166664 187 -141 187 -155 L 187 -520.00006 L 264 -520.00006 L 264 -155 C 264 -143.66667 265.3333 -132.66667 268 -122 C 270.66666 -111.333336 275.6667 -101.83333 283.00003 -93.5 C 290.33337 -85.166664 299.1667 -79.166664 309.5 -75.5 C 319.8333 -71.833336 330.33334 -70.00001 341 -70.00001 L 409 -70.00001 L 409 0 Z " id="path1"/></defs><g><g fill="#ffffff" transform="translate(40 105.20961) rotate(0)"><use href="#path1" transform="translate(0 0) scale(0.09599999)"/></g></g></svg>