<?xml version="1.0" encoding="UTF-8" standalone="no"?>
<svg height="160" viewBox="0 0 128 160" width="128" xmlns="http://www.w3.org/2000/svg">
<defs>
<path d="M 188 215 L 18 215 L 18 145 L 64 145 Q 65 122 71 99.5 Q 77 77 86 55.5 Q 95 34 106 13.5 Q 117 -7 129 -26 L 210 -160 L 151 -341 Q 147 -354 143 -366 Q 139 -378 135.5 -390.5 Q 132 -403 126.5 -414.5 Q 121 -426 111.5 -435 Q 102 -444 89.5 -447 Q 77 -450 64 -450 L 18 -450 L 18 -520 L 64 -520 Q 85 -520 105.5 -517 Q 126 -514 143.5 -503.5 Q 161 -493 172.5 -475.5 Q 184 -458 193 -439 Q 202 -420 209 -401 Q 216 -382 222 -362 L 260 -241 L 305 -315 Q 315 -331 323.5 -347 Q 332 -363 339.5 -379.5 Q 347 -396 352.5 -414 Q 358 -432 358 -450 L 312 -450 L 312 -520 L 482 -520 L 482 -450 L 436 -450 Q 435 -427 429 -404.5 Q 423 -382 414 -360.5 Q 405 -339 394 -318.5 Q 383 -298 371 -279 L 290 -145 L 349 36 Q 353 49 357 61 Q 361 73 364.5 85.5 Q 368 98 373.5 109.5 Q 379 121 388.5 130 Q 398 139 410.5 142 Q 423 145 436 145 L 482 145 L 482 215 L 436 215 Q 415 215 394.5 212 Q 374 209 356.5 198.5 Q 339 188 327.5 170.5 Q 316 153 307 134 Q 298 115 291 96 Q 284 77 278 57 L 240 -64 L 195 10 Q 185 26 176.5 42 Q 168 58 160.5 74.5 Q 153 91 147.5 109 Q 142 127 142 145 L 188 145 Z " id="path1"/>
</defs>
<g>
<g data-source-text="χ" fill="#20242e" transform="translate(40 104.99201) rotate(0) scale(0.09599999)">
<use href="#path1" transform="translate(0 0)"/>
</g>
</g>
</svg>