<?xml version="1.0" encoding="UTF-8" standalone="no"?>
<svg height="160" viewBox="0 0 128 160" width="128" xmlns="http://www.w3.org/2000/svg">
<defs>
<path d="M 195 223 Q 180 223 165 219.5 Q 150 216 138 206 L -26 71 L 18 23 L 182 158 Q 185 160 188.5 160 Q 192 160 195 160 Q 203 160 207 152 Q 211 144 211 136 L 211 -450 L 129 -450 L 129 -520 L 211 -520 L 211 -531 Q 211 -558 215 -584 Q 219 -610 229.5 -634 Q 240 -658 257.5 -678.5 Q 275 -699 298 -712 Q 321 -725 347 -730 Q 373 -735 399 -735 L 438 -735 L 438 -665 L 399 -665 Q 383 -665 367 -661 Q 351 -657 337 -648 Q 323 -639 313.5 -625 Q 304 -611 298.5 -595.5 Q 293 -580 291 -564 Q 289 -548 289 -531 L 289 136 Q 289 154 282.5 172 Q 276 190 262.5 202 Q 249 214 231 218.5 Q 213 223 195 223 Z " id="path1"/>
</defs>
<g>
<g data-source-text="ſ" fill="#dee4e3" transform="translate(40 104.99201) rotate(0) scale(0.09599999)">
<use href="#path1" transform="translate(0 0)"/>
</g>
</g>
</svg>