<?xml version="1.0" encoding="UTF-8" standalone="no"?>
<svg height="160" viewBox="0 0 128 160" width="128" xmlns="http://www.w3.org/2000/svg">
<defs>
<path d="M 391 8 Q 367 8 343.5 4 Q 320 -0 298.5 -10 Q 277 -20 259.5 -36.5 Q 242 -53 231 -73.5 Q 220 -94 215.5 -117.5 Q 211 -141 211 -165 L 211 -665 L 75 -665 L 75 -735 L 289 -735 L 289 -165 Q 289 -144 295 -124 Q 301 -104 315.5 -89.5 Q 330 -75 350 -68.5 Q 370 -62 391 -62 Q 409 -62 426 -66 Q 443 -70 458 -78 L 458 -8 Q 443 -0 426 4 Q 409 8 391 8 Z " id="path1"/>
</defs>
<g>
<g data-source-text="l" fill="#dee4e3" transform="translate(40 104.99201) rotate(0) scale(0.09599999)">
<use href="#path1" transform="translate(0 0)"/>
</g>
</g>
</svg>