<?xml version="1.0" encoding="UTF-8" standalone="no"?>
<svg height="160" viewBox="0 0 128 160" width="128" xmlns="http://www.w3.org/2000/svg">
<defs>
<path d="M 211 215 L 211 -2 Q 188 -5 165.5 -12.5 Q 143 -20 123.5 -33 Q 104 -46 89 -64 Q 74 -82 65 -103.5 Q 56 -125 52 -148.5 Q 48 -172 48 -195 L 48 -520 L 126 -520 L 126 -195 Q 126 -175 130.5 -155 Q 135 -135 146 -118 Q 157 -101 174.5 -90 Q 192 -79 211 -74 L 211 -735 L 289 -735 L 289 -74 Q 308 -79 325.5 -90 Q 343 -101 354 -118 Q 365 -135 369.5 -155 Q 374 -175 374 -195 L 374 -520 L 452 -520 L 452 -195 Q 452 -172 448 -148.5 Q 444 -125 435 -103.5 Q 426 -82 411 -64 Q 396 -46 376.5 -33 Q 357 -20 334.5 -12.5 Q 312 -5 289 -2 L 289 215 Z " id="path1"/>
</defs>
<g>
<g data-source-text="ψ" fill="#dee4e3" transform="translate(40 104.99201) rotate(0) scale(0.09599999)">
<use href="#path1" transform="translate(0 0)"/>
</g>
</g>
</svg>