<?xml version="1.0" encoding="UTF-8" standalone="no"?>
<svg height="160" viewBox="0 0 128 160" width="128" xmlns="http://www.w3.org/2000/svg">
<defs>
<path d="M 211 215 L 211 5 Q 181 0 154.5 -14 Q 128 -28 107.5 -50 Q 87 -72 73 -99 Q 59 -126 50.5 -155 Q 42 -184 38.5 -214 Q 35 -244 35 -274 Q 35 -337 49.5 -399.5 Q 64 -462 91 -520 L 156 -493 Q 133 -441 120 -386 Q 107 -331 107 -274 Q 107 -253 109 -232 Q 111 -211 116 -190 Q 121 -169 128.5 -149.5 Q 136 -130 148 -112 Q 160 -94 176.5 -81 Q 193 -68 214 -62 L 214 -343 Q 214 -363 215.5 -383 Q 217 -403 222.5 -422.5 Q 228 -442 237 -460 Q 246 -478 260.5 -492 Q 275 -506 294 -513 Q 313 -520 333 -520 Q 352 -520 369.5 -514 Q 387 -508 401 -495.5 Q 415 -483 425 -467.5 Q 435 -452 442 -434.5 Q 449 -417 453.5 -399 Q 458 -381 460.5 -363 Q 463 -345 464 -326.5 Q 465 -308 465 -289 Q 465 -258 462.5 -226.5 Q 460 -195 452 -164.5 Q 444 -134 430.5 -105.5 Q 417 -77 396.5 -53.5 Q 376 -30 348 -15 Q 320 0 289 5 L 289 215 Z M 286 -62 Q 308 -68 325.5 -83 Q 343 -98 355 -117 Q 367 -136 374.5 -157.5 Q 382 -179 386 -201 Q 390 -223 391.5 -245.5 Q 393 -268 393 -291 Q 393 -302 392.5 -314 Q 392 -326 391 -337.5 Q 390 -349 388.5 -361 Q 387 -373 384.5 -384.5 Q 382 -396 378.5 -407 Q 375 -418 369.5 -428.5 Q 364 -439 354.5 -447 Q 345 -455 333 -455 Q 322 -455 313.5 -447 Q 305 -439 300.5 -429.5 Q 296 -420 293 -409 Q 290 -398 288.5 -387 Q 287 -376 286.5 -365 Q 286 -354 286 -343 Z " id="path1"/>
</defs>
<g>
<g data-source-text="φ" fill="#20242e" transform="translate(40 104.99201) rotate(0) scale(0.09599999)">
<use href="#path1" transform="translate(0 0)"/>
</g>
</g>
</svg>