<?xml version="1.0" encoding="UTF-8" standalone="no"?>
<svg height="160" viewBox="0 0 128 160" width="128" xmlns="http://www.w3.org/2000/svg">
<defs>
<path d="M 277 -147 L 277 -307 L 64 -307 L 64 -373 L 277 -373 L 277 -533 L 351 -533 L 351 -373 L 500 -373 L 537 -340 L 500 -307 L 351 -307 L 351 -147 Z " id="path1"/>
<path d="M 149 -147 L 149 -307 L 0 -307 L -37 -340 L 0 -373 L 149 -373 L 149 -533 L 223 -533 L 223 -373 L 436 -373 L 436 -307 L 223 -307 L 223 -147 Z " id="path2"/>
</defs>
<g>
<g data-source-text="++" fill="#dee4e3" transform="translate(16 104.99201) rotate(0) scale(0.09599999)">
<use href="#path1" transform="translate(0 0)"/>
<use href="#path2" transform="translate(500 0)"/>
</g>
</g>
</svg>