<?xml version="1.0" encoding="UTF-8" standalone="no"?>
<svg height="160" viewBox="0 0 128 160" width="128" xmlns="http://www.w3.org/2000/svg">
<defs>
<path d="M 148 215 L 148 -580 Q 148 -601 151.5 -621.5 Q 155 -642 164.5 -660.5 Q 174 -679 189 -694 Q 204 -709 222.5 -718.5 Q 241 -728 261.5 -731.5 Q 282 -735 303 -735 L 436 -735 L 436 -665 L 303 -665 Q 287 -665 271 -659.5 Q 255 -654 244.5 -641.5 Q 234 -629 230 -613 Q 226 -597 226 -580 L 226 215 Z " id="path1"/>
</defs>
<g>
<g data-source-text="ſ" fill="#dee4e3" transform="translate(40 104.99201) rotate(0) scale(0.09599999)">
<use href="#path1" transform="translate(0 0)"/>
</g>
</g>
</svg>