<?xml version="1.0" encoding="UTF-8" standalone="no"?>
<svg height="160" viewBox="0 0 128 160" width="128" xmlns="http://www.w3.org/2000/svg">
<defs>
<path d="M 250 215 L 250 145 L 279 145 Q 295 145 310 141 Q 325 137 336.5 127 Q 348 117 353 102.5 Q 358 88 358 73 Q 358 56 351 41 Q 344 26 330.5 16.5 Q 317 7 301 3.5 Q 285 0 268.5 0 Q 252 -0 236 -1 Q 220 -2 204 -4.5 Q 188 -7 172.5 -12 Q 157 -17 142 -24 Q 127 -31 114 -40.5 Q 101 -50 90 -62 Q 79 -74 70.5 -88 Q 62 -102 57 -117.5 Q 52 -133 50 -149.5 Q 48 -166 48 -182 Q 48 -213 55.5 -243.5 Q 63 -274 81 -299 Q 99 -324 125 -341.5 Q 151 -359 180 -370 Q 154 -379 131.5 -395 Q 109 -411 93.5 -433 Q 78 -455 71 -481.5 Q 64 -508 64 -535 Q 64 -561 67.5 -587.5 Q 71 -614 81 -638 Q 91 -662 107.5 -683 Q 124 -704 146.5 -718 Q 169 -732 195 -737.5 Q 221 -743 247 -743 Q 271 -743 295.5 -738.5 Q 320 -734 341.5 -722.5 Q 363 -711 380 -693.5 Q 397 -676 408.5 -654 Q 420 -632 425 -608 Q 430 -584 430 -560 L 430 -555 L 352 -555 L 352 -558 Q 352 -580 346 -601.5 Q 340 -623 325.5 -640 Q 311 -657 290 -665 Q 269 -673 247 -673 Q 231 -673 215 -668.5 Q 199 -664 186 -654 Q 173 -644 164.5 -629.5 Q 156 -615 150.5 -599.5 Q 145 -584 143.5 -568 Q 142 -552 142 -535 Q 142 -516 146.5 -497 Q 151 -478 161.5 -462 Q 172 -446 187.5 -434.5 Q 203 -423 221 -416 Q 239 -409 258 -406.5 Q 277 -404 297 -404 L 343 -404 L 343 -334 L 297 -334 Q 275 -334 253.5 -331 Q 232 -328 212 -320 Q 192 -312 175 -298 Q 158 -284 146.5 -265.5 Q 135 -247 130.5 -226 Q 126 -205 126 -183 Q 126 -160 134 -138.5 Q 142 -117 159.5 -102 Q 177 -87 199 -79.5 Q 221 -72 244 -70.5 Q 267 -69 289.5 -68.5 Q 312 -68 334 -61.5 Q 356 -55 376 -43 Q 396 -31 410 -13 Q 424 5 430 27.5 Q 436 50 436 72 Q 436 103 425.5 132 Q 415 161 392 180.5 Q 369 200 339 207.5 Q 309 215 279 215 Z " id="path1"/>
</defs>
<g>
<g data-source-text="ξ" fill="#dee4e3" transform="translate(40 104.99201) rotate(0) scale(0.09599999)">
<use href="#path1" transform="translate(0 0)"/>
</g>
</g>
</svg>