<?xml version="1.0" encoding="UTF-8" standalone="no"?>
<svg height="160" viewBox="0 0 128 160" width="128" xmlns="http://www.w3.org/2000/svg">
<defs>
<path d="M 275 -147 L 275 -305 L 64 -305 L 64 -375 L 275 -375 L 275 -533 L 353 -533 L 353 -375 L 500 -375 L 539 -340 L 500 -305 L 353 -305 L 353 -147 Z " id="path1"/>
<path d="M 147 -147 L 147 -305 L 0 -305 L -39 -340 L 0 -375 L 147 -375 L 147 -533 L 225 -533 L 225 -375 L 436 -375 L 436 -305 L 225 -305 L 225 -147 Z " id="path2"/>
</defs>
<g>
<g data-source-text="++" fill="#20242e" transform="translate(16 104.99201) rotate(0) scale(0.09599999)">
<use href="#path1" transform="translate(0 0)"/>
<use href="#path2" transform="translate(500 0)"/>
</g>
</g>
</svg>