<svg xmlns="http://www.w3.org/2000/svg" height="160" viewBox="0 0 128 160" width="128"><defs><path d="M 148 215 L 148 -580 C 148 -594 149.16667 -607.8333 151.5 -621.50006 C 153.83333 -635.1667 158.16666 -648.1667 164.5 -660.5 C 170.83333 -672.8333 179 -684.00006 189.00002 -694 C 199 -704 210.16666 -712.1666 222.50002 -718.5 C 234.83333 -724.8334 247.83334 -729.1667 261.5 -731.5 C 275.16666 -733.8333 289 -735 303 -735 L 436 -735 L 436 -665 L 303 -665 C 292.33334 -665 281.66666 -663.1667 271.00003 -659.5 C 260.3333 -655.8334 251.49998 -649.8333 244.50002 -641.5 C 237.5 -633.1666 232.66667 -623.6667 230 -613 C 227.33333 -602.3333 226 -591.3333 226.00002 -580 L 226.00002 215 Z " id="path1"/></defs><g><g fill="#ffffff" transform="translate(40 105.20961) rotate(0)"><use href="#path1" transform="translate(0 0) scale(0.09599999)"/></g></g></svg>