<?xml version="1.0" encoding="UTF-8" standalone="no"?>
<svg height="160" viewBox="0 0 128 160" width="128" xmlns="http://www.w3.org/2000/svg">
<defs>
<path d="M 220 8 Q 195 8 169.5 2 Q 144 -4 123 -18.5 Q 102 -33 87 -54.5 Q 72 -76 63 -100 Q 54 -124 51 -149 Q 48 -174 48 -200 L 48 -320 Q 48 -346 51 -371 Q 54 -396 63 -420 Q 72 -444 87 -465.5 Q 102 -487 123 -501.5 Q 144 -516 169.5 -522 Q 195 -528 220 -528 Q 246 -528 269.5 -516 Q 293 -504 310 -485 Q 327 -466 338.5 -443 Q 350 -420 359 -396 Q 364 -427 369 -458 Q 374 -489 379 -520 L 450 -520 Q 437 -456 424.5 -391.5 Q 412 -327 398 -263 Q 413 -198 425.5 -132 Q 438 -66 452 0 L 381 0 Q 376 -32 370.5 -64.5 Q 365 -97 360 -130 Q 351 -105 339.5 -81.5 Q 328 -58 311.5 -37.5 Q 295 -17 271 -4.5 Q 247 8 220 8 Z M 224 -62 Q 239 -62 253 -70 Q 267 -78 277 -89.5 Q 287 -101 293.5 -115.5 Q 300 -130 306 -144 Q 312 -158 316 -173 Q 320 -188 324 -203 Q 328 -218 331.5 -233 Q 335 -248 338 -264 Q 335 -278 331.5 -293 Q 328 -308 324 -322.5 Q 320 -337 315.5 -351.5 Q 311 -366 305.5 -380 Q 300 -394 293 -407.5 Q 286 -421 276 -432 Q 266 -443 252.5 -450.5 Q 239 -458 224 -458 Q 208 -458 192.5 -453 Q 177 -448 165 -437.5 Q 153 -427 145.5 -412.5 Q 138 -398 133.5 -383 Q 129 -368 127.5 -352 Q 126 -336 126 -320 L 126 -200 Q 126 -184 127.5 -168 Q 129 -152 133.5 -137 Q 138 -122 145.5 -107.5 Q 153 -93 165 -82.5 Q 177 -72 192.5 -67 Q 208 -62 224 -62 Z " id="path1"/>
</defs>
<g>
<g data-source-text="α" fill="#20242e" transform="translate(40 104.99201) rotate(0) scale(0.09599999)">
<use href="#path1" transform="translate(0 0)"/>
</g>
</g>
</svg>