<?xml version="1.0" encoding="UTF-8" standalone="no"?>
<svg height="160" viewBox="0 0 128 160" width="128" xmlns="http://www.w3.org/2000/svg">
<defs>
<path d="M 305 8 Q 286 8 268 2.5 Q 250 -3 236.5 -15.5 Q 223 -28 217 -46.5 Q 211 -65 211 -83 L 211 -450 L 75 -450 L 75 -520 L 289 -520 L 289 -83 Q 289 -75 293 -67 Q 297 -59 305 -59 Q 308 -59 311.5 -59.5 Q 315 -60 318 -62 L 461 -180 L 509 -128 L 365 -10 Q 353 -0 337 4 Q 321 8 305 8 Z " id="path1"/>
</defs>
<g>
<g data-source-text="ι" fill="#20242e" transform="translate(40 104.99201) rotate(0) scale(0.09599999)">
<use href="#path1" transform="translate(0 0)"/>
</g>
</g>
</svg>