<?xml version="1.0" encoding="UTF-8" standalone="no"?>
<svg height="160" viewBox="0 0 128 160" width="128" xmlns="http://www.w3.org/2000/svg">
<defs>
<path d="M 180 223 Q 164 223 148.5 219 Q 133 215 120 205 L -36 77 L 12 25 L 168 153 Q 170 155 173.5 155.5 Q 177 156 180 156 Q 188 156 192 148 Q 196 140 196 132 L 196 -403 L 118 -403 L 118 -473 L 196 -473 L 196 -540 Q 196 -563 198.5 -586 Q 201 -609 207 -631.5 Q 213 -654 224 -674.5 Q 235 -695 251.5 -711 Q 268 -727 290.5 -735 Q 313 -743 336 -743 Q 358 -743 379 -736.5 Q 400 -730 416.5 -715.5 Q 433 -701 444 -682 Q 455 -663 461.5 -642.5 Q 468 -622 471.5 -600 Q 475 -578 475 -557 L 475 -555 L 397 -555 L 397 -556 Q 397 -568 396 -580 Q 395 -592 392.5 -604 Q 390 -616 386 -627.5 Q 382 -639 375.5 -649.5 Q 369 -660 358.5 -666.5 Q 348 -673 336 -673 Q 322 -673 311 -664.5 Q 300 -656 293.5 -644.5 Q 287 -633 283.5 -620 Q 280 -607 278 -593.5 Q 276 -580 275 -566.5 Q 274 -553 274 -540 L 274 132 Q 274 150 268 168.5 Q 262 187 249 199.5 Q 236 212 217.5 217.5 Q 199 223 180 223 Z " id="path1"/>
</defs>
<g>
<g data-source-text="ſ" fill="#dee4e3" transform="translate(40 104.99201) rotate(0) scale(0.09599999)">
<use href="#path1" transform="translate(0 0)"/>
</g>
</g>
</svg>