<svg xmlns="http://www.w3.org/2000/svg" height="160" viewBox="0 0 128 160" width="128"><defs><path d="M 367 8 C 351 8 335.16672 6.6666665 319.50003 4 C 303.83334 1.3333335 288.83334 -3.3333337 274.5 -10.000001 C 260.1667 -16.666668 247.16669 -25.5 235.5 -36.5 C 223.83333 -47.499996 214.16664 -59.833336 206.5 -73.50001 C 198.83331 -87.16667 193.66666 -101.833336 191.00002 -117.5 C 188.33334 -133.16667 187 -149 187 -165 L 187 -735 L 264 -735 L 264 -165 C 264 -151 266.16666 -137.33334 270.5 -124.00001 C 274.83334 -110.666664 281.83334 -99.166664 291.50003 -89.5 C 301.16666 -79.83333 312.66666 -72.83333 326 -68.50001 C 339.33334 -64.166664 353.00003 -62.000004 367 -62.000004 C 378.33334 -62.000004 389.66666 -63.333336 401.00003 -66 C 412.33334 -68.66667 423.33334 -72.666664 434.00003 -78 L 434.00003 -8 C 423.33334 -2.666667 412.33334 1.3333335 401.00003 4 C 389.66666 6.6666665 378.33334 8 367 8 Z " id="path1"/></defs><g><g fill="#000000" transform="translate(40 105.20961) rotate(0)"><use href="#path1" transform="translate(0 0) scale(0.09599999)"/></g></g></svg>