<?xml version="1.0" encoding="UTF-8" standalone="no"?>
<svg height="160" viewBox="0 0 128 160" width="128" xmlns="http://www.w3.org/2000/svg">
<defs>
<path d="M 132 0 L 51 0 L 210 -535 L 187 -614 Q 184 -624 180 -634 Q 176 -644 168.5 -652 Q 161 -660 150 -662.5 Q 139 -665 129 -665 L 76 -665 L 76 -735 L 129 -735 Q 152 -735 175 -731 Q 198 -727 216.5 -712.5 Q 235 -698 245 -677 Q 255 -656 262 -633 L 449 0 L 368 0 L 251 -415 Z " id="path1"/>
</defs>
<g>
<g data-source-text="λ" fill="#dee4e3" transform="translate(40 104.99201) rotate(0) scale(0.09599999)">
<use href="#path1" transform="translate(0 0)"/>
</g>
</g>
</svg>