<?xml version="1.0" encoding="UTF-8" standalone="no"?>
<svg height="160" viewBox="0 0 128 160" width="128" xmlns="http://www.w3.org/2000/svg">
<defs>
<path d="M 211 215 L 211 0 L 205 0 Q 196 -22 187 -43.5 Q 178 -65 169 -87 Q 160 -109 151.5 -131 Q 143 -153 135 -175 Q 127 -197 119.5 -219.5 Q 112 -242 105 -264.5 Q 98 -287 91.5 -309.5 Q 85 -332 79.5 -355 Q 74 -378 69 -405 Q 64 -432 64 -448 L 64 -520 L 142 -520 L 142 -468 Q 142 -447 144 -427 Q 146 -407 150 -386.5 Q 154 -366 158.5 -346 Q 163 -326 168 -306 Q 173 -286 178.5 -266.5 Q 184 -247 190 -227.5 Q 196 -208 202.5 -188.5 Q 209 -169 215.5 -149.5 Q 222 -130 230.5 -107.5 Q 239 -85 244 -73 L 250 -56 Q 257 -75 264.5 -94 Q 272 -113 278.5 -132.5 Q 285 -152 291.5 -171.5 Q 298 -191 304.5 -210.5 Q 311 -230 316.5 -249.5 Q 322 -269 327.5 -289 Q 333 -309 338 -329 Q 343 -349 347 -369 Q 351 -389 354.5 -412.5 Q 358 -436 358 -450 L 358 -520 L 436 -520 L 436 -468 Q 436 -444 433 -421 Q 430 -398 425 -374.5 Q 420 -351 414 -328.5 Q 408 -306 401.5 -283.5 Q 395 -261 387.5 -238.5 Q 380 -216 372 -194 Q 364 -172 356 -150 Q 348 -128 339 -106 Q 330 -84 319.5 -59 Q 309 -34 303 -19 L 295 0 L 289 0 L 289 215 Z " id="path1"/>
</defs>
<g>
<g data-source-text="γ" fill="#dee4e3" transform="translate(40 104.99201) rotate(0) scale(0.09599999)">
<use href="#path1" transform="translate(0 0)"/>
</g>
</g>
</svg>