<?xml version="1.0" encoding="UTF-8" standalone="no"?>
<svg height="160" viewBox="0 0 128 160" width="128" xmlns="http://www.w3.org/2000/svg">
<defs>
<path d="M 203 223 Q 188 223 173 218 Q 158 213 147 203 L 10 71 L 60 24 L 197 156 Q 198 157 199.5 157.5 Q 201 158 203 158 Q 208 158 209.5 152.5 Q 211 147 211 142 L 211 -450 L 129 -450 L 129 -520 L 211 -520 L 211 -531 Q 211 -558 215 -584 Q 219 -610 229.5 -634 Q 240 -658 257.5 -678.5 Q 275 -699 298 -712 Q 321 -725 347 -730 Q 373 -735 399 -735 L 438 -735 L 438 -665 L 399 -665 Q 383 -665 367 -661 Q 351 -657 337 -648 Q 323 -639 313.5 -625 Q 304 -611 298.5 -595.5 Q 293 -580 291 -564 Q 289 -548 289 -531 L 289 142 Q 289 159 283.5 175 Q 278 191 265.5 202.5 Q 253 214 236.5 218.5 Q 220 223 203 223 Z " id="path1"/>
</defs>
<g>
<g data-source-text="ſ" fill="#20242e" transform="translate(40 104.99201) rotate(0) scale(0.09599999)">
<use href="#path1" transform="translate(0 0)"/>
</g>
</g>
</svg>