<?xml version="1.0" encoding="UTF-8" standalone="no"?>
<svg height="160" viewBox="0 0 128 160" width="128" xmlns="http://www.w3.org/2000/svg">
<defs>
<path d="M 64 215 L 64 197 Q 64 181 68.5 165.5 Q 73 150 78 135 Q 83 120 89 105.5 Q 95 91 101 76.5 Q 107 62 113.5 47.5 Q 120 33 127 19 L 208 -152 L 127 -324 Q 112 -355 98.5 -386.5 Q 85 -418 75 -450 L 18 -450 L 18 -520 L 142 -520 L 142 -502 Q 142 -488 146 -475.5 Q 150 -463 154.5 -450.5 Q 159 -438 164 -426 Q 169 -414 174.5 -402 Q 180 -390 185.5 -378 Q 191 -366 197 -354 L 250 -242 L 303 -354 Q 309 -366 314.5 -378 Q 320 -390 325.5 -402 Q 331 -414 336 -426 Q 341 -438 345.5 -450.5 Q 350 -463 354 -475.5 Q 358 -488 358 -502 L 358 -520 L 436 -520 L 436 -502 Q 436 -486 431.5 -470.5 Q 427 -455 422 -440 Q 417 -425 411 -410.5 Q 405 -396 399 -381.5 Q 393 -367 386.5 -352.5 Q 380 -338 373 -324 L 292 -153 L 373 19 Q 380 33 386.5 47.5 Q 393 62 399 76.5 Q 405 91 411 105.5 Q 417 120 422 135 Q 427 150 431.5 165.5 Q 436 181 436 197 L 436 215 L 358 215 L 358 197 Q 358 183 354 170.5 Q 350 158 345.5 145.5 Q 341 133 336 121 Q 331 109 325.5 97 Q 320 85 314.5 73 Q 309 61 303 49 L 250 -63 L 197 49 Q 191 61 185.5 73 Q 180 85 174.5 97 Q 169 109 164 121 Q 159 133 154.5 145.5 Q 150 158 146 170.5 Q 142 183 142 197 L 142 215 Z " id="path1"/>
</defs>
<g data-source-text="χ" fill="#20242e" transform="translate(40 104.99201) rotate(0) scale(0.09599999)">
<use href="#path1" transform="translate(0 0)"/>
</g>
</svg>