<?xml version="1.0" encoding="UTF-8" standalone="no"?>
<svg height="160" viewBox="0 0 128 160" width="128" xmlns="http://www.w3.org/2000/svg">
<defs>
<path d="M 361 0 L 120 0 L 120 -70 L 199 -70 L 199 -403 L 120 -403 L 120 -473 L 199 -473 L 199 -566 Q 199 -589 203 -611.5 Q 207 -634 217 -654 Q 227 -674 243.5 -690.5 Q 260 -707 280 -717 Q 300 -727 322.5 -731 Q 345 -735 368 -735 L 436 -735 L 436 -665 L 368 -665 Q 349 -665 330.5 -658.5 Q 312 -652 299.5 -637.5 Q 287 -623 282 -604 Q 277 -585 277 -566 L 277 -70 L 361 -70 Z " id="path1"/>
</defs>
<g>
<g data-source-text="ſ" fill="#dee4e3" transform="translate(40 104.99201) rotate(0) scale(0.09599999)">
<use href="#path1" transform="translate(0 0)"/>
</g>
</g>
</svg>