<?xml version="1.0" encoding="UTF-8" standalone="no"?>
<svg height="160" viewBox="0 0 128 160" width="128" xmlns="http://www.w3.org/2000/svg">
<defs>
<path d="M 51 0 L 51 -471 Q 94 -499 144.5 -513.5 Q 195 -528 246 -528 Q 263 -528 280.5 -527 Q 298 -526 314.5 -523 Q 331 -520 347.5 -515 Q 364 -510 379.5 -502.5 Q 395 -495 408.5 -484 Q 422 -473 431.5 -458.5 Q 441 -444 445 -427.5 Q 449 -411 449 -394 L 449 -65 L 486 -65 L 486 0 L 377 0 L 377 -394 Q 377 -409 368 -422.5 Q 359 -436 345.5 -443.5 Q 332 -451 317 -455 Q 302 -459 286 -461 L 286 -205 L 214 -205 L 214 -461 Q 190 -458 167 -451.5 Q 144 -445 123 -435 L 123 0 Z " id="path1"/>
</defs>
<g>
<g data-source-text="m" fill="#20242e" transform="translate(40 104.99201) rotate(0) scale(0.09599999)">
<use href="#path1" transform="translate(0 0)"/>
</g>
</g>
</svg>