<svg xmlns="http://www.w3.org/2000/svg" height="160" viewBox="0 0 128 160" width="128"><defs><path d="M 483 8 C 469 8 455.00003 6.1666665 441 2.5000002 C 426.99997 -1.1666665 414.66666 -7.666667 404.00003 -17 C 393.3333 -26.333332 385.66666 -37.833336 381 -51.500004 C 376.3333 -65.16667 374 -79 374 -93.00001 L 374 -394.00003 C 374 -401.33334 373.5 -408.5 372.50003 -415.50003 C 371.50003 -422.5 369.33334 -429.3333 366.00003 -436 C 362.6667 -442.66666 357.83334 -448 351.5 -452.00003 C 345.16666 -455.99997 338.33334 -457.99997 331.00003 -458 C 324.33334 -457.99997 317.83334 -455.99997 311.5 -452.00003 C 305.16666 -448 300.33334 -442.66666 297.00003 -436 C 293.66666 -429.3333 291.49997 -422.5 290.5 -415.50003 C 289.5 -408.5 289 -401.33334 289 -394.00003 L 289 0 L 211.00002 0 L 211.00002 -394.00003 C 211.00002 -401.33334 210.50002 -408.5 209.5 -415.50003 C 208.5 -422.5 206.33333 -429.3333 203.00002 -436 C 199.66667 -442.66666 194.83333 -448 188.50002 -452.00003 C 182.16666 -455.99997 175.66667 -457.99997 169.00002 -458 C 161.66667 -457.99997 154.83334 -455.99997 148.50002 -452.00003 C 142.16666 -448 137.33333 -442.66666 134 -436 C 130.66667 -429.3333 128.5 -422.5 127.5 -415.50003 C 126.49999 -408.5 125.99999 -401.33334 126 -394.00003 L 126 0 L 48 0 L 48 -450.00003 L 2 -450.00003 L 2 -520.00006 L 126 -520.00006 L 126 -478.00003 C 129.33334 -485.33334 133.33334 -492.16666 138 -498.5 C 142.66667 -504.8333 148.16667 -510.3333 154.5 -515 C 160.83333 -519.6666 167.83333 -523 175.5 -525.00006 C 183.16667 -526.99994 190.99998 -528 199 -528 C 209 -528 218.66667 -526.3333 228.00002 -523 C 237.33334 -519.6666 245.5 -514.6666 252.5 -508.00003 C 259.5 -501.33334 265.33334 -493.66666 270 -485.00003 C 274.6667 -476.3333 278.33334 -467.00003 281 -457.00003 C 283.6667 -466.3333 287.33334 -475.5 292 -484.50003 C 296.66666 -493.5 302.33334 -501.33334 309 -508.00003 C 315.66666 -514.6666 323.66666 -519.6666 333 -523 C 342.3333 -526.3333 352 -528 362 -528 C 372 -528 381.8333 -526.1666 391.5 -522.5 C 401.1667 -518.8333 409.66666 -513.5 417.00003 -506.50003 C 424.33334 -499.5 430.16666 -491.33334 434.50003 -482 C 438.83334 -472.6667 442.3333 -463.1667 445.00003 -453.5 C 447.66666 -443.8333 449.50003 -434 450.50003 -424 C 451.50003 -414 452 -404.00003 452.00003 -394.00003 L 452.00003 -93.00001 C 452 -89.00001 452.5 -85 453.5 -81 C 454.5 -77 456.5 -73.5 459.5 -70.5 C 462.5 -67.5 465.99997 -65.33333 470 -64 C 474 -62.666668 478.33334 -62.000004 483 -62.000004 L 498 -62.000004 L 498 8 Z " id="path1"/></defs><g><g fill="#000000" transform="translate(40 105.20961) rotate(0)"><use href="#path1" transform="translate(0 0) scale(0.09599999)"/></g></g></svg>