<?xml version="1.0" encoding="UTF-8" standalone="no"?>
<svg height="160" viewBox="0 0 128 160" width="128" xmlns="http://www.w3.org/2000/svg">
<defs>
<path d="M 51 0 L 51 -471 Q 61 -484 73.5 -494.5 Q 86 -505 100.5 -512.5 Q 115 -520 131.5 -524 Q 148 -528 164 -528 Q 187 -528 209.5 -520.5 Q 232 -513 249 -496 Q 266 -509 286 -518.5 Q 306 -528 327 -528 Q 345 -528 362.5 -524 Q 380 -520 395 -510 Q 410 -500 421 -486 Q 432 -472 438 -455 Q 444 -438 446.5 -420.5 Q 449 -403 449 -385 L 449 0 L 377 0 L 377 -385 Q 377 -398 375 -411 Q 373 -424 367.5 -435.5 Q 362 -447 351 -455 Q 340 -463 327 -463 Q 314 -463 302 -456 Q 290 -449 280 -440 Q 284 -427 285 -413 Q 286 -399 286 -385 L 286 -205 L 214 -205 L 214 -385 Q 214 -398 212 -411 Q 210 -424 204.5 -435.5 Q 199 -447 188 -455 Q 177 -463 164 -463 Q 153 -463 142.5 -459 Q 132 -455 123 -448 L 123 0 Z " id="path1"/>
</defs>
<g>
<g data-source-text="m" fill="#20242e" transform="translate(40 104.99201) rotate(0) scale(0.09599999)">
<use href="#path1" transform="translate(0 0)"/>
</g>
</g>
</svg>