<svg xmlns="http://www.w3.org/2000/svg" height="160" viewBox="0 0 128 160" width="128"><defs><path d="M 483 8 C 469 8 455.00003 6.1666665 441 2.5000002 C 426.99997 -1.1666665 414.66666 -7.666667 404.00003 -17 C 393.3333 -26.333332 385.66666 -37.833336 381 -51.500004 C 376.3333 -65.16667 374 -79 374 -93.00001 L 374 -394.00003 C 374 -403.3333 371.1667 -412.16666 365.50003 -420.5 C 359.83334 -428.83334 352.8333 -435.33334 344.5 -440.00003 C 336.16666 -444.6667 327.16666 -448.16666 317.5 -450.50003 C 307.8333 -452.83334 298.33334 -454.66666 289 -456.00003 L 289 -203.00002 L 211.00002 -203.00002 L 211.00002 -455.00003 C 196.33333 -452.33334 182 -449 168.00002 -445.00003 C 154.00002 -441 140.00002 -436.33334 126 -431 L 126 0 L 48 0 L 48 -474.00003 C 80.666664 -491.33334 114.833336 -504.66666 150.5 -514.00006 C 186.16666 -523.3333 222.33331 -528 259 -528 C 273.66666 -528 288.33334 -527.1667 303 -525.50006 C 317.66666 -523.8333 332 -520.8333 346 -516.5 C 360 -512.1666 373.49997 -506.66663 386.5 -500 C 399.5 -493.33334 411.1667 -484.6667 421.50003 -474.00003 C 431.83337 -463.3333 439.50003 -451 444.50003 -437 C 449.50003 -423 452 -408.66666 452.00003 -394.00003 L 452.00003 -93.00001 C 452 -89.00001 452.5 -85 453.5 -81 C 454.5 -77 456.5 -73.5 459.5 -70.5 C 462.5 -67.5 465.99997 -65.33333 470 -64 C 474 -62.666668 478.33334 -62.000004 483 -62.000004 L 498 -62.000004 L 498 8 Z " id="path1"/></defs><g><g fill="#ffffff" transform="translate(40 105.20961) rotate(0)"><use href="#path1" transform="translate(0 0) scale(0.09599999)"/></g></g></svg>