<?xml version="1.0" encoding="UTF-8" standalone="no"?>
<svg height="160" viewBox="0 0 128 160" width="128" xmlns="http://www.w3.org/2000/svg">
<defs>
<path d="M 498 8 L 483 8 Q 462 8 441 2.5 Q 420 -3 404 -17 Q 388 -31 381 -51.5 Q 374 -72 374 -93 L 374 -394 Q 374 -405 372 -416 Q 370 -427 364.5 -437 Q 359 -447 349 -452.5 Q 339 -458 328 -458 Q 316 -458 305 -452.5 Q 294 -447 284 -439 Q 287 -428 288 -416.5 Q 289 -405 289 -394 L 289 -203 L 211 -203 L 211 -394 Q 211 -405 209 -416 Q 207 -427 201.5 -437 Q 196 -447 186 -452.5 Q 176 -458 165 -458 Q 154 -458 144 -454.5 Q 134 -451 126 -445 L 126 0 L 48 0 L 48 -471 Q 59 -484 72 -494.5 Q 85 -505 100 -512.5 Q 115 -520 131.5 -524 Q 148 -528 165 -528 Q 188 -528 211 -521 Q 234 -514 251 -498 Q 268 -510 287.5 -519 Q 307 -528 328 -528 Q 345 -528 362 -524.5 Q 379 -521 394 -512.5 Q 409 -504 420.5 -490.5 Q 432 -477 439 -461.5 Q 446 -446 449 -428.5 Q 452 -411 452 -394 L 452 -93 Q 452 -87 453.5 -81 Q 455 -75 459.5 -70.5 Q 464 -66 470 -64 Q 476 -62 483 -62 L 498 -62 Z " id="path1"/>
</defs>
<g>
<g data-source-text="m" fill="#dee4e3" transform="translate(40 104.99201) rotate(0) scale(0.09599999)">
<use href="#path1" transform="translate(0 0)"/>
</g>
</g>
</svg>