<?xml version="1.0" encoding="UTF-8" standalone="no"?>
<svg height="160" viewBox="0 0 128 160" width="128" xmlns="http://www.w3.org/2000/svg">
<defs>
<path d="M 495 8 L 474 8 Q 456 8 437 3 Q 418 -2 404 -14.5 Q 390 -27 383.5 -45 Q 377 -63 377 -82 L 377 -385 Q 377 -398 375.5 -410.5 Q 374 -423 369 -434.5 Q 364 -446 354 -454.5 Q 344 -463 332 -463 Q 319 -463 309 -454.5 Q 299 -446 294 -434.5 Q 289 -423 287.5 -410.5 Q 286 -398 286 -385 L 286 -205 L 214 -205 L 214 -385 Q 214 -398 212.5 -410.5 Q 211 -423 206 -434.5 Q 201 -446 191 -454.5 Q 181 -463 168 -463 Q 156 -463 146 -454.5 Q 136 -446 131 -434.5 Q 126 -423 124.5 -410.5 Q 123 -398 123 -385 L 123 0 L 51 0 L 51 -385 Q 51 -402 53 -419 Q 55 -436 60 -452 Q 65 -468 74 -482.5 Q 83 -497 96 -507.5 Q 109 -518 125.5 -523 Q 142 -528 159 -528 Q 173 -528 187 -525 Q 201 -522 213 -515 Q 225 -508 234.5 -497 Q 244 -486 250 -474 Q 256 -486 265.5 -497 Q 275 -508 287 -515 Q 299 -522 313 -525 Q 327 -528 341 -528 Q 358 -528 374.5 -523 Q 391 -518 404 -507.5 Q 417 -497 426 -482.5 Q 435 -468 440 -452 Q 445 -436 447 -419 Q 449 -402 449 -385 L 449 -82 Q 449 -77 450.5 -72 Q 452 -67 455.5 -63.5 Q 459 -60 464 -58.5 Q 469 -57 474 -57 L 495 -57 Z " id="path1"/>
</defs>
<g>
<g data-source-text="m" fill="#dee4e3" transform="translate(40 104.99201) rotate(0) scale(0.09599999)">
<use href="#path1" transform="translate(0 0)"/>
</g>
</g>
</svg>