<?xml version="1.0" encoding="UTF-8" standalone="no"?>
<svg height="160" viewBox="0 0 128 160" width="128" xmlns="http://www.w3.org/2000/svg">
<defs>
<path d="M 51 0 L 51 -471 Q 94 -499 144 -513.5 Q 194 -528 246 -528 Q 269 -528 292.5 -525.5 Q 316 -523 338.5 -517 Q 361 -511 382 -499.5 Q 403 -488 418.5 -471 Q 434 -454 441.5 -431.5 Q 449 -409 449 -385 L 449 -65 L 486 -65 L 486 0 L 377 0 L 377 -385 Q 377 -401 369 -415.5 Q 361 -430 347.5 -439.5 Q 334 -449 318 -453.5 Q 302 -458 286 -460 L 286 0 L 214 0 L 214 -461 Q 190 -458 167 -451.5 Q 144 -445 123 -435 L 123 0 Z " id="path1"/>
</defs>
<g>
<g data-source-text="m" fill="#20242e" transform="translate(40 104.99201) rotate(0) scale(0.09599999)">
<use href="#path1" transform="translate(0 0)"/>
</g>
</g>
</svg>