<svg xmlns="http://www.w3.org/2000/svg" height="160" viewBox="0 0 128 160" width="128"><defs><path d="M 483 8 C 469 8 455.00003 6.1666665 441 2.5000002 C 426.99997 -1.1666665 414.66666 -7.666667 404.00003 -17 C 393.3333 -26.333332 385.66666 -37.833336 381 -51.500004 C 376.3333 -65.16667 374 -79 374 -93.00001 L 374 -394.00003 C 374 -401.33334 373.5 -408.5 372.50003 -415.50003 C 371.50003 -422.5 369.33334 -429.3333 366.00003 -436 C 362.6667 -442.66666 357.83334 -448 351.5 -452.00003 C 345.16666 -455.99997 338.33334 -457.99997 331.00003 -458 C 323.6667 -457.99997 316.33334 -456.66666 309 -454 C 301.66666 -451.33334 295 -447.66666 289 -443 L 289 0 L 211.00002 0 L 211.00002 -446.00003 C 205.00002 -450.00003 198.33334 -453 191.00002 -455.00003 C 183.66667 -457 176.33333 -457.99997 169.00002 -458 C 161 -457.99997 153.33333 -457 146 -455.00003 C 138.66666 -453 132 -450.00003 126 -446.00003 L 126 0 L 48 0 L 48 -474.00003 C 63.333336 -491.33334 81.66667 -504.66666 103.00001 -514.00006 C 124.333336 -523.3333 146.33334 -528 169.00002 -528 C 183 -528 196.83334 -526.1666 210.50002 -522.5 C 224.16667 -518.8333 237.33334 -513.3333 250 -506.00003 C 262 -513.3333 274.99997 -518.8333 289 -522.5 C 302.99997 -526.1666 317 -528 331.00003 -528 C 342.3333 -528 353.6667 -526.8333 365.00003 -524.5 C 376.3333 -522.1667 387.00003 -518 397 -512 C 407 -505.99997 415.6667 -498.5 423.00003 -489.50003 C 430.33334 -480.5 436.1667 -470.8333 440.50003 -460.50003 C 444.83334 -450.1667 447.8333 -439.33337 449.50003 -428.00003 C 451.1667 -416.6667 452 -405.33334 452.00003 -394.00003 L 452.00003 -93.00001 C 452 -89.00001 452.5 -85 453.5 -81 C 454.5 -77 456.5 -73.5 459.5 -70.5 C 462.5 -67.5 465.99997 -65.33333 470 -64 C 474 -62.666668 478.33334 -62.000004 483 -62.000004 L 498 -62.000004 L 498 8 Z " id="path1"/></defs><g><g fill="#ffffff" transform="translate(40 105.20961) rotate(0)"><use href="#path1" transform="translate(0 0) scale(0.09599999)"/></g></g></svg>