<?xml version="1.0" encoding="UTF-8" standalone="no"?>
<svg height="160" viewBox="0 0 128 160" width="128" xmlns="http://www.w3.org/2000/svg">
<defs>
<path d="M 14 0 L 14 -70 L 48 -70 L 48 -474 Q 97 -500 150.5 -514 Q 204 -528 259 -528 Q 281 -528 303 -525.5 Q 325 -523 346 -516.5 Q 367 -510 386.5 -500 Q 406 -490 421.5 -474 Q 437 -458 444.5 -437 Q 452 -416 452 -394 L 452 -70 L 486 -70 L 486 0 L 374 0 L 374 -394 Q 374 -408 365.5 -420.5 Q 357 -433 344.5 -440 Q 332 -447 317.5 -450.5 Q 303 -454 289 -456 L 289 -203 L 211 -203 L 211 -454 Q 189 -451 168 -445 Q 147 -439 126 -431 L 126 0 Z " id="path1"/>
</defs>
<g>
<g data-source-text="m" fill="#20242e" transform="translate(40 104.99201) rotate(0) scale(0.09599999)">
<use href="#path1" transform="translate(0 0)"/>
</g>
</g>
</svg>