<?xml version="1.0" encoding="UTF-8" standalone="no"?>
<svg height="160" viewBox="0 0 128 160" width="128" xmlns="http://www.w3.org/2000/svg">
<defs>
<path d="M 51 0 L 51 -455 L 14 -455 L 14 -520 L 123 -520 L 123 -474 Q 128 -485 135 -495.5 Q 142 -506 151.5 -513.5 Q 161 -521 173 -524.5 Q 185 -528 198 -528 Q 213 -528 227 -522.5 Q 241 -517 251.5 -506.5 Q 262 -496 269 -482 Q 276 -468 280 -454 Q 283 -468 289.5 -482 Q 296 -496 306.5 -506.5 Q 317 -517 331.5 -522.5 Q 346 -528 361 -528 Q 376 -528 390 -522.5 Q 404 -517 415 -506.5 Q 426 -496 432.5 -482 Q 439 -468 443 -453.5 Q 447 -439 448 -424 Q 449 -409 449 -394 L 449 0 L 377 0 L 377 -394 Q 377 -405 375 -417 Q 373 -429 368 -439 Q 363 -449 353 -456 Q 343 -463 332 -463 Q 320 -463 310 -456 Q 300 -449 295 -439 Q 290 -429 288 -417 Q 286 -405 286 -394 L 286 -205 L 214 -205 L 214 -394 Q 214 -405 212 -417 Q 210 -429 205 -439 Q 200 -449 190 -456 Q 180 -463 168 -463 Q 157 -463 147 -456 Q 137 -449 132 -439 Q 127 -429 125 -417 Q 123 -405 123 -394 L 123 0 Z " id="path1"/>
</defs>
<g>
<g data-source-text="m" fill="#20242e" transform="translate(40 104.99201) rotate(0) scale(0.09599999)">
<use href="#path1" transform="translate(0 0)"/>
</g>
</g>
</svg>