<svg xmlns="http://www.w3.org/2000/svg" height="160" viewBox="0 0 128 160" width="128"><defs><path d="M 483 8 C 469 8 455.00003 6.1666665 441 2.5000002 C 426.99997 -1.1666665 414.66666 -7.666667 404.00003 -17 C 393.3333 -26.333332 385.66666 -37.833336 381 -51.500004 C 376.3333 -65.16667 374 -79 374 -93.00001 L 374 -394.00003 C 374 -401.33334 373.5 -408.5 372.50003 -415.50003 C 371.50003 -422.5 369.33334 -429.3333 366.00003 -436 C 362.6667 -442.66666 357.83334 -448 351.5 -452.00003 C 345.16666 -455.99997 338.33334 -457.99997 331.00003 -458 C 324.33334 -457.99997 317.83334 -455.99997 311.5 -452.00003 C 305.16666 -448 300.33334 -442.66666 297.00003 -436 C 293.66666 -429.3333 291.49997 -422.5 290.5 -415.50003 C 289.5 -408.5 289 -401.33334 289 -394.00003 L 289 -203.00002 L 211.00002 -203.00002 L 211.00002 -394.00003 C 211.00002 -401.33334 210.50002 -408.5 209.5 -415.50003 C 208.5 -422.5 206.33333 -429.3333 203.00002 -436 C 199.66667 -442.66666 194.83333 -448 188.50002 -452.00003 C 182.16666 -455.99997 175.66667 -457.99997 169.00002 -458 C 161.66667 -457.99997 154.83334 -455.99997 148.50002 -452.00003 C 142.16666 -448 137.33333 -442.66666 134 -436 C 130.66667 -429.3333 128.5 -422.5 127.5 -415.50003 C 126.49999 -408.5 125.99999 -401.33334 126 -394.00003 L 126 0 L 48 0 L 48 -394.00003 C 48 -410.00003 49.833336 -426.16666 53.500004 -442.5 C 57.166668 -458.8333 63.666664 -473.6667 73 -487 C 82.333336 -500.3333 94.833336 -510.5 110.5 -517.5 C 126.166664 -524.5 142 -528 158 -528 C 168.00002 -528 177.66667 -526.8333 187 -524.5 C 196.33333 -522.1667 205.16666 -518.5 213.50002 -513.50006 C 221.83333 -508.50003 229 -502.1667 235 -494.50003 C 241 -486.83334 246 -478.6667 250 -470 C 254 -478.6667 259 -486.83334 265 -494.50003 C 271 -502.1667 278.16666 -508.50003 286.5 -513.50006 C 294.83334 -518.5 303.6667 -522.1667 313 -524.5 C 322.33334 -526.8333 332 -528 342.00003 -528 C 358 -528 373.83334 -524.5 389.50003 -517.5 C 405.16663 -510.5 417.66666 -500.3333 427.00003 -487 C 436.3333 -473.6667 442.8333 -458.8333 446.50003 -442.5 C 450.1667 -426.16666 452 -410.00003 452.00003 -394.00003 L 452.00003 -93.00001 C 452 -89.00001 452.5 -85 453.5 -81 C 454.5 -77 456.5 -73.5 459.5 -70.5 C 462.5 -67.5 465.99997 -65.33333 470 -64 C 474 -62.666668 478.33334 -62.000004 483 -62.000004 L 498 -62.000004 L 498 8 Z " id="path1"/></defs><g><g fill="#ffffff" transform="translate(40 105.20961) rotate(0)"><use href="#path1" transform="translate(0 0) scale(0.09599999)"/></g></g></svg>