<?xml version="1.0" encoding="UTF-8" standalone="no"?>
<svg height="160" viewBox="0 0 128 160" width="128" xmlns="http://www.w3.org/2000/svg">
<defs>
<path d="M 495 8 L 474 8 Q 456 8 437 3 Q 418 -2 404 -14.5 Q 390 -27 383.5 -45 Q 377 -63 377 -82 L 377 -394 Q 377 -405 375 -417 Q 373 -429 368 -439 Q 363 -449 353 -456 Q 343 -463 332 -463 Q 320 -463 310 -456 Q 300 -449 295 -439 Q 290 -429 288 -417 Q 286 -405 286 -394 L 286 0 L 214 0 L 214 -394 Q 214 -405 212 -417 Q 210 -429 205 -439 Q 200 -449 190 -456 Q 180 -463 168 -463 Q 157 -463 147 -456 Q 137 -449 132 -439 Q 127 -429 125 -417 Q 123 -405 123 -394 L 123 0 L 51 0 L 51 -394 Q 51 -418 56 -442.5 Q 61 -467 75 -487 Q 89 -507 111.5 -517.5 Q 134 -528 159 -528 Q 173 -528 187.5 -524.5 Q 202 -521 214 -513 Q 226 -505 235 -493 Q 244 -481 250 -468 Q 256 -481 265 -493 Q 274 -505 286 -513 Q 298 -521 312.5 -524.5 Q 327 -528 341 -528 Q 366 -528 388.5 -517.5 Q 411 -507 425 -487 Q 439 -467 444 -442.5 Q 449 -418 449 -394 L 449 -82 Q 449 -77 450.5 -72 Q 452 -67 455.5 -63.5 Q 459 -60 464 -58.5 Q 469 -57 474 -57 L 495 -57 Z " id="path1"/>
</defs>
<g>
<g data-source-text="m" fill="#dee4e3" transform="translate(40 104.99201) rotate(0) scale(0.09599999)">
<use href="#path1" transform="translate(0 0)"/>
</g>
</g>
</svg>