<?xml version="1.0" encoding="UTF-8" standalone="no"?>
<svg height="160" viewBox="0 0 128 160" width="128" xmlns="http://www.w3.org/2000/svg">
<defs>
<path d="M 64 215 L 64 -520 L 142 -520 L 142 -200 Q 142 -183 144 -166.5 Q 146 -150 151 -134.5 Q 156 -119 165.5 -105 Q 175 -91 188 -81 Q 201 -71 217 -66.5 Q 233 -62 250 -62 Q 267 -62 283 -66.5 Q 299 -71 312 -81 Q 325 -91 334.5 -105 Q 344 -119 349 -134.5 Q 354 -150 356 -166.5 Q 358 -183 358 -200 L 358 -520 L 436 -520 L 436 0 L 358 0 L 358 -91 Q 350 -70 337 -50.5 Q 324 -31 305.5 -17.5 Q 287 -4 264.5 2 Q 242 8 220 8 Q 198 8 177 3 Q 156 -2 138 -14 Q 140 16 141 46.5 Q 142 77 142 108 L 142 215 Z " id="path1"/>
</defs>
<g>
<g data-source-text="µ" fill="#20242e" transform="translate(40 104.99201) rotate(0) scale(0.09599999)">
<use href="#path1" transform="translate(0 0)"/>
</g>
</g>
</svg>