<?xml version="1.0" encoding="UTF-8" standalone="no"?>
<svg height="160" viewBox="0 0 128 160" width="128" xmlns="http://www.w3.org/2000/svg">
<defs>
<path d="M 495 8 L 474 8 Q 456 8 437 3 Q 418 -2 404 -14.5 Q 390 -27 383.5 -45 Q 377 -63 377 -82 L 377 -385 Q 377 -398 375.5 -410.5 Q 374 -423 369 -434.5 Q 364 -446 354 -454.5 Q 344 -463 332 -463 Q 319 -463 309 -454.5 Q 299 -446 294 -434.5 Q 289 -423 287.5 -410.5 Q 286 -398 286 -385 L 286 0 L 214 0 L 214 -385 Q 214 -398 212.5 -410.5 Q 211 -423 206 -434.5 Q 201 -446 191 -454.5 Q 181 -463 168 -463 Q 156 -463 146 -454.5 Q 136 -446 131 -434.5 Q 126 -423 124.5 -410.5 Q 123 -398 123 -385 L 123 0 L 51 0 L 51 -520 L 123 -520 L 123 -473 Q 128 -485 135 -495 Q 142 -505 151.5 -513 Q 161 -521 173 -524.5 Q 185 -528 197 -528 Q 213 -528 227 -522 Q 241 -516 251.5 -505 Q 262 -494 268.5 -480 Q 275 -466 279 -452 Q 283 -466 289.5 -480 Q 296 -494 306.5 -505 Q 317 -516 331 -522 Q 345 -528 360 -528 Q 376 -528 391 -521.5 Q 406 -515 416.5 -503.5 Q 427 -492 433 -477.5 Q 439 -463 443 -447.5 Q 447 -432 448 -416.5 Q 449 -401 449 -385 L 449 -82 Q 449 -77 450.5 -72 Q 452 -67 455.5 -63.5 Q 459 -60 464 -58.5 Q 469 -57 474 -57 L 495 -57 Z " id="path1"/>
</defs>
<g>
<g data-source-text="m" fill="#20242e" transform="translate(40 104.99201) rotate(0) scale(0.09599999)">
<use href="#path1" transform="translate(0 0)"/>
</g>
</g>
</svg>