<?xml version="1.0" encoding="UTF-8" standalone="no"?>
<svg height="160" viewBox="0 0 128 160" width="128" xmlns="http://www.w3.org/2000/svg">
<defs>
<path d="M 48 0 L 48 -471 Q 97 -498 150.5 -513 Q 204 -528 259 -528 Q 276 -528 292.5 -526.5 Q 309 -525 325 -521.5 Q 341 -518 356.5 -513 Q 372 -508 386.5 -500 Q 401 -492 413.5 -481 Q 426 -470 435 -456 Q 444 -442 448 -426 Q 452 -410 452 -394 L 452 -70 L 486 -70 L 486 0 L 374 0 L 374 -394 Q 374 -408 365.5 -420.5 Q 357 -433 344.5 -440 Q 332 -447 317.5 -450.5 Q 303 -454 289 -456 L 289 0 L 211 0 L 211 -454 Q 189 -451 167.5 -444.5 Q 146 -438 126 -429 L 126 0 Z " id="path1"/>
</defs>
<g>
<g data-source-text="m" fill="#20242e" transform="translate(40 104.99201) rotate(0) scale(0.09599999)">
<use href="#path1" transform="translate(0 0)"/>
</g>
</g>
</svg>