<?xml version="1.0" encoding="UTF-8" standalone="no"?>
<svg height="160" viewBox="0 0 128 160" width="128" xmlns="http://www.w3.org/2000/svg">
<defs>
<path d="M 48 0 L 48 -471 Q 59 -484 72.5 -495 Q 86 -506 102 -513 Q 118 -520 134.5 -524 Q 151 -528 169 -528 Q 191 -528 213 -521 Q 235 -514 252 -498 Q 270 -510 290 -519 Q 310 -528 331 -528 Q 348 -528 365 -524.5 Q 382 -521 396.5 -512 Q 411 -503 422 -489.5 Q 433 -476 440 -460.5 Q 447 -445 449.5 -428 Q 452 -411 452 -394 L 452 0 L 374 0 L 374 -394 Q 374 -405 372.5 -415.5 Q 371 -426 366 -436 Q 361 -446 351.5 -452 Q 342 -458 331 -458 Q 318 -458 306.5 -452 Q 295 -446 285 -438 Q 287 -428 288 -416.5 Q 289 -405 289 -394 L 289 -203 L 211 -203 L 211 -394 Q 211 -405 209.5 -415.5 Q 208 -426 203 -436 Q 198 -446 188.5 -452 Q 179 -458 169 -458 Q 157 -458 146 -454.5 Q 135 -451 126 -444 L 126 0 Z " id="path1"/>
</defs>
<g>
<g data-source-text="m" fill="#dee4e3" transform="translate(40 104.99201) rotate(0) scale(0.09599999)">
<use href="#path1" transform="translate(0 0)"/>
</g>
</g>
</svg>