<?xml version="1.0" encoding="UTF-8" standalone="no"?>
<svg height="160" viewBox="0 0 128 160" width="128" xmlns="http://www.w3.org/2000/svg">
<defs>
<path d="M 498 8 L 483 8 Q 462 8 441 2.5 Q 420 -3 404 -17 Q 388 -31 381 -51.5 Q 374 -72 374 -93 L 374 -394 Q 374 -405 372.5 -415.5 Q 371 -426 366 -436 Q 361 -446 351.5 -452 Q 342 -458 331 -458 Q 321 -458 311.5 -452 Q 302 -446 297 -436 Q 292 -426 290.5 -415.5 Q 289 -405 289 -394 L 289 0 L 211 0 L 211 -394 Q 211 -405 209.5 -415.5 Q 208 -426 203 -436 Q 198 -446 188.5 -452 Q 179 -458 169 -458 Q 158 -458 148.5 -452 Q 139 -446 134 -436 Q 129 -426 127.5 -415.5 Q 126 -405 126 -394 L 126 0 L 48 0 L 48 -394 Q 48 -418 53.5 -442.5 Q 59 -467 73 -487 Q 87 -507 110.5 -517.5 Q 134 -528 158 -528 Q 173 -528 187 -524.5 Q 201 -521 213.5 -513.5 Q 226 -506 235 -494.5 Q 244 -483 250 -470 Q 256 -483 265 -494.5 Q 274 -506 286.5 -513.5 Q 299 -521 313 -524.5 Q 327 -528 342 -528 Q 366 -528 389.5 -517.5 Q 413 -507 427 -487 Q 441 -467 446.5 -442.5 Q 452 -418 452 -394 L 452 -93 Q 452 -87 453.5 -81 Q 455 -75 459.5 -70.5 Q 464 -66 470 -64 Q 476 -62 483 -62 L 498 -62 Z " id="path1"/>
</defs>
<g>
<g data-source-text="m" fill="#dee4e3" transform="translate(40 104.99201) rotate(0) scale(0.09599999)">
<use href="#path1" transform="translate(0 0)"/>
</g>
</g>
</svg>