<?xml version="1.0" encoding="UTF-8" standalone="no"?>
<svg height="160" viewBox="0 0 128 160" width="128" xmlns="http://www.w3.org/2000/svg">
<defs>
<path d="M 14 0 L 14 -70 L 48 -70 L 48 -471 Q 92 -499 143 -513.5 Q 194 -528 246 -528 Q 263 -528 280.5 -527 Q 298 -526 315 -523 Q 332 -520 348.5 -515 Q 365 -510 380.5 -502.5 Q 396 -495 409.5 -484 Q 423 -473 433 -459 Q 443 -445 447.5 -428 Q 452 -411 452 -394 L 452 -70 L 486 -70 L 486 0 L 374 0 L 374 -394 Q 374 -408 365.5 -420 Q 357 -432 344 -439 Q 331 -446 317 -450 Q 303 -454 289 -456 L 289 -203 L 211 -203 L 211 -456 Q 189 -453 167.5 -447 Q 146 -441 126 -431 L 126 0 Z " id="path1"/>
</defs>
<g>
<g data-source-text="m" fill="#20242e" transform="translate(40 104.99201) rotate(0) scale(0.09599999)">
<use href="#path1" transform="translate(0 0)"/>
</g>
</g>
</svg>