<?xml version="1.0" encoding="UTF-8" standalone="no"?>
<svg height="160" viewBox="0 0 128 160" width="128" xmlns="http://www.w3.org/2000/svg">
<defs>
<path d="M 483 8 Q 462 8 441 2.5 Q 420 -3 404 -17 Q 388 -31 381 -51.5 Q 374 -72 374 -93 L 374 -394 Q 374 -405 372.5 -415.5 Q 371 -426 366 -436 Q 361 -446 351.5 -452 Q 342 -458 331 -458 Q 320 -458 309 -454 Q 298 -450 289 -443 L 289 -203 L 211 -203 L 211 -446 Q 202 -452 191 -455 Q 180 -458 169 -458 Q 157 -458 146 -455 Q 135 -452 126 -446 L 126 0 L 48 0 L 48 -474 Q 71 -500 103 -514 Q 135 -528 169 -528 Q 190 -528 210.5 -522.5 Q 231 -517 250 -506 Q 268 -517 289 -522.5 Q 310 -528 331 -528 Q 348 -528 365 -524.5 Q 382 -521 397 -512 Q 412 -503 423 -489.5 Q 434 -476 440.5 -460.5 Q 447 -445 449.5 -428 Q 452 -411 452 -394 L 452 -93 Q 452 -87 453.5 -81 Q 455 -75 459.5 -70.5 Q 464 -66 470 -64 Q 476 -62 483 -62 L 498 -62 L 498 8 Z " id="path1"/>
</defs>
<g>
<g data-source-text="m" fill="#20242e" transform="translate(40 104.99201) rotate(0) scale(0.09599999)">
<use href="#path1" transform="translate(0 0)"/>
</g>
</g>
</svg>