<?xml version="1.0" encoding="UTF-8" standalone="no"?>
<svg height="160" viewBox="0 0 128 160" width="128" xmlns="http://www.w3.org/2000/svg">
<defs>
<path d="M 498 8 L 483 8 Q 462 8 441 2.5 Q 420 -3 404 -17 Q 388 -31 381 -51.5 Q 374 -72 374 -93 L 374 -394 Q 374 -408 365.5 -420 Q 357 -432 344 -439 Q 331 -446 317 -450 Q 303 -454 289 -456 L 289 -203 L 211 -203 L 211 -456 Q 189 -453 167.5 -447 Q 146 -441 126 -431 L 126 0 L 48 0 L 48 -471 Q 92 -499 143 -513.5 Q 194 -528 246 -528 Q 263 -528 280.5 -527 Q 298 -526 315 -523 Q 332 -520 348.5 -515 Q 365 -510 380.5 -502.5 Q 396 -495 409.5 -484 Q 423 -473 433 -459 Q 443 -445 447.5 -428 Q 452 -411 452 -394 L 452 -93 Q 452 -87 453.5 -81 Q 455 -75 459.5 -70.5 Q 464 -66 470 -64 Q 476 -62 483 -62 L 498 -62 Z " id="path1"/>
</defs>
<g>
<g data-source-text="m" fill="#dee4e3" transform="translate(40 104.99201) rotate(0) scale(0.09599999)">
<use href="#path1" transform="translate(0 0)"/>
</g>
</g>
</svg>