<svg xmlns="http://www.w3.org/2000/svg" height="160" viewBox="0 0 128 160" width="128"><defs><path d="M 467.00003 8 C 453 8 438.99997 6.1666665 425 2.5000002 C 411.00003 -1.1666665 398.83337 -7.666667 388.50003 -17 C 378.1667 -26.333332 370.50003 -37.833336 365.50003 -51.500004 C 360.50003 -65.16667 358 -79 358 -93.00001 L 358 -320.00003 C 358 -331.33334 357.33334 -342.49997 356 -353.50003 C 354.6667 -364.49997 352.33334 -375.16666 349.00003 -385.5 C 345.6667 -395.83334 340.83334 -405.6667 334.5 -415 C 328.1667 -424.33334 320.6667 -432.3333 312 -439.00003 C 303.33334 -445.66666 293.6667 -450.5 283.00003 -453.5 C 272.33334 -456.5 261.33334 -457.99997 250 -458 C 238.66666 -457.99997 227.66666 -456.5 217.00002 -453.5 C 206.33333 -450.5 196.66666 -445.66666 188.00002 -439.00003 C 179.33333 -432.3333 171.83333 -424.33334 165.50002 -415 C 159.16667 -405.6667 154.33334 -395.83334 151 -385.5 C 147.66666 -375.16666 145.33333 -364.49997 144.00002 -353.50003 C 142.66666 -342.49997 142 -331.33334 142 -320.00003 L 142 0 L 64 0 L 64 -320.00003 C 64 -337.33334 65.333336 -354.83334 68 -372.50003 C 70.66667 -390.1667 75.333336 -407.1667 82.00001 -423.50003 C 88.666664 -439.83334 97.666664 -454.8333 109 -468.50003 C 120.33333 -482.16666 133.5 -493.66666 148.50002 -503.00003 C 163.5 -512.3333 179.83334 -518.8333 197.50002 -522.5 C 215.16666 -526.1666 232.66666 -528 250 -528 C 267.33334 -528 284.83334 -526.1666 302.50003 -522.5 C 320.16666 -518.8333 336.49997 -512.3333 351.5 -503.00003 C 366.5 -493.66666 379.66666 -482.16666 391 -468.50003 C 402.3333 -454.8333 411.33334 -439.83334 418.00003 -423.50003 C 424.66666 -407.1667 429.33334 -390.1667 432 -372.50003 C 434.66666 -354.83334 435.99997 -337.33334 436 -320.00003 L 436 -93.00001 C 435.99997 -89.00001 436.66666 -85 438.00003 -81 C 439.33337 -77 441.50003 -73.5 444.50003 -70.5 C 447.5 -67.5 451 -65.33333 455.00003 -64 C 459 -62.666668 463 -62.000004 467.00003 -62.000004 L 482 -62.000004 L 482 8 Z " id="path1"/></defs><g><g fill="#ffffff" transform="translate(40 105.20961) rotate(0)"><use href="#path1" transform="translate(0 0) scale(0.09599999)"/></g></g></svg>