<?xml version="1.0" encoding="UTF-8" standalone="no"?>
<svg height="160" viewBox="0 0 128 160" width="128" xmlns="http://www.w3.org/2000/svg">
<defs>
<path d="M 253 8 Q 228 8 203 3.5 Q 178 -1 155.5 -12 Q 133 -23 115 -40.5 Q 97 -58 85 -80 Q 73 -102 67.5 -126.5 Q 62 -151 62 -176 L 62 -178 L 140 -178 L 140 -177 Q 140 -154 147 -132 Q 154 -110 170 -93.5 Q 186 -77 208 -69.5 Q 230 -62 253 -62 Q 270 -62 286.5 -66 Q 303 -70 317 -80 Q 331 -90 340.5 -104 Q 350 -118 356 -133.5 Q 362 -149 364 -166 Q 366 -183 366 -200 L 366 -345 Q 356 -331 343 -319.5 Q 330 -308 314 -300.5 Q 298 -293 280.5 -290.5 Q 263 -288 246 -288 Q 219 -288 193 -293.5 Q 167 -299 144 -312.5 Q 121 -326 103 -346.5 Q 85 -367 74.5 -391.5 Q 64 -416 60 -442.5 Q 56 -469 56 -496 L 56 -535 Q 56 -562 60 -589 Q 64 -616 75 -640.5 Q 86 -665 104.5 -685.5 Q 123 -706 146 -719 Q 169 -732 196 -737.5 Q 223 -743 250 -743 Q 277 -743 304 -737.5 Q 331 -732 354 -719 Q 377 -706 395.5 -685.5 Q 414 -665 425 -640.5 Q 436 -616 440 -589 Q 444 -562 444 -535 L 444 -200 Q 444 -173 440 -146.5 Q 436 -120 425 -95.5 Q 414 -71 396.5 -50.5 Q 379 -30 356 -16.5 Q 333 -3 306 2.5 Q 279 8 253 8 Z M 249 -358 Q 267 -358 283.5 -362 Q 300 -366 314.5 -375.5 Q 329 -385 339.5 -399 Q 350 -413 356 -429 Q 362 -445 364 -462 Q 366 -479 366 -496 L 366 -535 Q 366 -552 364 -569 Q 362 -586 356 -602 Q 350 -618 339.5 -632 Q 329 -646 315 -655.5 Q 301 -665 284 -669 Q 267 -673 250 -673 Q 233 -673 216 -669 Q 199 -665 185 -655.5 Q 171 -646 160.5 -632 Q 150 -618 144 -602 Q 138 -586 136 -569 Q 134 -552 134 -535 L 134 -496 Q 134 -479 136 -462 Q 138 -445 144 -429 Q 150 -413 160 -399 Q 170 -385 184.5 -375.5 Q 199 -366 215.5 -362 Q 232 -358 249 -358 Z " id="path1"/>
</defs>
<g>
<g data-source-text="9" fill="#20242e" transform="translate(40 104.99201) rotate(0) scale(0.09599999)">
<use href="#path1" transform="translate(0 0)"/>
</g>
</g>
</svg>