<?xml version="1.0" encoding="UTF-8" standalone="no"?>
<svg height="160" viewBox="0 0 128 160" width="128" xmlns="http://www.w3.org/2000/svg">
<defs>
<path d="M 118 106 L 118 -127 L 31 -127 L 31 -197 L 118 -197 L 118 -483 L 31 -483 L 31 -553 L 118 -553 L 118 -786 L 192 -786 L 192 -553 L 308 -553 L 308 -786 L 382 -786 L 382 -553 L 469 -553 L 469 -483 L 382 -483 L 382 -197 L 469 -197 L 469 -127 L 382 -127 L 382 106 L 308 106 L 308 -127 L 192 -127 L 192 106 Z M 192 -197 L 308 -197 L 308 -483 L 192 -483 Z " id="path1"/>
</defs>
<g>
<g data-source-text="#" fill="#20242e" transform="translate(40 104.99201) rotate(0) scale(0.09599999)">
<use href="#path1" transform="translate(0 0)"/>
</g>
</g>
</svg>