<?xml version="1.0" encoding="UTF-8" standalone="no"?>
<svg height="160" viewBox="0 0 128 160" width="128" xmlns="http://www.w3.org/2000/svg">
<defs>
<path d="M 482 8 L 467 8 Q 446 8 425 2.5 Q 404 -3 388.5 -17 Q 373 -31 365.5 -51.5 Q 358 -72 358 -93 L 358 -320 Q 358 -337 356 -353.5 Q 354 -370 349 -385.5 Q 344 -401 334.5 -415 Q 325 -429 312 -439 Q 299 -449 283 -453.5 Q 267 -458 250 -458 Q 233 -458 217 -453.5 Q 201 -449 188 -439 Q 175 -429 165.5 -415 Q 156 -401 151 -385.5 Q 146 -370 144 -353.5 Q 142 -337 142 -320 L 142 0 L 64 0 L 64 -320 Q 64 -346 68 -372.5 Q 72 -399 82 -423.5 Q 92 -448 109 -468.5 Q 126 -489 148.5 -503 Q 171 -517 197.5 -522.5 Q 224 -528 250 -528 Q 276 -528 302.5 -522.5 Q 329 -517 351.5 -503 Q 374 -489 391 -468.5 Q 408 -448 418 -423.5 Q 428 -399 432 -372.5 Q 436 -346 436 -320 L 436 -93 Q 436 -87 438 -81 Q 440 -75 444.5 -70.5 Q 449 -66 455 -64 Q 461 -62 467 -62 L 482 -62 Z " id="path1"/>
</defs>
<g>
<g data-source-text="n" fill="#20242e" transform="translate(40 104.99201) rotate(0) scale(0.09599999)">
<use href="#path1" transform="translate(0 0)"/>
</g>
</g>
</svg>