<svg xmlns="http://www.w3.org/2000/svg" height="160" viewBox="0 0 128 160" width="128"><defs><path d="M 115 -18.000002 L 115 -193 L 29 -193 L 29 -263.00003 L 115 -263.00003 L 115 -472.00003 L 29 -472.00003 L 29 -542.00006 L 115 -542.00006 L 115 -717 L 193 -717 L 193 -542.00006 L 307 -542.00006 L 307 -717 L 385 -717 L 385 -542.00006 L 471 -542.00006 L 471 -472.00003 L 385 -472.00003 L 385 -263.00003 L 471 -263.00003 L 471 -193 L 385 -193 L 385 -18.000002 L 307 -18.000002 L 307 -193 L 193 -193 L 193 -18.000002 Z M 193 -263.00003 L 307 -263.00003 L 307 -472.00003 L 193 -472.00003 Z " id="path1"/></defs><g><g fill="#ffffff" transform="translate(40 105.20961) rotate(0)"><use href="#path1" transform="translate(0 0) scale(0.09599999)"/></g></g></svg>