<?xml version="1.0" encoding="UTF-8" standalone="no"?>
<svg height="160" viewBox="0 0 128 160" width="128" xmlns="http://www.w3.org/2000/svg">
<defs>
<path d="M 18 0 L 18 -70 L 64 -70 L 64 -471 Q 102 -498 147.5 -513 Q 193 -528 240 -528 Q 267 -528 294 -523 Q 321 -518 344.5 -504.5 Q 368 -491 386.5 -470.5 Q 405 -450 416 -425.5 Q 427 -401 431.5 -374 Q 436 -347 436 -320 L 436 -70 L 482 -70 L 482 0 L 312 0 L 312 -70 L 358 -70 L 358 -320 Q 358 -337 356 -354 Q 354 -371 347.5 -387.5 Q 341 -404 330.5 -417.5 Q 320 -431 305.5 -440.5 Q 291 -450 274 -454 Q 257 -458 240 -458 Q 214 -458 189 -452 Q 164 -446 142 -434 L 142 -70 L 188 -70 L 188 0 Z " id="path1"/>
</defs>
<g>
<g data-source-text="n" fill="#dee4e3" transform="translate(40 104.99201) rotate(0) scale(0.09599999)">
<use href="#path1" transform="translate(0 0)"/>
</g>
</g>
</svg>