<svg xmlns="http://www.w3.org/2000/svg" height="160" viewBox="0 0 128 160" width="128"><defs><path d="M 139 8 L 122 -60.000004 C 152.66667 -67.333336 181.5 -79.666664 208.50002 -97.00001 C 235.5 -114.333336 258.66666 -135.16667 278 -159.50002 C 297.33334 -183.83333 313 -210.83334 325.00003 -240.5 C 337.00003 -270.1667 345.66666 -300.33334 351 -331.00003 C 345 -323.6667 337.83334 -317 329.5 -311.00003 C 321.1667 -305 312.5 -300.33334 303.5 -297.00003 C 294.5 -293.66666 285 -291.3333 275 -290 C 265 -288.6667 255.33336 -288 246.00002 -288.00003 C 227.33333 -288 208.83333 -290.33334 190.5 -295 C 172.16667 -299.6667 155.33333 -307.33334 140.00002 -318 C 124.66667 -328.66666 111.333336 -341.49997 100.00001 -356.5 C 88.66667 -371.5 79.666664 -387.83334 73 -405.50003 C 66.33333 -423.1667 61.833332 -441.16666 59.5 -459.5 C 57.166668 -477.8333 55.999996 -496.33328 56 -515 C 55.999996 -534.3333 57.333332 -553.3333 60.000004 -572 C 62.666668 -590.6667 67.333336 -608.8333 74 -626.5 C 80.66667 -644.1666 89.83334 -660.6666 101.50001 -676.00006 C 113.166664 -691.3334 126.833336 -704.16675 142.5 -714.50006 C 158.16667 -724.8334 175.33334 -732.1666 194.00002 -736.50006 C 212.66667 -740.8333 231.33334 -743.00006 250 -743.00006 C 270 -743.00006 289.6667 -740.3333 309 -735 C 328.33334 -729.6666 345.83334 -721 361.5 -709.00006 C 377.16663 -696.99994 390.5 -682.5 401.5 -665.5 C 412.5 -648.5 421.16666 -630.6667 427.50003 -612 C 433.83334 -593.3333 438.16666 -574 440.50003 -554.00006 C 442.83334 -534 444.00003 -514.00006 444.00003 -494 C 444.00003 -458.66666 442 -423.16666 438.00003 -387.50003 C 434.00003 -351.8333 427.83334 -316.8333 419.5 -282.50003 C 411.1667 -248.16669 399.00003 -214.83334 383.00003 -182.50002 C 367.00003 -150.16667 346.83337 -120.99999 322.50003 -95 C 298.1667 -69 270.16666 -47.166668 238.5 -29.500002 C 206.83333 -11.833334 173.66669 0.6666669 139 8 Z M 249 -358 C 261.66666 -358 274 -359.83334 286 -363.5 C 298 -367.1667 308.6667 -372.83334 318 -380.5 C 327.33334 -388.1667 335.16666 -397.5 341.5 -408.5 C 347.8333 -419.49997 352.8333 -430.8333 356.5 -442.5 C 360.16663 -454.16666 362.66666 -466.16666 364 -478.50003 C 365.33334 -490.83334 366.00003 -503 366.00003 -515 C 366.00003 -516.3333 366.00003 -517.5 366.00003 -518.5 C 366.00003 -519.50006 366.00003 -520.6667 366.00003 -522 C 365.33334 -534 364 -545.8333 362 -557.5 C 360 -569.1667 357 -580.5 353.00003 -591.5 C 349 -602.5 344 -613.1667 338.00003 -623.5 C 332 -633.8334 324.5 -642.8334 315.5 -650.50006 C 306.5 -658.1667 296.33334 -663.8334 285 -667.50006 C 273.66666 -671.1667 262 -673.00006 250 -673.00006 C 238 -673.00006 226 -671.1667 214.00002 -667.50006 C 202.00002 -663.8334 191.16667 -658 181.5 -650.00006 C 171.83333 -642 163.83333 -632.6667 157.5 -622.00006 C 151.16666 -611.3333 146.33333 -600.1667 143 -588.50006 C 139.66667 -576.8334 137.33334 -564.8333 136 -552.5 C 134.66667 -540.1667 134 -527.6667 134 -515 C 134 -503 134.66667 -490.83334 136 -478.50003 C 137.33334 -466.16666 139.66667 -454.16666 143 -442.5 C 146.33333 -430.8333 151.16666 -419.66666 157.5 -409 C 163.83333 -398.3333 171.66667 -389 181 -381 C 190.33333 -373 200.99998 -367.1667 213 -363.5 C 224.99998 -359.83334 237 -358 249 -358 Z " id="path1"/></defs><g><g fill="#ffffff" transform="translate(40 105.20961) rotate(0)"><use href="#path1" transform="translate(0 0) scale(0.09599999)"/></g></g></svg>