<svg xmlns="http://www.w3.org/2000/svg" height="160" viewBox="0 0 128 160" width="128"><defs><path d="M 252 0 L 166 0 L 268 -202.00002 C 276 -218 284.33334 -234.00002 293 -250 C 301.66666 -266 310.66666 -282 320.00003 -298 L 321 -300.00003 C 321 -300 321 -300 321 -300.00003 C 321 -300 321 -300 321 -300.00003 L 322.00003 -302 C 310 -296.66666 297.83334 -293 285.50003 -291.00003 C 273.16666 -289 260.6667 -288 248.00002 -288.00003 C 229.33334 -288 210.66666 -290.16666 192 -294.5 C 173.33333 -298.8333 156.33333 -306.33334 141 -317.00003 C 125.666664 -327.66666 112.166664 -340.66666 100.5 -356 C 88.833336 -371.33334 79.666664 -387.6667 73 -405.00003 C 66.33333 -422.33334 61.833332 -440.3333 59.5 -459 C 57.166668 -477.66663 55.999996 -496.33328 56 -515 C 55.999996 -534.3333 57.333332 -553.3333 60.000004 -572 C 62.666668 -590.6667 67.333336 -608.8333 74 -626.5 C 80.66667 -644.1666 89.83334 -660.6666 101.50001 -676.00006 C 113.166664 -691.3334 126.833336 -704.16675 142.5 -714.50006 C 158.16667 -724.8334 175.33334 -732.1666 194.00002 -736.50006 C 212.66667 -740.8333 231.33334 -743.00006 250 -743.00006 C 270 -743.00006 289.6667 -740.3333 309 -735 C 328.33334 -729.6666 345.83334 -721 361.5 -709.00006 C 377.16663 -696.99994 390.5 -682.5 401.5 -665.5 C 412.5 -648.5 421.16666 -630.6667 427.50003 -612 C 433.83334 -593.3333 438.16666 -574 440.50003 -554.00006 C 442.83334 -534 444.00003 -514.00006 444.00003 -494 C 444.00003 -465.3333 441 -437 435.00003 -409 C 429 -380.99997 420.8333 -353.49997 410.50003 -326.5 C 400.1667 -299.5 388.6667 -273.16666 376.00003 -247.50002 C 363.3333 -221.83333 350.3333 -196.33333 337.00003 -171.00002 Z M 250 -358 C 262 -358 274 -359.83334 286 -363.5 C 298 -367.1667 308.6667 -372.83334 318 -380.5 C 327.33334 -388.1667 335.16666 -397.5 341.5 -408.5 C 347.8333 -419.49997 352.8333 -430.8333 356.5 -442.5 C 360.16663 -454.16666 362.66666 -466.16666 364 -478.50003 C 365.33334 -490.83334 366.00003 -503 366.00003 -515 C 366.00003 -527.6667 365.33334 -540.1667 364 -552.5 C 362.66666 -564.8333 360.33328 -576.8334 357 -588.50006 C 353.66663 -600.1667 348.83334 -611.3333 342.50003 -622.00006 C 336.16666 -632.6667 328.16666 -642 318.5 -650.00006 C 308.83334 -658 298 -663.8334 286 -667.50006 C 274 -671.1667 262 -673.00006 250 -673.00006 C 238 -673.00006 226 -671.1667 214.00002 -667.50006 C 202.00002 -663.8334 191.16667 -658 181.5 -650.00006 C 171.83333 -642 163.83333 -632.6667 157.5 -622.00006 C 151.16666 -611.3333 146.33333 -600.1667 143 -588.50006 C 139.66667 -576.8334 137.33334 -564.8333 136 -552.5 C 134.66667 -540.1667 134 -527.6667 134 -515 C 134 -503 134.66667 -490.83334 136 -478.50003 C 137.33334 -466.16666 139.66667 -454.16666 143 -442.5 C 146.33333 -430.8333 151.16666 -419.66666 157.5 -409 C 163.83333 -398.3333 171.66667 -389 181 -381 C 190.33333 -373 200.99998 -367.1667 213 -363.5 C 224.99998 -359.83334 237.33334 -358 250 -358 Z " id="path1"/></defs><g><g fill="#ffffff" transform="translate(40 105.20961) rotate(0)"><use href="#path1" transform="translate(0 0) scale(0.09599999)"/></g></g></svg>