<?xml version="1.0" encoding="UTF-8" standalone="no"?>
<svg height="160" viewBox="0 0 128 160" width="128" xmlns="http://www.w3.org/2000/svg">
<defs>
<path d="M 115 106 L 115 -127 L 29 -127 L 29 -197 L 115 -197 L 115 -483 L 29 -483 L 29 -553 L 115 -553 L 115 -786 L 193 -786 L 193 -553 L 307 -553 L 307 -786 L 385 -786 L 385 -553 L 471 -553 L 471 -483 L 385 -483 L 385 -197 L 471 -197 L 471 -127 L 385 -127 L 385 106 L 307 106 L 307 -127 L 193 -127 L 193 106 Z M 193 -197 L 307 -197 L 307 -483 L 193 -483 Z " id="path1"/>
</defs>
<g>
<g data-source-text="#" fill="#dee4e3" transform="translate(40 104.99201) rotate(0) scale(0.09599999)">
<use href="#path1" transform="translate(0 0)"/>
</g>
</g>
</svg>