<?xml version="1.0" encoding="UTF-8" standalone="no"?>
<svg height="160" viewBox="0 0 128 160" width="128" xmlns="http://www.w3.org/2000/svg">
<defs>
<path d="M 52 106 L 86 -127 L 9 -127 L 9 -197 L 97 -197 L 139 -483 L 53 -483 L 53 -553 L 149 -553 L 184 -786 L 258 -786 L 223 -553 L 340 -553 L 374 -786 L 448 -786 L 414 -553 L 491 -553 L 491 -483 L 403 -483 L 361 -197 L 447 -197 L 447 -127 L 351 -127 L 316 106 L 242 106 L 277 -127 L 160 -127 L 126 106 Z M 171 -197 L 287 -197 L 329 -483 L 213 -483 Z " id="path1"/>
</defs>
<g>
<g data-source-text="#" fill="#20242e" transform="translate(40 104.99201) rotate(0) scale(0.09599999)">
<use href="#path1" transform="translate(0 0)"/>
</g>
</g>
</svg>