<svg xmlns="http://www.w3.org/2000/svg" height="160" viewBox="0 0 128 160" width="128"><defs><path d="M 64 0 L 64 -474.00003 C 92.66667 -490.00003 123 -503 155 -513 C 187 -523 219.66669 -528 253.00002 -528 C 270.33334 -528 287.66666 -525.99994 305.00003 -522 C 322.33334 -518 338.33334 -511.3333 353.00003 -502.00003 C 367.66666 -492.66666 380.66666 -481.1667 392 -467.50003 C 403.33334 -453.83334 412.33334 -438.83334 419 -422.50003 C 425.66666 -406.16666 430.16666 -389.33334 432.50003 -372.00003 C 434.8333 -354.6667 435.99997 -337.33334 436 -320.00003 L 436 0 L 358 0 L 358 -320.00003 C 358 -331.33334 357.5 -342.3333 356.5 -353.00003 C 355.5 -363.66666 353.16666 -374.3333 349.50003 -385 C 345.83334 -395.6667 341 -405.6667 335 -415 C 329 -424.33334 321.66666 -432.3333 313 -439.00003 C 304.33334 -445.66666 294.5 -450.5 283.5 -453.5 C 272.5 -456.5 261.66666 -457.99997 251.00002 -458 C 232.33334 -457.99997 213.83334 -455.3333 195.5 -450.00003 C 177.16667 -444.6667 159.33333 -438.3333 142 -431 L 142 0 Z " id="path1"/></defs><g><g fill="#000000" transform="translate(40 105.20961) rotate(0)"><use href="#path1" transform="translate(0 0) scale(0.09599999)"/></g></g></svg>