<svg xmlns="http://www.w3.org/2000/svg" height="160" viewBox="0 0 128 160" width="128"><defs><path d="M 253.00002 8 C 236.33334 8 219.66667 6.4999995 203.00002 3.5 C 186.33334 0.5000001 170.5 -4.666667 155.50002 -12 C 140.5 -19.333334 127 -28.833334 115 -40.5 C 103 -52.166664 93 -65.333336 85 -80.00001 C 76.99999 -94.666664 71.166664 -110.16667 67.5 -126.50001 C 63.83334 -142.83334 62.000004 -159.33333 62.000004 -176 C 62.000004 -176 62.000004 -176.16666 62.000004 -176.50002 C 62.000004 -176.83334 62.000004 -177.33334 62.000004 -178 L 140.00002 -178 C 140.00002 -178 140.00002 -177.83333 140.00002 -177.50002 C 140.00002 -177.16667 140.00002 -177.00002 140.00002 -177.00002 C 140.00002 -161.66667 142.33334 -146.66667 147.00002 -132 C 151.66667 -117.333336 159.33333 -104.5 170 -93.5 C 180.66667 -82.5 193.33336 -74.5 208.00002 -69.5 C 222.66667 -64.5 237.66667 -62.000004 253.00002 -62.000004 C 264.33334 -62.000004 275.5 -63.333336 286.5 -66 C 297.49997 -68.66667 307.66666 -73.333336 317.00003 -80.00001 C 326.33334 -86.666664 334.1667 -94.666664 340.5 -104.00001 C 346.8333 -113.33333 352 -123.166664 356 -133.5 C 360 -143.83333 362.66666 -154.66667 364 -166 C 365.33334 -177.33334 366.00003 -188.66667 366.00003 -200.00002 L 366.00003 -345 C 359.3333 -335.66666 351.66666 -327.1667 343.00003 -319.50003 C 334.33334 -311.83334 324.66666 -305.5 314.00003 -300.5 C 303.33334 -295.5 292.16666 -292.1667 280.5 -290.5 C 268.8333 -288.83334 257.3333 -288 246.00002 -288.00003 C 228.00002 -288 210.33333 -289.83334 193 -293.5 C 175.66666 -297.1667 159.33333 -303.5 144.00002 -312.5 C 128.66666 -321.5 115 -332.83334 103.00001 -346.5 C 91 -360.16663 81.5 -375.16666 74.5 -391.5 C 67.5 -407.83334 62.666668 -424.8333 60.000004 -442.5 C 57.333332 -460.16666 55.999996 -478.00003 56 -496.00003 L 56 -535 C 55.999996 -553 57.333332 -570.8333 60.000004 -588.50006 C 62.666668 -606.1667 67.666664 -623.1667 75.00001 -639.50006 C 82.333336 -655.8334 92.00001 -670.8333 104.00001 -684.5 C 116 -698.1667 129.83333 -709.5 145.50002 -718.5 C 161.16667 -727.5 177.83334 -733.8333 195.5 -737.50006 C 213.16666 -741.1667 231 -743.00006 249 -743.00006 C 267.66666 -743.00006 286.33334 -740.8333 305.00003 -736.50006 C 323.66666 -732.1666 341 -724.8334 357 -714.50006 C 373 -704.16675 386.83337 -691.3334 398.50003 -676.00006 C 410.1667 -660.6666 419.3333 -644.1666 426 -626.5 C 432.66663 -608.8333 437.3333 -590.6667 440.00003 -572 C 442.66666 -553.3333 444.00003 -534.3333 444.00003 -515 L 444.00003 -200.00002 C 444.00003 -182 442.66666 -164.16667 440.00003 -146.5 C 437.3333 -128.83334 432.3333 -111.833336 425 -95.50001 C 417.6667 -79.16667 408.16666 -64.166664 396.5 -50.500004 C 384.83334 -36.833336 371.33334 -25.5 356 -16.5 C 340.66666 -7.5 324 -1.1666665 306 2.5000002 C 288 6.1666665 270.33334 8 253.00002 8 Z M 249 -358 C 261 -358 272.5 -359.3333 283.5 -362 C 294.5 -364.6667 304.83334 -369.16672 314.5 -375.5 C 324.16666 -381.8333 332.5 -389.66666 339.5 -399.00003 C 346.5 -408.3333 352 -418.3333 356 -429.00003 C 360 -439.6667 362.66666 -450.6667 364 -462.00003 C 365.33334 -473.33334 366.00003 -484.6667 366.00003 -496.00003 L 366.00003 -515 C 366.00003 -527.6667 365.33334 -540.1667 364 -552.5 C 362.66666 -564.8333 360.16663 -576.8334 356.5 -588.50006 C 352.8333 -600.1667 347.8333 -611.5 341.5 -622.50006 C 335.16666 -633.50006 327.16666 -642.8334 317.5 -650.50006 C 307.8333 -658.1667 297 -663.8334 285 -667.50006 C 273 -671.1667 261 -673.00006 249 -673.00006 C 237.66666 -673.00006 226.33333 -671.6666 215 -669 C 203.66666 -666.3333 193.33333 -661.6666 184 -655.00006 C 174.66667 -648.3333 166.66667 -640.5 160.00002 -631.5 C 153.33333 -622.5 148 -612.6667 144.00002 -602 C 140.00002 -591.3333 137.33334 -580.3333 136 -569 C 134.66667 -557.6667 134 -546.3333 134 -535 L 134 -496.00003 C 134 -484.6667 134.66667 -473.33334 136 -462.00003 C 137.33334 -450.6667 140.00002 -439.6667 144.00002 -429.00003 C 148 -418.3333 153.33333 -408.3333 160.00002 -399.00003 C 166.66667 -389.66666 174.83334 -381.8333 184.5 -375.5 C 194.16667 -369.16672 204.5 -364.6667 215.5 -362 C 226.5 -359.3333 237.66666 -358 249 -358 Z " id="path1"/></defs><g><g fill="#000000" transform="translate(40 105.20961) rotate(0)"><use href="#path1" transform="translate(0 0) scale(0.09599999)"/></g></g></svg>