<?xml version="1.0" encoding="UTF-8" standalone="no"?>
<svg height="160" viewBox="0 0 128 160" width="128" xmlns="http://www.w3.org/2000/svg">
<defs>
<path d="M 319 106 L 241 106 L 276 -127 L 161 -127 L 126 106 L 49 106 L 83 -127 L 7 -127 L 7 -197 L 94 -197 L 136 -483 L 51 -483 L 51 -553 L 147 -553 L 181 -786 L 259 -786 L 224 -553 L 339 -553 L 374 -786 L 451 -786 L 417 -553 L 493 -553 L 493 -483 L 406 -483 L 364 -197 L 449 -197 L 449 -127 L 353 -127 Z M 171 -197 L 286 -197 L 329 -483 L 214 -483 Z " id="path1"/>
</defs>
<g>
<g data-source-text="#" fill="#dee4e3" transform="translate(40 104.99201) rotate(0) scale(0.09599999)">
<use href="#path1" transform="translate(0 0)"/>
</g>
</g>
</svg>