<?xml version="1.0" encoding="UTF-8" standalone="no"?>
<svg height="160" viewBox="0 0 128 160" width="128" xmlns="http://www.w3.org/2000/svg">
<defs>
<path d="M 118 -18 L 118 -193 L 31 -193 L 31 -263 L 118 -263 L 118 -472 L 31 -472 L 31 -542 L 118 -542 L 118 -717 L 192 -717 L 192 -542 L 308 -542 L 308 -717 L 382 -717 L 382 -542 L 469 -542 L 469 -472 L 382 -472 L 382 -263 L 469 -263 L 469 -193 L 382 -193 L 382 -18 L 308 -18 L 308 -193 L 192 -193 L 192 -18 Z M 192 -263 L 308 -263 L 308 -472 L 192 -472 Z " id="path1"/>
</defs>
<g>
<g data-source-text="#" fill="#20242e" transform="translate(40 104.99201) rotate(0) scale(0.09599999)">
<use href="#path1" transform="translate(0 0)"/>
</g>
</g>
</svg>