<?xml version="1.0" encoding="UTF-8" standalone="no"?>
<svg height="160" viewBox="0 0 128 160" width="128" xmlns="http://www.w3.org/2000/svg">
<defs>
<path d="M 115 -18 L 115 -193 L 29 -193 L 29 -263 L 115 -263 L 115 -472 L 29 -472 L 29 -542 L 115 -542 L 115 -717 L 193 -717 L 193 -542 L 307 -542 L 307 -717 L 385 -717 L 385 -542 L 471 -542 L 471 -472 L 385 -472 L 385 -263 L 471 -263 L 471 -193 L 385 -193 L 385 -18 L 307 -18 L 307 -193 L 193 -193 L 193 -18 Z M 307 -263 L 307 -472 L 193 -472 L 193 -263 Z " id="path1"/>
</defs>
<g>
<g data-source-text="#" fill="#dee4e3" transform="translate(40 104.99201) rotate(0) scale(0.09599999)">
<use href="#path1" transform="translate(0 0)"/>
</g>
</g>
</svg>