<?xml version="1.0" encoding="UTF-8" standalone="no"?>
<svg height="160" viewBox="0 0 128 160" width="128" xmlns="http://www.w3.org/2000/svg">
<defs>
<path d="M 166 0 L 268 -202 Q 280 -226 292.5 -249.5 Q 305 -273 319 -296 L 319 -297 Q 319 -298 319.5 -298 Q 320 -298 320 -299 L 321 -301 L 322 -301 Q 322 -301 322 -302 Q 304 -294 285.5 -291 Q 267 -288 248 -288 Q 220 -288 192 -294.5 Q 164 -301 141 -317 Q 118 -333 101 -356 Q 84 -379 73.5 -405 Q 63 -431 59.5 -459 Q 56 -487 56 -515 Q 56 -544 60 -572 Q 64 -600 74 -626.5 Q 84 -653 101.5 -676 Q 119 -699 142.5 -714.5 Q 166 -730 194 -736.5 Q 222 -743 250 -743 Q 280 -743 309 -735 Q 338 -727 361.5 -709 Q 385 -691 401.5 -665.5 Q 418 -640 427.5 -612 Q 437 -584 440.5 -554 Q 444 -524 444 -494 Q 444 -451 435 -409 Q 426 -367 410.5 -326.5 Q 395 -286 376 -247.5 Q 357 -209 337 -171 L 252 0 Z M 250 -358 Q 268 -358 286 -363.5 Q 304 -369 318 -380.5 Q 332 -392 341.5 -408.5 Q 351 -425 356.5 -442.5 Q 362 -460 364 -478.5 Q 366 -497 366 -515 Q 366 -534 364 -552.5 Q 362 -571 357 -588.5 Q 352 -606 342.5 -622 Q 333 -638 318.5 -650 Q 304 -662 286 -667.5 Q 268 -673 250 -673 Q 232 -673 214 -667.5 Q 196 -662 181.5 -650 Q 167 -638 157.5 -622 Q 148 -606 143 -588.5 Q 138 -571 136 -552.5 Q 134 -534 134 -515 Q 134 -497 136 -478.5 Q 138 -460 143 -442.5 Q 148 -425 157.5 -409 Q 167 -393 181 -381 Q 195 -369 213 -363.5 Q 231 -358 250 -358 Z " id="path1"/>
</defs>
<g>
<g data-source-text="9" fill="#dee4e3" transform="translate(40 104.99201) rotate(0) scale(0.09599999)">
<use href="#path1" transform="translate(0 0)"/>
</g>
</g>
</svg>