<?xml version="1.0" encoding="UTF-8" standalone="no"?>
<svg height="160" viewBox="0 0 128 160" width="128" xmlns="http://www.w3.org/2000/svg">
<defs>
<path d="M 249 8 Q 224 8 199 4 Q 174 0 151 -11 Q 128 -22 109.5 -39 Q 91 -56 78.5 -78 Q 66 -100 60 -125 Q 54 -150 54 -175 L 54 -180 L 132 -180 L 132 -177 Q 132 -154 140 -131.5 Q 148 -109 164 -92.5 Q 180 -76 203 -69 Q 226 -62 249 -62 Q 266 -62 283 -66 Q 300 -70 314.5 -79.5 Q 329 -89 339 -103 Q 349 -117 355.5 -133 Q 362 -149 364 -166 Q 366 -183 366 -200 L 366 -389 Q 358 -367 344 -347 Q 330 -327 310.5 -313.5 Q 291 -300 267 -294 Q 243 -288 220 -288 Q 195 -288 170.5 -294.5 Q 146 -301 126 -316 Q 106 -331 92 -352.5 Q 78 -374 70 -397.5 Q 62 -421 59 -446 Q 56 -471 56 -496 L 56 -535 Q 56 -562 60 -589 Q 64 -616 75 -640.5 Q 86 -665 104.5 -685.5 Q 123 -706 146.5 -719 Q 170 -732 196.5 -737.5 Q 223 -743 250 -743 Q 277 -743 303.5 -737.5 Q 330 -732 353.5 -719 Q 377 -706 395.5 -685.5 Q 414 -665 425 -640.5 Q 436 -616 440 -589 Q 444 -562 444 -535 L 444 -200 Q 444 -173 440 -146 Q 436 -119 424.5 -94.5 Q 413 -70 395 -49.5 Q 377 -29 353.5 -15.5 Q 330 -2 303 3 Q 276 8 249 8 Z M 250 -358 Q 267 -358 284 -362 Q 301 -366 315 -375.5 Q 329 -385 339.5 -399 Q 350 -413 356 -429 Q 362 -445 364 -462 Q 366 -479 366 -496 L 366 -535 Q 366 -552 364 -569 Q 362 -586 356 -602 Q 350 -618 339.5 -632 Q 329 -646 315 -655.5 Q 301 -665 284 -669 Q 267 -673 250 -673 Q 233 -673 216 -669 Q 199 -665 185 -655.5 Q 171 -646 160.5 -632 Q 150 -618 144 -602 Q 138 -586 136 -569 Q 134 -552 134 -535 L 134 -496 Q 134 -479 136 -462 Q 138 -445 144 -429 Q 150 -413 160.5 -399 Q 171 -385 185 -375.5 Q 199 -366 216 -362 Q 233 -358 250 -358 Z " id="path1"/>
</defs>
<g>
<g data-source-text="9" fill="#dee4e3" transform="translate(40 104.99201) rotate(0) scale(0.09599999)">
<use href="#path1" transform="translate(0 0)"/>
</g>
</g>
</svg>