<?xml version="1.0" encoding="UTF-8" standalone="no"?>
<svg height="160" viewBox="0 0 128 160" width="128" xmlns="http://www.w3.org/2000/svg">
<defs>
<path d="M 52 -18 L 85 -193 L 9 -193 L 9 -263 L 98 -263 L 138 -472 L 53 -472 L 53 -542 L 151 -542 L 184 -717 L 258 -717 L 225 -542 L 341 -542 L 374 -717 L 448 -717 L 415 -542 L 491 -542 L 491 -472 L 402 -472 L 362 -263 L 447 -263 L 447 -193 L 349 -193 L 316 -18 L 242 -18 L 275 -193 L 159 -193 L 126 -18 Z M 172 -263 L 288 -263 L 328 -472 L 212 -472 Z " id="path1"/>
</defs>
<g>
<g data-source-text="#" fill="#dee4e3" transform="translate(40 104.99201) rotate(0) scale(0.09599999)">
<use href="#path1" transform="translate(0 0)"/>
</g>
</g>
</svg>