<?xml version="1.0" encoding="UTF-8" standalone="no"?>
<svg height="160" viewBox="0 0 128 160" width="128" xmlns="http://www.w3.org/2000/svg">
<defs>
<path d="M 49 -18 L 82 -193 L 7 -193 L 7 -263 L 95 -263 L 135 -472 L 51 -472 L 51 -542 L 148 -542 L 181 -717 L 259 -717 L 226 -542 L 340 -542 L 373 -717 L 451 -717 L 418 -542 L 493 -542 L 493 -472 L 405 -472 L 365 -263 L 449 -263 L 449 -193 L 352 -193 L 319 -18 L 241 -18 L 274 -193 L 160 -193 L 127 -18 Z M 173 -263 L 287 -263 L 327 -472 L 213 -472 Z " id="path1"/>
</defs>
<g>
<g data-source-text="#" fill="#dee4e3" transform="translate(40 104.99201) rotate(0) scale(0.09599999)">
<use href="#path1" transform="translate(0 0)"/>
</g>
</g>
</svg>