<svg xmlns="http://www.w3.org/2000/svg" height="160" viewBox="0 0 128 160" width="128"><defs><path d="M 49 106 L 83 -127.00001 L 7 -127.00001 L 7 -197.00002 L 94.00001 -197.00002 L 136 -483 L 51 -483 L 51 -553 L 147.00002 -553 L 181 -786.00006 L 259 -786.00006 L 224 -553 L 339 -553 L 374 -786.00006 L 451.00003 -786.00006 L 417.00003 -553 L 493 -553 L 493 -483 L 406.00003 -483 L 364 -197.00002 L 449 -197.00002 L 449 -127.00001 L 353.00003 -127.00001 L 319.00003 106 L 241 106 L 276 -127.00001 L 161.00002 -127.00001 L 126 106 Z M 171.00002 -197.00002 L 286 -197.00002 L 329 -483 L 214.00002 -483 Z " id="path1"/></defs><g><g fill="#ffffff" transform="translate(40 105.20961) rotate(0)"><use href="#path1" transform="translate(0 0) scale(0.09599999)"/></g></g></svg>