<?xml version="1.0" encoding="UTF-8" standalone="no"?>
<svg height="160" viewBox="0 0 128 160" width="128" xmlns="http://www.w3.org/2000/svg">
<defs>
<path d="M 139 8 L 121 -60 Q 154 -69 185 -85.5 Q 216 -102 241.5 -125.5 Q 267 -149 287 -178 Q 307 -207 320.5 -239 Q 334 -271 342 -305 Q 350 -339 354 -373 Q 345 -354 331.5 -337.5 Q 318 -321 300 -309.5 Q 282 -298 261 -293 Q 240 -288 219 -288 Q 193 -288 167 -296 Q 141 -304 121.5 -321.5 Q 102 -339 89 -362.5 Q 76 -386 68.5 -411 Q 61 -436 58.5 -462.5 Q 56 -489 56 -515 Q 56 -544 60 -572 Q 64 -600 74 -626.5 Q 84 -653 101.5 -676 Q 119 -699 142.5 -714.5 Q 166 -730 194 -736.5 Q 222 -743 250 -743 Q 278 -743 306 -736.5 Q 334 -730 357.5 -714.5 Q 381 -699 398.5 -676 Q 416 -653 426 -626.5 Q 436 -600 440 -572 Q 444 -544 444 -515 Q 444 -474 440 -433 Q 436 -392 430 -351.5 Q 424 -311 413.5 -271 Q 403 -231 385 -194 Q 367 -157 342 -123.5 Q 317 -90 285.5 -64 Q 254 -38 216.5 -19.5 Q 179 -1 139 8 Z M 250 -358 Q 273 -358 295.5 -367.5 Q 318 -377 332.5 -395 Q 347 -413 355 -435.5 Q 363 -458 365 -482 Q 366 -490 366 -498.5 Q 366 -507 366 -515 Q 366 -534 364 -552.5 Q 362 -571 357 -588.5 Q 352 -606 342.5 -622 Q 333 -638 318.5 -650 Q 304 -662 286 -667.5 Q 268 -673 250 -673 Q 232 -673 214 -667.5 Q 196 -662 181.5 -650 Q 167 -638 157.5 -622 Q 148 -606 143 -588.5 Q 138 -571 136 -552.5 Q 134 -534 134 -515 Q 134 -497 136 -478.5 Q 138 -460 143 -442.5 Q 148 -425 157.5 -409 Q 167 -393 181.5 -381 Q 196 -369 214 -363.5 Q 232 -358 250 -358 Z " id="path1"/>
</defs>
<g>
<g data-source-text="9" fill="#dee4e3" transform="translate(40 104.99201) rotate(0) scale(0.09599999)">
<use href="#path1" transform="translate(0 0)"/>
</g>
</g>
</svg>