<svg xmlns="http://www.w3.org/2000/svg" height="160" viewBox="0 0 128 160" width="128"><defs><path d="M 115 106 L 115 -127 L 29 -127 L 29 -197 L 115 -197 L 115 -483 L 29 -483 L 29 -553 L 115 -553 L 115 -786 L 193 -786 L 193 -553 L 307 -553 L 307 -786 L 385 -786 L 385 -553 L 471 -553 L 471 -483 L 385 -483 L 385 -197 L 471 -197 L 471 -127 L 385 -127 L 385 106 L 307 106 L 307 -127 L 193 -127 L 193 106 Z M 307 -197 L 307 -483 L 193 -483 L 193 -197 Z " id="path1"/></defs><g><g fill="#dee4e3" transform="translate(40 105.20961) rotate(0)"><use href="#path1" transform="translate(0 0) scale(0.09599999)"/></g></g></svg>