<?xml version="1.0" encoding="UTF-8" standalone="no"?>
<svg height="160" viewBox="0 0 128 160" width="128" xmlns="http://www.w3.org/2000/svg">
<defs>
<path d="M 64 0 L 64 -474 Q 107 -498 155 -513 Q 203 -528 253 -528 Q 279 -528 305 -522 Q 331 -516 353 -502 Q 375 -488 392 -467.5 Q 409 -447 419 -422.5 Q 429 -398 432.5 -372 Q 436 -346 436 -320 L 436 0 L 358 0 L 358 -320 Q 358 -337 356.5 -353 Q 355 -369 349.5 -385 Q 344 -401 335 -415 Q 326 -429 313 -439 Q 300 -449 283.5 -453.5 Q 267 -458 251 -458 Q 222 -458 195 -450 Q 168 -442 142 -431 L 142 0 Z " id="path1"/>
</defs>
<g>
<g data-source-text="n" fill="#dee4e3" transform="translate(40 104.99201) rotate(0) scale(0.09599999)">
<use href="#path1" transform="translate(0 0)"/>
</g>
</g>
</svg>