<svg xmlns="http://www.w3.org/2000/svg" height="160" viewBox="0 0 128 160" width="128"><defs><path d="M 467.00003 8 C 453 8 438.99997 6.1666665 425 2.5000002 C 411.00003 -1.1666665 398.83337 -7.666667 388.50003 -17 C 378.1667 -26.333332 370.50003 -37.833336 365.50003 -51.500004 C 360.50003 -65.16667 358 -79 358 -93.00001 L 358 -320.00003 C 358 -331.33334 357.33334 -342.49997 356 -353.50003 C 354.6667 -364.49997 352.33334 -375.16666 349.00003 -385.5 C 345.6667 -395.83334 340.83334 -405.6667 334.5 -415 C 328.1667 -424.33334 320.6667 -432.3333 312 -439.00003 C 303.33334 -445.66666 293.6667 -450.5 283.00003 -453.5 C 272.33334 -456.5 261.33334 -457.99997 250 -458 C 238.66666 -457.99997 227.66666 -456.5 217.00002 -453.5 C 206.33333 -450.5 196.66666 -445.66666 188.00002 -439.00003 C 179.33333 -432.3333 171.83333 -424.33334 165.50002 -415 C 159.16667 -405.6667 154.33334 -395.83334 151 -385.5 C 147.66666 -375.16666 145.33333 -364.49997 144.00002 -353.50003 C 142.66666 -342.49997 142 -331.33334 142 -320.00003 L 142 0 L 64 0 L 64 -520.00006 L 142 -520.00006 L 142 -429.00003 C 147.33333 -443 154.33334 -456.33334 163 -469.00003 C 171.66667 -481.66666 182.16666 -492.66666 194.50002 -502.00003 C 206.83333 -511.3333 220.5 -518 235.5 -522 C 250.50002 -525.99994 265.33334 -528 280.00003 -528 C 296.66666 -528 313 -525.6666 329 -521 C 345 -516.3334 359.1667 -508.83334 371.50003 -498.5 C 383.83334 -488.16666 394.33328 -475.83334 403 -461.50003 C 411.66666 -447.1667 418.5 -432.16666 423.50003 -416.50003 C 428.5 -400.83334 431.8333 -384.83334 433.50003 -368.5 C 435.16666 -352.16666 435.99997 -336.00003 436 -320.00003 L 436 -93.00001 C 435.99997 -89.00001 436.66666 -85 438.00003 -81 C 439.33337 -77 441.50003 -73.5 444.50003 -70.5 C 447.5 -67.5 451 -65.33333 455.00003 -64 C 459 -62.666668 463 -62.000004 467.00003 -62.000004 L 482 -62.000004 L 482 8 Z " id="path1"/></defs><g><g fill="#000000" transform="translate(40 105.20961) rotate(0)"><use href="#path1" transform="translate(0 0) scale(0.09599999)"/></g></g></svg>