<?xml version="1.0" encoding="UTF-8" standalone="no"?>
<svg height="160" viewBox="0 0 128 160" width="128" xmlns="http://www.w3.org/2000/svg">
<defs>
<path d="M 248 8 Q 226 8 204 5.5 Q 182 3 161.5 -4.5 Q 141 -12 122.5 -24.5 Q 104 -37 90.5 -54 Q 77 -71 70 -92 Q 63 -113 62 -135 L 125 -135 Q 125 -114 137 -95.5 Q 149 -77 167 -66.5 Q 185 -56 206 -52 Q 227 -48 248 -48 Q 266 -48 284.5 -52.5 Q 303 -57 318.5 -67.5 Q 334 -78 345 -93.5 Q 356 -109 362.5 -126.5 Q 369 -144 371 -162.5 Q 373 -181 373 -200 L 373 -679 L 297 -679 L 297 -339 L 234 -339 Q 210 -339 185.5 -345 Q 161 -351 140 -364 Q 119 -377 104 -397 Q 89 -417 80 -440 Q 71 -463 67.5 -487.5 Q 64 -512 64 -537 Q 64 -562 67.5 -586.5 Q 71 -611 80 -634 Q 89 -657 104 -677 Q 119 -697 140 -710.5 Q 161 -724 185.5 -729.5 Q 210 -735 234 -735 L 436 -735 L 436 -200 Q 436 -173 432 -146.5 Q 428 -120 417.5 -96 Q 407 -72 390 -51 Q 373 -30 350 -16.5 Q 327 -3 300.5 2.5 Q 274 8 248 8 Z " id="path1"/>
</defs>
<g>
<g data-source-text="¶" fill="#20242e" transform="translate(40 104.99201) rotate(0) scale(0.09599999)">
<use href="#path1" transform="translate(0 0)"/>
</g>
</g>
</svg>