<svg xmlns="http://www.w3.org/2000/svg" height="160" viewBox="0 0 128 160" width="128"><defs><path d="M 64 215 L 64 -320.00003 C 64 -338 65.333336 -355.66666 68 -373 C 70.66667 -390.33334 75.333336 -407.1667 82.00001 -423.50003 C 88.666664 -439.83334 97.666664 -455.00003 109 -469.00003 C 120.33333 -483 133.66666 -494.50003 149 -503.5 C 164.33334 -512.5 180.66667 -518.8333 198 -522.5 C 215.33333 -526.1666 233 -528 251.00002 -528 C 268.99997 -528 286.83334 -526.1666 304.5 -522.5 C 322.1667 -518.8333 338.83334 -512.6666 354.50003 -504 C 370.16666 -495.33337 384 -484.1667 396 -470.5 C 408 -456.83334 417.6667 -441.6667 425 -425 C 432.3333 -408.33334 437.3333 -391.1667 440.00003 -373.5 C 442.66666 -355.8333 444.00003 -338 444.00003 -320.00003 L 444.00003 -200.00002 C 444.00003 -183.33333 443 -166.66666 441 -150.00002 C 438.99997 -133.33333 435.33334 -117.166664 430 -101.50001 C 424.66666 -85.833336 417.50003 -71 408.5 -57.000004 C 399.50003 -43.000004 388.33334 -31 375 -21.000002 C 361.6667 -11 346.8333 -3.6666665 330.50003 1 C 314.16666 5.6666665 297.66666 8 281 8 C 265.6667 8 250.50002 6 235.5 2 C 220.5 -1.9999998 206.83333 -8.500001 194.50002 -17.500002 C 182.16666 -26.500002 171.66667 -37.5 163 -50.500004 C 154.33334 -63.500004 147.33333 -77.00001 142 -91 L 142 215 Z M 251.00002 -62.000004 C 262.3333 -62.000004 273.5 -63.333336 284.5 -66 C 295.5 -68.66667 305.66666 -73.16667 315 -79.5 C 324.3333 -85.833336 332.5 -93.666664 339.5 -103.00001 C 346.5 -112.33334 352 -122.33333 356 -133 C 360 -143.66667 362.66666 -154.66667 364 -166 C 365.33334 -177.33334 366.00003 -188.66667 366.00003 -200.00002 L 366.00003 -320.00003 C 366.00003 -331.33334 365.33334 -342.6667 364 -354.00003 C 362.66666 -365.33334 360 -376.3333 356 -387.00003 C 352 -397.66666 346.66666 -407.66666 340 -417.00003 C 333.33334 -426.3333 325.3333 -434.1667 316 -440.50003 C 306.66666 -446.83334 296.33334 -451.33334 285 -454 C 273.66666 -456.66666 262.3333 -457.99997 251.00002 -458 C 239.66667 -457.99997 228.66667 -456.66666 218 -454 C 207.33333 -451.33334 197.5 -446.6667 188.50002 -440.00003 C 179.49998 -433.33334 171.83333 -425.16666 165.50002 -415.50003 C 159.16667 -405.83334 154.33334 -395.83334 151 -385.5 C 147.66666 -375.16666 145.33333 -364.49997 144.00002 -353.50003 C 142.66666 -342.49997 142 -331.33334 142 -320.00003 L 142 -200.00002 C 142 -188.66667 142.66666 -177.50002 144.00002 -166.5 C 145.33333 -155.5 147.66666 -144.83333 151 -134.5 C 154.33334 -124.166664 159.16667 -114.166664 165.50002 -104.50001 C 171.83333 -94.833336 179.33333 -86.666664 188.00002 -80.00001 C 196.66666 -73.333336 206.5 -68.66667 217.50002 -66 C 228.50002 -63.333336 239.66667 -62.000004 251.00002 -62.000004 Z " id="path1"/></defs><g><g fill="#ffffff" transform="translate(40 105.20961) rotate(0)"><use href="#path1" transform="translate(0 0) scale(0.09599999)"/></g></g></svg>