<?xml version="1.0" encoding="UTF-8" standalone="no"?>
<svg xmlns="http://www.w3.org/2000/svg" height="160" viewBox="0 0 256 160" width="256"><defs><path d="M 101 161 L 63 100 Q 119 68 163 19 Q 207 -30 234.5 -88.5 Q 262 -147 273 -211 Q 284 -275 284 -340 Q 284 -405 273 -469 Q 262 -533 234.5 -591.5 Q 207 -650 163 -699 Q 119 -748 63 -780 L 101 -841 Q 145 -817 182.5 -784.5 Q 220 -752 250 -712.5 Q 280 -673 302 -628.5 Q 324 -584 337 -536 Q 350 -488 356 -439 Q 362 -390 362 -340 Q 362 -290 356 -241 Q 350 -192 337 -144 Q 324 -96 302 -51.5 Q 280 -7 250 32.5 Q 220 72 182.5 104.5 Q 145 137 101 161 Z " id="path2"/><path d="M 399 161 Q 355 137 317.5 104.5 Q 280 72 250 32.5 Q 220 -7 198 -51.5 Q 176 -96 163 -144 Q 150 -192 144 -241 Q 138 -290 138 -340 Q 138 -390 144 -439 Q 150 -488 163 -536 Q 176 -584 198 -628.5 Q 220 -673 250 -712.5 Q 280 -752 317.5 -784.5 Q 355 -817 399 -841 L 437 -780 Q 381 -748 337 -699 Q 293 -650 265.5 -591.5 Q 238 -533 227 -469 Q 216 -405 216 -340 Q 216 -275 227 -211 Q 238 -147 265.5 -88.5 Q 293 -30 337 19 Q 381 68 437 100 Z " id="path1"/></defs><g><g data-source-text="(" fill="#20242e" transform="translate(40 104.99201) rotate(0) scale(0.09599999)"><use href="#path1" transform="translate(0 0)"/></g><g data-source-text=")" fill="#20242e" transform="translate(168 104.99201) rotate(0) scale(0.09599999)"><use href="#path2" transform="translate(0 0)"/></g></g></svg>