<?xml version="1.0" encoding="UTF-8" standalone="no"?>
<svg height="160" viewBox="0 0 128 160" width="128" xmlns="http://www.w3.org/2000/svg">
<defs>
<path d="M 112 0 L 32 0 L 217 -368 L 363 -681 L 231 -681 Q 235 -671 236.5 -660 Q 238 -649 238 -638 L 238 -485 Q 238 -464 231.5 -443 Q 225 -422 209.5 -407 Q 194 -392 173 -386 Q 152 -380 131 -380 Q 110 -380 89 -386 Q 68 -392 52.5 -407 Q 37 -422 30.5 -443 Q 24 -464 24 -485 L 24 -638 Q 24 -659 30.5 -680 Q 37 -701 52.5 -715.5 Q 68 -730 89 -736.5 Q 110 -743 131 -743 Q 143 -743 155.5 -741.5 Q 168 -740 179 -735 L 468 -735 L 283 -367 Z M 131 -444 Q 139 -444 146 -447 Q 153 -450 157.5 -456 Q 162 -462 164 -470 Q 166 -478 166 -485 L 166 -638 Q 166 -645 164 -652.5 Q 162 -660 157.5 -666 Q 153 -672 146 -675 Q 139 -678 131 -678 Q 123 -678 116 -675 Q 109 -672 104 -666 Q 99 -660 97.5 -652.5 Q 96 -645 96 -638 L 96 -485 Q 96 -478 97.5 -470 Q 99 -462 104 -456 Q 109 -450 116 -447 Q 123 -444 131 -444 Z M 369 8 Q 348 8 327 1.5 Q 306 -5 290.5 -19.5 Q 275 -34 268.5 -55 Q 262 -76 262 -98 L 262 -250 Q 262 -271 268.5 -292 Q 275 -313 290.5 -328 Q 306 -343 327 -349 Q 348 -355 369 -355 Q 390 -355 411 -349 Q 432 -343 447.5 -328 Q 463 -313 469.5 -292 Q 476 -271 476 -250 L 476 -98 Q 476 -76 469.5 -55 Q 463 -34 447.5 -19.5 Q 432 -5 411 1.5 Q 390 8 369 8 Z M 369 -57 Q 377 -57 384 -60 Q 391 -63 396 -69 Q 401 -75 402.5 -82.5 Q 404 -90 404 -98 L 404 -250 Q 404 -257 402.5 -265 Q 401 -273 396 -279 Q 391 -285 384 -288 Q 377 -291 369 -291 Q 361 -291 354 -288 Q 347 -285 342.5 -279 Q 338 -273 336 -265 Q 334 -257 334 -250 L 334 -98 Q 334 -90 336 -82.5 Q 338 -75 342.5 -69 Q 347 -63 354 -60 Q 361 -57 369 -57 Z " id="path1"/>
</defs>
<g>
<g data-source-text="%" fill="#20242e" transform="translate(40 104.99201) rotate(0) scale(0.09599999)">
<use href="#path1" transform="translate(0 0)"/>
</g>
</g>
</svg>