<?xml version="1.0" encoding="UTF-8" standalone="no"?>
<svg height="160" viewBox="0 0 256 160" width="256" xmlns="http://www.w3.org/2000/svg">
<defs>
<path d="M 372 161 Q 329 137 291.5 104.5 Q 254 72 224 32.5 Q 194 -7 173 -52 Q 152 -97 139 -144.5 Q 126 -192 120.5 -241.5 Q 115 -291 115 -340 Q 115 -389 120.5 -438.5 Q 126 -488 139 -535.5 Q 152 -583 173 -628 Q 194 -673 224 -712.5 Q 254 -752 291.5 -784.5 Q 329 -817 372 -841 L 410 -780 Q 355 -748 311.5 -699 Q 268 -650 241 -591.5 Q 214 -533 203.5 -468.5 Q 193 -404 193 -340 Q 193 -276 203.5 -211.5 Q 214 -147 241 -88.5 Q 268 -30 311.5 19 Q 355 68 410 100 Z " id="path1"/>
<path d="M 128 161 L 90 100 Q 107 90 123.5 78 Q 140 66 155 53 Q 170 40 183.5 24.5 Q 197 9 209.5 -7 Q 222 -23 232.5 -40 Q 243 -57 252 -75 Q 261 -93 268.5 -111.5 Q 276 -130 282 -149 Q 288 -168 292 -188 Q 296 -208 299.5 -232.5 Q 303 -257 305 -276 Q 307 -295 307 -308 L 307 -340 Q 307 -360 306 -380 Q 305 -400 303 -420 Q 301 -440 298 -460.5 Q 295 -481 290.5 -500.5 Q 286 -520 279.5 -539 Q 273 -558 265.5 -576.5 Q 258 -595 248.5 -613 Q 239 -631 228 -647.5 Q 217 -664 204.5 -680 Q 192 -696 174.5 -714 Q 157 -732 143 -744.5 Q 129 -757 118 -764 L 90 -780 L 128 -841 Q 153 -827 176 -810.5 Q 199 -794 220 -774.5 Q 241 -755 259.5 -733.5 Q 278 -712 293.5 -688.5 Q 309 -665 321.5 -639 Q 334 -613 344 -586.5 Q 354 -560 361.5 -533 Q 369 -506 374 -478 Q 379 -450 382 -416.5 Q 385 -383 385 -365 L 385 -340 Q 385 -312 383 -283.5 Q 381 -255 377.5 -226.5 Q 374 -198 367.5 -170.5 Q 361 -143 352.5 -116 Q 344 -89 332.5 -63 Q 321 -37 306.5 -12.5 Q 292 12 274.5 34.5 Q 257 57 237.5 77.5 Q 218 98 192 119 Q 166 140 150 149 Z " id="path2"/>
</defs>
<g>
<g data-source-text="(" fill="#dee4e3" transform="translate(40 104.99201) rotate(0) scale(0.09599999)">
<use href="#path1" transform="translate(0 0)"/>
</g>
</g>
<g>
<g data-source-text=")" fill="#dee4e3" transform="translate(168 104.99201) rotate(0) scale(0.09599999)">
<use href="#path2" transform="translate(0 0)"/>
</g>
</g>
</svg>