<svg xmlns="http://www.w3.org/2000/svg" height="160" viewBox="0 0 256 160" width="256"><defs><path d="M 101 161 L 101 91 Q 135 91 168 82 Q 201 73 228 52.5 Q 255 32 273.5 3.5 Q 292 -25 302.5 -57 Q 313 -89 317 -122.5 Q 321 -156 321 -190 L 321 -490 Q 321 -524 317 -557.5 Q 313 -591 302.5 -623 Q 292 -655 273 -683.5 Q 254 -712 227.5 -732.5 Q 201 -753 168 -762 Q 135 -771 101 -771 L 101 -841 Q 145 -841 188 -831 Q 231 -821 267 -797 Q 303 -773 329.5 -737.5 Q 356 -702 371.5 -661.5 Q 387 -621 393 -577.5 Q 399 -534 399 -490 L 399 -190 Q 399 -146 393 -102.5 Q 387 -59 371.5 -18.5 Q 356 22 329.5 57.5 Q 303 93 267 117 Q 231 141 188 151 Q 145 161 101 161 Z " id="path2"/><path d="M 399 161 Q 355 161 312 151 Q 269 141 233 117 Q 197 93 170.5 57.5 Q 144 22 128.5 -18.5 Q 113 -59 107 -102.5 Q 101 -146 101 -190 L 101 -490 Q 101 -534 107 -577.5 Q 113 -621 128.5 -661.5 Q 144 -702 170.5 -737.5 Q 197 -773 233 -797 Q 269 -821 312 -831 Q 355 -841 399 -841 L 399 -771 Q 365 -771 332 -762 Q 299 -753 272 -732.5 Q 245 -712 226.5 -683.5 Q 208 -655 197.5 -623 Q 187 -591 183 -557.5 Q 179 -524 179 -490 L 179 -190 Q 179 -156 183 -122.5 Q 187 -89 197.5 -57 Q 208 -25 227 3.5 Q 246 32 272.5 52.5 Q 299 73 332 82 Q 365 91 399 91 Z " id="path1"/></defs><g><g fill="#dee4e3" transform="translate(40 105.20961) rotate(0)"><use href="#path1" transform="translate(0 0) scale(0.09599999)"/></g><g fill="#dee4e3" transform="translate(168 105.20961) rotate(0)"><use href="#path2" transform="translate(0 0) scale(0.09599999)"/></g></g></svg>