<?xml version="1.0" encoding="UTF-8" standalone="no"?>
<svg xmlns="http://www.w3.org/2000/svg" height="160" viewBox="0 0 128 160" width="128"><defs><path d="M 64 -532 L 64 -735 L 142 -735 Z M 125 -255 Q 130 -257 134.5 -261 Q 139 -265 142 -270 L 142 -317 Q 141 -318 140.5 -318.5 Q 140 -319 140 -320 L 125 -320 Z M 251 -62 Q 268 -62 284.5 -66 Q 301 -70 315 -79.5 Q 329 -89 339.5 -103 Q 350 -117 356 -133 Q 362 -149 364 -166 Q 366 -183 366 -200 L 366 -320 Q 366 -338 363.5 -356.5 Q 361 -375 353.5 -392 Q 346 -409 334 -423 Q 322 -437 305.5 -445.5 Q 289 -454 270.5 -456 Q 252 -458 234 -458 Q 197 -458 160 -453.5 Q 123 -449 88 -438 Q 84 -431 80.5 -424 Q 77 -417 76 -409 Q 76 -409 76 -408 Q 76 -407 76 -407 Q 76 -398 79.5 -390.5 Q 83 -383 88 -376.5 Q 93 -370 99 -364 Q 105 -358 111 -353 L 111 -352 Q 119 -345 127 -337 Q 135 -329 140 -320 L 142 -320 L 142 -317 Q 145 -311 146.5 -305 Q 148 -299 148 -293 Q 148 -287 146.5 -281 Q 145 -275 142 -270 L 142 -200 Q 142 -183 144 -166.5 Q 146 -150 151 -134.5 Q 156 -119 165.5 -104.5 Q 175 -90 188 -80 Q 201 -70 217.5 -66 Q 234 -62 251 -62 Z M 10 -390 L 64 -532 L 64 -429 Q 56 -425 48.5 -421.5 Q 41 -418 34 -413.5 Q 27 -409 21.5 -402.5 Q 16 -396 10 -390 Z M -57 -289 Q -64 -289 -70 -291.5 Q -76 -294 -80.5 -299 Q -85 -304 -87.5 -310 Q -90 -316 -90 -323 Q -90 -333 -84 -342.5 Q -78 -352 -69 -358 Q -60 -364 -49.5 -367 Q -39 -370 -29 -372.5 Q -19 -375 -8.5 -379 Q 2 -383 10 -390 L -12 -333 Q -15 -325 -18.5 -317.5 Q -22 -310 -28 -303.5 Q -34 -297 -41.5 -293 Q -49 -289 -57 -289 Z M 281 8 Q 257 8 233 1 Q 209 -6 190 -21.5 Q 171 -37 158 -58.5 Q 145 -80 137.5 -103 Q 130 -126 127.5 -150.5 Q 125 -175 125 -200 L 125 -255 Q 121 -253 117 -252 Q 113 -251 109 -251 Q 94 -251 83 -261.5 Q 72 -272 68 -285 Q 66 -290 65.5 -294 Q 65 -298 64 -303 Q 64 -307 64 -311.5 Q 64 -316 64 -320 L 64 -429 Q 70 -431 76 -433.5 Q 82 -436 88 -438 Q 96 -451 106 -464.5 Q 116 -478 128.5 -488.5 Q 141 -499 155.5 -507 Q 170 -515 186 -519.5 Q 202 -524 218 -526 Q 234 -528 251 -528 Q 278 -528 304.5 -522.5 Q 331 -517 354.5 -504 Q 378 -491 396 -470.5 Q 414 -450 425 -425 Q 436 -400 440 -373.5 Q 444 -347 444 -320 L 444 -200 Q 444 -175 441 -150 Q 438 -125 430 -101.5 Q 422 -78 408.5 -57 Q 395 -36 375 -21 Q 355 -6 330.5 1 Q 306 8 281 8 Z " id="path1"/></defs><g><g data-source-text="p" fill="#dee4e3" transform="translate(40 104.99201) rotate(0) scale(0.09599999)"><use href="#path1" transform="translate(0 0)"/></g></g></svg>