<?xml version="1.0" encoding="UTF-8" standalone="no"?>
<svg height="160" viewBox="0 0 128 160" width="128" xmlns="http://www.w3.org/2000/svg">
<defs>
<path d="M 64 215 L 64 -320 Q 64 -347 68 -373.5 Q 72 -400 82.5 -424.5 Q 93 -449 110.5 -469.5 Q 128 -490 151 -503.5 Q 174 -517 200.5 -522.5 Q 227 -528 254 -528 Q 281 -528 307.5 -522.5 Q 334 -517 357 -503.5 Q 380 -490 397.5 -469.5 Q 415 -449 425.5 -424.5 Q 436 -400 440 -373.5 Q 444 -347 444 -320 L 444 -200 Q 444 -175 441.5 -150.5 Q 439 -126 431 -102.5 Q 423 -79 410 -58 Q 397 -37 377.5 -21.5 Q 358 -6 334 1 Q 310 8 285 8 Q 261 8 238 1.5 Q 215 -5 196 -19 Q 177 -33 163.5 -53 Q 150 -73 142 -96 L 142 215 Z M 254 -62 Q 271 -62 287.5 -66 Q 304 -70 317.5 -80 Q 331 -90 341 -104 Q 351 -118 356.5 -134 Q 362 -150 364 -166.5 Q 366 -183 366 -200 L 366 -320 Q 366 -337 364 -353.5 Q 362 -370 356.5 -386 Q 351 -402 341 -416 Q 331 -430 317.5 -440 Q 304 -450 287.5 -454 Q 271 -458 254 -458 Q 237 -458 220.5 -454 Q 204 -450 190.5 -440 Q 177 -430 167 -416 Q 157 -402 151.5 -386 Q 146 -370 144 -353.5 Q 142 -337 142 -320 L 142 -200 Q 142 -183 144 -166.5 Q 146 -150 151.5 -134 Q 157 -118 167 -104 Q 177 -90 190.5 -80 Q 204 -70 220.5 -66 Q 237 -62 254 -62 Z " id="path1"/>
</defs>
<g>
<g data-source-text="p" fill="#20242e" transform="translate(40 104.99201) rotate(0) scale(0.09599999)">
<use href="#path1" transform="translate(0 0)"/>
</g>
</g>
</svg>