<?xml version="1.0" encoding="UTF-8" standalone="no"?>
<svg height="160" viewBox="0 0 256 160" width="256" xmlns="http://www.w3.org/2000/svg">
<defs>
<path d="M 372 161 Q 319 151 271 125 Q 223 99 185.5 60 Q 148 21 123 -27 Q 98 -75 84 -127 Q 70 -179 64.5 -232.5 Q 59 -286 59 -340 Q 59 -394 64.5 -447.5 Q 70 -501 84 -553 Q 98 -605 123 -653 Q 148 -701 185.5 -740 Q 223 -779 271 -805 Q 319 -831 372 -841 L 387 -773 Q 343 -763 303.5 -739 Q 264 -715 234.5 -681 Q 205 -647 186 -605.5 Q 167 -564 156 -520 Q 145 -476 141 -430.5 Q 137 -385 137 -340 Q 137 -295 141 -249.5 Q 145 -204 156 -160 Q 167 -116 186 -74.5 Q 205 -33 234.5 1 Q 264 35 303.5 59 Q 343 83 387 93 Z " id="path1"/>
<path d="M 128 161 L 113 93 Q 138 87 162 76.5 Q 186 66 208 51.5 Q 230 37 248.5 19 Q 267 1 282.5 -20 Q 298 -41 309.5 -64.5 Q 321 -88 329.5 -112.5 Q 338 -137 344.5 -162.5 Q 351 -188 355 -213.5 Q 359 -239 361 -269.5 Q 363 -300 363 -318 L 363 -340 Q 363 -366 362 -392 Q 361 -418 358 -444 Q 355 -470 349.5 -495.5 Q 344 -521 336.5 -546 Q 329 -571 319 -595 Q 309 -619 295 -641 Q 281 -663 264 -682.5 Q 247 -702 226.5 -718 Q 206 -734 179 -749 Q 152 -764 135 -768 L 113 -773 L 128 -841 Q 158 -835 187 -824 Q 216 -813 243 -797 Q 270 -781 293 -760.5 Q 316 -740 335.5 -716 Q 355 -692 370.5 -665 Q 386 -638 397.5 -609.5 Q 409 -581 417 -551 Q 425 -521 430 -490.5 Q 435 -460 438 -424 Q 441 -388 441 -367 L 441 -340 Q 441 -309 439.5 -278 Q 438 -247 434 -216.5 Q 430 -186 423.5 -155.5 Q 417 -125 407 -96 Q 397 -67 383 -39 Q 369 -11 351.5 14.5 Q 334 40 312.5 62 Q 291 84 265.5 102 Q 240 120 207.5 136 Q 175 152 155 156 Z " id="path2"/>
</defs>
<g>
<g data-source-text="(" fill="#20242e" transform="translate(40 104.99201) rotate(0) scale(0.09599999)">
<use href="#path1" transform="translate(0 0)"/>
</g>
</g>
<g>
<g data-source-text=")" fill="#20242e" transform="translate(168 104.99201) rotate(0) scale(0.09599999)">
<use href="#path2" transform="translate(0 0)"/>
</g>
</g>
</svg>