<?xml version="1.0" encoding="UTF-8" standalone="no"?>
<svg height="160" viewBox="0 0 128 160" width="128" xmlns="http://www.w3.org/2000/svg">
<defs>
<path d="M 229 215 L 229 -334 Q 205 -334 180.5 -340 Q 156 -346 135.5 -360 Q 115 -374 100 -394 Q 85 -414 76 -437 Q 67 -460 63.5 -485 Q 60 -510 60 -534 Q 60 -559 63.5 -584 Q 67 -609 76 -632 Q 85 -655 100 -675 Q 115 -695 135.5 -708.5 Q 156 -722 180.5 -728.5 Q 205 -735 229 -735 L 440 -735 L 440 215 L 365 215 L 365 -668 L 304 -668 L 304 215 Z " id="path1"/>
</defs>
<g>
<g data-source-text="¶" fill="#dee4e3" transform="translate(40 104.99201) rotate(0) scale(0.09599999)">
<use href="#path1" transform="translate(0 0)"/>
</g>
</g>
</svg>