<?xml version="1.0" encoding="UTF-8" standalone="no"?>
<svg height="160" viewBox="0 0 128 160" width="128" xmlns="http://www.w3.org/2000/svg">
<defs>
<path d="M 108 0 L 32 0 L 215 -368 L 365 -678 L 228 -678 Q 232 -668 233 -658 Q 234 -648 234 -638 L 234 -489 Q 234 -468 227.5 -447.5 Q 221 -427 206 -412 Q 191 -397 170.5 -390.5 Q 150 -384 129 -384 Q 108 -384 87 -390.5 Q 66 -397 51 -412 Q 36 -427 30 -447.5 Q 24 -468 24 -489 L 24 -638 Q 24 -659 30 -679.5 Q 36 -700 51 -715 Q 66 -730 87 -736.5 Q 108 -743 129 -743 Q 141 -743 153 -741.5 Q 165 -740 176 -735 L 468 -735 L 285 -368 Z M 129 -445 Q 137 -445 145 -448.5 Q 153 -452 157.5 -458.5 Q 162 -465 164 -473 Q 166 -481 166 -489 L 166 -638 Q 166 -646 164 -654 Q 162 -662 157.5 -668.5 Q 153 -675 145 -678.5 Q 137 -682 129 -682 Q 121 -682 113 -678.5 Q 105 -675 100 -668.5 Q 95 -662 93.5 -654 Q 92 -646 92 -638 L 92 -489 Q 92 -481 93.5 -473 Q 95 -465 100 -458.5 Q 105 -452 113 -448.5 Q 121 -445 129 -445 Z M 371 8 Q 350 8 329.5 1.5 Q 309 -5 294 -20 Q 279 -35 272.5 -55.5 Q 266 -76 266 -98 L 266 -246 Q 266 -267 272.5 -287.5 Q 279 -308 294 -323 Q 309 -338 329.5 -344.5 Q 350 -351 371 -351 Q 392 -351 413 -344.5 Q 434 -338 449 -323 Q 464 -308 470 -287.5 Q 476 -267 476 -246 L 476 -98 Q 476 -76 470 -55.5 Q 464 -35 449 -20 Q 434 -5 413 1.5 Q 392 8 371 8 Z M 371 -53 Q 379 -53 387 -56.5 Q 395 -60 400 -66.5 Q 405 -73 406.5 -81 Q 408 -89 408 -98 L 408 -246 Q 408 -254 406.5 -262 Q 405 -270 400 -276.5 Q 395 -283 387 -286.5 Q 379 -290 371 -290 Q 363 -290 355 -286.5 Q 347 -283 342.5 -276.5 Q 338 -270 336 -262 Q 334 -254 334 -246 L 334 -98 Q 334 -89 336 -81 Q 338 -73 342.5 -66.5 Q 347 -60 355 -56.5 Q 363 -53 371 -53 Z " id="path1"/>
</defs>
<g>
<g data-source-text="%" fill="#20242e" transform="translate(40 104.99201) rotate(0) scale(0.09599999)">
<use href="#path1" transform="translate(0 0)"/>
</g>
</g>
</svg>