<?xml version="1.0" encoding="UTF-8" standalone="no"?>
<svg height="160" viewBox="0 0 128 160" width="128" xmlns="http://www.w3.org/2000/svg">
<defs>
<path d="M 250 8 Q 221 8 193 1.5 Q 165 -5 141.5 -21 Q 118 -37 100.5 -60.5 Q 83 -84 73 -110.5 Q 63 -137 59.5 -165.5 Q 56 -194 56 -223 Q 56 -249 59 -275 Q 62 -301 69.5 -326.5 Q 77 -352 90 -375 Q 103 -398 122.5 -415.5 Q 142 -433 167.5 -441 Q 193 -449 220 -449 Q 243 -449 265.5 -443 Q 288 -437 306.5 -423.5 Q 325 -410 338.5 -391 Q 352 -372 361 -351 Q 354 -403 336 -453 Q 318 -503 287.5 -546 Q 257 -589 213.5 -621 Q 170 -653 120 -668 L 141 -735 Q 191 -722 236 -695 Q 281 -668 316.5 -630.5 Q 352 -593 377.5 -547.5 Q 403 -502 418.5 -452.5 Q 434 -403 439 -351.5 Q 444 -300 444 -248 L 444 -221 Q 444 -192 440 -164 Q 436 -136 426 -109.5 Q 416 -83 399 -59.5 Q 382 -36 358 -20.5 Q 334 -5 306 1.5 Q 278 8 250 8 Z M 250 -62 Q 269 -62 287 -67.5 Q 305 -73 319 -85 Q 333 -97 342.5 -113.5 Q 352 -130 357 -147.5 Q 362 -165 364 -183.5 Q 366 -202 366 -220 Q 366 -239 364 -257.5 Q 362 -276 357 -293.5 Q 352 -311 342.5 -327.5 Q 333 -344 319 -356 Q 305 -368 287 -373.5 Q 269 -379 250 -379 Q 231 -379 213 -373.5 Q 195 -368 181 -356 Q 167 -344 157.5 -328 Q 148 -312 143 -294 Q 138 -276 136 -257.5 Q 134 -239 134 -221 Q 134 -202 136 -183.5 Q 138 -165 143 -147.5 Q 148 -130 157.5 -113.5 Q 167 -97 181 -85 Q 195 -73 213 -67.5 Q 231 -62 250 -62 Z " id="path1"/>
</defs>
<g>
<g data-source-text="∂" fill="#20242e" transform="translate(40 104.99201) rotate(0) scale(0.09599999)">
<use href="#path1" transform="translate(0 0)"/>
</g>
</g>
</svg>