<?xml version="1.0" encoding="UTF-8" standalone="no"?>
<svg height="160" viewBox="0 0 256 160" width="256" xmlns="http://www.w3.org/2000/svg">
<defs>
<path d="M 372 161 Q 319 151 271 125 Q 223 99 185.5 60 Q 148 21 123 -27 Q 98 -75 84 -127 Q 70 -179 64.5 -232.5 Q 59 -286 59 -340 Q 59 -394 64.5 -447.5 Q 70 -501 84 -553 Q 98 -605 123 -653 Q 148 -701 185.5 -740 Q 223 -779 271 -805 Q 319 -831 372 -841 L 387 -773 Q 343 -763 303.5 -739 Q 264 -715 234.5 -681 Q 205 -647 186 -605.5 Q 167 -564 156 -520 Q 145 -476 141 -430.5 Q 137 -385 137 -340 Q 137 -295 141 -249.5 Q 145 -204 156 -160 Q 167 -116 186 -74.5 Q 205 -33 234.5 1 Q 264 35 303.5 59 Q 343 83 387 93 Z " id="path1"/>
<path d="M 128 161 L 113 93 Q 157 83 196.5 59 Q 236 35 265.5 1 Q 295 -33 314 -74.5 Q 333 -116 344 -160 Q 355 -204 359 -249.5 Q 363 -295 363 -340 Q 363 -385 359 -430.5 Q 355 -476 344 -520 Q 333 -564 314 -605.5 Q 295 -647 265.5 -681 Q 236 -715 196.5 -739 Q 157 -763 113 -773 L 128 -841 Q 181 -831 229 -805 Q 277 -779 314.5 -740 Q 352 -701 377 -653 Q 402 -605 416 -553 Q 430 -501 435.5 -447.5 Q 441 -394 441 -340 Q 441 -286 435.5 -232.5 Q 430 -179 416 -127 Q 402 -75 377 -27 Q 352 21 314.5 60 Q 277 99 229 125 Q 181 151 128 161 Z " id="path2"/>
</defs>
<g>
<g data-source-text="(" fill="#dee4e3" transform="translate(40 104.99201) rotate(0) scale(0.09599999)">
<use href="#path1" transform="translate(0 0)"/>
</g>
</g>
<g>
<g data-source-text=")" fill="#dee4e3" transform="translate(168 104.99201) rotate(0) scale(0.09599999)">
<use href="#path2" transform="translate(0 0)"/>
</g>
</g>
</svg>