<?xml version="1.0" encoding="UTF-8" standalone="no"?>
<svg height="160" viewBox="0 0 768 160" width="768" xmlns="http://www.w3.org/2000/svg">
<defs>
<path d="M 184 0 L 184 -133 L 317 -133 L 317 0 Z " id="path1"/>
<path d="M 217 215 L 165 168 Q 183 151 199.5 132.5 Q 216 114 229 93 Q 242 72 249.5 48.5 Q 257 25 257 0 L 184 0 L 184 -133 L 317 -133 L 317 0 Q 317 30 309 60 Q 301 90 287.5 117 Q 274 144 255.5 168.5 Q 237 193 217 215 Z " id="path2"/>
<path d="M 184 0 L 184 -133 L 317 -133 L 317 0 Z M 184 -387 L 184 -520 L 317 -520 L 317 -387 Z " id="path3"/>
<path d="M 217 215 L 165 168 Q 183 151 199.5 132.5 Q 216 114 229 93 Q 242 72 249.5 48.5 Q 257 25 257 0 L 184 0 L 184 -133 L 317 -133 L 317 0 Q 317 30 309 60 Q 301 90 287.5 117 Q 274 144 255.5 168.5 Q 237 193 217 215 Z M 184 -387 L 184 -520 L 317 -520 L 317 -387 Z " id="path4"/>
<path d="M 211 -221 Q 211 -245 213 -269 Q 215 -293 221.5 -316.5 Q 228 -340 240 -361.5 Q 252 -383 266.5 -402.5 Q 281 -422 297 -440 Q 313 -458 327 -478 Q 341 -498 349.5 -521 Q 358 -544 358 -568 Q 358 -589 350.5 -610 Q 343 -631 327.5 -645.5 Q 312 -660 291 -666.5 Q 270 -673 249 -673 Q 227 -673 205.5 -666 Q 184 -659 169 -642.5 Q 154 -626 147 -604.5 Q 140 -583 140 -561 L 140 -555 L 62 -555 L 62 -564 Q 62 -589 67.5 -613 Q 73 -637 84.5 -658.5 Q 96 -680 114 -697 Q 132 -714 154 -724.5 Q 176 -735 200.5 -739 Q 225 -743 249 -743 Q 273 -743 297 -739 Q 321 -735 343 -725 Q 365 -715 383 -698.5 Q 401 -682 413 -661 Q 425 -640 430.5 -616 Q 436 -592 436 -568 Q 436 -544 430.5 -520 Q 425 -496 415.5 -474 Q 406 -452 393 -431.5 Q 380 -411 365 -392 Q 350 -373 334 -354.5 Q 318 -336 307 -314.5 Q 296 -293 292.5 -269 Q 289 -245 289 -221 Z M 191 0 L 191 -119 L 309 -119 L 309 0 Z " id="path5"/>
<path d="M 211 -260 L 211 -735 L 289 -735 L 289 -260 Z M 191 0 L 191 -119 L 309 -119 L 309 0 Z " id="path6"/>
</defs>
<g>
<g data-source-text="." fill="#20242e" transform="translate(40 104.99201) rotate(0) scale(0.09599999)">
<use href="#path1" transform="translate(0 0)"/>
</g>
</g>
<g>
<g data-source-text="," fill="#20242e" transform="translate(168 104.99201) rotate(0) scale(0.09599999)">
<use href="#path2" transform="translate(0 0)"/>
</g>
</g>
<g>
<g data-source-text=":" fill="#20242e" transform="translate(296 104.99201) rotate(0) scale(0.09599999)">
<use href="#path3" transform="translate(0 0)"/>
</g>
</g>
<g>
<g data-source-text=";" fill="#20242e" transform="translate(424 104.99201) rotate(0) scale(0.09599999)">
<use href="#path4" transform="translate(0 0)"/>
</g>
</g>
<g>
<g data-source-text="?" fill="#20242e" transform="translate(552 104.99201) rotate(0) scale(0.09599999)">
<use href="#path5" transform="translate(0 0)"/>
</g>
</g>
<g>
<g data-source-text="!" fill="#20242e" transform="translate(680 104.99201) rotate(0) scale(0.09599999)">
<use href="#path6" transform="translate(0 0)"/>
</g>
</g>
</svg>