<svg xmlns="http://www.w3.org/2000/svg" height="160" viewBox="0 0 256 160" width="256"><defs><path d="M 399.00003 161.00002 C 363.66666 154.33334 329.83334 142.33333 297.5 125 C 265.16666 107.666664 236.49998 86.166664 211.50002 60.500004 C 186.5 34.833332 165.33333 5.9999986 148 -26.000002 C 130.66667 -58 117.333336 -91.333336 108 -126 C 98.66667 -160.66667 92.166664 -195.99998 88.50001 -232 C 84.833336 -268 83 -304 83 -340 C 83 -376.00003 84.833336 -412.00003 88.50001 -448 C 92.166664 -483.99997 98.66667 -519.3333 108 -554.00006 C 117.333336 -588.6666 130.66667 -622 148 -654 C 165.33333 -686.00006 186.5 -714.83325 211.50002 -740.5 C 236.49998 -766.1667 265.16666 -787.6667 297.5 -805 C 329.83334 -822.3334 363.66666 -834.3334 399.00003 -841 L 414 -773 C 384.66666 -766.3333 356.66666 -755.1667 330 -739.50006 C 303.33334 -723.8334 280.00003 -704.6666 260.00003 -682 C 240.00002 -659.3333 223.5 -634.1667 210.50002 -606.5 C 197.5 -578.8334 187.33334 -550.1667 180.00002 -520.50006 C 172.66667 -490.83334 167.5 -460.8333 164.5 -430.5 C 161.5 -400.16666 160.00002 -369.99997 160.00002 -340 C 160.00002 -310 161.5 -279.8333 164.5 -249.5 C 167.5 -219.16666 172.66667 -189.16667 180.00002 -159.50002 C 187.33334 -129.83333 197.5 -101.16667 210.50002 -73.50001 C 223.5 -45.833336 240.00002 -20.666666 260.00003 2 C 280.00003 24.666666 303.33334 43.833336 330 59.5 C 356.66666 75.166664 384.66666 86.333336 414 93.00001 Z " id="path1"/><path d="M 101.00001 161.00002 L 86.00001 93.00001 C 115.33334 86.333336 143.33334 75.166664 170 59.5 C 196.66666 43.833336 220 24.666666 240.00002 2 C 260 -20.666666 276.5 -45.833336 289.5 -73.50001 C 302.5 -101.16667 312.66666 -129.83333 320.00003 -159.50002 C 327.33334 -189.16667 332.5 -219.16666 335.5 -249.5 C 338.5 -279.8333 340 -310 340 -340 C 340 -369.99997 338.5 -400.16666 335.5 -430.5 C 332.5 -460.8333 327.33334 -490.83334 320.00003 -520.50006 C 312.66666 -550.1667 302.5 -578.8334 289.5 -606.5 C 276.5 -634.1667 260 -659.3333 240.00002 -682 C 220 -704.6666 196.66666 -723.8334 170 -739.50006 C 143.33334 -755.1667 115.33334 -766.3333 86.00001 -773 L 101.00001 -841 C 136.33334 -834.3334 170.16667 -822.3334 202.50002 -805 C 234.83333 -787.6667 263.5 -766.1667 288.50003 -740.5 C 313.5 -714.83325 334.66666 -686.00006 352 -654 C 369.33334 -622 382.6667 -588.6666 392 -554.00006 C 401.33334 -519.3333 407.83334 -483.99997 411.50003 -448 C 415.16672 -412.00003 417.00003 -376.00003 417.00003 -340 C 417.00003 -304 415.16672 -268 411.50003 -232 C 407.83334 -195.99998 401.33334 -160.66667 392 -126 C 382.6667 -91.333336 369.33334 -58 352 -26.000002 C 334.66666 5.9999986 313.5 34.833332 288.50003 60.500004 C 263.5 86.166664 234.83333 107.666664 202.50002 125 C 170.16667 142.33333 136.33334 154.33334 101.00001 161.00002 Z " id="path2"/></defs><g><g fill="#ffffff" transform="translate(40 105.20961) rotate(0)"><use href="#path1" transform="translate(0 0) scale(0.09599999)"/></g><g fill="#ffffff" transform="translate(168 105.20961) rotate(0)"><use href="#path2" transform="translate(0 0) scale(0.09599999)"/></g></g></svg>