<svg xmlns="http://www.w3.org/2000/svg" height="160" viewBox="0 0 256 160" width="256"><defs><path d="M 399.00003 161.00002 C 369.66666 161.00002 340.66666 157.66667 312 151 C 283.3333 144.33333 256.99997 133 233 117.00001 C 209 101.00001 188.16666 81.16667 170.5 57.5 C 152.83334 33.833332 138.83334 8.499999 128.50002 -18.5 C 118.16667 -45.5 111.00001 -73.5 107.00001 -102.50001 C 103.00001 -131.49998 101.00001 -160.66666 101.00001 -190 L 101.00001 -490.00003 C 101.00001 -519.3333 103.00001 -548.5 107.00001 -577.5 C 111.00001 -606.5 118.16667 -634.50006 128.50002 -661.50006 C 138.83334 -688.5 152.83334 -713.8334 170.5 -737.50006 C 188.16666 -761.1667 209 -781 233 -797.00006 C 256.99997 -813.00006 283.3333 -824.3334 312 -831.00006 C 340.66666 -837.6667 369.66666 -841 399.00003 -841 L 399.00003 -771 C 376.3333 -771 354.00003 -768 332 -762 C 310 -756 290 -746.1666 272 -732.5 C 254 -718.8333 238.83333 -702.49994 226.5 -683.5 C 214.16667 -664.5 204.5 -644.3333 197.50002 -623 C 190.5 -601.6667 185.66667 -579.8333 183.00002 -557.5 C 180.33334 -535.1667 179 -512.6667 179 -490.00003 L 179 -190 C 179 -167.33333 180.33334 -144.83333 183.00002 -122.50001 C 185.66667 -100.166664 190.5 -78.33333 197.50002 -57.000004 C 204.5 -35.66667 214.33334 -15.500001 227 3.5 C 239.66667 22.5 254.83334 38.833332 272.5 52.5 C 290.16666 66.166664 310 76 332 82.00001 C 354.00003 88 376.3333 91 399.00003 91 Z " id="path1"/><path d="M 101.00001 161.00002 L 101.00001 91 C 123.666664 91 146 88 168.00002 82.00001 C 190 76 210 66.166664 228.00002 52.5 C 245.99998 38.833332 261.16666 22.5 273.5 3.5 C 285.8333 -15.500001 295.5 -35.66667 302.50003 -57.000004 C 309.5 -78.33333 314.33334 -100.166664 317.00003 -122.50001 C 319.6667 -144.83333 321 -167.33333 321 -190 L 321 -490.00003 C 321 -512.6667 319.6667 -535.1667 317.00003 -557.5 C 314.33334 -579.8333 309.5 -601.6667 302.50003 -623 C 295.5 -644.3333 285.66666 -664.5 273 -683.5 C 260.3333 -702.49994 245.16667 -718.8333 227.50002 -732.5 C 209.83333 -746.1666 190 -756 168.00002 -762 C 146 -768 123.666664 -771 101.00001 -771 L 101.00001 -841 C 130.33334 -841 159.33333 -837.6667 188.00002 -831.00006 C 216.66667 -824.3334 243 -813.00006 267 -797.00006 C 291 -781 311.83334 -761.1667 329.5 -737.50006 C 347.16666 -713.8334 361.16666 -688.5 371.50003 -661.50006 C 381.8333 -634.50006 389.00003 -606.5 393.00003 -577.5 C 397 -548.5 399.00003 -519.3333 399.00003 -490.00003 L 399.00003 -190 C 399.00003 -160.66666 397 -131.49998 393.00003 -102.50001 C 389.00003 -73.5 381.8333 -45.5 371.50003 -18.5 C 361.16666 8.499999 347.16666 33.833332 329.5 57.5 C 311.83334 81.16667 291 101.00001 267 117.00001 C 243 133 216.66667 144.33333 188.00002 151 C 159.33333 157.66667 130.33334 161.00002 101.00001 161.00002 Z " id="path2"/></defs><g><g fill="#000000" transform="translate(40 105.20961) rotate(0)"><use href="#path1" transform="translate(0 0) scale(0.09599999)"/></g><g fill="#000000" transform="translate(168 105.20961) rotate(0)"><use href="#path2" transform="translate(0 0) scale(0.09599999)"/></g></g></svg>