<?xml version="1.0" encoding="UTF-8" standalone="no"?>
<svg height="160" viewBox="0 0 256 160" width="256" xmlns="http://www.w3.org/2000/svg">
<defs>
<path d="M 372 161 Q 328 161 285.5 151 Q 243 141 207 116.5 Q 171 92 145 56.5 Q 119 21 104 -19.5 Q 89 -60 83.5 -103 Q 78 -146 78 -190 L 78 -490 Q 78 -534 83.5 -577 Q 89 -620 104 -660.5 Q 119 -701 145 -736.5 Q 171 -772 207 -796.5 Q 243 -821 285.5 -831 Q 328 -841 372 -841 L 372 -771 Q 338 -771 305.5 -762 Q 273 -753 246.5 -732 Q 220 -711 202 -682.5 Q 184 -654 173.5 -622 Q 163 -590 159 -557 Q 155 -524 155 -490 L 155 -190 Q 155 -156 159 -123 Q 163 -90 173.5 -58 Q 184 -26 202 2.5 Q 220 31 246.5 52 Q 273 73 305.5 82 Q 338 91 372 91 Z " id="path1"/>
<path d="M 128 161 L 128 91 Q 147 91 166.5 88 Q 186 85 204 79 Q 222 73 238.5 62.5 Q 255 52 268.5 38.5 Q 282 25 293 9.5 Q 304 -6 312.5 -23.5 Q 321 -41 327 -59.5 Q 333 -78 337 -96.5 Q 341 -115 343 -137.5 Q 345 -160 345 -173 L 345 -490 Q 345 -509 344 -528.5 Q 343 -548 340 -567 Q 337 -586 332 -604.5 Q 327 -623 319.5 -641 Q 312 -659 302.5 -675.5 Q 293 -692 280.5 -706.5 Q 268 -721 252.5 -733 Q 237 -745 219.5 -753 Q 202 -761 180 -766 Q 158 -771 145 -771 L 128 -771 L 128 -841 Q 153 -841 178 -838 Q 203 -835 227 -828 Q 251 -821 273 -809 Q 295 -797 314 -781 Q 333 -765 348.5 -745 Q 364 -725 376 -703.5 Q 388 -682 396.5 -658.5 Q 405 -635 410.5 -611 Q 416 -587 419 -558 Q 422 -529 422 -512 L 422 -190 Q 422 -165 420.5 -140 Q 419 -115 415 -90.5 Q 411 -66 404 -42 Q 397 -18 386.5 4.5 Q 376 27 361.5 48 Q 347 69 329.5 86.5 Q 312 104 291 118 Q 270 132 247 141 Q 224 150 195.5 155.5 Q 167 161 150 161 Z " id="path2"/>
</defs>
<g>
<g data-source-text="(" fill="#20242e" transform="translate(40 104.99201) rotate(0) scale(0.09599999)">
<use href="#path1" transform="translate(0 0)"/>
</g>
</g>
<g>
<g data-source-text=")" fill="#20242e" transform="translate(168 104.99201) rotate(0) scale(0.09599999)">
<use href="#path2" transform="translate(0 0)"/>
</g>
</g>
</svg>