<svg xmlns="http://www.w3.org/2000/svg" height="160" viewBox="0 0 128 160" width="128"><defs><path d="M 32 0 L 217.00002 -368 L 363 -681 L 231.00002 -681 C 233.66667 -674.33325 235.5 -667.3333 236.50002 -660 C 237.5 -652.6667 238 -645.3334 238 -638.00006 L 238 -485.00003 C 238 -470.99997 235.83333 -457 231.50002 -443 C 227.16669 -429 219.83334 -417 209.5 -407 C 199.16666 -397 187 -390 173 -386 C 159 -381.99997 145 -379.99997 131 -380 C 117.00001 -379.99997 103.00001 -381.99997 89 -386 C 75 -390 62.833332 -397 52.5 -407 C 42.166668 -417 34.833332 -429 30.5 -443 C 26.166666 -457 24 -470.99997 24 -485.00003 L 24 -638.00006 C 24 -652 26.166666 -666 30.5 -680 C 34.833332 -693.99994 42.166668 -705.99994 52.5 -716 C 62.833332 -726 74.833336 -733.1667 88.50001 -737.50006 C 102.166664 -741.8334 116.33333 -744.00006 131 -744.00006 C 139 -744.00006 147.16667 -743.3334 155.50002 -742.00006 C 163.83334 -740.6666 171.66667 -738.3333 179 -735 L 468.00003 -735 L 283.00003 -368 L 112 0 Z M 131 -444.00003 C 136.33333 -444.00003 141.33333 -445 146 -447 C 150.66666 -449 154.5 -452 157.5 -456.00003 C 160.5 -460 162.66666 -464.66666 164.00002 -470 C 165.33333 -475.33334 166 -480.33334 166 -485.00003 L 166 -638.00006 C 166 -642.6667 165.33333 -647.5 164.00002 -652.5 C 162.66666 -657.5 160.5 -662.1667 157.5 -666.50006 C 154.5 -670.8334 150.5 -673.8334 145.50002 -675.5 C 140.5 -677.1666 135.33334 -678 130.00002 -678 C 125.333336 -678 120.5 -677 115.50001 -675.00006 C 110.5 -673.00006 106.5 -670 103.5 -666 C 100.5 -662 98.5 -657.5 97.5 -652.5 C 96.5 -647.5 96 -642.6667 96 -638.00006 L 96 -485.00003 C 96 -480.33334 96.5 -475.33334 97.5 -470 C 98.5 -464.66666 100.666664 -460 104.00001 -456.00003 C 107.33333 -452 111.333336 -449 116 -447 C 120.666664 -445 125.66667 -444.00003 131 -444.00003 Z M 369 8 C 355.00003 8 341 5.833333 327 1.5 C 313 -2.8333333 300.8333 -9.833334 290.5 -19.5 C 280.1667 -29.166668 272.83334 -41 268.50003 -55.000004 C 264.1667 -69 262 -83.333336 262 -98 L 262 -250 C 262 -264 264.1667 -278 268.50003 -292 C 272.83334 -306 280.1667 -318 290.5 -328.00003 C 300.8333 -338 313 -345.33334 327 -350 C 341 -354.66666 355.00003 -356.99997 369 -357 C 383.6667 -356.99997 397.83337 -354.66666 411.50003 -350 C 425.1667 -345.33334 437.16666 -338 447.5 -328.00003 C 457.83334 -318 465.16666 -306 469.5 -292 C 473.83334 -278 476 -264 476 -250 L 476 -98 C 476 -83.333336 473.83334 -69 469.5 -55.000004 C 465.16666 -41 457.83334 -29.166668 447.5 -19.5 C 437.16666 -9.833334 425 -2.8333333 411.00003 1.5 C 397 5.833333 383 8 369 8 Z M 369 -57.000004 C 374.33334 -57.000004 379.33334 -58 384 -60.000004 C 388.66666 -62 392.66666 -65 396 -69 C 399.33334 -73 401.5 -77.5 402.5 -82.5 C 403.5 -87.5 404.00003 -92.66667 404.00003 -98 L 404.00003 -250 C 404.00003 -254.66667 403.5 -259.6667 402.5 -265 C 401.5 -270.33334 399.33334 -274.99997 396 -279 C 392.66666 -283 388.5 -286.00003 383.50003 -288.00003 C 378.5 -290 373.6667 -291 369 -291.00003 C 363.66672 -291 358.66666 -289.83334 354.00003 -287.5 C 349.33334 -285.16666 345.5 -282 342.50003 -278 C 339.50003 -274 337.33337 -269.5 336.00003 -264.5 C 334.66666 -259.5 333.99997 -254.66667 334 -250 L 334 -98 C 333.99997 -92.66667 334.66666 -87.5 336.00003 -82.5 C 337.33337 -77.5 339.50003 -73 342.50003 -69 C 345.5 -65 349.33334 -62 354.00003 -60.000004 C 358.66666 -58 363.66672 -57.000004 369 -57.000004 Z " id="path1"/></defs><g><g fill="#000000" transform="translate(40 105.20961) rotate(0)"><use href="#path1" transform="translate(0 0) scale(0.09599999)"/></g></g></svg>