<?xml version="1.0" encoding="UTF-8" standalone="no"?>
<svg height="160" viewBox="0 0 128 160" width="128" xmlns="http://www.w3.org/2000/svg">
<defs>
<path d="M 64 215 L 64 -471 Q 104 -501 152 -514.5 Q 200 -528 250 -528 Q 277 -528 303.5 -522.5 Q 330 -517 353.5 -504 Q 377 -491 395.5 -470.5 Q 414 -450 425 -425.5 Q 436 -401 440 -374 Q 444 -347 444 -320 L 444 -200 Q 444 -175 441.5 -150.5 Q 439 -126 431 -102.5 Q 423 -79 410 -58 Q 397 -37 377.5 -21.5 Q 358 -6 334 1 Q 310 8 285 8 Q 261 8 238 1.5 Q 215 -5 196 -19 Q 177 -33 163.5 -53 Q 150 -73 142 -96 L 142 215 Z M 254 -62 Q 271 -62 287.5 -66 Q 304 -70 317.5 -80 Q 331 -90 341 -104 Q 351 -118 356.5 -134 Q 362 -150 364 -166.5 Q 366 -183 366 -200 L 366 -320 Q 366 -337 364 -354 Q 362 -371 356 -387 Q 350 -403 339.5 -417 Q 329 -431 315 -440.5 Q 301 -450 284 -454 Q 267 -458 250 -458 Q 222 -458 194.5 -453 Q 167 -448 142 -435 L 142 -200 Q 142 -183 144 -166.5 Q 146 -150 151.5 -134 Q 157 -118 167 -104 Q 177 -90 190.5 -80 Q 204 -70 220.5 -66 Q 237 -62 254 -62 Z " id="path1"/>
</defs>
<g>
<g data-source-text="p" fill="#dee4e3" transform="translate(40 104.99201) rotate(0) scale(0.09599999)">
<use href="#path1" transform="translate(0 0)"/>
</g>
</g>
</svg>