<svg xmlns="http://www.w3.org/2000/svg" height="160" viewBox="0 0 256 160" width="256"><defs><path d="M 101.00001 161.00002 L 63 100.00001 C 100.33333 78.66667 133.66666 51.666668 163 19 C 192.33333 -13.666666 216.16666 -49.500004 234.50002 -88.50001 C 252.83333 -127.5 265.6667 -168.33334 273 -211.00002 C 280.33334 -253.66667 284 -296.66666 284 -340 C 284 -383.33334 280.33334 -426.33337 273 -469.00003 C 265.6667 -511.66663 252.83333 -552.5 234.50002 -591.5 C 216.16666 -630.5 192.33333 -666.3334 163 -699.00006 C 133.66666 -731.6667 100.33333 -758.6667 63 -780 L 101.00001 -841 C 130.33334 -825 157.5 -806.1667 182.50002 -784.50006 C 207.5 -762.8334 230 -738.8334 250 -712.50006 C 270 -686.1667 287.33334 -658.1667 302 -628.50006 C 316.66666 -598.8333 328.33334 -568 337.00003 -536 C 345.66666 -504 352 -471.66666 356 -439.00003 C 360 -406.3333 362 -373.3333 362 -340 C 362 -306.66666 360 -273.66666 356 -241 C 352 -208.33334 345.66666 -176 337.00003 -144.00002 C 328.33334 -112 316.66666 -81.166664 302 -51.500004 C 287.33334 -21.833336 270 6.166668 250 32.500004 C 230 58.833332 207.5 82.833336 182.50002 104.50001 C 157.5 126.166664 130.33334 145 101.00001 161.00002 Z " id="path2"/><path d="M 399.00003 161.00002 C 369.66666 145 342.49997 126.166664 317.5 104.50001 C 292.5 82.833336 270 58.833332 250 32.500004 C 230 6.166668 212.66667 -21.833336 198 -51.500004 C 183.33333 -81.166664 171.66667 -112 163 -144.00002 C 154.33334 -176 148 -208.33334 144.00002 -241 C 140.00002 -273.66666 138 -306.66666 138 -340 C 138 -373.3333 140.00002 -406.3333 144.00002 -439.00003 C 148 -471.66666 154.33334 -504 163 -536 C 171.66667 -568 183.33333 -598.8333 198 -628.50006 C 212.66667 -658.1667 230 -686.1667 250 -712.50006 C 270 -738.8334 292.5 -762.8334 317.5 -784.50006 C 342.49997 -806.1667 369.66666 -825 399.00003 -841 L 437 -780 C 399.6667 -758.6667 366.33334 -731.6667 337.00003 -699.00006 C 307.66666 -666.3334 283.83334 -630.5 265.50003 -591.5 C 247.16666 -552.5 234.33333 -511.66663 227 -469.00003 C 219.66667 -426.33337 216 -383.33334 216 -340 C 216 -296.66666 219.66667 -253.66667 227 -211.00002 C 234.33333 -168.33334 247.16666 -127.5 265.50003 -88.50001 C 283.83334 -49.500004 307.66666 -13.666666 337.00003 19 C 366.33334 51.666668 399.6667 78.66667 437 100.00001 Z " id="path1"/></defs><g><g fill="#000000" transform="translate(40 105.20961) rotate(0)"><use href="#path1" transform="translate(0 0) scale(0.09599999)"/></g><g fill="#000000" transform="translate(168 105.20961) rotate(0)"><use href="#path2" transform="translate(0 0) scale(0.09599999)"/></g></g></svg>