<?xml version="1.0" encoding="UTF-8" standalone="no"?>
<svg height="160" viewBox="0 0 128 160" width="128" xmlns="http://www.w3.org/2000/svg">
<defs>
<path d="M 234 215 L 234 -339 Q 210 -339 185.5 -345 Q 161 -351 140 -364 Q 119 -377 104 -397 Q 89 -417 80 -440 Q 71 -463 67.5 -487.5 Q 64 -512 64 -537 Q 64 -562 67.5 -586.5 Q 71 -611 80 -634 Q 89 -657 104 -677 Q 119 -697 140 -710.5 Q 161 -724 185.5 -729.5 Q 210 -735 234 -735 L 436 -735 L 436 215 L 373 215 L 373 -679 L 297 -679 L 297 215 Z " id="path1"/>
</defs>
<g>
<g data-source-text="¶" fill="#dee4e3" transform="translate(40 104.99201) rotate(0) scale(0.09599999)">
<use href="#path1" transform="translate(0 0)"/>
</g>
</g>
</svg>