<?xml version="1.0" encoding="UTF-8" standalone="no"?>
<svg height="160" viewBox="0 0 128 160" width="128" xmlns="http://www.w3.org/2000/svg">
<defs>
<path d="M 141 -360 Q 119 -360 96.5 -365.5 Q 74 -371 57 -385.5 Q 40 -400 32 -421.5 Q 24 -443 24 -465 L 24 -638 Q 24 -660 32 -681.5 Q 40 -703 57 -717.5 Q 74 -732 96.5 -737.5 Q 119 -743 141 -743 Q 163 -743 185.5 -737.5 Q 208 -732 225 -717.5 Q 242 -703 250 -681.5 Q 258 -660 258 -638 L 258 -465 Q 258 -443 250 -421.5 Q 242 -400 225 -385.5 Q 208 -371 185.5 -365.5 Q 163 -360 141 -360 Z M 287 -431 L 382 -735 L 468 -735 L 362 -431 Z M 141 -429 Q 149 -429 156.5 -431 Q 164 -433 170 -438 Q 176 -443 178.5 -450 Q 181 -457 181 -465 L 181 -638 Q 181 -645 178.5 -652.5 Q 176 -660 170 -665 Q 164 -670 156.5 -672 Q 149 -674 141 -674 Q 133 -674 125.5 -672 Q 118 -670 112 -665 Q 106 -660 103.5 -652.5 Q 101 -645 101 -638 L 101 -465 Q 101 -457 103.5 -450 Q 106 -443 112 -438 Q 118 -433 125.5 -431 Q 133 -429 141 -429 Z M 359 8 Q 337 8 314.5 2.5 Q 292 -3 275 -17.5 Q 258 -32 250 -53.5 Q 242 -75 242 -98 L 242 -270 Q 242 -292 250 -313.5 Q 258 -335 275 -349.5 Q 292 -364 314.5 -369.5 Q 337 -375 359 -375 Q 381 -375 403.5 -369.5 Q 426 -364 443 -349.5 Q 460 -335 468 -313.5 Q 476 -292 476 -270 L 476 -98 Q 476 -75 468 -53.5 Q 460 -32 443 -17.5 Q 426 -3 403.5 2.5 Q 381 8 359 8 Z M 359 -61 Q 367 -61 374.5 -63 Q 382 -65 388 -70 Q 394 -75 396.5 -82.5 Q 399 -90 399 -98 L 399 -270 Q 399 -278 396.5 -285 Q 394 -292 388 -297 Q 382 -302 374.5 -304 Q 367 -306 359 -306 Q 351 -306 343.5 -304 Q 336 -302 330 -297 Q 324 -292 321.5 -285 Q 319 -278 319 -270 L 319 -98 Q 319 -90 321.5 -82.5 Q 324 -75 330 -70 Q 336 -65 343.5 -63 Q 351 -61 359 -61 Z M 32 0 L 138 -304 L 213 -304 L 118 0 Z " id="path1"/>
</defs>
<g>
<g data-source-text="%" fill="#dee4e3" transform="translate(40 104.99201) rotate(0) scale(0.09599999)">
<use href="#path1" transform="translate(0 0)"/>
</g>
</g>
</svg>