<?xml version="1.0" encoding="UTF-8" standalone="no"?>
<svg xmlns="http://www.w3.org/2000/svg" height="160" viewBox="0 0 128 160" width="128"><defs><path d="M 64 -30 Q 85 -49 98.5 -74.5 Q 112 -100 118 -128 Q 107 -114 93 -104 Q 79 -94 64 -87 Z M -75 -62 Q -39 -62 -3.5 -67 Q 32 -72 64 -87 L 64 -320 Q 64 -343 62 -366.5 Q 60 -390 54 -412.5 Q 48 -435 37.5 -456.5 Q 27 -478 10.5 -494.5 Q -6 -511 -28.5 -519.5 Q -51 -528 -75 -528 Q -98 -528 -119.5 -519.5 Q -141 -511 -157 -494 Q -173 -477 -182.5 -455.5 Q -192 -434 -197.5 -411.5 Q -203 -389 -205 -366 Q -207 -343 -207 -320 L -207 -200 Q -207 -168 -202 -136.5 Q -197 -105 -183 -76 Q -157 -68 -129.5 -65 Q -102 -62 -75 -62 Z M 64 215 L 64 -30 Q 42 -10 13.5 -1 Q -15 8 -44 8 Q -66 8 -87 3.5 Q -108 -1 -126.5 -12.5 Q -145 -24 -159 -40.5 Q -173 -57 -183 -76 Q -203 -83 -222.5 -93.5 Q -242 -104 -256.5 -120.5 Q -271 -137 -278 -157.5 Q -285 -178 -285 -200 L -285 -320 Q -285 -353 -281.5 -385.5 Q -278 -418 -268 -449.5 Q -258 -481 -240.5 -509.5 Q -223 -538 -197.5 -559 Q -172 -580 -140 -589 Q -108 -598 -75 -598 Q -42 -598 -9 -589 Q 24 -580 50 -559.5 Q 76 -539 94.5 -511 Q 113 -483 123.5 -451.5 Q 134 -420 138 -386.5 Q 142 -353 142 -320 L 142 215 Z " id="path1"/></defs><g><g data-source-text="p" fill="#20242e" transform="translate(40 104.99201) rotate(0) scale(0.09599999)"><use href="#path1" transform="translate(0 0)"/></g></g></svg>