<svg xmlns="http://www.w3.org/2000/svg" height="160" viewBox="0 0 256 160" width="256"><defs><path d="M 101 161 L 86 93 Q 130 83 170 59.5 Q 210 36 240 2 Q 270 -32 289.5 -73.5 Q 309 -115 320 -159.5 Q 331 -204 335.5 -249.5 Q 340 -295 340 -340 Q 340 -385 335.5 -430.5 Q 331 -476 320 -520.5 Q 309 -565 289.5 -606.5 Q 270 -648 240 -682 Q 210 -716 170 -739.5 Q 130 -763 86 -773 L 101 -841 Q 154 -831 202.5 -805 Q 251 -779 288.5 -740.5 Q 326 -702 352 -654 Q 378 -606 392 -554 Q 406 -502 411.5 -448 Q 417 -394 417 -340 Q 417 -286 411.5 -232 Q 406 -178 392 -126 Q 378 -74 352 -26 Q 326 22 288.5 60.5 Q 251 99 202.5 125 Q 154 151 101 161 Z " id="path2"/><path d="M 399 161 Q 346 151 297.5 125 Q 249 99 211.5 60.5 Q 174 22 148 -26 Q 122 -74 108 -126 Q 94 -178 88.5 -232 Q 83 -286 83 -340 Q 83 -394 88.5 -448 Q 94 -502 108 -554 Q 122 -606 148 -654 Q 174 -702 211.5 -740.5 Q 249 -779 297.5 -805 Q 346 -831 399 -841 L 414 -773 Q 370 -763 330 -739.5 Q 290 -716 260 -682 Q 230 -648 210.5 -606.5 Q 191 -565 180 -520.5 Q 169 -476 164.5 -430.5 Q 160 -385 160 -340 Q 160 -295 164.5 -249.5 Q 169 -204 180 -159.5 Q 191 -115 210.5 -73.5 Q 230 -32 260 2 Q 290 36 330 59.5 Q 370 83 414 93 Z " id="path1"/></defs><g><g fill="#dee4e3" transform="translate(40 105.20961) rotate(0)"><use href="#path1" transform="translate(0 0) scale(0.09599999)"/></g><g fill="#dee4e3" transform="translate(168 105.20961) rotate(0)"><use href="#path2" transform="translate(0 0) scale(0.09599999)"/></g></g></svg>