<svg xmlns="http://www.w3.org/2000/svg" height="160" viewBox="0 0 128 160" width="128"><defs><path d="M 229 0 L 229 -334 C 213 -333.99997 196.83334 -335.99997 180.50002 -340 C 164.16667 -344 149.16667 -350.6667 135.50002 -360.00003 C 121.833336 -369.33334 110 -380.66666 100.00001 -394.00003 C 90 -407.33334 82 -421.6667 76 -437 C 70 -452.33334 65.833336 -468.33334 63.500004 -485.00003 C 61.166664 -501.66663 60.000004 -518 60.000004 -534 C 60.000004 -550.6667 61.166664 -567.3333 63.500004 -584 C 65.833336 -600.6667 70 -616.6666 76 -632 C 82 -647.3333 90 -661.6667 100.00001 -675.00006 C 110 -688.3334 121.833336 -699.5 135.50002 -708.5 C 149.16667 -717.50006 164.16667 -724.16675 180.50002 -728.5 C 196.83334 -732.8333 213 -735 229 -735 L 440.00003 -735 L 440.00003 0 L 365.00003 0 L 365.00003 -668 L 304 -668 L 304 0 Z " id="path1"/></defs><g><g fill="#000000" transform="translate(40 105.20961) rotate(0)"><use href="#path1" transform="translate(0 0) scale(0.09599999)"/></g></g></svg>