<?xml version="1.0" encoding="UTF-8" standalone="no"?>
<svg height="160" viewBox="0 0 128 160" width="128" xmlns="http://www.w3.org/2000/svg">
<defs>
<path d="M 231 215 L 231 -337 Q 206 -337 182 -343 Q 158 -349 137 -362.5 Q 116 -376 101 -396 Q 86 -416 76.5 -439 Q 67 -462 64 -486.5 Q 61 -511 61 -536 Q 61 -561 64 -585.5 Q 67 -610 76.5 -633 Q 86 -656 101 -676 Q 116 -696 137 -709.5 Q 158 -723 182 -729 Q 206 -735 231 -735 L 439 -735 L 439 215 L 371 215 L 371 -673 L 300 -673 L 300 215 Z " id="path1"/>
</defs>
<g>
<g data-source-text="¶" fill="#dee4e3" transform="translate(40 104.99201) rotate(0) scale(0.09599999)">
<use href="#path1" transform="translate(0 0)"/>
</g>
</g>
</svg>