<?xml version="1.0" encoding="UTF-8" standalone="no"?>
<svg height="160" viewBox="0 0 128 160" width="128" xmlns="http://www.w3.org/2000/svg">
<defs>
<path d="M 250 8 Q 222 8 194 1.5 Q 166 -5 142 -20.5 Q 118 -36 101 -59.5 Q 84 -83 74 -109.5 Q 64 -136 60 -164 Q 56 -192 56 -220 Q 56 -249 59.5 -277 Q 63 -305 73 -331.5 Q 83 -358 100.5 -381 Q 118 -404 141 -419.5 Q 164 -435 192 -442 Q 220 -449 248 -449 Q 278 -449 307 -440 Q 336 -431 358 -411 Q 346 -455 325 -496.5 Q 304 -538 273.5 -572 Q 243 -606 203.5 -630.5 Q 164 -655 120 -667 L 141 -735 Q 191 -722 236 -695 Q 281 -668 316.5 -630.5 Q 352 -593 377.5 -547.5 Q 403 -502 418.5 -452.5 Q 434 -403 439 -351.5 Q 444 -300 444 -248 L 444 -221 Q 444 -192 440.5 -164 Q 437 -136 426.5 -109.5 Q 416 -83 399 -60 Q 382 -37 358 -21 Q 334 -5 306 1.5 Q 278 8 250 8 Z M 250 -62 Q 269 -62 286.5 -68.5 Q 304 -75 318.5 -86.5 Q 333 -98 343 -113.5 Q 353 -129 358.5 -147 Q 364 -165 365 -183.5 Q 366 -202 366 -220 Q 366 -239 364 -257.5 Q 362 -276 357 -293.5 Q 352 -311 342.5 -327.5 Q 333 -344 318.5 -356 Q 304 -368 286 -373.5 Q 268 -379 250 -379 Q 231 -379 213 -373.5 Q 195 -368 181 -356 Q 167 -344 157.5 -327.5 Q 148 -311 143 -293.5 Q 138 -276 136 -257.5 Q 134 -239 134 -221 Q 134 -202 136 -183.5 Q 138 -165 143 -147.5 Q 148 -130 157.5 -113.5 Q 167 -97 181 -85 Q 195 -73 213 -67.5 Q 231 -62 250 -62 Z " id="path1"/>
</defs>
<g>
<g data-source-text="∂" fill="#dee4e3" transform="translate(40 104.99201) rotate(0) scale(0.09599999)">
<use href="#path1" transform="translate(0 0)"/>
</g>
</g>
</svg>