<svg xmlns="http://www.w3.org/2000/svg" height="160" viewBox="0 0 768 160" width="768"><defs><path d="M 250 -372.00003 C 239.33334 -372.00003 229.00002 -373.50003 219.00002 -376.50003 C 209 -379.5 200.16667 -384.83334 192.5 -392.5 C 184.83333 -400.1667 179.49998 -409 176.50002 -419 C 173.5 -429 172.00002 -439.33334 172.00002 -450.00003 C 172.00002 -460.66666 173.5 -470.99997 176.50002 -481 C 179.49998 -491.00003 184.83333 -499.83337 192.5 -507.50003 C 200.16667 -515.1667 209 -520.50006 219.00002 -523.5 C 229.00002 -526.5 239.33334 -528 250 -528 C 260.66666 -528 271 -526.5 281 -523.5 C 291 -520.50006 299.8333 -515.1667 307.5 -507.50003 C 315.16666 -499.83337 320.5 -491.00003 323.5 -481 C 326.5 -470.99997 328 -460.66666 328.00003 -450.00003 C 328 -439.33334 326.5 -429 323.5 -419 C 320.5 -409 315.16666 -400.1667 307.5 -392.5 C 299.8333 -384.83334 291 -379.5 281 -376.50003 C 271 -373.50003 260.66666 -372.00003 250 -372.00003 Z M 250 8 C 239.33334 8 229.00002 6.4999995 219.00002 3.5 C 209 0.5000001 200.16667 -4.833334 192.5 -12.500001 C 184.83333 -20.166666 179.49998 -29 176.50002 -39 C 173.5 -49 172.00002 -59.333336 172.00002 -70.00001 C 172.00002 -80.66667 173.5 -91 176.50002 -101.00001 C 179.49998 -110.99999 184.83333 -119.833336 192.5 -127.5 C 200.16667 -135.16666 209 -140.5 219.00002 -143.5 C 229.00002 -146.5 239.33334 -148 250 -148 C 260.66666 -148 271 -146.5 281 -143.5 C 291 -140.5 299.8333 -135.16666 307.5 -127.5 C 315.16666 -119.833336 320.5 -110.99999 323.5 -101.00001 C 326.5 -91 328 -80.66667 328.00003 -70.00001 C 328 -59.333336 326.5 -49 323.5 -39 C 320.5 -29 315.16666 -20.166666 307.5 -12.500001 C 299.8333 -4.833334 291 0.5000001 281 3.5 C 271 6.4999995 260.66666 8 250 8 Z " id="path3"/><path d="M 250 8 C 239.33334 8 229.00002 6.4999995 219.00002 3.5 C 209 0.5000001 200.16667 -4.833334 192.5 -12.500001 C 184.83333 -20.166666 179.49998 -29 176.50002 -39 C 173.5 -49 172.00002 -59.333336 172.00002 -70.00001 C 172.00002 -80.66667 173.5 -91 176.50002 -101.00001 C 179.49998 -110.99999 184.83333 -119.833336 192.5 -127.5 C 200.16667 -135.16666 209 -140.5 219.00002 -143.5 C 229.00002 -146.5 239.33334 -148 250 -148 C 260.66666 -148 271 -146.5 281 -143.5 C 291 -140.5 299.8333 -135.16666 307.5 -127.5 C 315.16666 -119.833336 320.5 -110.99999 323.5 -101.00001 C 326.5 -91 328 -80.66667 328.00003 -70.00001 C 328 -59.333336 326.5 -49 323.5 -39 C 320.5 -29 315.16666 -20.166666 307.5 -12.500001 C 299.8333 -4.833334 291 0.5000001 281 3.5 C 271 6.4999995 260.66666 8 250 8 Z " id="path1"/><path d="M 215 215 L 156 170 C 177.33334 146 196.83334 120.666664 214.50002 94.00001 C 232.16666 67.333336 245.33333 38.666668 254.00002 8 C 253.33334 8 252.5 8 251.50002 8 C 250.50002 8 249.66666 8 249 8 C 239.00002 8 228.83334 6.3333335 218.5 3 C 208.16667 -0.33333325 199.33334 -5.666667 192 -13.000001 C 184.66666 -20.333332 179.49998 -29 176.50002 -39 C 173.5 -49 172.00002 -59.333336 172.00002 -70.00001 C 172.00002 -80.66667 173.5 -91 176.50002 -101.00001 C 179.49998 -110.99999 184.83333 -119.833336 192.5 -127.5 C 200.16667 -135.16666 209 -140.5 219.00002 -143.5 C 229.00002 -146.5 239.33334 -148 250 -148 C 260.66666 -148 271.3333 -146.33333 282 -143 C 292.66666 -139.66667 301.66666 -134.16667 309 -126.50001 C 316.33334 -118.833336 321.33334 -109.66667 324 -99 C 326.66666 -88.33333 328 -77.666664 328.00003 -67 C 328 -41 325 -15.333331 319.00003 10.000001 C 313 35.333332 305 59.83333 295 83.5 C 285 107.166664 273.1667 130 259.5 152 C 245.83334 173.99998 231 195 215 215 Z " id="path2"/><path d="M 250 -372.00003 C 239.33334 -372.00003 229.00002 -373.50003 219.00002 -376.50003 C 209 -379.5 200.16667 -384.83334 192.5 -392.5 C 184.83333 -400.1667 179.49998 -409 176.50002 -419 C 173.5 -429 172.00002 -439.33334 172.00002 -450.00003 C 172.00002 -460.66666 173.5 -470.99997 176.50002 -481 C 179.49998 -491.00003 184.83333 -499.83337 192.5 -507.50003 C 200.16667 -515.1667 209 -520.50006 219.00002 -523.5 C 229.00002 -526.5 239.33334 -528 250 -528 C 260.66666 -528 271 -526.5 281 -523.5 C 291 -520.50006 299.8333 -515.1667 307.5 -507.50003 C 315.16666 -499.83337 320.5 -491.00003 323.5 -481 C 326.5 -470.99997 328 -460.66666 328.00003 -450.00003 C 328 -439.33334 326.5 -429 323.5 -419 C 320.5 -409 315.16666 -400.1667 307.5 -392.5 C 299.8333 -384.83334 291 -379.5 281 -376.50003 C 271 -373.50003 260.66666 -372.00003 250 -372.00003 Z M 215 215 L 156 170 C 177.33334 146 196.83334 120.666664 214.50002 94.00001 C 232.16666 67.333336 245.33333 38.666668 254.00002 8 C 253.33334 8 252.5 8 251.50002 8 C 250.50002 8 249.66666 8 249 8 C 239.00002 8 228.83334 6.3333335 218.5 3 C 208.16667 -0.33333325 199.33334 -5.666667 192 -13.000001 C 184.66666 -20.333332 179.49998 -29 176.50002 -39 C 173.5 -49 172.00002 -59.333336 172.00002 -70.00001 C 172.00002 -80.66667 173.5 -91 176.50002 -101.00001 C 179.49998 -110.99999 184.83333 -119.833336 192.5 -127.5 C 200.16667 -135.16666 209 -140.5 219.00002 -143.5 C 229.00002 -146.5 239.33334 -148 250 -148 C 260.66666 -148 271.3333 -146.33333 282 -143 C 292.66666 -139.66667 301.66666 -134.16667 309 -126.50001 C 316.33334 -118.833336 321.33334 -109.66667 324 -99 C 326.66666 -88.33333 328 -77.666664 328.00003 -67 C 328 -41 325 -15.333331 319.00003 10.000001 C 313 35.333332 305 59.83333 295 83.5 C 285 107.166664 273.1667 130 259.5 152 C 245.83334 173.99998 231 195 215 215 Z " id="path4"/><path d="M 211.00002 -221 C 211.00002 -237 211.66667 -252.99998 213 -269 C 214.33333 -285 217.16667 -300.83334 221.5 -316.50003 C 225.83334 -332.16666 232 -347.16666 240.00002 -361.5 C 248 -375.8333 256.8333 -389.5 266.5 -402.5 C 276.16666 -415.50003 286.33334 -428.00003 297.00003 -440.00003 C 307.66666 -452 317.6667 -464.66666 327 -478.00003 C 336.33337 -491.33334 343.83334 -505.66666 349.50003 -521 C 355.1667 -536.3333 358 -552 358 -568 C 358 -581.99994 355.5 -596 350.5 -610.00006 C 345.5 -624 337.83334 -635.8334 327.50003 -645.50006 C 317.16666 -655.1667 305 -662.1667 291.00003 -666.50006 C 277 -670.8334 263 -673.00006 249 -673.00006 C 235 -673.00006 221 -671 207 -667 C 193 -662.99994 180.83334 -656.1666 170.5 -646.5 C 160.16667 -636.8333 152.5 -625.1667 147.5 -611.50006 C 142.5 -597.8333 140.00002 -583.6667 140.00002 -569 C 140.00002 -568.3333 140.00002 -567.6667 140.00002 -567 C 140.00002 -566.3334 140.00002 -565.6667 140.00002 -565.00006 L 62.000004 -565.00006 C 62.000004 -566.3334 62.000004 -567.5 62.000004 -568.5 C 62.000004 -569.5 62.000004 -570.6667 62.000004 -572 C 62.000004 -588 64 -603.8333 68 -619.5 C 72 -635.1667 78 -649.8333 86.00001 -663.5 C 94.00001 -677.1666 103.99999 -689.3333 116 -700 C 127.99999 -710.6667 141.33333 -719.3334 156 -726 C 170.66666 -732.6667 185.83334 -737.1667 201.5 -739.50006 C 217.16667 -741.8334 233 -743.00006 249 -743.00006 C 265 -743.00006 281 -741.6667 297.00003 -739 C 313 -736.3333 328.33334 -731.6667 343.00003 -725 C 357.66666 -718.3334 370.99997 -709.5 383.00003 -698.5 C 395 -687.5 404.99997 -675.00006 413 -661.00006 C 420.99997 -647 426.8333 -632 430.5 -616.00006 C 434.16666 -600 435.99997 -584 436 -568 C 435.99997 -552 434.16666 -536 430.5 -520.00006 C 426.8333 -504.00003 421.83334 -488.66672 415.50003 -474.00003 C 409.16666 -459.33334 401.66666 -445.1667 393.00003 -431.5 C 384.3333 -417.83334 375 -404.6667 365.00003 -392 C 355 -379.33334 344.66666 -366.83334 334 -354.50003 C 323.33334 -342.1667 314.33334 -328.83334 307 -314.5 C 299.66666 -300.16666 294.83334 -285 292.5 -269 C 290.16666 -252.99998 289 -237 289 -221 Z M 250 8 C 240.66667 8 231.33334 6.6666665 222.00002 4 C 212.66667 1.3333335 204.66666 -3.5000005 198 -10.500001 C 191.33334 -17.500002 186.66667 -25.5 184 -34.5 C 181.33333 -43.499996 180 -53 180.00002 -63 C 180 -72.333336 181.33333 -81.5 184 -90.5 C 186.66667 -99.5 191.33334 -107.5 198 -114.5 C 204.66666 -121.5 212.66667 -126.33334 222.00002 -129 C 231.33334 -131.66667 240.66667 -133 250 -133 C 259.3333 -133 268.66666 -131.66667 278 -129 C 287.3333 -126.33334 295.3333 -121.5 302 -114.5 C 308.6667 -107.5 313.5 -99.5 316.50003 -90.5 C 319.5 -81.5 321 -72.333336 321 -63 C 321 -53 319.5 -43.499996 316.50003 -34.5 C 313.5 -25.5 308.6667 -17.500002 302 -10.500001 C 295.3333 -3.5000005 287.3333 1.3333335 278 4 C 268.66666 6.6666665 259.3333 8 250 8 Z " id="path5"/><path d="M 211.00002 -260.00003 L 211.00002 -735 L 289 -735 L 289 -260.00003 Z M 250 8 C 240.66667 8 231.33334 6.6666665 222.00002 4 C 212.66667 1.3333335 204.66666 -3.5000005 198 -10.500001 C 191.33334 -17.500002 186.66667 -25.5 184 -34.5 C 181.33333 -43.499996 180 -53 180.00002 -63 C 180 -72.333336 181.33333 -81.5 184 -90.5 C 186.66667 -99.5 191.33334 -107.5 198 -114.5 C 204.66666 -121.5 212.66667 -126.33334 222.00002 -129 C 231.33334 -131.66667 240.66667 -133 250 -133 C 259.3333 -133 268.66666 -131.66667 278 -129 C 287.3333 -126.33334 295.3333 -121.5 302 -114.5 C 308.6667 -107.5 313.5 -99.5 316.50003 -90.5 C 319.5 -81.5 321 -72.333336 321 -63 C 321 -53 319.5 -43.499996 316.50003 -34.5 C 313.5 -25.5 308.6667 -17.500002 302 -10.500001 C 295.3333 -3.5000005 287.3333 1.3333335 278 4 C 268.66666 6.6666665 259.3333 8 250 8 Z " id="path6"/></defs><g><g fill="#ffffff" transform="translate(40 105.20961) rotate(0)"><use href="#path1" transform="translate(0 0) scale(0.09599999)"/></g><g fill="#ffffff" transform="translate(168 105.20961) rotate(0)"><use href="#path2" transform="translate(0 0) scale(0.09599999)"/></g><g fill="#ffffff" transform="translate(296 105.20961) rotate(0)"><use href="#path3" transform="translate(0 0) scale(0.09599999)"/></g><g fill="#ffffff" transform="translate(424 105.20961) rotate(0)"><use href="#path4" transform="translate(0 0) scale(0.09599999)"/></g><g fill="#ffffff" transform="translate(552 105.20961) rotate(0)"><use href="#path5" transform="translate(0 0) scale(0.09599999)"/></g><g fill="#ffffff" transform="translate(680 105.20961) rotate(0)"><use href="#path6" transform="translate(0 0) scale(0.09599999)"/></g></g></svg>