<?xml version="1.0" encoding="UTF-8" standalone="no"?>
<svg height="160" viewBox="0 0 128 160" width="128" xmlns="http://www.w3.org/2000/svg">
<defs>
<path d="M 64 215 L 64 -471 Q 103 -500 150.5 -514 Q 198 -528 247 -528 Q 274 -528 301 -523 Q 328 -518 352 -505 Q 376 -492 394.5 -471.5 Q 413 -451 424 -426 Q 435 -401 439.5 -374 Q 444 -347 444 -320 L 444 -200 Q 444 -175 441 -150 Q 438 -125 430 -101.5 Q 422 -78 408.5 -57 Q 395 -36 375 -21 Q 355 -6 330.5 1 Q 306 8 281 8 Q 258 8 235.5 2 Q 213 -4 194.5 -17.5 Q 176 -31 163 -50.5 Q 150 -70 142 -91 L 142 215 Z M 251 -62 Q 268 -62 284.5 -66 Q 301 -70 315 -79.5 Q 329 -89 339.5 -103 Q 350 -117 356 -133 Q 362 -149 364 -166 Q 366 -183 366 -200 L 366 -320 Q 366 -337 364 -354.5 Q 362 -372 355.5 -388.5 Q 349 -405 338 -419 Q 327 -433 312 -442 Q 297 -451 279.5 -454.5 Q 262 -458 245 -458 Q 218 -458 191.5 -452.5 Q 165 -447 142 -435 L 142 -200 Q 142 -183 144 -166.5 Q 146 -150 151 -134.5 Q 156 -119 165.5 -104.5 Q 175 -90 188.5 -80 Q 202 -70 218 -66 Q 234 -62 251 -62 Z " id="path1"/>
</defs>
<g>
<g data-source-text="p" fill="#dee4e3" transform="translate(40 104.99201) rotate(0) scale(0.09599999)">
<use href="#path1" transform="translate(0 0)"/>
</g>
</g>
</svg>