<?xml version="1.0" encoding="UTF-8" standalone="no"?>
<svg height="160" viewBox="0 0 128 160" width="128" xmlns="http://www.w3.org/2000/svg">
<defs>
<path d="M 358 215 L 358 -91 Q 350 -70 337 -50.5 Q 324 -31 305.5 -17.5 Q 287 -4 264.5 2 Q 242 8 219 8 Q 194 8 169.5 1 Q 145 -6 125 -21 Q 105 -36 91.5 -57 Q 78 -78 70 -101.5 Q 62 -125 59 -150 Q 56 -175 56 -200 L 56 -320 Q 56 -347 60 -374 Q 64 -401 75 -425.5 Q 86 -450 104.5 -470.5 Q 123 -491 146.5 -504 Q 170 -517 196.5 -522.5 Q 223 -528 250 -528 Q 299 -528 347.5 -515.5 Q 396 -503 436 -474 L 436 215 Z M 249 -62 Q 266 -62 282.5 -66 Q 299 -70 312 -80 Q 325 -90 334.5 -104.5 Q 344 -119 349 -134.5 Q 354 -150 356 -166.5 Q 358 -183 358 -200 L 358 -437 Q 333 -449 305.5 -453.5 Q 278 -458 250 -458 Q 233 -458 216 -454 Q 199 -450 185 -440.5 Q 171 -431 160.5 -417 Q 150 -403 144 -387 Q 138 -371 136 -354 Q 134 -337 134 -320 L 134 -200 Q 134 -183 136 -166 Q 138 -149 144 -133 Q 150 -117 160.5 -103 Q 171 -89 185 -79.5 Q 199 -70 215.5 -66 Q 232 -62 249 -62 Z " id="path1"/>
</defs>
<g>
<g data-source-text="q" fill="#20242e" transform="translate(40 104.99201) rotate(0) scale(0.09599999)">
<use href="#path1" transform="translate(0 0)"/>
</g>
</g>
</svg>