<svg xmlns="http://www.w3.org/2000/svg" height="160" viewBox="0 0 128 160" width="128"><defs><path d="M 211.00002 -221 L 211.00002 -400.00003 L 250 -400.00003 C 266.66666 -400.00003 283 -403.16672 299 -409.50003 C 315 -415.8333 328.16666 -425.5 338.5 -438.50003 C 348.83334 -451.5 356.00003 -466.3333 360.00003 -483 C 364 -499.66666 366.00003 -516.3333 366.00003 -533 C 366.00003 -549.6667 364 -566.1667 360.00003 -582.50006 C 356.00003 -598.8333 348.83334 -613.5 338.5 -626.5 C 328.16666 -639.5 315 -649.1667 299 -655.50006 C 283 -661.8334 266.66666 -665 250 -665 L 111.00001 -665 L 111.00001 -735 L 250 -735 C 268 -735 285.6667 -733.3333 303 -730.00006 C 320.33334 -726.6666 336.83334 -720.8333 352.5 -712.50006 C 368.1667 -704.1667 382.1667 -693.3333 394.50003 -680 C 406.83334 -666.6667 416.66663 -652 424 -636 C 431.33334 -620 436.5 -603.1666 439.50003 -585.5 C 442.5 -567.8333 444.00003 -550.3333 444.00003 -533 C 444.00003 -509.66666 441.3333 -486.33334 436 -463.00003 C 430.66666 -439.6667 421.00003 -418.6667 407 -400.00003 C 392.99997 -381.33337 375.66666 -366.1667 355.00003 -354.50003 C 334.33334 -342.83334 312.3333 -335.33334 289 -332 L 289 -221 Z M 250 8 C 240.66667 8 231.33334 6.6666665 222.00002 4 C 212.66667 1.3333335 204.66666 -3.5000005 198 -10.500001 C 191.33334 -17.500002 186.66667 -25.5 184 -34.5 C 181.33333 -43.499996 180 -53 180.00002 -63 C 180 -72.333336 181.33333 -81.5 184 -90.5 C 186.66667 -99.5 191.33334 -107.5 198 -114.5 C 204.66666 -121.5 212.66667 -126.33334 222.00002 -129 C 231.33334 -131.66667 240.66667 -133 250 -133 C 259.3333 -133 268.66666 -131.66667 278 -129 C 287.3333 -126.33334 295.3333 -121.5 302 -114.5 C 308.6667 -107.5 313.5 -99.5 316.50003 -90.5 C 319.5 -81.5 321 -72.333336 321 -63 C 321 -53 319.5 -43.499996 316.50003 -34.5 C 313.5 -25.5 308.6667 -17.500002 302 -10.500001 C 295.3333 -3.5000005 287.3333 1.3333335 278 4 C 268.66666 6.6666665 259.3333 8 250 8 Z " id="path1"/></defs><g><g fill="#000000" transform="translate(40 105.20961) rotate(0)"><use href="#path1" transform="translate(0 0) scale(0.09599999)"/></g></g></svg>