<?xml version="1.0" encoding="UTF-8" standalone="no"?>
<svg height="160" viewBox="0 0 128 160" width="128" xmlns="http://www.w3.org/2000/svg">
<defs>
<path d="M 452 223 Q 434 223 415.5 217.5 Q 397 212 383.5 199.5 Q 370 187 364 168.5 Q 358 150 358 132 L 358 -91 Q 350 -70 337 -50.5 Q 324 -31 305.5 -17.5 Q 287 -4 264.5 2 Q 242 8 219 8 Q 194 8 169.5 1 Q 145 -6 125 -21 Q 105 -36 91.5 -57 Q 78 -78 70 -101.5 Q 62 -125 59 -150 Q 56 -175 56 -200 L 56 -320 Q 56 -347 60 -373.5 Q 64 -400 75 -424.5 Q 86 -449 104 -470 Q 122 -491 145.5 -504 Q 169 -517 195.5 -522.5 Q 222 -528 249 -528 Q 276 -528 302 -522.5 Q 328 -517 351 -503.5 Q 374 -490 391 -469 Q 408 -448 418 -423.5 Q 428 -399 432 -373 Q 436 -347 436 -320 L 436 132 Q 436 140 440 148 Q 444 156 452 156 Q 455 156 457.5 155.5 Q 460 155 462 154 Q 463 154 463.5 154 Q 464 154 465 153 L 553 81 L 600 133 L 512 205 Q 500 215 484 219 Q 468 223 452 223 Z M 249 -62 Q 266 -62 282 -66 Q 298 -70 311.5 -80 Q 325 -90 334.5 -104.5 Q 344 -119 349 -134.5 Q 354 -150 356 -166.5 Q 358 -183 358 -200 L 358 -320 Q 358 -337 356 -353.5 Q 354 -370 349 -385.5 Q 344 -401 334.5 -415.5 Q 325 -430 311.5 -440 Q 298 -450 282 -454 Q 266 -458 249 -458 Q 232 -458 215 -454 Q 198 -450 184 -440.5 Q 170 -431 160 -417 Q 150 -403 144 -387 Q 138 -371 136 -354 Q 134 -337 134 -320 L 134 -200 Q 134 -183 136 -166 Q 138 -149 144 -133 Q 150 -117 160.5 -103 Q 171 -89 185 -79.5 Q 199 -70 215.5 -66 Q 232 -62 249 -62 Z " id="path1"/>
</defs>
<g>
<g data-source-text="q" fill="#20242e" transform="translate(40 104.99201) rotate(0) scale(0.09599999)">
<use href="#path1" transform="translate(0 0)"/>
</g>
</g>
</svg>