<?xml version="1.0" encoding="UTF-8" standalone="no"?>
<svg height="160" viewBox="0 0 128 160" width="128" xmlns="http://www.w3.org/2000/svg">
<defs>
<path d="M 211 -221 L 211 -400 L 250 -400 Q 267 -400 283.5 -404 Q 300 -408 314 -417 Q 328 -426 338.5 -439.5 Q 349 -453 355.5 -468.5 Q 362 -484 364 -500.5 Q 366 -517 366 -534 Q 366 -551 364 -568 Q 362 -585 356 -601 Q 350 -617 340.5 -631 Q 331 -645 317 -655 Q 303 -665 286.5 -669 Q 270 -673 253 -673 Q 230 -673 207.5 -665.5 Q 185 -658 169.5 -641.5 Q 154 -625 147 -602.5 Q 140 -580 140 -557 L 140 -556 L 62 -556 L 62 -558 Q 62 -583 67.5 -607.5 Q 73 -632 85 -654 Q 97 -676 115 -694 Q 133 -712 155.5 -723 Q 178 -734 203 -738.5 Q 228 -743 253 -743 Q 279 -743 306 -737.5 Q 333 -732 356 -718.5 Q 379 -705 396.5 -684.5 Q 414 -664 425 -639 Q 436 -614 440 -587.5 Q 444 -561 444 -534 Q 444 -499 436 -464 Q 428 -429 407.5 -400.5 Q 387 -372 355.5 -354.5 Q 324 -337 289 -332 L 289 -221 Z M 250 8 Q 236 8 222 4 Q 208 0 198 -10.5 Q 188 -21 184 -34.5 Q 180 -48 180 -63 Q 180 -77 184 -90.5 Q 188 -104 198 -114.5 Q 208 -125 222 -129 Q 236 -133 250 -133 Q 264 -133 278 -129 Q 292 -125 302 -114.5 Q 312 -104 316.5 -90.5 Q 321 -77 321 -63 Q 321 -48 316.5 -34.5 Q 312 -21 302 -10.5 Q 292 0 278 4 Q 264 8 250 8 Z " id="path1"/>
</defs>
<g>
<g data-source-text="?" fill="#20242e" transform="translate(40 104.99201) rotate(0) scale(0.09599999)">
<use href="#path1" transform="translate(0 0)"/>
</g>
</g>
</svg>