<svg xmlns="http://www.w3.org/2000/svg" height="160" viewBox="0 0 128 160" width="128"><defs><path d="M 211.00002 -221 L 211.00002 -400.00003 L 250 -400.00003 C 266.66666 -400.00003 283 -403.16672 299 -409.50003 C 315 -415.8333 328.33334 -425.66666 339 -439.00003 C 349.6667 -452.3333 356.83334 -467.33334 360.50003 -484.00003 C 364.16666 -500.66672 366.00003 -517.3334 366.00003 -534 C 366.00003 -545.3333 365.33334 -556.6666 364 -568 C 362.66666 -579.3333 360 -590.3333 356 -601 C 352 -611.6667 346.8333 -621.6667 340.5 -631 C 334.1667 -640.3334 326.33334 -648.3333 317.00003 -655.00006 C 307.66666 -661.6666 297.49997 -666.3333 286.5 -669 C 275.5 -671.6666 264.33334 -673.00006 253.00002 -673.00006 C 237.66667 -673.00006 222.50002 -670.5 207.5 -665.5 C 192.5 -660.5 179.83334 -652.5 169.5 -641.5 C 159.16667 -630.5 151.66667 -617.5 147.00002 -602.5 C 142.33334 -587.50006 140.00002 -572.3334 140.00002 -557 C 140.00002 -557 140.00002 -557 140.00002 -557 C 140.00002 -557 140.00002 -556.6667 140.00002 -556 L 62.000004 -556 C 62.000004 -556.6667 62.000004 -557 62.000004 -557 C 62.000004 -557 62.000004 -557.3333 62.000004 -558 C 62.000004 -574.6667 63.83334 -591.1667 67.5 -607.5 C 71.166664 -623.8334 76.99999 -639.3334 85 -654 C 93 -668.6667 103 -682 115 -694 C 127 -706.00006 140.5 -715.6666 155.50002 -723 C 170.5 -730.33325 186.33334 -735.49994 203.00002 -738.50006 C 219.66667 -741.5 236.33334 -743.00006 253.00002 -743.00006 C 270.33334 -743.00006 288 -741.1667 306 -737.50006 C 324 -733.8333 340.66666 -727.5 356 -718.5 C 371.33334 -709.5 384.83334 -698.1667 396.5 -684.5 C 408.16666 -670.8333 417.6667 -655.6667 425 -639.00006 C 432.3333 -622.3334 437.3333 -605.1667 440.00003 -587.50006 C 442.66666 -569.8333 444.00003 -552 444.00003 -534 C 444.00003 -510.66666 441.3333 -487.3333 436 -464 C 430.66666 -440.6667 421.16666 -419.5 407.5 -400.50003 C 393.83334 -381.50003 376.50003 -366.1667 355.50003 -354.50003 C 334.5 -342.83334 312.3333 -335.33334 289 -332 L 289 -221 Z M 250 8 C 240.66667 8 231.33334 6.6666665 222.00002 4 C 212.66667 1.3333335 204.66666 -3.5000005 198 -10.500001 C 191.33334 -17.500002 186.66667 -25.5 184 -34.5 C 181.33333 -43.499996 180 -53 180.00002 -63 C 180 -72.333336 181.33333 -81.5 184 -90.5 C 186.66667 -99.5 191.33334 -107.5 198 -114.5 C 204.66666 -121.5 212.66667 -126.33334 222.00002 -129 C 231.33334 -131.66667 240.66667 -133 250 -133 C 259.3333 -133 268.66666 -131.66667 278 -129 C 287.3333 -126.33334 295.3333 -121.5 302 -114.5 C 308.6667 -107.5 313.5 -99.5 316.50003 -90.5 C 319.5 -81.5 321 -72.333336 321 -63 C 321 -53 319.5 -43.499996 316.50003 -34.5 C 313.5 -25.5 308.6667 -17.500002 302 -10.500001 C 295.3333 -3.5000005 287.3333 1.3333335 278 4 C 268.66666 6.6666665 259.3333 8 250 8 Z " id="path1"/></defs><g><g fill="#000000" transform="translate(40 105.20961) rotate(0)"><use href="#path1" transform="translate(0 0) scale(0.09599999)"/></g></g></svg>