<svg xmlns="http://www.w3.org/2000/svg" height="160" viewBox="0 0 128 160" width="128"><defs><path d="M 211.00002 -221 C 211.00002 -237 211.66667 -252.99998 213 -269 C 214.33333 -285 217.16667 -300.83334 221.5 -316.50003 C 225.83334 -332.16666 232 -347.16666 240.00002 -361.5 C 248 -375.8333 256.8333 -389.5 266.5 -402.5 C 276.16666 -415.50003 286.33334 -428.00003 297.00003 -440.00003 C 307.66666 -452 317.6667 -464.66666 327 -478.00003 C 336.33337 -491.33334 343.83334 -505.66666 349.50003 -521 C 355.1667 -536.3333 358 -552 358 -568 C 358 -581.99994 355.5 -596 350.5 -610.00006 C 345.5 -624 337.83334 -635.8334 327.50003 -645.50006 C 317.16666 -655.1667 305 -662.1667 291.00003 -666.50006 C 277 -670.8334 263 -673.00006 249 -673.00006 C 235 -673.00006 221 -671 207 -667 C 193 -662.99994 180.83334 -656.1666 170.5 -646.5 C 160.16667 -636.8333 152.5 -625.1667 147.5 -611.50006 C 142.5 -597.8333 140.00002 -583.6667 140.00002 -569 C 140.00002 -568.3333 140.00002 -567.6667 140.00002 -567 C 140.00002 -566.3334 140.00002 -565.6667 140.00002 -565.00006 L 62.000004 -565.00006 C 62.000004 -566.3334 62.000004 -567.5 62.000004 -568.5 C 62.000004 -569.5 62.000004 -570.6667 62.000004 -572 C 62.000004 -588 64 -603.8333 68 -619.5 C 72 -635.1667 78 -649.8333 86.00001 -663.5 C 94.00001 -677.1666 103.99999 -689.3333 116 -700 C 127.99999 -710.6667 141.33333 -719.3334 156 -726 C 170.66666 -732.6667 185.83334 -737.1667 201.5 -739.50006 C 217.16667 -741.8334 233 -743.00006 249 -743.00006 C 265 -743.00006 281 -741.6667 297.00003 -739 C 313 -736.3333 328.33334 -731.6667 343.00003 -725 C 357.66666 -718.3334 370.99997 -709.5 383.00003 -698.5 C 395 -687.5 404.99997 -675.00006 413 -661.00006 C 420.99997 -647 426.8333 -632 430.5 -616.00006 C 434.16666 -600 435.99997 -584 436 -568 C 435.99997 -552 434.16666 -536 430.5 -520.00006 C 426.8333 -504.00003 421.83334 -488.66672 415.50003 -474.00003 C 409.16666 -459.33334 401.66666 -445.1667 393.00003 -431.5 C 384.3333 -417.83334 375 -404.6667 365.00003 -392 C 355 -379.33334 344.66666 -366.83334 334 -354.50003 C 323.33334 -342.1667 314.33334 -328.83334 307 -314.5 C 299.66666 -300.16666 294.83334 -285 292.5 -269 C 290.16666 -252.99998 289 -237 289 -221 Z M 250 8 C 240.66667 8 231.33334 6.6666665 222.00002 4 C 212.66667 1.3333335 204.66666 -3.5000005 198 -10.500001 C 191.33334 -17.500002 186.66667 -25.5 184 -34.5 C 181.33333 -43.499996 180 -53 180.00002 -63 C 180 -72.333336 181.33333 -81.5 184 -90.5 C 186.66667 -99.5 191.33334 -107.5 198 -114.5 C 204.66666 -121.5 212.66667 -126.33334 222.00002 -129 C 231.33334 -131.66667 240.66667 -133 250 -133 C 259.3333 -133 268.66666 -131.66667 278 -129 C 287.3333 -126.33334 295.3333 -121.5 302 -114.5 C 308.6667 -107.5 313.5 -99.5 316.50003 -90.5 C 319.5 -81.5 321 -72.333336 321 -63 C 321 -53 319.5 -43.499996 316.50003 -34.5 C 313.5 -25.5 308.6667 -17.500002 302 -10.500001 C 295.3333 -3.5000005 287.3333 1.3333335 278 4 C 268.66666 6.6666665 259.3333 8 250 8 Z " id="path1"/></defs><g><g fill="#000000" transform="translate(40 105.20961) rotate(0)"><use href="#path1" transform="translate(0 0) scale(0.09599999)"/></g></g></svg>