<svg xmlns="http://www.w3.org/2000/svg" height="160" viewBox="0 0 128 160" width="128"><defs><path d="M 144.00002 0 L 144.00002 -450.00003 L 60.000004 -450.00003 L 60.000004 -520.00006 L 222.00002 -520.00006 L 222.00002 -410.00003 C 226.66666 -425.33334 232.66666 -440.16666 240.00002 -454.5 C 247.33333 -468.8333 256.5 -481.66666 267.5 -493 C 278.5 -504.3333 291.6667 -513 307 -519 C 322.33334 -525 338 -528 354.00003 -528 C 364.6667 -528 375.49997 -527.1667 386.5 -525.50006 C 397.49997 -523.8333 407.5 -520 416.50003 -514.00006 C 425.5 -508 432.8333 -499.99997 438.50003 -490.00003 C 444.1667 -480.00003 448.16666 -469.66666 450.50003 -459 C 452.83334 -448.3333 454.3333 -437.66666 455.00003 -427.00003 C 455.6667 -416.33334 456.00003 -405.33334 456.00003 -394.00003 L 378.00003 -394.00003 C 378.00003 -402 377.6667 -410.1667 377.00003 -418.5 C 376.3333 -426.8333 373.6667 -434.33334 369 -441 C 364.3333 -447.66666 357.99997 -452.16666 350 -454.5 C 342.00003 -456.83328 334 -457.99997 326 -458 C 313.3333 -457.99997 301 -454.99997 289 -449 C 277 -443 267 -434.83334 259 -424.5 C 251 -414.16666 244.66666 -402.8333 240.00002 -390.5 C 235.33333 -378.1667 231.5 -365.6667 228.50002 -353.00003 C 225.5 -340.3333 223.66667 -327.5 223.00002 -314.5 C 222.33334 -301.5 222.00002 -288.6667 222.00002 -276 L 222.00002 0 Z " id="path1"/></defs><g><g fill="#ffffff" transform="translate(40 105.20961) rotate(0)"><use href="#path1" transform="translate(0 0) scale(0.09599999)"/></g></g></svg>