<?xml version="1.0" encoding="UTF-8" standalone="no"?>
<svg height="160" viewBox="0 0 128 160" width="128" xmlns="http://www.w3.org/2000/svg">
<defs>
<path d="M 124 0 L 124 -520 L 202 -520 L 202 -384 Q 211 -407 224.5 -428 Q 238 -449 256 -466 Q 274 -483 295.5 -495 Q 317 -507 340.5 -515 Q 364 -523 389 -525.5 Q 414 -528 439 -528 L 439 -450 Q 418 -450 397 -448.5 Q 376 -447 356 -443 Q 336 -439 316 -432 Q 296 -425 278.5 -414 Q 261 -403 246 -388.5 Q 231 -374 220.5 -355.5 Q 210 -337 206 -316.5 Q 202 -296 202 -276 L 202 0 Z " id="path1"/>
</defs>
<g>
<g data-source-text="r" fill="#dee4e3" transform="translate(40 104.99201) rotate(0) scale(0.09599999)">
<use href="#path1" transform="translate(0 0)"/>
</g>
</g>
</svg>