<svg xmlns="http://www.w3.org/2000/svg" height="160" viewBox="0 0 128 160" width="128"><defs><path d="M 124.00001 0 L 124.00001 -520.00006 L 202.00002 -520.00006 L 202.00002 -385 C 209.33333 -405.6667 220 -425 234.00002 -443 C 248 -460.99997 264.5 -476 283.5 -488 C 302.5 -500 323.16666 -508.33334 345.5 -513 C 367.8333 -517.6667 390 -520 412.00003 -520.00006 L 451.00003 -520.00006 L 451.00003 -375 L 374 -375 L 374 -449 C 358.66666 -447.66666 343.66666 -445 329 -441 C 314.33334 -437 300.33334 -431.5 287 -424.5 C 273.66666 -417.5 261.33334 -408.83334 250 -398.50003 C 238.66666 -388.1667 229.33333 -376.3333 222.00002 -363 C 214.66667 -349.6667 209.5 -335.5 206.5 -320.5 C 203.5 -305.5 202.00002 -290.66666 202.00002 -276 L 202.00002 0 Z " id="path1"/></defs><g><g fill="#ffffff" transform="translate(40 105.20961) rotate(0)"><use href="#path1" transform="translate(0 0) scale(0.09599999)"/></g></g></svg>