<svg xmlns="http://www.w3.org/2000/svg" height="160" viewBox="0 0 128 160" width="128"><defs><path d="M 124.00001 0 L 124.00001 -520.00006 L 202.00002 -520.00006 L 202.00002 -384 C 208.00002 -399.33334 215.5 -414 224.5 -428.00003 C 233.49998 -442 244 -454.66666 256 -466 C 268 -477.3333 281.1667 -487 295.5 -495.00003 C 309.83334 -503 324.83334 -509.66666 340.5 -515 C 356.1667 -520.3333 372.33334 -523.8333 389.00003 -525.50006 C 405.6667 -527.1667 422.33334 -528 439.00003 -528 L 439.00003 -450.00003 C 425 -450.00003 411.00003 -449.50003 397 -448.5 C 383 -447.5 369.33334 -445.66666 356 -443 C 342.6667 -440.33334 329.33334 -436.66666 316 -432 C 302.6667 -427.33334 290.16666 -421.3333 278.5 -414 C 266.83334 -406.66666 256 -398.16666 246.00002 -388.50003 C 236.00002 -378.83334 227.50002 -367.83334 220.5 -355.50003 C 213.49998 -343.1667 208.66667 -330.16666 206.00002 -316.50003 C 203.33334 -302.8333 202.00002 -289.33334 202.00002 -276 L 202.00002 0 Z " id="path1"/></defs><g><g fill="#ffffff" transform="translate(40 105.20961) rotate(0)"><use href="#path1" transform="translate(0 0) scale(0.09599999)"/></g></g></svg>