<?xml version="1.0" encoding="UTF-8" standalone="no"?>
<svg height="160" viewBox="0 0 128 160" width="128" xmlns="http://www.w3.org/2000/svg">
<defs>
<path d="M 124 0 L 124 -320 Q 124 -345 127 -370.5 Q 130 -396 138.5 -419.5 Q 147 -443 161.5 -464.5 Q 176 -486 196.5 -500.5 Q 217 -515 241.5 -521.5 Q 266 -528 291 -528 Q 319 -528 347 -522.5 Q 375 -517 398 -502 Q 421 -487 436 -462.5 Q 451 -438 453 -410 L 375 -410 Q 374 -423 364.5 -433.5 Q 355 -444 343 -449 Q 331 -454 318 -456 Q 305 -458 291 -458 Q 276 -458 261.5 -452.5 Q 247 -447 236 -435.5 Q 225 -424 218.5 -410 Q 212 -396 208 -381 Q 204 -366 203 -350.5 Q 202 -335 202 -320 L 202 0 Z " id="path1"/>
</defs>
<g>
<g data-source-text="r" fill="#dee4e3" transform="translate(40 104.99201) rotate(0) scale(0.09599999)">
<use href="#path1" transform="translate(0 0)"/>
</g>
</g>
</svg>