<?xml version="1.0" encoding="UTF-8" standalone="no"?>
<svg height="160" viewBox="0 0 128 160" width="128" xmlns="http://www.w3.org/2000/svg">
<defs>
<path d="M 102 0 L 102 -520 L 179 -520 L 179 -382 Q 192 -415 215 -443 Q 238 -471 269 -488.5 Q 300 -506 335.5 -513 Q 371 -520 407 -520 L 445 -520 L 445 -375 L 368 -375 L 368 -449 Q 345 -447 321.5 -441.5 Q 298 -436 276 -426 Q 254 -416 235.5 -401 Q 217 -386 203.5 -366 Q 190 -346 184.5 -322.5 Q 179 -299 179 -276 L 179 0 Z " id="path1"/>
</defs>
<g>
<g data-source-text="r" fill="#dee4e3" transform="translate(40 104.99201) rotate(0) scale(0.09599999)">
<use href="#path1" transform="translate(0 0)"/>
</g>
</g>
</svg>