<?xml version="1.0" encoding="UTF-8" standalone="no"?>
<svg height="160" viewBox="0 0 128 160" width="128" xmlns="http://www.w3.org/2000/svg">
<defs>
<path d="M 60 0 L 60 -70 L 144 -70 L 144 -520 L 222 -520 L 222 -406 Q 229 -429 239.5 -451.5 Q 250 -474 267 -491.5 Q 284 -509 307 -518.5 Q 330 -528 354 -528 Q 370 -528 386 -524 Q 402 -520 414.5 -510 Q 427 -500 435.5 -486.5 Q 444 -473 448.5 -457.5 Q 453 -442 454.5 -426 Q 456 -410 456 -394 L 378 -394 Q 378 -406 376 -417.5 Q 374 -429 367 -439 Q 360 -449 349 -453.5 Q 338 -458 326 -458 Q 307 -458 289 -449 Q 271 -440 259 -424.5 Q 247 -409 240 -390.5 Q 233 -372 229 -353 Q 225 -334 223.5 -314.5 Q 222 -295 222 -276 L 222 -70 L 323 -70 L 323 0 Z " id="path1"/>
</defs>
<g>
<g data-source-text="r" fill="#20242e" transform="translate(40 104.99201) rotate(0) scale(0.09599999)">
<use href="#path1" transform="translate(0 0)"/>
</g>
</g>
</svg>