<?xml version="1.0" encoding="UTF-8" standalone="no"?>
<svg height="160" viewBox="0 0 128 160" width="128" xmlns="http://www.w3.org/2000/svg">
<defs>
<path d="M 108 0 L 108 -520 L 186 -520 L 186 -375 Q 196 -401 212 -424 Q 228 -447 249.5 -465 Q 271 -483 296 -495.5 Q 321 -508 348 -515.5 Q 375 -523 403 -525.5 Q 431 -528 459 -528 L 459 -450 Q 441 -450 422.5 -449.5 Q 404 -449 386 -446.5 Q 368 -444 350 -440 Q 332 -436 315 -430.5 Q 298 -425 281.5 -417.5 Q 265 -410 250 -399.5 Q 235 -389 222.5 -375.5 Q 210 -362 201 -346 Q 192 -330 189 -312 Q 186 -294 186 -276 L 186 0 Z " id="path1"/>
</defs>
<g>
<g data-source-text="r" fill="#20242e" transform="translate(40 104.99201) rotate(0) scale(0.09599999)">
<use href="#path1" transform="translate(0 0)"/>
</g>
</g>
</svg>