<?xml version="1.0" encoding="UTF-8" standalone="no"?>
<svg height="160" viewBox="0 0 128 160" width="128" xmlns="http://www.w3.org/2000/svg">
<defs>
<path d="M 124 0 L 124 -320 Q 124 -345 127 -370.5 Q 130 -396 138.5 -419.5 Q 147 -443 161.5 -464.5 Q 176 -486 196.5 -500.5 Q 217 -515 241.5 -521.5 Q 266 -528 291 -528 Q 323 -528 353 -518.5 Q 383 -509 405.5 -487.5 Q 428 -466 439.5 -436 Q 451 -406 453 -375 L 375 -375 Q 374 -392 368.5 -407.5 Q 363 -423 351.5 -435 Q 340 -447 324 -452.5 Q 308 -458 291 -458 Q 276 -458 261.5 -452.5 Q 247 -447 236 -435.5 Q 225 -424 218.5 -410 Q 212 -396 208 -381 Q 204 -366 203 -350.5 Q 202 -335 202 -320 L 202 0 Z " id="path1"/>
</defs>
<g>
<g data-source-text="r" fill="#dee4e3" transform="translate(40 104.99201) rotate(0) scale(0.09599999)">
<use href="#path1" transform="translate(0 0)"/>
</g>
</g>
</svg>