<?xml version="1.0" encoding="UTF-8" standalone="no"?>
<svg xmlns="http://www.w3.org/2000/svg" height="160" viewBox="0 0 128 160" width="128"><defs><path d="M 80 0 L 80 -70 L 174 -70 L 174 -450 L 80 -450 L 80 -520 L 251 -520 L 251 -404 Q 256 -419 263 -434 Q 270 -449 279 -462.5 Q 288 -476 300 -487 Q 312 -498 326.5 -506 Q 341 -514 357 -517 Q 373 -520 389 -520 L 445 -520 L 445 -450 L 389 -450 Q 368 -450 347.5 -444.5 Q 327 -439 310 -426.5 Q 293 -414 281.5 -396 Q 270 -378 263 -358 Q 256 -338 253.5 -317.5 Q 251 -297 251 -276 L 251 -70 L 364 -70 L 364 0 Z " id="path1"/></defs><g><g data-source-text="r" fill="#20242e" transform="translate(40 104.99201) rotate(0) scale(0.09599999)"><use href="#path1" transform="translate(0 0)"/></g></g></svg>