<?xml version="1.0" encoding="UTF-8" standalone="no"?>
<svg height="160" viewBox="0 0 128 160" width="128" xmlns="http://www.w3.org/2000/svg">
<defs>
<path d="M 144 0 L 144 -450 L 60 -450 L 60 -520 L 222 -520 L 222 -385 Q 232 -415 250.5 -441.5 Q 269 -468 295.5 -486.5 Q 322 -505 353.5 -512.5 Q 385 -520 417 -520 L 456 -520 L 456 -375 L 387 -375 L 387 -449 Q 364 -448 342.5 -441.5 Q 321 -435 301.5 -424.5 Q 282 -414 266 -398 Q 250 -382 240 -362 Q 230 -342 226 -320 Q 222 -298 222 -276 L 222 0 Z " id="path1"/>
</defs>
<g>
<g data-source-text="r" fill="#dee4e3" transform="translate(40 104.99201) rotate(0) scale(0.09599999)">
<use href="#path1" transform="translate(0 0)"/>
</g>
</g>
</svg>