<?xml version="1.0" encoding="UTF-8" standalone="no"?>
<svg height="160" viewBox="0 0 128 160" width="128" xmlns="http://www.w3.org/2000/svg">
<defs>
<path d="M 44 0 L 44 -70 L 108 -70 L 108 -520 L 186 -520 L 186 -371 Q 196 -397 212.5 -419.5 Q 229 -442 250.5 -459.5 Q 272 -477 297.5 -489 Q 323 -501 349.5 -508 Q 376 -515 403.5 -517.5 Q 431 -520 459 -520 L 467 -520 L 467 -450 L 459 -450 Q 441 -450 422.5 -449.5 Q 404 -449 386 -446.5 Q 368 -444 350 -440 Q 332 -436 315 -430.5 Q 298 -425 281.5 -417.5 Q 265 -410 250 -399.5 Q 235 -389 222.5 -375.5 Q 210 -362 201 -346 Q 192 -330 189 -312 Q 186 -294 186 -276 L 186 -70 L 263 -70 L 263 0 Z " id="path1"/>
</defs>
<g>
<g data-source-text="r" fill="#dee4e3" transform="translate(40 104.99201) rotate(0) scale(0.09599999)">
<use href="#path1" transform="translate(0 0)"/>
</g>
</g>
</svg>