<?xml version="1.0" encoding="UTF-8" standalone="no"?>
<svg height="160" viewBox="0 0 128 160" width="128" xmlns="http://www.w3.org/2000/svg">
<defs>
<path d="M 60 0 L 60 -70 L 124 -70 L 124 -450 L 60 -450 L 60 -520 L 202 -520 L 202 -380 Q 211 -403 224.5 -423.5 Q 238 -444 256.5 -460.5 Q 275 -477 296.5 -488.5 Q 318 -500 341.5 -507.5 Q 365 -515 389.5 -517.5 Q 414 -520 439 -520 L 451 -520 L 451 -450 L 439 -450 Q 418 -450 397 -448.5 Q 376 -447 356 -443 Q 336 -439 316 -432 Q 296 -425 278.5 -414 Q 261 -403 246 -388.5 Q 231 -374 220.5 -355.5 Q 210 -337 206 -316.5 Q 202 -296 202 -276 L 202 -70 L 279 -70 L 279 0 Z " id="path1"/>
</defs>
<g>
<g data-source-text="r" fill="#dee4e3" transform="translate(40 104.99201) rotate(0) scale(0.09599999)">
<use href="#path1" transform="translate(0 0)"/>
</g>
</g>
</svg>