<?xml version="1.0" encoding="UTF-8" standalone="no"?>
<svg height="160" viewBox="0 0 128 160" width="128" xmlns="http://www.w3.org/2000/svg">
<defs>
<path d="M 60 0 L 60 -70 L 144 -70 L 144 -520 L 222 -520 L 222 -388 Q 233 -418 251.5 -444 Q 270 -470 296.5 -487.5 Q 323 -505 354 -512.5 Q 385 -520 417 -520 L 456 -520 L 456 -375 L 379 -375 L 379 -448 Q 358 -446 337 -439.5 Q 316 -433 297.5 -422 Q 279 -411 264 -395 Q 249 -379 239 -359.5 Q 229 -340 225.5 -318.5 Q 222 -297 222 -276 L 222 -70 L 323 -70 L 323 0 Z " id="path1"/>
</defs>
<g>
<g data-source-text="r" fill="#dee4e3" transform="translate(40 104.99201) rotate(0) scale(0.09599999)">
<use href="#path1" transform="translate(0 0)"/>
</g>
</g>
</svg>