<?xml version="1.0" encoding="UTF-8" standalone="no"?>
<svg height="160" viewBox="0 0 128 160" width="128" xmlns="http://www.w3.org/2000/svg">
<defs>
<path d="M 124 0 L 124 -320 Q 124 -345 127 -370 Q 130 -395 138 -419 Q 146 -443 160.5 -464 Q 175 -485 195 -500 Q 215 -515 239.5 -521.5 Q 264 -528 289 -528 Q 321 -528 352 -519 Q 383 -510 406 -488.5 Q 429 -467 440.5 -437 Q 452 -407 453 -375 L 375 -375 Q 375 -392 369 -408 Q 363 -424 351 -436 Q 339 -448 322.5 -453 Q 306 -458 289 -458 Q 274 -458 259.5 -452 Q 245 -446 234.5 -435 Q 224 -424 218 -410 Q 212 -396 208 -381 Q 204 -366 203 -350.5 Q 202 -335 202 -320 L 202 0 Z " id="path1"/>
</defs>
<g>
<g data-source-text="r" fill="#dee4e3" transform="translate(40 104.99201) rotate(0) scale(0.09599999)">
<use href="#path1" transform="translate(0 0)"/>
</g>
</g>
</svg>