<?xml version="1.0" encoding="UTF-8" standalone="no"?>
<svg height="160" viewBox="0 0 128 160" width="128" xmlns="http://www.w3.org/2000/svg">
<defs>
<path d="M 124 0 L 124 -471 Q 158 -499 200.5 -513.5 Q 243 -528 287 -528 Q 309 -528 330 -525 Q 351 -522 371 -513.5 Q 391 -505 407 -490.5 Q 423 -476 433.5 -457.5 Q 444 -439 447.5 -417.5 Q 451 -396 451 -375 L 373 -375 Q 373 -392 368 -409 Q 363 -426 350.5 -437.5 Q 338 -449 321.5 -453.5 Q 305 -458 288 -458 Q 265 -458 243 -452.5 Q 221 -447 202 -436 L 202 0 Z " id="path1"/>
</defs>
<g>
<g data-source-text="r" fill="#dee4e3" transform="translate(40 104.99201) rotate(0) scale(0.09599999)">
<use href="#path1" transform="translate(0 0)"/>
</g>
</g>
</svg>