<svg xmlns="http://www.w3.org/2000/svg" height="160" viewBox="0 0 128 160" width="128"><defs><path d="M 60.000004 0 L 60.000004 -70.00001 L 124.00001 -70.00001 L 124.00001 -320.00003 C 124.00001 -336.6667 125 -353.49997 127.00001 -370.50003 C 129 -387.49997 132.83334 -403.8333 138.50002 -419.5 C 144.16667 -435.16666 151.83334 -450.16663 161.5 -464.5 C 171.16666 -478.83337 182.83331 -490.83337 196.50002 -500.50003 C 210.16666 -510.16666 225.16667 -517.1666 241.5 -521.5 C 257.83334 -525.8333 274.3333 -528 291.00003 -528 C 312.33334 -528 333 -524.8333 353.00003 -518.5 C 373 -512.1667 390.5 -501.83337 405.50003 -487.5 C 420.5 -473.16663 431.83337 -455.99997 439.50003 -436 C 447.1667 -415.99997 451.6667 -395.6667 453 -375 L 375 -375 C 374.3333 -386.3333 372.16666 -397.16666 368.5 -407.5 C 364.8333 -417.83334 359.1667 -427.00003 351.5 -435.00003 C 343.83334 -443 334.66666 -448.8333 324 -452.5 C 313.33334 -456.16663 302.33334 -457.99997 291.00003 -458 C 281 -457.99997 271.16666 -456.16663 261.5 -452.5 C 251.83333 -448.8333 243.33333 -443.16666 236.00002 -435.5 C 228.66667 -427.83334 222.83334 -419.3333 218.5 -410.00003 C 214.16667 -400.66666 210.66666 -391 208.00002 -381 C 205.33331 -371.00003 203.66666 -360.83334 203.00002 -350.5 C 202.33334 -340.16666 202.00002 -330 202.00002 -320.00003 L 202.00002 -70.00001 L 279 -70.00001 L 279 0 Z " id="path1"/></defs><g><g fill="#000000" transform="translate(40 105.20961) rotate(0)"><use href="#path1" transform="translate(0 0) scale(0.09599999)"/></g></g></svg>