<svg xmlns="http://www.w3.org/2000/svg" height="160" viewBox="0 0 128 160" width="128"><defs><path d="M 80.00001 0 L 80.00001 -70.00001 L 174.00002 -70.00001 L 174.00002 -520.00006 L 251.00002 -520.00006 L 251.00002 -404.00003 C 254.33334 -414 258.33334 -424 263.00003 -434.00003 C 267.66666 -444.00003 273 -453.5 279 -462.50003 C 285 -471.5 292 -479.66666 300.00003 -487 C 308 -494.3333 316.8333 -500.6667 326.5 -506.00003 C 336.16666 -511.33337 346.33334 -515.00006 357 -517 C 367.66666 -519 378.33334 -520 389.00003 -520.00006 L 445.00003 -520.00006 L 445.00003 -450.00003 L 389.00003 -450.00003 C 375 -450.00003 361.16666 -448.1667 347.50003 -444.50003 C 333.83334 -440.83334 321.33334 -434.83334 310 -426.50003 C 298.66666 -418.16666 289.16666 -408 281.5 -396 C 273.8333 -384 267.66666 -371.33334 263.00003 -358 C 258.33334 -344.6667 255.16666 -331.1667 253.50002 -317.5 C 251.83333 -303.83334 251.00002 -290 251.00002 -276 L 251.00002 -70.00001 L 364 -70.00001 L 364 0 Z " id="path1"/></defs><g><g fill="#ffffff" transform="translate(40 105.20961) rotate(0)"><use href="#path1" transform="translate(0 0) scale(0.09599999)"/></g></g></svg>