<svg xmlns="http://www.w3.org/2000/svg" height="160" viewBox="0 0 128 160" width="128"><defs><path d="M 60.000004 0 L 60.000004 -70.00001 L 144.00002 -70.00001 L 144.00002 -520.00006 L 222.00002 -520.00006 L 222.00002 -388.00003 C 229.33333 -408 239.16667 -426.66666 251.50002 -444.00003 C 263.83334 -461.33334 278.83334 -475.83334 296.50003 -487.5 C 314.1667 -499.16666 333.33334 -507.5 354.00003 -512.5 C 374.66666 -517.5 395.66666 -520 417.00003 -520.00006 L 456.00003 -520.00006 L 456.00003 -375 L 379 -375 L 379 -448 C 365.00003 -446.66666 351 -443.83337 337.00003 -439.50003 C 323 -435.1667 309.83334 -429.33334 297.5 -422.00003 C 285.16666 -414.66666 274 -405.6667 264 -395.00003 C 254 -384.33334 245.66667 -372.5 239.00002 -359.50003 C 232.33333 -346.5 227.83331 -332.83334 225.50002 -318.5 C 223.16667 -304.1667 222.00002 -290 222.00002 -276 L 222.00002 -70.00001 L 323 -70.00001 L 323 0 Z " id="path1"/></defs><g><g fill="#ffffff" transform="translate(40 105.20961) rotate(0)"><use href="#path1" transform="translate(0 0) scale(0.09599999)"/></g></g></svg>