<?xml version="1.0" encoding="UTF-8" standalone="no"?>
<svg height="160" viewBox="0 0 128 160" width="128" xmlns="http://www.w3.org/2000/svg">
<defs>
<path d="M 124 0 L 124 -520 L 202 -520 L 202 -412 Q 209 -434 219.5 -455 Q 230 -476 246 -493 Q 262 -510 284 -519 Q 306 -528 329 -528 Q 348 -528 366.5 -523.5 Q 385 -519 400 -508.5 Q 415 -498 425 -482 Q 435 -466 441 -448.5 Q 447 -431 449 -412.5 Q 451 -394 451 -375 L 373 -375 Q 373 -390 370.5 -404.5 Q 368 -419 360.5 -432 Q 353 -445 339.5 -451.5 Q 326 -458 311 -458 Q 291 -458 272.5 -449.5 Q 254 -441 241.5 -426 Q 229 -411 221 -392.5 Q 213 -374 209 -354.5 Q 205 -335 203.5 -315 Q 202 -295 202 -276 L 202 0 Z " id="path1"/>
</defs>
<g>
<g data-source-text="r" fill="#20242e" transform="translate(40 104.99201) rotate(0) scale(0.09599999)">
<use href="#path1" transform="translate(0 0)"/>
</g>
</g>
</svg>