<?xml version="1.0" encoding="UTF-8" standalone="no"?>
<svg height="160" viewBox="0 0 128 160" width="128" xmlns="http://www.w3.org/2000/svg">
<defs>
<path d="M 124 0 L 124 -520 L 202 -520 L 202 -380 Q 210 -404 223.5 -425.5 Q 237 -447 255 -464 Q 273 -481 294.5 -494 Q 316 -507 340 -515 Q 364 -523 389 -525.5 Q 414 -528 439 -528 L 439 -450 Q 418 -450 397 -448.5 Q 376 -447 356 -443 Q 336 -439 316 -432 Q 296 -425 278.5 -414 Q 261 -403 246 -388.5 Q 231 -374 220.5 -355.5 Q 210 -337 206 -316.5 Q 202 -296 202 -276 L 202 0 Z " id="path1"/>
</defs>
<g>
<g data-source-text="r" fill="#20242e" transform="translate(40 104.99201) rotate(0) scale(0.09599999)">
<use href="#path1" transform="translate(0 0)"/>
</g>
</g>
</svg>