<?xml version="1.0" encoding="UTF-8" standalone="no"?>
<svg height="160" viewBox="0 0 128 160" width="128" xmlns="http://www.w3.org/2000/svg">
<defs>
<path d="M 108 0 L 108 -520 L 186 -520 L 186 -410 Q 192 -432 202 -453 Q 212 -474 227 -491.5 Q 242 -509 263.5 -518.5 Q 285 -528 308 -528 Q 327 -528 344.5 -523.5 Q 362 -519 376.5 -507.5 Q 391 -496 401 -480.5 Q 411 -465 416 -447.5 Q 421 -430 423 -411.5 Q 425 -393 425 -375 L 347 -375 Q 347 -389 345 -403.5 Q 343 -418 336 -431 Q 329 -444 316 -451 Q 303 -458 288 -458 Q 269 -458 251 -449 Q 233 -440 221.5 -424.5 Q 210 -409 203 -390.5 Q 196 -372 192 -353 Q 188 -334 187 -314.5 Q 186 -295 186 -276 L 186 0 Z " id="path1"/>
</defs>
<g>
<g data-source-text="r" fill="#20242e" transform="translate(40 104.99201) rotate(0) scale(0.09599999)">
<use href="#path1" transform="translate(0 0)"/>
</g>
</g>
</svg>