<?xml version="1.0" encoding="UTF-8" standalone="no"?>
<svg height="160" viewBox="0 0 128 160" width="128" xmlns="http://www.w3.org/2000/svg">
<defs>
<path d="M 44 0 L 44 -70 L 128 -70 L 128 -520 L 206 -520 L 206 -408 Q 212 -431 222.5 -452.5 Q 233 -474 249 -491.5 Q 265 -509 287.5 -518.5 Q 310 -528 334 -528 Q 349 -528 364.5 -523.5 Q 380 -519 392 -509 Q 404 -499 412 -485.5 Q 420 -472 424.5 -456.5 Q 429 -441 430.5 -425.5 Q 432 -410 432 -394 L 354 -394 Q 354 -406 352 -417.5 Q 350 -429 344 -438.5 Q 338 -448 327 -453 Q 316 -458 305 -458 Q 286 -458 268.5 -448.5 Q 251 -439 240 -423.5 Q 229 -408 222.5 -389.5 Q 216 -371 212 -352 Q 208 -333 207 -314 Q 206 -295 206 -276 L 206 -70 L 307 -70 L 307 0 Z " id="path1"/>
</defs>
<g>
<g data-source-text="r" fill="#20242e" transform="translate(40 104.99201) rotate(0) scale(0.09599999)">
<use href="#path1" transform="translate(0 0)"/>
</g>
</g>
</svg>