<?xml version="1.0" encoding="UTF-8" standalone="no"?>
<svg height="160" viewBox="0 0 128 160" width="128" xmlns="http://www.w3.org/2000/svg">
<defs>
<path d="M 275 8 Q 256 8 237.5 5.5 Q 219 3 201.5 -3 Q 184 -9 168.5 -20 Q 153 -31 141 -45 L 141 0 L 64 0 L 64 -180 L 141 -180 L 141 -135 Q 141 -123 145.5 -111 Q 150 -99 158.5 -90.5 Q 167 -82 178 -76.5 Q 189 -71 201 -67.5 Q 213 -64 225 -63 Q 237 -62 250 -62 Q 268 -62 286 -65 Q 304 -68 320.5 -76.5 Q 337 -85 348 -100.5 Q 359 -116 359 -134 Q 359 -152 349.5 -167.5 Q 340 -183 326 -193 Q 312 -203 295.5 -208.5 Q 279 -214 262 -218 Q 245 -222 228 -226 Q 211 -230 194.5 -236 Q 178 -242 162.5 -250 Q 147 -258 133.5 -268.5 Q 120 -279 108.5 -292 Q 97 -305 88.5 -320.5 Q 80 -336 76 -353 Q 72 -370 72 -387 Q 72 -417 84 -445.5 Q 96 -474 118.5 -493 Q 141 -512 170.5 -520 Q 200 -528 229 -528 Q 247 -528 265.5 -525.5 Q 284 -523 301 -517 Q 318 -511 333 -500.5 Q 348 -490 359 -476 L 359 -520 L 436 -520 L 436 -340 L 359 -340 L 359 -385 Q 359 -403 349.5 -419 Q 340 -435 324 -443.5 Q 308 -452 290 -455 Q 272 -458 254 -458 Q 237 -458 219 -455 Q 201 -452 185.5 -443.5 Q 170 -435 159.5 -419.5 Q 149 -404 149 -386 Q 149 -369 158.5 -353.5 Q 168 -338 182 -327.5 Q 196 -317 212.5 -311.5 Q 229 -306 246 -302 Q 263 -298 280 -294 Q 297 -290 313 -284 Q 329 -278 344.5 -270 Q 360 -262 374 -251.5 Q 388 -241 399.5 -228 Q 411 -215 419.5 -199.5 Q 428 -184 432 -167 Q 436 -150 436 -133 Q 436 -103 423.5 -74 Q 411 -45 388 -26 Q 365 -7 335 0.5 Q 305 8 275 8 Z " id="path1"/>
</defs>
<g>
<g data-source-text="s" fill="#dee4e3" transform="translate(40 104.99201) rotate(0) scale(0.09599999)">
<use href="#path1" transform="translate(0 0)"/>
</g>
</g>
</svg>