<?xml version="1.0" encoding="UTF-8" standalone="no"?>
<svg height="160" viewBox="0 0 128 160" width="128" xmlns="http://www.w3.org/2000/svg">
<defs>
<path d="M 280 8 Q 260 8 240.5 4.5 Q 221 1 203 -7 Q 185 -15 169 -27 Q 153 -39 141 -55 L 141 0 L 64 0 L 64 -180 L 141 -180 L 141 -135 Q 141 -123 147 -111.5 Q 153 -100 162 -92 Q 171 -84 182 -78 Q 193 -72 205 -68.5 Q 217 -65 229 -63.5 Q 241 -62 254 -62 Q 271 -62 289 -65 Q 307 -68 322.5 -77 Q 338 -86 348.5 -101 Q 359 -116 359 -134 Q 359 -152 349.5 -167.5 Q 340 -183 326 -193 Q 312 -203 295.5 -208.5 Q 279 -214 262 -218 Q 245 -222 228 -226 Q 211 -230 194.5 -236 Q 178 -242 162.5 -250 Q 147 -258 133.5 -268.5 Q 120 -279 108.5 -292 Q 97 -305 88.5 -320.5 Q 80 -336 76 -353 Q 72 -370 72 -388 Q 72 -416 82.5 -444 Q 93 -472 114.5 -491.5 Q 136 -511 164 -519.5 Q 192 -528 221 -528 Q 240 -528 259.5 -524.5 Q 279 -521 297.5 -513 Q 316 -505 331.5 -493 Q 347 -481 359 -465 L 359 -520 L 436 -520 L 436 -340 L 359 -340 L 359 -385 Q 359 -397 353 -408.5 Q 347 -420 338 -428 Q 329 -436 318 -442 Q 307 -448 295.5 -451.5 Q 284 -455 272 -456.5 Q 260 -458 247 -458 Q 230 -458 213.5 -454.5 Q 197 -451 182.5 -442.5 Q 168 -434 158.5 -418.5 Q 149 -403 149 -386 Q 149 -369 158 -353.5 Q 167 -338 181 -327.5 Q 195 -317 212 -311.5 Q 229 -306 246 -302 Q 263 -298 280 -294 Q 297 -290 313 -284 Q 329 -278 344.5 -270 Q 360 -262 374 -251.5 Q 388 -241 399.5 -228 Q 411 -215 419.5 -199.5 Q 428 -184 432 -167 Q 436 -150 436 -133 Q 436 -103 424 -75 Q 412 -47 390 -28 Q 368 -9 339 -0.5 Q 310 8 280 8 Z " id="path1"/>
</defs>
<g>
<g data-source-text="s" fill="#20242e" transform="translate(40 104.99201) rotate(0) scale(0.09599999)">
<use href="#path1" transform="translate(0 0)"/>
</g>
</g>
</svg>