<?xml version="1.0" encoding="UTF-8" standalone="no"?>
<svg xmlns="http://www.w3.org/2000/svg" height="160" viewBox="0 0 128 160" width="128"><defs><path d="M 249 8 Q 227 8 205 5.5 Q 183 3 162 -4 Q 141 -11 122 -23.5 Q 103 -36 89.5 -53.5 Q 76 -71 69 -92 Q 62 -113 62 -135 Q 62 -136 62 -137 Q 62 -138 62 -139 L 140 -139 Q 140 -138 140 -137.5 Q 140 -137 140 -137 Q 140 -118 150.5 -102 Q 161 -86 177 -77 Q 193 -68 211.5 -65 Q 230 -62 249 -62 Q 267 -62 285 -64.5 Q 303 -67 319.5 -75 Q 336 -83 347 -98.5 Q 358 -114 358 -132 Q 358 -149 349 -164.5 Q 340 -180 326 -190.5 Q 312 -201 295.5 -207 Q 279 -213 262 -217.5 Q 245 -222 228.5 -226.5 Q 212 -231 195.5 -237 Q 179 -243 163.5 -251 Q 148 -259 134.5 -270 Q 121 -281 109 -294 Q 97 -307 89 -322 Q 81 -337 76.5 -354 Q 72 -371 72 -389 Q 72 -410 78.5 -430.5 Q 85 -451 98 -468 Q 111 -485 129 -497 Q 147 -509 167 -516 Q 187 -523 208.5 -525.5 Q 230 -528 251 -528 Q 273 -528 294 -525.5 Q 315 -523 335 -515.5 Q 355 -508 373 -496 Q 391 -484 404 -466.5 Q 417 -449 423.5 -428.5 Q 430 -408 430 -387 Q 430 -386 430 -385 Q 430 -384 430 -383 L 352 -383 Q 352 -384 352 -384.5 Q 352 -385 352 -385 Q 352 -402 343 -418 Q 334 -434 319 -443 Q 304 -452 286.5 -455 Q 269 -458 251 -458 Q 234 -458 216.5 -455 Q 199 -452 184 -444 Q 169 -436 159.5 -421 Q 150 -406 150 -389 Q 150 -371 159 -355.5 Q 168 -340 181.5 -329.5 Q 195 -319 212 -313 Q 229 -307 245.5 -303 Q 262 -299 279 -294 Q 296 -289 312 -283 Q 328 -277 343.5 -269 Q 359 -261 373 -250.5 Q 387 -240 398.5 -226.5 Q 410 -213 418.5 -198 Q 427 -183 431.5 -166 Q 436 -149 436 -131 Q 436 -110 428.5 -88.5 Q 421 -67 407.5 -50.5 Q 394 -34 375 -22 Q 356 -10 335 -3.5 Q 314 3 292.5 5.5 Q 271 8 249 8 Z " id="path1"/></defs><g><g data-source-text="s" fill="#20242e" transform="translate(40 104.99201) rotate(0) scale(0.09599999)"><use href="#path1" transform="translate(0 0)"/></g></g></svg>