<svg xmlns="http://www.w3.org/2000/svg" height="160" viewBox="0 0 128 160" width="128"><defs><path d="M 249 8 C 233.66667 8 218.66667 7.1666665 204 5.5 C 189.33333 3.8333333 175 0.4999998 161.00002 -4.5000005 C 147.00002 -9.5 133.83334 -16.333334 121.50001 -25.000002 C 109.16667 -33.666668 98.50001 -43.833336 89.5 -55.500004 C 80.5 -67.166664 73.66667 -80.166664 69 -94.50001 C 64.333336 -108.833336 62.000004 -123.333336 62.000004 -138 C 62.000004 -138.66666 62.000004 -139 62.000004 -139 C 62.000004 -139 62.000004 -139.33333 62.000004 -140.00002 L 140.00002 -140.00002 C 140.00002 -140.00002 140.00002 -139.83333 140.00002 -139.5 C 140.00002 -139.16666 140.00002 -139 140.00002 -139 C 140.00002 -126.33334 143.33334 -114.5 150.00002 -103.5 C 156.66667 -92.50001 165.50002 -84.00001 176.50002 -78 C 187.5 -72 199.16666 -67.833336 211.50002 -65.5 C 223.83333 -63.16667 236.33334 -62.000004 249 -62.000004 C 261 -62.000004 273.33334 -63.000004 286 -65.00001 C 298.66666 -67 310.33334 -71.166664 321 -77.5 C 331.6667 -83.833336 340.66666 -92.50001 348.00003 -103.5 C 355.33334 -114.5 359.00003 -126.33334 359.00003 -139 C 359.00003 -148.33333 356.5 -157.5 351.5 -166.5 C 346.5 -175.5 340.1667 -183.00002 332.5 -189.00002 C 324.8333 -195 316.33334 -199.50002 307 -202.50002 C 297.6667 -205.50002 288.33334 -208.33334 279 -211.00002 L 278 -211.00002 C 262.66666 -215.66666 247.16666 -220.33333 231.50002 -225.00002 C 215.83333 -229.66666 200.66667 -234.83333 186.00002 -240.5 C 171.33334 -246.16667 157 -253.33334 143 -262 C 129 -270.66666 116.66667 -281 106 -293 C 95.33333 -305 86.99999 -318.66666 81 -334 C 75 -349.33328 72 -364.99997 72.00001 -381 C 72 -395.66666 74.166664 -409.99997 78.50001 -424 C 82.833336 -438.00003 89.166664 -451.00003 97.5 -463.00003 C 105.833336 -475 115.833336 -485.3333 127.5 -494 C 139.16667 -502.66666 151.83334 -509.5 165.50002 -514.50006 C 179.16669 -519.5 193.33336 -523 208.00002 -525.00006 C 222.66667 -526.99994 237 -528 251.00002 -528 C 265.66666 -528 280.16666 -526.99994 294.5 -525.00006 C 308.83334 -523 322.6667 -519.5 336.00003 -514.50006 C 349.33334 -509.5 362 -502.83334 374 -494.50003 C 386 -486.16666 396.16666 -476.16666 404.50003 -464.5 C 412.83334 -452.83334 419.1667 -440 423.50003 -426 C 427.83334 -412.00003 430 -397.66672 430 -383.00003 C 430 -383 430 -382.83334 430 -382.50003 C 430 -382.1667 430 -382.00003 430 -382.00003 L 352 -382.00003 C 352 -382.00003 352 -382.1667 352 -382.50003 C 352 -382.83334 352 -383 352 -383.00003 C 352 -394.33337 349 -405.33337 343.00003 -416.00003 C 336.99997 -426.66666 329 -435.1667 319.00003 -441.5 C 309 -447.8333 298.1667 -452.16666 286.5 -454.5 C 274.83334 -456.83328 262.99997 -457.99997 251.00002 -458 C 239.00002 -457.99997 227.16666 -456.83328 215.5 -454.5 C 203.83333 -452.16666 193 -447.8333 183.00002 -441.5 C 173 -435.1667 164.83334 -426.50003 158.50002 -415.50003 C 152.16667 -404.50003 149 -393.33337 149 -382.00003 C 149 -370.6667 152.16667 -360 158.50002 -350 C 164.83334 -340 172.83333 -332 182.50002 -326 C 192.16667 -320.00003 202.50002 -315.5 213.50002 -312.5 C 224.5 -309.5 235.5 -306.5 246.5 -303.5 C 257.5 -300.5 268.5 -297.33334 279.50003 -294.00003 C 290.5 -290.66666 301.3333 -287.16666 312 -283.5 C 322.66666 -279.8333 333 -275.5 343.00003 -270.5 C 353.00003 -265.5 362.6667 -259.83334 372.00003 -253.50002 C 381.33337 -247.16669 390 -239.83334 398 -231.50002 C 406 -223.16667 412.83334 -214.16667 418.5 -204.5 C 424.1667 -194.83333 428.50003 -184.33333 431.5 -173 C 434.5 -161.66667 435.99997 -150.33333 436 -139 C 435.99997 -124.333336 433.66663 -109.83334 429.00003 -95.50001 C 424.33334 -81.166664 417.50003 -68 408.5 -56 C 399.50003 -44 388.83337 -33.833332 376.50003 -25.5 C 364.16666 -17.166668 351 -10.499999 337.00003 -5.5 C 323 -0.5000001 308.5 3 293.5 5.0000005 C 278.5 7 263.6667 8 249 8 Z " id="path1"/></defs><g><g fill="#000000" transform="translate(40 105.20961) rotate(0)"><use href="#path1" transform="translate(0 0) scale(0.09599999)"/></g></g></svg>