<?xml version="1.0" encoding="UTF-8" standalone="no"?>
<svg height="160" viewBox="0 0 128 160" width="128" xmlns="http://www.w3.org/2000/svg">
<defs>
<path d="M 174 0 Q 174 -42 179.5 -83.5 Q 185 -125 195.5 -165.5 Q 206 -206 219.5 -245.5 Q 233 -285 249 -324 L 118 -324 L 118 -394 L 277 -394 Q 290 -427 302.5 -460 Q 315 -493 325 -527 Q 335 -561 342.5 -595.5 Q 350 -630 354 -665 L 64 -665 L 64 -735 L 436 -735 Q 436 -691 430 -647.5 Q 424 -604 413 -562 Q 402 -520 387 -479 Q 372 -438 356 -397 L 355 -394 L 419 -394 L 419 -324 L 326 -324 Q 311 -285 297.5 -245.5 Q 284 -206 273.5 -165.5 Q 263 -125 257.5 -83.5 Q 252 -42 252 0 Z " id="path1"/>
</defs>
<g>
<g data-source-text="7" fill="#dee4e3" transform="translate(40 104.99201) rotate(0) scale(0.09599999)">
<use href="#path1" transform="translate(0 0)"/>
</g>
</g>
</svg>