<svg xmlns="http://www.w3.org/2000/svg" height="160" viewBox="0 0 128 160" width="128"><defs><path d="M 249 8 C 233.66667 8 218.66667 7.1666665 204 5.5 C 189.33333 3.8333333 175 0.4999998 161.00002 -4.5000005 C 147.00002 -9.5 133.83334 -16.333334 121.50001 -25.000002 C 109.16667 -33.666668 98.50001 -43.833336 89.5 -55.500004 C 80.5 -67.166664 73.66667 -80.166664 69 -94.50001 C 64.333336 -108.833336 62.000004 -123.333336 62.000004 -138 C 62.000004 -138.66666 62.000004 -139 62.000004 -139 C 62.000004 -139 62.000004 -139.33333 62.000004 -140.00002 L 140.00002 -140.00002 C 140.00002 -140.00002 140.00002 -139.83333 140.00002 -139.5 C 140.00002 -139.16666 140.00002 -139 140.00002 -139 C 140.00002 -126.33334 143.33334 -114.5 150.00002 -103.5 C 156.66667 -92.50001 165.50002 -84.00001 176.50002 -78 C 187.5 -72 199.16666 -67.833336 211.50002 -65.5 C 223.83333 -63.16667 236.33334 -62.000004 249 -62.000004 C 261 -62.000004 273.33334 -63.000004 286 -65.00001 C 298.66666 -67 310.33334 -71.166664 321 -77.5 C 331.6667 -83.833336 340.66666 -92.50001 348.00003 -103.5 C 355.33334 -114.5 359.00003 -126.33334 359.00003 -139 C 359.00003 -148.33333 356.5 -157.5 351.5 -166.5 C 346.5 -175.5 340.1667 -183.00002 332.5 -189.00002 C 324.8333 -195 316.33334 -199.66667 307 -203.00002 C 297.6667 -206.33333 288.33334 -209 279 -211.00002 L 278 -211.00002 L 277.00003 -212 C 261.66666 -215.99998 246.33333 -220.33333 231.00002 -225.00002 C 215.66666 -229.66666 200.5 -234.99998 185.50002 -241 C 170.5 -246.99998 156.16667 -254.16667 142.5 -262.50003 C 128.83334 -270.83334 116.66667 -281.16666 106 -293.5 C 95.33333 -305.83334 86.99999 -319.5 81 -334.5 C 75 -349.5 72 -365.33334 72.00001 -382.00003 C 72 -396 74 -409.8333 78 -423.50003 C 82 -437.16666 88 -449.8333 96 -461.50003 C 103.99999 -473.1667 113.666664 -483.33337 125 -492.00003 C 136.33333 -500.66663 148.5 -507.66666 161.5 -513 C 174.5 -518.3333 187.99998 -522.1667 202.00002 -524.5 C 216 -526.8333 230 -528 244 -528 C 278 -528 311.1667 -523.1667 343.50003 -513.50006 C 375.83337 -503.8333 406.6667 -490.66666 436 -474.00003 L 436 -340 L 359.00003 -340 L 359.00003 -431 C 341 -438.99997 322.5 -445.5 303.5 -450.50003 C 284.5 -455.49997 265.33334 -457.99997 246.00002 -458 C 234.00002 -457.99997 222.33334 -456.66666 211.00002 -454 C 199.66667 -451.33334 189.33333 -446.83334 180.00002 -440.50003 C 170.66666 -434.1667 163.16667 -425.66666 157.5 -415 C 151.83333 -404.33337 149 -393.33337 149 -382.00003 C 149 -370.6667 152.16667 -360 158.50002 -350 C 164.83334 -340 172.83333 -332 182.50002 -326 C 192.16667 -320.00003 202.50002 -315.6667 213.50002 -313 C 224.5 -310.33334 235.5 -307.33334 246.5 -304 C 257.5 -300.6667 268.5 -297.33334 279.50003 -294.00003 C 290.5 -290.66666 301.16666 -287.16666 311.5 -283.5 C 321.83334 -279.8333 332.1667 -275.5 342.50003 -270.5 C 352.83337 -265.5 362.6667 -259.83334 372.00003 -253.50002 C 381.33337 -247.16669 390 -239.83334 398 -231.50002 C 406 -223.16667 412.83334 -214.16667 418.5 -204.5 C 424.1667 -194.83333 428.50003 -184.33333 431.5 -173 C 434.5 -161.66667 435.99997 -150.33333 436 -139 C 435.99997 -124.333336 433.66663 -109.83334 429.00003 -95.50001 C 424.33334 -81.166664 417.50003 -68 408.5 -56 C 399.50003 -44 388.83337 -33.833332 376.50003 -25.5 C 364.16666 -17.166668 351 -10.499999 337.00003 -5.5 C 323 -0.5000001 308.5 3 293.5 5.0000005 C 278.5 7 263.6667 8 249 8 Z " id="path1"/></defs><g><g fill="#000000" transform="translate(40 105.20961) rotate(0)"><use href="#path1" transform="translate(0 0) scale(0.09599999)"/></g></g></svg>