<svg xmlns="http://www.w3.org/2000/svg" height="160" viewBox="0 0 128 160" width="128"><defs><path d="M 174.00002 0 C 174.00002 -54.666664 177.33334 -109 184 -163 C 190.66666 -217 200.33333 -270.66666 213 -324 L 103.00001 -324 L 103.00001 -394.00003 L 233 -394.00003 C 246.99998 -440.66666 263.6667 -486.83334 283.00003 -532.5 C 302.3333 -578.1667 324 -622.3333 348.00003 -665 L 141 -665 L 141 -590 L 64 -590 L 64 -735 L 436 -735 L 436 -665 C 410.66663 -622.3333 387.66663 -578.3333 367 -533 C 346.33334 -487.66666 328.33334 -441.33334 313 -394.00003 L 404.00003 -394.00003 L 404.00003 -324 L 293 -324 C 279.66666 -271.33334 269.5 -217.83333 262.50003 -163.5 C 255.5 -109.166664 251.99998 -54.666664 252 0 Z " id="path1"/></defs><g><g fill="#ffffff" transform="translate(40 105.20961) rotate(0)"><use href="#path1" transform="translate(0 0) scale(0.09599999)"/></g></g></svg>