<?xml version="1.0" encoding="UTF-8" standalone="no"?>
<svg xmlns="http://www.w3.org/2000/svg" height="160" viewBox="0 0 128 160" width="128"><defs><path d="M 257 8 Q 207 8 157.5 -6.5 Q 108 -21 64 -46 L 64 -188 L 141 -188 L 141 -88 Q 168 -76 197 -69 Q 226 -62 256 -62 Q 273 -62 290.5 -65 Q 308 -68 323 -76.5 Q 338 -85 348 -100 Q 358 -115 358 -132 Q 358 -149 349 -165 Q 340 -181 326 -191 Q 312 -201 295.5 -207 Q 279 -213 262 -217.5 Q 245 -222 228.5 -226.5 Q 212 -231 195.5 -237 Q 179 -243 163.5 -251 Q 148 -259 134.5 -270 Q 121 -281 109 -294 Q 97 -307 89 -322 Q 81 -337 76.5 -354 Q 72 -371 72 -389 Q 72 -410 78.5 -430 Q 85 -450 97 -466.5 Q 109 -483 126 -495 Q 143 -507 162.5 -514.5 Q 182 -522 202.5 -525 Q 223 -528 244 -528 Q 294 -528 343 -513.5 Q 392 -499 436 -474 L 436 -340 L 359 -340 L 359 -432 Q 332 -443 303 -450.5 Q 274 -458 245 -458 Q 228 -458 212 -454.5 Q 196 -451 181.5 -442.5 Q 167 -434 158.5 -419.5 Q 150 -405 150 -389 Q 150 -371 159 -355.5 Q 168 -340 181.5 -329.5 Q 195 -319 211.5 -313 Q 228 -307 245 -303 Q 262 -299 279 -294.5 Q 296 -290 312 -283.5 Q 328 -277 343.5 -269 Q 359 -261 373 -250.5 Q 387 -240 398.5 -226.5 Q 410 -213 418.5 -198 Q 427 -183 431.5 -166 Q 436 -149 436 -131 Q 436 -110 429 -89.5 Q 422 -69 409 -52.5 Q 396 -36 378 -24 Q 360 -12 340.5 -5 Q 321 2 299.5 5 Q 278 8 257 8 Z " id="path1"/></defs><g><g data-source-text="s" fill="#20242e" transform="translate(40 104.99201) rotate(0) scale(0.09599999)"><use href="#path1" transform="translate(0 0)"/></g></g></svg>