<?xml version="1.0" encoding="UTF-8" standalone="no"?>
<svg height="160" viewBox="0 0 128 160" width="128" xmlns="http://www.w3.org/2000/svg">
<defs>
<path d="M 250 8 Q 223 8 196 2.5 Q 169 -3 146 -16 Q 123 -29 104.5 -49.5 Q 86 -70 75 -94.5 Q 64 -119 60 -146 Q 56 -173 56 -200 L 56 -535 Q 56 -562 60 -588.5 Q 64 -615 75 -639.5 Q 86 -664 103.5 -684.5 Q 121 -705 144 -718.5 Q 167 -732 193.5 -737.5 Q 220 -743 247 -743 Q 272 -743 297 -739 Q 322 -735 344 -724 Q 366 -713 384.5 -695.5 Q 403 -678 415 -656 Q 427 -634 432.5 -609.5 Q 438 -585 438 -560 L 438 -555 L 360 -555 L 360 -558 Q 360 -581 353 -603 Q 346 -625 330 -641.5 Q 314 -658 292 -665.5 Q 270 -673 247 -673 Q 230 -673 213.5 -669 Q 197 -665 183 -655 Q 169 -645 159.5 -631 Q 150 -617 144 -601.5 Q 138 -586 136 -569 Q 134 -552 134 -535 L 134 -390 Q 144 -404 157 -415.5 Q 170 -427 186 -434.5 Q 202 -442 219.5 -444.5 Q 237 -447 254 -447 Q 281 -447 307 -441.5 Q 333 -436 356 -422.5 Q 379 -409 397 -388.5 Q 415 -368 425.5 -343.5 Q 436 -319 440 -292.5 Q 444 -266 444 -239 L 444 -200 Q 444 -173 440 -146 Q 436 -119 425 -94.5 Q 414 -70 395.5 -49.5 Q 377 -29 354 -16 Q 331 -3 304 2.5 Q 277 8 250 8 Z M 250 -62 Q 267 -62 284 -66 Q 301 -70 315 -79.5 Q 329 -89 339.5 -103 Q 350 -117 356 -133 Q 362 -149 364 -166 Q 366 -183 366 -200 L 366 -239 Q 366 -256 364 -273 Q 362 -290 356 -306 Q 350 -322 339.5 -336 Q 329 -350 315 -359.5 Q 301 -369 284.5 -373 Q 268 -377 251 -377 Q 233 -377 216.5 -373 Q 200 -369 185.5 -359.5 Q 171 -350 161 -336 Q 151 -322 144.5 -306 Q 138 -290 136 -273 Q 134 -256 134 -239 L 134 -200 Q 134 -183 136 -166 Q 138 -149 144 -133 Q 150 -117 160.5 -103 Q 171 -89 185 -79.5 Q 199 -70 216 -66 Q 233 -62 250 -62 Z " id="path1"/>
</defs>
<g>
<g data-source-text="6" fill="#dee4e3" transform="translate(40 104.99201) rotate(0) scale(0.09599999)">
<use href="#path1" transform="translate(0 0)"/>
</g>
</g>
</svg>