<svg xmlns="http://www.w3.org/2000/svg" height="160" viewBox="0 0 128 160" width="128"><defs><path d="M 274.00003 8 C 261.3333 8 248.83333 7.1666665 236.50002 5.5 C 224.16666 3.8333333 212.16667 0.8333332 200.50002 -3.5 C 188.83334 -7.8333335 177.83334 -13.5 167.5 -20.500002 C 157.16667 -27.5 148.33333 -36 141 -46 L 141 0 L 64 0 L 64 -181 L 141 -181 L 141 -136 C 141 -128 142.33333 -120.00001 145 -112 C 147.66667 -104.00001 152 -97.00001 158 -91 C 164 -85 170.66666 -80.166664 178 -76.5 C 185.33334 -72.83333 192.83334 -69.83333 200.50002 -67.5 C 208.16667 -65.166664 216.16666 -63.666664 224.5 -63 C 232.83333 -62.333336 241 -62.000004 249 -62.000004 C 261.66666 -62.000004 274.1667 -63.000004 286.5 -65.00001 C 298.83334 -67 310.5 -71.166664 321.5 -77.5 C 332.5 -83.833336 341.5 -92.333336 348.50003 -103.00001 C 355.5 -113.666664 359.00003 -125.333336 359.00003 -138 C 359.00003 -149.33333 355.6667 -159.99998 349.00003 -170 C 342.3333 -180 334.16666 -188.00002 324.5 -194.00002 C 314.83334 -200.00002 304.5 -204.5 293.5 -207.5 C 282.5 -210.50002 271.5 -213.49998 260.5 -216.50002 C 249.5 -219.49998 238.5 -222.66667 227.50002 -226.00002 C 216.50002 -229.33333 205.66667 -233 195 -237.00002 C 184.33333 -241.00003 173.83333 -245.50002 163.5 -250.50002 C 153.16667 -255.5 143.5 -261.16666 134.5 -267.5 C 125.5 -273.8333 117 -281.33334 109 -290 C 100.99999 -298.66666 94.16667 -307.8333 88.50001 -317.5 C 82.833336 -327.16666 78.66667 -337.6667 76 -349.00003 C 73.333336 -360.33337 72 -371.6667 72.00001 -383.00003 C 72 -402.99997 75.66667 -422.5 83 -441.5 C 90.333336 -460.50003 101.333336 -476.83334 116 -490.50003 C 130.66667 -504.1667 147.83333 -513.8333 167.5 -519.50006 C 187.16667 -525.1666 207 -528 227 -528 C 239.00002 -528 251.16667 -527.1667 263.5 -525.50006 C 275.83334 -523.8333 287.83334 -520.8333 299.50003 -516.5 C 311.1667 -512.1666 322.1667 -506.49997 332.5 -499.5 C 342.83334 -492.5 351.6667 -483.99997 359.00003 -474.00003 L 359.00003 -520.00006 L 436 -520.00006 L 436 -339 L 359.00003 -339 L 359.00003 -384 C 359.00003 -391.99997 357.66666 -400 355.00003 -408 C 352.3333 -415.99997 348.1667 -422.83334 342.50003 -428.50003 C 336.83334 -434.1667 330.3333 -438.99997 323 -443 C 315.66666 -447 308 -449.99997 300.00003 -452.00003 C 292 -454 284 -455.50003 276 -456.50003 C 268 -457.5 259.66666 -457.99997 251.00002 -458 C 239.66667 -457.99997 228.00002 -456.83328 216 -454.5 C 204 -452.16666 193 -447.8333 183.00002 -441.5 C 173 -435.1667 164.83334 -426.66666 158.50002 -416.00003 C 152.16667 -405.33337 149 -394.00003 149 -382.00003 C 149 -370.6667 152.16667 -360 158.50002 -350 C 164.83334 -340 172.83333 -332 182.50002 -326 C 192.16667 -320.00003 202.66669 -315.5 214.00002 -312.5 C 225.33334 -309.5 236.49998 -306.5 247.50002 -303.5 C 258.5 -300.5 269.33334 -297.33334 280.00003 -294.00003 C 290.66666 -290.66666 301.3333 -287 312 -283.00003 C 322.66666 -279 333.16666 -274.5 343.50003 -269.5 C 353.83337 -264.5 363.66666 -258.83334 373 -252.5 C 382.33334 -246.16667 391 -238.83336 399.00003 -230.50002 C 407 -222.16667 413.8333 -212.99998 419.5 -203.00002 C 425.16666 -193 429.33334 -182.50002 432 -171.50002 C 434.66666 -160.5 435.99997 -149.33333 436 -138 C 435.99997 -124.00001 434.16666 -110.333336 430.5 -97.00001 C 426.8333 -83.666664 421.49997 -71.166664 414.5 -59.5 C 407.5 -47.833336 398.83337 -37.5 388.50003 -28.500002 C 378.1667 -19.5 366.66666 -12.166667 354.00003 -6.5000005 C 341.3333 -0.8333335 328.33334 3 315 5.0000005 C 301.66666 7 288 8 274.00003 8 Z " id="path1"/></defs><g><g fill="#000000" transform="translate(40 105.20961) rotate(0)"><use href="#path1" transform="translate(0 0) scale(0.09599999)"/></g></g></svg>