<?xml version="1.0" encoding="UTF-8" standalone="no"?>
<svg xmlns="http://www.w3.org/2000/svg" height="160" viewBox="0 0 128 160" width="128"><defs><path d="M 251 8 Q 223 8 195 1.5 Q 167 -5 143 -20.5 Q 119 -36 101.5 -59 Q 84 -82 74 -108.5 Q 64 -135 60 -163 Q 56 -191 56 -220 L 56 -535 Q 56 -562 60 -588.5 Q 64 -615 75 -639.5 Q 86 -664 103.5 -684.5 Q 121 -705 144 -718.5 Q 167 -732 194 -737.5 Q 221 -743 247 -743 Q 272 -743 297 -738.5 Q 322 -734 344.5 -723 Q 367 -712 385 -694.5 Q 403 -677 415 -655 Q 427 -633 432.5 -608.5 Q 438 -584 438 -559 Q 438 -559 438 -558.5 Q 438 -558 438 -557 L 360 -557 Q 360 -557 360 -557.5 Q 360 -558 360 -558 Q 360 -581 353 -603 Q 346 -625 330 -641.5 Q 314 -658 292 -665.5 Q 270 -673 247 -673 Q 230 -673 213.5 -669 Q 197 -665 183 -655 Q 169 -645 159.5 -631 Q 150 -617 144 -601.5 Q 138 -586 136 -569 Q 134 -552 134 -535 L 134 -390 Q 144 -404 157 -415.5 Q 170 -427 186 -434.5 Q 202 -442 219.5 -444.5 Q 237 -447 254 -447 Q 281 -447 307 -441.5 Q 333 -436 356 -422.5 Q 379 -409 397 -388.5 Q 415 -368 425.5 -343.5 Q 436 -319 440 -292.5 Q 444 -266 444 -239 L 444 -200 Q 444 -173 440 -146.5 Q 436 -120 425 -95.5 Q 414 -71 396 -50.5 Q 378 -30 354.5 -16.5 Q 331 -3 304.5 2.5 Q 278 8 251 8 Z M 251 -62 Q 268 -62 285 -66 Q 302 -70 316 -80 Q 330 -90 340 -103.5 Q 350 -117 356 -133 Q 362 -149 364 -166 Q 366 -183 366 -200 L 366 -239 Q 366 -256 364 -273 Q 362 -290 356 -306 Q 350 -322 340 -336 Q 330 -350 315.5 -359.5 Q 301 -369 284.5 -373 Q 268 -377 251 -377 Q 233 -377 216.5 -373 Q 200 -369 185.5 -359.5 Q 171 -350 160.5 -336 Q 150 -322 144 -306 Q 138 -290 136 -273 Q 134 -256 134 -239 L 134 -220 Q 134 -201 136 -182.5 Q 138 -164 143.5 -146.5 Q 149 -129 158.5 -112.5 Q 168 -96 182.5 -84.5 Q 197 -73 215 -67.5 Q 233 -62 251 -62 Z " id="path1"/></defs><g><g data-source-text="6" fill="#20242e" transform="translate(40 104.99201) rotate(0) scale(0.09599999)"><use href="#path1" transform="translate(0 0)"/></g></g></svg>