<svg xmlns="http://www.w3.org/2000/svg" height="160" viewBox="0 0 128 160" width="128"><defs><path d="M 250 8 C 230 8 210.33336 5.333333 191.00002 0 C 171.66667 -5.333333 154.16666 -14 138.50002 -26.000002 C 122.833336 -38 109.50001 -52.5 98.50001 -69.5 C 87.5 -86.49999 78.833336 -104.333336 72.5 -123.00001 C 66.166664 -141.66667 61.833332 -161 59.5 -181 C 57.166668 -201 55.999996 -221 56 -241 C 55.999996 -269.66666 58.999996 -298 65.00001 -326 C 71 -353.99997 79.166664 -381.50003 89.5 -408.5 C 99.833336 -435.5 111.333336 -461.83334 124.00001 -487.5 C 136.66667 -513.1667 149.66667 -538.6667 163 -564 L 248.00002 -735 L 334 -735 L 232 -533 C 224 -517 215.66667 -501.00003 207 -485.00003 C 198.33333 -469 189.33333 -453 180.00002 -437 L 179 -435.00003 C 179 -435.00003 179 -435.00003 179 -435.00003 C 179 -435.00003 179 -435.00003 179 -435.00003 L 178 -433.00003 C 190 -438.3333 202.16669 -442 214.50002 -444.00003 C 226.83333 -446 239.33331 -447 252 -447 C 270.6667 -447 289.33334 -444.83334 308.00003 -440.50003 C 326.6667 -436.1667 343.6667 -428.6667 359.00003 -418.00003 C 374.33334 -407.33334 387.83337 -394.33334 399.50003 -379 C 411.1667 -363.66666 420.33334 -347.3333 427.00003 -330 C 433.6667 -312.66666 438.16666 -294.6667 440.50003 -276 C 442.83334 -257.33334 444.00003 -238.66669 444.00003 -220.00002 C 444.00003 -200.66667 442.66666 -181.66667 440.00003 -163 C 437.3333 -144.33333 432.66663 -126.166664 426 -108.50001 C 419.3333 -90.83333 410.1667 -74.333336 398.50003 -59.000004 C 386.83337 -43.666668 373.16666 -30.833334 357.5 -20.500002 C 341.8333 -10.166667 324.66666 -2.8333333 306 1.5 C 287.3333 5.833333 268.66666 8 250 8 Z M 250 -62.000004 C 262 -62.000004 274 -63.83334 286 -67.5 C 298 -71.166664 308.83334 -76.99999 318.5 -85 C 328.16666 -93 336.16666 -102.33333 342.50003 -113.00001 C 348.83334 -123.666664 353.66663 -134.83334 357 -146.5 C 360.33328 -158.16667 362.66666 -170.16666 364 -182.50002 C 365.33334 -194.83333 366.00003 -207.33333 366.00003 -220.00002 C 366.00003 -232 365.33334 -244.16666 364 -256.5 C 362.66666 -268.8333 360.33328 -280.83334 357 -292.5 C 353.66663 -304.16666 348.83334 -315.33334 342.50003 -326 C 336.16666 -336.6667 328.33334 -346 319.00003 -354.00003 C 309.66666 -362 299 -367.83334 287 -371.50003 C 274.99997 -375.16666 262.66666 -377.00003 250 -377.00003 C 238 -377.00003 226 -375.16666 214.00002 -371.50003 C 202.00002 -367.83334 191.33334 -362.1667 182 -354.50003 C 172.66667 -346.83337 164.83334 -337.50003 158.50002 -326.5 C 152.16667 -315.5 147.16666 -304.16666 143.5 -292.5 C 139.83333 -280.83334 137.33334 -268.8333 136 -256.5 C 134.66667 -244.16666 134 -232 134 -220.00002 C 134 -207.33333 134.66667 -194.83333 136 -182.50002 C 137.33334 -170.16666 139.66667 -158.16667 143 -146.5 C 146.33333 -134.83334 151.16666 -123.666664 157.5 -113.00001 C 163.83333 -102.33333 171.83333 -93 181.5 -85 C 191.16667 -76.99999 202.00002 -71.166664 214.00002 -67.5 C 226 -63.83334 238 -62.000004 250 -62.000004 Z " id="path1"/></defs><g><g fill="#ffffff" transform="translate(40 105.20961) rotate(0)"><use href="#path1" transform="translate(0 0) scale(0.09599999)"/></g></g></svg>