<?xml version="1.0" encoding="UTF-8" standalone="no"?>
<svg height="160" viewBox="0 0 128 160" width="128" xmlns="http://www.w3.org/2000/svg">
<defs>
<path d="M 250 8 Q 222 8 194 1.5 Q 166 -5 142.5 -20.5 Q 119 -36 101.5 -59 Q 84 -82 74 -108.5 Q 64 -135 60 -163 Q 56 -191 56 -220 Q 56 -265 64.5 -310 Q 73 -355 88 -398 Q 103 -441 122.5 -482.5 Q 142 -524 163 -564 L 248 -735 L 334 -735 L 232 -533 Q 216 -501 200.5 -468.5 Q 185 -436 172 -402 Q 192 -425 221 -436 Q 250 -447 280 -447 Q 307 -447 332.5 -439 Q 358 -431 378 -413.5 Q 398 -396 411 -372.5 Q 424 -349 431.5 -324 Q 439 -299 441.5 -272.5 Q 444 -246 444 -220 Q 444 -191 440 -163 Q 436 -135 426 -108.5 Q 416 -82 398.5 -59 Q 381 -36 357.5 -20.5 Q 334 -5 306 1.5 Q 278 8 250 8 Z M 250 -62 Q 268 -62 286 -67.5 Q 304 -73 318.5 -85 Q 333 -97 342.5 -113 Q 352 -129 357 -146.5 Q 362 -164 364 -182.5 Q 366 -201 366 -220 Q 366 -238 364 -256.5 Q 362 -275 357 -292.5 Q 352 -310 342.5 -326 Q 333 -342 318.5 -354 Q 304 -366 286 -371.5 Q 268 -377 250 -377 Q 233 -377 217 -373 Q 201 -369 187.5 -359 Q 174 -349 164 -335 Q 154 -321 147.5 -305.5 Q 141 -290 138 -273.5 Q 135 -257 134 -241 L 134 -220 Q 134 -201 136 -182.5 Q 138 -164 143 -146.5 Q 148 -129 157.5 -113 Q 167 -97 181.5 -85 Q 196 -73 214 -67.5 Q 232 -62 250 -62 Z " id="path1"/>
</defs>
<g>
<g data-source-text="6" fill="#dee4e3" transform="translate(40 104.99201) rotate(0) scale(0.09599999)">
<use href="#path1" transform="translate(0 0)"/>
</g>
</g>
</svg>