<?xml version="1.0" encoding="UTF-8" standalone="no"?>
<svg height="160" viewBox="0 0 128 160" width="128" xmlns="http://www.w3.org/2000/svg">
<defs>
<path d="M 249 8 Q 227 8 205.5 5.5 Q 184 3 163 -3.5 Q 142 -10 123.5 -21.5 Q 105 -33 91 -49.5 Q 77 -66 69.5 -87 Q 62 -108 62 -130 L 62 -135 L 140 -135 L 140 -132 Q 140 -114 151 -99 Q 162 -84 178.5 -75.5 Q 195 -67 213 -64.5 Q 231 -62 249 -62 Q 267 -62 285.5 -65 Q 304 -68 320.5 -76.5 Q 337 -85 348 -100.5 Q 359 -116 359 -134 Q 359 -152 349.5 -167.5 Q 340 -183 326 -193 Q 312 -203 295.5 -208.5 Q 279 -214 262 -218 Q 245 -222 228.5 -226 Q 212 -230 195.5 -236 Q 179 -242 163.5 -250 Q 148 -258 134.5 -268 Q 121 -278 109 -291 Q 97 -304 89 -319.5 Q 81 -335 76.5 -352 Q 72 -369 72 -386 Q 72 -408 79 -429 Q 86 -450 100 -467.5 Q 114 -485 132.5 -497 Q 151 -509 172 -516 Q 193 -523 215 -525.5 Q 237 -528 259 -528 Q 306 -528 352 -513 Q 398 -498 436 -471 L 436 -340 L 359 -340 L 359 -434 Q 336 -446 310.5 -452 Q 285 -458 259 -458 Q 241 -458 222.5 -455 Q 204 -452 187.5 -443.5 Q 171 -435 160.5 -419.5 Q 150 -404 150 -385 Q 150 -368 159 -352.5 Q 168 -337 182 -327 Q 196 -317 212.5 -311.5 Q 229 -306 246 -302 Q 263 -298 279.5 -294 Q 296 -290 312.5 -284.5 Q 329 -279 344.5 -271 Q 360 -263 373.5 -252.5 Q 387 -242 399 -229 Q 411 -216 419 -200.5 Q 427 -185 431.5 -168.5 Q 436 -152 436 -134 Q 436 -112 429 -91 Q 422 -70 408 -52.5 Q 394 -35 375.5 -23 Q 357 -11 336 -4 Q 315 3 293 5.5 Q 271 8 249 8 Z " id="path1"/>
</defs>
<g>
<g data-source-text="s" fill="#20242e" transform="translate(40 104.99201) rotate(0) scale(0.09599999)">
<use href="#path1" transform="translate(0 0)"/>
</g>
</g>
</svg>