<?xml version="1.0" encoding="UTF-8" standalone="no"?>
<svg height="160" viewBox="0 0 128 160" width="128" xmlns="http://www.w3.org/2000/svg">
<defs>
<path d="M 249 8 Q 227 8 205 5.5 Q 183 3 162 -4.5 Q 141 -12 122 -24 Q 103 -36 89.5 -53.5 Q 76 -71 69 -92.5 Q 62 -114 62 -136 L 62 -139 L 140 -139 L 140 -138 Q 140 -119 150.5 -103 Q 161 -87 177 -77.5 Q 193 -68 211.5 -65 Q 230 -62 249 -62 Q 267 -62 285.5 -65 Q 304 -68 320 -76.5 Q 336 -85 347.5 -100.5 Q 359 -116 359 -134 Q 359 -152 349.5 -167.5 Q 340 -183 326 -193 Q 312 -203 295.5 -208.5 Q 279 -214 262 -218 Q 245 -222 228.5 -226 Q 212 -230 195.5 -236 Q 179 -242 163.5 -249.5 Q 148 -257 134 -267.5 Q 120 -278 108.5 -291 Q 97 -304 89 -319.5 Q 81 -335 76.5 -352 Q 72 -369 72 -386 Q 72 -408 78.5 -428.5 Q 85 -449 98 -466.5 Q 111 -484 129 -496 Q 147 -508 167 -515.5 Q 187 -523 208.5 -525.5 Q 230 -528 251 -528 Q 273 -528 294 -525.5 Q 315 -523 335.5 -515.5 Q 356 -508 373.5 -495.5 Q 391 -483 404 -466 Q 417 -449 423.5 -428 Q 430 -407 430 -386 L 430 -383 L 352 -383 L 352 -384 Q 352 -402 343 -417.5 Q 334 -433 319 -442.5 Q 304 -452 286.5 -455 Q 269 -458 251 -458 Q 234 -458 216.5 -455 Q 199 -452 184 -443 Q 169 -434 159 -419 Q 149 -404 149 -386 Q 149 -365 162 -347.5 Q 175 -330 193 -320 Q 211 -310 231.5 -305.5 Q 252 -301 272.5 -296 Q 293 -291 312.5 -284.5 Q 332 -278 350 -267.5 Q 368 -257 384 -243.5 Q 400 -230 411.5 -212.5 Q 423 -195 429.5 -175 Q 436 -155 436 -134 Q 436 -112 429 -91 Q 422 -70 408 -52.5 Q 394 -35 375.5 -23 Q 357 -11 336 -4 Q 315 3 293 5.5 Q 271 8 249 8 Z " id="path1"/>
</defs>
<g>
<g data-source-text="s" fill="#20242e" transform="translate(40 104.99201) rotate(0) scale(0.09599999)">
<use href="#path1" transform="translate(0 0)"/>
</g>
</g>
</svg>