<svg xmlns="http://www.w3.org/2000/svg" height="160" viewBox="0 0 128 160" width="128"><defs><path d="M 249 8 Q 226 8 204 5.5 Q 182 3 161 -4.5 Q 140 -12 121.5 -25 Q 103 -38 89.5 -55.5 Q 76 -73 69 -94.5 Q 62 -116 62 -138 Q 62 -139 62 -139 Q 62 -139 62 -140 L 140 -140 Q 140 -140 140 -139.5 Q 140 -139 140 -139 Q 140 -120 150 -103.5 Q 160 -87 176.5 -78 Q 193 -69 211.5 -65.5 Q 230 -62 249 -62 Q 267 -62 286 -65 Q 305 -68 321 -77.5 Q 337 -87 348 -103.5 Q 359 -120 359 -139 Q 359 -153 351.5 -166.5 Q 344 -180 332.5 -189 Q 321 -198 307 -202.5 Q 293 -207 279 -211 L 278 -211 Q 255 -218 231.5 -225 Q 208 -232 186 -240.5 Q 164 -249 143 -262 Q 122 -275 106 -293 Q 90 -311 81 -334 Q 72 -357 72 -381 Q 72 -403 78.5 -424 Q 85 -445 97.5 -463 Q 110 -481 127.5 -494 Q 145 -507 165.5 -514.5 Q 186 -522 208 -525 Q 230 -528 251 -528 Q 273 -528 294.5 -525 Q 316 -522 336 -514.5 Q 356 -507 374 -494.5 Q 392 -482 404.5 -464.5 Q 417 -447 423.5 -426 Q 430 -405 430 -383 Q 430 -383 430 -382.5 Q 430 -382 430 -382 L 352 -382 Q 352 -382 352 -382.5 Q 352 -383 352 -383 Q 352 -400 343 -416 Q 334 -432 319 -441.5 Q 304 -451 286.5 -454.5 Q 269 -458 251 -458 Q 233 -458 215.5 -454.5 Q 198 -451 183 -441.5 Q 168 -432 158.5 -415.5 Q 149 -399 149 -382 Q 149 -365 158.5 -350 Q 168 -335 182.5 -326 Q 197 -317 213.5 -312.5 Q 230 -308 246.5 -303.5 Q 263 -299 279.5 -294 Q 296 -289 312 -283.5 Q 328 -278 343 -270.5 Q 358 -263 372 -253.5 Q 386 -244 398 -231.5 Q 410 -219 418.5 -204.5 Q 427 -190 431.5 -173 Q 436 -156 436 -139 Q 436 -117 429 -95.5 Q 422 -74 408.5 -56 Q 395 -38 376.5 -25.5 Q 358 -13 337 -5.5 Q 316 2 293.5 5 Q 271 8 249 8 Z " id="path1"/></defs><g><g fill="#dee4e3" transform="translate(40 105.20961) rotate(0)"><use href="#path1" transform="translate(0 0) scale(0.09599999)"/></g></g></svg>