<?xml version="1.0" encoding="UTF-8" standalone="no"?>
<svg height="160" viewBox="0 0 128 160" width="128" xmlns="http://www.w3.org/2000/svg">
<defs>
<path d="M 249 8 Q 227 8 205 5.5 Q 183 3 162 -4.5 Q 141 -12 122 -24 Q 103 -36 89.5 -53.5 Q 76 -71 69 -92.5 Q 62 -114 62 -136 L 62 -139 L 140 -139 L 140 -138 Q 140 -119 150.5 -103 Q 161 -87 177 -77.5 Q 193 -68 211.5 -65 Q 230 -62 249 -62 Q 267 -62 285.5 -65 Q 304 -68 320 -76.5 Q 336 -85 347 -100.5 Q 358 -116 358 -134 Q 358 -152 349 -167.5 Q 340 -183 326 -193 Q 312 -203 295.5 -208.5 Q 279 -214 262 -218 Q 245 -222 228 -226 Q 211 -230 194.5 -236 Q 178 -242 162.5 -250 Q 147 -258 133.5 -268.5 Q 120 -279 108 -292 Q 96 -305 88 -320.5 Q 80 -336 76 -353 Q 72 -370 72 -388 Q 72 -416 82.5 -444 Q 93 -472 114.5 -491.5 Q 136 -511 164 -519.5 Q 192 -528 221 -528 Q 240 -528 259.5 -524.5 Q 279 -521 297.5 -513 Q 316 -505 331.5 -492.5 Q 347 -480 359 -464 L 359 -520 L 436 -520 L 436 -339 L 359 -339 L 359 -384 Q 359 -396 353 -407.5 Q 347 -419 338.5 -427.5 Q 330 -436 319 -441.5 Q 308 -447 296 -451 Q 284 -455 272 -456.5 Q 260 -458 247 -458 Q 230 -458 213 -454.5 Q 196 -451 182 -442.5 Q 168 -434 158.5 -418.5 Q 149 -403 149 -386 Q 149 -369 158 -353.5 Q 167 -338 181 -327.5 Q 195 -317 211.5 -311.5 Q 228 -306 245 -302 Q 262 -298 279 -294 Q 296 -290 312.5 -284.5 Q 329 -279 344.5 -271 Q 360 -263 373.5 -252.5 Q 387 -242 399 -229 Q 411 -216 419 -200.5 Q 427 -185 431.5 -168.5 Q 436 -152 436 -134 Q 436 -112 429 -91 Q 422 -70 408 -52.5 Q 394 -35 375.5 -23 Q 357 -11 336 -4 Q 315 3 293 5.5 Q 271 8 249 8 Z " id="path1"/>
</defs>
<g>
<g data-source-text="s" fill="#dee4e3" transform="translate(40 104.99201) rotate(0) scale(0.09599999)">
<use href="#path1" transform="translate(0 0)"/>
</g>
</g>
</svg>