<svg xmlns="http://www.w3.org/2000/svg" height="160" viewBox="0 0 128 160" width="128"><defs><path d="M 251.00002 8 C 232.33334 8 213.66667 5.833333 195 1.5 C 176.33331 -2.8333333 159 -10.166667 143 -20.500002 C 127 -30.833334 113.166664 -43.666668 101.50001 -59.000004 C 89.83334 -74.333336 80.66667 -90.83333 74 -108.50001 C 67.333336 -126.166664 62.666668 -144.33333 60.000004 -163 C 57.333332 -181.66667 55.999996 -200.66667 56 -220.00002 L 56 -535 C 55.999996 -553 57.333332 -570.8333 60.000004 -588.50006 C 62.666668 -606.1667 67.666664 -623.1667 75.00001 -639.50006 C 82.333336 -655.8334 91.833336 -670.8333 103.5 -684.5 C 115.166664 -698.1667 128.66666 -709.5 144.00002 -718.5 C 159.33333 -727.5 176 -733.8333 194.00002 -737.50006 C 212 -741.1667 229.66667 -743.00006 247 -743.00006 C 263.6667 -743.00006 280.33334 -741.5 297.00003 -738.50006 C 313.66666 -735.49994 329.5 -730.33325 344.5 -723 C 359.49997 -715.6666 373 -706.1666 385 -694.5 C 397 -682.8333 407 -669.6666 415 -655.00006 C 423.00003 -640.3334 428.83334 -624.8333 432.50003 -608.5 C 436.16666 -592.1666 437.99997 -575.6666 438.00003 -559.00006 C 437.99997 -559 437.99997 -558.8333 438.00003 -558.5 C 437.99997 -558.1667 437.99997 -557.6667 438.00003 -557 L 360.00003 -557 C 360 -557 360 -557.1667 360.00003 -557.5 C 360 -557.8333 360 -558 360.00003 -558 C 360 -573.3334 357.66666 -588.3334 353.00003 -603 C 348.33334 -617.6667 340.66666 -630.5 330 -641.5 C 319.3333 -652.5 306.66666 -660.5 292 -665.5 C 277.3333 -670.5 262.3333 -673.00006 247 -673.00006 C 235.66669 -673.00006 224.5 -671.6666 213.50002 -669 C 202.50002 -666.3333 192.33334 -661.6666 183.00002 -655.00006 C 173.66669 -648.3333 165.83334 -640.3334 159.50002 -631 C 153.16667 -621.6667 148 -611.8334 144.00002 -601.5 C 140.00002 -591.1667 137.33334 -580.3333 136 -569 C 134.66667 -557.6667 134 -546.3333 134 -535 L 134 -390 C 140.66667 -399.33334 148.33333 -407.83334 157.00002 -415.50003 C 165.66667 -423.1667 175.33334 -429.50003 186.00002 -434.50003 C 196.66669 -439.50003 207.83334 -442.83334 219.50002 -444.50003 C 231.16667 -446.1667 242.66667 -447 254.00002 -447 C 272 -447 289.66666 -445.1667 307 -441.5 C 324.3333 -437.8333 340.66666 -431.49997 356 -422.50003 C 371.33334 -413.5 385 -402.1667 397 -388.50003 C 409 -374.83334 418.5 -359.83334 425.5 -343.50003 C 432.49997 -327.16666 437.3333 -310.16666 440.00003 -292.5 C 442.66666 -274.83334 444.00003 -257 444.00003 -239.00002 L 444.00003 -200.00002 C 444.00003 -182 442.66666 -164.16667 440.00003 -146.5 C 437.3333 -128.83334 432.3333 -111.833336 425 -95.50001 C 417.6667 -79.16667 408 -64.166664 396 -50.500004 C 384 -36.833336 370.16666 -25.5 354.50003 -16.5 C 338.83334 -7.5 322.1667 -1.1666665 304.5 2.5000002 C 286.83334 6.1666665 268.99997 8 251.00002 8 Z M 251.00002 -62.000004 C 262.3333 -62.000004 273.66666 -63.333336 285 -66 C 296.33334 -68.66667 306.66666 -73.333336 316 -80.00001 C 325.3333 -86.666664 333.33334 -94.5 340 -103.5 C 346.66666 -112.50001 352 -122.33333 356 -133 C 360 -143.66667 362.66666 -154.66667 364 -166 C 365.33334 -177.33334 366.00003 -188.66667 366.00003 -200.00002 L 366.00003 -239.00002 C 366.00003 -250.33334 365.33334 -261.66666 364 -273 C 362.66666 -284.33334 360 -295.33334 356 -306 C 352 -316.6667 346.66666 -326.6667 340 -336.00003 C 333.33334 -345.33334 325.1667 -353.16666 315.5 -359.50003 C 305.83334 -365.83334 295.5 -370.3333 284.5 -373 C 273.5 -375.66666 262.3333 -377.00003 251.00002 -377.00003 C 239.00002 -377.00003 227.50002 -375.66666 216.50002 -373 C 205.50002 -370.3333 195.16667 -365.83334 185.50002 -359.50003 C 175.83333 -353.16666 167.5 -345.33334 160.5 -336.00003 C 153.5 -326.6667 148 -316.6667 144.00002 -306 C 140.00002 -295.33334 137.33334 -284.33334 136 -273 C 134.66667 -261.66666 134 -250.33334 134 -239.00002 L 134 -220.00002 C 134 -207.33333 134.66667 -194.83333 136 -182.50002 C 137.33334 -170.16666 139.83333 -158.16667 143.5 -146.5 C 147.16666 -134.83334 152.16667 -123.5 158.50002 -112.50001 C 164.83334 -101.5 172.83333 -92.166664 182.50002 -84.50001 C 192.16667 -76.83333 203 -71.166664 215 -67.5 C 227 -63.83334 239.00002 -62.000004 251.00002 -62.000004 Z " id="path1"/></defs><g><g fill="#ffffff" transform="translate(40 105.20961) rotate(0)"><use href="#path1" transform="translate(0 0) scale(0.09599999)"/></g></g></svg>