<svg xmlns="http://www.w3.org/2000/svg" height="160" viewBox="0 0 128 160" width="128"><defs><path d="M 249 8 C 233.66667 8 218.66667 7.1666665 204 5.5 C 189.33333 3.8333333 175 0.4999998 161.00002 -4.5000005 C 147.00002 -9.5 133.83334 -16.333334 121.50001 -25.000002 C 109.16667 -33.666668 98.50001 -43.833336 89.5 -55.500004 C 80.5 -67.166664 73.66667 -80.166664 69 -94.50001 C 64.333336 -108.833336 62.000004 -123.333336 62.000004 -138 C 62.000004 -138.66666 62.000004 -139 62.000004 -139 C 62.000004 -139 62.000004 -139.33333 62.000004 -140.00002 L 140.00002 -140.00002 C 140.00002 -140.00002 140.00002 -139.83333 140.00002 -139.5 C 140.00002 -139.16666 140.00002 -139 140.00002 -139 C 140.00002 -126.33334 143.33334 -114.5 150.00002 -103.5 C 156.66667 -92.50001 165.50002 -84.00001 176.50002 -78 C 187.5 -72 199.16666 -67.833336 211.50002 -65.5 C 223.83333 -63.16667 236.33334 -62.000004 249 -62.000004 C 261 -62.000004 273.33334 -63.000004 286 -65.00001 C 298.66666 -67 310.33334 -71.166664 321 -77.5 C 331.6667 -83.833336 340.66666 -92.50001 348.00003 -103.5 C 355.33334 -114.5 359.00003 -126.33334 359.00003 -139 C 359.00003 -150.33333 355.6667 -161 349.00003 -171.00002 C 342.3333 -181 334.16666 -188.83334 324.5 -194.50002 C 314.83334 -200.16667 304.5 -204.5 293.5 -207.5 C 282.5 -210.50002 271.5 -213.49998 260.5 -216.50002 C 249.5 -219.49998 238.5 -222.66667 227.50002 -226.00002 C 216.50002 -229.33333 205.66667 -233 195 -237.00002 C 184.33333 -241.00003 173.83333 -245.50002 163.5 -250.50002 C 153.16667 -255.5 143.5 -261.33334 134.5 -268 C 125.5 -274.66666 117 -282.16666 109 -290.5 C 100.99999 -298.83334 94.16667 -307.8333 88.50001 -317.5 C 82.833336 -327.16666 78.66667 -337.6667 76 -349.00003 C 73.333336 -360.33337 72 -371.6667 72.00001 -383.00003 C 72 -402.99997 75.66667 -422.5 83 -441.5 C 90.333336 -460.50003 101.333336 -476.83334 116 -490.50003 C 130.66667 -504.1667 147.83333 -513.8333 167.5 -519.50006 C 187.16667 -525.1666 207 -528 227 -528 C 239.00002 -528 251.16667 -527.1667 263.5 -525.50006 C 275.83334 -523.8333 287.83334 -520.8333 299.50003 -516.5 C 311.1667 -512.1666 322.1667 -506.49997 332.5 -499.5 C 342.83334 -492.5 351.6667 -483.99997 359.00003 -474.00003 L 359.00003 -520.00006 L 436 -520.00006 L 436 -339 L 359.00003 -339 L 359.00003 -384 C 359.00003 -391.99997 357.66666 -400 355.00003 -408 C 352.3333 -415.99997 348.1667 -422.83334 342.50003 -428.50003 C 336.83334 -434.1667 330.3333 -438.99997 323 -443 C 315.66666 -447 308 -449.99997 300.00003 -452.00003 C 292 -454 284 -455.50003 276 -456.50003 C 268 -457.5 259.66666 -457.99997 251.00002 -458 C 239.66667 -457.99997 228.00002 -456.83328 216 -454.5 C 204 -452.16666 193 -447.8333 183.00002 -441.5 C 173 -435.1667 164.83334 -426.66666 158.50002 -416.00003 C 152.16667 -405.33337 149 -394.00003 149 -382.00003 C 149 -372 151.5 -362.49997 156.5 -353.50003 C 161.5 -344.5 167.99998 -336.99997 176 -331.00003 C 184 -325.00003 192.66667 -320.33334 202.00002 -317.00003 C 211.33334 -313.66666 220.66667 -310.66666 230 -308.00003 L 231.00002 -308.00003 C 246.33333 -304 261.66666 -299.6667 277.00003 -295 C 292.33334 -290.33334 307.5 -285 322.50003 -279 C 337.5 -273 351.83334 -265.8333 365.50003 -257.5 C 379.1667 -249.16666 391.33334 -239.00002 402 -227 C 412.66666 -215 421.00003 -201.33333 427.00003 -186.00002 C 432.99997 -170.66666 435.99997 -155 436 -139 C 435.99997 -124.333336 433.66663 -109.83334 429.00003 -95.50001 C 424.33334 -81.166664 417.50003 -68 408.5 -56 C 399.50003 -44 388.83337 -33.833332 376.50003 -25.5 C 364.16666 -17.166668 351 -10.499999 337.00003 -5.5 C 323 -0.5000001 308.5 3 293.5 5.0000005 C 278.5 7 263.6667 8 249 8 Z " id="path1"/></defs><g><g fill="#ffffff" transform="translate(40 105.20961) rotate(0)"><use href="#path1" transform="translate(0 0) scale(0.09599999)"/></g></g></svg>