<svg xmlns="http://www.w3.org/2000/svg" height="160" viewBox="0 0 128 160" width="128"><defs><path d="M 174.00002 0 C 174.00002 -28 176 -55.833332 180.00002 -83.5 C 184.00002 -111.16666 189.33334 -138.5 196 -165.50002 C 202.66669 -192.5 210.50002 -219.16669 219.50002 -245.50002 C 228.5 -271.83334 238.33333 -298 249 -324 L 118.00001 -324 L 118.00001 -394.00003 L 277.00003 -394.00003 C 285.6667 -416.00003 294.1667 -438.00003 302.50003 -460 C 310.8333 -482 318.3333 -504.33334 325.00003 -527 C 331.6667 -549.6667 337.50003 -572.49994 342.50003 -595.5 C 347.50003 -618.5 351.3333 -641.6667 354.00003 -665 L 141 -665 L 141 -590 L 64 -590 L 64 -735 L 436 -735 C 435.99997 -706.99994 434.16666 -679.1666 430.5 -651.5 C 426.8333 -623.8333 421.66663 -596.5 415 -569.5 C 408.33334 -542.50006 400.33334 -516 391 -490.00003 C 381.6667 -464 372 -438.00003 362 -412.00003 L 354.00003 -394.00003 L 419 -394.00003 L 419 -324 L 326 -324 L 326 -323 C 316 -297 306.33334 -271 297.00003 -245.00002 C 287.6667 -219.00002 279.66666 -192.5 273 -165.50002 C 266.33334 -138.5 261.16666 -111.16666 257.5 -83.5 C 253.83333 -55.833332 251.99998 -28 252 0 Z " id="path1"/></defs><g><g fill="#000000" transform="translate(40 105.20961) rotate(0)"><use href="#path1" transform="translate(0 0) scale(0.09599999)"/></g></g></svg>