<?xml version="1.0" encoding="UTF-8" standalone="no"?>
<svg height="160" viewBox="0 0 128 160" width="128" xmlns="http://www.w3.org/2000/svg">
<defs>
<path d="M 250 8 Q 220 8 191 0 Q 162 -8 138.5 -26 Q 115 -44 98.5 -69.5 Q 82 -95 72.5 -123 Q 63 -151 59.5 -181 Q 56 -211 56 -241 Q 56 -294 62 -347 Q 68 -400 80.5 -452 Q 93 -504 117 -552.5 Q 141 -601 177.5 -640 Q 214 -679 261.5 -705.5 Q 309 -732 361 -743 L 378 -675 Q 332 -664 291.5 -638 Q 251 -612 222 -575.5 Q 193 -539 175 -494.5 Q 157 -450 149 -404 Q 158 -415 170.5 -424 Q 183 -433 196.5 -438 Q 210 -443 225 -445 Q 240 -447 254 -447 Q 282 -447 309.5 -440 Q 337 -433 360 -417 Q 383 -401 400 -378.5 Q 417 -356 427 -329.5 Q 437 -303 440.5 -275.5 Q 444 -248 444 -220 Q 444 -191 440 -163 Q 436 -135 426 -108.5 Q 416 -82 398.5 -59 Q 381 -36 357.5 -20.5 Q 334 -5 306 1.5 Q 278 8 250 8 Z M 250 -62 Q 268 -62 286 -67.5 Q 304 -73 318.5 -85 Q 333 -97 342.5 -113 Q 352 -129 357 -146.5 Q 362 -164 364 -182.5 Q 366 -201 366 -220 Q 366 -238 364 -256.5 Q 362 -275 357 -292.5 Q 352 -310 342.5 -326 Q 333 -342 319 -354 Q 305 -366 287 -371.5 Q 269 -377 251 -377 Q 232 -377 214 -371.5 Q 196 -366 182 -354.5 Q 168 -343 158.5 -326.5 Q 149 -310 143.5 -292.5 Q 138 -275 136 -256.5 Q 134 -238 134 -220 L 134 -213 Q 135 -196 138 -178 Q 141 -160 147 -143.5 Q 153 -127 162 -111.5 Q 171 -96 184.5 -84.5 Q 198 -73 215 -67.5 Q 232 -62 250 -62 Z " id="path1"/>
</defs>
<g>
<g data-source-text="6" fill="#dee4e3" transform="translate(40 104.99201) rotate(0) scale(0.09599999)">
<use href="#path1" transform="translate(0 0)"/>
</g>
</g>
</svg>