<?xml version="1.0" encoding="UTF-8" standalone="no"?>
<svg height="160" viewBox="0 0 128 160" width="128" xmlns="http://www.w3.org/2000/svg">
<defs>
<path d="M 249 8 Q 227 8 205.5 5.5 Q 184 3 163 -3.5 Q 142 -10 123.5 -21.5 Q 105 -33 91 -49.5 Q 77 -66 69.5 -87 Q 62 -108 62 -130 L 62 -135 L 140 -135 L 140 -132 Q 140 -114 151 -99 Q 162 -84 178.5 -75.5 Q 195 -67 213 -64.5 Q 231 -62 249 -62 Q 267 -62 285.5 -65 Q 304 -68 320 -76 Q 336 -84 347.5 -99.5 Q 359 -115 359 -133 Q 359 -151 349 -165.5 Q 339 -180 324.5 -190 Q 310 -200 294 -205.5 Q 278 -211 261.5 -216 Q 245 -221 228.5 -226.5 Q 212 -232 196 -238.5 Q 180 -245 165 -253.5 Q 150 -262 136 -272 Q 122 -282 110 -295 Q 98 -308 89.5 -323 Q 81 -338 76.5 -354.5 Q 72 -371 72 -388 Q 72 -408 77.5 -427.5 Q 83 -447 93.5 -464 Q 104 -481 119.5 -494 Q 135 -507 153.5 -514.5 Q 172 -522 192 -525 Q 212 -528 231 -528 Q 251 -528 270 -525.5 Q 289 -523 306.5 -516 Q 324 -509 340 -497.5 Q 356 -486 367 -471 L 367 -520 L 436 -520 L 436 -340 L 367 -340 L 367 -385 Q 367 -397 362.5 -409 Q 358 -421 349.5 -429.5 Q 341 -438 330 -443.5 Q 319 -449 307 -452.5 Q 295 -456 282.5 -457 Q 270 -458 258 -458 Q 240 -458 222 -455 Q 204 -452 188 -444 Q 172 -436 160.5 -420.5 Q 149 -405 149 -387 Q 149 -370 159 -355 Q 169 -340 183 -330.5 Q 197 -321 213.5 -315 Q 230 -309 246.5 -304 Q 263 -299 279 -293.5 Q 295 -288 311 -281.5 Q 327 -275 342.5 -267 Q 358 -259 371.5 -248.5 Q 385 -238 397 -225.5 Q 409 -213 418 -198.5 Q 427 -184 431.5 -167 Q 436 -150 436 -133 Q 436 -111 428.5 -90 Q 421 -69 407.5 -52 Q 394 -35 375 -23 Q 356 -11 335.5 -4 Q 315 3 293 5.5 Q 271 8 249 8 Z " id="path1"/>
</defs>
<g>
<g data-source-text="s" fill="#dee4e3" transform="translate(40 104.99201) rotate(0) scale(0.09599999)">
<use href="#path1" transform="translate(0 0)"/>
</g>
</g>
</svg>