<?xml version="1.0" encoding="UTF-8" standalone="no"?>
<svg height="160" viewBox="0 0 128 160" width="128" xmlns="http://www.w3.org/2000/svg">
<defs>
<path d="M 250 8 Q 201 8 153.5 -6 Q 106 -20 64 -46 L 64 -180 L 141 -180 L 141 -85 Q 167 -74 194.5 -68 Q 222 -62 250 -62 Q 268 -62 286.5 -65 Q 305 -68 321 -76.5 Q 337 -85 347.5 -100.5 Q 358 -116 358 -135 Q 358 -152 349 -167.5 Q 340 -183 326 -193 Q 312 -203 295.5 -208.5 Q 279 -214 262 -218 Q 245 -222 228.5 -226 Q 212 -230 195.5 -236 Q 179 -242 163.5 -250 Q 148 -258 134 -268 Q 120 -278 108.5 -291.5 Q 97 -305 89 -320 Q 81 -335 76.5 -352 Q 72 -369 72 -386 Q 72 -408 78.5 -428.5 Q 85 -449 97.5 -466.5 Q 110 -484 128 -496 Q 146 -508 166 -515.5 Q 186 -523 207.5 -525.5 Q 229 -528 250 -528 Q 299 -528 346.5 -514 Q 394 -500 436 -474 L 436 -340 L 359 -340 L 359 -435 Q 333 -446 305.5 -452 Q 278 -458 250 -458 Q 233 -458 215.5 -455 Q 198 -452 183 -443 Q 168 -434 158.5 -418.5 Q 149 -403 149 -386 Q 149 -369 158 -353.5 Q 167 -338 181 -327.5 Q 195 -317 211.5 -311.5 Q 228 -306 245 -302 Q 262 -298 279 -294 Q 296 -290 312.5 -284.5 Q 329 -279 344.5 -271 Q 360 -263 373.5 -252.5 Q 387 -242 399 -229 Q 411 -216 419 -200.5 Q 427 -185 431.5 -168 Q 436 -151 436 -134 Q 436 -112 429 -91 Q 422 -70 408.5 -52.5 Q 395 -35 376 -23 Q 357 -11 336.5 -4 Q 316 3 294 5.5 Q 272 8 250 8 Z " id="path1"/>
</defs>
<g>
<g data-source-text="s" fill="#dee4e3" transform="translate(40 104.99201) rotate(0) scale(0.09599999)">
<use href="#path1" transform="translate(0 0)"/>
</g>
</g>
</svg>