<svg xmlns="http://www.w3.org/2000/svg" height="160" viewBox="0 0 128 160" width="128"><defs><path d="M 174.00002 0 C 174.00002 -38.666664 177.66667 -77 185.00002 -115 C 192.33334 -153.00002 201.83333 -190.16667 213.50002 -226.5 C 225.16667 -262.8333 238.33336 -298.83334 253.00002 -334.5 C 267.66666 -370.16666 281.83334 -406 295.5 -442 C 309.1667 -478.00003 321.33334 -514.6667 332 -552 C 342.6667 -589.3334 350 -627.00006 354.00003 -665 L 141 -665 L 141 -590 L 64 -590 L 64 -735 L 436 -735 C 435.99997 -706.99994 434.16666 -679.1666 430.5 -651.5 C 426.8333 -623.8333 421.66663 -596.5 415 -569.5 C 408.33334 -542.50006 400.33334 -516 391 -490.00003 C 381.6667 -464 372 -438.00003 362 -412.00003 L 326 -323 C 316 -297 306.33334 -271 297.00003 -245.00002 C 287.6667 -219.00002 279.66666 -192.5 273 -165.50002 C 266.33334 -138.5 261.16666 -111.16666 257.5 -83.5 C 253.83333 -55.833332 251.99998 -28 252 0 Z " id="path1"/></defs><g><g fill="#ffffff" transform="translate(40 105.20961) rotate(0)"><use href="#path1" transform="translate(0 0) scale(0.09599999)"/></g></g></svg>