<?xml version="1.0" encoding="UTF-8" standalone="no"?>
<svg height="160" viewBox="0 0 128 160" width="128" xmlns="http://www.w3.org/2000/svg">
<defs>
<path d="M 249 8 Q 227 8 205.5 5.5 Q 184 3 163 -3.5 Q 142 -10 123.5 -21.5 Q 105 -33 91 -49.5 Q 77 -66 69.5 -87 Q 62 -108 62 -130 L 62 -135 L 140 -135 L 140 -132 Q 140 -114 151 -99 Q 162 -84 178.5 -75.5 Q 195 -67 213 -64.5 Q 231 -62 249 -62 Q 267 -62 285.5 -65 Q 304 -68 320 -76 Q 336 -84 347.5 -99.5 Q 359 -115 359 -133 Q 359 -151 349 -165.5 Q 339 -180 324.5 -189.5 Q 310 -199 294 -205 Q 278 -211 261.5 -216 Q 245 -221 228.5 -226.5 Q 212 -232 196 -238.5 Q 180 -245 165 -253 Q 150 -261 136 -271.5 Q 122 -282 110.5 -294.5 Q 99 -307 90 -321.5 Q 81 -336 76.5 -353 Q 72 -370 72 -387 Q 72 -408 78.5 -429 Q 85 -450 98 -467 Q 111 -484 129 -496 Q 147 -508 167 -515.5 Q 187 -523 208.5 -525.5 Q 230 -528 251 -528 Q 272 -528 293 -525.5 Q 314 -523 334 -516 Q 354 -509 372 -497.5 Q 390 -486 403 -469.5 Q 416 -453 423 -432.5 Q 430 -412 430 -391 L 430 -385 L 352 -385 L 352 -388 Q 352 -405 342.5 -420 Q 333 -435 318 -443.5 Q 303 -452 285.5 -455 Q 268 -458 251 -458 Q 234 -458 216.5 -455 Q 199 -452 184 -443.5 Q 169 -435 159 -419.5 Q 149 -404 149 -387 Q 149 -370 159 -355 Q 169 -340 183 -330.5 Q 197 -321 213.5 -315 Q 230 -309 246.5 -304 Q 263 -299 279 -293.5 Q 295 -288 311 -281.5 Q 327 -275 342.5 -267 Q 358 -259 371.5 -248.5 Q 385 -238 397 -225.5 Q 409 -213 418 -198.5 Q 427 -184 431.5 -167 Q 436 -150 436 -133 Q 436 -111 428.5 -90 Q 421 -69 407.5 -52 Q 394 -35 375 -23 Q 356 -11 335.5 -4 Q 315 3 293 5.5 Q 271 8 249 8 Z " id="path1"/>
</defs>
<g>
<g data-source-text="s" fill="#dee4e3" transform="translate(40 104.99201) rotate(0) scale(0.09599999)">
<use href="#path1" transform="translate(0 0)"/>
</g>
</g>
</svg>