<?xml version="1.0" encoding="UTF-8" standalone="no"?>
<svg height="160" viewBox="0 0 128 160" width="128" xmlns="http://www.w3.org/2000/svg">
<defs>
<path d="M 249 8 Q 227 8 205.5 5.5 Q 184 3 163 -3.5 Q 142 -10 123.5 -21.5 Q 105 -33 91 -49.5 Q 77 -66 69.5 -87 Q 62 -108 62 -130 L 62 -135 L 140 -135 L 140 -132 Q 140 -114 151 -99 Q 162 -84 178.5 -75.5 Q 195 -67 213 -64.5 Q 231 -62 249 -62 Q 267 -62 285.5 -65 Q 304 -68 320.5 -76.5 Q 337 -85 347.5 -100.5 Q 358 -116 358 -134 Q 358 -152 349 -167.5 Q 340 -183 326 -193 Q 312 -203 295.5 -208.5 Q 279 -214 262 -218 Q 245 -222 228 -226 Q 211 -230 194.5 -236 Q 178 -242 162.5 -250 Q 147 -258 133.5 -268.5 Q 120 -279 108 -292 Q 96 -305 88 -320.5 Q 80 -336 76 -353 Q 72 -370 72 -388 Q 72 -416 82.5 -444 Q 93 -472 114.5 -491.5 Q 136 -511 164 -519.5 Q 192 -528 221 -528 Q 240 -528 259.5 -524.5 Q 279 -521 297.5 -513 Q 316 -505 331.5 -493 Q 347 -481 359 -465 L 359 -520 L 436 -520 L 436 -340 L 359 -340 L 359 -385 Q 359 -397 353 -408.5 Q 347 -420 338 -428 Q 329 -436 318 -442 Q 307 -448 295.5 -451.5 Q 284 -455 272 -456.5 Q 260 -458 247 -458 Q 230 -458 213.5 -454.5 Q 197 -451 182.5 -442.5 Q 168 -434 158.5 -418.5 Q 149 -403 149 -386 Q 149 -369 158 -353.5 Q 167 -338 181 -327.5 Q 195 -317 211.5 -311.5 Q 228 -306 245 -302 Q 262 -298 279 -294 Q 296 -290 312.5 -284.5 Q 329 -279 344.5 -271 Q 360 -263 373.5 -252.5 Q 387 -242 399 -229 Q 411 -216 419 -200.5 Q 427 -185 431.5 -168.5 Q 436 -152 436 -134 Q 436 -112 429 -91 Q 422 -70 408 -52.5 Q 394 -35 375.5 -23 Q 357 -11 336 -4 Q 315 3 293 5.5 Q 271 8 249 8 Z " id="path1"/>
</defs>
<g>
<g data-source-text="s" fill="#20242e" transform="translate(40 104.99201) rotate(0) scale(0.09599999)">
<use href="#path1" transform="translate(0 0)"/>
</g>
</g>
</svg>