<?xml version="1.0" encoding="UTF-8" standalone="no"?>
<svg height="160" viewBox="0 0 128 160" width="128" xmlns="http://www.w3.org/2000/svg">
<defs>
<path d="M 245 8 Q 197 8 150 -7 Q 103 -22 64 -49 L 64 -180 L 141 -180 L 141 -87 Q 165 -75 191.5 -68.5 Q 218 -62 245 -62 Q 264 -62 283 -65 Q 302 -68 318.5 -76 Q 335 -84 346.5 -100 Q 358 -116 358 -135 Q 358 -152 349 -167.5 Q 340 -183 326 -193 Q 312 -203 295.5 -208.5 Q 279 -214 262 -218 Q 245 -222 228.5 -226 Q 212 -230 195.5 -236 Q 179 -242 163.5 -250 Q 148 -258 134.5 -268 Q 121 -278 109 -291 Q 97 -304 89 -319.5 Q 81 -335 76.5 -352 Q 72 -369 72 -386 Q 72 -408 79 -429 Q 86 -450 100 -467.5 Q 114 -485 132.5 -497 Q 151 -509 172 -516 Q 193 -523 215 -525.5 Q 237 -528 259 -528 Q 306 -528 352 -513 Q 398 -498 436 -471 L 436 -340 L 359 -340 L 359 -434 Q 336 -446 310.5 -452 Q 285 -458 259 -458 Q 241 -458 222.5 -455 Q 204 -452 187.5 -443.5 Q 171 -435 160.5 -419.5 Q 150 -404 150 -385 Q 150 -368 159 -352.5 Q 168 -337 182 -327 Q 196 -317 212.5 -311.5 Q 229 -306 246 -302 Q 263 -298 279.5 -294 Q 296 -290 312.5 -284 Q 329 -278 344.5 -270.5 Q 360 -263 373.5 -252.5 Q 387 -242 398.5 -229 Q 410 -216 418.5 -200.5 Q 427 -185 431.5 -168.5 Q 436 -152 436 -134 Q 436 -112 428.5 -90.5 Q 421 -69 407 -52 Q 393 -35 373.5 -23 Q 354 -11 333 -4 Q 312 3 289.5 5.5 Q 267 8 245 8 Z " id="path1"/>
</defs>
<g>
<g data-source-text="s" fill="#dee4e3" transform="translate(40 104.99201) rotate(0) scale(0.09599999)">
<use href="#path1" transform="translate(0 0)"/>
</g>
</g>
</svg>