<?xml version="1.0" encoding="UTF-8" standalone="no"?>
<svg height="160" viewBox="0 0 128 160" width="128" xmlns="http://www.w3.org/2000/svg">
<defs>
<path d="M 257 8 Q 206 8 157 -6.5 Q 108 -21 64 -46 L 64 -188 L 141 -188 L 141 -88 Q 168 -76 197 -69 Q 226 -62 256 -62 Q 273 -62 290.5 -65.5 Q 308 -69 323.5 -77.5 Q 339 -86 349 -101.5 Q 359 -117 359 -134 Q 359 -152 349.5 -167.5 Q 340 -183 326 -193 Q 312 -203 295.5 -208.5 Q 279 -214 262 -218 Q 245 -222 228.5 -226 Q 212 -230 195.5 -236 Q 179 -242 163.5 -250 Q 148 -258 134 -268.5 Q 120 -279 108.5 -292 Q 97 -305 89 -320 Q 81 -335 76.5 -352 Q 72 -369 72 -386 Q 72 -407 78 -427.5 Q 84 -448 96.5 -465 Q 109 -482 126 -494.5 Q 143 -507 162.5 -514.5 Q 182 -522 202.5 -525 Q 223 -528 244 -528 Q 294 -528 343 -513.5 Q 392 -499 436 -474 L 436 -340 L 359 -340 L 359 -432 Q 332 -443 303.5 -450.5 Q 275 -458 245 -458 Q 228 -458 211.5 -454.5 Q 195 -451 181 -442 Q 167 -433 158 -418 Q 149 -403 149 -386 Q 149 -365 162 -347.5 Q 175 -330 193 -320 Q 211 -310 231.5 -305.5 Q 252 -301 272.5 -296 Q 293 -291 312.5 -284.5 Q 332 -278 350 -267.5 Q 368 -257 384 -243.5 Q 400 -230 411.5 -212.5 Q 423 -195 429.5 -175 Q 436 -155 436 -134 Q 436 -113 429.5 -92 Q 423 -71 410 -54 Q 397 -37 379 -25 Q 361 -13 341 -5.5 Q 321 2 299.5 5 Q 278 8 257 8 Z " id="path1"/>
</defs>
<g>
<g data-source-text="s" fill="#dee4e3" transform="translate(40 104.99201) rotate(0) scale(0.09599999)">
<use href="#path1" transform="translate(0 0)"/>
</g>
</g>
</svg>