<?xml version="1.0" encoding="UTF-8" standalone="no"?>
<svg height="160" viewBox="0 0 128 160" width="128" xmlns="http://www.w3.org/2000/svg">
<defs>
<path d="M 250 8 Q 223 8 196.5 2.5 Q 170 -3 146.5 -16 Q 123 -29 104.5 -49.5 Q 86 -70 75 -94.5 Q 64 -119 60 -146 Q 56 -173 56 -200 L 56 -535 Q 56 -562 60 -589 Q 64 -616 75.5 -640.5 Q 87 -665 105 -685.5 Q 123 -706 146.5 -719.5 Q 170 -733 197 -738 Q 224 -743 251 -743 Q 276 -743 301 -739 Q 326 -735 349 -724 Q 372 -713 390.5 -696 Q 409 -679 421.5 -657 Q 434 -635 440 -610 Q 446 -585 446 -560 L 446 -555 L 368 -555 L 368 -558 Q 368 -581 360 -603.5 Q 352 -626 336 -642.5 Q 320 -659 297 -666 Q 274 -673 251 -673 Q 234 -673 217 -669 Q 200 -665 185.5 -655.5 Q 171 -646 161 -632 Q 151 -618 144.5 -602 Q 138 -586 136 -569 Q 134 -552 134 -535 L 134 -346 Q 142 -368 156 -388 Q 170 -408 189.5 -421.5 Q 209 -435 233 -441 Q 257 -447 280 -447 Q 305 -447 329.5 -440.5 Q 354 -434 374 -419 Q 394 -404 408 -382.5 Q 422 -361 430 -337.5 Q 438 -314 441 -289 Q 444 -264 444 -239 L 444 -200 Q 444 -173 440 -146 Q 436 -119 425 -94.5 Q 414 -70 395.5 -49.5 Q 377 -29 353.5 -16 Q 330 -3 303.5 2.5 Q 277 8 250 8 Z M 250 -62 Q 267 -62 284 -66 Q 301 -70 315 -79.5 Q 329 -89 339.5 -103 Q 350 -117 356 -133 Q 362 -149 364 -166 Q 366 -183 366 -200 L 366 -239 Q 366 -256 364 -273 Q 362 -290 356 -306 Q 350 -322 339.5 -336 Q 329 -350 315 -359.5 Q 301 -369 284 -373 Q 267 -377 250 -377 Q 233 -377 216 -373 Q 199 -369 185 -359.5 Q 171 -350 160.5 -336 Q 150 -322 144 -306 Q 138 -290 136 -273 Q 134 -256 134 -239 L 134 -200 Q 134 -183 136 -166 Q 138 -149 144 -133 Q 150 -117 160.5 -103 Q 171 -89 185 -79.5 Q 199 -70 216 -66 Q 233 -62 250 -62 Z " id="path1"/>
</defs>
<g>
<g data-source-text="6" fill="#20242e" transform="translate(40 104.99201) rotate(0) scale(0.09599999)">
<use href="#path1" transform="translate(0 0)"/>
</g>
</g>
</svg>