<svg xmlns="http://www.w3.org/2000/svg" height="160" viewBox="0 0 128 160" width="128"><defs><path d="M 249 8 Q 226 8 204 5.5 Q 182 3 161 -4.5 Q 140 -12 121.5 -25 Q 103 -38 89.5 -55.5 Q 76 -73 69 -94.5 Q 62 -116 62 -138 Q 62 -139 62 -139 Q 62 -139 62 -140 L 140 -140 Q 140 -140 140 -139.5 Q 140 -139 140 -139 Q 140 -120 150 -103.5 Q 160 -87 176.5 -78 Q 193 -69 211.5 -65.5 Q 230 -62 249 -62 Q 267 -62 286 -65 Q 305 -68 321 -77.5 Q 337 -87 348 -103.5 Q 359 -120 359 -139 Q 359 -156 349 -171 Q 339 -186 324.5 -194.5 Q 310 -203 293.5 -207.5 Q 277 -212 260.5 -216.5 Q 244 -221 227.5 -226 Q 211 -231 195 -237 Q 179 -243 163.5 -250.5 Q 148 -258 134.5 -268 Q 121 -278 109 -290.5 Q 97 -303 88.5 -317.5 Q 80 -332 76 -349 Q 72 -366 72 -383 Q 72 -413 83 -441.5 Q 94 -470 116 -490.5 Q 138 -511 167.5 -519.5 Q 197 -528 227 -528 Q 245 -528 263.5 -525.5 Q 282 -523 299.5 -516.5 Q 317 -510 332.5 -499.5 Q 348 -489 359 -474 L 359 -520 L 436 -520 L 436 -339 L 359 -339 L 359 -384 Q 359 -396 355 -408 Q 351 -420 342.5 -428.5 Q 334 -437 323 -443 Q 312 -449 300 -452 Q 288 -455 276 -456.5 Q 264 -458 251 -458 Q 234 -458 216 -454.5 Q 198 -451 183 -441.5 Q 168 -432 158.5 -416 Q 149 -400 149 -382 Q 149 -367 156.5 -353.5 Q 164 -340 176 -331 Q 188 -322 202 -317 Q 216 -312 230 -308 L 231 -308 Q 254 -302 277 -295 Q 300 -288 322.5 -279 Q 345 -270 365.5 -257.5 Q 386 -245 402 -227 Q 418 -209 427 -186 Q 436 -163 436 -139 Q 436 -117 429 -95.5 Q 422 -74 408.5 -56 Q 395 -38 376.5 -25.5 Q 358 -13 337 -5.5 Q 316 2 293.5 5 Q 271 8 249 8 Z " id="path1"/></defs><g><g fill="#dee4e3" transform="translate(40 105.20961) rotate(0)"><use href="#path1" transform="translate(0 0) scale(0.09599999)"/></g></g></svg>