<?xml version="1.0" encoding="UTF-8" standalone="no"?>
<svg height="160" viewBox="0 0 128 160" width="128" xmlns="http://www.w3.org/2000/svg">
<defs>
<path d="M 273 8 Q 253 8 233.5 5.5 Q 214 3 195.5 -4 Q 177 -11 161 -22.5 Q 145 -34 133 -50 L 133 0 L 64 0 L 64 -180 L 133 -180 L 133 -135 Q 133 -122 138 -110.5 Q 143 -99 152 -90 Q 161 -81 172.5 -75.5 Q 184 -70 196 -67 Q 208 -64 220.5 -63 Q 233 -62 246 -62 Q 264 -62 283 -64.5 Q 302 -67 318.5 -75.5 Q 335 -84 347 -99.5 Q 359 -115 359 -133 Q 359 -151 349 -165.5 Q 339 -180 324.5 -190 Q 310 -200 294 -205.5 Q 278 -211 261.5 -216 Q 245 -221 228.5 -226.5 Q 212 -232 196 -238.5 Q 180 -245 165 -253.5 Q 150 -262 136 -272 Q 122 -282 110 -295 Q 98 -308 89.5 -323 Q 81 -338 76.5 -354.5 Q 72 -371 72 -388 Q 72 -408 77.5 -427.5 Q 83 -447 93.5 -464 Q 104 -481 119.5 -494 Q 135 -507 153.5 -514.5 Q 172 -522 192 -525 Q 212 -528 231 -528 Q 251 -528 270 -525.5 Q 289 -523 306.5 -516 Q 324 -509 340 -497.5 Q 356 -486 367 -471 L 367 -520 L 436 -520 L 436 -340 L 367 -340 L 367 -385 Q 367 -397 362.5 -409 Q 358 -421 349.5 -429.5 Q 341 -438 330 -443.5 Q 319 -449 307 -452.5 Q 295 -456 282.5 -457 Q 270 -458 258 -458 Q 240 -458 222 -455 Q 204 -452 188 -444 Q 172 -436 160.5 -420.5 Q 149 -405 149 -387 Q 149 -370 159 -355 Q 169 -340 183.5 -330.5 Q 198 -321 214 -315 Q 230 -309 246.5 -304 Q 263 -299 279.5 -293.5 Q 296 -288 312 -281.5 Q 328 -275 343 -266.5 Q 358 -258 372 -248 Q 386 -238 398 -225.5 Q 410 -213 418.5 -198 Q 427 -183 431.5 -166 Q 436 -149 436 -132 Q 436 -112 430.5 -92 Q 425 -72 414 -55 Q 403 -38 386.5 -25.5 Q 370 -13 351.5 -5.5 Q 333 2 313 5 Q 293 8 273 8 Z " id="path1"/>
</defs>
<g>
<g data-source-text="s" fill="#dee4e3" transform="translate(40 104.99201) rotate(0) scale(0.09599999)">
<use href="#path1" transform="translate(0 0)"/>
</g>
</g>
</svg>