<?xml version="1.0" encoding="UTF-8" standalone="no"?>
<svg height="160" viewBox="0 0 128 160" width="128" xmlns="http://www.w3.org/2000/svg">
<defs>
<path d="M 249 8 Q 227 8 205.5 5.5 Q 184 3 163 -3.5 Q 142 -10 123.5 -21.5 Q 105 -33 91 -49.5 Q 77 -66 69.5 -87 Q 62 -108 62 -130 L 62 -135 L 140 -135 L 140 -132 Q 140 -114 151 -99 Q 162 -84 178.5 -75.5 Q 195 -67 213 -64.5 Q 231 -62 249 -62 Q 267 -62 285.5 -65 Q 304 -68 320.5 -76.5 Q 337 -85 347.5 -100.5 Q 358 -116 358 -134 Q 358 -152 349 -167.5 Q 340 -183 326 -193 Q 312 -203 295.5 -208.5 Q 279 -214 262 -218 Q 245 -222 228 -226 Q 211 -230 195 -236 Q 179 -242 163.5 -249.5 Q 148 -257 134 -267.5 Q 120 -278 108.5 -291 Q 97 -304 89 -319.5 Q 81 -335 76.5 -352 Q 72 -369 72 -386 Q 72 -408 78.5 -428.5 Q 85 -449 98 -466.5 Q 111 -484 128.5 -496 Q 146 -508 166.5 -515.5 Q 187 -523 208.5 -525.5 Q 230 -528 251 -528 Q 272 -528 293 -525.5 Q 314 -523 334 -516 Q 354 -509 372 -497.5 Q 390 -486 403 -469.5 Q 416 -453 423 -432.5 Q 430 -412 430 -391 L 430 -385 L 352 -385 L 352 -388 Q 352 -405 342.5 -420 Q 333 -435 318 -443.5 Q 303 -452 285.5 -455 Q 268 -458 251 -458 Q 234 -458 216.5 -455 Q 199 -452 184 -443 Q 169 -434 159 -418.5 Q 149 -403 149 -386 Q 149 -369 158 -353.5 Q 167 -338 181 -327.5 Q 195 -317 211.5 -311.5 Q 228 -306 245 -302 Q 262 -298 279 -294 Q 296 -290 312.5 -284.5 Q 329 -279 344.5 -271 Q 360 -263 373.5 -252.5 Q 387 -242 399 -229 Q 411 -216 419 -200.5 Q 427 -185 431.5 -168.5 Q 436 -152 436 -134 Q 436 -112 429 -91 Q 422 -70 408 -52.5 Q 394 -35 375.5 -23 Q 357 -11 336 -4 Q 315 3 293 5.5 Q 271 8 249 8 Z " id="path1"/>
</defs>
<g>
<g data-source-text="s" fill="#dee4e3" transform="translate(40 104.99201) rotate(0) scale(0.09599999)">
<use href="#path1" transform="translate(0 0)"/>
</g>
</g>
</svg>