<svg xmlns="http://www.w3.org/2000/svg" height="160" viewBox="0 0 128 160" width="128"><defs><path d="M 250 8 C 230 8 210.33336 5.333333 191.00002 0 C 171.66667 -5.333333 154.16666 -14 138.50002 -26.000002 C 122.833336 -38 109.50001 -52.5 98.50001 -69.5 C 87.5 -86.49999 78.833336 -104.333336 72.5 -123.00001 C 66.166664 -141.66667 61.833332 -161 59.5 -181 C 57.166668 -201 55.999996 -221 56 -241 C 55.999996 -276.33334 58 -311.83334 62.000004 -347.50003 C 66 -383.1667 72.16667 -418.16666 80.50001 -452.5 C 88.833336 -486.8333 101.00001 -520.1666 117.00001 -552.5 C 133 -584.8333 153.16667 -614 177.50002 -640.00006 C 201.83333 -666 229.83333 -687.8333 261.5 -705.5 C 293.16666 -723.1666 326.33334 -735.6667 361.00003 -743.00006 L 378.00003 -675.00006 C 347.33337 -667.6667 318.5 -655.3333 291.50003 -638.00006 C 264.5 -620.6666 241.33333 -599.8333 222.00002 -575.5 C 202.66667 -551.1667 187 -524.1667 175 -494.50003 C 163 -464.83334 154.33334 -434.6667 149 -404.00003 C 155 -411.33334 162.16667 -418 170.5 -424 C 178.83333 -430 187.5 -434.66666 196.50002 -438.00003 C 205.5 -441.3333 215 -443.66666 225.00002 -445.00003 C 235 -446.33334 244.66666 -447 254.00002 -447 C 272.66666 -447 291.1667 -444.6667 309.5 -440.00003 C 327.83334 -435.33334 344.66666 -427.6667 360.00003 -417.00003 C 375.3333 -406.33334 388.6667 -393.50003 400.00003 -378.5 C 411.33334 -363.49997 420.33334 -347.16666 427.00003 -329.5 C 433.6667 -311.83334 438.16666 -293.8333 440.50003 -275.5 C 442.83334 -257.16666 444.00003 -238.66669 444.00003 -220.00002 C 444.00003 -200.66667 442.66666 -181.66667 440.00003 -163 C 437.3333 -144.33333 432.66663 -126.166664 426 -108.50001 C 419.3333 -90.83333 410.1667 -74.333336 398.50003 -59.000004 C 386.83337 -43.666668 373.16666 -30.833334 357.5 -20.500002 C 341.8333 -10.166667 324.66666 -2.8333333 306 1.5 C 287.3333 5.833333 268.66666 8 250 8 Z M 250 -62.000004 C 262 -62.000004 274 -63.83334 286 -67.5 C 298 -71.166664 308.83334 -76.99999 318.5 -85 C 328.16666 -93 336.16666 -102.33333 342.50003 -113.00001 C 348.83334 -123.666664 353.66663 -134.83334 357 -146.5 C 360.33328 -158.16667 362.66666 -170.16666 364 -182.50002 C 365.33334 -194.83333 366.00003 -207.33333 366.00003 -220.00002 C 366.00003 -232 365.33334 -244.16666 364 -256.5 C 362.66666 -268.8333 360.33328 -280.83334 357 -292.5 C 353.66663 -304.16666 348.83334 -315.33334 342.50003 -326 C 336.16666 -336.6667 328.33334 -346 319.00003 -354.00003 C 309.66666 -362 299 -367.83334 287 -371.50003 C 274.99997 -375.16666 262.99997 -377.00003 251.00002 -377.00003 C 238.33333 -377.00003 226 -375.16666 214.00002 -371.50003 C 202.00002 -367.83334 191.33334 -362.1667 182 -354.50003 C 172.66667 -346.83337 164.83334 -337.50003 158.50002 -326.5 C 152.16667 -315.5 147.16666 -304.16666 143.5 -292.5 C 139.83333 -280.83334 137.33334 -268.8333 136 -256.5 C 134.66667 -244.16666 134 -232 134 -220.00002 C 134 -218.66666 134 -217.5 134 -216.50002 C 134 -215.5 134 -214.33333 134 -213 C 134.66667 -200.99998 136 -189.16667 138 -177.50002 C 140 -165.83334 143 -154.5 147.00002 -143.5 C 151 -132.5 156 -121.83333 162 -111.50001 C 167.99998 -101.16667 175.5 -92.166664 184.5 -84.50001 C 193.50002 -76.83333 203.66666 -71.166664 215 -67.5 C 226.33333 -63.83334 238 -62.000004 250 -62.000004 Z " id="path1"/></defs><g><g fill="#000000" transform="translate(40 105.20961) rotate(0)"><use href="#path1" transform="translate(0 0) scale(0.09599999)"/></g></g></svg>