<?xml version="1.0" encoding="UTF-8" standalone="no"?>
<svg height="160" viewBox="0 0 128 160" width="128" xmlns="http://www.w3.org/2000/svg">
<defs>
<path d="M 174 0 Q 174 -58 185 -115 Q 196 -172 213.5 -226.5 Q 231 -281 253 -334.5 Q 275 -388 295.5 -442 Q 316 -496 332 -552 Q 348 -608 354 -665 L 141 -665 L 141 -590 L 64 -590 L 64 -735 L 436 -735 Q 436 -687 428.5 -640 Q 421 -593 408.5 -547 Q 396 -501 379 -456.5 Q 362 -412 344 -367.5 Q 326 -323 309 -278.5 Q 292 -234 279.5 -188 Q 267 -142 259.5 -95 Q 252 -48 252 0 Z " id="path1"/>
</defs>
<g>
<g data-source-text="7" fill="#dee4e3" transform="translate(40 104.99201) rotate(0) scale(0.09599999)">
<use href="#path1" transform="translate(0 0)"/>
</g>
</g>
</svg>