<svg xmlns="http://www.w3.org/2000/svg" height="160" viewBox="0 0 128 160" width="128"><defs><path d="M 174.00002 0 C 174.00002 -58 177.83334 -115.833336 185.50002 -173.5 C 193.16667 -231.16667 204.33336 -288.00003 219.00002 -344.00003 C 233.66667 -400.00003 251.83333 -454.83337 273.5 -508.50003 C 295.16666 -562.1666 319.99997 -614.3333 348.00003 -665 L 141 -665 L 141 -590 L 64 -590 L 64 -735 L 436 -735 L 436 -665 C 406 -615 379.5 -563.1667 356.5 -509.5 C 333.5 -455.83337 314.33334 -401 299 -345 C 283.6667 -289 272 -232 264 -174.00002 C 255.99998 -116 251.99998 -58 252 0 Z " id="path1"/></defs><g><g fill="#ffffff" transform="translate(40 105.20961) rotate(0)"><use href="#path1" transform="translate(0 0) scale(0.09599999)"/></g></g></svg>