<?xml version="1.0" encoding="UTF-8" standalone="no"?>
<svg xmlns="http://www.w3.org/2000/svg" height="160" viewBox="0 0 128 160" width="128"><defs><path d="M 275 8 Q 256 8 237.5 5.5 Q 219 3 201.5 -3.5 Q 184 -10 168.5 -20.5 Q 153 -31 141 -46 L 141 0 L 64 0 L 64 -181 L 141 -181 L 141 -136 Q 141 -124 145 -112 Q 149 -100 158 -91 Q 167 -82 178 -76.5 Q 189 -71 201 -67.5 Q 213 -64 225.5 -63 Q 238 -62 250 -62 Q 268 -62 286 -64.5 Q 304 -67 320 -75 Q 336 -83 347 -98.5 Q 358 -114 358 -132 Q 358 -149 349 -165 Q 340 -181 326 -191 Q 312 -201 295.5 -207 Q 279 -213 262 -217.5 Q 245 -222 228 -226.5 Q 211 -231 194.5 -237 Q 178 -243 162.5 -251.5 Q 147 -260 133.5 -270.5 Q 120 -281 108.5 -294.5 Q 97 -308 88.5 -323.5 Q 80 -339 76 -356 Q 72 -373 72 -390 Q 72 -419 83.5 -447 Q 95 -475 117 -494 Q 139 -513 168 -520.5 Q 197 -528 226 -528 Q 245 -528 263.5 -525.5 Q 282 -523 299.5 -516.5 Q 317 -510 332.5 -499.5 Q 348 -489 359 -474 L 359 -520 L 436 -520 L 436 -339 L 359 -339 L 359 -384 Q 359 -396 355 -408 Q 351 -420 342 -429 Q 333 -438 322 -443.5 Q 311 -449 299.5 -452.5 Q 288 -456 275.5 -457 Q 263 -458 251 -458 Q 233 -458 216 -455 Q 199 -452 184 -444 Q 169 -436 159.5 -421 Q 150 -406 150 -389 Q 150 -371 159 -355.5 Q 168 -340 182 -329.5 Q 196 -319 212.5 -313 Q 229 -307 246 -302.5 Q 263 -298 279.5 -293.5 Q 296 -289 312.5 -283 Q 329 -277 344.5 -269 Q 360 -261 374 -250 Q 388 -239 399.5 -226 Q 411 -213 419 -197.5 Q 427 -182 431.5 -165 Q 436 -148 436 -130 Q 436 -100 423.5 -72 Q 411 -44 387.5 -25.5 Q 364 -7 334.5 0.5 Q 305 8 275 8 Q 275 8 275 8 Q 275 8 275 8 Z " id="path1"/></defs><g><g data-source-text="s" fill="#dee4e3" transform="translate(40 104.99201) rotate(0) scale(0.09599999)"><use href="#path1" transform="translate(0 0)"/></g></g></svg>