<svg xmlns="http://www.w3.org/2000/svg" height="160" viewBox="0 0 128 160" width="128"><defs><path d="M 256 8 C 222.66667 8 189.66667 3.1666663 157.00002 -6.5000005 C 124.333336 -16.166668 93.333336 -29.333334 64 -46 L 64 -188.00002 L 141 -188.00002 L 141 -88 C 159 -80.66667 177.66667 -74.5 197.00002 -69.5 C 216.33334 -64.5 235.66669 -62.000004 255 -62.000004 C 267 -62.000004 279 -63.16667 291.00003 -65.5 C 303 -67.833336 314 -72.16667 324 -78.50001 C 333.99997 -84.83333 342.3333 -93.33333 349.00003 -104.00001 C 355.6667 -114.666664 359.00003 -126.00001 359.00003 -138 C 359.00003 -148 356.5 -157.5 351.5 -166.5 C 346.5 -175.5 340.1667 -183.00002 332.5 -189.00002 C 324.8333 -195 316.16666 -199.66667 306.5 -203.00002 C 296.8333 -206.33333 287.3333 -209.33333 278 -212 L 277.00003 -212 C 261.66666 -215.99998 246.33333 -220.33333 231.00002 -225.00002 C 215.66666 -229.66666 200.5 -234.99998 185.50002 -241 C 170.5 -246.99998 156.16667 -254.16667 142.5 -262.50003 C 128.83334 -270.83334 116.66667 -281.16666 106 -293.5 C 95.33333 -305.83334 86.99999 -319.5 81 -334.5 C 75 -349.5 72 -364.99997 72.00001 -381 C 72 -395.66666 74 -409.8333 78 -423.50003 C 82 -437.16666 88 -449.8333 96 -461.50003 C 103.99999 -473.1667 113.666664 -483.33337 125 -492.00003 C 136.33333 -500.66663 148.5 -507.66666 161.5 -513 C 174.5 -518.3333 187.99998 -522.1667 202.00002 -524.5 C 216 -526.8333 230 -528 244 -528 C 278 -528 311.1667 -523.1667 343.50003 -513.50006 C 375.83337 -503.8333 406.6667 -490.66666 436 -474.00003 L 436 -340 L 359.00003 -340 L 359.00003 -431 C 341 -438.99997 322.5 -445.5 303.5 -450.50003 C 284.5 -455.49997 265.33334 -457.99997 246.00002 -458 C 234.00002 -457.99997 222.33334 -456.66666 211.00002 -454 C 199.66667 -451.33334 189.33333 -446.83334 180.00002 -440.50003 C 170.66666 -434.1667 163.16667 -425.66666 157.5 -415 C 151.83333 -404.33337 149 -393.33337 149 -382.00003 C 149 -370.6667 152.16667 -360 158.50002 -350 C 164.83334 -340 172.83333 -332 182.50002 -326 C 192.16667 -320.00003 202.50002 -315.6667 213.50002 -313 C 224.5 -310.33334 235.5 -307.33334 246.5 -304 C 257.5 -300.6667 268.5 -297.33334 279.50003 -294.00003 C 290.5 -290.66666 301.3333 -287.16666 312 -283.5 C 322.66666 -279.8333 333 -275.5 343.00003 -270.5 C 353.00003 -265.5 362.6667 -259.66666 372.00003 -253.00002 C 381.33337 -246.33334 390 -239.00002 398 -231.00002 C 406 -223 412.83334 -214 418.5 -204 C 424.1667 -194.00002 428.50003 -183.5 431.5 -172.5 C 434.5 -161.5 435.99997 -150.33333 436 -139 C 435.99997 -124.333336 433.83334 -110 429.50003 -96 C 425.1667 -82 418.6667 -69.166664 410.00003 -57.5 C 401.33334 -45.833336 391.16666 -35.666668 379.5 -27 C 367.8333 -18.333334 355.16666 -11.499999 341.5 -6.5000005 C 327.83334 -1.5000001 313.8333 2.1666667 299.50003 4.5000005 C 285.16666 6.833333 270.66666 8 256 8 Z " id="path1"/></defs><g><g fill="#000000" transform="translate(40 105.20961) rotate(0)"><use href="#path1" transform="translate(0 0) scale(0.09599999)"/></g></g></svg>