<?xml version="1.0" encoding="UTF-8" standalone="no"?>
<svg xmlns="http://www.w3.org/2000/svg" height="160" viewBox="0 0 128 160" width="128"><defs><path d="M 249 8 Q 226 8 204 5.5 Q 182 3 161 -4.5 Q 140 -12 121.5 -25 Q 103 -38 89.5 -55.5 Q 76 -73 69 -94.5 Q 62 -116 62 -138 Q 62 -139 62 -139 Q 62 -139 62 -140 L 140 -140 Q 140 -140 140 -139.5 Q 140 -139 140 -139 Q 140 -120 150 -103.5 Q 160 -87 176.5 -78 Q 193 -69 211.5 -65.5 Q 230 -62 249 -62 Q 267 -62 286 -65 Q 305 -68 321 -77.5 Q 337 -87 348 -103.5 Q 359 -120 359 -139 Q 359 -153 351.5 -166.5 Q 344 -180 332.5 -189 Q 321 -198 307 -203 Q 293 -208 279 -211 L 278 -211 L 277 -212 Q 254 -218 231 -225 Q 208 -232 185.5 -241 Q 163 -250 142.5 -262.5 Q 122 -275 106 -293.5 Q 90 -312 81 -334.5 Q 72 -357 72 -382 Q 72 -403 78 -423.5 Q 84 -444 96 -461.5 Q 108 -479 125 -492 Q 142 -505 161.5 -513 Q 181 -521 202 -524.5 Q 223 -528 244 -528 Q 295 -528 343.5 -513.5 Q 392 -499 436 -474 L 436 -340 L 359 -340 L 359 -431 Q 332 -443 303.5 -450.5 Q 275 -458 246 -458 Q 228 -458 211 -454 Q 194 -450 180 -440.5 Q 166 -431 157.5 -415 Q 149 -399 149 -382 Q 149 -365 158.5 -350 Q 168 -335 182.5 -326 Q 197 -317 213.5 -313 Q 230 -309 246.5 -304 Q 263 -299 279.5 -294 Q 296 -289 311.5 -283.5 Q 327 -278 342.5 -270.5 Q 358 -263 372 -253.5 Q 386 -244 398 -231.5 Q 410 -219 418.5 -204.5 Q 427 -190 431.5 -173 Q 436 -156 436 -139 Q 436 -117 429 -95.5 Q 422 -74 408.5 -56 Q 395 -38 376.5 -25.5 Q 358 -13 337 -5.5 Q 316 2 293.5 5 Q 271 8 249 8 Z " id="path1"/></defs><g><g data-source-text="s" fill="#20242e" transform="translate(40 104.99201) rotate(0) scale(0.09599999)"><use href="#path1" transform="translate(0 0)"/></g></g></svg>