<?xml version="1.0" encoding="UTF-8" standalone="no"?>
<svg xmlns="http://www.w3.org/2000/svg" height="160" viewBox="0 0 128 160" width="128"><defs><path d="M 322 -583 Q 316 -583 309.5 -584 Q 303 -585 297.5 -587 Q 292 -589 286.5 -591.5 Q 281 -594 275.5 -597.5 Q 270 -601 265.5 -604.5 Q 261 -608 256.5 -612.5 Q 252 -617 248 -621.5 Q 244 -626 240 -631 Q 236 -636 232 -640.5 Q 228 -645 224.5 -650 Q 221 -655 217.5 -660.5 Q 214 -666 209.5 -671.5 Q 205 -677 201.5 -682 Q 198 -687 194.5 -691 Q 191 -695 185 -699.5 Q 179 -704 178 -706 Q 177 -705 173 -702 Q 169 -699 165.5 -696 Q 162 -693 159 -689 Q 156 -685 154 -683 Q 152 -681 150 -678 Q 148 -675 146 -672.5 Q 144 -670 142 -667 Q 140 -664 138 -660.5 Q 136 -657 133.5 -653 Q 131 -649 129 -645.5 Q 127 -642 124.5 -637.5 Q 122 -633 119.5 -628.5 Q 117 -624 114.5 -619 Q 112 -614 109.5 -609 Q 107 -604 104.5 -598.5 Q 102 -593 99 -587 L 29 -617 Q 39 -639 49 -657.5 Q 59 -676 68.5 -691.5 Q 78 -707 87.5 -719.5 Q 97 -732 110.5 -745.5 Q 124 -759 141.5 -767.5 Q 159 -776 178 -776 Q 184 -776 190.5 -775 Q 197 -774 202.5 -772 Q 208 -770 213.5 -767.5 Q 219 -765 224.5 -761.5 Q 230 -758 234.5 -754.5 Q 239 -751 243.5 -746.5 Q 248 -742 252 -737.5 Q 256 -733 260 -728 Q 264 -723 268 -718 Q 272 -713 275.5 -708.5 Q 279 -704 282.5 -698.5 Q 286 -693 290.5 -687.5 Q 295 -682 298.5 -677 Q 302 -672 305.5 -668 Q 309 -664 314.5 -659.5 Q 320 -655 322 -653 Q 323 -654 327 -656.5 Q 331 -659 334.5 -662.5 Q 338 -666 341 -670 Q 344 -674 346 -676 Q 348 -678 350 -680.5 Q 352 -683 354 -686 Q 356 -689 358 -692 Q 360 -695 362 -698.5 Q 364 -702 366.5 -705.5 Q 369 -709 371 -713 Q 373 -717 375.5 -721.5 Q 378 -726 380.5 -730.5 Q 383 -735 385.5 -740 Q 388 -745 390.5 -750 Q 393 -755 395.5 -760.5 Q 398 -766 401 -772 L 471 -742 Q 461 -720 451 -701 Q 441 -682 431.5 -667 Q 422 -652 412.5 -639 Q 403 -626 389.5 -613 Q 376 -600 358.5 -591.5 Q 341 -583 322 -583 Z " id="path1"/></defs><g><g data-source-text="~" fill="#dee4e3" transform="translate(40 104.99201) rotate(0) scale(0.09599999)"><use href="#path1" transform="translate(0 0)"/></g></g></svg>