<?xml version="1.0" encoding="UTF-8" standalone="no"?>
<svg height="160" viewBox="0 0 128 160" width="128" xmlns="http://www.w3.org/2000/svg">
<defs>
<path d="M 193 8 Q 176 8 159.5 3.5 Q 143 -1 130.5 -12.5 Q 118 -24 112.5 -40 Q 107 -56 107 -73 L 107 -735 L 185 -735 L 185 -520 L 420 -520 L 420 -450 L 185 -450 L 185 -73 Q 185 -68 186.5 -62.5 Q 188 -57 193 -57 Q 195 -57 196.5 -57.5 Q 198 -58 199 -59 L 399 -251 L 449 -204 L 249 -12 Q 238 -2 223 3 Q 208 8 193 8 Z " id="path1"/>
</defs>
<g>
<g data-source-text="t" fill="#20242e" transform="translate(40 104.99201) rotate(0) scale(0.09599999)">
<use href="#path1" transform="translate(0 0)"/>
</g>
</g>
</svg>