<?xml version="1.0" encoding="UTF-8" standalone="no"?>
<svg height="160" viewBox="0 0 128 160" width="128" xmlns="http://www.w3.org/2000/svg">
<defs>
<path d="M 323 -570 Q 315 -570 308 -571 Q 301 -572 295 -574.5 Q 289 -577 283 -580.5 Q 277 -584 271.5 -588.5 Q 266 -593 261.5 -597.5 Q 257 -602 252.5 -607.5 Q 248 -613 244 -619 Q 240 -625 236.5 -630.5 Q 233 -636 229.5 -642 Q 226 -648 222.5 -654 Q 219 -660 215.5 -666.5 Q 212 -673 208 -679.5 Q 204 -686 200 -692 Q 196 -698 192.5 -703 Q 189 -708 185 -713.5 Q 181 -719 177 -722 Q 174 -719 171.5 -716 Q 169 -713 165 -708 Q 161 -703 158.5 -699.5 Q 156 -696 154.5 -693 Q 153 -690 151 -686.5 Q 149 -683 147 -679.5 Q 145 -676 143 -672 Q 141 -668 139 -663.5 Q 137 -659 134.5 -654.5 Q 132 -650 130 -645 Q 128 -640 125.5 -634.5 Q 123 -629 120.5 -623.5 Q 118 -618 115.5 -612 Q 113 -606 110.5 -599.5 Q 108 -593 105.5 -586.5 Q 103 -580 100 -573 L 28 -597 Q 32 -609 36 -619.5 Q 40 -630 44.5 -640 Q 49 -650 53 -659.5 Q 57 -669 60.5 -677.5 Q 64 -686 68 -693.5 Q 72 -701 76 -708 Q 80 -715 83.5 -721.5 Q 87 -728 91 -734 Q 95 -740 101 -748 Q 107 -756 113.5 -762.5 Q 120 -769 126.5 -774.5 Q 133 -780 141.5 -784.5 Q 150 -789 159 -791.5 Q 168 -794 177 -794 Q 192 -794 205 -789 Q 218 -784 228.5 -775 Q 239 -766 247.5 -755.5 Q 256 -745 263.5 -733.5 Q 271 -722 277.5 -710 Q 284 -698 292 -684.5 Q 300 -671 307 -660.5 Q 314 -650 323 -642 Q 326 -645 328.5 -647.5 Q 331 -650 335 -655 Q 339 -660 341.5 -664 Q 344 -668 345.5 -671 Q 347 -674 349 -677.5 Q 351 -681 353 -684.5 Q 355 -688 357 -692 Q 359 -696 361 -700 Q 363 -704 365.5 -709 Q 368 -714 370 -719 Q 372 -724 374.5 -729 Q 377 -734 379.5 -739.5 Q 382 -745 384.5 -751 Q 387 -757 389.5 -763.5 Q 392 -770 394.5 -777 Q 397 -784 400 -791 L 472 -766 Q 468 -755 464 -744 Q 460 -733 455.5 -723 Q 451 -713 447 -704 Q 443 -695 439.5 -686.5 Q 436 -678 432 -670 Q 428 -662 424 -655 Q 420 -648 416.5 -642 Q 413 -636 409 -630 Q 405 -624 399 -616 Q 393 -608 386.5 -601 Q 380 -594 373.5 -588.5 Q 367 -583 358.5 -579 Q 350 -575 341 -572.5 Q 332 -570 323 -570 Z " id="path1"/>
</defs>
<g>
<g data-source-text="~" fill="#20242e" transform="translate(40 104.99201) rotate(0) scale(0.09599999)">
<use href="#path1" transform="translate(0 0)"/>
</g>
</g>
</svg>