<svg xmlns="http://www.w3.org/2000/svg" height="160" viewBox="0 0 128 160" width="128"><defs><path d="M 322 -199 Q 316 -199 309.5 -200 Q 303 -201 297.5 -202.5 Q 292 -204 286.5 -207 Q 281 -210 275.5 -213 Q 270 -216 266 -219.5 Q 262 -223 257 -227.5 Q 252 -232 248 -237 Q 244 -242 240 -246.5 Q 236 -251 232 -256 Q 228 -261 224.5 -265.5 Q 221 -270 217.5 -275.5 Q 214 -281 209.5 -286.5 Q 205 -292 201.5 -297 Q 198 -302 194.5 -306 Q 191 -310 185 -315 Q 179 -320 178 -321 Q 178 -320 173.5 -317.5 Q 169 -315 165.5 -311.5 Q 162 -308 159 -304 Q 156 -300 154 -298 Q 152 -296 150 -293.5 Q 148 -291 146 -288 Q 144 -285 142 -282 Q 140 -279 138 -275.5 Q 136 -272 133.5 -268.5 Q 131 -265 129 -261 Q 127 -257 124.5 -252.5 Q 122 -248 119.5 -243.5 Q 117 -239 114.5 -234.5 Q 112 -230 109.5 -224.5 Q 107 -219 104.5 -214 Q 102 -209 99 -203 L 29 -232 Q 39 -255 49 -273.5 Q 59 -292 68.5 -307 Q 78 -322 87.5 -335 Q 97 -348 111 -361 Q 125 -374 142 -382.5 Q 159 -391 178 -391 Q 184 -391 190.5 -390 Q 197 -389 202.5 -387 Q 208 -385 213.5 -382.5 Q 219 -380 224.5 -376.5 Q 230 -373 234 -369.5 Q 238 -366 243 -361.5 Q 248 -357 252 -352.5 Q 256 -348 260 -343 Q 264 -338 268 -333.5 Q 272 -329 275.5 -324 Q 279 -319 282.5 -314 Q 286 -309 290.5 -303.5 Q 295 -298 298.5 -293 Q 302 -288 305.5 -284 Q 309 -280 314.5 -275.5 Q 320 -271 322 -269 Q 322 -269 326.5 -272 Q 331 -275 334.5 -278 Q 338 -281 341 -285 Q 344 -289 346 -291.5 Q 348 -294 350 -296.5 Q 352 -299 354 -301.5 Q 356 -304 358 -307.5 Q 360 -311 362 -314 Q 364 -317 366.5 -321 Q 369 -325 371 -329 Q 373 -333 375.5 -337 Q 378 -341 380.5 -345.5 Q 383 -350 385.5 -355 Q 388 -360 390.5 -365 Q 393 -370 395.5 -375.5 Q 398 -381 401 -387 L 471 -357 Q 461 -335 451 -316 Q 441 -297 431.5 -282 Q 422 -267 412.5 -254.5 Q 403 -242 389 -229 Q 375 -216 358 -207.5 Q 341 -199 322 -199 Z " id="path1"/></defs><g><g fill="#20242e" transform="translate(40 105.20961) rotate(0)"><use href="#path1" transform="translate(0 0) scale(0.09599999)"/></g></g></svg>