<svg xmlns="http://www.w3.org/2000/svg" height="160" viewBox="0 0 128 160" width="128"><defs><path d="M 322 -584 Q 316 -584 309.5 -585 Q 303 -586 297.5 -587.5 Q 292 -589 286.5 -592 Q 281 -595 275.5 -598 Q 270 -601 266 -604.5 Q 262 -608 257 -612.5 Q 252 -617 248 -622 Q 244 -627 240 -631.5 Q 236 -636 232 -641 Q 228 -646 224.5 -650.5 Q 221 -655 217.5 -660.5 Q 214 -666 209.5 -671.5 Q 205 -677 201.5 -682 Q 198 -687 194.5 -691 Q 191 -695 185 -700 Q 179 -705 178 -706 Q 178 -705 173.5 -702.5 Q 169 -700 165.5 -696.5 Q 162 -693 159 -689 Q 156 -685 154 -683 Q 152 -681 150 -678.5 Q 148 -676 146 -673 Q 144 -670 142 -667 Q 140 -664 138 -660.5 Q 136 -657 133.5 -653.5 Q 131 -650 129 -646 Q 127 -642 124.5 -637.5 Q 122 -633 119.5 -628.5 Q 117 -624 114.5 -619.5 Q 112 -615 109.5 -609.5 Q 107 -604 104.5 -599 Q 102 -594 99 -588 L 29 -617 Q 39 -640 49 -658.5 Q 59 -677 68.5 -692 Q 78 -707 87.5 -720 Q 97 -733 111 -746 Q 125 -759 142 -767.5 Q 159 -776 178 -776 Q 184 -776 190.5 -775 Q 197 -774 202.5 -772 Q 208 -770 213.5 -767.5 Q 219 -765 224.5 -761.5 Q 230 -758 234 -754.5 Q 238 -751 243 -746.5 Q 248 -742 252 -737.5 Q 256 -733 260 -728 Q 264 -723 268 -718.5 Q 272 -714 275.5 -709 Q 279 -704 282.5 -699 Q 286 -694 290.5 -688.5 Q 295 -683 298.5 -678 Q 302 -673 305.5 -669 Q 309 -665 314.5 -660.5 Q 320 -656 322 -654 Q 322 -654 326.5 -657 Q 331 -660 334.5 -663 Q 338 -666 341 -670 Q 344 -674 346 -676.5 Q 348 -679 350 -681.5 Q 352 -684 354 -686.5 Q 356 -689 358 -692.5 Q 360 -696 362 -699 Q 364 -702 366.5 -706 Q 369 -710 371 -714 Q 373 -718 375.5 -722 Q 378 -726 380.5 -730.5 Q 383 -735 385.5 -740 Q 388 -745 390.5 -750 Q 393 -755 395.5 -760.5 Q 398 -766 401 -772 L 471 -742 Q 461 -720 451 -701 Q 441 -682 431.5 -667 Q 422 -652 412.5 -639.5 Q 403 -627 389 -614 Q 375 -601 358 -592.5 Q 341 -584 322 -584 Z " id="path1"/></defs><g><g fill="#20242e" transform="translate(40 105.20961) rotate(0)"><use href="#path1" transform="translate(0 0) scale(0.09599999)"/></g></g></svg>