<?xml version="1.0" encoding="UTF-8" standalone="no"?>
<svg height="160" viewBox="0 0 128 160" width="128" xmlns="http://www.w3.org/2000/svg">
<defs>
<path d="M 64 0 L 64 -1 Q 64 -28 65 -55 Q 66 -82 70.5 -109 Q 75 -136 83.5 -162 Q 92 -188 104.5 -211.5 Q 117 -235 133.5 -257 Q 150 -279 169.5 -298 Q 189 -317 210 -333.5 Q 231 -350 253 -366 Q 275 -382 296 -399.5 Q 317 -417 332 -439.5 Q 347 -462 354.5 -488.5 Q 362 -515 362 -542 Q 362 -566 356.5 -590.5 Q 351 -615 336.5 -634.5 Q 322 -654 298.5 -663.5 Q 275 -673 251 -673 Q 229 -673 207 -666 Q 185 -659 169.5 -643 Q 154 -627 147 -605.5 Q 140 -584 140 -561 L 140 -560 L 62 -560 L 62 -563 Q 62 -587 67.5 -611.5 Q 73 -636 85 -657.5 Q 97 -679 115 -696 Q 133 -713 155 -724 Q 177 -735 201.5 -739 Q 226 -743 251 -743 Q 277 -743 303 -738 Q 329 -733 352 -720 Q 375 -707 392.5 -687.5 Q 410 -668 421 -644 Q 432 -620 436 -594 Q 440 -568 440 -542 Q 440 -506 429.5 -470.5 Q 419 -435 398.5 -405.5 Q 378 -376 350.5 -352.5 Q 323 -329 294.5 -306.5 Q 266 -284 239 -259.5 Q 212 -235 192 -205 Q 172 -175 160 -140.5 Q 148 -106 144 -70 L 359 -70 L 359 -145 L 436 -145 L 436 0 Z " id="path1"/>
</defs>
<g>
<g data-source-text="2" fill="#dee4e3" transform="translate(40 104.99201) rotate(0) scale(0.09599999)">
<use href="#path1" transform="translate(0 0)"/>
</g>
</g>
</svg>