<?xml version="1.0" encoding="UTF-8" standalone="no"?>
<svg height="160" viewBox="0 0 128 160" width="128" xmlns="http://www.w3.org/2000/svg">
<defs>
<path d="M 436 0 L 284 0 Q 261 -0 238.5 -4 Q 216 -8 195.5 -18 Q 175 -28 159 -44 Q 143 -60 133 -80.5 Q 123 -101 119 -123.5 Q 115 -146 115 -169 L 115 -735 L 193 -735 L 193 -520 L 436 -520 L 436 -450 L 193 -450 L 193 -169 Q 193 -150 197.5 -131 Q 202 -112 215 -97.5 Q 228 -83 246.5 -76.5 Q 265 -70 284 -70 L 436 -70 Z " id="path1"/>
</defs>
<g>
<g data-source-text="t" fill="#20242e" transform="translate(40 104.99201) rotate(0) scale(0.09599999)">
<use href="#path1" transform="translate(0 0)"/>
</g>
</g>
</svg>