<?xml version="1.0" encoding="UTF-8" standalone="no"?>
<svg height="160" viewBox="0 0 128 160" width="128" xmlns="http://www.w3.org/2000/svg">
<defs>
<path d="M 253 0 Q 228 -0 203.5 -4 Q 179 -8 157 -18.5 Q 135 -29 116.5 -46 Q 98 -63 86 -84.5 Q 74 -106 68 -130 Q 62 -154 62 -179 L 62 -180 L 140 -180 L 140 -179 Q 140 -157 147.5 -135.5 Q 155 -114 171 -98.5 Q 187 -83 208.5 -76.5 Q 230 -70 253 -70 Q 270 -70 287.5 -75 Q 305 -80 318.5 -91 Q 332 -102 341.5 -117 Q 351 -132 356.5 -149 Q 362 -166 364 -183.5 Q 366 -201 366 -219 Q 366 -237 364 -255 Q 362 -273 356.5 -290 Q 351 -307 341 -322.5 Q 331 -338 317 -349 Q 303 -360 285.5 -364.5 Q 268 -369 250 -369 L 157 -369 L 157 -439 L 340 -665 L 141 -665 L 141 -590 L 64 -590 L 64 -735 L 427 -735 L 427 -665 L 244 -439 L 250 -439 Q 278 -439 305.5 -433 Q 333 -427 356.5 -412.5 Q 380 -398 397.5 -376 Q 415 -354 425.5 -328 Q 436 -302 440 -274.5 Q 444 -247 444 -219 Q 444 -191 440 -163.5 Q 436 -136 426 -110.5 Q 416 -85 398.5 -63 Q 381 -41 357.5 -26.5 Q 334 -12 307 -6 Q 280 0 253 0 Z " id="path1"/>
</defs>
<g>
<g data-source-text="3" fill="#dee4e3" transform="translate(40 104.99201) rotate(0) scale(0.09599999)">
<use href="#path1" transform="translate(0 0)"/>
</g>
</g>
</svg>