<?xml version="1.0" encoding="UTF-8" standalone="no"?>
<svg height="160" viewBox="0 0 128 160" width="128" xmlns="http://www.w3.org/2000/svg">
<defs>
<path d="M 253 8 Q 227 8 202 4 Q 177 0 153.5 -10.5 Q 130 -21 111 -38.5 Q 92 -56 79 -78 Q 66 -100 60 -125 Q 54 -150 54 -176 L 54 -180 L 132 -180 L 132 -177 Q 132 -154 140.5 -131 Q 149 -108 166 -92 Q 183 -76 206 -69 Q 229 -62 253 -62 Q 278 -62 302.5 -71 Q 327 -80 343.5 -99.5 Q 360 -119 367 -144 Q 374 -169 374 -195 Q 374 -216 369.5 -236.5 Q 365 -257 355 -275.5 Q 345 -294 329.5 -308.5 Q 314 -323 295 -331.5 Q 276 -340 255 -342.5 Q 234 -345 213 -345 L 213 -415 Q 232 -415 251 -417 Q 270 -419 287.5 -426.5 Q 305 -434 319 -447.5 Q 333 -461 341.5 -478 Q 350 -495 354 -514 Q 358 -533 358 -552 Q 358 -575 352.5 -597 Q 347 -619 333 -637 Q 319 -655 297.5 -664 Q 276 -673 253 -673 Q 231 -673 210 -665 Q 189 -657 174.5 -640.5 Q 160 -624 154 -602.5 Q 148 -581 148 -559 L 148 -555 L 70 -555 L 70 -562 Q 70 -586 75.5 -610 Q 81 -634 92 -655.5 Q 103 -677 120 -694.5 Q 137 -712 159 -723 Q 181 -734 205 -738.5 Q 229 -743 253 -743 Q 278 -743 302.5 -738 Q 327 -733 348.5 -721.5 Q 370 -710 387 -691.5 Q 404 -673 415 -650.5 Q 426 -628 431 -603.5 Q 436 -579 436 -554 Q 436 -527 429.5 -501 Q 423 -475 409.5 -451.5 Q 396 -428 376 -410 Q 356 -392 332 -381 Q 359 -370 382.5 -350.5 Q 406 -331 421.5 -306 Q 437 -281 444.5 -251.5 Q 452 -222 452 -193 Q 452 -166 446.5 -139.5 Q 441 -113 429 -89.5 Q 417 -66 398 -46.5 Q 379 -27 355.5 -14.5 Q 332 -2 305.5 3 Q 279 8 253 8 Z " id="path1"/>
</defs>
<g>
<g data-source-text="3" fill="#dee4e3" transform="translate(40 104.99201) rotate(0) scale(0.09599999)">
<use href="#path1" transform="translate(0 0)"/>
</g>
</g>
</svg>