<?xml version="1.0" encoding="UTF-8" standalone="no"?>
<svg xmlns="http://www.w3.org/2000/svg" height="160" viewBox="0 0 128 160" width="128"><defs><path d="M 322 -198 Q 316 -198 309.5 -199 Q 303 -200 297.5 -202 Q 292 -204 286.5 -206.5 Q 281 -209 275.5 -212.5 Q 270 -216 265.5 -219.5 Q 261 -223 256.5 -227.5 Q 252 -232 248 -236.5 Q 244 -241 240 -246 Q 236 -251 232 -255.5 Q 228 -260 224.5 -265 Q 221 -270 217.5 -275.5 Q 214 -281 209.5 -286.5 Q 205 -292 201.5 -297 Q 198 -302 194.5 -306 Q 191 -310 185 -314.5 Q 179 -319 178 -321 Q 177 -320 173 -317 Q 169 -314 165.5 -311 Q 162 -308 159 -304 Q 156 -300 154 -298 Q 152 -296 150 -293 Q 148 -290 146 -287.5 Q 144 -285 142 -282 Q 140 -279 138 -275.5 Q 136 -272 133.5 -268 Q 131 -264 129 -260.5 Q 127 -257 124.5 -252.5 Q 122 -248 119.5 -243.5 Q 117 -239 114.5 -234 Q 112 -229 109.5 -224 Q 107 -219 104.5 -213.5 Q 102 -208 99 -202 L 29 -232 Q 39 -254 49 -272.5 Q 59 -291 68.5 -306.5 Q 78 -322 87.5 -334.5 Q 97 -347 110.5 -360.5 Q 124 -374 141.5 -382.5 Q 159 -391 178 -391 Q 184 -391 190.5 -390 Q 197 -389 202.5 -387 Q 208 -385 213.5 -382.5 Q 219 -380 224.5 -376.5 Q 230 -373 234.5 -369.5 Q 239 -366 243.5 -361.5 Q 248 -357 252 -352.5 Q 256 -348 260 -343 Q 264 -338 268 -333 Q 272 -328 275.5 -323.5 Q 279 -319 282.5 -313.5 Q 286 -308 290.5 -302.5 Q 295 -297 298.5 -292 Q 302 -287 305.5 -283 Q 309 -279 314 -275 Q 319 -271 322 -268 Q 323 -269 327 -271.5 Q 331 -274 334.5 -277.5 Q 338 -281 341 -285 Q 344 -289 346 -291 Q 348 -293 350 -295.5 Q 352 -298 354 -301 Q 356 -304 358 -307 Q 360 -310 362 -313.5 Q 364 -317 366.5 -320.5 Q 369 -324 371 -328 Q 373 -332 375.5 -336.5 Q 378 -341 380.5 -345.5 Q 383 -350 385.5 -355 Q 388 -360 390.5 -365 Q 393 -370 395.5 -375.5 Q 398 -381 401 -387 L 471 -357 Q 461 -335 451 -316 Q 441 -297 431.5 -282 Q 422 -267 412.5 -254 Q 403 -241 389.5 -228 Q 376 -215 358.5 -206.5 Q 341 -198 322 -198 Z " id="path1"/></defs><g><g data-source-text="~" fill="#20242e" transform="translate(40 104.99201) rotate(0) scale(0.09599999)"><use href="#path1" transform="translate(0 0)"/></g></g></svg>