<?xml version="1.0" encoding="UTF-8" standalone="no"?>
<svg height="160" viewBox="0 0 128 160" width="128" xmlns="http://www.w3.org/2000/svg">
<defs>
<path d="M 260 8 Q 241 8 223 2.5 Q 205 -3 191.5 -15.5 Q 178 -28 172 -46.5 Q 166 -65 166 -83 L 166 -450 L 70 -450 L 70 -520 L 166 -520 L 166 -735 L 244 -735 L 244 -520 L 420 -520 L 420 -450 L 244 -450 L 244 -83 Q 244 -75 248 -67 Q 252 -59 260 -59 Q 263 -59 266.5 -59.5 Q 270 -60 273 -62 L 407 -172 L 454 -120 L 320 -10 Q 308 -0 292 4 Q 276 8 260 8 Z " id="path1"/>
</defs>
<g>
<g data-source-text="t" fill="#20242e" transform="translate(40 104.99201) rotate(0) scale(0.09599999)">
<use href="#path1" transform="translate(0 0)"/>
</g>
</g>
</svg>