<?xml version="1.0" encoding="UTF-8" standalone="no"?>
<svg height="160" viewBox="0 0 128 160" width="128" xmlns="http://www.w3.org/2000/svg">
<defs>
<path d="M 209 7 Q 190 7 171.5 1.5 Q 153 -4 139.5 -17.5 Q 126 -31 120.5 -49 Q 115 -67 115 -86 L 115 -673 L 193 -673 L 193 -520 L 420 -520 L 420 -450 L 193 -450 L 193 -86 Q 193 -78 197 -69.5 Q 201 -61 209 -61 Q 212 -61 214.5 -62 Q 217 -63 220 -65 L 394 -211 L 442 -160 L 268 -13 Q 255 -3 240 2 Q 225 7 209 7 Z " id="path1"/>
</defs>
<g data-source-text="t" fill="#20242e" transform="translate(40 104.99201) rotate(0) scale(0.09599999)">
<use href="#path1" transform="translate(0 0)"/>
</g>
</svg>