<?xml version="1.0" encoding="UTF-8" standalone="no"?>
<svg height="160" viewBox="0 0 128 160" width="128" xmlns="http://www.w3.org/2000/svg">
<defs>
<path d="M 253 8 Q 227 8 202.5 3.5 Q 178 -1 155.5 -12.5 Q 133 -24 115 -42 Q 97 -60 85 -82 Q 73 -104 67.5 -129 Q 62 -154 62 -179 L 62 -180 L 140 -180 L 140 -179 Q 140 -156 147 -133.5 Q 154 -111 169.5 -94 Q 185 -77 207.5 -69.5 Q 230 -62 253 -62 Q 271 -62 288.5 -67.5 Q 306 -73 320 -85 Q 334 -97 343 -113 Q 352 -129 357 -146.5 Q 362 -164 364 -182 Q 366 -200 366 -218 Q 366 -236 364 -254 Q 362 -272 356.5 -289 Q 351 -306 341.5 -321.5 Q 332 -337 317.5 -348 Q 303 -359 285.5 -364 Q 268 -369 250 -369 L 157 -369 L 157 -439 L 340 -665 L 64 -665 L 64 -735 L 427 -735 L 427 -665 L 244 -439 L 250 -439 Q 278 -439 305.5 -433 Q 333 -427 356.5 -412.5 Q 380 -398 398 -375.5 Q 416 -353 426 -327.5 Q 436 -302 440 -274 Q 444 -246 444 -218 Q 444 -190 440 -162 Q 436 -134 426 -108 Q 416 -82 399 -59 Q 382 -36 359 -20.5 Q 336 -5 308.5 1.5 Q 281 8 253 8 Z " id="path1"/>
</defs>
<g>
<g data-source-text="3" fill="#20242e" transform="translate(40 104.99201) rotate(0) scale(0.09599999)">
<use href="#path1" transform="translate(0 0)"/>
</g>
</g>
</svg>