<?xml version="1.0" encoding="UTF-8" standalone="no"?>
<svg height="160" viewBox="0 0 128 160" width="128" xmlns="http://www.w3.org/2000/svg">
<defs>
<path d="M 252 8 Q 235 8 218.5 3.5 Q 202 -1 189.5 -12.5 Q 177 -24 171.5 -40 Q 166 -56 166 -73 L 166 -450 L 70 -450 L 70 -520 L 166 -520 L 166 -735 L 244 -735 L 244 -520 L 420 -520 L 420 -450 L 244 -450 L 244 -73 Q 244 -68 245.5 -62.5 Q 247 -57 252 -57 Q 254 -57 255.5 -57.5 Q 257 -58 258 -59 L 392 -188 L 442 -141 L 308 -12 Q 297 -2 282 3 Q 267 8 252 8 Z " id="path1"/>
</defs>
<g>
<g data-source-text="t" fill="#20242e" transform="translate(40 104.99201) rotate(0) scale(0.09599999)">
<use href="#path1" transform="translate(0 0)"/>
</g>
</g>
</svg>