<?xml version="1.0" encoding="UTF-8" standalone="no"?>
<svg height="160" viewBox="0 0 128 160" width="128" xmlns="http://www.w3.org/2000/svg">
<defs>
<path d="M 201 8 Q 184 8 168 3.5 Q 152 -1 139.5 -11.5 Q 127 -22 121 -38 Q 115 -54 115 -71 L 115 -673 L 193 -673 L 193 -520 L 420 -520 L 420 -450 L 193 -450 L 193 -71 Q 193 -66 194.5 -60.5 Q 196 -55 201 -55 Q 203 -55 204.5 -55 Q 206 -55 208 -56 L 408 -221 L 453 -172 L 252 -7 Q 241 1 227.5 4.5 Q 214 8 201 8 Z " id="path1"/>
</defs>
<g>
<g data-source-text="t" fill="#dee4e3" transform="translate(40 104.99201) rotate(0) scale(0.09599999)">
<use href="#path1" transform="translate(0 0)"/>
</g>
</g>
</svg>