<svg xmlns="http://www.w3.org/2000/svg" height="160" viewBox="0 0 256 160" width="256"><defs><path d="M 44 0 L 205.00002 -735 L 295 -735 L 349.00003 -490.00003 L 456.00003 0 Z M 138 -70.00001 L 362 -70.00001 L 276 -490.00003 C 271.3333 -511.3333 266.8333 -532.6667 262.50003 -554.00006 C 258.1667 -575.3333 254 -596.6667 250 -618 C 246 -596.6667 241.83334 -575.3333 237.50002 -554.00006 C 233.16666 -532.6667 228.66667 -511.3333 224 -490.00003 Z " id="path2"/><path d="M 44 0 L 205.00002 -735 L 295 -735 L 349.00003 -490.00003 L 456.00003 0 L 376.00003 0 L 276 -490.00003 C 271.3333 -511.3333 266.8333 -532.6667 262.50003 -554.00006 C 258.1667 -575.3333 254 -596.6667 250 -618 C 246 -596.6667 241.83334 -575.3333 237.50002 -554.00006 C 233.16666 -532.6667 228.66667 -511.3333 224 -490.00003 L 124.00001 0 Z " id="path1"/></defs><g><g fill="#ffffff" transform="translate(40 105.20961) rotate(0)"><use href="#path1" transform="translate(0 0) scale(0.09599999)"/></g><g fill="#ffffff" transform="translate(168 105.20961) rotate(0)"><use href="#path2" transform="translate(0 0) scale(0.09599999)"/></g></g></svg>