<svg xmlns="http://www.w3.org/2000/svg" height="160" viewBox="0 0 128 160" width="128"><defs><path d="M 252 0 C 235.33333 0 218.83333 -1.5000001 202.50002 -4.5000005 C 186.16667 -7.5 170.5 -12.666668 155.50002 -20.000002 C 140.5 -27.333334 127 -37 115 -49 C 103 -61 93.16667 -74.333336 85.50001 -89 C 77.83333 -103.666664 72 -119.16668 68 -135.50002 C 64 -151.83334 62.000004 -168.33334 62.000004 -185.00002 L 140.00002 -185.00002 C 140.00002 -170.33333 142.5 -155.5 147.5 -140.5 C 152.5 -125.50001 159.99998 -112.49999 170 -101.50001 C 180 -90.5 192.33333 -82.5 207 -77.5 C 221.66666 -72.5 236.66664 -70.00001 252 -70.00001 C 264 -70.00001 275.83334 -71.66667 287.5 -75.00001 C 299.16666 -78.333336 309.5 -83.666664 318.5 -91 C 327.5 -98.33333 335.16666 -107.166664 341.5 -117.5 C 347.8333 -127.83333 352.8333 -138.66666 356.5 -150.00002 C 360.16663 -161.33333 362.66666 -172.83333 364 -184.5 C 365.33334 -196.16669 366.00003 -208.00002 366.00003 -220.00002 C 366.00003 -232 365.33334 -244 364 -256 C 362.66666 -268 360.16663 -279.66666 356.5 -291.00003 C 352.8333 -302.33334 347.8333 -313.16666 341.5 -323.5 C 335.16666 -333.8333 327.16666 -342.66663 317.5 -350 C 307.8333 -357.33334 297.1667 -362.6667 285.50003 -366.00003 C 273.8333 -369.33334 262 -371.00003 250 -371.00003 L 157.00002 -371.00003 L 157.00002 -441 L 333 -665 L 64 -665 L 64 -735 L 427.00003 -735 L 427.00003 -665 L 250 -441 C 268.66666 -441 287.16666 -438.99997 305.50003 -435.00003 C 323.83334 -431 340.8333 -424 356.5 -414 C 372.16666 -404.00003 386 -391.66666 398 -377.00003 C 410.00003 -362.33334 419.3333 -346.33334 426 -329 C 432.66663 -311.66666 437.3333 -293.8333 440.00003 -275.5 C 442.66666 -257.16666 444.00003 -238.66669 444.00003 -220.00002 C 444.00003 -201.33333 442.66666 -182.83331 440.00003 -164.5 C 437.3333 -146.16667 432.66663 -128.50002 426 -111.50001 C 419.3333 -94.50001 410.1667 -78.66667 398.50003 -64 C 386.83337 -49.333336 373.16666 -37 357.5 -27 C 341.8333 -17 324.99997 -9.999999 307 -6 C 289 -2 270.6667 0 252 0 Z " id="path1"/></defs><g><g fill="#ffffff" transform="translate(40 105.20961) rotate(0)"><use href="#path1" transform="translate(0 0) scale(0.09599999)"/></g></g></svg>