<?xml version="1.0" encoding="UTF-8" standalone="no"?>
<svg height="160" viewBox="0 0 128 160" width="128" xmlns="http://www.w3.org/2000/svg">
<defs>
<path d="M 209 8 Q 190 8 172 2.5 Q 154 -3 140.5 -15.5 Q 127 -28 121 -46.5 Q 115 -65 115 -83 L 115 -735 L 193 -735 L 193 -520 L 420 -520 L 420 -450 L 193 -450 L 193 -83 Q 193 -75 197 -67 Q 201 -59 209 -59 Q 212 -59 215.5 -59.5 Q 219 -60 222 -62 L 423 -227 L 470 -175 L 269 -10 Q 257 -0 241 4 Q 225 8 209 8 Z " id="path1"/>
</defs>
<g>
<g data-source-text="t" fill="#dee4e3" transform="translate(40 104.99201) rotate(0) scale(0.09599999)">
<use href="#path1" transform="translate(0 0)"/>
</g>
</g>
</svg>