<?xml version="1.0" encoding="UTF-8" standalone="no"?>
<svg height="160" viewBox="0 0 128 160" width="128" xmlns="http://www.w3.org/2000/svg">
<defs>
<path d="M 316 8 Q 294 8 271.5 2 Q 249 -4 230.5 -17 Q 212 -30 199.5 -49 Q 187 -68 179.5 -89.5 Q 172 -111 169 -133.5 Q 166 -156 166 -179 L 166 -450 L 70 -450 L 70 -520 L 166 -520 L 166 -673 L 244 -673 L 244 -520 L 420 -520 L 420 -450 L 244 -450 L 244 -179 Q 244 -166 245 -153 Q 246 -140 249 -127.5 Q 252 -115 257 -103.5 Q 262 -92 270.5 -82 Q 279 -72 291 -67 Q 303 -62 316 -62 Q 329 -62 340.5 -67 Q 352 -72 360.5 -81 Q 369 -90 374.5 -101.5 Q 380 -113 383 -125 Q 386 -137 387.5 -149.5 Q 389 -162 389 -174 L 389 -180 L 467 -180 L 467 -171 Q 467 -149 463 -127 Q 459 -105 451.5 -84.5 Q 444 -64 431 -46 Q 418 -28 400 -15.5 Q 382 -3 360 2.5 Q 338 8 316 8 Z " id="path1"/>
</defs>
<g>
<g data-source-text="t" fill="#20242e" transform="translate(40 104.99201) rotate(0) scale(0.09599999)">
<use href="#path1" transform="translate(0 0)"/>
</g>
</g>
</svg>