<?xml version="1.0" encoding="UTF-8" standalone="no"?>
<svg height="160" viewBox="0 0 128 160" width="128" xmlns="http://www.w3.org/2000/svg">
<defs>
<path d="M 270 0 Q 249 0 228.5 -3.5 Q 208 -7 189 -16 Q 170 -25 155 -40 Q 140 -55 131 -74 Q 122 -93 118.5 -113.5 Q 115 -134 115 -155 L 115 -735 L 193 -735 L 193 -520 L 436 -520 L 436 -450 L 193 -450 L 193 -155 Q 193 -138 197 -122 Q 201 -106 211.5 -93.5 Q 222 -81 237.5 -75.5 Q 253 -70 270 -70 L 436 -70 L 436 0 Z " id="path1"/>
</defs>
<g>
<g data-source-text="t" fill="#dee4e3" transform="translate(40 104.99201) rotate(0) scale(0.09599999)">
<use href="#path1" transform="translate(0 0)"/>
</g>
</g>
</svg>