<?xml version="1.0" encoding="UTF-8" standalone="no"?>
<svg height="160" viewBox="0 0 128 160" width="128" xmlns="http://www.w3.org/2000/svg">
<defs>
<path d="M 64 0 L 64 -1 Q 64 -28 65 -55 Q 66 -82 70.5 -109 Q 75 -136 83.5 -162 Q 92 -188 104.5 -211.5 Q 117 -235 133.5 -257 Q 150 -279 169.5 -298 Q 189 -317 210 -333.5 Q 231 -350 253 -366 Q 275 -382 296 -399.5 Q 317 -417 332 -439.5 Q 347 -462 354.5 -488.5 Q 362 -515 362 -542 Q 362 -566 356.5 -590.5 Q 351 -615 336.5 -634.5 Q 322 -654 298.5 -663.5 Q 275 -673 251 -673 Q 228 -673 206.5 -665.5 Q 185 -658 169.5 -641.5 Q 154 -625 147 -603.5 Q 140 -582 140 -559 L 140 -555 L 62 -555 L 62 -561 Q 62 -586 67.5 -610.5 Q 73 -635 85 -656.5 Q 97 -678 115 -695.5 Q 133 -713 155 -724 Q 177 -735 201.5 -739 Q 226 -743 251 -743 Q 277 -743 303 -738 Q 329 -733 352 -720 Q 375 -707 392.5 -687.5 Q 410 -668 421 -644 Q 432 -620 436 -594 Q 440 -568 440 -542 Q 440 -513 433.5 -484.5 Q 427 -456 413.5 -430.5 Q 400 -405 380.5 -383 Q 361 -361 339 -342.5 Q 317 -324 294 -306.5 Q 271 -289 249.5 -269.5 Q 228 -250 209.5 -228 Q 191 -206 177 -180.5 Q 163 -155 155 -127 Q 147 -99 144 -70 L 436 -70 L 436 0 Z " id="path1"/>
</defs>
<g>
<g data-source-text="2" fill="#20242e" transform="translate(40 104.99201) rotate(0) scale(0.09599999)">
<use href="#path1" transform="translate(0 0)"/>
</g>
</g>
</svg>