<?xml version="1.0" encoding="UTF-8" standalone="no"?>
<svg height="160" viewBox="0 0 128 160" width="128" xmlns="http://www.w3.org/2000/svg">
<defs>
<path d="M 323 -185 Q 315 -185 308 -186 Q 301 -187 295 -189.5 Q 289 -192 283 -195.5 Q 277 -199 271.5 -203.5 Q 266 -208 261.5 -212.5 Q 257 -217 252.5 -222.5 Q 248 -228 244 -234 Q 240 -240 236.5 -245.5 Q 233 -251 229.5 -257 Q 226 -263 222.5 -269 Q 219 -275 215.5 -281.5 Q 212 -288 208 -294.5 Q 204 -301 200 -307 Q 196 -313 192.5 -318 Q 189 -323 185 -328.5 Q 181 -334 177 -337 Q 174 -334 171.5 -331 Q 169 -328 165 -323 Q 161 -318 158.5 -314.5 Q 156 -311 154.5 -308 Q 153 -305 151 -301.5 Q 149 -298 147 -294.5 Q 145 -291 143 -287 Q 141 -283 139 -278.5 Q 137 -274 134.5 -269.5 Q 132 -265 130 -260 Q 128 -255 125.5 -249.5 Q 123 -244 120.5 -238.5 Q 118 -233 115.5 -227 Q 113 -221 110.5 -214.5 Q 108 -208 105.5 -201.5 Q 103 -195 100 -188 L 28 -212 Q 32 -224 36 -234.5 Q 40 -245 44.5 -255 Q 49 -265 53 -274.5 Q 57 -284 60.5 -292.5 Q 64 -301 68 -308.5 Q 72 -316 76 -323 Q 80 -330 83.5 -336.5 Q 87 -343 91 -349 Q 95 -355 101 -363 Q 107 -371 113.5 -377.5 Q 120 -384 126.5 -389.5 Q 133 -395 141.5 -399.5 Q 150 -404 159 -406.5 Q 168 -409 177 -409 Q 192 -409 205 -404 Q 218 -399 228.5 -390 Q 239 -381 247.5 -370.5 Q 256 -360 263.5 -348.5 Q 271 -337 277.5 -325 Q 284 -313 292 -299.5 Q 300 -286 307 -275.5 Q 314 -265 323 -257 Q 326 -260 328.5 -262.5 Q 331 -265 335 -270 Q 339 -275 341.5 -279 Q 344 -283 345.5 -286 Q 347 -289 349 -292.5 Q 351 -296 353 -299.5 Q 355 -303 357 -307 Q 359 -311 361 -315 Q 363 -319 365.5 -324 Q 368 -329 370 -334 Q 372 -339 374.5 -344 Q 377 -349 379.5 -354.5 Q 382 -360 384.5 -366 Q 387 -372 389.5 -378.5 Q 392 -385 394.5 -392 Q 397 -399 400 -406 L 472 -381 Q 468 -370 464 -359 Q 460 -348 455.5 -338 Q 451 -328 447 -319 Q 443 -310 439.5 -301.5 Q 436 -293 432 -285 Q 428 -277 424 -270 Q 420 -263 416.5 -257 Q 413 -251 409 -245 Q 405 -239 399 -231 Q 393 -223 386.5 -216 Q 380 -209 373.5 -203.5 Q 367 -198 358.5 -194 Q 350 -190 341 -187.5 Q 332 -185 323 -185 Z " id="path1"/>
</defs>
<g>
<g data-source-text="~" fill="#20242e" transform="translate(40 104.99201) rotate(0) scale(0.09599999)">
<use href="#path1" transform="translate(0 0)"/>
</g>
</g>
</svg>