<?xml version="1.0" encoding="UTF-8" standalone="no"?>
<svg height="160" viewBox="0 0 128 160" width="128" xmlns="http://www.w3.org/2000/svg">
<defs>
<path d="M 277 8 Q 252 8 228 2 Q 204 -4 184.5 -18.5 Q 165 -33 151 -53.5 Q 137 -74 129 -97 Q 121 -120 118 -144 Q 115 -168 115 -193 L 115 -699 L 193 -699 L 193 -520 L 420 -520 L 420 -450 L 193 -450 L 193 -193 Q 193 -178 194 -163.5 Q 195 -149 198.5 -135 Q 202 -121 208.5 -107.5 Q 215 -94 225 -83.5 Q 235 -73 248.5 -67.5 Q 262 -62 277 -62 Q 290 -62 302.5 -66 Q 315 -70 325 -79 Q 335 -88 342 -99.5 Q 349 -111 353 -123.5 Q 357 -136 358.5 -149.5 Q 360 -163 360 -176 L 360 -180 L 438 -180 L 438 -174 Q 438 -151 434 -128 Q 430 -105 421 -84 Q 412 -63 397.5 -45 Q 383 -27 364 -14.5 Q 345 -2 322 3 Q 299 8 277 8 Z " id="path1"/>
</defs>
<g>
<g data-source-text="t" fill="#dee4e3" transform="translate(40 104.99201) rotate(0) scale(0.09599999)">
<use href="#path1" transform="translate(0 0)"/>
</g>
</g>
</svg>