<?xml version="1.0" encoding="UTF-8" standalone="no"?>
<svg height="160" viewBox="0 0 128 160" width="128" xmlns="http://www.w3.org/2000/svg">
<defs>
<path d="M 452 0 L 335 0 Q 312 -0 289.5 -4 Q 267 -8 246.5 -18 Q 226 -28 210 -44 Q 194 -60 184 -80.5 Q 174 -101 170 -123.5 Q 166 -146 166 -169 L 166 -450 L 29 -450 L 29 -520 L 166 -520 L 166 -699 L 244 -699 L 244 -520 L 452 -520 L 452 -450 L 244 -450 L 244 -169 Q 244 -150 249 -131 Q 254 -112 266.5 -97.5 Q 279 -83 297.5 -76.5 Q 316 -70 335 -70 L 452 -70 Z " id="path1"/>
</defs>
<g>
<g data-source-text="t" fill="#20242e" transform="translate(40 104.99201) rotate(0) scale(0.09599999)">
<use href="#path1" transform="translate(0 0)"/>
</g>
</g>
</svg>