<?xml version="1.0" encoding="UTF-8" standalone="no"?>
<svg height="160" viewBox="0 0 128 160" width="128" xmlns="http://www.w3.org/2000/svg">
<defs>
<path d="M 323 -184 Q 315 -184 308 -185.5 Q 301 -187 294.5 -189.5 Q 288 -192 282 -196 Q 276 -200 271 -204.5 Q 266 -209 261.5 -214 Q 257 -219 252.5 -224.5 Q 248 -230 244 -236 Q 240 -242 236.5 -248 Q 233 -254 229.5 -260 Q 226 -266 222.5 -272 Q 219 -278 215 -285 Q 211 -292 207 -298.5 Q 203 -305 199.5 -311 Q 196 -317 192.5 -322 Q 189 -327 182.5 -333 Q 176 -339 176 -342 L 179 -342 Q 179 -341 174.5 -337 Q 170 -333 166 -328.5 Q 162 -324 159 -319 Q 156 -314 154 -311 Q 152 -308 150 -304.5 Q 148 -301 146 -297 Q 144 -293 142 -289 Q 140 -285 138 -280.5 Q 136 -276 133.5 -271.5 Q 131 -267 128.5 -262 Q 126 -257 124 -251.5 Q 122 -246 119.5 -240 Q 117 -234 114.5 -228 Q 112 -222 109.5 -215 Q 107 -208 104 -201 Q 101 -194 99 -187 L 29 -210 Q 34 -222 38 -232.5 Q 42 -243 46 -253 Q 50 -263 54 -272.5 Q 58 -282 62 -290.5 Q 66 -299 69.5 -306.5 Q 73 -314 77 -321.5 Q 81 -329 85 -335 Q 89 -341 92.5 -347 Q 96 -353 102 -361 Q 108 -369 114 -376 Q 120 -383 127 -388.5 Q 134 -394 142 -398.5 Q 150 -403 159 -405.5 Q 168 -408 177 -408 Q 185 -408 192 -406.5 Q 199 -405 205.5 -402.5 Q 212 -400 218 -396 Q 224 -392 229 -387.5 Q 234 -383 238.5 -378 Q 243 -373 247.5 -367.5 Q 252 -362 256 -356 Q 260 -350 263.5 -344 Q 267 -338 270.5 -332 Q 274 -326 277.5 -320 Q 281 -314 285 -307 Q 289 -300 293 -293.5 Q 297 -287 300.5 -281 Q 304 -275 307.5 -270 Q 311 -265 317.5 -259 Q 324 -253 324 -250 L 321 -250 Q 321 -251 325.5 -255 Q 330 -259 334 -264 Q 338 -269 341 -273.5 Q 344 -278 346 -281 Q 348 -284 350 -287.5 Q 352 -291 354 -295 Q 356 -299 358 -303 Q 360 -307 362 -311.5 Q 364 -316 366.5 -320.5 Q 369 -325 371.5 -330 Q 374 -335 376 -340.5 Q 378 -346 380.5 -352 Q 383 -358 385.5 -364 Q 388 -370 390.5 -377 Q 393 -384 396 -391 Q 399 -398 401 -405 L 471 -382 Q 466 -370 462 -359.5 Q 458 -349 454 -339 Q 450 -329 446 -319.5 Q 442 -310 438 -301.5 Q 434 -293 430.5 -285.5 Q 427 -278 423 -270.5 Q 419 -263 415 -257 Q 411 -251 407.5 -245 Q 404 -239 398 -231 Q 392 -223 386 -216 Q 380 -209 373 -203.5 Q 366 -198 358 -193.5 Q 350 -189 341 -186.5 Q 332 -184 323 -184 Z " id="path1"/>
</defs>
<g>
<g data-source-text="~" fill="#dee4e3" transform="translate(40 104.99201) rotate(0) scale(0.09599999)">
<use href="#path1" transform="translate(0 0)"/>
</g>
</g>
</svg>