<?xml version="1.0" encoding="UTF-8" standalone="no"?>
<svg height="160" viewBox="0 0 128 160" width="128" xmlns="http://www.w3.org/2000/svg">
<defs>
<path d="M 252 8 Q 235 8 219 3.5 Q 203 -1 190.5 -11.5 Q 178 -22 172 -38 Q 166 -54 166 -71 L 166 -450 L 70 -450 L 70 -520 L 166 -520 L 166 -699 L 244 -699 L 244 -520 L 420 -520 L 420 -450 L 244 -450 L 244 -71 Q 244 -66 245.5 -60.5 Q 247 -55 252 -55 Q 254 -55 255.5 -55 Q 257 -55 259 -56 L 393 -166 L 437 -118 L 303 -7 Q 292 1 279 4.5 Q 266 8 252 8 Z " id="path1"/>
</defs>
<g>
<g data-source-text="t" fill="#dee4e3" transform="translate(40 104.99201) rotate(0) scale(0.09599999)">
<use href="#path1" transform="translate(0 0)"/>
</g>
</g>
</svg>