<?xml version="1.0" encoding="UTF-8" standalone="no"?>
<svg height="160" viewBox="0 0 128 160" width="128" xmlns="http://www.w3.org/2000/svg">
<defs>
<path d="M 277 8 Q 252 8 228 2 Q 204 -4 184.5 -18 Q 165 -32 151 -52.5 Q 137 -73 129 -96 Q 121 -119 118 -143.5 Q 115 -168 115 -193 L 115 -735 L 193 -735 L 193 -520 L 420 -520 L 420 -450 L 193 -450 L 193 -193 Q 193 -178 194 -163.5 Q 195 -149 198.5 -135 Q 202 -121 208.5 -107.5 Q 215 -94 224.5 -83.5 Q 234 -73 248 -67.5 Q 262 -62 277 -62 Q 296 -62 313.5 -71 Q 331 -80 341.5 -96.5 Q 352 -113 356 -132.5 Q 360 -152 360 -171 L 360 -177 L 438 -177 L 438 -167 Q 438 -145 434 -122.5 Q 430 -100 421 -79.5 Q 412 -59 397 -41.5 Q 382 -24 363 -12.5 Q 344 -1 321.5 3.5 Q 299 8 277 8 Z " id="path1"/>
</defs>
<g>
<g data-source-text="t" fill="#20242e" transform="translate(40 104.99201) rotate(0) scale(0.09599999)">
<use href="#path1" transform="translate(0 0)"/>
</g>
</g>
</svg>