<?xml version="1.0" encoding="UTF-8" standalone="no"?>
<svg height="160" viewBox="0 0 128 160" width="128" xmlns="http://www.w3.org/2000/svg">
<defs>
<path d="M 260 8 Q 242 8 224 3.5 Q 206 -1 192.5 -13 Q 179 -25 172.5 -43 Q 166 -61 166 -79 L 166 -450 L 70 -450 L 70 -520 L 166 -520 L 166 -735 L 244 -735 L 244 -520 L 420 -520 L 420 -450 L 244 -450 L 244 -79 Q 244 -71 248 -63 Q 252 -55 260 -55 Q 263 -55 266.5 -55 Q 270 -55 273 -57 L 407 -168 L 451 -119 L 317 -9 Q 305 1 290 4.5 Q 275 8 260 8 Z " id="path1"/>
</defs>
<g>
<g data-source-text="t" fill="#dee4e3" transform="translate(40 104.99201) rotate(0) scale(0.09599999)">
<use href="#path1" transform="translate(0 0)"/>
</g>
</g>
</svg>