<?xml version="1.0" encoding="UTF-8" standalone="no"?>
<svg xmlns="http://www.w3.org/2000/svg" height="160" viewBox="0 0 256 160" width="256"><defs><path d="M 44 0 L 205 -735 L 295 -735 L 349 -490 L 456 0 L 376 0 L 276 -490 Q 269 -522 262.5 -554 Q 256 -586 250 -618 Q 244 -586 237.5 -554 Q 231 -522 224 -490 L 124 0 Z " id="path1"/><path d="M 44 0 L 205 -735 L 295 -735 L 349 -490 L 456 0 Z M 138 -70 L 362 -70 L 276 -490 Q 269 -522 262.5 -554 Q 256 -586 250 -618 Q 244 -586 237.5 -554 Q 231 -522 224 -490 Z " id="path2"/></defs><g><g data-source-text="Λ" fill="#dee4e3" transform="translate(40 104.99201) rotate(0) scale(0.09599999)"><use href="#path1" transform="translate(0 0)"/></g><g data-source-text="Δ" fill="#dee4e3" transform="translate(168 104.99201) rotate(0) scale(0.09599999)"><use href="#path2" transform="translate(0 0)"/></g></g></svg>