<svg xmlns="http://www.w3.org/2000/svg" height="160" viewBox="0 0 128 160" width="128"><defs><path d="M 64 0 L 64 -1 C 64 -18.999998 64.33333 -37 65.00001 -55.000004 C 65.666664 -73 67.5 -91 70.5 -109 C 73.5 -127 77.83333 -144.66667 83.5 -162 C 89.166664 -179.33333 96.16667 -195.83333 104.50001 -211.50002 C 112.83334 -227.16666 122.50001 -242.33334 133.5 -257.00003 C 144.5 -271.6667 156.5 -285.3333 169.5 -298 C 182.50002 -310.6667 196 -322.5 210 -333.5 C 224 -344.5 238.33336 -355.33334 253.00002 -366.00003 C 267.66666 -376.6667 282 -387.83337 296 -399.50003 C 310 -411.1667 322.00003 -424.5 332 -439.50003 C 342.00003 -454.5 349.5 -470.8333 354.50003 -488.5 C 359.49997 -506.16663 362 -524 362 -542.00006 C 362 -558 360.16663 -574.1667 356.5 -590.5 C 352.8333 -606.8333 346.16666 -621.5 336.50003 -634.5 C 326.83334 -647.5 314.1667 -657.1667 298.5 -663.5 C 282.8333 -669.8334 267 -673.00006 251.00002 -673.00006 C 236.33334 -673.00006 221.66666 -670.6667 207 -666 C 192.33333 -661.3333 179.83334 -653.6667 169.5 -643 C 159.16667 -632.3333 151.66667 -619.8333 147.00002 -605.50006 C 142.33334 -591.1667 140.00002 -576.3333 140.00002 -561 C 140.00002 -560.99994 140.00002 -560.8333 140.00002 -560.5 C 140.00002 -560.1667 140.00002 -560.00006 140.00002 -560.00006 L 62.000004 -560.00006 C 62.000004 -560.00006 62.000004 -560.3334 62.000004 -561 C 62.000004 -561.6667 62.000004 -562.3334 62.000004 -563 C 62.000004 -579 63.83334 -595.1667 67.5 -611.50006 C 71.166664 -627.8334 76.99999 -643.1667 85 -657.5 C 93 -671.8334 103 -684.6666 115 -696.00006 C 127 -707.3334 140.33333 -716.6666 155 -724 C 169.66667 -731.33325 185.16669 -736.3333 201.5 -739 C 217.83333 -741.6667 234.33334 -743.00006 251.00002 -743.00006 C 268.3333 -743.00006 285.6667 -741.3334 303 -738 C 320.33334 -734.6667 336.6667 -728.6666 352 -720.00006 C 367.33334 -711.3333 380.8333 -700.50006 392.5 -687.5 C 404.16666 -674.5 413.66666 -660 421.00003 -644.00006 C 428.33334 -628 433.33334 -611.3333 436 -594.00006 C 438.6667 -576.6667 440.00003 -559.3333 440.00003 -542.00006 C 440.00003 -522.6667 437.83337 -503.5 433.50003 -484.50003 C 429.1667 -465.5 422.5 -447.5 413.5 -430.5 C 404.50003 -413.5 393.50003 -397.66672 380.5 -383.00003 C 367.5 -368.33334 353.6667 -354.83337 339 -342.50003 C 324.33334 -330.16666 309.33334 -318.16666 294.00003 -306.5 C 278.6667 -294.83334 263.83334 -282.5 249.5 -269.5 C 235.16667 -256.5 221.83333 -242.66667 209.5 -228.00002 C 197.16667 -213.33333 186.33334 -197.50002 177.00002 -180.50002 C 167.66667 -163.5 160.33333 -145.66666 155 -127.00001 C 149.66667 -108.333336 146.00002 -89.333336 144.00002 -70.00001 L 436 -70.00001 L 436 0 Z " id="path1"/></defs><g><g fill="#ffffff" transform="translate(40 105.20961) rotate(0)"><use href="#path1" transform="translate(0 0) scale(0.09599999)"/></g></g></svg>