<?xml version="1.0" encoding="UTF-8" standalone="no"?>
<svg height="160" viewBox="0 0 128 160" width="128" xmlns="http://www.w3.org/2000/svg">
<defs>
<path d="M 323 -569 Q 315 -569 308 -570.5 Q 301 -572 294.5 -574.5 Q 288 -577 282 -581 Q 276 -585 271 -589.5 Q 266 -594 261.5 -599 Q 257 -604 252.5 -609.5 Q 248 -615 244 -621 Q 240 -627 236.5 -633 Q 233 -639 229.5 -645 Q 226 -651 222.5 -657 Q 219 -663 215 -670 Q 211 -677 207 -683.5 Q 203 -690 199.5 -696 Q 196 -702 192.5 -707 Q 189 -712 182.5 -718 Q 176 -724 176 -727 L 179 -727 Q 179 -726 174.5 -722 Q 170 -718 166 -713.5 Q 162 -709 159 -704 Q 156 -699 154 -696 Q 152 -693 150 -689.5 Q 148 -686 146 -682 Q 144 -678 142 -674 Q 140 -670 138 -665.5 Q 136 -661 133.5 -656.5 Q 131 -652 128.5 -647 Q 126 -642 124 -636.5 Q 122 -631 119.5 -625 Q 117 -619 114.5 -613 Q 112 -607 109.5 -600 Q 107 -593 104 -586 Q 101 -579 99 -572 L 29 -595 Q 34 -607 38 -617.5 Q 42 -628 46 -638 Q 50 -648 54 -657.5 Q 58 -667 62 -675.5 Q 66 -684 69.5 -691.5 Q 73 -699 77 -706.5 Q 81 -714 85 -720 Q 89 -726 92.5 -732 Q 96 -738 102 -746 Q 108 -754 114 -761 Q 120 -768 127 -773.5 Q 134 -779 142 -783.5 Q 150 -788 159 -790.5 Q 168 -793 177 -793 Q 185 -793 192 -791.5 Q 199 -790 205.5 -787.5 Q 212 -785 218 -781 Q 224 -777 229 -772.5 Q 234 -768 238.5 -763 Q 243 -758 247.5 -752.5 Q 252 -747 256 -741 Q 260 -735 263.5 -729 Q 267 -723 270.5 -717 Q 274 -711 277.5 -705 Q 281 -699 285 -692 Q 289 -685 293 -678.5 Q 297 -672 300.5 -666 Q 304 -660 307.5 -655 Q 311 -650 317.5 -644 Q 324 -638 324 -635 L 321 -635 Q 321 -636 325.5 -640 Q 330 -644 334 -649 Q 338 -654 341 -658.5 Q 344 -663 346 -666 Q 348 -669 350 -672.5 Q 352 -676 354 -680 Q 356 -684 358 -688 Q 360 -692 362 -696.5 Q 364 -701 366.5 -705.5 Q 369 -710 371.5 -715 Q 374 -720 376 -725.5 Q 378 -731 380.5 -737 Q 383 -743 385.5 -749 Q 388 -755 390.5 -762 Q 393 -769 396 -776 Q 399 -783 401 -790 L 471 -767 Q 466 -755 462 -744.5 Q 458 -734 454 -724 Q 450 -714 446 -704.5 Q 442 -695 438 -686.5 Q 434 -678 430.5 -670.5 Q 427 -663 423 -655.5 Q 419 -648 415 -642 Q 411 -636 407.5 -630 Q 404 -624 398 -616 Q 392 -608 386 -601 Q 380 -594 373 -588.5 Q 366 -583 358 -578.5 Q 350 -574 341 -571.5 Q 332 -569 323 -569 Z " id="path1"/>
</defs>
<g>
<g data-source-text="~" fill="#20242e" transform="translate(40 104.99201) rotate(0) scale(0.09599999)">
<use href="#path1" transform="translate(0 0)"/>
</g>
</g>
</svg>