<svg xmlns="http://www.w3.org/2000/svg" height="160" viewBox="0 0 128 160" width="128"><defs><path d="M 260 7 Q 241 7 222.5 1.5 Q 204 -4 191 -17.5 Q 178 -31 172 -49 Q 166 -67 166 -86 L 166 -450 L 70 -450 L 70 -520 L 166 -520 L 166 -673 L 244 -673 L 244 -520 L 420 -520 L 420 -450 L 244 -450 L 244 -86 Q 244 -78 248 -69.5 Q 252 -61 260 -61 Q 263 -61 265.5 -62 Q 268 -63 271 -65 L 412 -183 L 460 -132 L 319 -13 Q 307 -3 291.5 2 Q 276 7 260 7 Z " id="path1"/></defs><g><g fill="#20242e" transform="translate(40 105.20961) rotate(0)"><use href="#path1" transform="translate(0 0) scale(0.09599999)"/></g></g></svg>