<?xml version="1.0" encoding="UTF-8" standalone="no"?>
<svg height="160" viewBox="0 0 128 160" width="128" xmlns="http://www.w3.org/2000/svg">
<defs>
<path d="M 436 0 L 360 0 Q 337 -0 314.5 -4 Q 292 -8 271.5 -18 Q 251 -28 235 -44 Q 219 -60 209 -80.5 Q 199 -101 195 -123.5 Q 191 -146 191 -169 L 191 -450 L 64 -450 L 64 -520 L 191 -520 L 191 -699 L 269 -699 L 269 -520 L 436 -520 L 436 -450 L 269 -450 L 269 -169 Q 269 -150 273.5 -131 Q 278 -112 291 -97.5 Q 304 -83 322.5 -76.5 Q 341 -70 360 -70 L 436 -70 Z " id="path1"/>
</defs>
<g>
<g data-source-text="t" fill="#20242e" transform="translate(40 104.99201) rotate(0) scale(0.09599999)">
<use href="#path1" transform="translate(0 0)"/>
</g>
</g>
</svg>