<?xml version="1.0" encoding="UTF-8" standalone="no"?>
<svg height="160" viewBox="0 0 128 160" width="128" xmlns="http://www.w3.org/2000/svg">
<defs>
<path d="M 323 -185 Q 315 -185 308 -186.5 Q 301 -188 294.5 -190 Q 288 -192 282 -196 Q 276 -200 271 -204.5 Q 266 -209 261.5 -213.5 Q 257 -218 252.5 -223.5 Q 248 -229 244 -235 Q 240 -241 236 -246.5 Q 232 -252 228.5 -258 Q 225 -264 221.5 -270 Q 218 -276 214 -283 Q 210 -290 206.5 -296.5 Q 203 -303 199 -309 Q 195 -315 191.5 -320 Q 188 -325 181.5 -330.5 Q 175 -336 175 -339 L 180 -339 Q 180 -338 175.5 -334 Q 171 -330 167 -325.5 Q 163 -321 160 -316.5 Q 157 -312 155 -309 Q 153 -306 151.5 -302.5 Q 150 -299 148 -295.5 Q 146 -292 143.5 -288 Q 141 -284 139 -279.5 Q 137 -275 135 -270.5 Q 133 -266 130.5 -261 Q 128 -256 125.5 -250.5 Q 123 -245 120.5 -239.5 Q 118 -234 115.5 -228 Q 113 -222 110.5 -215.5 Q 108 -209 105.5 -202 Q 103 -195 100 -188 L 28 -212 Q 32 -224 36 -234.5 Q 40 -245 44.5 -255 Q 49 -265 53 -274.5 Q 57 -284 60.5 -292.5 Q 64 -301 68 -308.5 Q 72 -316 76 -323 Q 80 -330 83.5 -336.5 Q 87 -343 91 -349 Q 95 -355 101 -363 Q 107 -371 113.5 -377.5 Q 120 -384 126.5 -389.5 Q 133 -395 141.5 -399.5 Q 150 -404 159 -406.5 Q 168 -409 177 -409 Q 185 -409 192 -407.5 Q 199 -406 205.5 -403.5 Q 212 -401 218 -397.5 Q 224 -394 229 -389.5 Q 234 -385 238.5 -380 Q 243 -375 247.5 -369.5 Q 252 -364 256 -358.5 Q 260 -353 264 -347 Q 268 -341 271.5 -335 Q 275 -329 278.5 -323 Q 282 -317 286 -310.5 Q 290 -304 293.5 -297.5 Q 297 -291 301 -285 Q 305 -279 308.5 -274 Q 312 -269 318.5 -263 Q 325 -257 325 -255 Q 325 -254 325 -254 L 324 -255 Q 323 -255 322 -255 L 320 -255 L 325 -259 Q 329 -263 333 -267.5 Q 337 -272 340 -277 Q 343 -282 345 -285 Q 347 -288 348.5 -291 Q 350 -294 352 -298 Q 354 -302 356.5 -306 Q 359 -310 361 -314 Q 363 -318 365 -323 Q 367 -328 369.5 -333 Q 372 -338 374.5 -343 Q 377 -348 379.5 -354 Q 382 -360 384.5 -366 Q 387 -372 389.5 -378.5 Q 392 -385 394.5 -391.5 Q 397 -398 400 -406 L 472 -381 Q 468 -370 464 -359 Q 460 -348 455.5 -338 Q 451 -328 447 -319 Q 443 -310 439.5 -301.5 Q 436 -293 432 -285 Q 428 -277 424 -270 Q 420 -263 416.5 -257 Q 413 -251 409 -245 Q 405 -239 399 -231 Q 393 -223 386.5 -216 Q 380 -209 373.5 -203.5 Q 367 -198 358.5 -194 Q 350 -190 341 -187.5 Q 332 -185 323 -185 Z " id="path1"/>
</defs>
<g>
<g data-source-text="~" fill="#dee4e3" transform="translate(40 104.99201) rotate(0) scale(0.09599999)">
<use href="#path1" transform="translate(0 0)"/>
</g>
</g>
</svg>