<svg xmlns="http://www.w3.org/2000/svg" height="160" viewBox="0 0 128 160" width="128"><defs><path d="M 253.00002 8 C 235.66669 8 218.49998 6.6666665 201.5 4 C 184.49998 1.3333335 168.33334 -3.6666667 153 -11 C 137.66667 -18.333332 123.666664 -27.666666 111.00001 -39 C 98.33333 -50.333332 87.666664 -63.5 79 -78.50001 C 70.333336 -93.5 63.999996 -109.333336 60.000004 -126 C 56 -142.66666 54 -159.33333 54 -176 C 54 -176.66666 54 -177.00002 54 -177.00002 C 54 -177.00002 54 -177.33334 54 -178 L 132 -178 C 132 -178 132 -177.83333 132 -177.50002 C 132 -177.16667 132 -177.00002 132 -177.00002 C 132 -161 134.83333 -145.49998 140.5 -130.5 C 146.16667 -115.5 154.66667 -102.66667 166 -92 C 177.33334 -81.33333 190.66669 -73.66667 206.00002 -69 C 221.33333 -64.333336 237 -62.000004 253.00002 -62.000004 C 269.66666 -62.000004 285.99997 -64.833336 302 -70.5 C 318 -76.166664 331.5 -85.33333 342.50003 -98 C 353.50003 -110.66668 361.6667 -125.16668 367 -141.50002 C 372.3333 -157.83334 375 -174.33334 375 -191.00002 C 375 -206.33333 372.5 -221.66666 367.5 -237.00002 C 362.5 -252.33333 355.33334 -266.5 346 -279.50003 C 336.6667 -292.5 325.5 -303.6667 312.5 -313 C 299.5 -322.33334 285.5 -329.33334 270.5 -334 C 255.5 -338.6667 240.00002 -341.66666 224 -343.00003 C 208.00002 -344.33334 192.33334 -345 177.00002 -345 L 177.00002 -415 C 190.99998 -415 205.33334 -415.50003 220.00002 -416.50003 C 234.66667 -417.50003 249 -420.16666 263.00003 -424.5 C 277 -428.83334 290 -435.33334 302 -444.00003 C 314.00003 -452.6667 324.33334 -462.83334 333 -474.50003 C 341.66666 -486.1667 348.1667 -499.16666 352.5 -513.50006 C 356.83334 -527.8333 359.00003 -542.3333 359.00003 -557 C 359.00003 -571.6666 356.83334 -586.1666 352.5 -600.5 C 348.1667 -614.8333 341.3333 -627.8334 332 -639.50006 C 322.6667 -651.1667 310.83334 -659.6667 296.50003 -665 C 282.16666 -670.3333 267.66666 -673.00006 253.00002 -673.00006 C 238.33336 -673.00006 224.16667 -670.6667 210.50002 -666 C 196.83334 -661.3333 185.16666 -653.6667 175.5 -643 C 165.83334 -632.3333 158.83334 -620 154.5 -606 C 150.16667 -592 148 -577.6667 148 -563 C 148 -563 148 -562.8333 148 -562.5 C 148 -562.1667 148 -561.6667 148 -561 L 70.00001 -561 C 70.00001 -561.6667 70.00001 -562.3334 70.00001 -563 C 70.00001 -563.6667 70.00001 -564.3333 70.00001 -565.00006 C 70.00001 -581 71.833336 -596.8333 75.5 -612.5 C 79.166664 -628.1667 84.666664 -643.1667 92 -657.5 C 99.333336 -671.8334 108.833336 -684.6666 120.5 -696.00006 C 132.16667 -707.3334 145.16667 -716.6666 159.50002 -724 C 173.83333 -731.33325 189 -736.3333 205.00002 -739 C 221 -741.6667 237 -743.00006 253.00002 -743.00006 C 269 -743.00006 285.16666 -741.5 301.5 -738.50006 C 317.83334 -735.49994 333.16666 -730.1666 347.50003 -722.5 C 361.83334 -714.8334 374.83334 -705 386.5 -693 C 398.16666 -681 407.5 -667.6667 414.5 -653 C 421.49997 -638.3333 426.8333 -623 430.5 -607 C 434.16666 -591 435.99997 -574.6667 436 -558 C 435.99997 -538.6667 433.33334 -519.8333 428.00003 -501.50003 C 422.66666 -483.16666 414.66666 -466 404.00003 -450.00003 C 393.3333 -434 380.33334 -420.16666 365.00003 -408.5 C 349.6667 -396.83334 333 -387.6667 315 -381 C 334.99997 -373.66666 353.6667 -363.8333 371.00003 -351.5 C 388.33334 -339.16666 403.16666 -324.5 415.50003 -307.5 C 427.83334 -290.5 437 -271.83334 443 -251.50002 C 449 -231.16667 452 -210.33333 452.00003 -189.00002 C 452 -171.66667 450.00003 -154.33334 446.00003 -137.00002 C 442 -119.66667 436.00003 -103.166664 428.00003 -87.5 C 420 -71.833336 409.66666 -57.666668 397 -45.000004 C 384.33334 -32.333336 370.33337 -22 355.00003 -14 C 339.6667 -6 323.1667 -0.33333325 305.50003 3 C 287.83334 6.3333335 270.33334 8 253.00002 8 Z " id="path1"/></defs><g><g fill="#000000" transform="translate(40 105.20961) rotate(0)"><use href="#path1" transform="translate(0 0) scale(0.09599999)"/></g></g></svg>