<?xml version="1.0" encoding="UTF-8" standalone="no"?>
<svg height="160" viewBox="0 0 128 160" width="128" xmlns="http://www.w3.org/2000/svg">
<defs>
<path d="M 346 0 Q 325 0 304.5 -3.5 Q 284 -7 265 -16 Q 246 -25 231.5 -40 Q 217 -55 207.5 -74 Q 198 -93 194.5 -113.5 Q 191 -134 191 -155 L 191 -450 L 64 -450 L 64 -520 L 191 -520 L 191 -735 L 269 -735 L 269 -520 L 436 -520 L 436 -450 L 269 -450 L 269 -155 Q 269 -138 273 -122 Q 277 -106 287.5 -93.5 Q 298 -81 313.5 -75.5 Q 329 -70 346 -70 L 436 -70 L 436 0 Z " id="path1"/>
</defs>
<g>
<g data-source-text="t" fill="#20242e" transform="translate(40 104.99201) rotate(0) scale(0.09599999)">
<use href="#path1" transform="translate(0 0)"/>
</g>
</g>
</svg>