<?xml version="1.0" encoding="UTF-8" standalone="no"?>
<svg height="160" viewBox="0 0 128 160" width="128" xmlns="http://www.w3.org/2000/svg">
<defs>
<path d="M 288 8 Q 269 8 251 3 Q 233 -2 218 -13 Q 203 -24 193 -39.5 Q 183 -55 176.5 -72.5 Q 170 -90 168 -108.5 Q 166 -127 166 -145 L 166 -450 L 102 -450 L 102 -520 L 166 -520 L 166 -735 L 244 -735 L 244 -520 L 376 -520 L 376 -450 L 244 -450 L 244 -145 Q 244 -132 245.5 -119 Q 247 -106 251.5 -93.5 Q 256 -81 265.5 -71.5 Q 275 -62 288 -62 Q 299 -62 307 -70.5 Q 315 -79 319 -89 Q 323 -99 325.5 -109.5 Q 328 -120 329.5 -131 Q 331 -142 331.5 -152.5 Q 332 -163 332 -174 L 332 -180 L 410 -180 L 410 -171 Q 410 -151 407.5 -131 Q 405 -111 399.5 -91 Q 394 -71 384.5 -53 Q 375 -35 361 -20.5 Q 347 -6 327.5 1 Q 308 8 288 8 Z " id="path1"/>
</defs>
<g>
<g data-source-text="t" fill="#dee4e3" transform="translate(40 104.99201) rotate(0) scale(0.09599999)">
<use href="#path1" transform="translate(0 0)"/>
</g>
</g>
</svg>