<svg xmlns="http://www.w3.org/2000/svg" height="160" viewBox="0 0 128 160" width="128"><defs><path d="M 322.00003 -199 C 318 -199 313.8333 -199.33334 309.5 -200.00002 C 305.16666 -200.66667 301.16666 -201.5 297.5 -202.50002 C 293.8333 -203.5 290.16666 -204.99998 286.5 -207 C 282.83334 -209 279.16666 -210.99998 275.5 -213 C 271.83334 -215 268.6667 -217.16667 266 -219.50002 C 263.33334 -221.83333 260.33334 -224.5 257.00003 -227.50002 C 253.66667 -230.49998 250.66667 -233.66667 248.00002 -237.00002 C 245.33334 -240.33333 242.66667 -243.5 240.00002 -246.5 C 237.33334 -249.5 234.66667 -252.66669 232 -256 C 229.33333 -259.33334 226.83333 -262.5 224.5 -265.50003 C 222.16667 -268.5 219.83334 -271.83334 217.50002 -275.5 C 215.16667 -279.16666 212.5 -282.83334 209.5 -286.5 C 206.5 -290.16666 203.83334 -293.66666 201.5 -297.00003 C 199.16666 -300.33334 196.83334 -303.33334 194.50002 -306 C 192.16667 -308.66666 189.00002 -311.66666 185.00002 -315 C 181 -318.33334 178.66667 -320.33334 178 -321 C 178 -320.33334 176.50002 -319.16666 173.5 -317.5 C 170.5 -315.8333 167.83333 -313.8333 165.50002 -311.5 C 163.16667 -309.1667 161 -306.6667 159 -304 C 157 -301.33334 155.33333 -299.33334 154.00002 -298 C 152.66667 -296.66666 151.33334 -295.16666 150.00002 -293.5 C 148.66667 -291.83334 147.33333 -290 146 -288.00003 C 144.66667 -286.00003 143.33334 -284 142 -282 C 140.66667 -280 139.33334 -277.83334 138 -275.5 C 136.66667 -273.16666 135.16667 -270.83334 133.5 -268.50003 C 131.83334 -266.1667 130.33334 -263.6667 129 -261 C 127.666664 -258.33334 126.166664 -255.5 124.5 -252.5 C 122.833336 -249.5 121.16667 -246.5 119.50001 -243.5 C 117.83334 -240.5 116.16667 -237.5 114.5 -234.50002 C 112.83333 -231.5 111.16666 -228.16667 109.50001 -224.5 C 107.83333 -220.83333 106.166664 -217.33333 104.50001 -214.00002 C 102.833336 -210.66666 100.99999 -207 99 -203.00002 L 29 -232 C 35.666664 -247.33331 42.333336 -261.16666 49 -273.5 C 55.666668 -285.8333 62.166668 -296.99997 68.50001 -307 C 74.833336 -317 81.166664 -326.33334 87.5 -335 C 93.83333 -343.6667 101.66667 -352.33334 111.00001 -361.00003 C 120.333336 -369.66666 130.66667 -376.83334 142 -382.50003 C 153.33333 -388.1667 165.33333 -391 178 -391 C 182 -391 186.16667 -390.66666 190.5 -390 C 194.83334 -389.33334 198.83336 -388.33334 202.50002 -387.00003 C 206.16667 -385.66666 209.83333 -384.16666 213.50002 -382.50003 C 217.16667 -380.8333 220.83333 -378.8333 224.5 -376.50003 C 228.16667 -374.16666 231.33334 -371.83334 234.00002 -369.5 C 236.66667 -367.1667 239.66667 -364.50003 243.00002 -361.5 C 246.33334 -358.49997 249.33334 -355.5 252 -352.5 C 254.66666 -349.50003 257.3333 -346.33334 260.00003 -343.00003 C 262.66666 -339.6667 265.3333 -336.50003 268 -333.5 C 270.66666 -330.49997 273.16666 -327.3333 275.5 -324 C 277.83334 -320.66666 280.1667 -317.33334 282.50003 -314.00003 C 284.83334 -310.66666 287.5 -307.16666 290.5 -303.5 C 293.5 -299.8333 296.16666 -296.3333 298.5 -293 C 300.83334 -289.66666 303.1667 -286.6667 305.50003 -284 C 307.83334 -281.33334 310.83334 -278.5 314.5 -275.5 C 318.16666 -272.5 320.6667 -270.33334 322.00003 -269 C 322.00003 -268.99997 323.5 -270 326.5 -272 C 329.5 -274 332.1667 -276 334.5 -278 C 336.83334 -280 339 -282.33334 341 -285 C 343.00003 -287.66666 344.6667 -289.83334 346 -291.50003 C 347.33337 -293.1667 348.6667 -294.83334 350 -296.50003 C 351.3333 -298.1667 352.66666 -299.83334 354.00003 -301.5 C 355.33334 -303.1667 356.66666 -305.16666 358 -307.5 C 359.3333 -309.83334 360.6667 -312 362 -314.00003 C 363.3333 -316 364.83337 -318.33334 366.50003 -321 C 368.1667 -323.66666 369.66666 -326.33334 371.00003 -329 C 372.33334 -331.66666 373.83334 -334.33334 375.5 -337.00003 C 377.1667 -339.6667 378.83334 -342.49997 380.5 -345.5 C 382.1667 -348.49997 383.83334 -351.66666 385.5 -355.00003 C 387.16666 -358.33337 388.83334 -361.6667 390.5 -365.00003 C 392.16666 -368.33334 393.83334 -371.83334 395.5 -375.5 C 397.16666 -379.1667 399.00003 -383 401.00003 -387.00003 L 471 -357 C 464.3333 -342.3333 457.66666 -328.66666 451.00003 -316 C 444.33334 -303.33334 437.8333 -292 431.5 -282 C 425.1667 -272 418.83334 -262.83334 412.5 -254.50002 C 406.16666 -246.16667 398.3333 -237.66666 389.00003 -229 C 379.66666 -220.33334 369.3333 -213.16669 358 -207.5 C 346.66666 -201.83333 334.66666 -199 322.00003 -199 Z " id="path1"/></defs><g><g fill="#ffffff" transform="translate(40 105.20961) rotate(0)"><use href="#path1" transform="translate(0 0) scale(0.09599999)"/></g></g></svg>