<?xml version="1.0" encoding="UTF-8" standalone="no"?>
<svg height="160" viewBox="0 0 128 160" width="128" xmlns="http://www.w3.org/2000/svg">
<defs>
<path d="M 64 0 L 64 -70 L 284 -367 Q 298 -386 312.5 -406 Q 327 -426 338.5 -448 Q 350 -470 356 -493.5 Q 362 -517 362 -542 Q 362 -566 356.5 -590.5 Q 351 -615 336.5 -634.5 Q 322 -654 298.5 -663.5 Q 275 -673 251 -673 Q 228 -673 206.5 -665.5 Q 185 -658 169.5 -641.5 Q 154 -625 147 -603.5 Q 140 -582 140 -559 L 140 -555 L 62 -555 L 62 -561 Q 62 -586 67.5 -610.5 Q 73 -635 85 -656.5 Q 97 -678 115 -695.5 Q 133 -713 155 -724 Q 177 -735 201.5 -739 Q 226 -743 251 -743 Q 277 -743 303 -738 Q 329 -733 352 -720 Q 375 -707 392.5 -687.5 Q 410 -668 421 -644 Q 432 -620 436 -594 Q 440 -568 440 -542 Q 440 -512 433 -483 Q 426 -454 413 -427 Q 400 -400 383 -376 Q 366 -352 348 -328 L 347 -326 Q 346 -326 346 -326 L 346 -325 L 157 -70 L 359 -70 L 359 -145 L 436 -145 L 436 0 Z " id="path1"/>
</defs>
<g>
<g data-source-text="2" fill="#dee4e3" transform="translate(40 104.99201) rotate(0) scale(0.09599999)">
<use href="#path1" transform="translate(0 0)"/>
</g>
</g>
</svg>