<?xml version="1.0" encoding="UTF-8" standalone="no"?>
<svg height="160" viewBox="0 0 128 160" width="128" xmlns="http://www.w3.org/2000/svg">
<defs>
<path d="M 209 8 Q 191 8 173 3.5 Q 155 -1 141.5 -13 Q 128 -25 121.5 -43 Q 115 -61 115 -79 L 115 -699 L 193 -699 L 193 -520 L 420 -520 L 420 -450 L 193 -450 L 193 -79 Q 193 -71 197 -63 Q 201 -55 209 -55 Q 212 -55 215.5 -55 Q 219 -55 222 -57 L 423 -222 L 467 -174 L 266 -9 Q 254 1 239 4.5 Q 224 8 209 8 Z " id="path1"/>
</defs>
<g>
<g data-source-text="t" fill="#20242e" transform="translate(40 104.99201) rotate(0) scale(0.09599999)">
<use href="#path1" transform="translate(0 0)"/>
</g>
</g>
</svg>