<?xml version="1.0" encoding="UTF-8" standalone="no"?>
<svg height="160" viewBox="0 0 128 160" width="128" xmlns="http://www.w3.org/2000/svg">
<defs>
<path d="M 252 0 Q 227 -0 202.5 -4.5 Q 178 -9 155.5 -20 Q 133 -31 115 -49 Q 97 -67 85.5 -89 Q 74 -111 68 -135.5 Q 62 -160 62 -185 L 140 -185 Q 140 -163 147.5 -140.5 Q 155 -118 170 -101.5 Q 185 -85 207 -77.5 Q 229 -70 252 -70 Q 270 -70 287.5 -75 Q 305 -80 318.5 -91 Q 332 -102 341.5 -117.5 Q 351 -133 356.5 -150 Q 362 -167 364 -184.5 Q 366 -202 366 -220 Q 366 -238 364 -256 Q 362 -274 356.5 -291 Q 351 -308 341.5 -323.5 Q 332 -339 317.5 -350 Q 303 -361 285.5 -366 Q 268 -371 250 -371 L 157 -371 L 157 -441 L 333 -665 L 64 -665 L 64 -735 L 427 -735 L 427 -665 L 250 -441 Q 278 -441 305.5 -435 Q 333 -429 356.5 -414 Q 380 -399 398 -377 Q 416 -355 426 -329 Q 436 -303 440 -275.5 Q 444 -248 444 -220 Q 444 -192 440 -164.5 Q 436 -137 426 -111.5 Q 416 -86 398.5 -64 Q 381 -42 357.5 -27 Q 334 -12 307 -6 Q 280 0 252 0 Z " id="path1"/>
</defs>
<g>
<g data-source-text="3" fill="#dee4e3" transform="translate(40 104.99201) rotate(0) scale(0.09599999)">
<use href="#path1" transform="translate(0 0)"/>
</g>
</g>
</svg>