<svg xmlns="http://www.w3.org/2000/svg" height="160" viewBox="0 0 128 160" width="128"><defs><path d="M 247 8 C 229.66667 8 212.33333 6 195 2 C 177.66667 -1.9999998 161.66667 -8.666667 147.00002 -18.000002 C 132.33334 -27.333332 119.33333 -38.833332 108 -52.5 C 96.666664 -66.166664 87.66667 -81.166664 81 -97.5 C 74.333336 -113.83333 69.83333 -130.66667 67.5 -148 C 65.166664 -165.33333 64 -182.66667 64 -200.00002 L 64 -450.00003 L 18.000002 -450.00003 L 18.000002 -520.00006 L 142 -520.00006 L 142 -200.00002 C 142 -188.66667 142.5 -177.66667 143.5 -167 C 144.5 -156.33333 146.83333 -145.66666 150.5 -135 C 154.16666 -124.33333 159 -114.333336 165 -105 C 171.00002 -95.66667 178.33333 -87.66667 187 -81 C 195.66667 -74.333336 205.50002 -69.5 216.50002 -66.5 C 227.50002 -63.5 238.33333 -62.000004 249 -62.000004 C 267.66666 -62.000004 286.1667 -64.66667 304.5 -70.00001 C 322.83334 -75.333336 340.66666 -81.666664 358 -89 L 358 -520.00006 L 436 -520.00006 L 436 -46 C 407.3333 -30 377 -16.999998 345 -7 C 313 2.9999998 280.33334 8 247 8 Z " id="path1"/></defs><g><g fill="#ffffff" transform="translate(40 105.20961) rotate(0)"><use href="#path1" transform="translate(0 0) scale(0.09599999)"/></g></g></svg>