<?xml version="1.0" encoding="UTF-8" standalone="no"?>
<svg height="160" viewBox="0 0 128 160" width="128" xmlns="http://www.w3.org/2000/svg">
<defs>
<path d="M 247 8 Q 221 8 195 2 Q 169 -4 147 -18 Q 125 -32 108 -52.5 Q 91 -73 81 -97.5 Q 71 -122 67.5 -148 Q 64 -174 64 -200 L 64 -450 L 18 -450 L 18 -520 L 142 -520 L 142 -200 Q 142 -183 143.5 -167 Q 145 -151 150.5 -135 Q 156 -119 165 -105 Q 174 -91 187 -81 Q 200 -71 216.5 -66.5 Q 233 -62 249 -62 Q 278 -62 305 -70 Q 332 -78 358 -89 L 358 -450 L 312 -450 L 312 -520 L 436 -520 L 436 -46 Q 393 -22 345 -7 Q 297 8 247 8 Z " id="path1"/>
</defs>
<g>
<g data-source-text="u" fill="#20242e" transform="translate(40 104.99201) rotate(0) scale(0.09599999)">
<use href="#path1" transform="translate(0 0)"/>
</g>
</g>
</svg>