<svg xmlns="http://www.w3.org/2000/svg" height="160" viewBox="0 0 128 160" width="128"><defs><path d="M 250 8 C 232.66666 8 215.16666 6.1666665 197.50002 2.5000002 C 179.83334 -1.1666665 163.5 -7.666667 148.50002 -17 C 133.5 -26.333332 120.33333 -37.833336 109 -51.500004 C 97.666664 -65.16667 88.666664 -80.16667 82.00001 -96.5 C 75.333336 -112.833336 70.66667 -129.83333 68 -147.5 C 65.333336 -165.16667 64 -182.66667 64 -200.00002 L 64 -520.00006 L 142 -520.00006 L 142 -200.00002 C 142 -188.66667 142.66666 -177.50002 144.00002 -166.5 C 145.33333 -155.5 147.66666 -144.83333 151 -134.5 C 154.33334 -124.166664 159.16667 -114.333336 165.50002 -105 C 171.83333 -95.66667 179.33333 -87.66667 188.00002 -81 C 196.66666 -74.333336 206.33333 -69.5 217.00002 -66.5 C 227.66666 -63.5 238.66666 -62.000004 250 -62.000004 C 261.33334 -62.000004 272.33334 -63.5 283.00003 -66.5 C 293.6667 -69.5 303.33334 -74.333336 312 -81 C 320.6667 -87.66667 328.1667 -95.66667 334.5 -105 C 340.83334 -114.333336 345.6667 -124.166664 349.00003 -134.5 C 352.33334 -144.83333 354.6667 -155.5 356 -166.5 C 357.33334 -177.50002 358 -188.66667 358 -200.00002 L 358 -520.00006 L 436 -520.00006 L 436 -200.00002 C 435.99997 -182.66667 434.66666 -165.16667 432 -147.5 C 429.33334 -129.83333 424.66666 -112.833336 418.00003 -96.5 C 411.33334 -80.16667 402.3333 -65.16667 391 -51.500004 C 379.66666 -37.833336 366.5 -26.333332 351.5 -17 C 336.49997 -7.666667 320.16666 -1.1666665 302.50003 2.5000002 C 284.83334 6.1666665 267.33334 8 250 8 Z " id="path1"/></defs><g><g fill="#ffffff" transform="translate(40 105.20961) rotate(0)"><use href="#path1" transform="translate(0 0) scale(0.09599999)"/></g></g></svg>