<svg xmlns="http://www.w3.org/2000/svg" height="160" viewBox="0 0 128 160" width="128"><defs><path d="M 220.00002 8 C 203.33333 8 187 5.6666665 171.00002 1 C 155 -3.6666665 140.83334 -11.166667 128.50002 -21.500002 C 116.16667 -31.833332 105.66667 -44.166664 97.00001 -58.500004 C 88.33333 -72.833336 81.5 -87.833336 76.5 -103.5 C 71.5 -119.166664 68.166664 -135.16667 66.5 -151.5 C 64.833336 -167.83333 64 -184 64 -200.00002 L 64 -520.00006 L 142 -520.00006 L 142 -200.00002 C 142 -188.66667 142.66666 -177.50002 144.00002 -166.5 C 145.33333 -155.5 147.66666 -144.83333 151 -134.5 C 154.33334 -124.166664 159.16667 -114.333336 165.50002 -105 C 171.83333 -95.66667 179.33333 -87.66667 188.00002 -81 C 196.66666 -74.333336 206.33333 -69.5 217.00002 -66.5 C 227.66666 -63.5 238.66666 -62.000004 250 -62.000004 C 261.33334 -62.000004 272.33334 -63.5 283.00003 -66.5 C 293.6667 -69.5 303.33334 -74.333336 312 -81 C 320.6667 -87.66667 328.1667 -95.66667 334.5 -105 C 340.83334 -114.333336 345.6667 -124.166664 349.00003 -134.5 C 352.33334 -144.83333 354.6667 -155.5 356 -166.5 C 357.33334 -177.50002 358 -188.66667 358 -200.00002 L 358 -520.00006 L 436 -520.00006 L 436 -93.00001 C 435.99997 -89.00001 436.66666 -85 438.00003 -81 C 439.33337 -77 441.50003 -73.5 444.50003 -70.5 C 447.5 -67.5 451 -65.33333 455.00003 -64 C 459 -62.666668 463 -62.000004 467.00003 -62.000004 L 482 -62.000004 L 482 8 L 467.00003 8 C 453 8 439.1667 6.1666665 425.5 2.5000002 C 411.83334 -1.1666665 399.6667 -7.5 389.00003 -16.5 C 378.33334 -25.5 370.50003 -36.666668 365.50003 -50.000004 C 360.50003 -63.333336 358 -77.00001 358 -91 C 352.66666 -77.00001 345.66666 -63.666668 337.00003 -51 C 328.33334 -38.333332 317.83334 -27.333332 305.50003 -18.000002 C 293.16666 -8.666667 279.5 -1.9999998 264.5 2 C 249.5 6 234.66667 8 220.00002 8 Z " id="path1"/></defs><g><g fill="#ffffff" transform="translate(40 105.20961) rotate(0)"><use href="#path1" transform="translate(0 0) scale(0.09599999)"/></g></g></svg>