<?xml version="1.0" encoding="UTF-8" standalone="no"?>
<svg height="160" viewBox="0 0 128 160" width="128" xmlns="http://www.w3.org/2000/svg">
<defs>
<path d="M 247 8 Q 220 8 194.5 2 Q 169 -4 147 -18 Q 125 -32 108 -52.5 Q 91 -73 81 -97.5 Q 71 -122 67.5 -148 Q 64 -174 64 -200 L 64 -520 L 142 -520 L 142 -200 Q 142 -184 143.5 -167.5 Q 145 -151 150.5 -135 Q 156 -119 165 -105 Q 174 -91 187 -81 Q 200 -71 216 -66.5 Q 232 -62 249 -62 Q 277 -62 304.5 -70.5 Q 332 -79 358 -90 L 358 -520 L 436 -520 L 436 -49 Q 393 -24 345 -8 Q 297 8 247 8 Z " id="path1"/>
</defs>
<g>
<g data-source-text="u" fill="#dee4e3" transform="translate(40 104.99201) rotate(0) scale(0.09599999)">
<use href="#path1" transform="translate(0 0)"/>
</g>
</g>
</svg>