<?xml version="1.0" encoding="UTF-8" standalone="no"?>
<svg height="160" viewBox="0 0 128 160" width="128" xmlns="http://www.w3.org/2000/svg">
<defs>
<path d="M 183 8 Q 164 8 145 2.5 Q 126 -3 112.5 -16.5 Q 99 -30 93 -48.5 Q 87 -67 87 -86 L 87 -450 L 18 -450 L 18 -520 L 165 -520 L 165 -86 Q 165 -78 169.5 -70 Q 174 -62 183 -62 Q 211 -62 237.5 -73 Q 264 -84 285 -102 Q 306 -120 321.5 -144 Q 337 -168 347 -194 Q 357 -220 361.5 -247.5 Q 366 -275 366 -303 Q 366 -353 353.5 -402 Q 341 -451 319 -496 L 388 -528 Q 415 -476 429.5 -419 Q 444 -362 444 -304 Q 444 -267 437 -229.5 Q 430 -192 415 -157.5 Q 400 -123 376.5 -92.5 Q 353 -62 323 -39.5 Q 293 -17 257 -4.5 Q 221 8 183 8 Z " id="path1"/>
</defs>
<g>
<g data-source-text="v" fill="#dee4e3" transform="translate(40 104.99201) rotate(0) scale(0.09599999)">
<use href="#path1" transform="translate(0 0)"/>
</g>
</g>
</svg>