<svg xmlns="http://www.w3.org/2000/svg" height="160" viewBox="0 0 128 160" width="128"><defs><path d="M 205.00002 0 C 195 -24 184.99998 -48.166668 175 -72.5 C 165 -96.83333 155.33333 -121.33333 146 -146 C 136.66666 -170.66666 127.66666 -195.5 119 -220.5 C 110.33333 -245.5 102.33333 -270.5 95 -295.5 C 87.66667 -320.5 81.166664 -346 75.5 -372.00003 C 69.83333 -398 66 -424 64 -450.00003 L 18.000002 -450.00003 L 18.000002 -520.00006 L 142 -520.00006 L 142 -468.00003 C 142 -444.00003 144 -420.3333 148 -397 C 152 -373.66666 156.83333 -350.3333 162.50002 -327 C 168.16666 -303.66666 174.33334 -280.66666 181 -258 C 187.66666 -235.33333 194.66667 -212.66666 202.00002 -190 C 209.33333 -167.33333 217 -144.83333 225.00002 -122.50001 C 233 -100.166664 241.33333 -78 250 -56 L 250 -56 L 250 -56 L 253.00002 -63 C 261 -85 269 -107 277.00003 -129 C 285 -151 292.66666 -172.99998 300.00003 -195 C 307.33334 -217 314.1667 -239.33334 320.5 -262 C 326.83334 -284.66666 332.6667 -307.3333 338.00003 -330 C 343.33334 -352.66666 347.99997 -375.5 352 -398.50003 C 356 -421.49997 358 -444.6667 358 -468.00003 L 358 -520.00006 L 436 -520.00006 L 436 -468.00003 C 435.99997 -440.6667 433.1667 -413.5 427.50003 -386.5 C 421.83334 -359.50003 415.3333 -333 408 -307 C 400.66666 -281 392.66666 -255 384 -229 C 375.3333 -203 366.1667 -177.16667 356.5 -151.5 C 346.8333 -125.833336 336.83334 -100.5 326.5 -75.5 C 316.16666 -50.500004 305.6667 -25.333334 295 0 Z " id="path1"/></defs><g><g fill="#ffffff" transform="translate(40 105.20961) rotate(0)"><use href="#path1" transform="translate(0 0) scale(0.09599999)"/></g></g></svg>