<?xml version="1.0" encoding="UTF-8" standalone="no"?>
<svg height="160" viewBox="0 0 128 160" width="128" xmlns="http://www.w3.org/2000/svg">
<defs>
<path d="M 205 0 Q 190 -36 175 -72.5 Q 160 -109 146 -146 Q 132 -183 119 -220.5 Q 106 -258 95 -295.5 Q 84 -333 75.5 -372 Q 67 -411 64 -450 L 18 -450 L 18 -520 L 188 -520 L 188 -450 L 142 -450 Q 145 -399 157 -349 Q 169 -299 183.5 -249.5 Q 198 -200 215 -152 Q 232 -104 250 -56 Q 268 -104 285 -152 Q 302 -200 316.5 -249.5 Q 331 -299 343 -349 Q 355 -399 358 -450 L 312 -450 L 312 -520 L 482 -520 L 482 -450 L 436 -450 Q 433 -411 424.5 -372 Q 416 -333 405 -295.5 Q 394 -258 381 -220.5 Q 368 -183 354 -146 Q 340 -109 325 -72.5 Q 310 -36 295 0 Z " id="path1"/>
</defs>
<g>
<g data-source-text="v" fill="#dee4e3" transform="translate(40 104.99201) rotate(0) scale(0.09599999)">
<use href="#path1" transform="translate(0 0)"/>
</g>
</g>
</svg>