<?xml version="1.0" encoding="UTF-8" standalone="no"?>
<svg height="160" viewBox="0 0 128 160" width="128" xmlns="http://www.w3.org/2000/svg">
<defs>
<path d="M 174 8 Q 157 8 139.5 3 Q 122 -2 110 -14.5 Q 98 -27 92.5 -44 Q 87 -61 87 -78 L 87 -450 L 18 -450 L 18 -520 L 165 -520 L 165 -78 Q 165 -73 167 -67.5 Q 169 -62 174 -62 Q 203 -62 230 -72.5 Q 257 -83 279.5 -101 Q 302 -119 318.5 -142.5 Q 335 -166 346 -192.5 Q 357 -219 361.5 -247.5 Q 366 -276 366 -305 Q 366 -354 353.5 -403 Q 341 -452 319 -496 L 388 -528 Q 415 -477 429.5 -420 Q 444 -363 444 -305 Q 444 -267 436.5 -229 Q 429 -191 413 -156 Q 397 -121 373 -91 Q 349 -61 317.5 -39 Q 286 -17 249 -4.5 Q 212 8 174 8 Z " id="path1"/>
</defs>
<g>
<g data-source-text="v" fill="#20242e" transform="translate(40 104.99201) rotate(0) scale(0.09599999)">
<use href="#path1" transform="translate(0 0)"/>
</g>
</g>
</svg>