<svg xmlns="http://www.w3.org/2000/svg" height="160" viewBox="0 0 128 160" width="128"><defs><path d="M 183.00002 8 C 170.33333 8 157.66667 6.1666665 145 2.5000002 C 132.33333 -1.1666665 121.5 -7.5 112.50001 -16.5 C 103.5 -25.5 97.00001 -36.166668 93.00001 -48.500004 C 89.00001 -60.833332 87.00001 -73.333336 87.00001 -86.00001 L 87.00001 -450.00003 L 18.000002 -450.00003 L 18.000002 -520.00006 L 165 -520.00006 L 165 -86.00001 C 165 -80.66667 166.5 -75.333336 169.5 -70.00001 C 172.5 -64.66667 177.00002 -62.000004 183.00002 -62.000004 C 201.66667 -62.000004 219.83334 -65.666664 237.50002 -73 C 255.16666 -80.333336 271 -90 285 -102 C 299 -114.00001 311.16666 -128 321.5 -144.00002 C 331.83334 -160.00002 340.3333 -176.66666 347 -194.00002 C 353.66663 -211.33334 358.49997 -229.16667 361.5 -247.50002 C 364.50003 -265.8333 366.00003 -284.3333 366.00003 -303 C 366.00003 -336.3333 361.83334 -369.33334 353.50003 -402 C 345.1667 -434.66666 333.66666 -466 319.00003 -496.00003 L 388.00003 -528 C 406 -493.3333 419.83334 -457 429.50003 -419 C 439.1667 -380.99997 444.00003 -342.66663 444.00003 -304 C 444.00003 -279.33334 441.66666 -254.5 437 -229.5 C 432.3333 -204.5 424.99997 -180.5 415 -157.5 C 405.00003 -134.5 392.16672 -112.833336 376.50003 -92.50001 C 360.83334 -72.16667 343.00003 -54.5 323 -39.5 C 303 -24.5 281 -12.833334 257.00003 -4.5000005 C 233 3.8333333 208.33334 8 183.00002 8 Z " id="path1"/></defs><g><g fill="#000000" transform="translate(40 105.20961) rotate(0)"><use href="#path1" transform="translate(0 0) scale(0.09599999)"/></g></g></svg>