<svg xmlns="http://www.w3.org/2000/svg" height="160" viewBox="0 0 128 160" width="128"><defs><path d="M 333 8 C 321.66666 8 311 5.1666665 301 -0.5 C 291 -6.1666665 282.6667 -13.5 276 -22.500002 C 269.33334 -31.5 263.66666 -41.333332 259 -52.000004 C 254.33333 -62.666668 250.66667 -73.333336 248.00002 -84.00001 C 243.33333 -72 238 -60.499996 232 -49.5 C 226 -38.499996 218.5 -28.499998 209.5 -19.5 C 200.5 -10.500001 190 -3.6666665 178 1 C 166 5.6666665 153.66667 8 141 8 C 128.33333 8 116 6 104.00001 2 C 92.00001 -1.9999998 81.50001 -8.500001 72.5 -17.500002 C 63.5 -26.500002 57.166668 -37 53.500004 -49 C 49.833336 -61 48 -73.333336 48 -86.00001 L 48 -520.00006 L 126 -520.00006 L 126 -86.00001 C 125.99999 -82.666664 126.49999 -79.5 127.5 -76.5 C 128.5 -73.5 130.16667 -70.833336 132.5 -68.50001 C 134.83334 -66.16667 137.66667 -64.5 141 -63.500004 C 144.33333 -62.5 147.66666 -62.000004 151 -62.000004 C 159 -62.000004 166.33333 -65 173 -71 C 179.66669 -77.00001 184.83333 -83.666664 188.50002 -91 C 192.16667 -98.33333 195.16667 -106 197.50002 -114.00001 C 199.83334 -122 201.83333 -130.16666 203.5 -138.50002 C 205.16666 -146.83333 206.50002 -155.16667 207.5 -163.5 C 208.5 -171.83333 209.16667 -180.16667 209.5 -188.50002 C 209.83333 -196.83334 210.16666 -205.16666 210.50002 -213.50002 C 210.83334 -221.83333 211.00002 -230.33333 211.00002 -239.00002 L 211.00002 -379 L 289 -379 L 289 -239.00002 C 289 -232.33333 289 -225.83333 289 -219.50002 C 289 -213.16666 289.16666 -206.83333 289.5 -200.50002 C 289.83334 -194.16667 290.16666 -187.83333 290.5 -181.5 C 290.8333 -175.16667 291.3333 -168.83334 292 -162.50002 C 292.66666 -156.16666 293.33334 -149.83333 294.00003 -143.5 C 294.6667 -137.16666 295.66666 -130.83333 297.00003 -124.5 C 298.33334 -118.16667 299.6667 -111.833336 301 -105.50001 C 302.3333 -99.166664 304.16666 -93 306.5 -87.00001 C 308.83334 -81 312.16666 -75.333336 316.50003 -70.00001 C 320.83334 -64.66667 326.33334 -62.000004 333 -62.000004 C 339.6667 -62.000004 345.33334 -64.833336 350 -70.5 C 354.66666 -76.166664 358.3333 -82.333336 361.00003 -89 C 363.66666 -95.66667 365.83334 -102.33333 367.5 -109 C 369.16666 -115.666664 370.6667 -122.33333 372.00003 -129 C 373.33334 -135.66666 374.5 -142.5 375.5 -149.5 C 376.50003 -156.5 377.33334 -163.33334 378.00003 -170 C 378.66666 -176.66666 379.33334 -183.5 380 -190.5 C 380.66666 -197.5 381.16666 -204.5 381.50003 -211.50002 C 381.8333 -218.5 382.00003 -225.5 382.00003 -232.5 C 382.00003 -239.50002 382.00003 -246.33334 382.00003 -253.00002 C 382.00003 -295.6667 378.5 -338.1667 371.50003 -380.5 C 364.50003 -422.83334 353.33337 -464 338.00003 -504 L 411.00003 -528 C 427.00003 -483.99997 439.1667 -438.83334 447.5 -392.5 C 455.83334 -346.16666 460 -299.6667 460 -253.00002 C 460 -239.66667 459.66666 -226.33333 459 -213 C 458.3333 -199.66667 457.16666 -186.5 455.50003 -173.5 C 453.8333 -160.5 451.66666 -147.5 449 -134.5 C 446.33334 -121.5 443 -108.50001 439.00003 -95.50001 C 435 -82.5 430 -70 424 -58 C 418 -46 410.6667 -35.000004 402 -25.000002 C 393.33337 -15.000001 383.00003 -7 371.00003 -1 C 359.00003 4.9999995 346.33334 8 333 8 Z " id="path1"/></defs><g><g fill="#000000" transform="translate(40 105.20961) rotate(0)"><use href="#path1" transform="translate(0 0) scale(0.09599999)"/></g></g></svg>