<?xml version="1.0" encoding="UTF-8" standalone="no"?>
<svg height="160" viewBox="0 0 128 160" width="128" xmlns="http://www.w3.org/2000/svg">
<defs>
<path d="M 137 8 Q 119 8 102 2.5 Q 85 -3 73 -15.5 Q 61 -28 56 -45.5 Q 51 -63 51 -80 L 51 -450 L 5 -450 L 5 -520 L 122 -520 L 122 -80 Q 122 -75 123 -70.5 Q 124 -66 127.5 -62.5 Q 131 -59 136 -57.5 Q 141 -56 146 -56 Q 159 -56 169.5 -64 Q 180 -72 187 -83 Q 194 -94 198 -106.5 Q 202 -119 205 -131.5 Q 208 -144 210 -157 Q 212 -170 213 -183 Q 214 -196 214.5 -209 Q 215 -222 215 -235 L 215 -377 L 285 -377 L 285 -235 Q 285 -225 285.5 -215 Q 286 -205 286 -195.5 Q 286 -186 287 -176 Q 288 -166 289 -156 Q 290 -146 291.5 -136.5 Q 293 -127 295 -117.5 Q 297 -108 300 -98.5 Q 303 -89 307 -80 Q 311 -71 318.5 -63.5 Q 326 -56 336 -56 Q 346 -56 353 -64.5 Q 360 -73 364 -82.5 Q 368 -92 371 -102 Q 374 -112 376 -122 Q 378 -132 379.5 -142.5 Q 381 -153 382 -163 Q 383 -173 384 -183.5 Q 385 -194 385.5 -204.5 Q 386 -215 386.5 -225 Q 387 -235 387 -246 Q 387 -312 375.5 -378.5 Q 364 -445 342 -508 L 409 -528 Q 432 -460 444.5 -389 Q 457 -318 457 -246 Q 457 -227 456 -208.5 Q 455 -190 453 -171 Q 451 -152 447.5 -133 Q 444 -114 439 -96 Q 434 -78 427 -60.5 Q 420 -43 408.5 -27.5 Q 397 -12 380.5 -2 Q 364 8 345 8 Q 326 8 309 -1 Q 292 -10 280.5 -24.5 Q 269 -39 261.5 -56 Q 254 -73 249 -91 Q 242 -72 232.5 -54 Q 223 -36 209 -21.5 Q 195 -7 176 0.5 Q 157 8 137 8 Z " id="path1"/>
</defs>
<g>
<g data-source-text="w" fill="#dee4e3" transform="translate(40 104.99201) rotate(0) scale(0.09599999)">
<use href="#path1" transform="translate(0 0)"/>
</g>
</g>
</svg>