<?xml version="1.0" encoding="UTF-8" standalone="no"?>
<svg height="160" viewBox="0 0 128 160" width="128" xmlns="http://www.w3.org/2000/svg">
<defs>
<path d="M 158 8 Q 134 8 110.5 -2.5 Q 87 -13 73 -33 Q 59 -53 53.5 -77.5 Q 48 -102 48 -126 L 48 -450 L 2 -450 L 2 -520 L 172 -520 L 172 -450 L 126 -450 L 126 -126 Q 126 -115 127.5 -104.5 Q 129 -94 134 -84 Q 139 -74 148.5 -68 Q 158 -62 169 -62 Q 179 -62 188.5 -68 Q 198 -74 203 -84 Q 208 -94 209.5 -104.5 Q 211 -115 211 -126 L 211 -312 L 289 -312 L 289 -126 Q 289 -115 290.5 -104.5 Q 292 -94 297 -84 Q 302 -74 311.5 -68 Q 321 -62 331 -62 Q 342 -62 351.5 -68 Q 361 -74 366 -84 Q 371 -94 372.5 -104.5 Q 374 -115 374 -126 L 374 -450 L 328 -450 L 328 -520 L 498 -520 L 498 -450 L 452 -450 L 452 -126 Q 452 -102 446.5 -77.5 Q 441 -53 427 -33 Q 413 -13 389.5 -2.5 Q 366 8 342 8 Q 327 8 313 4.5 Q 299 1 286.5 -6.5 Q 274 -14 265 -25.5 Q 256 -37 250 -50 Q 244 -37 235 -25.5 Q 226 -14 213.5 -6.5 Q 201 1 187 4.5 Q 173 8 158 8 Z " id="path1"/>
</defs>
<g>
<g data-source-text="w" fill="#dee4e3" transform="translate(40 104.99201) rotate(0) scale(0.09599999)">
<use href="#path1" transform="translate(0 0)"/>
</g>
</g>
</svg>