<?xml version="1.0" encoding="UTF-8" standalone="no"?>
<svg height="160" viewBox="0 0 128 160" width="128" xmlns="http://www.w3.org/2000/svg">
<defs>
<path d="M 135 0 Q 125 -32 115.5 -64 Q 106 -96 97 -128 Q 88 -160 80 -192.5 Q 72 -225 65 -257.5 Q 58 -290 53 -323.5 Q 48 -357 48 -390 L 48 -450 L 14 -450 L 14 -520 L 158 -520 L 158 -450 L 126 -450 L 126 -390 Q 126 -349 130 -308.5 Q 134 -268 139.5 -227.5 Q 145 -187 151.5 -146.5 Q 158 -106 165 -65 L 223 -312 L 277 -312 L 335 -65 Q 342 -106 348.5 -146.5 Q 355 -187 360.5 -227.5 Q 366 -268 370 -308.5 Q 374 -349 374 -390 L 374 -450 L 342 -450 L 342 -520 L 486 -520 L 486 -450 L 452 -450 L 452 -390 Q 452 -357 447 -323.5 Q 442 -290 435 -257.5 Q 428 -225 420 -192.5 Q 412 -160 403 -128 Q 394 -96 384.5 -64 Q 375 -32 365 0 L 310 0 L 250 -255 L 190 0 Z " id="path1"/>
</defs>
<g>
<g data-source-text="w" fill="#dee4e3" transform="translate(40 104.99201) rotate(0) scale(0.09599999)">
<use href="#path1" transform="translate(0 0)"/>
</g>
</g>
</svg>