<?xml version="1.0" encoding="UTF-8" standalone="no"?>
<svg height="160" viewBox="0 0 128 160" width="128" xmlns="http://www.w3.org/2000/svg">
<defs>
<path d="M 135 0 Q 125 -32 116 -64 Q 107 -96 98 -128 Q 89 -160 81 -192.5 Q 73 -225 66.5 -257.5 Q 60 -290 55.5 -323.5 Q 51 -357 51 -390 L 51 -520 L 126 -520 L 126 -390 Q 126 -350 130 -310 Q 134 -270 140 -230.5 Q 146 -191 152.5 -151.5 Q 159 -112 166 -72 L 220 -312 L 280 -312 L 334 -72 Q 341 -112 347.5 -151.5 Q 354 -191 360 -230.5 Q 366 -270 370 -310 Q 374 -350 374 -390 L 374 -520 L 449 -520 L 449 -390 Q 449 -357 444.5 -323.5 Q 440 -290 433.5 -257.5 Q 427 -225 419 -192.5 Q 411 -160 402 -128 Q 393 -96 384 -64 Q 375 -32 365 0 L 305 0 L 250 -245 L 195 0 Z " id="path1"/>
</defs>
<g>
<g data-source-text="w" fill="#20242e" transform="translate(40 104.99201) rotate(0) scale(0.09599999)">
<use href="#path1" transform="translate(0 0)"/>
</g>
</g>
</svg>