<svg xmlns="http://www.w3.org/2000/svg" height="160" viewBox="0 0 128 160" width="128"><defs><path d="M 135 0 C 128.33333 -21.333332 121.83333 -42.666664 115.50001 -64 C 109.166664 -85.33333 103 -106.666664 97.00001 -128 C 91 -149.33334 85.33333 -170.83333 80.00001 -192.5 C 74.66667 -214.16667 69.666664 -235.83333 65.00001 -257.5 C 60.333332 -279.16666 56.33333 -301.16666 53 -323.5 C 49.666664 -345.8333 48 -367.99997 48 -390 L 48 -450.00003 L 2 -450.00003 L 2 -520.00006 L 126 -520.00006 L 126 -390 C 125.99999 -362.6667 127.33333 -335.5 130.00002 -308.50003 C 132.66667 -281.5 135.83333 -254.5 139.5 -227.50002 C 143.16667 -200.5 147.16667 -173.5 151.5 -146.5 C 155.83333 -119.50001 160.33334 -92.33333 165 -65.00001 L 223.00002 -312 L 277.00003 -312 L 335 -65.00001 C 339.66666 -92.33333 344.1667 -119.50001 348.50003 -146.5 C 352.83337 -173.5 356.83334 -200.5 360.50003 -227.50002 C 364.16666 -254.5 367.33334 -281.5 370.00003 -308.50003 C 372.6667 -335.5 374 -362.6667 374 -390 L 374 -520.00006 L 452.00003 -520.00006 L 452.00003 -390 C 452 -367.99997 450.33334 -345.8333 447 -323.5 C 443.66666 -301.16666 439.6667 -279.16666 435.00003 -257.5 C 430.33334 -235.83333 425.33334 -214.16667 420 -192.5 C 414.66666 -170.83333 409 -149.33334 403 -128 C 397 -106.666664 390.83334 -85.33333 384.5 -64 C 378.16666 -42.666664 371.6667 -21.333332 365.00003 0 L 310 0 L 250 -255 L 190 0 Z " id="path1"/></defs><g><g fill="#000000" transform="translate(40 105.20961) rotate(0)"><use href="#path1" transform="translate(0 0) scale(0.09599999)"/></g></g></svg>