<?xml version="1.0" encoding="UTF-8" standalone="no"?>
<svg height="160" viewBox="0 0 128 160" width="128" xmlns="http://www.w3.org/2000/svg">
<defs>
<path d="M 129 8 Q 113 8 97.5 3 Q 82 -2 71 -13.5 Q 60 -25 55.5 -40.5 Q 51 -56 51 -72 L 51 -520 L 122 -520 L 122 -72 Q 122 -65 126.5 -60.5 Q 131 -56 138 -56 Q 151 -56 162.5 -63 Q 174 -70 182 -81 Q 190 -92 195 -104 Q 200 -116 203.5 -129 Q 207 -142 209 -155 Q 211 -168 212.5 -181.5 Q 214 -195 214.5 -208.5 Q 215 -222 215 -235 L 215 -377 L 285 -377 L 285 -235 Q 285 -225 285.5 -215 Q 286 -205 286 -195.5 Q 286 -186 287 -176 Q 288 -166 289 -156 Q 290 -146 291.5 -136.5 Q 293 -127 295 -117.5 Q 297 -108 300 -98.5 Q 303 -89 307 -80 Q 311 -71 318.5 -63.5 Q 326 -56 336 -56 Q 346 -56 353 -64.5 Q 360 -73 364 -82.5 Q 368 -92 371 -102 Q 374 -112 376 -122 Q 378 -132 379.5 -142.5 Q 381 -153 382 -163 Q 383 -173 384 -183.5 Q 385 -194 385.5 -204.5 Q 386 -215 386.5 -225 Q 387 -235 387 -246 Q 387 -312 375.5 -378.5 Q 364 -445 342 -508 L 409 -528 Q 432 -460 444.5 -389 Q 457 -318 457 -246 Q 457 -227 456 -208.5 Q 455 -190 453 -171 Q 451 -152 447.5 -133 Q 444 -114 439 -96 Q 434 -78 427 -60.5 Q 420 -43 408.5 -27.5 Q 397 -12 380.5 -2 Q 364 8 345 8 Q 326 8 308.5 -1 Q 291 -10 279.5 -25 Q 268 -40 260.5 -57.5 Q 253 -75 248 -93 Q 241 -73 231 -54.5 Q 221 -36 205.5 -21.5 Q 190 -7 170 0.5 Q 150 8 129 8 Z " id="path1"/>
</defs>
<g>
<g data-source-text="w" fill="#20242e" transform="translate(40 104.99201) rotate(0) scale(0.09599999)">
<use href="#path1" transform="translate(0 0)"/>
</g>
</g>
</svg>