<?xml version="1.0" encoding="UTF-8" standalone="no"?>
<svg height="160" viewBox="0 0 128 160" width="128" xmlns="http://www.w3.org/2000/svg">
<defs>
<path d="M 333 8 Q 316 8 301 -0.5 Q 286 -9 276 -22.5 Q 266 -36 259 -52 Q 252 -68 248 -84 Q 241 -66 232 -49.5 Q 223 -33 209.5 -19.5 Q 196 -6 178 1 Q 160 8 141 8 Q 122 8 104 2 Q 86 -4 72.5 -17.5 Q 59 -31 53.5 -49 Q 48 -67 48 -86 L 48 -520 L 126 -520 L 126 -86 Q 126 -81 127.5 -76.5 Q 129 -72 132.5 -68.5 Q 136 -65 141 -63.5 Q 146 -62 151 -62 Q 163 -62 173 -71 Q 183 -80 188.5 -91 Q 194 -102 197.5 -114 Q 201 -126 203.5 -138.5 Q 206 -151 207.5 -163.5 Q 209 -176 209.5 -188.5 Q 210 -201 210.5 -213.5 Q 211 -226 211 -239 L 211 -379 L 289 -379 L 289 -239 Q 289 -229 289 -219.5 Q 289 -210 289.5 -200.5 Q 290 -191 290.5 -181.5 Q 291 -172 292 -162.5 Q 293 -153 294 -143.5 Q 295 -134 297 -124.5 Q 299 -115 301 -105.5 Q 303 -96 306.5 -87 Q 310 -78 316.5 -70 Q 323 -62 333 -62 Q 343 -62 350 -70.5 Q 357 -79 361 -89 Q 365 -99 367.5 -109 Q 370 -119 372 -129 Q 374 -139 375.5 -149.5 Q 377 -160 378 -170 Q 379 -180 380 -190.5 Q 381 -201 381.5 -211.5 Q 382 -222 382 -232.5 Q 382 -243 382 -253 Q 382 -317 371.5 -380.5 Q 361 -444 338 -504 L 411 -528 Q 435 -462 447.5 -392.5 Q 460 -323 460 -253 Q 460 -233 459 -213 Q 458 -193 455.5 -173.5 Q 453 -154 449 -134 Q 445 -114 439 -95 Q 433 -76 424 -58 Q 415 -40 402 -25 Q 389 -10 370.5 -1 Q 352 8 333 8 Z " id="path1"/>
</defs>
<g>
<g data-source-text="w" fill="#dee4e3" transform="translate(40 104.99201) rotate(0) scale(0.09599999)">
<use href="#path1" transform="translate(0 0)"/>
</g>
</g>
</svg>