<?xml version="1.0" encoding="UTF-8" standalone="no"?>
<svg height="160" viewBox="0 0 128 160" width="128" xmlns="http://www.w3.org/2000/svg">
<defs>
<path d="M 436 0 Q 419 -0 401.5 -1 Q 384 -2 367.5 -7 Q 351 -12 337.5 -22 Q 324 -32 313.5 -45.5 Q 303 -59 294 -74 Q 285 -89 278 -105 L 250 -167 L 222 -105 Q 215 -89 206 -74 Q 197 -59 186.5 -45.5 Q 176 -32 162.5 -22 Q 149 -12 132.5 -7 Q 116 -2 98.5 -1 Q 81 -0 64 0 L 64 -70 Q 79 -70 94 -72.5 Q 109 -75 120 -84.5 Q 131 -94 138 -107 Q 145 -120 151 -133 L 208 -260 L 151 -387 Q 145 -400 138 -413 Q 131 -426 120 -435.5 Q 109 -445 94 -447.5 Q 79 -450 64 -450 L 64 -520 Q 81 -520 98.5 -519 Q 116 -518 132.5 -513 Q 149 -508 162.5 -498 Q 176 -488 186.5 -474.5 Q 197 -461 206 -446 Q 215 -431 222 -415 L 250 -353 L 278 -415 Q 285 -431 294 -446 Q 303 -461 313.5 -474.5 Q 324 -488 337.5 -498 Q 351 -508 367.5 -513 Q 384 -518 401.5 -519 Q 419 -520 436 -520 L 436 -450 Q 421 -450 406 -447.5 Q 391 -445 380 -435.5 Q 369 -426 362 -413 Q 355 -400 349 -387 L 292 -260 L 349 -133 Q 355 -120 362 -107 Q 369 -94 380 -84.5 Q 391 -75 406 -72.5 Q 421 -70 436 -70 Z " id="path1"/>
</defs>
<g>
<g data-source-text="x" fill="#20242e" transform="translate(40 104.99201) rotate(0) scale(0.09599999)">
<use href="#path1" transform="translate(0 0)"/>
</g>
</g>
</svg>