<svg xmlns="http://www.w3.org/2000/svg" height="160" viewBox="0 0 128 160" width="128"><defs><path d="M 18.000002 0 L 18.000002 -70.00001 L 71 -70.00001 C 77.00001 -89.333336 85.33333 -107.83333 96 -125.50001 C 106.666664 -143.16667 118.666664 -160 132 -176 L 202.00002 -260.00003 L 132 -344.00003 C 118.666664 -360 106.666664 -376.83334 96 -394.50003 C 85.33333 -412.1667 77.00001 -430.66666 71 -450.00003 L 18.000002 -450.00003 L 18.000002 -520.00006 L 188.00002 -520.00006 L 188.00002 -450.00003 L 152 -450.00003 C 156.66667 -438.6667 162.5 -428 169.5 -418.00003 C 176.50002 -408 184 -398.3333 192 -389.00003 L 250 -318 L 308.00003 -389.00003 C 316 -398.3333 323.5 -408 330.50003 -418.00003 C 337.50003 -428 343.33334 -438.6667 348.00003 -450.00003 L 312 -450.00003 L 312 -520.00006 L 482 -520.00006 L 482 -450.00003 L 429.00003 -450.00003 C 423 -430.66666 414.66666 -412.1667 404.00003 -394.50003 C 393.3333 -376.83334 381.3333 -360 368 -344.00003 L 298 -260.00003 L 368 -176 C 381.3333 -160 393.3333 -143.16667 404.00003 -125.50001 C 414.66666 -107.83333 423 -89.333336 429.00003 -70.00001 L 482 -70.00001 L 482 0 L 312 0 L 312 -70.00001 L 348.00003 -70.00001 C 343.33334 -81.333336 337.50003 -92 330.50003 -102 C 323.5 -112 316 -121.66667 308.00003 -131 L 250 -202.00002 L 192 -131 C 184 -121.66667 176.50002 -112 169.5 -102 C 162.5 -92 156.66667 -81.333336 152 -70.00001 L 188.00002 -70.00001 L 188.00002 0 Z " id="path1"/></defs><g><g fill="#000000" transform="translate(40 105.20961) rotate(0)"><use href="#path1" transform="translate(0 0) scale(0.09599999)"/></g></g></svg>