<?xml version="1.0" encoding="UTF-8" standalone="no"?>
<svg height="160" viewBox="0 0 128 160" width="128" xmlns="http://www.w3.org/2000/svg">
<defs>
<path d="M 18 0 L 18 -70 L 71 -70 Q 81 -98 97 -123 Q 113 -148 131 -172 L 202 -260 L 131 -348 Q 113 -372 97 -397 Q 81 -422 71 -450 L 18 -450 L 18 -520 L 188 -520 L 188 -450 L 153 -450 Q 160 -434 170.5 -420 Q 181 -406 192 -392 L 250 -320 L 308 -392 Q 319 -406 329.5 -420 Q 340 -434 347 -450 L 312 -450 L 312 -520 L 482 -520 L 482 -450 L 429 -450 Q 419 -422 403 -397 Q 387 -372 369 -348 L 298 -260 L 369 -172 Q 387 -148 403 -123 Q 419 -98 429 -70 L 482 -70 L 482 0 L 312 0 L 312 -70 L 347 -70 Q 340 -86 329.5 -100 Q 319 -114 308 -128 L 250 -200 L 192 -128 Q 181 -114 170.5 -100 Q 160 -86 153 -70 L 188 -70 L 188 0 Z " id="path1"/>
</defs>
<g>
<g data-source-text="x" fill="#20242e" transform="translate(40 104.99201) rotate(0) scale(0.09599999)">
<use href="#path1" transform="translate(0 0)"/>
</g>
</g>
</svg>