<svg xmlns="http://www.w3.org/2000/svg" height="160" viewBox="0 0 128 160" width="128"><defs><path d="M 64 0 L 64 -26 Q 64 -47 70 -67 Q 76 -87 85.5 -106 Q 95 -125 106.5 -142 Q 118 -159 132 -176 L 202 -260 L 132 -344 Q 118 -361 106.5 -378 Q 95 -395 85.5 -414 Q 76 -433 70 -453 Q 64 -473 64 -494 L 64 -520 L 142 -520 L 142 -494 Q 142 -479 146.5 -465 Q 151 -451 158 -437.5 Q 165 -424 173.5 -412 Q 182 -400 192 -389 L 250 -318 L 308 -389 Q 318 -400 326.5 -412 Q 335 -424 342 -437.5 Q 349 -451 353.5 -465 Q 358 -479 358 -494 L 358 -520 L 436 -520 L 436 -494 Q 436 -473 430 -453 Q 424 -433 414.5 -414 Q 405 -395 393.5 -378 Q 382 -361 368 -344 L 298 -260 L 368 -176 Q 382 -159 393.5 -142 Q 405 -125 414.5 -106 Q 424 -87 430 -67 Q 436 -47 436 -26 L 436 0 L 358 0 L 358 -26 Q 358 -41 353.5 -55 Q 349 -69 342 -82.5 Q 335 -96 326.5 -108 Q 318 -120 308 -131 L 250 -202 L 192 -131 Q 182 -120 173.5 -108 Q 165 -96 158 -82.5 Q 151 -69 146.5 -55 Q 142 -41 142 -26 L 142 0 Z " id="path1"/></defs><g><g fill="#20242e" transform="translate(40 105.20961) rotate(0)"><use href="#path1" transform="translate(0 0) scale(0.09599999)"/></g></g></svg>