<?xml version="1.0" encoding="UTF-8" standalone="no"?>
<svg height="160" viewBox="0 0 128 160" width="128" xmlns="http://www.w3.org/2000/svg">
<defs>
<path d="M 18 0 L 18 -70 L 71 -70 Q 81 -98 97 -123 Q 113 -148 131 -172 L 206 -265 L 151 -387 Q 145 -400 138 -413 Q 131 -426 120 -435.5 Q 109 -445 94 -447.5 Q 79 -450 64 -450 L 64 -520 Q 81 -520 98.5 -519 Q 116 -518 132.5 -513 Q 149 -508 162.5 -498 Q 176 -488 186.5 -474.5 Q 197 -461 206 -446 Q 215 -431 222 -415 L 260 -332 L 308 -392 Q 319 -406 329.5 -420 Q 340 -434 347 -450 L 312 -450 L 312 -520 L 482 -520 L 482 -450 L 429 -450 Q 419 -422 403 -397 Q 387 -372 369 -348 L 294 -255 L 349 -133 Q 355 -120 362 -107 Q 369 -94 380 -84.5 Q 391 -75 406 -72.5 Q 421 -70 436 -70 L 436 0 Q 419 -0 401.5 -1 Q 384 -2 367.5 -7 Q 351 -12 337.5 -22 Q 324 -32 313.5 -45.5 Q 303 -59 294 -74 Q 285 -89 278 -105 L 240 -188 L 192 -128 Q 181 -114 170.5 -100 Q 160 -86 153 -70 L 188 -70 L 188 0 Z " id="path1"/>
</defs>
<g>
<g data-source-text="x" fill="#20242e" transform="translate(40 104.99201) rotate(0) scale(0.09599999)">
<use href="#path1" transform="translate(0 0)"/>
</g>
</g>
</svg>