<svg xmlns="http://www.w3.org/2000/svg" height="160" viewBox="0 0 128 160" width="128"><defs><path d="M 18 0 L 18 -70 L 71 -70 Q 80 -99 96 -125.5 Q 112 -152 132 -176 L 202 -260 L 132 -344 Q 112 -368 96 -394.5 Q 80 -421 71 -450 L 18 -450 L 18 -520 L 188 -520 L 188 -450 L 152 -450 Q 159 -433 169.5 -418 Q 180 -403 192 -389 L 250 -318 L 308 -389 Q 320 -403 330.5 -418 Q 341 -433 348 -450 L 312 -450 L 312 -520 L 482 -520 L 482 -450 L 429 -450 Q 420 -421 404 -394.5 Q 388 -368 368 -344 L 298 -260 L 368 -176 Q 388 -152 404 -125.5 Q 420 -99 429 -70 L 482 -70 L 482 0 L 312 0 L 312 -70 L 348 -70 Q 341 -87 330.5 -102 Q 320 -117 308 -131 L 250 -202 L 192 -131 Q 180 -117 169.5 -102 Q 159 -87 152 -70 L 188 -70 L 188 0 Z " id="path1"/></defs><g><g fill="#20242e" transform="translate(40 105.20961) rotate(0)"><use href="#path1" transform="translate(0 0) scale(0.09599999)"/></g></g></svg>