<?xml version="1.0" encoding="UTF-8" standalone="no"?>
<svg xmlns='http://www.w3.org/2000/svg' height="160" viewBox="0 0 128 160" width="128"><defs><path d="M 158 8 Q 140 8 123 0.5 Q 106 -7 94 -20.5 Q 82 -34 74.5 -50.5 Q 67 -67 63 -84.5 Q 59 -102 57.5 -120 Q 56 -138 56 -157 L 56 -174 L 134 -174 L 134 -157 Q 134 -147 134.5 -137.5 Q 135 -128 136 -119 Q 137 -110 139.5 -101 Q 142 -92 146.5 -83.5 Q 151 -75 158.5 -68.5 Q 166 -62 175 -62 Q 184 -62 191 -69 Q 198 -76 201.5 -84.5 Q 205 -93 206.5 -102 Q 208 -111 209 -120 Q 210 -129 210.5 -138 Q 211 -147 211 -156 L 211 -430 Q 211 -435 210.5 -440 Q 210 -445 207.5 -449.5 Q 205 -454 200.5 -456.5 Q 196 -459 191 -459 Q 187 -459 182.5 -457 Q 178 -455 175 -452 L 95 -356 L 38 -399 L 118 -495 Q 131 -511 151 -519 Q 171 -527 191 -527 Q 206 -527 219 -519 Q 232 -511 239.5 -498 Q 247 -485 250 -470 Q 253 -455 254 -440 Q 258 -456 264.5 -472 Q 271 -488 282 -501 Q 293 -514 309 -521 Q 325 -528 342 -528 Q 360 -528 377 -520.5 Q 394 -513 406 -499.5 Q 418 -486 425.5 -469.5 Q 433 -453 437 -435.5 Q 441 -418 442.5 -400 Q 444 -382 444 -364 L 444 -346 L 366 -346 L 366 -364 Q 366 -373 365.5 -382.5 Q 365 -392 364 -401 Q 363 -410 360.5 -419 Q 358 -428 353.5 -436.5 Q 349 -445 341.5 -451.5 Q 334 -458 325 -458 Q 316 -458 309 -451 Q 302 -444 298.5 -435.5 Q 295 -427 293.5 -418 Q 292 -409 291 -400 Q 290 -391 289.5 -382 Q 289 -373 289 -364 L 289 -90 Q 289 -85 289.5 -80 Q 290 -75 292.5 -70.5 Q 295 -66 299.5 -63.5 Q 304 -61 309 -61 Q 313 -61 317.5 -63 Q 322 -65 325 -68 L 405 -164 L 462 -121 L 382 -25 Q 369 -9 349 -1 Q 329 7 309 7 Q 294 7 281 -1 Q 268 -9 260.5 -22 Q 253 -35 250 -50 Q 247 -65 246 -80 Q 242 -64 235.5 -48 Q 229 -32 218 -19 Q 207 -6 191 1 Q 175 8 158 8 Z " id="path1"/></defs><g><g data-source-text="x" fill="#20242e" transform="translate(40 104.99201) rotate(0) scale(0.09599999)"><use href="#path1" transform="translate(0 0)"/></g></g></svg>