<?xml version="1.0" encoding="UTF-8" standalone="no"?>
<svg height="160" viewBox="0 0 128 160" width="128" xmlns="http://www.w3.org/2000/svg">
<defs>
<path d="M 64 0 L 64 -26 Q 64 -46 71 -65 Q 78 -84 87.5 -102 Q 97 -120 108 -137 Q 119 -154 131 -169 L 206 -265 L 151 -387 Q 145 -400 138 -413 Q 131 -426 120 -435.5 Q 109 -445 94 -447.5 Q 79 -450 64 -450 L 64 -520 Q 81 -520 98.5 -519 Q 116 -518 132.5 -513 Q 149 -508 162.5 -498 Q 176 -488 186.5 -474.5 Q 197 -461 206 -446 Q 215 -431 222 -415 L 259 -332 L 308 -394 Q 317 -405 325.5 -416.5 Q 334 -428 341 -440.5 Q 348 -453 353 -466.5 Q 358 -480 358 -494 L 358 -520 L 436 -520 L 436 -494 Q 436 -474 429 -455 Q 422 -436 412.5 -418 Q 403 -400 392 -383 Q 381 -366 369 -351 L 294 -255 L 349 -133 Q 355 -120 362 -107 Q 369 -94 380 -84.5 Q 391 -75 406 -72.5 Q 421 -70 436 -70 L 436 0 Q 419 -0 401.5 -1 Q 384 -2 367.5 -7 Q 351 -12 337.5 -22 Q 324 -32 313.5 -45.5 Q 303 -59 294 -74 Q 285 -89 278 -105 L 241 -188 L 192 -126 Q 183 -115 174.5 -103.5 Q 166 -92 159 -79.5 Q 152 -67 147 -53.5 Q 142 -40 142 -26 L 142 0 Z " id="path1"/>
</defs>
<g>
<g data-source-text="x" fill="#dee4e3" transform="translate(40 104.99201) rotate(0) scale(0.09599999)">
<use href="#path1" transform="translate(0 0)"/>
</g>
</g>
</svg>