<?xml version="1.0" encoding="UTF-8" standalone="no"?>
<svg height="160" viewBox="0 0 128 160" width="128" xmlns="http://www.w3.org/2000/svg">
<defs>
<path d="M 158 8 Q 140 8 123 0.5 Q 106 -7 94 -20.5 Q 82 -34 74.5 -50.5 Q 67 -67 63 -84.5 Q 59 -102 57.5 -120 Q 56 -138 56 -157 L 56 -174 L 134 -174 L 134 -157 Q 134 -147 134.5 -137.5 Q 135 -128 136 -119 Q 137 -110 139.5 -100.5 Q 142 -91 146.5 -83 Q 151 -75 158.5 -68.5 Q 166 -62 175 -62 Q 184 -62 191 -69 Q 198 -76 201.5 -84.5 Q 205 -93 206.5 -102 Q 208 -111 209 -120 Q 210 -129 210.5 -138 Q 211 -147 211 -156 L 211 -414 Q 211 -423 209.5 -431 Q 208 -439 203.5 -446 Q 199 -453 191.5 -457 Q 184 -461 176 -461 Q 167 -461 158.5 -459 Q 150 -457 145 -451 L 92 -386 L 34 -429 L 87 -493 Q 95 -503 105.5 -509.5 Q 116 -516 127.5 -520.5 Q 139 -525 151 -526.5 Q 163 -528 176 -528 Q 192 -528 207.5 -520.5 Q 223 -513 232.5 -499.5 Q 242 -486 247 -469.5 Q 252 -453 253 -437 Q 257 -454 263.5 -470 Q 270 -486 281 -499.5 Q 292 -513 308.5 -520.5 Q 325 -528 342 -528 Q 360 -528 377 -520.5 Q 394 -513 406 -499.5 Q 418 -486 425.5 -469.5 Q 433 -453 437 -435.5 Q 441 -418 442.5 -400 Q 444 -382 444 -364 L 444 -346 L 366 -346 L 366 -364 Q 366 -373 365.5 -382.5 Q 365 -392 364 -401 Q 363 -410 360.5 -419.5 Q 358 -429 353.5 -437 Q 349 -445 341.5 -451.5 Q 334 -458 325 -458 Q 316 -458 309 -451 Q 302 -444 298.5 -435.5 Q 295 -427 293.5 -418 Q 292 -409 291 -400 Q 290 -391 289.5 -382 Q 289 -373 289 -364 L 289 -106 Q 289 -97 290.5 -89 Q 292 -81 296.5 -74 Q 301 -67 308.5 -63 Q 316 -59 324 -59 Q 333 -59 341.5 -61 Q 350 -63 355 -69 L 408 -134 L 466 -91 L 413 -27 Q 405 -17 394.5 -10.5 Q 384 -4 372.5 0.5 Q 361 5 349 6.5 Q 337 8 324 8 Q 308 8 292.5 0.5 Q 277 -7 267.5 -20.5 Q 258 -34 253 -50.5 Q 248 -67 247 -83 Q 243 -66 236.5 -50 Q 230 -34 219 -20.5 Q 208 -7 191.5 0.5 Q 175 8 158 8 Z " id="path1"/>
</defs>
<g>
<g data-source-text="x" fill="#20242e" transform="translate(40 104.99201) rotate(0) scale(0.09599999)">
<use href="#path1" transform="translate(0 0)"/>
</g>
</g>
</svg>