<?xml version="1.0" encoding="UTF-8" standalone="no"?>
<svg height="160" viewBox="0 0 128 160" width="128" xmlns="http://www.w3.org/2000/svg">
<defs>
<path d="M 18 0 L 18 -70 L 71 -70 Q 80 -93 92.5 -114.5 Q 105 -136 120 -156 Q 123 -160 125.5 -164 Q 128 -168 131 -172 L 202 -260 L 131 -348 Q 128 -352 125.5 -356 Q 123 -360 120 -364 Q 105 -384 92.5 -405.5 Q 80 -427 71 -450 L 18 -450 L 18 -520 L 188 -520 L 188 -450 L 153 -450 Q 160 -434 170.5 -420 Q 181 -406 192 -392 L 250 -320 L 308 -392 Q 319 -406 329.5 -420 Q 340 -434 347 -450 L 312 -450 L 312 -520 L 482 -520 L 482 -450 L 429 -450 Q 420 -427 407.5 -405.5 Q 395 -384 380 -364 Q 377 -360 374.5 -356 Q 372 -352 369 -348 L 298 -260 L 369 -172 Q 372 -168 374.5 -164 Q 377 -160 380 -156 Q 395 -136 407.5 -114.5 Q 420 -93 429 -70 L 482 -70 L 482 0 L 312 0 L 312 -70 L 347 -70 Q 340 -86 329.5 -100 Q 319 -114 308 -128 L 250 -200 L 192 -128 Q 181 -114 170.5 -100 Q 160 -86 153 -70 L 188 -70 L 188 0 Z " id="path1"/>
</defs>
<g>
<g data-source-text="x" fill="#dee4e3" transform="translate(40 104.99201) rotate(0) scale(0.09599999)">
<use href="#path1" transform="translate(0 0)"/>
</g>
</g>
</svg>