<?xml version="1.0" encoding="UTF-8" standalone="no"?>
<svg height="160" viewBox="0 0 128 160" width="128" xmlns="http://www.w3.org/2000/svg">
<defs>
<path d="M 18 0 L 18 -70 L 95 -70 L 209 -260 L 95 -450 L 18 -450 L 18 -520 L 188 -520 L 188 -450 L 183 -450 L 250 -332 L 317 -450 L 312 -450 L 312 -520 L 482 -520 L 482 -450 L 405 -450 L 291 -260 L 405 -70 L 482 -70 L 482 0 L 312 0 L 312 -70 L 317 -70 L 250 -188 L 183 -70 L 188 -70 L 188 0 Z " id="path1"/>
</defs>
<g>
<g data-source-text="x" fill="#20242e" transform="translate(40 104.99201) rotate(0) scale(0.09599999)">
<use href="#path1" transform="translate(0 0)"/>
</g>
</g>
</svg>