<svg xmlns="http://www.w3.org/2000/svg" height="160" viewBox="0 0 128 160" width="128"><defs><path d="M 159 8 C 147 8 135.33333 5.6666665 124.00001 1 C 112.66667 -3.6666665 103 -10.333333 95 -19 C 86.99999 -27.666666 80.5 -37.5 75.5 -48.500004 C 70.5 -59.5 66.666664 -70.66667 64 -82.00001 C 61.333336 -93.33333 59.333336 -104.83333 58 -116.5 C 56.666664 -128.16666 55.999996 -140 56 -152 C 55.999996 -154.66667 55.999996 -157.16667 56 -159.50002 C 55.999996 -161.83333 55.999996 -164.33333 56 -167 C 55.999996 -168.33334 55.999996 -169.5 56 -170.5 C 55.999996 -171.50002 55.999996 -172.66667 56 -174.00002 L 134 -174.00002 C 134 -172.66667 134 -171.50002 134 -170.5 C 134 -169.5 134 -168.33334 134 -167 C 134 -165 134 -162.83334 134 -160.5 C 134 -158.16667 134 -156 134 -154.00002 C 134 -148 134.16666 -141.83334 134.5 -135.50002 C 134.83333 -129.16667 135.5 -123 136.5 -117.00001 C 137.5 -111.00001 138.83334 -105 140.5 -99 C 142.16667 -93 144.5 -87.333336 147.5 -82.00001 C 150.5 -76.666664 154.5 -72 159.50002 -68 C 164.5 -64 170 -62.000004 176 -62.000004 C 182 -62.000004 187.16666 -64.333336 191.50002 -69 C 195.83333 -73.66667 199.16666 -78.833336 201.5 -84.50001 C 203.83334 -90.16667 205.50002 -96 206.5 -102 C 207.49998 -108 208.33334 -114.00001 209.00002 -120.00001 C 209.66666 -126 210.16666 -132 210.50002 -138 C 210.83334 -144.00002 211.00002 -150 211.00002 -156 L 211.00002 -430 C 211.00002 -433.33334 210.83334 -436.6667 210.50002 -440.00003 C 210.16666 -443.33337 209.16666 -446.5 207.5 -449.50003 C 205.83334 -452.5 203.5 -454.8333 200.50002 -456.50003 C 197.5 -458.16666 194.33334 -458.99997 191.00002 -459 C 188.33334 -458.99997 185.49998 -458.33334 182.50002 -457.00003 C 179.49998 -455.6667 176.99998 -454 175 -452.00003 L 95 -356 L 38 -399.00003 L 118.00001 -495.00003 C 126.66667 -505.66666 137.66667 -513.6667 151 -519 C 164.33333 -524.3333 177.66667 -526.99994 191.00002 -527 C 201.00002 -526.99994 210.33336 -524.3333 219.00002 -519 C 227.66666 -513.6667 234.5 -506.6667 239.50002 -498 C 244.50002 -489.3333 248 -480 250 -470 C 252 -460 253.33334 -450.00003 254.00002 -440.00003 C 256.66666 -450.6667 260.1667 -461.33334 264.5 -472.00003 C 268.83334 -482.66666 274.6667 -492.33334 282 -501.00003 C 289.33334 -509.6667 298.33334 -516.3334 309 -521 C 319.6667 -525.6666 330.33334 -528 341 -528 C 353.00003 -528 364.6667 -525.6666 376.00003 -521 C 387.3333 -516.3334 397 -509.6667 405.00003 -501.00003 C 413.00003 -492.33334 419.5 -482.5 424.5 -471.5 C 429.5 -460.50003 433.33334 -449.33337 436 -438.00003 C 438.6667 -426.66666 440.6667 -415.16666 442 -403.5 C 443.3333 -391.8333 444.00003 -380 444.00003 -368 C 444.00003 -365.33334 444.00003 -362.83334 444.00003 -360.50003 C 444.00003 -358.16666 444.00003 -355.66666 444.00003 -353.00003 C 444.00003 -351.66666 444.00003 -350.5 444.00003 -349.50003 C 444.00003 -348.50003 444.00003 -347.33337 444.00003 -346 L 366.00003 -346 C 366.00003 -347.33337 366.00003 -348.50003 366.00003 -349.50003 C 366.00003 -350.5 366.00003 -351.66666 366.00003 -353.00003 C 366.00003 -355 366.00003 -357.16666 366.00003 -359.50003 C 366.00003 -361.83334 366.00003 -364 366.00003 -366.00003 C 366.00003 -372 365.83337 -378.16666 365.50003 -384.5 C 365.1667 -390.83334 364.49997 -397 363.5 -403 C 362.49997 -409 361.16666 -415 359.50003 -421.00003 C 357.8333 -426.99997 355.5 -432.66663 352.5 -438.00003 C 349.50003 -443.3333 345.5 -448 340.5 -452.00003 C 335.5 -455.99997 330 -457.99997 324 -458 C 318 -457.99997 312.8333 -455.66663 308.50003 -451.00003 C 304.1667 -446.33334 300.83334 -441.16666 298.5 -435.5 C 296.16666 -429.83334 294.5 -424.00003 293.5 -418.00003 C 292.5 -412.00003 291.66666 -406 291.00003 -400.00003 C 290.33334 -394 289.83334 -388.00003 289.5 -382.00003 C 289.16666 -376.00003 289 -369.99997 289 -364 L 289 -90.00001 C 289 -86.666664 289.16666 -83.333336 289.5 -80.00001 C 289.83334 -76.666664 290.83334 -73.5 292.5 -70.5 C 294.1667 -67.5 296.50003 -65.166664 299.50003 -63.500004 C 302.50003 -61.833332 305.6667 -61 309 -61 C 311.6667 -61 314.5 -61.666668 317.5 -63 C 320.5 -64.33333 323 -66 325.00003 -68 L 405.00003 -164.00002 L 462.00003 -121.00001 L 382.00003 -25.000002 C 373.33334 -14.333334 362.33334 -6.3333335 349.00003 -1 C 335.66666 4.333333 322.3333 6.9999995 309 7 C 299 6.9999995 289.6667 4.333333 281 -1 C 272.33334 -6.3333335 265.5 -13.333333 260.5 -22 C 255.5 -30.666668 252 -40.000004 250 -50.000004 C 248 -60.000004 246.66667 -70.00001 246.00002 -80.00001 C 243.33334 -69.333336 239.83333 -58.666668 235.5 -48 C 231.16664 -37.333332 225.33331 -27.666666 218 -19 C 210.66666 -10.333333 201.66667 -3.6666665 191.00002 1 C 180.33334 5.6666665 169.66666 8 159 8 Z " id="path1"/></defs><g><g fill="#ffffff" transform="translate(40 105.20961) rotate(0)"><use href="#path1" transform="translate(0 0) scale(0.09599999)"/></g></g></svg>