<?xml version="1.0" encoding="UTF-8" standalone="no"?>
<svg height="160" viewBox="0 0 128 160" width="128" xmlns="http://www.w3.org/2000/svg">
<defs>
<path d="M 18 0 L 18 -70 L 65 -70 Q 67 -87 74.5 -103 Q 82 -119 91 -133.5 Q 100 -148 110.5 -161.5 Q 121 -175 133 -188 L 200 -260 L 133 -332 Q 121 -345 110.5 -358.5 Q 100 -372 91 -386.5 Q 82 -401 74.5 -417 Q 67 -433 65 -450 L 18 -450 L 18 -520 L 188 -520 L 188 -450 L 143 -450 Q 147 -432 158.5 -416.5 Q 170 -401 183 -388 Q 184 -386 186 -384 Q 188 -382 190 -380 L 250 -315 L 310 -380 Q 312 -382 314 -384 Q 316 -386 317 -388 Q 330 -402 341.5 -417 Q 353 -432 357 -450 L 312 -450 L 312 -520 L 482 -520 L 482 -450 L 435 -450 Q 433 -433 425.5 -417 Q 418 -401 409 -386.5 Q 400 -372 389.5 -358.5 Q 379 -345 367 -332 L 300 -260 L 367 -188 Q 379 -175 389.5 -161.5 Q 400 -148 409 -133.5 Q 418 -119 425.5 -103 Q 433 -87 435 -70 L 482 -70 L 482 0 L 312 0 L 312 -70 L 357 -70 Q 353 -88 341.5 -103.5 Q 330 -119 317 -132 Q 316 -134 314 -136 Q 312 -138 310 -140 L 250 -205 L 190 -140 Q 188 -138 186 -136 Q 184 -134 183 -132 Q 170 -118 158.5 -103 Q 147 -88 143 -70 L 188 -70 L 188 0 Z " id="path1"/>
</defs>
<g>
<g data-source-text="x" fill="#20242e" transform="translate(40 104.99201) rotate(0) scale(0.09599999)">
<use href="#path1" transform="translate(0 0)"/>
</g>
</g>
</svg>