<?xml version="1.0" encoding="UTF-8" standalone="no"?>
<svg height="160" viewBox="0 0 128 160" width="128" xmlns="http://www.w3.org/2000/svg">
<defs>
<path d="M 155 8 Q 136 8 119 -1 Q 102 -10 90.5 -25 Q 79 -40 72.5 -57.5 Q 66 -75 62.5 -93.5 Q 59 -112 57.5 -131 Q 56 -150 56 -169 L 56 -189 L 134 -189 L 134 -169 Q 134 -158 134 -148 Q 134 -138 135.5 -128 Q 137 -118 139 -108 Q 141 -98 144.5 -88.5 Q 148 -79 155 -70.5 Q 162 -62 172 -62 Q 182 -62 189 -68.5 Q 196 -75 200 -83.5 Q 204 -92 206 -101 Q 208 -110 209 -119 Q 210 -128 210.5 -137.5 Q 211 -147 211 -156 L 211 -414 Q 211 -423 209.5 -431 Q 208 -439 203.5 -446 Q 199 -453 191.5 -457 Q 184 -461 176 -461 Q 167 -461 158.5 -459 Q 150 -457 145 -451 L 92 -386 L 34 -429 L 87 -493 Q 95 -503 105.5 -509.5 Q 116 -516 127.5 -520.5 Q 139 -525 151 -526.5 Q 163 -528 176 -528 Q 192 -528 207.5 -520.5 Q 223 -513 232.5 -499 Q 242 -485 247 -469 Q 252 -453 253 -436 Q 257 -453 264 -469.5 Q 271 -486 282.5 -499.5 Q 294 -513 310.5 -520.5 Q 327 -528 345 -528 Q 364 -528 381 -519 Q 398 -510 409.5 -495 Q 421 -480 427.5 -462.5 Q 434 -445 437.5 -426.5 Q 441 -408 442.5 -389 Q 444 -370 444 -352 L 444 -331 L 366 -331 L 366 -352 Q 366 -362 366 -372 Q 366 -382 364.5 -392 Q 363 -402 361 -412 Q 359 -422 355.5 -431.5 Q 352 -441 345 -449.5 Q 338 -458 328 -458 Q 318 -458 311 -451.5 Q 304 -445 300 -436.5 Q 296 -428 294 -419 Q 292 -410 291 -401 Q 290 -392 289.5 -382.5 Q 289 -373 289 -364 L 289 -106 Q 289 -97 290.5 -89 Q 292 -81 296.5 -74 Q 301 -67 308.5 -63 Q 316 -59 324 -59 Q 333 -59 341.5 -61 Q 350 -63 355 -69 L 408 -134 L 466 -91 L 413 -27 Q 405 -17 394.5 -10.5 Q 384 -4 372.5 0.5 Q 361 5 349 6.5 Q 337 8 324 8 Q 308 8 292.5 0.5 Q 277 -7 267.5 -21 Q 258 -35 253 -51 Q 248 -67 247 -84 Q 243 -67 236 -50.5 Q 229 -34 217.5 -20.5 Q 206 -7 189.5 0.5 Q 173 8 155 8 Z " id="path1"/>
</defs>
<g>
<g data-source-text="x" fill="#20242e" transform="translate(40 104.99201) rotate(0) scale(0.09599999)">
<use href="#path1" transform="translate(0 0)"/>
</g>
</g>
</svg>