<?xml version="1.0" encoding="UTF-8" standalone="no"?>
<svg height="160" viewBox="0 0 128 160" width="128" xmlns="http://www.w3.org/2000/svg">
<defs>
<path d="M 18 0 L 18 -70 L 95 -70 L 210 -262 L 152 -387 Q 146 -400 139 -413.5 Q 132 -427 120.5 -436.5 Q 109 -446 94 -448 Q 79 -450 64 -450 L 18 -450 L 18 -520 L 64 -520 Q 81 -520 98 -519 Q 115 -518 131.5 -513 Q 148 -508 161.5 -497.5 Q 175 -487 186 -473.5 Q 197 -460 205.5 -445.5 Q 214 -431 221 -415 L 254 -339 L 317 -450 L 312 -450 L 312 -520 L 482 -520 L 482 -450 L 405 -450 L 290 -258 L 348 -133 Q 354 -120 361 -106.5 Q 368 -93 379.5 -83.5 Q 391 -74 406 -72 Q 421 -70 436 -70 L 482 -70 L 482 0 L 436 0 Q 419 -0 402 -1 Q 385 -2 368.5 -7 Q 352 -12 338.5 -22.5 Q 325 -33 314 -46.5 Q 303 -60 294.5 -74.5 Q 286 -89 279 -105 L 246 -181 L 183 -70 L 188 -70 L 188 0 Z " id="path1"/>
</defs>
<g>
<g data-source-text="x" fill="#20242e" transform="translate(40 104.99201) rotate(0) scale(0.09599999)">
<use href="#path1" transform="translate(0 0)"/>
</g>
</g>
</svg>