<svg xmlns="http://www.w3.org/2000/svg" height="160" viewBox="0 0 128 160" width="128"><defs><path d="M 18 0 L 18 -70 L 90 -70 L 207 -260 L 90 -450 L 18 -450 L 18 -520 L 188 -520 L 188 -450 L 179 -450 L 250 -332 L 321 -450 L 312 -450 L 312 -520 L 482 -520 L 482 -450 L 410 -450 L 293 -260 L 410 -70 L 482 -70 L 482 0 L 312 0 L 312 -70 L 321 -70 L 250 -188 L 179 -70 L 188 -70 L 188 0 Z " id="path1"/></defs><g><g fill="#20242e" transform="translate(40 105.20961) rotate(0)"><use href="#path1" transform="translate(0 0) scale(0.09599999)"/></g></g></svg>