<svg xmlns="http://www.w3.org/2000/svg" height="160" viewBox="0 0 128 160" width="128"><defs><path d="M 64 0 L 64 -26.000002 C 64 -40 66 -53.666668 70.00001 -67 C 74 -80.333336 79.16667 -93.333336 85.50001 -106 C 91.833336 -118.666664 98.83333 -130.66667 106.5 -142 C 114.166664 -153.33333 122.666664 -164.66667 132 -176 L 202.00002 -260.00003 L 132 -344.00003 C 122.666664 -355.33334 114.166664 -366.6667 106.5 -378.00003 C 98.83333 -389.33334 91.833336 -401.33334 85.50001 -414 C 79.16667 -426.66666 74 -439.6667 70.00001 -453 C 66 -466.3333 64 -480.00003 64 -494 L 64 -520.00006 L 142 -520.00006 L 142 -494 C 142 -483.99997 143.5 -474.33334 146.5 -465 C 149.5 -455.6667 153.33333 -446.5 158 -437.5 C 162.66666 -428.5 167.83333 -420 173.5 -412.00003 C 179.16669 -404.00003 185.33334 -396.33334 192 -389.00003 L 250 -318 L 308.00003 -389.00003 C 314.6667 -396.33334 320.83334 -404.00003 326.5 -412.00003 C 332.16666 -420 337.33334 -428.5 342.00003 -437.5 C 346.66666 -446.5 350.50003 -455.6667 353.50003 -465 C 356.5 -474.33334 358 -483.99997 358 -494 L 358 -520.00006 L 436 -520.00006 L 436 -494 C 435.99997 -480.00003 434 -466.3333 430 -453 C 425.99997 -439.6667 420.8333 -426.66666 414.5 -414 C 408.16666 -401.33334 401.1667 -389.33334 393.50003 -378.00003 C 385.83334 -366.6667 377.33334 -355.33334 368 -344.00003 L 298 -260.00003 L 368 -176 C 377.33334 -164.66667 385.83334 -153.33333 393.50003 -142 C 401.1667 -130.66667 408.16666 -118.666664 414.5 -106 C 420.8333 -93.333336 425.99997 -80.333336 430 -67 C 434 -53.666668 435.99997 -40 436 -26.000002 L 436 0 L 358 0 L 358 -26.000002 C 358 -36 356.5 -45.666668 353.50003 -55.000004 C 350.50003 -64.333336 346.66666 -73.5 342.00003 -82.5 C 337.33334 -91.5 332.16666 -100 326.5 -108 C 320.83334 -116 314.6667 -123.666664 308.00003 -131 L 250 -202.00002 L 192 -131 C 185.33334 -123.666664 179.16669 -116 173.5 -108 C 167.83333 -100 162.66666 -91.5 158 -82.5 C 153.33333 -73.5 149.5 -64.333336 146.5 -55.000004 C 143.5 -45.666668 142 -36 142 -26.000002 L 142 0 Z " id="path1"/></defs><g><g fill="#000000" transform="translate(40 105.20961) rotate(0)"><use href="#path1" transform="translate(0 0) scale(0.09599999)"/></g></g></svg>