<?xml version="1.0" encoding="UTF-8" standalone="no"?>
<svg xmlns="http://www.w3.org/2000/svg" height="160" viewBox="0 0 128 160" width="128"><defs><path d="M 159 8 Q 141 8 124 1 Q 107 -6 95 -19 Q 83 -32 75.5 -48.5 Q 68 -65 64 -82 Q 60 -99 58 -116.5 Q 56 -134 56 -152 Q 56 -156 56 -159.5 Q 56 -163 56 -167 Q 56 -169 56 -170.5 Q 56 -172 56 -174 L 134 -174 Q 134 -172 134 -170.5 Q 134 -169 134 -167 Q 134 -164 134 -160.5 Q 134 -157 134 -154 Q 134 -145 134.5 -135.5 Q 135 -126 136.5 -117 Q 138 -108 140.5 -99 Q 143 -90 147.5 -82 Q 152 -74 159.5 -68 Q 167 -62 176 -62 Q 185 -62 191.5 -69 Q 198 -76 201.5 -84.5 Q 205 -93 206.5 -102 Q 208 -111 209 -120 Q 210 -129 210.5 -138 Q 211 -147 211 -156 L 211 -430 Q 211 -435 210.5 -440 Q 210 -445 207.5 -449.5 Q 205 -454 200.5 -456.5 Q 196 -459 191 -459 Q 187 -459 182.5 -457 Q 178 -455 175 -452 L 95 -356 L 38 -399 L 118 -495 Q 131 -511 151 -519 Q 171 -527 191 -527 Q 206 -527 219 -519 Q 232 -511 239.5 -498 Q 247 -485 250 -470 Q 253 -455 254 -440 Q 258 -456 264.5 -472 Q 271 -488 282 -501 Q 293 -514 309 -521 Q 325 -528 341 -528 Q 359 -528 376 -521 Q 393 -514 405 -501 Q 417 -488 424.5 -471.5 Q 432 -455 436 -438 Q 440 -421 442 -403.5 Q 444 -386 444 -368 Q 444 -364 444 -360.5 Q 444 -357 444 -353 Q 444 -351 444 -349.5 Q 444 -348 444 -346 L 366 -346 Q 366 -348 366 -349.5 Q 366 -351 366 -353 Q 366 -356 366 -359.5 Q 366 -363 366 -366 Q 366 -375 365.5 -384.5 Q 365 -394 363.5 -403 Q 362 -412 359.5 -421 Q 357 -430 352.5 -438 Q 348 -446 340.5 -452 Q 333 -458 324 -458 Q 315 -458 308.5 -451 Q 302 -444 298.5 -435.5 Q 295 -427 293.5 -418 Q 292 -409 291 -400 Q 290 -391 289.5 -382 Q 289 -373 289 -364 L 289 -90 Q 289 -85 289.5 -80 Q 290 -75 292.5 -70.5 Q 295 -66 299.5 -63.5 Q 304 -61 309 -61 Q 313 -61 317.5 -63 Q 322 -65 325 -68 L 405 -164 L 462 -121 L 382 -25 Q 369 -9 349 -1 Q 329 7 309 7 Q 294 7 281 -1 Q 268 -9 260.5 -22 Q 253 -35 250 -50 Q 247 -65 246 -80 Q 242 -64 235.5 -48 Q 229 -32 218 -19 Q 207 -6 191 1 Q 175 8 159 8 Z " id="path1"/></defs><g><g data-source-text="x" fill="#20242e" transform="translate(40 104.99201) rotate(0) scale(0.09599999)"><use href="#path1" transform="translate(0 0)"/></g></g></svg>