<?xml version="1.0" encoding="UTF-8" standalone="no"?>
<svg height="160" viewBox="0 0 128 160" width="128" xmlns="http://www.w3.org/2000/svg">
<defs>
<path d="M 158 8 Q 140 8 122.5 -0.5 Q 105 -9 93 -24 Q 81 -39 74 -57 Q 67 -75 63 -93.5 Q 59 -112 57.5 -131 Q 56 -150 56 -169 L 56 -189 L 134 -189 L 134 -169 Q 134 -158 134.5 -148 Q 135 -138 136 -127.5 Q 137 -117 139.5 -107 Q 142 -97 146 -87.5 Q 150 -78 157.5 -70 Q 165 -62 176 -62 Q 185 -62 191.5 -69 Q 198 -76 201.5 -84.5 Q 205 -93 206.5 -102 Q 208 -111 209 -120 Q 210 -129 210.5 -138 Q 211 -147 211 -156 L 211 -414 Q 211 -423 209.5 -431 Q 208 -439 203.5 -446 Q 199 -453 191.5 -457 Q 184 -461 176 -461 Q 167 -461 158.5 -459 Q 150 -457 145 -451 L 92 -386 L 34 -429 L 87 -493 Q 95 -503 105.5 -509.5 Q 116 -516 127.5 -520.5 Q 139 -525 151 -526.5 Q 163 -528 176 -528 Q 192 -528 207.5 -520.5 Q 223 -513 232.5 -499.5 Q 242 -486 247 -469.5 Q 252 -453 253 -437 Q 257 -454 263.5 -470 Q 270 -486 281 -499.5 Q 292 -513 308 -520.5 Q 324 -528 342 -528 Q 360 -528 377.5 -519.5 Q 395 -511 407 -496 Q 419 -481 426 -463 Q 433 -445 437 -426.5 Q 441 -408 442.5 -389 Q 444 -370 444 -352 L 444 -331 L 366 -331 L 366 -352 Q 366 -362 365.5 -372 Q 365 -382 364 -392.5 Q 363 -403 360.5 -413 Q 358 -423 354 -432.5 Q 350 -442 342.5 -450 Q 335 -458 324 -458 Q 315 -458 308.5 -451 Q 302 -444 298.5 -435.5 Q 295 -427 293.5 -418 Q 292 -409 291 -400 Q 290 -391 289.5 -382 Q 289 -373 289 -364 L 289 -106 Q 289 -97 290.5 -89 Q 292 -81 296.5 -74 Q 301 -67 308.5 -63 Q 316 -59 324 -59 Q 333 -59 341.5 -61 Q 350 -63 355 -69 L 408 -134 L 466 -91 L 413 -27 Q 405 -17 394.5 -10.5 Q 384 -4 372.5 0.5 Q 361 5 349 6.5 Q 337 8 324 8 Q 308 8 292.5 0.5 Q 277 -7 267.5 -20.5 Q 258 -34 253 -50.5 Q 248 -67 247 -83 Q 243 -66 236.5 -50 Q 230 -34 219 -20.5 Q 208 -7 192 0.5 Q 176 8 158 8 Z " id="path1"/>
</defs>
<g>
<g data-source-text="x" fill="#20242e" transform="translate(40 104.99201) rotate(0) scale(0.09599999)">
<use href="#path1" transform="translate(0 0)"/>
</g>
</g>
</svg>