<?xml version="1.0" encoding="UTF-8" standalone="no"?>
<svg height="160" viewBox="0 0 128 160" width="128" xmlns="http://www.w3.org/2000/svg">
<defs>
<path d="M 248 223 Q 226 223 204 220.5 Q 182 218 161.5 210.5 Q 141 203 122.5 190.5 Q 104 178 90.5 161 Q 77 144 70 123 Q 63 102 62 80 L 140 80 Q 140 98 151 113.5 Q 162 129 177.5 138 Q 193 147 211 150 Q 229 153 248 153 Q 264 153 280.5 148.5 Q 297 144 310.5 134.5 Q 324 125 333.5 111 Q 343 97 348.5 81 Q 354 65 356 48.5 Q 358 32 358 15 L 358 -91 Q 350 -70 337 -50.5 Q 324 -31 305.5 -17.5 Q 287 -4 264.5 2 Q 242 8 220 8 Q 195 8 171 1 Q 147 -6 128.5 -21.5 Q 110 -37 97 -58.5 Q 84 -80 76.5 -103.5 Q 69 -127 66.5 -151.5 Q 64 -176 64 -200 L 64 -450 L 18 -450 L 18 -520 L 142 -520 L 142 -200 Q 142 -183 144 -166.5 Q 146 -150 151 -134.5 Q 156 -119 165.5 -105 Q 175 -91 188 -81 Q 201 -71 217 -66.5 Q 233 -62 250 -62 Q 267 -62 283 -66.5 Q 299 -71 312 -81 Q 325 -91 334.5 -105 Q 344 -119 349 -134.5 Q 354 -150 356 -166.5 Q 358 -183 358 -200 L 358 -450 L 312 -450 L 312 -520 L 436 -520 L 436 15 Q 436 42 432 68.5 Q 428 95 417.5 119 Q 407 143 390 164 Q 373 185 350 198.5 Q 327 212 300.5 217.5 Q 274 223 248 223 Z " id="path1"/>
</defs>
<g>
<g data-source-text="y" fill="#dee4e3" transform="translate(40 104.99201) rotate(0) scale(0.09599999)">
<use href="#path1" transform="translate(0 0)"/>
</g>
</g>
</svg>