<svg xmlns="http://www.w3.org/2000/svg" height="160" viewBox="0 0 128 160" width="128"><defs><path d="M 76 215 L 76 145 L 129 145 C 135.66666 145 142.66666 144.16667 150.00002 142.5 C 157.33334 140.83334 163.5 137.33334 168.50002 132 C 173.49998 126.66667 177.33333 120.666664 180.00002 114.00001 C 182.66667 107.333336 184.99998 100.666664 187 94.00001 L 210 15.000001 L 72.00001 -450.00003 L 18.000002 -450.00003 L 18.000002 -520.00006 L 132 -520.00006 L 251.00002 -105 L 368 -520.00006 L 449 -520.00006 L 262 113.00001 C 261.33334 114.99999 260.83334 116.66666 260.5 118.00001 C 260.1667 119.33333 259.66666 121.00001 259 123.00001 L 259 123.00001 C 254.33333 137.00002 248.5 150.5 241.5 163.5 C 234.5 176.50002 224.99998 187.16667 213 195.5 C 200.99998 203.83333 187.66666 209.16667 173 211.50002 C 158.33334 213.83334 143.66667 215 129 215 Z " id="path1"/></defs><g><g fill="#ffffff" transform="translate(40 105.20961) rotate(0)"><use href="#path1" transform="translate(0 0) scale(0.09599999)"/></g></g></svg>