<?xml version="1.0" encoding="UTF-8" standalone="no"?>
<svg height="160" viewBox="0 0 128 160" width="128" xmlns="http://www.w3.org/2000/svg">
<defs>
<path d="M 74 215 L 74 145 L 127 145 Q 138 145 149 141.5 Q 160 138 167 129.5 Q 174 121 178 110.5 Q 182 100 186 89 L 209 26 L 94 -292 Q 80 -329 72 -368 Q 64 -407 64 -447 L 64 -450 L 18 -450 L 18 -520 L 188 -520 L 188 -450 L 142 -450 L 142 -447 Q 142 -413 149 -380 Q 156 -347 167 -315 L 250 -75 L 333 -315 Q 344 -347 351 -380 Q 358 -413 358 -447 L 358 -450 L 312 -450 L 312 -520 L 482 -520 L 482 -450 L 436 -450 L 436 -447 Q 436 -407 428 -368 Q 420 -329 406 -292 L 259 113 Q 251 135 241 156 Q 231 177 213 191.5 Q 195 206 172.5 210.5 Q 150 215 127 215 Z " id="path1"/>
</defs>
<g>
<g data-source-text="y" fill="#dee4e3" transform="translate(40 104.99201) rotate(0) scale(0.09599999)">
<use href="#path1" transform="translate(0 0)"/>
</g>
</g>
</svg>