<svg xmlns="http://www.w3.org/2000/svg" height="160" viewBox="0 0 128 160" width="128"><defs><path d="M 76 215 L 76 145 L 129 145 C 136.33334 145 143.5 144 150.5 142 C 157.5 139.99998 163.5 136.16666 168.50002 130.5 C 173.49998 124.83333 177.33333 118.5 180.00002 111.50001 C 182.66667 104.5 184.99998 97.666664 187 91 L 209.00002 26.000002 L 93.00001 -318 C 89.666664 -328 86.333336 -338.33334 83 -349.00003 C 79.666664 -359.6667 76.666664 -370.3333 74 -381 C 71.333336 -391.66666 69 -402.5 67 -413.5 C 65 -424.5 64 -435.66666 64 -447 L 64 -520.00006 L 142 -520.00006 L 142 -447 C 142 -431.66666 144 -416.6667 148 -402 C 152 -387.3333 156.33334 -372.66666 161.00002 -358 L 161.00002 -358 C 161.00002 -358 161.00002 -358 161.00002 -358 C 161.00002 -358 161.00002 -358 161.00002 -358 C 161.00002 -358 161.00002 -357.8333 161.00002 -357.5 C 161.00002 -357.16666 161.00002 -356.99997 161.00002 -357 L 161.00002 -357 L 161.00002 -357 C 161.66667 -355.66666 162.16666 -354.33334 162.50002 -353.00003 C 162.83334 -351.66666 163.33333 -350.33334 164.00002 -349.00003 L 164.00002 -348.00003 C 164.66667 -346.66666 165.33333 -345.33334 166 -344.00003 C 166.66666 -342.6667 166.99998 -341.3333 167 -340 L 250 -83 L 333 -340 C 333 -341.3333 333.3333 -342.6667 334 -344.00003 C 334.66666 -345.33334 335.33334 -346.66666 336.00003 -348.00003 C 336.00003 -348.00003 336.00003 -348.00003 336.00003 -348.00003 C 336.00003 -348.00003 336.00003 -348.00003 336.00003 -348.00003 L 336.00003 -348.00003 C 336.00003 -348.00003 336.00003 -348.00003 336.00003 -348.00003 C 336.00003 -348.00003 336.00003 -348.00003 336.00003 -348.00003 C 336.00003 -348.00003 336.00003 -348.00003 336.00003 -348.00003 C 336.00003 -348.00003 336.00003 -348.33337 336.00003 -349.00003 C 336.6667 -350.33334 337.1667 -351.66666 337.50003 -353.00003 C 337.83334 -354.33334 338.33334 -355.66666 339 -357 L 339 -358 C 343.66666 -372 347.99997 -386.49997 352 -401.5 C 356 -416.5 358 -431.66666 358 -447 L 358 -520.00006 L 436 -520.00006 L 436 -447 C 435.99997 -435.66666 435 -424.5 433.00003 -413.5 C 431 -402.5 428.66666 -391.66666 426 -381 C 423.33334 -370.3333 420.33334 -359.6667 417.00003 -349.00003 C 413.6667 -338.33334 410.3333 -328 407 -318 L 261 113.00001 C 260.33334 114.333336 259.83334 115.5 259.5 116.5 C 259.16666 117.5 259 118.66667 259 120.00001 L 259 120.00001 L 259 120.00001 C 254.33333 134 248.33333 147.66667 241 161.00002 C 233.66667 174.33334 224.16667 185.33334 212.5 194.00002 C 200.83333 202.66667 187.66666 208.33334 173 211.00002 C 158.33334 213.66667 143.66667 215 129 215 Z " id="path1"/></defs><g><g fill="#000000" transform="translate(40 105.20961) rotate(0)"><use href="#path1" transform="translate(0 0) scale(0.09599999)"/></g></g></svg>