<?xml version="1.0" encoding="UTF-8" standalone="no"?>
<svg height="160" viewBox="0 0 128 160" width="128" xmlns="http://www.w3.org/2000/svg">
<defs>
<path d="M 250 8 Q 221 8 193 -3.5 Q 165 -15 145 -36 Q 125 -57 111 -83 Q 97 -109 87.5 -136.5 Q 78 -164 72 -193 Q 66 -222 62.5 -251 Q 59 -280 57.5 -309 Q 56 -338 56 -368 Q 56 -397 57.5 -426 Q 59 -455 62.5 -484 Q 66 -513 72 -542 Q 78 -571 87.5 -598.5 Q 97 -626 111 -652 Q 125 -678 145 -699 Q 165 -720 193 -731.5 Q 221 -743 250 -743 Q 279 -743 307 -731.5 Q 335 -720 355 -699 Q 375 -678 389 -652 Q 403 -626 412.5 -598.5 Q 422 -571 428 -542 Q 434 -513 437.5 -484 Q 441 -455 442.5 -426 Q 444 -397 444 -368 Q 444 -338 442.5 -309 Q 441 -280 437.5 -251 Q 434 -222 428 -193 Q 422 -164 412.5 -136.5 Q 403 -109 389 -83 Q 375 -57 355 -36 Q 335 -15 307 -3.5 Q 279 8 250 8 Z M 284 -71 Q 301 -80 312.5 -97 Q 324 -114 332 -132.5 Q 340 -151 345 -170 Q 350 -189 354 -208.5 Q 358 -228 360 -248 Q 362 -268 363.5 -288 Q 365 -308 365.5 -328 Q 366 -348 366 -368 Q 366 -387 365.5 -407 Q 365 -427 363.5 -447 Q 362 -467 360 -487 Q 358 -507 354 -526.5 Q 350 -546 345 -565 Q 340 -584 332 -602.5 Q 324 -621 312.5 -638 Q 301 -655 284 -664 L 284 -413 L 216 -413 L 216 -664 Q 199 -655 187.5 -638 Q 176 -621 168 -602.5 Q 160 -584 155 -565 Q 150 -546 146 -526.5 Q 142 -507 140 -487 Q 138 -467 136.5 -447 Q 135 -427 134.5 -407 Q 134 -387 134 -368 Q 134 -348 134.5 -328 Q 135 -308 136.5 -288 Q 138 -268 140 -248 Q 142 -228 146 -208.5 Q 150 -189 155 -170 Q 160 -151 168 -132.5 Q 176 -114 187.5 -97 Q 199 -80 216 -71 L 216 -322 L 284 -322 Z " id="path1"/>
</defs>
<g>
<g data-source-text="0" fill="#20242e" transform="translate(40 104.99201) rotate(0) scale(0.09599999)">
<use href="#path1" transform="translate(0 0)"/>
</g>
</g>
</svg>