<?xml version="1.0" encoding="UTF-8" standalone="no"?>
<svg height="160" viewBox="0 0 128 160" width="128" xmlns="http://www.w3.org/2000/svg">
<defs>
<path d="M 75 -180 Q 64 -226 60 -273 Q 56 -320 56 -368 Q 56 -397 57.5 -426 Q 59 -455 62.5 -484 Q 66 -513 72 -542 Q 78 -571 87.5 -598.5 Q 97 -626 111 -652 Q 125 -678 145 -699 Q 165 -720 193 -731.5 Q 221 -743 250 -743 Q 273 -743 295 -736.5 Q 317 -730 335.5 -716.5 Q 354 -703 367.5 -685 Q 381 -667 392 -646 L 342 -574 Q 337 -591 329.5 -608 Q 322 -625 311.5 -639.5 Q 301 -654 284.5 -663.5 Q 268 -673 250 -673 Q 232 -673 216 -664 Q 200 -655 189.5 -641 Q 179 -627 171.5 -610.5 Q 164 -594 158.5 -577.5 Q 153 -561 149.5 -543.5 Q 146 -526 143 -508.5 Q 140 -491 138.5 -473.5 Q 137 -456 136 -438.5 Q 135 -421 134.5 -403 Q 134 -385 134 -368 Q 134 -344 134.5 -320 Q 135 -296 137 -272 Z M 250 8 Q 227 8 205 1.5 Q 183 -5 164.5 -18.5 Q 146 -32 132.5 -50 Q 119 -68 108 -89 L 158 -161 Q 163 -144 170.5 -127 Q 178 -110 188.5 -95.5 Q 199 -81 215.5 -71.5 Q 232 -62 250 -62 Q 268 -62 284 -71 Q 300 -80 310.5 -94 Q 321 -108 328.5 -124.5 Q 336 -141 341.5 -157.5 Q 347 -174 350.5 -191.5 Q 354 -209 357 -226.5 Q 360 -244 361.5 -261.5 Q 363 -279 364 -296.5 Q 365 -314 365.5 -332 Q 366 -350 366 -368 Q 366 -391 365.5 -415 Q 365 -439 363 -463 L 425 -555 Q 436 -509 440 -462 Q 444 -415 444 -368 Q 444 -338 442.5 -309 Q 441 -280 437.5 -251 Q 434 -222 428 -193 Q 422 -164 412.5 -136.5 Q 403 -109 389 -83 Q 375 -57 355 -36 Q 335 -15 307 -3.5 Q 279 8 250 8 Z " id="path1"/>
</defs>
<g>
<g data-source-text="0" fill="#dee4e3" transform="translate(40 104.99201) rotate(0) scale(0.09599999)">
<use href="#path1" transform="translate(0 0)"/>
</g>
</g>
</svg>