<svg xmlns="http://www.w3.org/2000/svg" height="160" viewBox="0 0 128 160" width="128"><defs><path d="M 64 0 L 64 -33 C 64 -48.33333 65.5 -63.5 68.50001 -78.50001 C 71.49999 -93.5 76 -108.16667 82.00001 -122.50001 C 88 -136.83333 95.50001 -150.16667 104.50001 -162.50002 C 113.5 -174.83333 123.333336 -186.66666 134 -198 L 175 -238 L 119 -238 L 119 -303 L 241 -303 L 311.00003 -372.00003 C 321.6667 -382.6667 330.66666 -394.6667 338.00003 -408 C 345.33334 -421.3333 350.6667 -435.33334 354.00003 -450.00003 L 141 -450.00003 L 141 -375 L 64 -375 L 64 -520.00006 L 436 -520.00006 L 436 -488 C 435.99997 -471.99997 434.5 -456.5 431.5 -441.5 C 428.50003 -426.50003 424.00003 -411.83334 418.00003 -397.5 C 412.00003 -383.1667 404.50003 -369.8333 395.5 -357.5 C 386.5 -345.16666 376.6667 -333.3333 366.00003 -322.00003 L 346 -303 L 381 -303 L 381 -238 L 280.00003 -238 L 189.00002 -148 C 178.33333 -137.33333 169.33334 -125.333336 162 -112 C 154.66667 -98.66667 149.33333 -84.66667 146 -70.00001 L 359.00003 -70.00001 L 359.00003 -145 L 436 -145 L 436 0 Z " id="path1"/></defs><g><g fill="#ffffff" transform="translate(40 105.20961) rotate(0)"><use href="#path1" transform="translate(0 0) scale(0.09599999)"/></g></g></svg>