<?xml version="1.0" encoding="UTF-8" standalone="no"?>
<svg height="160" viewBox="0 0 128 160" width="128" xmlns="http://www.w3.org/2000/svg">
<defs>
<path d="M 286 6 L 286 -78 Q 288 -82 289 -85.5 Q 290 -89 291 -92 L 336 -232 Q 342 -249 347 -265.5 Q 352 -282 356.5 -299 Q 361 -316 363.5 -333 Q 366 -350 366 -367 Q 366 -385 363.5 -402 Q 361 -419 356.5 -436 Q 352 -453 347 -469.5 Q 342 -486 336 -503 L 291 -643 Q 290 -646 289 -649.5 Q 288 -653 286 -657 L 286 -741 Q 300 -738 312.5 -731 Q 325 -724 334.5 -713.5 Q 344 -703 349.5 -690 Q 355 -677 360 -664 L 408 -524 L 409 -523 Q 415 -504 421.5 -485 Q 428 -466 433 -446.5 Q 438 -427 441 -407.5 Q 444 -388 444 -368 Q 444 -347 441 -327.5 Q 438 -308 433 -288.5 Q 428 -269 421.5 -250 Q 415 -231 409 -212 L 408 -212 L 408 -211 L 360 -71 Q 355 -58 349.5 -45 Q 344 -32 334.5 -21.5 Q 325 -11 312.5 -4 Q 300 3 286 6 Z M 214 6 Q 200 3 187.5 -4 Q 175 -11 165.5 -21.5 Q 156 -32 150.5 -45 Q 145 -58 140 -71 L 92 -211 L 91 -212 Q 85 -231 78.5 -250 Q 72 -269 67 -288.5 Q 62 -308 59 -327.5 Q 56 -347 56 -367 Q 56 -388 59 -407.5 Q 62 -427 67 -446.5 Q 72 -466 78.5 -485 Q 85 -504 91 -523 L 92 -523 L 92 -524 L 140 -664 Q 145 -677 150.5 -690 Q 156 -703 165.5 -713.5 Q 175 -724 187.5 -731 Q 200 -738 214 -741 L 214 -657 Q 212 -653 211 -649.5 Q 210 -646 209 -643 L 164 -503 Q 158 -486 153 -469.5 Q 148 -453 143.5 -436 Q 139 -419 136.5 -402 Q 134 -385 134 -368 Q 134 -350 136.5 -333 Q 139 -316 143.5 -299 Q 148 -282 153 -265.5 Q 158 -249 164 -232 L 209 -92 Q 210 -89 211 -85.5 Q 212 -82 214 -78 Z " id="path1"/>
</defs>
<g>
<g data-source-text="0" fill="#dee4e3" transform="translate(40 104.99201) rotate(0) scale(0.09599999)">
<use href="#path1" transform="translate(0 0)"/>
</g>
</g>
</svg>