<?xml version="1.0" encoding="UTF-8" standalone="no"?>
<svg height="160" viewBox="0 0 128 160" width="128" xmlns="http://www.w3.org/2000/svg">
<defs>
<path d="M 289 5 L 289 -97 L 307 -150 L 334 -233 Q 340 -250 345.5 -266.5 Q 351 -283 355.5 -299.5 Q 360 -316 363 -333 Q 366 -350 366 -367 Q 366 -385 363 -402 Q 360 -419 355.5 -435.5 Q 351 -452 345.5 -468.5 Q 340 -485 334 -502 L 289 -638 L 289 -740 Q 303 -737 315 -730 Q 327 -723 336.5 -712.5 Q 346 -702 351.5 -689 Q 357 -676 362 -662 L 410 -519 Q 416 -501 422 -482.5 Q 428 -464 433 -445 Q 438 -426 441 -406.5 Q 444 -387 444 -368 Q 444 -348 441 -328.5 Q 438 -309 433 -290 Q 428 -271 422 -252.5 Q 416 -234 410 -216 L 408 -211 L 362 -73 Q 357 -59 351.5 -46 Q 346 -33 336.5 -22.5 Q 327 -12 315 -5 Q 303 2 289 5 Z M 211 5 Q 197 2 185 -5 Q 173 -12 163.5 -22.5 Q 154 -33 148.5 -46 Q 143 -59 138 -73 L 90 -216 Q 84 -234 78 -252.5 Q 72 -271 67 -290 Q 62 -309 59 -328.5 Q 56 -348 56 -367 Q 56 -387 59 -406.5 Q 62 -426 67 -445 Q 72 -464 78 -482.5 Q 84 -501 90 -519 L 92 -524 L 138 -662 Q 143 -676 148.5 -689 Q 154 -702 163.5 -712.5 Q 173 -723 185 -730 Q 197 -737 211 -740 L 211 -638 L 166 -502 Q 160 -485 154.5 -468.5 Q 149 -452 144.5 -435.5 Q 140 -419 137 -402 Q 134 -385 134 -368 Q 134 -350 137 -333 Q 140 -316 144.5 -299.5 Q 149 -283 154.5 -266.5 Q 160 -250 166 -233 L 211 -97 Z " id="path1"/>
</defs>
<g>
<g data-source-text="0" fill="#dee4e3" transform="translate(40 104.99201) rotate(0) scale(0.09599999)">
<use href="#path1" transform="translate(0 0)"/>
</g>
</g>
</svg>