<?xml version="1.0" encoding="UTF-8" standalone="no"?>
<svg height="160" viewBox="0 0 128 160" width="128" xmlns="http://www.w3.org/2000/svg">
<defs>
<path d="M 286 6 L 286 -66 Q 306 -72 323 -86 Q 340 -100 349.5 -118.5 Q 359 -137 362.5 -158 Q 366 -179 366 -200 L 366 -535 Q 366 -556 362.5 -577 Q 359 -598 349.5 -616.5 Q 340 -635 323 -649 Q 306 -663 286 -669 L 286 -741 Q 310 -738 332.5 -729.5 Q 355 -721 374 -706 Q 393 -691 407 -671 Q 421 -651 429.5 -629 Q 438 -607 441 -583 Q 444 -559 444 -535 L 444 -200 Q 444 -176 441 -152 Q 438 -128 429.5 -106 Q 421 -84 407 -64 Q 393 -44 374 -29 Q 355 -14 332.5 -5.5 Q 310 3 286 6 Z M 214 6 Q 190 3 167.5 -5.5 Q 145 -14 126 -29 Q 107 -44 93 -64 Q 79 -84 70.5 -106 Q 62 -128 59 -152 Q 56 -176 56 -200 L 56 -535 Q 56 -559 59 -583 Q 62 -607 70.5 -629 Q 79 -651 93 -671 Q 107 -691 126 -706 Q 145 -721 167.5 -729.5 Q 190 -738 214 -741 L 214 -669 Q 194 -663 177 -649 Q 160 -635 150.5 -616.5 Q 141 -598 137.5 -577 Q 134 -556 134 -535 L 134 -200 Q 134 -179 137.5 -158 Q 141 -137 150.5 -118.5 Q 160 -100 177 -86 Q 194 -72 214 -66 Z " id="path1"/>
</defs>
<g>
<g data-source-text="0" fill="#20242e" transform="translate(40 104.99201) rotate(0) scale(0.09599999)">
<use href="#path1" transform="translate(0 0)"/>
</g>
</g>
</svg>