<?xml version="1.0" encoding="UTF-8" standalone="no"?>
<svg xmlns='http://www.w3.org/2000/svg' height="160" viewBox="0 0 128 160" width="128"><defs><path d="M 432 -272 L 358 -331 L 358 -368 Q 358 -385 358 -402.5 Q 358 -420 357 -437.5 Q 356 -455 354 -472.5 Q 352 -490 349.5 -507 Q 347 -524 343.5 -541 Q 340 -558 335.5 -575 Q 331 -592 324 -608 Q 317 -624 307.5 -638.5 Q 298 -653 282.5 -663 Q 267 -673 250 -673 Q 232 -673 216 -662 Q 200 -651 190.5 -636 Q 181 -621 174 -603.5 Q 167 -586 162.5 -568.5 Q 158 -551 154.5 -533 Q 151 -515 149 -497 L 81 -551 Q 86 -573 93 -595.5 Q 100 -618 110 -639 Q 120 -660 133 -679 Q 146 -698 164 -713 Q 182 -728 204.5 -735.5 Q 227 -743 250 -743 Q 279 -743 306 -731 Q 333 -719 352.5 -697.5 Q 372 -676 385 -649.5 Q 398 -623 407 -596 Q 416 -569 421.5 -540.5 Q 427 -512 430 -483 Q 433 -454 434.5 -425 Q 436 -396 436 -368 Q 436 -344 435 -320 Q 434 -296 432 -272 Z M 250 8 Q 221 8 194 -4 Q 167 -16 147.5 -37.5 Q 128 -59 115 -85.5 Q 102 -112 93 -139 Q 84 -166 78.5 -194.5 Q 73 -223 70 -252 Q 67 -281 65.5 -310 Q 64 -339 64 -368 Q 64 -391 65 -415 Q 66 -439 68 -463 L 142 -404 L 142 -368 Q 142 -350 142 -332.5 Q 142 -315 143 -297.5 Q 144 -280 146 -262.5 Q 148 -245 150.5 -228 Q 153 -211 156.5 -194 Q 160 -177 164.5 -160 Q 169 -143 176 -127 Q 183 -111 192.5 -96.5 Q 202 -82 217.5 -72 Q 233 -62 250 -62 Q 268 -62 284 -73 Q 300 -84 309.5 -99 Q 319 -114 326 -131.5 Q 333 -149 337.5 -166.5 Q 342 -184 345.5 -202 Q 349 -220 351 -238 L 419 -184 Q 414 -162 407 -139.5 Q 400 -117 390 -96 Q 380 -75 367 -56 Q 354 -37 336 -22 Q 318 -7 295.5 0.5 Q 273 8 250 8 Z " id="path1"/></defs><g><g data-source-text="0" fill="#dee4e3" transform="translate(40 104.99201) rotate(0) scale(0.09599999)"><use href="#path1" transform="translate(0 0)"/></g></g></svg>