<?xml version="1.0" encoding="UTF-8" standalone="no"?>
<svg xmlns='http://www.w3.org/2000/svg' height="160" viewBox="0 0 128 160" width="128"><defs><path d="M 250 8 Q 221 8 194 -4 Q 167 -16 147.5 -37.5 Q 128 -59 115 -85.5 Q 102 -112 93 -139 Q 84 -166 78.5 -194.5 Q 73 -223 70 -252 Q 67 -281 65.5 -310 Q 64 -339 64 -368 Q 64 -396 65.5 -425 Q 67 -454 70 -483 Q 73 -512 78.5 -540.5 Q 84 -569 93 -596 Q 102 -623 115 -649.5 Q 128 -676 147.5 -697.5 Q 167 -719 194 -731 Q 221 -743 250 -743 Q 279 -743 306 -731 Q 333 -719 352.5 -697.5 Q 372 -676 385 -649.5 Q 398 -623 407 -596 Q 416 -569 421.5 -540.5 Q 427 -512 430 -483 Q 433 -454 434.5 -425 Q 436 -396 436 -368 Q 436 -339 434.5 -310 Q 433 -281 430 -252 Q 427 -223 421.5 -194.5 Q 416 -166 407 -139 Q 398 -112 385 -85.5 Q 372 -59 352.5 -37.5 Q 333 -16 306 -4 Q 279 8 250 8 Z M 250 -62 Q 267 -62 282.5 -72 Q 298 -82 307.5 -96.5 Q 317 -111 324 -127 Q 331 -143 335.5 -160 Q 340 -177 343.5 -194 Q 347 -211 349.5 -228 Q 352 -245 354 -262.5 Q 356 -280 357 -297.5 Q 358 -315 358 -332.5 Q 358 -350 358 -368 Q 358 -385 358 -402.5 Q 358 -420 357 -437.5 Q 356 -455 354 -472.5 Q 352 -490 349.5 -507 Q 347 -524 343.5 -541 Q 340 -558 335.5 -575 Q 331 -592 324 -608 Q 317 -624 307.5 -638.5 Q 298 -653 282.5 -663 Q 267 -673 250 -673 Q 233 -673 217.5 -663 Q 202 -653 192.5 -638.5 Q 183 -624 176 -608 Q 169 -592 164.5 -575 Q 160 -558 156.5 -541 Q 153 -524 150.5 -507 Q 148 -490 146 -472.5 Q 144 -455 143 -437.5 Q 142 -420 142 -402.5 Q 142 -385 142 -368 Q 142 -350 142 -332.5 Q 142 -315 143 -297.5 Q 144 -280 146 -262.5 Q 148 -245 150.5 -228 Q 153 -211 156.5 -194 Q 160 -177 164.5 -160 Q 169 -143 176 -127 Q 183 -111 192.5 -96.5 Q 202 -82 217.5 -72 Q 233 -62 250 -62 Z " id="path1"/></defs><g><g data-source-text="0" fill="#20242e" transform="translate(40 104.99201) rotate(0) scale(0.09599999)"><use href="#path1" transform="translate(0 0)"/></g></g></svg>