<?xml version="1.0" encoding="UTF-8" standalone="no"?>
<svg height="160" viewBox="0 0 128 160" width="128" xmlns="http://www.w3.org/2000/svg">
<defs>
<path d="M 250 8 Q 221 8 193 -3.5 Q 165 -15 145 -36 Q 125 -57 111 -83 Q 97 -109 87.5 -136.5 Q 78 -164 72 -193 Q 66 -222 62.5 -251 Q 59 -280 57.5 -309 Q 56 -338 56 -368 Q 56 -397 57.5 -426 Q 59 -455 62.5 -484 Q 66 -513 72 -542 Q 78 -571 87.5 -598.5 Q 97 -626 111 -652 Q 125 -678 145 -699 Q 165 -720 193 -731.5 Q 221 -743 250 -743 Q 279 -743 307 -731.5 Q 335 -720 355 -699 Q 375 -678 389 -652 Q 403 -626 412.5 -598.5 Q 422 -571 428 -542 Q 434 -513 437.5 -484 Q 441 -455 442.5 -426 Q 444 -397 444 -368 Q 444 -338 442.5 -309 Q 441 -280 437.5 -251 Q 434 -222 428 -193 Q 422 -164 412.5 -136.5 Q 403 -109 389 -83 Q 375 -57 355 -36 Q 335 -15 307 -3.5 Q 279 8 250 8 Z M 250 -62 Q 268 -62 284 -71 Q 300 -80 310.5 -94 Q 321 -108 328.5 -124.5 Q 336 -141 341.5 -157.5 Q 347 -174 350.5 -191.5 Q 354 -209 357 -226.5 Q 360 -244 361.5 -261.5 Q 363 -279 364 -296.5 Q 365 -314 365.5 -332 Q 366 -350 366 -368 Q 366 -408 363.5 -449 Q 361 -490 353 -530 L 310 -423 L 234 -423 L 317 -631 Q 306 -649 288.5 -661 Q 271 -673 250 -673 Q 232 -673 216 -664 Q 200 -655 189.5 -641 Q 179 -627 171.5 -610.5 Q 164 -594 158.5 -577.5 Q 153 -561 149.5 -543.5 Q 146 -526 143 -508.5 Q 140 -491 138.5 -473.5 Q 137 -456 136 -438.5 Q 135 -421 134.5 -403 Q 134 -385 134 -368 Q 134 -327 136.5 -286 Q 139 -245 147 -205 L 190 -312 L 266 -312 L 183 -104 Q 194 -86 211.5 -74 Q 229 -62 250 -62 Z " id="path1"/>
</defs>
<g>
<g data-source-text="0" fill="#20242e" transform="translate(40 104.99201) rotate(0) scale(0.09599999)">
<use href="#path1" transform="translate(0 0)"/>
</g>
</g>
</svg>