<?xml version="1.0" encoding="UTF-8" standalone="no"?>
<svg height="160" viewBox="0 0 128 160" width="128" xmlns="http://www.w3.org/2000/svg">
<defs>
<path d="M 250 8 Q 223 8 196.5 2.5 Q 170 -3 146.5 -16 Q 123 -29 104.5 -49.5 Q 86 -70 75 -94.5 Q 64 -119 60 -146 Q 56 -173 56 -200 L 56 -535 Q 56 -562 60 -589 Q 64 -616 75 -640.5 Q 86 -665 104.5 -685.5 Q 123 -706 146.5 -719 Q 170 -732 196.5 -737.5 Q 223 -743 250 -743 Q 277 -743 303.5 -737.5 Q 330 -732 353.5 -719 Q 377 -706 395.5 -685.5 Q 414 -665 425 -640.5 Q 436 -616 440 -589 Q 444 -562 444 -535 L 444 -200 Q 444 -173 440 -146 Q 436 -119 425 -94.5 Q 414 -70 395.5 -49.5 Q 377 -29 353.5 -16 Q 330 -3 303.5 2.5 Q 277 8 250 8 Z M 250 -62 Q 267 -62 284 -66 Q 301 -70 315 -79.5 Q 329 -89 339.5 -103 Q 350 -117 356 -133 Q 362 -149 364 -166 Q 366 -183 366 -200 L 366 -535 Q 366 -542 366 -549 Q 366 -556 365 -563 L 308 -423 L 236 -423 Q 259 -479 281.5 -534.5 Q 304 -590 327 -646 Q 311 -660 291 -666.5 Q 271 -673 250 -673 Q 233 -673 216 -669 Q 199 -665 185 -655.5 Q 171 -646 160.5 -632 Q 150 -618 144 -602 Q 138 -586 136 -569 Q 134 -552 134 -535 L 134 -200 Q 134 -193 134 -186 Q 134 -179 135 -172 L 192 -312 L 264 -312 L 173 -89 Q 189 -75 209 -68.5 Q 229 -62 250 -62 Z " id="path1"/>
</defs>
<g>
<g data-source-text="0" fill="#dee4e3" transform="translate(40 104.99201) rotate(0) scale(0.09599999)">
<use href="#path1" transform="translate(0 0)"/>
</g>
</g>
</svg>