<?xml version="1.0" encoding="UTF-8" standalone="no"?>
<svg height="160" viewBox="0 0 128 160" width="128" xmlns="http://www.w3.org/2000/svg">
<defs>
<path d="M 250 8 Q 223 8 196.5 2.5 Q 170 -3 146.5 -16 Q 123 -29 104.5 -49.5 Q 86 -70 75 -94.5 Q 64 -119 60 -146 Q 56 -173 56 -200 L 56 -535 Q 56 -562 60 -589 Q 64 -616 75 -640.5 Q 86 -665 104.5 -685.5 Q 123 -706 146.5 -719 Q 170 -732 196.5 -737.5 Q 223 -743 250 -743 Q 277 -743 303.5 -737.5 Q 330 -732 353.5 -719 Q 377 -706 395.5 -685.5 Q 414 -665 425 -640.5 Q 436 -616 440 -589 Q 444 -562 444 -535 L 444 -200 Q 444 -173 440 -146 Q 436 -119 425 -94.5 Q 414 -70 395.5 -49.5 Q 377 -29 353.5 -16 Q 330 -3 303.5 2.5 Q 277 8 250 8 Z M 216 -66 L 216 -322 L 284 -322 L 284 -66 Q 305 -71 322 -85 Q 339 -99 349 -117.5 Q 359 -136 362.5 -157.5 Q 366 -179 366 -200 L 366 -535 Q 366 -556 362.5 -577.5 Q 359 -599 349 -617.5 Q 339 -636 322 -650 Q 305 -664 284 -669 L 284 -413 L 216 -413 L 216 -669 Q 195 -664 178 -650 Q 161 -636 151 -617.5 Q 141 -599 137.5 -577.5 Q 134 -556 134 -535 L 134 -200 Q 134 -179 137.5 -157.5 Q 141 -136 151 -117.5 Q 161 -99 178 -85 Q 195 -71 216 -66 Z " id="path1"/>
</defs>
<g>
<g data-source-text="0" fill="#dee4e3" transform="translate(40 104.99201) rotate(0) scale(0.09599999)">
<use href="#path1" transform="translate(0 0)"/>
</g>
</g>
</svg>