<?xml version="1.0" encoding="UTF-8" standalone="no"?>
<svg xmlns="http://www.w3.org/2000/svg" height="160" viewBox="0 0 128 160" width="128"><defs><path d="M 341 8 Q 318 8 296 -1 Q 274 -10 253.5 -19.5 Q 233 -29 211.5 -37 Q 190 -45 168 -52 L 134 -62 L 134 0 L 64 0 L 64 -113 L 179 -238 L 119 -238 L 119 -303 L 238 -303 L 328 -401 L 323 -402 Q 302 -410 282 -418 Q 262 -426 242 -434.5 Q 222 -443 201.5 -450.5 Q 181 -458 159 -458 Q 154 -458 151.5 -453 Q 149 -448 147.5 -443 Q 146 -438 145 -433 Q 144 -428 143 -422.5 Q 142 -417 142 -412 Q 142 -407 141.5 -401.5 Q 141 -396 141 -391 Q 141 -386 141 -381 L 141 -338 L 64 -338 L 64 -381 Q 64 -397 65.5 -413.5 Q 67 -430 71 -446 Q 75 -462 82 -477 Q 89 -492 100.5 -504 Q 112 -516 127.5 -522 Q 143 -528 159 -528 Q 184 -528 208 -520.5 Q 232 -513 255.5 -504 Q 279 -495 302 -486 Q 325 -477 349 -468 L 366 -462 L 366 -520 L 436 -520 L 436 -407 L 340 -303 L 381 -303 L 381 -238 L 281 -238 L 175 -123 L 190 -119 Q 203 -115 215.5 -110.5 Q 228 -106 240.5 -100.5 Q 253 -95 265 -88.5 Q 277 -82 289 -76.5 Q 301 -71 314 -66.5 Q 327 -62 341 -62 Q 346 -62 348.5 -67 Q 351 -72 352.5 -77 Q 354 -82 355 -87 Q 356 -92 357 -97.5 Q 358 -103 358 -108 Q 358 -113 358.5 -118.5 Q 359 -124 359 -129 Q 359 -134 359 -139 L 359 -183 L 436 -183 L 436 -139 Q 436 -123 434.5 -106.5 Q 433 -90 429 -74 Q 425 -58 418 -43 Q 411 -28 399.5 -16 Q 388 -4 372.5 2 Q 357 8 341 8 Z " id="path1"/></defs><g><g data-source-text="z" fill="#dee4e3" transform="translate(40 104.99201) rotate(0) scale(0.09599999)"><use href="#path1" transform="translate(0 0)"/></g></g></svg>