<?xml version="1.0" encoding="UTF-8" standalone="no"?>
<svg height="160" viewBox="0 0 128 160" width="128" xmlns="http://www.w3.org/2000/svg">
<defs>
<path d="M 61 -266 Q 58 -291 57 -316.5 Q 56 -342 56 -368 Q 56 -397 57.5 -426 Q 59 -455 62.5 -484 Q 66 -513 72 -542 Q 78 -571 87.5 -598.5 Q 97 -626 111 -652 Q 125 -678 145 -699 Q 165 -720 193 -731.5 Q 221 -743 250 -743 Q 273 -743 295.5 -736 Q 318 -729 336.5 -715 Q 355 -701 369 -682 Q 383 -663 393.5 -642.5 Q 404 -622 412 -600 Q 420 -578 425 -555 L 358 -502 Q 355 -520 351.5 -538 Q 348 -556 342.5 -573.5 Q 337 -591 329.5 -607.5 Q 322 -624 311.5 -639 Q 301 -654 284.5 -663.5 Q 268 -673 250 -673 Q 232 -673 216 -664 Q 200 -655 189.5 -641 Q 179 -627 171.5 -610.5 Q 164 -594 158.5 -577.5 Q 153 -561 149.5 -543.5 Q 146 -526 143 -508.5 Q 140 -491 138.5 -473.5 Q 137 -456 136 -438.5 Q 135 -421 134.5 -403 Q 134 -385 134 -368 L 134 -325 Z M 250 8 Q 227 8 204.5 1 Q 182 -6 163.5 -20 Q 145 -34 131 -53 Q 117 -72 106.5 -92.5 Q 96 -113 88 -135 Q 80 -157 75 -180 L 142 -233 Q 145 -215 148.5 -197 Q 152 -179 157.5 -161.5 Q 163 -144 170.5 -127.5 Q 178 -111 188.5 -96 Q 199 -81 215.5 -71.5 Q 232 -62 250 -62 Q 268 -62 284 -71 Q 300 -80 310.5 -94 Q 321 -108 328.5 -124.5 Q 336 -141 341.5 -157.5 Q 347 -174 350.5 -191.5 Q 354 -209 357 -226.5 Q 360 -244 361.5 -261.5 Q 363 -279 364 -296.5 Q 365 -314 365.5 -332 Q 366 -350 366 -368 L 366 -410 L 439 -469 Q 442 -444 443 -418.5 Q 444 -393 444 -368 Q 444 -338 442.5 -309 Q 441 -280 437.5 -251 Q 434 -222 428 -193 Q 422 -164 412.5 -136.5 Q 403 -109 389 -83 Q 375 -57 355 -36 Q 335 -15 307 -3.5 Q 279 8 250 8 Z " id="path1"/>
</defs>
<g>
<g data-source-text="0" fill="#20242e" transform="translate(40 104.99201) rotate(0) scale(0.09599999)">
<use href="#path1" transform="translate(0 0)"/>
</g>
</g>
</svg>