<svg xmlns="http://www.w3.org/2000/svg" height="160" viewBox="0 0 128 160" width="128"><defs><path d="M 250 0 Q 222 -0 195 -11.5 Q 168 -23 148.5 -44 Q 129 -65 116 -90.5 Q 103 -116 94 -143 Q 85 -170 79 -197.5 Q 73 -225 70 -253.5 Q 67 -282 65.5 -310.5 Q 64 -339 64 -367 L 64 -368 Q 64 -396 65.5 -424.5 Q 67 -453 70 -481.5 Q 73 -510 79 -538 Q 85 -566 94 -593 Q 103 -620 116 -646 Q 129 -672 149.5 -692 Q 170 -712 197 -723.5 Q 224 -735 252 -735 Q 281 -735 307.5 -723 Q 334 -711 353 -690 Q 372 -669 385 -643.5 Q 398 -618 407 -591 Q 416 -564 421.5 -536.5 Q 427 -509 430 -480.5 Q 433 -452 434.5 -424 Q 436 -396 436 -367 Q 436 -339 434.5 -310.5 Q 433 -282 430 -254 Q 427 -226 421 -198 Q 415 -170 406 -143 Q 397 -116 384 -90.5 Q 371 -65 351.5 -44 Q 332 -23 305 -11.5 Q 278 -0 250 0 Z M 358 -325 Q 358 -336 358 -346.5 Q 358 -357 358 -368 Q 358 -385 358 -402 Q 358 -419 357 -436 Q 356 -453 354 -470 Q 352 -487 349.5 -503.5 Q 347 -520 343.5 -537 Q 340 -554 335 -570.5 Q 330 -587 323.5 -602.5 Q 317 -618 307.5 -632 Q 298 -646 282.5 -655 Q 267 -664 250 -664 Q 232 -664 216 -654 Q 200 -644 190.5 -628.5 Q 181 -613 174 -596.5 Q 167 -580 162 -562.5 Q 157 -545 154 -527 Q 151 -509 148 -491 Z M 250 -70 Q 268 -70 283.5 -80.5 Q 299 -91 309 -106 Q 319 -121 326 -138 Q 333 -155 338 -172.5 Q 343 -190 346 -208 Q 349 -226 352 -244 L 142 -410 Q 142 -399 142 -388.5 Q 142 -378 142 -368 Q 142 -350 142 -333 Q 142 -316 143 -299 Q 144 -282 146 -265 Q 148 -248 150.5 -231 Q 153 -214 156.5 -197.5 Q 160 -181 165 -164.5 Q 170 -148 176.5 -132 Q 183 -116 193 -102.5 Q 203 -89 218 -79.5 Q 233 -70 250 -70 Z " id="path1"/></defs><g><g fill="#20242e" transform="translate(40 105.20961) rotate(0)"><use href="#path1" transform="translate(0 0) scale(0.09599999)"/></g></g></svg>