<?xml version="1.0" encoding="UTF-8" standalone="no"?>
<svg height="160" viewBox="0 0 128 160" width="128" xmlns="http://www.w3.org/2000/svg">
<defs>
<path d="M 442 -156 L 366 -267 L 366 -535 Q 366 -552 364 -569 Q 362 -586 356 -602 Q 350 -618 339.5 -632 Q 329 -646 315 -655.5 Q 301 -665 284 -669 Q 267 -673 250 -673 Q 232 -673 214.5 -668.5 Q 197 -664 182.5 -653.5 Q 168 -643 158 -628 Q 148 -613 142 -596 L 92 -670 Q 105 -689 123 -703.5 Q 141 -718 161.5 -727 Q 182 -736 204.5 -739.5 Q 227 -743 250 -743 Q 277 -743 303.5 -737.5 Q 330 -732 353.5 -719 Q 377 -706 395.5 -685.5 Q 414 -665 425 -640.5 Q 436 -616 440 -589 Q 444 -562 444 -535 L 444 -200 Q 444 -189 443.5 -178 Q 443 -167 442 -156 Z M 250 8 Q 223 8 196.5 2.5 Q 170 -3 146.5 -16 Q 123 -29 104.5 -49.5 Q 86 -70 75 -94.5 Q 64 -119 60 -146 Q 56 -173 56 -200 L 56 -535 Q 56 -546 56.5 -557 Q 57 -568 58 -579 L 134 -468 L 134 -200 Q 134 -183 136 -166 Q 138 -149 144 -133 Q 150 -117 160.5 -103 Q 171 -89 185 -79.5 Q 199 -70 216 -66 Q 233 -62 250 -62 Q 268 -62 285.5 -66.5 Q 303 -71 317.5 -81.5 Q 332 -92 342 -107 Q 352 -122 358 -139 L 408 -65 Q 395 -46 377 -31.5 Q 359 -17 338.5 -8 Q 318 1 295.5 4.5 Q 273 8 250 8 Z " id="path1"/>
</defs>
<g>
<g data-source-text="0" fill="#dee4e3" transform="translate(40 104.99201) rotate(0) scale(0.09599999)">
<use href="#path1" transform="translate(0 0)"/>
</g>
</g>
</svg>