<?xml version="1.0" encoding="UTF-8" standalone="no"?>
<svg xmlns='http://www.w3.org/2000/svg' height="160" viewBox="0 0 128 160" width="128"><defs><path d="M 289 3 L 289 -76 Q 304 -87 313 -104.5 Q 322 -122 329 -140 Q 336 -158 340.5 -176.5 Q 345 -195 348 -214 Q 351 -233 353 -252.5 Q 355 -272 356 -291 Q 357 -310 357.5 -329 Q 358 -348 358 -368 Q 358 -387 357.5 -406 Q 357 -425 356 -444 Q 355 -463 353 -482.5 Q 351 -502 348 -521 Q 345 -540 340.5 -558.5 Q 336 -577 329 -595 Q 322 -613 313 -630.5 Q 304 -648 289 -659 L 289 -738 Q 314 -730 335 -713 Q 356 -696 370.5 -674 Q 385 -652 395 -627.5 Q 405 -603 412.5 -577.5 Q 420 -552 424.5 -526 Q 429 -500 431.5 -473.5 Q 434 -447 435 -420.5 Q 436 -394 436 -368 Q 436 -341 435 -314.5 Q 434 -288 431.5 -261.5 Q 429 -235 424.5 -209 Q 420 -183 412.5 -157.5 Q 405 -132 395 -107.5 Q 385 -83 370.5 -61 Q 356 -39 335 -22 Q 314 -5 289 3 Z M 211 3 Q 186 -5 165 -22 Q 144 -39 129.5 -61 Q 115 -83 105 -107.5 Q 95 -132 87.5 -157.5 Q 80 -183 75.5 -209 Q 71 -235 68.5 -261.5 Q 66 -288 65 -314.5 Q 64 -341 64 -368 Q 64 -394 65 -420.5 Q 66 -447 68.5 -473.5 Q 71 -500 75.5 -526 Q 80 -552 87.5 -577.5 Q 95 -603 105 -627.5 Q 115 -652 129.5 -674 Q 144 -696 165 -713 Q 186 -730 211 -738 L 211 -659 Q 196 -648 187 -630.5 Q 178 -613 171 -595 Q 164 -577 159.5 -558.5 Q 155 -540 152 -521 Q 149 -502 147 -482.5 Q 145 -463 144 -444 Q 143 -425 142.5 -406 Q 142 -387 142 -368 Q 142 -348 142.5 -329 Q 143 -310 144 -291 Q 145 -272 147 -252.5 Q 149 -233 152 -214 Q 155 -195 159.5 -176.5 Q 164 -158 171 -140 Q 178 -122 187 -104.5 Q 196 -87 211 -76 Z " id="path1"/></defs><g><g data-source-text="0" fill="#20242e" transform="translate(40 104.99201) rotate(0) scale(0.09599999)"><use href="#path1" transform="translate(0 0)"/></g></g></svg>