<?xml version="1.0" encoding="UTF-8" standalone="no"?>
<svg xmlns='http://www.w3.org/2000/svg' height="160" viewBox="0 0 128 160" width="128"><defs><path d="M 250 8 Q 221 8 194 -4 Q 167 -16 147.5 -37.5 Q 128 -59 115 -85.5 Q 102 -112 93 -139 Q 84 -166 78.5 -194.5 Q 73 -223 70 -252 Q 67 -281 65.5 -310 Q 64 -339 64 -368 Q 64 -396 65.5 -425 Q 67 -454 70 -483 Q 73 -512 78.5 -540.5 Q 84 -569 93 -596 Q 102 -623 115 -649.5 Q 128 -676 147.5 -697.5 Q 167 -719 194 -731 Q 221 -743 250 -743 Q 279 -743 306 -731 Q 333 -719 352.5 -697.5 Q 372 -676 385 -649.5 Q 398 -623 407 -596 Q 416 -569 421.5 -540.5 Q 427 -512 430 -483 Q 433 -454 434.5 -425 Q 436 -396 436 -368 Q 436 -339 434.5 -310 Q 433 -281 430 -252 Q 427 -223 421.5 -194.5 Q 416 -166 407 -139 Q 398 -112 385 -85.5 Q 372 -59 352.5 -37.5 Q 333 -16 306 -4 Q 279 8 250 8 Z M 214 -74 L 214 -322 L 286 -322 L 286 -74 Q 302 -85 311.5 -102 Q 321 -119 328 -137.5 Q 335 -156 339.5 -174.5 Q 344 -193 347.5 -212.5 Q 351 -232 353 -251 Q 355 -270 356 -289.5 Q 357 -309 357.5 -328.5 Q 358 -348 358 -368 Q 358 -387 357.5 -406.5 Q 357 -426 356 -445.5 Q 355 -465 353 -484 Q 351 -503 347.5 -522.5 Q 344 -542 339.5 -560.5 Q 335 -579 328 -597.5 Q 321 -616 311.5 -633 Q 302 -650 286 -661 L 286 -413 L 214 -413 L 214 -661 Q 198 -650 188.5 -633 Q 179 -616 172 -597.5 Q 165 -579 160.5 -560.5 Q 156 -542 152.5 -522.5 Q 149 -503 147 -484 Q 145 -465 144 -445.5 Q 143 -426 142.5 -406.5 Q 142 -387 142 -368 Q 142 -348 142.5 -328.5 Q 143 -309 144 -289.5 Q 145 -270 147 -251 Q 149 -232 152.5 -212.5 Q 156 -193 160.5 -174.5 Q 165 -156 172 -137.5 Q 179 -119 188.5 -102 Q 198 -85 214 -74 Z " id="path1"/></defs><g><g data-source-text="0" fill="#20242e" transform="translate(40 104.99201) rotate(0) scale(0.09599999)"><use href="#path1" transform="translate(0 0)"/></g></g></svg>