<?xml version="1.0" encoding="UTF-8" standalone="no"?>
<svg height="160" viewBox="0 0 128 160" width="128" xmlns="http://www.w3.org/2000/svg">
<defs>
<path d="M 286 4 L 286 -72 Q 303 -82 314 -99 Q 325 -116 332.5 -134.5 Q 340 -153 345.5 -172 Q 351 -191 354.5 -210.5 Q 358 -230 360.5 -249.5 Q 363 -269 364 -288.5 Q 365 -308 365.5 -328 Q 366 -348 366 -368 Q 366 -387 365.5 -407 Q 365 -427 364 -446.5 Q 363 -466 360.5 -485.5 Q 358 -505 354.5 -524.5 Q 351 -544 345.5 -563 Q 340 -582 332.5 -600.5 Q 325 -619 314 -636 Q 303 -653 286 -663 L 286 -739 Q 312 -733 334 -716.5 Q 356 -700 372 -678 Q 388 -656 399 -631.5 Q 410 -607 418 -581 Q 426 -555 431 -528.5 Q 436 -502 439 -475 Q 442 -448 443 -421 Q 444 -394 444 -368 Q 444 -341 443 -314 Q 442 -287 439 -260 Q 436 -233 431 -206.5 Q 426 -180 418 -154 Q 410 -128 399 -103.5 Q 388 -79 372 -57 Q 356 -35 334 -18.5 Q 312 -2 286 4 Z M 214 4 Q 188 -2 166 -18.5 Q 144 -35 128 -57 Q 112 -79 101 -103.5 Q 90 -128 82 -154 Q 74 -180 69 -206.5 Q 64 -233 61 -260 Q 58 -287 57 -314 Q 56 -341 56 -368 Q 56 -394 57 -421 Q 58 -448 61 -475 Q 64 -502 69 -528.5 Q 74 -555 82 -581 Q 90 -607 101 -631.5 Q 112 -656 128 -678 Q 144 -700 166 -716.5 Q 188 -733 214 -739 L 214 -663 Q 197 -653 186 -636 Q 175 -619 167.5 -600.5 Q 160 -582 154.5 -563 Q 149 -544 145.5 -524.5 Q 142 -505 139.5 -485.5 Q 137 -466 136 -446.5 Q 135 -427 134.5 -407 Q 134 -387 134 -368 Q 134 -348 134.5 -328 Q 135 -308 136 -288.5 Q 137 -269 139.5 -249.5 Q 142 -230 145.5 -210.5 Q 149 -191 154.5 -172 Q 160 -153 167.5 -134.5 Q 175 -116 186 -99 Q 197 -82 214 -72 Z " id="path1"/>
</defs>
<g>
<g data-source-text="0" fill="#20242e" transform="translate(40 104.99201) rotate(0) scale(0.09599999)">
<use href="#path1" transform="translate(0 0)"/>
</g>
</g>
</svg>