<?xml version="1.0" encoding="UTF-8" standalone="no"?>
<svg height="160" viewBox="0 0 128 160" width="128" xmlns="http://www.w3.org/2000/svg">
<defs>
<path d="M 64 0 L 64 -33 Q 64 -56 68.5 -78.5 Q 73 -101 82 -122.5 Q 91 -144 104.5 -162.5 Q 118 -181 134 -198 L 176 -238 L 119 -238 L 119 -302 L 240 -302 L 311 -372 Q 327 -388 338 -408 Q 349 -428 354 -450 L 64 -450 L 64 -520 L 436 -520 L 436 -488 Q 436 -464 431.5 -441.5 Q 427 -419 418 -397.5 Q 409 -376 395.5 -357.5 Q 382 -339 366 -322 L 345 -302 L 381 -302 L 381 -238 L 281 -238 L 189 -148 Q 173 -132 162 -112 Q 151 -92 146 -70 L 359 -70 L 359 -145 L 436 -145 L 436 0 Z " id="path1"/>
</defs>
<g>
<g data-source-text="z" fill="#20242e" transform="translate(40 104.99201) rotate(0) scale(0.09599999)">
<use href="#path1" transform="translate(0 0)"/>
</g>
</g>
</svg>