<?xml version="1.0" encoding="UTF-8" standalone="no"?>
<svg xmlns="http://www.w3.org/2000/svg" height="160" viewBox="0 0 128 160" width="128"><defs><path d="M 250 8 Q 221 8 194 -4 Q 167 -16 147.5 -37.5 Q 128 -59 115 -85.5 Q 102 -112 93 -139 Q 84 -166 78.5 -194.5 Q 73 -223 70 -252 Q 67 -281 65.5 -310 Q 64 -339 64 -368 Q 64 -396 65.5 -425 Q 67 -454 70 -483 Q 73 -512 78.5 -540.5 Q 84 -569 93 -596 Q 102 -623 115 -649.5 Q 128 -676 147.5 -697.5 Q 167 -719 194 -731 Q 221 -743 250 -743 Q 279 -743 306 -731 Q 333 -719 352.5 -697.5 Q 372 -676 385 -649.5 Q 398 -623 407 -596 Q 416 -569 421.5 -540.5 Q 427 -512 430 -483 Q 433 -454 434.5 -425 Q 436 -396 436 -368 Q 436 -339 434.5 -310 Q 433 -281 430 -252 Q 427 -223 421.5 -194.5 Q 416 -166 407 -139 Q 398 -112 385 -85.5 Q 372 -59 352.5 -37.5 Q 333 -16 306 -4 Q 279 8 250 8 Z M 250 -62 Q 267 -62 282.5 -72 Q 298 -82 307.5 -96.5 Q 317 -111 324 -127 Q 331 -143 335.5 -160 Q 340 -177 343.5 -194 Q 347 -211 349.5 -228 Q 352 -245 354 -262.5 Q 356 -280 357 -297.5 Q 358 -315 358 -332.5 Q 358 -350 358 -368 Q 358 -385 358 -402.5 Q 358 -420 357 -437.5 Q 356 -455 354 -472.5 Q 352 -490 349.5 -507 Q 347 -524 343.5 -541 Q 340 -558 335.5 -575 Q 331 -592 324 -608 Q 317 -624 307.5 -638.5 Q 298 -653 282.5 -663 Q 267 -673 250 -673 Q 233 -673 217.5 -663 Q 202 -653 192.5 -638.5 Q 183 -624 176 -608 Q 169 -592 164.5 -575 Q 160 -558 156.5 -541 Q 153 -524 150.5 -507 Q 148 -490 146 -472.5 Q 144 -455 143 -437.5 Q 142 -420 142 -402.5 Q 142 -385 142 -368 Q 142 -350 142 -332.5 Q 142 -315 143 -297.5 Q 144 -280 146 -262.5 Q 148 -245 150.5 -228 Q 153 -211 156.5 -194 Q 160 -177 164.5 -160 Q 169 -143 176 -127 Q 183 -111 192.5 -96.5 Q 202 -82 217.5 -72 Q 233 -62 250 -62 Z M 250 -203 Q 241 -203 235 -210 Q 229 -217 225.5 -225.5 Q 222 -234 219.5 -242.5 Q 217 -251 215 -260 Q 213 -269 212 -278 Q 211 -287 210 -296 Q 209 -305 208.5 -314 Q 208 -323 207.5 -332 Q 207 -341 207 -350 Q 207 -359 207 -368 Q 207 -376 207 -385 Q 207 -394 207.5 -403 Q 208 -412 208.5 -421 Q 209 -430 210 -439 Q 211 -448 212 -457 Q 213 -466 215 -475 Q 217 -484 219.5 -492.5 Q 222 -501 225.5 -509.5 Q 229 -518 235 -525 Q 241 -532 250 -532 Q 259 -532 265 -525 Q 271 -518 274.5 -509.5 Q 278 -501 280.5 -492.5 Q 283 -484 285 -475 Q 287 -466 288 -457 Q 289 -448 290 -439 Q 291 -430 291.5 -421 Q 292 -412 292.5 -403 Q 293 -394 293 -385 Q 293 -376 293 -368 Q 293 -359 293 -350 Q 293 -341 292.5 -332 Q 292 -323 291.5 -314 Q 291 -305 290 -296 Q 289 -287 288 -278 Q 287 -269 285 -260 Q 283 -251 280.5 -242.5 Q 278 -234 274.5 -225.5 Q 271 -217 265 -210 Q 259 -203 250 -203 Z " id="path1"/></defs><g><g data-source-text="0" fill="#dee4e3" transform="translate(40 104.99201) rotate(0) scale(0.09599999)"><use href="#path1" transform="translate(0 0)"/></g></g></svg>