<?xml version="1.0" encoding="UTF-8" standalone="no"?>
<svg xmlns='http://www.w3.org/2000/svg' height="160" viewBox="0 0 128 160" width="128"><defs><path d="M 68 -272 Q 66 -296 65 -320 Q 64 -344 64 -368 Q 64 -396 65.5 -425 Q 67 -454 70 -483 Q 73 -512 78.5 -540.5 Q 84 -569 93 -596 Q 102 -623 115 -649.5 Q 128 -676 147.5 -697.5 Q 167 -719 194 -731 Q 221 -743 250 -743 Q 273 -743 295.5 -735.5 Q 318 -728 336 -713 Q 354 -698 367 -679 Q 380 -660 390 -639 Q 400 -618 407 -595.5 Q 414 -573 419 -551 L 351 -497 Q 349 -515 345.5 -533 Q 342 -551 337.5 -568.5 Q 333 -586 326 -603.5 Q 319 -621 309.5 -636 Q 300 -651 284 -662 Q 268 -673 250 -673 Q 233 -673 217.5 -663 Q 202 -653 192.5 -638.5 Q 183 -624 176 -608 Q 169 -592 164.5 -575 Q 160 -558 156.5 -541 Q 153 -524 150.5 -507 Q 148 -490 146 -472.5 Q 144 -455 143 -437.5 Q 142 -420 142 -402.5 Q 142 -385 142 -368 L 142 -331 Z M 250 8 Q 227 8 204.5 0.5 Q 182 -7 164 -22 Q 146 -37 133 -56 Q 120 -75 110 -96 Q 100 -117 93 -139.5 Q 86 -162 81 -184 L 149 -238 Q 151 -220 154.5 -202 Q 158 -184 162.5 -166.5 Q 167 -149 174 -131.5 Q 181 -114 190.5 -99 Q 200 -84 216 -73 Q 232 -62 250 -62 Q 267 -62 282.5 -72 Q 298 -82 307.5 -96.5 Q 317 -111 324 -127 Q 331 -143 335.5 -160 Q 340 -177 343.5 -194 Q 347 -211 349.5 -228 Q 352 -245 354 -262.5 Q 356 -280 357 -297.5 Q 358 -315 358 -332.5 Q 358 -350 358 -368 L 358 -404 L 432 -463 Q 434 -439 435 -415 Q 436 -391 436 -368 Q 436 -339 434.5 -310 Q 433 -281 430 -252 Q 427 -223 421.5 -194.5 Q 416 -166 407 -139 Q 398 -112 385 -85.5 Q 372 -59 352.5 -37.5 Q 333 -16 306 -4 Q 279 8 250 8 Z " id="path1"/></defs><g><g data-source-text="0" fill="#20242e" transform="translate(40 104.99201) rotate(0) scale(0.09599999)"><use href="#path1" transform="translate(0 0)"/></g></g></svg>