<?xml version="1.0" encoding="UTF-8" standalone="no"?>
<svg height="160" viewBox="0 0 128 160" width="128" xmlns="http://www.w3.org/2000/svg">
<defs>
<path d="M 429 -274 L 363 -327 Q 364 -337 365 -347 Q 366 -357 366 -367 Q 366 -385 363.5 -402 Q 361 -419 356.5 -436 Q 352 -453 347 -469.5 Q 342 -486 336 -503 L 291 -643 Q 289 -650 286 -657 Q 283 -664 277.5 -669 Q 272 -674 264.5 -676 Q 257 -678 250 -678 Q 243 -678 235.5 -676 Q 228 -674 222.5 -669 Q 217 -664 214 -657 Q 211 -650 209 -643 L 164 -503 Q 163 -499 161.5 -495.5 Q 160 -492 159 -489 L 97 -538 L 140 -664 Q 146 -681 155 -698 Q 164 -715 179 -726 Q 194 -737 212.5 -740 Q 231 -743 250 -743 Q 269 -743 287.5 -740 Q 306 -737 321 -726 Q 336 -715 345 -698 Q 354 -681 360 -664 L 408 -524 L 409 -523 Q 415 -504 421.5 -485 Q 428 -466 433 -446.5 Q 438 -427 441 -407.5 Q 444 -388 444 -368 Q 444 -344 439.5 -320.5 Q 435 -297 429 -274 Z M 250 8 Q 231 8 212.5 5 Q 194 2 179 -9 Q 164 -20 155 -37 Q 146 -54 140 -71 L 92 -211 L 91 -212 Q 85 -231 78.5 -250 Q 72 -269 67 -288.5 Q 62 -308 59 -327.5 Q 56 -347 56 -367 Q 56 -391 60.5 -414.5 Q 65 -438 71 -461 L 137 -408 Q 136 -398 135 -388 Q 134 -378 134 -368 Q 134 -350 136.5 -333 Q 139 -316 143.5 -299 Q 148 -282 153 -265.5 Q 158 -249 164 -232 L 209 -92 Q 211 -85 214 -78 Q 217 -71 222.5 -66 Q 228 -61 235.5 -59 Q 243 -57 250 -57 Q 257 -57 264.5 -59 Q 272 -61 277.5 -66 Q 283 -71 286 -78 Q 289 -85 291 -92 L 336 -232 Q 337 -236 338.5 -239.5 Q 340 -243 341 -246 L 403 -197 L 360 -71 Q 354 -54 345 -37 Q 336 -20 321 -9 Q 306 2 287.5 5 Q 269 8 250 8 Z " id="path1"/>
</defs>
<g>
<g data-source-text="0" fill="#20242e" transform="translate(40 104.99201) rotate(0) scale(0.09599999)">
<use href="#path1" transform="translate(0 0)"/>
</g>
</g>
</svg>