<svg xmlns="http://www.w3.org/2000/svg" height="160" viewBox="0 0 128 160" width="128"><defs><path d="M 341 8 C 325.6667 8 310.66666 4.9999995 296 -1 C 281.33334 -7 267.16666 -13.166666 253.50002 -19.5 C 239.83333 -25.833332 225.83334 -31.666668 211.50002 -37 C 197.16667 -42.333336 182.66667 -47.333332 168.00002 -52.000004 L 134 -62.000004 L 134 0 L 64 0 L 64 -113.00001 L 196 -257.00003 L 105 -293 L 132 -353.00003 L 243.00002 -308.00003 L 328.00003 -401.00003 L 323 -402 C 309 -407.33334 295.33334 -412.6667 282 -418.00003 C 268.6667 -423.33334 255.33336 -428.83334 242.00002 -434.50003 C 228.66667 -440.16666 215.16666 -445.5 201.5 -450.50003 C 187.83331 -455.49997 173.66666 -457.99997 159 -458 C 151.66667 -457.99997 145.5 -454.66663 140.5 -448 C 135.5 -441.3333 132 -434.33334 130.00002 -427.00003 C 128 -419.66666 126.66667 -412 126 -404.00003 C 125.333336 -396 125 -388.33334 125 -381 L 125 -338.00003 L 48 -338.00003 L 48 -381 C 48 -392.3333 48.666668 -403.8333 50.000004 -415.50003 C 51.333336 -427.1667 53.666668 -438.50003 57.000004 -449.50003 C 60.333332 -460.50003 65.16667 -470.99997 71.5 -481 C 77.83333 -491.00003 85.50001 -499.66672 94.50001 -507.00003 C 103.5 -514.3333 113.666664 -519.6666 125 -523 C 136.33333 -526.3333 147.66667 -528 159 -528 C 175.66666 -528 192 -525.5 208.00002 -520.50006 C 223.99998 -515.5 239.83333 -510 255.5 -504 C 271.16666 -498 286.6667 -492 302 -486.00003 C 317.33334 -480 333 -474 349.00003 -468.00003 L 366.00003 -462.00003 L 366.00003 -520.00006 L 436 -520.00006 L 436 -407 L 318 -279 L 395.00003 -248.00002 L 368 -188.00002 L 271.00003 -227 L 175 -123.00001 L 190 -119 C 198.66666 -116.33333 207.16667 -113.5 215.5 -110.5 C 223.83333 -107.5 232.16666 -104.16667 240.5 -100.5 C 248.83334 -96.83333 257.00003 -92.833336 265 -88.50001 C 273 -84.16667 281 -80.166664 289 -76.5 C 296.99997 -72.83333 305.3333 -69.5 314.00003 -66.5 C 322.6667 -63.5 331.6667 -62.000004 341 -62.000004 C 348.33334 -62.000004 354.5 -65.333336 359.50003 -72.00001 C 364.49997 -78.66667 367.99997 -85.66667 370.00003 -93.00001 C 372 -100.333336 373.3333 -108 374 -116 C 374.66666 -124 375 -131.66667 375 -139 L 375 -183.00002 L 452.00003 -183.00002 L 452.00003 -139 C 452 -127.666664 451.33334 -116.16667 450.00003 -104.50001 C 448.66666 -92.83334 446.33334 -81.5 443 -70.5 C 439.6667 -59.5 434.83334 -49 428.50003 -39 C 422.1667 -29 414.5 -20.333332 405.50003 -13.000001 C 396.5 -5.666667 386.3333 -0.33333325 375 3 C 363.66666 6.3333335 352.3333 8 341 8 Z " id="path1"/></defs><g><g fill="#ffffff" transform="translate(40 105.20961) rotate(0)"><use href="#path1" transform="translate(0 0) scale(0.09599999)"/></g></g></svg>