<?xml version="1.0" encoding="UTF-8" standalone="no"?>
<svg height="160" viewBox="0 0 128 160" width="128" xmlns="http://www.w3.org/2000/svg">
<defs>
<path d="M 332 8 Q 310 8 289 -1 Q 268 -10 248 -19.5 Q 228 -29 207 -37 Q 186 -45 164 -52 L 134 -61 L 134 0 L 64 0 L 64 -113 L 179 -238 L 119 -238 L 119 -303 L 238 -303 L 328 -401 L 323 -402 Q 304 -409 285.5 -416.5 Q 267 -424 249 -433 L 247 -434 L 246 -434 Q 228 -443 208.5 -450.5 Q 189 -458 168 -458 Q 156 -458 148.5 -448 Q 141 -438 138 -427 Q 135 -416 134 -404 Q 133 -392 133 -381 L 133 -338 L 56 -338 L 56 -381 Q 56 -398 58 -415.5 Q 60 -433 65.5 -449.5 Q 71 -466 80 -481 Q 89 -496 102.5 -507 Q 116 -518 133.5 -523 Q 151 -528 168 -528 Q 192 -528 215 -520.5 Q 238 -513 260 -503.5 Q 282 -494 304 -485 Q 326 -476 349 -468 L 366 -462 L 366 -520 L 436 -520 L 436 -407 L 340 -303 L 381 -303 L 381 -238 L 281 -238 L 175 -122 L 187 -118 Q 200 -115 212 -110.5 Q 224 -106 236 -100.5 Q 248 -95 259.5 -88.5 Q 271 -82 282.5 -76.5 Q 294 -71 306.5 -66.5 Q 319 -62 332 -62 Q 344 -62 351.5 -72 Q 359 -82 362 -93 Q 365 -104 366 -116 Q 367 -128 367 -139 L 367 -183 L 444 -183 L 444 -139 Q 444 -122 442 -104.5 Q 440 -87 434.5 -70.5 Q 429 -54 420 -39 Q 411 -24 397.5 -13 Q 384 -2 366.5 3 Q 349 8 332 8 Z " id="path1"/>
</defs>
<g>
<g data-source-text="z" fill="#20242e" transform="translate(40 104.99201) rotate(0) scale(0.09599999)">
<use href="#path1" transform="translate(0 0)"/>
</g>
</g>
</svg>