<?xml version="1.0" encoding="UTF-8" standalone="no"?>
<svg height="160" viewBox="0 0 128 160" width="128" xmlns="http://www.w3.org/2000/svg">
<defs>
<path d="M 250 8 Q 231 8 212 5 Q 193 2 177.5 -9.5 Q 162 -21 153 -38 Q 144 -55 138 -73 L 90 -216 Q 84 -234 78 -252.5 Q 72 -271 67 -290 Q 62 -309 59 -328.5 Q 56 -348 56 -367 Q 56 -387 59 -406.5 Q 62 -426 67 -445 Q 72 -464 78 -482.5 Q 84 -501 90 -519 L 92 -524 L 138 -662 Q 144 -680 153 -697 Q 162 -714 177.5 -725.5 Q 193 -737 212 -740 Q 231 -743 250 -743 Q 269 -743 288 -740 Q 307 -737 322.5 -725.5 Q 338 -714 347 -697 Q 356 -680 362 -662 L 410 -519 Q 416 -501 422 -482.5 Q 428 -464 433 -445 Q 438 -426 441 -406.5 Q 444 -387 444 -368 Q 444 -348 441 -328.5 Q 438 -309 433 -290 Q 428 -271 422 -252.5 Q 416 -234 410 -216 L 408 -211 L 362 -73 Q 356 -55 347 -38 Q 338 -21 322.5 -9.5 Q 307 2 288 5 Q 269 8 250 8 Z M 250 -62 Q 257 -62 264 -63.5 Q 271 -65 275.5 -70 Q 280 -75 283 -81.5 Q 286 -88 288 -95 L 334 -233 Q 340 -250 345.5 -266.5 Q 351 -283 355.5 -299.5 Q 360 -316 363 -333 Q 366 -350 366 -367 Q 366 -385 363 -402 Q 360 -419 355.5 -435.5 Q 351 -452 345.5 -468.5 Q 340 -485 334 -502 L 288 -640 Q 286 -647 283 -653.5 Q 280 -660 275.5 -665 Q 271 -670 264 -671.5 Q 257 -673 250 -673 Q 243 -673 236 -671.5 Q 229 -670 224.5 -665 Q 220 -660 217 -653.5 Q 214 -647 212 -640 L 166 -502 Q 160 -485 154.5 -468.5 Q 149 -452 144.5 -435.5 Q 140 -419 137 -402 Q 134 -385 134 -368 Q 134 -350 137 -333 Q 140 -316 144.5 -299.5 Q 149 -283 154.5 -266.5 Q 160 -250 166 -233 L 212 -95 Q 214 -88 217 -81.5 Q 220 -75 224.5 -70 Q 229 -65 236 -63.5 Q 243 -62 250 -62 Z M 250 -305 Q 238 -305 227 -309.5 Q 216 -314 208.5 -323 Q 201 -332 198.5 -343.5 Q 196 -355 196 -367 L 196 -368 Q 196 -380 198.5 -391.5 Q 201 -403 208.5 -412 Q 216 -421 227 -425.5 Q 238 -430 250 -430 Q 262 -430 273 -425.5 Q 284 -421 291.5 -412 Q 299 -403 301.5 -391.5 Q 304 -380 304 -368 L 304 -367 Q 304 -355 301.5 -343.5 Q 299 -332 291.5 -323 Q 284 -314 273 -309.5 Q 262 -305 250 -305 Z " id="path1"/>
</defs>
<g>
<g data-source-text="0" fill="#20242e" transform="translate(40 104.99201) rotate(0) scale(0.09599999)">
<use href="#path1" transform="translate(0 0)"/>
</g>
</g>
</svg>