<?xml version="1.0" encoding="UTF-8" standalone="no"?>
<svg xmlns='http://www.w3.org/2000/svg' height="160" viewBox="0 0 128 160" width="128"><defs><path d="M 420 -188 L 356 -282 Q 357 -304 357.5 -325 Q 358 -346 358 -368 Q 358 -385 358 -402.5 Q 358 -420 357 -437.5 Q 356 -455 354 -472.5 Q 352 -490 349.5 -507 Q 347 -524 343.5 -541 Q 340 -558 335.5 -575 Q 331 -592 324 -608 Q 317 -624 307.5 -638.5 Q 298 -653 282.5 -663 Q 267 -673 250 -673 Q 231 -673 215.5 -662 Q 200 -651 190 -635.5 Q 180 -620 173.5 -602.5 Q 167 -585 162 -567 L 111 -641 Q 121 -662 134.5 -681 Q 148 -700 165.5 -714 Q 183 -728 205 -735.5 Q 227 -743 250 -743 Q 279 -743 306 -731 Q 333 -719 352.5 -697.5 Q 372 -676 385 -649.5 Q 398 -623 407 -596 Q 416 -569 421.5 -540.5 Q 427 -512 430 -483 Q 433 -454 434.5 -425 Q 436 -396 436 -368 Q 436 -322 432.5 -277 Q 429 -232 420 -188 Z M 250 8 Q 221 8 194 -4 Q 167 -16 147.5 -37.5 Q 128 -59 115 -85.5 Q 102 -112 93 -139 Q 84 -166 78.5 -194.5 Q 73 -223 70 -252 Q 67 -281 65.5 -310 Q 64 -339 64 -368 Q 64 -413 67.5 -458 Q 71 -503 80 -547 L 144 -453 Q 143 -431 142.5 -410 Q 142 -389 142 -368 Q 142 -350 142 -332.5 Q 142 -315 143 -297.5 Q 144 -280 146 -262.5 Q 148 -245 150.5 -228 Q 153 -211 156.5 -194 Q 160 -177 164.5 -160 Q 169 -143 176 -127 Q 183 -111 192.5 -96.5 Q 202 -82 217.5 -72 Q 233 -62 250 -62 Q 269 -62 284.5 -73 Q 300 -84 310 -99.5 Q 320 -115 326.5 -132.5 Q 333 -150 338 -168 L 389 -94 Q 379 -73 365.5 -54 Q 352 -35 334.5 -21 Q 317 -7 295 0.5 Q 273 8 250 8 Z " id="path1"/></defs><g><g data-source-text="0" fill="#20242e" transform="translate(40 104.99201) rotate(0) scale(0.09599999)"><use href="#path1" transform="translate(0 0)"/></g></g></svg>