<?xml version="1.0" encoding="UTF-8" standalone="no"?>
<svg height="160" viewBox="0 0 128 160" width="128" xmlns="http://www.w3.org/2000/svg">
<defs>
<path d="M 250 8 Q 221 8 193 -3.5 Q 165 -15 145 -36 Q 125 -57 111 -83 Q 97 -109 87.5 -136.5 Q 78 -164 72 -193 Q 66 -222 62.5 -251 Q 59 -280 57.5 -309 Q 56 -338 56 -368 Q 56 -397 57.5 -426 Q 59 -455 62.5 -484 Q 66 -513 72 -542 Q 78 -571 87.5 -598.5 Q 97 -626 111 -652 Q 125 -678 145 -699 Q 165 -720 193 -731.5 Q 221 -743 250 -743 Q 279 -743 307 -731.5 Q 335 -720 355 -699 Q 375 -678 389 -652 Q 403 -626 412.5 -598.5 Q 422 -571 428 -542 Q 434 -513 437.5 -484 Q 441 -455 442.5 -426 Q 444 -397 444 -368 Q 444 -338 442.5 -309 Q 441 -280 437.5 -251 Q 434 -222 428 -193 Q 422 -164 412.5 -136.5 Q 403 -109 389 -83 Q 375 -57 355 -36 Q 335 -15 307 -3.5 Q 279 8 250 8 Z M 214 -72 L 214 -322 L 286 -322 L 286 -72 Q 303 -82 314 -99 Q 325 -116 332.5 -134 Q 340 -152 345.5 -171.5 Q 351 -191 354.5 -210 Q 358 -229 360.5 -249 Q 363 -269 364 -288.5 Q 365 -308 365.5 -328 Q 366 -348 366 -368 Q 366 -387 365.5 -407 Q 365 -427 364 -446.5 Q 363 -466 360.5 -486 Q 358 -506 354.5 -525 Q 351 -544 345.5 -563.5 Q 340 -583 332.5 -601 Q 325 -619 314 -636 Q 303 -653 286 -663 L 286 -413 L 214 -413 L 214 -663 Q 197 -653 186 -636 Q 175 -619 167.5 -601 Q 160 -583 154.5 -563.5 Q 149 -544 145.5 -525 Q 142 -506 139.5 -486 Q 137 -466 136 -446.5 Q 135 -427 134.5 -407 Q 134 -387 134 -368 Q 134 -348 134.5 -328 Q 135 -308 136 -288.5 Q 137 -269 139.5 -249 Q 142 -229 145.5 -210 Q 149 -191 154.5 -171.5 Q 160 -152 167.5 -134 Q 175 -116 186 -99 Q 197 -82 214 -72 Z " id="path1"/>
</defs>
<g>
<g data-source-text="0" fill="#20242e" transform="translate(40 104.99201) rotate(0) scale(0.09599999)">
<use href="#path1" transform="translate(0 0)"/>
</g>
</g>
</svg>