<svg xmlns="http://www.w3.org/2000/svg" height="160" viewBox="0 0 128 160" width="128"><defs><path d="M 250 8 C 232 8 214 6.1666665 196 2.5000002 C 178.00002 -1.1666665 161.33334 -7.3333335 146 -16 C 130.66667 -24.666666 116.833336 -35.833332 104.50001 -49.5 C 92.16667 -63.16667 82.333336 -78.16667 75.00001 -94.50001 C 67.666664 -110.83333 62.666668 -127.99999 60.000004 -146 C 57.333332 -164 55.999996 -182 56 -200.00002 L 56 -535 C 55.999996 -553 57.333332 -571 60.000004 -589 C 62.666668 -607 67.666664 -624.1667 75.00001 -640.5 C 82.333336 -656.8334 92.16667 -671.8334 104.50001 -685.5 C 116.833336 -699.1666 130.83333 -710.3334 146.5 -719.00006 C 162.16666 -727.66675 178.83333 -734.3334 196.50002 -739 C 214.16667 -743.6667 232 -746 250 -746 C 268 -746 285.8333 -743.6667 303.5 -739 C 321.16666 -734.3334 337.83334 -727.66675 353.50003 -719.00006 C 369.16672 -710.3334 383.1667 -699.1666 395.5 -685.5 C 407.83334 -671.8334 417.6667 -656.8334 425 -640.5 C 432.3333 -624.1667 437.3333 -607 440.00003 -589 C 442.66666 -571 444.00003 -553 444.00003 -535 L 444.00003 -200.00002 C 444.00003 -182 442.66666 -164 440.00003 -146 C 437.3333 -127.99999 432.3333 -110.83333 425 -94.50001 C 417.6667 -78.16667 407.83334 -63.16667 395.5 -49.5 C 383.1667 -35.833332 369.33334 -24.666666 354.00003 -16 C 338.6667 -7.3333335 322.00003 -1.1666665 304 2.5000002 C 286 6.1666665 268 8 250 8 Z M 250 -62.000004 C 261.33334 -62.000004 272.66666 -63.333336 284 -66 C 295.3333 -68.66667 305.66666 -73.16667 315 -79.5 C 324.3333 -85.833336 332.5 -93.666664 339.5 -103.00001 C 346.5 -112.33334 352 -122.33333 356 -133 C 360 -143.66667 362.66666 -154.66667 364 -166 C 365.33334 -177.33334 366.00003 -188.66667 366.00003 -200.00002 L 366.00003 -535 C 366.00003 -546.3333 365.33334 -557.6667 364 -569 C 362.66666 -580.3333 359.83334 -591.5 355.50003 -602.5 C 351.1667 -613.5 345.66666 -623.6667 339 -633.00006 C 332.3333 -642.3333 324.16666 -650 314.5 -656.00006 C 304.83334 -662 294.33334 -666.3333 283.00003 -669 C 271.66666 -671.6666 260 -673.00006 248.00002 -673.00006 C 236.66667 -673.00006 225.5 -671.50006 214.50002 -668.50006 C 203.5 -665.5 193.33333 -660.8333 184 -654.5 C 174.66667 -648.1667 166.66667 -640.3334 160.00002 -631 C 153.33333 -621.6667 148 -611.8334 144.00002 -601.5 C 140.00002 -591.1667 137.33334 -580.3333 136 -569 C 134.66667 -557.6667 134 -546.3333 134 -535 L 134 -200.00002 C 134 -188.66667 134.66667 -177.33334 136 -166 C 137.33334 -154.66667 140.00002 -143.66667 144.00002 -133 C 148 -122.33333 153.5 -112.33334 160.5 -103.00001 C 167.5 -93.666664 175.66666 -85.833336 185.00002 -79.5 C 194.33333 -73.16667 204.66666 -68.66667 216 -66 C 227.33333 -63.333336 238.66666 -62.000004 250 -62.000004 Z M 250 -219.00002 C 244.66666 -218.99998 239.50002 -220 234.50002 -222.00002 C 229.5 -224 225.5 -227.16669 222.50002 -231.50002 C 219.49998 -235.83333 217.5 -240.66667 216.50002 -246.00002 C 215.5 -251.33333 215 -256.66666 215 -262 L 215 -473.00003 C 215 -478.33334 215.5 -483.6667 216.50002 -489.00003 C 217.5 -494.33337 219.49998 -499.16666 222.50002 -503.5 C 225.5 -507.83328 229.5 -510.99997 234.50002 -513 C 239.50002 -515 244.66666 -516 250 -516 C 255.33333 -516 260.5 -515 265.50003 -513 C 270.5 -510.99997 274.49997 -507.83328 277.5 -503.5 C 280.49997 -499.16666 282.5 -494.33337 283.5 -489.00003 C 284.5 -483.6667 285 -478.33334 285 -473.00003 L 285 -262 C 285 -256.66666 284.5 -251.33333 283.5 -246.00002 C 282.5 -240.66667 280.49997 -235.83333 277.5 -231.50002 C 274.49997 -227.16669 270.5 -224 265.50003 -222.00002 C 260.5 -220 255.33333 -218.99998 250 -219.00002 Z " id="path1"/></defs><g><g fill="#ffffff" transform="translate(40 105.20961) rotate(0)"><use href="#path1" transform="translate(0 0) scale(0.09599999)"/></g></g></svg>