<?xml version="1.0" encoding="UTF-8" standalone="no"?>
<svg xmlns='http://www.w3.org/2000/svg' height="160" viewBox="0 0 128 160" width="128"><defs><path d="M 80 -188 Q 71 -232 67.5 -277 Q 64 -322 64 -368 Q 64 -396 65.5 -425 Q 67 -454 70 -483 Q 73 -512 78.5 -540.5 Q 84 -569 93 -596 Q 102 -623 115 -649.5 Q 128 -676 147.5 -697.5 Q 167 -719 194 -731 Q 221 -743 250 -743 Q 273 -743 295 -735.5 Q 317 -728 334.5 -714 Q 352 -700 365.5 -681 Q 379 -662 389 -641 L 338 -567 Q 333 -585 326.5 -602.5 Q 320 -620 310 -635.5 Q 300 -651 284.5 -662 Q 269 -673 250 -673 Q 233 -673 217.5 -663 Q 202 -653 192.5 -638.5 Q 183 -624 176 -608 Q 169 -592 164.5 -575 Q 160 -558 156.5 -541 Q 153 -524 150.5 -507 Q 148 -490 146 -472.5 Q 144 -455 143 -437.5 Q 142 -420 142 -402.5 Q 142 -385 142 -368 Q 142 -346 142.5 -325 Q 143 -304 144 -282 Z M 250 8 Q 227 8 205 0.5 Q 183 -7 165.5 -21 Q 148 -35 134.5 -54 Q 121 -73 111 -94 L 162 -168 Q 167 -150 173.5 -132.5 Q 180 -115 190 -99.5 Q 200 -84 215.5 -73 Q 231 -62 250 -62 Q 267 -62 282.5 -72 Q 298 -82 307.5 -96.5 Q 317 -111 324 -127 Q 331 -143 335.5 -160 Q 340 -177 343.5 -194 Q 347 -211 349.5 -228 Q 352 -245 354 -262.5 Q 356 -280 357 -297.5 Q 358 -315 358 -332.5 Q 358 -350 358 -368 Q 358 -389 357.5 -410 Q 357 -431 356 -453 L 420 -547 Q 429 -503 432.5 -458 Q 436 -413 436 -368 Q 436 -339 434.5 -310 Q 433 -281 430 -252 Q 427 -223 421.5 -194.5 Q 416 -166 407 -139 Q 398 -112 385 -85.5 Q 372 -59 352.5 -37.5 Q 333 -16 306 -4 Q 279 8 250 8 Z " id="path1"/></defs><g><g data-source-text="0" fill="#20242e" transform="translate(40 104.99201) rotate(0) scale(0.09599999)"><use href="#path1" transform="translate(0 0)"/></g></g></svg>