<svg xmlns="http://www.w3.org/2000/svg" height="160" viewBox="0 0 128 160" width="128"><defs><path d="M 250 0 C 231.33334 0 212.99998 -3.8333335 195 -11.5 C 177.00002 -19.166666 161.5 -30 148.50002 -44 C 135.5 -58 124.666664 -73.5 116 -90.5 C 107.333336 -107.5 100.00001 -125 94.00001 -143 C 88 -161 83 -179.16669 79 -197.50002 C 75 -215.83336 72 -234.50002 70.00001 -253.50002 C 68 -272.5 66.5 -291.5 65.5 -310.50003 C 64.5 -329.5 64 -348.33328 64 -367 L 64 -368 C 64 -386.66666 64.5 -405.5 65.5 -424.5 C 66.5 -443.49997 68 -462.5 70.00001 -481.5 C 72 -500.49997 75 -519.3333 79 -538 C 83 -556.6667 88 -575 94.00001 -593.00006 C 100.00001 -611 107.333336 -628.6667 116 -646 C 124.666664 -663.3334 135.83334 -678.6667 149.5 -692 C 163.16667 -705.3333 179 -715.8334 197.00002 -723.50006 C 215 -731.1667 233.33331 -735 252 -735 C 271.33334 -735 289.83334 -730.99994 307.5 -723 C 325.16666 -715 340.3333 -704 353.00003 -690 C 365.6667 -676 376.3333 -660.5 385 -643.5 C 393.6667 -626.5 401 -609 407 -591 C 413 -573 417.83334 -554.8334 421.50003 -536.50006 C 425.1667 -518.1667 428 -499.50006 430 -480.50003 C 432 -461.50003 433.5 -442.66666 434.50003 -424 C 435.5 -405.33334 435.99997 -386.3333 436 -367 C 435.99997 -348.33328 435.5 -329.5 434.50003 -310.50003 C 433.5 -291.5 432 -272.66666 430 -254.00002 C 428 -235.33333 425 -216.66667 421.00003 -198 C 417 -179.33333 412.00003 -161 406.00003 -143 C 400.00003 -125 392.66666 -107.5 384 -90.5 C 375.3333 -73.5 364.50003 -58 351.5 -44 C 338.5 -30 323 -19.166666 305.00003 -11.5 C 287 -3.8333335 268.66666 0 250 0 Z M 250 -70.00001 C 261.33334 -70.00001 272 -73.16667 282 -79.5 C 292 -85.833336 300.33334 -93.5 307 -102.50001 C 313.66666 -111.5 319.16666 -121.33333 323.5 -132 C 327.83334 -142.66666 331.6667 -153.5 335 -164.5 C 338.33334 -175.5 341.16666 -186.5 343.50003 -197.50002 C 345.8333 -208.5 347.8333 -219.66667 349.50003 -231.00002 C 351.16666 -242.33334 352.66666 -253.66669 354.00003 -265 C 355.33334 -276.33334 356.33334 -287.66666 357 -299 C 357.66666 -310.33334 358 -321.66666 358 -333 C 358 -344.33334 358 -356 358 -368 C 358 -379.3333 358 -390.66666 358 -402 C 358 -413.33334 357.66666 -424.66666 357 -436 C 356.33334 -447.3333 355.33334 -458.66666 354.00003 -470 C 352.66666 -481.3333 351.16666 -492.5 349.50003 -503.5 C 347.8333 -514.5 345.8333 -525.6667 343.50003 -537.00006 C 341.16666 -548.3334 338.33334 -559.5 335 -570.50006 C 331.6667 -581.5 327.83334 -592.1667 323.5 -602.5 C 319.16666 -612.8334 313.83334 -622.6667 307.5 -632 C 301.16666 -641.3334 292.83334 -649 282.50003 -655.00006 C 272.1667 -661.00006 261.33334 -664 250 -664 C 238.66666 -664 227.83334 -661.00006 217.50002 -655.00006 C 207.16667 -649 198.83333 -641.3334 192.5 -632 C 186.16667 -622.6667 180.83334 -612.8334 176.50002 -602.5 C 172.16667 -592.1667 168.33334 -581.5 165 -570.50006 C 161.66667 -559.5 158.83334 -548.3334 156.5 -537.00006 C 154.16666 -525.6667 152.16666 -514.5 150.5 -503.5 C 148.83333 -492.5 147.33333 -481.3333 146 -470 C 144.66667 -458.66666 143.66667 -447.3333 143 -436 C 142.33333 -424.66666 142 -413.33334 142 -402 C 142 -390.66666 142 -379.3333 142 -368 C 142 -356 142 -344.33334 142 -333 C 142 -321.66666 142.33333 -310.33334 143 -299 C 143.66667 -287.66666 144.66667 -276.33334 146 -265 C 147.33333 -253.66669 148.83333 -242.33334 150.5 -231.00002 C 152.16666 -219.66667 154.16666 -208.5 156.5 -197.50002 C 158.83334 -186.5 161.66667 -175.5 165 -164.5 C 168.33334 -153.5 172.16667 -142.66666 176.50002 -132 C 180.83334 -121.33333 186.33334 -111.5 193 -102.50001 C 199.66667 -93.5 207.99998 -85.833336 218 -79.5 C 227.99998 -73.16667 238.66666 -70.00001 250 -70.00001 Z M 250 -211.00002 C 244 -211.00002 238.99998 -213.16669 235 -217.50002 C 231 -221.83333 227.83331 -226.66666 225.50002 -232 C 223.16667 -237.33334 221.16666 -242.66667 219.50002 -248.00002 C 217.83333 -253.33334 216.33334 -258.83334 215 -264.5 C 213.66667 -270.16666 212.66666 -275.83334 212 -281.5 C 211.33334 -287.1667 210.66666 -292.83334 210 -298.5 C 209.33334 -304.16666 208.83334 -309.83334 208.50002 -315.5 C 208.16667 -321.16666 207.83334 -327 207.5 -333 C 207.16667 -339 207 -344.8333 207 -350.5 C 207 -356.1667 207 -362 207 -368 C 207 -373.33334 207 -378.83334 207 -384.5 C 207 -390.16666 207.16667 -396 207.5 -402 C 207.83334 -408 208.16667 -413.8333 208.50002 -419.5 C 208.83334 -425.16666 209.33334 -430.83334 210 -436.5 C 210.66666 -442.16666 211.33334 -447.83334 212 -453.5 C 212.66666 -459.16666 213.66667 -464.83334 215 -470.5 C 216.33334 -476.16666 217.83333 -481.66666 219.50002 -487 C 221.16666 -492.33334 223.16667 -497.6667 225.50002 -503.00003 C 227.83331 -508.33334 231 -513.1667 235 -517.5 C 238.99998 -521.8334 244 -524 250 -524 C 255.99998 -524 261 -521.8334 265 -517.5 C 269.00003 -513.1667 272.1667 -508.33334 274.5 -503.00003 C 276.8333 -497.6667 278.8333 -492.33334 280.5 -487 C 282.16666 -481.66666 283.6667 -476.16666 285 -470.5 C 286.33334 -464.83334 287.33334 -459.16666 288.00003 -453.5 C 288.66666 -447.83334 289.33334 -442.16666 290 -436.5 C 290.66666 -430.83334 291.1667 -425.16666 291.50003 -419.5 C 291.83334 -413.8333 292.16666 -408 292.5 -402 C 292.83334 -396 293 -390.16666 293 -384.5 C 293 -378.83334 293 -373.33334 293 -368 C 293 -362 293 -356.1667 293 -350.5 C 293 -344.8333 292.83334 -339 292.5 -333 C 292.16666 -327 291.83334 -321.16666 291.50003 -315.5 C 291.1667 -309.83334 290.66666 -304.16666 290 -298.5 C 289.33334 -292.83334 288.66666 -287.1667 288.00003 -281.5 C 287.33334 -275.83334 286.33334 -270.16666 285 -264.5 C 283.6667 -258.83334 282.16666 -253.33334 280.5 -248.00002 C 278.8333 -242.66667 276.8333 -237.33334 274.5 -232 C 272.1667 -226.66666 269.00003 -221.83333 265 -217.50002 C 261 -213.16669 255.99998 -211.00002 250 -211.00002 Z " id="path1"/></defs><g><g fill="#000000" transform="translate(40 105.20961) rotate(0)"><use href="#path1" transform="translate(0 0) scale(0.09599999)"/></g></g></svg>