<?xml version="1.0" encoding="UTF-8" standalone="no"?>
<svg height="160" viewBox="0 0 128 160" width="128" xmlns="http://www.w3.org/2000/svg">
<defs>
<path d="M 58 -156 Q 57 -167 56.5 -178 Q 56 -189 56 -200 L 56 -535 Q 56 -562 60 -589 Q 64 -616 75 -640.5 Q 86 -665 104.5 -685.5 Q 123 -706 146.5 -719 Q 170 -732 196.5 -737.5 Q 223 -743 250 -743 Q 273 -743 295.5 -739.5 Q 318 -736 338.5 -727 Q 359 -718 377 -703.5 Q 395 -689 408 -670 L 358 -596 Q 352 -613 342 -628 Q 332 -643 317.5 -653.5 Q 303 -664 285.5 -668.5 Q 268 -673 250 -673 Q 233 -673 216 -669 Q 199 -665 185 -655.5 Q 171 -646 160.5 -632 Q 150 -618 144 -602 Q 138 -586 136 -569 Q 134 -552 134 -535 L 134 -267 Z M 250 8 Q 227 8 204.5 4.5 Q 182 1 161.5 -8 Q 141 -17 123 -31.5 Q 105 -46 92 -65 L 142 -139 Q 148 -122 158 -107 Q 168 -92 182.5 -81.5 Q 197 -71 214.5 -66.5 Q 232 -62 250 -62 Q 267 -62 284 -66 Q 301 -70 315 -79.5 Q 329 -89 339.5 -103 Q 350 -117 356 -133 Q 362 -149 364 -166 Q 366 -183 366 -200 L 366 -468 L 442 -579 Q 443 -568 443.5 -557 Q 444 -546 444 -535 L 444 -200 Q 444 -173 440 -146 Q 436 -119 425 -94.5 Q 414 -70 395.5 -49.5 Q 377 -29 353.5 -16 Q 330 -3 303.5 2.5 Q 277 8 250 8 Z " id="path1"/>
</defs>
<g>
<g data-source-text="0" fill="#dee4e3" transform="translate(40 104.99201) rotate(0) scale(0.09599999)">
<use href="#path1" transform="translate(0 0)"/>
</g>
</g>
</svg>