<?xml version="1.0" encoding="UTF-8" standalone="no"?>
<svg height="160" viewBox="0 0 128 160" width="128" xmlns="http://www.w3.org/2000/svg">
<defs>
<path d="M 444 -262 L 366 -324 L 366 -535 Q 366 -552 364 -569 Q 362 -586 356 -602 Q 350 -618 339.5 -632 Q 329 -646 315 -655.5 Q 301 -665 284 -669 Q 267 -673 250 -673 Q 233 -673 216 -669 Q 199 -665 185 -655.5 Q 171 -646 160.5 -632 Q 150 -618 144 -602 Q 138 -586 136 -569 Q 134 -552 134 -535 L 134 -509 L 57 -570 Q 60 -606 75 -639.5 Q 90 -673 116.5 -697.5 Q 143 -722 178.5 -732.5 Q 214 -743 250 -743 Q 277 -743 303.5 -737.5 Q 330 -732 353.5 -719 Q 377 -706 395.5 -685.5 Q 414 -665 425 -640.5 Q 436 -616 440 -589 Q 444 -562 444 -535 Z M 250 8 Q 223 8 196.5 2.5 Q 170 -3 146.5 -16 Q 123 -29 104.5 -49.5 Q 86 -70 75 -94.5 Q 64 -119 60 -146 Q 56 -173 56 -200 L 56 -473 L 134 -411 L 134 -200 Q 134 -183 136 -166 Q 138 -149 144 -133 Q 150 -117 160.5 -103 Q 171 -89 185 -79.5 Q 199 -70 216 -66 Q 233 -62 250 -62 Q 267 -62 284 -66 Q 301 -70 315 -79.5 Q 329 -89 339.5 -103 Q 350 -117 356 -133 Q 362 -149 364 -166 Q 366 -183 366 -200 L 366 -226 L 443 -165 Q 440 -129 425 -95.5 Q 410 -62 383.5 -37.5 Q 357 -13 321.5 -2.5 Q 286 8 250 8 Z " id="path1"/>
</defs>
<g>
<g data-source-text="0" fill="#20242e" transform="translate(40 104.99201) rotate(0) scale(0.09599999)">
<use href="#path1" transform="translate(0 0)"/>
</g>
</g>
</svg>