<?xml version="1.0" encoding="UTF-8" standalone="no"?>
<svg height="160" viewBox="0 0 128 160" width="128" xmlns="http://www.w3.org/2000/svg">
<defs>
<path d="M 342 8 Q 327 8 312 3.5 Q 297 -1 282.5 -7.5 Q 268 -14 254.5 -21 Q 241 -28 226.5 -34.5 Q 212 -41 197.5 -46 Q 183 -51 168 -56 L 134 -67 L 134 0 L 64 0 L 64 -127 L 181 -240 L 119 -240 L 119 -301 L 245 -301 L 339 -392 L 321 -398 Q 300 -406 280 -415 Q 260 -424 240.5 -433.5 Q 221 -443 200 -450.5 Q 179 -458 158 -458 Q 149 -458 143.5 -451.5 Q 138 -445 134.5 -437 Q 131 -429 129.5 -421 Q 128 -413 127 -404.5 Q 126 -396 125.5 -387.5 Q 125 -379 125 -371 L 125 -323 L 56 -323 L 56 -371 Q 56 -388 57.5 -405.5 Q 59 -423 63.5 -440 Q 68 -457 75.5 -473 Q 83 -489 95 -502 Q 107 -515 123.5 -521.5 Q 140 -528 158 -528 Q 183 -528 207.5 -520 Q 232 -512 255 -502.5 Q 278 -493 301.5 -483 Q 325 -473 349 -464 L 366 -457 L 366 -520 L 436 -520 L 436 -393 L 340 -301 L 381 -301 L 381 -240 L 277 -240 L 165 -132 L 192 -123 Q 205 -119 218 -114 Q 231 -109 243 -103 Q 255 -97 267 -90.5 Q 279 -84 291 -77.5 Q 303 -71 316 -66.5 Q 329 -62 342 -62 Q 351 -62 356.5 -68.5 Q 362 -75 365.5 -83 Q 369 -91 370.5 -99 Q 372 -107 373 -115.5 Q 374 -124 374.5 -132.5 Q 375 -141 375 -149 L 375 -198 L 444 -198 L 444 -149 Q 444 -132 442.5 -114.5 Q 441 -97 436.5 -80 Q 432 -63 424.5 -47 Q 417 -31 405 -18 Q 393 -5 376.5 1.5 Q 360 8 342 8 Z " id="path1"/>
</defs>
<g>
<g data-source-text="z" fill="#20242e" transform="translate(40 104.99201) rotate(0) scale(0.09599999)">
<use href="#path1" transform="translate(0 0)"/>
</g>
</g>
</svg>