<?xml version="1.0" encoding="UTF-8" standalone="no"?>
<svg height="160" viewBox="0 0 128 160" width="128" xmlns="http://www.w3.org/2000/svg">
<defs>
<path d="M 332 8 Q 317 8 302.5 3.5 Q 288 -1 274.5 -7.5 Q 261 -14 247.5 -21 Q 234 -28 220.5 -34.5 Q 207 -41 193 -46 Q 179 -51 164 -56 L 134 -66 L 134 0 L 64 0 L 64 -127 L 198 -256 L 105 -293 L 119 -323 L 56 -323 L 56 -371 Q 56 -389 58 -407 Q 60 -425 65 -442.5 Q 70 -460 79 -476 Q 88 -492 101.5 -504.5 Q 115 -517 132.5 -522.5 Q 150 -528 168 -528 Q 192 -528 215 -520 Q 238 -512 260 -502 Q 282 -492 304 -482 Q 326 -472 349 -464 L 366 -457 L 366 -520 L 436 -520 L 436 -393 L 317 -279 L 395 -248 L 372 -197 L 444 -197 L 444 -149 Q 444 -131 442 -113 Q 440 -95 435 -77.5 Q 430 -60 421 -44 Q 412 -28 398.5 -15.5 Q 385 -3 367.5 2.5 Q 350 8 332 8 Z M 250 -306 L 339 -392 L 321 -398 Q 302 -406 283.5 -414.5 Q 265 -423 247 -432 L 246 -432 Q 228 -442 208.5 -450 Q 189 -458 168 -458 Q 159 -458 153 -451.5 Q 147 -445 143.5 -437.5 Q 140 -430 138 -421.5 Q 136 -413 135 -404.5 Q 134 -396 133.5 -387.5 Q 133 -379 133 -371 L 133 -353 Z M 332 -62 Q 341 -62 347 -68.5 Q 353 -75 356.5 -82.5 Q 360 -90 362 -98.5 Q 364 -107 365 -115.5 Q 366 -124 366.5 -132.5 Q 367 -141 367 -149 L 367 -188 L 265 -229 L 164 -131 L 189 -123 Q 202 -118 214 -113.5 Q 226 -109 237.5 -103 Q 249 -97 260 -90.5 Q 271 -84 282.5 -77.5 Q 294 -71 306.5 -66.5 Q 319 -62 332 -62 Z " id="path1"/>
</defs>
<g>
<g data-source-text="z" fill="#20242e" transform="translate(40 104.99201) rotate(0) scale(0.09599999)">
<use href="#path1" transform="translate(0 0)"/>
</g>
</g>
</svg>