<?xml version="1.0" encoding="UTF-8" standalone="no"?>
<svg height="160" viewBox="0 0 128 160" width="128" xmlns="http://www.w3.org/2000/svg">
<defs>
<path d="M 289 3 L 289 -74 Q 305 -84 315.5 -101 Q 326 -118 333.5 -136.5 Q 341 -155 346 -174 Q 351 -193 354.5 -212 Q 358 -231 360.5 -250.5 Q 363 -270 364 -289.5 Q 365 -309 365.5 -328.5 Q 366 -348 366 -368 Q 366 -387 365.5 -406.5 Q 365 -426 364 -445.5 Q 363 -465 360.5 -484.5 Q 358 -504 354.5 -523 Q 351 -542 346 -561 Q 341 -580 333.5 -598.5 Q 326 -617 315.5 -634 Q 305 -651 289 -661 L 289 -738 Q 315 -731 336.5 -714.5 Q 358 -698 373.5 -676.5 Q 389 -655 400 -630 Q 411 -605 418.5 -579.5 Q 426 -554 431 -527.5 Q 436 -501 439 -474.5 Q 442 -448 443 -421 Q 444 -394 444 -368 Q 444 -341 443 -314 Q 442 -287 439 -260.5 Q 436 -234 431 -207.5 Q 426 -181 418.5 -155.5 Q 411 -130 400 -105 Q 389 -80 373.5 -58.5 Q 358 -37 336.5 -20.5 Q 315 -4 289 3 Z M 211 3 Q 185 -4 163.5 -20.5 Q 142 -37 126.5 -58.5 Q 111 -80 100 -105 Q 89 -130 81.5 -155.5 Q 74 -181 69 -207.5 Q 64 -234 61 -260.5 Q 58 -287 57 -314 Q 56 -341 56 -368 Q 56 -394 57 -421 Q 58 -448 61 -474.5 Q 64 -501 69 -527.5 Q 74 -554 81.5 -579.5 Q 89 -605 100 -630 Q 111 -655 126.5 -676.5 Q 142 -698 163.5 -714.5 Q 185 -731 211 -738 L 211 -661 Q 195 -651 184.5 -634 Q 174 -617 166.5 -598.5 Q 159 -580 154 -561 Q 149 -542 145.5 -523 Q 142 -504 139.5 -484.5 Q 137 -465 136 -445.5 Q 135 -426 134.5 -406.5 Q 134 -387 134 -368 Q 134 -348 134.5 -328.5 Q 135 -309 136 -289.5 Q 137 -270 139.5 -250.5 Q 142 -231 145.5 -212 Q 149 -193 154 -174 Q 159 -155 166.5 -136.5 Q 174 -118 184.5 -101 Q 195 -84 211 -74 Z " id="path1"/>
</defs>
<g>
<g data-source-text="0" fill="#dee4e3" transform="translate(40 104.99201) rotate(0) scale(0.09599999)">
<use href="#path1" transform="translate(0 0)"/>
</g>
</g>
</svg>