<?xml version="1.0" encoding="UTF-8" standalone="no"?>
<svg height="160" viewBox="0 0 128 160" width="128" xmlns="http://www.w3.org/2000/svg">
<defs>
<path d="M 439 -266 L 366 -325 L 366 -368 Q 366 -385 365.5 -403 Q 365 -421 364 -438.5 Q 363 -456 361.5 -473.5 Q 360 -491 357 -508.5 Q 354 -526 350.5 -543.5 Q 347 -561 341.5 -577.5 Q 336 -594 328.5 -610.5 Q 321 -627 310.5 -641 Q 300 -655 284 -664 Q 268 -673 250 -673 Q 232 -673 215.5 -663.5 Q 199 -654 188.5 -639 Q 178 -624 170.5 -607.5 Q 163 -591 157.5 -573.5 Q 152 -556 148.5 -538 Q 145 -520 142 -502 L 75 -555 Q 80 -578 88 -600 Q 96 -622 106.5 -642.5 Q 117 -663 131 -682 Q 145 -701 163.5 -715 Q 182 -729 204.5 -736 Q 227 -743 250 -743 Q 279 -743 307 -731.5 Q 335 -720 355 -699 Q 375 -678 389 -652 Q 403 -626 412.5 -598.5 Q 422 -571 428 -542 Q 434 -513 437.5 -484 Q 441 -455 442.5 -426 Q 444 -397 444 -368 Q 444 -342 443 -316.5 Q 442 -291 439 -266 Z M 250 8 Q 221 8 193 -3.5 Q 165 -15 145 -36 Q 125 -57 111 -83 Q 97 -109 87.5 -136.5 Q 78 -164 72 -193 Q 66 -222 62.5 -251 Q 59 -280 57.5 -309 Q 56 -338 56 -368 Q 56 -393 57 -418.5 Q 58 -444 61 -469 L 134 -410 L 134 -368 Q 134 -350 134.5 -332 Q 135 -314 136 -296.5 Q 137 -279 138.5 -261.5 Q 140 -244 143 -226.5 Q 146 -209 149.5 -191.5 Q 153 -174 158.5 -157.5 Q 164 -141 171.5 -124.5 Q 179 -108 189.5 -94 Q 200 -80 216 -71 Q 232 -62 250 -62 Q 268 -62 284.5 -71.5 Q 301 -81 311.5 -96 Q 322 -111 329.5 -127.5 Q 337 -144 342.5 -161.5 Q 348 -179 351.5 -197 Q 355 -215 358 -233 L 425 -180 Q 420 -157 412 -135 Q 404 -113 393.5 -92.5 Q 383 -72 369 -53 Q 355 -34 336.5 -20 Q 318 -6 295.5 1 Q 273 8 250 8 Z " id="path1"/>
</defs>
<g>
<g data-source-text="0" fill="#dee4e3" transform="translate(40 104.99201) rotate(0) scale(0.09599999)">
<use href="#path1" transform="translate(0 0)"/>
</g>
</g>
</svg>