<?xml version="1.0" encoding="UTF-8" standalone="no"?>
<svg height="160" viewBox="0 0 128 160" width="128" xmlns="http://www.w3.org/2000/svg">
<defs>
<path d="M 250 8 Q 231 8 212.5 5 Q 194 2 179 -9 Q 164 -20 155 -37 Q 146 -54 140 -71 L 92 -211 L 91 -212 Q 85 -231 78.5 -250 Q 72 -269 67 -288.5 Q 62 -308 59 -327.5 Q 56 -347 56 -367 Q 56 -388 59 -407.5 Q 62 -427 67 -446.5 Q 72 -466 78.5 -485 Q 85 -504 91 -523 L 92 -523 L 92 -524 L 140 -664 Q 146 -681 155 -698 Q 164 -715 179 -726 Q 194 -737 212.5 -740 Q 231 -743 250 -743 Q 264 -743 278 -741.5 Q 292 -740 305 -735 Q 318 -730 328 -720 Q 338 -710 345 -698 L 291 -643 Q 289 -650 286 -657 Q 283 -664 277.5 -669.5 Q 272 -675 264.5 -676.5 Q 257 -678 250 -678 Q 243 -678 235.5 -676 Q 228 -674 222.5 -669 Q 217 -664 214 -657 Q 211 -650 209 -643 L 164 -503 Q 158 -486 153 -469.5 Q 148 -453 143.5 -436 Q 139 -419 136.5 -402 Q 134 -385 134 -368 Q 134 -350 136.5 -333 Q 139 -316 143.5 -299 Q 148 -282 153 -265.5 Q 158 -249 164 -232 L 209 -92 Q 211 -85 214 -78 Q 217 -71 222.5 -66 Q 228 -61 235.5 -59 Q 243 -57 250 -57 Q 257 -57 264.5 -59 Q 272 -61 277.5 -66 Q 283 -71 286 -78 Q 289 -85 291 -92 L 336 -232 Q 342 -249 347 -265.5 Q 352 -282 356.5 -299 Q 361 -316 363.5 -333 Q 366 -350 366 -367 Q 366 -385 363.5 -402 Q 361 -419 356.5 -436 Q 352 -453 347 -469.5 Q 342 -486 336 -503 L 318 -560 L 376 -618 L 408 -524 L 409 -523 Q 415 -504 421.5 -485 Q 428 -466 433 -446.5 Q 438 -427 441 -407.5 Q 444 -388 444 -368 Q 444 -347 441 -327.5 Q 438 -308 433 -288.5 Q 428 -269 421.5 -250 Q 415 -231 409 -212 L 408 -212 L 408 -211 L 360 -71 Q 354 -54 345 -37 Q 336 -20 321 -9 Q 306 2 287.5 5 Q 269 8 250 8 Z " id="path1"/>
</defs>
<g>
<g data-source-text="0" fill="#20242e" transform="translate(40 104.99201) rotate(0) scale(0.09599999)">
<use href="#path1" transform="translate(0 0)"/>
</g>
</g>
</svg>