<svg xmlns="http://www.w3.org/2000/svg" height="480" viewBox="0 0 1200 480" width="1200"><defs><path d="M 250.99998 7.9999995 C 232.99998 7.999999 215.33331 6.1666656 198 2.4999998 C 180.66664 -1.1666665 164.49997 -7.4999995 149.5 -16.499998 C 134.49998 -25.499998 121.16666 -36.999996 109.49999 -50.999996 C 97.83333 -64.99999 88.66666 -80.16666 82 -96.49999 C 75.33332 -112.83332 70.66666 -129.66666 67.99999 -146.99998 C 65.33332 -164.33333 63.999992 -182 63.999996 -200 L 63.999996 -319.99997 C 63.999992 -337.33328 65.33332 -354.8333 67.99999 -372.5 C 70.66666 -390.16663 75.33332 -407.16663 82 -423.49997 C 88.66666 -439.8333 97.66666 -454.83328 108.99999 -468.49997 C 120.33332 -482.16666 133.49998 -493.66663 148.49998 -502.99994 C 163.49998 -512.33325 179.83331 -518.83325 197.49998 -522.49994 C 215.16664 -526.16656 232.66664 -527.99994 249.99998 -527.99994 C 267.3333 -527.99994 284.8333 -526.16656 302.49997 -522.49994 C 320.16663 -518.83325 336.49997 -512.33325 351.5 -502.99994 C 366.49994 -493.66663 379.66663 -482.16666 390.99997 -468.49997 C 402.33328 -454.83328 411.33328 -439.8333 417.99997 -423.49997 C 424.66666 -407.16663 429.33328 -390.16663 432 -372.5 C 434.66663 -354.8333 435.99997 -337.33328 435.99997 -319.99997 L 435.99997 -250.99998 L 83 -250.99998 L 83 -200 C 83 -183.99997 84.166664 -167.99997 86.5 -151.99998 C 88.83333 -135.99998 92.99999 -120.66665 99 -105.99999 C 104.99999 -91.33332 113.166664 -77.666664 123.49999 -64.99999 C 133.83333 -52.33333 145.66666 -41.666664 159 -32.999996 C 172.33331 -24.333328 186.99998 -18.33333 202.99998 -14.999999 C 218.99998 -11.666665 234.99997 -9.999998 250.99998 -9.999999 C 269.66663 -9.999998 288.49994 -11.999998 307.49997 -15.999999 C 326.49997 -19.999996 343.99997 -27.166664 360 -37.5 C 375.99997 -47.833324 388.83328 -61.499992 398.49997 -78.5 C 408.16663 -95.49999 413.66666 -113.66666 414.99997 -133 L 433.99997 -133 C 433.33328 -118.33332 430.49994 -104.16666 425.49997 -90.49999 C 420.49997 -76.83333 413.66666 -64.33333 404.99997 -52.999996 C 396.3333 -41.66666 385.99994 -31.999996 373.99997 -23.999998 C 361.99994 -15.999998 349.1666 -9.499998 335.49997 -4.4999995 C 321.8333 0.49999988 307.8333 3.833333 293.49997 5.4999995 C 279.16666 7.1666656 264.99997 7.999999 250.99998 7.9999995 Z M 83 -268.99997 L 416.99997 -268.99997 L 416.99997 -319.99997 C 416.99997 -335.99994 415.8333 -351.99997 413.49997 -367.99997 C 411.16666 -383.99997 407 -399.3333 400.99997 -414 C 394.99997 -428.66663 386.99994 -442.3333 376.99997 -454.99997 C 366.99997 -467.6666 355.16663 -478.33325 341.49997 -486.99997 C 327.83328 -495.66663 313.16663 -501.66663 297.5 -504.99997 C 281.8333 -508.33328 266 -509.99997 249.99998 -509.99997 C 233.99997 -509.99997 218.16664 -508.33328 202.49998 -504.99997 C 186.83331 -501.66663 172.16666 -495.66663 158.5 -486.99997 C 144.83333 -478.33325 132.99998 -467.6666 122.99999 -454.99997 C 112.99999 -442.3333 104.99999 -428.66663 99 -414 C 92.99999 -399.3333 88.83333 -383.99997 86.5 -367.99997 C 84.166664 -351.99997 83 -335.99994 83 -319.99997 Z " id="path4"/><path d="M 87.99999 0 L 87.99999 -734.99994 L 107 -734.99994 L 107 -228.99998 L 390.99997 -519.99994 L 417.99997 -519.99994 L 189.99998 -286.99997 L 417.99997 0 L 393.99997 0 L 175.99998 -272.99997 L 107 -201.99998 L 107 0 Z " id="path6"/><path d="M 248.99998 7.9999995 C 234.99997 7.999999 221.16664 7.3333325 207.49998 5.9999995 C 193.83331 4.666666 180.49997 1.9999996 167.5 -1.9999999 C 154.49998 -5.999999 141.99998 -11.499998 129.99998 -18.5 C 117.999985 -25.499998 107.49999 -34.166664 98.49999 -44.499996 C 89.49999 -54.833332 82.49999 -66.49999 77.5 -79.5 C 72.49999 -92.49999 69.99999 -105.666664 69.99999 -118.99999 C 69.99999 -120.33333 69.99999 -121.33332 69.99999 -121.99999 C 69.99999 -122.66666 69.99999 -123.33332 69.99999 -124 L 88.99999 -124 C 88.999985 -123.33332 88.999985 -122.66666 88.99999 -121.99999 C 88.999985 -121.33332 88.999985 -120.66666 88.99999 -119.99999 C 88.999985 -107.999985 91.33332 -96.33333 95.99999 -84.99999 C 100.66666 -73.666664 107.16665 -63.499996 115.49999 -54.499996 C 123.83332 -45.5 133.33331 -38.166664 143.99998 -32.499996 C 154.66664 -26.83333 165.83331 -22.33333 177.49998 -18.999998 C 189.16666 -15.666665 200.99998 -13.333332 212.99998 -11.999999 C 224.99997 -10.666665 236.99998 -9.999998 248.99998 -9.999999 C 261 -9.999998 272.99997 -10.666665 285 -11.999999 C 296.99997 -13.333332 308.8333 -15.666665 320.49997 -18.999998 C 332.16663 -22.33333 343.49997 -26.999996 354.5 -32.999996 C 365.5 -38.999992 375 -46.499996 382.99997 -55.499996 C 390.99997 -64.49999 397.33328 -74.66666 401.99997 -85.99999 C 406.66663 -97.33331 408.99997 -108.999985 408.99997 -120.99999 C 408.99997 -136.99998 405.16666 -151.99998 397.5 -166 C 389.8333 -179.99998 379.99997 -191.83331 367.99997 -201.5 C 355.99997 -211.16666 342.66666 -218.99998 328 -224.99998 C 313.3333 -230.99998 298.5 -236.16666 283.5 -240.49998 C 268.5 -244.8333 253.66664 -249.16664 239 -253.49998 C 224.33331 -257.8333 209.66666 -262.66663 194.99998 -268 C 180.33333 -273.3333 165.99998 -279.66663 151.99998 -286.99997 C 137.99997 -294.3333 125.66665 -303.66666 114.99999 -314.99997 C 104.33333 -326.3333 95.83333 -339.33334 89.49999 -353.99997 C 83.16666 -368.66663 79.999985 -383.66663 79.99999 -398.99997 C 79.999985 -412.33328 82.16666 -425.49997 86.5 -438.49997 C 90.83333 -451.49994 97.166664 -463.1666 105.49999 -473.49997 C 113.83333 -483.83328 123.83333 -492.66663 135.5 -499.99997 C 147.16666 -507.33328 159.33331 -512.99994 171.99998 -516.99994 C 184.66666 -520.99994 197.66666 -523.8333 210.99998 -525.49994 C 224.33331 -527.1666 237.66663 -527.99994 250.99998 -527.99994 C 264.3333 -527.99994 277.66666 -527.33325 290.99997 -526 C 304.33328 -524.6666 317.3333 -521.83325 329.99997 -517.49994 C 342.66663 -513.1666 354.66663 -507.49997 365.99997 -500.49997 C 377.3333 -493.49997 387.33328 -484.83328 396 -474.49997 C 404.66663 -464.16663 411.16663 -452.66666 415.5 -439.99997 C 419.83328 -427.3333 421.99997 -414.33328 421.99997 -400.99997 C 421.99997 -400.3333 421.99997 -399.66666 421.99997 -398.99997 C 421.99997 -398.33328 421.99997 -397.66663 421.99997 -396.99997 L 403 -396.99997 C 403 -397.66663 403 -398.33328 403 -398.99997 C 403 -399.66666 403 -400.3333 403 -400.99997 C 403 -412.3333 400.8333 -423.49997 396.49997 -434.49997 C 392.16663 -445.49997 386.16663 -455.49994 378.49997 -464.49997 C 370.8333 -473.49997 361.99997 -480.99997 351.99997 -486.99997 C 341.99997 -492.99994 331.33328 -497.66663 319.99997 -500.99997 C 308.66666 -504.33328 297.3333 -506.6666 286 -507.99997 C 274.66666 -509.33328 262.99997 -509.99997 250.99998 -509.99997 C 238.99995 -509.99997 227.16664 -509.33328 215.49998 -507.99997 C 203.83331 -506.6666 192.49998 -504.33328 181.49998 -500.99997 C 170.49998 -497.66663 159.83333 -492.83328 149.5 -486.49997 C 139.16667 -480.1666 130.33333 -472.49997 122.99999 -463.49997 C 115.66666 -454.49997 109.83332 -444.49994 105.49999 -433.5 C 101.16666 -422.49997 98.99999 -410.99994 99 -398.99997 C 98.99999 -383.66663 102.83333 -368.8333 110.49999 -354.5 C 118.16666 -340.16666 127.999985 -328.16663 139.99998 -318.49997 C 151.99997 -308.8333 165.33331 -301.16666 180 -295.49997 C 194.66664 -289.8333 209.33331 -284.66663 223.99998 -279.99997 C 238.66666 -275.3333 253.49997 -270.8333 268.49997 -266.5 C 283.49997 -262.16663 298.33328 -257.3333 312.99997 -251.99998 C 327.66666 -246.66664 341.8333 -240.33331 355.5 -232.99998 C 369.16666 -225.66664 381.49997 -216.33331 392.49997 -205 C 403.49997 -193.66666 412.16666 -180.83331 418.49997 -166.49998 C 424.83328 -152.16664 428 -136.99998 428 -120.99999 C 428 -107.66666 425.49997 -94.33332 420.49997 -80.99999 C 415.49997 -67.66666 408.49997 -55.83333 399.49997 -45.5 C 390.49997 -35.166664 379.99997 -26.499998 367.99997 -19.499998 C 355.99997 -12.499998 343.49997 -6.8333325 330.5 -2.4999998 C 317.49997 1.833333 304.16666 4.666666 290.5 5.9999995 C 276.8333 7.3333325 262.99997 7.999999 248.99998 7.9999995 Z " id="path3"/><path d="M 239 0 L 58 -519.99994 L 78.99999 -519.99994 L 200 -173 C 208.66666 -148.33333 217.16666 -123.83332 225.49998 -99.49999 C 233.83331 -75.16666 241.99998 -50.33333 249.99998 -25 C 257.99997 -50.33333 266.16663 -75.16666 274.49997 -99.49999 C 282.83328 -123.83332 291.3333 -148.33333 300 -173 L 421 -519.99994 L 441.99997 -519.99994 L 261 0 Z " id="path5"/><path d="M 220.99998 7.9999995 C 200.33331 7.999999 179.99998 5.499999 159.99998 0.49999997 C 139.99998 -4.4999995 122.499985 -13.833332 107.49999 -27.499998 C 92.49999 -41.16666 81.499985 -57.66666 74.49999 -76.99999 C 67.49999 -96.33332 63.999992 -115.99998 63.999996 -135.99998 C 63.999992 -151.99997 66.33332 -167.83333 70.99999 -183.5 C 75.66666 -199.16666 83.16666 -212.83331 93.49999 -224.49998 C 103.83332 -236.16664 115.999985 -245.83333 129.99998 -253.49998 C 143.99998 -261.16666 158.66666 -267.3333 173.99998 -271.99997 C 189.3333 -276.66663 204.83331 -279.66663 220.49998 -280.99997 C 236.16664 -282.3333 251.99997 -282.99997 268 -282.99997 L 408.99997 -282.99997 L 408.99997 -344.99997 C 408.99997 -358.99994 407.66663 -373.33328 404.99997 -387.99997 C 402.3333 -402.66666 397.99997 -416.49997 391.99997 -429.49997 C 385.99994 -442.49994 377.83328 -454.49994 367.49997 -465.5 C 357.16663 -476.49997 345.49994 -485.33328 332.49997 -491.99997 C 319.49997 -498.66663 305.83328 -503.33325 291.5 -505.99997 C 277.1666 -508.6666 262.66663 -509.99997 248 -509.99997 C 229.33331 -509.99997 210.66664 -507.99994 191.99998 -503.99997 C 173.33331 -499.99994 156.16666 -492.6666 140.49998 -481.99997 C 124.83333 -471.33328 112.49999 -457.33328 103.5 -439.99997 C 94.5 -422.66666 89.666664 -404.3333 88.99999 -385 L 69.99999 -385 C 69.99999 -399.66666 72.166664 -413.83328 76.49999 -427.49997 C 80.83333 -441.1666 87.33333 -453.8333 95.99999 -465.5 C 104.66666 -477.1666 114.83332 -487.1666 126.49999 -495.49997 C 138.16664 -503.83328 150.66664 -510.49994 164 -515.49994 C 177.33331 -520.49994 191.16664 -523.8333 205.49998 -525.49994 C 219.8333 -527.1666 233.99997 -527.99994 248 -527.99994 C 264.66666 -527.99994 280.99997 -526.49994 296.99997 -523.5 C 312.99997 -520.5 328.16663 -515.3333 342.49997 -507.99997 C 356.8333 -500.66663 369.83328 -490.99997 381.49997 -478.99997 C 393.16663 -466.99997 402.49994 -453.66663 409.49997 -439 C 416.49994 -424.3333 421.33325 -408.99997 423.99997 -392.99997 C 426.66663 -376.99997 428 -360.99994 428 -344.99997 L 428 0 L 408.99997 0 L 408.99997 -101.99999 C 401.66663 -83.99999 391.3333 -67.66666 378 -52.999996 C 364.66663 -38.33333 349.49994 -26.33333 332.49997 -16.999998 C 315.5 -7.666666 297.49997 -1.1666665 278.49997 2.4999998 C 259.49997 6.1666656 240.33331 7.999999 220.99998 7.9999995 Z M 223.99998 -9.999999 C 239.3333 -9.999998 254.99998 -11.333332 271 -13.999999 C 286.99994 -16.666664 302.1666 -21.166666 316.49997 -27.499998 C 330.83328 -33.833332 344.16663 -42.16666 356.49997 -52.499996 C 368.8333 -62.83333 378.99994 -74.83333 386.99997 -88.49999 C 394.99994 -102.16666 400.6666 -116.83333 403.99997 -132.49998 C 407.33328 -148.16666 408.99997 -163.99998 408.99997 -180 L 408.99997 -264.99997 L 268 -264.99997 C 253.99998 -264.99997 239.99998 -264.49997 225.99998 -263.49997 C 211.99998 -262.49997 198.16666 -259.99997 184.49998 -255.99998 C 170.83333 -251.99997 157.66666 -246.83331 144.99998 -240.49998 C 132.33333 -234.16664 121.16666 -225.83331 111.5 -215.49998 C 101.83332 -205.16666 94.66666 -193.16664 90 -179.49998 C 85.33333 -165.83333 83 -151.99998 83 -137.99998 C 83 -119.99999 86.33333 -102.33332 92.99999 -84.99999 C 99.66666 -67.666664 109.66666 -52.999996 122.99999 -41 C 136.33333 -29 151.99998 -20.833332 169.99998 -16.499998 C 187.99997 -12.166664 205.99997 -9.999998 223.99998 -9.999999 Z " id="path7"/><path d="M 75 0 L 75 -17.999998 L 239.99998 -17.999998 L 239.99998 -717 L 75 -717 L 75 -734.99994 L 424.99997 -734.99994 L 424.99997 -717 L 259.99997 -717 L 259.99997 -17.999998 L 424.99997 -17.999998 L 424.99997 0 Z " id="path1"/><path d="M 249.99998 7.9999995 C 232.66664 7.999999 215.16664 6.1666656 197.49998 2.4999998 C 179.83331 -1.1666665 163.49998 -7.666666 148.49998 -16.999998 C 133.49998 -26.33333 120.33332 -37.833332 108.99999 -51.499996 C 97.66666 -65.16666 88.66666 -80.16666 82 -96.49999 C 75.33332 -112.83332 70.66666 -129.83331 67.99999 -147.49998 C 65.33332 -165.16664 63.999992 -182.66664 63.999996 -200 L 63.999996 -319.99997 C 63.999992 -337.33328 65.33332 -354.8333 67.99999 -372.5 C 70.66666 -390.16663 75.33332 -407.16663 82 -423.49997 C 88.66666 -439.8333 97.66666 -454.99997 108.99999 -468.99997 C 120.33332 -482.99997 133.66666 -494.49994 148.99998 -503.49997 C 164.33331 -512.49994 180.66664 -519.33325 198 -523.99994 C 215.33331 -528.6666 232.66664 -530.99994 249.99998 -530.99994 C 267.3333 -530.99994 284.66663 -528.6666 301.99997 -523.99994 C 319.3333 -519.33325 335.66666 -512.49994 350.99997 -503.49997 C 366.33328 -494.49994 379.66663 -482.99997 390.99997 -468.99997 C 402.33328 -454.99997 411.33328 -439.8333 417.99997 -423.49997 C 424.66666 -407.16663 429.33328 -390.16663 432 -372.5 C 434.66663 -354.8333 435.99997 -337.33328 435.99997 -319.99997 L 435.99997 -200 C 435.99997 -182.66664 434.66663 -165.16664 432 -147.49998 C 429.33328 -129.83331 424.66666 -112.83332 417.99997 -96.49999 C 411.33328 -80.16666 402.33328 -65.16666 390.99997 -51.499996 C 379.66663 -37.833332 366.49994 -26.33333 351.5 -16.999998 C 336.49997 -7.666666 320.16663 -1.1666665 302.49997 2.4999998 C 284.8333 6.1666656 267.3333 7.999999 249.99998 7.9999995 Z M 249.99998 -9.999999 C 266 -9.999998 281.8333 -11.666665 297.5 -14.999999 C 313.16663 -18.33333 327.83328 -24.333328 341.49997 -32.999996 C 355.16663 -41.666664 366.99997 -52.33333 376.99997 -64.99999 C 386.99994 -77.666664 394.99997 -91.33332 400.99997 -105.99999 C 407 -120.66665 411.16666 -135.99998 413.49997 -151.99998 C 415.8333 -167.99997 416.99997 -183.99997 416.99997 -200 L 416.99997 -319.99997 C 416.99997 -335.99994 415.8333 -351.99997 413.49997 -367.99997 C 411.16666 -383.99997 407 -399.49994 400.99997 -414.49997 C 394.99997 -429.49994 386.8333 -443.33328 376.5 -455.99997 C 366.16666 -468.66663 354.16666 -479.16663 340.5 -487.49997 C 326.8333 -495.83328 311.99994 -501.66663 296 -504.99997 C 279.99997 -508.33328 263.99997 -509.99997 248 -509.99997 C 231.99997 -509.99997 216.16664 -508.16663 200.49998 -504.49997 C 184.83333 -500.83328 170.33331 -494.6666 157 -485.99997 C 143.66666 -477.3333 132.16667 -466.66663 122.49999 -453.99997 C 112.83332 -441.33328 104.99999 -427.66663 99 -412.99997 C 92.99999 -398.33328 88.83333 -383.16663 86.5 -367.49997 C 84.166664 -351.8333 83 -335.99994 83 -319.99997 L 83 -200 C 83 -183.99997 84.166664 -167.99997 86.5 -151.99998 C 88.83333 -135.99998 92.99999 -120.66665 99 -105.99999 C 104.99999 -91.33332 112.99999 -77.666664 122.99999 -64.99999 C 132.99998 -52.33333 144.83333 -41.666664 158.5 -32.999996 C 172.16666 -24.333328 186.83331 -18.33333 202.49998 -14.999999 C 218.16664 -11.666665 233.99997 -9.999998 249.99998 -9.999999 Z " id="path2"/></defs><g><g fill="#000000" transform="translate(180 293.496) rotate(0)"><use href="#path1" transform="translate(0 0) scale(0.24000001)"/><use href="#path2" transform="translate(120 0) scale(0.24000001)"/><use href="#path3" transform="translate(240 0) scale(0.24000001)"/><use href="#path4" transform="translate(360 0) scale(0.24000001)"/><use href="#path5" transform="translate(480 0) scale(0.24000001)"/><use href="#path6" transform="translate(600 0) scale(0.24000001)"/><use href="#path7" transform="translate(720 0) scale(0.24000001)"/></g></g></svg>