<?xml version="1.0" encoding="UTF-8" standalone="no"?>
<svg height="480" viewBox="0 0 1200 480" width="1200" xmlns="http://www.w3.org/2000/svg">
<defs>
<path d="M 75 0 L 75 -18 L 240 -18 L 240 -717 L 75 -717 L 75 -735 L 425 -735 L 425 -717 L 260 -717 L 260 -18 L 425 -18 L 425 0 Z " id="path1"/>
<path d="M 250 8 Q 224 8 197.5 2.5 Q 171 -3 148.5 -17 Q 126 -31 109 -51.5 Q 92 -72 82 -96.5 Q 72 -121 68 -147.5 Q 64 -174 64 -200 L 64 -320 Q 64 -346 68 -372.5 Q 72 -399 82 -423.5 Q 92 -448 109 -468.5 Q 126 -489 148.5 -503 Q 171 -517 197.5 -522.5 Q 224 -528 250 -528 Q 276 -528 302.5 -522.5 Q 329 -517 351.5 -503 Q 374 -489 391 -468.5 Q 408 -448 418 -423.5 Q 428 -399 432 -372.5 Q 436 -346 436 -320 L 436 -200 Q 436 -174 432 -147.5 Q 428 -121 418 -96.5 Q 408 -72 391 -51.5 Q 374 -31 351.5 -17 Q 329 -3 302.5 2.5 Q 276 8 250 8 Z M 250 -10 Q 274 -10 297.5 -15 Q 321 -20 341.5 -33 Q 362 -46 377 -65 Q 392 -84 401 -106 Q 410 -128 413.5 -152 Q 417 -176 417 -200 L 417 -320 Q 417 -344 413.5 -368 Q 410 -392 401 -414 Q 392 -436 377 -455 Q 362 -474 341.5 -487 Q 321 -500 297.5 -505 Q 274 -510 250 -510 Q 226 -510 202.5 -505 Q 179 -500 158.5 -487 Q 138 -474 123 -455 Q 108 -436 99 -414 Q 90 -392 86.5 -368 Q 83 -344 83 -320 L 83 -200 Q 83 -176 86.5 -152 Q 90 -128 99 -106 Q 108 -84 123 -65 Q 138 -46 158.5 -33 Q 179 -20 202.5 -15 Q 226 -10 250 -10 Z " id="path2"/>
<path d="M 249 8 Q 228 8 207.5 6 Q 187 4 167.5 -2.5 Q 148 -9 130 -19.5 Q 112 -30 98.5 -45.5 Q 85 -61 77.5 -80.5 Q 70 -100 70 -121 L 70 -124 L 89 -124 L 89 -121 Q 89 -103 96 -86 Q 103 -69 115 -55.5 Q 127 -42 143.5 -33 Q 160 -24 177 -19 Q 194 -14 212.5 -12 Q 231 -10 249 -10 Q 267 -10 285.5 -12 Q 304 -14 322 -19.5 Q 340 -25 356 -35 Q 372 -45 384 -59 Q 396 -73 402.5 -90.5 Q 409 -108 409 -127 Q 409 -150 398 -171.5 Q 387 -193 369.5 -208 Q 352 -223 329.5 -231 Q 307 -239 284.5 -244 Q 262 -249 239 -252.5 Q 216 -256 193.5 -263 Q 171 -270 150.5 -281 Q 130 -292 114 -309 Q 98 -326 89 -348 Q 80 -370 80 -393 Q 80 -414 86.5 -433.5 Q 93 -453 105 -469.5 Q 117 -486 134 -497.5 Q 151 -509 170.5 -516 Q 190 -523 210.5 -525.5 Q 231 -528 251 -528 Q 271 -528 291 -525.5 Q 311 -523 330 -517 Q 349 -511 366 -500 Q 383 -489 396 -473.5 Q 409 -458 415.5 -439 Q 422 -420 422 -400 L 422 -396 L 403 -396 L 403 -399 Q 403 -417 396.5 -433.5 Q 390 -450 379 -463.5 Q 368 -477 352.5 -486.5 Q 337 -496 320.5 -501 Q 304 -506 286.5 -508 Q 269 -510 251 -510 Q 233 -510 215 -508 Q 197 -506 180 -500 Q 163 -494 148 -484 Q 133 -474 122 -460 Q 111 -446 105 -428.5 Q 99 -411 99 -394 Q 99 -370 109.5 -348.5 Q 120 -327 138 -312 Q 156 -297 178 -289 Q 200 -281 223 -276 Q 246 -271 269 -267.5 Q 292 -264 314 -257 Q 336 -250 357 -239 Q 378 -228 394 -211 Q 410 -194 419 -172 Q 428 -150 428 -127 Q 428 -106 421 -85.5 Q 414 -65 401 -49 Q 388 -33 370 -21.5 Q 352 -10 332 -3.5 Q 312 3 291 5.5 Q 270 8 249 8 Z " id="path3"/>
<path d="M 251 8 Q 224 8 198 2.5 Q 172 -3 149.5 -16.5 Q 127 -30 109.5 -51 Q 92 -72 82 -96.5 Q 72 -121 68 -147 Q 64 -173 64 -200 L 64 -320 Q 64 -346 68 -372.5 Q 72 -399 82 -423.5 Q 92 -448 109 -468.5 Q 126 -489 148.5 -503 Q 171 -517 197.5 -522.5 Q 224 -528 250 -528 Q 276 -528 302.5 -522.5 Q 329 -517 351.5 -503 Q 374 -489 391 -468.5 Q 408 -448 418 -423.5 Q 428 -399 432 -372.5 Q 436 -346 436 -320 L 436 -251 L 83 -251 L 83 -200 Q 83 -176 86.5 -152 Q 90 -128 99 -106 Q 108 -84 123.5 -65 Q 139 -46 159 -33 Q 179 -20 203 -15 Q 227 -10 251 -10 Q 279 -10 307.5 -16 Q 336 -22 360 -37.5 Q 384 -53 398.5 -78.5 Q 413 -104 415 -133 L 434 -133 Q 433 -111 425.5 -90.5 Q 418 -70 405 -53 Q 392 -36 374 -24 Q 356 -12 335.5 -4.5 Q 315 3 293.5 5.5 Q 272 8 251 8 Z M 83 -269 L 417 -269 L 417 -320 Q 417 -344 413.5 -368 Q 410 -392 401 -414 Q 392 -436 377 -455 Q 362 -474 341.5 -487 Q 321 -500 297.5 -505 Q 274 -510 250 -510 Q 226 -510 202.5 -505 Q 179 -500 158.5 -487 Q 138 -474 123 -455 Q 108 -436 99 -414 Q 90 -392 86.5 -368 Q 83 -344 83 -320 Z " id="path4"/>
<path d="M 239 0 L 58 -520 L 79 -520 L 200 -173 Q 213 -136 225.5 -99.5 Q 238 -63 250 -25 Q 262 -63 274.5 -99.5 Q 287 -136 300 -173 L 421 -520 L 442 -520 L 261 0 Z " id="path5"/>
<path d="M 418 0 L 394 0 L 176 -273 L 107 -202 L 107 0 L 88 0 L 88 -735 L 107 -735 L 107 -229 L 391 -520 L 418 -520 L 190 -287 Z " id="path6"/>
<path d="M 221 8 Q 190 8 160 0.5 Q 130 -7 107.5 -27 Q 85 -47 74.5 -76.5 Q 64 -106 64 -136 Q 64 -160 71 -183 Q 78 -206 93.5 -224 Q 109 -242 130 -253.5 Q 151 -265 174 -272 Q 197 -279 220.5 -281 Q 244 -283 268 -283 L 409 -283 L 409 -345 Q 409 -366 405 -388 Q 401 -410 391.5 -429.5 Q 382 -449 367 -465 Q 352 -481 332.5 -491.5 Q 313 -502 291.5 -506 Q 270 -510 248 -510 Q 220 -510 192 -504 Q 164 -498 140.5 -482 Q 117 -466 103.5 -440 Q 90 -414 89 -385 L 70 -385 Q 70 -407 76.5 -427.5 Q 83 -448 96 -465.5 Q 109 -483 126.5 -495.5 Q 144 -508 164 -515.5 Q 184 -523 205.5 -525.5 Q 227 -528 248 -528 Q 273 -528 297 -523.5 Q 321 -519 342.5 -508 Q 364 -497 381.5 -479 Q 399 -461 409.5 -439 Q 420 -417 424 -393 Q 428 -369 428 -345 L 428 0 L 409 0 L 409 -102 Q 398 -75 378.5 -53 Q 359 -31 333 -17 Q 307 -3 278.5 2.5 Q 250 8 221 8 Z M 224 -10 Q 248 -10 271.5 -14 Q 295 -18 316.5 -27.5 Q 338 -37 356.5 -52.5 Q 375 -68 387 -88.5 Q 399 -109 404 -132.5 Q 409 -156 409 -180 L 409 -265 L 268 -265 Q 247 -265 225.5 -263.5 Q 204 -262 184 -256 Q 164 -250 145 -240.5 Q 126 -231 111 -215.5 Q 96 -200 89.5 -179.5 Q 83 -159 83 -138 Q 83 -111 93 -85 Q 103 -59 123 -41 Q 143 -23 170 -16.5 Q 197 -10 224 -10 Z " id="path7"/>
</defs>
<g>
<g data-source-text="Iosevka" fill="#dee4e3" transform="translate(180 292.92) rotate(0) scale(0.24000001)">
<use href="#path1" transform="translate(0 0)"/>
<use href="#path2" transform="translate(500 0)"/>
<use href="#path3" transform="translate(1000 0)"/>
<use href="#path4" transform="translate(1500 0)"/>
<use href="#path5" transform="translate(2000 0)"/>
<use href="#path6" transform="translate(2500 0)"/>
<use href="#path7" transform="translate(3000 0)"/>
</g>
</g>
</svg>