<svg xmlns="http://www.w3.org/2000/svg" height="200" viewBox="0 0 1200 200" width="1200"><defs><path d="M 436 -394.00003 L 22 -394.00003 L 22 -429.00003 L -22 -429.00003 L -22 -394.00003 L -147.00002 -394.00003 L -147.00002 -464 L 436 -464 Z M -147.00002 -216 L -147.00002 -286 L -22 -286 L -22 -251.00002 L 22 -251.00002 L 22 -286 L 436 -286 L 436 -216 Z " id="path77"/><path d="M -498 -305.00003 L -498 -375 L 436 -375 L 436 -305.00003 Z " id="path9"/><path d="M -135 -305.00003 L -135 -375 L 436 -375 L 436 -305.00003 Z " id="path15"/><path d="M 275 -147.00002 L 275 -305.00003 L 64 -305.00003 L 64 -375 L 275 -375 L 275 -533 L 353.00003 -533 L 353.00003 -375 L 508.00003 -375 L 508.00003 -305.00003 L 353.00003 -305.00003 L 353.00003 -147.00002 Z " id="path94"/><path d="M 247 8 C 229.66667 8 212 6.1666665 194.00002 2.5000002 C 176 -1.1666665 159.33333 -7.5 144.00002 -16.5 C 128.66666 -25.5 115.166664 -36.833336 103.5 -50.500004 C 91.833336 -64.166664 82.333336 -79.16667 75.00001 -95.50001 C 67.666664 -111.833336 62.666668 -128.83334 60.000004 -146.5 C 57.333332 -164.16667 55.999996 -182 56 -200.00002 L 56 -320.00003 C 55.999996 -338 57.333332 -355.8333 60.000004 -373.5 C 62.666668 -391.1667 67.666664 -408.16666 75.00001 -424.5 C 82.333336 -440.83334 91.833336 -455.83334 103.5 -469.5 C 115.166664 -483.16666 128.66666 -494.50003 144.00002 -503.5 C 159.33333 -512.5 176 -518.8333 194.00002 -522.5 C 212 -526.1666 229.66667 -528 247 -528 C 263.6667 -528 280.33334 -526.5 297.00003 -523.5 C 313.66666 -520.50006 329.5 -515.3334 344.5 -508.00003 C 359.49997 -500.6667 373 -491.1667 385 -479.50003 C 397 -467.83334 407 -454.66666 415 -440.00003 C 423.00003 -425.33334 428.83334 -409.83337 432.50003 -393.50003 C 436.16666 -377.1667 437.99997 -360.6667 438.00003 -344.00003 C 437.99997 -344.00003 437.99997 -343.83337 438.00003 -343.50003 C 437.99997 -343.1667 437.99997 -342.6667 438.00003 -342.00003 L 360.00003 -342.00003 C 360 -342.00003 360 -342.1667 360.00003 -342.50003 C 360 -342.83337 360 -343.00003 360.00003 -343.00003 C 360 -358.33337 357.66666 -373.33334 353.00003 -388.00003 C 348.33334 -402.66666 340.66666 -415.50003 330 -426.50003 C 319.3333 -437.5 306.66666 -445.5 292 -450.50003 C 277.3333 -455.49997 262.3333 -457.99997 247 -458 C 235.66669 -457.99997 224.5 -456.66666 213.50002 -454 C 202.50002 -451.33334 192.33334 -446.6667 183.00002 -440.00003 C 173.66669 -433.33334 165.83334 -425.3333 159.50002 -416.00003 C 153.16667 -406.6667 148 -396.83334 144.00002 -386.5 C 140.00002 -376.1667 137.33334 -365.33334 136 -354.00003 C 134.66667 -342.6667 134 -331.33334 134 -320.00003 L 134 -200.00002 C 134 -188.66667 134.66667 -177.33334 136 -166 C 137.33334 -154.66667 140.00002 -143.83333 144.00002 -133.5 C 148 -123.166664 153.16667 -113.33333 159.50002 -104.00001 C 165.83334 -94.666664 173.66669 -86.666664 183.00002 -80.00001 C 192.33334 -73.333336 202.50002 -68.66667 213.50002 -66 C 224.5 -63.333336 235.66669 -62.000004 247 -62.000004 C 262.3333 -62.000004 277.3333 -64.5 292 -69.5 C 306.66666 -74.5 319.3333 -82.5 330 -93.5 C 340.66666 -104.5 348.33334 -117.333336 353.00003 -132 C 357.66666 -146.66667 360 -161.66667 360.00003 -177.00002 C 360 -177.00002 360 -177.16667 360.00003 -177.50002 C 360 -177.83333 360 -178 360.00003 -178 L 438.00003 -178 C 437.99997 -177.33334 437.99997 -176.83334 438.00003 -176.50002 C 437.99997 -176.16666 437.99997 -176 438.00003 -176 C 437.99997 -159.33333 436.16666 -142.83334 432.50003 -126.50001 C 428.83334 -110.16667 423.00003 -94.666664 415 -80.00001 C 407 -65.333336 397 -52.166664 385 -40.5 C 373 -28.833334 359.49997 -19.333334 344.5 -12 C 329.5 -4.666667 313.66666 0.5000001 297.00003 3.5 C 280.33334 6.4999995 263.6667 8 247 8 Z " id="path90"/><path d="M 64 -305.00003 L 64 -375 L 436 -375 L 436 -305.00003 Z " id="path23"/><path d="M 508.00003 -395.00003 L -72.00001 -395.00003 L -72.00001 -465 L 508.00003 -465 Z M -72.00001 -215 L -72.00001 -285 L 508.00003 -285 L 508.00003 -215 Z " id="path47"/><path d="M 0 -251.00002 C -20.666666 -251.00002 -41.166668 -253.00002 -61.500004 -257.00003 C -81.833336 -261 -101.833336 -265.5 -121.50001 -270.5 C -141.16667 -275.5 -161 -280.49997 -181 -285.50003 C -201 -290.5 -221.16667 -294.5 -241.5 -297.5 C -261.83334 -300.5 -282.33334 -302.5 -303 -303.5 C -323.66666 -304.5 -344.33334 -305 -365.00003 -305.00003 L -365.00003 -375 C -344.33334 -375 -323.66666 -374.66666 -303 -374 C -282.33334 -373.3333 -261.83334 -371.5 -241.5 -368.5 C -221.16667 -365.49997 -201 -361.6667 -181 -357 C -161 -352.3333 -141 -347.50003 -121.00001 -342.50003 C -101.00001 -337.50003 -81 -332.66666 -61 -328.00003 C -41 -323.33334 -20.666666 -321 0 -321 C 9.333333 -321 18.5 -321.5 27.500002 -322.50003 C 36.5 -323.5 45 -326 53 -330 C 61 -334 68.50001 -339 75.5 -345 C 82.5 -351 89.333336 -357 96 -363 L 97.00001 -364 C 97.00001 -364 97.166664 -364.16666 97.5 -364.50003 C 97.833336 -364.8333 98 -365.00003 98 -365.00003 L 99 -366.00003 C 109 -375.3333 119.66667 -384.3333 131 -393.00003 C 142.33333 -401.66666 154.5 -408.83334 167.5 -414.5 C 180.5 -420.16666 194.00002 -424 208.00002 -426 C 221.99998 -428 235.99998 -429 250 -429.00003 C 264 -429 278 -428 292 -426 C 306 -424 319.50003 -420.16666 332.5 -414.5 C 345.5 -408.83334 357.5 -401.66666 368.5 -393.00003 C 379.5 -384.3333 390.33334 -375.3333 401.00003 -366.00003 L 349.00003 -314.00003 C 349.00003 -314 349.00003 -314 349.00003 -314.00003 C 349.00003 -314 348.6667 -314 348.00003 -314.00003 L 347 -315 C 340.3333 -321.66666 333.5 -328 326.5 -334 C 319.5 -340 312 -345.1667 304 -349.50003 C 296 -353.83334 287.3333 -356.5 278 -357.5 C 268.66666 -358.5 259.3333 -359.00003 250 -359.00003 C 240.66667 -359.00003 231.5 -358.5 222.50002 -357.5 C 213.50002 -356.5 205.00002 -353.99997 197.00002 -350 C 189 -346 181.5 -341 174.50002 -335 C 167.5 -329 160.66667 -323 154.00002 -317.00003 L 153 -316 C 152.99998 -316 152.83333 -315.83334 152.50002 -315.5 C 152.16667 -315.16666 152 -315 152 -315 L 151 -314.00003 C 141 -304.66666 130.33333 -295.66666 119 -287 C 107.666664 -278.33334 95.49999 -271.16666 82.5 -265.50003 C 69.5 -259.83334 55.999996 -256 42.000004 -254.00002 C 28.000004 -252 14 -251.00002 0 -251.00002 Z " id="path56"/><path d="M -522 -394.00003 L -583.00006 -394.00003 L -583.00006 -464 L 436 -464 L 436 -394.00003 L 22 -394.00003 L 22 -429.00003 L -22 -429.00003 L -22 -394.00003 L -478.00003 -394.00003 L -478.00003 -429.00003 L -522 -429.00003 Z M -583.00006 -216 L -583.00006 -286 L -522 -286 L -522 -251.00002 L -478.00003 -251.00002 L -478.00003 -286 L -22 -286 L -22 -251.00002 L 22 -251.00002 L 22 -286 L 436 -286 L 436 -216 Z " id="path79"/><path d="M 64 -305.00003 L 64 -375 L 649 -375 L 649 -305.00003 Z " id="path98"/><path d="M -365.00003 -305.00003 L -365.00003 -375 L 508.00003 -375 L 508.00003 -305.00003 Z " id="path19"/><path d="M 211.00002 -147.00002 L 211.00002 -305.00003 L 64 -305.00003 L 64 -375 L 211.00002 -375 L 211.00002 -533 L 289 -533 L 289 -375 L 436 -375 L 436 -305.00003 L 289 -305.00003 L 289 -147.00002 Z " id="path81"/><path d="M 81 -125 L 47.000004 -188.00002 L 356 -340 L 47.000004 -492.00003 L 81 -555 L 436 -379 L 436 -301 Z " id="path11"/><path d="M 880.00006 -395.00003 L 64 -395.00003 L 64 -465 L 880.00006 -465 Z M 64 -215 L 64 -285 L 880.00006 -285 L 880.00006 -215 Z " id="path24"/><path d="M 211.00002 -260.00003 L 211.00002 -735 L 289 -735 L 289 -260.00003 Z M 250 8 C 240.66667 8 231.33334 6.6666665 222.00002 4 C 212.66667 1.3333335 204.66666 -3.5000005 198 -10.500001 C 191.33334 -17.500002 186.66667 -25.5 184 -34.5 C 181.33333 -43.499996 180 -53 180.00002 -63 C 180 -72.333336 181.33333 -81.5 184 -90.5 C 186.66667 -99.5 191.33334 -107.5 198 -114.5 C 204.66666 -121.5 212.66667 -126.33334 222.00002 -129 C 231.33334 -131.66667 240.66667 -133 250 -133 C 259.3333 -133 268.66666 -131.66667 278 -129 C 287.3333 -126.33334 295.3333 -121.5 302 -114.5 C 308.6667 -107.5 313.5 -99.5 316.50003 -90.5 C 319.5 -81.5 321 -72.333336 321 -63 C 321 -53 319.5 -43.499996 316.50003 -34.5 C 313.5 -25.5 308.6667 -17.500002 302 -10.500001 C 295.3333 -3.5000005 287.3333 1.3333335 278 4 C 268.66666 6.6666665 259.3333 8 250 8 Z " id="path22"/><path d="M 160.00002 -206.00002 L 140.00002 -274.00003 L 712 -423.00003 L 140.00002 -572 L 160.00002 -640.00006 L 850 -459 L 850 -387.00003 Z " id="path41"/><path d="M 250 -372.00003 C 239.33334 -372.00003 229.00002 -373.50003 219.00002 -376.50003 C 209 -379.5 200.16667 -384.83334 192.5 -392.5 C 184.83333 -400.1667 179.49998 -409 176.50002 -419 C 173.5 -429 172.00002 -439.33334 172.00002 -450.00003 C 172.00002 -460.66666 173.5 -470.99997 176.50002 -481 C 179.49998 -491.00003 184.83333 -499.83337 192.5 -507.50003 C 200.16667 -515.1667 209 -520.50006 219.00002 -523.5 C 229.00002 -526.5 239.33334 -528 250 -528 C 260.66666 -528 271 -526.5 281 -523.5 C 291 -520.50006 299.8333 -515.1667 307.5 -507.50003 C 315.16666 -499.83337 320.5 -491.00003 323.5 -481 C 326.5 -470.99997 328 -460.66666 328.00003 -450.00003 C 328 -439.33334 326.5 -429 323.5 -419 C 320.5 -409 315.16666 -400.1667 307.5 -392.5 C 299.8333 -384.83334 291 -379.5 281 -376.50003 C 271 -373.50003 260.66666 -372.00003 250 -372.00003 Z M 250 8 C 239.33334 8 229.00002 6.4999995 219.00002 3.5 C 209 0.5000001 200.16667 -4.833334 192.5 -12.500001 C 184.83333 -20.166666 179.49998 -29 176.50002 -39 C 173.5 -49 172.00002 -59.333336 172.00002 -70.00001 C 172.00002 -80.66667 173.5 -91 176.50002 -101.00001 C 179.49998 -110.99999 184.83333 -119.833336 192.5 -127.5 C 200.16667 -135.16666 209 -140.5 219.00002 -143.5 C 229.00002 -146.5 239.33334 -148 250 -148 C 260.66666 -148 271 -146.5 281 -143.5 C 291 -140.5 299.8333 -135.16666 307.5 -127.5 C 315.16666 -119.833336 320.5 -110.99999 323.5 -101.00001 C 326.5 -91 328 -80.66667 328.00003 -70.00001 C 328 -59.333336 326.5 -49 323.5 -39 C 320.5 -29 315.16666 -20.166666 307.5 -12.500001 C 299.8333 -4.833334 291 0.5000001 281 3.5 C 271 6.4999995 260.66666 8 250 8 Z " id="path63"/><path d="M -142 -395.00003 L -142 -465 L 508.00003 -465 L 508.00003 -395.00003 Z M 508.00003 -215 L -142 -215 L -142 -285 L 508.00003 -285 Z " id="path45"/><path d="M 250 -452.00003 C 239.33334 -452 229.00002 -453.5 219.00002 -456.50003 C 209 -459.5 200.16667 -464.83334 192.5 -472.50003 C 184.83333 -480.1667 179.49998 -489.00003 176.50002 -499 C 173.5 -509 172.00002 -519.3334 172.00002 -530 C 172.00002 -540.6667 173.5 -551 176.50002 -561 C 179.49998 -571 184.83333 -579.8334 192.5 -587.50006 C 200.16667 -595.1667 209 -600.5 219.00002 -603.5 C 229.00002 -606.5 239.33334 -608 250 -608 C 260.66666 -608 271 -606.5 281 -603.5 C 291 -600.5 299.8333 -595.1667 307.5 -587.50006 C 315.16666 -579.8334 320.5 -571 323.5 -561 C 326.5 -551 328 -540.6667 328.00003 -530 C 328 -519.3334 326.5 -509 323.5 -499 C 320.5 -489.00003 315.16666 -480.1667 307.5 -472.50003 C 299.8333 -464.83334 291 -459.5 281 -456.50003 C 271 -453.5 260.66666 -452 250 -452.00003 Z M 250 -72.00001 C 239.33334 -72 229.00002 -73.5 219.00002 -76.5 C 209 -79.5 200.16667 -84.83333 192.5 -92.50001 C 184.83333 -100.166664 179.49998 -109 176.50002 -119 C 173.5 -128.99998 172.00002 -139.33333 172.00002 -150.00002 C 172.00002 -160.66667 173.5 -171.00002 176.50002 -181 C 179.49998 -190.99998 184.83333 -199.83334 192.5 -207.5 C 200.16667 -215.16666 209 -220.5 219.00002 -223.5 C 229.00002 -226.5 239.33334 -228.00002 250 -228.00002 C 260.66666 -228.00002 271 -226.5 281 -223.5 C 291 -220.5 299.8333 -215.16666 307.5 -207.5 C 315.16666 -199.83334 320.5 -190.99998 323.5 -181 C 326.5 -171.00002 328 -160.66667 328.00003 -150.00002 C 328 -139.33333 326.5 -128.99998 323.5 -119 C 320.5 -109 315.16666 -100.166664 307.5 -92.50001 C 299.8333 -84.83333 291 -79.5 281 -76.5 C 271 -73.5 260.66666 -72 250 -72.00001 Z " id="path80"/><path d="M 417.00003 153 C 398.33337 152.99998 379.83334 151.83333 361.5 149.5 C 343.16663 147.16666 325.16666 143.16667 307.5 137.5 C 289.83334 131.83334 272.83334 124.16667 256.5 114.5 C 240.16667 104.833336 226 92.83334 214.00002 78.50001 C 202.00002 64.166664 193 48.166664 187 30.5 C 181 12.833334 178 -5.333334 178 -24 C 178 -34.666668 178.66667 -45.000004 180.00002 -55.000004 C 181.33334 -65.00001 183.66667 -74.833336 187 -84.50001 C 190.33333 -94.16667 194.16667 -103.5 198.5 -112.50001 C 202.83334 -121.5 207.33333 -130.5 212 -139.5 C 216.66667 -148.49998 220.5 -158 223.5 -168.00002 C 226.5 -178.00002 228.00002 -188.00002 228.00002 -198 C 228.00002 -209.33333 226.33334 -220.5 223.00002 -231.50002 C 219.66667 -242.50002 214.33333 -252.33333 207 -261 C 199.66667 -269.6667 190.99998 -276.83334 181 -282.50003 C 171.00002 -288.16666 160.66667 -292.66666 150.00002 -296 C 139.33333 -299.3333 128.33333 -301.66666 117.00001 -303 C 105.66667 -304.33334 94.333336 -305 83 -305.00003 L 83 -375 C 94.333336 -375 105.66667 -375.66666 117.00001 -377.00003 C 128.33333 -378.33334 139.33333 -380.66666 150.00002 -384 C 160.66667 -387.3333 171.00002 -391.83334 181 -397.5 C 190.99998 -403.16666 199.66667 -410.3333 207 -419 C 214.33333 -427.6667 219.66667 -437.5 223.00002 -448.5 C 226.33334 -459.5 228.00002 -470.66666 228.00002 -482 C 228.00002 -492 226.5 -502.00003 223.5 -512 C 220.5 -522 216.66667 -531.5 212 -540.5 C 207.33333 -549.5 202.83334 -558.5 198.5 -567.5 C 194.16667 -576.5 190.33333 -585.8333 187 -595.5 C 183.66667 -605.1666 181.33334 -615 180.00002 -625 C 178.66667 -635 178 -645.3334 178 -656.00006 C 178 -674.6667 181 -692.8333 187 -710.5 C 193 -728.1666 202.00002 -744.1666 214.00002 -758.50006 C 226 -772.8333 240.16667 -784.8333 256.5 -794.50006 C 272.83334 -804.1667 289.83334 -811.8333 307.5 -817.50006 C 325.16666 -823.1666 343.16663 -827.1667 361.5 -829.50006 C 379.83334 -831.8334 398.33337 -833.00006 417.00003 -833.00006 L 417.00003 -763.00006 C 405.00003 -763.00006 393.00003 -762.3333 381 -761 C 369 -759.6666 357.16666 -757.3333 345.5 -754.00006 C 333.8333 -750.6666 322.66666 -746.3333 312 -741.00006 C 301.3333 -735.6667 291.6667 -728.8334 283.00003 -720.5 C 274.3333 -712.1666 267.5 -702.3333 262.50003 -691 C 257.49997 -679.6667 254.99998 -668 255 -656.00006 C 254.99998 -645.3334 256.66666 -635.1667 260.00003 -625.5 C 263.33334 -615.8334 267.16666 -606.5 271.50003 -597.5 C 275.83334 -588.49994 280.16666 -579.3333 284.5 -570 C 288.83334 -560.6667 292.66666 -551.1666 296 -541.5 C 299.3333 -531.8334 301.8333 -522 303.5 -512 C 305.16666 -502.00003 305.99997 -492 306 -482 C 305.99997 -465.99997 303.66666 -450.33334 299 -435.00003 C 294.3333 -419.6667 287.16666 -405.6667 277.5 -393.00003 C 267.8333 -380.33334 256.16666 -369.66666 242.50002 -361.00003 C 228.83333 -352.33334 214.66667 -345.33334 200.00002 -340 C 214.66667 -334.66666 228.83333 -327.66666 242.50002 -319.00003 C 256.16666 -310.3333 267.8333 -299.66666 277.5 -287 C 287.16666 -274.3333 294.3333 -260.3333 299 -245.00002 C 303.66666 -229.66667 305.99997 -214 306 -198 C 305.99997 -188.00002 305.16666 -178.00002 303.5 -168.00002 C 301.8333 -158 299.3333 -148.16666 296 -138.50002 C 292.66666 -128.83334 288.83334 -119.33334 284.5 -110.00001 C 280.16666 -100.666664 275.83334 -91.5 271.50003 -82.5 C 267.16666 -73.5 263.33334 -64.166664 260.00003 -54.5 C 256.66666 -44.833332 254.99998 -34.666668 255 -24 C 254.99998 -12 257.49997 -0.33333308 262.50003 11 C 267.5 22.333332 274.3333 32.166664 283.00003 40.5 C 291.6667 48.833332 301.3333 55.666668 312 61 C 322.66666 66.333336 333.8333 70.66667 345.5 74 C 357.16666 77.333336 369 79.666664 381 81 C 393.00003 82.333336 405.00003 83 417.00003 83 Z " id="path51"/><path d="M 500 -251.00002 C 486 -251.00002 471.99997 -252 458 -254.00002 C 444.00003 -256 430.5 -259.83334 417.50003 -265.50003 C 404.50003 -271.16666 392.3333 -278.33334 381 -287 C 369.66666 -295.66666 359.00003 -304.66666 349.00003 -314.00003 L 348.00003 -315 C 348.00003 -315 347.8333 -315.16666 347.50003 -315.5 C 347.16666 -315.83334 346.99997 -316 347 -316 L 346 -317.00003 C 339.33334 -323 332.5 -329 325.50003 -335 C 318.5 -341 311 -346 303 -350 C 295 -353.99997 286.5 -356.5 277.5 -357.5 C 268.49997 -358.5 259.3333 -359.00003 250 -359.00003 C 240.66667 -359.00003 231.33334 -358.5 222.00002 -357.5 C 212.66667 -356.5 204 -353.83334 196 -349.50003 C 188.00002 -345.1667 180.5 -340 173.5 -334 C 166.5 -328 159.66666 -321.66666 153 -315 L 152 -314.00003 C 151.33334 -314 151 -314 151 -314.00003 C 151 -314 151 -314 151 -314.00003 L 99 -366.00003 C 109.66667 -375.3333 120.5 -384.3333 131.50002 -393.00003 C 142.5 -401.66666 154.5 -408.83334 167.5 -414.5 C 180.5 -420.16666 194.00002 -424 208.00002 -426 C 221.99998 -428 235.99998 -429 250 -429.00003 C 264 -429 278 -428 292 -426 C 306 -424 319.50003 -420.16666 332.5 -414.5 C 345.5 -408.83334 357.66666 -401.66666 369 -393.00003 C 380.33334 -384.3333 391 -375.3333 401.00003 -366.00003 L 402 -365.00003 C 402 -365.00003 402.16666 -364.8333 402.5 -364.50003 C 402.8333 -364.16666 402.99997 -364 403 -364 L 404.00003 -363 C 410.6667 -357 417.5 -351 424.5 -345 C 431.5 -339 439.00003 -334 447 -330 C 454.99997 -326 463.5 -323.5 472.50003 -322.50003 C 481.5 -321.5 490.6667 -321 500 -321 C 509.33334 -321 518.6667 -321.5 528 -322.50003 C 537.3334 -323.5 546 -326.16666 554.00006 -330.50003 C 562 -334.8333 569.5 -340 576.50006 -346 C 583.5 -352 590.3333 -358.33337 597 -365.00003 L 598 -366.00003 C 598.6667 -366.00003 599 -366.00003 599.00006 -366.00003 C 599 -366.00003 599 -366.00003 599.00006 -366.00003 L 651.00006 -314.00003 C 640.3333 -304.66666 629.5 -295.66666 618.5 -287 C 607.5 -278.33334 595.5 -271.16666 582.50006 -265.50003 C 569.5 -259.83334 556 -256 542.00006 -254.00002 C 528 -252 514 -251.00002 500 -251.00002 Z " id="path59"/><path d="M 500 -251.00002 C 486 -251.00002 471.99997 -252 458 -254.00002 C 444.00003 -256 430.5 -259.83334 417.50003 -265.50003 C 404.50003 -271.16666 392.3333 -278.33334 381 -287 C 369.66666 -295.66666 359.00003 -304.66666 349.00003 -314.00003 L 348.00003 -315 C 348.00003 -315 347.8333 -315.16666 347.50003 -315.5 C 347.16666 -315.83334 346.99997 -316 347 -316 L 346 -317.00003 C 339.33334 -323 332.5 -329 325.50003 -335 C 318.5 -341 311 -346 303 -350 C 295 -353.99997 286.5 -356.5 277.5 -357.5 C 268.49997 -358.5 259.3333 -359.00003 250 -359.00003 C 240.66667 -359.00003 231.33334 -358.5 222.00002 -357.5 C 212.66667 -356.5 204 -353.83334 196 -349.50003 C 188.00002 -345.1667 180.5 -340 173.5 -334 C 166.5 -328 159.66666 -321.66666 153 -315 L 152 -314.00003 C 151.33334 -314 151 -314 151 -314.00003 C 151 -314 151 -314 151 -314.00003 L 99 -366.00003 C 109.66667 -375.3333 120.5 -384.3333 131.50002 -393.00003 C 142.5 -401.66666 154.5 -408.83334 167.5 -414.5 C 180.5 -420.16666 194.00002 -424 208.00002 -426 C 221.99998 -428 235.99998 -429 250 -429.00003 C 264 -429 278 -428 292 -426 C 306 -424 319.50003 -420.16666 332.5 -414.5 C 345.5 -408.83334 357.66666 -401.66666 369 -393.00003 C 380.33334 -384.3333 391 -375.3333 401.00003 -366.00003 L 402 -365.00003 C 402 -365.00003 402.16666 -364.8333 402.5 -364.50003 C 402.8333 -364.16666 402.99997 -364 403 -364 L 404.00003 -363 C 410.6667 -357 417.5 -351 424.5 -345 C 431.5 -339 439.00003 -334 447 -330 C 454.99997 -326 463.5 -323.5 472.50003 -322.50003 C 481.5 -321.5 490.6667 -321 500 -321 C 520.6666 -321 541 -323.33334 561 -328.00003 C 581 -332.66666 601 -337.50003 621.00006 -342.50003 C 641 -347.50003 661 -352.3333 681 -357 C 701.00006 -361.6667 721.1667 -365.49997 741.5 -368.5 C 761.8334 -371.5 782.3333 -373.3333 803 -374 C 823.6667 -374.66666 844.3334 -375 865.00006 -375 L 865.00006 -305.00003 C 844.3334 -305 823.6667 -304.5 803 -303.5 C 782.3333 -302.5 761.8334 -300.5 741.5 -297.5 C 721.1667 -294.5 701.00006 -290.5 681 -285.50003 C 661 -280.49997 641.1667 -275.5 621.50006 -270.5 C 601.8333 -265.5 581.8333 -261 561.5 -257.00003 C 541.1666 -253.00002 520.6666 -251.00002 500 -251.00002 Z " id="path58"/><path d="M 459 143 L 58 -823.00006 L 140.00002 -823.00006 L 541 143 Z " id="path65"/><path d="M -22 -394.00003 L -436 -394.00003 L -436 -464 L 436 -464 L 436 -394.00003 L 22 -394.00003 L 22 -429.00003 L -22 -429.00003 Z M -436 -216 L -436 -286 L -22 -286 L -22 -251.00002 L 22 -251.00002 L 22 -286 L 436 -286 L 436 -216 Z " id="path73"/><path d="M 64 -395.00003 L 64 -465 L 572 -465 L 572 -395.00003 Z M 64 -215 L 64 -285 L 572 -285 L 572 -215 Z " id="path39"/><path d="M -116 -59.000004 L -151 -122 L 295 -340 L -151 -558 L -116 -621.00006 L 374 -379 L 374 -301 Z " id="path85"/><path d="M 101.00001 161.00002 L 63 100.00001 C 100.33333 78.66667 133.66666 51.666668 163 19 C 192.33333 -13.666666 216.16666 -49.500004 234.50002 -88.50001 C 252.83333 -127.5 265.6667 -168.33334 273 -211.00002 C 280.33334 -253.66667 284 -296.66666 284 -340 C 284 -383.33334 280.33334 -426.33337 273 -469.00003 C 265.6667 -511.66663 252.83333 -552.5 234.50002 -591.5 C 216.16666 -630.5 192.33333 -666.3334 163 -699.00006 C 133.66666 -731.6667 100.33333 -758.6667 63 -780 L 101.00001 -841 C 130.33334 -825 157.5 -806.1667 182.50002 -784.50006 C 207.5 -762.8334 230 -738.8334 250 -712.50006 C 270 -686.1667 287.33334 -658.1667 302 -628.50006 C 316.66666 -598.8333 328.33334 -568 337.00003 -536 C 345.66666 -504 352 -471.66666 356 -439.00003 C 360 -406.3333 362 -373.3333 362 -340 C 362 -306.66666 360 -273.66666 356 -241 C 352 -208.33334 345.66666 -176 337.00003 -144.00002 C 328.33334 -112 316.66666 -81.166664 302 -51.500004 C 287.33334 -21.833336 270 6.166668 250 32.500004 C 230 58.833332 207.5 82.833336 182.50002 104.50001 C 157.5 126.166664 130.33334 145 101.00001 161.00002 Z " id="path93"/><path d="M 642 -395.00003 L 64 -395.00003 L 64 -465 L 642 -465 Z M 64 -215 L 64 -285 L 642 -285 L 642 -215 Z " id="path35"/><path d="M -350 -39 L -350 -109 L 350 -109 L 350 -39 Z " id="path34"/><path d="M -268 -305.00003 L -268 -375 L 436 -375 L 436 -305.00003 Z " id="path17"/><path d="M 64 -305.00003 L 64 -375 L 998 -375 L 998 -305.00003 Z " id="path12"/><path d="M 214.00002 -125 L 180.00002 -188.00002 L 489.00003 -340 L 180.00002 -492.00003 L 214.00002 -555 L 569 -379 L 569 -301 Z " id="path13"/><path d="M 436 -395.00003 L -142 -395.00003 L -142 -465 L 436 -465 Z M -142 -215 L -142 -285 L 436 -285 L 436 -215 Z " id="path29"/><path d="M 840 -206.00002 L 150.00002 -387.00003 L 150.00002 -459 L 840 -640.00006 L 860 -572 L 288.00003 -423.00003 L 860 -274.00003 Z " id="path33"/><path d="M 101.00001 143 L 101.00001 -823.00006 L 417.00003 -823.00006 L 417.00003 -753.00006 L 179 -753.00006 L 179 73 L 417.00003 73 L 417.00003 143 Z " id="path48"/><path d="M 250 -262 C 239.33334 -262 229.00002 -263.5 219.00002 -266.5 C 209 -269.5 200.16667 -274.83334 192.5 -282.50003 C 184.83333 -290.1667 179.49998 -299 176.50002 -309 C 173.5 -319 172.00002 -329.3333 172.00002 -340 C 172.00002 -350.66666 173.5 -361 176.50002 -371.00003 C 179.49998 -381 184.83333 -389.83334 192.5 -397.5 C 200.16667 -405.1667 209 -410.49997 219.00002 -413.5 C 229.00002 -416.50003 239.33334 -418 250 -418.00003 C 260.66666 -418 271 -416.50003 281 -413.5 C 291 -410.49997 299.8333 -405.1667 307.5 -397.5 C 315.16666 -389.83334 320.5 -381 323.5 -371.00003 C 326.5 -361 328 -350.66666 328.00003 -340 C 328 -329.3333 326.5 -319 323.5 -309 C 320.5 -299 315.16666 -290.1667 307.5 -282.50003 C 299.8333 -274.83334 291 -269.5 281 -266.5 C 271 -263.5 260.66666 -262 250 -262 Z " id="path86"/><path d="M 256 -395.00003 L 96 -395.00003 L 104.00001 -399.00003 L 419 -555 L 453 -492.00003 Z M 419 -125 L 241 -213 L 153 -257.00003 L 96 -285 L 256 -285 L 262 -282 L 453 -188.00002 Z " id="path27"/><path d="M 0 -251.00002 C -14 -251.00002 -28.000004 -252 -42.000004 -254.00002 C -55.999996 -256 -69.5 -259.83334 -82.5 -265.50003 C -95.49999 -271.16666 -107.5 -278.33334 -118.50001 -287 C -129.5 -295.66666 -140.33334 -304.66666 -151 -314.00003 L -99 -366.00003 C -99 -366.00003 -99 -366.00003 -99 -366.00003 C -99 -366.00003 -98.66667 -366.00003 -98 -366.00003 L -97.00001 -365.00003 C -90.333336 -358.33337 -83.5 -352 -76.5 -346 C -69.5 -340 -62 -334.8333 -54 -330.50003 C -46 -326.16666 -37.333336 -323.5 -28 -322.50003 C -18.666666 -321.5 -9.333333 -321 0 -321 C 9.333333 -321 18.5 -321.5 27.500002 -322.50003 C 36.5 -323.5 45 -326 53 -330 C 61 -334 68.50001 -339 75.5 -345 C 82.5 -351 89.333336 -357 96 -363 L 97.00001 -364 C 97.00001 -364 97.166664 -364.16666 97.5 -364.50003 C 97.833336 -364.8333 98 -365.00003 98 -365.00003 L 99 -366.00003 C 109 -375.3333 119.66667 -384.3333 131 -393.00003 C 142.33333 -401.66666 154.5 -408.83334 167.5 -414.5 C 180.5 -420.16666 194.00002 -424 208.00002 -426 C 221.99998 -428 235.99998 -429 250 -429.00003 C 264 -429 278 -428 292 -426 C 306 -424 319.50003 -420.16666 332.5 -414.5 C 345.5 -408.83334 357.5 -401.66666 368.5 -393.00003 C 379.5 -384.3333 390.33334 -375.3333 401.00003 -366.00003 L 349.00003 -314.00003 C 349.00003 -314 349.00003 -314 349.00003 -314.00003 C 349.00003 -314 348.6667 -314 348.00003 -314.00003 L 347 -315 C 340.3333 -321.66666 333.5 -328 326.5 -334 C 319.5 -340 312 -345.1667 304 -349.50003 C 296 -353.83334 287.3333 -356.5 278 -357.5 C 268.66666 -358.5 259.3333 -359.00003 250 -359.00003 C 240.66667 -359.00003 231.5 -358.5 222.50002 -357.5 C 213.50002 -356.5 205.00002 -353.99997 197.00002 -350 C 189 -346 181.5 -341 174.50002 -335 C 167.5 -329 160.66667 -323 154.00002 -317.00003 L 153 -316 C 152.99998 -316 152.83333 -315.83334 152.50002 -315.5 C 152.16667 -315.16666 152 -315 152 -315 L 151 -314.00003 C 141 -304.66666 130.33333 -295.66666 119 -287 C 107.666664 -278.33334 95.49999 -271.16666 82.5 -265.50003 C 69.5 -259.83334 55.999996 -256 42.000004 -254.00002 C 28.000004 -252 14 -251.00002 0 -251.00002 Z " id="path57"/><path d="M 158 -150.00002 L 95 -191.00002 L 200.00002 -325.00003 L 38 -372.00003 L 62.000004 -439.00003 L 217.00002 -382.00003 L 211.00002 -551 L 289 -551 L 283.00003 -382.00003 L 438.00003 -439.00003 L 462.00003 -372.00003 L 300.00003 -325.00003 L 405.00003 -191.00002 L 342.00003 -150.00002 L 250 -287 Z " id="path82"/><path d="M 220.00002 -372.00003 C 209.33333 -372.00003 199 -373.50003 189.00002 -376.50003 C 179 -379.5 170.16667 -384.83334 162.50002 -392.5 C 154.83334 -400.1667 149.5 -409 146.5 -419 C 143.5 -429 142 -439.33334 142 -450.00003 C 142 -460.66666 143.5 -470.99997 146.5 -481 C 149.5 -491.00003 154.83334 -499.83337 162.50002 -507.50003 C 170.16667 -515.1667 179 -520.50006 189.00002 -523.5 C 199 -526.5 209.33333 -528 220.00002 -528 C 230.66667 -528 241 -526.5 251.00002 -523.5 C 261 -520.50006 269.83334 -515.1667 277.5 -507.50003 C 285.16666 -499.83337 290.5 -491.00003 293.5 -481 C 296.5 -470.99997 298 -460.66666 298 -450.00003 C 298 -439.33334 296.5 -429 293.5 -419 C 290.5 -409 285.16666 -400.1667 277.5 -392.5 C 269.83334 -384.83334 261 -379.5 251.00002 -376.50003 C 241 -373.50003 230.66667 -372.00003 220.00002 -372.00003 Z M 220.00002 8 C 209.33333 8 199 6.4999995 189.00002 3.5 C 179 0.5000001 170.16667 -4.833334 162.50002 -12.500001 C 154.83334 -20.166666 149.5 -29 146.5 -39 C 143.5 -49 142 -59.333336 142 -70.00001 C 142 -80.66667 143.5 -91 146.5 -101.00001 C 149.5 -110.99999 154.83334 -119.833336 162.50002 -127.5 C 170.16667 -135.16666 179 -140.5 189.00002 -143.5 C 199 -146.5 209.33333 -148 220.00002 -148 C 230.66667 -148 241 -146.5 251.00002 -143.5 C 261 -140.5 269.83334 -135.16666 277.5 -127.5 C 285.16666 -119.833336 290.5 -110.99999 293.5 -101.00001 C 296.5 -91 298 -80.66667 298 -70.00001 C 298 -59.333336 296.5 -49 293.5 -39 C 290.5 -29 285.16666 -20.166666 277.5 -12.500001 C 269.83334 -4.833334 261 0.5000001 251.00002 3.5 C 241 6.4999995 230.66667 8 220.00002 8 Z " id="path61"/><path d="M 147.00002 -147.00002 L 147.00002 -305.00003 L -8 -305.00003 L -8 -375 L 147.00002 -375 L 147.00002 -533 L 225.00002 -533 L 225.00002 -375 L 436 -375 L 436 -305.00003 L 225.00002 -305.00003 L 225.00002 -147.00002 Z " id="path95"/><path d="M 230 -395.00003 L 552 -555 L 586 -492.00003 L 389.00003 -395.00003 Z M 552 -125 L 375 -213 L 230 -285 L 389.00003 -285 L 586 -188.00002 Z " id="path25"/><path d="M 190 -372.00003 C 179.33333 -372.00003 169 -373.50003 159 -376.50003 C 149 -379.5 140.16667 -384.83334 132.5 -392.5 C 124.83333 -400.1667 119.50001 -409 116.5 -419 C 113.5 -429 111.99999 -439.33334 112 -450.00003 C 111.99999 -460.66666 113.5 -470.99997 116.5 -481 C 119.50001 -491.00003 124.83333 -499.83337 132.5 -507.50003 C 140.16667 -515.1667 149 -520.50006 159 -523.5 C 169 -526.5 179.33333 -528 190 -528 C 200.66667 -528 211.00002 -526.5 221 -523.5 C 231 -520.50006 239.83333 -515.1667 247.50002 -507.50003 C 255.16666 -499.83337 260.5 -491.00003 263.5 -481 C 266.5 -470.99997 268 -460.66666 268 -450.00003 C 268 -439.33334 266.5 -429 263.5 -419 C 260.5 -409 255.16666 -400.1667 247.50002 -392.5 C 239.83333 -384.83334 231 -379.5 221 -376.50003 C 211.00002 -373.50003 200.66667 -372.00003 190 -372.00003 Z M 190 8 C 179.33333 8 169 6.4999995 159 3.5 C 149 0.5000001 140.16667 -4.833334 132.5 -12.500001 C 124.83333 -20.166666 119.50001 -29 116.5 -39 C 113.5 -49 111.99999 -59.333336 112 -70.00001 C 111.99999 -80.66667 113.5 -91 116.5 -101.00001 C 119.50001 -110.99999 124.83333 -119.833336 132.5 -127.5 C 140.16667 -135.16666 149 -140.5 159 -143.5 C 169 -146.5 179.33333 -148 190 -148 C 200.66667 -148 211.00002 -146.5 221 -143.5 C 231 -140.5 239.83333 -135.16666 247.50002 -127.5 C 255.16666 -119.833336 260.5 -110.99999 263.5 -101.00001 C 266.5 -91 268 -80.66667 268 -70.00001 C 268 -59.333336 266.5 -49 263.5 -39 C 260.5 -29 255.16666 -20.166666 247.50002 -12.500001 C 239.83333 -4.833334 231 0.5000001 221 3.5 C 211.00002 6.4999995 200.66667 8 190 8 Z " id="path64"/><path d="M 642 -395.00003 L -142 -395.00003 L -142 -465 L 642 -465 Z M -142 -215 L -142 -285 L 642 -285 L 642 -215 Z " id="path44"/><path d="M -52.000004 -125 L -86.00001 -188.00002 L 223.00002 -340 L -86.00001 -492.00003 L -52.000004 -555 L 303 -379 L 303 -301 Z " id="path16"/><path d="M 747 -395.00003 L 64 -395.00003 L 64 -465 L 747 -465 Z M 64 -215 L 64 -285 L 747 -285 L 747 -215 Z " id="path26"/><path d="M 64 -305.00003 L 64 -375 L 865.00006 -375 L 865.00006 -305.00003 Z " id="path10"/><path d="M 83 153 L 83 83 C 95 83 107 82.333336 119 81 C 131 79.666664 142.83334 77.333336 154.5 74 C 166.16667 70.66667 177.33334 66.333336 188.00002 61 C 198.66666 55.666668 208.33334 48.833332 217.00002 40.5 C 225.66667 32.166664 232.5 22.333332 237.50002 11 C 242.5 -0.33333308 245.00002 -12 245.00002 -24 C 245.00002 -34.666668 243.33334 -44.833332 240.00002 -54.5 C 236.66667 -64.166664 232.83333 -73.5 228.50002 -82.5 C 224.16667 -91.5 219.83334 -100.666664 215.5 -110.00001 C 211.16667 -119.33334 207.33333 -128.83334 204 -138.50002 C 200.66667 -148.16666 198.16666 -158 196.50002 -168.00002 C 194.83333 -178.00002 194.00002 -188.00002 194.00002 -198 C 194.00002 -214 196.33333 -229.66667 201 -245.00002 C 205.66667 -260.3333 212.83333 -274.3333 222.50002 -287 C 232.16667 -299.66666 243.83333 -310.3333 257.5 -319.00003 C 271.16666 -327.66666 285.3333 -334.66666 300.00003 -340 C 285.3333 -345.33334 271.16666 -352.33334 257.5 -361.00003 C 243.83333 -369.66666 232.16667 -380.33334 222.50002 -393.00003 C 212.83333 -405.6667 205.66667 -419.6667 201 -435.00003 C 196.33333 -450.33334 194.00002 -465.99997 194.00002 -482 C 194.00002 -492 194.83333 -502.00003 196.50002 -512 C 198.16666 -522 200.66667 -531.8334 204 -541.5 C 207.33333 -551.1666 211.16667 -560.6667 215.5 -570 C 219.83334 -579.3333 224.16667 -588.49994 228.50002 -597.5 C 232.83333 -606.5 236.66667 -615.8334 240.00002 -625.5 C 243.33334 -635.1667 245.00002 -645.3334 245.00002 -656.00006 C 245.00002 -668 242.5 -679.6667 237.50002 -691 C 232.5 -702.3333 225.66667 -712.1666 217.00002 -720.5 C 208.33334 -728.8334 198.66666 -735.6667 188.00002 -741.00006 C 177.33334 -746.3333 166.16667 -750.6666 154.5 -754.00006 C 142.83334 -757.3333 131 -759.6666 119 -761 C 107 -762.3333 95 -763.00006 83 -763.00006 L 83 -833.00006 C 101.66667 -833.00006 120.166664 -831.8334 138.50002 -829.50006 C 156.83333 -827.1667 174.83334 -823.1666 192.5 -817.50006 C 210.16666 -811.8333 227.16666 -804.1667 243.5 -794.50006 C 259.8333 -784.8333 274 -772.8333 286 -758.50006 C 298 -744.1666 307 -728.1666 313 -710.5 C 319.00003 -692.8333 322.00003 -674.6667 322.00003 -656.00006 C 322.00003 -645.3334 321.33334 -635 320.00003 -625 C 318.66666 -615 316.33334 -605.1666 313 -595.5 C 309.6667 -585.8333 305.83334 -576.5 301.5 -567.5 C 297.1667 -558.5 292.6667 -549.5 288.00003 -540.5 C 283.33334 -531.5 279.50003 -522 276.5 -512 C 273.5 -502.00003 272 -492 272 -482 C 272 -470.66666 273.66666 -459.5 277.00003 -448.5 C 280.33334 -437.5 285.6667 -427.6667 293 -419 C 300.33334 -410.3333 309 -403.16666 319.00003 -397.5 C 329 -391.83334 339.3333 -387.3333 350 -384 C 360.6667 -380.66666 371.6667 -378.33334 383.00003 -377.00003 C 394.33337 -375.66666 405.6667 -375 417.00003 -375 L 417.00003 -358 L 417.00003 -305.00003 C 405.6667 -305 394.33337 -304.33334 383.00003 -303 C 371.6667 -301.66666 360.6667 -299.3333 350 -296 C 339.3333 -292.66666 329 -288.16666 319.00003 -282.50003 C 309 -276.83334 300.33334 -269.6667 293 -261 C 285.6667 -252.33333 280.33334 -242.50002 277.00003 -231.50002 C 273.66666 -220.5 272 -209.33333 272 -198 C 272 -188.00002 273.5 -178.00002 276.5 -168.00002 C 279.50003 -158 283.33334 -148.49998 288.00003 -139.5 C 292.6667 -130.5 297.1667 -121.5 301.5 -112.50001 C 305.83334 -103.5 309.6667 -94.16667 313 -84.50001 C 316.33334 -74.833336 318.66666 -65.00001 320.00003 -55.000004 C 321.33334 -45.000004 322.00003 -34.666668 322.00003 -24 C 322.00003 -5.333334 319.00003 12.833334 313 30.5 C 307 48.166664 298 64.166664 286 78.50001 C 274 92.83334 259.8333 104.833336 243.5 114.5 C 227.16666 124.16667 210.16666 131.83334 192.5 137.5 C 174.83334 143.16667 156.83333 147.16666 138.50002 149.5 C 120.166664 151.83333 101.66667 152.99998 83 153 Z " id="path52"/><path d="M 195 77.00001 L 119 61 L 305.00003 -757 L 381 -741.00006 Z " id="path78"/><path d="M 419 -125 L 241 -213 L 64 -301 L 64 -379 L 419 -555 L 453 -492.00003 L 144.00002 -340 L 453 -188.00002 Z " id="path3"/><path d="M 158 -370.00003 L 95 -411.00003 L 200.00002 -545 L 38 -592 L 62.000004 -659 L 217.00002 -602 L 211.00002 -771 L 289 -771 L 283.00003 -602 L 438.00003 -659 L 462.00003 -592 L 300.00003 -545 L 405.00003 -411.00003 L 342.00003 -370.00003 L 250 -507.00003 Z " id="path89"/><path d="M 250 8 C 232 8 214 6.1666665 196 2.5000002 C 178.00002 -1.1666665 161.33334 -7.3333335 146 -16 C 130.66667 -24.666666 116.833336 -35.833332 104.50001 -49.5 C 92.16667 -63.16667 82.333336 -78.16667 75.00001 -94.50001 C 67.666664 -110.83333 62.666668 -127.99999 60.000004 -146 C 57.333332 -164 55.999996 -182 56 -200.00002 L 56 -320.00003 C 55.999996 -338 57.333332 -356 60.000004 -374 C 62.666668 -392 67.666664 -409.16666 75.00001 -425.5 C 82.333336 -441.83334 92.16667 -456.83334 104.50001 -470.5 C 116.833336 -484.1667 130.83333 -495.33337 146.5 -504 C 162.16666 -512.6666 178.83333 -519.3333 196.50002 -524 C 214.16667 -528.6667 232 -531 250 -531.00006 C 268 -531 285.8333 -528.6667 303.5 -524 C 321.16666 -519.3333 337.83334 -512.6666 353.50003 -504 C 369.16672 -495.33337 383.1667 -484.1667 395.5 -470.5 C 407.83334 -456.83334 417.6667 -441.83334 425 -425.5 C 432.3333 -409.16666 437.3333 -392 440.00003 -374 C 442.66666 -356 444.00003 -338 444.00003 -320.00003 L 444.00003 -200.00002 C 444.00003 -182 442.66666 -164 440.00003 -146 C 437.3333 -127.99999 432.3333 -110.83333 425 -94.50001 C 417.6667 -78.16667 407.83334 -63.16667 395.5 -49.5 C 383.1667 -35.833332 369.33334 -24.666666 354.00003 -16 C 338.6667 -7.3333335 322.00003 -1.1666665 304 2.5000002 C 286 6.1666665 268 8 250 8 Z M 250 -62.000004 C 261.33334 -62.000004 272.66666 -63.333336 284 -66 C 295.3333 -68.66667 305.66666 -73.16667 315 -79.5 C 324.3333 -85.833336 332.5 -93.666664 339.5 -103.00001 C 346.5 -112.33334 352 -122.33333 356 -133 C 360 -143.66667 362.66666 -154.66667 364 -166 C 365.33334 -177.33334 366.00003 -188.66667 366.00003 -200.00002 L 366.00003 -320.00003 C 366.00003 -331.33334 365.33334 -342.6667 364 -354.00003 C 362.66666 -365.33334 359.83334 -376.50003 355.50003 -387.50003 C 351.1667 -398.50003 345.66666 -408.66672 339 -418.00003 C 332.3333 -427.33337 324.16666 -435 314.5 -441 C 304.83334 -447 294.33334 -451.33334 283.00003 -454 C 271.66666 -456.66666 260 -457.99997 248.00002 -458 C 236.66667 -457.99997 225.5 -456.5 214.50002 -453.5 C 203.5 -450.5 193.33333 -445.83334 184 -439.50003 C 174.66667 -433.1667 166.66667 -425.3333 160.00002 -416.00003 C 153.33333 -406.6667 148 -396.83334 144.00002 -386.5 C 140.00002 -376.1667 137.33334 -365.33334 136 -354.00003 C 134.66667 -342.6667 134 -331.33334 134 -320.00003 L 134 -200.00002 C 134 -188.66667 134.66667 -177.33334 136 -166 C 137.33334 -154.66667 140.00002 -143.66667 144.00002 -133 C 148 -122.33333 153.5 -112.33334 160.5 -103.00001 C 167.5 -93.666664 175.66666 -85.833336 185.00002 -79.5 C 194.33333 -73.16667 204.66666 -68.66667 216 -66 C 227.33333 -63.333336 238.66666 -62.000004 250 -62.000004 Z " id="path91"/><path d="M 436 -394.00003 L 22 -394.00003 L 22 -429.00003 L -22 -429.00003 L -22 -394.00003 L -83 -394.00003 L -83 -464 L 436 -464 Z M -83 -216 L -83 -286 L -22 -286 L -22 -251.00002 L 22 -251.00002 L 22 -286 L 436 -286 L 436 -216 Z " id="path70"/><path d="M 64 -305.00003 L 64 -375 L 572 -375 L 572 -305.00003 Z " id="path14"/><path d="M 48 0 L 48 -520.00006 L 126 -520.00006 L 126 -478.00003 C 129.33334 -485.33334 133.33334 -492.16666 138 -498.5 C 142.66667 -504.8333 148.16667 -510.3333 154.5 -515 C 160.83333 -519.6666 167.83333 -523 175.5 -525.00006 C 183.16667 -526.99994 190.99998 -528 199 -528 C 209 -528 218.66667 -526.3333 228.00002 -523 C 237.33334 -519.6666 245.5 -514.6666 252.5 -508.00003 C 259.5 -501.33334 265.33334 -493.66666 270 -485.00003 C 274.6667 -476.3333 278.33334 -467.00003 281 -457.00003 C 283.6667 -466.3333 287.33334 -475.5 292 -484.50003 C 296.66666 -493.5 302.33334 -501.33334 309 -508.00003 C 315.66666 -514.6666 323.66666 -519.6666 333 -523 C 342.3333 -526.3333 352 -528 362 -528 C 372 -528 381.8333 -526.1666 391.5 -522.5 C 401.1667 -518.8333 409.66666 -513.5 417.00003 -506.50003 C 424.33334 -499.5 430.16666 -491.33334 434.50003 -482 C 438.83334 -472.6667 442.3333 -463.1667 445.00003 -453.5 C 447.66666 -443.8333 449.50003 -434 450.50003 -424 C 451.50003 -414 452 -404.00003 452.00003 -394.00003 L 452.00003 0 L 374 0 L 374 -394.00003 C 374 -401.33334 373.5 -408.5 372.50003 -415.50003 C 371.50003 -422.5 369.33334 -429.3333 366.00003 -436 C 362.6667 -442.66666 357.83334 -448 351.5 -452.00003 C 345.16666 -455.99997 338.33334 -457.99997 331.00003 -458 C 324.33334 -457.99997 317.83334 -455.99997 311.5 -452.00003 C 305.16666 -448 300.33334 -442.66666 297.00003 -436 C 293.66666 -429.3333 291.49997 -422.5 290.5 -415.50003 C 289.5 -408.5 289 -401.33334 289 -394.00003 L 289 0 L 211.00002 0 L 211.00002 -394.00003 C 211.00002 -401.33334 210.50002 -408.5 209.5 -415.50003 C 208.5 -422.5 206.33333 -429.3333 203.00002 -436 C 199.66667 -442.66666 194.83333 -448 188.50002 -452.00003 C 182.16666 -455.99997 175.66667 -457.99997 169.00002 -458 C 161.66667 -457.99997 154.83334 -455.99997 148.50002 -452.00003 C 142.16666 -448 137.33333 -442.66666 134 -436 C 130.66667 -429.3333 128.5 -422.5 127.5 -415.50003 C 126.49999 -408.5 125.99999 -401.33334 126 -394.00003 L 126 0 Z " id="path92"/><path d="M -149 -305.00003 L -149 -375 L 436 -375 L 436 -305.00003 Z " id="path97"/><path d="M 445.00003 77.00001 L 369 61 L 555 -757 L 631 -741.00006 Z " id="path72"/><path d="M -8 -395.00003 L -8 -465 L 642 -465 L 642 -395.00003 Z M -8 -215 L -8 -285 L 642 -285 L 642 -215 Z " id="path46"/><path d="M 64 -305.00003 L 64 -375 L 768 -375 L 768 -305.00003 Z " id="path1"/><path d="M 197.00002 -117.00001 L 197.00002 -285 L 275 -285 L 275 -234.00002 L 490.00003 -340 L 275 -446.00003 L 275 -395.00003 L 197.00002 -395.00003 L 197.00002 -563 L 569 -379 L 569 -301 Z " id="path38"/><path d="M 270 -395.00003 L 111.00001 -395.00003 L -86.00001 -492.00003 L -52.000004 -555 Z M -52.000004 -125 L -86.00001 -188.00002 L 68 -264 L 111.00001 -285 L 270 -285 L 66 -184 Z " id="path42"/><path d="M 64 -395.00003 L 64 -465 L 775.00006 -465 L 775.00006 -395.00003 Z M 64 -215 L 64 -285 L 775.00006 -285 L 775.00006 -215 Z " id="path37"/><path d="M -365.00003 -305.00003 L -365.00003 -375 L 436 -375 L 436 -305.00003 Z " id="path6"/><path d="M -365.00003 -305.00003 L -365.00003 -375 L 865.00006 -375 L 865.00006 -305.00003 Z " id="path18"/><path d="M 360.00003 143 L -41.000004 -823.00006 L 41.000004 -823.00006 L 442 143 Z " id="path68"/><path d="M 552 -125 L 374 -213 L 197.00002 -301 L 197.00002 -379 L 552 -555 L 586 -492.00003 L 277.00003 -340 L 586 -188.00002 Z " id="path2"/><path d="M 322.00003 -199 C 318 -199 313.8333 -199.33334 309.5 -200.00002 C 305.16666 -200.66667 301.16666 -201.5 297.5 -202.50002 C 293.8333 -203.5 290.16666 -204.99998 286.5 -207 C 282.83334 -209 279.16666 -210.99998 275.5 -213 C 271.83334 -215 268.6667 -217.16667 266 -219.50002 C 263.33334 -221.83333 260.33334 -224.5 257.00003 -227.50002 C 253.66667 -230.49998 250.66667 -233.66667 248.00002 -237.00002 C 245.33334 -240.33333 242.66667 -243.5 240.00002 -246.5 C 237.33334 -249.5 234.66667 -252.66669 232 -256 C 229.33333 -259.33334 226.83333 -262.5 224.5 -265.50003 C 222.16667 -268.5 219.83334 -271.83334 217.50002 -275.5 C 215.16667 -279.16666 212.5 -282.83334 209.5 -286.5 C 206.5 -290.16666 203.83334 -293.66666 201.5 -297.00003 C 199.16666 -300.33334 196.83334 -303.33334 194.50002 -306 C 192.16667 -308.66666 189.00002 -311.66666 185.00002 -315 C 181 -318.33334 178.66667 -320.33334 178 -321 C 178 -320.33334 176.50002 -319.16666 173.5 -317.5 C 170.5 -315.8333 167.83333 -313.8333 165.50002 -311.5 C 163.16667 -309.1667 161 -306.6667 159 -304 C 157 -301.33334 155.33333 -299.33334 154.00002 -298 C 152.66667 -296.66666 151.33334 -295.16666 150.00002 -293.5 C 148.66667 -291.83334 147.33333 -290 146 -288.00003 C 144.66667 -286.00003 143.33334 -284 142 -282 C 140.66667 -280 139.33334 -277.83334 138 -275.5 C 136.66667 -273.16666 135.16667 -270.83334 133.5 -268.50003 C 131.83334 -266.1667 130.33334 -263.6667 129 -261 C 127.666664 -258.33334 126.166664 -255.5 124.5 -252.5 C 122.833336 -249.5 121.16667 -246.5 119.50001 -243.5 C 117.83334 -240.5 116.16667 -237.5 114.5 -234.50002 C 112.83333 -231.5 111.16666 -228.16667 109.50001 -224.5 C 107.83333 -220.83333 106.166664 -217.33333 104.50001 -214.00002 C 102.833336 -210.66666 100.99999 -207 99 -203.00002 L 29 -232 C 35.666664 -247.33331 42.333336 -261.16666 49 -273.5 C 55.666668 -285.8333 62.166668 -296.99997 68.50001 -307 C 74.833336 -317 81.166664 -326.33334 87.5 -335 C 93.83333 -343.6667 101.66667 -352.33334 111.00001 -361.00003 C 120.333336 -369.66666 130.66667 -376.83334 142 -382.50003 C 153.33333 -388.1667 165.33333 -391 178 -391 C 182 -391 186.16667 -390.66666 190.5 -390 C 194.83334 -389.33334 198.83336 -388.33334 202.50002 -387.00003 C 206.16667 -385.66666 209.83333 -384.16666 213.50002 -382.50003 C 217.16667 -380.8333 220.83333 -378.8333 224.5 -376.50003 C 228.16667 -374.16666 231.33334 -371.83334 234.00002 -369.5 C 236.66667 -367.1667 239.66667 -364.50003 243.00002 -361.5 C 246.33334 -358.49997 249.33334 -355.5 252 -352.5 C 254.66666 -349.50003 257.3333 -346.33334 260.00003 -343.00003 C 262.66666 -339.6667 265.3333 -336.50003 268 -333.5 C 270.66666 -330.49997 273.16666 -327.3333 275.5 -324 C 277.83334 -320.66666 280.1667 -317.33334 282.50003 -314.00003 C 284.83334 -310.66666 287.5 -307.16666 290.5 -303.5 C 293.5 -299.8333 296.16666 -296.3333 298.5 -293 C 300.83334 -289.66666 303.1667 -286.6667 305.50003 -284 C 307.83334 -281.33334 310.83334 -278.5 314.5 -275.5 C 318.16666 -272.5 320.6667 -270.33334 322.00003 -269 C 322.00003 -268.99997 323.5 -270 326.5 -272 C 329.5 -274 332.1667 -276 334.5 -278 C 336.83334 -280 339 -282.33334 341 -285 C 343.00003 -287.66666 344.6667 -289.83334 346 -291.50003 C 347.33337 -293.1667 348.6667 -294.83334 350 -296.50003 C 351.3333 -298.1667 352.66666 -299.83334 354.00003 -301.5 C 355.33334 -303.1667 356.66666 -305.16666 358 -307.5 C 359.3333 -309.83334 360.6667 -312 362 -314.00003 C 363.3333 -316 364.83337 -318.33334 366.50003 -321 C 368.1667 -323.66666 369.66666 -326.33334 371.00003 -329 C 372.33334 -331.66666 373.83334 -334.33334 375.5 -337.00003 C 377.1667 -339.6667 378.83334 -342.49997 380.5 -345.5 C 382.1667 -348.49997 383.83334 -351.66666 385.5 -355.00003 C 387.16666 -358.33337 388.83334 -361.6667 390.5 -365.00003 C 392.16666 -368.33334 393.83334 -371.83334 395.5 -375.5 C 397.16666 -379.1667 399.00003 -383 401.00003 -387.00003 L 471 -357 C 464.3333 -342.3333 457.66666 -328.66666 451.00003 -316 C 444.33334 -303.33334 437.8333 -292 431.5 -282 C 425.1667 -272 418.83334 -262.83334 412.5 -254.50002 C 406.16666 -246.16667 398.3333 -237.66666 389.00003 -229 C 379.66666 -220.33334 369.3333 -213.16669 358 -207.5 C 346.66666 -201.83333 334.66666 -199 322.00003 -199 Z " id="path74"/><path d="M 436 -395.00003 L -72.00001 -395.00003 L -72.00001 -465 L 436 -465 Z M -72.00001 -215 L -72.00001 -285 L 436 -285 L 436 -215 Z " id="path30"/><path d="M 64 -394.00003 L 64 -464 L 436 -464 L 436 -394.00003 Z M 64 -216 L 64 -286 L 436 -286 L 436 -216 Z " id="path71"/><path d="M 303 -117.00001 L -69 -301 L -69 -379 L 303 -563 L 303 -395.00003 L 225.00002 -395.00003 L 225.00002 -446.00003 L 10.000001 -340 L 225.00002 -234.00002 L 225.00002 -285 L 303 -285 Z " id="path31"/><path d="M 211.00002 -20.000002 L 211.00002 -660 L 289 -660 L 289 -20.000002 Z " id="path84"/><path d="M 64 70.00001 L 64 0 L 436 0 L 436 70.00001 Z " id="path87"/><path d="M -41.000004 143 L 360.00003 -823.00006 L 442 -823.00006 L 41.000004 143 Z " id="path66"/><path d="M 211.00002 143 L 211.00002 -823.00006 L 289 -823.00006 L 289 143 Z " id="path49"/><path d="M 286 -125 L 108 -213 L -69 -301 L -69 -379 L 286 -555 L 320.00003 -492.00003 L 11 -340 L 320.00003 -188.00002 Z " id="path8"/><path d="M 436 -117.00001 L 64 -301 L 64 -379 L 436 -563 L 436 -395.00003 L 358 -395.00003 L 358 -446.00003 L 143 -340 L 358 -234.00002 L 358 -285 L 436 -285 Z " id="path28"/><path d="M 436 -395.00003 L -275 -395.00003 L -275 -465 L 436 -465 Z M -275 -215 L -275 -285 L 436 -285 L 436 -215 Z " id="path32"/><path d="M 310 -372.00003 C 299.33334 -372.00003 289 -373.50003 279 -376.50003 C 268.99997 -379.5 260.16666 -384.83334 252.5 -392.5 C 244.83331 -400.1667 239.5 -409 236.50002 -419 C 233.49998 -429 232 -439.33334 232 -450.00003 C 232 -460.66666 233.49998 -470.99997 236.50002 -481 C 239.5 -491.00003 244.83331 -499.83337 252.5 -507.50003 C 260.16666 -515.1667 268.99997 -520.50006 279 -523.5 C 289 -526.5 299.33334 -528 310 -528 C 320.66666 -528 331 -526.5 341 -523.5 C 351 -520.50006 359.83334 -515.1667 367.5 -507.50003 C 375.16666 -499.83337 380.5 -491.00003 383.50003 -481 C 386.5 -470.99997 388.00003 -460.66666 388.00003 -450.00003 C 388.00003 -439.33334 386.5 -429 383.50003 -419 C 380.5 -409 375.16666 -400.1667 367.5 -392.5 C 359.83334 -384.83334 351 -379.5 341 -376.50003 C 331 -373.50003 320.66666 -372.00003 310 -372.00003 Z M 310 8 C 299.33334 8 289 6.4999995 279 3.5 C 268.99997 0.5000001 260.16666 -4.833334 252.5 -12.500001 C 244.83331 -20.166666 239.5 -29 236.50002 -39 C 233.49998 -49 232 -59.333336 232 -70.00001 C 232 -80.66667 233.49998 -91 236.50002 -101.00001 C 239.5 -110.99999 244.83331 -119.833336 252.5 -127.5 C 260.16666 -135.16666 268.99997 -140.5 279 -143.5 C 289 -146.5 299.33334 -148 310 -148 C 320.66666 -148 331 -146.5 341 -143.5 C 351 -140.5 359.83334 -135.16666 367.5 -127.5 C 375.16666 -119.833336 380.5 -110.99999 383.50003 -101.00001 C 386.5 -91 388.00003 -80.66667 388.00003 -70.00001 C 388.00003 -59.333336 386.5 -49 383.50003 -39 C 380.5 -29 375.16666 -20.166666 367.5 -12.500001 C 359.83334 -4.833334 351 0.5000001 341 3.5 C 331 6.4999995 320.66666 8 310 8 Z " id="path62"/><path d="M 280.00003 -372.00003 C 269.33334 -372.00003 259 -373.50003 249 -376.50003 C 239.00002 -379.5 230.16669 -384.83334 222.50002 -392.5 C 214.83334 -400.1667 209.5 -409 206.5 -419 C 203.5 -429 202.00002 -439.33334 202.00002 -450.00003 C 202.00002 -460.66666 203.5 -470.99997 206.5 -481 C 209.5 -491.00003 214.83334 -499.83337 222.50002 -507.50003 C 230.16669 -515.1667 239.00002 -520.50006 249 -523.5 C 259 -526.5 269.33334 -528 280.00003 -528 C 290.66666 -528 301 -526.5 311.00003 -523.5 C 321 -520.50006 329.83334 -515.1667 337.50003 -507.50003 C 345.1667 -499.83337 350.50003 -491.00003 353.50003 -481 C 356.5 -470.99997 358 -460.66666 358 -450.00003 C 358 -439.33334 356.5 -429 353.50003 -419 C 350.50003 -409 345.1667 -400.1667 337.50003 -392.5 C 329.83334 -384.83334 321 -379.5 311.00003 -376.50003 C 301 -373.50003 290.66666 -372.00003 280.00003 -372.00003 Z M 280.00003 8 C 269.33334 8 259 6.4999995 249 3.5 C 239.00002 0.5000001 230.16669 -4.833334 222.50002 -12.500001 C 214.83334 -20.166666 209.5 -29 206.5 -39 C 203.5 -49 202.00002 -59.333336 202.00002 -70.00001 C 202.00002 -80.66667 203.5 -91 206.5 -101.00001 C 209.5 -110.99999 214.83334 -119.833336 222.50002 -127.5 C 230.16669 -135.16666 239.00002 -140.5 249 -143.5 C 259 -146.5 269.33334 -148 280.00003 -148 C 290.66666 -148 301 -146.5 311.00003 -143.5 C 321 -140.5 329.83334 -135.16666 337.50003 -127.5 C 345.1667 -119.833336 350.50003 -110.99999 353.50003 -101.00001 C 356.5 -91 358 -80.66667 358 -70.00001 C 358 -59.333336 356.5 -49 353.50003 -39 C 350.50003 -29 345.1667 -20.166666 337.50003 -12.500001 C 329.83334 -4.833334 321 0.5000001 311.00003 3.5 C 301 6.4999995 290.66666 8 280.00003 8 Z " id="path60"/><path d="M -247 -395.00003 L -247 -465 L 642 -465 L 642 -395.00003 Z M -247 -215 L -247 -285 L 642 -285 L 642 -215 Z " id="path55"/><path d="M 436 -395.00003 L -380 -395.00003 L -380 -465 L 436 -465 Z M -380 -215 L -380 -285 L 436 -285 L 436 -215 Z " id="path43"/><path d="M 583.00006 -394.00003 L 522 -394.00003 L 522 -429.00003 L 478.00003 -429.00003 L 478.00003 -394.00003 L 64 -394.00003 L 64 -464 L 583.00006 -464 Z M 583.00006 -216 L 64 -216 L 64 -286 L 478.00003 -286 L 478.00003 -251.00002 L 522 -251.00002 L 522 -286 L 583.00006 -286 Z " id="path69"/><path d="M 64 -305.00003 L 64 -375 L 635 -375 L 635 -305.00003 Z " id="path5"/><path d="M 83 143 L 83 73 L 321 73 L 321 -753.00006 L 83 -753.00006 L 83 -823.00006 L 399.00003 -823.00006 L 399.00003 143 Z " id="path50"/><path d="M 747 -395.00003 L -142 -395.00003 L -142 -465 L 747 -465 Z M -142 -215 L -142 -285 L 747 -285 L 747 -215 Z " id="path53"/><path d="M 616.00006 -59.000004 L 371.00003 -180.00002 L 126 -301 L 126 -379 L 616.00006 -621.00006 L 651.00006 -558 L 205.00002 -340 L 651.00006 -122 Z " id="path83"/><path d="M -72.00001 -305.00003 L -72.00001 -375 L 436 -375 L 436 -305.00003 Z " id="path7"/><path d="M 399.00003 161.00002 C 369.66666 145 342.49997 126.166664 317.5 104.50001 C 292.5 82.833336 270 58.833332 250 32.500004 C 230 6.166668 212.66667 -21.833336 198 -51.500004 C 183.33333 -81.166664 171.66667 -112 163 -144.00002 C 154.33334 -176 148 -208.33334 144.00002 -241 C 140.00002 -273.66666 138 -306.66666 138 -340 C 138 -373.3333 140.00002 -406.3333 144.00002 -439.00003 C 148 -471.66666 154.33334 -504 163 -536 C 171.66667 -568 183.33333 -598.8333 198 -628.50006 C 212.66667 -658.1667 230 -686.1667 250 -712.50006 C 270 -738.8334 292.5 -762.8334 317.5 -784.50006 C 342.49997 -806.1667 369.66666 -825 399.00003 -841 L 437 -780 C 399.6667 -758.6667 366.33334 -731.6667 337.00003 -699.00006 C 307.66666 -666.3334 283.83334 -630.5 265.50003 -591.5 C 247.16666 -552.5 234.33333 -511.66663 227 -469.00003 C 219.66667 -426.33337 216 -383.33334 216 -340 C 216 -296.66666 219.66667 -253.66667 227 -211.00002 C 234.33333 -168.33334 247.16666 -127.5 265.50003 -88.50001 C 283.83334 -49.500004 307.66666 -13.666666 337.00003 19 C 366.33334 51.666668 399.6667 78.66667 437 100.00001 Z " id="path88"/><path d="M -8 -305.00003 L -8 -375 L 865.00006 -375 L 865.00006 -305.00003 Z " id="path20"/><path d="M 64 -117.00001 L 64 -285 L 142 -285 L 142 -234.00002 L 357 -340 L 142 -446.00003 L 142 -395.00003 L 64 -395.00003 L 64 -563 L 436 -379 L 436 -301 Z " id="path36"/><path d="M 58 143 L 459 -823.00006 L 541 -823.00006 L 140.00002 143 Z " id="path67"/><path d="" id="path4"/><path d="M -72.00001 -305.00003 L -72.00001 -375 L 508.00003 -375 L 508.00003 -305.00003 Z " id="path21"/><path d="M 436 -395.00003 L -247 -395.00003 L -247 -465 L 436 -465 Z M -247 -215 L -247 -285 L 436 -285 L 436 -215 Z " id="path40"/><path d="M 404.00003 -395.00003 L 244 -395.00003 L 47.000004 -492.00003 L 81 -555 Z M 81 -125 L 47.000004 -188.00002 L 244 -285 L 404.00003 -285 L 152 -161.00002 Z " id="path54"/><path d="M 0 -116 L -80.00001 -156 L 295 -340 L -80.00001 -524 L 0 -564 L 374 -379 L 374 -301 Z " id="path76"/><path d="M 211.00002 -147.00002 L 211.00002 -305.00003 L -8 -305.00003 L -8 -375 L 211.00002 -375 L 211.00002 -533 L 289 -533 L 289 -375 L 508.00003 -375 L 508.00003 -305.00003 L 289 -305.00003 L 289 -147.00002 Z " id="path96"/><path d="M 500 -116 L 371.00003 -180.00002 L 126 -301 L 126 -379 L 500 -564 L 580 -524 L 205.00002 -340 L 580 -156 Z " id="path75"/></defs><g><g fill="#ffffff" transform="translate(114 48.208) rotate(0)"><use href="#path1" transform="translate(0 0) scale(0.023999998)"/><use href="#path2" transform="translate(12 0) scale(0.023999998)"/><use href="#path3" transform="translate(24 0) scale(0.023999998)"/></g><g fill="#ffffff" transform="translate(150 48.208) rotate(0)"><use href="#path4" transform="translate(0 0) scale(0.023999998)"/></g><g fill="#ffffff" transform="translate(162 48.208) rotate(0)"><use href="#path5" transform="translate(0 0) scale(0.023999998)"/><use href="#path3" transform="translate(12 0) scale(0.023999998)"/></g><g fill="#ffffff" transform="translate(186 48.208) rotate(0)"><use href="#path4" transform="translate(0 0) scale(0.023999998)"/></g><g fill="#ffffff" transform="translate(198 48.208) rotate(0)"><use href="#path5" transform="translate(0 0) scale(0.023999998)"/><use href="#path3" transform="translate(12 0) scale(0.023999998)"/><use href="#path6" transform="translate(24 0) scale(0.023999998)"/></g><g fill="#ffffff" transform="translate(234 48.208) rotate(0)"><use href="#path4" transform="translate(0 0) scale(0.023999998)"/></g><g fill="#ffffff" transform="translate(246 48.208) rotate(0)"><use href="#path3" transform="translate(0 0) scale(0.023999998)"/><use href="#path6" transform="translate(12 0) scale(0.023999998)"/><use href="#path7" transform="translate(24 0) scale(0.023999998)"/></g><g fill="#ffffff" transform="translate(282 48.208) rotate(0)"><use href="#path4" transform="translate(0 0) scale(0.023999998)"/></g><g fill="#ffffff" transform="translate(294 48.208) rotate(0)"><use href="#path3" transform="translate(0 0) scale(0.023999998)"/><use href="#path6" transform="translate(12 0) scale(0.023999998)"/><use href="#path7" transform="translate(24 0) scale(0.023999998)"/><use href="#path7" transform="translate(36 0) scale(0.023999998)"/></g><g fill="#ffffff" transform="translate(342 48.208) rotate(0)"><use href="#path4" transform="translate(0 0) scale(0.023999998)"/></g><g fill="#ffffff" transform="translate(354 48.208) rotate(0)"><use href="#path3" transform="translate(0 0) scale(0.023999998)"/><use href="#path8" transform="translate(12 0) scale(0.023999998)"/><use href="#path9" transform="translate(24 0) scale(0.023999998)"/></g><g fill="#ffffff" transform="translate(390 48.208) rotate(0)"><use href="#path4" transform="translate(0 0) scale(0.023999998)"/></g><g fill="#ffffff" transform="translate(402 48.208) rotate(0)"><use href="#path3" transform="translate(0 0) scale(0.023999998)"/><use href="#path6" transform="translate(12 0) scale(0.023999998)"/></g><g fill="#ffffff" transform="translate(426 48.208) rotate(0)"><use href="#path4" transform="translate(0 0) scale(0.023999998)"/></g><g fill="#ffffff" transform="translate(438 48.208) rotate(0)"><use href="#path10" transform="translate(0 0) scale(0.023999998)"/><use href="#path11" transform="translate(12 0) scale(0.023999998)"/></g><g fill="#ffffff" transform="translate(462 48.208) rotate(0)"><use href="#path4" transform="translate(0 0) scale(0.023999998)"/></g><g fill="#ffffff" transform="translate(474 48.208) rotate(0)"><use href="#path12" transform="translate(0 0) scale(0.023999998)"/><use href="#path13" transform="translate(12 0) scale(0.023999998)"/><use href="#path11" transform="translate(24 0) scale(0.023999998)"/></g><g fill="#ffffff" transform="translate(510 48.208) rotate(0)"><use href="#path4" transform="translate(0 0) scale(0.023999998)"/></g><g fill="#ffffff" transform="translate(522 48.208) rotate(0)"><use href="#path14" transform="translate(0 0) scale(0.023999998)"/><use href="#path10" transform="translate(12 0) scale(0.023999998)"/><use href="#path11" transform="translate(24 0) scale(0.023999998)"/></g><g fill="#ffffff" transform="translate(558 48.208) rotate(0)"><use href="#path4" transform="translate(0 0) scale(0.023999998)"/></g><g fill="#ffffff" transform="translate(570 48.208) rotate(0)"><use href="#path14" transform="translate(0 0) scale(0.023999998)"/><use href="#path14" transform="translate(12 0) scale(0.023999998)"/><use href="#path10" transform="translate(24 0) scale(0.023999998)"/><use href="#path11" transform="translate(36 0) scale(0.023999998)"/></g><g fill="#ffffff" transform="translate(618 48.208) rotate(0)"><use href="#path4" transform="translate(0 0) scale(0.023999998)"/></g><g fill="#ffffff" transform="translate(630 48.208) rotate(0)"><use href="#path10" transform="translate(0 0) scale(0.023999998)"/><use href="#path11" transform="translate(12 0) scale(0.023999998)"/><use href="#path15" transform="translate(24 0) scale(0.023999998)"/></g><g fill="#ffffff" transform="translate(666 48.208) rotate(0)"><use href="#path4" transform="translate(0 0) scale(0.023999998)"/></g><g fill="#ffffff" transform="translate(678 48.208) rotate(0)"><use href="#path11" transform="translate(0 0) scale(0.023999998)"/><use href="#path15" transform="translate(12 0) scale(0.023999998)"/></g><g fill="#ffffff" transform="translate(702 48.208) rotate(0)"><use href="#path4" transform="translate(0 0) scale(0.023999998)"/></g><g fill="#ffffff" transform="translate(714 48.208) rotate(0)"><use href="#path11" transform="translate(0 0) scale(0.023999998)"/><use href="#path16" transform="translate(12 0) scale(0.023999998)"/><use href="#path17" transform="translate(24 0) scale(0.023999998)"/></g><g fill="#ffffff" transform="translate(750 48.208) rotate(0)"><use href="#path4" transform="translate(0 0) scale(0.023999998)"/></g><g fill="#ffffff" transform="translate(762 48.208) rotate(0)"><use href="#path3" transform="translate(0 0) scale(0.023999998)"/><use href="#path18" transform="translate(12 0) scale(0.023999998)"/><use href="#path11" transform="translate(24 0) scale(0.023999998)"/></g><g fill="#ffffff" transform="translate(798 48.208) rotate(0)"><use href="#path4" transform="translate(0 0) scale(0.023999998)"/></g><g fill="#ffffff" transform="translate(810 48.208) rotate(0)"><use href="#path3" transform="translate(0 0) scale(0.023999998)"/><use href="#path19" transform="translate(12 0) scale(0.023999998)"/><use href="#path20" transform="translate(24 0) scale(0.023999998)"/><use href="#path11" transform="translate(36 0) scale(0.023999998)"/></g><g fill="#ffffff" transform="translate(858 48.208) rotate(0)"><use href="#path4" transform="translate(0 0) scale(0.023999998)"/></g><g fill="#ffffff" transform="translate(870 48.208) rotate(0)"><use href="#path3" transform="translate(0 0) scale(0.023999998)"/><use href="#path6" transform="translate(12 0) scale(0.023999998)"/><use href="#path21" transform="translate(24 0) scale(0.023999998)"/><use href="#path20" transform="translate(36 0) scale(0.023999998)"/><use href="#path11" transform="translate(48 0) scale(0.023999998)"/></g><g fill="#ffffff" transform="translate(930 48.208) rotate(0)"><use href="#path4" transform="translate(0 0) scale(0.023999998)"/></g><g fill="#ffffff" transform="translate(942 48.208) rotate(0)"><use href="#path3" transform="translate(0 0) scale(0.023999998)"/><use href="#path6" transform="translate(12 0) scale(0.023999998)"/><use href="#path7" transform="translate(24 0) scale(0.023999998)"/><use href="#path21" transform="translate(36 0) scale(0.023999998)"/><use href="#path20" transform="translate(48 0) scale(0.023999998)"/><use href="#path11" transform="translate(60 0) scale(0.023999998)"/></g><g fill="#ffffff" transform="translate(1014 48.208) rotate(0)"><use href="#path4" transform="translate(0 0) scale(0.023999998)"/></g><g fill="#ffffff40" transform="translate(1026 48.208) rotate(0)"><use href="#path3" transform="translate(0 0) scale(0.023999998)"/><use href="#path22" transform="translate(12 0) scale(0.023999998)"/><use href="#path23" transform="translate(24 0) scale(0.023999998)"/><use href="#path23" transform="translate(36 0) scale(0.023999998)"/></g><g fill="#ffffff" transform="translate(1074 48.208) rotate(0)"><use href="#path4" transform="translate(0 0) scale(0.023999998)"/></g><g fill="#ffffff" transform="translate(1086 48.208) rotate(0)"/><g fill="#ffffff" transform="translate(114 85.708) rotate(0)"><use href="#path24" transform="translate(0 0) scale(0.023999998)"/><use href="#path25" transform="translate(12 0) scale(0.023999998)"/><use href="#path3" transform="translate(24 0) scale(0.023999998)"/></g><g fill="#ffffff" transform="translate(150 85.708) rotate(0)"><use href="#path4" transform="translate(0 0) scale(0.023999998)"/></g><g fill="#ffffff" transform="translate(162 85.708) rotate(0)"><use href="#path26" transform="translate(0 0) scale(0.023999998)"/><use href="#path27" transform="translate(12 0) scale(0.023999998)"/></g><g fill="#ffffff" transform="translate(186 85.708) rotate(0)"><use href="#path4" transform="translate(0 0) scale(0.023999998)"/></g><g fill="#ffffff" transform="translate(198 85.708) rotate(0)"><use href="#path26" transform="translate(0 0) scale(0.023999998)"/><use href="#path28" transform="translate(12 0) scale(0.023999998)"/><use href="#path29" transform="translate(24 0) scale(0.023999998)"/></g><g fill="#ffffff" transform="translate(234 85.708) rotate(0)"><use href="#path4" transform="translate(0 0) scale(0.023999998)"/></g><g fill="#ffffff" transform="translate(246 85.708) rotate(0)"><use href="#path28" transform="translate(0 0) scale(0.023999998)"/><use href="#path29" transform="translate(12 0) scale(0.023999998)"/><use href="#path30" transform="translate(24 0) scale(0.023999998)"/></g><g fill="#ffffff" transform="translate(282 85.708) rotate(0)"><use href="#path4" transform="translate(0 0) scale(0.023999998)"/></g><g fill="#ffffff" transform="translate(294 85.708) rotate(0)"><use href="#path28" transform="translate(0 0) scale(0.023999998)"/><use href="#path29" transform="translate(12 0) scale(0.023999998)"/><use href="#path30" transform="translate(24 0) scale(0.023999998)"/><use href="#path30" transform="translate(36 0) scale(0.023999998)"/></g><g fill="#ffffff" transform="translate(342 85.708) rotate(0)"><use href="#path4" transform="translate(0 0) scale(0.023999998)"/></g><g fill="#ffffff" transform="translate(354 85.708) rotate(0)"><use href="#path3" transform="translate(0 0) scale(0.023999998)"/><use href="#path31" transform="translate(12 0) scale(0.023999998)"/><use href="#path32" transform="translate(24 0) scale(0.023999998)"/></g><g fill="#ffffff" transform="translate(390 85.708) rotate(0)"><use href="#path4" transform="translate(0 0) scale(0.023999998)"/></g><g fill="#ffffff" transform="translate(402 85.708) rotate(0)"><use href="#path33" transform="translate(0 0) scale(0.023999998)"/><use href="#path34" transform="translate(12 0) scale(0.023999998)"/></g><g fill="#ffffff" transform="translate(426 85.708) rotate(0)"><use href="#path4" transform="translate(0 0) scale(0.023999998)"/></g><g fill="#ffffff" transform="translate(438 85.708) rotate(0)"><use href="#path35" transform="translate(0 0) scale(0.023999998)"/><use href="#path36" transform="translate(12 0) scale(0.023999998)"/></g><g fill="#ffffff" transform="translate(462 85.708) rotate(0)"><use href="#path4" transform="translate(0 0) scale(0.023999998)"/></g><g fill="#ffffff" transform="translate(474 85.708) rotate(0)"><use href="#path37" transform="translate(0 0) scale(0.023999998)"/><use href="#path38" transform="translate(12 0) scale(0.023999998)"/><use href="#path11" transform="translate(24 0) scale(0.023999998)"/></g><g fill="#ffffff" transform="translate(510 85.708) rotate(0)"><use href="#path4" transform="translate(0 0) scale(0.023999998)"/></g><g fill="#ffffff" transform="translate(522 85.708) rotate(0)"><use href="#path39" transform="translate(0 0) scale(0.023999998)"/><use href="#path35" transform="translate(12 0) scale(0.023999998)"/><use href="#path36" transform="translate(24 0) scale(0.023999998)"/></g><g fill="#ffffff" transform="translate(558 85.708) rotate(0)"><use href="#path4" transform="translate(0 0) scale(0.023999998)"/></g><g fill="#ffffff" transform="translate(570 85.708) rotate(0)"><use href="#path39" transform="translate(0 0) scale(0.023999998)"/><use href="#path39" transform="translate(12 0) scale(0.023999998)"/><use href="#path35" transform="translate(24 0) scale(0.023999998)"/><use href="#path36" transform="translate(36 0) scale(0.023999998)"/></g><g fill="#ffffff" transform="translate(618 85.708) rotate(0)"><use href="#path4" transform="translate(0 0) scale(0.023999998)"/></g><g fill="#ffffff" transform="translate(630 85.708) rotate(0)"><use href="#path35" transform="translate(0 0) scale(0.023999998)"/><use href="#path36" transform="translate(12 0) scale(0.023999998)"/><use href="#path40" transform="translate(24 0) scale(0.023999998)"/></g><g fill="#ffffff" transform="translate(666 85.708) rotate(0)"><use href="#path4" transform="translate(0 0) scale(0.023999998)"/></g><g fill="#ffffff" transform="translate(678 85.708) rotate(0)"><use href="#path41" transform="translate(0 0) scale(0.023999998)"/><use href="#path34" transform="translate(12 0) scale(0.023999998)"/></g><g fill="#ffffff" transform="translate(702 85.708) rotate(0)"><use href="#path4" transform="translate(0 0) scale(0.023999998)"/></g><g fill="#ffffff" transform="translate(714 85.708) rotate(0)"><use href="#path11" transform="translate(0 0) scale(0.023999998)"/><use href="#path42" transform="translate(12 0) scale(0.023999998)"/><use href="#path43" transform="translate(24 0) scale(0.023999998)"/></g><g fill="#ffffff" transform="translate(750 85.708) rotate(0)"><use href="#path4" transform="translate(0 0) scale(0.023999998)"/></g><g fill="#ffffff" transform="translate(762 85.708) rotate(0)"><use href="#path28" transform="translate(0 0) scale(0.023999998)"/><use href="#path44" transform="translate(12 0) scale(0.023999998)"/><use href="#path36" transform="translate(24 0) scale(0.023999998)"/></g><g fill="#ffffff" transform="translate(798 85.708) rotate(0)"><use href="#path4" transform="translate(0 0) scale(0.023999998)"/></g><g fill="#ffffff" transform="translate(810 85.708) rotate(0)"><use href="#path28" transform="translate(0 0) scale(0.023999998)"/><use href="#path45" transform="translate(12 0) scale(0.023999998)"/><use href="#path46" transform="translate(24 0) scale(0.023999998)"/><use href="#path36" transform="translate(36 0) scale(0.023999998)"/></g><g fill="#ffffff" transform="translate(858 85.708) rotate(0)"><use href="#path4" transform="translate(0 0) scale(0.023999998)"/></g><g fill="#ffffff" transform="translate(870 85.708) rotate(0)"><use href="#path28" transform="translate(0 0) scale(0.023999998)"/><use href="#path29" transform="translate(12 0) scale(0.023999998)"/><use href="#path47" transform="translate(24 0) scale(0.023999998)"/><use href="#path46" transform="translate(36 0) scale(0.023999998)"/><use href="#path36" transform="translate(48 0) scale(0.023999998)"/></g><g fill="#ffffff" transform="translate(930 85.708) rotate(0)"><use href="#path4" transform="translate(0 0) scale(0.023999998)"/></g><g fill="#ffffff" transform="translate(942 85.708) rotate(0)"><use href="#path28" transform="translate(0 0) scale(0.023999998)"/><use href="#path29" transform="translate(12 0) scale(0.023999998)"/><use href="#path30" transform="translate(24 0) scale(0.023999998)"/><use href="#path47" transform="translate(36 0) scale(0.023999998)"/><use href="#path46" transform="translate(48 0) scale(0.023999998)"/><use href="#path36" transform="translate(60 0) scale(0.023999998)"/></g><g fill="#ffffff" transform="translate(1014 85.708) rotate(0)"><use href="#path4" transform="translate(0 0) scale(0.023999998)"/></g><g fill="#ffffff40" transform="translate(1026 85.708) rotate(0)"><use href="#path3" transform="translate(0 0) scale(0.023999998)"/><use href="#path22" transform="translate(12 0) scale(0.023999998)"/><use href="#path23" transform="translate(24 0) scale(0.023999998)"/><use href="#path23" transform="translate(36 0) scale(0.023999998)"/><use href="#path23" transform="translate(48 0) scale(0.023999998)"/></g><g fill="#ffffff" transform="translate(1086 85.708) rotate(0)"><use href="#path4" transform="translate(0 0) scale(0.023999998)"/></g><g fill="#ffffff" transform="translate(1098 85.708) rotate(0)"/><g fill="#ffffff40" transform="translate(114 123.208) rotate(0)"><use href="#path48" transform="translate(0 0) scale(0.023999998)"/><use href="#path49" transform="translate(12 0) scale(0.023999998)"/></g><g fill="#ffffff" transform="translate(138 123.208) rotate(0)"><use href="#path4" transform="translate(0 0) scale(0.023999998)"/></g><g fill="#ffffff40" transform="translate(150 123.208) rotate(0)"><use href="#path49" transform="translate(0 0) scale(0.023999998)"/><use href="#path50" transform="translate(12 0) scale(0.023999998)"/></g><g fill="#ffffff" transform="translate(174 123.208) rotate(0)"><use href="#path4" transform="translate(0 0) scale(0.023999998)"/></g><g fill="#ffffff40" transform="translate(186 123.208) rotate(0)"><use href="#path51" transform="translate(0 0) scale(0.023999998)"/><use href="#path49" transform="translate(12 0) scale(0.023999998)"/></g><g fill="#ffffff" transform="translate(210 123.208) rotate(0)"><use href="#path4" transform="translate(0 0) scale(0.023999998)"/></g><g fill="#ffffff40" transform="translate(222 123.208) rotate(0)"><use href="#path49" transform="translate(0 0) scale(0.023999998)"/><use href="#path52" transform="translate(12 0) scale(0.023999998)"/></g><g fill="#ffffff" transform="translate(246 123.208) rotate(0)"><use href="#path4" transform="translate(0 0) scale(0.023999998)"/></g><g fill="#ffffff" transform="translate(258 123.208) rotate(0)"><use href="#path28" transform="translate(0 0) scale(0.023999998)"/><use href="#path53" transform="translate(12 0) scale(0.023999998)"/><use href="#path27" transform="translate(24 0) scale(0.023999998)"/></g><g fill="#ffffff" transform="translate(294 123.208) rotate(0)"><use href="#path4" transform="translate(0 0) scale(0.023999998)"/></g><g fill="#ffffff" transform="translate(306 123.208) rotate(0)"><use href="#path54" transform="translate(0 0) scale(0.023999998)"/><use href="#path55" transform="translate(12 0) scale(0.023999998)"/><use href="#path36" transform="translate(24 0) scale(0.023999998)"/></g><g fill="#ffffff" transform="translate(342 123.208) rotate(0)"><use href="#path4" transform="translate(0 0) scale(0.023999998)"/></g><g fill="#ffffff" transform="translate(354 123.208) rotate(0)"><use href="#path3" transform="translate(0 0) scale(0.023999998)"/><use href="#path56" transform="translate(12 0) scale(0.023999998)"/><use href="#path57" transform="translate(24 0) scale(0.023999998)"/></g><g fill="#ffffff" transform="translate(390 123.208) rotate(0)"><use href="#path4" transform="translate(0 0) scale(0.023999998)"/></g><g fill="#ffffff" transform="translate(402 123.208) rotate(0)"><use href="#path3" transform="translate(0 0) scale(0.023999998)"/><use href="#path56" transform="translate(12 0) scale(0.023999998)"/></g><g fill="#ffffff" transform="translate(426 123.208) rotate(0)"><use href="#path4" transform="translate(0 0) scale(0.023999998)"/></g><g fill="#ffffff" transform="translate(438 123.208) rotate(0)"><use href="#path58" transform="translate(0 0) scale(0.023999998)"/><use href="#path11" transform="translate(12 0) scale(0.023999998)"/></g><g fill="#ffffff" transform="translate(462 123.208) rotate(0)"><use href="#path4" transform="translate(0 0) scale(0.023999998)"/></g><g fill="#ffffff" transform="translate(474 123.208) rotate(0)"><use href="#path59" transform="translate(0 0) scale(0.023999998)"/><use href="#path58" transform="translate(12 0) scale(0.023999998)"/><use href="#path11" transform="translate(24 0) scale(0.023999998)"/></g><g fill="#ffffff" transform="translate(510 123.208) rotate(0)"><use href="#path4" transform="translate(0 0) scale(0.023999998)"/></g><g fill="#ffffff" transform="translate(522 123.208) rotate(0)"><use href="#path60" transform="translate(0 0) scale(0.023999998)"/><use href="#path61" transform="translate(12 0) scale(0.023999998)"/></g><g fill="#ffffff" transform="translate(546 123.208) rotate(0)"><use href="#path4" transform="translate(0 0) scale(0.023999998)"/></g><g fill="#ffffff" transform="translate(558 123.208) rotate(0)"><use href="#path62" transform="translate(0 0) scale(0.023999998)"/><use href="#path63" transform="translate(12 0) scale(0.023999998)"/><use href="#path64" transform="translate(24 0) scale(0.023999998)"/></g><g fill="#ffffff" transform="translate(594 123.208) rotate(0)"><use href="#path4" transform="translate(0 0) scale(0.023999998)"/></g><g fill="#ffffff" transform="translate(606 123.208) rotate(0)"><use href="#path65" transform="translate(0 0) scale(0.023999998)"/><use href="#path66" transform="translate(12 0) scale(0.023999998)"/></g><g fill="#ffffff" transform="translate(630 123.208) rotate(0)"><use href="#path4" transform="translate(0 0) scale(0.023999998)"/></g><g fill="#ffffff" transform="translate(642 123.208) rotate(0)"><use href="#path67" transform="translate(0 0) scale(0.023999998)"/><use href="#path68" transform="translate(12 0) scale(0.023999998)"/></g><g fill="#ffffff" transform="translate(666 123.208) rotate(0)"><use href="#path4" transform="translate(0 0) scale(0.023999998)"/></g><g fill="#ffffff" transform="translate(678 123.208) rotate(0)"><use href="#path69" transform="translate(0 0) scale(0.023999998)"/><use href="#path70" transform="translate(12 0) scale(0.023999998)"/></g><g fill="#ffffff" transform="translate(702 123.208) rotate(0)"><use href="#path4" transform="translate(0 0) scale(0.023999998)"/></g><g fill="#ffffff40" transform="translate(714 123.208) rotate(0)"><use href="#path22" transform="translate(0 0) scale(0.023999998)"/><use href="#path71" transform="translate(12 0) scale(0.023999998)"/></g><g fill="#ffffff" transform="translate(738 123.208) rotate(0)"><use href="#path4" transform="translate(0 0) scale(0.023999998)"/></g><g fill="#ffffff" transform="translate(750 123.208) rotate(0)"><use href="#path72" transform="translate(0 0) scale(0.023999998)"/><use href="#path73" transform="translate(12 0) scale(0.023999998)"/></g><g fill="#ffffff" transform="translate(774 123.208) rotate(0)"><use href="#path4" transform="translate(0 0) scale(0.023999998)"/></g><g fill="#ffffff40" transform="translate(786 123.208) rotate(0)"><use href="#path74" transform="translate(0 0) scale(0.023999998)"/><use href="#path71" transform="translate(12 0) scale(0.023999998)"/></g><g fill="#ffffff" transform="translate(810 123.208) rotate(0)"><use href="#path4" transform="translate(0 0) scale(0.023999998)"/></g><g fill="#ffffff" transform="translate(822 123.208) rotate(0)"><use href="#path75" transform="translate(0 0) scale(0.023999998)"/><use href="#path76" transform="translate(12 0) scale(0.023999998)"/></g><g fill="#ffffff" transform="translate(846 123.208) rotate(0)"><use href="#path4" transform="translate(0 0) scale(0.023999998)"/></g><g fill="#ffffff" transform="translate(858 123.208) rotate(0)"><use href="#path69" transform="translate(0 0) scale(0.023999998)"/><use href="#path70" transform="translate(12 0) scale(0.023999998)"/><use href="#path77" transform="translate(24 0) scale(0.023999998)"/></g><g fill="#ffffff" transform="translate(894 123.208) rotate(0)"><use href="#path4" transform="translate(0 0) scale(0.023999998)"/></g><g fill="#ffffff40" transform="translate(906 123.208) rotate(0)"><use href="#path22" transform="translate(0 0) scale(0.023999998)"/><use href="#path69" transform="translate(12 0) scale(0.023999998)"/><use href="#path70" transform="translate(24 0) scale(0.023999998)"/></g><g fill="#ffffff" transform="translate(942 123.208) rotate(0)"><use href="#path4" transform="translate(0 0) scale(0.023999998)"/></g><g fill="#ffffff" transform="translate(954 123.208) rotate(0)"><use href="#path69" transform="translate(0 0) scale(0.023999998)"/><use href="#path78" transform="translate(12 0) scale(0.023999998)"/><use href="#path79" transform="translate(24 0) scale(0.023999998)"/></g><g fill="#ffffff" transform="translate(990 123.208) rotate(0)"><use href="#path4" transform="translate(0 0) scale(0.023999998)"/></g><g fill="#ffffff40" transform="translate(1002 123.208) rotate(0)"><use href="#path71" transform="translate(0 0) scale(0.023999998)"/><use href="#path22" transform="translate(12 0) scale(0.023999998)"/><use href="#path71" transform="translate(24 0) scale(0.023999998)"/></g><g fill="#ffffff" transform="translate(1038 123.208) rotate(0)"><use href="#path4" transform="translate(0 0) scale(0.023999998)"/></g><g fill="#ffffff" transform="translate(1050 123.208) rotate(0)"><use href="#path80" transform="translate(0 0) scale(0.023999998)"/><use href="#path11" transform="translate(12 0) scale(0.023999998)"/></g><g fill="#ffffff" transform="translate(1074 123.208) rotate(0)"><use href="#path4" transform="translate(0 0) scale(0.023999998)"/></g><g fill="#ffffff" transform="translate(1086 123.208) rotate(0)"/><g fill="#ffffff" transform="translate(114 160.70801) rotate(0)"><use href="#path80" transform="translate(0 0) scale(0.023999998)"/><use href="#path71" transform="translate(12 0) scale(0.023999998)"/></g><g fill="#ffffff" transform="translate(138 160.70801) rotate(0)"><use href="#path4" transform="translate(0 0) scale(0.023999998)"/></g><g fill="#ffffff" transform="translate(150 160.70801) rotate(0)"><use href="#path80" transform="translate(0 0) scale(0.023999998)"/><use href="#path23" transform="translate(12 0) scale(0.023999998)"/></g><g fill="#ffffff" transform="translate(174 160.70801) rotate(0)"><use href="#path4" transform="translate(0 0) scale(0.023999998)"/></g><g fill="#ffffff" transform="translate(186 160.70801) rotate(0)"><use href="#path80" transform="translate(0 0) scale(0.023999998)"/><use href="#path81" transform="translate(12 0) scale(0.023999998)"/></g><g fill="#ffffff" transform="translate(210 160.70801) rotate(0)"><use href="#path4" transform="translate(0 0) scale(0.023999998)"/></g><g fill="#ffffff" transform="translate(222 160.70801) rotate(0)"><use href="#path3" transform="translate(0 0) scale(0.023999998)"/><use href="#path82" transform="translate(12 0) scale(0.023999998)"/></g><g fill="#ffffff" transform="translate(246 160.70801) rotate(0)"><use href="#path4" transform="translate(0 0) scale(0.023999998)"/></g><g fill="#ffffff" transform="translate(258 160.70801) rotate(0)"><use href="#path3" transform="translate(0 0) scale(0.023999998)"/><use href="#path82" transform="translate(12 0) scale(0.023999998)"/><use href="#path11" transform="translate(24 0) scale(0.023999998)"/></g><g fill="#ffffff" transform="translate(294 160.70801) rotate(0)"><use href="#path4" transform="translate(0 0) scale(0.023999998)"/></g><g fill="#ffffff" transform="translate(306 160.70801) rotate(0)"><use href="#path82" transform="translate(0 0) scale(0.023999998)"/><use href="#path11" transform="translate(12 0) scale(0.023999998)"/></g><g fill="#ffffff" transform="translate(330 160.70801) rotate(0)"><use href="#path4" transform="translate(0 0) scale(0.023999998)"/></g><g fill="#ffffff" transform="translate(342 160.70801) rotate(0)"><use href="#path83" transform="translate(0 0) scale(0.023999998)"/><use href="#path84" transform="translate(12 0) scale(0.023999998)"/></g><g fill="#ffffff" transform="translate(366 160.70801) rotate(0)"><use href="#path4" transform="translate(0 0) scale(0.023999998)"/></g><g fill="#ffffff" transform="translate(378 160.70801) rotate(0)"><use href="#path83" transform="translate(0 0) scale(0.023999998)"/><use href="#path84" transform="translate(12 0) scale(0.023999998)"/><use href="#path85" transform="translate(24 0) scale(0.023999998)"/></g><g fill="#ffffff" transform="translate(414 160.70801) rotate(0)"><use href="#path4" transform="translate(0 0) scale(0.023999998)"/></g><g fill="#ffffff" transform="translate(426 160.70801) rotate(0)"><use href="#path84" transform="translate(0 0) scale(0.023999998)"/><use href="#path85" transform="translate(12 0) scale(0.023999998)"/></g><g fill="#ffffff" transform="translate(450 160.70801) rotate(0)"><use href="#path4" transform="translate(0 0) scale(0.023999998)"/></g><g fill="#ffffff" transform="translate(462 160.70801) rotate(0)"><use href="#path3" transform="translate(0 0) scale(0.023999998)"/><use href="#path86" transform="translate(12 0) scale(0.023999998)"/></g><g fill="#ffffff" transform="translate(486 160.70801) rotate(0)"><use href="#path4" transform="translate(0 0) scale(0.023999998)"/></g><g fill="#ffffff" transform="translate(498 160.70801) rotate(0)"><use href="#path3" transform="translate(0 0) scale(0.023999998)"/><use href="#path86" transform="translate(12 0) scale(0.023999998)"/><use href="#path11" transform="translate(24 0) scale(0.023999998)"/></g><g fill="#ffffff" transform="translate(534 160.70801) rotate(0)"><use href="#path4" transform="translate(0 0) scale(0.023999998)"/></g><g fill="#ffffff" transform="translate(546 160.70801) rotate(0)"><use href="#path86" transform="translate(0 0) scale(0.023999998)"/><use href="#path11" transform="translate(12 0) scale(0.023999998)"/></g><g fill="#ffffff" transform="translate(570 160.70801) rotate(0)"><use href="#path4" transform="translate(0 0) scale(0.023999998)"/></g><g fill="#ffffff" transform="translate(582 160.70801) rotate(0)"><use href="#path81" transform="translate(0 0) scale(0.023999998)"/><use href="#path80" transform="translate(12 0) scale(0.023999998)"/></g><g fill="#ffffff" transform="translate(606 160.70801) rotate(0)"><use href="#path4" transform="translate(0 0) scale(0.023999998)"/></g><g fill="#ffffff" transform="translate(618 160.70801) rotate(0)"><use href="#path23" transform="translate(0 0) scale(0.023999998)"/><use href="#path80" transform="translate(12 0) scale(0.023999998)"/></g><g fill="#ffffff" transform="translate(642 160.70801) rotate(0)"><use href="#path4" transform="translate(0 0) scale(0.023999998)"/></g><g fill="#ffffff" transform="translate(654 160.70801) rotate(0)"><use href="#path71" transform="translate(0 0) scale(0.023999998)"/><use href="#path80" transform="translate(12 0) scale(0.023999998)"/></g><g fill="#ffffff" transform="translate(678 160.70801) rotate(0)"><use href="#path4" transform="translate(0 0) scale(0.023999998)"/></g><g fill="#ffffff" transform="translate(690 160.70801) rotate(0)"><use href="#path3" transform="translate(0 0) scale(0.023999998)"/><use href="#path82" transform="translate(12 0) scale(0.023999998)"/><use href="#path82" transform="translate(24 0) scale(0.023999998)"/><use href="#path82" transform="translate(36 0) scale(0.023999998)"/><use href="#path11" transform="translate(48 0) scale(0.023999998)"/></g><g fill="#ffffff" transform="translate(750 160.70801) rotate(0)"><use href="#path4" transform="translate(0 0) scale(0.023999998)"/></g><g fill="#ffffff40" transform="translate(762 160.70801) rotate(0)"><use href="#path87" transform="translate(0 0) scale(0.023999998)"/><use href="#path87" transform="translate(12 0) scale(0.023999998)"/></g><g fill="#ffffff" transform="translate(786 160.70801) rotate(0)"><use href="#path4" transform="translate(0 0) scale(0.023999998)"/></g><g fill="#ffffff40" transform="translate(798 160.70801) rotate(0)"><use href="#path88" transform="translate(0 0) scale(0.023999998)"/><use href="#path89" transform="translate(12 0) scale(0.023999998)"/><use href="#path4" transform="translate(24 0) scale(0.023999998)"/><use href="#path90" transform="translate(36 0) scale(0.023999998)"/><use href="#path91" transform="translate(48 0) scale(0.023999998)"/><use href="#path92" transform="translate(60 0) scale(0.023999998)"/><use href="#path92" transform="translate(72 0) scale(0.023999998)"/><use href="#path4" transform="translate(84 0) scale(0.023999998)"/><use href="#path89" transform="translate(96 0) scale(0.023999998)"/><use href="#path93" transform="translate(108 0) scale(0.023999998)"/></g><g fill="#ffffff" transform="translate(918 160.70801) rotate(0)"><use href="#path4" transform="translate(0 0) scale(0.023999998)"/></g><g fill="#ffffff" transform="translate(930 160.70801) rotate(0)"><use href="#path94" transform="translate(0 0) scale(0.023999998)"/><use href="#path95" transform="translate(12 0) scale(0.023999998)"/></g><g fill="#ffffff" transform="translate(954 160.70801) rotate(0)"><use href="#path4" transform="translate(0 0) scale(0.023999998)"/></g><g fill="#ffffff" transform="translate(966 160.70801) rotate(0)"><use href="#path94" transform="translate(0 0) scale(0.023999998)"/><use href="#path96" transform="translate(12 0) scale(0.023999998)"/><use href="#path95" transform="translate(24 0) scale(0.023999998)"/></g><g fill="#ffffff" transform="translate(1002 160.70801) rotate(0)"><use href="#path4" transform="translate(0 0) scale(0.023999998)"/></g><g fill="#ffffff" transform="translate(1014 160.70801) rotate(0)"><use href="#path49" transform="translate(0 0) scale(0.023999998)"/><use href="#path97" transform="translate(12 0) scale(0.023999998)"/></g><g fill="#ffffff" transform="translate(1038 160.70801) rotate(0)"><use href="#path4" transform="translate(0 0) scale(0.023999998)"/></g><g fill="#ffffff" transform="translate(1050 160.70801) rotate(0)"><use href="#path98" transform="translate(0 0) scale(0.023999998)"/><use href="#path49" transform="translate(12 0) scale(0.023999998)"/></g><g fill="#ffffff" transform="translate(1074 160.70801) rotate(0)"><use href="#path4" transform="translate(0 0) scale(0.023999998)"/></g></g></svg>