<?xml version="1.0" encoding="UTF-8" standalone="no"?>
<svg height="300" viewBox="0 0 1200 300" width="1200" xmlns="http://www.w3.org/2000/svg">
<defs>
<path d="M 64 -305 L 64 -375 L 436 -375 L 436 -305 Z " id="path1"/>
<path d="M 416 -81 L 64 -299 L 64 -381 L 416 -599 L 456 -539 L 131 -340 L 456 -141 Z " id="path2"/>
<path d="M 84 -81 L 44 -141 L 369 -340 L 44 -539 L 84 -599 L 436 -381 L 436 -299 Z " id="path3"/>
<path d="M 64 -394 L 64 -464 L 436 -464 L 436 -394 Z M 64 -216 L 64 -286 L 436 -286 L 436 -216 Z " id="path4"/>
<path d="M 250 8 Q 234 8 219 3.5 Q 204 -1 192.5 -12.5 Q 181 -24 176.5 -39 Q 172 -54 172 -70 Q 172 -86 176.5 -101 Q 181 -116 192.5 -127.5 Q 204 -139 219 -143.5 Q 234 -148 250 -148 Q 266 -148 281 -143.5 Q 296 -139 307.5 -127.5 Q 319 -116 323.5 -101 Q 328 -86 328 -70 Q 328 -54 323.5 -39 Q 319 -24 307.5 -12.5 Q 296 -1 281 3.5 Q 266 8 250 8 Z M 250 -372 Q 234 -372 219 -376.5 Q 204 -381 192.5 -392.5 Q 181 -404 176.5 -419 Q 172 -434 172 -450 Q 172 -466 176.5 -481 Q 181 -496 192.5 -507.5 Q 204 -519 219 -523.5 Q 234 -528 250 -528 Q 266 -528 281 -523.5 Q 296 -519 307.5 -507.5 Q 319 -496 323.5 -481 Q 328 -466 328 -450 Q 328 -434 323.5 -419 Q 319 -404 307.5 -392.5 Q 296 -381 281 -376.5 Q 266 -372 250 -372 Z " id="path5"/>
<path d="M 64 70 L 64 0 L 436 0 L 436 70 Z " id="path6"/>
<path d="M 323 -185 Q 315 -185 308 -186 Q 301 -187 295 -189.5 Q 289 -192 283 -195.5 Q 277 -199 271.5 -203.5 Q 266 -208 261.5 -212.5 Q 257 -217 252.5 -222.5 Q 248 -228 244 -234 Q 240 -240 236.5 -245.5 Q 233 -251 229.5 -257 Q 226 -263 222.5 -269 Q 219 -275 215.5 -281.5 Q 212 -288 208 -294.5 Q 204 -301 200 -307 Q 196 -313 192.5 -318 Q 189 -323 185 -328.5 Q 181 -334 177 -337 Q 174 -334 171.5 -331 Q 169 -328 165 -323 Q 161 -318 158.5 -314.5 Q 156 -311 154.5 -308 Q 153 -305 151 -301.5 Q 149 -298 147 -294.5 Q 145 -291 143 -287 Q 141 -283 139 -278.5 Q 137 -274 134.5 -269.5 Q 132 -265 130 -260 Q 128 -255 125.5 -249.5 Q 123 -244 120.5 -238.5 Q 118 -233 115.5 -227 Q 113 -221 110.5 -214.5 Q 108 -208 105.5 -201.5 Q 103 -195 100 -188 L 28 -212 Q 32 -224 36 -234.5 Q 40 -245 44.5 -255 Q 49 -265 53 -274.5 Q 57 -284 60.5 -292.5 Q 64 -301 68 -308.5 Q 72 -316 76 -323 Q 80 -330 83.5 -336.5 Q 87 -343 91 -349 Q 95 -355 101 -363 Q 107 -371 113.5 -377.5 Q 120 -384 126.5 -389.5 Q 133 -395 141.5 -399.5 Q 150 -404 159 -406.5 Q 168 -409 177 -409 Q 192 -409 205 -404 Q 218 -399 228.5 -390 Q 239 -381 247.5 -370.5 Q 256 -360 263.5 -348.5 Q 271 -337 277.5 -325 Q 284 -313 292 -299.5 Q 300 -286 307 -275.5 Q 314 -265 323 -257 Q 326 -260 328.5 -262.5 Q 331 -265 335 -270 Q 339 -275 341.5 -279 Q 344 -283 345.5 -286 Q 347 -289 349 -292.5 Q 351 -296 353 -299.5 Q 355 -303 357 -307 Q 359 -311 361 -315 Q 363 -319 365.5 -324 Q 368 -329 370 -334 Q 372 -339 374.5 -344 Q 377 -349 379.5 -354.5 Q 382 -360 384.5 -366 Q 387 -372 389.5 -378.5 Q 392 -385 394.5 -392 Q 397 -399 400 -406 L 472 -381 Q 468 -370 464 -359 Q 460 -348 455.5 -338 Q 451 -328 447 -319 Q 443 -310 439.5 -301.5 Q 436 -293 432 -285 Q 428 -277 424 -270 Q 420 -263 416.5 -257 Q 413 -251 409 -245 Q 405 -239 399 -231 Q 393 -223 386.5 -216 Q 380 -209 373.5 -203.5 Q 367 -198 358.5 -194 Q 350 -190 341 -187.5 Q 332 -185 323 -185 Z " id="path7"/>
<path d="M 59 143 L 361 -823 L 441 -823 L 139 143 Z " id="path8"/>
<path d="M 211 -260 L 211 -735 L 289 -735 L 289 -260 Z M 250 8 Q 236 8 222 4 Q 208 0 198 -10.5 Q 188 -21 184 -34.5 Q 180 -48 180 -63 Q 180 -77 184 -90.5 Q 188 -104 198 -114.5 Q 208 -125 222 -129 Q 236 -133 250 -133 Q 264 -133 278 -129 Q 292 -125 302 -114.5 Q 312 -104 316.5 -90.5 Q 321 -77 321 -63 Q 321 -48 316.5 -34.5 Q 312 -21 302 -10.5 Q 292 0 278 4 Q 264 8 250 8 Z " id="path9"/>
<path d="M 158 -416 L 95 -457 L 200 -591 L 38 -638 L 62 -704 L 217 -648 L 211 -816 L 289 -816 L 283 -648 L 438 -704 L 462 -638 L 300 -591 L 405 -457 L 342 -416 L 250 -552 Z " id="path10"/>
<path d="M 211 -147 L 211 -305 L 64 -305 L 64 -375 L 211 -375 L 211 -533 L 289 -533 L 289 -375 L 436 -375 L 436 -305 L 289 -305 L 289 -147 Z " id="path11"/>
<path d="M 211 143 L 211 -823 L 289 -823 L 289 143 Z " id="path12"/>
<path d="M 250 8 Q 234 8 219 3.5 Q 204 -1 192.5 -12.5 Q 181 -24 176.5 -39 Q 172 -54 172 -70 Q 172 -86 176.5 -101 Q 181 -116 192.5 -127.5 Q 204 -139 219 -143.5 Q 234 -148 250 -148 Q 266 -148 281 -143.5 Q 296 -139 307.5 -127.5 Q 319 -116 323.5 -101 Q 328 -86 328 -70 Q 328 -54 323.5 -39 Q 319 -24 307.5 -12.5 Q 296 -1 281 3.5 Q 266 8 250 8 Z " id="path13"/>
<path d="M 372 161 Q 329 137 291.5 104.5 Q 254 72 224 32.5 Q 194 -7 173 -52 Q 152 -97 139 -144.5 Q 126 -192 120.5 -241.5 Q 115 -291 115 -340 Q 115 -389 120.5 -438.5 Q 126 -488 139 -535.5 Q 152 -583 173 -628 Q 194 -673 224 -712.5 Q 254 -752 291.5 -784.5 Q 329 -817 372 -841 L 410 -780 Q 355 -748 311.5 -699 Q 268 -650 241 -591.5 Q 214 -533 203.5 -468.5 Q 193 -404 193 -340 Q 193 -276 203.5 -211.5 Q 214 -147 241 -88.5 Q 268 -30 311.5 19 Q 355 68 410 100 Z " id="path14"/>
<path d="M 128 161 L 90 100 Q 145 68 188.5 19 Q 232 -30 259 -88.5 Q 286 -147 296.5 -211.5 Q 307 -276 307 -340 Q 307 -404 296.5 -468.5 Q 286 -533 259 -591.5 Q 232 -650 188.5 -699 Q 145 -748 90 -780 L 128 -841 Q 171 -817 208.5 -784.5 Q 246 -752 276 -712.5 Q 306 -673 327 -628 Q 348 -583 361 -535.5 Q 374 -488 379.5 -438.5 Q 385 -389 385 -340 Q 385 -291 379.5 -241.5 Q 374 -192 361 -144.5 Q 348 -97 327 -52 Q 306 -7 276 32.5 Q 246 72 208.5 104.5 Q 171 137 128 161 Z " id="path15"/>
<path d="M 123 143 L 123 -823 L 399 -823 L 399 -753 L 201 -753 L 201 73 L 399 73 L 399 143 Z " id="path16"/>
<path d="M 101 143 L 101 73 L 299 73 L 299 -753 L 101 -753 L 101 -823 L 377 -823 L 377 143 Z " id="path17"/>
<path d="M 399 153 Q 372 153 345 149.5 Q 318 146 292 137 Q 266 128 243 113 Q 220 98 203 77 Q 186 56 178 29.5 Q 170 3 170 -24 Q 170 -47 175.5 -69.5 Q 181 -92 190 -112.5 Q 199 -133 208.5 -154 Q 218 -175 218 -198 Q 218 -214 213.5 -230 Q 209 -246 199.5 -259 Q 190 -272 176 -281.5 Q 162 -291 146.5 -296 Q 131 -301 115 -303 Q 99 -305 83 -305 L 83 -375 Q 99 -375 115 -377 Q 131 -379 146.5 -384 Q 162 -389 176 -398.5 Q 190 -408 199.5 -421 Q 209 -434 213.5 -450 Q 218 -466 218 -482 Q 218 -505 208.5 -526 Q 199 -547 190 -567.5 Q 181 -588 175.5 -610.5 Q 170 -633 170 -656 Q 170 -683 178 -709.5 Q 186 -736 203 -757 Q 220 -778 243 -793 Q 266 -808 292 -817 Q 318 -826 345 -829.5 Q 372 -833 399 -833 L 399 -763 Q 381 -763 364 -761 Q 347 -759 330.5 -754 Q 314 -749 298.5 -740.5 Q 283 -732 271.5 -719 Q 260 -706 254 -689.5 Q 248 -673 248 -656 Q 248 -637 254 -620 Q 260 -603 268 -587 L 269 -585 Q 280 -561 287.5 -535 Q 295 -509 295 -482 Q 295 -459 289 -436 Q 283 -413 269 -394 Q 255 -375 235.5 -361.5 Q 216 -348 195 -340 Q 216 -332 235.5 -318.5 Q 255 -305 269 -286 Q 283 -267 289 -244 Q 295 -221 295 -198 Q 295 -171 287.5 -145 Q 280 -119 269 -95 L 268 -93 Q 260 -77 254 -60 Q 248 -43 248 -24 Q 248 -7 254 9.5 Q 260 26 271.5 39 Q 283 52 298.5 60.5 Q 314 69 330.5 74 Q 347 79 364 81 Q 381 83 399 83 Z " id="path18"/>
<path d="M 101 153 L 101 83 Q 119 83 136 81 Q 153 79 169.5 74 Q 186 69 201.5 60.5 Q 217 52 228.5 39 Q 240 26 246 9.5 Q 252 -7 252 -24 Q 252 -43 246 -60 Q 240 -77 232 -93 L 231 -95 Q 220 -119 212.5 -145 Q 205 -171 205 -198 Q 205 -221 211 -244 Q 217 -267 231 -286 Q 245 -305 264.5 -318.5 Q 284 -332 305 -340 Q 284 -348 264.5 -361.5 Q 245 -375 231 -394 Q 217 -413 211 -436 Q 205 -459 205 -482 Q 205 -509 212.5 -535 Q 220 -561 231 -585 L 232 -587 Q 240 -603 246 -620 Q 252 -637 252 -656 Q 252 -673 246 -689.5 Q 240 -706 228.5 -719 Q 217 -732 201.5 -740.5 Q 186 -749 169.5 -754 Q 153 -759 136 -761 Q 119 -763 101 -763 L 101 -833 Q 128 -833 155 -829.5 Q 182 -826 208 -817 Q 234 -808 257 -793 Q 280 -778 297 -757 Q 314 -736 322 -709.5 Q 330 -683 330 -656 Q 330 -633 324.5 -610.5 Q 319 -588 310 -567.5 Q 301 -547 291.5 -526 Q 282 -505 282 -482 Q 282 -466 286.5 -450 Q 291 -434 300.5 -421 Q 310 -408 324 -398.5 Q 338 -389 353.5 -384 Q 369 -379 385 -377 Q 401 -375 417 -375 L 417 -305 Q 401 -305 385 -303 Q 369 -301 353.5 -296 Q 338 -291 324 -281.5 Q 310 -272 300.5 -259 Q 291 -246 286.5 -230 Q 282 -214 282 -198 Q 282 -175 291.5 -154 Q 301 -133 310 -112.5 Q 319 -92 324.5 -69.5 Q 330 -47 330 -24 Q 330 3 322 29.5 Q 314 56 297 77 Q 280 98 257 113 Q 234 128 208 137 Q 182 146 155 149.5 Q 128 153 101 153 Z " id="path19"/>
<path d="M 361 143 L 59 -823 L 139 -823 L 441 143 Z " id="path20"/>
</defs>
<g>
<g data-source-text="-&lt;&lt;" fill="#dee4e340" transform="translate(282 60.66) rotate(0) scale(0.023999998)">
<use href="#path1" transform="translate(0 0)"/>
<use href="#path2" transform="translate(500 0)"/>
<use href="#path2" transform="translate(1000 0)"/>
</g>
<g data-source-text=" " fill="#dee4e3" transform="translate(318 60.66) rotate(0) scale(0.023999998)"/>
<g data-source-text="-&lt;" fill="#dee4e340" transform="translate(330 60.66) rotate(0) scale(0.023999998)">
<use href="#path1" transform="translate(0 0)"/>
<use href="#path2" transform="translate(500 0)"/>
</g>
<g data-source-text=" " fill="#dee4e3" transform="translate(354 60.66) rotate(0) scale(0.023999998)"/>
<g data-source-text="-&lt;-" fill="#dee4e340" transform="translate(366 60.66) rotate(0) scale(0.023999998)">
<use href="#path1" transform="translate(0 0)"/>
<use href="#path2" transform="translate(500 0)"/>
<use href="#path1" transform="translate(1000 0)"/>
</g>
<g data-source-text=" " fill="#dee4e3" transform="translate(402 60.66) rotate(0) scale(0.023999998)"/>
<g data-source-text="&lt;--" fill="#dee4e340" transform="translate(414 60.66) rotate(0) scale(0.023999998)">
<use href="#path2" transform="translate(0 0)"/>
<use href="#path1" transform="translate(500 0)"/>
<use href="#path1" transform="translate(1000 0)"/>
</g>
<g data-source-text=" " fill="#dee4e3" transform="translate(450 60.66) rotate(0) scale(0.023999998)"/>
<g data-source-text="&lt;---" fill="#dee4e340" transform="translate(462 60.66) rotate(0) scale(0.023999998)">
<use href="#path2" transform="translate(0 0)"/>
<use href="#path1" transform="translate(500 0)"/>
<use href="#path1" transform="translate(1000 0)"/>
<use href="#path1" transform="translate(1500 0)"/>
</g>
<g data-source-text=" " fill="#dee4e3" transform="translate(510 60.66) rotate(0) scale(0.023999998)"/>
<g data-source-text="&lt;&lt;-" fill="#dee4e340" transform="translate(522 60.66) rotate(0) scale(0.023999998)">
<use href="#path2" transform="translate(0 0)"/>
<use href="#path2" transform="translate(500 0)"/>
<use href="#path1" transform="translate(1000 0)"/>
</g>
<g data-source-text=" " fill="#dee4e3" transform="translate(558 60.66) rotate(0) scale(0.023999998)"/>
<g data-source-text="&lt;-" fill="#dee4e340" transform="translate(570 60.66) rotate(0) scale(0.023999998)">
<use href="#path2" transform="translate(0 0)"/>
<use href="#path1" transform="translate(500 0)"/>
</g>
<g data-source-text=" " fill="#dee4e3" transform="translate(594 60.66) rotate(0) scale(0.023999998)"/>
<g data-source-text="-&gt;" fill="#dee4e340" transform="translate(606 60.66) rotate(0) scale(0.023999998)">
<use href="#path1" transform="translate(0 0)"/>
<use href="#path3" transform="translate(500 0)"/>
</g>
<g data-source-text=" " fill="#dee4e3" transform="translate(630 60.66) rotate(0) scale(0.023999998)"/>
<g data-source-text="-&gt;&gt;" fill="#dee4e340" transform="translate(642 60.66) rotate(0) scale(0.023999998)">
<use href="#path1" transform="translate(0 0)"/>
<use href="#path3" transform="translate(500 0)"/>
<use href="#path3" transform="translate(1000 0)"/>
</g>
<g data-source-text=" " fill="#dee4e3" transform="translate(678 60.66) rotate(0) scale(0.023999998)"/>
<g data-source-text="--&gt;" fill="#dee4e340" transform="translate(690 60.66) rotate(0) scale(0.023999998)">
<use href="#path1" transform="translate(0 0)"/>
<use href="#path1" transform="translate(500 0)"/>
<use href="#path3" transform="translate(1000 0)"/>
</g>
<g data-source-text=" " fill="#dee4e3" transform="translate(726 60.66) rotate(0) scale(0.023999998)"/>
<g data-source-text="---&gt;" fill="#dee4e340" transform="translate(738 60.66) rotate(0) scale(0.023999998)">
<use href="#path1" transform="translate(0 0)"/>
<use href="#path1" transform="translate(500 0)"/>
<use href="#path1" transform="translate(1000 0)"/>
<use href="#path3" transform="translate(1500 0)"/>
</g>
<g data-source-text=" " fill="#dee4e3" transform="translate(786 60.66) rotate(0) scale(0.023999998)"/>
<g data-source-text="-&gt;-" fill="#dee4e340" transform="translate(798 60.66) rotate(0) scale(0.023999998)">
<use href="#path1" transform="translate(0 0)"/>
<use href="#path3" transform="translate(500 0)"/>
<use href="#path1" transform="translate(1000 0)"/>
</g>
<g data-source-text=" " fill="#dee4e3" transform="translate(834 60.66) rotate(0) scale(0.023999998)"/>
<g data-source-text="&gt;-" fill="#dee4e340" transform="translate(846 60.66) rotate(0) scale(0.023999998)">
<use href="#path3" transform="translate(0 0)"/>
<use href="#path1" transform="translate(500 0)"/>
</g>
<g data-source-text=" " fill="#dee4e3" transform="translate(870 60.66) rotate(0) scale(0.023999998)"/>
<g data-source-text="&gt;&gt;-" fill="#dee4e340" transform="translate(882 60.66) rotate(0) scale(0.023999998)">
<use href="#path3" transform="translate(0 0)"/>
<use href="#path3" transform="translate(500 0)"/>
<use href="#path1" transform="translate(1000 0)"/>
</g>
<g data-source-text=" " fill="#dee4e3" transform="translate(918 60.66) rotate(0) scale(0.023999998)"/>
<g data-source-text="&#xA;" fill="#dee4e3" transform="translate(930 60.66) rotate(0) scale(0.023999998)"/>
<g data-source-text="=&lt;&lt;" fill="#dee4e340" transform="translate(282 98.16) rotate(0) scale(0.023999998)">
<use href="#path4" transform="translate(0 0)"/>
<use href="#path2" transform="translate(500 0)"/>
<use href="#path2" transform="translate(1000 0)"/>
</g>
<g data-source-text=" " fill="#dee4e3" transform="translate(318 98.16) rotate(0) scale(0.023999998)"/>
<g data-source-text="=&lt;" fill="#dee4e340" transform="translate(330 98.16) rotate(0) scale(0.023999998)">
<use href="#path4" transform="translate(0 0)"/>
<use href="#path2" transform="translate(500 0)"/>
</g>
<g data-source-text=" " fill="#dee4e3" transform="translate(354 98.16) rotate(0) scale(0.023999998)"/>
<g data-source-text="=&lt;=" fill="#dee4e340" transform="translate(366 98.16) rotate(0) scale(0.023999998)">
<use href="#path4" transform="translate(0 0)"/>
<use href="#path2" transform="translate(500 0)"/>
<use href="#path4" transform="translate(1000 0)"/>
</g>
<g data-source-text=" " fill="#dee4e3" transform="translate(402 98.16) rotate(0) scale(0.023999998)"/>
<g data-source-text="&lt;==" fill="#dee4e340" transform="translate(414 98.16) rotate(0) scale(0.023999998)">
<use href="#path2" transform="translate(0 0)"/>
<use href="#path4" transform="translate(500 0)"/>
<use href="#path4" transform="translate(1000 0)"/>
</g>
<g data-source-text=" " fill="#dee4e3" transform="translate(450 98.16) rotate(0) scale(0.023999998)"/>
<g data-source-text="&lt;===" fill="#dee4e340" transform="translate(462 98.16) rotate(0) scale(0.023999998)">
<use href="#path2" transform="translate(0 0)"/>
<use href="#path4" transform="translate(500 0)"/>
<use href="#path4" transform="translate(1000 0)"/>
<use href="#path4" transform="translate(1500 0)"/>
</g>
<g data-source-text=" " fill="#dee4e3" transform="translate(510 98.16) rotate(0) scale(0.023999998)"/>
<g data-source-text="&lt;&lt;=" fill="#dee4e340" transform="translate(522 98.16) rotate(0) scale(0.023999998)">
<use href="#path2" transform="translate(0 0)"/>
<use href="#path2" transform="translate(500 0)"/>
<use href="#path4" transform="translate(1000 0)"/>
</g>
<g data-source-text=" " fill="#dee4e3" transform="translate(558 98.16) rotate(0) scale(0.023999998)"/>
<g data-source-text="&lt;=" fill="#dee4e340" transform="translate(570 98.16) rotate(0) scale(0.023999998)">
<use href="#path2" transform="translate(0 0)"/>
<use href="#path4" transform="translate(500 0)"/>
</g>
<g data-source-text=" " fill="#dee4e3" transform="translate(594 98.16) rotate(0) scale(0.023999998)"/>
<g data-source-text="=&gt;" fill="#dee4e340" transform="translate(606 98.16) rotate(0) scale(0.023999998)">
<use href="#path4" transform="translate(0 0)"/>
<use href="#path3" transform="translate(500 0)"/>
</g>
<g data-source-text=" " fill="#dee4e3" transform="translate(630 98.16) rotate(0) scale(0.023999998)"/>
<g data-source-text="=&gt;&gt;" fill="#dee4e340" transform="translate(642 98.16) rotate(0) scale(0.023999998)">
<use href="#path4" transform="translate(0 0)"/>
<use href="#path3" transform="translate(500 0)"/>
<use href="#path3" transform="translate(1000 0)"/>
</g>
<g data-source-text=" " fill="#dee4e3" transform="translate(678 98.16) rotate(0) scale(0.023999998)"/>
<g data-source-text="==&gt;" fill="#dee4e340" transform="translate(690 98.16) rotate(0) scale(0.023999998)">
<use href="#path4" transform="translate(0 0)"/>
<use href="#path4" transform="translate(500 0)"/>
<use href="#path3" transform="translate(1000 0)"/>
</g>
<g data-source-text=" " fill="#dee4e3" transform="translate(726 98.16) rotate(0) scale(0.023999998)"/>
<g data-source-text="===&gt;" fill="#dee4e340" transform="translate(738 98.16) rotate(0) scale(0.023999998)">
<use href="#path4" transform="translate(0 0)"/>
<use href="#path4" transform="translate(500 0)"/>
<use href="#path4" transform="translate(1000 0)"/>
<use href="#path3" transform="translate(1500 0)"/>
</g>
<g data-source-text=" " fill="#dee4e3" transform="translate(786 98.16) rotate(0) scale(0.023999998)"/>
<g data-source-text="=&gt;=" fill="#dee4e340" transform="translate(798 98.16) rotate(0) scale(0.023999998)">
<use href="#path4" transform="translate(0 0)"/>
<use href="#path3" transform="translate(500 0)"/>
<use href="#path4" transform="translate(1000 0)"/>
</g>
<g data-source-text=" " fill="#dee4e3" transform="translate(834 98.16) rotate(0) scale(0.023999998)"/>
<g data-source-text="&gt;=" fill="#dee4e340" transform="translate(846 98.16) rotate(0) scale(0.023999998)">
<use href="#path3" transform="translate(0 0)"/>
<use href="#path4" transform="translate(500 0)"/>
</g>
<g data-source-text=" " fill="#dee4e3" transform="translate(870 98.16) rotate(0) scale(0.023999998)"/>
<g data-source-text="&gt;&gt;=" fill="#dee4e340" transform="translate(882 98.16) rotate(0) scale(0.023999998)">
<use href="#path3" transform="translate(0 0)"/>
<use href="#path3" transform="translate(500 0)"/>
<use href="#path4" transform="translate(1000 0)"/>
</g>
<g data-source-text=" " fill="#dee4e3" transform="translate(918 98.16) rotate(0) scale(0.023999998)"/>
<g data-source-text="&#xA;" fill="#dee4e3" transform="translate(930 98.16) rotate(0) scale(0.023999998)"/>
<g data-source-text="&lt;-&gt;" fill="#dee4e340" transform="translate(282 135.66) rotate(0) scale(0.023999998)">
<use href="#path2" transform="translate(0 0)"/>
<use href="#path1" transform="translate(500 0)"/>
<use href="#path3" transform="translate(1000 0)"/>
</g>
<g data-source-text=" " fill="#dee4e3" transform="translate(318 135.66) rotate(0) scale(0.023999998)"/>
<g data-source-text="&lt;--&gt;" fill="#dee4e340" transform="translate(330 135.66) rotate(0) scale(0.023999998)">
<use href="#path2" transform="translate(0 0)"/>
<use href="#path1" transform="translate(500 0)"/>
<use href="#path1" transform="translate(1000 0)"/>
<use href="#path3" transform="translate(1500 0)"/>
</g>
<g data-source-text=" " fill="#dee4e3" transform="translate(378 135.66) rotate(0) scale(0.023999998)"/>
<g data-source-text="&lt;---&gt;" fill="#dee4e340" transform="translate(390 135.66) rotate(0) scale(0.023999998)">
<use href="#path2" transform="translate(0 0)"/>
<use href="#path1" transform="translate(500 0)"/>
<use href="#path1" transform="translate(1000 0)"/>
<use href="#path1" transform="translate(1500 0)"/>
<use href="#path3" transform="translate(2000 0)"/>
</g>
<g data-source-text=" " fill="#dee4e3" transform="translate(450 135.66) rotate(0) scale(0.023999998)"/>
<g data-source-text="&lt;----&gt;" fill="#dee4e340" transform="translate(462 135.66) rotate(0) scale(0.023999998)">
<use href="#path2" transform="translate(0 0)"/>
<use href="#path1" transform="translate(500 0)"/>
<use href="#path1" transform="translate(1000 0)"/>
<use href="#path1" transform="translate(1500 0)"/>
<use href="#path1" transform="translate(2000 0)"/>
<use href="#path3" transform="translate(2500 0)"/>
</g>
<g data-source-text=" " fill="#dee4e3" transform="translate(534 135.66) rotate(0) scale(0.023999998)"/>
<g data-source-text="&lt;=&gt;" fill="#dee4e340" transform="translate(546 135.66) rotate(0) scale(0.023999998)">
<use href="#path2" transform="translate(0 0)"/>
<use href="#path4" transform="translate(500 0)"/>
<use href="#path3" transform="translate(1000 0)"/>
</g>
<g data-source-text=" " fill="#dee4e3" transform="translate(582 135.66) rotate(0) scale(0.023999998)"/>
<g data-source-text="&lt;==&gt;" fill="#dee4e340" transform="translate(594 135.66) rotate(0) scale(0.023999998)">
<use href="#path2" transform="translate(0 0)"/>
<use href="#path4" transform="translate(500 0)"/>
<use href="#path4" transform="translate(1000 0)"/>
<use href="#path3" transform="translate(1500 0)"/>
</g>
<g data-source-text=" " fill="#dee4e3" transform="translate(642 135.66) rotate(0) scale(0.023999998)"/>
<g data-source-text="&lt;===&gt;" fill="#dee4e340" transform="translate(654 135.66) rotate(0) scale(0.023999998)">
<use href="#path2" transform="translate(0 0)"/>
<use href="#path4" transform="translate(500 0)"/>
<use href="#path4" transform="translate(1000 0)"/>
<use href="#path4" transform="translate(1500 0)"/>
<use href="#path3" transform="translate(2000 0)"/>
</g>
<g data-source-text=" " fill="#dee4e3" transform="translate(714 135.66) rotate(0) scale(0.023999998)"/>
<g data-source-text="&lt;====&gt;" fill="#dee4e340" transform="translate(726 135.66) rotate(0) scale(0.023999998)">
<use href="#path2" transform="translate(0 0)"/>
<use href="#path4" transform="translate(500 0)"/>
<use href="#path4" transform="translate(1000 0)"/>
<use href="#path4" transform="translate(1500 0)"/>
<use href="#path4" transform="translate(2000 0)"/>
<use href="#path3" transform="translate(2500 0)"/>
</g>
<g data-source-text=" " fill="#dee4e3" transform="translate(798 135.66) rotate(0) scale(0.023999998)"/>
<g data-source-text="::" fill="#dee4e340" transform="translate(810 135.66) rotate(0) scale(0.023999998)">
<use href="#path5" transform="translate(0 0)"/>
<use href="#path5" transform="translate(500 0)"/>
</g>
<g data-source-text=" " fill="#dee4e3" transform="translate(834 135.66) rotate(0) scale(0.023999998)"/>
<g data-source-text=":::" fill="#dee4e340" transform="translate(846 135.66) rotate(0) scale(0.023999998)">
<use href="#path5" transform="translate(0 0)"/>
<use href="#path5" transform="translate(500 0)"/>
<use href="#path5" transform="translate(1000 0)"/>
</g>
<g data-source-text=" " fill="#dee4e3" transform="translate(882 135.66) rotate(0) scale(0.023999998)"/>
<g data-source-text="__" fill="#dee4e340" transform="translate(894 135.66) rotate(0) scale(0.023999998)">
<use href="#path6" transform="translate(0 0)"/>
<use href="#path6" transform="translate(500 0)"/>
</g>
<g data-source-text=" " fill="#dee4e3" transform="translate(918 135.66) rotate(0) scale(0.023999998)"/>
<g data-source-text="&#xA;" fill="#dee4e3" transform="translate(930 135.66) rotate(0) scale(0.023999998)"/>
<g data-source-text="&lt;~~" fill="#dee4e340" transform="translate(282 173.16) rotate(0) scale(0.023999998)">
<use href="#path2" transform="translate(0 0)"/>
<use href="#path7" transform="translate(500 0)"/>
<use href="#path7" transform="translate(1000 0)"/>
</g>
<g data-source-text=" " fill="#dee4e3" transform="translate(318 173.16) rotate(0) scale(0.023999998)"/>
<g data-source-text="&lt;/" fill="#dee4e340" transform="translate(330 173.16) rotate(0) scale(0.023999998)">
<use href="#path2" transform="translate(0 0)"/>
<use href="#path8" transform="translate(500 0)"/>
</g>
<g data-source-text=" " fill="#dee4e3" transform="translate(354 173.16) rotate(0) scale(0.023999998)"/>
<g data-source-text="&lt;/&gt;" fill="#dee4e340" transform="translate(366 173.16) rotate(0) scale(0.023999998)">
<use href="#path2" transform="translate(0 0)"/>
<use href="#path8" transform="translate(500 0)"/>
<use href="#path3" transform="translate(1000 0)"/>
</g>
<g data-source-text=" " fill="#dee4e3" transform="translate(402 173.16) rotate(0) scale(0.023999998)"/>
<g data-source-text="/&gt;" fill="#dee4e340" transform="translate(414 173.16) rotate(0) scale(0.023999998)">
<use href="#path8" transform="translate(0 0)"/>
<use href="#path3" transform="translate(500 0)"/>
</g>
<g data-source-text=" " fill="#dee4e3" transform="translate(438 173.16) rotate(0) scale(0.023999998)"/>
<g data-source-text="~~&gt;" fill="#dee4e340" transform="translate(450 173.16) rotate(0) scale(0.023999998)">
<use href="#path7" transform="translate(0 0)"/>
<use href="#path7" transform="translate(500 0)"/>
<use href="#path3" transform="translate(1000 0)"/>
</g>
<g data-source-text=" " fill="#dee4e3" transform="translate(486 173.16) rotate(0) scale(0.023999998)"/>
<g data-source-text="==" fill="#dee4e340" transform="translate(498 173.16) rotate(0) scale(0.023999998)">
<use href="#path4" transform="translate(0 0)"/>
<use href="#path4" transform="translate(500 0)"/>
</g>
<g data-source-text=" " fill="#dee4e3" transform="translate(522 173.16) rotate(0) scale(0.023999998)"/>
<g data-source-text="!=" fill="#dee4e340" transform="translate(534 173.16) rotate(0) scale(0.023999998)">
<use href="#path9" transform="translate(0 0)"/>
<use href="#path4" transform="translate(500 0)"/>
</g>
<g data-source-text=" " fill="#dee4e3" transform="translate(558 173.16) rotate(0) scale(0.023999998)"/>
<g data-source-text="/=" fill="#dee4e340" transform="translate(570 173.16) rotate(0) scale(0.023999998)">
<use href="#path8" transform="translate(0 0)"/>
<use href="#path4" transform="translate(500 0)"/>
</g>
<g data-source-text=" " fill="#dee4e3" transform="translate(594 173.16) rotate(0) scale(0.023999998)"/>
<g data-source-text="~=" fill="#dee4e340" transform="translate(606 173.16) rotate(0) scale(0.023999998)">
<use href="#path7" transform="translate(0 0)"/>
<use href="#path4" transform="translate(500 0)"/>
</g>
<g data-source-text=" " fill="#dee4e3" transform="translate(630 173.16) rotate(0) scale(0.023999998)"/>
<g data-source-text="&lt;&gt;" fill="#dee4e340" transform="translate(642 173.16) rotate(0) scale(0.023999998)">
<use href="#path2" transform="translate(0 0)"/>
<use href="#path3" transform="translate(500 0)"/>
</g>
<g data-source-text=" " fill="#dee4e3" transform="translate(666 173.16) rotate(0) scale(0.023999998)"/>
<g data-source-text="===" fill="#dee4e340" transform="translate(678 173.16) rotate(0) scale(0.023999998)">
<use href="#path4" transform="translate(0 0)"/>
<use href="#path4" transform="translate(500 0)"/>
<use href="#path4" transform="translate(1000 0)"/>
</g>
<g data-source-text=" " fill="#dee4e3" transform="translate(714 173.16) rotate(0) scale(0.023999998)"/>
<g data-source-text="!==" fill="#dee4e340" transform="translate(726 173.16) rotate(0) scale(0.023999998)">
<use href="#path9" transform="translate(0 0)"/>
<use href="#path4" transform="translate(500 0)"/>
<use href="#path4" transform="translate(1000 0)"/>
</g>
<g data-source-text=" " fill="#dee4e3" transform="translate(762 173.16) rotate(0) scale(0.023999998)"/>
<g data-source-text="!===" fill="#dee4e340" transform="translate(774 173.16) rotate(0) scale(0.023999998)">
<use href="#path9" transform="translate(0 0)"/>
<use href="#path4" transform="translate(500 0)"/>
<use href="#path4" transform="translate(1000 0)"/>
<use href="#path4" transform="translate(1500 0)"/>
</g>
<g data-source-text=" " fill="#dee4e3" transform="translate(822 173.16) rotate(0) scale(0.023999998)"/>
<g data-source-text="=/=" fill="#dee4e340" transform="translate(834 173.16) rotate(0) scale(0.023999998)">
<use href="#path4" transform="translate(0 0)"/>
<use href="#path8" transform="translate(500 0)"/>
<use href="#path4" transform="translate(1000 0)"/>
</g>
<g data-source-text=" " fill="#dee4e3" transform="translate(870 173.16) rotate(0) scale(0.023999998)"/>
<g data-source-text="=!=" fill="#dee4e340" transform="translate(882 173.16) rotate(0) scale(0.023999998)">
<use href="#path4" transform="translate(0 0)"/>
<use href="#path9" transform="translate(500 0)"/>
<use href="#path4" transform="translate(1000 0)"/>
</g>
<g data-source-text=" " fill="#dee4e3" transform="translate(918 173.16) rotate(0) scale(0.023999998)"/>
<g data-source-text="&#xA;" fill="#dee4e3" transform="translate(930 173.16) rotate(0) scale(0.023999998)"/>
<g data-source-text="&lt;:" fill="#dee4e340" transform="translate(282 210.66) rotate(0) scale(0.023999998)">
<use href="#path2" transform="translate(0 0)"/>
<use href="#path5" transform="translate(500 0)"/>
</g>
<g data-source-text=" " fill="#dee4e3" transform="translate(306 210.66) rotate(0) scale(0.023999998)"/>
<g data-source-text=":=" fill="#dee4e340" transform="translate(318 210.66) rotate(0) scale(0.023999998)">
<use href="#path5" transform="translate(0 0)"/>
<use href="#path4" transform="translate(500 0)"/>
</g>
<g data-source-text=" " fill="#dee4e3" transform="translate(342 210.66) rotate(0) scale(0.023999998)"/>
<g data-source-text="*=" fill="#dee4e340" transform="translate(354 210.66) rotate(0) scale(0.023999998)">
<use href="#path10" transform="translate(0 0)"/>
<use href="#path4" transform="translate(500 0)"/>
</g>
<g data-source-text=" " fill="#dee4e3" transform="translate(378 210.66) rotate(0) scale(0.023999998)"/>
<g data-source-text="*+" fill="#dee4e340" transform="translate(390 210.66) rotate(0) scale(0.023999998)">
<use href="#path10" transform="translate(0 0)"/>
<use href="#path11" transform="translate(500 0)"/>
</g>
<g data-source-text=" " fill="#dee4e3" transform="translate(414 210.66) rotate(0) scale(0.023999998)"/>
<g data-source-text="&lt;*" fill="#dee4e340" transform="translate(426 210.66) rotate(0) scale(0.023999998)">
<use href="#path2" transform="translate(0 0)"/>
<use href="#path10" transform="translate(500 0)"/>
</g>
<g data-source-text=" " fill="#dee4e3" transform="translate(450 210.66) rotate(0) scale(0.023999998)"/>
<g data-source-text="&lt;*&gt;" fill="#dee4e340" transform="translate(462 210.66) rotate(0) scale(0.023999998)">
<use href="#path2" transform="translate(0 0)"/>
<use href="#path10" transform="translate(500 0)"/>
<use href="#path3" transform="translate(1000 0)"/>
</g>
<g data-source-text=" " fill="#dee4e3" transform="translate(498 210.66) rotate(0) scale(0.023999998)"/>
<g data-source-text="*&gt;" fill="#dee4e340" transform="translate(510 210.66) rotate(0) scale(0.023999998)">
<use href="#path10" transform="translate(0 0)"/>
<use href="#path3" transform="translate(500 0)"/>
</g>
<g data-source-text=" " fill="#dee4e3" transform="translate(534 210.66) rotate(0) scale(0.023999998)"/>
<g data-source-text="&lt;|" fill="#dee4e340" transform="translate(546 210.66) rotate(0) scale(0.023999998)">
<use href="#path2" transform="translate(0 0)"/>
<use href="#path12" transform="translate(500 0)"/>
</g>
<g data-source-text=" " fill="#dee4e3" transform="translate(570 210.66) rotate(0) scale(0.023999998)"/>
<g data-source-text="&lt;|&gt;" fill="#dee4e340" transform="translate(582 210.66) rotate(0) scale(0.023999998)">
<use href="#path2" transform="translate(0 0)"/>
<use href="#path12" transform="translate(500 0)"/>
<use href="#path3" transform="translate(1000 0)"/>
</g>
<g data-source-text=" " fill="#dee4e3" transform="translate(618 210.66) rotate(0) scale(0.023999998)"/>
<g data-source-text="|&gt;" fill="#dee4e340" transform="translate(630 210.66) rotate(0) scale(0.023999998)">
<use href="#path12" transform="translate(0 0)"/>
<use href="#path3" transform="translate(500 0)"/>
</g>
<g data-source-text=" " fill="#dee4e3" transform="translate(654 210.66) rotate(0) scale(0.023999998)"/>
<g data-source-text="&lt;." fill="#dee4e340" transform="translate(666 210.66) rotate(0) scale(0.023999998)">
<use href="#path2" transform="translate(0 0)"/>
<use href="#path13" transform="translate(500 0)"/>
</g>
<g data-source-text=" " fill="#dee4e3" transform="translate(690 210.66) rotate(0) scale(0.023999998)"/>
<g data-source-text="&lt;.&gt;" fill="#dee4e340" transform="translate(702 210.66) rotate(0) scale(0.023999998)">
<use href="#path2" transform="translate(0 0)"/>
<use href="#path13" transform="translate(500 0)"/>
<use href="#path3" transform="translate(1000 0)"/>
</g>
<g data-source-text=" " fill="#dee4e3" transform="translate(738 210.66) rotate(0) scale(0.023999998)"/>
<g data-source-text=".&gt;" fill="#dee4e340" transform="translate(750 210.66) rotate(0) scale(0.023999998)">
<use href="#path13" transform="translate(0 0)"/>
<use href="#path3" transform="translate(500 0)"/>
</g>
<g data-source-text=" " fill="#dee4e3" transform="translate(774 210.66) rotate(0) scale(0.023999998)"/>
<g data-source-text="+*" fill="#dee4e340" transform="translate(786 210.66) rotate(0) scale(0.023999998)">
<use href="#path11" transform="translate(0 0)"/>
<use href="#path10" transform="translate(500 0)"/>
</g>
<g data-source-text=" " fill="#dee4e3" transform="translate(810 210.66) rotate(0) scale(0.023999998)"/>
<g data-source-text="=*" fill="#dee4e340" transform="translate(822 210.66) rotate(0) scale(0.023999998)">
<use href="#path4" transform="translate(0 0)"/>
<use href="#path10" transform="translate(500 0)"/>
</g>
<g data-source-text=" " fill="#dee4e3" transform="translate(846 210.66) rotate(0) scale(0.023999998)"/>
<g data-source-text="=:" fill="#dee4e340" transform="translate(858 210.66) rotate(0) scale(0.023999998)">
<use href="#path4" transform="translate(0 0)"/>
<use href="#path5" transform="translate(500 0)"/>
</g>
<g data-source-text=" " fill="#dee4e3" transform="translate(882 210.66) rotate(0) scale(0.023999998)"/>
<g data-source-text=":&gt;" fill="#dee4e340" transform="translate(894 210.66) rotate(0) scale(0.023999998)">
<use href="#path5" transform="translate(0 0)"/>
<use href="#path3" transform="translate(500 0)"/>
</g>
<g data-source-text=" " fill="#dee4e3" transform="translate(918 210.66) rotate(0) scale(0.023999998)"/>
<g data-source-text="&#xA;" fill="#dee4e3" transform="translate(930 210.66) rotate(0) scale(0.023999998)"/>
<g data-source-text="(*" fill="#dee4e340" transform="translate(282 248.16) rotate(0) scale(0.023999998)">
<use href="#path14" transform="translate(0 0)"/>
<use href="#path10" transform="translate(500 0)"/>
</g>
<g data-source-text=" " fill="#dee4e3" transform="translate(306 248.16) rotate(0) scale(0.023999998)"/>
<g data-source-text="*)" fill="#dee4e340" transform="translate(318 248.16) rotate(0) scale(0.023999998)">
<use href="#path10" transform="translate(0 0)"/>
<use href="#path15" transform="translate(500 0)"/>
</g>
<g data-source-text=" " fill="#dee4e3" transform="translate(342 248.16) rotate(0) scale(0.023999998)"/>
<g data-source-text="/*" fill="#dee4e340" transform="translate(354 248.16) rotate(0) scale(0.023999998)">
<use href="#path8" transform="translate(0 0)"/>
<use href="#path10" transform="translate(500 0)"/>
</g>
<g data-source-text=" " fill="#dee4e3" transform="translate(378 248.16) rotate(0) scale(0.023999998)"/>
<g data-source-text="*/" fill="#dee4e340" transform="translate(390 248.16) rotate(0) scale(0.023999998)">
<use href="#path10" transform="translate(0 0)"/>
<use href="#path8" transform="translate(500 0)"/>
</g>
<g data-source-text=" " fill="#dee4e3" transform="translate(414 248.16) rotate(0) scale(0.023999998)"/>
<g data-source-text="[|" fill="#dee4e340" transform="translate(426 248.16) rotate(0) scale(0.023999998)">
<use href="#path16" transform="translate(0 0)"/>
<use href="#path12" transform="translate(500 0)"/>
</g>
<g data-source-text=" " fill="#dee4e3" transform="translate(450 248.16) rotate(0) scale(0.023999998)"/>
<g data-source-text="|]" fill="#dee4e340" transform="translate(462 248.16) rotate(0) scale(0.023999998)">
<use href="#path12" transform="translate(0 0)"/>
<use href="#path17" transform="translate(500 0)"/>
</g>
<g data-source-text=" " fill="#dee4e3" transform="translate(486 248.16) rotate(0) scale(0.023999998)"/>
<g data-source-text="{|" fill="#dee4e340" transform="translate(498 248.16) rotate(0) scale(0.023999998)">
<use href="#path18" transform="translate(0 0)"/>
<use href="#path12" transform="translate(500 0)"/>
</g>
<g data-source-text=" " fill="#dee4e3" transform="translate(522 248.16) rotate(0) scale(0.023999998)"/>
<g data-source-text="|}" fill="#dee4e340" transform="translate(534 248.16) rotate(0) scale(0.023999998)">
<use href="#path12" transform="translate(0 0)"/>
<use href="#path19" transform="translate(500 0)"/>
</g>
<g data-source-text=" " fill="#dee4e3" transform="translate(558 248.16) rotate(0) scale(0.023999998)"/>
<g data-source-text="++" fill="#dee4e340" transform="translate(570 248.16) rotate(0) scale(0.023999998)">
<use href="#path11" transform="translate(0 0)"/>
<use href="#path11" transform="translate(500 0)"/>
</g>
<g data-source-text=" " fill="#dee4e3" transform="translate(594 248.16) rotate(0) scale(0.023999998)"/>
<g data-source-text="+++" fill="#dee4e340" transform="translate(606 248.16) rotate(0) scale(0.023999998)">
<use href="#path11" transform="translate(0 0)"/>
<use href="#path11" transform="translate(500 0)"/>
<use href="#path11" transform="translate(1000 0)"/>
</g>
<g data-source-text=" " fill="#dee4e3" transform="translate(642 248.16) rotate(0) scale(0.023999998)"/>
<g data-source-text="\/" fill="#dee4e340" transform="translate(654 248.16) rotate(0) scale(0.023999998)">
<use href="#path20" transform="translate(0 0)"/>
<use href="#path8" transform="translate(500 0)"/>
</g>
<g data-source-text=" " fill="#dee4e3" transform="translate(678 248.16) rotate(0) scale(0.023999998)"/>
<g data-source-text="/\" fill="#dee4e340" transform="translate(690 248.16) rotate(0) scale(0.023999998)">
<use href="#path8" transform="translate(0 0)"/>
<use href="#path20" transform="translate(500 0)"/>
</g>
<g data-source-text=" " fill="#dee4e3" transform="translate(714 248.16) rotate(0) scale(0.023999998)"/>
<g data-source-text="|-" fill="#dee4e340" transform="translate(726 248.16) rotate(0) scale(0.023999998)">
<use href="#path12" transform="translate(0 0)"/>
<use href="#path1" transform="translate(500 0)"/>
</g>
<g data-source-text=" " fill="#dee4e3" transform="translate(750 248.16) rotate(0) scale(0.023999998)"/>
<g data-source-text="-|" fill="#dee4e340" transform="translate(762 248.16) rotate(0) scale(0.023999998)">
<use href="#path1" transform="translate(0 0)"/>
<use href="#path12" transform="translate(500 0)"/>
</g>
<g data-source-text=" " fill="#dee4e3" transform="translate(786 248.16) rotate(0) scale(0.023999998)"/>
<g data-source-text="&lt;!--" fill="#dee4e340" transform="translate(798 248.16) rotate(0) scale(0.023999998)">
<use href="#path2" transform="translate(0 0)"/>
<use href="#path9" transform="translate(500 0)"/>
<use href="#path1" transform="translate(1000 0)"/>
<use href="#path1" transform="translate(1500 0)"/>
</g>
<g data-source-text=" " fill="#dee4e3" transform="translate(846 248.16) rotate(0) scale(0.023999998)"/>
<g data-source-text="&lt;!---" fill="#dee4e340" transform="translate(858 248.16) rotate(0) scale(0.023999998)">
<use href="#path2" transform="translate(0 0)"/>
<use href="#path9" transform="translate(500 0)"/>
<use href="#path1" transform="translate(1000 0)"/>
<use href="#path1" transform="translate(1500 0)"/>
<use href="#path1" transform="translate(2000 0)"/>
</g>
<g data-source-text=" " fill="#dee4e3" transform="translate(918 248.16) rotate(0) scale(0.023999998)"/>
</g>
</svg>