<?xml version="1.0" encoding="UTF-8" standalone="no"?>
<svg height="300" viewBox="0 0 1200 300" width="1200" xmlns="http://www.w3.org/2000/svg">
<defs>
<path d="M 436 -305 L 64 -305 L 64 -375 L 436 -375 Z " id="path1"/>
<path d="M 484 -83 L 131 -301 L 131 -379 L 484 -597 L 522 -541 L 195 -340 L 522 -139 Z " id="path2"/>
<path d="M 350 -83 L -3 -301 L -3 -379 L 350 -597 L 388 -541 L 61 -340 L 388 -139 Z " id="path3"/>
<path d="M 417 -83 L 64 -301 L 64 -379 L 417 -597 L 455 -541 L 128 -340 L 455 -139 Z " id="path4"/>
<path d="M 436 -307 L -382 -307 L -382 -373 L 436 -373 Z " id="path5"/>
<path d="M 436 -307 L -64 -307 L -101 -340 L -64 -373 L 436 -373 Z " id="path6"/>
<path d="M 284 -83 L -69 -301 L -69 -379 L 284 -597 L 322 -541 L -5 -340 L 322 -139 Z " id="path7"/>
<path d="M 436 -307 L -515 -307 L -515 -373 L 436 -373 Z " id="path8"/>
<path d="M 882 -307 L 64 -307 L 64 -373 L 882 -373 Z " id="path9"/>
<path d="M 83 -83 L 45 -139 L 372 -340 L 45 -541 L 83 -597 L 436 -379 L 436 -301 Z " id="path10"/>
<path d="M 1015 -307 L 64 -307 L 64 -373 L 1015 -373 Z " id="path11"/>
<path d="M 216 -83 L 178 -139 L 505 -340 L 178 -541 L 216 -597 L 569 -379 L 569 -301 Z " id="path12"/>
<path d="M 64 -307 L 64 -373 L 564 -373 L 601 -340 L 564 -307 Z " id="path13"/>
<path d="M 150 -83 L 112 -139 L 439 -340 L 112 -541 L 150 -597 L 503 -379 L 503 -301 Z " id="path14"/>
<path d="M 16 -83 L -22 -139 L 305 -340 L -22 -541 L 16 -597 L 369 -379 L 369 -301 Z " id="path15"/>
<path d="M 64 -396 L 64 -463 L 436 -463 L 436 -396 Z M 436 -217 L 64 -217 L 64 -284 L 436 -284 Z " id="path16"/>
<path d="M 436 -71 L 64 -301 L 64 -379 L 436 -609 L 436 -429 L 362 -429 L 362 -484 L 128 -340 L 362 -196 L 362 -251 L 436 -251 Z " id="path17"/>
<path d="M -138 -396 L -138 -463 L 436 -463 L 436 -396 Z M -138 -217 L -138 -284 L 436 -284 L 436 -217 Z " id="path18"/>
<path d="M -64 -396 L -101 -429 L -64 -463 L 436 -463 L 436 -396 Z M -64 -217 L -101 -251 L -64 -284 L 436 -284 L 436 -217 Z " id="path19"/>
<path d="M 839 -163 L 150 -388 L 150 -458 L 839 -684 L 861 -621 L 257 -423 L 861 -226 Z " id="path20"/>
<path d="M 350 5 L -350 5 L -350 -61 L 350 -61 Z " id="path21"/>
<path d="M 64 -396 L 64 -463 L 638 -463 L 638 -396 Z M 638 -217 L 64 -217 L 64 -284 L 638 -284 Z " id="path22"/>
<path d="M 64 -71 L 64 -251 L 138 -251 L 138 -196 L 372 -340 L 138 -484 L 138 -429 L 64 -429 L 64 -609 L 436 -379 L 436 -301 Z " id="path23"/>
<path d="M 64 -396 L 64 -463 L 771 -463 L 771 -396 Z M 64 -217 L 64 -284 L 771 -284 L 771 -217 Z " id="path24"/>
<path d="M 197 -71 L 197 -251 L 271 -251 L 271 -196 L 505 -340 L 271 -484 L 271 -429 L 197 -429 L 197 -609 L 569 -379 L 569 -301 Z " id="path25"/>
<path d="M 64 -396 L 64 -463 L 564 -463 L 601 -429 L 564 -396 Z M 64 -217 L 64 -284 L 564 -284 L 601 -251 L 564 -217 Z " id="path26"/>
<path d="M 161 -163 L 139 -226 L 743 -423 L 139 -621 L 161 -684 L 850 -458 L 850 -388 Z " id="path27"/>
<path d="M -382 -307 L -382 -373 L 882 -373 L 882 -307 Z " id="path28"/>
<path d="M -382 -307 L -382 -373 L 500 -373 L 537 -340 L 500 -307 Z " id="path29"/>
<path d="M 0 -307 L -37 -340 L 0 -373 L 882 -373 L 882 -307 Z " id="path30"/>
<path d="M -64 -307 L -101 -340 L -64 -373 L 500 -373 L 537 -340 L 500 -307 Z " id="path31"/>
<path d="M -138 -396 L -138 -463 L 638 -463 L 638 -396 Z M -138 -217 L -138 -284 L 638 -284 L 638 -217 Z " id="path32"/>
<path d="M -138 -396 L -138 -463 L 500 -463 L 537 -429 L 500 -396 Z M -138 -217 L -138 -284 L 500 -284 L 537 -251 L 500 -217 Z " id="path33"/>
<path d="M 0 -396 L -37 -429 L 0 -463 L 638 -463 L 638 -396 Z M 0 -217 L -37 -251 L 0 -284 L 638 -284 L 638 -217 Z " id="path34"/>
<path d="M -64 -396 L -101 -429 L -64 -463 L 500 -463 L 537 -429 L 500 -396 Z M 500 -217 L -64 -217 L -82 -234 L -101 -251 L -64 -284 L 500 -284 L 537 -251 Z " id="path35"/>
<path d="M 280 8 Q 264 8 249 3.5 Q 234 -1 222.5 -12.5 Q 211 -24 206.5 -39 Q 202 -54 202 -70 Q 202 -86 206.5 -101 Q 211 -116 222.5 -127.5 Q 234 -139 249 -143.5 Q 264 -148 280 -148 Q 296 -148 311 -143.5 Q 326 -139 337.5 -127.5 Q 349 -116 353.5 -101 Q 358 -86 358 -70 Q 358 -54 353.5 -39 Q 349 -24 337.5 -12.5 Q 326 -1 311 3.5 Q 296 8 280 8 Z M 280 -372 Q 264 -372 249 -376.5 Q 234 -381 222.5 -392.5 Q 211 -404 206.5 -419 Q 202 -434 202 -450 Q 202 -466 206.5 -481 Q 211 -496 222.5 -507.5 Q 234 -519 249 -523.5 Q 264 -528 280 -528 Q 296 -528 311 -523.5 Q 326 -519 337.5 -507.5 Q 349 -496 353.5 -481 Q 358 -466 358 -450 Q 358 -434 353.5 -419 Q 349 -404 337.5 -392.5 Q 326 -381 311 -376.5 Q 296 -372 280 -372 Z " id="path36"/>
<path d="M 220 8 Q 204 8 189 3.5 Q 174 -1 162.5 -12.5 Q 151 -24 146.5 -39 Q 142 -54 142 -70 Q 142 -86 146.5 -101 Q 151 -116 162.5 -127.5 Q 174 -139 189 -143.5 Q 204 -148 220 -148 Q 236 -148 251 -143.5 Q 266 -139 277.5 -127.5 Q 289 -116 293.5 -101 Q 298 -86 298 -70 Q 298 -54 293.5 -39 Q 289 -24 277.5 -12.5 Q 266 -1 251 3.5 Q 236 8 220 8 Z M 220 -372 Q 204 -372 189 -376.5 Q 174 -381 162.5 -392.5 Q 151 -404 146.5 -419 Q 142 -434 142 -450 Q 142 -466 146.5 -481 Q 151 -496 162.5 -507.5 Q 174 -519 189 -523.5 Q 204 -528 220 -528 Q 236 -528 251 -523.5 Q 266 -519 277.5 -507.5 Q 289 -496 293.5 -481 Q 298 -466 298 -450 Q 298 -434 293.5 -419 Q 289 -404 277.5 -392.5 Q 266 -381 251 -376.5 Q 236 -372 220 -372 Z " id="path37"/>
<path d="M 310 8 Q 294 8 279 3.5 Q 264 -1 252.5 -12.5 Q 241 -24 236.5 -39 Q 232 -54 232 -70 Q 232 -86 236.5 -101 Q 241 -116 252.5 -127.5 Q 264 -139 279 -143.5 Q 294 -148 310 -148 Q 326 -148 341 -143.5 Q 356 -139 367.5 -127.5 Q 379 -116 383.5 -101 Q 388 -86 388 -70 Q 388 -54 383.5 -39 Q 379 -24 367.5 -12.5 Q 356 -1 341 3.5 Q 326 8 310 8 Z M 310 -372 Q 294 -372 279 -376.5 Q 264 -381 252.5 -392.5 Q 241 -404 236.5 -419 Q 232 -434 232 -450 Q 232 -466 236.5 -481 Q 241 -496 252.5 -507.5 Q 264 -519 279 -523.5 Q 294 -528 310 -528 Q 326 -528 341 -523.5 Q 356 -519 367.5 -507.5 Q 379 -496 383.5 -481 Q 388 -466 388 -450 Q 388 -434 383.5 -419 Q 379 -404 367.5 -392.5 Q 356 -381 341 -376.5 Q 326 -372 310 -372 Z " id="path38"/>
<path d="M 250 8 Q 234 8 219 3.5 Q 204 -1 192.5 -12.5 Q 181 -24 176.5 -39 Q 172 -54 172 -70 Q 172 -86 176.5 -101 Q 181 -116 192.5 -127.5 Q 204 -139 219 -143.5 Q 234 -148 250 -148 Q 266 -148 281 -143.5 Q 296 -139 307.5 -127.5 Q 319 -116 323.5 -101 Q 328 -86 328 -70 Q 328 -54 323.5 -39 Q 319 -24 307.5 -12.5 Q 296 -1 281 3.5 Q 266 8 250 8 Z M 250 -372 Q 234 -372 219 -376.5 Q 204 -381 192.5 -392.5 Q 181 -404 176.5 -419 Q 172 -434 172 -450 Q 172 -466 176.5 -481 Q 181 -496 192.5 -507.5 Q 204 -519 219 -523.5 Q 234 -528 250 -528 Q 266 -528 281 -523.5 Q 296 -519 307.5 -507.5 Q 319 -496 323.5 -481 Q 328 -466 328 -450 Q 328 -434 323.5 -419 Q 319 -404 307.5 -392.5 Q 296 -381 281 -376.5 Q 266 -372 250 -372 Z " id="path39"/>
<path d="M 190 8 Q 174 8 159 3.5 Q 144 -1 132.5 -12.5 Q 121 -24 116.5 -39 Q 112 -54 112 -70 Q 112 -86 116.5 -101 Q 121 -116 132.5 -127.5 Q 144 -139 159 -143.5 Q 174 -148 190 -148 Q 206 -148 221 -143.5 Q 236 -139 247.5 -127.5 Q 259 -116 263.5 -101 Q 268 -86 268 -70 Q 268 -54 263.5 -39 Q 259 -24 247.5 -12.5 Q 236 -1 221 3.5 Q 206 8 190 8 Z M 190 -372 Q 174 -372 159 -376.5 Q 144 -381 132.5 -392.5 Q 121 -404 116.5 -419 Q 112 -434 112 -450 Q 112 -466 116.5 -481 Q 121 -496 132.5 -507.5 Q 144 -519 159 -523.5 Q 174 -528 190 -528 Q 206 -528 221 -523.5 Q 236 -519 247.5 -507.5 Q 259 -496 263.5 -481 Q 268 -466 268 -450 Q 268 -434 263.5 -419 Q 259 -404 247.5 -392.5 Q 236 -381 221 -376.5 Q 206 -372 190 -372 Z " id="path40"/>
<path d="M 436 70 L 64 70 L 64 0 L 436 0 Z " id="path41"/>
<path d="M 0 -253 Q -32 -253 -64 -259 Q -96 -265 -127 -273 Q -158 -281 -189.5 -288 Q -221 -295 -253 -299.5 Q -285 -304 -317.5 -305.5 Q -350 -307 -382 -307 L -382 -373 Q -350 -373 -317.5 -372 Q -285 -371 -253 -367 Q -221 -363 -189.5 -356 Q -158 -349 -126.5 -341 Q -95 -333 -63.5 -326 Q -32 -319 0 -319 Q 14 -319 27.5 -320.5 Q 41 -322 53.5 -328.5 Q 66 -335 76.5 -344 Q 87 -353 97 -362 L 98 -363 Q 99 -363 99 -364 L 99 -364 L 100 -364 Q 116 -378 132.5 -391.5 Q 149 -405 168 -413 Q 187 -421 208 -424 Q 229 -427 250 -427 Q 271 -427 292 -424.5 Q 313 -422 332 -413.5 Q 351 -405 367.5 -392 Q 384 -379 400 -365 L 350 -315 Q 340 -325 329 -334.5 Q 318 -344 305.5 -350.5 Q 293 -357 278.5 -359 Q 264 -361 250 -361 Q 236 -361 222.5 -359.5 Q 209 -358 196.5 -351.5 Q 184 -345 173.5 -336 Q 163 -327 153 -318 L 152 -317 Q 151 -317 151 -317 L 151 -316 L 150 -316 Q 134 -302 117.5 -288.5 Q 101 -275 82 -267 Q 63 -259 42 -256 Q 21 -253 0 -253 Z " id="path42"/>
<path d="M 0 -253 Q -21 -253 -42 -255.5 Q -63 -258 -82 -266.5 Q -101 -275 -117.5 -288 Q -134 -301 -150 -315 L -100 -365 Q -90 -355 -79 -345.5 Q -68 -336 -55.5 -329.5 Q -43 -323 -28.5 -321 Q -14 -319 0 -319 Q 14 -319 27.5 -320.5 Q 41 -322 53.5 -328.5 Q 66 -335 76.5 -344 Q 87 -353 97 -362 L 98 -363 Q 99 -363 99 -364 L 99 -364 L 100 -364 Q 116 -378 132.5 -391.5 Q 149 -405 168 -413 Q 187 -421 208 -424 Q 229 -427 250 -427 Q 271 -427 292 -424.5 Q 313 -422 332 -413.5 Q 351 -405 367.5 -392 Q 384 -379 400 -365 L 350 -315 Q 340 -325 329 -334.5 Q 318 -344 305.5 -350.5 Q 293 -357 278.5 -359 Q 264 -361 250 -361 Q 236 -361 222.5 -359.5 Q 209 -358 196.5 -351.5 Q 184 -345 173.5 -336 Q 163 -327 153 -318 L 152 -317 Q 151 -317 151 -317 L 151 -316 L 150 -316 Q 134 -302 117.5 -288.5 Q 101 -275 82 -267 Q 63 -259 42 -256 Q 21 -253 0 -253 Z " id="path43"/>
<path d="M 139 143 L 59 143 L 361 -823 L 441 -823 Z " id="path44"/>
<path d="M 500 -253 Q 479 -253 458 -256 Q 437 -259 418 -267 Q 399 -275 382.5 -288.5 Q 366 -302 350 -316 L 349 -316 L 349 -317 Q 349 -317 348 -317 L 347 -318 Q 337 -327 326.5 -336 Q 316 -345 303.5 -351.5 Q 291 -358 277.5 -359.5 Q 264 -361 250 -361 Q 236 -361 221.5 -359 Q 207 -357 194.5 -350.5 Q 182 -344 171 -334.5 Q 160 -325 150 -315 L 100 -365 Q 116 -379 132.5 -392 Q 149 -405 168 -413.5 Q 187 -422 208 -424.5 Q 229 -427 250 -427 Q 271 -427 292 -424 Q 313 -421 332 -413 Q 351 -405 367.5 -391.5 Q 384 -378 400 -364 L 401 -364 L 401 -364 Q 401 -363 402 -363 L 403 -362 Q 413 -353 423.5 -344 Q 434 -335 446.5 -328.5 Q 459 -322 472.5 -320.5 Q 486 -319 500 -319 Q 514 -319 528.5 -321 Q 543 -323 555.5 -329.5 Q 568 -336 579 -345.5 Q 590 -355 600 -365 L 650 -315 Q 634 -301 617.5 -288 Q 601 -275 582 -266.5 Q 563 -258 542 -255.5 Q 521 -253 500 -253 Z " id="path45"/>
<path d="M 500 -253 Q 479 -253 458 -256 Q 437 -259 418 -267 Q 399 -275 382.5 -288.5 Q 366 -302 350 -316 L 349 -316 L 349 -317 Q 349 -317 348 -317 L 347 -318 Q 337 -327 326.5 -336 Q 316 -345 303.5 -351.5 Q 291 -358 277.5 -359.5 Q 264 -361 250 -361 Q 236 -361 221.5 -359 Q 207 -357 194.5 -350.5 Q 182 -344 171 -334.5 Q 160 -325 150 -315 L 100 -365 Q 116 -379 132.5 -392 Q 149 -405 168 -413.5 Q 187 -422 208 -424.5 Q 229 -427 250 -427 Q 271 -427 292 -424 Q 313 -421 332 -413 Q 351 -405 367.5 -391.5 Q 384 -378 400 -364 L 401 -364 L 401 -364 Q 401 -363 402 -363 L 403 -362 Q 413 -353 423.5 -344 Q 434 -335 446.5 -328.5 Q 459 -322 472.5 -320.5 Q 486 -319 500 -319 Q 532 -319 563.5 -326 Q 595 -333 626.5 -341 Q 658 -349 689.5 -356 Q 721 -363 753 -367 Q 785 -371 817.5 -372 Q 850 -373 882 -373 L 882 -307 Q 850 -307 817.5 -305.5 Q 785 -304 753 -299.5 Q 721 -295 689.5 -288 Q 658 -281 627 -273 Q 596 -265 564 -259 Q 532 -253 500 -253 Z " id="path46"/>
<path d="M 64 -396 L 64 -463 L 500 -463 L 537 -429 L 530 -423 L 530 -429 L 470 -429 L 470 -396 Z M 64 -217 L 64 -284 L 470 -284 L 470 -251 L 530 -251 L 530 -257 L 537 -251 L 500 -217 Z " id="path47"/>
<path d="M 30 -396 L 30 -429 L -30 -429 L -30 -423 L -37 -429 L 0 -463 L 436 -463 L 436 -396 Z M 0 -217 L -37 -251 L -30 -257 L -30 -251 L 30 -251 L 30 -284 L 436 -284 L 436 -217 Z " id="path48"/>
<path d="M 381 81 L 312 58 L 619 -761 L 688 -738 Z " id="path49"/>
<path d="M -436 -396 L -436 -463 L 436 -463 L 436 -396 L 30 -396 L 30 -429 L -30 -429 L -30 -396 Z M 436 -217 L -436 -217 L -436 -284 L -30 -284 L -30 -251 L 30 -251 L 30 -284 L 436 -284 Z " id="path50"/>
<path d="M 323 -184 Q 315 -184 308 -185.5 Q 301 -187 294.5 -189.5 Q 288 -192 282 -196 Q 276 -200 271 -204.5 Q 266 -209 261.5 -214 Q 257 -219 252.5 -224.5 Q 248 -230 244 -236 Q 240 -242 236.5 -248 Q 233 -254 229.5 -260 Q 226 -266 222.5 -272 Q 219 -278 215 -285 Q 211 -292 207 -298.5 Q 203 -305 199.5 -311 Q 196 -317 192.5 -322 Q 189 -327 182.5 -333 Q 176 -339 176 -342 L 179 -342 Q 179 -341 174.5 -337 Q 170 -333 166 -328.5 Q 162 -324 159 -319 Q 156 -314 154 -311 Q 152 -308 150 -304.5 Q 148 -301 146 -297 Q 144 -293 142 -289 Q 140 -285 138 -280.5 Q 136 -276 133.5 -271.5 Q 131 -267 128.5 -262 Q 126 -257 124 -251.5 Q 122 -246 119.5 -240 Q 117 -234 114.5 -228 Q 112 -222 109.5 -215 Q 107 -208 104 -201 Q 101 -194 99 -187 L 29 -210 Q 34 -222 38 -232.5 Q 42 -243 46 -253 Q 50 -263 54 -272.5 Q 58 -282 62 -290.5 Q 66 -299 69.5 -306.5 Q 73 -314 77 -321.5 Q 81 -329 85 -335 Q 89 -341 92.5 -347 Q 96 -353 102 -361 Q 108 -369 114 -376 Q 120 -383 127 -388.5 Q 134 -394 142 -398.5 Q 150 -403 159 -405.5 Q 168 -408 177 -408 Q 185 -408 192 -406.5 Q 199 -405 205.5 -402.5 Q 212 -400 218 -396 Q 224 -392 229 -387.5 Q 234 -383 238.5 -378 Q 243 -373 247.5 -367.5 Q 252 -362 256 -356 Q 260 -350 263.5 -344 Q 267 -338 270.5 -332 Q 274 -326 277.5 -320 Q 281 -314 285 -307 Q 289 -300 293 -293.5 Q 297 -287 300.5 -281 Q 304 -275 307.5 -270 Q 311 -265 317.5 -259 Q 324 -253 324 -250 L 321 -250 Q 321 -251 325.5 -255 Q 330 -259 334 -264 Q 338 -269 341 -273.5 Q 344 -278 346 -281 Q 348 -284 350 -287.5 Q 352 -291 354 -295 Q 356 -299 358 -303 Q 360 -307 362 -311.5 Q 364 -316 366.5 -320.5 Q 369 -325 371.5 -330 Q 374 -335 376 -340.5 Q 378 -346 380.5 -352 Q 383 -358 385.5 -364 Q 388 -370 390.5 -377 Q 393 -384 396 -391 Q 399 -398 401 -405 L 471 -382 Q 466 -370 462 -359.5 Q 458 -349 454 -339 Q 450 -329 446 -319.5 Q 442 -310 438 -301.5 Q 434 -293 430.5 -285.5 Q 427 -278 423 -270.5 Q 419 -263 415 -257 Q 411 -251 407.5 -245 Q 404 -239 398 -231 Q 392 -223 386 -216 Q 380 -209 373 -203.5 Q 366 -198 358 -193.5 Q 350 -189 341 -186.5 Q 332 -184 323 -184 Z " id="path51"/>
<path d="M 64 -441 L 64 -507 L 500 -507 L 537 -474 L 530 -468 L 530 -474 L 470 -474 L 470 -441 Z M 470 -307 L 64 -307 L 64 -373 L 470 -373 Z M 530 -334 L 530 -346 L 537 -340 Z M 64 -173 L 64 -239 L 470 -239 L 470 -206 L 530 -206 L 530 -212 L 537 -206 L 500 -173 Z " id="path52"/>
<path d="M 30 -441 L 30 -474 L -30 -474 L -30 -468 L -37 -474 L 0 -507 L 500 -507 L 537 -474 L 530 -468 L 530 -474 L 470 -474 L 470 -441 Z M 470 -307 L 30 -307 L 30 -373 L 470 -373 Z M -30 -334 L -37 -340 L -30 -346 Z M 530 -334 L 530 -346 L 537 -340 Z M 500 -173 L 0 -173 L -37 -206 L -30 -212 L -30 -206 L 30 -206 L 30 -239 L 470 -239 L 470 -206 L 530 -206 L 530 -212 L 537 -206 Z " id="path53"/>
<path d="M 30 -441 L 30 -474 L -30 -474 L -30 -468 L -37 -474 L 0 -507 L 436 -507 L 436 -441 Z M 30 -307 L 30 -373 L 436 -373 L 436 -307 Z M -30 -334 L -37 -340 L -30 -346 Z M 436 -173 L 0 -173 Q -9 -181 -18.5 -189.5 Q -28 -198 -37 -206 L -30 -212 L -30 -206 L 30 -206 L 30 -239 L 436 -239 Z " id="path54"/>
<path d="M 631 81 L 562 58 L 869 -761 L 938 -738 Z " id="path55"/>
<path d="M -436 -441 L -436 -507 L 500 -507 L 537 -474 L 530 -468 L 530 -474 L 470 -474 L 470 -441 L 30 -441 L 30 -474 L -30 -474 L -30 -441 Z M 470 -307 L 30 -307 L 30 -373 L 470 -373 Z M -436 -307 L -436 -373 L -30 -373 L -30 -307 Z M 530 -334 L 530 -346 L 537 -340 Z M 500 -173 L -436 -173 L -436 -239 L -30 -239 L -30 -206 L 30 -206 L 30 -239 L 470 -239 L 470 -206 L 530 -206 L 530 -212 L 537 -206 Z " id="path56"/>
<path d="M 881 81 L 812 58 L 1119 -761 L 1188 -738 Z " id="path57"/>
<path d="M 30 -396 L 30 -429 L -30 -429 L -30 -396 L -436 -396 L -436 -463 L 500 -463 L 537 -429 L 530 -423 L 530 -429 L 470 -429 L 470 -396 Z M -436 -217 L -436 -284 L -30 -284 L -30 -251 L 30 -251 L 30 -284 L 470 -284 L 470 -251 L 530 -251 L 530 -257 L 537 -251 L 500 -217 Z " id="path58"/>
<path d="M 30 -396 L 30 -429 L -30 -429 L -30 -423 L -37 -429 L 0 -463 L 500 -463 L 537 -429 L 530 -423 L 530 -429 L 470 -429 L 470 -396 Z M 500 -217 L 0 -217 L -37 -251 L -30 -257 L -30 -251 L 30 -251 L 30 -284 L 470 -284 L 470 -251 L 530 -251 L 530 -257 L 537 -251 Z " id="path59"/>
<path d="M 250 -72 Q 234 -72 219 -76.5 Q 204 -81 192.5 -92.5 Q 181 -104 176.5 -119 Q 172 -134 172 -150 Q 172 -166 176.5 -181 Q 181 -196 192.5 -207.5 Q 204 -219 219 -223.5 Q 234 -228 250 -228 Q 266 -228 281 -223.5 Q 296 -219 307.5 -207.5 Q 319 -196 323.5 -181 Q 328 -166 328 -150 Q 328 -134 323.5 -119 Q 319 -104 307.5 -92.5 Q 296 -81 281 -76.5 Q 266 -72 250 -72 Z M 250 -452 Q 234 -452 219 -456.5 Q 204 -461 192.5 -472.5 Q 181 -484 176.5 -499 Q 172 -514 172 -530 Q 172 -546 176.5 -561 Q 181 -576 192.5 -587.5 Q 204 -599 219 -603.5 Q 234 -608 250 -608 Q 266 -608 281 -603.5 Q 296 -599 307.5 -587.5 Q 319 -576 323.5 -561 Q 328 -546 328 -530 Q 328 -514 323.5 -499 Q 319 -484 307.5 -472.5 Q 296 -461 281 -456.5 Q 266 -452 250 -452 Z " id="path60"/>
<path d="M 158 -150 L 95 -191 L 200 -325 L 38 -372 L 62 -438 L 217 -382 L 211 -550 L 289 -550 L 283 -382 L 438 -438 L 462 -372 L 300 -325 L 405 -191 L 342 -150 L 250 -286 Z " id="path61"/>
<path d="M 213 -147 L 213 -307 L 64 -307 L 64 -373 L 213 -373 L 213 -533 L 287 -533 L 287 -373 L 436 -373 L 436 -307 L 287 -307 L 287 -147 Z " id="path62"/>
<path d="M 620 4 L 126 -301 L 126 -379 L 620 -684 L 659 -628 L 190 -340 L 659 -52 Z " id="path63"/>
<path d="M 213 42 L 213 -722 L 287 -722 L 287 42 Z " id="path64"/>
<path d="M -120 4 L -159 -52 L 310 -340 L -159 -628 L -120 -684 L 374 -379 L 374 -301 Z " id="path65"/>
<path d="M 250 -262 Q 234 -262 219 -266.5 Q 204 -271 192.5 -282.5 Q 181 -294 176.5 -309 Q 172 -324 172 -340 Q 172 -356 176.5 -371 Q 181 -386 192.5 -397.5 Q 204 -409 219 -413.5 Q 234 -418 250 -418 Q 266 -418 281 -413.5 Q 296 -409 307.5 -397.5 Q 319 -386 323.5 -371 Q 328 -356 328 -340 Q 328 -324 323.5 -309 Q 319 -294 307.5 -282.5 Q 296 -271 281 -266.5 Q 266 -262 250 -262 Z " id="path66"/>
<path d="M 372 161 Q 329 137 291.5 104.5 Q 254 72 224 32.5 Q 194 -7 173 -52 Q 152 -97 139 -144.5 Q 126 -192 120.5 -241.5 Q 115 -291 115 -340 Q 115 -389 120.5 -438.5 Q 126 -488 139 -535.5 Q 152 -583 173 -628 Q 194 -673 224 -712.5 Q 254 -752 291.5 -784.5 Q 329 -817 372 -841 L 410 -780 Q 355 -748 311.5 -699 Q 268 -650 241 -591.5 Q 214 -533 203.5 -468.5 Q 193 -404 193 -340 Q 193 -276 203.5 -211.5 Q 214 -147 241 -88.5 Q 268 -30 311.5 19 Q 355 68 410 100 Z " id="path67"/>
<path d="M 158 -416 L 95 -457 L 200 -591 L 38 -638 L 62 -704 L 217 -648 L 211 -816 L 289 -816 L 283 -648 L 438 -704 L 462 -638 L 300 -591 L 405 -457 L 342 -416 L 250 -552 Z " id="path68"/>
<path d="M 128 161 L 90 100 Q 145 68 188.5 19 Q 232 -30 259 -88.5 Q 286 -147 296.5 -211.5 Q 307 -276 307 -340 Q 307 -404 296.5 -468.5 Q 286 -533 259 -591.5 Q 232 -650 188.5 -699 Q 145 -748 90 -780 L 128 -841 Q 171 -817 208.5 -784.5 Q 246 -752 276 -712.5 Q 306 -673 327 -628 Q 348 -583 361 -535.5 Q 374 -488 379.5 -438.5 Q 385 -389 385 -340 Q 385 -291 379.5 -241.5 Q 374 -192 361 -144.5 Q 348 -97 327 -52 Q 306 -7 276 32.5 Q 246 72 208.5 104.5 Q 171 137 128 161 Z " id="path69"/>
<path d="M 123 143 L 123 -823 L 399 -823 L 399 -753 L 201 -753 L 201 73 L 399 73 L 399 143 Z " id="path70"/>
<path d="M 211 143 L 211 -823 L 289 -823 L 289 143 Z " id="path71"/>
<path d="M 101 143 L 101 73 L 299 73 L 299 -753 L 101 -753 L 101 -823 L 377 -823 L 377 143 Z " id="path72"/>
<path d="M 399 153 Q 372 153 345 149.5 Q 318 146 292 137 Q 266 128 243 113 Q 220 98 203 76.5 Q 186 55 178 29 Q 170 3 170 -24 Q 170 -47 175.5 -69.5 Q 181 -92 190 -112.5 Q 199 -133 208.5 -154 Q 218 -175 218 -198 Q 218 -214 213.5 -230 Q 209 -246 199.5 -259 Q 190 -272 176 -281.5 Q 162 -291 146.5 -296 Q 131 -301 115 -303 Q 99 -305 83 -305 L 83 -375 Q 99 -375 115 -377 Q 131 -379 146.5 -384 Q 162 -389 176 -398.5 Q 190 -408 199.5 -421 Q 209 -434 213.5 -450 Q 218 -466 218 -482 Q 218 -505 208.5 -526 Q 199 -547 190 -567.5 Q 181 -588 175.5 -610.5 Q 170 -633 170 -656 Q 170 -683 178 -709 Q 186 -735 203 -756.5 Q 220 -778 243 -793 Q 266 -808 292 -817 Q 318 -826 345 -829.5 Q 372 -833 399 -833 L 399 -763 Q 381 -763 364 -761 Q 347 -759 330.5 -754 Q 314 -749 298.5 -740.5 Q 283 -732 271.5 -719 Q 260 -706 254 -689.5 Q 248 -673 248 -656 Q 248 -640 252.5 -625.5 Q 257 -611 263 -597.5 Q 269 -584 275.5 -570 Q 282 -556 286.5 -541.5 Q 291 -527 293 -512 Q 295 -497 295 -482 Q 295 -459 289 -436 Q 283 -413 269 -394 Q 255 -375 235.5 -361.5 Q 216 -348 195 -340 Q 216 -332 235.5 -318.5 Q 255 -305 269 -286 Q 283 -267 289 -244 Q 295 -221 295 -198 Q 295 -183 293 -168 Q 291 -153 286.5 -138.5 Q 282 -124 275.5 -110 Q 269 -96 263 -82.5 Q 257 -69 252.5 -54.5 Q 248 -40 248 -24 Q 248 -7 254 9.5 Q 260 26 271.5 39 Q 283 52 298.5 60.5 Q 314 69 330.5 74 Q 347 79 364 81 Q 381 83 399 83 Z " id="path73"/>
<path d="M 101 153 L 101 83 Q 119 83 136 81 Q 153 79 169.5 74 Q 186 69 201.5 60.5 Q 217 52 228.5 39 Q 240 26 246 9.5 Q 252 -7 252 -24 Q 252 -40 247.5 -54.5 Q 243 -69 237 -82.5 Q 231 -96 224.5 -110 Q 218 -124 213.5 -138.5 Q 209 -153 207 -168 Q 205 -183 205 -198 Q 205 -221 211 -244 Q 217 -267 231 -286 Q 245 -305 264.5 -318.5 Q 284 -332 305 -340 Q 284 -348 264.5 -361.5 Q 245 -375 231 -394 Q 217 -413 211 -436 Q 205 -459 205 -482 Q 205 -497 207 -512 Q 209 -527 213.5 -541.5 Q 218 -556 224.5 -570 Q 231 -584 237 -597.5 Q 243 -611 247.5 -625.5 Q 252 -640 252 -656 Q 252 -673 246 -689.5 Q 240 -706 228.5 -719 Q 217 -732 201.5 -740.5 Q 186 -749 169.5 -754 Q 153 -759 136 -761 Q 119 -763 101 -763 L 101 -833 Q 128 -833 155 -829.5 Q 182 -826 208 -817 Q 234 -808 257 -793 Q 280 -778 297 -756.5 Q 314 -735 322 -709 Q 330 -683 330 -656 Q 330 -633 324.5 -610.5 Q 319 -588 310 -567.5 Q 301 -547 291.5 -526 Q 282 -505 282 -482 Q 282 -466 286.5 -450 Q 291 -434 300.5 -421 Q 310 -408 324 -398.5 Q 338 -389 353.5 -384 Q 369 -379 385 -377 Q 401 -375 417 -375 L 417 -305 Q 401 -305 385 -303 Q 369 -301 353.5 -296 Q 338 -291 324 -281.5 Q 310 -272 300.5 -259 Q 291 -246 286.5 -230 Q 282 -214 282 -198 Q 282 -175 291.5 -154 Q 301 -133 310 -112.5 Q 319 -92 324.5 -69.5 Q 330 -47 330 -24 Q 330 3 322 29 Q 314 55 297 76.5 Q 280 98 257 113 Q 234 128 208 137 Q 182 146 155 149.5 Q 128 153 101 153 Z " id="path74"/>
<path d="M 277 -147 L 277 -307 L 64 -307 L 64 -373 L 277 -373 L 277 -533 L 351 -533 L 351 -373 L 500 -373 L 537 -340 L 500 -307 L 351 -307 L 351 -147 Z " id="path75"/>
<path d="M 213 -147 L 213 -307 L 0 -307 L -37 -340 L 0 -373 L 213 -373 L 213 -533 L 287 -533 L 287 -373 L 500 -373 L 537 -340 L 500 -307 L 287 -307 L 287 -147 Z " id="path76"/>
<path d="M 149 -147 L 149 -307 L 0 -307 L -37 -340 L 0 -373 L 149 -373 L 149 -533 L 223 -533 L 223 -373 L 436 -373 L 436 -307 L 223 -307 L 223 -147 Z " id="path77"/>
<path d="M 441 143 L 361 143 L 59 -823 L 139 -823 Z " id="path78"/>
<path d="M 211 -260 L 211 -735 L 289 -735 L 289 -260 Z M 250 8 Q 236 8 222 4 Q 208 0 198 -10.5 Q 188 -21 183.5 -34.5 Q 179 -48 179 -63 Q 179 -77 183.5 -90.5 Q 188 -104 198 -114.5 Q 208 -125 222 -129 Q 236 -133 250 -133 Q 264 -133 278 -129 Q 292 -125 302 -114.5 Q 312 -104 316 -90.5 Q 320 -77 320 -63 Q 320 -48 316 -34.5 Q 312 -21 302 -10.5 Q 292 0 278 4 Q 264 8 250 8 Z " id="path79"/>
<path d="M 470 -307 L 64 -307 L 64 -373 L 470 -373 L 470 -362 L 512 -362 L 537 -340 L 512 -318 L 470 -318 Z " id="path80"/>
<path d="M 470 -307 L 30 -307 L 30 -318 L -12 -318 L -37 -340 L -12 -362 L 30 -362 L 30 -373 L 470 -373 L 470 -362 L 512 -362 L 537 -340 L 512 -318 L 470 -318 Z " id="path81"/>
<path d="M 436 -307 L 30 -307 L 30 -318 L -12 -318 L -37 -340 L -12 -362 L 30 -362 L 30 -373 L 436 -373 Z " id="path82"/>
</defs>
<g>
<g data-source-text="-&lt;&lt;" fill="#20242e40" transform="translate(282 60.66) rotate(0) scale(0.023999998)">
<use href="#path1" transform="translate(0 0)"/>
<use href="#path2" transform="translate(500 0)"/>
<use href="#path3" transform="translate(1000 0)"/>
</g>
<g data-source-text=" " fill="#20242e" transform="translate(318 60.66) rotate(0) scale(0.023999998)"/>
<g data-source-text="-&lt;" fill="#20242e40" transform="translate(330 60.66) rotate(0) scale(0.023999998)">
<use href="#path1" transform="translate(0 0)"/>
<use href="#path4" transform="translate(500 0)"/>
</g>
<g data-source-text=" " fill="#20242e" transform="translate(354 60.66) rotate(0) scale(0.023999998)"/>
<g data-source-text="-&lt;-" fill="#20242e40" transform="translate(366 60.66) rotate(0) scale(0.023999998)">
<use href="#path1" transform="translate(0 0)"/>
<use href="#path4" transform="translate(500 0)"/>
<use href="#path5" transform="translate(1000 0)"/>
</g>
<g data-source-text=" " fill="#20242e" transform="translate(402 60.66) rotate(0) scale(0.023999998)"/>
<g data-source-text="&lt;--" fill="#20242e" transform="translate(414 60.66) rotate(0) scale(0.023999998)">
<use href="#path4" transform="translate(0 0)"/>
<use href="#path5" transform="translate(500 0)"/>
<use href="#path6" transform="translate(1000 0)"/>
</g>
<g data-source-text=" " fill="#20242e" transform="translate(450 60.66) rotate(0) scale(0.023999998)"/>
<g data-source-text="&lt;---" fill="#20242e" transform="translate(462 60.66) rotate(0) scale(0.023999998)">
<use href="#path4" transform="translate(0 0)"/>
<use href="#path5" transform="translate(500 0)"/>
<use href="#path6" transform="translate(1000 0)"/>
<use href="#path6" transform="translate(1500 0)"/>
</g>
<g data-source-text=" " fill="#20242e" transform="translate(510 60.66) rotate(0) scale(0.023999998)"/>
<g data-source-text="&lt;&lt;-" fill="#20242e" transform="translate(522 60.66) rotate(0) scale(0.023999998)">
<use href="#path4" transform="translate(0 0)"/>
<use href="#path7" transform="translate(500 0)"/>
<use href="#path8" transform="translate(1000 0)"/>
</g>
<g data-source-text=" " fill="#20242e" transform="translate(558 60.66) rotate(0) scale(0.023999998)"/>
<g data-source-text="&lt;-" fill="#20242e" transform="translate(570 60.66) rotate(0) scale(0.023999998)">
<use href="#path4" transform="translate(0 0)"/>
<use href="#path5" transform="translate(500 0)"/>
</g>
<g data-source-text=" " fill="#20242e" transform="translate(594 60.66) rotate(0) scale(0.023999998)"/>
<g data-source-text="-&gt;" fill="#20242e" transform="translate(606 60.66) rotate(0) scale(0.023999998)">
<use href="#path9" transform="translate(0 0)"/>
<use href="#path10" transform="translate(500 0)"/>
</g>
<g data-source-text=" " fill="#20242e" transform="translate(630 60.66) rotate(0) scale(0.023999998)"/>
<g data-source-text="-&gt;&gt;" fill="#20242e" transform="translate(642 60.66) rotate(0) scale(0.023999998)">
<use href="#path11" transform="translate(0 0)"/>
<use href="#path12" transform="translate(500 0)"/>
<use href="#path10" transform="translate(1000 0)"/>
</g>
<g data-source-text=" " fill="#20242e" transform="translate(678 60.66) rotate(0) scale(0.023999998)"/>
<g data-source-text="--&gt;" fill="#20242e" transform="translate(690 60.66) rotate(0) scale(0.023999998)">
<use href="#path13" transform="translate(0 0)"/>
<use href="#path9" transform="translate(500 0)"/>
<use href="#path10" transform="translate(1000 0)"/>
</g>
<g data-source-text=" " fill="#20242e" transform="translate(726 60.66) rotate(0) scale(0.023999998)"/>
<g data-source-text="---&gt;" fill="#20242e" transform="translate(738 60.66) rotate(0) scale(0.023999998)">
<use href="#path13" transform="translate(0 0)"/>
<use href="#path13" transform="translate(500 0)"/>
<use href="#path9" transform="translate(1000 0)"/>
<use href="#path10" transform="translate(1500 0)"/>
</g>
<g data-source-text=" " fill="#20242e" transform="translate(786 60.66) rotate(0) scale(0.023999998)"/>
<g data-source-text="-&gt;-" fill="#20242e40" transform="translate(798 60.66) rotate(0) scale(0.023999998)">
<use href="#path9" transform="translate(0 0)"/>
<use href="#path10" transform="translate(500 0)"/>
<use href="#path1" transform="translate(1000 0)"/>
</g>
<g data-source-text=" " fill="#20242e" transform="translate(834 60.66) rotate(0) scale(0.023999998)"/>
<g data-source-text="&gt;-" fill="#20242e40" transform="translate(846 60.66) rotate(0) scale(0.023999998)">
<use href="#path10" transform="translate(0 0)"/>
<use href="#path1" transform="translate(500 0)"/>
</g>
<g data-source-text=" " fill="#20242e" transform="translate(870 60.66) rotate(0) scale(0.023999998)"/>
<g data-source-text="&gt;&gt;-" fill="#20242e40" transform="translate(882 60.66) rotate(0) scale(0.023999998)">
<use href="#path14" transform="translate(0 0)"/>
<use href="#path15" transform="translate(500 0)"/>
<use href="#path1" transform="translate(1000 0)"/>
</g>
<g data-source-text=" " fill="#20242e" transform="translate(918 60.66) rotate(0) scale(0.023999998)"/>
<g data-source-text="&#xA;" fill="#20242e" transform="translate(930 60.66) rotate(0) scale(0.023999998)"/>
<g data-source-text="=&lt;&lt;" fill="#20242e40" transform="translate(282 98.16) rotate(0) scale(0.023999998)">
<use href="#path16" transform="translate(0 0)"/>
<use href="#path2" transform="translate(500 0)"/>
<use href="#path3" transform="translate(1000 0)"/>
</g>
<g data-source-text=" " fill="#20242e" transform="translate(318 98.16) rotate(0) scale(0.023999998)"/>
<g data-source-text="=&lt;" fill="#20242e40" transform="translate(330 98.16) rotate(0) scale(0.023999998)">
<use href="#path16" transform="translate(0 0)"/>
<use href="#path4" transform="translate(500 0)"/>
</g>
<g data-source-text=" " fill="#20242e" transform="translate(354 98.16) rotate(0) scale(0.023999998)"/>
<g data-source-text="=&lt;=" fill="#20242e40" transform="translate(366 98.16) rotate(0) scale(0.023999998)">
<use href="#path16" transform="translate(0 0)"/>
<use href="#path17" transform="translate(500 0)"/>
<use href="#path18" transform="translate(1000 0)"/>
</g>
<g data-source-text=" " fill="#20242e" transform="translate(402 98.16) rotate(0) scale(0.023999998)"/>
<g data-source-text="&lt;==" fill="#20242e" transform="translate(414 98.16) rotate(0) scale(0.023999998)">
<use href="#path17" transform="translate(0 0)"/>
<use href="#path18" transform="translate(500 0)"/>
<use href="#path19" transform="translate(1000 0)"/>
</g>
<g data-source-text=" " fill="#20242e" transform="translate(450 98.16) rotate(0) scale(0.023999998)"/>
<g data-source-text="&lt;===" fill="#20242e" transform="translate(462 98.16) rotate(0) scale(0.023999998)">
<use href="#path17" transform="translate(0 0)"/>
<use href="#path18" transform="translate(500 0)"/>
<use href="#path19" transform="translate(1000 0)"/>
<use href="#path19" transform="translate(1500 0)"/>
</g>
<g data-source-text=" " fill="#20242e" transform="translate(510 98.16) rotate(0) scale(0.023999998)"/>
<g data-source-text="&lt;&lt;=" fill="#048fbf" transform="translate(522 98.16) rotate(0) scale(0.023999998)">
<use href="#path2" transform="translate(0 0)"/>
<use href="#path3" transform="translate(500 0)"/>
<use href="#path16" transform="translate(1000 0)"/>
</g>
<g data-source-text=" " fill="#20242e" transform="translate(558 98.16) rotate(0) scale(0.023999998)"/>
<g data-source-text="&lt;=" fill="#048fbf" transform="translate(570 98.16) rotate(0) scale(0.023999998)">
<use href="#path20" transform="translate(0 0)"/>
<use href="#path21" transform="translate(500 0)"/>
</g>
<g data-source-text=" " fill="#20242e" transform="translate(594 98.16) rotate(0) scale(0.023999998)"/>
<g data-source-text="=&gt;" fill="#20242e" transform="translate(606 98.16) rotate(0) scale(0.023999998)">
<use href="#path22" transform="translate(0 0)"/>
<use href="#path23" transform="translate(500 0)"/>
</g>
<g data-source-text=" " fill="#20242e" transform="translate(630 98.16) rotate(0) scale(0.023999998)"/>
<g data-source-text="=&gt;&gt;" fill="#20242e" transform="translate(642 98.16) rotate(0) scale(0.023999998)">
<use href="#path24" transform="translate(0 0)"/>
<use href="#path25" transform="translate(500 0)"/>
<use href="#path10" transform="translate(1000 0)"/>
</g>
<g data-source-text=" " fill="#20242e" transform="translate(678 98.16) rotate(0) scale(0.023999998)"/>
<g data-source-text="==&gt;" fill="#20242e" transform="translate(690 98.16) rotate(0) scale(0.023999998)">
<use href="#path26" transform="translate(0 0)"/>
<use href="#path22" transform="translate(500 0)"/>
<use href="#path23" transform="translate(1000 0)"/>
</g>
<g data-source-text=" " fill="#20242e" transform="translate(726 98.16) rotate(0) scale(0.023999998)"/>
<g data-source-text="===&gt;" fill="#20242e" transform="translate(738 98.16) rotate(0) scale(0.023999998)">
<use href="#path26" transform="translate(0 0)"/>
<use href="#path26" transform="translate(500 0)"/>
<use href="#path22" transform="translate(1000 0)"/>
<use href="#path23" transform="translate(1500 0)"/>
</g>
<g data-source-text=" " fill="#20242e" transform="translate(786 98.16) rotate(0) scale(0.023999998)"/>
<g data-source-text="=&gt;=" fill="#20242e40" transform="translate(798 98.16) rotate(0) scale(0.023999998)">
<use href="#path22" transform="translate(0 0)"/>
<use href="#path23" transform="translate(500 0)"/>
<use href="#path16" transform="translate(1000 0)"/>
</g>
<g data-source-text=" " fill="#20242e" transform="translate(834 98.16) rotate(0) scale(0.023999998)"/>
<g data-source-text="&gt;=" fill="#048fbf" transform="translate(846 98.16) rotate(0) scale(0.023999998)">
<use href="#path27" transform="translate(0 0)"/>
<use href="#path21" transform="translate(500 0)"/>
</g>
<g data-source-text=" " fill="#20242e" transform="translate(870 98.16) rotate(0) scale(0.023999998)"/>
<g data-source-text="&gt;&gt;=" fill="#048fbf" transform="translate(882 98.16) rotate(0) scale(0.023999998)">
<use href="#path14" transform="translate(0 0)"/>
<use href="#path15" transform="translate(500 0)"/>
<use href="#path16" transform="translate(1000 0)"/>
</g>
<g data-source-text=" " fill="#20242e" transform="translate(918 98.16) rotate(0) scale(0.023999998)"/>
<g data-source-text="&#xA;" fill="#20242e" transform="translate(930 98.16) rotate(0) scale(0.023999998)"/>
<g data-source-text="&lt;-&gt;" fill="#20242e" transform="translate(282 135.66) rotate(0) scale(0.023999998)">
<use href="#path4" transform="translate(0 0)"/>
<use href="#path28" transform="translate(500 0)"/>
<use href="#path10" transform="translate(1000 0)"/>
</g>
<g data-source-text=" " fill="#20242e" transform="translate(318 135.66) rotate(0) scale(0.023999998)"/>
<g data-source-text="&lt;--&gt;" fill="#20242e" transform="translate(330 135.66) rotate(0) scale(0.023999998)">
<use href="#path4" transform="translate(0 0)"/>
<use href="#path29" transform="translate(500 0)"/>
<use href="#path30" transform="translate(1000 0)"/>
<use href="#path10" transform="translate(1500 0)"/>
</g>
<g data-source-text=" " fill="#20242e" transform="translate(378 135.66) rotate(0) scale(0.023999998)"/>
<g data-source-text="&lt;---&gt;" fill="#20242e" transform="translate(390 135.66) rotate(0) scale(0.023999998)">
<use href="#path4" transform="translate(0 0)"/>
<use href="#path5" transform="translate(500 0)"/>
<use href="#path31" transform="translate(1000 0)"/>
<use href="#path30" transform="translate(1500 0)"/>
<use href="#path10" transform="translate(2000 0)"/>
</g>
<g data-source-text=" " fill="#20242e" transform="translate(450 135.66) rotate(0) scale(0.023999998)"/>
<g data-source-text="&lt;----&gt;" fill="#20242e" transform="translate(462 135.66) rotate(0) scale(0.023999998)">
<use href="#path4" transform="translate(0 0)"/>
<use href="#path5" transform="translate(500 0)"/>
<use href="#path6" transform="translate(1000 0)"/>
<use href="#path31" transform="translate(1500 0)"/>
<use href="#path30" transform="translate(2000 0)"/>
<use href="#path10" transform="translate(2500 0)"/>
</g>
<g data-source-text=" " fill="#20242e" transform="translate(534 135.66) rotate(0) scale(0.023999998)"/>
<g data-source-text="&lt;=&gt;" fill="#20242e" transform="translate(546 135.66) rotate(0) scale(0.023999998)">
<use href="#path17" transform="translate(0 0)"/>
<use href="#path32" transform="translate(500 0)"/>
<use href="#path23" transform="translate(1000 0)"/>
</g>
<g data-source-text=" " fill="#20242e" transform="translate(582 135.66) rotate(0) scale(0.023999998)"/>
<g data-source-text="&lt;==&gt;" fill="#20242e" transform="translate(594 135.66) rotate(0) scale(0.023999998)">
<use href="#path17" transform="translate(0 0)"/>
<use href="#path33" transform="translate(500 0)"/>
<use href="#path34" transform="translate(1000 0)"/>
<use href="#path23" transform="translate(1500 0)"/>
</g>
<g data-source-text=" " fill="#20242e" transform="translate(642 135.66) rotate(0) scale(0.023999998)"/>
<g data-source-text="&lt;===&gt;" fill="#20242e" transform="translate(654 135.66) rotate(0) scale(0.023999998)">
<use href="#path17" transform="translate(0 0)"/>
<use href="#path18" transform="translate(500 0)"/>
<use href="#path35" transform="translate(1000 0)"/>
<use href="#path34" transform="translate(1500 0)"/>
<use href="#path23" transform="translate(2000 0)"/>
</g>
<g data-source-text=" " fill="#20242e" transform="translate(714 135.66) rotate(0) scale(0.023999998)"/>
<g data-source-text="&lt;====&gt;" fill="#20242e" transform="translate(726 135.66) rotate(0) scale(0.023999998)">
<use href="#path17" transform="translate(0 0)"/>
<use href="#path18" transform="translate(500 0)"/>
<use href="#path19" transform="translate(1000 0)"/>
<use href="#path35" transform="translate(1500 0)"/>
<use href="#path34" transform="translate(2000 0)"/>
<use href="#path23" transform="translate(2500 0)"/>
</g>
<g data-source-text=" " fill="#20242e" transform="translate(798 135.66) rotate(0) scale(0.023999998)"/>
<g data-source-text="::" fill="#20242e" transform="translate(810 135.66) rotate(0) scale(0.023999998)">
<use href="#path36" transform="translate(0 0)"/>
<use href="#path37" transform="translate(500 0)"/>
</g>
<g data-source-text=" " fill="#20242e" transform="translate(834 135.66) rotate(0) scale(0.023999998)"/>
<g data-source-text=":::" fill="#20242e" transform="translate(846 135.66) rotate(0) scale(0.023999998)">
<use href="#path38" transform="translate(0 0)"/>
<use href="#path39" transform="translate(500 0)"/>
<use href="#path40" transform="translate(1000 0)"/>
</g>
<g data-source-text=" " fill="#20242e" transform="translate(882 135.66) rotate(0) scale(0.023999998)"/>
<g data-source-text="__" fill="#20242e40" transform="translate(894 135.66) rotate(0) scale(0.023999998)">
<use href="#path41" transform="translate(0 0)"/>
<use href="#path41" transform="translate(500 0)"/>
</g>
<g data-source-text=" " fill="#20242e" transform="translate(918 135.66) rotate(0) scale(0.023999998)"/>
<g data-source-text="&#xA;" fill="#20242e" transform="translate(930 135.66) rotate(0) scale(0.023999998)"/>
<g data-source-text="&lt;~~" fill="#20242e" transform="translate(282 173.16) rotate(0) scale(0.023999998)">
<use href="#path4" transform="translate(0 0)"/>
<use href="#path42" transform="translate(500 0)"/>
<use href="#path43" transform="translate(1000 0)"/>
</g>
<g data-source-text=" " fill="#20242e" transform="translate(318 173.16) rotate(0) scale(0.023999998)"/>
<g data-source-text="&lt;/" fill="#20242e40" transform="translate(330 173.16) rotate(0) scale(0.023999998)">
<use href="#path4" transform="translate(0 0)"/>
<use href="#path44" transform="translate(500 0)"/>
</g>
<g data-source-text=" " fill="#20242e" transform="translate(354 173.16) rotate(0) scale(0.023999998)"/>
<g data-source-text="&lt;/&gt;" fill="#20242e40" transform="translate(366 173.16) rotate(0) scale(0.023999998)">
<use href="#path4" transform="translate(0 0)"/>
<use href="#path44" transform="translate(500 0)"/>
<use href="#path10" transform="translate(1000 0)"/>
</g>
<g data-source-text=" " fill="#20242e" transform="translate(402 173.16) rotate(0) scale(0.023999998)"/>
<g data-source-text="/&gt;" fill="#20242e40" transform="translate(414 173.16) rotate(0) scale(0.023999998)">
<use href="#path44" transform="translate(0 0)"/>
<use href="#path10" transform="translate(500 0)"/>
</g>
<g data-source-text=" " fill="#20242e" transform="translate(438 173.16) rotate(0) scale(0.023999998)"/>
<g data-source-text="~~&gt;" fill="#20242e" transform="translate(450 173.16) rotate(0) scale(0.023999998)">
<use href="#path45" transform="translate(0 0)"/>
<use href="#path46" transform="translate(500 0)"/>
<use href="#path10" transform="translate(1000 0)"/>
</g>
<g data-source-text=" " fill="#20242e" transform="translate(486 173.16) rotate(0) scale(0.023999998)"/>
<g data-source-text="==" fill="#20242e" transform="translate(498 173.16) rotate(0) scale(0.023999998)">
<use href="#path47" transform="translate(0 0)"/>
<use href="#path48" transform="translate(500 0)"/>
</g>
<g data-source-text=" " fill="#20242e" transform="translate(522 173.16) rotate(0) scale(0.023999998)"/>
<g data-source-text="!=" fill="#20242e" transform="translate(534 173.16) rotate(0) scale(0.023999998)">
<use href="#path49" transform="translate(0 0)"/>
<use href="#path50" transform="translate(500 0)"/>
</g>
<g data-source-text=" " fill="#20242e" transform="translate(558 173.16) rotate(0) scale(0.023999998)"/>
<g data-source-text="/=" fill="#20242e40" transform="translate(570 173.16) rotate(0) scale(0.023999998)">
<use href="#path44" transform="translate(0 0)"/>
<use href="#path16" transform="translate(500 0)"/>
</g>
<g data-source-text=" " fill="#20242e" transform="translate(594 173.16) rotate(0) scale(0.023999998)"/>
<g data-source-text="~=" fill="#20242e40" transform="translate(606 173.16) rotate(0) scale(0.023999998)">
<use href="#path51" transform="translate(0 0)"/>
<use href="#path16" transform="translate(500 0)"/>
</g>
<g data-source-text=" " fill="#20242e" transform="translate(630 173.16) rotate(0) scale(0.023999998)"/>
<g data-source-text="&lt;&gt;" fill="#20242e40" transform="translate(642 173.16) rotate(0) scale(0.023999998)">
<use href="#path4" transform="translate(0 0)"/>
<use href="#path10" transform="translate(500 0)"/>
</g>
<g data-source-text=" " fill="#20242e" transform="translate(666 173.16) rotate(0) scale(0.023999998)"/>
<g data-source-text="===" fill="#048fbf" transform="translate(678 173.16) rotate(0) scale(0.023999998)">
<use href="#path52" transform="translate(0 0)"/>
<use href="#path53" transform="translate(500 0)"/>
<use href="#path54" transform="translate(1000 0)"/>
</g>
<g data-source-text=" " fill="#20242e" transform="translate(714 173.16) rotate(0) scale(0.023999998)"/>
<g data-source-text="!==" fill="#048fbf" transform="translate(726 173.16) rotate(0) scale(0.023999998)">
<use href="#path55" transform="translate(0 0)"/>
<use href="#path56" transform="translate(500 0)"/>
<use href="#path54" transform="translate(1000 0)"/>
</g>
<g data-source-text=" " fill="#20242e" transform="translate(762 173.16) rotate(0) scale(0.023999998)"/>
<g data-source-text="!===" fill="#20242e" transform="translate(774 173.16) rotate(0) scale(0.023999998)">
<use href="#path57" transform="translate(0 0)"/>
<use href="#path58" transform="translate(500 0)"/>
<use href="#path59" transform="translate(1000 0)"/>
<use href="#path48" transform="translate(1500 0)"/>
</g>
<g data-source-text=" " fill="#20242e" transform="translate(822 173.16) rotate(0) scale(0.023999998)"/>
<g data-source-text="=/=" fill="#20242e40" transform="translate(834 173.16) rotate(0) scale(0.023999998)">
<use href="#path16" transform="translate(0 0)"/>
<use href="#path44" transform="translate(500 0)"/>
<use href="#path16" transform="translate(1000 0)"/>
</g>
<g data-source-text=" " fill="#20242e" transform="translate(870 173.16) rotate(0) scale(0.023999998)"/>
<g data-source-text="=!=" fill="#20242e40" transform="translate(882 173.16) rotate(0) scale(0.023999998)">
<use href="#path16" transform="translate(0 0)"/>
<use href="#path49" transform="translate(500 0)"/>
<use href="#path50" transform="translate(1000 0)"/>
</g>
<g data-source-text=" " fill="#20242e" transform="translate(918 173.16) rotate(0) scale(0.023999998)"/>
<g data-source-text="&#xA;" fill="#20242e" transform="translate(930 173.16) rotate(0) scale(0.023999998)"/>
<g data-source-text="&lt;:" fill="#20242e" transform="translate(282 210.66) rotate(0) scale(0.023999998)">
<use href="#path4" transform="translate(0 0)"/>
<use href="#path60" transform="translate(500 0)"/>
</g>
<g data-source-text=" " fill="#20242e" transform="translate(306 210.66) rotate(0) scale(0.023999998)"/>
<g data-source-text=":=" fill="#20242e" transform="translate(318 210.66) rotate(0) scale(0.023999998)">
<use href="#path60" transform="translate(0 0)"/>
<use href="#path16" transform="translate(500 0)"/>
</g>
<g data-source-text=" " fill="#20242e" transform="translate(342 210.66) rotate(0) scale(0.023999998)"/>
<g data-source-text="*=" fill="#20242e" transform="translate(354 210.66) rotate(0) scale(0.023999998)">
<use href="#path61" transform="translate(0 0)"/>
<use href="#path16" transform="translate(500 0)"/>
</g>
<g data-source-text=" " fill="#20242e" transform="translate(378 210.66) rotate(0) scale(0.023999998)"/>
<g data-source-text="*+" fill="#20242e" transform="translate(390 210.66) rotate(0) scale(0.023999998)">
<use href="#path61" transform="translate(0 0)"/>
<use href="#path62" transform="translate(500 0)"/>
</g>
<g data-source-text=" " fill="#20242e" transform="translate(414 210.66) rotate(0) scale(0.023999998)"/>
<g data-source-text="&lt;*" fill="#20242e" transform="translate(426 210.66) rotate(0) scale(0.023999998)">
<use href="#path4" transform="translate(0 0)"/>
<use href="#path61" transform="translate(500 0)"/>
</g>
<g data-source-text=" " fill="#20242e" transform="translate(450 210.66) rotate(0) scale(0.023999998)"/>
<g data-source-text="&lt;*&gt;" fill="#20242e" transform="translate(462 210.66) rotate(0) scale(0.023999998)">
<use href="#path4" transform="translate(0 0)"/>
<use href="#path61" transform="translate(500 0)"/>
<use href="#path10" transform="translate(1000 0)"/>
</g>
<g data-source-text=" " fill="#20242e" transform="translate(498 210.66) rotate(0) scale(0.023999998)"/>
<g data-source-text="*&gt;" fill="#20242e" transform="translate(510 210.66) rotate(0) scale(0.023999998)">
<use href="#path61" transform="translate(0 0)"/>
<use href="#path10" transform="translate(500 0)"/>
</g>
<g data-source-text=" " fill="#20242e" transform="translate(534 210.66) rotate(0) scale(0.023999998)"/>
<g data-source-text="&lt;|" fill="#20242e" transform="translate(546 210.66) rotate(0) scale(0.023999998)">
<use href="#path63" transform="translate(0 0)"/>
<use href="#path64" transform="translate(500 0)"/>
</g>
<g data-source-text=" " fill="#20242e" transform="translate(570 210.66) rotate(0) scale(0.023999998)"/>
<g data-source-text="&lt;|&gt;" fill="#20242e" transform="translate(582 210.66) rotate(0) scale(0.023999998)">
<use href="#path63" transform="translate(0 0)"/>
<use href="#path64" transform="translate(500 0)"/>
<use href="#path65" transform="translate(1000 0)"/>
</g>
<g data-source-text=" " fill="#20242e" transform="translate(618 210.66) rotate(0) scale(0.023999998)"/>
<g data-source-text="|&gt;" fill="#20242e" transform="translate(630 210.66) rotate(0) scale(0.023999998)">
<use href="#path64" transform="translate(0 0)"/>
<use href="#path65" transform="translate(500 0)"/>
</g>
<g data-source-text=" " fill="#20242e" transform="translate(654 210.66) rotate(0) scale(0.023999998)"/>
<g data-source-text="&lt;." fill="#20242e" transform="translate(666 210.66) rotate(0) scale(0.023999998)">
<use href="#path4" transform="translate(0 0)"/>
<use href="#path66" transform="translate(500 0)"/>
</g>
<g data-source-text=" " fill="#20242e" transform="translate(690 210.66) rotate(0) scale(0.023999998)"/>
<g data-source-text="&lt;.&gt;" fill="#20242e" transform="translate(702 210.66) rotate(0) scale(0.023999998)">
<use href="#path4" transform="translate(0 0)"/>
<use href="#path66" transform="translate(500 0)"/>
<use href="#path10" transform="translate(1000 0)"/>
</g>
<g data-source-text=" " fill="#20242e" transform="translate(738 210.66) rotate(0) scale(0.023999998)"/>
<g data-source-text=".&gt;" fill="#20242e" transform="translate(750 210.66) rotate(0) scale(0.023999998)">
<use href="#path66" transform="translate(0 0)"/>
<use href="#path10" transform="translate(500 0)"/>
</g>
<g data-source-text=" " fill="#20242e" transform="translate(774 210.66) rotate(0) scale(0.023999998)"/>
<g data-source-text="+*" fill="#20242e" transform="translate(786 210.66) rotate(0) scale(0.023999998)">
<use href="#path62" transform="translate(0 0)"/>
<use href="#path61" transform="translate(500 0)"/>
</g>
<g data-source-text=" " fill="#20242e" transform="translate(810 210.66) rotate(0) scale(0.023999998)"/>
<g data-source-text="=*" fill="#20242e" transform="translate(822 210.66) rotate(0) scale(0.023999998)">
<use href="#path16" transform="translate(0 0)"/>
<use href="#path61" transform="translate(500 0)"/>
</g>
<g data-source-text=" " fill="#20242e" transform="translate(846 210.66) rotate(0) scale(0.023999998)"/>
<g data-source-text="=:" fill="#20242e" transform="translate(858 210.66) rotate(0) scale(0.023999998)">
<use href="#path16" transform="translate(0 0)"/>
<use href="#path60" transform="translate(500 0)"/>
</g>
<g data-source-text=" " fill="#20242e" transform="translate(882 210.66) rotate(0) scale(0.023999998)"/>
<g data-source-text=":&gt;" fill="#20242e" transform="translate(894 210.66) rotate(0) scale(0.023999998)">
<use href="#path60" transform="translate(0 0)"/>
<use href="#path10" transform="translate(500 0)"/>
</g>
<g data-source-text=" " fill="#20242e" transform="translate(918 210.66) rotate(0) scale(0.023999998)"/>
<g data-source-text="&#xA;" fill="#20242e" transform="translate(930 210.66) rotate(0) scale(0.023999998)"/>
<g data-source-text="(*" fill="#20242e40" transform="translate(282 248.16) rotate(0) scale(0.023999998)">
<use href="#path67" transform="translate(0 0)"/>
<use href="#path68" transform="translate(500 0)"/>
</g>
<g data-source-text=" " fill="#20242e" transform="translate(306 248.16) rotate(0) scale(0.023999998)"/>
<g data-source-text="*)" fill="#20242e40" transform="translate(318 248.16) rotate(0) scale(0.023999998)">
<use href="#path68" transform="translate(0 0)"/>
<use href="#path69" transform="translate(500 0)"/>
</g>
<g data-source-text=" " fill="#20242e" transform="translate(342 248.16) rotate(0) scale(0.023999998)"/>
<g data-source-text="/*" fill="#20242e40" transform="translate(354 248.16) rotate(0) scale(0.023999998)">
<use href="#path44" transform="translate(0 0)"/>
<use href="#path68" transform="translate(500 0)"/>
</g>
<g data-source-text=" " fill="#20242e" transform="translate(378 248.16) rotate(0) scale(0.023999998)"/>
<g data-source-text="*/" fill="#20242e40" transform="translate(390 248.16) rotate(0) scale(0.023999998)">
<use href="#path68" transform="translate(0 0)"/>
<use href="#path44" transform="translate(500 0)"/>
</g>
<g data-source-text=" " fill="#20242e" transform="translate(414 248.16) rotate(0) scale(0.023999998)"/>
<g data-source-text="[|" fill="#20242e40" transform="translate(426 248.16) rotate(0) scale(0.023999998)">
<use href="#path70" transform="translate(0 0)"/>
<use href="#path71" transform="translate(500 0)"/>
</g>
<g data-source-text=" " fill="#20242e" transform="translate(450 248.16) rotate(0) scale(0.023999998)"/>
<g data-source-text="|]" fill="#20242e40" transform="translate(462 248.16) rotate(0) scale(0.023999998)">
<use href="#path71" transform="translate(0 0)"/>
<use href="#path72" transform="translate(500 0)"/>
</g>
<g data-source-text=" " fill="#20242e" transform="translate(486 248.16) rotate(0) scale(0.023999998)"/>
<g data-source-text="{|" fill="#20242e40" transform="translate(498 248.16) rotate(0) scale(0.023999998)">
<use href="#path73" transform="translate(0 0)"/>
<use href="#path71" transform="translate(500 0)"/>
</g>
<g data-source-text=" " fill="#20242e" transform="translate(522 248.16) rotate(0) scale(0.023999998)"/>
<g data-source-text="|}" fill="#20242e40" transform="translate(534 248.16) rotate(0) scale(0.023999998)">
<use href="#path71" transform="translate(0 0)"/>
<use href="#path74" transform="translate(500 0)"/>
</g>
<g data-source-text=" " fill="#20242e" transform="translate(558 248.16) rotate(0) scale(0.023999998)"/>
<g data-source-text="++" fill="#20242e40" transform="translate(570 248.16) rotate(0) scale(0.023999998)">
<use href="#path62" transform="translate(0 0)"/>
<use href="#path62" transform="translate(500 0)"/>
</g>
<g data-source-text=" " fill="#20242e" transform="translate(594 248.16) rotate(0) scale(0.023999998)"/>
<g data-source-text="+++" fill="#20242e" transform="translate(606 248.16) rotate(0) scale(0.023999998)">
<use href="#path75" transform="translate(0 0)"/>
<use href="#path76" transform="translate(500 0)"/>
<use href="#path77" transform="translate(1000 0)"/>
</g>
<g data-source-text=" " fill="#20242e" transform="translate(642 248.16) rotate(0) scale(0.023999998)"/>
<g data-source-text="\/" fill="#20242e40" transform="translate(654 248.16) rotate(0) scale(0.023999998)">
<use href="#path78" transform="translate(0 0)"/>
<use href="#path44" transform="translate(500 0)"/>
</g>
<g data-source-text=" " fill="#20242e" transform="translate(678 248.16) rotate(0) scale(0.023999998)"/>
<g data-source-text="/\" fill="#20242e40" transform="translate(690 248.16) rotate(0) scale(0.023999998)">
<use href="#path44" transform="translate(0 0)"/>
<use href="#path78" transform="translate(500 0)"/>
</g>
<g data-source-text=" " fill="#20242e" transform="translate(714 248.16) rotate(0) scale(0.023999998)"/>
<g data-source-text="|-" fill="#20242e40" transform="translate(726 248.16) rotate(0) scale(0.023999998)">
<use href="#path71" transform="translate(0 0)"/>
<use href="#path1" transform="translate(500 0)"/>
</g>
<g data-source-text=" " fill="#20242e" transform="translate(750 248.16) rotate(0) scale(0.023999998)"/>
<g data-source-text="-|" fill="#20242e40" transform="translate(762 248.16) rotate(0) scale(0.023999998)">
<use href="#path1" transform="translate(0 0)"/>
<use href="#path71" transform="translate(500 0)"/>
</g>
<g data-source-text=" " fill="#20242e" transform="translate(786 248.16) rotate(0) scale(0.023999998)"/>
<g data-source-text="&lt;!--" fill="#20242e40" transform="translate(798 248.16) rotate(0) scale(0.023999998)">
<use href="#path4" transform="translate(0 0)"/>
<use href="#path79" transform="translate(500 0)"/>
<use href="#path1" transform="translate(1000 0)"/>
<use href="#path1" transform="translate(1500 0)"/>
</g>
<g data-source-text=" " fill="#20242e" transform="translate(846 248.16) rotate(0) scale(0.023999998)"/>
<g data-source-text="&lt;!---" fill="#20242e40" transform="translate(858 248.16) rotate(0) scale(0.023999998)">
<use href="#path4" transform="translate(0 0)"/>
<use href="#path79" transform="translate(500 0)"/>
<use href="#path80" transform="translate(1000 0)"/>
<use href="#path81" transform="translate(1500 0)"/>
<use href="#path82" transform="translate(2000 0)"/>
</g>
<g data-source-text=" " fill="#20242e" transform="translate(918 248.16) rotate(0) scale(0.023999998)"/>
</g>
</svg>