<svg xmlns="http://www.w3.org/2000/svg" height="200" viewBox="0 0 1200 200" width="1200"><defs><path d="" id="path3"/><path d="M 101 143 L 101 -823 L 417 -823 L 417 -753 L 179 -753 L 179 73 L 417 73 L 417 143 Z " id="path7"/><path d="M 101 161 L 63 100 Q 119 68 163 19 Q 207 -30 234.5 -88.5 Q 262 -147 273 -211 Q 284 -275 284 -340 Q 284 -405 273 -469 Q 262 -533 234.5 -591.5 Q 207 -650 163 -699 Q 119 -748 63 -780 L 101 -841 Q 145 -817 182.5 -784.5 Q 220 -752 250 -712.5 Q 280 -673 302 -628.5 Q 324 -584 337 -536 Q 350 -488 356 -439 Q 362 -390 362 -340 Q 362 -290 356 -241 Q 350 -192 337 -144 Q 324 -96 302 -51.5 Q 280 -7 250 32.5 Q 220 72 182.5 104.5 Q 145 137 101 161 Z " id="path24"/><path d="M 158 -370 L 95 -411 L 200 -545 L 38 -592 L 62 -659 L 217 -602 L 211 -771 L 289 -771 L 283 -602 L 438 -659 L 462 -592 L 300 -545 L 405 -411 L 342 -370 L 250 -507 Z " id="path17"/><path d="M 211 -147 L 211 -305 L 64 -305 L 64 -375 L 211 -375 L 211 -533 L 289 -533 L 289 -375 L 436 -375 L 436 -305 L 289 -305 L 289 -147 Z " id="path16"/><path d="M 211 -260 L 211 -735 L 289 -735 L 289 -260 Z M 250 8 Q 236 8 222 4 Q 208 0 198 -10.5 Q 188 -21 184 -34.5 Q 180 -48 180 -63 Q 180 -77 184 -90.5 Q 188 -104 198 -114.5 Q 208 -125 222 -129 Q 236 -133 250 -133 Q 264 -133 278 -129 Q 292 -125 302 -114.5 Q 312 -104 316.5 -90.5 Q 321 -77 321 -63 Q 321 -48 316.5 -34.5 Q 312 -21 302 -10.5 Q 292 0 278 4 Q 264 8 250 8 Z " id="path5"/><path d="M 211 143 L 211 -823 L 289 -823 L 289 143 Z " id="path8"/><path d="M 247 8 Q 221 8 194 2.5 Q 167 -3 144 -16.5 Q 121 -30 103.5 -50.5 Q 86 -71 75 -95.5 Q 64 -120 60 -146.5 Q 56 -173 56 -200 L 56 -320 Q 56 -347 60 -373.5 Q 64 -400 75 -424.5 Q 86 -449 103.5 -469.5 Q 121 -490 144 -503.5 Q 167 -517 194 -522.5 Q 221 -528 247 -528 Q 272 -528 297 -523.5 Q 322 -519 344.5 -508 Q 367 -497 385 -479.5 Q 403 -462 415 -440 Q 427 -418 432.5 -393.5 Q 438 -369 438 -344 Q 438 -344 438 -343.5 Q 438 -343 438 -342 L 360 -342 Q 360 -342 360 -342.5 Q 360 -343 360 -343 Q 360 -366 353 -388 Q 346 -410 330 -426.5 Q 314 -443 292 -450.5 Q 270 -458 247 -458 Q 230 -458 213.5 -454 Q 197 -450 183 -440 Q 169 -430 159.5 -416 Q 150 -402 144 -386.5 Q 138 -371 136 -354 Q 134 -337 134 -320 L 134 -200 Q 134 -183 136 -166 Q 138 -149 144 -133.5 Q 150 -118 159.5 -104 Q 169 -90 183 -80 Q 197 -70 213.5 -66 Q 230 -62 247 -62 Q 270 -62 292 -69.5 Q 314 -77 330 -93.5 Q 346 -110 353 -132 Q 360 -154 360 -177 Q 360 -177 360 -177.5 Q 360 -178 360 -178 L 438 -178 Q 438 -177 438 -176.5 Q 438 -176 438 -176 Q 438 -151 432.5 -126.5 Q 427 -102 415 -80 Q 403 -58 385 -40.5 Q 367 -23 344.5 -12 Q 322 -1 297 3.5 Q 272 8 247 8 Z " id="path21"/><path d="M 250 -372 Q 234 -372 219 -376.5 Q 204 -381 192.5 -392.5 Q 181 -404 176.5 -419 Q 172 -434 172 -450 Q 172 -466 176.5 -481 Q 181 -496 192.5 -507.5 Q 204 -519 219 -523.5 Q 234 -528 250 -528 Q 266 -528 281 -523.5 Q 296 -519 307.5 -507.5 Q 319 -496 323.5 -481 Q 328 -466 328 -450 Q 328 -434 323.5 -419 Q 319 -404 307.5 -392.5 Q 296 -381 281 -376.5 Q 266 -372 250 -372 Z M 250 8 Q 234 8 219 3.5 Q 204 -1 192.5 -12.5 Q 181 -24 176.5 -39 Q 172 -54 172 -70 Q 172 -86 176.5 -101 Q 181 -116 192.5 -127.5 Q 204 -139 219 -143.5 Q 234 -148 250 -148 Q 266 -148 281 -143.5 Q 296 -139 307.5 -127.5 Q 319 -116 323.5 -101 Q 328 -86 328 -70 Q 328 -54 323.5 -39 Q 319 -24 307.5 -12.5 Q 296 -1 281 3.5 Q 266 8 250 8 Z " id="path13"/><path d="M 250 8 Q 223 8 196 2.5 Q 169 -3 146 -16 Q 123 -29 104.5 -49.5 Q 86 -70 75 -94.5 Q 64 -119 60 -146 Q 56 -173 56 -200 L 56 -320 Q 56 -347 60 -374 Q 64 -401 75 -425.5 Q 86 -450 104.5 -470.5 Q 123 -491 146.5 -504 Q 170 -517 196.5 -524 Q 223 -531 250 -531 Q 277 -531 303.5 -524 Q 330 -517 353.5 -504 Q 377 -491 395.5 -470.5 Q 414 -450 425 -425.5 Q 436 -401 440 -374 Q 444 -347 444 -320 L 444 -200 Q 444 -173 440 -146 Q 436 -119 425 -94.5 Q 414 -70 395.5 -49.5 Q 377 -29 354 -16 Q 331 -3 304 2.5 Q 277 8 250 8 Z M 250 -62 Q 267 -62 284 -66 Q 301 -70 315 -79.5 Q 329 -89 339.5 -103 Q 350 -117 356 -133 Q 362 -149 364 -166 Q 366 -183 366 -200 L 366 -320 Q 366 -337 364 -354 Q 362 -371 355.5 -387.5 Q 349 -404 339 -418 Q 329 -432 314.5 -441 Q 300 -450 283 -454 Q 266 -458 248 -458 Q 231 -458 214.5 -453.5 Q 198 -449 184 -439.5 Q 170 -430 160 -416 Q 150 -402 144 -386.5 Q 138 -371 136 -354 Q 134 -337 134 -320 L 134 -200 Q 134 -183 136 -166 Q 138 -149 144 -133 Q 150 -117 160.5 -103 Q 171 -89 185 -79.5 Q 199 -70 216 -66 Q 233 -62 250 -62 Z " id="path22"/><path d="M 250 8 Q 234 8 219 3.5 Q 204 -1 192.5 -12.5 Q 181 -24 176.5 -39 Q 172 -54 172 -70 Q 172 -86 176.5 -101 Q 181 -116 192.5 -127.5 Q 204 -139 219 -143.5 Q 234 -148 250 -148 Q 266 -148 281 -143.5 Q 296 -139 307.5 -127.5 Q 319 -116 323.5 -101 Q 328 -86 328 -70 Q 328 -54 323.5 -39 Q 319 -24 307.5 -12.5 Q 296 -1 281 3.5 Q 266 8 250 8 Z " id="path18"/><path d="M 322 -199 Q 316 -199 309.5 -200 Q 303 -201 297.5 -202.5 Q 292 -204 286.5 -207 Q 281 -210 275.5 -213 Q 270 -216 266 -219.5 Q 262 -223 257 -227.5 Q 252 -232 248 -237 Q 244 -242 240 -246.5 Q 236 -251 232 -256 Q 228 -261 224.5 -265.5 Q 221 -270 217.5 -275.5 Q 214 -281 209.5 -286.5 Q 205 -292 201.5 -297 Q 198 -302 194.5 -306 Q 191 -310 185 -315 Q 179 -320 178 -321 Q 178 -320 173.5 -317.5 Q 169 -315 165.5 -311.5 Q 162 -308 159 -304 Q 156 -300 154 -298 Q 152 -296 150 -293.5 Q 148 -291 146 -288 Q 144 -285 142 -282 Q 140 -279 138 -275.5 Q 136 -272 133.5 -268.5 Q 131 -265 129 -261 Q 127 -257 124.5 -252.5 Q 122 -248 119.5 -243.5 Q 117 -239 114.5 -234.5 Q 112 -230 109.5 -224.5 Q 107 -219 104.5 -214 Q 102 -209 99 -203 L 29 -232 Q 39 -255 49 -273.5 Q 59 -292 68.5 -307 Q 78 -322 87.5 -335 Q 97 -348 111 -361 Q 125 -374 142 -382.5 Q 159 -391 178 -391 Q 184 -391 190.5 -390 Q 197 -389 202.5 -387 Q 208 -385 213.5 -382.5 Q 219 -380 224.5 -376.5 Q 230 -373 234 -369.5 Q 238 -366 243 -361.5 Q 248 -357 252 -352.5 Q 256 -348 260 -343 Q 264 -338 268 -333.5 Q 272 -329 275.5 -324 Q 279 -319 282.5 -314 Q 286 -309 290.5 -303.5 Q 295 -298 298.5 -293 Q 302 -288 305.5 -284 Q 309 -280 314.5 -275.5 Q 320 -271 322 -269 Q 322 -269 326.5 -272 Q 331 -275 334.5 -278 Q 338 -281 341 -285 Q 344 -289 346 -291.5 Q 348 -294 350 -296.5 Q 352 -299 354 -301.5 Q 356 -304 358 -307.5 Q 360 -311 362 -314 Q 364 -317 366.5 -321 Q 369 -325 371 -329 Q 373 -333 375.5 -337 Q 378 -341 380.5 -345.5 Q 383 -350 385.5 -355 Q 388 -360 390.5 -365 Q 393 -370 395.5 -375.5 Q 398 -381 401 -387 L 471 -357 Q 461 -335 451 -316 Q 441 -297 431.5 -282 Q 422 -267 412.5 -254.5 Q 403 -242 389 -229 Q 375 -216 358 -207.5 Q 341 -199 322 -199 Z " id="path12"/><path d="M 361 143 L 59 -823 L 139 -823 L 441 143 Z " id="path14"/><path d="M 399 161 Q 355 137 317.5 104.5 Q 280 72 250 32.5 Q 220 -7 198 -51.5 Q 176 -96 163 -144 Q 150 -192 144 -241 Q 138 -290 138 -340 Q 138 -390 144 -439 Q 150 -488 163 -536 Q 176 -584 198 -628.5 Q 220 -673 250 -712.5 Q 280 -752 317.5 -784.5 Q 355 -817 399 -841 L 437 -780 Q 381 -748 337 -699 Q 293 -650 265.5 -591.5 Q 238 -533 227 -469 Q 216 -405 216 -340 Q 216 -275 227 -211 Q 238 -147 265.5 -88.5 Q 293 -30 337 19 Q 381 68 437 100 Z " id="path20"/><path d="M 417 153 Q 389 153 361.5 149.5 Q 334 146 307.5 137.5 Q 281 129 256.5 114.5 Q 232 100 214 78.5 Q 196 57 187 30.5 Q 178 4 178 -24 Q 178 -40 180 -55 Q 182 -70 187 -84.5 Q 192 -99 198.5 -112.5 Q 205 -126 212 -139.5 Q 219 -153 223.5 -168 Q 228 -183 228 -198 Q 228 -215 223 -231.5 Q 218 -248 207 -261 Q 196 -274 181 -282.5 Q 166 -291 150 -296 Q 134 -301 117 -303 Q 100 -305 83 -305 L 83 -375 Q 100 -375 117 -377 Q 134 -379 150 -384 Q 166 -389 181 -397.5 Q 196 -406 207 -419 Q 218 -432 223 -448.5 Q 228 -465 228 -482 Q 228 -497 223.5 -512 Q 219 -527 212 -540.5 Q 205 -554 198.5 -567.5 Q 192 -581 187 -595.5 Q 182 -610 180 -625 Q 178 -640 178 -656 Q 178 -684 187 -710.5 Q 196 -737 214 -758.5 Q 232 -780 256.5 -794.5 Q 281 -809 307.5 -817.5 Q 334 -826 361.5 -829.5 Q 389 -833 417 -833 L 417 -763 Q 399 -763 381 -761 Q 363 -759 345.5 -754 Q 328 -749 312 -741 Q 296 -733 283 -720.5 Q 270 -708 262.5 -691 Q 255 -674 255 -656 Q 255 -640 260 -625.5 Q 265 -611 271.5 -597.5 Q 278 -584 284.5 -570 Q 291 -556 296 -541.5 Q 301 -527 303.5 -512 Q 306 -497 306 -482 Q 306 -458 299 -435 Q 292 -412 277.5 -393 Q 263 -374 242.5 -361 Q 222 -348 200 -340 Q 222 -332 242.5 -319 Q 263 -306 277.5 -287 Q 292 -268 299 -245 Q 306 -222 306 -198 Q 306 -183 303.5 -168 Q 301 -153 296 -138.5 Q 291 -124 284.5 -110 Q 278 -96 271.5 -82.5 Q 265 -69 260 -54.5 Q 255 -40 255 -24 Q 255 -6 262.5 11 Q 270 28 283 40.5 Q 296 53 312 61 Q 328 69 345.5 74 Q 363 79 381 81 Q 399 83 417 83 Z " id="path10"/><path d="M 419 -125 L 241 -213 L 64 -301 L 64 -379 L 419 -555 L 453 -492 L 144 -340 L 453 -188 Z " id="path2"/><path d="M 48 0 L 48 -520 L 126 -520 L 126 -478 Q 131 -489 138 -498.5 Q 145 -508 154.5 -515 Q 164 -522 175.5 -525 Q 187 -528 199 -528 Q 214 -528 228 -523 Q 242 -518 252.5 -508 Q 263 -498 270 -485 Q 277 -472 281 -457 Q 285 -471 292 -484.5 Q 299 -498 309 -508 Q 319 -518 333 -523 Q 347 -528 362 -528 Q 377 -528 391.5 -522.5 Q 406 -517 417 -506.5 Q 428 -496 434.5 -482 Q 441 -468 445 -453.5 Q 449 -439 450.5 -424 Q 452 -409 452 -394 L 452 0 L 374 0 L 374 -394 Q 374 -405 372.5 -415.5 Q 371 -426 366 -436 Q 361 -446 351.5 -452 Q 342 -458 331 -458 Q 321 -458 311.5 -452 Q 302 -446 297 -436 Q 292 -426 290.5 -415.5 Q 289 -405 289 -394 L 289 0 L 211 0 L 211 -394 Q 211 -405 209.5 -415.5 Q 208 -426 203 -436 Q 198 -446 188.5 -452 Q 179 -458 169 -458 Q 158 -458 148.5 -452 Q 139 -446 134 -436 Q 129 -426 127.5 -415.5 Q 126 -405 126 -394 L 126 0 Z " id="path23"/><path d="M 59 143 L 361 -823 L 441 -823 L 139 143 Z " id="path15"/><path d="M 64 -305 L 64 -375 L 436 -375 L 436 -305 Z " id="path1"/><path d="M 64 -394 L 64 -464 L 436 -464 L 436 -394 Z M 64 -216 L 64 -286 L 436 -286 L 436 -216 Z " id="path6"/><path d="M 64 70 L 64 0 L 436 0 L 436 70 Z " id="path19"/><path d="M 81 -125 L 47 -188 L 356 -340 L 47 -492 L 81 -555 L 436 -379 L 436 -301 Z " id="path4"/><path d="M 83 143 L 83 73 L 321 73 L 321 -753 L 83 -753 L 83 -823 L 399 -823 L 399 143 Z " id="path9"/><path d="M 83 153 L 83 83 Q 101 83 119 81 Q 137 79 154.5 74 Q 172 69 188 61 Q 204 53 217 40.5 Q 230 28 237.5 11 Q 245 -6 245 -24 Q 245 -40 240 -54.5 Q 235 -69 228.5 -82.5 Q 222 -96 215.5 -110 Q 209 -124 204 -138.5 Q 199 -153 196.5 -168 Q 194 -183 194 -198 Q 194 -222 201 -245 Q 208 -268 222.5 -287 Q 237 -306 257.5 -319 Q 278 -332 300 -340 Q 278 -348 257.5 -361 Q 237 -374 222.5 -393 Q 208 -412 201 -435 Q 194 -458 194 -482 Q 194 -497 196.5 -512 Q 199 -527 204 -541.5 Q 209 -556 215.5 -570 Q 222 -584 228.5 -597.5 Q 235 -611 240 -625.5 Q 245 -640 245 -656 Q 245 -674 237.5 -691 Q 230 -708 217 -720.5 Q 204 -733 188 -741 Q 172 -749 154.5 -754 Q 137 -759 119 -761 Q 101 -763 83 -763 L 83 -833 Q 111 -833 138.5 -829.5 Q 166 -826 192.5 -817.5 Q 219 -809 243.5 -794.5 Q 268 -780 286 -758.5 Q 304 -737 313 -710.5 Q 322 -684 322 -656 Q 322 -640 320 -625 Q 318 -610 313 -595.5 Q 308 -581 301.5 -567.5 Q 295 -554 288 -540.5 Q 281 -527 276.5 -512 Q 272 -497 272 -482 Q 272 -465 277 -448.5 Q 282 -432 293 -419 Q 304 -406 319 -397.5 Q 334 -389 350 -384 Q 366 -379 383 -377 Q 400 -375 417 -375 L 417 -358 L 417 -305 Q 400 -305 383 -303 Q 366 -301 350 -296 Q 334 -291 319 -282.5 Q 304 -274 293 -261 Q 282 -248 277 -231.5 Q 272 -215 272 -198 Q 272 -183 276.5 -168 Q 281 -153 288 -139.5 Q 295 -126 301.5 -112.5 Q 308 -99 313 -84.5 Q 318 -70 320 -55 Q 322 -40 322 -24 Q 322 4 313 30.5 Q 304 57 286 78.5 Q 268 100 243.5 114.5 Q 219 129 192.5 137.5 Q 166 146 138.5 149.5 Q 111 153 83 153 Z " id="path11"/></defs><g><g fill="#dee4e340" transform="translate(114 48.208) rotate(0)"><use href="#path1" transform="translate(0 0) scale(0.023999998)"/><use href="#path2" transform="translate(12 0) scale(0.023999998)"/><use href="#path2" transform="translate(24 0) scale(0.023999998)"/></g><g fill="#dee4e3" transform="translate(150 48.208) rotate(0)"><use href="#path3" transform="translate(0 0) scale(0.023999998)"/></g><g fill="#dee4e340" transform="translate(162 48.208) rotate(0)"><use href="#path1" transform="translate(0 0) scale(0.023999998)"/><use href="#path2" transform="translate(12 0) scale(0.023999998)"/></g><g fill="#dee4e3" transform="translate(186 48.208) rotate(0)"><use href="#path3" transform="translate(0 0) scale(0.023999998)"/></g><g fill="#dee4e340" transform="translate(198 48.208) rotate(0)"><use href="#path1" transform="translate(0 0) scale(0.023999998)"/><use href="#path2" transform="translate(12 0) scale(0.023999998)"/><use href="#path1" transform="translate(24 0) scale(0.023999998)"/></g><g fill="#dee4e3" transform="translate(234 48.208) rotate(0)"><use href="#path3" transform="translate(0 0) scale(0.023999998)"/></g><g fill="#dee4e340" transform="translate(246 48.208) rotate(0)"><use href="#path2" transform="translate(0 0) scale(0.023999998)"/><use href="#path1" transform="translate(12 0) scale(0.023999998)"/><use href="#path1" transform="translate(24 0) scale(0.023999998)"/></g><g fill="#dee4e3" transform="translate(282 48.208) rotate(0)"><use href="#path3" transform="translate(0 0) scale(0.023999998)"/></g><g fill="#dee4e340" transform="translate(294 48.208) rotate(0)"><use href="#path2" transform="translate(0 0) scale(0.023999998)"/><use href="#path1" transform="translate(12 0) scale(0.023999998)"/><use href="#path1" transform="translate(24 0) scale(0.023999998)"/><use href="#path1" transform="translate(36 0) scale(0.023999998)"/></g><g fill="#dee4e3" transform="translate(342 48.208) rotate(0)"><use href="#path3" transform="translate(0 0) scale(0.023999998)"/></g><g fill="#dee4e340" transform="translate(354 48.208) rotate(0)"><use href="#path2" transform="translate(0 0) scale(0.023999998)"/><use href="#path2" transform="translate(12 0) scale(0.023999998)"/><use href="#path1" transform="translate(24 0) scale(0.023999998)"/></g><g fill="#dee4e3" transform="translate(390 48.208) rotate(0)"><use href="#path3" transform="translate(0 0) scale(0.023999998)"/></g><g fill="#dee4e340" transform="translate(402 48.208) rotate(0)"><use href="#path2" transform="translate(0 0) scale(0.023999998)"/><use href="#path1" transform="translate(12 0) scale(0.023999998)"/></g><g fill="#dee4e3" transform="translate(426 48.208) rotate(0)"><use href="#path3" transform="translate(0 0) scale(0.023999998)"/></g><g fill="#dee4e340" transform="translate(438 48.208) rotate(0)"><use href="#path1" transform="translate(0 0) scale(0.023999998)"/><use href="#path4" transform="translate(12 0) scale(0.023999998)"/></g><g fill="#dee4e3" transform="translate(462 48.208) rotate(0)"><use href="#path3" transform="translate(0 0) scale(0.023999998)"/></g><g fill="#dee4e340" transform="translate(474 48.208) rotate(0)"><use href="#path1" transform="translate(0 0) scale(0.023999998)"/><use href="#path4" transform="translate(12 0) scale(0.023999998)"/><use href="#path4" transform="translate(24 0) scale(0.023999998)"/></g><g fill="#dee4e3" transform="translate(510 48.208) rotate(0)"><use href="#path3" transform="translate(0 0) scale(0.023999998)"/></g><g fill="#dee4e340" transform="translate(522 48.208) rotate(0)"><use href="#path1" transform="translate(0 0) scale(0.023999998)"/><use href="#path1" transform="translate(12 0) scale(0.023999998)"/><use href="#path4" transform="translate(24 0) scale(0.023999998)"/></g><g fill="#dee4e3" transform="translate(558 48.208) rotate(0)"><use href="#path3" transform="translate(0 0) scale(0.023999998)"/></g><g fill="#dee4e340" transform="translate(570 48.208) rotate(0)"><use href="#path1" transform="translate(0 0) scale(0.023999998)"/><use href="#path1" transform="translate(12 0) scale(0.023999998)"/><use href="#path1" transform="translate(24 0) scale(0.023999998)"/><use href="#path4" transform="translate(36 0) scale(0.023999998)"/></g><g fill="#dee4e3" transform="translate(618 48.208) rotate(0)"><use href="#path3" transform="translate(0 0) scale(0.023999998)"/></g><g fill="#dee4e340" transform="translate(630 48.208) rotate(0)"><use href="#path1" transform="translate(0 0) scale(0.023999998)"/><use href="#path4" transform="translate(12 0) scale(0.023999998)"/><use href="#path1" transform="translate(24 0) scale(0.023999998)"/></g><g fill="#dee4e3" transform="translate(666 48.208) rotate(0)"><use href="#path3" transform="translate(0 0) scale(0.023999998)"/></g><g fill="#dee4e340" transform="translate(678 48.208) rotate(0)"><use href="#path4" transform="translate(0 0) scale(0.023999998)"/><use href="#path1" transform="translate(12 0) scale(0.023999998)"/></g><g fill="#dee4e3" transform="translate(702 48.208) rotate(0)"><use href="#path3" transform="translate(0 0) scale(0.023999998)"/></g><g fill="#dee4e340" transform="translate(714 48.208) rotate(0)"><use href="#path4" transform="translate(0 0) scale(0.023999998)"/><use href="#path4" transform="translate(12 0) scale(0.023999998)"/><use href="#path1" transform="translate(24 0) scale(0.023999998)"/></g><g fill="#dee4e3" transform="translate(750 48.208) rotate(0)"><use href="#path3" transform="translate(0 0) scale(0.023999998)"/></g><g fill="#dee4e340" transform="translate(762 48.208) rotate(0)"><use href="#path2" transform="translate(0 0) scale(0.023999998)"/><use href="#path1" transform="translate(12 0) scale(0.023999998)"/><use href="#path4" transform="translate(24 0) scale(0.023999998)"/></g><g fill="#dee4e3" transform="translate(798 48.208) rotate(0)"><use href="#path3" transform="translate(0 0) scale(0.023999998)"/></g><g fill="#dee4e340" transform="translate(810 48.208) rotate(0)"><use href="#path2" transform="translate(0 0) scale(0.023999998)"/><use href="#path1" transform="translate(12 0) scale(0.023999998)"/><use href="#path1" transform="translate(24 0) scale(0.023999998)"/><use href="#path4" transform="translate(36 0) scale(0.023999998)"/></g><g fill="#dee4e3" transform="translate(858 48.208) rotate(0)"><use href="#path3" transform="translate(0 0) scale(0.023999998)"/></g><g fill="#dee4e340" transform="translate(870 48.208) rotate(0)"><use href="#path2" transform="translate(0 0) scale(0.023999998)"/><use href="#path1" transform="translate(12 0) scale(0.023999998)"/><use href="#path1" transform="translate(24 0) scale(0.023999998)"/><use href="#path1" transform="translate(36 0) scale(0.023999998)"/><use href="#path4" transform="translate(48 0) scale(0.023999998)"/></g><g fill="#dee4e3" transform="translate(930 48.208) rotate(0)"><use href="#path3" transform="translate(0 0) scale(0.023999998)"/></g><g fill="#dee4e340" transform="translate(942 48.208) rotate(0)"><use href="#path2" transform="translate(0 0) scale(0.023999998)"/><use href="#path1" transform="translate(12 0) scale(0.023999998)"/><use href="#path1" transform="translate(24 0) scale(0.023999998)"/><use href="#path1" transform="translate(36 0) scale(0.023999998)"/><use href="#path1" transform="translate(48 0) scale(0.023999998)"/><use href="#path4" transform="translate(60 0) scale(0.023999998)"/></g><g fill="#dee4e3" transform="translate(1014 48.208) rotate(0)"><use href="#path3" transform="translate(0 0) scale(0.023999998)"/></g><g fill="#dee4e340" transform="translate(1026 48.208) rotate(0)"><use href="#path2" transform="translate(0 0) scale(0.023999998)"/><use href="#path5" transform="translate(12 0) scale(0.023999998)"/><use href="#path1" transform="translate(24 0) scale(0.023999998)"/><use href="#path1" transform="translate(36 0) scale(0.023999998)"/></g><g fill="#dee4e3" transform="translate(1074 48.208) rotate(0)"><use href="#path3" transform="translate(0 0) scale(0.023999998)"/></g><g fill="#dee4e3" transform="translate(1086 48.208) rotate(0)"/><g fill="#dee4e340" transform="translate(114 85.708) rotate(0)"><use href="#path6" transform="translate(0 0) scale(0.023999998)"/><use href="#path2" transform="translate(12 0) scale(0.023999998)"/><use href="#path2" transform="translate(24 0) scale(0.023999998)"/></g><g fill="#dee4e3" transform="translate(150 85.708) rotate(0)"><use href="#path3" transform="translate(0 0) scale(0.023999998)"/></g><g fill="#dee4e340" transform="translate(162 85.708) rotate(0)"><use href="#path6" transform="translate(0 0) scale(0.023999998)"/><use href="#path2" transform="translate(12 0) scale(0.023999998)"/></g><g fill="#dee4e3" transform="translate(186 85.708) rotate(0)"><use href="#path3" transform="translate(0 0) scale(0.023999998)"/></g><g fill="#dee4e340" transform="translate(198 85.708) rotate(0)"><use href="#path6" transform="translate(0 0) scale(0.023999998)"/><use href="#path2" transform="translate(12 0) scale(0.023999998)"/><use href="#path6" transform="translate(24 0) scale(0.023999998)"/></g><g fill="#dee4e3" transform="translate(234 85.708) rotate(0)"><use href="#path3" transform="translate(0 0) scale(0.023999998)"/></g><g fill="#dee4e340" transform="translate(246 85.708) rotate(0)"><use href="#path2" transform="translate(0 0) scale(0.023999998)"/><use href="#path6" transform="translate(12 0) scale(0.023999998)"/><use href="#path6" transform="translate(24 0) scale(0.023999998)"/></g><g fill="#dee4e3" transform="translate(282 85.708) rotate(0)"><use href="#path3" transform="translate(0 0) scale(0.023999998)"/></g><g fill="#dee4e340" transform="translate(294 85.708) rotate(0)"><use href="#path2" transform="translate(0 0) scale(0.023999998)"/><use href="#path6" transform="translate(12 0) scale(0.023999998)"/><use href="#path6" transform="translate(24 0) scale(0.023999998)"/><use href="#path6" transform="translate(36 0) scale(0.023999998)"/></g><g fill="#dee4e3" transform="translate(342 85.708) rotate(0)"><use href="#path3" transform="translate(0 0) scale(0.023999998)"/></g><g fill="#dee4e340" transform="translate(354 85.708) rotate(0)"><use href="#path2" transform="translate(0 0) scale(0.023999998)"/><use href="#path2" transform="translate(12 0) scale(0.023999998)"/><use href="#path6" transform="translate(24 0) scale(0.023999998)"/></g><g fill="#dee4e3" transform="translate(390 85.708) rotate(0)"><use href="#path3" transform="translate(0 0) scale(0.023999998)"/></g><g fill="#dee4e340" transform="translate(402 85.708) rotate(0)"><use href="#path2" transform="translate(0 0) scale(0.023999998)"/><use href="#path6" transform="translate(12 0) scale(0.023999998)"/></g><g fill="#dee4e3" transform="translate(426 85.708) rotate(0)"><use href="#path3" transform="translate(0 0) scale(0.023999998)"/></g><g fill="#dee4e340" transform="translate(438 85.708) rotate(0)"><use href="#path6" transform="translate(0 0) scale(0.023999998)"/><use href="#path4" transform="translate(12 0) scale(0.023999998)"/></g><g fill="#dee4e3" transform="translate(462 85.708) rotate(0)"><use href="#path3" transform="translate(0 0) scale(0.023999998)"/></g><g fill="#dee4e340" transform="translate(474 85.708) rotate(0)"><use href="#path6" transform="translate(0 0) scale(0.023999998)"/><use href="#path4" transform="translate(12 0) scale(0.023999998)"/><use href="#path4" transform="translate(24 0) scale(0.023999998)"/></g><g fill="#dee4e3" transform="translate(510 85.708) rotate(0)"><use href="#path3" transform="translate(0 0) scale(0.023999998)"/></g><g fill="#dee4e340" transform="translate(522 85.708) rotate(0)"><use href="#path6" transform="translate(0 0) scale(0.023999998)"/><use href="#path6" transform="translate(12 0) scale(0.023999998)"/><use href="#path4" transform="translate(24 0) scale(0.023999998)"/></g><g fill="#dee4e3" transform="translate(558 85.708) rotate(0)"><use href="#path3" transform="translate(0 0) scale(0.023999998)"/></g><g fill="#dee4e340" transform="translate(570 85.708) rotate(0)"><use href="#path6" transform="translate(0 0) scale(0.023999998)"/><use href="#path6" transform="translate(12 0) scale(0.023999998)"/><use href="#path6" transform="translate(24 0) scale(0.023999998)"/><use href="#path4" transform="translate(36 0) scale(0.023999998)"/></g><g fill="#dee4e3" transform="translate(618 85.708) rotate(0)"><use href="#path3" transform="translate(0 0) scale(0.023999998)"/></g><g fill="#dee4e340" transform="translate(630 85.708) rotate(0)"><use href="#path6" transform="translate(0 0) scale(0.023999998)"/><use href="#path4" transform="translate(12 0) scale(0.023999998)"/><use href="#path6" transform="translate(24 0) scale(0.023999998)"/></g><g fill="#dee4e3" transform="translate(666 85.708) rotate(0)"><use href="#path3" transform="translate(0 0) scale(0.023999998)"/></g><g fill="#dee4e340" transform="translate(678 85.708) rotate(0)"><use href="#path4" transform="translate(0 0) scale(0.023999998)"/><use href="#path6" transform="translate(12 0) scale(0.023999998)"/></g><g fill="#dee4e3" transform="translate(702 85.708) rotate(0)"><use href="#path3" transform="translate(0 0) scale(0.023999998)"/></g><g fill="#dee4e340" transform="translate(714 85.708) rotate(0)"><use href="#path4" transform="translate(0 0) scale(0.023999998)"/><use href="#path4" transform="translate(12 0) scale(0.023999998)"/><use href="#path6" transform="translate(24 0) scale(0.023999998)"/></g><g fill="#dee4e3" transform="translate(750 85.708) rotate(0)"><use href="#path3" transform="translate(0 0) scale(0.023999998)"/></g><g fill="#dee4e340" transform="translate(762 85.708) rotate(0)"><use href="#path2" transform="translate(0 0) scale(0.023999998)"/><use href="#path6" transform="translate(12 0) scale(0.023999998)"/><use href="#path4" transform="translate(24 0) scale(0.023999998)"/></g><g fill="#dee4e3" transform="translate(798 85.708) rotate(0)"><use href="#path3" transform="translate(0 0) scale(0.023999998)"/></g><g fill="#dee4e340" transform="translate(810 85.708) rotate(0)"><use href="#path2" transform="translate(0 0) scale(0.023999998)"/><use href="#path6" transform="translate(12 0) scale(0.023999998)"/><use href="#path6" transform="translate(24 0) scale(0.023999998)"/><use href="#path4" transform="translate(36 0) scale(0.023999998)"/></g><g fill="#dee4e3" transform="translate(858 85.708) rotate(0)"><use href="#path3" transform="translate(0 0) scale(0.023999998)"/></g><g fill="#dee4e340" transform="translate(870 85.708) rotate(0)"><use href="#path2" transform="translate(0 0) scale(0.023999998)"/><use href="#path6" transform="translate(12 0) scale(0.023999998)"/><use href="#path6" transform="translate(24 0) scale(0.023999998)"/><use href="#path6" transform="translate(36 0) scale(0.023999998)"/><use href="#path4" transform="translate(48 0) scale(0.023999998)"/></g><g fill="#dee4e3" transform="translate(930 85.708) rotate(0)"><use href="#path3" transform="translate(0 0) scale(0.023999998)"/></g><g fill="#dee4e340" transform="translate(942 85.708) rotate(0)"><use href="#path2" transform="translate(0 0) scale(0.023999998)"/><use href="#path6" transform="translate(12 0) scale(0.023999998)"/><use href="#path6" transform="translate(24 0) scale(0.023999998)"/><use href="#path6" transform="translate(36 0) scale(0.023999998)"/><use href="#path6" transform="translate(48 0) scale(0.023999998)"/><use href="#path4" transform="translate(60 0) scale(0.023999998)"/></g><g fill="#dee4e3" transform="translate(1014 85.708) rotate(0)"><use href="#path3" transform="translate(0 0) scale(0.023999998)"/></g><g fill="#dee4e340" transform="translate(1026 85.708) rotate(0)"><use href="#path2" transform="translate(0 0) scale(0.023999998)"/><use href="#path5" transform="translate(12 0) scale(0.023999998)"/><use href="#path1" transform="translate(24 0) scale(0.023999998)"/><use href="#path1" transform="translate(36 0) scale(0.023999998)"/><use href="#path1" transform="translate(48 0) scale(0.023999998)"/></g><g fill="#dee4e3" transform="translate(1086 85.708) rotate(0)"><use href="#path3" transform="translate(0 0) scale(0.023999998)"/></g><g fill="#dee4e3" transform="translate(1098 85.708) rotate(0)"/><g fill="#dee4e340" transform="translate(114 123.208) rotate(0)"><use href="#path7" transform="translate(0 0) scale(0.023999998)"/><use href="#path8" transform="translate(12 0) scale(0.023999998)"/></g><g fill="#dee4e3" transform="translate(138 123.208) rotate(0)"><use href="#path3" transform="translate(0 0) scale(0.023999998)"/></g><g fill="#dee4e340" transform="translate(150 123.208) rotate(0)"><use href="#path8" transform="translate(0 0) scale(0.023999998)"/><use href="#path9" transform="translate(12 0) scale(0.023999998)"/></g><g fill="#dee4e3" transform="translate(174 123.208) rotate(0)"><use href="#path3" transform="translate(0 0) scale(0.023999998)"/></g><g fill="#dee4e340" transform="translate(186 123.208) rotate(0)"><use href="#path10" transform="translate(0 0) scale(0.023999998)"/><use href="#path8" transform="translate(12 0) scale(0.023999998)"/></g><g fill="#dee4e3" transform="translate(210 123.208) rotate(0)"><use href="#path3" transform="translate(0 0) scale(0.023999998)"/></g><g fill="#dee4e340" transform="translate(222 123.208) rotate(0)"><use href="#path8" transform="translate(0 0) scale(0.023999998)"/><use href="#path11" transform="translate(12 0) scale(0.023999998)"/></g><g fill="#dee4e3" transform="translate(246 123.208) rotate(0)"><use href="#path3" transform="translate(0 0) scale(0.023999998)"/></g><g fill="#dee4e340" transform="translate(258 123.208) rotate(0)"><use href="#path2" transform="translate(0 0) scale(0.023999998)"/><use href="#path6" transform="translate(12 0) scale(0.023999998)"/><use href="#path2" transform="translate(24 0) scale(0.023999998)"/></g><g fill="#dee4e3" transform="translate(294 123.208) rotate(0)"><use href="#path3" transform="translate(0 0) scale(0.023999998)"/></g><g fill="#dee4e340" transform="translate(306 123.208) rotate(0)"><use href="#path4" transform="translate(0 0) scale(0.023999998)"/><use href="#path6" transform="translate(12 0) scale(0.023999998)"/><use href="#path4" transform="translate(24 0) scale(0.023999998)"/></g><g fill="#dee4e3" transform="translate(342 123.208) rotate(0)"><use href="#path3" transform="translate(0 0) scale(0.023999998)"/></g><g fill="#dee4e340" transform="translate(354 123.208) rotate(0)"><use href="#path2" transform="translate(0 0) scale(0.023999998)"/><use href="#path12" transform="translate(12 0) scale(0.023999998)"/><use href="#path12" transform="translate(24 0) scale(0.023999998)"/></g><g fill="#dee4e3" transform="translate(390 123.208) rotate(0)"><use href="#path3" transform="translate(0 0) scale(0.023999998)"/></g><g fill="#dee4e340" transform="translate(402 123.208) rotate(0)"><use href="#path2" transform="translate(0 0) scale(0.023999998)"/><use href="#path12" transform="translate(12 0) scale(0.023999998)"/></g><g fill="#dee4e3" transform="translate(426 123.208) rotate(0)"><use href="#path3" transform="translate(0 0) scale(0.023999998)"/></g><g fill="#dee4e340" transform="translate(438 123.208) rotate(0)"><use href="#path12" transform="translate(0 0) scale(0.023999998)"/><use href="#path4" transform="translate(12 0) scale(0.023999998)"/></g><g fill="#dee4e3" transform="translate(462 123.208) rotate(0)"><use href="#path3" transform="translate(0 0) scale(0.023999998)"/></g><g fill="#dee4e340" transform="translate(474 123.208) rotate(0)"><use href="#path12" transform="translate(0 0) scale(0.023999998)"/><use href="#path12" transform="translate(12 0) scale(0.023999998)"/><use href="#path4" transform="translate(24 0) scale(0.023999998)"/></g><g fill="#dee4e3" transform="translate(510 123.208) rotate(0)"><use href="#path3" transform="translate(0 0) scale(0.023999998)"/></g><g fill="#dee4e340" transform="translate(522 123.208) rotate(0)"><use href="#path13" transform="translate(0 0) scale(0.023999998)"/><use href="#path13" transform="translate(12 0) scale(0.023999998)"/></g><g fill="#dee4e3" transform="translate(546 123.208) rotate(0)"><use href="#path3" transform="translate(0 0) scale(0.023999998)"/></g><g fill="#dee4e340" transform="translate(558 123.208) rotate(0)"><use href="#path13" transform="translate(0 0) scale(0.023999998)"/><use href="#path13" transform="translate(12 0) scale(0.023999998)"/><use href="#path13" transform="translate(24 0) scale(0.023999998)"/></g><g fill="#dee4e3" transform="translate(594 123.208) rotate(0)"><use href="#path3" transform="translate(0 0) scale(0.023999998)"/></g><g fill="#dee4e340" transform="translate(606 123.208) rotate(0)"><use href="#path14" transform="translate(0 0) scale(0.023999998)"/><use href="#path15" transform="translate(12 0) scale(0.023999998)"/></g><g fill="#dee4e3" transform="translate(630 123.208) rotate(0)"><use href="#path3" transform="translate(0 0) scale(0.023999998)"/></g><g fill="#dee4e340" transform="translate(642 123.208) rotate(0)"><use href="#path15" transform="translate(0 0) scale(0.023999998)"/><use href="#path14" transform="translate(12 0) scale(0.023999998)"/></g><g fill="#dee4e3" transform="translate(666 123.208) rotate(0)"><use href="#path3" transform="translate(0 0) scale(0.023999998)"/></g><g fill="#dee4e340" transform="translate(678 123.208) rotate(0)"><use href="#path6" transform="translate(0 0) scale(0.023999998)"/><use href="#path6" transform="translate(12 0) scale(0.023999998)"/></g><g fill="#dee4e3" transform="translate(702 123.208) rotate(0)"><use href="#path3" transform="translate(0 0) scale(0.023999998)"/></g><g fill="#dee4e340" transform="translate(714 123.208) rotate(0)"><use href="#path5" transform="translate(0 0) scale(0.023999998)"/><use href="#path6" transform="translate(12 0) scale(0.023999998)"/></g><g fill="#dee4e3" transform="translate(738 123.208) rotate(0)"><use href="#path3" transform="translate(0 0) scale(0.023999998)"/></g><g fill="#dee4e340" transform="translate(750 123.208) rotate(0)"><use href="#path15" transform="translate(0 0) scale(0.023999998)"/><use href="#path6" transform="translate(12 0) scale(0.023999998)"/></g><g fill="#dee4e3" transform="translate(774 123.208) rotate(0)"><use href="#path3" transform="translate(0 0) scale(0.023999998)"/></g><g fill="#dee4e340" transform="translate(786 123.208) rotate(0)"><use href="#path12" transform="translate(0 0) scale(0.023999998)"/><use href="#path6" transform="translate(12 0) scale(0.023999998)"/></g><g fill="#dee4e3" transform="translate(810 123.208) rotate(0)"><use href="#path3" transform="translate(0 0) scale(0.023999998)"/></g><g fill="#dee4e340" transform="translate(822 123.208) rotate(0)"><use href="#path2" transform="translate(0 0) scale(0.023999998)"/><use href="#path4" transform="translate(12 0) scale(0.023999998)"/></g><g fill="#dee4e3" transform="translate(846 123.208) rotate(0)"><use href="#path3" transform="translate(0 0) scale(0.023999998)"/></g><g fill="#dee4e340" transform="translate(858 123.208) rotate(0)"><use href="#path6" transform="translate(0 0) scale(0.023999998)"/><use href="#path6" transform="translate(12 0) scale(0.023999998)"/><use href="#path6" transform="translate(24 0) scale(0.023999998)"/></g><g fill="#dee4e3" transform="translate(894 123.208) rotate(0)"><use href="#path3" transform="translate(0 0) scale(0.023999998)"/></g><g fill="#dee4e340" transform="translate(906 123.208) rotate(0)"><use href="#path5" transform="translate(0 0) scale(0.023999998)"/><use href="#path6" transform="translate(12 0) scale(0.023999998)"/><use href="#path6" transform="translate(24 0) scale(0.023999998)"/></g><g fill="#dee4e3" transform="translate(942 123.208) rotate(0)"><use href="#path3" transform="translate(0 0) scale(0.023999998)"/></g><g fill="#dee4e340" transform="translate(954 123.208) rotate(0)"><use href="#path6" transform="translate(0 0) scale(0.023999998)"/><use href="#path15" transform="translate(12 0) scale(0.023999998)"/><use href="#path6" transform="translate(24 0) scale(0.023999998)"/></g><g fill="#dee4e3" transform="translate(990 123.208) rotate(0)"><use href="#path3" transform="translate(0 0) scale(0.023999998)"/></g><g fill="#dee4e340" transform="translate(1002 123.208) rotate(0)"><use href="#path6" transform="translate(0 0) scale(0.023999998)"/><use href="#path5" transform="translate(12 0) scale(0.023999998)"/><use href="#path6" transform="translate(24 0) scale(0.023999998)"/></g><g fill="#dee4e3" transform="translate(1038 123.208) rotate(0)"><use href="#path3" transform="translate(0 0) scale(0.023999998)"/></g><g fill="#dee4e340" transform="translate(1050 123.208) rotate(0)"><use href="#path13" transform="translate(0 0) scale(0.023999998)"/><use href="#path4" transform="translate(12 0) scale(0.023999998)"/></g><g fill="#dee4e3" transform="translate(1074 123.208) rotate(0)"><use href="#path3" transform="translate(0 0) scale(0.023999998)"/></g><g fill="#dee4e3" transform="translate(1086 123.208) rotate(0)"/><g fill="#dee4e340" transform="translate(114 160.70801) rotate(0)"><use href="#path13" transform="translate(0 0) scale(0.023999998)"/><use href="#path6" transform="translate(12 0) scale(0.023999998)"/></g><g fill="#dee4e3" transform="translate(138 160.70801) rotate(0)"><use href="#path3" transform="translate(0 0) scale(0.023999998)"/></g><g fill="#dee4e340" transform="translate(150 160.70801) rotate(0)"><use href="#path13" transform="translate(0 0) scale(0.023999998)"/><use href="#path1" transform="translate(12 0) scale(0.023999998)"/></g><g fill="#dee4e3" transform="translate(174 160.70801) rotate(0)"><use href="#path3" transform="translate(0 0) scale(0.023999998)"/></g><g fill="#dee4e340" transform="translate(186 160.70801) rotate(0)"><use href="#path13" transform="translate(0 0) scale(0.023999998)"/><use href="#path16" transform="translate(12 0) scale(0.023999998)"/></g><g fill="#dee4e3" transform="translate(210 160.70801) rotate(0)"><use href="#path3" transform="translate(0 0) scale(0.023999998)"/></g><g fill="#dee4e340" transform="translate(222 160.70801) rotate(0)"><use href="#path2" transform="translate(0 0) scale(0.023999998)"/><use href="#path17" transform="translate(12 0) scale(0.023999998)"/></g><g fill="#dee4e3" transform="translate(246 160.70801) rotate(0)"><use href="#path3" transform="translate(0 0) scale(0.023999998)"/></g><g fill="#dee4e340" transform="translate(258 160.70801) rotate(0)"><use href="#path2" transform="translate(0 0) scale(0.023999998)"/><use href="#path17" transform="translate(12 0) scale(0.023999998)"/><use href="#path4" transform="translate(24 0) scale(0.023999998)"/></g><g fill="#dee4e3" transform="translate(294 160.70801) rotate(0)"><use href="#path3" transform="translate(0 0) scale(0.023999998)"/></g><g fill="#dee4e340" transform="translate(306 160.70801) rotate(0)"><use href="#path17" transform="translate(0 0) scale(0.023999998)"/><use href="#path4" transform="translate(12 0) scale(0.023999998)"/></g><g fill="#dee4e3" transform="translate(330 160.70801) rotate(0)"><use href="#path3" transform="translate(0 0) scale(0.023999998)"/></g><g fill="#dee4e340" transform="translate(342 160.70801) rotate(0)"><use href="#path2" transform="translate(0 0) scale(0.023999998)"/><use href="#path8" transform="translate(12 0) scale(0.023999998)"/></g><g fill="#dee4e3" transform="translate(366 160.70801) rotate(0)"><use href="#path3" transform="translate(0 0) scale(0.023999998)"/></g><g fill="#dee4e340" transform="translate(378 160.70801) rotate(0)"><use href="#path2" transform="translate(0 0) scale(0.023999998)"/><use href="#path8" transform="translate(12 0) scale(0.023999998)"/><use href="#path4" transform="translate(24 0) scale(0.023999998)"/></g><g fill="#dee4e3" transform="translate(414 160.70801) rotate(0)"><use href="#path3" transform="translate(0 0) scale(0.023999998)"/></g><g fill="#dee4e340" transform="translate(426 160.70801) rotate(0)"><use href="#path8" transform="translate(0 0) scale(0.023999998)"/><use href="#path4" transform="translate(12 0) scale(0.023999998)"/></g><g fill="#dee4e3" transform="translate(450 160.70801) rotate(0)"><use href="#path3" transform="translate(0 0) scale(0.023999998)"/></g><g fill="#dee4e340" transform="translate(462 160.70801) rotate(0)"><use href="#path2" transform="translate(0 0) scale(0.023999998)"/><use href="#path18" transform="translate(12 0) scale(0.023999998)"/></g><g fill="#dee4e3" transform="translate(486 160.70801) rotate(0)"><use href="#path3" transform="translate(0 0) scale(0.023999998)"/></g><g fill="#dee4e340" transform="translate(498 160.70801) rotate(0)"><use href="#path2" transform="translate(0 0) scale(0.023999998)"/><use href="#path18" transform="translate(12 0) scale(0.023999998)"/><use href="#path4" transform="translate(24 0) scale(0.023999998)"/></g><g fill="#dee4e3" transform="translate(534 160.70801) rotate(0)"><use href="#path3" transform="translate(0 0) scale(0.023999998)"/></g><g fill="#dee4e340" transform="translate(546 160.70801) rotate(0)"><use href="#path18" transform="translate(0 0) scale(0.023999998)"/><use href="#path4" transform="translate(12 0) scale(0.023999998)"/></g><g fill="#dee4e3" transform="translate(570 160.70801) rotate(0)"><use href="#path3" transform="translate(0 0) scale(0.023999998)"/></g><g fill="#dee4e340" transform="translate(582 160.70801) rotate(0)"><use href="#path16" transform="translate(0 0) scale(0.023999998)"/><use href="#path13" transform="translate(12 0) scale(0.023999998)"/></g><g fill="#dee4e3" transform="translate(606 160.70801) rotate(0)"><use href="#path3" transform="translate(0 0) scale(0.023999998)"/></g><g fill="#dee4e340" transform="translate(618 160.70801) rotate(0)"><use href="#path1" transform="translate(0 0) scale(0.023999998)"/><use href="#path13" transform="translate(12 0) scale(0.023999998)"/></g><g fill="#dee4e3" transform="translate(642 160.70801) rotate(0)"><use href="#path3" transform="translate(0 0) scale(0.023999998)"/></g><g fill="#dee4e340" transform="translate(654 160.70801) rotate(0)"><use href="#path6" transform="translate(0 0) scale(0.023999998)"/><use href="#path13" transform="translate(12 0) scale(0.023999998)"/></g><g fill="#dee4e3" transform="translate(678 160.70801) rotate(0)"><use href="#path3" transform="translate(0 0) scale(0.023999998)"/></g><g fill="#dee4e340" transform="translate(690 160.70801) rotate(0)"><use href="#path2" transform="translate(0 0) scale(0.023999998)"/><use href="#path17" transform="translate(12 0) scale(0.023999998)"/><use href="#path17" transform="translate(24 0) scale(0.023999998)"/><use href="#path17" transform="translate(36 0) scale(0.023999998)"/><use href="#path4" transform="translate(48 0) scale(0.023999998)"/></g><g fill="#dee4e3" transform="translate(750 160.70801) rotate(0)"><use href="#path3" transform="translate(0 0) scale(0.023999998)"/></g><g fill="#dee4e340" transform="translate(762 160.70801) rotate(0)"><use href="#path19" transform="translate(0 0) scale(0.023999998)"/><use href="#path19" transform="translate(12 0) scale(0.023999998)"/></g><g fill="#dee4e3" transform="translate(786 160.70801) rotate(0)"><use href="#path3" transform="translate(0 0) scale(0.023999998)"/></g><g fill="#dee4e340" transform="translate(798 160.70801) rotate(0)"><use href="#path20" transform="translate(0 0) scale(0.023999998)"/><use href="#path17" transform="translate(12 0) scale(0.023999998)"/><use href="#path3" transform="translate(24 0) scale(0.023999998)"/><use href="#path21" transform="translate(36 0) scale(0.023999998)"/><use href="#path22" transform="translate(48 0) scale(0.023999998)"/><use href="#path23" transform="translate(60 0) scale(0.023999998)"/><use href="#path23" transform="translate(72 0) scale(0.023999998)"/><use href="#path3" transform="translate(84 0) scale(0.023999998)"/><use href="#path17" transform="translate(96 0) scale(0.023999998)"/><use href="#path24" transform="translate(108 0) scale(0.023999998)"/></g><g fill="#dee4e3" transform="translate(918 160.70801) rotate(0)"><use href="#path3" transform="translate(0 0) scale(0.023999998)"/></g><g fill="#dee4e340" transform="translate(930 160.70801) rotate(0)"><use href="#path16" transform="translate(0 0) scale(0.023999998)"/><use href="#path16" transform="translate(12 0) scale(0.023999998)"/></g><g fill="#dee4e3" transform="translate(954 160.70801) rotate(0)"><use href="#path3" transform="translate(0 0) scale(0.023999998)"/></g><g fill="#dee4e340" transform="translate(966 160.70801) rotate(0)"><use href="#path16" transform="translate(0 0) scale(0.023999998)"/><use href="#path16" transform="translate(12 0) scale(0.023999998)"/><use href="#path16" transform="translate(24 0) scale(0.023999998)"/></g><g fill="#dee4e3" transform="translate(1002 160.70801) rotate(0)"><use href="#path3" transform="translate(0 0) scale(0.023999998)"/></g><g fill="#dee4e340" transform="translate(1014 160.70801) rotate(0)"><use href="#path8" transform="translate(0 0) scale(0.023999998)"/><use href="#path1" transform="translate(12 0) scale(0.023999998)"/></g><g fill="#dee4e3" transform="translate(1038 160.70801) rotate(0)"><use href="#path3" transform="translate(0 0) scale(0.023999998)"/></g><g fill="#dee4e340" transform="translate(1050 160.70801) rotate(0)"><use href="#path1" transform="translate(0 0) scale(0.023999998)"/><use href="#path8" transform="translate(12 0) scale(0.023999998)"/></g><g fill="#dee4e3" transform="translate(1074 160.70801) rotate(0)"><use href="#path3" transform="translate(0 0) scale(0.023999998)"/></g></g></svg>