<?xml version="1.0" encoding="UTF-8" standalone="no"?>
<svg height="300" viewBox="0 0 1200 300" width="1200" xmlns="http://www.w3.org/2000/svg">
<defs>
<path d="M 436 -305 L 64 -305 L 64 -375 L 436 -375 Z " id="path1"/>
<path d="M 416 -81 L 64 -299 L 64 -381 L 416 -599 L 456 -539 L 131 -340 L 456 -141 Z " id="path2"/>
<path d="M 84 -81 L 44 -141 L 369 -340 L 44 -539 L 84 -599 L 436 -381 L 436 -299 Z " id="path3"/>
<path d="M 436 -394 L 64 -394 L 64 -464 L 436 -464 Z M 436 -216 L 64 -216 L 64 -286 L 436 -286 Z " id="path4"/>
<path d="M 250 8 Q 234 8 219 3.5 Q 204 -1 192.5 -12.5 Q 181 -24 176.5 -39 Q 172 -54 172 -70 Q 172 -86 176.5 -101 Q 181 -116 192.5 -127.5 Q 204 -139 219 -143.5 Q 234 -148 250 -148 Q 266 -148 281 -143.5 Q 296 -139 307.5 -127.5 Q 319 -116 323.5 -101 Q 328 -86 328 -70 Q 328 -54 323.5 -39 Q 319 -24 307.5 -12.5 Q 296 -1 281 3.5 Q 266 8 250 8 Z M 250 -372 Q 234 -372 219 -376.5 Q 204 -381 192.5 -392.5 Q 181 -404 176.5 -419 Q 172 -434 172 -450 Q 172 -466 176.5 -481 Q 181 -496 192.5 -507.5 Q 204 -519 219 -523.5 Q 234 -528 250 -528 Q 266 -528 281 -523.5 Q 296 -519 307.5 -507.5 Q 319 -496 323.5 -481 Q 328 -466 328 -450 Q 328 -434 323.5 -419 Q 319 -404 307.5 -392.5 Q 296 -381 281 -376.5 Q 266 -372 250 -372 Z " id="path5"/>
<path d="M 436 70 L 64 70 L 64 0 L 436 0 Z " id="path6"/>
<path d="M 323 -185 Q 315 -185 308 -186.5 Q 301 -188 294.5 -190 Q 288 -192 282 -196 Q 276 -200 271 -204.5 Q 266 -209 261.5 -213.5 Q 257 -218 252.5 -223.5 Q 248 -229 244 -235 Q 240 -241 236 -246.5 Q 232 -252 228.5 -258 Q 225 -264 221.5 -270 Q 218 -276 214 -283 Q 210 -290 206.5 -296.5 Q 203 -303 199 -309 Q 195 -315 191.5 -320 Q 188 -325 181.5 -330.5 Q 175 -336 175 -339 L 180 -339 Q 180 -338 175.5 -334 Q 171 -330 167 -325.5 Q 163 -321 160 -316.5 Q 157 -312 155 -309 Q 153 -306 151.5 -302.5 Q 150 -299 148 -295.5 Q 146 -292 143.5 -288 Q 141 -284 139 -279.5 Q 137 -275 135 -270.5 Q 133 -266 130.5 -261 Q 128 -256 125.5 -250.5 Q 123 -245 120.5 -239.5 Q 118 -234 115.5 -228 Q 113 -222 110.5 -215.5 Q 108 -209 105.5 -202 Q 103 -195 100 -188 L 28 -212 Q 32 -224 36 -234.5 Q 40 -245 44.5 -255 Q 49 -265 53 -274.5 Q 57 -284 60.5 -292.5 Q 64 -301 68 -308.5 Q 72 -316 76 -323 Q 80 -330 83.5 -336.5 Q 87 -343 91 -349 Q 95 -355 101 -363 Q 107 -371 113.5 -377.5 Q 120 -384 126.5 -389.5 Q 133 -395 141.5 -399.5 Q 150 -404 159 -406.5 Q 168 -409 177 -409 Q 185 -409 192 -407.5 Q 199 -406 205.5 -403.5 Q 212 -401 218 -397.5 Q 224 -394 229 -389.5 Q 234 -385 238.5 -380 Q 243 -375 247.5 -369.5 Q 252 -364 256 -358.5 Q 260 -353 264 -347 Q 268 -341 271.5 -335 Q 275 -329 278.5 -323 Q 282 -317 286 -310.5 Q 290 -304 293.5 -297.5 Q 297 -291 301 -285 Q 305 -279 308.5 -274 Q 312 -269 318.5 -263 Q 325 -257 325 -255 Q 325 -254 325 -254 L 324 -255 Q 323 -255 322 -255 L 320 -255 L 325 -259 Q 329 -263 333 -267.5 Q 337 -272 340 -277 Q 343 -282 345 -285 Q 347 -288 348.5 -291 Q 350 -294 352 -298 Q 354 -302 356.5 -306 Q 359 -310 361 -314 Q 363 -318 365 -323 Q 367 -328 369.5 -333 Q 372 -338 374.5 -343 Q 377 -348 379.5 -354 Q 382 -360 384.5 -366 Q 387 -372 389.5 -378.5 Q 392 -385 394.5 -391.5 Q 397 -398 400 -406 L 472 -381 Q 468 -370 464 -359 Q 460 -348 455.5 -338 Q 451 -328 447 -319 Q 443 -310 439.5 -301.5 Q 436 -293 432 -285 Q 428 -277 424 -270 Q 420 -263 416.5 -257 Q 413 -251 409 -245 Q 405 -239 399 -231 Q 393 -223 386.5 -216 Q 380 -209 373.5 -203.5 Q 367 -198 358.5 -194 Q 350 -190 341 -187.5 Q 332 -185 323 -185 Z " id="path7"/>
<path d="M 139 143 L 59 143 L 361 -823 L 441 -823 Z " id="path8"/>
<path d="M 211 -260 L 211 -735 L 289 -735 L 289 -260 Z M 250 8 Q 236 8 222 4 Q 208 0 198 -10.5 Q 188 -21 183.5 -34.5 Q 179 -48 179 -63 Q 179 -77 183.5 -90.5 Q 188 -104 198 -114.5 Q 208 -125 222 -129 Q 236 -133 250 -133 Q 264 -133 278 -129 Q 292 -125 302 -114.5 Q 312 -104 316 -90.5 Q 320 -77 320 -63 Q 320 -48 316 -34.5 Q 312 -21 302 -10.5 Q 292 0 278 4 Q 264 8 250 8 Z " id="path9"/>
<path d="M 158 -416 L 95 -457 L 200 -591 L 38 -638 L 62 -704 L 217 -648 L 211 -816 L 289 -816 L 283 -648 L 438 -704 L 462 -638 L 300 -591 L 405 -457 L 342 -416 L 250 -552 Z " id="path10"/>
<path d="M 289 -147 L 211 -147 L 211 -305 L 64 -305 L 64 -375 L 211 -375 L 211 -533 L 289 -533 L 289 -375 L 436 -375 L 436 -305 L 289 -305 Z " id="path11"/>
<path d="M 211 143 L 211 -823 L 289 -823 L 289 143 Z " id="path12"/>
<path d="M 250 8 Q 234 8 219 3.5 Q 204 -1 192.5 -12.5 Q 181 -24 176.5 -39 Q 172 -54 172 -70 Q 172 -86 176.5 -101 Q 181 -116 192.5 -127.5 Q 204 -139 219 -143.5 Q 234 -148 250 -148 Q 266 -148 281 -143.5 Q 296 -139 307.5 -127.5 Q 319 -116 323.5 -101 Q 328 -86 328 -70 Q 328 -54 323.5 -39 Q 319 -24 307.5 -12.5 Q 296 -1 281 3.5 Q 266 8 250 8 Z " id="path13"/>
<path d="M 372 161 Q 329 137 291.5 104.5 Q 254 72 224 32.5 Q 194 -7 173 -52 Q 152 -97 139 -144.5 Q 126 -192 120.5 -241.5 Q 115 -291 115 -340 Q 115 -389 120.5 -438.5 Q 126 -488 139 -535.5 Q 152 -583 173 -628 Q 194 -673 224 -712.5 Q 254 -752 291.5 -784.5 Q 329 -817 372 -841 L 410 -780 Q 355 -748 311.5 -699 Q 268 -650 241 -591.5 Q 214 -533 203.5 -468.5 Q 193 -404 193 -340 Q 193 -276 203.5 -211.5 Q 214 -147 241 -88.5 Q 268 -30 311.5 19 Q 355 68 410 100 Z " id="path14"/>
<path d="M 128 161 L 90 100 Q 107 90 123.5 78 Q 140 66 155 53 Q 170 40 183.5 24.5 Q 197 9 209.5 -7 Q 222 -23 232.5 -40 Q 243 -57 252 -75 Q 261 -93 268.5 -111.5 Q 276 -130 282 -149 Q 288 -168 292 -188 Q 296 -208 299.5 -232.5 Q 303 -257 305 -276 Q 307 -295 307 -308 L 307 -340 Q 307 -360 306 -380 Q 305 -400 303 -420 Q 301 -440 298 -460.5 Q 295 -481 290.5 -500.5 Q 286 -520 279.5 -539 Q 273 -558 265.5 -576.5 Q 258 -595 248.5 -613 Q 239 -631 228 -647.5 Q 217 -664 204.5 -680 Q 192 -696 174.5 -714 Q 157 -732 143 -744.5 Q 129 -757 118 -764 L 90 -780 L 128 -841 Q 153 -827 176 -810.5 Q 199 -794 220 -774.5 Q 241 -755 259.5 -733.5 Q 278 -712 293.5 -688.5 Q 309 -665 321.5 -639 Q 334 -613 344 -586.5 Q 354 -560 361.5 -533 Q 369 -506 374 -478 Q 379 -450 382 -416.5 Q 385 -383 385 -365 L 385 -340 Q 385 -312 383 -283.5 Q 381 -255 377.5 -226.5 Q 374 -198 367.5 -170.5 Q 361 -143 352.5 -116 Q 344 -89 332.5 -63 Q 321 -37 306.5 -12.5 Q 292 12 274.5 34.5 Q 257 57 237.5 77.5 Q 218 98 192 119 Q 166 140 150 149 Z " id="path15"/>
<path d="M 123 143 L 123 -823 L 399 -823 L 399 -753 L 201 -753 L 201 73 L 399 73 L 399 143 Z " id="path16"/>
<path d="M 101 143 L 101 73 L 299 73 L 299 -753 L 101 -753 L 101 -823 L 377 -823 L 377 143 Z " id="path17"/>
<path d="M 399 153 Q 372 153 345 149.5 Q 318 146 292 137 Q 266 128 243 113 Q 220 98 203 76.5 Q 186 55 178 29 Q 170 3 170 -24 Q 170 -47 175.5 -69.5 Q 181 -92 190 -112.5 Q 199 -133 208.5 -154 Q 218 -175 218 -198 Q 218 -214 213.5 -230 Q 209 -246 199.5 -259 Q 190 -272 176 -281.5 Q 162 -291 146.5 -296 Q 131 -301 115 -303 Q 99 -305 83 -305 L 83 -375 Q 99 -375 115 -377 Q 131 -379 146.5 -384 Q 162 -389 176 -398.5 Q 190 -408 199.5 -421 Q 209 -434 213.5 -450 Q 218 -466 218 -482 Q 218 -505 208.5 -526 Q 199 -547 190 -567.5 Q 181 -588 175.5 -610.5 Q 170 -633 170 -656 Q 170 -683 178 -709 Q 186 -735 203 -756.5 Q 220 -778 243 -793 Q 266 -808 292 -817 Q 318 -826 345 -829.5 Q 372 -833 399 -833 L 399 -763 Q 381 -763 364 -761 Q 347 -759 330.5 -754 Q 314 -749 298.5 -740.5 Q 283 -732 271.5 -719 Q 260 -706 254 -689.5 Q 248 -673 248 -656 Q 248 -640 252.5 -625.5 Q 257 -611 263 -597.5 Q 269 -584 275.5 -570 Q 282 -556 286.5 -541.5 Q 291 -527 293 -512 Q 295 -497 295 -482 Q 295 -459 289 -436 Q 283 -413 269 -394 Q 255 -375 235.5 -361.5 Q 216 -348 195 -340 Q 216 -332 235.5 -318.5 Q 255 -305 269 -286 Q 283 -267 289 -244 Q 295 -221 295 -198 Q 295 -183 293 -168 Q 291 -153 286.5 -138.5 Q 282 -124 275.5 -110 Q 269 -96 263 -82.5 Q 257 -69 252.5 -54.5 Q 248 -40 248 -24 Q 248 -7 254 9.5 Q 260 26 271.5 39 Q 283 52 298.5 60.5 Q 314 69 330.5 74 Q 347 79 364 81 Q 381 83 399 83 Z " id="path18"/>
<path d="M 101 153 L 101 83 Q 111 83 121 82.5 Q 131 82 141 80.5 Q 151 79 160.5 76.5 Q 170 74 179 70.5 Q 188 67 197.5 62.5 Q 207 58 214.5 52 Q 222 46 228.5 38.5 Q 235 31 240 22.5 Q 245 14 248.5 2.5 Q 252 -9 252 -16 L 252 -24 Q 252 -33 250.5 -41.5 Q 249 -50 246.5 -58.5 Q 244 -67 240.5 -75 Q 237 -83 233.5 -90.5 Q 230 -98 226 -106 Q 222 -114 219 -122.5 Q 216 -131 213.5 -139 Q 211 -147 209 -155.5 Q 207 -164 206 -174.5 Q 205 -185 205 -191 L 205 -198 Q 205 -212 207.5 -227 Q 210 -242 215 -255.5 Q 220 -269 228 -281 Q 236 -293 246.5 -303.5 Q 257 -314 271.5 -323.5 Q 286 -333 295 -336 L 305 -340 Q 292 -345 279 -352.5 Q 266 -360 254.5 -369 Q 243 -378 234 -389.5 Q 225 -401 219 -414 Q 213 -427 209 -444 Q 205 -461 205 -471 L 205 -482 Q 205 -491 205.5 -499.5 Q 206 -508 207.5 -516.5 Q 209 -525 211.5 -533.5 Q 214 -542 216.5 -550 Q 219 -558 223 -566.5 Q 227 -575 230.5 -582.5 Q 234 -590 237.5 -598 Q 241 -606 244 -614 Q 247 -622 249.5 -632 Q 252 -642 252 -648 L 252 -656 Q 252 -666 250 -676 Q 248 -686 244 -695 Q 240 -704 234 -712 Q 228 -720 221 -726.5 Q 214 -733 205 -738.5 Q 196 -744 187 -747.5 Q 178 -751 168.5 -754 Q 159 -757 149.5 -759 Q 140 -761 128.5 -762 Q 117 -763 110 -763 L 101 -763 L 101 -833 Q 117 -833 132.5 -832 Q 148 -831 163.5 -828.5 Q 179 -826 194 -821.5 Q 209 -817 223 -811 Q 237 -805 250.5 -797 Q 264 -789 276 -778.5 Q 288 -768 297.5 -755.5 Q 307 -743 314 -729 Q 321 -715 325.5 -697.5 Q 330 -680 330 -670 L 330 -656 Q 330 -642 328 -628 Q 326 -614 322 -600 Q 318 -586 312.5 -573 Q 307 -560 301 -547 Q 295 -534 288.5 -518.5 Q 282 -503 282 -494 L 282 -482 Q 282 -473 283.5 -463.5 Q 285 -454 288 -445 Q 291 -436 295.5 -428 Q 300 -420 306.5 -413.5 Q 313 -407 320.5 -401 Q 328 -395 336.5 -391 Q 345 -387 354 -384 Q 363 -381 372 -379 Q 381 -377 392 -376 Q 403 -375 409 -375 L 417 -375 L 417 -305 Q 408 -305 398.5 -304.5 Q 389 -304 380 -302.5 Q 371 -301 361.5 -298.5 Q 352 -296 343.5 -292.5 Q 335 -289 327 -284 Q 319 -279 312 -272.5 Q 305 -266 300 -258.5 Q 295 -251 291 -242.5 Q 287 -234 284.5 -223 Q 282 -212 282 -206 L 282 -198 Q 282 -184 286 -170 Q 290 -156 296 -143 Q 302 -130 308 -117.5 Q 314 -105 318.5 -91.5 Q 323 -78 326.5 -61.5 Q 330 -45 330 -36 L 330 -24 Q 330 -8 327.5 7.5 Q 325 23 319.5 37.5 Q 314 52 305.5 65 Q 297 78 286 89.5 Q 275 101 262 110 Q 249 119 235 125.5 Q 221 132 206.5 137.5 Q 192 143 176.5 146 Q 161 149 143 151 Q 125 153 115 153 Z " id="path19"/>
<path d="M 441 143 L 361 143 L 59 -823 L 139 -823 Z " id="path20"/>
</defs>
<g>
<g data-source-text="-&lt;&lt;" fill="#dee4e340" transform="translate(282 60.66) rotate(0) scale(0.023999998)">
<use href="#path1" transform="translate(0 0)"/>
<use href="#path2" transform="translate(500 0)"/>
<use href="#path2" transform="translate(1000 0)"/>
</g>
<g data-source-text=" " fill="#dee4e3" transform="translate(318 60.66) rotate(0) scale(0.023999998)"/>
<g data-source-text="-&lt;" fill="#dee4e340" transform="translate(330 60.66) rotate(0) scale(0.023999998)">
<use href="#path1" transform="translate(0 0)"/>
<use href="#path2" transform="translate(500 0)"/>
</g>
<g data-source-text=" " fill="#dee4e3" transform="translate(354 60.66) rotate(0) scale(0.023999998)"/>
<g data-source-text="-&lt;-" fill="#dee4e340" transform="translate(366 60.66) rotate(0) scale(0.023999998)">
<use href="#path1" transform="translate(0 0)"/>
<use href="#path2" transform="translate(500 0)"/>
<use href="#path1" transform="translate(1000 0)"/>
</g>
<g data-source-text=" " fill="#dee4e3" transform="translate(402 60.66) rotate(0) scale(0.023999998)"/>
<g data-source-text="&lt;--" fill="#dee4e340" transform="translate(414 60.66) rotate(0) scale(0.023999998)">
<use href="#path2" transform="translate(0 0)"/>
<use href="#path1" transform="translate(500 0)"/>
<use href="#path1" transform="translate(1000 0)"/>
</g>
<g data-source-text=" " fill="#dee4e3" transform="translate(450 60.66) rotate(0) scale(0.023999998)"/>
<g data-source-text="&lt;---" fill="#dee4e340" transform="translate(462 60.66) rotate(0) scale(0.023999998)">
<use href="#path2" transform="translate(0 0)"/>
<use href="#path1" transform="translate(500 0)"/>
<use href="#path1" transform="translate(1000 0)"/>
<use href="#path1" transform="translate(1500 0)"/>
</g>
<g data-source-text=" " fill="#dee4e3" transform="translate(510 60.66) rotate(0) scale(0.023999998)"/>
<g data-source-text="&lt;&lt;-" fill="#dee4e340" transform="translate(522 60.66) rotate(0) scale(0.023999998)">
<use href="#path2" transform="translate(0 0)"/>
<use href="#path2" transform="translate(500 0)"/>
<use href="#path1" transform="translate(1000 0)"/>
</g>
<g data-source-text=" " fill="#dee4e3" transform="translate(558 60.66) rotate(0) scale(0.023999998)"/>
<g data-source-text="&lt;-" fill="#dee4e340" transform="translate(570 60.66) rotate(0) scale(0.023999998)">
<use href="#path2" transform="translate(0 0)"/>
<use href="#path1" transform="translate(500 0)"/>
</g>
<g data-source-text=" " fill="#dee4e3" transform="translate(594 60.66) rotate(0) scale(0.023999998)"/>
<g data-source-text="-&gt;" fill="#dee4e340" transform="translate(606 60.66) rotate(0) scale(0.023999998)">
<use href="#path1" transform="translate(0 0)"/>
<use href="#path3" transform="translate(500 0)"/>
</g>
<g data-source-text=" " fill="#dee4e3" transform="translate(630 60.66) rotate(0) scale(0.023999998)"/>
<g data-source-text="-&gt;&gt;" fill="#dee4e340" transform="translate(642 60.66) rotate(0) scale(0.023999998)">
<use href="#path1" transform="translate(0 0)"/>
<use href="#path3" transform="translate(500 0)"/>
<use href="#path3" transform="translate(1000 0)"/>
</g>
<g data-source-text=" " fill="#dee4e3" transform="translate(678 60.66) rotate(0) scale(0.023999998)"/>
<g data-source-text="--&gt;" fill="#dee4e340" transform="translate(690 60.66) rotate(0) scale(0.023999998)">
<use href="#path1" transform="translate(0 0)"/>
<use href="#path1" transform="translate(500 0)"/>
<use href="#path3" transform="translate(1000 0)"/>
</g>
<g data-source-text=" " fill="#dee4e3" transform="translate(726 60.66) rotate(0) scale(0.023999998)"/>
<g data-source-text="---&gt;" fill="#dee4e340" transform="translate(738 60.66) rotate(0) scale(0.023999998)">
<use href="#path1" transform="translate(0 0)"/>
<use href="#path1" transform="translate(500 0)"/>
<use href="#path1" transform="translate(1000 0)"/>
<use href="#path3" transform="translate(1500 0)"/>
</g>
<g data-source-text=" " fill="#dee4e3" transform="translate(786 60.66) rotate(0) scale(0.023999998)"/>
<g data-source-text="-&gt;-" fill="#dee4e340" transform="translate(798 60.66) rotate(0) scale(0.023999998)">
<use href="#path1" transform="translate(0 0)"/>
<use href="#path3" transform="translate(500 0)"/>
<use href="#path1" transform="translate(1000 0)"/>
</g>
<g data-source-text=" " fill="#dee4e3" transform="translate(834 60.66) rotate(0) scale(0.023999998)"/>
<g data-source-text="&gt;-" fill="#dee4e340" transform="translate(846 60.66) rotate(0) scale(0.023999998)">
<use href="#path3" transform="translate(0 0)"/>
<use href="#path1" transform="translate(500 0)"/>
</g>
<g data-source-text=" " fill="#dee4e3" transform="translate(870 60.66) rotate(0) scale(0.023999998)"/>
<g data-source-text="&gt;&gt;-" fill="#dee4e340" transform="translate(882 60.66) rotate(0) scale(0.023999998)">
<use href="#path3" transform="translate(0 0)"/>
<use href="#path3" transform="translate(500 0)"/>
<use href="#path1" transform="translate(1000 0)"/>
</g>
<g data-source-text=" " fill="#dee4e3" transform="translate(918 60.66) rotate(0) scale(0.023999998)"/>
<g data-source-text="&#xA;" fill="#dee4e3" transform="translate(930 60.66) rotate(0) scale(0.023999998)"/>
<g data-source-text="=&lt;&lt;" fill="#dee4e340" transform="translate(282 98.16) rotate(0) scale(0.023999998)">
<use href="#path4" transform="translate(0 0)"/>
<use href="#path2" transform="translate(500 0)"/>
<use href="#path2" transform="translate(1000 0)"/>
</g>
<g data-source-text=" " fill="#dee4e3" transform="translate(318 98.16) rotate(0) scale(0.023999998)"/>
<g data-source-text="=&lt;" fill="#dee4e340" transform="translate(330 98.16) rotate(0) scale(0.023999998)">
<use href="#path4" transform="translate(0 0)"/>
<use href="#path2" transform="translate(500 0)"/>
</g>
<g data-source-text=" " fill="#dee4e3" transform="translate(354 98.16) rotate(0) scale(0.023999998)"/>
<g data-source-text="=&lt;=" fill="#dee4e340" transform="translate(366 98.16) rotate(0) scale(0.023999998)">
<use href="#path4" transform="translate(0 0)"/>
<use href="#path2" transform="translate(500 0)"/>
<use href="#path4" transform="translate(1000 0)"/>
</g>
<g data-source-text=" " fill="#dee4e3" transform="translate(402 98.16) rotate(0) scale(0.023999998)"/>
<g data-source-text="&lt;==" fill="#dee4e340" transform="translate(414 98.16) rotate(0) scale(0.023999998)">
<use href="#path2" transform="translate(0 0)"/>
<use href="#path4" transform="translate(500 0)"/>
<use href="#path4" transform="translate(1000 0)"/>
</g>
<g data-source-text=" " fill="#dee4e3" transform="translate(450 98.16) rotate(0) scale(0.023999998)"/>
<g data-source-text="&lt;===" fill="#dee4e340" transform="translate(462 98.16) rotate(0) scale(0.023999998)">
<use href="#path2" transform="translate(0 0)"/>
<use href="#path4" transform="translate(500 0)"/>
<use href="#path4" transform="translate(1000 0)"/>
<use href="#path4" transform="translate(1500 0)"/>
</g>
<g data-source-text=" " fill="#dee4e3" transform="translate(510 98.16) rotate(0) scale(0.023999998)"/>
<g data-source-text="&lt;&lt;=" fill="#dee4e340" transform="translate(522 98.16) rotate(0) scale(0.023999998)">
<use href="#path2" transform="translate(0 0)"/>
<use href="#path2" transform="translate(500 0)"/>
<use href="#path4" transform="translate(1000 0)"/>
</g>
<g data-source-text=" " fill="#dee4e3" transform="translate(558 98.16) rotate(0) scale(0.023999998)"/>
<g data-source-text="&lt;=" fill="#dee4e340" transform="translate(570 98.16) rotate(0) scale(0.023999998)">
<use href="#path2" transform="translate(0 0)"/>
<use href="#path4" transform="translate(500 0)"/>
</g>
<g data-source-text=" " fill="#dee4e3" transform="translate(594 98.16) rotate(0) scale(0.023999998)"/>
<g data-source-text="=&gt;" fill="#dee4e340" transform="translate(606 98.16) rotate(0) scale(0.023999998)">
<use href="#path4" transform="translate(0 0)"/>
<use href="#path3" transform="translate(500 0)"/>
</g>
<g data-source-text=" " fill="#dee4e3" transform="translate(630 98.16) rotate(0) scale(0.023999998)"/>
<g data-source-text="=&gt;&gt;" fill="#dee4e340" transform="translate(642 98.16) rotate(0) scale(0.023999998)">
<use href="#path4" transform="translate(0 0)"/>
<use href="#path3" transform="translate(500 0)"/>
<use href="#path3" transform="translate(1000 0)"/>
</g>
<g data-source-text=" " fill="#dee4e3" transform="translate(678 98.16) rotate(0) scale(0.023999998)"/>
<g data-source-text="==&gt;" fill="#dee4e340" transform="translate(690 98.16) rotate(0) scale(0.023999998)">
<use href="#path4" transform="translate(0 0)"/>
<use href="#path4" transform="translate(500 0)"/>
<use href="#path3" transform="translate(1000 0)"/>
</g>
<g data-source-text=" " fill="#dee4e3" transform="translate(726 98.16) rotate(0) scale(0.023999998)"/>
<g data-source-text="===&gt;" fill="#dee4e340" transform="translate(738 98.16) rotate(0) scale(0.023999998)">
<use href="#path4" transform="translate(0 0)"/>
<use href="#path4" transform="translate(500 0)"/>
<use href="#path4" transform="translate(1000 0)"/>
<use href="#path3" transform="translate(1500 0)"/>
</g>
<g data-source-text=" " fill="#dee4e3" transform="translate(786 98.16) rotate(0) scale(0.023999998)"/>
<g data-source-text="=&gt;=" fill="#dee4e340" transform="translate(798 98.16) rotate(0) scale(0.023999998)">
<use href="#path4" transform="translate(0 0)"/>
<use href="#path3" transform="translate(500 0)"/>
<use href="#path4" transform="translate(1000 0)"/>
</g>
<g data-source-text=" " fill="#dee4e3" transform="translate(834 98.16) rotate(0) scale(0.023999998)"/>
<g data-source-text="&gt;=" fill="#dee4e340" transform="translate(846 98.16) rotate(0) scale(0.023999998)">
<use href="#path3" transform="translate(0 0)"/>
<use href="#path4" transform="translate(500 0)"/>
</g>
<g data-source-text=" " fill="#dee4e3" transform="translate(870 98.16) rotate(0) scale(0.023999998)"/>
<g data-source-text="&gt;&gt;=" fill="#dee4e340" transform="translate(882 98.16) rotate(0) scale(0.023999998)">
<use href="#path3" transform="translate(0 0)"/>
<use href="#path3" transform="translate(500 0)"/>
<use href="#path4" transform="translate(1000 0)"/>
</g>
<g data-source-text=" " fill="#dee4e3" transform="translate(918 98.16) rotate(0) scale(0.023999998)"/>
<g data-source-text="&#xA;" fill="#dee4e3" transform="translate(930 98.16) rotate(0) scale(0.023999998)"/>
<g data-source-text="&lt;-&gt;" fill="#dee4e340" transform="translate(282 135.66) rotate(0) scale(0.023999998)">
<use href="#path2" transform="translate(0 0)"/>
<use href="#path1" transform="translate(500 0)"/>
<use href="#path3" transform="translate(1000 0)"/>
</g>
<g data-source-text=" " fill="#dee4e3" transform="translate(318 135.66) rotate(0) scale(0.023999998)"/>
<g data-source-text="&lt;--&gt;" fill="#dee4e340" transform="translate(330 135.66) rotate(0) scale(0.023999998)">
<use href="#path2" transform="translate(0 0)"/>
<use href="#path1" transform="translate(500 0)"/>
<use href="#path1" transform="translate(1000 0)"/>
<use href="#path3" transform="translate(1500 0)"/>
</g>
<g data-source-text=" " fill="#dee4e3" transform="translate(378 135.66) rotate(0) scale(0.023999998)"/>
<g data-source-text="&lt;---&gt;" fill="#dee4e340" transform="translate(390 135.66) rotate(0) scale(0.023999998)">
<use href="#path2" transform="translate(0 0)"/>
<use href="#path1" transform="translate(500 0)"/>
<use href="#path1" transform="translate(1000 0)"/>
<use href="#path1" transform="translate(1500 0)"/>
<use href="#path3" transform="translate(2000 0)"/>
</g>
<g data-source-text=" " fill="#dee4e3" transform="translate(450 135.66) rotate(0) scale(0.023999998)"/>
<g data-source-text="&lt;----&gt;" fill="#dee4e340" transform="translate(462 135.66) rotate(0) scale(0.023999998)">
<use href="#path2" transform="translate(0 0)"/>
<use href="#path1" transform="translate(500 0)"/>
<use href="#path1" transform="translate(1000 0)"/>
<use href="#path1" transform="translate(1500 0)"/>
<use href="#path1" transform="translate(2000 0)"/>
<use href="#path3" transform="translate(2500 0)"/>
</g>
<g data-source-text=" " fill="#dee4e3" transform="translate(534 135.66) rotate(0) scale(0.023999998)"/>
<g data-source-text="&lt;=&gt;" fill="#dee4e340" transform="translate(546 135.66) rotate(0) scale(0.023999998)">
<use href="#path2" transform="translate(0 0)"/>
<use href="#path4" transform="translate(500 0)"/>
<use href="#path3" transform="translate(1000 0)"/>
</g>
<g data-source-text=" " fill="#dee4e3" transform="translate(582 135.66) rotate(0) scale(0.023999998)"/>
<g data-source-text="&lt;==&gt;" fill="#dee4e340" transform="translate(594 135.66) rotate(0) scale(0.023999998)">
<use href="#path2" transform="translate(0 0)"/>
<use href="#path4" transform="translate(500 0)"/>
<use href="#path4" transform="translate(1000 0)"/>
<use href="#path3" transform="translate(1500 0)"/>
</g>
<g data-source-text=" " fill="#dee4e3" transform="translate(642 135.66) rotate(0) scale(0.023999998)"/>
<g data-source-text="&lt;===&gt;" fill="#dee4e340" transform="translate(654 135.66) rotate(0) scale(0.023999998)">
<use href="#path2" transform="translate(0 0)"/>
<use href="#path4" transform="translate(500 0)"/>
<use href="#path4" transform="translate(1000 0)"/>
<use href="#path4" transform="translate(1500 0)"/>
<use href="#path3" transform="translate(2000 0)"/>
</g>
<g data-source-text=" " fill="#dee4e3" transform="translate(714 135.66) rotate(0) scale(0.023999998)"/>
<g data-source-text="&lt;====&gt;" fill="#dee4e340" transform="translate(726 135.66) rotate(0) scale(0.023999998)">
<use href="#path2" transform="translate(0 0)"/>
<use href="#path4" transform="translate(500 0)"/>
<use href="#path4" transform="translate(1000 0)"/>
<use href="#path4" transform="translate(1500 0)"/>
<use href="#path4" transform="translate(2000 0)"/>
<use href="#path3" transform="translate(2500 0)"/>
</g>
<g data-source-text=" " fill="#dee4e3" transform="translate(798 135.66) rotate(0) scale(0.023999998)"/>
<g data-source-text="::" fill="#dee4e340" transform="translate(810 135.66) rotate(0) scale(0.023999998)">
<use href="#path5" transform="translate(0 0)"/>
<use href="#path5" transform="translate(500 0)"/>
</g>
<g data-source-text=" " fill="#dee4e3" transform="translate(834 135.66) rotate(0) scale(0.023999998)"/>
<g data-source-text=":::" fill="#dee4e340" transform="translate(846 135.66) rotate(0) scale(0.023999998)">
<use href="#path5" transform="translate(0 0)"/>
<use href="#path5" transform="translate(500 0)"/>
<use href="#path5" transform="translate(1000 0)"/>
</g>
<g data-source-text=" " fill="#dee4e3" transform="translate(882 135.66) rotate(0) scale(0.023999998)"/>
<g data-source-text="__" fill="#dee4e340" transform="translate(894 135.66) rotate(0) scale(0.023999998)">
<use href="#path6" transform="translate(0 0)"/>
<use href="#path6" transform="translate(500 0)"/>
</g>
<g data-source-text=" " fill="#dee4e3" transform="translate(918 135.66) rotate(0) scale(0.023999998)"/>
<g data-source-text="&#xA;" fill="#dee4e3" transform="translate(930 135.66) rotate(0) scale(0.023999998)"/>
<g data-source-text="&lt;~~" fill="#dee4e340" transform="translate(282 173.16) rotate(0) scale(0.023999998)">
<use href="#path2" transform="translate(0 0)"/>
<use href="#path7" transform="translate(500 0)"/>
<use href="#path7" transform="translate(1000 0)"/>
</g>
<g data-source-text=" " fill="#dee4e3" transform="translate(318 173.16) rotate(0) scale(0.023999998)"/>
<g data-source-text="&lt;/" fill="#dee4e340" transform="translate(330 173.16) rotate(0) scale(0.023999998)">
<use href="#path2" transform="translate(0 0)"/>
<use href="#path8" transform="translate(500 0)"/>
</g>
<g data-source-text=" " fill="#dee4e3" transform="translate(354 173.16) rotate(0) scale(0.023999998)"/>
<g data-source-text="&lt;/&gt;" fill="#dee4e340" transform="translate(366 173.16) rotate(0) scale(0.023999998)">
<use href="#path2" transform="translate(0 0)"/>
<use href="#path8" transform="translate(500 0)"/>
<use href="#path3" transform="translate(1000 0)"/>
</g>
<g data-source-text=" " fill="#dee4e3" transform="translate(402 173.16) rotate(0) scale(0.023999998)"/>
<g data-source-text="/&gt;" fill="#dee4e340" transform="translate(414 173.16) rotate(0) scale(0.023999998)">
<use href="#path8" transform="translate(0 0)"/>
<use href="#path3" transform="translate(500 0)"/>
</g>
<g data-source-text=" " fill="#dee4e3" transform="translate(438 173.16) rotate(0) scale(0.023999998)"/>
<g data-source-text="~~&gt;" fill="#dee4e340" transform="translate(450 173.16) rotate(0) scale(0.023999998)">
<use href="#path7" transform="translate(0 0)"/>
<use href="#path7" transform="translate(500 0)"/>
<use href="#path3" transform="translate(1000 0)"/>
</g>
<g data-source-text=" " fill="#dee4e3" transform="translate(486 173.16) rotate(0) scale(0.023999998)"/>
<g data-source-text="==" fill="#dee4e340" transform="translate(498 173.16) rotate(0) scale(0.023999998)">
<use href="#path4" transform="translate(0 0)"/>
<use href="#path4" transform="translate(500 0)"/>
</g>
<g data-source-text=" " fill="#dee4e3" transform="translate(522 173.16) rotate(0) scale(0.023999998)"/>
<g data-source-text="!=" fill="#dee4e340" transform="translate(534 173.16) rotate(0) scale(0.023999998)">
<use href="#path9" transform="translate(0 0)"/>
<use href="#path4" transform="translate(500 0)"/>
</g>
<g data-source-text=" " fill="#dee4e3" transform="translate(558 173.16) rotate(0) scale(0.023999998)"/>
<g data-source-text="/=" fill="#dee4e340" transform="translate(570 173.16) rotate(0) scale(0.023999998)">
<use href="#path8" transform="translate(0 0)"/>
<use href="#path4" transform="translate(500 0)"/>
</g>
<g data-source-text=" " fill="#dee4e3" transform="translate(594 173.16) rotate(0) scale(0.023999998)"/>
<g data-source-text="~=" fill="#dee4e340" transform="translate(606 173.16) rotate(0) scale(0.023999998)">
<use href="#path7" transform="translate(0 0)"/>
<use href="#path4" transform="translate(500 0)"/>
</g>
<g data-source-text=" " fill="#dee4e3" transform="translate(630 173.16) rotate(0) scale(0.023999998)"/>
<g data-source-text="&lt;&gt;" fill="#dee4e340" transform="translate(642 173.16) rotate(0) scale(0.023999998)">
<use href="#path2" transform="translate(0 0)"/>
<use href="#path3" transform="translate(500 0)"/>
</g>
<g data-source-text=" " fill="#dee4e3" transform="translate(666 173.16) rotate(0) scale(0.023999998)"/>
<g data-source-text="===" fill="#dee4e340" transform="translate(678 173.16) rotate(0) scale(0.023999998)">
<use href="#path4" transform="translate(0 0)"/>
<use href="#path4" transform="translate(500 0)"/>
<use href="#path4" transform="translate(1000 0)"/>
</g>
<g data-source-text=" " fill="#dee4e3" transform="translate(714 173.16) rotate(0) scale(0.023999998)"/>
<g data-source-text="!==" fill="#dee4e340" transform="translate(726 173.16) rotate(0) scale(0.023999998)">
<use href="#path9" transform="translate(0 0)"/>
<use href="#path4" transform="translate(500 0)"/>
<use href="#path4" transform="translate(1000 0)"/>
</g>
<g data-source-text=" " fill="#dee4e3" transform="translate(762 173.16) rotate(0) scale(0.023999998)"/>
<g data-source-text="!===" fill="#dee4e340" transform="translate(774 173.16) rotate(0) scale(0.023999998)">
<use href="#path9" transform="translate(0 0)"/>
<use href="#path4" transform="translate(500 0)"/>
<use href="#path4" transform="translate(1000 0)"/>
<use href="#path4" transform="translate(1500 0)"/>
</g>
<g data-source-text=" " fill="#dee4e3" transform="translate(822 173.16) rotate(0) scale(0.023999998)"/>
<g data-source-text="=/=" fill="#dee4e340" transform="translate(834 173.16) rotate(0) scale(0.023999998)">
<use href="#path4" transform="translate(0 0)"/>
<use href="#path8" transform="translate(500 0)"/>
<use href="#path4" transform="translate(1000 0)"/>
</g>
<g data-source-text=" " fill="#dee4e3" transform="translate(870 173.16) rotate(0) scale(0.023999998)"/>
<g data-source-text="=!=" fill="#dee4e340" transform="translate(882 173.16) rotate(0) scale(0.023999998)">
<use href="#path4" transform="translate(0 0)"/>
<use href="#path9" transform="translate(500 0)"/>
<use href="#path4" transform="translate(1000 0)"/>
</g>
<g data-source-text=" " fill="#dee4e3" transform="translate(918 173.16) rotate(0) scale(0.023999998)"/>
<g data-source-text="&#xA;" fill="#dee4e3" transform="translate(930 173.16) rotate(0) scale(0.023999998)"/>
<g data-source-text="&lt;:" fill="#dee4e340" transform="translate(282 210.66) rotate(0) scale(0.023999998)">
<use href="#path2" transform="translate(0 0)"/>
<use href="#path5" transform="translate(500 0)"/>
</g>
<g data-source-text=" " fill="#dee4e3" transform="translate(306 210.66) rotate(0) scale(0.023999998)"/>
<g data-source-text=":=" fill="#dee4e340" transform="translate(318 210.66) rotate(0) scale(0.023999998)">
<use href="#path5" transform="translate(0 0)"/>
<use href="#path4" transform="translate(500 0)"/>
</g>
<g data-source-text=" " fill="#dee4e3" transform="translate(342 210.66) rotate(0) scale(0.023999998)"/>
<g data-source-text="*=" fill="#dee4e340" transform="translate(354 210.66) rotate(0) scale(0.023999998)">
<use href="#path10" transform="translate(0 0)"/>
<use href="#path4" transform="translate(500 0)"/>
</g>
<g data-source-text=" " fill="#dee4e3" transform="translate(378 210.66) rotate(0) scale(0.023999998)"/>
<g data-source-text="*+" fill="#dee4e340" transform="translate(390 210.66) rotate(0) scale(0.023999998)">
<use href="#path10" transform="translate(0 0)"/>
<use href="#path11" transform="translate(500 0)"/>
</g>
<g data-source-text=" " fill="#dee4e3" transform="translate(414 210.66) rotate(0) scale(0.023999998)"/>
<g data-source-text="&lt;*" fill="#dee4e340" transform="translate(426 210.66) rotate(0) scale(0.023999998)">
<use href="#path2" transform="translate(0 0)"/>
<use href="#path10" transform="translate(500 0)"/>
</g>
<g data-source-text=" " fill="#dee4e3" transform="translate(450 210.66) rotate(0) scale(0.023999998)"/>
<g data-source-text="&lt;*&gt;" fill="#dee4e340" transform="translate(462 210.66) rotate(0) scale(0.023999998)">
<use href="#path2" transform="translate(0 0)"/>
<use href="#path10" transform="translate(500 0)"/>
<use href="#path3" transform="translate(1000 0)"/>
</g>
<g data-source-text=" " fill="#dee4e3" transform="translate(498 210.66) rotate(0) scale(0.023999998)"/>
<g data-source-text="*&gt;" fill="#dee4e340" transform="translate(510 210.66) rotate(0) scale(0.023999998)">
<use href="#path10" transform="translate(0 0)"/>
<use href="#path3" transform="translate(500 0)"/>
</g>
<g data-source-text=" " fill="#dee4e3" transform="translate(534 210.66) rotate(0) scale(0.023999998)"/>
<g data-source-text="&lt;|" fill="#dee4e340" transform="translate(546 210.66) rotate(0) scale(0.023999998)">
<use href="#path2" transform="translate(0 0)"/>
<use href="#path12" transform="translate(500 0)"/>
</g>
<g data-source-text=" " fill="#dee4e3" transform="translate(570 210.66) rotate(0) scale(0.023999998)"/>
<g data-source-text="&lt;|&gt;" fill="#dee4e340" transform="translate(582 210.66) rotate(0) scale(0.023999998)">
<use href="#path2" transform="translate(0 0)"/>
<use href="#path12" transform="translate(500 0)"/>
<use href="#path3" transform="translate(1000 0)"/>
</g>
<g data-source-text=" " fill="#dee4e3" transform="translate(618 210.66) rotate(0) scale(0.023999998)"/>
<g data-source-text="|&gt;" fill="#dee4e340" transform="translate(630 210.66) rotate(0) scale(0.023999998)">
<use href="#path12" transform="translate(0 0)"/>
<use href="#path3" transform="translate(500 0)"/>
</g>
<g data-source-text=" " fill="#dee4e3" transform="translate(654 210.66) rotate(0) scale(0.023999998)"/>
<g data-source-text="&lt;." fill="#dee4e340" transform="translate(666 210.66) rotate(0) scale(0.023999998)">
<use href="#path2" transform="translate(0 0)"/>
<use href="#path13" transform="translate(500 0)"/>
</g>
<g data-source-text=" " fill="#dee4e3" transform="translate(690 210.66) rotate(0) scale(0.023999998)"/>
<g data-source-text="&lt;.&gt;" fill="#dee4e340" transform="translate(702 210.66) rotate(0) scale(0.023999998)">
<use href="#path2" transform="translate(0 0)"/>
<use href="#path13" transform="translate(500 0)"/>
<use href="#path3" transform="translate(1000 0)"/>
</g>
<g data-source-text=" " fill="#dee4e3" transform="translate(738 210.66) rotate(0) scale(0.023999998)"/>
<g data-source-text=".&gt;" fill="#dee4e340" transform="translate(750 210.66) rotate(0) scale(0.023999998)">
<use href="#path13" transform="translate(0 0)"/>
<use href="#path3" transform="translate(500 0)"/>
</g>
<g data-source-text=" " fill="#dee4e3" transform="translate(774 210.66) rotate(0) scale(0.023999998)"/>
<g data-source-text="+*" fill="#dee4e340" transform="translate(786 210.66) rotate(0) scale(0.023999998)">
<use href="#path11" transform="translate(0 0)"/>
<use href="#path10" transform="translate(500 0)"/>
</g>
<g data-source-text=" " fill="#dee4e3" transform="translate(810 210.66) rotate(0) scale(0.023999998)"/>
<g data-source-text="=*" fill="#dee4e340" transform="translate(822 210.66) rotate(0) scale(0.023999998)">
<use href="#path4" transform="translate(0 0)"/>
<use href="#path10" transform="translate(500 0)"/>
</g>
<g data-source-text=" " fill="#dee4e3" transform="translate(846 210.66) rotate(0) scale(0.023999998)"/>
<g data-source-text="=:" fill="#dee4e340" transform="translate(858 210.66) rotate(0) scale(0.023999998)">
<use href="#path4" transform="translate(0 0)"/>
<use href="#path5" transform="translate(500 0)"/>
</g>
<g data-source-text=" " fill="#dee4e3" transform="translate(882 210.66) rotate(0) scale(0.023999998)"/>
<g data-source-text=":&gt;" fill="#dee4e340" transform="translate(894 210.66) rotate(0) scale(0.023999998)">
<use href="#path5" transform="translate(0 0)"/>
<use href="#path3" transform="translate(500 0)"/>
</g>
<g data-source-text=" " fill="#dee4e3" transform="translate(918 210.66) rotate(0) scale(0.023999998)"/>
<g data-source-text="&#xA;" fill="#dee4e3" transform="translate(930 210.66) rotate(0) scale(0.023999998)"/>
<g data-source-text="(*" fill="#dee4e340" transform="translate(282 248.16) rotate(0) scale(0.023999998)">
<use href="#path14" transform="translate(0 0)"/>
<use href="#path10" transform="translate(500 0)"/>
</g>
<g data-source-text=" " fill="#dee4e3" transform="translate(306 248.16) rotate(0) scale(0.023999998)"/>
<g data-source-text="*)" fill="#dee4e340" transform="translate(318 248.16) rotate(0) scale(0.023999998)">
<use href="#path10" transform="translate(0 0)"/>
<use href="#path15" transform="translate(500 0)"/>
</g>
<g data-source-text=" " fill="#dee4e3" transform="translate(342 248.16) rotate(0) scale(0.023999998)"/>
<g data-source-text="/*" fill="#dee4e340" transform="translate(354 248.16) rotate(0) scale(0.023999998)">
<use href="#path8" transform="translate(0 0)"/>
<use href="#path10" transform="translate(500 0)"/>
</g>
<g data-source-text=" " fill="#dee4e3" transform="translate(378 248.16) rotate(0) scale(0.023999998)"/>
<g data-source-text="*/" fill="#dee4e340" transform="translate(390 248.16) rotate(0) scale(0.023999998)">
<use href="#path10" transform="translate(0 0)"/>
<use href="#path8" transform="translate(500 0)"/>
</g>
<g data-source-text=" " fill="#dee4e3" transform="translate(414 248.16) rotate(0) scale(0.023999998)"/>
<g data-source-text="[|" fill="#dee4e340" transform="translate(426 248.16) rotate(0) scale(0.023999998)">
<use href="#path16" transform="translate(0 0)"/>
<use href="#path12" transform="translate(500 0)"/>
</g>
<g data-source-text=" " fill="#dee4e3" transform="translate(450 248.16) rotate(0) scale(0.023999998)"/>
<g data-source-text="|]" fill="#dee4e340" transform="translate(462 248.16) rotate(0) scale(0.023999998)">
<use href="#path12" transform="translate(0 0)"/>
<use href="#path17" transform="translate(500 0)"/>
</g>
<g data-source-text=" " fill="#dee4e3" transform="translate(486 248.16) rotate(0) scale(0.023999998)"/>
<g data-source-text="{|" fill="#dee4e340" transform="translate(498 248.16) rotate(0) scale(0.023999998)">
<use href="#path18" transform="translate(0 0)"/>
<use href="#path12" transform="translate(500 0)"/>
</g>
<g data-source-text=" " fill="#dee4e3" transform="translate(522 248.16) rotate(0) scale(0.023999998)"/>
<g data-source-text="|}" fill="#dee4e340" transform="translate(534 248.16) rotate(0) scale(0.023999998)">
<use href="#path12" transform="translate(0 0)"/>
<use href="#path19" transform="translate(500 0)"/>
</g>
<g data-source-text=" " fill="#dee4e3" transform="translate(558 248.16) rotate(0) scale(0.023999998)"/>
<g data-source-text="++" fill="#dee4e340" transform="translate(570 248.16) rotate(0) scale(0.023999998)">
<use href="#path11" transform="translate(0 0)"/>
<use href="#path11" transform="translate(500 0)"/>
</g>
<g data-source-text=" " fill="#dee4e3" transform="translate(594 248.16) rotate(0) scale(0.023999998)"/>
<g data-source-text="+++" fill="#dee4e340" transform="translate(606 248.16) rotate(0) scale(0.023999998)">
<use href="#path11" transform="translate(0 0)"/>
<use href="#path11" transform="translate(500 0)"/>
<use href="#path11" transform="translate(1000 0)"/>
</g>
<g data-source-text=" " fill="#dee4e3" transform="translate(642 248.16) rotate(0) scale(0.023999998)"/>
<g data-source-text="\/" fill="#dee4e340" transform="translate(654 248.16) rotate(0) scale(0.023999998)">
<use href="#path20" transform="translate(0 0)"/>
<use href="#path8" transform="translate(500 0)"/>
</g>
<g data-source-text=" " fill="#dee4e3" transform="translate(678 248.16) rotate(0) scale(0.023999998)"/>
<g data-source-text="/\" fill="#dee4e340" transform="translate(690 248.16) rotate(0) scale(0.023999998)">
<use href="#path8" transform="translate(0 0)"/>
<use href="#path20" transform="translate(500 0)"/>
</g>
<g data-source-text=" " fill="#dee4e3" transform="translate(714 248.16) rotate(0) scale(0.023999998)"/>
<g data-source-text="|-" fill="#dee4e340" transform="translate(726 248.16) rotate(0) scale(0.023999998)">
<use href="#path12" transform="translate(0 0)"/>
<use href="#path1" transform="translate(500 0)"/>
</g>
<g data-source-text=" " fill="#dee4e3" transform="translate(750 248.16) rotate(0) scale(0.023999998)"/>
<g data-source-text="-|" fill="#dee4e340" transform="translate(762 248.16) rotate(0) scale(0.023999998)">
<use href="#path1" transform="translate(0 0)"/>
<use href="#path12" transform="translate(500 0)"/>
</g>
<g data-source-text=" " fill="#dee4e3" transform="translate(786 248.16) rotate(0) scale(0.023999998)"/>
<g data-source-text="&lt;!--" fill="#dee4e340" transform="translate(798 248.16) rotate(0) scale(0.023999998)">
<use href="#path2" transform="translate(0 0)"/>
<use href="#path9" transform="translate(500 0)"/>
<use href="#path1" transform="translate(1000 0)"/>
<use href="#path1" transform="translate(1500 0)"/>
</g>
<g data-source-text=" " fill="#dee4e3" transform="translate(846 248.16) rotate(0) scale(0.023999998)"/>
<g data-source-text="&lt;!---" fill="#dee4e340" transform="translate(858 248.16) rotate(0) scale(0.023999998)">
<use href="#path2" transform="translate(0 0)"/>
<use href="#path9" transform="translate(500 0)"/>
<use href="#path1" transform="translate(1000 0)"/>
<use href="#path1" transform="translate(1500 0)"/>
<use href="#path1" transform="translate(2000 0)"/>
</g>
<g data-source-text=" " fill="#dee4e3" transform="translate(918 248.16) rotate(0) scale(0.023999998)"/>
</g>
</svg>