<?xml version="1.0" encoding="UTF-8" standalone="no"?>
<svg xmlns="http://www.w3.org/2000/svg" height="300" viewBox="0 0 1200 300" width="1200"><defs><path d="" id="path4"/><path d="M -116 -59 L -151 -122 L 295 -340 L -151 -558 L -116 -621 L 374 -379 L 374 -301 Z " id="path61"/><path d="M -142 -395 L -142 -465 L 508 -465 L 508 -395 Z M 508 -215 L -142 -215 L -142 -285 L 508 -285 Z " id="path36"/><path d="M -22 -394 L -436 -394 L -436 -464 L 436 -464 L 436 -394 L 22 -394 L 22 -429 L -22 -429 Z M -436 -216 L -436 -286 L -22 -286 L -22 -251 L 22 -251 L 22 -286 L 436 -286 L 436 -216 Z " id="path54"/><path d="M -350 -39 L -350 -109 L 350 -109 L 350 -39 Z " id="path24"/><path d="M -365 -305 L -365 -375 L 436 -375 L 436 -305 Z " id="path6"/><path d="M -365 -305 L -365 -375 L 508 -375 L 508 -305 Z " id="path32"/><path d="M -365 -305 L -365 -375 L 865 -375 L 865 -305 Z " id="path31"/><path d="M -498 -305 L -498 -375 L 436 -375 L 436 -305 Z " id="path9"/><path d="M -72 -305 L -72 -375 L 436 -375 L 436 -305 Z " id="path7"/><path d="M -72 -305 L -72 -375 L 508 -375 L 508 -305 Z " id="path34"/><path d="M -8 -305 L -8 -375 L 865 -375 L 865 -305 Z " id="path33"/><path d="M -8 -395 L -8 -465 L 642 -465 L 642 -395 Z M -8 -215 L -8 -285 L 642 -285 L 642 -215 Z " id="path37"/><path d="M 0 -251 Q -21 -251 -42 -254 Q -63 -257 -82.5 -265.5 Q -102 -274 -118.5 -287 Q -135 -300 -151 -314 L -99 -366 Q -99 -366 -99 -366 Q -99 -366 -98 -366 L -97 -365 Q -87 -355 -76.5 -346 Q -66 -337 -54 -330.5 Q -42 -324 -28 -322.5 Q -14 -321 0 -321 Q 14 -321 27.5 -322.5 Q 41 -324 53 -330 Q 65 -336 75.5 -345 Q 86 -354 96 -363 L 97 -364 Q 97 -364 97.5 -364.5 Q 98 -365 98 -365 L 99 -366 Q 114 -380 131 -393 Q 148 -406 167.5 -414.5 Q 187 -423 208 -426 Q 229 -429 250 -429 Q 271 -429 292 -426 Q 313 -423 332.5 -414.5 Q 352 -406 368.5 -393 Q 385 -380 401 -366 L 349 -314 Q 349 -314 349 -314 Q 349 -314 348 -314 L 347 -315 Q 337 -325 326.5 -334 Q 316 -343 304 -349.5 Q 292 -356 278 -357.5 Q 264 -359 250 -359 Q 236 -359 222.5 -357.5 Q 209 -356 197 -350 Q 185 -344 174.5 -335 Q 164 -326 154 -317 L 153 -316 Q 153 -316 152.5 -315.5 Q 152 -315 152 -315 L 151 -314 Q 136 -300 119 -287 Q 102 -274 82.5 -265.5 Q 63 -257 42 -254 Q 21 -251 0 -251 Z " id="path46"/><path d="M 0 -251 Q -31 -251 -61.5 -257 Q -92 -263 -121.5 -270.5 Q -151 -278 -181 -285.5 Q -211 -293 -241.5 -297.5 Q -272 -302 -303 -303.5 Q -334 -305 -365 -305 L -365 -375 Q -334 -375 -303 -374 Q -272 -373 -241.5 -368.5 Q -211 -364 -181 -357 Q -151 -350 -121 -342.5 Q -91 -335 -61 -328 Q -31 -321 0 -321 Q 14 -321 27.5 -322.5 Q 41 -324 53 -330 Q 65 -336 75.5 -345 Q 86 -354 96 -363 L 97 -364 Q 97 -364 97.5 -364.5 Q 98 -365 98 -365 L 99 -366 Q 114 -380 131 -393 Q 148 -406 167.5 -414.5 Q 187 -423 208 -426 Q 229 -429 250 -429 Q 271 -429 292 -426 Q 313 -423 332.5 -414.5 Q 352 -406 368.5 -393 Q 385 -380 401 -366 L 349 -314 Q 349 -314 349 -314 Q 349 -314 348 -314 L 347 -315 Q 337 -325 326.5 -334 Q 316 -343 304 -349.5 Q 292 -356 278 -357.5 Q 264 -359 250 -359 Q 236 -359 222.5 -357.5 Q 209 -356 197 -350 Q 185 -344 174.5 -335 Q 164 -326 154 -317 L 153 -316 Q 153 -316 152.5 -315.5 Q 152 -315 152 -315 L 151 -314 Q 136 -300 119 -287 Q 102 -274 82.5 -265.5 Q 63 -257 42 -254 Q 21 -251 0 -251 Z " id="path45"/><path d="M 101 143 L 101 -823 L 417 -823 L 417 -753 L 179 -753 L 179 73 L 417 73 L 417 143 Z " id="path66"/><path d="M 101 161 L 63 100 Q 119 68 163 19 Q 207 -30 234.5 -88.5 Q 262 -147 273 -211 Q 284 -275 284 -340 Q 284 -405 273 -469 Q 262 -533 234.5 -591.5 Q 207 -650 163 -699 Q 119 -748 63 -780 L 101 -841 Q 145 -817 182.5 -784.5 Q 220 -752 250 -712.5 Q 280 -673 302 -628.5 Q 324 -584 337 -536 Q 350 -488 356 -439 Q 362 -390 362 -340 Q 362 -290 356 -241 Q 350 -192 337 -144 Q 324 -96 302 -51.5 Q 280 -7 250 32.5 Q 220 72 182.5 104.5 Q 145 137 101 161 Z " id="path65"/><path d="M 14 -125 L -20 -188 L 289 -340 L -20 -492 L 14 -555 L 369 -379 L 369 -301 Z " id="path16"/><path d="M 147 -147 L 147 -305 L -8 -305 L -8 -375 L 147 -375 L 147 -533 L 225 -533 L 225 -375 L 436 -375 L 436 -305 L 225 -305 L 225 -147 Z " id="path72"/><path d="M 148 -125 L 114 -188 L 423 -340 L 114 -492 L 148 -555 L 503 -379 L 503 -301 Z " id="path15"/><path d="M 158 -150 L 95 -191 L 200 -325 L 38 -372 L 62 -438 L 217 -382 L 211 -550 L 289 -550 L 283 -382 L 438 -438 L 462 -372 L 300 -325 L 405 -191 L 342 -150 L 250 -286 Z " id="path58"/><path d="M 158 -283 L 95 -324 L 200 -458 L 38 -505 L 62 -571 L 217 -515 L 211 -683 L 289 -683 L 283 -515 L 438 -571 L 462 -505 L 300 -458 L 405 -324 L 342 -283 L 250 -419 Z " id="path64"/><path d="M 160 -206 L 140 -274 L 712 -423 L 140 -572 L 160 -640 L 850 -459 L 850 -387 Z " id="path30"/><path d="M 190 -372 Q 174 -372 159 -376.5 Q 144 -381 132.5 -392.5 Q 121 -404 116.5 -419 Q 112 -434 112 -450 Q 112 -466 116.5 -481 Q 121 -496 132.5 -507.5 Q 144 -519 159 -523.5 Q 174 -528 190 -528 Q 206 -528 221 -523.5 Q 236 -519 247.5 -507.5 Q 259 -496 263.5 -481 Q 268 -466 268 -450 Q 268 -434 263.5 -419 Q 259 -404 247.5 -392.5 Q 236 -381 221 -376.5 Q 206 -372 190 -372 Z M 190 8 Q 174 8 159 3.5 Q 144 -1 132.5 -12.5 Q 121 -24 116.5 -39 Q 112 -54 112 -70 Q 112 -86 116.5 -101 Q 121 -116 132.5 -127.5 Q 144 -139 159 -143.5 Q 174 -148 190 -148 Q 206 -148 221 -143.5 Q 236 -139 247.5 -127.5 Q 259 -116 263.5 -101 Q 268 -86 268 -70 Q 268 -54 263.5 -39 Q 259 -24 247.5 -12.5 Q 236 -1 221 3.5 Q 206 8 190 8 Z " id="path43"/><path d="M 197 -117 L 197 -285 L 275 -285 L 275 -234 L 490 -340 L 275 -446 L 275 -395 L 197 -395 L 197 -563 L 569 -379 L 569 -301 Z " id="path28"/><path d="M 211 -147 L 211 -305 L -8 -305 L -8 -375 L 211 -375 L 211 -533 L 289 -533 L 289 -375 L 508 -375 L 508 -305 L 289 -305 L 289 -147 Z " id="path73"/><path d="M 211 -147 L 211 -305 L 64 -305 L 64 -375 L 211 -375 L 211 -533 L 289 -533 L 289 -375 L 436 -375 L 436 -305 L 289 -305 L 289 -147 Z " id="path57"/><path d="M 211 -20 L 211 -660 L 289 -660 L 289 -20 Z " id="path60"/><path d="M 211 -260 L 211 -735 L 289 -735 L 289 -260 Z M 250 8 Q 236 8 222 4 Q 208 0 198 -10.5 Q 188 -21 184 -34.5 Q 180 -48 180 -63 Q 180 -77 184 -90.5 Q 188 -104 198 -114.5 Q 208 -125 222 -129 Q 236 -133 250 -133 Q 264 -133 278 -129 Q 292 -125 302 -114.5 Q 312 -104 316.5 -90.5 Q 321 -77 321 -63 Q 321 -48 316.5 -34.5 Q 312 -21 302 -10.5 Q 292 0 278 4 Q 264 8 250 8 Z " id="path52"/><path d="M 211 143 L 211 -823 L 289 -823 L 289 143 Z " id="path67"/><path d="M 214 -125 L 180 -188 L 489 -340 L 180 -492 L 214 -555 L 569 -379 L 569 -301 Z " id="path13"/><path d="M 220 -372 Q 204 -372 189 -376.5 Q 174 -381 162.5 -392.5 Q 151 -404 146.5 -419 Q 142 -434 142 -450 Q 142 -466 146.5 -481 Q 151 -496 162.5 -507.5 Q 174 -519 189 -523.5 Q 204 -528 220 -528 Q 236 -528 251 -523.5 Q 266 -519 277.5 -507.5 Q 289 -496 293.5 -481 Q 298 -466 298 -450 Q 298 -434 293.5 -419 Q 289 -404 277.5 -392.5 Q 266 -381 251 -376.5 Q 236 -372 220 -372 Z M 220 8 Q 204 8 189 3.5 Q 174 -1 162.5 -12.5 Q 151 -24 146.5 -39 Q 142 -54 142 -70 Q 142 -86 146.5 -101 Q 151 -116 162.5 -127.5 Q 174 -139 189 -143.5 Q 204 -148 220 -148 Q 236 -148 251 -143.5 Q 266 -139 277.5 -127.5 Q 289 -116 293.5 -101 Q 298 -86 298 -70 Q 298 -54 293.5 -39 Q 289 -24 277.5 -12.5 Q 266 -1 251 3.5 Q 236 8 220 8 Z " id="path40"/><path d="M 250 -372 Q 234 -372 219 -376.5 Q 204 -381 192.5 -392.5 Q 181 -404 176.5 -419 Q 172 -434 172 -450 Q 172 -466 176.5 -481 Q 181 -496 192.5 -507.5 Q 204 -519 219 -523.5 Q 234 -528 250 -528 Q 266 -528 281 -523.5 Q 296 -519 307.5 -507.5 Q 319 -496 323.5 -481 Q 328 -466 328 -450 Q 328 -434 323.5 -419 Q 319 -404 307.5 -392.5 Q 296 -381 281 -376.5 Q 266 -372 250 -372 Z M 250 8 Q 234 8 219 3.5 Q 204 -1 192.5 -12.5 Q 181 -24 176.5 -39 Q 172 -54 172 -70 Q 172 -86 176.5 -101 Q 181 -116 192.5 -127.5 Q 204 -139 219 -143.5 Q 234 -148 250 -148 Q 266 -148 281 -143.5 Q 296 -139 307.5 -127.5 Q 319 -116 323.5 -101 Q 328 -86 328 -70 Q 328 -54 323.5 -39 Q 319 -24 307.5 -12.5 Q 296 -1 281 3.5 Q 266 8 250 8 Z " id="path42"/><path d="M 250 -452 Q 234 -452 219 -456.5 Q 204 -461 192.5 -472.5 Q 181 -484 176.5 -499 Q 172 -514 172 -530 Q 172 -546 176.5 -561 Q 181 -576 192.5 -587.5 Q 204 -599 219 -603.5 Q 234 -608 250 -608 Q 266 -608 281 -603.5 Q 296 -599 307.5 -587.5 Q 319 -576 323.5 -561 Q 328 -546 328 -530 Q 328 -514 323.5 -499 Q 319 -484 307.5 -472.5 Q 296 -461 281 -456.5 Q 266 -452 250 -452 Z M 250 -72 Q 234 -72 219 -76.5 Q 204 -81 192.5 -92.5 Q 181 -104 176.5 -119 Q 172 -134 172 -150 Q 172 -166 176.5 -181 Q 181 -196 192.5 -207.5 Q 204 -219 219 -223.5 Q 234 -228 250 -228 Q 266 -228 281 -223.5 Q 296 -219 307.5 -207.5 Q 319 -196 323.5 -181 Q 328 -166 328 -150 Q 328 -134 323.5 -119 Q 319 -104 307.5 -92.5 Q 296 -81 281 -76.5 Q 266 -72 250 -72 Z " id="path56"/><path d="M 250 8 Q 234 8 219 3.5 Q 204 -1 192.5 -12.5 Q 181 -24 176.5 -39 Q 172 -54 172 -70 Q 172 -86 176.5 -101 Q 181 -116 192.5 -127.5 Q 204 -139 219 -143.5 Q 234 -148 250 -148 Q 266 -148 281 -143.5 Q 296 -139 307.5 -127.5 Q 319 -116 323.5 -101 Q 328 -86 328 -70 Q 328 -54 323.5 -39 Q 319 -24 307.5 -12.5 Q 296 -1 281 3.5 Q 266 8 250 8 Z " id="path62"/><path d="M 275 -147 L 275 -305 L 64 -305 L 64 -375 L 275 -375 L 275 -533 L 353 -533 L 353 -375 L 508 -375 L 508 -305 L 353 -305 L 353 -147 Z " id="path71"/><path d="M 280 -372 Q 264 -372 249 -376.5 Q 234 -381 222.5 -392.5 Q 211 -404 206.5 -419 Q 202 -434 202 -450 Q 202 -466 206.5 -481 Q 211 -496 222.5 -507.5 Q 234 -519 249 -523.5 Q 264 -528 280 -528 Q 296 -528 311 -523.5 Q 326 -519 337.5 -507.5 Q 349 -496 353.5 -481 Q 358 -466 358 -450 Q 358 -434 353.5 -419 Q 349 -404 337.5 -392.5 Q 326 -381 311 -376.5 Q 296 -372 280 -372 Z M 280 8 Q 264 8 249 3.5 Q 234 -1 222.5 -12.5 Q 211 -24 206.5 -39 Q 202 -54 202 -70 Q 202 -86 206.5 -101 Q 211 -116 222.5 -127.5 Q 234 -139 249 -143.5 Q 264 -148 280 -148 Q 296 -148 311 -143.5 Q 326 -139 337.5 -127.5 Q 349 -116 353.5 -101 Q 358 -86 358 -70 Q 358 -54 353.5 -39 Q 349 -24 337.5 -12.5 Q 326 -1 311 3.5 Q 296 8 280 8 Z " id="path39"/><path d="M 286 -125 L 108 -213 L -69 -301 L -69 -379 L 286 -555 L 320 -492 L 11 -340 L 320 -188 Z " id="path8"/><path d="M 303 -117 L -69 -301 L -69 -379 L 303 -563 L 303 -395 L 225 -395 L 225 -446 L 10 -340 L 225 -234 L 225 -285 L 303 -285 Z " id="path21"/><path d="M 310 -372 Q 294 -372 279 -376.5 Q 264 -381 252.5 -392.5 Q 241 -404 236.5 -419 Q 232 -434 232 -450 Q 232 -466 236.5 -481 Q 241 -496 252.5 -507.5 Q 264 -519 279 -523.5 Q 294 -528 310 -528 Q 326 -528 341 -523.5 Q 356 -519 367.5 -507.5 Q 379 -496 383.5 -481 Q 388 -466 388 -450 Q 388 -434 383.5 -419 Q 379 -404 367.5 -392.5 Q 356 -381 341 -376.5 Q 326 -372 310 -372 Z M 310 8 Q 294 8 279 3.5 Q 264 -1 252.5 -12.5 Q 241 -24 236.5 -39 Q 232 -54 232 -70 Q 232 -86 236.5 -101 Q 241 -116 252.5 -127.5 Q 264 -139 279 -143.5 Q 294 -148 310 -148 Q 326 -148 341 -143.5 Q 356 -139 367.5 -127.5 Q 379 -116 383.5 -101 Q 388 -86 388 -70 Q 388 -54 383.5 -39 Q 379 -24 367.5 -12.5 Q 356 -1 341 3.5 Q 326 8 310 8 Z " id="path41"/><path d="M 352 -125 L 174 -213 L -3 -301 L -3 -379 L 352 -555 L 386 -492 L 77 -340 L 386 -188 Z " id="path3"/><path d="M 361 143 L 59 -823 L 139 -823 L 441 143 Z " id="path74"/><path d="M 383 81 L 310 57 L 617 -761 L 690 -737 Z " id="path53"/><path d="M 399 161 Q 355 137 317.5 104.5 Q 280 72 250 32.5 Q 220 -7 198 -51.5 Q 176 -96 163 -144 Q 150 -192 144 -241 Q 138 -290 138 -340 Q 138 -390 144 -439 Q 150 -488 163 -536 Q 176 -584 198 -628.5 Q 220 -673 250 -712.5 Q 280 -752 317.5 -784.5 Q 355 -817 399 -841 L 437 -780 Q 381 -748 337 -699 Q 293 -650 265.5 -591.5 Q 238 -533 227 -469 Q 216 -405 216 -340 Q 216 -275 227 -211 Q 238 -147 265.5 -88.5 Q 293 -30 337 19 Q 381 68 437 100 Z " id="path63"/><path d="M 417 153 Q 389 153 361.5 149.5 Q 334 146 307.5 137.5 Q 281 129 256.5 114.5 Q 232 100 214 78.5 Q 196 57 187 30.5 Q 178 4 178 -24 Q 178 -40 180 -55 Q 182 -70 187 -84.5 Q 192 -99 198.5 -112.5 Q 205 -126 212 -139.5 Q 219 -153 223.5 -168 Q 228 -183 228 -198 Q 228 -215 223 -231.5 Q 218 -248 207 -261 Q 196 -274 181 -282.5 Q 166 -291 150 -296 Q 134 -301 117 -303 Q 100 -305 83 -305 L 83 -375 Q 100 -375 117 -377 Q 134 -379 150 -384 Q 166 -389 181 -397.5 Q 196 -406 207 -419 Q 218 -432 223 -448.5 Q 228 -465 228 -482 Q 228 -497 223.5 -512 Q 219 -527 212 -540.5 Q 205 -554 198.5 -567.5 Q 192 -581 187 -595.5 Q 182 -610 180 -625 Q 178 -640 178 -656 Q 178 -684 187 -710.5 Q 196 -737 214 -758.5 Q 232 -780 256.5 -794.5 Q 281 -809 307.5 -817.5 Q 334 -826 361.5 -829.5 Q 389 -833 417 -833 L 417 -763 Q 399 -763 381 -761 Q 363 -759 345.5 -754 Q 328 -749 312 -741 Q 296 -733 283 -720.5 Q 270 -708 262.5 -691 Q 255 -674 255 -656 Q 255 -640 260 -625.5 Q 265 -611 271.5 -597.5 Q 278 -584 284.5 -570 Q 291 -556 296 -541.5 Q 301 -527 303.5 -512 Q 306 -497 306 -482 Q 306 -458 299 -435 Q 292 -412 277.5 -393 Q 263 -374 242.5 -361 Q 222 -348 200 -340 Q 222 -332 242.5 -319 Q 263 -306 277.5 -287 Q 292 -268 299 -245 Q 306 -222 306 -198 Q 306 -183 303.5 -168 Q 301 -153 296 -138.5 Q 291 -124 284.5 -110 Q 278 -96 271.5 -82.5 Q 265 -69 260 -54.5 Q 255 -40 255 -24 Q 255 -6 262.5 11 Q 270 28 283 40.5 Q 296 53 312 61 Q 328 69 345.5 74 Q 363 79 381 81 Q 399 83 417 83 Z " id="path69"/><path d="M 419 -125 L 241 -213 L 64 -301 L 64 -379 L 419 -555 L 453 -492 L 144 -340 L 453 -188 Z " id="path5"/><path d="M 436 -117 L 64 -301 L 64 -379 L 436 -563 L 436 -395 L 358 -395 L 358 -446 L 143 -340 L 358 -234 L 358 -285 L 436 -285 Z " id="path18"/><path d="M 436 -394 L 22 -394 L 22 -429 L -22 -429 L -22 -394 L -147 -394 L -147 -464 L 436 -464 Z M -147 -216 L -147 -286 L -22 -286 L -22 -251 L 22 -251 L 22 -286 L 436 -286 L 436 -216 Z " id="path55"/><path d="M 436 -394 L 22 -394 L 22 -429 L -22 -429 L -22 -394 L -83 -394 L -83 -464 L 436 -464 Z M -83 -216 L -83 -286 L -22 -286 L -22 -251 L 22 -251 L 22 -286 L 436 -286 L 436 -216 Z " id="path51"/><path d="M 436 -395 L -142 -395 L -142 -465 L 436 -465 Z M -142 -215 L -142 -285 L 436 -285 L 436 -215 Z " id="path19"/><path d="M 436 -395 L -275 -395 L -275 -465 L 436 -465 Z M -275 -215 L -275 -285 L 436 -285 L 436 -215 Z " id="path22"/><path d="M 436 -395 L -72 -395 L -72 -465 L 436 -465 Z M -72 -215 L -72 -285 L 436 -285 L 436 -215 Z " id="path20"/><path d="M 486 -125 L 308 -213 L 131 -301 L 131 -379 L 486 -555 L 520 -492 L 211 -340 L 520 -188 Z " id="path2"/><path d="M 500 -251 Q 479 -251 458 -254 Q 437 -257 417.5 -265.5 Q 398 -274 381 -287 Q 364 -300 349 -314 L 348 -315 Q 348 -315 347.5 -315.5 Q 347 -316 347 -316 L 346 -317 Q 336 -326 325.5 -335 Q 315 -344 303 -350 Q 291 -356 277.5 -357.5 Q 264 -359 250 -359 Q 236 -359 222 -357.5 Q 208 -356 196 -349.5 Q 184 -343 173.5 -334 Q 163 -325 153 -315 L 152 -314 Q 151 -314 151 -314 Q 151 -314 151 -314 L 99 -366 Q 115 -380 131.5 -393 Q 148 -406 167.5 -414.5 Q 187 -423 208 -426 Q 229 -429 250 -429 Q 271 -429 292 -426 Q 313 -423 332.5 -414.5 Q 352 -406 369 -393 Q 386 -380 401 -366 L 402 -365 Q 402 -365 402.5 -364.5 Q 403 -364 403 -364 L 404 -363 Q 414 -354 424.5 -345 Q 435 -336 447 -330 Q 459 -324 472.5 -322.5 Q 486 -321 500 -321 Q 514 -321 528 -322.5 Q 542 -324 554 -330.5 Q 566 -337 576.5 -346 Q 587 -355 597 -365 L 598 -366 Q 599 -366 599 -366 Q 599 -366 599 -366 L 651 -314 Q 635 -300 618.5 -287 Q 602 -274 582.5 -265.5 Q 563 -257 542 -254 Q 521 -251 500 -251 Z " id="path48"/><path d="M 500 -251 Q 479 -251 458 -254 Q 437 -257 417.5 -265.5 Q 398 -274 381 -287 Q 364 -300 349 -314 L 348 -315 Q 348 -315 347.5 -315.5 Q 347 -316 347 -316 L 346 -317 Q 336 -326 325.5 -335 Q 315 -344 303 -350 Q 291 -356 277.5 -357.5 Q 264 -359 250 -359 Q 236 -359 222 -357.5 Q 208 -356 196 -349.5 Q 184 -343 173.5 -334 Q 163 -325 153 -315 L 152 -314 Q 151 -314 151 -314 Q 151 -314 151 -314 L 99 -366 Q 115 -380 131.5 -393 Q 148 -406 167.5 -414.5 Q 187 -423 208 -426 Q 229 -429 250 -429 Q 271 -429 292 -426 Q 313 -423 332.5 -414.5 Q 352 -406 369 -393 Q 386 -380 401 -366 L 402 -365 Q 402 -365 402.5 -364.5 Q 403 -364 403 -364 L 404 -363 Q 414 -354 424.5 -345 Q 435 -336 447 -330 Q 459 -324 472.5 -322.5 Q 486 -321 500 -321 Q 531 -321 561 -328 Q 591 -335 621 -342.5 Q 651 -350 681 -357 Q 711 -364 741.5 -368.5 Q 772 -373 803 -374 Q 834 -375 865 -375 L 865 -305 Q 834 -305 803 -303.5 Q 772 -302 741.5 -297.5 Q 711 -293 681 -285.5 Q 651 -278 621.5 -270.5 Q 592 -263 561.5 -257 Q 531 -251 500 -251 Z " id="path49"/><path d="M 508 -395 L -72 -395 L -72 -465 L 508 -465 Z M -72 -215 L -72 -285 L 508 -285 L 508 -215 Z " id="path38"/><path d="M 583 -394 L 522 -394 L 522 -429 L 478 -429 L 478 -394 L 64 -394 L 64 -464 L 583 -464 Z M 583 -216 L 64 -216 L 64 -286 L 478 -286 L 478 -251 L 522 -251 L 522 -286 L 583 -286 Z " id="path50"/><path d="M 59 143 L 361 -823 L 441 -823 L 139 143 Z " id="path47"/><path d="M 616 -59 L 371 -180 L 126 -301 L 126 -379 L 616 -621 L 651 -558 L 205 -340 L 651 -122 Z " id="path59"/><path d="M 64 -117 L 64 -285 L 142 -285 L 142 -234 L 357 -340 L 142 -446 L 142 -395 L 64 -395 L 64 -563 L 436 -379 L 436 -301 Z " id="path26"/><path d="M 64 -305 L 64 -375 L 436 -375 L 436 -305 Z " id="path1"/><path d="M 64 -305 L 64 -375 L 572 -375 L 572 -305 Z " id="path14"/><path d="M 64 -305 L 64 -375 L 865 -375 L 865 -305 Z " id="path10"/><path d="M 64 -305 L 64 -375 L 998 -375 L 998 -305 Z " id="path12"/><path d="M 64 -394 L 64 -464 L 436 -464 L 436 -394 Z M 64 -216 L 64 -286 L 436 -286 L 436 -216 Z " id="path17"/><path d="M 64 -395 L 64 -465 L 572 -465 L 572 -395 Z M 64 -215 L 64 -285 L 572 -285 L 572 -215 Z " id="path29"/><path d="M 64 -395 L 64 -465 L 775 -465 L 775 -395 Z M 64 -215 L 64 -285 L 775 -285 L 775 -215 Z " id="path27"/><path d="M 64 70 L 64 0 L 436 0 L 436 70 Z " id="path44"/><path d="M 642 -395 L -142 -395 L -142 -465 L 642 -465 Z M -142 -215 L -142 -285 L 642 -285 L 642 -215 Z " id="path35"/><path d="M 642 -395 L 64 -395 L 64 -465 L 642 -465 Z M 64 -215 L 64 -285 L 642 -285 L 642 -215 Z " id="path25"/><path d="M 81 -125 L 47 -188 L 356 -340 L 47 -492 L 81 -555 L 436 -379 L 436 -301 Z " id="path11"/><path d="M 83 143 L 83 73 L 321 73 L 321 -753 L 83 -753 L 83 -823 L 399 -823 L 399 143 Z " id="path68"/><path d="M 83 153 L 83 83 Q 101 83 119 81 Q 137 79 154.5 74 Q 172 69 188 61 Q 204 53 217 40.5 Q 230 28 237.5 11 Q 245 -6 245 -24 Q 245 -40 240 -54.5 Q 235 -69 228.5 -82.5 Q 222 -96 215.5 -110 Q 209 -124 204 -138.5 Q 199 -153 196.5 -168 Q 194 -183 194 -198 Q 194 -222 201 -245 Q 208 -268 222.5 -287 Q 237 -306 257.5 -319 Q 278 -332 300 -340 Q 278 -348 257.5 -361 Q 237 -374 222.5 -393 Q 208 -412 201 -435 Q 194 -458 194 -482 Q 194 -497 196.5 -512 Q 199 -527 204 -541.5 Q 209 -556 215.5 -570 Q 222 -584 228.5 -597.5 Q 235 -611 240 -625.5 Q 245 -640 245 -656 Q 245 -674 237.5 -691 Q 230 -708 217 -720.5 Q 204 -733 188 -741 Q 172 -749 154.5 -754 Q 137 -759 119 -761 Q 101 -763 83 -763 L 83 -833 Q 111 -833 138.5 -829.5 Q 166 -826 192.5 -817.5 Q 219 -809 243.5 -794.5 Q 268 -780 286 -758.5 Q 304 -737 313 -710.5 Q 322 -684 322 -656 Q 322 -640 320 -625 Q 318 -610 313 -595.5 Q 308 -581 301.5 -567.5 Q 295 -554 288 -540.5 Q 281 -527 276.5 -512 Q 272 -497 272 -482 Q 272 -465 277 -448.5 Q 282 -432 293 -419 Q 304 -406 319 -397.5 Q 334 -389 350 -384 Q 366 -379 383 -377 Q 400 -375 417 -375 L 417 -358 L 417 -305 Q 400 -305 383 -303 Q 366 -301 350 -296 Q 334 -291 319 -282.5 Q 304 -274 293 -261 Q 282 -248 277 -231.5 Q 272 -215 272 -198 Q 272 -183 276.5 -168 Q 281 -153 288 -139.5 Q 295 -126 301.5 -112.5 Q 308 -99 313 -84.5 Q 318 -70 320 -55 Q 322 -40 322 -24 Q 322 4 313 30.5 Q 304 57 286 78.5 Q 268 100 243.5 114.5 Q 219 129 192.5 137.5 Q 166 146 138.5 149.5 Q 111 153 83 153 Z " id="path70"/><path d="M 840 -206 L 150 -387 L 150 -459 L 840 -640 L 860 -572 L 288 -423 L 860 -274 Z " id="path23"/></defs><g><g data-source-text="-&lt;&lt;" fill="#20242e40" transform="translate(282 60.66) rotate(0) scale(0.023999998)"><use href="#path1" transform="translate(0 0)"/><use href="#path2" transform="translate(500 0)"/><use href="#path3" transform="translate(1000 0)"/></g><g data-source-text=" " fill="#20242e" transform="translate(318 60.66) rotate(0) scale(0.023999998)"><use href="#path4" transform="translate(0 0)"/></g><g data-source-text="-&lt;" fill="#20242e40" transform="translate(330 60.66) rotate(0) scale(0.023999998)"><use href="#path1" transform="translate(0 0)"/><use href="#path5" transform="translate(500 0)"/></g><g data-source-text=" " fill="#20242e" transform="translate(354 60.66) rotate(0) scale(0.023999998)"><use href="#path4" transform="translate(0 0)"/></g><g data-source-text="-&lt;-" fill="#20242e40" transform="translate(366 60.66) rotate(0) scale(0.023999998)"><use href="#path1" transform="translate(0 0)"/><use href="#path5" transform="translate(500 0)"/><use href="#path6" transform="translate(1000 0)"/></g><g data-source-text=" " fill="#20242e" transform="translate(402 60.66) rotate(0) scale(0.023999998)"><use href="#path4" transform="translate(0 0)"/></g><g data-source-text="&lt;--" fill="#20242e" transform="translate(414 60.66) rotate(0) scale(0.023999998)"><use href="#path5" transform="translate(0 0)"/><use href="#path6" transform="translate(500 0)"/><use href="#path7" transform="translate(1000 0)"/></g><g data-source-text=" " fill="#20242e" transform="translate(450 60.66) rotate(0) scale(0.023999998)"><use href="#path4" transform="translate(0 0)"/></g><g data-source-text="&lt;---" fill="#20242e" transform="translate(462 60.66) rotate(0) scale(0.023999998)"><use href="#path5" transform="translate(0 0)"/><use href="#path6" transform="translate(500 0)"/><use href="#path7" transform="translate(1000 0)"/><use href="#path7" transform="translate(1500 0)"/></g><g data-source-text=" " fill="#20242e" transform="translate(510 60.66) rotate(0) scale(0.023999998)"><use href="#path4" transform="translate(0 0)"/></g><g data-source-text="&lt;&lt;-" fill="#20242e" transform="translate(522 60.66) rotate(0) scale(0.023999998)"><use href="#path5" transform="translate(0 0)"/><use href="#path8" transform="translate(500 0)"/><use href="#path9" transform="translate(1000 0)"/></g><g data-source-text=" " fill="#20242e" transform="translate(558 60.66) rotate(0) scale(0.023999998)"><use href="#path4" transform="translate(0 0)"/></g><g data-source-text="&lt;-" fill="#20242e" transform="translate(570 60.66) rotate(0) scale(0.023999998)"><use href="#path5" transform="translate(0 0)"/><use href="#path6" transform="translate(500 0)"/></g><g data-source-text=" " fill="#20242e" transform="translate(594 60.66) rotate(0) scale(0.023999998)"><use href="#path4" transform="translate(0 0)"/></g><g data-source-text="-&gt;" fill="#20242e" transform="translate(606 60.66) rotate(0) scale(0.023999998)"><use href="#path10" transform="translate(0 0)"/><use href="#path11" transform="translate(500 0)"/></g><g data-source-text=" " fill="#20242e" transform="translate(630 60.66) rotate(0) scale(0.023999998)"><use href="#path4" transform="translate(0 0)"/></g><g data-source-text="-&gt;&gt;" fill="#20242e" transform="translate(642 60.66) rotate(0) scale(0.023999998)"><use href="#path12" transform="translate(0 0)"/><use href="#path13" transform="translate(500 0)"/><use href="#path11" transform="translate(1000 0)"/></g><g data-source-text=" " fill="#20242e" transform="translate(678 60.66) rotate(0) scale(0.023999998)"><use href="#path4" transform="translate(0 0)"/></g><g data-source-text="--&gt;" fill="#20242e" transform="translate(690 60.66) rotate(0) scale(0.023999998)"><use href="#path14" transform="translate(0 0)"/><use href="#path10" transform="translate(500 0)"/><use href="#path11" transform="translate(1000 0)"/></g><g data-source-text=" " fill="#20242e" transform="translate(726 60.66) rotate(0) scale(0.023999998)"><use href="#path4" transform="translate(0 0)"/></g><g data-source-text="---&gt;" fill="#20242e" transform="translate(738 60.66) rotate(0) scale(0.023999998)"><use href="#path14" transform="translate(0 0)"/><use href="#path14" transform="translate(500 0)"/><use href="#path10" transform="translate(1000 0)"/><use href="#path11" transform="translate(1500 0)"/></g><g data-source-text=" " fill="#20242e" transform="translate(786 60.66) rotate(0) scale(0.023999998)"><use href="#path4" transform="translate(0 0)"/></g><g data-source-text="-&gt;-" fill="#20242e40" transform="translate(798 60.66) rotate(0) scale(0.023999998)"><use href="#path10" transform="translate(0 0)"/><use href="#path11" transform="translate(500 0)"/><use href="#path1" transform="translate(1000 0)"/></g><g data-source-text=" " fill="#20242e" transform="translate(834 60.66) rotate(0) scale(0.023999998)"><use href="#path4" transform="translate(0 0)"/></g><g data-source-text="&gt;-" fill="#20242e40" transform="translate(846 60.66) rotate(0) scale(0.023999998)"><use href="#path11" transform="translate(0 0)"/><use href="#path1" transform="translate(500 0)"/></g><g data-source-text=" " fill="#20242e" transform="translate(870 60.66) rotate(0) scale(0.023999998)"><use href="#path4" transform="translate(0 0)"/></g><g data-source-text="&gt;&gt;-" fill="#20242e40" transform="translate(882 60.66) rotate(0) scale(0.023999998)"><use href="#path15" transform="translate(0 0)"/><use href="#path16" transform="translate(500 0)"/><use href="#path1" transform="translate(1000 0)"/></g><g data-source-text=" " fill="#20242e" transform="translate(918 60.66) rotate(0) scale(0.023999998)"><use href="#path4" transform="translate(0 0)"/></g><g data-source-text="
" fill="#20242e" transform="translate(930 60.66) rotate(0) scale(0.023999998)"/><g data-source-text="=&lt;&lt;" fill="#20242e40" transform="translate(282 98.16) rotate(0) scale(0.023999998)"><use href="#path17" transform="translate(0 0)"/><use href="#path2" transform="translate(500 0)"/><use href="#path3" transform="translate(1000 0)"/></g><g data-source-text=" " fill="#20242e" transform="translate(318 98.16) rotate(0) scale(0.023999998)"><use href="#path4" transform="translate(0 0)"/></g><g data-source-text="=&lt;" fill="#20242e40" transform="translate(330 98.16) rotate(0) scale(0.023999998)"><use href="#path17" transform="translate(0 0)"/><use href="#path5" transform="translate(500 0)"/></g><g data-source-text=" " fill="#20242e" transform="translate(354 98.16) rotate(0) scale(0.023999998)"><use href="#path4" transform="translate(0 0)"/></g><g data-source-text="=&lt;=" fill="#20242e40" transform="translate(366 98.16) rotate(0) scale(0.023999998)"><use href="#path17" transform="translate(0 0)"/><use href="#path18" transform="translate(500 0)"/><use href="#path19" transform="translate(1000 0)"/></g><g data-source-text=" " fill="#20242e" transform="translate(402 98.16) rotate(0) scale(0.023999998)"><use href="#path4" transform="translate(0 0)"/></g><g data-source-text="&lt;==" fill="#20242e" transform="translate(414 98.16) rotate(0) scale(0.023999998)"><use href="#path18" transform="translate(0 0)"/><use href="#path19" transform="translate(500 0)"/><use href="#path20" transform="translate(1000 0)"/></g><g data-source-text=" " fill="#20242e" transform="translate(450 98.16) rotate(0) scale(0.023999998)"><use href="#path4" transform="translate(0 0)"/></g><g data-source-text="&lt;===" fill="#20242e" transform="translate(462 98.16) rotate(0) scale(0.023999998)"><use href="#path18" transform="translate(0 0)"/><use href="#path19" transform="translate(500 0)"/><use href="#path20" transform="translate(1000 0)"/><use href="#path20" transform="translate(1500 0)"/></g><g data-source-text=" " fill="#20242e" transform="translate(510 98.16) rotate(0) scale(0.023999998)"><use href="#path4" transform="translate(0 0)"/></g><g data-source-text="&lt;&lt;=" fill="#20242e" transform="translate(522 98.16) rotate(0) scale(0.023999998)"><use href="#path5" transform="translate(0 0)"/><use href="#path21" transform="translate(500 0)"/><use href="#path22" transform="translate(1000 0)"/></g><g data-source-text=" " fill="#20242e" transform="translate(558 98.16) rotate(0) scale(0.023999998)"><use href="#path4" transform="translate(0 0)"/></g><g data-source-text="&lt;=" fill="#20242e" transform="translate(570 98.16) rotate(0) scale(0.023999998)"><use href="#path23" transform="translate(0 0)"/><use href="#path24" transform="translate(500 0)"/></g><g data-source-text=" " fill="#20242e" transform="translate(594 98.16) rotate(0) scale(0.023999998)"><use href="#path4" transform="translate(0 0)"/></g><g data-source-text="=&gt;" fill="#20242e" transform="translate(606 98.16) rotate(0) scale(0.023999998)"><use href="#path25" transform="translate(0 0)"/><use href="#path26" transform="translate(500 0)"/></g><g data-source-text=" " fill="#20242e" transform="translate(630 98.16) rotate(0) scale(0.023999998)"><use href="#path4" transform="translate(0 0)"/></g><g data-source-text="=&gt;&gt;" fill="#20242e" transform="translate(642 98.16) rotate(0) scale(0.023999998)"><use href="#path27" transform="translate(0 0)"/><use href="#path28" transform="translate(500 0)"/><use href="#path11" transform="translate(1000 0)"/></g><g data-source-text=" " fill="#20242e" transform="translate(678 98.16) rotate(0) scale(0.023999998)"><use href="#path4" transform="translate(0 0)"/></g><g data-source-text="==&gt;" fill="#20242e" transform="translate(690 98.16) rotate(0) scale(0.023999998)"><use href="#path29" transform="translate(0 0)"/><use href="#path25" transform="translate(500 0)"/><use href="#path26" transform="translate(1000 0)"/></g><g data-source-text=" " fill="#20242e" transform="translate(726 98.16) rotate(0) scale(0.023999998)"><use href="#path4" transform="translate(0 0)"/></g><g data-source-text="===&gt;" fill="#20242e" transform="translate(738 98.16) rotate(0) scale(0.023999998)"><use href="#path29" transform="translate(0 0)"/><use href="#path29" transform="translate(500 0)"/><use href="#path25" transform="translate(1000 0)"/><use href="#path26" transform="translate(1500 0)"/></g><g data-source-text=" " fill="#20242e" transform="translate(786 98.16) rotate(0) scale(0.023999998)"><use href="#path4" transform="translate(0 0)"/></g><g data-source-text="=&gt;=" fill="#20242e40" transform="translate(798 98.16) rotate(0) scale(0.023999998)"><use href="#path25" transform="translate(0 0)"/><use href="#path26" transform="translate(500 0)"/><use href="#path17" transform="translate(1000 0)"/></g><g data-source-text=" " fill="#20242e" transform="translate(834 98.16) rotate(0) scale(0.023999998)"><use href="#path4" transform="translate(0 0)"/></g><g data-source-text="&gt;=" fill="#20242e" transform="translate(846 98.16) rotate(0) scale(0.023999998)"><use href="#path30" transform="translate(0 0)"/><use href="#path24" transform="translate(500 0)"/></g><g data-source-text=" " fill="#20242e" transform="translate(870 98.16) rotate(0) scale(0.023999998)"><use href="#path4" transform="translate(0 0)"/></g><g data-source-text="&gt;&gt;=" fill="#20242e40" transform="translate(882 98.16) rotate(0) scale(0.023999998)"><use href="#path15" transform="translate(0 0)"/><use href="#path16" transform="translate(500 0)"/><use href="#path17" transform="translate(1000 0)"/></g><g data-source-text=" " fill="#20242e" transform="translate(918 98.16) rotate(0) scale(0.023999998)"><use href="#path4" transform="translate(0 0)"/></g><g data-source-text="
" fill="#20242e" transform="translate(930 98.16) rotate(0) scale(0.023999998)"/><g data-source-text="&lt;-&gt;" fill="#20242e" transform="translate(282 135.66) rotate(0) scale(0.023999998)"><use href="#path5" transform="translate(0 0)"/><use href="#path31" transform="translate(500 0)"/><use href="#path11" transform="translate(1000 0)"/></g><g data-source-text=" " fill="#20242e" transform="translate(318 135.66) rotate(0) scale(0.023999998)"><use href="#path4" transform="translate(0 0)"/></g><g data-source-text="&lt;--&gt;" fill="#20242e" transform="translate(330 135.66) rotate(0) scale(0.023999998)"><use href="#path5" transform="translate(0 0)"/><use href="#path32" transform="translate(500 0)"/><use href="#path33" transform="translate(1000 0)"/><use href="#path11" transform="translate(1500 0)"/></g><g data-source-text=" " fill="#20242e" transform="translate(378 135.66) rotate(0) scale(0.023999998)"><use href="#path4" transform="translate(0 0)"/></g><g data-source-text="&lt;---&gt;" fill="#20242e" transform="translate(390 135.66) rotate(0) scale(0.023999998)"><use href="#path5" transform="translate(0 0)"/><use href="#path6" transform="translate(500 0)"/><use href="#path34" transform="translate(1000 0)"/><use href="#path33" transform="translate(1500 0)"/><use href="#path11" transform="translate(2000 0)"/></g><g data-source-text=" " fill="#20242e" transform="translate(450 135.66) rotate(0) scale(0.023999998)"><use href="#path4" transform="translate(0 0)"/></g><g data-source-text="&lt;----&gt;" fill="#20242e" transform="translate(462 135.66) rotate(0) scale(0.023999998)"><use href="#path5" transform="translate(0 0)"/><use href="#path6" transform="translate(500 0)"/><use href="#path7" transform="translate(1000 0)"/><use href="#path34" transform="translate(1500 0)"/><use href="#path33" transform="translate(2000 0)"/><use href="#path11" transform="translate(2500 0)"/></g><g data-source-text=" " fill="#20242e" transform="translate(534 135.66) rotate(0) scale(0.023999998)"><use href="#path4" transform="translate(0 0)"/></g><g data-source-text="&lt;=&gt;" fill="#20242e" transform="translate(546 135.66) rotate(0) scale(0.023999998)"><use href="#path18" transform="translate(0 0)"/><use href="#path35" transform="translate(500 0)"/><use href="#path26" transform="translate(1000 0)"/></g><g data-source-text=" " fill="#20242e" transform="translate(582 135.66) rotate(0) scale(0.023999998)"><use href="#path4" transform="translate(0 0)"/></g><g data-source-text="&lt;==&gt;" fill="#20242e" transform="translate(594 135.66) rotate(0) scale(0.023999998)"><use href="#path18" transform="translate(0 0)"/><use href="#path36" transform="translate(500 0)"/><use href="#path37" transform="translate(1000 0)"/><use href="#path26" transform="translate(1500 0)"/></g><g data-source-text=" " fill="#20242e" transform="translate(642 135.66) rotate(0) scale(0.023999998)"><use href="#path4" transform="translate(0 0)"/></g><g data-source-text="&lt;===&gt;" fill="#20242e" transform="translate(654 135.66) rotate(0) scale(0.023999998)"><use href="#path18" transform="translate(0 0)"/><use href="#path19" transform="translate(500 0)"/><use href="#path38" transform="translate(1000 0)"/><use href="#path37" transform="translate(1500 0)"/><use href="#path26" transform="translate(2000 0)"/></g><g data-source-text=" " fill="#20242e" transform="translate(714 135.66) rotate(0) scale(0.023999998)"><use href="#path4" transform="translate(0 0)"/></g><g data-source-text="&lt;====&gt;" fill="#20242e" transform="translate(726 135.66) rotate(0) scale(0.023999998)"><use href="#path18" transform="translate(0 0)"/><use href="#path19" transform="translate(500 0)"/><use href="#path20" transform="translate(1000 0)"/><use href="#path38" transform="translate(1500 0)"/><use href="#path37" transform="translate(2000 0)"/><use href="#path26" transform="translate(2500 0)"/></g><g data-source-text=" " fill="#20242e" transform="translate(798 135.66) rotate(0) scale(0.023999998)"><use href="#path4" transform="translate(0 0)"/></g><g data-source-text="::" fill="#20242e" transform="translate(810 135.66) rotate(0) scale(0.023999998)"><use href="#path39" transform="translate(0 0)"/><use href="#path40" transform="translate(500 0)"/></g><g data-source-text=" " fill="#20242e" transform="translate(834 135.66) rotate(0) scale(0.023999998)"><use href="#path4" transform="translate(0 0)"/></g><g data-source-text=":::" fill="#20242e" transform="translate(846 135.66) rotate(0) scale(0.023999998)"><use href="#path41" transform="translate(0 0)"/><use href="#path42" transform="translate(500 0)"/><use href="#path43" transform="translate(1000 0)"/></g><g data-source-text=" " fill="#20242e" transform="translate(882 135.66) rotate(0) scale(0.023999998)"><use href="#path4" transform="translate(0 0)"/></g><g data-source-text="__" fill="#20242e40" transform="translate(894 135.66) rotate(0) scale(0.023999998)"><use href="#path44" transform="translate(0 0)"/><use href="#path44" transform="translate(500 0)"/></g><g data-source-text=" " fill="#20242e" transform="translate(918 135.66) rotate(0) scale(0.023999998)"><use href="#path4" transform="translate(0 0)"/></g><g data-source-text="
" fill="#20242e" transform="translate(930 135.66) rotate(0) scale(0.023999998)"/><g data-source-text="&lt;~~" fill="#20242e" transform="translate(282 173.16) rotate(0) scale(0.023999998)"><use href="#path5" transform="translate(0 0)"/><use href="#path45" transform="translate(500 0)"/><use href="#path46" transform="translate(1000 0)"/></g><g data-source-text=" " fill="#20242e" transform="translate(318 173.16) rotate(0) scale(0.023999998)"><use href="#path4" transform="translate(0 0)"/></g><g data-source-text="&lt;/" fill="#20242e40" transform="translate(330 173.16) rotate(0) scale(0.023999998)"><use href="#path5" transform="translate(0 0)"/><use href="#path47" transform="translate(500 0)"/></g><g data-source-text=" " fill="#20242e" transform="translate(354 173.16) rotate(0) scale(0.023999998)"><use href="#path4" transform="translate(0 0)"/></g><g data-source-text="&lt;/&gt;" fill="#20242e40" transform="translate(366 173.16) rotate(0) scale(0.023999998)"><use href="#path5" transform="translate(0 0)"/><use href="#path47" transform="translate(500 0)"/><use href="#path11" transform="translate(1000 0)"/></g><g data-source-text=" " fill="#20242e" transform="translate(402 173.16) rotate(0) scale(0.023999998)"><use href="#path4" transform="translate(0 0)"/></g><g data-source-text="/&gt;" fill="#20242e40" transform="translate(414 173.16) rotate(0) scale(0.023999998)"><use href="#path47" transform="translate(0 0)"/><use href="#path11" transform="translate(500 0)"/></g><g data-source-text=" " fill="#20242e" transform="translate(438 173.16) rotate(0) scale(0.023999998)"><use href="#path4" transform="translate(0 0)"/></g><g data-source-text="~~&gt;" fill="#20242e" transform="translate(450 173.16) rotate(0) scale(0.023999998)"><use href="#path48" transform="translate(0 0)"/><use href="#path49" transform="translate(500 0)"/><use href="#path11" transform="translate(1000 0)"/></g><g data-source-text=" " fill="#20242e" transform="translate(486 173.16) rotate(0) scale(0.023999998)"><use href="#path4" transform="translate(0 0)"/></g><g data-source-text="==" fill="#20242e" transform="translate(498 173.16) rotate(0) scale(0.023999998)"><use href="#path50" transform="translate(0 0)"/><use href="#path51" transform="translate(500 0)"/></g><g data-source-text=" " fill="#20242e" transform="translate(522 173.16) rotate(0) scale(0.023999998)"><use href="#path4" transform="translate(0 0)"/></g><g data-source-text="!=" fill="#20242e40" transform="translate(534 173.16) rotate(0) scale(0.023999998)"><use href="#path52" transform="translate(0 0)"/><use href="#path17" transform="translate(500 0)"/></g><g data-source-text=" " fill="#20242e" transform="translate(558 173.16) rotate(0) scale(0.023999998)"><use href="#path4" transform="translate(0 0)"/></g><g data-source-text="/=" fill="#20242e40" transform="translate(570 173.16) rotate(0) scale(0.023999998)"><use href="#path47" transform="translate(0 0)"/><use href="#path17" transform="translate(500 0)"/></g><g data-source-text=" " fill="#20242e" transform="translate(594 173.16) rotate(0) scale(0.023999998)"><use href="#path4" transform="translate(0 0)"/></g><g data-source-text="~=" fill="#20242e" transform="translate(606 173.16) rotate(0) scale(0.023999998)"><use href="#path53" transform="translate(0 0)"/><use href="#path54" transform="translate(500 0)"/></g><g data-source-text=" " fill="#20242e" transform="translate(630 173.16) rotate(0) scale(0.023999998)"><use href="#path4" transform="translate(0 0)"/></g><g data-source-text="&lt;&gt;" fill="#20242e40" transform="translate(642 173.16) rotate(0) scale(0.023999998)"><use href="#path5" transform="translate(0 0)"/><use href="#path11" transform="translate(500 0)"/></g><g data-source-text=" " fill="#20242e" transform="translate(666 173.16) rotate(0) scale(0.023999998)"><use href="#path4" transform="translate(0 0)"/></g><g data-source-text="===" fill="#20242e" transform="translate(678 173.16) rotate(0) scale(0.023999998)"><use href="#path50" transform="translate(0 0)"/><use href="#path51" transform="translate(500 0)"/><use href="#path55" transform="translate(1000 0)"/></g><g data-source-text=" " fill="#20242e" transform="translate(714 173.16) rotate(0) scale(0.023999998)"><use href="#path4" transform="translate(0 0)"/></g><g data-source-text="!==" fill="#20242e40" transform="translate(726 173.16) rotate(0) scale(0.023999998)"><use href="#path52" transform="translate(0 0)"/><use href="#path50" transform="translate(500 0)"/><use href="#path51" transform="translate(1000 0)"/></g><g data-source-text=" " fill="#20242e" transform="translate(762 173.16) rotate(0) scale(0.023999998)"><use href="#path4" transform="translate(0 0)"/></g><g data-source-text="!===" fill="#20242e40" transform="translate(774 173.16) rotate(0) scale(0.023999998)"><use href="#path52" transform="translate(0 0)"/><use href="#path50" transform="translate(500 0)"/><use href="#path51" transform="translate(1000 0)"/><use href="#path55" transform="translate(1500 0)"/></g><g data-source-text=" " fill="#20242e" transform="translate(822 173.16) rotate(0) scale(0.023999998)"><use href="#path4" transform="translate(0 0)"/></g><g data-source-text="=/=" fill="#20242e40" transform="translate(834 173.16) rotate(0) scale(0.023999998)"><use href="#path17" transform="translate(0 0)"/><use href="#path47" transform="translate(500 0)"/><use href="#path17" transform="translate(1000 0)"/></g><g data-source-text=" " fill="#20242e" transform="translate(870 173.16) rotate(0) scale(0.023999998)"><use href="#path4" transform="translate(0 0)"/></g><g data-source-text="=!=" fill="#20242e40" transform="translate(882 173.16) rotate(0) scale(0.023999998)"><use href="#path17" transform="translate(0 0)"/><use href="#path52" transform="translate(500 0)"/><use href="#path17" transform="translate(1000 0)"/></g><g data-source-text=" " fill="#20242e" transform="translate(918 173.16) rotate(0) scale(0.023999998)"><use href="#path4" transform="translate(0 0)"/></g><g data-source-text="
" fill="#20242e" transform="translate(930 173.16) rotate(0) scale(0.023999998)"/><g data-source-text="&lt;:" fill="#20242e" transform="translate(282 210.66) rotate(0) scale(0.023999998)"><use href="#path5" transform="translate(0 0)"/><use href="#path56" transform="translate(500 0)"/></g><g data-source-text=" " fill="#20242e" transform="translate(306 210.66) rotate(0) scale(0.023999998)"><use href="#path4" transform="translate(0 0)"/></g><g data-source-text=":=" fill="#20242e" transform="translate(318 210.66) rotate(0) scale(0.023999998)"><use href="#path56" transform="translate(0 0)"/><use href="#path17" transform="translate(500 0)"/></g><g data-source-text=" " fill="#20242e" transform="translate(342 210.66) rotate(0) scale(0.023999998)"><use href="#path4" transform="translate(0 0)"/></g><g data-source-text=":-" fill="#20242e" transform="translate(354 210.66) rotate(0) scale(0.023999998)"><use href="#path56" transform="translate(0 0)"/><use href="#path1" transform="translate(500 0)"/></g><g data-source-text=" " fill="#20242e" transform="translate(378 210.66) rotate(0) scale(0.023999998)"><use href="#path4" transform="translate(0 0)"/></g><g data-source-text=":+" fill="#20242e" transform="translate(390 210.66) rotate(0) scale(0.023999998)"><use href="#path56" transform="translate(0 0)"/><use href="#path57" transform="translate(500 0)"/></g><g data-source-text=" " fill="#20242e" transform="translate(414 210.66) rotate(0) scale(0.023999998)"><use href="#path4" transform="translate(0 0)"/></g><g data-source-text="&lt;*" fill="#20242e" transform="translate(426 210.66) rotate(0) scale(0.023999998)"><use href="#path5" transform="translate(0 0)"/><use href="#path58" transform="translate(500 0)"/></g><g data-source-text=" " fill="#20242e" transform="translate(450 210.66) rotate(0) scale(0.023999998)"><use href="#path4" transform="translate(0 0)"/></g><g data-source-text="&lt;*&gt;" fill="#20242e" transform="translate(462 210.66) rotate(0) scale(0.023999998)"><use href="#path5" transform="translate(0 0)"/><use href="#path58" transform="translate(500 0)"/><use href="#path11" transform="translate(1000 0)"/></g><g data-source-text=" " fill="#20242e" transform="translate(498 210.66) rotate(0) scale(0.023999998)"><use href="#path4" transform="translate(0 0)"/></g><g data-source-text="*&gt;" fill="#20242e" transform="translate(510 210.66) rotate(0) scale(0.023999998)"><use href="#path58" transform="translate(0 0)"/><use href="#path11" transform="translate(500 0)"/></g><g data-source-text=" " fill="#20242e" transform="translate(534 210.66) rotate(0) scale(0.023999998)"><use href="#path4" transform="translate(0 0)"/></g><g data-source-text="&lt;|" fill="#20242e" transform="translate(546 210.66) rotate(0) scale(0.023999998)"><use href="#path59" transform="translate(0 0)"/><use href="#path60" transform="translate(500 0)"/></g><g data-source-text=" " fill="#20242e" transform="translate(570 210.66) rotate(0) scale(0.023999998)"><use href="#path4" transform="translate(0 0)"/></g><g data-source-text="&lt;|&gt;" fill="#20242e" transform="translate(582 210.66) rotate(0) scale(0.023999998)"><use href="#path59" transform="translate(0 0)"/><use href="#path60" transform="translate(500 0)"/><use href="#path61" transform="translate(1000 0)"/></g><g data-source-text=" " fill="#20242e" transform="translate(618 210.66) rotate(0) scale(0.023999998)"><use href="#path4" transform="translate(0 0)"/></g><g data-source-text="|&gt;" fill="#20242e" transform="translate(630 210.66) rotate(0) scale(0.023999998)"><use href="#path60" transform="translate(0 0)"/><use href="#path61" transform="translate(500 0)"/></g><g data-source-text=" " fill="#20242e" transform="translate(654 210.66) rotate(0) scale(0.023999998)"><use href="#path4" transform="translate(0 0)"/></g><g data-source-text="&lt;." fill="#20242e40" transform="translate(666 210.66) rotate(0) scale(0.023999998)"><use href="#path5" transform="translate(0 0)"/><use href="#path62" transform="translate(500 0)"/></g><g data-source-text=" " fill="#20242e" transform="translate(690 210.66) rotate(0) scale(0.023999998)"><use href="#path4" transform="translate(0 0)"/></g><g data-source-text="&lt;.&gt;" fill="#20242e40" transform="translate(702 210.66) rotate(0) scale(0.023999998)"><use href="#path5" transform="translate(0 0)"/><use href="#path62" transform="translate(500 0)"/><use href="#path11" transform="translate(1000 0)"/></g><g data-source-text=" " fill="#20242e" transform="translate(738 210.66) rotate(0) scale(0.023999998)"><use href="#path4" transform="translate(0 0)"/></g><g data-source-text=".&gt;" fill="#20242e40" transform="translate(750 210.66) rotate(0) scale(0.023999998)"><use href="#path62" transform="translate(0 0)"/><use href="#path11" transform="translate(500 0)"/></g><g data-source-text=" " fill="#20242e" transform="translate(774 210.66) rotate(0) scale(0.023999998)"><use href="#path4" transform="translate(0 0)"/></g><g data-source-text="+:" fill="#20242e" transform="translate(786 210.66) rotate(0) scale(0.023999998)"><use href="#path57" transform="translate(0 0)"/><use href="#path56" transform="translate(500 0)"/></g><g data-source-text=" " fill="#20242e" transform="translate(810 210.66) rotate(0) scale(0.023999998)"><use href="#path4" transform="translate(0 0)"/></g><g data-source-text="-:" fill="#20242e" transform="translate(822 210.66) rotate(0) scale(0.023999998)"><use href="#path1" transform="translate(0 0)"/><use href="#path56" transform="translate(500 0)"/></g><g data-source-text=" " fill="#20242e" transform="translate(846 210.66) rotate(0) scale(0.023999998)"><use href="#path4" transform="translate(0 0)"/></g><g data-source-text="=:" fill="#20242e" transform="translate(858 210.66) rotate(0) scale(0.023999998)"><use href="#path17" transform="translate(0 0)"/><use href="#path56" transform="translate(500 0)"/></g><g data-source-text=" " fill="#20242e" transform="translate(882 210.66) rotate(0) scale(0.023999998)"><use href="#path4" transform="translate(0 0)"/></g><g data-source-text=":&gt;" fill="#20242e" transform="translate(894 210.66) rotate(0) scale(0.023999998)"><use href="#path56" transform="translate(0 0)"/><use href="#path11" transform="translate(500 0)"/></g><g data-source-text=" " fill="#20242e" transform="translate(918 210.66) rotate(0) scale(0.023999998)"><use href="#path4" transform="translate(0 0)"/></g><g data-source-text="
" fill="#20242e" transform="translate(930 210.66) rotate(0) scale(0.023999998)"/><g data-source-text="(*" fill="#20242e40" transform="translate(282 248.16) rotate(0) scale(0.023999998)"><use href="#path63" transform="translate(0 0)"/><use href="#path64" transform="translate(500 0)"/></g><g data-source-text=" " fill="#20242e" transform="translate(306 248.16) rotate(0) scale(0.023999998)"><use href="#path4" transform="translate(0 0)"/></g><g data-source-text="*)" fill="#20242e40" transform="translate(318 248.16) rotate(0) scale(0.023999998)"><use href="#path64" transform="translate(0 0)"/><use href="#path65" transform="translate(500 0)"/></g><g data-source-text=" " fill="#20242e" transform="translate(342 248.16) rotate(0) scale(0.023999998)"><use href="#path4" transform="translate(0 0)"/></g><g data-source-text="/*" fill="#20242e40" transform="translate(354 248.16) rotate(0) scale(0.023999998)"><use href="#path47" transform="translate(0 0)"/><use href="#path64" transform="translate(500 0)"/></g><g data-source-text=" " fill="#20242e" transform="translate(378 248.16) rotate(0) scale(0.023999998)"><use href="#path4" transform="translate(0 0)"/></g><g data-source-text="*/" fill="#20242e40" transform="translate(390 248.16) rotate(0) scale(0.023999998)"><use href="#path64" transform="translate(0 0)"/><use href="#path47" transform="translate(500 0)"/></g><g data-source-text=" " fill="#20242e" transform="translate(414 248.16) rotate(0) scale(0.023999998)"><use href="#path4" transform="translate(0 0)"/></g><g data-source-text="[|" fill="#20242e40" transform="translate(426 248.16) rotate(0) scale(0.023999998)"><use href="#path66" transform="translate(0 0)"/><use href="#path67" transform="translate(500 0)"/></g><g data-source-text=" " fill="#20242e" transform="translate(450 248.16) rotate(0) scale(0.023999998)"><use href="#path4" transform="translate(0 0)"/></g><g data-source-text="|]" fill="#20242e40" transform="translate(462 248.16) rotate(0) scale(0.023999998)"><use href="#path67" transform="translate(0 0)"/><use href="#path68" transform="translate(500 0)"/></g><g data-source-text=" " fill="#20242e" transform="translate(486 248.16) rotate(0) scale(0.023999998)"><use href="#path4" transform="translate(0 0)"/></g><g data-source-text="{|" fill="#20242e40" transform="translate(498 248.16) rotate(0) scale(0.023999998)"><use href="#path69" transform="translate(0 0)"/><use href="#path67" transform="translate(500 0)"/></g><g data-source-text=" " fill="#20242e" transform="translate(522 248.16) rotate(0) scale(0.023999998)"><use href="#path4" transform="translate(0 0)"/></g><g data-source-text="|}" fill="#20242e40" transform="translate(534 248.16) rotate(0) scale(0.023999998)"><use href="#path67" transform="translate(0 0)"/><use href="#path70" transform="translate(500 0)"/></g><g data-source-text=" " fill="#20242e" transform="translate(558 248.16) rotate(0) scale(0.023999998)"><use href="#path4" transform="translate(0 0)"/></g><g data-source-text="++" fill="#20242e" transform="translate(570 248.16) rotate(0) scale(0.023999998)"><use href="#path71" transform="translate(0 0)"/><use href="#path72" transform="translate(500 0)"/></g><g data-source-text=" " fill="#20242e" transform="translate(594 248.16) rotate(0) scale(0.023999998)"><use href="#path4" transform="translate(0 0)"/></g><g data-source-text="+++" fill="#20242e" transform="translate(606 248.16) rotate(0) scale(0.023999998)"><use href="#path71" transform="translate(0 0)"/><use href="#path73" transform="translate(500 0)"/><use href="#path72" transform="translate(1000 0)"/></g><g data-source-text=" " fill="#20242e" transform="translate(642 248.16) rotate(0) scale(0.023999998)"><use href="#path4" transform="translate(0 0)"/></g><g data-source-text="\/" fill="#20242e40" transform="translate(654 248.16) rotate(0) scale(0.023999998)"><use href="#path74" transform="translate(0 0)"/><use href="#path47" transform="translate(500 0)"/></g><g data-source-text=" " fill="#20242e" transform="translate(678 248.16) rotate(0) scale(0.023999998)"><use href="#path4" transform="translate(0 0)"/></g><g data-source-text="/\" fill="#20242e40" transform="translate(690 248.16) rotate(0) scale(0.023999998)"><use href="#path47" transform="translate(0 0)"/><use href="#path74" transform="translate(500 0)"/></g><g data-source-text=" " fill="#20242e" transform="translate(714 248.16) rotate(0) scale(0.023999998)"><use href="#path4" transform="translate(0 0)"/></g><g data-source-text="|-" fill="#20242e40" transform="translate(726 248.16) rotate(0) scale(0.023999998)"><use href="#path67" transform="translate(0 0)"/><use href="#path1" transform="translate(500 0)"/></g><g data-source-text=" " fill="#20242e" transform="translate(750 248.16) rotate(0) scale(0.023999998)"><use href="#path4" transform="translate(0 0)"/></g><g data-source-text="-|" fill="#20242e40" transform="translate(762 248.16) rotate(0) scale(0.023999998)"><use href="#path1" transform="translate(0 0)"/><use href="#path67" transform="translate(500 0)"/></g><g data-source-text=" " fill="#20242e" transform="translate(786 248.16) rotate(0) scale(0.023999998)"><use href="#path4" transform="translate(0 0)"/></g><g data-source-text="&lt;!--" fill="#20242e40" transform="translate(798 248.16) rotate(0) scale(0.023999998)"><use href="#path5" transform="translate(0 0)"/><use href="#path52" transform="translate(500 0)"/><use href="#path1" transform="translate(1000 0)"/><use href="#path1" transform="translate(1500 0)"/></g><g data-source-text=" " fill="#20242e" transform="translate(846 248.16) rotate(0) scale(0.023999998)"><use href="#path4" transform="translate(0 0)"/></g><g data-source-text="&lt;!---" fill="#20242e40" transform="translate(858 248.16) rotate(0) scale(0.023999998)"><use href="#path5" transform="translate(0 0)"/><use href="#path52" transform="translate(500 0)"/><use href="#path1" transform="translate(1000 0)"/><use href="#path1" transform="translate(1500 0)"/><use href="#path1" transform="translate(2000 0)"/></g><g data-source-text=" " fill="#20242e" transform="translate(918 248.16) rotate(0) scale(0.023999998)"><use href="#path4" transform="translate(0 0)"/></g></g></svg>