<?xml version="1.0" encoding="UTF-8" standalone="no"?>
<svg xmlns="http://www.w3.org/2000/svg" height="300" viewBox="0 0 1200 300" width="1200"><defs><path d="" id="path3"/><path d="M 101 143 L 101 -823 L 417 -823 L 417 -753 L 179 -753 L 179 73 L 417 73 L 417 143 Z " id="path17"/><path d="M 101 161 L 63 100 Q 119 68 163 19 Q 207 -30 234.5 -88.5 Q 262 -147 273 -211 Q 284 -275 284 -340 Q 284 -405 273 -469 Q 262 -533 234.5 -591.5 Q 207 -650 163 -699 Q 119 -748 63 -780 L 101 -841 Q 145 -817 182.5 -784.5 Q 220 -752 250 -712.5 Q 280 -673 302 -628.5 Q 324 -584 337 -536 Q 350 -488 356 -439 Q 362 -390 362 -340 Q 362 -290 356 -241 Q 350 -192 337 -144 Q 324 -96 302 -51.5 Q 280 -7 250 32.5 Q 220 72 182.5 104.5 Q 145 137 101 161 Z " id="path16"/><path d="M 158 -283 L 95 -324 L 200 -458 L 38 -505 L 62 -571 L 217 -515 L 211 -683 L 289 -683 L 283 -515 L 438 -571 L 462 -505 L 300 -458 L 405 -324 L 342 -283 L 250 -419 Z " id="path11"/><path d="M 211 -260 L 211 -735 L 289 -735 L 289 -260 Z M 250 8 Q 236 8 222 4 Q 208 0 198 -10.5 Q 188 -21 184 -34.5 Q 180 -48 180 -63 Q 180 -77 184 -90.5 Q 188 -104 198 -114.5 Q 208 -125 222 -129 Q 236 -133 250 -133 Q 264 -133 278 -129 Q 292 -125 302 -114.5 Q 312 -104 316.5 -90.5 Q 321 -77 321 -63 Q 321 -48 316.5 -34.5 Q 312 -21 302 -10.5 Q 292 0 278 4 Q 264 8 250 8 Z " id="path10"/><path d="M 211 143 L 211 -823 L 289 -823 L 289 143 Z " id="path13"/><path d="M 250 -372 Q 234 -372 219 -376.5 Q 204 -381 192.5 -392.5 Q 181 -404 176.5 -419 Q 172 -434 172 -450 Q 172 -466 176.5 -481 Q 181 -496 192.5 -507.5 Q 204 -519 219 -523.5 Q 234 -528 250 -528 Q 266 -528 281 -523.5 Q 296 -519 307.5 -507.5 Q 319 -496 323.5 -481 Q 328 -466 328 -450 Q 328 -434 323.5 -419 Q 319 -404 307.5 -392.5 Q 296 -381 281 -376.5 Q 266 -372 250 -372 Z M 250 8 Q 234 8 219 3.5 Q 204 -1 192.5 -12.5 Q 181 -24 176.5 -39 Q 172 -54 172 -70 Q 172 -86 176.5 -101 Q 181 -116 192.5 -127.5 Q 204 -139 219 -143.5 Q 234 -148 250 -148 Q 266 -148 281 -143.5 Q 296 -139 307.5 -127.5 Q 319 -116 323.5 -101 Q 328 -86 328 -70 Q 328 -54 323.5 -39 Q 319 -24 307.5 -12.5 Q 296 -1 281 3.5 Q 266 8 250 8 Z " id="path6"/><path d="M 250 8 Q 234 8 219 3.5 Q 204 -1 192.5 -12.5 Q 181 -24 176.5 -39 Q 172 -54 172 -70 Q 172 -86 176.5 -101 Q 181 -116 192.5 -127.5 Q 204 -139 219 -143.5 Q 234 -148 250 -148 Q 266 -148 281 -143.5 Q 296 -139 307.5 -127.5 Q 319 -116 323.5 -101 Q 328 -86 328 -70 Q 328 -54 323.5 -39 Q 319 -24 307.5 -12.5 Q 296 -1 281 3.5 Q 266 8 250 8 Z " id="path14"/><path d="M 289 -147 L 211 -147 L 211 -305 L 64 -305 L 64 -375 L 211 -375 L 211 -533 L 289 -533 L 289 -375 L 436 -375 L 436 -305 L 289 -305 Z " id="path12"/><path d="M 323 -185 Q 315 -185 308 -186 Q 301 -187 295 -189.5 Q 289 -192 283 -195.5 Q 277 -199 271.5 -203.5 Q 266 -208 261.5 -212.5 Q 257 -217 252.5 -222.5 Q 248 -228 244 -234 Q 240 -240 236.5 -245.5 Q 233 -251 229.5 -257 Q 226 -263 222.5 -269 Q 219 -275 215.5 -281.5 Q 212 -288 208 -294.5 Q 204 -301 200 -307 Q 196 -313 192.5 -318 Q 189 -323 185 -328.5 Q 181 -334 177 -337 Q 174 -334 171.5 -331 Q 169 -328 165 -323 Q 161 -318 158.5 -314.5 Q 156 -311 154.5 -308 Q 153 -305 151 -301.5 Q 149 -298 147 -294.5 Q 145 -291 143 -287 Q 141 -283 139 -278.5 Q 137 -274 134.5 -269.5 Q 132 -265 130 -260 Q 128 -255 125.5 -249.5 Q 123 -244 120.5 -238.5 Q 118 -233 115.5 -227 Q 113 -221 110.5 -214.5 Q 108 -208 105.5 -201.5 Q 103 -195 100 -188 L 28 -212 Q 32 -224 36 -234.5 Q 40 -245 44.5 -255 Q 49 -265 53 -274.5 Q 57 -284 60.5 -292.5 Q 64 -301 68 -308.5 Q 72 -316 76 -323 Q 80 -330 83.5 -336.5 Q 87 -343 91 -349 Q 95 -355 101 -363 Q 107 -371 113.5 -377.5 Q 120 -384 126.5 -389.5 Q 133 -395 141.5 -399.5 Q 150 -404 159 -406.5 Q 168 -409 177 -409 Q 192 -409 205 -404 Q 218 -399 228.5 -390 Q 239 -381 247.5 -370.5 Q 256 -360 263.5 -348.5 Q 271 -337 277.5 -325 Q 284 -313 292 -299.5 Q 300 -286 307 -275.5 Q 314 -265 323 -257 Q 326 -260 328.5 -262.5 Q 331 -265 335 -270 Q 339 -275 341.5 -279 Q 344 -283 345.5 -286 Q 347 -289 349 -292.5 Q 351 -296 353 -299.5 Q 355 -303 357 -307 Q 359 -311 361 -315 Q 363 -319 365.5 -324 Q 368 -329 370 -334 Q 372 -339 374.5 -344 Q 377 -349 379.5 -354.5 Q 382 -360 384.5 -366 Q 387 -372 389.5 -378.5 Q 392 -385 394.5 -392 Q 397 -399 400 -406 L 472 -381 Q 468 -370 464 -359 Q 460 -348 455.5 -338 Q 451 -328 447 -319 Q 443 -310 439.5 -301.5 Q 436 -293 432 -285 Q 428 -277 424 -270 Q 420 -263 416.5 -257 Q 413 -251 409 -245 Q 405 -239 399 -231 Q 393 -223 386.5 -216 Q 380 -209 373.5 -203.5 Q 367 -198 358.5 -194 Q 350 -190 341 -187.5 Q 332 -185 323 -185 Z " id="path8"/><path d="M 361 143 L 59 -823 L 139 -823 L 441 143 Z " id="path21"/><path d="M 399 161 Q 355 137 317.5 104.5 Q 280 72 250 32.5 Q 220 -7 198 -51.5 Q 176 -96 163 -144 Q 150 -192 144 -241 Q 138 -290 138 -340 Q 138 -390 144 -439 Q 150 -488 163 -536 Q 176 -584 198 -628.5 Q 220 -673 250 -712.5 Q 280 -752 317.5 -784.5 Q 355 -817 399 -841 L 437 -780 Q 381 -748 337 -699 Q 293 -650 265.5 -591.5 Q 238 -533 227 -469 Q 216 -405 216 -340 Q 216 -275 227 -211 Q 238 -147 265.5 -88.5 Q 293 -30 337 19 Q 381 68 437 100 Z " id="path15"/><path d="M 416 -81 L 64 -299 L 64 -381 L 416 -599 L 456 -539 L 131 -340 L 456 -141 Z " id="path2"/><path d="M 417 153 Q 389 153 361.5 149.5 Q 334 146 307.5 137.5 Q 281 129 256.5 114.5 Q 232 100 214 78.5 Q 196 57 187 30.5 Q 178 4 178 -24 Q 178 -40 180 -55 Q 182 -70 187 -84.5 Q 192 -99 198.5 -112.5 Q 205 -126 212 -139.5 Q 219 -153 223.5 -168 Q 228 -183 228 -198 Q 228 -215 223 -231.5 Q 218 -248 207 -261 Q 196 -274 181 -282.5 Q 166 -291 150 -296 Q 134 -301 117 -303 Q 100 -305 83 -305 L 83 -375 Q 100 -375 117 -377 Q 134 -379 150 -384 Q 166 -389 181 -397.5 Q 196 -406 207 -419 Q 218 -432 223 -448.5 Q 228 -465 228 -482 Q 228 -497 223.5 -512 Q 219 -527 212 -540.5 Q 205 -554 198.5 -567.5 Q 192 -581 187 -595.5 Q 182 -610 180 -625 Q 178 -640 178 -656 Q 178 -684 187 -710.5 Q 196 -737 214 -758.5 Q 232 -780 256.5 -794.5 Q 281 -809 307.5 -817.5 Q 334 -826 361.5 -829.5 Q 389 -833 417 -833 L 417 -763 Q 399 -763 381 -761 Q 363 -759 345.5 -754 Q 328 -749 312 -741 Q 296 -733 283 -720.5 Q 270 -708 262.5 -691 Q 255 -674 255 -656 Q 255 -640 260 -625.5 Q 265 -611 271.5 -597.5 Q 278 -584 284.5 -570 Q 291 -556 296 -541.5 Q 301 -527 303.5 -512 Q 306 -497 306 -482 Q 306 -458 299 -435 Q 292 -412 277.5 -393 Q 263 -374 242.5 -361 Q 222 -348 200 -340 Q 222 -332 242.5 -319 Q 263 -306 277.5 -287 Q 292 -268 299 -245 Q 306 -222 306 -198 Q 306 -183 303.5 -168 Q 301 -153 296 -138.5 Q 291 -124 284.5 -110 Q 278 -96 271.5 -82.5 Q 265 -69 260 -54.5 Q 255 -40 255 -24 Q 255 -6 262.5 11 Q 270 28 283 40.5 Q 296 53 312 61 Q 328 69 345.5 74 Q 363 79 381 81 Q 399 83 417 83 Z " id="path19"/><path d="M 59 143 L 361 -823 L 441 -823 L 139 143 Z " id="path9"/><path d="M 64 -305 L 64 -375 L 436 -375 L 436 -305 Z " id="path1"/><path d="M 64 -394 L 64 -464 L 436 -464 L 436 -394 Z M 436 -216 L 64 -216 L 64 -286 L 436 -286 Z " id="path5"/><path d="M 64 70 L 64 0 L 436 0 L 436 70 Z " id="path7"/><path d="M 83 143 L 83 73 L 321 73 L 321 -753 L 83 -753 L 83 -823 L 399 -823 L 399 143 Z " id="path18"/><path d="M 83 153 L 83 83 Q 101 83 119 81 Q 137 79 154.5 74 Q 172 69 188 61 Q 204 53 217 40.5 Q 230 28 237.5 11 Q 245 -6 245 -24 Q 245 -40 240 -54.5 Q 235 -69 228.5 -82.5 Q 222 -96 215.5 -110 Q 209 -124 204 -138.5 Q 199 -153 196.5 -168 Q 194 -183 194 -198 Q 194 -222 201 -245 Q 208 -268 222.5 -287 Q 237 -306 257.5 -319 Q 278 -332 300 -340 Q 278 -348 257.5 -361 Q 237 -374 222.5 -393 Q 208 -412 201 -435 Q 194 -458 194 -482 Q 194 -497 196.5 -512 Q 199 -527 204 -541.5 Q 209 -556 215.5 -570 Q 222 -584 228.5 -597.5 Q 235 -611 240 -625.5 Q 245 -640 245 -656 Q 245 -674 237.5 -691 Q 230 -708 217 -720.5 Q 204 -733 188 -741 Q 172 -749 154.5 -754 Q 137 -759 119 -761 Q 101 -763 83 -763 L 83 -833 Q 111 -833 138.5 -829.5 Q 166 -826 192.5 -817.5 Q 219 -809 243.5 -794.5 Q 268 -780 286 -758.5 Q 304 -737 313 -710.5 Q 322 -684 322 -656 Q 322 -640 320 -625 Q 318 -610 313 -595.5 Q 308 -581 301.5 -567.5 Q 295 -554 288 -540.5 Q 281 -527 276.5 -512 Q 272 -497 272 -482 Q 272 -465 277 -448.5 Q 282 -432 293 -419 Q 304 -406 319 -397.5 Q 334 -389 350 -384 Q 366 -379 383 -377 Q 400 -375 417 -375 L 417 -305 Q 400 -305 383 -303 Q 366 -301 350 -296 Q 334 -291 319 -282.5 Q 304 -274 293 -261 Q 282 -248 277 -231.5 Q 272 -215 272 -198 Q 272 -183 276.5 -168 Q 281 -153 288 -139.5 Q 295 -126 301.5 -112.5 Q 308 -99 313 -84.5 Q 318 -70 320 -55 Q 322 -40 322 -24 Q 322 4 313 30.5 Q 304 57 286 78.5 Q 268 100 243.5 114.5 Q 219 129 192.5 137.5 Q 166 146 138.5 149.5 Q 111 153 83 153 Z " id="path20"/><path d="M 84 -81 L 44 -141 L 369 -340 L 44 -539 L 84 -599 L 436 -381 L 436 -299 Z " id="path4"/></defs><g><g data-source-text="-&lt;&lt;" fill="#20242e40" transform="translate(282 60.66) rotate(0) scale(0.023999998)"><use href="#path1" transform="translate(0 0)"/><use href="#path2" transform="translate(500 0)"/><use href="#path2" transform="translate(1000 0)"/></g><g data-source-text=" " fill="#20242e" transform="translate(318 60.66) rotate(0) scale(0.023999998)"><use href="#path3" transform="translate(0 0)"/></g><g data-source-text="-&lt;" fill="#20242e40" transform="translate(330 60.66) rotate(0) scale(0.023999998)"><use href="#path1" transform="translate(0 0)"/><use href="#path2" transform="translate(500 0)"/></g><g data-source-text=" " fill="#20242e" transform="translate(354 60.66) rotate(0) scale(0.023999998)"><use href="#path3" transform="translate(0 0)"/></g><g data-source-text="-&lt;-" fill="#20242e40" transform="translate(366 60.66) rotate(0) scale(0.023999998)"><use href="#path1" transform="translate(0 0)"/><use href="#path2" transform="translate(500 0)"/><use href="#path1" transform="translate(1000 0)"/></g><g data-source-text=" " fill="#20242e" transform="translate(402 60.66) rotate(0) scale(0.023999998)"><use href="#path3" transform="translate(0 0)"/></g><g data-source-text="&lt;--" fill="#20242e40" transform="translate(414 60.66) rotate(0) scale(0.023999998)"><use href="#path2" transform="translate(0 0)"/><use href="#path1" transform="translate(500 0)"/><use href="#path1" transform="translate(1000 0)"/></g><g data-source-text=" " fill="#20242e" transform="translate(450 60.66) rotate(0) scale(0.023999998)"><use href="#path3" transform="translate(0 0)"/></g><g data-source-text="&lt;---" fill="#20242e40" transform="translate(462 60.66) rotate(0) scale(0.023999998)"><use href="#path2" transform="translate(0 0)"/><use href="#path1" transform="translate(500 0)"/><use href="#path1" transform="translate(1000 0)"/><use href="#path1" transform="translate(1500 0)"/></g><g data-source-text=" " fill="#20242e" transform="translate(510 60.66) rotate(0) scale(0.023999998)"><use href="#path3" transform="translate(0 0)"/></g><g data-source-text="&lt;&lt;-" fill="#20242e40" transform="translate(522 60.66) rotate(0) scale(0.023999998)"><use href="#path2" transform="translate(0 0)"/><use href="#path2" transform="translate(500 0)"/><use href="#path1" transform="translate(1000 0)"/></g><g data-source-text=" " fill="#20242e" transform="translate(558 60.66) rotate(0) scale(0.023999998)"><use href="#path3" transform="translate(0 0)"/></g><g data-source-text="&lt;-" fill="#20242e40" transform="translate(570 60.66) rotate(0) scale(0.023999998)"><use href="#path2" transform="translate(0 0)"/><use href="#path1" transform="translate(500 0)"/></g><g data-source-text=" " fill="#20242e" transform="translate(594 60.66) rotate(0) scale(0.023999998)"><use href="#path3" transform="translate(0 0)"/></g><g data-source-text="-&gt;" fill="#20242e40" transform="translate(606 60.66) rotate(0) scale(0.023999998)"><use href="#path1" transform="translate(0 0)"/><use href="#path4" transform="translate(500 0)"/></g><g data-source-text=" " fill="#20242e" transform="translate(630 60.66) rotate(0) scale(0.023999998)"><use href="#path3" transform="translate(0 0)"/></g><g data-source-text="-&gt;&gt;" fill="#20242e40" transform="translate(642 60.66) rotate(0) scale(0.023999998)"><use href="#path1" transform="translate(0 0)"/><use href="#path4" transform="translate(500 0)"/><use href="#path4" transform="translate(1000 0)"/></g><g data-source-text=" " fill="#20242e" transform="translate(678 60.66) rotate(0) scale(0.023999998)"><use href="#path3" transform="translate(0 0)"/></g><g data-source-text="--&gt;" fill="#20242e40" transform="translate(690 60.66) rotate(0) scale(0.023999998)"><use href="#path1" transform="translate(0 0)"/><use href="#path1" transform="translate(500 0)"/><use href="#path4" transform="translate(1000 0)"/></g><g data-source-text=" " fill="#20242e" transform="translate(726 60.66) rotate(0) scale(0.023999998)"><use href="#path3" transform="translate(0 0)"/></g><g data-source-text="---&gt;" fill="#20242e40" transform="translate(738 60.66) rotate(0) scale(0.023999998)"><use href="#path1" transform="translate(0 0)"/><use href="#path1" transform="translate(500 0)"/><use href="#path1" transform="translate(1000 0)"/><use href="#path4" transform="translate(1500 0)"/></g><g data-source-text=" " fill="#20242e" transform="translate(786 60.66) rotate(0) scale(0.023999998)"><use href="#path3" transform="translate(0 0)"/></g><g data-source-text="-&gt;-" fill="#20242e40" transform="translate(798 60.66) rotate(0) scale(0.023999998)"><use href="#path1" transform="translate(0 0)"/><use href="#path4" transform="translate(500 0)"/><use href="#path1" transform="translate(1000 0)"/></g><g data-source-text=" " fill="#20242e" transform="translate(834 60.66) rotate(0) scale(0.023999998)"><use href="#path3" transform="translate(0 0)"/></g><g data-source-text="&gt;-" fill="#20242e40" transform="translate(846 60.66) rotate(0) scale(0.023999998)"><use href="#path4" transform="translate(0 0)"/><use href="#path1" transform="translate(500 0)"/></g><g data-source-text=" " fill="#20242e" transform="translate(870 60.66) rotate(0) scale(0.023999998)"><use href="#path3" transform="translate(0 0)"/></g><g data-source-text="&gt;&gt;-" fill="#20242e40" transform="translate(882 60.66) rotate(0) scale(0.023999998)"><use href="#path4" transform="translate(0 0)"/><use href="#path4" transform="translate(500 0)"/><use href="#path1" transform="translate(1000 0)"/></g><g data-source-text=" " fill="#20242e" transform="translate(918 60.66) rotate(0) scale(0.023999998)"><use href="#path3" transform="translate(0 0)"/></g><g data-source-text="
" fill="#20242e" transform="translate(930 60.66) rotate(0) scale(0.023999998)"/><g data-source-text="=&lt;&lt;" fill="#20242e40" transform="translate(282 98.16) rotate(0) scale(0.023999998)"><use href="#path5" transform="translate(0 0)"/><use href="#path2" transform="translate(500 0)"/><use href="#path2" transform="translate(1000 0)"/></g><g data-source-text=" " fill="#20242e" transform="translate(318 98.16) rotate(0) scale(0.023999998)"><use href="#path3" transform="translate(0 0)"/></g><g data-source-text="=&lt;" fill="#20242e40" transform="translate(330 98.16) rotate(0) scale(0.023999998)"><use href="#path5" transform="translate(0 0)"/><use href="#path2" transform="translate(500 0)"/></g><g data-source-text=" " fill="#20242e" transform="translate(354 98.16) rotate(0) scale(0.023999998)"><use href="#path3" transform="translate(0 0)"/></g><g data-source-text="=&lt;=" fill="#20242e40" transform="translate(366 98.16) rotate(0) scale(0.023999998)"><use href="#path5" transform="translate(0 0)"/><use href="#path2" transform="translate(500 0)"/><use href="#path5" transform="translate(1000 0)"/></g><g data-source-text=" " fill="#20242e" transform="translate(402 98.16) rotate(0) scale(0.023999998)"><use href="#path3" transform="translate(0 0)"/></g><g data-source-text="&lt;==" fill="#20242e40" transform="translate(414 98.16) rotate(0) scale(0.023999998)"><use href="#path2" transform="translate(0 0)"/><use href="#path5" transform="translate(500 0)"/><use href="#path5" transform="translate(1000 0)"/></g><g data-source-text=" " fill="#20242e" transform="translate(450 98.16) rotate(0) scale(0.023999998)"><use href="#path3" transform="translate(0 0)"/></g><g data-source-text="&lt;===" fill="#20242e40" transform="translate(462 98.16) rotate(0) scale(0.023999998)"><use href="#path2" transform="translate(0 0)"/><use href="#path5" transform="translate(500 0)"/><use href="#path5" transform="translate(1000 0)"/><use href="#path5" transform="translate(1500 0)"/></g><g data-source-text=" " fill="#20242e" transform="translate(510 98.16) rotate(0) scale(0.023999998)"><use href="#path3" transform="translate(0 0)"/></g><g data-source-text="&lt;&lt;=" fill="#20242e40" transform="translate(522 98.16) rotate(0) scale(0.023999998)"><use href="#path2" transform="translate(0 0)"/><use href="#path2" transform="translate(500 0)"/><use href="#path5" transform="translate(1000 0)"/></g><g data-source-text=" " fill="#20242e" transform="translate(558 98.16) rotate(0) scale(0.023999998)"><use href="#path3" transform="translate(0 0)"/></g><g data-source-text="&lt;=" fill="#20242e40" transform="translate(570 98.16) rotate(0) scale(0.023999998)"><use href="#path2" transform="translate(0 0)"/><use href="#path5" transform="translate(500 0)"/></g><g data-source-text=" " fill="#20242e" transform="translate(594 98.16) rotate(0) scale(0.023999998)"><use href="#path3" transform="translate(0 0)"/></g><g data-source-text="=&gt;" fill="#20242e40" transform="translate(606 98.16) rotate(0) scale(0.023999998)"><use href="#path5" transform="translate(0 0)"/><use href="#path4" transform="translate(500 0)"/></g><g data-source-text=" " fill="#20242e" transform="translate(630 98.16) rotate(0) scale(0.023999998)"><use href="#path3" transform="translate(0 0)"/></g><g data-source-text="=&gt;&gt;" fill="#20242e40" transform="translate(642 98.16) rotate(0) scale(0.023999998)"><use href="#path5" transform="translate(0 0)"/><use href="#path4" transform="translate(500 0)"/><use href="#path4" transform="translate(1000 0)"/></g><g data-source-text=" " fill="#20242e" transform="translate(678 98.16) rotate(0) scale(0.023999998)"><use href="#path3" transform="translate(0 0)"/></g><g data-source-text="==&gt;" fill="#20242e40" transform="translate(690 98.16) rotate(0) scale(0.023999998)"><use href="#path5" transform="translate(0 0)"/><use href="#path5" transform="translate(500 0)"/><use href="#path4" transform="translate(1000 0)"/></g><g data-source-text=" " fill="#20242e" transform="translate(726 98.16) rotate(0) scale(0.023999998)"><use href="#path3" transform="translate(0 0)"/></g><g data-source-text="===&gt;" fill="#20242e40" transform="translate(738 98.16) rotate(0) scale(0.023999998)"><use href="#path5" transform="translate(0 0)"/><use href="#path5" transform="translate(500 0)"/><use href="#path5" transform="translate(1000 0)"/><use href="#path4" transform="translate(1500 0)"/></g><g data-source-text=" " fill="#20242e" transform="translate(786 98.16) rotate(0) scale(0.023999998)"><use href="#path3" transform="translate(0 0)"/></g><g data-source-text="=&gt;=" fill="#20242e40" transform="translate(798 98.16) rotate(0) scale(0.023999998)"><use href="#path5" transform="translate(0 0)"/><use href="#path4" transform="translate(500 0)"/><use href="#path5" transform="translate(1000 0)"/></g><g data-source-text=" " fill="#20242e" transform="translate(834 98.16) rotate(0) scale(0.023999998)"><use href="#path3" transform="translate(0 0)"/></g><g data-source-text="&gt;=" fill="#20242e40" transform="translate(846 98.16) rotate(0) scale(0.023999998)"><use href="#path4" transform="translate(0 0)"/><use href="#path5" transform="translate(500 0)"/></g><g data-source-text=" " fill="#20242e" transform="translate(870 98.16) rotate(0) scale(0.023999998)"><use href="#path3" transform="translate(0 0)"/></g><g data-source-text="&gt;&gt;=" fill="#20242e40" transform="translate(882 98.16) rotate(0) scale(0.023999998)"><use href="#path4" transform="translate(0 0)"/><use href="#path4" transform="translate(500 0)"/><use href="#path5" transform="translate(1000 0)"/></g><g data-source-text=" " fill="#20242e" transform="translate(918 98.16) rotate(0) scale(0.023999998)"><use href="#path3" transform="translate(0 0)"/></g><g data-source-text="
" fill="#20242e" transform="translate(930 98.16) rotate(0) scale(0.023999998)"/><g data-source-text="&lt;-&gt;" fill="#20242e40" transform="translate(282 135.66) rotate(0) scale(0.023999998)"><use href="#path2" transform="translate(0 0)"/><use href="#path1" transform="translate(500 0)"/><use href="#path4" transform="translate(1000 0)"/></g><g data-source-text=" " fill="#20242e" transform="translate(318 135.66) rotate(0) scale(0.023999998)"><use href="#path3" transform="translate(0 0)"/></g><g data-source-text="&lt;--&gt;" fill="#20242e40" transform="translate(330 135.66) rotate(0) scale(0.023999998)"><use href="#path2" transform="translate(0 0)"/><use href="#path1" transform="translate(500 0)"/><use href="#path1" transform="translate(1000 0)"/><use href="#path4" transform="translate(1500 0)"/></g><g data-source-text=" " fill="#20242e" transform="translate(378 135.66) rotate(0) scale(0.023999998)"><use href="#path3" transform="translate(0 0)"/></g><g data-source-text="&lt;---&gt;" fill="#20242e40" transform="translate(390 135.66) rotate(0) scale(0.023999998)"><use href="#path2" transform="translate(0 0)"/><use href="#path1" transform="translate(500 0)"/><use href="#path1" transform="translate(1000 0)"/><use href="#path1" transform="translate(1500 0)"/><use href="#path4" transform="translate(2000 0)"/></g><g data-source-text=" " fill="#20242e" transform="translate(450 135.66) rotate(0) scale(0.023999998)"><use href="#path3" transform="translate(0 0)"/></g><g data-source-text="&lt;----&gt;" fill="#20242e40" transform="translate(462 135.66) rotate(0) scale(0.023999998)"><use href="#path2" transform="translate(0 0)"/><use href="#path1" transform="translate(500 0)"/><use href="#path1" transform="translate(1000 0)"/><use href="#path1" transform="translate(1500 0)"/><use href="#path1" transform="translate(2000 0)"/><use href="#path4" transform="translate(2500 0)"/></g><g data-source-text=" " fill="#20242e" transform="translate(534 135.66) rotate(0) scale(0.023999998)"><use href="#path3" transform="translate(0 0)"/></g><g data-source-text="&lt;=&gt;" fill="#20242e40" transform="translate(546 135.66) rotate(0) scale(0.023999998)"><use href="#path2" transform="translate(0 0)"/><use href="#path5" transform="translate(500 0)"/><use href="#path4" transform="translate(1000 0)"/></g><g data-source-text=" " fill="#20242e" transform="translate(582 135.66) rotate(0) scale(0.023999998)"><use href="#path3" transform="translate(0 0)"/></g><g data-source-text="&lt;==&gt;" fill="#20242e40" transform="translate(594 135.66) rotate(0) scale(0.023999998)"><use href="#path2" transform="translate(0 0)"/><use href="#path5" transform="translate(500 0)"/><use href="#path5" transform="translate(1000 0)"/><use href="#path4" transform="translate(1500 0)"/></g><g data-source-text=" " fill="#20242e" transform="translate(642 135.66) rotate(0) scale(0.023999998)"><use href="#path3" transform="translate(0 0)"/></g><g data-source-text="&lt;===&gt;" fill="#20242e40" transform="translate(654 135.66) rotate(0) scale(0.023999998)"><use href="#path2" transform="translate(0 0)"/><use href="#path5" transform="translate(500 0)"/><use href="#path5" transform="translate(1000 0)"/><use href="#path5" transform="translate(1500 0)"/><use href="#path4" transform="translate(2000 0)"/></g><g data-source-text=" " fill="#20242e" transform="translate(714 135.66) rotate(0) scale(0.023999998)"><use href="#path3" transform="translate(0 0)"/></g><g data-source-text="&lt;====&gt;" fill="#20242e40" transform="translate(726 135.66) rotate(0) scale(0.023999998)"><use href="#path2" transform="translate(0 0)"/><use href="#path5" transform="translate(500 0)"/><use href="#path5" transform="translate(1000 0)"/><use href="#path5" transform="translate(1500 0)"/><use href="#path5" transform="translate(2000 0)"/><use href="#path4" transform="translate(2500 0)"/></g><g data-source-text=" " fill="#20242e" transform="translate(798 135.66) rotate(0) scale(0.023999998)"><use href="#path3" transform="translate(0 0)"/></g><g data-source-text="::" fill="#20242e40" transform="translate(810 135.66) rotate(0) scale(0.023999998)"><use href="#path6" transform="translate(0 0)"/><use href="#path6" transform="translate(500 0)"/></g><g data-source-text=" " fill="#20242e" transform="translate(834 135.66) rotate(0) scale(0.023999998)"><use href="#path3" transform="translate(0 0)"/></g><g data-source-text=":::" fill="#20242e40" transform="translate(846 135.66) rotate(0) scale(0.023999998)"><use href="#path6" transform="translate(0 0)"/><use href="#path6" transform="translate(500 0)"/><use href="#path6" transform="translate(1000 0)"/></g><g data-source-text=" " fill="#20242e" transform="translate(882 135.66) rotate(0) scale(0.023999998)"><use href="#path3" transform="translate(0 0)"/></g><g data-source-text="__" fill="#20242e40" transform="translate(894 135.66) rotate(0) scale(0.023999998)"><use href="#path7" transform="translate(0 0)"/><use href="#path7" transform="translate(500 0)"/></g><g data-source-text=" " fill="#20242e" transform="translate(918 135.66) rotate(0) scale(0.023999998)"><use href="#path3" transform="translate(0 0)"/></g><g data-source-text="
" fill="#20242e" transform="translate(930 135.66) rotate(0) scale(0.023999998)"/><g data-source-text="&lt;~~" fill="#20242e40" transform="translate(282 173.16) rotate(0) scale(0.023999998)"><use href="#path2" transform="translate(0 0)"/><use href="#path8" transform="translate(500 0)"/><use href="#path8" transform="translate(1000 0)"/></g><g data-source-text=" " fill="#20242e" transform="translate(318 173.16) rotate(0) scale(0.023999998)"><use href="#path3" transform="translate(0 0)"/></g><g data-source-text="&lt;/" fill="#20242e40" transform="translate(330 173.16) rotate(0) scale(0.023999998)"><use href="#path2" transform="translate(0 0)"/><use href="#path9" transform="translate(500 0)"/></g><g data-source-text=" " fill="#20242e" transform="translate(354 173.16) rotate(0) scale(0.023999998)"><use href="#path3" transform="translate(0 0)"/></g><g data-source-text="&lt;/&gt;" fill="#20242e40" transform="translate(366 173.16) rotate(0) scale(0.023999998)"><use href="#path2" transform="translate(0 0)"/><use href="#path9" transform="translate(500 0)"/><use href="#path4" transform="translate(1000 0)"/></g><g data-source-text=" " fill="#20242e" transform="translate(402 173.16) rotate(0) scale(0.023999998)"><use href="#path3" transform="translate(0 0)"/></g><g data-source-text="/&gt;" fill="#20242e40" transform="translate(414 173.16) rotate(0) scale(0.023999998)"><use href="#path9" transform="translate(0 0)"/><use href="#path4" transform="translate(500 0)"/></g><g data-source-text=" " fill="#20242e" transform="translate(438 173.16) rotate(0) scale(0.023999998)"><use href="#path3" transform="translate(0 0)"/></g><g data-source-text="~~&gt;" fill="#20242e40" transform="translate(450 173.16) rotate(0) scale(0.023999998)"><use href="#path8" transform="translate(0 0)"/><use href="#path8" transform="translate(500 0)"/><use href="#path4" transform="translate(1000 0)"/></g><g data-source-text=" " fill="#20242e" transform="translate(486 173.16) rotate(0) scale(0.023999998)"><use href="#path3" transform="translate(0 0)"/></g><g data-source-text="==" fill="#20242e40" transform="translate(498 173.16) rotate(0) scale(0.023999998)"><use href="#path5" transform="translate(0 0)"/><use href="#path5" transform="translate(500 0)"/></g><g data-source-text=" " fill="#20242e" transform="translate(522 173.16) rotate(0) scale(0.023999998)"><use href="#path3" transform="translate(0 0)"/></g><g data-source-text="!=" fill="#20242e40" transform="translate(534 173.16) rotate(0) scale(0.023999998)"><use href="#path10" transform="translate(0 0)"/><use href="#path5" transform="translate(500 0)"/></g><g data-source-text=" " fill="#20242e" transform="translate(558 173.16) rotate(0) scale(0.023999998)"><use href="#path3" transform="translate(0 0)"/></g><g data-source-text="/=" fill="#20242e40" transform="translate(570 173.16) rotate(0) scale(0.023999998)"><use href="#path9" transform="translate(0 0)"/><use href="#path5" transform="translate(500 0)"/></g><g data-source-text=" " fill="#20242e" transform="translate(594 173.16) rotate(0) scale(0.023999998)"><use href="#path3" transform="translate(0 0)"/></g><g data-source-text="~=" fill="#20242e40" transform="translate(606 173.16) rotate(0) scale(0.023999998)"><use href="#path8" transform="translate(0 0)"/><use href="#path5" transform="translate(500 0)"/></g><g data-source-text=" " fill="#20242e" transform="translate(630 173.16) rotate(0) scale(0.023999998)"><use href="#path3" transform="translate(0 0)"/></g><g data-source-text="&lt;&gt;" fill="#20242e40" transform="translate(642 173.16) rotate(0) scale(0.023999998)"><use href="#path2" transform="translate(0 0)"/><use href="#path4" transform="translate(500 0)"/></g><g data-source-text=" " fill="#20242e" transform="translate(666 173.16) rotate(0) scale(0.023999998)"><use href="#path3" transform="translate(0 0)"/></g><g data-source-text="===" fill="#20242e40" transform="translate(678 173.16) rotate(0) scale(0.023999998)"><use href="#path5" transform="translate(0 0)"/><use href="#path5" transform="translate(500 0)"/><use href="#path5" transform="translate(1000 0)"/></g><g data-source-text=" " fill="#20242e" transform="translate(714 173.16) rotate(0) scale(0.023999998)"><use href="#path3" transform="translate(0 0)"/></g><g data-source-text="!==" fill="#20242e40" transform="translate(726 173.16) rotate(0) scale(0.023999998)"><use href="#path10" transform="translate(0 0)"/><use href="#path5" transform="translate(500 0)"/><use href="#path5" transform="translate(1000 0)"/></g><g data-source-text=" " fill="#20242e" transform="translate(762 173.16) rotate(0) scale(0.023999998)"><use href="#path3" transform="translate(0 0)"/></g><g data-source-text="!===" fill="#20242e40" transform="translate(774 173.16) rotate(0) scale(0.023999998)"><use href="#path10" transform="translate(0 0)"/><use href="#path5" transform="translate(500 0)"/><use href="#path5" transform="translate(1000 0)"/><use href="#path5" transform="translate(1500 0)"/></g><g data-source-text=" " fill="#20242e" transform="translate(822 173.16) rotate(0) scale(0.023999998)"><use href="#path3" transform="translate(0 0)"/></g><g data-source-text="=/=" fill="#20242e40" transform="translate(834 173.16) rotate(0) scale(0.023999998)"><use href="#path5" transform="translate(0 0)"/><use href="#path9" transform="translate(500 0)"/><use href="#path5" transform="translate(1000 0)"/></g><g data-source-text=" " fill="#20242e" transform="translate(870 173.16) rotate(0) scale(0.023999998)"><use href="#path3" transform="translate(0 0)"/></g><g data-source-text="=!=" fill="#20242e40" transform="translate(882 173.16) rotate(0) scale(0.023999998)"><use href="#path5" transform="translate(0 0)"/><use href="#path10" transform="translate(500 0)"/><use href="#path5" transform="translate(1000 0)"/></g><g data-source-text=" " fill="#20242e" transform="translate(918 173.16) rotate(0) scale(0.023999998)"><use href="#path3" transform="translate(0 0)"/></g><g data-source-text="
" fill="#20242e" transform="translate(930 173.16) rotate(0) scale(0.023999998)"/><g data-source-text="&lt;:" fill="#20242e40" transform="translate(282 210.66) rotate(0) scale(0.023999998)"><use href="#path2" transform="translate(0 0)"/><use href="#path6" transform="translate(500 0)"/></g><g data-source-text=" " fill="#20242e" transform="translate(306 210.66) rotate(0) scale(0.023999998)"><use href="#path3" transform="translate(0 0)"/></g><g data-source-text=":=" fill="#20242e40" transform="translate(318 210.66) rotate(0) scale(0.023999998)"><use href="#path6" transform="translate(0 0)"/><use href="#path5" transform="translate(500 0)"/></g><g data-source-text=" " fill="#20242e" transform="translate(342 210.66) rotate(0) scale(0.023999998)"><use href="#path3" transform="translate(0 0)"/></g><g data-source-text="*=" fill="#20242e40" transform="translate(354 210.66) rotate(0) scale(0.023999998)"><use href="#path11" transform="translate(0 0)"/><use href="#path5" transform="translate(500 0)"/></g><g data-source-text=" " fill="#20242e" transform="translate(378 210.66) rotate(0) scale(0.023999998)"><use href="#path3" transform="translate(0 0)"/></g><g data-source-text="*+" fill="#20242e40" transform="translate(390 210.66) rotate(0) scale(0.023999998)"><use href="#path11" transform="translate(0 0)"/><use href="#path12" transform="translate(500 0)"/></g><g data-source-text=" " fill="#20242e" transform="translate(414 210.66) rotate(0) scale(0.023999998)"><use href="#path3" transform="translate(0 0)"/></g><g data-source-text="&lt;*" fill="#20242e40" transform="translate(426 210.66) rotate(0) scale(0.023999998)"><use href="#path2" transform="translate(0 0)"/><use href="#path11" transform="translate(500 0)"/></g><g data-source-text=" " fill="#20242e" transform="translate(450 210.66) rotate(0) scale(0.023999998)"><use href="#path3" transform="translate(0 0)"/></g><g data-source-text="&lt;*&gt;" fill="#20242e40" transform="translate(462 210.66) rotate(0) scale(0.023999998)"><use href="#path2" transform="translate(0 0)"/><use href="#path11" transform="translate(500 0)"/><use href="#path4" transform="translate(1000 0)"/></g><g data-source-text=" " fill="#20242e" transform="translate(498 210.66) rotate(0) scale(0.023999998)"><use href="#path3" transform="translate(0 0)"/></g><g data-source-text="*&gt;" fill="#20242e40" transform="translate(510 210.66) rotate(0) scale(0.023999998)"><use href="#path11" transform="translate(0 0)"/><use href="#path4" transform="translate(500 0)"/></g><g data-source-text=" " fill="#20242e" transform="translate(534 210.66) rotate(0) scale(0.023999998)"><use href="#path3" transform="translate(0 0)"/></g><g data-source-text="&lt;|" fill="#20242e40" transform="translate(546 210.66) rotate(0) scale(0.023999998)"><use href="#path2" transform="translate(0 0)"/><use href="#path13" transform="translate(500 0)"/></g><g data-source-text=" " fill="#20242e" transform="translate(570 210.66) rotate(0) scale(0.023999998)"><use href="#path3" transform="translate(0 0)"/></g><g data-source-text="&lt;|&gt;" fill="#20242e40" transform="translate(582 210.66) rotate(0) scale(0.023999998)"><use href="#path2" transform="translate(0 0)"/><use href="#path13" transform="translate(500 0)"/><use href="#path4" transform="translate(1000 0)"/></g><g data-source-text=" " fill="#20242e" transform="translate(618 210.66) rotate(0) scale(0.023999998)"><use href="#path3" transform="translate(0 0)"/></g><g data-source-text="|&gt;" fill="#20242e40" transform="translate(630 210.66) rotate(0) scale(0.023999998)"><use href="#path13" transform="translate(0 0)"/><use href="#path4" transform="translate(500 0)"/></g><g data-source-text=" " fill="#20242e" transform="translate(654 210.66) rotate(0) scale(0.023999998)"><use href="#path3" transform="translate(0 0)"/></g><g data-source-text="&lt;." fill="#20242e40" transform="translate(666 210.66) rotate(0) scale(0.023999998)"><use href="#path2" transform="translate(0 0)"/><use href="#path14" transform="translate(500 0)"/></g><g data-source-text=" " fill="#20242e" transform="translate(690 210.66) rotate(0) scale(0.023999998)"><use href="#path3" transform="translate(0 0)"/></g><g data-source-text="&lt;.&gt;" fill="#20242e40" transform="translate(702 210.66) rotate(0) scale(0.023999998)"><use href="#path2" transform="translate(0 0)"/><use href="#path14" transform="translate(500 0)"/><use href="#path4" transform="translate(1000 0)"/></g><g data-source-text=" " fill="#20242e" transform="translate(738 210.66) rotate(0) scale(0.023999998)"><use href="#path3" transform="translate(0 0)"/></g><g data-source-text=".&gt;" fill="#20242e40" transform="translate(750 210.66) rotate(0) scale(0.023999998)"><use href="#path14" transform="translate(0 0)"/><use href="#path4" transform="translate(500 0)"/></g><g data-source-text=" " fill="#20242e" transform="translate(774 210.66) rotate(0) scale(0.023999998)"><use href="#path3" transform="translate(0 0)"/></g><g data-source-text="+*" fill="#20242e40" transform="translate(786 210.66) rotate(0) scale(0.023999998)"><use href="#path12" transform="translate(0 0)"/><use href="#path11" transform="translate(500 0)"/></g><g data-source-text=" " fill="#20242e" transform="translate(810 210.66) rotate(0) scale(0.023999998)"><use href="#path3" transform="translate(0 0)"/></g><g data-source-text="=*" fill="#20242e40" transform="translate(822 210.66) rotate(0) scale(0.023999998)"><use href="#path5" transform="translate(0 0)"/><use href="#path11" transform="translate(500 0)"/></g><g data-source-text=" " fill="#20242e" transform="translate(846 210.66) rotate(0) scale(0.023999998)"><use href="#path3" transform="translate(0 0)"/></g><g data-source-text="=:" fill="#20242e40" transform="translate(858 210.66) rotate(0) scale(0.023999998)"><use href="#path5" transform="translate(0 0)"/><use href="#path6" transform="translate(500 0)"/></g><g data-source-text=" " fill="#20242e" transform="translate(882 210.66) rotate(0) scale(0.023999998)"><use href="#path3" transform="translate(0 0)"/></g><g data-source-text=":&gt;" fill="#20242e40" transform="translate(894 210.66) rotate(0) scale(0.023999998)"><use href="#path6" transform="translate(0 0)"/><use href="#path4" transform="translate(500 0)"/></g><g data-source-text=" " fill="#20242e" transform="translate(918 210.66) rotate(0) scale(0.023999998)"><use href="#path3" transform="translate(0 0)"/></g><g data-source-text="
" fill="#20242e" transform="translate(930 210.66) rotate(0) scale(0.023999998)"/><g data-source-text="(*" fill="#20242e40" transform="translate(282 248.16) rotate(0) scale(0.023999998)"><use href="#path15" transform="translate(0 0)"/><use href="#path11" transform="translate(500 0)"/></g><g data-source-text=" " fill="#20242e" transform="translate(306 248.16) rotate(0) scale(0.023999998)"><use href="#path3" transform="translate(0 0)"/></g><g data-source-text="*)" fill="#20242e40" transform="translate(318 248.16) rotate(0) scale(0.023999998)"><use href="#path11" transform="translate(0 0)"/><use href="#path16" transform="translate(500 0)"/></g><g data-source-text=" " fill="#20242e" transform="translate(342 248.16) rotate(0) scale(0.023999998)"><use href="#path3" transform="translate(0 0)"/></g><g data-source-text="/*" fill="#20242e40" transform="translate(354 248.16) rotate(0) scale(0.023999998)"><use href="#path9" transform="translate(0 0)"/><use href="#path11" transform="translate(500 0)"/></g><g data-source-text=" " fill="#20242e" transform="translate(378 248.16) rotate(0) scale(0.023999998)"><use href="#path3" transform="translate(0 0)"/></g><g data-source-text="*/" fill="#20242e40" transform="translate(390 248.16) rotate(0) scale(0.023999998)"><use href="#path11" transform="translate(0 0)"/><use href="#path9" transform="translate(500 0)"/></g><g data-source-text=" " fill="#20242e" transform="translate(414 248.16) rotate(0) scale(0.023999998)"><use href="#path3" transform="translate(0 0)"/></g><g data-source-text="[|" fill="#20242e40" transform="translate(426 248.16) rotate(0) scale(0.023999998)"><use href="#path17" transform="translate(0 0)"/><use href="#path13" transform="translate(500 0)"/></g><g data-source-text=" " fill="#20242e" transform="translate(450 248.16) rotate(0) scale(0.023999998)"><use href="#path3" transform="translate(0 0)"/></g><g data-source-text="|]" fill="#20242e40" transform="translate(462 248.16) rotate(0) scale(0.023999998)"><use href="#path13" transform="translate(0 0)"/><use href="#path18" transform="translate(500 0)"/></g><g data-source-text=" " fill="#20242e" transform="translate(486 248.16) rotate(0) scale(0.023999998)"><use href="#path3" transform="translate(0 0)"/></g><g data-source-text="{|" fill="#20242e40" transform="translate(498 248.16) rotate(0) scale(0.023999998)"><use href="#path19" transform="translate(0 0)"/><use href="#path13" transform="translate(500 0)"/></g><g data-source-text=" " fill="#20242e" transform="translate(522 248.16) rotate(0) scale(0.023999998)"><use href="#path3" transform="translate(0 0)"/></g><g data-source-text="|}" fill="#20242e40" transform="translate(534 248.16) rotate(0) scale(0.023999998)"><use href="#path13" transform="translate(0 0)"/><use href="#path20" transform="translate(500 0)"/></g><g data-source-text=" " fill="#20242e" transform="translate(558 248.16) rotate(0) scale(0.023999998)"><use href="#path3" transform="translate(0 0)"/></g><g data-source-text="++" fill="#20242e40" transform="translate(570 248.16) rotate(0) scale(0.023999998)"><use href="#path12" transform="translate(0 0)"/><use href="#path12" transform="translate(500 0)"/></g><g data-source-text=" " fill="#20242e" transform="translate(594 248.16) rotate(0) scale(0.023999998)"><use href="#path3" transform="translate(0 0)"/></g><g data-source-text="+++" fill="#20242e40" transform="translate(606 248.16) rotate(0) scale(0.023999998)"><use href="#path12" transform="translate(0 0)"/><use href="#path12" transform="translate(500 0)"/><use href="#path12" transform="translate(1000 0)"/></g><g data-source-text=" " fill="#20242e" transform="translate(642 248.16) rotate(0) scale(0.023999998)"><use href="#path3" transform="translate(0 0)"/></g><g data-source-text="\/" fill="#20242e40" transform="translate(654 248.16) rotate(0) scale(0.023999998)"><use href="#path21" transform="translate(0 0)"/><use href="#path9" transform="translate(500 0)"/></g><g data-source-text=" " fill="#20242e" transform="translate(678 248.16) rotate(0) scale(0.023999998)"><use href="#path3" transform="translate(0 0)"/></g><g data-source-text="/\" fill="#20242e40" transform="translate(690 248.16) rotate(0) scale(0.023999998)"><use href="#path9" transform="translate(0 0)"/><use href="#path21" transform="translate(500 0)"/></g><g data-source-text=" " fill="#20242e" transform="translate(714 248.16) rotate(0) scale(0.023999998)"><use href="#path3" transform="translate(0 0)"/></g><g data-source-text="|-" fill="#20242e40" transform="translate(726 248.16) rotate(0) scale(0.023999998)"><use href="#path13" transform="translate(0 0)"/><use href="#path1" transform="translate(500 0)"/></g><g data-source-text=" " fill="#20242e" transform="translate(750 248.16) rotate(0) scale(0.023999998)"><use href="#path3" transform="translate(0 0)"/></g><g data-source-text="-|" fill="#20242e40" transform="translate(762 248.16) rotate(0) scale(0.023999998)"><use href="#path1" transform="translate(0 0)"/><use href="#path13" transform="translate(500 0)"/></g><g data-source-text=" " fill="#20242e" transform="translate(786 248.16) rotate(0) scale(0.023999998)"><use href="#path3" transform="translate(0 0)"/></g><g data-source-text="&lt;!--" fill="#20242e40" transform="translate(798 248.16) rotate(0) scale(0.023999998)"><use href="#path2" transform="translate(0 0)"/><use href="#path10" transform="translate(500 0)"/><use href="#path1" transform="translate(1000 0)"/><use href="#path1" transform="translate(1500 0)"/></g><g data-source-text=" " fill="#20242e" transform="translate(846 248.16) rotate(0) scale(0.023999998)"><use href="#path3" transform="translate(0 0)"/></g><g data-source-text="&lt;!---" fill="#20242e40" transform="translate(858 248.16) rotate(0) scale(0.023999998)"><use href="#path2" transform="translate(0 0)"/><use href="#path10" transform="translate(500 0)"/><use href="#path1" transform="translate(1000 0)"/><use href="#path1" transform="translate(1500 0)"/><use href="#path1" transform="translate(2000 0)"/></g><g data-source-text=" " fill="#20242e" transform="translate(918 248.16) rotate(0) scale(0.023999998)"><use href="#path3" transform="translate(0 0)"/></g></g></svg>