<?xml version="1.0" encoding="UTF-8" standalone="no"?>
<svg height="300" viewBox="0 0 1200 300" width="1200" xmlns="http://www.w3.org/2000/svg">
<defs>
<path d="M 436 -305 L 64 -305 L 64 -375 L 436 -375 Z " id="path1"/>
<path d="M 416 -81 L 64 -299 L 64 -381 L 416 -599 L 456 -539 L 131 -340 L 456 -141 Z " id="path2"/>
<path d="M 84 -81 L 44 -141 L 369 -340 L 44 -539 L 84 -599 L 436 -381 L 436 -299 Z " id="path3"/>
<path d="M 436 -394 L 64 -394 L 64 -464 L 436 -464 Z M 436 -216 L 64 -216 L 64 -286 L 436 -286 Z " id="path4"/>
<path d="M 250 8 Q 234 8 219 3.5 Q 204 -1 192.5 -12.5 Q 181 -24 176.5 -39 Q 172 -54 172 -70 Q 172 -86 176.5 -101 Q 181 -116 192.5 -127.5 Q 204 -139 219 -143.5 Q 234 -148 250 -148 Q 266 -148 281 -143.5 Q 296 -139 307.5 -127.5 Q 319 -116 323.5 -101 Q 328 -86 328 -70 Q 328 -54 323.5 -39 Q 319 -24 307.5 -12.5 Q 296 -1 281 3.5 Q 266 8 250 8 Z M 250 -372 Q 234 -372 219 -376.5 Q 204 -381 192.5 -392.5 Q 181 -404 176.5 -419 Q 172 -434 172 -450 Q 172 -466 176.5 -481 Q 181 -496 192.5 -507.5 Q 204 -519 219 -523.5 Q 234 -528 250 -528 Q 266 -528 281 -523.5 Q 296 -519 307.5 -507.5 Q 319 -496 323.5 -481 Q 328 -466 328 -450 Q 328 -434 323.5 -419 Q 319 -404 307.5 -392.5 Q 296 -381 281 -376.5 Q 266 -372 250 -372 Z " id="path5"/>
<path d="M 436 70 L 64 70 L 64 0 L 436 0 Z " id="path6"/>
<path d="M 323 -185 Q 315 -185 308 -186.5 Q 301 -188 294.5 -190 Q 288 -192 282 -196 Q 276 -200 271 -204.5 Q 266 -209 261.5 -213.5 Q 257 -218 252.5 -223.5 Q 248 -229 244 -235 Q 240 -241 236 -246.5 Q 232 -252 228.5 -258 Q 225 -264 221.5 -270 Q 218 -276 214 -283 Q 210 -290 206.5 -296.5 Q 203 -303 199 -309 Q 195 -315 191.5 -320 Q 188 -325 181.5 -330.5 Q 175 -336 175 -339 L 180 -339 Q 180 -338 175.5 -334 Q 171 -330 167 -325.5 Q 163 -321 160 -316.5 Q 157 -312 155 -309 Q 153 -306 151.5 -302.5 Q 150 -299 148 -295.5 Q 146 -292 143.5 -288 Q 141 -284 139 -279.5 Q 137 -275 135 -270.5 Q 133 -266 130.5 -261 Q 128 -256 125.5 -250.5 Q 123 -245 120.5 -239.5 Q 118 -234 115.5 -228 Q 113 -222 110.5 -215.5 Q 108 -209 105.5 -202 Q 103 -195 100 -188 L 28 -212 Q 32 -224 36 -234.5 Q 40 -245 44.5 -255 Q 49 -265 53 -274.5 Q 57 -284 60.5 -292.5 Q 64 -301 68 -308.5 Q 72 -316 76 -323 Q 80 -330 83.5 -336.5 Q 87 -343 91 -349 Q 95 -355 101 -363 Q 107 -371 113.5 -377.5 Q 120 -384 126.5 -389.5 Q 133 -395 141.5 -399.5 Q 150 -404 159 -406.5 Q 168 -409 177 -409 Q 185 -409 192 -407.5 Q 199 -406 205.5 -403.5 Q 212 -401 218 -397.5 Q 224 -394 229 -389.5 Q 234 -385 238.5 -380 Q 243 -375 247.5 -369.5 Q 252 -364 256 -358.5 Q 260 -353 264 -347 Q 268 -341 271.5 -335 Q 275 -329 278.5 -323 Q 282 -317 286 -310.5 Q 290 -304 293.5 -297.5 Q 297 -291 301 -285 Q 305 -279 308.5 -274 Q 312 -269 318.5 -263 Q 325 -257 325 -255 Q 325 -254 325 -254 L 324 -255 Q 323 -255 322 -255 L 320 -255 L 325 -259 Q 329 -263 333 -267.5 Q 337 -272 340 -277 Q 343 -282 345 -285 Q 347 -288 348.5 -291 Q 350 -294 352 -298 Q 354 -302 356.5 -306 Q 359 -310 361 -314 Q 363 -318 365 -323 Q 367 -328 369.5 -333 Q 372 -338 374.5 -343 Q 377 -348 379.5 -354 Q 382 -360 384.5 -366 Q 387 -372 389.5 -378.5 Q 392 -385 394.5 -391.5 Q 397 -398 400 -406 L 472 -381 Q 468 -370 464 -359 Q 460 -348 455.5 -338 Q 451 -328 447 -319 Q 443 -310 439.5 -301.5 Q 436 -293 432 -285 Q 428 -277 424 -270 Q 420 -263 416.5 -257 Q 413 -251 409 -245 Q 405 -239 399 -231 Q 393 -223 386.5 -216 Q 380 -209 373.5 -203.5 Q 367 -198 358.5 -194 Q 350 -190 341 -187.5 Q 332 -185 323 -185 Z " id="path7"/>
<path d="M 139 143 L 59 143 L 361 -823 L 441 -823 Z " id="path8"/>
<path d="M 211 -260 L 211 -735 L 289 -735 L 289 -260 Z M 250 8 Q 236 8 222 4 Q 208 0 198 -10.5 Q 188 -21 183.5 -34.5 Q 179 -48 179 -63 Q 179 -77 183.5 -90.5 Q 188 -104 198 -114.5 Q 208 -125 222 -129 Q 236 -133 250 -133 Q 264 -133 278 -129 Q 292 -125 302 -114.5 Q 312 -104 316 -90.5 Q 320 -77 320 -63 Q 320 -48 316 -34.5 Q 312 -21 302 -10.5 Q 292 0 278 4 Q 264 8 250 8 Z " id="path9"/>
<path d="M 158 -416 L 95 -457 L 200 -591 L 38 -638 L 62 -704 L 217 -648 L 211 -816 L 289 -816 L 283 -648 L 438 -704 L 462 -638 L 300 -591 L 405 -457 L 342 -416 L 250 -552 Z " id="path10"/>
<path d="M 289 -147 L 211 -147 L 211 -305 L 64 -305 L 64 -375 L 211 -375 L 211 -533 L 289 -533 L 289 -375 L 436 -375 L 436 -305 L 289 -305 Z " id="path11"/>
<path d="M 211 143 L 211 -823 L 289 -823 L 289 143 Z " id="path12"/>
<path d="M 250 8 Q 234 8 219 3.5 Q 204 -1 192.5 -12.5 Q 181 -24 176.5 -39 Q 172 -54 172 -70 Q 172 -86 176.5 -101 Q 181 -116 192.5 -127.5 Q 204 -139 219 -143.5 Q 234 -148 250 -148 Q 266 -148 281 -143.5 Q 296 -139 307.5 -127.5 Q 319 -116 323.5 -101 Q 328 -86 328 -70 Q 328 -54 323.5 -39 Q 319 -24 307.5 -12.5 Q 296 -1 281 3.5 Q 266 8 250 8 Z " id="path13"/>
<path d="M 372 161 Q 329 137 291.5 104.5 Q 254 72 224 32.5 Q 194 -7 173 -52 Q 152 -97 139 -144.5 Q 126 -192 120.5 -241.5 Q 115 -291 115 -340 Q 115 -389 120.5 -438.5 Q 126 -488 139 -535.5 Q 152 -583 173 -628 Q 194 -673 224 -712.5 Q 254 -752 291.5 -784.5 Q 329 -817 372 -841 L 410 -780 Q 355 -748 311.5 -699 Q 268 -650 241 -591.5 Q 214 -533 203.5 -468.5 Q 193 -404 193 -340 Q 193 -276 203.5 -211.5 Q 214 -147 241 -88.5 Q 268 -30 311.5 19 Q 355 68 410 100 Z " id="path14"/>
<path d="M 128 161 L 90 100 Q 145 68 188.5 19 Q 232 -30 259 -88.5 Q 286 -147 296.5 -211.5 Q 307 -276 307 -340 Q 307 -404 296.5 -468.5 Q 286 -533 259 -591.5 Q 232 -650 188.5 -699 Q 145 -748 90 -780 L 128 -841 Q 171 -817 208.5 -784.5 Q 246 -752 276 -712.5 Q 306 -673 327 -628 Q 348 -583 361 -535.5 Q 374 -488 379.5 -438.5 Q 385 -389 385 -340 Q 385 -291 379.5 -241.5 Q 374 -192 361 -144.5 Q 348 -97 327 -52 Q 306 -7 276 32.5 Q 246 72 208.5 104.5 Q 171 137 128 161 Z " id="path15"/>
<path d="M 123 143 L 123 -823 L 399 -823 L 399 -753 L 201 -753 L 201 73 L 399 73 L 399 143 Z " id="path16"/>
<path d="M 101 143 L 101 73 L 299 73 L 299 -753 L 101 -753 L 101 -823 L 377 -823 L 377 143 Z " id="path17"/>
<path d="M 399 153 Q 372 153 345 149.5 Q 318 146 292 137 Q 266 128 243 113 Q 220 98 203 76.5 Q 186 55 178 29 Q 170 3 170 -24 Q 170 -47 175.5 -69.5 Q 181 -92 190 -112.5 Q 199 -133 208.5 -154 Q 218 -175 218 -198 Q 218 -214 213.5 -230 Q 209 -246 199.5 -259 Q 190 -272 176 -281.5 Q 162 -291 146.5 -296 Q 131 -301 115 -303 Q 99 -305 83 -305 L 83 -375 Q 99 -375 115 -377 Q 131 -379 146.5 -384 Q 162 -389 176 -398.5 Q 190 -408 199.5 -421 Q 209 -434 213.5 -450 Q 218 -466 218 -482 Q 218 -505 208.5 -526 Q 199 -547 190 -567.5 Q 181 -588 175.5 -610.5 Q 170 -633 170 -656 Q 170 -683 178 -709 Q 186 -735 203 -756.5 Q 220 -778 243 -793 Q 266 -808 292 -817 Q 318 -826 345 -829.5 Q 372 -833 399 -833 L 399 -763 Q 381 -763 364 -761 Q 347 -759 330.5 -754 Q 314 -749 298.5 -740.5 Q 283 -732 271.5 -719 Q 260 -706 254 -689.5 Q 248 -673 248 -656 Q 248 -640 252.5 -625.5 Q 257 -611 263 -597.5 Q 269 -584 275.5 -570 Q 282 -556 286.5 -541.5 Q 291 -527 293 -512 Q 295 -497 295 -482 Q 295 -459 289 -436 Q 283 -413 269 -394 Q 255 -375 235.5 -361.5 Q 216 -348 195 -340 Q 216 -332 235.5 -318.5 Q 255 -305 269 -286 Q 283 -267 289 -244 Q 295 -221 295 -198 Q 295 -183 293 -168 Q 291 -153 286.5 -138.5 Q 282 -124 275.5 -110 Q 269 -96 263 -82.5 Q 257 -69 252.5 -54.5 Q 248 -40 248 -24 Q 248 -7 254 9.5 Q 260 26 271.5 39 Q 283 52 298.5 60.5 Q 314 69 330.5 74 Q 347 79 364 81 Q 381 83 399 83 Z " id="path18"/>
<path d="M 101 153 L 101 83 Q 119 83 136 81 Q 153 79 169.5 74 Q 186 69 201.5 60.5 Q 217 52 228.5 39 Q 240 26 246 9.5 Q 252 -7 252 -24 Q 252 -40 247.5 -54.5 Q 243 -69 237 -82.5 Q 231 -96 224.5 -110 Q 218 -124 213.5 -138.5 Q 209 -153 207 -168 Q 205 -183 205 -198 Q 205 -221 211 -244 Q 217 -267 231 -286 Q 245 -305 264.5 -318.5 Q 284 -332 305 -340 Q 284 -348 264.5 -361.5 Q 245 -375 231 -394 Q 217 -413 211 -436 Q 205 -459 205 -482 Q 205 -497 207 -512 Q 209 -527 213.5 -541.5 Q 218 -556 224.5 -570 Q 231 -584 237 -597.5 Q 243 -611 247.5 -625.5 Q 252 -640 252 -656 Q 252 -673 246 -689.5 Q 240 -706 228.5 -719 Q 217 -732 201.5 -740.5 Q 186 -749 169.5 -754 Q 153 -759 136 -761 Q 119 -763 101 -763 L 101 -833 Q 128 -833 155 -829.5 Q 182 -826 208 -817 Q 234 -808 257 -793 Q 280 -778 297 -756.5 Q 314 -735 322 -709 Q 330 -683 330 -656 Q 330 -633 324.5 -610.5 Q 319 -588 310 -567.5 Q 301 -547 291.5 -526 Q 282 -505 282 -482 Q 282 -466 286.5 -450 Q 291 -434 300.5 -421 Q 310 -408 324 -398.5 Q 338 -389 353.5 -384 Q 369 -379 385 -377 Q 401 -375 417 -375 L 417 -305 Q 401 -305 385 -303 Q 369 -301 353.5 -296 Q 338 -291 324 -281.5 Q 310 -272 300.5 -259 Q 291 -246 286.5 -230 Q 282 -214 282 -198 Q 282 -175 291.5 -154 Q 301 -133 310 -112.5 Q 319 -92 324.5 -69.5 Q 330 -47 330 -24 Q 330 3 322 29 Q 314 55 297 76.5 Q 280 98 257 113 Q 234 128 208 137 Q 182 146 155 149.5 Q 128 153 101 153 Z " id="path19"/>
<path d="M 441 143 L 361 143 L 59 -823 L 139 -823 Z " id="path20"/>
</defs>
<g>
<g data-source-text="-&lt;&lt;" fill="#20242e40" transform="translate(282 60.66) rotate(0) scale(0.023999998)">
<use href="#path1" transform="translate(0 0)"/>
<use href="#path2" transform="translate(500 0)"/>
<use href="#path2" transform="translate(1000 0)"/>
</g>
<g data-source-text=" " fill="#20242e" transform="translate(318 60.66) rotate(0) scale(0.023999998)"/>
<g data-source-text="-&lt;" fill="#20242e40" transform="translate(330 60.66) rotate(0) scale(0.023999998)">
<use href="#path1" transform="translate(0 0)"/>
<use href="#path2" transform="translate(500 0)"/>
</g>
<g data-source-text=" " fill="#20242e" transform="translate(354 60.66) rotate(0) scale(0.023999998)"/>
<g data-source-text="-&lt;-" fill="#20242e40" transform="translate(366 60.66) rotate(0) scale(0.023999998)">
<use href="#path1" transform="translate(0 0)"/>
<use href="#path2" transform="translate(500 0)"/>
<use href="#path1" transform="translate(1000 0)"/>
</g>
<g data-source-text=" " fill="#20242e" transform="translate(402 60.66) rotate(0) scale(0.023999998)"/>
<g data-source-text="&lt;--" fill="#20242e40" transform="translate(414 60.66) rotate(0) scale(0.023999998)">
<use href="#path2" transform="translate(0 0)"/>
<use href="#path1" transform="translate(500 0)"/>
<use href="#path1" transform="translate(1000 0)"/>
</g>
<g data-source-text=" " fill="#20242e" transform="translate(450 60.66) rotate(0) scale(0.023999998)"/>
<g data-source-text="&lt;---" fill="#20242e40" transform="translate(462 60.66) rotate(0) scale(0.023999998)">
<use href="#path2" transform="translate(0 0)"/>
<use href="#path1" transform="translate(500 0)"/>
<use href="#path1" transform="translate(1000 0)"/>
<use href="#path1" transform="translate(1500 0)"/>
</g>
<g data-source-text=" " fill="#20242e" transform="translate(510 60.66) rotate(0) scale(0.023999998)"/>
<g data-source-text="&lt;&lt;-" fill="#20242e40" transform="translate(522 60.66) rotate(0) scale(0.023999998)">
<use href="#path2" transform="translate(0 0)"/>
<use href="#path2" transform="translate(500 0)"/>
<use href="#path1" transform="translate(1000 0)"/>
</g>
<g data-source-text=" " fill="#20242e" transform="translate(558 60.66) rotate(0) scale(0.023999998)"/>
<g data-source-text="&lt;-" fill="#20242e40" transform="translate(570 60.66) rotate(0) scale(0.023999998)">
<use href="#path2" transform="translate(0 0)"/>
<use href="#path1" transform="translate(500 0)"/>
</g>
<g data-source-text=" " fill="#20242e" transform="translate(594 60.66) rotate(0) scale(0.023999998)"/>
<g data-source-text="-&gt;" fill="#20242e40" transform="translate(606 60.66) rotate(0) scale(0.023999998)">
<use href="#path1" transform="translate(0 0)"/>
<use href="#path3" transform="translate(500 0)"/>
</g>
<g data-source-text=" " fill="#20242e" transform="translate(630 60.66) rotate(0) scale(0.023999998)"/>
<g data-source-text="-&gt;&gt;" fill="#20242e40" transform="translate(642 60.66) rotate(0) scale(0.023999998)">
<use href="#path1" transform="translate(0 0)"/>
<use href="#path3" transform="translate(500 0)"/>
<use href="#path3" transform="translate(1000 0)"/>
</g>
<g data-source-text=" " fill="#20242e" transform="translate(678 60.66) rotate(0) scale(0.023999998)"/>
<g data-source-text="--&gt;" fill="#20242e40" transform="translate(690 60.66) rotate(0) scale(0.023999998)">
<use href="#path1" transform="translate(0 0)"/>
<use href="#path1" transform="translate(500 0)"/>
<use href="#path3" transform="translate(1000 0)"/>
</g>
<g data-source-text=" " fill="#20242e" transform="translate(726 60.66) rotate(0) scale(0.023999998)"/>
<g data-source-text="---&gt;" fill="#20242e40" transform="translate(738 60.66) rotate(0) scale(0.023999998)">
<use href="#path1" transform="translate(0 0)"/>
<use href="#path1" transform="translate(500 0)"/>
<use href="#path1" transform="translate(1000 0)"/>
<use href="#path3" transform="translate(1500 0)"/>
</g>
<g data-source-text=" " fill="#20242e" transform="translate(786 60.66) rotate(0) scale(0.023999998)"/>
<g data-source-text="-&gt;-" fill="#20242e40" transform="translate(798 60.66) rotate(0) scale(0.023999998)">
<use href="#path1" transform="translate(0 0)"/>
<use href="#path3" transform="translate(500 0)"/>
<use href="#path1" transform="translate(1000 0)"/>
</g>
<g data-source-text=" " fill="#20242e" transform="translate(834 60.66) rotate(0) scale(0.023999998)"/>
<g data-source-text="&gt;-" fill="#20242e40" transform="translate(846 60.66) rotate(0) scale(0.023999998)">
<use href="#path3" transform="translate(0 0)"/>
<use href="#path1" transform="translate(500 0)"/>
</g>
<g data-source-text=" " fill="#20242e" transform="translate(870 60.66) rotate(0) scale(0.023999998)"/>
<g data-source-text="&gt;&gt;-" fill="#20242e40" transform="translate(882 60.66) rotate(0) scale(0.023999998)">
<use href="#path3" transform="translate(0 0)"/>
<use href="#path3" transform="translate(500 0)"/>
<use href="#path1" transform="translate(1000 0)"/>
</g>
<g data-source-text=" " fill="#20242e" transform="translate(918 60.66) rotate(0) scale(0.023999998)"/>
<g data-source-text="&#xA;" fill="#20242e" transform="translate(930 60.66) rotate(0) scale(0.023999998)"/>
<g data-source-text="=&lt;&lt;" fill="#20242e40" transform="translate(282 98.16) rotate(0) scale(0.023999998)">
<use href="#path4" transform="translate(0 0)"/>
<use href="#path2" transform="translate(500 0)"/>
<use href="#path2" transform="translate(1000 0)"/>
</g>
<g data-source-text=" " fill="#20242e" transform="translate(318 98.16) rotate(0) scale(0.023999998)"/>
<g data-source-text="=&lt;" fill="#20242e40" transform="translate(330 98.16) rotate(0) scale(0.023999998)">
<use href="#path4" transform="translate(0 0)"/>
<use href="#path2" transform="translate(500 0)"/>
</g>
<g data-source-text=" " fill="#20242e" transform="translate(354 98.16) rotate(0) scale(0.023999998)"/>
<g data-source-text="=&lt;=" fill="#20242e40" transform="translate(366 98.16) rotate(0) scale(0.023999998)">
<use href="#path4" transform="translate(0 0)"/>
<use href="#path2" transform="translate(500 0)"/>
<use href="#path4" transform="translate(1000 0)"/>
</g>
<g data-source-text=" " fill="#20242e" transform="translate(402 98.16) rotate(0) scale(0.023999998)"/>
<g data-source-text="&lt;==" fill="#20242e40" transform="translate(414 98.16) rotate(0) scale(0.023999998)">
<use href="#path2" transform="translate(0 0)"/>
<use href="#path4" transform="translate(500 0)"/>
<use href="#path4" transform="translate(1000 0)"/>
</g>
<g data-source-text=" " fill="#20242e" transform="translate(450 98.16) rotate(0) scale(0.023999998)"/>
<g data-source-text="&lt;===" fill="#20242e40" transform="translate(462 98.16) rotate(0) scale(0.023999998)">
<use href="#path2" transform="translate(0 0)"/>
<use href="#path4" transform="translate(500 0)"/>
<use href="#path4" transform="translate(1000 0)"/>
<use href="#path4" transform="translate(1500 0)"/>
</g>
<g data-source-text=" " fill="#20242e" transform="translate(510 98.16) rotate(0) scale(0.023999998)"/>
<g data-source-text="&lt;&lt;=" fill="#20242e40" transform="translate(522 98.16) rotate(0) scale(0.023999998)">
<use href="#path2" transform="translate(0 0)"/>
<use href="#path2" transform="translate(500 0)"/>
<use href="#path4" transform="translate(1000 0)"/>
</g>
<g data-source-text=" " fill="#20242e" transform="translate(558 98.16) rotate(0) scale(0.023999998)"/>
<g data-source-text="&lt;=" fill="#20242e40" transform="translate(570 98.16) rotate(0) scale(0.023999998)">
<use href="#path2" transform="translate(0 0)"/>
<use href="#path4" transform="translate(500 0)"/>
</g>
<g data-source-text=" " fill="#20242e" transform="translate(594 98.16) rotate(0) scale(0.023999998)"/>
<g data-source-text="=&gt;" fill="#20242e40" transform="translate(606 98.16) rotate(0) scale(0.023999998)">
<use href="#path4" transform="translate(0 0)"/>
<use href="#path3" transform="translate(500 0)"/>
</g>
<g data-source-text=" " fill="#20242e" transform="translate(630 98.16) rotate(0) scale(0.023999998)"/>
<g data-source-text="=&gt;&gt;" fill="#20242e40" transform="translate(642 98.16) rotate(0) scale(0.023999998)">
<use href="#path4" transform="translate(0 0)"/>
<use href="#path3" transform="translate(500 0)"/>
<use href="#path3" transform="translate(1000 0)"/>
</g>
<g data-source-text=" " fill="#20242e" transform="translate(678 98.16) rotate(0) scale(0.023999998)"/>
<g data-source-text="==&gt;" fill="#20242e40" transform="translate(690 98.16) rotate(0) scale(0.023999998)">
<use href="#path4" transform="translate(0 0)"/>
<use href="#path4" transform="translate(500 0)"/>
<use href="#path3" transform="translate(1000 0)"/>
</g>
<g data-source-text=" " fill="#20242e" transform="translate(726 98.16) rotate(0) scale(0.023999998)"/>
<g data-source-text="===&gt;" fill="#20242e40" transform="translate(738 98.16) rotate(0) scale(0.023999998)">
<use href="#path4" transform="translate(0 0)"/>
<use href="#path4" transform="translate(500 0)"/>
<use href="#path4" transform="translate(1000 0)"/>
<use href="#path3" transform="translate(1500 0)"/>
</g>
<g data-source-text=" " fill="#20242e" transform="translate(786 98.16) rotate(0) scale(0.023999998)"/>
<g data-source-text="=&gt;=" fill="#20242e40" transform="translate(798 98.16) rotate(0) scale(0.023999998)">
<use href="#path4" transform="translate(0 0)"/>
<use href="#path3" transform="translate(500 0)"/>
<use href="#path4" transform="translate(1000 0)"/>
</g>
<g data-source-text=" " fill="#20242e" transform="translate(834 98.16) rotate(0) scale(0.023999998)"/>
<g data-source-text="&gt;=" fill="#20242e40" transform="translate(846 98.16) rotate(0) scale(0.023999998)">
<use href="#path3" transform="translate(0 0)"/>
<use href="#path4" transform="translate(500 0)"/>
</g>
<g data-source-text=" " fill="#20242e" transform="translate(870 98.16) rotate(0) scale(0.023999998)"/>
<g data-source-text="&gt;&gt;=" fill="#20242e40" transform="translate(882 98.16) rotate(0) scale(0.023999998)">
<use href="#path3" transform="translate(0 0)"/>
<use href="#path3" transform="translate(500 0)"/>
<use href="#path4" transform="translate(1000 0)"/>
</g>
<g data-source-text=" " fill="#20242e" transform="translate(918 98.16) rotate(0) scale(0.023999998)"/>
<g data-source-text="&#xA;" fill="#20242e" transform="translate(930 98.16) rotate(0) scale(0.023999998)"/>
<g data-source-text="&lt;-&gt;" fill="#20242e40" transform="translate(282 135.66) rotate(0) scale(0.023999998)">
<use href="#path2" transform="translate(0 0)"/>
<use href="#path1" transform="translate(500 0)"/>
<use href="#path3" transform="translate(1000 0)"/>
</g>
<g data-source-text=" " fill="#20242e" transform="translate(318 135.66) rotate(0) scale(0.023999998)"/>
<g data-source-text="&lt;--&gt;" fill="#20242e40" transform="translate(330 135.66) rotate(0) scale(0.023999998)">
<use href="#path2" transform="translate(0 0)"/>
<use href="#path1" transform="translate(500 0)"/>
<use href="#path1" transform="translate(1000 0)"/>
<use href="#path3" transform="translate(1500 0)"/>
</g>
<g data-source-text=" " fill="#20242e" transform="translate(378 135.66) rotate(0) scale(0.023999998)"/>
<g data-source-text="&lt;---&gt;" fill="#20242e40" transform="translate(390 135.66) rotate(0) scale(0.023999998)">
<use href="#path2" transform="translate(0 0)"/>
<use href="#path1" transform="translate(500 0)"/>
<use href="#path1" transform="translate(1000 0)"/>
<use href="#path1" transform="translate(1500 0)"/>
<use href="#path3" transform="translate(2000 0)"/>
</g>
<g data-source-text=" " fill="#20242e" transform="translate(450 135.66) rotate(0) scale(0.023999998)"/>
<g data-source-text="&lt;----&gt;" fill="#20242e40" transform="translate(462 135.66) rotate(0) scale(0.023999998)">
<use href="#path2" transform="translate(0 0)"/>
<use href="#path1" transform="translate(500 0)"/>
<use href="#path1" transform="translate(1000 0)"/>
<use href="#path1" transform="translate(1500 0)"/>
<use href="#path1" transform="translate(2000 0)"/>
<use href="#path3" transform="translate(2500 0)"/>
</g>
<g data-source-text=" " fill="#20242e" transform="translate(534 135.66) rotate(0) scale(0.023999998)"/>
<g data-source-text="&lt;=&gt;" fill="#20242e40" transform="translate(546 135.66) rotate(0) scale(0.023999998)">
<use href="#path2" transform="translate(0 0)"/>
<use href="#path4" transform="translate(500 0)"/>
<use href="#path3" transform="translate(1000 0)"/>
</g>
<g data-source-text=" " fill="#20242e" transform="translate(582 135.66) rotate(0) scale(0.023999998)"/>
<g data-source-text="&lt;==&gt;" fill="#20242e40" transform="translate(594 135.66) rotate(0) scale(0.023999998)">
<use href="#path2" transform="translate(0 0)"/>
<use href="#path4" transform="translate(500 0)"/>
<use href="#path4" transform="translate(1000 0)"/>
<use href="#path3" transform="translate(1500 0)"/>
</g>
<g data-source-text=" " fill="#20242e" transform="translate(642 135.66) rotate(0) scale(0.023999998)"/>
<g data-source-text="&lt;===&gt;" fill="#20242e40" transform="translate(654 135.66) rotate(0) scale(0.023999998)">
<use href="#path2" transform="translate(0 0)"/>
<use href="#path4" transform="translate(500 0)"/>
<use href="#path4" transform="translate(1000 0)"/>
<use href="#path4" transform="translate(1500 0)"/>
<use href="#path3" transform="translate(2000 0)"/>
</g>
<g data-source-text=" " fill="#20242e" transform="translate(714 135.66) rotate(0) scale(0.023999998)"/>
<g data-source-text="&lt;====&gt;" fill="#20242e40" transform="translate(726 135.66) rotate(0) scale(0.023999998)">
<use href="#path2" transform="translate(0 0)"/>
<use href="#path4" transform="translate(500 0)"/>
<use href="#path4" transform="translate(1000 0)"/>
<use href="#path4" transform="translate(1500 0)"/>
<use href="#path4" transform="translate(2000 0)"/>
<use href="#path3" transform="translate(2500 0)"/>
</g>
<g data-source-text=" " fill="#20242e" transform="translate(798 135.66) rotate(0) scale(0.023999998)"/>
<g data-source-text="::" fill="#20242e40" transform="translate(810 135.66) rotate(0) scale(0.023999998)">
<use href="#path5" transform="translate(0 0)"/>
<use href="#path5" transform="translate(500 0)"/>
</g>
<g data-source-text=" " fill="#20242e" transform="translate(834 135.66) rotate(0) scale(0.023999998)"/>
<g data-source-text=":::" fill="#20242e40" transform="translate(846 135.66) rotate(0) scale(0.023999998)">
<use href="#path5" transform="translate(0 0)"/>
<use href="#path5" transform="translate(500 0)"/>
<use href="#path5" transform="translate(1000 0)"/>
</g>
<g data-source-text=" " fill="#20242e" transform="translate(882 135.66) rotate(0) scale(0.023999998)"/>
<g data-source-text="__" fill="#20242e40" transform="translate(894 135.66) rotate(0) scale(0.023999998)">
<use href="#path6" transform="translate(0 0)"/>
<use href="#path6" transform="translate(500 0)"/>
</g>
<g data-source-text=" " fill="#20242e" transform="translate(918 135.66) rotate(0) scale(0.023999998)"/>
<g data-source-text="&#xA;" fill="#20242e" transform="translate(930 135.66) rotate(0) scale(0.023999998)"/>
<g data-source-text="&lt;~~" fill="#20242e40" transform="translate(282 173.16) rotate(0) scale(0.023999998)">
<use href="#path2" transform="translate(0 0)"/>
<use href="#path7" transform="translate(500 0)"/>
<use href="#path7" transform="translate(1000 0)"/>
</g>
<g data-source-text=" " fill="#20242e" transform="translate(318 173.16) rotate(0) scale(0.023999998)"/>
<g data-source-text="&lt;/" fill="#20242e40" transform="translate(330 173.16) rotate(0) scale(0.023999998)">
<use href="#path2" transform="translate(0 0)"/>
<use href="#path8" transform="translate(500 0)"/>
</g>
<g data-source-text=" " fill="#20242e" transform="translate(354 173.16) rotate(0) scale(0.023999998)"/>
<g data-source-text="&lt;/&gt;" fill="#20242e40" transform="translate(366 173.16) rotate(0) scale(0.023999998)">
<use href="#path2" transform="translate(0 0)"/>
<use href="#path8" transform="translate(500 0)"/>
<use href="#path3" transform="translate(1000 0)"/>
</g>
<g data-source-text=" " fill="#20242e" transform="translate(402 173.16) rotate(0) scale(0.023999998)"/>
<g data-source-text="/&gt;" fill="#20242e40" transform="translate(414 173.16) rotate(0) scale(0.023999998)">
<use href="#path8" transform="translate(0 0)"/>
<use href="#path3" transform="translate(500 0)"/>
</g>
<g data-source-text=" " fill="#20242e" transform="translate(438 173.16) rotate(0) scale(0.023999998)"/>
<g data-source-text="~~&gt;" fill="#20242e40" transform="translate(450 173.16) rotate(0) scale(0.023999998)">
<use href="#path7" transform="translate(0 0)"/>
<use href="#path7" transform="translate(500 0)"/>
<use href="#path3" transform="translate(1000 0)"/>
</g>
<g data-source-text=" " fill="#20242e" transform="translate(486 173.16) rotate(0) scale(0.023999998)"/>
<g data-source-text="==" fill="#20242e40" transform="translate(498 173.16) rotate(0) scale(0.023999998)">
<use href="#path4" transform="translate(0 0)"/>
<use href="#path4" transform="translate(500 0)"/>
</g>
<g data-source-text=" " fill="#20242e" transform="translate(522 173.16) rotate(0) scale(0.023999998)"/>
<g data-source-text="!=" fill="#20242e40" transform="translate(534 173.16) rotate(0) scale(0.023999998)">
<use href="#path9" transform="translate(0 0)"/>
<use href="#path4" transform="translate(500 0)"/>
</g>
<g data-source-text=" " fill="#20242e" transform="translate(558 173.16) rotate(0) scale(0.023999998)"/>
<g data-source-text="/=" fill="#20242e40" transform="translate(570 173.16) rotate(0) scale(0.023999998)">
<use href="#path8" transform="translate(0 0)"/>
<use href="#path4" transform="translate(500 0)"/>
</g>
<g data-source-text=" " fill="#20242e" transform="translate(594 173.16) rotate(0) scale(0.023999998)"/>
<g data-source-text="~=" fill="#20242e40" transform="translate(606 173.16) rotate(0) scale(0.023999998)">
<use href="#path7" transform="translate(0 0)"/>
<use href="#path4" transform="translate(500 0)"/>
</g>
<g data-source-text=" " fill="#20242e" transform="translate(630 173.16) rotate(0) scale(0.023999998)"/>
<g data-source-text="&lt;&gt;" fill="#20242e40" transform="translate(642 173.16) rotate(0) scale(0.023999998)">
<use href="#path2" transform="translate(0 0)"/>
<use href="#path3" transform="translate(500 0)"/>
</g>
<g data-source-text=" " fill="#20242e" transform="translate(666 173.16) rotate(0) scale(0.023999998)"/>
<g data-source-text="===" fill="#20242e40" transform="translate(678 173.16) rotate(0) scale(0.023999998)">
<use href="#path4" transform="translate(0 0)"/>
<use href="#path4" transform="translate(500 0)"/>
<use href="#path4" transform="translate(1000 0)"/>
</g>
<g data-source-text=" " fill="#20242e" transform="translate(714 173.16) rotate(0) scale(0.023999998)"/>
<g data-source-text="!==" fill="#20242e40" transform="translate(726 173.16) rotate(0) scale(0.023999998)">
<use href="#path9" transform="translate(0 0)"/>
<use href="#path4" transform="translate(500 0)"/>
<use href="#path4" transform="translate(1000 0)"/>
</g>
<g data-source-text=" " fill="#20242e" transform="translate(762 173.16) rotate(0) scale(0.023999998)"/>
<g data-source-text="!===" fill="#20242e40" transform="translate(774 173.16) rotate(0) scale(0.023999998)">
<use href="#path9" transform="translate(0 0)"/>
<use href="#path4" transform="translate(500 0)"/>
<use href="#path4" transform="translate(1000 0)"/>
<use href="#path4" transform="translate(1500 0)"/>
</g>
<g data-source-text=" " fill="#20242e" transform="translate(822 173.16) rotate(0) scale(0.023999998)"/>
<g data-source-text="=/=" fill="#20242e40" transform="translate(834 173.16) rotate(0) scale(0.023999998)">
<use href="#path4" transform="translate(0 0)"/>
<use href="#path8" transform="translate(500 0)"/>
<use href="#path4" transform="translate(1000 0)"/>
</g>
<g data-source-text=" " fill="#20242e" transform="translate(870 173.16) rotate(0) scale(0.023999998)"/>
<g data-source-text="=!=" fill="#20242e40" transform="translate(882 173.16) rotate(0) scale(0.023999998)">
<use href="#path4" transform="translate(0 0)"/>
<use href="#path9" transform="translate(500 0)"/>
<use href="#path4" transform="translate(1000 0)"/>
</g>
<g data-source-text=" " fill="#20242e" transform="translate(918 173.16) rotate(0) scale(0.023999998)"/>
<g data-source-text="&#xA;" fill="#20242e" transform="translate(930 173.16) rotate(0) scale(0.023999998)"/>
<g data-source-text="&lt;:" fill="#20242e40" transform="translate(282 210.66) rotate(0) scale(0.023999998)">
<use href="#path2" transform="translate(0 0)"/>
<use href="#path5" transform="translate(500 0)"/>
</g>
<g data-source-text=" " fill="#20242e" transform="translate(306 210.66) rotate(0) scale(0.023999998)"/>
<g data-source-text=":=" fill="#20242e40" transform="translate(318 210.66) rotate(0) scale(0.023999998)">
<use href="#path5" transform="translate(0 0)"/>
<use href="#path4" transform="translate(500 0)"/>
</g>
<g data-source-text=" " fill="#20242e" transform="translate(342 210.66) rotate(0) scale(0.023999998)"/>
<g data-source-text="*=" fill="#20242e40" transform="translate(354 210.66) rotate(0) scale(0.023999998)">
<use href="#path10" transform="translate(0 0)"/>
<use href="#path4" transform="translate(500 0)"/>
</g>
<g data-source-text=" " fill="#20242e" transform="translate(378 210.66) rotate(0) scale(0.023999998)"/>
<g data-source-text="*+" fill="#20242e40" transform="translate(390 210.66) rotate(0) scale(0.023999998)">
<use href="#path10" transform="translate(0 0)"/>
<use href="#path11" transform="translate(500 0)"/>
</g>
<g data-source-text=" " fill="#20242e" transform="translate(414 210.66) rotate(0) scale(0.023999998)"/>
<g data-source-text="&lt;*" fill="#20242e40" transform="translate(426 210.66) rotate(0) scale(0.023999998)">
<use href="#path2" transform="translate(0 0)"/>
<use href="#path10" transform="translate(500 0)"/>
</g>
<g data-source-text=" " fill="#20242e" transform="translate(450 210.66) rotate(0) scale(0.023999998)"/>
<g data-source-text="&lt;*&gt;" fill="#20242e40" transform="translate(462 210.66) rotate(0) scale(0.023999998)">
<use href="#path2" transform="translate(0 0)"/>
<use href="#path10" transform="translate(500 0)"/>
<use href="#path3" transform="translate(1000 0)"/>
</g>
<g data-source-text=" " fill="#20242e" transform="translate(498 210.66) rotate(0) scale(0.023999998)"/>
<g data-source-text="*&gt;" fill="#20242e40" transform="translate(510 210.66) rotate(0) scale(0.023999998)">
<use href="#path10" transform="translate(0 0)"/>
<use href="#path3" transform="translate(500 0)"/>
</g>
<g data-source-text=" " fill="#20242e" transform="translate(534 210.66) rotate(0) scale(0.023999998)"/>
<g data-source-text="&lt;|" fill="#20242e40" transform="translate(546 210.66) rotate(0) scale(0.023999998)">
<use href="#path2" transform="translate(0 0)"/>
<use href="#path12" transform="translate(500 0)"/>
</g>
<g data-source-text=" " fill="#20242e" transform="translate(570 210.66) rotate(0) scale(0.023999998)"/>
<g data-source-text="&lt;|&gt;" fill="#20242e40" transform="translate(582 210.66) rotate(0) scale(0.023999998)">
<use href="#path2" transform="translate(0 0)"/>
<use href="#path12" transform="translate(500 0)"/>
<use href="#path3" transform="translate(1000 0)"/>
</g>
<g data-source-text=" " fill="#20242e" transform="translate(618 210.66) rotate(0) scale(0.023999998)"/>
<g data-source-text="|&gt;" fill="#20242e40" transform="translate(630 210.66) rotate(0) scale(0.023999998)">
<use href="#path12" transform="translate(0 0)"/>
<use href="#path3" transform="translate(500 0)"/>
</g>
<g data-source-text=" " fill="#20242e" transform="translate(654 210.66) rotate(0) scale(0.023999998)"/>
<g data-source-text="&lt;." fill="#20242e40" transform="translate(666 210.66) rotate(0) scale(0.023999998)">
<use href="#path2" transform="translate(0 0)"/>
<use href="#path13" transform="translate(500 0)"/>
</g>
<g data-source-text=" " fill="#20242e" transform="translate(690 210.66) rotate(0) scale(0.023999998)"/>
<g data-source-text="&lt;.&gt;" fill="#20242e40" transform="translate(702 210.66) rotate(0) scale(0.023999998)">
<use href="#path2" transform="translate(0 0)"/>
<use href="#path13" transform="translate(500 0)"/>
<use href="#path3" transform="translate(1000 0)"/>
</g>
<g data-source-text=" " fill="#20242e" transform="translate(738 210.66) rotate(0) scale(0.023999998)"/>
<g data-source-text=".&gt;" fill="#20242e40" transform="translate(750 210.66) rotate(0) scale(0.023999998)">
<use href="#path13" transform="translate(0 0)"/>
<use href="#path3" transform="translate(500 0)"/>
</g>
<g data-source-text=" " fill="#20242e" transform="translate(774 210.66) rotate(0) scale(0.023999998)"/>
<g data-source-text="+*" fill="#20242e40" transform="translate(786 210.66) rotate(0) scale(0.023999998)">
<use href="#path11" transform="translate(0 0)"/>
<use href="#path10" transform="translate(500 0)"/>
</g>
<g data-source-text=" " fill="#20242e" transform="translate(810 210.66) rotate(0) scale(0.023999998)"/>
<g data-source-text="=*" fill="#20242e40" transform="translate(822 210.66) rotate(0) scale(0.023999998)">
<use href="#path4" transform="translate(0 0)"/>
<use href="#path10" transform="translate(500 0)"/>
</g>
<g data-source-text=" " fill="#20242e" transform="translate(846 210.66) rotate(0) scale(0.023999998)"/>
<g data-source-text="=:" fill="#20242e40" transform="translate(858 210.66) rotate(0) scale(0.023999998)">
<use href="#path4" transform="translate(0 0)"/>
<use href="#path5" transform="translate(500 0)"/>
</g>
<g data-source-text=" " fill="#20242e" transform="translate(882 210.66) rotate(0) scale(0.023999998)"/>
<g data-source-text=":&gt;" fill="#20242e40" transform="translate(894 210.66) rotate(0) scale(0.023999998)">
<use href="#path5" transform="translate(0 0)"/>
<use href="#path3" transform="translate(500 0)"/>
</g>
<g data-source-text=" " fill="#20242e" transform="translate(918 210.66) rotate(0) scale(0.023999998)"/>
<g data-source-text="&#xA;" fill="#20242e" transform="translate(930 210.66) rotate(0) scale(0.023999998)"/>
<g data-source-text="(*" fill="#20242e40" transform="translate(282 248.16) rotate(0) scale(0.023999998)">
<use href="#path14" transform="translate(0 0)"/>
<use href="#path10" transform="translate(500 0)"/>
</g>
<g data-source-text=" " fill="#20242e" transform="translate(306 248.16) rotate(0) scale(0.023999998)"/>
<g data-source-text="*)" fill="#20242e40" transform="translate(318 248.16) rotate(0) scale(0.023999998)">
<use href="#path10" transform="translate(0 0)"/>
<use href="#path15" transform="translate(500 0)"/>
</g>
<g data-source-text=" " fill="#20242e" transform="translate(342 248.16) rotate(0) scale(0.023999998)"/>
<g data-source-text="/*" fill="#20242e40" transform="translate(354 248.16) rotate(0) scale(0.023999998)">
<use href="#path8" transform="translate(0 0)"/>
<use href="#path10" transform="translate(500 0)"/>
</g>
<g data-source-text=" " fill="#20242e" transform="translate(378 248.16) rotate(0) scale(0.023999998)"/>
<g data-source-text="*/" fill="#20242e40" transform="translate(390 248.16) rotate(0) scale(0.023999998)">
<use href="#path10" transform="translate(0 0)"/>
<use href="#path8" transform="translate(500 0)"/>
</g>
<g data-source-text=" " fill="#20242e" transform="translate(414 248.16) rotate(0) scale(0.023999998)"/>
<g data-source-text="[|" fill="#20242e40" transform="translate(426 248.16) rotate(0) scale(0.023999998)">
<use href="#path16" transform="translate(0 0)"/>
<use href="#path12" transform="translate(500 0)"/>
</g>
<g data-source-text=" " fill="#20242e" transform="translate(450 248.16) rotate(0) scale(0.023999998)"/>
<g data-source-text="|]" fill="#20242e40" transform="translate(462 248.16) rotate(0) scale(0.023999998)">
<use href="#path12" transform="translate(0 0)"/>
<use href="#path17" transform="translate(500 0)"/>
</g>
<g data-source-text=" " fill="#20242e" transform="translate(486 248.16) rotate(0) scale(0.023999998)"/>
<g data-source-text="{|" fill="#20242e40" transform="translate(498 248.16) rotate(0) scale(0.023999998)">
<use href="#path18" transform="translate(0 0)"/>
<use href="#path12" transform="translate(500 0)"/>
</g>
<g data-source-text=" " fill="#20242e" transform="translate(522 248.16) rotate(0) scale(0.023999998)"/>
<g data-source-text="|}" fill="#20242e40" transform="translate(534 248.16) rotate(0) scale(0.023999998)">
<use href="#path12" transform="translate(0 0)"/>
<use href="#path19" transform="translate(500 0)"/>
</g>
<g data-source-text=" " fill="#20242e" transform="translate(558 248.16) rotate(0) scale(0.023999998)"/>
<g data-source-text="++" fill="#20242e40" transform="translate(570 248.16) rotate(0) scale(0.023999998)">
<use href="#path11" transform="translate(0 0)"/>
<use href="#path11" transform="translate(500 0)"/>
</g>
<g data-source-text=" " fill="#20242e" transform="translate(594 248.16) rotate(0) scale(0.023999998)"/>
<g data-source-text="+++" fill="#20242e40" transform="translate(606 248.16) rotate(0) scale(0.023999998)">
<use href="#path11" transform="translate(0 0)"/>
<use href="#path11" transform="translate(500 0)"/>
<use href="#path11" transform="translate(1000 0)"/>
</g>
<g data-source-text=" " fill="#20242e" transform="translate(642 248.16) rotate(0) scale(0.023999998)"/>
<g data-source-text="\/" fill="#20242e40" transform="translate(654 248.16) rotate(0) scale(0.023999998)">
<use href="#path20" transform="translate(0 0)"/>
<use href="#path8" transform="translate(500 0)"/>
</g>
<g data-source-text=" " fill="#20242e" transform="translate(678 248.16) rotate(0) scale(0.023999998)"/>
<g data-source-text="/\" fill="#20242e40" transform="translate(690 248.16) rotate(0) scale(0.023999998)">
<use href="#path8" transform="translate(0 0)"/>
<use href="#path20" transform="translate(500 0)"/>
</g>
<g data-source-text=" " fill="#20242e" transform="translate(714 248.16) rotate(0) scale(0.023999998)"/>
<g data-source-text="|-" fill="#20242e40" transform="translate(726 248.16) rotate(0) scale(0.023999998)">
<use href="#path12" transform="translate(0 0)"/>
<use href="#path1" transform="translate(500 0)"/>
</g>
<g data-source-text=" " fill="#20242e" transform="translate(750 248.16) rotate(0) scale(0.023999998)"/>
<g data-source-text="-|" fill="#20242e40" transform="translate(762 248.16) rotate(0) scale(0.023999998)">
<use href="#path1" transform="translate(0 0)"/>
<use href="#path12" transform="translate(500 0)"/>
</g>
<g data-source-text=" " fill="#20242e" transform="translate(786 248.16) rotate(0) scale(0.023999998)"/>
<g data-source-text="&lt;!--" fill="#20242e40" transform="translate(798 248.16) rotate(0) scale(0.023999998)">
<use href="#path2" transform="translate(0 0)"/>
<use href="#path9" transform="translate(500 0)"/>
<use href="#path1" transform="translate(1000 0)"/>
<use href="#path1" transform="translate(1500 0)"/>
</g>
<g data-source-text=" " fill="#20242e" transform="translate(846 248.16) rotate(0) scale(0.023999998)"/>
<g data-source-text="&lt;!---" fill="#20242e40" transform="translate(858 248.16) rotate(0) scale(0.023999998)">
<use href="#path2" transform="translate(0 0)"/>
<use href="#path9" transform="translate(500 0)"/>
<use href="#path1" transform="translate(1000 0)"/>
<use href="#path1" transform="translate(1500 0)"/>
<use href="#path1" transform="translate(2000 0)"/>
</g>
<g data-source-text=" " fill="#20242e" transform="translate(918 248.16) rotate(0) scale(0.023999998)"/>
</g>
</svg>