<?xml version="1.0" encoding="UTF-8" standalone="no"?>
<svg height="200" viewBox="0 0 1200 200" width="1200" xmlns="http://www.w3.org/2000/svg">
<defs>
<path d="M 44 0 L 205 -735 L 295 -735 L 349 -490 L 456 0 L 376 0 L 337 -190 L 163 -190 L 124 0 Z M 323 -260 L 276 -490 Q 269 -522 262.5 -554 Q 256 -586 250 -618 Q 244 -586 237.5 -554 Q 231 -522 224 -490 L 177 -260 Z " id="path1"/>
<path d="M 64 0 L 64 -735 L 233 -735 Q 259 -735 284.5 -730.5 Q 310 -726 333 -714.5 Q 356 -703 374.5 -684.5 Q 393 -666 405 -642.5 Q 417 -619 421.5 -593.5 Q 426 -568 426 -542 Q 426 -518 421.5 -493.5 Q 417 -469 405 -448 Q 393 -427 375 -410 Q 357 -393 335 -383 Q 361 -373 384.5 -356 Q 408 -339 423.5 -315 Q 439 -291 445.5 -263 Q 452 -235 452 -206 Q 452 -178 446.5 -149.5 Q 441 -121 427 -96 Q 413 -71 391.5 -52 Q 370 -33 344 -21 Q 318 -9 289.5 -4.5 Q 261 -0 233 0 Z M 142 -416 L 233 -416 Q 249 -416 265 -419 Q 281 -422 295 -430 Q 309 -438 319.5 -450.5 Q 330 -463 336.5 -477.5 Q 343 -492 345.5 -508 Q 348 -524 348 -541 Q 348 -557 345.5 -573 Q 343 -589 336.5 -603.5 Q 330 -618 319.5 -630.5 Q 309 -643 295 -651 Q 281 -659 265 -662 Q 249 -665 233 -665 L 142 -665 Z M 142 -70 L 233 -70 Q 251 -70 270 -73 Q 289 -76 305.5 -84 Q 322 -92 336 -105.5 Q 350 -119 359 -135.5 Q 368 -152 371 -170.5 Q 374 -189 374 -208 Q 374 -226 371 -245 Q 368 -264 359 -280.5 Q 350 -297 336.5 -310 Q 323 -323 306 -331.5 Q 289 -340 270.5 -343 Q 252 -346 233 -346 L 142 -346 Z " id="path2"/>
<path d="M 247 8 Q 221 8 194.5 3 Q 168 -2 145 -15 Q 122 -28 104 -48 Q 86 -68 75 -92 Q 64 -116 60 -142.5 Q 56 -169 56 -195 L 56 -540 Q 56 -566 60 -592.5 Q 64 -619 75 -643 Q 86 -667 104 -687 Q 122 -707 145 -720 Q 168 -733 194.5 -738 Q 221 -743 247 -743 Q 272 -743 296.5 -739 Q 321 -735 343.5 -724 Q 366 -713 384.5 -696 Q 403 -679 414.5 -657 Q 426 -635 432 -611 Q 438 -587 438 -562 L 438 -559 L 360 -559 L 360 -561 Q 360 -583 352.5 -605 Q 345 -627 329.5 -643 Q 314 -659 292 -666 Q 270 -673 247 -673 Q 222 -673 198.5 -663.5 Q 175 -654 160 -634 Q 145 -614 139.5 -589.5 Q 134 -565 134 -540 L 134 -195 Q 134 -170 139.5 -145.5 Q 145 -121 160 -101 Q 175 -81 198.5 -71.5 Q 222 -62 247 -62 Q 270 -62 292 -69 Q 314 -76 329.5 -92 Q 345 -108 352.5 -130 Q 360 -152 360 -174 L 360 -176 L 438 -176 L 438 -173 Q 438 -148 432 -124 Q 426 -100 414.5 -78 Q 403 -56 384.5 -39 Q 366 -22 343.5 -11 Q 321 0 296.5 4 Q 272 8 247 8 Z " id="path3"/>
<path d="M 250 8 Q 234 8 219 3.5 Q 204 -1 192.5 -12.5 Q 181 -24 176.5 -39 Q 172 -54 172 -70 Q 172 -86 176.5 -101 Q 181 -116 192.5 -127.5 Q 204 -139 219 -143.5 Q 234 -148 250 -148 Q 266 -148 281 -143.5 Q 296 -139 307.5 -127.5 Q 319 -116 323.5 -101 Q 328 -86 328 -70 Q 328 -54 323.5 -39 Q 319 -24 307.5 -12.5 Q 296 -1 281 3.5 Q 266 8 250 8 Z " id="path4"/>
<path d="M 64 0 L 64 -735 L 192 -735 Q 217 -735 242 -731 Q 267 -727 289.5 -716 Q 312 -705 332 -689 Q 352 -673 367.5 -653 Q 383 -633 394.5 -611 Q 406 -589 414.5 -565.5 Q 423 -542 429 -517.5 Q 435 -493 438 -468 Q 441 -443 442.5 -418 Q 444 -393 444 -368 Q 444 -342 442.5 -317 Q 441 -292 438 -267 Q 435 -242 429 -217.5 Q 423 -193 414.5 -169.5 Q 406 -146 394.5 -124 Q 383 -102 367.5 -82 Q 352 -62 332 -46 Q 312 -30 289.5 -19 Q 267 -8 242 -4 Q 217 -0 192 0 Z M 142 -70 L 192 -70 Q 212 -70 230.5 -74.5 Q 249 -79 265.5 -89 Q 282 -99 295 -113.5 Q 308 -128 318 -144.5 Q 328 -161 335.5 -178.5 Q 343 -196 348.5 -214.5 Q 354 -233 357.5 -252 Q 361 -271 363 -290.5 Q 365 -310 365.5 -329 Q 366 -348 366 -368 Q 366 -387 365.5 -406 Q 365 -425 363 -444.5 Q 361 -464 357.5 -483 Q 354 -502 348.5 -520.5 Q 343 -539 335.5 -556.5 Q 328 -574 318 -590.5 Q 308 -607 295 -621.5 Q 282 -636 265.5 -646 Q 249 -656 230.5 -660.5 Q 212 -665 192 -665 L 142 -665 Z " id="path5"/>
<path d="M 72 0 L 72 -735 L 436 -735 L 436 -665 L 150 -665 L 150 -417 L 380 -417 L 380 -347 L 150 -347 L 150 -70 L 436 -70 L 436 0 Z " id="path6"/>
<path d="M 96 0 L 96 -735 L 436 -735 L 436 -665 L 174 -665 L 174 -417 L 380 -417 L 380 -347 L 174 -347 L 174 0 Z " id="path7"/>
<path d="M 246 8 Q 219 8 193.5 2.5 Q 168 -3 145 -16 Q 122 -29 104 -49 Q 86 -69 75 -93 Q 64 -117 60 -143 Q 56 -169 56 -195 L 56 -540 Q 56 -566 60 -592.5 Q 64 -619 75 -643 Q 86 -667 104 -687 Q 122 -707 145 -720 Q 168 -733 194.5 -738 Q 221 -743 247 -743 Q 272 -743 296.5 -739 Q 321 -735 343.5 -724 Q 366 -713 384.5 -696 Q 403 -679 414.5 -657 Q 426 -635 432 -611 Q 438 -587 438 -562 L 438 -559 L 360 -559 L 360 -561 Q 360 -583 352.5 -605 Q 345 -627 329.5 -643 Q 314 -659 292 -666 Q 270 -673 247 -673 Q 222 -673 198.5 -663.5 Q 175 -654 160 -634 Q 145 -614 139.5 -589.5 Q 134 -565 134 -540 L 134 -195 Q 134 -178 136 -161.5 Q 138 -145 144 -130 Q 150 -115 160.5 -101.5 Q 171 -88 185 -79 Q 199 -70 215 -66 Q 231 -62 248 -62 Q 276 -62 304 -69.5 Q 332 -77 358 -88 L 358 -330 L 250 -330 L 250 -400 L 436 -400 L 436 -46 Q 392 -21 344 -6.5 Q 296 8 246 8 Z " id="path8"/>
<path d="M 64 0 L 64 -735 L 142 -735 L 142 -415 L 358 -415 L 358 -735 L 436 -735 L 436 0 L 358 0 L 358 -345 L 142 -345 L 142 0 Z " id="path9"/>
<path d="M 129 0 L 129 -70 L 211 -70 L 211 -665 L 129 -665 L 129 -735 L 371 -735 L 371 -665 L 289 -665 L 289 -70 L 371 -70 L 371 0 Z " id="path10"/>
<path d="M 228 8 Q 204 8 180 3.5 Q 156 -1 134.5 -12 Q 113 -23 96 -41 Q 79 -59 68 -80.5 Q 57 -102 51.5 -126 Q 46 -150 46 -174 L 46 -176 L 124 -176 L 124 -175 Q 124 -153 130.5 -131.5 Q 137 -110 151 -94 Q 165 -78 186 -70 Q 207 -62 228 -62 Q 245 -62 260.5 -66 Q 276 -70 289 -80 Q 302 -90 311 -103.5 Q 320 -117 325 -132 Q 330 -147 332 -163 Q 334 -179 334 -195 L 334 -735 L 412 -735 L 412 -195 Q 412 -169 408 -143.5 Q 404 -118 394 -94 Q 384 -70 367 -49.5 Q 350 -29 328 -16 Q 306 -3 280 2.5 Q 254 8 228 8 Z " id="path11"/>
<path d="M 80 0 L 80 -735 L 157 -735 L 157 -398 L 357 -735 L 445 -735 L 247 -402 L 445 0 L 361 0 L 201 -324 L 157 -252 L 157 0 Z " id="path12"/>
<path d="M 96 0 L 96 -735 L 174 -735 L 174 -70 L 442 -70 L 442 0 Z " id="path13"/>
<path d="M 48 0 L 48 -735 L 142 -735 L 250 -332 L 358 -735 L 452 -735 L 452 0 L 374 0 L 374 -147 Q 374 -262 377.5 -376.5 Q 381 -491 383 -605 L 280 -221 L 220 -221 L 117 -605 Q 119 -491 122.5 -376.5 Q 126 -262 126 -147 L 126 0 Z " id="path14"/>
<path d="M 64 0 L 64 -735 L 160 -735 Q 212 -583 263.5 -431.5 Q 315 -280 367 -128 Q 365 -207 361.5 -285 Q 358 -363 358 -441 L 358 -735 L 436 -735 L 436 0 L 340 0 L 133 -607 Q 135 -528 138.5 -450 Q 142 -372 142 -294 L 142 0 Z " id="path15"/>
<path d="M 250 8 Q 223 8 196.5 3 Q 170 -2 147 -14.5 Q 124 -27 105.5 -47 Q 87 -67 76 -91.5 Q 65 -116 60.5 -142 Q 56 -168 56 -195 L 56 -540 Q 56 -567 60.5 -593 Q 65 -619 76 -643.5 Q 87 -668 105.5 -688 Q 124 -708 147 -720.5 Q 170 -733 196.5 -738 Q 223 -743 250 -743 Q 277 -743 303.5 -738 Q 330 -733 353 -720.5 Q 376 -708 394.5 -688 Q 413 -668 424 -643.5 Q 435 -619 439.5 -593 Q 444 -567 444 -540 L 444 -195 Q 444 -168 439.5 -142 Q 435 -116 424 -91.5 Q 413 -67 394.5 -47 Q 376 -27 353 -14.5 Q 330 -2 303.5 3 Q 277 8 250 8 Z M 250 -62 Q 267 -62 283.5 -65.5 Q 300 -69 314 -78 Q 328 -87 338.5 -100.5 Q 349 -114 355.5 -129.5 Q 362 -145 364 -161.5 Q 366 -178 366 -195 L 366 -540 Q 366 -557 364 -573.5 Q 362 -590 355.5 -605.5 Q 349 -621 338.5 -634.5 Q 328 -648 314 -657 Q 300 -666 283.5 -669.5 Q 267 -673 250 -673 Q 233 -673 216.5 -669.5 Q 200 -666 186 -657 Q 172 -648 161.5 -634.5 Q 151 -621 144.5 -605.5 Q 138 -590 136 -573.5 Q 134 -557 134 -540 L 134 -195 Q 134 -178 136 -161.5 Q 138 -145 144.5 -129.5 Q 151 -114 161.5 -100.5 Q 172 -87 186 -78 Q 200 -69 216.5 -65.5 Q 233 -62 250 -62 Z " id="path16"/>
<path d="M 80 0 L 80 -735 L 256 -735 Q 283 -735 310.5 -729.5 Q 338 -724 362 -710 Q 386 -696 404 -674.5 Q 422 -653 433 -627.5 Q 444 -602 448 -574.5 Q 452 -547 452 -520 Q 452 -492 448 -464.5 Q 444 -437 433 -411.5 Q 422 -386 404 -364.5 Q 386 -343 362 -329 Q 338 -315 310.5 -309.5 Q 283 -304 256 -304 L 158 -304 L 158 0 Z M 158 -374 L 256 -374 Q 274 -374 291 -378.5 Q 308 -383 322.5 -393 Q 337 -403 347.5 -418 Q 358 -433 364 -449.5 Q 370 -466 372 -484 Q 374 -502 374 -520 Q 374 -537 372 -555 Q 370 -573 364 -589.5 Q 358 -606 347.5 -621 Q 337 -636 322.5 -646 Q 308 -656 291 -660.5 Q 274 -665 256 -665 L 158 -665 Z " id="path17"/>
<path d="M 381 165 Q 359 165 337.5 161.5 Q 316 158 296.5 148.5 Q 277 139 261 123.5 Q 245 108 235 89 Q 225 70 220.5 49 Q 216 28 216 6 Q 192 3 169.5 -5 Q 147 -13 128 -27 Q 109 -41 94.5 -60.5 Q 80 -80 71 -102 Q 62 -124 59 -147.5 Q 56 -171 56 -195 L 56 -540 Q 56 -567 60.5 -593 Q 65 -619 76 -643.5 Q 87 -668 105.5 -688 Q 124 -708 147 -720.5 Q 170 -733 196.5 -738 Q 223 -743 250 -743 Q 277 -743 303.5 -738 Q 330 -733 353 -720.5 Q 376 -708 394.5 -688 Q 413 -668 424 -643.5 Q 435 -619 439.5 -593 Q 444 -567 444 -540 L 444 -195 Q 444 -172 441 -149 Q 438 -126 430 -104.5 Q 422 -83 408.5 -64 Q 395 -45 377 -30.5 Q 359 -16 337.5 -7.5 Q 316 1 293 5 Q 294 23 299 40 Q 304 57 316 70 Q 328 83 345.5 89 Q 363 95 381 95 L 420 95 L 420 165 Z M 250 -62 Q 267 -62 283.5 -65.5 Q 300 -69 314 -78 Q 328 -87 338.5 -100.5 Q 349 -114 355.5 -129.5 Q 362 -145 364 -161.5 Q 366 -178 366 -195 L 366 -540 Q 366 -557 364 -573.5 Q 362 -590 355.5 -605.5 Q 349 -621 338.5 -634.5 Q 328 -648 314 -657 Q 300 -666 283.5 -669.5 Q 267 -673 250 -673 Q 233 -673 216.5 -669.5 Q 200 -666 186 -657 Q 172 -648 161.5 -634.5 Q 151 -621 144.5 -605.5 Q 138 -590 136 -573.5 Q 134 -557 134 -540 L 134 -195 Q 134 -178 136 -161.5 Q 138 -145 144.5 -129.5 Q 151 -114 161.5 -100.5 Q 172 -87 186 -78 Q 200 -69 216.5 -65.5 Q 233 -62 250 -62 Z " id="path18"/>
<path d="M 64 0 L 64 -735 L 256 -735 Q 283 -735 309.5 -729 Q 336 -723 359 -708.5 Q 382 -694 399 -672.5 Q 416 -651 426.5 -626 Q 437 -601 440.5 -574 Q 444 -547 444 -520 Q 444 -486 438 -452 Q 432 -418 415 -389 Q 398 -360 370.5 -339 Q 343 -318 310 -309 L 460 0 L 375 0 L 228 -304 L 142 -304 L 142 0 Z M 142 -374 L 256 -374 Q 273 -374 290 -379 Q 307 -384 320.5 -394.5 Q 334 -405 343 -420 Q 352 -435 357 -451.5 Q 362 -468 364 -485 Q 366 -502 366 -520 Q 366 -537 364 -554 Q 362 -571 357 -587.5 Q 352 -604 343 -619 Q 334 -634 320.5 -644.5 Q 307 -655 290 -660 Q 273 -665 256 -665 L 142 -665 Z " id="path19"/>
<path d="M 249 8 Q 224 8 199.5 4 Q 175 -0 152 -10 Q 129 -20 110.5 -36.5 Q 92 -53 79 -74.5 Q 66 -96 60 -120.5 Q 54 -145 54 -170 L 54 -174 L 132 -174 L 132 -171 Q 132 -148 140 -126.5 Q 148 -105 165 -90 Q 182 -75 204 -68.5 Q 226 -62 249 -62 Q 272 -62 295 -69 Q 318 -76 334.5 -92.5 Q 351 -109 359 -132 Q 367 -155 367 -178 Q 367 -204 356.5 -228 Q 346 -252 328 -270.5 Q 310 -289 288 -302.5 Q 266 -316 243 -328 Q 220 -340 198 -353 Q 176 -366 156 -382 Q 136 -398 118.5 -417 Q 101 -436 89 -459 Q 77 -482 70.5 -507 Q 64 -532 64 -558 Q 64 -582 69.5 -606.5 Q 75 -631 86.5 -653 Q 98 -675 115.5 -693 Q 133 -711 155 -722.5 Q 177 -734 201.5 -738.5 Q 226 -743 251 -743 Q 275 -743 299.5 -739 Q 324 -735 346 -724.5 Q 368 -714 385.5 -697 Q 403 -680 415 -658.5 Q 427 -637 432.5 -613 Q 438 -589 438 -565 L 438 -561 L 360 -561 L 360 -564 Q 360 -585 353 -606.5 Q 346 -628 331 -643.5 Q 316 -659 294.5 -666 Q 273 -673 251 -673 Q 229 -673 207 -665 Q 185 -657 170 -640.5 Q 155 -624 148 -602 Q 141 -580 141 -557 Q 141 -532 151.5 -507.5 Q 162 -483 179.5 -464.5 Q 197 -446 219.5 -432.5 Q 242 -419 264.5 -407.5 Q 287 -396 309.5 -382.5 Q 332 -369 352 -353 Q 372 -337 389 -318 Q 406 -299 418.5 -276.5 Q 431 -254 437.5 -228.5 Q 444 -203 444 -178 Q 444 -152 438 -127.5 Q 432 -103 420 -80.5 Q 408 -58 389 -40.5 Q 370 -23 347.5 -12 Q 325 -1 299.5 3.5 Q 274 8 249 8 Z " id="path20"/>
<path d="M 211 0 L 211 -665 L 58 -665 L 58 -735 L 442 -735 L 442 -665 L 289 -665 L 289 0 Z " id="path21"/>
<path d="M 250 8 Q 224 8 198 2.5 Q 172 -3 149.5 -16 Q 127 -29 110 -49 Q 93 -69 82.5 -93 Q 72 -117 68 -143 Q 64 -169 64 -195 L 64 -735 L 142 -735 L 142 -195 Q 142 -179 144 -162.5 Q 146 -146 151.5 -131 Q 157 -116 166 -102.5 Q 175 -89 188.5 -79.5 Q 202 -70 218 -66 Q 234 -62 250 -62 Q 266 -62 282 -66 Q 298 -70 311.5 -79.5 Q 325 -89 334 -102.5 Q 343 -116 348.5 -131 Q 354 -146 356 -162.5 Q 358 -179 358 -195 L 358 -735 L 436 -735 L 436 -195 Q 436 -169 432 -143 Q 428 -117 417.5 -93 Q 407 -69 390 -49 Q 373 -29 350.5 -16 Q 328 -3 302 2.5 Q 276 8 250 8 Z " id="path22"/>
<path d="M 205 0 L 44 -735 L 124 -735 L 224 -245 Q 231 -213 237.5 -181 Q 244 -149 250 -117 Q 256 -149 262.5 -181 Q 269 -213 276 -245 L 376 -735 L 456 -735 L 295 0 Z " id="path23"/>
<path d="M 117 0 L 32 -735 L 110 -735 L 158 -106 L 211 -529 L 289 -529 L 342 -106 L 390 -735 L 468 -735 L 383 0 L 306 0 L 250 -394 L 194 0 Z " id="path24"/>
<path d="M 48 0 L 210 -368 L 48 -735 L 133 -735 L 250 -462 L 367 -735 L 452 -735 L 290 -367 L 452 0 L 367 0 L 250 -273 L 133 0 Z " id="path25"/>
<path d="M 211 0 L 211 -292 L 45 -735 L 128 -735 L 250 -402 L 372 -735 L 455 -735 L 289 -292 L 289 0 Z " id="path26"/>
<path d="M 64 0 L 64 -70 L 347 -665 L 64 -665 L 64 -735 L 436 -735 L 436 -665 L 153 -70 L 436 -70 L 436 0 Z " id="path27"/>
<path d="M 202 8 Q 172 8 143 -1 Q 114 -10 93.5 -32 Q 73 -54 64.5 -83 Q 56 -112 56 -142 Q 56 -167 62.5 -192 Q 69 -217 85 -237 Q 101 -257 122.5 -270.5 Q 144 -284 168.5 -292 Q 193 -300 218 -303 Q 243 -306 269 -306 L 358 -306 L 358 -355 Q 358 -376 351 -397 Q 344 -418 328 -432 Q 312 -446 291 -452 Q 270 -458 249 -458 Q 229 -458 209.5 -454 Q 190 -450 174 -439 Q 158 -428 149 -410 Q 140 -392 140 -373 L 62 -373 Q 62 -396 68.5 -418 Q 75 -440 88 -459 Q 101 -478 119.5 -491.5 Q 138 -505 159 -513.5 Q 180 -522 203 -525 Q 226 -528 249 -528 Q 273 -528 297 -524.5 Q 321 -521 343 -511 Q 365 -501 383.5 -485 Q 402 -469 414 -448 Q 426 -427 431 -403 Q 436 -379 436 -355 L 436 0 L 358 0 L 358 -86 Q 349 -64 332.5 -45.5 Q 316 -27 295 -14.5 Q 274 -2 250 3 Q 226 8 202 8 Z M 232 -62 Q 256 -62 280.5 -68.5 Q 305 -75 323 -91.5 Q 341 -108 349.5 -131.5 Q 358 -155 358 -180 L 358 -236 L 269 -236 Q 254 -236 238.5 -234.5 Q 223 -233 208.5 -229.5 Q 194 -226 180 -219.5 Q 166 -213 155 -203 Q 144 -193 139 -178.5 Q 134 -164 134 -149 Q 134 -131 141 -113 Q 148 -95 162 -83 Q 176 -71 194.5 -66.5 Q 213 -62 232 -62 Z " id="path28"/>
<path d="M 281 8 Q 258 8 235.5 2 Q 213 -4 194.5 -17.5 Q 176 -31 163 -50.5 Q 150 -70 142 -91 L 142 0 L 64 0 L 64 -735 L 142 -735 L 142 -429 Q 150 -450 163 -469.5 Q 176 -489 194.5 -502.5 Q 213 -516 235.5 -522 Q 258 -528 281 -528 Q 306 -528 330.5 -521 Q 355 -514 375 -499 Q 395 -484 408.5 -463 Q 422 -442 430 -418.5 Q 438 -395 441 -370 Q 444 -345 444 -320 L 444 -200 Q 444 -175 441 -150 Q 438 -125 430 -101.5 Q 422 -78 408.5 -57 Q 395 -36 375 -21 Q 355 -6 330.5 1 Q 306 8 281 8 Z M 251 -62 Q 268 -62 284.5 -66 Q 301 -70 315 -79.5 Q 329 -89 339.5 -103 Q 350 -117 356 -133 Q 362 -149 364 -166 Q 366 -183 366 -200 L 366 -320 Q 366 -337 364 -354 Q 362 -371 356 -387 Q 350 -403 339.5 -417 Q 329 -431 315 -440.5 Q 301 -450 284.5 -454 Q 268 -458 251 -458 Q 234 -458 217.5 -454 Q 201 -450 188 -440 Q 175 -430 165.5 -415.5 Q 156 -401 151 -385.5 Q 146 -370 144 -353.5 Q 142 -337 142 -320 L 142 -200 Q 142 -183 144 -166.5 Q 146 -150 151 -134.5 Q 156 -119 165.5 -104.5 Q 175 -90 188 -80 Q 201 -70 217.5 -66 Q 234 -62 251 -62 Z " id="path29"/>
<path d="M 247 8 Q 221 8 194 2.5 Q 167 -3 144 -16.5 Q 121 -30 103.5 -50.5 Q 86 -71 75 -95.5 Q 64 -120 60 -146.5 Q 56 -173 56 -200 L 56 -320 Q 56 -347 60 -373.5 Q 64 -400 75 -424.5 Q 86 -449 103.5 -469.5 Q 121 -490 144 -503.5 Q 167 -517 194 -522.5 Q 221 -528 247 -528 Q 272 -528 297 -523.5 Q 322 -519 344.5 -508 Q 367 -497 385 -479.5 Q 403 -462 415 -440 Q 427 -418 432.5 -393.5 Q 438 -369 438 -344 L 438 -342 L 360 -342 L 360 -343 Q 360 -366 353 -388 Q 346 -410 330 -426.5 Q 314 -443 292 -450.5 Q 270 -458 247 -458 Q 230 -458 213.5 -454 Q 197 -450 183 -440 Q 169 -430 159.5 -416 Q 150 -402 144 -386.5 Q 138 -371 136 -354 Q 134 -337 134 -320 L 134 -200 Q 134 -183 136 -166 Q 138 -149 144 -133.5 Q 150 -118 159.5 -104 Q 169 -90 183 -80 Q 197 -70 213.5 -66 Q 230 -62 247 -62 Q 270 -62 292 -69.5 Q 314 -77 330 -93.5 Q 346 -110 353 -132 Q 360 -154 360 -177 L 360 -178 L 438 -178 L 438 -176 Q 438 -151 432.5 -126.5 Q 427 -102 415 -80 Q 403 -58 385 -40.5 Q 367 -23 344.5 -12 Q 322 -1 297 3.5 Q 272 8 247 8 Z " id="path30"/>
<path d="M 219 8 Q 194 8 169.5 1 Q 145 -6 125 -21 Q 105 -36 91.5 -57 Q 78 -78 70 -101.5 Q 62 -125 59 -150 Q 56 -175 56 -200 L 56 -320 Q 56 -345 59 -370 Q 62 -395 70 -418.5 Q 78 -442 91.5 -463 Q 105 -484 125 -499 Q 145 -514 169.5 -521 Q 194 -528 219 -528 Q 242 -528 264.5 -522 Q 287 -516 305.5 -502.5 Q 324 -489 337 -469.5 Q 350 -450 358 -429 L 358 -735 L 436 -735 L 436 0 L 358 0 L 358 -91 Q 350 -70 337 -50.5 Q 324 -31 305.5 -17.5 Q 287 -4 264.5 2 Q 242 8 219 8 Z M 249 -62 Q 266 -62 282.5 -66.5 Q 299 -71 312 -81 Q 325 -91 334.5 -105 Q 344 -119 349 -134.5 Q 354 -150 356 -166.5 Q 358 -183 358 -200 L 358 -320 Q 358 -337 356 -353.5 Q 354 -370 349 -385.5 Q 344 -401 334.5 -415.5 Q 325 -430 312 -440 Q 299 -450 282.5 -454 Q 266 -458 249 -458 Q 232 -458 215.5 -454 Q 199 -450 185 -440.5 Q 171 -431 160.5 -417 Q 150 -403 144 -387 Q 138 -371 136 -354 Q 134 -337 134 -320 L 134 -200 Q 134 -183 136 -166 Q 138 -149 144 -133 Q 150 -117 160.5 -103 Q 171 -89 185 -79.5 Q 199 -70 215.5 -66 Q 232 -62 249 -62 Z " id="path31"/>
<path d="M 252 8 Q 225 8 198 3 Q 171 -2 147.5 -15.5 Q 124 -29 105.5 -49.5 Q 87 -70 75.5 -94.5 Q 64 -119 60 -146 Q 56 -173 56 -200 L 56 -320 Q 56 -347 60 -374 Q 64 -401 75 -425.5 Q 86 -450 104.5 -470.5 Q 123 -491 146 -504 Q 169 -517 196 -522.5 Q 223 -528 250 -528 Q 277 -528 304 -522.5 Q 331 -517 354 -504 Q 377 -491 395.5 -470.5 Q 414 -450 425 -425.5 Q 436 -401 440 -374 Q 444 -347 444 -320 L 444 -225 L 134 -225 L 134 -200 Q 134 -183 136 -166 Q 138 -149 144.5 -133 Q 151 -117 161.5 -103 Q 172 -89 186.5 -79.5 Q 201 -70 218 -66 Q 235 -62 252 -62 Q 271 -62 290.5 -66 Q 310 -70 326 -80 Q 342 -90 352.5 -107 Q 363 -124 364 -144 L 442 -144 Q 441 -121 433.5 -99.5 Q 426 -78 412.5 -59.5 Q 399 -41 380.5 -27.5 Q 362 -14 341 -6 Q 320 2 297 5 Q 274 8 252 8 Z M 366 -295 L 366 -320 Q 366 -337 364 -354 Q 362 -371 356 -387 Q 350 -403 339.5 -417 Q 329 -431 315 -440.5 Q 301 -450 284 -454 Q 267 -458 250 -458 Q 233 -458 216 -454 Q 199 -450 185 -440.5 Q 171 -431 160.5 -417 Q 150 -403 144 -387 Q 138 -371 136 -354 Q 134 -337 134 -320 L 134 -295 Z " id="path32"/>
<path d="M 191 0 L 191 -403 L 64 -403 L 64 -473 L 191 -473 L 191 -580 Q 191 -601 194.5 -621.5 Q 198 -642 207.5 -661 Q 217 -680 231.5 -695 Q 246 -710 265 -719 Q 284 -728 304.5 -731.5 Q 325 -735 346 -735 L 436 -735 L 436 -665 L 346 -665 Q 329 -665 313.5 -659.5 Q 298 -654 287.5 -641.5 Q 277 -629 273 -613 Q 269 -597 269 -580 L 269 -473 L 436 -473 L 436 -403 L 269 -403 L 269 0 Z " id="path33"/>
<path d="M 250 223 Q 225 223 200 220 Q 175 217 151.5 208 Q 128 199 107.5 184 Q 87 169 73 148.5 Q 59 128 52.5 103.5 Q 46 79 46 54 Q 46 37 49 20 Q 52 3 59.5 -13 Q 67 -29 78 -42 Q 89 -55 103 -65 Q 90 -79 82.5 -98 Q 75 -117 75 -137 Q 75 -162 86 -185.5 Q 97 -209 116 -225 Q 101 -237 89 -252 Q 77 -267 69.5 -284.5 Q 62 -302 59 -321 Q 56 -340 56 -359 Q 56 -383 61 -406.5 Q 66 -430 77.5 -450.5 Q 89 -471 107.5 -486.5 Q 126 -502 147.5 -511.5 Q 169 -521 193 -524.5 Q 217 -528 240 -528 Q 255 -528 270.5 -526.5 Q 286 -525 300 -522 L 308 -520 L 460 -520 L 460 -450 L 402 -452 Q 415 -431 420 -407 Q 425 -383 425 -359 Q 425 -336 420 -312.5 Q 415 -289 403 -268.5 Q 391 -248 373 -232 Q 355 -216 333 -206.5 Q 311 -197 287.5 -193.5 Q 264 -190 240 -190 Q 223 -190 206.5 -192 Q 190 -194 173 -198 Q 161 -191 153 -178.5 Q 145 -166 145 -151 Q 145 -139 150.5 -128.5 Q 156 -118 166 -111 Q 176 -104 187.5 -101 Q 199 -98 211 -97 L 274 -97 Q 297 -97 319 -94.5 Q 341 -92 362 -83.5 Q 383 -75 401.5 -62 Q 420 -49 432.5 -30 Q 445 -11 450 11 Q 455 33 455 56 Q 455 81 448.5 105.5 Q 442 130 427.5 150.5 Q 413 171 392.5 185.5 Q 372 200 348.5 208.5 Q 325 217 300 220 Q 275 223 250 223 Z M 240 -260 Q 261 -260 281.5 -265.5 Q 302 -271 317.5 -285 Q 333 -299 340 -319 Q 347 -339 347 -359 Q 347 -378 341.5 -396.5 Q 336 -415 322.5 -428.5 Q 309 -442 291 -449 Q 273 -456 254 -457 L 240 -458 Q 220 -458 199.5 -452.5 Q 179 -447 163.5 -433.5 Q 148 -420 141 -400 Q 134 -380 134 -359 Q 134 -339 141 -319 Q 148 -299 163.5 -285 Q 179 -271 199.5 -265.5 Q 220 -260 240 -260 Z M 250 153 Q 273 153 295.5 148.5 Q 318 144 337 132 Q 356 120 367 99.5 Q 378 79 378 56 Q 378 37 370 19.5 Q 362 2 346 -8.5 Q 330 -19 311.5 -23 Q 293 -27 274 -27 L 214 -27 Q 197 -26 180.5 -21 Q 164 -16 150.5 -5.5 Q 137 5 130.5 21 Q 124 37 124 54 Q 124 77 134.5 98 Q 145 119 163.5 131.5 Q 182 144 204.5 148.5 Q 227 153 250 153 Z " id="path34"/>
<path d="M 64 0 L 64 -735 L 142 -735 L 142 -429 Q 150 -450 163 -469 Q 176 -488 194.5 -502 Q 213 -516 235.5 -522 Q 258 -528 280 -528 Q 305 -528 329 -521 Q 353 -514 371.5 -498.5 Q 390 -483 403 -461.5 Q 416 -440 423.5 -416.5 Q 431 -393 433.5 -368.5 Q 436 -344 436 -320 L 436 0 L 358 0 L 358 -320 Q 358 -337 356 -353.5 Q 354 -370 349 -385.5 Q 344 -401 334.5 -415 Q 325 -429 312 -439 Q 299 -449 283 -453.5 Q 267 -458 250 -458 Q 233 -458 217 -453.5 Q 201 -449 188 -439 Q 175 -429 165.5 -415 Q 156 -401 151 -385.5 Q 146 -370 144 -353.5 Q 142 -337 142 -320 L 142 0 Z " id="path35"/>
<path d="M 236 0 L 236 -450 L 100 -450 L 100 -520 L 313 -520 L 313 0 Z M 275 -608 Q 262 -608 250 -611.5 Q 238 -615 229 -624 Q 220 -633 216.5 -645 Q 213 -657 213 -670 Q 213 -683 216.5 -695 Q 220 -707 229 -716 Q 238 -725 250 -729 Q 262 -733 275 -733 Q 288 -733 300 -729 Q 312 -725 321 -716 Q 330 -707 334 -695 Q 338 -683 338 -670 Q 338 -657 334 -645 Q 330 -633 321 -624 Q 312 -615 300 -611.5 Q 288 -608 275 -608 Z " id="path36"/>
<path d="M 185 223 Q 163 223 141 218.5 Q 119 214 99.5 203.5 Q 80 193 65 176.5 Q 50 160 40 140 Q 30 120 25.5 98.5 Q 21 77 20 55 L 98 55 Q 98 73 103.5 91 Q 109 109 120 123.5 Q 131 138 148.5 145.5 Q 166 153 185 153 Q 200 153 214.5 147.5 Q 229 142 239.5 131.5 Q 250 121 257 107.5 Q 264 94 267.5 79.5 Q 271 65 272.5 50 Q 274 35 274 20 L 274 -450 L 138 -450 L 138 -520 L 352 -520 L 352 20 Q 352 45 349 69.5 Q 346 94 337 117.5 Q 328 141 313.5 161.5 Q 299 182 279 196.5 Q 259 211 234.5 217 Q 210 223 185 223 Z M 300 -608 Q 287 -608 275 -611.5 Q 263 -615 254 -624 Q 245 -633 241.5 -645 Q 238 -657 238 -670 Q 238 -683 241.5 -695 Q 245 -707 254 -716 Q 263 -725 275 -729 Q 287 -733 300 -733 Q 313 -733 325 -729 Q 337 -725 346 -716 Q 355 -707 359 -695 Q 363 -683 363 -670 Q 363 -657 359 -645 Q 355 -633 346 -624 Q 337 -615 325 -611.5 Q 313 -608 300 -608 Z " id="path37"/>
<path d="M 80 0 L 80 -735 L 157 -735 L 157 -278 L 348 -520 L 443 -520 L 256 -283 L 443 0 L 353 0 L 207 -221 L 157 -158 L 157 0 Z " id="path38"/>
<path d="M 211 0 L 211 -665 L 75 -665 L 75 -735 L 289 -735 L 289 -70 L 425 -70 L 425 0 Z " id="path39"/>
<path d="M 48 0 L 48 -520 L 126 -520 L 126 -478 Q 131 -489 138 -498.5 Q 145 -508 154.5 -515 Q 164 -522 175.5 -525 Q 187 -528 199 -528 Q 214 -528 228 -523 Q 242 -518 252.5 -508 Q 263 -498 270 -485 Q 277 -472 281 -457 Q 285 -471 292 -484.5 Q 299 -498 309.5 -508 Q 320 -518 333.5 -523 Q 347 -528 362 -528 Q 377 -528 391.5 -522.5 Q 406 -517 417 -506.5 Q 428 -496 434.5 -482 Q 441 -468 445 -453.5 Q 449 -439 450.5 -424 Q 452 -409 452 -394 L 452 0 L 374 0 L 374 -394 Q 374 -405 372.5 -415.5 Q 371 -426 366 -436 Q 361 -446 351.5 -452 Q 342 -458 331 -458 Q 321 -458 311.5 -452 Q 302 -446 297 -436 Q 292 -426 290.5 -415.5 Q 289 -405 289 -394 L 289 0 L 211 0 L 211 -394 Q 211 -405 209.5 -415.5 Q 208 -426 203 -436 Q 198 -446 188.5 -452 Q 179 -458 169 -458 Q 158 -458 148.5 -452 Q 139 -446 134 -436 Q 129 -426 127.5 -415.5 Q 126 -405 126 -394 L 126 0 Z " id="path40"/>
<path d="M 64 0 L 64 -520 L 142 -520 L 142 -429 Q 150 -450 163 -469 Q 176 -488 194.5 -502 Q 213 -516 235.5 -522 Q 258 -528 280 -528 Q 305 -528 329 -521 Q 353 -514 371.5 -498.5 Q 390 -483 403 -461.5 Q 416 -440 423.5 -416.5 Q 431 -393 433.5 -368.5 Q 436 -344 436 -320 L 436 0 L 358 0 L 358 -320 Q 358 -337 356 -353.5 Q 354 -370 349 -385.5 Q 344 -401 334.5 -415 Q 325 -429 312 -439 Q 299 -449 283 -453.5 Q 267 -458 250 -458 Q 233 -458 217 -453.5 Q 201 -449 188 -439 Q 175 -429 165.5 -415 Q 156 -401 151 -385.5 Q 146 -370 144 -353.5 Q 142 -337 142 -320 L 142 0 Z " id="path41"/>
<path d="M 250 8 Q 223 8 196 2.5 Q 169 -3 146 -16 Q 123 -29 104.5 -49.5 Q 86 -70 75 -94.5 Q 64 -119 60 -146 Q 56 -173 56 -200 L 56 -320 Q 56 -347 60 -374 Q 64 -401 75 -425.5 Q 86 -450 104.5 -470.5 Q 123 -491 146 -504 Q 169 -517 196 -522.5 Q 223 -528 250 -528 Q 277 -528 304 -522.5 Q 331 -517 354 -504 Q 377 -491 395.5 -470.5 Q 414 -450 425 -425.5 Q 436 -401 440 -374 Q 444 -347 444 -320 L 444 -200 Q 444 -173 440 -146 Q 436 -119 425 -94.5 Q 414 -70 395.5 -49.5 Q 377 -29 354 -16 Q 331 -3 304 2.5 Q 277 8 250 8 Z M 250 -62 Q 267 -62 284 -66 Q 301 -70 315 -79.5 Q 329 -89 339.5 -103 Q 350 -117 356 -133 Q 362 -149 364 -166 Q 366 -183 366 -200 L 366 -320 Q 366 -337 364 -354 Q 362 -371 356 -387 Q 350 -403 339.5 -417 Q 329 -431 315 -440.5 Q 301 -450 284 -454 Q 267 -458 250 -458 Q 233 -458 216 -454 Q 199 -450 185 -440.5 Q 171 -431 160.5 -417 Q 150 -403 144 -387 Q 138 -371 136 -354 Q 134 -337 134 -320 L 134 -200 Q 134 -183 136 -166 Q 138 -149 144 -133 Q 150 -117 160.5 -103 Q 171 -89 185 -79.5 Q 199 -70 216 -66 Q 233 -62 250 -62 Z " id="path42"/>
<path d="M 64 215 L 64 -520 L 142 -520 L 142 -429 Q 150 -450 163 -469.5 Q 176 -489 194.5 -502.5 Q 213 -516 235.5 -522 Q 258 -528 281 -528 Q 306 -528 330.5 -521 Q 355 -514 375 -499 Q 395 -484 408.5 -463 Q 422 -442 430 -418.5 Q 438 -395 441 -370 Q 444 -345 444 -320 L 444 -200 Q 444 -175 441 -150 Q 438 -125 430 -101.5 Q 422 -78 408.5 -57 Q 395 -36 375 -21 Q 355 -6 330.5 1 Q 306 8 281 8 Q 258 8 235.5 2 Q 213 -4 194.5 -17.5 Q 176 -31 163 -50.5 Q 150 -70 142 -91 L 142 215 Z M 251 -62 Q 268 -62 284.5 -66 Q 301 -70 315 -79.5 Q 329 -89 339.5 -103 Q 350 -117 356 -133 Q 362 -149 364 -166 Q 366 -183 366 -200 L 366 -320 Q 366 -337 364 -354 Q 362 -371 356 -387 Q 350 -403 339.5 -417 Q 329 -431 315 -440.5 Q 301 -450 284.5 -454 Q 268 -458 251 -458 Q 234 -458 217.5 -454 Q 201 -450 188 -440 Q 175 -430 165.5 -415.5 Q 156 -401 151 -385.5 Q 146 -370 144 -353.5 Q 142 -337 142 -320 L 142 -200 Q 142 -183 144 -166.5 Q 146 -150 151 -134.5 Q 156 -119 165.5 -104.5 Q 175 -90 188 -80 Q 201 -70 217.5 -66 Q 234 -62 251 -62 Z " id="path43"/>
<path d="M 358 215 L 358 -91 Q 350 -70 337 -50.5 Q 324 -31 305.5 -17.5 Q 287 -4 264.5 2 Q 242 8 219 8 Q 194 8 169.5 1 Q 145 -6 125 -21 Q 105 -36 91.5 -57 Q 78 -78 70 -101.5 Q 62 -125 59 -150 Q 56 -175 56 -200 L 56 -320 Q 56 -345 59 -370 Q 62 -395 70 -418.5 Q 78 -442 91.5 -463 Q 105 -484 125 -499 Q 145 -514 169.5 -521 Q 194 -528 219 -528 Q 242 -528 264.5 -522 Q 287 -516 305.5 -502.5 Q 324 -489 337 -469.5 Q 350 -450 358 -429 L 358 -520 L 436 -520 L 436 215 Z M 249 -62 Q 266 -62 282.5 -66 Q 299 -70 312 -80 Q 325 -90 334.5 -104.5 Q 344 -119 349 -134.5 Q 354 -150 356 -166.5 Q 358 -183 358 -200 L 358 -320 Q 358 -337 356 -353.5 Q 354 -370 349 -385.5 Q 344 -401 334.5 -415.5 Q 325 -430 312 -440 Q 299 -450 282.5 -454 Q 266 -458 249 -458 Q 232 -458 215.5 -454 Q 199 -450 185 -440.5 Q 171 -431 160.5 -417 Q 150 -403 144 -387 Q 138 -371 136 -354 Q 134 -337 134 -320 L 134 -200 Q 134 -183 136 -166 Q 138 -149 144 -133 Q 150 -117 160.5 -103 Q 171 -89 185 -79.5 Q 199 -70 215.5 -66 Q 232 -62 249 -62 Z " id="path44"/>
<path d="M 124 0 L 124 -520 L 202 -520 L 202 -412 Q 209 -434 219.5 -455 Q 230 -476 246 -493 Q 262 -510 284 -519 Q 306 -528 329 -528 Q 348 -528 366.5 -523.5 Q 385 -519 400 -508.5 Q 415 -498 425 -482 Q 435 -466 441 -448.5 Q 447 -431 449 -412.5 Q 451 -394 451 -375 L 373 -375 Q 373 -390 370.5 -404.5 Q 368 -419 360.5 -432 Q 353 -445 339.5 -451.5 Q 326 -458 311 -458 Q 291 -458 272.5 -449.5 Q 254 -441 241.5 -426 Q 229 -411 221 -392.5 Q 213 -374 209 -354.5 Q 205 -335 203.5 -315 Q 202 -295 202 -276 L 202 0 Z " id="path45"/>
<path d="M 249 8 Q 227 8 205 5.5 Q 183 3 162 -4.5 Q 141 -12 122 -24 Q 103 -36 89.5 -53.5 Q 76 -71 69 -92.5 Q 62 -114 62 -136 L 62 -139 L 140 -139 L 140 -138 Q 140 -119 150.5 -103 Q 161 -87 177 -77.5 Q 193 -68 211.5 -65 Q 230 -62 249 -62 Q 267 -62 285.5 -65 Q 304 -68 320 -76.5 Q 336 -85 347.5 -100.5 Q 359 -116 359 -134 Q 359 -152 349.5 -167.5 Q 340 -183 326 -193 Q 312 -203 295.5 -208.5 Q 279 -214 262 -218 Q 245 -222 228.5 -226 Q 212 -230 195.5 -236 Q 179 -242 163.5 -249.5 Q 148 -257 134 -267.5 Q 120 -278 108.5 -291 Q 97 -304 89 -319.5 Q 81 -335 76.5 -352 Q 72 -369 72 -386 Q 72 -408 78.5 -428.5 Q 85 -449 98 -466.5 Q 111 -484 129 -496 Q 147 -508 167 -515.5 Q 187 -523 208.5 -525.5 Q 230 -528 251 -528 Q 273 -528 294 -525.5 Q 315 -523 335.5 -515.5 Q 356 -508 373.5 -495.5 Q 391 -483 404 -466 Q 417 -449 423.5 -428 Q 430 -407 430 -386 L 430 -383 L 352 -383 L 352 -384 Q 352 -402 343 -417.5 Q 334 -433 319 -442.5 Q 304 -452 286.5 -455 Q 269 -458 251 -458 Q 234 -458 216.5 -455 Q 199 -452 184 -443 Q 169 -434 159 -419 Q 149 -404 149 -386 Q 149 -365 162 -347.5 Q 175 -330 193 -320 Q 211 -310 231.5 -305.5 Q 252 -301 272.5 -296 Q 293 -291 312.5 -284.5 Q 332 -278 350 -267.5 Q 368 -257 384 -243.5 Q 400 -230 411.5 -212.5 Q 423 -195 429.5 -175 Q 436 -155 436 -134 Q 436 -112 429 -91 Q 422 -70 408 -52.5 Q 394 -35 375.5 -23 Q 357 -11 336 -4 Q 315 3 293 5.5 Q 271 8 249 8 Z " id="path46"/>
<path d="M 316 8 Q 294 8 271.5 2.5 Q 249 -3 230.5 -16.5 Q 212 -30 199 -49 Q 186 -68 178.5 -89.5 Q 171 -111 168.5 -133.5 Q 166 -156 166 -179 L 166 -450 L 70 -450 L 70 -520 L 166 -520 L 166 -735 L 244 -735 L 244 -520 L 420 -520 L 420 -450 L 244 -450 L 244 -179 Q 244 -166 245 -153 Q 246 -140 249 -127.5 Q 252 -115 257 -103 Q 262 -91 270.5 -81.5 Q 279 -72 291.5 -67 Q 304 -62 316 -62 Q 328 -62 339.5 -66 Q 351 -70 359.5 -78 Q 368 -86 373.5 -97 Q 379 -108 382.5 -119 Q 386 -130 387.5 -142 Q 389 -154 389 -166 L 389 -172 L 467 -172 L 467 -162 Q 467 -141 463 -119.5 Q 459 -98 451 -78.5 Q 443 -59 429.5 -41.5 Q 416 -24 398 -12.5 Q 380 -1 359 3.5 Q 338 8 316 8 Z " id="path47"/>
<path d="M 220 8 Q 195 8 171 1 Q 147 -6 128.5 -21.5 Q 110 -37 97 -58.5 Q 84 -80 76.5 -103.5 Q 69 -127 66.5 -151.5 Q 64 -176 64 -200 L 64 -520 L 142 -520 L 142 -200 Q 142 -183 144 -166.5 Q 146 -150 151 -134.5 Q 156 -119 165.5 -105 Q 175 -91 188 -81 Q 201 -71 217 -66.5 Q 233 -62 250 -62 Q 267 -62 283 -66.5 Q 299 -71 312 -81 Q 325 -91 334.5 -105 Q 344 -119 349 -134.5 Q 354 -150 356 -166.5 Q 358 -183 358 -200 L 358 -520 L 436 -520 L 436 0 L 358 0 L 358 -91 Q 350 -70 337 -51 Q 324 -32 305.5 -18 Q 287 -4 264.5 2 Q 242 8 220 8 Z " id="path48"/>
<path d="M 205 0 L 44 -520 L 126 -520 L 226 -173 Q 232 -152 238 -131 Q 244 -110 250 -88 Q 256 -110 262 -131 Q 268 -152 274 -173 L 374 -520 L 456 -520 L 295 0 Z " id="path49"/>
<path d="M 117 0 L 32 -520 L 111 -520 L 158 -76 L 211 -374 L 289 -374 L 342 -76 L 389 -520 L 468 -520 L 383 0 L 306 0 L 250 -278 L 194 0 Z " id="path50"/>
<path d="M 53 0 L 207 -260 L 53 -520 L 144 -520 L 250 -334 L 356 -520 L 447 -520 L 293 -260 L 447 0 L 356 0 L 250 -186 L 144 0 Z " id="path51"/>
<path d="M 76 215 L 76 145 L 129 145 Q 139 145 150 142.5 Q 161 140 168.5 132 Q 176 124 180 114 Q 184 104 187 94 L 210 15 L 51 -520 L 132 -520 L 251 -105 L 293 -256 L 368 -520 L 449 -520 L 262 113 Q 255 136 245 157 Q 235 178 216.5 192.5 Q 198 207 175 211 Q 152 215 129 215 Z " id="path52"/>
<path d="M 64 0 L 64 -70 L 351 -450 L 64 -450 L 64 -520 L 436 -520 L 436 -450 L 149 -70 L 436 -70 L 436 0 Z " id="path53"/>
<path d="M 211 -260 L 211 -735 L 289 -735 L 289 -260 Z M 250 8 Q 236 8 222 4 Q 208 0 198 -10.5 Q 188 -21 184 -34.5 Q 180 -48 180 -63 Q 180 -77 184 -90.5 Q 188 -104 198 -114.5 Q 208 -125 222 -129 Q 236 -133 250 -133 Q 264 -133 278 -129 Q 292 -125 302 -114.5 Q 312 -104 316.5 -90.5 Q 321 -77 321 -63 Q 321 -48 316.5 -34.5 Q 312 -21 302 -10.5 Q 292 0 278 4 Q 264 8 250 8 Z " id="path54"/>
<path d="M 75 0 L 75 -70 L 219 -70 L 219 -646 L 80 -546 L 35 -603 L 219 -735 L 296 -735 L 296 -70 L 425 -70 L 425 0 Z " id="path55"/>
<path d="M 146 0 L 355 -665 L 64 -665 L 64 -735 L 436 -735 L 436 -665 L 226 0 Z " id="path56"/>
<path d="M 211 143 L 211 -823 L 289 -823 L 289 143 Z " id="path57"/>
<path d="M 211 -386 L 211 -823 L 289 -823 L 289 -386 Z M 211 143 L 211 -294 L 289 -294 L 289 143 Z " id="path58"/>
<path d="M 211 107 L 211 -35 L 220 -35 L 220 -485 L 211 -485 L 211 -628 L 289 -628 L 289 -485 L 280 -485 L 280 -35 L 289 -35 L 289 107 Z M 247 8 Q 221 8 194 2.5 Q 167 -3 144 -16.5 Q 121 -30 103.5 -50.5 Q 86 -71 75 -95.5 Q 64 -120 60 -146.5 Q 56 -173 56 -200 L 56 -320 Q 56 -347 60 -373.5 Q 64 -400 75 -424.5 Q 86 -449 103.5 -469.5 Q 121 -490 144 -503.5 Q 167 -517 194 -522.5 Q 221 -528 247 -528 Q 272 -528 297 -523.5 Q 322 -519 344.5 -508 Q 367 -497 385 -479.5 Q 403 -462 415 -440 Q 427 -418 432.5 -393.5 Q 438 -369 438 -344 L 438 -342 L 360 -342 L 360 -343 Q 360 -366 353 -388 Q 346 -410 330 -426.5 Q 314 -443 292 -450.5 Q 270 -458 247 -458 Q 230 -458 213.5 -454 Q 197 -450 183 -440 Q 169 -430 159.5 -416 Q 150 -402 144 -386.5 Q 138 -371 136 -354 Q 134 -337 134 -320 L 134 -200 Q 134 -183 136 -166 Q 138 -149 144 -133.5 Q 150 -118 159.5 -104 Q 169 -90 183 -80 Q 197 -70 213.5 -66 Q 230 -62 247 -62 Q 270 -62 292 -69.5 Q 314 -77 330 -93.5 Q 346 -110 353 -132 Q 360 -154 360 -177 L 360 -178 L 438 -178 L 438 -176 Q 438 -151 432.5 -126.5 Q 427 -102 415 -80 Q 403 -58 385 -40.5 Q 367 -23 344.5 -12 Q 322 -1 297 3.5 Q 272 8 247 8 Z " id="path59"/>
<path d="M 250 8 Q 223 8 196 2.5 Q 169 -3 146 -16 Q 123 -29 104.5 -49.5 Q 86 -70 75 -94.5 Q 64 -119 60 -146 Q 56 -173 56 -200 L 56 -535 Q 56 -562 60 -589 Q 64 -616 75 -640.5 Q 86 -665 104.5 -685.5 Q 123 -706 146 -719 Q 169 -732 196 -737.5 Q 223 -743 250 -743 Q 277 -743 304 -737.5 Q 331 -732 354 -719 Q 377 -706 395.5 -685.5 Q 414 -665 425 -640.5 Q 436 -616 440 -589 Q 444 -562 444 -535 L 444 -200 Q 444 -173 440 -146 Q 436 -119 425 -94.5 Q 414 -70 395.5 -49.5 Q 377 -29 354 -16 Q 331 -3 304 2.5 Q 277 8 250 8 Z M 250 -62 Q 267 -62 284 -66 Q 301 -70 315 -79.5 Q 329 -89 339.5 -103 Q 350 -117 356 -133 Q 362 -149 364 -166 Q 366 -183 366 -200 L 366 -535 Q 366 -552 364 -569 Q 362 -586 356 -602 Q 350 -618 339.5 -632 Q 329 -646 315 -655.5 Q 301 -665 284 -669 Q 267 -673 250 -673 Q 233 -673 216 -669 Q 199 -665 185 -655.5 Q 171 -646 160.5 -632 Q 150 -618 144 -602 Q 138 -586 136 -569 Q 134 -552 134 -535 L 134 -200 Q 134 -183 136 -166 Q 138 -149 144 -133 Q 150 -117 160.5 -103 Q 171 -89 185 -79.5 Q 199 -70 216 -66 Q 233 -62 250 -62 Z M 250 -305 Q 238 -305 227 -309.5 Q 216 -314 208.5 -323 Q 201 -332 198.5 -343.5 Q 196 -355 196 -367 L 196 -368 Q 196 -380 198.5 -391.5 Q 201 -403 208.5 -412 Q 216 -421 227 -425.5 Q 238 -430 250 -430 Q 262 -430 273 -425.5 Q 284 -421 291.5 -412 Q 299 -403 301.5 -391.5 Q 304 -380 304 -368 L 304 -367 Q 304 -355 301.5 -343.5 Q 299 -332 291.5 -323 Q 284 -314 273 -309.5 Q 262 -305 250 -305 Z " id="path60"/>
<path d="M 250 8 Q 226 8 201.5 4.5 Q 177 1 154.5 -9 Q 132 -19 113 -35 Q 94 -51 81 -71.5 Q 68 -92 62 -116 Q 56 -140 56 -165 Q 56 -197 67 -228.5 Q 78 -260 96.5 -286.5 Q 115 -313 139 -335 Q 163 -357 189 -377 Q 165 -396 143.5 -417 Q 122 -438 106 -463.5 Q 90 -489 80.5 -518 Q 71 -547 71 -577 Q 71 -600 77 -622.5 Q 83 -645 94 -665 Q 105 -685 122.5 -700.5 Q 140 -716 160.5 -726 Q 181 -736 204 -739.5 Q 227 -743 250 -743 Q 273 -743 296 -739.5 Q 319 -736 339.5 -726 Q 360 -716 377.5 -700.5 Q 395 -685 406 -665 Q 417 -645 423 -622.5 Q 429 -600 429 -577 Q 429 -547 419.5 -518 Q 410 -489 394 -463.5 Q 378 -438 356.5 -417 Q 335 -396 311 -377 Q 337 -357 361 -335 Q 385 -313 403.5 -286.5 Q 422 -260 433 -228.5 Q 444 -197 444 -165 Q 444 -140 438 -116 Q 432 -92 419 -71.5 Q 406 -51 387 -35 Q 368 -19 345.5 -9 Q 323 1 298.5 4.5 Q 274 8 250 8 Z M 250 -421 Q 269 -436 287 -452 Q 305 -468 319 -487 Q 333 -506 342 -529 Q 351 -552 351 -576 Q 351 -595 344 -614.5 Q 337 -634 323 -647.5 Q 309 -661 289.5 -667 Q 270 -673 250 -673 Q 230 -673 210.5 -667 Q 191 -661 177 -647.5 Q 163 -634 156 -614.5 Q 149 -595 149 -576 Q 149 -552 158 -529 Q 167 -506 181 -487 Q 195 -468 213 -452 Q 231 -436 250 -421 Z M 250 -62 Q 272 -62 294 -67.5 Q 316 -73 332.5 -87.5 Q 349 -102 357.5 -123 Q 366 -144 366 -166 Q 366 -193 355.5 -217.5 Q 345 -242 328.5 -262.5 Q 312 -283 291.5 -300 Q 271 -317 250 -332 Q 229 -317 208.5 -300 Q 188 -283 171.5 -262.5 Q 155 -242 144.5 -217.5 Q 134 -193 134 -166 Q 134 -144 142.5 -123 Q 151 -102 167.5 -87.5 Q 184 -73 206 -67.5 Q 228 -62 250 -62 Z " id="path61"/>
<path d="M 211 107 L 211 -72 L 220 -72 L 220 -663 L 211 -663 L 211 -843 L 289 -843 L 289 -663 L 280 -663 L 280 -72 L 289 -72 L 289 107 Z M 249 -29 Q 225 -29 200.5 -32.5 Q 176 -36 153.5 -45.5 Q 131 -55 112 -71 Q 93 -87 80 -107.5 Q 67 -128 60.5 -152 Q 54 -176 54 -200 L 54 -207 L 132 -207 L 132 -203 Q 132 -181 140.5 -160 Q 149 -139 166 -124.5 Q 183 -110 205 -104.5 Q 227 -99 249 -99 Q 271 -99 292.5 -104 Q 314 -109 331 -123 Q 348 -137 357.5 -157.5 Q 367 -178 367 -200 Q 367 -224 355.5 -246 Q 344 -268 326 -284 Q 308 -300 285.5 -310 Q 263 -320 241 -329.5 Q 219 -339 197 -349.5 Q 175 -360 155.5 -374 Q 136 -388 119 -405.5 Q 102 -423 89.5 -443.5 Q 77 -464 70.5 -488 Q 64 -512 64 -536 Q 64 -560 70 -583 Q 76 -606 88 -626.5 Q 100 -647 118 -663 Q 136 -679 158 -689 Q 180 -699 203.5 -702.5 Q 227 -706 251 -706 Q 275 -706 298.5 -702.5 Q 322 -699 344 -689 Q 366 -679 384 -663.5 Q 402 -648 414 -627.5 Q 426 -607 432 -583.5 Q 438 -560 438 -536 L 438 -529 L 360 -529 L 360 -533 Q 360 -555 352.5 -575 Q 345 -595 329.5 -609.5 Q 314 -624 293 -630 Q 272 -636 251 -636 Q 230 -636 209.5 -630.5 Q 189 -625 173 -611 Q 157 -597 149 -577 Q 141 -557 141 -536 Q 141 -511 152.5 -489 Q 164 -467 182 -451 Q 200 -435 222 -425 Q 244 -415 266.5 -405.5 Q 289 -396 310.5 -385.5 Q 332 -375 352 -361 Q 372 -347 389 -329.5 Q 406 -312 418.5 -291.5 Q 431 -271 437.5 -247.5 Q 444 -224 444 -200 Q 444 -175 437.5 -151.5 Q 431 -128 418 -107 Q 405 -86 386 -70.5 Q 367 -55 344.5 -45.5 Q 322 -36 297.5 -32.5 Q 273 -29 249 -29 Z " id="path62"/>
<path d="M 252 8 Q 228 8 204 3.5 Q 180 -1 159 -12 Q 138 -23 120.5 -40 Q 103 -57 91 -78 Q 79 -99 72.5 -122 Q 66 -145 63 -169 L 63 -174 L 141 -174 L 141 -170 Q 144 -149 152 -128.5 Q 160 -108 174.5 -92.5 Q 189 -77 209.5 -69.5 Q 230 -62 252 -62 Q 271 -62 289.5 -69 Q 308 -76 322 -90 Q 336 -104 344.5 -121.5 Q 353 -139 358 -158 Q 363 -177 364.5 -196.5 Q 366 -216 366 -235 Q 366 -255 364.5 -274 Q 363 -293 358.5 -312 Q 354 -331 345.5 -348.5 Q 337 -366 323.5 -380 Q 310 -394 292 -401 Q 274 -408 254 -408 Q 234 -408 214 -401.5 Q 194 -395 179.5 -380.5 Q 165 -366 157.5 -346 Q 150 -326 149 -305 L 71 -305 L 71 -735 L 417 -735 L 417 -665 L 149 -665 L 149 -451 Q 172 -466 199.5 -472 Q 227 -478 254 -478 Q 283 -478 311.5 -470.5 Q 340 -463 363.5 -445 Q 387 -427 403 -402.5 Q 419 -378 428 -350.5 Q 437 -323 440.5 -293.5 Q 444 -264 444 -235 Q 444 -206 440.5 -176.5 Q 437 -147 427.5 -119.5 Q 418 -92 401.5 -67 Q 385 -42 361.5 -24.5 Q 338 -7 309.5 0.5 Q 281 8 252 8 Z " id="path63"/>
<path d="M 64 0 L 64 -70 L 284 -367 Q 298 -386 312.5 -406 Q 327 -426 338.5 -448 Q 350 -470 356 -493.5 Q 362 -517 362 -542 Q 362 -566 356.5 -590.5 Q 351 -615 336.5 -634.5 Q 322 -654 298.5 -663.5 Q 275 -673 251 -673 Q 229 -673 207 -666 Q 185 -659 169.5 -643 Q 154 -627 147 -605.5 Q 140 -584 140 -561 L 140 -560 L 62 -560 L 62 -563 Q 62 -587 67.5 -611.5 Q 73 -636 85 -657.5 Q 97 -679 115 -696 Q 133 -713 155 -724 Q 177 -735 201.5 -739 Q 226 -743 251 -743 Q 277 -743 303 -738 Q 329 -733 352 -720 Q 375 -707 392.5 -687.5 Q 410 -668 421 -644 Q 432 -620 436 -594 Q 440 -568 440 -542 Q 440 -512 433 -482.5 Q 426 -453 412.5 -426.5 Q 399 -400 382 -375 Q 365 -350 347 -326 L 157 -70 L 436 -70 L 436 0 Z " id="path64"/>
<path d="M 253 8 Q 228 8 203 3.5 Q 178 -1 155.5 -12 Q 133 -23 115 -40.5 Q 97 -58 85 -80 Q 73 -102 67.5 -126.5 Q 62 -151 62 -176 L 62 -178 L 140 -178 L 140 -177 Q 140 -154 147 -132 Q 154 -110 170 -93.5 Q 186 -77 208 -69.5 Q 230 -62 253 -62 Q 270 -62 286.5 -66 Q 303 -70 317 -80 Q 331 -90 340.5 -104 Q 350 -118 356 -133.5 Q 362 -149 364 -166 Q 366 -183 366 -200 L 366 -345 Q 356 -331 343 -319.5 Q 330 -308 314 -300.5 Q 298 -293 280.5 -290.5 Q 263 -288 246 -288 Q 219 -288 193 -293.5 Q 167 -299 144 -312.5 Q 121 -326 103 -346.5 Q 85 -367 74.5 -391.5 Q 64 -416 60 -442.5 Q 56 -469 56 -496 L 56 -535 Q 56 -562 60 -589 Q 64 -616 75 -640.5 Q 86 -665 104.5 -685.5 Q 123 -706 146 -719 Q 169 -732 196 -737.5 Q 223 -743 250 -743 Q 277 -743 304 -737.5 Q 331 -732 354 -719 Q 377 -706 395.5 -685.5 Q 414 -665 425 -640.5 Q 436 -616 440 -589 Q 444 -562 444 -535 L 444 -200 Q 444 -173 440 -146.5 Q 436 -120 425 -95.5 Q 414 -71 396.5 -50.5 Q 379 -30 356 -16.5 Q 333 -3 306 2.5 Q 279 8 253 8 Z M 249 -358 Q 267 -358 283.5 -362 Q 300 -366 314.5 -375.5 Q 329 -385 339.5 -399 Q 350 -413 356 -429 Q 362 -445 364 -462 Q 366 -479 366 -496 L 366 -535 Q 366 -552 364 -569 Q 362 -586 356 -602 Q 350 -618 339.5 -632 Q 329 -646 315 -655.5 Q 301 -665 284 -669 Q 267 -673 250 -673 Q 233 -673 216 -669 Q 199 -665 185 -655.5 Q 171 -646 160.5 -632 Q 150 -618 144 -602 Q 138 -586 136 -569 Q 134 -552 134 -535 L 134 -496 Q 134 -479 136 -462 Q 138 -445 144 -429 Q 150 -413 160 -399 Q 170 -385 184.5 -375.5 Q 199 -366 215.5 -362 Q 232 -358 249 -358 Z " id="path65"/>
<path d="M 250 8 Q 223 8 196 2.5 Q 169 -3 146 -16 Q 123 -29 104.5 -49.5 Q 86 -70 75 -94.5 Q 64 -119 60 -146 Q 56 -173 56 -200 L 56 -535 Q 56 -562 60 -588.5 Q 64 -615 75 -639.5 Q 86 -664 103.5 -684.5 Q 121 -705 144 -718.5 Q 167 -732 194 -737.5 Q 221 -743 247 -743 Q 272 -743 297 -738.5 Q 322 -734 344.5 -723 Q 367 -712 385 -694.5 Q 403 -677 415 -655 Q 427 -633 432.5 -608.5 Q 438 -584 438 -559 L 438 -557 L 360 -557 L 360 -558 Q 360 -581 353 -603 Q 346 -625 330 -641.5 Q 314 -658 292 -665.5 Q 270 -673 247 -673 Q 230 -673 213.5 -669 Q 197 -665 183 -655 Q 169 -645 159.5 -631 Q 150 -617 144 -601.5 Q 138 -586 136 -569 Q 134 -552 134 -535 L 134 -390 Q 144 -404 157 -415.5 Q 170 -427 186 -434.5 Q 202 -442 219.5 -444.5 Q 237 -447 254 -447 Q 281 -447 307 -441.5 Q 333 -436 356 -422.5 Q 379 -409 397 -388.5 Q 415 -368 425.5 -343.5 Q 436 -319 440 -292.5 Q 444 -266 444 -239 L 444 -200 Q 444 -173 440 -146 Q 436 -119 425 -94.5 Q 414 -70 395.5 -49.5 Q 377 -29 354 -16 Q 331 -3 304 2.5 Q 277 8 250 8 Z M 250 -62 Q 267 -62 284 -66 Q 301 -70 315 -79.5 Q 329 -89 339.5 -103 Q 350 -117 356 -133 Q 362 -149 364 -166 Q 366 -183 366 -200 L 366 -239 Q 366 -256 364 -273 Q 362 -290 356 -306 Q 350 -322 340 -336 Q 330 -350 315.5 -359.5 Q 301 -369 284.5 -373 Q 268 -377 251 -377 Q 233 -377 216.5 -373 Q 200 -369 185.5 -359.5 Q 171 -350 160.5 -336 Q 150 -322 144 -306 Q 138 -290 136 -273 Q 134 -256 134 -239 L 134 -200 Q 134 -183 136 -166 Q 138 -149 144 -133 Q 150 -117 160.5 -103 Q 171 -89 185 -79.5 Q 199 -70 216 -66 Q 233 -62 250 -62 Z " id="path66"/>
<path d="M 64 215 L 64 -520 L 142 -520 L 142 -200 Q 142 -183 144 -166.5 Q 146 -150 151 -134.5 Q 156 -119 165.5 -105 Q 175 -91 188 -81 Q 201 -71 217 -66.5 Q 233 -62 250 -62 Q 267 -62 283 -66.5 Q 299 -71 312 -81 Q 325 -91 334.5 -105 Q 344 -119 349 -134.5 Q 354 -150 356 -166.5 Q 358 -183 358 -200 L 358 -520 L 436 -520 L 436 0 L 358 0 L 358 -91 Q 350 -70 337 -51 Q 324 -32 305.5 -18 Q 287 -4 264.5 2 Q 242 8 220 8 Q 198 8 177 3 Q 156 -2 139 -14 Q 140 16 141 46.5 Q 142 77 142 107 L 142 215 Z " id="path67"/>
<path d="M 123 143 L 123 -823 L 399 -823 L 399 -753 L 201 -753 L 201 73 L 399 73 L 399 143 Z " id="path68"/>
<path d="M 101 143 L 101 73 L 299 73 L 299 -753 L 101 -753 L 101 -823 L 377 -823 L 377 143 Z " id="path69"/>
<path d="M 64 -394 L 64 -464 L 436 -464 L 436 -394 Z M 436 -216 L 64 -216 L 64 -286 L 436 -286 Z " id="path70"/>
<path d="M 399 153 Q 373 153 347 148.5 Q 321 144 297.5 132.5 Q 274 121 254.5 102.5 Q 235 84 223 61 Q 211 38 206.5 12 Q 202 -14 202 -40 L 202 -182 Q 202 -198 199 -214 Q 196 -230 189.5 -245 Q 183 -260 171.5 -272 Q 160 -284 145.5 -291.5 Q 131 -299 115 -302 Q 99 -305 83 -305 L 83 -375 Q 99 -375 115 -378 Q 131 -381 145.5 -388.5 Q 160 -396 171.5 -408 Q 183 -420 189.5 -435 Q 196 -450 199 -466 Q 202 -482 202 -498 L 202 -640 Q 202 -666 206.5 -692 Q 211 -718 223 -741 Q 235 -764 254.5 -782.5 Q 274 -801 297.5 -812.5 Q 321 -824 347 -828.5 Q 373 -833 399 -833 L 399 -763 Q 382 -763 366 -760 Q 350 -757 336 -749 Q 322 -741 310.5 -729 Q 299 -717 292 -702.5 Q 285 -688 282.5 -672 Q 280 -656 280 -640 L 280 -498 Q 280 -476 276.5 -453.5 Q 273 -431 264 -410 Q 255 -389 241 -371 Q 227 -353 209 -340 Q 227 -327 241 -309 Q 255 -291 264 -270 Q 273 -249 276.5 -226.5 Q 280 -204 280 -182 L 280 -40 Q 280 -24 282.5 -8 Q 285 8 292 22.5 Q 299 37 310.5 49 Q 322 61 336 69 Q 350 77 366 80 Q 382 83 399 83 Z " id="path71"/>
<path d="M 64 -305 L 64 -375 L 436 -375 L 436 -305 Z " id="path72"/>
<path d="M 59 143 L 361 -823 L 441 -823 L 139 143 Z " id="path73"/>
<path d="M 253 8 Q 227 8 201.5 4 Q 176 0 153 -11 Q 130 -22 111 -39.5 Q 92 -57 79 -79 Q 66 -101 60 -126.5 Q 54 -152 54 -177 L 54 -178 L 132 -178 Q 132 -154 140.5 -131 Q 149 -108 166 -92 Q 183 -76 206 -69 Q 229 -62 253 -62 Q 278 -62 302.5 -71 Q 327 -80 343.5 -99.5 Q 360 -119 367 -144 Q 374 -169 374 -195 Q 374 -216 369.5 -236.5 Q 365 -257 355 -275.5 Q 345 -294 329.5 -308.5 Q 314 -323 295 -331.5 Q 276 -340 255 -342.5 Q 234 -345 213 -345 L 213 -415 Q 232 -415 251 -417 Q 270 -419 287.5 -426.5 Q 305 -434 319 -447.5 Q 333 -461 341.5 -478 Q 350 -495 354 -514 Q 358 -533 358 -552 Q 358 -574 352.5 -596.5 Q 347 -619 333 -637 Q 319 -655 297.5 -664 Q 276 -673 253 -673 Q 231 -673 210.5 -665.5 Q 190 -658 175.5 -642 Q 161 -626 154.5 -605 Q 148 -584 148 -562 L 148 -560 L 70 -560 L 70 -563 Q 70 -587 75.5 -611 Q 81 -635 92 -656.5 Q 103 -678 120.5 -695.5 Q 138 -713 159.5 -723.5 Q 181 -734 205 -738.5 Q 229 -743 253 -743 Q 278 -743 302.5 -738 Q 327 -733 348.5 -721.5 Q 370 -710 387 -691.5 Q 404 -673 415 -650.5 Q 426 -628 431 -603.5 Q 436 -579 436 -554 Q 436 -527 429.5 -501 Q 423 -475 410 -451.5 Q 397 -428 376.5 -410 Q 356 -392 332 -381 Q 359 -370 382.5 -350.5 Q 406 -331 421.5 -306 Q 437 -281 444.5 -251.5 Q 452 -222 452 -193 Q 452 -166 446.5 -139.5 Q 441 -113 429 -89.5 Q 417 -66 398 -46.5 Q 379 -27 355.5 -14.5 Q 332 -2 305.5 3 Q 279 8 253 8 Z " id="path74"/>
<path d="M 294 0 L 294 -194 L 56 -194 L 56 -264 L 275 -735 L 372 -735 L 372 -264 L 436 -264 L 436 -194 L 372 -194 L 372 0 Z M 140 -264 L 294 -264 L 294 -596 Z " id="path75"/>
<path d="M 215 215 L 156 170 Q 188 134 214.5 94 Q 241 54 254 8 L 249 8 Q 234 8 218.5 3 Q 203 -2 192 -13 Q 181 -24 176.5 -39 Q 172 -54 172 -70 Q 172 -86 176.5 -101 Q 181 -116 192.5 -127.5 Q 204 -139 219 -143.5 Q 234 -148 250 -148 Q 266 -148 282 -143 Q 298 -138 309 -126.5 Q 320 -115 324 -99 Q 328 -83 328 -67 Q 328 -28 319 10 Q 310 48 295 83.5 Q 280 119 259.5 152 Q 239 185 215 215 Z " id="path76"/>
<path d="M 289 -147 L 211 -147 L 211 -305 L 64 -305 L 64 -375 L 211 -375 L 211 -533 L 289 -533 L 289 -375 L 436 -375 L 436 -305 L 289 -305 Z " id="path77"/>
<path d="M 131 -380 Q 110 -380 89 -386 Q 68 -392 52.5 -407 Q 37 -422 30.5 -443 Q 24 -464 24 -485 L 24 -638 Q 24 -659 30.5 -680 Q 37 -701 52.5 -715.5 Q 68 -730 89 -736.5 Q 110 -743 131 -743 Q 152 -743 173 -736.5 Q 194 -730 209.5 -715.5 Q 225 -701 231.5 -680 Q 238 -659 238 -638 L 238 -485 Q 238 -464 231.5 -443 Q 225 -422 209.5 -407 Q 194 -392 173 -386 Q 152 -380 131 -380 Z M 32 0 L 217 -368 L 388 -735 L 468 -735 L 283 -368 L 112 0 Z M 131 -444 Q 139 -444 146 -447 Q 153 -450 157.5 -456 Q 162 -462 164 -470 Q 166 -478 166 -485 L 166 -638 Q 166 -645 164 -652.5 Q 162 -660 157.5 -666 Q 153 -672 146 -675 Q 139 -678 131 -678 Q 123 -678 116 -675 Q 109 -672 104 -666 Q 99 -660 97.5 -652.5 Q 96 -645 96 -638 L 96 -485 Q 96 -478 97.5 -470 Q 99 -462 104 -456 Q 109 -450 116 -447 Q 123 -444 131 -444 Z M 369 8 Q 348 8 327 1.5 Q 306 -5 290.5 -19.5 Q 275 -34 268.5 -55 Q 262 -76 262 -98 L 262 -250 Q 262 -271 268.5 -292 Q 275 -313 290.5 -328 Q 306 -343 327 -349 Q 348 -355 369 -355 Q 390 -355 411 -349 Q 432 -343 447.5 -328 Q 463 -313 469.5 -292 Q 476 -271 476 -250 L 476 -98 Q 476 -76 469.5 -55 Q 463 -34 447.5 -19.5 Q 432 -5 411 1.5 Q 390 8 369 8 Z M 369 -57 Q 377 -57 384 -60 Q 391 -63 396 -69 Q 401 -75 402.5 -82.5 Q 404 -90 404 -98 L 404 -250 Q 404 -257 402.5 -265 Q 401 -273 396 -279 Q 391 -285 384 -288 Q 377 -291 369 -291 Q 361 -291 354 -288 Q 347 -285 342.5 -279 Q 338 -273 336 -265 Q 334 -257 334 -250 L 334 -98 Q 334 -90 336 -82.5 Q 338 -75 342.5 -69 Q 347 -63 354 -60 Q 361 -57 369 -57 Z " id="path78"/>
<path d="M 101 153 L 101 83 Q 118 83 134 80 Q 150 77 164 69 Q 178 61 189.5 49 Q 201 37 208 22.5 Q 215 8 217.5 -8 Q 220 -24 220 -40 L 220 -182 Q 220 -204 223.5 -226.5 Q 227 -249 236 -270 Q 245 -291 259 -309 Q 273 -327 291 -340 Q 273 -353 259 -371 Q 245 -389 236 -410 Q 227 -431 223.5 -453.5 Q 220 -476 220 -498 L 220 -640 Q 220 -656 217.5 -672 Q 215 -688 208 -702.5 Q 201 -717 189.5 -729 Q 178 -741 164 -749 Q 150 -757 134 -760 Q 118 -763 101 -763 L 101 -833 Q 127 -833 153 -828.5 Q 179 -824 202.5 -812.5 Q 226 -801 245.5 -782.5 Q 265 -764 277 -741 Q 289 -718 293.5 -692 Q 298 -666 298 -640 L 298 -498 Q 298 -482 301 -466 Q 304 -450 310.5 -435 Q 317 -420 328.5 -408 Q 340 -396 354.5 -388.5 Q 369 -381 385 -378 Q 401 -375 417 -375 L 417 -305 Q 401 -305 385 -302 Q 369 -299 354.5 -291.5 Q 340 -284 328.5 -272 Q 317 -260 310.5 -245 Q 304 -230 301 -214 Q 298 -198 298 -182 L 298 -40 Q 298 -14 293.5 12 Q 289 38 277 61 Q 265 84 245.5 102.5 Q 226 121 202.5 132.5 Q 179 144 153 148.5 Q 127 153 101 153 Z " id="path79"/>
<path d="M 215 215 L 156 170 Q 188 134 214.5 94 Q 241 54 254 8 L 249 8 Q 234 8 218.5 3 Q 203 -2 192 -13 Q 181 -24 176.5 -39 Q 172 -54 172 -70 Q 172 -86 176.5 -101 Q 181 -116 192.5 -127.5 Q 204 -139 219 -143.5 Q 234 -148 250 -148 Q 266 -148 282 -143 Q 298 -138 309 -126.5 Q 320 -115 324 -99 Q 328 -83 328 -67 Q 328 -28 319 10 Q 310 48 295 83.5 Q 280 119 259.5 152 Q 239 185 215 215 Z M 250 -372 Q 234 -372 219 -376.5 Q 204 -381 192.5 -392.5 Q 181 -404 176.5 -419 Q 172 -434 172 -450 Q 172 -466 176.5 -481 Q 181 -496 192.5 -507.5 Q 204 -519 219 -523.5 Q 234 -528 250 -528 Q 266 -528 281 -523.5 Q 296 -519 307.5 -507.5 Q 319 -496 323.5 -481 Q 328 -466 328 -450 Q 328 -434 323.5 -419 Q 319 -404 307.5 -392.5 Q 296 -381 281 -376.5 Q 266 -372 250 -372 Z " id="path80"/>
<path d="M 64 215 L 64 145 L 436 145 L 436 215 Z " id="path81"/>
<path d="M 84 -81 L 44 -141 L 369 -340 L 44 -539 L 84 -599 L 436 -381 L 436 -299 Z " id="path82"/>
<path d="M 416 -81 L 64 -299 L 64 -381 L 416 -599 L 456 -539 L 131 -340 L 456 -141 Z " id="path83"/>
<path d="M 399 -82 L 222 -340 L 399 -598 L 455 -565 L 312 -340 L 455 -115 Z M 213 -82 L 36 -340 L 213 -598 L 269 -565 L 126 -340 L 269 -115 Z " id="path84"/>
<path d="M 100 -636 L 100 -704 L 400 -704 L 400 -636 Z " id="path85"/>
<path d="M 436 -135 L 358 -135 L 358 -305 L 64 -305 L 64 -375 L 436 -375 Z " id="path86"/>
<path d="M 287 -82 L 231 -115 L 374 -340 L 231 -565 L 287 -598 L 464 -340 Z M 101 -82 L 45 -115 L 188 -340 L 45 -565 L 101 -598 L 278 -340 Z " id="path87"/>
<path d="M 323 -185 Q 315 -185 308 -186.5 Q 301 -188 294.5 -190 Q 288 -192 282 -196 Q 276 -200 271 -204.5 Q 266 -209 261.5 -213.5 Q 257 -218 252.5 -223.5 Q 248 -229 244 -235 Q 240 -241 236 -246.5 Q 232 -252 228.5 -258 Q 225 -264 221.5 -270 Q 218 -276 214 -283 Q 210 -290 206.5 -296.5 Q 203 -303 199 -309 Q 195 -315 191.5 -320 Q 188 -325 181.5 -330.5 Q 175 -336 175 -339 L 180 -339 Q 180 -338 175.5 -334 Q 171 -330 167 -325.5 Q 163 -321 160 -316.5 Q 157 -312 155 -309 Q 153 -306 151.5 -302.5 Q 150 -299 148 -295.5 Q 146 -292 143.5 -288 Q 141 -284 139 -279.5 Q 137 -275 135 -270.5 Q 133 -266 130.5 -261 Q 128 -256 125.5 -250.5 Q 123 -245 120.5 -239.5 Q 118 -234 115.5 -228 Q 113 -222 110.5 -215.5 Q 108 -209 105.5 -202 Q 103 -195 100 -188 L 28 -212 Q 32 -224 36 -234.5 Q 40 -245 44.5 -255 Q 49 -265 53 -274.5 Q 57 -284 60.5 -292.5 Q 64 -301 68 -308.5 Q 72 -316 76 -323 Q 80 -330 83.5 -336.5 Q 87 -343 91 -349 Q 95 -355 101 -363 Q 107 -371 113.5 -377.5 Q 120 -384 126.5 -389.5 Q 133 -395 141.5 -399.5 Q 150 -404 159 -406.5 Q 168 -409 177 -409 Q 185 -409 192 -407.5 Q 199 -406 205.5 -403.5 Q 212 -401 218 -397.5 Q 224 -394 229 -389.5 Q 234 -385 238.5 -380 Q 243 -375 247.5 -369.5 Q 252 -364 256 -358.5 Q 260 -353 264 -347 Q 268 -341 271.5 -335 Q 275 -329 278.5 -323 Q 282 -317 286 -310.5 Q 290 -304 293.5 -297.5 Q 297 -291 301 -285 Q 305 -279 308.5 -274 Q 312 -269 318.5 -263 Q 325 -257 325 -255 Q 325 -254 325 -254 L 324 -255 Q 323 -255 322 -255 L 320 -255 L 325 -259 Q 329 -263 333 -267.5 Q 337 -272 340 -277 Q 343 -282 345 -285 Q 347 -288 348.5 -291 Q 350 -294 352 -298 Q 354 -302 356.5 -306 Q 359 -310 361 -314 Q 363 -318 365 -323 Q 367 -328 369.5 -333 Q 372 -338 374.5 -343 Q 377 -348 379.5 -354 Q 382 -360 384.5 -366 Q 387 -372 389.5 -378.5 Q 392 -385 394.5 -391.5 Q 397 -398 400 -406 L 472 -381 Q 468 -370 464 -359 Q 460 -348 455.5 -338 Q 451 -328 447 -319 Q 443 -310 439.5 -301.5 Q 436 -293 432 -285 Q 428 -277 424 -270 Q 420 -263 416.5 -257 Q 413 -251 409 -245 Q 405 -239 399 -231 Q 393 -223 386.5 -216 Q 380 -209 373.5 -203.5 Q 367 -198 358.5 -194 Q 350 -190 341 -187.5 Q 332 -185 323 -185 Z " id="path88"/>
<path d="M 32 -305 L 32 -375 L 468 -375 L 468 -305 Z " id="path89"/>
<path d="M 250 -456 Q 236 -456 222 -460 Q 208 -464 198 -474 Q 188 -484 184 -498 Q 180 -512 180 -526 Q 180 -540 184 -554 Q 188 -568 198 -578 Q 208 -588 222 -592.5 Q 236 -597 250 -597 Q 264 -597 278 -592.5 Q 292 -588 302 -578 Q 312 -568 316.5 -554 Q 321 -540 321 -526 Q 321 -512 316.5 -498 Q 312 -484 302 -474 Q 292 -464 278 -460 Q 264 -456 250 -456 Z M 64 -305 L 64 -375 L 436 -375 L 436 -305 Z M 250 -84 Q 236 -84 222 -88 Q 208 -92 198 -102 Q 188 -112 184 -126 Q 180 -140 180 -154 Q 180 -168 184 -182 Q 188 -196 198 -206 Q 208 -216 222 -220.5 Q 236 -225 250 -225 Q 264 -225 278 -220.5 Q 292 -216 302 -206 Q 312 -196 316.5 -182 Q 321 -168 321 -154 Q 321 -140 316.5 -126 Q 312 -112 302 -102 Q 292 -92 278 -88 Q 264 -84 250 -84 Z " id="path90"/>
<path d="M 75 -113 L 21 -163 L 198 -340 L 21 -517 L 75 -567 L 250 -392 L 425 -567 L 479 -517 L 302 -340 L 479 -163 L 425 -113 L 250 -288 Z " id="path91"/>
<path d="M 211 -263 L 217 -418 L 88 -338 L 49 -398 L 189 -473 L 49 -548 L 88 -608 L 217 -528 L 211 -683 L 289 -683 L 283 -528 L 412 -608 L 451 -548 L 311 -473 L 451 -398 L 412 -338 L 283 -418 L 289 -263 Z " id="path92"/>
<path d="M 372 161 Q 329 137 291.5 104.5 Q 254 72 224 32.5 Q 194 -7 173 -52 Q 152 -97 139 -144.5 Q 126 -192 120.5 -241.5 Q 115 -291 115 -340 Q 115 -389 120.5 -438.5 Q 126 -488 139 -535.5 Q 152 -583 173 -628 Q 194 -673 224 -712.5 Q 254 -752 291.5 -784.5 Q 329 -817 372 -841 L 410 -780 Q 355 -748 311.5 -699 Q 268 -650 241 -591.5 Q 214 -533 203.5 -468.5 Q 193 -404 193 -340 Q 193 -276 203.5 -211.5 Q 214 -147 241 -88.5 Q 268 -30 311.5 19 Q 355 68 410 100 Z " id="path93"/>
<path d="M 128 161 L 90 100 Q 145 68 188.5 19 Q 232 -30 259 -88.5 Q 286 -147 296.5 -211.5 Q 307 -276 307 -340 Q 307 -404 296.5 -468.5 Q 286 -533 259 -591.5 Q 232 -650 188.5 -699 Q 145 -748 90 -780 L 128 -841 Q 171 -817 208.5 -784.5 Q 246 -752 276 -712.5 Q 306 -673 327 -628 Q 348 -583 361 -535.5 Q 374 -488 379.5 -438.5 Q 385 -389 385 -340 Q 385 -291 379.5 -241.5 Q 374 -192 361 -144.5 Q 348 -97 327 -52 Q 306 -7 276 32.5 Q 246 72 208.5 104.5 Q 171 137 128 161 Z " id="path94"/>
<path d="M 500 -30 L 64 -299 L 64 -381 L 500 -650 L 568 -608 L 131 -340 L 568 -72 Z " id="path95"/>
<path d="M 0 -30 L -68 -72 L 0 -113 L 369 -340 L -68 -608 L 0 -650 L 436 -381 L 436 -299 Z " id="path96"/>
<path d="M 270 -542 L 92 -755 L 160 -802 L 325 -581 Z " id="path97"/>
<path d="M 49 -18 L 82 -193 L 7 -193 L 7 -263 L 95 -263 L 135 -472 L 51 -472 L 51 -542 L 148 -542 L 181 -717 L 259 -717 L 226 -542 L 340 -542 L 373 -717 L 451 -717 L 418 -542 L 493 -542 L 493 -472 L 405 -472 L 365 -263 L 449 -263 L 449 -193 L 352 -193 L 319 -18 L 241 -18 L 274 -193 L 160 -193 L 127 -18 Z M 173 -263 L 287 -263 L 327 -472 L 213 -472 Z " id="path98"/>
<path d="M 106 -450 L 39 -493 L 207 -724 L 293 -724 L 377 -608 L 461 -493 L 394 -450 L 250 -661 Z " id="path99"/>
<path d="M 433 77 L 250 77 Q 222 77 194 72.5 Q 166 68 140 56.5 Q 114 45 92.5 26 Q 71 7 57 -17.5 Q 43 -42 37.5 -70 Q 32 -98 32 -126 L 32 -554 Q 32 -582 37.5 -610 Q 43 -638 57 -662.5 Q 71 -687 92.5 -706 Q 114 -725 139.5 -736.5 Q 165 -748 193.5 -752.5 Q 222 -757 250 -757 Q 278 -757 306.5 -752.5 Q 335 -748 360.5 -736.5 Q 386 -725 407.5 -706 Q 429 -687 443 -662.5 Q 457 -638 462.5 -610 Q 468 -582 468 -554 L 468 -186 Q 468 -166 461 -147.5 Q 454 -129 439 -116.5 Q 424 -104 405 -99.5 Q 386 -95 367 -95 L 250 -95 Q 232 -95 214 -99.5 Q 196 -104 182 -115.5 Q 168 -127 161.5 -144.5 Q 155 -162 155 -180 L 155 -459 Q 155 -478 161 -496.5 Q 167 -515 180.5 -528 Q 194 -541 212.5 -546.5 Q 231 -552 250 -552 Q 269 -552 287.5 -546.5 Q 306 -541 319.5 -528 Q 333 -515 339 -496.5 Q 345 -478 345 -459 L 345 -155 L 367 -155 Q 373 -155 379.5 -157 Q 386 -159 391 -163 Q 396 -167 398 -173 Q 400 -179 400 -186 L 400 -554 Q 400 -573 396.5 -592 Q 393 -611 383 -628 Q 373 -645 358 -658 Q 343 -671 325.5 -678.5 Q 308 -686 288.5 -689 Q 269 -692 250 -692 Q 231 -692 211.5 -689 Q 192 -686 174.5 -678.5 Q 157 -671 142 -658 Q 127 -645 117 -628 Q 107 -611 103.5 -592 Q 100 -573 100 -554 L 100 -126 Q 100 -107 103.5 -87.5 Q 107 -68 117 -51.5 Q 127 -35 142 -22 Q 157 -9 174.5 -1.5 Q 192 6 211.5 9 Q 231 12 250 12 L 433 12 Z M 250 -155 L 278 -155 L 278 -459 Q 278 -465 276.5 -471 Q 275 -477 271.5 -482 Q 268 -487 262 -489.5 Q 256 -492 250 -492 Q 244 -492 238 -489.5 Q 232 -487 228.5 -482 Q 225 -477 223.5 -471 Q 222 -465 222 -459 L 222 -180 Q 222 -175 224 -170 Q 226 -165 230 -161.5 Q 234 -158 239.5 -156.5 Q 245 -155 250 -155 Z " id="path100"/>
<path d="M 361 143 L 59 -823 L 139 -823 L 441 143 Z " id="path101"/>
<path d="M 226 8 Q 201 8 177 2 Q 153 -4 133 -18 Q 113 -32 98 -51.5 Q 83 -71 74 -94 Q 65 -117 60 -141 Q 55 -165 55 -190 Q 55 -219 63 -248.5 Q 71 -278 86 -304 Q 101 -330 121 -352 Q 141 -374 163 -394 Q 148 -417 134 -439.5 Q 120 -462 108.5 -486 Q 97 -510 89.5 -536.5 Q 82 -563 82 -589 Q 82 -619 91.5 -648.5 Q 101 -678 121.5 -700.5 Q 142 -723 171 -733 Q 200 -743 230 -743 Q 260 -743 289.5 -733 Q 319 -723 339 -700.5 Q 359 -678 368.5 -648.5 Q 378 -619 378 -589 Q 378 -558 368.5 -528 Q 359 -498 343 -472 Q 327 -446 305 -423.5 Q 283 -401 260 -381 Q 264 -375 267.5 -368.5 Q 271 -362 275 -356 L 360 -210 L 399 -311 L 481 -311 L 421 -155 Q 418 -148 415.5 -140.5 Q 413 -133 410 -126 L 483 0 L 396 0 L 365 -53 L 357 -66 Q 340 -38 313 -18.5 Q 286 1 254 6 Q 247 7 240 7.5 Q 233 8 226 8 Z M 220 -444 Q 235 -458 249.5 -474 Q 264 -490 275.5 -508 Q 287 -526 293.5 -546.5 Q 300 -567 300 -588 Q 300 -603 296.5 -618.5 Q 293 -634 284 -647 Q 275 -660 260.5 -666.5 Q 246 -673 230 -673 Q 215 -673 200.5 -666 Q 186 -659 177 -646.5 Q 168 -634 164 -618.5 Q 160 -603 160 -587 Q 160 -568 165.5 -548.5 Q 171 -529 179.5 -511.5 Q 188 -494 198.5 -477 Q 209 -460 220 -444 Z M 236 -62 Q 250 -62 263.5 -67 Q 277 -72 288 -80 Q 299 -88 308 -99 Q 317 -110 324 -123 L 208 -320 Q 206 -323 204.5 -325.5 Q 203 -328 202 -330 Q 187 -316 174.5 -300.5 Q 162 -285 152.5 -267.5 Q 143 -250 138 -230 Q 133 -210 133 -190 Q 133 -175 136 -159.5 Q 139 -144 144 -129.5 Q 149 -115 157.5 -102 Q 166 -89 178.5 -79.5 Q 191 -70 206 -66 Q 221 -62 236 -62 Z " id="path102"/>
<path d="M 211 -221 Q 211 -245 213 -269 Q 215 -293 221.5 -316.5 Q 228 -340 240 -361.5 Q 252 -383 266.5 -402.5 Q 281 -422 297 -440 Q 313 -458 327 -478 Q 341 -498 349.5 -521 Q 358 -544 358 -568 Q 358 -589 350.5 -610 Q 343 -631 327.5 -645.5 Q 312 -660 291 -666.5 Q 270 -673 249 -673 Q 228 -673 207 -667 Q 186 -661 170.5 -646.5 Q 155 -632 147.5 -611.5 Q 140 -591 140 -569 L 140 -565 L 62 -565 L 62 -572 Q 62 -596 68 -619.5 Q 74 -643 86 -663.5 Q 98 -684 116 -700 Q 134 -716 156 -726 Q 178 -736 201.5 -739.5 Q 225 -743 249 -743 Q 273 -743 297 -739 Q 321 -735 343 -725 Q 365 -715 383 -698.5 Q 401 -682 413 -661 Q 425 -640 430.5 -616 Q 436 -592 436 -568 Q 436 -544 430.5 -520 Q 425 -496 415.5 -474 Q 406 -452 393 -431.5 Q 380 -411 365 -392 Q 350 -373 334 -354.5 Q 318 -336 307 -314.5 Q 296 -293 292.5 -269 Q 289 -245 289 -221 Z M 250 8 Q 236 8 222 4 Q 208 0 198 -10.5 Q 188 -21 184 -34.5 Q 180 -48 180 -63 Q 180 -77 184 -90.5 Q 188 -104 198 -114.5 Q 208 -125 222 -129 Q 236 -133 250 -133 Q 264 -133 278 -129 Q 292 -125 302 -114.5 Q 312 -104 316.5 -90.5 Q 321 -77 321 -63 Q 321 -48 316.5 -34.5 Q 312 -21 302 -10.5 Q 292 0 278 4 Q 264 8 250 8 Z " id="path103"/>
<path d="M 213 -442 Q 210 -524 208.5 -606.5 Q 207 -689 207 -772 L 293 -772 Q 293 -689 291.5 -606.5 Q 290 -524 287 -442 Z " id="path104"/>
<path d="M 113 -442 Q 110 -524 108.5 -606.5 Q 107 -689 107 -772 L 193 -772 Q 193 -689 191.5 -606.5 Q 190 -524 187 -442 Z M 313 -442 Q 310 -524 308.5 -606.5 Q 307 -689 307 -772 L 393 -772 Q 393 -689 391.5 -606.5 Q 390 -524 387 -442 Z " id="path105"/>
<path d="M 250 8 Q 234 8 219 3.5 Q 204 -1 192.5 -12.5 Q 181 -24 176.5 -39 Q 172 -54 172 -70 Q 172 -86 176.5 -101 Q 181 -116 192.5 -127.5 Q 204 -139 219 -143.5 Q 234 -148 250 -148 Q 266 -148 281 -143.5 Q 296 -139 307.5 -127.5 Q 319 -116 323.5 -101 Q 328 -86 328 -70 Q 328 -54 323.5 -39 Q 319 -24 307.5 -12.5 Q 296 -1 281 3.5 Q 266 8 250 8 Z M 250 -372 Q 234 -372 219 -376.5 Q 204 -381 192.5 -392.5 Q 181 -404 176.5 -419 Q 172 -434 172 -450 Q 172 -466 176.5 -481 Q 181 -496 192.5 -507.5 Q 204 -519 219 -523.5 Q 234 -528 250 -528 Q 266 -528 281 -523.5 Q 296 -519 307.5 -507.5 Q 319 -496 323.5 -481 Q 328 -466 328 -450 Q 328 -434 323.5 -419 Q 319 -404 307.5 -392.5 Q 296 -381 281 -376.5 Q 266 -372 250 -372 Z " id="path106"/>
<path d="M 229 215 L 229 -334 Q 205 -334 180.5 -340 Q 156 -346 135.5 -360 Q 115 -374 100 -394 Q 85 -414 76 -437 Q 67 -460 63.5 -485 Q 60 -510 60 -534 Q 60 -559 63.5 -584 Q 67 -609 76 -632 Q 85 -655 100 -675 Q 115 -695 135.5 -708.5 Q 156 -722 180.5 -728.5 Q 205 -735 229 -735 L 440 -735 L 440 215 L 365 215 L 365 -668 L 304 -668 L 304 215 Z " id="path107"/>
<path d="M 199 0 L 199 -403 L 120 -403 L 120 -473 L 199 -473 L 199 -580 Q 199 -601 202.5 -621.5 Q 206 -642 215.5 -660.5 Q 225 -679 240 -694 Q 255 -709 273.5 -718.5 Q 292 -728 312.5 -731.5 Q 333 -735 354 -735 L 436 -735 L 436 -665 L 354 -665 Q 337 -665 321.5 -659.5 Q 306 -654 295.5 -641.5 Q 285 -629 281 -613 Q 277 -597 277 -580 L 277 0 Z " id="path108"/>
<path d="M 64 0 L 64 -579 Q 64 -601 68.5 -623.5 Q 73 -646 83.5 -666 Q 94 -686 111 -701 Q 128 -716 148 -726 Q 168 -736 190.5 -739.5 Q 213 -743 236 -743 Q 268 -743 300 -733 Q 332 -723 355 -699.5 Q 378 -676 387.5 -644 Q 397 -612 397 -579 Q 397 -558 391 -537 Q 385 -516 372.5 -499 Q 360 -482 343 -469 Q 326 -456 308 -444 Q 298 -438 288 -430.5 Q 278 -423 270.5 -414 Q 263 -405 258 -393.5 Q 253 -382 253 -370 Q 253 -350 265.5 -334 Q 278 -318 295 -308.5 Q 312 -299 330.5 -291 Q 349 -283 365.5 -273 Q 382 -263 396.5 -249.5 Q 411 -236 422 -220 Q 433 -204 438.5 -185 Q 444 -166 444 -146 Q 444 -125 438 -104.5 Q 432 -84 420.5 -66 Q 409 -48 392 -35 Q 375 -22 355.5 -14 Q 336 -6 315 -3 Q 294 0 273 0 L 176 0 L 176 -70 L 273 -70 Q 291 -70 308 -74 Q 325 -78 338 -89 Q 351 -100 359 -116.5 Q 367 -133 367 -150 Q 367 -169 355.5 -186 Q 344 -203 327.5 -213 Q 311 -223 293 -230.5 Q 275 -238 258 -247.5 Q 241 -257 226 -269.5 Q 211 -282 199.5 -298 Q 188 -314 182 -332.5 Q 176 -351 176 -371 Q 176 -387 180.5 -403.5 Q 185 -420 193.5 -434 Q 202 -448 213 -460.5 Q 224 -473 237 -483 Q 250 -493 264.5 -501.5 Q 279 -510 292 -520.5 Q 305 -531 312 -546.5 Q 319 -562 319 -579 Q 319 -597 314.5 -614.5 Q 310 -632 299 -646 Q 288 -660 270.5 -666.5 Q 253 -673 235 -673 Q 216 -673 198 -667 Q 180 -661 166.5 -648 Q 153 -635 147.5 -616.5 Q 142 -598 142 -579 L 142 0 Z " id="path109"/>
<path d="M 250 8 Q 222 8 194 1.5 Q 166 -5 142 -20.5 Q 118 -36 101 -59.5 Q 84 -83 73.5 -109.5 Q 63 -136 59.5 -164 Q 56 -192 56 -220 Q 56 -249 59.5 -277 Q 63 -305 73 -331.5 Q 83 -358 100 -381 Q 117 -404 140.5 -419.5 Q 164 -435 192 -442 Q 220 -449 248 -449 Q 269 -449 290.5 -445 Q 312 -441 331 -431 Q 318 -454 304.5 -477 Q 291 -500 278 -524 L 111 -478 L 92 -540 L 247 -583 L 166 -735 L 252 -735 L 322 -603 L 408 -626 L 427 -564 L 353 -544 Q 372 -509 390.5 -474.5 Q 409 -440 422 -403 Q 435 -366 439.5 -326.5 Q 444 -287 444 -248 L 444 -221 Q 444 -192 440 -164 Q 436 -136 426 -109.5 Q 416 -83 399 -60 Q 382 -37 358 -21 Q 334 -5 306 1.5 Q 278 8 250 8 Z M 250 -62 Q 269 -62 286.5 -68.5 Q 304 -75 318.5 -86.5 Q 333 -98 343 -113.5 Q 353 -129 358.5 -147 Q 364 -165 365 -183.5 Q 366 -202 366 -220 Q 366 -239 364 -257.5 Q 362 -276 356.5 -293.5 Q 351 -311 342 -327.5 Q 333 -344 318.5 -356 Q 304 -368 286 -373.5 Q 268 -379 250 -379 Q 231 -379 213 -373.5 Q 195 -368 181 -356 Q 167 -344 157.5 -327.5 Q 148 -311 143 -293.5 Q 138 -276 136 -257.5 Q 134 -239 134 -221 Q 134 -202 136 -183.5 Q 138 -165 143 -147.5 Q 148 -130 157.5 -113.5 Q 167 -97 181 -85 Q 195 -73 213 -67.5 Q 231 -62 250 -62 Z " id="path110"/>
<path d="M 64 215 L 64 -735 L 142 -735 L 142 -429 Q 150 -450 163 -469.5 Q 176 -489 194.5 -502.5 Q 213 -516 235.5 -522 Q 258 -528 281 -528 Q 306 -528 330.5 -521 Q 355 -514 375 -499 Q 395 -484 408.5 -463 Q 422 -442 430 -418.5 Q 438 -395 441 -370 Q 444 -345 444 -320 L 444 -200 Q 444 -175 441 -150 Q 438 -125 430 -101.5 Q 422 -78 408.5 -57 Q 395 -36 375 -21 Q 355 -6 330.5 1 Q 306 8 281 8 Q 258 8 235.5 2 Q 213 -4 194.5 -17.5 Q 176 -31 163 -50.5 Q 150 -70 142 -91 L 142 215 Z M 251 -62 Q 268 -62 284.5 -66 Q 301 -70 315 -79.5 Q 329 -89 339.5 -103 Q 350 -117 356 -133 Q 362 -149 364 -166 Q 366 -183 366 -200 L 366 -320 Q 366 -337 364 -354 Q 362 -371 356 -387 Q 350 -403 339.5 -417 Q 329 -431 315 -440.5 Q 301 -450 284.5 -454 Q 268 -458 251 -458 Q 234 -458 217.5 -454 Q 201 -450 188 -440 Q 175 -430 165.5 -415.5 Q 156 -401 151 -385.5 Q 146 -370 144 -353.5 Q 142 -337 142 -320 L 142 -200 Q 142 -183 144 -166.5 Q 146 -150 151 -134.5 Q 156 -119 165.5 -104.5 Q 175 -90 188 -80 Q 201 -70 217.5 -66 Q 234 -62 251 -62 Z " id="path111"/>
<path d="M 96 0 L 96 -735 L 444 -735 L 444 -665 L 174 -665 L 174 0 Z " id="path112"/>
<path d="M 44 0 L 205 -735 L 295 -735 L 349 -490 L 456 0 Z M 138 -70 L 362 -70 L 276 -490 Q 269 -522 262.5 -554 Q 256 -586 250 -618 Q 244 -586 237.5 -554 Q 231 -522 224 -490 Z " id="path113"/>
<path d="M 44 0 L 205 -735 L 295 -735 L 349 -490 L 456 0 L 376 0 L 276 -490 Q 269 -522 262.5 -554 Q 256 -586 250 -618 Q 244 -586 237.5 -554 Q 231 -522 224 -490 L 124 0 Z " id="path114"/>
<path d="M 220 8 Q 195 8 169.5 2 Q 144 -4 123 -19 Q 102 -34 87 -55 Q 72 -76 63 -100 Q 54 -124 51 -149 Q 48 -174 48 -200 L 48 -320 Q 48 -346 51 -371 Q 54 -396 63 -420 Q 72 -444 87 -465 Q 102 -486 123 -501 Q 144 -516 169.5 -522 Q 195 -528 220 -528 Q 244 -528 266.5 -517.5 Q 289 -507 305.5 -489.5 Q 322 -472 334 -451 Q 346 -430 355 -408 Q 359 -436 363.5 -464 Q 368 -492 372 -520 L 450 -520 Q 437 -456 424.5 -391.5 Q 412 -327 398 -263 Q 413 -198 425.5 -132 Q 438 -66 452 0 L 374 0 Q 370 -28 365.5 -56.5 Q 361 -85 356 -113 L 356 -118 Q 347 -95 335 -73 Q 323 -51 306.5 -32.5 Q 290 -14 267.5 -3 Q 245 8 220 8 Z M 220 -62 Q 241 -62 257.5 -75.5 Q 274 -89 284 -107 Q 294 -125 301 -144.5 Q 308 -164 313.5 -183.5 Q 319 -203 323.5 -223.5 Q 328 -244 332 -264 Q 328 -283 323.5 -302.5 Q 319 -322 313.5 -341.5 Q 308 -361 301 -379.5 Q 294 -398 283.5 -415 Q 273 -432 256.5 -445 Q 240 -458 220 -458 Q 205 -458 189.5 -452.5 Q 174 -447 163 -436.5 Q 152 -426 144.5 -411.5 Q 137 -397 133 -382 Q 129 -367 127.5 -351.5 Q 126 -336 126 -320 L 126 -200 Q 126 -184 127.5 -168.5 Q 129 -153 133 -138 Q 137 -123 144.5 -108.5 Q 152 -94 163 -83.5 Q 174 -73 189.5 -67.5 Q 205 -62 220 -62 Z " id="path115"/>
<path d="M 250 8 Q 223 8 196 2.5 Q 169 -3 146 -16 Q 123 -29 104.5 -49.5 Q 86 -70 75 -94.5 Q 64 -119 60 -146 Q 56 -173 56 -200 L 56 -272 Q 56 -297 60.5 -321 Q 65 -345 76 -366 Q 87 -387 104.5 -404.5 Q 122 -422 144 -433 Q 127 -443 114 -458.5 Q 101 -474 93 -492 Q 85 -510 82 -529.5 Q 79 -549 79 -569 Q 79 -591 83 -613.5 Q 87 -636 96 -656.5 Q 105 -677 120 -694 Q 135 -711 154.5 -722 Q 174 -733 196 -738 Q 218 -743 240 -743 Q 285 -743 327.5 -728.5 Q 370 -714 408 -692 L 369 -632 Q 355 -640 340 -647 Q 325 -654 310 -660 Q 295 -666 279 -669.5 Q 263 -673 247 -673 Q 227 -673 208.5 -666 Q 190 -659 178 -644 Q 166 -629 161 -609.5 Q 156 -590 156 -571 Q 156 -554 160 -537.5 Q 164 -521 173.5 -507.5 Q 183 -494 199 -487 Q 215 -480 231 -476.5 Q 247 -473 263.5 -470 Q 280 -467 296.5 -463 Q 313 -459 328.5 -453.5 Q 344 -448 359 -440.5 Q 374 -433 387 -422.5 Q 400 -412 410.5 -399 Q 421 -386 428 -370.5 Q 435 -355 438.5 -339 Q 442 -323 443 -306 Q 444 -289 444 -272 L 444 -200 Q 444 -173 440 -146 Q 436 -119 425 -94.5 Q 414 -70 395.5 -49.5 Q 377 -29 354 -16 Q 331 -3 304 2.5 Q 277 8 250 8 Z M 250 -62 Q 267 -62 284 -66 Q 301 -70 315 -79.5 Q 329 -89 339.5 -103 Q 350 -117 356 -133 Q 362 -149 364 -166 Q 366 -183 366 -200 L 366 -272 Q 366 -293 363 -313.5 Q 360 -334 348.5 -351 Q 337 -368 319.5 -379 Q 302 -390 282 -395.5 Q 262 -401 242 -404 Q 222 -407 202 -412 Q 183 -403 169 -387.5 Q 155 -372 147 -353 Q 139 -334 136.5 -313.5 Q 134 -293 134 -272 L 134 -200 Q 134 -183 136 -166 Q 138 -149 144 -133 Q 150 -117 160.5 -103 Q 171 -89 185 -79.5 Q 199 -70 216 -66 Q 233 -62 250 -62 Z " id="path116"/>
<path d="M 333 8 Q 312 8 291.5 3 Q 271 -2 253.5 -13.5 Q 236 -25 223 -42 Q 210 -59 202.5 -78.5 Q 195 -98 192.5 -118.5 Q 190 -139 190 -160 L 190 -520 L 268 -520 L 268 -160 Q 268 -143 270.5 -126.5 Q 273 -110 280.5 -95.5 Q 288 -81 302 -71.5 Q 316 -62 333 -62 Q 348 -62 362 -70.5 Q 376 -79 383.5 -92.5 Q 391 -106 394.5 -122 Q 398 -138 398 -153 L 398 -157 L 475 -157 L 475 -150 Q 475 -130 471.5 -110.5 Q 468 -91 460 -72.5 Q 452 -54 439 -38 Q 426 -22 409 -11.5 Q 392 -1 372.5 3.5 Q 353 8 333 8 Z " id="path117"/>
<path d="M 476 8 Q 453 8 429.5 3 Q 406 -2 387 -16 Q 368 -30 355 -50 Q 342 -70 333 -92 Q 324 -114 320 -137.5 Q 316 -161 310 -184 L 249 -409 L 132 0 L 51 0 L 210 -533 L 187 -614 Q 184 -625 180 -635 Q 176 -645 168.5 -652.5 Q 161 -660 150 -662.5 Q 139 -665 129 -665 L 76 -665 L 76 -735 L 129 -735 Q 152 -735 175 -731 Q 198 -727 216.5 -713 Q 235 -699 245 -677.5 Q 255 -656 262 -633 L 384 -202 Q 388 -191 390.5 -180 Q 393 -169 395.5 -157.5 Q 398 -146 400.5 -134.5 Q 403 -123 407.5 -112.5 Q 412 -102 418 -92 Q 424 -82 433 -74.5 Q 442 -67 453.5 -64.5 Q 465 -62 476 -62 Z " id="path118"/>
<path d="M 250 215 L 250 145 L 279 145 Q 294 145 309.5 141 Q 325 137 336.5 127 Q 348 117 353 102.5 Q 358 88 358 73 Q 358 54 349 37 Q 340 20 323.5 11.5 Q 307 3 288 1.5 Q 269 -0 250.5 -0.5 Q 232 -1 213.5 -4 Q 195 -7 177.5 -12.5 Q 160 -18 143 -27 Q 126 -36 112 -48 Q 98 -60 87 -75.5 Q 76 -91 69.5 -108.5 Q 63 -126 60 -144.5 Q 57 -163 57 -181 Q 57 -214 67.5 -246 Q 78 -278 99.5 -303 Q 121 -328 150 -344.5 Q 179 -361 211 -370 Q 184 -379 160 -394 Q 136 -409 118.5 -430.5 Q 101 -452 92.5 -479 Q 84 -506 84 -534 Q 84 -554 89 -574.5 Q 94 -595 105 -612 Q 116 -629 132 -642 Q 148 -655 166 -665 L 64 -665 L 64 -735 L 436 -735 L 436 -665 L 343 -665 Q 322 -665 301 -663 Q 280 -661 260 -655 Q 240 -649 221 -638.5 Q 202 -628 188.5 -612 Q 175 -596 168.5 -576 Q 162 -556 162 -535 Q 162 -513 168.5 -493 Q 175 -473 189 -457 Q 203 -441 221.5 -430.5 Q 240 -420 260 -414.5 Q 280 -409 301 -406.5 Q 322 -404 343 -404 L 380 -404 L 380 -334 L 343 -334 Q 319 -334 294.5 -331.5 Q 270 -329 247 -322 Q 224 -315 202.5 -302.5 Q 181 -290 165.5 -272 Q 150 -254 142.5 -230 Q 135 -206 135 -182 Q 135 -160 143 -138.5 Q 151 -117 167.5 -102 Q 184 -87 205.5 -79.5 Q 227 -72 249.5 -70.5 Q 272 -69 294.5 -68.5 Q 317 -68 338.5 -61.5 Q 360 -55 379 -42.5 Q 398 -30 411.5 -12 Q 425 6 430.5 28 Q 436 50 436 72 Q 436 103 425.5 132 Q 415 161 392 180.5 Q 369 200 339 207.5 Q 309 215 279 215 Z " id="path119"/>
<path d="M 107 0 L 107 -450 L 43 -450 L 43 -520 L 457 -520 L 457 -450 L 393 -450 L 393 0 L 316 0 L 316 -450 L 184 -450 L 184 0 Z " id="path120"/>
<path d="M 211 0 L 211 -450 L 64 -450 L 64 -520 L 436 -520 L 436 -450 L 289 -450 L 289 0 Z " id="path121"/>
<path d="M 48 215 L 210 -153 L 149 -341 Q 145 -353 141.5 -365.5 Q 138 -378 134.5 -390 Q 131 -402 125.5 -414 Q 120 -426 111 -435 Q 102 -444 89.5 -447 Q 77 -450 64 -450 L 64 -520 Q 85 -520 105.5 -517 Q 126 -514 143.5 -503.5 Q 161 -493 173 -475.5 Q 185 -458 194 -439.5 Q 203 -421 210 -401.5 Q 217 -382 223 -362 L 256 -261 L 367 -520 L 452 -520 L 290 -152 L 351 36 Q 355 48 358.5 60.5 Q 362 73 365.5 85 Q 369 97 374.5 109 Q 380 121 389 130 Q 398 139 410.5 142 Q 423 145 436 145 L 436 215 Q 415 215 394.5 212 Q 374 209 356.5 198.5 Q 339 188 327 170.5 Q 315 153 306 134.5 Q 297 116 290 96.5 Q 283 77 277 57 L 244 -44 L 133 215 Z " id="path122"/>
<path d="M 250 8 Q 222 8 194 1.5 Q 166 -5 142 -20.5 Q 118 -36 101 -59.5 Q 84 -83 73.5 -109.5 Q 63 -136 59.5 -164 Q 56 -192 56 -220 Q 56 -249 59.5 -277 Q 63 -305 73 -331.5 Q 83 -358 100 -381 Q 117 -404 140.5 -419.5 Q 164 -435 192 -442 Q 220 -449 248 -449 Q 278 -449 307 -440 Q 336 -431 358 -411 Q 346 -455 325 -496.5 Q 304 -538 273.5 -572 Q 243 -606 203.5 -630.5 Q 164 -655 120 -667 L 141 -735 Q 191 -722 236 -695 Q 281 -668 316.5 -630.5 Q 352 -593 377.5 -547.5 Q 403 -502 418.5 -452.5 Q 434 -403 439 -351.5 Q 444 -300 444 -248 L 444 -221 Q 444 -192 440 -164 Q 436 -136 426 -109.5 Q 416 -83 399 -60 Q 382 -37 358 -21 Q 334 -5 306 1.5 Q 278 8 250 8 Z M 250 -62 Q 269 -62 286.5 -68.5 Q 304 -75 318.5 -86.5 Q 333 -98 343 -113.5 Q 353 -129 358.5 -147 Q 364 -165 365 -183.5 Q 366 -202 366 -220 Q 366 -239 364 -257.5 Q 362 -276 356.5 -293.5 Q 351 -311 342 -327.5 Q 333 -344 318.5 -356 Q 304 -368 286 -373.5 Q 268 -379 250 -379 Q 231 -379 213 -373.5 Q 195 -368 181 -356 Q 167 -344 157.5 -327.5 Q 148 -311 143 -293.5 Q 138 -276 136 -257.5 Q 134 -239 134 -221 Q 134 -202 136 -183.5 Q 138 -165 143 -147.5 Q 148 -130 157.5 -113.5 Q 167 -97 181 -85 Q 195 -73 213 -67.5 Q 231 -62 250 -62 Z " id="path123"/>
<path d="M 24 0 L 150 -402 L 24 -735 L 106 -735 L 211 -457 L 211 -735 L 289 -735 L 289 -457 L 394 -735 L 476 -735 L 350 -402 L 476 0 L 395 0 L 375 -65 L 306 -285 L 289 -239 L 289 0 L 211 0 L 211 -239 L 194 -285 L 105 0 Z " id="path124"/>
<path d="M 252 8 Q 227 8 201.5 3.5 Q 176 -1 152.5 -12 Q 129 -23 110 -41 Q 91 -59 78.5 -81.5 Q 66 -104 60 -129 Q 54 -154 54 -180 L 132 -180 Q 132 -156 140 -133 Q 148 -110 165 -93.5 Q 182 -77 205.5 -69.5 Q 229 -62 252 -62 Q 270 -62 288 -66 Q 306 -70 320.5 -80.5 Q 335 -91 346 -105.5 Q 357 -120 363 -136.5 Q 369 -153 371.5 -171 Q 374 -189 374 -207 Q 374 -225 371.5 -242.5 Q 369 -260 362.5 -276.5 Q 356 -293 344.5 -307 Q 333 -321 318 -330.5 Q 303 -340 285.5 -343.5 Q 268 -347 250 -347 L 194 -347 L 194 -417 L 250 -417 Q 274 -417 296.5 -426 Q 319 -435 333.5 -453.5 Q 348 -472 353 -495.5 Q 358 -519 358 -543 Q 358 -566 353 -590 Q 348 -614 334.5 -633.5 Q 321 -653 299 -663 Q 277 -673 253 -673 Q 231 -673 210 -665.5 Q 189 -658 175 -641.5 Q 161 -625 154.5 -603.5 Q 148 -582 148 -561 L 148 -559 L 70 -559 L 70 -562 Q 70 -586 75.5 -610 Q 81 -634 92 -655.5 Q 103 -677 120 -694.5 Q 137 -712 158.5 -723 Q 180 -734 204.5 -738.5 Q 229 -743 253 -743 Q 278 -743 303.5 -738 Q 329 -733 351 -720 Q 373 -707 390 -687 Q 407 -667 417.5 -644 Q 428 -621 432 -595.5 Q 436 -570 436 -544 Q 436 -520 432 -495.5 Q 428 -471 416.5 -449.5 Q 405 -428 386.5 -411 Q 368 -394 346 -383 Q 372 -373 393 -354.5 Q 414 -336 428 -312 Q 442 -288 447 -260.5 Q 452 -233 452 -205 Q 452 -178 447.5 -150.5 Q 443 -123 431.5 -97.5 Q 420 -72 401.5 -51 Q 383 -30 359 -16.5 Q 335 -3 307.5 2.5 Q 280 8 252 8 Z " id="path125"/>
<path d="M 76 0 L 76 -70 L 129 -70 Q 139 -70 150 -72.5 Q 161 -75 168.5 -83 Q 176 -91 180 -101 Q 184 -111 187 -121 L 210 -200 L 51 -735 L 132 -735 L 251 -320 L 368 -735 L 449 -735 L 262 -102 Q 255 -79 245 -58 Q 235 -37 216.5 -22.5 Q 198 -8 175 -4 Q 152 -0 129 0 Z " id="path126"/>
<path d="M 40 0 L 190 -309 Q 157 -318 129.5 -339 Q 102 -360 85 -389 Q 68 -418 62 -452 Q 56 -486 56 -520 Q 56 -547 59.5 -574 Q 63 -601 73.5 -626 Q 84 -651 101 -672.5 Q 118 -694 141 -708.5 Q 164 -723 190.5 -729 Q 217 -735 244 -735 L 436 -735 L 436 0 L 358 0 L 358 -304 L 272 -304 L 125 0 Z M 244 -374 L 358 -374 L 358 -665 L 244 -665 Q 227 -665 210 -660 Q 193 -655 179.5 -644.5 Q 166 -634 157 -619 Q 148 -604 143 -587.5 Q 138 -571 136 -554 Q 134 -537 134 -520 Q 134 -502 136 -485 Q 138 -468 143 -451.5 Q 148 -435 157 -420 Q 166 -405 179.5 -394.5 Q 193 -384 210 -379 Q 227 -374 244 -374 Z " id="path127"/>
<path d="M 24 0 L 143 -283 L 24 -520 L 110 -520 L 211 -318 L 211 -520 L 289 -520 L 289 -318 L 390 -520 L 476 -520 L 357 -283 L 476 0 L 393 0 L 311 -193 L 289 -148 L 289 0 L 211 0 L 211 -148 L 189 -193 L 107 0 Z " id="path128"/>
<path d="M 253 8 Q 229 8 206 5.5 Q 183 3 161 -4.5 Q 139 -12 119 -24.5 Q 99 -37 84.5 -55.5 Q 70 -74 62 -96.5 Q 54 -119 54 -142 L 54 -143 L 132 -143 Q 132 -122 144 -105 Q 156 -88 174 -78 Q 192 -68 212 -65 Q 232 -62 253 -62 Q 274 -62 295 -65.5 Q 316 -69 334.5 -80 Q 353 -91 363.5 -110 Q 374 -129 374 -150 Q 374 -165 369.5 -178.5 Q 365 -192 355 -202 Q 345 -212 332.5 -218.5 Q 320 -225 306 -229 Q 292 -233 278 -234 Q 264 -235 250 -235 L 194 -235 L 194 -305 L 250 -305 Q 262 -305 274.5 -306.5 Q 287 -308 299 -311 Q 311 -314 322 -320 Q 333 -326 341.5 -335 Q 350 -344 354 -356 Q 358 -368 358 -380 Q 358 -399 349 -415.5 Q 340 -432 324 -441.5 Q 308 -451 289.5 -454.5 Q 271 -458 253 -458 Q 235 -458 217 -455 Q 199 -452 183 -442.5 Q 167 -433 157.5 -417 Q 148 -401 148 -383 L 148 -382 L 70 -382 L 70 -384 Q 70 -406 77 -427 Q 84 -448 97 -465.5 Q 110 -483 128 -495.5 Q 146 -508 167 -515.5 Q 188 -523 209.5 -525.5 Q 231 -528 253 -528 Q 275 -528 297 -525.5 Q 319 -523 340 -515.5 Q 361 -508 379.5 -495 Q 398 -482 411 -464.5 Q 424 -447 430 -425 Q 436 -403 436 -381 Q 436 -363 431.5 -345.5 Q 427 -328 416.5 -313.5 Q 406 -299 391.5 -288.5 Q 377 -278 361 -271 Q 380 -264 397.5 -253 Q 415 -242 428 -226 Q 441 -210 446.5 -190 Q 452 -170 452 -149 Q 452 -125 445.5 -102 Q 439 -79 424.5 -59.5 Q 410 -40 389.5 -26.5 Q 369 -13 346.5 -5.5 Q 324 2 300 5 Q 276 8 253 8 Z " id="path129"/>
<path d="M 80 0 L 80 -520 L 157 -520 L 157 -278 L 348 -520 L 443 -520 L 256 -283 L 443 0 L 353 0 L 207 -221 L 157 -158 L 157 0 Z " id="path130"/>
<path d="M 16 0 L 16 -70 Q 30 -70 43.5 -76 Q 57 -82 65.5 -93 Q 74 -104 78 -118 Q 82 -132 84.5 -145.5 Q 87 -159 88.5 -173 Q 90 -187 91 -201.5 Q 92 -216 92 -230 Q 92 -244 92 -258 L 92 -520 L 436 -520 L 436 0 L 358 0 L 358 -450 L 170 -450 L 170 -260 Q 170 -238 169.5 -216.5 Q 169 -195 167 -173 Q 165 -151 161 -129.5 Q 157 -108 149.5 -88 Q 142 -68 130 -49.5 Q 118 -31 99.5 -19.5 Q 81 -8 59.5 -4 Q 38 -0 16 0 Z " id="path131"/>
<path d="M 48 0 L 48 -520 L 159 -520 L 250 -129 L 341 -520 L 452 -520 L 452 0 L 374 0 L 374 -104 Q 374 -189 378 -274 Q 382 -359 384 -445 L 280 0 L 220 0 L 116 -445 Q 118 -359 122 -274 Q 126 -189 126 -104 L 126 0 Z " id="path132"/>
<path d="M 64 0 L 64 -520 L 142 -520 L 142 -304 L 358 -304 L 358 -520 L 436 -520 L 436 0 L 358 0 L 358 -234 L 142 -234 L 142 0 Z " id="path133"/>
<path d="M 211 215 L 211 -42 Q 206 -31 199 -21.5 Q 192 -12 182 -5 Q 172 2 160.5 5 Q 149 8 137 8 Q 121 8 105.5 2.5 Q 90 -3 78.5 -14.5 Q 67 -26 59.5 -40.5 Q 52 -55 47.5 -70.5 Q 43 -86 41.5 -102.5 Q 40 -119 40 -135 L 40 -385 Q 40 -401 41.5 -417.5 Q 43 -434 47.5 -449.5 Q 52 -465 59.5 -479.5 Q 67 -494 78.5 -505.5 Q 90 -517 105.5 -522.5 Q 121 -528 137 -528 Q 149 -528 160.5 -525 Q 172 -522 182 -515 Q 192 -508 199 -498.5 Q 206 -489 211 -478 L 211 -735 L 289 -735 L 289 -478 Q 294 -489 301 -498.5 Q 308 -508 318 -515 Q 328 -522 339.5 -525 Q 351 -528 363 -528 Q 379 -528 394.5 -522.5 Q 410 -517 421.5 -505.5 Q 433 -494 440.5 -479.5 Q 448 -465 452.5 -449.5 Q 457 -434 458.5 -417.5 Q 460 -401 460 -385 L 460 -135 Q 460 -119 458.5 -102.5 Q 457 -86 452.5 -70.5 Q 448 -55 440.5 -40.5 Q 433 -26 421.5 -14.5 Q 410 -3 394.5 2.5 Q 379 8 363 8 Q 351 8 339.5 5 Q 328 2 318 -5 Q 308 -12 301 -21.5 Q 294 -31 289 -42 L 289 215 Z M 332 -62 Q 345 -62 355.5 -69 Q 366 -76 372 -87 Q 378 -98 380 -110 Q 382 -122 382 -135 L 382 -385 Q 382 -398 380 -410 Q 378 -422 372 -433 Q 366 -444 355.5 -451 Q 345 -458 332 -458 Q 320 -458 310.5 -450.5 Q 301 -443 296.5 -432 Q 292 -421 290.5 -409 Q 289 -397 289 -385 L 289 -135 Q 289 -123 290.5 -111 Q 292 -99 296.5 -88 Q 301 -77 311 -69.5 Q 321 -62 332 -62 Z M 168 -62 Q 180 -62 189.5 -69.5 Q 199 -77 203.5 -88 Q 208 -99 209.5 -111 Q 211 -123 211 -135 L 211 -385 Q 211 -397 209.5 -409 Q 208 -421 203.5 -432 Q 199 -443 189 -450.5 Q 179 -458 168 -458 Q 155 -458 144.5 -451 Q 134 -444 128 -433 Q 122 -422 120 -410 Q 118 -398 118 -385 L 118 -135 Q 118 -122 120 -110 Q 122 -98 128 -87 Q 134 -76 144.5 -69 Q 155 -62 168 -62 Z " id="path134"/>
<path d="M 358 0 L 358 -190 Q 331 -182 303 -177.5 Q 275 -173 247 -173 Q 221 -173 196 -178 Q 171 -183 148 -194.5 Q 125 -206 107 -225 Q 89 -244 79 -267.5 Q 69 -291 66.5 -316.5 Q 64 -342 64 -368 L 64 -520 L 142 -520 L 142 -368 Q 142 -351 143.5 -334.5 Q 145 -318 151.5 -303 Q 158 -288 170 -276 Q 182 -264 197 -256.5 Q 212 -249 228 -246 Q 244 -243 261 -243 Q 286 -243 310.5 -247.5 Q 335 -252 358 -260 L 358 -520 L 436 -520 L 436 0 Z " id="path135"/>
<path d="M 64 0 L 64 -520 L 142 -520 L 142 -321 L 280 -321 Q 302 -321 323.5 -317.5 Q 345 -314 364.5 -304.5 Q 384 -295 400 -279.5 Q 416 -264 426 -244.5 Q 436 -225 440 -203.5 Q 444 -182 444 -161 Q 444 -139 440 -117.5 Q 436 -96 426 -76.5 Q 416 -57 400 -41.5 Q 384 -26 364.5 -16.5 Q 345 -7 323.5 -3.5 Q 302 0 280 0 Z M 142 -70 L 280 -70 Q 298 -70 315.5 -76 Q 333 -82 345 -95 Q 357 -108 361.5 -125.5 Q 366 -143 366 -161 Q 366 -178 361.5 -195.5 Q 357 -213 345 -226 Q 333 -239 315.5 -245 Q 298 -251 280 -251 L 142 -251 Z " id="path136"/>
<path d="M 374 0 L 374 -520 L 452 -520 L 452 0 Z M 48 0 L 48 -520 L 126 -520 L 126 -321 L 180 -321 Q 200 -321 219.5 -316.5 Q 239 -312 256 -301 Q 273 -290 285.5 -274 Q 298 -258 305.5 -239.5 Q 313 -221 315.5 -201 Q 318 -181 318 -161 Q 318 -140 315.5 -120 Q 313 -100 305.5 -81.5 Q 298 -63 285.5 -47 Q 273 -31 256 -20 Q 239 -9 219.5 -4.5 Q 200 -0 180 0 Z M 126 -70 L 180 -70 Q 195 -70 208.5 -78.5 Q 222 -87 229 -100.5 Q 236 -114 238 -129.5 Q 240 -145 240 -161 Q 240 -176 238 -191.5 Q 236 -207 229 -220.5 Q 222 -234 208.5 -242.5 Q 195 -251 180 -251 L 126 -251 Z " id="path137"/>
<path d="M 40 0 L 177 -203 Q 150 -208 126 -222 Q 102 -236 85.5 -257.5 Q 69 -279 62.5 -306 Q 56 -333 56 -360 Q 56 -382 60 -403.5 Q 64 -425 74 -444 Q 84 -463 100 -478.5 Q 116 -494 135.5 -503.5 Q 155 -513 176.5 -516.5 Q 198 -520 219 -520 L 436 -520 L 436 0 L 358 0 L 358 -200 L 265 -200 L 131 0 Z M 358 -270 L 358 -450 L 219 -450 Q 202 -450 184.5 -444.5 Q 167 -439 155 -425.5 Q 143 -412 138.5 -395 Q 134 -378 134 -360 Q 134 -342 138.5 -325 Q 143 -308 155 -295 Q 167 -282 184.5 -276 Q 202 -270 219 -270 Z " id="path138"/>
<path d="M 838 -161 L 150 -386 L 150 -460 L 838 -685 L 862 -619 L 263 -423 L 862 -228 Z " id="path139"/>
<path d="M 350 7 L -350 7 L -350 -63 L 350 -63 Z " id="path140"/>
<path d="M 383 81 L 310 57 L 617 -761 L 690 -737 Z " id="path141"/>
<path d="M -27 -394 L -436 -394 L -436 -464 L 436 -464 L 436 -394 L 27 -394 L 27 -429 L -27 -429 Z M -436 -216 L -436 -286 L -27 -286 L -27 -251 L 27 -251 L 27 -286 L 436 -286 L 436 -216 Z " id="path142"/>
<path d="M 64 -394 L 64 -464 L 508 -464 L 508 -429 L 473 -429 L 473 -394 Z M 508 -216 L 64 -216 L 64 -286 L 473 -286 L 473 -251 L 508 -251 Z " id="path143"/>
<path d="M 27 -394 L 27 -429 L -8 -429 L -8 -464 L 436 -464 L 436 -394 Z M 436 -216 L -8 -216 L -8 -251 L 27 -251 L 27 -286 L 436 -286 Z " id="path144"/>
<path d="M 64 -394 L 64 -464 L 642 -464 L 642 -394 Z M 642 -216 L 64 -216 L 64 -286 L 642 -286 Z " id="path145"/>
<path d="M 64 -69 L 64 -251 L 142 -251 L 142 -200 L 369 -340 L 142 -480 L 142 -429 L 64 -429 L 64 -611 L 436 -381 L 436 -299 Z " id="path146"/>
<path d="M 64 -305 L 64 -375 L 879 -375 L 879 -305 Z " id="path147"/>
</defs>
<g>
<g data-source-text="ABC.DEF.GHI.JKL.MNO.PQRS.TUV.WXYZ    abc.def.ghi.jkl.mno.pqrs.tuv.wxyz" fill="#dee4e3" transform="translate(180 48.16) rotate(0) scale(0.023999998)">
<use href="#path1" transform="translate(0 0)"/>
<use href="#path2" transform="translate(500 0)"/>
<use href="#path3" transform="translate(1000 0)"/>
<use href="#path4" transform="translate(1500 0)"/>
<use href="#path5" transform="translate(2000 0)"/>
<use href="#path6" transform="translate(2500 0)"/>
<use href="#path7" transform="translate(3000 0)"/>
<use href="#path4" transform="translate(3500 0)"/>
<use href="#path8" transform="translate(4000 0)"/>
<use href="#path9" transform="translate(4500 0)"/>
<use href="#path10" transform="translate(5000 0)"/>
<use href="#path4" transform="translate(5500 0)"/>
<use href="#path11" transform="translate(6000 0)"/>
<use href="#path12" transform="translate(6500 0)"/>
<use href="#path13" transform="translate(7000 0)"/>
<use href="#path4" transform="translate(7500 0)"/>
<use href="#path14" transform="translate(8000 0)"/>
<use href="#path15" transform="translate(8500 0)"/>
<use href="#path16" transform="translate(9000 0)"/>
<use href="#path4" transform="translate(9500 0)"/>
<use href="#path17" transform="translate(10000 0)"/>
<use href="#path18" transform="translate(10500 0)"/>
<use href="#path19" transform="translate(11000 0)"/>
<use href="#path20" transform="translate(11500 0)"/>
<use href="#path4" transform="translate(12000 0)"/>
<use href="#path21" transform="translate(12500 0)"/>
<use href="#path22" transform="translate(13000 0)"/>
<use href="#path23" transform="translate(13500 0)"/>
<use href="#path4" transform="translate(14000 0)"/>
<use href="#path24" transform="translate(14500 0)"/>
<use href="#path25" transform="translate(15000 0)"/>
<use href="#path26" transform="translate(15500 0)"/>
<use href="#path27" transform="translate(16000 0)"/>
<use href="#path28" transform="translate(18500 0)"/>
<use href="#path29" transform="translate(19000 0)"/>
<use href="#path30" transform="translate(19500 0)"/>
<use href="#path4" transform="translate(20000 0)"/>
<use href="#path31" transform="translate(20500 0)"/>
<use href="#path32" transform="translate(21000 0)"/>
<use href="#path33" transform="translate(21500 0)"/>
<use href="#path4" transform="translate(22000 0)"/>
<use href="#path34" transform="translate(22500 0)"/>
<use href="#path35" transform="translate(23000 0)"/>
<use href="#path36" transform="translate(23500 0)"/>
<use href="#path4" transform="translate(24000 0)"/>
<use href="#path37" transform="translate(24500 0)"/>
<use href="#path38" transform="translate(25000 0)"/>
<use href="#path39" transform="translate(25500 0)"/>
<use href="#path4" transform="translate(26000 0)"/>
<use href="#path40" transform="translate(26500 0)"/>
<use href="#path41" transform="translate(27000 0)"/>
<use href="#path42" transform="translate(27500 0)"/>
<use href="#path4" transform="translate(28000 0)"/>
<use href="#path43" transform="translate(28500 0)"/>
<use href="#path44" transform="translate(29000 0)"/>
<use href="#path45" transform="translate(29500 0)"/>
<use href="#path46" transform="translate(30000 0)"/>
<use href="#path4" transform="translate(30500 0)"/>
<use href="#path47" transform="translate(31000 0)"/>
<use href="#path48" transform="translate(31500 0)"/>
<use href="#path49" transform="translate(32000 0)"/>
<use href="#path4" transform="translate(32500.004 0)"/>
<use href="#path50" transform="translate(33000 0)"/>
<use href="#path51" transform="translate(33500 0)"/>
<use href="#path52" transform="translate(34000 0)"/>
<use href="#path53" transform="translate(34500 0)"/>
</g>
<g data-source-text="    " fill="#dee4e3" transform="translate(1020 48.16) rotate(0) scale(0.023999998)"/>
<g data-source-text="&#xA;" fill="#dee4e3" transform="translate(1068 48.16) rotate(0) scale(0.023999998)"/>
<g data-source-text="!iIlL17| coO08BbDQ $5SZ2zs 96m    float il1[]={1-2/3.4,5+6=7/8%90};" fill="#dee4e3" transform="translate(180 85.66) rotate(0) scale(0.023999998)">
<use href="#path54" transform="translate(0 0)"/>
<use href="#path36" transform="translate(500 0)"/>
<use href="#path10" transform="translate(1000 0)"/>
<use href="#path39" transform="translate(1500 0)"/>
<use href="#path13" transform="translate(2000 0)"/>
<use href="#path55" transform="translate(2500 0)"/>
<use href="#path56" transform="translate(3000 0)"/>
<use href="#path57" transform="translate(3500 0)"/>
<use href="#path58" transform="translate(4000 0)"/>
<use href="#path59" transform="translate(5000 0)"/>
<use href="#path30" transform="translate(5500 0)"/>
<use href="#path42" transform="translate(6000 0)"/>
<use href="#path16" transform="translate(6500 0)"/>
<use href="#path60" transform="translate(7000 0)"/>
<use href="#path61" transform="translate(7500 0)"/>
<use href="#path2" transform="translate(8000 0)"/>
<use href="#path29" transform="translate(8500 0)"/>
<use href="#path5" transform="translate(9000 0)"/>
<use href="#path18" transform="translate(9500 0)"/>
<use href="#path62" transform="translate(10500 0)"/>
<use href="#path63" transform="translate(11000 0)"/>
<use href="#path20" transform="translate(11500 0)"/>
<use href="#path27" transform="translate(12000 0)"/>
<use href="#path64" transform="translate(12500 0)"/>
<use href="#path53" transform="translate(13000 0)"/>
<use href="#path46" transform="translate(13500 0)"/>
<use href="#path65" transform="translate(14500 0)"/>
<use href="#path66" transform="translate(15000 0)"/>
<use href="#path67" transform="translate(15500 0)"/>
<use href="#path40" transform="translate(16000 0)"/>
<use href="#path33" transform="translate(18500 0)"/>
<use href="#path39" transform="translate(19000 0)"/>
<use href="#path42" transform="translate(19500 0)"/>
<use href="#path28" transform="translate(20000 0)"/>
<use href="#path47" transform="translate(20500 0)"/>
<use href="#path36" transform="translate(21500 0)"/>
<use href="#path39" transform="translate(22000 0)"/>
<use href="#path55" transform="translate(22500 0)"/>
<use href="#path68" transform="translate(23000 0)"/>
<use href="#path69" transform="translate(23500 0)"/>
<use href="#path70" transform="translate(24000 0)"/>
<use href="#path71" transform="translate(24500 0)"/>
<use href="#path55" transform="translate(25000 0)"/>
<use href="#path72" transform="translate(25500 0)"/>
<use href="#path64" transform="translate(26000 0)"/>
<use href="#path73" transform="translate(26500 0)"/>
<use href="#path74" transform="translate(27000 0)"/>
<use href="#path4" transform="translate(27500 0)"/>
<use href="#path75" transform="translate(28000 0)"/>
<use href="#path76" transform="translate(28500 0)"/>
<use href="#path63" transform="translate(29000 0)"/>
<use href="#path77" transform="translate(29500 0)"/>
<use href="#path66" transform="translate(30000 0)"/>
<use href="#path70" transform="translate(30500 0)"/>
<use href="#path56" transform="translate(31000 0)"/>
<use href="#path73" transform="translate(31500 0)"/>
<use href="#path61" transform="translate(32000 0)"/>
<use href="#path78" transform="translate(32500.004 0)"/>
<use href="#path65" transform="translate(33000 0)"/>
<use href="#path60" transform="translate(33500 0)"/>
<use href="#path79" transform="translate(34000 0)"/>
<use href="#path80" transform="translate(34500 0)"/>
</g>
<g data-source-text="    " fill="#dee4e3" transform="translate(1020 85.66) rotate(0) scale(0.023999998)"/>
<g data-source-text="&#xA;" fill="#dee4e3" transform="translate(1068 85.66) rotate(0) scale(0.023999998)"/>
<g data-source-text="1234567890 ,._-+= &gt;&lt; -_ ~+    {*}[]()&lt;&gt;`+-=$/#_%^@\&amp;|~?&apos;&quot; !,.;:" fill="#dee4e3" transform="translate(180 123.16) rotate(0) scale(0.023999998)">
<use href="#path55" transform="translate(0 0)"/>
<use href="#path64" transform="translate(500 0)"/>
<use href="#path74" transform="translate(1000 0)"/>
<use href="#path75" transform="translate(1500 0)"/>
<use href="#path63" transform="translate(2000 0)"/>
<use href="#path66" transform="translate(2500 0)"/>
<use href="#path56" transform="translate(3000 0)"/>
<use href="#path61" transform="translate(3500 0)"/>
<use href="#path65" transform="translate(4000 0)"/>
<use href="#path60" transform="translate(4500 0)"/>
<use href="#path76" transform="translate(5500 0)"/>
<use href="#path4" transform="translate(6000 0)"/>
<use href="#path81" transform="translate(6500 0)"/>
<use href="#path72" transform="translate(7000 0)"/>
<use href="#path77" transform="translate(7500 0)"/>
<use href="#path70" transform="translate(8000 0)"/>
<use href="#path82" transform="translate(9000 0)"/>
<use href="#path83" transform="translate(9500 0)"/>
<use href="#path84" transform="translate(10500 0)"/>
<use href="#path85" transform="translate(11000 0)"/>
<use href="#path72" transform="translate(11500 0)"/>
<use href="#path86" transform="translate(12000 0)"/>
<use href="#path81" transform="translate(12500 0)"/>
<use href="#path87" transform="translate(13000 0)"/>
<use href="#path88" transform="translate(14000 0)"/>
<use href="#path89" transform="translate(14500 0)"/>
<use href="#path90" transform="translate(15000 0)"/>
<use href="#path77" transform="translate(15500 0)"/>
<use href="#path91" transform="translate(16000 0)"/>
<use href="#path71" transform="translate(18500 0)"/>
<use href="#path92" transform="translate(19000 0)"/>
<use href="#path79" transform="translate(19500 0)"/>
<use href="#path68" transform="translate(20000 0)"/>
<use href="#path69" transform="translate(20500 0)"/>
<use href="#path93" transform="translate(21000 0)"/>
<use href="#path94" transform="translate(21500 0)"/>
<use href="#path95" transform="translate(22000 0)"/>
<use href="#path96" transform="translate(22500 0)"/>
<use href="#path97" transform="translate(23000 0)"/>
<use href="#path77" transform="translate(23500 0)"/>
<use href="#path72" transform="translate(24000 0)"/>
<use href="#path70" transform="translate(24500 0)"/>
<use href="#path62" transform="translate(25000 0)"/>
<use href="#path73" transform="translate(25500 0)"/>
<use href="#path98" transform="translate(26000 0)"/>
<use href="#path81" transform="translate(26500 0)"/>
<use href="#path78" transform="translate(27000 0)"/>
<use href="#path99" transform="translate(27500 0)"/>
<use href="#path100" transform="translate(28000 0)"/>
<use href="#path101" transform="translate(28500 0)"/>
<use href="#path102" transform="translate(29000 0)"/>
<use href="#path57" transform="translate(29500 0)"/>
<use href="#path88" transform="translate(30000 0)"/>
<use href="#path103" transform="translate(30500 0)"/>
<use href="#path104" transform="translate(31000 0)"/>
<use href="#path105" transform="translate(31500 0)"/>
<use href="#path54" transform="translate(32500.004 0)"/>
<use href="#path76" transform="translate(33000 0)"/>
<use href="#path4" transform="translate(33500 0)"/>
<use href="#path80" transform="translate(34000 0)"/>
<use href="#path106" transform="translate(34500 0)"/>
</g>
<g data-source-text="    " fill="#dee4e3" transform="translate(1020 123.16) rotate(0) scale(0.023999998)"/>
<g data-source-text="&#xA;" fill="#dee4e3" transform="translate(1068 123.16) rotate(0) scale(0.023999998)"/>
<g data-source-text="E3CGQ g9q uvw  " fill="#dee4e3" transform="translate(180 160.66) rotate(0) scale(0.023999998)">
<use href="#path6" transform="translate(0 0)"/>
<use href="#path74" transform="translate(500 0)"/>
<use href="#path3" transform="translate(1000 0)"/>
<use href="#path8" transform="translate(1500 0)"/>
<use href="#path18" transform="translate(2000 0)"/>
<use href="#path34" transform="translate(3000 0)"/>
<use href="#path65" transform="translate(3500 0)"/>
<use href="#path44" transform="translate(4000 0)"/>
<use href="#path107" transform="translate(4500 0)"/>
<use href="#path48" transform="translate(5500 0)"/>
<use href="#path49" transform="translate(6000 0)"/>
<use href="#path50" transform="translate(6500 0)"/>
<use href="#path108" transform="translate(7500 0)"/>
<use href="#path109" transform="translate(8000 0)"/>
<use href="#path110" transform="translate(8500 0)"/>
<use href="#path111" transform="translate(9000 0)"/>
</g>
<g data-source-text="    " fill="#dee4e3" transform="translate(420 160.66) rotate(0) scale(0.023999998)">
<use href="#path112" transform="translate(0 0)"/>
<use href="#path113" transform="translate(500 0)"/>
<use href="#path114" transform="translate(1000 0)"/>
<use href="#path115" transform="translate(1500 0)"/>
<use href="#path116" transform="translate(2000 0)"/>
<use href="#path117" transform="translate(2500 0)"/>
<use href="#path118" transform="translate(3000 0)"/>
<use href="#path67" transform="translate(3500 0)"/>
<use href="#path119" transform="translate(4000 0)"/>
<use href="#path120" transform="translate(4500 0)"/>
<use href="#path121" transform="translate(5000 0)"/>
<use href="#path122" transform="translate(5500 0)"/>
<use href="#path123" transform="translate(6000 0)"/>
</g>
<g data-source-text=" &lt;= != == =&gt; -&gt;" fill="#dee4e3" transform="translate(624 160.66) rotate(0) scale(0.023999998)">
<use href="#path124" transform="translate(0 0)"/>
<use href="#path125" transform="translate(500 0)"/>
<use href="#path12" transform="translate(1000 0)"/>
<use href="#path126" transform="translate(1500 0)"/>
<use href="#path127" transform="translate(2000 0)"/>
<use href="#path128" transform="translate(2500 0)"/>
<use href="#path129" transform="translate(3000 0)"/>
<use href="#path130" transform="translate(3500 0)"/>
<use href="#path131" transform="translate(4000 0)"/>
<use href="#path132" transform="translate(4500 0)"/>
<use href="#path133" transform="translate(5000 0)"/>
<use href="#path43" transform="translate(5500 0)"/>
<use href="#path52" transform="translate(6000 0)"/>
<use href="#path134" transform="translate(6500 0)"/>
<use href="#path135" transform="translate(7000 0)"/>
<use href="#path136" transform="translate(7500 0)"/>
<use href="#path137" transform="translate(8000 0)"/>
<use href="#path138" transform="translate(8500 0)"/>
<use href="#path139" transform="translate(9500 0)"/>
<use href="#path140" transform="translate(10000 0)"/>
<use href="#path141" transform="translate(11000 0)"/>
<use href="#path142" transform="translate(11500 0)"/>
<use href="#path143" transform="translate(12500 0)"/>
<use href="#path144" transform="translate(13000 0)"/>
<use href="#path145" transform="translate(14000 0)"/>
<use href="#path146" transform="translate(14500 0)"/>
<use href="#path147" transform="translate(15500 0)"/>
<use href="#path82" transform="translate(16000 0)"/>
</g>
<g data-source-text="    " fill="#dee4e3" transform="translate(1020 160.66) rotate(0) scale(0.023999998)"/>
</g>
</svg>