<?xml version="1.0" encoding="UTF-8" standalone="no"?>
<svg height="200" viewBox="0 0 1200 200" width="1200" xmlns="http://www.w3.org/2000/svg">
<defs>
<path d="M 60 0 L 252 -735 L 348 -735 L 540 0 L 454 0 L 408 -186 L 192 -186 L 146 0 Z M 390 -260 L 333 -490 Q 325 -525 316.5 -559.5 Q 308 -594 300 -628 Q 292 -594 283.5 -559.5 Q 275 -525 267 -490 L 210 -260 Z " id="path1"/>
<path d="M 88 0 L 88 -735 L 285 -735 Q 312 -735 339 -731 Q 366 -727 391 -716 Q 416 -705 437.5 -687.5 Q 459 -670 473 -646.5 Q 487 -623 492.5 -596 Q 498 -569 498 -541 Q 498 -516 493 -491.5 Q 488 -467 475 -446 Q 462 -425 442.5 -409 Q 423 -393 400 -383 Q 428 -374 453 -357.5 Q 478 -341 495.5 -317.5 Q 513 -294 520.5 -265 Q 528 -236 528 -207 Q 528 -177 521 -147 Q 514 -117 497 -92 Q 480 -67 455.5 -48.5 Q 431 -30 403 -19 Q 375 -8 345 -4 Q 315 -0 285 0 Z M 171 -417 L 285 -417 Q 302 -417 318.5 -420 Q 335 -423 350.5 -430 Q 366 -437 379 -448 Q 392 -459 400.5 -474 Q 409 -489 412.5 -506 Q 416 -523 416 -540 Q 416 -557 412.5 -573.5 Q 409 -590 400.5 -605 Q 392 -620 379 -631.5 Q 366 -643 350.5 -649.5 Q 335 -656 318.5 -659 Q 302 -662 285 -662 L 171 -662 Z M 171 -74 L 285 -74 Q 305 -74 324.5 -76.5 Q 344 -79 362.5 -86 Q 381 -93 397.5 -105 Q 414 -117 425 -133 Q 436 -149 440.5 -169 Q 445 -189 445 -208 Q 445 -228 440.5 -248 Q 436 -268 425 -284.5 Q 414 -301 397.5 -313 Q 381 -325 362.5 -332 Q 344 -339 324.5 -341.5 Q 305 -344 285 -344 L 171 -344 Z " id="path2"/>
<path d="M 297 8 Q 269 8 240 3 Q 211 -2 185 -14.5 Q 159 -27 138 -47 Q 117 -67 103.5 -93 Q 90 -119 85 -147.5 Q 80 -176 80 -205 L 80 -530 Q 80 -559 85 -587.5 Q 90 -616 103.5 -642 Q 117 -668 138 -688 Q 159 -708 185 -720.5 Q 211 -733 240 -738 Q 269 -743 297 -743 Q 324 -743 351 -739 Q 378 -735 403 -725 Q 428 -715 449 -698 Q 470 -681 484.5 -658.5 Q 499 -636 506.5 -609.5 Q 514 -583 514 -557 L 514 -555 L 431 -555 L 431 -556 Q 431 -581 420.5 -604 Q 410 -627 390.5 -642.5 Q 371 -658 346.5 -663.5 Q 322 -669 297 -669 Q 279 -669 261 -666 Q 243 -663 226.5 -654.5 Q 210 -646 197.5 -632 Q 185 -618 177 -601.5 Q 169 -585 166 -567 Q 163 -549 163 -530 L 163 -205 Q 163 -186 166 -168 Q 169 -150 177 -133.5 Q 185 -117 197.5 -103 Q 210 -89 226.5 -80.5 Q 243 -72 261 -69 Q 279 -66 297 -66 Q 322 -66 346.5 -71.5 Q 371 -77 390.5 -92.5 Q 410 -108 420.5 -131 Q 431 -154 431 -179 L 431 -180 L 514 -180 L 514 -178 Q 514 -152 506.5 -125.5 Q 499 -99 484.5 -76.5 Q 470 -54 449 -37 Q 428 -20 403 -10 Q 378 -0 351 4 Q 324 8 297 8 Z " id="path3"/>
<path d="M 225 8 Q 209 8 194 3.5 Q 179 -1 167.5 -12.5 Q 156 -24 151.5 -39 Q 147 -54 147 -70 Q 147 -86 151.5 -101 Q 156 -116 167.5 -127.5 Q 179 -139 194 -143.5 Q 209 -148 225 -148 Q 241 -148 256 -143.5 Q 271 -139 282.5 -127.5 Q 294 -116 298.5 -101 Q 303 -86 303 -70 Q 303 -54 298.5 -39 Q 294 -24 282.5 -12.5 Q 271 -1 256 3.5 Q 241 8 225 8 Z " id="path4"/>
<path d="M 88 0 L 88 -735 L 287 -735 Q 318 -735 348.5 -730 Q 379 -725 406.5 -712 Q 434 -699 457 -677.5 Q 480 -656 494.5 -628.5 Q 509 -601 514.5 -571 Q 520 -541 520 -510 L 520 -225 Q 520 -194 514.5 -164 Q 509 -134 494.5 -106.5 Q 480 -79 457 -57.5 Q 434 -36 406.5 -23 Q 379 -10 348.5 -5 Q 318 -0 287 0 Z M 171 -73 L 287 -73 Q 307 -73 327 -77 Q 347 -81 365 -90 Q 383 -99 397.5 -113.5 Q 412 -128 421 -146.5 Q 430 -165 433.5 -185 Q 437 -205 437 -225 L 437 -510 Q 437 -530 433.5 -550 Q 430 -570 421 -588.5 Q 412 -607 397.5 -621.5 Q 383 -636 365 -645 Q 347 -654 327 -658 Q 307 -662 287 -662 L 171 -662 Z " id="path5"/>
<path d="M 96 0 L 96 -735 L 512 -735 L 512 -662 L 179 -662 L 179 -419 L 448 -419 L 448 -345 L 179 -345 L 179 -74 L 512 -74 L 512 0 Z " id="path6"/>
<path d="M 132 0 L 132 -735 L 512 -735 L 512 -662 L 215 -662 L 215 -419 L 448 -419 L 448 -345 L 215 -345 L 215 0 Z " id="path7"/>
<path d="M 268 8 Q 241 8 214.5 2 Q 188 -4 165 -18 Q 142 -32 125 -53.5 Q 108 -75 98 -99.5 Q 88 -124 84 -151 Q 80 -178 80 -205 L 80 -530 Q 80 -559 85 -587.5 Q 90 -616 103.5 -642 Q 117 -668 138 -688 Q 159 -708 185 -720.5 Q 211 -733 240 -738 Q 269 -743 297 -743 Q 324 -743 351 -739 Q 378 -735 403 -725 Q 428 -715 449 -698 Q 470 -681 484.5 -658.5 Q 499 -636 506.5 -609.5 Q 514 -583 514 -557 L 514 -555 L 431 -555 L 431 -556 Q 431 -581 420.5 -604 Q 410 -627 390.5 -642.5 Q 371 -658 346.5 -663.5 Q 322 -669 297 -669 Q 279 -669 261 -666 Q 243 -663 226.5 -654.5 Q 210 -646 197.5 -632 Q 185 -618 177 -601.5 Q 169 -585 166 -567 Q 163 -549 163 -530 L 163 -205 Q 163 -186 166 -168 Q 169 -150 177 -133 Q 185 -116 198 -102.5 Q 211 -89 227.5 -80.5 Q 244 -72 262.5 -68.5 Q 281 -65 299 -65 Q 317 -65 335 -68.5 Q 353 -72 369 -81 Q 385 -90 397 -104 Q 409 -118 416.5 -134.5 Q 424 -151 426.5 -169 Q 429 -187 429 -205 L 429 -327 L 300 -327 L 300 -401 L 512 -401 L 512 0 L 439 0 L 439 -121 Q 431 -93 415.5 -67.5 Q 400 -42 377 -24.5 Q 354 -7 325.5 0.5 Q 297 8 268 8 Z " id="path8"/>
<path d="M 88 0 L 88 -735 L 171 -735 L 171 -416 L 429 -416 L 429 -735 L 512 -735 L 512 0 L 429 0 L 429 -343 L 171 -343 L 171 0 Z " id="path9"/>
<path d="M 109 0 L 109 -735 L 191 -735 L 191 0 Z " id="path10"/>
<path d="M 274 8 Q 248 8 221.5 4 Q 195 0 171 -10.5 Q 147 -21 126.5 -38 Q 106 -55 92 -77.5 Q 78 -100 71 -125.5 Q 64 -151 64 -178 L 64 -179 L 147 -179 L 147 -178 Q 147 -154 156.5 -131.5 Q 166 -109 184.5 -93.5 Q 203 -78 226.5 -72 Q 250 -66 274 -66 Q 292 -66 310 -69.5 Q 328 -73 343.5 -82 Q 359 -91 371 -104.5 Q 383 -118 390 -134.5 Q 397 -151 400 -169 Q 403 -187 403 -205 L 403 -735 L 486 -735 L 486 -205 Q 486 -176 481 -148 Q 476 -120 463.5 -94.5 Q 451 -69 430.5 -48.5 Q 410 -28 384.5 -15 Q 359 -2 331 3 Q 303 8 274 8 Z " id="path11"/>
<path d="M 107 0 L 107 -735 L 189 -735 L 189 -389 L 429 -735 L 525 -735 L 295 -402 L 525 0 L 433 0 L 245 -328 L 189 -249 L 189 0 Z " id="path12"/>
<path d="M 132 0 L 132 -735 L 215 -735 L 215 -74 L 518 -74 L 518 0 Z " id="path13"/>
<path d="M 88 0 L 88 -735 L 233 -735 L 375 -149 L 517 -735 L 662 -735 L 662 0 L 579 0 L 579 -654 L 411 0 L 339 0 L 171 -654 L 171 0 Z " id="path14"/>
<path d="M 88 0 L 88 -735 L 199 -735 L 433 -132 Q 432 -209 430.5 -286.5 Q 429 -364 429 -441 L 429 -735 L 512 -735 L 512 0 L 401 0 L 167 -603 Q 168 -526 169.5 -448.5 Q 171 -371 171 -294 L 171 0 Z " id="path15"/>
<path d="M 300 8 Q 271 8 242 3.5 Q 213 -1 187 -13.5 Q 161 -26 139.5 -46.5 Q 118 -67 104.5 -92.5 Q 91 -118 85.5 -147 Q 80 -176 80 -205 L 80 -530 Q 80 -559 85.5 -588 Q 91 -617 104.5 -642.5 Q 118 -668 139.5 -688.5 Q 161 -709 187 -721.5 Q 213 -734 242 -738.5 Q 271 -743 300 -743 Q 329 -743 358 -738.5 Q 387 -734 413 -721.5 Q 439 -709 460.5 -688.5 Q 482 -668 495.5 -642.5 Q 509 -617 514.5 -588 Q 520 -559 520 -530 L 520 -205 Q 520 -176 514.5 -147 Q 509 -118 495.5 -92.5 Q 482 -67 460.5 -46.5 Q 439 -26 413 -13.5 Q 387 -1 358 3.5 Q 329 8 300 8 Z M 300 -66 Q 319 -66 337 -69 Q 355 -72 371.5 -80.5 Q 388 -89 401.5 -102.5 Q 415 -116 423 -132.5 Q 431 -149 434 -167.5 Q 437 -186 437 -205 L 437 -530 Q 437 -549 434 -567.5 Q 431 -586 423 -602.5 Q 415 -619 401.5 -632.5 Q 388 -646 371.5 -654.5 Q 355 -663 337 -666.5 Q 319 -670 300 -670 Q 281 -670 263 -666.5 Q 245 -663 228.5 -654.5 Q 212 -646 198.5 -632.5 Q 185 -619 177 -602.5 Q 169 -586 166 -567.5 Q 163 -549 163 -530 L 163 -205 Q 163 -186 166 -167.5 Q 169 -149 177 -132.5 Q 185 -116 198.5 -102.5 Q 212 -89 228.5 -80.5 Q 245 -72 263 -69 Q 281 -66 300 -66 Z " id="path16"/>
<path d="M 110 0 L 110 -735 L 319 -735 Q 348 -735 376 -729.5 Q 404 -724 429.5 -711 Q 455 -698 474.5 -676.5 Q 494 -655 506.5 -629.5 Q 519 -604 523.5 -575.5 Q 528 -547 528 -518 Q 528 -490 523.5 -461.5 Q 519 -433 506.5 -407 Q 494 -381 474.5 -360 Q 455 -339 429.5 -325.5 Q 404 -312 376 -307 Q 348 -302 319 -302 L 193 -302 L 193 0 Z M 319 -375 Q 337 -375 355 -379 Q 373 -383 388.5 -392.5 Q 404 -402 415.5 -416.5 Q 427 -431 433.5 -447.5 Q 440 -464 442.5 -482 Q 445 -500 445 -518 Q 445 -536 442.5 -554.5 Q 440 -573 433.5 -589.5 Q 427 -606 415.5 -620.5 Q 404 -635 388.5 -644.5 Q 373 -654 355 -658 Q 337 -662 319 -662 L 193 -662 L 193 -375 Z " id="path17"/>
<path d="M 429 165 Q 407 165 385.5 161.5 Q 364 158 344.5 148.5 Q 325 139 309 124 Q 293 109 283 89.5 Q 273 70 268.5 49 Q 264 28 264 6 Q 238 4 213 -4 Q 188 -12 166 -26 Q 144 -40 127 -60 Q 110 -80 99 -103.5 Q 88 -127 84 -153 Q 80 -179 80 -205 L 80 -530 Q 80 -559 85.5 -588 Q 91 -617 104.5 -642.5 Q 118 -668 139.5 -688.5 Q 161 -709 187 -721.5 Q 213 -734 242 -738.5 Q 271 -743 300 -743 Q 329 -743 358 -738.5 Q 387 -734 413 -721.5 Q 439 -709 460.5 -688.5 Q 482 -668 495.5 -642.5 Q 509 -617 514.5 -588 Q 520 -559 520 -530 L 520 -205 Q 520 -180 516 -155 Q 512 -130 502 -107 Q 492 -84 476.5 -64 Q 461 -44 440 -29.5 Q 419 -15 395 -6.5 Q 371 2 346 5 Q 347 22 352 38.5 Q 357 55 368 67.5 Q 379 80 395.5 85.5 Q 412 91 429 91 L 470 91 L 470 165 Z M 300 -66 Q 319 -66 337 -69 Q 355 -72 371.5 -80.5 Q 388 -89 401.5 -102.5 Q 415 -116 423 -132.5 Q 431 -149 434 -167.5 Q 437 -186 437 -205 L 437 -530 Q 437 -549 434 -567.5 Q 431 -586 423 -602.5 Q 415 -619 401.5 -632.5 Q 388 -646 371.5 -654.5 Q 355 -663 337 -666.5 Q 319 -670 300 -670 Q 281 -670 263 -666.5 Q 245 -663 228.5 -654.5 Q 212 -646 198.5 -632.5 Q 185 -619 177 -602.5 Q 169 -586 166 -567.5 Q 163 -549 163 -530 L 163 -205 Q 163 -186 166 -167.5 Q 169 -149 177 -132.5 Q 185 -116 198.5 -102.5 Q 212 -89 228.5 -80.5 Q 245 -72 263 -69 Q 281 -66 300 -66 Z " id="path18"/>
<path d="M 88 0 L 88 -735 L 319 -735 Q 347 -735 375 -729.5 Q 403 -724 427 -710 Q 451 -696 470 -674.5 Q 489 -653 500 -627.5 Q 511 -602 515.5 -574 Q 520 -546 520 -518 Q 520 -483 512.5 -447.5 Q 505 -412 485.5 -382 Q 466 -352 435 -332 Q 404 -312 369 -305 L 536 0 L 444 0 L 279 -302 L 171 -302 L 171 0 Z M 319 -375 Q 337 -375 354 -379.5 Q 371 -384 385.5 -394 Q 400 -404 410.5 -418.5 Q 421 -433 427 -449.5 Q 433 -466 435 -483.5 Q 437 -501 437 -518 Q 437 -536 435 -553.5 Q 433 -571 427 -587.5 Q 421 -604 410.5 -618.5 Q 400 -633 385.5 -643 Q 371 -653 354 -657.5 Q 337 -662 319 -662 L 171 -662 L 171 -375 Z " id="path19"/>
<path d="M 299 8 Q 272 8 245 4.5 Q 218 1 193 -9 Q 168 -19 146 -35 Q 124 -51 108.5 -73.5 Q 93 -96 85.5 -122 Q 78 -148 78 -175 L 78 -179 L 161 -179 L 161 -177 Q 161 -152 172.5 -128.5 Q 184 -105 204 -90.5 Q 224 -76 249 -71 Q 274 -66 299 -66 Q 324 -66 349.5 -71.5 Q 375 -77 395 -92.5 Q 415 -108 426.5 -132 Q 438 -156 438 -181 Q 438 -209 425 -234 Q 412 -259 391 -276.5 Q 370 -294 345 -305.5 Q 320 -317 294 -326.5 Q 268 -336 243 -347.5 Q 218 -359 195 -374 Q 172 -389 152 -408 Q 132 -427 117.5 -450.5 Q 103 -474 95.5 -500.5 Q 88 -527 88 -554 Q 88 -581 95 -607 Q 102 -633 116 -656 Q 130 -679 151 -696.5 Q 172 -714 196.5 -724.5 Q 221 -735 247.5 -739 Q 274 -743 301 -743 Q 328 -743 354 -739.5 Q 380 -736 404.5 -726 Q 429 -716 450 -699.5 Q 471 -683 485.5 -661 Q 500 -639 507 -613.5 Q 514 -588 514 -561 L 514 -558 L 431 -558 L 431 -560 Q 431 -584 421 -606.5 Q 411 -629 392 -643.5 Q 373 -658 349 -663.5 Q 325 -669 301 -669 Q 277 -669 252.5 -663 Q 228 -657 209 -641 Q 190 -625 180 -602 Q 170 -579 170 -554 Q 170 -527 183 -501.5 Q 196 -476 217 -458.5 Q 238 -441 263 -429.5 Q 288 -418 313.5 -408.5 Q 339 -399 364 -387.5 Q 389 -376 412 -361 Q 435 -346 455 -327 Q 475 -308 490 -285 Q 505 -262 512.5 -235.5 Q 520 -209 520 -181 Q 520 -154 512.5 -127 Q 505 -100 490 -77 Q 475 -54 453 -37 Q 431 -20 406 -10 Q 381 -0 353.5 4 Q 326 8 299 8 Z " id="path20"/>
<path d="M 259 0 L 259 -662 L 82 -662 L 82 -735 L 518 -735 L 518 -662 L 341 -662 L 341 0 Z " id="path21"/>
<path d="M 300 8 Q 272 8 243.5 3 Q 215 -2 189.5 -15 Q 164 -28 143.5 -48.5 Q 123 -69 110.5 -94.5 Q 98 -120 93 -148 Q 88 -176 88 -205 L 88 -735 L 171 -735 L 171 -205 Q 171 -187 173.5 -169 Q 176 -151 183.5 -134.5 Q 191 -118 203 -104 Q 215 -90 230.5 -81.5 Q 246 -73 264 -69.5 Q 282 -66 300 -66 Q 318 -66 336 -69.5 Q 354 -73 369.5 -81.5 Q 385 -90 397 -104 Q 409 -118 416.5 -134.5 Q 424 -151 426.5 -169 Q 429 -187 429 -205 L 429 -735 L 512 -735 L 512 -205 Q 512 -176 507 -148 Q 502 -120 489.5 -94.5 Q 477 -69 456.5 -48.5 Q 436 -28 410.5 -15 Q 385 -2 356.5 3 Q 328 8 300 8 Z " id="path22"/>
<path d="M 252 0 L 60 -735 L 146 -735 L 267 -245 Q 275 -210 283.5 -175.5 Q 292 -141 300 -107 Q 308 -141 316.5 -175.5 Q 325 -210 333 -245 L 454 -735 L 540 -735 L 348 0 Z " id="path23"/>
<path d="M 195 0 L 72 -735 L 155 -735 L 238 -139 L 333 -735 L 417 -735 L 512 -139 L 595 -735 L 678 -735 L 555 0 L 472 0 L 375 -605 L 278 0 Z " id="path24"/>
<path d="M 72 0 L 256 -368 L 72 -735 L 164 -735 L 300 -457 L 436 -735 L 528 -735 L 344 -368 L 528 0 L 436 0 L 300 -278 L 164 0 Z " id="path25"/>
<path d="M 259 0 L 259 -290 L 68 -735 L 159 -735 L 300 -396 L 441 -735 L 532 -735 L 341 -290 L 341 0 Z " id="path26"/>
<path d="M 88 0 L 88 -74 L 417 -662 L 88 -662 L 88 -735 L 512 -735 L 512 -662 L 183 -74 L 512 -74 L 512 0 Z " id="path27"/>
<path d="M 251 8 Q 230 8 208.5 5 Q 187 2 167 -6 Q 147 -14 130 -27.5 Q 113 -41 101.5 -59 Q 90 -77 85 -98.5 Q 80 -120 80 -141 Q 80 -169 89 -195.5 Q 98 -222 117 -242 Q 136 -262 161 -274.5 Q 186 -287 212.5 -294.5 Q 239 -302 266.5 -304.5 Q 294 -307 321 -307 L 429 -307 L 429 -347 Q 429 -363 425 -379 Q 421 -395 412 -408 Q 403 -421 389.5 -430.5 Q 376 -440 361 -445 Q 346 -450 330 -452 Q 314 -454 298 -454 Q 276 -454 254.5 -450.5 Q 233 -447 213.5 -436.5 Q 194 -426 181.5 -407 Q 169 -388 169 -366 L 86 -366 Q 86 -391 94.5 -415 Q 103 -439 118.5 -458.5 Q 134 -478 155 -492 Q 176 -506 199.5 -514 Q 223 -522 248 -525 Q 273 -528 298 -528 Q 325 -528 351.5 -524.5 Q 378 -521 402.5 -511.5 Q 427 -502 448.5 -486 Q 470 -470 485 -448 Q 500 -426 506 -400 Q 512 -374 512 -347 L 512 0 L 429 0 L 429 -90 Q 418 -66 398.5 -46.5 Q 379 -27 355 -14.5 Q 331 -2 304.5 3 Q 278 8 251 8 Z M 282 -65 Q 300 -65 318 -68 Q 336 -71 353 -77 Q 370 -83 385 -94 Q 400 -105 410.5 -120 Q 421 -135 425 -153 Q 429 -171 429 -189 L 429 -234 L 321 -234 Q 305 -234 288 -233 Q 271 -232 255 -228.5 Q 239 -225 223 -220 Q 207 -215 193 -205.5 Q 179 -196 171 -181 Q 163 -166 163 -150 Q 163 -129 174 -111 Q 185 -93 202.5 -82.5 Q 220 -72 240.5 -68.5 Q 261 -65 282 -65 Z " id="path28"/>
<path d="M 332 8 Q 307 8 281.5 2.5 Q 256 -3 234.5 -17 Q 213 -31 197 -51.5 Q 181 -72 171 -96 L 171 0 L 88 0 L 88 -735 L 171 -735 L 171 -424 Q 181 -448 197 -468.5 Q 213 -489 234.5 -503 Q 256 -517 281.5 -522.5 Q 307 -528 332 -528 Q 360 -528 386.5 -522 Q 413 -516 436 -501 Q 459 -486 476 -464 Q 493 -442 503 -416.5 Q 513 -391 516.5 -364 Q 520 -337 520 -310 L 520 -210 Q 520 -183 516.5 -156 Q 513 -129 503 -103.5 Q 493 -78 476 -56 Q 459 -34 436 -19 Q 413 -4 386.5 2 Q 360 8 332 8 Z M 301 -65 Q 320 -65 338.5 -69 Q 357 -73 373.5 -82 Q 390 -91 403 -105.5 Q 416 -120 423.5 -137 Q 431 -154 434 -172.5 Q 437 -191 437 -210 L 437 -310 Q 437 -329 434 -347.5 Q 431 -366 423.5 -383 Q 416 -400 403 -414.5 Q 390 -429 373.5 -438 Q 357 -447 338.5 -451 Q 320 -455 301 -455 Q 282 -455 264 -451 Q 246 -447 230 -437.5 Q 214 -428 202 -413.5 Q 190 -399 183 -382 Q 176 -365 173.5 -346.5 Q 171 -328 171 -310 L 171 -210 Q 171 -192 173.5 -173.5 Q 176 -155 183 -138 Q 190 -121 202 -106.5 Q 214 -92 230 -82.5 Q 246 -73 264 -69 Q 282 -65 301 -65 Z " id="path29"/>
<path d="M 298 8 Q 268 8 239 3 Q 210 -2 184 -15 Q 158 -28 137 -49.5 Q 116 -71 103 -97 Q 90 -123 85 -152 Q 80 -181 80 -210 L 80 -310 Q 80 -339 85 -368 Q 90 -397 103 -423 Q 116 -449 137 -470.5 Q 158 -492 184 -505 Q 210 -518 239 -523 Q 268 -528 298 -528 Q 325 -528 351.5 -524 Q 378 -520 403 -509.5 Q 428 -499 449.5 -482 Q 471 -465 485 -442.5 Q 499 -420 506.5 -393.5 Q 514 -367 514 -340 L 431 -340 Q 431 -365 420.5 -388.5 Q 410 -412 391 -427 Q 372 -442 347 -448 Q 322 -454 298 -454 Q 279 -454 260.5 -450.5 Q 242 -447 225.5 -438 Q 209 -429 196.5 -414.5 Q 184 -400 176 -383 Q 168 -366 165.5 -347.5 Q 163 -329 163 -310 L 163 -210 Q 163 -191 165.5 -172.5 Q 168 -154 176 -137 Q 184 -120 196.5 -105.5 Q 209 -91 225.5 -82 Q 242 -73 260.5 -69.5 Q 279 -66 298 -66 Q 322 -66 347 -72 Q 372 -78 391 -93 Q 410 -108 420.5 -131.5 Q 431 -155 431 -180 L 514 -180 Q 514 -153 506.5 -126.5 Q 499 -100 485 -77.5 Q 471 -55 449.5 -38 Q 428 -21 403 -10.5 Q 378 0 351.5 4 Q 325 8 298 8 Z " id="path30"/>
<path d="M 268 8 Q 240 8 213.5 2 Q 187 -4 164 -19 Q 141 -34 124 -56 Q 107 -78 97 -103.5 Q 87 -129 83.5 -156 Q 80 -183 80 -210 L 80 -310 Q 80 -337 83.5 -364 Q 87 -391 97 -416.5 Q 107 -442 124 -464 Q 141 -486 164 -501 Q 187 -516 213.5 -522 Q 240 -528 268 -528 Q 293 -528 318.5 -522.5 Q 344 -517 365.5 -503 Q 387 -489 403 -468.5 Q 419 -448 429 -424 L 429 -735 L 512 -735 L 512 0 L 429 0 L 429 -96 Q 419 -72 403 -51.5 Q 387 -31 365.5 -17 Q 344 -3 318.5 2.5 Q 293 8 268 8 Z M 299 -66 Q 318 -66 336 -69.5 Q 354 -73 370 -82.5 Q 386 -92 398 -106.5 Q 410 -121 417 -138 Q 424 -155 426.5 -173.5 Q 429 -192 429 -210 L 429 -310 Q 429 -328 426.5 -346.5 Q 424 -365 417 -382 Q 410 -399 398 -413.5 Q 386 -428 370 -437.5 Q 354 -447 336 -451 Q 318 -455 299 -455 Q 280 -455 261.5 -451 Q 243 -447 226.5 -438 Q 210 -429 197 -414.5 Q 184 -400 176.5 -383 Q 169 -366 166 -347.5 Q 163 -329 163 -310 L 163 -210 Q 163 -191 166 -172.5 Q 169 -154 176.5 -137 Q 184 -120 197 -105.5 Q 210 -91 226.5 -82 Q 243 -73 261.5 -69.5 Q 280 -66 299 -66 Z " id="path31"/>
<path d="M 302 8 Q 273 8 243.5 3 Q 214 -2 187.5 -15 Q 161 -28 139.5 -48.5 Q 118 -69 104.5 -95.5 Q 91 -122 85.5 -151 Q 80 -180 80 -210 L 80 -310 Q 80 -339 85 -368.5 Q 90 -398 103.5 -424 Q 117 -450 138.5 -471 Q 160 -492 186 -505 Q 212 -518 241.5 -523 Q 271 -528 300 -528 Q 329 -528 358.5 -523 Q 388 -518 414 -505 Q 440 -492 461.5 -471 Q 483 -450 496.5 -424 Q 510 -398 515 -368.5 Q 520 -339 520 -310 L 520 -223 L 163 -223 L 163 -210 Q 163 -191 166 -172 Q 169 -153 177 -136 Q 185 -119 198.5 -104.5 Q 212 -90 228.5 -81.5 Q 245 -73 264 -69.5 Q 283 -66 302 -66 Q 324 -66 345 -69 Q 366 -72 385.5 -81 Q 405 -90 419 -107 Q 433 -124 435 -146 L 518 -146 Q 516 -121 506.5 -98 Q 497 -75 481 -56.5 Q 465 -38 444 -25 Q 423 -12 399.5 -4.5 Q 376 3 351.5 5.5 Q 327 8 302 8 Z M 163 -297 L 437 -297 L 437 -310 Q 437 -329 434 -347.5 Q 431 -366 423 -383.5 Q 415 -401 402.5 -415 Q 390 -429 373 -438 Q 356 -447 337.5 -451 Q 319 -455 300 -455 Q 281 -455 262.5 -451 Q 244 -447 227 -438 Q 210 -429 197.5 -415 Q 185 -401 177 -383.5 Q 169 -366 166 -347.5 Q 163 -329 163 -310 Z " id="path32"/>
<path d="M 167 0 L 167 -400 L 55 -400 L 55 -473 L 167 -473 L 167 -601 Q 167 -619 170 -637 Q 173 -655 181 -671 Q 189 -687 202 -700 Q 215 -713 231 -721 Q 247 -729 265 -732 Q 283 -735 301 -735 L 395 -735 L 395 -662 L 301 -662 Q 289 -662 278.5 -657.5 Q 268 -653 261 -644 Q 254 -635 252 -623.5 Q 250 -612 250 -601 L 250 -473 L 395 -473 L 395 -400 L 250 -400 L 250 0 Z " id="path33"/>
<path d="M 296 223 Q 272 223 247.5 220 Q 223 217 200 209 Q 177 201 156 187.5 Q 135 174 120 154.5 Q 105 135 96 112 Q 87 89 86 64 L 169 64 Q 170 86 182.5 104 Q 195 122 214 132 Q 233 142 254 145.5 Q 275 149 296 149 Q 315 149 333.5 145.5 Q 352 142 368 132.5 Q 384 123 396.5 109 Q 409 95 416.5 78 Q 424 61 426.5 42.5 Q 429 24 429 5 L 429 -96 Q 419 -72 403 -51.5 Q 387 -31 365.5 -17 Q 344 -3 318.5 2.5 Q 293 8 268 8 Q 240 8 213.5 2 Q 187 -4 164 -19 Q 141 -34 124 -56 Q 107 -78 97 -103.5 Q 87 -129 83.5 -156 Q 80 -183 80 -210 L 80 -310 Q 80 -337 83.5 -364 Q 87 -391 97 -416.5 Q 107 -442 124 -464 Q 141 -486 164 -501 Q 187 -516 213.5 -522 Q 240 -528 268 -528 Q 293 -528 318.5 -522.5 Q 344 -517 365.5 -503 Q 387 -489 403 -468.5 Q 419 -448 429 -424 L 429 -520 L 512 -520 L 512 5 Q 512 34 507 63 Q 502 92 489 118 Q 476 144 455.5 165 Q 435 186 409 199.5 Q 383 213 354 218 Q 325 223 296 223 Z M 299 -65 Q 318 -65 336 -69 Q 354 -73 370 -82.5 Q 386 -92 398 -106.5 Q 410 -121 417 -138 Q 424 -155 426.5 -173.5 Q 429 -192 429 -210 L 429 -310 Q 429 -328 426.5 -346.5 Q 424 -365 417 -382 Q 410 -399 398 -413.5 Q 386 -428 370 -437.5 Q 354 -447 336 -451 Q 318 -455 299 -455 Q 280 -455 261.5 -451 Q 243 -447 226.5 -438 Q 210 -429 197 -414.5 Q 184 -400 176.5 -383 Q 169 -366 166 -347.5 Q 163 -329 163 -310 L 163 -210 Q 163 -191 166 -172.5 Q 169 -154 176.5 -137 Q 184 -120 197 -105.5 Q 210 -91 226.5 -82 Q 243 -73 261.5 -69 Q 280 -65 299 -65 Z " id="path34"/>
<path d="M 88 0 L 88 -735 L 171 -735 L 171 -424 Q 181 -448 197 -468.5 Q 213 -489 234 -502.5 Q 255 -516 280.5 -522 Q 306 -528 332 -528 Q 358 -528 384.5 -521.5 Q 411 -515 433 -500 Q 455 -485 471 -462.5 Q 487 -440 496 -415 Q 505 -390 508.5 -363.5 Q 512 -337 512 -310 L 512 0 L 429 0 L 429 -310 Q 429 -328 426.5 -346.5 Q 424 -365 417 -382 Q 410 -399 398 -413.5 Q 386 -428 370.5 -437.5 Q 355 -447 336.5 -451 Q 318 -455 300 -455 Q 282 -455 263.5 -451 Q 245 -447 229.5 -437.5 Q 214 -428 202 -413.5 Q 190 -399 183 -382 Q 176 -365 173.5 -346.5 Q 171 -328 171 -310 L 171 0 Z " id="path35"/>
<path d="M 109 0 L 109 -520 L 191 -520 L 191 0 Z M 150 -608 Q 137 -608 125 -611.5 Q 113 -615 104 -624 Q 95 -633 91.5 -645 Q 88 -657 88 -670 Q 88 -683 91.5 -695 Q 95 -707 104 -716 Q 113 -725 125 -729 Q 137 -733 150 -733 Q 163 -733 175 -729 Q 187 -725 196 -716 Q 205 -707 209 -695 Q 213 -683 213 -670 Q 213 -657 209 -645 Q 205 -633 196 -624 Q 187 -615 175 -611.5 Q 163 -608 150 -608 Z " id="path36"/>
<path d="M -15 215 L -15 141 L 57 141 Q 69 141 79.5 137 Q 90 133 97 124 Q 104 115 106.5 103.5 Q 109 92 109 81 L 109 -520 L 191 -520 L 191 81 Q 191 99 188 117 Q 185 135 177 151 Q 169 167 156 180 Q 143 193 127 201 Q 111 209 93 212 Q 75 215 57 215 Z M 150 -608 Q 137 -608 125 -611.5 Q 113 -615 104 -624 Q 95 -633 91.5 -645 Q 88 -657 88 -670 Q 88 -683 91.5 -695 Q 95 -707 104 -716 Q 113 -725 125 -729 Q 137 -733 150 -733 Q 163 -733 175 -729 Q 187 -725 196 -716 Q 205 -707 209 -695 Q 213 -683 213 -670 Q 213 -657 209 -645 Q 205 -633 196 -624 Q 187 -615 175 -611.5 Q 163 -608 150 -608 Z " id="path37"/>
<path d="M 107 0 L 107 -735 L 189 -735 L 189 -271 L 417 -520 L 523 -520 L 307 -283 L 523 0 L 423 0 L 252 -224 L 189 -155 L 189 0 Z " id="path38"/>
<path d="M 88 0 L 88 -520 L 171 -520 L 171 -453 Q 178 -470 189 -484.5 Q 200 -499 215 -509 Q 230 -519 248 -523.5 Q 266 -528 284 -528 Q 306 -528 326.5 -521.5 Q 347 -515 363.5 -501 Q 380 -487 391 -468 Q 402 -449 408 -428 Q 413 -449 423.5 -468 Q 434 -487 450.5 -501 Q 467 -515 487.5 -521.5 Q 508 -528 529 -528 Q 550 -528 570 -522 Q 590 -516 606.5 -503.5 Q 623 -491 634 -473 Q 645 -455 651 -435.5 Q 657 -416 659.5 -395.5 Q 662 -375 662 -354 L 662 0 L 579 0 L 579 -354 Q 579 -373 575.5 -391 Q 572 -409 561 -424 Q 550 -439 533 -447 Q 516 -455 498 -455 Q 480 -455 462.5 -447 Q 445 -439 434.5 -424 Q 424 -409 420 -391 Q 416 -373 416 -354 L 416 0 L 334 0 L 334 -354 Q 334 -373 330 -391 Q 326 -409 315.5 -424 Q 305 -439 287.5 -447 Q 270 -455 252 -455 Q 234 -455 217 -447 Q 200 -439 189 -424 Q 178 -409 174.5 -391 Q 171 -373 171 -354 L 171 0 Z " id="path39"/>
<path d="M 88 0 L 88 -520 L 171 -520 L 171 -424 Q 181 -448 197 -468.5 Q 213 -489 234 -502.5 Q 255 -516 280.5 -522 Q 306 -528 332 -528 Q 358 -528 384.5 -521.5 Q 411 -515 433 -500 Q 455 -485 471 -462.5 Q 487 -440 496 -415 Q 505 -390 508.5 -363.5 Q 512 -337 512 -310 L 512 0 L 429 0 L 429 -310 Q 429 -328 426.5 -346.5 Q 424 -365 417 -382 Q 410 -399 398 -413.5 Q 386 -428 370.5 -437.5 Q 355 -447 336.5 -451 Q 318 -455 300 -455 Q 282 -455 263.5 -451 Q 245 -447 229.5 -437.5 Q 214 -428 202 -413.5 Q 190 -399 183 -382 Q 176 -365 173.5 -346.5 Q 171 -328 171 -310 L 171 0 Z " id="path40"/>
<path d="M 300 8 Q 271 8 241.5 3 Q 212 -2 186 -15 Q 160 -28 138.5 -49 Q 117 -70 103.5 -96 Q 90 -122 85 -151.5 Q 80 -181 80 -210 L 80 -310 Q 80 -339 85 -368.5 Q 90 -398 103.5 -424 Q 117 -450 138.5 -471 Q 160 -492 186 -505 Q 212 -518 241.5 -523 Q 271 -528 300 -528 Q 329 -528 358.5 -523 Q 388 -518 414 -505 Q 440 -492 461.5 -471 Q 483 -450 496.5 -424 Q 510 -398 515 -368.5 Q 520 -339 520 -310 L 520 -210 Q 520 -181 515 -151.5 Q 510 -122 496.5 -96 Q 483 -70 461.5 -49 Q 440 -28 414 -15 Q 388 -2 358.5 3 Q 329 8 300 8 Z M 300 -66 Q 319 -66 337.5 -69.5 Q 356 -73 373 -82 Q 390 -91 402.5 -105 Q 415 -119 423 -136.5 Q 431 -154 434 -172.5 Q 437 -191 437 -210 L 437 -310 Q 437 -329 434 -347.5 Q 431 -366 423 -383.5 Q 415 -401 402.5 -415 Q 390 -429 373 -438 Q 356 -447 337.5 -451 Q 319 -455 300 -455 Q 281 -455 262.5 -451 Q 244 -447 227 -438 Q 210 -429 197.5 -415 Q 185 -401 177 -383.5 Q 169 -366 166 -347.5 Q 163 -329 163 -310 L 163 -210 Q 163 -191 166 -172.5 Q 169 -154 177 -136.5 Q 185 -119 197.5 -105 Q 210 -91 227 -82 Q 244 -73 262.5 -69.5 Q 281 -66 300 -66 Z " id="path41"/>
<path d="M 88 215 L 88 -520 L 171 -520 L 171 -424 Q 181 -448 197 -468.5 Q 213 -489 234.5 -503 Q 256 -517 281.5 -522.5 Q 307 -528 332 -528 Q 360 -528 386.5 -522 Q 413 -516 436 -501 Q 459 -486 476 -464 Q 493 -442 503 -416.5 Q 513 -391 516.5 -364 Q 520 -337 520 -310 L 520 -210 Q 520 -183 516.5 -156 Q 513 -129 503 -103.5 Q 493 -78 476 -56 Q 459 -34 436 -19 Q 413 -4 386.5 2 Q 360 8 332 8 Q 307 8 281.5 2.5 Q 256 -3 234.5 -17 Q 213 -31 197 -51.5 Q 181 -72 171 -96 L 171 215 Z M 301 -65 Q 320 -65 338.5 -69 Q 357 -73 373.5 -82 Q 390 -91 403 -105.5 Q 416 -120 423.5 -137 Q 431 -154 434 -172.5 Q 437 -191 437 -210 L 437 -310 Q 437 -329 434 -347.5 Q 431 -366 423.5 -383 Q 416 -400 403 -414.5 Q 390 -429 373.5 -438 Q 357 -447 338.5 -451 Q 320 -455 301 -455 Q 282 -455 264 -451 Q 246 -447 230 -437.5 Q 214 -428 202 -413.5 Q 190 -399 183 -382 Q 176 -365 173.5 -346.5 Q 171 -328 171 -310 L 171 -210 Q 171 -192 173.5 -173.5 Q 176 -155 183 -138 Q 190 -121 202 -106.5 Q 214 -92 230 -82.5 Q 246 -73 264 -69 Q 282 -65 301 -65 Z " id="path42"/>
<path d="M 429 215 L 429 -96 Q 419 -72 403 -51.5 Q 387 -31 365.5 -17 Q 344 -3 318.5 2.5 Q 293 8 268 8 Q 240 8 213.5 2 Q 187 -4 164 -19 Q 141 -34 124 -56 Q 107 -78 97 -103.5 Q 87 -129 83.5 -156 Q 80 -183 80 -210 L 80 -310 Q 80 -337 83.5 -364 Q 87 -391 97 -416.5 Q 107 -442 124 -464 Q 141 -486 164 -501 Q 187 -516 213.5 -522 Q 240 -528 268 -528 Q 293 -528 318.5 -522.5 Q 344 -517 365.5 -503 Q 387 -489 403 -468.5 Q 419 -448 429 -424 L 429 -520 L 512 -520 L 512 215 Z M 299 -65 Q 318 -65 336 -69 Q 354 -73 370 -82.5 Q 386 -92 398 -106.5 Q 410 -121 417 -138 Q 424 -155 426.5 -173.5 Q 429 -192 429 -210 L 429 -310 Q 429 -328 426.5 -346.5 Q 424 -365 417 -382 Q 410 -399 398 -413.5 Q 386 -428 370 -437.5 Q 354 -447 336 -451 Q 318 -455 299 -455 Q 280 -455 261.5 -451 Q 243 -447 226.5 -438 Q 210 -429 197 -414.5 Q 184 -400 176.5 -383 Q 169 -366 166 -347.5 Q 163 -329 163 -310 L 163 -210 Q 163 -191 166 -172.5 Q 169 -154 176.5 -137 Q 184 -120 197 -105.5 Q 210 -91 226.5 -82 Q 243 -73 261.5 -69 Q 280 -65 299 -65 Z " id="path43"/>
<path d="M 123 0 L 123 -520 L 205 -520 L 205 -407 Q 212 -424 220.5 -440 Q 229 -456 240.5 -470.5 Q 252 -485 266.5 -496 Q 281 -507 297.5 -514.5 Q 314 -522 332 -525 Q 350 -528 369 -528 L 369 -447 Q 346 -447 324 -442.5 Q 302 -438 282 -427.5 Q 262 -417 246.5 -400 Q 231 -383 222 -363 Q 213 -343 209 -320.5 Q 205 -298 205 -276 L 205 0 Z " id="path44"/>
<path d="M 299 8 Q 274 8 250 5.5 Q 226 3 202.5 -4 Q 179 -11 157.5 -23.5 Q 136 -36 120 -54.5 Q 104 -73 95 -96.5 Q 86 -120 86 -144 L 86 -146 L 169 -146 Q 169 -132 175 -118.5 Q 181 -105 192 -95.5 Q 203 -86 216 -80.5 Q 229 -75 242.5 -71.5 Q 256 -68 270.5 -67 Q 285 -66 299 -66 Q 313 -66 326.5 -66.5 Q 340 -67 353.5 -70 Q 367 -73 380 -78 Q 393 -83 404 -91.5 Q 415 -100 422 -112.5 Q 429 -125 429 -138 Q 429 -151 423.5 -163.5 Q 418 -176 408.5 -185 Q 399 -194 387 -200 Q 375 -206 362.5 -209.5 Q 350 -213 337 -215 Q 324 -217 311 -218 L 310 -218 Q 285 -220 260.5 -224.5 Q 236 -229 212.5 -237 Q 189 -245 168 -259 Q 147 -273 130.5 -291.5 Q 114 -310 105 -334 Q 96 -358 96 -383 Q 96 -406 104.5 -428.5 Q 113 -451 128.5 -468.5 Q 144 -486 165 -498 Q 186 -510 208.5 -516.5 Q 231 -523 254.5 -525.5 Q 278 -528 301 -528 Q 325 -528 348.5 -525.5 Q 372 -523 395 -515.5 Q 418 -508 438.5 -495.5 Q 459 -483 474.5 -465 Q 490 -447 498 -424 Q 506 -401 506 -378 L 506 -375 L 423 -375 L 423 -376 Q 423 -397 410.5 -413.5 Q 398 -430 380 -439 Q 362 -448 341.5 -451 Q 321 -454 301 -454 Q 288 -454 275 -453 Q 262 -452 249 -449.5 Q 236 -447 223.5 -441.5 Q 211 -436 201 -428 Q 191 -420 185 -407.5 Q 179 -395 179 -382 Q 179 -363 190 -346.5 Q 201 -330 218 -321 Q 235 -312 253.5 -308 Q 272 -304 291 -302.5 Q 310 -301 329 -298.5 Q 348 -296 366.5 -291.5 Q 385 -287 403 -280 Q 421 -273 437 -263 Q 453 -253 467 -239.5 Q 481 -226 491 -210 Q 501 -194 506.5 -175.5 Q 512 -157 512 -138 Q 512 -114 503 -91 Q 494 -68 477.5 -50.5 Q 461 -33 439 -21.5 Q 417 -10 394 -3.5 Q 371 3 347 5.5 Q 323 8 299 8 Z " id="path45"/>
<path d="M 299 0 Q 281 0 263 -3 Q 245 -6 229 -14 Q 213 -22 200 -35 Q 187 -48 179 -64 Q 171 -80 168 -98 Q 165 -116 165 -134 L 165 -447 L 44 -447 L 44 -520 L 165 -520 L 165 -735 L 248 -735 L 248 -520 L 406 -520 L 406 -447 L 248 -447 L 248 -134 Q 248 -123 250.5 -111.5 Q 253 -100 259.5 -91 Q 266 -82 277 -78 Q 288 -74 299 -74 L 406 -74 L 406 0 Z " id="path46"/>
<path d="M 268 8 Q 242 8 215.5 1.5 Q 189 -5 167 -20 Q 145 -35 129 -57.5 Q 113 -80 104 -105 Q 95 -130 91.5 -156.5 Q 88 -183 88 -210 L 88 -520 L 171 -520 L 171 -210 Q 171 -192 173.5 -173.5 Q 176 -155 183 -138 Q 190 -121 202 -106.5 Q 214 -92 229.5 -82.5 Q 245 -73 263.5 -69.5 Q 282 -66 300 -66 Q 318 -66 336.5 -69.5 Q 355 -73 370.5 -82.5 Q 386 -92 398 -106.5 Q 410 -121 417 -138 Q 424 -155 426.5 -173.5 Q 429 -192 429 -210 L 429 -520 L 512 -520 L 512 0 L 429 0 L 429 -96 Q 419 -72 403 -51.5 Q 387 -31 366 -17.5 Q 345 -4 319.5 2 Q 294 8 268 8 Z " id="path47"/>
<path d="M 252 0 L 60 -520 L 150 -520 L 270 -173 Q 278 -151 285.5 -128.5 Q 293 -106 300 -83 Q 307 -106 314.5 -128.5 Q 322 -151 330 -173 L 450 -520 L 540 -520 L 348 0 Z " id="path48"/>
<path d="M 195 0 L 72 -520 L 156 -520 L 238 -99 L 333 -520 L 417 -520 L 512 -99 L 594 -520 L 678 -520 L 555 0 L 472 0 L 375 -428 L 278 0 Z " id="path49"/>
<path d="M 76 0 L 253 -260 L 76 -520 L 177 -520 L 300 -331 L 423 -520 L 524 -520 L 347 -260 L 524 0 L 423 0 L 300 -189 L 177 0 Z " id="path50"/>
<path d="M 178 215 Q 191 180 203.5 144.5 Q 216 109 229 74 L 257 -3 L 70 -520 L 157 -520 L 300 -109 L 443 -520 L 530 -520 L 265 215 Z " id="path51"/>
<path d="M 88 0 L 88 -74 L 419 -447 L 88 -447 L 88 -520 L 512 -520 L 512 -447 L 181 -73 L 512 -73 L 512 0 Z " id="path52"/>
<path d="M 184 -260 L 184 -735 L 266 -735 L 266 -260 Z M 225 8 Q 211 8 197 4 Q 183 0 173 -10.5 Q 163 -21 159 -34.5 Q 155 -48 155 -63 Q 155 -77 159 -90.5 Q 163 -104 173 -114.5 Q 183 -125 197 -129 Q 211 -133 225 -133 Q 239 -133 253 -129 Q 267 -125 277 -114.5 Q 287 -104 291.5 -90.5 Q 296 -77 296 -63 Q 296 -48 291.5 -34.5 Q 287 -21 277 -10.5 Q 267 0 253 4 Q 239 8 225 8 Z " id="path53"/>
<path d="M 289 0 L 289 -640 L 156 -543 L 107 -602 L 289 -735 L 371 -735 L 371 0 Z " id="path54"/>
<path d="M 182 0 L 425 -662 L 88 -662 L 88 -735 L 512 -735 L 512 -662 L 269 0 Z " id="path55"/>
<path d="M 259 143 L 259 -823 L 341 -823 L 341 143 Z " id="path56"/>
<path d="M 259 -386 L 259 -823 L 341 -823 L 341 -386 Z M 259 143 L 259 -294 L 341 -294 L 341 143 Z " id="path57"/>
<path d="M 259 107 L 259 -37 L 265 -37 L 265 -483 L 259 -483 L 259 -628 L 341 -628 L 341 -483 L 335 -483 L 335 -37 L 341 -37 L 341 107 Z M 298 8 Q 268 8 239 3 Q 210 -2 184 -15 Q 158 -28 137 -49.5 Q 116 -71 103 -97 Q 90 -123 85 -152 Q 80 -181 80 -210 L 80 -310 Q 80 -339 85 -368 Q 90 -397 103 -423 Q 116 -449 137 -470.5 Q 158 -492 184 -505 Q 210 -518 239 -523 Q 268 -528 298 -528 Q 325 -528 351.5 -524 Q 378 -520 403 -509.5 Q 428 -499 449.5 -482 Q 471 -465 485 -442.5 Q 499 -420 506.5 -393.5 Q 514 -367 514 -340 L 431 -340 Q 431 -365 420.5 -388.5 Q 410 -412 391 -427 Q 372 -442 347 -448 Q 322 -454 298 -454 Q 279 -454 260.5 -450.5 Q 242 -447 225.5 -438 Q 209 -429 196.5 -414.5 Q 184 -400 176 -383 Q 168 -366 165.5 -347.5 Q 163 -329 163 -310 L 163 -210 Q 163 -191 165.5 -172.5 Q 168 -154 176 -137 Q 184 -120 196.5 -105.5 Q 209 -91 225.5 -82 Q 242 -73 260.5 -69.5 Q 279 -66 298 -66 Q 322 -66 347 -72 Q 372 -78 391 -93 Q 410 -108 420.5 -131.5 Q 431 -155 431 -180 L 514 -180 Q 514 -153 506.5 -126.5 Q 499 -100 485 -77.5 Q 471 -55 449.5 -38 Q 428 -21 403 -10.5 Q 378 0 351.5 4 Q 325 8 298 8 Z " id="path58"/>
<path d="M 300 8 Q 271 8 241.5 3 Q 212 -2 186 -15 Q 160 -28 138.5 -49 Q 117 -70 103.5 -96 Q 90 -122 85 -151.5 Q 80 -181 80 -210 L 80 -525 Q 80 -554 85 -583.5 Q 90 -613 103.5 -639 Q 117 -665 138.5 -686 Q 160 -707 186 -720 Q 212 -733 241.5 -738 Q 271 -743 300 -743 Q 329 -743 358.5 -738 Q 388 -733 414 -720 Q 440 -707 461.5 -686 Q 483 -665 496.5 -639 Q 510 -613 515 -583.5 Q 520 -554 520 -525 L 520 -210 Q 520 -181 515 -151.5 Q 510 -122 496.5 -96 Q 483 -70 461.5 -49 Q 440 -28 414 -15 Q 388 -2 358.5 3 Q 329 8 300 8 Z M 163 -322 L 437 -504 L 437 -525 Q 437 -544 434 -562.5 Q 431 -581 423 -598.5 Q 415 -616 402.5 -630 Q 390 -644 373 -653 Q 356 -662 337.5 -666 Q 319 -670 300 -670 Q 281 -670 262.5 -666 Q 244 -662 227 -653 Q 210 -644 197.5 -630 Q 185 -616 177 -598.5 Q 169 -581 166 -562.5 Q 163 -544 163 -525 Z M 300 -66 Q 319 -66 337.5 -69.5 Q 356 -73 373 -82 Q 390 -91 402.5 -105 Q 415 -119 423 -136.5 Q 431 -154 434 -172.5 Q 437 -191 437 -210 L 437 -413 L 163 -231 L 163 -210 Q 163 -191 166 -172.5 Q 169 -154 177 -136.5 Q 185 -119 197.5 -105 Q 210 -91 227 -82 Q 244 -73 262.5 -69.5 Q 281 -66 300 -66 Z " id="path59"/>
<path d="M 300 8 Q 273 8 246.5 4.5 Q 220 1 195 -8.5 Q 170 -18 148 -34 Q 126 -50 110.5 -72.5 Q 95 -95 87.5 -121 Q 80 -147 80 -173 Q 80 -206 91.5 -237 Q 103 -268 122.5 -294 Q 142 -320 167.5 -340 Q 193 -360 222 -376 Q 196 -393 173.5 -412.5 Q 151 -432 134 -456.5 Q 117 -481 107 -510 Q 97 -539 97 -569 Q 97 -594 104 -618.5 Q 111 -643 124.5 -664 Q 138 -685 158 -701 Q 178 -717 201.5 -726.5 Q 225 -736 250 -739.5 Q 275 -743 300 -743 Q 325 -743 350 -739.5 Q 375 -736 398.5 -726.5 Q 422 -717 442 -701 Q 462 -685 475.5 -664 Q 489 -643 496 -618.5 Q 503 -594 503 -569 Q 503 -539 493 -510 Q 483 -481 466 -456.5 Q 449 -432 426.5 -412.5 Q 404 -393 378 -376 Q 407 -360 432.5 -340 Q 458 -320 477.5 -294 Q 497 -268 508.5 -237 Q 520 -206 520 -173 Q 520 -147 512.5 -121 Q 505 -95 489.5 -72.5 Q 474 -50 452 -34 Q 430 -18 405 -8.5 Q 380 1 353.5 4.5 Q 327 8 300 8 Z M 300 -418 Q 322 -430 343.5 -444 Q 365 -458 382 -476.5 Q 399 -495 409.5 -518.5 Q 420 -542 420 -567 Q 420 -590 410.5 -611 Q 401 -632 383.5 -645.5 Q 366 -659 344 -664 Q 322 -669 300 -669 Q 278 -669 256 -664 Q 234 -659 216.5 -645.5 Q 199 -632 189.5 -611 Q 180 -590 180 -567 Q 180 -542 190.5 -518.5 Q 201 -495 218 -476.5 Q 235 -458 256.5 -444 Q 278 -430 300 -418 Z M 300 -66 Q 325 -66 349.5 -71 Q 374 -76 394 -90 Q 414 -104 425.5 -127 Q 437 -150 437 -175 Q 437 -203 424.5 -228 Q 412 -253 392.5 -272.5 Q 373 -292 349 -306.5 Q 325 -321 300 -333 Q 275 -321 251 -306.5 Q 227 -292 207.5 -272.5 Q 188 -253 175.5 -228 Q 163 -203 163 -175 Q 163 -150 174.5 -127 Q 186 -104 206 -90 Q 226 -76 250.5 -71 Q 275 -66 300 -66 Z " id="path60"/>
<path d="M 259 107 L 259 -74 L 265 -74 L 265 -662 L 259 -662 L 259 -843 L 341 -843 L 341 -662 L 335 -662 L 335 -74 L 341 -74 L 341 107 Z M 299 -29 Q 272 -29 245.5 -32.5 Q 219 -36 194 -45 Q 169 -54 147 -69.5 Q 125 -85 109.5 -106.5 Q 94 -128 86 -154 Q 78 -180 78 -207 L 78 -213 L 161 -213 L 161 -209 Q 161 -185 173 -162.5 Q 185 -140 205 -126 Q 225 -112 249.5 -107 Q 274 -102 299 -102 Q 323 -102 347 -106.5 Q 371 -111 391.5 -123.5 Q 412 -136 425 -157.5 Q 438 -179 438 -203 Q 438 -225 428 -245 Q 418 -265 401.5 -279.5 Q 385 -294 365.5 -303 Q 346 -312 325 -318.5 Q 304 -325 283.5 -330.5 Q 263 -336 242.5 -344 Q 222 -352 202.5 -362 Q 183 -372 166 -385 Q 149 -398 134.5 -414 Q 120 -430 109.5 -449 Q 99 -468 93.5 -489.5 Q 88 -511 88 -532 Q 88 -558 95.5 -583 Q 103 -608 118 -629.5 Q 133 -651 154 -666 Q 175 -681 199.5 -690.5 Q 224 -700 249.5 -703 Q 275 -706 301 -706 Q 327 -706 353 -702.5 Q 379 -699 403 -690 Q 427 -681 448.5 -665 Q 470 -649 484.5 -627.5 Q 499 -606 506.5 -581 Q 514 -556 514 -530 L 514 -523 L 431 -523 L 431 -527 Q 431 -551 420.5 -573 Q 410 -595 391 -608.5 Q 372 -622 348.5 -627.5 Q 325 -633 301 -633 Q 278 -633 255 -628 Q 232 -623 212.5 -610.5 Q 193 -598 181.5 -576.5 Q 170 -555 170 -532 Q 170 -506 184 -483 Q 198 -460 219.5 -445 Q 241 -430 266 -422 Q 291 -414 316 -407 Q 341 -400 365.5 -391 Q 390 -382 412.5 -369.5 Q 435 -357 455 -339.5 Q 475 -322 489.5 -300.5 Q 504 -279 512 -254 Q 520 -229 520 -203 Q 520 -177 512 -151 Q 504 -125 488 -104 Q 472 -83 450 -68 Q 428 -53 403 -44 Q 378 -35 351.5 -32 Q 325 -29 299 -29 Z " id="path61"/>
<path d="M 302 8 Q 276 8 250.5 4 Q 225 -0 201.5 -9.5 Q 178 -19 157.5 -35 Q 137 -51 122.5 -72 Q 108 -93 99 -117.5 Q 90 -142 87 -167 L 87 -175 L 170 -175 L 171 -169 Q 174 -146 185.5 -125.5 Q 197 -105 215 -91 Q 233 -77 256 -71.5 Q 279 -66 302 -66 Q 322 -66 342 -71 Q 362 -76 379 -88 Q 396 -100 407.5 -117.5 Q 419 -135 425.5 -154.5 Q 432 -174 434.5 -194.5 Q 437 -215 437 -235 Q 437 -256 435 -276 Q 433 -296 426.5 -315.5 Q 420 -335 408.5 -352 Q 397 -369 381 -381.5 Q 365 -394 345 -399.5 Q 325 -405 305 -405 Q 282 -405 260 -400 Q 238 -395 220 -381.5 Q 202 -368 191.5 -347.5 Q 181 -327 179 -304 L 97 -304 L 97 -735 L 491 -735 L 491 -662 L 179 -662 L 179 -448 Q 207 -465 239.5 -471.5 Q 272 -478 305 -478 Q 336 -478 366 -471.5 Q 396 -465 422.5 -449 Q 449 -433 468.5 -408.5 Q 488 -384 499.5 -355.5 Q 511 -327 515.5 -296.5 Q 520 -266 520 -235 Q 520 -204 515.5 -173 Q 511 -142 499 -113.5 Q 487 -85 467 -61 Q 447 -37 420.5 -21 Q 394 -5 363.5 1.5 Q 333 8 302 8 Z " id="path62"/>
<path d="M 88 0 L 88 -1 Q 88 -30 89 -58.5 Q 90 -87 95 -115 Q 100 -143 109.5 -170 Q 119 -197 133.5 -221.5 Q 148 -246 167 -267.5 Q 186 -289 208 -307 Q 230 -325 254.5 -340.5 Q 279 -356 304 -369.5 Q 329 -383 353 -398.5 Q 377 -414 395.5 -435.5 Q 414 -457 423.5 -484.5 Q 433 -512 433 -541 Q 433 -567 425 -592.5 Q 417 -618 398 -636 Q 379 -654 353 -661.5 Q 327 -669 301 -669 Q 276 -669 252 -663.5 Q 228 -658 209 -643.5 Q 190 -629 179.5 -606 Q 169 -583 169 -559 L 169 -557 L 86 -557 L 86 -560 Q 86 -587 93.5 -612.5 Q 101 -638 115.5 -660.5 Q 130 -683 151 -699.5 Q 172 -716 196.5 -726 Q 221 -736 247.5 -739.5 Q 274 -743 301 -743 Q 329 -743 357 -738.5 Q 385 -734 410.5 -722.5 Q 436 -711 457 -692 Q 478 -673 491.5 -648.5 Q 505 -624 510.5 -596.5 Q 516 -569 516 -541 Q 516 -510 508.5 -480.5 Q 501 -451 485 -425 Q 469 -399 446.5 -378 Q 424 -357 398.5 -340 Q 373 -323 346.5 -308 Q 320 -293 295.5 -275 Q 271 -257 249.5 -235.5 Q 228 -214 212 -188 Q 196 -162 186.5 -133 Q 177 -104 174 -74 L 512 -74 L 512 0 Z " id="path63"/>
<path d="M 205 0 L 334 -211 Q 348 -234 363 -257.5 Q 378 -281 393 -305 Q 371 -294 346.5 -290 Q 322 -286 298 -286 Q 268 -286 238.5 -292 Q 209 -298 182.5 -312 Q 156 -326 135.5 -348.5 Q 115 -371 102.5 -398 Q 90 -425 85 -455 Q 80 -485 80 -514 Q 80 -545 85 -574.5 Q 90 -604 102.5 -631.5 Q 115 -659 136 -681 Q 157 -703 183.5 -717.5 Q 210 -732 240 -737.5 Q 270 -743 300 -743 Q 332 -743 363 -736 Q 394 -729 421 -712.5 Q 448 -696 467.5 -671 Q 487 -646 499 -616.5 Q 511 -587 515.5 -555.5 Q 520 -524 520 -492 Q 520 -449 511 -406.5 Q 502 -364 486 -324.5 Q 470 -285 448.5 -247.5 Q 427 -210 405 -173 L 404 -172 L 299 0 Z M 300 -360 Q 329 -360 357.5 -370.5 Q 386 -381 404.5 -404 Q 423 -427 430 -456 Q 437 -485 437 -514 Q 437 -544 430 -573 Q 423 -602 404.5 -625 Q 386 -648 357.5 -658.5 Q 329 -669 300 -669 Q 271 -669 242.5 -658.5 Q 214 -648 195.5 -625 Q 177 -602 170 -573 Q 163 -544 163 -515 Q 163 -485 170 -456 Q 177 -427 195.5 -404 Q 214 -381 242 -370.5 Q 270 -360 300 -360 Z " id="path64"/>
<path d="M 300 8 Q 268 8 237 1 Q 206 -6 179 -22.5 Q 152 -39 132.5 -64 Q 113 -89 101 -118.5 Q 89 -148 84.5 -179.5 Q 80 -211 80 -243 Q 80 -286 89 -328.5 Q 98 -371 114 -410.5 Q 130 -450 151.5 -487.5 Q 173 -525 195 -562 L 196 -563 L 301 -735 L 395 -735 L 266 -524 Q 252 -501 237 -477.5 Q 222 -454 207 -430 Q 229 -441 253.5 -445 Q 278 -449 302 -449 Q 332 -449 361.5 -443 Q 391 -437 417.5 -423 Q 444 -409 464.5 -386.5 Q 485 -364 497.5 -337 Q 510 -310 515 -280 Q 520 -250 520 -221 Q 520 -190 515 -160.5 Q 510 -131 497.5 -103.5 Q 485 -76 464 -54 Q 443 -32 416.5 -17.5 Q 390 -3 360 2.5 Q 330 8 300 8 Z M 300 -66 Q 329 -66 357.5 -76.5 Q 386 -87 404.5 -110 Q 423 -133 430 -162 Q 437 -191 437 -220 Q 437 -250 430 -279 Q 423 -308 404.5 -331 Q 386 -354 358 -364.5 Q 330 -375 300 -375 Q 271 -375 242.5 -364.5 Q 214 -354 195.5 -331 Q 177 -308 170 -279 Q 163 -250 163 -221 Q 163 -191 170 -162 Q 177 -133 195.5 -110 Q 214 -87 242.5 -76.5 Q 271 -66 300 -66 Z " id="path65"/>
<path d="M 88 215 L 88 -520 L 171 -520 L 171 -210 Q 171 -192 173.5 -173.5 Q 176 -155 183 -138 Q 190 -121 202 -106.5 Q 214 -92 229.5 -82.5 Q 245 -73 263.5 -69.5 Q 282 -66 300 -66 Q 327 -66 353 -75 Q 379 -84 396.5 -104.5 Q 414 -125 421.5 -151.5 Q 429 -178 429 -205 L 429 -520 L 512 -520 L 512 0 L 429 0 L 429 -96 Q 419 -72 403 -51.5 Q 387 -31 366 -17.5 Q 345 -4 319.5 2 Q 294 8 268 8 Q 242 8 216.5 2 Q 191 -4 169 -19 Q 170 13 170.5 44.5 Q 171 76 171 107 L 171 215 Z " id="path66"/>
<path d="M 156 143 L 156 -823 L 470 -823 L 470 -750 L 239 -750 L 239 69 L 470 69 L 470 143 Z " id="path67"/>
<path d="M 130 143 L 130 69 L 361 69 L 361 -750 L 130 -750 L 130 -823 L 444 -823 L 444 143 Z " id="path68"/>
<path d="M 88 -405 L 88 -479 L 512 -479 L 512 -405 Z M 512 -201 L 88 -201 L 88 -275 L 512 -275 Z " id="path69"/>
<path d="M 470 153 Q 440 153 411 149.5 Q 382 146 354 138 Q 326 130 300 116 Q 274 102 253.5 81 Q 233 60 222.5 32 Q 212 4 212 -25 Q 212 -41 214.5 -56 Q 217 -71 222 -85.5 Q 227 -100 234 -113.5 Q 241 -127 248.5 -140.5 Q 256 -154 261 -169 Q 266 -184 266 -199 Q 266 -217 259.5 -233.5 Q 253 -250 240.5 -262.5 Q 228 -275 212 -283 Q 196 -291 179 -295.5 Q 162 -300 144.5 -301.5 Q 127 -303 109 -303 L 109 -377 Q 127 -377 144.5 -378.5 Q 162 -380 179 -384.5 Q 196 -389 212 -397 Q 228 -405 240.5 -417.5 Q 253 -430 259.5 -446.5 Q 266 -463 266 -481 Q 266 -496 261 -511 Q 256 -526 248.5 -539.5 Q 241 -553 234 -566.5 Q 227 -580 222 -594.5 Q 217 -609 214.5 -624 Q 212 -639 212 -655 Q 212 -684 222.5 -712 Q 233 -740 253.5 -761 Q 274 -782 300 -796 Q 326 -810 354 -818 Q 382 -826 411 -829.5 Q 440 -833 470 -833 L 470 -759 Q 451 -759 432 -757.5 Q 413 -756 394.5 -751.5 Q 376 -747 358.5 -739.5 Q 341 -732 326.5 -720 Q 312 -708 303.5 -691 Q 295 -674 295 -655 Q 295 -637 302 -620 Q 309 -603 317 -587 L 318 -586 Q 331 -562 340 -535.5 Q 349 -509 349 -481 Q 349 -457 341.5 -433.5 Q 334 -410 318 -391.5 Q 302 -373 281.5 -360.5 Q 261 -348 238 -340 Q 261 -332 281.5 -319.5 Q 302 -307 318 -288.5 Q 334 -270 341.5 -246.5 Q 349 -223 349 -199 Q 349 -171 340 -144.5 Q 331 -118 318 -94 L 317 -93 Q 309 -77 302 -60 Q 295 -43 295 -25 Q 295 -6 303.5 11 Q 312 28 326.5 40 Q 341 52 358.5 59.5 Q 376 67 394.5 71.5 Q 413 76 432 77.5 Q 451 79 470 79 Z " id="path70"/>
<path d="M 88 -303 L 88 -377 L 362 -377 L 362 -303 Z " id="path71"/>
<path d="M 82 143 L 432 -823 L 518 -823 L 168 143 Z " id="path72"/>
<path d="M 303 8 Q 275 8 247.5 4.5 Q 220 1 194.5 -9 Q 169 -19 147 -36 Q 125 -53 109.5 -75.5 Q 94 -98 86 -125 Q 78 -152 78 -179 L 78 -181 L 161 -181 L 161 -180 Q 161 -154 172.5 -130.5 Q 184 -107 205 -92 Q 226 -77 251.5 -71.5 Q 277 -66 303 -66 Q 330 -66 356.5 -73 Q 383 -80 404 -97.5 Q 425 -115 435 -141 Q 445 -167 445 -194 Q 445 -217 438.5 -239 Q 432 -261 418.5 -279 Q 405 -297 386.5 -310.5 Q 368 -324 347 -331.5 Q 326 -339 303 -341 Q 280 -343 258 -343 L 258 -416 Q 278 -416 299 -417.5 Q 320 -419 339.5 -426 Q 359 -433 376 -445 Q 393 -457 405 -474 Q 417 -491 423 -511 Q 429 -531 429 -552 Q 429 -577 420 -600 Q 411 -623 393 -639.5 Q 375 -656 351 -662.5 Q 327 -669 303 -669 Q 279 -669 256 -663.5 Q 233 -658 214.5 -643 Q 196 -628 186.5 -606 Q 177 -584 177 -560 L 177 -558 L 94 -558 L 94 -562 Q 94 -588 101 -613.5 Q 108 -639 122 -660.5 Q 136 -682 156.5 -699 Q 177 -716 201 -726 Q 225 -736 251 -739.5 Q 277 -743 303 -743 Q 329 -743 355.5 -739 Q 382 -735 406.5 -724 Q 431 -713 451.5 -695.5 Q 472 -678 485.5 -655 Q 499 -632 505.5 -606 Q 512 -580 512 -554 Q 512 -526 504 -499 Q 496 -472 480.5 -449 Q 465 -426 443 -408.5 Q 421 -391 395 -380 Q 424 -370 449 -351.5 Q 474 -333 492 -308 Q 510 -283 519 -253 Q 528 -223 528 -193 Q 528 -164 520.5 -136.5 Q 513 -109 498.5 -84.5 Q 484 -60 462 -41.5 Q 440 -23 414 -12 Q 388 -1 359.5 3.5 Q 331 8 303 8 Z " id="path73"/>
<path d="M 354 0 L 354 -193 L 80 -193 L 80 -266 L 349 -735 L 442 -735 L 173 -266 L 354 -266 L 354 -442 L 437 -442 L 437 -266 L 512 -266 L 512 -193 L 437 -193 L 437 0 Z " id="path74"/>
<path d="M 190 215 L 130 170 Q 162 134 188.5 94 Q 215 54 228 8 L 224 8 Q 209 8 193.5 3 Q 178 -2 167 -13 Q 156 -24 151.5 -39 Q 147 -54 147 -70 Q 147 -86 151.5 -101 Q 156 -116 167.5 -127.5 Q 179 -139 194 -143.5 Q 209 -148 225 -148 Q 241 -148 257 -143 Q 273 -138 284 -126.5 Q 295 -115 299 -99 Q 303 -83 303 -67 Q 303 -28 294 10 Q 285 48 270 83.5 Q 255 119 234.5 152 Q 214 185 190 215 Z " id="path75"/>
<path d="M 259 -120 L 259 -303 L 88 -303 L 88 -377 L 259 -377 L 259 -560 L 341 -560 L 341 -377 L 512 -377 L 512 -303 L 341 -303 L 341 -120 Z " id="path76"/>
<path d="M 160 -383 Q 137 -383 113.5 -388.5 Q 90 -394 71.5 -409 Q 53 -424 44.5 -446.5 Q 36 -469 36 -493 L 36 -633 Q 36 -656 44.5 -679 Q 53 -702 71.5 -716.5 Q 90 -731 113.5 -737 Q 137 -743 160 -743 Q 184 -743 207.5 -737 Q 231 -731 249 -716.5 Q 267 -702 276 -679 Q 285 -656 285 -633 L 285 -493 Q 285 -469 276 -446.5 Q 267 -424 249 -409 Q 231 -394 207.5 -388.5 Q 184 -383 160 -383 Z M 44 0 L 260 -368 L 460 -735 L 556 -735 L 340 -368 L 140 0 Z M 160 -456 Q 168 -456 176 -458 Q 184 -460 190 -465 Q 196 -470 199 -477.5 Q 202 -485 202 -493 L 202 -633 Q 202 -641 199 -648.5 Q 196 -656 190 -661 Q 184 -666 176 -668 Q 168 -670 160 -670 Q 152 -670 144.5 -668 Q 137 -666 131 -661 Q 125 -656 122 -648.5 Q 119 -641 119 -633 L 119 -493 Q 119 -485 122 -477.5 Q 125 -470 131 -465 Q 137 -460 144.5 -458 Q 152 -456 160 -456 Z M 440 8 Q 416 8 392.5 2 Q 369 -4 351 -18.5 Q 333 -33 324 -56 Q 315 -79 315 -102 L 315 -242 Q 315 -266 324 -288.5 Q 333 -311 351 -326 Q 369 -341 392.5 -346.5 Q 416 -352 440 -352 Q 463 -352 486.5 -346.5 Q 510 -341 528.5 -326 Q 547 -311 555.5 -288.5 Q 564 -266 564 -242 L 564 -102 Q 564 -79 555.5 -56 Q 547 -33 528.5 -18.5 Q 510 -4 486.5 2 Q 463 8 440 8 Z M 440 -66 Q 448 -66 455.5 -67.5 Q 463 -69 469 -74 Q 475 -79 478 -86.5 Q 481 -94 481 -102 L 481 -242 Q 481 -250 478 -257.5 Q 475 -265 469 -270 Q 463 -275 455.5 -277 Q 448 -279 440 -279 Q 432 -279 424 -277 Q 416 -275 410 -270 Q 404 -265 401 -257.5 Q 398 -250 398 -242 L 398 -102 Q 398 -94 401 -86.5 Q 404 -79 410 -74 Q 416 -69 424 -67.5 Q 432 -66 440 -66 Z " id="path77"/>
<path d="M 130 153 L 130 79 Q 149 79 168 77.5 Q 187 76 205.5 71.5 Q 224 67 241.5 59.5 Q 259 52 273.5 40 Q 288 28 296.5 11 Q 305 -6 305 -25 Q 305 -43 298 -60 Q 291 -77 283 -93 L 282 -94 Q 269 -118 260 -144.5 Q 251 -171 251 -199 Q 251 -223 258.5 -246.5 Q 266 -270 282 -288.5 Q 298 -307 318.5 -319.5 Q 339 -332 362 -340 Q 339 -348 318.5 -360.5 Q 298 -373 282 -391.5 Q 266 -410 258.5 -433.5 Q 251 -457 251 -481 Q 251 -509 260 -535.5 Q 269 -562 282 -586 L 283 -587 Q 291 -603 298 -620 Q 305 -637 305 -655 Q 305 -674 296.5 -691 Q 288 -708 273.5 -720 Q 259 -732 241.5 -739.5 Q 224 -747 205.5 -751.5 Q 187 -756 168 -757.5 Q 149 -759 131 -759 L 130 -833 Q 160 -833 189 -829.5 Q 218 -826 246 -818 Q 274 -810 300 -796 Q 326 -782 346.5 -761 Q 367 -740 377.5 -712 Q 388 -684 388 -655 Q 388 -639 385.5 -624 Q 383 -609 378 -594.5 Q 373 -580 366 -566.5 Q 359 -553 351.5 -539.5 Q 344 -526 339 -511 Q 334 -496 334 -481 Q 334 -463 340.5 -446.5 Q 347 -430 359.5 -417.5 Q 372 -405 388 -397 Q 404 -389 421 -384.5 Q 438 -380 455.5 -378.5 Q 473 -377 491 -377 L 491 -303 Q 473 -303 455.5 -301.5 Q 438 -300 421 -295.5 Q 404 -291 388 -283 Q 372 -275 359.5 -262.5 Q 347 -250 340.5 -233.5 Q 334 -217 334 -199 Q 334 -184 339 -169 Q 344 -154 351.5 -140.5 Q 359 -127 366 -113.5 Q 373 -100 378 -85.5 Q 383 -71 385.5 -56 Q 388 -41 388 -25 Q 388 4 377.5 32 Q 367 60 346.5 81 Q 326 102 300 116 Q 274 130 246 138 Q 218 146 189 149.5 Q 160 153 131 153 Z " id="path78"/>
<path d="M 190 215 L 130 170 Q 162 134 188.5 94 Q 215 54 228 8 L 224 8 Q 209 8 193.5 3 Q 178 -2 167 -13 Q 156 -24 151.5 -39 Q 147 -54 147 -70 Q 147 -86 151.5 -101 Q 156 -116 167.5 -127.5 Q 179 -139 194 -143.5 Q 209 -148 225 -148 Q 241 -148 257 -143 Q 273 -138 284 -126.5 Q 295 -115 299 -99 Q 303 -83 303 -67 Q 303 -28 294 10 Q 285 48 270 83.5 Q 255 119 234.5 152 Q 214 185 190 215 Z M 225 -372 Q 209 -372 194 -376.5 Q 179 -381 167.5 -392.5 Q 156 -404 151.5 -419 Q 147 -434 147 -450 Q 147 -466 151.5 -481 Q 156 -496 167.5 -507.5 Q 179 -519 194 -523.5 Q 209 -528 225 -528 Q 241 -528 256 -523.5 Q 271 -519 282.5 -507.5 Q 294 -496 298.5 -481 Q 303 -466 303 -450 Q 303 -434 298.5 -419 Q 294 -404 282.5 -392.5 Q 271 -381 256 -376.5 Q 241 -372 225 -372 Z " id="path79"/>
<path d="M 88 73 L 88 0 L 512 0 L 512 73 Z " id="path80"/>
<path d="M 110 -48 L 66 -110 L 441 -340 L 66 -570 L 110 -632 L 512 -383 L 512 -297 Z " id="path81"/>
<path d="M 490 -48 L 229 -210 L 88 -297 L 88 -383 L 490 -632 L 534 -570 L 159 -340 L 534 -110 Z " id="path82"/>
<path d="M 466 -84 Q 449 -120 429 -153.5 Q 409 -187 384.5 -217.5 Q 360 -248 331 -274.5 Q 302 -301 268 -322 L 268 -358 Q 302 -379 331 -405.5 Q 360 -432 384.5 -462.5 Q 409 -493 429 -526.5 Q 449 -560 466 -596 L 537 -567 Q 508 -504 468.5 -446.5 Q 429 -389 377 -344 L 372 -340 Q 426 -294 466.5 -235.5 Q 507 -177 537 -113 Z M 254 -84 Q 237 -120 217 -153.5 Q 197 -187 172.5 -217.5 Q 148 -248 119 -274.5 Q 90 -301 56 -322 L 56 -358 Q 90 -379 119 -405.5 Q 148 -432 172.5 -462.5 Q 197 -493 217 -526.5 Q 237 -560 254 -596 L 325 -567 Q 296 -504 256.5 -446.5 Q 217 -389 165 -344 L 160 -340 Q 214 -294 254.5 -235.5 Q 295 -177 325 -113 Z " id="path83"/>
<path d="M 397 -636 L 53 -636 L 53 -704 L 397 -704 Z " id="path84"/>
<path d="M 429 -107 L 429 -303 L 88 -303 L 88 -377 L 512 -377 L 512 -107 Z " id="path85"/>
<path d="M 346 -84 L 275 -113 Q 304 -176 343.5 -233.5 Q 383 -291 435 -336 L 440 -340 Q 386 -386 345.5 -444.5 Q 305 -503 275 -567 L 346 -596 Q 363 -560 383 -526.5 Q 403 -493 427.5 -462.5 Q 452 -432 481 -405.5 Q 510 -379 544 -358 L 544 -322 Q 510 -301 481 -274.5 Q 452 -248 427.5 -217.5 Q 403 -187 383 -153.5 Q 363 -120 346 -84 Z M 134 -84 L 63 -113 Q 92 -176 131.5 -233.5 Q 171 -291 223 -336 L 228 -340 Q 174 -386 133.5 -444.5 Q 93 -503 63 -567 L 134 -596 Q 151 -560 171 -526.5 Q 191 -493 215.5 -462.5 Q 240 -432 269 -405.5 Q 298 -379 332 -358 L 332 -322 Q 298 -301 269 -274.5 Q 240 -248 215.5 -217.5 Q 191 -187 171 -153.5 Q 151 -120 134 -84 Z " id="path86"/>
<path d="M 382 -186 Q 375 -186 367.5 -187.5 Q 360 -189 353.5 -191 Q 347 -193 340.5 -196.5 Q 334 -200 328 -204 Q 322 -208 317 -212.5 Q 312 -217 307 -222.5 Q 302 -228 297 -233.5 Q 292 -239 288 -245 Q 284 -251 279.5 -256.5 Q 275 -262 271.5 -268 Q 268 -274 263.5 -280.5 Q 259 -287 254 -293.5 Q 249 -300 245 -305.5 Q 241 -311 237 -316 Q 233 -321 226 -328 L 218 -334 L 213 -330 Q 207 -326 203.5 -322 Q 200 -318 195.5 -313 Q 191 -308 189 -305 Q 187 -302 185 -299 Q 183 -296 180.5 -292.5 Q 178 -289 175.5 -285 Q 173 -281 170.5 -277 Q 168 -273 165.5 -268.5 Q 163 -264 160.5 -259 Q 158 -254 155 -248.5 Q 152 -243 149.5 -237.5 Q 147 -232 144 -226 Q 141 -220 138 -213.5 Q 135 -207 132 -200.5 Q 129 -194 126 -186 L 50 -216 Q 55 -227 60 -238 Q 65 -249 69.5 -258.5 Q 74 -268 79 -277.5 Q 84 -287 88.5 -295 Q 93 -303 97.5 -311 Q 102 -319 106.5 -325.5 Q 111 -332 115.5 -338.5 Q 120 -345 124.5 -351 Q 129 -357 136 -365 Q 143 -373 150 -379 Q 157 -385 164.5 -390 Q 172 -395 181 -399 Q 190 -403 199 -405 Q 208 -407 218 -407 Q 225 -407 232.5 -406 Q 240 -405 246.5 -402.5 Q 253 -400 259.5 -397 Q 266 -394 272 -389.5 Q 278 -385 283 -380.5 Q 288 -376 293 -371 Q 298 -366 303 -360.5 Q 308 -355 312 -349 Q 316 -343 320.5 -337.5 Q 325 -332 328.5 -326 Q 332 -320 336.5 -313.5 Q 341 -307 346 -300.5 Q 351 -294 355 -288.5 Q 359 -283 363 -278 Q 367 -273 375 -267 L 382 -260 L 388 -264 Q 393 -268 396.5 -271.5 Q 400 -275 404.5 -280.5 Q 409 -286 411 -289 Q 413 -292 415 -295 Q 417 -298 419.5 -301.5 Q 422 -305 424.5 -309 Q 427 -313 429.5 -317 Q 432 -321 434.5 -325.5 Q 437 -330 439.5 -335 Q 442 -340 445 -345.5 Q 448 -351 450.5 -356.5 Q 453 -362 456 -368 Q 459 -374 462 -380.5 Q 465 -387 468 -393.5 Q 471 -400 474 -407 L 550 -378 Q 545 -366 540 -355.5 Q 535 -345 530.5 -335 Q 526 -325 521 -316 Q 516 -307 511.5 -298.5 Q 507 -290 502.5 -282.5 Q 498 -275 493.5 -268 Q 489 -261 484.5 -255 Q 480 -249 475.5 -243 Q 471 -237 464 -229 Q 457 -221 450 -215 Q 443 -209 435.5 -203.5 Q 428 -198 419 -194.5 Q 410 -191 401 -188.5 Q 392 -186 382 -186 Z " id="path87"/>
<path d="M 44 -303 L 44 -377 L 556 -377 L 556 -303 Z " id="path88"/>
<path d="M 300 -482 Q 286 -482 272 -486 Q 258 -490 248 -500 Q 238 -510 234 -524 Q 230 -538 230 -552 Q 230 -566 234 -580 Q 238 -594 248 -604 Q 258 -614 272 -618.5 Q 286 -623 300 -623 Q 314 -623 328 -618.5 Q 342 -614 352 -604 Q 362 -594 366.5 -580 Q 371 -566 371 -552 Q 371 -538 366.5 -524 Q 362 -510 352 -500 Q 342 -490 328 -486 Q 314 -482 300 -482 Z M 88 -303 L 88 -377 L 512 -377 L 512 -303 Z M 300 -58 Q 286 -58 272 -62 Q 258 -66 248 -76 Q 238 -86 234 -100 Q 230 -114 230 -128 Q 230 -142 234 -156 Q 238 -170 248 -180 Q 258 -190 272 -194.5 Q 286 -199 300 -199 Q 314 -199 328 -194.5 Q 342 -190 352 -180 Q 362 -170 366.5 -156 Q 371 -142 371 -128 Q 371 -114 366.5 -100 Q 362 -86 352 -76 Q 342 -66 328 -62 Q 314 -58 300 -58 Z " id="path89"/>
<path d="M 95 -80 L 37 -132 L 245 -340 L 37 -548 L 95 -600 L 300 -395 L 505 -600 L 563 -548 L 355 -340 L 563 -132 L 505 -80 L 300 -285 Z " id="path90"/>
<path d="M 192 -284 L 125 -327 L 248 -485 L 58 -541 L 83 -611 L 265 -545 L 259 -743 L 341 -743 L 335 -545 L 517 -611 L 542 -541 L 352 -485 L 475 -327 L 408 -284 L 300 -444 Z " id="path91"/>
<path d="M 441 161 Q 394 139 353 108 Q 312 77 278 38.5 Q 244 0 218.5 -44.5 Q 193 -89 177.5 -138 Q 162 -187 155 -238 Q 148 -289 148 -340 Q 148 -391 155 -442 Q 162 -493 177.5 -542 Q 193 -591 218.5 -635.5 Q 244 -680 278 -718.5 Q 312 -757 353 -788 Q 394 -819 441 -841 L 477 -775 Q 437 -755 402 -728 Q 367 -701 339 -667.5 Q 311 -634 289.5 -595 Q 268 -556 255 -514 Q 242 -472 236.5 -428 Q 231 -384 231 -340 Q 231 -296 236.5 -252 Q 242 -208 255 -166 Q 268 -124 289.5 -85 Q 311 -46 339 -12.5 Q 367 21 402 48 Q 437 75 477 95 Z " id="path92"/>
<path d="M 159 161 L 123 95 Q 163 75 198 48 Q 233 21 261 -12.5 Q 289 -46 310.5 -85 Q 332 -124 345 -166 Q 358 -208 363.5 -252 Q 369 -296 369 -340 Q 369 -384 363.5 -428 Q 358 -472 345 -514 Q 332 -556 310.5 -595 Q 289 -634 261 -667.5 Q 233 -701 198 -728 Q 163 -755 123 -775 L 159 -841 Q 206 -819 247 -788 Q 288 -757 322 -718.5 Q 356 -680 381.5 -635.5 Q 407 -591 422.5 -542 Q 438 -493 445 -442 Q 452 -391 452 -340 Q 452 -289 445 -238 Q 438 -187 422.5 -138 Q 407 -89 381.5 -44.5 Q 356 0 322 38.5 Q 288 77 247 108 Q 206 139 159 161 Z " id="path93"/>
<path d="M 600 19 L 88 -297 L 88 -383 L 600 -699 L 671 -655 L 158 -340 L 671 -25 Z " id="path94"/>
<path d="M 0 19 L -71 -25 L 442 -340 L -71 -655 L 0 -699 L 512 -383 L 512 -297 Z " id="path95"/>
<path d="M 239 -542 L 67 -753 L 139 -802 L 298 -583 Z " id="path96"/>
<path d="M 151 -18 L 151 -191 L 51 -191 L 51 -265 L 151 -265 L 151 -470 L 51 -470 L 51 -544 L 151 -544 L 151 -717 L 234 -717 L 234 -544 L 366 -544 L 366 -717 L 449 -717 L 449 -544 L 549 -544 L 549 -470 L 449 -470 L 449 -265 L 549 -265 L 549 -191 L 449 -191 L 449 -18 L 366 -18 L 366 -191 L 234 -191 L 234 -18 Z M 234 -265 L 366 -265 L 366 -470 L 234 -470 Z " id="path97"/>
<path d="M 469 -448 L 300 -666 L 131 -448 L 63 -497 L 255 -724 L 345 -724 L 537 -497 Z " id="path98"/>
<path d="M 375 93 Q 347 93 319 91.5 Q 291 90 263.5 84 Q 236 78 209.5 68.5 Q 183 59 159 44 Q 135 29 115 9 Q 95 -11 81.5 -35.5 Q 68 -60 62.5 -87.5 Q 57 -115 57 -143 L 57 -537 Q 57 -565 62.5 -592.5 Q 68 -620 81.5 -644.5 Q 95 -669 115 -689 Q 135 -709 159 -723.5 Q 183 -738 209.5 -748 Q 236 -758 263.5 -763.5 Q 291 -769 319 -771 Q 347 -773 375 -773 Q 403 -773 431 -771 Q 459 -769 486.5 -763.5 Q 514 -758 540.5 -748 Q 567 -738 591 -723.5 Q 615 -709 635 -689 Q 655 -669 668.5 -644.5 Q 682 -620 687.5 -592.5 Q 693 -565 693 -537 L 693 -195 Q 693 -179 689 -162.5 Q 685 -146 675.5 -132.5 Q 666 -119 652.5 -109.5 Q 639 -100 623.5 -94.5 Q 608 -89 592 -87 Q 576 -85 559 -85 L 375 -85 Q 359 -85 344 -86.5 Q 329 -88 314 -92.5 Q 299 -97 285 -104.5 Q 271 -112 261 -123.5 Q 251 -135 246 -150 Q 241 -165 241 -181 L 241 -457 Q 241 -473 245.5 -488.5 Q 250 -504 259.5 -516.5 Q 269 -529 283 -538 Q 297 -547 312 -552 Q 327 -557 343 -559 Q 359 -561 375 -561 Q 391 -561 407 -559 Q 423 -557 438 -552 Q 453 -547 467 -538 Q 481 -529 490.5 -516.5 Q 500 -504 504.5 -488.5 Q 509 -473 509 -457 L 509 -158 L 559 -158 Q 568 -158 577 -159.5 Q 586 -161 593.5 -165.5 Q 601 -170 605.5 -178 Q 610 -186 610 -195 L 610 -537 Q 610 -557 605.5 -576.5 Q 601 -596 590.5 -613.5 Q 580 -631 564.5 -644.5 Q 549 -658 531.5 -667.5 Q 514 -677 494.5 -683.5 Q 475 -690 455.5 -693.5 Q 436 -697 415.5 -698.5 Q 395 -700 375 -700 Q 355 -700 334.5 -698.5 Q 314 -697 294.5 -693.5 Q 275 -690 255.5 -683.5 Q 236 -677 218.5 -667.5 Q 201 -658 185.5 -644.5 Q 170 -631 159.5 -613.5 Q 149 -596 144.5 -576.5 Q 140 -557 140 -537 L 140 -143 Q 140 -123 144.5 -103.5 Q 149 -84 159.5 -66.5 Q 170 -49 185.5 -35.5 Q 201 -22 218.5 -12.5 Q 236 -3 255.5 3.5 Q 275 10 294.5 14 Q 314 18 334.5 19 Q 355 20 375 20 L 656 20 L 656 93 Z M 426 -158 L 426 -457 Q 426 -465 420.5 -471.5 Q 415 -478 407.5 -481.5 Q 400 -485 391.5 -486 Q 383 -487 375 -487 Q 367 -487 358.5 -486 Q 350 -485 342.5 -481.5 Q 335 -478 329.5 -471.5 Q 324 -465 324 -457 L 324 -181 Q 324 -173 330.5 -168.5 Q 337 -164 344.5 -162 Q 352 -160 359.5 -159 Q 367 -158 375 -158 Z " id="path99"/>
<path d="M 432 143 L 82 -823 L 168 -823 L 518 143 Z " id="path100"/>
<path d="M 275 8 Q 249 8 223 3 Q 197 -2 174 -14.5 Q 151 -27 133 -46 Q 115 -65 103.5 -88.5 Q 92 -112 86 -138 Q 80 -164 80 -190 Q 80 -220 88.5 -250 Q 97 -280 113.5 -305.5 Q 130 -331 152 -352.5 Q 174 -374 199 -392 Q 183 -413 167 -435 Q 151 -457 138 -480.5 Q 125 -504 117 -530.5 Q 109 -557 109 -584 Q 109 -616 120.5 -647.5 Q 132 -679 156 -701.5 Q 180 -724 211.5 -733.5 Q 243 -743 276 -743 Q 309 -743 341 -733.5 Q 373 -724 396.5 -701.5 Q 420 -679 431.5 -647 Q 443 -615 443 -583 Q 443 -551 432.5 -520 Q 422 -489 403.5 -462.5 Q 385 -436 360.5 -415 Q 336 -394 310 -375 Q 313 -371 316 -366.5 Q 319 -362 322 -357 L 427 -205 L 474 -312 L 563 -312 L 495 -156 Q 492 -149 488.5 -141.5 Q 485 -134 481 -126 L 569 0 L 472 0 L 427 -65 Q 405 -37 374.5 -18.5 Q 344 0 309 6 Q 301 7 292.5 7.5 Q 284 8 275 8 Z M 263 -437 Q 282 -450 299 -465 Q 316 -480 329.5 -498 Q 343 -516 351.5 -537.5 Q 360 -559 360 -582 Q 360 -599 355 -616 Q 350 -633 338 -645.5 Q 326 -658 309.5 -663.5 Q 293 -669 276 -669 Q 259 -669 242 -663.5 Q 225 -658 213.5 -645.5 Q 202 -633 197 -616 Q 192 -599 192 -582 Q 192 -561 198.5 -541.5 Q 205 -522 215 -504 Q 225 -486 237.5 -469.5 Q 250 -453 263 -437 Z M 284 -66 Q 299 -66 314 -70 Q 329 -74 342 -81.5 Q 355 -89 366.5 -100 Q 378 -111 387 -123 L 254 -315 Q 252 -319 249.5 -322.5 Q 247 -326 244 -330 Q 227 -317 212 -302 Q 197 -287 186 -269.5 Q 175 -252 168.5 -231.5 Q 162 -211 162 -190 Q 162 -166 170 -142 Q 178 -118 195 -100 Q 212 -82 235.5 -74 Q 259 -66 284 -66 Z " id="path101"/>
<path d="M 259 -221 Q 259 -245 261 -270 Q 263 -295 271 -318 Q 279 -341 292.5 -362 Q 306 -383 322.5 -401 Q 339 -419 357.5 -435.5 Q 376 -452 392 -471 Q 408 -490 419 -513 Q 430 -536 430 -560 Q 430 -584 419.5 -606.5 Q 409 -629 389.5 -643.5 Q 370 -658 346.5 -663.5 Q 323 -669 299 -669 Q 275 -669 251.5 -664 Q 228 -659 209 -644.5 Q 190 -630 179.5 -607.5 Q 169 -585 169 -562 L 169 -559 L 86 -559 L 86 -564 Q 86 -590 93.5 -615.5 Q 101 -641 115.5 -662.5 Q 130 -684 151 -700.5 Q 172 -717 196.5 -726.5 Q 221 -736 247 -739.5 Q 273 -743 299 -743 Q 325 -743 351.5 -739.5 Q 378 -736 402.5 -726 Q 427 -716 448 -699 Q 469 -682 483.5 -660 Q 498 -638 505 -612 Q 512 -586 512 -560 Q 512 -535 506 -511 Q 500 -487 489 -465 Q 478 -443 463 -423.5 Q 448 -404 431 -386 Q 414 -368 395.5 -351.5 Q 377 -335 363.5 -314.5 Q 350 -294 345.5 -269.5 Q 341 -245 341 -221 Z M 300 8 Q 286 8 272 4 Q 258 0 248 -10.5 Q 238 -21 234 -34.5 Q 230 -48 230 -63 Q 230 -77 234 -90.5 Q 238 -104 248 -114.5 Q 258 -125 272 -129 Q 286 -133 300 -133 Q 314 -133 328 -129 Q 342 -125 352 -114.5 Q 362 -104 366.5 -90.5 Q 371 -77 371 -63 Q 371 -48 366.5 -34.5 Q 362 -21 352 -10.5 Q 342 0 328 4 Q 314 8 300 8 Z " id="path102"/>
<path d="M 186 -442 Q 183 -524 181 -606.5 Q 179 -689 179 -772 L 271 -772 Q 271 -689 269 -606.5 Q 267 -524 264 -442 Z " id="path103"/>
<path d="M 141 -442 Q 138 -524 136 -606.5 Q 134 -689 134 -772 L 226 -772 Q 226 -689 224 -606.5 Q 222 -524 219 -442 Z M 381 -442 Q 378 -524 376 -606.5 Q 374 -689 374 -772 L 466 -772 Q 466 -689 464 -606.5 Q 462 -524 459 -442 Z " id="path104"/>
<path d="M 225 8 Q 209 8 194 3.5 Q 179 -1 167.5 -12.5 Q 156 -24 151.5 -39 Q 147 -54 147 -70 Q 147 -86 151.5 -101 Q 156 -116 167.5 -127.5 Q 179 -139 194 -143.5 Q 209 -148 225 -148 Q 241 -148 256 -143.5 Q 271 -139 282.5 -127.5 Q 294 -116 298.5 -101 Q 303 -86 303 -70 Q 303 -54 298.5 -39 Q 294 -24 282.5 -12.5 Q 271 -1 256 3.5 Q 241 8 225 8 Z M 225 -372 Q 209 -372 194 -376.5 Q 179 -381 167.5 -392.5 Q 156 -404 151.5 -419 Q 147 -434 147 -450 Q 147 -466 151.5 -481 Q 156 -496 167.5 -507.5 Q 179 -519 194 -523.5 Q 209 -528 225 -528 Q 241 -528 256 -523.5 Q 271 -519 282.5 -507.5 Q 294 -496 298.5 -481 Q 303 -466 303 -450 Q 303 -434 298.5 -419 Q 294 -404 282.5 -392.5 Q 271 -381 256 -376.5 Q 241 -372 225 -372 Z " id="path105"/>
<path d="M 277 0 L 277 -331 Q 251 -331 224.5 -336.5 Q 198 -342 175 -354.5 Q 152 -367 133.5 -386.5 Q 115 -406 103.5 -430 Q 92 -454 87.5 -480 Q 83 -506 83 -533 Q 83 -559 87.5 -585.5 Q 92 -612 103.5 -636 Q 115 -660 133.5 -679.5 Q 152 -699 175 -711.5 Q 198 -724 224.5 -729.5 Q 251 -735 277 -735 L 517 -735 L 517 0 L 434 0 L 434 -662 L 360 -662 L 360 0 Z " id="path106"/>
<path d="M 196 0 L 196 -580 Q 196 -601 199.5 -621.5 Q 203 -642 212 -660.5 Q 221 -679 236 -694 Q 251 -709 269.5 -718.5 Q 288 -728 309 -731.5 Q 330 -735 350 -735 L 512 -735 L 512 -662 L 350 -662 Q 335 -662 320 -656 Q 305 -650 295.5 -638 Q 286 -626 282 -611 Q 278 -596 278 -580 L 278 0 Z " id="path107"/>
<path d="M 88 0 L 88 -571 Q 88 -596 93.5 -620 Q 99 -644 111.5 -665 Q 124 -686 143.5 -701.5 Q 163 -717 186 -726.5 Q 209 -736 233.5 -739.5 Q 258 -743 282 -743 Q 306 -743 329.5 -739.5 Q 353 -736 375 -726 Q 397 -716 414.5 -700 Q 432 -684 443.5 -663 Q 455 -642 459.5 -618.5 Q 464 -595 464 -571 Q 464 -548 457 -526 Q 450 -504 435 -487 Q 420 -470 400 -458.5 Q 380 -447 360 -437 L 358 -436 Q 347 -431 336.5 -425 Q 326 -419 317.5 -411 Q 309 -403 303.5 -391.5 Q 298 -380 298 -368 Q 298 -351 308.5 -337 Q 319 -323 334 -315.5 Q 349 -308 365.5 -304.5 Q 382 -301 398 -296 Q 414 -291 429.5 -283.5 Q 445 -276 458.5 -266.5 Q 472 -257 483.5 -245 Q 495 -233 503.5 -218 Q 512 -203 516 -186.5 Q 520 -170 520 -154 Q 520 -130 512.5 -108 Q 505 -86 491.5 -67 Q 478 -48 458.5 -35 Q 439 -22 417.5 -14 Q 396 -6 373 -3 Q 350 0 327 0 L 215 0 L 215 -74 L 327 -74 Q 346 -74 365.5 -77.5 Q 385 -81 401 -92 Q 417 -103 427.5 -120.5 Q 438 -138 438 -157 Q 438 -174 428.5 -189 Q 419 -204 405 -212.5 Q 391 -221 374.5 -225.5 Q 358 -230 342.5 -234.5 Q 327 -239 311.5 -245.5 Q 296 -252 281.5 -260.5 Q 267 -269 255 -281 Q 243 -293 234 -307 Q 225 -321 220 -337 Q 215 -353 215 -370 Q 215 -384 218.5 -397.5 Q 222 -411 228.5 -423.5 Q 235 -436 243.5 -447 Q 252 -458 262.5 -467 Q 273 -476 285 -483.5 Q 297 -491 309.5 -497 Q 322 -503 335.5 -508 Q 349 -513 359.5 -522 Q 370 -531 376 -544 Q 382 -557 382 -571 Q 382 -591 376 -610.5 Q 370 -630 355.5 -644 Q 341 -658 321.5 -664 Q 302 -670 282 -670 Q 261 -670 240 -664.5 Q 219 -659 202.5 -645.5 Q 186 -632 178.5 -612 Q 171 -592 171 -571 L 171 0 Z " id="path108"/>
<path d="M 300 8 Q 270 8 240 2.5 Q 210 -3 183.5 -17.5 Q 157 -32 136 -54 Q 115 -76 102.5 -103.5 Q 90 -131 85 -160.5 Q 80 -190 80 -220 Q 80 -250 85 -280 Q 90 -310 102.5 -337 Q 115 -364 135.5 -386.5 Q 156 -409 182.5 -423 Q 209 -437 238.5 -443 Q 268 -449 298 -449 Q 333 -449 367 -439.5 Q 401 -430 427 -408 Q 417 -440 401.5 -470 Q 386 -500 365 -527 L 140 -474 L 121 -545 L 306 -589 Q 272 -616 233 -635 Q 194 -654 152 -663 L 169 -735 Q 233 -722 290.5 -689.5 Q 348 -657 393 -610 L 481 -631 L 500 -560 L 443 -546 Q 464 -513 480 -477 Q 496 -441 505.5 -403 Q 515 -365 517.5 -326 Q 520 -287 520 -248 L 520 -221 Q 520 -190 515 -160.5 Q 510 -131 497.5 -103.5 Q 485 -76 464 -54 Q 443 -32 416.5 -17.5 Q 390 -3 360 2.5 Q 330 8 300 8 Z M 300 -66 Q 320 -66 339 -70.5 Q 358 -75 375 -85 Q 392 -95 405.5 -110 Q 419 -125 426.5 -143 Q 434 -161 435.5 -181 Q 437 -201 437 -220 Q 437 -240 434.5 -259.5 Q 432 -279 424.5 -297 Q 417 -315 404.5 -331 Q 392 -347 375 -357 Q 358 -367 338.5 -371 Q 319 -375 300 -375 Q 270 -375 242 -364.5 Q 214 -354 195.5 -331 Q 177 -308 170 -279 Q 163 -250 163 -221 Q 163 -201 165.5 -181.5 Q 168 -162 175.5 -144 Q 183 -126 195.5 -110.5 Q 208 -95 225 -84.5 Q 242 -74 261 -70 Q 280 -66 300 -66 Z " id="path109"/>
<path d="M 88 215 L 88 -735 L 171 -735 L 171 -424 Q 181 -448 197 -468.5 Q 213 -489 234.5 -503 Q 256 -517 281.5 -522.5 Q 307 -528 332 -528 Q 360 -528 386.5 -522 Q 413 -516 436 -501 Q 459 -486 476 -464 Q 493 -442 503 -416.5 Q 513 -391 516.5 -364 Q 520 -337 520 -310 L 520 -210 Q 520 -183 516.5 -156 Q 513 -129 503 -103.5 Q 493 -78 476 -56 Q 459 -34 436 -19 Q 413 -4 386.5 2 Q 360 8 332 8 Q 307 8 281.5 2.5 Q 256 -3 234.5 -17 Q 213 -31 197 -51.5 Q 181 -72 171 -96 L 171 215 Z M 301 -65 Q 320 -65 338.5 -69 Q 357 -73 373.5 -82 Q 390 -91 403 -105.5 Q 416 -120 423.5 -137 Q 431 -154 434 -172.5 Q 437 -191 437 -210 L 437 -310 Q 437 -329 434 -347.5 Q 431 -366 423.5 -383 Q 416 -400 403 -414.5 Q 390 -429 373.5 -438 Q 357 -447 338.5 -451 Q 320 -455 301 -455 Q 282 -455 264 -451 Q 246 -447 230 -437.5 Q 214 -428 202 -413.5 Q 190 -399 183 -382 Q 176 -365 173.5 -346.5 Q 171 -328 171 -310 L 171 -210 Q 171 -192 173.5 -173.5 Q 176 -155 183 -138 Q 190 -121 202 -106.5 Q 214 -92 230 -82.5 Q 246 -73 264 -69 Q 282 -65 301 -65 Z " id="path110"/>
<path d="M 132 0 L 132 -735 L 520 -735 L 520 -662 L 215 -662 L 215 0 Z " id="path111"/>
<path d="M 60 0 L 252 -735 L 348 -735 L 540 0 Z M 436 -73 L 333 -490 Q 325 -525 316.5 -559.5 Q 308 -594 300 -628 Q 292 -594 283.5 -559.5 Q 275 -525 267 -490 L 164 -73 Z " id="path112"/>
<path d="M 60 0 L 252 -735 L 348 -735 L 540 0 L 454 0 L 333 -490 Q 325 -525 316.5 -559.5 Q 308 -594 300 -628 Q 292 -594 283.5 -559.5 Q 275 -525 267 -490 L 146 0 Z " id="path113"/>
<path d="M 266 8 Q 238 8 211 2 Q 184 -4 160 -18.5 Q 136 -33 118.5 -54.5 Q 101 -76 90.5 -101.5 Q 80 -127 76 -154.5 Q 72 -182 72 -210 L 72 -310 Q 72 -338 76 -365.5 Q 80 -393 90.5 -418.5 Q 101 -444 118.5 -465.5 Q 136 -487 160 -501.5 Q 184 -516 211 -522 Q 238 -528 266 -528 Q 293 -528 318.5 -518 Q 344 -508 363 -489.5 Q 382 -471 396.5 -448 Q 411 -425 421 -400 Q 427 -430 432.5 -460 Q 438 -490 443 -520 L 526 -520 Q 511 -456 497 -391.5 Q 483 -327 467 -263 Q 483 -198 497.5 -132 Q 512 -66 528 0 L 445 0 Q 439 -31 433.5 -62 Q 428 -93 422 -125 Q 412 -99 398 -75.5 Q 384 -52 364.5 -33 Q 345 -14 319 -3 Q 293 8 266 8 Z M 266 -66 Q 287 -66 305.5 -77 Q 324 -88 336.5 -105 Q 349 -122 358 -141.5 Q 367 -161 373.5 -181.5 Q 380 -202 385.5 -222.5 Q 391 -243 395 -263 Q 391 -283 385.5 -303 Q 380 -323 373 -342.5 Q 366 -362 357.5 -381 Q 349 -400 336 -416.5 Q 323 -433 305 -443.5 Q 287 -454 266 -454 Q 249 -454 232 -449.5 Q 215 -445 201.5 -434.5 Q 188 -424 178.5 -409 Q 169 -394 164 -378 Q 159 -362 157 -344.5 Q 155 -327 155 -310 L 155 -210 Q 155 -193 157 -175.5 Q 159 -158 164 -142 Q 169 -126 178.5 -111 Q 188 -96 201.5 -85.5 Q 215 -75 232 -70.5 Q 249 -66 266 -66 Z " id="path114"/>
<path d="M 300 8 Q 271 8 241.5 3 Q 212 -2 186 -15 Q 160 -28 138.5 -49 Q 117 -70 103.5 -96 Q 90 -122 85 -151.5 Q 80 -181 80 -210 L 80 -263 Q 80 -289 85 -314.5 Q 90 -340 103 -362 Q 116 -384 135 -401.5 Q 154 -419 177 -431 Q 159 -440 145 -455.5 Q 131 -471 122 -489.5 Q 113 -508 108.5 -528 Q 104 -548 104 -569 Q 104 -592 109.5 -615.5 Q 115 -639 126.5 -660 Q 138 -681 155.5 -697.5 Q 173 -714 194.5 -724.5 Q 216 -735 240 -739 Q 264 -743 287 -743 Q 338 -743 386.5 -729 Q 435 -715 480 -692 L 442 -627 Q 407 -645 369.5 -657.5 Q 332 -670 293 -670 Q 272 -670 252 -664 Q 232 -658 216.5 -644.5 Q 201 -631 194 -611 Q 187 -591 187 -570 Q 187 -552 193 -534 Q 199 -516 212 -503.5 Q 225 -491 242.5 -485.5 Q 260 -480 278.5 -477 Q 297 -474 315 -471 Q 333 -468 350.5 -464 Q 368 -460 385.5 -454.5 Q 403 -449 420 -441.5 Q 437 -434 452 -423.5 Q 467 -413 479 -399.5 Q 491 -386 500 -370 Q 509 -354 513.5 -336 Q 518 -318 519 -300 Q 520 -282 520 -263 L 520 -210 Q 520 -181 515 -151.5 Q 510 -122 496.5 -96 Q 483 -70 461.5 -49 Q 440 -28 414 -15 Q 388 -2 358.5 3 Q 329 8 300 8 Z M 300 -66 Q 319 -66 337.5 -69.5 Q 356 -73 373 -82 Q 390 -91 402.5 -105 Q 415 -119 423 -136.5 Q 431 -154 434 -172.5 Q 437 -191 437 -210 L 437 -263 Q 437 -283 434 -303 Q 431 -323 420 -340 Q 409 -357 392.5 -368.5 Q 376 -380 357 -386.5 Q 338 -393 318 -396.5 Q 298 -400 278 -403 L 277 -404 Q 268 -405 259.5 -406.5 Q 251 -408 243 -409 Q 222 -401 206 -385.5 Q 190 -370 180 -350 Q 170 -330 166.5 -308 Q 163 -286 163 -263 L 163 -210 Q 163 -191 166 -172.5 Q 169 -154 177 -136.5 Q 185 -119 197.5 -105 Q 210 -91 227 -82 Q 244 -73 262.5 -69.5 Q 281 -66 300 -66 Z " id="path115"/>
<path d="M 208 0 Q 186 0 163.5 -6 Q 141 -12 125 -27.5 Q 109 -43 102 -65 Q 95 -87 95 -109 L 95 -520 L 177 -520 L 177 -109 Q 177 -103 178.5 -96 Q 180 -89 184.5 -84 Q 189 -79 195.5 -76.5 Q 202 -74 208 -74 L 268 -74 L 268 0 Z " id="path116"/>
<path d="M 70 0 L 257 -517 L 229 -594 L 229 -595 Q 224 -608 218 -621.5 Q 212 -635 201.5 -645 Q 191 -655 177 -658.5 Q 163 -662 148 -662 L 99 -662 L 99 -735 L 148 -735 Q 166 -735 184 -733.5 Q 202 -732 219 -726 Q 236 -720 250.5 -709 Q 265 -698 276 -683.5 Q 287 -669 294 -652.5 Q 301 -636 307 -619 L 530 0 L 443 0 L 300 -411 L 157 0 Z " id="path117"/>
<path d="M 88 215 L 88 -520 L 171 -520 L 171 -210 Q 171 -192 173.5 -173.5 Q 176 -155 183 -138 Q 190 -121 202 -106.5 Q 214 -92 229.5 -82.5 Q 245 -73 263.5 -69.5 Q 282 -66 300 -66 Q 327 -66 353 -75 Q 379 -84 396.5 -104.5 Q 414 -125 421.5 -151.5 Q 429 -178 429 -205 L 429 -520 L 512 -520 L 512 -104 Q 512 -97 514.5 -89 Q 517 -81 522.5 -75.5 Q 528 -70 535.5 -68 Q 543 -66 551 -66 L 568 -66 L 568 8 L 551 8 Q 528 8 506 2.5 Q 484 -3 466.5 -17 Q 449 -31 439.5 -52 Q 430 -73 429 -96 Q 419 -72 403 -51.5 Q 387 -31 366 -17.5 Q 345 -4 319.5 2 Q 294 8 268 8 Q 242 8 216.5 2 Q 191 -4 169 -19 Q 170 13 170.5 44.5 Q 171 76 171 107 L 171 215 Z " id="path118"/>
<path d="M 300 215 L 300 141 L 353 141 Q 368 141 382.5 137.5 Q 397 134 408 124 Q 419 114 424 100 Q 429 86 429 71 Q 429 53 419.5 38 Q 410 23 395 14.5 Q 380 6 363 3 Q 346 0 328.5 0 Q 311 -0 293.5 -1 Q 276 -2 259 -4 Q 242 -6 225.5 -10.5 Q 209 -15 193 -21.5 Q 177 -28 162 -37 Q 147 -46 134 -57.5 Q 121 -69 111 -83.5 Q 101 -98 94.5 -114 Q 88 -130 85.5 -147 Q 83 -164 83 -181 L 83 -182 Q 83 -205 88 -227.5 Q 93 -250 104.5 -269.5 Q 116 -289 132.5 -305 Q 149 -321 168.5 -333 Q 188 -345 209.5 -354 Q 231 -363 253 -369 Q 225 -377 199 -391 Q 173 -405 153 -426 Q 133 -447 122.5 -475 Q 112 -503 112 -532 Q 112 -553 118 -573.5 Q 124 -594 136.5 -610.5 Q 149 -627 166 -639.5 Q 183 -652 202 -662 L 88 -662 L 88 -735 L 512 -735 L 512 -662 L 406 -662 Q 383 -662 360 -660 Q 337 -658 314.5 -652.5 Q 292 -647 270.5 -638 Q 249 -629 231.5 -614 Q 214 -599 204.5 -577.5 Q 195 -556 195 -533 Q 195 -510 204.5 -488 Q 214 -466 231.5 -451.5 Q 249 -437 270.5 -427.5 Q 292 -418 314.5 -413 Q 337 -408 360 -406 Q 383 -404 406 -404 L 448 -404 L 448 -331 L 406 -331 Q 380 -331 353.5 -328.5 Q 327 -326 301 -320 Q 275 -314 251 -303.5 Q 227 -293 207 -275.5 Q 187 -258 176 -233.5 Q 165 -209 165 -182 Q 165 -162 173 -143 Q 181 -124 196 -110.5 Q 211 -97 230 -89.5 Q 249 -82 269 -78 Q 289 -74 309 -74 Q 329 -74 349.5 -73 Q 370 -72 390 -67.5 Q 410 -63 428.5 -55 Q 447 -47 463 -35 Q 479 -23 490.5 -6 Q 502 11 507 31 Q 512 51 512 71 Q 512 91 508 111 Q 504 131 493.5 148.5 Q 483 166 467 179.5 Q 451 193 432.5 201 Q 414 209 394 212 Q 374 215 353 215 Z " id="path119"/>
<path d="M 501 8 Q 485 8 469.5 5.5 Q 454 3 439.5 -3 Q 425 -9 413 -19.5 Q 401 -30 393.5 -44 Q 386 -58 382.5 -73.5 Q 379 -89 379 -104 L 379 -447 L 221 -447 L 221 0 L 138 0 L 138 -447 L 63 -447 L 63 -520 L 537 -520 L 537 -447 L 462 -447 L 462 -104 Q 462 -97 464.5 -89 Q 467 -81 472.5 -75.5 Q 478 -70 485.5 -68 Q 493 -66 501 -66 L 518 -66 L 518 8 Z " id="path120"/>
<path d="M 380 8 Q 365 8 349 5.5 Q 333 3 319 -3 Q 305 -9 292.5 -19.5 Q 280 -30 272.5 -44 Q 265 -58 262 -73.5 Q 259 -89 259 -104 L 259 -447 L 88 -447 L 88 -520 L 512 -520 L 512 -447 L 341 -447 L 341 -104 Q 341 -97 343.5 -89 Q 346 -81 351.5 -75.5 Q 357 -70 364.5 -68 Q 372 -66 380 -66 L 398 -66 L 398 8 Z " id="path121"/>
<path d="M 72 215 L 256 -153 L 72 -520 L 164 -520 L 300 -242 L 436 -520 L 528 -520 L 344 -153 L 528 215 L 436 215 L 300 -63 L 164 215 Z " id="path122"/>
<path d="M 300 8 Q 270 8 240 2.5 Q 210 -3 183.5 -17.5 Q 157 -32 136 -54 Q 115 -76 102.5 -103.5 Q 90 -131 85 -160.5 Q 80 -190 80 -220 Q 80 -250 85 -280 Q 90 -310 102.5 -337 Q 115 -364 135.5 -386.5 Q 156 -409 182.5 -423 Q 209 -437 238.5 -443 Q 268 -449 298 -449 Q 333 -449 367 -439.5 Q 401 -430 427 -408 Q 412 -455 386 -497 Q 360 -539 324 -573 Q 288 -607 244 -630 Q 200 -653 152 -663 L 169 -735 Q 209 -727 247 -711 Q 285 -695 319 -672 Q 353 -649 382.5 -620.5 Q 412 -592 435 -558.5 Q 458 -525 475.5 -487.5 Q 493 -450 503.5 -410.5 Q 514 -371 517 -330 Q 520 -289 520 -248 L 520 -221 Q 520 -190 515 -160.5 Q 510 -131 497.5 -103.5 Q 485 -76 464 -54 Q 443 -32 416.5 -17.5 Q 390 -3 360 2.5 Q 330 8 300 8 Z M 300 -66 Q 320 -66 339 -70.5 Q 358 -75 375 -85 Q 392 -95 405.5 -110 Q 419 -125 426.5 -143 Q 434 -161 435.5 -181 Q 437 -201 437 -220 Q 437 -240 434.5 -259.5 Q 432 -279 424.5 -297 Q 417 -315 404.5 -331 Q 392 -347 375 -357 Q 358 -367 338.5 -371 Q 319 -375 300 -375 Q 270 -375 242 -364.5 Q 214 -354 195.5 -331 Q 177 -308 170 -279 Q 163 -250 163 -221 Q 163 -201 165.5 -181.5 Q 168 -162 175.5 -144 Q 183 -126 195.5 -110.5 Q 208 -95 225 -84.5 Q 242 -74 261 -70 Q 280 -66 300 -66 Z " id="path123"/>
<path d="M 58 0 L 197 -368 L 58 -735 L 145 -735 L 271 -404 L 334 -404 L 334 -735 L 416 -735 L 416 -404 L 479 -404 L 605 -735 L 692 -735 L 553 -368 L 692 0 L 605 0 L 479 -331 L 416 -331 L 416 0 L 334 0 L 334 -331 L 271 -331 L 145 0 Z " id="path124"/>
<path d="M 302 8 Q 275 8 247.5 4 Q 220 -0 194.5 -10 Q 169 -20 146.5 -37 Q 124 -54 109 -77 Q 94 -100 86 -126.5 Q 78 -153 78 -181 L 161 -181 Q 161 -155 172.5 -131.5 Q 184 -108 205 -92.5 Q 226 -77 251.5 -71.5 Q 277 -66 302 -66 Q 331 -66 359 -74.5 Q 387 -83 407.5 -103 Q 428 -123 436.5 -151 Q 445 -179 445 -208 Q 445 -227 441.5 -245.5 Q 438 -264 429 -281 Q 420 -298 405.5 -311 Q 391 -324 374 -331.5 Q 357 -339 338 -342 Q 319 -345 300 -345 L 236 -345 L 236 -419 L 300 -419 Q 317 -419 334 -421.5 Q 351 -424 366 -431 Q 381 -438 394 -450 Q 407 -462 415 -476.5 Q 423 -491 426 -508 Q 429 -525 429 -542 Q 429 -568 421.5 -593 Q 414 -618 396 -636 Q 378 -654 353 -661.5 Q 328 -669 303 -669 Q 279 -669 256 -663.5 Q 233 -658 214.5 -643 Q 196 -628 186.5 -605.5 Q 177 -583 177 -560 L 177 -558 L 94 -558 L 94 -561 Q 94 -587 101 -612.5 Q 108 -638 122 -660 Q 136 -682 156.5 -698.5 Q 177 -715 201 -725 Q 225 -735 251 -739 Q 277 -743 303 -743 Q 330 -743 357 -738.5 Q 384 -734 409 -722.5 Q 434 -711 454.5 -692 Q 475 -673 488 -649 Q 501 -625 506.5 -598 Q 512 -571 512 -544 Q 512 -518 507 -493 Q 502 -468 488.5 -446.5 Q 475 -425 455 -409 Q 435 -393 411 -383 Q 438 -373 461 -355.5 Q 484 -338 500 -314.5 Q 516 -291 522 -262.5 Q 528 -234 528 -206 Q 528 -177 522 -147.5 Q 516 -118 502 -92.5 Q 488 -67 466 -46.5 Q 444 -26 417 -13.5 Q 390 -1 361 3.5 Q 332 8 302 8 Z " id="path125"/>
<path d="M 107 0 L 107 -735 L 189 -735 L 189 -404 L 241 -404 L 433 -735 L 525 -735 L 313 -368 L 525 0 L 433 0 L 241 -331 L 189 -331 L 189 0 Z " id="path126"/>
<path d="M 178 0 Q 191 -35 203.5 -70.5 Q 216 -106 229 -141 L 257 -218 L 70 -735 L 157 -735 L 300 -324 L 443 -735 L 530 -735 L 265 0 Z " id="path127"/>
<path d="M 64 0 L 231 -305 Q 196 -312 165 -332 Q 134 -352 114.5 -382 Q 95 -412 87.5 -447.5 Q 80 -483 80 -518 Q 80 -546 84.5 -574 Q 89 -602 100 -627.5 Q 111 -653 130 -674.5 Q 149 -696 173 -710 Q 197 -724 225 -729.5 Q 253 -735 281 -735 L 512 -735 L 512 0 L 429 0 L 429 -302 L 321 -302 L 156 0 Z M 281 -375 L 429 -375 L 429 -662 L 281 -662 Q 263 -662 246 -657.5 Q 229 -653 214.5 -643 Q 200 -633 189.5 -618.5 Q 179 -604 173 -587.5 Q 167 -571 165 -553.5 Q 163 -536 163 -518 Q 163 -501 165 -483.5 Q 167 -466 173 -449.5 Q 179 -433 189.5 -418.5 Q 200 -404 214.5 -394 Q 229 -384 246 -379.5 Q 263 -375 281 -375 Z " id="path128"/>
<path d="M 58 0 L 186 -260 L 58 -520 L 148 -520 L 258 -297 L 334 -297 L 334 -520 L 416 -520 L 416 -297 L 492 -297 L 602 -520 L 692 -520 L 564 -260 L 692 0 L 602 0 L 492 -223 L 416 -223 L 416 0 L 334 0 L 334 -223 L 258 -223 L 148 0 Z " id="path129"/>
<path d="M 303 8 Q 277 8 251.5 5.5 Q 226 3 201.5 -4.5 Q 177 -12 154.5 -24.5 Q 132 -37 114.5 -56 Q 97 -75 87.5 -99.5 Q 78 -124 78 -149 L 78 -150 L 161 -150 Q 161 -135 168 -121 Q 175 -107 187 -97 Q 199 -87 213 -81 Q 227 -75 242 -71.5 Q 257 -68 272 -67 Q 287 -66 303 -66 Q 318 -66 333.5 -67 Q 349 -68 364 -71.5 Q 379 -75 393.5 -81 Q 408 -87 420 -97 Q 432 -107 438.5 -121 Q 445 -135 445 -151 Q 445 -166 438 -180.5 Q 431 -195 418.5 -204.5 Q 406 -214 391.5 -219.5 Q 377 -225 362 -228.5 Q 347 -232 331.5 -233 Q 316 -234 300 -234 L 236 -234 L 236 -307 L 300 -307 Q 314 -307 327.5 -308 Q 341 -309 354.5 -312 Q 368 -315 381 -319.5 Q 394 -324 405.5 -332.5 Q 417 -341 423 -353.5 Q 429 -366 429 -380 Q 429 -393 423 -405.5 Q 417 -418 406.5 -427 Q 396 -436 383 -441 Q 370 -446 357 -449 Q 344 -452 330 -453 Q 316 -454 303 -454 Q 289 -454 275 -453 Q 261 -452 248 -448.5 Q 235 -445 222 -439.5 Q 209 -434 199 -424.5 Q 189 -415 183 -402 Q 177 -389 177 -376 L 177 -375 L 94 -375 L 94 -377 Q 94 -401 102.5 -424 Q 111 -447 127 -465.5 Q 143 -484 164 -496.5 Q 185 -509 208 -516 Q 231 -523 255 -525.5 Q 279 -528 303 -528 Q 327 -528 351 -525.5 Q 375 -523 398 -516.5 Q 421 -510 442 -498 Q 463 -486 479.5 -468.5 Q 496 -451 504 -428 Q 512 -405 512 -381 Q 512 -362 506.5 -344 Q 501 -326 489 -312 Q 477 -298 461 -288 Q 445 -278 428 -271 Q 448 -265 467 -254 Q 486 -243 500.5 -227.5 Q 515 -212 521.5 -191.5 Q 528 -171 528 -150 Q 528 -124 519 -99 Q 510 -74 492.5 -55 Q 475 -36 452 -23.5 Q 429 -11 404.5 -4 Q 380 3 354 5.5 Q 328 8 303 8 Z " id="path130"/>
<path d="M 107 0 L 107 -520 L 189 -520 L 189 -297 L 252 -297 L 423 -520 L 523 -520 L 324 -260 L 523 0 L 423 0 L 252 -223 L 189 -223 L 189 0 Z " id="path131"/>
<path d="M 22 0 L 22 -74 Q 38 -74 53.5 -78.5 Q 69 -83 81 -94 Q 93 -105 99 -120 Q 105 -135 109 -151 Q 113 -167 115.5 -183 Q 118 -199 118.5 -215 Q 119 -231 119.5 -247 Q 120 -263 120 -279 L 120 -520 L 512 -520 L 512 0 L 429 0 L 429 -447 L 203 -447 L 203 -280 Q 203 -261 202.5 -241.5 Q 202 -222 201 -203 Q 200 -184 197.5 -164.5 Q 195 -145 190 -126.5 Q 185 -108 177.5 -90 Q 170 -72 159 -56 Q 148 -40 132 -29 Q 116 -18 98 -11 Q 80 -4 60.5 -2 Q 41 -0 22 0 Z " id="path132"/>
<path d="M 88 0 L 88 -520 L 233 -520 L 375 -105 L 517 -520 L 662 -520 L 662 0 L 579 0 L 579 -463 L 411 0 L 339 0 L 171 -463 L 171 0 Z " id="path133"/>
<path d="M 88 0 L 88 -520 L 171 -520 L 171 -305 L 429 -305 L 429 -520 L 512 -520 L 512 0 L 429 0 L 429 -232 L 171 -232 L 171 0 Z " id="path134"/>
<path d="M 334 215 L 334 8 L 303 8 Q 279 8 254.5 4 Q 230 -0 207.5 -10 Q 185 -20 165.5 -35.5 Q 146 -51 131.5 -70.5 Q 117 -90 107 -112.5 Q 97 -135 90.5 -158.5 Q 84 -182 82 -206.5 Q 80 -231 80 -256 L 80 -264 Q 80 -289 82 -313.5 Q 84 -338 90.5 -361.5 Q 97 -385 107 -407.5 Q 117 -430 131.5 -449.5 Q 146 -469 165.5 -484.5 Q 185 -500 207.5 -510 Q 230 -520 254.5 -524 Q 279 -528 303 -528 L 334 -528 L 334 -735 L 416 -735 L 416 -528 L 447 -528 Q 471 -528 495.5 -524 Q 520 -520 542.5 -510 Q 565 -500 584.5 -484.5 Q 604 -469 618.5 -449.5 Q 633 -430 643 -407.5 Q 653 -385 659.5 -361.5 Q 666 -338 668 -313.5 Q 670 -289 670 -264 L 670 -256 Q 670 -231 668 -206.5 Q 666 -182 659.5 -158.5 Q 653 -135 643 -112.5 Q 633 -90 618.5 -70.5 Q 604 -51 584.5 -35.5 Q 565 -20 542.5 -10 Q 520 -0 495.5 4 Q 471 8 447 8 L 416 8 L 416 215 Z M 334 -66 L 334 -454 L 303 -454 Q 281 -454 259.5 -447.5 Q 238 -441 220.5 -427 Q 203 -413 192 -393.5 Q 181 -374 174 -352.5 Q 167 -331 165 -308.5 Q 163 -286 163 -264 L 163 -256 Q 163 -234 165 -211.5 Q 167 -189 174 -167.5 Q 181 -146 192 -126.5 Q 203 -107 220.5 -93 Q 238 -79 259.5 -72.5 Q 281 -66 303 -66 Z M 416 -66 L 447 -66 Q 469 -66 490.5 -72.5 Q 512 -79 529.5 -93 Q 547 -107 558 -126.5 Q 569 -146 576 -167.5 Q 583 -189 585 -211.5 Q 587 -234 587 -256 L 587 -264 Q 587 -286 585 -308.5 Q 583 -331 576 -352.5 Q 569 -374 558 -393.5 Q 547 -413 529.5 -427 Q 512 -441 490.5 -447.5 Q 469 -454 447 -454 L 416 -454 Z " id="path135"/>
<path d="M 429 0 L 429 -193 Q 393 -183 356 -177 Q 319 -171 282 -171 Q 255 -171 228 -176 Q 201 -181 177 -193 Q 153 -205 134 -225 Q 115 -245 104 -270 Q 93 -295 90.5 -322 Q 88 -349 88 -376 L 88 -520 L 171 -520 L 171 -376 Q 171 -359 172.5 -341.5 Q 174 -324 181 -308.5 Q 188 -293 200 -280 Q 212 -267 227 -259 Q 242 -251 259.5 -248 Q 277 -245 294 -245 Q 328 -245 362 -252.5 Q 396 -260 429 -269 L 429 -520 L 512 -520 L 512 0 Z " id="path136"/>
<path d="M 88 0 L 88 -520 L 171 -520 L 171 -323 L 346 -323 Q 368 -323 390.5 -319.5 Q 413 -316 433.5 -307 Q 454 -298 471.5 -283 Q 489 -268 500 -248.5 Q 511 -229 515.5 -206.5 Q 520 -184 520 -161 Q 520 -139 515.5 -116.5 Q 511 -94 500 -74.5 Q 489 -55 471.5 -40 Q 454 -25 433.5 -16 Q 413 -7 390.5 -3.5 Q 368 0 346 0 Z M 346 -74 Q 364 -74 381.5 -79 Q 399 -84 412.5 -96 Q 426 -108 431.5 -125.5 Q 437 -143 437 -161 Q 437 -179 431.5 -197 Q 426 -215 412.5 -227 Q 399 -239 381.5 -244 Q 364 -249 346 -249 L 171 -249 L 171 -74 Z " id="path137"/>
<path d="M 654 0 L 654 -520 L 737 -520 L 737 0 Z M 88 0 L 88 -520 L 171 -520 L 171 -323 L 339 -323 Q 362 -323 384 -319.5 Q 406 -316 426.5 -307 Q 447 -298 464 -282.5 Q 481 -267 492 -247.5 Q 503 -228 507.5 -206 Q 512 -184 512 -161 Q 512 -139 507.5 -116.5 Q 503 -94 492 -74.5 Q 481 -55 464 -40 Q 447 -25 426.5 -16 Q 406 -7 384 -3.5 Q 362 0 339 0 Z M 339 -74 Q 357 -74 374.5 -79 Q 392 -84 405 -96.5 Q 418 -109 423.5 -126 Q 429 -143 429 -161 Q 429 -179 423.5 -196.5 Q 418 -214 405 -226.5 Q 392 -239 374.5 -244 Q 357 -249 339 -249 L 171 -249 L 171 -74 Z " id="path138"/>
<path d="M 64 0 L 215 -200 Q 187 -204 160.5 -216.5 Q 134 -229 115 -251 Q 96 -273 88 -301.5 Q 80 -330 80 -359 Q 80 -381 84.5 -403.5 Q 89 -426 100 -445.5 Q 111 -465 128.5 -480 Q 146 -495 166.5 -504 Q 187 -513 209.5 -516.5 Q 232 -520 254 -520 L 512 -520 L 512 0 L 429 0 L 429 -198 L 314 -198 L 164 0 Z M 254 -271 L 429 -271 L 429 -447 L 254 -447 Q 236 -447 218.5 -442 Q 201 -437 187.5 -424.5 Q 174 -412 168.5 -394.5 Q 163 -377 163 -359 Q 163 -341 168.5 -323.5 Q 174 -306 187.5 -293.5 Q 201 -281 218.5 -276 Q 236 -271 254 -271 Z " id="path139"/>
<path d="M 1008 -127 L 180 -385 L 180 -462 L 1008 -719 L 1032 -649 L 304 -423 L 1032 -197 Z " id="path140"/>
<path d="M -420 41 L -420 -33 L 420 -33 L 420 41 Z " id="path141"/>
<path d="M 464 139 L 386 113 L 736 -819 L 814 -793 Z " id="path142"/>
<path d="M -512 -405 L -512 -479 L 512 -479 L 512 -405 L 31 -405 L 31 -442 L -31 -442 L -31 -405 Z M -512 -201 L -512 -275 L -31 -275 L -31 -238 L 31 -238 L 31 -275 L 512 -275 L 512 -201 Z " id="path143"/>
<path d="M 88 -405 L 88 -479 L 608 -479 L 608 -442 L 569 -442 L 569 -405 Z M 608 -201 L 88 -201 L 88 -275 L 569 -275 L 569 -238 L 608 -238 Z " id="path144"/>
<path d="M 512 -405 L 31 -405 L 31 -442 L -8 -442 L -8 -479 L 512 -479 Z M 512 -201 L -8 -201 L -8 -238 L 31 -238 L 31 -275 L 512 -275 Z " id="path145"/>
<path d="M 88 -405 L 88 -479 L 771 -479 L 771 -405 Z M 771 -201 L 88 -201 L 88 -275 L 771 -275 Z " id="path146"/>
<path d="M 88 -35 L 88 -238 L 171 -238 L 171 -174 L 442 -340 L 171 -506 L 171 -442 L 88 -442 L 88 -645 L 512 -383 L 512 -297 Z " id="path147"/>
<path d="M 88 -303 L 88 -377 L 1052 -377 L 1052 -303 Z " id="path148"/>
</defs>
<g>
<g data-source-text="ABC.DEF.GHI.JKL.MNO.PQRS.TUV.WXYZ    abc.def.ghi.jkl.mno.pqrs.tuv.wxyz" fill="#dee4e3" transform="translate(111.299805 48.16) rotate(0) scale(0.023999998)">
<use href="#path1" transform="translate(0 0)"/>
<use href="#path2" transform="translate(600 0)"/>
<use href="#path3" transform="translate(1200 0)"/>
<use href="#path4" transform="translate(1800 0)"/>
<use href="#path5" transform="translate(2250 0)"/>
<use href="#path6" transform="translate(2850 0)"/>
<use href="#path7" transform="translate(3450 0)"/>
<use href="#path4" transform="translate(4050 0)"/>
<use href="#path8" transform="translate(4500 0)"/>
<use href="#path9" transform="translate(5100 0)"/>
<use href="#path10" transform="translate(5700 0)"/>
<use href="#path4" transform="translate(6000 0)"/>
<use href="#path11" transform="translate(6450 0)"/>
<use href="#path12" transform="translate(7050 0)"/>
<use href="#path13" transform="translate(7650 0)"/>
<use href="#path4" transform="translate(8250 0)"/>
<use href="#path14" transform="translate(8700 0)"/>
<use href="#path15" transform="translate(9450 0)"/>
<use href="#path16" transform="translate(10050 0)"/>
<use href="#path4" transform="translate(10650 0)"/>
<use href="#path17" transform="translate(11100 0)"/>
<use href="#path18" transform="translate(11700 0)"/>
<use href="#path19" transform="translate(12300 0)"/>
<use href="#path20" transform="translate(12900 0)"/>
<use href="#path4" transform="translate(13500 0)"/>
<use href="#path21" transform="translate(13949.996 0)"/>
<use href="#path22" transform="translate(14549.996 0)"/>
<use href="#path23" transform="translate(15149.996 0)"/>
<use href="#path4" transform="translate(15749.996 0)"/>
<use href="#path24" transform="translate(16199.996 0)"/>
<use href="#path25" transform="translate(16949.996 0)"/>
<use href="#path26" transform="translate(17549.996 0)"/>
<use href="#path27" transform="translate(18149.996 0)"/>
<use href="#path28" transform="translate(20549.996 0)"/>
<use href="#path29" transform="translate(21149.996 0)"/>
<use href="#path30" transform="translate(21749.992 0)"/>
<use href="#path4" transform="translate(22349.996 0)"/>
<use href="#path31" transform="translate(22799.996 0)"/>
<use href="#path32" transform="translate(23399.996 0)"/>
<use href="#path33" transform="translate(23999.996 0)"/>
<use href="#path4" transform="translate(24449.996 0)"/>
<use href="#path34" transform="translate(24899.996 0)"/>
<use href="#path35" transform="translate(25499.996 0)"/>
<use href="#path36" transform="translate(26099.996 0)"/>
<use href="#path4" transform="translate(26400 0)"/>
<use href="#path37" transform="translate(26849.996 0)"/>
<use href="#path38" transform="translate(27150 0)"/>
<use href="#path10" transform="translate(27750 0)"/>
<use href="#path4" transform="translate(28050 0)"/>
<use href="#path39" transform="translate(28500 0)"/>
<use href="#path40" transform="translate(29250 0)"/>
<use href="#path41" transform="translate(29850 0)"/>
<use href="#path4" transform="translate(30450 0)"/>
<use href="#path42" transform="translate(30900 0)"/>
<use href="#path43" transform="translate(31500 0)"/>
<use href="#path44" transform="translate(32100.004 0)"/>
<use href="#path45" transform="translate(32550.004 0)"/>
<use href="#path4" transform="translate(33150.004 0)"/>
<use href="#path46" transform="translate(33600.004 0)"/>
<use href="#path47" transform="translate(34050 0)"/>
<use href="#path48" transform="translate(34650.004 0)"/>
<use href="#path4" transform="translate(35250.004 0)"/>
<use href="#path49" transform="translate(35700.004 0)"/>
<use href="#path50" transform="translate(36450.004 0)"/>
<use href="#path51" transform="translate(37050.004 0)"/>
<use href="#path52" transform="translate(37650.004 0)"/>
</g>
<g data-source-text="    " fill="#dee4e3" transform="translate(1029.2999 48.16) rotate(0) scale(0.023999998)"/>
<g data-source-text="&#xA;" fill="#dee4e3" transform="translate(1072.5 48.16) rotate(0) scale(0.023999998)"/>
<g data-source-text="!iIlL17| coO08BbDQ $5SZ2zs 96m    float il1[]={1-2/3.4,5+6=7/8%90};" fill="#dee4e3" transform="translate(111.299805 85.66) rotate(0) scale(0.023999998)">
<use href="#path53" transform="translate(0 0)"/>
<use href="#path36" transform="translate(450 0)"/>
<use href="#path10" transform="translate(750 0)"/>
<use href="#path10" transform="translate(1050 0)"/>
<use href="#path13" transform="translate(1350 0)"/>
<use href="#path54" transform="translate(1950 0)"/>
<use href="#path55" transform="translate(2550 0)"/>
<use href="#path56" transform="translate(3150 0)"/>
<use href="#path57" transform="translate(3750 0)"/>
<use href="#path58" transform="translate(4800 0)"/>
<use href="#path30" transform="translate(5400 0)"/>
<use href="#path41" transform="translate(6000 0)"/>
<use href="#path16" transform="translate(6600 0)"/>
<use href="#path59" transform="translate(7200 0)"/>
<use href="#path60" transform="translate(7800 0)"/>
<use href="#path2" transform="translate(8400 0)"/>
<use href="#path29" transform="translate(9000 0)"/>
<use href="#path5" transform="translate(9600 0)"/>
<use href="#path18" transform="translate(10200 0)"/>
<use href="#path61" transform="translate(11250 0)"/>
<use href="#path62" transform="translate(11850 0)"/>
<use href="#path20" transform="translate(12449.996 0)"/>
<use href="#path27" transform="translate(13049.996 0)"/>
<use href="#path63" transform="translate(13649.996 0)"/>
<use href="#path52" transform="translate(14249.996 0)"/>
<use href="#path45" transform="translate(14849.996 0)"/>
<use href="#path64" transform="translate(15899.996 0)"/>
<use href="#path65" transform="translate(16499.996 0)"/>
<use href="#path66" transform="translate(17099.996 0)"/>
<use href="#path39" transform="translate(17699.996 0)"/>
<use href="#path33" transform="translate(20249.992 0)"/>
<use href="#path10" transform="translate(20699.992 0)"/>
<use href="#path41" transform="translate(20999.992 0)"/>
<use href="#path28" transform="translate(21599.996 0)"/>
<use href="#path46" transform="translate(22199.996 0)"/>
<use href="#path36" transform="translate(23099.996 0)"/>
<use href="#path10" transform="translate(23399.996 0)"/>
<use href="#path54" transform="translate(23699.996 0)"/>
<use href="#path67" transform="translate(24299.996 0)"/>
<use href="#path68" transform="translate(24900 0)"/>
<use href="#path69" transform="translate(25500 0)"/>
<use href="#path70" transform="translate(26100 0)"/>
<use href="#path54" transform="translate(26700 0)"/>
<use href="#path71" transform="translate(27300.004 0)"/>
<use href="#path63" transform="translate(27750 0)"/>
<use href="#path72" transform="translate(28350.004 0)"/>
<use href="#path73" transform="translate(28950.004 0)"/>
<use href="#path4" transform="translate(29550.004 0)"/>
<use href="#path74" transform="translate(30000.004 0)"/>
<use href="#path75" transform="translate(30600.004 0)"/>
<use href="#path62" transform="translate(31050.004 0)"/>
<use href="#path76" transform="translate(31650.008 0)"/>
<use href="#path65" transform="translate(32250.008 0)"/>
<use href="#path69" transform="translate(32850.008 0)"/>
<use href="#path55" transform="translate(33450.008 0)"/>
<use href="#path72" transform="translate(34050.008 0)"/>
<use href="#path60" transform="translate(34650.01 0)"/>
<use href="#path77" transform="translate(35250.01 0)"/>
<use href="#path64" transform="translate(35850.01 0)"/>
<use href="#path59" transform="translate(36450.01 0)"/>
<use href="#path78" transform="translate(37050.016 0)"/>
<use href="#path79" transform="translate(37650.016 0)"/>
</g>
<g data-source-text="    " fill="#dee4e3" transform="translate(1025.7002 85.66) rotate(0) scale(0.023999998)"/>
<g data-source-text="&#xA;" fill="#dee4e3" transform="translate(1068.9001 85.66) rotate(0) scale(0.023999998)"/>
<g data-source-text="1234567890 ,._-+= &gt;&lt; -_ ~+    {*}[]()&lt;&gt;`+-=$/#_%^@\&amp;|~?&apos;&quot; !,.;:" fill="#dee4e3" transform="translate(111.299805 123.16) rotate(0) scale(0.023999998)">
<use href="#path54" transform="translate(0 0)"/>
<use href="#path63" transform="translate(600 0)"/>
<use href="#path73" transform="translate(1200 0)"/>
<use href="#path74" transform="translate(1800 0)"/>
<use href="#path62" transform="translate(2400 0)"/>
<use href="#path65" transform="translate(3000 0)"/>
<use href="#path55" transform="translate(3600 0)"/>
<use href="#path60" transform="translate(4200 0)"/>
<use href="#path64" transform="translate(4800 0)"/>
<use href="#path59" transform="translate(5400 0)"/>
<use href="#path75" transform="translate(6450 0)"/>
<use href="#path4" transform="translate(6900 0)"/>
<use href="#path80" transform="translate(7350 0)"/>
<use href="#path71" transform="translate(7950 0)"/>
<use href="#path76" transform="translate(8400 0)"/>
<use href="#path69" transform="translate(9000 0)"/>
<use href="#path81" transform="translate(10050 0)"/>
<use href="#path82" transform="translate(10650 0)"/>
<use href="#path83" transform="translate(11700 0)"/>
<use href="#path84" transform="translate(12300 0)"/>
<use href="#path71" transform="translate(12750 0)"/>
<use href="#path85" transform="translate(13200 0)"/>
<use href="#path80" transform="translate(13800 0)"/>
<use href="#path86" transform="translate(14400 0)"/>
<use href="#path87" transform="translate(15449.996 0)"/>
<use href="#path88" transform="translate(16049.996 0)"/>
<use href="#path89" transform="translate(16649.996 0)"/>
<use href="#path76" transform="translate(17249.996 0)"/>
<use href="#path90" transform="translate(17849.996 0)"/>
<use href="#path70" transform="translate(20249.996 0)"/>
<use href="#path91" transform="translate(20849.996 0)"/>
<use href="#path78" transform="translate(21449.996 0)"/>
<use href="#path67" transform="translate(22049.996 0)"/>
<use href="#path68" transform="translate(22650 0)"/>
<use href="#path92" transform="translate(23250 0)"/>
<use href="#path93" transform="translate(23850 0)"/>
<use href="#path94" transform="translate(24450 0)"/>
<use href="#path95" transform="translate(25050.004 0)"/>
<use href="#path96" transform="translate(25650.004 0)"/>
<use href="#path76" transform="translate(26100.004 0)"/>
<use href="#path71" transform="translate(26700.004 0)"/>
<use href="#path69" transform="translate(27150.004 0)"/>
<use href="#path61" transform="translate(27750.004 0)"/>
<use href="#path72" transform="translate(28350.004 0)"/>
<use href="#path97" transform="translate(28950.008 0)"/>
<use href="#path80" transform="translate(29550.008 0)"/>
<use href="#path77" transform="translate(30150.008 0)"/>
<use href="#path98" transform="translate(30750.008 0)"/>
<use href="#path99" transform="translate(31350.012 0)"/>
<use href="#path100" transform="translate(32100.012 0)"/>
<use href="#path101" transform="translate(32700.012 0)"/>
<use href="#path56" transform="translate(33300.01 0)"/>
<use href="#path87" transform="translate(33900.01 0)"/>
<use href="#path102" transform="translate(34500.016 0)"/>
<use href="#path103" transform="translate(35100.016 0)"/>
<use href="#path104" transform="translate(35550.016 0)"/>
<use href="#path53" transform="translate(36600.016 0)"/>
<use href="#path75" transform="translate(37050.016 0)"/>
<use href="#path4" transform="translate(37500.016 0)"/>
<use href="#path79" transform="translate(37950.01 0)"/>
<use href="#path105" transform="translate(38400.01 0)"/>
</g>
<g data-source-text="    " fill="#dee4e3" transform="translate(1043.7001 123.16) rotate(0) scale(0.023999998)"/>
<g data-source-text="&#xA;" fill="#dee4e3" transform="translate(1086.9001 123.16) rotate(0) scale(0.023999998)"/>
<g data-source-text="E3CGQ g9q uvw  " fill="#dee4e3" transform="translate(111.299805 160.66) rotate(0) scale(0.023999998)">
<use href="#path6" transform="translate(0 0)"/>
<use href="#path73" transform="translate(600 0)"/>
<use href="#path3" transform="translate(1200 0)"/>
<use href="#path8" transform="translate(1800 0)"/>
<use href="#path18" transform="translate(2400 0)"/>
<use href="#path34" transform="translate(3450 0)"/>
<use href="#path64" transform="translate(4050 0)"/>
<use href="#path43" transform="translate(4650 0)"/>
<use href="#path106" transform="translate(5250 0)"/>
<use href="#path47" transform="translate(6300 0)"/>
<use href="#path48" transform="translate(6900 0)"/>
<use href="#path49" transform="translate(7500 0)"/>
<use href="#path107" transform="translate(8700 0)"/>
<use href="#path108" transform="translate(9300 0)"/>
<use href="#path109" transform="translate(9900 0)"/>
<use href="#path110" transform="translate(10500 0)"/>
</g>
<g data-source-text="    " fill="#dee4e3" transform="translate(388.4998 160.66) rotate(0) scale(0.023999998)">
<use href="#path111" transform="translate(0 0)"/>
<use href="#path112" transform="translate(600 0)"/>
<use href="#path113" transform="translate(1200 0)"/>
<use href="#path114" transform="translate(1800 0)"/>
<use href="#path115" transform="translate(2400 0)"/>
<use href="#path116" transform="translate(3000 0)"/>
<use href="#path117" transform="translate(3300 0)"/>
<use href="#path118" transform="translate(3900 0)"/>
<use href="#path119" transform="translate(4500 0)"/>
<use href="#path120" transform="translate(5100 0)"/>
<use href="#path121" transform="translate(5700 0)"/>
<use href="#path122" transform="translate(6300 0)"/>
<use href="#path123" transform="translate(6900 0)"/>
</g>
<g data-source-text=" &lt;= != == =&gt; -&gt;" fill="#dee4e3" transform="translate(611.69977 160.66) rotate(0) scale(0.023999998)">
<use href="#path124" transform="translate(0 0)"/>
<use href="#path125" transform="translate(750 0)"/>
<use href="#path126" transform="translate(1350 0)"/>
<use href="#path127" transform="translate(1950 0)"/>
<use href="#path128" transform="translate(2550 0)"/>
<use href="#path129" transform="translate(3150 0)"/>
<use href="#path130" transform="translate(3900 0)"/>
<use href="#path131" transform="translate(4500 0)"/>
<use href="#path132" transform="translate(5100 0)"/>
<use href="#path133" transform="translate(5700 0)"/>
<use href="#path134" transform="translate(6450 0)"/>
<use href="#path42" transform="translate(7050 0)"/>
<use href="#path51" transform="translate(7650 0)"/>
<use href="#path135" transform="translate(8250 0)"/>
<use href="#path136" transform="translate(9000 0)"/>
<use href="#path137" transform="translate(9600 0)"/>
<use href="#path138" transform="translate(10200 0)"/>
<use href="#path139" transform="translate(11025 0)"/>
<use href="#path140" transform="translate(12075 0)"/>
<use href="#path141" transform="translate(12675 0)"/>
<use href="#path142" transform="translate(13725 0)"/>
<use href="#path143" transform="translate(14324.996 0)"/>
<use href="#path144" transform="translate(15374.996 0)"/>
<use href="#path145" transform="translate(15974.996 0)"/>
<use href="#path146" transform="translate(17024.996 0)"/>
<use href="#path147" transform="translate(17624.996 0)"/>
<use href="#path148" transform="translate(18674.996 0)"/>
<use href="#path81" transform="translate(19274.996 0)"/>
</g>
<g data-source-text="    " fill="#dee4e3" transform="translate(1088.6996 160.66) rotate(0) scale(0.023999998)"/>
</g>
</svg>