<?xml version="1.0" encoding="UTF-8" standalone="no"?>
<svg height="200" viewBox="0 0 1200 200" width="1200" xmlns="http://www.w3.org/2000/svg">
<defs>
<path d="M 44 0 L 151 -490 L 205 -735 L 295 -735 L 456 0 L 376 0 L 337 -190 L 163 -190 L 124 0 Z M 177 -260 L 323 -260 L 276 -490 Q 269 -522 262.5 -554 Q 256 -586 250 -618 Q 244 -586 237.5 -554 Q 231 -522 224 -490 Z " id="path1"/>
<path d="M 64 0 L 64 -735 L 233 -735 Q 259 -735 284.5 -730.5 Q 310 -726 333 -714.5 Q 356 -703 374.5 -684.5 Q 393 -666 405 -642.5 Q 417 -619 421.5 -593.5 Q 426 -568 426 -542 Q 426 -518 421.5 -493.5 Q 417 -469 405 -448 Q 393 -427 375 -410 Q 357 -393 335 -383 Q 361 -373 384.5 -356 Q 408 -339 423.5 -315 Q 439 -291 445.5 -263 Q 452 -235 452 -206 Q 452 -178 446.5 -149.5 Q 441 -121 427 -96 Q 413 -71 391.5 -52 Q 370 -33 344 -21 Q 318 -9 289.5 -4.5 Q 261 -0 233 0 Z M 142 -416 L 233 -416 Q 249 -416 265 -419 Q 281 -422 295 -430 Q 309 -438 319.5 -450.5 Q 330 -463 336.5 -477.5 Q 343 -492 345.5 -508 Q 348 -524 348 -541 Q 348 -557 345.5 -573 Q 343 -589 336.5 -603.5 Q 330 -618 319.5 -630.5 Q 309 -643 295 -651 Q 281 -659 265 -662 Q 249 -665 233 -665 L 142 -665 Z M 142 -70 L 233 -70 Q 252 -70 270.5 -73 Q 289 -76 305.5 -84 Q 322 -92 336 -105.5 Q 350 -119 359 -135.5 Q 368 -152 371 -170.5 Q 374 -189 374 -208 Q 374 -226 371 -245 Q 368 -264 359 -280.5 Q 350 -297 336.5 -310 Q 323 -323 306 -331.5 Q 289 -340 270.5 -343 Q 252 -346 233 -346 L 142 -346 Z " id="path2"/>
<path d="M 247 8 Q 221 8 194.5 3 Q 168 -2 145 -15 Q 122 -28 104 -48 Q 86 -68 75 -92 Q 64 -116 60 -142.5 Q 56 -169 56 -195 L 56 -540 Q 56 -566 60 -592.5 Q 64 -619 75 -643 Q 86 -667 104 -687 Q 122 -707 145 -720 Q 168 -733 194.5 -738 Q 221 -743 247 -743 Q 272 -743 296.5 -739 Q 321 -735 343.5 -724 Q 366 -713 384.5 -696 Q 403 -679 414.5 -657 Q 426 -635 432 -611 Q 438 -587 438 -562 L 438 -559 L 360 -559 L 360 -561 Q 360 -583 352.5 -605 Q 345 -627 329.5 -643 Q 314 -659 292 -666 Q 270 -673 247 -673 Q 222 -673 198.5 -663.5 Q 175 -654 160 -634 Q 145 -614 139.5 -589.5 Q 134 -565 134 -540 L 134 -195 Q 134 -170 139.5 -145.5 Q 145 -121 160 -101 Q 175 -81 198.5 -71.5 Q 222 -62 247 -62 Q 270 -62 292 -69 Q 314 -76 329.5 -92 Q 345 -108 352.5 -130 Q 360 -152 360 -174 L 360 -176 L 438 -176 L 438 -173 Q 438 -148 432 -124 Q 426 -100 414.5 -78 Q 403 -56 384.5 -39 Q 366 -22 343.5 -11 Q 321 0 296.5 4 Q 272 8 247 8 Z " id="path3"/>
<path d="M 250 8 Q 234 8 219 3.5 Q 204 -1 192.5 -12.5 Q 181 -24 176.5 -39 Q 172 -54 172 -70 Q 172 -86 176.5 -101 Q 181 -116 192.5 -127.5 Q 204 -139 219 -143.5 Q 234 -148 250 -148 Q 266 -148 281 -143.5 Q 296 -139 307.5 -127.5 Q 319 -116 323.5 -101 Q 328 -86 328 -70 Q 328 -54 323.5 -39 Q 319 -24 307.5 -12.5 Q 296 -1 281 3.5 Q 266 8 250 8 Z " id="path4"/>
<path d="M 64 0 L 64 -735 L 222 -735 Q 251 -735 280 -730 Q 309 -725 335.5 -712.5 Q 362 -700 384 -680 Q 406 -660 419.5 -634 Q 433 -608 438.5 -579 Q 444 -550 444 -521 L 444 -215 Q 444 -185 438.5 -156 Q 433 -127 419.5 -101 Q 406 -75 384 -55 Q 362 -35 335.5 -22.5 Q 309 -10 280 -5 Q 251 -0 222 0 Z M 142 -70 L 221 -70 Q 241 -70 260 -73.5 Q 279 -77 296.5 -85.5 Q 314 -94 328 -108 Q 342 -122 350.5 -139.5 Q 359 -157 362.5 -176 Q 366 -195 366 -215 L 366 -521 Q 366 -540 362.5 -559 Q 359 -578 350.5 -595.5 Q 342 -613 328 -627 Q 314 -641 296.5 -649.5 Q 279 -658 260 -661.5 Q 241 -665 221 -665 L 142 -665 Z " id="path5"/>
<path d="M 72 0 L 72 -735 L 436 -735 L 436 -665 L 150 -665 L 150 -417 L 380 -417 L 380 -347 L 150 -347 L 150 -70 L 436 -70 L 436 0 Z " id="path6"/>
<path d="M 96 0 L 96 -735 L 436 -735 L 436 -665 L 174 -665 L 174 -417 L 380 -417 L 380 -347 L 174 -347 L 174 0 Z " id="path7"/>
<path d="M 219 8 Q 194 8 170 1.5 Q 146 -5 126 -19.5 Q 106 -34 92 -54.5 Q 78 -75 70 -98 Q 62 -121 59 -145.5 Q 56 -170 56 -195 L 56 -540 Q 56 -566 60 -592.5 Q 64 -619 75 -643 Q 86 -667 104 -687 Q 122 -707 145 -720 Q 168 -733 194.5 -738 Q 221 -743 247 -743 Q 272 -743 296.5 -739 Q 321 -735 343.5 -724 Q 366 -713 384.5 -696 Q 403 -679 414.5 -657 Q 426 -635 432 -611 Q 438 -587 438 -562 L 438 -559 L 360 -559 L 360 -561 Q 360 -583 352.5 -605 Q 345 -627 329.5 -643 Q 314 -659 292 -666 Q 270 -673 247 -673 Q 222 -673 198.5 -663.5 Q 175 -654 160 -634 Q 145 -614 139.5 -589.5 Q 134 -565 134 -540 L 134 -195 Q 134 -178 136 -161.5 Q 138 -145 144.5 -129.5 Q 151 -114 161.5 -101 Q 172 -88 186 -79 Q 200 -70 216 -66 Q 232 -62 249 -62 Q 265 -62 281.5 -66 Q 298 -70 311 -79.5 Q 324 -89 333.5 -102.5 Q 343 -116 348.5 -131 Q 354 -146 356 -162.5 Q 358 -179 358 -195 L 358 -330 L 250 -330 L 250 -400 L 436 -400 L 436 0 L 367 0 L 367 -115 Q 360 -90 347.5 -66.5 Q 335 -43 315.5 -25.5 Q 296 -8 270.5 0 Q 245 8 219 8 Z " id="path8"/>
<path d="M 64 0 L 64 -735 L 142 -735 L 142 -415 L 358 -415 L 358 -735 L 436 -735 L 436 0 L 358 0 L 358 -345 L 142 -345 L 142 0 Z " id="path9"/>
<path d="M 75 0 L 75 -70 L 211 -70 L 211 -665 L 75 -665 L 75 -735 L 425 -735 L 425 -665 L 289 -665 L 289 -70 L 425 -70 L 425 0 Z " id="path10"/>
<path d="M 228 8 Q 204 8 180 3.5 Q 156 -1 134.5 -12 Q 113 -23 96 -41 Q 79 -59 68 -80.5 Q 57 -102 51.5 -126 Q 46 -150 46 -174 L 46 -176 L 124 -176 L 124 -175 Q 124 -153 130.5 -131.5 Q 137 -110 151 -94 Q 165 -78 186 -70 Q 207 -62 228 -62 Q 245 -62 260.5 -66 Q 276 -70 289 -80 Q 302 -90 311 -103.5 Q 320 -117 325 -132 Q 330 -147 332 -163 Q 334 -179 334 -195 L 334 -665 L 198 -665 L 198 -735 L 411 -735 L 411 -195 Q 411 -169 407.5 -143.5 Q 404 -118 394 -94 Q 384 -70 367 -49.5 Q 350 -29 328 -16 Q 306 -3 280 2.5 Q 254 8 228 8 Z " id="path11"/>
<path d="M 361 0 L 201 -324 L 157 -252 L 157 0 L 80 0 L 80 -735 L 157 -735 L 157 -398 L 357 -735 L 445 -735 L 247 -402 L 445 0 Z " id="path12"/>
<path d="M 96 0 L 96 -735 L 174 -735 L 174 -70 L 442 -70 L 442 0 Z " id="path13"/>
<path d="M 48 0 L 48 -735 L 142 -735 L 250 -332 L 358 -735 L 452 -735 L 452 0 L 374 0 L 374 -147 Q 374 -262 378 -377 Q 382 -492 384 -607 L 280 -221 L 220 -221 L 116 -607 Q 118 -492 122 -377 Q 126 -262 126 -147 L 126 0 Z " id="path14"/>
<path d="M 64 0 L 64 -735 L 160 -735 L 367 -127 Q 365 -206 361.5 -284.5 Q 358 -363 358 -441 L 358 -735 L 436 -735 L 436 0 L 340 0 L 133 -608 Q 135 -529 138.5 -450.5 Q 142 -372 142 -294 L 142 0 Z " id="path15"/>
<path d="M 250 8 Q 223 8 196.5 3 Q 170 -2 147 -14.5 Q 124 -27 105.5 -47 Q 87 -67 76 -91 Q 65 -115 60.5 -141.5 Q 56 -168 56 -195 L 56 -540 Q 56 -567 60.5 -593.5 Q 65 -620 76 -644 Q 87 -668 105.5 -688 Q 124 -708 147 -720.5 Q 170 -733 196.5 -738 Q 223 -743 250 -743 Q 277 -743 303.5 -738 Q 330 -733 353 -720.5 Q 376 -708 394.5 -688 Q 413 -668 424 -643.5 Q 435 -619 439.5 -593 Q 444 -567 444 -540 L 444 -195 Q 444 -168 439.5 -141.5 Q 435 -115 424 -91 Q 413 -67 394.5 -47 Q 376 -27 353 -14.5 Q 330 -2 303.5 3 Q 277 8 250 8 Z M 250 -62 Q 267 -62 283.5 -65.5 Q 300 -69 314 -78 Q 328 -87 338.5 -100.5 Q 349 -114 355.5 -129.5 Q 362 -145 364 -161.5 Q 366 -178 366 -195 L 366 -540 Q 366 -557 364 -573.5 Q 362 -590 355.5 -605.5 Q 349 -621 338.5 -634.5 Q 328 -648 314 -657 Q 300 -666 283.5 -669.5 Q 267 -673 250 -673 Q 233 -673 216.5 -669.5 Q 200 -666 186 -657 Q 172 -648 161.5 -634.5 Q 151 -621 144.5 -605.5 Q 138 -590 136 -573.5 Q 134 -557 134 -540 L 134 -195 Q 134 -178 136 -161.5 Q 138 -145 144.5 -129.5 Q 151 -114 161.5 -100.5 Q 172 -87 186 -78 Q 200 -69 216.5 -65.5 Q 233 -62 250 -62 Z " id="path16"/>
<path d="M 80 0 L 80 -735 L 256 -735 Q 283 -735 310.5 -729.5 Q 338 -724 362 -710 Q 386 -696 404 -674.5 Q 422 -653 433 -627.5 Q 444 -602 448 -574.5 Q 452 -547 452 -520 Q 452 -492 448 -464.5 Q 444 -437 433 -411.5 Q 422 -386 404 -364.5 Q 386 -343 362 -329 Q 338 -315 310.5 -309.5 Q 283 -304 256 -304 L 158 -304 L 158 0 Z M 256 -374 Q 274 -374 291 -378.5 Q 308 -383 322.5 -393 Q 337 -403 347.5 -418 Q 358 -433 364 -449.5 Q 370 -466 372 -484 Q 374 -502 374 -520 Q 374 -537 372 -555 Q 370 -573 364 -589.5 Q 358 -606 347.5 -621 Q 337 -636 322.5 -646 Q 308 -656 291 -660.5 Q 274 -665 256 -665 L 158 -665 L 158 -374 Z " id="path17"/>
<path d="M 381 165 Q 359 165 337.5 161.5 Q 316 158 296.5 148.5 Q 277 139 261 123.5 Q 245 108 235 89 Q 225 70 220.5 49 Q 216 28 216 6 Q 192 3 169.5 -5 Q 147 -13 128 -27 Q 109 -41 94.5 -60.5 Q 80 -80 71 -102 Q 62 -124 59 -147.5 Q 56 -171 56 -195 L 56 -540 Q 56 -567 60.5 -593.5 Q 65 -620 76 -644 Q 87 -668 105.5 -688 Q 124 -708 147 -720.5 Q 170 -733 196.5 -738 Q 223 -743 250 -743 Q 277 -743 303.5 -738 Q 330 -733 353 -720.5 Q 376 -708 394.5 -688 Q 413 -668 424 -643.5 Q 435 -619 439.5 -593 Q 444 -567 444 -540 L 444 -195 Q 444 -172 441 -149 Q 438 -126 430 -104.5 Q 422 -83 408.5 -64 Q 395 -45 377 -30.5 Q 359 -16 337.5 -7.5 Q 316 1 293 5 Q 294 23 299 40 Q 304 57 316 70 Q 328 83 345.5 89 Q 363 95 381 95 L 420 95 L 420 165 Z M 250 -62 Q 267 -62 283.5 -65.5 Q 300 -69 314 -78 Q 328 -87 338.5 -100.5 Q 349 -114 355.5 -129.5 Q 362 -145 364 -161.5 Q 366 -178 366 -195 L 366 -540 Q 366 -557 364 -573.5 Q 362 -590 355.5 -605.5 Q 349 -621 338.5 -634.5 Q 328 -648 314 -657 Q 300 -666 283.5 -669.5 Q 267 -673 250 -673 Q 233 -673 216.5 -669.5 Q 200 -666 186 -657 Q 172 -648 161.5 -634.5 Q 151 -621 144.5 -605.5 Q 138 -590 136 -573.5 Q 134 -557 134 -540 L 134 -195 Q 134 -178 136 -161.5 Q 138 -145 144.5 -129.5 Q 151 -114 161.5 -100.5 Q 172 -87 186 -78 Q 200 -69 216.5 -65.5 Q 233 -62 250 -62 Z " id="path18"/>
<path d="M 375 0 L 228 -304 L 142 -304 L 142 0 L 64 0 L 64 -735 L 256 -735 Q 283 -735 309.5 -729 Q 336 -723 359 -708.5 Q 382 -694 399 -672.5 Q 416 -651 426 -626 Q 436 -601 440 -574 Q 444 -547 444 -520 Q 444 -486 438 -452 Q 432 -418 415 -389 Q 398 -360 370.5 -339 Q 343 -318 310 -309 L 460 0 Z M 256 -374 Q 273 -374 290 -379 Q 307 -384 320.5 -394.5 Q 334 -405 343 -420 Q 352 -435 357 -451.5 Q 362 -468 364 -485 Q 366 -502 366 -520 Q 366 -537 364 -554 Q 362 -571 357 -587.5 Q 352 -604 343 -619 Q 334 -634 320.5 -644.5 Q 307 -655 290 -660 Q 273 -665 256 -665 L 142 -665 L 142 -374 Z " id="path19"/>
<path d="M 249 8 Q 224 8 199.5 4 Q 175 -0 152 -10 Q 129 -20 110.5 -36.5 Q 92 -53 79 -74.5 Q 66 -96 60 -120.5 Q 54 -145 54 -170 L 54 -174 L 132 -174 L 132 -171 Q 132 -148 140 -126.5 Q 148 -105 165 -90 Q 182 -75 204 -68.5 Q 226 -62 249 -62 Q 272 -62 295 -69 Q 318 -76 334.5 -92.5 Q 351 -109 359 -132 Q 367 -155 367 -178 Q 367 -204 356.5 -228 Q 346 -252 328 -270.5 Q 310 -289 288 -302.5 Q 266 -316 243 -328 Q 220 -340 198 -353 Q 176 -366 156 -382 Q 136 -398 118.5 -417.5 Q 101 -437 89 -459.5 Q 77 -482 70.5 -507 Q 64 -532 64 -558 Q 64 -582 69.5 -606.5 Q 75 -631 86.5 -653 Q 98 -675 115.5 -693 Q 133 -711 155 -722.5 Q 177 -734 201.5 -738.5 Q 226 -743 251 -743 Q 275 -743 299.5 -739 Q 324 -735 346 -724.5 Q 368 -714 385.5 -697 Q 403 -680 415 -658.5 Q 427 -637 432.5 -613 Q 438 -589 438 -565 L 438 -561 L 360 -561 L 360 -564 Q 360 -585 353 -606.5 Q 346 -628 331 -643.5 Q 316 -659 294.5 -666 Q 273 -673 251 -673 Q 229 -673 207 -665 Q 185 -657 170 -640.5 Q 155 -624 148 -602 Q 141 -580 141 -557 Q 141 -532 151.5 -507.5 Q 162 -483 179.5 -464.5 Q 197 -446 219.5 -432.5 Q 242 -419 264.5 -407.5 Q 287 -396 309.5 -382.5 Q 332 -369 352 -353 Q 372 -337 389 -318 Q 406 -299 418.5 -276.5 Q 431 -254 437.5 -228.5 Q 444 -203 444 -178 Q 444 -152 438 -127 Q 432 -102 420 -80 Q 408 -58 389 -40.5 Q 370 -23 347.5 -12 Q 325 -1 299.5 3.5 Q 274 8 249 8 Z " id="path20"/>
<path d="M 211 0 L 211 -665 L 58 -665 L 58 -735 L 442 -735 L 442 -665 L 289 -665 L 289 0 Z " id="path21"/>
<path d="M 250 8 Q 224 8 198 2.5 Q 172 -3 149.5 -16 Q 127 -29 110 -49 Q 93 -69 82.5 -93 Q 72 -117 68 -143 Q 64 -169 64 -195 L 64 -735 L 142 -735 L 142 -195 Q 142 -179 144 -162.5 Q 146 -146 151.5 -131 Q 157 -116 166 -102.5 Q 175 -89 188.5 -79.5 Q 202 -70 218 -66 Q 234 -62 250 -62 Q 266 -62 282 -66 Q 298 -70 311.5 -79.5 Q 325 -89 334 -102.5 Q 343 -116 348.5 -131 Q 354 -146 356 -162.5 Q 358 -179 358 -195 L 358 -735 L 436 -735 L 436 -195 Q 436 -169 432 -143 Q 428 -117 417.5 -93 Q 407 -69 390 -49 Q 373 -29 350.5 -16 Q 328 -3 302 2.5 Q 276 8 250 8 Z " id="path22"/>
<path d="M 205 0 L 151 -245 L 44 -735 L 124 -735 L 224 -245 Q 231 -213 237.5 -181 Q 244 -149 250 -117 Q 256 -149 262.5 -181 Q 269 -213 276 -245 L 376 -735 L 456 -735 L 295 0 Z " id="path23"/>
<path d="M 194 0 L 117 0 L 32 -735 L 110 -735 L 158 -106 L 211 -529 L 289 -529 L 342 -106 L 390 -735 L 468 -735 L 383 0 L 306 0 L 250 -394 Z " id="path24"/>
<path d="M 48 0 L 210 -368 L 48 -735 L 133 -735 L 250 -462 L 367 -735 L 452 -735 L 290 -367 L 452 0 L 367 0 L 250 -273 L 133 0 Z " id="path25"/>
<path d="M 211 0 L 211 -292 L 45 -735 L 128 -735 L 250 -402 L 372 -735 L 455 -735 L 289 -292 L 289 0 Z " id="path26"/>
<path d="M 64 0 L 64 -70 L 347 -665 L 64 -665 L 64 -735 L 436 -735 L 436 -665 L 153 -70 L 436 -70 L 436 0 Z " id="path27"/>
<path d="M 202 8 Q 172 8 143 -1 Q 114 -10 93.5 -32 Q 73 -54 64.5 -83 Q 56 -112 56 -142 Q 56 -167 62.5 -192 Q 69 -217 84.5 -237 Q 100 -257 122 -270.5 Q 144 -284 168.5 -292 Q 193 -300 218 -303 Q 243 -306 269 -306 L 358 -306 L 358 -355 Q 358 -376 351 -397 Q 344 -418 328 -432 Q 312 -446 291 -452 Q 270 -458 249 -458 Q 229 -458 209.5 -454 Q 190 -450 174 -439 Q 158 -428 149 -410 Q 140 -392 140 -373 L 62 -373 Q 62 -396 68.5 -418 Q 75 -440 88 -459 Q 101 -478 119.5 -491.5 Q 138 -505 159 -513.5 Q 180 -522 203 -525 Q 226 -528 249 -528 Q 273 -528 297 -524.5 Q 321 -521 343 -511 Q 365 -501 383.5 -485 Q 402 -469 414 -448 Q 426 -427 431 -403 Q 436 -379 436 -355 L 436 -93 Q 436 -87 438 -81 Q 440 -75 444.5 -70.5 Q 449 -66 455 -64 Q 461 -62 467 -62 L 482 -62 L 482 8 L 467 8 Q 447 8 427 3 Q 407 -2 391 -15 Q 375 -28 367 -47 Q 359 -66 358 -87 Q 349 -64 332.5 -45.5 Q 316 -27 295 -14.5 Q 274 -2 250 3 Q 226 8 202 8 Z M 232 -62 Q 256 -62 280.5 -69 Q 305 -76 323 -92 Q 341 -108 349.5 -131.5 Q 358 -155 358 -180 L 358 -236 L 269 -236 Q 254 -236 238.5 -234.5 Q 223 -233 208.5 -229.5 Q 194 -226 180 -219.5 Q 166 -213 155 -203 Q 144 -193 139 -178.5 Q 134 -164 134 -149 Q 134 -130 141 -112.5 Q 148 -95 162 -83 Q 176 -71 194.5 -66.5 Q 213 -62 232 -62 Z " id="path28"/>
<path d="M 281 8 Q 258 8 235.5 2 Q 213 -4 194.5 -17.5 Q 176 -31 163 -50.5 Q 150 -70 142 -91 L 142 0 L 64 0 L 64 -735 L 142 -735 L 142 -429 Q 150 -450 163 -469.5 Q 176 -489 194.5 -502.5 Q 213 -516 235.5 -522 Q 258 -528 281 -528 Q 306 -528 330.5 -521 Q 355 -514 375 -499 Q 395 -484 408.5 -463 Q 422 -442 430 -418.5 Q 438 -395 441 -370 Q 444 -345 444 -320 L 444 -200 Q 444 -175 441 -150 Q 438 -125 430 -101.5 Q 422 -78 408.5 -57 Q 395 -36 375 -21 Q 355 -6 330.5 1 Q 306 8 281 8 Z M 251 -62 Q 268 -62 284.5 -66 Q 301 -70 315 -79.5 Q 329 -89 339.5 -103 Q 350 -117 356 -133 Q 362 -149 364 -166 Q 366 -183 366 -200 L 366 -320 Q 366 -337 364 -354 Q 362 -371 356 -387 Q 350 -403 339.5 -417 Q 329 -431 315 -440.5 Q 301 -450 284.5 -454 Q 268 -458 251 -458 Q 234 -458 218 -454 Q 202 -450 188.5 -440 Q 175 -430 165.5 -415.5 Q 156 -401 151 -385.5 Q 146 -370 144 -353.5 Q 142 -337 142 -320 L 142 -200 Q 142 -183 144 -166.5 Q 146 -150 151 -134.5 Q 156 -119 165.5 -104.5 Q 175 -90 188.5 -80 Q 202 -70 218 -66 Q 234 -62 251 -62 Z " id="path29"/>
<path d="M 247 8 Q 221 8 194 2.5 Q 167 -3 144 -16.5 Q 121 -30 103.5 -50.5 Q 86 -71 75 -95.5 Q 64 -120 60 -146.5 Q 56 -173 56 -200 L 56 -320 Q 56 -347 60 -373.5 Q 64 -400 75 -424.5 Q 86 -449 103.5 -469.5 Q 121 -490 144 -503.5 Q 167 -517 194 -522.5 Q 221 -528 247 -528 Q 272 -528 297 -523.5 Q 322 -519 344.5 -508 Q 367 -497 385 -479.5 Q 403 -462 415 -440 Q 427 -418 432.5 -393.5 Q 438 -369 438 -344 L 438 -342 L 360 -342 L 360 -343 Q 360 -366 353 -388 Q 346 -410 330 -426.5 Q 314 -443 292 -450.5 Q 270 -458 247 -458 Q 230 -458 213.5 -454 Q 197 -450 183 -440 Q 169 -430 159.5 -416 Q 150 -402 144 -386.5 Q 138 -371 136 -354 Q 134 -337 134 -320 L 134 -200 Q 134 -183 136 -166 Q 138 -149 144 -133.5 Q 150 -118 159.5 -104 Q 169 -90 183 -80 Q 197 -70 213.5 -66 Q 230 -62 247 -62 Q 270 -62 292 -69.5 Q 314 -77 330 -93.5 Q 346 -110 353 -132 Q 360 -154 360 -177 L 360 -178 L 438 -178 L 438 -176 Q 438 -151 432.5 -126.5 Q 427 -102 415 -80 Q 403 -58 385 -40.5 Q 367 -23 344.5 -12 Q 322 -1 297 3.5 Q 272 8 247 8 Z " id="path30"/>
<path d="M 219 8 Q 194 8 169.5 1 Q 145 -6 125 -21 Q 105 -36 91.5 -57 Q 78 -78 70 -101.5 Q 62 -125 59 -150 Q 56 -175 56 -200 L 56 -320 Q 56 -345 59 -370 Q 62 -395 70 -418.5 Q 78 -442 91.5 -463 Q 105 -484 125 -499 Q 145 -514 169.5 -521 Q 194 -528 219 -528 Q 242 -528 264.5 -522 Q 287 -516 305.5 -502.5 Q 324 -489 337 -469.5 Q 350 -450 358 -429 L 358 -735 L 436 -735 L 436 0 L 358 0 L 358 -91 Q 350 -70 337 -50.5 Q 324 -31 305.5 -17.5 Q 287 -4 264.5 2 Q 242 8 219 8 Z M 249 -62 Q 266 -62 282.5 -66.5 Q 299 -71 312 -80.5 Q 325 -90 334.5 -104.5 Q 344 -119 349 -134.5 Q 354 -150 356 -166.5 Q 358 -183 358 -200 L 358 -320 Q 358 -337 356 -353.5 Q 354 -370 349 -385.5 Q 344 -401 334.5 -415.5 Q 325 -430 311.5 -440 Q 298 -450 282 -454 Q 266 -458 249 -458 Q 232 -458 215.5 -454 Q 199 -450 185 -440.5 Q 171 -431 160.5 -417 Q 150 -403 144 -387 Q 138 -371 136 -354 Q 134 -337 134 -320 L 134 -200 Q 134 -183 136 -166 Q 138 -149 144 -133 Q 150 -117 160.5 -103 Q 171 -89 185 -79.5 Q 199 -70 215.5 -66 Q 232 -62 249 -62 Z " id="path31"/>
<path d="M 252 8 Q 225 8 198 3 Q 171 -2 147.5 -15.5 Q 124 -29 105.5 -49.5 Q 87 -70 75.5 -94.5 Q 64 -119 60 -146 Q 56 -173 56 -200 L 56 -320 Q 56 -347 60 -374 Q 64 -401 75 -425.5 Q 86 -450 104.5 -470.5 Q 123 -491 146 -504 Q 169 -517 196 -522.5 Q 223 -528 250 -528 Q 277 -528 304 -522.5 Q 331 -517 354 -504 Q 377 -491 395.5 -470.5 Q 414 -450 425 -425.5 Q 436 -401 440 -374 Q 444 -347 444 -320 L 444 -225 L 134 -225 L 134 -200 Q 134 -183 136 -166 Q 138 -149 144.5 -133 Q 151 -117 161.5 -103 Q 172 -89 186.5 -79.5 Q 201 -70 218 -66 Q 235 -62 252 -62 Q 271 -62 290.5 -66 Q 310 -70 326 -80 Q 342 -90 352.5 -107 Q 363 -124 364 -144 L 442 -144 Q 441 -121 433.5 -99.5 Q 426 -78 412.5 -59.5 Q 399 -41 380.5 -27.5 Q 362 -14 341 -6 Q 320 2 297 5 Q 274 8 252 8 Z M 366 -295 L 366 -320 Q 366 -337 364 -354 Q 362 -371 356 -387 Q 350 -403 339.5 -417 Q 329 -431 315 -440.5 Q 301 -450 284 -454 Q 267 -458 250 -458 Q 233 -458 216 -454 Q 199 -450 185 -440.5 Q 171 -431 160.5 -417 Q 150 -403 144 -387 Q 138 -371 136 -354 Q 134 -337 134 -320 L 134 -295 Z " id="path32"/>
<path d="M 75 0 L 75 -70 L 191 -70 L 191 -403 L 64 -403 L 64 -473 L 191 -473 L 191 -580 Q 191 -601 194.5 -621.5 Q 198 -642 207.5 -661 Q 217 -680 231.5 -695 Q 246 -710 265 -719 Q 284 -728 304.5 -731.5 Q 325 -735 346 -735 L 436 -735 L 436 -665 L 346 -665 Q 329 -665 313.5 -659.5 Q 298 -654 287.5 -641.5 Q 277 -629 273 -613 Q 269 -597 269 -580 L 269 -473 L 436 -473 L 436 -403 L 269 -403 L 269 -70 L 425 -70 L 425 0 Z " id="path33"/>
<path d="M 250 223 Q 225 223 200 220 Q 175 217 151.5 208 Q 128 199 107.5 184 Q 87 169 73 148.5 Q 59 128 52.5 103.5 Q 46 79 46 54 Q 46 37 49 20 Q 52 3 59.5 -13 Q 67 -29 78 -42 Q 89 -55 103 -65 Q 90 -80 82.5 -98.5 Q 75 -117 75 -137 Q 75 -162 86 -185.5 Q 97 -209 116 -225 Q 101 -237 89 -252 Q 77 -267 69.5 -284.5 Q 62 -302 59 -321 Q 56 -340 56 -359 Q 56 -383 61 -406.5 Q 66 -430 77.5 -450.5 Q 89 -471 107.5 -486.5 Q 126 -502 148 -511.5 Q 170 -521 193.5 -524.5 Q 217 -528 240 -528 Q 258 -528 275 -526 Q 292 -524 309 -520 L 460 -520 L 460 -450 L 402 -452 Q 415 -431 420 -407 Q 425 -383 425 -359 Q 425 -336 420 -312.5 Q 415 -289 403 -268.5 Q 391 -248 373 -232 Q 355 -216 333 -206.5 Q 311 -197 287.5 -193.5 Q 264 -190 240 -190 Q 223 -190 206.5 -192 Q 190 -194 173 -198 Q 161 -191 153 -178.5 Q 145 -166 145 -151 Q 145 -139 150.5 -128.5 Q 156 -118 166 -111 Q 176 -104 187.5 -101 Q 199 -98 211 -97 L 274 -97 Q 297 -97 319.5 -94.5 Q 342 -92 362.5 -83.5 Q 383 -75 401.5 -62 Q 420 -49 432.5 -30 Q 445 -11 450 11 Q 455 33 455 56 Q 455 81 448.5 105.5 Q 442 130 427.5 150 Q 413 170 392.5 185 Q 372 200 348.5 208.5 Q 325 217 300 220 Q 275 223 250 223 Z M 240 -260 Q 261 -260 281.5 -265.5 Q 302 -271 317.5 -285 Q 333 -299 340 -319 Q 347 -339 347 -359 Q 347 -378 341.5 -396.5 Q 336 -415 323 -428.5 Q 310 -442 292 -449 Q 274 -456 255 -457 L 240 -458 Q 220 -458 199.5 -452.5 Q 179 -447 163.5 -433.5 Q 148 -420 141 -400 Q 134 -380 134 -359 Q 134 -339 141 -319 Q 148 -299 163.5 -285 Q 179 -271 199.5 -265.5 Q 220 -260 240 -260 Z M 250 153 Q 273 153 295.5 148.5 Q 318 144 337 132 Q 356 120 367 99.5 Q 378 79 378 56 Q 378 37 370 19.5 Q 362 2 346 -8.5 Q 330 -19 311.5 -23 Q 293 -27 274 -27 L 215 -27 Q 198 -26 181 -21.5 Q 164 -17 150.5 -6 Q 137 5 130.5 21 Q 124 37 124 54 Q 124 77 134.5 98 Q 145 119 163.5 131.5 Q 182 144 204.5 148.5 Q 227 153 250 153 Z " id="path34"/>
<path d="M 64 0 L 64 -735 L 142 -735 L 142 -429 Q 150 -450 163 -469.5 Q 176 -489 194.5 -502.5 Q 213 -516 235.5 -522 Q 258 -528 280 -528 Q 305 -528 329 -521 Q 353 -514 371.5 -498.5 Q 390 -483 403 -461.5 Q 416 -440 423.5 -416.5 Q 431 -393 433.5 -368.5 Q 436 -344 436 -320 L 436 0 L 358 0 L 358 -320 Q 358 -337 356 -353.5 Q 354 -370 349 -385.5 Q 344 -401 334.5 -415 Q 325 -429 312 -439 Q 299 -449 283 -453.5 Q 267 -458 250 -458 Q 233 -458 217 -453.5 Q 201 -449 188 -439 Q 175 -429 165.5 -415 Q 156 -401 151 -385.5 Q 146 -370 144 -353.5 Q 142 -337 142 -320 L 142 0 Z " id="path35"/>
<path d="M 75 0 L 75 -70 L 218 -70 L 218 -450 L 89 -450 L 89 -520 L 296 -520 L 296 -70 L 425 -70 L 425 0 Z M 255 -608 Q 242 -608 230 -611.5 Q 218 -615 209 -624 Q 200 -633 196.5 -645 Q 193 -657 193 -670 Q 193 -683 196.5 -695 Q 200 -707 209 -716 Q 218 -725 230 -729 Q 242 -733 255 -733 Q 268 -733 280 -729 Q 292 -725 301 -716 Q 310 -707 314 -695 Q 318 -683 318 -670 Q 318 -657 314 -645 Q 310 -633 301 -624 Q 292 -615 280 -611.5 Q 268 -608 255 -608 Z " id="path36"/>
<path d="M 80 215 L 80 145 L 197 145 Q 213 145 229 139.5 Q 245 134 255.5 121.5 Q 266 109 270 93 Q 274 77 274 60 L 274 -450 L 138 -450 L 138 -520 L 352 -520 L 352 60 Q 352 81 348.5 101.5 Q 345 122 335.5 141 Q 326 160 311.5 175 Q 297 190 278 199 Q 259 208 238.5 211.5 Q 218 215 197 215 Z M 305 -608 Q 292 -608 280 -611.5 Q 268 -615 259 -624 Q 250 -633 246.5 -645 Q 243 -657 243 -670 Q 243 -683 246.5 -695 Q 250 -707 259 -716 Q 268 -725 280 -729 Q 292 -733 305 -733 Q 318 -733 330 -729 Q 342 -725 351 -716 Q 360 -707 364 -695 Q 368 -683 368 -670 Q 368 -657 364 -645 Q 360 -633 351 -624 Q 342 -615 330 -611.5 Q 318 -608 305 -608 Z " id="path37"/>
<path d="M 353 0 L 207 -221 L 157 -158 L 157 0 L 80 0 L 80 -735 L 157 -735 L 157 -278 L 348 -520 L 443 -520 L 256 -283 L 443 0 Z " id="path38"/>
<path d="M 75 0 L 75 -70 L 218 -70 L 218 -665 L 89 -665 L 89 -735 L 296 -735 L 296 -70 L 425 -70 L 425 0 Z " id="path39"/>
<path d="M 48 0 L 48 -520 L 126 -520 L 126 -478 Q 131 -489 138 -498.5 Q 145 -508 154.5 -515 Q 164 -522 175.5 -525 Q 187 -528 199 -528 Q 214 -528 228 -523 Q 242 -518 252.5 -508 Q 263 -498 270 -484.5 Q 277 -471 281 -457 Q 285 -471 292 -484.5 Q 299 -498 309 -508 Q 319 -518 333 -523 Q 347 -528 362 -528 Q 377 -528 391.5 -522.5 Q 406 -517 416.5 -506.5 Q 427 -496 434 -482 Q 441 -468 445 -453.5 Q 449 -439 450.5 -424 Q 452 -409 452 -394 L 452 0 L 374 0 L 374 -394 Q 374 -405 372.5 -415.5 Q 371 -426 366 -436 Q 361 -446 351.5 -452 Q 342 -458 331 -458 Q 321 -458 311.5 -452 Q 302 -446 297 -436 Q 292 -426 290.5 -415.5 Q 289 -405 289 -394 L 289 0 L 211 0 L 211 -394 Q 211 -405 209.5 -415.5 Q 208 -426 203 -436 Q 198 -446 188.5 -452 Q 179 -458 169 -458 Q 158 -458 148.5 -452 Q 139 -446 134 -436 Q 129 -426 127.5 -415.5 Q 126 -405 126 -394 L 126 0 Z " id="path40"/>
<path d="M 64 0 L 64 -520 L 142 -520 L 142 -429 Q 150 -450 163 -469.5 Q 176 -489 194.5 -502.5 Q 213 -516 235.5 -522 Q 258 -528 280 -528 Q 305 -528 329 -521 Q 353 -514 371.5 -498.5 Q 390 -483 403 -461.5 Q 416 -440 423.5 -416.5 Q 431 -393 433.5 -368.5 Q 436 -344 436 -320 L 436 0 L 358 0 L 358 -320 Q 358 -337 356 -353.5 Q 354 -370 349 -385.5 Q 344 -401 334.5 -415 Q 325 -429 312 -439 Q 299 -449 283 -453.5 Q 267 -458 250 -458 Q 233 -458 217 -453.5 Q 201 -449 188 -439 Q 175 -429 165.5 -415 Q 156 -401 151 -385.5 Q 146 -370 144 -353.5 Q 142 -337 142 -320 L 142 0 Z " id="path41"/>
<path d="M 250 8 Q 223 8 196 2.5 Q 169 -3 146 -16 Q 123 -29 104.5 -49.5 Q 86 -70 75 -94.5 Q 64 -119 60 -146 Q 56 -173 56 -200 L 56 -320 Q 56 -347 60 -374 Q 64 -401 75 -425.5 Q 86 -450 104.5 -470.5 Q 123 -491 146 -504 Q 169 -517 196 -522.5 Q 223 -528 250 -528 Q 277 -528 304 -522.5 Q 331 -517 354 -504 Q 377 -491 395.5 -470.5 Q 414 -450 425 -425.5 Q 436 -401 440 -374 Q 444 -347 444 -320 L 444 -200 Q 444 -173 440 -146 Q 436 -119 425 -94.5 Q 414 -70 395.5 -49.5 Q 377 -29 354 -16 Q 331 -3 304 2.5 Q 277 8 250 8 Z M 250 -62 Q 267 -62 284 -66 Q 301 -70 315 -79.5 Q 329 -89 339.5 -103 Q 350 -117 356 -133 Q 362 -149 364 -166 Q 366 -183 366 -200 L 366 -320 Q 366 -337 364 -354 Q 362 -371 356 -387 Q 350 -403 339.5 -417 Q 329 -431 315 -440.5 Q 301 -450 284 -454 Q 267 -458 250 -458 Q 233 -458 216 -454 Q 199 -450 185 -440.5 Q 171 -431 160.5 -417 Q 150 -403 144 -387 Q 138 -371 136 -354 Q 134 -337 134 -320 L 134 -200 Q 134 -183 136 -166 Q 138 -149 144 -133 Q 150 -117 160.5 -103 Q 171 -89 185 -79.5 Q 199 -70 216 -66 Q 233 -62 250 -62 Z " id="path42"/>
<path d="M 64 215 L 64 -520 L 142 -520 L 142 -429 Q 150 -450 163 -469.5 Q 176 -489 194.5 -502.5 Q 213 -516 235.5 -522 Q 258 -528 281 -528 Q 306 -528 330.5 -521 Q 355 -514 375 -499 Q 395 -484 408.5 -463 Q 422 -442 430 -418.5 Q 438 -395 441 -370 Q 444 -345 444 -320 L 444 -200 Q 444 -175 441 -150 Q 438 -125 430 -101.5 Q 422 -78 408.5 -57 Q 395 -36 375 -21 Q 355 -6 330.5 1 Q 306 8 281 8 Q 258 8 235.5 2 Q 213 -4 194.5 -17.5 Q 176 -31 163 -50.5 Q 150 -70 142 -91 L 142 215 Z M 251 -62 Q 268 -62 284.5 -66 Q 301 -70 315 -79.5 Q 329 -89 339.5 -103 Q 350 -117 356 -133 Q 362 -149 364 -166 Q 366 -183 366 -200 L 366 -320 Q 366 -337 364 -354 Q 362 -371 356 -387 Q 350 -403 339.5 -417 Q 329 -431 315 -440.5 Q 301 -450 284.5 -454 Q 268 -458 251 -458 Q 234 -458 218 -454 Q 202 -450 188.5 -440 Q 175 -430 165.5 -415.5 Q 156 -401 151 -385.5 Q 146 -370 144 -353.5 Q 142 -337 142 -320 L 142 -200 Q 142 -183 144 -166.5 Q 146 -150 151 -134.5 Q 156 -119 165.5 -104.5 Q 175 -90 188.5 -80 Q 202 -70 218 -66 Q 234 -62 251 -62 Z " id="path43"/>
<path d="M 358 215 L 358 -91 Q 350 -70 337 -50.5 Q 324 -31 305.5 -17.5 Q 287 -4 264.5 2 Q 242 8 219 8 Q 194 8 169.5 1 Q 145 -6 125 -21 Q 105 -36 91.5 -57 Q 78 -78 70 -101.5 Q 62 -125 59 -150 Q 56 -175 56 -200 L 56 -320 Q 56 -345 59 -370 Q 62 -395 70 -418.5 Q 78 -442 91.5 -463 Q 105 -484 125 -499 Q 145 -514 169.5 -521 Q 194 -528 219 -528 Q 242 -528 264.5 -522 Q 287 -516 305.5 -502.5 Q 324 -489 337 -469.5 Q 350 -450 358 -429 L 358 -520 L 436 -520 L 436 215 Z M 249 -62 Q 266 -62 282 -66 Q 298 -70 311.5 -80 Q 325 -90 334.5 -104.5 Q 344 -119 349 -134.5 Q 354 -150 356 -166.5 Q 358 -183 358 -200 L 358 -320 Q 358 -337 356 -353.5 Q 354 -370 349 -385.5 Q 344 -401 334.5 -415.5 Q 325 -430 311.5 -440 Q 298 -450 282 -454 Q 266 -458 249 -458 Q 232 -458 215.5 -454 Q 199 -450 185 -440.5 Q 171 -431 160.5 -417 Q 150 -403 144 -387 Q 138 -371 136 -354 Q 134 -337 134 -320 L 134 -200 Q 134 -183 136 -166 Q 138 -149 144 -133 Q 150 -117 160.5 -103 Q 171 -89 185 -79.5 Q 199 -70 215.5 -66 Q 232 -62 249 -62 Z " id="path44"/>
<path d="M 60 0 L 60 -70 L 124 -70 L 124 -450 L 60 -450 L 60 -520 L 202 -520 L 202 -384 Q 211 -407 224.5 -428 Q 238 -449 256 -466 Q 274 -483 295.5 -495 Q 317 -507 340.5 -515 Q 364 -523 389 -525.5 Q 414 -528 439 -528 L 439 -450 Q 418 -450 397 -448.5 Q 376 -447 356 -443 Q 336 -439 316 -432 Q 296 -425 278.5 -414 Q 261 -403 246 -388.5 Q 231 -374 220.5 -355.5 Q 210 -337 206 -316.5 Q 202 -296 202 -276 L 202 -70 L 279 -70 L 279 0 Z " id="path45"/>
<path d="M 249 8 Q 227 8 205 5.5 Q 183 3 162 -4.5 Q 141 -12 122 -24 Q 103 -36 89.5 -53.5 Q 76 -71 69 -92.5 Q 62 -114 62 -136 L 62 -139 L 140 -139 L 140 -138 Q 140 -119 150.5 -103 Q 161 -87 177 -77.5 Q 193 -68 211.5 -65 Q 230 -62 249 -62 Q 267 -62 285.5 -65 Q 304 -68 320 -76.5 Q 336 -85 347 -100.5 Q 358 -116 358 -134 Q 358 -152 349 -167.5 Q 340 -183 326 -193 Q 312 -203 295.5 -208.5 Q 279 -214 262 -218 Q 245 -222 228 -226 Q 211 -230 195 -236 Q 179 -242 163.5 -249.5 Q 148 -257 134 -267.5 Q 120 -278 108.5 -291 Q 97 -304 89 -319.5 Q 81 -335 76.5 -352 Q 72 -369 72 -386 Q 72 -408 78.5 -428.5 Q 85 -449 98 -466.5 Q 111 -484 128.5 -496 Q 146 -508 166.5 -515.5 Q 187 -523 208.5 -525.5 Q 230 -528 251 -528 Q 273 -528 294 -525.5 Q 315 -523 335.5 -515.5 Q 356 -508 373.5 -495.5 Q 391 -483 404 -466 Q 417 -449 423.5 -428 Q 430 -407 430 -386 L 430 -383 L 352 -383 L 352 -384 Q 352 -402 343 -417.5 Q 334 -433 319 -442.5 Q 304 -452 286.5 -455 Q 269 -458 251 -458 Q 234 -458 216.5 -455 Q 199 -452 184 -443 Q 169 -434 159 -418.5 Q 149 -403 149 -386 Q 149 -369 158 -353.5 Q 167 -338 181 -327.5 Q 195 -317 211.5 -311.5 Q 228 -306 245 -302 Q 262 -298 279 -294 Q 296 -290 312.5 -284.5 Q 329 -279 344.5 -271 Q 360 -263 373.5 -252.5 Q 387 -242 399 -229 Q 411 -216 419 -200.5 Q 427 -185 431.5 -168.5 Q 436 -152 436 -134 Q 436 -112 429 -91 Q 422 -70 408 -52.5 Q 394 -35 375.5 -23 Q 357 -11 336 -4 Q 315 3 293 5.5 Q 271 8 249 8 Z " id="path46"/>
<path d="M 436 0 L 346 0 Q 325 0 304.5 -3.5 Q 284 -7 265 -16 Q 246 -25 231.5 -40 Q 217 -55 207.5 -74 Q 198 -93 194.5 -113.5 Q 191 -134 191 -155 L 191 -450 L 64 -450 L 64 -520 L 191 -520 L 191 -735 L 269 -735 L 269 -520 L 436 -520 L 436 -450 L 269 -450 L 269 -155 Q 269 -138 273 -122 Q 277 -106 287.5 -93.5 Q 298 -81 313.5 -75.5 Q 329 -70 346 -70 L 436 -70 Z " id="path47"/>
<path d="M 220 8 Q 195 8 171 1 Q 147 -6 128.5 -21.5 Q 110 -37 97 -58.5 Q 84 -80 76.5 -103.5 Q 69 -127 66.5 -151.5 Q 64 -176 64 -200 L 64 -520 L 142 -520 L 142 -200 Q 142 -183 144 -166.5 Q 146 -150 151 -134.5 Q 156 -119 165.5 -105 Q 175 -91 188 -81 Q 201 -71 217 -66.5 Q 233 -62 250 -62 Q 267 -62 283 -66.5 Q 299 -71 312 -81 Q 325 -91 334.5 -105 Q 344 -119 349 -134.5 Q 354 -150 356 -166.5 Q 358 -183 358 -200 L 358 -520 L 436 -520 L 436 0 L 358 0 L 358 -91 Q 350 -70 337 -50.5 Q 324 -31 305.5 -17.5 Q 287 -4 264.5 2 Q 242 8 220 8 Z " id="path48"/>
<path d="M 205 0 L 44 -520 L 126 -520 L 226 -173 Q 232 -152 238 -131 Q 244 -110 250 -89 Q 256 -110 262 -131 Q 268 -152 274 -173 L 374 -520 L 456 -520 L 295 0 Z " id="path49"/>
<path d="M 117 0 L 32 -520 L 111 -520 L 156 -92 L 211 -520 L 289 -520 L 344 -92 L 389 -520 L 468 -520 L 383 0 L 306 0 L 250 -387 L 194 0 Z " id="path50"/>
<path d="M 53 0 L 207 -260 L 53 -520 L 144 -520 L 250 -334 L 356 -520 L 447 -520 L 293 -260 L 447 0 L 356 0 L 250 -186 L 144 0 Z " id="path51"/>
<path d="M 76 215 L 76 145 L 129 145 Q 139 145 150 142.5 Q 161 140 168.5 132 Q 176 124 180 114 Q 184 104 187 94 L 210 15 L 51 -520 L 132 -520 L 251 -105 L 368 -520 L 449 -520 L 262 113 Q 255 136 245 157 Q 235 178 216.5 192.5 Q 198 207 175 211 Q 152 215 129 215 Z " id="path52"/>
<path d="M 64 0 L 64 -70 L 351 -450 L 64 -450 L 64 -520 L 436 -520 L 436 -450 L 149 -70 L 436 -70 L 436 0 Z " id="path53"/>
<path d="M 211 -260 L 211 -735 L 289 -735 L 289 -260 Z M 250 8 Q 236 8 222 4 Q 208 0 198 -10.5 Q 188 -21 183.5 -34.5 Q 179 -48 179 -63 Q 179 -77 183.5 -90.5 Q 188 -104 198 -114.5 Q 208 -125 222 -129 Q 236 -133 250 -133 Q 264 -133 278 -129 Q 292 -125 302 -114.5 Q 312 -104 316 -90.5 Q 320 -77 320 -63 Q 320 -48 316 -34.5 Q 312 -21 302 -10.5 Q 292 0 278 4 Q 264 8 250 8 Z " id="path54"/>
<path d="M 75 0 L 75 -70 L 219 -70 L 219 -646 L 80 -546 L 35 -603 L 219 -735 L 296 -735 L 296 -70 L 425 -70 L 425 0 Z " id="path55"/>
<path d="M 146 0 L 355 -665 L 141 -665 L 141 -590 L 64 -590 L 64 -735 L 436 -735 L 436 -665 L 226 0 Z " id="path56"/>
<path d="M 211 143 L 211 -823 L 289 -823 L 289 143 Z " id="path57"/>
<path d="M 211 -386 L 211 -823 L 289 -823 L 289 -386 Z M 211 143 L 211 -294 L 289 -294 L 289 143 Z " id="path58"/>
<path d="M 211 107 L 211 6 Q 188 3 165.5 -6 Q 143 -15 124.5 -30 Q 106 -45 92.5 -64.5 Q 79 -84 70.5 -106.5 Q 62 -129 59 -152.5 Q 56 -176 56 -200 L 56 -320 Q 56 -344 59 -367.5 Q 62 -391 70.5 -413.5 Q 79 -436 92.5 -455.5 Q 106 -475 124.5 -490 Q 143 -505 165.5 -514 Q 188 -523 211 -526 L 211 -628 L 289 -628 L 289 -525 Q 321 -521 350 -505.5 Q 379 -490 399 -464.5 Q 419 -439 428.5 -407.5 Q 438 -376 438 -344 L 438 -342 L 360 -342 L 360 -343 Q 360 -362 355.5 -380 Q 351 -398 340.5 -413.5 Q 330 -429 314 -439.5 Q 298 -450 280 -455 L 280 -65 Q 298 -70 314 -80.5 Q 330 -91 340.5 -106.5 Q 351 -122 355.5 -140 Q 360 -158 360 -177 L 360 -178 L 438 -178 L 438 -176 Q 438 -144 428.5 -112.5 Q 419 -81 399 -55.5 Q 379 -30 350 -14.5 Q 321 1 289 5 L 289 107 Z M 220 -64 L 220 -456 Q 198 -451 180.5 -437.5 Q 163 -424 152 -404.5 Q 141 -385 137.5 -363.5 Q 134 -342 134 -320 L 134 -200 Q 134 -178 137.5 -156.5 Q 141 -135 152 -115.5 Q 163 -96 180.5 -82.5 Q 198 -69 220 -64 Z " id="path59"/>
<path d="M 250 8 Q 223 8 196 2.5 Q 169 -3 146 -16 Q 123 -29 104.5 -49.5 Q 86 -70 75 -94.5 Q 64 -119 60 -146 Q 56 -173 56 -200 L 56 -535 Q 56 -562 60 -589 Q 64 -616 75 -640.5 Q 86 -665 104.5 -685.5 Q 123 -706 146 -719 Q 169 -732 196 -737.5 Q 223 -743 250 -743 Q 277 -743 304 -737.5 Q 331 -732 354 -719 Q 377 -706 395.5 -685.5 Q 414 -665 425 -640.5 Q 436 -616 440 -589 Q 444 -562 444 -535 L 444 -200 Q 444 -173 440 -146 Q 436 -119 425 -94.5 Q 414 -70 395.5 -49.5 Q 377 -29 354 -16 Q 331 -3 304 2.5 Q 277 8 250 8 Z M 250 -62 Q 267 -62 284 -66 Q 301 -70 315 -79.5 Q 329 -89 339.5 -103 Q 350 -117 356 -133 Q 362 -149 364 -166 Q 366 -183 366 -200 L 366 -535 Q 366 -552 364 -569 Q 362 -586 356 -602 Q 350 -618 339.5 -632 Q 329 -646 315 -655.5 Q 301 -665 284 -669 Q 267 -673 250 -673 Q 233 -673 216 -669 Q 199 -665 185 -655.5 Q 171 -646 160.5 -632 Q 150 -618 144 -602 Q 138 -586 136 -569 Q 134 -552 134 -535 L 134 -200 Q 134 -183 136 -166 Q 138 -149 144 -133 Q 150 -117 160.5 -103 Q 171 -89 185 -79.5 Q 199 -70 216 -66 Q 233 -62 250 -62 Z M 250 -305 Q 238 -305 227 -309.5 Q 216 -314 208.5 -323 Q 201 -332 198.5 -343.5 Q 196 -355 196 -367 L 196 -368 Q 196 -380 198.5 -391.5 Q 201 -403 208.5 -412 Q 216 -421 227 -425.5 Q 238 -430 250 -430 Q 262 -430 273 -425.5 Q 284 -421 291.5 -412 Q 299 -403 301.5 -391.5 Q 304 -380 304 -368 L 304 -367 Q 304 -355 301.5 -343.5 Q 299 -332 291.5 -323 Q 284 -314 273 -309.5 Q 262 -305 250 -305 Z " id="path60"/>
<path d="M 250 8 Q 224 8 198 2.5 Q 172 -3 149 -16 Q 126 -29 107.5 -48 Q 89 -67 77.5 -90.5 Q 66 -114 61 -140 Q 56 -166 56 -193 Q 56 -221 62 -249.5 Q 68 -278 82 -303 Q 96 -328 118 -348 Q 140 -368 166 -379 Q 143 -391 124.5 -410 Q 106 -429 94 -452 Q 82 -475 77 -501 Q 72 -527 72 -553 Q 72 -577 76.5 -601.5 Q 81 -626 91.5 -648 Q 102 -670 118.5 -688.5 Q 135 -707 156 -719.5 Q 177 -732 201.5 -737.5 Q 226 -743 250 -743 Q 274 -743 298.5 -737.5 Q 323 -732 344 -719.5 Q 365 -707 381.5 -688.5 Q 398 -670 408.5 -648 Q 419 -626 423.5 -601.5 Q 428 -577 428 -553 Q 428 -527 423 -501 Q 418 -475 406 -452 Q 394 -429 375.5 -410 Q 357 -391 334 -379 Q 360 -368 382 -348 Q 404 -328 418 -303 Q 432 -278 438 -249.5 Q 444 -221 444 -193 Q 444 -166 439 -140 Q 434 -114 422.5 -90.5 Q 411 -67 392.5 -48 Q 374 -29 351 -16 Q 328 -3 302 2.5 Q 276 8 250 8 Z M 250 -413 Q 274 -413 294.5 -426 Q 315 -439 327.5 -459.5 Q 340 -480 345 -503.5 Q 350 -527 350 -551 Q 350 -573 345 -595 Q 340 -617 327 -635 Q 314 -653 293 -663 Q 272 -673 250 -673 Q 228 -673 207 -663 Q 186 -653 173 -635 Q 160 -617 155 -595 Q 150 -573 150 -551 Q 150 -527 155 -503.5 Q 160 -480 172.5 -459.5 Q 185 -439 205.5 -426 Q 226 -413 250 -413 Z M 250 -62 Q 275 -62 298.5 -72 Q 322 -82 337.5 -101.5 Q 353 -121 359.5 -145.5 Q 366 -170 366 -195 Q 366 -221 360 -247 Q 354 -273 339 -295 Q 324 -317 300 -330 Q 276 -343 250 -343 Q 224 -343 200 -330 Q 176 -317 161 -295 Q 146 -273 140 -247 Q 134 -221 134 -195 Q 134 -170 140.5 -145.5 Q 147 -121 162.5 -101.5 Q 178 -82 201.5 -72 Q 225 -62 250 -62 Z " id="path61"/>
<path d="M 211 107 L 211 -31 Q 179 -34 149.5 -47 Q 120 -60 98 -83.5 Q 76 -107 65 -137.5 Q 54 -168 54 -200 L 54 -207 L 132 -207 L 132 -203 Q 132 -185 138 -167 Q 144 -149 156 -135 Q 168 -121 184.5 -112.5 Q 201 -104 220 -101 L 220 -339 Q 189 -353 161 -371 Q 133 -389 111 -414 Q 89 -439 76.5 -470.5 Q 64 -502 64 -536 Q 64 -566 74 -596 Q 84 -626 104 -649 Q 124 -672 152.5 -686 Q 181 -700 211 -704 L 211 -843 L 289 -843 L 289 -704 Q 320 -700 348.5 -687 Q 377 -674 397.5 -650.5 Q 418 -627 428 -597 Q 438 -567 438 -536 L 438 -529 L 360 -529 L 360 -533 Q 360 -551 355 -568 Q 350 -585 339.5 -599 Q 329 -613 313.5 -622 Q 298 -631 280 -634 L 280 -400 Q 312 -386 341.5 -368 Q 371 -350 394 -324.5 Q 417 -299 430.5 -266.5 Q 444 -234 444 -200 Q 444 -168 433 -137.5 Q 422 -107 400.5 -84 Q 379 -61 349.5 -48 Q 320 -35 289 -31 L 289 107 Z M 220 -426 L 220 -633 Q 203 -630 188 -621.5 Q 173 -613 162.5 -599.5 Q 152 -586 146.5 -569.5 Q 141 -553 141 -536 Q 141 -518 147 -501 Q 153 -484 164 -470 Q 175 -456 189.5 -445 Q 204 -434 220 -426 Z M 280 -101 Q 298 -104 314.5 -112 Q 331 -120 342.5 -133.5 Q 354 -147 360.5 -164.5 Q 367 -182 367 -200 Q 367 -219 360 -236.5 Q 353 -254 341 -268.5 Q 329 -283 313 -294 Q 297 -305 280 -313 Z " id="path62"/>
<path d="M 252 8 Q 227 8 203 3.5 Q 179 -1 157.5 -12.5 Q 136 -24 118.5 -42 Q 101 -60 89.5 -81.5 Q 78 -103 71.5 -126.5 Q 65 -150 63 -174 L 141 -174 Q 143 -153 150.5 -132 Q 158 -111 173 -94.5 Q 188 -78 209 -70 Q 230 -62 252 -62 Q 271 -62 289.5 -69 Q 308 -76 322 -90 Q 336 -104 344.5 -121.5 Q 353 -139 358 -158 Q 363 -177 364.5 -196.5 Q 366 -216 366 -235 Q 366 -255 364.5 -274 Q 363 -293 358 -312 Q 353 -331 345 -348.5 Q 337 -366 323.5 -380 Q 310 -394 292 -401 Q 274 -408 254 -408 Q 234 -408 214 -401.5 Q 194 -395 179.5 -380.5 Q 165 -366 157.5 -346 Q 150 -326 149 -305 L 71 -305 L 107 -735 L 417 -735 L 417 -665 L 179 -665 L 162 -459 Q 183 -470 206.5 -474 Q 230 -478 254 -478 Q 283 -478 311.5 -470.5 Q 340 -463 363.5 -445 Q 387 -427 403 -402.5 Q 419 -378 428 -350.5 Q 437 -323 440.5 -293.5 Q 444 -264 444 -235 Q 444 -206 440.5 -176.5 Q 437 -147 427.5 -119.5 Q 418 -92 401.5 -67 Q 385 -42 361.5 -24.5 Q 338 -7 309.5 0.5 Q 281 8 252 8 Z " id="path63"/>
<path d="M 64 0 L 64 -70 L 284 -367 Q 298 -386 312.5 -406 Q 327 -426 338.5 -448 Q 350 -470 356 -493.5 Q 362 -517 362 -542 Q 362 -566 356.5 -590.5 Q 351 -615 336.5 -634.5 Q 322 -654 298.5 -663.5 Q 275 -673 251 -673 Q 229 -673 207 -666 Q 185 -659 169.5 -643 Q 154 -627 147 -605.5 Q 140 -584 140 -561 L 140 -560 L 62 -560 L 62 -563 Q 62 -587 67.5 -611.5 Q 73 -636 85 -657.5 Q 97 -679 115 -696 Q 133 -713 155 -724 Q 177 -735 201.5 -739 Q 226 -743 251 -743 Q 277 -743 303 -738 Q 329 -733 352 -720 Q 375 -707 392.5 -687.5 Q 410 -668 421 -644 Q 432 -620 436 -594 Q 440 -568 440 -542 Q 440 -512 433 -482.5 Q 426 -453 413 -426.5 Q 400 -400 382.5 -375.5 Q 365 -351 347 -327 L 346 -325 L 157 -70 L 436 -70 L 436 0 Z " id="path64"/>
<path d="M 139 8 L 122 -60 Q 168 -71 208.5 -97 Q 249 -123 278 -159.5 Q 307 -196 325 -240.5 Q 343 -285 351 -331 Q 341 -320 329 -311 Q 317 -302 303.5 -297 Q 290 -292 275 -290 Q 260 -288 246 -288 Q 218 -288 190.5 -295 Q 163 -302 140 -318 Q 117 -334 100 -356.5 Q 83 -379 73 -405.5 Q 63 -432 59.5 -459.5 Q 56 -487 56 -515 Q 56 -544 60 -572 Q 64 -600 74 -626.5 Q 84 -653 101.5 -676 Q 119 -699 142.5 -714.5 Q 166 -730 194 -736.5 Q 222 -743 250 -743 Q 280 -743 309 -735 Q 338 -727 361.5 -709 Q 385 -691 401.5 -665.5 Q 418 -640 427.5 -612 Q 437 -584 440.5 -554 Q 444 -524 444 -494 Q 444 -441 438 -388 Q 432 -335 419.5 -283 Q 407 -231 383 -182.5 Q 359 -134 322.5 -95 Q 286 -56 238.5 -29.5 Q 191 -3 139 8 Z M 249 -358 Q 268 -358 286 -363.5 Q 304 -369 318 -380.5 Q 332 -392 341.5 -408.5 Q 351 -425 356.5 -442.5 Q 362 -460 364 -478.5 Q 366 -497 366 -515 L 366 -522 Q 365 -540 362 -557.5 Q 359 -575 353 -591.5 Q 347 -608 338 -623.5 Q 329 -639 315.5 -650.5 Q 302 -662 285 -667.5 Q 268 -673 250 -673 Q 232 -673 214 -667.5 Q 196 -662 181.5 -650 Q 167 -638 157.5 -622 Q 148 -606 143 -588.5 Q 138 -571 136 -552.5 Q 134 -534 134 -515 Q 134 -497 136 -478.5 Q 138 -460 143 -442.5 Q 148 -425 157.5 -409 Q 167 -393 181 -381 Q 195 -369 213 -363.5 Q 231 -358 249 -358 Z " id="path65"/>
<path d="M 250 8 Q 220 8 191 0 Q 162 -8 138.5 -26 Q 115 -44 98.5 -69.5 Q 82 -95 72.5 -123 Q 63 -151 59.5 -181 Q 56 -211 56 -241 Q 56 -294 62 -347 Q 68 -400 80.5 -452 Q 93 -504 117 -552.5 Q 141 -601 177.5 -640 Q 214 -679 261.5 -705.5 Q 309 -732 361 -743 L 378 -675 Q 332 -664 291.5 -638 Q 251 -612 222 -575.5 Q 193 -539 175 -494.5 Q 157 -450 149 -404 Q 159 -415 171 -424 Q 183 -433 196.5 -438 Q 210 -443 225 -445 Q 240 -447 254 -447 Q 282 -447 309.5 -440 Q 337 -433 360 -417 Q 383 -401 400 -378.5 Q 417 -356 427 -329.5 Q 437 -303 440.5 -275.5 Q 444 -248 444 -220 Q 444 -191 440 -163 Q 436 -135 426 -108.5 Q 416 -82 398.5 -59 Q 381 -36 357.5 -20.5 Q 334 -5 306 1.5 Q 278 8 250 8 Z M 250 -62 Q 268 -62 286 -67.5 Q 304 -73 318.5 -85 Q 333 -97 342.5 -113 Q 352 -129 357 -146.5 Q 362 -164 364 -182.5 Q 366 -201 366 -220 Q 366 -238 364 -256.5 Q 362 -275 357 -292.5 Q 352 -310 342.5 -326 Q 333 -342 319 -354 Q 305 -366 287 -371.5 Q 269 -377 251 -377 Q 232 -377 214 -371.5 Q 196 -366 182 -354.5 Q 168 -343 158.5 -326.5 Q 149 -310 143.5 -292.5 Q 138 -275 136 -256.5 Q 134 -238 134 -220 L 134 -213 Q 135 -195 138 -177.5 Q 141 -160 147 -143.5 Q 153 -127 162 -111.5 Q 171 -96 184.5 -84.5 Q 198 -73 215 -67.5 Q 232 -62 250 -62 Z " id="path66"/>
<path d="M 64 215 L 64 -520 L 142 -520 L 142 -200 Q 142 -183 144 -166.5 Q 146 -150 151 -134.5 Q 156 -119 165.5 -105 Q 175 -91 188 -81 Q 201 -71 217 -66.5 Q 233 -62 250 -62 Q 267 -62 283 -66.5 Q 299 -71 312 -81 Q 325 -91 334.5 -105 Q 344 -119 349 -134.5 Q 354 -150 356 -166.5 Q 358 -183 358 -200 L 358 -520 L 436 -520 L 436 0 L 358 0 L 358 -91 Q 350 -70 337 -50.5 Q 324 -31 305.5 -17.5 Q 287 -4 264.5 2 Q 242 8 220 8 Q 198 8 177 3 Q 156 -2 138 -14 Q 140 16 141 46.5 Q 142 77 142 107 L 142 215 Z " id="path67"/>
<path d="M 123 143 L 123 -823 L 399 -823 L 399 -753 L 201 -753 L 201 73 L 399 73 L 399 143 Z " id="path68"/>
<path d="M 101 143 L 101 73 L 299 73 L 299 -753 L 101 -753 L 101 -823 L 377 -823 L 377 143 Z " id="path69"/>
<path d="M 436 -394 L 64 -394 L 64 -464 L 436 -464 Z M 436 -216 L 64 -216 L 64 -286 L 436 -286 Z " id="path70"/>
<path d="M 320 153 Q 297 153 274.5 150.5 Q 252 148 231 139.5 Q 210 131 192.5 116.5 Q 175 102 164.5 82 Q 154 62 150.5 39.5 Q 147 17 147 -5 Q 147 -23 150 -40.5 Q 153 -58 159.5 -74.5 Q 166 -91 175 -106.5 Q 184 -122 193 -137 Q 202 -152 208 -169 Q 214 -186 214 -204 Q 214 -226 206 -247 Q 198 -268 180.5 -281.5 Q 163 -295 141.5 -300 Q 120 -305 98 -305 L 83 -305 L 83 -375 L 98 -375 Q 120 -375 141.5 -380 Q 163 -385 180.5 -398.5 Q 198 -412 206 -433 Q 214 -454 214 -476 Q 214 -494 208 -511 Q 202 -528 193 -543 Q 184 -558 175 -573.5 Q 166 -589 159.5 -605.5 Q 153 -622 150 -639.5 Q 147 -657 147 -675 Q 147 -697 150.5 -719.5 Q 154 -742 164.5 -762 Q 175 -782 192.5 -796.5 Q 210 -811 231 -819.5 Q 252 -828 274.5 -830.5 Q 297 -833 320 -833 L 399 -833 L 399 -763 L 320 -763 Q 301 -763 282.5 -759 Q 264 -755 249.5 -742.5 Q 235 -730 229.5 -712 Q 224 -694 224 -675 Q 224 -657 230 -640 Q 236 -623 245 -608 Q 254 -593 263.5 -577.5 Q 273 -562 279 -545.5 Q 285 -529 288.5 -511.5 Q 292 -494 292 -476 Q 292 -454 286.5 -432.5 Q 281 -411 269 -393 Q 257 -375 239.5 -361.5 Q 222 -348 202 -340 Q 222 -332 239.5 -318.5 Q 257 -305 269 -287 Q 281 -269 286.5 -247.5 Q 292 -226 292 -204 Q 292 -186 288.5 -168.5 Q 285 -151 279 -134.5 Q 273 -118 263.5 -102.5 Q 254 -87 245 -72 Q 236 -57 230 -40 Q 224 -23 224 -5 Q 224 14 229.5 32 Q 235 50 249.5 62.5 Q 264 75 282.5 79 Q 301 83 320 83 L 399 83 L 399 153 Z " id="path71"/>
<path d="M 436 -305 L 64 -305 L 64 -375 L 436 -375 Z " id="path72"/>
<path d="M 139 143 L 59 143 L 361 -823 L 441 -823 Z " id="path73"/>
<path d="M 253 8 Q 227 8 201.5 4 Q 176 0 153 -11 Q 130 -22 111 -39.5 Q 92 -57 79 -79 Q 66 -101 60 -126.5 Q 54 -152 54 -177 L 54 -178 L 132 -178 Q 132 -154 140.5 -131 Q 149 -108 166 -92 Q 183 -76 206 -69 Q 229 -62 253 -62 Q 278 -62 302.5 -71 Q 327 -80 343.5 -99.5 Q 360 -119 367 -144 Q 374 -169 374 -195 Q 374 -216 369.5 -236.5 Q 365 -257 355 -275.5 Q 345 -294 329.5 -308.5 Q 314 -323 295 -331.5 Q 276 -340 255 -342.5 Q 234 -345 213 -345 L 213 -415 Q 232 -415 251 -417 Q 270 -419 287.5 -426.5 Q 305 -434 319 -447.5 Q 333 -461 341.5 -478 Q 350 -495 354 -514 Q 358 -533 358 -552 Q 358 -575 352.5 -597 Q 347 -619 333 -637 Q 319 -655 297.5 -664 Q 276 -673 253 -673 Q 231 -673 210.5 -665.5 Q 190 -658 175.5 -642 Q 161 -626 154.5 -605 Q 148 -584 148 -562 L 148 -560 L 70 -560 L 70 -563 Q 70 -588 75.5 -611.5 Q 81 -635 92 -656.5 Q 103 -678 120.5 -695 Q 138 -712 159.5 -723 Q 181 -734 205 -738.5 Q 229 -743 253 -743 Q 278 -743 302.5 -738 Q 327 -733 348.5 -721.5 Q 370 -710 387 -691.5 Q 404 -673 415 -650.5 Q 426 -628 431 -603.5 Q 436 -579 436 -554 Q 436 -527 429.5 -501 Q 423 -475 409.5 -451.5 Q 396 -428 376 -410 Q 356 -392 332 -381 Q 359 -370 382.5 -350.5 Q 406 -331 421.5 -306 Q 437 -281 444.5 -251.5 Q 452 -222 452 -192 Q 452 -166 446.5 -139.5 Q 441 -113 429 -89.5 Q 417 -66 398 -46.5 Q 379 -27 355.5 -14.5 Q 332 -2 305.5 3 Q 279 8 253 8 Z " id="path74"/>
<path d="M 294 0 L 294 -194 L 56 -194 L 56 -264 L 275 -735 L 372 -735 L 372 -264 L 436 -264 L 436 -194 L 372 -194 L 372 0 Z M 294 -264 L 294 -596 L 140 -264 Z " id="path75"/>
<path d="M 215 215 L 156 170 Q 188 134 214.5 94 Q 241 54 254 8 L 249 8 Q 234 8 218.5 3 Q 203 -2 192 -13 Q 181 -24 176.5 -39 Q 172 -54 172 -70 Q 172 -86 176.5 -101 Q 181 -116 192.5 -127.5 Q 204 -139 219 -143.5 Q 234 -148 250 -148 Q 266 -148 282 -143 Q 298 -138 309 -126.5 Q 320 -115 324 -99 Q 328 -83 328 -66 Q 328 -28 319 10 Q 310 48 295 83.5 Q 280 119 259.5 152 Q 239 185 215 215 Z " id="path76"/>
<path d="M 289 -147 L 211 -147 L 211 -305 L 64 -305 L 64 -375 L 211 -375 L 211 -533 L 289 -533 L 289 -375 L 436 -375 L 436 -305 L 289 -305 Z " id="path77"/>
<path d="M 141 -360 Q 119 -360 96.5 -365.5 Q 74 -371 57 -385.5 Q 40 -400 32 -421.5 Q 24 -443 24 -465 L 24 -638 Q 24 -660 32 -681.5 Q 40 -703 57 -717.5 Q 74 -732 96.5 -737.5 Q 119 -743 141 -743 Q 163 -743 185.5 -737.5 Q 208 -732 225 -717.5 Q 242 -703 250 -681.5 Q 258 -660 258 -638 L 258 -465 Q 258 -443 250 -421.5 Q 242 -400 225 -385.5 Q 208 -371 185.5 -365.5 Q 163 -360 141 -360 Z M 287 -431 L 382 -735 L 468 -735 L 362 -431 Z M 141 -429 Q 149 -429 156.5 -431 Q 164 -433 170 -438 Q 176 -443 178.5 -450 Q 181 -457 181 -465 L 181 -638 Q 181 -645 178.5 -652.5 Q 176 -660 170 -665 Q 164 -670 156.5 -672 Q 149 -674 141 -674 Q 133 -674 125.5 -672 Q 118 -670 112 -665 Q 106 -660 103.5 -652.5 Q 101 -645 101 -638 L 101 -465 Q 101 -457 103.5 -450 Q 106 -443 112 -438 Q 118 -433 125.5 -431 Q 133 -429 141 -429 Z M 359 8 Q 337 8 314.5 2.5 Q 292 -3 275 -17.5 Q 258 -32 250 -53.5 Q 242 -75 242 -98 L 242 -270 Q 242 -292 250 -313.5 Q 258 -335 275 -349.5 Q 292 -364 314.5 -370 Q 337 -376 359 -376 Q 381 -376 403.5 -370 Q 426 -364 443 -349.5 Q 460 -335 468 -313.5 Q 476 -292 476 -270 L 476 -98 Q 476 -75 468 -53.5 Q 460 -32 443 -17.5 Q 426 -3 403.5 2.5 Q 381 8 359 8 Z M 359 -61 Q 367 -61 374.5 -63 Q 382 -65 388 -70 Q 394 -75 396.5 -82.5 Q 399 -90 399 -98 L 399 -270 Q 399 -278 396.5 -285 Q 394 -292 388 -297 Q 382 -302 374.5 -304 Q 367 -306 359 -306 Q 351 -306 343.5 -304 Q 336 -302 330 -297 Q 324 -292 321.5 -285 Q 319 -278 319 -270 L 319 -98 Q 319 -90 321.5 -82.5 Q 324 -75 330 -70 Q 336 -65 343.5 -63 Q 351 -61 359 -61 Z M 32 0 L 138 -304 L 213 -304 L 118 0 Z " id="path78"/>
<path d="M 101 153 L 101 83 L 180 83 Q 199 83 217.5 79 Q 236 75 250.5 62.5 Q 265 50 270.5 32 Q 276 14 276 -5 Q 276 -23 270 -40 Q 264 -57 255 -72 Q 246 -87 236.5 -102.5 Q 227 -118 221 -134.5 Q 215 -151 211.5 -168.5 Q 208 -186 208 -204 Q 208 -226 213.5 -247.5 Q 219 -269 231 -287 Q 243 -305 260.5 -318.5 Q 278 -332 298 -340 Q 278 -348 260.5 -361.5 Q 243 -375 231 -393 Q 219 -411 213.5 -432.5 Q 208 -454 208 -476 Q 208 -494 211.5 -511.5 Q 215 -529 221 -545.5 Q 227 -562 236.5 -577.5 Q 246 -593 255 -608 Q 264 -623 270 -640 Q 276 -657 276 -675 Q 276 -694 270.5 -712 Q 265 -730 250.5 -742.5 Q 236 -755 217.5 -759 Q 199 -763 180 -763 L 101 -763 L 101 -833 L 180 -833 Q 203 -833 225.5 -830.5 Q 248 -828 269 -819.5 Q 290 -811 307.5 -796.5 Q 325 -782 335.5 -762 Q 346 -742 349.5 -719.5 Q 353 -697 353 -675 Q 353 -657 350 -639.5 Q 347 -622 340.5 -605.5 Q 334 -589 325 -573.5 Q 316 -558 307 -543 Q 298 -528 292 -511 Q 286 -494 286 -476 Q 286 -454 294 -433 Q 302 -412 319.5 -398.5 Q 337 -385 358.5 -380 Q 380 -375 402 -375 L 417 -375 L 417 -305 L 402 -305 Q 380 -305 358.5 -300 Q 337 -295 319.5 -281.5 Q 302 -268 294 -247 Q 286 -226 286 -204 Q 286 -186 292 -169 Q 298 -152 307 -137 Q 316 -122 325 -106.5 Q 334 -91 340.5 -74.5 Q 347 -58 350 -40.5 Q 353 -23 353 -5 Q 353 17 349.5 39.5 Q 346 62 335.5 82 Q 325 102 307.5 116.5 Q 290 131 269 139.5 Q 248 148 225.5 150.5 Q 203 153 180 153 Z " id="path79"/>
<path d="M 215 215 L 156 170 Q 188 134 214.5 94 Q 241 54 254 8 L 249 8 Q 234 8 218.5 3 Q 203 -2 192 -13 Q 181 -24 176.5 -39 Q 172 -54 172 -70 Q 172 -86 176.5 -101 Q 181 -116 192.5 -127.5 Q 204 -139 219 -143.5 Q 234 -148 250 -148 Q 266 -148 282 -143 Q 298 -138 309 -126.5 Q 320 -115 324 -99 Q 328 -83 328 -66 Q 328 -28 319 10 Q 310 48 295 83.5 Q 280 119 259.5 152 Q 239 185 215 215 Z M 250 -372 Q 234 -372 219 -376.5 Q 204 -381 192.5 -392.5 Q 181 -404 176.5 -419 Q 172 -434 172 -450 Q 172 -466 176.5 -481 Q 181 -496 192.5 -507.5 Q 204 -519 219 -523.5 Q 234 -528 250 -528 Q 266 -528 281 -523.5 Q 296 -519 307.5 -507.5 Q 319 -496 323.5 -481 Q 328 -466 328 -450 Q 328 -434 323.5 -419 Q 319 -404 307.5 -392.5 Q 296 -381 281 -376.5 Q 266 -372 250 -372 Z " id="path80"/>
<path d="M 436 215 L 64 215 L 64 145 L 436 145 Z " id="path81"/>
<path d="M 84 -81 L 44 -141 L 369 -340 L 44 -539 L 84 -599 L 436 -381 L 436 -299 Z " id="path82"/>
<path d="M 416 -81 L 64 -299 L 64 -381 L 416 -599 L 456 -539 L 131 -340 L 456 -141 Z " id="path83"/>
<path d="M 399 -82 L 286 -246 L 222 -340 L 399 -598 L 455 -565 L 312 -340 L 455 -115 Z M 213 -82 L 100 -246 L 36 -340 L 213 -598 L 269 -565 L 126 -340 L 269 -115 Z " id="path84"/>
<path d="M 64 -636 L 64 -704 L 436 -704 L 436 -636 Z " id="path85"/>
<path d="M 436 -135 L 358 -135 L 358 -305 L 64 -305 L 64 -375 L 436 -375 Z " id="path86"/>
<path d="M 287 -82 L 231 -115 L 374 -340 L 231 -565 L 287 -598 L 464 -340 Z M 101 -82 L 45 -115 L 188 -340 L 45 -565 L 101 -598 L 278 -340 Z " id="path87"/>
<path d="M 323 -185 Q 315 -185 308 -186.5 Q 301 -188 294.5 -190 Q 288 -192 282 -196 Q 276 -200 271 -204.5 Q 266 -209 261.5 -213.5 Q 257 -218 252.5 -223.5 Q 248 -229 244 -235 Q 240 -241 236 -246.5 Q 232 -252 228.5 -258 Q 225 -264 221.5 -270 Q 218 -276 214 -283 Q 210 -290 206.5 -296.5 Q 203 -303 199 -309 Q 195 -315 191.5 -320 Q 188 -325 181.5 -330.5 Q 175 -336 175 -339 L 180 -339 Q 180 -338 175.5 -334 Q 171 -330 167 -325.5 Q 163 -321 160 -316.5 Q 157 -312 155 -309 Q 153 -306 151.5 -302.5 Q 150 -299 148 -295.5 Q 146 -292 143.5 -288 Q 141 -284 139 -279.5 Q 137 -275 135 -270.5 Q 133 -266 130.5 -261 Q 128 -256 125.5 -250.5 Q 123 -245 120.5 -239.5 Q 118 -234 115.5 -228 Q 113 -222 110.5 -215.5 Q 108 -209 105.5 -202 Q 103 -195 100 -188 L 28 -212 Q 32 -224 36 -234.5 Q 40 -245 44.5 -255 Q 49 -265 53 -274.5 Q 57 -284 60.5 -292.5 Q 64 -301 68 -308.5 Q 72 -316 76 -323 Q 80 -330 83.5 -336.5 Q 87 -343 91 -349 Q 95 -355 101 -363 Q 107 -371 113.5 -377.5 Q 120 -384 126.5 -389.5 Q 133 -395 141.5 -399.5 Q 150 -404 159 -406.5 Q 168 -409 177 -409 Q 185 -409 192 -407.5 Q 199 -406 205.5 -403.5 Q 212 -401 218 -397.5 Q 224 -394 229 -389.5 Q 234 -385 238.5 -380 Q 243 -375 247.5 -369.5 Q 252 -364 256 -358.5 Q 260 -353 264 -347 Q 268 -341 271.5 -335 Q 275 -329 278.5 -323 Q 282 -317 286 -310.5 Q 290 -304 293.5 -297.5 Q 297 -291 301 -285 Q 305 -279 308.5 -274 Q 312 -269 318.5 -263 Q 325 -257 325 -255 Q 325 -254 325 -254 L 324 -255 Q 323 -255 322 -255 L 320 -255 L 325 -259 Q 329 -263 333 -267.5 Q 337 -272 340 -277 Q 343 -282 345 -285 Q 347 -288 348.5 -291 Q 350 -294 352 -298 Q 354 -302 356.5 -306 Q 359 -310 361 -314 Q 363 -318 365 -323 Q 367 -328 369.5 -333 Q 372 -338 374.5 -343 Q 377 -348 379.5 -354 Q 382 -360 384.5 -366 Q 387 -372 389.5 -378.5 Q 392 -385 394.5 -391.5 Q 397 -398 400 -406 L 472 -381 Q 468 -370 464 -359 Q 460 -348 455.5 -338 Q 451 -328 447 -319 Q 443 -310 439.5 -301.5 Q 436 -293 432 -285 Q 428 -277 424 -270 Q 420 -263 416.5 -257 Q 413 -251 409 -245 Q 405 -239 399 -231 Q 393 -223 386.5 -216 Q 380 -209 373.5 -203.5 Q 367 -198 358.5 -194 Q 350 -190 341 -187.5 Q 332 -185 323 -185 Z " id="path88"/>
<path d="M 468 -305 L 32 -305 L 32 -375 L 468 -375 Z " id="path89"/>
<path d="M 250 -456 Q 236 -456 222 -460 Q 208 -464 198 -474 Q 188 -484 184 -498 Q 180 -512 180 -526 Q 180 -540 184 -554 Q 188 -568 198 -578 Q 208 -588 222 -592.5 Q 236 -597 250 -597 Q 264 -597 278 -592.5 Q 292 -588 302 -578 Q 312 -568 316.5 -554 Q 321 -540 321 -526 Q 321 -512 316.5 -498 Q 312 -484 302 -474 Q 292 -464 278 -460 Q 264 -456 250 -456 Z M 436 -305 L 64 -305 L 64 -375 L 436 -375 Z M 250 -84 Q 236 -84 222 -88 Q 208 -92 198 -102 Q 188 -112 183.5 -126 Q 179 -140 179 -154 Q 179 -168 183.5 -182 Q 188 -196 198 -206 Q 208 -216 222 -220.5 Q 236 -225 250 -225 Q 264 -225 278 -220.5 Q 292 -216 302 -206 Q 312 -196 316.5 -182 Q 321 -168 321 -154 Q 321 -140 316.5 -126 Q 312 -112 302 -102 Q 292 -92 278 -88 Q 264 -84 250 -84 Z " id="path90"/>
<path d="M 75 -113 L 21 -163 L 198 -340 L 21 -517 L 75 -567 L 250 -392 L 425 -567 L 479 -517 L 302 -340 L 479 -163 L 425 -113 L 250 -288 Z " id="path91"/>
<path d="M 158 -150 L 95 -191 L 200 -325 L 38 -372 L 62 -438 L 217 -382 L 211 -550 L 289 -550 L 283 -382 L 438 -438 L 462 -372 L 300 -325 L 405 -191 L 342 -150 L 250 -286 Z " id="path92"/>
<path d="M 372 161 Q 329 137 291.5 104.5 Q 254 72 224 32.5 Q 194 -7 173 -52 Q 152 -97 139 -144.5 Q 126 -192 120.5 -241.5 Q 115 -291 115 -340 Q 115 -389 120.5 -438.5 Q 126 -488 139 -535.5 Q 152 -583 173 -628 Q 194 -673 224 -712.5 Q 254 -752 291.5 -784.5 Q 329 -817 372 -841 L 410 -780 Q 355 -748 311.5 -699 Q 268 -650 241 -591.5 Q 214 -533 203.5 -468.5 Q 193 -404 193 -340 Q 193 -276 203.5 -211.5 Q 214 -147 241 -88.5 Q 268 -30 311.5 19 Q 355 68 410 100 Z " id="path93"/>
<path d="M 128 161 L 90 100 Q 145 68 188.5 19 Q 232 -30 259 -88.5 Q 286 -147 296.5 -211.5 Q 307 -276 307 -340 Q 307 -404 296.5 -468.5 Q 286 -533 259 -591.5 Q 232 -650 188.5 -699 Q 145 -748 90 -780 L 128 -841 Q 171 -817 208.5 -784.5 Q 246 -752 276 -712.5 Q 306 -673 327 -628 Q 348 -583 361 -535.5 Q 374 -488 379.5 -438.5 Q 385 -389 385 -340 Q 385 -291 379.5 -241.5 Q 374 -192 361 -144.5 Q 348 -97 327 -52 Q 306 -7 276 32.5 Q 246 72 208.5 104.5 Q 171 137 128 161 Z " id="path94"/>
<path d="M 500 -30 L 64 -299 L 64 -381 L 500 -650 L 568 -608 L 131 -340 L 568 -72 Z " id="path95"/>
<path d="M 0 -30 L -68 -72 L 0 -113 L 369 -340 L -68 -608 L 0 -650 L 436 -381 L 436 -299 Z " id="path96"/>
<path d="M 270 -542 L 92 -755 L 160 -802 L 325 -581 Z " id="path97"/>
<path d="M 310 -18 L 232 -18 L 365 -717 L 443 -717 L 410 -542 L 493 -542 L 493 -472 L 396 -472 L 357 -263 L 449 -263 L 449 -193 L 343 -193 Z M 57 -18 L 90 -193 L 7 -193 L 7 -263 L 104 -263 L 143 -472 L 51 -472 L 51 -542 L 157 -542 L 190 -717 L 268 -717 L 135 -18 Z " id="path98"/>
<path d="M 394 -450 L 250 -661 L 106 -450 L 39 -493 L 207 -724 L 293 -724 L 377 -608 L 461 -493 Z " id="path99"/>
<path d="M 401 77 L 250 77 Q 224 77 198 71.5 Q 172 66 149.5 53 Q 127 40 110 20 Q 93 0 82.5 -24 Q 72 -48 68 -74 Q 64 -100 64 -126 L 64 -554 Q 64 -580 68 -606 Q 72 -632 82.5 -656 Q 93 -680 110 -700 Q 127 -720 149.5 -733 Q 172 -746 198 -751.5 Q 224 -757 250 -757 Q 276 -757 302 -751.5 Q 328 -746 350.5 -733 Q 373 -720 390 -700 Q 407 -680 417.5 -656 Q 428 -632 432 -606 Q 436 -580 436 -554 L 436 -226 Q 436 -209 434 -192.5 Q 432 -176 426.5 -160 Q 421 -144 411.5 -129.5 Q 402 -115 389 -105 Q 376 -95 359 -91 Q 342 -87 326 -87 Q 308 -87 291.5 -91 Q 275 -95 260.5 -104.5 Q 246 -114 235.5 -128 Q 225 -142 219 -158 Q 213 -174 210.5 -191.5 Q 208 -209 208 -226 L 208 -413 Q 208 -430 210.5 -447.5 Q 213 -465 219 -481 Q 225 -497 235.5 -511 Q 246 -525 260.5 -534.5 Q 275 -544 292 -548 Q 309 -552 327 -552 L 359 -552 L 359 -554 Q 359 -570 357 -586.5 Q 355 -603 349.5 -618 Q 344 -633 334.5 -646.5 Q 325 -660 311.5 -669.5 Q 298 -679 282 -683 Q 266 -687 250 -687 Q 234 -687 218 -683 Q 202 -679 188.5 -669.5 Q 175 -660 165.5 -646.5 Q 156 -633 150.5 -618 Q 145 -603 143 -586.5 Q 141 -570 141 -554 L 141 -126 Q 141 -110 143 -93.5 Q 145 -77 150.5 -62 Q 156 -47 165.5 -33.5 Q 175 -20 188.5 -10.5 Q 202 -1 218 3 Q 234 7 250 7 L 401 7 Z M 325 -156 Q 336 -156 343.5 -164.5 Q 351 -173 354 -183.5 Q 357 -194 358 -204.5 Q 359 -215 359 -226 L 359 -483 L 327 -483 Q 315 -483 306 -475.5 Q 297 -468 292.5 -457.5 Q 288 -447 286.5 -436 Q 285 -425 285 -413 L 285 -226 Q 285 -215 286.5 -203.5 Q 288 -192 292 -182 Q 296 -172 305 -164 Q 314 -156 325 -156 Z " id="path100"/>
<path d="M 441 143 L 361 143 L 59 -823 L 139 -823 Z " id="path101"/>
<path d="M 226 8 Q 201 8 177 2 Q 153 -4 133 -17.5 Q 113 -31 98.5 -51 Q 84 -71 74.5 -93.5 Q 65 -116 60 -140 Q 55 -164 55 -188 Q 55 -218 64 -246.5 Q 73 -275 88.5 -300.5 Q 104 -326 124 -348 Q 144 -370 164 -391 Q 150 -414 135.5 -437 Q 121 -460 109 -484.5 Q 97 -509 89.5 -535.5 Q 82 -562 82 -589 Q 82 -619 91.5 -648.5 Q 101 -678 121.5 -700.5 Q 142 -723 171 -733 Q 200 -743 230 -743 Q 262 -743 292 -732 Q 322 -721 342 -697 Q 362 -673 370 -642 Q 378 -611 378 -580 L 300 -580 Q 300 -597 297 -613 Q 294 -629 285.5 -643 Q 277 -657 262 -665 Q 247 -673 230 -673 Q 215 -673 200.5 -666 Q 186 -659 177 -646.5 Q 168 -634 164 -618.5 Q 160 -603 160 -587 Q 160 -566 166.5 -545 Q 173 -524 183 -504.5 Q 193 -485 205 -466.5 Q 217 -448 229 -430 Q 241 -412 252.5 -393 Q 264 -374 275 -356 L 360 -210 L 399 -311 L 481 -311 L 421 -155 Q 418 -148 415.5 -140.5 Q 413 -133 410 -126 L 483 0 L 396 0 L 365 -53 L 357 -66 Q 341 -41 317.5 -22 Q 294 -3 265 4 L 258 5 L 255 6 Q 247 7 240 7.5 Q 233 8 226 8 Z M 236 -62 Q 250 -62 263.5 -67 Q 277 -72 288 -80 Q 299 -88 308 -99 Q 317 -110 324 -123 L 208 -320 Q 206 -323 205 -325 Q 204 -327 202 -330 Q 188 -316 175 -300 Q 162 -284 152.5 -266.5 Q 143 -249 138 -229.5 Q 133 -210 133 -190 Q 133 -175 136 -159.5 Q 139 -144 144 -129.5 Q 149 -115 157.5 -102 Q 166 -89 178.5 -79.5 Q 191 -70 206 -66 Q 221 -62 236 -62 Z " id="path102"/>
<path d="M 211 -221 L 211 -400 L 250 -400 Q 275 -400 299 -409.5 Q 323 -419 339 -439 Q 355 -459 360.5 -484 Q 366 -509 366 -534 Q 366 -551 364 -568 Q 362 -585 356 -601 Q 350 -617 340 -631 Q 330 -645 316.5 -655 Q 303 -665 286.5 -669 Q 270 -673 253 -673 Q 230 -673 207.5 -665.5 Q 185 -658 169.5 -641.5 Q 154 -625 147 -602.5 Q 140 -580 140 -557 L 140 -556 L 62 -556 L 62 -558 Q 62 -583 67.5 -607.5 Q 73 -632 85 -654 Q 97 -676 115 -694 Q 133 -712 155.5 -723 Q 178 -734 203 -738.5 Q 228 -743 253 -743 Q 279 -743 306 -737.5 Q 333 -732 356 -718.5 Q 379 -705 396.5 -684.5 Q 414 -664 425 -639.5 Q 436 -615 440 -588 Q 444 -561 444 -534 Q 444 -499 436 -464 Q 428 -429 407.5 -400.5 Q 387 -372 355.5 -354.5 Q 324 -337 289 -332 L 289 -221 Z M 250 8 Q 236 8 222 4 Q 208 0 198 -10.5 Q 188 -21 184 -34.5 Q 180 -48 180 -63 Q 180 -77 184 -90.5 Q 188 -104 198 -114.5 Q 208 -125 222 -129 Q 236 -133 250 -133 Q 264 -133 278 -129 Q 292 -125 302 -114.5 Q 312 -104 316.5 -90.5 Q 321 -77 321 -63 Q 321 -48 316.5 -34.5 Q 312 -21 302 -10.5 Q 292 0 278 4 Q 264 8 250 8 Z " id="path103"/>
<path d="M 213 -442 Q 210 -524 208.5 -606.5 Q 207 -689 207 -772 L 293 -772 Q 293 -689 291.5 -606.5 Q 290 -524 287 -442 Z " id="path104"/>
<path d="M 113 -442 Q 110 -524 108.5 -606.5 Q 107 -689 107 -772 L 193 -772 Q 193 -689 191.5 -606.5 Q 190 -524 187 -442 Z M 313 -442 Q 310 -524 308.5 -606.5 Q 307 -689 307 -772 L 393 -772 Q 393 -689 391.5 -606.5 Q 390 -524 387 -442 Z " id="path105"/>
<path d="M 250 8 Q 234 8 219 3.5 Q 204 -1 192.5 -12.5 Q 181 -24 176.5 -39 Q 172 -54 172 -70 Q 172 -86 176.5 -101 Q 181 -116 192.5 -127.5 Q 204 -139 219 -143.5 Q 234 -148 250 -148 Q 266 -148 281 -143.5 Q 296 -139 307.5 -127.5 Q 319 -116 323.5 -101 Q 328 -86 328 -70 Q 328 -54 323.5 -39 Q 319 -24 307.5 -12.5 Q 296 -1 281 3.5 Q 266 8 250 8 Z M 250 -372 Q 234 -372 219 -376.5 Q 204 -381 192.5 -392.5 Q 181 -404 176.5 -419 Q 172 -434 172 -450 Q 172 -466 176.5 -481 Q 181 -496 192.5 -507.5 Q 204 -519 219 -523.5 Q 234 -528 250 -528 Q 266 -528 281 -523.5 Q 296 -519 307.5 -507.5 Q 319 -496 323.5 -481 Q 328 -466 328 -450 Q 328 -434 323.5 -419 Q 319 -404 307.5 -392.5 Q 296 -381 281 -376.5 Q 266 -372 250 -372 Z " id="path106"/>
<path d="M 229 215 L 229 -334 Q 205 -334 180.5 -340 Q 156 -346 135.5 -360 Q 115 -374 100 -394 Q 85 -414 76 -437 Q 67 -460 63.5 -485 Q 60 -510 60 -534 Q 60 -559 63.5 -584 Q 67 -609 76 -632 Q 85 -655 100 -675 Q 115 -695 135.5 -708.5 Q 156 -722 180.5 -728.5 Q 205 -735 229 -735 L 440 -735 L 440 215 L 365 215 L 365 -668 L 304 -668 L 304 215 Z " id="path107"/>
<path d="M 361 0 L 120 0 L 120 -70 L 199 -70 L 199 -403 L 120 -403 L 120 -473 L 199 -473 L 199 -580 Q 199 -601 202.5 -621.5 Q 206 -642 215.5 -660.5 Q 225 -679 240 -694 Q 255 -709 273.5 -718.5 Q 292 -728 312.5 -731.5 Q 333 -735 354 -735 L 436 -735 L 436 -665 L 354 -665 Q 337 -665 321.5 -659.5 Q 306 -654 295.5 -641.5 Q 285 -629 281 -613 Q 277 -597 277 -580 L 277 -70 L 361 -70 Z " id="path108"/>
<path d="M 194 215 L 163 151 Q 190 139 215.5 122.5 Q 241 106 263.5 86.5 Q 286 67 305.5 43.5 Q 325 20 339 -6.5 Q 353 -33 361.5 -62.5 Q 370 -92 370 -122 Q 370 -137 364 -151 Q 358 -165 347 -175 Q 336 -185 322 -191.5 Q 308 -198 293.5 -201.5 Q 279 -205 264 -205.5 Q 249 -206 234 -206 L 190 -206 L 321 -444 L 142 -444 L 142 0 L 64 0 L 64 -580 Q 64 -601 67.5 -621.5 Q 71 -642 80.5 -660.5 Q 90 -679 105 -694 Q 120 -709 138.5 -718.5 Q 157 -728 177.5 -731.5 Q 198 -735 219 -735 L 382 -735 L 382 -665 L 219 -665 Q 202 -665 186.5 -659.5 Q 171 -654 160.5 -641.5 Q 150 -629 146 -613 Q 142 -597 142 -580 L 142 -515 L 445 -515 L 311 -271 Q 339 -266 364 -254 Q 389 -242 408 -222 Q 427 -202 437.5 -175.5 Q 448 -149 448 -122 Q 448 -85 438 -49 Q 428 -13 410.5 20 Q 393 53 369.5 82 Q 346 111 318.5 135.5 Q 291 160 259.5 180 Q 228 200 194 215 Z " id="path109"/>
<path d="M 250 8 Q 222 8 194 1.5 Q 166 -5 142 -20.5 Q 118 -36 101 -59.5 Q 84 -83 74 -109.5 Q 64 -136 60 -164 Q 56 -192 56 -220 Q 56 -249 59.5 -277 Q 63 -305 73 -331.5 Q 83 -358 100.5 -381 Q 118 -404 141 -419.5 Q 164 -435 192 -442 Q 220 -449 248 -449 Q 278 -449 307 -440 Q 336 -431 358 -411 Q 349 -443 336 -473 Q 323 -503 305 -531 L 111 -478 L 92 -540 L 260 -586 Q 231 -615 195.5 -636 Q 160 -657 120 -667 L 141 -735 Q 198 -720 248.5 -686.5 Q 299 -653 337 -607 L 408 -626 L 427 -564 L 376 -550 Q 395 -516 409 -479 Q 423 -442 431 -404 Q 439 -366 441.5 -326.5 Q 444 -287 444 -248 L 444 -221 Q 444 -192 440.5 -164 Q 437 -136 426.5 -109.5 Q 416 -83 399 -60 Q 382 -37 358 -21 Q 334 -5 306 1.5 Q 278 8 250 8 Z M 250 -62 Q 269 -62 286.5 -68.5 Q 304 -75 318.5 -86.5 Q 333 -98 343 -113.5 Q 353 -129 358.5 -147 Q 364 -165 365 -183.5 Q 366 -202 366 -220 Q 366 -239 364 -257.5 Q 362 -276 357 -293.5 Q 352 -311 342.5 -327.5 Q 333 -344 318.5 -356 Q 304 -368 286 -373.5 Q 268 -379 250 -379 Q 231 -379 213 -373.5 Q 195 -368 181 -356 Q 167 -344 157.5 -327.5 Q 148 -311 143 -293.5 Q 138 -276 136 -257.5 Q 134 -239 134 -221 Q 134 -202 136 -183.5 Q 138 -165 143 -147.5 Q 148 -130 157.5 -113.5 Q 167 -97 181 -85 Q 195 -73 213 -67.5 Q 231 -62 250 -62 Z " id="path110"/>
<path d="M 64 215 L 64 -735 L 142 -735 L 142 -429 Q 150 -450 163 -469.5 Q 176 -489 194.5 -502.5 Q 213 -516 235.5 -522 Q 258 -528 281 -528 Q 306 -528 330.5 -521 Q 355 -514 375 -499 Q 395 -484 408.5 -463 Q 422 -442 430 -418.5 Q 438 -395 441 -370 Q 444 -345 444 -320 L 444 -200 Q 444 -175 441 -150 Q 438 -125 430 -101.5 Q 422 -78 408.5 -57 Q 395 -36 375 -21 Q 355 -6 330.5 1 Q 306 8 281 8 Q 258 8 235.5 2 Q 213 -4 194.5 -17.5 Q 176 -31 163 -50.5 Q 150 -70 142 -91 L 142 215 Z M 251 -62 Q 268 -62 284.5 -66 Q 301 -70 315 -79.5 Q 329 -89 339.5 -103 Q 350 -117 356 -133 Q 362 -149 364 -166 Q 366 -183 366 -200 L 366 -320 Q 366 -337 364 -354 Q 362 -371 356 -387 Q 350 -403 339.5 -417 Q 329 -431 315 -440.5 Q 301 -450 284.5 -454 Q 268 -458 251 -458 Q 234 -458 218 -454 Q 202 -450 188.5 -440 Q 175 -430 165.5 -415.5 Q 156 -401 151 -385.5 Q 146 -370 144 -353.5 Q 142 -337 142 -320 L 142 -200 Q 142 -183 144 -166.5 Q 146 -150 151 -134.5 Q 156 -119 165.5 -104.5 Q 175 -90 188.5 -80 Q 202 -70 218 -66 Q 234 -62 251 -62 Z " id="path111"/>
<path d="M 96 0 L 96 -735 L 444 -735 L 444 -665 L 174 -665 L 174 0 Z " id="path112"/>
<path d="M 44 0 L 205 -735 L 295 -735 L 456 0 Z M 138 -70 L 362 -70 L 276 -490 Q 269 -522 262.5 -554 Q 256 -586 250 -618 Q 244 -586 237.5 -554 Q 231 -522 224 -490 Z " id="path113"/>
<path d="M 44 0 L 151 -490 L 205 -735 L 295 -735 L 456 0 L 376 0 L 276 -490 Q 269 -522 262.5 -554 Q 256 -586 250 -618 Q 244 -586 237.5 -554 Q 231 -522 224 -490 L 124 0 Z " id="path114"/>
<path d="M 220 8 Q 195 8 169.5 2 Q 144 -4 123 -19 Q 102 -34 87 -55 Q 72 -76 63 -100 Q 54 -124 51 -149 Q 48 -174 48 -200 L 48 -320 Q 48 -346 51 -371 Q 54 -396 63 -420 Q 72 -444 87 -465 Q 102 -486 123 -501 Q 144 -516 169.5 -522 Q 195 -528 220 -528 Q 244 -528 266.5 -517.5 Q 289 -507 305.5 -489.5 Q 322 -472 334 -451 Q 346 -430 355 -408 Q 359 -436 363.5 -464 Q 368 -492 372 -520 L 450 -520 Q 442 -483 434.5 -445.5 Q 427 -408 420 -370 L 419 -367 Q 414 -341 408.5 -315 Q 403 -289 398 -263 Q 404 -236 409.5 -208 Q 415 -180 421 -152 L 421 -150 Q 429 -112 436.5 -74.5 Q 444 -37 452 0 L 374 0 Q 370 -29 365 -58.5 Q 360 -88 356 -118 Q 347 -95 335 -73 Q 323 -51 306.5 -32.5 Q 290 -14 267.5 -3 Q 245 8 220 8 Z M 220 -62 Q 241 -62 257.5 -75.5 Q 274 -89 284 -107 Q 294 -125 301 -144.5 Q 308 -164 313.5 -183.5 Q 319 -203 323.5 -223.5 Q 328 -244 332 -264 Q 328 -283 323.5 -302.5 Q 319 -322 313.5 -341.5 Q 308 -361 301 -379.5 Q 294 -398 283.5 -415 Q 273 -432 256.5 -445 Q 240 -458 220 -458 Q 205 -458 189.5 -452.5 Q 174 -447 163 -436.5 Q 152 -426 144.5 -411.5 Q 137 -397 133 -382 Q 129 -367 127.5 -351.5 Q 126 -336 126 -320 L 126 -200 Q 126 -184 127.5 -168.5 Q 129 -153 133 -138 Q 137 -123 144.5 -108.5 Q 152 -94 163 -83.5 Q 174 -73 189.5 -67.5 Q 205 -62 220 -62 Z " id="path115"/>
<path d="M 250 8 Q 223 8 196 2.5 Q 169 -3 146 -16 Q 123 -29 104.5 -49.5 Q 86 -70 75 -94.5 Q 64 -119 60 -146 Q 56 -173 56 -200 L 56 -273 Q 56 -299 60 -325.5 Q 64 -352 75 -376.5 Q 86 -401 103.5 -421.5 Q 121 -442 144 -455.5 Q 167 -469 193.5 -474.5 Q 220 -480 247 -481 Q 223 -500 201 -521 Q 179 -542 158 -564 L 64 -665 L 64 -735 L 436 -735 L 436 -665 L 165 -665 L 215 -612 Q 240 -585 267 -559 Q 294 -533 321.5 -507.5 Q 349 -482 374.5 -454.5 Q 400 -427 417 -393.5 Q 434 -360 439 -322.5 Q 444 -285 444 -248 L 444 -200 Q 444 -173 440 -146 Q 436 -119 425 -94.5 Q 414 -70 395.5 -49.5 Q 377 -29 354 -16 Q 331 -3 304 2.5 Q 277 8 250 8 Z M 250 -62 Q 267 -62 284 -66.5 Q 301 -71 315 -80.5 Q 329 -90 340 -103.5 Q 351 -117 357 -133 Q 363 -149 364.5 -166 Q 366 -183 366 -200 L 366 -273 Q 366 -290 364 -307 Q 362 -324 356 -340 Q 350 -356 339.5 -369.5 Q 329 -383 315 -393 Q 301 -403 284 -406.5 Q 267 -410 250 -410 Q 233 -410 216 -406 Q 199 -402 185 -392.5 Q 171 -383 160.5 -369 Q 150 -355 144 -339.5 Q 138 -324 136 -307 Q 134 -290 134 -273 L 134 -200 Q 134 -183 136 -166 Q 138 -149 144 -133 Q 150 -117 160.5 -103 Q 171 -89 185 -79.5 Q 199 -70 216 -66 Q 233 -62 250 -62 Z " id="path116"/>
<path d="M 434 0 L 366 0 Q 345 0 324.5 -3.5 Q 304 -7 285 -16 Q 266 -25 251.5 -40 Q 237 -55 227.5 -74 Q 218 -93 214.5 -113.5 Q 211 -134 211 -155 L 211 -450 L 75 -450 L 75 -520 L 289 -520 L 289 -155 Q 289 -138 293 -122 Q 297 -106 307.5 -93.5 Q 318 -81 334 -75.5 Q 350 -70 366 -70 L 434 -70 Z " id="path117"/>
<path d="M 476 8 Q 453 8 429.5 3 Q 406 -2 387 -16 Q 368 -30 355 -50 Q 342 -70 333 -92 Q 324 -114 320 -137.5 Q 316 -161 310 -184 L 249 -409 L 132 0 L 51 0 L 210 -533 L 187 -614 Q 184 -625 180 -635 Q 176 -645 168.5 -652.5 Q 161 -660 150 -662.5 Q 139 -665 129 -665 L 76 -665 L 76 -735 L 129 -735 Q 152 -735 175 -731 Q 198 -727 216.5 -713 Q 235 -699 245 -677.5 Q 255 -656 262 -633 L 384 -202 Q 388 -191 390.5 -180 Q 393 -169 395.5 -157.5 Q 398 -146 400.5 -134.5 Q 403 -123 407.5 -112.5 Q 412 -102 418 -92 Q 424 -82 433 -74.5 Q 442 -67 453.5 -64.5 Q 465 -62 476 -62 Z " id="path118"/>
<path d="M 64 215 L 64 -520 L 142 -520 L 142 -200 Q 142 -183 144 -166.5 Q 146 -150 151 -134.5 Q 156 -119 165.5 -105 Q 175 -91 188 -81 Q 201 -71 217 -66.5 Q 233 -62 250 -62 Q 267 -62 283 -66.5 Q 299 -71 312 -81 Q 325 -91 334.5 -105 Q 344 -119 349 -134.5 Q 354 -150 356 -166.5 Q 358 -183 358 -200 L 358 -520 L 436 -520 L 436 -93 Q 436 -87 438 -81 Q 440 -75 444.5 -70.5 Q 449 -66 455 -64 Q 461 -62 467 -62 L 482 -62 L 482 8 L 467 8 Q 446 8 425.5 2.5 Q 405 -3 389 -16.5 Q 373 -30 365.5 -50 Q 358 -70 358 -91 Q 350 -70 337 -50.5 Q 324 -31 305.5 -17.5 Q 287 -4 264.5 2 Q 242 8 220 8 Q 198 8 177 3 Q 156 -2 138 -14 Q 140 16 141 46.5 Q 142 77 142 107 L 142 215 Z " id="path119"/>
<path d="M 250 215 L 250 145 L 279 145 Q 294 145 309.5 141 Q 325 137 336.5 127 Q 348 117 353 102.5 Q 358 88 358 73 Q 358 54 349 37 Q 340 20 323.5 11.5 Q 307 3 288 1.5 Q 269 -0 250.5 -0.5 Q 232 -1 213.5 -4 Q 195 -7 177 -12.5 Q 159 -18 142.5 -27 Q 126 -36 112 -48 Q 98 -60 87 -75.5 Q 76 -91 69.5 -108.5 Q 63 -126 60 -144.5 Q 57 -163 57 -181 L 57 -182 Q 57 -215 67.5 -247 Q 78 -279 99.5 -303.5 Q 121 -328 150 -344.5 Q 179 -361 211 -370 Q 184 -379 160 -394 Q 136 -409 118.5 -430.5 Q 101 -452 92.5 -479 Q 84 -506 84 -534 Q 84 -554 89 -574.5 Q 94 -595 105 -612 Q 116 -629 132 -642 Q 148 -655 166 -665 L 64 -665 L 64 -735 L 436 -735 L 436 -665 L 343 -665 Q 322 -665 301 -663 Q 280 -661 260 -655 Q 240 -649 221 -638.5 Q 202 -628 188.5 -612 Q 175 -596 168.5 -576 Q 162 -556 162 -535 Q 162 -513 168.5 -493 Q 175 -473 189 -457 Q 203 -441 221.5 -430.5 Q 240 -420 260 -414.5 Q 280 -409 301 -406.5 Q 322 -404 343 -404 L 380 -404 L 380 -334 L 343 -334 Q 319 -334 294.5 -331.5 Q 270 -329 247 -322 Q 224 -315 202.5 -302.5 Q 181 -290 165.5 -272 Q 150 -254 142.5 -230 Q 135 -206 135 -182 Q 135 -160 143 -138.5 Q 151 -117 167.5 -102 Q 184 -87 205.5 -79.5 Q 227 -72 249.5 -70.5 Q 272 -69 294.5 -68.5 Q 317 -68 338.5 -61.5 Q 360 -55 379 -42.5 Q 398 -30 411.5 -12 Q 425 6 430.5 28 Q 436 50 436 72 Q 436 93 432 112.5 Q 428 132 417.5 149.5 Q 407 167 391.5 180 Q 376 193 357.5 201 Q 339 209 319 212 Q 299 215 279 215 Z " id="path120"/>
<path d="M 440 8 L 424 8 Q 403 8 382.5 2.5 Q 362 -3 346 -17 Q 330 -31 323 -51.5 Q 316 -72 316 -93 L 316 -450 L 184 -450 L 184 0 L 107 0 L 107 -450 L 43 -450 L 43 -520 L 457 -520 L 457 -450 L 393 -450 L 393 -93 Q 393 -87 395 -81 Q 397 -75 401.5 -70.5 Q 406 -66 412 -64 Q 418 -62 424 -62 L 440 -62 Z " id="path121"/>
<path d="M 409 0 L 341 0 Q 321 0 300 -3.5 Q 279 -7 260.5 -16 Q 242 -25 227 -40 Q 212 -55 203 -74 Q 194 -93 190.5 -113.5 Q 187 -134 187 -155 L 187 -450 L 64 -450 L 64 -520 L 436 -520 L 436 -450 L 264 -450 L 264 -155 Q 264 -138 268 -122 Q 272 -106 283 -93.5 Q 294 -81 309.5 -75.5 Q 325 -70 341 -70 L 409 -70 Z " id="path122"/>
<path d="M 48 215 L 210 -153 L 149 -341 Q 145 -353 141.5 -365.5 Q 138 -378 134.5 -390 Q 131 -402 125.5 -414 Q 120 -426 111 -435 Q 102 -444 89.5 -447 Q 77 -450 64 -450 L 64 -520 Q 85 -520 105.5 -517 Q 126 -514 143.5 -503.5 Q 161 -493 173 -475.5 Q 185 -458 194 -439.5 Q 203 -421 210 -401.5 Q 217 -382 223 -362 L 256 -261 L 367 -520 L 452 -520 L 290 -152 L 351 36 Q 355 48 358.5 60.5 Q 362 73 365.5 85 Q 369 97 374.5 109 Q 380 121 389 130 Q 398 139 410.5 142 Q 423 145 436 145 L 436 215 Q 415 215 394.5 212 Q 374 209 356.5 198.5 Q 339 188 327 170.5 Q 315 153 306 134.5 Q 297 116 290 96.5 Q 283 77 277 57 L 244 -44 L 133 215 Z " id="path123"/>
<path d="M 250 8 Q 222 8 194 1.5 Q 166 -5 142 -20.5 Q 118 -36 101 -59.5 Q 84 -83 74 -109.5 Q 64 -136 60 -164 Q 56 -192 56 -220 Q 56 -249 59.5 -277 Q 63 -305 73 -331.5 Q 83 -358 100.5 -381 Q 118 -404 141 -419.5 Q 164 -435 192 -442 Q 220 -449 248 -449 Q 278 -449 307 -440 Q 336 -431 358 -411 Q 346 -455 325 -496.5 Q 304 -538 273.5 -572 Q 243 -606 203.5 -630.5 Q 164 -655 120 -667 L 141 -735 Q 191 -722 236 -695 Q 281 -668 316.5 -630.5 Q 352 -593 377.5 -547.5 Q 403 -502 418.5 -452.5 Q 434 -403 439 -351.5 Q 444 -300 444 -248 L 444 -221 Q 444 -192 440.5 -164 Q 437 -136 426.5 -109.5 Q 416 -83 399 -60 Q 382 -37 358 -21 Q 334 -5 306 1.5 Q 278 8 250 8 Z M 250 -62 Q 269 -62 286.5 -68.5 Q 304 -75 318.5 -86.5 Q 333 -98 343 -113.5 Q 353 -129 358.5 -147 Q 364 -165 365 -183.5 Q 366 -202 366 -220 Q 366 -239 364 -257.5 Q 362 -276 357 -293.5 Q 352 -311 342.5 -327.5 Q 333 -344 318.5 -356 Q 304 -368 286 -373.5 Q 268 -379 250 -379 Q 231 -379 213 -373.5 Q 195 -368 181 -356 Q 167 -344 157.5 -327.5 Q 148 -311 143 -293.5 Q 138 -276 136 -257.5 Q 134 -239 134 -221 Q 134 -202 136 -183.5 Q 138 -165 143 -147.5 Q 148 -130 157.5 -113.5 Q 167 -97 181 -85 Q 195 -73 213 -67.5 Q 231 -62 250 -62 Z " id="path124"/>
<path d="M 476 0 L 396 0 L 313 -332 L 289 -332 L 289 0 L 211 0 L 211 -332 L 187 -332 L 104 0 L 24 0 L 116 -367 L 24 -735 L 104 -735 L 187 -403 L 211 -403 L 211 -735 L 289 -735 L 289 -402 L 313 -402 L 396 -735 L 476 -735 L 384 -367 Z " id="path125"/>
<path d="M 252 8 Q 227 8 201.5 3.5 Q 176 -1 152.5 -12 Q 129 -23 110 -41 Q 91 -59 78.5 -81.5 Q 66 -104 60 -129 Q 54 -154 54 -180 L 132 -180 Q 132 -156 140 -133 Q 148 -110 165 -93.5 Q 182 -77 205.5 -69.5 Q 229 -62 252 -62 Q 270 -62 288 -66 Q 306 -70 320.5 -80.5 Q 335 -91 346 -105.5 Q 357 -120 363 -136.5 Q 369 -153 371.5 -171 Q 374 -189 374 -207 Q 374 -225 371.5 -242.5 Q 369 -260 362.5 -276.5 Q 356 -293 344.5 -307 Q 333 -321 318 -330.5 Q 303 -340 285.5 -343.5 Q 268 -347 250 -347 L 194 -347 L 194 -417 L 250 -417 Q 274 -417 296.5 -426 Q 319 -435 333.5 -453.5 Q 348 -472 353 -495.5 Q 358 -519 358 -543 Q 358 -567 353 -590.5 Q 348 -614 334.5 -633.5 Q 321 -653 299 -663 Q 277 -673 253 -673 Q 231 -673 210 -665.5 Q 189 -658 175 -641.5 Q 161 -625 154.5 -603.5 Q 148 -582 148 -561 L 148 -559 L 70 -559 L 70 -562 Q 70 -586 75.5 -610 Q 81 -634 92 -655.5 Q 103 -677 120 -694.5 Q 137 -712 158.5 -723 Q 180 -734 204.5 -738.5 Q 229 -743 253 -743 Q 278 -743 303.5 -738 Q 329 -733 351 -720 Q 373 -707 390 -687.5 Q 407 -668 417.5 -644.5 Q 428 -621 432 -595.5 Q 436 -570 436 -544 Q 436 -520 432 -495.5 Q 428 -471 416.5 -449.5 Q 405 -428 386.5 -411 Q 368 -394 346 -383 Q 372 -373 393.5 -354.5 Q 415 -336 428.5 -312 Q 442 -288 447 -260.5 Q 452 -233 452 -205 Q 452 -178 447.5 -150.5 Q 443 -123 431.5 -97.5 Q 420 -72 401.5 -51 Q 383 -30 359 -16.5 Q 335 -3 307.5 2.5 Q 280 8 252 8 Z " id="path126"/>
<path d="M 80 0 L 80 -735 L 157 -735 L 157 -403 L 197 -403 L 367 -735 L 453 -735 L 264 -368 L 417 -70 L 482 -70 L 482 0 L 367 0 L 197 -332 L 157 -332 L 157 0 Z " id="path127"/>
<path d="M 76 0 L 76 -70 L 129 -70 Q 139 -70 150 -72.5 Q 161 -75 168.5 -83 Q 176 -91 180 -101 Q 184 -111 187 -121 L 210 -200 L 177 -313 L 51 -735 L 132 -735 L 251 -320 L 368 -735 L 449 -735 L 262 -102 Q 255 -79 245 -58 Q 235 -37 216.5 -22.5 Q 198 -8 175 -4 Q 152 -0 129 0 Z " id="path128"/>
<path d="M 6 0 L 6 -70 L 78 -70 L 193 -309 Q 160 -316 131.5 -337 Q 103 -358 86 -387.5 Q 69 -417 62.5 -451 Q 56 -485 56 -520 Q 56 -547 60 -574 Q 64 -601 74 -626 Q 84 -651 101 -672.5 Q 118 -694 141 -708.5 Q 164 -723 190.5 -729 Q 217 -735 244 -735 L 436 -735 L 436 0 L 358 0 L 358 -304 L 276 -304 L 128 0 Z M 244 -374 L 358 -374 L 358 -665 L 244 -665 Q 227 -665 210 -660 Q 193 -655 179.5 -644.5 Q 166 -634 157 -619 Q 148 -604 143 -587.5 Q 138 -571 136 -554 Q 134 -537 134 -520 Q 134 -502 136 -485 Q 138 -468 143 -451.5 Q 148 -435 157 -420 Q 166 -405 179.5 -394.5 Q 193 -384 210 -379 Q 227 -374 244 -374 Z " id="path129"/>
<path d="M 476 0 L 395 0 L 320 -225 L 289 -225 L 289 0 L 211 0 L 211 -225 L 180 -225 L 105 0 L 24 0 L 110 -260 L 24 -520 L 105 -520 L 180 -295 L 211 -295 L 211 -520 L 289 -520 L 289 -295 L 320 -295 L 395 -520 L 476 -520 L 390 -260 Z " id="path130"/>
<path d="M 253 8 Q 229 8 206 5.5 Q 183 3 160.5 -4.5 Q 138 -12 118.5 -24.5 Q 99 -37 84.5 -55.5 Q 70 -74 62 -96.5 Q 54 -119 54 -142 L 54 -143 L 132 -143 Q 132 -122 144 -105 Q 156 -88 174 -78 Q 192 -68 212 -65 Q 232 -62 253 -62 Q 274 -62 295 -65.5 Q 316 -69 334.5 -80 Q 353 -91 363.5 -110 Q 374 -129 374 -150 Q 374 -165 369.5 -178.5 Q 365 -192 355 -202 Q 345 -212 332.5 -218.5 Q 320 -225 306 -229 Q 292 -233 278 -234 Q 264 -235 250 -235 L 194 -235 L 194 -305 L 250 -305 Q 262 -305 274.5 -306.5 Q 287 -308 299 -311 Q 311 -314 322 -320 Q 333 -326 341.5 -335 Q 350 -344 354 -356 Q 358 -368 358 -380 Q 358 -399 349 -415.5 Q 340 -432 324 -441.5 Q 308 -451 289.5 -454.5 Q 271 -458 253 -458 Q 235 -458 217 -455 Q 199 -452 183 -442.5 Q 167 -433 157.5 -417 Q 148 -401 148 -383 L 148 -382 L 70 -382 L 70 -384 Q 70 -406 77 -427 Q 84 -448 97 -465.5 Q 110 -483 128 -495.5 Q 146 -508 167 -515.5 Q 188 -523 209.5 -525.5 Q 231 -528 253 -528 Q 275 -528 297 -525.5 Q 319 -523 340 -515.5 Q 361 -508 379.5 -495 Q 398 -482 411 -464.5 Q 424 -447 430 -425 Q 436 -403 436 -381 Q 436 -363 432 -345.5 Q 428 -328 417.5 -313.5 Q 407 -299 392 -288.5 Q 377 -278 361 -271 Q 380 -264 397.5 -253 Q 415 -242 428 -226 Q 441 -210 446.5 -190 Q 452 -170 452 -149 Q 452 -125 445 -101.5 Q 438 -78 424 -59 Q 410 -40 389.5 -26.5 Q 369 -13 346.5 -5.5 Q 324 2 300 5 Q 276 8 253 8 Z " id="path131"/>
<path d="M 80 0 L 80 -520 L 157 -520 L 157 -295 L 209 -295 L 367 -520 L 459 -520 L 276 -260 L 410 -70 L 482 -70 L 482 0 L 367 0 L 209 -225 L 157 -225 L 157 0 Z " id="path132"/>
<path d="M 358 0 L 358 -450 L 170 -450 L 170 -258 Q 170 -236 169.5 -214.5 Q 169 -193 167 -171.5 Q 165 -150 161 -128.5 Q 157 -107 149.5 -87 Q 142 -67 130 -48.5 Q 118 -30 99.5 -19 Q 81 -8 59.5 -4 Q 38 -0 16 0 L 16 -70 Q 30 -70 43 -75.5 Q 56 -81 65 -92.5 Q 74 -104 78 -117.5 Q 82 -131 84.5 -145 Q 87 -159 88.5 -173 Q 90 -187 91 -201 Q 92 -215 92 -229 Q 92 -243 92 -257 L 92 -520 L 436 -520 L 436 0 Z " id="path133"/>
<path d="M 48 0 L 48 -520 L 142 -520 L 250 -235 L 358 -520 L 452 -520 L 452 0 L 374 0 L 374 -104 Q 374 -150 375 -195.5 Q 376 -241 378 -286 L 380 -338 Q 381 -361 382 -383.5 Q 383 -406 384 -429 L 280 -156 L 220 -156 L 116 -429 Q 117 -406 118 -383.5 Q 119 -361 120 -338 L 122 -286 Q 124 -241 125 -195.5 Q 126 -150 126 -104 L 126 0 Z " id="path134"/>
<path d="M 64 0 L 64 -520 L 142 -520 L 142 -304 L 358 -304 L 358 -520 L 436 -520 L 436 0 L 358 0 L 358 -234 L 142 -234 L 142 0 Z " id="path135"/>
<path d="M 211 215 L 211 -42 Q 206 -31 199 -21.5 Q 192 -12 182 -5 Q 172 2 160.5 5 Q 149 8 137 8 Q 121 8 105.5 2.5 Q 90 -3 78.5 -14.5 Q 67 -26 59.5 -40.5 Q 52 -55 47.5 -70.5 Q 43 -86 41.5 -102.5 Q 40 -119 40 -135 L 40 -385 Q 40 -401 41.5 -417.5 Q 43 -434 47.5 -449.5 Q 52 -465 59.5 -479.5 Q 67 -494 78.5 -505.5 Q 90 -517 105.5 -522.5 Q 121 -528 137 -528 Q 149 -528 160.5 -525 Q 172 -522 182 -515 Q 192 -508 199 -498.5 Q 206 -489 211 -478 L 211 -735 L 289 -735 L 289 -478 Q 294 -489 301 -498.5 Q 308 -508 318 -515 Q 328 -522 339.5 -525 Q 351 -528 363 -528 Q 379 -528 394.5 -522.5 Q 410 -517 421.5 -505.5 Q 433 -494 440.5 -479.5 Q 448 -465 452.5 -449.5 Q 457 -434 458.5 -417.5 Q 460 -401 460 -385 L 460 -135 Q 460 -119 458.5 -102.5 Q 457 -86 452.5 -70.5 Q 448 -55 440.5 -40.5 Q 433 -26 421.5 -14.5 Q 410 -3 394.5 2.5 Q 379 8 363 8 Q 351 8 339.5 5 Q 328 2 318 -5 Q 308 -12 301 -21.5 Q 294 -31 289 -42 L 289 215 Z M 168 -62 Q 179 -62 189 -69.5 Q 199 -77 203.5 -88 Q 208 -99 209.5 -111 Q 211 -123 211 -135 L 211 -385 Q 211 -397 209.5 -409 Q 208 -421 203.5 -432 Q 199 -443 189 -450.5 Q 179 -458 168 -458 Q 155 -458 144.5 -451 Q 134 -444 128 -433 Q 122 -422 120 -410 Q 118 -398 118 -385 L 118 -135 Q 118 -122 120 -110 Q 122 -98 128 -87 Q 134 -76 144.5 -69 Q 155 -62 168 -62 Z M 332 -62 Q 345 -62 355.5 -69 Q 366 -76 372 -87 Q 378 -98 380 -110 Q 382 -122 382 -135 L 382 -385 Q 382 -398 380 -410 Q 378 -422 372 -433 Q 366 -444 355.5 -451 Q 345 -458 332 -458 Q 321 -458 311 -450.5 Q 301 -443 296.5 -432 Q 292 -421 290.5 -409 Q 289 -397 289 -385 L 289 -135 Q 289 -123 290.5 -111 Q 292 -99 296.5 -88 Q 301 -77 311 -69.5 Q 321 -62 332 -62 Z " id="path136"/>
<path d="M 358 0 L 358 -190 Q 331 -182 303 -177.5 Q 275 -173 247 -173 Q 221 -173 196 -178 Q 171 -183 148 -195 Q 125 -207 107 -225.5 Q 89 -244 79 -267.5 Q 69 -291 66.5 -316.5 Q 64 -342 64 -368 L 64 -520 L 142 -520 L 142 -368 Q 142 -351 143.5 -334.5 Q 145 -318 152 -303 Q 159 -288 170.5 -276 Q 182 -264 197 -256.5 Q 212 -249 228 -246 Q 244 -243 261 -243 Q 286 -243 310.5 -248 Q 335 -253 358 -260 L 358 -520 L 436 -520 L 436 0 Z " id="path137"/>
<path d="M 64 0 L 64 -520 L 142 -520 L 142 -321 L 280 -321 Q 302 -321 323.5 -317.5 Q 345 -314 364.5 -304.5 Q 384 -295 400 -279.5 Q 416 -264 426 -244.5 Q 436 -225 440 -203.5 Q 444 -182 444 -161 Q 444 -139 440 -117.5 Q 436 -96 426 -76.5 Q 416 -57 400 -41.5 Q 384 -26 364.5 -16.5 Q 345 -7 323.5 -3.5 Q 302 0 280 0 Z M 142 -70 L 280 -70 Q 298 -70 315.5 -76 Q 333 -82 345 -95 Q 357 -108 361.5 -125.5 Q 366 -143 366 -161 Q 366 -178 361.5 -195.5 Q 357 -213 345 -226 Q 333 -239 315.5 -245 Q 298 -251 280 -251 L 142 -251 Z " id="path138"/>
<path d="M 374 0 L 374 -520 L 452 -520 L 452 0 Z M 48 0 L 48 -520 L 126 -520 L 126 -321 L 180 -321 Q 200 -321 219.5 -316.5 Q 239 -312 256 -301 Q 273 -290 285.5 -274 Q 298 -258 305.5 -239.5 Q 313 -221 315.5 -201 Q 318 -181 318 -161 Q 318 -140 315.5 -120 Q 313 -100 305.5 -81.5 Q 298 -63 285.5 -47 Q 273 -31 256 -20 Q 239 -9 219.5 -4.5 Q 200 -0 180 0 Z M 126 -70 L 180 -70 Q 195 -70 208.5 -78.5 Q 222 -87 229 -100.5 Q 236 -114 238 -129.5 Q 240 -145 240 -161 Q 240 -176 238 -191.5 Q 236 -207 229 -220.5 Q 222 -234 208.5 -242.5 Q 195 -251 180 -251 L 126 -251 Z " id="path139"/>
<path d="M 6 0 L 6 -70 L 91 -70 L 180 -203 Q 153 -207 128 -220.5 Q 103 -234 86.5 -256 Q 70 -278 63 -305 Q 56 -332 56 -360 Q 56 -382 60 -403.5 Q 64 -425 74 -444 Q 84 -463 100 -478.5 Q 116 -494 135.5 -503.5 Q 155 -513 176.5 -516.5 Q 198 -520 219 -520 L 436 -520 L 436 0 L 358 0 L 358 -200 L 269 -200 L 134 0 Z M 358 -270 L 358 -450 L 219 -450 Q 202 -450 184.5 -444.5 Q 167 -439 155 -425.5 Q 143 -412 138.5 -395 Q 134 -378 134 -360 Q 134 -342 138.5 -325 Q 143 -308 155 -295 Q 167 -282 184.5 -276 Q 202 -270 219 -270 Z " id="path140"/>
<path d="M 838 -161 L 150 -386 L 150 -460 L 838 -685 L 862 -619 L 263 -423 L 862 -228 Z " id="path141"/>
<path d="M 350 7 L -350 7 L -350 -63 L 350 -63 Z " id="path142"/>
<path d="M 383 81 L 310 57 L 617 -761 L 690 -737 Z " id="path143"/>
<path d="M 436 -394 L 27 -394 L 27 -429 L -27 -429 L -27 -394 L -436 -394 L -436 -464 L 436 -464 Z M 436 -216 L -436 -216 L -436 -286 L -27 -286 L -27 -251 L 27 -251 L 27 -286 L 436 -286 Z " id="path144"/>
<path d="M 64 -394 L 64 -464 L 508 -464 L 508 -429 L 473 -429 L 473 -394 Z M 508 -216 L 64 -216 L 64 -286 L 473 -286 L 473 -251 L 508 -251 Z " id="path145"/>
<path d="M 27 -394 L 27 -429 L -8 -429 L -8 -464 L 436 -464 L 436 -394 Z M 436 -216 L -8 -216 L -8 -251 L 27 -251 L 27 -286 L 436 -286 Z " id="path146"/>
<path d="M 64 -394 L 64 -464 L 642 -464 L 642 -394 Z M 642 -216 L 64 -216 L 64 -286 L 642 -286 Z " id="path147"/>
<path d="M 64 -69 L 64 -251 L 142 -251 L 142 -200 L 369 -340 L 142 -480 L 142 -429 L 64 -429 L 64 -611 L 436 -381 L 436 -299 Z " id="path148"/>
<path d="M 879 -305 L 64 -305 L 64 -375 L 879 -375 Z " id="path149"/>
</defs>
<g>
<g data-source-text="ABC.DEF.GHI.JKL.MNO.PQRS.TUV.WXYZ    abc.def.ghi.jkl.mno.pqrs.tuv.wxyz" fill="#dee4e3" transform="translate(180 48.16) rotate(0) scale(0.023999998)">
<use href="#path1" transform="translate(0 0)"/>
<use href="#path2" transform="translate(500 0)"/>
<use href="#path3" transform="translate(1000 0)"/>
<use href="#path4" transform="translate(1500 0)"/>
<use href="#path5" transform="translate(2000 0)"/>
<use href="#path6" transform="translate(2500 0)"/>
<use href="#path7" transform="translate(3000 0)"/>
<use href="#path4" transform="translate(3500 0)"/>
<use href="#path8" transform="translate(4000 0)"/>
<use href="#path9" transform="translate(4500 0)"/>
<use href="#path10" transform="translate(5000 0)"/>
<use href="#path4" transform="translate(5500 0)"/>
<use href="#path11" transform="translate(6000 0)"/>
<use href="#path12" transform="translate(6500 0)"/>
<use href="#path13" transform="translate(7000 0)"/>
<use href="#path4" transform="translate(7500 0)"/>
<use href="#path14" transform="translate(8000 0)"/>
<use href="#path15" transform="translate(8500 0)"/>
<use href="#path16" transform="translate(9000 0)"/>
<use href="#path4" transform="translate(9500 0)"/>
<use href="#path17" transform="translate(10000 0)"/>
<use href="#path18" transform="translate(10500 0)"/>
<use href="#path19" transform="translate(11000 0)"/>
<use href="#path20" transform="translate(11500 0)"/>
<use href="#path4" transform="translate(12000 0)"/>
<use href="#path21" transform="translate(12500 0)"/>
<use href="#path22" transform="translate(13000 0)"/>
<use href="#path23" transform="translate(13500 0)"/>
<use href="#path4" transform="translate(14000 0)"/>
<use href="#path24" transform="translate(14500 0)"/>
<use href="#path25" transform="translate(15000 0)"/>
<use href="#path26" transform="translate(15500 0)"/>
<use href="#path27" transform="translate(16000 0)"/>
<use href="#path28" transform="translate(18500 0)"/>
<use href="#path29" transform="translate(19000 0)"/>
<use href="#path30" transform="translate(19500 0)"/>
<use href="#path4" transform="translate(20000 0)"/>
<use href="#path31" transform="translate(20500 0)"/>
<use href="#path32" transform="translate(21000 0)"/>
<use href="#path33" transform="translate(21500 0)"/>
<use href="#path4" transform="translate(22000 0)"/>
<use href="#path34" transform="translate(22500 0)"/>
<use href="#path35" transform="translate(23000 0)"/>
<use href="#path36" transform="translate(23500 0)"/>
<use href="#path4" transform="translate(24000 0)"/>
<use href="#path37" transform="translate(24500 0)"/>
<use href="#path38" transform="translate(25000 0)"/>
<use href="#path39" transform="translate(25500 0)"/>
<use href="#path4" transform="translate(26000 0)"/>
<use href="#path40" transform="translate(26500 0)"/>
<use href="#path41" transform="translate(27000 0)"/>
<use href="#path42" transform="translate(27500 0)"/>
<use href="#path4" transform="translate(28000 0)"/>
<use href="#path43" transform="translate(28500 0)"/>
<use href="#path44" transform="translate(29000 0)"/>
<use href="#path45" transform="translate(29500 0)"/>
<use href="#path46" transform="translate(30000 0)"/>
<use href="#path4" transform="translate(30500 0)"/>
<use href="#path47" transform="translate(31000 0)"/>
<use href="#path48" transform="translate(31500 0)"/>
<use href="#path49" transform="translate(32000 0)"/>
<use href="#path4" transform="translate(32500.004 0)"/>
<use href="#path50" transform="translate(33000 0)"/>
<use href="#path51" transform="translate(33500 0)"/>
<use href="#path52" transform="translate(34000 0)"/>
<use href="#path53" transform="translate(34500 0)"/>
</g>
<g data-source-text="    " fill="#dee4e3" transform="translate(1020 48.16) rotate(0) scale(0.023999998)"/>
<g data-source-text="&#xA;" fill="#dee4e3" transform="translate(1068 48.16) rotate(0) scale(0.023999998)"/>
<g data-source-text="!iIlL17| coO08BbDQ $5SZ2zs 96m    float il1[]={1-2/3.4,5+6=7/8%90};" fill="#dee4e3" transform="translate(180 85.66) rotate(0) scale(0.023999998)">
<use href="#path54" transform="translate(0 0)"/>
<use href="#path36" transform="translate(500 0)"/>
<use href="#path10" transform="translate(1000 0)"/>
<use href="#path39" transform="translate(1500 0)"/>
<use href="#path13" transform="translate(2000 0)"/>
<use href="#path55" transform="translate(2500 0)"/>
<use href="#path56" transform="translate(3000 0)"/>
<use href="#path57" transform="translate(3500 0)"/>
<use href="#path58" transform="translate(4000 0)"/>
<use href="#path59" transform="translate(5000 0)"/>
<use href="#path30" transform="translate(5500 0)"/>
<use href="#path42" transform="translate(6000 0)"/>
<use href="#path16" transform="translate(6500 0)"/>
<use href="#path60" transform="translate(7000 0)"/>
<use href="#path61" transform="translate(7500 0)"/>
<use href="#path2" transform="translate(8000 0)"/>
<use href="#path29" transform="translate(8500 0)"/>
<use href="#path5" transform="translate(9000 0)"/>
<use href="#path18" transform="translate(9500 0)"/>
<use href="#path62" transform="translate(10500 0)"/>
<use href="#path63" transform="translate(11000 0)"/>
<use href="#path20" transform="translate(11500 0)"/>
<use href="#path27" transform="translate(12000 0)"/>
<use href="#path64" transform="translate(12500 0)"/>
<use href="#path53" transform="translate(13000 0)"/>
<use href="#path46" transform="translate(13500 0)"/>
<use href="#path65" transform="translate(14500 0)"/>
<use href="#path66" transform="translate(15000 0)"/>
<use href="#path67" transform="translate(15500 0)"/>
<use href="#path40" transform="translate(16000 0)"/>
<use href="#path33" transform="translate(18500 0)"/>
<use href="#path39" transform="translate(19000 0)"/>
<use href="#path42" transform="translate(19500 0)"/>
<use href="#path28" transform="translate(20000 0)"/>
<use href="#path47" transform="translate(20500 0)"/>
<use href="#path36" transform="translate(21500 0)"/>
<use href="#path39" transform="translate(22000 0)"/>
<use href="#path55" transform="translate(22500 0)"/>
<use href="#path68" transform="translate(23000 0)"/>
<use href="#path69" transform="translate(23500 0)"/>
<use href="#path70" transform="translate(24000 0)"/>
<use href="#path71" transform="translate(24500 0)"/>
<use href="#path55" transform="translate(25000 0)"/>
<use href="#path72" transform="translate(25500 0)"/>
<use href="#path64" transform="translate(26000 0)"/>
<use href="#path73" transform="translate(26500 0)"/>
<use href="#path74" transform="translate(27000 0)"/>
<use href="#path4" transform="translate(27500 0)"/>
<use href="#path75" transform="translate(28000 0)"/>
<use href="#path76" transform="translate(28500 0)"/>
<use href="#path63" transform="translate(29000 0)"/>
<use href="#path77" transform="translate(29500 0)"/>
<use href="#path66" transform="translate(30000 0)"/>
<use href="#path70" transform="translate(30500 0)"/>
<use href="#path56" transform="translate(31000 0)"/>
<use href="#path73" transform="translate(31500 0)"/>
<use href="#path61" transform="translate(32000 0)"/>
<use href="#path78" transform="translate(32500.004 0)"/>
<use href="#path65" transform="translate(33000 0)"/>
<use href="#path60" transform="translate(33500 0)"/>
<use href="#path79" transform="translate(34000 0)"/>
<use href="#path80" transform="translate(34500 0)"/>
</g>
<g data-source-text="    " fill="#dee4e3" transform="translate(1020 85.66) rotate(0) scale(0.023999998)"/>
<g data-source-text="&#xA;" fill="#dee4e3" transform="translate(1068 85.66) rotate(0) scale(0.023999998)"/>
<g data-source-text="1234567890 ,._-+= &gt;&lt; -_ ~+    {*}[]()&lt;&gt;`+-=$/#_%^@\&amp;|~?&apos;&quot; !,.;:" fill="#dee4e3" transform="translate(180 123.16) rotate(0) scale(0.023999998)">
<use href="#path55" transform="translate(0 0)"/>
<use href="#path64" transform="translate(500 0)"/>
<use href="#path74" transform="translate(1000 0)"/>
<use href="#path75" transform="translate(1500 0)"/>
<use href="#path63" transform="translate(2000 0)"/>
<use href="#path66" transform="translate(2500 0)"/>
<use href="#path56" transform="translate(3000 0)"/>
<use href="#path61" transform="translate(3500 0)"/>
<use href="#path65" transform="translate(4000 0)"/>
<use href="#path60" transform="translate(4500 0)"/>
<use href="#path76" transform="translate(5500 0)"/>
<use href="#path4" transform="translate(6000 0)"/>
<use href="#path81" transform="translate(6500 0)"/>
<use href="#path72" transform="translate(7000 0)"/>
<use href="#path77" transform="translate(7500 0)"/>
<use href="#path70" transform="translate(8000 0)"/>
<use href="#path82" transform="translate(9000 0)"/>
<use href="#path83" transform="translate(9500 0)"/>
<use href="#path84" transform="translate(10500 0)"/>
<use href="#path85" transform="translate(11000 0)"/>
<use href="#path72" transform="translate(11500 0)"/>
<use href="#path86" transform="translate(12000 0)"/>
<use href="#path81" transform="translate(12500 0)"/>
<use href="#path87" transform="translate(13000 0)"/>
<use href="#path88" transform="translate(14000 0)"/>
<use href="#path89" transform="translate(14500 0)"/>
<use href="#path90" transform="translate(15000 0)"/>
<use href="#path77" transform="translate(15500 0)"/>
<use href="#path91" transform="translate(16000 0)"/>
<use href="#path71" transform="translate(18500 0)"/>
<use href="#path92" transform="translate(19000 0)"/>
<use href="#path79" transform="translate(19500 0)"/>
<use href="#path68" transform="translate(20000 0)"/>
<use href="#path69" transform="translate(20500 0)"/>
<use href="#path93" transform="translate(21000 0)"/>
<use href="#path94" transform="translate(21500 0)"/>
<use href="#path95" transform="translate(22000 0)"/>
<use href="#path96" transform="translate(22500 0)"/>
<use href="#path97" transform="translate(23000 0)"/>
<use href="#path77" transform="translate(23500 0)"/>
<use href="#path72" transform="translate(24000 0)"/>
<use href="#path70" transform="translate(24500 0)"/>
<use href="#path62" transform="translate(25000 0)"/>
<use href="#path73" transform="translate(25500 0)"/>
<use href="#path98" transform="translate(26000 0)"/>
<use href="#path81" transform="translate(26500 0)"/>
<use href="#path78" transform="translate(27000 0)"/>
<use href="#path99" transform="translate(27500 0)"/>
<use href="#path100" transform="translate(28000 0)"/>
<use href="#path101" transform="translate(28500 0)"/>
<use href="#path102" transform="translate(29000 0)"/>
<use href="#path57" transform="translate(29500 0)"/>
<use href="#path88" transform="translate(30000 0)"/>
<use href="#path103" transform="translate(30500 0)"/>
<use href="#path104" transform="translate(31000 0)"/>
<use href="#path105" transform="translate(31500 0)"/>
<use href="#path54" transform="translate(32500.004 0)"/>
<use href="#path76" transform="translate(33000 0)"/>
<use href="#path4" transform="translate(33500 0)"/>
<use href="#path80" transform="translate(34000 0)"/>
<use href="#path106" transform="translate(34500 0)"/>
</g>
<g data-source-text="    " fill="#dee4e3" transform="translate(1020 123.16) rotate(0) scale(0.023999998)"/>
<g data-source-text="&#xA;" fill="#dee4e3" transform="translate(1068 123.16) rotate(0) scale(0.023999998)"/>
<g data-source-text="E3CGQ g9q uvw  " fill="#dee4e3" transform="translate(180 160.66) rotate(0) scale(0.023999998)">
<use href="#path6" transform="translate(0 0)"/>
<use href="#path74" transform="translate(500 0)"/>
<use href="#path3" transform="translate(1000 0)"/>
<use href="#path8" transform="translate(1500 0)"/>
<use href="#path18" transform="translate(2000 0)"/>
<use href="#path34" transform="translate(3000 0)"/>
<use href="#path65" transform="translate(3500 0)"/>
<use href="#path44" transform="translate(4000 0)"/>
<use href="#path107" transform="translate(4500 0)"/>
<use href="#path48" transform="translate(5500 0)"/>
<use href="#path49" transform="translate(6000 0)"/>
<use href="#path50" transform="translate(6500 0)"/>
<use href="#path108" transform="translate(7500 0)"/>
<use href="#path109" transform="translate(8000 0)"/>
<use href="#path110" transform="translate(8500 0)"/>
<use href="#path111" transform="translate(9000 0)"/>
</g>
<g data-source-text="    " fill="#dee4e3" transform="translate(420 160.66) rotate(0) scale(0.023999998)">
<use href="#path112" transform="translate(0 0)"/>
<use href="#path113" transform="translate(500 0)"/>
<use href="#path114" transform="translate(1000 0)"/>
<use href="#path115" transform="translate(1500 0)"/>
<use href="#path116" transform="translate(2000 0)"/>
<use href="#path117" transform="translate(2500 0)"/>
<use href="#path118" transform="translate(3000 0)"/>
<use href="#path119" transform="translate(3500 0)"/>
<use href="#path120" transform="translate(4000 0)"/>
<use href="#path121" transform="translate(4500 0)"/>
<use href="#path122" transform="translate(5000 0)"/>
<use href="#path123" transform="translate(5500 0)"/>
<use href="#path124" transform="translate(6000 0)"/>
</g>
<g data-source-text=" &lt;= != == =&gt; -&gt;" fill="#dee4e3" transform="translate(624 160.66) rotate(0) scale(0.023999998)">
<use href="#path125" transform="translate(0 0)"/>
<use href="#path126" transform="translate(500 0)"/>
<use href="#path127" transform="translate(1000 0)"/>
<use href="#path128" transform="translate(1500 0)"/>
<use href="#path129" transform="translate(2000 0)"/>
<use href="#path130" transform="translate(2500 0)"/>
<use href="#path131" transform="translate(3000 0)"/>
<use href="#path132" transform="translate(3500 0)"/>
<use href="#path133" transform="translate(4000 0)"/>
<use href="#path134" transform="translate(4500 0)"/>
<use href="#path135" transform="translate(5000 0)"/>
<use href="#path43" transform="translate(5500 0)"/>
<use href="#path52" transform="translate(6000 0)"/>
<use href="#path136" transform="translate(6500 0)"/>
<use href="#path137" transform="translate(7000 0)"/>
<use href="#path138" transform="translate(7500 0)"/>
<use href="#path139" transform="translate(8000 0)"/>
<use href="#path140" transform="translate(8500 0)"/>
<use href="#path141" transform="translate(9500 0)"/>
<use href="#path142" transform="translate(10000 0)"/>
<use href="#path143" transform="translate(11000 0)"/>
<use href="#path144" transform="translate(11500 0)"/>
<use href="#path145" transform="translate(12500 0)"/>
<use href="#path146" transform="translate(13000 0)"/>
<use href="#path147" transform="translate(14000 0)"/>
<use href="#path148" transform="translate(14500 0)"/>
<use href="#path149" transform="translate(15500 0)"/>
<use href="#path82" transform="translate(16000 0)"/>
</g>
<g data-source-text="    " fill="#dee4e3" transform="translate(1020 160.66) rotate(0) scale(0.023999998)"/>
</g>
</svg>